<svg width="32" height="32" viewBox="0 0 32 32" fill="none" xmlns="http://www.w3.org/2000/svg">
<g clip-path="url(#clip0_7443_681)">
<path d="M19.5 31.5C22.2614 31.5 24.5 29.2614 24.5 26.5L24.5 -0.5L7.5 -0.500001L7.5 26.5C7.5 29.2614 9.73858 31.5 12.5 31.5L19.5 31.5Z" fill="white"/>
<path d="M21.3965 10.0676C21.3965 10.7732 21.295 11.4306 21.092 12.0396C20.8987 12.6486 20.657 13.1512 20.367 13.5476L18.4965 12.4891C18.7478 12.1411 18.9508 11.7447 19.1055 11.3001C19.2602 10.8651 19.3375 10.4591 19.3375 10.0821C19.3375 9.68573 19.2553 9.37639 19.091 9.15406C18.9363 8.93173 18.7237 8.82056 18.453 8.82056C18.163 8.82056 17.931 8.96073 17.757 9.24106C17.5927 9.53106 17.409 9.98056 17.206 10.5896C16.974 11.2566 16.7565 11.7931 16.5535 12.1991C16.3505 12.6147 16.046 12.9772 15.64 13.2866C15.2437 13.5959 14.7265 13.7506 14.0885 13.7506C13.4118 13.7506 12.827 13.5717 12.334 13.2141C11.841 12.8661 11.464 12.3779 11.203 11.7496C10.9517 11.1309 10.826 10.4204 10.826 9.61806C10.826 8.97039 10.9082 8.31789 11.0725 7.66056C11.2368 7.01289 11.4688 6.43772 11.7685 5.93506L13.8565 6.68906C13.3055 7.75239 13.03 8.74322 13.03 9.66156C13.03 10.1159 13.117 10.4591 13.291 10.6911C13.465 10.9231 13.6922 11.0391 13.9725 11.0391C14.2528 11.0391 14.4703 10.9086 14.625 10.6476C14.7893 10.3866 14.9537 9.98056 15.118 9.42956C15.3403 8.71423 15.5482 8.14389 15.7415 7.71856C15.9445 7.29323 16.249 6.92589 16.655 6.61656C17.0707 6.30723 17.6168 6.15256 18.2935 6.15256C18.9315 6.15256 19.4825 6.31689 19.9465 6.64556C20.4202 6.97423 20.7778 7.43339 21.0195 8.02306C21.2708 8.61273 21.3965 9.29423 21.3965 10.0676Z" fill="black"/>
<path d="M11 23.8649L11 21.0809L14.219 19.1524L14.219 18.9349L14.219 17.7314L11 17.7314L11 15.2229L21.15 15.2229L21.15 19.1669C21.15 20.6169 20.8648 21.6899 20.2945 22.3859C19.7242 23.0819 18.9218 23.4299 17.8875 23.4299C17.1045 23.4299 16.4472 23.2607 15.9155 22.9224C15.3935 22.5937 14.9972 22.1297 14.7265 21.5304L11 23.8649ZM19.004 17.7314L16.365 17.7314L16.365 19.0944C16.365 19.6067 16.481 20.0079 16.713 20.2979C16.9547 20.5975 17.3027 20.7474 17.757 20.7474C18.1727 20.7474 18.482 20.612 18.685 20.3414C18.8977 20.0707 19.004 19.6405 19.004 19.0509L19.004 17.7314Z" fill="black"/>
</g>
<defs>
<clipPath id="clip0_7443_681">
<rect width="32" height="32" fill="white"/>
</clipPath>
</defs>
</svg>
