<svg width="32" height="32" viewBox="0 0 32 32" fill="none" xmlns="http://www.w3.org/2000/svg">
<g clip-path="url(#clip0_7443_684)">
<path d="M12.5 31.5C9.73858 31.5 7.5 29.2614 7.5 26.5L7.5 -0.5L24.5 -0.499998L24.5 26.5C24.5 29.2614 22.2614 31.5 19.5 31.5L12.5 31.5Z" fill="white"/>
<path d="M10.6035 18.9324C10.6035 18.2268 10.705 17.5694 10.908 16.9604C11.1013 16.3514 11.343 15.8488 11.633 15.4524L13.5035 16.5109C13.2522 16.8589 13.0492 17.2553 12.8945 17.6999C12.7398 18.1349 12.6625 18.5409 12.6625 18.9179C12.6625 19.3143 12.7447 19.6236 12.909 19.8459C13.0637 20.0683 13.2763 20.1794 13.547 20.1794C13.837 20.1794 14.069 20.0393 14.243 19.7589C14.4073 19.4689 14.591 19.0194 14.794 18.4104C15.026 17.7434 15.2435 17.2069 15.4465 16.8009C15.6495 16.3853 15.954 16.0228 16.36 15.7134C16.7563 15.4041 17.2735 15.2494 17.9115 15.2494C18.5882 15.2494 19.173 15.4283 19.666 15.7859C20.159 16.1339 20.536 16.6221 20.797 17.2504C21.0484 17.8691 21.174 18.5796 21.174 19.3819C21.174 20.0296 21.0918 20.6821 20.9275 21.3394C20.7632 21.9871 20.5312 22.5623 20.2315 23.0649L18.1435 22.3109C18.6945 21.2476 18.97 20.2568 18.97 19.3384C18.97 18.8841 18.883 18.5409 18.709 18.3089C18.535 18.0769 18.3078 17.9609 18.0275 17.9609C17.7472 17.9609 17.5297 18.0914 17.375 18.3524C17.2107 18.6134 17.0463 19.0194 16.882 19.5704C16.6597 20.2858 16.4518 20.8561 16.2585 21.2814C16.0555 21.7068 15.751 22.0741 15.345 22.3834C14.9293 22.6928 14.3832 22.8474 13.7065 22.8474C13.0685 22.8474 12.5175 22.6831 12.0535 22.3544C11.5798 22.0258 11.2222 21.5666 10.9805 20.9769C10.7292 20.3873 10.6035 19.7058 10.6035 18.9324Z" fill="black"/>
<path d="M21 6.67213L21 13.7771L10.85 13.7771L10.85 11.2686L18.738 11.2686L18.738 6.67213L21 6.67213Z" fill="black"/>
</g>
<defs>
<clipPath id="clip0_7443_684">
<rect width="32" height="32" fill="white"/>
</clipPath>
</defs>
</svg>
