<svg width="32" height="32" viewBox="0 0 32 32" fill="none" xmlns="http://www.w3.org/2000/svg">
<g clip-path="url(#clip0_7443_687)">
<path d="M12.5 -0.499999C9.73858 -0.5 7.5 1.73858 7.5 4.5L7.5 31.5L24.5 31.5L24.5 4.5C24.5 1.73858 22.2614 -0.499998 19.5 -0.499998L12.5 -0.499999Z" fill="white"/>
<path d="M10.6035 20.9324C10.6035 20.2268 10.705 19.5694 10.908 18.9604C11.1013 18.3514 11.343 17.8488 11.633 17.4524L13.5035 18.5109C13.2522 18.8589 13.0492 19.2553 12.8945 19.6999C12.7398 20.1349 12.6625 20.5409 12.6625 20.9179C12.6625 21.3143 12.7447 21.6236 12.909 21.8459C13.0637 22.0683 13.2763 22.1794 13.547 22.1794C13.837 22.1794 14.069 22.0393 14.243 21.7589C14.4073 21.4689 14.591 21.0194 14.794 20.4104C15.026 19.7434 15.2435 19.2069 15.4465 18.8009C15.6495 18.3853 15.954 18.0228 16.36 17.7134C16.7563 17.4041 17.2735 17.2494 17.9115 17.2494C18.5882 17.2494 19.173 17.4283 19.666 17.7859C20.159 18.1339 20.536 18.6221 20.797 19.2504C21.0484 19.8691 21.174 20.5796 21.174 21.3819C21.174 22.0296 21.0918 22.6821 20.9275 23.3394C20.7632 23.9871 20.5312 24.5623 20.2315 25.0649L18.1435 24.3109C18.6945 23.2476 18.97 22.2568 18.97 21.3384C18.97 20.8841 18.883 20.5409 18.709 20.3089C18.535 20.0769 18.3078 19.9609 18.0275 19.9609C17.7472 19.9609 17.5297 20.0914 17.375 20.3524C17.2107 20.6134 17.0463 21.0194 16.882 21.5704C16.6597 22.2858 16.4518 22.8561 16.2585 23.2814C16.0555 23.7068 15.751 24.0741 15.345 24.3834C14.9293 24.6928 14.3832 24.8474 13.7065 24.8474C13.0685 24.8474 12.5175 24.6831 12.0535 24.3544C11.5798 24.0258 11.2222 23.5666 10.9805 22.9769C10.7292 22.3873 10.6035 21.7058 10.6035 20.9324Z" fill="black"/>
<path d="M21 7.13513L21 9.91913L17.781 11.8476L17.781 12.0651L17.781 13.2686L21 13.2686L21 15.7771L10.85 15.7771L10.85 11.8331C10.85 10.3831 11.1352 9.31012 11.7055 8.61412C12.2759 7.91812 13.0782 7.57012 14.1125 7.57012C14.8955 7.57012 15.5529 7.73929 16.0845 8.07762C16.6065 8.40629 17.0029 8.87029 17.2735 9.46963L21 7.13513ZM12.996 13.2686L15.635 13.2686L15.635 11.9056C15.635 11.3933 15.519 10.9921 15.287 10.7021C15.0454 10.4025 14.6974 10.2526 14.243 10.2526C13.8274 10.2526 13.518 10.388 13.315 10.6586C13.1024 10.9293 12.996 11.3595 12.996 11.9491L12.996 13.2686Z" fill="black"/>
</g>
<defs>
<clipPath id="clip0_7443_687">
<rect width="32" height="32" fill="white"/>
</clipPath>
</defs>
</svg>
