<svg width="32" height="32" viewBox="0 0 32 32" fill="none" xmlns="http://www.w3.org/2000/svg">
<g clip-path="url(#clip0_7443_678)">
<path d="M19.5 -0.5C22.2614 -0.5 24.5 1.73858 24.5 4.5L24.5 31.5L7.5 31.5L7.5 4.5C7.5 1.73858 9.73858 -0.500001 12.5 -0.500001L19.5 -0.5Z" fill="white"/>
<path d="M21.3965 12.0676C21.3965 12.7732 21.295 13.4306 21.092 14.0396C20.8987 14.6486 20.657 15.1512 20.367 15.5476L18.4965 14.4891C18.7478 14.1411 18.9508 13.7447 19.1055 13.3001C19.2602 12.8651 19.3375 12.4591 19.3375 12.0821C19.3375 11.6857 19.2553 11.3764 19.091 11.1541C18.9363 10.9317 18.7237 10.8206 18.453 10.8206C18.163 10.8206 17.931 10.9607 17.757 11.2411C17.5927 11.5311 17.409 11.9806 17.206 12.5896C16.974 13.2566 16.7565 13.7931 16.5535 14.1991C16.3505 14.6147 16.046 14.9772 15.64 15.2866C15.2437 15.5959 14.7265 15.7506 14.0885 15.7506C13.4118 15.7506 12.827 15.5717 12.334 15.2141C11.841 14.8661 11.464 14.3779 11.203 13.7496C10.9517 13.1309 10.826 12.4204 10.826 11.6181C10.826 10.9704 10.9082 10.3179 11.0725 9.66056C11.2368 9.01289 11.4688 8.43772 11.7685 7.93506L13.8565 8.68906C13.3055 9.75239 13.03 10.7432 13.03 11.6616C13.03 12.1159 13.117 12.4591 13.291 12.6911C13.465 12.9231 13.6922 13.0391 13.9725 13.0391C14.2528 13.0391 14.4703 12.9086 14.625 12.6476C14.7893 12.3866 14.9537 11.9806 15.118 11.4296C15.3403 10.7142 15.5482 10.1439 15.7415 9.71856C15.9445 9.29323 16.249 8.92589 16.655 8.61656C17.0707 8.30723 17.6168 8.15256 18.2935 8.15256C18.9315 8.15256 19.4825 8.31689 19.9465 8.64556C20.4202 8.97423 20.7778 9.43339 21.0195 10.0231C21.2708 10.6127 21.3965 11.2942 21.3965 12.0676Z" fill="black"/>
<path d="M11 24.3279L11 17.2229L21.15 17.2229L21.15 19.7314L13.262 19.7314L13.262 24.3279L11 24.3279Z" fill="black"/>
</g>
<defs>
<clipPath id="clip0_7443_678">
<rect width="32" height="32" fill="white"/>
</clipPath>
</defs>
</svg>
