<svg width="32" height="32" viewBox="0 0 32 32" fill="none" xmlns="http://www.w3.org/2000/svg">
<path d="M0.176345 25.5366L5.34912 6.06529C5.93789 3.84907 7.91301 2.29583 10.1875 2.26034L26.8306 2.00063C29.6826 1.95612 32.0143 4.28346 31.9999 7.16031L31.9027 26.6514C31.8887 29.455 29.6475 31.7289 26.8679 31.7597L5.14928 31.9997C1.77912 32.0369 -0.695969 28.8202 0.176345 25.5366Z" fill="white"/>
<path d="M25.5852 11.8V20.9681H27.7132V23H20.5612V20.9681H23.2012V14.392L20.8492 15.384L20.0972 13.624L23.7772 11.8H25.5852Z" fill="black"/>
<path d="M15.3201 23H12.9841V18.536L9.08008 11.8H11.8001L14.2321 16.28L16.6801 11.8H19.2241L15.3201 18.552V23Z" fill="black"/>
</svg>
