<svg width="32" height="32" viewBox="0 0 32 32" fill="none" xmlns="http://www.w3.org/2000/svg">
<path d="M0 8C0 7.44772 0.447715 7 1 7H31C31.5523 7 32 7.44772 32 8V21.2857C32 23.4949 30.2091 25.2857 28 25.2857H4C1.79086 25.2857 0 23.4949 0 21.2857V8Z" fill="white"/>
<path d="M4.00004 12.7143C4.00004 13.0299 3.7442 13.2857 3.42861 13.2857C3.11302 13.2857 2.85718 13.0299 2.85718 12.7143C2.85718 12.3987 3.11302 12.1429 3.42861 12.1429C3.7442 12.1429 4.00004 12.3987 4.00004 12.7143Z" fill="#DCDEDF"/>
<path d="M15.4285 12.7143C15.4285 13.0299 15.1727 13.2857 14.8571 13.2857C14.5415 13.2857 14.2856 13.0299 14.2856 12.7143C14.2856 12.3987 14.5415 12.1429 14.8571 12.1429C15.1727 12.1429 15.4285 12.3987 15.4285 12.7143Z" fill="#DCDEDF"/>
<path d="M4.00004 15C4.00004 15.3156 3.7442 15.5714 3.42861 15.5714C3.11302 15.5714 2.85718 15.3156 2.85718 15C2.85718 14.6844 3.11302 14.4286 3.42861 14.4286C3.7442 14.4286 4.00004 14.6844 4.00004 15Z" fill="#DCDEDF"/>
<path d="M15.4285 15C15.4285 15.3156 15.1727 15.5714 14.8571 15.5714C14.5415 15.5714 14.2856 15.3156 14.2856 15C14.2856 14.6844 14.5415 14.4286 14.8571 14.4286C15.1727 14.4286 15.4285 14.6844 15.4285 15Z" fill="#DCDEDF"/>
<path d="M4.00004 17.2857C4.00004 17.6013 3.7442 17.8572 3.42861 17.8572C3.11302 17.8572 2.85718 17.6013 2.85718 17.2857C2.85718 16.9701 3.11302 16.7143 3.42861 16.7143C3.7442 16.7143 4.00004 16.9701 4.00004 17.2857Z" fill="#DCDEDF"/>
<path d="M4.00004 19.5714C4.00004 19.887 3.7442 20.1429 3.42861 20.1429C3.11302 20.1429 2.85718 19.887 2.85718 19.5714C2.85718 19.2558 3.11302 19 3.42861 19C3.7442 19 4.00004 19.2558 4.00004 19.5714Z" fill="#DCDEDF"/>
<path d="M4.00004 21.8571C4.00004 22.1727 3.7442 22.4286 3.42861 22.4286C3.11302 22.4286 2.85718 22.1727 2.85718 21.8571C2.85718 21.5415 3.11302 21.2857 3.42861 21.2857C3.7442 21.2857 4.00004 21.5415 4.00004 21.8571Z" fill="#DCDEDF"/>
<path d="M15.4285 17.2857C15.4285 17.6013 15.1727 17.8572 14.8571 17.8572C14.5415 17.8572 14.2856 17.6013 14.2856 17.2857C14.2856 16.9701 14.5415 16.7143 14.8571 16.7143C15.1727 16.7143 15.4285 16.9701 15.4285 17.2857Z" fill="#DCDEDF"/>
<path d="M15.4285 19.5714C15.4285 19.887 15.1727 20.1429 14.8571 20.1429C14.5415 20.1429 14.2856 19.887 14.2856 19.5714C14.2856 19.2558 14.5415 19 14.8571 19C15.1727 19 15.4285 19.2558 15.4285 19.5714Z" fill="#DCDEDF"/>
<path d="M15.4285 21.8571C15.4285 22.1727 15.1727 22.4286 14.8571 22.4286C14.5415 22.4286 14.2856 22.1727 14.2856 21.8571C14.2856 21.5415 14.5415 21.2857 14.8571 21.2857C15.1727 21.2857 15.4285 21.5415 15.4285 21.8571Z" fill="#DCDEDF"/>
<path d="M6.28568 12.7143C6.28568 13.0299 6.02984 13.2857 5.71425 13.2857C5.39866 13.2857 5.14282 13.0299 5.14282 12.7143C5.14282 12.3987 5.39866 12.1429 5.71425 12.1429C6.02984 12.1429 6.28568 12.3987 6.28568 12.7143Z" fill="#DCDEDF"/>
<path d="M17.7143 12.7143C17.7143 13.0299 17.4584 13.2857 17.1428 13.2857C16.8272 13.2857 16.5714 13.0299 16.5714 12.7143C16.5714 12.3987 16.8272 12.1429 17.1428 12.1429C17.4584 12.1429 17.7143 12.3987 17.7143 12.7143Z" fill="#DCDEDF"/>
<path d="M6.28568 15C6.28568 15.3156 6.02984 15.5714 5.71425 15.5714C5.39866 15.5714 5.14282 15.3156 5.14282 15C5.14282 14.6844 5.39866 14.4286 5.71425 14.4286C6.02984 14.4286 6.28568 14.6844 6.28568 15Z" fill="#DCDEDF"/>
<path d="M17.7143 15C17.7143 15.3156 17.4584 15.5714 17.1428 15.5714C16.8272 15.5714 16.5714 15.3156 16.5714 15C16.5714 14.6844 16.8272 14.4286 17.1428 14.4286C17.4584 14.4286 17.7143 14.6844 17.7143 15Z" fill="#DCDEDF"/>
<path d="M6.28568 17.2857C6.28568 17.6013 6.02984 17.8572 5.71425 17.8572C5.39866 17.8572 5.14282 17.6013 5.14282 17.2857C5.14282 16.9701 5.39866 16.7143 5.71425 16.7143C6.02984 16.7143 6.28568 16.9701 6.28568 17.2857Z" fill="#DCDEDF"/>
<path d="M6.28568 19.5714C6.28568 19.887 6.02984 20.1429 5.71425 20.1429C5.39866 20.1429 5.14282 19.887 5.14282 19.5714C5.14282 19.2558 5.39866 19 5.71425 19C6.02984 19 6.28568 19.2558 6.28568 19.5714Z" fill="#DCDEDF"/>
<path d="M6.28568 21.8571C6.28568 22.1727 6.02984 22.4286 5.71425 22.4286C5.39866 22.4286 5.14282 22.1727 5.14282 21.8571C5.14282 21.5415 5.39866 21.2857 5.71425 21.2857C6.02984 21.2857 6.28568 21.5415 6.28568 21.8571Z" fill="#DCDEDF"/>
<path d="M17.7143 17.2857C17.7143 17.6013 17.4584 17.8572 17.1428 17.8572C16.8272 17.8572 16.5714 17.6013 16.5714 17.2857C16.5714 16.9701 16.8272 16.7143 17.1428 16.7143C17.4584 16.7143 17.7143 16.9701 17.7143 17.2857Z" fill="#DCDEDF"/>
<path d="M17.7143 19.5714C17.7143 19.887 17.4584 20.1429 17.1428 20.1429C16.8272 20.1429 16.5714 19.887 16.5714 19.5714C16.5714 19.2558 16.8272 19 17.1428 19C17.4584 19 17.7143 19.2558 17.7143 19.5714Z" fill="#DCDEDF"/>
<path d="M17.7143 21.8571C17.7143 22.1727 17.4584 22.4286 17.1428 22.4286C16.8272 22.4286 16.5714 22.1727 16.5714 21.8571C16.5714 21.5415 16.8272 21.2857 17.1428 21.2857C17.4584 21.2857 17.7143 21.5415 17.7143 21.8571Z" fill="#DCDEDF"/>
<path d="M8.57145 12.7143C8.57145 13.0299 8.31561 13.2857 8.00002 13.2857C7.68443 13.2857 7.42859 13.0299 7.42859 12.7143C7.42859 12.3987 7.68443 12.1429 8.00002 12.1429C8.31561 12.1429 8.57145 12.3987 8.57145 12.7143Z" fill="#DCDEDF"/>
<path d="M20 12.7143C20 13.0299 19.7442 13.2857 19.4286 13.2857C19.113 13.2857 18.8572 13.0299 18.8572 12.7143C18.8572 12.3987 19.113 12.1429 19.4286 12.1429C19.7442 12.1429 20 12.3987 20 12.7143Z" fill="#DCDEDF"/>
<path d="M22.2857 12.7143C22.2857 13.0299 22.0298 13.2857 21.7143 13.2857C21.3987 13.2857 21.1428 13.0299 21.1428 12.7143C21.1428 12.3987 21.3987 12.1429 21.7143 12.1429C22.0298 12.1429 22.2857 12.3987 22.2857 12.7143Z" fill="#DCDEDF"/>
<path d="M8.57145 15C8.57145 15.3156 8.31561 15.5714 8.00002 15.5714C7.68443 15.5714 7.42859 15.3156 7.42859 15C7.42859 14.6844 7.68443 14.4286 8.00002 14.4286C8.31561 14.4286 8.57145 14.6844 8.57145 15Z" fill="#DCDEDF"/>
<path d="M20 15C20 15.3156 19.7442 15.5714 19.4286 15.5714C19.113 15.5714 18.8572 15.3156 18.8572 15C18.8572 14.6844 19.113 14.4286 19.4286 14.4286C19.7442 14.4286 20 14.6844 20 15Z" fill="#DCDEDF"/>
<path d="M22.2857 15C22.2857 15.3156 22.0298 15.5714 21.7143 15.5714C21.3987 15.5714 21.1428 15.3156 21.1428 15C21.1428 14.6844 21.3987 14.4286 21.7143 14.4286C22.0298 14.4286 22.2857 14.6844 22.2857 15Z" fill="#DCDEDF"/>
<path d="M8.57145 17.2857C8.57145 17.6013 8.31561 17.8572 8.00002 17.8572C7.68443 17.8572 7.42859 17.6013 7.42859 17.2857C7.42859 16.9701 7.68443 16.7143 8.00002 16.7143C8.31561 16.7143 8.57145 16.9701 8.57145 17.2857Z" fill="#DCDEDF"/>
<path d="M8.57145 19.5714C8.57145 19.887 8.31561 20.1429 8.00002 20.1429C7.68443 20.1429 7.42859 19.887 7.42859 19.5714C7.42859 19.2558 7.68443 19 8.00002 19C8.31561 19 8.57145 19.2558 8.57145 19.5714Z" fill="#DCDEDF"/>
<path d="M8.57145 21.8571C8.57145 22.1727 8.31561 22.4286 8.00002 22.4286C7.68443 22.4286 7.42859 22.1727 7.42859 21.8571C7.42859 21.5415 7.68443 21.2857 8.00002 21.2857C8.31561 21.2857 8.57145 21.5415 8.57145 21.8571Z" fill="#DCDEDF"/>
<path d="M20 17.2857C20 17.6013 19.7442 17.8572 19.4286 17.8572C19.113 17.8572 18.8572 17.6013 18.8572 17.2857C18.8572 16.9701 19.113 16.7143 19.4286 16.7143C19.7442 16.7143 20 16.9701 20 17.2857Z" fill="#DCDEDF"/>
<path d="M20 19.5714C20 19.887 19.7442 20.1429 19.4286 20.1429C19.113 20.1429 18.8572 19.887 18.8572 19.5714C18.8572 19.2558 19.113 19 19.4286 19C19.7442 19 20 19.2558 20 19.5714Z" fill="#DCDEDF"/>
<path d="M20 21.8571C20 22.1727 19.7442 22.4286 19.4286 22.4286C19.113 22.4286 18.8572 22.1727 18.8572 21.8571C18.8572 21.5415 19.113 21.2857 19.4286 21.2857C19.7442 21.2857 20 21.5415 20 21.8571Z" fill="#DCDEDF"/>
<path d="M22.2857 17.2857C22.2857 17.6013 22.0298 17.8572 21.7143 17.8572C21.3987 17.8572 21.1428 17.6013 21.1428 17.2857C21.1428 16.9701 21.3987 16.7143 21.7143 16.7143C22.0298 16.7143 22.2857 16.9701 22.2857 17.2857Z" fill="#DCDEDF"/>
<path d="M22.2857 19.5714C22.2857 19.887 22.0298 20.1429 21.7143 20.1429C21.3987 20.1429 21.1428 19.887 21.1428 19.5714C21.1428 19.2558 21.3987 19 21.7143 19C22.0298 19 22.2857 19.2558 22.2857 19.5714Z" fill="#DCDEDF"/>
<path d="M22.2857 21.8571C22.2857 22.1727 22.0298 22.4286 21.7143 22.4286C21.3987 22.4286 21.1428 22.1727 21.1428 21.8571C21.1428 21.5415 21.3987 21.2857 21.7143 21.2857C22.0298 21.2857 22.2857 21.5415 22.2857 21.8571Z" fill="#DCDEDF"/>
<path d="M10.8572 12.7143C10.8572 13.0299 10.6014 13.2857 10.2858 13.2857C9.97019 13.2857 9.71436 13.0299 9.71436 12.7143C9.71436 12.3987 9.97019 12.1429 10.2858 12.1429C10.6014 12.1429 10.8572 12.3987 10.8572 12.7143Z" fill="#DCDEDF"/>
<path d="M13.1429 12.7143C13.1429 13.0299 12.887 13.2857 12.5714 13.2857C12.2558 13.2857 12 13.0299 12 12.7143C12 12.3987 12.2558 12.1429 12.5714 12.1429C12.887 12.1429 13.1429 12.3987 13.1429 12.7143Z" fill="#DCDEDF"/>
<path d="M10.8572 15C10.8572 15.3156 10.6014 15.5714 10.2858 15.5714C9.97019 15.5714 9.71436 15.3156 9.71436 15C9.71436 14.6844 9.97019 14.4286 10.2858 14.4286C10.6014 14.4286 10.8572 14.6844 10.8572 15Z" fill="#DCDEDF"/>
<path d="M13.1429 15C13.1429 15.3156 12.887 15.5714 12.5714 15.5714C12.2558 15.5714 12 15.3156 12 15C12 14.6844 12.2558 14.4286 12.5714 14.4286C12.887 14.4286 13.1429 14.6844 13.1429 15Z" fill="#DCDEDF"/>
<path d="M10.8572 17.2857C10.8572 17.6013 10.6014 17.8572 10.2858 17.8572C9.97019 17.8572 9.71436 17.6013 9.71436 17.2857C9.71436 16.9701 9.97019 16.7143 10.2858 16.7143C10.6014 16.7143 10.8572 16.9701 10.8572 17.2857Z" fill="#DCDEDF"/>
<path d="M10.8572 19.5714C10.8572 19.887 10.6014 20.1429 10.2858 20.1429C9.97019 20.1429 9.71436 19.887 9.71436 19.5714C9.71436 19.2558 9.97019 19 10.2858 19C10.6014 19 10.8572 19.2558 10.8572 19.5714Z" fill="#DCDEDF"/>
<path d="M10.8572 21.8571C10.8572 22.1727 10.6014 22.4286 10.2858 22.4286C9.97019 22.4286 9.71436 22.1727 9.71436 21.8571C9.71436 21.5415 9.97019 21.2857 10.2858 21.2857C10.6014 21.2857 10.8572 21.5415 10.8572 21.8571Z" fill="#DCDEDF"/>
<path d="M13.1429 17.2857C13.1429 17.6013 12.887 17.8572 12.5714 17.8572C12.2558 17.8572 12 17.6013 12 17.2857C12 16.9701 12.2558 16.7143 12.5714 16.7143C12.887 16.7143 13.1429 16.9701 13.1429 17.2857Z" fill="#DCDEDF"/>
<path d="M13.1429 19.5714C13.1429 19.887 12.887 20.1429 12.5714 20.1429C12.2558 20.1429 12 19.887 12 19.5714C12 19.2558 12.2558 19 12.5714 19C12.887 19 13.1429 19.2558 13.1429 19.5714Z" fill="#DCDEDF"/>
<path d="M13.1429 21.8571C13.1429 22.1727 12.887 22.4286 12.5714 22.4286C12.2558 22.4286 12 22.1727 12 21.8571C12 21.5415 12.2558 21.2857 12.5714 21.2857C12.887 21.2857 13.1429 21.5415 13.1429 21.8571Z" fill="#DCDEDF"/>
<path d="M25.5 20.5L30.5 16.25L25.5 12V20.5Z" fill="black"/>
</svg>
