<svg width="64" height="64" viewBox="0 0 64 64" fill="none" xmlns="http://www.w3.org/2000/svg">
<path fill-rule="evenodd" clip-rule="evenodd" d="M10.7866 53.2132L61.9998 2V32C61.9998 48.5685 48.5684 62 31.9998 62C23.7156 62 16.2156 58.6421 10.7866 53.2132Z" fill="#DCDEDF"/>
<path fill-rule="evenodd" clip-rule="evenodd" d="M62 2H2V32C2 40.2843 5.35786 47.7843 10.7868 53.2132L62 2Z" fill="white"/>
<path d="M30.0705 38.6667H18.6372V22.3333H22.6739V35.0267H30.0705V38.6667Z" fill="black"/>
<path d="M38.5068 35.19H45.8335V38.6667H33.3968V35.3533L38.1101 31.5267C38.8412 30.92 39.3935 30.4378 39.7668 30.08C40.1401 29.7222 40.4279 29.3567 40.6301 28.9833C40.8479 28.61 40.9568 28.1978 40.9568 27.7467C40.9568 27.0467 40.6846 26.5178 40.1401 26.16C39.6112 25.8022 38.9346 25.6233 38.1101 25.6233C37.4879 25.6233 36.8735 25.7167 36.2668 25.9033C35.6601 26.0744 35.1157 26.3078 34.6335 26.6033L33.3268 23.6167C34.0735 23.1344 34.9057 22.7533 35.8235 22.4733C36.7568 22.1933 37.7523 22.0533 38.8101 22.0533C40.7701 22.0533 42.349 22.4656 43.5468 23.29C44.7446 24.0989 45.3435 25.2967 45.3435 26.8833C45.3435 27.9722 45.0323 28.9678 44.4101 29.87C43.8035 30.7567 42.8623 31.7133 41.5868 32.74L38.5068 35.19Z" fill="black"/>
</svg>
