<svg width="32" height="32" viewBox="0 0 32 32" fill="none" xmlns="http://www.w3.org/2000/svg">
<g clip-path="url(#clip0_1967_19623)">
<path d="M6.58167 19.9421L1.98255 16L6.58167 12.0579L6.58167 19.9421Z" fill="black"/>
<path fill-rule="evenodd" clip-rule="evenodd" d="M7.89575 22.7991L-0.0365295 16L7.89575 9.2009L7.89575 22.7991ZM6.58172 19.9421L6.58172 12.0579L1.9826 16L6.58172 19.9421Z" fill="white"/>
<path d="M32 4.1737H10.7866C9.91571 4.1737 9.20973 4.87967 9.20973 5.75054V21.5189C9.20973 25.0024 12.0336 27.8263 15.5171 27.8263H32V4.1737Z" fill="white"/>
<path d="M18.8186 11.5652C18.8186 11.9734 19.1495 12.3043 19.5577 12.3043C19.9659 12.3043 20.2969 11.9734 20.2969 11.5652C20.2969 11.157 19.9659 10.826 19.5577 10.826C19.1495 10.826 18.8186 11.157 18.8186 11.5652Z" fill="#DCDEDF"/>
<path d="M21.7751 11.5652C21.7751 11.9734 22.1061 12.3043 22.5143 12.3043C22.9225 12.3043 23.2534 11.9734 23.2534 11.5652C23.2534 11.157 22.9225 10.826 22.5143 10.826C22.1061 10.826 21.7751 11.157 21.7751 11.5652Z" fill="#DCDEDF"/>
<path d="M24.7318 11.5652C24.7318 11.9734 25.0627 12.3043 25.4709 12.3043C25.8792 12.3043 26.2101 11.9734 26.2101 11.5652C26.2101 11.157 25.8792 10.826 25.4709 10.826C25.0627 10.826 24.7318 11.157 24.7318 11.5652Z" fill="#DCDEDF"/>
<path d="M27.6882 11.5652C27.6882 11.9734 28.0191 12.3043 28.4274 12.3043C28.8356 12.3043 29.1665 11.9734 29.1665 11.5652C29.1665 11.157 28.8356 10.826 28.4274 10.826C28.0191 10.826 27.6882 11.157 27.6882 11.5652Z" fill="#DCDEDF"/>
<path d="M15.8622 11.5652C15.8622 11.9734 16.1931 12.3043 16.6013 12.3043C17.0095 12.3043 17.3405 11.9734 17.3405 11.5652C17.3405 11.157 17.0095 10.826 16.6013 10.826C16.1931 10.826 15.8622 11.157 15.8622 11.5652Z" fill="#DCDEDF"/>
<path d="M12.9054 11.5652C12.9054 11.9734 13.2363 12.3043 13.6445 12.3043C14.0527 12.3043 14.3837 11.9734 14.3837 11.5652C14.3837 11.157 14.0527 10.826 13.6445 10.826C13.2363 10.826 12.9054 11.157 12.9054 11.5652Z" fill="#DCDEDF"/>
<path d="M18.8186 14.5216C18.8186 14.9298 19.1495 15.2608 19.5577 15.2608C19.9659 15.2608 20.2969 14.9298 20.2969 14.5216C20.2969 14.1134 19.9659 13.7825 19.5577 13.7825C19.1495 13.7825 18.8186 14.1134 18.8186 14.5216Z" fill="#DCDEDF"/>
<path d="M21.7751 14.5216C21.7751 14.9298 22.1061 15.2608 22.5143 15.2608C22.9225 15.2608 23.2534 14.9298 23.2534 14.5216C23.2534 14.1134 22.9225 13.7825 22.5143 13.7825C22.1061 13.7825 21.7751 14.1134 21.7751 14.5216Z" fill="#DCDEDF"/>
<path d="M24.7318 14.5216C24.7318 14.9298 25.0627 15.2608 25.4709 15.2608C25.8792 15.2608 26.2101 14.9298 26.2101 14.5216C26.2101 14.1134 25.8792 13.7825 25.4709 13.7825C25.0627 13.7825 24.7318 14.1134 24.7318 14.5216Z" fill="#DCDEDF"/>
<path d="M27.6882 14.5216C27.6882 14.9298 28.0191 15.2608 28.4274 15.2608C28.8356 15.2608 29.1665 14.9298 29.1665 14.5216C29.1665 14.1134 28.8356 13.7825 28.4274 13.7825C28.0191 13.7825 27.6882 14.1134 27.6882 14.5216Z" fill="#DCDEDF"/>
<path d="M15.8622 14.5216C15.8622 14.9298 16.1931 15.2608 16.6013 15.2608C17.0095 15.2608 17.3405 14.9298 17.3405 14.5216C17.3405 14.1134 17.0095 13.7825 16.6013 13.7825C16.1931 13.7825 15.8622 14.1134 15.8622 14.5216Z" fill="#DCDEDF"/>
<path d="M12.9054 14.5216C12.9054 14.9298 13.2363 15.2608 13.6445 15.2608C14.0527 15.2608 14.3837 14.9298 14.3837 14.5216C14.3837 14.1134 14.0527 13.7825 13.6445 13.7825C13.2363 13.7825 12.9054 14.1134 12.9054 14.5216Z" fill="#DCDEDF"/>
<path d="M18.8186 17.4782C18.8186 17.8864 19.1495 18.2174 19.5577 18.2174C19.9659 18.2174 20.2969 17.8864 20.2969 17.4782C20.2969 17.07 19.9659 16.7391 19.5577 16.7391C19.1495 16.7391 18.8186 17.07 18.8186 17.4782Z" fill="#DCDEDF"/>
<path d="M21.7751 17.4782C21.7751 17.8864 22.1061 18.2174 22.5143 18.2174C22.9225 18.2174 23.2534 17.8864 23.2534 17.4782C23.2534 17.07 22.9225 16.7391 22.5143 16.7391C22.1061 16.7391 21.7751 17.07 21.7751 17.4782Z" fill="#DCDEDF"/>
<path d="M24.7318 17.4782C24.7318 17.8864 25.0627 18.2174 25.4709 18.2174C25.8792 18.2174 26.2101 17.8864 26.2101 17.4782C26.2101 17.07 25.8792 16.7391 25.4709 16.7391C25.0627 16.7391 24.7318 17.07 24.7318 17.4782Z" fill="#DCDEDF"/>
<path d="M27.6882 17.4782C27.6882 17.8864 28.0191 18.2174 28.4274 18.2174C28.8356 18.2174 29.1665 17.8864 29.1665 17.4782C29.1665 17.07 28.8356 16.7391 28.4274 16.7391C28.0191 16.7391 27.6882 17.07 27.6882 17.4782Z" fill="#DCDEDF"/>
<path d="M18.8186 20.4348C18.8186 20.8431 19.1495 21.174 19.5577 21.174C19.9659 21.174 20.2969 20.8431 20.2969 20.4348C20.2969 20.0266 19.9659 19.6957 19.5577 19.6957C19.1495 19.6957 18.8186 20.0266 18.8186 20.4348Z" fill="#DCDEDF"/>
<path d="M21.7751 20.4348C21.7751 20.8431 22.1061 21.174 22.5143 21.174C22.9225 21.174 23.2534 20.8431 23.2534 20.4348C23.2534 20.0266 22.9225 19.6957 22.5143 19.6957C22.1061 19.6957 21.7751 20.0266 21.7751 20.4348Z" fill="#DCDEDF"/>
<path d="M24.7318 20.4348C24.7318 20.8431 25.0627 21.174 25.4709 21.174C25.8792 21.174 26.2101 20.8431 26.2101 20.4348C26.2101 20.0266 25.8792 19.6957 25.4709 19.6957C25.0627 19.6957 24.7318 20.0266 24.7318 20.4348Z" fill="#DCDEDF"/>
<path d="M27.6882 20.4348C27.6882 20.8431 28.0191 21.174 28.4274 21.174C28.8356 21.174 29.1665 20.8431 29.1665 20.4348C29.1665 20.0266 28.8356 19.6957 28.4274 19.6957C28.0191 19.6957 27.6882 20.0266 27.6882 20.4348Z" fill="#DCDEDF"/>
<path d="M18.8186 23.3914C18.8186 23.7997 19.1495 24.1306 19.5577 24.1306C19.9659 24.1306 20.2969 23.7997 20.2969 23.3914C20.2969 22.9832 19.9659 22.6523 19.5577 22.6523C19.1495 22.6523 18.8186 22.9832 18.8186 23.3914Z" fill="#DCDEDF"/>
<path d="M21.7751 23.3914C21.7751 23.7997 22.1061 24.1306 22.5143 24.1306C22.9225 24.1306 23.2534 23.7997 23.2534 23.3914C23.2534 22.9832 22.9225 22.6523 22.5143 22.6523C22.1061 22.6523 21.7751 22.9832 21.7751 23.3914Z" fill="#DCDEDF"/>
<path d="M24.7318 23.3914C24.7318 23.7997 25.0627 24.1306 25.4709 24.1306C25.8792 24.1306 26.2101 23.7997 26.2101 23.3914C26.2101 22.9832 25.8792 22.6523 25.4709 22.6523C25.0627 22.6523 24.7318 22.9832 24.7318 23.3914Z" fill="#DCDEDF"/>
<path d="M27.6882 23.3914C27.6882 23.7997 28.0191 24.1306 28.4274 24.1306C28.8356 24.1306 29.1665 23.7997 29.1665 23.3914C29.1665 22.9832 28.8356 22.6523 28.4274 22.6523C28.0191 22.6523 27.6882 22.9832 27.6882 23.3914Z" fill="#DCDEDF"/>
<path d="M15.8622 17.4782C15.8622 17.8864 16.1931 18.2174 16.6013 18.2174C17.0095 18.2174 17.3405 17.8864 17.3405 17.4782C17.3405 17.07 17.0095 16.7391 16.6013 16.7391C16.1931 16.7391 15.8622 17.07 15.8622 17.4782Z" fill="#DCDEDF"/>
<path d="M15.8622 20.4348C15.8622 20.8431 16.1931 21.174 16.6013 21.174C17.0095 21.174 17.3405 20.8431 17.3405 20.4348C17.3405 20.0266 17.0095 19.6957 16.6013 19.6957C16.1931 19.6957 15.8622 20.0266 15.8622 20.4348Z" fill="#DCDEDF"/>
<path d="M15.8622 23.3914C15.8622 23.7997 16.1931 24.1306 16.6013 24.1306C17.0095 24.1306 17.3405 23.7997 17.3405 23.3914C17.3405 22.9832 17.0095 22.6523 16.6013 22.6523C16.1931 22.6523 15.8622 22.9832 15.8622 23.3914Z" fill="#DCDEDF"/>
<path d="M12.9054 17.4782C12.9054 17.8864 13.2363 18.2174 13.6445 18.2174C14.0527 18.2174 14.3837 17.8864 14.3837 17.4782C14.3837 17.07 14.0527 16.7391 13.6445 16.7391C13.2363 16.7391 12.9054 17.07 12.9054 17.4782Z" fill="#DCDEDF"/>
<path d="M12.9054 20.4348C12.9054 20.8431 13.2363 21.174 13.6445 21.174C14.0527 21.174 14.3837 20.8431 14.3837 20.4348C14.3837 20.0266 14.0527 19.6957 13.6445 19.6957C13.2363 19.6957 12.9054 20.0266 12.9054 20.4348Z" fill="#DCDEDF"/>
<path d="M12.9054 23.3914C12.9054 23.7997 13.2363 24.1306 13.6445 24.1306C14.0527 24.1306 14.3837 23.7997 14.3837 23.3914C14.3837 22.9832 14.0527 22.6523 13.6445 22.6523C13.2363 22.6523 12.9054 22.9832 12.9054 23.3914Z" fill="#DCDEDF"/>
</g>
<defs>
<clipPath id="clip0_1967_19623">
<rect width="32" height="32" fill="white"/>
</clipPath>
</defs>
</svg>
