<svg width="64" height="64" viewBox="0 0 64 64" fill="none" xmlns="http://www.w3.org/2000/svg">
<path d="M12 44C5.37258 44 0 38.6274 0 32C0 25.3726 5.37258 20 12 20H52C58.6274 20 64 25.3726 64 32C64 38.6274 58.6274 44 52 44H12Z" fill="white"/>
<path d="M10.0579 28.113C10.7545 28.113 11.3999 28.2597 11.9939 28.553C12.5879 28.839 13.0682 29.2827 13.4349 29.884C13.8015 30.478 13.9849 31.2187 13.9849 32.106C13.9849 32.9933 13.8015 33.745 13.4349 34.361C13.0682 34.9697 12.5842 35.428 11.9829 35.736C11.3889 36.0367 10.7472 36.187 10.0579 36.187C9.36853 36.187 8.72319 36.0367 8.12186 35.736C7.52786 35.428 7.04753 34.9697 6.68086 34.361C6.31419 33.745 6.13086 32.9933 6.13086 32.106C6.13086 31.2187 6.31419 30.478 6.68086 29.884C7.04753 29.2827 7.52786 28.839 8.12186 28.553C8.71586 28.2597 9.36119 28.113 10.0579 28.113ZM10.0579 29.873C9.48586 29.873 9.02753 30.0637 8.68286 30.445C8.33819 30.8263 8.16586 31.3837 8.16586 32.117C8.16586 32.8577 8.33819 33.4297 8.68286 33.833C9.02753 34.229 9.48219 34.427 10.0469 34.427C10.6115 34.427 11.0662 34.229 11.4109 33.833C11.7629 33.4297 11.9389 32.8577 11.9389 32.117C11.9389 31.3837 11.7665 30.8263 11.4219 30.445C11.0772 30.0637 10.6225 29.873 10.0579 29.873Z" fill="black"/>
<path d="M15.6723 36V28.3H18.5213C19.5186 28.3 20.2813 28.5273 20.8093 28.982C21.3446 29.4293 21.6123 30.038 21.6123 30.808C21.6123 31.3213 21.4949 31.7907 21.2603 32.216C21.0256 32.634 20.6736 32.9677 20.2043 33.217C19.7349 33.4663 19.1703 33.591 18.5103 33.591H17.5753V36H15.6723ZM18.4883 31.963C18.8329 31.963 19.1006 31.8677 19.2913 31.677C19.4819 31.4863 19.5773 31.226 19.5773 30.896C19.5773 30.5733 19.4819 30.3313 19.2913 30.17C19.1006 30.0087 18.8256 29.928 18.4663 29.928H17.5753V31.963H18.4883Z" fill="black"/>
<path d="M26.7635 36H24.8605V29.928H22.6165V28.3H29.0075V29.928H26.7635V36Z" fill="black"/>
<path d="M30.4975 28.3H32.4005V36H30.4975V28.3Z" fill="black"/>
<path d="M38.011 28.113C38.7076 28.113 39.353 28.2597 39.947 28.553C40.541 28.839 41.0213 29.2827 41.388 29.884C41.7547 30.478 41.938 31.2187 41.938 32.106C41.938 32.9933 41.7547 33.745 41.388 34.361C41.0213 34.9697 40.5373 35.428 39.936 35.736C39.342 36.0367 38.7003 36.187 38.011 36.187C37.3217 36.187 36.6763 36.0367 36.075 35.736C35.481 35.428 35.0007 34.9697 34.634 34.361C34.2673 33.745 34.084 32.9933 34.084 32.106C34.084 31.2187 34.2673 30.478 34.634 29.884C35.0007 29.2827 35.481 28.839 36.075 28.553C36.669 28.2597 37.3143 28.113 38.011 28.113ZM38.011 29.873C37.439 29.873 36.9807 30.0637 36.636 30.445C36.2913 30.8263 36.119 31.3837 36.119 32.117C36.119 32.8577 36.2913 33.4297 36.636 33.833C36.9807 34.229 37.4353 34.427 38 34.427C38.5646 34.427 39.0193 34.229 39.364 33.833C39.716 33.4297 39.892 32.8577 39.892 32.117C39.892 31.3837 39.7197 30.8263 39.375 30.445C39.0303 30.0637 38.5757 29.873 38.011 29.873Z" fill="black"/>
<path d="M48.4984 32.744V28.3H50.4344V36H48.8394L45.5284 31.622V36H43.6254V28.3H45.2314L48.4984 32.744Z" fill="black"/>
<path d="M55.1461 28.113C55.6814 28.113 56.1801 28.19 56.6421 28.344C57.1041 28.4907 57.4854 28.674 57.7861 28.894L56.9831 30.313C56.7191 30.1223 56.4184 29.9683 56.0811 29.851C55.7511 29.7337 55.4431 29.675 55.1571 29.675C54.8564 29.675 54.6218 29.7373 54.4531 29.862C54.2844 29.9793 54.2001 30.1407 54.2001 30.346C54.2001 30.566 54.3064 30.742 54.5191 30.874C54.7391 30.9987 55.0801 31.138 55.5421 31.292C56.0481 31.468 56.4551 31.633 56.7631 31.787C57.0784 31.941 57.3534 32.172 57.5881 32.48C57.8228 32.7807 57.9401 33.173 57.9401 33.657C57.9401 34.1703 57.8044 34.614 57.5331 34.988C57.2691 35.362 56.8988 35.648 56.4221 35.846C55.9528 36.0367 55.4138 36.132 54.8051 36.132C54.3138 36.132 53.8188 36.0697 53.3201 35.945C52.8288 35.8203 52.3924 35.6443 52.0111 35.417L52.5831 33.833C53.3898 34.251 54.1414 34.46 54.8381 34.46C55.1828 34.46 55.4431 34.394 55.6191 34.262C55.7951 34.13 55.8831 33.9577 55.8831 33.745C55.8831 33.5323 55.7841 33.3673 55.5861 33.25C55.3881 33.1253 55.0801 33.0007 54.6621 32.876C54.1194 32.7073 53.6868 32.5497 53.3641 32.403C53.0414 32.249 52.7628 32.018 52.5281 31.71C52.2934 31.3947 52.1761 30.9803 52.1761 30.467C52.1761 29.983 52.3008 29.565 52.5501 29.213C52.7994 28.8537 53.1478 28.5823 53.5951 28.399C54.0424 28.2083 54.5594 28.113 55.1461 28.113Z" fill="black"/>
</svg>
