<svg width="32" height="32" viewBox="0 0 32 32" fill="none" xmlns="http://www.w3.org/2000/svg">
<g clip-path="url(#clip0_1967_19555)">
<path d="M9.20972 4.1737H30.4231C31.294 4.1737 32 4.87967 32 5.75054V21.5189C32 25.0024 29.1761 27.8263 25.6926 27.8263H9.20972V4.1737Z" fill="white"/>
<path d="M22.3911 11.5652C22.3911 11.9734 22.0602 12.3043 21.652 12.3043C21.2438 12.3043 20.9128 11.9734 20.9128 11.5652C20.9128 11.157 21.2438 10.826 21.652 10.826C22.0602 10.826 22.3911 11.157 22.3911 11.5652Z" fill="#DCDEDF"/>
<path d="M19.4346 11.5652C19.4346 11.9734 19.1037 12.3043 18.6954 12.3043C18.2872 12.3043 17.9563 11.9734 17.9563 11.5652C17.9563 11.157 18.2872 10.826 18.6954 10.826C19.1037 10.826 19.4346 11.157 19.4346 11.5652Z" fill="#DCDEDF"/>
<path d="M16.4779 11.5652C16.4779 11.9734 16.147 12.3043 15.7388 12.3043C15.3306 12.3043 14.9996 11.9734 14.9996 11.5652C14.9996 11.157 15.3306 10.826 15.7388 10.826C16.147 10.826 16.4779 11.157 16.4779 11.5652Z" fill="#DCDEDF"/>
<path d="M13.5215 11.5652C13.5215 11.9734 13.1906 12.3043 12.7824 12.3043C12.3741 12.3043 12.0432 11.9734 12.0432 11.5652C12.0432 11.157 12.3741 10.826 12.7824 10.826C13.1906 10.826 13.5215 11.157 13.5215 11.5652Z" fill="#DCDEDF"/>
<path d="M25.3476 11.5652C25.3476 11.9734 25.0166 12.3043 24.6084 12.3043C24.2002 12.3043 23.8693 11.9734 23.8693 11.5652C23.8693 11.157 24.2002 10.826 24.6084 10.826C25.0166 10.826 25.3476 11.157 25.3476 11.5652Z" fill="#DCDEDF"/>
<path d="M28.3043 11.5652C28.3043 11.9734 27.9734 12.3043 27.5652 12.3043C27.157 12.3043 26.826 11.9734 26.826 11.5652C26.826 11.157 27.157 10.826 27.5652 10.826C27.9734 10.826 28.3043 11.157 28.3043 11.5652Z" fill="#DCDEDF"/>
<path d="M22.3911 14.5216C22.3911 14.9298 22.0602 15.2608 21.652 15.2608C21.2438 15.2608 20.9128 14.9298 20.9128 14.5216C20.9128 14.1134 21.2438 13.7825 21.652 13.7825C22.0602 13.7825 22.3911 14.1134 22.3911 14.5216Z" fill="#DCDEDF"/>
<path d="M19.4346 14.5216C19.4346 14.9298 19.1037 15.2608 18.6954 15.2608C18.2872 15.2608 17.9563 14.9298 17.9563 14.5216C17.9563 14.1134 18.2872 13.7825 18.6954 13.7825C19.1037 13.7825 19.4346 14.1134 19.4346 14.5216Z" fill="#DCDEDF"/>
<path d="M16.4779 14.5216C16.4779 14.9298 16.147 15.2608 15.7388 15.2608C15.3306 15.2608 14.9996 14.9298 14.9996 14.5216C14.9996 14.1134 15.3306 13.7825 15.7388 13.7825C16.147 13.7825 16.4779 14.1134 16.4779 14.5216Z" fill="#DCDEDF"/>
<path d="M13.5215 14.5216C13.5215 14.9298 13.1906 15.2608 12.7824 15.2608C12.3741 15.2608 12.0432 14.9298 12.0432 14.5216C12.0432 14.1134 12.3741 13.7825 12.7824 13.7825C13.1906 13.7825 13.5215 14.1134 13.5215 14.5216Z" fill="#DCDEDF"/>
<path d="M25.3476 14.5216C25.3476 14.9298 25.0166 15.2608 24.6084 15.2608C24.2002 15.2608 23.8693 14.9298 23.8693 14.5216C23.8693 14.1134 24.2002 13.7825 24.6084 13.7825C25.0166 13.7825 25.3476 14.1134 25.3476 14.5216Z" fill="#DCDEDF"/>
<path d="M28.3043 14.5216C28.3043 14.9298 27.9734 15.2608 27.5652 15.2608C27.157 15.2608 26.826 14.9298 26.826 14.5216C26.826 14.1134 27.157 13.7825 27.5652 13.7825C27.9734 13.7825 28.3043 14.1134 28.3043 14.5216Z" fill="#DCDEDF"/>
<path d="M22.3911 17.4782C22.3911 17.8864 22.0602 18.2174 21.652 18.2174C21.2438 18.2174 20.9128 17.8864 20.9128 17.4782C20.9128 17.07 21.2438 16.7391 21.652 16.7391C22.0602 16.7391 22.3911 17.07 22.3911 17.4782Z" fill="#DCDEDF"/>
<path d="M19.4346 17.4782C19.4346 17.8864 19.1037 18.2174 18.6954 18.2174C18.2872 18.2174 17.9563 17.8864 17.9563 17.4782C17.9563 17.07 18.2872 16.7391 18.6954 16.7391C19.1037 16.7391 19.4346 17.07 19.4346 17.4782Z" fill="#DCDEDF"/>
<path d="M16.4779 17.4782C16.4779 17.8864 16.147 18.2174 15.7388 18.2174C15.3306 18.2174 14.9996 17.8864 14.9996 17.4782C14.9996 17.07 15.3306 16.7391 15.7388 16.7391C16.147 16.7391 16.4779 17.07 16.4779 17.4782Z" fill="#DCDEDF"/>
<path d="M13.5215 17.4782C13.5215 17.8864 13.1906 18.2174 12.7824 18.2174C12.3741 18.2174 12.0432 17.8864 12.0432 17.4782C12.0432 17.07 12.3741 16.7391 12.7824 16.7391C13.1906 16.7391 13.5215 17.07 13.5215 17.4782Z" fill="#DCDEDF"/>
<path d="M22.3911 20.4348C22.3911 20.8431 22.0602 21.174 21.652 21.174C21.2438 21.174 20.9128 20.8431 20.9128 20.4348C20.9128 20.0266 21.2438 19.6957 21.652 19.6957C22.0602 19.6957 22.3911 20.0266 22.3911 20.4348Z" fill="#DCDEDF"/>
<path d="M19.4346 20.4348C19.4346 20.8431 19.1037 21.174 18.6954 21.174C18.2872 21.174 17.9563 20.8431 17.9563 20.4348C17.9563 20.0266 18.2872 19.6957 18.6954 19.6957C19.1037 19.6957 19.4346 20.0266 19.4346 20.4348Z" fill="#DCDEDF"/>
<path d="M16.4779 20.4348C16.4779 20.8431 16.147 21.174 15.7388 21.174C15.3306 21.174 14.9996 20.8431 14.9996 20.4348C14.9996 20.0266 15.3306 19.6957 15.7388 19.6957C16.147 19.6957 16.4779 20.0266 16.4779 20.4348Z" fill="#DCDEDF"/>
<path d="M13.5215 20.4348C13.5215 20.8431 13.1906 21.174 12.7824 21.174C12.3741 21.174 12.0432 20.8431 12.0432 20.4348C12.0432 20.0266 12.3741 19.6957 12.7824 19.6957C13.1906 19.6957 13.5215 20.0266 13.5215 20.4348Z" fill="#DCDEDF"/>
<path d="M22.3911 23.3914C22.3911 23.7997 22.0602 24.1306 21.652 24.1306C21.2438 24.1306 20.9128 23.7997 20.9128 23.3914C20.9128 22.9832 21.2438 22.6523 21.652 22.6523C22.0602 22.6523 22.3911 22.9832 22.3911 23.3914Z" fill="#DCDEDF"/>
<path d="M19.4346 23.3914C19.4346 23.7997 19.1037 24.1306 18.6954 24.1306C18.2872 24.1306 17.9563 23.7997 17.9563 23.3914C17.9563 22.9832 18.2872 22.6523 18.6954 22.6523C19.1037 22.6523 19.4346 22.9832 19.4346 23.3914Z" fill="#DCDEDF"/>
<path d="M16.4779 23.3914C16.4779 23.7997 16.147 24.1306 15.7388 24.1306C15.3306 24.1306 14.9996 23.7997 14.9996 23.3914C14.9996 22.9832 15.3306 22.6523 15.7388 22.6523C16.147 22.6523 16.4779 22.9832 16.4779 23.3914Z" fill="#DCDEDF"/>
<path d="M13.5215 23.3914C13.5215 23.7997 13.1906 24.1306 12.7824 24.1306C12.3741 24.1306 12.0432 23.7997 12.0432 23.3914C12.0432 22.9832 12.3741 22.6523 12.7824 22.6523C13.1906 22.6523 13.5215 22.9832 13.5215 23.3914Z" fill="#DCDEDF"/>
<path d="M25.3476 17.4782C25.3476 17.8864 25.0166 18.2174 24.6084 18.2174C24.2002 18.2174 23.8693 17.8864 23.8693 17.4782C23.8693 17.07 24.2002 16.7391 24.6084 16.7391C25.0166 16.7391 25.3476 17.07 25.3476 17.4782Z" fill="#DCDEDF"/>
<path d="M25.3476 20.4348C25.3476 20.8431 25.0166 21.174 24.6084 21.174C24.2002 21.174 23.8693 20.8431 23.8693 20.4348C23.8693 20.0266 24.2002 19.6957 24.6084 19.6957C25.0166 19.6957 25.3476 20.0266 25.3476 20.4348Z" fill="#DCDEDF"/>
<path d="M25.3476 23.3914C25.3476 23.7997 25.0166 24.1306 24.6084 24.1306C24.2002 24.1306 23.8693 23.7997 23.8693 23.3914C23.8693 22.9832 24.2002 22.6523 24.6084 22.6523C25.0166 22.6523 25.3476 22.9832 25.3476 23.3914Z" fill="#DCDEDF"/>
<path d="M28.3043 17.4782C28.3043 17.8864 27.9734 18.2174 27.5652 18.2174C27.157 18.2174 26.826 17.8864 26.826 17.4782C26.826 17.07 27.157 16.7391 27.5652 16.7391C27.9734 16.7391 28.3043 17.07 28.3043 17.4782Z" fill="#DCDEDF"/>
<path d="M28.3043 20.4348C28.3043 20.8431 27.9734 21.174 27.5652 21.174C27.157 21.174 26.826 20.8431 26.826 20.4348C26.826 20.0266 27.157 19.6957 27.5652 19.6957C27.9734 19.6957 28.3043 20.0266 28.3043 20.4348Z" fill="#DCDEDF"/>
<path d="M28.3043 23.3914C28.3043 23.7997 27.9734 24.1306 27.5652 24.1306C27.157 24.1306 26.826 23.7997 26.826 23.3914C26.826 22.9832 27.157 22.6523 27.5652 22.6523C27.9734 22.6523 28.3043 22.9832 28.3043 23.3914Z" fill="#DCDEDF"/>
<path d="M6.58167 19.9421L1.98255 16L6.58167 12.0579L6.58167 19.9421Z" fill="black"/>
<path fill-rule="evenodd" clip-rule="evenodd" d="M7.89575 22.7991L-0.0365295 16L7.89575 9.2009L7.89575 22.7991ZM6.58172 19.9421L6.58172 12.0579L1.9826 16L6.58172 19.9421Z" fill="white"/>
</g>
<defs>
<clipPath id="clip0_1967_19555">
<rect width="32" height="32" fill="white"/>
</clipPath>
</defs>
</svg>
