<svg width="64" height="64" viewBox="0 0 64 64" fill="none" xmlns="http://www.w3.org/2000/svg">
<g clip-path="url(#clip0_1967:19929)">
<path fill-rule="evenodd" clip-rule="evenodd" d="M8.53442 7.18655H54.2252C55.3999 7.18655 56.3521 8.13879 56.3521 9.31342V48.3061C56.3521 53.0046 52.5432 56.8136 47.8446 56.8136H8.53442V7.18655ZM36.1913 22.695C36.1913 23.5516 35.4969 24.2459 34.6404 24.2459C33.7839 24.2459 33.0896 23.5516 33.0896 22.695C33.0896 21.8385 33.7839 21.1442 34.6404 21.1442C35.4969 21.1442 36.1913 21.8385 36.1913 22.695ZM28.4369 24.2459C29.2934 24.2459 29.9877 23.5516 29.9877 22.695C29.9877 21.8385 29.2934 21.1442 28.4369 21.1442C27.5803 21.1442 26.886 21.8385 26.886 22.695C26.886 23.5516 27.5803 24.2459 28.4369 24.2459ZM36.1913 28.8985C36.1913 29.755 35.4969 30.4493 34.6404 30.4493C33.7839 30.4493 33.0896 29.755 33.0896 28.8985C33.0896 28.042 33.7839 27.3476 34.6404 27.3476C35.4969 27.3476 36.1913 28.042 36.1913 28.8985ZM28.4369 30.4493C29.2934 30.4493 29.9877 29.755 29.9877 28.8985C29.9877 28.042 29.2934 27.3476 28.4369 27.3476C27.5803 27.3476 26.886 28.042 26.886 28.8985C26.886 29.755 27.5803 30.4493 28.4369 30.4493ZM17.5812 28.8985C17.5812 29.755 16.8868 30.4493 16.0303 30.4493C15.1738 30.4493 14.4795 29.755 14.4795 28.8985C14.4795 28.042 15.1738 27.3476 16.0303 27.3476C16.8868 27.3476 17.5812 28.042 17.5812 28.8985ZM47.0472 30.4493C47.9037 30.4493 48.598 29.755 48.598 28.8985C48.598 28.042 47.9037 27.3476 47.0472 27.3476C46.1907 27.3476 45.4963 28.042 45.4963 28.8985C45.4963 29.755 46.1907 30.4493 47.0472 30.4493ZM36.1913 35.1018C36.1913 35.9583 35.4969 36.6526 34.6404 36.6526C33.7839 36.6526 33.0896 35.9583 33.0896 35.1018C33.0896 34.2453 33.7839 33.5509 34.6404 33.5509C35.4969 33.5509 36.1913 34.2453 36.1913 35.1018ZM28.4369 36.6526C29.2934 36.6526 29.9877 35.9583 29.9877 35.1018C29.9877 34.2453 29.2934 33.5509 28.4369 33.5509C27.5803 33.5509 26.886 34.2453 26.886 35.1018C26.886 35.9583 27.5803 36.6526 28.4369 36.6526ZM17.5812 35.1018C17.5812 35.9583 16.8868 36.6526 16.0303 36.6526C15.1738 36.6526 14.4795 35.9583 14.4795 35.1018C14.4795 34.2453 15.1738 33.5509 16.0303 33.5509C16.8868 33.5509 17.5812 34.2453 17.5812 35.1018ZM34.6404 42.8559C35.4969 42.8559 36.1913 42.1616 36.1913 41.3051C36.1913 40.4485 35.4969 39.7542 34.6404 39.7542C33.7839 39.7542 33.0896 40.4485 33.0896 41.3051C33.0896 42.1616 33.7839 42.8559 34.6404 42.8559ZM29.9877 41.3051C29.9877 42.1616 29.2934 42.8559 28.4369 42.8559C27.5803 42.8559 26.886 42.1616 26.886 41.3051C26.886 40.4485 27.5803 39.7542 28.4369 39.7542C29.2934 39.7542 29.9877 40.4485 29.9877 41.3051ZM34.6404 49.0593C35.4969 49.0593 36.1913 48.365 36.1913 47.5085C36.1913 46.652 35.4969 45.9576 34.6404 45.9576C33.7839 45.9576 33.0896 46.652 33.0896 47.5085C33.0896 48.365 33.7839 49.0593 34.6404 49.0593ZM29.9877 47.5085C29.9877 48.365 29.2934 49.0593 28.4369 49.0593C27.5803 49.0593 26.886 48.365 26.886 47.5085C26.886 46.652 27.5803 45.9576 28.4369 45.9576C29.2934 45.9576 29.9877 46.652 29.9877 47.5085ZM22.2335 49.0593C23.09 49.0593 23.7843 48.365 23.7843 47.5085C23.7843 46.652 23.09 45.9576 22.2335 45.9576C21.377 45.9576 20.6826 46.652 20.6826 47.5085C20.6826 48.365 21.377 49.0593 22.2335 49.0593ZM17.5812 47.5085C17.5812 48.365 16.8868 49.0593 16.0303 49.0593C15.1738 49.0593 14.4795 48.365 14.4795 47.5085C14.4795 46.652 15.1738 45.9576 16.0303 45.9576C16.8868 45.9576 17.5812 46.652 17.5812 47.5085ZM40.8436 49.0593C41.7001 49.0593 42.3944 48.365 42.3944 47.5085C42.3944 46.652 41.7001 45.9576 40.8436 45.9576C39.9871 45.9576 39.2927 46.652 39.2927 47.5085C39.2927 48.365 39.9871 49.0593 40.8436 49.0593ZM48.598 35.1018C48.598 35.9583 47.9037 36.6526 47.0472 36.6526C46.1907 36.6526 45.4963 35.9583 45.4963 35.1018C45.4963 34.2453 46.1907 33.5509 47.0472 33.5509C47.9037 33.5509 48.598 34.2453 48.598 35.1018ZM47.0472 49.0593C47.9037 49.0593 48.598 48.365 48.598 47.5085C48.598 46.652 47.9037 45.9576 47.0472 45.9576C46.1907 45.9576 45.4963 46.652 45.4963 47.5085C45.4963 48.365 46.1907 49.0593 47.0472 49.0593Z" fill="white"/>
<path fill-rule="evenodd" clip-rule="evenodd" d="M11.1052 43.8582L15.2069 39.502L19.2972 43.8641L25.0095 37.7628L19.6122 32.0106L25.0029 26.2529L19.2997 20.1269L15.2041 24.5082L11.1076 20.1327L-9.72748e-05 32.0154L11.1052 43.8582ZM15.9685 32.0125L21.3657 37.7648L19.2957 39.9758L11.8284 32.0125L19.2957 24.0243L21.3657 26.2478L15.9685 32.0125ZM3.64184 32.0125L11.1092 39.9758L13.1792 37.7773L7.7819 32.0125L13.1792 26.2353L11.1092 24.0243L3.64184 32.0125Z" fill="white"/>
<path fill-rule="evenodd" clip-rule="evenodd" d="M52.8948 43.8582L48.7931 39.502L44.7028 43.8641L38.9905 37.7628L44.3878 32.0106L38.9971 26.2529L44.7003 20.1269L48.7959 24.5082L52.8924 20.1327L64.0001 32.0154L52.8948 43.8582ZM48.0315 32.0125L42.6343 37.7648L44.7043 39.9758L52.1716 32.0125L44.7043 24.0243L42.6343 26.2478L48.0315 32.0125ZM60.3582 32.0125L52.8908 39.9758L50.8208 37.7773L56.2181 32.0125L50.8208 26.2353L52.8908 24.0243L60.3582 32.0125Z" fill="white"/>
<path d="M3.64183 32.0125L11.1091 39.9758L13.1792 37.7773L7.78189 32.0125L13.1792 26.2353L11.1091 24.0243L3.64183 32.0125Z" fill="black"/>
<path d="M15.9684 32.0125L21.3657 37.7648L19.2957 39.9758L11.8284 32.0125L19.2957 24.0243L21.3657 26.2477L15.9684 32.0125Z" fill="black"/>
<path d="M60.3584 32.0125L52.8911 39.9758L50.8211 37.7773L56.2184 32.0125L50.8211 26.2353L52.8911 24.0243L60.3584 32.0125Z" fill="black"/>
<path d="M48.0318 32.0125L42.6345 37.7648L44.7046 39.9758L52.1719 32.0125L44.7046 24.0243L42.6345 26.2477L48.0318 32.0125Z" fill="black"/>
</g>
<defs>
<clipPath id="clip0_1967:19929">
<rect width="64" height="64" fill="white"/>
</clipPath>
</defs>
</svg>
