<svg width="64" height="64" viewBox="0 0 64 64" fill="none" xmlns="http://www.w3.org/2000/svg">
<path d="M47.3866 7.41021H3.07377C1.3762 7.41021 4.57764e-05 8.78636 4.57764e-05 10.4839V44.2949C4.57764e-05 51.0852 5.50465 56.5898 12.2949 56.5898H47.3866V7.41021Z" fill="white"/>
<path d="M19.9791 22.7788C19.9791 23.6276 20.6672 24.3157 21.516 24.3157C22.3648 24.3157 23.0529 23.6276 23.0529 22.7788C23.0529 21.93 22.3648 21.2419 21.516 21.2419C20.6672 21.2419 19.9791 21.93 19.9791 22.7788Z" fill="#DCDEDF"/>
<path d="M13.832 22.7788C13.832 23.6276 14.5201 24.3157 15.3689 24.3157C16.2177 24.3157 16.9058 23.6276 16.9058 22.7788C16.9058 21.93 16.2177 21.2419 15.3689 21.2419C14.5201 21.2419 13.832 21.93 13.832 22.7788Z" fill="#DCDEDF"/>
<path d="M7.68421 22.7788C7.68421 23.6276 8.37229 24.3157 9.22107 24.3157C10.0699 24.3157 10.7579 23.6276 10.7579 22.7788C10.7579 21.93 10.0699 21.2419 9.22107 21.2419C8.37229 21.2419 7.68421 21.93 7.68421 22.7788Z" fill="#DCDEDF"/>
<path d="M19.9791 28.9263C19.9791 29.7751 20.6672 30.4632 21.516 30.4632C22.3648 30.4632 23.0529 29.7751 23.0529 28.9263C23.0529 28.0775 22.3648 27.3895 21.516 27.3895C20.6672 27.3895 19.9791 28.0775 19.9791 28.9263Z" fill="#DCDEDF"/>
<path d="M13.832 28.9263C13.832 29.7751 14.5201 30.4632 15.3689 30.4632C16.2177 30.4632 16.9058 29.7751 16.9058 28.9263C16.9058 28.0775 16.2177 27.3895 15.3689 27.3895C14.5201 27.3895 13.832 28.0775 13.832 28.9263Z" fill="#DCDEDF"/>
<path d="M7.68421 28.9263C7.68421 29.7751 8.37229 30.4632 9.22107 30.4632C10.0699 30.4632 10.7579 29.7751 10.7579 28.9263C10.7579 28.0775 10.0699 27.3895 9.22107 27.3895C8.37229 27.3895 7.68421 28.0775 7.68421 28.9263Z" fill="#DCDEDF"/>
<path d="M32.2742 47.3686C32.2742 48.2174 32.9623 48.9055 33.811 48.9055C34.6598 48.9055 35.3479 48.2174 35.3479 47.3686C35.3479 46.5198 34.6598 45.8317 33.811 45.8317C32.9623 45.8317 32.2742 46.5198 32.2742 47.3686Z" fill="#DCDEDF"/>
<path d="M26.1264 41.2212C26.1264 42.07 26.8144 42.758 27.6632 42.758C28.512 42.758 29.2001 42.07 29.2001 41.2212C29.2001 40.3724 28.512 39.6843 27.6632 39.6843C26.8144 39.6843 26.1264 40.3724 26.1264 41.2212Z" fill="#DCDEDF"/>
<path d="M26.1264 47.3686C26.1264 48.2174 26.8144 48.9055 27.6632 48.9055C28.512 48.9055 29.2001 48.2174 29.2001 47.3686C29.2001 46.5198 28.512 45.8317 27.6632 45.8317C26.8144 45.8317 26.1264 46.5198 26.1264 47.3686Z" fill="#DCDEDF"/>
<path d="M19.9791 35.0737C19.9791 35.9225 20.6672 36.6106 21.516 36.6106C22.3648 36.6106 23.0529 35.9225 23.0529 35.0737C23.0529 34.225 22.3648 33.5369 21.516 33.5369C20.6672 33.5369 19.9791 34.225 19.9791 35.0737Z" fill="#DCDEDF"/>
<path d="M19.9791 41.2212C19.9791 42.07 20.6672 42.758 21.516 42.758C22.3648 42.758 23.0529 42.07 23.0529 41.2212C23.0529 40.3724 22.3648 39.6843 21.516 39.6843C20.6672 39.6843 19.9791 40.3724 19.9791 41.2212Z" fill="#DCDEDF"/>
<path d="M19.9791 47.3686C19.9791 48.2174 20.6672 48.9055 21.516 48.9055C22.3648 48.9055 23.0529 48.2174 23.0529 47.3686C23.0529 46.5198 22.3648 45.8317 21.516 45.8317C20.6672 45.8317 19.9791 46.5198 19.9791 47.3686Z" fill="#DCDEDF"/>
<path d="M13.832 35.0737C13.832 35.9225 14.5201 36.6106 15.3689 36.6106C16.2177 36.6106 16.9058 35.9225 16.9058 35.0737C16.9058 34.225 16.2177 33.5369 15.3689 33.5369C14.5201 33.5369 13.832 34.225 13.832 35.0737Z" fill="#DCDEDF"/>
<path d="M13.832 41.2212C13.832 42.07 14.5201 42.758 15.3689 42.758C16.2177 42.758 16.9058 42.07 16.9058 41.2212C16.9058 40.3724 16.2177 39.6843 15.3689 39.6843C14.5201 39.6843 13.832 40.3724 13.832 41.2212Z" fill="#DCDEDF"/>
<path d="M13.832 47.3686C13.832 48.2174 14.5201 48.9055 15.3689 48.9055C16.2177 48.9055 16.9058 48.2174 16.9058 47.3686C16.9058 46.5198 16.2177 45.8317 15.3689 45.8317C14.5201 45.8317 13.832 46.5198 13.832 47.3686Z" fill="#DCDEDF"/>
<path d="M7.68421 35.0737C7.68421 35.9225 8.37229 36.6106 9.22107 36.6106C10.0699 36.6106 10.7579 35.9225 10.7579 35.0737C10.7579 34.225 10.0699 33.5369 9.22107 33.5369C8.37229 33.5369 7.68421 34.225 7.68421 35.0737Z" fill="#DCDEDF"/>
<path d="M7.68421 41.2212C7.68421 42.07 8.37229 42.758 9.22107 42.758C10.0699 42.758 10.7579 42.07 10.7579 41.2212C10.7579 40.3724 10.0699 39.6843 9.22107 39.6843C8.37229 39.6843 7.68421 40.3724 7.68421 41.2212Z" fill="#DCDEDF"/>
<path d="M7.68421 47.3686C7.68421 48.2174 8.37229 48.9055 9.22107 48.9055C10.0699 48.9055 10.7579 48.2174 10.7579 47.3686C10.7579 46.5198 10.0699 45.8317 9.22107 45.8317C8.37229 45.8317 7.68421 46.5198 7.68421 47.3686Z" fill="#DCDEDF"/>
<path d="M43.0235 23.0448L49.4497 29.2797H34.5793V34.7203H49.4497L43.0235 40.9552L46.9936 44.8072L60.1937 32L46.9936 19.1928L43.0235 23.0448Z" fill="black"/>
<path fill-rule="evenodd" clip-rule="evenodd" d="M39.3451 23.0448L46.9936 15.6239L63.8721 32L46.9936 48.3761L39.3451 40.9552L43.1313 37.2817H32.0179V26.7183H43.1313L39.3451 23.0448ZM49.4497 29.2797H34.5794V34.7203H49.4497L43.0235 40.9552L46.9936 44.8072L60.1937 32L46.9936 19.1928L43.0235 23.0448L49.4497 29.2797Z" fill="white"/>
</svg>
