<svg width="32" height="32" viewBox="0 0 32 32" fill="none" xmlns="http://www.w3.org/2000/svg">
<path d="M0 18.55C0 11.4808 5.73076 5.75 12.8 5.75H19.2C26.2692 5.75 32 11.4808 32 18.55V25.75H0V18.55Z" fill="white"/>
<path d="M16.3166 20.15H14.1662L12.6766 17.6636H12.5086H11.579V20.15H9.64136V12.31H12.6878C13.8078 12.31 14.6366 12.5303 15.1742 12.9708C15.7118 13.4113 15.9806 14.0311 15.9806 14.83C15.9806 15.4348 15.8499 15.9425 15.5886 16.3532C15.3347 16.7564 14.9763 17.0625 14.5134 17.2716L16.3166 20.15ZM11.579 13.9676V16.006H12.6318C13.0275 16.006 13.3374 15.9164 13.5614 15.7372C13.7928 15.5505 13.9086 15.2817 13.9086 14.9308C13.9086 14.6097 13.804 14.3708 13.595 14.214C13.3859 14.0497 13.0536 13.9676 12.5982 13.9676H11.579Z" fill="black"/>
<path d="M21.9739 12.31V18.4924H23.4411V20.15H18.1883V18.4924H20.0027V14.4492L18.4459 15.0652L17.8299 13.6204L20.4731 12.31H21.9739Z" fill="black"/>
</svg>
