<svg width="32" height="32" viewBox="0 0 32 32" fill="none" xmlns="http://www.w3.org/2000/svg">
<path d="M12.7041 6.54256L16.5977 2L20.4913 6.54256L12.7041 6.54256Z" fill="black"/>
<path fill-rule="evenodd" clip-rule="evenodd" d="M9.88228 7.84043L16.5978 0.0057062L23.3132 7.84043L9.88228 7.84043ZM12.7041 6.54256L20.4914 6.54256L16.5978 2.00001L12.7041 6.54256Z" fill="white"/>
<path d="M27.4269 8.6383H6.47436C5.6142 8.6383 4.91691 9.33559 4.91691 10.1957V25.7702C4.91691 29.2108 7.70608 32 11.1467 32H27.4269V8.6383Z" fill="white"/>
<path d="M14.4076 15.9389C14.4076 16.3421 14.7344 16.6689 15.1376 16.6689C15.5408 16.6689 15.8677 16.3421 15.8677 15.9389C15.8677 15.5357 15.5408 15.2088 15.1376 15.2088C14.7344 15.2088 14.4076 15.5357 14.4076 15.9389Z" fill="#DCDEDF"/>
<path d="M17.3277 15.9389C17.3277 16.3421 17.6546 16.6689 18.0578 16.6689C18.461 16.6689 18.7878 16.3421 18.7878 15.9389C18.7878 15.5357 18.461 15.2088 18.0578 15.2088C17.6546 15.2088 17.3277 15.5357 17.3277 15.9389Z" fill="#DCDEDF"/>
<path d="M20.248 15.9389C20.248 16.3421 20.5749 16.6689 20.9781 16.6689C21.3813 16.6689 21.7081 16.3421 21.7081 15.9389C21.7081 15.5357 21.3813 15.2088 20.9781 15.2088C20.5749 15.2088 20.248 15.5357 20.248 15.9389Z" fill="#DCDEDF"/>
<path d="M23.1681 15.9389C23.1681 16.3421 23.4949 16.6689 23.8981 16.6689C24.3013 16.6689 24.6282 16.3421 24.6282 15.9389C24.6282 15.5357 24.3013 15.2088 23.8981 15.2088C23.4949 15.2088 23.1681 15.5357 23.1681 15.9389Z" fill="#DCDEDF"/>
<path d="M11.4875 15.9389C11.4875 16.3421 11.8144 16.6689 12.2176 16.6689C12.6208 16.6689 12.9476 16.3421 12.9476 15.9389C12.9476 15.5357 12.6208 15.2088 12.2176 15.2088C11.8144 15.2088 11.4875 15.5357 11.4875 15.9389Z" fill="#DCDEDF"/>
<path d="M8.56711 15.9389C8.56711 16.3421 8.89397 16.6689 9.29717 16.6689C9.70037 16.6689 10.0272 16.3421 10.0272 15.9389C10.0272 15.5357 9.70037 15.2088 9.29717 15.2088C8.89397 15.2088 8.56711 15.5357 8.56711 15.9389Z" fill="#DCDEDF"/>
<path d="M14.4076 18.859C14.4076 19.2622 14.7344 19.589 15.1376 19.589C15.5408 19.589 15.8677 19.2622 15.8677 18.859C15.8677 18.4558 15.5408 18.1289 15.1376 18.1289C14.7344 18.1289 14.4076 18.4558 14.4076 18.859Z" fill="#DCDEDF"/>
<path d="M17.3277 18.859C17.3277 19.2622 17.6546 19.589 18.0578 19.589C18.461 19.589 18.7878 19.2622 18.7878 18.859C18.7878 18.4558 18.461 18.1289 18.0578 18.1289C17.6546 18.1289 17.3277 18.4558 17.3277 18.859Z" fill="#DCDEDF"/>
<path d="M20.248 18.859C20.248 19.2622 20.5749 19.589 20.9781 19.589C21.3813 19.589 21.7081 19.2622 21.7081 18.859C21.7081 18.4558 21.3813 18.1289 20.9781 18.1289C20.5749 18.1289 20.248 18.4558 20.248 18.859Z" fill="#DCDEDF"/>
<path d="M23.1681 18.859C23.1681 19.2622 23.4949 19.589 23.8981 19.589C24.3013 19.589 24.6282 19.2622 24.6282 18.859C24.6282 18.4558 24.3013 18.1289 23.8981 18.1289C23.4949 18.1289 23.1681 18.4558 23.1681 18.859Z" fill="#DCDEDF"/>
<path d="M11.4875 18.859C11.4875 19.2622 11.8144 19.589 12.2176 19.589C12.6208 19.589 12.9476 19.2622 12.9476 18.859C12.9476 18.4558 12.6208 18.1289 12.2176 18.1289C11.8144 18.1289 11.4875 18.4558 11.4875 18.859Z" fill="#DCDEDF"/>
<path d="M8.56711 18.859C8.56711 19.2622 8.89397 19.589 9.29717 19.589C9.70037 19.589 10.0272 19.2622 10.0272 18.859C10.0272 18.4558 9.70037 18.1289 9.29717 18.1289C8.89397 18.1289 8.56711 18.4558 8.56711 18.859Z" fill="#DCDEDF"/>
<path d="M14.4076 21.7792C14.4076 22.1824 14.7344 22.5093 15.1376 22.5093C15.5408 22.5093 15.8677 22.1824 15.8677 21.7792C15.8677 21.376 15.5408 21.0491 15.1376 21.0491C14.7344 21.0491 14.4076 21.376 14.4076 21.7792Z" fill="#DCDEDF"/>
<path d="M17.3277 21.7792C17.3277 22.1824 17.6546 22.5093 18.0578 22.5093C18.461 22.5093 18.7878 22.1824 18.7878 21.7792C18.7878 21.376 18.461 21.0491 18.0578 21.0491C17.6546 21.0491 17.3277 21.376 17.3277 21.7792Z" fill="#DCDEDF"/>
<path d="M20.248 21.7792C20.248 22.1824 20.5749 22.5093 20.9781 22.5093C21.3813 22.5093 21.7081 22.1824 21.7081 21.7792C21.7081 21.376 21.3813 21.0491 20.9781 21.0491C20.5749 21.0491 20.248 21.376 20.248 21.7792Z" fill="#DCDEDF"/>
<path d="M23.1681 21.7792C23.1681 22.1824 23.4949 22.5093 23.8981 22.5093C24.3013 22.5093 24.6282 22.1824 24.6282 21.7792C24.6282 21.376 24.3013 21.0491 23.8981 21.0491C23.4949 21.0491 23.1681 21.376 23.1681 21.7792Z" fill="#DCDEDF"/>
<path d="M14.4076 24.6994C14.4076 25.1026 14.7344 25.4295 15.1376 25.4295C15.5408 25.4295 15.8677 25.1026 15.8677 24.6994C15.8677 24.2962 15.5408 23.9694 15.1376 23.9694C14.7344 23.9694 14.4076 24.2962 14.4076 24.6994Z" fill="#DCDEDF"/>
<path d="M17.3277 24.6994C17.3277 25.1026 17.6546 25.4295 18.0578 25.4295C18.461 25.4295 18.7878 25.1026 18.7878 24.6994C18.7878 24.2962 18.461 23.9694 18.0578 23.9694C17.6546 23.9694 17.3277 24.2962 17.3277 24.6994Z" fill="#DCDEDF"/>
<path d="M20.248 24.6994C20.248 25.1026 20.5749 25.4295 20.9781 25.4295C21.3813 25.4295 21.7081 25.1026 21.7081 24.6994C21.7081 24.2962 21.3813 23.9694 20.9781 23.9694C20.5749 23.9694 20.248 24.2962 20.248 24.6994Z" fill="#DCDEDF"/>
<path d="M23.1681 24.6994C23.1681 25.1026 23.4949 25.4295 23.8981 25.4295C24.3013 25.4295 24.6282 25.1026 24.6282 24.6994C24.6282 24.2962 24.3013 23.9694 23.8981 23.9694C23.4949 23.9694 23.1681 24.2962 23.1681 24.6994Z" fill="#DCDEDF"/>
<path d="M14.4076 27.6197C14.4076 28.0229 14.7344 28.3497 15.1376 28.3497C15.5408 28.3497 15.8677 28.0229 15.8677 27.6197C15.8677 27.2165 15.5408 26.8896 15.1376 26.8896C14.7344 26.8896 14.4076 27.2165 14.4076 27.6197Z" fill="#DCDEDF"/>
<path d="M17.3277 27.6197C17.3277 28.0229 17.6546 28.3497 18.0578 28.3497C18.461 28.3497 18.7878 28.0229 18.7878 27.6197C18.7878 27.2165 18.461 26.8896 18.0578 26.8896C17.6546 26.8896 17.3277 27.2165 17.3277 27.6197Z" fill="#DCDEDF"/>
<path d="M20.248 27.6197C20.248 28.0229 20.5749 28.3497 20.9781 28.3497C21.3813 28.3497 21.7081 28.0229 21.7081 27.6197C21.7081 27.2165 21.3813 26.8896 20.9781 26.8896C20.5749 26.8896 20.248 27.2165 20.248 27.6197Z" fill="#DCDEDF"/>
<path d="M23.1681 27.6197C23.1681 28.0229 23.4949 28.3497 23.8981 28.3497C24.3013 28.3497 24.6282 28.0229 24.6282 27.6197C24.6282 27.2165 24.3013 26.8896 23.8981 26.8896C23.4949 26.8896 23.1681 27.2165 23.1681 27.6197Z" fill="#DCDEDF"/>
<path d="M11.4875 21.7792C11.4875 22.1824 11.8144 22.5093 12.2176 22.5093C12.6208 22.5093 12.9476 22.1824 12.9476 21.7792C12.9476 21.376 12.6208 21.0491 12.2176 21.0491C11.8144 21.0491 11.4875 21.376 11.4875 21.7792Z" fill="#DCDEDF"/>
<path d="M11.4875 24.6994C11.4875 25.1026 11.8144 25.4295 12.2176 25.4295C12.6208 25.4295 12.9476 25.1026 12.9476 24.6994C12.9476 24.2962 12.6208 23.9694 12.2176 23.9694C11.8144 23.9694 11.4875 24.2962 11.4875 24.6994Z" fill="#DCDEDF"/>
<path d="M11.4875 27.6197C11.4875 28.0229 11.8144 28.3497 12.2176 28.3497C12.6208 28.3497 12.9476 28.0229 12.9476 27.6197C12.9476 27.2165 12.6208 26.8896 12.2176 26.8896C11.8144 26.8896 11.4875 27.2165 11.4875 27.6197Z" fill="#DCDEDF"/>
<path d="M8.56711 21.7792C8.56711 22.1824 8.89397 22.5093 9.29717 22.5093C9.70037 22.5093 10.0272 22.1824 10.0272 21.7792C10.0272 21.376 9.70037 21.0491 9.29717 21.0491C8.89397 21.0491 8.56711 21.376 8.56711 21.7792Z" fill="#DCDEDF"/>
<path d="M8.56711 24.6994C8.56711 25.1026 8.89397 25.4295 9.29717 25.4295C9.70037 25.4295 10.0272 25.1026 10.0272 24.6994C10.0272 24.2962 9.70037 23.9694 9.29717 23.9694C8.89397 23.9694 8.56711 24.2962 8.56711 24.6994Z" fill="#DCDEDF"/>
<path d="M8.56711 27.6197C8.56711 28.0229 8.89397 28.3497 9.29717 28.3497C9.70037 28.3497 10.0272 28.0229 10.0272 27.6197C10.0272 27.2165 9.70037 26.8896 9.29717 26.8896C8.89397 26.8896 8.56711 27.2165 8.56711 27.6197Z" fill="#DCDEDF"/>
</svg>
