<svg width="32" height="32" viewBox="0 0 32 32" fill="none" xmlns="http://www.w3.org/2000/svg">
<path d="M1 16C1 24.2843 7.71573 31 16 31C24.2843 31 31 24.2843 31 16V1H1V16Z" fill="white"/>
<path d="M15.0353 19.3333H9.3186V11.1667H11.3369V17.5133H15.0353V19.3333Z" fill="black"/>
<path d="M19.2534 17.595H22.9167V19.3333H16.6984V17.6767L19.0551 15.7633C19.4206 15.46 19.6967 15.2189 19.8834 15.04C20.0701 14.8611 20.214 14.6783 20.3151 14.4917C20.424 14.305 20.4784 14.0989 20.4784 13.8733C20.4784 13.5233 20.3423 13.2589 20.0701 13.08C19.8056 12.9011 19.4673 12.8117 19.0551 12.8117C18.744 12.8117 18.4367 12.8583 18.1334 12.9517C17.8301 13.0372 17.5578 13.1539 17.3167 13.3017L16.6634 11.8083C17.0367 11.5672 17.4528 11.3767 17.9117 11.2367C18.3784 11.0967 18.8762 11.0267 19.4051 11.0267C20.3851 11.0267 21.1745 11.2328 21.7734 11.645C22.3723 12.0494 22.6717 12.6483 22.6717 13.4417C22.6717 13.9861 22.5162 14.4839 22.2051 14.935C21.9017 15.3783 21.4312 15.8567 20.7934 16.37L19.2534 17.595Z" fill="black"/>
</svg>
