<svg width="64" height="64" viewBox="0 0 64 64" fill="none" xmlns="http://www.w3.org/2000/svg">
<path d="M15.5471 6.85686H60.8571C62.5929 6.85686 64 8.26398 64 9.99975V44.5716C64 51.5146 58.3715 57.1431 51.4285 57.1431H15.5471V6.85686Z" fill="white"/>
<path d="M43.5712 22.5713C43.5712 23.4392 42.8677 24.1427 41.9998 24.1427C41.1319 24.1427 40.4283 23.4392 40.4283 22.5713C40.4283 21.7034 41.1319 20.9999 41.9998 20.9999C42.8677 20.9999 43.5712 21.7034 43.5712 22.5713Z" fill="#DCDEDF"/>
<path d="M49.8568 22.5713C49.8568 23.4392 49.1532 24.1427 48.2853 24.1427C47.4174 24.1427 46.7139 23.4392 46.7139 22.5713C46.7139 21.7034 47.4174 20.9999 48.2853 20.9999C49.1532 20.9999 49.8568 21.7034 49.8568 22.5713Z" fill="#DCDEDF"/>
<path d="M56.1429 22.5713C56.1429 23.4392 55.4393 24.1427 54.5714 24.1427C53.7036 24.1427 53 23.4392 53 22.5713C53 21.7034 53.7036 20.9999 54.5714 20.9999C55.4393 20.9999 56.1429 21.7034 56.1429 22.5713Z" fill="#DCDEDF"/>
<path d="M43.5712 28.8571C43.5712 29.725 42.8677 30.4286 41.9998 30.4286C41.1319 30.4286 40.4283 29.725 40.4283 28.8571C40.4283 27.9893 41.1319 27.2857 41.9998 27.2857C42.8677 27.2857 43.5712 27.9893 43.5712 28.8571Z" fill="#DCDEDF"/>
<path d="M49.8568 28.8571C49.8568 29.725 49.1532 30.4286 48.2853 30.4286C47.4174 30.4286 46.7139 29.725 46.7139 28.8571C46.7139 27.9893 47.4174 27.2857 48.2853 27.2857C49.1532 27.2857 49.8568 27.9893 49.8568 28.8571Z" fill="#DCDEDF"/>
<path d="M56.1429 28.8571C56.1429 29.725 55.4393 30.4286 54.5714 30.4286C53.7036 30.4286 53 29.725 53 28.8571C53 27.9893 53.7036 27.2857 54.5714 27.2857C55.4393 27.2857 56.1429 27.9893 56.1429 28.8571Z" fill="#DCDEDF"/>
<path d="M30.9995 47.7144C30.9995 48.5823 30.2959 49.2859 29.428 49.2859C28.5601 49.2859 27.8566 48.5823 27.8566 47.7144C27.8566 46.8466 28.5601 46.143 29.428 46.143C30.2959 46.143 30.9995 46.8466 30.9995 47.7144Z" fill="#DCDEDF"/>
<path d="M37.2857 41.4287C37.2857 42.2966 36.5822 43.0001 35.7143 43.0001C34.8464 43.0001 34.1428 42.2966 34.1428 41.4287C34.1428 40.5608 34.8464 39.8572 35.7143 39.8572C36.5822 39.8572 37.2857 40.5608 37.2857 41.4287Z" fill="#DCDEDF"/>
<path d="M37.2857 47.7144C37.2857 48.5823 36.5822 49.2859 35.7143 49.2859C34.8464 49.2859 34.1428 48.5823 34.1428 47.7144C34.1428 46.8466 34.8464 46.143 35.7143 46.143C36.5822 46.143 37.2857 46.8466 37.2857 47.7144Z" fill="#DCDEDF"/>
<path d="M43.5712 35.1429C43.5712 36.0108 42.8677 36.7144 41.9998 36.7144C41.1319 36.7144 40.4283 36.0108 40.4283 35.1429C40.4283 34.275 41.1319 33.5715 41.9998 33.5715C42.8677 33.5715 43.5712 34.275 43.5712 35.1429Z" fill="#DCDEDF"/>
<path d="M43.5712 41.4287C43.5712 42.2966 42.8677 43.0001 41.9998 43.0001C41.1319 43.0001 40.4283 42.2966 40.4283 41.4287C40.4283 40.5608 41.1319 39.8572 41.9998 39.8572C42.8677 39.8572 43.5712 40.5608 43.5712 41.4287Z" fill="#DCDEDF"/>
<path d="M43.5712 47.7144C43.5712 48.5823 42.8677 49.2859 41.9998 49.2859C41.1319 49.2859 40.4283 48.5823 40.4283 47.7144C40.4283 46.8466 41.1319 46.143 41.9998 46.143C42.8677 46.143 43.5712 46.8466 43.5712 47.7144Z" fill="#DCDEDF"/>
<path d="M49.8568 35.1429C49.8568 36.0108 49.1532 36.7144 48.2853 36.7144C47.4174 36.7144 46.7139 36.0108 46.7139 35.1429C46.7139 34.275 47.4174 33.5715 48.2853 33.5715C49.1532 33.5715 49.8568 34.275 49.8568 35.1429Z" fill="#DCDEDF"/>
<path d="M49.8568 41.4287C49.8568 42.2966 49.1532 43.0001 48.2853 43.0001C47.4174 43.0001 46.7139 42.2966 46.7139 41.4287C46.7139 40.5608 47.4174 39.8572 48.2853 39.8572C49.1532 39.8572 49.8568 40.5608 49.8568 41.4287Z" fill="#DCDEDF"/>
<path d="M49.8568 47.7144C49.8568 48.5823 49.1532 49.2859 48.2853 49.2859C47.4174 49.2859 46.7139 48.5823 46.7139 47.7144C46.7139 46.8466 47.4174 46.143 48.2853 46.143C49.1532 46.143 49.8568 46.8466 49.8568 47.7144Z" fill="#DCDEDF"/>
<path d="M56.1429 35.1429C56.1429 36.0108 55.4393 36.7144 54.5714 36.7144C53.7036 36.7144 53 36.0108 53 35.1429C53 34.275 53.7036 33.5715 54.5714 33.5715C55.4393 33.5715 56.1429 34.275 56.1429 35.1429Z" fill="#DCDEDF"/>
<path d="M56.1429 41.4287C56.1429 42.2966 55.4393 43.0001 54.5714 43.0001C53.7036 43.0001 53 42.2966 53 41.4287C53 40.5608 53.7036 39.8572 54.5714 39.8572C55.4393 39.8572 56.1429 40.5608 56.1429 41.4287Z" fill="#DCDEDF"/>
<path d="M56.1429 47.7144C56.1429 48.5823 55.4393 49.2859 54.5714 49.2859C53.7036 49.2859 53 48.5823 53 47.7144C53 46.8466 53.7036 46.143 54.5714 46.143C55.4393 46.143 56.1429 46.8466 56.1429 47.7144Z" fill="#DCDEDF"/>
<path d="M21.3179 22.8432L14.747 29.2185H29.952V34.7815H14.747L21.3179 41.1568L17.2584 45.0954L3.76126 32L17.2584 18.9046L21.3179 22.8432Z" fill="black"/>
<path fill-rule="evenodd" clip-rule="evenodd" d="M25.079 22.8433L17.2583 15.2554L2.67029e-05 32L17.2583 48.7446L25.079 41.1568L21.2076 37.4006H32.571V26.5994H21.2076L25.079 22.8433ZM14.747 29.2185H29.952V34.7815H14.747L21.3178 41.1568L17.2583 45.0954L3.76121 32L17.2583 18.9046L21.3178 22.8433L14.747 29.2185Z" fill="white"/>
</svg>
