<svg width="64" height="64" viewBox="0 0 64 64" fill="none" xmlns="http://www.w3.org/2000/svg">
<path d="M50.5895 24.0122L59.9086 32L50.5895 39.9878L50.5895 24.0122Z" fill="black"/>
<path fill-rule="evenodd" clip-rule="evenodd" d="M47.9269 18.2231L63.9999 32L47.9269 45.7769L47.9269 18.2231ZM50.5895 24.0122L50.5895 39.9878L59.9086 32L50.5895 24.0122Z" fill="white"/>
<path d="M46.1796 8.03658H3.19515C1.43054 8.03658 2.67029e-05 9.46708 2.67029e-05 11.2317V43.1829C2.67029e-05 50.2414 5.72205 55.9634 12.7805 55.9634H46.1796V8.03658Z" fill="white"/>
<path d="M19.4703 23.0138C19.4703 23.8409 20.1408 24.5115 20.968 24.5115C21.7951 24.5115 22.4657 23.8409 22.4657 23.0138C22.4657 22.1866 21.7951 21.5161 20.968 21.5161C20.1408 21.5161 19.4703 22.1866 19.4703 23.0138Z" fill="#DCDEDF"/>
<path d="M25.4612 23.0138C25.4612 23.8409 26.1318 24.5115 26.959 24.5115C27.7861 24.5115 28.4567 23.8409 28.4567 23.0138C28.4567 22.1866 27.7861 21.5161 26.959 21.5161C26.1318 21.5161 25.4612 22.1866 25.4612 23.0138Z" fill="#DCDEDF"/>
<path d="M31.4521 23.0138C31.4521 23.8409 32.1226 24.5115 32.9498 24.5115C33.777 24.5115 34.4475 23.8409 34.4475 23.0138C34.4475 22.1866 33.777 21.5161 32.9498 21.5161C32.1226 21.5161 31.4521 22.1866 31.4521 23.0138Z" fill="#DCDEDF"/>
<path d="M37.4427 23.0138C37.4427 23.8409 38.1132 24.5115 38.9404 24.5115C39.7676 24.5115 40.4381 23.8409 40.4381 23.0138C40.4381 22.1866 39.7676 21.5161 38.9404 21.5161C38.1132 21.5161 37.4427 22.1866 37.4427 23.0138Z" fill="#DCDEDF"/>
<path d="M13.4797 23.0138C13.4797 23.8409 14.1502 24.5115 14.9774 24.5115C15.8045 24.5115 16.4751 23.8409 16.4751 23.0138C16.4751 22.1866 15.8045 21.5161 14.9774 21.5161C14.1502 21.5161 13.4797 22.1866 13.4797 23.0138Z" fill="#DCDEDF"/>
<path d="M7.48846 23.0138C7.48846 23.8409 8.15901 24.5115 8.98617 24.5115C9.81334 24.5115 10.4839 23.8409 10.4839 23.0138C10.4839 22.1866 9.81334 21.5161 8.98617 21.5161C8.15901 21.5161 7.48846 22.1866 7.48846 23.0138Z" fill="#DCDEDF"/>
<path d="M19.4703 29.0044C19.4703 29.8316 20.1408 30.5021 20.968 30.5021C21.7951 30.5021 22.4657 29.8316 22.4657 29.0044C22.4657 28.1772 21.7951 27.5067 20.968 27.5067C20.1408 27.5067 19.4703 28.1772 19.4703 29.0044Z" fill="#DCDEDF"/>
<path d="M25.4612 29.0044C25.4612 29.8316 26.1318 30.5021 26.959 30.5021C27.7861 30.5021 28.4567 29.8316 28.4567 29.0044C28.4567 28.1772 27.7861 27.5067 26.959 27.5067C26.1318 27.5067 25.4612 28.1772 25.4612 29.0044Z" fill="#DCDEDF"/>
<path d="M31.4521 29.0044C31.4521 29.8316 32.1226 30.5021 32.9498 30.5021C33.777 30.5021 34.4475 29.8316 34.4475 29.0044C34.4475 28.1772 33.777 27.5067 32.9498 27.5067C32.1226 27.5067 31.4521 28.1772 31.4521 29.0044Z" fill="#DCDEDF"/>
<path d="M37.4427 29.0044C37.4427 29.8316 38.1132 30.5021 38.9404 30.5021C39.7676 30.5021 40.4381 29.8316 40.4381 29.0044C40.4381 28.1772 39.7676 27.5067 38.9404 27.5067C38.1132 27.5067 37.4427 28.1772 37.4427 29.0044Z" fill="#DCDEDF"/>
<path d="M13.4797 29.0044C13.4797 29.8316 14.1502 30.5021 14.9774 30.5021C15.8045 30.5021 16.4751 29.8316 16.4751 29.0044C16.4751 28.1772 15.8045 27.5067 14.9774 27.5067C14.1502 27.5067 13.4797 28.1772 13.4797 29.0044Z" fill="#DCDEDF"/>
<path d="M7.48846 29.0044C7.48846 29.8316 8.15901 30.5021 8.98617 30.5021C9.81334 30.5021 10.4839 29.8316 10.4839 29.0044C10.4839 28.1772 9.81334 27.5067 8.98617 27.5067C8.15901 27.5067 7.48846 28.1772 7.48846 29.0044Z" fill="#DCDEDF"/>
<path d="M19.4703 34.9953C19.4703 35.8225 20.1408 36.493 20.968 36.493C21.7951 36.493 22.4657 35.8225 22.4657 34.9953C22.4657 34.1681 21.7951 33.4976 20.968 33.4976C20.1408 33.4976 19.4703 34.1681 19.4703 34.9953Z" fill="#DCDEDF"/>
<path d="M25.4612 34.9953C25.4612 35.8225 26.1318 36.493 26.959 36.493C27.7861 36.493 28.4567 35.8225 28.4567 34.9953C28.4567 34.1681 27.7861 33.4976 26.959 33.4976C26.1318 33.4976 25.4612 34.1681 25.4612 34.9953Z" fill="#DCDEDF"/>
<path d="M31.4521 34.9953C31.4521 35.8225 32.1226 36.493 32.9498 36.493C33.777 36.493 34.4475 35.8225 34.4475 34.9953C34.4475 34.1681 33.777 33.4976 32.9498 33.4976C32.1226 33.4976 31.4521 34.1681 31.4521 34.9953Z" fill="#DCDEDF"/>
<path d="M37.4427 34.9953C37.4427 35.8225 38.1132 36.493 38.9404 36.493C39.7676 36.493 40.4381 35.8225 40.4381 34.9953C40.4381 34.1681 39.7676 33.4976 38.9404 33.4976C38.1132 33.4976 37.4427 34.1681 37.4427 34.9953Z" fill="#DCDEDF"/>
<path d="M19.4703 40.9862C19.4703 41.8134 20.1408 42.4839 20.968 42.4839C21.7951 42.4839 22.4657 41.8134 22.4657 40.9862C22.4657 40.1591 21.7951 39.4885 20.968 39.4885C20.1408 39.4885 19.4703 40.1591 19.4703 40.9862Z" fill="#DCDEDF"/>
<path d="M25.4612 40.9862C25.4612 41.8134 26.1318 42.4839 26.959 42.4839C27.7861 42.4839 28.4567 41.8134 28.4567 40.9862C28.4567 40.1591 27.7861 39.4885 26.959 39.4885C26.1318 39.4885 25.4612 40.1591 25.4612 40.9862Z" fill="#DCDEDF"/>
<path d="M31.4521 40.9862C31.4521 41.8134 32.1226 42.4839 32.9498 42.4839C33.777 42.4839 34.4475 41.8134 34.4475 40.9862C34.4475 40.1591 33.777 39.4885 32.9498 39.4885C32.1226 39.4885 31.4521 40.1591 31.4521 40.9862Z" fill="#DCDEDF"/>
<path d="M37.4427 40.9862C37.4427 41.8134 38.1132 42.4839 38.9404 42.4839C39.7676 42.4839 40.4381 41.8134 40.4381 40.9862C40.4381 40.1591 39.7676 39.4885 38.9404 39.4885C38.1132 39.4885 37.4427 40.1591 37.4427 40.9862Z" fill="#DCDEDF"/>
<path d="M19.4703 46.9771C19.4703 47.8043 20.1408 48.4749 20.968 48.4749C21.7951 48.4749 22.4657 47.8043 22.4657 46.9771C22.4657 46.15 21.7951 45.4794 20.968 45.4794C20.1408 45.4794 19.4703 46.15 19.4703 46.9771Z" fill="#DCDEDF"/>
<path d="M25.4612 46.9771C25.4612 47.8043 26.1318 48.4749 26.959 48.4749C27.7861 48.4749 28.4567 47.8043 28.4567 46.9771C28.4567 46.15 27.7861 45.4794 26.959 45.4794C26.1318 45.4794 25.4612 46.15 25.4612 46.9771Z" fill="#DCDEDF"/>
<path d="M31.4521 46.9771C31.4521 47.8043 32.1226 48.4749 32.9498 48.4749C33.777 48.4749 34.4475 47.8043 34.4475 46.9771C34.4475 46.15 33.777 45.4794 32.9498 45.4794C32.1226 45.4794 31.4521 46.15 31.4521 46.9771Z" fill="#DCDEDF"/>
<path d="M37.4427 46.9771C37.4427 47.8043 38.1132 48.4749 38.9404 48.4749C39.7676 48.4749 40.4381 47.8043 40.4381 46.9771C40.4381 46.15 39.7676 45.4794 38.9404 45.4794C38.1132 45.4794 37.4427 46.15 37.4427 46.9771Z" fill="#DCDEDF"/>
<path d="M13.4797 34.9953C13.4797 35.8225 14.1502 36.493 14.9774 36.493C15.8045 36.493 16.4751 35.8225 16.4751 34.9953C16.4751 34.1681 15.8045 33.4976 14.9774 33.4976C14.1502 33.4976 13.4797 34.1681 13.4797 34.9953Z" fill="#DCDEDF"/>
<path d="M13.4797 40.9862C13.4797 41.8134 14.1502 42.4839 14.9774 42.4839C15.8045 42.4839 16.4751 41.8134 16.4751 40.9862C16.4751 40.1591 15.8045 39.4885 14.9774 39.4885C14.1502 39.4885 13.4797 40.1591 13.4797 40.9862Z" fill="#DCDEDF"/>
<path d="M13.4797 46.9771C13.4797 47.8043 14.1502 48.4749 14.9774 48.4749C15.8045 48.4749 16.4751 47.8043 16.4751 46.9771C16.4751 46.15 15.8045 45.4794 14.9774 45.4794C14.1502 45.4794 13.4797 46.15 13.4797 46.9771Z" fill="#DCDEDF"/>
<path d="M7.48846 34.9953C7.48846 35.8225 8.15901 36.493 8.98617 36.493C9.81334 36.493 10.4839 35.8225 10.4839 34.9953C10.4839 34.1681 9.81334 33.4976 8.98617 33.4976C8.15901 33.4976 7.48846 34.1681 7.48846 34.9953Z" fill="#DCDEDF"/>
<path d="M7.48846 40.9862C7.48846 41.8134 8.15901 42.4839 8.98617 42.4839C9.81334 42.4839 10.4839 41.8134 10.4839 40.9862C10.4839 40.1591 9.81334 39.4885 8.98617 39.4885C8.15901 39.4885 7.48846 40.1591 7.48846 40.9862Z" fill="#DCDEDF"/>
<path d="M7.48846 46.9771C7.48846 47.8043 8.15901 48.4749 8.98617 48.4749C9.81334 48.4749 10.4839 47.8043 10.4839 46.9771C10.4839 46.15 9.81334 45.4794 8.98617 45.4794C8.15901 45.4794 7.48846 46.15 7.48846 46.9771Z" fill="#DCDEDF"/>
</svg>
