<svg width="64" height="64" viewBox="0 0 64 64" fill="none" xmlns="http://www.w3.org/2000/svg">
<g clip-path="url(#clip0_1967:19623)">
<path d="M13.1633 39.8842L3.9651 32L13.1633 24.1158L13.1633 39.8842Z" fill="black"/>
<path fill-rule="evenodd" clip-rule="evenodd" d="M15.7914 45.5982L-0.0731812 32L15.7914 18.4018L15.7914 45.5982ZM13.1633 39.8842L13.1633 24.1158L3.96508 32L13.1633 39.8842Z" fill="white"/>
<path d="M64 8.3474H21.5732C19.8314 8.3474 18.4195 9.75935 18.4195 11.5011V43.0379C18.4195 50.0048 24.0673 55.6526 31.0342 55.6526H64V8.3474Z" fill="white"/>
<path d="M37.6372 23.1303C37.6372 23.9468 38.299 24.6086 39.1155 24.6086C39.9319 24.6086 40.5938 23.9468 40.5938 23.1303C40.5938 22.3139 39.9319 21.6521 39.1155 21.6521C38.299 21.6521 37.6372 22.3139 37.6372 23.1303Z" fill="#DCDEDF"/>
<path d="M43.5504 23.1303C43.5504 23.9468 44.2122 24.6086 45.0287 24.6086C45.8451 24.6086 46.507 23.9468 46.507 23.1303C46.507 22.3139 45.8451 21.6521 45.0287 21.6521C44.2122 21.6521 43.5504 22.3139 43.5504 23.1303Z" fill="#DCDEDF"/>
<path d="M49.4637 23.1303C49.4637 23.9468 50.1256 24.6086 50.942 24.6086C51.7584 24.6086 52.4203 23.9468 52.4203 23.1303C52.4203 22.3139 51.7584 21.6521 50.942 21.6521C50.1256 21.6521 49.4637 22.3139 49.4637 23.1303Z" fill="#DCDEDF"/>
<path d="M55.3766 23.1303C55.3766 23.9468 56.0384 24.6086 56.8548 24.6086C57.6713 24.6086 58.3331 23.9468 58.3331 23.1303C58.3331 22.3139 57.6713 21.6521 56.8548 21.6521C56.0384 21.6521 55.3766 22.3139 55.3766 23.1303Z" fill="#DCDEDF"/>
<path d="M31.7243 23.1303C31.7243 23.9468 32.3862 24.6086 33.2026 24.6086C34.0191 24.6086 34.6809 23.9468 34.6809 23.1303C34.6809 22.3139 34.0191 21.6521 33.2026 21.6521C32.3862 21.6521 31.7243 22.3139 31.7243 23.1303Z" fill="#DCDEDF"/>
<path d="M25.8108 23.1303C25.8108 23.9468 26.4726 24.6086 27.289 24.6086C28.1055 24.6086 28.7673 23.9468 28.7673 23.1303C28.7673 22.3139 28.1055 21.6521 27.289 21.6521C26.4726 21.6521 25.8108 22.3139 25.8108 23.1303Z" fill="#DCDEDF"/>
<path d="M37.6372 29.0432C37.6372 29.8597 38.299 30.5215 39.1155 30.5215C39.9319 30.5215 40.5938 29.8597 40.5938 29.0432C40.5938 28.2268 39.9319 27.565 39.1155 27.565C38.299 27.565 37.6372 28.2268 37.6372 29.0432Z" fill="#DCDEDF"/>
<path d="M43.5504 29.0432C43.5504 29.8597 44.2122 30.5215 45.0287 30.5215C45.8451 30.5215 46.507 29.8597 46.507 29.0432C46.507 28.2268 45.8451 27.565 45.0287 27.565C44.2122 27.565 43.5504 28.2268 43.5504 29.0432Z" fill="#DCDEDF"/>
<path d="M49.4637 29.0432C49.4637 29.8597 50.1256 30.5215 50.942 30.5215C51.7584 30.5215 52.4203 29.8597 52.4203 29.0432C52.4203 28.2268 51.7584 27.565 50.942 27.565C50.1256 27.565 49.4637 28.2268 49.4637 29.0432Z" fill="#DCDEDF"/>
<path d="M55.3766 29.0432C55.3766 29.8597 56.0384 30.5215 56.8548 30.5215C57.6713 30.5215 58.3331 29.8597 58.3331 29.0432C58.3331 28.2268 57.6713 27.565 56.8548 27.565C56.0384 27.565 55.3766 28.2268 55.3766 29.0432Z" fill="#DCDEDF"/>
<path d="M31.7243 29.0432C31.7243 29.8597 32.3862 30.5215 33.2026 30.5215C34.0191 30.5215 34.6809 29.8597 34.6809 29.0432C34.6809 28.2268 34.0191 27.565 33.2026 27.565C32.3862 27.565 31.7243 28.2268 31.7243 29.0432Z" fill="#DCDEDF"/>
<path d="M25.8108 29.0432C25.8108 29.8597 26.4726 30.5215 27.289 30.5215C28.1055 30.5215 28.7673 29.8597 28.7673 29.0432C28.7673 28.2268 28.1055 27.565 27.289 27.565C26.4726 27.565 25.8108 28.2268 25.8108 29.0432Z" fill="#DCDEDF"/>
<path d="M37.6372 34.9565C37.6372 35.7729 38.299 36.4347 39.1155 36.4347C39.9319 36.4347 40.5938 35.7729 40.5938 34.9565C40.5938 34.14 39.9319 33.4782 39.1155 33.4782C38.299 33.4782 37.6372 34.14 37.6372 34.9565Z" fill="#DCDEDF"/>
<path d="M43.5504 34.9565C43.5504 35.7729 44.2122 36.4347 45.0287 36.4347C45.8451 36.4347 46.507 35.7729 46.507 34.9565C46.507 34.14 45.8451 33.4782 45.0287 33.4782C44.2122 33.4782 43.5504 34.14 43.5504 34.9565Z" fill="#DCDEDF"/>
<path d="M49.4637 34.9565C49.4637 35.7729 50.1256 36.4347 50.942 36.4347C51.7584 36.4347 52.4203 35.7729 52.4203 34.9565C52.4203 34.14 51.7584 33.4782 50.942 33.4782C50.1256 33.4782 49.4637 34.14 49.4637 34.9565Z" fill="#DCDEDF"/>
<path d="M55.3766 34.9565C55.3766 35.7729 56.0384 36.4347 56.8548 36.4347C57.6713 36.4347 58.3331 35.7729 58.3331 34.9565C58.3331 34.14 57.6713 33.4782 56.8548 33.4782C56.0384 33.4782 55.3766 34.14 55.3766 34.9565Z" fill="#DCDEDF"/>
<path d="M37.6372 40.8697C37.6372 41.6861 38.299 42.348 39.1155 42.348C39.9319 42.348 40.5938 41.6861 40.5938 40.8697C40.5938 40.0532 39.9319 39.3914 39.1155 39.3914C38.299 39.3914 37.6372 40.0532 37.6372 40.8697Z" fill="#DCDEDF"/>
<path d="M43.5504 40.8697C43.5504 41.6861 44.2122 42.348 45.0287 42.348C45.8451 42.348 46.507 41.6861 46.507 40.8697C46.507 40.0532 45.8451 39.3914 45.0287 39.3914C44.2122 39.3914 43.5504 40.0532 43.5504 40.8697Z" fill="#DCDEDF"/>
<path d="M49.4637 40.8697C49.4637 41.6861 50.1256 42.348 50.942 42.348C51.7584 42.348 52.4203 41.6861 52.4203 40.8697C52.4203 40.0532 51.7584 39.3914 50.942 39.3914C50.1256 39.3914 49.4637 40.0532 49.4637 40.8697Z" fill="#DCDEDF"/>
<path d="M55.3766 40.8697C55.3766 41.6861 56.0384 42.348 56.8548 42.348C57.6713 42.348 58.3331 41.6861 58.3331 40.8697C58.3331 40.0532 57.6713 39.3914 56.8548 39.3914C56.0384 39.3914 55.3766 40.0532 55.3766 40.8697Z" fill="#DCDEDF"/>
<path d="M37.6372 46.7829C37.6372 47.5993 38.299 48.2612 39.1155 48.2612C39.9319 48.2612 40.5938 47.5993 40.5938 46.7829C40.5938 45.9664 39.9319 45.3046 39.1155 45.3046C38.299 45.3046 37.6372 45.9664 37.6372 46.7829Z" fill="#DCDEDF"/>
<path d="M43.5504 46.7829C43.5504 47.5993 44.2122 48.2612 45.0287 48.2612C45.8451 48.2612 46.507 47.5993 46.507 46.7829C46.507 45.9664 45.8451 45.3046 45.0287 45.3046C44.2122 45.3046 43.5504 45.9664 43.5504 46.7829Z" fill="#DCDEDF"/>
<path d="M49.4637 46.7829C49.4637 47.5993 50.1256 48.2612 50.942 48.2612C51.7584 48.2612 52.4203 47.5993 52.4203 46.7829C52.4203 45.9664 51.7584 45.3046 50.942 45.3046C50.1256 45.3046 49.4637 45.9664 49.4637 46.7829Z" fill="#DCDEDF"/>
<path d="M55.3766 46.7829C55.3766 47.5993 56.0384 48.2612 56.8548 48.2612C57.6713 48.2612 58.3331 47.5993 58.3331 46.7829C58.3331 45.9664 57.6713 45.3046 56.8548 45.3046C56.0384 45.3046 55.3766 45.9664 55.3766 46.7829Z" fill="#DCDEDF"/>
<path d="M31.7243 34.9565C31.7243 35.7729 32.3862 36.4347 33.2026 36.4347C34.0191 36.4347 34.6809 35.7729 34.6809 34.9565C34.6809 34.14 34.0191 33.4782 33.2026 33.4782C32.3862 33.4782 31.7243 34.14 31.7243 34.9565Z" fill="#DCDEDF"/>
<path d="M31.7243 40.8697C31.7243 41.6861 32.3862 42.348 33.2026 42.348C34.0191 42.348 34.6809 41.6861 34.6809 40.8697C34.6809 40.0532 34.0191 39.3914 33.2026 39.3914C32.3862 39.3914 31.7243 40.0532 31.7243 40.8697Z" fill="#DCDEDF"/>
<path d="M31.7243 46.7829C31.7243 47.5993 32.3862 48.2612 33.2026 48.2612C34.0191 48.2612 34.6809 47.5993 34.6809 46.7829C34.6809 45.9664 34.0191 45.3046 33.2026 45.3046C32.3862 45.3046 31.7243 45.9664 31.7243 46.7829Z" fill="#DCDEDF"/>
<path d="M25.8108 34.9565C25.8108 35.7729 26.4726 36.4347 27.289 36.4347C28.1055 36.4347 28.7673 35.7729 28.7673 34.9565C28.7673 34.14 28.1055 33.4782 27.289 33.4782C26.4726 33.4782 25.8108 34.14 25.8108 34.9565Z" fill="#DCDEDF"/>
<path d="M25.8108 40.8697C25.8108 41.6861 26.4726 42.348 27.289 42.348C28.1055 42.348 28.7673 41.6861 28.7673 40.8697C28.7673 40.0532 28.1055 39.3914 27.289 39.3914C26.4726 39.3914 25.8108 40.0532 25.8108 40.8697Z" fill="#DCDEDF"/>
<path d="M25.8108 46.7829C25.8108 47.5993 26.4726 48.2612 27.289 48.2612C28.1055 48.2612 28.7673 47.5993 28.7673 46.7829C28.7673 45.9664 28.1055 45.3046 27.289 45.3046C26.4726 45.3046 25.8108 45.9664 25.8108 46.7829Z" fill="#DCDEDF"/>
</g>
<defs>
<clipPath id="clip0_1967:19623">
<rect width="64" height="64" fill="white"/>
</clipPath>
</defs>
</svg>
