<svg width="64" height="64" viewBox="0 0 64 64" fill="none" xmlns="http://www.w3.org/2000/svg">
<path d="M24.4228 12.2405L22.5863 14.383L25.4082 14.383L40.9827 14.383L43.8045 14.383L41.9681 12.2405L34.1809 3.15536L33.1954 2.00571L32.21 3.15536L24.4228 12.2405Z" fill="black" stroke="white" stroke-width="2.59574"/>
<path d="M54.8538 17.2766H12.9487C11.2284 17.2766 9.83381 18.6712 9.83381 20.3915V51.5404C9.83381 58.4217 15.4122 64 22.2934 64H54.8538V17.2766Z" fill="white"/>
<path d="M28.8151 31.8777C28.8151 32.6841 29.4689 33.3378 30.2752 33.3378C31.0816 33.3378 31.7354 32.6841 31.7354 31.8777C31.7354 31.0713 31.0816 30.4176 30.2752 30.4176C29.4689 30.4176 28.8151 31.0713 28.8151 31.8777Z" fill="#DCDEDF"/>
<path d="M34.6556 31.8777C34.6556 32.6841 35.3093 33.3378 36.1157 33.3378C36.9221 33.3378 37.5758 32.6841 37.5758 31.8777C37.5758 31.0713 36.9221 30.4176 36.1157 30.4176C35.3093 30.4176 34.6556 31.0713 34.6556 31.8777Z" fill="#DCDEDF"/>
<path d="M40.4962 31.8777C40.4962 32.6841 41.1499 33.3378 41.9563 33.3378C42.7627 33.3378 43.4164 32.6841 43.4164 31.8777C43.4164 31.0713 42.7627 30.4176 41.9563 30.4176C41.1499 30.4176 40.4962 31.0713 40.4962 31.8777Z" fill="#DCDEDF"/>
<path d="M46.3363 31.8777C46.3363 32.6841 46.99 33.3378 47.7964 33.3378C48.6028 33.3378 49.2565 32.6841 49.2565 31.8777C49.2565 31.0713 48.6028 30.4176 47.7964 30.4176C46.99 30.4176 46.3363 31.0713 46.3363 31.8777Z" fill="#DCDEDF"/>
<path d="M22.9751 31.8777C22.9751 32.6841 23.6288 33.3378 24.4352 33.3378C25.2416 33.3378 25.8953 32.6841 25.8953 31.8777C25.8953 31.0713 25.2416 30.4176 24.4352 30.4176C23.6288 30.4176 22.9751 31.0713 22.9751 31.8777Z" fill="#DCDEDF"/>
<path d="M17.1341 31.8777C17.1341 32.6841 17.7878 33.3378 18.5942 33.3378C19.4006 33.3378 20.0543 32.6841 20.0543 31.8777C20.0543 31.0713 19.4006 30.4176 18.5942 30.4176C17.7878 30.4176 17.1341 31.0713 17.1341 31.8777Z" fill="#DCDEDF"/>
<path d="M28.8151 37.7179C28.8151 38.5243 29.4689 39.178 30.2752 39.178C31.0816 39.178 31.7354 38.5243 31.7354 37.7179C31.7354 36.9115 31.0816 36.2578 30.2752 36.2578C29.4689 36.2578 28.8151 36.9115 28.8151 37.7179Z" fill="#DCDEDF"/>
<path d="M34.6556 37.7179C34.6556 38.5243 35.3093 39.178 36.1157 39.178C36.9221 39.178 37.5758 38.5243 37.5758 37.7179C37.5758 36.9115 36.9221 36.2578 36.1157 36.2578C35.3093 36.2578 34.6556 36.9115 34.6556 37.7179Z" fill="#DCDEDF"/>
<path d="M40.4962 37.7179C40.4962 38.5243 41.1499 39.178 41.9563 39.178C42.7627 39.178 43.4164 38.5243 43.4164 37.7179C43.4164 36.9115 42.7627 36.2578 41.9563 36.2578C41.1499 36.2578 40.4962 36.9115 40.4962 37.7179Z" fill="#DCDEDF"/>
<path d="M46.3363 37.7179C46.3363 38.5243 46.99 39.178 47.7964 39.178C48.6028 39.178 49.2565 38.5243 49.2565 37.7179C49.2565 36.9115 48.6028 36.2578 47.7964 36.2578C46.99 36.2578 46.3363 36.9115 46.3363 37.7179Z" fill="#DCDEDF"/>
<path d="M22.9751 37.7179C22.9751 38.5243 23.6288 39.178 24.4352 39.178C25.2416 39.178 25.8953 38.5243 25.8953 37.7179C25.8953 36.9115 25.2416 36.2578 24.4352 36.2578C23.6288 36.2578 22.9751 36.9115 22.9751 37.7179Z" fill="#DCDEDF"/>
<path d="M17.1341 37.7179C17.1341 38.5243 17.7878 39.178 18.5942 39.178C19.4006 39.178 20.0543 38.5243 20.0543 37.7179C20.0543 36.9115 19.4006 36.2578 18.5942 36.2578C17.7878 36.2578 17.1341 36.9115 17.1341 37.7179Z" fill="#DCDEDF"/>
<path d="M28.8151 43.5584C28.8151 44.3648 29.4689 45.0185 30.2752 45.0185C31.0816 45.0185 31.7354 44.3648 31.7354 43.5584C31.7354 42.752 31.0816 42.0983 30.2752 42.0983C29.4689 42.0983 28.8151 42.752 28.8151 43.5584Z" fill="#DCDEDF"/>
<path d="M34.6556 43.5584C34.6556 44.3648 35.3093 45.0185 36.1157 45.0185C36.9221 45.0185 37.5758 44.3648 37.5758 43.5584C37.5758 42.752 36.9221 42.0983 36.1157 42.0983C35.3093 42.0983 34.6556 42.752 34.6556 43.5584Z" fill="#DCDEDF"/>
<path d="M40.4962 43.5584C40.4962 44.3648 41.1499 45.0185 41.9563 45.0185C42.7627 45.0185 43.4164 44.3648 43.4164 43.5584C43.4164 42.752 42.7627 42.0983 41.9563 42.0983C41.1499 42.0983 40.4962 42.752 40.4962 43.5584Z" fill="#DCDEDF"/>
<path d="M46.3363 43.5584C46.3363 44.3648 46.99 45.0185 47.7964 45.0185C48.6028 45.0185 49.2565 44.3648 49.2565 43.5584C49.2565 42.752 48.6028 42.0983 47.7964 42.0983C46.99 42.0983 46.3363 42.752 46.3363 43.5584Z" fill="#DCDEDF"/>
<path d="M28.8151 49.3989C28.8151 50.2053 29.4689 50.859 30.2752 50.859C31.0816 50.859 31.7354 50.2053 31.7354 49.3989C31.7354 48.5925 31.0816 47.9388 30.2752 47.9388C29.4689 47.9388 28.8151 48.5925 28.8151 49.3989Z" fill="#DCDEDF"/>
<path d="M34.6556 49.3989C34.6556 50.2053 35.3093 50.859 36.1157 50.859C36.9221 50.859 37.5758 50.2053 37.5758 49.3989C37.5758 48.5925 36.9221 47.9388 36.1157 47.9388C35.3093 47.9388 34.6556 48.5925 34.6556 49.3989Z" fill="#DCDEDF"/>
<path d="M40.4962 49.3989C40.4962 50.2053 41.1499 50.859 41.9563 50.859C42.7627 50.859 43.4164 50.2053 43.4164 49.3989C43.4164 48.5925 42.7627 47.9388 41.9563 47.9388C41.1499 47.9388 40.4962 48.5925 40.4962 49.3989Z" fill="#DCDEDF"/>
<path d="M46.3363 49.3989C46.3363 50.2053 46.99 50.859 47.7964 50.859C48.6028 50.859 49.2565 50.2053 49.2565 49.3989C49.2565 48.5925 48.6028 47.9388 47.7964 47.9388C46.99 47.9388 46.3363 48.5925 46.3363 49.3989Z" fill="#DCDEDF"/>
<path d="M28.8151 55.2394C28.8151 56.0458 29.4689 56.6995 30.2752 56.6995C31.0816 56.6995 31.7354 56.0458 31.7354 55.2394C31.7354 54.433 31.0816 53.7793 30.2752 53.7793C29.4689 53.7793 28.8151 54.433 28.8151 55.2394Z" fill="#DCDEDF"/>
<path d="M34.6556 55.2394C34.6556 56.0458 35.3093 56.6995 36.1157 56.6995C36.9221 56.6995 37.5758 56.0458 37.5758 55.2394C37.5758 54.433 36.9221 53.7793 36.1157 53.7793C35.3093 53.7793 34.6556 54.433 34.6556 55.2394Z" fill="#DCDEDF"/>
<path d="M40.4962 55.2394C40.4962 56.0458 41.1499 56.6995 41.9563 56.6995C42.7627 56.6995 43.4164 56.0458 43.4164 55.2394C43.4164 54.433 42.7627 53.7793 41.9563 53.7793C41.1499 53.7793 40.4962 54.433 40.4962 55.2394Z" fill="#DCDEDF"/>
<path d="M46.3363 55.2394C46.3363 56.0458 46.99 56.6995 47.7964 56.6995C48.6028 56.6995 49.2565 56.0458 49.2565 55.2394C49.2565 54.433 48.6028 53.7793 47.7964 53.7793C46.99 53.7793 46.3363 54.433 46.3363 55.2394Z" fill="#DCDEDF"/>
<path d="M22.9751 43.5584C22.9751 44.3648 23.6288 45.0185 24.4352 45.0185C25.2416 45.0185 25.8953 44.3648 25.8953 43.5584C25.8953 42.752 25.2416 42.0983 24.4352 42.0983C23.6288 42.0983 22.9751 42.752 22.9751 43.5584Z" fill="#DCDEDF"/>
<path d="M22.9751 49.3989C22.9751 50.2053 23.6288 50.859 24.4352 50.859C25.2416 50.859 25.8953 50.2053 25.8953 49.3989C25.8953 48.5925 25.2416 47.9388 24.4352 47.9388C23.6288 47.9388 22.9751 48.5925 22.9751 49.3989Z" fill="#DCDEDF"/>
<path d="M22.9751 55.2394C22.9751 56.0458 23.6288 56.6995 24.4352 56.6995C25.2416 56.6995 25.8953 56.0458 25.8953 55.2394C25.8953 54.433 25.2416 53.7793 24.4352 53.7793C23.6288 53.7793 22.9751 54.433 22.9751 55.2394Z" fill="#DCDEDF"/>
<path d="M17.1341 43.5584C17.1341 44.3648 17.7878 45.0185 18.5942 45.0185C19.4006 45.0185 20.0543 44.3648 20.0543 43.5584C20.0543 42.752 19.4006 42.0983 18.5942 42.0983C17.7878 42.0983 17.1341 42.752 17.1341 43.5584Z" fill="#DCDEDF"/>
<path d="M17.1341 49.3989C17.1341 50.2053 17.7878 50.859 18.5942 50.859C19.4006 50.859 20.0543 50.2053 20.0543 49.3989C20.0543 48.5925 19.4006 47.9388 18.5942 47.9388C17.7878 47.9388 17.1341 48.5925 17.1341 49.3989Z" fill="#DCDEDF"/>
<path d="M17.1341 55.2394C17.1341 56.0458 17.7878 56.6995 18.5942 56.6995C19.4006 56.6995 20.0543 56.0458 20.0543 55.2394C20.0543 54.433 19.4006 53.7793 18.5942 53.7793C17.7878 53.7793 17.1341 54.433 17.1341 55.2394Z" fill="#DCDEDF"/>
</svg>
