<svg width="64" height="64" viewBox="0 0 64 64" fill="none" xmlns="http://www.w3.org/2000/svg">
<path d="M0 37.1C0 22.9615 11.4615 11.5 25.6 11.5H38.4C52.5385 11.5 64 22.9615 64 37.1V51.5H0V37.1Z" fill="white"/>
<path d="M32.633 40.3H28.3322L25.353 35.3272H25.017H23.1578V40.3H19.2826V24.62H25.3754C27.6154 24.62 29.273 25.0605 30.3482 25.9416C31.4234 26.8227 31.961 28.0621 31.961 29.66C31.961 30.8696 31.6997 31.8851 31.177 32.7064C30.6693 33.5128 29.9525 34.1251 29.0266 34.5432L32.633 40.3ZM23.1578 27.9352V32.012H25.2634C26.0549 32.012 26.6746 31.8328 27.1226 31.4744C27.5855 31.1011 27.817 30.5635 27.817 29.8616C27.817 29.2195 27.6079 28.7416 27.1898 28.428C26.7717 28.0995 26.1071 27.9352 25.1962 27.9352H23.1578Z" fill="black"/>
<path d="M43.9476 24.62V36.9848H46.882V40.3H36.3764V36.9848H40.0052V28.8984L36.8916 30.1304L35.6596 27.2408L40.946 24.62H43.9476Z" fill="black"/>
</svg>
