<svg width="64" height="64" viewBox="0 0 64 64" fill="none" xmlns="http://www.w3.org/2000/svg">
<g clip-path="url(#clip0_1967:15758)">
<path d="M54.7928 0H12.2463C10.5679 0 9.20726 1.36062 9.20726 3.03904V36.4685C9.20726 43.1821 14.6498 48.6246 21.3634 48.6246H54.7928V0Z" fill="white"/>
<path d="M47.1951 27.3514C47.1951 28.1906 47.8754 28.8709 48.7146 28.8709C49.5538 28.8709 50.2341 28.1906 50.2341 27.3514C50.2341 26.5122 49.5538 25.8319 48.7146 25.8319C47.8754 25.8319 47.1951 26.5122 47.1951 27.3514Z" fill="#DCDEDF"/>
<path d="M47.1951 21.2733C47.1951 22.1125 47.8754 22.7928 48.7146 22.7928C49.5538 22.7928 50.2341 22.1125 50.2341 21.2733C50.2341 20.4341 49.5538 19.7538 48.7146 19.7538C47.8754 19.7538 47.1951 20.4341 47.1951 21.2733Z" fill="#DCDEDF"/>
<path d="M47.1951 15.1952C47.1951 16.0344 47.8754 16.7147 48.7146 16.7147C49.5538 16.7147 50.2341 16.0344 50.2341 15.1952C50.2341 14.356 49.5538 13.6757 48.7146 13.6757C47.8754 13.6757 47.1951 14.356 47.1951 15.1952Z" fill="#DCDEDF"/>
<path d="M47.1951 33.4294C47.1951 34.2687 47.8754 34.949 48.7146 34.949C49.5538 34.949 50.2341 34.2687 50.2341 33.4294C50.2341 32.5902 49.5538 31.9099 48.7146 31.9099C47.8754 31.9099 47.1951 32.5902 47.1951 33.4294Z" fill="#DCDEDF"/>
<path d="M41.1172 27.3514C41.1172 28.1906 41.7975 28.8709 42.6367 28.8709C43.4759 28.8709 44.1562 28.1906 44.1562 27.3514C44.1562 26.5122 43.4759 25.8319 42.6367 25.8319C41.7975 25.8319 41.1172 26.5122 41.1172 27.3514Z" fill="#DCDEDF"/>
<path d="M41.1172 21.2733C41.1172 22.1125 41.7975 22.7928 42.6367 22.7928C43.4759 22.7928 44.1562 22.1125 44.1562 21.2733C44.1562 20.4341 43.4759 19.7538 42.6367 19.7538C41.7975 19.7538 41.1172 20.4341 41.1172 21.2733Z" fill="#DCDEDF"/>
<path d="M41.1172 15.1952C41.1172 16.0344 41.7975 16.7147 42.6367 16.7147C43.4759 16.7147 44.1562 16.0344 44.1562 15.1952C44.1562 14.356 43.4759 13.6757 42.6367 13.6757C41.7975 13.6757 41.1172 14.356 41.1172 15.1952Z" fill="#DCDEDF"/>
<path d="M35.0388 21.2733C35.0388 22.1125 35.7192 22.7928 36.5584 22.7928C37.3976 22.7928 38.0779 22.1125 38.0779 21.2733C38.0779 20.4341 37.3976 19.7538 36.5584 19.7538C35.7192 19.7538 35.0388 20.4341 35.0388 21.2733Z" fill="#DCDEDF"/>
<path d="M35.0388 15.1952C35.0388 16.0344 35.7192 16.7147 36.5584 16.7147C37.3976 16.7147 38.0779 16.0344 38.0779 15.1952C38.0779 14.356 37.3976 13.6757 36.5584 13.6757C35.7192 13.6757 35.0388 14.356 35.0388 15.1952Z" fill="#DCDEDF"/>
<path d="M28.961 21.2733C28.961 22.1125 29.6413 22.7928 30.4805 22.7928C31.3197 22.7928 32 22.1125 32 21.2733C32 20.4341 31.3197 19.7538 30.4805 19.7538C29.6413 19.7538 28.961 20.4341 28.961 21.2733Z" fill="#DCDEDF"/>
<path d="M28.961 15.1952C28.961 16.0344 29.6413 16.7147 30.4805 16.7147C31.3197 16.7147 32 16.0344 32 15.1952C32 14.356 31.3197 13.6757 30.4805 13.6757C29.6413 13.6757 28.961 14.356 28.961 15.1952Z" fill="#DCDEDF"/>
<path d="M22.8831 21.2733C22.8831 22.1125 23.5634 22.7928 24.4026 22.7928C25.2418 22.7928 25.9221 22.1125 25.9221 21.2733C25.9221 20.4341 25.2418 19.7538 24.4026 19.7538C23.5634 19.7538 22.8831 20.4341 22.8831 21.2733Z" fill="#DCDEDF"/>
<path d="M22.8831 15.1952C22.8831 16.0344 23.5634 16.7147 24.4026 16.7147C25.2418 16.7147 25.9221 16.0344 25.9221 15.1952C25.9221 14.356 25.2418 13.6757 24.4026 13.6757C23.5634 13.6757 22.8831 14.356 22.8831 15.1952Z" fill="#DCDEDF"/>
<path d="M16.8047 27.3514C16.8047 28.1906 17.485 28.8709 18.3242 28.8709C19.1634 28.8709 19.8438 28.1906 19.8438 27.3514C19.8438 26.5122 19.1634 25.8319 18.3242 25.8319C17.485 25.8319 16.8047 26.5122 16.8047 27.3514Z" fill="#DCDEDF"/>
<path d="M16.8047 21.2733C16.8047 22.1125 17.485 22.7928 18.3242 22.7928C19.1634 22.7928 19.8438 22.1125 19.8438 21.2733C19.8438 20.4341 19.1634 19.7538 18.3242 19.7538C17.485 19.7538 16.8047 20.4341 16.8047 21.2733Z" fill="#DCDEDF"/>
<path d="M16.8047 15.1952C16.8047 16.0344 17.485 16.7147 18.3242 16.7147C19.1634 16.7147 19.8438 16.0344 19.8438 15.1952C19.8438 14.356 19.1634 13.6757 18.3242 13.6757C17.485 13.6757 16.8047 14.356 16.8047 15.1952Z" fill="#DCDEDF"/>
<path d="M16.8047 33.4294C16.8047 34.2687 17.485 34.949 18.3242 34.949C19.1634 34.949 19.8438 34.2687 19.8438 33.4294C19.8438 32.5902 19.1634 31.9099 18.3242 31.9099C17.485 31.9099 16.8047 32.5902 16.8047 33.4294Z" fill="#DCDEDF"/>
<path d="M40.8541 40.2588L34.6895 46.6125V31.9099H29.3103V46.6125L23.1458 40.2588L19.3373 44.1841L31.9999 57.2352L44.6626 44.1841L40.8541 40.2588Z" fill="black"/>
<path fill-rule="evenodd" clip-rule="evenodd" d="M40.8542 36.6219L48.1913 44.1841L32 60.8721L15.8087 44.1841L23.1458 36.6219L26.7779 40.3654V29.3774L37.2222 29.3774V40.3654L40.8542 36.6219ZM34.6896 46.6125V31.9099H29.3104V46.6125L23.1458 40.2588L19.3374 44.1841L32 57.2352L44.6627 44.1841L40.8542 40.2588L34.6896 46.6125Z" fill="white"/>
</g>
<defs>
<clipPath id="clip0_1967:15758">
<rect width="64" height="64" fill="white"/>
</clipPath>
</defs>
</svg>
