<svg width="64" height="64" viewBox="0 0 64 64" fill="none" xmlns="http://www.w3.org/2000/svg">
<g clip-path="url(#clip0_1967:19964)">
<path fill-rule="evenodd" clip-rule="evenodd" d="M55.3519 7.18655H9.66105C8.48641 7.18655 7.53418 8.13879 7.53418 9.31342V48.3061C7.53418 53.0046 11.3431 56.8136 16.0417 56.8136H55.3519V7.18655ZM36.1911 22.695C36.1911 23.5516 35.4967 24.2459 34.6402 24.2459C33.7837 24.2459 33.0894 23.5516 33.0894 22.695C33.0894 21.8385 33.7837 21.1442 34.6402 21.1442C35.4967 21.1442 36.1911 21.8385 36.1911 22.695ZM28.4367 24.2459C29.2932 24.2459 29.9875 23.5516 29.9875 22.695C29.9875 21.8385 29.2932 21.1442 28.4367 21.1442C27.5802 21.1442 26.8858 21.8385 26.8858 22.695C26.8858 23.5516 27.5802 24.2459 28.4367 24.2459ZM36.1911 28.8985C36.1911 29.755 35.4967 30.4493 34.6402 30.4493C33.7837 30.4493 33.0894 29.755 33.0894 28.8985C33.0894 28.042 33.7837 27.3476 34.6402 27.3476C35.4967 27.3476 36.1911 28.042 36.1911 28.8985ZM28.4367 30.4493C29.2932 30.4493 29.9875 29.755 29.9875 28.8985C29.9875 28.042 29.2932 27.3476 28.4367 27.3476C27.5802 27.3476 26.8858 28.042 26.8858 28.8985C26.8858 29.755 27.5802 30.4493 28.4367 30.4493ZM17.581 28.8985C17.581 29.755 16.8867 30.4493 16.0301 30.4493C15.1736 30.4493 14.4793 29.755 14.4793 28.8985C14.4793 28.042 15.1736 27.3476 16.0301 27.3476C16.8867 27.3476 17.581 28.042 17.581 28.8985ZM47.047 30.4493C47.9035 30.4493 48.5978 29.755 48.5978 28.8985C48.5978 28.042 47.9035 27.3476 47.047 27.3476C46.1905 27.3476 45.4961 28.042 45.4961 28.8985C45.4961 29.755 46.1905 30.4493 47.047 30.4493ZM36.1911 35.1018C36.1911 35.9583 35.4967 36.6526 34.6402 36.6526C33.7837 36.6526 33.0894 35.9583 33.0894 35.1018C33.0894 34.2453 33.7837 33.5509 34.6402 33.5509C35.4967 33.5509 36.1911 34.2453 36.1911 35.1018ZM28.4367 36.6526C29.2932 36.6526 29.9875 35.9583 29.9875 35.1018C29.9875 34.2453 29.2932 33.5509 28.4367 33.5509C27.5802 33.5509 26.8858 34.2453 26.8858 35.1018C26.8858 35.9583 27.5802 36.6526 28.4367 36.6526ZM17.581 35.1018C17.581 35.9583 16.8867 36.6526 16.0301 36.6526C15.1736 36.6526 14.4793 35.9583 14.4793 35.1018C14.4793 34.2453 15.1736 33.5509 16.0301 33.5509C16.8867 33.5509 17.581 34.2453 17.581 35.1018ZM34.6402 42.8559C35.4967 42.8559 36.1911 42.1616 36.1911 41.3051C36.1911 40.4485 35.4967 39.7542 34.6402 39.7542C33.7837 39.7542 33.0894 40.4485 33.0894 41.3051C33.0894 42.1616 33.7837 42.8559 34.6402 42.8559ZM29.9875 41.3051C29.9875 42.1616 29.2932 42.8559 28.4367 42.8559C27.5802 42.8559 26.8858 42.1616 26.8858 41.3051C26.8858 40.4485 27.5802 39.7542 28.4367 39.7542C29.2932 39.7542 29.9875 40.4485 29.9875 41.3051ZM34.6402 49.0593C35.4967 49.0593 36.1911 48.365 36.1911 47.5085C36.1911 46.652 35.4967 45.9576 34.6402 45.9576C33.7837 45.9576 33.0894 46.652 33.0894 47.5085C33.0894 48.365 33.7837 49.0593 34.6402 49.0593ZM29.9875 47.5085C29.9875 48.365 29.2932 49.0593 28.4367 49.0593C27.5802 49.0593 26.8858 48.365 26.8858 47.5085C26.8858 46.652 27.5802 45.9576 28.4367 45.9576C29.2932 45.9576 29.9875 46.652 29.9875 47.5085ZM22.2333 49.0593C23.0898 49.0593 23.7841 48.365 23.7841 47.5085C23.7841 46.652 23.0898 45.9576 22.2333 45.9576C21.3768 45.9576 20.6825 46.652 20.6825 47.5085C20.6825 48.365 21.3768 49.0593 22.2333 49.0593ZM17.581 47.5085C17.581 48.365 16.8867 49.0593 16.0301 49.0593C15.1736 49.0593 14.4793 48.365 14.4793 47.5085C14.4793 46.652 15.1736 45.9576 16.0301 45.9576C16.8867 45.9576 17.581 46.652 17.581 47.5085ZM40.8434 49.0593C41.6999 49.0593 42.3942 48.365 42.3942 47.5085C42.3942 46.652 41.6999 45.9576 40.8434 45.9576C39.9869 45.9576 39.2925 46.652 39.2925 47.5085C39.2925 48.365 39.9869 49.0593 40.8434 49.0593ZM48.5978 35.1018C48.5978 35.9583 47.9035 36.6526 47.047 36.6526C46.1905 36.6526 45.4961 35.9583 45.4961 35.1018C45.4961 34.2453 46.1905 33.5509 47.047 33.5509C47.9035 33.5509 48.5978 34.2453 48.5978 35.1018ZM47.047 49.0593C47.9035 49.0593 48.5978 48.365 48.5978 47.5085C48.5978 46.652 47.9035 45.9576 47.047 45.9576C46.1905 45.9576 45.4961 46.652 45.4961 47.5085C45.4961 48.365 46.1905 49.0593 47.047 49.0593Z" fill="white"/>
<path fill-rule="evenodd" clip-rule="evenodd" d="M11.1052 43.8582L15.2069 39.502L19.2972 43.8641L25.0095 37.7628L19.6122 32.0106L25.0029 26.2529L19.2997 20.1269L15.2041 24.5082L11.1076 20.1327L-9.72748e-05 32.0154L11.1052 43.8582ZM15.9685 32.0125L21.3657 37.7648L19.2957 39.9758L11.8284 32.0125L19.2957 24.0243L21.3657 26.2478L15.9685 32.0125ZM3.64184 32.0125L11.1092 39.9758L13.1792 37.7773L7.7819 32.0125L13.1792 26.2353L11.1092 24.0243L3.64184 32.0125Z" fill="white"/>
<path fill-rule="evenodd" clip-rule="evenodd" d="M52.8948 43.8582L48.7931 39.502L44.7028 43.8641L38.9905 37.7628L44.3878 32.0106L38.9971 26.2529L44.7003 20.1269L48.7959 24.5082L52.8924 20.1327L64.0001 32.0154L52.8948 43.8582ZM48.0315 32.0125L42.6343 37.7648L44.7043 39.9758L52.1716 32.0125L44.7043 24.0243L42.6343 26.2478L48.0315 32.0125ZM60.3582 32.0125L52.8908 39.9758L50.8208 37.7773L56.2181 32.0125L50.8208 26.2353L52.8908 24.0243L60.3582 32.0125Z" fill="white"/>
<path d="M3.64183 32.0125L11.1091 39.9758L13.1792 37.7773L7.78189 32.0125L13.1792 26.2353L11.1091 24.0243L3.64183 32.0125Z" fill="black"/>
<path d="M15.9684 32.0125L21.3657 37.7648L19.2957 39.9758L11.8284 32.0125L19.2957 24.0243L21.3657 26.2477L15.9684 32.0125Z" fill="black"/>
<path d="M60.3584 32.0125L52.8911 39.9758L50.8211 37.7773L56.2184 32.0125L50.8211 26.2353L52.8911 24.0243L60.3584 32.0125Z" fill="black"/>
<path d="M48.0318 32.0125L42.6345 37.7648L44.7046 39.9758L52.1719 32.0125L44.7046 24.0243L42.6345 26.2477L48.0318 32.0125Z" fill="black"/>
</g>
<defs>
<clipPath id="clip0_1967:19964">
<rect width="64" height="64" fill="white"/>
</clipPath>
</defs>
</svg>
