<svg width="64" height="64" viewBox="0 0 64 64" fill="none" xmlns="http://www.w3.org/2000/svg">
<g clip-path="url(#clip0_1967:15530)">
<path d="M0 7.41021H44.3128C46.0104 7.41021 47.3866 8.78636 47.3866 10.4839V44.2949C47.3866 51.0852 41.8819 56.5898 35.0917 56.5898H0V7.41021Z" fill="white"/>
<path d="M8.9652 22.7788C8.9652 23.6276 8.27713 24.3157 7.42834 24.3157C6.57956 24.3157 5.89148 23.6276 5.89148 22.7788C5.89148 21.93 6.57956 21.2419 7.42834 21.2419C8.27713 21.2419 8.9652 21.93 8.9652 22.7788Z" fill="#DCDEDF"/>
<path d="M8.9652 28.9263C8.9652 29.7751 8.27713 30.4632 7.42834 30.4632C6.57956 30.4632 5.89148 29.7751 5.89148 28.9263C5.89148 28.0775 6.57956 27.3895 7.42834 27.3895C8.27713 27.3895 8.9652 28.0775 8.9652 28.9263Z" fill="#DCDEDF"/>
<path d="M8.9652 35.0737C8.9652 35.9225 8.27713 36.6106 7.42834 36.6106C6.57956 36.6106 5.89148 35.9225 5.89148 35.0737C5.89148 34.225 6.57956 33.5369 7.42834 33.5369C8.27713 33.5369 8.9652 34.225 8.9652 35.0737Z" fill="#DCDEDF"/>
<path d="M8.9652 41.2212C8.9652 42.07 8.27713 42.758 7.42834 42.758C6.57956 42.758 5.89148 42.07 5.89148 41.2212C5.89148 40.3724 6.57956 39.6843 7.42834 39.6843C8.27713 39.6843 8.9652 40.3724 8.9652 41.2212Z" fill="#DCDEDF"/>
<path d="M8.9652 47.3686C8.9652 48.2174 8.27713 48.9055 7.42834 48.9055C6.57956 48.9055 5.89148 48.2174 5.89148 47.3686C5.89148 46.5198 6.57956 45.8317 7.42834 45.8317C8.27713 45.8317 8.9652 46.5198 8.9652 47.3686Z" fill="#DCDEDF"/>
<path d="M15.1123 22.7788C15.1123 23.6276 14.4242 24.3157 13.5754 24.3157C12.7267 24.3157 12.0386 23.6276 12.0386 22.7788C12.0386 21.93 12.7267 21.2419 13.5754 21.2419C14.4242 21.2419 15.1123 21.93 15.1123 22.7788Z" fill="#DCDEDF"/>
<path d="M21.2601 22.7788C21.2601 23.6276 20.572 24.3157 19.7233 24.3157C18.8745 24.3157 18.1864 23.6276 18.1864 22.7788C18.1864 21.93 18.8745 21.2419 19.7233 21.2419C20.572 21.2419 21.2601 21.93 21.2601 22.7788Z" fill="#DCDEDF"/>
<path d="M15.1123 28.9263C15.1123 29.7751 14.4242 30.4632 13.5754 30.4632C12.7267 30.4632 12.0386 29.7751 12.0386 28.9263C12.0386 28.0775 12.7267 27.3895 13.5754 27.3895C14.4242 27.3895 15.1123 28.0775 15.1123 28.9263Z" fill="#DCDEDF"/>
<path d="M21.2601 28.9263C21.2601 29.7751 20.572 30.4632 19.7233 30.4632C18.8745 30.4632 18.1864 29.7751 18.1864 28.9263C18.1864 28.0775 18.8745 27.3895 19.7233 27.3895C20.572 27.3895 21.2601 28.0775 21.2601 28.9263Z" fill="#DCDEDF"/>
<path d="M15.1123 35.0737C15.1123 35.9225 14.4242 36.6106 13.5754 36.6106C12.7267 36.6106 12.0386 35.9225 12.0386 35.0737C12.0386 34.225 12.7267 33.5369 13.5754 33.5369C14.4242 33.5369 15.1123 34.225 15.1123 35.0737Z" fill="#DCDEDF"/>
<path d="M15.1123 41.2212C15.1123 42.07 14.4242 42.758 13.5754 42.758C12.7267 42.758 12.0386 42.07 12.0386 41.2212C12.0386 40.3724 12.7267 39.6843 13.5754 39.6843C14.4242 39.6843 15.1123 40.3724 15.1123 41.2212Z" fill="#DCDEDF"/>
<path d="M15.1123 47.3686C15.1123 48.2174 14.4242 48.9055 13.5754 48.9055C12.7267 48.9055 12.0386 48.2174 12.0386 47.3686C12.0386 46.5198 12.7267 45.8317 13.5754 45.8317C14.4242 45.8317 15.1123 46.5198 15.1123 47.3686Z" fill="#DCDEDF"/>
<path d="M21.2601 35.0737C21.2601 35.9225 20.572 36.6106 19.7233 36.6106C18.8745 36.6106 18.1864 35.9225 18.1864 35.0737C18.1864 34.225 18.8745 33.5369 19.7233 33.5369C20.572 33.5369 21.2601 34.225 21.2601 35.0737Z" fill="#DCDEDF"/>
<path d="M21.2601 41.2212C21.2601 42.07 20.572 42.758 19.7233 42.758C18.8745 42.758 18.1864 42.07 18.1864 41.2212C18.1864 40.3724 18.8745 39.6843 19.7233 39.6843C20.572 39.6843 21.2601 40.3724 21.2601 41.2212Z" fill="#DCDEDF"/>
<path d="M21.2601 47.3686C21.2601 48.2174 20.572 48.9055 19.7233 48.9055C18.8745 48.9055 18.1864 48.2174 18.1864 47.3686C18.1864 46.5198 18.8745 45.8317 19.7233 45.8317C20.572 45.8317 21.2601 46.5198 21.2601 47.3686Z" fill="#DCDEDF"/>
<path d="M27.4073 41.2212C27.4073 42.07 26.7193 42.758 25.8705 42.758C25.0217 42.758 24.3336 42.07 24.3336 41.2212C24.3336 40.3724 25.0217 39.6843 25.8705 39.6843C26.7193 39.6843 27.4073 40.3724 27.4073 41.2212Z" fill="#DCDEDF"/>
<path d="M27.4073 47.3686C27.4073 48.2174 26.7193 48.9055 25.8705 48.9055C25.0217 48.9055 24.3336 48.2174 24.3336 47.3686C24.3336 46.5198 25.0217 45.8317 25.8705 45.8317C26.7193 45.8317 27.4073 46.5198 27.4073 47.3686Z" fill="#DCDEDF"/>
<path d="M33.5546 47.3686C33.5546 48.2174 32.8665 48.9055 32.0177 48.9055C31.1689 48.9055 30.4808 48.2174 30.4808 47.3686C30.4808 46.5198 31.1689 45.8317 32.0177 45.8317C32.8665 45.8317 33.5546 46.5198 33.5546 47.3686Z" fill="#DCDEDF"/>
<path d="M43.0235 23.0448L49.4497 29.2797H34.5793V34.7203H49.4497L43.0235 40.9552L46.9936 44.8072L60.1937 32L46.9936 19.1928L43.0235 23.0448Z" fill="black"/>
<path fill-rule="evenodd" clip-rule="evenodd" d="M39.3451 23.0448L46.9936 15.6239L63.8721 32L46.9936 48.3761L39.3451 40.9552L43.1313 37.2817H32.0179V26.7183H43.1313L39.3451 23.0448ZM49.4497 29.2797H34.5794V34.7203H49.4497L43.0235 40.9552L46.9936 44.8072L60.1937 32L46.9936 19.1928L43.0235 23.0448L49.4497 29.2797Z" fill="white"/>
</g>
<defs>
<clipPath id="clip0_1967:15530">
<rect width="64" height="64" fill="white"/>
</clipPath>
</defs>
</svg>
