<svg width="64" height="64" viewBox="0 0 64 64" fill="none" xmlns="http://www.w3.org/2000/svg">
<path d="M8.03601 0H52.7688C54.5334 0 55.964 1.43054 55.964 3.1952V38.3424C55.964 45.401 50.2418 51.1232 43.1832 51.1232H8.03601V0Z" fill="white"/>
<path d="M16.0242 28.7568C16.0242 29.6391 15.3089 30.3544 14.4266 30.3544C13.5442 30.3544 12.829 29.6391 12.829 28.7568C12.829 27.8745 13.5442 27.1592 14.4266 27.1592C15.3089 27.1592 16.0242 27.8745 16.0242 28.7568Z" fill="#DCDEDF"/>
<path d="M16.0242 22.3664C16.0242 23.2488 15.3089 23.964 14.4266 23.964C13.5442 23.964 12.829 23.2488 12.829 22.3664C12.829 21.4841 13.5442 20.7688 14.4266 20.7688C15.3089 20.7688 16.0242 21.4841 16.0242 22.3664Z" fill="#DCDEDF"/>
<path d="M16.0242 15.976C16.0242 16.8583 15.3089 17.5736 14.4266 17.5736C13.5442 17.5736 12.829 16.8583 12.829 15.976C12.829 15.0936 13.5442 14.3784 14.4266 14.3784C15.3089 14.3784 16.0242 15.0936 16.0242 15.976Z" fill="#DCDEDF"/>
<path d="M16.0242 35.1472C16.0242 36.0295 15.3089 36.7448 14.4266 36.7448C13.5442 36.7448 12.829 36.0295 12.829 35.1472C12.829 34.2649 13.5442 33.5496 14.4266 33.5496C15.3089 33.5496 16.0242 34.2649 16.0242 35.1472Z" fill="#DCDEDF"/>
<path d="M22.4143 28.7568C22.4143 29.6391 21.699 30.3544 20.8167 30.3544C19.9344 30.3544 19.2191 29.6391 19.2191 28.7568C19.2191 27.8745 19.9344 27.1592 20.8167 27.1592C21.699 27.1592 22.4143 27.8745 22.4143 28.7568Z" fill="#DCDEDF"/>
<path d="M22.4143 22.3664C22.4143 23.2488 21.699 23.964 20.8167 23.964C19.9344 23.964 19.2191 23.2488 19.2191 22.3664C19.2191 21.4841 19.9344 20.7688 20.8167 20.7688C21.699 20.7688 22.4143 21.4841 22.4143 22.3664Z" fill="#DCDEDF"/>
<path d="M22.4143 15.976C22.4143 16.8583 21.699 17.5736 20.8167 17.5736C19.9344 17.5736 19.2191 16.8583 19.2191 15.976C19.2191 15.0936 19.9344 14.3784 20.8167 14.3784C21.699 14.3784 22.4143 15.0936 22.4143 15.976Z" fill="#DCDEDF"/>
<path d="M28.8051 22.3664C28.8051 23.2488 28.0898 23.964 27.2075 23.964C26.3251 23.964 25.6099 23.2488 25.6099 22.3664C25.6099 21.4841 26.3251 20.7688 27.2075 20.7688C28.0898 20.7688 28.8051 21.4841 28.8051 22.3664Z" fill="#DCDEDF"/>
<path d="M28.8051 15.976C28.8051 16.8583 28.0898 17.5736 27.2075 17.5736C26.3251 17.5736 25.6099 16.8583 25.6099 15.976C25.6099 15.0936 26.3251 14.3784 27.2075 14.3784C28.0898 14.3784 28.8051 15.0936 28.8051 15.976Z" fill="#DCDEDF"/>
<path d="M35.1952 22.3664C35.1952 23.2488 34.4799 23.964 33.5976 23.964C32.7153 23.964 32 23.2488 32 22.3664C32 21.4841 32.7153 20.7688 33.5976 20.7688C34.4799 20.7688 35.1952 21.4841 35.1952 22.3664Z" fill="#DCDEDF"/>
<path d="M35.1952 15.976C35.1952 16.8583 34.4799 17.5736 33.5976 17.5736C32.7153 17.5736 32 16.8583 32 15.976C32 15.0936 32.7153 14.3784 33.5976 14.3784C34.4799 14.3784 35.1952 15.0936 35.1952 15.976Z" fill="#DCDEDF"/>
<path d="M41.5853 22.3664C41.5853 23.2488 40.8701 23.964 39.9877 23.964C39.1054 23.964 38.3901 23.2488 38.3901 22.3664C38.3901 21.4841 39.1054 20.7688 39.9877 20.7688C40.8701 20.7688 41.5853 21.4841 41.5853 22.3664Z" fill="#DCDEDF"/>
<path d="M41.5853 15.976C41.5853 16.8583 40.8701 17.5736 39.9877 17.5736C39.1054 17.5736 38.3901 16.8583 38.3901 15.976C38.3901 15.0936 39.1054 14.3784 39.9877 14.3784C40.8701 14.3784 41.5853 15.0936 41.5853 15.976Z" fill="#DCDEDF"/>
<path d="M47.9761 28.7568C47.9761 29.6391 47.2608 30.3544 46.3785 30.3544C45.4962 30.3544 44.7809 29.6391 44.7809 28.7568C44.7809 27.8745 45.4962 27.1592 46.3785 27.1592C47.2608 27.1592 47.9761 27.8745 47.9761 28.7568Z" fill="#DCDEDF"/>
<path d="M47.9761 22.3664C47.9761 23.2488 47.2608 23.964 46.3785 23.964C45.4962 23.964 44.7809 23.2488 44.7809 22.3664C44.7809 21.4841 45.4962 20.7688 46.3785 20.7688C47.2608 20.7688 47.9761 21.4841 47.9761 22.3664Z" fill="#DCDEDF"/>
<path d="M47.9761 15.976C47.9761 16.8583 47.2608 17.5736 46.3785 17.5736C45.4962 17.5736 44.7809 16.8583 44.7809 15.976C44.7809 15.0936 45.4962 14.3784 46.3785 14.3784C47.2608 14.3784 47.9761 15.0936 47.9761 15.976Z" fill="#DCDEDF"/>
<path d="M47.9761 35.1472C47.9761 36.0295 47.2608 36.7448 46.3785 36.7448C45.4962 36.7448 44.7809 36.0295 44.7809 35.1472C44.7809 34.2649 45.4962 33.5496 46.3785 33.5496C47.2608 33.5496 47.9761 34.2649 47.9761 35.1472Z" fill="#DCDEDF"/>
<path d="M41.3091 42.3274L34.8278 49.0076V33.5496H29.1722V49.0076L22.6908 42.3274L18.6866 46.4545L32 60.1762L45.3133 46.4545L41.3091 42.3274Z" fill="black"/>
<path fill-rule="evenodd" clip-rule="evenodd" d="M41.3091 38.5037L49.0232 46.4545L32 64L14.9767 46.4545L22.6908 38.5037L26.5095 42.4395V30.8869L37.4904 30.8869V42.4395L41.3091 38.5037ZM34.8278 49.0076V33.5496H29.1722V49.0076L22.6908 42.3274L18.6866 46.4545L32 60.1762L45.3133 46.4545L41.3091 42.3274L34.8278 49.0076Z" fill="white"/>
</svg>
