<svg width="32" height="32" viewBox="0 0 32 32" fill="none" xmlns="http://www.w3.org/2000/svg">
<path fill-rule="evenodd" clip-rule="evenodd" d="M26.6067 26.6066L1.00009 1V16C1.00009 24.2843 7.71582 31 16.0001 31C20.1422 31 23.8922 29.3211 26.6067 26.6066Z" fill="#DCDEDF"/>
<path fill-rule="evenodd" clip-rule="evenodd" d="M1 1H31V16C31 20.1421 29.3211 23.8921 26.6066 26.6066L1 1Z" fill="white"/>
<path d="M15.6794 19.3333H13.4394L11.8877 16.7433H11.7127H10.7444V19.3333H8.72607V11.1667H11.8994C13.0661 11.1667 13.9294 11.3961 14.4894 11.855C15.0494 12.3139 15.3294 12.9595 15.3294 13.7917C15.3294 14.4217 15.1933 14.9506 14.9211 15.3783C14.6566 15.7983 14.2833 16.1172 13.8011 16.335L15.6794 19.3333ZM10.7444 12.8933V15.0167H11.8411C12.2533 15.0167 12.5761 14.9233 12.8094 14.7367C13.0505 14.5422 13.1711 14.2622 13.1711 13.8967C13.1711 13.5622 13.0622 13.3133 12.8444 13.15C12.6266 12.9789 12.2805 12.8933 11.8061 12.8933H10.7444Z" fill="black"/>
<path d="M19.8458 17.595H23.5091V19.3333H17.2908V17.6767L19.6474 15.7633C20.013 15.46 20.2891 15.2189 20.4758 15.04C20.6624 14.8611 20.8063 14.6783 20.9074 14.4917C21.0163 14.305 21.0708 14.0989 21.0708 13.8733C21.0708 13.5233 20.9347 13.2589 20.6624 13.08C20.398 12.9011 20.0597 12.8117 19.6474 12.8117C19.3363 12.8117 19.0291 12.8583 18.7258 12.9517C18.4224 13.0372 18.1502 13.1539 17.9091 13.3017L17.2558 11.8083C17.6291 11.5672 18.0452 11.3767 18.5041 11.2367C18.9708 11.0967 19.4685 11.0267 19.9974 11.0267C20.9774 11.0267 21.7669 11.2328 22.3658 11.645C22.9647 12.0494 23.2641 12.6483 23.2641 13.4417C23.2641 13.9861 23.1085 14.4839 22.7974 14.935C22.4941 15.3783 22.0235 15.8567 21.3858 16.37L19.8458 17.595Z" fill="black"/>
</svg>
