<svg width="32" height="32" viewBox="0 0 32 32" fill="none" xmlns="http://www.w3.org/2000/svg">
<path d="M0 8C0 7.36882 0.511675 6.85715 1.14286 6.85715H30.8571C31.4883 6.85715 32 7.36882 32 8V20.5714C32 23.0962 29.9533 25.1429 27.4286 25.1429H4.57143C2.0467 25.1429 0 23.0962 0 20.5714V8Z" fill="white"/>
<path d="M17.7143 12.5714C17.7143 12.887 17.4584 13.1429 17.1428 13.1429C16.8272 13.1429 16.5714 12.887 16.5714 12.5714C16.5714 12.2558 16.8272 12 17.1428 12C17.4584 12 17.7143 12.2558 17.7143 12.5714Z" fill="#DCDEDF"/>
<path d="M17.7143 14.8571C17.7143 15.1727 17.4584 15.4286 17.1428 15.4286C16.8272 15.4286 16.5714 15.1727 16.5714 14.8571C16.5714 14.5416 16.8272 14.2857 17.1428 14.2857C17.4584 14.2857 17.7143 14.5416 17.7143 14.8571Z" fill="#DCDEDF"/>
<path d="M17.7143 17.1429C17.7143 17.4584 17.4584 17.7143 17.1428 17.7143C16.8272 17.7143 16.5714 17.4584 16.5714 17.1429C16.5714 16.8273 16.8272 16.5714 17.1428 16.5714C17.4584 16.5714 17.7143 16.8273 17.7143 17.1429Z" fill="#DCDEDF"/>
<path d="M17.7143 19.4286C17.7143 19.7442 17.4584 20 17.1428 20C16.8272 20 16.5714 19.7442 16.5714 19.4286C16.5714 19.113 16.8272 18.8571 17.1428 18.8571C17.4584 18.8571 17.7143 19.113 17.7143 19.4286Z" fill="#DCDEDF"/>
<path d="M17.7143 21.7143C17.7143 22.0299 17.4584 22.2857 17.1428 22.2857C16.8272 22.2857 16.5714 22.0299 16.5714 21.7143C16.5714 21.3987 16.8272 21.1429 17.1428 21.1429C17.4584 21.1429 17.7143 21.3987 17.7143 21.7143Z" fill="#DCDEDF"/>
<path d="M20 12.5714C20 12.887 19.7442 13.1429 19.4286 13.1429C19.113 13.1429 18.8572 12.887 18.8572 12.5714C18.8572 12.2558 19.113 12 19.4286 12C19.7442 12 20 12.2558 20 12.5714Z" fill="#DCDEDF"/>
<path d="M22.2857 12.5714C22.2857 12.887 22.0298 13.1429 21.7143 13.1429C21.3987 13.1429 21.1428 12.887 21.1428 12.5714C21.1428 12.2558 21.3987 12 21.7143 12C22.0298 12 22.2857 12.2558 22.2857 12.5714Z" fill="#DCDEDF"/>
<path d="M24.5714 12.5714C24.5714 12.887 24.3156 13.1429 24 13.1429C23.6844 13.1429 23.4286 12.887 23.4286 12.5714C23.4286 12.2558 23.6844 12 24 12C24.3156 12 24.5714 12.2558 24.5714 12.5714Z" fill="#DCDEDF"/>
<path d="M26.8571 12.5714C26.8571 12.887 26.6013 13.1429 26.2857 13.1429C25.9701 13.1429 25.7142 12.887 25.7142 12.5714C25.7142 12.2558 25.9701 12 26.2857 12C26.6013 12 26.8571 12.2558 26.8571 12.5714Z" fill="#DCDEDF"/>
<path d="M29.1429 12.5714C29.1429 12.887 28.887 13.1429 28.5714 13.1429C28.2558 13.1429 28 12.887 28 12.5714C28 12.2558 28.2558 12 28.5714 12C28.887 12 29.1429 12.2558 29.1429 12.5714Z" fill="#DCDEDF"/>
<path d="M20 14.8571C20 15.1727 19.7442 15.4286 19.4286 15.4286C19.113 15.4286 18.8572 15.1727 18.8572 14.8571C18.8572 14.5416 19.113 14.2857 19.4286 14.2857C19.7442 14.2857 20 14.5416 20 14.8571Z" fill="#DCDEDF"/>
<path d="M22.2857 14.8571C22.2857 15.1727 22.0298 15.4286 21.7143 15.4286C21.3987 15.4286 21.1428 15.1727 21.1428 14.8571C21.1428 14.5416 21.3987 14.2857 21.7143 14.2857C22.0298 14.2857 22.2857 14.5416 22.2857 14.8571Z" fill="#DCDEDF"/>
<path d="M24.5714 14.8571C24.5714 15.1727 24.3156 15.4286 24 15.4286C23.6844 15.4286 23.4286 15.1727 23.4286 14.8571C23.4286 14.5416 23.6844 14.2857 24 14.2857C24.3156 14.2857 24.5714 14.5416 24.5714 14.8571Z" fill="#DCDEDF"/>
<path d="M26.8571 14.8571C26.8571 15.1727 26.6013 15.4286 26.2857 15.4286C25.9701 15.4286 25.7142 15.1727 25.7142 14.8571C25.7142 14.5416 25.9701 14.2857 26.2857 14.2857C26.6013 14.2857 26.8571 14.5416 26.8571 14.8571Z" fill="#DCDEDF"/>
<path d="M29.1429 14.8571C29.1429 15.1727 28.887 15.4286 28.5714 15.4286C28.2558 15.4286 28 15.1727 28 14.8571C28 14.5416 28.2558 14.2857 28.5714 14.2857C28.887 14.2857 29.1429 14.5416 29.1429 14.8571Z" fill="#DCDEDF"/>
<path d="M20 17.1429C20 17.4584 19.7442 17.7143 19.4286 17.7143C19.113 17.7143 18.8572 17.4584 18.8572 17.1429C18.8572 16.8273 19.113 16.5714 19.4286 16.5714C19.7442 16.5714 20 16.8273 20 17.1429Z" fill="#DCDEDF"/>
<path d="M20 19.4286C20 19.7442 19.7442 20 19.4286 20C19.113 20 18.8572 19.7442 18.8572 19.4286C18.8572 19.113 19.113 18.8571 19.4286 18.8571C19.7442 18.8571 20 19.113 20 19.4286Z" fill="#DCDEDF"/>
<path d="M20 21.7143C20 22.0299 19.7442 22.2857 19.4286 22.2857C19.113 22.2857 18.8572 22.0299 18.8572 21.7143C18.8572 21.3987 19.113 21.1429 19.4286 21.1429C19.7442 21.1429 20 21.3987 20 21.7143Z" fill="#DCDEDF"/>
<path d="M22.2857 17.1429C22.2857 17.4584 22.0298 17.7143 21.7143 17.7143C21.3987 17.7143 21.1428 17.4584 21.1428 17.1429C21.1428 16.8273 21.3987 16.5714 21.7143 16.5714C22.0298 16.5714 22.2857 16.8273 22.2857 17.1429Z" fill="#DCDEDF"/>
<path d="M22.2857 19.4286C22.2857 19.7442 22.0298 20 21.7143 20C21.3987 20 21.1428 19.7442 21.1428 19.4286C21.1428 19.113 21.3987 18.8571 21.7143 18.8571C22.0298 18.8571 22.2857 19.113 22.2857 19.4286Z" fill="#DCDEDF"/>
<path d="M22.2857 21.7143C22.2857 22.0299 22.0298 22.2857 21.7143 22.2857C21.3987 22.2857 21.1428 22.0299 21.1428 21.7143C21.1428 21.3987 21.3987 21.1429 21.7143 21.1429C22.0298 21.1429 22.2857 21.3987 22.2857 21.7143Z" fill="#DCDEDF"/>
<path d="M24.5714 17.1429C24.5714 17.4584 24.3156 17.7143 24 17.7143C23.6844 17.7143 23.4286 17.4584 23.4286 17.1429C23.4286 16.8273 23.6844 16.5714 24 16.5714C24.3156 16.5714 24.5714 16.8273 24.5714 17.1429Z" fill="#DCDEDF"/>
<path d="M24.5714 19.4286C24.5714 19.7442 24.3156 20 24 20C23.6844 20 23.4286 19.7442 23.4286 19.4286C23.4286 19.113 23.6844 18.8571 24 18.8571C24.3156 18.8571 24.5714 19.113 24.5714 19.4286Z" fill="#DCDEDF"/>
<path d="M24.5714 21.7143C24.5714 22.0299 24.3156 22.2857 24 22.2857C23.6844 22.2857 23.4286 22.0299 23.4286 21.7143C23.4286 21.3987 23.6844 21.1429 24 21.1429C24.3156 21.1429 24.5714 21.3987 24.5714 21.7143Z" fill="#DCDEDF"/>
<path d="M26.8571 17.1429C26.8571 17.4584 26.6013 17.7143 26.2857 17.7143C25.9701 17.7143 25.7142 17.4584 25.7142 17.1429C25.7142 16.8273 25.9701 16.5714 26.2857 16.5714C26.6013 16.5714 26.8571 16.8273 26.8571 17.1429Z" fill="#DCDEDF"/>
<path d="M26.8571 19.4286C26.8571 19.7442 26.6013 20 26.2857 20C25.9701 20 25.7142 19.7442 25.7142 19.4286C25.7142 19.113 25.9701 18.8571 26.2857 18.8571C26.6013 18.8571 26.8571 19.113 26.8571 19.4286Z" fill="#DCDEDF"/>
<path d="M26.8571 21.7143C26.8571 22.0299 26.6013 22.2857 26.2857 22.2857C25.9701 22.2857 25.7142 22.0299 25.7142 21.7143C25.7142 21.3987 25.9701 21.1429 26.2857 21.1429C26.6013 21.1429 26.8571 21.3987 26.8571 21.7143Z" fill="#DCDEDF"/>
<path d="M29.1429 17.1429C29.1429 17.4584 28.887 17.7143 28.5714 17.7143C28.2558 17.7143 28 17.4584 28 17.1429C28 16.8273 28.2558 16.5714 28.5714 16.5714C28.887 16.5714 29.1429 16.8273 29.1429 17.1429Z" fill="#DCDEDF"/>
<path d="M29.1429 19.4286C29.1429 19.7442 28.887 20 28.5714 20C28.2558 20 28 19.7442 28 19.4286C28 19.113 28.2558 18.8571 28.5714 18.8571C28.887 18.8571 29.1429 19.113 29.1429 19.4286Z" fill="#DCDEDF"/>
<path d="M29.1429 21.7143C29.1429 22.0299 28.887 22.2857 28.5714 22.2857C28.2558 22.2857 28 22.0299 28 21.7143C28 21.3987 28.2558 21.1429 28.5714 21.1429C28.887 21.1429 29.1429 21.3987 29.1429 21.7143Z" fill="#DCDEDF"/>
<path fill-rule="evenodd" clip-rule="evenodd" d="M8.00004 12C5.7909 12 4.00003 13.7909 4.00003 16C4.00003 18.2091 5.7909 20 8.00004 20C10.2092 20 12 18.2091 12 16C12 13.7909 10.2092 12 8.00004 12ZM2.85718 16C2.85718 13.1597 5.15971 10.8571 8.00004 10.8571C10.8404 10.8571 13.1429 13.1597 13.1429 16C13.1429 18.8403 10.8404 21.1429 8.00004 21.1429C5.15971 21.1429 2.85718 18.8403 2.85718 16Z" fill="black"/>
<path fill-rule="evenodd" clip-rule="evenodd" d="M8.00002 10C4.68631 10 2.00002 12.6863 2.00002 16C2.00002 19.3137 4.68631 22 8.00002 22C11.3137 22 14 19.3137 14 16C14 12.6863 11.3137 10 8.00002 10ZM1.42859 16C1.42859 12.3707 4.37072 9.42857 8.00002 9.42857C11.6293 9.42857 14.5714 12.3707 14.5714 16C14.5714 19.6293 11.6293 22.5714 8.00002 22.5714C4.37072 22.5714 1.42859 19.6293 1.42859 16Z" fill="black"/>
<path d="M9.53682 17.7143H6.73682V13.7143H7.72539V16.8229H9.53682V17.7143Z" fill="black"/>
</svg>
