<svg width="32" height="32" viewBox="0 0 32 32" fill="none" xmlns="http://www.w3.org/2000/svg">
<path fill-rule="evenodd" clip-rule="evenodd" d="M10.1965 6.85718L16 14L21.8035 6.85718H31C31.5523 6.85718 32 7.30489 32 7.85718V21.1429C32 23.352 30.2091 25.1429 28 25.1429H4C1.79086 25.1429 0 23.352 0 21.1429V7.85718C0 7.30489 0.447715 6.85718 1 6.85718H10.1965Z" fill="#0E141B"/>
<rect width="1" height="2" transform="matrix(-1 0 0 1 16.5 15.5)" fill="white"/>
<rect width="1" height="2" transform="matrix(-0.707107 -0.707107 -0.707107 0.707107 14.6213 15.2072)" fill="white"/>
<rect width="1" height="2" transform="matrix(-0.707107 0.707107 0.707107 0.707107 18.0857 14.5)" fill="white"/>
<path fill-rule="evenodd" clip-rule="evenodd" d="M11.125 8H4.57139C2.67784 8 1.14282 9.53502 1.14282 11.4286V20.5714C1.14282 22.465 2.67785 24 4.57139 24H27.4285C29.3221 24 30.8571 22.465 30.8571 20.5714V11.4286C30.8571 9.53502 29.3221 8 27.4285 8H20.875L19.9464 9.14286H27.4285C28.6909 9.14286 29.7142 10.1662 29.7142 11.4286V20.5714C29.7142 21.8338 28.6909 22.8571 27.4285 22.8571H4.57139C3.30903 22.8571 2.28568 21.8338 2.28568 20.5714V11.4286C2.28568 10.1662 3.30903 9.14286 4.57139 9.14286H12.0536L11.125 8Z" fill="white"/>
<mask id="path-6-inside-1_1967_14309" fill="white">
<path fill-rule="evenodd" clip-rule="evenodd" d="M18.5 1H13.5V5H9.5L16 13L22.5 5H18.5V1Z"/>
</mask>
<path fill-rule="evenodd" clip-rule="evenodd" d="M18.5 1H13.5V5H9.5L16 13L22.5 5H18.5V1Z" fill="white"/>
<path d="M13.5 1V0H12.5V1H13.5ZM18.5 1H19.5V0H18.5V1ZM13.5 5V6H14.5V5H13.5ZM9.5 5V4H7.39902L8.72389 5.63059L9.5 5ZM16 13L15.2239 13.6306L16 14.5858L16.7761 13.6306L16 13ZM22.5 5L23.2761 5.63059L24.601 4H22.5V5ZM18.5 5H17.5V6H18.5V5ZM13.5 2H18.5V0H13.5V2ZM14.5 5V1H12.5V5H14.5ZM13.5 4H9.5V6H13.5V4ZM8.72389 5.63059L15.2239 13.6306L16.7761 12.3694L10.2761 4.36941L8.72389 5.63059ZM16.7761 13.6306L23.2761 5.63059L21.7239 4.36941L15.2239 12.3694L16.7761 13.6306ZM22.5 4H18.5V6H22.5V4ZM17.5 1V5H19.5V1H17.5Z" fill="#0E141B" mask="url(#path-6-inside-1_1967_14309)"/>
</svg>
