<svg width="64" height="64" viewBox="0 0 64 64" fill="none" xmlns="http://www.w3.org/2000/svg">
<g clip-path="url(#clip0_1967:19691)">
<path d="M9.83374 17.2766H51.7388C53.4591 17.2766 54.8537 18.6712 54.8537 20.3915V51.5404C54.8537 58.4217 49.2753 64 42.3941 64H9.83374V17.2766Z" fill="white"/>
<path d="M35.8724 31.8777C35.8724 32.6841 35.2186 33.3378 34.4123 33.3378C33.6059 33.3378 32.9521 32.6841 32.9521 31.8777C32.9521 31.0713 33.6059 30.4176 34.4123 30.4176C35.2186 30.4176 35.8724 31.0713 35.8724 31.8777Z" fill="#DCDEDF"/>
<path d="M30.0319 31.8777C30.0319 32.6841 29.3782 33.3378 28.5718 33.3378C27.7654 33.3378 27.1117 32.6841 27.1117 31.8777C27.1117 31.0713 27.7654 30.4176 28.5718 30.4176C29.3782 30.4176 30.0319 31.0713 30.0319 31.8777Z" fill="#DCDEDF"/>
<path d="M24.1913 31.8777C24.1913 32.6841 23.5376 33.3378 22.7312 33.3378C21.9248 33.3378 21.2711 32.6841 21.2711 31.8777C21.2711 31.0713 21.9248 30.4176 22.7312 30.4176C23.5376 30.4176 24.1913 31.0713 24.1913 31.8777Z" fill="#DCDEDF"/>
<path d="M18.3512 31.8777C18.3512 32.6841 17.6975 33.3378 16.8911 33.3378C16.0847 33.3378 15.431 32.6841 15.431 31.8777C15.431 31.0713 16.0847 30.4176 16.8911 30.4176C17.6975 30.4176 18.3512 31.0713 18.3512 31.8777Z" fill="#DCDEDF"/>
<path d="M41.7124 31.8777C41.7124 32.6841 41.0587 33.3378 40.2523 33.3378C39.4459 33.3378 38.7922 32.6841 38.7922 31.8777C38.7922 31.0713 39.4459 30.4176 40.2523 30.4176C41.0587 30.4176 41.7124 31.0713 41.7124 31.8777Z" fill="#DCDEDF"/>
<path d="M47.5534 31.8777C47.5534 32.6841 46.8997 33.3378 46.0933 33.3378C45.2869 33.3378 44.6332 32.6841 44.6332 31.8777C44.6332 31.0713 45.2869 30.4176 46.0933 30.4176C46.8997 30.4176 47.5534 31.0713 47.5534 31.8777Z" fill="#DCDEDF"/>
<path d="M35.8724 37.7179C35.8724 38.5243 35.2186 39.178 34.4123 39.178C33.6059 39.178 32.9521 38.5243 32.9521 37.7179C32.9521 36.9115 33.6059 36.2578 34.4123 36.2578C35.2186 36.2578 35.8724 36.9115 35.8724 37.7179Z" fill="#DCDEDF"/>
<path d="M30.0319 37.7179C30.0319 38.5243 29.3782 39.178 28.5718 39.178C27.7654 39.178 27.1117 38.5243 27.1117 37.7179C27.1117 36.9115 27.7654 36.2578 28.5718 36.2578C29.3782 36.2578 30.0319 36.9115 30.0319 37.7179Z" fill="#DCDEDF"/>
<path d="M24.1913 37.7179C24.1913 38.5243 23.5376 39.178 22.7312 39.178C21.9248 39.178 21.2711 38.5243 21.2711 37.7179C21.2711 36.9115 21.9248 36.2578 22.7312 36.2578C23.5376 36.2578 24.1913 36.9115 24.1913 37.7179Z" fill="#DCDEDF"/>
<path d="M18.3512 37.7179C18.3512 38.5243 17.6975 39.178 16.8911 39.178C16.0847 39.178 15.431 38.5243 15.431 37.7179C15.431 36.9115 16.0847 36.2578 16.8911 36.2578C17.6975 36.2578 18.3512 36.9115 18.3512 37.7179Z" fill="#DCDEDF"/>
<path d="M41.7124 37.7179C41.7124 38.5243 41.0587 39.178 40.2523 39.178C39.4459 39.178 38.7922 38.5243 38.7922 37.7179C38.7922 36.9115 39.4459 36.2578 40.2523 36.2578C41.0587 36.2578 41.7124 36.9115 41.7124 37.7179Z" fill="#DCDEDF"/>
<path d="M47.5534 37.7179C47.5534 38.5243 46.8997 39.178 46.0933 39.178C45.2869 39.178 44.6332 38.5243 44.6332 37.7179C44.6332 36.9115 45.2869 36.2578 46.0933 36.2578C46.8997 36.2578 47.5534 36.9115 47.5534 37.7179Z" fill="#DCDEDF"/>
<path d="M35.8724 43.5584C35.8724 44.3648 35.2186 45.0185 34.4123 45.0185C33.6059 45.0185 32.9521 44.3648 32.9521 43.5584C32.9521 42.752 33.6059 42.0983 34.4123 42.0983C35.2186 42.0983 35.8724 42.752 35.8724 43.5584Z" fill="#DCDEDF"/>
<path d="M30.0319 43.5584C30.0319 44.3648 29.3782 45.0185 28.5718 45.0185C27.7654 45.0185 27.1117 44.3648 27.1117 43.5584C27.1117 42.752 27.7654 42.0983 28.5718 42.0983C29.3782 42.0983 30.0319 42.752 30.0319 43.5584Z" fill="#DCDEDF"/>
<path d="M24.1913 43.5584C24.1913 44.3648 23.5376 45.0185 22.7312 45.0185C21.9248 45.0185 21.2711 44.3648 21.2711 43.5584C21.2711 42.752 21.9248 42.0983 22.7312 42.0983C23.5376 42.0983 24.1913 42.752 24.1913 43.5584Z" fill="#DCDEDF"/>
<path d="M18.3512 43.5584C18.3512 44.3648 17.6975 45.0185 16.8911 45.0185C16.0847 45.0185 15.431 44.3648 15.431 43.5584C15.431 42.752 16.0847 42.0983 16.8911 42.0983C17.6975 42.0983 18.3512 42.752 18.3512 43.5584Z" fill="#DCDEDF"/>
<path d="M35.8724 49.3989C35.8724 50.2053 35.2186 50.859 34.4123 50.859C33.6059 50.859 32.9521 50.2053 32.9521 49.3989C32.9521 48.5925 33.6059 47.9388 34.4123 47.9388C35.2186 47.9388 35.8724 48.5925 35.8724 49.3989Z" fill="#DCDEDF"/>
<path d="M30.0319 49.3989C30.0319 50.2053 29.3782 50.859 28.5718 50.859C27.7654 50.859 27.1117 50.2053 27.1117 49.3989C27.1117 48.5925 27.7654 47.9388 28.5718 47.9388C29.3782 47.9388 30.0319 48.5925 30.0319 49.3989Z" fill="#DCDEDF"/>
<path d="M24.1913 49.3989C24.1913 50.2053 23.5376 50.859 22.7312 50.859C21.9248 50.859 21.2711 50.2053 21.2711 49.3989C21.2711 48.5925 21.9248 47.9388 22.7312 47.9388C23.5376 47.9388 24.1913 48.5925 24.1913 49.3989Z" fill="#DCDEDF"/>
<path d="M18.3512 49.3989C18.3512 50.2053 17.6975 50.859 16.8911 50.859C16.0847 50.859 15.431 50.2053 15.431 49.3989C15.431 48.5925 16.0847 47.9388 16.8911 47.9388C17.6975 47.9388 18.3512 48.5925 18.3512 49.3989Z" fill="#DCDEDF"/>
<path d="M35.8724 55.2394C35.8724 56.0458 35.2186 56.6995 34.4123 56.6995C33.6059 56.6995 32.9521 56.0458 32.9521 55.2394C32.9521 54.433 33.6059 53.7793 34.4123 53.7793C35.2186 53.7793 35.8724 54.433 35.8724 55.2394Z" fill="#DCDEDF"/>
<path d="M30.0319 55.2394C30.0319 56.0458 29.3782 56.6995 28.5718 56.6995C27.7654 56.6995 27.1117 56.0458 27.1117 55.2394C27.1117 54.433 27.7654 53.7793 28.5718 53.7793C29.3782 53.7793 30.0319 54.433 30.0319 55.2394Z" fill="#DCDEDF"/>
<path d="M24.1913 55.2394C24.1913 56.0458 23.5376 56.6995 22.7312 56.6995C21.9248 56.6995 21.2711 56.0458 21.2711 55.2394C21.2711 54.433 21.9248 53.7793 22.7312 53.7793C23.5376 53.7793 24.1913 54.433 24.1913 55.2394Z" fill="#DCDEDF"/>
<path d="M18.3512 55.2394C18.3512 56.0458 17.6975 56.6995 16.8911 56.6995C16.0847 56.6995 15.431 56.0458 15.431 55.2394C15.431 54.433 16.0847 53.7793 16.8911 53.7793C17.6975 53.7793 18.3512 54.433 18.3512 55.2394Z" fill="#DCDEDF"/>
<path d="M41.7124 43.5584C41.7124 44.3648 41.0587 45.0185 40.2523 45.0185C39.4459 45.0185 38.7922 44.3648 38.7922 43.5584C38.7922 42.752 39.4459 42.0983 40.2523 42.0983C41.0587 42.0983 41.7124 42.752 41.7124 43.5584Z" fill="#DCDEDF"/>
<path d="M41.7124 49.3989C41.7124 50.2053 41.0587 50.859 40.2523 50.859C39.4459 50.859 38.7922 50.2053 38.7922 49.3989C38.7922 48.5925 39.4459 47.9388 40.2523 47.9388C41.0587 47.9388 41.7124 48.5925 41.7124 49.3989Z" fill="#DCDEDF"/>
<path d="M41.7124 55.2394C41.7124 56.0458 41.0587 56.6995 40.2523 56.6995C39.4459 56.6995 38.7922 56.0458 38.7922 55.2394C38.7922 54.433 39.4459 53.7793 40.2523 53.7793C41.0587 53.7793 41.7124 54.433 41.7124 55.2394Z" fill="#DCDEDF"/>
<path d="M47.5534 43.5584C47.5534 44.3648 46.8997 45.0185 46.0933 45.0185C45.2869 45.0185 44.6332 44.3648 44.6332 43.5584C44.6332 42.752 45.2869 42.0983 46.0933 42.0983C46.8997 42.0983 47.5534 42.752 47.5534 43.5584Z" fill="#DCDEDF"/>
<path d="M47.5534 49.3989C47.5534 50.2053 46.8997 50.859 46.0933 50.859C45.2869 50.859 44.6332 50.2053 44.6332 49.3989C44.6332 48.5925 45.2869 47.9388 46.0933 47.9388C46.8997 47.9388 47.5534 48.5925 47.5534 49.3989Z" fill="#DCDEDF"/>
<path d="M47.5534 55.2394C47.5534 56.0458 46.8997 56.6995 46.0933 56.6995C45.2869 56.6995 44.6332 56.0458 44.6332 55.2394C44.6332 54.433 45.2869 53.7793 46.0933 53.7793C46.8997 53.7793 47.5534 54.433 47.5534 55.2394Z" fill="#DCDEDF"/>
<path d="M24.4228 11.2405L22.5863 13.383L25.4082 13.383L40.9827 13.383L43.8045 13.383L41.9681 11.2405L34.1809 2.15536L33.1954 1.00571L32.21 2.15536L24.4228 11.2405Z" fill="black" stroke="white" stroke-width="2.59574"/>
</g>
<defs>
<clipPath id="clip0_1967:19691">
<rect width="64" height="64" fill="white"/>
</clipPath>
</defs>
</svg>
