<svg width="32" height="32" viewBox="0 0 32 32" fill="none" xmlns="http://www.w3.org/2000/svg">
<path d="M6 22C2.68629 22 0 19.3137 0 16C0 12.6863 2.68629 10 6 10H26C29.3137 10 32 12.6863 32 16C32 19.3137 29.3137 22 26 22H6Z" fill="white"/>
<path d="M5.02893 14.0565C5.37726 14.0565 5.69993 14.1298 5.99693 14.2765C6.29393 14.4195 6.5341 14.6413 6.71743 14.942C6.90076 15.239 6.99243 15.6093 6.99243 16.053C6.99243 16.4967 6.90076 16.8725 6.71743 17.1805C6.5341 17.4848 6.2921 17.714 5.99143 17.868C5.69443 18.0183 5.3736 18.0935 5.02893 18.0935C4.68426 18.0935 4.3616 18.0183 4.06093 17.868C3.76393 17.714 3.52376 17.4848 3.34043 17.1805C3.1571 16.8725 3.06543 16.4967 3.06543 16.053C3.06543 15.6093 3.1571 15.239 3.34043 14.942C3.52376 14.6413 3.76393 14.4195 4.06093 14.2765C4.35793 14.1298 4.6806 14.0565 5.02893 14.0565ZM5.02893 14.9365C4.74293 14.9365 4.51376 15.0318 4.34143 15.2225C4.1691 15.4132 4.08293 15.6918 4.08293 16.0585C4.08293 16.4288 4.1691 16.7148 4.34143 16.9165C4.51376 17.1145 4.7411 17.2135 5.02343 17.2135C5.30576 17.2135 5.5331 17.1145 5.70543 16.9165C5.88143 16.7148 5.96943 16.4288 5.96943 16.0585C5.96943 15.6918 5.88326 15.4132 5.71093 15.2225C5.5386 15.0318 5.31126 14.9365 5.02893 14.9365Z" fill="black"/>
<path d="M7.83613 18V14.15H9.26063C9.7593 14.15 10.1406 14.2637 10.4046 14.491C10.6723 14.7147 10.8061 15.019 10.8061 15.404C10.8061 15.6607 10.7475 15.8953 10.6301 16.108C10.5128 16.317 10.3368 16.4838 10.1021 16.6085C9.86746 16.7332 9.58513 16.7955 9.25513 16.7955H8.78763V18H7.83613ZM9.24413 15.9815C9.41646 15.9815 9.5503 15.9338 9.64563 15.8385C9.74096 15.7432 9.78863 15.613 9.78863 15.448C9.78863 15.2867 9.74096 15.1657 9.64563 15.085C9.5503 15.0043 9.4128 14.964 9.23313 14.964H8.78763V15.9815H9.24413Z" fill="black"/>
<path d="M13.3817 18H12.4302V14.964H11.3082V14.15H14.5037V14.964H13.3817V18Z" fill="black"/>
<path d="M15.2487 14.15H16.2002V18H15.2487V14.15Z" fill="black"/>
<path d="M19.0055 14.0565C19.3538 14.0565 19.6765 14.1298 19.9735 14.2765C20.2705 14.4195 20.5107 14.6413 20.694 14.942C20.8773 15.239 20.969 15.6093 20.969 16.053C20.969 16.4967 20.8773 16.8725 20.694 17.1805C20.5107 17.4848 20.2687 17.714 19.968 17.868C19.671 18.0183 19.3502 18.0935 19.0055 18.0935C18.6608 18.0935 18.3382 18.0183 18.0375 17.868C17.7405 17.714 17.5003 17.4848 17.317 17.1805C17.1337 16.8725 17.042 16.4967 17.042 16.053C17.042 15.6093 17.1337 15.239 17.317 14.942C17.5003 14.6413 17.7405 14.4195 18.0375 14.2765C18.3345 14.1298 18.6572 14.0565 19.0055 14.0565ZM19.0055 14.9365C18.7195 14.9365 18.4903 15.0318 18.318 15.2225C18.1457 15.4132 18.0595 15.6918 18.0595 16.0585C18.0595 16.4288 18.1457 16.7148 18.318 16.9165C18.4903 17.1145 18.7177 17.2135 19 17.2135C19.2823 17.2135 19.5097 17.1145 19.682 16.9165C19.858 16.7148 19.946 16.4288 19.946 16.0585C19.946 15.6918 19.8598 15.4132 19.6875 15.2225C19.5152 15.0318 19.2878 14.9365 19.0055 14.9365Z" fill="black"/>
<path d="M24.2492 16.372V14.15H25.2172V18H24.4197L22.7642 15.811V18H21.8127V14.15H22.6157L24.2492 16.372Z" fill="black"/>
<path d="M27.573 14.0565C27.8407 14.0565 28.09 14.095 28.321 14.172C28.552 14.2453 28.7427 14.337 28.893 14.447L28.4915 15.1565C28.3595 15.0612 28.2092 14.9842 28.0405 14.9255C27.8755 14.8668 27.7215 14.8375 27.5785 14.8375C27.4282 14.8375 27.3109 14.8687 27.2265 14.931C27.1422 14.9897 27.1 15.0703 27.1 15.173C27.1 15.283 27.1532 15.371 27.2595 15.437C27.3695 15.4993 27.54 15.569 27.771 15.646C28.024 15.734 28.2275 15.8165 28.3815 15.8935C28.5392 15.9705 28.6767 16.086 28.794 16.24C28.9114 16.3903 28.97 16.5865 28.97 16.8285C28.97 17.0852 28.9022 17.307 28.7665 17.494C28.6345 17.681 28.4494 17.824 28.211 17.923C27.9764 18.0183 27.7069 18.066 27.4025 18.066C27.1569 18.066 26.9094 18.0348 26.66 17.9725C26.4144 17.9102 26.1962 17.8222 26.0055 17.7085L26.2915 16.9165C26.6949 17.1255 27.0707 17.23 27.419 17.23C27.5914 17.23 27.7215 17.197 27.8095 17.131C27.8975 17.065 27.9415 16.9788 27.9415 16.8725C27.9415 16.7662 27.892 16.6837 27.793 16.625C27.694 16.5627 27.54 16.5003 27.331 16.438C27.0597 16.3537 26.8434 16.2748 26.682 16.2015C26.5207 16.1245 26.3814 16.009 26.264 15.855C26.1467 15.6973 26.088 15.4902 26.088 15.2335C26.088 14.9915 26.1504 14.7825 26.275 14.6065C26.3997 14.4268 26.5739 14.2912 26.7975 14.1995C27.0212 14.1042 27.2797 14.0565 27.573 14.0565Z" fill="black"/>
</svg>
