<svg width="64" height="64" viewBox="0 0 64 64" fill="none" xmlns="http://www.w3.org/2000/svg">
<path d="M0 16C0 14.7376 1.02335 13.7143 2.28571 13.7143H61.7143C62.9767 13.7143 64 14.7376 64 16V41.1429C64 46.1923 59.9066 50.2857 54.8571 50.2857H9.14286C4.0934 50.2857 0 46.1923 0 41.1429V16Z" fill="white"/>
<circle cx="6.85709" cy="25.1429" r="0.571429" fill="#B8BCBF" stroke="#DCDEDF" stroke-width="1.14286"/>
<circle cx="6.85709" cy="29.7143" r="0.571429" fill="#B8BCBF" stroke="#DCDEDF" stroke-width="1.14286"/>
<circle cx="6.85709" cy="34.2857" r="0.571429" fill="#B8BCBF" stroke="#DCDEDF" stroke-width="1.14286"/>
<circle cx="6.85709" cy="38.8571" r="0.571429" fill="#B8BCBF" stroke="#DCDEDF" stroke-width="1.14286"/>
<circle cx="6.85709" cy="43.4286" r="0.571429" fill="#B8BCBF" stroke="#DCDEDF" stroke-width="1.14286"/>
<circle cx="11.4286" cy="25.1429" r="0.571429" fill="#B8BCBF" stroke="#DCDEDF" stroke-width="1.14286"/>
<circle cx="11.4286" cy="29.7143" r="0.571429" fill="#B8BCBF" stroke="#DCDEDF" stroke-width="1.14286"/>
<circle cx="11.4286" cy="34.2857" r="0.571429" fill="#B8BCBF" stroke="#DCDEDF" stroke-width="1.14286"/>
<circle cx="11.4286" cy="38.8571" r="0.571429" fill="#B8BCBF" stroke="#DCDEDF" stroke-width="1.14286"/>
<circle cx="11.4286" cy="43.4286" r="0.571429" fill="#B8BCBF" stroke="#DCDEDF" stroke-width="1.14286"/>
<circle cx="16" cy="25.1429" r="0.571429" fill="#B8BCBF" stroke="#DCDEDF" stroke-width="1.14286"/>
<circle cx="48" cy="25.1429" r="0.571429" fill="#B8BCBF" stroke="#DCDEDF" stroke-width="1.14286"/>
<circle cx="52.5714" cy="25.1429" r="0.571429" fill="#B8BCBF" stroke="#DCDEDF" stroke-width="1.14286"/>
<circle cx="57.1429" cy="25.1429" r="0.571429" fill="#B8BCBF" stroke="#DCDEDF" stroke-width="1.14286"/>
<circle cx="16" cy="29.7143" r="0.571429" fill="#B8BCBF" stroke="#DCDEDF" stroke-width="1.14286"/>
<circle cx="48" cy="29.7143" r="0.571429" fill="#B8BCBF" stroke="#DCDEDF" stroke-width="1.14286"/>
<circle cx="52.5714" cy="29.7143" r="0.571429" fill="#B8BCBF" stroke="#DCDEDF" stroke-width="1.14286"/>
<circle cx="57.1429" cy="29.7143" r="0.571429" fill="#B8BCBF" stroke="#DCDEDF" stroke-width="1.14286"/>
<circle cx="16" cy="34.2857" r="0.571429" fill="#B8BCBF" stroke="#DCDEDF" stroke-width="1.14286"/>
<circle cx="16" cy="38.8571" r="0.571429" fill="#B8BCBF" stroke="#DCDEDF" stroke-width="1.14286"/>
<circle cx="16" cy="43.4286" r="0.571429" fill="#B8BCBF" stroke="#DCDEDF" stroke-width="1.14286"/>
<circle cx="48" cy="34.2857" r="0.571429" fill="#B8BCBF" stroke="#DCDEDF" stroke-width="1.14286"/>
<circle cx="48" cy="38.8571" r="0.571429" fill="#B8BCBF" stroke="#DCDEDF" stroke-width="1.14286"/>
<circle cx="48" cy="43.4286" r="0.571429" fill="#B8BCBF" stroke="#DCDEDF" stroke-width="1.14286"/>
<circle cx="52.5714" cy="34.2857" r="0.571429" fill="#B8BCBF" stroke="#DCDEDF" stroke-width="1.14286"/>
<circle cx="52.5714" cy="38.8571" r="0.571429" fill="#B8BCBF" stroke="#DCDEDF" stroke-width="1.14286"/>
<circle cx="52.5714" cy="43.4286" r="0.571429" fill="#B8BCBF" stroke="#DCDEDF" stroke-width="1.14286"/>
<circle cx="57.1429" cy="34.2857" r="0.571429" fill="#B8BCBF" stroke="#DCDEDF" stroke-width="1.14286"/>
<circle cx="57.1429" cy="38.8571" r="0.571429" fill="#B8BCBF" stroke="#DCDEDF" stroke-width="1.14286"/>
<circle cx="57.1429" cy="43.4286" r="0.571429" fill="#B8BCBF" stroke="#DCDEDF" stroke-width="1.14286"/>
<circle cx="32" cy="32" r="9.14286" stroke="black" stroke-width="2.28571"/>
<circle cx="32" cy="32" r="12.5714" stroke="black" stroke-width="1.14286"/>
</svg>
