<svg width="64" height="64" viewBox="0 0 64 64" fill="none" xmlns="http://www.w3.org/2000/svg">
<g clip-path="url(#clip0_1967:15042)">
<path d="M64 16.9194C64 15.6571 62.9767 14.6337 61.7143 14.6337H2.28571C1.02334 14.6337 0 15.6571 0 16.9194V42.0623C0 47.1118 4.0934 51.2052 9.14285 51.2052H54.8571C59.9066 51.2052 64 47.1118 64 42.0623V16.9194Z" fill="white"/>
<path d="M56.0001 26.0623C56.0001 26.6935 56.5117 27.2052 57.1429 27.2052C57.7741 27.2052 58.2858 26.6935 58.2858 26.0623C58.2858 25.4311 57.7741 24.9194 57.1429 24.9194C56.5117 24.9194 56.0001 25.4311 56.0001 26.0623Z" fill="#DCDEDF"/>
<path d="M56.0001 30.6337C56.0001 31.2649 56.5117 31.7766 57.1429 31.7766C57.7741 31.7766 58.2858 31.2649 58.2858 30.6337C58.2858 30.0025 57.7741 29.4909 57.1429 29.4909C56.5117 29.4909 56.0001 30.0025 56.0001 30.6337Z" fill="#DCDEDF"/>
<path d="M56.0001 35.2052C56.0001 35.8363 56.5117 36.348 57.1429 36.348C57.7741 36.348 58.2858 35.8363 58.2858 35.2052C58.2858 34.574 57.7741 34.0623 57.1429 34.0623C56.5117 34.0623 56.0001 34.574 56.0001 35.2052Z" fill="#DCDEDF"/>
<path d="M42.2857 35.2052C42.2857 35.8363 42.7974 36.348 43.4286 36.348C44.0597 36.348 44.5714 35.8363 44.5714 35.2052C44.5714 34.574 44.0597 34.0623 43.4286 34.0623C42.7974 34.0623 42.2857 34.574 42.2857 35.2052Z" fill="#DCDEDF"/>
<path d="M28.5715 35.2052C28.5715 35.8363 29.0831 36.348 29.7143 36.348C30.3455 36.348 30.8572 35.8363 30.8572 35.2052C30.8572 34.574 30.3455 34.0623 29.7143 34.0623C29.0831 34.0623 28.5715 34.574 28.5715 35.2052Z" fill="#DCDEDF"/>
<path d="M56.0001 39.7766C56.0001 40.4078 56.5117 40.9194 57.1429 40.9194C57.7741 40.9194 58.2858 40.4078 58.2858 39.7766C58.2858 39.1454 57.7741 38.6337 57.1429 38.6337C56.5117 38.6337 56.0001 39.1454 56.0001 39.7766Z" fill="#DCDEDF"/>
<path d="M42.2857 39.7766C42.2857 40.4078 42.7974 40.9194 43.4286 40.9194C44.0597 40.9194 44.5714 40.4078 44.5714 39.7766C44.5714 39.1454 44.0597 38.6337 43.4286 38.6337C42.7974 38.6337 42.2857 39.1454 42.2857 39.7766Z" fill="#DCDEDF"/>
<path d="M28.5715 39.7766C28.5715 40.4078 29.0831 40.9194 29.7143 40.9194C30.3455 40.9194 30.8572 40.4078 30.8572 39.7766C30.8572 39.1454 30.3455 38.6337 29.7143 38.6337C29.0831 38.6337 28.5715 39.1454 28.5715 39.7766Z" fill="#DCDEDF"/>
<path d="M56.0001 44.348C56.0001 44.9792 56.5117 45.4909 57.1429 45.4909C57.7741 45.4909 58.2858 44.9792 58.2858 44.348C58.2858 43.7168 57.7741 43.2052 57.1429 43.2052C56.5117 43.2052 56.0001 43.7168 56.0001 44.348Z" fill="#DCDEDF"/>
<path d="M42.2857 44.348C42.2857 44.9792 42.7974 45.4909 43.4286 45.4909C44.0597 45.4909 44.5714 44.9792 44.5714 44.348C44.5714 43.7168 44.0597 43.2052 43.4286 43.2052C42.7974 43.2052 42.2857 43.7168 42.2857 44.348Z" fill="#DCDEDF"/>
<path d="M28.5715 44.348C28.5715 44.9792 29.0831 45.4909 29.7143 45.4909C30.3455 45.4909 30.8572 44.9792 30.8572 44.348C30.8572 43.7168 30.3455 43.2052 29.7143 43.2052C29.0831 43.2052 28.5715 43.7168 28.5715 44.348Z" fill="#DCDEDF"/>
<path d="M51.4285 26.0623C51.4285 26.6935 51.9402 27.2052 52.5714 27.2052C53.2026 27.2052 53.7142 26.6935 53.7142 26.0623C53.7142 25.4311 53.2026 24.9194 52.5714 24.9194C51.9402 24.9194 51.4285 25.4311 51.4285 26.0623Z" fill="#DCDEDF"/>
<path d="M46.8571 26.0623C46.8571 26.6935 47.3688 27.2052 48 27.2052C48.6311 27.2052 49.1428 26.6935 49.1428 26.0623C49.1428 25.4311 48.6311 24.9194 48 24.9194C47.3688 24.9194 46.8571 25.4311 46.8571 26.0623Z" fill="#DCDEDF"/>
<path d="M14.8571 26.0623C14.8571 26.6935 15.3688 27.2052 16 27.2052C16.6311 27.2052 17.1428 26.6935 17.1428 26.0623C17.1428 25.4311 16.6311 24.9194 16 24.9194C15.3688 24.9194 14.8571 25.4311 14.8571 26.0623Z" fill="#DCDEDF"/>
<path d="M10.2857 26.0623C10.2857 26.6935 10.7974 27.2052 11.4286 27.2052C12.0597 27.2052 12.5714 26.6935 12.5714 26.0623C12.5714 25.4311 12.0597 24.9194 11.4286 24.9194C10.7974 24.9194 10.2857 25.4311 10.2857 26.0623Z" fill="#DCDEDF"/>
<path d="M5.71429 26.0623C5.71429 26.6935 6.22596 27.2052 6.85714 27.2052C7.48833 27.2052 8 26.6935 8 26.0623C8 25.4311 7.48833 24.9194 6.85714 24.9194C6.22596 24.9194 5.71429 25.4311 5.71429 26.0623Z" fill="#DCDEDF"/>
<path d="M51.4285 30.6337C51.4285 31.2649 51.9402 31.7766 52.5714 31.7766C53.2026 31.7766 53.7142 31.2649 53.7142 30.6337C53.7142 30.0025 53.2026 29.4909 52.5714 29.4909C51.9402 29.4909 51.4285 30.0025 51.4285 30.6337Z" fill="#DCDEDF"/>
<path d="M46.8571 30.6337C46.8571 31.2649 47.3688 31.7766 48 31.7766C48.6311 31.7766 49.1428 31.2649 49.1428 30.6337C49.1428 30.0025 48.6311 29.4909 48 29.4909C47.3688 29.4909 46.8571 30.0025 46.8571 30.6337Z" fill="#DCDEDF"/>
<path d="M42.2857 30.6337C42.2857 31.2649 42.7974 31.7766 43.4286 31.7766C44.0597 31.7766 44.5714 31.2649 44.5714 30.6337C44.5714 30.0025 44.0597 29.4909 43.4286 29.4909C42.7974 29.4909 42.2857 30.0025 42.2857 30.6337Z" fill="#DCDEDF"/>
<path d="M14.8571 30.6337C14.8571 31.2649 15.3688 31.7766 16 31.7766C16.6311 31.7766 17.1428 31.2649 17.1428 30.6337C17.1428 30.0025 16.6311 29.4909 16 29.4909C15.3688 29.4909 14.8571 30.0025 14.8571 30.6337Z" fill="#DCDEDF"/>
<path d="M19.4285 30.6337C19.4285 31.2649 19.9402 31.7766 20.5714 31.7766C21.2026 31.7766 21.7142 31.2649 21.7142 30.6337C21.7142 30.0025 21.2026 29.4909 20.5714 29.4909C19.9402 29.4909 19.4285 30.0025 19.4285 30.6337Z" fill="#DCDEDF"/>
<path d="M10.2857 30.6337C10.2857 31.2649 10.7974 31.7766 11.4286 31.7766C12.0597 31.7766 12.5714 31.2649 12.5714 30.6337C12.5714 30.0025 12.0597 29.4909 11.4286 29.4909C10.7974 29.4909 10.2857 30.0025 10.2857 30.6337Z" fill="#DCDEDF"/>
<path d="M5.71429 30.6337C5.71429 31.2649 6.22596 31.7766 6.85714 31.7766C7.48833 31.7766 8 31.2649 8 30.6337C8 30.0025 7.48833 29.4909 6.85714 29.4909C6.22596 29.4909 5.71429 30.0025 5.71429 30.6337Z" fill="#DCDEDF"/>
<path d="M51.4285 35.2052C51.4285 35.8363 51.9402 36.348 52.5714 36.348C53.2026 36.348 53.7142 35.8363 53.7142 35.2052C53.7142 34.574 53.2026 34.0623 52.5714 34.0623C51.9402 34.0623 51.4285 34.574 51.4285 35.2052Z" fill="#DCDEDF"/>
<path d="M37.7143 35.2052C37.7143 35.8363 38.226 36.348 38.8571 36.348C39.4883 36.348 40 35.8363 40 35.2052C40 34.574 39.4883 34.0623 38.8571 34.0623C38.226 34.0623 37.7143 34.574 37.7143 35.2052Z" fill="#DCDEDF"/>
<path d="M24.0001 35.2052C24.0001 35.8363 24.5117 36.348 25.1429 36.348C25.7741 36.348 26.2858 35.8363 26.2858 35.2052C26.2858 34.574 25.7741 34.0623 25.1429 34.0623C24.5117 34.0623 24.0001 34.574 24.0001 35.2052Z" fill="#DCDEDF"/>
<path d="M51.4285 39.7766C51.4285 40.4078 51.9402 40.9194 52.5714 40.9194C53.2026 40.9194 53.7142 40.4078 53.7142 39.7766C53.7142 39.1454 53.2026 38.6337 52.5714 38.6337C51.9402 38.6337 51.4285 39.1454 51.4285 39.7766Z" fill="#DCDEDF"/>
<path d="M37.7143 39.7766C37.7143 40.4078 38.226 40.9194 38.8571 40.9194C39.4883 40.9194 40 40.4078 40 39.7766C40 39.1454 39.4883 38.6337 38.8571 38.6337C38.226 38.6337 37.7143 39.1454 37.7143 39.7766Z" fill="#DCDEDF"/>
<path d="M24.0001 39.7766C24.0001 40.4078 24.5117 40.9194 25.1429 40.9194C25.7741 40.9194 26.2858 40.4078 26.2858 39.7766C26.2858 39.1454 25.7741 38.6337 25.1429 38.6337C24.5117 38.6337 24.0001 39.1454 24.0001 39.7766Z" fill="#DCDEDF"/>
<path d="M51.4285 44.348C51.4285 44.9792 51.9402 45.4909 52.5714 45.4909C53.2026 45.4909 53.7142 44.9792 53.7142 44.348C53.7142 43.7168 53.2026 43.2052 52.5714 43.2052C51.9402 43.2052 51.4285 43.7168 51.4285 44.348Z" fill="#DCDEDF"/>
<path d="M37.7143 44.348C37.7143 44.9792 38.226 45.4909 38.8571 45.4909C39.4883 45.4909 40 44.9792 40 44.348C40 43.7168 39.4883 43.2052 38.8571 43.2052C38.226 43.2052 37.7143 43.7168 37.7143 44.348Z" fill="#DCDEDF"/>
<path d="M24.0001 44.348C24.0001 44.9792 24.5117 45.4909 25.1429 45.4909C25.7741 45.4909 26.2858 44.9792 26.2858 44.348C26.2858 43.7168 25.7741 43.2052 25.1429 43.2052C24.5117 43.2052 24.0001 43.7168 24.0001 44.348Z" fill="#DCDEDF"/>
<path d="M46.8571 35.2052C46.8571 35.8363 47.3688 36.348 48 36.348C48.6311 36.348 49.1428 35.8363 49.1428 35.2052C49.1428 34.574 48.6311 34.0623 48 34.0623C47.3688 34.0623 46.8571 34.574 46.8571 35.2052Z" fill="#DCDEDF"/>
<path d="M33.1429 35.2052C33.1429 35.8363 33.6545 36.348 34.2857 36.348C34.9169 36.348 35.4286 35.8363 35.4286 35.2052C35.4286 34.574 34.9169 34.0623 34.2857 34.0623C33.6545 34.0623 33.1429 34.574 33.1429 35.2052Z" fill="#DCDEDF"/>
<path d="M19.4285 35.2052C19.4285 35.8363 19.9402 36.348 20.5714 36.348C21.2026 36.348 21.7142 35.8363 21.7142 35.2052C21.7142 34.574 21.2026 34.0623 20.5714 34.0623C19.9402 34.0623 19.4285 34.574 19.4285 35.2052Z" fill="#DCDEDF"/>
<path d="M46.8571 39.7766C46.8571 40.4078 47.3688 40.9194 48 40.9194C48.6311 40.9194 49.1428 40.4078 49.1428 39.7766C49.1428 39.1454 48.6311 38.6337 48 38.6337C47.3688 38.6337 46.8571 39.1454 46.8571 39.7766Z" fill="#DCDEDF"/>
<path d="M33.1429 39.7766C33.1429 40.4078 33.6545 40.9194 34.2857 40.9194C34.9169 40.9194 35.4286 40.4078 35.4286 39.7766C35.4286 39.1454 34.9169 38.6337 34.2857 38.6337C33.6545 38.6337 33.1429 39.1454 33.1429 39.7766Z" fill="#DCDEDF"/>
<path d="M19.4285 39.7766C19.4285 40.4078 19.9402 40.9194 20.5714 40.9194C21.2026 40.9194 21.7142 40.4078 21.7142 39.7766C21.7142 39.1454 21.2026 38.6337 20.5714 38.6337C19.9402 38.6337 19.4285 39.1454 19.4285 39.7766Z" fill="#DCDEDF"/>
<path d="M46.8571 44.348C46.8571 44.9792 47.3688 45.4909 48 45.4909C48.6311 45.4909 49.1428 44.9792 49.1428 44.348C49.1428 43.7168 48.6311 43.2052 48 43.2052C47.3688 43.2052 46.8571 43.7168 46.8571 44.348Z" fill="#DCDEDF"/>
<path d="M33.1429 44.348C33.1429 44.9792 33.6545 45.4909 34.2857 45.4909C34.9169 45.4909 35.4286 44.9792 35.4286 44.348C35.4286 43.7168 34.9169 43.2052 34.2857 43.2052C33.6545 43.2052 33.1429 43.7168 33.1429 44.348Z" fill="#DCDEDF"/>
<path d="M19.4285 44.348C19.4285 44.9792 19.9402 45.4909 20.5714 45.4909C21.2026 45.4909 21.7142 44.9792 21.7142 44.348C21.7142 43.7168 21.2026 43.2052 20.5714 43.2052C19.9402 43.2052 19.4285 43.7168 19.4285 44.348Z" fill="#DCDEDF"/>
<path d="M14.8571 35.2052C14.8571 35.8363 15.3688 36.348 16 36.348C16.6311 36.348 17.1428 35.8363 17.1428 35.2052C17.1428 34.574 16.6311 34.0623 16 34.0623C15.3688 34.0623 14.8571 34.574 14.8571 35.2052Z" fill="#DCDEDF"/>
<path d="M14.8571 39.7766C14.8571 40.4078 15.3688 40.9194 16 40.9194C16.6311 40.9194 17.1428 40.4078 17.1428 39.7766C17.1428 39.1454 16.6311 38.6337 16 38.6337C15.3688 38.6337 14.8571 39.1454 14.8571 39.7766Z" fill="#DCDEDF"/>
<path d="M14.8571 44.348C14.8571 44.9792 15.3688 45.4909 16 45.4909C16.6311 45.4909 17.1428 44.9792 17.1428 44.348C17.1428 43.7168 16.6311 43.2052 16 43.2052C15.3688 43.2052 14.8571 43.7168 14.8571 44.348Z" fill="#DCDEDF"/>
<path d="M10.2857 35.2052C10.2857 35.8363 10.7974 36.348 11.4286 36.348C12.0597 36.348 12.5714 35.8363 12.5714 35.2052C12.5714 34.574 12.0597 34.0623 11.4286 34.0623C10.7974 34.0623 10.2857 34.574 10.2857 35.2052Z" fill="#DCDEDF"/>
<path d="M10.2857 39.7766C10.2857 40.4078 10.7974 40.9194 11.4286 40.9194C12.0597 40.9194 12.5714 40.4078 12.5714 39.7766C12.5714 39.1454 12.0597 38.6337 11.4286 38.6337C10.7974 38.6337 10.2857 39.1454 10.2857 39.7766Z" fill="#DCDEDF"/>
<path d="M10.2857 44.348C10.2857 44.9792 10.7974 45.4909 11.4286 45.4909C12.0597 45.4909 12.5714 44.9792 12.5714 44.348C12.5714 43.7168 12.0597 43.2052 11.4286 43.2052C10.7974 43.2052 10.2857 43.7168 10.2857 44.348Z" fill="#DCDEDF"/>
<path d="M5.71429 35.2052C5.71429 35.8363 6.22596 36.348 6.85714 36.348C7.48833 36.348 8 35.8363 8 35.2052C8 34.574 7.48833 34.0623 6.85714 34.0623C6.22596 34.0623 5.71429 34.574 5.71429 35.2052Z" fill="#DCDEDF"/>
<path d="M5.71429 39.7766C5.71429 40.4078 6.22596 40.9194 6.85714 40.9194C7.48833 40.9194 8 40.4078 8 39.7766C8 39.1454 7.48833 38.6337 6.85714 38.6337C6.22596 38.6337 5.71429 39.1454 5.71429 39.7766Z" fill="#DCDEDF"/>
<path d="M5.71429 44.348C5.71429 44.9792 6.22596 45.4909 6.85714 45.4909C7.48833 45.4909 8 44.9792 8 44.348C8 43.7168 7.48833 43.2052 6.85714 43.2052C6.22596 43.2052 5.71429 43.7168 5.71429 44.348Z" fill="#DCDEDF"/>
<path d="M39.9912 18.5271L34.4275 12.7926V26.0623H29.5725V12.7926L24.0087 18.5271L20.5714 14.9843L32 3.20515L43.4286 14.9843L39.9912 18.5271Z" fill="black"/>
<path fill-rule="evenodd" clip-rule="evenodd" d="M39.9913 21.8096L46.6133 14.9843L32 -0.0772953L17.3867 14.9843L24.0088 21.8096L27.2868 18.4309V28.348L36.7132 28.348V18.4309L39.9913 21.8096ZM34.4275 12.7926V26.0623H29.5726V12.7926L24.0088 18.5271L20.5715 14.9843L32 3.20515L43.4286 14.9843L39.9913 18.5271L34.4275 12.7926Z" fill="white"/>
</g>
<defs>
<clipPath id="clip0_1967:15042">
<rect width="64" height="64" fill="white"/>
</clipPath>
</defs>
</svg>
