<svg width="64" height="64" viewBox="0 0 64 64" fill="none" xmlns="http://www.w3.org/2000/svg">
<path d="M54.7928 15.3754H12.2463C10.5679 15.3754 9.20724 16.736 9.20724 18.4144V51.8438C9.20724 58.5575 14.6497 64 21.3634 64H54.7928V15.3754Z" fill="white"/>
<path d="M47.1951 30.5705C47.1951 31.4097 47.8754 32.0901 48.7146 32.0901C49.5538 32.0901 50.2341 31.4097 50.2341 30.5705C50.2341 29.7313 49.5538 29.051 48.7146 29.051C47.8754 29.051 47.1951 29.7313 47.1951 30.5705Z" fill="#DCDEDF"/>
<path d="M47.1951 36.6487C47.1951 37.4879 47.8754 38.1682 48.7146 38.1682C49.5538 38.1682 50.2341 37.4879 50.2341 36.6487C50.2341 35.8095 49.5538 35.1292 48.7146 35.1292C47.8754 35.1292 47.1951 35.8095 47.1951 36.6487Z" fill="#DCDEDF"/>
<path d="M41.1172 36.6487C41.1172 37.4879 41.7975 38.1682 42.6367 38.1682C43.4759 38.1682 44.1562 37.4879 44.1562 36.6487C44.1562 35.8095 43.4759 35.1292 42.6367 35.1292C41.7975 35.1292 41.1172 35.8095 41.1172 36.6487Z" fill="#DCDEDF"/>
<path d="M47.1951 42.7267C47.1951 43.566 47.8754 44.2463 48.7146 44.2463C49.5538 44.2463 50.2341 43.566 50.2341 42.7267C50.2341 41.8875 49.5538 41.2072 48.7146 41.2072C47.8754 41.2072 47.1951 41.8875 47.1951 42.7267Z" fill="#DCDEDF"/>
<path d="M47.1951 48.8048C47.1951 49.644 47.8754 50.3243 48.7146 50.3243C49.5538 50.3243 50.2341 49.644 50.2341 48.8048C50.2341 47.9656 49.5538 47.2853 48.7146 47.2853C47.8754 47.2853 47.1951 47.9656 47.1951 48.8048Z" fill="#DCDEDF"/>
<path d="M47.1951 54.8829C47.1951 55.7221 47.8754 56.4024 48.7146 56.4024C49.5538 56.4024 50.2341 55.7221 50.2341 54.8829C50.2341 54.0437 49.5538 53.3634 48.7146 53.3634C47.8754 53.3634 47.1951 54.0437 47.1951 54.8829Z" fill="#DCDEDF"/>
<path d="M16.8047 30.5705C16.8047 31.4097 17.485 32.0901 18.3242 32.0901C19.1634 32.0901 19.8438 31.4097 19.8438 30.5705C19.8438 29.7313 19.1634 29.051 18.3242 29.051C17.485 29.051 16.8047 29.7313 16.8047 30.5705Z" fill="#DCDEDF"/>
<path d="M16.8047 36.6487C16.8047 37.4879 17.485 38.1682 18.3242 38.1682C19.1634 38.1682 19.8438 37.4879 19.8438 36.6487C19.8438 35.8095 19.1634 35.1292 18.3242 35.1292C17.485 35.1292 16.8047 35.8095 16.8047 36.6487Z" fill="#DCDEDF"/>
<path d="M41.1172 42.7267C41.1172 43.566 41.7975 44.2463 42.6367 44.2463C43.4759 44.2463 44.1562 43.566 44.1562 42.7267C44.1562 41.8875 43.4759 41.2072 42.6367 41.2072C41.7975 41.2072 41.1172 41.8875 41.1172 42.7267Z" fill="#DCDEDF"/>
<path d="M41.1172 48.8048C41.1172 49.644 41.7975 50.3243 42.6367 50.3243C43.4759 50.3243 44.1562 49.644 44.1562 48.8048C44.1562 47.9656 43.4759 47.2853 42.6367 47.2853C41.7975 47.2853 41.1172 47.9656 41.1172 48.8048Z" fill="#DCDEDF"/>
<path d="M41.1172 54.8829C41.1172 55.7221 41.7975 56.4024 42.6367 56.4024C43.4759 56.4024 44.1562 55.7221 44.1562 54.8829C44.1562 54.0437 43.4759 53.3634 42.6367 53.3634C41.7975 53.3634 41.1172 54.0437 41.1172 54.8829Z" fill="#DCDEDF"/>
<path d="M35.0388 42.7267C35.0388 43.566 35.7192 44.2463 36.5584 44.2463C37.3976 44.2463 38.0779 43.566 38.0779 42.7267C38.0779 41.8875 37.3976 41.2072 36.5584 41.2072C35.7192 41.2072 35.0388 41.8875 35.0388 42.7267Z" fill="#DCDEDF"/>
<path d="M35.0388 48.8048C35.0388 49.644 35.7192 50.3243 36.5584 50.3243C37.3976 50.3243 38.0779 49.644 38.0779 48.8048C38.0779 47.9656 37.3976 47.2853 36.5584 47.2853C35.7192 47.2853 35.0388 47.9656 35.0388 48.8048Z" fill="#DCDEDF"/>
<path d="M35.0388 54.8829C35.0388 55.7221 35.7192 56.4024 36.5584 56.4024C37.3976 56.4024 38.0779 55.7221 38.0779 54.8829C38.0779 54.0437 37.3976 53.3634 36.5584 53.3634C35.7192 53.3634 35.0388 54.0437 35.0388 54.8829Z" fill="#DCDEDF"/>
<path d="M28.961 42.7267C28.961 43.566 29.6413 44.2463 30.4805 44.2463C31.3197 44.2463 32 43.566 32 42.7267C32 41.8875 31.3197 41.2072 30.4805 41.2072C29.6413 41.2072 28.961 41.8875 28.961 42.7267Z" fill="#DCDEDF"/>
<path d="M28.961 48.8048C28.961 49.644 29.6413 50.3243 30.4805 50.3243C31.3197 50.3243 32 49.644 32 48.8048C32 47.9656 31.3197 47.2853 30.4805 47.2853C29.6413 47.2853 28.961 47.9656 28.961 48.8048Z" fill="#DCDEDF"/>
<path d="M28.961 54.8829C28.961 55.7221 29.6413 56.4024 30.4805 56.4024C31.3197 56.4024 32 55.7221 32 54.8829C32 54.0437 31.3197 53.3634 30.4805 53.3634C29.6413 53.3634 28.961 54.0437 28.961 54.8829Z" fill="#DCDEDF"/>
<path d="M22.8831 42.7267C22.8831 43.566 23.5634 44.2463 24.4026 44.2463C25.2418 44.2463 25.9221 43.566 25.9221 42.7267C25.9221 41.8875 25.2418 41.2072 24.4026 41.2072C23.5634 41.2072 22.8831 41.8875 22.8831 42.7267Z" fill="#DCDEDF"/>
<path d="M22.8831 48.8048C22.8831 49.644 23.5634 50.3243 24.4026 50.3243C25.2418 50.3243 25.9221 49.644 25.9221 48.8048C25.9221 47.9656 25.2418 47.2853 24.4026 47.2853C23.5634 47.2853 22.8831 47.9656 22.8831 48.8048Z" fill="#DCDEDF"/>
<path d="M22.8831 54.8829C22.8831 55.7221 23.5634 56.4024 24.4026 56.4024C25.2418 56.4024 25.9221 55.7221 25.9221 54.8829C25.9221 54.0437 25.2418 53.3634 24.4026 53.3634C23.5634 53.3634 22.8831 54.0437 22.8831 54.8829Z" fill="#DCDEDF"/>
<path d="M16.8047 42.7267C16.8047 43.566 17.485 44.2463 18.3242 44.2463C19.1634 44.2463 19.8438 43.566 19.8438 42.7267C19.8438 41.8875 19.1634 41.2072 18.3242 41.2072C17.485 41.2072 16.8047 41.8875 16.8047 42.7267Z" fill="#DCDEDF"/>
<path d="M16.8047 48.8048C16.8047 49.644 17.485 50.3243 18.3242 50.3243C19.1634 50.3243 19.8438 49.644 19.8438 48.8048C19.8438 47.9656 19.1634 47.2853 18.3242 47.2853C17.485 47.2853 16.8047 47.9656 16.8047 48.8048Z" fill="#DCDEDF"/>
<path d="M16.8047 54.8829C16.8047 55.7221 17.485 56.4024 18.3242 56.4024C19.1634 56.4024 19.8438 55.7221 19.8438 54.8829C19.8438 54.0437 19.1634 53.3634 18.3242 53.3634C17.485 53.3634 16.8047 54.0437 16.8047 54.8829Z" fill="#DCDEDF"/>
<path d="M40.8541 23.7412L34.6896 17.3875V32.0901H29.3103V17.3875L23.1458 23.7412L19.3373 19.8159L31.9999 6.76475L44.6626 19.8159L40.8541 23.7412Z" fill="black"/>
<path fill-rule="evenodd" clip-rule="evenodd" d="M40.8542 27.3781L48.1913 19.8159L32 3.12785L15.8087 19.8159L23.1458 27.3781L26.7779 23.6346V34.6226H37.2222V23.6346L40.8542 27.3781ZM34.6896 17.3875V32.0901H29.3104V17.3875L23.1458 23.7412L19.3374 19.8159L32 6.76475L44.6627 19.8159L40.8542 23.7412L34.6896 17.3875Z" fill="white"/>
</svg>
