<svg width="64" height="64" viewBox="0 0 64 64" fill="none" xmlns="http://www.w3.org/2000/svg">
<path d="M64 17.0647C64 15.8863 63.0447 14.9311 61.8664 14.9311H6.39232C5.21395 14.9311 4.2587 15.8863 4.2587 17.0647V40.5345C4.2587 45.2479 8.07971 49.0689 12.7932 49.0689H55.4655C60.179 49.0689 64 45.2479 64 40.5345V17.0647Z" fill="white"/>
<path d="M56.5324 25.5991C56.5324 26.1883 57.01 26.666 57.5992 26.666C58.1884 26.666 58.666 26.1883 58.666 25.5991C58.666 25.01 58.1884 24.5323 57.5992 24.5323C57.01 24.5323 56.5324 25.01 56.5324 25.5991Z" fill="#DCDEDF"/>
<path d="M56.5324 29.8664C56.5324 30.4556 57.01 30.9332 57.5992 30.9332C58.1884 30.9332 58.666 30.4556 58.666 29.8664C58.666 29.2772 58.1884 28.7996 57.5992 28.7996C57.01 28.7996 56.5324 29.2772 56.5324 29.8664Z" fill="#DCDEDF"/>
<path d="M56.5324 34.1336C56.5324 34.7228 57.01 35.2004 57.5992 35.2004C58.1884 35.2004 58.666 34.7228 58.666 34.1336C58.666 33.5444 58.1884 33.0668 57.5992 33.0668C57.01 33.0668 56.5324 33.5444 56.5324 34.1336Z" fill="#DCDEDF"/>
<path d="M56.5324 38.4009C56.5324 38.99 57.01 39.4677 57.5992 39.4677C58.1884 39.4677 58.666 38.99 58.666 38.4009C58.666 37.8117 58.1884 37.334 57.5992 37.334C57.01 37.334 56.5324 37.8117 56.5324 38.4009Z" fill="#DCDEDF"/>
<path d="M56.5324 42.6681C56.5324 43.2573 57.01 43.7349 57.5992 43.7349C58.1884 43.7349 58.666 43.2573 58.666 42.6681C58.666 42.0789 58.1884 41.6013 57.5992 41.6013C57.01 41.6013 56.5324 42.0789 56.5324 42.6681Z" fill="#DCDEDF"/>
<path d="M52.2651 25.5991C52.2651 26.1883 52.7427 26.666 53.3319 26.666C53.9211 26.666 54.3987 26.1883 54.3987 25.5991C54.3987 25.01 53.9211 24.5323 53.3319 24.5323C52.7427 24.5323 52.2651 25.01 52.2651 25.5991Z" fill="#DCDEDF"/>
<path d="M47.9979 25.5991C47.9979 26.1883 48.4755 26.666 49.0647 26.666C49.6538 26.666 50.1315 26.1883 50.1315 25.5991C50.1315 25.01 49.6538 24.5323 49.0647 24.5323C48.4755 24.5323 47.9979 25.01 47.9979 25.5991Z" fill="#DCDEDF"/>
<path d="M43.7306 25.5991C43.7306 26.1883 44.2083 26.666 44.7974 26.666C45.3866 26.666 45.8643 26.1883 45.8643 25.5991C45.8643 25.01 45.3866 24.5323 44.7974 24.5323C44.2083 24.5323 43.7306 25.01 43.7306 25.5991Z" fill="#DCDEDF"/>
<path d="M39.4634 25.5991C39.4634 26.1883 39.9411 26.666 40.5302 26.666C41.1194 26.666 41.597 26.1883 41.597 25.5991C41.597 25.01 41.1194 24.5323 40.5302 24.5323C39.9411 24.5323 39.4634 25.01 39.4634 25.5991Z" fill="#DCDEDF"/>
<path d="M35.1962 25.5991C35.1962 26.1883 35.6738 26.666 36.263 26.666C36.8522 26.666 37.3298 26.1883 37.3298 25.5991C37.3298 25.01 36.8522 24.5323 36.263 24.5323C35.6738 24.5323 35.1962 25.01 35.1962 25.5991Z" fill="#DCDEDF"/>
<path d="M52.2651 29.8664C52.2651 30.4556 52.7427 30.9332 53.3319 30.9332C53.9211 30.9332 54.3987 30.4556 54.3987 29.8664C54.3987 29.2772 53.9211 28.7996 53.3319 28.7996C52.7427 28.7996 52.2651 29.2772 52.2651 29.8664Z" fill="#DCDEDF"/>
<path d="M47.9979 29.8664C47.9979 30.4556 48.4755 30.9332 49.0647 30.9332C49.6538 30.9332 50.1315 30.4556 50.1315 29.8664C50.1315 29.2772 49.6538 28.7996 49.0647 28.7996C48.4755 28.7996 47.9979 29.2772 47.9979 29.8664Z" fill="#DCDEDF"/>
<path d="M43.7306 29.8664C43.7306 30.4556 44.2083 30.9332 44.7974 30.9332C45.3866 30.9332 45.8643 30.4556 45.8643 29.8664C45.8643 29.2772 45.3866 28.7996 44.7974 28.7996C44.2083 28.7996 43.7306 29.2772 43.7306 29.8664Z" fill="#DCDEDF"/>
<path d="M39.4634 29.8664C39.4634 30.4556 39.9411 30.9332 40.5302 30.9332C41.1194 30.9332 41.597 30.4556 41.597 29.8664C41.597 29.2772 41.1194 28.7996 40.5302 28.7996C39.9411 28.7996 39.4634 29.2772 39.4634 29.8664Z" fill="#DCDEDF"/>
<path d="M35.1962 29.8664C35.1962 30.4556 35.6738 30.9332 36.263 30.9332C36.8522 30.9332 37.3298 30.4556 37.3298 29.8664C37.3298 29.2772 36.8522 28.7996 36.263 28.7996C35.6738 28.7996 35.1962 29.2772 35.1962 29.8664Z" fill="#DCDEDF"/>
<path d="M52.2651 34.1336C52.2651 34.7228 52.7427 35.2004 53.3319 35.2004C53.9211 35.2004 54.3987 34.7228 54.3987 34.1336C54.3987 33.5444 53.9211 33.0668 53.3319 33.0668C52.7427 33.0668 52.2651 33.5444 52.2651 34.1336Z" fill="#DCDEDF"/>
<path d="M52.2651 38.4009C52.2651 38.99 52.7427 39.4677 53.3319 39.4677C53.9211 39.4677 54.3987 38.99 54.3987 38.4009C54.3987 37.8117 53.9211 37.334 53.3319 37.334C52.7427 37.334 52.2651 37.8117 52.2651 38.4009Z" fill="#DCDEDF"/>
<path d="M52.2651 42.6681C52.2651 43.2573 52.7427 43.7349 53.3319 43.7349C53.9211 43.7349 54.3987 43.2573 54.3987 42.6681C54.3987 42.0789 53.9211 41.6013 53.3319 41.6013C52.7427 41.6013 52.2651 42.0789 52.2651 42.6681Z" fill="#DCDEDF"/>
<path d="M47.9979 34.1336C47.9979 34.7228 48.4755 35.2004 49.0647 35.2004C49.6538 35.2004 50.1315 34.7228 50.1315 34.1336C50.1315 33.5444 49.6538 33.0668 49.0647 33.0668C48.4755 33.0668 47.9979 33.5444 47.9979 34.1336Z" fill="#DCDEDF"/>
<path d="M47.9979 38.4009C47.9979 38.99 48.4755 39.4677 49.0647 39.4677C49.6538 39.4677 50.1315 38.99 50.1315 38.4009C50.1315 37.8117 49.6538 37.334 49.0647 37.334C48.4755 37.334 47.9979 37.8117 47.9979 38.4009Z" fill="#DCDEDF"/>
<path d="M47.9979 42.6681C47.9979 43.2573 48.4755 43.7349 49.0647 43.7349C49.6538 43.7349 50.1315 43.2573 50.1315 42.6681C50.1315 42.0789 49.6538 41.6013 49.0647 41.6013C48.4755 41.6013 47.9979 42.0789 47.9979 42.6681Z" fill="#DCDEDF"/>
<path d="M43.7306 34.1336C43.7306 34.7228 44.2083 35.2004 44.7974 35.2004C45.3866 35.2004 45.8643 34.7228 45.8643 34.1336C45.8643 33.5444 45.3866 33.0668 44.7974 33.0668C44.2083 33.0668 43.7306 33.5444 43.7306 34.1336Z" fill="#DCDEDF"/>
<path d="M43.7306 38.4009C43.7306 38.99 44.2083 39.4677 44.7974 39.4677C45.3866 39.4677 45.8643 38.99 45.8643 38.4009C45.8643 37.8117 45.3866 37.334 44.7974 37.334C44.2083 37.334 43.7306 37.8117 43.7306 38.4009Z" fill="#DCDEDF"/>
<path d="M43.7306 42.6681C43.7306 43.2573 44.2083 43.7349 44.7974 43.7349C45.3866 43.7349 45.8643 43.2573 45.8643 42.6681C45.8643 42.0789 45.3866 41.6013 44.7974 41.6013C44.2083 41.6013 43.7306 42.0789 43.7306 42.6681Z" fill="#DCDEDF"/>
<path d="M39.4634 34.1336C39.4634 34.7228 39.9411 35.2004 40.5302 35.2004C41.1194 35.2004 41.597 34.7228 41.597 34.1336C41.597 33.5444 41.1194 33.0668 40.5302 33.0668C39.9411 33.0668 39.4634 33.5444 39.4634 34.1336Z" fill="#DCDEDF"/>
<path d="M39.4634 38.4009C39.4634 38.99 39.9411 39.4677 40.5302 39.4677C41.1194 39.4677 41.597 38.99 41.597 38.4009C41.597 37.8117 41.1194 37.334 40.5302 37.334C39.9411 37.334 39.4634 37.8117 39.4634 38.4009Z" fill="#DCDEDF"/>
<path d="M30.9289 38.4009C30.9289 38.99 31.4065 39.4677 31.9957 39.4677C32.5849 39.4677 33.0625 38.99 33.0625 38.4009C33.0625 37.8117 32.5849 37.334 31.9957 37.334C31.4065 37.334 30.9289 37.8117 30.9289 38.4009Z" fill="#DCDEDF"/>
<path d="M39.4634 42.6681C39.4634 43.2573 39.9411 43.7349 40.5302 43.7349C41.1194 43.7349 41.597 43.2573 41.597 42.6681C41.597 42.0789 41.1194 41.6013 40.5302 41.6013C39.9411 41.6013 39.4634 42.0789 39.4634 42.6681Z" fill="#DCDEDF"/>
<path d="M30.9289 42.6681C30.9289 43.2573 31.4065 43.7349 31.9957 43.7349C32.5849 43.7349 33.0625 43.2573 33.0625 42.6681C33.0625 42.0789 32.5849 41.6013 31.9957 41.6013C31.4065 41.6013 30.9289 42.0789 30.9289 42.6681Z" fill="#DCDEDF"/>
<path d="M35.1962 34.1336C35.1962 34.7228 35.6738 35.2004 36.263 35.2004C36.8522 35.2004 37.3298 34.7228 37.3298 34.1336C37.3298 33.5444 36.8522 33.0668 36.263 33.0668C35.6738 33.0668 35.1962 33.5444 35.1962 34.1336Z" fill="#DCDEDF"/>
<path d="M35.1962 38.4009C35.1962 38.99 35.6738 39.4677 36.263 39.4677C36.8522 39.4677 37.3298 38.99 37.3298 38.4009C37.3298 37.8117 36.8522 37.334 36.263 37.334C35.6738 37.334 35.1962 37.8117 35.1962 38.4009Z" fill="#DCDEDF"/>
<path d="M35.1962 42.6681C35.1962 43.2573 35.6738 43.7349 36.263 43.7349C36.8522 43.7349 37.3298 43.2573 37.3298 42.6681C37.3298 42.0789 36.8522 41.6013 36.263 41.6013C35.6738 41.6013 35.1962 42.0789 35.1962 42.6681Z" fill="#DCDEDF"/>
<path d="M26.6617 42.6681C26.6617 43.2573 27.1393 43.7349 27.7285 43.7349C28.3177 43.7349 28.7953 43.2573 28.7953 42.6681C28.7953 42.0789 28.3177 41.6013 27.7285 41.6013C27.1393 41.6013 26.6617 42.0789 26.6617 42.6681Z" fill="#DCDEDF"/>
<path d="M17.4943 24.5405L12.1414 29.7341H24.5281V34.266H12.1414L17.4943 39.4595L14.1873 42.6681L3.1919 32L14.1873 21.3319L17.4943 24.5405Z" fill="black"/>
<path fill-rule="evenodd" clip-rule="evenodd" d="M20.5584 24.5405L14.1873 18.3591L0.12792 32L14.1873 45.6409L20.5584 39.4595L17.4046 36.3996H26.6617V27.6004H17.4046L20.5584 24.5405ZM12.1415 29.7341H24.5281V34.266H12.1415L17.4943 39.4595L14.1873 42.6681L3.19195 32L14.1873 21.3319L17.4943 24.5405L12.1415 29.7341Z" fill="white"/>
</svg>
