<svg width="32" height="32" viewBox="0 0 32 32" fill="none" xmlns="http://www.w3.org/2000/svg">
<path d="M31 16C31 24.2843 24.2843 31 16 31C7.71573 31 1 24.2843 1 16C1 7.71573 7.71573 1 16 1C24.2843 1 31 7.71573 31 16Z" fill="white" stroke="black" stroke-width="2"/>
<path fill-rule="evenodd" clip-rule="evenodd" d="M25.9314 19.9453C25.5363 20.4668 24.5686 20.8388 24.5686 20.8388L17.369 23.545V21.5493L22.6674 19.5738C23.2686 19.3482 23.3609 19.0296 22.8722 18.8623C22.3845 18.6945 21.5011 18.7426 20.8994 18.969L17.369 20.2702V18.199L17.5726 18.1269C17.5726 18.1269 18.5927 17.7491 20.0272 17.5828C21.4617 17.4175 23.2181 17.6054 24.5969 18.1524C26.1509 18.6662 26.3258 19.4237 25.9313 19.9453H25.9314ZM18.0545 16.5469V11.4431C18.0545 10.8437 17.9487 10.292 17.4113 10.1358C16.9997 9.99778 16.7444 10.3976 16.7444 10.9966V23.7778L13.4506 22.6837V7.44443C14.8511 7.71644 16.8915 8.35964 17.9883 8.74654C20.7777 9.74875 21.7235 10.9961 21.7235 13.8066C21.7235 16.546 20.1076 17.5842 18.0545 16.5469ZM7.40686 21.3407C5.81155 20.8705 5.54611 19.891 6.27319 19.3267C6.94522 18.8056 8.08808 18.4134 8.08808 18.4134L12.8108 16.6561V18.6595L9.41223 19.9322C8.81189 20.1576 8.71956 20.4768 9.20745 20.6441C9.69564 20.8113 10.5794 20.7638 11.1806 20.5378L12.8108 19.9188V21.7111C12.7074 21.7304 12.5922 21.7496 12.4856 21.7683C10.8549 22.0472 9.11829 21.9308 7.40686 21.3406V21.3407Z" fill="black"/>
</svg>
