<svg width="32" height="32" viewBox="0 0 32 32" fill="none" xmlns="http://www.w3.org/2000/svg">
<g clip-path="url(#clip0_1967_20101)">
<path d="M27.2683 0H6.61092C5.76288 0 5.07541 0.687471 5.07541 1.53551V16.8906C5.07541 20.2828 7.82529 23.0326 11.2174 23.0326H27.2683V0Z" fill="white"/>
<path d="M14.4324 7.19773C14.4324 7.59525 14.7547 7.9175 15.1522 7.9175C15.5497 7.9175 15.8719 7.59525 15.8719 7.19773C15.8719 6.80021 15.5497 6.47796 15.1522 6.47796C14.7547 6.47796 14.4324 6.80021 14.4324 7.19773Z" fill="#DCDEDF"/>
<path d="M17.3116 7.19773C17.3116 7.59525 17.6338 7.9175 18.0313 7.9175C18.4288 7.9175 18.7511 7.59525 18.7511 7.19773C18.7511 6.80021 18.4288 6.47796 18.0313 6.47796C17.6338 6.47796 17.3116 6.80021 17.3116 7.19773Z" fill="#DCDEDF"/>
<path d="M20.1907 7.19773C20.1907 7.59525 20.513 7.9175 20.9105 7.9175C21.308 7.9175 21.6302 7.59525 21.6302 7.19773C21.6302 6.80021 21.308 6.47796 20.9105 6.47796C20.513 6.47796 20.1907 6.80021 20.1907 7.19773Z" fill="#DCDEDF"/>
<path d="M23.0696 7.19773C23.0696 7.59525 23.3919 7.9175 23.7894 7.9175C24.1869 7.9175 24.5092 7.59525 24.5092 7.19773C24.5092 6.80021 24.1869 6.47796 23.7894 6.47796C23.3919 6.47796 23.0696 6.80021 23.0696 7.19773Z" fill="#DCDEDF"/>
<path d="M11.5535 7.19773C11.5535 7.59525 11.8758 7.9175 12.2733 7.9175C12.6708 7.9175 12.993 7.59525 12.993 7.19773C12.993 6.80021 12.6708 6.47796 12.2733 6.47796C11.8758 6.47796 11.5535 6.80021 11.5535 7.19773Z" fill="#DCDEDF"/>
<path d="M8.67423 7.19773C8.67423 7.59525 8.99648 7.9175 9.394 7.9175C9.79152 7.9175 10.1138 7.59525 10.1138 7.19773C10.1138 6.80021 9.79152 6.47796 9.394 6.47796C8.99648 6.47796 8.67423 6.80021 8.67423 7.19773Z" fill="#DCDEDF"/>
<path d="M14.4324 10.0767C14.4324 10.4742 14.7547 10.7965 15.1522 10.7965C15.5497 10.7965 15.8719 10.4742 15.8719 10.0767C15.8719 9.67917 15.5497 9.35692 15.1522 9.35692C14.7547 9.35692 14.4324 9.67917 14.4324 10.0767Z" fill="#DCDEDF"/>
<path d="M17.3116 10.0767C17.3116 10.4742 17.6338 10.7965 18.0313 10.7965C18.4288 10.7965 18.7511 10.4742 18.7511 10.0767C18.7511 9.67917 18.4288 9.35692 18.0313 9.35692C17.6338 9.35692 17.3116 9.67917 17.3116 10.0767Z" fill="#DCDEDF"/>
<path d="M20.1907 10.0767C20.1907 10.4742 20.513 10.7965 20.9105 10.7965C21.308 10.7965 21.6302 10.4742 21.6302 10.0767C21.6302 9.67917 21.308 9.35692 20.9105 9.35692C20.513 9.35692 20.1907 9.67917 20.1907 10.0767Z" fill="#DCDEDF"/>
<path d="M23.0696 10.0767C23.0696 10.4742 23.3919 10.7965 23.7894 10.7965C24.1869 10.7965 24.5092 10.4742 24.5092 10.0767C24.5092 9.67917 24.1869 9.35692 23.7894 9.35692C23.3919 9.35692 23.0696 9.67917 23.0696 10.0767Z" fill="#DCDEDF"/>
<path d="M11.5535 10.0767C11.5535 10.4742 11.8758 10.7965 12.2733 10.7965C12.6708 10.7965 12.993 10.4742 12.993 10.0767C12.993 9.67917 12.6708 9.35692 12.2733 9.35692C11.8758 9.35692 11.5535 9.67917 11.5535 10.0767Z" fill="#DCDEDF"/>
<path d="M8.67423 10.0767C8.67423 10.4742 8.99648 10.7965 9.394 10.7965C9.79152 10.7965 10.1138 10.4742 10.1138 10.0767C10.1138 9.67917 9.79152 9.35692 9.394 9.35692C8.99648 9.35692 8.67423 9.67917 8.67423 10.0767Z" fill="#DCDEDF"/>
<path d="M14.4324 12.9558C14.4324 13.3533 14.7547 13.6756 15.1522 13.6756C15.5497 13.6756 15.8719 13.3533 15.8719 12.9558C15.8719 12.5583 15.5497 12.236 15.1522 12.236C14.7547 12.236 14.4324 12.5583 14.4324 12.9558Z" fill="#DCDEDF"/>
<path d="M17.3116 12.9558C17.3116 13.3533 17.6338 13.6756 18.0313 13.6756C18.4288 13.6756 18.7511 13.3533 18.7511 12.9558C18.7511 12.5583 18.4288 12.236 18.0313 12.236C17.6338 12.236 17.3116 12.5583 17.3116 12.9558Z" fill="#DCDEDF"/>
<path d="M20.1907 12.9558C20.1907 13.3533 20.513 13.6756 20.9105 13.6756C21.308 13.6756 21.6302 13.3533 21.6302 12.9558C21.6302 12.5583 21.308 12.236 20.9105 12.236C20.513 12.236 20.1907 12.5583 20.1907 12.9558Z" fill="#DCDEDF"/>
<path d="M23.0696 12.9558C23.0696 13.3533 23.3919 13.6756 23.7894 13.6756C24.1869 13.6756 24.5092 13.3533 24.5092 12.9558C24.5092 12.5583 24.1869 12.236 23.7894 12.236C23.3919 12.236 23.0696 12.5583 23.0696 12.9558Z" fill="#DCDEDF"/>
<path d="M14.4324 15.8349C14.4324 16.2324 14.7547 16.5547 15.1522 16.5547C15.5497 16.5547 15.8719 16.2324 15.8719 15.8349C15.8719 15.4374 15.5497 15.1151 15.1522 15.1151C14.7547 15.1151 14.4324 15.4374 14.4324 15.8349Z" fill="#DCDEDF"/>
<path d="M17.3116 15.8349C17.3116 16.2324 17.6338 16.5547 18.0313 16.5547C18.4288 16.5547 18.7511 16.2324 18.7511 15.8349C18.7511 15.4374 18.4288 15.1151 18.0313 15.1151C17.6338 15.1151 17.3116 15.4374 17.3116 15.8349Z" fill="#DCDEDF"/>
<path d="M20.1907 15.8349C20.1907 16.2324 20.513 16.5547 20.9105 16.5547C21.308 16.5547 21.6302 16.2324 21.6302 15.8349C21.6302 15.4374 21.308 15.1151 20.9105 15.1151C20.513 15.1151 20.1907 15.4374 20.1907 15.8349Z" fill="#DCDEDF"/>
<path d="M23.0696 15.8349C23.0696 16.2324 23.3919 16.5547 23.7894 16.5547C24.1869 16.5547 24.5092 16.2324 24.5092 15.8349C24.5092 15.4374 24.1869 15.1151 23.7894 15.1151C23.3919 15.1151 23.0696 15.4374 23.0696 15.8349Z" fill="#DCDEDF"/>
<path d="M14.4324 18.714C14.4324 19.1115 14.7547 19.4338 15.1522 19.4338C15.5497 19.4338 15.8719 19.1115 15.8719 18.714C15.8719 18.3165 15.5497 17.9942 15.1522 17.9942C14.7547 17.9942 14.4324 18.3165 14.4324 18.714Z" fill="#DCDEDF"/>
<path d="M17.3116 18.714C17.3116 19.1115 17.6338 19.4338 18.0313 19.4338C18.4288 19.4338 18.7511 19.1115 18.7511 18.714C18.7511 18.3165 18.4288 17.9942 18.0313 17.9942C17.6338 17.9942 17.3116 18.3165 17.3116 18.714Z" fill="#DCDEDF"/>
<path d="M20.1907 18.714C20.1907 19.1115 20.513 19.4338 20.9105 19.4338C21.308 19.4338 21.6302 19.1115 21.6302 18.714C21.6302 18.3165 21.308 17.9942 20.9105 17.9942C20.513 17.9942 20.1907 18.3165 20.1907 18.714Z" fill="#DCDEDF"/>
<path d="M23.0696 18.714C23.0696 19.1115 23.3919 19.4338 23.7894 19.4338C24.1869 19.4338 24.5092 19.1115 24.5092 18.714C24.5092 18.3165 24.1869 17.9942 23.7894 17.9942C23.3919 17.9942 23.0696 18.3165 23.0696 18.714Z" fill="#DCDEDF"/>
<path d="M11.5535 12.9558C11.5535 13.3533 11.8758 13.6756 12.2733 13.6756C12.6708 13.6756 12.993 13.3533 12.993 12.9558C12.993 12.5583 12.6708 12.236 12.2733 12.236C11.8758 12.236 11.5535 12.5583 11.5535 12.9558Z" fill="#DCDEDF"/>
<path d="M11.5535 15.8349C11.5535 16.2324 11.8758 16.5547 12.2733 16.5547C12.6708 16.5547 12.993 16.2324 12.993 15.8349C12.993 15.4374 12.6708 15.1151 12.2733 15.1151C11.8758 15.1151 11.5535 15.4374 11.5535 15.8349Z" fill="#DCDEDF"/>
<path d="M11.5535 18.714C11.5535 19.1115 11.8758 19.4338 12.2733 19.4338C12.6708 19.4338 12.993 19.1115 12.993 18.714C12.993 18.3165 12.6708 17.9942 12.2733 17.9942C11.8758 17.9942 11.5535 18.3165 11.5535 18.714Z" fill="#DCDEDF"/>
<path d="M8.67423 12.9558C8.67423 13.3533 8.99648 13.6756 9.394 13.6756C9.79152 13.6756 10.1138 13.3533 10.1138 12.9558C10.1138 12.5583 9.79152 12.236 9.394 12.236C8.99648 12.236 8.67423 12.5583 8.67423 12.9558Z" fill="#DCDEDF"/>
<path d="M8.67423 15.8349C8.67423 16.2324 8.99648 16.5547 9.394 16.5547C9.79152 16.5547 10.1138 16.2324 10.1138 15.8349C10.1138 15.4374 9.79152 15.1151 9.394 15.1151C8.99648 15.1151 8.67423 15.4374 8.67423 15.8349Z" fill="#DCDEDF"/>
<path d="M8.67423 18.714C8.67423 19.1115 8.99648 19.4338 9.394 19.4338C9.79152 19.4338 10.1138 19.1115 10.1138 18.714C10.1138 18.3165 9.79152 17.9942 9.394 17.9942C8.99648 17.9942 8.67423 18.3165 8.67423 18.714Z" fill="#DCDEDF"/>
<path d="M20.4305 25.5918L16.5917 30.0704L12.7529 25.5918H20.4305Z" fill="black"/>
<path fill-rule="evenodd" clip-rule="evenodd" d="M23.2127 24.3122L16.5918 32.0366L9.97095 24.3122H23.2127ZM20.4306 25.5918H12.7531L16.5918 30.0704L20.4306 25.5918Z" fill="white"/>
</g>
<defs>
<clipPath id="clip0_1967_20101">
<rect width="32" height="32" fill="white"/>
</clipPath>
</defs>
</svg>
