<svg width="64" height="64" viewBox="0 0 64 64" fill="none" xmlns="http://www.w3.org/2000/svg">
<mask id="path-1-outside-1_1967:13918" maskUnits="userSpaceOnUse" x="1" y="1" width="62" height="62" fill="black">
<rect fill="white" x="1" y="1" width="62" height="62"/>
<path d="M60 32C60 47.464 47.464 60 32 60C16.536 60 4 47.464 4 32C4 16.536 16.536 4 32 4C47.464 4 60 16.536 60 32Z"/>
</mask>
<path d="M60 32C60 47.464 47.464 60 32 60C16.536 60 4 47.464 4 32C4 16.536 16.536 4 32 4C47.464 4 60 16.536 60 32Z" fill="white"/>
<path d="M57.3333 32C57.3333 45.9912 45.9912 57.3333 32 57.3333V62.6667C48.9367 62.6667 62.6667 48.9367 62.6667 32H57.3333ZM32 57.3333C18.0088 57.3333 6.66667 45.9912 6.66667 32H1.33333C1.33333 48.9367 15.0633 62.6667 32 62.6667V57.3333ZM6.66667 32C6.66667 18.0088 18.0088 6.66667 32 6.66667V1.33333C15.0633 1.33333 1.33333 15.0633 1.33333 32H6.66667ZM32 6.66667C45.9912 6.66667 57.3333 18.0088 57.3333 32H62.6667C62.6667 15.0633 48.9367 1.33333 32 1.33333V6.66667Z" fill="black" mask="url(#path-1-outside-1_1967:13918)"/>
<path fill-rule="evenodd" clip-rule="evenodd" d="M51.8628 39.8906C51.0725 40.9337 49.1371 41.6776 49.1371 41.6776L34.7381 47.09V43.0987L45.3347 39.1476C46.5372 38.6965 46.7219 38.0593 45.7445 37.7246C44.7689 37.389 43.0022 37.4851 41.7989 37.9381L34.7381 40.5404V36.398L35.1452 36.2539C35.1452 36.2539 37.1854 35.4983 40.0545 35.1656C42.9234 34.835 46.4361 35.2107 49.1939 36.3048C52.3018 37.3325 52.6517 38.8474 51.8626 39.8906H51.8628ZM36.1089 33.0939V22.8863C36.1089 21.6875 35.8975 20.5841 34.8227 20.2716C33.9995 19.9956 33.4888 20.7953 33.4888 21.9932V47.5556L26.9013 45.3675V14.8889C29.7022 15.4329 33.7829 16.7193 35.9765 17.4931C41.5554 19.4975 43.4469 21.9923 43.4469 27.6133C43.4469 33.092 40.2152 35.1684 36.1089 33.0939ZM14.8137 42.6814C11.6231 41.7411 11.0922 39.782 12.5464 38.6533C13.8904 37.6113 16.1762 36.8268 16.1762 36.8268L25.6216 33.3121V37.3191L18.8245 39.8645C17.6238 40.3153 17.4391 40.9536 18.4149 41.2881C19.3913 41.6227 21.1588 41.5275 22.3613 41.0757L25.6216 39.8376V43.4223C25.4148 43.4608 25.1844 43.4993 24.9712 43.5367C21.7099 44.0944 18.2366 43.8616 14.8137 42.6812V42.6814Z" fill="black"/>
</svg>
