<svg width="64" height="64" viewBox="0 0 64 64" fill="none" xmlns="http://www.w3.org/2000/svg">
<g clip-path="url(#clip0_1967:20033)">
<path d="M10.1509 0H51.4657C53.1617 0 54.5367 1.37494 54.5367 3.07102V33.7812C54.5367 40.5655 49.0369 46.0653 42.2526 46.0653H10.1509V0Z" fill="white"/>
<path d="M35.8227 14.3955C35.8227 15.1905 35.1782 15.835 34.3831 15.835C33.5881 15.835 32.9436 15.1905 32.9436 14.3955C32.9436 13.6004 33.5881 12.9559 34.3831 12.9559C35.1782 12.9559 35.8227 13.6004 35.8227 14.3955Z" fill="#DCDEDF"/>
<path d="M30.0645 14.3955C30.0645 15.1905 29.42 15.835 28.625 15.835C27.8299 15.835 27.1854 15.1905 27.1854 14.3955C27.1854 13.6004 27.8299 12.9559 28.625 12.9559C29.42 12.9559 30.0645 13.6004 30.0645 14.3955Z" fill="#DCDEDF"/>
<path d="M24.3062 14.3955C24.3062 15.1905 23.6617 15.835 22.8667 15.835C22.0716 15.835 21.4271 15.1905 21.4271 14.3955C21.4271 13.6004 22.0716 12.9559 22.8667 12.9559C23.6617 12.9559 24.3062 13.6004 24.3062 14.3955Z" fill="#DCDEDF"/>
<path d="M18.5483 14.3955C18.5483 15.1905 17.9038 15.835 17.1087 15.835C16.3137 15.835 15.6692 15.1905 15.6692 14.3955C15.6692 13.6004 16.3137 12.9559 17.1087 12.9559C17.9038 12.9559 18.5483 13.6004 18.5483 14.3955Z" fill="#DCDEDF"/>
<path d="M41.5805 14.3955C41.5805 15.1905 40.936 15.835 40.141 15.835C39.3459 15.835 38.7014 15.1905 38.7014 14.3955C38.7014 13.6004 39.3459 12.9559 40.141 12.9559C40.936 12.9559 41.5805 13.6004 41.5805 14.3955Z" fill="#DCDEDF"/>
<path d="M47.3392 14.3955C47.3392 15.1905 46.6947 15.835 45.8996 15.835C45.1046 15.835 44.4601 15.1905 44.4601 14.3955C44.4601 13.6004 45.1046 12.9559 45.8996 12.9559C46.6947 12.9559 47.3392 13.6004 47.3392 14.3955Z" fill="#DCDEDF"/>
<path d="M35.8227 20.1534C35.8227 20.9484 35.1782 21.5929 34.3831 21.5929C33.5881 21.5929 32.9436 20.9484 32.9436 20.1534C32.9436 19.3583 33.5881 18.7138 34.3831 18.7138C35.1782 18.7138 35.8227 19.3583 35.8227 20.1534Z" fill="#DCDEDF"/>
<path d="M30.0645 20.1534C30.0645 20.9484 29.42 21.5929 28.625 21.5929C27.8299 21.5929 27.1854 20.9484 27.1854 20.1534C27.1854 19.3583 27.8299 18.7138 28.625 18.7138C29.42 18.7138 30.0645 19.3583 30.0645 20.1534Z" fill="#DCDEDF"/>
<path d="M24.3062 20.1534C24.3062 20.9484 23.6617 21.5929 22.8667 21.5929C22.0716 21.5929 21.4271 20.9484 21.4271 20.1534C21.4271 19.3583 22.0716 18.7138 22.8667 18.7138C23.6617 18.7138 24.3062 19.3583 24.3062 20.1534Z" fill="#DCDEDF"/>
<path d="M18.5483 20.1534C18.5483 20.9484 17.9038 21.5929 17.1087 21.5929C16.3137 21.5929 15.6692 20.9484 15.6692 20.1534C15.6692 19.3583 16.3137 18.7138 17.1087 18.7138C17.9038 18.7138 18.5483 19.3583 18.5483 20.1534Z" fill="#DCDEDF"/>
<path d="M41.5805 20.1534C41.5805 20.9484 40.936 21.5929 40.141 21.5929C39.3459 21.5929 38.7014 20.9484 38.7014 20.1534C38.7014 19.3583 39.3459 18.7138 40.141 18.7138C40.936 18.7138 41.5805 19.3583 41.5805 20.1534Z" fill="#DCDEDF"/>
<path d="M47.3392 20.1534C47.3392 20.9484 46.6947 21.5929 45.8996 21.5929C45.1046 21.5929 44.4601 20.9484 44.4601 20.1534C44.4601 19.3583 45.1046 18.7138 45.8996 18.7138C46.6947 18.7138 47.3392 19.3583 47.3392 20.1534Z" fill="#DCDEDF"/>
<path d="M35.8227 25.9116C35.8227 26.7066 35.1782 27.3511 34.3831 27.3511C33.5881 27.3511 32.9436 26.7066 32.9436 25.9116C32.9436 25.1166 33.5881 24.4721 34.3831 24.4721C35.1782 24.4721 35.8227 25.1166 35.8227 25.9116Z" fill="#DCDEDF"/>
<path d="M30.0645 25.9116C30.0645 26.7066 29.42 27.3511 28.625 27.3511C27.8299 27.3511 27.1854 26.7066 27.1854 25.9116C27.1854 25.1166 27.8299 24.4721 28.625 24.4721C29.42 24.4721 30.0645 25.1166 30.0645 25.9116Z" fill="#DCDEDF"/>
<path d="M24.3062 25.9116C24.3062 26.7066 23.6617 27.3511 22.8667 27.3511C22.0716 27.3511 21.4271 26.7066 21.4271 25.9116C21.4271 25.1166 22.0716 24.4721 22.8667 24.4721C23.6617 24.4721 24.3062 25.1166 24.3062 25.9116Z" fill="#DCDEDF"/>
<path d="M18.5483 25.9116C18.5483 26.7066 17.9038 27.3511 17.1087 27.3511C16.3137 27.3511 15.6692 26.7066 15.6692 25.9116C15.6692 25.1166 16.3137 24.4721 17.1087 24.4721C17.9038 24.4721 18.5483 25.1166 18.5483 25.9116Z" fill="#DCDEDF"/>
<path d="M35.8227 31.6698C35.8227 32.4648 35.1782 33.1093 34.3831 33.1093C33.5881 33.1093 32.9436 32.4648 32.9436 31.6698C32.9436 30.8748 33.5881 30.2303 34.3831 30.2303C35.1782 30.2303 35.8227 30.8748 35.8227 31.6698Z" fill="#DCDEDF"/>
<path d="M30.0645 31.6698C30.0645 32.4648 29.42 33.1093 28.625 33.1093C27.8299 33.1093 27.1854 32.4648 27.1854 31.6698C27.1854 30.8748 27.8299 30.2303 28.625 30.2303C29.42 30.2303 30.0645 30.8748 30.0645 31.6698Z" fill="#DCDEDF"/>
<path d="M24.3062 31.6698C24.3062 32.4648 23.6617 33.1093 22.8667 33.1093C22.0716 33.1093 21.4271 32.4648 21.4271 31.6698C21.4271 30.8748 22.0716 30.2303 22.8667 30.2303C23.6617 30.2303 24.3062 30.8748 24.3062 31.6698Z" fill="#DCDEDF"/>
<path d="M18.5483 31.6698C18.5483 32.4648 17.9038 33.1093 17.1087 33.1093C16.3137 33.1093 15.6692 32.4648 15.6692 31.6698C15.6692 30.8748 16.3137 30.2303 17.1087 30.2303C17.9038 30.2303 18.5483 30.8748 18.5483 31.6698Z" fill="#DCDEDF"/>
<path d="M35.8227 37.428C35.8227 38.2231 35.1782 38.8676 34.3831 38.8676C33.5881 38.8676 32.9436 38.2231 32.9436 37.428C32.9436 36.633 33.5881 35.9885 34.3831 35.9885C35.1782 35.9885 35.8227 36.633 35.8227 37.428Z" fill="#DCDEDF"/>
<path d="M30.0645 37.428C30.0645 38.2231 29.42 38.8676 28.625 38.8676C27.8299 38.8676 27.1854 38.2231 27.1854 37.428C27.1854 36.633 27.8299 35.9885 28.625 35.9885C29.42 35.9885 30.0645 36.633 30.0645 37.428Z" fill="#DCDEDF"/>
<path d="M24.3062 37.428C24.3062 38.2231 23.6617 38.8676 22.8667 38.8676C22.0716 38.8676 21.4271 38.2231 21.4271 37.428C21.4271 36.633 22.0716 35.9885 22.8667 35.9885C23.6617 35.9885 24.3062 36.633 24.3062 37.428Z" fill="#DCDEDF"/>
<path d="M18.5483 37.428C18.5483 38.2231 17.9038 38.8676 17.1087 38.8676C16.3137 38.8676 15.6692 38.2231 15.6692 37.428C15.6692 36.633 16.3137 35.9885 17.1087 35.9885C17.9038 35.9885 18.5483 36.633 18.5483 37.428Z" fill="#DCDEDF"/>
<path d="M41.5805 25.9116C41.5805 26.7066 40.936 27.3511 40.141 27.3511C39.3459 27.3511 38.7014 26.7066 38.7014 25.9116C38.7014 25.1166 39.3459 24.4721 40.141 24.4721C40.936 24.4721 41.5805 25.1166 41.5805 25.9116Z" fill="#DCDEDF"/>
<path d="M41.5805 31.6698C41.5805 32.4648 40.936 33.1093 40.141 33.1093C39.3459 33.1093 38.7014 32.4648 38.7014 31.6698C38.7014 30.8748 39.3459 30.2303 40.141 30.2303C40.936 30.2303 41.5805 30.8748 41.5805 31.6698Z" fill="#DCDEDF"/>
<path d="M41.5805 37.428C41.5805 38.2231 40.936 38.8676 40.141 38.8676C39.3459 38.8676 38.7014 38.2231 38.7014 37.428C38.7014 36.633 39.3459 35.9885 40.141 35.9885C40.936 35.9885 41.5805 36.633 41.5805 37.428Z" fill="#DCDEDF"/>
<path d="M47.3392 25.9116C47.3392 26.7066 46.6947 27.3511 45.8996 27.3511C45.1046 27.3511 44.4601 26.7066 44.4601 25.9116C44.4601 25.1166 45.1046 24.4721 45.8996 24.4721C46.6947 24.4721 47.3392 25.1166 47.3392 25.9116Z" fill="#DCDEDF"/>
<path d="M47.3392 31.6698C47.3392 32.4648 46.6947 33.1093 45.8996 33.1093C45.1046 33.1093 44.4601 32.4648 44.4601 31.6698C44.4601 30.8748 45.1046 30.2303 45.8996 30.2303C46.6947 30.2303 47.3392 30.8748 47.3392 31.6698Z" fill="#DCDEDF"/>
<path d="M47.3392 37.428C47.3392 38.2231 46.6947 38.8676 45.8996 38.8676C45.1046 38.8676 44.4601 38.2231 44.4601 37.428C44.4601 36.633 45.1046 35.9885 45.8996 35.9885C46.6947 35.9885 47.3392 36.633 47.3392 37.428Z" fill="#DCDEDF"/>
<path d="M40.8611 51.1836L33.1835 60.1408L25.506 51.1836H40.8611Z" fill="black"/>
<path fill-rule="evenodd" clip-rule="evenodd" d="M46.4253 48.6245L33.1835 64.0732L19.9418 48.6245H46.4253ZM40.8611 51.1836H25.506L33.1835 60.1408L40.8611 51.1836Z" fill="white"/>
</g>
<defs>
<clipPath id="clip0_1967:20033">
<rect width="64" height="64" fill="white"/>
</clipPath>
</defs>
</svg>
