<svg width="64" height="64" viewBox="0 0 64 64" fill="none" xmlns="http://www.w3.org/2000/svg">
<path d="M0 15.7142C0 14.6097 0.895431 13.7142 2 13.7142H62C63.1046 13.7142 64 14.6097 64 15.7142V42.2857C64 46.7039 60.4183 50.2857 56 50.2857H8C3.58172 50.2857 0 46.7039 0 42.2857V15.7142Z" fill="white"/>
<circle cx="6.85709" cy="25.1428" r="1.14286" fill="#DCDEDF"/>
<circle cx="29.7143" cy="25.1428" r="1.14286" fill="#DCDEDF"/>
<circle cx="6.85709" cy="29.7143" r="1.14286" fill="#DCDEDF"/>
<circle cx="29.7143" cy="29.7143" r="1.14286" fill="#DCDEDF"/>
<circle cx="6.85709" cy="34.2856" r="1.14286" fill="#DCDEDF"/>
<circle cx="6.85709" cy="38.8571" r="1.14286" fill="#DCDEDF"/>
<circle cx="6.85709" cy="43.4286" r="1.14286" fill="#DCDEDF"/>
<circle cx="29.7143" cy="34.2856" r="1.14286" fill="#DCDEDF"/>
<circle cx="29.7143" cy="38.8571" r="1.14286" fill="#DCDEDF"/>
<circle cx="29.7143" cy="43.4286" r="1.14286" fill="#DCDEDF"/>
<circle cx="11.4286" cy="25.1428" r="1.14286" fill="#DCDEDF"/>
<circle cx="34.2857" cy="25.1428" r="1.14286" fill="#DCDEDF"/>
<circle cx="11.4286" cy="29.7143" r="1.14286" fill="#DCDEDF"/>
<circle cx="34.2857" cy="29.7143" r="1.14286" fill="#DCDEDF"/>
<circle cx="11.4286" cy="34.2856" r="1.14286" fill="#DCDEDF"/>
<circle cx="11.4286" cy="38.8571" r="1.14286" fill="#DCDEDF"/>
<circle cx="11.4286" cy="43.4286" r="1.14286" fill="#DCDEDF"/>
<circle cx="34.2857" cy="34.2856" r="1.14286" fill="#DCDEDF"/>
<circle cx="34.2857" cy="38.8571" r="1.14286" fill="#DCDEDF"/>
<circle cx="34.2857" cy="43.4286" r="1.14286" fill="#DCDEDF"/>
<circle cx="16" cy="25.1428" r="1.14286" fill="#DCDEDF"/>
<circle cx="38.8571" cy="25.1428" r="1.14286" fill="#DCDEDF"/>
<circle cx="43.4286" cy="25.1428" r="1.14286" fill="#DCDEDF"/>
<circle cx="48" cy="25.1428" r="1.14286" fill="#DCDEDF"/>
<circle cx="52.5714" cy="25.1428" r="1.14286" fill="#DCDEDF"/>
<circle cx="57.1429" cy="25.1428" r="1.14286" fill="#DCDEDF"/>
<circle cx="16" cy="29.7143" r="1.14286" fill="#DCDEDF"/>
<circle cx="38.8571" cy="29.7143" r="1.14286" fill="#DCDEDF"/>
<circle cx="43.4286" cy="29.7143" r="1.14286" fill="#DCDEDF"/>
<circle cx="48" cy="29.7143" r="1.14286" fill="#DCDEDF"/>
<circle cx="52.5714" cy="29.7143" r="1.14286" fill="#DCDEDF"/>
<circle cx="57.1429" cy="29.7143" r="1.14286" fill="#DCDEDF"/>
<circle cx="16" cy="34.2856" r="1.14286" fill="#DCDEDF"/>
<circle cx="16" cy="38.8571" r="1.14286" fill="#DCDEDF"/>
<circle cx="16" cy="43.4286" r="1.14286" fill="#DCDEDF"/>
<circle cx="38.8571" cy="34.2856" r="1.14286" fill="#DCDEDF"/>
<circle cx="38.8571" cy="38.8571" r="1.14286" fill="#DCDEDF"/>
<circle cx="38.8571" cy="43.4286" r="1.14286" fill="#DCDEDF"/>
<circle cx="43.4286" cy="34.2856" r="1.14286" fill="#DCDEDF"/>
<circle cx="43.4286" cy="38.8571" r="1.14286" fill="#DCDEDF"/>
<circle cx="43.4286" cy="43.4286" r="1.14286" fill="#DCDEDF"/>
<circle cx="48" cy="34.2856" r="1.14286" fill="#DCDEDF"/>
<circle cx="48" cy="38.8571" r="1.14286" fill="#DCDEDF"/>
<circle cx="48" cy="43.4286" r="1.14286" fill="#DCDEDF"/>
<circle cx="52.5714" cy="34.2856" r="1.14286" fill="#DCDEDF"/>
<circle cx="52.5714" cy="38.8571" r="1.14286" fill="#DCDEDF"/>
<circle cx="52.5714" cy="43.4286" r="1.14286" fill="#DCDEDF"/>
<circle cx="57.1429" cy="34.2856" r="1.14286" fill="#DCDEDF"/>
<circle cx="57.1429" cy="38.8571" r="1.14286" fill="#DCDEDF"/>
<circle cx="57.1429" cy="43.4286" r="1.14286" fill="#DCDEDF"/>
<circle cx="20.5714" cy="25.1428" r="1.14286" fill="#DCDEDF"/>
<circle cx="25.1429" cy="25.1428" r="1.14286" fill="#DCDEDF"/>
<circle cx="20.5714" cy="29.7143" r="1.14286" fill="#DCDEDF"/>
<circle cx="25.1429" cy="29.7143" r="1.14286" fill="#DCDEDF"/>
<circle cx="20.5714" cy="34.2856" r="1.14286" fill="#DCDEDF"/>
<circle cx="20.5714" cy="38.8571" r="1.14286" fill="#DCDEDF"/>
<circle cx="20.5714" cy="43.4286" r="1.14286" fill="#DCDEDF"/>
<circle cx="25.1429" cy="34.2856" r="1.14286" fill="#DCDEDF"/>
<circle cx="25.1429" cy="38.8571" r="1.14286" fill="#DCDEDF"/>
<circle cx="25.1429" cy="43.4286" r="1.14286" fill="#DCDEDF"/>
<path d="M24.4228 12.2405L22.5863 14.383L25.4082 14.383L40.9827 14.383L43.8045 14.383L41.9681 12.2405L34.1809 3.15536L33.1954 2.00571L32.21 3.15536L24.4228 12.2405Z" fill="black" stroke="white" stroke-width="2.59574"/>
</svg>
