<svg width="64" height="64" viewBox="0 0 64 64" fill="none" xmlns="http://www.w3.org/2000/svg">
<g clip-path="url(#clip0_2642:20328)">
<path d="M0 15.7142C0 14.6097 0.895431 13.7142 2 13.7142H62C63.1046 13.7142 64 14.6097 64 15.7142V42.2857C64 46.7039 60.4183 50.2857 56 50.2857H8C3.58172 50.2857 0 46.7039 0 42.2857V15.7142Z" fill="white"/>
<circle cx="29.7143" cy="25.1428" r="1.14286" fill="#DCDEDF"/>
<circle cx="24.1429" cy="25.1428" r="1.14286" fill="#DCDEDF"/>
<circle cx="29.7143" cy="29.7143" r="1.14286" fill="#DCDEDF"/>
<circle cx="24.1429" cy="29.7143" r="1.14286" fill="#DCDEDF"/>
<circle cx="29.7143" cy="34.2856" r="1.14286" fill="#DCDEDF"/>
<circle cx="24.1429" cy="34.2856" r="1.14286" fill="#DCDEDF"/>
<circle cx="29.7143" cy="38.8571" r="1.14286" fill="#DCDEDF"/>
<circle cx="24.1429" cy="38.8571" r="1.14286" fill="#DCDEDF"/>
<circle cx="29.7143" cy="43.4286" r="1.14286" fill="#DCDEDF"/>
<circle cx="24.1429" cy="43.4286" r="1.14286" fill="#DCDEDF"/>
<circle cx="34.2857" cy="25.1428" r="1.14286" fill="#DCDEDF"/>
<circle cx="39.1429" cy="25.1428" r="1.14286" fill="#DCDEDF"/>
<circle cx="34.2857" cy="29.7143" r="1.14286" fill="#DCDEDF"/>
<circle cx="39.1429" cy="29.7143" r="1.14286" fill="#DCDEDF"/>
<circle cx="34.2857" cy="34.2856" r="1.14286" fill="#DCDEDF"/>
<circle cx="39.1429" cy="34.2856" r="1.14286" fill="#DCDEDF"/>
<circle cx="34.2857" cy="38.8571" r="1.14286" fill="#DCDEDF"/>
<circle cx="39.1429" cy="38.8571" r="1.14286" fill="#DCDEDF"/>
<circle cx="34.2857" cy="43.4286" r="1.14286" fill="#DCDEDF"/>
<circle cx="39.1429" cy="43.4286" r="1.14286" fill="#DCDEDF"/>
<path fill-rule="evenodd" clip-rule="evenodd" d="M8.10531 43.7313L12.207 39.3751L16.2974 43.7372L22.0096 37.636L16.6124 31.8837L22.003 26.126L16.2998 20L12.2042 24.3813L8.10776 20.0059L-2.99998 31.8885L8.10531 43.7313ZM12.9686 31.8856L18.3659 37.6379L16.2958 39.8489L8.82852 31.8856L16.2958 23.8974L18.3659 26.1209L12.9686 31.8856ZM0.641963 31.8856L8.10928 39.8489L10.1793 37.6504L4.78202 31.8856L10.1793 26.1084L8.10928 23.8974L0.641963 31.8856Z" fill="white"/>
<path fill-rule="evenodd" clip-rule="evenodd" d="M55.9043 43.7313L51.8027 39.3751L47.7123 43.7372L42 37.636L47.3973 31.8837L42.0066 26.126L47.7099 20L51.8054 24.3813L55.9019 20.0059L67.0096 31.8885L55.9043 43.7313ZM51.0411 31.8856L45.6438 37.6379L47.7138 39.8489L55.1811 31.8856L47.7138 23.8974L45.6438 26.1209L51.0411 31.8856ZM63.3677 31.8856L55.9004 39.8489L53.8303 37.6504L59.2276 31.8856L53.8303 26.1084L55.9004 23.8974L63.3677 31.8856Z" fill="white"/>
<path d="M0.641948 31.8856L8.10926 39.8489L10.1793 37.6504L4.78201 31.8856L10.1793 26.1084L8.10926 23.8974L0.641948 31.8856Z" fill="black"/>
<path d="M12.9686 31.8856L18.3658 37.6379L16.2958 39.8489L8.82851 31.8856L16.2958 23.8974L18.3658 26.1209L12.9686 31.8856Z" fill="black"/>
<path d="M63.3677 31.8856L55.9004 39.8489L53.8304 37.6504L59.2276 31.8856L53.8304 26.1084L55.9004 23.8974L63.3677 31.8856Z" fill="black"/>
<path d="M51.0411 31.8856L45.6438 37.6379L47.7138 39.8489L55.1811 31.8856L47.7138 23.8974L45.6438 26.1209L51.0411 31.8856Z" fill="black"/>
</g>
<defs>
<clipPath id="clip0_2642:20328">
<rect width="64" height="64" fill="white"/>
</clipPath>
</defs>
</svg>
