<svg width="64" height="64" viewBox="0 0 64 64" fill="none" xmlns="http://www.w3.org/2000/svg">
<path d="M0 8.03658H42.9844C44.749 8.03658 46.1795 9.46708 46.1795 11.2317V43.1829C46.1795 50.2414 40.4575 55.9634 33.399 55.9634H0V8.03658Z" fill="white"/>
<path d="M26.7093 23.0138C26.7093 23.8409 26.0387 24.5115 25.2116 24.5115C24.3844 24.5115 23.7139 23.8409 23.7139 23.0138C23.7139 22.1866 24.3844 21.5161 25.2116 21.5161C26.0387 21.5161 26.7093 22.1866 26.7093 23.0138Z" fill="#DCDEDF"/>
<path d="M20.7183 23.0138C20.7183 23.8409 20.0478 24.5115 19.2206 24.5115C18.3935 24.5115 17.7229 23.8409 17.7229 23.0138C17.7229 22.1866 18.3935 21.5161 19.2206 21.5161C20.0478 21.5161 20.7183 22.1866 20.7183 23.0138Z" fill="#DCDEDF"/>
<path d="M14.7274 23.0138C14.7274 23.8409 14.0568 24.5115 13.2296 24.5115C12.4025 24.5115 11.7319 23.8409 11.7319 23.0138C11.7319 22.1866 12.4025 21.5161 13.2296 21.5161C14.0568 21.5161 14.7274 22.1866 14.7274 23.0138Z" fill="#DCDEDF"/>
<path d="M8.73676 23.0138C8.73676 23.8409 8.06621 24.5115 7.23905 24.5115C6.41188 24.5115 5.74133 23.8409 5.74133 23.0138C5.74133 22.1866 6.41188 21.5161 7.23905 21.5161C8.06621 21.5161 8.73676 22.1866 8.73676 23.0138Z" fill="#DCDEDF"/>
<path d="M32.6998 23.0138C32.6998 23.8409 32.0292 24.5115 31.2021 24.5115C30.3749 24.5115 29.7043 23.8409 29.7043 23.0138C29.7043 22.1866 30.3749 21.5161 31.2021 21.5161C32.0292 21.5161 32.6998 22.1866 32.6998 23.0138Z" fill="#DCDEDF"/>
<path d="M38.6911 23.0138C38.6911 23.8409 38.0206 24.5115 37.1934 24.5115C36.3662 24.5115 35.6957 23.8409 35.6957 23.0138C35.6957 22.1866 36.3662 21.5161 37.1934 21.5161C38.0206 21.5161 38.6911 22.1866 38.6911 23.0138Z" fill="#DCDEDF"/>
<path d="M26.7093 29.0044C26.7093 29.8316 26.0387 30.5021 25.2116 30.5021C24.3844 30.5021 23.7139 29.8316 23.7139 29.0044C23.7139 28.1772 24.3844 27.5067 25.2116 27.5067C26.0387 27.5067 26.7093 28.1772 26.7093 29.0044Z" fill="#DCDEDF"/>
<path d="M20.7183 29.0044C20.7183 29.8316 20.0478 30.5021 19.2206 30.5021C18.3935 30.5021 17.7229 29.8316 17.7229 29.0044C17.7229 28.1772 18.3935 27.5067 19.2206 27.5067C20.0478 27.5067 20.7183 28.1772 20.7183 29.0044Z" fill="#DCDEDF"/>
<path d="M14.7274 29.0044C14.7274 29.8316 14.0568 30.5021 13.2296 30.5021C12.4025 30.5021 11.7319 29.8316 11.7319 29.0044C11.7319 28.1772 12.4025 27.5067 13.2296 27.5067C14.0568 27.5067 14.7274 28.1772 14.7274 29.0044Z" fill="#DCDEDF"/>
<path d="M8.73676 29.0044C8.73676 29.8316 8.06621 30.5021 7.23905 30.5021C6.41188 30.5021 5.74133 29.8316 5.74133 29.0044C5.74133 28.1772 6.41188 27.5067 7.23905 27.5067C8.06621 27.5067 8.73676 28.1772 8.73676 29.0044Z" fill="#DCDEDF"/>
<path d="M32.6998 29.0044C32.6998 29.8316 32.0292 30.5021 31.2021 30.5021C30.3749 30.5021 29.7043 29.8316 29.7043 29.0044C29.7043 28.1772 30.3749 27.5067 31.2021 27.5067C32.0292 27.5067 32.6998 28.1772 32.6998 29.0044Z" fill="#DCDEDF"/>
<path d="M38.6911 29.0044C38.6911 29.8316 38.0206 30.5021 37.1934 30.5021C36.3662 30.5021 35.6957 29.8316 35.6957 29.0044C35.6957 28.1772 36.3662 27.5067 37.1934 27.5067C38.0206 27.5067 38.6911 28.1772 38.6911 29.0044Z" fill="#DCDEDF"/>
<path d="M26.7093 34.9953C26.7093 35.8225 26.0387 36.493 25.2116 36.493C24.3844 36.493 23.7139 35.8225 23.7139 34.9953C23.7139 34.1681 24.3844 33.4976 25.2116 33.4976C26.0387 33.4976 26.7093 34.1681 26.7093 34.9953Z" fill="#DCDEDF"/>
<path d="M20.7183 34.9953C20.7183 35.8225 20.0478 36.493 19.2206 36.493C18.3935 36.493 17.7229 35.8225 17.7229 34.9953C17.7229 34.1681 18.3935 33.4976 19.2206 33.4976C20.0478 33.4976 20.7183 34.1681 20.7183 34.9953Z" fill="#DCDEDF"/>
<path d="M14.7274 34.9953C14.7274 35.8225 14.0568 36.493 13.2296 36.493C12.4025 36.493 11.7319 35.8225 11.7319 34.9953C11.7319 34.1681 12.4025 33.4976 13.2296 33.4976C14.0568 33.4976 14.7274 34.1681 14.7274 34.9953Z" fill="#DCDEDF"/>
<path d="M8.73676 34.9953C8.73676 35.8225 8.06621 36.493 7.23905 36.493C6.41188 36.493 5.74133 35.8225 5.74133 34.9953C5.74133 34.1681 6.41188 33.4976 7.23905 33.4976C8.06621 33.4976 8.73676 34.1681 8.73676 34.9953Z" fill="#DCDEDF"/>
<path d="M26.7093 40.9862C26.7093 41.8134 26.0387 42.4839 25.2116 42.4839C24.3844 42.4839 23.7139 41.8134 23.7139 40.9862C23.7139 40.1591 24.3844 39.4885 25.2116 39.4885C26.0387 39.4885 26.7093 40.1591 26.7093 40.9862Z" fill="#DCDEDF"/>
<path d="M20.7183 40.9862C20.7183 41.8134 20.0478 42.4839 19.2206 42.4839C18.3935 42.4839 17.7229 41.8134 17.7229 40.9862C17.7229 40.1591 18.3935 39.4885 19.2206 39.4885C20.0478 39.4885 20.7183 40.1591 20.7183 40.9862Z" fill="#DCDEDF"/>
<path d="M14.7274 40.9862C14.7274 41.8134 14.0568 42.4839 13.2296 42.4839C12.4025 42.4839 11.7319 41.8134 11.7319 40.9862C11.7319 40.1591 12.4025 39.4885 13.2296 39.4885C14.0568 39.4885 14.7274 40.1591 14.7274 40.9862Z" fill="#DCDEDF"/>
<path d="M8.73676 40.9862C8.73676 41.8134 8.06621 42.4839 7.23905 42.4839C6.41188 42.4839 5.74133 41.8134 5.74133 40.9862C5.74133 40.1591 6.41188 39.4885 7.23905 39.4885C8.06621 39.4885 8.73676 40.1591 8.73676 40.9862Z" fill="#DCDEDF"/>
<path d="M26.7093 46.9771C26.7093 47.8043 26.0387 48.4749 25.2116 48.4749C24.3844 48.4749 23.7139 47.8043 23.7139 46.9771C23.7139 46.15 24.3844 45.4794 25.2116 45.4794C26.0387 45.4794 26.7093 46.15 26.7093 46.9771Z" fill="#DCDEDF"/>
<path d="M20.7183 46.9771C20.7183 47.8043 20.0478 48.4749 19.2206 48.4749C18.3935 48.4749 17.7229 47.8043 17.7229 46.9771C17.7229 46.15 18.3935 45.4794 19.2206 45.4794C20.0478 45.4794 20.7183 46.15 20.7183 46.9771Z" fill="#DCDEDF"/>
<path d="M14.7274 46.9771C14.7274 47.8043 14.0568 48.4749 13.2296 48.4749C12.4025 48.4749 11.7319 47.8043 11.7319 46.9771C11.7319 46.15 12.4025 45.4794 13.2296 45.4794C14.0568 45.4794 14.7274 46.15 14.7274 46.9771Z" fill="#DCDEDF"/>
<path d="M8.73676 46.9771C8.73676 47.8043 8.06621 48.4749 7.23905 48.4749C6.41188 48.4749 5.74133 47.8043 5.74133 46.9771C5.74133 46.15 6.41188 45.4794 7.23905 45.4794C8.06621 45.4794 8.73676 46.15 8.73676 46.9771Z" fill="#DCDEDF"/>
<path d="M32.6998 34.9953C32.6998 35.8225 32.0292 36.493 31.2021 36.493C30.3749 36.493 29.7043 35.8225 29.7043 34.9953C29.7043 34.1681 30.3749 33.4976 31.2021 33.4976C32.0292 33.4976 32.6998 34.1681 32.6998 34.9953Z" fill="#DCDEDF"/>
<path d="M32.6998 40.9862C32.6998 41.8134 32.0292 42.4839 31.2021 42.4839C30.3749 42.4839 29.7043 41.8134 29.7043 40.9862C29.7043 40.1591 30.3749 39.4885 31.2021 39.4885C32.0292 39.4885 32.6998 40.1591 32.6998 40.9862Z" fill="#DCDEDF"/>
<path d="M32.6998 46.9771C32.6998 47.8043 32.0292 48.4749 31.2021 48.4749C30.3749 48.4749 29.7043 47.8043 29.7043 46.9771C29.7043 46.15 30.3749 45.4794 31.2021 45.4794C32.0292 45.4794 32.6998 46.15 32.6998 46.9771Z" fill="#DCDEDF"/>
<path d="M38.6911 34.9953C38.6911 35.8225 38.0206 36.493 37.1934 36.493C36.3662 36.493 35.6957 35.8225 35.6957 34.9953C35.6957 34.1681 36.3662 33.4976 37.1934 33.4976C38.0206 33.4976 38.6911 34.1681 38.6911 34.9953Z" fill="#DCDEDF"/>
<path d="M38.6911 40.9862C38.6911 41.8134 38.0206 42.4839 37.1934 42.4839C36.3662 42.4839 35.6957 41.8134 35.6957 40.9862C35.6957 40.1591 36.3662 39.4885 37.1934 39.4885C38.0206 39.4885 38.6911 40.1591 38.6911 40.9862Z" fill="#DCDEDF"/>
<path d="M38.6911 46.9771C38.6911 47.8043 38.0206 48.4749 37.1934 48.4749C36.3662 48.4749 35.6957 47.8043 35.6957 46.9771C35.6957 46.15 36.3662 45.4794 37.1934 45.4794C38.0206 45.4794 38.6911 46.15 38.6911 46.9771Z" fill="#DCDEDF"/>
<path d="M50.5895 24.0122L59.9086 32L50.5895 39.9878L50.5895 24.0122Z" fill="black"/>
<path fill-rule="evenodd" clip-rule="evenodd" d="M47.9269 18.2231L63.9999 32L47.9269 45.7769L47.9269 18.2231ZM50.5895 24.0122L50.5895 39.9878L59.9086 32L50.5895 24.0122Z" fill="white"/>
</svg>
