<svg width="32" height="32" viewBox="0 0 32 32" fill="none" xmlns="http://www.w3.org/2000/svg">
<g clip-path="url(#clip0_1967_19895)">
<path d="M25.2948 12.0061L29.9544 16L25.2948 19.9939L25.2948 12.0061Z" fill="black"/>
<path fill-rule="evenodd" clip-rule="evenodd" d="M23.9635 9.11155L32 16L23.9635 22.8885L23.9635 9.11155ZM25.2948 12.0061L25.2948 19.9939L29.9544 16L25.2948 12.0061Z" fill="white"/>
<path d="M23.0898 4.01828H1.59764C0.71533 4.01828 7.43866e-05 4.73354 7.43866e-05 5.61585V21.5915C7.43866e-05 25.1207 2.86109 27.9817 6.39032 27.9817H23.0898V4.01828Z" fill="white"/>
<path d="M9.7352 11.5069C9.7352 11.9205 10.0705 12.2557 10.4841 12.2557C10.8976 12.2557 11.2329 11.9205 11.2329 11.5069C11.2329 11.0933 10.8976 10.758 10.4841 10.758C10.0705 10.758 9.7352 11.0933 9.7352 11.5069Z" fill="#DCDEDF"/>
<path d="M12.7306 11.5069C12.7306 11.9205 13.0658 12.2557 13.4794 12.2557C13.893 12.2557 14.2283 11.9205 14.2283 11.5069C14.2283 11.0933 13.893 10.758 13.4794 10.758C13.0658 10.758 12.7306 11.0933 12.7306 11.5069Z" fill="#DCDEDF"/>
<path d="M15.726 11.5069C15.726 11.9205 16.0613 12.2557 16.4749 12.2557C16.8885 12.2557 17.2238 11.9205 17.2238 11.5069C17.2238 11.0933 16.8885 10.758 16.4749 10.758C16.0613 10.758 15.726 11.0933 15.726 11.5069Z" fill="#DCDEDF"/>
<path d="M18.7214 11.5069C18.7214 11.9205 19.0567 12.2557 19.4703 12.2557C19.8838 12.2557 20.2191 11.9205 20.2191 11.5069C20.2191 11.0933 19.8838 10.758 19.4703 10.758C19.0567 10.758 18.7214 11.0933 18.7214 11.5069Z" fill="#DCDEDF"/>
<path d="M6.73983 11.5069C6.73983 11.9205 7.07511 12.2557 7.48869 12.2557C7.90227 12.2557 8.23755 11.9205 8.23755 11.5069C8.23755 11.0933 7.90227 10.758 7.48869 10.758C7.07511 10.758 6.73983 11.0933 6.73983 11.5069Z" fill="#DCDEDF"/>
<path d="M3.74423 11.5069C3.74423 11.9205 4.0795 12.2557 4.49309 12.2557C4.90667 12.2557 5.24194 11.9205 5.24194 11.5069C5.24194 11.0933 4.90667 10.758 4.49309 10.758C4.0795 10.758 3.74423 11.0933 3.74423 11.5069Z" fill="#DCDEDF"/>
<path d="M9.7352 14.5022C9.7352 14.9158 10.0705 15.2511 10.4841 15.2511C10.8976 15.2511 11.2329 14.9158 11.2329 14.5022C11.2329 14.0886 10.8976 13.7533 10.4841 13.7533C10.0705 13.7533 9.7352 14.0886 9.7352 14.5022Z" fill="#DCDEDF"/>
<path d="M12.7306 14.5022C12.7306 14.9158 13.0658 15.2511 13.4794 15.2511C13.893 15.2511 14.2283 14.9158 14.2283 14.5022C14.2283 14.0886 13.893 13.7533 13.4794 13.7533C13.0658 13.7533 12.7306 14.0886 12.7306 14.5022Z" fill="#DCDEDF"/>
<path d="M15.726 14.5022C15.726 14.9158 16.0613 15.2511 16.4749 15.2511C16.8885 15.2511 17.2238 14.9158 17.2238 14.5022C17.2238 14.0886 16.8885 13.7533 16.4749 13.7533C16.0613 13.7533 15.726 14.0886 15.726 14.5022Z" fill="#DCDEDF"/>
<path d="M18.7214 14.5022C18.7214 14.9158 19.0567 15.2511 19.4703 15.2511C19.8838 15.2511 20.2191 14.9158 20.2191 14.5022C20.2191 14.0886 19.8838 13.7533 19.4703 13.7533C19.0567 13.7533 18.7214 14.0886 18.7214 14.5022Z" fill="#DCDEDF"/>
<path d="M6.73983 14.5022C6.73983 14.9158 7.07511 15.2511 7.48869 15.2511C7.90227 15.2511 8.23755 14.9158 8.23755 14.5022C8.23755 14.0886 7.90227 13.7533 7.48869 13.7533C7.07511 13.7533 6.73983 14.0886 6.73983 14.5022Z" fill="#DCDEDF"/>
<path d="M3.74423 14.5022C3.74423 14.9158 4.0795 15.2511 4.49309 15.2511C4.90667 15.2511 5.24194 14.9158 5.24194 14.5022C5.24194 14.0886 4.90667 13.7533 4.49309 13.7533C4.0795 13.7533 3.74423 14.0886 3.74423 14.5022Z" fill="#DCDEDF"/>
<path d="M9.7352 17.4977C9.7352 17.9112 10.0705 18.2465 10.4841 18.2465C10.8976 18.2465 11.2329 17.9112 11.2329 17.4977C11.2329 17.0841 10.8976 16.7488 10.4841 16.7488C10.0705 16.7488 9.7352 17.0841 9.7352 17.4977Z" fill="#DCDEDF"/>
<path d="M12.7306 17.4977C12.7306 17.9112 13.0658 18.2465 13.4794 18.2465C13.893 18.2465 14.2283 17.9112 14.2283 17.4977C14.2283 17.0841 13.893 16.7488 13.4794 16.7488C13.0658 16.7488 12.7306 17.0841 12.7306 17.4977Z" fill="#DCDEDF"/>
<path d="M15.726 17.4977C15.726 17.9112 16.0613 18.2465 16.4749 18.2465C16.8885 18.2465 17.2238 17.9112 17.2238 17.4977C17.2238 17.0841 16.8885 16.7488 16.4749 16.7488C16.0613 16.7488 15.726 17.0841 15.726 17.4977Z" fill="#DCDEDF"/>
<path d="M18.7214 17.4977C18.7214 17.9112 19.0567 18.2465 19.4703 18.2465C19.8838 18.2465 20.2191 17.9112 20.2191 17.4977C20.2191 17.0841 19.8838 16.7488 19.4703 16.7488C19.0567 16.7488 18.7214 17.0841 18.7214 17.4977Z" fill="#DCDEDF"/>
<path d="M9.7352 20.4931C9.7352 20.9067 10.0705 21.242 10.4841 21.242C10.8976 21.242 11.2329 20.9067 11.2329 20.4931C11.2329 20.0795 10.8976 19.7443 10.4841 19.7443C10.0705 19.7443 9.7352 20.0795 9.7352 20.4931Z" fill="#DCDEDF"/>
<path d="M12.7306 20.4931C12.7306 20.9067 13.0658 21.242 13.4794 21.242C13.893 21.242 14.2283 20.9067 14.2283 20.4931C14.2283 20.0795 13.893 19.7443 13.4794 19.7443C13.0658 19.7443 12.7306 20.0795 12.7306 20.4931Z" fill="#DCDEDF"/>
<path d="M15.726 20.4931C15.726 20.9067 16.0613 21.242 16.4749 21.242C16.8885 21.242 17.2238 20.9067 17.2238 20.4931C17.2238 20.0795 16.8885 19.7443 16.4749 19.7443C16.0613 19.7443 15.726 20.0795 15.726 20.4931Z" fill="#DCDEDF"/>
<path d="M18.7214 20.4931C18.7214 20.9067 19.0567 21.242 19.4703 21.242C19.8838 21.242 20.2191 20.9067 20.2191 20.4931C20.2191 20.0795 19.8838 19.7443 19.4703 19.7443C19.0567 19.7443 18.7214 20.0795 18.7214 20.4931Z" fill="#DCDEDF"/>
<path d="M9.7352 23.4886C9.7352 23.9022 10.0705 24.2374 10.4841 24.2374C10.8976 24.2374 11.2329 23.9022 11.2329 23.4886C11.2329 23.075 10.8976 22.7397 10.4841 22.7397C10.0705 22.7397 9.7352 23.075 9.7352 23.4886Z" fill="#DCDEDF"/>
<path d="M12.7306 23.4886C12.7306 23.9022 13.0658 24.2374 13.4794 24.2374C13.893 24.2374 14.2283 23.9022 14.2283 23.4886C14.2283 23.075 13.893 22.7397 13.4794 22.7397C13.0658 22.7397 12.7306 23.075 12.7306 23.4886Z" fill="#DCDEDF"/>
<path d="M15.726 23.4886C15.726 23.9022 16.0613 24.2374 16.4749 24.2374C16.8885 24.2374 17.2238 23.9022 17.2238 23.4886C17.2238 23.075 16.8885 22.7397 16.4749 22.7397C16.0613 22.7397 15.726 23.075 15.726 23.4886Z" fill="#DCDEDF"/>
<path d="M18.7214 23.4886C18.7214 23.9022 19.0567 24.2374 19.4703 24.2374C19.8838 24.2374 20.2191 23.9022 20.2191 23.4886C20.2191 23.075 19.8838 22.7397 19.4703 22.7397C19.0567 22.7397 18.7214 23.075 18.7214 23.4886Z" fill="#DCDEDF"/>
<path d="M6.73983 17.4977C6.73983 17.9112 7.07511 18.2465 7.48869 18.2465C7.90227 18.2465 8.23755 17.9112 8.23755 17.4977C8.23755 17.0841 7.90227 16.7488 7.48869 16.7488C7.07511 16.7488 6.73983 17.0841 6.73983 17.4977Z" fill="#DCDEDF"/>
<path d="M6.73983 20.4931C6.73983 20.9067 7.07511 21.242 7.48869 21.242C7.90227 21.242 8.23755 20.9067 8.23755 20.4931C8.23755 20.0795 7.90227 19.7443 7.48869 19.7443C7.07511 19.7443 6.73983 20.0795 6.73983 20.4931Z" fill="#DCDEDF"/>
<path d="M6.73983 23.4886C6.73983 23.9022 7.07511 24.2374 7.48869 24.2374C7.90227 24.2374 8.23755 23.9022 8.23755 23.4886C8.23755 23.075 7.90227 22.7397 7.48869 22.7397C7.07511 22.7397 6.73983 23.075 6.73983 23.4886Z" fill="#DCDEDF"/>
<path d="M3.74423 17.4977C3.74423 17.9112 4.0795 18.2465 4.49309 18.2465C4.90667 18.2465 5.24194 17.9112 5.24194 17.4977C5.24194 17.0841 4.90667 16.7488 4.49309 16.7488C4.0795 16.7488 3.74423 17.0841 3.74423 17.4977Z" fill="#DCDEDF"/>
<path d="M3.74423 20.4931C3.74423 20.9067 4.0795 21.242 4.49309 21.242C4.90667 21.242 5.24194 20.9067 5.24194 20.4931C5.24194 20.0795 4.90667 19.7443 4.49309 19.7443C4.0795 19.7443 3.74423 20.0795 3.74423 20.4931Z" fill="#DCDEDF"/>
<path d="M3.74423 23.4886C3.74423 23.9022 4.0795 24.2374 4.49309 24.2374C4.90667 24.2374 5.24194 23.9022 5.24194 23.4886C5.24194 23.075 4.90667 22.7397 4.49309 22.7397C4.0795 22.7397 3.74423 23.075 3.74423 23.4886Z" fill="#DCDEDF"/>
</g>
<defs>
<clipPath id="clip0_1967_19895">
<rect width="32" height="32" fill="white"/>
</clipPath>
</defs>
</svg>
