<svg width="64" height="64" viewBox="0 0 64 64" fill="none" xmlns="http://www.w3.org/2000/svg">
<g clip-path="url(#clip0_1967:14948)">
<path d="M64 15.0806C64 13.8182 62.9767 12.7948 61.7143 12.7948H2.28571C1.02334 12.7948 0 13.8182 0 15.0806V40.2234C0 45.2729 4.0934 49.3663 9.14285 49.3663H54.8571C59.9066 49.3663 64 45.2729 64 40.2234V15.0806Z" fill="white"/>
<path d="M56.0001 24.2234C56.0001 24.8546 56.5117 25.3663 57.1429 25.3663C57.7741 25.3663 58.2858 24.8546 58.2858 24.2234C58.2858 23.5922 57.7741 23.0806 57.1429 23.0806C56.5117 23.0806 56.0001 23.5922 56.0001 24.2234Z" fill="#DCDEDF"/>
<path d="M42.2857 24.2234C42.2857 24.8546 42.7974 25.3663 43.4286 25.3663C44.0597 25.3663 44.5714 24.8546 44.5714 24.2234C44.5714 23.5922 44.0597 23.0806 43.4286 23.0806C42.7974 23.0806 42.2857 23.5922 42.2857 24.2234Z" fill="#DCDEDF"/>
<path d="M28.5715 24.2234C28.5715 24.8546 29.0831 25.3663 29.7143 25.3663C30.3455 25.3663 30.8572 24.8546 30.8572 24.2234C30.8572 23.5922 30.3455 23.0806 29.7143 23.0806C29.0831 23.0806 28.5715 23.5922 28.5715 24.2234Z" fill="#DCDEDF"/>
<path d="M56.0001 28.7948C56.0001 29.426 56.5117 29.9377 57.1429 29.9377C57.7741 29.9377 58.2858 29.426 58.2858 28.7948C58.2858 28.1637 57.7741 27.652 57.1429 27.652C56.5117 27.652 56.0001 28.1637 56.0001 28.7948Z" fill="#DCDEDF"/>
<path d="M42.2857 28.7948C42.2857 29.426 42.7974 29.9377 43.4286 29.9377C44.0597 29.9377 44.5714 29.426 44.5714 28.7948C44.5714 28.1637 44.0597 27.652 43.4286 27.652C42.7974 27.652 42.2857 28.1637 42.2857 28.7948Z" fill="#DCDEDF"/>
<path d="M28.5715 28.7948C28.5715 29.426 29.0831 29.9377 29.7143 29.9377C30.3455 29.9377 30.8572 29.426 30.8572 28.7948C30.8572 28.1637 30.3455 27.652 29.7143 27.652C29.0831 27.652 28.5715 28.1637 28.5715 28.7948Z" fill="#DCDEDF"/>
<path d="M56.0001 33.3663C56.0001 33.9975 56.5117 34.5091 57.1429 34.5091C57.7741 34.5091 58.2858 33.9975 58.2858 33.3663C58.2858 32.7351 57.7741 32.2234 57.1429 32.2234C56.5117 32.2234 56.0001 32.7351 56.0001 33.3663Z" fill="#DCDEDF"/>
<path d="M56.0001 37.9377C56.0001 38.5689 56.5117 39.0806 57.1429 39.0806C57.7741 39.0806 58.2858 38.5689 58.2858 37.9377C58.2858 37.3065 57.7741 36.7948 57.1429 36.7948C56.5117 36.7948 56.0001 37.3065 56.0001 37.9377Z" fill="#DCDEDF"/>
<path d="M56.0001 42.5091C56.0001 43.1403 56.5117 43.652 57.1429 43.652C57.7741 43.652 58.2858 43.1403 58.2858 42.5091C58.2858 41.878 57.7741 41.3663 57.1429 41.3663C56.5117 41.3663 56.0001 41.878 56.0001 42.5091Z" fill="#DCDEDF"/>
<path d="M51.4285 24.2234C51.4285 24.8546 51.9402 25.3663 52.5714 25.3663C53.2026 25.3663 53.7142 24.8546 53.7142 24.2234C53.7142 23.5922 53.2026 23.0806 52.5714 23.0806C51.9402 23.0806 51.4285 23.5922 51.4285 24.2234Z" fill="#DCDEDF"/>
<path d="M37.7143 24.2234C37.7143 24.8546 38.226 25.3663 38.8571 25.3663C39.4883 25.3663 40 24.8546 40 24.2234C40 23.5922 39.4883 23.0806 38.8571 23.0806C38.226 23.0806 37.7143 23.5922 37.7143 24.2234Z" fill="#DCDEDF"/>
<path d="M24.0001 24.2234C24.0001 24.8546 24.5117 25.3663 25.1429 25.3663C25.7741 25.3663 26.2858 24.8546 26.2858 24.2234C26.2858 23.5922 25.7741 23.0806 25.1429 23.0806C24.5117 23.0806 24.0001 23.5922 24.0001 24.2234Z" fill="#DCDEDF"/>
<path d="M46.8571 24.2234C46.8571 24.8546 47.3688 25.3663 48 25.3663C48.6311 25.3663 49.1428 24.8546 49.1428 24.2234C49.1428 23.5922 48.6311 23.0806 48 23.0806C47.3688 23.0806 46.8571 23.5922 46.8571 24.2234Z" fill="#DCDEDF"/>
<path d="M33.1429 24.2234C33.1429 24.8546 33.6545 25.3663 34.2857 25.3663C34.9169 25.3663 35.4286 24.8546 35.4286 24.2234C35.4286 23.5922 34.9169 23.0806 34.2857 23.0806C33.6545 23.0806 33.1429 23.5922 33.1429 24.2234Z" fill="#DCDEDF"/>
<path d="M19.4285 24.2234C19.4285 24.8546 19.9402 25.3663 20.5714 25.3663C21.2026 25.3663 21.7142 24.8546 21.7142 24.2234C21.7142 23.5922 21.2026 23.0806 20.5714 23.0806C19.9402 23.0806 19.4285 23.5922 19.4285 24.2234Z" fill="#DCDEDF"/>
<path d="M14.8571 24.2234C14.8571 24.8546 15.3688 25.3663 16 25.3663C16.6311 25.3663 17.1428 24.8546 17.1428 24.2234C17.1428 23.5922 16.6311 23.0806 16 23.0806C15.3688 23.0806 14.8571 23.5922 14.8571 24.2234Z" fill="#DCDEDF"/>
<path d="M10.2857 24.2234C10.2857 24.8546 10.7974 25.3663 11.4286 25.3663C12.0597 25.3663 12.5714 24.8546 12.5714 24.2234C12.5714 23.5922 12.0597 23.0806 11.4286 23.0806C10.7974 23.0806 10.2857 23.5922 10.2857 24.2234Z" fill="#DCDEDF"/>
<path d="M5.71429 24.2234C5.71429 24.8546 6.22596 25.3663 6.85714 25.3663C7.48833 25.3663 8 24.8546 8 24.2234C8 23.5922 7.48833 23.0806 6.85714 23.0806C6.22596 23.0806 5.71429 23.5922 5.71429 24.2234Z" fill="#DCDEDF"/>
<path d="M51.4285 28.7948C51.4285 29.426 51.9402 29.9377 52.5714 29.9377C53.2026 29.9377 53.7142 29.426 53.7142 28.7948C53.7142 28.1637 53.2026 27.652 52.5714 27.652C51.9402 27.652 51.4285 28.1637 51.4285 28.7948Z" fill="#DCDEDF"/>
<path d="M37.7143 28.7948C37.7143 29.426 38.226 29.9377 38.8571 29.9377C39.4883 29.9377 40 29.426 40 28.7948C40 28.1637 39.4883 27.652 38.8571 27.652C38.226 27.652 37.7143 28.1637 37.7143 28.7948Z" fill="#DCDEDF"/>
<path d="M24.0001 28.7948C24.0001 29.426 24.5117 29.9377 25.1429 29.9377C25.7741 29.9377 26.2858 29.426 26.2858 28.7948C26.2858 28.1637 25.7741 27.652 25.1429 27.652C24.5117 27.652 24.0001 28.1637 24.0001 28.7948Z" fill="#DCDEDF"/>
<path d="M46.8571 28.7948C46.8571 29.426 47.3688 29.9377 48 29.9377C48.6311 29.9377 49.1428 29.426 49.1428 28.7948C49.1428 28.1637 48.6311 27.652 48 27.652C47.3688 27.652 46.8571 28.1637 46.8571 28.7948Z" fill="#DCDEDF"/>
<path d="M33.1429 28.7948C33.1429 29.426 33.6545 29.9377 34.2857 29.9377C34.9169 29.9377 35.4286 29.426 35.4286 28.7948C35.4286 28.1637 34.9169 27.652 34.2857 27.652C33.6545 27.652 33.1429 28.1637 33.1429 28.7948Z" fill="#DCDEDF"/>
<path d="M19.4285 28.7948C19.4285 29.426 19.9402 29.9377 20.5714 29.9377C21.2026 29.9377 21.7142 29.426 21.7142 28.7948C21.7142 28.1637 21.2026 27.652 20.5714 27.652C19.9402 27.652 19.4285 28.1637 19.4285 28.7948Z" fill="#DCDEDF"/>
<path d="M14.8571 28.7948C14.8571 29.426 15.3688 29.9377 16 29.9377C16.6311 29.9377 17.1428 29.426 17.1428 28.7948C17.1428 28.1637 16.6311 27.652 16 27.652C15.3688 27.652 14.8571 28.1637 14.8571 28.7948Z" fill="#DCDEDF"/>
<path d="M10.2857 28.7948C10.2857 29.426 10.7974 29.9377 11.4286 29.9377C12.0597 29.9377 12.5714 29.426 12.5714 28.7948C12.5714 28.1637 12.0597 27.652 11.4286 27.652C10.7974 27.652 10.2857 28.1637 10.2857 28.7948Z" fill="#DCDEDF"/>
<path d="M5.71429 28.7948C5.71429 29.426 6.22596 29.9377 6.85714 29.9377C7.48833 29.9377 8 29.426 8 28.7948C8 28.1637 7.48833 27.652 6.85714 27.652C6.22596 27.652 5.71429 28.1637 5.71429 28.7948Z" fill="#DCDEDF"/>
<path d="M51.4285 33.3663C51.4285 33.9975 51.9402 34.5091 52.5714 34.5091C53.2026 34.5091 53.7142 33.9975 53.7142 33.3663C53.7142 32.7351 53.2026 32.2234 52.5714 32.2234C51.9402 32.2234 51.4285 32.7351 51.4285 33.3663Z" fill="#DCDEDF"/>
<path d="M51.4285 37.9377C51.4285 38.5689 51.9402 39.0806 52.5714 39.0806C53.2026 39.0806 53.7142 38.5689 53.7142 37.9377C53.7142 37.3065 53.2026 36.7948 52.5714 36.7948C51.9402 36.7948 51.4285 37.3065 51.4285 37.9377Z" fill="#DCDEDF"/>
<path d="M51.4285 42.5091C51.4285 43.1403 51.9402 43.652 52.5714 43.652C53.2026 43.652 53.7142 43.1403 53.7142 42.5091C53.7142 41.878 53.2026 41.3663 52.5714 41.3663C51.9402 41.3663 51.4285 41.878 51.4285 42.5091Z" fill="#DCDEDF"/>
<path d="M46.8571 33.3663C46.8571 33.9975 47.3688 34.5091 48 34.5091C48.6311 34.5091 49.1428 33.9975 49.1428 33.3663C49.1428 32.7351 48.6311 32.2234 48 32.2234C47.3688 32.2234 46.8571 32.7351 46.8571 33.3663Z" fill="#DCDEDF"/>
<path d="M42.2857 33.3663C42.2857 33.9975 42.7974 34.5091 43.4286 34.5091C44.0597 34.5091 44.5714 33.9975 44.5714 33.3663C44.5714 32.7351 44.0597 32.2234 43.4286 32.2234C42.7974 32.2234 42.2857 32.7351 42.2857 33.3663Z" fill="#DCDEDF"/>
<path d="M46.8571 37.9377C46.8571 38.5689 47.3688 39.0806 48 39.0806C48.6311 39.0806 49.1428 38.5689 49.1428 37.9377C49.1428 37.3065 48.6311 36.7948 48 36.7948C47.3688 36.7948 46.8571 37.3065 46.8571 37.9377Z" fill="#DCDEDF"/>
<path d="M46.8571 42.5091C46.8571 43.1403 47.3688 43.652 48 43.652C48.6311 43.652 49.1428 43.1403 49.1428 42.5091C49.1428 41.878 48.6311 41.3663 48 41.3663C47.3688 41.3663 46.8571 41.878 46.8571 42.5091Z" fill="#DCDEDF"/>
<path d="M14.8571 33.3663C14.8571 33.9975 15.3688 34.5091 16 34.5091C16.6311 34.5091 17.1428 33.9975 17.1428 33.3663C17.1428 32.7351 16.6311 32.2234 16 32.2234C15.3688 32.2234 14.8571 32.7351 14.8571 33.3663Z" fill="#DCDEDF"/>
<path d="M19.4285 33.3663C19.4285 33.9975 19.9402 34.5091 20.5714 34.5091C21.2026 34.5091 21.7142 33.9975 21.7142 33.3663C21.7142 32.7351 21.2026 32.2234 20.5714 32.2234C19.9402 32.2234 19.4285 32.7351 19.4285 33.3663Z" fill="#DCDEDF"/>
<path d="M14.8571 37.9377C14.8571 38.5689 15.3688 39.0806 16 39.0806C16.6311 39.0806 17.1428 38.5689 17.1428 37.9377C17.1428 37.3065 16.6311 36.7948 16 36.7948C15.3688 36.7948 14.8571 37.3065 14.8571 37.9377Z" fill="#DCDEDF"/>
<path d="M14.8571 42.5091C14.8571 43.1403 15.3688 43.652 16 43.652C16.6311 43.652 17.1428 43.1403 17.1428 42.5091C17.1428 41.878 16.6311 41.3663 16 41.3663C15.3688 41.3663 14.8571 41.878 14.8571 42.5091Z" fill="#DCDEDF"/>
<path d="M10.2857 33.3663C10.2857 33.9975 10.7974 34.5091 11.4286 34.5091C12.0597 34.5091 12.5714 33.9975 12.5714 33.3663C12.5714 32.7351 12.0597 32.2234 11.4286 32.2234C10.7974 32.2234 10.2857 32.7351 10.2857 33.3663Z" fill="#DCDEDF"/>
<path d="M10.2857 37.9377C10.2857 38.5689 10.7974 39.0806 11.4286 39.0806C12.0597 39.0806 12.5714 38.5689 12.5714 37.9377C12.5714 37.3065 12.0597 36.7948 11.4286 36.7948C10.7974 36.7948 10.2857 37.3065 10.2857 37.9377Z" fill="#DCDEDF"/>
<path d="M10.2857 42.5091C10.2857 43.1403 10.7974 43.652 11.4286 43.652C12.0597 43.652 12.5714 43.1403 12.5714 42.5091C12.5714 41.878 12.0597 41.3663 11.4286 41.3663C10.7974 41.3663 10.2857 41.878 10.2857 42.5091Z" fill="#DCDEDF"/>
<path d="M5.71429 33.3663C5.71429 33.9975 6.22596 34.5091 6.85714 34.5091C7.48833 34.5091 8 33.9975 8 33.3663C8 32.7351 7.48833 32.2234 6.85714 32.2234C6.22596 32.2234 5.71429 32.7351 5.71429 33.3663Z" fill="#DCDEDF"/>
<path d="M5.71429 37.9377C5.71429 38.5689 6.22596 39.0806 6.85714 39.0806C7.48833 39.0806 8 38.5689 8 37.9377C8 37.3065 7.48833 36.7948 6.85714 36.7948C6.22596 36.7948 5.71429 37.3065 5.71429 37.9377Z" fill="#DCDEDF"/>
<path d="M5.71429 42.5091C5.71429 43.1403 6.22596 43.652 6.85714 43.652C7.48833 43.652 8 43.1403 8 42.5091C8 41.878 7.48833 41.3663 6.85714 41.3663C6.22596 41.3663 5.71429 41.878 5.71429 42.5091Z" fill="#DCDEDF"/>
<path d="M39.9912 45.4729L34.4275 51.2074V37.9377H29.5725V51.2074L24.0087 45.4729L20.5714 49.0157L32 60.7948L43.4286 49.0157L39.9912 45.4729Z" fill="black"/>
<path fill-rule="evenodd" clip-rule="evenodd" d="M39.9913 42.1904L46.6133 49.0157L32 64.0773L17.3867 49.0157L24.0088 42.1904L27.2868 45.5691V35.652H36.7132V45.5691L39.9913 42.1904ZM34.4275 51.2074V37.9377H29.5726V51.2074L24.0088 45.4729L20.5715 49.0157L32 60.7948L43.4286 49.0157L39.9913 45.4729L34.4275 51.2074Z" fill="white"/>
</g>
<defs>
<clipPath id="clip0_1967:14948">
<rect width="64" height="64" fill="white"/>
</clipPath>
</defs>
</svg>
