<svg width="32" height="32" viewBox="0 0 32 32" fill="none" xmlns="http://www.w3.org/2000/svg">
<path d="M32 8C32 7.36882 31.4883 6.85715 30.8571 6.85715H1.14285C0.511673 6.85715 0 7.36882 0 8V20.5714C0 23.0962 2.0467 25.1429 4.57143 25.1429H27.4286C29.9533 25.1429 32 23.0962 32 20.5714V8Z" fill="white"/>
<path d="M14.2857 12.5714C14.2857 12.887 14.5416 13.1429 14.8572 13.1429C15.1728 13.1429 15.4286 12.887 15.4286 12.5714C15.4286 12.2558 15.1728 12 14.8572 12C14.5416 12 14.2857 12.2558 14.2857 12.5714Z" fill="#DCDEDF"/>
<path d="M14.2857 14.8571C14.2857 15.1727 14.5416 15.4286 14.8572 15.4286C15.1728 15.4286 15.4286 15.1727 15.4286 14.8571C15.4286 14.5416 15.1728 14.2857 14.8572 14.2857C14.5416 14.2857 14.2857 14.5416 14.2857 14.8571Z" fill="#DCDEDF"/>
<path d="M14.2857 17.1429C14.2857 17.4584 14.5416 17.7143 14.8572 17.7143C15.1728 17.7143 15.4286 17.4584 15.4286 17.1429C15.4286 16.8273 15.1728 16.5714 14.8572 16.5714C14.5416 16.5714 14.2857 16.8273 14.2857 17.1429Z" fill="#DCDEDF"/>
<path d="M14.2857 19.4286C14.2857 19.7442 14.5416 20 14.8572 20C15.1728 20 15.4286 19.7442 15.4286 19.4286C15.4286 19.113 15.1728 18.8571 14.8572 18.8571C14.5416 18.8571 14.2857 19.113 14.2857 19.4286Z" fill="#DCDEDF"/>
<path d="M14.2857 21.7143C14.2857 22.0299 14.5416 22.2857 14.8572 22.2857C15.1728 22.2857 15.4286 22.0299 15.4286 21.7143C15.4286 21.3987 15.1728 21.1429 14.8572 21.1429C14.5416 21.1429 14.2857 21.3987 14.2857 21.7143Z" fill="#DCDEDF"/>
<path d="M12 12.5714C12 12.887 12.2558 13.1429 12.5714 13.1429C12.887 13.1429 13.1428 12.887 13.1428 12.5714C13.1428 12.2558 12.887 12 12.5714 12C12.2558 12 12 12.2558 12 12.5714Z" fill="#DCDEDF"/>
<path d="M9.71432 12.5714C9.71432 12.887 9.97016 13.1429 10.2857 13.1429C10.6013 13.1429 10.8572 12.887 10.8572 12.5714C10.8572 12.2558 10.6013 12 10.2857 12C9.97016 12 9.71432 12.2558 9.71432 12.5714Z" fill="#DCDEDF"/>
<path d="M7.42855 12.5714C7.42855 12.887 7.68439 13.1429 7.99998 13.1429C8.31557 13.1429 8.57141 12.887 8.57141 12.5714C8.57141 12.2558 8.31557 12 7.99998 12C7.68439 12 7.42855 12.2558 7.42855 12.5714Z" fill="#DCDEDF"/>
<path d="M5.14291 12.5714C5.14291 12.887 5.39875 13.1429 5.71434 13.1429C6.02993 13.1429 6.28577 12.887 6.28577 12.5714C6.28577 12.2558 6.02993 12 5.71434 12C5.39875 12 5.14291 12.2558 5.14291 12.5714Z" fill="#DCDEDF"/>
<path d="M2.85714 12.5714C2.85714 12.887 3.11298 13.1429 3.42857 13.1429C3.74416 13.1429 4 12.887 4 12.5714C4 12.2558 3.74416 12 3.42857 12C3.11298 12 2.85714 12.2558 2.85714 12.5714Z" fill="#DCDEDF"/>
<path d="M12 14.8571C12 15.1727 12.2558 15.4286 12.5714 15.4286C12.887 15.4286 13.1428 15.1727 13.1428 14.8571C13.1428 14.5416 12.887 14.2857 12.5714 14.2857C12.2558 14.2857 12 14.5416 12 14.8571Z" fill="#DCDEDF"/>
<path d="M9.71432 14.8571C9.71432 15.1727 9.97016 15.4286 10.2857 15.4286C10.6013 15.4286 10.8572 15.1727 10.8572 14.8571C10.8572 14.5416 10.6013 14.2857 10.2857 14.2857C9.97016 14.2857 9.71432 14.5416 9.71432 14.8571Z" fill="#DCDEDF"/>
<path d="M7.42855 14.8571C7.42855 15.1727 7.68439 15.4286 7.99998 15.4286C8.31557 15.4286 8.57141 15.1727 8.57141 14.8571C8.57141 14.5416 8.31557 14.2857 7.99998 14.2857C7.68439 14.2857 7.42855 14.5416 7.42855 14.8571Z" fill="#DCDEDF"/>
<path d="M5.14291 14.8571C5.14291 15.1727 5.39875 15.4286 5.71434 15.4286C6.02993 15.4286 6.28577 15.1727 6.28577 14.8571C6.28577 14.5416 6.02993 14.2857 5.71434 14.2857C5.39875 14.2857 5.14291 14.5416 5.14291 14.8571Z" fill="#DCDEDF"/>
<path d="M2.85714 14.8571C2.85714 15.1727 3.11298 15.4286 3.42857 15.4286C3.74416 15.4286 4 15.1727 4 14.8571C4 14.5416 3.74416 14.2857 3.42857 14.2857C3.11298 14.2857 2.85714 14.5416 2.85714 14.8571Z" fill="#DCDEDF"/>
<path d="M12 17.1429C12 17.4584 12.2558 17.7143 12.5714 17.7143C12.887 17.7143 13.1428 17.4584 13.1428 17.1429C13.1428 16.8273 12.887 16.5714 12.5714 16.5714C12.2558 16.5714 12 16.8273 12 17.1429Z" fill="#DCDEDF"/>
<path d="M12 19.4286C12 19.7442 12.2558 20 12.5714 20C12.887 20 13.1428 19.7442 13.1428 19.4286C13.1428 19.113 12.887 18.8571 12.5714 18.8571C12.2558 18.8571 12 19.113 12 19.4286Z" fill="#DCDEDF"/>
<path d="M12 21.7143C12 22.0299 12.2558 22.2857 12.5714 22.2857C12.887 22.2857 13.1428 22.0299 13.1428 21.7143C13.1428 21.3987 12.887 21.1429 12.5714 21.1429C12.2558 21.1429 12 21.3987 12 21.7143Z" fill="#DCDEDF"/>
<path d="M9.71432 17.1429C9.71432 17.4584 9.97016 17.7143 10.2857 17.7143C10.6013 17.7143 10.8572 17.4584 10.8572 17.1429C10.8572 16.8273 10.6013 16.5714 10.2857 16.5714C9.97016 16.5714 9.71432 16.8273 9.71432 17.1429Z" fill="#DCDEDF"/>
<path d="M9.71432 19.4286C9.71432 19.7442 9.97016 20 10.2857 20C10.6013 20 10.8572 19.7442 10.8572 19.4286C10.8572 19.113 10.6013 18.8571 10.2857 18.8571C9.97016 18.8571 9.71432 19.113 9.71432 19.4286Z" fill="#DCDEDF"/>
<path d="M9.71432 21.7143C9.71432 22.0299 9.97016 22.2857 10.2857 22.2857C10.6013 22.2857 10.8572 22.0299 10.8572 21.7143C10.8572 21.3987 10.6013 21.1429 10.2857 21.1429C9.97016 21.1429 9.71432 21.3987 9.71432 21.7143Z" fill="#DCDEDF"/>
<path d="M7.42855 17.1429C7.42855 17.4584 7.68439 17.7143 7.99998 17.7143C8.31557 17.7143 8.57141 17.4584 8.57141 17.1429C8.57141 16.8273 8.31557 16.5714 7.99998 16.5714C7.68439 16.5714 7.42855 16.8273 7.42855 17.1429Z" fill="#DCDEDF"/>
<path d="M7.42855 19.4286C7.42855 19.7442 7.68439 20 7.99998 20C8.31557 20 8.57141 19.7442 8.57141 19.4286C8.57141 19.113 8.31557 18.8571 7.99998 18.8571C7.68439 18.8571 7.42855 19.113 7.42855 19.4286Z" fill="#DCDEDF"/>
<path d="M7.42855 21.7143C7.42855 22.0299 7.68439 22.2857 7.99998 22.2857C8.31557 22.2857 8.57141 22.0299 8.57141 21.7143C8.57141 21.3987 8.31557 21.1429 7.99998 21.1429C7.68439 21.1429 7.42855 21.3987 7.42855 21.7143Z" fill="#DCDEDF"/>
<path d="M5.14291 17.1429C5.14291 17.4584 5.39875 17.7143 5.71434 17.7143C6.02993 17.7143 6.28577 17.4584 6.28577 17.1429C6.28577 16.8273 6.02993 16.5714 5.71434 16.5714C5.39875 16.5714 5.14291 16.8273 5.14291 17.1429Z" fill="#DCDEDF"/>
<path d="M5.14291 19.4286C5.14291 19.7442 5.39875 20 5.71434 20C6.02993 20 6.28577 19.7442 6.28577 19.4286C6.28577 19.113 6.02993 18.8571 5.71434 18.8571C5.39875 18.8571 5.14291 19.113 5.14291 19.4286Z" fill="#DCDEDF"/>
<path d="M5.14291 21.7143C5.14291 22.0299 5.39875 22.2857 5.71434 22.2857C6.02993 22.2857 6.28577 22.0299 6.28577 21.7143C6.28577 21.3987 6.02993 21.1429 5.71434 21.1429C5.39875 21.1429 5.14291 21.3987 5.14291 21.7143Z" fill="#DCDEDF"/>
<path d="M2.85714 17.1429C2.85714 17.4584 3.11298 17.7143 3.42857 17.7143C3.74416 17.7143 4 17.4584 4 17.1429C4 16.8273 3.74416 16.5714 3.42857 16.5714C3.11298 16.5714 2.85714 16.8273 2.85714 17.1429Z" fill="#DCDEDF"/>
<path d="M2.85714 19.4286C2.85714 19.7442 3.11298 20 3.42857 20C3.74416 20 4 19.7442 4 19.4286C4 19.113 3.74416 18.8571 3.42857 18.8571C3.11298 18.8571 2.85714 19.113 2.85714 19.4286Z" fill="#DCDEDF"/>
<path d="M2.85714 21.7143C2.85714 22.0299 3.11298 22.2857 3.42857 22.2857C3.74416 22.2857 4 22.0299 4 21.7143C4 21.3987 3.74416 21.1429 3.42857 21.1429C3.11298 21.1429 2.85714 21.3987 2.85714 21.7143Z" fill="#DCDEDF"/>
<path fill-rule="evenodd" clip-rule="evenodd" d="M18.2857 16C18.2857 19.1559 20.844 21.7143 23.9999 21.7143C27.1559 21.7143 29.7142 19.1559 29.7142 16C29.7142 12.8441 27.1559 10.2857 23.9999 10.2857C20.844 10.2857 18.2857 12.8441 18.2857 16ZM23.9999 20.5714C21.4752 20.5714 19.4285 18.5247 19.4285 16C19.4285 13.4753 21.4752 11.4286 23.9999 11.4286C26.5247 11.4286 28.5714 13.4753 28.5714 16C28.5714 18.5247 26.5247 20.5714 23.9999 20.5714Z" fill="black"/>
<path d="M25.8524 17.7143H24.7552L23.9952 16.4457H23.9095H23.4352V17.7143H22.4467V13.7143H24.0009C24.5724 13.7143 24.9952 13.8267 25.2695 14.0514C25.5438 14.2762 25.6809 14.5924 25.6809 15C25.6809 15.3086 25.6143 15.5676 25.4809 15.7771C25.3514 15.9829 25.1686 16.139 24.9324 16.2457L25.8524 17.7143ZM23.4352 14.56V15.6H23.9724C24.1743 15.6 24.3324 15.5543 24.4467 15.4629C24.5648 15.3676 24.6238 15.2305 24.6238 15.0514C24.6238 14.8876 24.5705 14.7657 24.4638 14.6857C24.3571 14.6019 24.1876 14.56 23.9552 14.56H23.4352Z" fill="black"/>
</svg>
