<svg width="64" height="64" viewBox="0 0 64 64" fill="none" xmlns="http://www.w3.org/2000/svg">
<g clip-path="url(#clip0_1967:19964)">
<path d="M55.3521 7.18655H9.66124C8.48661 7.18655 7.53437 8.13879 7.53437 9.31342V48.3061C7.53437 53.0046 11.3433 56.8136 16.0418 56.8136H55.3521V7.18655Z" fill="white"/>
<circle cx="34.6402" cy="22.695" r="1.55084" fill="#DCDEDF"/>
<circle cx="28.4368" cy="22.695" r="1.55084" fill="#DCDEDF"/>
<circle cx="34.6402" cy="28.8985" r="1.55084" fill="#DCDEDF"/>
<circle cx="28.4368" cy="28.8985" r="1.55084" fill="#DCDEDF"/>
<circle cx="16.0303" cy="28.8985" r="1.55084" fill="#DCDEDF"/>
<circle cx="47.0469" cy="28.8985" r="1.55084" fill="#DCDEDF"/>
<circle cx="34.6402" cy="35.1018" r="1.55084" fill="#DCDEDF"/>
<circle cx="28.4368" cy="35.1018" r="1.55084" fill="#DCDEDF"/>
<circle cx="16.0303" cy="35.1018" r="1.55084" fill="#DCDEDF"/>
<circle cx="34.6402" cy="41.3051" r="1.55084" fill="#DCDEDF"/>
<circle cx="28.4368" cy="41.3051" r="1.55084" fill="#DCDEDF"/>
<circle cx="34.6402" cy="47.5085" r="1.55084" fill="#DCDEDF"/>
<circle cx="28.4368" cy="47.5085" r="1.55084" fill="#DCDEDF"/>
<circle cx="22.2335" cy="47.5085" r="1.55084" fill="#DCDEDF"/>
<circle cx="16.0303" cy="47.5085" r="1.55084" fill="#DCDEDF"/>
<circle cx="40.8436" cy="47.5085" r="1.55084" fill="#DCDEDF"/>
<circle cx="47.0469" cy="35.1018" r="1.55084" fill="#DCDEDF"/>
<circle cx="47.0469" cy="47.5085" r="1.55084" fill="#DCDEDF"/>
<path fill-rule="evenodd" clip-rule="evenodd" d="M11.1052 43.8582L15.2069 39.502L19.2972 43.8641L25.0095 37.7628L19.6122 32.0106L25.0029 26.2529L19.2997 20.1269L15.2041 24.5082L11.1076 20.1328L-9.72748e-05 32.0154L11.1052 43.8582ZM15.9685 32.0125L21.3657 37.7648L19.2957 39.9758L11.8284 32.0125L19.2957 24.0243L21.3657 26.2478L15.9685 32.0125ZM3.64184 32.0125L11.1092 39.9758L13.1792 37.7773L7.7819 32.0125L13.1792 26.2353L11.1092 24.0243L3.64184 32.0125Z" fill="white"/>
<path fill-rule="evenodd" clip-rule="evenodd" d="M52.8948 43.8582L48.7931 39.502L44.7028 43.8641L38.9905 37.7628L44.3878 32.0106L38.9971 26.2529L44.7003 20.1269L48.7959 24.5082L52.8924 20.1328L64.0001 32.0154L52.8948 43.8582ZM48.0315 32.0125L42.6343 37.7648L44.7043 39.9758L52.1716 32.0125L44.7043 24.0243L42.6343 26.2478L48.0315 32.0125ZM60.3582 32.0125L52.8908 39.9758L50.8208 37.7773L56.2181 32.0125L50.8208 26.2353L52.8908 24.0243L60.3582 32.0125Z" fill="white"/>
<path d="M3.64183 32.0125L11.1091 39.9758L13.1792 37.7773L7.78189 32.0125L13.1792 26.2353L11.1091 24.0243L3.64183 32.0125Z" fill="black"/>
<path d="M15.9684 32.0125L21.3657 37.7648L19.2957 39.9758L11.8284 32.0125L19.2957 24.0243L21.3657 26.2478L15.9684 32.0125Z" fill="black"/>
<path d="M60.3584 32.0125L52.8911 39.9758L50.8211 37.7773L56.2184 32.0125L50.8211 26.2353L52.8911 24.0243L60.3584 32.0125Z" fill="black"/>
<path d="M48.0318 32.0125L42.6345 37.7648L44.7046 39.9758L52.1719 32.0125L44.7046 24.0243L42.6345 26.2478L48.0318 32.0125Z" fill="black"/>
</g>
<defs>
<clipPath id="clip0_1967:19964">
<rect width="64" height="64" fill="white"/>
</clipPath>
</defs>
</svg>
