<svg width="64" height="64" viewBox="0 0 64 64" fill="none" xmlns="http://www.w3.org/2000/svg">
<g clip-path="url(#clip0_1967:19555)">
<path d="M18.4194 8.3474H60.8463C62.588 8.3474 64 9.75935 64 11.5011V43.0379C64 50.0048 58.3522 55.6526 51.3852 55.6526H18.4194V8.3474Z" fill="white"/>
<path d="M44.7823 23.1303C44.7823 23.9468 44.1204 24.6086 43.304 24.6086C42.4875 24.6086 41.8257 23.9468 41.8257 23.1303C41.8257 22.3139 42.4875 21.6521 43.304 21.6521C44.1204 21.6521 44.7823 22.3139 44.7823 23.1303Z" fill="#DCDEDF"/>
<path d="M38.8692 23.1303C38.8692 23.9468 38.2073 24.6086 37.3909 24.6086C36.5744 24.6086 35.9126 23.9468 35.9126 23.1303C35.9126 22.3139 36.5744 21.6521 37.3909 21.6521C38.2073 21.6521 38.8692 22.3139 38.8692 23.1303Z" fill="#DCDEDF"/>
<path d="M32.9558 23.1303C32.9558 23.9468 32.294 24.6086 31.4776 24.6086C30.6611 24.6086 29.9993 23.9468 29.9993 23.1303C29.9993 22.3139 30.6611 21.6521 31.4776 21.6521C32.294 21.6521 32.9558 22.3139 32.9558 23.1303Z" fill="#DCDEDF"/>
<path d="M27.043 23.1303C27.043 23.9468 26.3811 24.6086 25.5647 24.6086C24.7483 24.6086 24.0864 23.9468 24.0864 23.1303C24.0864 22.3139 24.7483 21.6521 25.5647 21.6521C26.3811 21.6521 27.043 22.3139 27.043 23.1303Z" fill="#DCDEDF"/>
<path d="M50.6951 23.1303C50.6951 23.9468 50.0332 24.6086 49.2168 24.6086C48.4004 24.6086 47.7385 23.9468 47.7385 23.1303C47.7385 22.3139 48.4004 21.6521 49.2168 21.6521C50.0332 21.6521 50.6951 22.3139 50.6951 23.1303Z" fill="#DCDEDF"/>
<path d="M56.6087 23.1303C56.6087 23.9468 55.9468 24.6086 55.1304 24.6086C54.314 24.6086 53.6521 23.9468 53.6521 23.1303C53.6521 22.3139 54.314 21.6521 55.1304 21.6521C55.9468 21.6521 56.6087 22.3139 56.6087 23.1303Z" fill="#DCDEDF"/>
<path d="M44.7823 29.0432C44.7823 29.8597 44.1204 30.5215 43.304 30.5215C42.4875 30.5215 41.8257 29.8597 41.8257 29.0432C41.8257 28.2268 42.4875 27.565 43.304 27.565C44.1204 27.565 44.7823 28.2268 44.7823 29.0432Z" fill="#DCDEDF"/>
<path d="M38.8692 29.0432C38.8692 29.8597 38.2073 30.5215 37.3909 30.5215C36.5744 30.5215 35.9126 29.8597 35.9126 29.0432C35.9126 28.2268 36.5744 27.565 37.3909 27.565C38.2073 27.565 38.8692 28.2268 38.8692 29.0432Z" fill="#DCDEDF"/>
<path d="M32.9558 29.0432C32.9558 29.8597 32.294 30.5215 31.4776 30.5215C30.6611 30.5215 29.9993 29.8597 29.9993 29.0432C29.9993 28.2268 30.6611 27.565 31.4776 27.565C32.294 27.565 32.9558 28.2268 32.9558 29.0432Z" fill="#DCDEDF"/>
<path d="M27.043 29.0432C27.043 29.8597 26.3811 30.5215 25.5647 30.5215C24.7483 30.5215 24.0864 29.8597 24.0864 29.0432C24.0864 28.2268 24.7483 27.565 25.5647 27.565C26.3811 27.565 27.043 28.2268 27.043 29.0432Z" fill="#DCDEDF"/>
<path d="M50.6951 29.0432C50.6951 29.8597 50.0332 30.5215 49.2168 30.5215C48.4004 30.5215 47.7385 29.8597 47.7385 29.0432C47.7385 28.2268 48.4004 27.565 49.2168 27.565C50.0332 27.565 50.6951 28.2268 50.6951 29.0432Z" fill="#DCDEDF"/>
<path d="M56.6087 29.0432C56.6087 29.8597 55.9468 30.5215 55.1304 30.5215C54.314 30.5215 53.6521 29.8597 53.6521 29.0432C53.6521 28.2268 54.314 27.565 55.1304 27.565C55.9468 27.565 56.6087 28.2268 56.6087 29.0432Z" fill="#DCDEDF"/>
<path d="M44.7823 34.9565C44.7823 35.7729 44.1204 36.4347 43.304 36.4347C42.4875 36.4347 41.8257 35.7729 41.8257 34.9565C41.8257 34.14 42.4875 33.4782 43.304 33.4782C44.1204 33.4782 44.7823 34.14 44.7823 34.9565Z" fill="#DCDEDF"/>
<path d="M38.8692 34.9565C38.8692 35.7729 38.2073 36.4347 37.3909 36.4347C36.5744 36.4347 35.9126 35.7729 35.9126 34.9565C35.9126 34.14 36.5744 33.4782 37.3909 33.4782C38.2073 33.4782 38.8692 34.14 38.8692 34.9565Z" fill="#DCDEDF"/>
<path d="M32.9558 34.9565C32.9558 35.7729 32.294 36.4347 31.4776 36.4347C30.6611 36.4347 29.9993 35.7729 29.9993 34.9565C29.9993 34.14 30.6611 33.4782 31.4776 33.4782C32.294 33.4782 32.9558 34.14 32.9558 34.9565Z" fill="#DCDEDF"/>
<path d="M27.043 34.9565C27.043 35.7729 26.3811 36.4347 25.5647 36.4347C24.7483 36.4347 24.0864 35.7729 24.0864 34.9565C24.0864 34.14 24.7483 33.4782 25.5647 33.4782C26.3811 33.4782 27.043 34.14 27.043 34.9565Z" fill="#DCDEDF"/>
<path d="M44.7823 40.8697C44.7823 41.6861 44.1204 42.348 43.304 42.348C42.4875 42.348 41.8257 41.6861 41.8257 40.8697C41.8257 40.0532 42.4875 39.3914 43.304 39.3914C44.1204 39.3914 44.7823 40.0532 44.7823 40.8697Z" fill="#DCDEDF"/>
<path d="M38.8692 40.8697C38.8692 41.6861 38.2073 42.348 37.3909 42.348C36.5744 42.348 35.9126 41.6861 35.9126 40.8697C35.9126 40.0532 36.5744 39.3914 37.3909 39.3914C38.2073 39.3914 38.8692 40.0532 38.8692 40.8697Z" fill="#DCDEDF"/>
<path d="M32.9558 40.8697C32.9558 41.6861 32.294 42.348 31.4776 42.348C30.6611 42.348 29.9993 41.6861 29.9993 40.8697C29.9993 40.0532 30.6611 39.3914 31.4776 39.3914C32.294 39.3914 32.9558 40.0532 32.9558 40.8697Z" fill="#DCDEDF"/>
<path d="M27.043 40.8697C27.043 41.6861 26.3811 42.348 25.5647 42.348C24.7483 42.348 24.0864 41.6861 24.0864 40.8697C24.0864 40.0532 24.7483 39.3914 25.5647 39.3914C26.3811 39.3914 27.043 40.0532 27.043 40.8697Z" fill="#DCDEDF"/>
<path d="M44.7823 46.7829C44.7823 47.5993 44.1204 48.2612 43.304 48.2612C42.4875 48.2612 41.8257 47.5993 41.8257 46.7829C41.8257 45.9664 42.4875 45.3046 43.304 45.3046C44.1204 45.3046 44.7823 45.9664 44.7823 46.7829Z" fill="#DCDEDF"/>
<path d="M38.8692 46.7829C38.8692 47.5993 38.2073 48.2612 37.3909 48.2612C36.5744 48.2612 35.9126 47.5993 35.9126 46.7829C35.9126 45.9664 36.5744 45.3046 37.3909 45.3046C38.2073 45.3046 38.8692 45.9664 38.8692 46.7829Z" fill="#DCDEDF"/>
<path d="M32.9558 46.7829C32.9558 47.5993 32.294 48.2612 31.4776 48.2612C30.6611 48.2612 29.9993 47.5993 29.9993 46.7829C29.9993 45.9664 30.6611 45.3046 31.4776 45.3046C32.294 45.3046 32.9558 45.9664 32.9558 46.7829Z" fill="#DCDEDF"/>
<path d="M27.043 46.7829C27.043 47.5993 26.3811 48.2612 25.5647 48.2612C24.7483 48.2612 24.0864 47.5993 24.0864 46.7829C24.0864 45.9664 24.7483 45.3046 25.5647 45.3046C26.3811 45.3046 27.043 45.9664 27.043 46.7829Z" fill="#DCDEDF"/>
<path d="M50.6951 34.9565C50.6951 35.7729 50.0332 36.4347 49.2168 36.4347C48.4004 36.4347 47.7385 35.7729 47.7385 34.9565C47.7385 34.14 48.4004 33.4782 49.2168 33.4782C50.0332 33.4782 50.6951 34.14 50.6951 34.9565Z" fill="#DCDEDF"/>
<path d="M50.6951 40.8697C50.6951 41.6861 50.0332 42.348 49.2168 42.348C48.4004 42.348 47.7385 41.6861 47.7385 40.8697C47.7385 40.0532 48.4004 39.3914 49.2168 39.3914C50.0332 39.3914 50.6951 40.0532 50.6951 40.8697Z" fill="#DCDEDF"/>
<path d="M50.6951 46.7829C50.6951 47.5993 50.0332 48.2612 49.2168 48.2612C48.4004 48.2612 47.7385 47.5993 47.7385 46.7829C47.7385 45.9664 48.4004 45.3046 49.2168 45.3046C50.0332 45.3046 50.6951 45.9664 50.6951 46.7829Z" fill="#DCDEDF"/>
<path d="M56.6087 34.9565C56.6087 35.7729 55.9468 36.4347 55.1304 36.4347C54.314 36.4347 53.6521 35.7729 53.6521 34.9565C53.6521 34.14 54.314 33.4782 55.1304 33.4782C55.9468 33.4782 56.6087 34.14 56.6087 34.9565Z" fill="#DCDEDF"/>
<path d="M56.6087 40.8697C56.6087 41.6861 55.9468 42.348 55.1304 42.348C54.314 42.348 53.6521 41.6861 53.6521 40.8697C53.6521 40.0532 54.314 39.3914 55.1304 39.3914C55.9468 39.3914 56.6087 40.0532 56.6087 40.8697Z" fill="#DCDEDF"/>
<path d="M56.6087 46.7829C56.6087 47.5993 55.9468 48.2612 55.1304 48.2612C54.314 48.2612 53.6521 47.5993 53.6521 46.7829C53.6521 45.9664 54.314 45.3046 55.1304 45.3046C55.9468 45.3046 56.6087 45.9664 56.6087 46.7829Z" fill="#DCDEDF"/>
<path d="M13.1633 39.8842L3.9651 32L13.1633 24.1158L13.1633 39.8842Z" fill="black"/>
<path fill-rule="evenodd" clip-rule="evenodd" d="M15.7914 45.5982L-0.0731812 32L15.7914 18.4018L15.7914 45.5982ZM13.1633 39.8842L13.1633 24.1158L3.96508 32L13.1633 39.8842Z" fill="white"/>
</g>
<defs>
<clipPath id="clip0_1967:19555">
<rect width="64" height="64" fill="white"/>
</clipPath>
</defs>
</svg>
