<svg width="64" height="64" viewBox="0 0 64 64" fill="none" xmlns="http://www.w3.org/2000/svg">
<path d="M62 32C62 48.5685 48.5685 62 32 62C15.4315 62 2 48.5685 2 32V2H62V32Z" fill="white"/>
<path d="M31.3589 38.6667H26.8789L23.7756 33.4867H23.4256H21.4889V38.6667H17.4523V22.3333H23.7989C26.1323 22.3333 27.8589 22.7922 28.9789 23.71C30.0989 24.6278 30.6589 25.9189 30.6589 27.5833C30.6589 28.8433 30.3867 29.9011 29.8423 30.7567C29.3134 31.5967 28.5667 32.2344 27.6023 32.67L31.3589 38.6667ZM21.4889 25.7867V30.0333H23.6823C24.5067 30.0333 25.1523 29.8467 25.6189 29.4733C26.1012 29.0844 26.3423 28.5244 26.3423 27.7933C26.3423 27.1244 26.1245 26.6267 25.6889 26.3C25.2534 25.9578 24.5612 25.7867 23.6123 25.7867H21.4889Z" fill="black"/>
<path d="M39.6916 35.19H47.0183V38.6667H34.5816V35.3533L39.295 31.5267C40.0261 30.92 40.5783 30.4378 40.9516 30.08C41.325 29.7222 41.6128 29.3567 41.815 28.9833C42.0328 28.61 42.1416 28.1978 42.1416 27.7467C42.1416 27.0467 41.8694 26.5178 41.325 26.16C40.7961 25.8022 40.1194 25.6233 39.295 25.6233C38.6728 25.6233 38.0583 25.7167 37.4516 25.9033C36.845 26.0744 36.3005 26.3078 35.8183 26.6033L34.5116 23.6167C35.2583 23.1344 36.0905 22.7533 37.0083 22.4733C37.9416 22.1933 38.9372 22.0533 39.995 22.0533C41.955 22.0533 43.5339 22.4656 44.7316 23.29C45.9294 24.0989 46.5283 25.2967 46.5283 26.8833C46.5283 27.9722 46.2172 28.9678 45.595 29.87C44.9883 30.7567 44.0472 31.7133 42.7716 32.74L39.6916 35.19Z" fill="black"/>
</svg>
