<svg width="64" height="64" viewBox="0 0 64 64" fill="none" xmlns="http://www.w3.org/2000/svg">
<g clip-path="url(#clip0_1967:20101)">
<path d="M54.5366 0H13.2218C11.5258 0 10.1508 1.37494 10.1508 3.07102V33.7812C10.1508 40.5655 15.6506 46.0653 22.4349 46.0653H54.5366V0Z" fill="white"/>
<path d="M28.8648 14.3955C28.8648 15.1905 29.5093 15.835 30.3044 15.835C31.0994 15.835 31.7439 15.1905 31.7439 14.3955C31.7439 13.6004 31.0994 12.9559 30.3044 12.9559C29.5093 12.9559 28.8648 13.6004 28.8648 14.3955Z" fill="#DCDEDF"/>
<path d="M34.623 14.3955C34.623 15.1905 35.2675 15.835 36.0625 15.835C36.8576 15.835 37.5021 15.1905 37.5021 14.3955C37.5021 13.6004 36.8576 12.9559 36.0625 12.9559C35.2675 12.9559 34.623 13.6004 34.623 14.3955Z" fill="#DCDEDF"/>
<path d="M40.3813 14.3955C40.3813 15.1905 41.0258 15.835 41.8208 15.835C42.6159 15.835 43.2604 15.1905 43.2604 14.3955C43.2604 13.6004 42.6159 12.9559 41.8208 12.9559C41.0258 12.9559 40.3813 13.6004 40.3813 14.3955Z" fill="#DCDEDF"/>
<path d="M46.1392 14.3955C46.1392 15.1905 46.7837 15.835 47.5788 15.835C48.3738 15.835 49.0183 15.1905 49.0183 14.3955C49.0183 13.6004 48.3738 12.9559 47.5788 12.9559C46.7837 12.9559 46.1392 13.6004 46.1392 14.3955Z" fill="#DCDEDF"/>
<path d="M23.107 14.3955C23.107 15.1905 23.7515 15.835 24.5465 15.835C25.3416 15.835 25.9861 15.1905 25.9861 14.3955C25.9861 13.6004 25.3416 12.9559 24.5465 12.9559C23.7515 12.9559 23.107 13.6004 23.107 14.3955Z" fill="#DCDEDF"/>
<path d="M17.3483 14.3955C17.3483 15.1905 17.9928 15.835 18.7879 15.835C19.5829 15.835 20.2274 15.1905 20.2274 14.3955C20.2274 13.6004 19.5829 12.9559 18.7879 12.9559C17.9928 12.9559 17.3483 13.6004 17.3483 14.3955Z" fill="#DCDEDF"/>
<path d="M28.8648 20.1534C28.8648 20.9484 29.5093 21.5929 30.3044 21.5929C31.0994 21.5929 31.7439 20.9484 31.7439 20.1534C31.7439 19.3583 31.0994 18.7138 30.3044 18.7138C29.5093 18.7138 28.8648 19.3583 28.8648 20.1534Z" fill="#DCDEDF"/>
<path d="M34.623 20.1534C34.623 20.9484 35.2675 21.5929 36.0625 21.5929C36.8576 21.5929 37.5021 20.9484 37.5021 20.1534C37.5021 19.3583 36.8576 18.7138 36.0625 18.7138C35.2675 18.7138 34.623 19.3583 34.623 20.1534Z" fill="#DCDEDF"/>
<path d="M40.3813 20.1534C40.3813 20.9484 41.0258 21.5929 41.8208 21.5929C42.6159 21.5929 43.2604 20.9484 43.2604 20.1534C43.2604 19.3583 42.6159 18.7138 41.8208 18.7138C41.0258 18.7138 40.3813 19.3583 40.3813 20.1534Z" fill="#DCDEDF"/>
<path d="M46.1392 20.1534C46.1392 20.9484 46.7837 21.5929 47.5788 21.5929C48.3738 21.5929 49.0183 20.9484 49.0183 20.1534C49.0183 19.3583 48.3738 18.7138 47.5788 18.7138C46.7837 18.7138 46.1392 19.3583 46.1392 20.1534Z" fill="#DCDEDF"/>
<path d="M23.107 20.1534C23.107 20.9484 23.7515 21.5929 24.5465 21.5929C25.3416 21.5929 25.9861 20.9484 25.9861 20.1534C25.9861 19.3583 25.3416 18.7138 24.5465 18.7138C23.7515 18.7138 23.107 19.3583 23.107 20.1534Z" fill="#DCDEDF"/>
<path d="M17.3483 20.1534C17.3483 20.9484 17.9928 21.5929 18.7879 21.5929C19.5829 21.5929 20.2274 20.9484 20.2274 20.1534C20.2274 19.3583 19.5829 18.7138 18.7879 18.7138C17.9928 18.7138 17.3483 19.3583 17.3483 20.1534Z" fill="#DCDEDF"/>
<path d="M28.8648 25.9116C28.8648 26.7066 29.5093 27.3511 30.3044 27.3511C31.0994 27.3511 31.7439 26.7066 31.7439 25.9116C31.7439 25.1166 31.0994 24.4721 30.3044 24.4721C29.5093 24.4721 28.8648 25.1166 28.8648 25.9116Z" fill="#DCDEDF"/>
<path d="M34.623 25.9116C34.623 26.7066 35.2675 27.3511 36.0625 27.3511C36.8576 27.3511 37.5021 26.7066 37.5021 25.9116C37.5021 25.1166 36.8576 24.4721 36.0625 24.4721C35.2675 24.4721 34.623 25.1166 34.623 25.9116Z" fill="#DCDEDF"/>
<path d="M40.3813 25.9116C40.3813 26.7066 41.0258 27.3511 41.8208 27.3511C42.6159 27.3511 43.2604 26.7066 43.2604 25.9116C43.2604 25.1166 42.6159 24.4721 41.8208 24.4721C41.0258 24.4721 40.3813 25.1166 40.3813 25.9116Z" fill="#DCDEDF"/>
<path d="M46.1392 25.9116C46.1392 26.7066 46.7837 27.3511 47.5788 27.3511C48.3738 27.3511 49.0183 26.7066 49.0183 25.9116C49.0183 25.1166 48.3738 24.4721 47.5788 24.4721C46.7837 24.4721 46.1392 25.1166 46.1392 25.9116Z" fill="#DCDEDF"/>
<path d="M28.8648 31.6698C28.8648 32.4648 29.5093 33.1093 30.3044 33.1093C31.0994 33.1093 31.7439 32.4648 31.7439 31.6698C31.7439 30.8748 31.0994 30.2303 30.3044 30.2303C29.5093 30.2303 28.8648 30.8748 28.8648 31.6698Z" fill="#DCDEDF"/>
<path d="M34.623 31.6698C34.623 32.4648 35.2675 33.1093 36.0625 33.1093C36.8576 33.1093 37.5021 32.4648 37.5021 31.6698C37.5021 30.8748 36.8576 30.2303 36.0625 30.2303C35.2675 30.2303 34.623 30.8748 34.623 31.6698Z" fill="#DCDEDF"/>
<path d="M40.3813 31.6698C40.3813 32.4648 41.0258 33.1093 41.8208 33.1093C42.6159 33.1093 43.2604 32.4648 43.2604 31.6698C43.2604 30.8748 42.6159 30.2303 41.8208 30.2303C41.0258 30.2303 40.3813 30.8748 40.3813 31.6698Z" fill="#DCDEDF"/>
<path d="M46.1392 31.6698C46.1392 32.4648 46.7837 33.1093 47.5788 33.1093C48.3738 33.1093 49.0183 32.4648 49.0183 31.6698C49.0183 30.8748 48.3738 30.2303 47.5788 30.2303C46.7837 30.2303 46.1392 30.8748 46.1392 31.6698Z" fill="#DCDEDF"/>
<path d="M28.8648 37.428C28.8648 38.2231 29.5093 38.8676 30.3044 38.8676C31.0994 38.8676 31.7439 38.2231 31.7439 37.428C31.7439 36.633 31.0994 35.9885 30.3044 35.9885C29.5093 35.9885 28.8648 36.633 28.8648 37.428Z" fill="#DCDEDF"/>
<path d="M34.623 37.428C34.623 38.2231 35.2675 38.8676 36.0625 38.8676C36.8576 38.8676 37.5021 38.2231 37.5021 37.428C37.5021 36.633 36.8576 35.9885 36.0625 35.9885C35.2675 35.9885 34.623 36.633 34.623 37.428Z" fill="#DCDEDF"/>
<path d="M40.3813 37.428C40.3813 38.2231 41.0258 38.8676 41.8208 38.8676C42.6159 38.8676 43.2604 38.2231 43.2604 37.428C43.2604 36.633 42.6159 35.9885 41.8208 35.9885C41.0258 35.9885 40.3813 36.633 40.3813 37.428Z" fill="#DCDEDF"/>
<path d="M46.1392 37.428C46.1392 38.2231 46.7837 38.8676 47.5788 38.8676C48.3738 38.8676 49.0183 38.2231 49.0183 37.428C49.0183 36.633 48.3738 35.9885 47.5788 35.9885C46.7837 35.9885 46.1392 36.633 46.1392 37.428Z" fill="#DCDEDF"/>
<path d="M23.107 25.9116C23.107 26.7066 23.7515 27.3511 24.5465 27.3511C25.3416 27.3511 25.9861 26.7066 25.9861 25.9116C25.9861 25.1166 25.3416 24.4721 24.5465 24.4721C23.7515 24.4721 23.107 25.1166 23.107 25.9116Z" fill="#DCDEDF"/>
<path d="M23.107 31.6698C23.107 32.4648 23.7515 33.1093 24.5465 33.1093C25.3416 33.1093 25.9861 32.4648 25.9861 31.6698C25.9861 30.8748 25.3416 30.2303 24.5465 30.2303C23.7515 30.2303 23.107 30.8748 23.107 31.6698Z" fill="#DCDEDF"/>
<path d="M23.107 37.428C23.107 38.2231 23.7515 38.8676 24.5465 38.8676C25.3416 38.8676 25.9861 38.2231 25.9861 37.428C25.9861 36.633 25.3416 35.9885 24.5465 35.9885C23.7515 35.9885 23.107 36.633 23.107 37.428Z" fill="#DCDEDF"/>
<path d="M17.3483 25.9116C17.3483 26.7066 17.9928 27.3511 18.7879 27.3511C19.5829 27.3511 20.2274 26.7066 20.2274 25.9116C20.2274 25.1166 19.5829 24.4721 18.7879 24.4721C17.9928 24.4721 17.3483 25.1166 17.3483 25.9116Z" fill="#DCDEDF"/>
<path d="M17.3483 31.6698C17.3483 32.4648 17.9928 33.1093 18.7879 33.1093C19.5829 33.1093 20.2274 32.4648 20.2274 31.6698C20.2274 30.8748 19.5829 30.2303 18.7879 30.2303C17.9928 30.2303 17.3483 30.8748 17.3483 31.6698Z" fill="#DCDEDF"/>
<path d="M17.3483 37.428C17.3483 38.2231 17.9928 38.8676 18.7879 38.8676C19.5829 38.8676 20.2274 38.2231 20.2274 37.428C20.2274 36.633 19.5829 35.9885 18.7879 35.9885C17.9928 35.9885 17.3483 36.633 17.3483 37.428Z" fill="#DCDEDF"/>
<path d="M40.8611 51.1836L33.1835 60.1408L25.506 51.1836H40.8611Z" fill="black"/>
<path fill-rule="evenodd" clip-rule="evenodd" d="M46.4253 48.6245L33.1835 64.0732L19.9418 48.6245H46.4253ZM40.8611 51.1836H25.506L33.1835 60.1408L40.8611 51.1836Z" fill="white"/>
</g>
<defs>
<clipPath id="clip0_1967:20101">
<rect width="64" height="64" fill="white"/>
</clipPath>
</defs>
</svg>
