<svg width="64" height="64" viewBox="0 0 64 64" fill="none" xmlns="http://www.w3.org/2000/svg">
<path d="M64 7.41021H19.6872C17.9896 7.41021 16.6134 8.78636 16.6134 10.4839V44.2949C16.6134 51.0852 22.1181 56.5898 28.9083 56.5898H64V7.41021Z" fill="white"/>
<path d="M55.0348 22.7788C55.0348 23.6276 55.7229 24.3157 56.5717 24.3157C57.4204 24.3157 58.1085 23.6276 58.1085 22.7788C58.1085 21.93 57.4204 21.2419 56.5717 21.2419C55.7229 21.2419 55.0348 21.93 55.0348 22.7788Z" fill="#DCDEDF"/>
<path d="M55.0348 28.9263C55.0348 29.7751 55.7229 30.4632 56.5717 30.4632C57.4204 30.4632 58.1085 29.7751 58.1085 28.9263C58.1085 28.0775 57.4204 27.3895 56.5717 27.3895C55.7229 27.3895 55.0348 28.0775 55.0348 28.9263Z" fill="#DCDEDF"/>
<path d="M55.0348 35.0737C55.0348 35.9225 55.7229 36.6106 56.5717 36.6106C57.4204 36.6106 58.1085 35.9225 58.1085 35.0737C58.1085 34.225 57.4204 33.5369 56.5717 33.5369C55.7229 33.5369 55.0348 34.225 55.0348 35.0737Z" fill="#DCDEDF"/>
<path d="M55.0348 41.2212C55.0348 42.07 55.7229 42.758 56.5717 42.758C57.4204 42.758 58.1085 42.07 58.1085 41.2212C58.1085 40.3724 57.4204 39.6843 56.5717 39.6843C55.7229 39.6843 55.0348 40.3724 55.0348 41.2212Z" fill="#DCDEDF"/>
<path d="M55.0348 47.3686C55.0348 48.2174 55.7229 48.9055 56.5717 48.9055C57.4204 48.9055 58.1085 48.2174 58.1085 47.3686C58.1085 46.5198 57.4204 45.8317 56.5717 45.8317C55.7229 45.8317 55.0348 46.5198 55.0348 47.3686Z" fill="#DCDEDF"/>
<path d="M48.8877 22.7788C48.8877 23.6276 49.5758 24.3157 50.4246 24.3157C51.2733 24.3157 51.9614 23.6276 51.9614 22.7788C51.9614 21.93 51.2733 21.2419 50.4246 21.2419C49.5758 21.2419 48.8877 21.93 48.8877 22.7788Z" fill="#DCDEDF"/>
<path d="M42.7399 22.7788C42.7399 23.6276 43.428 24.3157 44.2767 24.3157C45.1255 24.3157 45.8136 23.6276 45.8136 22.7788C45.8136 21.93 45.1255 21.2419 44.2767 21.2419C43.428 21.2419 42.7399 21.93 42.7399 22.7788Z" fill="#DCDEDF"/>
<path d="M48.8877 28.9263C48.8877 29.7751 49.5758 30.4632 50.4246 30.4632C51.2733 30.4632 51.9614 29.7751 51.9614 28.9263C51.9614 28.0775 51.2733 27.3895 50.4246 27.3895C49.5758 27.3895 48.8877 28.0775 48.8877 28.9263Z" fill="#DCDEDF"/>
<path d="M42.7399 28.9263C42.7399 29.7751 43.428 30.4632 44.2767 30.4632C45.1255 30.4632 45.8136 29.7751 45.8136 28.9263C45.8136 28.0775 45.1255 27.3895 44.2767 27.3895C43.428 27.3895 42.7399 28.0775 42.7399 28.9263Z" fill="#DCDEDF"/>
<path d="M48.8877 35.0737C48.8877 35.9225 49.5758 36.6106 50.4246 36.6106C51.2733 36.6106 51.9614 35.9225 51.9614 35.0737C51.9614 34.225 51.2733 33.5369 50.4246 33.5369C49.5758 33.5369 48.8877 34.225 48.8877 35.0737Z" fill="#DCDEDF"/>
<path d="M48.8877 41.2212C48.8877 42.07 49.5758 42.758 50.4246 42.758C51.2733 42.758 51.9614 42.07 51.9614 41.2212C51.9614 40.3724 51.2733 39.6843 50.4246 39.6843C49.5758 39.6843 48.8877 40.3724 48.8877 41.2212Z" fill="#DCDEDF"/>
<path d="M48.8877 47.3686C48.8877 48.2174 49.5758 48.9055 50.4246 48.9055C51.2733 48.9055 51.9614 48.2174 51.9614 47.3686C51.9614 46.5198 51.2733 45.8317 50.4246 45.8317C49.5758 45.8317 48.8877 46.5198 48.8877 47.3686Z" fill="#DCDEDF"/>
<path d="M42.7399 35.0737C42.7399 35.9225 43.428 36.6106 44.2767 36.6106C45.1255 36.6106 45.8136 35.9225 45.8136 35.0737C45.8136 34.225 45.1255 33.5369 44.2767 33.5369C43.428 33.5369 42.7399 34.225 42.7399 35.0737Z" fill="#DCDEDF"/>
<path d="M42.7399 41.2212C42.7399 42.07 43.428 42.758 44.2767 42.758C45.1255 42.758 45.8136 42.07 45.8136 41.2212C45.8136 40.3724 45.1255 39.6843 44.2767 39.6843C43.428 39.6843 42.7399 40.3724 42.7399 41.2212Z" fill="#DCDEDF"/>
<path d="M42.7399 47.3686C42.7399 48.2174 43.428 48.9055 44.2767 48.9055C45.1255 48.9055 45.8136 48.2174 45.8136 47.3686C45.8136 46.5198 45.1255 45.8317 44.2767 45.8317C43.428 45.8317 42.7399 46.5198 42.7399 47.3686Z" fill="#DCDEDF"/>
<path d="M36.5927 41.2212C36.5927 42.07 37.2807 42.758 38.1295 42.758C38.9783 42.758 39.6664 42.07 39.6664 41.2212C39.6664 40.3724 38.9783 39.6843 38.1295 39.6843C37.2807 39.6843 36.5927 40.3724 36.5927 41.2212Z" fill="#DCDEDF"/>
<path d="M36.5927 47.3686C36.5927 48.2174 37.2807 48.9055 38.1295 48.9055C38.9783 48.9055 39.6664 48.2174 39.6664 47.3686C39.6664 46.5198 38.9783 45.8317 38.1295 45.8317C37.2807 45.8317 36.5927 46.5198 36.5927 47.3686Z" fill="#DCDEDF"/>
<path d="M30.4454 47.3686C30.4454 48.2174 31.1335 48.9055 31.9823 48.9055C32.8311 48.9055 33.5192 48.2174 33.5192 47.3686C33.5192 46.5198 32.8311 45.8317 31.9823 45.8317C31.1335 45.8317 30.4454 46.5198 30.4454 47.3686Z" fill="#DCDEDF"/>
<path d="M20.9765 23.0448L14.5503 29.2797H29.4207V34.7203H14.5503L20.9765 40.9552L17.0064 44.8072L3.8063 32L17.0064 19.1928L20.9765 23.0448Z" fill="black"/>
<path fill-rule="evenodd" clip-rule="evenodd" d="M24.6549 23.0448L17.0064 15.6239L0.127871 32L17.0064 48.3761L24.6549 40.9552L20.8687 37.2817H31.9821V26.7183H20.8687L24.6549 23.0448ZM14.5503 29.2797H29.4206V34.7203H14.5503L20.9765 40.9552L17.0064 44.8072L3.80627 32L17.0064 19.1928L20.9765 23.0448L14.5503 29.2797Z" fill="white"/>
</svg>
