<svg width="32" height="32" viewBox="0 0 32 32" fill="none" xmlns="http://www.w3.org/2000/svg">
<path fill-rule="evenodd" clip-rule="evenodd" d="M31 6.85718C31.5523 6.85718 32 7.30489 32 7.85718V21.1429C32 23.352 30.2091 25.1429 28 25.1429H4C1.79086 25.1429 0 23.352 0 21.1429V7.85718C0 7.30489 0.447713 6.85718 0.999998 6.85718H31ZM12.5714 13.1429C12.2558 13.1429 12 12.887 12 12.5714C12 12.2558 12.2558 12 12.5714 12C12.887 12 13.1428 12.2558 13.1428 12.5714C13.1428 12.887 12.887 13.1429 12.5714 13.1429ZM9.71432 12.5714C9.71432 12.887 9.97016 13.1429 10.2857 13.1429C10.6013 13.1429 10.8572 12.887 10.8572 12.5714C10.8572 12.2558 10.6013 12 10.2857 12C9.97016 12 9.71432 12.2558 9.71432 12.5714ZM7.99998 13.1429C7.68439 13.1429 7.42855 12.887 7.42855 12.5714C7.42855 12.2558 7.68439 12 7.99998 12C8.31557 12 8.57141 12.2558 8.57141 12.5714C8.57141 12.887 8.31557 13.1429 7.99998 13.1429ZM5.14279 12.5714C5.14279 12.887 5.39862 13.1429 5.71422 13.1429C6.02981 13.1429 6.28564 12.887 6.28564 12.5714C6.28564 12.2558 6.02981 12 5.71422 12C5.39862 12 5.14279 12.2558 5.14279 12.5714ZM3.42857 13.1429C3.11298 13.1429 2.85714 12.887 2.85714 12.5714C2.85714 12.2558 3.11298 12 3.42857 12C3.74416 12 4 12.2558 4 12.5714C4 12.887 3.74416 13.1429 3.42857 13.1429ZM12 14.8571C12 15.1727 12.2558 15.4285 12.5714 15.4285C12.887 15.4285 13.1428 15.1727 13.1428 14.8571C13.1428 14.5415 12.887 14.2856 12.5714 14.2856C12.2558 14.2856 12 14.5415 12 14.8571ZM10.2857 15.4285C9.97016 15.4285 9.71432 15.1727 9.71432 14.8571C9.71432 14.5415 9.97016 14.2856 10.2857 14.2856C10.6013 14.2856 10.8572 14.5415 10.8572 14.8571C10.8572 15.1727 10.6013 15.4285 10.2857 15.4285ZM7.42855 14.8571C7.42855 15.1727 7.68439 15.4285 7.99998 15.4285C8.31557 15.4285 8.57141 15.1727 8.57141 14.8571C8.57141 14.5415 8.31557 14.2856 7.99998 14.2856C7.68439 14.2856 7.42855 14.5415 7.42855 14.8571ZM5.71422 15.4285C5.39862 15.4285 5.14279 15.1727 5.14279 14.8571C5.14279 14.5415 5.39862 14.2856 5.71422 14.2856C6.02981 14.2856 6.28564 14.5415 6.28564 14.8571C6.28564 15.1727 6.02981 15.4285 5.71422 15.4285ZM2.85714 14.8571C2.85714 15.1727 3.11298 15.4285 3.42857 15.4285C3.74416 15.4285 4 15.1727 4 14.8571C4 14.5415 3.74416 14.2856 3.42857 14.2856C3.11298 14.2856 2.85714 14.5415 2.85714 14.8571ZM12.5714 17.7143C12.2558 17.7143 12 17.4584 12 17.1428C12 16.8272 12.2558 16.5714 12.5714 16.5714C12.887 16.5714 13.1428 16.8272 13.1428 17.1428C13.1428 17.4584 12.887 17.7143 12.5714 17.7143ZM12 19.4286C12 19.7442 12.2558 20 12.5714 20C12.887 20 13.1428 19.7442 13.1428 19.4286C13.1428 19.113 12.887 18.8572 12.5714 18.8572C12.2558 18.8572 12 19.113 12 19.4286ZM12.5714 22.2857C12.2558 22.2857 12 22.0298 12 21.7143C12 21.3987 12.2558 21.1428 12.5714 21.1428C12.887 21.1428 13.1428 21.3987 13.1428 21.7143C13.1428 22.0298 12.887 22.2857 12.5714 22.2857ZM9.71432 17.1428C9.71432 17.4584 9.97016 17.7143 10.2857 17.7143C10.6013 17.7143 10.8572 17.4584 10.8572 17.1428C10.8572 16.8272 10.6013 16.5714 10.2857 16.5714C9.97016 16.5714 9.71432 16.8272 9.71432 17.1428ZM10.2857 20C9.97016 20 9.71432 19.7442 9.71432 19.4286C9.71432 19.113 9.97016 18.8572 10.2857 18.8572C10.6013 18.8572 10.8572 19.113 10.8572 19.4286C10.8572 19.7442 10.6013 20 10.2857 20ZM9.71432 21.7143C9.71432 22.0298 9.97016 22.2857 10.2857 22.2857C10.6013 22.2857 10.8572 22.0298 10.8572 21.7143C10.8572 21.3987 10.6013 21.1428 10.2857 21.1428C9.97016 21.1428 9.71432 21.3987 9.71432 21.7143ZM7.99998 17.7143C7.68439 17.7143 7.42855 17.4584 7.42855 17.1428C7.42855 16.8272 7.68439 16.5714 7.99998 16.5714C8.31557 16.5714 8.57141 16.8272 8.57141 17.1428C8.57141 17.4584 8.31557 17.7143 7.99998 17.7143ZM7.42855 19.4286C7.42855 19.7442 7.68439 20 7.99998 20C8.31557 20 8.57141 19.7442 8.57141 19.4286C8.57141 19.113 8.31557 18.8572 7.99998 18.8572C7.68439 18.8572 7.42855 19.113 7.42855 19.4286ZM7.99998 22.2857C7.68439 22.2857 7.42855 22.0298 7.42855 21.7143C7.42855 21.3987 7.68439 21.1428 7.99998 21.1428C8.31557 21.1428 8.57141 21.3987 8.57141 21.7143C8.57141 22.0298 8.31557 22.2857 7.99998 22.2857ZM5.14279 17.1428C5.14279 17.4584 5.39862 17.7143 5.71422 17.7143C6.02981 17.7143 6.28564 17.4584 6.28564 17.1428C6.28564 16.8272 6.02981 16.5714 5.71422 16.5714C5.39862 16.5714 5.14279 16.8272 5.14279 17.1428ZM5.71422 20C5.39862 20 5.14279 19.7442 5.14279 19.4286C5.14279 19.113 5.39862 18.8572 5.71422 18.8572C6.02981 18.8572 6.28564 19.113 6.28564 19.4286C6.28564 19.7442 6.02981 20 5.71422 20ZM5.14279 21.7143C5.14279 22.0298 5.39862 22.2857 5.71422 22.2857C6.02981 22.2857 6.28564 22.0298 6.28564 21.7143C6.28564 21.3987 6.02981 21.1428 5.71422 21.1428C5.39862 21.1428 5.14279 21.3987 5.14279 21.7143ZM3.42857 17.7143C3.11298 17.7143 2.85714 17.4584 2.85714 17.1428C2.85714 16.8272 3.11298 16.5714 3.42857 16.5714C3.74416 16.5714 4 16.8272 4 17.1428C4 17.4584 3.74416 17.7143 3.42857 17.7143ZM2.85714 19.4286C2.85714 19.7442 3.11298 20 3.42857 20C3.74416 20 4 19.7442 4 19.4286C4 19.113 3.74416 18.8572 3.42857 18.8572C3.11298 18.8572 2.85714 19.113 2.85714 19.4286ZM3.42857 22.2857C3.11298 22.2857 2.85714 22.0298 2.85714 21.7143C2.85714 21.3987 3.11298 21.1428 3.42857 21.1428C3.74416 21.1428 4 21.3987 4 21.7143C4 22.0298 3.74416 22.2857 3.42857 22.2857Z" fill="white"/>
<path fill-rule="evenodd" clip-rule="evenodd" d="M19 9H27.8572C28.9617 9 29.8572 9.89543 29.8572 11V21C29.8572 22.1046 28.9617 23 27.8572 23H19C17.8955 23 17 22.1046 17 21V11C17 9.89543 17.8955 9 19 9ZM27.8572 8C29.514 8 30.8572 9.34315 30.8572 11V21C30.8572 22.6569 29.514 24 27.8572 24H19C17.3432 24 16 22.6569 16 21V11C16 9.34315 17.3432 8 19 8H27.8572Z" fill="#0E141B"/>
</svg>
