<svg width="64" height="64" viewBox="0 0 64 64" fill="none" xmlns="http://www.w3.org/2000/svg">
<path d="M8.08386 12.979H52.7273C54.4884 12.979 55.9161 14.4066 55.9161 16.1678V51.2447C55.9161 58.2893 50.2054 64 43.1608 64H8.08386V12.979Z" fill="white"/>
<path d="M16.056 28.923C16.056 29.8036 15.3422 30.5174 14.4616 30.5174C13.581 30.5174 12.8672 29.8036 12.8672 28.923C12.8672 28.0424 13.581 27.3286 14.4616 27.3286C15.3422 27.3286 16.056 28.0424 16.056 28.923Z" fill="#DCDEDF"/>
<path d="M16.056 35.3007C16.056 36.1813 15.3422 36.8951 14.4616 36.8951C13.581 36.8951 12.8672 36.1813 12.8672 35.3007C12.8672 34.4201 13.581 33.7063 14.4616 33.7063C15.3422 33.7063 16.056 34.4201 16.056 35.3007Z" fill="#DCDEDF"/>
<path d="M22.4334 35.3007C22.4334 36.1813 21.7196 36.8951 20.839 36.8951C19.9585 36.8951 19.2446 36.1813 19.2446 35.3007C19.2446 34.4201 19.9585 33.7063 20.839 33.7063C21.7196 33.7063 22.4334 34.4201 22.4334 35.3007Z" fill="#DCDEDF"/>
<path d="M16.056 41.6783C16.056 42.5589 15.3422 43.2727 14.4616 43.2727C13.581 43.2727 12.8672 42.5589 12.8672 41.6783C12.8672 40.7978 13.581 40.0839 14.4616 40.0839C15.3422 40.0839 16.056 40.7978 16.056 41.6783Z" fill="#DCDEDF"/>
<path d="M16.056 48.0559C16.056 48.9365 15.3422 49.6503 14.4616 49.6503C13.581 49.6503 12.8672 48.9365 12.8672 48.0559C12.8672 47.1754 13.581 46.4615 14.4616 46.4615C15.3422 46.4615 16.056 47.1754 16.056 48.0559Z" fill="#DCDEDF"/>
<path d="M16.056 54.4335C16.056 55.3141 15.3422 56.028 14.4616 56.028C13.581 56.028 12.8672 55.3141 12.8672 54.4335C12.8672 53.553 13.581 52.8391 14.4616 52.8391C15.3422 52.8391 16.056 53.553 16.056 54.4335Z" fill="#DCDEDF"/>
<path d="M47.9442 28.923C47.9442 29.8036 47.2303 30.5174 46.3498 30.5174C45.4692 30.5174 44.7554 29.8036 44.7554 28.923C44.7554 28.0424 45.4692 27.3286 46.3498 27.3286C47.2303 27.3286 47.9442 28.0424 47.9442 28.923Z" fill="#DCDEDF"/>
<path d="M47.9442 35.3007C47.9442 36.1813 47.2303 36.8951 46.3498 36.8951C45.4692 36.8951 44.7554 36.1813 44.7554 35.3007C44.7554 34.4201 45.4692 33.7063 46.3498 33.7063C47.2303 33.7063 47.9442 34.4201 47.9442 35.3007Z" fill="#DCDEDF"/>
<path d="M22.4334 41.6783C22.4334 42.5589 21.7196 43.2727 20.839 43.2727C19.9585 43.2727 19.2446 42.5589 19.2446 41.6783C19.2446 40.7978 19.9585 40.0839 20.839 40.0839C21.7196 40.0839 22.4334 40.7978 22.4334 41.6783Z" fill="#DCDEDF"/>
<path d="M22.4334 48.0559C22.4334 48.9365 21.7196 49.6503 20.839 49.6503C19.9585 49.6503 19.2446 48.9365 19.2446 48.0559C19.2446 47.1754 19.9585 46.4615 20.839 46.4615C21.7196 46.4615 22.4334 47.1754 22.4334 48.0559Z" fill="#DCDEDF"/>
<path d="M22.4334 54.4335C22.4334 55.3141 21.7196 56.028 20.839 56.028C19.9585 56.028 19.2446 55.3141 19.2446 54.4335C19.2446 53.553 19.9585 52.8391 20.839 52.8391C21.7196 52.8391 22.4334 53.553 22.4334 54.4335Z" fill="#DCDEDF"/>
<path d="M28.8115 41.6783C28.8115 42.5589 28.0977 43.2727 27.2171 43.2727C26.3365 43.2727 25.6227 42.5589 25.6227 41.6783C25.6227 40.7978 26.3365 40.0839 27.2171 40.0839C28.0977 40.0839 28.8115 40.7978 28.8115 41.6783Z" fill="#DCDEDF"/>
<path d="M28.8115 48.0559C28.8115 48.9365 28.0977 49.6503 27.2171 49.6503C26.3365 49.6503 25.6227 48.9365 25.6227 48.0559C25.6227 47.1754 26.3365 46.4615 27.2171 46.4615C28.0977 46.4615 28.8115 47.1754 28.8115 48.0559Z" fill="#DCDEDF"/>
<path d="M28.8115 54.4335C28.8115 55.3141 28.0977 56.028 27.2171 56.028C26.3365 56.028 25.6227 55.3141 25.6227 54.4335C25.6227 53.553 26.3365 52.8391 27.2171 52.8391C28.0977 52.8391 28.8115 53.553 28.8115 54.4335Z" fill="#DCDEDF"/>
<path d="M35.1888 41.6783C35.1888 42.5589 34.475 43.2727 33.5944 43.2727C32.7138 43.2727 32 42.5589 32 41.6783C32 40.7978 32.7138 40.0839 33.5944 40.0839C34.475 40.0839 35.1888 40.7978 35.1888 41.6783Z" fill="#DCDEDF"/>
<path d="M35.1888 48.0559C35.1888 48.9365 34.475 49.6503 33.5944 49.6503C32.7138 49.6503 32 48.9365 32 48.0559C32 47.1754 32.7138 46.4615 33.5944 46.4615C34.475 46.4615 35.1888 47.1754 35.1888 48.0559Z" fill="#DCDEDF"/>
<path d="M35.1888 54.4335C35.1888 55.3141 34.475 56.028 33.5944 56.028C32.7138 56.028 32 55.3141 32 54.4335C32 53.553 32.7138 52.8391 33.5944 52.8391C34.475 52.8391 35.1888 53.553 35.1888 54.4335Z" fill="#DCDEDF"/>
<path d="M41.5661 41.6783C41.5661 42.5589 40.8523 43.2727 39.9717 43.2727C39.0912 43.2727 38.3773 42.5589 38.3773 41.6783C38.3773 40.7978 39.0912 40.0839 39.9717 40.0839C40.8523 40.0839 41.5661 40.7978 41.5661 41.6783Z" fill="#DCDEDF"/>
<path d="M41.5661 48.0559C41.5661 48.9365 40.8523 49.6503 39.9717 49.6503C39.0912 49.6503 38.3773 48.9365 38.3773 48.0559C38.3773 47.1754 39.0912 46.4615 39.9717 46.4615C40.8523 46.4615 41.5661 47.1754 41.5661 48.0559Z" fill="#DCDEDF"/>
<path d="M41.5661 54.4335C41.5661 55.3141 40.8523 56.028 39.9717 56.028C39.0912 56.028 38.3773 55.3141 38.3773 54.4335C38.3773 53.553 39.0912 52.8391 39.9717 52.8391C40.8523 52.8391 41.5661 53.553 41.5661 54.4335Z" fill="#DCDEDF"/>
<path d="M47.9442 41.6783C47.9442 42.5589 47.2303 43.2727 46.3498 43.2727C45.4692 43.2727 44.7554 42.5589 44.7554 41.6783C44.7554 40.7978 45.4692 40.0839 46.3498 40.0839C47.2303 40.0839 47.9442 40.7978 47.9442 41.6783Z" fill="#DCDEDF"/>
<path d="M47.9442 48.0559C47.9442 48.9365 47.2303 49.6503 46.3498 49.6503C45.4692 49.6503 44.7554 48.9365 44.7554 48.0559C44.7554 47.1754 45.4692 46.4615 46.3498 46.4615C47.2303 46.4615 47.9442 47.1754 47.9442 48.0559Z" fill="#DCDEDF"/>
<path d="M47.9442 54.4335C47.9442 55.3141 47.2303 56.028 46.3498 56.028C45.4692 56.028 44.7554 55.3141 44.7554 54.4335C44.7554 53.553 45.4692 52.8391 46.3498 52.8391C47.2303 52.8391 47.9442 53.553 47.9442 54.4335Z" fill="#DCDEDF"/>
<path d="M41.2905 21.7571L34.8221 15.0903V30.5175H29.1778V15.0903L22.7094 21.7571L18.7133 17.6384L32 3.944L45.2867 17.6384L41.2905 21.7571Z" fill="black"/>
<path fill-rule="evenodd" clip-rule="evenodd" d="M41.2906 25.5733L48.9893 17.6384L32 0.127861L15.0107 17.6384L22.7095 25.5733L26.5205 21.6453V33.1748H37.4795V21.6453L41.2906 25.5733ZM34.8222 15.0903V30.5175H29.1779V15.0903L22.7095 21.7571L18.7133 17.6384L32 3.944L45.2867 17.6384L41.2906 21.7571L34.8222 15.0903Z" fill="white"/>
</svg>
