<svg width="64" height="64" viewBox="0 0 64 64" fill="none" xmlns="http://www.w3.org/2000/svg">
<path d="M58.6399 38.5928C56.617 53.1573 44.1643 64 29.46 64C13.1897 64 0 50.8103 0 34.54V0H64L58.6399 38.5928Z" fill="white"/>
<path d="M28.6492 39.1111H23.8705L20.5603 33.5858H20.187H18.1212V39.1111H13.8154V21.6889H20.5852C23.0741 21.6889 24.9159 22.1784 26.1105 23.1573C27.3052 24.1363 27.9025 25.5135 27.9025 27.2889C27.9025 28.6329 27.6122 29.7612 27.0314 30.6738C26.4673 31.5698 25.6708 32.2501 24.6421 32.7147L28.6492 39.1111ZM18.1212 25.3724V29.9022H20.4608C21.3402 29.9022 22.0288 29.7031 22.5265 29.3049C23.0409 28.8901 23.2981 28.2927 23.2981 27.5129C23.2981 26.7994 23.0658 26.2684 22.6012 25.92C22.1366 25.555 21.3982 25.3724 20.3861 25.3724H18.1212Z" fill="black"/>
<path d="M37.5374 35.4027H45.3525V39.1111H32.0868V35.5769L37.1143 31.4951C37.8942 30.848 38.4832 30.3336 38.8814 29.952C39.2797 29.5704 39.5866 29.1804 39.8023 28.7822C40.0346 28.384 40.1508 27.9443 40.1508 27.4631C40.1508 26.7164 39.8604 26.1523 39.2797 25.7707C38.7155 25.389 37.9937 25.1982 37.1143 25.1982C36.4506 25.1982 35.7952 25.2978 35.1481 25.4969C34.501 25.6794 33.9202 25.9283 33.4059 26.2435L32.0121 23.0578C32.8085 22.5434 33.6962 22.1369 34.6752 21.8382C35.6708 21.5395 36.7327 21.3902 37.861 21.3902C39.9517 21.3902 41.6358 21.8299 42.9134 22.7093C44.1911 23.5721 44.8299 24.8498 44.8299 26.5422C44.8299 27.7037 44.498 28.7656 43.8343 29.728C43.1872 30.6738 42.1834 31.6942 40.8228 32.7893L37.5374 35.4027Z" fill="black"/>
</svg>
