<svg width="64" height="64" viewBox="0 0 64 64" fill="none" xmlns="http://www.w3.org/2000/svg">
<g clip-path="url(#clip0_1967:20359)">
<path fill-rule="evenodd" clip-rule="evenodd" d="M64 8.88889L0 0L5.36011 38.5928C6.40399 46.1087 10.2253 52.6335 15.7003 57.1886L64 8.88889Z" fill="white"/>
<path opacity="0.5" fill-rule="evenodd" clip-rule="evenodd" d="M15.7004 57.1886L64.0001 8.88889V34.54C64.0001 50.8103 50.8105 64 34.5402 64C27.4239 64 20.835 61.4605 15.7004 57.1886Z" fill="white"/>
<path d="M33.9827 41.2222H29.2041L25.8939 35.6969H25.5205H23.4547V41.2222H19.149V23.8H25.9187C28.4076 23.8 30.2494 24.2895 31.4441 25.2685C32.6387 26.2474 33.2361 27.6246 33.2361 29.4C33.2361 30.744 32.9457 31.8723 32.365 32.7849C31.8008 33.6809 31.0044 34.3612 29.9756 34.8258L33.9827 41.2222ZM23.4547 27.4836V32.0133H25.7943C26.6737 32.0133 27.3623 31.8142 27.8601 31.416C28.3744 31.0012 28.6316 30.4039 28.6316 29.624C28.6316 28.9105 28.3993 28.3796 27.9347 28.0311C27.4701 27.6661 26.7318 27.4836 25.7196 27.4836H23.4547ZM42.871 37.5138H50.6861V41.2222H37.4203V37.688L42.4479 33.6062C43.2277 32.9591 43.8167 32.4447 44.215 32.0631C44.6132 31.6815 44.9201 31.2916 45.1359 30.8933C45.3681 30.4951 45.4843 30.0554 45.4843 29.5742C45.4843 28.8276 45.1939 28.2634 44.6132 27.8818C44.049 27.5002 43.3273 27.3093 42.4479 27.3093C41.7841 27.3093 41.1287 27.4089 40.4816 27.608C39.8345 27.7905 39.2538 28.0394 38.7394 28.3547L37.3456 25.1689C38.1421 24.6545 39.0298 24.248 40.0087 23.9493C41.0043 23.6507 42.0662 23.5013 43.1945 23.5013C45.2852 23.5013 46.9693 23.941 48.247 24.8204C49.5246 25.6833 50.1634 26.9609 50.1634 28.6533C50.1634 29.8148 49.8316 30.8767 49.1679 31.8391C48.5207 32.7849 47.5169 33.8053 46.1563 34.9005L42.871 37.5138Z" fill="black"/>
</g>
<defs>
<clipPath id="clip0_1967:20359">
<rect width="64" height="64" fill="white"/>
</clipPath>
</defs>
</svg>
