<svg width="64" height="64" viewBox="0 0 64 64" fill="none" xmlns="http://www.w3.org/2000/svg">
<g clip-path="url(#clip0_1967:16237)">
<path d="M64.0001 5.80917H25.7888C21.0516 5.80917 17.3916 9.96987 17.9957 14.6684L22.4162 49.0505C23.0882 54.2769 27.5376 58.1908 32.807 58.1908H64.0001V5.80917Z" fill="white"/>
<path d="M21.3178 22.8432L14.747 29.2185H29.952V34.7815H14.747L21.3178 41.1568L17.2584 45.0954L3.7612 32L17.2584 18.9046L21.3178 22.8432Z" fill="black"/>
<path fill-rule="evenodd" clip-rule="evenodd" d="M25.0791 22.8432L17.2584 15.2554L6.86646e-05 32L17.2584 48.7447L25.0791 41.1568L21.2077 37.4006H32.5712V26.5994H21.2077L25.0791 22.8432ZM14.7471 29.2185H29.9521V34.7815H14.7471L21.3179 41.1568L17.2584 45.0954L3.76126 32L17.2584 18.9046L21.3179 22.8432L14.7471 29.2185Z" fill="white"/>
</g>
<defs>
<clipPath id="clip0_1967:16237">
<rect width="64" height="64" fill="white"/>
</clipPath>
</defs>
</svg>
