<svg width="32" height="32" viewBox="0 0 32 32" fill="none" xmlns="http://www.w3.org/2000/svg">
<path d="M29.3199 19.2964C28.3085 26.5787 22.0822 32 14.73 32C6.59485 32 0 25.4052 0 17.27V0H32L29.3199 19.2964Z" fill="white"/>
<path d="M14.3247 19.5555H11.9354L10.2803 16.7929H10.0936H9.06073V19.5555H6.90784V10.8444H10.2927C11.5372 10.8444 12.4581 11.0892 13.0554 11.5787C13.6527 12.0681 13.9514 12.7567 13.9514 13.6444C13.9514 14.3164 13.8062 14.8806 13.5158 15.3369C13.2338 15.7849 12.8355 16.125 12.3212 16.3573L14.3247 19.5555ZM9.06073 12.6862V14.9511H10.2305C10.6702 14.9511 11.0145 14.8515 11.2634 14.6524C11.5206 14.445 11.6492 14.1464 11.6492 13.7564C11.6492 13.3997 11.533 13.1342 11.3007 12.96C11.0684 12.7775 10.6992 12.6862 10.1932 12.6862H9.06073Z" fill="black"/>
<path d="M18.7688 17.7013H22.6764V19.5555H16.0435V17.7884L18.5573 15.7475C18.9472 15.424 19.2417 15.1668 19.4408 14.976C19.6399 14.7852 19.7934 14.5902 19.9013 14.3911C20.0174 14.192 20.0755 13.9721 20.0755 13.7315C20.0755 13.3582 19.9303 13.0761 19.6399 12.8853C19.3579 12.6945 18.997 12.5991 18.5573 12.5991C18.2254 12.5991 17.8977 12.6489 17.5742 12.7484C17.2506 12.8397 16.9602 12.9641 16.7031 13.1218L16.0062 11.5289C16.4044 11.2717 16.8482 11.0684 17.3377 10.9191C17.8355 10.7698 18.3665 10.6951 18.9306 10.6951C19.9759 10.6951 20.818 10.915 21.4568 11.3547C22.0957 11.7861 22.4151 12.4249 22.4151 13.2711C22.4151 13.8518 22.2491 14.3828 21.9173 14.864C21.5937 15.3369 21.0918 15.8471 20.4115 16.3947L18.7688 17.7013Z" fill="black"/>
</svg>
