<svg width="64" height="64" viewBox="0 0 64 64" fill="none" xmlns="http://www.w3.org/2000/svg">
<path d="M5.36011 38.5928C7.38296 53.1573 19.8357 64 34.54 64C50.8103 64 64 50.8103 64 34.54V0H0L5.36011 38.5928Z" fill="white"/>
<path d="M32.6084 39.1111H20.4128V21.6889H24.7186V35.2284H32.6084V39.1111Z" fill="black"/>
<path d="M41.6071 35.4027H49.4222V39.1111H36.1564V35.5769L41.184 31.4951C41.9638 30.848 42.5528 30.3336 42.9511 29.952C43.3493 29.5704 43.6563 29.1804 43.872 28.7822C44.1043 28.384 44.2204 27.9443 44.2204 27.4631C44.2204 26.7164 43.93 26.1523 43.3493 25.7707C42.7851 25.389 42.0634 25.1982 41.184 25.1982C40.5203 25.1982 39.8648 25.2978 39.2177 25.4969C38.5706 25.6794 37.9899 25.9283 37.4755 26.2435L36.0817 23.0578C36.8782 22.5434 37.7659 22.1369 38.7448 21.8382C39.7404 21.5395 40.8023 21.3902 41.9306 21.3902C44.0213 21.3902 45.7054 21.8299 46.9831 22.7093C48.2607 23.5721 48.8995 24.8498 48.8995 26.5422C48.8995 27.7037 48.5677 28.7656 47.904 29.728C47.2568 30.6738 46.253 31.6942 44.8924 32.7893L41.6071 35.4027Z" fill="black"/>
</svg>
