<svg width="64" height="64" viewBox="0 0 64 64" fill="none" xmlns="http://www.w3.org/2000/svg">
<g clip-path="url(#clip0_1967:20347)">
<path fill-rule="evenodd" clip-rule="evenodd" d="M64 8.88889L0 0L5.36011 38.5928C6.40399 46.1087 10.2253 52.6335 15.7003 57.1886L64 8.88889Z" fill="white"/>
<path opacity="0.5" fill-rule="evenodd" clip-rule="evenodd" d="M15.7004 57.1886L64.0001 8.88889V34.54C64.0001 50.8103 50.8105 64 34.5402 64C27.4239 64 20.835 61.4605 15.7004 57.1886Z" fill="white"/>
<path d="M32.6084 41.2222H20.4128V23.8H24.7186V37.3396H32.6084V41.2222ZM41.6071 37.5138H49.4222V41.2222H36.1564V37.688L41.184 33.6062C41.9638 32.9591 42.5529 32.4447 42.9511 32.0631C43.3493 31.6815 43.6563 31.2916 43.872 30.8933C44.1043 30.4951 44.2204 30.0554 44.2204 29.5742C44.2204 28.8276 43.93 28.2634 43.3493 27.8818C42.7851 27.5002 42.0634 27.3093 41.184 27.3093C40.5203 27.3093 39.8649 27.4089 39.2177 27.608C38.5706 27.7905 37.9899 28.0394 37.4755 28.3547L36.0817 25.1689C36.8782 24.6545 37.7659 24.248 38.7449 23.9493C39.7404 23.6507 40.8023 23.5013 41.9306 23.5013C44.0213 23.5013 45.7054 23.941 46.9831 24.8204C48.2607 25.6833 48.8995 26.9609 48.8995 28.6533C48.8995 29.8148 48.5677 30.8767 47.904 31.8391C47.2569 32.7849 46.253 33.8053 44.8924 34.9005L41.6071 37.5138Z" fill="black"/>
</g>
<defs>
<clipPath id="clip0_1967:20347">
<rect width="64" height="64" fill="white"/>
</clipPath>
</defs>
</svg>
