<svg width="32" height="32" viewBox="0 0 32 32" fill="none" xmlns="http://www.w3.org/2000/svg">
<path d="M2.68006 19.2964C3.69148 26.5787 9.91784 32 17.27 32C25.4052 32 32 25.4052 32 17.27V0H0L2.68006 19.2964Z" fill="white"/>
<path d="M16.3041 19.5555H10.2063V10.8444H12.3592V17.6142H16.3041V19.5555Z" fill="black"/>
<path d="M20.8034 17.7013H24.711V19.5555H18.0781V17.7884L20.5919 15.7475C20.9818 15.424 21.2763 15.1668 21.4754 14.976C21.6745 14.7852 21.828 14.5902 21.9359 14.3911C22.052 14.192 22.1101 13.9721 22.1101 13.7315C22.1101 13.3582 21.9649 13.0761 21.6745 12.8853C21.3924 12.6945 21.0316 12.5991 20.5919 12.5991C20.26 12.5991 19.9323 12.6489 19.6087 12.7484C19.2852 12.8397 18.9948 12.9641 18.7376 13.1218L18.0407 11.5289C18.439 11.2717 18.8828 11.0684 19.3723 10.9191C19.8701 10.7698 20.401 10.6951 20.9652 10.6951C22.0105 10.6951 22.8526 10.915 23.4914 11.3547C24.1302 11.7861 24.4496 12.4249 24.4496 13.2711C24.4496 13.8518 24.2837 14.3828 23.9519 14.864C23.6283 15.3369 23.1264 15.8471 22.4461 16.3947L20.8034 17.7013Z" fill="black"/>
</svg>
