<svg width="64" height="64" viewBox="0 0 64 64" fill="none" xmlns="http://www.w3.org/2000/svg">
<g clip-path="url(#clip0_1967:16285)">
<path d="M8.55518 0H46.7665C51.5037 0 55.1637 4.16069 54.5596 8.85921L50.139 43.2412C49.4671 48.4676 45.0177 52.3816 39.7482 52.3816H8.55518V0Z" fill="white"/>
<path d="M41.2837 42.6822L34.9084 49.253V34.048H29.3454V49.253L22.9701 42.6822L19.0315 46.7417L32.1269 60.2388L45.2223 46.7417L41.2837 42.6822Z" fill="black"/>
<path fill-rule="evenodd" clip-rule="evenodd" d="M41.2837 38.921L48.8716 46.7417L32.127 64L15.3823 46.7417L22.9702 38.921L26.7264 42.7924V31.429L37.5276 31.429V42.7924L41.2837 38.921ZM34.9085 49.253V34.048H29.3454V49.253L22.9702 42.6822L19.0316 46.7417L32.127 60.2388L45.2223 46.7417L41.2837 42.6822L34.9085 49.253Z" fill="white"/>
</g>
<defs>
<clipPath id="clip0_1967:16285">
<rect width="64" height="64" fill="white"/>
</clipPath>
</defs>
</svg>
