<svg width="32" height="32" viewBox="0 0 32 32" fill="none" xmlns="http://www.w3.org/2000/svg">
<g clip-path="url(#clip0_1967_20359)">
<path fill-rule="evenodd" clip-rule="evenodd" d="M0 4.44444L32 0L29.3199 19.2964C28.798 23.0544 26.8873 26.3167 24.1499 28.5943L0 4.44444Z" fill="white"/>
<path opacity="0.5" fill-rule="evenodd" clip-rule="evenodd" d="M24.1499 28.5943L4.95911e-05 4.44446V17.27C4.95911e-05 25.4052 6.5949 32 14.73 32C18.2882 32 21.5826 30.7303 24.1499 28.5943Z" fill="white"/>
<path d="M14.9914 20.6111H12.602L10.9469 17.8484H10.7602H9.72735V20.6111H7.57446V11.9H10.9594C12.2038 11.9 13.1247 12.1447 13.722 12.6342C14.3194 13.1237 14.618 13.8123 14.618 14.7C14.618 15.372 14.4728 15.9362 14.1825 16.3924C13.9004 16.8404 13.5022 17.1806 12.9878 17.4129L14.9914 20.6111ZM9.72735 13.7418V16.0067H10.8971C11.3368 16.0067 11.6811 15.9071 11.93 15.708C12.1872 15.5006 12.3158 15.2019 12.3158 14.812C12.3158 14.4553 12.1996 14.1898 11.9674 14.0156C11.7351 13.833 11.3659 13.7418 10.8598 13.7418H9.72735Z" fill="black"/>
<path d="M19.4355 18.7569H23.343V20.6111H16.7101V18.844L19.2239 16.8031C19.6138 16.4796 19.9084 16.2224 20.1075 16.0316C20.3066 15.8407 20.4601 15.6458 20.5679 15.4467C20.6841 15.2476 20.7421 15.0277 20.7421 14.7871C20.7421 14.4138 20.5969 14.1317 20.3066 13.9409C20.0245 13.7501 19.6636 13.6547 19.2239 13.6547C18.8921 13.6547 18.5644 13.7044 18.2408 13.804C17.9172 13.8953 17.6269 14.0197 17.3697 14.1773L16.6728 12.5844C17.071 12.3273 17.5149 12.124 18.0044 11.9747C18.5021 11.8253 19.0331 11.7507 19.5972 11.7507C20.6426 11.7507 21.4846 11.9705 22.1235 12.4102C22.7623 12.8416 23.0817 13.4804 23.0817 14.3267C23.0817 14.9074 22.9158 15.4384 22.5839 15.9196C22.2604 16.3924 21.7584 16.9027 21.0781 17.4502L19.4355 18.7569Z" fill="black"/>
</g>
<defs>
<clipPath id="clip0_1967_20359">
<rect width="32" height="32" fill="white"/>
</clipPath>
</defs>
</svg>
