<svg width="32" height="32" viewBox="0 0 32 32" fill="none" xmlns="http://www.w3.org/2000/svg">
<g clip-path="url(#clip0_1967_16195)">
<path d="M0.0277703 10.5562C-0.235507 8.45001 1.40679 6.58965 3.5294 6.58965H28.4707C30.5933 6.58965 32.2356 8.45001 31.9723 10.5562L30.6308 21.2888C30.3364 23.6434 28.3348 25.4103 25.9619 25.4103H6.03818C3.66525 25.4103 1.66366 23.6434 1.36934 21.2888L0.0277703 10.5562Z" fill="white"/>
<path fill-rule="evenodd" clip-rule="evenodd" d="M19.5289 8.94224H27.9011C28.9749 8.94224 29.7997 9.89325 29.6478 10.9562L28.2076 21.0379C28.042 22.1969 27.0494 23.0578 25.8786 23.0578H19.5289C18.2296 23.0578 17.1763 22.0045 17.1763 20.7052V11.2948C17.1763 9.99553 18.2296 8.94224 19.5289 8.94224ZM27.9011 7.76595C29.6907 7.76595 31.0654 9.35096 30.8123 11.1226L29.3721 21.2042C29.1237 22.9427 27.6348 24.234 25.8786 24.234H19.5289C17.5799 24.234 16 22.6541 16 20.7052V11.2948C16 9.34588 17.5799 7.76595 19.5289 7.76595H27.9011Z" fill="black"/>
</g>
<defs>
<clipPath id="clip0_1967_16195">
<rect width="32" height="32" fill="white"/>
</clipPath>
</defs>
</svg>
