<svg width="64" height="64" viewBox="0 0 64 64" fill="none" xmlns="http://www.w3.org/2000/svg">
<g clip-path="url(#clip0_1967:16195)">
<path d="M0.0554186 21.1125C-0.471137 16.9 2.81345 13.1793 7.05868 13.1793H56.9413C61.1865 13.1793 64.4711 16.9 63.9445 21.1125L61.2614 42.5776C60.6727 47.2868 56.6696 50.8207 51.9237 50.8207H12.0762C7.33037 50.8207 3.3272 47.2868 2.73855 42.5776L0.0554186 21.1125Z" fill="white"/>
<path fill-rule="evenodd" clip-rule="evenodd" d="M39.0577 17.8845H55.8021C57.9496 17.8845 59.5992 19.7865 59.2955 21.9124L56.4151 42.0758C56.0839 44.3938 54.0987 46.1155 51.7572 46.1155H39.0577C36.4591 46.1155 34.3525 44.0089 34.3525 41.4103V22.5897C34.3525 19.9911 36.4591 17.8845 39.0577 17.8845ZM55.8021 15.5319C59.3813 15.5319 62.1306 18.7019 61.6245 22.2451L58.744 42.4085C58.2473 45.8855 55.2695 48.4681 51.7572 48.4681H39.0577C35.1598 48.4681 31.9999 45.3082 31.9999 41.4103V22.5897C31.9999 18.6918 35.1598 15.5319 39.0577 15.5319H55.8021Z" fill="black"/>
</g>
<defs>
<clipPath id="clip0_1967:16195">
<rect width="64" height="64" fill="white"/>
</clipPath>
</defs>
</svg>
