<svg width="64" height="64" viewBox="0 0 64 64" fill="none" xmlns="http://www.w3.org/2000/svg">
<g clip-path="url(#clip0_1967:16123)">
<path d="M0.0556626 23.2471C-0.470891 19.0347 2.81368 15.314 7.05889 15.314H56.9413C61.1865 15.314 64.4711 19.0347 63.9445 23.2471L61.2614 44.7121C60.6728 49.4213 56.6696 52.9552 51.9238 52.9552H12.0764C7.33059 52.9552 3.32744 49.4213 2.73879 44.7121L0.0556626 23.2471Z" fill="white"/>
<path d="M40.225 19.3213L34.4984 13.419V27.0769H29.5015V13.419L23.7749 19.3213L20.2371 15.6749L31.9999 3.55111L43.7628 15.6749L40.225 19.3213Z" fill="black"/>
<path fill-rule="evenodd" clip-rule="evenodd" d="M40.225 22.6997L47.0408 15.6749L32 0.172634L16.9592 15.6749L23.775 22.6997L27.149 19.2223V29.4294L36.8511 29.4294V19.2223L40.225 22.6997ZM34.4985 13.419V27.0769H29.5015V13.419L23.775 19.3213L20.2371 15.6749L32 3.5511L43.7629 15.6749L40.225 19.3213L34.4985 13.419Z" fill="white"/>
</g>
<defs>
<clipPath id="clip0_1967:16123">
<rect width="64" height="64" fill="white"/>
</clipPath>
</defs>
</svg>
