<svg width="32" height="32" viewBox="0 0 32 32" fill="none" xmlns="http://www.w3.org/2000/svg">
<g clip-path="url(#clip0_1967_16057)">
<path d="M0.0277703 10.5562C-0.235507 8.45001 1.40679 6.58965 3.5294 6.58965H28.4707C30.5933 6.58965 32.2356 8.45001 31.9723 10.5562L30.6308 21.2888C30.3364 23.6434 28.3348 25.4103 25.9619 25.4103H6.03818C3.66525 25.4103 1.66366 23.6434 1.36934 21.2888L0.0277703 10.5562Z" fill="white"/>
<path fill-rule="evenodd" clip-rule="evenodd" d="M27.9011 8.94224H4.09888C3.02513 8.94224 2.20032 9.89325 2.35217 10.9562L3.79241 21.0379C3.95798 22.1969 4.95059 23.0578 6.12135 23.0578H25.8786C27.0494 23.0578 28.042 22.1969 28.2076 21.0379L29.6478 10.9562C29.7997 9.89325 28.9749 8.94224 27.9011 8.94224ZM4.09888 7.76595C2.3093 7.76595 0.934616 9.35096 1.1877 11.1226L2.62794 21.2042C2.8763 22.9427 4.3652 24.234 6.12135 24.234H25.8786C27.6348 24.234 29.1237 22.9427 29.372 21.2042L30.8123 11.1226C31.0654 9.35097 29.6907 7.76595 27.9011 7.76595H4.09888Z" fill="black"/>
</g>
<defs>
<clipPath id="clip0_1967_16057">
<rect width="32" height="32" fill="white"/>
</clipPath>
</defs>
</svg>
