<svg width="64" height="64" viewBox="0 0 64 64" fill="none" xmlns="http://www.w3.org/2000/svg">
<g clip-path="url(#clip0_1967:16424)">
<path d="M54.3071 6.24347H14.8899C11.6841 6.24347 9.20735 9.0591 9.61615 12.2387L14.5446 50.5711C14.9993 54.1079 18.0103 56.7566 21.5763 56.7566H54.3071V6.24347Z" fill="white"/>
<path fill-rule="evenodd" clip-rule="evenodd" d="M11.1052 42.9151L15.2069 38.5589L19.2972 42.921L25.0095 36.8197L19.6122 31.0674L25.0029 25.3097L19.2997 19.1838L15.2041 23.565L11.1076 19.1896L-9.72748e-05 31.0723L11.1052 42.9151ZM15.9685 31.0694L21.3657 36.8217L19.2957 39.0327L11.8284 31.0694L19.2957 23.0812L21.3657 25.3046L15.9685 31.0694ZM3.64184 31.0694L11.1092 39.0327L13.1792 36.8342L7.7819 31.0694L13.1792 25.2921L11.1092 23.0812L3.64184 31.0694Z" fill="white"/>
<path fill-rule="evenodd" clip-rule="evenodd" d="M52.8948 42.9151L48.7931 38.5589L44.7028 42.921L38.9905 36.8197L44.3878 31.0674L38.9971 25.3097L44.7003 19.1838L48.7959 23.565L52.8924 19.1896L64.0001 31.0723L52.8948 42.9151ZM48.0315 31.0694L42.6343 36.8217L44.7043 39.0327L52.1716 31.0694L44.7043 23.0812L42.6343 25.3046L48.0315 31.0694ZM60.3582 31.0694L52.8908 39.0327L50.8208 36.8342L56.2181 31.0694L50.8208 25.2921L52.8908 23.0812L60.3582 31.0694Z" fill="white"/>
<path d="M3.64183 31.0694L11.1091 39.0327L13.1792 36.8342L7.78189 31.0694L13.1792 25.2922L11.1091 23.0812L3.64183 31.0694Z" fill="black"/>
<path d="M15.9684 31.0694L21.3657 36.8217L19.2957 39.0327L11.8284 31.0694L19.2957 23.0812L21.3657 25.3046L15.9684 31.0694Z" fill="black"/>
<path d="M60.3584 31.0694L52.8911 39.0327L50.8211 36.8342L56.2184 31.0694L50.8211 25.2922L52.8911 23.0812L60.3584 31.0694Z" fill="black"/>
<path d="M48.0318 31.0694L42.6345 36.8217L44.7046 39.0327L52.1719 31.0694L44.7046 23.0812L42.6345 25.3046L48.0318 31.0694Z" fill="black"/>
</g>
<defs>
<clipPath id="clip0_1967:16424">
<rect width="64" height="64" fill="white"/>
</clipPath>
</defs>
</svg>
