<svg width="64" height="64" viewBox="0 0 64 64" fill="none" xmlns="http://www.w3.org/2000/svg">
<g clip-path="url(#clip0_1967:16107)">
<path d="M0.0556626 18.9779C-0.470891 14.7655 2.81368 11.0448 7.05889 11.0448H56.9413C61.1865 11.0448 64.4711 14.7655 63.9445 18.9779L61.2614 40.4429C60.6728 45.1521 56.6696 48.686 51.9238 48.686H12.0764C7.33059 48.686 3.32744 45.1521 2.73879 40.4429L0.0556626 18.9779Z" fill="white"/>
<path d="M40.225 44.6787L34.4984 50.581V36.9231H29.5015V50.581L23.7749 44.6787L20.2371 48.3251L31.9999 60.4489L43.7628 48.3251L40.225 44.6787Z" fill="black"/>
<path fill-rule="evenodd" clip-rule="evenodd" d="M40.225 41.3003L47.0408 48.3251L32 63.8274L16.9592 48.3251L23.775 41.3003L27.149 44.7777V34.5706H36.8511V44.7777L40.225 41.3003ZM34.4985 50.581V36.9231H29.5015V50.581L23.775 44.6787L20.2371 48.3251L32 60.4489L43.7629 48.3251L40.225 44.6787L34.4985 50.581Z" fill="white"/>
</g>
<defs>
<clipPath id="clip0_1967:16107">
<rect width="64" height="64" fill="white"/>
</clipPath>
</defs>
</svg>
