<svg width="64" height="64" viewBox="0 0 64 64" fill="none" xmlns="http://www.w3.org/2000/svg">
<g clip-path="url(#clip0_1967:16043)">
<path d="M0.0554186 21.1125C-0.471137 16.9 2.81345 13.1793 7.05868 13.1793H56.9413C61.1865 13.1793 64.4711 16.9 63.9445 21.1125L61.2614 42.5776C60.6727 47.2868 56.6696 50.8207 51.9237 50.8207H12.0762C7.33037 50.8207 3.3272 47.2868 2.73855 42.5776L0.0554186 21.1125Z" fill="white"/>
<path fill-rule="evenodd" clip-rule="evenodd" d="M57.8784 32C57.8784 38.4965 52.612 43.7629 46.1155 43.7629C39.619 43.7629 34.3525 38.4965 34.3525 32C34.3525 25.5035 39.619 20.2371 46.1155 20.2371C52.612 20.2371 57.8784 25.5035 57.8784 32ZM46.1155 41.4103C51.3127 41.4103 55.5258 37.1972 55.5258 32C55.5258 26.8028 51.3127 22.5897 46.1155 22.5897C40.9183 22.5897 36.7051 26.8028 36.7051 32C36.7051 37.1972 40.9183 41.4103 46.1155 41.4103Z" fill="black"/>
<path d="M49.9284 35.5289H47.6699L46.1055 32.9175H45.929H44.9527V35.5289H42.9177V27.2948H46.1172C47.2935 27.2948 48.164 27.5262 48.7286 27.9888C49.2932 28.4515 49.5755 29.1024 49.5755 29.9415C49.5755 30.5767 49.4383 31.1099 49.1638 31.5412C48.8972 31.9647 48.5208 32.2862 48.0346 32.5058L49.9284 35.5289ZM44.9527 29.0357V31.1766H46.0584C46.4741 31.1766 46.7995 31.0825 47.0348 30.8943C47.2779 30.6982 47.3994 30.4159 47.3994 30.0474C47.3994 29.7102 47.2896 29.4592 47.07 29.2945C46.8505 29.122 46.5015 29.0357 46.0231 29.0357H44.9527Z" fill="black"/>
</g>
<defs>
<clipPath id="clip0_1967:16043">
<rect width="64" height="64" fill="white"/>
</clipPath>
</defs>
</svg>
