<svg width="64" height="64" viewBox="0 0 64 64" fill="none" xmlns="http://www.w3.org/2000/svg">
<g clip-path="url(#clip0_1967:16139)">
<path d="M5.22585 21.9928C4.74188 18.121 7.76087 14.7011 11.6628 14.7011H57.512C61.4139 14.7011 64.4329 18.121 63.949 21.9928L61.4828 41.7223C60.9417 46.0507 57.2622 49.2989 52.9001 49.2989H16.2747C11.9126 49.2989 8.23309 46.0507 7.69203 41.7223L5.22585 21.9928Z" fill="white"/>
<path d="M17.7282 24.44L12.3032 29.7035H24.8567V34.2965H12.3032L17.7282 39.56L14.3766 42.8118L3.2331 32L14.3766 21.1882L17.7282 24.44Z" fill="black"/>
<path fill-rule="evenodd" clip-rule="evenodd" d="M20.8335 24.44L14.3766 18.1753L0.127804 32L14.3766 45.8246L20.8335 39.56L17.6372 36.4588H27.019V27.5412H17.6372L20.8335 24.44ZM12.3032 29.7035H24.8567V34.2965H12.3032L17.7282 39.56L14.3766 42.8118L3.2331 32L14.3766 21.1882L17.7282 24.44L12.3032 29.7035Z" fill="white"/>
</g>
<defs>
<clipPath id="clip0_1967:16139">
<rect width="64" height="64" fill="white"/>
</clipPath>
</defs>
</svg>
