<svg width="32" height="32" viewBox="0 0 32 32" fill="none" xmlns="http://www.w3.org/2000/svg">
<g clip-path="url(#clip0_7531_1144)">
<path d="M31.9722 10.5562C32.2355 8.45001 30.5932 6.58965 28.4706 6.58965H3.5293C1.40669 6.58965 -0.2356 8.45001 0.0276775 10.5562L1.36924 21.2888C1.66357 23.6434 3.66515 25.4103 6.03808 25.4103H25.9618C28.3348 25.4103 30.3363 23.6434 30.6307 21.2888L31.9722 10.5562Z" fill="white"/>
<path fill-rule="evenodd" clip-rule="evenodd" d="M12.4712 8.94224H4.099C3.02525 8.94224 2.20044 9.89325 2.35229 10.9562L3.79253 21.0379C3.9581 22.1969 4.95071 23.0578 6.12147 23.0578H12.4712C13.7705 23.0578 14.8238 22.0045 14.8238 20.7052V11.2948C14.8238 9.99553 13.7705 8.94224 12.4712 8.94224ZM4.099 7.76595C2.30942 7.76595 0.934738 9.35096 1.18782 11.1226L2.62806 21.2042C2.87642 22.9427 4.36533 24.234 6.12147 24.234H12.4712C14.4202 24.234 16.0001 22.6541 16.0001 20.7052V11.2948C16.0001 9.34588 14.4202 7.76595 12.4712 7.76595H4.099Z" fill="black"/>
</g>
<defs>
<clipPath id="clip0_7531_1144">
<rect width="32" height="32" fill="white"/>
</clipPath>
</defs>
</svg>
