<svg width="64" height="64" viewBox="0 0 64 64" fill="none" xmlns="http://www.w3.org/2000/svg">
<path d="M63.9445 21.0087C64.471 16.7562 61.1864 13 56.9412 13H7.05877C2.81356 13 -0.471011 16.7562 0.0555433 21.0087L2.73867 42.6783C3.32732 47.4324 7.33047 51 12.0763 51H51.9237C56.6695 51 60.6727 47.4324 61.2613 42.6783L63.9445 21.0087Z" fill="white"/>
<path d="M3.64183 31.9882L11.1091 39.9515L13.1792 37.753L7.78189 31.9882L13.1792 26.211L11.1091 24L3.64183 31.9882Z" fill="black"/>
<path d="M15.9684 31.9882L21.3657 37.7405L19.2957 39.9515L11.8284 31.9882L19.2957 24L21.3657 26.2235L15.9684 31.9882Z" fill="black"/>
<path d="M60.3584 31.9882L52.8911 39.9515L50.8211 37.753L56.2184 31.9882L50.8211 26.211L52.8911 24L60.3584 31.9882Z" fill="black"/>
<path d="M48.0318 31.9882L42.6345 37.7405L44.7046 39.9515L52.1719 31.9882L44.7046 24L42.6345 26.2235L48.0318 31.9882Z" fill="black"/>
</svg>
