<svg width="64" height="64" viewBox="0 0 64 64" fill="none" xmlns="http://www.w3.org/2000/svg">
<g clip-path="url(#clip0_1967:16253)">
<path d="M8.5553 11.6184H46.7666C51.5038 11.6184 55.1638 15.7791 54.5597 20.4776L50.1391 54.8596C49.4672 60.086 45.0178 64 39.7483 64H8.5553V11.6184Z" fill="white"/>
<path d="M41.2836 21.3178L34.9084 14.747V29.952H29.3454V14.747L22.9701 21.3178L19.0315 17.2584L32.1269 3.76122L45.2223 17.2584L41.2836 21.3178Z" fill="black"/>
<path fill-rule="evenodd" clip-rule="evenodd" d="M41.2837 25.079L48.8716 17.2583L32.1269 3.8147e-06L15.3823 17.2583L22.9702 25.079L26.7263 21.2076V32.571H37.5275V21.2076L41.2837 25.079ZM34.9085 14.747V29.952H29.3454V14.747L22.9702 21.3178L19.0316 17.2583L32.1269 3.76118L45.2223 17.2583L41.2837 21.3178L34.9085 14.747Z" fill="white"/>
</g>
<defs>
<clipPath id="clip0_1967:16253">
<rect width="64" height="64" fill="white"/>
</clipPath>
</defs>
</svg>
