<svg width="32" height="32" viewBox="0 0 32 32" fill="none" xmlns="http://www.w3.org/2000/svg">
<g clip-path="url(#clip0_2642_20004)">
<path d="M31.9722 10.5044C32.2355 8.37808 30.5932 6.5 28.4706 6.5H3.52939C1.40678 6.5 -0.235504 8.37808 0.027771 10.5044L1.36934 21.3392C1.66366 23.7162 3.66524 25.5 6.03816 25.5H25.9618C28.3348 25.5 30.3363 23.7162 30.6307 21.3392L31.9722 10.5044Z" fill="white"/>
<path d="M12.6848 6.40819L16.5235 1.92962L20.3623 6.40819L12.6848 6.40819Z" fill="black"/>
<path fill-rule="evenodd" clip-rule="evenodd" d="M9.90276 7.68777L16.5236 -0.0365921L23.1445 7.68777L9.90276 7.68777ZM12.6849 6.40818L20.3624 6.40818L16.5236 1.92962L12.6849 6.40818Z" fill="white"/>
</g>
<defs>
<clipPath id="clip0_2642_20004">
<rect width="32" height="32" fill="white"/>
</clipPath>
</defs>
</svg>
