<svg width="32" height="32" viewBox="0 0 32 32" fill="none" xmlns="http://www.w3.org/2000/svg">
<g clip-path="url(#clip0_1967:20359)">
<path fill-rule="evenodd" clip-rule="evenodd" d="M32 4.44444L0 0L2.68006 19.2964C3.20199 23.0544 5.11267 26.3167 7.85014 28.5943L32 4.44444Z" fill="white"/>
<path opacity="0.5" fill-rule="evenodd" clip-rule="evenodd" d="M7.8501 28.5943L32 4.44446V17.27C32 25.4052 25.4051 32 17.27 32C13.7118 32 10.4174 30.7303 7.8501 28.5943Z" fill="white"/>
<path d="M16.9914 20.6111H14.602L12.9469 17.8484H12.7602H11.7274V20.6111H9.57446V11.9H12.9594C14.2038 11.9 15.1247 12.1447 15.722 12.6342C16.3194 13.1237 16.618 13.8123 16.618 14.7C16.618 15.372 16.4728 15.9362 16.1825 16.3924C15.9004 16.8404 15.5022 17.1806 14.9878 17.4129L16.9914 20.6111ZM11.7274 13.7418V16.0067H12.8971C13.3368 16.0067 13.6811 15.9071 13.93 15.708C14.1872 15.5006 14.3158 15.2019 14.3158 14.812C14.3158 14.4553 14.1996 14.1898 13.9674 14.0156C13.7351 13.833 13.3659 13.7418 12.8598 13.7418H11.7274Z" fill="black"/>
<path d="M21.4355 18.7569H25.343V20.6111H18.7101V18.844L21.2239 16.8031C21.6138 16.4796 21.9084 16.2224 22.1075 16.0316C22.3066 15.8407 22.4601 15.6458 22.5679 15.4467C22.6841 15.2476 22.7421 15.0277 22.7421 14.7871C22.7421 14.4138 22.5969 14.1317 22.3066 13.9409C22.0245 13.7501 21.6636 13.6547 21.2239 13.6547C20.8921 13.6547 20.5644 13.7044 20.2408 13.804C19.9172 13.8953 19.6269 14.0197 19.3697 14.1773L18.6728 12.5844C19.071 12.3273 19.5149 12.124 20.0044 11.9747C20.5021 11.8253 21.0331 11.7507 21.5972 11.7507C22.6426 11.7507 23.4846 11.9705 24.1235 12.4102C24.7623 12.8416 25.0817 13.4804 25.0817 14.3267C25.0817 14.9074 24.9158 15.4384 24.5839 15.9196C24.2604 16.3924 23.7584 16.9027 23.0781 17.4502L21.4355 18.7569Z" fill="black"/>
</g>
<defs>
<clipPath id="clip0_1967:20359">
<rect width="32" height="32" fill="white"/>
</clipPath>
</defs>
</svg>
