<svg width="32" height="32" viewBox="0 0 32 32" fill="none" xmlns="http://www.w3.org/2000/svg">
<path d="M19.8135 0.934082C20.4009 0.934203 20.8773 1.41042 20.8773 1.99786C20.8773 2.58529 20.4009 3.06151 19.8135 3.06163H12.0638C11.4763 3.06163 11 2.58536 11 1.99786C11 1.41035 11.4763 0.934082 12.0638 0.934082H19.8135Z" fill="black" stroke="white" stroke-linecap="round"/>
<path d="M19.8135 4.37015C20.4009 4.37027 20.8773 4.84649 20.8773 5.43392C20.8773 6.02135 20.4009 6.49757 19.8135 6.49769H12.0638C11.4763 6.49769 11 6.02143 11 5.43392C11 4.84642 11.4763 4.37015 12.0638 4.37015H19.8135Z" fill="black" stroke="white" stroke-linecap="round"/>
<path d="M19.8135 7.80652C20.4009 7.80664 20.8773 8.28286 20.8773 8.87029C20.8773 9.45772 20.4009 9.93394 19.8135 9.93407H12.0638C11.4763 9.93407 11 9.4578 11 8.87029C11 8.28279 11.4763 7.80652 12.0638 7.80652H19.8135Z" fill="black" stroke="white" stroke-linecap="round"/>
<path d="M17.2568 11.1193C14.4733 10.3605 11.6011 12.0024 10.8419 14.7859L8.18548 24.5273C7.42629 27.311 9.06736 30.183 11.851 30.9422C14.6347 31.7014 17.5067 30.0604 18.2659 27.2767L20.9235 17.5342C21.6823 14.7507 20.0403 11.8784 17.2568 11.1193Z" fill="white"/>
</svg>
