<svg width="32" height="32" viewBox="0 0 32 32" fill="none" xmlns="http://www.w3.org/2000/svg">
<g clip-path="url(#clip0_1967_16007)">
<path d="M0.0277703 10.5562C-0.235507 8.45001 1.40679 6.58965 3.5294 6.58965H28.4707C30.5933 6.58965 32.2356 8.45001 31.9723 10.5562L30.6308 21.2888C30.3364 23.6434 28.3348 25.4103 25.9619 25.4103H6.03818C3.66525 25.4103 1.66366 23.6434 1.36934 21.2888L0.0277703 10.5562Z" fill="white"/>
<path fill-rule="evenodd" clip-rule="evenodd" d="M16 11.883C13.7262 11.883 11.883 13.7262 11.883 16C11.883 18.2738 13.7262 20.117 16 20.117C18.2738 20.117 20.117 18.2738 20.117 16C20.117 13.7262 18.2738 11.883 16 11.883ZM10.7067 16C10.7067 13.0766 13.0766 10.7067 16 10.7067C18.9234 10.7067 21.2933 13.0766 21.2933 16C21.2933 18.9234 18.9234 21.2933 16 21.2933C13.0766 21.2933 10.7067 18.9234 10.7067 16Z" fill="black"/>
<path fill-rule="evenodd" clip-rule="evenodd" d="M16 9.82447C12.5894 9.82447 9.82447 12.5893 9.82447 16C9.82447 19.4107 12.5894 22.1755 16 22.1755C19.4107 22.1755 22.1755 19.4107 22.1755 16C22.1755 12.5893 19.4107 9.82447 16 9.82447ZM9.23633 16C9.23633 12.2645 12.2645 9.23632 16 9.23632C19.7355 9.23632 22.7637 12.2645 22.7637 16C22.7637 19.7355 19.7355 22.7637 16 22.7637C12.2645 22.7637 9.23633 19.7355 9.23633 16Z" fill="black"/>
</g>
<defs>
<clipPath id="clip0_1967_16007">
<rect width="32" height="32" fill="white"/>
</clipPath>
</defs>
</svg>
