<svg width="32" height="32" viewBox="0 0 32 32" fill="none" xmlns="http://www.w3.org/2000/svg">
<g clip-path="url(#clip0_1967_16432)">
<path d="M4.92261 3.12173H24.6312C26.2341 3.12173 27.4725 4.52955 27.2681 6.11935L24.8039 25.2855C24.5765 27.054 23.071 28.3783 21.288 28.3783H4.92261V3.12173Z" fill="white"/>
<path fill-rule="evenodd" clip-rule="evenodd" d="M5.55259 21.4576L7.60343 19.2795L9.64861 21.4605L12.5048 18.4099L9.80612 15.5337L12.5014 12.6549L9.64983 9.5919L7.60206 11.7825L5.55382 9.59483L-4.86374e-05 15.5361L5.55259 21.4576ZM7.98423 15.5347L10.6829 18.4109L9.64785 19.5164L5.9142 15.5347L9.64785 11.5406L10.6829 12.6523L7.98423 15.5347ZM1.82092 15.5347L5.55458 19.5164L6.58959 18.4171L3.89095 15.5347L6.58959 12.6461L5.55458 11.5406L1.82092 15.5347Z" fill="white"/>
<path fill-rule="evenodd" clip-rule="evenodd" d="M26.4474 21.4576L24.3966 19.2795L22.3514 21.4605L19.4952 18.4099L22.1939 15.5337L19.4986 12.6549L22.3502 9.5919L24.3979 11.7825L26.4462 9.59483L32 15.5361L26.4474 21.4576ZM24.0158 15.5347L21.3171 18.4109L22.3521 19.5164L26.0858 15.5347L22.3521 11.5406L21.3171 12.6523L24.0158 15.5347ZM30.1791 15.5347L26.4454 19.5164L25.4104 18.4171L28.109 15.5347L25.4104 12.6461L26.4454 11.5406L30.1791 15.5347Z" fill="white"/>
<path d="M1.82091 15.5347L5.55457 19.5163L6.58958 18.4171L3.89094 15.5347L6.58958 12.6461L5.55457 11.5406L1.82091 15.5347Z" fill="black"/>
<path d="M7.98422 15.5347L10.6829 18.4109L9.64785 19.5163L5.91419 15.5347L9.64785 11.5406L10.6829 12.6523L7.98422 15.5347Z" fill="black"/>
<path d="M30.1791 15.5347L26.4454 19.5163L25.4104 18.4171L28.1091 15.5347L25.4104 12.6461L26.4454 11.5406L30.1791 15.5347Z" fill="black"/>
<path d="M24.0158 15.5347L21.3171 18.4109L22.3522 19.5163L26.0858 15.5347L22.3522 11.5406L21.3171 12.6523L24.0158 15.5347Z" fill="black"/>
</g>
<defs>
<clipPath id="clip0_1967_16432">
<rect width="32" height="32" fill="white"/>
</clipPath>
</defs>
</svg>
