<svg width="32" height="32" viewBox="0 0 32 32" fill="none" xmlns="http://www.w3.org/2000/svg">
<g clip-path="url(#clip0_1967_16012)">
<path fill-rule="evenodd" clip-rule="evenodd" d="M9.57286 6.58972L16 14.5L22.4271 6.58972H28.4706C30.5933 6.58972 32.2355 8.45008 31.9723 10.5563L30.6307 21.2888C30.3364 23.6434 28.3348 25.4104 25.9619 25.4104H6.03816C3.66524 25.4104 1.66366 23.6434 1.36933 21.2888L0.0277703 10.5563C-0.235507 8.45008 1.40678 6.58972 3.52939 6.58972H9.57286Z" fill="#0E141B"/>
<rect x="15.5" y="15.5" width="1" height="2" fill="white"/>
<rect x="17.5" y="15.2072" width="1" height="2" transform="rotate(-45 17.5 15.2072)" fill="white"/>
<rect x="13.9143" y="14.5" width="1" height="2" transform="rotate(45 13.9143 14.5)" fill="white"/>
<path fill-rule="evenodd" clip-rule="evenodd" d="M10.5286 7.76599H4.099C2.30942 7.76599 0.934738 9.35101 1.18782 11.1226L2.62806 21.2043C2.87642 22.9428 4.36533 24.2341 6.12147 24.2341H25.8788C27.6349 24.2341 29.1238 22.9428 29.3722 21.2043L30.8124 11.1226C31.0655 9.35101 29.6908 7.76599 27.9012 7.76599H21.4714L20.5157 8.94228H27.9012C28.975 8.94228 29.7998 9.8933 29.6479 10.9563L28.2077 21.0379C28.0421 22.1969 27.0495 23.0578 25.8788 23.0578H6.12147C4.95071 23.0578 3.9581 22.1969 3.79253 21.0379L2.35229 10.9562C2.20044 9.89329 3.02525 8.94228 4.099 8.94228H11.4843L10.5286 7.76599Z" fill="white"/>
<mask id="path-6-inside-1_1967_16012" fill="white">
<path fill-rule="evenodd" clip-rule="evenodd" d="M18.5 1H13.5V5H9.5L16 13L22.5 5H18.5V1Z"/>
</mask>
<path fill-rule="evenodd" clip-rule="evenodd" d="M18.5 1H13.5V5H9.5L16 13L22.5 5H18.5V1Z" fill="white"/>
<path d="M13.5 1V0H12.5V1H13.5ZM18.5 1H19.5V0H18.5V1ZM13.5 5V6H14.5V5H13.5ZM9.5 5V4H7.39902L8.72389 5.63059L9.5 5ZM16 13L15.2239 13.6306L16 14.5858L16.7761 13.6306L16 13ZM22.5 5L23.2761 5.63059L24.601 4H22.5V5ZM18.5 5H17.5V6H18.5V5ZM13.5 2H18.5V0H13.5V2ZM14.5 5V1H12.5V5H14.5ZM13.5 4H9.5V6H13.5V4ZM8.72389 5.63059L15.2239 13.6306L16.7761 12.3694L10.2761 4.36941L8.72389 5.63059ZM16.7761 13.6306L23.2761 5.63059L21.7239 4.36941L15.2239 12.3694L16.7761 13.6306ZM22.5 4H18.5V6H22.5V4ZM17.5 1V5H19.5V1H17.5Z" fill="#0E141B" mask="url(#path-6-inside-1_1967_16012)"/>
</g>
<defs>
<clipPath id="clip0_1967_16012">
<rect width="32" height="32" fill="white"/>
</clipPath>
</defs>
</svg>
