<svg width="32" height="32" viewBox="0 0 32 32" fill="none" xmlns="http://www.w3.org/2000/svg">
<g clip-path="url(#clip0_7531_1140)">
<path d="M0.0277703 10.5562C-0.235507 8.45001 1.40679 6.58965 3.5294 6.58965H28.4707C30.5933 6.58965 32.2356 8.45001 31.9723 10.5562L30.6308 21.2888C30.3364 23.6434 28.3348 25.4103 25.9619 25.4103H6.03818C3.66525 25.4103 1.66366 23.6434 1.36934 21.2888L0.0277703 10.5562Z" fill="white"/>
<path fill-rule="evenodd" clip-rule="evenodd" d="M19.5288 8.94224H27.901C28.9748 8.94224 29.7996 9.89325 29.6477 10.9562L28.2075 21.0379C28.0419 22.1969 27.0493 23.0578 25.8785 23.0578H19.5288C18.2295 23.0578 17.1762 22.0045 17.1762 20.7052V11.2948C17.1762 9.99553 18.2295 8.94224 19.5288 8.94224ZM27.901 7.76595C29.6906 7.76595 31.0653 9.35096 30.8122 11.1226L29.3719 21.2042C29.1236 22.9427 27.6347 24.234 25.8785 24.234H19.5288C17.5798 24.234 15.9999 22.6541 15.9999 20.7052V11.2948C15.9999 9.34588 17.5798 7.76595 19.5288 7.76595H27.901Z" fill="black"/>
</g>
<defs>
<clipPath id="clip0_7531_1140">
<rect width="32" height="32" fill="white"/>
</clipPath>
</defs>
</svg>
