<svg width="32" height="32" viewBox="0 0 32 32" fill="none" xmlns="http://www.w3.org/2000/svg">
<g clip-path="url(#clip0_1967_20347)">
<path fill-rule="evenodd" clip-rule="evenodd" d="M32 4.44444L0 0L2.68006 19.2964C3.20199 23.0544 5.11267 26.3167 7.85014 28.5943L32 4.44444Z" fill="white"/>
<path opacity="0.5" fill-rule="evenodd" clip-rule="evenodd" d="M7.8501 28.5943L32 4.44446V17.27C32 25.4052 25.4051 32 17.27 32C13.7118 32 10.4174 30.7303 7.8501 28.5943Z" fill="white"/>
<path d="M16.3043 20.6111H10.2065V11.9H12.3594V18.6698H16.3043V20.6111Z" fill="black"/>
<path d="M20.8037 18.7569H24.7112V20.6111H18.0783V18.844L20.5921 16.8031C20.982 16.4796 21.2765 16.2224 21.4757 16.0316C21.6748 15.8407 21.8282 15.6458 21.9361 15.4467C22.0522 15.2476 22.1103 15.0277 22.1103 14.7871C22.1103 14.4138 21.9651 14.1317 21.6748 13.9409C21.3927 13.7501 21.0318 13.6547 20.5921 13.6547C20.2602 13.6547 19.9325 13.7044 19.609 13.804C19.2854 13.8953 18.9951 14.0197 18.7379 14.1773L18.041 12.5844C18.4392 12.3273 18.8831 12.124 19.3725 11.9747C19.8703 11.8253 20.4013 11.7507 20.9654 11.7507C22.0108 11.7507 22.8528 11.9705 23.4917 12.4102C24.1305 12.8416 24.4499 13.4804 24.4499 14.3267C24.4499 14.9074 24.284 15.4384 23.9521 15.9196C23.6285 16.3924 23.1266 16.9027 22.4463 17.4502L20.8037 18.7569Z" fill="black"/>
</g>
<defs>
<clipPath id="clip0_1967_20347">
<rect width="32" height="32" fill="white"/>
</clipPath>
</defs>
</svg>
