<svg width="64" height="64" viewBox="0 0 64 64" fill="none" xmlns="http://www.w3.org/2000/svg">
<mask id="path-1-outside-1_1967:13900" maskUnits="userSpaceOnUse" x="2" y="2" width="60" height="60" fill="black">
<rect fill="white" x="2" y="2" width="60" height="60"/>
<path d="M59 32C59 46.9117 46.9117 59 32 59C17.0883 59 5 46.9117 5 32C5 17.0883 17.0883 5 32 5C46.9117 5 59 17.0883 59 32Z"/>
</mask>
<path d="M59 32C59 46.9117 46.9117 59 32 59C17.0883 59 5 46.9117 5 32C5 17.0883 17.0883 5 32 5C46.9117 5 59 17.0883 59 32Z" fill="white"/>
<path d="M56.4286 32C56.4286 45.4915 45.4915 56.4286 32 56.4286V61.5714C48.3318 61.5714 61.5714 48.3318 61.5714 32H56.4286ZM32 56.4286C18.5085 56.4286 7.57143 45.4915 7.57143 32H2.42857C2.42857 48.3318 15.6682 61.5714 32 61.5714V56.4286ZM7.57143 32C7.57143 18.5085 18.5085 7.57143 32 7.57143V2.42857C15.6682 2.42857 2.42857 15.6682 2.42857 32H7.57143ZM32 7.57143C45.4915 7.57143 56.4286 18.5085 56.4286 32H61.5714C61.5714 15.6682 48.3318 2.42857 32 2.42857V7.57143Z" fill="black" mask="url(#path-1-outside-1_1967:13900)"/>
<path fill-rule="evenodd" clip-rule="evenodd" d="M35.4101 31.9999L48.3982 45.6715L45.6018 48.3281L32.75 34.8L19.8983 48.3281L17.1019 45.6715L30.0899 31.9999L17.1018 18.3281L19.8982 15.6715L32.75 29.1998L45.6019 15.6715L48.3983 18.3281L35.4101 31.9999Z" fill="black"/>
</svg>
