<svg width="32" height="32" viewBox="0 0 32 32" fill="none" xmlns="http://www.w3.org/2000/svg">
<path fill-rule="evenodd" clip-rule="evenodd" d="M8.98635 18.411V15.4317L16.4353 21.9178H12.4932C10.5564 21.9178 8.98635 20.3477 8.98635 18.411ZM11.6165 24.1096H18.9525L21.8153 26.6023C21.3519 26.6925 20.8733 26.7397 20.3836 26.7397H17.3151V29.3699H21.2603V32H10.7398V29.3699H14.685V26.7397H11.6165C7.50079 26.7397 4.1644 23.4033 4.1644 19.2877V14.9041H6.79453V19.2877C6.79453 21.9507 8.95338 24.1096 11.6165 24.1096ZM25.1067 20.2637L27.2679 22.1456C27.6337 21.2655 27.8356 20.3002 27.8356 19.2877V14.9041H25.2055V19.2877C25.2055 19.622 25.1715 19.9485 25.1067 20.2637ZM8.98635 6.22716L23.0136 18.4412L23.0137 18.411V3.50685C23.0137 1.57007 21.4437 0 19.5069 0H12.4932C10.5564 0 8.98635 1.57007 8.98635 3.50685V6.22716ZM0.219238 4.9445L30.0556 30.924L31.7809 28.9285L1.94453 2.94895L0.219238 4.9445Z" fill="white"/>
</svg>
