<svg width="64" height="64" viewBox="0 0 64 64" fill="none" xmlns="http://www.w3.org/2000/svg">
<path fill-rule="evenodd" clip-rule="evenodd" d="M17.9726 36.8219V30.8635L32.8705 43.8356H24.9863C21.1127 43.8356 17.9726 40.6955 17.9726 36.8219ZM23.2328 48.2192H37.9048L43.6304 53.2046C42.7038 53.385 41.7464 53.4794 40.767 53.4794H34.6301V58.7397H42.5205V64H21.4794V58.7397H29.3698V53.4794H23.2328C15.0015 53.4794 8.32867 46.8066 8.32867 38.5753V29.8082H13.5889V38.5753C13.5889 43.9015 17.9066 48.2192 23.2328 48.2192ZM50.2132 40.5273L54.5358 44.2911C55.2673 42.531 55.6711 40.6003 55.6711 38.5753V29.8082H50.4109V38.5753C50.4109 39.2441 50.3428 39.8969 50.2132 40.5273ZM17.9726 12.4543L46.0271 36.8824L46.0274 36.8219V7.0137C46.0274 3.14014 42.8872 0 39.0137 0H24.9863C21.1127 0 17.9726 3.14015 17.9726 7.01371V12.4543ZM0.438354 9.889L60.1111 61.8481L63.5616 57.857L3.88895 5.8979L0.438354 9.889Z" fill="white"/>
</svg>
