<svg width="64" height="64" viewBox="0 0 64 64" fill="none" xmlns="http://www.w3.org/2000/svg">
<mask id="path-1-outside-1_1967:13945" maskUnits="userSpaceOnUse" x="1" y="1" width="62" height="62" fill="black">
<rect fill="white" x="1" y="1" width="62" height="62"/>
<path d="M60 32C60 47.464 47.464 60 32 60C16.536 60 4 47.464 4 32C4 16.536 16.536 4 32 4C47.464 4 60 16.536 60 32Z"/>
</mask>
<path d="M60 32C60 47.464 47.464 60 32 60C16.536 60 4 47.464 4 32C4 16.536 16.536 4 32 4C47.464 4 60 16.536 60 32Z" fill="white"/>
<path d="M57.3333 32C57.3333 45.9912 45.9912 57.3333 32 57.3333V62.6667C48.9367 62.6667 62.6667 48.9367 62.6667 32H57.3333ZM32 57.3333C18.0088 57.3333 6.66667 45.9912 6.66667 32H1.33333C1.33333 48.9367 15.0633 62.6667 32 62.6667V57.3333ZM6.66667 32C6.66667 18.0088 18.0088 6.66667 32 6.66667V1.33333C15.0633 1.33333 1.33333 15.0633 1.33333 32H6.66667ZM32 6.66667C45.9912 6.66667 57.3333 18.0088 57.3333 32H62.6667C62.6667 15.0633 48.9367 1.33333 32 1.33333V6.66667Z" fill="#ED838F" mask="url(#path-1-outside-1_1967:13945)"/>
<circle cx="32" cy="32" r="18.6667" stroke="#ED838F" stroke-width="2.66667"/>
</svg>
