<svg width="64" height="64" viewBox="0 0 64 64" fill="none" xmlns="http://www.w3.org/2000/svg">
<path d="M9.12445 41.6439C5.82367 41.9069 3 39.2992 3 35.9879L3 28.0402C3 24.7351 5.81371 22.1295 9.10908 22.383L17.5311 23.0308C18.7315 23.1232 19.8593 23.6419 20.7106 24.4932L26.4343 30.2169C27.419 31.2017 27.4191 32.7983 26.4343 33.7831L20.7051 39.5123C19.8571 40.3603 18.7347 40.8784 17.5393 40.9736L9.12445 41.6439Z" fill="white"/>
<path d="M54.8755 41.6439C58.1763 41.9069 61 39.2992 61 35.9879L61 28.0402C61 24.7351 58.1863 22.1295 54.8909 22.383L46.4689 23.0308C45.2685 23.1232 44.1407 23.6419 43.2894 24.4932L37.5657 30.2169C36.581 31.2017 36.5809 32.7983 37.5657 33.7831L43.2949 39.5123C44.1429 40.3603 45.2653 40.8784 46.4607 40.9736L54.8755 41.6439Z" fill="white"/>
<path d="M22.4008 54.8755C22.1379 58.1763 24.7456 61 28.0568 61L36.0046 61C39.3097 61 41.9153 58.1863 41.6618 54.8909L41.014 46.4689C40.9216 45.2685 40.4029 44.1408 39.5516 43.2894L33.8279 37.5658C32.8431 36.581 31.2464 36.5809 30.2616 37.5657L24.5324 43.2949C23.6845 44.1429 23.1664 45.2653 23.0712 46.4607L22.4008 54.8755Z" fill="white"/>
<path d="M41.644 9.12445C41.9069 5.82367 39.2992 3 35.988 3L28.0402 3C24.7351 3 22.1295 5.81371 22.383 9.10908L23.0308 17.5311C23.1232 18.7315 23.6419 19.8592 24.4932 20.7106L30.2169 26.4342C31.2017 27.419 32.7984 27.4191 33.7832 26.4343L39.5124 20.7051C40.3603 19.8571 40.8784 18.7347 40.9736 17.5393L41.644 9.12445Z" fill="white"/>
</svg>
