<svg width="32" height="32" viewBox="0 0 32 32" fill="none" xmlns="http://www.w3.org/2000/svg">
<path d="M11.1781 4.56223C11.0466 2.91184 12.3505 1.5 14.0061 1.5L17.98 1.5C19.6325 1.5 20.9353 2.90685 20.8086 4.55454L20.4846 8.76555C20.4385 9.36575 20.1791 9.92963 19.7535 10.3553L16.8916 13.2171C16.3992 13.7095 15.6009 13.7095 15.1085 13.2171L12.2439 10.3525C11.8199 9.92854 11.5609 9.36735 11.5132 8.76963L11.1781 4.56223Z" fill="black"/>
<path fill-rule="evenodd" clip-rule="evenodd" d="M14.0061 3.5C13.5176 3.5 13.133 3.91652 13.1718 4.40341L13.5069 8.61082C13.5168 8.73449 13.5704 8.85059 13.6581 8.93831L12.4216 10.1748L13.6581 8.93831L16 11.2803L18.3392 8.94107L19.7535 10.3553L16.8916 13.2171C16.3992 13.7095 15.6009 13.7095 15.1085 13.2171L12.2439 10.3525C11.8199 9.92854 11.5609 9.36735 11.5132 8.76963L11.1781 4.56223C11.0466 2.91184 12.3505 1.5 14.0061 1.5L17.98 1.5C19.6325 1.5 20.9353 2.90685 20.8086 4.55454L20.4846 8.76555C20.4385 9.36575 20.1791 9.92963 19.7535 10.3553L18.3393 8.94107C18.4273 8.853 18.481 8.73634 18.4905 8.61216L18.8145 4.40115C18.8518 3.91505 18.4675 3.5 17.98 3.5L14.0061 3.5Z" fill="white"/>
<path d="M11.1781 27.4378C11.0466 29.0882 12.3505 30.5 14.0061 30.5L17.98 30.5C19.6325 30.5 20.9353 29.0931 20.8086 27.4455L20.4846 23.2344C20.4385 22.6343 20.1791 22.0704 19.7535 21.6447L16.8916 18.7829C16.3992 18.2905 15.6009 18.2905 15.1085 18.7829L12.2439 21.6475C11.8199 22.0715 11.5609 22.6327 11.5132 23.2304L11.1781 27.4378Z" fill="black"/>
<path fill-rule="evenodd" clip-rule="evenodd" d="M14.0061 28.5C13.5176 28.5 13.133 28.0835 13.1718 27.5966L13.5069 23.3892C13.5168 23.2655 13.5704 23.1494 13.6581 23.0617L12.4944 21.898L13.6581 23.0617L16 20.7197L18.3392 23.0589L19.7535 21.6447L16.8916 18.7829C16.3992 18.2905 15.6009 18.2905 15.1085 18.7829L12.2439 21.6475C11.8199 22.0715 11.5609 22.6327 11.5132 23.2304L11.1781 27.4378C11.0466 29.0882 12.3505 30.5 14.0061 30.5L17.98 30.5C19.6325 30.5 20.9353 29.0931 20.8086 27.4455L20.4846 23.2344C20.4385 22.6343 20.1791 22.0704 19.7535 21.6447L18.3393 23.0589C18.4273 23.147 18.481 23.2637 18.4905 23.3878L18.8145 27.5989C18.8518 28.0849 18.4675 28.5 17.98 28.5L14.0061 28.5Z" fill="white"/>
<path d="M4.56223 11.2004C2.91184 11.069 1.5 12.3728 1.5 14.0284L1.5 18.0023C1.5 19.6549 2.90685 20.9576 4.55454 20.8309L8.76555 20.507C9.36575 20.4608 9.92963 20.2015 10.3553 19.7758L13.2171 16.914C13.7095 16.4216 13.7095 15.6232 13.2171 15.1308L10.3525 12.2662C9.92854 11.8422 9.36735 11.5832 8.76963 11.5356L4.56223 11.2004Z" fill="black"/>
<path fill-rule="evenodd" clip-rule="evenodd" d="M3.5 14.0284C3.5 13.54 3.91652 13.1553 4.40341 13.1941L8.61082 13.5293C8.73449 13.5391 8.85059 13.5927 8.93831 13.6804L10.3525 12.2662C9.92854 11.8422 9.36735 11.5832 8.76963 11.5356L4.56223 11.2004C2.91184 11.069 1.5 12.3728 1.5 14.0284L1.5 18.0023C1.5 19.6549 2.90685 20.9576 4.55454 20.8309L8.76555 20.507C9.36575 20.4608 9.92963 20.2015 10.3553 19.7758L8.94107 18.3616C8.853 18.4497 8.73633 18.5033 8.61216 18.5129L4.40115 18.8368C3.91505 18.8742 3.5 18.4898 3.5 18.0023L3.5 14.0284ZM11.2803 16.0224L8.93831 13.6804L10.3525 12.2662L13.2171 15.1308C13.7095 15.6232 13.7095 16.4216 13.2171 16.914L10.3553 19.7758L8.94107 18.3616L11.2803 16.0224Z" fill="white"/>
<path d="M27.4378 20.822C29.0882 20.9534 30.5 19.6496 30.5 17.994L30.5 14.0201C30.5 12.3675 29.0931 11.0648 27.4455 11.1915L23.2344 11.5154C22.6343 11.5616 22.0704 11.8209 21.6447 12.2466L18.7829 15.1084C18.2905 15.6008 18.2905 16.3992 18.7829 16.8916L21.6475 19.7562C22.0715 20.1802 22.6327 20.4392 23.2304 20.4868L27.4378 20.822Z" fill="white"/>
</svg>
