<svg width="32" height="32" viewBox="0 0 32 32" fill="none" xmlns="http://www.w3.org/2000/svg">
<path d="M20.8219 4.56223C20.9534 2.91184 19.6495 1.5 17.9939 1.5L14.02 1.5C12.3675 1.5 11.0647 2.90685 11.1914 4.55454L11.5154 8.76555C11.5615 9.36575 11.8209 9.92963 12.2465 10.3553L15.1084 13.2171C15.6008 13.7095 16.3991 13.7095 16.8915 13.2171L19.7561 10.3525C20.1801 9.92854 20.4391 9.36735 20.4868 8.76963L20.8219 4.56223Z" fill="black"/>
<path fill-rule="evenodd" clip-rule="evenodd" d="M17.9939 3.5C18.4824 3.5 18.867 3.91652 18.8282 4.40341L18.4931 8.61082C18.4832 8.73449 18.4296 8.85059 18.3419 8.93831L19.5784 10.1748L18.3419 8.93831L16 11.2803L13.6608 8.94107L12.2465 10.3553L15.1084 13.2171C15.6008 13.7095 16.3991 13.7095 16.8915 13.2171L19.7561 10.3525C20.1801 9.92854 20.4391 9.36735 20.4868 8.76963L20.8219 4.56223C20.9534 2.91184 19.6495 1.5 17.9939 1.5L14.02 1.5C12.3675 1.5 11.0647 2.90685 11.1914 4.55454L11.5154 8.76555C11.5615 9.36575 11.8209 9.92963 12.2465 10.3553L13.6607 8.94107C13.5727 8.853 13.519 8.73634 13.5095 8.61216L13.1855 4.40115C13.1482 3.91505 13.5325 3.5 14.02 3.5L17.9939 3.5Z" fill="white"/>
<path d="M20.8219 27.4378C20.9534 29.0882 19.6495 30.5 17.9939 30.5L14.02 30.5C12.3675 30.5 11.0647 29.0931 11.1914 27.4455L11.5154 23.2344C11.5615 22.6343 11.8209 22.0704 12.2465 21.6447L15.1084 18.7829C15.6008 18.2905 16.3991 18.2905 16.8915 18.7829L19.7561 21.6475C20.1801 22.0715 20.4391 22.6327 20.4868 23.2304L20.8219 27.4378Z" fill="black"/>
<path fill-rule="evenodd" clip-rule="evenodd" d="M17.9939 28.5C18.4824 28.5 18.867 28.0835 18.8282 27.5966L18.4931 23.3892C18.4832 23.2655 18.4296 23.1494 18.3419 23.0617L19.5056 21.898L18.3419 23.0617L16 20.7197L13.6608 23.0589L12.2465 21.6447L15.1084 18.7829C15.6008 18.2905 16.3991 18.2905 16.8915 18.7829L19.7561 21.6475C20.1801 22.0715 20.4391 22.6327 20.4868 23.2304L20.8219 27.4378C20.9534 29.0882 19.6495 30.5 17.9939 30.5L14.02 30.5C12.3675 30.5 11.0647 29.0931 11.1914 27.4455L11.5154 23.2344C11.5615 22.6343 11.8209 22.0704 12.2465 21.6447L13.6607 23.0589C13.5727 23.147 13.519 23.2637 13.5095 23.3878L13.1855 27.5989C13.1482 28.0849 13.5325 28.5 14.02 28.5L17.9939 28.5Z" fill="white"/>
<path d="M27.4378 11.2004C29.0882 11.069 30.5 12.3728 30.5 14.0284L30.5 18.0023C30.5 19.6549 29.0931 20.9576 27.4455 20.8309L23.2344 20.507C22.6343 20.4608 22.0704 20.2015 21.6447 19.7758L18.7829 16.914C18.2905 16.4216 18.2905 15.6232 18.7829 15.1308L21.6475 12.2662C22.0715 11.8422 22.6327 11.5832 23.2304 11.5356L27.4378 11.2004Z" fill="black"/>
<path fill-rule="evenodd" clip-rule="evenodd" d="M28.5 14.0284C28.5 13.54 28.0835 13.1553 27.5966 13.1941L23.3892 13.5293C23.2655 13.5391 23.1494 13.5927 23.0617 13.6804L21.6475 12.2662C22.0715 11.8422 22.6327 11.5832 23.2304 11.5356L27.4378 11.2004C29.0882 11.069 30.5 12.3728 30.5 14.0284V18.0023C30.5 19.6549 29.0931 20.9576 27.4455 20.8309L23.2344 20.507C22.6343 20.4608 22.0704 20.2015 21.6447 19.7758L23.0589 18.3616C23.147 18.4497 23.2637 18.5033 23.3878 18.5129L27.5989 18.8368C28.085 18.8742 28.5 18.4898 28.5 18.0023V14.0284ZM20.7197 16.0224L23.0617 13.6804L21.6475 12.2662L18.7829 15.1308C18.2905 15.6232 18.2905 16.4216 18.7829 16.914L21.6447 19.7758L23.0589 18.3616L20.7197 16.0224Z" fill="white"/>
<path d="M4.56223 20.822C2.91184 20.9534 1.5 19.6496 1.5 17.994L1.5 14.0201C1.5 12.3675 2.90685 11.0648 4.55454 11.1915L8.76555 11.5154C9.36575 11.5616 9.92963 11.8209 10.3553 12.2466L13.2171 15.1084C13.7095 15.6008 13.7095 16.3992 13.2171 16.8916L10.3525 19.7562C9.92854 20.1802 9.36735 20.4392 8.76963 20.4868L4.56223 20.822Z" fill="white"/>
</svg>
