<svg width="32" height="32" viewBox="0 0 32 32" fill="none" xmlns="http://www.w3.org/2000/svg">
<path d="M27.4378 11.1781C29.0882 11.0466 30.5 12.3504 30.5 14.0061L30.5 17.9799C30.5 19.6325 29.0931 20.9353 27.4455 20.8085L23.2344 20.4846C22.6343 20.4384 22.0704 20.1791 21.6447 19.7534L18.7829 16.8916C18.2905 16.3992 18.2905 15.6008 18.7829 15.1084L21.6475 12.2438C22.0715 11.8199 22.6327 11.5608 23.2304 11.5132L27.4378 11.1781Z" fill="black"/>
<path fill-rule="evenodd" clip-rule="evenodd" d="M28.5 14.0061C28.5 13.5176 28.0835 13.133 27.5966 13.1717L23.3892 13.5069C23.2655 13.5167 23.1494 13.5703 23.0617 13.6581L21.8252 12.4216L23.0617 13.6581L20.7197 16L23.0589 18.3392L21.6447 19.7534L18.7829 16.8916C18.2905 16.3992 18.2905 15.6008 18.7829 15.1084L21.6475 12.2438C22.0715 11.8199 22.6327 11.5608 23.2304 11.5132L27.4378 11.1781C29.0882 11.0466 30.5 12.3504 30.5 14.0061L30.5 17.9799C30.5 19.6325 29.0931 20.9353 27.4455 20.8085L23.2344 20.4846C22.6343 20.4384 22.0704 20.1791 21.6447 19.7534L23.0589 18.3392C23.147 18.4273 23.2637 18.4809 23.3878 18.4905L27.5989 18.8144C28.0849 18.8518 28.5 18.4675 28.5 17.9799L28.5 14.0061Z" fill="white"/>
<path d="M4.56223 11.1781C2.91184 11.0466 1.5 12.3504 1.5 14.0061L1.5 17.9799C1.5 19.6325 2.90685 20.9353 4.55454 20.8085L8.76555 20.4846C9.36575 20.4384 9.92963 20.1791 10.3553 19.7534L13.2171 16.8916C13.7095 16.3992 13.7095 15.6008 13.2171 15.1084L10.3525 12.2438C9.92854 11.8199 9.36735 11.5608 8.76963 11.5132L4.56223 11.1781Z" fill="black"/>
<path fill-rule="evenodd" clip-rule="evenodd" d="M3.5 14.0061C3.5 13.5176 3.91652 13.133 4.40341 13.1717L8.61082 13.5069C8.73448 13.5167 8.85059 13.5703 8.93831 13.6581L10.102 12.4944L8.93831 13.6581L11.2803 16L8.94107 18.3392L10.3553 19.7534L13.2171 16.8916C13.7095 16.3992 13.7095 15.6008 13.2171 15.1084L10.3525 12.2438C9.92854 11.8199 9.36735 11.5608 8.76963 11.5132L4.56223 11.1781C2.91184 11.0466 1.5 12.3504 1.5 14.0061L1.5 17.9799C1.5 19.6325 2.90685 20.9353 4.55454 20.8085L8.76555 20.4846C9.36575 20.4384 9.92963 20.1791 10.3553 19.7534L8.94107 18.3392C8.853 18.4273 8.73634 18.4809 8.61216 18.4905L4.40115 18.8144C3.91505 18.8518 3.5 18.4675 3.5 17.9799L3.5 14.0061Z" fill="white"/>
<path d="M20.7996 4.56223C20.931 2.91184 19.6272 1.5 17.9716 1.5L13.9977 1.5C12.3451 1.5 11.0424 2.90685 11.1691 4.55454L11.493 8.76555C11.5392 9.36575 11.7985 9.92963 12.2242 10.3553L15.086 13.2171C15.5784 13.7095 16.3768 13.7095 16.8692 13.2171L19.7338 10.3525C20.1578 9.92854 20.4168 9.36735 20.4644 8.76963L20.7996 4.56223Z" fill="black"/>
<path fill-rule="evenodd" clip-rule="evenodd" d="M17.9716 3.5C18.46 3.5 18.8447 3.91652 18.8059 4.40341L18.4707 8.61082C18.4609 8.73449 18.4073 8.85059 18.3196 8.93831L19.7338 10.3525C20.1578 9.92854 20.4168 9.36735 20.4644 8.76963L20.7996 4.56223C20.931 2.91184 19.6272 1.5 17.9716 1.5L13.9977 1.5C12.3451 1.5 11.0424 2.90685 11.1691 4.55454L11.493 8.76555C11.5392 9.36575 11.7985 9.92963 12.2242 10.3553L13.6384 8.94107C13.5503 8.853 13.4967 8.73633 13.4871 8.61216L13.1632 4.40115C13.1258 3.91505 13.5102 3.5 13.9977 3.5L17.9716 3.5ZM15.9776 11.2803L18.3196 8.93831L19.7338 10.3525L16.8692 13.2171C16.3768 13.7095 15.5784 13.7095 15.086 13.2171L12.2242 10.3553L13.6384 8.94107L15.9776 11.2803Z" fill="white"/>
<path d="M11.178 27.4378C11.0465 29.0882 12.3503 30.5 14.006 30.5L17.9798 30.5C19.6324 30.5 20.9352 29.0931 20.8084 27.4455L20.4845 23.2344C20.4383 22.6343 20.179 22.0704 19.7533 21.6447L16.8915 18.7829C16.3991 18.2905 15.6008 18.2905 15.1084 18.7829L12.2438 21.6475C11.8198 22.0715 11.5607 22.6327 11.5131 23.2304L11.178 27.4378Z" fill="white"/>
</svg>
