<svg width="32" height="32" viewBox="0 0 32 32" fill="none" xmlns="http://www.w3.org/2000/svg">
<path d="M4.56223 20.8219C2.91184 20.9534 1.5 19.6496 1.5 17.9939L1.5 14.0201C1.5 12.3675 2.90685 11.0647 4.55454 11.1915L8.76555 11.5154C9.36575 11.5616 9.92963 11.8209 10.3553 12.2466L13.2171 15.1084C13.7095 15.6008 13.7095 16.3992 13.2171 16.8916L10.3525 19.7562C9.92854 20.1801 9.36735 20.4392 8.76963 20.4868L4.56223 20.8219Z" fill="white"/>
<path fill-rule="evenodd" clip-rule="evenodd" d="M2.13038 14.0201L2.13038 17.994C2.13038 19.2817 3.22847 20.2958 4.51211 20.1935L8.71951 19.8584C9.1678 19.8227 9.58869 19.6284 9.90668 19.3104L12.7713 16.4458C13.0175 16.1996 13.0175 15.8004 12.7713 15.5542L9.90944 12.6924C9.5902 12.3731 9.16729 12.1786 8.71714 12.144L4.50613 11.8201C3.2246 11.7215 2.13038 12.7348 2.13038 14.0201ZM0.869507 17.994L0.869508 14.0201C0.869508 12.0003 2.58899 10.408 4.60284 10.5629L8.81385 10.8868C9.56409 10.9445 10.2689 11.2687 10.801 11.8008L13.6629 14.6626C14.4015 15.4012 14.4015 16.5988 13.6629 17.3374L10.7983 20.202C10.2683 20.7319 9.56678 21.0557 8.81963 21.1153L4.61223 21.4504C2.59508 21.6111 0.869507 20.0175 0.869507 17.994Z" fill="black"/>
<path d="M27.4378 20.8219C29.0882 20.9534 30.5 19.6496 30.5 17.9939L30.5 14.0201C30.5 12.3675 29.0931 11.0647 27.4455 11.1915L23.2344 11.5154C22.6343 11.5616 22.0704 11.8209 21.6447 12.2466L18.7829 15.1084C18.2905 15.6008 18.2905 16.3992 18.7829 16.8916L21.6475 19.7562C22.0715 20.1801 22.6327 20.4392 23.2304 20.4868L27.4378 20.8219Z" fill="white"/>
<path d="M11.2004 27.4378C11.069 29.0882 12.3728 30.5 14.0284 30.5L18.0023 30.5C19.6549 30.5 20.9576 29.0931 20.8309 27.4455L20.507 23.2344C20.4608 22.6343 20.2015 22.0704 19.7758 21.6447L16.914 18.7829C16.4216 18.2905 15.6232 18.2905 15.1308 18.7829L12.2662 21.6475C11.8422 22.0715 11.5832 22.6327 11.5356 23.2304L11.2004 27.4378Z" fill="white"/>
<path d="M20.8219 4.56223C20.9534 2.91184 19.6495 1.5 17.9939 1.5L14.02 1.5C12.3675 1.5 11.0647 2.90685 11.1914 4.55454L11.5154 8.76555C11.5615 9.36575 11.8209 9.92963 12.2465 10.3553L15.1084 13.2171C15.6008 13.7095 16.3991 13.7095 16.8915 13.2171L19.7561 10.3525C20.1801 9.92854 20.4391 9.36735 20.4868 8.76963L20.8219 4.56223Z" fill="white"/>
</svg>
