<svg width="32" height="32" viewBox="0 0 32 32" fill="none" xmlns="http://www.w3.org/2000/svg">
<path d="M4.56223 20.8219C2.91184 20.9534 1.5 19.6496 1.5 17.9939L1.5 14.0201C1.5 12.3675 2.90685 11.0647 4.55454 11.1915L8.76555 11.5154C9.36575 11.5616 9.92963 11.8209 10.3553 12.2466L13.2171 15.1084C13.7095 15.6008 13.7095 16.3992 13.2171 16.8916L10.3525 19.7562C9.92854 20.1801 9.36735 20.4392 8.76963 20.4868L4.56223 20.8219Z" fill="white"/>
<path d="M27.4378 20.8219C29.0882 20.9534 30.5 19.6496 30.5 17.9939L30.5 14.0201C30.5 12.3675 29.0931 11.0647 27.4455 11.1915L23.2344 11.5154C22.6343 11.5616 22.0704 11.8209 21.6447 12.2466L18.7829 15.1084C18.2905 15.6008 18.2905 16.3992 18.7829 16.8916L21.6475 19.7562C22.0715 20.1801 22.6327 20.4392 23.2304 20.4868L27.4378 20.8219Z" fill="white"/>
<path d="M11.2004 27.4378C11.069 29.0882 12.3728 30.5 14.0284 30.5L18.0023 30.5C19.6549 30.5 20.9576 29.0931 20.8309 27.4455L20.507 23.2344C20.4608 22.6343 20.2015 22.0704 19.7758 21.6447L16.914 18.7829C16.4216 18.2905 15.6232 18.2905 15.1308 18.7829L12.2662 21.6475C11.8422 22.0715 11.5832 22.6327 11.5356 23.2304L11.2004 27.4378Z" fill="white"/>
<path d="M20.822 4.56223C20.9535 2.91184 19.6497 1.5 17.994 1.5L14.0202 1.5C12.3676 1.5 11.0648 2.90685 11.1916 4.55454L11.5155 8.76555C11.5617 9.36575 11.821 9.92963 12.2467 10.3553L15.1085 13.2171C15.6009 13.7095 16.3992 13.7095 16.8916 13.2171L19.7562 10.3525C20.1802 9.92854 20.4393 9.36735 20.4869 8.76963L20.822 4.56223Z" fill="white"/>
<path fill-rule="evenodd" clip-rule="evenodd" d="M14.0202 2.13044L17.9941 2.13044C19.2818 2.13044 20.2959 3.22853 20.1936 4.51217L19.8585 8.71957C19.8227 9.16786 19.6285 9.58875 19.3105 9.90674L16.4459 12.7713C16.1997 13.0175 15.8005 13.0175 15.5543 12.7713L12.6925 9.9095C12.3732 9.59026 12.1787 9.16735 12.1441 8.7172L11.8202 4.50619C11.7216 3.22466 12.7349 2.13044 14.0202 2.13044ZM17.9941 0.869568L14.0202 0.869568C12.0004 0.869568 10.4081 2.58905 10.563 4.6029L10.8869 8.81391C10.9446 9.56415 11.2688 10.269 11.8009 10.8011L14.6627 13.6629C15.4013 14.4015 16.5988 14.4015 17.3374 13.6629L20.202 10.7983C20.732 10.2683 21.0558 9.56684 21.1153 8.8197L21.4505 4.61229C21.6112 2.59515 20.0176 0.869568 17.9941 0.869568Z" fill="black"/>
</svg>
