<svg width="64" height="64" viewBox="0 0 64 64" fill="none" xmlns="http://www.w3.org/2000/svg">
<path d="M9.12445 41.6439C5.82367 41.9069 3 39.2992 3 35.9879L3 28.0402C3 24.7351 5.81371 22.1295 9.10908 22.383L17.5311 23.0308C18.7315 23.1232 19.8593 23.6419 20.7106 24.4932L26.4343 30.2169C27.4191 31.2017 27.4191 32.7983 26.4343 33.7831L20.7051 39.5123C19.8571 40.3603 18.7347 40.8784 17.5393 40.9736L9.12445 41.6439Z" fill="white"/>
<path d="M54.8755 41.6439C58.1763 41.9069 61 39.2992 61 35.9879L61 28.0402C61 24.7351 58.1863 22.1295 54.8909 22.383L46.4689 23.0308C45.2685 23.1232 44.1407 23.6419 43.2894 24.4932L37.5657 30.2169C36.5809 31.2017 36.5809 32.7983 37.5657 33.7831L43.2949 39.5123C44.1429 40.3603 45.2653 40.8784 46.4607 40.9736L54.8755 41.6439Z" fill="white"/>
<path d="M22.401 54.8755C22.138 58.1763 24.7457 61 28.057 61L36.0047 61C39.3098 61 41.9154 58.1863 41.6619 54.8909L41.0141 46.4689C40.9217 45.2685 40.403 44.1407 39.5517 43.2894L33.828 37.5657C32.8432 36.5809 31.2466 36.5809 30.2618 37.5657L24.5326 43.2949C23.6846 44.1429 23.1665 45.2653 23.0713 46.4607L22.401 54.8755Z" fill="white"/>
<path d="M41.6441 9.12445C41.907 5.82367 39.2993 3 35.9881 3L28.0403 3C24.7352 3 22.1296 5.81371 22.3831 9.10908L23.031 17.5311C23.1233 18.7315 23.642 19.8593 24.4933 20.7106L30.217 26.4343C31.2018 27.4191 32.7985 27.4191 33.7833 26.4343L39.5125 20.7051C40.3605 19.8571 40.8785 18.7347 40.9738 17.5393L41.6441 9.12445Z" fill="white" stroke="black" stroke-width="2.52174"/>
</svg>
