<svg width="32" height="32" viewBox="0 0 32 32" fill="none" xmlns="http://www.w3.org/2000/svg">
<g clip-path="url(#clip0_6311_41170)">
<path d="M0.0811843 19.2862L7.89458 27.0214C13.221 32.3477 21.8205 32.384 27.1022 27.1023C32.3839 21.8206 32.3477 13.221 27.0213 7.89462L19.2862 0.0812315L-4.58317e-05 0L0.0811843 19.2862Z" fill="white"/>
<path d="M12.9453 20.2934H7V11.8H9.09907V18.4006H12.9453V20.2934Z" fill="black"/>
<path d="M22.4322 15.7555C22.9985 15.9415 23.3989 16.2084 23.6334 16.5563C23.8761 16.9041 23.9974 17.3247 23.9974 17.8181C23.9974 18.3196 23.868 18.7564 23.6092 19.1285C23.3584 19.5006 22.9944 19.7878 22.5172 19.99C22.048 20.1922 21.498 20.2933 20.867 20.2933H17.1664V11.8H20.5273C21.5546 11.8 22.3069 11.9901 22.7841 12.3703C23.2694 12.7424 23.5121 13.2722 23.5121 13.9597C23.5121 14.7767 23.1522 15.3753 22.4322 15.7555ZM19.3018 13.5351V15.258H20.4181C20.7498 15.258 21.0005 15.1812 21.1704 15.0275C21.3483 14.8738 21.4373 14.6513 21.4373 14.3601C21.4373 13.8101 21.0854 13.5351 20.3817 13.5351H19.3018ZM20.6486 18.5704C21.0126 18.5704 21.2836 18.4855 21.4616 18.3156C21.6476 18.1376 21.7406 17.9071 21.7406 17.624C21.7406 17.0416 21.3928 16.7504 20.6972 16.7504H19.3018V18.5704H20.6486Z" fill="black"/>
<path fill-rule="evenodd" clip-rule="evenodd" d="M24.6 10H16.4667C15.9144 10 15.4667 10.4477 15.4667 11V21C15.4667 21.5523 15.9144 22 16.4667 22H24.6C25.1523 22 25.6 21.5523 25.6 21V11C25.6 10.4477 25.1523 10 24.6 10ZM16.4667 9C15.3621 9 14.4667 9.89543 14.4667 11V21C14.4667 22.1046 15.3621 23 16.4667 23H24.6C25.7046 23 26.6 22.1046 26.6 21V11C26.6 9.89543 25.7046 9 24.6 9H16.4667Z" fill="black"/>
</g>
<defs>
<clipPath id="clip0_6311_41170">
<rect width="32" height="32" fill="white"/>
</clipPath>
</defs>
</svg>
