<svg width="64" height="64" viewBox="0 0 64 64" fill="none" xmlns="http://www.w3.org/2000/svg">
<path fill-rule="evenodd" clip-rule="evenodd" d="M32 6.0526C17.6697 6.0526 6.05263 17.6696 6.05263 32C6.05263 46.3303 17.6697 57.9473 32 57.9473C46.3303 57.9473 57.9474 46.3303 57.9474 32C57.9474 17.6696 46.3303 6.0526 32 6.0526ZM3 32C3 15.9837 15.9837 2.99997 32 2.99997C48.0163 2.99997 61 15.9837 61 32C61 48.0162 48.0163 61 32 61C15.9837 61 3 48.0162 3 32Z" fill="white"/>
<path fill-rule="evenodd" clip-rule="evenodd" d="M30.4091 32L17 45.938L19.198 48L32.5 34.1733L45.802 48L48 45.938L34.5909 32L48 18.0619L45.802 16L32.5 29.8266L19.198 16L17 18.0619L30.4091 32Z" fill="white"/>
</svg>
