<svg width="32" height="32" viewBox="0 0 32 32" fill="none" xmlns="http://www.w3.org/2000/svg">
<path d="M20.3505 11.9704C11.3176 13.0331 3.46378 12.5607 2.81596 12.5017C-1.77577 12.0835 0.900915 17.6228 1.73587 18.8779C2.96885 20.7312 2.88098 22.0287 3.49787 24.1932C3.65802 24.7551 4.02507 25.1988 4.1111 25.4574C5.13374 27.2547 8.38088 28.6866 16.6311 28.4422C24.5375 28.6866 26.8588 27.0515 27.7892 25.254C29.165 22.5963 28.8479 19.1073 30.6654 16.2565C31.4656 15.0014 33.1028 10.5542 29.3834 10.9078C28.2388 11.0166 29.3834 10.9077 20.3505 11.9704Z" fill="white"/>
<path d="M11.8958 24.1911H9.76416V15.6896H15.4322V17.487H11.8958V19.5031H14.9763V21.3006H11.8958V24.1911Z" fill="black"/>
<path d="M16.3433 24.1911V17.8271H17.711L18.0314 18.7501H18.093C18.3887 18.3615 18.7091 18.0781 19.0541 17.9C19.3991 17.7138 19.8016 17.6206 20.2616 17.6206C20.9598 17.6206 21.5102 17.815 21.9127 18.2036C22.3152 18.5922 22.5165 19.1347 22.5165 19.831V24.1911H20.4834V20.499C20.4834 19.8594 20.237 19.5396 19.7441 19.5396C19.2594 19.5396 18.7994 19.827 18.3641 20.4019V24.1911H16.3433Z" fill="black"/>
<path d="M18.2658 9.31347H16.8964L15.9478 7.62834H15.8409H15.2489V9.31347H14.015V4H15.955C16.6682 4 17.196 4.14928 17.5383 4.44785C17.8807 4.74642 18.0518 5.16643 18.0518 5.7079C18.0518 6.1178 17.9686 6.46191 17.8022 6.74023C17.6405 7.01349 17.4123 7.22097 17.1175 7.36267L18.2658 9.31347ZM15.2489 5.12342V6.50492H15.9193C16.1713 6.50492 16.3686 6.44419 16.5113 6.32274C16.6587 6.19623 16.7324 6.01406 16.7324 5.77622C16.7324 5.55862 16.6658 5.39668 16.5327 5.29041C16.3995 5.17908 16.1879 5.12342 15.8979 5.12342H15.2489Z" fill="white" fill-opacity="0.5"/>
</svg>
