<svg width="32" height="32" viewBox="0 0 32 32" fill="none" xmlns="http://www.w3.org/2000/svg">
<g clip-path="url(#clip0_6311_41184)">
<path d="M0.0811257 18.9446L7.88446 26.6697C13.204 31.9893 21.7925 32.0254 27.0674 26.7505C32.3423 21.4756 32.3061 12.8872 26.9866 7.56764L19.2614 -0.235693L0 -0.316818L0.0811257 18.9446Z" fill="white"/>
<path d="M12.6314 20.2933H10.3018L8.68804 17.5997H8.50604H7.49897V20.2933H5.3999V11.8H8.70017C9.9135 11.8 10.8114 12.0386 11.3938 12.5158C11.9762 12.9931 12.2674 13.6645 12.2674 14.53C12.2674 15.1852 12.1258 15.7352 11.8427 16.1801C11.5677 16.6169 11.1794 16.9486 10.6779 17.175L12.6314 20.2933ZM7.49897 13.5957V15.804H8.6395C9.06821 15.804 9.4039 15.7069 9.64657 15.5128C9.89732 15.3105 10.0227 15.0194 10.0227 14.6392C10.0227 14.2914 9.90946 14.0325 9.68297 13.8626C9.45648 13.6847 9.09652 13.5957 8.6031 13.5957H7.49897Z" fill="black"/>
<path d="M21.7655 15.7554C22.3317 15.9415 22.7321 16.2084 22.9667 16.5562C23.2094 16.9041 23.3307 17.3247 23.3307 17.8181C23.3307 18.3196 23.2013 18.7564 22.9424 19.1285C22.6917 19.5006 22.3277 19.7878 21.8504 19.99C21.3813 20.1922 20.8312 20.2933 20.2003 20.2933H16.4996V11.8H19.8606C20.8879 11.8 21.6401 11.9901 22.1174 12.3702C22.6027 12.7423 22.8454 13.2722 22.8454 13.9597C22.8454 14.7767 22.4854 15.3753 21.7655 15.7554ZM18.6351 13.535V15.258H19.7514C20.083 15.258 20.3338 15.1811 20.5036 15.0274C20.6816 14.8738 20.7706 14.6513 20.7706 14.3601C20.7706 13.8101 20.4187 13.535 19.715 13.535H18.6351ZM19.9819 18.5704C20.3459 18.5704 20.6169 18.4854 20.7948 18.3156C20.9809 18.1376 21.0739 17.9071 21.0739 17.624C21.0739 17.0416 20.7261 16.7504 20.0304 16.7504H18.6351V18.5704H19.9819Z" fill="black"/>
<path fill-rule="evenodd" clip-rule="evenodd" d="M24.024 9.9545H15.7089C15.1817 9.9545 14.7544 10.3819 14.7544 10.909V21.0909C14.7544 21.618 15.1817 22.0454 15.7089 22.0454H24.024C24.5512 22.0454 24.9786 21.618 24.9786 21.0909V10.909C24.9786 10.3819 24.5512 9.9545 24.024 9.9545ZM15.7089 8.99995C14.6545 8.99995 13.7998 9.85468 13.7998 10.909V21.0909C13.7998 22.1452 14.6545 23 15.7089 23H24.024C25.0784 23 25.9331 22.1452 25.9331 21.0909V10.909C25.9331 9.85468 25.0784 8.99995 24.024 8.99995H15.7089Z" fill="black"/>
</g>
<defs>
<clipPath id="clip0_6311_41184">
<rect width="32" height="32" fill="white"/>
</clipPath>
</defs>
</svg>
