<svg width="64" height="64" viewBox="0 0 64 64" fill="none" xmlns="http://www.w3.org/2000/svg">
<circle cx="31.8213" cy="31.8213" r="28.8213" fill="black"/>
<path d="M31.7738 3C16.605 3 4.18387 14.745 3 29.6758L18.4726 36.1047C19.7831 35.2017 21.3658 34.6803 23.0752 34.6803C23.2271 34.6803 23.379 34.6867 23.531 34.693L30.4126 24.6649C30.4126 24.6204 30.4126 24.5696 30.4126 24.5251C30.4126 18.4968 35.3001 13.5877 41.3017 13.5877C47.3034 13.5877 52.1908 18.4968 52.1908 24.5251C52.1908 30.5533 47.3034 35.4624 41.3017 35.4624C41.2194 35.4624 41.1371 35.4624 41.0548 35.4561L31.2357 42.4955C31.242 42.6226 31.242 42.7562 31.242 42.8833C31.242 47.4109 27.5764 51.0928 23.0688 51.0928C19.112 51.0928 15.8073 48.2567 15.054 44.4985L3.99395 39.901C7.41894 52.072 18.5549 61 31.7738 61C47.7212 61 60.6425 48.015 60.6425 32.0032C60.6425 15.985 47.7149 3 31.7738 3Z" fill="white"/>
<path d="M21.0937 47.0044L17.5485 45.5355C18.1752 46.8518 19.2641 47.9519 20.7076 48.556C23.8287 49.8596 27.4246 48.3716 28.7288 45.2366C29.3555 43.7168 29.3619 42.0444 28.7351 40.5246C28.1147 39.0048 26.9371 37.8157 25.4241 37.1862C23.9236 36.5566 22.3156 36.5821 20.9038 37.1162L24.5694 38.636C26.8738 39.6026 27.9627 42.2543 27.0004 44.5689C26.0382 46.8709 23.3982 47.9646 21.0937 47.0044Z" fill="white"/>
<path d="M48.5565 24.5255C48.5565 20.5067 45.3025 17.2382 41.3014 17.2382C37.3003 17.2382 34.0462 20.5067 34.0462 24.5255C34.0462 28.5444 37.3003 31.8129 41.3014 31.8129C45.3025 31.8129 48.5565 28.5444 48.5565 24.5255ZM35.8632 24.5128C35.8632 21.4923 38.3069 19.0377 41.314 19.0377C44.3275 19.0377 46.7649 21.4859 46.7649 24.5128C46.7649 27.5397 44.3275 29.9879 41.314 29.9879C38.3005 29.9879 35.8632 27.5397 35.8632 24.5128Z" fill="white"/>
</svg>
