<svg width="32" height="32" viewBox="0 0 32 32" fill="none" xmlns="http://www.w3.org/2000/svg">
<path d="M30.3213 15.9106C30.3213 23.8694 23.8694 30.3213 15.9106 30.3213C7.95186 30.3213 1.5 23.8694 1.5 15.9106C1.5 7.95186 7.95186 1.5 15.9106 1.5C23.8694 1.5 30.3213 7.95186 30.3213 15.9106Z" fill="black"/>
<path d="M15.8869 1.5C8.30251 1.5 2.09194 7.37249 1.5 14.8379L9.23632 18.0524C9.89156 17.6009 10.6829 17.3401 11.5376 17.3401C11.6136 17.3401 11.6895 17.3433 11.7655 17.3465L15.2063 12.3325C15.2063 12.3102 15.2063 12.2848 15.2063 12.2625C15.2063 9.24838 17.65 6.79383 20.6509 6.79383C23.6517 6.79383 26.0954 9.24838 26.0954 12.2625C26.0954 15.2767 23.6517 17.7312 20.6509 17.7312C20.6097 17.7312 20.5686 17.7312 20.5274 17.728L15.6178 21.2477C15.621 21.3113 15.621 21.3781 15.621 21.4417C15.621 23.7055 13.7882 25.5464 11.5344 25.5464C9.55602 25.5464 7.90367 24.1283 7.52698 22.2493L1.99697 19.9505C3.70947 26.036 9.27747 30.5 15.8869 30.5C23.8606 30.5 30.3213 24.0075 30.3213 16.0016C30.3213 7.99249 23.8574 1.5 15.8869 1.5Z" fill="white"/>
<path d="M10.5469 23.5022L8.77423 22.7677C9.08761 23.4259 9.63206 23.9759 10.3538 24.278C11.9143 24.9298 13.7123 24.1858 14.3644 22.6183C14.6778 21.8584 14.6809 21.0222 14.3676 20.2623C14.0573 19.5024 13.4686 18.9079 12.712 18.5931C11.9618 18.2783 11.1578 18.291 10.4519 18.5581L12.2847 19.318C13.4369 19.8013 13.9814 21.1271 13.5002 22.2845C13.0191 23.4354 11.6991 23.9823 10.5469 23.5022Z" fill="white"/>
<path d="M24.2783 12.2628C24.2783 10.2533 22.6513 8.61908 20.6507 8.61908C18.6502 8.61908 17.0231 10.2533 17.0231 12.2628C17.0231 14.2722 18.6502 15.9064 20.6507 15.9064C22.6513 15.9064 24.2783 14.2722 24.2783 12.2628ZM17.9316 12.2564C17.9316 10.7461 19.1535 9.51887 20.657 9.51887C22.1638 9.51887 23.3825 10.743 23.3825 12.2564C23.3825 13.7698 22.1638 14.9939 20.657 14.9939C19.1503 14.9939 17.9316 13.7698 17.9316 12.2564Z" fill="white"/>
</svg>
