<svg width="32" height="32" viewBox="0 0 32 32" fill="none" xmlns="http://www.w3.org/2000/svg">
<path fill-rule="evenodd" clip-rule="evenodd" d="M16 1.5C7.99187 1.5 1.5 7.99187 1.5 16C1.5 24.0081 7.99187 30.5 16 30.5C24.0081 30.5 30.5 24.0081 30.5 16C30.5 7.99187 24.0081 1.5 16 1.5Z" fill="white"/>
<path fill-rule="evenodd" clip-rule="evenodd" d="M16 27.3478C17.7409 27.3478 19.1522 25.9366 19.1522 24.1957L19.1522 19.1522L24.1957 19.1522C25.9366 19.1522 27.3478 17.7409 27.3478 16C27.3478 14.2591 25.9366 12.8478 24.1957 12.8478L19.1522 12.8478L19.1522 7.80435C19.1522 6.06345 17.7409 4.65218 16 4.65218C14.2591 4.65218 12.8478 6.06345 12.8478 7.80435L12.8478 12.8478L7.80436 12.8478C6.06346 12.8478 4.65218 14.2591 4.65218 16C4.65218 17.7409 6.06346 19.1522 7.80435 19.1522L12.8478 19.1522L12.8478 24.1957C12.8478 25.9366 14.2591 27.3478 16 27.3478ZM20.4131 24.1957C20.4131 26.6329 18.4373 28.6087 16 28.6087C13.5628 28.6087 11.587 26.6329 11.587 24.1957L11.587 20.413L7.80435 20.413C5.36709 20.413 3.39131 18.4373 3.39131 16C3.39131 13.5627 5.3671 11.587 7.80436 11.587L11.587 11.587L11.587 7.80435C11.587 5.36709 13.5628 3.39131 16 3.39131C18.4373 3.39131 20.4131 5.3671 20.4131 7.80435L20.4131 11.587L24.1957 11.587C26.6329 11.587 28.6087 13.5628 28.6087 16C28.6087 18.4373 26.6329 20.4131 24.1957 20.4131L20.4131 20.4131L20.4131 24.1957Z" fill="#DCDEDF"/>
<path d="M16 26.087L13.4782 23.5652L18.5217 23.5652L16 26.087Z" fill="black"/>
</svg>
