<svg width="64" height="64" viewBox="0 0 64 64" fill="none" xmlns="http://www.w3.org/2000/svg">
<path fill-rule="evenodd" clip-rule="evenodd" d="M32 3C15.9837 3 3 15.9837 3 32C3 48.0163 15.9837 61 32 61C48.0163 61 61 48.0163 61 32C61 15.9837 48.0163 3 32 3Z" fill="white"/>
<path d="M32 55.9565L32 57.2174L32 55.9565ZM39.5652 39.5652L39.5652 38.3044L38.3044 38.3044L38.3044 39.5652L39.5652 39.5652ZM48.3913 39.5652L48.3913 38.3044L48.3913 38.3044L48.3913 39.5652ZM55.9565 32L57.2174 32L55.9565 32ZM48.3913 24.4348L48.3913 25.6957L48.3913 24.4348ZM39.5652 24.4348L38.3044 24.4348L38.3044 25.6957L39.5652 25.6957L39.5652 24.4348ZM24.4348 15.6087L23.1739 15.6087L24.4348 15.6087ZM24.4348 24.4348L24.4348 25.6957L25.6957 25.6957L25.6957 24.4348L24.4348 24.4348ZM15.6087 24.4348L15.6087 23.1739L15.6087 24.4348ZM24.4348 39.5652L25.6957 39.5652L25.6957 38.3044L24.4348 38.3044L24.4348 39.5652ZM32 54.6957C28.5182 54.6957 25.6957 51.8731 25.6957 48.3913L23.1739 48.3913C23.1739 53.2658 27.1255 57.2174 32 57.2174L32 54.6957ZM38.3044 48.3913C38.3044 51.8731 35.4818 54.6957 32 54.6957L32 57.2174C36.8745 57.2174 40.8261 53.2658 40.8261 48.3913L38.3044 48.3913ZM38.3044 39.5652L38.3044 48.3913L40.8261 48.3913L40.8261 39.5652L38.3044 39.5652ZM48.3913 38.3044L39.5652 38.3044L39.5652 40.8261L48.3913 40.8261L48.3913 38.3044ZM54.6957 32C54.6957 35.4818 51.8731 38.3044 48.3913 38.3044L48.3913 40.8261C53.2658 40.8261 57.2174 36.8745 57.2174 32L54.6957 32ZM48.3913 25.6957C51.8731 25.6957 54.6957 28.5182 54.6957 32L57.2174 32C57.2174 27.1255 53.2658 23.1739 48.3913 23.1739L48.3913 25.6957ZM39.5652 25.6957L48.3913 25.6957L48.3913 23.1739L39.5652 23.1739L39.5652 25.6957ZM38.3044 15.6087L38.3044 24.4348L40.8261 24.4348L40.8261 15.6087L38.3044 15.6087ZM32 9.30435C35.4818 9.30435 38.3044 12.1269 38.3044 15.6087L40.8261 15.6087C40.8261 10.7342 36.8745 6.78261 32 6.78261L32 9.30435ZM25.6957 15.6087C25.6957 12.1269 28.5182 9.30435 32 9.30435L32 6.78261C27.1255 6.78261 23.1739 10.7342 23.1739 15.6087L25.6957 15.6087ZM25.6957 24.4348L25.6957 15.6087L23.1739 15.6087L23.1739 24.4348L25.6957 24.4348ZM15.6087 25.6957L24.4348 25.6957L24.4348 23.1739L15.6087 23.1739L15.6087 25.6957ZM9.30436 32C9.30436 28.5182 12.1269 25.6957 15.6087 25.6957L15.6087 23.1739C10.7342 23.1739 6.78262 27.1255 6.78262 32L9.30436 32ZM15.6087 38.3044C12.1269 38.3043 9.30436 35.4818 9.30436 32L6.78262 32C6.78262 36.8745 10.7342 40.8261 15.6087 40.8261L15.6087 38.3044ZM24.4348 38.3044L15.6087 38.3044L15.6087 40.8261L24.4348 40.8261L24.4348 38.3044ZM25.6957 48.3913L25.6957 39.5652L23.1739 39.5652L23.1739 48.3913L25.6957 48.3913Z" fill="#DCDEDF"/>
<path d="M32 52.1739L26.9565 47.1304L37.0435 47.1304L32 52.1739Z" fill="black"/>
</svg>
