<svg width="32" height="32" viewBox="0 0 32 32" fill="none" xmlns="http://www.w3.org/2000/svg">
<path fill-rule="evenodd" clip-rule="evenodd" d="M16 30.5C24.0081 30.5 30.5 24.0081 30.5 16C30.5 7.99187 24.0081 1.5 16 1.5C7.99187 1.5 1.5 7.99187 1.5 16C1.5 24.0081 7.99187 30.5 16 30.5Z" fill="white"/>
<path fill-rule="evenodd" clip-rule="evenodd" d="M16 4.65217C14.2591 4.65217 12.8478 6.06344 12.8478 7.80434V12.8478H7.80434C6.06344 12.8478 4.65217 14.2591 4.65217 16C4.65217 17.7409 6.06344 19.1522 7.80434 19.1522L12.8478 19.1522V24.1956C12.8478 25.9365 14.2591 27.3478 16 27.3478C17.7409 27.3478 19.1522 25.9365 19.1522 24.1957V19.1522L24.1956 19.1522C25.9365 19.1522 27.3478 17.7409 27.3478 16C27.3478 14.2591 25.9365 12.8478 24.1957 12.8478H19.1522V7.80434C19.1522 6.06344 17.7409 4.65217 16 4.65217ZM11.587 7.80434C11.587 5.36708 13.5627 3.3913 16 3.3913C18.4373 3.3913 20.413 5.36708 20.413 7.80434V11.587H24.1957C26.6329 11.587 28.6087 13.5627 28.6087 16C28.6087 18.4373 26.6329 20.413 24.1956 20.413H20.413V24.1957C20.413 26.6329 18.4373 28.6087 16 28.6087C13.5627 28.6087 11.587 26.6329 11.587 24.1956V20.413L7.80434 20.413C5.36708 20.413 3.3913 18.4372 3.3913 16C3.3913 13.5627 5.36708 11.5869 7.80434 11.587H11.587V7.80434Z" fill="#DCDEDF"/>
<path d="M16 5.91304L18.5217 8.43478L13.4782 8.43478L16 5.91304Z" fill="black"/>
</svg>
