<svg width="64" height="64" viewBox="0 0 64 64" fill="none" xmlns="http://www.w3.org/2000/svg">
<path fill-rule="evenodd" clip-rule="evenodd" d="M32 61C48.0163 61 61 48.0163 61 32C61 15.9837 48.0163 3 32 3C15.9837 3 3 15.9837 3 32C3 48.0163 15.9837 61 32 61Z" fill="white"/>
<path d="M24.4348 24.4348V25.6957H25.6957V24.4348H24.4348ZM15.6087 24.4348L15.6087 25.6957H15.6087V24.4348ZM8.04349 32H6.78262H8.04349ZM15.6087 39.5652V38.3044V39.5652ZM24.4348 39.5652H25.6957V38.3044H24.4348V39.5652ZM32 55.9565V54.6957V55.9565ZM39.5652 39.5652V38.3044H38.3044V39.5652H39.5652ZM48.3913 39.5652V40.8261V39.5652ZM39.5652 24.4348H38.3044V25.6957H39.5652V24.4348ZM32 9.30436C35.4818 9.30436 38.3044 12.1269 38.3044 15.6087H40.8261C40.8261 10.7342 36.8745 6.78262 32 6.78262V9.30436ZM25.6957 15.6087C25.6957 12.1269 28.5182 9.30436 32 9.30436V6.78262C27.1255 6.78262 23.1739 10.7342 23.1739 15.6087H25.6957ZM25.6957 24.4348V15.6087H23.1739V24.4348H25.6957ZM15.6087 25.6957H24.4348V23.1739H15.6087V25.6957ZM9.30436 32C9.30436 28.5182 12.1269 25.6957 15.6087 25.6957L15.6087 23.1739C10.7342 23.1739 6.78262 27.1255 6.78262 32H9.30436ZM15.6087 38.3044C12.1269 38.3044 9.30436 35.4818 9.30436 32H6.78262C6.78262 36.8745 10.7342 40.8261 15.6087 40.8261V38.3044ZM24.4348 38.3044L15.6087 38.3044L15.6087 40.8261L24.4348 40.8261V38.3044ZM25.6957 48.3913V39.5652H23.1739V48.3913H25.6957ZM32 54.6957C28.5182 54.6957 25.6957 51.8731 25.6957 48.3913H23.1739C23.1739 53.2658 27.1255 57.2174 32 57.2174V54.6957ZM38.3044 48.3913C38.3044 51.8731 35.4818 54.6957 32 54.6957L32 57.2174C36.8745 57.2174 40.8261 53.2658 40.8261 48.3913H38.3044ZM38.3044 39.5652V48.3913H40.8261V39.5652H38.3044ZM48.3913 38.3044L39.5652 38.3044V40.8261H48.3913V38.3044ZM54.6957 32C54.6957 35.4818 51.8731 38.3044 48.3913 38.3044V40.8261C53.2658 40.8261 57.2174 36.8745 57.2174 32H54.6957ZM48.3913 25.6957C51.8731 25.6957 54.6957 28.5182 54.6957 32H57.2174C57.2174 27.1255 53.2658 23.1739 48.3913 23.1739V25.6957ZM39.5652 25.6957H48.3913V23.1739H39.5652V25.6957ZM38.3044 15.6087V24.4348H40.8261V15.6087H38.3044Z" fill="#DCDEDF"/>
<path d="M32 11.8261L37.0435 16.8696L26.9565 16.8696L32 11.8261Z" fill="black"/>
</svg>
