<svg width="64" height="64" viewBox="0 0 64 64" fill="none" xmlns="http://www.w3.org/2000/svg">
<path d="M3 32C3 15.9837 15.9837 3.00001 32 3.00001C48.0163 3.00001 61 15.9838 61 32C61 48.0163 48.0163 61 32 61C15.9837 61 3 48.0163 3 32Z" fill="white"/>
<path d="M24.4348 48.3913H25.6956H24.4348ZM39.5652 48.3914H40.8261H39.5652ZM39.5652 39.5653V38.3044H38.3043V39.5653H39.5652ZM48.3913 39.5653V38.3044V39.5653ZM48.3913 24.4348V25.6957V24.4348ZM39.5652 24.4348H38.3043V25.6957H39.5652L39.5652 24.4348ZM39.5652 15.6087H40.8261H39.5652ZM32 8.04352L32 9.30439L32 8.04352ZM24.4348 15.6087H25.6956H24.4348ZM24.4348 24.4348L24.4348 25.6957H25.6956V24.4348L24.4348 24.4348ZM15.6087 24.4348L15.6087 25.6957H15.6087V24.4348ZM8.04346 32L9.30433 32L8.04346 32ZM15.6087 39.5653L15.6087 38.3044H15.6087V39.5653ZM24.4348 39.5653L25.6956 39.5653V38.3044H24.4348V39.5653ZM32 54.6957C28.5182 54.6957 25.6956 51.8731 25.6956 48.3913H23.1739C23.1739 53.2659 27.1255 57.2174 32 57.2174V54.6957ZM38.3043 48.3914C38.3043 51.8731 35.4818 54.6957 32 54.6957V57.2174C36.8745 57.2174 40.8261 53.2659 40.8261 48.3914H38.3043ZM38.3043 39.5653L38.3043 48.3914H40.8261L40.8261 39.5653L38.3043 39.5653ZM48.3913 38.3044L39.5652 38.3044L39.5652 40.8261H48.3913V38.3044ZM54.6956 32C54.6956 35.4818 51.8731 38.3044 48.3913 38.3044V40.8261C53.2658 40.8261 57.2174 36.8746 57.2174 32H54.6956ZM48.3913 25.6957C51.8731 25.6957 54.6956 28.5183 54.6956 32H57.2174C57.2174 27.1255 53.2658 23.174 48.3913 23.174V25.6957ZM39.5652 25.6957L48.3913 25.6957V23.174L39.5652 23.174L39.5652 25.6957ZM38.3043 15.6087L38.3043 24.4348L40.8261 24.4348V15.6087L38.3043 15.6087ZM32 9.30439C35.4818 9.30439 38.3043 12.1269 38.3043 15.6087H40.8261C40.8261 10.7342 36.8745 6.78265 32 6.78265L32 9.30439ZM25.6956 15.6087C25.6956 12.1269 28.5182 9.30439 32 9.30439L32 6.78265C27.1255 6.78265 23.1739 10.7342 23.1739 15.6087H25.6956ZM25.6956 24.4348L25.6956 15.6087L23.1739 15.6087L23.1739 24.4348L25.6956 24.4348ZM15.6087 25.6957L24.4348 25.6957L24.4348 23.174L15.6087 23.174L15.6087 25.6957ZM9.30433 32C9.30433 28.5182 12.1269 25.6957 15.6087 25.6957L15.6087 23.174C10.7342 23.174 6.78259 27.1255 6.78259 32L9.30433 32ZM15.6087 38.3044C12.1269 38.3044 9.30433 35.4818 9.30433 32L6.78259 32C6.78259 36.8745 10.7342 40.8261 15.6087 40.8261V38.3044ZM24.4348 38.3044L15.6087 38.3044L15.6087 40.8261H24.4348L24.4348 38.3044ZM25.6956 48.3913L25.6956 39.5653L23.1739 39.5653L23.1739 48.3913H25.6956Z" fill="#DCDEDF"/>
</svg>
