<svg width="32" height="32" viewBox="0 0 32 32" fill="none" xmlns="http://www.w3.org/2000/svg">
<g clip-path="url(#clip0_1967_17488)">
<path d="M1.44897 17.449C1.44898 9.41266 7.96369 2.89795 16 2.89795C24.0363 2.89795 30.551 9.41266 30.551 17.449C30.551 25.4853 24.0363 32 16 32C7.96369 32 1.44897 25.4853 1.44897 17.449Z" fill="white"/>
<path fill-rule="evenodd" clip-rule="evenodd" d="M16 6.0612C14.253 6.0612 12.8367 7.47744 12.8367 9.22447L12.8367 14.2857L7.77549 14.2857C6.02847 14.2857 4.61223 15.7019 4.61223 17.449C4.61223 19.196 6.02847 20.6122 7.77549 20.6122L12.8367 20.6122L12.8367 25.6734C12.8367 27.4205 14.253 28.8367 16 28.8367C17.747 28.8367 19.1632 27.4205 19.1632 25.6735L19.1632 20.6122L24.2245 20.6122C25.9715 20.6122 27.3877 19.196 27.3877 17.449C27.3877 15.7019 25.9715 14.2857 24.2245 14.2857L19.1632 14.2857L19.1632 9.22447C19.1632 7.47745 17.747 6.0612 16 6.0612ZM11.5714 9.22447C11.5714 6.77863 13.5542 4.7959 16 4.7959C18.4458 4.7959 20.4286 6.77864 20.4286 9.22447V13.0204L24.2245 13.0204C26.6703 13.0204 28.653 15.0031 28.653 17.449C28.653 19.8948 26.6703 21.8775 24.2245 21.8775L20.4286 21.8775L20.4286 25.6735C20.4286 28.1193 18.4458 30.102 16 30.102C13.5541 30.102 11.5714 28.1193 11.5714 25.6734L11.5714 21.8775L7.77549 21.8775C5.32966 21.8775 3.34692 19.8948 3.34692 17.449C3.34692 15.0031 5.32966 13.0204 7.77549 13.0204L11.5714 13.0204L11.5714 9.22447Z" fill="#DCDEDF"/>
<path d="M10.9388 1L16 6.69388L21.0612 1H10.9388Z" fill="black"/>
<path fill-rule="evenodd" clip-rule="evenodd" d="M16 8.59841L8.12112 -0.26532H23.8788L16 8.59841ZM16 6.69386L21.0612 0.999986H10.9388L16 6.69386Z" fill="white"/>
</g>
<defs>
<clipPath id="clip0_1967_17488">
<rect width="32" height="32" fill="white"/>
</clipPath>
</defs>
</svg>
