<svg width="64" height="64" viewBox="0 0 64 64" fill="none" xmlns="http://www.w3.org/2000/svg">
<g clip-path="url(#clip0_1967:17488)">
<path d="M2.89795 34.898C2.89795 18.8254 15.9274 5.79593 32 5.79593C48.0726 5.79593 61.102 18.8254 61.102 34.898C61.102 50.9706 48.0726 64 32 64C15.9274 64 2.89795 50.9706 2.89795 34.898Z" fill="white"/>
<path d="M24.4081 51.3469H25.6734H24.4081ZM39.5918 51.3469H38.3265H39.5918ZM39.5918 42.4898V41.2245H38.3265V42.4898H39.5918ZM48.449 42.4898V43.7551V42.4898ZM48.449 27.3061V28.5715V27.3061ZM39.5918 27.3061H38.3265V28.5715H39.5918V27.3061ZM39.5918 18.449L38.3265 18.449L39.5918 18.449ZM32 10.8571V9.59184V10.8571ZM24.4081 18.449H25.6735H24.4081ZM24.4081 27.3061V28.5715H25.6735V27.3061L24.4081 27.3061ZM15.551 27.3061L15.551 28.5714H15.551V27.3061ZM15.551 42.4898L15.551 43.7551H15.551V42.4898ZM24.4081 42.4898L25.6735 42.4898V41.2245H24.4081V42.4898ZM32 57.6735C28.5059 57.6735 25.6734 54.841 25.6734 51.3469H23.1428C23.1428 56.2386 27.1083 60.2041 32 60.2041V57.6735ZM38.3265 51.3469C38.3265 54.841 35.494 57.6735 32 57.6735V60.2041C36.8916 60.2041 40.8571 56.2386 40.8571 51.3469H38.3265ZM38.3265 42.4898L38.3265 51.3469H40.8571L40.8571 42.4898L38.3265 42.4898ZM48.449 41.2245L39.5918 41.2245V43.7551L48.449 43.7551V41.2245ZM54.7755 34.898C54.7755 38.392 51.943 41.2245 48.449 41.2245V43.7551C53.3406 43.7551 57.3061 39.7896 57.3061 34.898H54.7755ZM48.449 28.5715C51.943 28.5715 54.7755 31.4039 54.7755 34.898H57.3061C57.3061 30.0063 53.3406 26.0408 48.449 26.0408V28.5715ZM39.5918 28.5715L48.449 28.5715V26.0408L39.5918 26.0408V28.5715ZM38.3265 18.449L38.3265 27.3061L40.8571 27.3061V18.449L38.3265 18.449ZM32 12.1225C35.494 12.1225 38.3265 14.9549 38.3265 18.449L40.8571 18.449C40.8571 13.5573 36.8916 9.59184 32 9.59184V12.1225ZM25.6735 18.449C25.6735 14.9549 28.5059 12.1225 32 12.1225V9.59184C27.1083 9.59184 23.1428 13.5573 23.1428 18.449H25.6735ZM25.6735 27.3061L25.6735 18.449L23.1428 18.449L23.1428 27.3061L25.6735 27.3061ZM15.551 28.5714L24.4081 28.5715V26.0408L15.551 26.0408L15.551 28.5714ZM9.22447 34.898C9.22447 31.4039 12.057 28.5714 15.551 28.5714L15.551 26.0408C10.6593 26.0408 6.69386 30.0063 6.69386 34.898L9.22447 34.898ZM15.551 41.2245C12.0569 41.2245 9.22447 38.392 9.22447 34.898L6.69386 34.898C6.69386 39.7896 10.6593 43.7551 15.551 43.7551L15.551 41.2245ZM24.4081 41.2245L15.551 41.2245L15.551 43.7551L24.4081 43.7551V41.2245ZM25.6734 51.3469L25.6735 42.4898L23.1428 42.4898L23.1428 51.3469H25.6734Z" fill="#DCDEDF"/>
<path d="M21.8775 0.734694H19.0599L20.9318 2.84062L31.0543 14.2284L32 15.2923L32.9457 14.2284L43.068 2.84062L44.94 0.734694H42.1223H21.8775Z" fill="black" stroke="white" stroke-width="2.53061"/>
</g>
<defs>
<clipPath id="clip0_1967:17488">
<rect width="64" height="64" fill="white"/>
</clipPath>
</defs>
</svg>
