<svg width="32" height="32" viewBox="0 0 32 32" fill="none" xmlns="http://www.w3.org/2000/svg">
<path d="M1.5 16C1.5 7.99187 7.99187 1.5 16 1.5C24.0081 1.5 30.5 7.99187 30.5 16C30.5 24.0081 24.0081 30.5 16 30.5C7.99187 30.5 1.5 24.0081 1.5 16Z" fill="white"/>
<path fill-rule="evenodd" clip-rule="evenodd" d="M16 4.6522C14.2591 4.6522 12.8478 6.06347 12.8478 7.80437L12.8478 12.8479L7.80434 12.8478C6.06344 12.8478 4.65217 14.2591 4.65217 16C4.65217 17.7409 6.06344 19.1522 7.80433 19.1522L12.8478 19.1522L12.8478 24.1957C12.8478 25.9366 14.2591 27.3478 16 27.3478C17.7409 27.3478 19.1522 25.9366 19.1522 24.1957L19.1522 19.1522L24.1956 19.1522C25.9365 19.1522 27.3478 17.7409 27.3478 16C27.3478 14.2591 25.9365 12.8479 24.1957 12.8479L19.1522 12.8479L19.1522 7.80437C19.1522 6.06347 17.7409 4.6522 16 4.6522ZM11.587 7.80437C11.587 5.36711 13.5627 3.39133 16 3.39133C18.4373 3.39133 20.413 5.36711 20.413 7.80437V11.587L24.1957 11.587C26.6329 11.587 28.6087 13.5628 28.6087 16C28.6087 18.4373 26.6329 20.4131 24.1956 20.4131H20.413L20.413 24.1957C20.413 26.6329 18.4372 28.6087 16 28.6087C13.5627 28.6087 11.5869 26.6329 11.587 24.1957L11.587 20.4131H7.80433C5.36708 20.4131 3.3913 18.4373 3.3913 16C3.3913 13.5628 5.36708 11.587 7.80434 11.587L11.587 11.587L11.587 7.80437Z" fill="#DCDEDF"/>
</svg>
