<svg width="32" height="32" viewBox="0 0 32 32" fill="none" xmlns="http://www.w3.org/2000/svg">
<path fill-rule="evenodd" clip-rule="evenodd" d="M1.5 16C1.5 24.0081 7.99187 30.5 16 30.5C24.0081 30.5 30.5 24.0081 30.5 16C30.5 7.99187 24.0081 1.5 16 1.5C7.99187 1.5 1.5 7.99187 1.5 16Z" fill="white"/>
<path fill-rule="evenodd" clip-rule="evenodd" d="M27.3478 16C27.3478 14.2591 25.9365 12.8478 24.1956 12.8478L19.1522 12.8478L19.1522 7.80434C19.1522 6.06344 17.7409 4.65217 16 4.65217C14.2591 4.65217 12.8478 6.06344 12.8478 7.80433L12.8478 12.8478L7.80434 12.8478C6.06345 12.8478 4.65217 14.2591 4.65217 16C4.65217 17.7409 6.06344 19.1522 7.80434 19.1522L12.8478 19.1522L12.8478 24.1956C12.8478 25.9365 14.2591 27.3478 16 27.3478C17.7409 27.3478 19.1522 25.9365 19.1522 24.1956L19.1522 19.1522L24.1956 19.1522C25.9365 19.1522 27.3478 17.7409 27.3478 16ZM24.1956 11.5869C26.6329 11.5869 28.6087 13.5627 28.6087 16C28.6087 18.4372 26.6329 20.413 24.1956 20.413L20.413 20.413L20.413 24.1956C20.413 26.6329 18.4372 28.6087 16 28.6087C13.5627 28.6087 11.5869 26.6329 11.5869 24.1956L11.587 20.413L7.80434 20.413C5.36708 20.413 3.3913 18.4372 3.3913 16C3.3913 13.5627 5.36709 11.5869 7.80434 11.5869L11.587 11.5869L11.587 7.80433C11.587 5.36708 13.5627 3.3913 16 3.3913C18.4372 3.3913 20.413 5.36708 20.413 7.80434L20.413 11.5869L24.1956 11.5869Z" fill="#DCDEDF"/>
<path d="M7.80435 17.8913L5.91305 16.003L7.80435 14.1087L8.32865 14.633L6.96163 16.003L8.32865 17.37L7.80435 17.8913Z" fill="black"/>
<path d="M10.4021 17.367L9.03511 16.003L10.4021 14.636L9.87783 14.1087L7.98652 16.003L9.87783 17.8913L10.4021 17.367Z" fill="black"/>
<path d="M24.2717 14.1087L26.163 15.9971L24.2717 17.8913L23.7474 17.367L25.1144 15.9971L23.7474 14.63L24.2717 14.1087Z" fill="black"/>
<path d="M21.6739 14.633L23.0409 15.9971L21.6739 17.3641L22.1982 17.8913L24.0895 15.9971L22.1982 14.1087L21.6739 14.633Z" fill="black"/>
</svg>
