<svg width="32" height="32" viewBox="0 0 32 32" fill="none" xmlns="http://www.w3.org/2000/svg">
<g clip-path="url(#clip0_1967_17714)">
<path d="M30.4483 3.96952L7.17677 0.22859C6.86311 0.178169 6.54109 0.217899 6.26893 0.381758C4.80822 1.26119 0.105865 4.89253 0.105865 15.1968C0.105865 25.2401 4.57297 30.0467 6.15179 31.4318C6.48971 31.7283 6.94485 31.8183 7.38535 31.7286L30.6237 26.9968C31.6686 26.784 32.2601 25.6558 31.8885 24.6563C31.0344 22.3583 29.7746 18.4222 29.7746 15.1968C29.7746 12.1019 30.9345 8.55932 31.783 6.38194C32.1884 5.34157 31.5507 4.14673 30.4483 3.96952Z" fill="white"/>
<path d="M14.4847 20.1835H8.75891V12.0037H10.7805V18.3605H14.4847V20.1835Z" fill="black"/>
<path d="M20.1383 11.8051C20.7537 11.8051 21.3107 11.8907 21.8093 12.0621C22.3156 12.2257 22.7558 12.44 23.1297 12.7048L22.1715 14.2122C21.595 13.8539 20.9562 13.6747 20.2551 13.6747C19.5929 13.6747 19.0593 13.8812 18.6542 14.294C18.2569 14.6991 18.0583 15.2951 18.0583 16.0819C18.0583 16.8453 18.2452 17.4413 18.6192 17.8698C19.0009 18.2904 19.4917 18.5008 20.0915 18.5008C20.6135 18.5008 21.0419 18.3839 21.3769 18.1502V16.8882H19.5657V15.2756H23.305V19.2019C22.9233 19.5602 22.4481 19.8446 21.8794 20.0549C21.3185 20.2653 20.6992 20.3704 20.0214 20.3704C19.3125 20.3704 18.6425 20.2185 18.0115 19.9147C17.3883 19.6109 16.878 19.1474 16.4807 18.5241C16.0912 17.8931 15.8965 17.1102 15.8965 16.1754C15.8965 15.2483 16.0873 14.4576 16.4691 13.8033C16.8508 13.1411 17.361 12.6425 17.9998 12.3075C18.6464 11.9725 19.3592 11.8051 20.1383 11.8051Z" fill="black"/>
</g>
<defs>
<clipPath id="clip0_1967_17714">
<rect width="32" height="32" fill="white"/>
</clipPath>
</defs>
</svg>
