<svg width="32" height="32" viewBox="0 0 32 32" fill="none" xmlns="http://www.w3.org/2000/svg">
<path d="M32 5.89835C32 4.43783 30.7064 3.31592 29.2606 3.52247L2.06059 7.40818C0.878232 7.57709 0 8.5897 0 9.78406V28.7311L32 24.1597V5.89835Z" fill="white"/>
<path d="M14.8661 19.9313H9.37805V12.0913H11.3157V18.1841H14.8661V19.9313Z" fill="black"/>
<path d="M21.5139 15.7425C22.0365 15.9142 22.4061 16.1606 22.6227 16.4817C22.8467 16.8028 22.9587 17.191 22.9587 17.6465C22.9587 18.1094 22.8392 18.5126 22.6003 18.8561C22.3688 19.1996 22.0328 19.4646 21.5923 19.6513C21.1592 19.838 20.6515 19.9313 20.0691 19.9313H16.6531V12.0913H19.7555C20.7037 12.0913 21.3981 12.2668 21.8387 12.6177C22.2867 12.9612 22.5107 13.4502 22.5107 14.0849C22.5107 14.839 22.1784 15.3916 21.5139 15.7425ZM18.6243 13.6929V15.2833H19.6547C19.9608 15.2833 20.1923 15.2124 20.3491 15.0705C20.5133 14.9286 20.5955 14.7233 20.5955 14.4545C20.5955 13.9468 20.2707 13.6929 19.6211 13.6929H18.6243ZM19.8675 18.3409C20.2035 18.3409 20.4536 18.2625 20.6179 18.1057C20.7896 17.9414 20.8755 17.7286 20.8755 17.4673C20.8755 16.9297 20.5544 16.6609 19.9123 16.6609H18.6243V18.3409H19.8675Z" fill="black"/>
</svg>
