<svg width="64" height="64" viewBox="0 0 64 64" fill="none" xmlns="http://www.w3.org/2000/svg">
<path d="M0 11.7966C0 8.87559 2.58714 6.63177 5.47882 7.04487L59.8788 14.8163C62.2435 15.1541 64 17.1793 64 19.5681V57.4622L0 48.3193V11.7966Z" fill="white"/>
<path d="M29.732 39.8626H18.756V24.1826H22.6312V36.3682H29.732V39.8626Z" fill="black"/>
<path d="M43.0276 31.485C44.073 31.8285 44.8122 32.3213 45.2452 32.9634C45.6932 33.6056 45.9172 34.3821 45.9172 35.293C45.9172 36.2189 45.6783 37.0253 45.2004 37.7122C44.7375 38.3992 44.0655 38.9293 43.1844 39.3026C42.3183 39.676 41.3028 39.8626 40.138 39.8626H33.306V24.1826H39.5108C41.4074 24.1826 42.7962 24.5336 43.6772 25.2354C44.5732 25.9224 45.0212 26.9005 45.0212 28.1698C45.0212 29.6781 44.3567 30.7832 43.0276 31.485ZM37.2484 27.3858V30.5666H39.3092C39.9215 30.5666 40.3844 30.4248 40.698 30.141C41.0266 29.8573 41.1908 29.4466 41.1908 28.909C41.1908 27.8936 40.5412 27.3858 39.242 27.3858H37.2484ZM39.7348 36.6818C40.4068 36.6818 40.9071 36.525 41.2356 36.2114C41.5791 35.8829 41.7508 35.4573 41.7508 34.9346C41.7508 33.8594 41.1087 33.3218 39.8244 33.3218H37.2484V36.6818H39.7348Z" fill="black"/>
</svg>
