<svg width="64" height="64" viewBox="0 0 64 64" fill="none" xmlns="http://www.w3.org/2000/svg">
<path d="M60.8965 7.93901L14.3535 0.457149C13.7262 0.356308 13.0821 0.435768 12.5378 0.763485C9.61642 2.52236 0.2117 9.78502 0.2117 30.3936C0.2117 50.4801 9.14591 60.0933 12.3036 62.8636C12.9794 63.4565 13.8897 63.6365 14.7707 63.4571L61.2475 53.9936C63.3372 53.568 64.5201 51.3116 63.7771 49.3126C62.0687 44.7166 59.5491 36.8445 59.5491 30.3936C59.5491 24.2038 61.869 17.1186 63.5659 12.7638C64.3768 10.6831 63.1013 8.29344 60.8965 7.93901Z" fill="white"/>
<path d="M28.9695 40.3669H17.5178V24.0073H21.5609V36.721H28.9695V40.3669Z" fill="black"/>
<path d="M40.2765 23.61C41.5073 23.61 42.6214 23.7814 43.6185 24.1242C44.6312 24.4514 45.5115 24.8799 46.2594 25.4096L44.343 28.4244C43.19 27.7077 41.9124 27.3494 40.5102 27.3494C39.1859 27.3494 38.1186 27.7622 37.3084 28.588C36.5138 29.3982 36.1165 30.5901 36.1165 32.1637C36.1165 33.6906 36.4904 34.8825 37.2383 35.7395C38.0017 36.5808 38.9833 37.0015 40.183 37.0015C41.2269 37.0015 42.0838 36.7678 42.7538 36.3004V33.7763H39.1313V30.5512H46.61V38.4037C45.8465 39.1204 44.8961 39.6891 43.7587 40.1098C42.6369 40.5305 41.3983 40.7408 40.0428 40.7408C38.625 40.7408 37.285 40.437 36.023 39.8293C34.7766 39.2217 33.7561 38.2947 32.9614 37.0482C32.1824 35.7862 31.7929 34.2204 31.7929 32.3507C31.7929 30.4966 32.1746 28.9152 32.9381 27.6064C33.7015 26.2821 34.722 25.2849 35.9996 24.615C37.2928 23.945 38.7184 23.61 40.2765 23.61Z" fill="black"/>
</svg>
