<svg width="32" height="32" viewBox="0 0 32 32" fill="none" xmlns="http://www.w3.org/2000/svg">
<path d="M0 5.89832C0 4.4378 1.29357 3.31589 2.73941 3.52244L29.9394 7.40815C31.1218 7.57706 32 8.58967 32 9.78403V28.7311L0 24.1597V5.89832Z" fill="white"/>
<path d="M15.4845 19.9313H13.3341L11.8445 17.4449H11.6765H10.7469V19.9313H8.80927V12.0913H11.8557C12.9757 12.0913 13.8045 12.3116 14.3421 12.7521C14.8797 13.1927 15.1485 13.8124 15.1485 14.6113C15.1485 15.2161 15.0178 15.7239 14.7565 16.1345C14.5026 16.5377 14.1442 16.8439 13.6813 17.0529L15.4845 19.9313ZM10.7469 13.7489V15.7873H11.7997C12.1954 15.7873 12.5053 15.6977 12.7293 15.5185C12.9607 15.3319 13.0765 15.0631 13.0765 14.7121C13.0765 14.3911 12.9719 14.1521 12.7629 13.9953C12.5538 13.8311 12.2215 13.7489 11.7661 13.7489H10.7469Z" fill="black"/>
<path d="M22.0826 15.7425C22.6052 15.9143 22.9748 16.1607 23.1914 16.4817C23.4154 16.8028 23.5274 17.1911 23.5274 17.6465C23.5274 18.1095 23.4079 18.5127 23.169 18.8561C22.9375 19.1996 22.6015 19.4647 22.161 19.6513C21.7279 19.838 21.2202 19.9313 20.6378 19.9313H17.2218V12.0913H20.3242C21.2724 12.0913 21.9668 12.2668 22.4074 12.6177C22.8554 12.9612 23.0794 13.4503 23.0794 14.0849C23.0794 14.8391 22.7471 15.3916 22.0826 15.7425ZM19.193 13.6929V15.2833H20.2234C20.5295 15.2833 20.761 15.2124 20.9178 15.0705C21.082 14.9287 21.1642 14.7233 21.1642 14.4545C21.1642 13.9468 20.8394 13.6929 20.1898 13.6929H19.193ZM20.4362 18.3409C20.7722 18.3409 21.0223 18.2625 21.1866 18.1057C21.3583 17.9415 21.4442 17.7287 21.4442 17.4673C21.4442 16.9297 21.1231 16.6609 20.481 16.6609H19.193V18.3409H20.4362Z" fill="black"/>
</svg>
