<svg width="32" height="32" viewBox="0 0 32 32" fill="none" xmlns="http://www.w3.org/2000/svg">
<path d="M27.4171 21.1112C26.5502 27.3531 21.2133 32 14.9114 32C7.93843 32 2.28571 26.3473 2.28571 19.3743V8.38094L29.7143 4.57141L27.4171 21.1112Z" fill="white"/>
<path d="M15.3624 22.0952H13.3144L11.8958 19.7272H11.7358H10.8504V22.0952H9.0051V14.6285H11.9064C12.9731 14.6285 13.7624 14.8383 14.2744 15.2579C14.7864 15.6774 15.0424 16.2677 15.0424 17.0285C15.0424 17.6045 14.918 18.0881 14.6691 18.4792C14.4273 18.8632 14.086 19.1548 13.6451 19.3539L15.3624 22.0952ZM10.8504 16.2072V18.1485H11.8531C12.23 18.1485 12.5251 18.0632 12.7384 17.8925C12.9589 17.7148 13.0691 17.4588 13.0691 17.1245C13.0691 16.8188 12.9695 16.5912 12.7704 16.4419C12.5713 16.2854 12.2549 16.2072 11.8211 16.2072H10.8504Z" fill="black"/>
<path d="M20.5477 22.0952H18.7023V16.2072H16.5263V14.6285H22.7237V16.2072H20.5477V22.0952Z" fill="black"/>
<path d="M9.90475 1.5238L16 8.38095L22.0952 1.5238H9.90475Z" fill="black"/>
<path fill-rule="evenodd" clip-rule="evenodd" d="M16 10.6746L6.51147 0H25.4884L16 10.6746ZM16 8.38095L22.0952 1.52381H9.90476L16 8.38095Z" fill="white"/>
</svg>
