<svg width="64" height="64" viewBox="0 0 64 64" fill="none" xmlns="http://www.w3.org/2000/svg">
<g clip-path="url(#clip0_1967:20402)">
<path d="M54.8342 42.2224C53.1003 54.7062 42.4266 64 29.8229 64C15.8769 64 4.57144 52.6946 4.57144 38.7486V16.7619L59.4286 9.14285L54.8342 42.2224Z" fill="white"/>
<path d="M30.7249 44.1904H26.6289L23.7916 39.4544H23.4716H21.7009V44.1904H18.0102V29.2571H23.8129C25.9462 29.2571 27.5249 29.6766 28.5489 30.5157C29.5729 31.3549 30.0849 32.5353 30.0849 34.0571C30.0849 35.2091 29.836 36.1762 29.3382 36.9584C28.8547 37.7264 28.172 38.3095 27.2902 38.7077L30.7249 44.1904ZM21.7009 32.4144V36.2971H23.7062C24.46 36.2971 25.0502 36.1264 25.4769 35.7851C25.9178 35.4295 26.1382 34.9175 26.1382 34.2491C26.1382 33.6375 25.9391 33.1824 25.5409 32.8837C25.1427 32.5709 24.5098 32.4144 23.6422 32.4144H21.7009Z" fill="black"/>
<path d="M41.0954 44.1904H37.4047V32.4144H33.0527V29.2571H45.4474V32.4144H41.0954V44.1904Z" fill="black"/>
<path d="M19.8095 3.04761L32 16.7619L44.1904 3.04761H19.8095Z" fill="black"/>
<path fill-rule="evenodd" clip-rule="evenodd" d="M32 21.3492L13.023 0H50.9769L32 21.3492ZM32 16.7619L44.1904 3.04762H19.8096L32 16.7619Z" fill="white"/>
</g>
<defs>
<clipPath id="clip0_1967:20402">
<rect width="64" height="64" fill="white"/>
</clipPath>
</defs>
</svg>
