<svg width="64" height="64" viewBox="0 0 64 64" fill="none" xmlns="http://www.w3.org/2000/svg">
<path d="M3.31521 7.93901L49.8582 0.457149C50.4855 0.356308 51.1295 0.435768 51.6739 0.763485C54.5953 2.52236 64 9.78502 64 30.3936C64 50.4801 55.0658 60.0933 51.9081 62.8636C51.2323 63.4565 50.322 63.6365 49.441 63.4571L2.96424 53.9936C0.874459 53.568 -0.308388 51.3116 0.434645 49.3126C2.14296 44.7166 4.66258 36.8445 4.66258 30.3936C4.66258 24.2038 2.34272 17.1186 0.645752 12.7638C-0.16507 10.6831 1.11037 8.29344 3.31521 7.93901Z" fill="white"/>
<path d="M31.8038 40.3669H27.3166L24.2083 35.1786H23.8577H21.918V40.3669H17.8748V24.0073H24.2317C26.5687 24.0073 28.2982 24.467 29.42 25.3862C30.5418 26.3055 31.1027 27.5987 31.1027 29.2658C31.1027 30.5278 30.83 31.5873 30.2847 32.4442C29.7549 33.2855 29.0071 33.9243 28.0411 34.3606L31.8038 40.3669ZM21.918 27.4662V31.7197H24.1148C24.9406 31.7197 25.5872 31.5327 26.0546 31.1588C26.5376 30.7693 26.7791 30.2084 26.7791 29.4761C26.7791 28.8061 26.5609 28.3076 26.1247 27.9804C25.6884 27.6376 24.9951 27.4662 24.0447 27.4662H21.918Z" fill="black"/>
<path d="M43.2582 23.61C44.489 23.61 45.603 23.7814 46.6002 24.1242C47.6129 24.4514 48.4932 24.8799 49.2411 25.4096L47.3247 28.4244C46.1717 27.7077 44.8941 27.3494 43.4919 27.3494C42.1675 27.3494 41.1003 27.7622 40.2901 28.588C39.4955 29.3982 39.0982 30.5901 39.0982 32.1637C39.0982 33.6906 39.4721 34.8825 40.22 35.7395C40.9834 36.5808 41.965 37.0015 43.1647 37.0015C44.2086 37.0015 45.0655 36.7678 45.7355 36.3004V33.7763H42.113V30.5512H49.5916V38.4037C48.8282 39.1204 47.8778 39.6891 46.7404 40.1098C45.6186 40.5305 44.38 40.7408 43.0245 40.7408C41.6066 40.7408 40.2667 40.437 39.0047 39.8293C37.7582 39.2217 36.7377 38.2947 35.9431 37.0482C35.1641 35.7862 34.7746 34.2204 34.7746 32.3507C34.7746 30.4966 35.1563 28.9152 35.9197 27.6064C36.6832 26.2821 37.7037 25.2849 38.9813 24.615C40.2745 23.945 41.7001 23.61 43.2582 23.61Z" fill="black"/>
</svg>
