<svg width="32" height="32" viewBox="0 0 32 32" fill="none" xmlns="http://www.w3.org/2000/svg">
<g clip-path="url(#clip0_1967_20317)">
<path fill-rule="evenodd" clip-rule="evenodd" d="M0 0L32 4.44444L24.5444 11.9H18.3918V13.7418H20.9305V15.5139L16.5715 19.8729L15.0304 17.4129C15.5448 17.1806 15.943 16.8404 16.2251 16.3924C16.5154 15.9361 16.6606 15.372 16.6606 14.7C16.6606 13.8123 16.3619 13.1237 15.7646 12.6342C15.1673 12.1447 14.2464 11.9 13.0019 11.9H9.61705V20.6111H11.7699V17.8484H12.8028H12.9895L14.6446 20.6111H15.8333L7.85014 28.5943C5.11267 26.3167 3.20199 23.0544 2.68005 19.2964L0 0ZM11.7699 16.0067V13.7418H12.9024C13.4085 13.7418 13.7776 13.833 14.0099 14.0156C14.2422 14.1898 14.3584 14.4553 14.3584 14.812C14.3584 15.2019 14.2298 15.5006 13.9726 15.708C13.7237 15.9071 13.3794 16.0067 12.9397 16.0067H11.7699Z" fill="white"/>
<path opacity="0.5" fill-rule="evenodd" clip-rule="evenodd" d="M7.85014 28.5943L32 4.44446V17.27C32 25.4052 25.4051 32 17.27 32C13.7119 32 10.4174 30.7303 7.85014 28.5943Z" fill="white"/>
<path d="M17.0339 20.4444H14.6446L12.9895 17.6818H12.8028H11.7699V20.4444H9.61705V11.7333H13.0019C14.2464 11.7333 15.1673 11.9781 15.7646 12.4676C16.3619 12.957 16.6606 13.6456 16.6606 14.5333C16.6606 15.2053 16.5154 15.7695 16.2251 16.2258C15.943 16.6738 15.5448 17.0139 15.0304 17.2462L17.0339 20.4444ZM11.7699 13.5751V15.84H12.9397C13.3794 15.84 13.7237 15.7404 13.9726 15.5413C14.2298 15.3339 14.3584 15.0353 14.3584 14.6453C14.3584 14.2886 14.2422 14.0231 14.0099 13.8489C13.7776 13.6664 13.4085 13.5751 12.9024 13.5751H11.7699Z" fill="black"/>
<path d="M23.0834 20.4444H20.9305V13.5751H18.3918V11.7333H25.6221V13.5751H23.0834V20.4444Z" fill="black"/>
</g>
<defs>
<clipPath id="clip0_1967_20317">
<rect width="32" height="32" fill="white"/>
</clipPath>
</defs>
</svg>
