<svg width="32" height="32" viewBox="0 0 32 32" fill="none" xmlns="http://www.w3.org/2000/svg">
<g clip-path="url(#clip0_1967_17718)">
<path d="M1.65762 3.96952L24.9291 0.22859C25.2428 0.178169 25.5648 0.217899 25.8369 0.381758C27.2977 1.26119 32 4.89253 32 15.1968C32 25.2401 27.5329 30.0467 25.9541 31.4318C25.6162 31.7283 25.161 31.8183 24.7205 31.7286L1.48214 26.9968C0.437245 26.784 -0.154179 25.6558 0.217338 24.6563C1.0715 22.3583 2.3313 18.4222 2.3313 15.1968C2.3313 12.1019 1.17137 8.55932 0.322891 6.38194C-0.0825196 5.34157 0.5552 4.14673 1.65762 3.96952Z" fill="white"/>
<path d="M15.9019 20.1835H13.6583L12.1042 17.5893H11.9289H10.959V20.1835H8.93744V12.0037H12.1159C13.2844 12.0037 14.1491 12.2335 14.71 12.6931C15.2709 13.1528 15.5514 13.7994 15.5514 14.6329C15.5514 15.2639 15.415 15.7937 15.1424 16.2221C14.8775 16.6428 14.5036 16.9622 14.0206 17.1803L15.9019 20.1835ZM10.959 13.7331V15.8599H12.0574C12.4703 15.8599 12.7936 15.7664 13.0273 15.5794C13.2688 15.3847 13.3896 15.1042 13.3896 14.7381C13.3896 14.4031 13.2805 14.1538 13.0624 13.9902C12.8442 13.8188 12.4976 13.7331 12.0224 13.7331H10.959Z" fill="black"/>
<path d="M21.6291 11.8051C22.2445 11.8051 22.8015 11.8907 23.3001 12.0621C23.8065 12.2257 24.2466 12.44 24.6206 12.7048L23.6624 14.2122C23.0859 13.8539 22.4471 13.6747 21.746 13.6747C21.0838 13.6747 20.5502 13.8812 20.1451 14.294C19.7478 14.6991 19.5491 15.2951 19.5491 16.0819C19.5491 16.8453 19.7361 17.4413 20.11 17.8698C20.4917 18.2904 20.9825 18.5008 21.5824 18.5008C22.1043 18.5008 22.5328 18.3839 22.8678 18.1502V16.8882H21.0565V15.2756H24.7958V19.2019C24.4141 19.5602 23.9389 19.8446 23.3702 20.0549C22.8093 20.2653 22.19 20.3704 21.5123 20.3704C20.8033 20.3704 20.1334 20.2185 19.5024 19.9147C18.8792 19.6109 18.3689 19.1474 17.9716 18.5241C17.5821 17.8931 17.3873 17.1102 17.3873 16.1754C17.3873 15.2483 17.5782 14.4576 17.9599 13.8033C18.3416 13.1411 18.8519 12.6425 19.4907 12.3075C20.1373 11.9725 20.8501 11.8051 21.6291 11.8051Z" fill="black"/>
</g>
<defs>
<clipPath id="clip0_1967_17718">
<rect width="32" height="32" fill="white"/>
</clipPath>
</defs>
</svg>
