<svg width="64" height="64" viewBox="0 0 64 64" fill="none" xmlns="http://www.w3.org/2000/svg">
<g clip-path="url(#clip0_1967:20317)">
<path fill-rule="evenodd" clip-rule="evenodd" d="M0 0L64 8.88889L49.0889 23.8H36.7837V27.4836H41.861V31.0279L33.143 39.7459L30.0608 34.8258C31.0895 34.3612 31.886 33.6809 32.4501 32.7849C33.0308 31.8723 33.3212 30.744 33.3212 29.4C33.3212 27.6246 32.7239 26.2474 31.5292 25.2684C30.3346 24.2895 28.4928 23.8 26.0039 23.8H19.2341V41.2222H23.5399V35.6969H25.6057H25.979L29.2892 41.2222H31.6667L15.7003 57.1886C10.2253 52.6335 6.40399 46.1087 5.36011 38.5928L0 0ZM23.5399 32.0133V27.4836H25.8048C26.8169 27.4836 27.5553 27.6661 28.0199 28.0311C28.4845 28.3796 28.7168 28.9105 28.7168 29.624C28.7168 30.4039 28.4596 31.0012 27.9452 31.416C27.4474 31.8142 26.7589 32.0133 25.8794 32.0133H23.5399Z" fill="white"/>
<path opacity="0.5" fill-rule="evenodd" clip-rule="evenodd" d="M15.7003 57.1886L64 8.88889V34.54C64 50.8103 50.8103 64 34.54 64C27.4238 64 20.8348 61.4605 15.7003 57.1886Z" fill="white"/>
<path d="M34.0679 40.8889H29.2892L25.979 35.3636H25.6057H23.5399V40.8889H19.2341V23.4667H26.0039C28.4928 23.4667 30.3345 23.9562 31.5292 24.9351C32.7239 25.9141 33.3212 27.2913 33.3212 29.0667C33.3212 30.4107 33.0308 31.539 32.4501 32.4516C31.886 33.3476 31.0895 34.0279 30.0608 34.4925L34.0679 40.8889ZM23.5399 27.1502V31.68H25.8794C26.7588 31.68 27.4474 31.4809 27.9452 31.0827C28.4596 30.6679 28.7168 30.0705 28.7168 29.2907C28.7168 28.5772 28.4845 28.0462 28.0199 27.6978C27.5553 27.3327 26.8169 27.1502 25.8048 27.1502H23.5399Z" fill="black"/>
<path d="M46.1668 40.8889H41.861V27.1502H36.7837V23.4667H51.2441V27.1502H46.1668V40.8889Z" fill="black"/>
</g>
<defs>
<clipPath id="clip0_1967:20317">
<rect width="64" height="64" fill="white"/>
</clipPath>
</defs>
</svg>
