<svg width="32" height="32" viewBox="0 0 32 32" fill="none" xmlns="http://www.w3.org/2000/svg">
<path d="M30.5 16C30.5 24.0081 24.0081 30.5 16 30.5C7.99187 30.5 1.5 24.0081 1.5 16C1.5 7.99187 7.99187 1.5 16 1.5C24.0081 1.5 30.5 7.99187 30.5 16Z" fill="white"/>
<path fill-rule="evenodd" clip-rule="evenodd" d="M16 27.6087C22.4113 27.6087 27.6087 22.4113 27.6087 16C27.6087 9.5887 22.4113 4.39131 16 4.39131C9.58869 4.39131 4.3913 9.5887 4.3913 16C4.3913 22.4113 9.58869 27.6087 16 27.6087ZM16 28.6087C22.9636 28.6087 28.6087 22.9636 28.6087 16C28.6087 9.03642 22.9636 3.39131 16 3.39131C9.03641 3.39131 3.3913 9.03642 3.3913 16C3.3913 22.9636 9.03641 28.6087 16 28.6087Z" fill="black"/>
</svg>
