<svg width="64" height="64" viewBox="0 0 64 64" fill="none" xmlns="http://www.w3.org/2000/svg">
<path d="M61 32C61 48.0163 48.0163 61 32 61C15.9837 61 3 48.0163 3 32C3 15.9837 15.9837 3 32 3C48.0163 3 61 15.9837 61 32Z" fill="white"/>
<path d="M11.5027 37.3586L6.13555 31.9999L11.5027 26.6244L12.9905 28.1122L9.1112 31.9999L12.9905 35.8792L11.5027 37.3586Z" fill="black"/>
<path d="M18.8745 35.8707L14.9953 31.9999L18.8745 28.1206L17.3867 26.6244L12.0196 31.9999L17.3867 37.3586L18.8745 35.8707Z" fill="black"/>
<path d="M57.8644 31.9999L52.4973 37.3586L51.0095 35.8792L54.8888 31.9999L51.0095 28.1122L52.4973 26.6244L57.8644 31.9999Z" fill="black"/>
<path d="M49.0047 31.9999L45.1255 35.8707L46.6133 37.3586L51.9804 31.9999L46.6133 26.6244L45.1255 28.1206L49.0047 31.9999Z" fill="black"/>
</svg>
