<svg width="32" height="32" viewBox="0 0 32 32" fill="none" xmlns="http://www.w3.org/2000/svg">
<path d="M30.5 16C30.5 24.0081 24.0081 30.5 16 30.5C7.99187 30.5 1.5 24.0081 1.5 16C1.5 7.99187 7.99187 1.5 16 1.5C24.0081 1.5 30.5 7.99187 30.5 16Z" fill="white"/>
<path d="M5.75132 18.6793L3.06777 15.9999L5.75132 13.3122L6.49524 14.0561L4.5556 15.9999L6.49524 17.9396L5.75132 18.6793Z" fill="black"/>
<path d="M9.43726 17.9354L7.49763 15.9999L9.43726 14.0603L8.69335 13.3122L6.0098 15.9999L8.69335 18.6793L9.43726 17.9354Z" fill="black"/>
<path d="M28.9322 15.9999L26.2487 18.6793L25.5048 17.9396L27.4444 15.9999L25.5048 14.0561L26.2487 13.3122L28.9322 15.9999Z" fill="black"/>
<path d="M24.5024 15.9999L22.5627 17.9354L23.3066 18.6793L25.9902 15.9999L23.3066 13.3122L22.5627 14.0603L24.5024 15.9999Z" fill="black"/>
</svg>
