<svg width="32" height="32" viewBox="0 0 32 32" fill="none" xmlns="http://www.w3.org/2000/svg">
<path d="M0 16C0 12.6863 2.57884 10 5.76 10H26.24C29.4212 10 32 12.6863 32 16C32 19.3137 29.4212 22 26.24 22H5.76C2.57884 22 0 19.3137 0 16Z" fill="white"/>
<path d="M6.9764 13.8333C7.24904 13.8333 7.50056 13.8733 7.73096 13.9533C7.96136 14.0333 8.15528 14.1313 8.31272 14.2473L7.9556 14.9073C7.81352 14.8033 7.65416 14.7193 7.47752 14.6553C7.30472 14.5913 7.1396 14.5593 6.98216 14.5593C6.79016 14.5593 6.6404 14.6013 6.53288 14.6853C6.42536 14.7653 6.3716 14.8773 6.3716 15.0213C6.3716 15.1653 6.43496 15.2793 6.56168 15.3633C6.6884 15.4433 6.88232 15.5313 7.14344 15.6273C7.41224 15.7273 7.62728 15.8193 7.78856 15.9033C7.94984 15.9873 8.09 16.1113 8.20904 16.2753C8.33192 16.4353 8.39336 16.6413 8.39336 16.8933C8.39336 17.1613 8.32616 17.3933 8.19176 17.5893C8.0612 17.7853 7.87688 17.9373 7.6388 18.0453C7.40072 18.1493 7.12808 18.2013 6.82088 18.2013C6.57128 18.2013 6.31592 18.1673 6.0548 18.0993C5.79752 18.0273 5.57096 17.9313 5.37512 17.8113L5.64008 17.0793C5.8244 17.1833 6.01832 17.2673 6.22184 17.3313C6.4292 17.3913 6.63272 17.4213 6.8324 17.4213C7.05128 17.4213 7.21448 17.3773 7.322 17.2893C7.43336 17.2013 7.48904 17.0853 7.48904 16.9413C7.48904 16.7973 7.42952 16.6853 7.31048 16.6053C7.19144 16.5253 7.00904 16.4433 6.76328 16.3593C6.4868 16.2673 6.26408 16.1793 6.09512 16.0953C5.92616 16.0073 5.78024 15.8813 5.65736 15.7173C5.53832 15.5493 5.4788 15.3313 5.4788 15.0633C5.4788 14.8153 5.54024 14.5993 5.66312 14.4153C5.78984 14.2273 5.96648 14.0833 6.19304 13.9833C6.4196 13.8833 6.68072 13.8333 6.9764 13.8333Z" fill="#0E141B"/>
<path d="M11.2796 18.1293H10.4329V14.6853H9.21176V13.9293H12.5007V14.6853H11.2796V18.1293Z" fill="#0E141B"/>
<path d="M13.5408 13.9293H16.2595V14.6793H14.3875V15.6273H16.0003V16.3833H14.3875V17.3673H16.2595V18.1293H13.5408V13.9293Z" fill="#0E141B"/>
<path d="M21.0747 18.1293H20.1588L19.8824 17.3133H18.3041L18.0392 18.1293H17.1579L18.667 13.9293H19.5195L21.0747 18.1293ZM19.0875 14.9313L18.5345 16.6113H19.652L19.0875 14.9313Z" fill="#0E141B"/>
<path d="M24.2717 16.9113L25.5274 13.9293H26.3856V18.1293H25.5734V15.4593L24.4906 18.0093H23.9779L22.872 15.4893V18.1293H22.1002V13.9293H22.9123L24.2717 16.9113Z" fill="#0E141B"/>
</svg>
