<svg width="64" height="64" viewBox="0 0 64 64" fill="none" xmlns="http://www.w3.org/2000/svg">
<path d="M0 32C0 25.3726 5.15768 20 11.52 20H52.48C58.8423 20 64 25.3726 64 32C64 38.6274 58.8423 44 52.48 44H11.52C5.15768 44 0 38.6274 0 32Z" fill="white"/>
<path d="M13.9528 27.6666C14.4981 27.6666 15.0011 27.7466 15.4619 27.9066C15.9227 28.0666 16.3106 28.2626 16.6254 28.4946L15.9112 29.8146C15.627 29.6066 15.3083 29.4386 14.955 29.3106C14.6094 29.1826 14.2792 29.1186 13.9643 29.1186C13.5803 29.1186 13.2808 29.2026 13.0658 29.3706C12.8507 29.5306 12.7432 29.7546 12.7432 30.0426C12.7432 30.3306 12.8699 30.5586 13.1234 30.7266C13.3768 30.8866 13.7646 31.0626 14.2869 31.2546C14.8245 31.4546 15.2546 31.6386 15.5771 31.8066C15.8997 31.9746 16.18 32.2226 16.4181 32.5506C16.6638 32.8706 16.7867 33.2826 16.7867 33.7866C16.7867 34.3226 16.6523 34.7866 16.3835 35.1786C16.1224 35.5706 15.7538 35.8746 15.2776 36.0906C14.8014 36.2986 14.2562 36.4026 13.6418 36.4026C13.1426 36.4026 12.6318 36.3346 12.1096 36.1986C11.595 36.0546 11.1419 35.8626 10.7502 35.6226L11.2802 34.1586C11.6488 34.3666 12.0366 34.5346 12.4437 34.6626C12.8584 34.7826 13.2654 34.8426 13.6648 34.8426C14.1026 34.8426 14.429 34.7546 14.644 34.5786C14.8667 34.4026 14.9781 34.1706 14.9781 33.8826C14.9781 33.5946 14.859 33.3706 14.621 33.2106C14.3829 33.0506 14.0181 32.8866 13.5266 32.7186C12.9736 32.5346 12.5282 32.3586 12.1902 32.1906C11.8523 32.0146 11.5605 31.7626 11.3147 31.4346C11.0766 31.0986 10.9576 30.6626 10.9576 30.1266C10.9576 29.6306 11.0805 29.1986 11.3262 28.8306C11.5797 28.4546 11.933 28.1666 12.3861 27.9666C12.8392 27.7666 13.3614 27.6666 13.9528 27.6666Z" fill="#0E141B"/>
<path d="M22.5592 36.2586H20.8658V29.3706H18.4235V27.8586H25.0014V29.3706H22.5592V36.2586Z" fill="#0E141B"/>
<path d="M27.0816 27.8586H32.519V29.3586H28.775V31.2546H32.0006V32.7666H28.775V34.7346H32.519V36.2586H27.0816V27.8586Z" fill="#0E141B"/>
<path d="M42.1494 36.2586H40.3177L39.7647 34.6266H36.6082L36.0783 36.2586H34.3158L37.334 27.8586H39.039L42.1494 36.2586ZM38.175 29.8626L37.069 33.2226H39.3039L38.175 29.8626Z" fill="#0E141B"/>
<path d="M48.5434 33.8226L51.0547 27.8586H52.7712V36.2586H51.1469V30.9186L48.9811 36.0186H47.9559L45.744 30.9786V36.2586H44.2003V27.8586H45.8247L48.5434 33.8226Z" fill="#0E141B"/>
</svg>
