<svg width="64" height="64" viewBox="0 0 64 64" fill="none" xmlns="http://www.w3.org/2000/svg">
<path d="M3 5.7619C3 4.23655 4.23655 3 5.7619 3H58.2381C59.7635 3 61 4.23655 61 5.7619V58.2381C61 59.7635 59.7635 61 58.2381 61H5.7619C4.23655 61 3 59.7635 3 58.2381V5.7619Z" fill="white"/>
<path d="M29.5189 42.6333H15.8889V22.3333H20.1519V38.8053H29.5189V42.6333Z" fill="#0E141B"/>
<path d="M46.7219 22.3333V25.9583H37.8479V30.7143C38.4086 30.3663 39.0369 30.1149 39.7329 29.9603C40.4483 29.7863 41.1636 29.6993 41.8789 29.6993C43.6963 29.6993 45.1463 30.2213 46.2289 31.2653C47.3309 32.2899 47.8819 33.7883 47.8819 35.7603C47.8819 37.2296 47.5339 38.5153 46.8379 39.6173C46.1613 40.7193 45.1656 41.5796 43.8509 42.1983C42.5556 42.7976 41.0186 43.0973 39.2399 43.0973C37.9253 43.0973 36.6976 42.9233 35.5569 42.5753C34.4163 42.2273 33.4689 41.7343 32.7149 41.0963L34.2229 37.8483C35.7116 38.8536 37.3646 39.3563 39.1819 39.3563C40.5546 39.3563 41.6179 39.0566 42.3719 38.4573C43.1259 37.858 43.5029 36.9976 43.5029 35.8763C43.5029 34.8903 43.2129 34.1363 42.6329 33.6143C42.0723 33.0923 41.2989 32.8313 40.3129 32.8313C39.5783 32.8313 38.9016 32.9569 38.2829 33.2083C37.6643 33.4403 37.0553 33.7979 36.4559 34.2813L33.7589 32.8023V22.3333H46.7219Z" fill="#0E141B"/>
</svg>
