<svg width="64" height="64" viewBox="0 0 64 64" fill="none" xmlns="http://www.w3.org/2000/svg">
<g clip-path="url(#clip0_1967:16780)">
<rect x="18.0426" y="9.02129" width="45.9574" height="45.9574" rx="2.55319" fill="white"/>
<path fill-rule="evenodd" clip-rule="evenodd" d="M24.4255 15.4043V48.5958H57.617V15.4043H24.4255ZM23.1489 12.8511C22.4439 12.8511 21.8723 13.4226 21.8723 14.1277V49.8723C21.8723 50.5774 22.4439 51.1489 23.1489 51.1489H58.8936C59.5986 51.1489 60.1702 50.5774 60.1702 49.8723V14.1277C60.1702 13.4226 59.5986 12.8511 58.8936 12.8511H23.1489Z" fill="#DCDEDF"/>
<mask id="path-3-outside-1_1967:16780" maskUnits="userSpaceOnUse" x="-0.0638437" y="18.3404" width="16" height="27" fill="black">
<rect fill="white" x="-0.0638437" y="18.3404" width="16" height="27"/>
<path d="M12.9362 39.6596L3.99999 32L12.9362 24.3404L12.9362 39.6596Z"/>
</mask>
<path d="M12.9362 39.6596L3.99999 32L12.9362 24.3404L12.9362 39.6596Z" fill="black"/>
<path d="M12.9362 39.6596L11.2746 41.5981L15.4893 45.2108L15.4893 39.6596L12.9362 39.6596ZM3.99999 32L2.33839 30.0615L0.0767752 32L2.33839 33.9385L3.99999 32ZM12.9362 24.3404L15.4893 24.3404L15.4893 18.7892L11.2746 22.4019L12.9362 24.3404ZM2.33839 33.9385L11.2746 41.5981L14.5978 37.721L5.66158 30.0615L2.33839 33.9385ZM11.2746 22.4019L2.33839 30.0615L5.66158 33.9385L14.5978 26.279L11.2746 22.4019ZM15.4893 39.6596L15.4893 24.3404L10.383 24.3404L10.383 39.6596L15.4893 39.6596Z" fill="white" mask="url(#path-3-outside-1_1967:16780)"/>
<path d="M45.828 38.3829H37.0706V25.8723H40.1625V35.5948H45.828V38.3829Z" fill="black"/>
</g>
<defs>
<clipPath id="clip0_1967:16780">
<rect width="64" height="64" fill="white"/>
</clipPath>
</defs>
</svg>
