<svg width="64" height="64" viewBox="0 0 64 64" fill="none" xmlns="http://www.w3.org/2000/svg">
<g clip-path="url(#clip0_1967:16539)">
<path d="M0 42.3333C0 52.1517 5.96954 60.1111 13.3333 60.1111H61.3333C62.8061 60.1111 64 58.5192 64 56.5556V6.77778C64 4.81411 62.8061 3.22223 61.3333 3.22223H2.66667C1.19391 3.22223 0 4.81411 0 6.77778V42.3333Z" fill="white"/>
<path d="M29.942 40.5555H17.7465V23.1333H22.0522V36.6728H29.942V40.5555Z" fill="black"/>
<path d="M38.9407 36.8471H46.7558V40.5555H33.49V37.0213L38.5176 32.9395C39.2974 32.2924 39.8865 31.778 40.2847 31.3964C40.6829 31.0148 40.9899 30.6248 41.2056 30.2266C41.4379 29.8284 41.554 29.3887 41.554 28.9075C41.554 28.1608 41.2636 27.5967 40.6829 27.2151C40.1188 26.8334 39.397 26.6426 38.5176 26.6426C37.8539 26.6426 37.1985 26.7422 36.5514 26.9413C35.9042 27.1238 35.3235 27.3727 34.8091 27.688L33.4154 24.5022C34.2118 23.9878 35.0995 23.5813 36.0785 23.2826C37.074 22.984 38.1359 22.8346 39.2642 22.8346C41.3549 22.8346 43.0391 23.2743 44.3167 24.1537C45.5943 25.0166 46.2331 26.2942 46.2331 27.9866C46.2331 29.1481 45.9013 30.21 45.2376 31.1724C44.5905 32.1182 43.5866 33.1386 42.226 34.2337L38.9407 36.8471Z" fill="black"/>
</g>
<defs>
<clipPath id="clip0_1967:16539">
<rect width="64" height="64" fill="white"/>
</clipPath>
</defs>
</svg>
