<svg width="32" height="32" viewBox="0 0 32 32" fill="none" xmlns="http://www.w3.org/2000/svg">
<path d="M1.52293 6.39379C1.66641 4.29545 3.41038 2.66666 5.51361 2.66666H26.4864C28.5896 2.66666 30.3336 4.29546 30.4771 6.39379L31.7078 24.3938C31.8659 26.7049 30.0337 28.6667 27.7172 28.6667H4.28284C1.96629 28.6667 0.134134 26.7049 0.292162 24.3938L1.52293 6.39379Z" fill="white"/>
<path d="M20.6966 21.3889H13.1766V10.1889H15.5286V19.2769H20.6966V21.3889Z" fill="#0E141B"/>
<path d="M3.86732 6.85753C3.94208 5.81092 4.81296 5.00003 5.86224 5.00003H26.1378C27.187 5.00003 28.0579 5.81093 28.1327 6.85754L29.347 23.8575C29.4297 25.0153 28.5127 26 27.352 26H4.64795C3.48727 26 2.57034 25.0153 2.65304 23.8575L3.86732 6.85753Z" stroke="#0E141B" stroke-width="1.5"/>
</svg>
