<svg width="64" height="64" viewBox="0 0 64 64" fill="none" xmlns="http://www.w3.org/2000/svg">
<path d="M3 5.7619C3 4.23655 4.23655 3 5.7619 3H58.2381C59.7635 3 61 4.23655 61 5.7619V58.2381C61 59.7635 59.7635 61 58.2381 61H5.7619C4.23655 61 3 59.7635 3 58.2381V5.7619Z" fill="white"/>
<path d="M29.5189 42.6333H15.8889V22.3333H20.1519V38.8053H29.5189V42.6333Z" fill="#0E141B"/>
<path d="M45.9969 22.3333V34.7453H48.9259V38.0223H45.9969V42.6333H41.6759V38.0223H32.1059V35.2383L42.0529 22.3333H45.9969ZM41.8499 27.4083L36.2529 34.7453H41.8499V27.4083Z" fill="#0E141B"/>
</svg>
