<svg width="32" height="32" viewBox="0 0 32 32" fill="none" xmlns="http://www.w3.org/2000/svg">
<path d="M4.83105 9.39862C4.97271 7.29875 6.71734 5.66785 8.82198 5.66785H23.1281C25.2327 5.66785 26.9774 7.29875 27.119 9.39862L27.9409 21.5814C28.0967 23.8913 26.2651 25.8507 23.95 25.8507H8.00013C5.68502 25.8507 3.85337 23.8913 4.00919 21.5814L4.83105 9.39862Z" fill="white"/>
<path d="M19.7835 20.1292H13.6854V11.0469H15.5927V18.4166H19.7835V20.1292Z" fill="#0E141B"/>
<path d="M1.69235 16.0053L4.90082 19.3846L5.79024 18.4517L3.4712 16.0053L5.79024 13.5536L4.90082 12.6154L1.69235 16.0053Z" fill="white"/>
<path d="M6.9887 16.0053L9.30774 18.4464L8.41831 19.3846L5.20985 16.0053L8.41831 12.6154L9.30774 13.5589L6.9887 16.0053Z" fill="white"/>
<path fill-rule="evenodd" clip-rule="evenodd" d="M4.88444 21.0744L6.68848 19.211L8.48756 21.0769L11 18.467L8.62611 16.0064L10.9971 13.5435L8.48863 10.9231L6.68728 12.7972L4.88552 10.9256L0 16.0085L4.88444 21.0744ZM7.02346 16.0073L9.39735 18.4679L8.48689 19.4137L5.20254 16.0073L8.48689 12.5902L9.39735 13.5413L7.02346 16.0073ZM1.60184 16.0073L4.88619 19.4137L5.79665 18.4732L3.42276 16.0073L5.79665 13.536L4.88619 12.5902L1.60184 16.0073Z" fill="#0E141B"/>
<path d="M30.3076 16.0053L27.0992 19.3846L26.2098 18.4517L28.5288 16.0053L26.2098 13.5536L27.0992 12.6154L30.3076 16.0053Z" fill="white"/>
<path d="M25.0113 16.0053L22.6923 18.4464L23.5817 19.3846L26.7901 16.0053L23.5817 12.6154L22.6923 13.5589L25.0113 16.0053Z" fill="white"/>
<path fill-rule="evenodd" clip-rule="evenodd" d="M27.1156 21.0744L25.3115 19.211L23.5124 21.0769L21 18.467L23.3739 16.0064L21.0029 13.5435L23.5114 10.9231L25.3127 12.7972L27.1145 10.9256L32 16.0085L27.1156 21.0744ZM24.9765 16.0073L22.6026 18.4679L23.5131 19.4137L26.7975 16.0073L23.5131 12.5902L22.6026 13.5413L24.9765 16.0073ZM30.3982 16.0073L27.1138 19.4137L26.2033 18.4732L28.5772 16.0073L26.2033 13.536L27.1138 12.5902L30.3982 16.0073Z" fill="#0E141B"/>
</svg>
