<svg width="32" height="32" viewBox="0 0 32 32" fill="none" xmlns="http://www.w3.org/2000/svg">
<path opacity="0.5" d="M6.667 30.444C2.985 30.444 0 27.503 0 22.594C0 22.594 0.556 18.371 0.75 16.625C0.916 15.132 1.25 13.156 0.844 8.68703C0.732 7.45803 0 3.77803 0 3.77803C0 2.79603 0.597 2.00003 1.333 2.00003H30.666C31.402 2.00003 32 2.79603 32 3.77803V28.666C32 29.648 31.402 30.444 30.666 30.444H6.667Z" fill="white"/>
<path fill-rule="evenodd" clip-rule="evenodd" d="M31.9999 28.6667V3.77777C31.9999 2.79594 31.4029 2 30.6665 2H1.3332C0.921656 2 0.553664 2.2486 0.309082 2.63931L9.09829 10.2444H9.64057V10.7136L18.1638 18.0885L19.7079 16.8044L19.9799 16.5644C20.4706 16.1484 20.8439 15.8124 21.0999 15.5564C21.3666 15.3004 21.5799 15.0284 21.7399 14.7404C21.8999 14.4524 21.9799 14.1377 21.9799 13.7964C21.9799 13.2417 21.7772 12.8257 21.3719 12.5484C20.9772 12.2604 20.4652 12.1164 19.8359 12.1164C19.3666 12.1164 18.9079 12.191 18.4599 12.3404C18.0226 12.4897 17.6386 12.6764 17.3079 12.9004L16.5079 11.1724C16.9986 10.831 17.5586 10.559 18.1879 10.3564C18.8279 10.1537 19.5106 10.0524 20.2359 10.0524C21.5266 10.0524 22.5612 10.335 23.3399 10.9004C24.1186 11.4657 24.5079 12.271 24.5079 13.3164C24.5079 14.0844 24.2839 14.783 23.8359 15.4124C23.3879 16.031 22.6999 16.7244 21.7719 17.4924L19.5755 19.31L19.6938 19.4124H24.8439V21.4444H22.0422L31.6956 29.7972C31.8857 29.4899 31.9999 29.0961 31.9999 28.6667Z" fill="white"/>
<path d="M14.8086 21.4444H7.28857V10.2444H9.64057V19.3324H14.8086V21.4444Z" fill="#0E141B"/>
<path d="M19.4519 19.4124H24.8439V21.4444H16.4759V19.4924L19.7079 16.8044L19.9799 16.5644C20.4706 16.1484 20.8439 15.8124 21.0999 15.5564C21.3666 15.3004 21.5799 15.0284 21.7399 14.7404C21.8999 14.4524 21.9799 14.1377 21.9799 13.7964C21.9799 13.2417 21.7772 12.8257 21.3719 12.5484C20.9772 12.2604 20.4652 12.1164 19.8359 12.1164C19.3666 12.1164 18.9079 12.191 18.4599 12.3404C18.0226 12.4897 17.6386 12.6764 17.3079 12.9004L16.5079 11.1724C16.9986 10.831 17.5586 10.559 18.1879 10.3564C18.8279 10.1537 19.5106 10.0524 20.2359 10.0524C21.5266 10.0524 22.5612 10.335 23.3399 10.9004C24.1186 11.4657 24.5079 12.271 24.5079 13.3164C24.5079 14.0844 24.2839 14.783 23.8359 15.4124C23.3879 16.031 22.6999 16.7244 21.7719 17.4924L19.4519 19.4124Z" fill="#0E141B"/>
</svg>
