<svg width="32" height="32" viewBox="0 0 32 32" fill="none" xmlns="http://www.w3.org/2000/svg">
<path opacity="0.5" d="M0 21.5556C0 26.4648 2.98477 30.4445 6.66667 30.4445H30.6667C31.403 30.4445 32 29.6485 32 28.6667V3.77781C32 2.79597 31.403 2.00003 30.6667 2.00003H1.33333C0.596954 2.00003 0 2.79597 0 3.77781V21.5556Z" fill="white"/>
<path d="M31.9999 3.77777V28.6667C31.9999 29.0961 31.8857 29.4899 31.6956 29.7972L0.309082 2.63931C0.553664 2.2486 0.921656 2 1.3332 2H30.6665C31.4029 2 31.9999 2.79594 31.9999 3.77777Z" fill="white"/>
<path d="M15.02 21.392H7.5V10.192H9.852V19.28H15.02V21.392Z" fill="#0E141B"/>
<path d="M19.6633 19.36H25.0553V21.392H16.6873V19.44L19.9193 16.752L20.1913 16.512C20.682 16.096 21.0553 15.76 21.3113 15.504C21.578 15.248 21.7913 14.976 21.9513 14.688C22.1113 14.4 22.1913 14.0853 22.1913 13.744C22.1913 13.1893 21.9887 12.7733 21.5833 12.496C21.1887 12.208 20.6767 12.064 20.0473 12.064C19.578 12.064 19.1193 12.1387 18.6713 12.288C18.234 12.4373 17.85 12.624 17.5193 12.848L16.7193 11.12C17.21 10.7787 17.77 10.5067 18.3993 10.304C19.0393 10.1013 19.722 10 20.4473 10C21.738 10 22.7727 10.2827 23.5513 10.848C24.33 11.4133 24.7193 12.2187 24.7193 13.264C24.7193 14.032 24.4953 14.7307 24.0473 15.36C23.5993 15.9787 22.9113 16.672 21.9833 17.44L19.6633 19.36Z" fill="#0E141B"/>
</svg>
