<svg width="64" height="64" viewBox="0 0 64 64" fill="none" xmlns="http://www.w3.org/2000/svg">
<rect y="9.02129" width="45.9574" height="45.9574" rx="2.55319" fill="white"/>
<path fill-rule="evenodd" clip-rule="evenodd" d="M6.38303 15.4043V48.5958H39.5745V15.4043H6.38303ZM5.10643 12.8511C4.40139 12.8511 3.82983 13.4226 3.82983 14.1277V49.8723C3.82983 50.5774 4.40139 51.1489 5.10643 51.1489H40.8511C41.5562 51.1489 42.1277 50.5774 42.1277 49.8723V14.1277C42.1277 13.4226 41.5562 12.8511 40.8511 12.8511H5.10643Z" fill="#DCDEDF"/>
<mask id="path-3-outside-1_1967:16812" maskUnits="userSpaceOnUse" x="48.0638" y="18.6596" width="16" height="27" fill="black">
<rect fill="white" x="48.0638" y="18.6596" width="16" height="27"/>
<path d="M51.0638 24.3404L60 32L51.0638 39.6596L51.0638 24.3404Z"/>
</mask>
<path d="M51.0638 24.3404L60 32L51.0638 39.6596L51.0638 24.3404Z" fill="black"/>
<path d="M51.0638 24.3404L52.7254 22.4019L48.5107 18.7892L48.5107 24.3404L51.0638 24.3404ZM60 32L61.6616 33.9385L63.9232 32L61.6616 30.0615L60 32ZM51.0638 39.6596L48.5107 39.6596L48.5107 45.2108L52.7254 41.5981L51.0638 39.6596ZM61.6616 30.0615L52.7254 22.4019L49.4022 26.279L58.3384 33.9385L61.6616 30.0615ZM52.7254 41.5981L61.6616 33.9385L58.3384 30.0615L49.4022 37.721L52.7254 41.5981ZM48.5107 24.3404L48.5107 39.6596L53.617 39.6596L53.617 24.3404L48.5107 24.3404Z" fill="white" mask="url(#path-3-outside-1_1967:16812)"/>
<path d="M27.7854 38.3829H19.028V25.8723H22.1199V35.5948H27.7854V38.3829Z" fill="black"/>
</svg>
