<svg width="64" height="64" viewBox="0 0 64 64" fill="none" xmlns="http://www.w3.org/2000/svg">
<g clip-path="url(#clip0_1967:16868)">
<path fill-rule="evenodd" clip-rule="evenodd" d="M9.66828 7C8.13416 7 6.8905 8.24365 6.8905 9.77778V54.2222C6.8905 55.7563 8.13416 57 9.66828 57H54.1127C55.6468 57 56.8905 55.7563 56.8905 54.2222V9.77778C56.8905 8.24365 55.6468 7 54.1127 7H9.66828Z" fill="white"/>
<path fill-rule="evenodd" clip-rule="evenodd" d="M13.8 13.8V50.2H50.2V13.8H13.8ZM12.4 11C11.6268 11 11 11.6268 11 12.4V51.6C11 52.3732 11.6268 53 12.4 53H51.6C52.3732 53 53 52.3732 53 51.6V12.4C53 11.6268 52.3732 11 51.6 11H12.4Z" fill="#DCDEDF"/>
<path d="M3.64044 32.4098L11.1049 40.37L13.1741 38.1724L7.77891 32.4098L13.1741 26.6348L11.1049 24.4247L3.64044 32.4098Z" fill="black"/>
<path d="M15.9623 32.4098L21.3575 38.1599L19.2883 40.37L11.8239 32.4098L19.2883 24.4247L21.3575 26.6473L15.9623 32.4098Z" fill="black"/>
<path fill-rule="evenodd" clip-rule="evenodd" d="M11.101 44.251L15.2011 39.8964L19.2899 44.2568L25 38.1579L19.6048 32.4078L24.9934 26.6523L19.2923 20.5287L15.1984 24.9083L11.1034 20.5346L-3.62396e-05 32.4126L11.101 44.251ZM15.9624 32.4098L21.3576 38.1599L19.2884 40.37L11.8239 32.4098L19.2884 24.4246L21.3576 26.6472L15.9624 32.4098ZM3.64051 32.4098L11.105 40.37L13.1742 38.1724L7.77898 32.4098L13.1742 26.6347L11.105 24.4246L3.64051 32.4098Z" fill="white"/>
<path d="M37.1201 38.9444H27.5923V25.3333H30.9562V35.911H37.1201V38.9444Z" fill="black"/>
<path fill-rule="evenodd" clip-rule="evenodd" d="M52.899 44.251L48.7989 39.8964L44.7101 44.2568L39 38.1579L44.3952 32.4078L39.0066 26.6523L44.7077 20.5287L48.8016 24.9083L52.8966 20.5346L64 32.4126L52.899 44.251ZM48.0376 32.4098L42.6424 38.1599L44.7116 40.37L52.1761 32.4098L44.7116 24.4246L42.6424 26.6472L48.0376 32.4098ZM60.3595 32.4098L52.895 40.37L50.8258 38.1724L56.221 32.4098L50.8258 26.6347L52.895 24.4246L60.3595 32.4098Z" fill="white"/>
<path d="M60.3596 32.4098L52.8951 40.37L50.8259 38.1724L56.2211 32.4098L50.8259 26.6348L52.8951 24.4247L60.3596 32.4098Z" fill="black"/>
<path d="M48.0377 32.4098L42.6425 38.1599L44.7117 40.37L52.1761 32.4098L44.7117 24.4247L42.6425 26.6473L48.0377 32.4098Z" fill="black"/>
</g>
<defs>
<clipPath id="clip0_1967:16868">
<rect width="64" height="64" fill="white"/>
</clipPath>
</defs>
</svg>
