<svg width="64" height="64" viewBox="0 0 64 64" fill="none" xmlns="http://www.w3.org/2000/svg">
<g clip-path="url(#clip0_1967:16585)">
<path opacity="0.5" fill-rule="evenodd" clip-rule="evenodd" d="M13.3333 60.1111C5.96954 60.1111 0 52.1517 0 42.3333V6.77778C0 4.81411 1.19391 3.22223 2.66667 3.22223H61.3333C62.8061 3.22223 64 4.81411 64 6.77778V56.5556C64 58.5192 62.8061 60.1111 61.3333 60.1111H13.3333ZM46.7558 36.8471H38.9407L42.226 34.2338C43.5866 33.1387 44.5905 32.1182 45.2376 31.1724C45.9013 30.2101 46.2331 29.1481 46.2331 27.9867C46.2331 26.2942 45.5943 25.0166 44.3167 24.1538C43.0391 23.2744 41.3549 22.8347 39.2642 22.8347C38.1359 22.8347 37.074 22.984 36.0785 23.2827C35.0995 23.5813 34.2118 23.9878 33.4154 24.5022L34.8091 27.688C35.3235 27.3727 35.9042 27.1238 36.5514 26.9413C37.1985 26.7422 37.8539 26.6427 38.5176 26.6427C39.397 26.6427 40.1188 26.8335 40.6829 27.2151C41.2637 27.5967 41.554 28.1609 41.554 28.9075C41.554 29.3887 41.4379 29.8284 41.2056 30.2267C40.9899 30.6249 40.6829 31.0148 40.2847 31.3964C39.8865 31.7781 39.2974 32.2924 38.5176 32.9395L33.49 37.0213V40.5555H46.7558V36.8471ZM17.7465 40.5555H29.942V36.6729H22.0522V23.1333H17.7465V40.5555Z" fill="white"/>
<path d="M63.9997 6.77778V56.5556C63.9997 57.4144 63.7714 58.2021 63.3912 58.8166L0.618164 4.50085C1.10733 3.71943 1.84331 3.22223 2.66639 3.22223H61.3331C62.8058 3.22223 63.9997 4.8141 63.9997 6.77778Z" fill="white"/>
<path d="M29.942 40.5557H17.7465V23.1335H22.0522V36.673H29.942V40.5557Z" fill="black"/>
<path d="M38.9407 36.8473H46.7558V40.5557H33.49V37.0215L38.5176 32.9397C39.2974 32.2926 39.8865 31.7782 40.2847 31.3966C40.6829 31.015 40.9899 30.625 41.2056 30.2268C41.4379 29.8286 41.554 29.3889 41.554 28.9077C41.554 28.161 41.2636 27.5969 40.6829 27.2153C40.1188 26.8336 39.397 26.6428 38.5176 26.6428C37.8539 26.6428 37.1985 26.7424 36.5514 26.9415C35.9042 27.124 35.3235 27.3729 34.8091 27.6881L33.4154 24.5024C34.2118 23.988 35.0995 23.5815 36.0785 23.2828C37.074 22.9841 38.1359 22.8348 39.2642 22.8348C41.3549 22.8348 43.0391 23.2745 44.3167 24.1539C45.5943 25.0167 46.2331 26.2944 46.2331 27.9868C46.2331 29.1483 45.9013 30.2102 45.2376 31.1726C44.5905 32.1184 43.5866 33.1388 42.226 34.2339L38.9407 36.8473Z" fill="black"/>
</g>
<defs>
<clipPath id="clip0_1967:16585">
<rect width="64" height="64" fill="white"/>
</clipPath>
</defs>
</svg>
