<svg width="64" height="64" viewBox="0 0 64 64" fill="none" xmlns="http://www.w3.org/2000/svg">
<rect x="9.02124" y="18.0426" width="45.9574" height="45.9574" rx="2.55319" fill="white"/>
<path fill-rule="evenodd" clip-rule="evenodd" d="M15.4041 24.4255V57.617H48.5956V24.4255H15.4041ZM14.1275 21.8723C13.4225 21.8723 12.851 22.4439 12.851 23.1489V58.8936C12.851 59.5987 13.4225 60.1702 14.1275 60.1702H49.8722C50.5773 60.1702 51.1488 59.5987 51.1488 58.8936V23.1489C51.1488 22.4439 50.5773 21.8723 49.8722 21.8723H14.1275Z" fill="#DCDEDF"/>
<mask id="path-3-outside-1_1967:16748" maskUnits="userSpaceOnUse" x="18.6595" y="-0.0638294" width="27" height="16" fill="black">
<rect fill="white" x="18.6595" y="-0.0638294" width="27" height="16"/>
<path d="M24.3404 12.9362L32 4L39.6595 12.9362L24.3404 12.9362Z"/>
</mask>
<path d="M24.3404 12.9362L32 4L39.6595 12.9362L24.3404 12.9362Z" fill="black"/>
<path d="M24.3404 12.9362L22.4019 11.2746L18.7892 15.4894L24.3404 15.4894L24.3404 12.9362ZM32 4L33.9385 2.33841L32 0.0767901L30.0614 2.33841L32 4ZM39.6595 12.9362L39.6595 15.4894L45.2107 15.4894L41.5981 11.2746L39.6595 12.9362ZM30.0614 2.33841L22.4019 11.2746L26.2789 14.5978L33.9385 5.6616L30.0614 2.33841ZM41.5981 11.2746L33.9385 2.33841L30.0614 5.6616L37.721 14.5978L41.5981 11.2746ZM24.3404 15.4894L39.6595 15.4894L39.6595 10.383L24.3404 10.383L24.3404 15.4894Z" fill="white" mask="url(#path-3-outside-1_1967:16748)"/>
<path d="M36.8066 47.4042H28.0492V34.8936H31.1411V44.6161H36.8066V47.4042Z" fill="black"/>
</svg>
