<svg width="64" height="64" viewBox="0 0 64 64" fill="none" xmlns="http://www.w3.org/2000/svg">
<rect x="9.02124" width="45.9574" height="45.9574" rx="2.55319" fill="white"/>
<path fill-rule="evenodd" clip-rule="evenodd" d="M15.4041 6.38298V39.5745H48.5956V6.38298H15.4041ZM14.1275 3.82979C13.4225 3.82979 12.851 4.40134 12.851 5.10638V40.8511C12.851 41.5561 13.4225 42.1277 14.1275 42.1277H49.8722C50.5773 42.1277 51.1488 41.5561 51.1488 40.8511V5.10638C51.1488 4.40134 50.5773 3.82979 49.8722 3.82979H14.1275Z" fill="#DCDEDF"/>
<mask id="path-3-outside-1_1967:16716" maskUnits="userSpaceOnUse" x="18.3405" y="48.0638" width="27" height="16" fill="black">
<rect fill="white" x="18.3405" y="48.0638" width="27" height="16"/>
<path d="M39.6596 51.0638L32 60L24.3405 51.0638H39.6596Z"/>
</mask>
<path d="M39.6596 51.0638L32 60L24.3405 51.0638H39.6596Z" fill="black"/>
<path d="M39.6596 51.0638L41.5981 52.7254L45.2108 48.5106H39.6596V51.0638ZM32 60L30.0615 61.6616L32 63.9232L33.9386 61.6616L32 60ZM24.3405 51.0638V48.5106H18.7893L22.4019 52.7254L24.3405 51.0638ZM33.9386 61.6616L41.5981 52.7254L37.7211 49.4022L30.0615 58.3384L33.9386 61.6616ZM22.4019 52.7254L30.0615 61.6616L33.9386 58.3384L26.279 49.4022L22.4019 52.7254ZM39.6596 48.5106H24.3405V53.617H39.6596V48.5106Z" fill="white" mask="url(#path-3-outside-1_1967:16716)"/>
<path d="M36.8066 29.3616H28.0492V16.851H31.1411V26.5736H36.8066V29.3616Z" fill="black"/>
</svg>
