<svg width="64" height="64" viewBox="0 0 64 64" fill="none" xmlns="http://www.w3.org/2000/svg">
<rect y="9.02127" width="45.9574" height="45.9574" rx="2.59574" fill="white"/>
<path fill-rule="evenodd" clip-rule="evenodd" d="M6.38303 15.4042V48.5957H39.5745V15.4042H6.38303ZM5.10643 12.851C4.40139 12.851 3.82983 13.4226 3.82983 14.1276V49.8723C3.82983 50.5774 4.40139 51.1489 5.10643 51.1489H40.8511C41.5562 51.1489 42.1277 50.5774 42.1277 49.8723V14.1276C42.1277 13.4226 41.5562 12.851 40.8511 12.851H5.10643Z" fill="#DCDEDF"/>
<path d="M28.7724 38.3829H25.3409L22.9639 34.4152H22.6958H21.2124V38.3829H18.1205V25.8723H22.9818C24.769 25.8723 26.0915 26.2237 26.9494 26.9267C27.8073 27.6297 28.2362 28.6186 28.2362 29.8935C28.2362 30.8586 28.0277 31.6688 27.6107 32.3242C27.2056 32.9676 26.6337 33.4561 25.895 33.7897L28.7724 38.3829ZM21.2124 28.5174V31.7701H22.8924C23.5239 31.7701 24.0184 31.6271 24.3758 31.3412C24.7452 31.0433 24.9298 30.6144 24.9298 30.0544C24.9298 29.542 24.763 29.1608 24.4294 28.9106C24.0958 28.6484 23.5656 28.5174 22.8388 28.5174H21.2124Z" fill="black"/>
<mask id="path-4-outside-1_1967:16800" maskUnits="userSpaceOnUse" x="48.0638" y="18.6595" width="16" height="27" fill="black">
<rect fill="white" x="48.0638" y="18.6595" width="16" height="27"/>
<path d="M51.0638 24.3404L60 32L51.0638 39.6595L51.0638 24.3404Z"/>
</mask>
<path d="M51.0638 24.3404L60 32L51.0638 39.6595L51.0638 24.3404Z" fill="black"/>
<path d="M51.0638 24.3404L52.7531 22.3696L48.4681 18.6967L48.4681 24.3404L51.0638 24.3404ZM60 32L61.6893 33.9708L63.9886 32L61.6893 30.0291L60 32ZM51.0638 39.6595L48.4681 39.6595L48.4681 45.3033L52.7531 41.6304L51.0638 39.6595ZM61.6893 30.0291L52.7531 22.3696L49.3746 26.3112L58.3107 33.9708L61.6893 30.0291ZM52.7531 41.6304L61.6893 33.9708L58.3107 30.0291L49.3746 37.6887L52.7531 41.6304ZM48.4681 24.3404L48.4681 39.6595L53.6596 39.6595L53.6596 24.3404L48.4681 24.3404Z" fill="white" mask="url(#path-4-outside-1_1967:16800)"/>
</svg>
