<svg width="32" height="32" viewBox="0 0 32 32" fill="none" xmlns="http://www.w3.org/2000/svg">
<path d="M1.52293 6.3938C1.66641 4.29547 3.41038 2.66667 5.51361 2.66667H26.4864C28.5896 2.66667 30.3336 4.29547 30.4771 6.3938L31.7078 24.3938C31.8659 26.705 30.0337 28.6667 27.7172 28.6667H4.28284C1.96629 28.6667 0.134134 26.705 0.292162 24.3938L1.52293 6.3938Z" fill="white"/>
<path d="M21.0238 21.3889H18.4158L16.1598 17.6129H15.8878H14.2238V21.3889H11.8718V10.1889H16.0638C17.5998 10.1889 18.7305 10.4982 19.4558 11.1169C20.1812 11.7249 20.5438 12.5782 20.5438 13.6769C20.5438 14.5409 20.3518 15.2609 19.9678 15.8369C19.5945 16.4129 19.0665 16.8502 18.3838 17.1489L21.0238 21.3889ZM14.2238 12.1889V15.5969H16.0638C16.6825 15.5969 17.1625 15.4422 17.5038 15.1329C17.8558 14.8129 18.0318 14.3756 18.0318 13.8209C18.0318 13.2769 17.8612 12.8716 17.5198 12.6049C17.1892 12.3276 16.6558 12.1889 15.9198 12.1889H14.2238Z" fill="#0E141B"/>
</svg>
