<svg width="64" height="64" viewBox="0 0 64 64" fill="none" xmlns="http://www.w3.org/2000/svg">
<g clip-path="url(#clip0_1967:16832)">
<path fill-rule="evenodd" clip-rule="evenodd" d="M9.66828 7C8.13416 7 6.8905 8.24365 6.8905 9.77778V54.2222C6.8905 55.7563 8.13416 57 9.66828 57H54.1127C55.6468 57 56.8905 55.7563 56.8905 54.2222V9.77778C56.8905 8.24365 55.6468 7 54.1127 7H9.66828Z" fill="white"/>
<path fill-rule="evenodd" clip-rule="evenodd" d="M13.8 13.8V50.2H50.2V13.8H13.8ZM12.4 11C11.6268 11 11 11.6268 11 12.4V51.6C11 52.3732 11.6268 53 12.4 53H51.6C52.3732 53 53 52.3732 53 51.6V12.4C53 11.6268 52.3732 11 51.6 11H12.4Z" fill="#DCDEDF"/>
<path d="M3.64044 32.4098L11.1049 40.37L13.1741 38.1724L7.77891 32.4098L13.1741 26.6348L11.1049 24.4247L3.64044 32.4098Z" fill="black"/>
<path d="M15.9623 32.4098L21.3575 38.1599L19.2883 40.37L11.8239 32.4098L19.2883 24.4247L21.3575 26.6473L15.9623 32.4098Z" fill="black"/>
<path fill-rule="evenodd" clip-rule="evenodd" d="M11.101 44.251L15.2011 39.8964L19.2899 44.2568L25 38.1579L19.6048 32.4078L24.9934 26.6523L19.2923 20.5287L15.1984 24.9083L11.1034 20.5346L-3.62396e-05 32.4126L11.101 44.251ZM15.9624 32.4098L21.3576 38.1599L19.2884 40.37L11.8239 32.4098L19.2884 24.4246L21.3576 26.6472L15.9624 32.4098ZM3.64051 32.4098L11.105 40.37L13.1742 38.1724L7.77898 32.4098L13.1742 26.6347L11.105 24.4246L3.64051 32.4098Z" fill="white"/>
<path fill-rule="evenodd" clip-rule="evenodd" d="M52.899 44.251L48.7989 39.8964L44.7101 44.2568L39 38.1579L44.3952 32.4078L39.0066 26.6523L44.7077 20.5287L48.8016 24.9083L52.8966 20.5346L64 32.4126L52.899 44.251ZM48.0376 32.4098L42.6424 38.1599L44.7116 40.37L52.1761 32.4098L44.7116 24.4246L42.6424 26.6472L48.0376 32.4098ZM60.3595 32.4098L52.895 40.37L50.8258 38.1724L56.221 32.4098L50.8258 26.6347L52.895 24.4246L60.3595 32.4098Z" fill="white"/>
<path d="M60.3596 32.4098L52.8951 40.37L50.8259 38.1724L56.2211 32.4098L50.8259 26.6348L52.8951 24.4247L60.3596 32.4098Z" fill="black"/>
<path d="M48.0377 32.4098L42.6425 38.1599L44.7117 40.37L52.1761 32.4098L44.7117 24.4247L42.6425 26.6473L48.0377 32.4098Z" fill="black"/>
<path d="M37.6519 38.5106H34.2204L31.8434 34.543H31.5753H30.0919V38.5106H27V26H31.8613C33.6485 26 34.9711 26.3515 35.8289 27.0545C36.6868 27.7574 37.1157 28.7464 37.1157 30.0213C37.1157 30.9864 36.9072 31.7966 36.4902 32.4519C36.0851 33.0953 35.5132 33.5838 34.7745 33.9174L37.6519 38.5106ZM30.0919 28.6451V31.8979H31.7719C32.4034 31.8979 32.8979 31.7549 33.2553 31.4689C33.6247 31.1711 33.8094 30.7421 33.8094 30.1821C33.8094 29.6698 33.6426 29.2885 33.3089 29.0383C32.9753 28.7762 32.4451 28.6451 31.7183 28.6451H30.0919Z" fill="black"/>
</g>
<defs>
<clipPath id="clip0_1967:16832">
<rect width="64" height="64" fill="white"/>
</clipPath>
</defs>
</svg>
