<svg width="32" height="32" viewBox="0 0 32 32" fill="none" xmlns="http://www.w3.org/2000/svg">
<path d="M32 10.8889C32 5.97969 29.0152 2 25.3333 2H1.33333C0.596952 2 0 2.79594 0 3.77778V28.6667C0 29.6485 0.596952 30.4444 1.33333 30.4444H30.6667C31.403 30.4444 32 29.6485 32 28.6667V10.8889Z" fill="white"/>
<path d="M16.669 22.4445H14.061L11.805 18.6685H11.533H9.86897V22.4445H7.51697V11.2445H11.709C13.245 11.2445 14.3756 11.5538 15.101 12.1725C15.8263 12.7805 16.189 13.6338 16.189 14.7325C16.189 15.5965 15.997 16.3165 15.613 16.8925C15.2396 17.4685 14.7116 17.9058 14.029 18.2045L16.669 22.4445ZM9.86897 13.2445V16.6525H11.709C12.3276 16.6525 12.8076 16.4978 13.149 16.1885C13.501 15.8685 13.677 15.4311 13.677 14.8765C13.677 14.3325 13.5063 13.9271 13.165 13.6605C12.8343 13.3831 12.301 13.2445 11.565 13.2445H9.86897Z" fill="#0E141B"/>
<path d="M23.7057 11.2445V20.4125H25.8337V22.4445H18.6817V20.4125H21.3217V13.8365L18.9697 14.8285L18.2177 13.0685L21.8977 11.2445H23.7057Z" fill="#0E141B"/>
</svg>
