<svg width="32" height="32" viewBox="0 0 32 32" fill="none" xmlns="http://www.w3.org/2000/svg">
<path d="M21.3333 7.33333H10.6666L16 1.99999L21.3333 7.33333Z" fill="white"/>
<path d="M4.83105 13.7307C4.97271 11.6309 6.71734 9.99995 8.82198 9.99995H23.1281C25.2327 9.99995 26.9774 11.6309 27.119 13.7307L27.9409 25.9136C28.0967 28.2234 26.2651 30.1828 23.95 30.1828H8.00013C5.68502 30.1828 3.85337 28.2234 4.00919 25.9136L4.83105 13.7307Z" fill="white"/>
<path d="M20.0311 24.3978H17.9256L16.1042 21.3492H15.8846H14.5411V24.3978H12.6422V15.3554H16.0266C17.2667 15.3554 18.1796 15.6052 18.7652 16.1047C19.3508 16.5955 19.6436 17.2845 19.6436 18.1715C19.6436 18.869 19.4886 19.4503 19.1786 19.9154C18.8772 20.3804 18.4509 20.7335 17.8997 20.9746L20.0311 24.3978ZM14.5411 16.9701V19.7216H16.0266C16.5261 19.7216 16.9137 19.5967 17.1892 19.347C17.4734 19.0886 17.6155 18.7356 17.6155 18.2877C17.6155 17.8485 17.4777 17.5213 17.2022 17.306C16.9352 17.0821 16.5046 16.9701 15.9104 16.9701H14.5411Z" fill="#0E141B"/>
</svg>
