<svg width="64" height="64" viewBox="0 0 64 64" fill="none" xmlns="http://www.w3.org/2000/svg">
<g clip-path="url(#clip0_1967:16567)">
<path d="M64 42.3333C64 52.1517 58.0305 60.1111 50.6667 60.1111H2.66667C1.19391 60.1111 0 58.5192 0 56.5556V6.77778C0 4.81411 1.19391 3.22223 2.66667 3.22223H61.3333C62.8061 3.22223 64 4.81411 64 6.77778V42.3333Z" fill="white"/>
<path d="M31.3164 40.5555H26.5378L23.2276 35.0302H22.8542H20.7884V40.5555H16.4827V23.1333H23.2524C25.7413 23.1333 27.5831 23.6228 28.7778 24.6017C29.9724 25.5807 30.5698 26.9579 30.5698 28.7333C30.5698 30.0773 30.2794 31.2056 29.6987 32.1182C29.1345 33.0142 28.3381 33.6945 27.3093 34.1591L31.3164 40.5555ZM20.7884 26.8168V31.3466H23.128C24.0074 31.3466 24.696 31.1475 25.1938 30.7493C25.7081 30.3345 25.9653 29.7371 25.9653 28.9573C25.9653 28.2438 25.733 27.7128 25.2684 27.3644C24.8039 26.9994 24.0655 26.8168 23.0533 26.8168H20.7884Z" fill="black"/>
<path d="M40.2047 36.8471H48.0198V40.5555H34.754V37.0213L39.7816 32.9395C40.5614 32.2924 41.1504 31.778 41.5487 31.3964C41.9469 31.0148 42.2539 30.6248 42.4696 30.2266C42.7019 29.8284 42.818 29.3887 42.818 28.9075C42.818 28.1608 42.5276 27.5967 41.9469 27.2151C41.3827 26.8334 40.661 26.6426 39.7816 26.6426C39.1179 26.6426 38.4624 26.7422 37.8153 26.9413C37.1682 27.1238 36.5875 27.3727 36.0731 27.688L34.6793 24.5022C35.4758 23.9878 36.3635 23.5813 37.3424 23.2826C38.338 22.984 39.3999 22.8346 40.5282 22.8346C42.6189 22.8346 44.303 23.2743 45.5807 24.1537C46.8583 25.0166 47.4971 26.2942 47.4971 27.9866C47.4971 29.1481 47.1653 30.21 46.5016 31.1724C45.8544 32.1182 44.8506 33.1386 43.49 34.2337L40.2047 36.8471Z" fill="black"/>
</g>
<defs>
<clipPath id="clip0_1967:16567">
<rect width="64" height="64" fill="white"/>
</clipPath>
</defs>
</svg>
