<svg width="64" height="64" viewBox="0 0 64 64" fill="none" xmlns="http://www.w3.org/2000/svg">
<path d="M3 5.7619C3 4.23655 4.23655 3 5.7619 3H58.2381C59.7635 3 61 4.23655 61 5.7619V58.2381C61 59.7635 59.7635 61 58.2381 61H5.7619C4.23655 61 3 59.7635 3 58.2381V5.7619Z" fill="white"/>
<path d="M30.8657 42.6333H26.1387L22.0497 35.7893H21.5567H18.5407V42.6333H14.2777V22.3333H21.8757C24.6597 22.3333 26.709 22.8939 28.0237 24.0153C29.3384 25.1173 29.9957 26.6639 29.9957 28.6553C29.9957 30.2213 29.6477 31.5263 28.9517 32.5703C28.275 33.6143 27.318 34.4069 26.0807 34.9483L30.8657 42.6333ZM18.5407 25.9583V32.1353H21.8757C22.997 32.1353 23.867 31.8549 24.4857 31.2943C25.1237 30.7143 25.4427 29.9216 25.4427 28.9163C25.4427 27.9303 25.1334 27.1956 24.5147 26.7123C23.9154 26.2096 22.9487 25.9583 21.6147 25.9583H18.5407Z" fill="#0E141B"/>
<path d="M48.0277 22.3333V25.9583H39.1537V30.7143C39.7144 30.3663 40.3427 30.1149 41.0387 29.9603C41.7541 29.7863 42.4694 29.6993 43.1847 29.6993C45.0021 29.6993 46.4521 30.2213 47.5347 31.2653C48.6367 32.2899 49.1877 33.7883 49.1877 35.7603C49.1877 37.2296 48.8397 38.5153 48.1437 39.6173C47.4671 40.7193 46.4714 41.5796 45.1567 42.1983C43.8614 42.7976 42.3244 43.0973 40.5457 43.0973C39.2311 43.0973 38.0034 42.9233 36.8627 42.5753C35.7221 42.2273 34.7747 41.7343 34.0207 41.0963L35.5287 37.8483C37.0174 38.8536 38.6704 39.3563 40.4877 39.3563C41.8604 39.3563 42.9237 39.0566 43.6777 38.4573C44.4317 37.858 44.8087 36.9976 44.8087 35.8763C44.8087 34.8903 44.5187 34.1363 43.9387 33.6143C43.3781 33.0923 42.6047 32.8313 41.6187 32.8313C40.8841 32.8313 40.2074 32.9569 39.5887 33.2083C38.9701 33.4403 38.3611 33.7979 37.7617 34.2813L35.0647 32.8023V22.3333H48.0277Z" fill="#0E141B"/>
</svg>
