<svg width="32" height="32" viewBox="0 0 32 32" fill="none" xmlns="http://www.w3.org/2000/svg">
<path d="M2.31625 10.8419C2.45791 8.74202 4.20254 7.11111 6.30718 7.11111H25.6929C27.7975 7.11111 29.5421 8.74202 29.6838 10.8419L30.8231 27.7308C30.979 30.0406 29.1473 32 26.8322 32H5.16785C2.85274 32 1.0211 30.0406 1.17692 27.7308L2.31625 10.8419Z" fill="white"/>
<path d="M21.0238 24.9445H18.4158L16.1598 21.1685H15.8878H14.2238V24.9445H11.8718V13.7445H16.0638C17.5998 13.7445 18.7305 14.0538 19.4558 14.6725C20.1812 15.2805 20.5438 16.1338 20.5438 17.2325C20.5438 18.0965 20.3518 18.8165 19.9678 19.3925C19.5945 19.9685 19.0665 20.4058 18.3838 20.7045L21.0238 24.9445ZM14.2238 15.7445V19.1525H16.0638C16.6825 19.1525 17.1625 18.9978 17.5038 18.6885C17.8558 18.3685 18.0318 17.9311 18.0318 17.3765C18.0318 16.8325 17.8612 16.4271 17.5198 16.1605C17.1892 15.8831 16.6558 15.7445 15.9198 15.7445H14.2238Z" fill="#0E141B"/>
<path d="M21.3333 0H10.6666L16 5.33333L21.3333 0Z" fill="white"/>
</svg>
