<svg width="32" height="32" viewBox="0 0 32 32" fill="none" xmlns="http://www.w3.org/2000/svg">
<path d="M25.333 30.444C29.015 30.444 32 27.503 32 22.594C32 22.594 31.444 18.371 31.25 16.625C31.084 15.132 30.75 13.156 31.156 8.687C31.268 7.458 32 3.778 32 3.778C32 2.796 31.403 2 30.667 2H1.334C0.598 2 0 2.796 0 3.778V28.666C0 29.648 0.598 30.444 1.334 30.444H25.333Z" fill="white"/>
<path d="M15.352 22.4444H12.744L10.488 18.6684H10.216H8.55195V22.4444H6.19995V11.2444H10.392C11.928 11.2444 13.0586 11.5537 13.784 12.1724C14.5093 12.7804 14.872 13.6337 14.872 14.7324C14.872 15.5964 14.68 16.3164 14.296 16.8924C13.9226 17.4684 13.3946 17.9057 12.712 18.2044L15.352 22.4444ZM8.55195 13.2444V16.6524H10.392C11.0106 16.6524 11.4906 16.4977 11.832 16.1884C12.184 15.8684 12.36 15.431 12.36 14.8764C12.36 14.3324 12.1893 13.927 11.848 13.6604C11.5173 13.383 10.984 13.2444 10.248 13.2444H8.55195Z" fill="#0E141B"/>
<path d="M19.9726 20.4124H25.3646V22.4444H16.9966V20.4924L20.2286 17.8044L20.5006 17.5644C20.9913 17.1484 21.3646 16.8124 21.6206 16.5564C21.8873 16.3004 22.1006 16.0284 22.2606 15.7404C22.4206 15.4524 22.5006 15.1377 22.5006 14.7964C22.5006 14.2417 22.298 13.8257 21.8926 13.5484C21.498 13.2604 20.986 13.1164 20.3566 13.1164C19.8873 13.1164 19.4286 13.191 18.9806 13.3404C18.5433 13.4897 18.1593 13.6764 17.8286 13.9004L17.0286 12.1724C17.5193 11.831 18.0793 11.559 18.7086 11.3564C19.3486 11.1537 20.0313 11.0524 20.7566 11.0524C22.0473 11.0524 23.082 11.335 23.8606 11.9004C24.6393 12.4657 25.0286 13.271 25.0286 14.3164C25.0286 15.0844 24.8046 15.783 24.3566 16.4124C23.9086 17.031 23.2206 17.7244 22.2926 18.4924L19.9726 20.4124Z" fill="#0E141B"/>
</svg>
