<svg width="32" height="32" viewBox="0 0 32 32" fill="none" xmlns="http://www.w3.org/2000/svg">
<g clip-path="url(#clip0_2700_28763)">
<path d="M8.84228 9.39862C8.98394 7.29875 10.7286 5.66785 12.8332 5.66785H27.1393C29.244 5.66785 30.9886 7.29875 31.1303 9.39862L31.9521 21.5814C32.108 23.8913 30.2763 25.8507 27.9612 25.8507H12.0114C9.69625 25.8507 7.8646 23.8913 8.02043 21.5814L8.84228 9.39862Z" fill="white"/>
<path d="M24.0311 20.3979H21.9256L20.1042 17.3493H19.8846H18.5411V20.3979H16.6422V11.3555H20.0266C21.2667 11.3555 22.1796 11.6052 22.7652 12.1047C23.3508 12.5956 23.6436 13.2845 23.6436 14.1715C23.6436 14.8691 23.4886 15.4504 23.1786 15.9154C22.8772 16.3805 22.4509 16.7335 21.8997 16.9747L24.0311 20.3979ZM18.5411 12.9702V15.7217H20.0266C20.5261 15.7217 20.9137 15.5968 21.1892 15.347C21.4734 15.0887 21.6155 14.7356 21.6155 14.2878C21.6155 13.8486 21.4777 13.5213 21.2022 13.306C20.9352 13.0821 20.5046 12.9702 19.9104 12.9702H18.5411Z" fill="#0E141B"/>
<path d="M5.33337 10.3333L5.33337 21L4.05312e-05 15.6667L5.33337 10.3333Z" fill="white"/>
</g>
<defs>
<clipPath id="clip0_2700_28763">
<rect width="32" height="32" fill="white"/>
</clipPath>
</defs>
</svg>
