<svg width="32" height="32" viewBox="0 0 32 32" fill="none" xmlns="http://www.w3.org/2000/svg">
<g clip-path="url(#clip0_2700:28706)">
<path opacity="0.5" d="M32 21.5556C32 26.4648 29.0152 30.4445 25.3333 30.4445H1.33333C0.596954 30.4445 0 29.6485 0 28.6667V3.77781C0 2.79597 0.596954 2.00003 1.33333 2.00003H30.6667C31.403 2.00003 32 2.79597 32 3.77781V21.5556Z" fill="white"/>
<path d="M0 3.77777V28.6667C0 29.0961 0.114182 29.4899 0.30427 29.7972L31.6908 2.63931C31.4462 2.2486 31.0782 2 30.6667 2H1.33333C0.596952 2 0 2.79594 0 3.77777Z" fill="white"/>
<path d="M15.652 21.392H13.044L10.788 17.616H10.516H8.852V21.392H6.5V10.192H10.692C12.228 10.192 13.3587 10.5013 14.084 11.12C14.8093 11.728 15.172 12.5813 15.172 13.68C15.172 14.544 14.98 15.264 14.596 15.84C14.2227 16.416 13.6947 16.8533 13.012 17.152L15.652 21.392ZM8.852 12.192V15.6H10.692C11.3107 15.6 11.7907 15.4453 12.132 15.136C12.484 14.816 12.66 14.3787 12.66 13.824C12.66 13.28 12.4893 12.8747 12.148 12.608C11.8173 12.3307 11.284 12.192 10.548 12.192H8.852Z" fill="#0E141B"/>
<path d="M20.2727 19.36H25.6647V21.392H17.2967V19.44L20.5287 16.752L20.8007 16.512C21.2914 16.096 21.6647 15.76 21.9207 15.504C22.1874 15.248 22.4007 14.976 22.5607 14.688C22.7207 14.4 22.8007 14.0853 22.8007 13.744C22.8007 13.1893 22.598 12.7733 22.1927 12.496C21.798 12.208 21.286 12.064 20.6567 12.064C20.1874 12.064 19.7287 12.1387 19.2807 12.288C18.8434 12.4373 18.4594 12.624 18.1287 12.848L17.3287 11.12C17.8194 10.7787 18.3794 10.5067 19.0087 10.304C19.6487 10.1013 20.3314 10 21.0567 10C22.3474 10 23.382 10.2827 24.1607 10.848C24.9394 11.4133 25.3287 12.2187 25.3287 13.264C25.3287 14.032 25.1047 14.7307 24.6567 15.36C24.2087 15.9787 23.5207 16.672 22.5927 17.44L20.2727 19.36Z" fill="#0E141B"/>
</g>
<defs>
<clipPath id="clip0_2700:28706">
<rect width="32" height="32" fill="white"/>
</clipPath>
</defs>
</svg>
