<svg width="64" height="64" viewBox="0 0 64 64" fill="none" xmlns="http://www.w3.org/2000/svg">
<g clip-path="url(#clip0_1967:16611)">
<path opacity="0.5" fill-rule="evenodd" clip-rule="evenodd" d="M50.6667 60.1111C58.0305 60.1111 64 52.1517 64 42.3333V6.77778C64 4.81411 62.8061 3.22223 61.3333 3.22223H2.66667C1.19391 3.22223 0 4.81411 0 6.77778V56.5556C0 58.5192 1.19391 60.1111 2.66667 60.1111H50.6667ZM48.0196 36.8471H40.2045L43.4898 34.2338C44.8504 33.1387 45.8543 32.1182 46.5014 31.1724C47.1651 30.2101 47.497 29.1481 47.497 27.9867C47.497 26.2942 46.8581 25.0166 45.5805 24.1538C44.3029 23.2744 42.6187 22.8347 40.5281 22.8347C39.3998 22.8347 38.3378 22.984 37.3423 23.2827C36.3633 23.5813 35.4756 23.9878 34.6792 24.5022L36.073 27.688C36.5873 27.3727 37.1681 27.1238 37.8152 26.9413C38.4623 26.7422 39.1177 26.6427 39.7814 26.6427C40.6608 26.6427 41.3826 26.8335 41.9467 27.2151C42.5275 27.5967 42.8178 28.1609 42.8178 28.9075C42.8178 29.3887 42.7017 29.8284 42.4694 30.2267C42.2537 30.6249 41.9467 31.0148 41.5485 31.3964C41.1503 31.7781 40.5613 32.2924 39.7814 32.9395L34.7538 37.0213V40.5555H48.0196V36.8471ZM26.5376 40.5555H31.3163L27.3092 34.1591C28.3379 33.6945 29.1344 33.0142 29.6985 32.1182C30.2793 31.2056 30.5696 30.0773 30.5696 28.7333C30.5696 26.9579 29.9723 25.5807 28.7776 24.6018C27.583 23.6228 25.7412 23.1333 23.2523 23.1333H16.4825V40.5555H20.7883V35.0302H22.8541H23.2274L26.5376 40.5555ZM20.7883 31.3467V26.8169H23.0532C24.0653 26.8169 24.8037 26.9994 25.2683 27.3644C25.7329 27.7129 25.9652 28.2438 25.9652 28.9573C25.9652 29.7372 25.708 30.3345 25.1936 30.7493C24.6959 31.1475 24.0073 31.3467 23.1278 31.3467H20.7883Z" fill="white"/>
<path d="M0 6.77778V56.5556C0 57.4144 0.228363 58.2021 0.60854 58.8166L63.3816 4.50085C62.8924 3.71943 62.1564 3.22223 61.3333 3.22223H2.66666C1.1939 3.22223 0 4.8141 0 6.77778Z" fill="white"/>
<path d="M31.3161 40.5557H26.5374L23.2272 35.0304H22.8539H20.7881V40.5557H16.4823V23.1335H23.2521C25.741 23.1335 27.5827 23.623 28.7774 24.6019C29.9721 25.5809 30.5694 26.9581 30.5694 28.7335C30.5694 30.0775 30.279 31.2058 29.6983 32.1184C29.1342 33.0144 28.3377 33.6947 27.309 34.1593L31.3161 40.5557ZM20.7881 26.817V31.3468H23.1276C24.007 31.3468 24.6956 31.1477 25.1934 30.7495C25.7078 30.3347 25.965 29.7373 25.965 28.9575C25.965 28.244 25.7327 27.713 25.2681 27.3646C24.8035 26.9995 24.0651 26.817 23.053 26.817H20.7881Z" fill="black"/>
<path d="M40.2043 36.8473H48.0194V40.5557H34.7536V37.0215L39.7812 32.9397C40.561 32.2926 41.1501 31.7782 41.5483 31.3966C41.9465 31.015 42.2535 30.625 42.4692 30.2268C42.7015 29.8286 42.8176 29.3889 42.8176 28.9077C42.8176 28.161 42.5273 27.5969 41.9465 27.2153C41.3824 26.8336 40.6606 26.6428 39.7812 26.6428C39.1175 26.6428 38.4621 26.7424 37.815 26.9415C37.1679 27.124 36.5871 27.3729 36.0727 27.6881L34.679 24.5024C35.4754 23.988 36.3631 23.5815 37.3421 23.2828C38.3376 22.9841 39.3996 22.8348 40.5279 22.8348C42.6185 22.8348 44.3027 23.2745 45.5803 24.1539C46.8579 25.0167 47.4967 26.2944 47.4967 27.9868C47.4967 29.1483 47.1649 30.2102 46.5012 31.1726C45.8541 32.1184 44.8502 33.1388 43.4896 34.2339L40.2043 36.8473Z" fill="black"/>
</g>
<defs>
<clipPath id="clip0_1967:16611">
<rect width="64" height="64" fill="white"/>
</clipPath>
</defs>
</svg>
