<svg width="64" height="64" viewBox="0 0 64 64" fill="none" xmlns="http://www.w3.org/2000/svg">
<g clip-path="url(#clip0_1967:16553)">
<path d="M64 21C64 11.1816 58.0305 3.22223 50.6667 3.22223H2.66667C1.19391 3.22223 0 4.81411 0 6.77778V56.5556C0 58.5192 1.19391 60.1111 2.66667 60.1111H61.3333C62.8061 60.1111 64 58.5192 64 56.5556V21Z" fill="white"/>
<path d="M31.8146 40.5555H27.0359L23.7257 35.0302H23.3524H21.2866V40.5555H16.9808V23.1333H23.7506C26.2395 23.1333 28.0813 23.6228 29.2759 24.6017C30.4706 25.5807 31.0679 26.9579 31.0679 28.7333C31.0679 30.0773 30.7776 31.2056 30.1968 32.1182C29.6327 33.0142 28.8362 33.6945 27.8075 34.1591L31.8146 40.5555ZM21.2866 26.8168V31.3466H23.6262C24.5056 31.3466 25.1942 31.1475 25.6919 30.7493C26.2063 30.3345 26.4635 29.7371 26.4635 28.9573C26.4635 28.2438 26.2312 27.7128 25.7666 27.3644C25.302 26.9993 24.5637 26.8168 23.5515 26.8168H21.2866Z" fill="black"/>
<path d="M44.3864 23.1333V36.8719H47.6468V40.5555H35.9739V36.8719H40.0059V27.887L36.5464 29.2559L35.1775 26.0453L41.0513 23.1333H44.3864Z" fill="black"/>
</g>
<defs>
<clipPath id="clip0_1967:16553">
<rect width="64" height="64" fill="white"/>
</clipPath>
</defs>
</svg>
