<svg width="64" height="64" viewBox="0 0 64 64" fill="none" xmlns="http://www.w3.org/2000/svg">
<rect x="5.90002" y="5.89999" width="52.2" height="52.2" rx="2.9" fill="white"/>
<path fill-rule="evenodd" clip-rule="evenodd" d="M13.15 13.15V50.85H50.85V13.15H13.15ZM11.7 10.25C10.8992 10.25 10.25 10.8992 10.25 11.7V52.3C10.25 53.1008 10.8992 53.75 11.7 53.75H52.3C53.1008 53.75 53.75 53.1008 53.75 52.3V11.7C53.75 10.8992 53.1008 10.25 52.3 10.25H11.7Z" fill="#DCDEDF"/>
<path d="M38.5806 39.2499H34.683L31.9831 34.7433H31.6786H29.9937V39.2499H26.4818V25.0399H32.0034C34.0334 25.0399 35.5356 25.4392 36.51 26.2376C37.4844 27.0361 37.9716 28.1594 37.9716 29.6074C37.9716 30.7036 37.7348 31.6239 37.2611 32.3682C36.801 33.099 36.1514 33.6539 35.3123 34.0328L38.5806 39.2499ZM29.9937 28.0443V31.7389H31.9019C32.6192 31.7389 33.1808 31.5765 33.5868 31.2517C34.0063 30.9134 34.2161 30.4262 34.2161 29.7901C34.2161 29.2082 34.0266 28.7751 33.6477 28.4909C33.2688 28.1932 32.6665 28.0443 31.841 28.0443H29.9937Z" fill="black"/>
<rect x="4.45" y="4.45" width="55.1" height="55.1" rx="4.35" stroke="black" stroke-width="2.9"/>
</svg>
