<svg width="32" height="32" viewBox="0 0 32 32" fill="none" xmlns="http://www.w3.org/2000/svg">
<path d="M32 21.5556C32 26.4648 29.0152 30.4445 25.3333 30.4445H1.33333C0.596953 30.4445 -9.53674e-07 29.6485 -9.53674e-07 28.6667V3.77779C-9.53674e-07 2.79595 0.596953 2.00001 1.33333 2.00001H30.6667C31.403 2.00001 32 2.79595 32 3.77779V21.5556Z" fill="white"/>
<path d="M15.747 22.4444H13.139L10.883 18.6684H10.611H8.94697V22.4444H6.59497V11.2444H10.787C12.323 11.2444 13.4536 11.5537 14.179 12.1724C14.9043 12.7804 15.267 13.6337 15.267 14.7324C15.267 15.5964 15.075 16.3164 14.691 16.8924C14.3176 17.4684 13.7896 17.9057 13.107 18.2044L15.747 22.4444ZM8.94697 13.2444V16.6524H10.787C11.4056 16.6524 11.8856 16.4977 12.227 16.1884C12.579 15.8684 12.755 15.4311 12.755 14.8764C12.755 14.3324 12.5843 13.9271 12.243 13.6604C11.9123 13.3831 11.379 13.2444 10.643 13.2444H8.94697Z" fill="#0E141B"/>
<path d="M20.3677 20.4124H25.7597V22.4444H17.3917V20.4924L20.6237 17.8044L20.8957 17.5644C21.3863 17.1484 21.7597 16.8124 22.0157 16.5564C22.2823 16.3004 22.4957 16.0284 22.6557 15.7404C22.8157 15.4524 22.8957 15.1377 22.8957 14.7964C22.8957 14.2417 22.693 13.8257 22.2877 13.5484C21.893 13.2604 21.381 13.1164 20.7517 13.1164C20.2823 13.1164 19.8237 13.1911 19.3757 13.3404C18.9383 13.4897 18.5543 13.6764 18.2237 13.9004L17.4237 12.1724C17.9143 11.8311 18.4743 11.5591 19.1037 11.3564C19.7437 11.1537 20.4263 11.0524 21.1517 11.0524C22.4423 11.0524 23.477 11.3351 24.2557 11.9004C25.0343 12.4657 25.4237 13.2711 25.4237 14.3164C25.4237 15.0844 25.1997 15.7831 24.7517 16.4124C24.3037 17.0311 23.6157 17.7244 22.6877 18.4924L20.3677 20.4124Z" fill="#0E141B"/>
</svg>
