<svg width="64" height="64" viewBox="0 0 64 64" fill="none" xmlns="http://www.w3.org/2000/svg">
<rect x="4.69995" y="9.39999" width="54.6" height="54.6" rx="3.03333" fill="white"/>
<path fill-rule="evenodd" clip-rule="evenodd" d="M12.2833 16.9833V56.4166H51.7167V16.9833H12.2833ZM10.7667 13.95C9.92903 13.95 9.25 14.629 9.25 15.4666V57.9333C9.25 58.7709 9.92904 59.45 10.7667 59.45H53.2333C54.071 59.45 54.75 58.7709 54.75 57.9333V15.4666C54.75 14.629 54.071 13.95 53.2333 13.95H10.7667Z" fill="#DCDEDF"/>
<path d="M19.8667 1.81668H16.4893L18.7331 4.34096L30.8665 17.991L32 19.2662L33.1336 17.991L45.2668 4.34096L47.5106 1.81668H44.1333H19.8667Z" fill="black" stroke="white" stroke-width="3.03333"/>
<path d="M38.8831 44.2833H34.8063L31.9823 39.5695H31.6638H29.9014V44.2833H26.228V29.4199H32.0035C34.1268 29.4199 35.6981 29.8375 36.7173 30.6727C37.7365 31.5079 38.2461 32.6828 38.2461 34.1974C38.2461 35.344 37.9984 36.3066 37.5029 37.0852C37.0216 37.8496 36.3422 38.4299 35.4645 38.8263L38.8831 44.2833ZM29.9014 32.5625V36.4269H31.8973C32.6476 36.4269 33.235 36.2571 33.6597 35.9173C34.0985 35.5634 34.3179 35.0538 34.3179 34.3885C34.3179 33.7798 34.1197 33.3269 33.7234 33.0296C33.327 32.7182 32.6971 32.5625 31.8336 32.5625H29.9014Z" fill="black"/>
</svg>
