<svg width="64" height="64" viewBox="0 0 64 64" fill="none" xmlns="http://www.w3.org/2000/svg">
<g clip-path="url(#clip0_1967:16736)">
<rect x="9.02124" y="18.0426" width="45.9574" height="45.9574" rx="2.59574" fill="white"/>
<path fill-rule="evenodd" clip-rule="evenodd" d="M15.4041 24.4255V57.617H48.5956V24.4255H15.4041ZM14.1275 21.8723C13.4225 21.8723 12.851 22.4439 12.851 23.1489V58.8936C12.851 59.5987 13.4225 60.1702 14.1275 60.1702H49.8722C50.5773 60.1702 51.1488 59.5987 51.1488 58.8936V23.1489C51.1488 22.4439 50.5773 21.8723 49.8722 21.8723H14.1275Z" fill="#DCDEDF"/>
<path d="M37.7936 47.4042H34.3621L31.9851 43.4365H31.717H30.2336V47.4042H27.1417V34.8936H32.003C33.7902 34.8936 35.1128 35.245 35.9707 35.948C36.8285 36.651 37.2575 37.6399 37.2575 38.9148C37.2575 39.8799 37.049 40.6902 36.6319 41.3455C36.2268 41.9889 35.6549 42.4774 34.9162 42.811L37.7936 47.4042ZM30.2336 37.5387V40.7914H31.9136C32.5451 40.7914 33.0396 40.6484 33.397 40.3625C33.7664 40.0646 33.9511 39.6357 33.9511 39.0757C33.9511 38.5633 33.7843 38.1821 33.4507 37.9319C33.117 37.6697 32.5868 37.5387 31.86 37.5387H30.2336Z" fill="black"/>
<mask id="path-4-outside-1_1967:16736" maskUnits="userSpaceOnUse" x="18.6595" y="-0.0638446" width="27" height="16" fill="black">
<rect fill="white" x="18.6595" y="-0.0638446" width="27" height="16"/>
<path d="M24.3404 12.9362L32 3.99999L39.6595 12.9362L24.3404 12.9362Z"/>
</mask>
<path d="M24.3404 12.9362L32 3.99999L39.6595 12.9362L24.3404 12.9362Z" fill="black"/>
<path d="M24.3404 12.9362L22.3696 11.2469L18.6967 15.5319L24.3404 15.5319L24.3404 12.9362ZM32 3.99999L33.9708 2.3107L32 0.0113881L30.0291 2.3107L32 3.99999ZM39.6595 12.9362L39.6595 15.5319L45.3033 15.5319L41.6304 11.2469L39.6595 12.9362ZM30.0291 2.3107L22.3696 11.2469L26.3112 14.6254L33.9708 5.68927L30.0291 2.3107ZM41.6304 11.2469L33.9708 2.3107L30.0291 5.68927L37.6887 14.6254L41.6304 11.2469ZM24.3404 15.5319L39.6595 15.5319L39.6595 10.3404L24.3404 10.3404L24.3404 15.5319Z" fill="white" mask="url(#path-4-outside-1_1967:16736)"/>
</g>
<defs>
<clipPath id="clip0_1967:16736">
<rect width="64" height="64" fill="white"/>
</clipPath>
</defs>
</svg>
