<svg width="64" height="64" viewBox="0 0 64 64" fill="none" xmlns="http://www.w3.org/2000/svg">
<g clip-path="url(#clip0_1967:16768)">
<rect x="18.0426" y="9.02127" width="45.9574" height="45.9574" rx="2.59574" fill="white"/>
<path fill-rule="evenodd" clip-rule="evenodd" d="M24.4255 15.4042V48.5957H57.617V15.4042H24.4255ZM23.1489 12.851C22.4439 12.851 21.8723 13.4226 21.8723 14.1276V49.8723C21.8723 50.5774 22.4439 51.1489 23.1489 51.1489H58.8936C59.5986 51.1489 60.1702 50.5774 60.1702 49.8723V14.1276C60.1702 13.4226 59.5986 12.851 58.8936 12.851H23.1489Z" fill="#DCDEDF"/>
<path d="M46.8149 38.3829H43.3834L41.0064 34.4152H40.7383H39.2549V38.3829H36.163V25.8723H41.0242C42.8115 25.8723 44.134 26.2237 44.9919 26.9267C45.8498 27.6297 46.2787 28.6186 46.2787 29.8935C46.2787 30.8586 46.0702 31.6688 45.6532 32.3242C45.2481 32.9676 44.6762 33.4561 43.9374 33.7897L46.8149 38.3829ZM39.2549 28.5174V31.7701H40.9349C41.5664 31.7701 42.0608 31.6271 42.4183 31.3412C42.7876 31.0433 42.9723 30.6144 42.9723 30.0544C42.9723 29.542 42.8055 29.1608 42.4719 28.9106C42.1383 28.6484 41.6081 28.5174 40.8813 28.5174H39.2549Z" fill="black"/>
<mask id="path-4-outside-1_1967:16768" maskUnits="userSpaceOnUse" x="-0.0638437" y="18.3404" width="16" height="27" fill="black">
<rect fill="white" x="-0.0638437" y="18.3404" width="16" height="27"/>
<path d="M12.9362 39.6596L3.99999 32L12.9362 24.3404L12.9362 39.6596Z"/>
</mask>
<path d="M12.9362 39.6596L3.99999 32L12.9362 24.3404L12.9362 39.6596Z" fill="black"/>
<path d="M12.9362 39.6596L11.2469 41.6304L15.5319 45.3033L15.5319 39.6596L12.9362 39.6596ZM3.99999 32L2.3107 30.0292L0.0113884 32L2.3107 33.9708L3.99999 32ZM12.9362 24.3404L15.5319 24.3404L15.5319 18.6967L11.2469 22.3696L12.9362 24.3404ZM2.3107 33.9708L11.2469 41.6304L14.6254 37.6887L5.68927 30.0292L2.3107 33.9708ZM11.2469 22.3696L2.3107 30.0292L5.68927 33.9708L14.6254 26.3113L11.2469 22.3696ZM15.5319 39.6596L15.5319 24.3404L10.3404 24.3404L10.3404 39.6596L15.5319 39.6596Z" fill="white" mask="url(#path-4-outside-1_1967:16768)"/>
</g>
<defs>
<clipPath id="clip0_1967:16768">
<rect width="64" height="64" fill="white"/>
</clipPath>
</defs>
</svg>
