<svg width="64" height="64" viewBox="0 0 64 64" fill="none" xmlns="http://www.w3.org/2000/svg">
<rect x="9.02136" width="45.9574" height="45.9574" rx="2.55319" fill="white"/>
<path fill-rule="evenodd" clip-rule="evenodd" d="M15.4043 6.38299V39.5745H48.5958V6.38299H15.4043ZM14.1277 3.8298C13.4226 3.8298 12.8511 4.40136 12.8511 5.1064V40.8511C12.8511 41.5561 13.4226 42.1277 14.1277 42.1277H49.8723C50.5774 42.1277 51.1489 41.5561 51.1489 40.8511V5.1064C51.1489 4.40135 50.5774 3.8298 49.8723 3.8298H14.1277Z" fill="#DCDEDF"/>
<mask id="path-3-outside-1_1967:16704" maskUnits="userSpaceOnUse" x="18.3405" y="48.0638" width="27" height="16" fill="black">
<rect fill="white" x="18.3405" y="48.0638" width="27" height="16"/>
<path d="M39.6596 51.0638L32 60L24.3405 51.0638H39.6596Z"/>
</mask>
<path d="M39.6596 51.0638L32 60L24.3405 51.0638H39.6596Z" fill="black"/>
<path d="M39.6596 51.0638L41.5981 52.7254L45.2108 48.5107H39.6596V51.0638ZM32 60L30.0615 61.6616L32 63.9232L33.9386 61.6616L32 60ZM24.3405 51.0638V48.5107H18.7893L22.4019 52.7254L24.3405 51.0638ZM33.9386 61.6616L41.5981 52.7254L37.7211 49.4022L30.0615 58.3384L33.9386 61.6616ZM22.4019 52.7254L30.0615 61.6616L33.9386 58.3384L26.279 49.4022L22.4019 52.7254ZM39.6596 48.5107H24.3405V53.617H39.6596V48.5107Z" fill="white" mask="url(#path-3-outside-1_1967:16704)"/>
<path d="M37.7938 29.3616H34.3623L31.9853 25.394H31.7172H30.2338V29.3616H27.1418V16.851H32.0031C33.7904 16.851 35.1129 17.2025 35.9708 17.9055C36.8287 18.6084 37.2576 19.5974 37.2576 20.8723C37.2576 21.8374 37.0491 22.6476 36.6321 23.3029C36.227 23.9463 35.655 24.4348 34.9163 24.7684L37.7938 29.3616ZM30.2338 19.4961V22.7489H31.9138C32.5453 22.7489 33.0397 22.6059 33.3972 22.3199C33.7665 22.022 33.9512 21.5931 33.9512 21.0331C33.9512 20.5208 33.7844 20.1395 33.4508 19.8893C33.1172 19.6272 32.587 19.4961 31.8601 19.4961H30.2338Z" fill="black"/>
</svg>
