<svg width="64" height="64" viewBox="0 0 64 64" fill="none" xmlns="http://www.w3.org/2000/svg">
<path d="M3 5.7619C3 4.23655 4.23655 3 5.7619 3H58.2381C59.7635 3 61 4.23655 61 5.7619V58.2381C61 59.7635 59.7635 61 58.2381 61H5.7619C4.23655 61 3 59.7635 3 58.2381V5.7619Z" fill="white"/>
<path d="M30.8657 42.6333H26.1387L22.0497 35.7893H21.5567H18.5407V42.6333H14.2777V22.3333H21.8757C24.6597 22.3333 26.709 22.8939 28.0237 24.0153C29.3384 25.1173 29.9957 26.6639 29.9957 28.6553C29.9957 30.2213 29.6477 31.5263 28.9517 32.5703C28.275 33.6143 27.318 34.4069 26.0807 34.9483L30.8657 42.6333ZM18.5407 25.9583V32.1353H21.8757C22.997 32.1353 23.867 31.8549 24.4857 31.2943C25.1237 30.7143 25.4427 29.9216 25.4427 28.9163C25.4427 27.9303 25.1334 27.1956 24.5147 26.7123C23.9154 26.2096 22.9487 25.9583 21.6147 25.9583H18.5407Z" fill="#0E141B"/>
<path d="M47.3027 22.3333V34.7453H50.2317V38.0223H47.3027V42.6333H42.9817V38.0223H33.4117V35.2383L43.3587 22.3333H47.3027ZM43.1557 27.4083L37.5587 34.7453H43.1557V27.4083Z" fill="#0E141B"/>
</svg>
