<svg width="32" height="32" viewBox="0 0 32 32" fill="none" xmlns="http://www.w3.org/2000/svg">
<path d="M21.3333 26.6666H10.6666L16 32L21.3333 26.6666Z" fill="white"/>
<path d="M7.54438 12.1301C7.68604 10.0302 9.43067 8.39931 11.5353 8.39931H20.4646C22.5693 8.39931 24.3139 10.0302 24.4556 12.1301L24.9414 19.3315C25.0972 21.6413 23.2656 23.6007 20.9505 23.6007H11.0495C8.7344 23.6007 6.90275 21.6413 7.05857 19.3315L7.54438 12.1301Z" fill="white"/>
<path d="M19.1328 19.375H17.561L16.2014 17.0993H16.0374H15.0346V19.375H13.6171V12.625H16.1435C17.0692 12.625 17.7506 12.8114 18.1878 13.1843C18.6249 13.5507 18.8435 14.065 18.8435 14.7271C18.8435 15.2479 18.7278 15.6818 18.4964 16.0289C18.2714 16.3761 17.9531 16.6396 17.5417 16.8196L19.1328 19.375ZM15.0346 13.8304V15.8843H16.1435C16.5164 15.8843 16.8056 15.7911 17.0114 15.6046C17.2235 15.4118 17.3296 15.1482 17.3296 14.8139C17.3296 14.4861 17.2267 14.2418 17.021 14.0811C16.8217 13.9139 16.5003 13.8304 16.0567 13.8304H15.0346Z" fill="#0E141B"/>
</svg>
