<svg width="32" height="32" viewBox="0 0 32 32" fill="none" xmlns="http://www.w3.org/2000/svg">
<path fill-rule="evenodd" clip-rule="evenodd" d="M0 13.0058C0 10.2593 2.18423 8 4.91852 8H27.0815C29.8158 8 32 10.2593 32 13.0058C32 15.7524 29.8158 18.0117 27.0815 18.0117H25.9556V28.4444H24.1778V16.2339H27.0815C28.7982 16.2339 30.2222 14.8067 30.2222 13.0058C30.2222 11.205 28.7982 9.77777 27.0815 9.77777H4.91852C3.20181 9.77777 1.77778 11.205 1.77778 13.0058C1.77778 14.8067 3.20181 16.2339 4.91852 16.2339H7.82222V28.4444H6.04444V18.0117H4.91852C2.18423 18.0117 0 15.7524 0 13.0058Z" fill="white"/>
<path d="M15.5342 24.8889H10.7431V18.0445H12.4346V23.3636H15.5342V24.8889Z" fill="white"/>
<path d="M18.6936 17.8783C19.528 17.8783 20.157 18.0412 20.5807 18.3671C21.0044 18.6931 21.2163 19.1135 21.2163 19.6285C21.2163 19.9609 21.1185 20.2575 20.9229 20.5183C20.7274 20.779 20.4438 20.9876 20.0723 21.144V21.1831C20.509 21.2744 20.8545 21.4602 21.1087 21.7405C21.3695 22.0208 21.4998 22.3988 21.4998 22.8747C21.4998 23.3114 21.3727 23.696 21.1185 24.0285C20.8643 24.3544 20.5188 24.6086 20.0821 24.7911C19.6518 24.9671 19.176 25.0551 18.6545 25.0551C18.1461 25.0551 17.6637 24.9867 17.2074 24.8498C16.7511 24.7129 16.3698 24.5174 16.0634 24.2631L16.7576 23.0116C17.2269 23.4223 17.8071 23.6276 18.4981 23.6276C18.8761 23.6276 19.1695 23.5526 19.3781 23.4027C19.5932 23.2463 19.7007 23.0311 19.7007 22.7574C19.7007 22.2228 19.3031 21.9556 18.5078 21.9556H17.5496V20.704H18.3905C18.7229 20.704 18.9804 20.6454 19.1629 20.528C19.352 20.4042 19.4465 20.2314 19.4465 20.0098C19.4465 19.8012 19.352 19.6317 19.1629 19.5014C18.9804 19.371 18.7229 19.3058 18.3905 19.3058C18.1232 19.3058 17.8592 19.3514 17.5985 19.4427C17.3378 19.5274 17.1064 19.6448 16.9043 19.7947L16.2003 18.7094C16.5392 18.4356 16.9206 18.2303 17.3443 18.0934C17.7745 17.95 18.2243 17.8783 18.6936 17.8783Z" fill="white"/>
<path d="M21.3333 0.888885H10.6667L16 6.22222L21.3333 0.888885Z" fill="white"/>
</svg>
