<svg width="64" height="64" viewBox="0 0 64 64" fill="none" xmlns="http://www.w3.org/2000/svg">
<path d="M32.1095 6.07912C31.6978 6.50025 31.1395 6.73684 30.5573 6.73684C29.9751 6.73684 29.4168 6.50025 29.0051 6.07912C28.5935 5.65798 28.3622 5.0868 28.3622 4.49123V0H32.7524V4.49123C32.7524 5.0868 32.5212 5.65798 32.1095 6.07912Z" fill="white"/>
<path d="M44.5293 6.84912L41.4232 10.0267C41.2192 10.2353 40.9771 10.4008 40.7106 10.5137C40.4442 10.6266 40.1586 10.6848 39.8701 10.6848C39.5817 10.6848 39.2961 10.6266 39.0296 10.5137C38.7631 10.4008 38.521 10.2353 38.3171 10.0267C38.1131 9.81803 37.9513 9.57033 37.841 9.29773C37.7306 9.02513 37.6738 8.73296 37.6738 8.43789C37.6738 8.14283 37.7306 7.85066 37.841 7.57806C37.9513 7.30546 38.1131 7.05776 38.3171 6.84912L41.4232 3.67158L44.5293 6.84912Z" fill="white"/>
<path d="M22.7976 10.0267C23.0017 9.81811 23.1636 9.57044 23.274 9.29783C23.3845 9.02522 23.4414 8.733 23.4414 8.43789C23.4414 8.14279 23.3845 7.85057 23.274 7.57796C23.1636 7.30535 23.0017 7.05768 22.7976 6.84912L19.6915 3.67158L16.5854 6.84912L19.6915 10.0267C19.8953 10.2355 20.1374 10.4011 20.4039 10.5141C20.6704 10.6271 20.956 10.6853 21.2445 10.6853C21.533 10.6853 21.8186 10.6271 22.0851 10.5141C22.3516 10.4011 22.5937 10.2355 22.7976 10.0267Z" fill="white"/>
<path d="M35.7049 14.7102V28.7116L55 32.5614V64H25.3659L10 46.8337L12.9524 44.1053C14.0648 43.0578 15.5281 42.4877 17.0397 42.5128C18.5514 42.5378 19.9958 43.1562 21.0744 44.2401L25.4646 48.5292L25.8707 48.7762V14.7102C26.0077 13.4477 26.5936 12.2808 27.5171 11.4316C28.411 10.5792 29.5877 10.1053 30.8098 10.1053C32.0318 10.1053 33.2085 10.5792 34.1024 11.4316C35.0138 12.2847 35.5846 13.4525 35.7049 14.7102Z" fill="white"/>
</svg>
