<svg width="32" height="32" viewBox="0 0 32 32" fill="none" xmlns="http://www.w3.org/2000/svg">
<g clip-path="url(#clip0_8146_5858)">
<path d="M32 1.96488C32 1.96488 21.7865 1.96488 14.0351 1.96488C6.28373 1.96488 0 8.24861 0 16C0 23.7514 6.28373 30.0351 14.0351 30.0351C17.8901 30.0351 21.3821 28.4809 23.9186 25.9649C25.3359 24.5592 32 18.2456 32 18.2456V1.96488Z" fill="white"/>
<path d="M23.1882 20.4H21.2322L19.5402 17.568H19.3362H18.0882V20.4H16.3242V12H19.4682C20.6202 12 21.4682 12.232 22.0122 12.696C22.5562 13.152 22.8282 13.792 22.8282 14.616C22.8282 15.264 22.6842 15.804 22.3962 16.236C22.1162 16.668 21.7202 16.996 21.2082 17.22L23.1882 20.4ZM18.0882 13.5V16.056H19.4682C19.9322 16.056 20.2922 15.94 20.5482 15.708C20.8122 15.468 20.9442 15.14 20.9442 14.724C20.9442 14.316 20.8162 14.012 20.5602 13.812C20.3122 13.604 19.9122 13.5 19.3602 13.5H18.0882Z" fill="#0E141B"/>
<path d="M9 20.4V12H11.94C12.988 12 13.788 12.24 14.34 12.72C14.9 13.192 15.18 13.836 15.18 14.652C15.18 15.196 15.056 15.692 14.808 16.14C14.56 16.58 14.192 16.932 13.704 17.196C13.216 17.46 12.628 17.592 11.94 17.592H10.764V20.4H9ZM11.892 16.092C12.34 16.092 12.684 15.972 12.924 15.732C13.172 15.492 13.296 15.16 13.296 14.736C13.296 14.32 13.172 14.012 12.924 13.812C12.684 13.604 12.336 13.5 11.88 13.5H10.764V16.092H11.892Z" fill="#0E141B"/>
</g>
<defs>
<clipPath id="clip0_8146_5858">
<rect width="32" height="32" fill="white"/>
</clipPath>
</defs>
</svg>
