<svg width="32" height="32" viewBox="0 0 32 32" fill="none" xmlns="http://www.w3.org/2000/svg">
<path fill-rule="evenodd" clip-rule="evenodd" d="M7.75 16C7.75 11.4437 11.4437 7.75 16 7.75C20.5563 7.75 24.25 11.4437 24.25 16C24.25 20.3818 20.8339 23.9658 16.5196 24.2339L16.2574 25.7467C21.5232 25.6102 25.75 21.2987 25.75 16C25.75 10.6152 21.3848 6.25 16 6.25C10.6152 6.25 6.25 10.6152 6.25 16C6.25 20.2631 8.98604 23.8872 12.7979 25.212L13.0582 23.7101C9.9545 22.5251 7.75 19.52 7.75 16Z" fill="#DCDEDF"/>
<path fill-rule="evenodd" clip-rule="evenodd" d="M14.7671 16.0258C14.7671 14.42 14.9852 12.9973 15.3169 12.0021C15.4841 11.5005 15.6666 11.1487 15.8329 10.9378C15.9317 10.8123 15.9972 10.769 16.0257 10.7548C16.0541 10.769 16.1196 10.8123 16.2184 10.9378C16.3847 11.1487 16.5673 11.5005 16.7344 12.0021C16.738 12.0129 16.7416 12.0238 16.7452 12.0347C17.2976 12.0657 17.835 12.1174 18.3502 12.1883C18.2912 11.9566 18.2269 11.7359 18.1575 11.5277C17.9612 10.9388 17.7109 10.4082 17.3966 10.0093C17.0889 9.6189 16.6313 9.25 16.0257 9.25C15.42 9.25 14.9625 9.6189 14.6548 10.0093C14.3405 10.4082 14.0902 10.9388 13.8939 11.5277C13.4987 12.7134 13.2671 14.3036 13.2671 16.0258C13.2671 17.7479 13.4987 19.3381 13.8939 20.5238C14.0902 21.1127 14.3405 21.6433 14.6548 22.0422C14.9625 22.4326 15.42 22.8015 16.0257 22.8015C16.6313 22.8015 17.0889 22.4326 17.3966 22.0422C17.7109 21.6433 17.9612 21.1127 18.1575 20.5238C18.2322 20.2996 18.301 20.061 18.3636 19.8098C17.8496 19.881 17.3134 19.9329 16.7622 19.9644C16.753 19.9931 16.7438 20.0214 16.7344 20.0494C16.5673 20.551 16.3847 20.9028 16.2184 21.1137C16.1196 21.2392 16.0541 21.2826 16.0257 21.2967C15.9972 21.2826 15.9317 21.2392 15.8329 21.1137C15.6666 20.9028 15.4841 20.551 15.3169 20.0494C14.9852 19.0542 14.7671 17.6315 14.7671 16.0258ZM16.0419 10.7484C16.0419 10.7485 16.041 10.7487 16.0394 10.749C16.041 10.7485 16.0419 10.7484 16.0419 10.7484ZM16.0119 10.749C16.0103 10.7487 16.0095 10.7485 16.0095 10.7484C16.0095 10.7484 16.0103 10.7485 16.0119 10.749ZM16.0099 21.3029C16.0096 21.303 16.0095 21.3031 16.0095 21.3031C16.0095 21.3031 16.0098 21.3031 16.0104 21.3029C16.0108 21.3028 16.0113 21.3027 16.0119 21.3025C16.011 21.3026 16.0103 21.3028 16.0099 21.3029ZM16.0394 21.3025C16.041 21.3028 16.0419 21.303 16.0419 21.3031C16.0419 21.3031 16.041 21.303 16.0394 21.3025Z" fill="white"/>
<path fill-rule="evenodd" clip-rule="evenodd" d="M12.2683 15.2339C12.1765 15.2607 12.0877 15.2884 12.0021 15.317C11.5005 15.4842 11.1487 15.6667 10.9378 15.833C10.8123 15.9318 10.769 15.9973 10.7548 16.0257C10.769 16.0542 10.8123 16.1197 10.9378 16.2185C11.1487 16.3848 11.5005 16.5673 12.0021 16.7345C12.0837 16.7617 12.1683 16.7882 12.2556 16.8138C12.2662 17.3486 12.292 17.8741 12.3321 18.3858C12.0476 18.3175 11.7786 18.2412 11.5277 18.1575C10.9388 17.9612 10.4082 17.711 10.0093 17.3966C9.6189 17.089 9.25 16.6314 9.25 16.0257C9.25 15.4201 9.6189 14.9625 10.0093 14.6549C10.4082 14.3405 10.9388 14.0903 11.5277 13.894C11.7904 13.8064 12.0728 13.7269 12.3722 13.6562C12.3227 14.1679 12.2878 14.6955 12.2683 15.2339ZM15.8694 14.7679C15.9213 14.7674 15.9734 14.7672 16.0258 14.7672C17.6315 14.7672 19.0542 14.9852 20.0494 15.317C20.551 15.4842 20.9028 15.6667 21.1137 15.833C21.2392 15.9318 21.2826 15.9973 21.2967 16.0257C21.2826 16.0542 21.2392 16.1197 21.1137 16.2185C20.9028 16.3848 20.551 16.5673 20.0494 16.7345C19.0542 17.0663 17.6315 17.2843 16.0258 17.2843C15.9654 17.2843 15.9052 17.284 15.8453 17.2834C15.8684 17.8105 15.9085 18.3129 15.9628 18.7842C15.9837 18.7843 16.0047 18.7843 16.0258 18.7843C17.7479 18.7843 19.3381 18.5528 20.5238 18.1575C21.1127 17.9612 21.6433 17.711 22.0422 17.3966C22.4326 17.089 22.8015 16.6314 22.8015 16.0257C22.8015 15.4201 22.4326 14.9625 22.0422 14.6549C21.6433 14.3405 21.1127 14.0903 20.5238 13.894C19.3381 13.4987 17.7479 13.2672 16.0258 13.2672C16.0238 13.2672 16.0218 13.2672 16.0199 13.2672C15.9545 13.7342 15.9032 14.2368 15.8694 14.7679ZM10.7484 16.0096C10.7485 16.0096 10.7487 16.0104 10.749 16.012C10.7485 16.0104 10.7484 16.0096 10.7484 16.0096ZM10.749 16.0395C10.7487 16.0411 10.7485 16.0419 10.7484 16.0419C10.7484 16.0419 10.7485 16.0411 10.749 16.0395ZM21.3029 16.0414C21.303 16.0418 21.3031 16.0419 21.3031 16.0419C21.3031 16.0419 21.303 16.0411 21.3025 16.0395C21.3026 16.0403 21.3028 16.041 21.3029 16.0414ZM21.3025 16.012C21.3028 16.0104 21.303 16.0096 21.3031 16.0096C21.3031 16.0096 21.303 16.0104 21.3025 16.012Z" fill="#DCDEDF"/>
<path fill-rule="evenodd" clip-rule="evenodd" d="M3 15.25C2.58579 15.25 2.25 15.5858 2.25 16C2.25 16.4142 2.58579 16.75 3 16.75H4.5C4.91421 16.75 5.25 16.4142 5.25 16C5.25 15.5858 4.91421 15.25 4.5 15.25H3ZM27.5 15.25C27.0858 15.25 26.75 15.5858 26.75 16C26.75 16.4142 27.0858 16.75 27.5 16.75H29C29.4142 16.75 29.75 16.4142 29.75 16C29.75 15.5858 29.4142 15.25 29 15.25H27.5Z" fill="#DCDEDF"/>
<path fill-rule="evenodd" clip-rule="evenodd" d="M18.6473 4.08001C18.7109 3.67071 18.4306 3.28736 18.0213 3.22377C17.612 3.16018 17.2286 3.44044 17.1651 3.84975L16.1756 10.2191C16.112 10.6284 16.3922 11.0118 16.8015 11.0754C17.2108 11.1389 17.5942 10.8587 17.6578 10.4494L18.6473 4.08001ZM15.8344 21.7167C15.898 21.3073 15.6177 20.924 15.2084 20.8604C14.7991 20.7968 14.4158 21.0771 14.3522 21.4864L13.3527 27.92C13.2891 28.3293 13.5694 28.7126 13.9787 28.7762C14.388 28.8398 14.7713 28.5595 14.8349 28.1502L15.8344 21.7167Z" fill="white"/>
<path d="M5.83882 11.8712L4.90209 14.1711L3.11851 12.2887L5.83882 11.8712Z" fill="white"/>
<path fill-rule="evenodd" clip-rule="evenodd" d="M3.04722 20.7494C3.04467 20.75 3.04331 20.75 3.04253 20.75H3.04251C3.04179 20.75 3.03929 20.75 3.03354 20.7484C3.02736 20.7467 3.01487 20.7424 2.99588 20.7318C2.95621 20.7097 2.89339 20.663 2.81377 20.5713C2.65053 20.3833 2.46942 20.0679 2.30234 19.613C1.97036 18.7094 1.75014 17.4111 1.75014 15.9405C1.75014 14.47 1.97036 13.1717 2.30234 12.268C2.46942 11.8132 2.65053 11.4977 2.81377 11.3098C2.89339 11.2181 2.95621 11.1713 2.99588 11.1492C3.01487 11.1386 3.02736 11.1344 3.03354 11.1327C3.03933 11.1311 3.04182 11.1311 3.04253 11.1311H3.04258C3.04327 11.1311 3.04649 11.1311 3.05412 11.1334C3.06258 11.1361 3.07932 11.1425 3.10431 11.1582C3.15673 11.191 3.23503 11.2578 3.32998 11.382C3.52307 11.6344 3.7251 12.0452 3.8979 12.6123L5.33278 12.1751C5.13095 11.5127 4.86293 10.9172 4.52144 10.4707C4.18737 10.0339 3.69321 9.63107 3.04253 9.63107C2.46282 9.63107 2.00511 9.95334 1.6813 10.3261C1.35586 10.7008 1.09686 11.1995 0.894347 11.7508C0.487127 12.8592 0.250144 14.3407 0.250144 15.9405C0.250144 17.5404 0.487127 19.0218 0.894347 20.1303C1.09686 20.6816 1.35586 21.1802 1.6813 21.5549C2.00511 21.9277 2.46282 22.25 3.04253 22.25C3.8755 22.25 4.44909 21.6028 4.79975 20.9871C5.17601 20.3266 5.45465 19.4408 5.6272 18.4521L4.14953 18.1942C3.99429 19.0838 3.75738 19.7865 3.49635 20.2447C3.36607 20.4735 3.24645 20.6117 3.15511 20.6861C3.11145 20.7216 3.08046 20.7375 3.06353 20.7443C3.05521 20.7476 3.04987 20.7489 3.04722 20.7494Z" fill="white"/>
<path fill-rule="evenodd" clip-rule="evenodd" d="M24.25 16C24.25 11.4436 20.5563 7.74998 16 7.74998V6.24998C21.3848 6.24998 25.75 10.6152 25.75 16H24.25Z" fill="#DCDEDF"/>
</svg>
