<svg width="32" height="32" viewBox="0 0 32 32" fill="none" xmlns="http://www.w3.org/2000/svg">
<g clip-path="url(#clip0_2700_24178)">
<path opacity="0.4" d="M8 15.2C8 10.7326 11.5817 7.11111 16 7.11111C20.4183 7.11111 24 10.7326 24 15.2V23.9111C24 28.3785 20.4183 32 16 32C11.5817 32 8 28.3785 8 23.9111V15.2Z" fill="white"/>
<path fill-rule="evenodd" clip-rule="evenodd" d="M8 6.34703L11.9223 2.42995L13.2815 3.78739L13.2815 -0.888885L18.7185 -0.888885L18.7185 3.78739L20.0777 2.42995L24 6.34703L18.0525 12.2017C18.9572 12.8462 19.5473 13.9045 19.5473 15.1008V18.6646H24V20.4444H8V18.6646H12.4444V15.1008C12.4444 13.9024 13.0366 12.8425 13.944 12.1983L8 6.34703ZM15.2521 13.486C14.6429 13.7677 14.2202 14.3848 14.2202 15.1008V18.6646H17.7716V15.1008C17.7716 14.387 17.3514 13.7715 16.7453 13.4886L16 14.2222L15.2521 13.486Z" fill="#0E141B"/>
<path d="M17.7777 15.0853V18.6408H14.2222V15.0853C14.2222 14.1034 15.0181 13.3075 15.9999 13.3075C16.9818 13.3075 17.7777 14.1034 17.7777 15.0853Z" fill="white"/>
<path d="M15.111 8.05119L11.9999 4.91768L10.6666 6.26061L15.9999 11.5555L21.3333 6.26061L19.9999 4.91768L16.8888 8.05119L16.8888 1.77777L15.111 1.77777L15.111 8.05119Z" fill="white"/>
</g>
<defs>
<clipPath id="clip0_2700_24178">
<rect width="32" height="32" fill="white"/>
</clipPath>
</defs>
</svg>
