<svg width="32" height="32" viewBox="0 0 32 32" fill="none" xmlns="http://www.w3.org/2000/svg">
<g clip-path="url(#clip0_8152_744)">
<rect width="32" height="32" rx="2" fill="white"/>
<path d="M26.8169 10V12H21.9209V14.624C22.2302 14.432 22.5769 14.2933 22.9609 14.208C23.3555 14.112 23.7502 14.064 24.1449 14.064C25.1475 14.064 25.9475 14.352 26.5449 14.928C27.1529 15.4933 27.4569 16.32 27.4569 17.408C27.4569 18.2187 27.2649 18.928 26.8809 19.536C26.5075 20.144 25.9582 20.6187 25.2329 20.96C24.5182 21.2907 23.6702 21.456 22.6889 21.456C21.9635 21.456 21.2862 21.36 20.6569 21.168C20.0275 20.976 19.5049 20.704 19.0889 20.352L19.9209 18.56C20.7422 19.1147 21.6542 19.392 22.6569 19.392C23.4142 19.392 24.0009 19.2267 24.4169 18.896C24.8329 18.5653 25.0409 18.0907 25.0409 17.472C25.0409 16.928 24.8809 16.512 24.5609 16.224C24.2515 15.936 23.8249 15.792 23.2809 15.792C22.8755 15.792 22.5022 15.8613 22.1609 16C21.8195 16.128 21.4835 16.3253 21.1529 16.592L19.6649 15.776V10H26.8169Z" fill="#0E141B"/>
<path d="M11.032 17.952L14.52 10H16.904V21.2H14.648V14.08L11.64 20.88H10.216L7.144 14.16V21.2H5V10H7.256L11.032 17.952Z" fill="#0E141B"/>
</g>
<defs>
<clipPath id="clip0_8152_744">
<rect width="32" height="32" fill="white"/>
</clipPath>
</defs>
</svg>
