<svg width="32" height="32" viewBox="0 0 32 32" fill="none" xmlns="http://www.w3.org/2000/svg">
<path fill-rule="evenodd" clip-rule="evenodd" d="M0 11.4152C0 8.60329 2.14783 6.22223 4.91852 6.22223H27.0815C29.8522 6.22223 32 8.60329 32 11.4152C32 14.2271 29.8522 16.6082 27.0815 16.6082H23.9407V27.5556H22.163V14.8304H27.0815C28.7618 14.8304 30.2222 13.3575 30.2222 11.4152C30.2222 9.47297 28.7618 8.00001 27.0815 8.00001H4.91852C3.2382 8.00001 1.77778 9.47297 1.77778 11.4152C1.77778 13.3575 3.2382 14.8304 4.91852 14.8304H9.83704V27.5556H8.05926V16.6082H4.91852C2.14783 16.6082 0 14.2271 0 11.4152Z" fill="white"/>
<path d="M19.7458 24.8889H17.5272L15.9903 22.3236H14.8578V24.8889H12.8587V16.8H16.0018C17.1574 16.8 18.0125 17.0273 18.5672 17.4818C19.1218 17.9363 19.3992 18.5757 19.3992 19.4C19.3992 20.024 19.2644 20.5479 18.9947 20.9716C18.7328 21.3876 18.363 21.7034 17.8854 21.9191L19.7458 24.8889ZM14.8578 18.5103V20.6134H15.9441C16.3524 20.6134 16.6721 20.5209 16.9032 20.336C17.142 20.1434 17.2614 19.8661 17.2614 19.504C17.2614 19.1728 17.1535 18.9263 16.9378 18.7645C16.7221 18.595 16.3793 18.5103 15.9094 18.5103H14.8578Z" fill="white"/>
<path fill-rule="evenodd" clip-rule="evenodd" d="M0 11.4152C0 8.60329 2.14783 6.22223 4.91852 6.22223H27.0815C29.8522 6.22223 32 8.60329 32 11.4152C32 14.2271 29.8522 16.6082 27.0815 16.6082H23.9407V27.5556H22.163V14.8304H27.0815C28.7618 14.8304 30.2222 13.3575 30.2222 11.4152C30.2222 9.47297 28.7618 8.00001 27.0815 8.00001H4.91852C3.2382 8.00001 1.77778 9.47297 1.77778 11.4152C1.77778 13.3575 3.2382 14.8304 4.91852 14.8304H9.83704V27.5556H8.05926V16.6082H4.91852C2.14783 16.6082 0 14.2271 0 11.4152Z" fill="white"/>
<path d="M19.7458 24.8889H17.5272L15.9903 22.3236H14.8578V24.8889H12.8587V16.8H16.0018C17.1574 16.8 18.0125 17.0273 18.5672 17.4818C19.1218 17.9363 19.3992 18.5757 19.3992 19.4C19.3992 20.024 19.2644 20.5479 18.9947 20.9716C18.7328 21.3876 18.363 21.7034 17.8854 21.9191L19.7458 24.8889ZM14.8578 18.5103V20.6134H15.9441C16.3524 20.6134 16.6721 20.5209 16.9032 20.336C17.142 20.1434 17.2614 19.8661 17.2614 19.504C17.2614 19.1728 17.1535 18.9263 16.9378 18.7645C16.7221 18.595 16.3793 18.5103 15.9094 18.5103H14.8578Z" fill="white"/>
</svg>
