<svg width="64" height="64" viewBox="0 0 64 64" fill="none" xmlns="http://www.w3.org/2000/svg">
<path fill-rule="evenodd" clip-rule="evenodd" d="M21.7477 10.549C22.1081 15.6589 26.3676 19.6923 31.5692 19.6923C36.7876 19.6923 41.0579 15.6326 41.394 10.4992C38.3599 9.35394 35.0713 8.72728 31.6364 8.72728C28.1519 8.72728 24.8181 9.37214 21.7477 10.549ZM18.9204 11.82C10.0558 16.4221 4 25.6856 4 36.3636C4 51.6268 16.3732 64 31.6364 64C46.8995 64 59.2727 51.6268 59.2727 36.3636C59.2727 25.6357 53.1601 16.3354 44.2277 11.7557C43.3057 17.9192 37.9895 22.6461 31.5692 22.6461C25.1712 22.6461 19.8696 17.9521 18.9204 11.82Z" fill="white"/>
<path d="M38.5681 48H34.3802L31.4792 42.9257H31.152H29.3416V48H25.5681V32H31.501C33.6822 32 35.2963 32.4495 36.3433 33.3486C37.3903 34.2476 37.9138 35.5124 37.9138 37.1429C37.9138 38.3771 37.6593 39.4133 37.1503 40.2514C36.6559 41.0743 35.9579 41.699 35.0564 42.1257L38.5681 48ZM29.3416 35.3829V39.5429H31.3919C32.1626 39.5429 32.7661 39.36 33.2023 38.9943C33.6531 38.6133 33.8785 38.0648 33.8785 37.3486C33.8785 36.6933 33.6749 36.2057 33.2678 35.8857C32.8606 35.5505 32.2135 35.3829 31.3265 35.3829H29.3416Z" fill="black"/>
<path d="M31.5693 24.1923C37.8356 24.1923 42.9155 19.1125 42.9155 12.8462C42.9155 6.57985 37.8356 1.5 31.5693 1.5C25.303 1.5 20.2231 6.57985 20.2231 12.8462C20.2231 19.1125 25.303 24.1923 31.5693 24.1923Z" fill="black" stroke="white" stroke-width="3"/>
</svg>
