<svg width="64" height="64" viewBox="0 0 64 64" fill="none" xmlns="http://www.w3.org/2000/svg">
<path d="M31.6181 6.07912C31.1969 6.50025 30.6257 6.73684 30.0302 6.73684C29.4346 6.73684 28.8634 6.50025 28.4423 6.07912C28.0212 5.65798 27.7846 5.0868 27.7846 4.49123V0H32.2758V4.49123C32.2758 5.0868 32.0392 5.65798 31.6181 6.07912Z" fill="white"/>
<path d="M44.3235 6.84912L41.146 10.0267C40.9373 10.2353 40.6896 10.4008 40.417 10.5137C40.1444 10.6266 39.8523 10.6848 39.5572 10.6848C39.2621 10.6848 38.97 10.6266 38.6974 10.5137C38.4248 10.4008 38.1771 10.2353 37.9684 10.0267C37.7598 9.81803 37.5943 9.57033 37.4814 9.29773C37.3684 9.02513 37.3103 8.73296 37.3103 8.43789C37.3103 8.14283 37.3684 7.85066 37.4814 7.57806C37.5943 7.30546 37.7598 7.05776 37.9684 6.84912L41.146 3.67158L44.3235 6.84912Z" fill="white"/>
<path d="M22.0919 10.0267C22.3007 9.81811 22.4664 9.57044 22.5794 9.29783C22.6924 9.02522 22.7505 8.733 22.7505 8.43789C22.7505 8.14279 22.6924 7.85057 22.5794 7.57796C22.4664 7.30535 22.3007 7.05768 22.0919 6.84912L18.9144 3.67158L15.7368 6.84912L18.9144 10.0267C19.1229 10.2355 19.3706 10.4011 19.6432 10.5141C19.9158 10.6271 20.208 10.6853 20.5032 10.6853C20.7983 10.6853 21.0905 10.6271 21.3631 10.5141C21.6357 10.4011 21.8834 10.2355 22.0919 10.0267Z" fill="white"/>
<path d="M35.2961 14.7102V28.7116L55.0351 32.5614V64H24.7193L9 46.8337L12.0204 44.1053C13.1583 43.0578 14.6552 42.4877 16.2017 42.5128C17.7481 42.5378 19.2258 43.1562 20.3291 44.2401L24.8204 48.5292L25.2358 48.7762V14.7102C25.3759 13.4477 25.9753 12.2808 26.92 11.4316C27.8345 10.5792 29.0382 10.1053 30.2884 10.1053C31.5386 10.1053 32.7423 10.5792 33.6568 11.4316C34.5892 12.2847 35.1731 13.4525 35.2961 14.7102Z" fill="white"/>
<path d="M34.3264 54.921H39.2622V57.2632H30.8838V55.031L34.0591 52.453C34.5517 52.0443 34.9237 51.7195 35.1752 51.4785C35.4267 51.2374 35.6206 50.9912 35.7568 50.7396C35.9035 50.4881 35.9769 50.2104 35.9769 49.9065C35.9769 49.4349 35.7935 49.0786 35.4267 48.8376C35.0704 48.5966 34.6145 48.4761 34.0591 48.4761C33.6399 48.4761 33.226 48.5389 32.8173 48.6647C32.4086 48.78 32.0418 48.9372 31.717 49.1363L30.8367 47.1242C31.3397 46.7993 31.9003 46.5426 32.5186 46.354C33.1474 46.1653 33.8181 46.071 34.5307 46.071C35.8511 46.071 36.9148 46.3487 37.7217 46.9041C38.5286 47.4491 38.9321 48.256 38.9321 49.3249C38.9321 50.0585 38.7225 50.7292 38.3033 51.337C37.8946 51.9343 37.2606 52.5788 36.4013 53.2705L34.3264 54.921Z" fill="black"/>
<path d="M46.6702 49.0262H49.5311V49.1363L46.8745 53.0818L49.6568 57.1531V57.2632H46.7645L45.4126 54.8895L44.1865 57.2632H41.2156V57.1531L44.1708 53.0818L41.1998 49.152V49.0262H44.2494L45.4283 51.3055L46.6702 49.0262Z" fill="black"/>
</svg>
