<svg width="32" height="32" viewBox="0 0 32 32" fill="none" xmlns="http://www.w3.org/2000/svg">
<g clip-path="url(#clip0_2700_24170)">
<path fill-rule="evenodd" clip-rule="evenodd" d="M20.3333 32C20.8856 32 21.3333 31.5523 21.3333 31V21.3333H31C31.5523 21.3333 32 20.8856 32 20.3333V11.6667C32 11.1144 31.5523 10.6667 31 10.6667H21.3333L21.3333 1C21.3333 0.447716 20.8856 0 20.3333 0H11.6667C11.1144 0 10.6667 0.447716 10.6667 1V10.6667H1C0.447716 10.6667 0 11.1144 0 11.6667L0 20.3333C0 20.8856 0.447716 21.3333 1 21.3333L10.6667 21.3333V31C10.6667 31.5523 11.1144 32 11.6667 32L20.3333 32Z" fill="white"/>
<path d="M1.7777 16L5.33325 19.5555V12.4444L1.7777 16Z" fill="#0E141B"/>
</g>
<defs>
<clipPath id="clip0_2700_24170">
<rect width="32" height="32" fill="white"/>
</clipPath>
</defs>
</svg>
