<svg width="32" height="33" viewBox="0 0 32 33" fill="none" xmlns="http://www.w3.org/2000/svg">
<path fill-rule="evenodd" clip-rule="evenodd" d="M19.2303 8.49715C19.983 7.70095 20.4446 6.6266 20.4446 5.44444C20.4446 2.98985 18.4547 1 16.0001 1C13.5455 1 11.5557 2.98985 11.5557 5.44444C11.5557 6.62662 12.0172 7.70099 12.7699 8.49718C12.7987 8.52758 12.8278 8.55757 12.8574 8.58714C13.4527 9.18243 14.2161 9.60964 15.0702 9.79146C15.3701 9.8553 15.6812 9.88889 16.0001 9.88889C16.3191 9.88889 16.6302 9.85529 16.9301 9.79144C16.9908 9.77851 17.0511 9.76434 17.1108 9.74897C17.9337 9.53726 18.6643 9.09584 19.2303 8.49715ZM5.31958 18.6806C5.31958 14.6488 7.55361 11.1387 10.8513 9.32075C11.2208 9.81066 11.6585 10.2462 12.1503 10.6131C9.14163 12.0515 7.06323 15.1234 7.06323 18.6807C7.06323 23.6165 11.0645 27.6178 16.0003 27.6178C20.9361 27.6178 24.9374 23.6165 24.9374 18.6807C24.9374 15.1233 22.8589 12.0513 19.85 10.613C20.3419 10.2461 20.7795 9.81057 21.1489 9.32068C24.4467 11.1386 26.6808 14.6487 26.6808 18.6806C26.6808 24.5794 21.8989 29.3612 16.0002 29.3612C10.1015 29.3612 5.31958 24.5794 5.31958 18.6806ZM7.89459 18.6807C7.89459 15.2644 10.0081 12.3417 12.9989 11.1489C13.8952 11.6214 14.9164 11.8889 16.0001 11.8889C17.0839 11.8889 18.1051 11.6214 19.0015 11.1488C21.9924 12.3416 24.106 15.2643 24.106 18.6807C24.106 23.1574 20.477 26.7864 16.0003 26.7864C11.5236 26.7864 7.89459 23.1574 7.89459 18.6807Z" fill="white"/>
<path d="M19.1665 22.6181H17.1265L15.7134 20.2594H15.554H14.6721V22.6181H12.834V15.1806H15.724C16.7865 15.1806 17.5727 15.3896 18.0827 15.8075C18.5927 16.2254 18.8477 16.8133 18.8477 17.5712C18.8477 18.145 18.7238 18.6266 18.4759 19.0162C18.235 19.3987 17.895 19.6891 17.4559 19.8875L19.1665 22.6181ZM14.6721 16.7531V18.6869H15.6709C16.0463 18.6869 16.3402 18.6019 16.5527 18.4319C16.7723 18.2548 16.8821 17.9998 16.8821 17.6669C16.8821 17.3623 16.7829 17.1356 16.5846 16.9869C16.3863 16.831 16.0711 16.7531 15.639 16.7531H14.6721Z" fill="#0E141B"/>
</svg>
