<svg width="32" height="32" viewBox="0 0 32 32" fill="none" xmlns="http://www.w3.org/2000/svg">
<circle cx="16.0001" cy="12.4444" r="12.4444" fill="white"/>
<path d="M20.0338 16.8889H17.6445L15.9894 14.1262H15.8027H14.7698V16.8889H12.6169V8.1778H16.0018C17.2463 8.1778 18.1672 8.42254 18.7645 8.91202C19.3618 9.4015 19.6605 10.0901 19.6605 10.9778C19.6605 11.6498 19.5153 12.2139 19.2249 12.6702C18.9429 13.1182 18.5446 13.4584 18.0303 13.6907L20.0338 16.8889ZM14.7698 10.0196V12.2845H15.9396C16.3793 12.2845 16.7236 12.1849 16.9725 11.9858C17.2297 11.7784 17.3583 11.4797 17.3583 11.0898C17.3583 10.7331 17.2421 10.4676 17.0098 10.2934C16.7775 10.1108 16.4084 10.0196 15.9023 10.0196H14.7698Z" fill="#0E141B"/>
<path d="M21.3334 26.6667H10.6667L16.0001 32L21.3334 26.6667Z" fill="white"/>
</svg>
