<svg width="32" height="32" viewBox="0 0 32 32" fill="none" xmlns="http://www.w3.org/2000/svg">
<g clip-path="url(#clip0_2700_24180)">
<path opacity="0.4" d="M8 15.2C8 10.7326 11.5817 7.11111 16 7.11111C20.4183 7.11111 24 10.7326 24 15.2V23.9111C24 28.3785 20.4183 32 16 32C11.5817 32 8 28.3785 8 23.9111V15.2Z" fill="white"/>
<path fill-rule="evenodd" clip-rule="evenodd" d="M8 7.8752L11.9223 11.7923L13.2815 10.4348L13.2815 12.8078C12.7593 13.4268 12.4444 14.227 12.4444 15.1008V18.6646H8V20.4444H24V18.6646H19.5473V15.1008C19.5473 14.2316 19.2358 13.4353 18.7185 12.8176L18.7185 10.4348L20.0777 11.7923L24 7.87519L16 0L8 7.8752ZM14.2202 15.1111L17.7716 15.1111V18.6646H14.2202V15.1111Z" fill="#0E141B"/>
<path d="M17.7777 15.0853V18.6408H14.2222V15.0853C14.2222 14.1034 15.0181 13.3075 15.9999 13.3075C16.9818 13.3075 17.7777 14.1034 17.7777 15.0853Z" fill="white"/>
<path d="M15.111 6.17101L11.9999 9.30452L10.6666 7.96159L15.9999 2.66665L21.3333 7.96158L19.9999 9.30452L16.8888 6.17101L16.8888 11.5555L15.111 11.5555L15.111 6.17101Z" fill="white"/>
</g>
<defs>
<clipPath id="clip0_2700_24180">
<rect width="32" height="32" fill="white"/>
</clipPath>
</defs>
</svg>
