<svg width="32" height="32" viewBox="0 0 32 32" fill="none" xmlns="http://www.w3.org/2000/svg">
<g clip-path="url(#clip0_2700_24188)">
<path fill-rule="evenodd" clip-rule="evenodd" d="M15.1112 1.77778V0H13.3334V1.77778C13.3334 2.2687 13.7314 2.66667 14.2223 2.66667C14.7132 2.66667 15.1112 2.2687 15.1112 1.77778ZM14.2223 4.44444C15.6951 4.44444 16.889 5.63835 16.889 7.11111V14.2222L27.5556 16.635V32H11.5556L2.66675 22.6667L3.8478 21.6168C5.43075 20.2098 7.8361 20.2805 9.33368 21.778L11.5556 24V7.11339L11.5556 7.11111C11.5556 5.63835 12.7495 4.44444 14.2223 4.44444ZM8.52078 2.66669L9.77786 3.92377C10.125 4.2709 10.6878 4.2709 11.0349 3.92377C11.3821 3.57664 11.3821 3.01383 11.0349 2.66669L9.77786 1.40961L8.52078 2.66669ZM18.6667 3.92377L19.9238 2.66669L18.6667 1.40961L17.4097 2.66669C17.0625 3.01383 17.0625 3.57664 17.4097 3.92377C17.7568 4.2709 18.3196 4.2709 18.6667 3.92377Z" fill="white"/>
<path d="M16.9339 27.3283H19.286V28.4444H15.2935V27.3808L16.8066 26.1523C17.0413 25.9576 17.2186 25.8028 17.3384 25.6879C17.4583 25.573 17.5506 25.4557 17.6156 25.3358C17.6855 25.216 17.7204 25.0836 17.7204 24.9388C17.7204 24.7141 17.633 24.5443 17.4583 24.4295C17.2885 24.3146 17.0712 24.2572 16.8066 24.2572C16.6068 24.2572 16.4096 24.2871 16.2148 24.3471C16.0201 24.402 15.8453 24.4769 15.6905 24.5718L15.271 23.613C15.5107 23.4582 15.7779 23.3358 16.0725 23.2459C16.3721 23.1561 16.6917 23.1111 17.0313 23.1111C17.6605 23.1111 18.1674 23.2434 18.5519 23.5081C18.9364 23.7678 19.1287 24.1523 19.1287 24.6617C19.1287 25.0112 19.0288 25.3308 18.829 25.6205C18.6343 25.9051 18.3322 26.2122 17.9227 26.5418L16.9339 27.3283Z" fill="#0E141B"/>
<path d="M22.5806 24.5194H23.9439V24.5718L22.678 26.4519L24.0038 28.392V28.4444H22.6256L21.9814 27.3134L21.3971 28.4444H19.9814V28.392L21.3896 26.4519L19.9739 24.5793V24.5194H21.4271L21.9889 25.6055L22.5806 24.5194Z" fill="#0E141B"/>
</g>
<defs>
<clipPath id="clip0_2700_24188">
<rect width="32" height="32" fill="white"/>
</clipPath>
</defs>
</svg>
