<svg width="32" height="32" viewBox="0 0 32 32" fill="none" xmlns="http://www.w3.org/2000/svg">
<path fill-rule="evenodd" clip-rule="evenodd" d="M26.6808 15.6806C26.6808 21.5794 21.8989 26.3612 16.0002 26.3612C10.1015 26.3612 5.31958 21.5794 5.31958 15.6806C5.31958 9.78187 10.1015 5 16.0002 5C21.8989 5 26.6808 9.78187 26.6808 15.6806ZM16.0003 23.7864C20.477 23.7864 24.106 20.1574 24.106 15.6807C24.106 11.2041 20.477 7.57501 16.0003 7.57501C11.5236 7.57501 7.89459 11.2041 7.89459 15.6807C7.89459 20.1574 11.5236 23.7864 16.0003 23.7864ZM16.0003 24.6178C20.9361 24.6178 24.9374 20.6165 24.9374 15.6807C24.9374 10.7449 20.9361 6.74365 16.0003 6.74365C11.0645 6.74365 7.06323 10.7449 7.06323 15.6807C7.06323 20.6165 11.0645 24.6178 16.0003 24.6178ZM16.0002 32L19.7502 28.2499H12.2501L16.0002 32Z" fill="white"/>
<path d="M19.0133 19.3426H13.7798V11.8662H15.6275V17.6765H19.0133V19.3426Z" fill="#0E141B"/>
</svg>
