<svg width="32" height="32" viewBox="0 0 32 32" fill="none" xmlns="http://www.w3.org/2000/svg">
<path fill-rule="evenodd" clip-rule="evenodd" d="M16.0001 10.9091C18.1088 10.9091 19.8183 9.19963 19.8183 7.09091C19.8183 4.98219 18.1088 3.27273 16.0001 3.27273C13.8914 3.27273 12.1819 4.98219 12.1819 7.09091C12.1819 9.19963 13.8914 10.9091 16.0001 10.9091ZM16.0001 12.1818C18.8117 12.1818 21.091 9.90254 21.091 7.09091C21.091 4.27928 18.8117 2 16.0001 2C13.1885 2 10.9092 4.27928 10.9092 7.09091C10.9092 9.90254 13.1885 12.1818 16.0001 12.1818Z" fill="white"/>
<path fill-rule="evenodd" clip-rule="evenodd" d="M16.0001 21.0909C18.1088 21.0909 19.8183 22.8004 19.8183 24.9091C19.8183 27.0178 18.1088 28.7273 16.0001 28.7273C13.8914 28.7273 12.1819 27.0178 12.1819 24.9091C12.1819 22.8004 13.8914 21.0909 16.0001 21.0909ZM16.0001 19.8182C18.8117 19.8182 21.091 22.0975 21.091 24.9091C21.091 27.7207 18.8117 30 16.0001 30C13.1885 30 10.9092 27.7207 10.9092 24.9091C10.9092 22.0975 13.1885 19.8182 16.0001 19.8182Z" fill="white"/>
<path fill-rule="evenodd" clip-rule="evenodd" d="M10.8342 16C10.8342 13.9326 9.15829 12.2567 7.09091 12.2567C5.02353 12.2567 3.34759 13.9326 3.34759 16C3.34759 18.0674 5.02353 19.7433 7.09091 19.7433C9.15829 19.7433 10.8342 18.0674 10.8342 16ZM12.1818 16C12.1818 13.1884 9.90254 10.9091 7.09091 10.9091C4.27928 10.9091 2 13.1884 2 16C2 18.8116 4.27928 21.0909 7.09091 21.0909C9.90254 21.0909 12.1818 18.8116 12.1818 16Z" fill="white"/>
<path d="M24.9091 10.9091C22.0975 10.9091 19.8182 13.1884 19.8182 16C19.8182 18.8116 22.0975 21.0909 24.9091 21.0909C27.7207 21.0909 30 18.8116 30 16C30 13.1884 27.7207 10.9091 24.9091 10.9091Z" fill="white"/>
</svg>
