<svg width="64" height="64" viewBox="0 0 64 64" fill="none" xmlns="http://www.w3.org/2000/svg">
<path fill-rule="evenodd" clip-rule="evenodd" d="M39.7778 4C40.6369 4 41.3333 4.69645 41.3333 5.55556V21.1111C41.3333 21.9702 42.0298 22.6667 42.8889 22.6667H58.4444C59.3036 22.6667 60 23.3631 60 24.2222V39.7778C60 40.6369 59.3036 41.3333 58.4444 41.3333H42.8889C42.0298 41.3333 41.3333 42.0298 41.3333 42.8889V58.4444C41.3333 59.3036 40.6369 60 39.7778 60H24.2222C23.3631 60 22.6667 59.3036 22.6667 58.4444V42.8889C22.6667 42.0298 21.9702 41.3333 21.1111 41.3333H5.55556C4.69645 41.3333 4 40.6369 4 39.7778V24.2222C4 23.3631 4.69645 22.6667 5.55556 22.6667H21.1111C21.9702 22.6667 22.6667 21.9702 22.6667 21.1111V5.55556C22.6667 4.69645 23.3631 4 24.2222 4H39.7778Z" fill="white"/>
<path d="M25.7778 16.3453L32.0001 8.66666L38.2223 16.3453H25.7778Z" fill="black"/>
</svg>
