<svg width="64" height="64" viewBox="0 0 64 64" fill="none" xmlns="http://www.w3.org/2000/svg">
<g clip-path="url(#clip0_1967:18235)">
<path d="M59.2727 36.3637C59.2727 51.6268 46.8995 64 31.6364 64C16.3732 64 4 51.6268 4 36.3637C4 21.1005 16.3732 8.72729 31.6364 8.72729C46.8995 8.72729 59.2727 21.1005 59.2727 36.3637Z" fill="white"/>
<path d="M30.092 43.6362H20.1138V29.3816H23.6367V40.4595H30.092V43.6362Z" fill="black"/>
<path d="M37.821 29.0355C39.5587 29.0355 40.8688 29.3749 41.7512 30.0536C42.6336 30.7324 43.0749 31.6081 43.0749 32.6806C43.0749 33.3729 42.8712 33.9906 42.464 34.5336C42.0567 35.0767 41.4661 35.5111 40.6923 35.8369V35.9184C41.6019 36.1084 42.3214 36.4953 42.8509 37.0791C43.3939 37.6629 43.6654 38.4502 43.6654 39.4413C43.6654 40.3509 43.4007 41.1518 42.8712 41.8442C42.3418 42.523 41.6223 43.0524 40.7127 43.4326C39.8167 43.7991 38.8256 43.9824 37.7396 43.9824C36.6807 43.9824 35.6761 43.8398 34.7258 43.5547C33.7755 43.2696 32.9813 42.8624 32.3432 42.3329L33.789 39.7264C34.7665 40.5816 35.9747 41.0093 37.4138 41.0093C38.2012 41.0093 38.8121 40.8532 39.2465 40.5409C39.6945 40.2151 39.9185 39.7671 39.9185 39.1969C39.9185 38.0837 39.0904 37.5271 37.4341 37.5271H35.4385V34.9206H37.1898C37.8821 34.9206 38.4184 34.7984 38.7985 34.554C39.1922 34.2961 39.389 33.9363 39.389 33.4747C39.389 33.0403 39.1922 32.6873 38.7985 32.4158C38.4184 32.1443 37.8821 32.0086 37.1898 32.0086C36.6332 32.0086 36.0833 32.1036 35.5403 32.2936C34.9973 32.4701 34.5153 32.7145 34.0945 33.0267L32.6283 30.7664C33.3343 30.1962 34.1284 29.7686 35.0109 29.4835C35.9069 29.1848 36.8436 29.0355 37.821 29.0355Z" fill="black"/>
<path d="M20 1.5H16.6597L18.8789 3.99655L30.5153 17.0875L31.6364 18.3487L32.7575 17.0875L44.3937 3.99654L46.6129 1.5H43.2726H20Z" fill="black" stroke="white" stroke-width="3"/>
</g>
<defs>
<clipPath id="clip0_1967:18235">
<rect width="64" height="64" fill="white"/>
</clipPath>
</defs>
</svg>
