<svg width="64" height="64" viewBox="0 0 64 64" fill="none" xmlns="http://www.w3.org/2000/svg">
<path fill-rule="evenodd" clip-rule="evenodd" d="M24.2222 60C23.3631 60 22.6667 59.3036 22.6667 58.4444L22.6667 42.8889C22.6667 42.0298 21.9702 41.3333 21.1111 41.3333L5.55556 41.3333C4.69645 41.3333 4.00001 40.6369 4.00001 39.7778L4.00001 24.2222C4.00001 23.3631 4.69645 22.6667 5.55556 22.6667L21.1111 22.6667C21.9702 22.6667 22.6667 21.9702 22.6667 21.1111L22.6667 5.55555C22.6667 4.69645 23.3631 4 24.2222 4L39.7778 4C40.6369 4 41.3333 4.69645 41.3333 5.55556L41.3333 21.1111C41.3333 21.9702 42.0298 22.6667 42.8889 22.6667L58.4444 22.6667C59.3036 22.6667 60 23.3631 60 24.2222L60 39.7778C60 40.6369 59.3036 41.3333 58.4444 41.3333L42.8889 41.3333C42.0298 41.3333 41.3333 42.0298 41.3333 42.8889L41.3333 58.4444C41.3333 59.3036 40.6369 60 39.7778 60L24.2222 60Z" fill="white"/>
<path d="M38.2222 47.6547L31.9999 55.3333L25.7777 47.6547L38.2222 47.6547Z" fill="black"/>
</svg>
