<svg width="32" height="32" viewBox="0 0 32 32" fill="none" xmlns="http://www.w3.org/2000/svg">
<path d="M20.4446 4.44444C20.4446 6.89904 18.4547 8.88889 16.0001 8.88889C13.5455 8.88889 11.5557 6.89904 11.5557 4.44444C11.5557 1.98985 13.5455 0 16.0001 0C18.4547 0 20.4446 1.98985 20.4446 4.44444Z" fill="white"/>
<path fill-rule="evenodd" clip-rule="evenodd" d="M11.0044 8.15445C6.61885 10.0788 3.55566 14.4595 3.55566 19.5556C3.55566 26.4284 9.12723 32 16.0001 32C22.873 32 28.4446 26.4284 28.4446 19.5556C28.4446 14.4595 25.3814 10.0788 20.9958 8.15445C19.8617 9.67903 18.0463 10.6667 16.0001 10.6667C13.954 10.6667 12.1385 9.67903 11.0044 8.15445Z" fill="white"/>
<path d="M19.431 23.8222H13.3333V15.1111H15.4861V21.8809H19.431V23.8222Z" fill="#0E141B"/>
</svg>
