<svg width="64" height="64" viewBox="0 0 64 64" fill="none" xmlns="http://www.w3.org/2000/svg">
<path fill-rule="evenodd" clip-rule="evenodd" d="M15.5 32C15.5 22.8873 22.8873 15.5 32 15.5C41.1127 15.5 48.5 22.8873 48.5 32C48.5 40.7637 41.6677 47.9316 33.0391 48.4678L32.5149 51.4933C43.0464 51.2204 51.5 42.5974 51.5 32C51.5 21.2304 42.7696 12.5 32 12.5C21.2304 12.5 12.5 21.2304 12.5 32C12.5 40.5262 17.9721 47.7743 25.5959 50.424L26.1164 47.4201C19.909 45.0503 15.5 39.04 15.5 32Z" fill="#DCDEDF"/>
<path fill-rule="evenodd" clip-rule="evenodd" d="M29.5344 32.0515C29.5344 28.8399 29.9705 25.9947 30.634 24.0041C30.9684 23.001 31.3335 22.2975 31.666 21.8755C31.8637 21.6247 31.9947 21.5379 32.0516 21.5096C32.1085 21.5379 32.2394 21.6247 32.4371 21.8755C32.7697 22.2975 33.1348 23.001 33.4691 24.0041C33.4763 24.0258 33.4835 24.0475 33.4907 24.0693C34.5954 24.1315 35.6702 24.2347 36.7006 24.3766C36.5827 23.9132 36.454 23.4719 36.3152 23.0555C35.9226 21.8777 35.422 20.8163 34.7934 20.0186C34.178 19.2378 33.2628 18.5 32.0516 18.5C30.8403 18.5 29.9251 19.2378 29.3098 20.0186C28.6811 20.8163 28.1806 21.8777 27.788 23.0555C26.9976 25.4267 26.5344 28.6072 26.5344 32.0515C26.5344 35.4958 26.9976 38.6763 27.788 41.0475C28.1806 42.2253 28.6811 43.2867 29.3098 44.0844C29.9251 44.8652 30.8403 45.603 32.0516 45.603C33.2628 45.603 34.178 44.8652 34.7934 44.0844C35.422 43.2867 35.9226 42.2253 36.3152 41.0475C36.4646 40.5993 36.6023 40.1221 36.7274 39.6197C35.6994 39.762 34.627 39.8659 33.5246 39.9287C33.5063 39.9861 33.4878 40.0428 33.4691 40.0989C33.1348 41.102 32.7697 41.8055 32.4371 42.2275C32.2394 42.4783 32.1085 42.5651 32.0516 42.5934C31.9947 42.5651 31.8637 42.4783 31.666 42.2275C31.3335 41.8055 30.9684 41.102 30.634 40.0989C29.9705 38.1084 29.5344 35.2631 29.5344 32.0515ZM32.084 21.4968C32.084 21.497 32.0823 21.4975 32.0791 21.498C32.0823 21.497 32.084 21.4967 32.084 21.4968ZM32.0241 21.498C32.0208 21.4975 32.0192 21.497 32.0192 21.4968C32.0192 21.4967 32.0209 21.497 32.0241 21.498ZM32.0201 42.6058C32.0195 42.606 32.0192 42.6061 32.0192 42.6062C32.0192 42.6062 32.0198 42.6061 32.0211 42.6058C32.0219 42.6056 32.0229 42.6054 32.0241 42.605C32.0223 42.6053 32.0209 42.6056 32.0201 42.6058ZM32.0791 42.605C32.0823 42.6055 32.084 42.6061 32.084 42.6062C32.084 42.6063 32.0823 42.606 32.0791 42.605Z" fill="white"/>
<path fill-rule="evenodd" clip-rule="evenodd" d="M24.5365 30.4679C24.353 30.5215 24.1754 30.5769 24.0041 30.634C23.001 30.9683 22.2975 31.3334 21.8755 31.666C21.6247 31.8636 21.5379 31.9946 21.5096 32.0515C21.5379 32.1084 21.6247 32.2394 21.8755 32.437C22.2975 32.7696 23.001 33.1347 24.0041 33.469C24.1675 33.5235 24.3366 33.5764 24.5112 33.6277C24.5325 34.6971 24.584 35.7483 24.6642 36.7716C24.0952 36.6349 23.5572 36.4823 23.0555 36.3151C21.8777 35.9225 20.8163 35.4219 20.0186 34.7933C19.2378 34.1779 18.5 33.2628 18.5 32.0515C18.5 30.8402 19.2378 29.9251 20.0186 29.3097C20.8163 28.6811 21.8777 28.1805 23.0555 27.7879C23.5807 27.6128 24.1457 27.4538 24.7444 27.3123C24.6453 28.3358 24.5755 29.391 24.5365 30.4679ZM31.7388 29.5357C31.8426 29.5348 31.9469 29.5343 32.0515 29.5343C35.2631 29.5343 38.1084 29.9705 40.0989 30.634C41.102 30.9683 41.8055 31.3334 42.2275 31.666C42.4783 31.8636 42.5651 31.9946 42.5934 32.0515C42.5651 32.1084 42.4783 32.2394 42.2275 32.437C41.8055 32.7696 41.102 33.1347 40.0989 33.469C38.1084 34.1325 35.2631 34.5687 32.0515 34.5687C31.9307 34.5687 31.8104 34.568 31.6907 34.5668C31.7367 35.621 31.8171 36.6258 31.9255 37.5685C31.9675 37.5686 32.0095 37.5687 32.0515 37.5687C35.4958 37.5687 38.6763 37.1055 41.0475 36.3151C42.2253 35.9225 43.2867 35.4219 44.0844 34.7933C44.8652 34.1779 45.603 33.2628 45.603 32.0515C45.603 30.8402 44.8652 29.9251 44.0844 29.3097C43.2867 28.6811 42.2253 28.1805 41.0475 27.7879C38.6763 26.9975 35.4958 26.5343 32.0515 26.5343C32.0476 26.5343 32.0437 26.5343 32.0397 26.5343C31.909 27.4684 31.8065 28.4736 31.7388 29.5357ZM21.4968 32.0191C21.497 32.0191 21.4975 32.0208 21.498 32.024C21.497 32.0208 21.4967 32.0191 21.4968 32.0191ZM21.498 32.079C21.4975 32.0822 21.497 32.0839 21.4968 32.0839C21.4967 32.0839 21.497 32.0822 21.498 32.079ZM42.6058 32.0828C42.606 32.0835 42.6061 32.0839 42.6062 32.0839C42.6063 32.0839 42.606 32.0822 42.605 32.079C42.6053 32.0807 42.6056 32.0819 42.6058 32.0828ZM42.605 32.024C42.6055 32.0208 42.6061 32.0191 42.6062 32.0191C42.6063 32.0191 42.606 32.0208 42.605 32.024Z" fill="#DCDEDF"/>
<path fill-rule="evenodd" clip-rule="evenodd" d="M6 30.5C5.17157 30.5 4.5 31.1716 4.5 32C4.5 32.8284 5.17157 33.5 6 33.5H9C9.82843 33.5 10.5 32.8284 10.5 32C10.5 31.1716 9.82843 30.5 9 30.5H6ZM55 30.5C54.1716 30.5 53.5 31.1716 53.5 32C53.5 32.8284 54.1716 33.5 55 33.5H58C58.8284 33.5 59.5 32.8284 59.5 32C59.5 31.1716 58.8284 30.5 58 30.5H55Z" fill="#DCDEDF"/>
<path fill-rule="evenodd" clip-rule="evenodd" d="M37.2945 8.16003C37.4217 7.34142 36.8612 6.57471 36.0426 6.44754C35.224 6.32036 34.4572 6.88088 34.3301 7.69949L32.3511 20.4382C32.2239 21.2568 32.7844 22.0235 33.603 22.1507C34.4216 22.2779 35.1883 21.7174 35.3155 20.8988L37.2945 8.16003ZM31.6688 43.4333C31.7959 42.6147 31.2354 41.848 30.4168 41.7208C29.5982 41.5936 28.8315 42.1542 28.7043 42.9728L26.7054 55.8399C26.5782 56.6585 27.1387 57.4252 27.9573 57.5524C28.7759 57.6796 29.5426 57.1191 29.6698 56.3005L31.6688 43.4333Z" fill="white"/>
<path d="M11.6771 23.7424L9.80368 28.3422L6.23653 24.5773L11.6771 23.7424Z" fill="white"/>
<path d="M9.77637 36.6463C9.12078 40.4029 7.71416 43 6.08469 43C3.82874 43 1.99993 38.0219 1.99993 31.8811C1.99993 25.7403 3.82874 20.7621 6.08469 20.7621C7.35007 20.7621 8.48107 22.3283 9.23032 24.7874" stroke="white" stroke-width="3"/>
<path d="M50 32C50 22.0588 41.9411 14 32 14" stroke="#DCDEDF" stroke-width="3"/>
</svg>
