<svg width="32" height="32" viewBox="0 0 32 32" fill="none" xmlns="http://www.w3.org/2000/svg">
<circle cx="16" cy="16" r="16" fill="white"/>
<path d="M21.1864 21.8667H18.1144L15.9864 18.3147H15.7464H14.4184V21.8667H11.6504V10.6667H16.0024C17.6024 10.6667 18.7864 10.9813 19.5544 11.6107C20.3224 12.24 20.7064 13.1253 20.7064 14.2667C20.7064 15.1307 20.5197 15.856 20.1464 16.4427C19.7837 17.0187 19.2717 17.456 18.6104 17.7547L21.1864 21.8667ZM14.4184 13.0347V15.9467H15.9224C16.4877 15.9467 16.9304 15.8187 17.2504 15.5627C17.5811 15.296 17.7464 14.912 17.7464 14.4107C17.7464 13.952 17.5971 13.6107 17.2984 13.3867C16.9997 13.152 16.5251 13.0347 15.8744 13.0347H14.4184Z" fill="#0E141B"/>
</svg>
