<svg width="64" height="64" viewBox="0 0 64 64" fill="none" xmlns="http://www.w3.org/2000/svg">
<circle cx="32" cy="39" r="25" fill="white"/>
<path d="M40 46H35.8121L32.9111 40.9257H32.5839H30.7735V46H27V30H32.9329C35.1141 30 36.7282 30.4495 37.7752 31.3486C38.8221 32.2476 39.3456 33.5124 39.3456 35.1429C39.3456 36.3771 39.0912 37.4133 38.5822 38.2514C38.0878 39.0743 37.3898 39.699 36.4883 40.1257L40 46ZM30.7735 33.3829V37.5429H32.8238C33.5945 37.5429 34.198 37.36 34.6342 36.9943C35.085 36.6133 35.3104 36.0648 35.3104 35.3486C35.3104 34.6933 35.1068 34.2057 34.6997 33.8857C34.2925 33.5505 33.6454 33.3829 32.7584 33.3829H30.7735Z" fill="black"/>
<path d="M40 10L32 0L24 10H40Z" fill="white"/>
</svg>
