<svg width="64" height="64" viewBox="0 0 64 64" fill="none" xmlns="http://www.w3.org/2000/svg">
<g clip-path="url(#clip0_1967:18260)">
<path fill-rule="evenodd" clip-rule="evenodd" d="M24.6559 9.61644L31.6365 17.4696L38.617 9.61649C50.5004 12.7092 59.2727 23.512 59.2727 36.3637C59.2727 51.6268 46.8995 64 31.6364 64C16.3732 64 4 51.6268 4 36.3637C4 23.5119 12.7724 12.7091 24.6559 9.61644ZM27.9718 8.96811L31.6365 13.0909L35.3011 8.96814C34.1021 8.80928 32.8788 8.72729 31.6364 8.72729C30.394 8.72729 29.1708 8.80927 27.9718 8.96811Z" fill="white"/>
<path d="M20 1.5H16.6597L18.8789 3.99655L30.5153 17.0875L31.6364 18.3487L32.7575 17.0875L44.3937 3.99654L46.6129 1.5H43.2726H20Z" fill="black" stroke="white" stroke-width="3"/>
<path d="M30.9531 43.6526H26.9852L24.2367 39.1158H23.9267H22.2114V43.6526H18.6362V29.3474H24.2573C26.3239 29.3474 27.8532 29.7493 28.8451 30.5531C29.8371 31.3569 30.3331 32.4877 30.3331 33.9455C30.3331 35.049 30.092 35.9755 29.6098 36.7248C29.1414 37.4605 28.48 38.0191 27.6259 38.4005L30.9531 43.6526ZM22.2114 32.3719V36.0913H24.154C24.8842 36.0913 25.456 35.9278 25.8693 35.6008C26.2964 35.2602 26.5099 34.7697 26.5099 34.1294C26.5099 33.5436 26.317 33.1076 25.9313 32.8215C25.5455 32.5218 24.9324 32.3719 24.092 32.3719H22.2114Z" fill="black"/>
<path d="M38.7051 29C40.4686 29 41.7981 29.3406 42.6936 30.0218C43.5892 30.703 44.0369 31.5817 44.0369 32.658C44.0369 33.3528 43.8303 33.9727 43.4169 34.5177C43.0036 35.0627 42.4043 35.4986 41.619 35.8256V35.9073C42.5421 36.0981 43.2723 36.4864 43.8096 37.0722C44.3607 37.658 44.6362 38.4482 44.6362 39.4428C44.6362 40.3556 44.3676 41.1594 43.8303 41.8542C43.2929 42.5354 42.5628 43.0667 41.6397 43.4482C40.7304 43.8161 39.7247 44 38.6225 44C37.5479 44 36.5283 43.8569 35.5639 43.5708C34.5995 43.2847 33.7936 42.876 33.146 42.3447L34.6133 39.7289C35.6053 40.5872 36.8314 41.0163 38.2918 41.0163C39.0909 41.0163 39.7109 40.8597 40.1517 40.5463C40.6064 40.2193 40.8337 39.7697 40.8337 39.1975C40.8337 38.0804 39.9933 37.5218 38.3125 37.5218H36.2872V34.906H38.0645C38.7671 34.906 39.3113 34.7834 39.6971 34.5381C40.0966 34.2793 40.2964 33.9182 40.2964 33.455C40.2964 33.0191 40.0966 32.6648 39.6971 32.3924C39.3113 32.1199 38.7671 31.9836 38.0645 31.9836C37.4996 31.9836 36.9417 32.079 36.3906 32.2697C35.8395 32.4469 35.3504 32.6921 34.9233 33.0054L33.4354 30.737C34.1518 30.1648 34.9577 29.7357 35.8533 29.4496C36.7626 29.1498 37.7132 29 38.7051 29Z" fill="black"/>
</g>
<defs>
<clipPath id="clip0_1967:18260">
<rect width="64" height="64" fill="white"/>
</clipPath>
</defs>
</svg>
