<svg width="32" height="32" viewBox="0 0 32 32" fill="none" xmlns="http://www.w3.org/2000/svg">
<path fill-rule="evenodd" clip-rule="evenodd" d="M15.375 23.625C19.9313 23.625 23.625 19.9313 23.625 15.375C23.625 10.8186 19.9313 7.12497 15.375 7.12497C10.969 7.12497 7.36966 10.5789 7.13696 14.9269L5.62682 15.1847C5.72818 9.88776 10.0538 5.62497 15.375 5.62497C20.7598 5.62497 25.125 9.99019 25.125 15.375C25.125 20.7597 20.7598 25.125 15.375 25.125C11.1354 25.125 7.52787 22.4191 6.18515 18.6401L7.69057 18.383C8.89276 21.4518 11.8801 23.625 15.375 23.625Z" fill="#DCDEDF"/>
<path fill-rule="evenodd" clip-rule="evenodd" d="M14.0906 15.3492C14.0906 16.955 14.3086 18.3776 14.6404 19.3729C14.8076 19.8744 14.9901 20.2262 15.1564 20.4372C15.2552 20.5626 15.3207 20.606 15.3492 20.6202C15.3776 20.606 15.4431 20.5626 15.5419 20.4372C15.7082 20.2262 15.8907 19.8744 16.0579 19.3729C16.0615 19.3621 16.0651 19.3512 16.0687 19.3403C16.6211 19.3092 17.1585 19.2576 17.6737 19.1867C17.6147 19.4183 17.5504 19.639 17.481 19.8472C17.2847 20.4361 17.0344 20.9668 16.7201 21.3657C16.4124 21.7561 15.9548 22.125 15.3492 22.125C14.7435 22.125 14.2859 21.7561 13.9783 21.3657C13.6639 20.9668 13.4137 20.4361 13.2174 19.8472C12.8222 18.6616 12.5906 17.0714 12.5906 15.3492C12.5906 13.6271 12.8222 12.0368 13.2174 10.8512C13.4137 10.2623 13.6639 9.73162 13.9783 9.33276C14.2859 8.94236 14.7435 8.57346 15.3492 8.57346C15.9548 8.57346 16.4124 8.94236 16.7201 9.33276C17.0344 9.73162 17.2847 10.2623 17.481 10.8512C17.5557 11.0753 17.6245 11.3139 17.6871 11.5651C17.1731 11.494 16.6369 11.442 16.0857 11.4106C16.0765 11.3819 16.0673 11.3535 16.0579 11.3255C15.8907 10.824 15.7082 10.4722 15.5419 10.2612C15.4431 10.1358 15.3776 10.0924 15.3492 10.0783C15.3207 10.0924 15.2552 10.1358 15.1564 10.2612C14.9901 10.4722 14.8076 10.824 14.6404 11.3255C14.3086 12.3208 14.0906 13.7434 14.0906 15.3492ZM15.3653 20.6265C15.3654 20.6265 15.3645 20.6262 15.3629 20.6259C15.3645 20.6265 15.3653 20.6266 15.3653 20.6265ZM15.3354 20.6259C15.3338 20.6262 15.333 20.6265 15.333 20.6265C15.333 20.6266 15.3338 20.6265 15.3354 20.6259ZM15.3334 10.072C15.3331 10.072 15.333 10.0719 15.333 10.0719C15.333 10.0718 15.3333 10.0719 15.3339 10.072C15.3343 10.0721 15.3348 10.0723 15.3354 10.0725C15.3345 10.0723 15.3338 10.0722 15.3334 10.072ZM15.3629 10.0725C15.3645 10.0722 15.3653 10.0719 15.3653 10.0719C15.3653 10.0718 15.3645 10.072 15.3629 10.0725Z" fill="#DCDEDF"/>
<path fill-rule="evenodd" clip-rule="evenodd" d="M11.5918 16.141C11.5 16.1142 11.4112 16.0865 11.3256 16.058C10.824 15.8908 10.4722 15.7083 10.2613 15.542C10.1358 15.4431 10.0924 15.3777 10.0783 15.3492C10.0924 15.3208 10.1358 15.2553 10.2613 15.1564C10.4722 14.9902 10.824 14.8076 11.3256 14.6404C11.4072 14.6132 11.4918 14.5868 11.5791 14.5611C11.5897 14.0264 11.6155 13.5008 11.6556 12.9892C11.3711 13.0575 11.1021 13.1338 10.8512 13.2174C10.2623 13.4137 9.73164 13.664 9.33279 13.9783C8.94239 14.286 8.57349 14.7436 8.57349 15.3492C8.57349 15.9548 8.94239 16.4124 9.33279 16.7201C9.73164 17.0344 10.2623 17.2847 10.8512 17.481C11.1138 17.5685 11.3963 17.6481 11.6957 17.7188C11.6461 17.2071 11.6112 16.6795 11.5918 16.141ZM15.1929 16.6071C15.2448 16.6076 15.2969 16.6078 15.3492 16.6078C16.955 16.6078 18.3777 16.3897 19.3729 16.058C19.8745 15.8908 20.2262 15.7083 20.4372 15.542C20.5626 15.4431 20.606 15.3777 20.6202 15.3492C20.606 15.3208 20.5626 15.2553 20.4372 15.1564C20.2262 14.9902 19.8745 14.8076 19.3729 14.6404C18.3777 14.3087 16.955 14.0906 15.3492 14.0906C15.2888 14.0906 15.2287 14.0909 15.1688 14.0915C15.1919 13.5644 15.232 13.0621 15.2862 12.5907C15.3072 12.5907 15.3282 12.5906 15.3492 12.5906C17.0714 12.5906 18.6616 12.8222 19.8473 13.2174C20.4362 13.4137 20.9668 13.664 21.3657 13.9783C21.7561 14.286 22.125 14.7436 22.125 15.3492C22.125 15.9548 21.7561 16.4124 21.3657 16.7201C20.9668 17.0344 20.4362 17.2847 19.8473 17.481C18.6616 17.8762 17.0714 18.1078 15.3492 18.1078C15.3473 18.1078 15.3453 18.1078 15.3434 18.1078C15.278 17.6408 15.2267 17.1382 15.1929 16.6071ZM10.0719 15.3654C10.072 15.3654 10.0722 15.3646 10.0725 15.3629C10.072 15.3646 10.0719 15.3654 10.0719 15.3654ZM10.0725 15.3355C10.0722 15.3338 10.072 15.333 10.0719 15.333C10.0719 15.333 10.072 15.3339 10.0725 15.3355ZM20.6264 15.3336C20.6265 15.3332 20.6265 15.333 20.6266 15.333C20.6266 15.333 20.6265 15.3339 20.626 15.3355C20.6261 15.3346 20.6263 15.334 20.6264 15.3336ZM20.626 15.3629C20.6263 15.3646 20.6265 15.3654 20.6266 15.3654C20.6266 15.3654 20.6265 15.3646 20.626 15.3629Z" fill="white"/>
<path fill-rule="evenodd" clip-rule="evenodd" d="M16.125 28.375C16.125 28.7892 15.7892 29.125 15.375 29.125C14.9608 29.125 14.625 28.7892 14.625 28.375V26.875C14.625 26.4608 14.9608 26.125 15.375 26.125C15.7892 26.125 16.125 26.4608 16.125 26.875V28.375ZM16.125 3.87497C16.125 4.28918 15.7892 4.62497 15.375 4.62497C14.9608 4.62497 14.625 4.28918 14.625 3.87497V2.37497C14.625 1.96076 14.9608 1.62497 15.375 1.62497C15.7892 1.62497 16.125 1.96076 16.125 2.37497V3.87497Z" fill="#DCDEDF"/>
<path fill-rule="evenodd" clip-rule="evenodd" d="M27.295 12.7277C27.7043 12.6641 28.0877 12.9443 28.1513 13.3536C28.2149 13.7629 27.9346 14.1463 27.5253 14.2099L21.1559 15.1994C20.7466 15.263 20.3633 14.9827 20.2997 14.5734C20.2361 14.1641 20.5164 13.7808 20.9257 13.7172L27.295 12.7277ZM9.65841 15.5405C10.0677 15.477 10.4511 15.7572 10.5147 16.1665C10.5782 16.5758 10.298 16.9592 9.88868 17.0228L3.4551 18.0222C3.0458 18.0858 2.66244 17.8056 2.59886 17.3963C2.53527 16.987 2.81553 16.6036 3.22483 16.54L9.65841 15.5405Z" fill="white"/>
<path d="M19.5037 25.5363L17.2038 26.473L19.0862 28.2566L19.5037 25.5363Z" fill="white"/>
<path fill-rule="evenodd" clip-rule="evenodd" d="M10.6256 28.3279C10.625 28.3304 10.625 28.3318 10.625 28.3326V28.3326C10.625 28.3333 10.625 28.3358 10.6266 28.3416C10.6283 28.3478 10.6326 28.3602 10.6432 28.3792C10.6653 28.4189 10.712 28.4817 10.8037 28.5613C10.9917 28.7246 11.3071 28.9057 11.762 29.0728C12.6656 29.4047 13.9639 29.625 15.4345 29.625C16.905 29.625 18.2033 29.4047 19.107 29.0728C19.5618 28.9057 19.8773 28.7246 20.0652 28.5613C20.1569 28.4817 20.2037 28.4189 20.2258 28.3792C20.2364 28.3602 20.2406 28.3478 20.2423 28.3416C20.2439 28.3358 20.2439 28.3333 20.2439 28.3326V28.3325C20.2439 28.3318 20.2439 28.3286 20.2416 28.321C20.239 28.3125 20.2325 28.2958 20.2168 28.2708C20.184 28.2184 20.1172 28.1401 19.993 28.0451C19.7406 27.852 19.3298 27.65 18.7627 27.4772L19.1999 26.0423C19.8623 26.2442 20.4578 26.5122 20.9043 26.8537C21.3411 27.1877 21.7439 27.6819 21.7439 28.3326C21.7439 28.9123 21.4217 29.37 21.0489 29.6938C20.6742 30.0192 20.1755 30.2782 19.6242 30.4808C18.5158 30.888 17.0343 31.125 15.4345 31.125C13.8346 31.125 12.3532 30.888 11.2447 30.4808C10.6934 30.2782 10.1948 30.0192 9.82008 29.6938C9.44727 29.37 9.125 28.9123 9.125 28.3326C9.125 27.4996 9.77224 26.926 10.3879 26.5754C11.0484 26.1991 11.9342 25.9205 12.9229 25.7479L13.1808 27.2256C12.2912 27.3808 11.5885 27.6177 11.1303 27.8788C10.9015 28.009 10.7633 28.1287 10.6889 28.22C10.6534 28.2637 10.6375 28.2947 10.6307 28.3116C10.6274 28.3199 10.6261 28.3252 10.6256 28.3279Z" fill="white"/>
<path fill-rule="evenodd" clip-rule="evenodd" d="M15.375 7.12496C19.9313 7.12496 23.625 10.8186 23.625 15.375H25.125C25.125 9.99019 20.7598 5.62496 15.375 5.62496V7.12496Z" fill="#DCDEDF"/>
</svg>
