<svg width="32" height="32" viewBox="0 0 32 32" fill="none" xmlns="http://www.w3.org/2000/svg">
<path fill-rule="evenodd" clip-rule="evenodd" d="M16 7.75C11.4437 7.75 7.75 11.4437 7.75 16C7.75 20.5563 11.4437 24.25 16 24.25C20.5563 24.25 24.25 20.5563 24.25 16C24.25 11.4437 20.5563 7.75 16 7.75ZM6.25 16C6.25 10.6152 10.6152 6.25 16 6.25C21.3848 6.25 25.75 10.6152 25.75 16C25.75 21.3848 21.3848 25.75 16 25.75C10.6152 25.75 6.25 21.3848 6.25 16Z" fill="white"/>
<path fill-rule="evenodd" clip-rule="evenodd" d="M16.0258 17.2843C14.42 17.2843 12.9973 17.0663 12.0021 16.7345C11.5005 16.5673 11.1487 16.3848 10.9378 16.2185C10.8123 16.1197 10.769 16.0542 10.7548 16.0257C10.769 15.9973 10.8123 15.9318 10.9378 15.833C11.1487 15.6667 11.5005 15.4842 12.0021 15.317C12.0119 15.3137 12.0218 15.3104 12.0318 15.3072C12.0615 14.7554 12.1116 14.2183 12.181 13.7031C11.952 13.7615 11.7338 13.8253 11.5277 13.894C10.9388 14.0903 10.4082 14.3405 10.0093 14.6549C9.6189 14.9625 9.25 15.4201 9.25 16.0257C9.25 16.6314 9.6189 17.089 10.0093 17.3966C10.4082 17.711 10.9388 17.9612 11.5277 18.1575C12.7134 18.5528 14.3036 18.7843 16.0258 18.7843C17.7479 18.7843 19.3381 18.5528 20.5238 18.1575C21.1127 17.9612 21.6433 17.711 22.0422 17.3966C22.4326 17.089 22.8015 16.6314 22.8015 16.0257C22.8015 15.4201 22.4326 14.9625 22.0422 14.6549C21.6433 14.3405 21.1127 14.0903 20.5238 13.894C20.3018 13.82 20.0657 13.7517 19.8171 13.6896C19.8868 14.2037 19.9372 14.7396 19.9673 15.2902C19.995 15.299 20.0224 15.308 20.0494 15.317C20.551 15.4842 20.9028 15.6667 21.1137 15.833C21.2392 15.9318 21.2826 15.9973 21.2967 16.0257C21.2826 16.0542 21.2392 16.1197 21.1137 16.2185C20.9028 16.3848 20.551 16.5673 20.0494 16.7345C19.0542 17.0663 17.6315 17.2843 16.0258 17.2843ZM10.7484 16.0096C10.7485 16.0096 10.7487 16.0104 10.749 16.012C10.7485 16.0104 10.7484 16.0096 10.7484 16.0096ZM10.749 16.0395C10.7487 16.0411 10.7485 16.0419 10.7484 16.0419C10.7484 16.0419 10.7485 16.0411 10.749 16.0395ZM21.3029 16.0415C21.303 16.0418 21.3031 16.0419 21.3031 16.0419C21.3031 16.0419 21.3031 16.0416 21.3029 16.041C21.3028 16.0406 21.3027 16.0401 21.3025 16.0395C21.3026 16.0404 21.3028 16.0411 21.3029 16.0415ZM21.3025 16.012C21.3028 16.0104 21.303 16.0096 21.3031 16.0096C21.3031 16.0096 21.303 16.0104 21.3025 16.012Z" fill="white"/>
<path fill-rule="evenodd" clip-rule="evenodd" d="M15.2191 19.7312C15.2505 19.8416 15.2832 19.9477 15.3171 20.0494C15.4843 20.551 15.6668 20.9028 15.8331 21.1137C15.9319 21.2392 15.9974 21.2825 16.0259 21.2967C16.0543 21.2825 16.1198 21.2392 16.2186 21.1137C16.3849 20.9028 16.5675 20.551 16.7346 20.0494C16.7672 19.9517 16.7987 19.8498 16.829 19.7441C17.3629 19.7332 17.8876 19.7072 18.3984 19.6669C18.3269 19.9709 18.2464 20.2575 18.1577 20.5238C17.9614 21.1127 17.7111 21.6433 17.3968 22.0422C17.0891 22.4326 16.6315 22.8015 16.0259 22.8015C15.4202 22.8015 14.9626 22.4326 14.655 22.0422C14.3406 21.6433 14.0904 21.1127 13.8941 20.5238C13.8014 20.2458 13.7177 19.9456 13.6439 19.6266C14.1548 19.6763 14.6815 19.7114 15.2191 19.7312ZM14.7676 16.1306C14.7674 16.0957 14.7673 16.0608 14.7673 16.0257C14.7673 14.42 14.9853 12.9973 15.3171 12.0021C15.4843 11.5005 15.6668 11.1487 15.8331 10.9378C15.9319 10.8123 15.9974 10.7689 16.0259 10.7548C16.0543 10.7689 16.1198 10.8123 16.2186 10.9378C16.3849 11.1487 16.5675 11.5005 16.7346 12.0021C17.0664 12.9973 17.2844 14.42 17.2844 16.0257C17.2844 16.0688 17.2843 16.1118 17.284 16.1546C17.8109 16.1316 18.3132 16.0915 18.7844 16.0372C18.7844 16.0334 18.7844 16.0296 18.7844 16.0257C18.7844 14.3036 18.5529 12.7134 18.1577 11.5277C17.9614 10.9388 17.7111 10.4082 17.3968 10.0093C17.0891 9.6189 16.6315 9.25 16.0259 9.25C15.4202 9.25 14.9626 9.6189 14.655 10.0093C14.3406 10.4082 14.0904 10.9388 13.8941 11.5277C13.5023 12.7029 13.2714 14.2755 13.2673 15.9801C13.7342 16.0455 14.2367 16.0967 14.7676 16.1306ZM16.0121 21.3025C16.0105 21.3028 16.0097 21.303 16.0097 21.3031C16.0097 21.3031 16.0098 21.3031 16.0101 21.303C16.0105 21.3029 16.0112 21.3028 16.0121 21.3025ZM16.0396 21.3025C16.0412 21.3028 16.0421 21.303 16.042 21.3031C16.042 21.3031 16.0412 21.303 16.0396 21.3025ZM16.0415 10.7486C16.0419 10.7485 16.0421 10.7484 16.042 10.7484C16.042 10.7484 16.0412 10.7485 16.0396 10.749C16.0404 10.7489 16.0411 10.7487 16.0415 10.7486ZM16.0121 10.749C16.0105 10.7487 16.0097 10.7485 16.0097 10.7484C16.0097 10.7484 16.0105 10.7485 16.0121 10.749Z" fill="white"/>
<path fill-rule="evenodd" clip-rule="evenodd" d="M3 16.75C2.58579 16.75 2.25 16.4142 2.25 16C2.25 15.5858 2.58579 15.25 3 15.25H4.5C4.91421 15.25 5.25 15.5858 5.25 16C5.25 16.4142 4.91421 16.75 4.5 16.75H3ZM27.5 16.75C27.0858 16.75 26.75 16.4142 26.75 16C26.75 15.5858 27.0858 15.25 27.5 15.25L29 15.25C29.4142 15.25 29.75 15.5858 29.75 16C29.75 16.4142 29.4142 16.75 29 16.75H27.5Z" fill="white"/>
<path fill-rule="evenodd" clip-rule="evenodd" d="M16.75 29C16.75 29.4142 16.4142 29.75 16 29.75C15.5858 29.75 15.25 29.4142 15.25 29V27.5C15.25 27.0858 15.5858 26.75 16 26.75C16.4142 26.75 16.75 27.0858 16.75 27.5V29ZM16.75 4.5C16.75 4.91421 16.4142 5.25 16 5.25C15.5858 5.25 15.25 4.91421 15.25 4.5V3C15.25 2.58579 15.5858 2.25 16 2.25C16.4142 2.25 16.75 2.58579 16.75 3V4.5Z" fill="white"/>
</svg>
