<svg width="32" height="32" viewBox="0 0 32 32" fill="none" xmlns="http://www.w3.org/2000/svg">
<path fill-rule="evenodd" clip-rule="evenodd" d="M0 11.4152C0 8.60329 2.14783 6.22223 4.91852 6.22223H27.0815C29.8522 6.22223 32 8.60329 32 11.4152C32 14.2271 29.8522 16.6082 27.0815 16.6082H23.9407V27.5556H22.163V14.8304H27.0815C28.7618 14.8304 30.2222 13.3575 30.2222 11.4152C30.2222 9.47297 28.7618 8.00001 27.0815 8.00001H4.91852C3.2382 8.00001 1.77778 9.47297 1.77778 11.4152C1.77778 13.3575 3.2382 14.8304 4.91852 14.8304H9.83704V27.5556H8.05926V16.6082H4.91852C2.14783 16.6082 0 14.2271 0 11.4152Z" fill="white"/>
<path d="M19.1078 24.8889H13.4455V16.8H15.4446V23.0863H19.1078V24.8889Z" fill="white"/>
</svg>
