<svg width="32" height="32" viewBox="0 0 32 32" fill="none" xmlns="http://www.w3.org/2000/svg">
<g clip-path="url(#clip0_8402_712)">
<rect width="32" height="32" rx="2" fill="white"/>
<path d="M21.6883 17.952L25.1763 10H27.5603V21.2H25.3042V14.08L22.2963 20.88H20.8723L17.8003 14.16V21.2H15.6562V10H17.9123L21.6883 17.952Z" fill="#0E141B"/>
<path d="M14.152 21.2H11.544L9.288 17.424H9.016H7.352V21.2H5V10H9.192C10.728 10 11.8587 10.3093 12.584 10.928C13.3093 11.536 13.672 12.3893 13.672 13.488C13.672 14.352 13.48 15.072 13.096 15.648C12.7227 16.224 12.1947 16.6613 11.512 16.96L14.152 21.2ZM7.352 12V15.408H9.192C9.81067 15.408 10.2907 15.2533 10.632 14.944C10.984 14.624 11.16 14.1867 11.16 13.632C11.16 13.088 10.9893 12.6827 10.648 12.416C10.3173 12.1387 9.784 12 9.048 12H7.352Z" fill="#0E141B"/>
</g>
<defs>
<clipPath id="clip0_8402_712">
<rect width="32" height="32" fill="white"/>
</clipPath>
</defs>
</svg>
