<svg width="32" height="32" viewBox="0 0 32 32" fill="none" xmlns="http://www.w3.org/2000/svg">
<path fill-rule="evenodd" clip-rule="evenodd" d="M19.2303 7.49715C19.983 6.70095 20.4446 5.6266 20.4446 4.44444C20.4446 1.98985 18.4547 0 16.0001 0C13.5455 0 11.5557 1.98985 11.5557 4.44444C11.5557 5.62662 12.0172 6.70099 12.7699 7.49718C12.7987 7.52758 12.8278 7.55757 12.8574 7.58714C13.4527 8.18243 14.2161 8.60964 15.0702 8.79146C15.3701 8.8553 15.6812 8.88889 16.0001 8.88889C16.3191 8.88889 16.6302 8.85529 16.9301 8.79144C16.9908 8.77851 17.0511 8.76434 17.1108 8.74897C17.9337 8.53726 18.6643 8.09584 19.2303 7.49715ZM5.31958 17.6806C5.31958 13.6488 7.55361 10.1387 10.8513 8.32075C11.2208 8.81066 11.6585 9.24617 12.1503 9.61312C9.14163 11.0515 7.06323 14.1234 7.06323 17.6807C7.06323 22.6165 11.0645 26.6178 16.0003 26.6178C20.9361 26.6178 24.9374 22.6165 24.9374 17.6807C24.9374 14.1233 22.8589 11.0513 19.85 9.61301C20.3419 9.24607 20.7795 8.81057 21.1489 8.32068C24.4467 10.1386 26.6808 13.6487 26.6808 17.6806C26.6808 23.5794 21.8989 28.3612 16.0002 28.3612C10.1015 28.3612 5.31958 23.5794 5.31958 17.6806ZM7.89459 17.6807C7.89459 14.2644 10.0081 11.3417 12.9989 10.1489C13.8952 10.6214 14.9164 10.8889 16.0001 10.8889C17.0839 10.8889 18.1051 10.6214 19.0015 10.1488C21.9924 11.3416 24.106 14.2643 24.106 17.6807C24.106 22.1574 20.477 25.7864 16.0003 25.7864C11.5236 25.7864 7.89459 22.1574 7.89459 17.6807Z" fill="white"/>
<path d="M19.0133 21.3426H13.7798V13.8662H15.6275V19.6765H19.0133V21.3426Z" fill="#0E141B"/>
</svg>
