<svg width="32" height="32" viewBox="0 0 32 32" fill="none" xmlns="http://www.w3.org/2000/svg">
<path fill-rule="evenodd" clip-rule="evenodd" d="M16 28.5C22.9036 28.5 28.5 22.9036 28.5 16C28.5 9.09644 22.9036 3.5 16 3.5C9.09644 3.5 3.5 9.09644 3.5 16C3.5 22.9036 9.09644 28.5 16 28.5ZM16 30C23.732 30 30 23.732 30 16C30 8.26801 23.732 2 16 2C8.26801 2 2 8.26801 2 16C2 23.732 8.26801 30 16 30Z" fill="white"/>
<path d="M18.5059 9H22.0775L17.3538 15.4221L22.5 22.5H19.0436L15.8944 17.5821L12.8796 22.5H9.5L14.2814 15.5186L9.69202 9H13.1677L15.8368 13.3393L18.5059 9Z" fill="white"/>
</svg>
