<svg width="32" height="32" viewBox="0 0 32 32" fill="none" xmlns="http://www.w3.org/2000/svg">
<g clip-path="url(#clip0_2700_24186)">
<path fill-rule="evenodd" clip-rule="evenodd" d="M15.1112 1.77778V0H13.3334V1.77778C13.3334 2.2687 13.7314 2.66667 14.2223 2.66667C14.7132 2.66667 15.1112 2.2687 15.1112 1.77778ZM14.2223 4.44444C15.6951 4.44444 16.889 5.63835 16.889 7.11111V14.2222L27.5556 16.635V32H11.5556L2.66675 22.6667L3.8478 21.6168C5.43075 20.2098 7.8361 20.2805 9.33368 21.778L11.5556 24V7.11339L11.5556 7.11111C11.5556 5.63835 12.7495 4.44444 14.2223 4.44444ZM8.52078 2.66669L9.77786 3.92377C10.125 4.2709 10.6878 4.2709 11.0349 3.92377C11.3821 3.57664 11.3821 3.01383 11.0349 2.66669L9.77786 1.40961L8.52078 2.66669ZM18.6667 3.92377L19.9238 2.66669L18.6667 1.40961L17.4097 2.66669C17.0625 3.01383 17.0625 3.57664 17.4097 3.92377C17.7568 4.2709 18.3196 4.2709 18.6667 3.92377Z" fill="white"/>
</g>
<defs>
<clipPath id="clip0_2700_24186">
<rect width="32" height="32" fill="white"/>
</clipPath>
</defs>
</svg>
