<svg width="32" height="32" viewBox="0 0 32 32" fill="none" xmlns="http://www.w3.org/2000/svg">
<circle cx="16.0001" cy="19.5556" r="12.4444" fill="white"/>
<path d="M20.0338 24H17.6445L15.9894 21.2374H15.8027H14.7698V24H12.6169V15.2889H16.0018C17.2463 15.2889 18.1672 15.5337 18.7645 16.0231C19.3618 16.5126 19.6605 17.2012 19.6605 18.0889C19.6605 18.7609 19.5153 19.3251 19.2249 19.7814C18.9429 20.2294 18.5446 20.5695 18.0303 20.8018L20.0338 24ZM14.7698 17.1307V19.3956H15.9396C16.3793 19.3956 16.7236 19.296 16.9725 19.0969C17.2297 18.8895 17.3583 18.5908 17.3583 18.2009C17.3583 17.8442 17.2421 17.5787 17.0098 17.4045C16.7775 17.2219 16.4084 17.1307 15.9023 17.1307H14.7698Z" fill="#0E141B"/>
<path d="M21.3334 0H10.6667L16.0001 5.33333L21.3334 0Z" fill="white"/>
</svg>
