<svg width="32" height="32" viewBox="0 0 32 32" fill="none" xmlns="http://www.w3.org/2000/svg">
<path fill-rule="evenodd" clip-rule="evenodd" d="M16.0001 8.88889C18.4547 8.88889 20.4446 6.89904 20.4446 4.44444C20.4446 1.98985 18.4547 0 16.0001 0C13.5455 0 11.5557 1.98985 11.5557 4.44444C11.5557 6.89904 13.5455 8.88889 16.0001 8.88889ZM3.55566 19.5555C3.55566 14.4594 6.61885 10.0788 11.0044 8.1544C12.1385 9.67898 13.954 10.6666 16.0001 10.6666C18.0463 10.6666 19.8617 9.67898 20.9958 8.1544C25.3814 10.0788 28.4446 14.4594 28.4446 19.5555C28.4446 26.4284 22.873 32 16.0001 32C9.12723 32 3.55566 26.4284 3.55566 19.5555Z" fill="white"/>
<path d="M20.0338 24H17.6445L15.9894 21.2373H15.8027H14.7698V24H12.6169V15.2888H16.0018C17.2463 15.2888 18.1672 15.5336 18.7645 16.0231C19.3618 16.5126 19.6605 17.2011 19.6605 18.0889C19.6605 18.7609 19.5153 19.325 19.2249 19.7813C18.9429 20.2293 18.5446 20.5694 18.0303 20.8017L20.0338 24ZM14.7698 17.1306V19.3955H15.9396C16.3793 19.3955 16.7236 19.296 16.9725 19.0968C17.2297 18.8894 17.3583 18.5908 17.3583 18.2008C17.3583 17.8441 17.2421 17.5786 17.0098 17.4044C16.7775 17.2219 16.4084 17.1306 15.9023 17.1306H14.7698Z" fill="#0E141B"/>
</svg>
