<svg width="32" height="32" viewBox="0 0 32 32" fill="none" xmlns="http://www.w3.org/2000/svg">
<circle cx="12.4444" cy="16" r="12.4444" fill="white"/>
<path d="M16.4784 20.4445H14.0891L12.434 17.6818H12.2473H11.2144V20.4445H9.06152V11.7333H12.4464C13.6909 11.7333 14.6117 11.9781 15.2091 12.4676C15.8064 12.957 16.1051 13.6456 16.1051 14.5333C16.1051 15.2053 15.9599 15.7695 15.6695 16.2258C15.3874 16.6738 14.9892 17.0139 14.4749 17.2462L16.4784 20.4445ZM11.2144 13.5751V15.84H12.3842C12.8239 15.84 13.1682 15.7404 13.4171 15.5413C13.6743 15.3339 13.8029 15.0353 13.8029 14.6453C13.8029 14.2886 13.6867 14.0231 13.4544 13.8489C13.2221 13.6664 12.8529 13.5751 12.3469 13.5751H11.2144Z" fill="#0E141B"/>
<path d="M26.6667 10.6667V21.3333L32.0001 16L26.6667 10.6667Z" fill="white"/>
</svg>
