<svg width="64" height="64" viewBox="0 0 64 64" fill="none" xmlns="http://www.w3.org/2000/svg">
<circle cx="25" cy="32" r="25" fill="white"/>
<path d="M32 40H27.8121L24.9111 34.9257H24.5839H22.7735V40H19V24H24.9329C27.1141 24 28.7282 24.4495 29.7752 25.3486C30.8221 26.2476 31.3456 27.5124 31.3456 29.1429C31.3456 30.3771 31.0912 31.4133 30.5822 32.2514C30.0878 33.0743 29.3898 33.699 28.4883 34.1257L32 40ZM22.7735 27.3829V31.5429H24.8238C25.5945 31.5429 26.198 31.36 26.6342 30.9943C27.085 30.6133 27.3104 30.0648 27.3104 29.3486C27.3104 28.6933 27.1068 28.2057 26.6997 27.8857C26.2925 27.5505 25.6454 27.3829 24.7584 27.3829H22.7735Z" fill="black"/>
<path d="M54 24L64 32L54 40V24Z" fill="white"/>
</svg>
