<svg width="32" height="32" viewBox="0 0 32 32" fill="none" xmlns="http://www.w3.org/2000/svg">
<circle cx="19.5555" cy="16" r="12.4444" fill="white"/>
<path d="M23.5895 20.4445H21.2002L19.5451 17.6818H19.3584H18.3255V20.4445H16.1726V11.7333H19.5575C20.8019 11.7333 21.7228 11.9781 22.3202 12.4676C22.9175 12.957 23.2162 13.6456 23.2162 14.5333C23.2162 15.2053 23.071 15.7695 22.7806 16.2258C22.4985 16.6738 22.1003 17.0139 21.5859 17.2462L23.5895 20.4445ZM18.3255 13.5751V15.84H19.4953C19.935 15.84 20.2793 15.7404 20.5282 15.5413C20.7853 15.3339 20.9139 15.0353 20.9139 14.6453C20.9139 14.2886 20.7978 14.0231 20.5655 13.8489C20.3332 13.6664 19.964 13.5751 19.4579 13.5751H18.3255Z" fill="#0E141B"/>
<path d="M5.33325 10.6667L5.33325 21.3333L-8.15392e-05 16L5.33325 10.6667Z" fill="white"/>
</svg>
