<svg width="32" height="32" viewBox="0 0 32 32" fill="none" xmlns="http://www.w3.org/2000/svg">
<path d="M21.3334 0.888916H10.6667L16.0001 6.22225L21.3334 0.888916Z" fill="white"/>
<path fill-rule="evenodd" clip-rule="evenodd" d="M4.91852 8C2.18423 8 0 10.2593 0 13.0058C0 15.7524 2.18423 18.0117 4.91852 18.0117H6.04444V28.4444H24.1778H25.9556V18.0117H27.0815C29.8158 18.0117 32 15.7524 32 13.0058C32 10.2593 29.8158 8 27.0815 8H4.91852Z" fill="white"/>
<path d="M19.877 23.4861H17.3791L15.6487 20.5979H14.3738V23.4861H12.123V14.3792H15.6617C16.9627 14.3792 17.9255 14.635 18.5499 15.1467C19.1744 15.6585 19.4867 16.3783 19.4867 17.3064C19.4867 18.0089 19.3349 18.5987 19.0313 19.0757C18.7364 19.5441 18.3201 19.8997 17.7824 20.1425L19.877 23.4861ZM14.3738 16.3046V18.6724H15.5967C16.0564 18.6724 16.4163 18.5683 16.6765 18.3602C16.9454 18.1434 17.0798 17.8311 17.0798 17.4235C17.0798 17.0505 16.9584 16.773 16.7155 16.5908C16.4727 16.4 16.0867 16.3046 15.5577 16.3046H14.3738Z" fill="#0E141B"/>
</svg>
