<svg width="32" height="32" viewBox="0 0 32 32" fill="none" xmlns="http://www.w3.org/2000/svg">
<g clip-path="url(#clip0_8144_1510)">
<rect width="32" height="32" rx="2" fill="white"/>
<path d="M21.9689 19.36H27.3609V21.392H18.9929V19.44L22.2249 16.752L22.4969 16.512C22.9876 16.096 23.3609 15.76 23.6169 15.504C23.8836 15.248 24.0969 14.976 24.2569 14.688C24.4169 14.4 24.4969 14.0853 24.4969 13.744C24.4969 13.1893 24.2943 12.7733 23.8889 12.496C23.4943 12.208 22.9823 12.064 22.3529 12.064C21.8836 12.064 21.4249 12.1387 20.9769 12.288C20.5396 12.4373 20.1556 12.624 19.8249 12.848L19.0249 11.12C19.5156 10.7787 20.0756 10.5067 20.7049 10.304C21.3449 10.1013 22.0276 10 22.7529 10C24.0436 10 25.0783 10.2827 25.8569 10.848C26.6356 11.4133 27.0249 12.2187 27.0249 13.264C27.0249 14.032 26.8009 14.7307 26.3529 15.36C25.9049 15.9787 25.2169 16.672 24.2889 17.44L21.9689 19.36Z" fill="#0E141B"/>
<path d="M11.032 18.144L14.52 10.192H16.904V21.392H14.648V14.272L11.64 21.072H10.216L7.144 14.352V21.392H5V10.192H7.256L11.032 18.144Z" fill="#0E141B"/>
</g>
<defs>
<clipPath id="clip0_8144_1510">
<rect width="32" height="32" fill="white"/>
</clipPath>
</defs>
</svg>
