<svg width="32" height="32" viewBox="0 0 32 32" fill="none" xmlns="http://www.w3.org/2000/svg">
<path d="M28.5 18L30 15.5H27L28.5 18Z" fill="white"/>
<path d="M14 3.5L16.5 2V5L14 3.5Z" fill="white"/>
<path fill-rule="evenodd" clip-rule="evenodd" d="M10.1664 10.1664C6.94455 13.3882 6.94455 18.6118 10.1664 21.8336C13.3882 25.0555 18.6118 25.0555 21.8336 21.8336C25.0555 18.6118 25.0555 13.3882 21.8336 10.1664C18.6118 6.94454 13.3882 6.94454 10.1664 10.1664ZM9.10572 22.8943C5.29811 19.0867 5.29811 12.9133 9.10572 9.10571C12.9133 5.2981 19.0867 5.2981 22.8943 9.10571C26.7019 12.9133 26.7019 19.0867 22.8943 22.8943C19.0867 26.7019 12.9133 26.7019 9.10572 22.8943Z" fill="white"/>
<path fill-rule="evenodd" clip-rule="evenodd" d="M27.75 16C27.75 9.51065 22.4893 4.25 16 4.25V2.75C23.3178 2.75 29.25 8.68223 29.25 16H27.75Z" fill="white"/>
<path fill-rule="evenodd" clip-rule="evenodd" d="M15.3389 16.89C14.2034 15.7545 13.3517 14.5943 12.8825 13.656C12.6461 13.1831 12.5264 12.8053 12.4948 12.5386C12.476 12.38 12.4916 12.303 12.5017 12.2729C12.5318 12.2628 12.6088 12.2471 12.7674 12.2659C13.0221 12.2961 13.378 12.4065 13.8211 12.6222C14.2312 12.2509 14.6457 11.9035 15.0588 11.584C14.8879 11.485 14.72 11.3942 14.5557 11.312C14.0005 11.0344 13.4482 10.8361 12.9439 10.7764C12.4503 10.7179 11.8659 10.7806 11.4377 11.2088C11.0094 11.6371 10.9467 12.2215 11.0052 12.7151C11.065 13.2194 11.2633 13.7716 11.5409 14.3268C12.0998 15.4447 13.0605 16.7329 14.2782 17.9506C15.496 19.1684 16.7842 20.1291 17.902 20.688C18.4572 20.9656 19.0095 21.1639 19.5138 21.2236C20.0074 21.2821 20.5918 21.2194 21.02 20.7912C21.4483 20.3629 21.511 19.7785 21.4525 19.2849C21.3927 18.7806 21.1945 18.2284 20.9168 17.6732C20.8311 17.5016 20.7358 17.3261 20.6316 17.1474C20.3127 17.5601 19.9658 17.9742 19.5951 18.384C19.8184 18.8382 19.9322 19.2022 19.9629 19.4614C19.9817 19.62 19.9661 19.697 19.956 19.7271C19.9259 19.7372 19.8489 19.7529 19.6903 19.7341C19.4235 19.7024 19.0457 19.5828 18.5728 19.3463C17.6345 18.8772 16.4744 18.0254 15.3389 16.89ZM12.5087 12.2569C12.5087 12.257 12.5083 12.2577 12.5073 12.2591C12.5081 12.2576 12.5086 12.2569 12.5087 12.2569ZM12.4879 12.2785C12.4866 12.2795 12.4858 12.2798 12.4858 12.2798C12.4857 12.2798 12.4864 12.2793 12.4879 12.2785ZM19.9492 19.7426C19.9491 19.7429 19.949 19.7431 19.949 19.7431C19.9491 19.7431 19.9493 19.7429 19.9496 19.7423C19.9498 19.742 19.9501 19.7415 19.9504 19.7409C19.9498 19.7417 19.9494 19.7423 19.9492 19.7426ZM19.9698 19.7215C19.9711 19.7205 19.9719 19.7201 19.9719 19.7202C19.972 19.7202 19.9713 19.7207 19.9698 19.7215Z" fill="#DCDEDF"/>
<path fill-rule="evenodd" clip-rule="evenodd" d="M12.9178 18.2743C12.9058 18.2977 12.8941 18.3209 12.8825 18.344C12.6461 18.8169 12.5264 19.1947 12.4948 19.4614C12.476 19.62 12.4916 19.697 12.5017 19.7271C12.5318 19.7372 12.6088 19.7529 12.7674 19.7341C13.0342 19.7024 13.412 19.5828 13.8849 19.3463C13.9045 19.3365 13.9241 19.3266 13.9439 19.3164C14.3306 19.69 14.7214 20.0469 15.1127 20.3845C14.9232 20.4959 14.7372 20.5972 14.5557 20.688C14.0005 20.9656 13.4482 21.1639 12.9439 21.2236C12.4503 21.2821 11.8659 21.2194 11.4377 20.7912C11.0094 20.3629 10.9467 19.7785 11.0052 19.2849C11.065 18.7806 11.2633 18.2284 11.5409 17.6732C11.637 17.4809 11.7451 17.2835 11.8643 17.0824C12.1956 17.4803 12.5477 17.879 12.9178 18.2743ZM15.1398 15.3124C15.2052 15.2449 15.2715 15.1774 15.3389 15.11C16.4744 13.9746 17.6345 13.1228 18.5728 12.6536C19.0457 12.4172 19.4235 12.2975 19.6903 12.2659C19.8489 12.2471 19.9259 12.2628 19.956 12.2729C19.9661 12.303 19.9817 12.38 19.9629 12.5386C19.9313 12.8053 19.8116 13.1831 19.5752 13.656C19.106 14.5943 18.2543 15.7545 17.1188 16.8899C17.0459 16.9629 16.9728 17.0347 16.8997 17.1052C17.2876 17.4618 17.6703 17.7898 18.0415 18.0871C18.0876 18.042 18.1336 17.9965 18.1795 17.9506C19.3972 16.7329 20.3579 15.4447 20.9168 14.3268C21.1945 13.7716 21.3927 13.2194 21.4525 12.7151C21.511 12.2215 21.4483 11.6371 21.02 11.2088C20.5918 10.7806 20.0074 10.7179 19.5138 10.7764C19.0095 10.8361 18.4572 11.0344 17.902 11.312C16.7842 11.8709 15.496 12.8316 14.2782 14.0494C14.2454 14.0822 14.2128 14.115 14.1804 14.148C14.4673 14.524 14.7879 14.9145 15.1398 15.3124ZM12.4858 19.7202C12.4858 19.7201 12.4866 19.7205 12.4879 19.7215C12.4864 19.7207 12.4857 19.7202 12.4858 19.7202ZM12.5073 19.7409C12.5083 19.7423 12.5087 19.743 12.5087 19.7431C12.5086 19.7431 12.5081 19.7424 12.5073 19.7409ZM19.9714 12.2795C19.9717 12.2797 19.9719 12.2798 19.9719 12.2798C19.972 12.2798 19.9713 12.2793 19.9698 12.2785C19.9705 12.279 19.971 12.2793 19.9714 12.2795ZM19.9504 12.2591C19.9494 12.2577 19.949 12.257 19.949 12.2569C19.9491 12.2569 19.9496 12.2576 19.9504 12.2591Z" fill="#DCDEDF"/>
<path fill-rule="evenodd" clip-rule="evenodd" d="M7.5302 6.46967C7.2373 6.17678 6.76243 6.17678 6.46954 6.46967C6.17664 6.76257 6.17665 7.23744 6.46954 7.53033L8.96957 10.0303C9.26247 10.3232 9.73734 10.3232 10.0302 10.0303C10.3231 9.73743 10.3231 9.26256 10.0302 8.96967L7.5302 6.46967ZM23.0302 21.9697C22.7373 21.6768 22.2624 21.6768 21.9696 21.9697C21.6767 22.2626 21.6767 22.7374 21.9696 23.0303L24.4695 25.5303C24.7624 25.8232 25.2373 25.8232 25.5302 25.5303C25.8231 25.2374 25.8231 24.7626 25.5302 24.4697L23.0302 21.9697Z" fill="white"/>
</svg>
