<svg width="64" height="64" viewBox="0 0 64 64" fill="none" xmlns="http://www.w3.org/2000/svg">
<path fill-rule="evenodd" clip-rule="evenodd" d="M30.75 47.2499C39.8627 47.2499 47.25 39.8626 47.25 30.7499C47.25 21.6372 39.8627 14.2499 30.75 14.2499C21.938 14.2499 14.7393 21.1578 14.2739 29.8538L11.2536 30.3695C11.4564 19.7755 20.1076 11.2499 30.75 11.2499C41.5196 11.2499 50.25 19.9804 50.25 30.7499C50.25 41.5195 41.5196 50.2499 30.75 50.2499C22.2709 50.2499 15.0557 44.8381 12.3703 37.2801L15.3811 36.7661C17.7855 42.9036 23.7602 47.2499 30.75 47.2499Z" fill="#DCDEDF"/>
<path fill-rule="evenodd" clip-rule="evenodd" d="M28.1814 30.6984C28.1814 33.91 28.6175 36.7553 29.281 38.7458C29.6154 39.7489 29.9805 40.4524 30.313 40.8744C30.5107 41.1252 30.6417 41.212 30.6986 41.2403C30.7555 41.212 30.8864 41.1252 31.0841 40.8744C31.4167 40.4524 31.7817 39.7489 32.1161 38.7458C32.1233 38.7242 32.1305 38.7024 32.1377 38.6806C33.2424 38.6185 34.3172 38.5152 35.3476 38.3733C35.2297 38.8367 35.101 39.278 34.9622 39.6945C34.5696 40.8723 34.069 41.9336 33.4403 42.7313C32.825 43.5121 31.9098 44.2499 30.6986 44.2499C29.4873 44.2499 28.5721 43.5121 27.9568 42.7313C27.3281 41.9336 26.8276 40.8723 26.435 39.6945C25.6445 37.3232 25.1814 34.1427 25.1814 30.6984C25.1814 27.2541 25.6445 24.0737 26.435 21.7024C26.8276 20.5246 27.3281 19.4632 27.9568 18.6655C28.5721 17.8847 29.4873 17.1469 30.6986 17.1469C31.9098 17.1469 32.825 17.8847 33.4403 18.6655C34.069 19.4632 34.5696 20.5246 34.9622 21.7024C35.1116 22.1506 35.2493 22.6278 35.3744 23.1302C34.3464 22.9879 33.274 22.8841 32.1716 22.8212C32.1533 22.7638 32.1348 22.7071 32.1161 22.6511C31.7817 21.648 31.4167 20.9444 31.0841 20.5224C30.8864 20.2716 30.7555 20.1848 30.6986 20.1565C30.6417 20.1848 30.5107 20.2716 30.313 20.5224C29.9805 20.9444 29.6154 21.648 29.281 22.6511C28.6175 24.6416 28.1814 27.4868 28.1814 30.6984ZM30.7309 41.2531C30.7309 41.253 30.7293 41.2525 30.726 41.2519C30.7293 41.2529 30.7309 41.2532 30.7309 41.2531ZM30.6711 41.2519C30.6678 41.2525 30.6662 41.253 30.6662 41.2531C30.6662 41.2532 30.6678 41.2529 30.6711 41.2519ZM30.6671 20.1441C30.6665 20.1439 30.6662 20.1438 30.6662 20.1438C30.6662 20.1437 30.6668 20.1438 30.668 20.1441C30.6688 20.1443 30.6698 20.1446 30.6711 20.145C30.6692 20.1446 30.6679 20.1443 30.6671 20.1441ZM30.726 20.145C30.7293 20.1444 30.7309 20.1439 30.7309 20.1438C30.7309 20.1437 30.7293 20.1439 30.726 20.145Z" fill="#DCDEDF"/>
<path fill-rule="evenodd" clip-rule="evenodd" d="M23.1835 32.282C22.9999 32.2284 22.8224 32.173 22.6511 32.116C21.648 31.7816 20.9445 31.4165 20.5225 31.084C20.2717 30.8863 20.1849 30.7553 20.1566 30.6984C20.1849 30.6415 20.2717 30.5106 20.5225 30.3129C20.9445 29.9803 21.648 29.6152 22.6511 29.2809C22.8145 29.2264 22.9836 29.1735 23.1582 29.1222C23.1795 28.0528 23.231 27.0017 23.3112 25.9783C22.7422 26.115 22.2042 26.2676 21.7024 26.4348C20.5246 26.8274 19.4633 27.328 18.6656 27.9566C17.8848 28.572 17.147 29.4872 17.147 30.6984C17.147 31.9097 17.8848 32.8249 18.6656 33.4402C19.4633 34.0689 20.5246 34.5694 21.7024 34.962C22.2277 35.1371 22.7926 35.2961 23.3914 35.4376C23.2923 34.4142 23.2225 33.359 23.1835 32.282ZM30.3858 33.2142C30.4896 33.2151 30.5938 33.2156 30.6985 33.2156C33.91 33.2156 36.7553 32.7795 38.7458 32.116C39.7489 31.7816 40.4525 31.4165 40.8744 31.084C41.1253 30.8863 41.2121 30.7553 41.2404 30.6984C41.2121 30.6415 41.1253 30.5106 40.8744 30.3129C40.4525 29.9803 39.7489 29.6152 38.7458 29.2809C36.7553 28.6174 33.91 28.1813 30.6985 28.1813C30.5777 28.1813 30.4574 28.1819 30.3377 28.1831C30.3837 27.1289 30.464 26.1242 30.5725 25.1815C30.6145 25.1813 30.6564 25.1813 30.6985 25.1813C34.1428 25.1813 37.3232 25.6444 39.6945 26.4348C40.8723 26.8274 41.9337 27.328 42.7314 27.9566C43.5122 28.572 44.25 29.4872 44.25 30.6984C44.25 31.9097 43.5122 32.8249 42.7314 33.4402C41.9337 34.0689 40.8723 34.5694 39.6945 34.962C37.3232 35.7524 34.1428 36.2156 30.6985 36.2156C30.6946 36.2156 30.6906 36.2156 30.6867 36.2156C30.556 35.2815 30.4534 34.2764 30.3858 33.2142ZM20.1438 30.7308C20.1439 30.7308 20.1444 30.7292 20.145 30.7259C20.144 30.7291 20.1437 30.7308 20.1438 30.7308ZM20.145 30.671C20.1444 30.6677 20.1439 30.666 20.1438 30.6661C20.1437 30.6661 20.144 30.6677 20.145 30.671ZM41.2527 30.6672C41.2529 30.6664 41.2531 30.666 41.2531 30.6661C41.2532 30.6661 41.253 30.6677 41.2519 30.671C41.2522 30.6693 41.2525 30.668 41.2527 30.6672ZM41.2519 30.7259C41.2525 30.7292 41.253 30.7308 41.2531 30.7308C41.2532 30.7308 41.253 30.7291 41.2519 30.7259Z" fill="white"/>
<path fill-rule="evenodd" clip-rule="evenodd" d="M32.25 56.7499C32.25 57.5784 31.5784 58.2499 30.75 58.2499C29.9216 58.2499 29.25 57.5784 29.25 56.7499V53.7499C29.25 52.9215 29.9216 52.2499 30.75 52.2499C31.5784 52.2499 32.25 52.9215 32.25 53.7499V56.7499ZM32.25 7.74994C32.25 8.57837 31.5784 9.24994 30.75 9.24994C29.9216 9.24994 29.25 8.57837 29.25 7.74994V4.74994C29.25 3.92151 29.9216 3.24994 30.75 3.24994C31.5784 3.24994 32.25 3.92151 32.25 4.74994V7.74994Z" fill="#DCDEDF"/>
<path fill-rule="evenodd" clip-rule="evenodd" d="M54.59 25.4553C55.4086 25.3282 56.1753 25.8887 56.3025 26.7073C56.4296 27.5259 55.8691 28.2926 55.0505 28.4198L42.3118 30.3988C41.4932 30.526 40.7265 29.9655 40.5993 29.1468C40.4721 28.3282 41.0326 27.5615 41.8512 27.4344L54.59 25.4553ZM19.3167 31.0811C20.1353 30.9539 20.902 31.5144 21.0292 32.333C21.1564 33.1516 20.5958 33.9184 19.7772 34.0455L6.91008 36.0445C6.09147 36.1716 5.32477 35.6111 5.1976 34.7925C5.07042 33.9739 5.63094 33.2072 6.44954 33.08L19.3167 31.0811Z" fill="white"/>
<path d="M39.0077 51.0726L34.4079 52.9461L38.1727 56.5132L39.0077 51.0726Z" fill="white"/>
<path d="M26.1037 52.9735C22.3471 53.6291 19.75 55.0357 19.75 56.6652C19.75 58.9211 24.7281 60.7499 30.8689 60.7499C37.0097 60.7499 41.9879 58.9211 41.9879 56.6652C41.9879 55.3998 40.4217 54.2688 37.9626 53.5195" stroke="white" stroke-width="3"/>
<path d="M30.75 12.7499C40.6911 12.7499 48.75 20.8088 48.75 30.7499" stroke="#DCDEDF" stroke-width="3"/>
</svg>
