<svg width="32" height="32" viewBox="0 0 32 32" fill="none" xmlns="http://www.w3.org/2000/svg">
<g clip-path="url(#clip0_8144_1514)">
<rect width="32" height="32" rx="2" fill="white"/>
<path d="M22.7368 10C24.0488 10 25.0462 10.2613 25.7288 10.784C26.4115 11.3067 26.7528 11.984 26.7528 12.816C26.7528 13.3813 26.5822 13.888 26.2408 14.336C25.9102 14.7733 25.4408 15.1093 24.8328 15.344V15.392C25.5475 15.5413 26.1235 15.8507 26.5608 16.32C27.0088 16.7787 27.2328 17.392 27.2328 18.16C27.2328 18.864 27.0302 19.488 26.6248 20.032C26.2195 20.5653 25.6648 20.9813 24.9608 21.28C24.2568 21.568 23.4782 21.712 22.6248 21.712C21.8142 21.712 21.0408 21.6 20.3048 21.376C19.5795 21.152 18.9662 20.8373 18.4648 20.432L19.4728 18.704C20.3048 19.376 21.2915 19.712 22.4328 19.712C23.1582 19.712 23.7235 19.5627 24.1288 19.264C24.5448 18.9653 24.7528 18.5547 24.7528 18.032C24.7528 17.008 23.9688 16.496 22.4008 16.496H20.9608V14.72H22.2568C22.8755 14.72 23.3715 14.6027 23.7448 14.368C24.1288 14.1227 24.3208 13.7813 24.3208 13.344C24.3208 12.9387 24.1395 12.6133 23.7768 12.368C23.4248 12.1227 22.9342 12 22.3048 12C21.8248 12 21.3608 12.08 20.9128 12.24C20.4755 12.3893 20.0808 12.5973 19.7288 12.864L18.7368 11.36C19.2702 10.9227 19.8728 10.5867 20.5448 10.352C21.2275 10.1173 21.9582 10 22.7368 10Z" fill="#0E141B"/>
<path d="M11.032 18.208L14.52 10.256H16.904V21.456H14.648V14.336L11.64 21.136H10.216L7.144 14.416V21.456H5V10.256H7.256L11.032 18.208Z" fill="#0E141B"/>
</g>
<defs>
<clipPath id="clip0_8144_1514">
<rect width="32" height="32" fill="white"/>
</clipPath>
</defs>
</svg>
