<svg width="32" height="32" viewBox="0 0 32 32" fill="none" xmlns="http://www.w3.org/2000/svg">
<path d="M29.8471 21C28.8851 14.7698 23.4996 10 17 10H16C11.6503 10 6.73487 12.1687 2.67822 15.3653L6.5521 21H29.8471Z" fill="#B8BCBF"/>
<path fill-rule="evenodd" clip-rule="evenodd" d="M32 23C32 22.3219 31.955 21.6543 31.8678 21C30.89 13.6613 24.6062 8 17 8H16C13.61 8 11.1256 8.56649 8.71088 9.53535C8.22559 9.19785 7.6359 9 7 9C5.3513 9 4.01323 10.33 4.0001 11.9756C2.5814 12.881 1.23428 13.9029 0 15L2.0625 18H0V20H3.4375L5.5 23H32ZM17 10C23.4996 10 28.8851 14.7698 29.8471 21H6.55206L2.67818 15.3653C6.73482 12.1687 11.6503 10 16 10H17ZM24 17.4C24 17.7314 23.7314 18 23.4 18H18V15H21.6C22.9255 15 24 16.0745 24 17.4Z" fill="white"/>
<path fill-rule="evenodd" clip-rule="evenodd" d="M23.4 18C23.7314 18 24 17.7314 24 17.4C24 16.0745 22.9255 15 21.6 15H18V18H23.4Z" fill="white"/>
<path fill-rule="evenodd" clip-rule="evenodd" d="M9.6 18C9.26863 18 9 17.7314 9 17.4C9 16.0745 10.0745 15 11.4 15H15V18H9.6Z" fill="black"/>
</svg>
