<svg width="64" height="64" viewBox="0 0 64 64" fill="none" xmlns="http://www.w3.org/2000/svg">
<path fill-rule="evenodd" clip-rule="evenodd" d="M41.335 5C41.335 4.44772 40.8873 4 40.335 4H23.6684C23.1161 4 22.6684 4.44771 22.6684 5V21.6657C22.6684 22.218 22.2206 22.6657 21.6684 22.6657H5C4.44772 22.6657 4 23.1135 4 23.6657V40.3324C4 40.8847 4.44772 41.3324 5 41.3324H21.6684C22.2206 41.3324 22.6684 41.7801 22.6684 42.3324V59C22.6684 59.5523 23.1161 60 23.6683 60H40.335C40.8873 60 41.335 59.5523 41.335 59V42.3324C41.335 41.7801 41.7827 41.3324 42.335 41.3324H59C59.5523 41.3324 60 40.8847 60 40.3324V23.6658C60 23.1135 59.5523 22.6658 59 22.6658H42.335C41.7827 22.6658 41.335 22.218 41.335 21.6658V5Z" fill="white"/>
</svg>
