<svg width="64" height="64" viewBox="0 0 64 64" fill="none" xmlns="http://www.w3.org/2000/svg">
<g clip-path="url(#clip0_1967:18240)">
<path fill-rule="evenodd" clip-rule="evenodd" d="M24.6559 9.61644L31.6365 17.4696L38.617 9.61649C50.5004 12.7092 59.2727 23.512 59.2727 36.3637C59.2727 51.6268 46.8995 64 31.6364 64C16.3732 64 4 51.6268 4 36.3637C4 23.5119 12.7724 12.7091 24.6559 9.61644ZM27.9718 8.96811L31.6365 13.0909L35.3011 8.96814C34.1021 8.80928 32.8788 8.72729 31.6364 8.72729C30.394 8.72729 29.1708 8.80927 27.9718 8.96811Z" fill="white"/>
<path d="M20 1.5H16.6597L18.8789 3.99655L30.5153 17.0875L31.6364 18.3487L32.7575 17.0875L44.3937 3.99654L46.6129 1.5H43.2726H20Z" fill="black" stroke="white" stroke-width="3"/>
<path d="M30.0918 43.6362H20.1136V29.3816H23.6366V40.4595H30.0918V43.6362Z" fill="black"/>
<path d="M37.8209 29.0355C39.5586 29.0355 40.8687 29.3749 41.7511 30.0536C42.6335 30.7324 43.0747 31.6081 43.0747 32.6806C43.0747 33.3729 42.8711 33.9906 42.4638 34.5336C42.0566 35.0767 41.466 35.5111 40.6922 35.8369V35.9184C41.6018 36.1084 42.3213 36.4953 42.8507 37.0791C43.3938 37.6629 43.6653 38.4502 43.6653 39.4413C43.6653 40.3509 43.4006 41.1518 42.8711 41.8442C42.3416 42.523 41.6221 43.0524 40.7126 43.4326C39.8166 43.7991 38.8255 43.9824 37.7395 43.9824C36.6806 43.9824 35.676 43.8398 34.7256 43.5547C33.7753 43.2696 32.9812 42.8624 32.3431 42.3329L33.7889 39.7264C34.7664 40.5816 35.9746 41.0093 37.4136 41.0093C38.201 41.0093 38.812 40.8532 39.2464 40.5409C39.6944 40.2151 39.9184 39.7671 39.9184 39.1969C39.9184 38.0837 39.0903 37.5271 37.434 37.5271H35.4384V34.9206H37.1896C37.882 34.9206 38.4183 34.7984 38.7984 34.554C39.1921 34.2961 39.3889 33.9363 39.3889 33.4747C39.3889 33.0403 39.1921 32.6873 38.7984 32.4158C38.4183 32.1443 37.882 32.0086 37.1896 32.0086C36.633 32.0086 36.0832 32.1036 35.5402 32.2936C34.9972 32.4701 34.5152 32.7145 34.0944 33.0267L32.6282 30.7664C33.3341 30.1962 34.1283 29.7686 35.0107 29.4835C35.9067 29.1848 36.8435 29.0355 37.8209 29.0355Z" fill="black"/>
</g>
<defs>
<clipPath id="clip0_1967:18240">
<rect width="64" height="64" fill="white"/>
</clipPath>
</defs>
</svg>
