<svg width="64" height="64" viewBox="0 0 64 64" fill="none" xmlns="http://www.w3.org/2000/svg">
<g clip-path="url(#clip0_2643:19504)">
<path fill-rule="evenodd" clip-rule="evenodd" d="M24.6559 9.61644L31.6365 17.4696L38.617 9.61649C50.5004 12.7092 59.2727 23.512 59.2727 36.3637C59.2727 51.6268 46.8995 64 31.6364 64C16.3732 64 4 51.6268 4 36.3637C4 23.5119 12.7724 12.7091 24.6559 9.61644ZM27.9718 8.96811L31.6365 13.0909L35.3011 8.96814C34.1021 8.80928 32.8788 8.72729 31.6364 8.72729C30.394 8.72729 29.1708 8.80927 27.9718 8.96811Z" fill="white"/>
<path d="M30.5153 17.0875L31.6364 18.3487L32.7575 17.0875L44.3937 3.99654L46.6129 1.5H43.2726H20H16.6597L18.8789 3.99655L30.5153 17.0875Z" fill="black" stroke="white" stroke-width="3"/>
<path d="M38 45H33.8121L30.9111 39.9257H30.5839H28.7735V45H25V29H30.9329C33.1141 29 34.7282 29.4495 35.7752 30.3486C36.8221 31.2476 37.3456 32.5124 37.3456 34.1429C37.3456 35.3771 37.0912 36.4133 36.5822 37.2514C36.0878 38.0743 35.3898 38.699 34.4883 39.1257L38 45ZM28.7735 32.3829V36.5429H30.8238C31.5945 36.5429 32.198 36.36 32.6342 35.9943C33.085 35.6133 33.3104 35.0648 33.3104 34.3486C33.3104 33.6933 33.1068 33.2057 32.6997 32.8857C32.2925 32.5505 31.6454 32.3829 30.7584 32.3829H28.7735Z" fill="black"/>
</g>
<defs>
<clipPath id="clip0_2643:19504">
<rect width="64" height="64" fill="white"/>
</clipPath>
</defs>
</svg>
