<svg width="64" height="64" viewBox="0 0 64 64" fill="none" xmlns="http://www.w3.org/2000/svg">
<path d="M43.1219 13.037C43.1219 17.3973 41.0075 21.2576 37.7601 23.6244V18.695C38.922 17.1157 39.6098 15.1577 39.6098 13.037C39.6098 7.80056 35.4165 3.55556 30.2439 3.55556C25.0713 3.55556 20.878 7.80056 20.878 13.037C20.878 15.0709 21.5106 16.9551 22.5874 18.4992V23.5207C19.4195 21.1457 17.3659 17.3342 17.3659 13.037C17.3659 5.83688 23.1316 0 30.2439 0C37.3563 0 43.1219 5.83688 43.1219 13.037Z" fill="white"/>
<path d="M35.4186 20.9411V24.9789C35.4186 24.9789 35.4186 24.9788 35.4186 24.9789L35.4185 26.7512L56 30.8148V64H24.3902L8 45.8801L11.1493 43.0001C12.3358 41.8944 13.8966 41.2926 15.509 41.319C17.1215 41.3455 18.6622 41.9982 19.8127 43.1423L24.4956 47.6697L24.9288 47.9304V11.9719C25.0749 10.6393 25.6999 9.40754 26.6849 8.51118C27.6384 7.61142 28.8935 7.11111 30.1971 7.11111C31.5006 7.11111 32.7557 7.61142 33.7093 8.51118C34.6814 9.41168 35.2902 10.6443 35.4185 11.9719L35.4186 20.9411C35.4186 20.9412 35.4186 20.9411 35.4186 20.9411Z" fill="white"/>
</svg>
