<svg width="32" height="32" viewBox="0 0 32 32" fill="none" xmlns="http://www.w3.org/2000/svg">
<g clip-path="url(#clip0_8372_25209)">
<path d="M12.491 5.7191C16.3667 1.84342 18.4399 -1.66537 22.3155 2.21031L29.3331 12.0349C32.1401 16.9471 30.7526 17.6329 26.8769 21.5085L18.8068 28.877C14.9311 32.7527 8.6474 32.7527 4.77172 28.877L4.06996 28.1752C0.194283 24.2995 0.429817 19.4199 4.3055 15.5443L12.491 5.7191Z" fill="white"/>
<path d="M23.6952 20.592H18.0552V12.192H19.8192V19.008H23.6952V20.592Z" fill="black"/>
<path d="M13.236 12C13.876 12 14.448 12.092 14.952 12.276C15.456 12.452 15.892 12.68 16.26 12.96L15.396 14.256C14.772 13.832 14.076 13.62 13.308 13.62C12.572 13.62 11.98 13.856 11.532 14.328C11.092 14.8 10.872 15.48 10.872 16.368C10.872 17.256 11.084 17.944 11.508 18.432C11.94 18.912 12.496 19.152 13.176 19.152C13.824 19.152 14.352 18.98 14.76 18.636V17.088H12.696V15.672H16.44V19.512C16.064 19.896 15.588 20.204 15.012 20.436C14.436 20.66 13.804 20.772 13.116 20.772C12.396 20.772 11.724 20.62 11.1 20.316C10.476 20.004 9.968 19.524 9.576 18.876C9.192 18.228 9 17.424 9 16.464C9 15.512 9.188 14.7 9.564 14.028C9.94 13.356 10.448 12.852 11.088 12.516C11.728 12.172 12.444 12 13.236 12Z" fill="black"/>
</g>
<defs>
<clipPath id="clip0_8372_25209">
<rect width="32" height="32" fill="white"/>
</clipPath>
</defs>
</svg>
