<svg width="32" height="32" viewBox="0 0 32 32" fill="none" xmlns="http://www.w3.org/2000/svg">
<g clip-path="url(#clip0_1967_20752)">
<path d="M20.6834 6.57578L17.8013 6.57578L14.1987 6.57578L11.3166 6.57578L16 1.89237L20.6834 6.57578Z" fill="black"/>
<path fill-rule="evenodd" clip-rule="evenodd" d="M23.9139 7.91391L8.08607 7.91391L16 3.55288e-06L23.9139 7.91391ZM20.6834 6.57579L16 1.89239L11.3166 6.57579L20.6834 6.57579Z" fill="white"/>
<path d="M28.0431 20.626C28.0431 26.9077 22.6512 32 16 32C9.34883 32 3.95697 26.9077 3.95697 20.626C3.95697 14.3444 9.34883 9.25204 16 9.25204C22.6512 9.25204 28.0431 14.3444 28.0431 20.626Z" fill="white"/>
<path fill-rule="evenodd" clip-rule="evenodd" d="M24.9795 19.5696C24.9795 23.7312 21.1045 27.3518 16 27.3518C10.8956 27.3518 7.02057 23.7312 7.02057 19.5696C7.02057 15.408 10.8956 11.7874 16 11.7874C21.1045 11.7874 24.9795 15.408 24.9795 19.5696ZM26.1768 19.5696C26.1768 24.5288 21.6205 28.5491 16 28.5491C10.3796 28.5491 5.8233 24.5288 5.8233 19.5696C5.8233 14.6104 10.3796 10.5901 16 10.5901C21.6205 10.5901 26.1768 14.6104 26.1768 19.5696ZM17.4238 23.4991H19.4926L17.7578 20.7298C18.2032 20.5287 18.548 20.2342 18.7922 19.8463C19.0436 19.4512 19.1694 18.9627 19.1694 18.3808C19.1694 17.6122 18.9108 17.0159 18.3935 16.5921C17.8763 16.1683 17.0789 15.9564 16.0014 15.9564H13.0705V23.4991H14.9346V21.107H15.829H15.9906L17.4238 23.4991ZM14.9346 19.5122V17.5511H15.9152C16.3534 17.5511 16.6731 17.6301 16.8742 17.7882C17.0753 17.939 17.1759 18.1689 17.1759 18.4778C17.1759 18.8154 17.0646 19.074 16.8419 19.2536C16.6264 19.426 16.3283 19.5122 15.9475 19.5122H14.9346Z" fill="black"/>
</g>
<defs>
<clipPath id="clip0_1967_20752">
<rect width="32" height="32" fill="white"/>
</clipPath>
</defs>
</svg>
