<svg width="64" height="64" viewBox="0 0 64 64" fill="none" xmlns="http://www.w3.org/2000/svg">
<g clip-path="url(#clip0_1967:17226)">
<path fill-rule="evenodd" clip-rule="evenodd" d="M28.4446 0C48.0814 0 64.0002 15.9188 64.0002 35.5555V64L4.16581 4.16563C1.59209 6.73935 0.000221252 10.2949 0.000221252 14.2223V64L0.000183105 64V14.2222C0.000183105 6.3675 6.36768 0 14.2224 0H28.4446Z" fill="white"/>
<path opacity="0.5" fill-rule="evenodd" clip-rule="evenodd" d="M63.9999 64L4.16552 4.16565C1.59181 6.73936 -6.10352e-05 10.2949 -6.10352e-05 14.2223V64H63.9999Z" fill="white"/>
<path d="M29.1695 30.5155L20.2896 42.2755H29.5162V46.2222H14.5829V43.1555L23.4095 31.5022H15.0096V27.5555H29.1695V30.5155Z" fill="black"/>
<path d="M49.9054 46.2222H44.7854L41.2388 40.3022H40.8388H38.6254V46.2222H34.0121V27.5555H41.2654C43.9321 27.5555 45.9054 28.08 47.1854 29.1289C48.4654 30.1778 49.1054 31.6533 49.1054 33.5555C49.1054 34.9955 48.7943 36.2044 48.1721 37.1822C47.5677 38.1422 46.7143 38.8711 45.6121 39.3689L49.9054 46.2222ZM38.6254 31.5022V36.3555H41.1321C42.0743 36.3555 42.8121 36.1422 43.3454 35.7155C43.8966 35.2711 44.1721 34.6311 44.1721 33.7955C44.1721 33.0311 43.9232 32.4622 43.4254 32.0889C42.9277 31.6978 42.1366 31.5022 41.0521 31.5022H38.6254Z" fill="black"/>
</g>
<defs>
<clipPath id="clip0_1967:17226">
<rect width="64" height="64" fill="white"/>
</clipPath>
</defs>
</svg>
