<svg width="64" height="64" viewBox="0 0 64 64" fill="none" xmlns="http://www.w3.org/2000/svg">
<path d="M64 35.5556C64 15.9188 48.0812 0 28.4444 0H0V64H64V35.5556Z" fill="white"/>
<path d="M40.6442 48H35.5242L31.9775 42.08H31.5775H29.3642V48H24.7509V29.3333H32.0042C34.6709 29.3333 36.6442 29.8578 37.9242 30.9067C39.2042 31.9556 39.8442 33.4311 39.8442 35.3333C39.8442 36.7733 39.5331 37.9822 38.9109 38.96C38.3064 39.92 37.4531 40.6489 36.3509 41.1467L40.6442 48ZM29.3642 33.28V38.1333H31.8709C32.8131 38.1333 33.5509 37.92 34.0842 37.4933C34.6353 37.0489 34.9109 36.4089 34.9109 35.5733C34.9109 34.8089 34.662 34.24 34.1642 33.8667C33.6664 33.4756 32.8753 33.28 31.7909 33.28H29.3642Z" fill="black"/>
</svg>
