<svg width="64" height="64" viewBox="0 0 64 64" fill="none" xmlns="http://www.w3.org/2000/svg">
<path fill-rule="evenodd" clip-rule="evenodd" d="M38.8331 18.6136L32.6809 24.2926L26.238 18.3454C28.0859 17.9249 30.0154 17.7021 32 17.7021C34.3715 17.7021 36.6642 18.0202 38.8331 18.6136ZM41.7661 19.6126C50.4432 23.1765 56.5107 31.3446 56.5107 40.8511C56.5107 53.6359 45.5369 64 32 64C18.4632 64 7.48938 53.6359 7.48938 40.8511C7.48938 30.9979 14.0074 22.5826 23.1934 19.2413L32.6809 27.9989L41.7661 19.6126Z" fill="white"/>
<path fill-rule="evenodd" clip-rule="evenodd" d="M38.6724 9.91312V9.91318H48.2585L32.6807 24.2926L17.103 9.91318H26.6894V2.72339H38.6721V9.91312H38.6724Z" fill="black"/>
<path fill-rule="evenodd" clip-rule="evenodd" d="M26.6894 9.9132V2.72341H38.6721V9.91314L48.2585 9.9132L32.6807 24.2926L17.103 9.9132H26.6894ZM41.3958 7.18979H55.224L32.6807 27.9989L10.1375 7.18979H23.966V0H41.3955L41.3958 7.18979Z" fill="white"/>
<path d="M38.1455 46.7278H27.3995V31.3763H31.1935V43.3066H38.1455V46.7278Z" fill="black"/>
<path d="M32.0001 54.5397C42.389 54.5397 50.2756 47.1708 50.2756 38.701C50.2756 31.7976 45.0364 25.6256 37.4735 23.5788L39.5438 21.6755C47.2525 24.3367 52.7123 30.9562 52.7123 38.701C52.7123 48.7943 43.4392 56.9765 32.0001 56.9765C20.5611 56.9765 11.2879 48.7943 11.2879 38.701C11.2879 30.6067 17.2517 23.7414 25.5138 21.3396L27.6241 23.3197C27.1392 23.4231 26.6622 23.5433 26.194 23.6794C18.7678 25.8383 13.7246 31.8898 13.7246 38.701C13.7246 47.1708 21.6113 54.5397 32.0001 54.5397Z" fill="black"/>
</svg>
