<svg width="64" height="64" viewBox="0 0 64 64" fill="none" xmlns="http://www.w3.org/2000/svg">
<path d="M22.6583 50.7121L28.4071 50.7121L35.593 50.7121L41.3417 50.7121L32 60.0538L22.6583 50.7121Z" fill="black"/>
<path fill-rule="evenodd" clip-rule="evenodd" d="M16.2146 48.043L47.7854 48.043L32 63.8284L16.2146 48.043ZM22.6583 50.7121L32 60.0538L41.3417 50.7121L22.6583 50.7121Z" fill="white"/>
<path d="M56.0215 22.687C56.0215 35.2167 45.2667 45.374 32 45.374C18.7333 45.374 7.97845 35.2167 7.97845 22.687C7.97845 10.1573 18.7333 0 32 0C45.2667 0 56.0215 10.1573 56.0215 22.687Z" fill="white"/>
<path fill-rule="evenodd" clip-rule="evenodd" d="M49.9109 20.5799C49.9109 28.8807 42.1816 36.1025 32.0001 36.1025C21.8186 36.1025 14.0893 28.8807 14.0893 20.5799C14.0893 12.279 21.8186 5.05717 32.0001 5.05717C42.1816 5.05717 49.9109 12.279 49.9109 20.5799ZM52.299 20.5799C52.299 30.4717 43.2109 38.4906 32.0001 38.4906C20.7894 38.4906 11.7012 30.4717 11.7012 20.5799C11.7012 10.688 20.7894 2.66907 32.0001 2.66907C43.2109 2.66907 52.299 10.688 52.299 20.5799ZM27.4913 28.4392H38.0229V25.0863H31.2096V13.3942H27.4913V28.4392Z" fill="black"/>
</svg>
