<svg width="32" height="32" viewBox="0 0 32 32" fill="none" xmlns="http://www.w3.org/2000/svg">
<path d="M32 17.7778C32 7.95938 24.0406 0 14.2222 0H0V32H32V17.7778Z" fill="white"/>
<path d="M20.3221 24H17.7621L15.9888 21.04H15.7888H14.6821V24H12.3754V14.6667H16.0021C17.3354 14.6667 18.3221 14.9289 18.9621 15.4533C19.6021 15.9778 19.9221 16.7155 19.9221 17.6667C19.9221 18.3867 19.7665 18.9911 19.4554 19.48C19.1532 19.96 18.7265 20.3244 18.1754 20.5733L20.3221 24ZM14.6821 16.64V19.0667H15.9354C16.4065 19.0667 16.7754 18.96 17.0421 18.7467C17.3177 18.5244 17.4554 18.2044 17.4554 17.7867C17.4554 17.4044 17.331 17.12 17.0821 16.9333C16.8332 16.7378 16.4376 16.64 15.8954 16.64H14.6821Z" fill="black"/>
</svg>
