<svg width="32" height="32" viewBox="0 0 32 32" fill="none" xmlns="http://www.w3.org/2000/svg">
<g clip-path="url(#clip0_8372_25222)">
<path d="M19.7627 5.7191C15.887 1.84342 13.8138 -1.66537 9.93812 2.21031L2.92058 12.0349C0.113566 16.9471 1.50104 17.6329 5.37672 21.5085L13.4469 28.877C17.3225 32.7527 23.6063 32.7527 27.4819 28.877L28.1837 28.1752C32.0594 24.2995 31.8238 19.4199 27.9482 15.5443L19.7627 5.7191Z" fill="white"/>
<path d="M23.9192 20.592H21.9632L20.2712 17.76H20.0672H18.8192V20.592H17.0552V12.192H20.1992C21.3512 12.192 22.1992 12.424 22.7432 12.888C23.2872 13.344 23.5592 13.984 23.5592 14.808C23.5592 15.456 23.4152 15.996 23.1272 16.428C22.8472 16.86 22.4512 17.188 21.9392 17.412L23.9192 20.592ZM18.8192 13.692V16.248H20.1992C20.6632 16.248 21.0232 16.132 21.2792 15.9C21.5432 15.66 21.6752 15.332 21.6752 14.916C21.6752 14.508 21.5472 14.204 21.2912 14.004C21.0432 13.796 20.6432 13.692 20.0912 13.692H18.8192Z" fill="black"/>
<path d="M12.236 12C12.876 12 13.448 12.092 13.952 12.276C14.456 12.452 14.892 12.68 15.26 12.96L14.396 14.256C13.772 13.832 13.076 13.62 12.308 13.62C11.572 13.62 10.98 13.856 10.532 14.328C10.092 14.8 9.872 15.48 9.872 16.368C9.872 17.256 10.084 17.944 10.508 18.432C10.94 18.912 11.496 19.152 12.176 19.152C12.824 19.152 13.352 18.98 13.76 18.636V17.088H11.696V15.672H15.44V19.512C15.064 19.896 14.588 20.204 14.012 20.436C13.436 20.66 12.804 20.772 12.116 20.772C11.396 20.772 10.724 20.62 10.1 20.316C9.476 20.004 8.968 19.524 8.576 18.876C8.192 18.228 8 17.424 8 16.464C8 15.512 8.188 14.7 8.564 14.028C8.94 13.356 9.448 12.852 10.088 12.516C10.728 12.172 11.444 12 12.236 12Z" fill="black"/>
</g>
<defs>
<clipPath id="clip0_8372_25222">
<rect width="32" height="32" fill="white"/>
</clipPath>
</defs>
</svg>
