<svg width="64" height="64" viewBox="0 0 64 64" fill="none" xmlns="http://www.w3.org/2000/svg">
<path d="M51.2595 43.2519L51.2595 37.3373L51.2595 29.9441L51.2595 24.0296L60.2299 33.6407L51.2595 43.2519Z" fill="black"/>
<path fill-rule="evenodd" clip-rule="evenodd" d="M48.6965 49.7542L48.6965 17.5273L63.7358 33.6407L48.6965 49.7542ZM51.2595 43.2519L60.2299 33.6407L51.2595 24.0296L51.2595 43.2519Z" fill="white"/>
<path d="M46.1336 33C46.1336 45.0317 35.8062 54.7853 23.0668 54.7853C10.3273 54.7853 0 45.0317 0 33C0 20.9683 10.3273 11.2147 23.0668 11.2147C35.8062 11.2147 46.1336 20.9683 46.1336 33Z" fill="white"/>
<path fill-rule="evenodd" clip-rule="evenodd" d="M40.2658 30.9766C40.2658 38.9475 32.8437 45.8823 23.0669 45.8823C13.29 45.8823 5.86796 38.9475 5.86796 30.9766C5.86796 23.0057 13.29 16.0709 23.0669 16.0709C32.8437 16.0709 40.2658 23.0057 40.2658 30.9766ZM42.559 30.9766C42.559 40.4753 33.8321 48.1755 23.0669 48.1755C12.3017 48.1755 3.57477 40.4753 3.57477 30.9766C3.57477 21.4779 12.3017 13.7777 23.0669 13.7777C33.8321 13.7777 42.559 21.4779 42.559 30.9766ZM18.7373 38.8416H28.8503V35.6219H22.3078V24.3945H18.7373V38.8416Z" fill="black"/>
</svg>
