<svg width="32" height="32" viewBox="0 0 32 32" fill="none" xmlns="http://www.w3.org/2000/svg">
<g clip-path="url(#clip0_1967_20739)">
<path d="M32 16.5C32 24.8456 24.8366 31.6111 16 31.6111C7.16344 31.6111 0 24.8456 0 16.5C0 8.15436 7.16344 1.38889 16 1.38889C24.8366 1.38889 32 8.15436 32 16.5Z" fill="white"/>
<path fill-rule="evenodd" clip-rule="evenodd" d="M27.9299 15.0965C27.9299 20.6254 22.7817 25.4357 16.0001 25.4357C9.21849 25.4357 4.07026 20.6254 4.07026 15.0965C4.07026 9.56756 9.21849 4.7573 16.0001 4.7573C22.7817 4.7573 27.9299 9.56756 27.9299 15.0965ZM29.5205 15.0965C29.5205 21.6851 23.4672 27.0263 16.0001 27.0263C8.53293 27.0263 2.47961 21.6851 2.47961 15.0965C2.47961 8.50782 8.53293 3.16666 16.0001 3.16666C23.4672 3.16666 29.5205 8.50782 29.5205 15.0965ZM17.8916 20.5028H20.6402L18.3354 16.8236C18.9271 16.5564 19.3852 16.1651 19.7097 15.6498C20.0437 15.1248 20.2108 14.4759 20.2108 13.7028C20.2108 12.6816 19.8672 11.8895 19.18 11.3264C18.4929 10.7633 17.4335 10.4818 16.0019 10.4818H12.108V20.5028H14.5847V17.3247H15.7729H15.9876L17.8916 20.5028ZM14.5847 15.206V12.6005H15.8874C16.4696 12.6005 16.8943 12.7055 17.1615 12.9154C17.4287 13.1159 17.5623 13.4213 17.5623 13.8316C17.5623 14.2802 17.4144 14.6238 17.1185 14.8624C16.8322 15.0914 16.4362 15.206 15.9303 15.206H14.5847Z" fill="black"/>
</g>
<defs>
<clipPath id="clip0_1967_20739">
<rect width="32" height="32" fill="white"/>
</clipPath>
</defs>
</svg>
