<svg width="64" height="64" viewBox="0 0 64 64" fill="none" xmlns="http://www.w3.org/2000/svg">
<path d="M22.6583 50.7121L28.4071 50.7121L35.593 50.7121L41.3417 50.7121L32 60.0538L22.6583 50.7121Z" fill="black"/>
<path fill-rule="evenodd" clip-rule="evenodd" d="M16.2146 48.043L47.7854 48.043L32 63.8284L16.2146 48.043ZM22.6583 50.7121L32 60.0538L41.3417 50.7121L22.6583 50.7121Z" fill="white"/>
<path d="M56.0215 22.687C56.0215 35.2167 45.2667 45.374 32 45.374C18.7333 45.374 7.97845 35.2167 7.97845 22.687C7.97845 10.1573 18.7333 0 32 0C45.2667 0 56.0215 10.1573 56.0215 22.687Z" fill="white"/>
<path fill-rule="evenodd" clip-rule="evenodd" d="M32.0001 36.1025C42.1816 36.1025 49.9109 28.8807 49.9109 20.5799C49.9109 12.279 42.1816 5.05717 32.0001 5.05717C21.8186 5.05717 14.0893 12.279 14.0893 20.5799C14.0893 28.8807 21.8186 36.1025 32.0001 36.1025ZM32.0001 38.4906C43.2109 38.4906 52.299 30.4717 52.299 20.5799C52.299 10.688 43.2109 2.66907 32.0001 2.66907C20.7894 2.66907 11.7012 10.688 11.7012 20.5799C11.7012 30.4717 20.7894 38.4906 32.0001 38.4906Z" fill="black"/>
<path d="M38.9666 28.4464H34.8399L31.9814 23.675H31.659H29.8751V28.4464H26.1568V13.4013H32.0029C34.1522 13.4013 35.7427 13.824 36.7743 14.6694C37.806 15.5148 38.3218 16.7041 38.3218 18.2372C38.3218 19.3979 38.0711 20.3722 37.5696 21.1603C37.0824 21.934 36.3946 22.5215 35.5062 22.9227L38.9666 28.4464ZM29.8751 16.5823V20.494H31.8954C32.6548 20.494 33.2495 20.3221 33.6793 19.9782C34.1235 19.62 34.3456 19.1041 34.3456 18.4307C34.3456 17.8146 34.145 17.356 33.7438 17.0551C33.3426 16.7399 32.705 16.5823 31.8309 16.5823H29.8751Z" fill="black"/>
</svg>
