<svg width="32" height="32" viewBox="0 0 32 32" fill="none" xmlns="http://www.w3.org/2000/svg">
<path d="M1.5 1.5H30.5V30.5H1.5V1.5Z" fill="white"/>
<path fill-rule="evenodd" clip-rule="evenodd" d="M16 23.5952C20.1947 23.5952 23.5952 20.1947 23.5952 16C23.5952 11.8053 20.1947 8.40476 16 8.40476C11.8052 8.40476 8.40474 11.8053 8.40474 16C8.40474 20.1947 11.8052 23.5952 16 23.5952ZM16 25.6667C21.3387 25.6667 25.6666 21.3387 25.6666 16C25.6666 10.6612 21.3387 6.33333 16 6.33333C10.6612 6.33333 6.33331 10.6612 6.33331 16C6.33331 21.3387 10.6612 25.6667 16 25.6667Z" fill="black"/>
</svg>
