<svg width="32" height="32" viewBox="0 0 32 32" fill="none" xmlns="http://www.w3.org/2000/svg">
<path d="M1.5 1.5H30.5V30.5H1.5V1.5Z" fill="white"/>
<path d="M16.612 9C17.486 9 18.3157 9.114 19.101 9.342C19.8863 9.57 20.526 9.874 21.02 10.254L19.728 12.439C19.31 12.1603 18.8413 11.945 18.322 11.793C17.8027 11.641 17.2707 11.565 16.726 11.565C16.0167 11.565 15.377 11.7297 14.807 12.059C14.237 12.3883 13.781 12.8887 13.439 13.56C13.1097 14.2313 12.945 15.0547 12.945 16.03C12.945 17.436 13.2807 18.5063 13.952 19.241C14.636 19.963 15.548 20.324 16.688 20.324C17.3087 20.324 17.8787 20.229 18.398 20.039C18.9173 19.849 19.424 19.564 19.918 19.184L21.286 21.179C20.754 21.6983 20.0637 22.1163 19.215 22.433C18.379 22.7497 17.4607 22.908 16.46 22.908C15.206 22.908 14.0913 22.642 13.116 22.11C12.1407 21.5653 11.3743 20.7737 10.817 19.735C10.2723 18.6963 10 17.455 10 16.011C10 14.5417 10.2787 13.2813 10.836 12.23C11.3933 11.1787 12.1723 10.3807 13.173 9.836C14.1737 9.27867 15.32 9 16.612 9Z" fill="#0E141B"/>
</svg>
