<svg width="64" height="64" viewBox="0 0 64 64" fill="none" xmlns="http://www.w3.org/2000/svg">
<g clip-path="url(#clip0_1967:20745)">
<path d="M41.3668 13.1516L35.6026 13.1516L28.3974 13.1516L22.6332 13.1516L32 3.78474L41.3668 13.1516Z" fill="black"/>
<path fill-rule="evenodd" clip-rule="evenodd" d="M47.8278 15.8278L16.1722 15.8278L32 7.10576e-06L47.8278 15.8278ZM41.3668 13.1516L32 3.78477L22.6332 13.1516L41.3668 13.1516Z" fill="white"/>
<path d="M56.0861 41.252C56.0861 53.8154 45.3024 64 32 64C18.6976 64 7.91388 53.8154 7.91388 41.252C7.91388 28.6887 18.6976 18.5041 32 18.5041C45.3024 18.5041 56.0861 28.6887 56.0861 41.252Z" fill="white"/>
<path fill-rule="evenodd" clip-rule="evenodd" d="M49.959 39.1392C49.959 47.4623 42.209 54.7036 32.0001 54.7036C21.7912 54.7036 14.0412 47.4623 14.0412 39.1392C14.0412 30.8161 21.7912 23.5748 32.0001 23.5748C42.209 23.5748 49.959 30.8161 49.959 39.1392ZM52.3536 39.1392C52.3536 49.0576 43.241 57.0981 32.0001 57.0981C20.7592 57.0981 11.6467 49.0576 11.6467 39.1392C11.6467 29.2208 20.7592 21.1803 32.0001 21.1803C43.241 21.1803 52.3536 29.2208 52.3536 39.1392ZM27.4792 46.9982H38.039V43.6363H31.2075V31.9127H27.4792V46.9982Z" fill="black"/>
</g>
<defs>
<clipPath id="clip0_1967:20745">
<rect width="64" height="64" fill="white"/>
</clipPath>
</defs>
</svg>
