<svg width="64" height="64" viewBox="0 0 64 64" fill="none" xmlns="http://www.w3.org/2000/svg">
<path d="M12.7405 43.2519L12.7405 37.3373L12.7405 29.9441L12.7405 24.0296L3.77007 33.6407L12.7405 43.2519Z" fill="black"/>
<path fill-rule="evenodd" clip-rule="evenodd" d="M15.3035 49.7542L15.3035 17.5273L0.264221 33.6407L15.3035 49.7542ZM12.7405 43.2519L3.77008 33.6407L12.7405 24.0296L12.7405 43.2519Z" fill="white"/>
<path d="M64 33C64 45.0317 53.6727 54.7853 40.9332 54.7853C28.1938 54.7853 17.8665 45.0317 17.8665 33C17.8665 20.9683 28.1938 11.2147 40.9332 11.2147C53.6727 11.2147 64 20.9683 64 33Z" fill="white"/>
<path fill-rule="evenodd" clip-rule="evenodd" d="M58.1322 30.9766C58.1322 38.9475 50.7102 45.8823 40.9333 45.8823C31.1565 45.8823 23.7344 38.9475 23.7344 30.9766C23.7344 23.0057 31.1565 16.0709 40.9333 16.0709C50.7102 16.0709 58.1322 23.0057 58.1322 30.9766ZM60.4254 30.9766C60.4254 40.4753 51.6985 48.1755 40.9333 48.1755C30.1681 48.1755 21.4412 40.4753 21.4412 30.9766C21.4412 21.4779 30.1681 13.7777 40.9333 13.7777C51.6985 13.7777 60.4254 21.4779 60.4254 30.9766ZM36.6038 38.8416H46.7167V35.6219H40.1742V24.3945H36.6038V38.8416Z" fill="black"/>
</svg>
