<svg width="32" height="32" viewBox="0 0 32 32" fill="none" xmlns="http://www.w3.org/2000/svg">
<path d="M25.6298 21.6259L25.6298 18.6687L25.6298 14.9721L25.6298 12.0148L30.115 16.8204L25.6298 21.6259Z" fill="black"/>
<path fill-rule="evenodd" clip-rule="evenodd" d="M24.3483 24.8771L24.3483 8.76363L31.8679 16.8204L24.3483 24.8771ZM25.6298 21.6259L30.115 16.8204L25.6298 12.0148L25.6298 21.6259Z" fill="white"/>
<path d="M23.0668 16.5C23.0668 22.5158 17.9031 27.3926 11.5334 27.3926C5.16367 27.3926 0 22.5158 0 16.5C0 10.4842 5.16367 5.60736 11.5334 5.60736C17.9031 5.60736 23.0668 10.4842 23.0668 16.5Z" fill="white"/>
<path fill-rule="evenodd" clip-rule="evenodd" d="M20.1329 15.4883C20.1329 19.4738 16.4219 22.9412 11.5335 22.9412C6.64504 22.9412 2.93401 19.4738 2.93401 15.4883C2.93401 11.5029 6.64504 8.03545 11.5335 8.03545C16.4219 8.03545 20.1329 11.5029 20.1329 15.4883ZM21.2795 15.4883C21.2795 20.2377 16.9161 24.0878 11.5335 24.0878C6.15087 24.0878 1.78741 20.2377 1.78741 15.4883C1.78741 10.739 6.15087 6.88885 11.5335 6.88885C16.9161 6.88885 21.2795 10.739 21.2795 15.4883ZM12.897 19.4208H14.8783L13.2169 16.7687C13.6434 16.5761 13.9736 16.294 14.2075 15.9225C14.4483 15.5442 14.5687 15.0763 14.5687 14.5191C14.5687 13.783 14.321 13.212 13.8257 12.8061C13.3304 12.4002 12.5667 12.1973 11.5348 12.1973H8.72794V19.4208H10.5132V17.1299H11.3697H11.5245L12.897 19.4208ZM10.5132 15.6026V13.7245H11.4522C11.8719 13.7245 12.178 13.8002 12.3707 13.9515C12.5633 14.096 12.6596 14.3162 12.6596 14.612C12.6596 14.9353 12.553 15.183 12.3397 15.355C12.1333 15.5201 11.8478 15.6026 11.4832 15.6026H10.5132Z" fill="black"/>
</svg>
