<svg width="64" height="64" viewBox="0 0 64 64" fill="none" xmlns="http://www.w3.org/2000/svg">
<path d="M51.2595 43.2519L51.2595 37.3373L51.2595 29.9441L51.2595 24.0296L60.2299 33.6407L51.2595 43.2519Z" fill="black"/>
<path fill-rule="evenodd" clip-rule="evenodd" d="M48.6965 49.7542L48.6965 17.5273L63.7358 33.6407L48.6965 49.7542ZM51.2595 43.2519L60.2299 33.6407L51.2595 24.0296L51.2595 43.2519Z" fill="white"/>
<path d="M46.1335 33C46.1335 45.0317 35.8062 54.7853 23.0668 54.7853C10.3273 54.7853 0 45.0317 0 33C0 20.9683 10.3273 11.2147 23.0668 11.2147C35.8062 11.2147 46.1335 20.9683 46.1335 33Z" fill="white"/>
<path fill-rule="evenodd" clip-rule="evenodd" d="M40.2658 30.9766C40.2658 38.9475 32.8437 45.8823 23.0669 45.8823C13.29 45.8823 5.86796 38.9475 5.86796 30.9766C5.86796 23.0057 13.29 16.0709 23.0669 16.0709C32.8437 16.0709 40.2658 23.0057 40.2658 30.9766ZM42.559 30.9766C42.559 40.4753 33.8321 48.1755 23.0669 48.1755C12.3017 48.1755 3.57477 40.4753 3.57477 30.9766C3.57477 21.4779 12.3017 13.7777 23.0669 13.7777C33.8321 13.7777 42.559 21.4779 42.559 30.9766ZM25.7938 38.8416H29.7565L26.4336 33.5374C27.2867 33.1522 27.9472 32.588 28.415 31.845C28.8965 31.0883 29.1373 30.1527 29.1373 29.0382C29.1373 27.566 28.642 26.4239 27.6513 25.6122C26.6607 24.8004 25.1334 24.3945 23.0695 24.3945H17.4558V38.8416H21.0263V34.2598H22.7393H23.0489L25.7938 38.8416ZM21.0263 31.2052V27.449H22.9044C23.7437 27.449 24.356 27.6003 24.7413 27.903C25.1265 28.192 25.3192 28.6323 25.3192 29.2239C25.3192 29.8706 25.1059 30.3659 24.6794 30.7099C24.2666 31.0401 23.6956 31.2052 22.9663 31.2052H21.0263Z" fill="black"/>
</svg>
