<svg width="32" height="32" viewBox="0 0 32 32" fill="none" xmlns="http://www.w3.org/2000/svg">
<path d="M6.37024 21.6259L6.37024 18.6687L6.37024 14.9721L6.37024 12.0148L1.88503 16.8204L6.37024 21.6259Z" fill="black"/>
<path fill-rule="evenodd" clip-rule="evenodd" d="M7.65173 24.8771L7.65173 8.76363L0.13211 16.8204L7.65173 24.8771ZM6.37025 21.6259L1.88504 16.8204L6.37025 12.0148L6.37025 21.6259Z" fill="white"/>
<path d="M32 16.5C32 22.5158 26.8363 27.3926 20.4666 27.3926C14.0969 27.3926 8.93323 22.5158 8.93323 16.5C8.93323 10.4842 14.0969 5.60736 20.4666 5.60736C26.8363 5.60736 32 10.4842 32 16.5Z" fill="white"/>
<path fill-rule="evenodd" clip-rule="evenodd" d="M20.4667 22.9412C25.3551 22.9412 29.0661 19.4738 29.0661 15.4883C29.0661 11.5029 25.3551 8.03545 20.4667 8.03545C15.5783 8.03545 11.8672 11.5029 11.8672 15.4883C11.8672 19.4738 15.5783 22.9412 20.4667 22.9412ZM20.4667 24.0878C25.8493 24.0878 30.2127 20.2377 30.2127 15.4883C30.2127 10.739 25.8493 6.88885 20.4667 6.88885C15.0841 6.88885 10.7206 10.739 10.7206 15.4883C10.7206 20.2377 15.0841 24.0878 20.4667 24.0878Z" fill="black"/>
<path d="M23.8115 19.2652H21.8301L20.4577 16.9743H20.3029H19.4464V19.2652H17.6611V12.0417H20.468C21.4999 12.0417 22.2636 12.2446 22.7589 12.6505C23.2542 13.0564 23.5019 13.6274 23.5019 14.3635C23.5019 14.9208 23.3815 15.3886 23.1407 15.767C22.9068 16.1385 22.5766 16.4205 22.15 16.6132L23.8115 19.2652ZM19.4464 13.5689V15.4471H20.4164C20.781 15.4471 21.0665 15.3645 21.2729 15.1994C21.4862 15.0274 21.5928 14.7798 21.5928 14.4564C21.5928 14.1606 21.4965 13.9404 21.3039 13.796C21.1112 13.6446 20.8051 13.5689 20.3854 13.5689H19.4464Z" fill="black"/>
</svg>
