<svg width="32" height="32" viewBox="0 0 32 32" fill="none" xmlns="http://www.w3.org/2000/svg">
<path d="M21.2728 6.77273C21.2728 9.68477 18.9121 12.0455 16.0001 12.0455C13.088 12.0455 10.7274 9.68477 10.7274 6.77273C10.7274 3.86068 13.088 1.5 16.0001 1.5C18.9121 1.5 21.2728 3.86068 21.2728 6.77273Z" fill="white"/>
<path d="M21.2728 25.2273C21.2728 22.3152 18.9121 19.9545 16.0001 19.9545C13.088 19.9545 10.7274 22.3152 10.7274 25.2273C10.7274 28.1393 13.088 30.5 16.0001 30.5C18.9121 30.5 21.2728 28.1393 21.2728 25.2273Z" fill="white"/>
<path d="M6.77273 10.7273C9.68477 10.7273 12.0455 13.088 12.0455 16C12.0455 18.9121 9.68477 21.2728 6.77273 21.2728C3.86068 21.2728 1.5 18.9121 1.5 16C1.5 13.088 3.86068 10.7273 6.77273 10.7273Z" fill="white"/>
<path d="M25.2273 10.7273C22.3152 10.7273 19.9545 13.088 19.9545 16C19.9545 18.9121 22.3152 21.2728 25.2273 21.2728C28.1393 21.2728 30.5 18.9121 30.5 16C30.5 13.088 28.1393 10.7273 25.2273 10.7273Z" fill="white"/>
<path d="M15.9999 3.98135L18.4174 8.16852H13.5825L15.9999 3.98135Z" fill="black"/>
<path d="M15.9999 28.0186L18.4174 23.8315H13.5825L15.9999 28.0186Z" fill="black"/>
<path d="M3.98126 16L8.16843 13.5825V18.4174L3.98126 16Z" fill="black"/>
<path d="M28.0187 16L23.8316 13.5825V18.4174L28.0187 16Z" fill="black"/>
</svg>
