<svg width="32" height="32" viewBox="0 0 32 32" fill="none" xmlns="http://www.w3.org/2000/svg">
<path d="M11.3292 25.356L14.2035 25.356L17.7965 25.356L20.6709 25.3561L16 30.0269L11.3292 25.356Z" fill="black"/>
<path fill-rule="evenodd" clip-rule="evenodd" d="M8.1073 24.0215L23.8927 24.0215L16 31.9142L8.1073 24.0215ZM11.3291 25.3561L16 30.0269L20.6708 25.3561L11.3291 25.3561Z" fill="white"/>
<path d="M28.0108 11.3435C28.0108 17.6083 22.6334 22.687 16 22.687C9.36666 22.687 3.98926 17.6083 3.98926 11.3435C3.98926 5.07866 9.36666 0 16 0C22.6334 0 28.0108 5.07866 28.0108 11.3435Z" fill="white"/>
<path fill-rule="evenodd" clip-rule="evenodd" d="M16 18.0513C21.0908 18.0513 24.9554 14.4403 24.9554 10.2899C24.9554 6.13952 21.0908 2.52859 16 2.52859C10.9093 2.52859 7.04464 6.13952 7.04464 10.2899C7.04464 14.4403 10.9093 18.0513 16 18.0513ZM16 19.2453C21.6054 19.2453 26.1495 15.2359 26.1495 10.2899C26.1495 5.344 21.6054 1.33453 16 1.33453C10.3946 1.33453 5.85059 5.344 5.85059 10.2899C5.85059 15.2359 10.3946 19.2453 16 19.2453Z" fill="black"/>
<path d="M19.4833 14.2232H17.4199L15.9907 11.8375H15.8295H14.9375V14.2232H13.0784V6.70065H16.0014C17.0761 6.70065 17.8713 6.912 18.3871 7.33469C18.903 7.75739 19.1609 8.35203 19.1609 9.11861C19.1609 9.69892 19.0355 10.1861 18.7847 10.5801C18.5412 10.967 18.1973 11.2607 17.7531 11.4613L19.4833 14.2232ZM14.9375 8.29113V10.247H15.9477C16.3274 10.247 16.6247 10.161 16.8396 9.98907C17.0617 9.80997 17.1728 9.55205 17.1728 9.21533C17.1728 8.90726 17.0725 8.678 16.8719 8.52755C16.6713 8.36994 16.3525 8.29113 15.9154 8.29113H14.9375Z" fill="black"/>
</svg>
