<svg width="32" height="32" viewBox="0 0 32 32" fill="none" xmlns="http://www.w3.org/2000/svg">
<g clip-path="url(#clip0_1967_17226)">
<path fill-rule="evenodd" clip-rule="evenodd" d="M14.2224 0C24.0408 0 32.0002 7.95938 32.0002 17.7778V32L2.083 2.08282C0.796139 3.36967 0.000202179 5.14745 0.000202179 7.11113V32L0.000183105 32V7.11111C0.000183105 3.18375 3.18393 0 7.11129 0H14.2224Z" fill="white"/>
<path opacity="0.5" fill-rule="evenodd" clip-rule="evenodd" d="M32 32L2.08279 2.08282C0.795937 3.36968 0 5.14746 0 7.11114V32H32Z" fill="white"/>
<path d="M14.5848 15.2578L10.1448 21.1378H14.7581V23.1111H7.29144V21.5778L11.7048 15.7511H7.50478V13.7778H14.5848V15.2578Z" fill="black"/>
<path d="M24.9527 23.1111H22.3927L20.6194 20.1511H20.4194H19.3127V23.1111H17.0061V13.7778H20.6327C21.9661 13.7778 22.9527 14.04 23.5927 14.5644C24.2327 15.0889 24.5527 15.8267 24.5527 16.7778C24.5527 17.4978 24.3972 18.1022 24.0861 18.5911C23.7838 19.0711 23.3572 19.4355 22.8061 19.6844L24.9527 23.1111ZM19.3127 15.7511V18.1778H20.5661C21.0372 18.1778 21.4061 18.0711 21.6727 17.8578C21.9483 17.6355 22.0861 17.3155 22.0861 16.8978C22.0861 16.5155 21.9616 16.2311 21.7127 16.0444C21.4638 15.8489 21.0683 15.7511 20.5261 15.7511H19.3127Z" fill="black"/>
</g>
<defs>
<clipPath id="clip0_1967_17226">
<rect width="32" height="32" fill="white"/>
</clipPath>
</defs>
</svg>
