<svg width="64" height="64" viewBox="0 0 64 64" fill="none" xmlns="http://www.w3.org/2000/svg">
<path d="M42.5456 13.5455C42.5456 19.3695 37.8242 24.0909 32.0001 24.0909C26.176 24.0909 21.4547 19.3695 21.4547 13.5455C21.4547 7.72136 26.176 3 32.0001 3C37.8242 3 42.5456 7.72136 42.5456 13.5455Z" fill="white"/>
<path d="M42.5456 50.4545C42.5456 44.6305 37.8242 39.9091 32.0001 39.9091C26.176 39.9091 21.4547 44.6305 21.4547 50.4545C21.4547 56.2786 26.176 61 32.0001 61C37.8242 61 42.5456 56.2786 42.5456 50.4545Z" fill="white"/>
<path d="M13.5455 21.4546C19.3695 21.4546 24.0909 26.1759 24.0909 32C24.0909 37.8241 19.3695 42.5455 13.5455 42.5455C7.72136 42.5455 3 37.8241 3 32C3 26.1759 7.72136 21.4546 13.5455 21.4546Z" fill="white"/>
<path d="M50.4545 21.4546C44.6305 21.4546 39.9091 26.1759 39.9091 32C39.9091 37.8241 44.6305 42.5455 50.4545 42.5455C56.2786 42.5455 61 37.8241 61 32C61 26.1759 56.2786 21.4546 50.4545 21.4546Z" fill="white"/>
<path d="M31.9998 7.96271L36.8347 16.337H27.1649L31.9998 7.96271Z" fill="black"/>
<path d="M31.9998 56.0373L36.8347 47.663H27.1649L31.9998 56.0373Z" fill="black"/>
<path d="M7.96259 31.9999L16.3369 27.165V36.8348L7.96259 31.9999Z" fill="black"/>
<path d="M56.0374 31.9999L47.6631 27.165V36.8348L56.0374 31.9999Z" fill="black"/>
</svg>
