<svg width="64" height="64" viewBox="0 0 64 64" fill="none" xmlns="http://www.w3.org/2000/svg">
<g clip-path="url(#clip0_1967:20725)">
<path fill-rule="evenodd" clip-rule="evenodd" d="M38.8331 18.6136L32.6809 24.2926L26.238 18.3454C28.0859 17.9249 30.0154 17.7021 32 17.7021C34.3715 17.7021 36.6642 18.0202 38.8331 18.6136ZM41.7661 19.6126C50.4432 23.1765 56.5107 31.3446 56.5107 40.8511C56.5107 53.6359 45.5369 64 32 64C18.4632 64 7.48938 53.6359 7.48938 40.8511C7.48938 30.9979 14.0074 22.5826 23.1934 19.2413L32.6809 27.9989L41.7661 19.6126Z" fill="white"/>
<path fill-rule="evenodd" clip-rule="evenodd" d="M38.6724 9.91312V9.91318H48.2585L32.6807 24.2926L17.103 9.91318H26.6894V2.72339H38.6721V9.91312H38.6724Z" fill="black"/>
<path fill-rule="evenodd" clip-rule="evenodd" d="M26.6894 9.9132V2.72341H38.6721V9.91314L48.2585 9.9132L32.6807 24.2926L17.103 9.9132H26.6894ZM41.3958 7.18979H55.224L32.6807 27.9989L10.1375 7.18979H23.966V0H41.3955L41.3958 7.18979Z" fill="white"/>
<path d="M39.1084 46.7278H34.8977L31.981 41.8592H31.652H29.8318V46.7278H26.0378V31.3763H32.0029C34.196 31.3763 35.8188 31.8076 36.8715 32.6702C37.9242 33.5329 38.4505 34.7463 38.4505 36.3107C38.4505 37.495 38.1946 38.4892 37.6829 39.2933C37.1858 40.0828 36.484 40.6822 35.5776 41.0916L39.1084 46.7278ZM29.8318 34.6221V38.6134H31.8932C32.6681 38.6134 33.2749 38.438 33.7135 38.0871C34.1667 37.7216 34.3933 37.1953 34.3933 36.5081C34.3933 35.8794 34.1886 35.4116 33.7793 35.1045C33.3699 34.7829 32.7193 34.6221 31.8275 34.6221H29.8318Z" fill="black"/>
<path d="M32.0001 54.5397C42.389 54.5397 50.2756 47.1708 50.2756 38.701C50.2756 31.7976 45.0364 25.6256 37.4735 23.5788L39.5438 21.6755C47.2525 24.3367 52.7123 30.9562 52.7123 38.701C52.7123 48.7943 43.4392 56.9765 32.0001 56.9765C20.5611 56.9765 11.2879 48.7943 11.2879 38.701C11.2879 30.6067 17.2517 23.7414 25.5138 21.3396L27.6241 23.3197C27.1392 23.4231 26.6622 23.5433 26.194 23.6794C18.7678 25.8383 13.7246 31.8898 13.7246 38.701C13.7246 47.1708 21.6113 54.5397 32.0001 54.5397Z" fill="black"/>
</g>
<defs>
<clipPath id="clip0_1967:20725">
<rect width="64" height="64" fill="white"/>
</clipPath>
</defs>
</svg>
