<svg width="64" height="64" viewBox="0 0 64 64" fill="none" xmlns="http://www.w3.org/2000/svg">
<path d="M12.7405 43.2519L12.7405 37.3373L12.7405 29.9441L12.7405 24.0296L3.77007 33.6407L12.7405 43.2519Z" fill="black"/>
<path fill-rule="evenodd" clip-rule="evenodd" d="M15.3035 49.7542L15.3035 17.5273L0.264221 33.6407L15.3035 49.7542ZM12.7405 43.2519L3.77008 33.6407L12.7405 24.0296L12.7405 43.2519Z" fill="white"/>
<path d="M64 33C64 45.0317 53.6727 54.7853 40.9332 54.7853C28.1938 54.7853 17.8665 45.0317 17.8665 33C17.8665 20.9683 28.1938 11.2147 40.9332 11.2147C53.6727 11.2147 64 20.9683 64 33Z" fill="white"/>
<path fill-rule="evenodd" clip-rule="evenodd" d="M40.9333 45.8823C50.7102 45.8823 58.1322 38.9475 58.1322 30.9766C58.1322 23.0057 50.7102 16.0709 40.9333 16.0709C31.1565 16.0709 23.7344 23.0057 23.7344 30.9766C23.7344 38.9475 31.1565 45.8823 40.9333 45.8823ZM40.9333 48.1755C51.6985 48.1755 60.4254 40.4753 60.4254 30.9766C60.4254 21.4779 51.6985 13.7777 40.9333 13.7777C30.1681 13.7777 21.4412 21.4779 21.4412 30.9766C21.4412 40.4753 30.1681 48.1755 40.9333 48.1755Z" fill="black"/>
<path d="M47.6229 38.5305H43.6603L40.9154 33.9487H40.6058H38.8928V38.5305H35.3223V24.0834H40.936C42.9999 24.0834 44.5271 24.4893 45.5178 25.3011C46.5084 26.1129 47.0038 27.2549 47.0038 28.7271C47.0038 29.8416 46.763 30.7772 46.2814 31.534C45.8136 32.277 45.1532 32.8411 44.3001 33.2263L47.6229 38.5305ZM38.8928 27.1379V30.8942H40.8328C41.562 30.8942 42.133 30.7291 42.5458 30.3988C42.9723 30.0549 43.1856 29.5595 43.1856 28.9129C43.1856 28.3212 42.993 27.8809 42.6077 27.592C42.2225 27.2893 41.6102 27.1379 40.7709 27.1379H38.8928Z" fill="black"/>
</svg>
