<svg width="32" height="32" viewBox="0 0 32 32" fill="none" xmlns="http://www.w3.org/2000/svg">
<g clip-path="url(#clip0_1967_20922)">
<path d="M32 30.0351C32 30.0351 21.7865 30.0351 14.0351 30.0351C6.28373 30.0351 0 23.7514 0 16C0 8.24863 6.28373 1.9649 14.0351 1.9649C17.8901 1.9649 21.3821 3.5191 23.9186 6.03508C25.3359 7.44083 32 13.7544 32 13.7544V30.0351Z" fill="white"/>
<path d="M10.4592 21.4581V13.8168H13.2865C14.2763 13.8168 15.0331 14.0424 15.5571 14.4936C16.0883 14.9375 16.354 15.5415 16.354 16.3057C16.354 16.8151 16.2375 17.2808 16.0047 17.7029C15.7718 18.1178 15.4225 18.4489 14.9567 18.6963C14.4909 18.9437 13.9306 19.0675 13.2756 19.0675H12.3477V21.4581H10.4592ZM13.2538 17.4519C13.5958 17.4519 13.8614 17.3573 14.0507 17.168C14.2399 16.9788 14.3345 16.7205 14.3345 16.393C14.3345 16.0728 14.2399 15.8326 14.0507 15.6725C13.8614 15.5124 13.5885 15.4324 13.2319 15.4324H12.3477V17.4519H13.2538Z" fill="black"/>
<path d="M21.9142 13.8168V19.8425H23.3442V21.4581H18.2245V19.8425H19.993V15.9018L18.4756 16.5022L17.8752 15.094L20.4515 13.8168H21.9142Z" fill="black"/>
</g>
<defs>
<clipPath id="clip0_1967_20922">
<rect width="32" height="32" fill="white"/>
</clipPath>
</defs>
</svg>
