<svg width="32" height="32" viewBox="0 0 32 32" fill="none" xmlns="http://www.w3.org/2000/svg">
<path fill-rule="evenodd" clip-rule="evenodd" d="M1 12.8C1 19.003 2.8036 23.7029 5.53676 26.8999L12.8445 19.5921L11.3517 17.1003H11.1661H10.1396V19.8459H8V11.1885H11.364C12.6008 11.1885 13.516 11.4317 14.1097 11.9182C14.7033 12.4046 15.0002 13.089 15.0002 13.9712C15.0002 14.6391 14.8559 15.1998 14.5673 15.6532C14.2869 16.0985 13.8912 16.4365 13.38 16.6674L14.3003 18.1364L19.2437 13.1929V13.0189H16.7207V11.1885H21.2482L29.5747 2.86198C29.0923 1.26725 27.6947 0 25.9154 0H4.58742C2.60614 0 1 1.60614 1 3.58742V12.8ZM10.1396 15.2698V13.0189H11.2651C11.768 13.0189 12.135 13.1096 12.3658 13.291C12.5967 13.4641 12.7121 13.728 12.7121 14.0825C12.7121 14.4701 12.5843 14.7669 12.3287 14.973C12.0814 15.1709 11.7392 15.2698 11.3022 15.2698H10.1396Z" fill="white"/>
<path opacity="0.5" fill-rule="evenodd" clip-rule="evenodd" d="M12.8445 19.5922L5.53687 26.8998C8.44366 30.2998 12.4018 31.9998 16.36 31.9998H27.4799C30.0759 31.9998 31.8471 29.3131 30.9532 26.8758C29.5274 22.9877 27.88 17.7101 27.88 14.0798C27.88 11.1617 28.6784 7.97735 29.5471 5.37631C29.8282 4.53447 29.8154 3.65746 29.5748 2.86194L21.2481 11.1886H23.9064V13.019H21.3834V19.846H19.2437V13.193L14.3002 18.1365L15.3712 19.846H12.9966L12.8445 19.5922Z" fill="white"/>
<path d="M15.3712 19.846H12.9966L11.3517 17.1004H11.1661H10.1396V19.846H8V11.1886H11.364C12.6008 11.1886 13.516 11.4318 14.1097 11.9183C14.7033 12.4048 15.0002 13.0891 15.0002 13.9713C15.0002 14.6392 14.8559 15.1999 14.5673 15.6534C14.2869 16.0986 13.8912 16.4367 13.38 16.6675L15.3712 19.846ZM10.1396 13.019V15.27H11.3022C11.7392 15.27 12.0814 15.171 12.3287 14.9731C12.5843 14.767 12.7121 14.4702 12.7121 14.0827C12.7121 13.7281 12.5967 13.4643 12.3658 13.2911C12.135 13.1097 11.768 13.019 11.2651 13.019H10.1396Z" fill="black"/>
<path d="M21.3834 19.846H19.2437V13.019H16.7207V11.1886H23.9064V13.019H21.3834V19.846Z" fill="black"/>
</svg>
