<svg width="32" height="32" viewBox="0 0 32 32" fill="none" xmlns="http://www.w3.org/2000/svg">
<path d="M29.3395 0H5.41474C3.48525 0 2.17946 2.05458 2.85305 3.86268C3.89718 6.66538 5.05504 10.5657 5.05504 14.08C5.05504 18.1794 2.95445 24.3793 1.44423 28.307C0.770135 30.0602 2.05069 32 3.92899 32H16.575C24.255 32 31.935 25.6 31.935 12.8V2.59556C31.935 1.16207 30.773 0 29.3395 0Z" fill="white"/>
<path d="M17.8151 19.8523H11.7173V11.1412H13.8702V17.911H17.8151V19.8523Z" fill="black"/>
<path d="M22.6315 19.8523H20.4786V12.983H17.94V11.1412H25.1702V12.983H22.6315V19.8523Z" fill="black"/>
</svg>
