<svg width="32" height="32" viewBox="0 0 32 32" fill="none" xmlns="http://www.w3.org/2000/svg">
<path d="M30.4998 15.9999C30.4998 24.0079 24.008 30.4997 16 30.4997C7.99201 30.4997 1.50024 24.0079 1.50024 15.9999C1.50024 7.99189 7.99201 1.50012 16 1.50012C24.008 1.50012 30.4998 7.99189 30.4998 15.9999Z" fill="black"/>
<path d="M14.5564 30.4398C12.3239 30.2273 10.0625 29.4254 8.11714 28.1566C6.48797 27.094 6.1202 26.6592 6.1202 25.7866C6.1202 24.038 8.04616 20.9723 11.3368 17.4816C13.2079 15.4979 15.8113 13.1729 16.092 13.2341C16.6404 13.3565 21.0182 17.6265 22.657 19.6327C25.2508 22.8143 26.4444 25.4162 25.8379 26.5755C25.3766 27.4579 22.5215 29.1807 20.4246 29.8408C18.6954 30.3883 16.4243 30.6201 14.5564 30.4398ZM1.50024 16.2518C1.50024 9.12768 5.32981 6.20431 5.32981 6.20431C6.0589 5.44756 6.12342 5.42824 7.01059 5.72772C8.0881 6.0916 9.23658 6.88378 11.0206 8.49712L12.0626 9.43743L11.4948 10.1362C8.85268 13.3758 6.06858 17.9678 5.02011 20.8081C4.4491 22.3506 4.22004 23.9027 4.46523 24.5468C4.52455 24.7035 4.52569 24.8258 4.49871 24.8233C4.49871 24.8233 1.50024 21.2653 1.50024 16.2518ZM27.6671 24.3214C27.7994 23.6709 27.6316 22.4729 27.2348 21.2653C26.3799 18.6505 23.5119 13.7815 20.8795 10.4743L20.0504 9.43421L20.9472 8.60983C22.1183 7.53427 22.9312 6.89022 23.8087 6.346C24.5023 5.91449 25.4895 5.5345 25.9154 5.5345C26.1767 5.5345 27.0993 6.49091 27.8445 7.53749C28.9995 9.15405 29.8479 11.1184 30.277 13.16C30.5544 14.4803 30.577 17.3045 30.3222 18.6183C30.1125 19.6971 29.6673 21.0979 29.235 22.0511C28.9091 22.7628 28.1026 24.1442 27.7478 24.5951C27.5671 24.8205 27.5671 24.8205 27.6671 24.3214ZM14.7951 5.03859C13.5789 4.4203 11.7045 3.76015 10.669 3.57982C10.3044 3.51864 9.68823 3.48321 9.29142 3.50254C8.43652 3.5444 8.47523 3.50254 9.84631 2.85527C10.9851 2.31749 11.9368 2.00191 13.2272 1.73141C14.679 1.42549 17.405 1.42227 18.8341 1.72497C20.3762 2.05021 22.1925 2.72646 23.2151 3.35441L23.5184 3.54118L22.8216 3.50576C21.4343 3.43491 19.4148 3.99523 17.2437 5.05147C16.5888 5.37027 16.021 5.62467 15.9791 5.61501C15.9404 5.60857 15.4048 5.34773 14.7951 5.03859Z" fill="white"/>
</svg>
