<svg width="32" height="32" viewBox="0 0 32 32" fill="none" xmlns="http://www.w3.org/2000/svg">
<g clip-path="url(#clip0_1967_20968)">
<path d="M-2.67029e-05 30.0351C-2.67029e-05 30.0351 10.2135 30.0351 17.9649 30.0351C25.7163 30.0351 32 23.7514 32 16C32 8.24863 25.7163 1.9649 17.9649 1.9649C14.1099 1.9649 10.6179 3.5191 8.08136 6.03508C6.66411 7.44083 -2.67029e-05 13.7544 -2.67029e-05 13.7544V30.0351Z" fill="white"/>
<path d="M10.241 21.4581V13.8168H13.0683C14.058 13.8168 14.8148 14.0424 15.3388 14.4936C15.8701 14.9375 16.1357 15.5415 16.1357 16.3056C16.1357 16.8151 16.0193 17.2808 15.7864 17.7029C15.5535 18.1177 15.2042 18.4489 14.7384 18.6963C14.2727 18.9437 13.7123 19.0674 13.0573 19.0674H12.1295V21.4581H10.241ZM13.0355 17.4518C13.3776 17.4518 13.6432 17.3572 13.8324 17.168C14.0216 16.9788 14.1162 16.7205 14.1162 16.393C14.1162 16.0728 14.0216 15.8326 13.8324 15.6725C13.6432 15.5124 13.3703 15.4324 13.0137 15.4324H12.1295V17.4518H13.0355Z" fill="black"/>
<path d="M20.0804 19.8316H23.508V21.4581H17.6897V19.908L19.8948 18.1177C20.2368 17.8339 20.4952 17.6083 20.6698 17.4409C20.8445 17.2735 20.9791 17.1025 21.0737 16.9279C21.1756 16.7532 21.2266 16.5604 21.2266 16.3493C21.2266 16.0218 21.0992 15.7744 20.8445 15.607C20.5971 15.4396 20.2805 15.3559 19.8948 15.3559C19.6037 15.3559 19.3162 15.3996 19.0324 15.4869C18.7486 15.567 18.4939 15.6761 18.2683 15.8144L17.657 14.4171C18.0063 14.1915 18.3956 14.0132 18.825 13.8823C19.2616 13.7513 19.7274 13.6858 20.2223 13.6858C21.1392 13.6858 21.8779 13.8786 22.4383 14.2643C22.9986 14.6427 23.2788 15.2031 23.2788 15.9454C23.2788 16.4548 23.1333 16.9206 22.8422 17.3427C22.5583 17.7575 22.1181 18.2051 21.5213 18.6854L20.0804 19.8316Z" fill="black"/>
</g>
<defs>
<clipPath id="clip0_1967_20968">
<rect width="32" height="32" fill="white"/>
</clipPath>
</defs>
</svg>
