<svg width="32" height="32" viewBox="0 0 32 32" fill="none" xmlns="http://www.w3.org/2000/svg">
<g clip-path="url(#clip0_1967_20974)">
<path fill-rule="evenodd" clip-rule="evenodd" d="M20.4105 11.0264L30.574 0.862951C30.1016 0.333419 29.414 0 28.6485 0H4.435C2.5174 0 1.22 2.04199 1.89161 3.83813C2.94948 6.66723 4.13205 10.6273 4.13205 14.1932C4.13205 18.3439 1.99565 24.631 0.471887 28.5874C0.174504 29.3595 0.25895 30.1682 0.607725 30.8292L13.4103 18.0267L12.7582 16.9382H12.5727H11.5461V19.6839H9.40651V11.0264H12.7705C14.0073 11.0264 14.9225 11.2697 15.5162 11.7561C16.1098 12.2426 16.4067 12.927 16.4067 13.8092C16.4067 14.442 16.2771 14.9786 16.018 15.419L18.5801 12.8569H18.1272V11.0264H20.4105ZM15.0883 16.3487C14.9926 16.4055 14.892 16.4577 14.7865 16.5054L14.8424 16.5946L15.0883 16.3487ZM11.5461 15.1078V12.8569H12.6716C13.1746 12.8569 13.5415 12.9476 13.7723 13.129C14.0032 13.3021 14.1186 13.566 14.1186 13.9205C14.1186 14.308 13.9908 14.6049 13.7352 14.811C13.4879 15.0089 13.1457 15.1078 12.7087 15.1078H11.5461Z" fill="white"/>
<path opacity="0.5" fill-rule="evenodd" clip-rule="evenodd" d="M13.4102 18.0267L0.595703 30.8412C1.03566 31.6653 1.88756 32.2572 2.92187 32.2572H15.7263C23.468 32.2572 31.2097 25.8058 31.2097 12.9029V2.57956C31.2097 1.92503 30.966 1.32744 30.5643 0.87262L20.4104 11.0264H25.3127V12.8569H22.7897V19.6839H20.6501V12.8569H18.58L16.0178 15.419C16.0035 15.4434 15.9888 15.4674 15.9737 15.4912C15.7512 15.8445 15.456 16.1303 15.0882 16.3487L14.8423 16.5946L16.7776 19.6839H14.403L13.4102 18.0267Z" fill="white"/>
<path d="M16.7777 19.846H14.4031L12.7582 17.1003H12.5726H11.5461V19.846H9.40649V11.1885H12.7705C14.0073 11.1885 14.9225 11.4318 15.5162 11.9182C16.1098 12.4047 16.4066 13.089 16.4066 13.9713C16.4066 14.6391 16.2623 15.1998 15.9738 15.6533C15.6934 16.0985 15.2977 16.4366 14.7865 16.6674L16.7777 19.846ZM11.5461 13.019V15.2699H12.7087C13.1457 15.2699 13.4879 15.171 13.7352 14.9731C13.9908 14.7669 14.1186 14.4701 14.1186 14.0826C14.1186 13.728 14.0032 13.4642 13.7723 13.2911C13.5414 13.1097 13.1745 13.019 12.6716 13.019H11.5461Z" fill="black"/>
<path d="M22.7898 19.846H20.6502V13.019H18.1272V11.1885H25.3129V13.019H22.7898V19.846Z" fill="black"/>
</g>
<defs>
<clipPath id="clip0_1967_20974">
<rect width="32" height="32" fill="white"/>
</clipPath>
</defs>
</svg>
