<svg width="64" height="64" viewBox="0 0 64 64" fill="none" xmlns="http://www.w3.org/2000/svg">
<path d="M55.3383 52.2105H20.5714H20.2105C9.04856 52.2105 0 43.162 0 32C0 20.838 9.04856 11.7895 20.2105 11.7895H20.5714H38.015C52.3661 11.7895 64 23.4233 64 37.7744V43.5489C64 48.3326 60.122 52.2105 55.3383 52.2105Z" fill="white"/>
<path d="M29.6128 41.8856H18.0591V25.3803H22.1382V38.2073H29.6128V41.8856Z" fill="black"/>
<path d="M43.6081 33.0671C44.7085 33.4286 45.4866 33.9474 45.9425 34.6233C46.414 35.2992 46.6498 36.1166 46.6498 37.0755C46.6498 38.0501 46.3983 38.8989 45.8953 39.622C45.408 40.3451 44.7006 40.9031 43.7732 41.2961C42.8615 41.6891 41.7926 41.8856 40.5665 41.8856H33.3749V25.3803H39.9062C41.9026 25.3803 43.3645 25.7497 44.2919 26.4886C45.2351 27.2116 45.7067 28.2413 45.7067 29.5774C45.7067 31.165 45.0072 32.3283 43.6081 33.0671ZM37.5248 28.7521V32.1003H39.694C40.3385 32.1003 40.8258 31.951 41.1559 31.6523C41.5018 31.3537 41.6747 30.9214 41.6747 30.3555C41.6747 29.2866 40.9909 28.7521 39.6233 28.7521H37.5248ZM40.142 38.5374C40.8494 38.5374 41.376 38.3723 41.7218 38.0422C42.0834 37.6964 42.2641 37.2484 42.2641 36.6982C42.2641 35.5664 41.5882 35.0006 40.2363 35.0006H37.5248V38.5374H40.142Z" fill="black"/>
</svg>
