<svg width="32" height="32" viewBox="0 0 32 32" fill="none" xmlns="http://www.w3.org/2000/svg">
<path d="M2.53862 0H25.9386C27.8257 0 29.1029 2.05458 28.444 3.86268C27.4228 6.66539 26.2904 10.5657 26.2904 14.08C26.2904 18.1794 28.3449 24.3793 29.822 28.307C30.4813 30.0602 29.2288 32 27.3917 32H15.0231C7.51153 32 -8.9407e-07 25.6 -8.9407e-07 12.8V2.59556C-8.9407e-07 1.16207 1.13658 0 2.53862 0Z" fill="white"/>
<path d="M13.4135 19.8523H11.0241L9.36903 17.0897H9.18236H8.14947V19.8523H5.99658V11.1412H9.38147C10.6259 11.1412 11.5468 11.386 12.1441 11.8755C12.7415 12.3649 13.0401 13.0535 13.0401 13.9412C13.0401 14.6132 12.895 15.1774 12.6046 15.6337C12.3225 16.0817 11.9243 16.4218 11.4099 16.6541L13.4135 19.8523ZM8.14947 12.983V15.2479H9.31925C9.75895 15.2479 10.1032 15.1483 10.3521 14.9492C10.6093 14.7418 10.7379 14.4432 10.7379 14.0532C10.7379 13.6965 10.6218 13.431 10.3895 13.2568C10.1572 13.0743 9.78799 12.983 9.28192 12.983H8.14947Z" fill="black"/>
<path d="M19.4629 19.8523H17.31V12.983H14.7714V11.1412H22.0016V12.983H19.4629V19.8523Z" fill="black"/>
</svg>
