<svg width="64" height="64" viewBox="0 0 64 64" fill="none" xmlns="http://www.w3.org/2000/svg">
<g clip-path="url(#clip0_1967:20922)">
<path d="M64.0001 60.0702C64.0001 60.0702 43.5729 60.0702 28.0702 60.0702C12.5675 60.0702 0 47.5027 0 32C0 16.4973 12.5675 3.92981 28.0702 3.92981C35.7802 3.92981 42.7642 7.03821 47.8373 12.0702C50.6718 14.8817 64.0001 27.5088 64.0001 27.5088V60.0702Z" fill="white"/>
<path d="M20.9187 42.9162V27.6335H26.5733C28.5528 27.6335 30.0665 28.0847 31.1144 28.9871C32.1769 29.875 32.7082 31.083 32.7082 32.6113C32.7082 33.6301 32.4753 34.5617 32.0095 35.4058C31.5438 36.2355 30.8452 36.8977 29.9136 37.3926C28.9821 37.8875 27.8614 38.1349 26.5515 38.1349H24.6957V42.9162H20.9187ZM26.5078 34.9037C27.1919 34.9037 27.7231 34.7145 28.1016 34.3361C28.48 33.9576 28.6692 33.4409 28.6692 32.786C28.6692 32.1455 28.48 31.6652 28.1016 31.345C27.7231 31.0248 27.1773 30.8647 26.4641 30.8647H24.6957V34.9037H26.5078Z" fill="black"/>
<path d="M43.8287 27.6335V39.685H46.6887V42.9162H36.4493V39.685H39.9862V31.8035L36.9515 33.0043L35.7507 30.1879L40.9031 27.6335H43.8287Z" fill="black"/>
</g>
<defs>
<clipPath id="clip0_1967:20922">
<rect width="64" height="64" fill="white"/>
</clipPath>
</defs>
</svg>
