<svg width="64" height="64" viewBox="0 0 64 64" fill="none" xmlns="http://www.w3.org/2000/svg">
<g clip-path="url(#clip0_1967:20968)">
<path d="M-5.34058e-05 60.0702C-5.34058e-05 60.0702 20.4271 60.0702 35.9298 60.0702C51.4325 60.0702 64 47.5027 64 32C64 16.4973 51.4325 3.92981 35.9298 3.92981C28.2198 3.92981 21.2358 7.03821 16.1627 12.0702C13.3282 14.8817 -5.34058e-05 27.5088 -5.34058e-05 27.5088V60.0702Z" fill="white"/>
<path d="M20.4817 42.9162V27.6335H26.1363C28.1157 27.6335 29.6295 28.0847 30.6774 28.9871C31.7399 29.875 32.2712 31.083 32.2712 32.6113C32.2712 33.6301 32.0383 34.5617 31.5725 35.4058C31.1068 36.2355 30.4081 36.8977 29.4766 37.3926C28.5451 37.8874 27.4244 38.1349 26.1144 38.1349H24.2587V42.9162H20.4817ZM26.0708 34.9037C26.7549 34.9037 27.2861 34.7145 27.6645 34.336C28.043 33.9576 28.2322 33.4409 28.2322 32.786C28.2322 32.1455 28.043 31.6652 27.6645 31.345C27.2861 31.0248 26.7403 30.8647 26.0271 30.8647H24.2587V34.9037H26.0708Z" fill="black"/>
<path d="M40.1605 39.6631H47.0158V42.9162H35.3792V39.816L39.7893 36.2355C40.4734 35.6678 40.9901 35.2166 41.3394 34.8819C41.6887 34.5471 41.958 34.2051 42.1472 33.8557C42.351 33.5064 42.4529 33.1207 42.4529 32.6986C42.4529 32.0437 42.1982 31.5488 41.6887 31.214C41.1939 30.8793 40.5607 30.7119 39.7893 30.7119C39.2071 30.7119 38.6322 30.7992 38.0646 30.9739C37.4969 31.134 36.9875 31.3523 36.5363 31.6288L35.3137 28.8343C36.0123 28.3831 36.791 28.0265 37.6498 27.7645C38.5231 27.5025 39.4546 27.3715 40.4443 27.3715C42.2782 27.3715 43.7555 27.7572 44.8763 28.5286C45.997 29.2855 46.5574 30.4062 46.5574 31.8908C46.5574 32.9097 46.2663 33.8412 45.6841 34.6854C45.1164 35.515 44.2359 36.4101 43.0424 37.3708L40.1605 39.6631Z" fill="black"/>
</g>
<defs>
<clipPath id="clip0_1967:20968">
<rect width="64" height="64" fill="white"/>
</clipPath>
</defs>
</svg>
