<svg width="64" height="64" viewBox="0 0 64 64" fill="none" xmlns="http://www.w3.org/2000/svg">
<path d="M0 38.623L15.7689 53.9731C26.408 64.6122 43.5849 64.6845 54.1347 54.1347C64.6845 43.5849 64.6122 26.408 53.9731 15.7689L38.6917 0H0V38.623Z" fill="white"/>
<path d="M19 42V25H25.1551C27.3098 25 28.9576 25.5019 30.0983 26.5057C31.2548 27.4933 31.8331 28.8371 31.8331 30.5371C31.8331 31.6705 31.5796 32.7067 31.0726 33.6457C30.5657 34.5686 29.8052 35.3052 28.7912 35.8557C27.7772 36.4062 26.5573 36.6814 25.1314 36.6814H23.1114V42H19ZM25.0839 33.0871C25.8285 33.0871 26.4068 32.8767 26.8187 32.4557C27.2306 32.0348 27.4366 31.46 27.4366 30.7314C27.4366 30.019 27.2306 29.4848 26.8187 29.1286C26.4068 28.7724 25.8126 28.5943 25.0363 28.5943H23.1114V33.0871H25.0839Z" fill="black"/>
<path d="M46.6948 25V35.2243H49V38.4057H46.6948V42H42.5121V38.4057H34.9073V35.7586L42.8211 25H46.6948ZM42.6547 29.9057L38.8048 35.2243H42.6547V29.9057Z" fill="black"/>
</svg>
