<svg width="32" height="32" viewBox="0 0 32 32" fill="none" xmlns="http://www.w3.org/2000/svg">
<path d="M29.3395 0H5.41474C3.48525 0 2.17946 2.05458 2.85305 3.86268C3.89718 6.66538 5.05504 10.5657 5.05504 14.08C5.05504 18.1794 2.95445 24.3793 1.44423 28.307C0.770135 30.0602 2.05069 32 3.92899 32H16.575C24.255 32 31.935 25.6 31.935 12.8V2.59556C31.935 1.16207 30.773 0 29.3395 0Z" fill="white"/>
<path d="M17.4135 19.8523H15.0241L13.369 17.0897H13.1824H12.1495V19.8523H9.99658V11.1412H13.3815C14.6259 11.1412 15.5468 11.386 16.1441 11.8755C16.7415 12.3649 17.0401 13.0535 17.0401 13.9412C17.0401 14.6132 16.895 15.1774 16.6046 15.6337C16.3225 16.0817 15.9243 16.4218 15.4099 16.6541L17.4135 19.8523ZM12.1495 12.983V15.2479H13.3192C13.759 15.2479 14.1032 15.1483 14.3521 14.9492C14.6093 14.7418 14.7379 14.4432 14.7379 14.0532C14.7379 13.6965 14.6218 13.431 14.3895 13.2568C14.1572 13.0743 13.788 12.983 13.2819 12.983H12.1495Z" fill="black"/>
<path d="M23.4629 19.8523H21.31V12.983H18.7714V11.1412H26.0016V12.983H23.4629V19.8523Z" fill="black"/>
</svg>
