<svg width="32" height="32" viewBox="0 0 32 32" fill="none" xmlns="http://www.w3.org/2000/svg">
<g clip-path="url(#clip0_1967_20928)">
<path fill-rule="evenodd" clip-rule="evenodd" d="M20.4105 11.0264L30.574 0.862951C30.1016 0.333419 29.414 0 28.6485 0H4.435C2.5174 0 1.22 2.04199 1.89161 3.83813C2.94948 6.66723 4.13205 10.6273 4.13205 14.1932C4.13205 18.3439 1.99565 24.631 0.471887 28.5874C0.174504 29.3595 0.25895 30.1682 0.607725 30.8292L11.7531 19.6839H10.6747V11.0264H12.8143V17.7545H13.6825L18.5801 12.8569H16.859V11.0264H20.4105Z" fill="white"/>
<path opacity="0.5" fill-rule="evenodd" clip-rule="evenodd" d="M11.753 19.6839L0.595703 30.8412C1.03566 31.6653 1.88756 32.2572 2.92187 32.2572H15.7263C23.468 32.2572 31.2097 25.8058 31.2097 12.9029V2.57956C31.2097 1.92503 30.966 1.32744 30.5643 0.87262L20.4104 11.0264H24.0446V12.8569H21.5215V19.6839H19.3819V12.8569H18.58L13.6824 17.7545H16.7348V19.6839H11.753Z" fill="white"/>
<path d="M16.735 19.846H10.6748V11.1885H12.8144V17.9166H16.735V19.846Z" fill="black"/>
<path d="M21.5218 19.846H19.3822V13.019H16.8591V11.1885H24.0448V13.019H21.5218V19.846Z" fill="black"/>
</g>
<defs>
<clipPath id="clip0_1967_20928">
<rect width="32" height="32" fill="white"/>
</clipPath>
</defs>
</svg>
