<svg width="32" height="32" viewBox="0 0 32 32" fill="none" xmlns="http://www.w3.org/2000/svg">
<path d="M31.9074 19.3835L24.2081 26.9866C18.8885 32.3061 10.3001 32.3423 5.02516 27.0674C-0.24974 21.7925 -0.213566 13.204 5.10596 7.88446L13.0209 0H31.9074V19.3835Z" fill="white"/>
<path d="M8.76807 20.8678V12.5608H11.8417C12.9176 12.5608 13.7404 12.8061 14.31 13.2966C14.8876 13.7792 15.1763 14.4358 15.1763 15.2665C15.1763 15.8203 15.0498 16.3267 14.7966 16.7855C14.5434 17.2365 14.1637 17.5965 13.6573 17.8654C13.151 18.1344 12.5418 18.2689 11.8298 18.2689H10.8211V20.8678H8.76807ZM11.8061 16.5126C12.1779 16.5126 12.4667 16.4097 12.6724 16.204C12.8781 15.9983 12.9809 15.7175 12.9809 15.3615C12.9809 15.0134 12.8781 14.7523 12.6724 14.5782C12.4667 14.4042 12.17 14.3172 11.7823 14.3172H10.8211V16.5126H11.8061Z" fill="black"/>
<path d="M19.6783 12.3591C20.6909 12.3591 21.4544 12.5569 21.9686 12.9524C22.4829 13.348 22.74 13.8583 22.74 14.4833C22.74 14.8868 22.6213 15.2468 22.384 15.5632C22.1466 15.8797 21.8025 16.1328 21.3515 16.3227V16.3702C21.8816 16.4809 22.3009 16.7064 22.6095 17.0466C22.9259 17.3868 23.0842 17.8457 23.0842 18.4232C23.0842 18.9533 22.9299 19.42 22.6213 19.8235C22.3128 20.2191 21.8935 20.5277 21.3634 20.7492C20.8413 20.9628 20.2637 21.0696 19.6308 21.0696C19.0137 21.0696 18.4283 20.9865 17.8745 20.8204C17.3207 20.6542 16.8578 20.4169 16.486 20.1083L17.3286 18.5893C17.8982 19.0878 18.6023 19.337 19.4409 19.337C19.8998 19.337 20.2558 19.246 20.509 19.064C20.77 18.8742 20.9006 18.6131 20.9006 18.2808C20.9006 17.6321 20.418 17.3077 19.4528 17.3077H18.2898V15.7887H19.3104C19.7139 15.7887 20.0264 15.7175 20.2479 15.5751C20.4773 15.4248 20.592 15.2151 20.592 14.9461C20.592 14.693 20.4773 14.4873 20.2479 14.329C20.0264 14.1708 19.7139 14.0917 19.3104 14.0917C18.986 14.0917 18.6656 14.1471 18.3491 14.2578C18.0327 14.3607 17.7518 14.5031 17.5066 14.685L16.6521 13.3678C17.0635 13.0355 17.5263 12.7863 18.0406 12.6201C18.5627 12.4461 19.1086 12.3591 19.6783 12.3591Z" fill="black"/>
</svg>
