<svg width="64" height="64" viewBox="0 0 64 64" fill="none" xmlns="http://www.w3.org/2000/svg">
<g clip-path="url(#clip0_1967:20928)">
<path fill-rule="evenodd" clip-rule="evenodd" d="M40.8208 22.0529L61.1478 1.7259C60.203 0.666838 58.8278 0 57.2968 0H8.86975C5.03455 0 2.43975 4.08399 3.78298 7.67626C5.89871 13.3345 8.26385 21.2546 8.26385 28.3863C8.26385 36.6878 3.99106 49.262 0.943529 57.1747C0.348763 58.719 0.517656 60.3363 1.21521 61.6585L23.506 39.3677H21.3491V22.0529H25.6284V35.509H27.3647L37.16 25.7138H33.7178V22.0529H40.8208Z" fill="white"/>
<path opacity="0.5" fill-rule="evenodd" clip-rule="evenodd" d="M23.506 39.3677L1.19141 61.6824C2.07132 63.3307 3.77511 64.5144 5.84374 64.5144H31.4526C46.936 64.5144 62.4195 51.6115 62.4195 25.8058V5.15912C62.4195 3.85006 61.9319 2.65487 61.1285 1.74524L40.8209 22.0529H48.0891V25.7138H43.0431V39.3677H38.7639V25.7138H37.16L27.3647 35.509H33.4695V39.3677H23.506Z" fill="white"/>
<path d="M33.47 39.692H21.3496V22.3771H25.6289V35.8332H33.47V39.692Z" fill="black"/>
<path d="M43.0436 39.692H38.7643V26.038H33.7183V22.3771H48.0896V26.038H43.0436V39.692Z" fill="black"/>
</g>
<defs>
<clipPath id="clip0_1967:20928">
<rect width="64" height="64" fill="white"/>
</clipPath>
</defs>
</svg>
