<svg width="64" height="64" viewBox="0 0 64 64" fill="none" xmlns="http://www.w3.org/2000/svg">
<path d="M63.8147 38.767L48.4161 53.9731C37.7771 64.6122 20.6001 64.6845 10.0503 54.1347C-0.499481 43.5849 -0.427131 26.408 10.2119 15.7689L26.0417 0H63.8147V38.767Z" fill="white"/>
<path d="M17.5359 41.7357V25.1217H23.6831C25.835 25.1217 27.4806 25.6122 28.6198 26.5932C29.7749 27.5584 30.3525 28.8717 30.3525 30.5331C30.3525 31.6407 30.0993 32.6534 29.593 33.5711C29.0866 34.473 28.3271 35.1929 27.3145 35.7309C26.3018 36.2689 25.0834 36.5379 23.6594 36.5379H21.6419V41.7357H17.5359ZM23.6119 33.0252C24.3556 33.0252 24.9331 32.8195 25.3445 32.4081C25.7559 31.9967 25.9616 31.435 25.9616 30.723C25.9616 30.0268 25.7559 29.5046 25.3445 29.1565C24.9331 28.8084 24.3397 28.6343 23.5644 28.6343H21.6419V33.0252H23.6119Z" fill="black"/>
<path d="M39.3563 24.7182C41.3816 24.7182 42.9085 25.1137 43.937 25.9049C44.9655 26.696 45.4798 27.7166 45.4798 28.9666C45.4798 29.7736 45.2424 30.4935 44.7677 31.1265C44.293 31.7594 43.6047 32.2657 42.7028 32.6455V32.7404C43.763 32.9619 44.6016 33.4129 45.2187 34.0932C45.8516 34.7736 46.1681 35.6914 46.1681 36.8464C46.1681 37.9066 45.8595 38.8401 45.2424 39.6471C44.6253 40.4382 43.7867 41.0553 42.7266 41.4984C41.6823 41.9256 40.5272 42.1392 39.2613 42.1392C38.0272 42.1392 36.8563 41.9731 35.7487 41.6408C34.6411 41.3085 33.7154 40.8338 32.9717 40.2167L34.6569 37.1787C35.7961 38.1756 37.2044 38.674 38.8816 38.674C39.7993 38.674 40.5114 38.492 41.0177 38.1281C41.5398 37.7483 41.8009 37.2262 41.8009 36.5616C41.8009 35.2641 40.8357 34.6154 38.9053 34.6154H36.5794V31.5774H38.6205C39.4275 31.5774 40.0525 31.435 40.4955 31.1502C40.9544 30.8495 41.1838 30.4302 41.1838 29.8923C41.1838 29.3859 40.9544 28.9745 40.4955 28.6581C40.0525 28.3416 39.4275 28.1834 38.6205 28.1834C37.9718 28.1834 37.3309 28.2941 36.698 28.5157C36.0651 28.7214 35.5034 29.0062 35.0129 29.3701L33.304 26.7356C34.1268 26.071 35.0525 25.5726 36.0809 25.2403C37.1253 24.8922 38.217 24.7182 39.3563 24.7182Z" fill="black"/>
</svg>
