<svg width="64" height="64" viewBox="0 0 64 64" fill="none" xmlns="http://www.w3.org/2000/svg">
<g clip-path="url(#clip0_1967:20916)">
<path d="M58.679 0H10.8295C6.97053 0 4.35896 4.10916 5.70614 7.72535C7.79439 13.3308 10.1101 21.1313 10.1101 28.16C10.1101 36.3587 5.90894 48.7586 2.8885 56.614C1.5403 60.1204 4.10142 64 7.85801 64H33.1501C48.5101 64 63.8701 51.2 63.8701 25.6V5.19111C63.8701 2.32414 61.546 0 58.679 0Z" fill="white"/>
<path d="M35.6301 39.7047H23.4346V22.2824H27.7403V35.822H35.6301V39.7047Z" fill="black"/>
<path d="M45.2631 39.7047H40.9573V25.966H35.88V22.2824H50.3404V25.966H45.2631V39.7047Z" fill="black"/>
</g>
<defs>
<clipPath id="clip0_1967:20916">
<rect width="64" height="64" fill="white"/>
</clipPath>
</defs>
</svg>
