<svg width="64" height="64" viewBox="0 0 64 64" fill="none" xmlns="http://www.w3.org/2000/svg">
<g clip-path="url(#clip0_1967:20974)">
<path fill-rule="evenodd" clip-rule="evenodd" d="M40.8208 22.0529L61.1478 1.7259C60.203 0.666838 58.8278 0 57.2968 0H8.86975C5.03455 0 2.43975 4.08399 3.78298 7.67626C5.89871 13.3345 8.26385 21.2546 8.26385 28.3863C8.26385 36.6878 3.99106 49.262 0.943529 57.1747C0.348763 58.719 0.517656 60.3363 1.21521 61.6585L26.8203 36.0534L25.5161 33.8765H25.1451H23.092V39.3677H18.8128V22.0529H25.5408C28.0144 22.0529 29.8448 22.5394 31.0321 23.5123C32.2194 24.4852 32.8131 25.8539 32.8131 27.6184C32.8131 28.8841 32.554 29.9573 32.0357 30.838L37.16 25.7138H36.2542V22.0529H40.8208ZM30.1763 32.6974C29.9849 32.811 29.7837 32.9154 29.5727 33.0107L29.6845 33.1892L30.1763 32.6974ZM23.092 30.2156V25.7138H25.3429C26.3489 25.7138 27.0827 25.8951 27.5444 26.2579C28.0061 26.6042 28.237 27.1319 28.237 27.841C28.237 28.6161 27.9814 29.2097 27.4702 29.622C26.9755 30.0177 26.2911 30.2156 25.4172 30.2156H23.092Z" fill="white"/>
<path opacity="0.5" fill-rule="evenodd" clip-rule="evenodd" d="M26.8203 36.0534L1.19141 61.6824C2.07132 63.3307 3.77511 64.5144 5.84374 64.5144H31.4526C46.936 64.5144 62.4195 51.6115 62.4195 25.8058V5.15912C62.4195 3.85006 61.9319 2.65487 61.1285 1.74524L40.8209 22.0529H50.6255V25.7138H45.5795V39.3677H41.3002V25.7138H37.16L32.0357 30.8381C32.007 30.8868 31.9776 30.9349 31.9473 30.9824C31.5024 31.6891 30.9121 32.2607 30.1764 32.6973L29.6845 33.1892L33.5551 39.3677H28.8059L26.8203 36.0534Z" fill="white"/>
<path d="M33.5556 39.692H28.8064L25.5166 34.2007H25.1455H23.0925V39.692H18.8132V22.3771H25.5413C28.0148 22.3771 29.8453 22.8636 31.0326 23.8365C32.2199 24.8094 32.8135 26.1781 32.8135 27.9426C32.8135 29.2783 32.5249 30.3997 31.9478 31.3066C31.3871 32.1971 30.5956 32.8732 29.5732 33.3349L33.5556 39.692ZM23.0925 26.038V30.5398H25.4176C26.2916 30.5398 26.9759 30.3419 27.4707 29.9462C27.9819 29.5339 28.2375 28.9403 28.2375 28.1652C28.2375 27.4561 28.0066 26.9284 27.5449 26.5821C27.0831 26.2194 26.3493 26.038 25.3434 26.038H23.0925Z" fill="black"/>
<path d="M45.5799 39.692H41.3007V26.038H36.2546V22.3771H50.626V26.038H45.5799V39.692Z" fill="black"/>
</g>
<defs>
<clipPath id="clip0_1967:20974">
<rect width="64" height="64" fill="white"/>
</clipPath>
</defs>
</svg>
