<svg width="32" height="32" viewBox="0 0 32 32" fill="none" xmlns="http://www.w3.org/2000/svg">
<g clip-path="url(#clip0_1967_21008)">
<path d="M27.6692 26.1053H10.2857H10.1053C4.52428 26.1053 0 21.581 0 16C0 10.419 4.52428 5.89474 10.1053 5.89474H10.2857H19.0075C26.1831 5.89474 32 11.7117 32 18.8872V21.7744C32 24.1663 30.061 26.1053 27.6692 26.1053Z" fill="white"/>
<path d="M15.4574 21.0877H13.1939L11.6259 18.4705H11.449H10.4705V21.0877H8.43091V12.8351H11.6376C12.8166 12.8351 13.689 13.0669 14.2549 13.5307C14.8208 13.9944 15.1037 14.6467 15.1037 15.4877C15.1037 16.1243 14.9662 16.6588 14.6911 17.0911C14.4239 17.5155 14.0466 17.8377 13.5593 18.0578L15.4574 21.0877ZM10.4705 14.5799V16.7256H11.5787C11.9953 16.7256 12.3214 16.6313 12.5572 16.4427C12.8009 16.2462 12.9227 15.9632 12.9227 15.5938C12.9227 15.2559 12.8127 15.0043 12.5926 14.8393C12.3725 14.6664 12.0228 14.5799 11.5433 14.5799H10.4705Z" fill="black"/>
<path d="M22.4028 16.6785C22.953 16.8592 23.342 17.1186 23.57 17.4566C23.8058 17.7945 23.9236 18.2032 23.9236 18.6827C23.9236 19.17 23.7979 19.5944 23.5464 19.9559C23.3027 20.3175 22.949 20.5965 22.4853 20.793C22.0295 20.9895 21.495 21.0877 20.882 21.0877H17.2862V12.8351H20.5519C21.55 12.8351 22.281 13.0198 22.7447 13.3892C23.2163 13.7507 23.4521 14.2655 23.4521 14.9336C23.4521 15.7274 23.1023 16.309 22.4028 16.6785ZM19.3611 14.521V16.1951H20.4458C20.768 16.1951 21.0116 16.1204 21.1767 15.9711C21.3496 15.8217 21.4361 15.6056 21.4361 15.3227C21.4361 14.7882 21.0942 14.521 20.4104 14.521H19.3611ZM20.6698 19.4136C21.0234 19.4136 21.2867 19.3311 21.4596 19.166C21.6404 18.9931 21.7308 18.7691 21.7308 18.494C21.7308 17.9281 21.3928 17.6452 20.7169 17.6452H19.3611V19.4136H20.6698Z" fill="black"/>
</g>
<defs>
<clipPath id="clip0_1967_21008">
<rect width="32" height="32" fill="white"/>
</clipPath>
</defs>
</svg>
