<svg width="64" height="64" viewBox="0 0 64 64" fill="none" xmlns="http://www.w3.org/2000/svg">
<path d="M60.9995 31.9998C60.9995 48.0158 48.016 60.9993 32 60.9993C15.984 60.9993 3.00049 48.0158 3.00049 31.9998C3.00049 15.9838 15.984 3.00024 32 3.00024C48.016 3.00024 60.9995 15.9838 60.9995 31.9998Z" fill="black"/>
<path d="M29.1127 60.8796C24.6479 60.4545 20.1249 58.8508 16.2343 56.3133C12.9759 54.1879 12.2404 53.3185 12.2404 51.5731C12.2404 48.0759 16.0923 41.9446 22.6735 34.9631C26.4157 30.9958 31.6226 26.3458 32.184 26.4682C33.2808 26.7129 42.0364 35.253 45.3141 39.2654C50.5016 45.6286 52.8889 50.8325 51.6759 53.151C50.7532 54.9157 45.0431 58.3614 40.8492 59.6817C37.3908 60.7765 32.8485 61.2403 29.1127 60.8796ZM3.00049 32.5035C3.00049 18.2554 10.6596 12.4086 10.6596 12.4086C12.1178 10.8951 12.2468 10.8565 14.0212 11.4554C16.1762 12.1832 18.4732 13.7676 22.0412 16.9942L24.1252 18.8749L22.9897 20.2724C17.7054 26.7515 12.1372 35.9357 10.0402 41.6161C8.89819 44.7011 8.44009 47.8054 8.93045 49.0935C9.04911 49.4071 9.05137 49.6517 8.99742 49.6466C8.99742 49.6466 3.00049 42.5307 3.00049 32.5035ZM55.3342 48.6427C55.5988 47.3417 55.2633 44.9459 54.4696 42.5307C52.7598 37.301 47.0239 27.563 41.7589 20.9487L40.1007 18.8684L41.8944 17.2197C44.2365 15.0685 45.8625 13.7804 47.6175 12.692C49.0047 11.829 50.979 11.069 51.8307 11.069C52.3533 11.069 54.1987 12.9818 55.6891 15.075C57.999 18.3081 59.6959 22.2368 60.554 26.32C61.1089 28.9606 61.1541 34.6089 60.6443 37.2366C60.2249 39.3942 59.3346 42.1958 58.47 44.1022C57.8183 45.5255 56.2053 48.2885 55.4955 49.1901C55.1342 49.641 55.1342 49.641 55.3342 48.6427ZM29.5902 10.0772C27.1577 8.84061 23.409 7.52031 21.3379 7.15964C20.6088 7.03728 19.3765 6.96643 18.5828 7.00507C16.873 7.0888 16.9505 7.00507 19.6926 5.71054C21.9702 4.63498 23.8736 4.00381 26.4545 3.46282C29.3579 2.85097 34.81 2.84453 37.6683 3.44993C40.7524 4.10042 44.385 5.45292 46.4303 6.70881L47.0368 7.08236L45.6431 7.01151C42.8687 6.86982 38.8297 7.99046 34.4874 10.1029C33.1776 10.7405 32.042 11.2493 31.9581 11.23C31.8807 11.2171 30.8097 10.6955 29.5902 10.0772Z" fill="white"/>
</svg>
