<svg width="32" height="32" viewBox="0 0 32 32" fill="none" xmlns="http://www.w3.org/2000/svg">
<path d="M4.33083 26H21.7143H21.8947C27.4757 26 32 21.5228 32 16C32 10.4772 27.4757 6 21.8947 6H21.7143H12.9925C5.81693 6 0 11.7563 0 18.8571V21.7143C0 24.0812 1.93898 26 4.33083 26Z" fill="white"/>
<path d="M14.8064 20.9428H9.02954V12.6902H11.0691V19.1037H14.8064V20.9428Z" fill="black"/>
<path d="M21.8041 16.5336C22.3542 16.7143 22.7433 16.9737 22.9712 17.3117C23.207 17.6496 23.3249 18.0583 23.3249 18.5378C23.3249 19.0251 23.1992 19.4495 22.9476 19.811C22.704 20.1726 22.3503 20.4516 21.8866 20.6481C21.4307 20.8446 20.8963 20.9428 20.2832 20.9428H16.6874V12.6902H19.9531C20.9513 12.6902 21.6822 12.8749 22.146 13.2443C22.6175 13.6058 22.8533 14.1206 22.8533 14.7887C22.8533 15.5825 22.5036 16.1642 21.8041 16.5336ZM18.7624 14.3761V16.0502H19.847C20.1693 16.0502 20.4129 15.9755 20.578 15.8262C20.7509 15.6769 20.8373 15.4607 20.8373 15.1778C20.8373 14.6433 20.4954 14.3761 19.8116 14.3761H18.7624ZM20.071 19.2687C20.4247 19.2687 20.688 19.1862 20.8609 19.0211C21.0417 18.8482 21.1321 18.6242 21.1321 18.3491C21.1321 17.7832 20.7941 17.5003 20.1182 17.5003H18.7624V19.2687H20.071Z" fill="black"/>
</svg>
