<?xml version="1.0" encoding="UTF-8" standalone="no"?>
<svg
   xmlns:dc="http://purl.org/dc/elements/1.1/"
   xmlns:cc="http://creativecommons.org/ns#"
   xmlns:rdf="http://www.w3.org/1999/02/22-rdf-syntax-ns#"
   xmlns:svg="http://www.w3.org/2000/svg"
   xmlns="http://www.w3.org/2000/svg"
   xmlns:sodipodi="http://sodipodi.sourceforge.net/DTD/sodipodi-0.dtd"
   xmlns:inkscape="http://www.inkscape.org/namespaces/inkscape"
   version="1.1"
   x="0px"
   y="0px"
   viewBox="0 0 100 100"
   enable-background="new 0 0 100 100"
   xml:space="preserve"
   id="svg2"
   inkscape:version="0.48.4 r9939"
   width="100%"
   height="100%"
   fill="lightgray"
   sodipodi:docname="noun_291661_cc.svg"><metadata
     id="metadata18"><rdf:RDF><cc:Work
         rdf:about=""><dc:format>image/svg+xml</dc:format><dc:type
           rdf:resource="http://purl.org/dc/dcmitype/StillImage" /><dc:title></dc:title></cc:Work></rdf:RDF></metadata><defs
     id="defs16" /><sodipodi:namedview
     pagecolor="#ffffff"
     bordercolor="#666666"
	 borderopacity="1"
     objecttolerance="10"
     gridtolerance="10"
     guidetolerance="10"
     inkscape:pageopacity="0"
     inkscape:pageshadow="2"
     inkscape:window-width="1600"
     inkscape:window-height="848"
     id="namedview14"
     showgrid="false"
     inkscape:zoom="1.888"
     inkscape:cx="-13.294492"
     inkscape:cy="62.5"
     inkscape:window-x="-8"
     inkscape:window-y="-8"
     inkscape:window-maximized="1"
     inkscape:current-layer="svg2" /><g
     id="g3017"
     transform="translate(0,24.7495)"><path
       inkscape:connector-curvature="0"
       id="path4"
       d="m 18.508,38.745 c 0,-3.826 -2.528,-7.061 -6.004,-8.129 v -46.221 c 0,-1.381 -1.119,-2.5 -2.5,-2.5 -1.381,0 -2.5,1.119 -2.5,2.5 V 30.617 C 4.028,31.685 1.5,34.919 1.5,38.745 c 0,3.827 2.528,7.062 6.004,8.129 v 19.231 c 0,1.381 1.119,2.5 2.5,2.5 1.381,0 2.5,-1.119 2.5,-2.5 V 46.874 c 3.476,-1.067 6.004,-4.302 6.004,-8.129 z" /><path
       inkscape:connector-curvature="0"
       id="path6"
       d="m 59.178,18.41 c 0,-3.827 -2.527,-7.062 -6.004,-8.129 v -25.886 c 0,-1.381 -1.119,-2.5 -2.5,-2.5 -1.381,0 -2.5,1.119 -2.5,2.5 v 25.887 c -3.476,1.068 -6.004,4.302 -6.004,8.129 0,3.827 2.528,7.061 6.004,8.129 v 39.566 c 0,1.381 1.119,2.5 2.5,2.5 1.38,0 2.5,-1.119 2.5,-2.5 V 26.539 c 3.476,-1.067 6.004,-4.302 6.004,-8.129 z" /><path
       inkscape:connector-curvature="0"
       id="path8"
       d="m 98,45.771 c 0,-3.827 -2.527,-7.062 -6.004,-8.129 v -53.247 c 0,-1.381 -1.119,-2.5 -2.5,-2.5 -1.381,0 -2.5,1.119 -2.5,2.5 v 53.247 c -3.477,1.067 -6.004,4.302 -6.004,8.129 0,3.826 2.527,7.061 6.004,8.129 v 12.206 c 0,1.381 1.119,2.5 2.5,2.5 1.381,0 2.5,-1.119 2.5,-2.5 V 53.899 C 95.473,52.832 98,49.597 98,45.771 z" /></g></svg>