<svg width="32" height="32" viewBox="0 0 32 32" fill="none" xmlns="http://www.w3.org/2000/svg">
<g clip-path="url(#clip0_8160_40746)">
<path d="M15.9692 29.8239C23.6106 29.8239 29.8051 23.6251 29.8051 15.9786C29.8051 8.33209 23.6106 2.13336 15.9692 2.13336C8.32783 2.13336 2.1333 8.33209 2.1333 15.9786C2.1333 23.6251 8.32783 29.8239 15.9692 29.8239Z" stroke="white" stroke-width="2.84444" stroke-linejoin="bevel"/>
<path d="M17.8394 20.652V23.6423H14.8521V20.652H17.8394ZM21.5386 16.9509V19.9411H18.5161V16.9509H21.5386ZM14.1069 16.9509V19.9411H11.1538V16.9509H14.1069ZM25.2368 13.2497V16.2399H22.2153V13.2497H25.2368ZM17.8052 13.2497V16.2399H14.8179V13.2497H17.8052ZM10.4077 13.2497V16.2399H7.45459V13.2497H10.4077ZM21.5386 9.54852V12.5388H18.5503V9.54852H21.5386ZM14.1411 9.54852V12.5388H11.1538V9.54852H14.1411Z" fill="white" stroke="white" stroke-width="0.711111"/>
</g>
<defs>
<clipPath id="clip0_8160_40746">
<rect width="32" height="32" fill="white"/>
</clipPath>
</defs>
</svg>
