<svg xmlns="http://www.w3.org/2000/svg" xmlns:xlink="http://www.w3.org/1999/xlink" version="1.1" x="0px" y="0px" viewBox="0 0 100 100" enable-background="new 0 0 100 100" xml:space="preserve"><g><path fill="#FFFFFF" d="M84.854,75.445L84.854,75.445l-16.84-16.84c7.799-11.751,6.297-27.707-3.791-37.794   c-11.698-11.698-30.733-11.698-42.433,0c-5.667,5.667-8.789,13.201-8.789,21.216s3.121,15.549,8.789,21.216   c9.417,9.418,23.75,11.476,35.364,5.247l17.328,17.328c1.43,1.43,3.308,2.145,5.186,2.145c1.878,0,3.756-0.715,5.186-2.145   C87.713,82.958,87.713,78.305,84.854,75.445z M82.026,82.989c-1.26,1.258-3.456,1.259-4.715,0L58.904,64.583   c-0.386-0.386-0.897-0.586-1.415-0.586c-0.356,0-0.714,0.095-1.035,0.289c-10.256,6.208-23.349,4.617-31.835-3.871   c-4.912-4.912-7.617-11.442-7.617-18.388c0-6.946,2.705-13.476,7.617-18.388c10.14-10.139,26.637-10.139,36.776,0   c9.102,9.102,10.14,23.713,2.415,33.987c-0.599,0.796-0.52,1.912,0.185,2.616l18.031,18.031   C83.325,79.574,83.325,81.69,82.026,82.989z"></path><path fill="#FFFFFF" d="M58.565,26.469c-8.579-8.579-22.538-8.579-31.117,0c-8.579,8.579-8.579,22.538,0,31.117   c4.29,4.29,9.924,6.435,15.559,6.435s11.269-2.145,15.559-6.435C67.144,49.007,67.144,35.047,58.565,26.469z M55.737,54.757   c-7.02,7.02-18.441,7.02-25.461,0c-7.019-7.02-7.019-18.441,0-25.46c3.51-3.51,8.12-5.265,12.73-5.265s9.221,1.755,12.73,5.265   C62.756,36.317,62.756,47.738,55.737,54.757z"></path><path fill="#FFFFFF" d="M36.877,33.069c-0.78-0.781-2.048-0.781-2.828,0c-2.393,2.393-3.711,5.574-3.711,8.958   s1.318,6.565,3.711,8.958c0.391,0.391,0.902,0.586,1.414,0.586s1.024-0.195,1.414-0.586c0.781-0.781,0.781-2.047,0-2.828   c-1.637-1.637-2.539-3.814-2.539-6.129s0.902-4.492,2.539-6.13C37.658,35.117,37.658,33.85,36.877,33.069z"></path></g></svg>