<svg width="19" height="18" viewBox="0 0 19 18" fill="none" xmlns="http://www.w3.org/2000/svg">
<path d="M7.6795 8.03573C6.50657 9.26304 4.60487 9.26304 3.43194 8.03573C2.25901 6.80842 2.25901 4.81857 3.43194 3.59126C4.60487 2.36395 6.50657 2.36395 7.6795 3.59126C8.85243 4.81857 8.85243 6.80842 7.6795 8.03573Z" fill="#8B929A"/>
<path d="M12.0073 14.1753C12.1981 13.9757 12.5074 13.9757 12.6982 14.1753L12.8568 14.3413C13.0476 14.5409 13.0476 14.8646 12.8568 15.0642L10.9992 17.008C10.8084 17.2076 10.4991 17.2076 10.3083 17.008L10.1497 16.842C9.95887 16.6424 9.95887 16.3187 10.1497 16.1191L12.0073 14.1753Z" fill="#8B929A"/>
<path d="M12.1386 10.481C10.9657 11.7083 9.06395 11.7083 7.89102 10.481C6.71809 9.25365 6.71809 7.26379 7.89102 6.03648C9.06395 4.80918 10.9657 4.80918 12.1386 6.03648C13.3115 7.26379 13.3115 9.25365 12.1386 10.481Z" fill="#8B929A"/>
<path d="M4.86481 5.64814C5.24639 5.24887 5.86505 5.24887 6.24663 5.64814L12.5104 12.2023C12.892 12.6016 12.892 13.2489 12.5104 13.6482L9.64468 16.6468C9.2631 17.0461 8.64444 17.0461 8.26286 16.6468L1.99908 10.0926C1.6175 9.69335 1.6175 9.046 1.99907 8.64674L4.86481 5.64814Z" fill="#8B929A"/>
<path d="M7.00695 5.71433C7.00695 7.45001 5.66225 8.85705 4.00348 8.85705C2.3447 8.85705 1 7.45001 1 5.71433C1 3.97866 2.3447 2.57162 4.00348 2.57162C5.66225 2.57162 7.00695 3.97866 7.00695 5.71433Z" fill="white"/>
<path d="M14.2151 6.84292C14.2151 6.56678 14.439 6.34292 14.7151 6.34292H14.9165C15.1927 6.34292 15.4165 6.56678 15.4165 6.84292V9.61418C15.4165 9.89032 15.1927 10.1142 14.9165 10.1142H14.7151C14.439 10.1142 14.2151 9.89032 14.2151 9.61418V6.84292Z" fill="white"/>
<path d="M11.8127 4.14272C11.8127 5.87839 10.468 7.28544 8.80924 7.28544C7.15047 7.28544 5.80577 5.87839 5.80577 4.14272C5.80577 2.40704 7.15047 1 8.80924 1C10.468 1 11.8127 2.40704 11.8127 4.14272Z" fill="white"/>
<path d="M3.4024 6.08548C3.4024 5.53319 3.85011 5.08548 4.4024 5.08548H13.2149C13.7672 5.08548 14.2149 5.53319 14.2149 6.08548V10.3709C14.2149 10.9232 13.7672 11.3709 13.2149 11.3709H4.40239C3.85011 11.3709 3.4024 10.9232 3.4024 10.3709V6.08548Z" fill="white"/>
<path d="M17.6097 8.00128L15.9974 10.3959L18.8773 10.5948L17.6097 8.00128ZM13.5858 17.6211C16.0212 15.5825 17.2865 13.1317 17.702 10.2819L17.2072 10.2097C16.8087 12.9427 15.6024 15.281 13.2648 17.2377L13.5858 17.6211Z" fill="white"/>
</svg>
