<svg xmlns="http://www.w3.org/2000/svg" xmlns:xlink="http://www.w3.org/1999/xlink" version="1.1" x="0px" y="0px" viewBox="0 0 120 120" enable-background="new 0 0 110 110" xml:space="preserve"><g fill="#fff"><path d="M53.104,5.042c-0.134,0-0.269,0.003-0.402,0.004c-0.001,0-0.001,0-0.002,0  C52.834,5.045,52.969,5.042,53.104,5.042z"></path><path d="M53.508,5.046c-0.001,0-0.001,0-0.002,0c-0.134-0.001-0.269-0.004-0.402-0.004  C53.238,5.042,53.373,5.045,53.508,5.046z"></path><path d="M52.699,5.046c-0.002,0.002-0.004,0.002-0.006,0.002c0.137-0.002,0.273-0.006,0.41-0.006  C52.969,5.042,52.834,5.045,52.699,5.046z"></path><path d="M53.514,5.048c-0.002,0-0.004,0-0.006-0.002c-0.135-0.001-0.27-0.004-0.404-0.004  C53.24,5.042,53.377,5.046,53.514,5.048z"></path><path d="M52.693,5.048c-0.003,0.002-0.007,0.004-0.011,0.005c0.141-0.007,0.28-0.011,0.421-0.011  C52.967,5.042,52.83,5.046,52.693,5.048z"></path><path d="M53.524,5.053c-0.004-0.001-0.008-0.003-0.011-0.005c-0.137-0.002-0.273-0.006-0.41-0.006  C53.244,5.042,53.384,5.046,53.524,5.053z"></path></g><g fill="#FFFFFF"><path d="M13.493,42.089c1.147-0.344,1.813-1.539,1.483-2.67c-0.01-0.036-0.022-0.074-0.034-0.11   c-0.35-1.051-0.256-2.365,0.196-3.392c0.452-1.027,1.323-1.895,2.347-2.374c0.879-0.412,2.086-0.604,3.436-0.746   c1.355-0.142,2.846-0.258,4.523-0.79c3.258-1.04,5.938-3.548,7.115-6.731c1.177-3.184,0.766-6.773-1.071-9.582   c-0.64-0.987-1.975-1.259-2.984-0.612c-0.01,0.008-0.022,0.016-0.032,0.024c-0.983,0.674-1.25,1.997-0.594,2.964   c1.073,1.641,1.307,3.975,0.62,5.834c-0.688,1.861-2.365,3.461-4.269,4.067c-1.016,0.324-2.313,0.417-3.76,0.569   c-1.453,0.152-3.084,0.36-4.763,1.147c-2.019,0.947-3.666,2.57-4.557,4.597c-0.891,2.027-1.019,4.305-0.328,6.382   C11.148,41.797,12.345,42.435,13.493,42.089z"></path><path d="M93.641,39.075L81.283,17.667c-2.854-4.943-9.128-6.622-14.07-3.77L10.127,46.856c-4.941,2.852-6.622,9.128-3.77,14.071   l12.36,21.406c2.852,4.94,9.127,6.623,14.068,3.769l57.085-32.957C94.814,50.292,96.495,44.016,93.641,39.075z M68.966,22.566   c0.203-0.178,0.449-0.332,0.693-0.474c1.944-1.123,4.417-0.461,5.54,1.485c1.123,1.946,0.46,4.417-1.485,5.54   c-1.946,1.123-4.417,0.46-5.54-1.485C67.19,25.93,67.551,23.819,68.966,22.566z M69.226,34.086c1.944-1.123,4.417-0.46,5.54,1.485   s0.46,4.417-1.485,5.541c-1.944,1.123-4.417,0.461-5.54-1.485C66.617,37.68,67.278,35.209,69.226,34.086z M58.207,28.778   c0.201-0.178,0.449-0.332,0.693-0.474c1.944-1.123,4.415-0.461,5.538,1.485c1.123,1.947,0.462,4.417-1.483,5.541   c-1.946,1.123-4.417,0.459-5.54-1.485C56.432,32.142,56.792,30.031,58.207,28.778z M58.467,40.298   c1.944-1.124,4.415-0.46,5.538,1.485c1.125,1.945,0.462,4.417-1.483,5.541c-1.946,1.123-4.417,0.462-5.54-1.485   C55.858,43.892,56.52,41.421,58.467,40.298z M47.56,34.926c0.202-0.18,0.448-0.332,0.692-0.474   c1.946-1.123,4.417-0.462,5.541,1.485c1.123,1.945,0.461,4.417-1.485,5.541c-1.945,1.123-4.415,0.459-5.541-1.487   C45.785,38.29,46.145,36.177,47.56,34.926z M47.817,46.446c1.947-1.124,4.417-0.46,5.54,1.485c1.124,1.944,0.462,4.417-1.484,5.541   c-1.945,1.123-4.415,0.462-5.539-1.484C45.209,50.04,45.873,47.57,47.817,46.446z M36.855,41.105   c0.202-0.18,0.45-0.332,0.693-0.474c1.945-1.123,4.415-0.461,5.541,1.485c1.123,1.944,0.459,4.417-1.485,5.541   c-1.946,1.123-4.417,0.459-5.54-1.487C35.08,44.469,35.44,42.357,36.855,41.105z M20.196,60.016   c-1.945,1.123-4.417,0.462-5.541-1.483c-1.123-1.946-0.459-4.417,1.485-5.54c1.947-1.125,4.417-0.462,5.541,1.485   C22.804,56.422,22.143,58.893,20.196,60.016z M30.297,77.896c-1.947,1.123-4.417,0.462-5.541-1.483   c-1.123-1.946-0.461-4.417,1.485-5.54c1.944-1.123,4.415-0.462,5.538,1.483C32.903,74.302,32.242,76.772,30.297,77.896z    M30.467,65.832c-1.947,1.123-4.417,0.459-5.541-1.485c-1.123-1.944-0.461-4.415,1.483-5.54c1.947-1.124,4.417-0.462,5.541,1.484   C33.073,62.238,32.412,64.708,30.467,65.832z M30.901,53.838c-1.947,1.123-4.417,0.459-5.541-1.487   c-0.983-1.704-0.624-3.814,0.792-5.065c0.202-0.18,0.45-0.334,0.692-0.474c1.947-1.124,4.417-0.462,5.54,1.484   C33.507,50.242,32.846,52.715,30.901,53.838z M35.63,58.167c-1.124-1.945-0.462-4.417,1.485-5.541   c1.945-1.123,4.417-0.459,5.54,1.485c1.124,1.947,0.46,4.417-1.485,5.54C39.223,60.775,36.753,60.111,35.63,58.167z M74.951,52.115   L40.944,71.748c-1.451,0.839-3.294,0.344-4.133-1.107c-0.837-1.451-0.344-3.294,1.107-4.134l34.008-19.633   c1.45-0.837,3.293-0.343,4.133,1.107C76.896,49.432,76.402,51.277,74.951,52.115z M83.869,46.965   c-1.944,1.124-4.415,0.46-5.538-1.484c-1.123-1.945-0.462-4.417,1.483-5.541c1.946-1.123,4.417-0.461,5.54,1.485   C86.478,43.372,85.816,45.842,83.869,46.965z"></path></g></svg>