<?xml version="1.0" encoding="UTF-8" standalone="no"?>
<svg
   version="1.1"
   x="0px"
   y="0px"
   viewBox="0 0 100 100"
   enable-background="new 0 0 100 100"
   xml:space="preserve"
   id="svg270"
   sodipodi:docname="cmnd_action_set.svg"
   inkscape:version="1.2 (dc2aedaf03, 2022-05-15)"
   xmlns:inkscape="http://www.inkscape.org/namespaces/inkscape"
   xmlns:sodipodi="http://sodipodi.sourceforge.net/DTD/sodipodi-0.dtd"
   xmlns="http://www.w3.org/2000/svg"
   xmlns:svg="http://www.w3.org/2000/svg"
   xmlns:ns="http://ns.adobe.com/SaveForWeb/1.0/"><defs
   id="defs274" /><sodipodi:namedview
   id="namedview272"
   pagecolor="#ffffff"
   bordercolor="#000000"
   borderopacity="0.25"
   inkscape:showpageshadow="2"
   inkscape:pageopacity="0.0"
   inkscape:pagecheckerboard="true"
   inkscape:deskcolor="#d1d1d1"
   showgrid="false"
   inkscape:zoom="10.27"
   inkscape:cx="49.951315"
   inkscape:cy="50.243427"
   inkscape:window-width="3440"
   inkscape:window-height="1377"
   inkscape:window-x="-8"
   inkscape:window-y="-8"
   inkscape:window-maximized="1"
   inkscape:current-layer="svg270" /><metadata
   id="metadata264"><ns:sfw><ns:slices /><ns:sliceSourceBounds
       width="1449.1"
       height="1429.6"
       y="-1445.1"
       x="0.4"
       bottomLeftOrigin="true" /></ns:sfw></metadata> <g
   fill="#ffffff"
   id="g268"
   transform="matrix(0.92930912,0,0,0.92210321,3.5345439,3.8948393)"><path
     d="m 50,36.9 c -7.2,0 -13.1,5.9 -13.1,13.1 0,7.2 5.8,13.1 13.1,13.1 7.3,0 13.1,-5.9 13.1,-13.1 0,-7.2 -5.9,-13.1 -13.1,-13.1 z m 0,21.2 c -4.5,0 -8.1,-3.6 -8.1,-8.1 0,-4.5 3.6,-8.1 8.1,-8.1 4.5,0 8.1,3.6 8.1,8.1 0,4.5 -3.6,8.1 -8.1,8.1 z M 92.7,17.7 c 0,-1.4 -1.1,-2.5 -2.5,-2.5 H 75 l 5.5,-5.5 c 1,-1 1,-2.6 0,-3.5 -1,-1 -2.6,-1 -3.5,0 L 67.2,16 c -0.5,0.5 -0.7,1.1 -0.7,1.8 0,0.7 0.3,1.3 0.7,1.8 l 9.8,9.8 c 0.5,0.5 1.1,0.7 1.8,0.7 0.7,0 1.3,-0.2 1.8,-0.7 1,-1 1,-2.6 0,-3.5 L 75,20.2 H 87.7 V 79.3 H 62.9 C 61.7,73.3 56.4,68.7 50,68.7 42.8,68.7 36.9,74.6 36.9,81.8 36.9,89 42.7,95 50,95 56.4,95 61.7,90.4 62.9,84.4 h 27.3 c 1.4,0 2.5,-1.1 2.5,-2.5 z M 50,90 c -4.5,0 -8.1,-3.6 -8.1,-8.1 0,-4.5 3.6,-8.1 8.1,-8.1 4.5,0 8.1,3.6 8.1,8.1 0,4.5 -3.6,8.1 -8.1,8.1 z M 37.1,20.6 c 1.2,6 6.5,10.6 12.9,10.6 7.2,0 13.1,-5.9 13.1,-13.1 C 63.1,10.9 57.2,5 50,5 43.6,5 38.3,9.6 37.1,15.6 H 9.8 c -1.4,0 -2.5,1.1 -2.5,2.5 v 64.1 c 0,1.4 1.1,2.5 2.5,2.5 H 25 l -5.5,5.5 c -1,1 -1,2.6 0,3.5 0.5,0.5 1.1,0.7 1.8,0.7 0.7,0 1.3,-0.2 1.8,-0.7 l 9.8,-9.8 c 1,-1 1,-2.6 0,-3.5 L 23,70.7 c -1,-1 -2.6,-1 -3.5,0 -1,1 -1,2.6 0,3.5 L 25,79.7 H 12.3 V 20.6 Z M 50,10 c 4.5,0 8.1,3.6 8.1,8.1 0,4.5 -3.6,8.1 -8.1,8.1 -4.5,0 -8.1,-3.6 -8.1,-8.1 0,-4.5 3.6,-8.1 8.1,-8.1 z"
     id="path266" /></g></svg>
