<?xml version="1.0" encoding="UTF-8" standalone="no"?>
<svg
   width="752pt"
   height="752pt"
   version="1.1"
   viewBox="0 0 752 752"
   id="svg80"
   sodipodi:docname="cmnd_screenshot.svg"
   inkscape:version="1.2 (dc2aedaf03, 2022-05-15)"
   xmlns:inkscape="http://www.inkscape.org/namespaces/inkscape"
   xmlns:sodipodi="http://sodipodi.sourceforge.net/DTD/sodipodi-0.dtd"
   xmlns="http://www.w3.org/2000/svg"
   xmlns:svg="http://www.w3.org/2000/svg">
  <defs
     id="defs84" />
  <sodipodi:namedview
     id="namedview82"
     pagecolor="#ffffff"
     bordercolor="#000000"
     borderopacity="0.25"
     inkscape:showpageshadow="2"
     inkscape:pageopacity="0.0"
     inkscape:pagecheckerboard="true"
     inkscape:deskcolor="#d1d1d1"
     inkscape:document-units="pt"
     showgrid="false"
     inkscape:zoom="1.0242686"
     inkscape:cx="313.39435"
     inkscape:cy="462.76923"
     inkscape:window-width="3440"
     inkscape:window-height="1377"
     inkscape:window-x="-8"
     inkscape:window-y="-8"
     inkscape:window-maximized="1"
     inkscape:current-layer="svg80"
     showguides="false" />
  <g
     fill="#ffffff"
     id="g78"
     transform="matrix(1.5701931,0,0,1.5106762,-217.94897,-191.28449)"
     style="image-rendering:auto"
     inkscape:highlight-color="#aaaaaa">
    <path
       d="m 378.84,457.93 c -35.52,0 -64.406,-28.887 -64.406,-64.406 0,-35.52 28.887,-64.406 64.406,-64.406 35.519,0 64.406,28.887 64.406,64.406 0,35.52 -28.887,64.406 -64.406,64.406 z m 0,-109.39 c -25.102,0 -45.465,20.363 -45.465,45.465 0,25.102 20.363,45.465 45.465,45.465 25.102,0 45.465,-20.363 45.465,-45.465 -0.47656,-25.102 -20.367,-45.465 -45.465,-45.465 z"
       id="path70" />
    <path
       d="M 524.71,530.86 H 232.98 c -25.102,0 -45.938,-20.836 -45.938,-45.938 v -164.33 c 0,-25.102 20.836,-45.938 45.938,-45.938 h 43.57 c 1.8945,0 4.7344,-1.8945 5.2109,-3.7891 l 11.367,-34.098 c 3.3164,-9.4727 13.262,-17.051 23.207,-17.051 h 124.08 c 9.9453,0 20.363,7.1055 23.207,17.051 l 11.367,34.098 c 0.47266,1.8945 3.3164,3.7891 5.2109,3.7891 h 43.57 c 25.102,0 45.938,20.836 45.938,45.938 l -0.0117,164.33 c 0.94922,25.574 -19.891,45.938 -44.988,45.938 z M 232.98,293.59 c -14.68,0 -26.992,12.312 -26.992,26.992 l -0.004,164.34 c 0,14.68 12.312,26.992 26.992,26.992 h 291.73 c 14.68,0 26.992,-12.312 26.992,-26.992 l 0.004,-164.33 c 0,-14.68 -12.312,-26.992 -26.992,-26.992 h -43.57 c -9.9453,0 -20.363,-7.1055 -23.207,-17.051 l -11.367,-34.098 c -0.47266,-1.8945 -3.3164,-3.7891 -5.2109,-3.7891 h -124.55 c -1.8945,0 -4.7344,1.8945 -5.2109,3.7891 l -11.367,34.57 c -3.3164,9.4727 -13.262,17.051 -23.207,17.051 l -44.039,-0.004 z"
       id="path72" />
    <path
       d="m 378.84,494.4 c -55.41,0 -100.87,-44.988 -100.87,-100.87 0,-55.41 44.988,-100.87 100.87,-100.87 55.883,-0.004 100.4,45.457 100.4,100.87 0,55.883 -44.992,100.88 -100.4,100.88 z m 0,-182.33 c -44.988,0 -81.93,36.465 -81.93,81.93 0,45.465 36.938,81.457 81.93,81.457 44.988,0 81.93,-36.465 81.93,-81.93 0,-45.465 -36.941,-81.457 -81.93,-81.457 z"
       id="path74" />
    <path
       d="m 511.92,320.59 c 7.1055,0 12.785,5.6836 12.785,12.785 0,7.1055 -5.6836,12.785 -12.785,12.785 -7.1055,0 -12.785,-5.6836 -12.785,-12.785 0,-7.1016 5.6836,-12.785 12.785,-12.785 m 0,-14.207 c -14.68,0 -26.992,12.312 -26.992,26.992 0,14.68 12.312,26.992 26.992,26.992 14.68,0 26.992,-12.312 26.992,-26.992 0.004,-14.68 -12.309,-26.992 -26.992,-26.992 z"
       id="path76" />
  </g>
</svg>
