<svg width="18" height="18" viewBox="0 0 18 18" fill="none" xmlns="http://www.w3.org/2000/svg">
<path d="M9 0L9 18" stroke="#67707B" stroke-width="0.5" stroke-dasharray="1 1"/>
<path d="M17.5 10.575C17.5 10.8902 17.3423 11.2412 16.9492 11.613C16.555 11.9858 15.9577 12.3445 15.1783 12.6563C13.6221 13.2788 11.438 13.675 9 13.675C6.56204 13.675 4.37791 13.2788 2.82173 12.6563C2.04226 12.3445 1.44501 11.9858 1.05082 11.613C0.657679 11.2412 0.5 10.8902 0.5 10.575C0.5 10.2597 0.657679 9.90877 1.05082 9.53697C1.44501 9.16418 2.04226 8.80542 2.82173 8.49363C4.37791 7.87116 6.56204 7.47498 9 7.47498C11.438 7.47498 13.6221 7.87116 15.1783 8.49363C15.9577 8.80542 16.555 9.16418 16.9492 9.53697C17.3423 9.90877 17.5 10.2597 17.5 10.575Z" stroke="#8B929A"/>
<ellipse cx="4.76522" cy="6.30017" rx="2.64706" ry="3" fill="white"/>
<rect x="13.7651" y="6.90015" width="1.05882" height="3.6" rx="0.5" fill="white"/>
<ellipse cx="9.00057" cy="4.80017" rx="2.64706" ry="3" fill="white"/>
<rect x="4.23584" y="5.7002" width="9.52941" height="6" rx="1" fill="white"/>
</svg>
