<svg xmlns="http://www.w3.org/2000/svg" xmlns:xlink="http://www.w3.org/1999/xlink" version="1.0" x="0px" y="0px" viewBox="0 0 100 100" enable-background="new 0 0 100 100" xml:space="preserve"><g><path fill="#FFFFFF" d="M76.42,81.76c-0.65,0-1.31-0.25-1.8-0.75L62.03,68.44l-2.65,6.6c-0.46,1.15-1.56,1.9-2.79,1.92c-0.02,0-0.04,0-0.05,0   c-1.21,0-2.31-0.71-2.8-1.83L39.16,42.21c-0.52-1.17-0.27-2.5,0.64-3.41c0.9-0.9,2.24-1.15,3.41-0.64l32.92,14.57   c1.13,0.5,1.85,1.62,1.82,2.86c-0.02,1.23-0.78,2.33-1.92,2.79l-5.66,2.28l12.3,12.3c1,1,1,2.61,0,3.61l-4.45,4.45   C77.72,81.52,77.07,81.76,76.42,81.76z M61.4,63.58c0.46,0,0.91,0.18,1.24,0.51l13.78,13.78l3.11-3.11l-13.5-13.5   c-0.42-0.42-0.59-1.01-0.48-1.59c0.12-0.58,0.52-1.05,1.06-1.27l7.16-2.88L42.82,41.83l13.69,30.95l3.26-8.1   c0.22-0.54,0.7-0.94,1.27-1.06C61.16,63.59,61.28,63.58,61.4,63.58z M80.19,75.43L80.19,75.43L80.19,75.43z"></path></g><g><path fill="#FFFFFF" d="M37.32,56.64c-0.23,0-0.46-0.04-0.68-0.14c-5.91-2.5-9.72-8.25-9.72-14.66c0-8.78,7.14-15.92,15.92-15.92   c6.36,0,12.1,3.77,14.62,9.62c0.38,0.89-0.03,1.92-0.91,2.3c-0.89,0.38-1.92-0.03-2.3-0.91c-1.97-4.56-6.44-7.5-11.41-7.5   c-6.85,0-12.42,5.57-12.42,12.42c0,5,2.98,9.49,7.58,11.44c0.89,0.38,1.31,1.4,0.93,2.29C38.65,56.24,38,56.64,37.32,56.64z"></path></g><g><path fill="#FFFFFF" d="M41.65,67.47c-0.03,0-0.06,0-0.09,0C27.89,66.8,17.17,55.54,17.17,41.83c0-14.15,11.51-25.66,25.66-25.66   c13.93,0,25.2,10.9,25.65,24.82c0.03,0.97-0.73,1.77-1.69,1.81c-0.96,0.02-1.78-0.73-1.81-1.69   c-0.39-12.02-10.12-21.43-22.15-21.43c-12.22,0-22.16,9.94-22.16,22.16c0,11.84,9.25,21.56,21.07,22.14   c0.97,0.05,1.71,0.87,1.66,1.83C43.35,66.74,42.58,67.47,41.65,67.47z"></path></g></svg>