<svg width="32" height="32" viewBox="0 0 32 32" fill="none" xmlns="http://www.w3.org/2000/svg">
<path fill-rule="evenodd" clip-rule="evenodd" d="M18.6043 0H8.2427C7.44705 0 6.68399 0.31607 6.12138 0.878679L4.27182 2.72823C3.48894 3.51112 3.20089 4.66157 3.5225 5.721L10.8539 29.8714C11.2377 31.1357 12.4033 32 13.7245 32H19.6952C21.0544 32 22.2437 31.0862 22.5939 29.773L27.5974 11.01C27.8497 10.0637 27.6243 9.05376 26.9934 8.30461L20.8991 1.06759C20.3291 0.390699 19.4893 0 18.6043 0ZM22.0251 8.59998V13.736H23.2371V15.092H22.0251V17H20.2371V15.092H16.2771V13.94L20.3931 8.59998H22.0251ZM20.3091 10.7L17.9931 13.736H20.3091V10.7ZM9.89996 17H15.54V15.416H11.664V8.59998H9.89996V17Z" fill="white"/>
</svg>
