<svg width="32" height="32" viewBox="0 0 32 32" fill="none" xmlns="http://www.w3.org/2000/svg">
<path fill-rule="evenodd" clip-rule="evenodd" d="M23.4844 7.96875C28.1874 7.96875 32 11.7813 32 16.4844C32 21.1874 28.1874 25 23.4844 25L8.51562 25C3.81257 25 0 21.1874 0 16.4844C0 11.7813 3.81258 7.96875 8.51563 7.96875L23.4844 7.96875ZM15.6763 12L13.1879 16.777L10.6995 12H9.00006V20.7561H10.7399V15.3432L12.6417 19.2039H13.7342L15.6763 15.3432V20.7959H17.4162V12H15.6763ZM22.9596 20.7959H23L22.9596 20.8357V20.7959ZM22.9596 20.7959V12.0398H21.3411L19.8844 12.9951V14.7065L21.1792 13.8707V20.7959H22.9596Z" fill="white"/>
</svg>
