<svg width="32" height="32" viewBox="0 0 32 32" fill="none" xmlns="http://www.w3.org/2000/svg">
<path fill-rule="evenodd" clip-rule="evenodd" d="M25.5156 9.03125C29.0968 9.03125 32 11.9344 32 15.5156C32 19.0968 29.0968 22 25.5156 22L6.48437 22C2.90315 22 0 19.0968 0 15.5156C0 11.9344 2.90315 9.03125 6.48437 9.03125H25.5156ZM15.7838 12.5647L14.1216 15.7555L12.4595 12.5647H11.3243V18.4134H12.4865V14.7978L13.7568 17.3766H14.4865L15.7838 14.7978V18.44H16.946V12.5647H15.7838ZM20.6487 18.44H20.6757L20.6487 18.4665V18.44ZM20.6487 18.44V12.5913H19.5676L18.5946 13.2293V14.3725L19.4595 13.8142V18.44H20.6487Z" fill="white"/>
</svg>
