<svg width="32" height="32" viewBox="0 0 32 32" fill="none" xmlns="http://www.w3.org/2000/svg">
<path fill-rule="evenodd" clip-rule="evenodd" d="M25.5156 9.03125C29.0968 9.03125 32 11.9344 32 15.5156C32 19.0968 29.0968 22 25.5156 22L6.48437 22C2.90315 22 0 19.0968 0 15.5156C0 11.9344 2.90315 9.03125 6.48437 9.03125H25.5156ZM15.2716 12.5615L13.6055 15.7862L11.9531 12.5615H10.82V18.4969H11.9801V14.8278L13.2481 17.4448H13.9766L15.2716 14.8278V18.5239H16.4317V12.5615H15.2716ZM21.099 18.5238H21.126L21.099 18.5508V18.5238ZM17.4299 18.5238H21.099V17.5256H19.0486L20.2897 16.0687L20.2924 16.0653C20.6699 15.607 21.18 14.9876 21.18 14.2071C21.18 13.2359 20.3436 12.4805 19.2914 12.4805C18.2392 12.4805 17.4029 13.1819 17.4029 14.2071H18.4821C18.536 13.7215 18.8328 13.4787 19.2375 13.4787C19.6422 13.4787 19.9929 13.7215 19.9929 14.2071C19.9929 14.5848 19.804 14.9626 19.4263 15.3942L17.4299 17.7414V18.5238Z" fill="white"/>
</svg>
