<svg width="32" height="32" viewBox="0 0 32 32" fill="none" xmlns="http://www.w3.org/2000/svg">
<path fill-rule="evenodd" clip-rule="evenodd" d="M23.4844 7.96875C28.1874 7.96875 32 11.7813 32 16.4844C32 21.1874 28.1874 25 23.4844 25L8.51562 25C3.81257 25 -4.11154e-07 21.1874 0 16.4844C4.11154e-07 11.7813 3.81258 7.96875 8.51563 7.96875L23.4844 7.96875ZM14.9392 12.1181L12.5129 16.8141L10.1067 12.1181H8.45654V20.7616H10.146V15.4183L11.9925 19.2293H13.0533L14.9392 15.4183V20.8009H16.6286V12.1181H14.9392ZM23.4255 20.8007H23.4648L23.4255 20.84V20.8007ZM18.0823 20.8007H23.4255V19.347H20.4396L22.2469 17.2254L22.2509 17.2205C22.8006 16.5531 23.5434 15.6511 23.5434 14.5145C23.5434 13.1001 22.3255 12 20.7932 12C19.2609 12 18.043 13.0215 18.043 14.5145H19.6145C19.6931 13.8073 20.1253 13.4537 20.7146 13.4537C21.3039 13.4537 21.8147 13.8073 21.8147 14.5145C21.8147 15.0645 21.5397 15.6146 20.9896 16.2432L18.0823 19.6613V20.8007Z" fill="white"/>
</svg>
