<svg width="32" height="32" viewBox="0 0 32 32" fill="none" xmlns="http://www.w3.org/2000/svg">
<path fill-rule="evenodd" clip-rule="evenodd" d="M13.3956 0H23.7573C24.5529 0 25.316 0.31607 25.8786 0.878679L27.7282 2.72823C28.5111 3.51112 28.7991 4.66157 28.4775 5.721L21.1461 29.8714C20.7623 31.1357 19.5967 32 18.2755 32H12.3048C10.9456 32 9.75627 31.0862 9.40606 29.773L4.4026 11.01C4.15025 10.0637 4.37571 9.05376 5.00657 8.30461L11.1009 1.06759C11.6709 0.390699 12.5107 0 13.3956 0ZM22.232 8.59998V13.736H23.444V15.092H22.232V17H20.444V15.092H16.484V13.94L20.6 8.59998H22.232ZM20.516 10.7L18.2 13.736H20.516V10.7ZM13.8078 17H15.7638L13.7838 13.82C14.2958 13.596 14.6918 13.268 14.9718 12.836C15.2598 12.404 15.4038 11.864 15.4038 11.216C15.4038 10.392 15.1318 9.75198 14.5878 9.29598C14.0438 8.83198 13.1958 8.59998 12.0438 8.59998H8.89984V17H10.6638V14.168H11.9118H12.1158L13.8078 17ZM10.6638 12.656V10.1H11.9358C12.4878 10.1 12.8878 10.204 13.1358 10.412C13.3918 10.612 13.5198 10.916 13.5198 11.324C13.5198 11.74 13.3878 12.068 13.1238 12.308C12.8678 12.54 12.5078 12.656 12.0438 12.656H10.6638Z" fill="white"/>
</svg>
