<svg width="32" height="32" viewBox="0 0 32 32" fill="none" xmlns="http://www.w3.org/2000/svg">
<g clip-path="url(#clip0_7443_698)">
<path fill-rule="evenodd" clip-rule="evenodd" d="M7 27C7 29.7614 9.23858 32 12 32L19 32C21.7614 32 24 29.7614 24 27L24 -7.43094e-07L7 0L7 27ZM10.408 17.4605C10.205 18.0695 10.1035 18.7268 10.1035 19.4325C10.1035 20.2058 10.2292 20.8873 10.4805 21.477C10.7222 22.0667 11.0798 22.5258 11.5535 22.8545C12.0175 23.1832 12.5685 23.3475 13.2065 23.3475C13.8832 23.3475 14.4293 23.1928 14.845 22.8835C15.251 22.5742 15.5555 22.2068 15.7585 21.7815C15.9518 21.3562 16.1597 20.7858 16.382 20.0705C16.5463 19.5195 16.7107 19.1135 16.875 18.8525C17.0297 18.5915 17.2472 18.461 17.5275 18.461C17.8078 18.461 18.035 18.577 18.209 18.809C18.383 19.041 18.47 19.3842 18.47 19.8385C18.47 20.7568 18.1945 21.7477 17.6435 22.811L19.7315 23.565C20.0312 23.0623 20.2632 22.4872 20.4275 21.8395C20.5918 21.1822 20.674 20.5297 20.674 19.882C20.674 19.0797 20.5483 18.3692 20.297 17.7505C20.036 17.1222 19.659 16.634 19.166 16.286C18.673 15.9283 18.0882 15.7495 17.4115 15.7495C16.7735 15.7495 16.2563 15.9042 15.86 16.2135C15.454 16.5228 15.1495 16.8853 14.9465 17.301C14.7435 17.707 14.526 18.2435 14.294 18.9105C14.091 19.5195 13.9073 19.969 13.743 20.259C13.569 20.5393 13.337 20.6795 13.047 20.6795C12.7763 20.6795 12.5637 20.5683 12.409 20.346C12.2447 20.1237 12.1625 19.8143 12.1625 19.418C12.1625 19.041 12.2398 18.635 12.3945 18.2C12.5492 17.7553 12.7522 17.359 13.0035 17.011L11.133 15.9525C10.843 16.3488 10.6013 16.8515 10.408 17.4605ZM20.5 14.2772L20.5 7.17219L18.238 7.17219L18.238 11.7687L10.35 11.7687L10.35 14.2772L20.5 14.2772Z" fill="white"/>
</g>
<defs>
<clipPath id="clip0_7443_698">
<rect width="32" height="32" fill="white"/>
</clipPath>
</defs>
</svg>
