<svg width="32" height="32" viewBox="0 0 32 32" fill="none" xmlns="http://www.w3.org/2000/svg">
<g clip-path="url(#clip0_7443_690)">
<path fill-rule="evenodd" clip-rule="evenodd" d="M24 5C24 2.23858 21.7614 -9.78513e-08 19 -2.18557e-07L12 -5.24537e-07C9.23858 -6.45242e-07 7 2.23858 7 5L7 32L24 32L24 5ZM20.592 14.5395C20.795 13.9305 20.8965 13.2732 20.8965 12.5675C20.8965 11.7942 20.7708 11.1127 20.5195 10.523C20.2778 9.93333 19.9202 9.47416 19.4465 9.1455C18.9825 8.81683 18.4315 8.6525 17.7935 8.6525C17.1168 8.6525 16.5707 8.80716 16.155 9.1165C15.749 9.42583 15.4445 9.79316 15.2415 10.2185C15.0482 10.6438 14.8403 11.2142 14.618 11.9295C14.4537 12.4805 14.2893 12.8865 14.125 13.1475C13.9703 13.4085 13.7528 13.539 13.4725 13.539C13.1922 13.539 12.965 13.423 12.791 13.191C12.617 12.959 12.53 12.6158 12.53 12.1615C12.53 11.2432 12.8055 10.2523 13.3565 9.189L11.2685 8.435C10.9688 8.93766 10.7368 9.51283 10.5725 10.1605C10.4082 10.8178 10.326 11.4703 10.326 12.118C10.326 12.9203 10.4517 13.6308 10.703 14.2495C10.964 14.8778 11.341 15.366 11.834 15.714C12.327 16.0717 12.9118 16.2505 13.5885 16.2505C14.2265 16.2505 14.7437 16.0958 15.14 15.7865C15.546 15.4772 15.8505 15.1147 16.0535 14.699C16.2565 14.293 16.474 13.7565 16.706 13.0895C16.909 12.4805 17.0927 12.031 17.257 11.741C17.431 11.4607 17.663 11.3205 17.953 11.3205C18.2237 11.3205 18.4363 11.4317 18.591 11.654C18.7553 11.8763 18.8375 12.1857 18.8375 12.582C18.8375 12.959 18.7602 13.365 18.6055 13.8C18.4508 14.2447 18.2478 14.641 17.9965 14.989L19.867 16.0475C20.157 15.6512 20.3987 15.1485 20.592 14.5395ZM10.5 17.7228L10.5 24.8278L12.762 24.8278L12.762 20.2313L20.65 20.2313L20.65 17.7228L10.5 17.7228Z" fill="white"/>
</g>
<defs>
<clipPath id="clip0_7443_690">
<rect width="32" height="32" fill="white"/>
</clipPath>
</defs>
</svg>
