<svg width="32" height="32" viewBox="0 0 32 32" fill="none" xmlns="http://www.w3.org/2000/svg">
<g clip-path="url(#clip0_7443_702)">
<path fill-rule="evenodd" clip-rule="evenodd" d="M7 5C7 2.23858 9.23858 9.78513e-08 12 2.18557e-07L19 5.24537e-07C21.7614 6.45242e-07 24 2.23858 24 5L24 32L7 32L7 5ZM10.408 19.4604C10.205 20.0694 10.1035 20.7268 10.1035 21.4324C10.1035 22.2058 10.2292 22.8873 10.4805 23.4769C10.7222 24.0666 11.0798 24.5258 11.5535 24.8544C12.0175 25.1831 12.5685 25.3474 13.2065 25.3474C13.8832 25.3474 14.4293 25.1928 14.845 24.8834C15.251 24.5741 15.5555 24.2068 15.7585 23.7814C15.9518 23.3561 16.1597 22.7858 16.382 22.0704C16.5463 21.5194 16.7107 21.1134 16.875 20.8524C17.0297 20.5914 17.2472 20.4609 17.5275 20.4609C17.8078 20.4609 18.035 20.5769 18.209 20.8089C18.383 21.0409 18.47 21.3841 18.47 21.8384C18.47 22.7568 18.1945 23.7476 17.6435 24.8109L19.7315 25.5649C20.0312 25.0623 20.2632 24.4871 20.4275 23.8394C20.5918 23.1821 20.674 22.5296 20.674 21.8819C20.674 21.0796 20.5483 20.3691 20.297 19.7504C20.036 19.1221 19.659 18.6339 19.166 18.2859C18.673 17.9283 18.0882 17.7494 17.4115 17.7494C16.7735 17.7494 16.2563 17.9041 15.86 18.2134C15.454 18.5228 15.1495 18.8853 14.9465 19.3009C14.7435 19.7069 14.526 20.2434 14.294 20.9104C14.091 21.5194 13.9073 21.9689 13.743 22.2589C13.569 22.5393 13.337 22.6794 13.047 22.6794C12.7763 22.6794 12.5637 22.5683 12.409 22.3459C12.2447 22.1236 12.1625 21.8143 12.1625 21.4179C12.1625 21.0409 12.2398 20.6349 12.3945 20.1999C12.5492 19.7553 12.7522 19.3589 13.0035 19.0109L11.133 17.9524C10.843 18.3488 10.6013 18.8514 10.408 19.4604ZM20.5 10.4191L20.5 7.63512L16.7735 9.96962C16.5028 9.37029 16.1065 8.90629 15.5845 8.57762C15.0528 8.23929 14.3955 8.07012 13.6125 8.07012C12.5782 8.07012 11.7758 8.41812 11.2055 9.11412C10.6352 9.81012 10.35 10.8831 10.35 12.3331L10.35 16.2771L20.5 16.2771L20.5 13.7686L17.281 13.7686L17.281 12.5651L17.281 12.3476L20.5 10.4191ZM15.135 13.7686L12.496 13.7686L12.496 12.4491C12.496 11.8595 12.6023 11.4293 12.815 11.1586C13.018 10.888 13.3273 10.7526 13.743 10.7526C14.1973 10.7526 14.5453 10.9025 14.787 11.2021C15.019 11.4921 15.135 11.8933 15.135 12.4056L15.135 13.7686Z" fill="white"/>
</g>
<defs>
<clipPath id="clip0_7443_702">
<rect width="32" height="32" fill="white"/>
</clipPath>
</defs>
</svg>
