<svg width="32" height="32" viewBox="0 0 32 32" fill="none" xmlns="http://www.w3.org/2000/svg">
<g clip-path="url(#clip0_7443_694)">
<path fill-rule="evenodd" clip-rule="evenodd" d="M24 27C24 29.7614 21.7614 32 19 32L12 32C9.23858 32 7 29.7614 7 27L7 -2.02723e-07L24 0L24 27ZM20.592 12.5396C20.795 11.9306 20.8965 11.2732 20.8965 10.5676C20.8965 9.79423 20.7708 9.11273 20.5195 8.52306C20.2778 7.93339 19.9202 7.47423 19.4465 7.14556C18.9825 6.81689 18.4315 6.65256 17.7935 6.65256C17.1168 6.65256 16.5707 6.80723 16.155 7.11656C15.749 7.42589 15.4445 7.79323 15.2415 8.21856C15.0482 8.64389 14.8403 9.21423 14.618 9.92956C14.4537 10.4806 14.2893 10.8866 14.125 11.1476C13.9703 11.4086 13.7528 11.5391 13.4725 11.5391C13.1922 11.5391 12.965 11.4231 12.791 11.1911C12.617 10.9591 12.53 10.6159 12.53 10.1616C12.53 9.24322 12.8055 8.25239 13.3565 7.18906L11.2685 6.43506C10.9688 6.93772 10.7368 7.51289 10.5725 8.16056C10.4082 8.81789 10.326 9.47039 10.326 10.1181C10.326 10.9204 10.4517 11.6309 10.703 12.2496C10.964 12.8779 11.341 13.3661 11.834 13.7141C12.327 14.0717 12.9118 14.2506 13.5885 14.2506C14.2265 14.2506 14.7437 14.0959 15.14 13.7866C15.546 13.4772 15.8505 13.1147 16.0535 12.6991C16.2565 12.2931 16.474 11.7566 16.706 11.0896C16.909 10.4806 17.0927 10.0311 17.257 9.74106C17.431 9.46073 17.663 9.32056 17.953 9.32056C18.2237 9.32056 18.4363 9.43172 18.591 9.65406C18.7553 9.87639 18.8375 10.1857 18.8375 10.5821C18.8375 10.9591 18.7602 11.3651 18.6055 11.8001C18.4508 12.2447 18.2478 12.6411 17.9965 12.9891L19.867 14.0476C20.157 13.6512 20.3987 13.1486 20.592 12.5396ZM10.5 21.5809L10.5 24.3649L14.2265 22.0304C14.4972 22.6297 14.8935 23.0937 15.4155 23.4224C15.9472 23.7607 16.6045 23.9299 17.3875 23.9299C18.4218 23.9299 19.2242 23.5819 19.7945 22.8859C20.3648 22.1899 20.65 21.1169 20.65 19.6669L20.65 15.7229L10.5 15.7229L10.5 18.2314L13.719 18.2314L13.719 19.4349L13.719 19.6524L10.5 21.5809ZM15.865 18.2314L18.504 18.2314L18.504 19.5509C18.504 20.1405 18.3977 20.5707 18.185 20.8414C17.982 21.112 17.6727 21.2474 17.257 21.2474C16.8027 21.2474 16.4547 21.0975 16.213 20.7979C15.981 20.5079 15.865 20.1067 15.865 19.5944L15.865 18.2314Z" fill="white"/>
</g>
<defs>
<clipPath id="clip0_7443_694">
<rect width="32" height="32" fill="white"/>
</clipPath>
</defs>
</svg>
