<svg width="32" height="32" viewBox="0 0 32 32" fill="none" xmlns="http://www.w3.org/2000/svg">
<g clip-path="url(#clip0_8056_684)">
<path fill-rule="evenodd" clip-rule="evenodd" d="M0.176345 25.5366L5.34912 6.06529C5.93789 3.84907 7.913 2.29583 10.1875 2.26034L26.8306 2.00063C29.6826 1.95612 32.0143 4.28346 31.9999 7.16031L31.9027 26.6514C31.8887 29.455 29.6475 31.7289 26.8679 31.7597L5.14928 31.9997C1.77912 32.0369 -0.695969 28.8202 0.176345 25.5366ZM25.585 11.8V20.9681H27.713V23H20.561V20.9681H23.201V14.392L20.849 15.384L20.097 13.624L23.777 11.8H25.585ZM12.9841 23H15.3201V18.552L19.2241 11.8H16.6801L14.2321 16.28L11.8001 11.8H9.08008L12.9841 18.536V23Z" fill="white"/>
</g>
<defs>
<clipPath id="clip0_8056_684">
<rect width="32" height="32" fill="white"/>
</clipPath>
</defs>
</svg>
