<svg width="32" height="32" viewBox="0 0 32 32" fill="none" xmlns="http://www.w3.org/2000/svg">
<g clip-path="url(#clip0_8056_701)">
<path fill-rule="evenodd" clip-rule="evenodd" d="M31.8237 25.5366L26.6509 6.06529C26.0621 3.84907 24.087 2.29583 21.8125 2.26034L5.16937 2.00063C2.31739 1.95612 -0.0142909 4.28346 6.49259e-05 7.16031L0.0973258 26.6514C0.111314 29.455 2.35253 31.7289 5.1321 31.7597L26.8507 31.9997C30.2209 32.0369 32.696 28.8202 31.8237 25.5366ZM18.169 20.968H23.561V23H15.193V21.048L18.425 18.36L18.697 18.12C19.1876 17.704 19.561 17.368 19.817 17.112C20.0836 16.856 20.297 16.584 20.457 16.296C20.617 16.008 20.697 15.6934 20.697 15.352C20.697 14.7974 20.4943 14.3814 20.089 14.104C19.6943 13.816 19.1823 13.672 18.553 13.672C18.0836 13.672 17.625 13.7467 17.177 13.896C16.7396 14.0454 16.3556 14.232 16.025 14.456L15.225 12.728C15.7156 12.3867 16.2756 12.1147 16.905 11.912C17.545 11.7094 18.2276 11.608 18.953 11.608C20.2436 11.608 21.2783 11.8907 22.057 12.456C22.8356 13.0214 23.225 13.8267 23.225 14.872C23.225 15.64 23.001 16.3387 22.553 16.968C22.105 17.5867 21.417 18.28 20.489 19.048L18.169 20.968ZM7.98408 23H10.3201V18.552L14.2241 11.8H11.6801L9.23208 16.28L6.80008 11.8H4.08008L7.98408 18.536V23Z" fill="white"/>
</g>
<defs>
<clipPath id="clip0_8056_701">
<rect width="32" height="32" fill="white"/>
</clipPath>
</defs>
</svg>
