<svg width="64" height="64" viewBox="0 0 64 64" fill="none" xmlns="http://www.w3.org/2000/svg">
<path fill-rule="evenodd" clip-rule="evenodd" d="M0 15.7142C0 14.6097 0.895431 13.7142 2 13.7142H62C63.1046 13.7142 64 14.6097 64 15.7142V42.2857C64 46.7039 60.4183 50.2857 56 50.2857H8C3.58172 50.2857 0 46.7039 0 42.2857V15.7142ZM35.4286 25.1428C35.4286 25.774 34.9169 26.2857 34.2857 26.2857C33.6545 26.2857 33.1429 25.774 33.1429 25.1428C33.1429 24.5116 33.6545 23.9999 34.2857 23.9999C34.9169 23.9999 35.4286 24.5116 35.4286 25.1428ZM34.2857 30.8571C34.9169 30.8571 35.4286 30.3454 35.4286 29.7142C35.4286 29.0831 34.9169 28.5714 34.2857 28.5714C33.6545 28.5714 33.1429 29.0831 33.1429 29.7142C33.1429 30.3454 33.6545 30.8571 34.2857 30.8571ZM35.4286 34.2857C35.4286 34.9168 34.9169 35.4285 34.2857 35.4285C33.6545 35.4285 33.1429 34.9168 33.1429 34.2857C33.1429 33.6545 33.6545 33.1428 34.2857 33.1428C34.9169 33.1428 35.4286 33.6545 35.4286 34.2857ZM34.2857 39.9999C34.9169 39.9999 35.4286 39.4883 35.4286 38.8571C35.4286 38.2259 34.9169 37.7142 34.2857 37.7142C33.6545 37.7142 33.1429 38.2259 33.1429 38.8571C33.1429 39.4883 33.6545 39.9999 34.2857 39.9999ZM35.4286 43.4285C35.4286 44.0597 34.9169 44.5714 34.2857 44.5714C33.6545 44.5714 33.1429 44.0597 33.1429 43.4285C33.1429 42.7973 33.6545 42.2857 34.2857 42.2857C34.9169 42.2857 35.4286 42.7973 35.4286 43.4285ZM38.8571 26.2857C39.4883 26.2857 40 25.774 40 25.1428C40 24.5116 39.4883 23.9999 38.8571 23.9999C38.226 23.9999 37.7143 24.5116 37.7143 25.1428C37.7143 25.774 38.226 26.2857 38.8571 26.2857ZM44.5714 25.1428C44.5714 25.774 44.0598 26.2857 43.4286 26.2857C42.7974 26.2857 42.2857 25.774 42.2857 25.1428C42.2857 24.5116 42.7974 23.9999 43.4286 23.9999C44.0598 23.9999 44.5714 24.5116 44.5714 25.1428ZM48 26.2857C48.6312 26.2857 49.1429 25.774 49.1429 25.1428C49.1429 24.5116 48.6312 23.9999 48 23.9999C47.3688 23.9999 46.8571 24.5116 46.8571 25.1428C46.8571 25.774 47.3688 26.2857 48 26.2857ZM53.7143 25.1428C53.7143 25.774 53.2026 26.2857 52.5714 26.2857C51.9402 26.2857 51.4286 25.774 51.4286 25.1428C51.4286 24.5116 51.9402 23.9999 52.5714 23.9999C53.2026 23.9999 53.7143 24.5116 53.7143 25.1428ZM57.1429 26.2857C57.774 26.2857 58.2857 25.774 58.2857 25.1428C58.2857 24.5116 57.774 23.9999 57.1429 23.9999C56.5117 23.9999 56 24.5116 56 25.1428C56 25.774 56.5117 26.2857 57.1429 26.2857ZM40 29.7142C40 30.3454 39.4883 30.8571 38.8571 30.8571C38.226 30.8571 37.7143 30.3454 37.7143 29.7142C37.7143 29.0831 38.226 28.5714 38.8571 28.5714C39.4883 28.5714 40 29.0831 40 29.7142ZM43.4286 30.8571C44.0598 30.8571 44.5714 30.3454 44.5714 29.7142C44.5714 29.0831 44.0598 28.5714 43.4286 28.5714C42.7974 28.5714 42.2857 29.0831 42.2857 29.7142C42.2857 30.3454 42.7974 30.8571 43.4286 30.8571ZM49.1429 29.7142C49.1429 30.3454 48.6312 30.8571 48 30.8571C47.3688 30.8571 46.8571 30.3454 46.8571 29.7142C46.8571 29.0831 47.3688 28.5714 48 28.5714C48.6312 28.5714 49.1429 29.0831 49.1429 29.7142ZM52.5714 30.8571C53.2026 30.8571 53.7143 30.3454 53.7143 29.7142C53.7143 29.0831 53.2026 28.5714 52.5714 28.5714C51.9402 28.5714 51.4286 29.0831 51.4286 29.7142C51.4286 30.3454 51.9402 30.8571 52.5714 30.8571ZM58.2857 29.7142C58.2857 30.3454 57.774 30.8571 57.1429 30.8571C56.5117 30.8571 56 30.3454 56 29.7142C56 29.0831 56.5117 28.5714 57.1429 28.5714C57.774 28.5714 58.2857 29.0831 58.2857 29.7142ZM38.8571 35.4285C39.4883 35.4285 40 34.9168 40 34.2857C40 33.6545 39.4883 33.1428 38.8571 33.1428C38.226 33.1428 37.7143 33.6545 37.7143 34.2857C37.7143 34.9168 38.226 35.4285 38.8571 35.4285ZM40 38.8571C40 39.4883 39.4883 39.9999 38.8571 39.9999C38.226 39.9999 37.7143 39.4883 37.7143 38.8571C37.7143 38.2259 38.226 37.7142 38.8571 37.7142C39.4883 37.7142 40 38.2259 40 38.8571ZM38.8571 44.5714C39.4883 44.5714 40 44.0597 40 43.4285C40 42.7973 39.4883 42.2857 38.8571 42.2857C38.226 42.2857 37.7143 42.7973 37.7143 43.4285C37.7143 44.0597 38.226 44.5714 38.8571 44.5714ZM44.5714 34.2857C44.5714 34.9168 44.0598 35.4285 43.4286 35.4285C42.7974 35.4285 42.2857 34.9168 42.2857 34.2857C42.2857 33.6545 42.7974 33.1428 43.4286 33.1428C44.0598 33.1428 44.5714 33.6545 44.5714 34.2857ZM43.4286 39.9999C44.0598 39.9999 44.5714 39.4883 44.5714 38.8571C44.5714 38.2259 44.0598 37.7142 43.4286 37.7142C42.7974 37.7142 42.2857 38.2259 42.2857 38.8571C42.2857 39.4883 42.7974 39.9999 43.4286 39.9999ZM44.5714 43.4285C44.5714 44.0597 44.0598 44.5714 43.4286 44.5714C42.7974 44.5714 42.2857 44.0597 42.2857 43.4285C42.2857 42.7973 42.7974 42.2857 43.4286 42.2857C44.0598 42.2857 44.5714 42.7973 44.5714 43.4285ZM48 35.4285C48.6312 35.4285 49.1429 34.9168 49.1429 34.2857C49.1429 33.6545 48.6312 33.1428 48 33.1428C47.3688 33.1428 46.8571 33.6545 46.8571 34.2857C46.8571 34.9168 47.3688 35.4285 48 35.4285ZM49.1429 38.8571C49.1429 39.4883 48.6312 39.9999 48 39.9999C47.3688 39.9999 46.8571 39.4883 46.8571 38.8571C46.8571 38.2259 47.3688 37.7142 48 37.7142C48.6312 37.7142 49.1429 38.2259 49.1429 38.8571ZM48 44.5714C48.6312 44.5714 49.1429 44.0597 49.1429 43.4285C49.1429 42.7973 48.6312 42.2857 48 42.2857C47.3688 42.2857 46.8571 42.7973 46.8571 43.4285C46.8571 44.0597 47.3688 44.5714 48 44.5714ZM53.7143 34.2857C53.7143 34.9168 53.2026 35.4285 52.5714 35.4285C51.9402 35.4285 51.4286 34.9168 51.4286 34.2857C51.4286 33.6545 51.9402 33.1428 52.5714 33.1428C53.2026 33.1428 53.7143 33.6545 53.7143 34.2857ZM52.5714 39.9999C53.2026 39.9999 53.7143 39.4883 53.7143 38.8571C53.7143 38.2259 53.2026 37.7142 52.5714 37.7142C51.9402 37.7142 51.4286 38.2259 51.4286 38.8571C51.4286 39.4883 51.9402 39.9999 52.5714 39.9999ZM53.7143 43.4285C53.7143 44.0597 53.2026 44.5714 52.5714 44.5714C51.9402 44.5714 51.4286 44.0597 51.4286 43.4285C51.4286 42.7973 51.9402 42.2857 52.5714 42.2857C53.2026 42.2857 53.7143 42.7973 53.7143 43.4285ZM57.1429 35.4285C57.774 35.4285 58.2857 34.9168 58.2857 34.2857C58.2857 33.6545 57.774 33.1428 57.1429 33.1428C56.5117 33.1428 56 33.6545 56 34.2857C56 34.9168 56.5117 35.4285 57.1429 35.4285ZM58.2857 38.8571C58.2857 39.4883 57.774 39.9999 57.1429 39.9999C56.5117 39.9999 56 39.4883 56 38.8571C56 38.2259 56.5117 37.7142 57.1429 37.7142C57.774 37.7142 58.2857 38.2259 58.2857 38.8571ZM57.1429 44.5714C57.774 44.5714 58.2857 44.0597 58.2857 43.4285C58.2857 42.7973 57.774 42.2857 57.1429 42.2857C56.5117 42.2857 56 42.7973 56 43.4285C56 44.0597 56.5117 44.5714 57.1429 44.5714ZM27.1429 31.9999C27.1429 38.154 22.154 43.1428 16 43.1428C9.84597 43.1428 4.85714 38.154 4.85714 31.9999C4.85714 25.8459 9.84597 20.8571 16 20.8571C22.154 20.8571 27.1429 25.8459 27.1429 31.9999ZM16 41.1428C21.0495 41.1428 25.1429 37.0494 25.1429 31.9999C25.1429 26.9505 21.0495 22.8571 16 22.8571C10.9505 22.8571 6.85714 26.9505 6.85714 31.9999C6.85714 37.0494 10.9505 41.1428 16 41.1428ZM13.7894 34.7142H18.6894V33.1542H15.5194V27.7142H13.7894V34.7142Z" fill="white"/>
</svg>
