<svg width="32" height="32" viewBox="0 0 32 32" fill="none" xmlns="http://www.w3.org/2000/svg">
<g clip-path="url(#clip0_1967_19380)">
<path fill-rule="evenodd" clip-rule="evenodd" d="M15.9111 0.00012207L11.8433 4.74588H19.9789L15.9111 0.00012207ZM4.7 6.00012H28.6915V32.1448H8.3C5.64903 32.1448 3.5 29.9958 3.5 27.3448V7.20012C3.5 6.53738 4.03726 6.00012 4.7 6.00012ZM15.0976 14.9153C14.6483 14.9153 14.284 14.5511 14.284 14.1018C14.284 13.6525 14.6483 13.2882 15.0976 13.2882C15.5469 13.2882 15.9111 13.6525 15.9111 14.1018C15.9111 14.5511 15.5469 14.9153 15.0976 14.9153ZM17.5382 14.1018C17.5382 14.5511 17.9025 14.9153 18.3518 14.9153C18.8011 14.9153 19.1654 14.5511 19.1654 14.1018C19.1654 13.6525 18.8011 13.2882 18.3518 13.2882C17.9025 13.2882 17.5382 13.6525 17.5382 14.1018ZM21.6061 14.9153C21.1568 14.9153 20.7925 14.5511 20.7925 14.1018C20.7925 13.6525 21.1568 13.2882 21.6061 13.2882C22.0554 13.2882 22.4196 13.6525 22.4196 14.1018C22.4196 14.5511 22.0554 14.9153 21.6061 14.9153ZM24.0467 14.1018C24.0467 14.5511 24.4109 14.9153 24.8603 14.9153C25.3096 14.9153 25.6738 14.5511 25.6738 14.1018C25.6738 13.6525 25.3096 13.2882 24.8603 13.2882C24.4109 13.2882 24.0467 13.6525 24.0467 14.1018ZM11.8435 14.9153C11.3942 14.9153 11.0299 14.5511 11.0299 14.1018C11.0299 13.6525 11.3942 13.2882 11.8435 13.2882C12.2928 13.2882 12.6571 13.6525 12.6571 14.1018C12.6571 14.5511 12.2928 14.9153 11.8435 14.9153ZM7.77547 14.1018C7.77547 14.5511 8.13971 14.9153 8.58903 14.9153C9.03834 14.9153 9.40258 14.5511 9.40258 14.1018C9.40258 13.6525 9.03834 13.2882 8.58903 13.2882C8.13971 13.2882 7.77547 13.6525 7.77547 14.1018ZM15.0976 18.1696C14.6483 18.1696 14.284 17.8053 14.284 17.356C14.284 16.9067 14.6483 16.5425 15.0976 16.5425C15.5469 16.5425 15.9111 16.9067 15.9111 17.356C15.9111 17.8053 15.5469 18.1696 15.0976 18.1696ZM17.5382 17.356C17.5382 17.8053 17.9025 18.1696 18.3518 18.1696C18.8011 18.1696 19.1654 17.8053 19.1654 17.356C19.1654 16.9067 18.8011 16.5425 18.3518 16.5425C17.9025 16.5425 17.5382 16.9067 17.5382 17.356ZM21.6061 18.1696C21.1568 18.1696 20.7925 17.8053 20.7925 17.356C20.7925 16.9067 21.1568 16.5425 21.6061 16.5425C22.0554 16.5425 22.4196 16.9067 22.4196 17.356C22.4196 17.8053 22.0554 18.1696 21.6061 18.1696ZM24.0467 17.356C24.0467 17.8053 24.4109 18.1696 24.8603 18.1696C25.3096 18.1696 25.6738 17.8053 25.6738 17.356C25.6738 16.9067 25.3096 16.5425 24.8603 16.5425C24.4109 16.5425 24.0467 16.9067 24.0467 17.356ZM11.8435 18.1696C11.3942 18.1696 11.0299 17.8053 11.0299 17.356C11.0299 16.9067 11.3942 16.5425 11.8435 16.5425C12.2928 16.5425 12.6571 16.9067 12.6571 17.356C12.6571 17.8053 12.2928 18.1696 11.8435 18.1696ZM7.77547 17.356C7.77547 17.8053 8.13971 18.1696 8.58903 18.1696C9.03834 18.1696 9.40258 17.8053 9.40258 17.356C9.40258 16.9067 9.03834 16.5425 8.58903 16.5425C8.13971 16.5425 7.77547 16.9067 7.77547 17.356ZM15.0976 21.4239C14.6483 21.4239 14.284 21.0596 14.284 20.6103C14.284 20.161 14.6483 19.7967 15.0976 19.7967C15.5469 19.7967 15.9111 20.161 15.9111 20.6103C15.9111 21.0596 15.5469 21.4239 15.0976 21.4239ZM17.5382 20.6103C17.5382 21.0596 17.9025 21.4239 18.3518 21.4239C18.8011 21.4239 19.1654 21.0596 19.1654 20.6103C19.1654 20.161 18.8011 19.7967 18.3518 19.7967C17.9025 19.7967 17.5382 20.161 17.5382 20.6103ZM21.6061 21.4239C21.1568 21.4239 20.7925 21.0596 20.7925 20.6103C20.7925 20.161 21.1568 19.7967 21.6061 19.7967C22.0554 19.7967 22.4196 20.161 22.4196 20.6103C22.4196 21.0596 22.0554 21.4239 21.6061 21.4239ZM24.0467 20.6103C24.0467 21.0596 24.4109 21.4239 24.8603 21.4239C25.3096 21.4239 25.6738 21.0596 25.6738 20.6103C25.6738 20.161 25.3096 19.7967 24.8603 19.7967C24.4109 19.7967 24.0467 20.161 24.0467 20.6103ZM15.0976 24.678C14.6483 24.678 14.284 24.3137 14.284 23.8644C14.284 23.4151 14.6483 23.0509 15.0976 23.0509C15.5469 23.0509 15.9111 23.4151 15.9111 23.8644C15.9111 24.3137 15.5469 24.678 15.0976 24.678ZM17.5382 23.8644C17.5382 24.3137 17.9025 24.678 18.3518 24.678C18.8011 24.678 19.1654 24.3137 19.1654 23.8644C19.1654 23.4151 18.8011 23.0509 18.3518 23.0509C17.9025 23.0509 17.5382 23.4151 17.5382 23.8644ZM21.6061 24.678C21.1568 24.678 20.7925 24.3137 20.7925 23.8644C20.7925 23.4151 21.1568 23.0509 21.6061 23.0509C22.0554 23.0509 22.4196 23.4151 22.4196 23.8644C22.4196 24.3137 22.0554 24.678 21.6061 24.678ZM24.0467 23.8644C24.0467 24.3137 24.4109 24.678 24.8603 24.678C25.3096 24.678 25.6738 24.3137 25.6738 23.8644C25.6738 23.4151 25.3096 23.0509 24.8603 23.0509C24.4109 23.0509 24.0467 23.4151 24.0467 23.8644ZM15.0976 27.9322C14.6483 27.9322 14.284 27.568 14.284 27.1187C14.284 26.6694 14.6483 26.3051 15.0976 26.3051C15.5469 26.3051 15.9111 26.6694 15.9111 27.1187C15.9111 27.568 15.5469 27.9322 15.0976 27.9322ZM17.5382 27.1187C17.5382 27.568 17.9025 27.9322 18.3518 27.9322C18.8011 27.9322 19.1654 27.568 19.1654 27.1187C19.1654 26.6694 18.8011 26.3051 18.3518 26.3051C17.9025 26.3051 17.5382 26.6694 17.5382 27.1187ZM21.6061 27.9322C21.1568 27.9322 20.7925 27.568 20.7925 27.1187C20.7925 26.6694 21.1568 26.3051 21.6061 26.3051C22.0554 26.3051 22.4196 26.6694 22.4196 27.1187C22.4196 27.568 22.0554 27.9322 21.6061 27.9322ZM24.0467 27.1187C24.0467 27.568 24.4109 27.9322 24.8603 27.9322C25.3096 27.9322 25.6738 27.568 25.6738 27.1187C25.6738 26.6694 25.3096 26.3051 24.8603 26.3051C24.4109 26.3051 24.0467 26.6694 24.0467 27.1187ZM11.8435 21.4239C11.3942 21.4239 11.0299 21.0596 11.0299 20.6103C11.0299 20.161 11.3942 19.7967 11.8435 19.7967C12.2928 19.7967 12.6571 20.161 12.6571 20.6103C12.6571 21.0596 12.2928 21.4239 11.8435 21.4239ZM11.0299 23.8644C11.0299 24.3137 11.3942 24.678 11.8435 24.678C12.2928 24.678 12.6571 24.3137 12.6571 23.8644C12.6571 23.4151 12.2928 23.0509 11.8435 23.0509C11.3942 23.0509 11.0299 23.4151 11.0299 23.8644ZM11.8435 27.9322C11.3942 27.9322 11.0299 27.568 11.0299 27.1187C11.0299 26.6694 11.3942 26.3051 11.8435 26.3051C12.2928 26.3051 12.6571 26.6694 12.6571 27.1187C12.6571 27.568 12.2928 27.9322 11.8435 27.9322ZM7.77547 20.6103C7.77547 21.0596 8.13971 21.4239 8.58903 21.4239C9.03834 21.4239 9.40258 21.0596 9.40258 20.6103C9.40258 20.161 9.03834 19.7967 8.58903 19.7967C8.13971 19.7967 7.77547 20.161 7.77547 20.6103ZM8.58903 24.678C8.13971 24.678 7.77547 24.3137 7.77547 23.8644C7.77547 23.4151 8.13971 23.0509 8.58903 23.0509C9.03834 23.0509 9.40258 23.4151 9.40258 23.8644C9.40258 24.3137 9.03834 24.678 8.58903 24.678ZM7.77547 27.1187C7.77547 27.568 8.13971 27.9322 8.58903 27.9322C9.03834 27.9322 9.40258 27.568 9.40258 27.1187C9.40258 26.6694 9.03834 26.3051 8.58903 26.3051C8.13971 26.3051 7.77547 26.6694 7.77547 27.1187Z" fill="white"/>
</g>
<defs>
<clipPath id="clip0_1967_19380">
<rect width="32" height="32" fill="white"/>
</clipPath>
</defs>
</svg>
