<svg width="64" height="64" viewBox="0 0 64 64" fill="none" xmlns="http://www.w3.org/2000/svg">
<g clip-path="url(#clip0_1967:19415)">
<path fill-rule="evenodd" clip-rule="evenodd" d="M47.983 5.85535H0V58.1447H40.783C46.0849 58.1447 50.383 53.8466 50.383 48.5447V8.25535C50.383 6.92986 49.3085 5.85535 47.983 5.85535ZM27.5064 23.8299C28.4089 23.8299 29.1405 23.0983 29.1405 22.1959C29.1405 21.2934 28.4089 20.5618 27.5064 20.5618C26.604 20.5618 25.8724 21.2934 25.8724 22.1959C25.8724 23.0983 26.604 23.8299 27.5064 23.8299ZM22.6042 22.1959C22.6042 23.0983 21.8726 23.8299 20.9701 23.8299C20.0677 23.8299 19.3361 23.0983 19.3361 22.1959C19.3361 21.2934 20.0677 20.5618 20.9701 20.5618C21.8726 20.5618 22.6042 21.2934 22.6042 22.1959ZM14.4339 23.8299C15.3364 23.8299 16.068 23.0983 16.068 22.1959C16.068 21.2934 15.3364 20.5618 14.4339 20.5618C13.5315 20.5618 12.7999 21.2934 12.7999 22.1959C12.7999 23.0983 13.5315 23.8299 14.4339 23.8299ZM9.53189 22.1959C9.53189 23.0983 8.8003 23.8299 7.89784 23.8299C6.99539 23.8299 6.2638 23.0983 6.2638 22.1959C6.2638 21.2934 6.99539 20.5618 7.89784 20.5618C8.8003 20.5618 9.53189 21.2934 9.53189 22.1959ZM34.0422 23.8299C34.9447 23.8299 35.6763 23.0983 35.6763 22.1959C35.6763 21.2934 34.9447 20.5618 34.0422 20.5618C33.1398 20.5618 32.4082 21.2934 32.4082 22.1959C32.4082 23.0983 33.1398 23.8299 34.0422 23.8299ZM42.2129 22.1959C42.2129 23.0983 41.4813 23.8299 40.5788 23.8299C39.6764 23.8299 38.9448 23.0983 38.9448 22.1959C38.9448 21.2934 39.6764 20.5618 40.5788 20.5618C41.4813 20.5618 42.2129 21.2934 42.2129 22.1959ZM27.5064 30.3661C28.4089 30.3661 29.1405 29.6345 29.1405 28.7321C29.1405 27.8296 28.4089 27.098 27.5064 27.098C26.604 27.098 25.8724 27.8296 25.8724 28.7321C25.8724 29.6345 26.604 30.3661 27.5064 30.3661ZM22.6042 28.7321C22.6042 29.6345 21.8726 30.3661 20.9701 30.3661C20.0677 30.3661 19.3361 29.6345 19.3361 28.7321C19.3361 27.8296 20.0677 27.098 20.9701 27.098C21.8726 27.098 22.6042 27.8296 22.6042 28.7321ZM14.4339 30.3661C15.3364 30.3661 16.068 29.6345 16.068 28.7321C16.068 27.8296 15.3364 27.098 14.4339 27.098C13.5315 27.098 12.7999 27.8296 12.7999 28.7321C12.7999 29.6345 13.5315 30.3661 14.4339 30.3661ZM9.53189 28.7321C9.53189 29.6345 8.8003 30.3661 7.89784 30.3661C6.99539 30.3661 6.2638 29.6345 6.2638 28.7321C6.2638 27.8296 6.99539 27.098 7.89784 27.098C8.8003 27.098 9.53189 27.8296 9.53189 28.7321ZM34.0422 30.3661C34.9447 30.3661 35.6763 29.6345 35.6763 28.7321C35.6763 27.8296 34.9447 27.098 34.0422 27.098C33.1398 27.098 32.4082 27.8296 32.4082 28.7321C32.4082 29.6345 33.1398 30.3661 34.0422 30.3661ZM42.2129 28.7321C42.2129 29.6345 41.4813 30.3661 40.5788 30.3661C39.6764 30.3661 38.9448 29.6345 38.9448 28.7321C38.9448 27.8296 39.6764 27.098 40.5788 27.098C41.4813 27.098 42.2129 27.8296 42.2129 28.7321ZM27.5064 36.9022C28.4089 36.9022 29.1405 36.1706 29.1405 35.2682C29.1405 34.3657 28.4089 33.6341 27.5064 33.6341C26.604 33.6341 25.8724 34.3657 25.8724 35.2682C25.8724 36.1706 26.604 36.9022 27.5064 36.9022ZM22.6042 35.2682C22.6042 36.1706 21.8726 36.9022 20.9701 36.9022C20.0677 36.9022 19.3361 36.1706 19.3361 35.2682C19.3361 34.3657 20.0677 33.6341 20.9701 33.6341C21.8726 33.6341 22.6042 34.3657 22.6042 35.2682ZM14.4339 36.9022C15.3364 36.9022 16.068 36.1706 16.068 35.2682C16.068 34.3657 15.3364 33.6341 14.4339 33.6341C13.5315 33.6341 12.7999 34.3657 12.7999 35.2682C12.7999 36.1706 13.5315 36.9022 14.4339 36.9022ZM9.53189 35.2682C9.53189 36.1706 8.8003 36.9022 7.89784 36.9022C6.99539 36.9022 6.2638 36.1706 6.2638 35.2682C6.2638 34.3657 6.99539 33.6341 7.89784 33.6341C8.8003 33.6341 9.53189 34.3657 9.53189 35.2682ZM27.5064 43.4383C28.4089 43.4383 29.1405 42.7067 29.1405 41.8042C29.1405 40.9018 28.4089 40.1702 27.5064 40.1702C26.604 40.1702 25.8724 40.9018 25.8724 41.8042C25.8724 42.7067 26.604 43.4383 27.5064 43.4383ZM22.6042 41.8042C22.6042 42.7067 21.8726 43.4383 20.9701 43.4383C20.0677 43.4383 19.3361 42.7067 19.3361 41.8042C19.3361 40.9018 20.0677 40.1702 20.9701 40.1702C21.8726 40.1702 22.6042 40.9018 22.6042 41.8042ZM14.4339 43.4383C15.3364 43.4383 16.068 42.7067 16.068 41.8042C16.068 40.9018 15.3364 40.1702 14.4339 40.1702C13.5315 40.1702 12.7999 40.9018 12.7999 41.8042C12.7999 42.7067 13.5315 43.4383 14.4339 43.4383ZM9.53189 41.8042C9.53189 42.7067 8.8003 43.4383 7.89784 43.4383C6.99539 43.4383 6.2638 42.7067 6.2638 41.8042C6.2638 40.9018 6.99539 40.1702 7.89784 40.1702C8.8003 40.1702 9.53189 40.9018 9.53189 41.8042ZM27.5064 49.9745C28.4089 49.9745 29.1405 49.2429 29.1405 48.3404C29.1405 47.438 28.4089 46.7064 27.5064 46.7064C26.604 46.7064 25.8724 47.438 25.8724 48.3404C25.8724 49.2429 26.604 49.9745 27.5064 49.9745ZM22.6042 48.3404C22.6042 49.2429 21.8726 49.9745 20.9701 49.9745C20.0677 49.9745 19.3361 49.2429 19.3361 48.3404C19.3361 47.438 20.0677 46.7064 20.9701 46.7064C21.8726 46.7064 22.6042 47.438 22.6042 48.3404ZM14.4339 49.9745C15.3364 49.9745 16.068 49.2429 16.068 48.3404C16.068 47.438 15.3364 46.7064 14.4339 46.7064C13.5315 46.7064 12.7999 47.438 12.7999 48.3404C12.7999 49.2429 13.5315 49.9745 14.4339 49.9745ZM9.53189 48.3404C9.53189 49.2429 8.8003 49.9745 7.89784 49.9745C6.99539 49.9745 6.2638 49.2429 6.2638 48.3404C6.2638 47.438 6.99539 46.7064 7.89784 46.7064C8.8003 46.7064 9.53189 47.438 9.53189 48.3404ZM34.0422 36.9022C34.9447 36.9022 35.6763 36.1706 35.6763 35.2682C35.6763 34.3657 34.9447 33.6341 34.0422 33.6341C33.1398 33.6341 32.4082 34.3657 32.4082 35.2682C32.4082 36.1706 33.1398 36.9022 34.0422 36.9022ZM35.6763 41.8042C35.6763 42.7067 34.9447 43.4383 34.0422 43.4383C33.1398 43.4383 32.4082 42.7067 32.4082 41.8042C32.4082 40.9018 33.1398 40.1702 34.0422 40.1702C34.9447 40.1702 35.6763 40.9018 35.6763 41.8042ZM34.0422 49.9745C34.9447 49.9745 35.6763 49.2429 35.6763 48.3404C35.6763 47.438 34.9447 46.7064 34.0422 46.7064C33.1398 46.7064 32.4082 47.438 32.4082 48.3404C32.4082 49.2429 33.1398 49.9745 34.0422 49.9745ZM42.2129 35.2682C42.2129 36.1706 41.4813 36.9022 40.5788 36.9022C39.6764 36.9022 38.9448 36.1706 38.9448 35.2682C38.9448 34.3657 39.6764 33.6341 40.5788 33.6341C41.4813 33.6341 42.2129 34.3657 42.2129 35.2682ZM40.5788 43.4383C41.4813 43.4383 42.2129 42.7067 42.2129 41.8042C42.2129 40.9018 41.4813 40.1702 40.5788 40.1702C39.6764 40.1702 38.9448 40.9018 38.9448 41.8042C38.9448 42.7067 39.6764 43.4383 40.5788 43.4383ZM42.2129 48.3404C42.2129 49.2429 41.4813 49.9745 40.5788 49.9745C39.6764 49.9745 38.9448 49.2429 38.9448 48.3404C38.9448 47.438 39.6764 46.7064 40.5788 46.7064C41.4813 46.7064 42.2129 47.438 42.2129 48.3404ZM64 32L54.4681 23.8298V40.1702L64 32Z" fill="white"/>
</g>
<defs>
<clipPath id="clip0_1967:19415">
<rect width="64" height="64" fill="white"/>
</clipPath>
</defs>
</svg>
