<svg width="32" height="32" viewBox="0 0 32 32" fill="none" xmlns="http://www.w3.org/2000/svg">
<path fill-rule="evenodd" clip-rule="evenodd" d="M31 6.85718C31.5523 6.85718 32 7.30489 32 7.85718V21.1429C32 23.352 30.2091 25.1429 28 25.1429H4C1.79086 25.1429 0 23.352 0 21.1429V7.85718C0 7.30489 0.447713 6.85718 0.999998 6.85718H31ZM27.8572 9H4.14289C3.03832 9 2.14289 9.89543 2.14289 11V21C2.14289 22.1046 3.03832 23 4.14289 23H27.8572C28.9617 23 29.8572 22.1046 29.8572 21V11C29.8572 9.89543 28.9617 9 27.8572 9ZM30.8572 11C30.8572 9.34315 29.514 8 27.8572 8H4.14289C2.48604 8 1.14289 9.34315 1.14289 11V21C1.14289 22.6569 2.48604 24 4.14289 24H27.8572C29.514 24 30.8572 22.6569 30.8572 21V11Z" fill="white"/>
</svg>
