<svg width="64" height="64" viewBox="0 0 64 64" fill="none" xmlns="http://www.w3.org/2000/svg">
<path fill-rule="evenodd" clip-rule="evenodd" d="M32 62C15.4315 62 2 48.5685 2 32V2H62V32C62 48.5685 48.5685 62 32 62ZM45.8335 35.19H38.5068L41.5868 32.74C42.8623 31.7133 43.8035 30.7567 44.4101 29.87C45.0323 28.9678 45.3435 27.9722 45.3435 26.8833C45.3435 25.2967 44.7446 24.0989 43.5468 23.29C42.349 22.4656 40.7701 22.0533 38.8101 22.0533C37.7523 22.0533 36.7568 22.1933 35.8235 22.4733C34.9057 22.7533 34.0735 23.1345 33.3268 23.6167L34.6335 26.6033C35.1157 26.3078 35.6601 26.0745 36.2668 25.9033C36.8735 25.7167 37.4879 25.6233 38.1101 25.6233C38.9346 25.6233 39.6112 25.8022 40.1401 26.16C40.6846 26.5178 40.9568 27.0467 40.9568 27.7467C40.9568 28.1978 40.8479 28.61 40.6301 28.9833C40.4279 29.3567 40.1401 29.7222 39.7668 30.08C39.3935 30.4378 38.8412 30.92 38.1101 31.5267L33.3968 35.3533V38.6667H45.8335V35.19ZM18.6372 38.6667H30.0705V35.0267H22.6739V22.3333H18.6372V38.6667Z" fill="white"/>
</svg>
