<svg width="64" height="64" viewBox="0 0 64 64" fill="none" xmlns="http://www.w3.org/2000/svg">
<path fill-rule="evenodd" clip-rule="evenodd" d="M22.3137 18.5721L22.3137 18.5722L18.1473 14.2779L18.1473 14.2779L21.5165 10.8053L32.0001 0.00012207L42.4836 10.8053L45.8529 14.2779L41.6864 18.5722L34.9425 11.6213L34.9425 27.7057L34.9425 27.7057H29.0577V11.6213L22.3137 18.5721ZM22.3137 22.5509L14.287 14.2779L17.6562 10.8053H9.46506C8.13958 10.8053 7.06506 11.8798 7.06506 13.2053V54.4C7.06506 59.7019 11.3631 64 16.6651 64H56.9351V10.8053H46.3439L49.7132 14.2779L41.6864 22.5509L37.713 18.4556V30.4763H26.2871V18.4556L22.3137 22.5509ZM50.2858 29.091C49.3677 29.091 48.6234 28.3467 48.6234 27.4287C48.6234 26.5106 49.3677 25.7663 50.2858 25.7663C51.2039 25.7663 51.9481 26.5106 51.9481 27.4287C51.9481 28.3467 51.2039 29.091 50.2858 29.091ZM48.6234 34.0781C48.6234 34.9962 49.3677 35.7405 50.2858 35.7405C51.2039 35.7405 51.9481 34.9962 51.9481 34.0781C51.9481 33.16 51.2039 32.4158 50.2858 32.4158C49.3677 32.4158 48.6234 33.16 48.6234 34.0781ZM43.6366 35.7405C42.7185 35.7405 41.9743 34.9962 41.9743 34.0781C41.9743 33.16 42.7185 32.4158 43.6366 32.4158C44.5547 32.4158 45.299 33.16 45.299 34.0781C45.299 34.9962 44.5547 35.7405 43.6366 35.7405ZM48.6234 40.7274C48.6234 41.6455 49.3677 42.3898 50.2858 42.3898C51.2039 42.3898 51.9481 41.6455 51.9481 40.7274C51.9481 39.8094 51.2039 39.0651 50.2858 39.0651C49.3677 39.0651 48.6234 39.8094 48.6234 40.7274ZM50.2858 49.0389C49.3677 49.0389 48.6234 48.2947 48.6234 47.3766C48.6234 46.4585 49.3677 45.7143 50.2858 45.7143C51.2039 45.7143 51.9481 46.4585 51.9481 47.3766C51.9481 48.2947 51.2039 49.0389 50.2858 49.0389ZM48.6234 54.0261C48.6234 54.9442 49.3677 55.6884 50.2858 55.6884C51.2039 55.6884 51.9481 54.9442 51.9481 54.0261C51.9481 53.108 51.2039 52.3637 50.2858 52.3637C49.3677 52.3637 48.6234 53.108 48.6234 54.0261ZM17.039 29.091C16.121 29.091 15.3767 28.3467 15.3767 27.4287C15.3767 26.5106 16.121 25.7663 17.039 25.7663C17.9571 25.7663 18.7014 26.5106 18.7014 27.4287C18.7014 28.3467 17.9571 29.091 17.039 29.091ZM15.3767 34.0781C15.3767 34.9962 16.121 35.7405 17.039 35.7405C17.9571 35.7405 18.7014 34.9962 18.7014 34.0781C18.7014 33.16 17.9571 32.4158 17.039 32.4158C16.121 32.4158 15.3767 33.16 15.3767 34.0781ZM43.6366 42.3898C42.7185 42.3898 41.9743 41.6455 41.9743 40.7274C41.9743 39.8094 42.7185 39.0651 43.6366 39.0651C44.5547 39.0651 45.299 39.8094 45.299 40.7274C45.299 41.6455 44.5547 42.3898 43.6366 42.3898ZM41.9743 47.3766C41.9743 48.2947 42.7185 49.0389 43.6366 49.0389C44.5547 49.0389 45.299 48.2947 45.299 47.3766C45.299 46.4585 44.5547 45.7143 43.6366 45.7143C42.7185 45.7143 41.9743 46.4585 41.9743 47.3766ZM43.6366 55.6884C42.7185 55.6884 41.9743 54.9442 41.9743 54.0261C41.9743 53.108 42.7185 52.3637 43.6366 52.3637C44.5547 52.3637 45.299 53.108 45.299 54.0261C45.299 54.9442 44.5547 55.6884 43.6366 55.6884ZM35.3245 40.7274C35.3245 41.6455 36.0688 42.3898 36.9868 42.3898C37.9049 42.3898 38.6492 41.6455 38.6492 40.7274C38.6492 39.8094 37.9049 39.0651 36.9868 39.0651C36.0688 39.0651 35.3245 39.8094 35.3245 40.7274ZM36.9868 49.0389C36.0688 49.0389 35.3245 48.2947 35.3245 47.3766C35.3245 46.4585 36.0688 45.7143 36.9868 45.7143C37.9049 45.7143 38.6492 46.4585 38.6492 47.3766C38.6492 48.2947 37.9049 49.0389 36.9868 49.0389ZM35.3245 54.0261C35.3245 54.9442 36.0688 55.6884 36.9868 55.6884C37.9049 55.6884 38.6492 54.9442 38.6492 54.0261C38.6492 53.108 37.9049 52.3637 36.9868 52.3637C36.0688 52.3637 35.3245 53.108 35.3245 54.0261ZM30.3378 42.3898C29.4197 42.3898 28.6755 41.6455 28.6755 40.7274C28.6755 39.8094 29.4197 39.0651 30.3378 39.0651C31.2559 39.0651 32.0002 39.8094 32.0002 40.7274C32.0002 41.6455 31.2559 42.3898 30.3378 42.3898ZM28.6755 47.3766C28.6755 48.2947 29.4197 49.0389 30.3378 49.0389C31.2559 49.0389 32.0002 48.2947 32.0002 47.3766C32.0002 46.4585 31.2559 45.7143 30.3378 45.7143C29.4197 45.7143 28.6755 46.4585 28.6755 47.3766ZM30.3378 55.6884C29.4197 55.6884 28.6755 54.9442 28.6755 54.0261C28.6755 53.108 29.4197 52.3637 30.3378 52.3637C31.2559 52.3637 32.0002 53.108 32.0002 54.0261C32.0002 54.9442 31.2559 55.6884 30.3378 55.6884ZM22.0265 40.7274C22.0265 41.6455 22.7707 42.3898 23.6888 42.3898C24.6069 42.3898 25.3512 41.6455 25.3512 40.7274C25.3512 39.8094 24.6069 39.0651 23.6888 39.0651C22.7707 39.0651 22.0265 39.8094 22.0265 40.7274ZM23.6888 49.0389C22.7707 49.0389 22.0265 48.2947 22.0265 47.3766C22.0265 46.4585 22.7707 45.7143 23.6888 45.7143C24.6069 45.7143 25.3512 46.4585 25.3512 47.3766C25.3512 48.2947 24.6069 49.0389 23.6888 49.0389ZM22.0265 54.0261C22.0265 54.9442 22.7707 55.6884 23.6888 55.6884C24.6069 55.6884 25.3512 54.9442 25.3512 54.0261C25.3512 53.108 24.6069 52.3637 23.6888 52.3637C22.7707 52.3637 22.0265 53.108 22.0265 54.0261ZM17.039 42.3898C16.121 42.3898 15.3767 41.6455 15.3767 40.7274C15.3767 39.8094 16.121 39.0651 17.039 39.0651C17.9571 39.0651 18.7014 39.8094 18.7014 40.7274C18.7014 41.6455 17.9571 42.3898 17.039 42.3898ZM15.3767 47.3766C15.3767 48.2947 16.121 49.0389 17.039 49.0389C17.9571 49.0389 18.7014 48.2947 18.7014 47.3766C18.7014 46.4585 17.9571 45.7143 17.039 45.7143C16.121 45.7143 15.3767 46.4585 15.3767 47.3766ZM17.039 55.6884C16.121 55.6884 15.3767 54.9442 15.3767 54.0261C15.3767 53.108 16.121 52.3637 17.039 52.3637C17.9571 52.3637 18.7014 53.108 18.7014 54.0261C18.7014 54.9442 17.9571 55.6884 17.039 55.6884Z" fill="white"/>
</svg>
