<svg width="64" height="64" viewBox="0 0 64 64" fill="none" xmlns="http://www.w3.org/2000/svg">
<g clip-path="url(#clip0_1967:19275)">
<path fill-rule="evenodd" clip-rule="evenodd" d="M61.6 5.28699H12.5218V58.713H54.4C59.7019 58.713 64 54.4149 64 49.113V7.68699C64 6.3615 62.9255 5.28699 61.6 5.28699ZM40.626 23.6523C41.5481 23.6523 42.2956 22.9048 42.2956 21.9827C42.2956 21.0607 41.5481 20.3132 40.626 20.3132C39.7039 20.3132 38.9564 21.0607 38.9564 21.9827C38.9564 22.9048 39.7039 23.6523 40.626 23.6523ZM35.6171 21.9827C35.6171 22.9048 34.8697 23.6523 33.9476 23.6523C33.0255 23.6523 32.278 22.9048 32.278 21.9827C32.278 21.0607 33.0255 20.3132 33.9476 20.3132C34.8697 20.3132 35.6171 21.0607 35.6171 21.9827ZM27.2695 23.6523C28.1915 23.6523 28.939 22.9048 28.939 21.9827C28.939 21.0607 28.1915 20.3132 27.2695 20.3132C26.3474 20.3132 25.5999 21.0607 25.5999 21.9827C25.5999 22.9048 26.3474 23.6523 27.2695 23.6523ZM22.2608 21.9827C22.2608 22.9048 21.5133 23.6523 20.5912 23.6523C19.6691 23.6523 18.9216 22.9048 18.9216 21.9827C18.9216 21.0607 19.6691 20.3132 20.5912 20.3132C21.5133 20.3132 22.2608 21.0607 22.2608 21.9827ZM47.3038 23.6523C48.2259 23.6523 48.9734 22.9048 48.9734 21.9827C48.9734 21.0607 48.2259 20.3132 47.3038 20.3132C46.3817 20.3132 45.6343 21.0607 45.6343 21.9827C45.6343 22.9048 46.3817 23.6523 47.3038 23.6523ZM55.6521 21.9827C55.6521 22.9048 54.9046 23.6523 53.9826 23.6523C53.0605 23.6523 52.313 22.9048 52.313 21.9827C52.313 21.0607 53.0605 20.3132 53.9826 20.3132C54.9046 20.3132 55.6521 21.0607 55.6521 21.9827ZM40.626 30.3307C41.5481 30.3307 42.2956 29.5832 42.2956 28.6612C42.2956 27.7391 41.5481 26.9916 40.626 26.9916C39.7039 26.9916 38.9564 27.7391 38.9564 28.6612C38.9564 29.5832 39.7039 30.3307 40.626 30.3307ZM35.6171 28.6612C35.6171 29.5832 34.8697 30.3307 33.9476 30.3307C33.0255 30.3307 32.278 29.5832 32.278 28.6612C32.278 27.7391 33.0255 26.9916 33.9476 26.9916C34.8697 26.9916 35.6171 27.7391 35.6171 28.6612ZM27.2695 30.3307C28.1915 30.3307 28.939 29.5832 28.939 28.6612C28.939 27.7391 28.1915 26.9916 27.2695 26.9916C26.3474 26.9916 25.5999 27.7391 25.5999 28.6612C25.5999 29.5832 26.3474 30.3307 27.2695 30.3307ZM22.2608 28.6612C22.2608 29.5832 21.5133 30.3307 20.5912 30.3307C19.6691 30.3307 18.9216 29.5832 18.9216 28.6612C18.9216 27.7391 19.6691 26.9916 20.5912 26.9916C21.5133 26.9916 22.2608 27.7391 22.2608 28.6612ZM47.3038 30.3307C48.2259 30.3307 48.9734 29.5832 48.9734 28.6612C48.9734 27.7391 48.2259 26.9916 47.3038 26.9916C46.3817 26.9916 45.6343 27.7391 45.6343 28.6612C45.6343 29.5832 46.3817 30.3307 47.3038 30.3307ZM55.6521 28.6612C55.6521 29.5832 54.9046 30.3307 53.9826 30.3307C53.0605 30.3307 52.313 29.5832 52.313 28.6612C52.313 27.7391 53.0605 26.9916 53.9826 26.9916C54.9046 26.9916 55.6521 27.7391 55.6521 28.6612ZM40.626 37.0087C41.5481 37.0087 42.2956 36.2612 42.2956 35.3391C42.2956 34.417 41.5481 33.6695 40.626 33.6695C39.7039 33.6695 38.9564 34.417 38.9564 35.3391C38.9564 36.2612 39.7039 37.0087 40.626 37.0087ZM35.6171 35.3391C35.6171 36.2612 34.8697 37.0087 33.9476 37.0087C33.0255 37.0087 32.278 36.2612 32.278 35.3391C32.278 34.417 33.0255 33.6695 33.9476 33.6695C34.8697 33.6695 35.6171 34.417 35.6171 35.3391ZM27.2695 37.0087C28.1915 37.0087 28.939 36.2612 28.939 35.3391C28.939 34.417 28.1915 33.6695 27.2695 33.6695C26.3474 33.6695 25.5999 34.417 25.5999 35.3391C25.5999 36.2612 26.3474 37.0087 27.2695 37.0087ZM22.2608 35.3391C22.2608 36.2612 21.5133 37.0087 20.5912 37.0087C19.6691 37.0087 18.9216 36.2612 18.9216 35.3391C18.9216 34.417 19.6691 33.6695 20.5912 33.6695C21.5133 33.6695 22.2608 34.417 22.2608 35.3391ZM40.626 43.6869C41.5481 43.6869 42.2956 42.9395 42.2956 42.0174C42.2956 41.0953 41.5481 40.3478 40.626 40.3478C39.7039 40.3478 38.9564 41.0953 38.9564 42.0174C38.9564 42.9395 39.7039 43.6869 40.626 43.6869ZM35.6171 42.0174C35.6171 42.9395 34.8697 43.6869 33.9476 43.6869C33.0255 43.6869 32.278 42.9395 32.278 42.0174C32.278 41.0953 33.0255 40.3478 33.9476 40.3478C34.8697 40.3478 35.6171 41.0953 35.6171 42.0174ZM27.2695 43.6869C28.1915 43.6869 28.939 42.9395 28.939 42.0174C28.939 41.0953 28.1915 40.3478 27.2695 40.3478C26.3474 40.3478 25.5999 41.0953 25.5999 42.0174C25.5999 42.9395 26.3474 43.6869 27.2695 43.6869ZM22.2608 42.0174C22.2608 42.9395 21.5133 43.6869 20.5912 43.6869C19.6691 43.6869 18.9216 42.9395 18.9216 42.0174C18.9216 41.0953 19.6691 40.3478 20.5912 40.3478C21.5133 40.3478 22.2608 41.0953 22.2608 42.0174ZM40.626 50.3654C41.5481 50.3654 42.2956 49.6179 42.2956 48.6958C42.2956 47.7737 41.5481 47.0262 40.626 47.0262C39.7039 47.0262 38.9564 47.7737 38.9564 48.6958C38.9564 49.6179 39.7039 50.3654 40.626 50.3654ZM35.6171 48.6958C35.6171 49.6179 34.8697 50.3654 33.9476 50.3654C33.0255 50.3654 32.278 49.6179 32.278 48.6958C32.278 47.7737 33.0255 47.0262 33.9476 47.0262C34.8697 47.0262 35.6171 47.7737 35.6171 48.6958ZM27.2695 50.3654C28.1915 50.3654 28.939 49.6179 28.939 48.6958C28.939 47.7737 28.1915 47.0262 27.2695 47.0262C26.3474 47.0262 25.5999 47.7737 25.5999 48.6958C25.5999 49.6179 26.3474 50.3654 27.2695 50.3654ZM22.2608 48.6958C22.2608 49.6179 21.5133 50.3654 20.5912 50.3654C19.6691 50.3654 18.9216 49.6179 18.9216 48.6958C18.9216 47.7737 19.6691 47.0262 20.5912 47.0262C21.5133 47.0262 22.2608 47.7737 22.2608 48.6958ZM47.3038 37.0087C48.2259 37.0087 48.9734 36.2612 48.9734 35.3391C48.9734 34.417 48.2259 33.6695 47.3038 33.6695C46.3817 33.6695 45.6343 34.417 45.6343 35.3391C45.6343 36.2612 46.3817 37.0087 47.3038 37.0087ZM48.9734 42.0174C48.9734 42.9395 48.2259 43.6869 47.3038 43.6869C46.3817 43.6869 45.6343 42.9395 45.6343 42.0174C45.6343 41.0953 46.3817 40.3478 47.3038 40.3478C48.2259 40.3478 48.9734 41.0953 48.9734 42.0174ZM47.3038 50.3654C48.2259 50.3654 48.9734 49.6179 48.9734 48.6958C48.9734 47.7737 48.2259 47.0262 47.3038 47.0262C46.3817 47.0262 45.6343 47.7737 45.6343 48.6958C45.6343 49.6179 46.3817 50.3654 47.3038 50.3654ZM55.6521 35.3391C55.6521 36.2612 54.9046 37.0087 53.9826 37.0087C53.0605 37.0087 52.313 36.2612 52.313 35.3391C52.313 34.417 53.0605 33.6695 53.9826 33.6695C54.9046 33.6695 55.6521 34.417 55.6521 35.3391ZM53.9826 43.6869C54.9046 43.6869 55.6521 42.9395 55.6521 42.0174C55.6521 41.0953 54.9046 40.3478 53.9826 40.3478C53.0605 40.3478 52.313 41.0953 52.313 42.0174C52.313 42.9395 53.0605 43.6869 53.9826 43.6869ZM55.6521 48.6958C55.6521 49.6179 54.9046 50.3654 53.9826 50.3654C53.0605 50.3654 52.313 49.6179 52.313 48.6958C52.313 47.7737 53.0605 47.0262 53.9826 47.0262C54.9046 47.0262 55.6521 47.7737 55.6521 48.6958ZM-0.00012207 31.9998L9.73899 40.3476V23.652L-0.00012207 31.9998Z" fill="white"/>
</g>
<defs>
<clipPath id="clip0_1967:19275">
<rect width="64" height="64" fill="white"/>
</clipPath>
</defs>
</svg>
