<svg width="64" height="64" viewBox="0 0 64 64" fill="none" xmlns="http://www.w3.org/2000/svg">
<g clip-path="url(#clip0_1967:19345)">
<path fill-rule="evenodd" clip-rule="evenodd" d="M32.1781 0L24.0425 9.49153H40.3137L32.1781 0ZM54.1848 11.9322H6.41528V64.0001H46.9848C52.2867 64.0001 56.5848 59.702 56.5848 54.4001V14.3322C56.5848 13.0067 55.5103 11.9322 54.1848 11.9322ZM33.805 29.8306C34.7037 29.8306 35.4322 29.1021 35.4322 28.2035C35.4322 27.3049 34.7037 26.5764 33.805 26.5764C32.9064 26.5764 32.1779 27.3049 32.1779 28.2035C32.1779 29.1021 32.9064 29.8306 33.805 29.8306ZM28.9237 28.2035C28.9237 29.1021 28.1953 29.8306 27.2966 29.8306C26.398 29.8306 25.6695 29.1021 25.6695 28.2035C25.6695 27.3049 26.398 26.5764 27.2966 26.5764C28.1953 26.5764 28.9237 27.3049 28.9237 28.2035ZM20.788 29.8306C21.6866 29.8306 22.4151 29.1021 22.4151 28.2035C22.4151 27.3049 21.6866 26.5764 20.788 26.5764C19.8893 26.5764 19.1609 27.3049 19.1609 28.2035C19.1609 29.1021 19.8893 29.8306 20.788 29.8306ZM15.9067 28.2035C15.9067 29.1021 15.1782 29.8306 14.2796 29.8306C13.3809 29.8306 12.6524 29.1021 12.6524 28.2035C12.6524 27.3049 13.3809 26.5764 14.2796 26.5764C15.1782 26.5764 15.9067 27.3049 15.9067 28.2035ZM40.3132 29.8306C41.2118 29.8306 41.9403 29.1021 41.9403 28.2035C41.9403 27.3049 41.2118 26.5764 40.3132 26.5764C39.4146 26.5764 38.6861 27.3049 38.6861 28.2035C38.6861 29.1021 39.4146 29.8306 40.3132 29.8306ZM48.4493 28.2035C48.4493 29.1021 47.7209 29.8306 46.8222 29.8306C45.9236 29.8306 45.1951 29.1021 45.1951 28.2035C45.1951 27.3049 45.9236 26.5764 46.8222 26.5764C47.7209 26.5764 48.4493 27.3049 48.4493 28.2035ZM33.805 36.3391C34.7037 36.3391 35.4322 35.6107 35.4322 34.712C35.4322 33.8134 34.7037 33.0849 33.805 33.0849C32.9064 33.0849 32.1779 33.8134 32.1779 34.712C32.1779 35.6107 32.9064 36.3391 33.805 36.3391ZM28.9237 34.712C28.9237 35.6107 28.1953 36.3391 27.2966 36.3391C26.398 36.3391 25.6695 35.6107 25.6695 34.712C25.6695 33.8134 26.398 33.0849 27.2966 33.0849C28.1953 33.0849 28.9237 33.8134 28.9237 34.712ZM20.788 36.3391C21.6866 36.3391 22.4151 35.6107 22.4151 34.712C22.4151 33.8134 21.6866 33.0849 20.788 33.0849C19.8893 33.0849 19.1609 33.8134 19.1609 34.712C19.1609 35.6107 19.8893 36.3391 20.788 36.3391ZM15.9067 34.712C15.9067 35.6107 15.1782 36.3391 14.2796 36.3391C13.3809 36.3391 12.6524 35.6107 12.6524 34.712C12.6524 33.8134 13.3809 33.0849 14.2796 33.0849C15.1782 33.0849 15.9067 33.8134 15.9067 34.712ZM40.3132 36.3391C41.2118 36.3391 41.9403 35.6107 41.9403 34.712C41.9403 33.8134 41.2118 33.0849 40.3132 33.0849C39.4146 33.0849 38.6861 33.8134 38.6861 34.712C38.6861 35.6107 39.4146 36.3391 40.3132 36.3391ZM48.4493 34.712C48.4493 35.6107 47.7209 36.3391 46.8222 36.3391C45.9236 36.3391 45.1951 35.6107 45.1951 34.712C45.1951 33.8134 45.9236 33.0849 46.8222 33.0849C47.7209 33.0849 48.4493 33.8134 48.4493 34.712ZM33.805 42.8476C34.7037 42.8476 35.4322 42.1191 35.4322 41.2204C35.4322 40.3218 34.7037 39.5933 33.805 39.5933C32.9064 39.5933 32.1779 40.3218 32.1779 41.2204C32.1779 42.1191 32.9064 42.8476 33.805 42.8476ZM28.9237 41.2204C28.9237 42.1191 28.1953 42.8476 27.2966 42.8476C26.398 42.8476 25.6695 42.1191 25.6695 41.2204C25.6695 40.3218 26.398 39.5933 27.2966 39.5933C28.1953 39.5933 28.9237 40.3218 28.9237 41.2204ZM20.788 42.8476C21.6866 42.8476 22.4151 42.1191 22.4151 41.2204C22.4151 40.3218 21.6866 39.5933 20.788 39.5933C19.8893 39.5933 19.1609 40.3218 19.1609 41.2204C19.1609 42.1191 19.8893 42.8476 20.788 42.8476ZM15.9067 41.2204C15.9067 42.1191 15.1782 42.8476 14.2796 42.8476C13.3809 42.8476 12.6524 42.1191 12.6524 41.2204C12.6524 40.3218 13.3809 39.5933 14.2796 39.5933C15.1782 39.5933 15.9067 40.3218 15.9067 41.2204ZM33.805 49.356C34.7037 49.356 35.4322 48.6275 35.4322 47.7288C35.4322 46.8302 34.7037 46.1017 33.805 46.1017C32.9064 46.1017 32.1779 46.8302 32.1779 47.7288C32.1779 48.6275 32.9064 49.356 33.805 49.356ZM28.9237 47.7288C28.9237 48.6275 28.1953 49.356 27.2966 49.356C26.398 49.356 25.6695 48.6275 25.6695 47.7288C25.6695 46.8302 26.398 46.1017 27.2966 46.1017C28.1953 46.1017 28.9237 46.8302 28.9237 47.7288ZM20.788 49.356C21.6866 49.356 22.4151 48.6275 22.4151 47.7288C22.4151 46.8302 21.6866 46.1017 20.788 46.1017C19.8893 46.1017 19.1609 46.8302 19.1609 47.7288C19.1609 48.6275 19.8893 49.356 20.788 49.356ZM15.9067 47.7288C15.9067 48.6275 15.1782 49.356 14.2796 49.356C13.3809 49.356 12.6524 48.6275 12.6524 47.7288C12.6524 46.8302 13.3809 46.1017 14.2796 46.1017C15.1782 46.1017 15.9067 46.8302 15.9067 47.7288ZM33.805 55.8644C34.7037 55.8644 35.4322 55.1359 35.4322 54.2373C35.4322 53.3386 34.7037 52.6101 33.805 52.6101C32.9064 52.6101 32.1779 53.3386 32.1779 54.2373C32.1779 55.1359 32.9064 55.8644 33.805 55.8644ZM28.9237 54.2373C28.9237 55.1359 28.1953 55.8644 27.2966 55.8644C26.398 55.8644 25.6695 55.1359 25.6695 54.2373C25.6695 53.3386 26.398 52.6101 27.2966 52.6101C28.1953 52.6101 28.9237 53.3386 28.9237 54.2373ZM20.788 55.8644C21.6866 55.8644 22.4151 55.1359 22.4151 54.2373C22.4151 53.3386 21.6866 52.6101 20.788 52.6101C19.8893 52.6101 19.1609 53.3386 19.1609 54.2373C19.1609 55.1359 19.8893 55.8644 20.788 55.8644ZM15.9067 54.2373C15.9067 55.1359 15.1782 55.8644 14.2796 55.8644C13.3809 55.8644 12.6524 55.1359 12.6524 54.2373C12.6524 53.3386 13.3809 52.6101 14.2796 52.6101C15.1782 52.6101 15.9067 53.3386 15.9067 54.2373ZM40.3132 42.8476C41.2118 42.8476 41.9403 42.1191 41.9403 41.2204C41.9403 40.3218 41.2118 39.5933 40.3132 39.5933C39.4146 39.5933 38.6861 40.3218 38.6861 41.2204C38.6861 42.1191 39.4146 42.8476 40.3132 42.8476ZM41.9403 47.7288C41.9403 48.6275 41.2118 49.356 40.3132 49.356C39.4146 49.356 38.6861 48.6275 38.6861 47.7288C38.6861 46.8302 39.4146 46.1017 40.3132 46.1017C41.2118 46.1017 41.9403 46.8302 41.9403 47.7288ZM40.3132 55.8644C41.2118 55.8644 41.9403 55.1359 41.9403 54.2373C41.9403 53.3386 41.2118 52.6101 40.3132 52.6101C39.4146 52.6101 38.6861 53.3386 38.6861 54.2373C38.6861 55.1359 39.4146 55.8644 40.3132 55.8644ZM48.4493 41.2204C48.4493 42.1191 47.7209 42.8476 46.8222 42.8476C45.9236 42.8476 45.1951 42.1191 45.1951 41.2204C45.1951 40.3218 45.9236 39.5933 46.8222 39.5933C47.7209 39.5933 48.4493 40.3218 48.4493 41.2204ZM46.8222 49.356C47.7209 49.356 48.4493 48.6275 48.4493 47.7288C48.4493 46.8302 47.7209 46.1017 46.8222 46.1017C45.9236 46.1017 45.1951 46.8302 45.1951 47.7288C45.1951 48.6275 45.9236 49.356 46.8222 49.356ZM48.4493 54.2373C48.4493 55.1359 47.7209 55.8644 46.8222 55.8644C45.9236 55.8644 45.1951 55.1359 45.1951 54.2373C45.1951 53.3386 45.9236 52.6101 46.8222 52.6101C47.7209 52.6101 48.4493 53.3386 48.4493 54.2373Z" fill="white"/>
</g>
<defs>
<clipPath id="clip0_1967:19345">
<rect width="64" height="64" fill="white"/>
</clipPath>
</defs>
</svg>
