<svg width="32" height="32" viewBox="0 0 32 32" fill="none" xmlns="http://www.w3.org/2000/svg">
<g clip-path="url(#clip0_1967_19450)">
<path fill-rule="evenodd" clip-rule="evenodd" d="M1.2 3H25.1915V29.1447H4.8C2.14903 29.1447 0 26.9956 0 24.3447V4.2C0 3.53726 0.537258 3 1.2 3ZM11.187 11.8261C10.7259 11.8261 10.3522 11.4524 10.3522 10.9913C10.3522 10.5303 10.7259 10.1566 11.187 10.1566C11.648 10.1566 12.0217 10.5303 12.0217 10.9913C12.0217 11.4524 11.648 11.8261 11.187 11.8261ZM13.6914 10.9913C13.6914 11.4524 14.0651 11.8261 14.5262 11.8261C14.9872 11.8261 15.3609 11.4524 15.3609 10.9913C15.3609 10.5303 14.9872 10.1566 14.5262 10.1566C14.0651 10.1566 13.6914 10.5303 13.6914 10.9913ZM17.8653 11.8261C17.4043 11.8261 17.0305 11.4524 17.0305 10.9913C17.0305 10.5303 17.4043 10.1566 17.8653 10.1566C18.3264 10.1566 18.7001 10.5303 18.7001 10.9913C18.7001 11.4524 18.3264 11.8261 17.8653 11.8261ZM20.3696 10.9913C20.3696 11.4524 20.7434 11.8261 21.2044 11.8261C21.6654 11.8261 22.0392 11.4524 22.0392 10.9913C22.0392 10.5303 21.6654 10.1566 21.2044 10.1566C20.7434 10.1566 20.3696 10.5303 20.3696 10.9913ZM7.84797 11.8261C7.38693 11.8261 7.01318 11.4524 7.01318 10.9913C7.01318 10.5303 7.38693 10.1566 7.84797 10.1566C8.30901 10.1566 8.68275 10.5303 8.68275 10.9913C8.68275 11.4524 8.30901 11.8261 7.84797 11.8261ZM3.67389 10.9913C3.67389 11.4524 4.04763 11.8261 4.50867 11.8261C4.96971 11.8261 5.34345 11.4524 5.34345 10.9913C5.34345 10.5303 4.96971 10.1566 4.50867 10.1566C4.04763 10.1566 3.67389 10.5303 3.67389 10.9913ZM11.187 15.1653C10.7259 15.1653 10.3522 14.7916 10.3522 14.3305C10.3522 13.8695 10.7259 13.4958 11.187 13.4958C11.648 13.4958 12.0217 13.8695 12.0217 14.3305C12.0217 14.7916 11.648 15.1653 11.187 15.1653ZM13.6914 14.3305C13.6914 14.7916 14.0651 15.1653 14.5262 15.1653C14.9872 15.1653 15.3609 14.7916 15.3609 14.3305C15.3609 13.8695 14.9872 13.4958 14.5262 13.4958C14.0651 13.4958 13.6914 13.8695 13.6914 14.3305ZM17.8653 15.1653C17.4043 15.1653 17.0305 14.7916 17.0305 14.3305C17.0305 13.8695 17.4043 13.4958 17.8653 13.4958C18.3264 13.4958 18.7001 13.8695 18.7001 14.3305C18.7001 14.7916 18.3264 15.1653 17.8653 15.1653ZM20.3696 14.3305C20.3696 14.7916 20.7434 15.1653 21.2044 15.1653C21.6654 15.1653 22.0392 14.7916 22.0392 14.3305C22.0392 13.8695 21.6654 13.4958 21.2044 13.4958C20.7434 13.4958 20.3696 13.8695 20.3696 14.3305ZM7.84797 15.1653C7.38693 15.1653 7.01318 14.7916 7.01318 14.3305C7.01318 13.8695 7.38693 13.4958 7.84797 13.4958C8.30901 13.4958 8.68275 13.8695 8.68275 14.3305C8.68275 14.7916 8.30901 15.1653 7.84797 15.1653ZM3.67389 14.3305C3.67389 14.7916 4.04763 15.1653 4.50867 15.1653C4.96971 15.1653 5.34345 14.7916 5.34345 14.3305C5.34345 13.8695 4.96971 13.4958 4.50867 13.4958C4.04763 13.4958 3.67389 13.8695 3.67389 14.3305ZM11.187 18.5044C10.7259 18.5044 10.3522 18.1307 10.3522 17.6696C10.3522 17.2086 10.7259 16.8348 11.187 16.8348C11.648 16.8348 12.0217 17.2086 12.0217 17.6696C12.0217 18.1307 11.648 18.5044 11.187 18.5044ZM13.6914 17.6696C13.6914 18.1307 14.0651 18.5044 14.5262 18.5044C14.9872 18.5044 15.3609 18.1307 15.3609 17.6696C15.3609 17.2086 14.9872 16.8348 14.5262 16.8348C14.0651 16.8348 13.6914 17.2086 13.6914 17.6696ZM17.8653 18.5044C17.4043 18.5044 17.0305 18.1307 17.0305 17.6696C17.0305 17.2086 17.4043 16.8348 17.8653 16.8348C18.3264 16.8348 18.7001 17.2086 18.7001 17.6696C18.7001 18.1307 18.3264 18.5044 17.8653 18.5044ZM20.3696 17.6696C20.3696 18.1307 20.7434 18.5044 21.2044 18.5044C21.6654 18.5044 22.0392 18.1307 22.0392 17.6696C22.0392 17.2086 21.6654 16.8348 21.2044 16.8348C20.7434 16.8348 20.3696 17.2086 20.3696 17.6696ZM11.187 21.8435C10.7259 21.8435 10.3522 21.4697 10.3522 21.0087C10.3522 20.5477 10.7259 20.1739 11.187 20.1739C11.648 20.1739 12.0217 20.5477 12.0217 21.0087C12.0217 21.4697 11.648 21.8435 11.187 21.8435ZM13.6914 21.0087C13.6914 21.4697 14.0651 21.8435 14.5262 21.8435C14.9872 21.8435 15.3609 21.4697 15.3609 21.0087C15.3609 20.5477 14.9872 20.1739 14.5262 20.1739C14.0651 20.1739 13.6914 20.5477 13.6914 21.0087ZM17.8653 21.8435C17.4043 21.8435 17.0305 21.4697 17.0305 21.0087C17.0305 20.5477 17.4043 20.1739 17.8653 20.1739C18.3264 20.1739 18.7001 20.5477 18.7001 21.0087C18.7001 21.4697 18.3264 21.8435 17.8653 21.8435ZM20.3696 21.0087C20.3696 21.4697 20.7434 21.8435 21.2044 21.8435C21.6654 21.8435 22.0392 21.4697 22.0392 21.0087C22.0392 20.5477 21.6654 20.1739 21.2044 20.1739C20.7434 20.1739 20.3696 20.5477 20.3696 21.0087ZM11.187 25.1826C10.7259 25.1826 10.3522 24.8088 10.3522 24.3478C10.3522 23.8868 10.7259 23.513 11.187 23.513C11.648 23.513 12.0217 23.8868 12.0217 24.3478C12.0217 24.8088 11.648 25.1826 11.187 25.1826ZM13.6914 24.3478C13.6914 24.8088 14.0651 25.1826 14.5262 25.1826C14.9872 25.1826 15.3609 24.8088 15.3609 24.3478C15.3609 23.8868 14.9872 23.513 14.5262 23.513C14.0651 23.513 13.6914 23.8868 13.6914 24.3478ZM17.8653 25.1826C17.4043 25.1826 17.0305 24.8088 17.0305 24.3478C17.0305 23.8868 17.4043 23.513 17.8653 23.513C18.3264 23.513 18.7001 23.8868 18.7001 24.3478C18.7001 24.8088 18.3264 25.1826 17.8653 25.1826ZM20.3696 24.3478C20.3696 24.8088 20.7434 25.1826 21.2044 25.1826C21.6654 25.1826 22.0392 24.8088 22.0392 24.3478C22.0392 23.8868 21.6654 23.513 21.2044 23.513C20.7434 23.513 20.3696 23.8868 20.3696 24.3478ZM7.84797 18.5044C7.38693 18.5044 7.01318 18.1307 7.01318 17.6696C7.01318 17.2086 7.38693 16.8348 7.84797 16.8348C8.30901 16.8348 8.68275 17.2086 8.68275 17.6696C8.68275 18.1307 8.30901 18.5044 7.84797 18.5044ZM7.01318 21.0087C7.01318 21.4697 7.38693 21.8435 7.84797 21.8435C8.30901 21.8435 8.68275 21.4697 8.68275 21.0087C8.68275 20.5477 8.30901 20.1739 7.84797 20.1739C7.38693 20.1739 7.01318 20.5477 7.01318 21.0087ZM7.84797 25.1826C7.38693 25.1826 7.01318 24.8088 7.01318 24.3478C7.01318 23.8868 7.38693 23.513 7.84797 23.513C8.30901 23.513 8.68275 23.8868 8.68275 24.3478C8.68275 24.8088 8.30901 25.1826 7.84797 25.1826ZM3.67389 17.6696C3.67389 18.1307 4.04763 18.5044 4.50867 18.5044C4.96971 18.5044 5.34345 18.1307 5.34345 17.6696C5.34345 17.2086 4.96971 16.8348 4.50867 16.8348C4.04763 16.8348 3.67389 17.2086 3.67389 17.6696ZM4.50867 21.8435C4.04763 21.8435 3.67389 21.4697 3.67389 21.0087C3.67389 20.5477 4.04763 20.1739 4.50867 20.1739C4.96971 20.1739 5.34345 20.5477 5.34345 21.0087C5.34345 21.4697 4.96971 21.8435 4.50867 21.8435ZM3.67389 24.3478C3.67389 24.8088 4.04763 25.1826 4.50867 25.1826C4.96971 25.1826 5.34345 24.8088 5.34345 24.3478C5.34345 23.8868 4.96971 23.513 4.50867 23.513C4.04763 23.513 3.67389 23.8868 3.67389 24.3478ZM32.0001 16L27.1305 11.8261V20.1739L32.0001 16Z" fill="white"/>
</g>
<defs>
<clipPath id="clip0_1967_19450">
<rect width="32" height="32" fill="white"/>
</clipPath>
</defs>
</svg>
