<svg width="32" height="32" viewBox="0 0 32 32" fill="none" xmlns="http://www.w3.org/2000/svg">
<path fill-rule="evenodd" clip-rule="evenodd" d="M16 31C24.2843 31 31 24.2843 31 16V1H1V16C1 24.2843 7.71573 31 16 31ZM23.5 17.7212H19.7829L21.3455 16.4677C21.9926 15.9424 22.4701 15.4529 22.7779 14.9993C23.0936 14.5377 23.2514 14.0283 23.2514 13.4712C23.2514 12.6594 22.9476 12.0466 22.3399 11.6327C21.7322 11.2109 20.9312 11 19.9368 11C19.4001 11 18.8951 11.0716 18.4215 11.2149C17.9559 11.3581 17.5337 11.5531 17.1549 11.7999L17.8178 13.3279C18.0625 13.1767 18.3387 13.0574 18.6465 12.9698C18.9542 12.8743 19.266 12.8265 19.5817 12.8265C19.9999 12.8265 20.3432 12.9181 20.6115 13.1011C20.8878 13.2842 21.0259 13.5548 21.0259 13.9129C21.0259 14.1437 20.9706 14.3546 20.8601 14.5456C20.7576 14.7367 20.6116 14.9237 20.4221 15.1067C20.2327 15.2898 19.9526 15.5365 19.5817 15.8469L17.1904 17.8048V19.5H23.5V17.7212ZM13.2825 19.5H15.5554L13.6495 16.4319C14.1388 16.209 14.5176 15.8827 14.7859 15.4529C15.0621 15.0152 15.2003 14.474 15.2003 13.8294C15.2003 12.9778 14.9161 12.3172 14.3479 11.8476C13.7797 11.378 12.9037 11.1433 11.7199 11.1433H8.5V19.5H10.548V16.8497H11.5305H11.7081L13.2825 19.5ZM10.548 15.0829V12.9101H11.6252C12.1066 12.9101 12.4578 12.9977 12.6788 13.1728C12.8998 13.3399 13.0102 13.5946 13.0102 13.9368C13.0102 14.3109 12.8879 14.5974 12.6433 14.7963C12.4065 14.9874 12.079 15.0829 11.6607 15.0829H10.548Z" fill="white"/>
</svg>
