<svg width="64" height="64" viewBox="0 0 64 64" fill="none" xmlns="http://www.w3.org/2000/svg">
<path fill-rule="evenodd" clip-rule="evenodd" d="M8.91318 0H57.4866V54.3717H45.2871L50.1047 49.4062L41.9004 40.9502L37.8391 45.1361V32.8495H26.1604V45.1361L22.0991 40.9502L13.8947 49.4062L18.7124 54.3717H16.1132C10.8113 54.3717 6.51318 50.0736 6.51318 44.7717V2.4C6.51318 1.07452 7.5877 0 8.91318 0ZM22.0992 45.0171L22.0991 45.017L17.8404 49.4062L22.6581 54.3717H22.6583L31.9999 63.9999L46.1592 49.4062L41.9006 45.017L41.9005 45.0171L41.9004 45.017L35.0074 52.1214V35.6813L35.0072 35.6813H28.9922V36.2965C28.9923 36.2964 28.9924 36.2963 28.9924 36.2963V38.4647C28.9924 38.4646 28.9923 38.4645 28.9922 38.4644V43.0931C28.9923 43.093 28.9924 43.0929 28.9924 43.0928V45.2613C28.9924 45.2612 28.9923 45.2611 28.9922 45.261V52.1214L22.0993 45.017L22.0992 45.0171ZM50.69 32.2832C49.7516 32.2832 48.9909 31.5224 48.9909 30.584C48.9909 29.6456 49.7516 28.8849 50.69 28.8849C51.6284 28.8849 52.3891 29.6456 52.3891 30.584C52.3891 31.5224 51.6284 32.2832 50.69 32.2832ZM48.9909 23.7878C48.9909 24.7262 49.7516 25.4869 50.69 25.4869C51.6284 25.4869 52.3891 24.7262 52.3891 23.7878C52.3891 22.8494 51.6284 22.0886 50.69 22.0886C49.7516 22.0886 48.9909 22.8494 48.9909 23.7878ZM50.69 18.6903C49.7516 18.6903 48.9909 17.9296 48.9909 16.9912C48.9909 16.0528 49.7516 15.2921 50.69 15.2921C51.6284 15.2921 52.3891 16.0528 52.3891 16.9912C52.3891 17.9296 51.6284 18.6903 50.69 18.6903ZM48.9909 37.3805C48.9909 38.3189 49.7516 39.0796 50.69 39.0796C51.6284 39.0796 52.3891 38.3189 52.3891 37.3805C52.3891 36.4421 51.6284 35.6813 50.69 35.6813C49.7516 35.6813 48.9909 36.4421 48.9909 37.3805ZM43.8937 32.2832C42.9553 32.2832 42.1946 31.5224 42.1946 30.584C42.1946 29.6456 42.9553 28.8849 43.8937 28.8849C44.8321 28.8849 45.5929 29.6456 45.5929 30.584C45.5929 31.5224 44.8321 32.2832 43.8937 32.2832ZM42.1946 23.7878C42.1946 24.7262 42.9553 25.4869 43.8937 25.4869C44.8321 25.4869 45.5929 24.7262 45.5929 23.7878C45.5929 22.8494 44.8321 22.0886 43.8937 22.0886C42.9553 22.0886 42.1946 22.8494 42.1946 23.7878ZM43.8937 18.6903C42.9553 18.6903 42.1946 17.9296 42.1946 16.9912C42.1946 16.0528 42.9553 15.2921 43.8937 15.2921C44.8321 15.2921 45.5929 16.0528 45.5929 16.9912C45.5929 17.9296 44.8321 18.6903 43.8937 18.6903ZM35.3977 23.7878C35.3977 24.7262 36.1585 25.4869 37.0969 25.4869C38.0352 25.4869 38.796 24.7262 38.796 23.7878C38.796 22.8494 38.0352 22.0886 37.0969 22.0886C36.1585 22.0886 35.3977 22.8494 35.3977 23.7878ZM37.0969 18.6903C36.1585 18.6903 35.3977 17.9296 35.3977 16.9912C35.3977 16.0528 36.1585 15.2921 37.0969 15.2921C38.0352 15.2921 38.796 16.0528 38.796 16.9912C38.796 17.9296 38.0352 18.6903 37.0969 18.6903ZM28.6016 23.7878C28.6016 24.7262 29.3623 25.4869 30.3007 25.4869C31.2391 25.4869 31.9999 24.7262 31.9999 23.7878C31.9999 22.8494 31.2391 22.0886 30.3007 22.0886C29.3623 22.0886 28.6016 22.8494 28.6016 23.7878ZM30.3007 18.6903C29.3623 18.6903 28.6016 17.9296 28.6016 16.9912C28.6016 16.0528 29.3623 15.2921 30.3007 15.2921C31.2391 15.2921 31.9999 16.0528 31.9999 16.9912C31.9999 17.9296 31.2391 18.6903 30.3007 18.6903ZM21.8055 23.7878C21.8055 24.7262 22.5662 25.4869 23.5046 25.4869C24.443 25.4869 25.2037 24.7262 25.2037 23.7878C25.2037 22.8494 24.443 22.0886 23.5046 22.0886C22.5662 22.0886 21.8055 22.8494 21.8055 23.7878ZM23.5046 18.6903C22.5662 18.6903 21.8055 17.9296 21.8055 16.9912C21.8055 16.0528 22.5662 15.2921 23.5046 15.2921C24.443 15.2921 25.2037 16.0528 25.2037 16.9912C25.2037 17.9296 24.443 18.6903 23.5046 18.6903ZM15.0086 30.584C15.0086 31.5224 15.7693 32.2832 16.7077 32.2832C17.6461 32.2832 18.4068 31.5224 18.4068 30.584C18.4068 29.6456 17.6461 28.8849 16.7077 28.8849C15.7693 28.8849 15.0086 29.6456 15.0086 30.584ZM16.7077 25.4869C15.7693 25.4869 15.0086 24.7262 15.0086 23.7878C15.0086 22.8494 15.7693 22.0886 16.7077 22.0886C17.6461 22.0886 18.4068 22.8494 18.4068 23.7878C18.4068 24.7262 17.6461 25.4869 16.7077 25.4869ZM15.0086 16.9912C15.0086 17.9296 15.7693 18.6903 16.7077 18.6903C17.6461 18.6903 18.4068 17.9296 18.4068 16.9912C18.4068 16.0528 17.6461 15.2921 16.7077 15.2921C15.7693 15.2921 15.0086 16.0528 15.0086 16.9912ZM16.7077 39.0796C15.7693 39.0796 15.0086 38.3189 15.0086 37.3805C15.0086 36.4421 15.7693 35.6813 16.7077 35.6813C17.6461 35.6813 18.4068 36.4421 18.4068 37.3805C18.4068 38.3189 17.6461 39.0796 16.7077 39.0796Z" fill="white"/>
</svg>
