<svg width="64" height="64" viewBox="0 0 64 64" fill="none" xmlns="http://www.w3.org/2000/svg">
<path fill-rule="evenodd" clip-rule="evenodd" d="M25.6 11.5C11.4615 11.5 0 22.9615 0 37.1V51.5H64V37.1C64 22.9615 52.5385 11.5 38.4 11.5H25.6ZM28.3322 40.2999H32.633L29.0266 34.5431C29.9525 34.125 30.6693 33.5127 31.177 32.7063C31.6997 31.885 31.961 30.8695 31.961 29.6599C31.961 28.0621 31.4234 26.8226 30.3482 25.9415C29.273 25.0605 27.6154 24.6199 25.3754 24.6199H19.2826V40.2999H23.1578V35.3271H25.017H25.353L28.3322 40.2999ZM23.1578 32.0119V27.9351H25.1962C26.1072 27.9351 26.7717 28.0994 27.1898 28.4279C27.608 28.7415 27.817 29.2194 27.817 29.8615C27.817 30.5634 27.5856 31.101 27.1226 31.4743C26.6746 31.8327 26.0549 32.0119 25.2634 32.0119H23.1578ZM43.9476 36.9847V24.6199H40.946L35.6596 27.2407L36.8916 30.1303L40.0052 28.8983V36.9847H36.3764V40.2999H46.882V36.9847H43.9476Z" fill="white"/>
</svg>
