<svg width="32" height="32" viewBox="0 0 32 32" fill="none" xmlns="http://www.w3.org/2000/svg">
<g clip-path="url(#clip0_1967_19275)">
<path fill-rule="evenodd" clip-rule="evenodd" d="M29.6 2.64343H6.26093V29.3564H22.4C27.7019 29.3564 32 25.0584 32 19.7564V5.04343C32 3.71795 30.9255 2.64343 29.6 2.64343ZM20.313 11.8261C20.774 11.8261 21.1478 11.4524 21.1478 10.9913C21.1478 10.5303 20.774 10.1565 20.313 10.1565C19.852 10.1565 19.4782 10.5303 19.4782 10.9913C19.4782 11.4524 19.852 11.8261 20.313 11.8261ZM17.8086 10.9913C17.8086 11.4524 17.4349 11.8261 16.9738 11.8261C16.5128 11.8261 16.139 11.4524 16.139 10.9913C16.139 10.5303 16.5128 10.1565 16.9738 10.1565C17.4349 10.1565 17.8086 10.5303 17.8086 10.9913ZM13.6348 11.8261C14.0958 11.8261 14.4695 11.4524 14.4695 10.9913C14.4695 10.5303 14.0958 10.1565 13.6348 10.1565C13.1737 10.1565 12.8 10.5303 12.8 10.9913C12.8 11.4524 13.1737 11.8261 13.6348 11.8261ZM11.1304 10.9913C11.1304 11.4524 10.7567 11.8261 10.2957 11.8261C9.83462 11.8261 9.46087 11.4524 9.46087 10.9913C9.46087 10.5303 9.83462 10.1565 10.2957 10.1565C10.7567 10.1565 11.1304 10.5303 11.1304 10.9913ZM23.6519 11.8261C24.113 11.8261 24.4867 11.4524 24.4867 10.9913C24.4867 10.5303 24.113 10.1565 23.6519 10.1565C23.1909 10.1565 22.8172 10.5303 22.8172 10.9913C22.8172 11.4524 23.1909 11.8261 23.6519 11.8261ZM27.8261 10.9913C27.8261 11.4524 27.4524 11.8261 26.9913 11.8261C26.5303 11.8261 26.1565 11.4524 26.1565 10.9913C26.1565 10.5303 26.5303 10.1565 26.9913 10.1565C27.4524 10.1565 27.8261 10.5303 27.8261 10.9913ZM20.313 15.1653C20.774 15.1653 21.1478 14.7916 21.1478 14.3305C21.1478 13.8695 20.774 13.4957 20.313 13.4957C19.852 13.4957 19.4782 13.8695 19.4782 14.3305C19.4782 14.7916 19.852 15.1653 20.313 15.1653ZM17.8086 14.3305C17.8086 14.7916 17.4349 15.1653 16.9738 15.1653C16.5128 15.1653 16.139 14.7916 16.139 14.3305C16.139 13.8695 16.5128 13.4957 16.9738 13.4957C17.4349 13.4957 17.8086 13.8695 17.8086 14.3305ZM13.6348 15.1653C14.0958 15.1653 14.4695 14.7916 14.4695 14.3305C14.4695 13.8695 14.0958 13.4957 13.6348 13.4957C13.1737 13.4957 12.8 13.8695 12.8 14.3305C12.8 14.7916 13.1737 15.1653 13.6348 15.1653ZM11.1304 14.3305C11.1304 14.7916 10.7567 15.1653 10.2957 15.1653C9.83462 15.1653 9.46087 14.7916 9.46087 14.3305C9.46087 13.8695 9.83462 13.4957 10.2957 13.4957C10.7567 13.4957 11.1304 13.8695 11.1304 14.3305ZM23.6519 15.1653C24.113 15.1653 24.4867 14.7916 24.4867 14.3305C24.4867 13.8695 24.113 13.4957 23.6519 13.4957C23.1909 13.4957 22.8172 13.8695 22.8172 14.3305C22.8172 14.7916 23.1909 15.1653 23.6519 15.1653ZM27.8261 14.3305C27.8261 14.7916 27.4524 15.1653 26.9913 15.1653C26.5303 15.1653 26.1565 14.7916 26.1565 14.3305C26.1565 13.8695 26.5303 13.4957 26.9913 13.4957C27.4524 13.4957 27.8261 13.8695 27.8261 14.3305ZM20.313 18.5043C20.774 18.5043 21.1478 18.1305 21.1478 17.6695C21.1478 17.2085 20.774 16.8347 20.313 16.8347C19.852 16.8347 19.4782 17.2085 19.4782 17.6695C19.4782 18.1305 19.852 18.5043 20.313 18.5043ZM17.8086 17.6695C17.8086 18.1305 17.4349 18.5043 16.9738 18.5043C16.5128 18.5043 16.139 18.1305 16.139 17.6695C16.139 17.2085 16.5128 16.8347 16.9738 16.8347C17.4349 16.8347 17.8086 17.2085 17.8086 17.6695ZM13.6348 18.5043C14.0958 18.5043 14.4695 18.1305 14.4695 17.6695C14.4695 17.2085 14.0958 16.8347 13.6348 16.8347C13.1737 16.8347 12.8 17.2085 12.8 17.6695C12.8 18.1305 13.1737 18.5043 13.6348 18.5043ZM11.1304 17.6695C11.1304 18.1305 10.7567 18.5043 10.2957 18.5043C9.83462 18.5043 9.46087 18.1305 9.46087 17.6695C9.46087 17.2085 9.83462 16.8347 10.2957 16.8347C10.7567 16.8347 11.1304 17.2085 11.1304 17.6695ZM20.313 21.8434C20.774 21.8434 21.1478 21.4697 21.1478 21.0086C21.1478 20.5476 20.774 20.1739 20.313 20.1739C19.852 20.1739 19.4782 20.5476 19.4782 21.0086C19.4782 21.4697 19.852 21.8434 20.313 21.8434ZM17.8086 21.0086C17.8086 21.4697 17.4349 21.8434 16.9738 21.8434C16.5128 21.8434 16.139 21.4697 16.139 21.0086C16.139 20.5476 16.5128 20.1739 16.9738 20.1739C17.4349 20.1739 17.8086 20.5476 17.8086 21.0086ZM13.6348 21.8434C14.0958 21.8434 14.4695 21.4697 14.4695 21.0086C14.4695 20.5476 14.0958 20.1739 13.6348 20.1739C13.1737 20.1739 12.8 20.5476 12.8 21.0086C12.8 21.4697 13.1737 21.8434 13.6348 21.8434ZM11.1304 21.0086C11.1304 21.4697 10.7567 21.8434 10.2957 21.8434C9.83462 21.8434 9.46087 21.4697 9.46087 21.0086C9.46087 20.5476 9.83462 20.1739 10.2957 20.1739C10.7567 20.1739 11.1304 20.5476 11.1304 21.0086ZM20.313 25.1826C20.774 25.1826 21.1478 24.8089 21.1478 24.3478C21.1478 23.8868 20.774 23.5131 20.313 23.5131C19.852 23.5131 19.4782 23.8868 19.4782 24.3478C19.4782 24.8089 19.852 25.1826 20.313 25.1826ZM17.8086 24.3478C17.8086 24.8089 17.4349 25.1826 16.9738 25.1826C16.5128 25.1826 16.139 24.8089 16.139 24.3478C16.139 23.8868 16.5128 23.5131 16.9738 23.5131C17.4349 23.5131 17.8086 23.8868 17.8086 24.3478ZM13.6348 25.1826C14.0958 25.1826 14.4695 24.8089 14.4695 24.3478C14.4695 23.8868 14.0958 23.5131 13.6348 23.5131C13.1737 23.5131 12.8 23.8868 12.8 24.3478C12.8 24.8089 13.1737 25.1826 13.6348 25.1826ZM11.1304 24.3478C11.1304 24.8089 10.7567 25.1826 10.2957 25.1826C9.83462 25.1826 9.46087 24.8089 9.46087 24.3478C9.46087 23.8868 9.83462 23.5131 10.2957 23.5131C10.7567 23.5131 11.1304 23.8868 11.1304 24.3478ZM23.6519 18.5043C24.113 18.5043 24.4867 18.1305 24.4867 17.6695C24.4867 17.2085 24.113 16.8347 23.6519 16.8347C23.1909 16.8347 22.8172 17.2085 22.8172 17.6695C22.8172 18.1305 23.1909 18.5043 23.6519 18.5043ZM24.4867 21.0086C24.4867 21.4697 24.113 21.8434 23.6519 21.8434C23.1909 21.8434 22.8172 21.4697 22.8172 21.0086C22.8172 20.5476 23.1909 20.1739 23.6519 20.1739C24.113 20.1739 24.4867 20.5476 24.4867 21.0086ZM23.6519 25.1826C24.113 25.1826 24.4867 24.8089 24.4867 24.3478C24.4867 23.8868 24.113 23.5131 23.6519 23.5131C23.1909 23.5131 22.8172 23.8868 22.8172 24.3478C22.8172 24.8089 23.1909 25.1826 23.6519 25.1826ZM27.8261 17.6695C27.8261 18.1305 27.4524 18.5043 26.9913 18.5043C26.5303 18.5043 26.1565 18.1305 26.1565 17.6695C26.1565 17.2085 26.5303 16.8347 26.9913 16.8347C27.4524 16.8347 27.8261 17.2085 27.8261 17.6695ZM26.9913 21.8434C27.4524 21.8434 27.8261 21.4697 27.8261 21.0086C27.8261 20.5476 27.4524 20.1739 26.9913 20.1739C26.5303 20.1739 26.1565 20.5476 26.1565 21.0086C26.1565 21.4697 26.5303 21.8434 26.9913 21.8434ZM27.8261 24.3478C27.8261 24.8089 27.4524 25.1826 26.9913 25.1826C26.5303 25.1826 26.1565 24.8089 26.1565 24.3478C26.1565 23.8868 26.5303 23.5131 26.9913 23.5131C27.4524 23.5131 27.8261 23.8868 27.8261 24.3478ZM0 16.1738L4.86956 20.3477V11.9999L0 16.1738Z" fill="white"/>
</g>
<defs>
<clipPath id="clip0_1967_19275">
<rect width="32" height="32" fill="white"/>
</clipPath>
</defs>
</svg>
