<svg width="32" height="32" viewBox="0 0 32 32" fill="none" xmlns="http://www.w3.org/2000/svg">
<g clip-path="url(#clip0_1967_19485)">
<path fill-rule="evenodd" clip-rule="evenodd" d="M26.8848 -0.5H3V25.5339H23.2848C25.9357 25.5339 28.0848 23.3849 28.0848 20.7339V0.7C28.0848 0.0372584 27.5475 -0.5 26.8848 -0.5ZM16.8786 8.76349C17.3186 8.76349 17.6753 8.4068 17.6753 7.96681C17.6753 7.52681 17.3186 7.17013 16.8786 7.17013C16.4386 7.17013 16.082 7.52681 16.082 7.96681C16.082 8.4068 16.4386 8.76349 16.8786 8.76349ZM14.4886 7.96681C14.4886 8.4068 14.1319 8.76349 13.6919 8.76349C13.2519 8.76349 12.8952 8.4068 12.8952 7.96681C12.8952 7.52681 13.2519 7.17013 13.6919 7.17013C14.1319 7.17013 14.4886 7.52681 14.4886 7.96681ZM10.5051 8.76349C10.9451 8.76349 11.3018 8.4068 11.3018 7.96681C11.3018 7.52681 10.9451 7.17013 10.5051 7.17013C10.0651 7.17013 9.70844 7.52681 9.70844 7.96681C9.70844 8.4068 10.0651 8.76349 10.5051 8.76349ZM8.11512 7.96681C8.11512 8.4068 7.75843 8.76349 7.31843 8.76349C6.87844 8.76349 6.52175 8.4068 6.52175 7.96681C6.52175 7.52681 6.87844 7.17013 7.31843 7.17013C7.75843 7.17013 8.11512 7.52681 8.11512 7.96681ZM20.0653 8.76349C20.5053 8.76349 20.8619 8.4068 20.8619 7.96681C20.8619 7.52681 20.5053 7.17013 20.0653 7.17013C19.6253 7.17013 19.2686 7.52681 19.2686 7.96681C19.2686 8.4068 19.6253 8.76349 20.0653 8.76349ZM24.0488 7.96681C24.0488 8.4068 23.6922 8.76349 23.2522 8.76349C22.8122 8.76349 22.4555 8.4068 22.4555 7.96681C22.4555 7.52681 22.8122 7.17013 23.2522 7.17013C23.6922 7.17013 24.0488 7.52681 24.0488 7.96681ZM16.8786 11.9503C17.3186 11.9503 17.6753 11.5936 17.6753 11.1536C17.6753 10.7136 17.3186 10.3569 16.8786 10.3569C16.4386 10.3569 16.082 10.7136 16.082 11.1536C16.082 11.5936 16.4386 11.9503 16.8786 11.9503ZM14.4886 11.1536C14.4886 11.5936 14.1319 11.9503 13.6919 11.9503C13.2519 11.9503 12.8952 11.5936 12.8952 11.1536C12.8952 10.7136 13.2519 10.3569 13.6919 10.3569C14.1319 10.3569 14.4886 10.7136 14.4886 11.1536ZM10.5051 11.9503C10.9451 11.9503 11.3018 11.5936 11.3018 11.1536C11.3018 10.7136 10.9451 10.3569 10.5051 10.3569C10.0651 10.3569 9.70844 10.7136 9.70844 11.1536C9.70844 11.5936 10.0651 11.9503 10.5051 11.9503ZM8.11512 11.1536C8.11512 11.5936 7.75843 11.9503 7.31843 11.9503C6.87844 11.9503 6.52175 11.5936 6.52175 11.1536C6.52175 10.7136 6.87844 10.3569 7.31843 10.3569C7.75843 10.3569 8.11512 10.7136 8.11512 11.1536ZM20.0653 11.9503C20.5053 11.9503 20.8619 11.5936 20.8619 11.1536C20.8619 10.7136 20.5053 10.3569 20.0653 10.3569C19.6253 10.3569 19.2686 10.7136 19.2686 11.1536C19.2686 11.5936 19.6253 11.9503 20.0653 11.9503ZM24.0488 11.1536C24.0488 11.5936 23.6922 11.9503 23.2522 11.9503C22.8122 11.9503 22.4555 11.5936 22.4555 11.1536C22.4555 10.7136 22.8122 10.3569 23.2522 10.3569C23.6922 10.3569 24.0488 10.7136 24.0488 11.1536ZM16.8786 15.137C17.3186 15.137 17.6753 14.7803 17.6753 14.3403C17.6753 13.9003 17.3186 13.5436 16.8786 13.5436C16.4386 13.5436 16.082 13.9003 16.082 14.3403C16.082 14.7803 16.4386 15.137 16.8786 15.137ZM14.4886 14.3403C14.4886 14.7803 14.1319 15.137 13.6919 15.137C13.2519 15.137 12.8952 14.7803 12.8952 14.3403C12.8952 13.9003 13.2519 13.5436 13.6919 13.5436C14.1319 13.5436 14.4886 13.9003 14.4886 14.3403ZM10.5051 15.137C10.9451 15.137 11.3018 14.7803 11.3018 14.3403C11.3018 13.9003 10.9451 13.5436 10.5051 13.5436C10.0651 13.5436 9.70844 13.9003 9.70844 14.3403C9.70844 14.7803 10.0651 15.137 10.5051 15.137ZM8.11512 14.3403C8.11512 14.7803 7.75843 15.137 7.31843 15.137C6.87844 15.137 6.52175 14.7803 6.52175 14.3403C6.52175 13.9003 6.87844 13.5436 7.31843 13.5436C7.75843 13.5436 8.11512 13.9003 8.11512 14.3403ZM16.8786 18.3236C17.3186 18.3236 17.6753 17.9669 17.6753 17.5269C17.6753 17.087 17.3186 16.7303 16.8786 16.7303C16.4386 16.7303 16.082 17.087 16.082 17.5269C16.082 17.9669 16.4386 18.3236 16.8786 18.3236ZM14.4886 17.5269C14.4886 17.9669 14.1319 18.3236 13.6919 18.3236C13.2519 18.3236 12.8952 17.9669 12.8952 17.5269C12.8952 17.087 13.2519 16.7303 13.6919 16.7303C14.1319 16.7303 14.4886 17.087 14.4886 17.5269ZM10.5051 18.3236C10.9451 18.3236 11.3018 17.9669 11.3018 17.5269C11.3018 17.087 10.9451 16.7303 10.5051 16.7303C10.0651 16.7303 9.70844 17.087 9.70844 17.5269C9.70844 17.9669 10.0651 18.3236 10.5051 18.3236ZM8.11512 17.5269C8.11512 17.9669 7.75843 18.3236 7.31843 18.3236C6.87844 18.3236 6.52175 17.9669 6.52175 17.5269C6.52175 17.087 6.87844 16.7303 7.31843 16.7303C7.75843 16.7303 8.11512 17.087 8.11512 17.5269ZM16.8786 21.5104C17.3186 21.5104 17.6753 21.1537 17.6753 20.7137C17.6753 20.2737 17.3186 19.917 16.8786 19.917C16.4386 19.917 16.082 20.2737 16.082 20.7137C16.082 21.1537 16.4386 21.5104 16.8786 21.5104ZM14.4886 20.7137C14.4886 21.1537 14.1319 21.5104 13.6919 21.5104C13.2519 21.5104 12.8952 21.1537 12.8952 20.7137C12.8952 20.2737 13.2519 19.917 13.6919 19.917C14.1319 19.917 14.4886 20.2737 14.4886 20.7137ZM10.5051 21.5104C10.9451 21.5104 11.3018 21.1537 11.3018 20.7137C11.3018 20.2737 10.9451 19.917 10.5051 19.917C10.0651 19.917 9.70844 20.2737 9.70844 20.7137C9.70844 21.1537 10.0651 21.5104 10.5051 21.5104ZM8.11512 20.7137C8.11512 21.1537 7.75843 21.5104 7.31843 21.5104C6.87844 21.5104 6.52175 21.1537 6.52175 20.7137C6.52175 20.2737 6.87844 19.917 7.31843 19.917C7.75843 19.917 8.11512 20.2737 8.11512 20.7137ZM20.0653 15.137C20.5053 15.137 20.8619 14.7803 20.8619 14.3403C20.8619 13.9003 20.5053 13.5436 20.0653 13.5436C19.6253 13.5436 19.2686 13.9003 19.2686 14.3403C19.2686 14.7803 19.6253 15.137 20.0653 15.137ZM20.8619 17.5269C20.8619 17.9669 20.5053 18.3236 20.0653 18.3236C19.6253 18.3236 19.2686 17.9669 19.2686 17.5269C19.2686 17.087 19.6253 16.7303 20.0653 16.7303C20.5053 16.7303 20.8619 17.087 20.8619 17.5269ZM20.0653 21.5104C20.5053 21.5104 20.8619 21.1537 20.8619 20.7137C20.8619 20.2737 20.5053 19.917 20.0653 19.917C19.6253 19.917 19.2686 20.2737 19.2686 20.7137C19.2686 21.1537 19.6253 21.5104 20.0653 21.5104ZM24.0488 14.3403C24.0488 14.7803 23.6922 15.137 23.2522 15.137C22.8122 15.137 22.4555 14.7803 22.4555 14.3403C22.4555 13.9003 22.8122 13.5436 23.2522 13.5436C23.6922 13.5436 24.0488 13.9003 24.0488 14.3403ZM23.2522 18.3236C23.6922 18.3236 24.0488 17.9669 24.0488 17.5269C24.0488 17.087 23.6922 16.7303 23.2522 16.7303C22.8122 16.7303 22.4555 17.087 22.4555 17.5269C22.4555 17.9669 22.8122 18.3236 23.2522 18.3236ZM24.0488 20.7137C24.0488 21.1537 23.6922 21.5104 23.2522 21.5104C22.8122 21.5104 22.4555 21.1537 22.4555 20.7137C22.4555 20.2737 22.8122 19.917 23.2522 19.917C23.6922 19.917 24.0488 20.2737 24.0488 20.7137ZM16.082 32L20.0654 27.3527H12.0986L16.082 32Z" fill="white"/>
</g>
<defs>
<clipPath id="clip0_1967_19485">
<rect width="32" height="32" fill="white"/>
</clipPath>
</defs>
</svg>
