<svg width="64" height="64" viewBox="0 0 64 64" fill="none" xmlns="http://www.w3.org/2000/svg">
<path fill-rule="evenodd" clip-rule="evenodd" d="M4 18C4 16.8954 4.89543 16 6 16H58C59.1046 16 60 16.8954 60 18V26.3026L52.6932 19.2133L46.7211 25.0076L49.6775 27.8759H41V36.124H49.6775L46.7211 38.9923L52.6932 44.7866L60 37.6973V40C60 44.4183 56.4183 48 52 48H12C7.58172 48 4 44.4183 4 40V18ZM52.6932 22L60 29.0893L63 32L60 34.9107L52.6932 42L49.5933 38.9923L54.611 34.124L43 34.124V34.124V29.876V29.8759H54.611L49.5933 25.0076L52.6932 22ZM11 26C11 26.5523 10.5523 27 10 27C9.44772 27 9 26.5523 9 26C9 25.4477 9.44772 25 10 25C10.5523 25 11 25.4477 11 26ZM10 31C10.5523 31 11 30.5523 11 30C11 29.4477 10.5523 29 10 29C9.44772 29 9 29.4477 9 30C9 30.5523 9.44772 31 10 31ZM11 34C11 34.5523 10.5523 35 10 35C9.44772 35 9 34.5523 9 34C9 33.4477 9.44772 33 10 33C10.5523 33 11 33.4477 11 34ZM10 39C10.5523 39 11 38.5523 11 38C11 37.4477 10.5523 37 10 37C9.44772 37 9 37.4477 9 38C9 38.5523 9.44772 39 10 39ZM11 42C11 42.5523 10.5523 43 10 43C9.44772 43 9 42.5523 9 42C9 41.4477 9.44772 41 10 41C10.5523 41 11 41.4477 11 42ZM14 27C14.5523 27 15 26.5523 15 26C15 25.4477 14.5523 25 14 25C13.4477 25 13 25.4477 13 26C13 26.5523 13.4477 27 14 27ZM19 26C19 26.5523 18.5523 27 18 27C17.4477 27 17 26.5523 17 26C17 25.4477 17.4477 25 18 25C18.5523 25 19 25.4477 19 26ZM34 27C34.5523 27 35 26.5523 35 26C35 25.4477 34.5523 25 34 25C33.4477 25 33 25.4477 33 26C33 26.5523 33.4477 27 34 27ZM23 26C23 26.5523 22.5523 27 22 27C21.4477 27 21 26.5523 21 26C21 25.4477 21.4477 25 22 25C22.5523 25 23 25.4477 23 26ZM26 27C26.5523 27 27 26.5523 27 26C27 25.4477 26.5523 25 26 25C25.4477 25 25 25.4477 25 26C25 26.5523 25.4477 27 26 27ZM31 26C31 26.5523 30.5523 27 30 27C29.4477 27 29 26.5523 29 26C29 25.4477 29.4477 25 30 25C30.5523 25 31 25.4477 31 26ZM14 31C14.5523 31 15 30.5523 15 30C15 29.4477 14.5523 29 14 29C13.4477 29 13 29.4477 13 30C13 30.5523 13.4477 31 14 31ZM19 30C19 30.5523 18.5523 31 18 31C17.4477 31 17 30.5523 17 30C17 29.4477 17.4477 29 18 29C18.5523 29 19 29.4477 19 30ZM34 31C34.5523 31 35 30.5523 35 30C35 29.4477 34.5523 29 34 29C33.4477 29 33 29.4477 33 30C33 30.5523 33.4477 31 34 31ZM23 30C23 30.5523 22.5523 31 22 31C21.4477 31 21 30.5523 21 30C21 29.4477 21.4477 29 22 29C22.5523 29 23 29.4477 23 30ZM26 31C26.5523 31 27 30.5523 27 30C27 29.4477 26.5523 29 26 29C25.4477 29 25 29.4477 25 30C25 30.5523 25.4477 31 26 31ZM31 30C31 30.5523 30.5523 31 30 31C29.4477 31 29 30.5523 29 30C29 29.4477 29.4477 29 30 29C30.5523 29 31 29.4477 31 30ZM14 35C14.5523 35 15 34.5523 15 34C15 33.4477 14.5523 33 14 33C13.4477 33 13 33.4477 13 34C13 34.5523 13.4477 35 14 35ZM15 38C15 38.5523 14.5523 39 14 39C13.4477 39 13 38.5523 13 38C13 37.4477 13.4477 37 14 37C14.5523 37 15 37.4477 15 38ZM14 43C14.5523 43 15 42.5523 15 42C15 41.4477 14.5523 41 14 41C13.4477 41 13 41.4477 13 42C13 42.5523 13.4477 43 14 43ZM19 34C19 34.5523 18.5523 35 18 35C17.4477 35 17 34.5523 17 34C17 33.4477 17.4477 33 18 33C18.5523 33 19 33.4477 19 34ZM34 35C34.5523 35 35 34.5523 35 34C35 33.4477 34.5523 33 34 33C33.4477 33 33 33.4477 33 34C33 34.5523 33.4477 35 34 35ZM19 38C19 38.5523 18.5523 39 18 39C17.4477 39 17 38.5523 17 38C17 37.4477 17.4477 37 18 37C18.5523 37 19 37.4477 19 38ZM34 39C34.5523 39 35 38.5523 35 38C35 37.4477 34.5523 37 34 37C33.4477 37 33 37.4477 33 38C33 38.5523 33.4477 39 34 39ZM19 42C19 42.5523 18.5523 43 18 43C17.4477 43 17 42.5523 17 42C17 41.4477 17.4477 41 18 41C18.5523 41 19 41.4477 19 42ZM34 43C34.5523 43 35 42.5523 35 42C35 41.4477 34.5523 41 34 41C33.4477 41 33 41.4477 33 42C33 42.5523 33.4477 43 34 43ZM23 34C23 34.5523 22.5523 35 22 35C21.4477 35 21 34.5523 21 34C21 33.4477 21.4477 33 22 33C22.5523 33 23 33.4477 23 34ZM22 39C22.5523 39 23 38.5523 23 38C23 37.4477 22.5523 37 22 37C21.4477 37 21 37.4477 21 38C21 38.5523 21.4477 39 22 39ZM23 42C23 42.5523 22.5523 43 22 43C21.4477 43 21 42.5523 21 42C21 41.4477 21.4477 41 22 41C22.5523 41 23 41.4477 23 42ZM26 35C26.5523 35 27 34.5523 27 34C27 33.4477 26.5523 33 26 33C25.4477 33 25 33.4477 25 34C25 34.5523 25.4477 35 26 35ZM27 38C27 38.5523 26.5523 39 26 39C25.4477 39 25 38.5523 25 38C25 37.4477 25.4477 37 26 37C26.5523 37 27 37.4477 27 38ZM38 39C38.5523 39 39 38.5523 39 38C39 37.4477 38.5523 37 38 37C37.4477 37 37 37.4477 37 38C37 38.5523 37.4477 39 38 39ZM27 42C27 42.5523 26.5523 43 26 43C25.4477 43 25 42.5523 25 42C25 41.4477 25.4477 41 26 41C26.5523 41 27 41.4477 27 42ZM38 43C38.5523 43 39 42.5523 39 42C39 41.4477 38.5523 41 38 41C37.4477 41 37 41.4477 37 42C37 42.5523 37.4477 43 38 43ZM31 34C31 34.5523 30.5523 35 30 35C29.4477 35 29 34.5523 29 34C29 33.4477 29.4477 33 30 33C30.5523 33 31 33.4477 31 34ZM30 39C30.5523 39 31 38.5523 31 38C31 37.4477 30.5523 37 30 37C29.4477 37 29 37.4477 29 38C29 38.5523 29.4477 39 30 39ZM31 42C31 42.5523 30.5523 43 30 43C29.4477 43 29 42.5523 29 42C29 41.4477 29.4477 41 30 41C30.5523 41 31 41.4477 31 42ZM42 43C42.5523 43 43 42.5523 43 42C43 41.4477 42.5523 41 42 41C41.4477 41 41 41.4477 41 42C41 42.5523 41.4477 43 42 43Z" fill="white"/>
</svg>
