<svg width="32" height="32" viewBox="0 0 32 32" fill="none" xmlns="http://www.w3.org/2000/svg">
<path fill-rule="evenodd" clip-rule="evenodd" d="M32 7.85718C32 7.30489 31.5523 6.85718 31 6.85718H0.999998C0.447713 6.85718 0 7.30489 0 7.85718V21.1429C0 23.352 1.79086 25.1429 4 25.1429H28C30.2091 25.1429 32 23.352 32 21.1429V7.85718ZM14.2857 12.5714C14.2857 12.887 14.5416 13.1429 14.8572 13.1429C15.1728 13.1429 15.4286 12.887 15.4286 12.5714C15.4286 12.2558 15.1728 12 14.8572 12C14.5416 12 14.2857 12.2558 14.2857 12.5714ZM14.8572 15.4286C14.5416 15.4286 14.2857 15.1728 14.2857 14.8572C14.2857 14.5416 14.5416 14.2858 14.8572 14.2858C15.1728 14.2858 15.4286 14.5416 15.4286 14.8572C15.4286 15.1728 15.1728 15.4286 14.8572 15.4286ZM14.2857 17.1428C14.2857 17.4584 14.5416 17.7143 14.8572 17.7143C15.1728 17.7143 15.4286 17.4584 15.4286 17.1428C15.4286 16.8272 15.1728 16.5714 14.8572 16.5714C14.5416 16.5714 14.2857 16.8272 14.2857 17.1428ZM14.8572 20C14.5416 20 14.2857 19.7442 14.2857 19.4286C14.2857 19.113 14.5416 18.8572 14.8572 18.8572C15.1728 18.8572 15.4286 19.113 15.4286 19.4286C15.4286 19.7442 15.1728 20 14.8572 20ZM14.2857 21.7143C14.2857 22.0298 14.5416 22.2857 14.8572 22.2857C15.1728 22.2857 15.4286 22.0298 15.4286 21.7143C15.4286 21.3987 15.1728 21.1428 14.8572 21.1428C14.5416 21.1428 14.2857 21.3987 14.2857 21.7143ZM12.5714 13.1429C12.2558 13.1429 12 12.887 12 12.5714C12 12.2558 12.2558 12 12.5714 12C12.887 12 13.1428 12.2558 13.1428 12.5714C13.1428 12.887 12.887 13.1429 12.5714 13.1429ZM9.71432 12.5714C9.71432 12.887 9.97016 13.1429 10.2857 13.1429C10.6013 13.1429 10.8572 12.887 10.8572 12.5714C10.8572 12.2558 10.6013 12 10.2857 12C9.97016 12 9.71432 12.2558 9.71432 12.5714ZM7.99998 13.1429C7.68439 13.1429 7.42855 12.887 7.42855 12.5714C7.42855 12.2558 7.68439 12 7.99998 12C8.31557 12 8.57141 12.2558 8.57141 12.5714C8.57141 12.887 8.31557 13.1429 7.99998 13.1429ZM5.14291 12.5714C5.14291 12.887 5.39875 13.1429 5.71434 13.1429C6.02993 13.1429 6.28577 12.887 6.28577 12.5714C6.28577 12.2558 6.02993 12 5.71434 12C5.39875 12 5.14291 12.2558 5.14291 12.5714ZM3.42857 13.1429C3.11298 13.1429 2.85714 12.887 2.85714 12.5714C2.85714 12.2558 3.11298 12 3.42857 12C3.74416 12 4 12.2558 4 12.5714C4 12.887 3.74416 13.1429 3.42857 13.1429ZM12 14.8572C12 15.1728 12.2558 15.4286 12.5714 15.4286C12.887 15.4286 13.1428 15.1728 13.1428 14.8572C13.1428 14.5416 12.887 14.2858 12.5714 14.2858C12.2558 14.2858 12 14.5416 12 14.8572ZM10.2857 15.4286C9.97016 15.4286 9.71432 15.1728 9.71432 14.8572C9.71432 14.5416 9.97016 14.2858 10.2857 14.2858C10.6013 14.2858 10.8572 14.5416 10.8572 14.8572C10.8572 15.1728 10.6013 15.4286 10.2857 15.4286ZM7.42855 14.8572C7.42855 15.1728 7.68439 15.4286 7.99998 15.4286C8.31557 15.4286 8.57141 15.1728 8.57141 14.8572C8.57141 14.5416 8.31557 14.2858 7.99998 14.2858C7.68439 14.2858 7.42855 14.5416 7.42855 14.8572ZM5.71434 15.4286C5.39875 15.4286 5.14291 15.1728 5.14291 14.8572C5.14291 14.5416 5.39875 14.2858 5.71434 14.2858C6.02993 14.2858 6.28577 14.5416 6.28577 14.8572C6.28577 15.1728 6.02993 15.4286 5.71434 15.4286ZM2.85714 14.8572C2.85714 15.1728 3.11298 15.4286 3.42857 15.4286C3.74416 15.4286 4 15.1728 4 14.8572C4 14.5416 3.74416 14.2858 3.42857 14.2858C3.11298 14.2858 2.85714 14.5416 2.85714 14.8572ZM12.5714 17.7143C12.2558 17.7143 12 17.4584 12 17.1428C12 16.8272 12.2558 16.5714 12.5714 16.5714C12.887 16.5714 13.1428 16.8272 13.1428 17.1428C13.1428 17.4584 12.887 17.7143 12.5714 17.7143ZM12 19.4286C12 19.7442 12.2558 20 12.5714 20C12.887 20 13.1428 19.7442 13.1428 19.4286C13.1428 19.113 12.887 18.8572 12.5714 18.8572C12.2558 18.8572 12 19.113 12 19.4286ZM12.5714 22.2857C12.2558 22.2857 12 22.0298 12 21.7143C12 21.3987 12.2558 21.1428 12.5714 21.1428C12.887 21.1428 13.1428 21.3987 13.1428 21.7143C13.1428 22.0298 12.887 22.2857 12.5714 22.2857ZM9.71432 17.1428C9.71432 17.4584 9.97016 17.7143 10.2857 17.7143C10.6013 17.7143 10.8572 17.4584 10.8572 17.1428C10.8572 16.8272 10.6013 16.5714 10.2857 16.5714C9.97016 16.5714 9.71432 16.8272 9.71432 17.1428ZM10.2857 20C9.97016 20 9.71432 19.7442 9.71432 19.4286C9.71432 19.113 9.97016 18.8572 10.2857 18.8572C10.6013 18.8572 10.8572 19.113 10.8572 19.4286C10.8572 19.7442 10.6013 20 10.2857 20ZM9.71432 21.7143C9.71432 22.0298 9.97016 22.2857 10.2857 22.2857C10.6013 22.2857 10.8572 22.0298 10.8572 21.7143C10.8572 21.3987 10.6013 21.1428 10.2857 21.1428C9.97016 21.1428 9.71432 21.3987 9.71432 21.7143ZM7.99998 17.7143C7.68439 17.7143 7.42855 17.4584 7.42855 17.1428C7.42855 16.8272 7.68439 16.5714 7.99998 16.5714C8.31557 16.5714 8.57141 16.8272 8.57141 17.1428C8.57141 17.4584 8.31557 17.7143 7.99998 17.7143ZM7.42855 19.4286C7.42855 19.7442 7.68439 20 7.99998 20C8.31557 20 8.57141 19.7442 8.57141 19.4286C8.57141 19.113 8.31557 18.8572 7.99998 18.8572C7.68439 18.8572 7.42855 19.113 7.42855 19.4286ZM7.99998 22.2857C7.68439 22.2857 7.42855 22.0298 7.42855 21.7143C7.42855 21.3987 7.68439 21.1428 7.99998 21.1428C8.31557 21.1428 8.57141 21.3987 8.57141 21.7143C8.57141 22.0298 8.31557 22.2857 7.99998 22.2857ZM5.14291 17.1428C5.14291 17.4584 5.39875 17.7143 5.71434 17.7143C6.02993 17.7143 6.28577 17.4584 6.28577 17.1428C6.28577 16.8272 6.02993 16.5714 5.71434 16.5714C5.39875 16.5714 5.14291 16.8272 5.14291 17.1428ZM5.71434 20C5.39875 20 5.14291 19.7442 5.14291 19.4286C5.14291 19.113 5.39875 18.8572 5.71434 18.8572C6.02993 18.8572 6.28577 19.113 6.28577 19.4286C6.28577 19.7442 6.02993 20 5.71434 20ZM5.14291 21.7143C5.14291 22.0298 5.39875 22.2857 5.71434 22.2857C6.02993 22.2857 6.28577 22.0298 6.28577 21.7143C6.28577 21.3987 6.02993 21.1428 5.71434 21.1428C5.39875 21.1428 5.14291 21.3987 5.14291 21.7143ZM3.42857 17.7143C3.11298 17.7143 2.85714 17.4584 2.85714 17.1428C2.85714 16.8272 3.11298 16.5714 3.42857 16.5714C3.74416 16.5714 4 16.8272 4 17.1428C4 17.4584 3.74416 17.7143 3.42857 17.7143ZM2.85714 19.4286C2.85714 19.7442 3.11298 20 3.42857 20C3.74416 20 4 19.7442 4 19.4286C4 19.113 3.74416 18.8572 3.42857 18.8572C3.11298 18.8572 2.85714 19.113 2.85714 19.4286ZM3.42857 22.2857C3.11298 22.2857 2.85714 22.0298 2.85714 21.7143C2.85714 21.3987 3.11298 21.1428 3.42857 21.1428C3.74416 21.1428 4 21.3987 4 21.7143C4 22.0298 3.74416 22.2857 3.42857 22.2857ZM18.4286 16.0714C18.4286 19.1484 20.923 21.6429 24 21.6429C27.077 21.6429 29.5714 19.1484 29.5714 16.0714C29.5714 12.9944 27.077 10.5 24 10.5C20.923 10.5 18.4286 12.9944 18.4286 16.0714ZM24 20.6429C21.4753 20.6429 19.4286 18.5962 19.4286 16.0714C19.4286 13.5467 21.4753 11.5 24 11.5C26.5247 11.5 28.5714 13.5467 28.5714 16.0714C28.5714 18.5962 26.5247 20.6429 24 20.6429ZM24.6607 18H25.6207L24.8157 16.715C25.0224 16.6217 25.1824 16.485 25.2957 16.305C25.4124 16.1217 25.4707 15.895 25.4707 15.625C25.4707 15.2683 25.3507 14.9917 25.1107 14.795C24.8707 14.5983 24.5007 14.5 24.0007 14.5H22.6407V18H23.5057V16.89H23.9207H23.9957L24.6607 18ZM23.5057 16.15V15.24H23.9607C24.1641 15.24 24.3124 15.2767 24.4057 15.35C24.4991 15.42 24.5457 15.5267 24.5457 15.67C24.5457 15.8267 24.4941 15.9467 24.3907 16.03C24.2907 16.11 24.1524 16.15 23.9757 16.15H23.5057Z" fill="white"/>
</svg>
