<svg width="64" height="64" viewBox="0 0 64 64" fill="none" xmlns="http://www.w3.org/2000/svg">
<path fill-rule="evenodd" clip-rule="evenodd" d="M55.0866 0H6.51318V54.3717H18.7128L13.8951 49.4062L22.0994 40.9502L26.1608 45.1361V32.8495H37.8395V45.1361L41.9008 40.9502L50.1051 49.4062L45.2875 54.3717H47.8866C53.1886 54.3717 57.4866 50.0736 57.4866 44.7717V2.4C57.4866 1.07452 56.4121 0 55.0866 0ZM41.3415 54.3717H41.3418L46.1594 49.4062L41.9008 45.017L41.9007 45.0171L41.9005 45.017L35.0076 52.1214V45.261C35.0075 45.2611 35.0074 45.2612 35.0073 45.2613V43.0927C35.0074 43.0929 35.0075 43.093 35.0076 43.0931V38.4644C35.0075 38.4645 35.0074 38.4647 35.0073 38.4648V36.2962C35.0074 36.2963 35.0075 36.2964 35.0076 36.2965V35.6813H28.9926L28.9924 35.6813V52.1213L22.0994 45.017L22.0993 45.0171L22.0992 45.017L17.8406 49.4062L31.9999 63.9999L41.3415 54.3717ZM13.3099 32.2832C14.2482 32.2832 15.009 31.5224 15.009 30.584C15.009 29.6456 14.2482 28.8849 13.3099 28.8849C12.3715 28.8849 11.6107 29.6456 11.6107 30.584C11.6107 31.5224 12.3715 32.2832 13.3099 32.2832ZM15.009 23.7878C15.009 24.7262 14.2482 25.4869 13.3099 25.4869C12.3715 25.4869 11.6107 24.7262 11.6107 23.7878C11.6107 22.8494 12.3715 22.0886 13.3099 22.0886C14.2482 22.0886 15.009 22.8494 15.009 23.7878ZM13.3099 18.6903C14.2482 18.6903 15.009 17.9296 15.009 16.9912C15.009 16.0528 14.2482 15.2921 13.3099 15.2921C12.3715 15.2921 11.6107 16.0528 11.6107 16.9912C11.6107 17.9296 12.3715 18.6903 13.3099 18.6903ZM15.009 37.3805C15.009 38.3189 14.2482 39.0796 13.3099 39.0796C12.3715 39.0796 11.6107 38.3189 11.6107 37.3805C11.6107 36.4421 12.3715 35.6813 13.3099 35.6813C14.2482 35.6813 15.009 36.4421 15.009 37.3805ZM20.1061 32.2832C21.0445 32.2832 21.8052 31.5224 21.8052 30.584C21.8052 29.6456 21.0445 28.8849 20.1061 28.8849C19.1677 28.8849 18.407 29.6456 18.407 30.584C18.407 31.5224 19.1677 32.2832 20.1061 32.2832ZM21.8052 23.7878C21.8052 24.7262 21.0445 25.4869 20.1061 25.4869C19.1677 25.4869 18.407 24.7262 18.407 23.7878C18.407 22.8494 19.1677 22.0886 20.1061 22.0886C21.0445 22.0886 21.8052 22.8494 21.8052 23.7878ZM20.1061 18.6903C21.0445 18.6903 21.8052 17.9296 21.8052 16.9912C21.8052 16.0528 21.0445 15.2921 20.1061 15.2921C19.1677 15.2921 18.407 16.0528 18.407 16.9912C18.407 17.9296 19.1677 18.6903 20.1061 18.6903ZM28.6021 23.7878C28.6021 24.7262 27.8414 25.4869 26.903 25.4869C25.9646 25.4869 25.2039 24.7262 25.2039 23.7878C25.2039 22.8494 25.9646 22.0886 26.903 22.0886C27.8414 22.0886 28.6021 22.8494 28.6021 23.7878ZM26.903 18.6903C27.8414 18.6903 28.6021 17.9296 28.6021 16.9912C28.6021 16.0528 27.8414 15.2921 26.903 15.2921C25.9646 15.2921 25.2039 16.0528 25.2039 16.9912C25.2039 17.9296 25.9646 18.6903 26.903 18.6903ZM35.3982 23.7878C35.3982 24.7262 34.6375 25.4869 33.6991 25.4869C32.7607 25.4869 32 24.7262 32 23.7878C32 22.8494 32.7607 22.0886 33.6991 22.0886C34.6375 22.0886 35.3982 22.8494 35.3982 23.7878ZM33.6991 18.6903C34.6375 18.6903 35.3982 17.9296 35.3982 16.9912C35.3982 16.0528 34.6375 15.2921 33.6991 15.2921C32.7607 15.2921 32 16.0528 32 16.9912C32 17.9296 32.7607 18.6903 33.6991 18.6903ZM42.1944 23.7878C42.1944 24.7262 41.4336 25.4869 40.4952 25.4869C39.5569 25.4869 38.7961 24.7262 38.7961 23.7878C38.7961 22.8494 39.5569 22.0886 40.4952 22.0886C41.4336 22.0886 42.1944 22.8494 42.1944 23.7878ZM40.4952 18.6903C41.4336 18.6903 42.1944 17.9296 42.1944 16.9912C42.1944 16.0528 41.4336 15.2921 40.4952 15.2921C39.5569 15.2921 38.7961 16.0528 38.7961 16.9912C38.7961 17.9296 39.5569 18.6903 40.4952 18.6903ZM48.9912 30.584C48.9912 31.5224 48.2305 32.2832 47.2921 32.2832C46.3537 32.2832 45.593 31.5224 45.593 30.584C45.593 29.6456 46.3537 28.8849 47.2921 28.8849C48.2305 28.8849 48.9912 29.6456 48.9912 30.584ZM47.2921 25.4869C48.2305 25.4869 48.9912 24.7262 48.9912 23.7878C48.9912 22.8494 48.2305 22.0886 47.2921 22.0886C46.3537 22.0886 45.593 22.8494 45.593 23.7878C45.593 24.7262 46.3537 25.4869 47.2921 25.4869ZM48.9912 16.9912C48.9912 17.9296 48.2305 18.6903 47.2921 18.6903C46.3537 18.6903 45.593 17.9296 45.593 16.9912C45.593 16.0528 46.3537 15.2921 47.2921 15.2921C48.2305 15.2921 48.9912 16.0528 48.9912 16.9912ZM47.2921 39.0796C48.2305 39.0796 48.9912 38.3189 48.9912 37.3805C48.9912 36.4421 48.2305 35.6813 47.2921 35.6813C46.3537 35.6813 45.593 36.4421 45.593 37.3805C45.593 38.3189 46.3537 39.0796 47.2921 39.0796Z" fill="white"/>
</svg>
