<svg width="32" height="32" viewBox="0 0 32 32" fill="none" xmlns="http://www.w3.org/2000/svg">
<path fill-rule="evenodd" clip-rule="evenodd" d="M0 7.85718C0 7.30489 0.447715 6.85718 1 6.85718H31C31.5523 6.85718 32 7.30489 32 7.85718V21.1429C32 23.352 30.2091 25.1429 28 25.1429H4C1.79086 25.1429 0 23.352 0 21.1429V7.85718ZM4.00004 12.5714C4.00004 12.887 3.7442 13.1429 3.42861 13.1429C3.11302 13.1429 2.85718 12.887 2.85718 12.5714C2.85718 12.2558 3.11302 12 3.42861 12C3.7442 12 4.00004 12.2558 4.00004 12.5714ZM3.42861 15.4285C3.7442 15.4285 4.00004 15.1727 4.00004 14.8571C4.00004 14.5415 3.7442 14.2856 3.42861 14.2856C3.11302 14.2856 2.85718 14.5415 2.85718 14.8571C2.85718 15.1727 3.11302 15.4285 3.42861 15.4285ZM4.00004 17.1428C4.00004 17.4584 3.7442 17.7143 3.42861 17.7143C3.11302 17.7143 2.85718 17.4584 2.85718 17.1428C2.85718 16.8272 3.11302 16.5714 3.42861 16.5714C3.7442 16.5714 4.00004 16.8272 4.00004 17.1428ZM3.42861 20C3.7442 20 4.00004 19.7442 4.00004 19.4286C4.00004 19.113 3.7442 18.8572 3.42861 18.8572C3.11302 18.8572 2.85718 19.113 2.85718 19.4286C2.85718 19.7442 3.11302 20 3.42861 20ZM4.00004 21.7143C4.00004 22.0298 3.7442 22.2857 3.42861 22.2857C3.11302 22.2857 2.85718 22.0298 2.85718 21.7143C2.85718 21.3987 3.11302 21.1428 3.42861 21.1428C3.7442 21.1428 4.00004 21.3987 4.00004 21.7143ZM5.71425 13.1429C6.02984 13.1429 6.28568 12.887 6.28568 12.5714C6.28568 12.2558 6.02984 12 5.71425 12C5.39866 12 5.14282 12.2558 5.14282 12.5714C5.14282 12.887 5.39866 13.1429 5.71425 13.1429ZM6.28568 14.8571C6.28568 15.1727 6.02984 15.4285 5.71425 15.4285C5.39866 15.4285 5.14282 15.1727 5.14282 14.8571C5.14282 14.5415 5.39866 14.2856 5.71425 14.2856C6.02984 14.2856 6.28568 14.5415 6.28568 14.8571ZM5.71425 17.7143C6.02984 17.7143 6.28568 17.4584 6.28568 17.1428C6.28568 16.8272 6.02984 16.5714 5.71425 16.5714C5.39866 16.5714 5.14282 16.8272 5.14282 17.1428C5.14282 17.4584 5.39866 17.7143 5.71425 17.7143ZM6.28568 19.4286C6.28568 19.7442 6.02984 20 5.71425 20C5.39866 20 5.14282 19.7442 5.14282 19.4286C5.14282 19.113 5.39866 18.8572 5.71425 18.8572C6.02984 18.8572 6.28568 19.113 6.28568 19.4286ZM5.71425 22.2857C6.02984 22.2857 6.28568 22.0298 6.28568 21.7143C6.28568 21.3987 6.02984 21.1428 5.71425 21.1428C5.39866 21.1428 5.14282 21.3987 5.14282 21.7143C5.14282 22.0298 5.39866 22.2857 5.71425 22.2857ZM8.57145 12.5714C8.57145 12.887 8.31561 13.1429 8.00002 13.1429C7.68443 13.1429 7.42859 12.887 7.42859 12.5714C7.42859 12.2558 7.68443 12 8.00002 12C8.31561 12 8.57145 12.2558 8.57145 12.5714ZM24 13.1429C24.3156 13.1429 24.5714 12.887 24.5714 12.5714C24.5714 12.2558 24.3156 12 24 12C23.6844 12 23.4286 12.2558 23.4286 12.5714C23.4286 12.887 23.6844 13.1429 24 13.1429ZM26.8572 12.5714C26.8572 12.887 26.6014 13.1429 26.2858 13.1429C25.9702 13.1429 25.7144 12.887 25.7144 12.5714C25.7144 12.2558 25.9702 12 26.2858 12C26.6014 12 26.8572 12.2558 26.8572 12.5714ZM28.5714 13.1429C28.887 13.1429 29.1429 12.887 29.1429 12.5714C29.1429 12.2558 28.887 12 28.5714 12C28.2558 12 28 12.2558 28 12.5714C28 12.887 28.2558 13.1429 28.5714 13.1429ZM8.57145 14.8571C8.57145 15.1727 8.31561 15.4285 8.00002 15.4285C7.68443 15.4285 7.42859 15.1727 7.42859 14.8571C7.42859 14.5415 7.68443 14.2856 8.00002 14.2856C8.31561 14.2856 8.57145 14.5415 8.57145 14.8571ZM24 15.4285C24.3156 15.4285 24.5714 15.1727 24.5714 14.8571C24.5714 14.5415 24.3156 14.2856 24 14.2856C23.6844 14.2856 23.4286 14.5415 23.4286 14.8571C23.4286 15.1727 23.6844 15.4285 24 15.4285ZM26.8572 14.8571C26.8572 15.1727 26.6014 15.4285 26.2858 15.4285C25.9702 15.4285 25.7144 15.1727 25.7144 14.8571C25.7144 14.5415 25.9702 14.2856 26.2858 14.2856C26.6014 14.2856 26.8572 14.5415 26.8572 14.8571ZM28.5714 15.4285C28.887 15.4285 29.1429 15.1727 29.1429 14.8571C29.1429 14.5415 28.887 14.2856 28.5714 14.2856C28.2558 14.2856 28 14.5415 28 14.8571C28 15.1727 28.2558 15.4285 28.5714 15.4285ZM8.57145 17.1428C8.57145 17.4584 8.31561 17.7143 8.00002 17.7143C7.68443 17.7143 7.42859 17.4584 7.42859 17.1428C7.42859 16.8272 7.68443 16.5714 8.00002 16.5714C8.31561 16.5714 8.57145 16.8272 8.57145 17.1428ZM8.00002 20C8.31561 20 8.57145 19.7442 8.57145 19.4286C8.57145 19.113 8.31561 18.8572 8.00002 18.8572C7.68443 18.8572 7.42859 19.113 7.42859 19.4286C7.42859 19.7442 7.68443 20 8.00002 20ZM8.57145 21.7143C8.57145 22.0298 8.31561 22.2857 8.00002 22.2857C7.68443 22.2857 7.42859 22.0298 7.42859 21.7143C7.42859 21.3987 7.68443 21.1428 8.00002 21.1428C8.31561 21.1428 8.57145 21.3987 8.57145 21.7143ZM24 17.7143C24.3156 17.7143 24.5714 17.4584 24.5714 17.1428C24.5714 16.8272 24.3156 16.5714 24 16.5714C23.6844 16.5714 23.4286 16.8272 23.4286 17.1428C23.4286 17.4584 23.6844 17.7143 24 17.7143ZM24.5714 19.4286C24.5714 19.7442 24.3156 20 24 20C23.6844 20 23.4286 19.7442 23.4286 19.4286C23.4286 19.113 23.6844 18.8572 24 18.8572C24.3156 18.8572 24.5714 19.113 24.5714 19.4286ZM24 22.2857C24.3156 22.2857 24.5714 22.0298 24.5714 21.7143C24.5714 21.3987 24.3156 21.1428 24 21.1428C23.6844 21.1428 23.4286 21.3987 23.4286 21.7143C23.4286 22.0298 23.6844 22.2857 24 22.2857ZM26.8572 17.1428C26.8572 17.4584 26.6014 17.7143 26.2858 17.7143C25.9702 17.7143 25.7144 17.4584 25.7144 17.1428C25.7144 16.8272 25.9702 16.5714 26.2858 16.5714C26.6014 16.5714 26.8572 16.8272 26.8572 17.1428ZM26.2858 20C26.6014 20 26.8572 19.7442 26.8572 19.4286C26.8572 19.113 26.6014 18.8572 26.2858 18.8572C25.9702 18.8572 25.7144 19.113 25.7144 19.4286C25.7144 19.7442 25.9702 20 26.2858 20ZM26.8572 21.7143C26.8572 22.0298 26.6014 22.2857 26.2858 22.2857C25.9702 22.2857 25.7144 22.0298 25.7144 21.7143C25.7144 21.3987 25.9702 21.1428 26.2858 21.1428C26.6014 21.1428 26.8572 21.3987 26.8572 21.7143ZM28.5714 17.7143C28.887 17.7143 29.1429 17.4584 29.1429 17.1428C29.1429 16.8272 28.887 16.5714 28.5714 16.5714C28.2558 16.5714 28 16.8272 28 17.1428C28 17.4584 28.2558 17.7143 28.5714 17.7143ZM29.1429 19.4286C29.1429 19.7442 28.887 20 28.5714 20C28.2558 20 28 19.7442 28 19.4286C28 19.113 28.2558 18.8572 28.5714 18.8572C28.887 18.8572 29.1429 19.113 29.1429 19.4286ZM28.5714 22.2857C28.887 22.2857 29.1429 22.0298 29.1429 21.7143C29.1429 21.3987 28.887 21.1428 28.5714 21.1428C28.2558 21.1428 28 21.3987 28 21.7143C28 22.0298 28.2558 22.2857 28.5714 22.2857ZM16 11.9286C13.7514 11.9286 11.9286 13.7514 11.9286 16C11.9286 18.2486 13.7514 20.0714 16 20.0714C18.2486 20.0714 20.0714 18.2486 20.0714 16C20.0714 13.7514 18.2486 11.9286 16 11.9286ZM10.9286 16C10.9286 13.1991 13.1991 10.9286 16 10.9286C18.8009 10.9286 21.0714 13.1991 21.0714 16C21.0714 18.8009 18.8009 21.0714 16 21.0714C13.1991 21.0714 10.9286 18.8009 10.9286 16ZM9.96436 16.0001C9.96436 12.6666 12.6666 9.96436 16.0001 9.96436C19.3335 9.96436 22.0358 12.6666 22.0358 16.0001C22.0358 19.3335 19.3335 22.0358 16.0001 22.0358C12.6666 22.0358 9.96436 19.3335 9.96436 16.0001ZM16.0001 9.46436C12.3905 9.46436 9.46436 12.3905 9.46436 16.0001C9.46436 19.6096 12.3905 22.5358 16.0001 22.5358C19.6096 22.5358 22.5358 19.6096 22.5358 16.0001C22.5358 12.3905 19.6096 9.46436 16.0001 9.46436Z" fill="white"/>
</svg>
