<svg width="32" height="32" viewBox="0 0 32 32" fill="none" xmlns="http://www.w3.org/2000/svg">
<path fill-rule="evenodd" clip-rule="evenodd" d="M31 1H1L11.1667 11.1667H11.8994C13.0661 11.1667 13.9294 11.3961 14.4894 11.855C15.0494 12.3139 15.3294 12.9594 15.3294 13.7917C15.3294 14.283 15.2467 14.7128 15.0811 15.0811L17.5038 17.5038L19.6475 15.7633C20.013 15.46 20.2891 15.2189 20.4758 15.04C20.6625 14.8611 20.8064 14.6783 20.9075 14.4917C21.0164 14.305 21.0708 14.0989 21.0708 13.8733C21.0708 13.5233 20.9347 13.2589 20.6625 13.08C20.398 12.9011 20.0597 12.8117 19.6475 12.8117C19.3364 12.8117 19.0291 12.8583 18.7258 12.9517C18.4225 13.0372 18.1502 13.1539 17.9091 13.3017L17.2558 11.8083C17.6291 11.5672 18.0452 11.3767 18.5041 11.2367C18.9708 11.0967 19.4686 11.0267 19.9975 11.0267C20.9775 11.0267 21.7669 11.2328 22.3658 11.645C22.9647 12.0494 23.2641 12.6483 23.2641 13.4417C23.2641 13.9861 23.1086 14.4839 22.7975 14.935C22.4941 15.3783 22.0236 15.8567 21.3858 16.37L19.8458 17.595H23.5091V19.3333H19.3333L26.6066 26.6066C29.3211 23.8921 31 20.1421 31 16V1Z" fill="white"/>
<path opacity="0.5" fill-rule="evenodd" clip-rule="evenodd" d="M19.3333 19.3333L26.6066 26.6066C23.8921 29.3211 20.1421 31 16 31C7.71573 31 1 24.2843 1 16V1L11.1667 11.1667H8.72603V19.3333H10.7444V16.7433H11.7127H11.8877L13.4394 19.3333H15.6794L13.801 16.335C14.2832 16.1172 14.6566 15.7983 14.921 15.3783C14.981 15.2841 15.0343 15.185 15.081 15.081L17.5037 17.5037L17.2907 17.6767V19.3333H19.3333ZM10.7444 15.0167V12.8933H11.806C12.2805 12.8933 12.6266 12.9789 12.8444 13.15C13.0621 13.3133 13.171 13.5622 13.171 13.8967C13.171 14.2622 13.0505 14.5422 12.8094 14.7367C12.576 14.9233 12.2532 15.0167 11.841 15.0167H10.7444Z" fill="white"/>
</svg>
