<svg width="64" height="64" viewBox="0 0 64 64" fill="none" xmlns="http://www.w3.org/2000/svg">
<path fill-rule="evenodd" clip-rule="evenodd" d="M0 32C0 38.6274 5.37258 44 12 44H52C58.6274 44 64 38.6274 64 32C64 25.3726 58.6274 20 52 20H12C5.37258 20 0 25.3726 0 32ZM15.9745 27.648C15.4705 27.48 14.9265 27.396 14.3425 27.396C13.7025 27.396 13.1385 27.5 12.6505 27.708C12.1625 27.908 11.7825 28.204 11.5105 28.596C11.2385 28.98 11.1025 29.436 11.1025 29.964C11.1025 30.524 11.2305 30.976 11.4865 31.32C11.7425 31.656 12.0465 31.908 12.3985 32.076C12.7505 32.236 13.2225 32.408 13.8145 32.592C14.2705 32.728 14.6065 32.864 14.8225 33C15.0385 33.128 15.1465 33.308 15.1465 33.54C15.1465 33.772 15.0505 33.96 14.8585 34.104C14.6665 34.248 14.3825 34.32 14.0065 34.32C13.2465 34.32 12.4265 34.092 11.5465 33.636L10.9225 35.364C11.3385 35.612 11.8145 35.804 12.3505 35.94C12.8945 36.076 13.4345 36.144 13.9705 36.144C14.6345 36.144 15.2225 36.04 15.7345 35.832C16.2545 35.616 16.6585 35.304 16.9465 34.896C17.2425 34.488 17.3905 34.004 17.3905 33.444C17.3905 32.916 17.2625 32.488 17.0065 32.16C16.7505 31.824 16.4505 31.572 16.1065 31.404C15.7705 31.236 15.3265 31.056 14.7745 30.864C14.2705 30.696 13.8985 30.544 13.6585 30.408C13.4265 30.264 13.3105 30.072 13.3105 29.832C13.3105 29.608 13.4025 29.432 13.5865 29.304C13.7705 29.168 14.0265 29.1 14.3545 29.1C14.6665 29.1 15.0025 29.164 15.3625 29.292C15.7305 29.42 16.0585 29.588 16.3465 29.796L17.2225 28.248C16.8945 28.008 16.4785 27.808 15.9745 27.648ZM24.677 27.6V30.936H21.185V27.6H19.109V36H21.185V32.712H24.677V36H26.741V27.6H24.677ZM34.4825 36H36.7265L33.4505 27.6H31.4345L28.2785 36H30.4505L30.9305 34.56H33.9905L34.4825 36ZM31.4705 32.928L32.4305 30.036L33.4265 32.928H31.4705ZM43.1093 36H45.4133L43.4813 32.916C43.9773 32.692 44.3613 32.364 44.6333 31.932C44.9133 31.492 45.0533 30.948 45.0533 30.3C45.0533 29.444 44.7653 28.78 44.1893 28.308C43.6133 27.836 42.7253 27.6 41.5253 27.6H38.2613V36H40.3373V33.336H41.3333H41.5133L43.1093 36ZM40.3373 31.56V29.376H41.4293C41.9173 29.376 42.2733 29.464 42.4973 29.64C42.7213 29.808 42.8333 30.064 42.8333 30.408C42.8333 30.784 42.7093 31.072 42.4613 31.272C42.2213 31.464 41.8893 31.56 41.4653 31.56H40.3373ZM52.7376 27.6H46.9176V36H52.7376V34.224H48.9936V32.652H52.1736V30.888H48.9936V29.376H52.7376V27.6Z" fill="white"/>
</svg>
