<svg width="32" height="32" viewBox="0 0 32 32" fill="none" xmlns="http://www.w3.org/2000/svg">
<path fill-rule="evenodd" clip-rule="evenodd" d="M23.8848 3H0V29.0339H20.2848C22.9357 29.0339 25.0848 26.8849 25.0848 24.2339V4.2C25.0848 3.53726 24.5475 3 23.8848 3ZM13.7532 11.9149C14.2044 11.9149 14.5702 11.5492 14.5702 11.0979C14.5702 10.6467 14.2044 10.2809 13.7532 10.2809C13.302 10.2809 12.9362 10.6467 12.9362 11.0979C12.9362 11.5492 13.302 11.9149 13.7532 11.9149ZM11.3021 11.0979C11.3021 11.5492 10.9363 11.9149 10.4851 11.9149C10.0338 11.9149 9.66804 11.5492 9.66804 11.0979C9.66804 10.6467 10.0338 10.2809 10.4851 10.2809C10.9363 10.2809 11.3021 10.6467 11.3021 11.0979ZM7.21693 11.9149C7.66815 11.9149 8.03395 11.5492 8.03395 11.0979C8.03395 10.6467 7.66815 10.2809 7.21693 10.2809C6.7657 10.2809 6.39991 10.6467 6.39991 11.0979C6.39991 11.5492 6.7657 11.9149 7.21693 11.9149ZM4.76595 11.0979C4.76595 11.5492 4.40015 11.9149 3.94893 11.9149C3.4977 11.9149 3.1319 11.5492 3.1319 11.0979C3.1319 10.6467 3.4977 10.2809 3.94893 10.2809C4.40015 10.2809 4.76595 10.6467 4.76595 11.0979ZM17.0211 11.9149C17.4723 11.9149 17.8381 11.5492 17.8381 11.0979C17.8381 10.6467 17.4723 10.2809 17.0211 10.2809C16.5699 10.2809 16.2041 10.6467 16.2041 11.0979C16.2041 11.5492 16.5699 11.9149 17.0211 11.9149ZM21.1064 11.0979C21.1064 11.5492 20.7406 11.9149 20.2894 11.9149C19.8382 11.9149 19.4724 11.5492 19.4724 11.0979C19.4724 10.6467 19.8382 10.2809 20.2894 10.2809C20.7406 10.2809 21.1064 10.6467 21.1064 11.0979ZM13.7532 15.1831C14.2044 15.1831 14.5702 14.8173 14.5702 14.3661C14.5702 13.9148 14.2044 13.549 13.7532 13.549C13.302 13.549 12.9362 13.9148 12.9362 14.3661C12.9362 14.8173 13.302 15.1831 13.7532 15.1831ZM11.3021 14.3661C11.3021 14.8173 10.9363 15.1831 10.4851 15.1831C10.0338 15.1831 9.66804 14.8173 9.66804 14.3661C9.66804 13.9148 10.0338 13.549 10.4851 13.549C10.9363 13.549 11.3021 13.9148 11.3021 14.3661ZM7.21693 15.1831C7.66815 15.1831 8.03395 14.8173 8.03395 14.3661C8.03395 13.9148 7.66815 13.549 7.21693 13.549C6.7657 13.549 6.39991 13.9148 6.39991 14.3661C6.39991 14.8173 6.7657 15.1831 7.21693 15.1831ZM4.76595 14.3661C4.76595 14.8173 4.40015 15.1831 3.94893 15.1831C3.4977 15.1831 3.1319 14.8173 3.1319 14.3661C3.1319 13.9148 3.4977 13.549 3.94893 13.549C4.40015 13.549 4.76595 13.9148 4.76595 14.3661ZM17.0211 15.1831C17.4723 15.1831 17.8381 14.8173 17.8381 14.3661C17.8381 13.9148 17.4723 13.549 17.0211 13.549C16.5699 13.549 16.2041 13.9148 16.2041 14.3661C16.2041 14.8173 16.5699 15.1831 17.0211 15.1831ZM21.1064 14.3661C21.1064 14.8173 20.7406 15.1831 20.2894 15.1831C19.8382 15.1831 19.4724 14.8173 19.4724 14.3661C19.4724 13.9148 19.8382 13.549 20.2894 13.549C20.7406 13.549 21.1064 13.9148 21.1064 14.3661ZM13.7532 18.4511C14.2044 18.4511 14.5702 18.0853 14.5702 17.6341C14.5702 17.1828 14.2044 16.817 13.7532 16.817C13.302 16.817 12.9362 17.1828 12.9362 17.6341C12.9362 18.0853 13.302 18.4511 13.7532 18.4511ZM11.3021 17.6341C11.3021 18.0853 10.9363 18.4511 10.4851 18.4511C10.0338 18.4511 9.66804 18.0853 9.66804 17.6341C9.66804 17.1828 10.0338 16.817 10.4851 16.817C10.9363 16.817 11.3021 17.1828 11.3021 17.6341ZM7.21693 18.4511C7.66815 18.4511 8.03395 18.0853 8.03395 17.6341C8.03395 17.1828 7.66815 16.817 7.21693 16.817C6.7657 16.817 6.39991 17.1828 6.39991 17.6341C6.39991 18.0853 6.7657 18.4511 7.21693 18.4511ZM4.76595 17.6341C4.76595 18.0853 4.40015 18.4511 3.94893 18.4511C3.4977 18.4511 3.1319 18.0853 3.1319 17.6341C3.1319 17.1828 3.4977 16.817 3.94893 16.817C4.40015 16.817 4.76595 17.1828 4.76595 17.6341ZM13.7532 21.7191C14.2044 21.7191 14.5702 21.3533 14.5702 20.9021C14.5702 20.4509 14.2044 20.0851 13.7532 20.0851C13.302 20.0851 12.9362 20.4509 12.9362 20.9021C12.9362 21.3533 13.302 21.7191 13.7532 21.7191ZM11.3021 20.9021C11.3021 21.3533 10.9363 21.7191 10.4851 21.7191C10.0338 21.7191 9.66804 21.3533 9.66804 20.9021C9.66804 20.4509 10.0338 20.0851 10.4851 20.0851C10.9363 20.0851 11.3021 20.4509 11.3021 20.9021ZM7.21693 21.7191C7.66815 21.7191 8.03395 21.3533 8.03395 20.9021C8.03395 20.4509 7.66815 20.0851 7.21693 20.0851C6.7657 20.0851 6.39991 20.4509 6.39991 20.9021C6.39991 21.3533 6.7657 21.7191 7.21693 21.7191ZM4.76595 20.9021C4.76595 21.3533 4.40015 21.7191 3.94893 21.7191C3.4977 21.7191 3.1319 21.3533 3.1319 20.9021C3.1319 20.4509 3.4977 20.0851 3.94893 20.0851C4.40015 20.0851 4.76595 20.4509 4.76595 20.9021ZM13.7532 24.9872C14.2044 24.9872 14.5702 24.6214 14.5702 24.1702C14.5702 23.719 14.2044 23.3532 13.7532 23.3532C13.302 23.3532 12.9362 23.719 12.9362 24.1702C12.9362 24.6214 13.302 24.9872 13.7532 24.9872ZM11.3021 24.1702C11.3021 24.6214 10.9363 24.9872 10.4851 24.9872C10.0338 24.9872 9.66804 24.6214 9.66804 24.1702C9.66804 23.719 10.0338 23.3532 10.4851 23.3532C10.9363 23.3532 11.3021 23.719 11.3021 24.1702ZM7.21693 24.9872C7.66815 24.9872 8.03395 24.6214 8.03395 24.1702C8.03395 23.719 7.66815 23.3532 7.21693 23.3532C6.7657 23.3532 6.39991 23.719 6.39991 24.1702C6.39991 24.6214 6.7657 24.9872 7.21693 24.9872ZM4.76595 24.1702C4.76595 24.6214 4.40015 24.9872 3.94893 24.9872C3.4977 24.9872 3.1319 24.6214 3.1319 24.1702C3.1319 23.719 3.4977 23.3532 3.94893 23.3532C4.40015 23.3532 4.76595 23.719 4.76595 24.1702ZM17.0211 18.4511C17.4723 18.4511 17.8381 18.0853 17.8381 17.6341C17.8381 17.1828 17.4723 16.817 17.0211 16.817C16.5699 16.817 16.2041 17.1828 16.2041 17.6341C16.2041 18.0853 16.5699 18.4511 17.0211 18.4511ZM17.8381 20.9021C17.8381 21.3533 17.4723 21.7191 17.0211 21.7191C16.5699 21.7191 16.2041 21.3533 16.2041 20.9021C16.2041 20.4509 16.5699 20.0851 17.0211 20.0851C17.4723 20.0851 17.8381 20.4509 17.8381 20.9021ZM17.0211 24.9872C17.4723 24.9872 17.8381 24.6214 17.8381 24.1702C17.8381 23.719 17.4723 23.3532 17.0211 23.3532C16.5699 23.3532 16.2041 23.719 16.2041 24.1702C16.2041 24.6214 16.5699 24.9872 17.0211 24.9872ZM21.1064 17.6341C21.1064 18.0853 20.7406 18.4511 20.2894 18.4511C19.8382 18.4511 19.4724 18.0853 19.4724 17.6341C19.4724 17.1828 19.8382 16.817 20.2894 16.817C20.7406 16.817 21.1064 17.1828 21.1064 17.6341ZM20.2894 21.7191C20.7406 21.7191 21.1064 21.3533 21.1064 20.9021C21.1064 20.4509 20.7406 20.0851 20.2894 20.0851C19.8382 20.0851 19.4724 20.4509 19.4724 20.9021C19.4724 21.3533 19.8382 21.7191 20.2894 21.7191ZM21.1064 24.1702C21.1064 24.6214 20.7406 24.9872 20.2894 24.9872C19.8382 24.9872 19.4724 24.6214 19.4724 24.1702C19.4724 23.719 19.8382 23.3532 20.2894 23.3532C20.7406 23.3532 21.1064 23.719 21.1064 24.1702ZM32 16L27.234 11.9149V20.0851L32 16Z" fill="white"/>
</svg>
