<svg width="32" height="32" viewBox="0 0 32 32" fill="none" xmlns="http://www.w3.org/2000/svg">
<g clip-path="url(#clip0_1967_19520)">
<path fill-rule="evenodd" clip-rule="evenodd" d="M4.7 -0.5H28.6915V25.6447H8.3C5.64903 25.6447 3.5 23.4956 3.5 20.8447V0.7C3.5 0.0372584 4.03726 -0.5 4.7 -0.5ZM15.1214 8.76349C14.6814 8.76349 14.3248 8.4068 14.3248 7.96681C14.3248 7.52681 14.6814 7.17013 15.1214 7.17013C15.5614 7.17013 15.9181 7.52681 15.9181 7.96681C15.9181 8.4068 15.5614 8.76349 15.1214 8.76349ZM17.5115 7.96681C17.5115 8.4068 17.8682 8.76349 18.3082 8.76349C18.7482 8.76349 19.1049 8.4068 19.1049 7.96681C19.1049 7.52681 18.7482 7.17013 18.3082 7.17013C17.8682 7.17013 17.5115 7.52681 17.5115 7.96681ZM21.495 8.76349C21.055 8.76349 20.6983 8.4068 20.6983 7.96681C20.6983 7.52681 21.055 7.17013 21.495 7.17013C21.935 7.17013 22.2916 7.52681 22.2916 7.96681C22.2916 8.4068 21.935 8.76349 21.495 8.76349ZM23.885 7.96681C23.885 8.4068 24.2417 8.76349 24.6817 8.76349C25.1216 8.76349 25.4783 8.4068 25.4783 7.96681C25.4783 7.52681 25.1216 7.17013 24.6817 7.17013C24.2417 7.17013 23.885 7.52681 23.885 7.96681ZM11.9348 8.76349C11.4948 8.76349 11.1381 8.4068 11.1381 7.96681C11.1381 7.52681 11.4948 7.17013 11.9348 7.17013C12.3748 7.17013 12.7315 7.52681 12.7315 7.96681C12.7315 8.4068 12.3748 8.76349 11.9348 8.76349ZM7.95124 7.96681C7.95124 8.4068 8.30793 8.76349 8.74792 8.76349C9.18792 8.76349 9.54461 8.4068 9.54461 7.96681C9.54461 7.52681 9.18792 7.17013 8.74792 7.17013C8.30793 7.17013 7.95124 7.52681 7.95124 7.96681ZM15.1214 11.9503C14.6814 11.9503 14.3248 11.5936 14.3248 11.1536C14.3248 10.7136 14.6814 10.3569 15.1214 10.3569C15.5614 10.3569 15.9181 10.7136 15.9181 11.1536C15.9181 11.5936 15.5614 11.9503 15.1214 11.9503ZM17.5115 11.1536C17.5115 11.5936 17.8682 11.9503 18.3082 11.9503C18.7482 11.9503 19.1049 11.5936 19.1049 11.1536C19.1049 10.7136 18.7482 10.3569 18.3082 10.3569C17.8682 10.3569 17.5115 10.7136 17.5115 11.1536ZM21.495 11.9503C21.055 11.9503 20.6983 11.5936 20.6983 11.1536C20.6983 10.7136 21.055 10.3569 21.495 10.3569C21.935 10.3569 22.2916 10.7136 22.2916 11.1536C22.2916 11.5936 21.935 11.9503 21.495 11.9503ZM23.885 11.1536C23.885 11.5936 24.2417 11.9503 24.6817 11.9503C25.1216 11.9503 25.4783 11.5936 25.4783 11.1536C25.4783 10.7136 25.1216 10.3569 24.6817 10.3569C24.2417 10.3569 23.885 10.7136 23.885 11.1536ZM11.9348 11.9503C11.4948 11.9503 11.1381 11.5936 11.1381 11.1536C11.1381 10.7136 11.4948 10.3569 11.9348 10.3569C12.3748 10.3569 12.7315 10.7136 12.7315 11.1536C12.7315 11.5936 12.3748 11.9503 11.9348 11.9503ZM7.95124 11.1536C7.95124 11.5936 8.30793 11.9503 8.74792 11.9503C9.18792 11.9503 9.54461 11.5936 9.54461 11.1536C9.54461 10.7136 9.18792 10.3569 8.74792 10.3569C8.30793 10.3569 7.95124 10.7136 7.95124 11.1536ZM15.1214 15.137C14.6814 15.137 14.3248 14.7803 14.3248 14.3403C14.3248 13.9003 14.6814 13.5436 15.1214 13.5436C15.5614 13.5436 15.9181 13.9003 15.9181 14.3403C15.9181 14.7803 15.5614 15.137 15.1214 15.137ZM17.5115 14.3403C17.5115 14.7803 17.8682 15.137 18.3082 15.137C18.7482 15.137 19.1049 14.7803 19.1049 14.3403C19.1049 13.9003 18.7482 13.5436 18.3082 13.5436C17.8682 13.5436 17.5115 13.9003 17.5115 14.3403ZM21.495 15.137C21.055 15.137 20.6983 14.7803 20.6983 14.3403C20.6983 13.9003 21.055 13.5436 21.495 13.5436C21.935 13.5436 22.2916 13.9003 22.2916 14.3403C22.2916 14.7803 21.935 15.137 21.495 15.137ZM23.885 14.3403C23.885 14.7803 24.2417 15.137 24.6817 15.137C25.1216 15.137 25.4783 14.7803 25.4783 14.3403C25.4783 13.9003 25.1216 13.5436 24.6817 13.5436C24.2417 13.5436 23.885 13.9003 23.885 14.3403ZM15.1214 18.3236C14.6814 18.3236 14.3248 17.9669 14.3248 17.5269C14.3248 17.087 14.6814 16.7303 15.1214 16.7303C15.5614 16.7303 15.9181 17.087 15.9181 17.5269C15.9181 17.9669 15.5614 18.3236 15.1214 18.3236ZM17.5115 17.5269C17.5115 17.9669 17.8682 18.3236 18.3082 18.3236C18.7482 18.3236 19.1049 17.9669 19.1049 17.5269C19.1049 17.087 18.7482 16.7303 18.3082 16.7303C17.8682 16.7303 17.5115 17.087 17.5115 17.5269ZM21.495 18.3236C21.055 18.3236 20.6983 17.9669 20.6983 17.5269C20.6983 17.087 21.055 16.7303 21.495 16.7303C21.935 16.7303 22.2916 17.087 22.2916 17.5269C22.2916 17.9669 21.935 18.3236 21.495 18.3236ZM23.885 17.5269C23.885 17.9669 24.2417 18.3236 24.6817 18.3236C25.1216 18.3236 25.4783 17.9669 25.4783 17.5269C25.4783 17.087 25.1216 16.7303 24.6817 16.7303C24.2417 16.7303 23.885 17.087 23.885 17.5269ZM15.1214 21.5104C14.6814 21.5104 14.3248 21.1537 14.3248 20.7137C14.3248 20.2737 14.6814 19.917 15.1214 19.917C15.5614 19.917 15.9181 20.2737 15.9181 20.7137C15.9181 21.1537 15.5614 21.5104 15.1214 21.5104ZM17.5115 20.7137C17.5115 21.1537 17.8682 21.5104 18.3082 21.5104C18.7482 21.5104 19.1049 21.1537 19.1049 20.7137C19.1049 20.2737 18.7482 19.917 18.3082 19.917C17.8682 19.917 17.5115 20.2737 17.5115 20.7137ZM21.495 21.5104C21.055 21.5104 20.6983 21.1537 20.6983 20.7137C20.6983 20.2737 21.055 19.917 21.495 19.917C21.935 19.917 22.2916 20.2737 22.2916 20.7137C22.2916 21.1537 21.935 21.5104 21.495 21.5104ZM23.885 20.7137C23.885 21.1537 24.2417 21.5104 24.6817 21.5104C25.1216 21.5104 25.4783 21.1537 25.4783 20.7137C25.4783 20.2737 25.1216 19.917 24.6817 19.917C24.2417 19.917 23.885 20.2737 23.885 20.7137ZM11.9348 15.137C11.4948 15.137 11.1381 14.7803 11.1381 14.3403C11.1381 13.9003 11.4948 13.5436 11.9348 13.5436C12.3748 13.5436 12.7315 13.9003 12.7315 14.3403C12.7315 14.7803 12.3748 15.137 11.9348 15.137ZM11.1381 17.5269C11.1381 17.9669 11.4948 18.3236 11.9348 18.3236C12.3748 18.3236 12.7315 17.9669 12.7315 17.5269C12.7315 17.087 12.3748 16.7303 11.9348 16.7303C11.4948 16.7303 11.1381 17.087 11.1381 17.5269ZM11.9348 21.5104C11.4948 21.5104 11.1381 21.1537 11.1381 20.7137C11.1381 20.2737 11.4948 19.917 11.9348 19.917C12.3748 19.917 12.7315 20.2737 12.7315 20.7137C12.7315 21.1537 12.3748 21.5104 11.9348 21.5104ZM7.95124 14.3403C7.95124 14.7803 8.30793 15.137 8.74792 15.137C9.18792 15.137 9.54461 14.7803 9.54461 14.3403C9.54461 13.9003 9.18792 13.5436 8.74792 13.5436C8.30793 13.5436 7.95124 13.9003 7.95124 14.3403ZM8.74792 18.3236C8.30793 18.3236 7.95124 17.9669 7.95124 17.5269C7.95124 17.087 8.30793 16.7303 8.74792 16.7303C9.18792 16.7303 9.54461 17.087 9.54461 17.5269C9.54461 17.9669 9.18792 18.3236 8.74792 18.3236ZM7.95124 20.7137C7.95124 21.1537 8.30793 21.5104 8.74792 21.5104C9.18792 21.5104 9.54461 21.1537 9.54461 20.7137C9.54461 20.2737 9.18792 19.917 8.74792 19.917C8.30793 19.917 7.95124 20.2737 7.95124 20.7137ZM15.9181 32L19.9015 27.3527H11.9347L15.9181 32Z" fill="white"/>
</g>
<defs>
<clipPath id="clip0_1967_19520">
<rect width="32" height="32" fill="white"/>
</clipPath>
</defs>
</svg>
