<svg width="32" height="32" viewBox="0 0 32 32" fill="none" xmlns="http://www.w3.org/2000/svg">
<path fill-rule="evenodd" clip-rule="evenodd" d="M16 30C23.732 30 30 23.732 30 16C30 8.26801 23.732 2 16 2C8.26801 2 2 8.26801 2 16C2 23.732 8.26801 30 16 30ZM24.5685 20.8388C24.5685 20.8388 25.5362 20.4669 25.9314 19.9453H25.9313C26.3258 19.4237 26.1508 18.6663 24.5969 18.1524C23.218 17.6054 21.4616 17.4175 20.0272 17.5828C18.5926 17.7491 17.5726 18.1269 17.5726 18.1269L17.369 18.199V20.2702L20.8994 18.969C21.5011 18.7426 22.3844 18.6945 22.8722 18.8623C23.3609 19.0296 23.2686 19.3483 22.6673 19.5738L17.369 21.5493V23.545L24.5685 20.8388ZM18.0544 11.4431V16.5469C20.1076 17.5842 21.7234 16.546 21.7234 13.8067C21.7234 10.9962 20.7777 9.74876 17.9882 8.74655C16.8914 8.35965 14.851 7.71645 13.4506 7.44444V22.6838L16.7444 23.7778V10.9966C16.7444 10.3976 16.9997 9.99779 17.4113 10.1358C17.9487 10.292 18.0544 10.8437 18.0544 11.4431ZM6.27315 19.3267C5.54607 19.891 5.81151 20.8705 7.40682 21.3407V21.3406C9.11825 21.9308 10.8549 22.0472 12.4855 21.7683C12.5193 21.7624 12.5538 21.7564 12.5886 21.7504C12.6638 21.7375 12.7401 21.7243 12.8107 21.7111V19.9188L11.1806 20.5378C10.5794 20.7638 9.6956 20.8113 9.20741 20.6441C8.71952 20.4768 8.81185 20.1577 9.41218 19.9322L12.8107 18.6595V16.6561L8.08804 18.4134C8.08804 18.4134 6.94518 18.8056 6.27315 19.3267Z" fill="white"/>
</svg>
