<svg width="64" height="64" viewBox="0 0 64 64" fill="none" xmlns="http://www.w3.org/2000/svg">
<path fill-rule="evenodd" clip-rule="evenodd" d="M0 6.92249H45.9265C47.252 6.92249 48.3265 7.997 48.3265 9.32249V17.4446L42.7378 22.867L46.5991 26.6134H35.2653V37.3864H46.5991L42.7378 41.1328L48.3265 46.5552V47.4776C48.3265 52.7795 44.0285 57.0776 38.7265 57.0776H0V6.92249ZM46.4892 22.867L48.3265 21.0843L50.538 18.9387L64 32L50.538 45.0612L48.3265 42.9155L46.4892 41.1328L46.4892 41.1328L48.3265 39.3501L53.0429 34.7742H37.8775L37.8775 34.7742V29.2256H48.3265V29.2257H53.0429L48.3265 24.6497L46.4892 22.8671L46.4892 22.867ZM9.14299 22.5961C9.14299 23.4617 8.44126 24.1634 7.57564 24.1634C6.71002 24.1634 6.00829 23.4617 6.00829 22.5961C6.00829 21.7305 6.71002 21.0287 7.57564 21.0287C8.44126 21.0287 9.14299 21.7305 9.14299 22.5961ZM7.57564 30.4328C8.44126 30.4328 9.14299 29.731 9.14299 28.8654C9.14299 27.9998 8.44126 27.2981 7.57564 27.2981C6.71002 27.2981 6.00829 27.9998 6.00829 28.8654C6.00829 29.731 6.71002 30.4328 7.57564 30.4328ZM9.14299 35.1348C9.14299 36.0004 8.44126 36.7021 7.57564 36.7021C6.71002 36.7021 6.00829 36.0004 6.00829 35.1348C6.00829 34.2692 6.71002 33.5674 7.57564 33.5674C8.44126 33.5674 9.14299 34.2692 9.14299 35.1348ZM7.57564 42.9715C8.44126 42.9715 9.14299 42.2697 9.14299 41.4041C9.14299 40.5385 8.44126 39.8368 7.57564 39.8368C6.71002 39.8368 6.00829 40.5385 6.00829 41.4041C6.00829 42.2697 6.71002 42.9715 7.57564 42.9715ZM9.14299 47.6735C9.14299 48.5391 8.44126 49.2408 7.57564 49.2408C6.71002 49.2408 6.00829 48.5391 6.00829 47.6735C6.00829 46.8079 6.71002 46.1061 7.57564 46.1061C8.44126 46.1061 9.14299 46.8079 9.14299 47.6735ZM13.8448 24.1634C14.7104 24.1634 15.4121 23.4617 15.4121 22.5961C15.4121 21.7305 14.7104 21.0287 13.8448 21.0287C12.9791 21.0287 12.2774 21.7305 12.2774 22.5961C12.2774 23.4617 12.9791 24.1634 13.8448 24.1634ZM21.6819 22.5961C21.6819 23.4617 20.9802 24.1634 20.1146 24.1634C19.249 24.1634 18.5472 23.4617 18.5472 22.5961C18.5472 21.7305 19.249 21.0287 20.1146 21.0287C20.9802 21.0287 21.6819 21.7305 21.6819 22.5961ZM13.8448 30.4328C14.7104 30.4328 15.4121 29.731 15.4121 28.8654C15.4121 27.9998 14.7104 27.2981 13.8448 27.2981C12.9791 27.2981 12.2774 27.9998 12.2774 28.8654C12.2774 29.731 12.9791 30.4328 13.8448 30.4328ZM21.6819 28.8654C21.6819 29.731 20.9802 30.4328 20.1146 30.4328C19.249 30.4328 18.5472 29.731 18.5472 28.8654C18.5472 27.9998 19.249 27.2981 20.1146 27.2981C20.9802 27.2981 21.6819 27.9998 21.6819 28.8654ZM13.8448 36.7021C14.7104 36.7021 15.4121 36.0004 15.4121 35.1348C15.4121 34.2692 14.7104 33.5674 13.8448 33.5674C12.9791 33.5674 12.2774 34.2692 12.2774 35.1348C12.2774 36.0004 12.9791 36.7021 13.8448 36.7021ZM15.4121 41.4041C15.4121 42.2697 14.7104 42.9715 13.8448 42.9715C12.9791 42.9715 12.2774 42.2697 12.2774 41.4041C12.2774 40.5385 12.9791 39.8368 13.8448 39.8368C14.7104 39.8368 15.4121 40.5385 15.4121 41.4041ZM13.8448 49.2408C14.7104 49.2408 15.4121 48.5391 15.4121 47.6735C15.4121 46.8079 14.7104 46.1061 13.8448 46.1061C12.9791 46.1061 12.2774 46.8079 12.2774 47.6735C12.2774 48.5391 12.9791 49.2408 13.8448 49.2408ZM21.6819 35.1348C21.6819 36.0004 20.9802 36.7021 20.1146 36.7021C19.249 36.7021 18.5472 36.0004 18.5472 35.1348C18.5472 34.2692 19.249 33.5674 20.1146 33.5674C20.9802 33.5674 21.6819 34.2692 21.6819 35.1348ZM20.1146 42.9715C20.9802 42.9715 21.6819 42.2697 21.6819 41.4041C21.6819 40.5385 20.9802 39.8368 20.1146 39.8368C19.249 39.8368 18.5472 40.5385 18.5472 41.4041C18.5472 42.2697 19.249 42.9715 20.1146 42.9715ZM21.6819 47.6735C21.6819 48.5391 20.9802 49.2408 20.1146 49.2408C19.249 49.2408 18.5472 48.5391 18.5472 47.6735C18.5472 46.8079 19.249 46.1061 20.1146 46.1061C20.9802 46.1061 21.6819 46.8079 21.6819 47.6735ZM26.3837 42.9715C27.2493 42.9715 27.951 42.2697 27.951 41.4041C27.951 40.5385 27.2493 39.8368 26.3837 39.8368C25.5181 39.8368 24.8163 40.5385 24.8163 41.4041C24.8163 42.2697 25.5181 42.9715 26.3837 42.9715ZM27.951 47.6735C27.951 48.5391 27.2493 49.2408 26.3837 49.2408C25.5181 49.2408 24.8163 48.5391 24.8163 47.6735C24.8163 46.8079 25.5181 46.1061 26.3837 46.1061C27.2493 46.1061 27.951 46.8079 27.951 47.6735ZM32.6528 49.2408C33.5184 49.2408 34.2201 48.5391 34.2201 47.6735C34.2201 46.8079 33.5184 46.1061 32.6528 46.1061C31.7872 46.1061 31.0855 46.8079 31.0855 47.6735C31.0855 48.5391 31.7872 49.2408 32.6528 49.2408Z" fill="white"/>
</svg>
