<svg width="64" height="64" viewBox="0 0 64 64" fill="none" xmlns="http://www.w3.org/2000/svg">
<path fill-rule="evenodd" clip-rule="evenodd" d="M62 2H2L22.3333 22.3333H23.7989C26.1322 22.3333 27.8589 22.7922 28.9789 23.71C30.0989 24.6278 30.6589 25.9189 30.6589 27.5833C30.6589 28.5659 30.4933 29.4256 30.1622 30.1622L35.0075 35.0075L39.2949 31.5267C40.026 30.92 40.5783 30.4378 40.9516 30.08C41.3249 29.7222 41.6127 29.3567 41.8149 28.9833C42.0327 28.61 42.1416 28.1978 42.1416 27.7467C42.1416 27.0467 41.8694 26.5178 41.3249 26.16C40.796 25.8022 40.1194 25.6233 39.2949 25.6233C38.6727 25.6233 38.0583 25.7167 37.4516 25.9033C36.8449 26.0744 36.3005 26.3078 35.8183 26.6033L34.5116 23.6167C35.2583 23.1344 36.0905 22.7533 37.0083 22.4733C37.9416 22.1933 38.9372 22.0533 39.9949 22.0533C41.9549 22.0533 43.5338 22.4656 44.7316 23.29C45.9294 24.0989 46.5283 25.2967 46.5283 26.8833C46.5283 27.9722 46.2172 28.9678 45.5949 29.87C44.9883 30.7567 44.0472 31.7133 42.7716 32.74L39.6916 35.19H47.0183V38.6667H38.6667L53.2132 53.2132C58.6421 47.7843 62 40.2843 62 32V2Z" fill="white"/>
<path opacity="0.5" fill-rule="evenodd" clip-rule="evenodd" d="M38.6667 38.6667L53.2132 53.2132C47.7843 58.6421 40.2843 62 32 62C15.4315 62 2 48.5685 2 32V2L22.3333 22.3333H17.4521V38.6667H21.4887V33.4867H23.4254H23.7754L26.8787 38.6667H31.3587L27.6021 32.67C28.5665 32.2344 29.3132 31.5967 29.8421 30.7567C29.9619 30.5683 30.0686 30.3701 30.1621 30.1621L35.0075 35.0075L34.5814 35.3533V38.6667H38.6667ZM21.4887 30.0333V25.7867H23.6121C24.5609 25.7867 25.2532 25.9578 25.6887 26.3C26.1243 26.6267 26.3421 27.1244 26.3421 27.7933C26.3421 28.5244 26.1009 29.0844 25.6187 29.4733C25.1521 29.8467 24.5065 30.0333 23.6821 30.0333H21.4887Z" fill="white"/>
</svg>
