<svg width="64" height="64" viewBox="0 0 64 64" fill="none" xmlns="http://www.w3.org/2000/svg">
<path fill-rule="evenodd" clip-rule="evenodd" d="M49.3333 6.40002H2.4C1.07452 6.40002 0 7.47454 0 8.80002V48C0 53.3019 4.29807 57.6 9.6 57.6H49.3333V48.1519L42.2949 41.323L46.2367 37.4986H34.6667V26.5011H46.2367L42.2949 22.6767L49.3333 15.8478V6.40002ZM46.1245 22.6767L49.3333 19.5634L50.2576 18.6666L64 31.9999L50.2576 45.3332L46.1243 41.323L46.1245 41.323L49.3333 38.2096L52.8146 34.832H37.3333V29.1678H37.3334V29.1678H49.3333V29.1678H52.8146L46.1243 22.6768L46.1245 22.6767ZM20.8 22.4001C20.8 23.2838 21.5164 24.0001 22.4 24.0001C23.2837 24.0001 24 23.2838 24 22.4001C24 21.5164 23.2837 20.8001 22.4 20.8001C21.5164 20.8001 20.8 21.5164 20.8 22.4001ZM16.0003 24.0001C15.1167 24.0001 14.4003 23.2838 14.4003 22.4001C14.4003 21.5164 15.1167 20.8001 16.0003 20.8001C16.884 20.8001 17.6003 21.5164 17.6003 22.4001C17.6003 23.2838 16.884 24.0001 16.0003 24.0001ZM7.99989 22.4001C7.99989 23.2838 8.71623 24.0001 9.59989 24.0001C10.4835 24.0001 11.1999 23.2838 11.1999 22.4001C11.1999 21.5164 10.4835 20.8001 9.59989 20.8001C8.71623 20.8001 7.99989 21.5164 7.99989 22.4001ZM22.4 30.4002C21.5164 30.4002 20.8 29.6838 20.8 28.8002C20.8 27.9165 21.5164 27.2002 22.4 27.2002C23.2837 27.2002 24 27.9165 24 28.8002C24 29.6838 23.2837 30.4002 22.4 30.4002ZM14.4003 28.8002C14.4003 29.6838 15.1167 30.4002 16.0003 30.4002C16.884 30.4002 17.6003 29.6838 17.6003 28.8002C17.6003 27.9165 16.884 27.2002 16.0003 27.2002C15.1167 27.2002 14.4003 27.9165 14.4003 28.8002ZM9.59989 30.4002C8.71623 30.4002 7.99989 29.6838 7.99989 28.8002C7.99989 27.9165 8.71623 27.2002 9.59989 27.2002C10.4835 27.2002 11.1999 27.9165 11.1999 28.8002C11.1999 29.6838 10.4835 30.4002 9.59989 30.4002ZM33.6002 48C33.6002 48.8837 34.3165 49.6 35.2002 49.6C36.0838 49.6 36.8002 48.8837 36.8002 48C36.8002 47.1164 36.0838 46.4 35.2002 46.4C34.3165 46.4 33.6002 47.1164 33.6002 48ZM28.7997 43.1999C27.9161 43.1999 27.1997 42.4836 27.1997 41.5999C27.1997 40.7163 27.9161 39.9999 28.7997 39.9999C29.6834 39.9999 30.3997 40.7163 30.3997 41.5999C30.3997 42.4836 29.6834 43.1999 28.7997 43.1999ZM27.1997 48C27.1997 48.8837 27.9161 49.6 28.7997 49.6C29.6834 49.6 30.3997 48.8837 30.3997 48C30.3997 47.1164 29.6834 46.4 28.7997 46.4C27.9161 46.4 27.1997 47.1164 27.1997 48ZM22.4 36.8C21.5164 36.8 20.8 36.0837 20.8 35.2C20.8 34.3163 21.5164 33.6 22.4 33.6C23.2837 33.6 24 34.3163 24 35.2C24 36.0837 23.2837 36.8 22.4 36.8ZM20.8 41.5999C20.8 42.4836 21.5164 43.1999 22.4 43.1999C23.2837 43.1999 24 42.4836 24 41.5999C24 40.7163 23.2837 39.9999 22.4 39.9999C21.5164 39.9999 20.8 40.7163 20.8 41.5999ZM22.4 49.6C21.5164 49.6 20.8 48.8837 20.8 48C20.8 47.1164 21.5164 46.4 22.4 46.4C23.2837 46.4 24 47.1164 24 48C24 48.8837 23.2837 49.6 22.4 49.6ZM14.4003 35.2C14.4003 36.0837 15.1167 36.8 16.0003 36.8C16.884 36.8 17.6003 36.0837 17.6003 35.2C17.6003 34.3163 16.884 33.6 16.0003 33.6C15.1167 33.6 14.4003 34.3163 14.4003 35.2ZM16.0003 43.1999C15.1167 43.1999 14.4003 42.4836 14.4003 41.5999C14.4003 40.7163 15.1167 39.9999 16.0003 39.9999C16.884 39.9999 17.6003 40.7163 17.6003 41.5999C17.6003 42.4836 16.884 43.1999 16.0003 43.1999ZM14.4003 48C14.4003 48.8837 15.1167 49.6 16.0003 49.6C16.884 49.6 17.6003 48.8837 17.6003 48C17.6003 47.1164 16.884 46.4 16.0003 46.4C15.1167 46.4 14.4003 47.1164 14.4003 48ZM9.59989 36.8C8.71623 36.8 7.99989 36.0837 7.99989 35.2C7.99989 34.3163 8.71623 33.6 9.59989 33.6C10.4835 33.6 11.1999 34.3163 11.1999 35.2C11.1999 36.0837 10.4835 36.8 9.59989 36.8ZM7.99989 41.5999C7.99989 42.4836 8.71623 43.1999 9.59989 43.1999C10.4835 43.1999 11.1999 42.4836 11.1999 41.5999C11.1999 40.7163 10.4835 39.9999 9.59989 39.9999C8.71623 39.9999 7.99989 40.7163 7.99989 41.5999ZM9.59989 49.6C8.71623 49.6 7.99989 48.8837 7.99989 48C7.99989 47.1164 8.71623 46.4 9.59989 46.4C10.4835 46.4 11.1999 47.1164 11.1999 48C11.1999 48.8837 10.4835 49.6 9.59989 49.6Z" fill="white"/>
</svg>
