<svg width="64" height="64" viewBox="0 0 64 64" fill="none" xmlns="http://www.w3.org/2000/svg">
<path fill-rule="evenodd" clip-rule="evenodd" d="M3.09677 17.4839C3.09677 16.3793 3.9922 15.4839 5.09677 15.4839H58.9032C60.0078 15.4839 60.9032 16.3793 60.9032 17.4839V24.6806V26.1189L53.3607 18.8008L47.196 24.7821L50.2477 27.7429H41.2903V36.257H50.2477L47.196 39.2179L53.3607 45.1991L60.9032 37.8811V39.3193V40.5161C60.9032 44.9344 57.3215 48.5161 52.9032 48.5161H11.0968C6.6785 48.5161 3.09677 44.9344 3.09677 40.5161V37.8811L10.6393 45.1991L16.804 39.2179L13.7523 36.2571H22.7097V27.7429H13.7523L16.804 24.7821L10.6393 18.8009L3.09677 26.1188V17.4839ZM3.09677 28.9954L0 32L3.09677 35.0046L10.6393 42.3226L13.8392 39.2179L13.7804 39.1609L12.4415 37.8619L9.55602 35.0623L8.65966 34.1926V34.1925H20.6452V34.072V34.057V29.943V29.928V29.8074H18.5728C18.5728 29.8074 18.5728 29.8074 18.5728 29.8075H16.524C16.524 29.8074 16.524 29.8074 16.524 29.8074H14.4437C14.4437 29.8074 14.4437 29.8074 14.4437 29.8075H12.3949C12.3949 29.8074 12.3949 29.8074 12.3949 29.8074H10.3147C10.3147 29.8074 10.3147 29.8074 10.3147 29.8075H8.65966L8.65969 29.8074H8.65966L13.8392 24.7821L10.6393 21.6774L3.09677 28.9954ZM53.3607 21.6774L60.9032 28.9954L64 32L60.9032 35.0045L59.7434 36.1298L53.3607 42.3226L53.3607 42.3225L50.1608 39.2179L50.1608 39.2179L55.3403 34.1926H43.3548L43.3548 34.1925V29.8074H55.3403L50.1608 24.7821L53.3607 21.6774L53.3607 21.6774ZM34.0645 26.8387C34.6346 26.8387 35.0967 26.3766 35.0967 25.8065C35.0967 25.2364 34.6346 24.7742 34.0645 24.7742C33.4944 24.7742 33.0322 25.2364 33.0322 25.8065C33.0322 26.3766 33.4944 26.8387 34.0645 26.8387ZM30.9677 25.8065C30.9677 26.3766 30.5056 26.8387 29.9355 26.8387C29.3654 26.8387 28.9032 26.3766 28.9032 25.8065C28.9032 25.2364 29.3654 24.7742 29.9355 24.7742C30.5056 24.7742 30.9677 25.2364 30.9677 25.8065ZM34.0645 30.9677C34.6346 30.9677 35.0967 30.5056 35.0967 29.9355C35.0967 29.3654 34.6346 28.9032 34.0645 28.9032C33.4944 28.9032 33.0322 29.3654 33.0322 29.9355C33.0322 30.5056 33.4944 30.9677 34.0645 30.9677ZM30.9677 29.9355C30.9677 30.5056 30.5056 30.9677 29.9355 30.9677C29.3654 30.9677 28.9032 30.5056 28.9032 29.9355C28.9032 29.3654 29.3654 28.9032 29.9355 28.9032C30.5056 28.9032 30.9677 29.3654 30.9677 29.9355ZM34.0645 35.0968C34.6346 35.0968 35.0967 34.6346 35.0967 34.0645C35.0967 33.4944 34.6346 33.0323 34.0645 33.0323C33.4944 33.0323 33.0322 33.4944 33.0322 34.0645C33.0322 34.6346 33.4944 35.0968 34.0645 35.0968ZM34.0645 39.2258C34.6346 39.2258 35.0967 38.7636 35.0967 38.1936C35.0967 37.6234 34.6346 37.1613 34.0645 37.1613C33.4944 37.1613 33.0322 37.6234 33.0322 38.1936C33.0322 38.7636 33.4944 39.2258 34.0645 39.2258ZM34.0645 43.3548C34.6346 43.3548 35.0967 42.8927 35.0967 42.3226C35.0967 41.7525 34.6346 41.2903 34.0645 41.2903C33.4944 41.2903 33.0322 41.7525 33.0322 42.3226C33.0322 42.8927 33.4944 43.3548 34.0645 43.3548ZM26.8387 42.3226C26.8387 42.8927 26.3765 43.3548 25.8064 43.3548C25.2363 43.3548 24.7742 42.8927 24.7742 42.3226C24.7742 41.7525 25.2363 41.2903 25.8064 41.2903C26.3765 41.2903 26.8387 41.7525 26.8387 42.3226ZM38.1935 43.3548C38.7636 43.3548 39.2258 42.8927 39.2258 42.3226C39.2258 41.7525 38.7636 41.2903 38.1935 41.2903C37.6234 41.2903 37.1613 41.7525 37.1613 42.3226C37.1613 42.8927 37.6234 43.3548 38.1935 43.3548ZM30.9677 34.0645C30.9677 34.6346 30.5056 35.0968 29.9355 35.0968C29.3654 35.0968 28.9032 34.6346 28.9032 34.0645C28.9032 33.4944 29.3654 33.0323 29.9355 33.0323C30.5056 33.0323 30.9677 33.4944 30.9677 34.0645ZM29.9355 39.2258C30.5056 39.2258 30.9677 38.7636 30.9677 38.1936C30.9677 37.6234 30.5056 37.1613 29.9355 37.1613C29.3654 37.1613 28.9032 37.6234 28.9032 38.1936C28.9032 38.7636 29.3654 39.2258 29.9355 39.2258ZM30.9677 42.3226C30.9677 42.8927 30.5056 43.3548 29.9355 43.3548C29.3654 43.3548 28.9032 42.8927 28.9032 42.3226C28.9032 41.7525 29.3654 41.2903 29.9355 41.2903C30.5056 41.2903 30.9677 41.7525 30.9677 42.3226Z" fill="white"/>
</svg>
