<svg width="64" height="64" viewBox="0 0 64 64" fill="none" xmlns="http://www.w3.org/2000/svg">
<g clip-path="url(#clip0_1967:19275)">
<path fill-rule="evenodd" clip-rule="evenodd" d="M61.6001 5.28699H12.5219V58.713H54.4001C59.702 58.713 64.0001 54.4149 64.0001 49.113V7.68699C64.0001 6.3615 62.9256 5.28699 61.6001 5.28699ZM40.6261 23.6523C41.5482 23.6523 42.2957 22.9048 42.2957 21.9827C42.2957 21.0607 41.5482 20.3132 40.6261 20.3132C39.704 20.3132 38.9565 21.0607 38.9565 21.9827C38.9565 22.9048 39.704 23.6523 40.6261 23.6523ZM35.6172 21.9827C35.6172 22.9048 34.8698 23.6523 33.9477 23.6523C33.0256 23.6523 32.2781 22.9048 32.2781 21.9827C32.2781 21.0607 33.0256 20.3132 33.9477 20.3132C34.8698 20.3132 35.6172 21.0607 35.6172 21.9827ZM27.2696 23.6523C28.1916 23.6523 28.9391 22.9048 28.9391 21.9827C28.9391 21.0607 28.1916 20.3132 27.2696 20.3132C26.3475 20.3132 25.6 21.0607 25.6 21.9827C25.6 22.9048 26.3475 23.6523 27.2696 23.6523ZM22.2609 21.9827C22.2609 22.9048 21.5134 23.6523 20.5913 23.6523C19.6692 23.6523 18.9217 22.9048 18.9217 21.9827C18.9217 21.0607 19.6692 20.3132 20.5913 20.3132C21.5134 20.3132 22.2609 21.0607 22.2609 21.9827ZM47.3039 23.6523C48.226 23.6523 48.9735 22.9048 48.9735 21.9827C48.9735 21.0607 48.226 20.3132 47.3039 20.3132C46.3818 20.3132 45.6344 21.0607 45.6344 21.9827C45.6344 22.9048 46.3818 23.6523 47.3039 23.6523ZM55.6522 21.9827C55.6522 22.9048 54.9047 23.6523 53.9827 23.6523C53.0606 23.6523 52.3131 22.9048 52.3131 21.9827C52.3131 21.0607 53.0606 20.3132 53.9827 20.3132C54.9047 20.3132 55.6522 21.0607 55.6522 21.9827ZM40.6261 30.3307C41.5482 30.3307 42.2957 29.5832 42.2957 28.6612C42.2957 27.7391 41.5482 26.9916 40.6261 26.9916C39.704 26.9916 38.9565 27.7391 38.9565 28.6612C38.9565 29.5832 39.704 30.3307 40.6261 30.3307ZM35.6172 28.6612C35.6172 29.5832 34.8698 30.3307 33.9477 30.3307C33.0256 30.3307 32.2781 29.5832 32.2781 28.6612C32.2781 27.7391 33.0256 26.9916 33.9477 26.9916C34.8698 26.9916 35.6172 27.7391 35.6172 28.6612ZM27.2696 30.3307C28.1916 30.3307 28.9391 29.5832 28.9391 28.6612C28.9391 27.7391 28.1916 26.9916 27.2696 26.9916C26.3475 26.9916 25.6 27.7391 25.6 28.6612C25.6 29.5832 26.3475 30.3307 27.2696 30.3307ZM22.2609 28.6612C22.2609 29.5832 21.5134 30.3307 20.5913 30.3307C19.6692 30.3307 18.9217 29.5832 18.9217 28.6612C18.9217 27.7391 19.6692 26.9916 20.5913 26.9916C21.5134 26.9916 22.2609 27.7391 22.2609 28.6612ZM47.3039 30.3307C48.226 30.3307 48.9735 29.5832 48.9735 28.6612C48.9735 27.7391 48.226 26.9916 47.3039 26.9916C46.3818 26.9916 45.6344 27.7391 45.6344 28.6612C45.6344 29.5832 46.3818 30.3307 47.3039 30.3307ZM55.6522 28.6612C55.6522 29.5832 54.9047 30.3307 53.9827 30.3307C53.0606 30.3307 52.3131 29.5832 52.3131 28.6612C52.3131 27.7391 53.0606 26.9916 53.9827 26.9916C54.9047 26.9916 55.6522 27.7391 55.6522 28.6612ZM40.6261 37.0087C41.5482 37.0087 42.2957 36.2612 42.2957 35.3391C42.2957 34.417 41.5482 33.6695 40.6261 33.6695C39.704 33.6695 38.9565 34.417 38.9565 35.3391C38.9565 36.2612 39.704 37.0087 40.6261 37.0087ZM35.6172 35.3391C35.6172 36.2612 34.8698 37.0087 33.9477 37.0087C33.0256 37.0087 32.2781 36.2612 32.2781 35.3391C32.2781 34.417 33.0256 33.6695 33.9477 33.6695C34.8698 33.6695 35.6172 34.417 35.6172 35.3391ZM27.2696 37.0087C28.1916 37.0087 28.9391 36.2612 28.9391 35.3391C28.9391 34.417 28.1916 33.6695 27.2696 33.6695C26.3475 33.6695 25.6 34.417 25.6 35.3391C25.6 36.2612 26.3475 37.0087 27.2696 37.0087ZM22.2609 35.3391C22.2609 36.2612 21.5134 37.0087 20.5913 37.0087C19.6692 37.0087 18.9217 36.2612 18.9217 35.3391C18.9217 34.417 19.6692 33.6695 20.5913 33.6695C21.5134 33.6695 22.2609 34.417 22.2609 35.3391ZM40.6261 43.6869C41.5482 43.6869 42.2957 42.9395 42.2957 42.0174C42.2957 41.0953 41.5482 40.3478 40.6261 40.3478C39.704 40.3478 38.9565 41.0953 38.9565 42.0174C38.9565 42.9395 39.704 43.6869 40.6261 43.6869ZM35.6172 42.0174C35.6172 42.9395 34.8698 43.6869 33.9477 43.6869C33.0256 43.6869 32.2781 42.9395 32.2781 42.0174C32.2781 41.0953 33.0256 40.3478 33.9477 40.3478C34.8698 40.3478 35.6172 41.0953 35.6172 42.0174ZM27.2696 43.6869C28.1916 43.6869 28.9391 42.9395 28.9391 42.0174C28.9391 41.0953 28.1916 40.3478 27.2696 40.3478C26.3475 40.3478 25.6 41.0953 25.6 42.0174C25.6 42.9395 26.3475 43.6869 27.2696 43.6869ZM22.2609 42.0174C22.2609 42.9395 21.5134 43.6869 20.5913 43.6869C19.6692 43.6869 18.9217 42.9395 18.9217 42.0174C18.9217 41.0953 19.6692 40.3478 20.5913 40.3478C21.5134 40.3478 22.2609 41.0953 22.2609 42.0174ZM40.6261 50.3654C41.5482 50.3654 42.2957 49.6179 42.2957 48.6958C42.2957 47.7737 41.5482 47.0262 40.6261 47.0262C39.704 47.0262 38.9565 47.7737 38.9565 48.6958C38.9565 49.6179 39.704 50.3654 40.6261 50.3654ZM35.6172 48.6958C35.6172 49.6179 34.8698 50.3654 33.9477 50.3654C33.0256 50.3654 32.2781 49.6179 32.2781 48.6958C32.2781 47.7737 33.0256 47.0262 33.9477 47.0262C34.8698 47.0262 35.6172 47.7737 35.6172 48.6958ZM27.2696 50.3654C28.1916 50.3654 28.9391 49.6179 28.9391 48.6958C28.9391 47.7737 28.1916 47.0262 27.2696 47.0262C26.3475 47.0262 25.6 47.7737 25.6 48.6958C25.6 49.6179 26.3475 50.3654 27.2696 50.3654ZM22.2609 48.6958C22.2609 49.6179 21.5134 50.3654 20.5913 50.3654C19.6692 50.3654 18.9217 49.6179 18.9217 48.6958C18.9217 47.7737 19.6692 47.0262 20.5913 47.0262C21.5134 47.0262 22.2609 47.7737 22.2609 48.6958ZM47.3039 37.0087C48.226 37.0087 48.9735 36.2612 48.9735 35.3391C48.9735 34.417 48.226 33.6695 47.3039 33.6695C46.3818 33.6695 45.6344 34.417 45.6344 35.3391C45.6344 36.2612 46.3818 37.0087 47.3039 37.0087ZM48.9735 42.0174C48.9735 42.9395 48.226 43.6869 47.3039 43.6869C46.3818 43.6869 45.6344 42.9395 45.6344 42.0174C45.6344 41.0953 46.3818 40.3478 47.3039 40.3478C48.226 40.3478 48.9735 41.0953 48.9735 42.0174ZM47.3039 50.3654C48.226 50.3654 48.9735 49.6179 48.9735 48.6958C48.9735 47.7737 48.226 47.0262 47.3039 47.0262C46.3818 47.0262 45.6344 47.7737 45.6344 48.6958C45.6344 49.6179 46.3818 50.3654 47.3039 50.3654ZM55.6522 35.3391C55.6522 36.2612 54.9047 37.0087 53.9827 37.0087C53.0606 37.0087 52.3131 36.2612 52.3131 35.3391C52.3131 34.417 53.0606 33.6695 53.9827 33.6695C54.9047 33.6695 55.6522 34.417 55.6522 35.3391ZM53.9827 43.6869C54.9047 43.6869 55.6522 42.9395 55.6522 42.0174C55.6522 41.0953 54.9047 40.3478 53.9827 40.3478C53.0606 40.3478 52.3131 41.0953 52.3131 42.0174C52.3131 42.9395 53.0606 43.6869 53.9827 43.6869ZM55.6522 48.6958C55.6522 49.6179 54.9047 50.3654 53.9827 50.3654C53.0606 50.3654 52.3131 49.6179 52.3131 48.6958C52.3131 47.7737 53.0606 47.0262 53.9827 47.0262C54.9047 47.0262 55.6522 47.7737 55.6522 48.6958ZM0.00012207 32.3478L9.73924 40.6956V24L0.00012207 32.3478Z" fill="white"/>
</g>
<defs>
<clipPath id="clip0_1967:19275">
<rect width="64" height="64" fill="white"/>
</clipPath>
</defs>
</svg>
