<svg width="32" height="32" viewBox="0 0 32 32" fill="none" xmlns="http://www.w3.org/2000/svg">
<path fill-rule="evenodd" clip-rule="evenodd" d="M1 6.85718H2.54766L3.54898 8.05877C2.17657 8.33434 1.14282 9.54645 1.14282 11V21C1.14282 22.6569 2.48597 24 4.14282 24H13C14.6568 24 16 22.6569 16 21V11C16 9.5029 14.9033 8.26193 13.4696 8.03654L14.4524 6.85718H31C31.5523 6.85718 32 7.30489 32 7.85718V21.1429C32 23.352 30.2091 25.1429 28 25.1429H4C1.79086 25.1429 0 23.352 0 21.1429V7.85718C0 7.30489 0.447715 6.85718 1 6.85718ZM4.14282 9H4.33335L8.50004 14L12.6667 9H13C14.1045 9 15 9.89543 15 11V21C15 22.1046 14.1045 23 13 23H4.14282C3.03825 23 2.14282 22.1046 2.14282 21V11C2.14282 9.89543 3.03825 9 4.14282 9ZM18.1427 13.1429C18.4583 13.1429 18.7141 12.887 18.7141 12.5714C18.7141 12.2558 18.4583 12 18.1427 12C17.8271 12 17.5713 12.2558 17.5713 12.5714C17.5713 12.887 17.8271 13.1429 18.1427 13.1429ZM18.7141 14.8572C18.7141 15.1728 18.4583 15.4286 18.1427 15.4286C17.8271 15.4286 17.5713 15.1728 17.5713 14.8572C17.5713 14.5416 17.8271 14.2858 18.1427 14.2858C18.4583 14.2858 18.7141 14.5416 18.7141 14.8572ZM18.1427 17.7143C18.4583 17.7143 18.7141 17.4584 18.7141 17.1428C18.7141 16.8272 18.4583 16.5714 18.1427 16.5714C17.8271 16.5714 17.5713 16.8272 17.5713 17.1428C17.5713 17.4584 17.8271 17.7143 18.1427 17.7143ZM18.7141 19.4286C18.7141 19.7442 18.4583 20 18.1427 20C17.8271 20 17.5713 19.7442 17.5713 19.4286C17.5713 19.113 17.8271 18.8572 18.1427 18.8572C18.4583 18.8572 18.7141 19.113 18.7141 19.4286ZM18.1427 22.2857C18.4583 22.2857 18.7141 22.0298 18.7141 21.7143C18.7141 21.3987 18.4583 21.1428 18.1427 21.1428C17.8271 21.1428 17.5713 21.3987 17.5713 21.7143C17.5713 22.0298 17.8271 22.2857 18.1427 22.2857ZM21 12.5714C21 12.887 20.7442 13.1429 20.4286 13.1429C20.113 13.1429 19.8572 12.887 19.8572 12.5714C19.8572 12.2558 20.113 12 20.4286 12C20.7442 12 21 12.2558 21 12.5714ZM22.7143 13.1429C23.0298 13.1429 23.2857 12.887 23.2857 12.5714C23.2857 12.2558 23.0298 12 22.7143 12C22.3987 12 22.1428 12.2558 22.1428 12.5714C22.1428 12.887 22.3987 13.1429 22.7143 13.1429ZM25.5716 12.5714C25.5716 12.887 25.3157 13.1429 25.0001 13.1429C24.6845 13.1429 24.4287 12.887 24.4287 12.5714C24.4287 12.2558 24.6845 12 25.0001 12C25.3157 12 25.5716 12.2558 25.5716 12.5714ZM27.2858 13.1429C27.6014 13.1429 27.8572 12.887 27.8572 12.5714C27.8572 12.2558 27.6014 12 27.2858 12C26.9702 12 26.7144 12.2558 26.7144 12.5714C26.7144 12.887 26.9702 13.1429 27.2858 13.1429ZM30.1429 12.5714C30.1429 12.887 29.887 13.1429 29.5714 13.1429C29.2558 13.1429 29 12.887 29 12.5714C29 12.2558 29.2558 12 29.5714 12C29.887 12 30.1429 12.2558 30.1429 12.5714ZM20.4286 15.4286C20.7442 15.4286 21 15.1728 21 14.8572C21 14.5416 20.7442 14.2858 20.4286 14.2858C20.113 14.2858 19.8572 14.5416 19.8572 14.8572C19.8572 15.1728 20.113 15.4286 20.4286 15.4286ZM23.2857 14.8572C23.2857 15.1728 23.0298 15.4286 22.7143 15.4286C22.3987 15.4286 22.1428 15.1728 22.1428 14.8572C22.1428 14.5416 22.3987 14.2858 22.7143 14.2858C23.0298 14.2858 23.2857 14.5416 23.2857 14.8572ZM25.0001 15.4286C25.3157 15.4286 25.5716 15.1728 25.5716 14.8572C25.5716 14.5416 25.3157 14.2858 25.0001 14.2858C24.6845 14.2858 24.4287 14.5416 24.4287 14.8572C24.4287 15.1728 24.6845 15.4286 25.0001 15.4286ZM27.8572 14.8572C27.8572 15.1728 27.6014 15.4286 27.2858 15.4286C26.9702 15.4286 26.7144 15.1728 26.7144 14.8572C26.7144 14.5416 26.9702 14.2858 27.2858 14.2858C27.6014 14.2858 27.8572 14.5416 27.8572 14.8572ZM29.5714 15.4286C29.887 15.4286 30.1429 15.1728 30.1429 14.8572C30.1429 14.5416 29.887 14.2858 29.5714 14.2858C29.2558 14.2858 29 14.5416 29 14.8572C29 15.1728 29.2558 15.4286 29.5714 15.4286ZM21 17.1428C21 17.4584 20.7442 17.7143 20.4286 17.7143C20.113 17.7143 19.8572 17.4584 19.8572 17.1428C19.8572 16.8272 20.113 16.5714 20.4286 16.5714C20.7442 16.5714 21 16.8272 21 17.1428ZM20.4286 20C20.7442 20 21 19.7442 21 19.4286C21 19.113 20.7442 18.8572 20.4286 18.8572C20.113 18.8572 19.8572 19.113 19.8572 19.4286C19.8572 19.7442 20.113 20 20.4286 20ZM21 21.7143C21 22.0298 20.7442 22.2857 20.4286 22.2857C20.113 22.2857 19.8572 22.0298 19.8572 21.7143C19.8572 21.3987 20.113 21.1428 20.4286 21.1428C20.7442 21.1428 21 21.3987 21 21.7143ZM22.7143 17.7143C23.0298 17.7143 23.2857 17.4584 23.2857 17.1428C23.2857 16.8272 23.0298 16.5714 22.7143 16.5714C22.3987 16.5714 22.1428 16.8272 22.1428 17.1428C22.1428 17.4584 22.3987 17.7143 22.7143 17.7143ZM23.2857 19.4286C23.2857 19.7442 23.0298 20 22.7143 20C22.3987 20 22.1428 19.7442 22.1428 19.4286C22.1428 19.113 22.3987 18.8572 22.7143 18.8572C23.0298 18.8572 23.2857 19.113 23.2857 19.4286ZM22.7143 22.2857C23.0298 22.2857 23.2857 22.0298 23.2857 21.7143C23.2857 21.3987 23.0298 21.1428 22.7143 21.1428C22.3987 21.1428 22.1428 21.3987 22.1428 21.7143C22.1428 22.0298 22.3987 22.2857 22.7143 22.2857ZM25.5716 17.1428C25.5716 17.4584 25.3157 17.7143 25.0001 17.7143C24.6845 17.7143 24.4287 17.4584 24.4287 17.1428C24.4287 16.8272 24.6845 16.5714 25.0001 16.5714C25.3157 16.5714 25.5716 16.8272 25.5716 17.1428ZM25.0001 20C25.3157 20 25.5716 19.7442 25.5716 19.4286C25.5716 19.113 25.3157 18.8572 25.0001 18.8572C24.6845 18.8572 24.4287 19.113 24.4287 19.4286C24.4287 19.7442 24.6845 20 25.0001 20ZM25.5716 21.7143C25.5716 22.0298 25.3157 22.2857 25.0001 22.2857C24.6845 22.2857 24.4287 22.0298 24.4287 21.7143C24.4287 21.3987 24.6845 21.1428 25.0001 21.1428C25.3157 21.1428 25.5716 21.3987 25.5716 21.7143ZM27.2858 17.7143C27.6014 17.7143 27.8572 17.4584 27.8572 17.1428C27.8572 16.8272 27.6014 16.5714 27.2858 16.5714C26.9702 16.5714 26.7144 16.8272 26.7144 17.1428C26.7144 17.4584 26.9702 17.7143 27.2858 17.7143ZM27.8572 19.4286C27.8572 19.7442 27.6014 20 27.2858 20C26.9702 20 26.7144 19.7442 26.7144 19.4286C26.7144 19.113 26.9702 18.8572 27.2858 18.8572C27.6014 18.8572 27.8572 19.113 27.8572 19.4286ZM27.2858 22.2857C27.6014 22.2857 27.8572 22.0298 27.8572 21.7143C27.8572 21.3987 27.6014 21.1428 27.2858 21.1428C26.9702 21.1428 26.7144 21.3987 26.7144 21.7143C26.7144 22.0298 26.9702 22.2857 27.2858 22.2857ZM30.1429 17.1428C30.1429 17.4584 29.887 17.7143 29.5714 17.7143C29.2558 17.7143 29 17.4584 29 17.1428C29 16.8272 29.2558 16.5714 29.5714 16.5714C29.887 16.5714 30.1429 16.8272 30.1429 17.1428ZM29.5714 20C29.887 20 30.1429 19.7442 30.1429 19.4286C30.1429 19.113 29.887 18.8572 29.5714 18.8572C29.2558 18.8572 29 19.113 29 19.4286C29 19.7442 29.2558 20 29.5714 20ZM30.1429 21.7143C30.1429 22.0298 29.887 22.2857 29.5714 22.2857C29.2558 22.2857 29 22.0298 29 21.7143C29 21.3987 29.2558 21.1428 29.5714 21.1428C29.887 21.1428 30.1429 21.3987 30.1429 21.7143ZM9 15H8V17H9V15ZM10 14.8095L10.5871 14L12.2061 15.1742L11.619 15.9837L10 14.8095ZM7.12132 14.7071L6.41421 14L5 15.4142L5.70711 16.1213L7.12132 14.7071Z" fill="white"/>
<path d="M2 5L8.50003 13L15 5H2Z" fill="white"/>
<rect x="6" y="1" width="5" height="5" fill="white"/>
</svg>
