<svg width="64" height="64" viewBox="0 0 64 64" fill="none" xmlns="http://www.w3.org/2000/svg">
<path fill-rule="evenodd" clip-rule="evenodd" d="M0 15.7142C0 14.6097 0.895431 13.7142 2 13.7142H62C63.1046 13.7142 64 14.6097 64 15.7142V42.2857C64 46.7039 60.4183 50.2857 56 50.2857H8C3.58172 50.2857 0 46.7039 0 42.2857V15.7142ZM8 25.1428C8 25.774 7.48833 26.2857 6.85714 26.2857C6.22596 26.2857 5.71429 25.774 5.71429 25.1428C5.71429 24.5116 6.22596 23.9999 6.85714 23.9999C7.48833 23.9999 8 24.5116 8 25.1428ZM6.85714 30.8571C7.48833 30.8571 8 30.3454 8 29.7142C8 29.0831 7.48833 28.5714 6.85714 28.5714C6.22596 28.5714 5.71429 29.0831 5.71429 29.7142C5.71429 30.3454 6.22596 30.8571 6.85714 30.8571ZM8 34.2857C8 34.9168 7.48833 35.4285 6.85714 35.4285C6.22596 35.4285 5.71429 34.9168 5.71429 34.2857C5.71429 33.6545 6.22596 33.1428 6.85714 33.1428C7.48833 33.1428 8 33.6545 8 34.2857ZM6.85714 39.9999C7.48833 39.9999 8 39.4883 8 38.8571C8 38.2259 7.48833 37.7142 6.85714 37.7142C6.22596 37.7142 5.71429 38.2259 5.71429 38.8571C5.71429 39.4883 6.22596 39.9999 6.85714 39.9999ZM8 43.4285C8 44.0597 7.48833 44.5714 6.85714 44.5714C6.22596 44.5714 5.71429 44.0597 5.71429 43.4285C5.71429 42.7973 6.22596 42.2857 6.85714 42.2857C7.48833 42.2857 8 42.7973 8 43.4285ZM11.4286 26.2857C12.0598 26.2857 12.5714 25.774 12.5714 25.1428C12.5714 24.5116 12.0598 23.9999 11.4286 23.9999C10.7974 23.9999 10.2857 24.5116 10.2857 25.1428C10.2857 25.774 10.7974 26.2857 11.4286 26.2857ZM12.5714 29.7142C12.5714 30.3454 12.0598 30.8571 11.4286 30.8571C10.7974 30.8571 10.2857 30.3454 10.2857 29.7142C10.2857 29.0831 10.7974 28.5714 11.4286 28.5714C12.0598 28.5714 12.5714 29.0831 12.5714 29.7142ZM11.4286 35.4285C12.0598 35.4285 12.5714 34.9168 12.5714 34.2857C12.5714 33.6545 12.0598 33.1428 11.4286 33.1428C10.7974 33.1428 10.2857 33.6545 10.2857 34.2857C10.2857 34.9168 10.7974 35.4285 11.4286 35.4285ZM12.5714 38.8571C12.5714 39.4883 12.0598 39.9999 11.4286 39.9999C10.7974 39.9999 10.2857 39.4883 10.2857 38.8571C10.2857 38.2259 10.7974 37.7142 11.4286 37.7142C12.0598 37.7142 12.5714 38.2259 12.5714 38.8571ZM11.4286 44.5714C12.0598 44.5714 12.5714 44.0597 12.5714 43.4285C12.5714 42.7973 12.0598 42.2857 11.4286 42.2857C10.7974 42.2857 10.2857 42.7973 10.2857 43.4285C10.2857 44.0597 10.7974 44.5714 11.4286 44.5714ZM17.1429 25.1428C17.1429 25.774 16.6312 26.2857 16 26.2857C15.3688 26.2857 14.8571 25.774 14.8571 25.1428C14.8571 24.5116 15.3688 23.9999 16 23.9999C16.6312 23.9999 17.1429 24.5116 17.1429 25.1428ZM48 26.2857C48.6312 26.2857 49.1429 25.774 49.1429 25.1428C49.1429 24.5116 48.6312 23.9999 48 23.9999C47.3688 23.9999 46.8571 24.5116 46.8571 25.1428C46.8571 25.774 47.3688 26.2857 48 26.2857ZM53.7143 25.1428C53.7143 25.774 53.2026 26.2857 52.5714 26.2857C51.9402 26.2857 51.4286 25.774 51.4286 25.1428C51.4286 24.5116 51.9402 23.9999 52.5714 23.9999C53.2026 23.9999 53.7143 24.5116 53.7143 25.1428ZM57.1429 26.2857C57.774 26.2857 58.2857 25.774 58.2857 25.1428C58.2857 24.5116 57.774 23.9999 57.1429 23.9999C56.5117 23.9999 56 24.5116 56 25.1428C56 25.774 56.5117 26.2857 57.1429 26.2857ZM17.1429 29.7142C17.1429 30.3454 16.6312 30.8571 16 30.8571C15.3688 30.8571 14.8571 30.3454 14.8571 29.7142C14.8571 29.0831 15.3688 28.5714 16 28.5714C16.6312 28.5714 17.1429 29.0831 17.1429 29.7142ZM48 30.8571C48.6312 30.8571 49.1429 30.3454 49.1429 29.7142C49.1429 29.0831 48.6312 28.5714 48 28.5714C47.3688 28.5714 46.8571 29.0831 46.8571 29.7142C46.8571 30.3454 47.3688 30.8571 48 30.8571ZM53.7143 29.7142C53.7143 30.3454 53.2026 30.8571 52.5714 30.8571C51.9402 30.8571 51.4286 30.3454 51.4286 29.7142C51.4286 29.0831 51.9402 28.5714 52.5714 28.5714C53.2026 28.5714 53.7143 29.0831 53.7143 29.7142ZM57.1429 30.8571C57.774 30.8571 58.2857 30.3454 58.2857 29.7142C58.2857 29.0831 57.774 28.5714 57.1429 28.5714C56.5117 28.5714 56 29.0831 56 29.7142C56 30.3454 56.5117 30.8571 57.1429 30.8571ZM17.1429 34.2857C17.1429 34.9168 16.6312 35.4285 16 35.4285C15.3688 35.4285 14.8571 34.9168 14.8571 34.2857C14.8571 33.6545 15.3688 33.1428 16 33.1428C16.6312 33.1428 17.1429 33.6545 17.1429 34.2857ZM16 39.9999C16.6312 39.9999 17.1429 39.4883 17.1429 38.8571C17.1429 38.2259 16.6312 37.7142 16 37.7142C15.3688 37.7142 14.8571 38.2259 14.8571 38.8571C14.8571 39.4883 15.3688 39.9999 16 39.9999ZM17.1429 43.4285C17.1429 44.0597 16.6312 44.5714 16 44.5714C15.3688 44.5714 14.8571 44.0597 14.8571 43.4285C14.8571 42.7973 15.3688 42.2857 16 42.2857C16.6312 42.2857 17.1429 42.7973 17.1429 43.4285ZM48 35.4285C48.6312 35.4285 49.1429 34.9168 49.1429 34.2857C49.1429 33.6545 48.6312 33.1428 48 33.1428C47.3688 33.1428 46.8571 33.6545 46.8571 34.2857C46.8571 34.9168 47.3688 35.4285 48 35.4285ZM49.1429 38.8571C49.1429 39.4883 48.6312 39.9999 48 39.9999C47.3688 39.9999 46.8571 39.4883 46.8571 38.8571C46.8571 38.2259 47.3688 37.7142 48 37.7142C48.6312 37.7142 49.1429 38.2259 49.1429 38.8571ZM48 44.5714C48.6312 44.5714 49.1429 44.0597 49.1429 43.4285C49.1429 42.7973 48.6312 42.2857 48 42.2857C47.3688 42.2857 46.8571 42.7973 46.8571 43.4285C46.8571 44.0597 47.3688 44.5714 48 44.5714ZM53.7143 34.2857C53.7143 34.9168 53.2026 35.4285 52.5714 35.4285C51.9402 35.4285 51.4286 34.9168 51.4286 34.2857C51.4286 33.6545 51.9402 33.1428 52.5714 33.1428C53.2026 33.1428 53.7143 33.6545 53.7143 34.2857ZM52.5714 39.9999C53.2026 39.9999 53.7143 39.4883 53.7143 38.8571C53.7143 38.2259 53.2026 37.7142 52.5714 37.7142C51.9402 37.7142 51.4286 38.2259 51.4286 38.8571C51.4286 39.4883 51.9402 39.9999 52.5714 39.9999ZM53.7143 43.4285C53.7143 44.0597 53.2026 44.5714 52.5714 44.5714C51.9402 44.5714 51.4286 44.0597 51.4286 43.4285C51.4286 42.7973 51.9402 42.2857 52.5714 42.2857C53.2026 42.2857 53.7143 42.7973 53.7143 43.4285ZM57.1429 35.4285C57.774 35.4285 58.2857 34.9168 58.2857 34.2857C58.2857 33.6545 57.774 33.1428 57.1429 33.1428C56.5117 33.1428 56 33.6545 56 34.2857C56 34.9168 56.5117 35.4285 57.1429 35.4285ZM58.2857 38.8571C58.2857 39.4883 57.774 39.9999 57.1429 39.9999C56.5117 39.9999 56 39.4883 56 38.8571C56 38.2259 56.5117 37.7142 57.1429 37.7142C57.774 37.7142 58.2857 38.2259 58.2857 38.8571ZM57.1429 44.5714C57.774 44.5714 58.2857 44.0597 58.2857 43.4285C58.2857 42.7973 57.774 42.2857 57.1429 42.2857C56.5117 42.2857 56 42.7973 56 43.4285C56 44.0597 56.5117 44.5714 57.1429 44.5714ZM32 23.8571C27.5028 23.8571 23.8571 27.5028 23.8571 31.9999C23.8571 36.4971 27.5028 40.1428 32 40.1428C36.4972 40.1428 40.1429 36.4971 40.1429 31.9999C40.1429 27.5028 36.4972 23.8571 32 23.8571ZM21.8571 31.9999C21.8571 26.3982 26.3983 21.8571 32 21.8571C37.6017 21.8571 42.1429 26.3982 42.1429 31.9999C42.1429 37.6017 37.6017 42.1428 32 42.1428C26.3983 42.1428 21.8571 37.6017 21.8571 31.9999ZM19.9286 31.9999C19.9286 25.3331 25.3331 19.9285 32 19.9285C38.6669 19.9285 44.0714 25.3331 44.0714 31.9999C44.0714 38.6668 38.6669 44.0714 32 44.0714C25.3331 44.0714 19.9286 38.6668 19.9286 31.9999ZM32 18.9285C24.7808 18.9285 18.9286 24.7808 18.9286 31.9999C18.9286 39.2191 24.7808 45.0714 32 45.0714C39.2192 45.0714 45.0714 39.2191 45.0714 31.9999C45.0714 24.7808 39.2192 18.9285 32 18.9285Z" fill="white"/>
</svg>
