<svg width="64" height="64" viewBox="0 0 64 64" fill="none" xmlns="http://www.w3.org/2000/svg">
<path fill-rule="evenodd" clip-rule="evenodd" d="M34.4275 11.5161L37.3226 14.5L39.9913 17.2505L42.66 14.5L43.4286 13.7078L32 1.92859L20.5714 13.7078L21.3401 14.5L24.0087 17.2505L24.0088 17.2505L26.6774 14.5L29.5725 11.5161V24.7857L29.5726 24.7857L34.4275 24.7857L34.4275 24.7857V14.5H34.4275V11.5161ZM39.9913 20.533L45.8447 14.5H62C63.1046 14.5 64 15.3954 64 16.5V43.0714C64 47.4897 60.4183 51.0714 56 51.0714H8C3.58172 51.0714 0 47.4897 0 43.0714V16.5C0 15.3954 0.895431 14.5 2 14.5H18.1554L24.0088 20.533L27.2868 17.1544V27.0714H36.7132V17.1544L39.9913 20.533ZM56 25.9286C56 26.5598 56.5117 27.0714 57.1429 27.0714C57.774 27.0714 58.2857 26.5598 58.2857 25.9286C58.2857 25.2974 57.774 24.7857 57.1429 24.7857C56.5117 24.7857 56 25.2974 56 25.9286ZM57.1429 31.6429C56.5117 31.6429 56 31.1312 56 30.5C56 29.8688 56.5117 29.3572 57.1429 29.3572C57.774 29.3572 58.2857 29.8688 58.2857 30.5C58.2857 31.1312 57.774 31.6429 57.1429 31.6429ZM56 35.0714C56 35.7026 56.5117 36.2143 57.1429 36.2143C57.774 36.2143 58.2857 35.7026 58.2857 35.0714C58.2857 34.4403 57.774 33.9286 57.1429 33.9286C56.5117 33.9286 56 34.4403 56 35.0714ZM43.4286 36.2143C42.7974 36.2143 42.2857 35.7026 42.2857 35.0714C42.2857 34.4403 42.7974 33.9286 43.4286 33.9286C44.0598 33.9286 44.5714 34.4403 44.5714 35.0714C44.5714 35.7026 44.0598 36.2143 43.4286 36.2143ZM28.5714 35.0714C28.5714 35.7026 29.0831 36.2143 29.7143 36.2143C30.3455 36.2143 30.8571 35.7026 30.8571 35.0714C30.8571 34.4403 30.3455 33.9286 29.7143 33.9286C29.0831 33.9286 28.5714 34.4403 28.5714 35.0714ZM57.1429 40.7857C56.5117 40.7857 56 40.2741 56 39.6429C56 39.0117 56.5117 38.5 57.1429 38.5C57.774 38.5 58.2857 39.0117 58.2857 39.6429C58.2857 40.2741 57.774 40.7857 57.1429 40.7857ZM42.2857 39.6429C42.2857 40.2741 42.7974 40.7857 43.4286 40.7857C44.0598 40.7857 44.5714 40.2741 44.5714 39.6429C44.5714 39.0117 44.0598 38.5 43.4286 38.5C42.7974 38.5 42.2857 39.0117 42.2857 39.6429ZM29.7143 40.7857C29.0831 40.7857 28.5714 40.2741 28.5714 39.6429C28.5714 39.0117 29.0831 38.5 29.7143 38.5C30.3455 38.5 30.8571 39.0117 30.8571 39.6429C30.8571 40.2741 30.3455 40.7857 29.7143 40.7857ZM56 44.2143C56 44.8455 56.5117 45.3572 57.1429 45.3572C57.774 45.3572 58.2857 44.8455 58.2857 44.2143C58.2857 43.5831 57.774 43.0714 57.1429 43.0714C56.5117 43.0714 56 43.5831 56 44.2143ZM43.4286 45.3572C42.7974 45.3572 42.2857 44.8455 42.2857 44.2143C42.2857 43.5831 42.7974 43.0714 43.4286 43.0714C44.0598 43.0714 44.5714 43.5831 44.5714 44.2143C44.5714 44.8455 44.0598 45.3572 43.4286 45.3572ZM28.5714 44.2143C28.5714 44.8455 29.0831 45.3572 29.7143 45.3572C30.3455 45.3572 30.8571 44.8455 30.8571 44.2143C30.8571 43.5831 30.3455 43.0714 29.7143 43.0714C29.0831 43.0714 28.5714 43.5831 28.5714 44.2143ZM52.5714 27.0714C51.9403 27.0714 51.4286 26.5598 51.4286 25.9286C51.4286 25.2974 51.9403 24.7857 52.5714 24.7857C53.2026 24.7857 53.7143 25.2974 53.7143 25.9286C53.7143 26.5598 53.2026 27.0714 52.5714 27.0714ZM46.8571 25.9286C46.8571 26.5598 47.3688 27.0714 48 27.0714C48.6312 27.0714 49.1429 26.5598 49.1429 25.9286C49.1429 25.2974 48.6312 24.7857 48 24.7857C47.3688 24.7857 46.8571 25.2974 46.8571 25.9286ZM16 27.0714C15.3688 27.0714 14.8571 26.5598 14.8571 25.9286C14.8571 25.2974 15.3688 24.7857 16 24.7857C16.6312 24.7857 17.1429 25.2974 17.1429 25.9286C17.1429 26.5598 16.6312 27.0714 16 27.0714ZM10.2857 25.9286C10.2857 26.5598 10.7974 27.0714 11.4286 27.0714C12.0598 27.0714 12.5714 26.5598 12.5714 25.9286C12.5714 25.2974 12.0598 24.7857 11.4286 24.7857C10.7974 24.7857 10.2857 25.2974 10.2857 25.9286ZM6.85715 27.0714C6.22596 27.0714 5.71429 26.5598 5.71429 25.9286C5.71429 25.2974 6.22596 24.7857 6.85715 24.7857C7.48833 24.7857 8 25.2974 8 25.9286C8 26.5598 7.48833 27.0714 6.85715 27.0714ZM51.4286 30.5C51.4286 31.1312 51.9403 31.6429 52.5714 31.6429C53.2026 31.6429 53.7143 31.1312 53.7143 30.5C53.7143 29.8688 53.2026 29.3572 52.5714 29.3572C51.9403 29.3572 51.4286 29.8688 51.4286 30.5ZM48 31.6429C47.3688 31.6429 46.8571 31.1312 46.8571 30.5C46.8571 29.8688 47.3688 29.3572 48 29.3572C48.6312 29.3572 49.1429 29.8688 49.1429 30.5C49.1429 31.1312 48.6312 31.6429 48 31.6429ZM42.2857 30.5C42.2857 31.1312 42.7974 31.6429 43.4286 31.6429C44.0598 31.6429 44.5714 31.1312 44.5714 30.5C44.5714 29.8688 44.0598 29.3572 43.4286 29.3572C42.7974 29.3572 42.2857 29.8688 42.2857 30.5ZM16 31.6429C15.3688 31.6429 14.8571 31.1312 14.8571 30.5C14.8571 29.8688 15.3688 29.3572 16 29.3572C16.6312 29.3572 17.1429 29.8688 17.1429 30.5C17.1429 31.1312 16.6312 31.6429 16 31.6429ZM19.4286 30.5C19.4286 31.1312 19.9402 31.6429 20.5714 31.6429C21.2026 31.6429 21.7143 31.1312 21.7143 30.5C21.7143 29.8688 21.2026 29.3572 20.5714 29.3572C19.9402 29.3572 19.4286 29.8688 19.4286 30.5ZM11.4286 31.6429C10.7974 31.6429 10.2857 31.1312 10.2857 30.5C10.2857 29.8688 10.7974 29.3572 11.4286 29.3572C12.0598 29.3572 12.5714 29.8688 12.5714 30.5C12.5714 31.1312 12.0598 31.6429 11.4286 31.6429ZM5.71429 30.5C5.71429 31.1312 6.22596 31.6429 6.85715 31.6429C7.48833 31.6429 8 31.1312 8 30.5C8 29.8688 7.48833 29.3572 6.85715 29.3572C6.22596 29.3572 5.71429 29.8688 5.71429 30.5ZM52.5714 36.2143C51.9403 36.2143 51.4286 35.7026 51.4286 35.0714C51.4286 34.4403 51.9403 33.9286 52.5714 33.9286C53.2026 33.9286 53.7143 34.4403 53.7143 35.0714C53.7143 35.7026 53.2026 36.2143 52.5714 36.2143ZM37.7143 35.0714C37.7143 35.7026 38.226 36.2143 38.8571 36.2143C39.4883 36.2143 40 35.7026 40 35.0714C40 34.4403 39.4883 33.9286 38.8571 33.9286C38.226 33.9286 37.7143 34.4403 37.7143 35.0714ZM25.1429 36.2143C24.5117 36.2143 24 35.7026 24 35.0714C24 34.4403 24.5117 33.9286 25.1429 33.9286C25.774 33.9286 26.2857 34.4403 26.2857 35.0714C26.2857 35.7026 25.774 36.2143 25.1429 36.2143ZM51.4286 39.6429C51.4286 40.2741 51.9403 40.7857 52.5714 40.7857C53.2026 40.7857 53.7143 40.2741 53.7143 39.6429C53.7143 39.0117 53.2026 38.5 52.5714 38.5C51.9403 38.5 51.4286 39.0117 51.4286 39.6429ZM38.8571 40.7857C38.226 40.7857 37.7143 40.2741 37.7143 39.6429C37.7143 39.0117 38.226 38.5 38.8571 38.5C39.4883 38.5 40 39.0117 40 39.6429C40 40.2741 39.4883 40.7857 38.8571 40.7857ZM24 39.6429C24 40.2741 24.5117 40.7857 25.1429 40.7857C25.774 40.7857 26.2857 40.2741 26.2857 39.6429C26.2857 39.0117 25.774 38.5 25.1429 38.5C24.5117 38.5 24 39.0117 24 39.6429ZM52.5714 45.3572C51.9403 45.3572 51.4286 44.8455 51.4286 44.2143C51.4286 43.5831 51.9403 43.0714 52.5714 43.0714C53.2026 43.0714 53.7143 43.5831 53.7143 44.2143C53.7143 44.8455 53.2026 45.3572 52.5714 45.3572ZM37.7143 44.2143C37.7143 44.8455 38.226 45.3572 38.8571 45.3572C39.4883 45.3572 40 44.8455 40 44.2143C40 43.5831 39.4883 43.0714 38.8571 43.0714C38.226 43.0714 37.7143 43.5831 37.7143 44.2143ZM25.1429 45.3572C24.5117 45.3572 24 44.8455 24 44.2143C24 43.5831 24.5117 43.0714 25.1429 43.0714C25.774 43.0714 26.2857 43.5831 26.2857 44.2143C26.2857 44.8455 25.774 45.3572 25.1429 45.3572ZM46.8571 35.0714C46.8571 35.7026 47.3688 36.2143 48 36.2143C48.6312 36.2143 49.1429 35.7026 49.1429 35.0714C49.1429 34.4403 48.6312 33.9286 48 33.9286C47.3688 33.9286 46.8571 34.4403 46.8571 35.0714ZM34.2857 36.2143C33.6545 36.2143 33.1429 35.7026 33.1429 35.0714C33.1429 34.4403 33.6545 33.9286 34.2857 33.9286C34.9169 33.9286 35.4286 34.4403 35.4286 35.0714C35.4286 35.7026 34.9169 36.2143 34.2857 36.2143ZM19.4286 35.0714C19.4286 35.7026 19.9402 36.2143 20.5714 36.2143C21.2026 36.2143 21.7143 35.7026 21.7143 35.0714C21.7143 34.4403 21.2026 33.9286 20.5714 33.9286C19.9402 33.9286 19.4286 34.4403 19.4286 35.0714ZM48 40.7857C47.3688 40.7857 46.8571 40.2741 46.8571 39.6429C46.8571 39.0117 47.3688 38.5 48 38.5C48.6312 38.5 49.1429 39.0117 49.1429 39.6429C49.1429 40.2741 48.6312 40.7857 48 40.7857ZM33.1429 39.6429C33.1429 40.2741 33.6545 40.7857 34.2857 40.7857C34.9169 40.7857 35.4286 40.2741 35.4286 39.6429C35.4286 39.0117 34.9169 38.5 34.2857 38.5C33.6545 38.5 33.1429 39.0117 33.1429 39.6429ZM20.5714 40.7857C19.9402 40.7857 19.4286 40.2741 19.4286 39.6429C19.4286 39.0117 19.9402 38.5 20.5714 38.5C21.2026 38.5 21.7143 39.0117 21.7143 39.6429C21.7143 40.2741 21.2026 40.7857 20.5714 40.7857ZM46.8571 44.2143C46.8571 44.8455 47.3688 45.3572 48 45.3572C48.6312 45.3572 49.1429 44.8455 49.1429 44.2143C49.1429 43.5831 48.6312 43.0714 48 43.0714C47.3688 43.0714 46.8571 43.5831 46.8571 44.2143ZM34.2857 45.3572C33.6545 45.3572 33.1429 44.8455 33.1429 44.2143C33.1429 43.5831 33.6545 43.0714 34.2857 43.0714C34.9169 43.0714 35.4286 43.5831 35.4286 44.2143C35.4286 44.8455 34.9169 45.3572 34.2857 45.3572ZM19.4286 44.2143C19.4286 44.8455 19.9402 45.3572 20.5714 45.3572C21.2026 45.3572 21.7143 44.8455 21.7143 44.2143C21.7143 43.5831 21.2026 43.0714 20.5714 43.0714C19.9402 43.0714 19.4286 43.5831 19.4286 44.2143ZM16 36.2143C15.3688 36.2143 14.8571 35.7026 14.8571 35.0714C14.8571 34.4403 15.3688 33.9286 16 33.9286C16.6312 33.9286 17.1429 34.4403 17.1429 35.0714C17.1429 35.7026 16.6312 36.2143 16 36.2143ZM14.8571 39.6429C14.8571 40.2741 15.3688 40.7857 16 40.7857C16.6312 40.7857 17.1429 40.2741 17.1429 39.6429C17.1429 39.0117 16.6312 38.5 16 38.5C15.3688 38.5 14.8571 39.0117 14.8571 39.6429ZM16 45.3572C15.3688 45.3572 14.8571 44.8455 14.8571 44.2143C14.8571 43.5831 15.3688 43.0714 16 43.0714C16.6312 43.0714 17.1429 43.5831 17.1429 44.2143C17.1429 44.8455 16.6312 45.3572 16 45.3572ZM10.2857 35.0714C10.2857 35.7026 10.7974 36.2143 11.4286 36.2143C12.0598 36.2143 12.5714 35.7026 12.5714 35.0714C12.5714 34.4403 12.0598 33.9286 11.4286 33.9286C10.7974 33.9286 10.2857 34.4403 10.2857 35.0714ZM11.4286 40.7857C10.7974 40.7857 10.2857 40.2741 10.2857 39.6429C10.2857 39.0117 10.7974 38.5 11.4286 38.5C12.0598 38.5 12.5714 39.0117 12.5714 39.6429C12.5714 40.2741 12.0598 40.7857 11.4286 40.7857ZM10.2857 44.2143C10.2857 44.8455 10.7974 45.3572 11.4286 45.3572C12.0598 45.3572 12.5714 44.8455 12.5714 44.2143C12.5714 43.5831 12.0598 43.0714 11.4286 43.0714C10.7974 43.0714 10.2857 43.5831 10.2857 44.2143ZM6.85715 36.2143C6.22596 36.2143 5.71429 35.7026 5.71429 35.0714C5.71429 34.4403 6.22596 33.9286 6.85715 33.9286C7.48833 33.9286 8 34.4403 8 35.0714C8 35.7026 7.48833 36.2143 6.85715 36.2143ZM5.71429 39.6429C5.71429 40.2741 6.22596 40.7857 6.85715 40.7857C7.48833 40.7857 8 40.2741 8 39.6429C8 39.0117 7.48833 38.5 6.85715 38.5C6.22596 38.5 5.71429 39.0117 5.71429 39.6429ZM6.85715 45.3572C6.22596 45.3572 5.71429 44.8455 5.71429 44.2143C5.71429 43.5831 6.22596 43.0714 6.85715 43.0714C7.48833 43.0714 8 43.5831 8 44.2143C8 44.8455 7.48833 45.3572 6.85715 45.3572Z" fill="white"/>
</svg>
