<svg width="64" height="64" viewBox="0 0 64 64" fill="none" xmlns="http://www.w3.org/2000/svg">
<g clip-path="url(#clip0_1967:18671)">
<path fill-rule="evenodd" clip-rule="evenodd" d="M0 15.7142C0 14.6097 0.895431 13.7142 2 13.7142H62C63.1046 13.7142 64 14.6097 64 15.7142V42.2857C64 46.7039 60.4183 50.2857 56 50.2857H8C3.58172 50.2857 0 46.7039 0 42.2857V15.7142ZM7.99998 25.1428C7.99998 25.774 7.48831 26.2857 6.85713 26.2857C6.22594 26.2857 5.71427 25.774 5.71427 25.1428C5.71427 24.5116 6.22594 24 6.85713 24C7.48831 24 7.99998 24.5116 7.99998 25.1428ZM29.7143 26.2857C30.3455 26.2857 30.8572 25.774 30.8572 25.1428C30.8572 24.5116 30.3455 24 29.7143 24C29.0831 24 28.5715 24.5116 28.5715 25.1428C28.5715 25.774 29.0831 26.2857 29.7143 26.2857ZM7.99998 29.7143C7.99998 30.3455 7.48831 30.8571 6.85713 30.8571C6.22594 30.8571 5.71427 30.3455 5.71427 29.7143C5.71427 29.0831 6.22594 28.5714 6.85713 28.5714C7.48831 28.5714 7.99998 29.0831 7.99998 29.7143ZM29.7143 30.8571C30.3455 30.8571 30.8572 30.3455 30.8572 29.7143C30.8572 29.0831 30.3455 28.5714 29.7143 28.5714C29.0831 28.5714 28.5715 29.0831 28.5715 29.7143C28.5715 30.3455 29.0831 30.8571 29.7143 30.8571ZM7.99998 34.2856C7.99998 34.9168 7.48831 35.4285 6.85713 35.4285C6.22594 35.4285 5.71427 34.9168 5.71427 34.2856C5.71427 33.6544 6.22594 33.1428 6.85713 33.1428C7.48831 33.1428 7.99998 33.6544 7.99998 34.2856ZM6.85713 39.9999C7.48831 39.9999 7.99998 39.4883 7.99998 38.8571C7.99998 38.2259 7.48831 37.7142 6.85713 37.7142C6.22594 37.7142 5.71427 38.2259 5.71427 38.8571C5.71427 39.4883 6.22594 39.9999 6.85713 39.9999ZM7.99998 43.4286C7.99998 44.0597 7.48831 44.5714 6.85713 44.5714C6.22594 44.5714 5.71427 44.0597 5.71427 43.4286C5.71427 42.7974 6.22594 42.2857 6.85713 42.2857C7.48831 42.2857 7.99998 42.7974 7.99998 43.4286ZM29.7143 35.4285C30.3455 35.4285 30.8572 34.9168 30.8572 34.2856C30.8572 33.6544 30.3455 33.1428 29.7143 33.1428C29.0831 33.1428 28.5715 33.6544 28.5715 34.2856C28.5715 34.9168 29.0831 35.4285 29.7143 35.4285ZM30.8572 38.8571C30.8572 39.4883 30.3455 39.9999 29.7143 39.9999C29.0831 39.9999 28.5715 39.4883 28.5715 38.8571C28.5715 38.2259 29.0831 37.7142 29.7143 37.7142C30.3455 37.7142 30.8572 38.2259 30.8572 38.8571ZM29.7143 44.5714C30.3455 44.5714 30.8572 44.0597 30.8572 43.4286C30.8572 42.7974 30.3455 42.2857 29.7143 42.2857C29.0831 42.2857 28.5715 42.7974 28.5715 43.4286C28.5715 44.0597 29.0831 44.5714 29.7143 44.5714ZM12.5714 25.1428C12.5714 25.774 12.0598 26.2857 11.4286 26.2857C10.7974 26.2857 10.2857 25.774 10.2857 25.1428C10.2857 24.5116 10.7974 24 11.4286 24C12.0598 24 12.5714 24.5116 12.5714 25.1428ZM34.2857 26.2857C34.9168 26.2857 35.4285 25.774 35.4285 25.1428C35.4285 24.5116 34.9168 24 34.2857 24C33.6545 24 33.1428 24.5116 33.1428 25.1428C33.1428 25.774 33.6545 26.2857 34.2857 26.2857ZM12.5714 29.7143C12.5714 30.3455 12.0598 30.8571 11.4286 30.8571C10.7974 30.8571 10.2857 30.3455 10.2857 29.7143C10.2857 29.0831 10.7974 28.5714 11.4286 28.5714C12.0598 28.5714 12.5714 29.0831 12.5714 29.7143ZM34.2857 30.8571C34.9168 30.8571 35.4285 30.3455 35.4285 29.7143C35.4285 29.0831 34.9168 28.5714 34.2857 28.5714C33.6545 28.5714 33.1428 29.0831 33.1428 29.7143C33.1428 30.3455 33.6545 30.8571 34.2857 30.8571ZM12.5714 34.2856C12.5714 34.9168 12.0598 35.4285 11.4286 35.4285C10.7974 35.4285 10.2857 34.9168 10.2857 34.2856C10.2857 33.6544 10.7974 33.1428 11.4286 33.1428C12.0598 33.1428 12.5714 33.6544 12.5714 34.2856ZM11.4286 39.9999C12.0598 39.9999 12.5714 39.4883 12.5714 38.8571C12.5714 38.2259 12.0598 37.7142 11.4286 37.7142C10.7974 37.7142 10.2857 38.2259 10.2857 38.8571C10.2857 39.4883 10.7974 39.9999 11.4286 39.9999ZM12.5714 43.4286C12.5714 44.0597 12.0598 44.5714 11.4286 44.5714C10.7974 44.5714 10.2857 44.0597 10.2857 43.4286C10.2857 42.7974 10.7974 42.2857 11.4286 42.2857C12.0598 42.2857 12.5714 42.7974 12.5714 43.4286ZM34.2857 35.4285C34.9168 35.4285 35.4285 34.9168 35.4285 34.2856C35.4285 33.6544 34.9168 33.1428 34.2857 33.1428C33.6545 33.1428 33.1428 33.6544 33.1428 34.2856C33.1428 34.9168 33.6545 35.4285 34.2857 35.4285ZM35.4285 38.8571C35.4285 39.4883 34.9168 39.9999 34.2857 39.9999C33.6545 39.9999 33.1428 39.4883 33.1428 38.8571C33.1428 38.2259 33.6545 37.7142 34.2857 37.7142C34.9168 37.7142 35.4285 38.2259 35.4285 38.8571ZM34.2857 44.5714C34.9168 44.5714 35.4285 44.0597 35.4285 43.4286C35.4285 42.7974 34.9168 42.2857 34.2857 42.2857C33.6545 42.2857 33.1428 42.7974 33.1428 43.4286C33.1428 44.0597 33.6545 44.5714 34.2857 44.5714ZM17.1429 25.1428C17.1429 25.774 16.6312 26.2857 16 26.2857C15.3689 26.2857 14.8572 25.774 14.8572 25.1428C14.8572 24.5116 15.3689 24 16 24C16.6312 24 17.1429 24.5116 17.1429 25.1428ZM38.8571 26.2857C39.4883 26.2857 40 25.774 40 25.1428C40 24.5116 39.4883 24 38.8571 24C38.2259 24 37.7143 24.5116 37.7143 25.1428C37.7143 25.774 38.2259 26.2857 38.8571 26.2857ZM44.5714 25.1428C44.5714 25.774 44.0598 26.2857 43.4286 26.2857C42.7974 26.2857 42.2857 25.774 42.2857 25.1428C42.2857 24.5116 42.7974 24 43.4286 24C44.0598 24 44.5714 24.5116 44.5714 25.1428ZM48 26.2857C48.6312 26.2857 49.1429 25.774 49.1429 25.1428C49.1429 24.5116 48.6312 24 48 24C47.3689 24 46.8572 24.5116 46.8572 25.1428C46.8572 25.774 47.3689 26.2857 48 26.2857ZM53.7143 25.1428C53.7143 25.774 53.2026 26.2857 52.5714 26.2857C51.9402 26.2857 51.4285 25.774 51.4285 25.1428C51.4285 24.5116 51.9402 24 52.5714 24C53.2026 24 53.7143 24.5116 53.7143 25.1428ZM57.1429 26.2857C57.774 26.2857 58.2857 25.774 58.2857 25.1428C58.2857 24.5116 57.774 24 57.1429 24C56.5117 24 56 24.5116 56 25.1428C56 25.774 56.5117 26.2857 57.1429 26.2857ZM17.1429 29.7143C17.1429 30.3455 16.6312 30.8571 16 30.8571C15.3689 30.8571 14.8572 30.3455 14.8572 29.7143C14.8572 29.0831 15.3689 28.5714 16 28.5714C16.6312 28.5714 17.1429 29.0831 17.1429 29.7143ZM38.8571 30.8571C39.4883 30.8571 40 30.3455 40 29.7143C40 29.0831 39.4883 28.5714 38.8571 28.5714C38.2259 28.5714 37.7143 29.0831 37.7143 29.7143C37.7143 30.3455 38.2259 30.8571 38.8571 30.8571ZM44.5714 29.7143C44.5714 30.3455 44.0598 30.8571 43.4286 30.8571C42.7974 30.8571 42.2857 30.3455 42.2857 29.7143C42.2857 29.0831 42.7974 28.5714 43.4286 28.5714C44.0598 28.5714 44.5714 29.0831 44.5714 29.7143ZM48 30.8571C48.6312 30.8571 49.1429 30.3455 49.1429 29.7143C49.1429 29.0831 48.6312 28.5714 48 28.5714C47.3689 28.5714 46.8572 29.0831 46.8572 29.7143C46.8572 30.3455 47.3689 30.8571 48 30.8571ZM53.7143 29.7143C53.7143 30.3455 53.2026 30.8571 52.5714 30.8571C51.9402 30.8571 51.4285 30.3455 51.4285 29.7143C51.4285 29.0831 51.9402 28.5714 52.5714 28.5714C53.2026 28.5714 53.7143 29.0831 53.7143 29.7143ZM57.1429 30.8571C57.774 30.8571 58.2857 30.3455 58.2857 29.7143C58.2857 29.0831 57.774 28.5714 57.1429 28.5714C56.5117 28.5714 56 29.0831 56 29.7143C56 30.3455 56.5117 30.8571 57.1429 30.8571ZM17.1429 34.2856C17.1429 34.9168 16.6312 35.4285 16 35.4285C15.3689 35.4285 14.8572 34.9168 14.8572 34.2856C14.8572 33.6544 15.3689 33.1428 16 33.1428C16.6312 33.1428 17.1429 33.6544 17.1429 34.2856ZM16 39.9999C16.6312 39.9999 17.1429 39.4883 17.1429 38.8571C17.1429 38.2259 16.6312 37.7142 16 37.7142C15.3689 37.7142 14.8572 38.2259 14.8572 38.8571C14.8572 39.4883 15.3689 39.9999 16 39.9999ZM17.1429 43.4286C17.1429 44.0597 16.6312 44.5714 16 44.5714C15.3689 44.5714 14.8572 44.0597 14.8572 43.4286C14.8572 42.7974 15.3689 42.2857 16 42.2857C16.6312 42.2857 17.1429 42.7974 17.1429 43.4286ZM38.8571 35.4285C39.4883 35.4285 40 34.9168 40 34.2856C40 33.6544 39.4883 33.1428 38.8571 33.1428C38.2259 33.1428 37.7143 33.6544 37.7143 34.2856C37.7143 34.9168 38.2259 35.4285 38.8571 35.4285ZM40 38.8571C40 39.4883 39.4883 39.9999 38.8571 39.9999C38.2259 39.9999 37.7143 39.4883 37.7143 38.8571C37.7143 38.2259 38.2259 37.7142 38.8571 37.7142C39.4883 37.7142 40 38.2259 40 38.8571ZM38.8571 44.5714C39.4883 44.5714 40 44.0597 40 43.4286C40 42.7974 39.4883 42.2857 38.8571 42.2857C38.2259 42.2857 37.7143 42.7974 37.7143 43.4286C37.7143 44.0597 38.2259 44.5714 38.8571 44.5714ZM44.5714 34.2856C44.5714 34.9168 44.0598 35.4285 43.4286 35.4285C42.7974 35.4285 42.2857 34.9168 42.2857 34.2856C42.2857 33.6544 42.7974 33.1428 43.4286 33.1428C44.0598 33.1428 44.5714 33.6544 44.5714 34.2856ZM43.4286 39.9999C44.0598 39.9999 44.5714 39.4883 44.5714 38.8571C44.5714 38.2259 44.0598 37.7142 43.4286 37.7142C42.7974 37.7142 42.2857 38.2259 42.2857 38.8571C42.2857 39.4883 42.7974 39.9999 43.4286 39.9999ZM44.5714 43.4286C44.5714 44.0597 44.0598 44.5714 43.4286 44.5714C42.7974 44.5714 42.2857 44.0597 42.2857 43.4286C42.2857 42.7974 42.7974 42.2857 43.4286 42.2857C44.0598 42.2857 44.5714 42.7974 44.5714 43.4286ZM48 35.4285C48.6312 35.4285 49.1429 34.9168 49.1429 34.2856C49.1429 33.6544 48.6312 33.1428 48 33.1428C47.3689 33.1428 46.8572 33.6544 46.8572 34.2856C46.8572 34.9168 47.3689 35.4285 48 35.4285ZM49.1429 38.8571C49.1429 39.4883 48.6312 39.9999 48 39.9999C47.3689 39.9999 46.8572 39.4883 46.8572 38.8571C46.8572 38.2259 47.3689 37.7142 48 37.7142C48.6312 37.7142 49.1429 38.2259 49.1429 38.8571ZM48 44.5714C48.6312 44.5714 49.1429 44.0597 49.1429 43.4286C49.1429 42.7974 48.6312 42.2857 48 42.2857C47.3689 42.2857 46.8572 42.7974 46.8572 43.4286C46.8572 44.0597 47.3689 44.5714 48 44.5714ZM53.7143 34.2856C53.7143 34.9168 53.2026 35.4285 52.5714 35.4285C51.9402 35.4285 51.4285 34.9168 51.4285 34.2856C51.4285 33.6544 51.9402 33.1428 52.5714 33.1428C53.2026 33.1428 53.7143 33.6544 53.7143 34.2856ZM52.5714 39.9999C53.2026 39.9999 53.7143 39.4883 53.7143 38.8571C53.7143 38.2259 53.2026 37.7142 52.5714 37.7142C51.9402 37.7142 51.4285 38.2259 51.4285 38.8571C51.4285 39.4883 51.9402 39.9999 52.5714 39.9999ZM53.7143 43.4286C53.7143 44.0597 53.2026 44.5714 52.5714 44.5714C51.9402 44.5714 51.4285 44.0597 51.4285 43.4286C51.4285 42.7974 51.9402 42.2857 52.5714 42.2857C53.2026 42.2857 53.7143 42.7974 53.7143 43.4286ZM57.1429 35.4285C57.774 35.4285 58.2857 34.9168 58.2857 34.2856C58.2857 33.6544 57.774 33.1428 57.1429 33.1428C56.5117 33.1428 56 33.6544 56 34.2856C56 34.9168 56.5117 35.4285 57.1429 35.4285ZM58.2857 38.8571C58.2857 39.4883 57.774 39.9999 57.1429 39.9999C56.5117 39.9999 56 39.4883 56 38.8571C56 38.2259 56.5117 37.7142 57.1429 37.7142C57.774 37.7142 58.2857 38.2259 58.2857 38.8571ZM57.1429 44.5714C57.774 44.5714 58.2857 44.0597 58.2857 43.4286C58.2857 42.7974 57.774 42.2857 57.1429 42.2857C56.5117 42.2857 56 42.7974 56 43.4286C56 44.0597 56.5117 44.5714 57.1429 44.5714ZM21.7143 25.1428C21.7143 25.774 21.2026 26.2857 20.5714 26.2857C19.9402 26.2857 19.4285 25.774 19.4285 25.1428C19.4285 24.5116 19.9402 24 20.5714 24C21.2026 24 21.7143 24.5116 21.7143 25.1428ZM25.1429 26.2857C25.774 26.2857 26.2857 25.774 26.2857 25.1428C26.2857 24.5116 25.774 24 25.1429 24C24.5117 24 24 24.5116 24 25.1428C24 25.774 24.5117 26.2857 25.1429 26.2857ZM21.7143 29.7143C21.7143 30.3455 21.2026 30.8571 20.5714 30.8571C19.9402 30.8571 19.4285 30.3455 19.4285 29.7143C19.4285 29.0831 19.9402 28.5714 20.5714 28.5714C21.2026 28.5714 21.7143 29.0831 21.7143 29.7143ZM25.1429 30.8571C25.774 30.8571 26.2857 30.3455 26.2857 29.7143C26.2857 29.0831 25.774 28.5714 25.1429 28.5714C24.5117 28.5714 24 29.0831 24 29.7143C24 30.3455 24.5117 30.8571 25.1429 30.8571ZM21.7143 34.2856C21.7143 34.9168 21.2026 35.4285 20.5714 35.4285C19.9402 35.4285 19.4285 34.9168 19.4285 34.2856C19.4285 33.6544 19.9402 33.1428 20.5714 33.1428C21.2026 33.1428 21.7143 33.6544 21.7143 34.2856ZM20.5714 39.9999C21.2026 39.9999 21.7143 39.4883 21.7143 38.8571C21.7143 38.2259 21.2026 37.7142 20.5714 37.7142C19.9402 37.7142 19.4285 38.2259 19.4285 38.8571C19.4285 39.4883 19.9402 39.9999 20.5714 39.9999ZM21.7143 43.4286C21.7143 44.0597 21.2026 44.5714 20.5714 44.5714C19.9402 44.5714 19.4285 44.0597 19.4285 43.4286C19.4285 42.7974 19.9402 42.2857 20.5714 42.2857C21.2026 42.2857 21.7143 42.7974 21.7143 43.4286ZM25.1429 35.4285C25.774 35.4285 26.2857 34.9168 26.2857 34.2856C26.2857 33.6544 25.774 33.1428 25.1429 33.1428C24.5117 33.1428 24 33.6544 24 34.2856C24 34.9168 24.5117 35.4285 25.1429 35.4285ZM26.2857 38.8571C26.2857 39.4883 25.774 39.9999 25.1429 39.9999C24.5117 39.9999 24 39.4883 24 38.8571C24 38.2259 24.5117 37.7142 25.1429 37.7142C25.774 37.7142 26.2857 38.2259 26.2857 38.8571ZM25.1429 44.5714C25.774 44.5714 26.2857 44.0597 26.2857 43.4286C26.2857 42.7974 25.774 42.2857 25.1429 42.2857C24.5117 42.2857 24 42.7974 24 43.4286C24 44.0597 24.5117 44.5714 25.1429 44.5714Z" fill="white"/>
<path d="M24.0424 55L32.178 64.4915L40.3136 55H24.0424Z" fill="white"/>
</g>
<defs>
<clipPath id="clip0_1967:18671">
<rect width="64" height="64" fill="white"/>
</clipPath>
</defs>
</svg>
