<svg width="64" height="64" viewBox="0 0 64 64" fill="none" xmlns="http://www.w3.org/2000/svg">
<g clip-path="url(#clip0_1967:14842)">
<path fill-rule="evenodd" clip-rule="evenodd" d="M62 13.7142C63.1046 13.7142 64 14.6097 64 15.7142V42.2857C64 46.7039 60.4183 50.2857 56 50.2857H8C3.58172 50.2857 0 46.7039 0 42.2857V15.7142C0 14.6097 0.895431 13.7142 2 13.7142H62ZM29.7143 26.2857C29.0831 26.2857 28.5714 25.774 28.5714 25.1428C28.5714 24.5116 29.0831 23.9999 29.7143 23.9999C30.3455 23.9999 30.8571 24.5116 30.8571 25.1428C30.8571 25.774 30.3455 26.2857 29.7143 26.2857ZM28.5714 29.7142C28.5714 30.3454 29.0831 30.8571 29.7143 30.8571C30.3455 30.8571 30.8571 30.3454 30.8571 29.7142C30.8571 29.0831 30.3455 28.5714 29.7143 28.5714C29.0831 28.5714 28.5714 29.0831 28.5714 29.7142ZM29.7143 35.4285C29.0831 35.4285 28.5714 34.9168 28.5714 34.2857C28.5714 33.6545 29.0831 33.1428 29.7143 33.1428C30.3455 33.1428 30.8571 33.6545 30.8571 34.2857C30.8571 34.9168 30.3455 35.4285 29.7143 35.4285ZM28.5714 38.8571C28.5714 39.4883 29.0831 39.9999 29.7143 39.9999C30.3455 39.9999 30.8571 39.4883 30.8571 38.8571C30.8571 38.2259 30.3455 37.7142 29.7143 37.7142C29.0831 37.7142 28.5714 38.2259 28.5714 38.8571ZM29.7143 44.5714C29.0831 44.5714 28.5714 44.0597 28.5714 43.4285C28.5714 42.7973 29.0831 42.2857 29.7143 42.2857C30.3455 42.2857 30.8571 42.7973 30.8571 43.4285C30.8571 44.0597 30.3455 44.5714 29.7143 44.5714ZM24 25.1428C24 25.774 24.5117 26.2857 25.1429 26.2857C25.774 26.2857 26.2857 25.774 26.2857 25.1428C26.2857 24.5116 25.774 23.9999 25.1429 23.9999C24.5117 23.9999 24 24.5116 24 25.1428ZM20.5714 26.2857C19.9402 26.2857 19.4286 25.774 19.4286 25.1428C19.4286 24.5116 19.9402 23.9999 20.5714 23.9999C21.2026 23.9999 21.7143 24.5116 21.7143 25.1428C21.7143 25.774 21.2026 26.2857 20.5714 26.2857ZM14.8571 25.1428C14.8571 25.774 15.3688 26.2857 16 26.2857C16.6312 26.2857 17.1429 25.774 17.1429 25.1428C17.1429 24.5116 16.6312 23.9999 16 23.9999C15.3688 23.9999 14.8571 24.5116 14.8571 25.1428ZM11.4286 26.2857C10.7974 26.2857 10.2857 25.774 10.2857 25.1428C10.2857 24.5116 10.7974 23.9999 11.4286 23.9999C12.0598 23.9999 12.5714 24.5116 12.5714 25.1428C12.5714 25.774 12.0598 26.2857 11.4286 26.2857ZM5.71429 25.1428C5.71429 25.774 6.22596 26.2857 6.85715 26.2857C7.48833 26.2857 8 25.774 8 25.1428C8 24.5116 7.48833 23.9999 6.85715 23.9999C6.22596 23.9999 5.71429 24.5116 5.71429 25.1428ZM25.1429 30.8571C24.5117 30.8571 24 30.3454 24 29.7142C24 29.0831 24.5117 28.5714 25.1429 28.5714C25.774 28.5714 26.2857 29.0831 26.2857 29.7142C26.2857 30.3454 25.774 30.8571 25.1429 30.8571ZM19.4286 29.7142C19.4286 30.3454 19.9402 30.8571 20.5714 30.8571C21.2026 30.8571 21.7143 30.3454 21.7143 29.7142C21.7143 29.0831 21.2026 28.5714 20.5714 28.5714C19.9402 28.5714 19.4286 29.0831 19.4286 29.7142ZM16 30.8571C15.3688 30.8571 14.8571 30.3454 14.8571 29.7142C14.8571 29.0831 15.3688 28.5714 16 28.5714C16.6312 28.5714 17.1429 29.0831 17.1429 29.7142C17.1429 30.3454 16.6312 30.8571 16 30.8571ZM10.2857 29.7142C10.2857 30.3454 10.7974 30.8571 11.4286 30.8571C12.0598 30.8571 12.5714 30.3454 12.5714 29.7142C12.5714 29.0831 12.0598 28.5714 11.4286 28.5714C10.7974 28.5714 10.2857 29.0831 10.2857 29.7142ZM6.85715 30.8571C6.22596 30.8571 5.71429 30.3454 5.71429 29.7142C5.71429 29.0831 6.22596 28.5714 6.85715 28.5714C7.48833 28.5714 8 29.0831 8 29.7142C8 30.3454 7.48833 30.8571 6.85715 30.8571ZM24 34.2857C24 34.9168 24.5117 35.4285 25.1429 35.4285C25.774 35.4285 26.2857 34.9168 26.2857 34.2857C26.2857 33.6545 25.774 33.1428 25.1429 33.1428C24.5117 33.1428 24 33.6545 24 34.2857ZM25.1429 39.9999C24.5117 39.9999 24 39.4883 24 38.8571C24 38.2259 24.5117 37.7142 25.1429 37.7142C25.774 37.7142 26.2857 38.2259 26.2857 38.8571C26.2857 39.4883 25.774 39.9999 25.1429 39.9999ZM24 43.4285C24 44.0597 24.5117 44.5714 25.1429 44.5714C25.774 44.5714 26.2857 44.0597 26.2857 43.4285C26.2857 42.7973 25.774 42.2857 25.1429 42.2857C24.5117 42.2857 24 42.7973 24 43.4285ZM20.5714 35.4285C19.9402 35.4285 19.4286 34.9168 19.4286 34.2857C19.4286 33.6545 19.9402 33.1428 20.5714 33.1428C21.2026 33.1428 21.7143 33.6545 21.7143 34.2857C21.7143 34.9168 21.2026 35.4285 20.5714 35.4285ZM19.4286 38.8571C19.4286 39.4883 19.9402 39.9999 20.5714 39.9999C21.2026 39.9999 21.7143 39.4883 21.7143 38.8571C21.7143 38.2259 21.2026 37.7142 20.5714 37.7142C19.9402 37.7142 19.4286 38.2259 19.4286 38.8571ZM20.5714 44.5714C19.9402 44.5714 19.4286 44.0597 19.4286 43.4285C19.4286 42.7973 19.9402 42.2857 20.5714 42.2857C21.2026 42.2857 21.7143 42.7973 21.7143 43.4285C21.7143 44.0597 21.2026 44.5714 20.5714 44.5714ZM14.8571 34.2857C14.8571 34.9168 15.3688 35.4285 16 35.4285C16.6312 35.4285 17.1429 34.9168 17.1429 34.2857C17.1429 33.6545 16.6312 33.1428 16 33.1428C15.3688 33.1428 14.8571 33.6545 14.8571 34.2857ZM16 39.9999C15.3688 39.9999 14.8571 39.4883 14.8571 38.8571C14.8571 38.2259 15.3688 37.7142 16 37.7142C16.6312 37.7142 17.1429 38.2259 17.1429 38.8571C17.1429 39.4883 16.6312 39.9999 16 39.9999ZM14.8571 43.4285C14.8571 44.0597 15.3688 44.5714 16 44.5714C16.6312 44.5714 17.1429 44.0597 17.1429 43.4285C17.1429 42.7973 16.6312 42.2857 16 42.2857C15.3688 42.2857 14.8571 42.7973 14.8571 43.4285ZM11.4286 35.4285C10.7974 35.4285 10.2857 34.9168 10.2857 34.2857C10.2857 33.6545 10.7974 33.1428 11.4286 33.1428C12.0598 33.1428 12.5714 33.6545 12.5714 34.2857C12.5714 34.9168 12.0598 35.4285 11.4286 35.4285ZM10.2857 38.8571C10.2857 39.4883 10.7974 39.9999 11.4286 39.9999C12.0598 39.9999 12.5714 39.4883 12.5714 38.8571C12.5714 38.2259 12.0598 37.7142 11.4286 37.7142C10.7974 37.7142 10.2857 38.2259 10.2857 38.8571ZM11.4286 44.5714C10.7974 44.5714 10.2857 44.0597 10.2857 43.4285C10.2857 42.7973 10.7974 42.2857 11.4286 42.2857C12.0598 42.2857 12.5714 42.7973 12.5714 43.4285C12.5714 44.0597 12.0598 44.5714 11.4286 44.5714ZM5.71429 34.2857C5.71429 34.9168 6.22596 35.4285 6.85715 35.4285C7.48833 35.4285 8 34.9168 8 34.2857C8 33.6545 7.48833 33.1428 6.85715 33.1428C6.22596 33.1428 5.71429 33.6545 5.71429 34.2857ZM6.85715 39.9999C6.22596 39.9999 5.71429 39.4883 5.71429 38.8571C5.71429 38.2259 6.22596 37.7142 6.85715 37.7142C7.48833 37.7142 8 38.2259 8 38.8571C8 39.4883 7.48833 39.9999 6.85715 39.9999ZM5.71429 43.4285C5.71429 44.0597 6.22596 44.5714 6.85715 44.5714C7.48833 44.5714 8 44.0597 8 43.4285C8 42.7973 7.48833 42.2857 6.85715 42.2857C6.22596 42.2857 5.71429 42.7973 5.71429 43.4285ZM49.3216 34.8571H51.2416L49.6316 32.2871C50.0449 32.1004 50.3649 31.8271 50.5916 31.4671C50.8249 31.1004 50.9416 30.6471 50.9416 30.1071C50.9416 29.3938 50.7016 28.8404 50.2216 28.4471C49.7416 28.0538 49.0016 27.8571 48.0016 27.8571H45.2816V34.8571H47.0116V32.6371H47.8416H47.9916L49.3216 34.8571ZM47.0116 31.1571V29.3371H47.9216C48.3282 29.3371 48.6249 29.4104 48.8116 29.5571C48.9982 29.6971 49.0916 29.9104 49.0916 30.1971C49.0916 30.5104 48.9882 30.7504 48.7816 30.9171C48.5816 31.0771 48.3049 31.1571 47.9516 31.1571H47.0116ZM48 23.8571C43.5028 23.8571 39.8571 27.5028 39.8571 31.9999C39.8571 36.4971 43.5028 40.1428 48 40.1428C52.4972 40.1428 56.1429 36.4971 56.1429 31.9999C56.1429 27.5028 52.4972 23.8571 48 23.8571ZM37.8571 31.9999C37.8571 26.3982 42.3983 21.8571 48 21.8571C53.6017 21.8571 58.1429 26.3982 58.1429 31.9999C58.1429 37.6017 53.6017 42.1428 48 42.1428C42.3983 42.1428 37.8571 37.6017 37.8571 31.9999ZM35.9286 31.9999C35.9286 25.3331 41.3331 19.9285 48 19.9285C54.6669 19.9285 60.0714 25.3331 60.0714 31.9999C60.0714 38.6668 54.6669 44.0714 48 44.0714C41.3331 44.0714 35.9286 38.6668 35.9286 31.9999ZM48 18.9285C40.7808 18.9285 34.9286 24.7808 34.9286 31.9999C34.9286 39.2191 40.7808 45.0714 48 45.0714C55.2192 45.0714 61.0714 39.2191 61.0714 31.9999C61.0714 24.7808 55.2192 18.9285 48 18.9285Z" fill="white"/>
</g>
<defs>
<clipPath id="clip0_1967:14842">
<rect width="64" height="64" fill="white"/>
</clipPath>
</defs>
</svg>
