<svg width="64" height="64" viewBox="0 0 64 64" fill="none" xmlns="http://www.w3.org/2000/svg">
<path fill-rule="evenodd" clip-rule="evenodd" d="M0 16.644C0 15.5395 0.895431 14.644 2 14.644H58.7458C59.8503 14.644 60.7458 15.5395 60.7458 16.644V25.8198L52.8197 18.1297L46.3415 24.415L49.5484 27.5264H40.1355V36.4735H49.5484L46.3415 39.5848L52.8197 45.8702L60.7458 38.1801V41.3559C60.7458 45.7742 57.164 49.3559 52.7458 49.3559H8.00001C3.58173 49.3559 0 45.7742 0 41.3559V16.644ZM52.8197 21.1525L60.7458 28.8426L64 32L60.7458 35.1572L52.8197 42.8474L52.8197 42.8474L49.4571 39.5849L49.4571 39.5848L54.8999 34.304H42.3051V34.304H42.305V29.6959H54.9L49.4571 24.415L49.4571 24.415L52.8197 21.1525L52.8197 21.1525ZM7.59319 25.4915C7.59319 26.0906 7.10753 26.5763 6.50844 26.5763C5.90936 26.5763 5.4237 26.0906 5.4237 25.4915C5.4237 24.8924 5.90936 24.4068 6.50844 24.4068C7.10753 24.4068 7.59319 24.8924 7.59319 25.4915ZM6.50844 30.9152C7.10753 30.9152 7.59319 30.4295 7.59319 29.8305C7.59319 29.2314 7.10753 28.7457 6.50844 28.7457C5.90936 28.7457 5.4237 29.2314 5.4237 29.8305C5.4237 30.4295 5.90936 30.9152 6.50844 30.9152ZM7.59319 34.1695C7.59319 34.7686 7.10753 35.2543 6.50844 35.2543C5.90936 35.2543 5.4237 34.7686 5.4237 34.1695C5.4237 33.5704 5.90936 33.0848 6.50844 33.0848C7.10753 33.0848 7.59319 33.5704 7.59319 34.1695ZM6.50844 39.5932C7.10753 39.5932 7.59319 39.1075 7.59319 38.5084C7.59319 37.9094 7.10753 37.4237 6.50844 37.4237C5.90936 37.4237 5.4237 37.9094 5.4237 38.5084C5.4237 39.1075 5.90936 39.5932 6.50844 39.5932ZM7.59319 42.8475C7.59319 43.4466 7.10753 43.9323 6.50844 43.9323C5.90936 43.9323 5.4237 43.4466 5.4237 42.8475C5.4237 42.2484 5.90936 41.7628 6.50844 41.7628C7.10753 41.7628 7.59319 42.2484 7.59319 42.8475ZM10.8475 26.5763C11.4466 26.5763 11.9323 26.0906 11.9323 25.4915C11.9323 24.8924 11.4466 24.4068 10.8475 24.4068C10.2484 24.4068 9.76276 24.8924 9.76276 25.4915C9.76276 26.0906 10.2484 26.5763 10.8475 26.5763ZM16.2712 25.4915C16.2712 26.0906 15.7855 26.5763 15.1864 26.5763C14.5874 26.5763 14.1017 26.0906 14.1017 25.4915C14.1017 24.8924 14.5874 24.4068 15.1864 24.4068C15.7855 24.4068 16.2712 24.8924 16.2712 25.4915ZM32.5424 26.5763C33.1415 26.5763 33.6272 26.0906 33.6272 25.4915C33.6272 24.8924 33.1415 24.4068 32.5424 24.4068C31.9433 24.4068 31.4577 24.8924 31.4577 25.4915C31.4577 26.0906 31.9433 26.5763 32.5424 26.5763ZM20.6101 25.4915C20.6101 26.0906 20.1245 26.5763 19.5254 26.5763C18.9263 26.5763 18.4406 26.0906 18.4406 25.4915C18.4406 24.8924 18.9263 24.4068 19.5254 24.4068C20.1245 24.4068 20.6101 24.8924 20.6101 25.4915ZM23.8644 26.5763C24.4635 26.5763 24.9492 26.0906 24.9492 25.4915C24.9492 24.8924 24.4635 24.4068 23.8644 24.4068C23.2653 24.4068 22.7797 24.8924 22.7797 25.4915C22.7797 26.0906 23.2653 26.5763 23.8644 26.5763ZM29.2881 25.4915C29.2881 26.0906 28.8025 26.5763 28.2034 26.5763C27.6043 26.5763 27.1186 26.0906 27.1186 25.4915C27.1186 24.8924 27.6043 24.4068 28.2034 24.4068C28.8025 24.4068 29.2881 24.8924 29.2881 25.4915ZM10.8475 30.9152C11.4466 30.9152 11.9323 30.4295 11.9323 29.8305C11.9323 29.2314 11.4466 28.7457 10.8475 28.7457C10.2484 28.7457 9.76276 29.2314 9.76276 29.8305C9.76276 30.4295 10.2484 30.9152 10.8475 30.9152ZM16.2712 29.8305C16.2712 30.4295 15.7855 30.9152 15.1864 30.9152C14.5874 30.9152 14.1017 30.4295 14.1017 29.8305C14.1017 29.2314 14.5874 28.7457 15.1864 28.7457C15.7855 28.7457 16.2712 29.2314 16.2712 29.8305ZM32.5424 30.9152C33.1415 30.9152 33.6272 30.4295 33.6272 29.8305C33.6272 29.2314 33.1415 28.7457 32.5424 28.7457C31.9433 28.7457 31.4577 29.2314 31.4577 29.8305C31.4577 30.4295 31.9433 30.9152 32.5424 30.9152ZM20.6101 29.8305C20.6101 30.4295 20.1245 30.9152 19.5254 30.9152C18.9263 30.9152 18.4406 30.4295 18.4406 29.8305C18.4406 29.2314 18.9263 28.7457 19.5254 28.7457C20.1245 28.7457 20.6101 29.2314 20.6101 29.8305ZM23.8644 30.9152C24.4635 30.9152 24.9492 30.4295 24.9492 29.8305C24.9492 29.2314 24.4635 28.7457 23.8644 28.7457C23.2653 28.7457 22.7797 29.2314 22.7797 29.8305C22.7797 30.4295 23.2653 30.9152 23.8644 30.9152ZM29.2881 29.8305C29.2881 30.4295 28.8025 30.9152 28.2034 30.9152C27.6043 30.9152 27.1186 30.4295 27.1186 29.8305C27.1186 29.2314 27.6043 28.7457 28.2034 28.7457C28.8025 28.7457 29.2881 29.2314 29.2881 29.8305ZM10.8475 35.2543C11.4466 35.2543 11.9323 34.7686 11.9323 34.1695C11.9323 33.5704 11.4466 33.0848 10.8475 33.0848C10.2484 33.0848 9.76276 33.5704 9.76276 34.1695C9.76276 34.7686 10.2484 35.2543 10.8475 35.2543ZM11.9323 38.5084C11.9323 39.1075 11.4466 39.5932 10.8475 39.5932C10.2484 39.5932 9.76276 39.1075 9.76276 38.5084C9.76276 37.9094 10.2484 37.4237 10.8475 37.4237C11.4466 37.4237 11.9323 37.9094 11.9323 38.5084ZM10.8475 43.9323C11.4466 43.9323 11.9323 43.4466 11.9323 42.8475C11.9323 42.2484 11.4466 41.7628 10.8475 41.7628C10.2484 41.7628 9.76276 42.2484 9.76276 42.8475C9.76276 43.4466 10.2484 43.9323 10.8475 43.9323ZM16.2712 34.1695C16.2712 34.7686 15.7855 35.2543 15.1864 35.2543C14.5874 35.2543 14.1017 34.7686 14.1017 34.1695C14.1017 33.5704 14.5874 33.0848 15.1864 33.0848C15.7855 33.0848 16.2712 33.5704 16.2712 34.1695ZM32.5424 35.2543C33.1415 35.2543 33.6272 34.7686 33.6272 34.1695C33.6272 33.5704 33.1415 33.0848 32.5424 33.0848C31.9433 33.0848 31.4577 33.5704 31.4577 34.1695C31.4577 34.7686 31.9433 35.2543 32.5424 35.2543ZM16.2712 38.5084C16.2712 39.1075 15.7855 39.5932 15.1864 39.5932C14.5874 39.5932 14.1017 39.1075 14.1017 38.5084C14.1017 37.9094 14.5874 37.4237 15.1864 37.4237C15.7855 37.4237 16.2712 37.9094 16.2712 38.5084ZM32.5424 39.5932C33.1415 39.5932 33.6272 39.1075 33.6272 38.5084C33.6272 37.9094 33.1415 37.4237 32.5424 37.4237C31.9433 37.4237 31.4577 37.9094 31.4577 38.5084C31.4577 39.1075 31.9433 39.5932 32.5424 39.5932ZM16.2712 42.8475C16.2712 43.4466 15.7855 43.9323 15.1864 43.9323C14.5874 43.9323 14.1017 43.4466 14.1017 42.8475C14.1017 42.2484 14.5874 41.7628 15.1864 41.7628C15.7855 41.7628 16.2712 42.2484 16.2712 42.8475ZM32.5424 43.9323C33.1415 43.9323 33.6272 43.4466 33.6272 42.8475C33.6272 42.2484 33.1415 41.7628 32.5424 41.7628C31.9433 41.7628 31.4577 42.2484 31.4577 42.8475C31.4577 43.4466 31.9433 43.9323 32.5424 43.9323ZM20.6101 34.1695C20.6101 34.7686 20.1245 35.2543 19.5254 35.2543C18.9263 35.2543 18.4406 34.7686 18.4406 34.1695C18.4406 33.5704 18.9263 33.0848 19.5254 33.0848C20.1245 33.0848 20.6101 33.5704 20.6101 34.1695ZM19.5254 39.5932C20.1245 39.5932 20.6101 39.1075 20.6101 38.5084C20.6101 37.9094 20.1245 37.4237 19.5254 37.4237C18.9263 37.4237 18.4406 37.9094 18.4406 38.5084C18.4406 39.1075 18.9263 39.5932 19.5254 39.5932ZM20.6101 42.8475C20.6101 43.4466 20.1245 43.9323 19.5254 43.9323C18.9263 43.9323 18.4406 43.4466 18.4406 42.8475C18.4406 42.2484 18.9263 41.7628 19.5254 41.7628C20.1245 41.7628 20.6101 42.2484 20.6101 42.8475ZM23.8644 35.2543C24.4635 35.2543 24.9492 34.7686 24.9492 34.1695C24.9492 33.5704 24.4635 33.0848 23.8644 33.0848C23.2653 33.0848 22.7797 33.5704 22.7797 34.1695C22.7797 34.7686 23.2653 35.2543 23.8644 35.2543ZM24.9492 38.5084C24.9492 39.1075 24.4635 39.5932 23.8644 39.5932C23.2653 39.5932 22.7797 39.1075 22.7797 38.5084C22.7797 37.9094 23.2653 37.4237 23.8644 37.4237C24.4635 37.4237 24.9492 37.9094 24.9492 38.5084ZM36.8814 39.5932C37.4804 39.5932 37.9661 39.1075 37.9661 38.5084C37.9661 37.9094 37.4804 37.4237 36.8814 37.4237C36.2823 37.4237 35.7966 37.9094 35.7966 38.5084C35.7966 39.1075 36.2823 39.5932 36.8814 39.5932ZM24.9492 42.8475C24.9492 43.4466 24.4635 43.9323 23.8644 43.9323C23.2653 43.9323 22.7797 43.4466 22.7797 42.8475C22.7797 42.2484 23.2653 41.7628 23.8644 41.7628C24.4635 41.7628 24.9492 42.2484 24.9492 42.8475ZM36.8814 43.9323C37.4804 43.9323 37.9661 43.4466 37.9661 42.8475C37.9661 42.2484 37.4804 41.7628 36.8814 41.7628C36.2823 41.7628 35.7966 42.2484 35.7966 42.8475C35.7966 43.4466 36.2823 43.9323 36.8814 43.9323ZM29.2881 34.1695C29.2881 34.7686 28.8025 35.2543 28.2034 35.2543C27.6043 35.2543 27.1186 34.7686 27.1186 34.1695C27.1186 33.5704 27.6043 33.0848 28.2034 33.0848C28.8025 33.0848 29.2881 33.5704 29.2881 34.1695ZM28.2034 39.5932C28.8025 39.5932 29.2881 39.1075 29.2881 38.5084C29.2881 37.9094 28.8025 37.4237 28.2034 37.4237C27.6043 37.4237 27.1186 37.9094 27.1186 38.5084C27.1186 39.1075 27.6043 39.5932 28.2034 39.5932ZM29.2881 42.8475C29.2881 43.4466 28.8025 43.9323 28.2034 43.9323C27.6043 43.9323 27.1186 43.4466 27.1186 42.8475C27.1186 42.2484 27.6043 41.7628 28.2034 41.7628C28.8025 41.7628 29.2881 42.2484 29.2881 42.8475ZM41.2203 43.9323C41.8194 43.9323 42.305 43.4466 42.305 42.8475C42.305 42.2484 41.8194 41.7628 41.2203 41.7628C40.6212 41.7628 40.1355 42.2484 40.1355 42.8475C40.1355 43.4466 40.6212 43.9323 41.2203 43.9323Z" fill="white"/>
</svg>
