<svg width="64" height="64" viewBox="0 0 64 64" fill="none" xmlns="http://www.w3.org/2000/svg">
<g clip-path="url(#clip0_1967:19179)">
<path fill-rule="evenodd" clip-rule="evenodd" d="M14.6667 6.40002H61.6C62.9255 6.40002 64 7.47454 64 8.80002V48C64 53.3019 59.7019 57.6 54.4 57.6H14.6667V48.1519L21.705 41.323L17.7633 37.4986H29.3332V26.5012H17.7633L21.705 22.6767L14.6667 15.8479V6.40002ZM14.6667 38.2097L11.1854 34.832H26.6667V29.1679H26.6665V29.1678H14.6667V29.1679H11.1854L17.8756 22.6768L17.8755 22.6767L14.6667 19.5634L13.7424 18.6666L0 32L13.7424 45.3333L17.8756 41.3231L17.8755 41.323L14.6667 38.2097ZM43.1999 22.4002C43.1999 23.2838 42.4836 24.0002 41.5999 24.0002C40.7163 24.0002 39.9999 23.2838 39.9999 22.4002C39.9999 21.5165 40.7163 20.8002 41.5999 20.8002C42.4836 20.8002 43.1999 21.5165 43.1999 22.4002ZM47.9996 24.0002C48.8833 24.0002 49.5996 23.2838 49.5996 22.4002C49.5996 21.5165 48.8833 20.8002 47.9996 20.8002C47.1159 20.8002 46.3996 21.5165 46.3996 22.4002C46.3996 23.2838 47.1159 24.0002 47.9996 24.0002ZM56.0001 22.4002C56.0001 23.2838 55.2837 24.0002 54.4001 24.0002C53.5164 24.0002 52.8001 23.2838 52.8001 22.4002C52.8001 21.5165 53.5164 20.8002 54.4001 20.8002C55.2837 20.8002 56.0001 21.5165 56.0001 22.4002ZM41.5999 30.4002C42.4836 30.4002 43.1999 29.6838 43.1999 28.8002C43.1999 27.9165 42.4836 27.2002 41.5999 27.2002C40.7163 27.2002 39.9999 27.9165 39.9999 28.8002C39.9999 29.6838 40.7163 30.4002 41.5999 30.4002ZM49.5996 28.8002C49.5996 29.6838 48.8833 30.4002 47.9996 30.4002C47.1159 30.4002 46.3996 29.6838 46.3996 28.8002C46.3996 27.9165 47.1159 27.2002 47.9996 27.2002C48.8833 27.2002 49.5996 27.9165 49.5996 28.8002ZM54.4001 30.4002C55.2837 30.4002 56.0001 29.6838 56.0001 28.8002C56.0001 27.9165 55.2837 27.2002 54.4001 27.2002C53.5164 27.2002 52.8001 27.9165 52.8001 28.8002C52.8001 29.6838 53.5164 30.4002 54.4001 30.4002ZM30.3998 48C30.3998 48.8837 29.6834 49.6 28.7998 49.6C27.9161 49.6 27.1998 48.8837 27.1998 48C27.1998 47.1163 27.9161 46.4 28.7998 46.4C29.6834 46.4 30.3998 47.1163 30.3998 48ZM35.2002 43.2C36.0839 43.2 36.8002 42.4837 36.8002 41.6C36.8002 40.7163 36.0839 40 35.2002 40C34.3166 40 33.6002 40.7163 33.6002 41.6C33.6002 42.4837 34.3166 43.2 35.2002 43.2ZM36.8002 48C36.8002 48.8837 36.0839 49.6 35.2002 49.6C34.3166 49.6 33.6002 48.8837 33.6002 48C33.6002 47.1163 34.3166 46.4 35.2002 46.4C36.0839 46.4 36.8002 47.1163 36.8002 48ZM41.5999 36.8002C42.4836 36.8002 43.1999 36.0838 43.1999 35.2002C43.1999 34.3165 42.4836 33.6002 41.5999 33.6002C40.7163 33.6002 39.9999 34.3165 39.9999 35.2002C39.9999 36.0838 40.7163 36.8002 41.5999 36.8002ZM43.1999 41.6C43.1999 42.4837 42.4836 43.2 41.5999 43.2C40.7163 43.2 39.9999 42.4837 39.9999 41.6C39.9999 40.7163 40.7163 40 41.5999 40C42.4836 40 43.1999 40.7163 43.1999 41.6ZM41.5999 49.6C42.4836 49.6 43.1999 48.8837 43.1999 48C43.1999 47.1163 42.4836 46.4 41.5999 46.4C40.7163 46.4 39.9999 47.1163 39.9999 48C39.9999 48.8837 40.7163 49.6 41.5999 49.6ZM49.5996 35.2002C49.5996 36.0838 48.8833 36.8002 47.9996 36.8002C47.1159 36.8002 46.3996 36.0838 46.3996 35.2002C46.3996 34.3165 47.1159 33.6002 47.9996 33.6002C48.8833 33.6002 49.5996 34.3165 49.5996 35.2002ZM47.9996 43.2C48.8833 43.2 49.5996 42.4837 49.5996 41.6C49.5996 40.7163 48.8833 40 47.9996 40C47.1159 40 46.3996 40.7163 46.3996 41.6C46.3996 42.4837 47.1159 43.2 47.9996 43.2ZM49.5996 48C49.5996 48.8837 48.8833 49.6 47.9996 49.6C47.1159 49.6 46.3996 48.8837 46.3996 48C46.3996 47.1163 47.1159 46.4 47.9996 46.4C48.8833 46.4 49.5996 47.1163 49.5996 48ZM54.4001 36.8002C55.2837 36.8002 56.0001 36.0838 56.0001 35.2002C56.0001 34.3165 55.2837 33.6002 54.4001 33.6002C53.5164 33.6002 52.8001 34.3165 52.8001 35.2002C52.8001 36.0838 53.5164 36.8002 54.4001 36.8002ZM56.0001 41.6C56.0001 42.4837 55.2837 43.2 54.4001 43.2C53.5164 43.2 52.8001 42.4837 52.8001 41.6C52.8001 40.7163 53.5164 40 54.4001 40C55.2837 40 56.0001 40.7163 56.0001 41.6ZM54.4001 49.6C55.2837 49.6 56.0001 48.8837 56.0001 48C56.0001 47.1163 55.2837 46.4 54.4001 46.4C53.5164 46.4 52.8001 47.1163 52.8001 48C52.8001 48.8837 53.5164 49.6 54.4001 49.6Z" fill="white"/>
</g>
<defs>
<clipPath id="clip0_1967:19179">
<rect width="64" height="64" fill="white"/>
</clipPath>
</defs>
</svg>
