<svg width="64" height="64" viewBox="0 0 64 64" fill="none" xmlns="http://www.w3.org/2000/svg">
<path fill-rule="evenodd" clip-rule="evenodd" d="M0 16C0 14.8954 0.895431 14 2 14H62C63.1046 14 64 14.8954 64 16V42.5714C64 46.9897 60.4183 50.5714 56 50.5714H8C3.58172 50.5714 0 46.9897 0 42.5714V16ZM7.99995 25.4286C7.99995 26.0598 7.48827 26.5715 6.85709 26.5715C6.22591 26.5715 5.71423 26.0598 5.71423 25.4286C5.71423 24.7974 6.22591 24.2858 6.85709 24.2858C7.48827 24.2858 7.99995 24.7974 7.99995 25.4286ZM29.7143 26.5715C30.3455 26.5715 30.8571 26.0598 30.8571 25.4286C30.8571 24.7974 30.3455 24.2858 29.7143 24.2858C29.0831 24.2858 28.5714 24.7974 28.5714 25.4286C28.5714 26.0598 29.0831 26.5715 29.7143 26.5715ZM7.99995 30C7.99995 30.6312 7.48827 31.1429 6.85709 31.1429C6.22591 31.1429 5.71423 30.6312 5.71423 30C5.71423 29.3689 6.22591 28.8572 6.85709 28.8572C7.48827 28.8572 7.99995 29.3689 7.99995 30ZM29.7143 31.1429C30.3455 31.1429 30.8571 30.6312 30.8571 30C30.8571 29.3689 30.3455 28.8572 29.7143 28.8572C29.0831 28.8572 28.5714 29.3689 28.5714 30C28.5714 30.6312 29.0831 31.1429 29.7143 31.1429ZM7.99995 34.5714C7.99995 35.2026 7.48827 35.7143 6.85709 35.7143C6.22591 35.7143 5.71423 35.2026 5.71423 34.5714C5.71423 33.9403 6.22591 33.4286 6.85709 33.4286C7.48827 33.4286 7.99995 33.9403 7.99995 34.5714ZM6.85709 40.2857C7.48827 40.2857 7.99995 39.774 7.99995 39.1429C7.99995 38.5117 7.48827 38 6.85709 38C6.22591 38 5.71423 38.5117 5.71423 39.1429C5.71423 39.774 6.22591 40.2857 6.85709 40.2857ZM7.99995 43.7143C7.99995 44.3455 7.48827 44.8571 6.85709 44.8571C6.22591 44.8571 5.71423 44.3455 5.71423 43.7143C5.71423 43.0831 6.22591 42.5714 6.85709 42.5714C7.48827 42.5714 7.99995 43.0831 7.99995 43.7143ZM29.7143 35.7143C30.3455 35.7143 30.8571 35.2026 30.8571 34.5714C30.8571 33.9403 30.3455 33.4286 29.7143 33.4286C29.0831 33.4286 28.5714 33.9403 28.5714 34.5714C28.5714 35.2026 29.0831 35.7143 29.7143 35.7143ZM30.8571 39.1429C30.8571 39.774 30.3455 40.2857 29.7143 40.2857C29.0831 40.2857 28.5714 39.774 28.5714 39.1429C28.5714 38.5117 29.0831 38 29.7143 38C30.3455 38 30.8571 38.5117 30.8571 39.1429ZM29.7143 44.8571C30.3455 44.8571 30.8571 44.3455 30.8571 43.7143C30.8571 43.0831 30.3455 42.5714 29.7143 42.5714C29.0831 42.5714 28.5714 43.0831 28.5714 43.7143C28.5714 44.3455 29.0831 44.8571 29.7143 44.8571ZM12.5715 25.4286C12.5715 26.0598 12.0598 26.5715 11.4286 26.5715C10.7974 26.5715 10.2858 26.0598 10.2858 25.4286C10.2858 24.7974 10.7974 24.2858 11.4286 24.2858C12.0598 24.2858 12.5715 24.7974 12.5715 25.4286ZM34.2857 26.5715C34.9169 26.5715 35.4285 26.0598 35.4285 25.4286C35.4285 24.7974 34.9169 24.2858 34.2857 24.2858C33.6545 24.2858 33.1428 24.7974 33.1428 25.4286C33.1428 26.0598 33.6545 26.5715 34.2857 26.5715ZM12.5715 30C12.5715 30.6312 12.0598 31.1429 11.4286 31.1429C10.7974 31.1429 10.2858 30.6312 10.2858 30C10.2858 29.3689 10.7974 28.8572 11.4286 28.8572C12.0598 28.8572 12.5715 29.3689 12.5715 30ZM34.2857 31.1429C34.9169 31.1429 35.4285 30.6312 35.4285 30C35.4285 29.3689 34.9169 28.8572 34.2857 28.8572C33.6545 28.8572 33.1428 29.3689 33.1428 30C33.1428 30.6312 33.6545 31.1429 34.2857 31.1429ZM12.5715 34.5714C12.5715 35.2026 12.0598 35.7143 11.4286 35.7143C10.7974 35.7143 10.2858 35.2026 10.2858 34.5714C10.2858 33.9403 10.7974 33.4286 11.4286 33.4286C12.0598 33.4286 12.5715 33.9403 12.5715 34.5714ZM11.4286 40.2857C12.0598 40.2857 12.5715 39.774 12.5715 39.1429C12.5715 38.5117 12.0598 38 11.4286 38C10.7974 38 10.2858 38.5117 10.2858 39.1429C10.2858 39.774 10.7974 40.2857 11.4286 40.2857ZM12.5715 43.7143C12.5715 44.3455 12.0598 44.8571 11.4286 44.8571C10.7974 44.8571 10.2858 44.3455 10.2858 43.7143C10.2858 43.0831 10.7974 42.5714 11.4286 42.5714C12.0598 42.5714 12.5715 43.0831 12.5715 43.7143ZM34.2857 35.7143C34.9169 35.7143 35.4285 35.2026 35.4285 34.5714C35.4285 33.9403 34.9169 33.4286 34.2857 33.4286C33.6545 33.4286 33.1428 33.9403 33.1428 34.5714C33.1428 35.2026 33.6545 35.7143 34.2857 35.7143ZM35.4285 39.1429C35.4285 39.774 34.9169 40.2857 34.2857 40.2857C33.6545 40.2857 33.1428 39.774 33.1428 39.1429C33.1428 38.5117 33.6545 38 34.2857 38C34.9169 38 35.4285 38.5117 35.4285 39.1429ZM34.2857 44.8571C34.9169 44.8571 35.4285 44.3455 35.4285 43.7143C35.4285 43.0831 34.9169 42.5714 34.2857 42.5714C33.6545 42.5714 33.1428 43.0831 33.1428 43.7143C33.1428 44.3455 33.6545 44.8571 34.2857 44.8571ZM17.1429 25.4286C17.1429 26.0598 16.6312 26.5715 16 26.5715C15.3689 26.5715 14.8572 26.0598 14.8572 25.4286C14.8572 24.7974 15.3689 24.2858 16 24.2858C16.6312 24.2858 17.1429 24.7974 17.1429 25.4286ZM38.8571 26.5715C39.4883 26.5715 39.9999 26.0598 39.9999 25.4286C39.9999 24.7974 39.4883 24.2858 38.8571 24.2858C38.2259 24.2858 37.7142 24.7974 37.7142 25.4286C37.7142 26.0598 38.2259 26.5715 38.8571 26.5715ZM44.5715 25.4286C44.5715 26.0598 44.0598 26.5715 43.4286 26.5715C42.7974 26.5715 42.2858 26.0598 42.2858 25.4286C42.2858 24.7974 42.7974 24.2858 43.4286 24.2858C44.0598 24.2858 44.5715 24.7974 44.5715 25.4286ZM16 31.1429C16.6312 31.1429 17.1429 30.6312 17.1429 30C17.1429 29.3689 16.6312 28.8572 16 28.8572C15.3689 28.8572 14.8572 29.3689 14.8572 30C14.8572 30.6312 15.3689 31.1429 16 31.1429ZM39.9999 30C39.9999 30.6312 39.4883 31.1429 38.8571 31.1429C38.2259 31.1429 37.7142 30.6312 37.7142 30C37.7142 29.3689 38.2259 28.8572 38.8571 28.8572C39.4883 28.8572 39.9999 29.3689 39.9999 30ZM43.4286 31.1429C44.0598 31.1429 44.5715 30.6312 44.5715 30C44.5715 29.3689 44.0598 28.8572 43.4286 28.8572C42.7974 28.8572 42.2858 29.3689 42.2858 30C42.2858 30.6312 42.7974 31.1429 43.4286 31.1429ZM17.1429 34.5714C17.1429 35.2026 16.6312 35.7143 16 35.7143C15.3689 35.7143 14.8572 35.2026 14.8572 34.5714C14.8572 33.9403 15.3689 33.4286 16 33.4286C16.6312 33.4286 17.1429 33.9403 17.1429 34.5714ZM16 40.2857C16.6312 40.2857 17.1429 39.774 17.1429 39.1429C17.1429 38.5117 16.6312 38 16 38C15.3689 38 14.8572 38.5117 14.8572 39.1429C14.8572 39.774 15.3689 40.2857 16 40.2857ZM17.1429 43.7143C17.1429 44.3455 16.6312 44.8571 16 44.8571C15.3689 44.8571 14.8572 44.3455 14.8572 43.7143C14.8572 43.0831 15.3689 42.5714 16 42.5714C16.6312 42.5714 17.1429 43.0831 17.1429 43.7143ZM38.8571 35.7143C39.4883 35.7143 39.9999 35.2026 39.9999 34.5714C39.9999 33.9403 39.4883 33.4286 38.8571 33.4286C38.2259 33.4286 37.7142 33.9403 37.7142 34.5714C37.7142 35.2026 38.2259 35.7143 38.8571 35.7143ZM39.9999 39.1429C39.9999 39.774 39.4883 40.2857 38.8571 40.2857C38.2259 40.2857 37.7142 39.774 37.7142 39.1429C37.7142 38.5117 38.2259 38 38.8571 38C39.4883 38 39.9999 38.5117 39.9999 39.1429ZM38.8571 44.8571C39.4883 44.8571 39.9999 44.3455 39.9999 43.7143C39.9999 43.0831 39.4883 42.5714 38.8571 42.5714C38.2259 42.5714 37.7142 43.0831 37.7142 43.7143C37.7142 44.3455 38.2259 44.8571 38.8571 44.8571ZM44.5715 34.5714C44.5715 35.2026 44.0598 35.7143 43.4286 35.7143C42.7974 35.7143 42.2858 35.2026 42.2858 34.5714C42.2858 33.9403 42.7974 33.4286 43.4286 33.4286C44.0598 33.4286 44.5715 33.9403 44.5715 34.5714ZM43.4286 40.2857C44.0598 40.2857 44.5715 39.774 44.5715 39.1429C44.5715 38.5117 44.0598 38 43.4286 38C42.7974 38 42.2858 38.5117 42.2858 39.1429C42.2858 39.774 42.7974 40.2857 43.4286 40.2857ZM44.5715 43.7143C44.5715 44.3455 44.0598 44.8571 43.4286 44.8571C42.7974 44.8571 42.2858 44.3455 42.2858 43.7143C42.2858 43.0831 42.7974 42.5714 43.4286 42.5714C44.0598 42.5714 44.5715 43.0831 44.5715 43.7143ZM20.5714 26.5715C21.2026 26.5715 21.7143 26.0598 21.7143 25.4286C21.7143 24.7974 21.2026 24.2858 20.5714 24.2858C19.9403 24.2858 19.4286 24.7974 19.4286 25.4286C19.4286 26.0598 19.9403 26.5715 20.5714 26.5715ZM26.2857 25.4286C26.2857 26.0598 25.774 26.5715 25.1429 26.5715C24.5117 26.5715 24 26.0598 24 25.4286C24 24.7974 24.5117 24.2858 25.1429 24.2858C25.774 24.2858 26.2857 24.7974 26.2857 25.4286ZM20.5714 31.1429C21.2026 31.1429 21.7143 30.6312 21.7143 30C21.7143 29.3689 21.2026 28.8572 20.5714 28.8572C19.9403 28.8572 19.4286 29.3689 19.4286 30C19.4286 30.6312 19.9403 31.1429 20.5714 31.1429ZM26.2857 30C26.2857 30.6312 25.774 31.1429 25.1429 31.1429C24.5117 31.1429 24 30.6312 24 30C24 29.3689 24.5117 28.8572 25.1429 28.8572C25.774 28.8572 26.2857 29.3689 26.2857 30ZM20.5714 35.7143C21.2026 35.7143 21.7143 35.2026 21.7143 34.5714C21.7143 33.9403 21.2026 33.4286 20.5714 33.4286C19.9403 33.4286 19.4286 33.9403 19.4286 34.5714C19.4286 35.2026 19.9403 35.7143 20.5714 35.7143ZM21.7143 39.1429C21.7143 39.774 21.2026 40.2857 20.5714 40.2857C19.9403 40.2857 19.4286 39.774 19.4286 39.1429C19.4286 38.5117 19.9403 38 20.5714 38C21.2026 38 21.7143 38.5117 21.7143 39.1429ZM20.5714 44.8571C21.2026 44.8571 21.7143 44.3455 21.7143 43.7143C21.7143 43.0831 21.2026 42.5714 20.5714 42.5714C19.9403 42.5714 19.4286 43.0831 19.4286 43.7143C19.4286 44.3455 19.9403 44.8571 20.5714 44.8571ZM26.2857 34.5714C26.2857 35.2026 25.774 35.7143 25.1429 35.7143C24.5117 35.7143 24 35.2026 24 34.5714C24 33.9403 24.5117 33.4286 25.1429 33.4286C25.774 33.4286 26.2857 33.9403 26.2857 34.5714ZM25.1429 40.2857C25.774 40.2857 26.2857 39.774 26.2857 39.1429C26.2857 38.5117 25.774 38 25.1429 38C24.5117 38 24 38.5117 24 39.1429C24 39.774 24.5117 40.2857 25.1429 40.2857ZM26.2857 43.7143C26.2857 44.3455 25.774 44.8571 25.1429 44.8571C24.5117 44.8571 24 44.3455 24 43.7143C24 43.0831 24.5117 42.5714 25.1429 42.5714C25.774 42.5714 26.2857 43.0831 26.2857 43.7143ZM61 32.5L51 41V24L61 32.5Z" fill="white"/>
</svg>
