<svg width="32" height="32" viewBox="0 0 32 32" fill="none" xmlns="http://www.w3.org/2000/svg">
<path fill-rule="evenodd" clip-rule="evenodd" d="M1 6.85718C0.447715 6.85718 0 7.30489 0 7.85718V21.1429C0 23.352 1.79086 25.1429 4 25.1429H28C30.2091 25.1429 32 23.352 32 21.1429V7.85718C32 7.30489 31.5523 6.85718 31 6.85718H1ZM17.1428 13.1429C17.4584 13.1429 17.7143 12.887 17.7143 12.5714C17.7143 12.2558 17.4584 12 17.1428 12C16.8272 12 16.5714 12.2558 16.5714 12.5714C16.5714 12.887 16.8272 13.1429 17.1428 13.1429ZM17.7143 14.8572C17.7143 15.1728 17.4584 15.4286 17.1428 15.4286C16.8272 15.4286 16.5714 15.1728 16.5714 14.8572C16.5714 14.5416 16.8272 14.2858 17.1428 14.2858C17.4584 14.2858 17.7143 14.5416 17.7143 14.8572ZM17.1428 17.7143C17.4584 17.7143 17.7143 17.4584 17.7143 17.1428C17.7143 16.8272 17.4584 16.5714 17.1428 16.5714C16.8272 16.5714 16.5714 16.8272 16.5714 17.1428C16.5714 17.4584 16.8272 17.7143 17.1428 17.7143ZM17.7143 19.4286C17.7143 19.7442 17.4584 20 17.1428 20C16.8272 20 16.5714 19.7442 16.5714 19.4286C16.5714 19.113 16.8272 18.8572 17.1428 18.8572C17.4584 18.8572 17.7143 19.113 17.7143 19.4286ZM17.1428 22.2857C17.4584 22.2857 17.7143 22.0298 17.7143 21.7143C17.7143 21.3987 17.4584 21.1428 17.1428 21.1428C16.8272 21.1428 16.5714 21.3987 16.5714 21.7143C16.5714 22.0298 16.8272 22.2857 17.1428 22.2857ZM20 12.5714C20 12.887 19.7442 13.1429 19.4286 13.1429C19.113 13.1429 18.8572 12.887 18.8572 12.5714C18.8572 12.2558 19.113 12 19.4286 12C19.7442 12 20 12.2558 20 12.5714ZM21.7143 13.1429C22.0298 13.1429 22.2857 12.887 22.2857 12.5714C22.2857 12.2558 22.0298 12 21.7143 12C21.3987 12 21.1428 12.2558 21.1428 12.5714C21.1428 12.887 21.3987 13.1429 21.7143 13.1429ZM24.5714 12.5714C24.5714 12.887 24.3156 13.1429 24 13.1429C23.6844 13.1429 23.4286 12.887 23.4286 12.5714C23.4286 12.2558 23.6844 12 24 12C24.3156 12 24.5714 12.2558 24.5714 12.5714ZM26.2857 13.1429C26.6013 13.1429 26.8571 12.887 26.8571 12.5714C26.8571 12.2558 26.6013 12 26.2857 12C25.9701 12 25.7142 12.2558 25.7142 12.5714C25.7142 12.887 25.9701 13.1429 26.2857 13.1429ZM29.1429 12.5714C29.1429 12.887 28.887 13.1429 28.5714 13.1429C28.2558 13.1429 28 12.887 28 12.5714C28 12.2558 28.2558 12 28.5714 12C28.887 12 29.1429 12.2558 29.1429 12.5714ZM19.4286 15.4286C19.7442 15.4286 20 15.1728 20 14.8572C20 14.5416 19.7442 14.2858 19.4286 14.2858C19.113 14.2858 18.8572 14.5416 18.8572 14.8572C18.8572 15.1728 19.113 15.4286 19.4286 15.4286ZM22.2857 14.8572C22.2857 15.1728 22.0298 15.4286 21.7143 15.4286C21.3987 15.4286 21.1428 15.1728 21.1428 14.8572C21.1428 14.5416 21.3987 14.2858 21.7143 14.2858C22.0298 14.2858 22.2857 14.5416 22.2857 14.8572ZM24 15.4286C24.3156 15.4286 24.5714 15.1728 24.5714 14.8572C24.5714 14.5416 24.3156 14.2858 24 14.2858C23.6844 14.2858 23.4286 14.5416 23.4286 14.8572C23.4286 15.1728 23.6844 15.4286 24 15.4286ZM26.8571 14.8572C26.8571 15.1728 26.6013 15.4286 26.2857 15.4286C25.9701 15.4286 25.7142 15.1728 25.7142 14.8572C25.7142 14.5416 25.9701 14.2858 26.2857 14.2858C26.6013 14.2858 26.8571 14.5416 26.8571 14.8572ZM28.5714 15.4286C28.887 15.4286 29.1429 15.1728 29.1429 14.8572C29.1429 14.5416 28.887 14.2858 28.5714 14.2858C28.2558 14.2858 28 14.5416 28 14.8572C28 15.1728 28.2558 15.4286 28.5714 15.4286ZM20 17.1428C20 17.4584 19.7442 17.7143 19.4286 17.7143C19.113 17.7143 18.8572 17.4584 18.8572 17.1428C18.8572 16.8272 19.113 16.5714 19.4286 16.5714C19.7442 16.5714 20 16.8272 20 17.1428ZM19.4286 20C19.7442 20 20 19.7442 20 19.4286C20 19.113 19.7442 18.8572 19.4286 18.8572C19.113 18.8572 18.8572 19.113 18.8572 19.4286C18.8572 19.7442 19.113 20 19.4286 20ZM20 21.7143C20 22.0298 19.7442 22.2857 19.4286 22.2857C19.113 22.2857 18.8572 22.0298 18.8572 21.7143C18.8572 21.3987 19.113 21.1428 19.4286 21.1428C19.7442 21.1428 20 21.3987 20 21.7143ZM21.7143 17.7143C22.0298 17.7143 22.2857 17.4584 22.2857 17.1428C22.2857 16.8272 22.0298 16.5714 21.7143 16.5714C21.3987 16.5714 21.1428 16.8272 21.1428 17.1428C21.1428 17.4584 21.3987 17.7143 21.7143 17.7143ZM22.2857 19.4286C22.2857 19.7442 22.0298 20 21.7143 20C21.3987 20 21.1428 19.7442 21.1428 19.4286C21.1428 19.113 21.3987 18.8572 21.7143 18.8572C22.0298 18.8572 22.2857 19.113 22.2857 19.4286ZM21.7143 22.2857C22.0298 22.2857 22.2857 22.0298 22.2857 21.7143C22.2857 21.3987 22.0298 21.1428 21.7143 21.1428C21.3987 21.1428 21.1428 21.3987 21.1428 21.7143C21.1428 22.0298 21.3987 22.2857 21.7143 22.2857ZM24.5714 17.1428C24.5714 17.4584 24.3156 17.7143 24 17.7143C23.6844 17.7143 23.4286 17.4584 23.4286 17.1428C23.4286 16.8272 23.6844 16.5714 24 16.5714C24.3156 16.5714 24.5714 16.8272 24.5714 17.1428ZM24 20C24.3156 20 24.5714 19.7442 24.5714 19.4286C24.5714 19.113 24.3156 18.8572 24 18.8572C23.6844 18.8572 23.4286 19.113 23.4286 19.4286C23.4286 19.7442 23.6844 20 24 20ZM24.5714 21.7143C24.5714 22.0298 24.3156 22.2857 24 22.2857C23.6844 22.2857 23.4286 22.0298 23.4286 21.7143C23.4286 21.3987 23.6844 21.1428 24 21.1428C24.3156 21.1428 24.5714 21.3987 24.5714 21.7143ZM26.2857 17.7143C26.6013 17.7143 26.8571 17.4584 26.8571 17.1428C26.8571 16.8272 26.6013 16.5714 26.2857 16.5714C25.9701 16.5714 25.7142 16.8272 25.7142 17.1428C25.7142 17.4584 25.9701 17.7143 26.2857 17.7143ZM26.8571 19.4286C26.8571 19.7442 26.6013 20 26.2857 20C25.9701 20 25.7142 19.7442 25.7142 19.4286C25.7142 19.113 25.9701 18.8572 26.2857 18.8572C26.6013 18.8572 26.8571 19.113 26.8571 19.4286ZM26.2857 22.2857C26.6013 22.2857 26.8571 22.0298 26.8571 21.7143C26.8571 21.3987 26.6013 21.1428 26.2857 21.1428C25.9701 21.1428 25.7142 21.3987 25.7142 21.7143C25.7142 22.0298 25.9701 22.2857 26.2857 22.2857ZM29.1429 17.1428C29.1429 17.4584 28.887 17.7143 28.5714 17.7143C28.2558 17.7143 28 17.4584 28 17.1428C28 16.8272 28.2558 16.5714 28.5714 16.5714C28.887 16.5714 29.1429 16.8272 29.1429 17.1428ZM28.5714 20C28.887 20 29.1429 19.7442 29.1429 19.4286C29.1429 19.113 28.887 18.8572 28.5714 18.8572C28.2558 18.8572 28 19.113 28 19.4286C28 19.7442 28.2558 20 28.5714 20ZM29.1429 21.7143C29.1429 22.0298 28.887 22.2857 28.5714 22.2857C28.2558 22.2857 28 22.0298 28 21.7143C28 21.3987 28.2558 21.1428 28.5714 21.1428C28.887 21.1428 29.1429 21.3987 29.1429 21.7143ZM3.92859 16C3.92859 13.7514 5.75143 11.9286 8.00002 11.9286C10.2486 11.9286 12.0714 13.7514 12.0714 16C12.0714 18.2486 10.2486 20.0714 8.00002 20.0714C5.75143 20.0714 3.92859 18.2486 3.92859 16ZM8.00002 10.9286C5.19914 10.9286 2.92859 13.1991 2.92859 16C2.92859 18.8009 5.19914 21.0714 8.00002 21.0714C10.8009 21.0714 13.0714 18.8009 13.0714 16C13.0714 13.1991 10.8009 10.9286 8.00002 10.9286ZM7.99995 9.96423C4.66651 9.96423 1.96423 12.6665 1.96423 15.9999C1.96423 19.3334 4.66651 22.0357 7.99995 22.0357C11.3334 22.0357 14.0357 19.3334 14.0357 15.9999C14.0357 12.6665 11.3334 9.96423 7.99995 9.96423ZM1.46423 15.9999C1.46423 12.3904 4.39037 9.46423 7.99995 9.46423C11.6095 9.46423 14.5357 12.3904 14.5357 15.9999C14.5357 19.6095 11.6095 22.5357 7.99995 22.5357C4.39037 22.5357 1.46423 19.6095 1.46423 15.9999ZM6.89478 17.8572H9.34478V17.0772H7.75978V14.3572H6.89478V17.8572Z" fill="white"/>
</svg>
