<svg width="32" height="32" viewBox="0 0 32 32" fill="none" xmlns="http://www.w3.org/2000/svg">
<path fill-rule="evenodd" clip-rule="evenodd" d="M32 7.85718C32 7.30489 31.5523 6.85718 31 6.85718H0.999998C0.447713 6.85718 0 7.30489 0 7.85718V21.1429C0 23.352 1.79086 25.1429 4 25.1429H28C30.2091 25.1429 32 23.352 32 21.1429V7.85718ZM12 12.5714C12 12.887 12.2558 13.1429 12.5714 13.1429C12.887 13.1429 13.1428 12.887 13.1428 12.5714C13.1428 12.2558 12.887 12 12.5714 12C12.2558 12 12 12.2558 12 12.5714ZM10.2857 13.1429C9.97016 13.1429 9.71432 12.887 9.71432 12.5714C9.71432 12.2558 9.97016 12 10.2857 12C10.6013 12 10.8572 12.2558 10.8572 12.5714C10.8572 12.887 10.6013 13.1429 10.2857 13.1429ZM7.42855 12.5714C7.42855 12.887 7.68439 13.1429 7.99998 13.1429C8.31557 13.1429 8.57141 12.887 8.57141 12.5714C8.57141 12.2558 8.31557 12 7.99998 12C7.68439 12 7.42855 12.2558 7.42855 12.5714ZM5.71422 13.1429C5.39862 13.1429 5.14279 12.887 5.14279 12.5714C5.14279 12.2558 5.39862 12 5.71422 12C6.02981 12 6.28564 12.2558 6.28564 12.5714C6.28564 12.887 6.02981 13.1429 5.71422 13.1429ZM2.85714 12.5714C2.85714 12.887 3.11298 13.1429 3.42857 13.1429C3.74416 13.1429 4 12.887 4 12.5714C4 12.2558 3.74416 12 3.42857 12C3.11298 12 2.85714 12.2558 2.85714 12.5714ZM12.5714 15.4285C12.2558 15.4285 12 15.1727 12 14.8571C12 14.5415 12.2558 14.2856 12.5714 14.2856C12.887 14.2856 13.1428 14.5415 13.1428 14.8571C13.1428 15.1727 12.887 15.4285 12.5714 15.4285ZM9.71432 14.8571C9.71432 15.1727 9.97016 15.4285 10.2857 15.4285C10.6013 15.4285 10.8572 15.1727 10.8572 14.8571C10.8572 14.5415 10.6013 14.2856 10.2857 14.2856C9.97016 14.2856 9.71432 14.5415 9.71432 14.8571ZM7.99998 15.4285C7.68439 15.4285 7.42855 15.1727 7.42855 14.8571C7.42855 14.5415 7.68439 14.2856 7.99998 14.2856C8.31557 14.2856 8.57141 14.5415 8.57141 14.8571C8.57141 15.1727 8.31557 15.4285 7.99998 15.4285ZM5.14279 14.8571C5.14279 15.1727 5.39862 15.4285 5.71422 15.4285C6.02981 15.4285 6.28564 15.1727 6.28564 14.8571C6.28564 14.5415 6.02981 14.2856 5.71422 14.2856C5.39862 14.2856 5.14279 14.5415 5.14279 14.8571ZM3.42857 15.4285C3.11298 15.4285 2.85714 15.1727 2.85714 14.8571C2.85714 14.5415 3.11298 14.2856 3.42857 14.2856C3.74416 14.2856 4 14.5415 4 14.8571C4 15.1727 3.74416 15.4285 3.42857 15.4285ZM12 17.1428C12 17.4584 12.2558 17.7143 12.5714 17.7143C12.887 17.7143 13.1428 17.4584 13.1428 17.1428C13.1428 16.8272 12.887 16.5714 12.5714 16.5714C12.2558 16.5714 12 16.8272 12 17.1428ZM12.5714 20C12.2558 20 12 19.7442 12 19.4286C12 19.113 12.2558 18.8572 12.5714 18.8572C12.887 18.8572 13.1428 19.113 13.1428 19.4286C13.1428 19.7442 12.887 20 12.5714 20ZM12 21.7143C12 22.0298 12.2558 22.2857 12.5714 22.2857C12.887 22.2857 13.1428 22.0298 13.1428 21.7143C13.1428 21.3987 12.887 21.1428 12.5714 21.1428C12.2558 21.1428 12 21.3987 12 21.7143ZM10.2857 17.7143C9.97016 17.7143 9.71432 17.4584 9.71432 17.1428C9.71432 16.8272 9.97016 16.5714 10.2857 16.5714C10.6013 16.5714 10.8572 16.8272 10.8572 17.1428C10.8572 17.4584 10.6013 17.7143 10.2857 17.7143ZM9.71432 19.4286C9.71432 19.7442 9.97016 20 10.2857 20C10.6013 20 10.8572 19.7442 10.8572 19.4286C10.8572 19.113 10.6013 18.8572 10.2857 18.8572C9.97016 18.8572 9.71432 19.113 9.71432 19.4286ZM10.2857 22.2857C9.97016 22.2857 9.71432 22.0298 9.71432 21.7143C9.71432 21.3987 9.97016 21.1428 10.2857 21.1428C10.6013 21.1428 10.8572 21.3987 10.8572 21.7143C10.8572 22.0298 10.6013 22.2857 10.2857 22.2857ZM7.42855 17.1428C7.42855 17.4584 7.68439 17.7143 7.99998 17.7143C8.31557 17.7143 8.57141 17.4584 8.57141 17.1428C8.57141 16.8272 8.31557 16.5714 7.99998 16.5714C7.68439 16.5714 7.42855 16.8272 7.42855 17.1428ZM7.99998 20C7.68439 20 7.42855 19.7442 7.42855 19.4286C7.42855 19.113 7.68439 18.8572 7.99998 18.8572C8.31557 18.8572 8.57141 19.113 8.57141 19.4286C8.57141 19.7442 8.31557 20 7.99998 20ZM7.42855 21.7143C7.42855 22.0298 7.68439 22.2857 7.99998 22.2857C8.31557 22.2857 8.57141 22.0298 8.57141 21.7143C8.57141 21.3987 8.31557 21.1428 7.99998 21.1428C7.68439 21.1428 7.42855 21.3987 7.42855 21.7143ZM5.71422 17.7143C5.39862 17.7143 5.14279 17.4584 5.14279 17.1428C5.14279 16.8272 5.39862 16.5714 5.71422 16.5714C6.02981 16.5714 6.28564 16.8272 6.28564 17.1428C6.28564 17.4584 6.02981 17.7143 5.71422 17.7143ZM5.14279 19.4286C5.14279 19.7442 5.39862 20 5.71422 20C6.02981 20 6.28564 19.7442 6.28564 19.4286C6.28564 19.113 6.02981 18.8572 5.71422 18.8572C5.39862 18.8572 5.14279 19.113 5.14279 19.4286ZM5.71422 22.2857C5.39862 22.2857 5.14279 22.0298 5.14279 21.7143C5.14279 21.3987 5.39862 21.1428 5.71422 21.1428C6.02981 21.1428 6.28564 21.3987 6.28564 21.7143C6.28564 22.0298 6.02981 22.2857 5.71422 22.2857ZM2.85714 17.1428C2.85714 17.4584 3.11298 17.7143 3.42857 17.7143C3.74416 17.7143 4 17.4584 4 17.1428C4 16.8272 3.74416 16.5714 3.42857 16.5714C3.11298 16.5714 2.85714 16.8272 2.85714 17.1428ZM3.42857 20C3.11298 20 2.85714 19.7442 2.85714 19.4286C2.85714 19.113 3.11298 18.8572 3.42857 18.8572C3.74416 18.8572 4 19.113 4 19.4286C4 19.7442 3.74416 20 3.42857 20ZM2.85714 21.7143C2.85714 22.0298 3.11298 22.2857 3.42857 22.2857C3.74416 22.2857 4 22.0298 4 21.7143C4 21.3987 3.74416 21.1428 3.42857 21.1428C3.11298 21.1428 2.85714 21.3987 2.85714 21.7143ZM27.8572 9H19C17.8955 9 17 9.89543 17 11V21C17 22.1046 17.8955 23 19 23H27.8572C28.9617 23 29.8572 22.1046 29.8572 21V11C29.8572 9.89543 28.9617 9 27.8572 9ZM30.8572 11C30.8572 9.34315 29.514 8 27.8572 8H19C17.3432 8 16 9.34315 16 11V21C16 22.6569 17.3432 24 19 24H27.8572C29.514 24 30.8572 22.6569 30.8572 21V11Z" fill="white"/>
</svg>
