<svg width="64" height="64" viewBox="0 0 64 64" fill="none" xmlns="http://www.w3.org/2000/svg">
<path fill-rule="evenodd" clip-rule="evenodd" d="M0 16.644C0 15.5395 0.895431 14.644 2 14.644H58.7458C59.8503 14.644 60.7458 15.5395 60.7458 16.644V25.8199L52.8197 18.1298L46.3415 24.4151L49.5484 27.5265H40.1355V36.4736H49.5484L46.3415 39.5849L52.8197 45.8703L60.7458 38.1801V41.3559C60.7458 45.7742 57.164 49.3559 52.7458 49.3559H8.00001C3.58173 49.3559 0 45.7742 0 41.3559V16.644ZM60.7458 35.1573L64 32L60.7458 28.8427L52.8197 21.1525L52.8197 21.1526L49.4571 24.415L49.4571 24.4151L54.8999 29.6959H42.3051V29.696H42.305V34.3041H54.9L49.4571 39.5849L49.4571 39.5849L52.8197 42.8475L52.8197 42.8474L60.7458 35.1573ZM7.59323 25.4915C7.59323 26.0906 7.10757 26.5762 6.50848 26.5762C5.90939 26.5762 5.42374 26.0906 5.42374 25.4915C5.42374 24.8924 5.90939 24.4067 6.50848 24.4067C7.10757 24.4067 7.59323 24.8924 7.59323 25.4915ZM6.50848 30.9153C7.10757 30.9153 7.59323 30.4296 7.59323 29.8305C7.59323 29.2314 7.10757 28.7458 6.50848 28.7458C5.90939 28.7458 5.42374 29.2314 5.42374 29.8305C5.42374 30.4296 5.90939 30.9153 6.50848 30.9153ZM7.59323 34.1694C7.59323 34.7685 7.10757 35.2542 6.50848 35.2542C5.90939 35.2542 5.42374 34.7685 5.42374 34.1694C5.42374 33.5704 5.90939 33.0847 6.50848 33.0847C7.10757 33.0847 7.59323 33.5704 7.59323 34.1694ZM6.50848 39.5932C7.10757 39.5932 7.59323 39.1076 7.59323 38.5085C7.59323 37.9094 7.10757 37.4237 6.50848 37.4237C5.90939 37.4237 5.42374 37.9094 5.42374 38.5085C5.42374 39.1076 5.90939 39.5932 6.50848 39.5932ZM7.59323 42.8475C7.59323 43.4466 7.10757 43.9323 6.50848 43.9323C5.90939 43.9323 5.42374 43.4466 5.42374 42.8475C5.42374 42.2484 5.90939 41.7628 6.50848 41.7628C7.10757 41.7628 7.59323 42.2484 7.59323 42.8475ZM10.8475 26.5762C11.4466 26.5762 11.9323 26.0906 11.9323 25.4915C11.9323 24.8924 11.4466 24.4067 10.8475 24.4067C10.2484 24.4067 9.76277 24.8924 9.76277 25.4915C9.76277 26.0906 10.2484 26.5762 10.8475 26.5762ZM16.2712 25.4915C16.2712 26.0906 15.7855 26.5762 15.1864 26.5762C14.5873 26.5762 14.1017 26.0906 14.1017 25.4915C14.1017 24.8924 14.5873 24.4067 15.1864 24.4067C15.7855 24.4067 16.2712 24.8924 16.2712 25.4915ZM32.5423 26.5762C33.1414 26.5762 33.6271 26.0906 33.6271 25.4915C33.6271 24.8924 33.1414 24.4067 32.5423 24.4067C31.9432 24.4067 31.4576 24.8924 31.4576 25.4915C31.4576 26.0906 31.9432 26.5762 32.5423 26.5762ZM20.6102 25.4915C20.6102 26.0906 20.1246 26.5762 19.5255 26.5762C18.9264 26.5762 18.4407 26.0906 18.4407 25.4915C18.4407 24.8924 18.9264 24.4067 19.5255 24.4067C20.1246 24.4067 20.6102 24.8924 20.6102 25.4915ZM23.8644 26.5762C24.4635 26.5762 24.9491 26.0906 24.9491 25.4915C24.9491 24.8924 24.4635 24.4067 23.8644 24.4067C23.2653 24.4067 22.7796 24.8924 22.7796 25.4915C22.7796 26.0906 23.2653 26.5762 23.8644 26.5762ZM29.2882 25.4915C29.2882 26.0906 28.8025 26.5762 28.2034 26.5762C27.6043 26.5762 27.1187 26.0906 27.1187 25.4915C27.1187 24.8924 27.6043 24.4067 28.2034 24.4067C28.8025 24.4067 29.2882 24.8924 29.2882 25.4915ZM10.8475 30.9153C11.4466 30.9153 11.9323 30.4296 11.9323 29.8305C11.9323 29.2314 11.4466 28.7458 10.8475 28.7458C10.2484 28.7458 9.76277 29.2314 9.76277 29.8305C9.76277 30.4296 10.2484 30.9153 10.8475 30.9153ZM16.2712 29.8305C16.2712 30.4296 15.7855 30.9153 15.1864 30.9153C14.5873 30.9153 14.1017 30.4296 14.1017 29.8305C14.1017 29.2314 14.5873 28.7458 15.1864 28.7458C15.7855 28.7458 16.2712 29.2314 16.2712 29.8305ZM32.5423 30.9153C33.1414 30.9153 33.6271 30.4296 33.6271 29.8305C33.6271 29.2314 33.1414 28.7458 32.5423 28.7458C31.9432 28.7458 31.4576 29.2314 31.4576 29.8305C31.4576 30.4296 31.9432 30.9153 32.5423 30.9153ZM20.6102 29.8305C20.6102 30.4296 20.1246 30.9153 19.5255 30.9153C18.9264 30.9153 18.4407 30.4296 18.4407 29.8305C18.4407 29.2314 18.9264 28.7458 19.5255 28.7458C20.1246 28.7458 20.6102 29.2314 20.6102 29.8305ZM23.8644 30.9153C24.4635 30.9153 24.9491 30.4296 24.9491 29.8305C24.9491 29.2314 24.4635 28.7458 23.8644 28.7458C23.2653 28.7458 22.7796 29.2314 22.7796 29.8305C22.7796 30.4296 23.2653 30.9153 23.8644 30.9153ZM29.2882 29.8305C29.2882 30.4296 28.8025 30.9153 28.2034 30.9153C27.6043 30.9153 27.1187 30.4296 27.1187 29.8305C27.1187 29.2314 27.6043 28.7458 28.2034 28.7458C28.8025 28.7458 29.2882 29.2314 29.2882 29.8305ZM10.8475 35.2542C11.4466 35.2542 11.9323 34.7685 11.9323 34.1694C11.9323 33.5704 11.4466 33.0847 10.8475 33.0847C10.2484 33.0847 9.76277 33.5704 9.76277 34.1694C9.76277 34.7685 10.2484 35.2542 10.8475 35.2542ZM11.9323 38.5085C11.9323 39.1076 11.4466 39.5932 10.8475 39.5932C10.2484 39.5932 9.76277 39.1076 9.76277 38.5085C9.76277 37.9094 10.2484 37.4237 10.8475 37.4237C11.4466 37.4237 11.9323 37.9094 11.9323 38.5085ZM10.8475 43.9323C11.4466 43.9323 11.9323 43.4466 11.9323 42.8475C11.9323 42.2484 11.4466 41.7628 10.8475 41.7628C10.2484 41.7628 9.76277 42.2484 9.76277 42.8475C9.76277 43.4466 10.2484 43.9323 10.8475 43.9323ZM16.2712 34.1694C16.2712 34.7685 15.7855 35.2542 15.1864 35.2542C14.5873 35.2542 14.1017 34.7685 14.1017 34.1694C14.1017 33.5704 14.5873 33.0847 15.1864 33.0847C15.7855 33.0847 16.2712 33.5704 16.2712 34.1694ZM32.5423 35.2542C33.1414 35.2542 33.6271 34.7685 33.6271 34.1694C33.6271 33.5704 33.1414 33.0847 32.5423 33.0847C31.9432 33.0847 31.4576 33.5704 31.4576 34.1694C31.4576 34.7685 31.9432 35.2542 32.5423 35.2542ZM16.2712 38.5085C16.2712 39.1076 15.7855 39.5932 15.1864 39.5932C14.5873 39.5932 14.1017 39.1076 14.1017 38.5085C14.1017 37.9094 14.5873 37.4237 15.1864 37.4237C15.7855 37.4237 16.2712 37.9094 16.2712 38.5085ZM32.5423 39.5932C33.1414 39.5932 33.6271 39.1076 33.6271 38.5085C33.6271 37.9094 33.1414 37.4237 32.5423 37.4237C31.9432 37.4237 31.4576 37.9094 31.4576 38.5085C31.4576 39.1076 31.9432 39.5932 32.5423 39.5932ZM16.2712 42.8475C16.2712 43.4466 15.7855 43.9323 15.1864 43.9323C14.5873 43.9323 14.1017 43.4466 14.1017 42.8475C14.1017 42.2484 14.5873 41.7628 15.1864 41.7628C15.7855 41.7628 16.2712 42.2484 16.2712 42.8475ZM32.5423 43.9323C33.1414 43.9323 33.6271 43.4466 33.6271 42.8475C33.6271 42.2484 33.1414 41.7628 32.5423 41.7628C31.9432 41.7628 31.4576 42.2484 31.4576 42.8475C31.4576 43.4466 31.9432 43.9323 32.5423 43.9323ZM20.6102 34.1694C20.6102 34.7685 20.1246 35.2542 19.5255 35.2542C18.9264 35.2542 18.4407 34.7685 18.4407 34.1694C18.4407 33.5704 18.9264 33.0847 19.5255 33.0847C20.1246 33.0847 20.6102 33.5704 20.6102 34.1694ZM19.5255 39.5932C20.1246 39.5932 20.6102 39.1076 20.6102 38.5085C20.6102 37.9094 20.1246 37.4237 19.5255 37.4237C18.9264 37.4237 18.4407 37.9094 18.4407 38.5085C18.4407 39.1076 18.9264 39.5932 19.5255 39.5932ZM20.6102 42.8475C20.6102 43.4466 20.1246 43.9323 19.5255 43.9323C18.9264 43.9323 18.4407 43.4466 18.4407 42.8475C18.4407 42.2484 18.9264 41.7628 19.5255 41.7628C20.1246 41.7628 20.6102 42.2484 20.6102 42.8475ZM23.8644 35.2542C24.4635 35.2542 24.9491 34.7685 24.9491 34.1694C24.9491 33.5704 24.4635 33.0847 23.8644 33.0847C23.2653 33.0847 22.7796 33.5704 22.7796 34.1694C22.7796 34.7685 23.2653 35.2542 23.8644 35.2542ZM24.9491 38.5085C24.9491 39.1076 24.4635 39.5932 23.8644 39.5932C23.2653 39.5932 22.7796 39.1076 22.7796 38.5085C22.7796 37.9094 23.2653 37.4237 23.8644 37.4237C24.4635 37.4237 24.9491 37.9094 24.9491 38.5085ZM36.8814 39.5932C37.4805 39.5932 37.9661 39.1076 37.9661 38.5085C37.9661 37.9094 37.4805 37.4237 36.8814 37.4237C36.2823 37.4237 35.7966 37.9094 35.7966 38.5085C35.7966 39.1076 36.2823 39.5932 36.8814 39.5932ZM24.9491 42.8475C24.9491 43.4466 24.4635 43.9323 23.8644 43.9323C23.2653 43.9323 22.7796 43.4466 22.7796 42.8475C22.7796 42.2484 23.2653 41.7628 23.8644 41.7628C24.4635 41.7628 24.9491 42.2484 24.9491 42.8475ZM36.8814 43.9323C37.4805 43.9323 37.9661 43.4466 37.9661 42.8475C37.9661 42.2484 37.4805 41.7628 36.8814 41.7628C36.2823 41.7628 35.7966 42.2484 35.7966 42.8475C35.7966 43.4466 36.2823 43.9323 36.8814 43.9323ZM29.2882 34.1694C29.2882 34.7685 28.8025 35.2542 28.2034 35.2542C27.6043 35.2542 27.1187 34.7685 27.1187 34.1694C27.1187 33.5704 27.6043 33.0847 28.2034 33.0847C28.8025 33.0847 29.2882 33.5704 29.2882 34.1694ZM28.2034 39.5932C28.8025 39.5932 29.2882 39.1076 29.2882 38.5085C29.2882 37.9094 28.8025 37.4237 28.2034 37.4237C27.6043 37.4237 27.1187 37.9094 27.1187 38.5085C27.1187 39.1076 27.6043 39.5932 28.2034 39.5932ZM29.2882 42.8475C29.2882 43.4466 28.8025 43.9323 28.2034 43.9323C27.6043 43.9323 27.1187 43.4466 27.1187 42.8475C27.1187 42.2484 27.6043 41.7628 28.2034 41.7628C28.8025 41.7628 29.2882 42.2484 29.2882 42.8475ZM41.2203 43.9323C41.8194 43.9323 42.305 43.4466 42.305 42.8475C42.305 42.2484 41.8194 41.7628 41.2203 41.7628C40.6212 41.7628 40.1355 42.2484 40.1355 42.8475C40.1355 43.4466 40.6212 43.9323 41.2203 43.9323Z" fill="white"/>
</svg>
