<svg width="32" height="32" viewBox="0 0 32 32" fill="none" xmlns="http://www.w3.org/2000/svg">
<path fill-rule="evenodd" clip-rule="evenodd" d="M16 31C7.71573 31 1 24.2843 1 16V1H31V16C31 24.2843 24.2843 31 16 31ZM22.9167 17.595H19.2534L20.7934 16.37C21.4312 15.8567 21.9017 15.3783 22.2051 14.935C22.5162 14.4839 22.6717 13.9861 22.6717 13.4417C22.6717 12.6483 22.3723 12.0494 21.7734 11.645C21.1745 11.2328 20.3851 11.0267 19.4051 11.0267C18.8762 11.0267 18.3784 11.0967 17.9117 11.2367C17.4528 11.3767 17.0367 11.5672 16.6634 11.8083L17.3167 13.3017C17.5578 13.1539 17.8301 13.0372 18.1334 12.9517C18.4367 12.8583 18.7439 12.8117 19.0551 12.8117C19.4673 12.8117 19.8056 12.9011 20.0701 13.08C20.3423 13.2589 20.4784 13.5233 20.4784 13.8733C20.4784 14.0989 20.424 14.305 20.3151 14.4917C20.214 14.6783 20.0701 14.8611 19.8834 15.04C19.6967 15.2189 19.4206 15.46 19.0551 15.7633L16.6984 17.6767V19.3333H22.9167V17.595ZM9.3186 19.3333H15.0353V17.5133H11.3369V11.1667H9.3186V19.3333Z" fill="white"/>
</svg>
