<svg width="32" height="32" viewBox="0 0 32 32" fill="none" xmlns="http://www.w3.org/2000/svg">
<path fill-rule="evenodd" clip-rule="evenodd" d="M3.69998 2H29.4792V11.1139L27.7877 9.30435L25.4764 11.773L23.1657 9.30105L19.9478 12.7574L22.9893 16.0059L19.9441 19.2514L23.167 22.6938L25.4749 20.2327L27.7891 22.6905L29.4792 20.8881V30H7.29998C4.64901 30 2.49998 27.851 2.49998 25.2001V20.8659L4.21094 22.6905L6.52514 20.2327L8.83298 22.6938L12.0559 19.2514L9.01071 16.0059L12.0522 12.7574L8.83435 9.30105L6.5236 11.773L4.21233 9.30435L2.49998 11.1362V3.2C2.49998 2.53726 3.03724 2 3.69998 2ZM27.7869 11.5L29.4792 13.3104L32 16.0071L29.4792 18.6952L27.7869 20.5L27.7868 20.5L26.6189 19.2596L26.6189 19.2596L29.4792 16.2045V16.2046L29.6641 16.0071L29.4792 15.8091L26.6189 12.7475L26.6189 12.7475L27.7868 11.5L27.7869 11.5ZM4.21318 20.5L4.21313 20.5L0 16.0071L4.21313 11.5L4.21315 11.5L4.21318 11.5L5.38111 12.7475L2.49998 15.8314V15.8314L2.33586 16.0071L2.49998 16.1824V16.1823L5.38111 19.2596L5.38106 19.2596L4.21318 20.5ZM17.4895 11.625C17.9728 11.625 18.3645 11.2333 18.3645 10.75C18.3645 10.2668 17.9728 9.87504 17.4895 9.87504C17.0063 9.87504 16.6145 10.2668 16.6145 10.75C16.6145 11.2333 17.0063 11.625 17.4895 11.625ZM14.8645 10.75C14.8645 11.2333 14.4727 11.625 13.9895 11.625C13.5062 11.625 13.1145 11.2333 13.1145 10.75C13.1145 10.2668 13.5062 9.87504 13.9895 9.87504C14.4727 9.87504 14.8645 10.2668 14.8645 10.75ZM17.4895 15.1251C17.9728 15.1251 18.3645 14.7334 18.3645 14.2501C18.3645 13.7669 17.9728 13.3751 17.4895 13.3751C17.0063 13.3751 16.6145 13.7669 16.6145 14.2501C16.6145 14.7334 17.0063 15.1251 17.4895 15.1251ZM14.8645 14.2501C14.8645 14.7334 14.4727 15.1251 13.9895 15.1251C13.5062 15.1251 13.1145 14.7334 13.1145 14.2501C13.1145 13.7669 13.5062 13.3751 13.9895 13.3751C14.4727 13.3751 14.8645 13.7669 14.8645 14.2501ZM8.83208 11.5L8.83207 11.5L4.61894 16.0071L8.83207 20.5L8.83212 20.5L10 19.2526L10 19.2525L6.95485 16.007L10 12.7545L8.83212 11.5L8.83208 11.5ZM24.159 15.0605C24.159 15.0605 24.159 15.0605 24.1589 15.0605L23.6592 14.5267L23.6592 14.5267L22 12.7545L22 12.7545L23.1679 11.5L23.1679 11.5L27.381 16.007L27.3811 16.0071L23.1679 20.5L23.1679 20.5L22 19.2526L22 19.2525L23.654 17.4897C23.6539 17.4898 23.6539 17.4898 23.6539 17.4899L24.1768 16.9326C24.1768 16.9326 24.1767 16.9326 24.1767 16.9326L25.0451 16.007L24.159 15.0605ZM17.4895 18.625C17.9728 18.625 18.3645 18.2333 18.3645 17.75C18.3645 17.2668 17.9728 16.875 17.4895 16.875C17.0063 16.875 16.6145 17.2668 16.6145 17.75C16.6145 18.2333 17.0063 18.625 17.4895 18.625ZM14.8645 17.75C14.8645 18.2333 14.4727 18.625 13.9895 18.625C13.5062 18.625 13.1145 18.2333 13.1145 17.75C13.1145 17.2668 13.5062 16.875 13.9895 16.875C14.4727 16.875 14.8645 17.2668 14.8645 17.75ZM18.3645 21.25C18.3645 21.7332 17.9728 22.125 17.4895 22.125C17.0063 22.125 16.6145 21.7332 16.6145 21.25C16.6145 20.7667 17.0063 20.375 17.4895 20.375C17.9728 20.375 18.3645 20.7667 18.3645 21.25ZM13.9895 22.125C14.4727 22.125 14.8645 21.7332 14.8645 21.25C14.8645 20.7667 14.4727 20.375 13.9895 20.375C13.5062 20.375 13.1145 20.7667 13.1145 21.25C13.1145 21.7332 13.5062 22.125 13.9895 22.125ZM18.3645 24.75C18.3645 25.2333 17.9728 25.625 17.4895 25.625C17.0063 25.625 16.6145 25.2333 16.6145 24.75C16.6145 24.2668 17.0063 23.875 17.4895 23.875C17.9728 23.875 18.3645 24.2668 18.3645 24.75ZM13.9895 25.625C14.4727 25.625 14.8645 25.2333 14.8645 24.75C14.8645 24.2668 14.4727 23.875 13.9895 23.875C13.5062 23.875 13.1145 24.2668 13.1145 24.75C13.1145 25.2333 13.5062 25.625 13.9895 25.625ZM11.3645 24.75C11.3645 25.2333 10.9728 25.625 10.4895 25.625C10.0063 25.625 9.6145 25.2333 9.6145 24.75C9.6145 24.2668 10.0063 23.875 10.4895 23.875C10.9728 23.875 11.3645 24.2668 11.3645 24.75ZM6.98953 25.625C7.47278 25.625 7.86453 25.2333 7.86453 24.75C7.86453 24.2668 7.47278 23.875 6.98953 23.875C6.50628 23.875 6.11453 24.2668 6.11453 24.75C6.11453 25.2333 6.50628 25.625 6.98953 25.625ZM21.8644 24.75C21.8644 25.2333 21.4726 25.625 20.9894 25.625C20.5061 25.625 20.1144 25.2333 20.1144 24.75C20.1144 24.2668 20.5061 23.875 20.9894 23.875C21.4726 23.875 21.8644 24.2668 21.8644 24.75ZM25.3646 24.75C25.3646 25.2333 24.9728 25.625 24.4896 25.625C24.0063 25.625 23.6146 25.2333 23.6146 24.75C23.6146 24.2668 24.0063 23.875 24.4896 23.875C24.9728 23.875 25.3646 24.2668 25.3646 24.75Z" fill="white"/>
</svg>
