<svg width="64" height="64" viewBox="0 0 64 64" fill="none" xmlns="http://www.w3.org/2000/svg">
<g clip-path="url(#clip0_1967:19450)">
<path fill-rule="evenodd" clip-rule="evenodd" d="M2.4 5.28699H51.4783V58.7131H9.6C4.29807 58.7131 0 54.415 0 49.1131V7.68699C0 6.3615 1.07452 5.28699 2.4 5.28699ZM23.3739 23.6522C22.4518 23.6522 21.7043 22.9047 21.7043 21.9827C21.7043 21.0606 22.4518 20.3131 23.3739 20.3131C24.2959 20.3131 25.0434 21.0606 25.0434 21.9827C25.0434 22.9047 24.2959 23.6522 23.3739 23.6522ZM28.3827 21.9827C28.3827 22.9047 29.1302 23.6522 30.0523 23.6522C30.9744 23.6522 31.7219 22.9047 31.7219 21.9827C31.7219 21.0606 30.9744 20.3131 30.0523 20.3131C29.1302 20.3131 28.3827 21.0606 28.3827 21.9827ZM36.7306 23.6522C35.8085 23.6522 35.061 22.9047 35.061 21.9827C35.061 21.0606 35.8085 20.3131 36.7306 20.3131C37.6527 20.3131 38.4001 21.0606 38.4001 21.9827C38.4001 22.9047 37.6527 23.6522 36.7306 23.6522ZM41.7391 21.9827C41.7391 22.9047 42.4866 23.6522 43.4087 23.6522C44.3308 23.6522 45.0783 22.9047 45.0783 21.9827C45.0783 21.0606 44.3308 20.3131 43.4087 20.3131C42.4866 20.3131 41.7391 21.0606 41.7391 21.9827ZM16.6959 23.6522C15.7738 23.6522 15.0263 22.9047 15.0263 21.9827C15.0263 21.0606 15.7738 20.3131 16.6959 20.3131C17.618 20.3131 18.3655 21.0606 18.3655 21.9827C18.3655 22.9047 17.618 23.6522 16.6959 23.6522ZM8.34773 21.9827C8.34773 22.9047 9.09522 23.6522 10.0173 23.6522C10.9394 23.6522 11.6869 22.9047 11.6869 21.9827C11.6869 21.0606 10.9394 20.3131 10.0173 20.3131C9.09522 20.3131 8.34773 21.0606 8.34773 21.9827ZM23.3739 30.3307C22.4518 30.3307 21.7043 29.5832 21.7043 28.6611C21.7043 27.739 22.4518 26.9915 23.3739 26.9915C24.2959 26.9915 25.0434 27.739 25.0434 28.6611C25.0434 29.5832 24.2959 30.3307 23.3739 30.3307ZM28.3827 28.6611C28.3827 29.5832 29.1302 30.3307 30.0523 30.3307C30.9744 30.3307 31.7219 29.5832 31.7219 28.6611C31.7219 27.739 30.9744 26.9915 30.0523 26.9915C29.1302 26.9915 28.3827 27.739 28.3827 28.6611ZM36.7306 30.3307C35.8085 30.3307 35.061 29.5832 35.061 28.6611C35.061 27.739 35.8085 26.9915 36.7306 26.9915C37.6527 26.9915 38.4001 27.739 38.4001 28.6611C38.4001 29.5832 37.6527 30.3307 36.7306 30.3307ZM41.7391 28.6611C41.7391 29.5832 42.4866 30.3307 43.4087 30.3307C44.3308 30.3307 45.0783 29.5832 45.0783 28.6611C45.0783 27.739 44.3308 26.9915 43.4087 26.9915C42.4866 26.9915 41.7391 27.739 41.7391 28.6611ZM16.6959 30.3307C15.7738 30.3307 15.0263 29.5832 15.0263 28.6611C15.0263 27.739 15.7738 26.9915 16.6959 26.9915C17.618 26.9915 18.3655 27.739 18.3655 28.6611C18.3655 29.5832 17.618 30.3307 16.6959 30.3307ZM8.34773 28.6611C8.34773 29.5832 9.09522 30.3307 10.0173 30.3307C10.9394 30.3307 11.6869 29.5832 11.6869 28.6611C11.6869 27.739 10.9394 26.9915 10.0173 26.9915C9.09522 26.9915 8.34773 27.739 8.34773 28.6611ZM23.3739 37.0088C22.4518 37.0088 21.7043 36.2613 21.7043 35.3392C21.7043 34.4172 22.4518 33.6697 23.3739 33.6697C24.2959 33.6697 25.0434 34.4172 25.0434 35.3392C25.0434 36.2613 24.2959 37.0088 23.3739 37.0088ZM28.3827 35.3392C28.3827 36.2613 29.1302 37.0088 30.0523 37.0088C30.9744 37.0088 31.7219 36.2613 31.7219 35.3392C31.7219 34.4172 30.9744 33.6697 30.0523 33.6697C29.1302 33.6697 28.3827 34.4172 28.3827 35.3392ZM36.7306 37.0088C35.8085 37.0088 35.061 36.2613 35.061 35.3392C35.061 34.4172 35.8085 33.6697 36.7306 33.6697C37.6527 33.6697 38.4001 34.4172 38.4001 35.3392C38.4001 36.2613 37.6527 37.0088 36.7306 37.0088ZM41.7391 35.3392C41.7391 36.2613 42.4866 37.0088 43.4087 37.0088C44.3308 37.0088 45.0783 36.2613 45.0783 35.3392C45.0783 34.4172 44.3308 33.6697 43.4087 33.6697C42.4866 33.6697 41.7391 34.4172 41.7391 35.3392ZM23.3739 43.6869C22.4518 43.6869 21.7043 42.9394 21.7043 42.0174C21.7043 41.0953 22.4518 40.3478 23.3739 40.3478C24.2959 40.3478 25.0434 41.0953 25.0434 42.0174C25.0434 42.9394 24.2959 43.6869 23.3739 43.6869ZM28.3827 42.0174C28.3827 42.9394 29.1302 43.6869 30.0523 43.6869C30.9744 43.6869 31.7219 42.9394 31.7219 42.0174C31.7219 41.0953 30.9744 40.3478 30.0523 40.3478C29.1302 40.3478 28.3827 41.0953 28.3827 42.0174ZM36.7306 43.6869C35.8085 43.6869 35.061 42.9394 35.061 42.0174C35.061 41.0953 35.8085 40.3478 36.7306 40.3478C37.6527 40.3478 38.4001 41.0953 38.4001 42.0174C38.4001 42.9394 37.6527 43.6869 36.7306 43.6869ZM41.7391 42.0174C41.7391 42.9394 42.4866 43.6869 43.4087 43.6869C44.3308 43.6869 45.0783 42.9394 45.0783 42.0174C45.0783 41.0953 44.3308 40.3478 43.4087 40.3478C42.4866 40.3478 41.7391 41.0953 41.7391 42.0174ZM23.3739 50.3652C22.4518 50.3652 21.7043 49.6177 21.7043 48.6956C21.7043 47.7736 22.4518 47.0261 23.3739 47.0261C24.2959 47.0261 25.0434 47.7736 25.0434 48.6956C25.0434 49.6177 24.2959 50.3652 23.3739 50.3652ZM28.3827 48.6956C28.3827 49.6177 29.1302 50.3652 30.0523 50.3652C30.9744 50.3652 31.7219 49.6177 31.7219 48.6956C31.7219 47.7736 30.9744 47.0261 30.0523 47.0261C29.1302 47.0261 28.3827 47.7736 28.3827 48.6956ZM36.7306 50.3652C35.8085 50.3652 35.061 49.6177 35.061 48.6956C35.061 47.7736 35.8085 47.0261 36.7306 47.0261C37.6527 47.0261 38.4001 47.7736 38.4001 48.6956C38.4001 49.6177 37.6527 50.3652 36.7306 50.3652ZM41.7391 48.6956C41.7391 49.6177 42.4866 50.3652 43.4087 50.3652C44.3308 50.3652 45.0783 49.6177 45.0783 48.6956C45.0783 47.7736 44.3308 47.0261 43.4087 47.0261C42.4866 47.0261 41.7391 47.7736 41.7391 48.6956ZM16.6959 37.0088C15.7738 37.0088 15.0263 36.2613 15.0263 35.3392C15.0263 34.4172 15.7738 33.6697 16.6959 33.6697C17.618 33.6697 18.3655 34.4172 18.3655 35.3392C18.3655 36.2613 17.618 37.0088 16.6959 37.0088ZM15.0263 42.0174C15.0263 42.9394 15.7738 43.6869 16.6959 43.6869C17.618 43.6869 18.3655 42.9394 18.3655 42.0174C18.3655 41.0953 17.618 40.3478 16.6959 40.3478C15.7738 40.3478 15.0263 41.0953 15.0263 42.0174ZM16.6959 50.3652C15.7738 50.3652 15.0263 49.6177 15.0263 48.6956C15.0263 47.7736 15.7738 47.0261 16.6959 47.0261C17.618 47.0261 18.3655 47.7736 18.3655 48.6956C18.3655 49.6177 17.618 50.3652 16.6959 50.3652ZM8.34773 35.3392C8.34773 36.2613 9.09522 37.0088 10.0173 37.0088C10.9394 37.0088 11.6869 36.2613 11.6869 35.3392C11.6869 34.4172 10.9394 33.6697 10.0173 33.6697C9.09522 33.6697 8.34773 34.4172 8.34773 35.3392ZM10.0173 43.6869C9.09522 43.6869 8.34773 42.9394 8.34773 42.0174C8.34773 41.0953 9.09522 40.3478 10.0173 40.3478C10.9394 40.3478 11.6869 41.0953 11.6869 42.0174C11.6869 42.9394 10.9394 43.6869 10.0173 43.6869ZM8.34773 48.6956C8.34773 49.6177 9.09522 50.3652 10.0173 50.3652C10.9394 50.3652 11.6869 49.6177 11.6869 48.6956C11.6869 47.7736 10.9394 47.0261 10.0173 47.0261C9.09522 47.0261 8.34773 47.7736 8.34773 48.6956ZM64 31.9999L54.2609 23.6521V40.3478L64 31.9999Z" fill="white"/>
</g>
<defs>
<clipPath id="clip0_1967:19450">
<rect width="64" height="64" fill="white"/>
</clipPath>
</defs>
</svg>
