<svg width="64" height="64" viewBox="0 0 64 64" fill="none" xmlns="http://www.w3.org/2000/svg">
<g clip-path="url(#clip0_1967:14739)">
<path fill-rule="evenodd" clip-rule="evenodd" d="M64 15.7142C64 14.6097 63.1046 13.7142 62 13.7142H2C0.895431 13.7142 0 14.6097 0 15.7142V42.2857C0 46.7039 3.58172 50.2857 8 50.2857H56C60.4183 50.2857 64 46.7039 64 42.2857V15.7142ZM28.5714 25.1428C28.5714 25.774 29.0831 26.2857 29.7143 26.2857C30.3455 26.2857 30.8571 25.774 30.8571 25.1428C30.8571 24.5116 30.3455 23.9999 29.7143 23.9999C29.0831 23.9999 28.5714 24.5116 28.5714 25.1428ZM29.7143 30.8571C29.0831 30.8571 28.5714 30.3454 28.5714 29.7142C28.5714 29.0831 29.0831 28.5714 29.7143 28.5714C30.3455 28.5714 30.8571 29.0831 30.8571 29.7142C30.8571 30.3454 30.3455 30.8571 29.7143 30.8571ZM28.5714 34.2857C28.5714 34.9168 29.0831 35.4285 29.7143 35.4285C30.3455 35.4285 30.8571 34.9168 30.8571 34.2857C30.8571 33.6545 30.3455 33.1428 29.7143 33.1428C29.0831 33.1428 28.5714 33.6545 28.5714 34.2857ZM29.7143 39.9999C29.0831 39.9999 28.5714 39.4883 28.5714 38.8571C28.5714 38.2259 29.0831 37.7142 29.7143 37.7142C30.3455 37.7142 30.8571 38.2259 30.8571 38.8571C30.8571 39.4883 30.3455 39.9999 29.7143 39.9999ZM28.5714 43.4285C28.5714 44.0597 29.0831 44.5714 29.7143 44.5714C30.3455 44.5714 30.8571 44.0597 30.8571 43.4285C30.8571 42.7973 30.3455 42.2857 29.7143 42.2857C29.0831 42.2857 28.5714 42.7973 28.5714 43.4285ZM25.1429 26.2857C24.5117 26.2857 24 25.774 24 25.1428C24 24.5116 24.5117 23.9999 25.1429 23.9999C25.774 23.9999 26.2857 24.5116 26.2857 25.1428C26.2857 25.774 25.774 26.2857 25.1429 26.2857ZM19.4286 25.1428C19.4286 25.774 19.9402 26.2857 20.5714 26.2857C21.2026 26.2857 21.7143 25.774 21.7143 25.1428C21.7143 24.5116 21.2026 23.9999 20.5714 23.9999C19.9402 23.9999 19.4286 24.5116 19.4286 25.1428ZM16 26.2857C15.3688 26.2857 14.8571 25.774 14.8571 25.1428C14.8571 24.5116 15.3688 23.9999 16 23.9999C16.6312 23.9999 17.1429 24.5116 17.1429 25.1428C17.1429 25.774 16.6312 26.2857 16 26.2857ZM10.2857 25.1428C10.2857 25.774 10.7974 26.2857 11.4286 26.2857C12.0598 26.2857 12.5714 25.774 12.5714 25.1428C12.5714 24.5116 12.0598 23.9999 11.4286 23.9999C10.7974 23.9999 10.2857 24.5116 10.2857 25.1428ZM6.85715 26.2857C6.22596 26.2857 5.71429 25.774 5.71429 25.1428C5.71429 24.5116 6.22596 23.9999 6.85715 23.9999C7.48833 23.9999 8 24.5116 8 25.1428C8 25.774 7.48833 26.2857 6.85715 26.2857ZM24 29.7142C24 30.3454 24.5117 30.8571 25.1429 30.8571C25.774 30.8571 26.2857 30.3454 26.2857 29.7142C26.2857 29.0831 25.774 28.5714 25.1429 28.5714C24.5117 28.5714 24 29.0831 24 29.7142ZM20.5714 30.8571C19.9402 30.8571 19.4286 30.3454 19.4286 29.7142C19.4286 29.0831 19.9402 28.5714 20.5714 28.5714C21.2026 28.5714 21.7143 29.0831 21.7143 29.7142C21.7143 30.3454 21.2026 30.8571 20.5714 30.8571ZM14.8571 29.7142C14.8571 30.3454 15.3688 30.8571 16 30.8571C16.6312 30.8571 17.1429 30.3454 17.1429 29.7142C17.1429 29.0831 16.6312 28.5714 16 28.5714C15.3688 28.5714 14.8571 29.0831 14.8571 29.7142ZM11.4286 30.8571C10.7974 30.8571 10.2857 30.3454 10.2857 29.7142C10.2857 29.0831 10.7974 28.5714 11.4286 28.5714C12.0598 28.5714 12.5714 29.0831 12.5714 29.7142C12.5714 30.3454 12.0598 30.8571 11.4286 30.8571ZM5.71429 29.7142C5.71429 30.3454 6.22596 30.8571 6.85715 30.8571C7.48833 30.8571 8 30.3454 8 29.7142C8 29.0831 7.48833 28.5714 6.85715 28.5714C6.22596 28.5714 5.71429 29.0831 5.71429 29.7142ZM25.1429 35.4285C24.5117 35.4285 24 34.9168 24 34.2857C24 33.6545 24.5117 33.1428 25.1429 33.1428C25.774 33.1428 26.2857 33.6545 26.2857 34.2857C26.2857 34.9168 25.774 35.4285 25.1429 35.4285ZM24 38.8571C24 39.4883 24.5117 39.9999 25.1429 39.9999C25.774 39.9999 26.2857 39.4883 26.2857 38.8571C26.2857 38.2259 25.774 37.7142 25.1429 37.7142C24.5117 37.7142 24 38.2259 24 38.8571ZM25.1429 44.5714C24.5117 44.5714 24 44.0597 24 43.4285C24 42.7973 24.5117 42.2857 25.1429 42.2857C25.774 42.2857 26.2857 42.7973 26.2857 43.4285C26.2857 44.0597 25.774 44.5714 25.1429 44.5714ZM19.4286 34.2857C19.4286 34.9168 19.9402 35.4285 20.5714 35.4285C21.2026 35.4285 21.7143 34.9168 21.7143 34.2857C21.7143 33.6545 21.2026 33.1428 20.5714 33.1428C19.9402 33.1428 19.4286 33.6545 19.4286 34.2857ZM20.5714 39.9999C19.9402 39.9999 19.4286 39.4883 19.4286 38.8571C19.4286 38.2259 19.9402 37.7142 20.5714 37.7142C21.2026 37.7142 21.7143 38.2259 21.7143 38.8571C21.7143 39.4883 21.2026 39.9999 20.5714 39.9999ZM19.4286 43.4285C19.4286 44.0597 19.9402 44.5714 20.5714 44.5714C21.2026 44.5714 21.7143 44.0597 21.7143 43.4285C21.7143 42.7973 21.2026 42.2857 20.5714 42.2857C19.9402 42.2857 19.4286 42.7973 19.4286 43.4285ZM16 35.4285C15.3688 35.4285 14.8571 34.9168 14.8571 34.2857C14.8571 33.6545 15.3688 33.1428 16 33.1428C16.6312 33.1428 17.1429 33.6545 17.1429 34.2857C17.1429 34.9168 16.6312 35.4285 16 35.4285ZM14.8571 38.8571C14.8571 39.4883 15.3688 39.9999 16 39.9999C16.6312 39.9999 17.1429 39.4883 17.1429 38.8571C17.1429 38.2259 16.6312 37.7142 16 37.7142C15.3688 37.7142 14.8571 38.2259 14.8571 38.8571ZM16 44.5714C15.3688 44.5714 14.8571 44.0597 14.8571 43.4285C14.8571 42.7973 15.3688 42.2857 16 42.2857C16.6312 42.2857 17.1429 42.7973 17.1429 43.4285C17.1429 44.0597 16.6312 44.5714 16 44.5714ZM10.2857 34.2857C10.2857 34.9168 10.7974 35.4285 11.4286 35.4285C12.0598 35.4285 12.5714 34.9168 12.5714 34.2857C12.5714 33.6545 12.0598 33.1428 11.4286 33.1428C10.7974 33.1428 10.2857 33.6545 10.2857 34.2857ZM11.4286 39.9999C10.7974 39.9999 10.2857 39.4883 10.2857 38.8571C10.2857 38.2259 10.7974 37.7142 11.4286 37.7142C12.0598 37.7142 12.5714 38.2259 12.5714 38.8571C12.5714 39.4883 12.0598 39.9999 11.4286 39.9999ZM10.2857 43.4285C10.2857 44.0597 10.7974 44.5714 11.4286 44.5714C12.0598 44.5714 12.5714 44.0597 12.5714 43.4285C12.5714 42.7973 12.0598 42.2857 11.4286 42.2857C10.7974 42.2857 10.2857 42.7973 10.2857 43.4285ZM6.85715 35.4285C6.22596 35.4285 5.71429 34.9168 5.71429 34.2857C5.71429 33.6545 6.22596 33.1428 6.85715 33.1428C7.48833 33.1428 8 33.6545 8 34.2857C8 34.9168 7.48833 35.4285 6.85715 35.4285ZM5.71429 38.8571C5.71429 39.4883 6.22596 39.9999 6.85715 39.9999C7.48833 39.9999 8 39.4883 8 38.8571C8 38.2259 7.48833 37.7142 6.85715 37.7142C6.22596 37.7142 5.71429 38.2259 5.71429 38.8571ZM6.85715 44.5714C6.22596 44.5714 5.71429 44.0597 5.71429 43.4285C5.71429 42.7973 6.22596 42.2857 6.85715 42.2857C7.48833 42.2857 8 42.7973 8 43.4285C8 44.0597 7.48833 44.5714 6.85715 44.5714ZM36.8571 31.9999C36.8571 38.154 41.846 43.1428 48 43.1428C54.154 43.1428 59.1429 38.154 59.1429 31.9999C59.1429 25.8459 54.154 20.8571 48 20.8571C41.846 20.8571 36.8571 25.8459 36.8571 31.9999ZM48 41.1428C42.9505 41.1428 38.8571 37.0494 38.8571 31.9999C38.8571 26.9505 42.9505 22.8571 48 22.8571C53.0495 22.8571 57.1429 26.9505 57.1429 31.9999C57.1429 37.0494 53.0495 41.1428 48 41.1428ZM49.3216 34.8571H51.2416L49.6316 32.2871C50.0449 32.1004 50.3649 31.8271 50.5916 31.4671C50.8249 31.1004 50.9416 30.6471 50.9416 30.1071C50.9416 29.3938 50.7016 28.8404 50.2216 28.4471C49.7416 28.0538 49.0016 27.8571 48.0016 27.8571H45.2816V34.8571H47.0116V32.6371H47.8416H47.9916L49.3216 34.8571ZM47.0116 31.1571V29.3371H47.9216C48.3282 29.3371 48.6249 29.4104 48.8116 29.5571C48.9982 29.6971 49.0916 29.9104 49.0916 30.1971C49.0916 30.5104 48.9882 30.7504 48.7816 30.9171C48.5816 31.0771 48.3049 31.1571 47.9516 31.1571H47.0116Z" fill="white"/>
</g>
<defs>
<clipPath id="clip0_1967:14739">
<rect width="64" height="64" fill="white"/>
</clipPath>
</defs>
</svg>
