<svg width="64" height="64" viewBox="0 0 64 64" fill="none" xmlns="http://www.w3.org/2000/svg">
<path fill-rule="evenodd" clip-rule="evenodd" d="M2 13.7142C0.895431 13.7142 0 14.6097 0 15.7142V42.2857C0 46.7039 3.58172 50.2857 8 50.2857H56C60.4183 50.2857 64 46.7039 64 42.2857V15.7142C64 14.6097 63.1046 13.7142 62 13.7142H2ZM34.2857 26.2857C34.9169 26.2857 35.4286 25.774 35.4286 25.1428C35.4286 24.5116 34.9169 23.9999 34.2857 23.9999C33.6545 23.9999 33.1429 24.5116 33.1429 25.1428C33.1429 25.774 33.6545 26.2857 34.2857 26.2857ZM35.4286 29.7142C35.4286 30.3454 34.9169 30.8571 34.2857 30.8571C33.6545 30.8571 33.1429 30.3454 33.1429 29.7142C33.1429 29.0831 33.6545 28.5714 34.2857 28.5714C34.9169 28.5714 35.4286 29.0831 35.4286 29.7142ZM34.2857 35.4285C34.9169 35.4285 35.4286 34.9168 35.4286 34.2857C35.4286 33.6545 34.9169 33.1428 34.2857 33.1428C33.6545 33.1428 33.1429 33.6545 33.1429 34.2857C33.1429 34.9168 33.6545 35.4285 34.2857 35.4285ZM35.4286 38.8571C35.4286 39.4883 34.9169 39.9999 34.2857 39.9999C33.6545 39.9999 33.1429 39.4883 33.1429 38.8571C33.1429 38.2259 33.6545 37.7142 34.2857 37.7142C34.9169 37.7142 35.4286 38.2259 35.4286 38.8571ZM34.2857 44.5714C34.9169 44.5714 35.4286 44.0597 35.4286 43.4285C35.4286 42.7973 34.9169 42.2857 34.2857 42.2857C33.6545 42.2857 33.1429 42.7973 33.1429 43.4285C33.1429 44.0597 33.6545 44.5714 34.2857 44.5714ZM40 25.1428C40 25.774 39.4883 26.2857 38.8571 26.2857C38.226 26.2857 37.7143 25.774 37.7143 25.1428C37.7143 24.5116 38.226 23.9999 38.8571 23.9999C39.4883 23.9999 40 24.5116 40 25.1428ZM43.4286 26.2857C44.0598 26.2857 44.5714 25.774 44.5714 25.1428C44.5714 24.5116 44.0598 23.9999 43.4286 23.9999C42.7974 23.9999 42.2857 24.5116 42.2857 25.1428C42.2857 25.774 42.7974 26.2857 43.4286 26.2857ZM49.1429 25.1428C49.1429 25.774 48.6312 26.2857 48 26.2857C47.3688 26.2857 46.8571 25.774 46.8571 25.1428C46.8571 24.5116 47.3688 23.9999 48 23.9999C48.6312 23.9999 49.1429 24.5116 49.1429 25.1428ZM52.5714 26.2857C53.2026 26.2857 53.7143 25.774 53.7143 25.1428C53.7143 24.5116 53.2026 23.9999 52.5714 23.9999C51.9402 23.9999 51.4286 24.5116 51.4286 25.1428C51.4286 25.774 51.9402 26.2857 52.5714 26.2857ZM58.2857 25.1428C58.2857 25.774 57.774 26.2857 57.1429 26.2857C56.5117 26.2857 56 25.774 56 25.1428C56 24.5116 56.5117 23.9999 57.1429 23.9999C57.774 23.9999 58.2857 24.5116 58.2857 25.1428ZM38.8571 30.8571C39.4883 30.8571 40 30.3454 40 29.7142C40 29.0831 39.4883 28.5714 38.8571 28.5714C38.226 28.5714 37.7143 29.0831 37.7143 29.7142C37.7143 30.3454 38.226 30.8571 38.8571 30.8571ZM44.5714 29.7142C44.5714 30.3454 44.0598 30.8571 43.4286 30.8571C42.7974 30.8571 42.2857 30.3454 42.2857 29.7142C42.2857 29.0831 42.7974 28.5714 43.4286 28.5714C44.0598 28.5714 44.5714 29.0831 44.5714 29.7142ZM48 30.8571C48.6312 30.8571 49.1429 30.3454 49.1429 29.7142C49.1429 29.0831 48.6312 28.5714 48 28.5714C47.3688 28.5714 46.8571 29.0831 46.8571 29.7142C46.8571 30.3454 47.3688 30.8571 48 30.8571ZM53.7143 29.7142C53.7143 30.3454 53.2026 30.8571 52.5714 30.8571C51.9402 30.8571 51.4286 30.3454 51.4286 29.7142C51.4286 29.0831 51.9402 28.5714 52.5714 28.5714C53.2026 28.5714 53.7143 29.0831 53.7143 29.7142ZM57.1429 30.8571C57.774 30.8571 58.2857 30.3454 58.2857 29.7142C58.2857 29.0831 57.774 28.5714 57.1429 28.5714C56.5117 28.5714 56 29.0831 56 29.7142C56 30.3454 56.5117 30.8571 57.1429 30.8571ZM40 34.2857C40 34.9168 39.4883 35.4285 38.8571 35.4285C38.226 35.4285 37.7143 34.9168 37.7143 34.2857C37.7143 33.6545 38.226 33.1428 38.8571 33.1428C39.4883 33.1428 40 33.6545 40 34.2857ZM38.8571 39.9999C39.4883 39.9999 40 39.4883 40 38.8571C40 38.2259 39.4883 37.7142 38.8571 37.7142C38.226 37.7142 37.7143 38.2259 37.7143 38.8571C37.7143 39.4883 38.226 39.9999 38.8571 39.9999ZM40 43.4285C40 44.0597 39.4883 44.5714 38.8571 44.5714C38.226 44.5714 37.7143 44.0597 37.7143 43.4285C37.7143 42.7973 38.226 42.2857 38.8571 42.2857C39.4883 42.2857 40 42.7973 40 43.4285ZM43.4286 35.4285C44.0598 35.4285 44.5714 34.9168 44.5714 34.2857C44.5714 33.6545 44.0598 33.1428 43.4286 33.1428C42.7974 33.1428 42.2857 33.6545 42.2857 34.2857C42.2857 34.9168 42.7974 35.4285 43.4286 35.4285ZM44.5714 38.8571C44.5714 39.4883 44.0598 39.9999 43.4286 39.9999C42.7974 39.9999 42.2857 39.4883 42.2857 38.8571C42.2857 38.2259 42.7974 37.7142 43.4286 37.7142C44.0598 37.7142 44.5714 38.2259 44.5714 38.8571ZM43.4286 44.5714C44.0598 44.5714 44.5714 44.0597 44.5714 43.4285C44.5714 42.7973 44.0598 42.2857 43.4286 42.2857C42.7974 42.2857 42.2857 42.7973 42.2857 43.4285C42.2857 44.0597 42.7974 44.5714 43.4286 44.5714ZM49.1429 34.2857C49.1429 34.9168 48.6312 35.4285 48 35.4285C47.3688 35.4285 46.8571 34.9168 46.8571 34.2857C46.8571 33.6545 47.3688 33.1428 48 33.1428C48.6312 33.1428 49.1429 33.6545 49.1429 34.2857ZM48 39.9999C48.6312 39.9999 49.1429 39.4883 49.1429 38.8571C49.1429 38.2259 48.6312 37.7142 48 37.7142C47.3688 37.7142 46.8571 38.2259 46.8571 38.8571C46.8571 39.4883 47.3688 39.9999 48 39.9999ZM49.1429 43.4285C49.1429 44.0597 48.6312 44.5714 48 44.5714C47.3688 44.5714 46.8571 44.0597 46.8571 43.4285C46.8571 42.7973 47.3688 42.2857 48 42.2857C48.6312 42.2857 49.1429 42.7973 49.1429 43.4285ZM52.5714 35.4285C53.2026 35.4285 53.7143 34.9168 53.7143 34.2857C53.7143 33.6545 53.2026 33.1428 52.5714 33.1428C51.9402 33.1428 51.4286 33.6545 51.4286 34.2857C51.4286 34.9168 51.9402 35.4285 52.5714 35.4285ZM53.7143 38.8571C53.7143 39.4883 53.2026 39.9999 52.5714 39.9999C51.9402 39.9999 51.4286 39.4883 51.4286 38.8571C51.4286 38.2259 51.9402 37.7142 52.5714 37.7142C53.2026 37.7142 53.7143 38.2259 53.7143 38.8571ZM52.5714 44.5714C53.2026 44.5714 53.7143 44.0597 53.7143 43.4285C53.7143 42.7973 53.2026 42.2857 52.5714 42.2857C51.9402 42.2857 51.4286 42.7973 51.4286 43.4285C51.4286 44.0597 51.9402 44.5714 52.5714 44.5714ZM58.2857 34.2857C58.2857 34.9168 57.774 35.4285 57.1429 35.4285C56.5117 35.4285 56 34.9168 56 34.2857C56 33.6545 56.5117 33.1428 57.1429 33.1428C57.774 33.1428 58.2857 33.6545 58.2857 34.2857ZM57.1429 39.9999C57.774 39.9999 58.2857 39.4883 58.2857 38.8571C58.2857 38.2259 57.774 37.7142 57.1429 37.7142C56.5117 37.7142 56 38.2259 56 38.8571C56 39.4883 56.5117 39.9999 57.1429 39.9999ZM58.2857 43.4285C58.2857 44.0597 57.774 44.5714 57.1429 44.5714C56.5117 44.5714 56 44.0597 56 43.4285C56 42.7973 56.5117 42.2857 57.1429 42.2857C57.774 42.2857 58.2857 42.7973 58.2857 43.4285ZM7.85714 31.9999C7.85714 27.5028 11.5028 23.8571 16 23.8571C20.4972 23.8571 24.1429 27.5028 24.1429 31.9999C24.1429 36.4971 20.4972 40.1428 16 40.1428C11.5028 40.1428 7.85714 36.4971 7.85714 31.9999ZM16 21.8571C10.3983 21.8571 5.85714 26.3982 5.85714 31.9999C5.85714 37.6017 10.3983 42.1428 16 42.1428C21.6017 42.1428 26.1429 37.6017 26.1429 31.9999C26.1429 26.3982 21.6017 21.8571 16 21.8571ZM16 19.9285C9.33313 19.9285 3.92857 25.3331 3.92857 31.9999C3.92857 38.6668 9.33313 44.0714 16 44.0714C22.6669 44.0714 28.0714 38.6668 28.0714 31.9999C28.0714 25.3331 22.6669 19.9285 16 19.9285ZM2.92857 31.9999C2.92857 24.7808 8.78085 18.9285 16 18.9285C23.2192 18.9285 29.0714 24.7808 29.0714 31.9999C29.0714 39.2191 23.2192 45.0714 16 45.0714C8.78085 45.0714 2.92857 39.2191 2.92857 31.9999ZM13.7894 34.7142H18.6894V33.1542H15.5194V27.7142H13.7894V34.7142Z" fill="white"/>
</svg>
