<svg width="64" height="64" viewBox="0 0 64 64" fill="none" xmlns="http://www.w3.org/2000/svg">
<path fill-rule="evenodd" clip-rule="evenodd" d="M64 14.9286C64 13.824 63.1046 12.9286 62 12.9286H2C0.895431 12.9286 0 13.824 0 14.9286V41.5C0 45.9183 3.58172 49.5 8 49.5H18.1554L24.0088 43.467L27.2868 46.8457V36.9286H36.7132V46.8457L39.9913 43.467L45.8447 49.5H56C60.4183 49.5 64 45.9183 64 41.5V14.9286ZM39.9913 46.7495L42.66 49.5L43.4286 50.2923L32 62.0714L20.5714 50.2923L21.3401 49.5L24.0088 46.7495L26.6774 49.5L29.5725 52.484V39.2143L29.5726 39.2143L34.4275 39.2143L34.4275 39.2143V49.5H34.4275V52.484L37.3226 49.5L39.9913 46.7495ZM56 24.3572C56 24.9883 56.5117 25.5 57.1429 25.5C57.774 25.5 58.2857 24.9883 58.2857 24.3572C58.2857 23.726 57.774 23.2143 57.1429 23.2143C56.5117 23.2143 56 23.726 56 24.3572ZM43.4286 25.5C42.7974 25.5 42.2857 24.9883 42.2857 24.3572C42.2857 23.726 42.7974 23.2143 43.4286 23.2143C44.0598 23.2143 44.5714 23.726 44.5714 24.3572C44.5714 24.9883 44.0598 25.5 43.4286 25.5ZM28.5714 24.3572C28.5714 24.9883 29.0831 25.5 29.7143 25.5C30.3455 25.5 30.8571 24.9883 30.8571 24.3572C30.8571 23.726 30.3455 23.2143 29.7143 23.2143C29.0831 23.2143 28.5714 23.726 28.5714 24.3572ZM57.1429 30.0714C56.5117 30.0714 56 29.5598 56 28.9286C56 28.2974 56.5117 27.7857 57.1429 27.7857C57.774 27.7857 58.2857 28.2974 58.2857 28.9286C58.2857 29.5598 57.774 30.0714 57.1429 30.0714ZM42.2857 28.9286C42.2857 29.5598 42.7974 30.0714 43.4286 30.0714C44.0598 30.0714 44.5714 29.5598 44.5714 28.9286C44.5714 28.2974 44.0598 27.7857 43.4286 27.7857C42.7974 27.7857 42.2857 28.2974 42.2857 28.9286ZM29.7143 30.0714C29.0831 30.0714 28.5714 29.5598 28.5714 28.9286C28.5714 28.2974 29.0831 27.7857 29.7143 27.7857C30.3455 27.7857 30.8571 28.2974 30.8571 28.9286C30.8571 29.5598 30.3455 30.0714 29.7143 30.0714ZM56 33.5C56 34.1312 56.5117 34.6429 57.1429 34.6429C57.774 34.6429 58.2857 34.1312 58.2857 33.5C58.2857 32.8688 57.774 32.3572 57.1429 32.3572C56.5117 32.3572 56 32.8688 56 33.5ZM57.1429 39.2143C56.5117 39.2143 56 38.7026 56 38.0714C56 37.4403 56.5117 36.9286 57.1429 36.9286C57.774 36.9286 58.2857 37.4403 58.2857 38.0714C58.2857 38.7026 57.774 39.2143 57.1429 39.2143ZM56 42.6429C56 43.2741 56.5117 43.7857 57.1429 43.7857C57.774 43.7857 58.2857 43.2741 58.2857 42.6429C58.2857 42.0117 57.774 41.5 57.1429 41.5C56.5117 41.5 56 42.0117 56 42.6429ZM52.5714 25.5C51.9403 25.5 51.4286 24.9883 51.4286 24.3572C51.4286 23.726 51.9403 23.2143 52.5714 23.2143C53.2026 23.2143 53.7143 23.726 53.7143 24.3572C53.7143 24.9883 53.2026 25.5 52.5714 25.5ZM37.7143 24.3572C37.7143 24.9883 38.226 25.5 38.8571 25.5C39.4883 25.5 40 24.9883 40 24.3572C40 23.726 39.4883 23.2143 38.8571 23.2143C38.226 23.2143 37.7143 23.726 37.7143 24.3572ZM25.1429 25.5C24.5117 25.5 24 24.9883 24 24.3572C24 23.726 24.5117 23.2143 25.1429 23.2143C25.774 23.2143 26.2857 23.726 26.2857 24.3572C26.2857 24.9883 25.774 25.5 25.1429 25.5ZM46.8571 24.3572C46.8571 24.9883 47.3688 25.5 48 25.5C48.6312 25.5 49.1429 24.9883 49.1429 24.3572C49.1429 23.726 48.6312 23.2143 48 23.2143C47.3688 23.2143 46.8571 23.726 46.8571 24.3572ZM34.2857 25.5C33.6545 25.5 33.1429 24.9883 33.1429 24.3572C33.1429 23.726 33.6545 23.2143 34.2857 23.2143C34.9169 23.2143 35.4286 23.726 35.4286 24.3572C35.4286 24.9883 34.9169 25.5 34.2857 25.5ZM19.4286 24.3572C19.4286 24.9883 19.9402 25.5 20.5714 25.5C21.2026 25.5 21.7143 24.9883 21.7143 24.3572C21.7143 23.726 21.2026 23.2143 20.5714 23.2143C19.9402 23.2143 19.4286 23.726 19.4286 24.3572ZM16 25.5C15.3688 25.5 14.8571 24.9883 14.8571 24.3572C14.8571 23.726 15.3688 23.2143 16 23.2143C16.6312 23.2143 17.1429 23.726 17.1429 24.3572C17.1429 24.9883 16.6312 25.5 16 25.5ZM10.2857 24.3572C10.2857 24.9883 10.7974 25.5 11.4286 25.5C12.0598 25.5 12.5714 24.9883 12.5714 24.3572C12.5714 23.726 12.0598 23.2143 11.4286 23.2143C10.7974 23.2143 10.2857 23.726 10.2857 24.3572ZM6.85715 25.5C6.22596 25.5 5.71429 24.9883 5.71429 24.3572C5.71429 23.726 6.22596 23.2143 6.85715 23.2143C7.48833 23.2143 8 23.726 8 24.3572C8 24.9883 7.48833 25.5 6.85715 25.5ZM51.4286 28.9286C51.4286 29.5598 51.9403 30.0714 52.5714 30.0714C53.2026 30.0714 53.7143 29.5598 53.7143 28.9286C53.7143 28.2974 53.2026 27.7857 52.5714 27.7857C51.9403 27.7857 51.4286 28.2974 51.4286 28.9286ZM38.8571 30.0714C38.226 30.0714 37.7143 29.5598 37.7143 28.9286C37.7143 28.2974 38.226 27.7857 38.8571 27.7857C39.4883 27.7857 40 28.2974 40 28.9286C40 29.5598 39.4883 30.0714 38.8571 30.0714ZM24 28.9286C24 29.5598 24.5117 30.0714 25.1429 30.0714C25.774 30.0714 26.2857 29.5598 26.2857 28.9286C26.2857 28.2974 25.774 27.7857 25.1429 27.7857C24.5117 27.7857 24 28.2974 24 28.9286ZM48 30.0714C47.3688 30.0714 46.8571 29.5598 46.8571 28.9286C46.8571 28.2974 47.3688 27.7857 48 27.7857C48.6312 27.7857 49.1429 28.2974 49.1429 28.9286C49.1429 29.5598 48.6312 30.0714 48 30.0714ZM33.1429 28.9286C33.1429 29.5598 33.6545 30.0714 34.2857 30.0714C34.9169 30.0714 35.4286 29.5598 35.4286 28.9286C35.4286 28.2974 34.9169 27.7857 34.2857 27.7857C33.6545 27.7857 33.1429 28.2974 33.1429 28.9286ZM20.5714 30.0714C19.9402 30.0714 19.4286 29.5598 19.4286 28.9286C19.4286 28.2974 19.9402 27.7857 20.5714 27.7857C21.2026 27.7857 21.7143 28.2974 21.7143 28.9286C21.7143 29.5598 21.2026 30.0714 20.5714 30.0714ZM14.8571 28.9286C14.8571 29.5598 15.3688 30.0714 16 30.0714C16.6312 30.0714 17.1429 29.5598 17.1429 28.9286C17.1429 28.2974 16.6312 27.7857 16 27.7857C15.3688 27.7857 14.8571 28.2974 14.8571 28.9286ZM11.4286 30.0714C10.7974 30.0714 10.2857 29.5598 10.2857 28.9286C10.2857 28.2974 10.7974 27.7857 11.4286 27.7857C12.0598 27.7857 12.5714 28.2974 12.5714 28.9286C12.5714 29.5598 12.0598 30.0714 11.4286 30.0714ZM5.71429 28.9286C5.71429 29.5598 6.22596 30.0714 6.85715 30.0714C7.48833 30.0714 8 29.5598 8 28.9286C8 28.2974 7.48833 27.7857 6.85715 27.7857C6.22596 27.7857 5.71429 28.2974 5.71429 28.9286ZM52.5714 34.6429C51.9403 34.6429 51.4286 34.1312 51.4286 33.5C51.4286 32.8688 51.9403 32.3572 52.5714 32.3572C53.2026 32.3572 53.7143 32.8688 53.7143 33.5C53.7143 34.1312 53.2026 34.6429 52.5714 34.6429ZM51.4286 38.0714C51.4286 38.7026 51.9403 39.2143 52.5714 39.2143C53.2026 39.2143 53.7143 38.7026 53.7143 38.0714C53.7143 37.4403 53.2026 36.9286 52.5714 36.9286C51.9403 36.9286 51.4286 37.4403 51.4286 38.0714ZM52.5714 43.7857C51.9403 43.7857 51.4286 43.2741 51.4286 42.6429C51.4286 42.0117 51.9403 41.5 52.5714 41.5C53.2026 41.5 53.7143 42.0117 53.7143 42.6429C53.7143 43.2741 53.2026 43.7857 52.5714 43.7857ZM46.8571 33.5C46.8571 34.1312 47.3688 34.6429 48 34.6429C48.6312 34.6429 49.1429 34.1312 49.1429 33.5C49.1429 32.8688 48.6312 32.3572 48 32.3572C47.3688 32.3572 46.8571 32.8688 46.8571 33.5ZM43.4286 34.6429C42.7974 34.6429 42.2857 34.1312 42.2857 33.5C42.2857 32.8688 42.7974 32.3572 43.4286 32.3572C44.0598 32.3572 44.5714 32.8688 44.5714 33.5C44.5714 34.1312 44.0598 34.6429 43.4286 34.6429ZM46.8571 38.0714C46.8571 38.7026 47.3688 39.2143 48 39.2143C48.6312 39.2143 49.1429 38.7026 49.1429 38.0714C49.1429 37.4403 48.6312 36.9286 48 36.9286C47.3688 36.9286 46.8571 37.4403 46.8571 38.0714ZM48 43.7857C47.3688 43.7857 46.8571 43.2741 46.8571 42.6429C46.8571 42.0117 47.3688 41.5 48 41.5C48.6312 41.5 49.1429 42.0117 49.1429 42.6429C49.1429 43.2741 48.6312 43.7857 48 43.7857ZM14.8571 33.5C14.8571 34.1312 15.3688 34.6429 16 34.6429C16.6312 34.6429 17.1429 34.1312 17.1429 33.5C17.1429 32.8688 16.6312 32.3572 16 32.3572C15.3688 32.3572 14.8571 32.8688 14.8571 33.5ZM20.5714 34.6429C19.9402 34.6429 19.4286 34.1312 19.4286 33.5C19.4286 32.8688 19.9402 32.3572 20.5714 32.3572C21.2026 32.3572 21.7143 32.8688 21.7143 33.5C21.7143 34.1312 21.2026 34.6429 20.5714 34.6429ZM14.8571 38.0714C14.8571 38.7026 15.3688 39.2143 16 39.2143C16.6312 39.2143 17.1429 38.7026 17.1429 38.0714C17.1429 37.4403 16.6312 36.9286 16 36.9286C15.3688 36.9286 14.8571 37.4403 14.8571 38.0714ZM16 43.7857C15.3688 43.7857 14.8571 43.2741 14.8571 42.6429C14.8571 42.0117 15.3688 41.5 16 41.5C16.6312 41.5 17.1429 42.0117 17.1429 42.6429C17.1429 43.2741 16.6312 43.7857 16 43.7857ZM10.2857 33.5C10.2857 34.1312 10.7974 34.6429 11.4286 34.6429C12.0598 34.6429 12.5714 34.1312 12.5714 33.5C12.5714 32.8688 12.0598 32.3572 11.4286 32.3572C10.7974 32.3572 10.2857 32.8688 10.2857 33.5ZM11.4286 39.2143C10.7974 39.2143 10.2857 38.7026 10.2857 38.0714C10.2857 37.4403 10.7974 36.9286 11.4286 36.9286C12.0598 36.9286 12.5714 37.4403 12.5714 38.0714C12.5714 38.7026 12.0598 39.2143 11.4286 39.2143ZM10.2857 42.6429C10.2857 43.2741 10.7974 43.7857 11.4286 43.7857C12.0598 43.7857 12.5714 43.2741 12.5714 42.6429C12.5714 42.0117 12.0598 41.5 11.4286 41.5C10.7974 41.5 10.2857 42.0117 10.2857 42.6429ZM6.85715 34.6429C6.22596 34.6429 5.71429 34.1312 5.71429 33.5C5.71429 32.8688 6.22596 32.3572 6.85715 32.3572C7.48833 32.3572 8 32.8688 8 33.5C8 34.1312 7.48833 34.6429 6.85715 34.6429ZM5.71429 38.0714C5.71429 38.7026 6.22596 39.2143 6.85715 39.2143C7.48833 39.2143 8 38.7026 8 38.0714C8 37.4403 7.48833 36.9286 6.85715 36.9286C6.22596 36.9286 5.71429 37.4403 5.71429 38.0714ZM6.85715 43.7857C6.22596 43.7857 5.71429 43.2741 5.71429 42.6429C5.71429 42.0117 6.22596 41.5 6.85715 41.5C7.48833 41.5 8 42.0117 8 42.6429C8 43.2741 7.48833 43.7857 6.85715 43.7857Z" fill="white"/>
</svg>
