<svg width="64" height="64" viewBox="0 0 64 64" fill="none" xmlns="http://www.w3.org/2000/svg">
<path fill-rule="evenodd" clip-rule="evenodd" d="M31.8222 0L23.6866 9.49152H39.9577L31.8222 0ZM9.8154 11.9322H57.5848V63.9999H17.0154C11.7135 63.9999 7.41541 59.7018 7.41541 54.3999V14.3322C7.41541 13.0067 8.48992 11.9322 9.8154 11.9322ZM30.1951 29.8305C29.2964 29.8305 28.568 29.102 28.568 28.2034C28.568 27.3047 29.2964 26.5763 30.1951 26.5763C31.0937 26.5763 31.8222 27.3047 31.8222 28.2034C31.8222 29.102 31.0937 29.8305 30.1951 29.8305ZM35.0764 28.2034C35.0764 29.102 35.8049 29.8305 36.7036 29.8305C37.6022 29.8305 38.3307 29.102 38.3307 28.2034C38.3307 27.3047 37.6022 26.5763 36.7036 26.5763C35.8049 26.5763 35.0764 27.3047 35.0764 28.2034ZM43.2122 29.8305C42.3136 29.8305 41.5851 29.102 41.5851 28.2034C41.5851 27.3047 42.3136 26.5763 43.2122 26.5763C44.1108 26.5763 44.8393 27.3047 44.8393 28.2034C44.8393 29.102 44.1108 29.8305 43.2122 29.8305ZM48.0934 28.2034C48.0934 29.102 48.8219 29.8305 49.7205 29.8305C50.6191 29.8305 51.3476 29.102 51.3476 28.2034C51.3476 27.3047 50.6191 26.5763 49.7205 26.5763C48.8219 26.5763 48.0934 27.3047 48.0934 28.2034ZM23.6869 29.8305C22.7883 29.8305 22.0598 29.102 22.0598 28.2034C22.0598 27.3047 22.7883 26.5763 23.6869 26.5763C24.5855 26.5763 25.314 27.3047 25.314 28.2034C25.314 29.102 24.5855 29.8305 23.6869 29.8305ZM15.5509 28.2034C15.5509 29.102 16.2793 29.8305 17.178 29.8305C18.0766 29.8305 18.8051 29.102 18.8051 28.2034C18.8051 27.3047 18.0766 26.5763 17.178 26.5763C16.2793 26.5763 15.5509 27.3047 15.5509 28.2034ZM30.1951 36.339C29.2964 36.339 28.568 35.6105 28.568 34.7119C28.568 33.8132 29.2964 33.0847 30.1951 33.0847C31.0937 33.0847 31.8222 33.8132 31.8222 34.7119C31.8222 35.6105 31.0937 36.339 30.1951 36.339ZM35.0764 34.7119C35.0764 35.6105 35.8049 36.339 36.7036 36.339C37.6022 36.339 38.3307 35.6105 38.3307 34.7119C38.3307 33.8132 37.6022 33.0847 36.7036 33.0847C35.8049 33.0847 35.0764 33.8132 35.0764 34.7119ZM43.2122 36.339C42.3136 36.339 41.5851 35.6105 41.5851 34.7119C41.5851 33.8132 42.3136 33.0847 43.2122 33.0847C44.1108 33.0847 44.8393 33.8132 44.8393 34.7119C44.8393 35.6105 44.1108 36.339 43.2122 36.339ZM48.0934 34.7119C48.0934 35.6105 48.8219 36.339 49.7205 36.339C50.6191 36.339 51.3476 35.6105 51.3476 34.7119C51.3476 33.8132 50.6191 33.0847 49.7205 33.0847C48.8219 33.0847 48.0934 33.8132 48.0934 34.7119ZM23.6869 36.339C22.7883 36.339 22.0598 35.6105 22.0598 34.7119C22.0598 33.8132 22.7883 33.0847 23.6869 33.0847C24.5855 33.0847 25.314 33.8132 25.314 34.7119C25.314 35.6105 24.5855 36.339 23.6869 36.339ZM15.5509 34.7119C15.5509 35.6105 16.2793 36.339 17.178 36.339C18.0766 36.339 18.8051 35.6105 18.8051 34.7119C18.8051 33.8132 18.0766 33.0847 17.178 33.0847C16.2793 33.0847 15.5509 33.8132 15.5509 34.7119ZM30.1951 42.8475C29.2964 42.8475 28.568 42.119 28.568 41.2203C28.568 40.3217 29.2964 39.5932 30.1951 39.5932C31.0937 39.5932 31.8222 40.3217 31.8222 41.2203C31.8222 42.119 31.0937 42.8475 30.1951 42.8475ZM35.0764 41.2203C35.0764 42.119 35.8049 42.8475 36.7036 42.8475C37.6022 42.8475 38.3307 42.119 38.3307 41.2203C38.3307 40.3217 37.6022 39.5932 36.7036 39.5932C35.8049 39.5932 35.0764 40.3217 35.0764 41.2203ZM43.2122 42.8475C42.3136 42.8475 41.5851 42.119 41.5851 41.2203C41.5851 40.3217 42.3136 39.5932 43.2122 39.5932C44.1108 39.5932 44.8393 40.3217 44.8393 41.2203C44.8393 42.119 44.1108 42.8475 43.2122 42.8475ZM48.0934 41.2203C48.0934 42.119 48.8219 42.8475 49.7205 42.8475C50.6191 42.8475 51.3476 42.119 51.3476 41.2203C51.3476 40.3217 50.6191 39.5932 49.7205 39.5932C48.8219 39.5932 48.0934 40.3217 48.0934 41.2203ZM30.1951 49.3558C29.2964 49.3558 28.568 48.6273 28.568 47.7287C28.568 46.83 29.2964 46.1015 30.1951 46.1015C31.0937 46.1015 31.8222 46.83 31.8222 47.7287C31.8222 48.6273 31.0937 49.3558 30.1951 49.3558ZM35.0764 47.7287C35.0764 48.6273 35.8049 49.3558 36.7036 49.3558C37.6022 49.3558 38.3307 48.6273 38.3307 47.7287C38.3307 46.83 37.6022 46.1015 36.7036 46.1015C35.8049 46.1015 35.0764 46.83 35.0764 47.7287ZM43.2122 49.3558C42.3136 49.3558 41.5851 48.6273 41.5851 47.7287C41.5851 46.83 42.3136 46.1015 43.2122 46.1015C44.1108 46.1015 44.8393 46.83 44.8393 47.7287C44.8393 48.6273 44.1108 49.3558 43.2122 49.3558ZM48.0934 47.7287C48.0934 48.6273 48.8219 49.3558 49.7205 49.3558C50.6191 49.3558 51.3476 48.6273 51.3476 47.7287C51.3476 46.83 50.6191 46.1015 49.7205 46.1015C48.8219 46.1015 48.0934 46.83 48.0934 47.7287ZM30.1951 55.8643C29.2964 55.8643 28.568 55.1358 28.568 54.2371C28.568 53.3385 29.2964 52.61 30.1951 52.61C31.0937 52.61 31.8222 53.3385 31.8222 54.2371C31.8222 55.1358 31.0937 55.8643 30.1951 55.8643ZM35.0764 54.2371C35.0764 55.1358 35.8049 55.8643 36.7036 55.8643C37.6022 55.8643 38.3307 55.1358 38.3307 54.2371C38.3307 53.3385 37.6022 52.61 36.7036 52.61C35.8049 52.61 35.0764 53.3385 35.0764 54.2371ZM43.2122 55.8643C42.3136 55.8643 41.5851 55.1358 41.5851 54.2371C41.5851 53.3385 42.3136 52.61 43.2122 52.61C44.1108 52.61 44.8393 53.3385 44.8393 54.2371C44.8393 55.1358 44.1108 55.8643 43.2122 55.8643ZM48.0934 54.2371C48.0934 55.1358 48.8219 55.8643 49.7205 55.8643C50.6191 55.8643 51.3476 55.1358 51.3476 54.2371C51.3476 53.3385 50.6191 52.61 49.7205 52.61C48.8219 52.61 48.0934 53.3385 48.0934 54.2371ZM23.6869 42.8475C22.7883 42.8475 22.0598 42.119 22.0598 41.2203C22.0598 40.3217 22.7883 39.5932 23.6869 39.5932C24.5855 39.5932 25.314 40.3217 25.314 41.2203C25.314 42.119 24.5855 42.8475 23.6869 42.8475ZM22.0598 47.7287C22.0598 48.6273 22.7883 49.3558 23.6869 49.3558C24.5855 49.3558 25.314 48.6273 25.314 47.7287C25.314 46.83 24.5855 46.1015 23.6869 46.1015C22.7883 46.1015 22.0598 46.83 22.0598 47.7287ZM23.6869 55.8643C22.7883 55.8643 22.0598 55.1358 22.0598 54.2371C22.0598 53.3385 22.7883 52.61 23.6869 52.61C24.5855 52.61 25.314 53.3385 25.314 54.2371C25.314 55.1358 24.5855 55.8643 23.6869 55.8643ZM15.5509 41.2203C15.5509 42.119 16.2793 42.8475 17.178 42.8475C18.0766 42.8475 18.8051 42.119 18.8051 41.2203C18.8051 40.3217 18.0766 39.5932 17.178 39.5932C16.2793 39.5932 15.5509 40.3217 15.5509 41.2203ZM17.178 49.3558C16.2793 49.3558 15.5509 48.6273 15.5509 47.7287C15.5509 46.83 16.2793 46.1015 17.178 46.1015C18.0766 46.1015 18.8051 46.83 18.8051 47.7287C18.8051 48.6273 18.0766 49.3558 17.178 49.3558ZM15.5509 54.2371C15.5509 55.1358 16.2793 55.8643 17.178 55.8643C18.0766 55.8643 18.8051 55.1358 18.8051 54.2371C18.8051 53.3385 18.0766 52.61 17.178 52.61C16.2793 52.61 15.5509 53.3385 15.5509 54.2371Z" fill="white"/>
</svg>
