<svg width="64" height="64" viewBox="0 0 64 64" fill="none" xmlns="http://www.w3.org/2000/svg">
<path fill-rule="evenodd" clip-rule="evenodd" d="M0 15.7142C0 14.6097 0.895431 13.7142 2 13.7142H62C63.1046 13.7142 64 14.6097 64 15.7142V27.621L55.5753 18.6087L50.9528 23.546L46.3313 18.6021L39.8957 25.5147L45.9786 32.0118L39.8882 38.5028L46.334 45.3876L50.9497 40.4654L55.5781 45.381L64 36.3997V42.2857C64 46.7039 60.4183 50.2857 56 50.2857H8C3.58172 50.2857 0 46.7039 0 42.2857V36.3997L8.42188 45.381L13.0503 40.4654L17.666 45.3876L24.1118 38.5028L18.0214 32.0118L24.1043 25.5147L17.6687 18.6021L13.0472 23.546L8.42465 18.6087L0 27.621V15.7142ZM30.8572 25.1428C30.8572 25.774 30.3455 26.2857 29.7143 26.2857C29.0831 26.2857 28.5715 25.774 28.5715 25.1428C28.5715 24.5116 29.0831 24 29.7143 24C30.3455 24 30.8572 24.5116 30.8572 25.1428ZM29.7143 30.8571C30.3455 30.8571 30.8572 30.3455 30.8572 29.7143C30.8572 29.0831 30.3455 28.5714 29.7143 28.5714C29.0831 28.5714 28.5715 29.0831 28.5715 29.7143C28.5715 30.3455 29.0831 30.8571 29.7143 30.8571ZM30.8572 34.2856C30.8572 34.9168 30.3455 35.4285 29.7143 35.4285C29.0831 35.4285 28.5715 34.9168 28.5715 34.2856C28.5715 33.6544 29.0831 33.1428 29.7143 33.1428C30.3455 33.1428 30.8572 33.6544 30.8572 34.2856ZM29.7143 39.9999C30.3455 39.9999 30.8572 39.4883 30.8572 38.8571C30.8572 38.2259 30.3455 37.7142 29.7143 37.7142C29.0831 37.7142 28.5715 38.2259 28.5715 38.8571C28.5715 39.4883 29.0831 39.9999 29.7143 39.9999ZM30.8572 43.4286C30.8572 44.0597 30.3455 44.5714 29.7143 44.5714C29.0831 44.5714 28.5715 44.0597 28.5715 43.4286C28.5715 42.7974 29.0831 42.2857 29.7143 42.2857C30.3455 42.2857 30.8572 42.7974 30.8572 43.4286ZM34.2857 26.2857C34.9168 26.2857 35.4285 25.774 35.4285 25.1428C35.4285 24.5116 34.9168 24 34.2857 24C33.6545 24 33.1428 24.5116 33.1428 25.1428C33.1428 25.774 33.6545 26.2857 34.2857 26.2857ZM35.4285 29.7143C35.4285 30.3455 34.9168 30.8571 34.2857 30.8571C33.6545 30.8571 33.1428 30.3455 33.1428 29.7143C33.1428 29.0831 33.6545 28.5714 34.2857 28.5714C34.9168 28.5714 35.4285 29.0831 35.4285 29.7143ZM34.2857 35.4285C34.9168 35.4285 35.4285 34.9168 35.4285 34.2856C35.4285 33.6544 34.9168 33.1428 34.2857 33.1428C33.6545 33.1428 33.1428 33.6544 33.1428 34.2856C33.1428 34.9168 33.6545 35.4285 34.2857 35.4285ZM35.4285 38.8571C35.4285 39.4883 34.9168 39.9999 34.2857 39.9999C33.6545 39.9999 33.1428 39.4883 33.1428 38.8571C33.1428 38.2259 33.6545 37.7142 34.2857 37.7142C34.9168 37.7142 35.4285 38.2259 35.4285 38.8571ZM34.2857 44.5714C34.9168 44.5714 35.4285 44.0597 35.4285 43.4286C35.4285 42.7974 34.9168 42.2857 34.2857 42.2857C33.6545 42.2857 33.1428 42.7974 33.1428 43.4286C33.1428 44.0597 33.6545 44.5714 34.2857 44.5714ZM13.9097 32.014L20.0001 38.505L17.6642 40.9999L9.23798 32.014L17.6642 22.9999L20.0001 25.509L13.9097 32.014ZM9.91821e-05 32.014L8.42636 40.9999L10.7622 38.5191L4.67183 32.014L10.7622 25.4949L8.42636 22.9999L9.91821e-05 32.014ZM43.9999 38.505L50.0903 32.014L43.9999 25.509L46.3358 22.9999L54.762 32.014L46.3358 40.9999L43.9999 38.505ZM55.5736 40.9999L63.9999 32.014L55.5736 22.9999L53.2378 25.4949L59.3282 32.014L53.2378 38.5191L55.5736 40.9999Z" fill="white"/>
</svg>
