<svg width="32" height="32" viewBox="0 0 32 32" fill="none" xmlns="http://www.w3.org/2000/svg">
<path fill-rule="evenodd" clip-rule="evenodd" d="M1 1H31L20.8003 11.1997C20.3885 11.0843 19.9234 11.0267 19.405 11.0267C18.8761 11.0267 18.3784 11.0967 17.9117 11.2367C17.4528 11.3767 17.0367 11.5672 16.6634 11.8083L17.3167 13.3017C17.5578 13.1539 17.83 13.0372 18.1334 12.9517C18.4367 12.8583 18.7439 12.8117 19.055 12.8117C19.0993 12.8117 19.1427 12.8127 19.1852 12.8148L14.4867 17.5133H11.3369V11.1667H9.31856V19.3333H12.6667L5.3934 26.6066C2.67893 23.8921 1 20.1421 1 16V1Z" fill="white"/>
<path opacity="0.5" fill-rule="evenodd" clip-rule="evenodd" d="M12.6666 19.3333L5.39331 26.6066C8.10778 29.3211 11.8578 31 15.9999 31C24.2842 31 30.9999 24.2843 30.9999 16V1L20.8002 11.1997C21.1669 11.3024 21.4913 11.4508 21.7734 11.645C22.3722 12.0494 22.6717 12.6483 22.6717 13.4417C22.6717 13.9861 22.5161 14.4839 22.205 14.935C21.9017 15.3783 21.4311 15.8567 20.7934 16.37L19.2534 17.595H22.9167V19.3333H16.6984V17.6767L19.055 15.7633C19.4206 15.46 19.6967 15.2189 19.8834 15.04C20.07 14.8611 20.2139 14.6783 20.315 14.4917C20.4239 14.305 20.4784 14.0989 20.4784 13.8733C20.4784 13.5233 20.3422 13.2589 20.07 13.08C19.8339 12.9203 19.539 12.8319 19.1852 12.8148L14.4866 17.5133H15.0352V19.3333H12.6666Z" fill="white"/>
</svg>
