<svg width="32" height="32" viewBox="0 0 32 32" fill="none" xmlns="http://www.w3.org/2000/svg">
<g clip-path="url(#clip0_1967_14842)">
<path d="M32 7.85718C32 7.30489 31.5523 6.85718 31 6.85718H0.999998C0.447714 6.85718 0 7.30489 0 7.85718V21.1429C0 23.352 1.79086 25.1429 4 25.1429H28C30.2091 25.1429 32 23.352 32 21.1429V7.85718Z" fill="white"/>
<circle r="0.571428" transform="matrix(-1 0 0 1 14.8572 12.5714)" fill="#B8BCBF"/>
<circle r="0.571428" transform="matrix(-1 0 0 1 14.8572 14.8572)" fill="#B8BCBF"/>
<ellipse rx="0.571428" ry="0.571429" transform="matrix(-1 0 0 1 14.8572 17.1428)" fill="#B8BCBF"/>
<ellipse rx="0.571428" ry="0.571429" transform="matrix(-1 0 0 1 14.8572 19.4286)" fill="#B8BCBF"/>
<ellipse rx="0.571428" ry="0.571429" transform="matrix(-1 0 0 1 14.8572 21.7143)" fill="#B8BCBF"/>
<circle r="0.571428" transform="matrix(-1 0 0 1 12.5715 12.5714)" fill="#B8BCBF"/>
<circle r="0.571428" transform="matrix(-1 0 0 1 10.2856 12.5714)" fill="#B8BCBF"/>
<ellipse rx="0.571429" ry="0.571428" transform="matrix(-1 0 0 1 7.99998 12.5714)" fill="#B8BCBF"/>
<ellipse rx="0.571429" ry="0.571428" transform="matrix(-1 0 0 1 5.71422 12.5714)" fill="#B8BCBF"/>
<ellipse rx="0.571429" ry="0.571428" transform="matrix(-1 0 0 1 3.42857 12.5714)" fill="#B8BCBF"/>
<circle r="0.571428" transform="matrix(-1 0 0 1 12.5715 14.8572)" fill="#B8BCBF"/>
<circle r="0.571428" transform="matrix(-1 0 0 1 10.2856 14.8572)" fill="#B8BCBF"/>
<ellipse rx="0.571429" ry="0.571428" transform="matrix(-1 0 0 1 7.99998 14.8572)" fill="#B8BCBF"/>
<ellipse rx="0.571429" ry="0.571428" transform="matrix(-1 0 0 1 5.71422 14.8572)" fill="#B8BCBF"/>
<ellipse rx="0.571429" ry="0.571428" transform="matrix(-1 0 0 1 3.42857 14.8572)" fill="#B8BCBF"/>
<ellipse rx="0.571428" ry="0.571429" transform="matrix(-1 0 0 1 12.5715 17.1428)" fill="#B8BCBF"/>
<ellipse rx="0.571428" ry="0.571429" transform="matrix(-1 0 0 1 12.5715 19.4286)" fill="#B8BCBF"/>
<ellipse rx="0.571428" ry="0.571429" transform="matrix(-1 0 0 1 12.5715 21.7143)" fill="#B8BCBF"/>
<ellipse rx="0.571428" ry="0.571429" transform="matrix(-1 0 0 1 10.2856 17.1428)" fill="#B8BCBF"/>
<ellipse rx="0.571428" ry="0.571429" transform="matrix(-1 0 0 1 10.2856 19.4286)" fill="#B8BCBF"/>
<ellipse rx="0.571428" ry="0.571429" transform="matrix(-1 0 0 1 10.2856 21.7143)" fill="#B8BCBF"/>
<ellipse rx="0.571429" ry="0.571429" transform="matrix(-1 0 0 1 7.99998 17.1428)" fill="#B8BCBF"/>
<ellipse rx="0.571429" ry="0.571429" transform="matrix(-1 0 0 1 7.99998 19.4286)" fill="#B8BCBF"/>
<ellipse rx="0.571429" ry="0.571429" transform="matrix(-1 0 0 1 7.99998 21.7143)" fill="#B8BCBF"/>
<ellipse rx="0.571429" ry="0.571429" transform="matrix(-1 0 0 1 5.71422 17.1428)" fill="#B8BCBF"/>
<ellipse rx="0.571429" ry="0.571429" transform="matrix(-1 0 0 1 5.71422 19.4286)" fill="#B8BCBF"/>
<ellipse rx="0.571429" ry="0.571429" transform="matrix(-1 0 0 1 5.71422 21.7143)" fill="#B8BCBF"/>
<ellipse rx="0.571429" ry="0.571429" transform="matrix(-1 0 0 1 3.42857 17.1428)" fill="#B8BCBF"/>
<ellipse rx="0.571429" ry="0.571429" transform="matrix(-1 0 0 1 3.42857 19.4286)" fill="#B8BCBF"/>
<ellipse rx="0.571429" ry="0.571429" transform="matrix(-1 0 0 1 3.42857 21.7143)" fill="#B8BCBF"/>
<path d="M25.6207 18H24.6607L23.9957 16.89H23.9207H23.5057V18H22.6407V14.5H24.0007C24.5007 14.5 24.8707 14.5983 25.1107 14.795C25.3507 14.9917 25.4707 15.2683 25.4707 15.625C25.4707 15.895 25.4124 16.1217 25.2957 16.305C25.1824 16.485 25.0224 16.6217 24.8157 16.715L25.6207 18ZM23.5057 15.24V16.15H23.9757C24.1524 16.15 24.2907 16.11 24.3907 16.03C24.4941 15.9467 24.5457 15.8267 24.5457 15.67C24.5457 15.5267 24.4991 15.42 24.4057 15.35C24.3124 15.2767 24.1641 15.24 23.9607 15.24H23.5057Z" fill="#B8BCBF"/>
<path fill-rule="evenodd" clip-rule="evenodd" d="M24 12C21.7514 12 19.9286 13.8228 19.9286 16.0714C19.9286 18.32 21.7514 20.1429 24 20.1429C26.2486 20.1429 28.0714 18.32 28.0714 16.0714C28.0714 13.8228 26.2486 12 24 12ZM18.9286 16.0714C18.9286 13.2706 21.1991 11 24 11C26.8009 11 29.0714 13.2706 29.0714 16.0714C29.0714 18.8723 26.8009 21.1429 24 21.1429C21.1991 21.1429 18.9286 18.8723 18.9286 16.0714Z" fill="#B8BCBF"/>
<path fill-rule="evenodd" clip-rule="evenodd" d="M24.0001 10C20.6666 10 17.9644 12.7023 17.9644 16.0357C17.9644 19.3691 20.6666 22.0714 24.0001 22.0714C27.3335 22.0714 30.0358 19.3691 30.0358 16.0357C30.0358 12.7023 27.3335 10 24.0001 10ZM17.4644 16.0357C17.4644 12.4261 20.3905 9.5 24.0001 9.5C27.6096 9.5 30.5358 12.4261 30.5358 16.0357C30.5358 19.6453 27.6096 22.5714 24.0001 22.5714C20.3905 22.5714 17.4644 19.6453 17.4644 16.0357Z" fill="#B8BCBF"/>
</g>
<defs>
<clipPath id="clip0_1967_14842">
<rect width="32" height="32" fill="white"/>
</clipPath>
</defs>
</svg>
