<svg width="64" height="64" viewBox="0 0 64 64" fill="none" xmlns="http://www.w3.org/2000/svg">
<path fill-rule="evenodd" clip-rule="evenodd" d="M0 32C0 38.6274 5.37258 44 12 44H52C58.6274 44 64 38.6274 64 32C64 25.3726 58.6274 20 52 20H12C5.37258 20 0 25.3726 0 32ZM11.9939 28.553C11.3999 28.2597 10.7546 28.113 10.0579 28.113C9.36125 28.113 8.71592 28.2597 8.12192 28.553C7.52792 28.839 7.04758 29.2827 6.68092 29.884C6.31425 30.478 6.13092 31.2187 6.13092 32.106C6.13092 32.9933 6.31425 33.745 6.68092 34.361C7.04758 34.9697 7.52792 35.428 8.12192 35.736C8.72325 36.0367 9.36858 36.187 10.0579 36.187C10.7473 36.187 11.3889 36.0367 11.9829 35.736C12.5843 35.428 13.0683 34.9697 13.4349 34.361C13.8016 33.745 13.9849 32.9933 13.9849 32.106C13.9849 31.2187 13.8016 30.478 13.4349 29.884C13.0683 29.2827 12.5879 28.839 11.9939 28.553ZM8.68292 30.445C9.02759 30.0637 9.48592 29.873 10.0579 29.873C10.6226 29.873 11.0773 30.0637 11.4219 30.445C11.7666 30.8263 11.9389 31.3837 11.9389 32.117C11.9389 32.8577 11.7629 33.4297 11.4109 33.833C11.0663 34.229 10.6116 34.427 10.0469 34.427C9.48225 34.427 9.02759 34.229 8.68292 33.833C8.33825 33.4297 8.16592 32.8577 8.16592 32.117C8.16592 31.3837 8.33825 30.8263 8.68292 30.445ZM15.6723 28.3V36H17.5753V33.591H18.5103C19.1703 33.591 19.735 33.4663 20.2043 33.217C20.6737 32.9677 21.0257 32.634 21.2603 32.216C21.495 31.7907 21.6123 31.3213 21.6123 30.808C21.6123 30.038 21.3447 29.4293 20.8093 28.982C20.2813 28.5273 19.5187 28.3 18.5213 28.3H15.6723ZM19.2913 31.677C19.1007 31.8677 18.833 31.963 18.4883 31.963H17.5753V29.928H18.4663C18.8256 29.928 19.1007 30.0087 19.2913 30.17C19.482 30.3313 19.5773 30.5733 19.5773 30.896C19.5773 31.226 19.482 31.4863 19.2913 31.677ZM24.8605 36H26.7635V29.928H29.0075V28.3H22.6165V29.928H24.8605V36ZM32.4005 28.3H30.4975V36H32.4005V28.3ZM39.947 28.553C39.353 28.2597 38.7077 28.113 38.011 28.113C37.3144 28.113 36.669 28.2597 36.075 28.553C35.481 28.839 35.0007 29.2827 34.634 29.884C34.2674 30.478 34.084 31.2187 34.084 32.106C34.084 32.9933 34.2674 33.745 34.634 34.361C35.0007 34.9697 35.481 35.428 36.075 35.736C36.6764 36.0367 37.3217 36.187 38.011 36.187C38.7004 36.187 39.342 36.0367 39.936 35.736C40.5374 35.428 41.0214 34.9697 41.388 34.361C41.7547 33.745 41.938 32.9933 41.938 32.106C41.938 31.2187 41.7547 30.478 41.388 29.884C41.0214 29.2827 40.541 28.839 39.947 28.553ZM36.636 30.445C36.9807 30.0637 37.439 29.873 38.011 29.873C38.5757 29.873 39.0304 30.0637 39.375 30.445C39.7197 30.8263 39.892 31.3837 39.892 32.117C39.892 32.8577 39.716 33.4297 39.364 33.833C39.0194 34.229 38.5647 34.427 38 34.427C37.4354 34.427 36.9807 34.229 36.636 33.833C36.2914 33.4297 36.119 32.8577 36.119 32.117C36.119 31.3837 36.2914 30.8263 36.636 30.445ZM48.4984 28.3V32.744L45.2314 28.3H43.6254V36H45.5284V31.622L48.8394 36H50.4344V28.3H48.4984ZM56.6422 28.344C56.1802 28.19 55.6815 28.113 55.1462 28.113C54.5595 28.113 54.0425 28.2083 53.5952 28.399C53.1478 28.5823 52.7995 28.8537 52.5502 29.213C52.3008 29.565 52.1762 29.983 52.1762 30.467C52.1762 30.9803 52.2935 31.3947 52.5282 31.71C52.7628 32.018 53.0415 32.249 53.3642 32.403C53.6868 32.5497 54.1195 32.7073 54.6622 32.876C55.0802 33.0007 55.3882 33.1253 55.5862 33.25C55.7842 33.3673 55.8832 33.5323 55.8832 33.745C55.8832 33.9577 55.7952 34.13 55.6192 34.262C55.4432 34.394 55.1828 34.46 54.8382 34.46C54.1415 34.46 53.3898 34.251 52.5832 33.833L52.0112 35.417C52.3925 35.6443 52.8288 35.8203 53.3202 35.945C53.8188 36.0697 54.3138 36.132 54.8052 36.132C55.4138 36.132 55.9528 36.0367 56.4222 35.846C56.8988 35.648 57.2692 35.362 57.5332 34.988C57.8045 34.614 57.9402 34.1703 57.9402 33.657C57.9402 33.173 57.8228 32.7807 57.5882 32.48C57.3535 32.172 57.0785 31.941 56.7632 31.787C56.4552 31.633 56.0482 31.468 55.5422 31.292C55.0802 31.138 54.7392 30.9987 54.5192 30.874C54.3065 30.742 54.2002 30.566 54.2002 30.346C54.2002 30.1407 54.2845 29.9793 54.4532 29.862C54.6218 29.7373 54.8565 29.675 55.1572 29.675C55.4432 29.675 55.7512 29.7337 56.0812 29.851C56.4185 29.9683 56.7192 30.1223 56.9832 30.313L57.7862 28.894C57.4855 28.674 57.1042 28.4907 56.6422 28.344Z" fill="white"/>
</svg>
