<svg width="64" height="64" viewBox="0 0 64 64" fill="none" xmlns="http://www.w3.org/2000/svg">
<path fill-rule="evenodd" clip-rule="evenodd" d="M32 60C47.464 60 60 47.464 60 32C60 16.536 47.464 4 32 4C16.536 4 4 16.536 4 32C4 47.464 16.536 60 32 60ZM49.1369 41.6776C49.1369 41.6776 51.0723 40.9337 51.8626 39.8905H51.8624C52.6515 38.8474 52.3016 37.3325 49.1937 36.3047C46.436 35.2107 42.9232 34.8349 40.0543 35.1656C37.1852 35.4982 35.145 36.2538 35.145 36.2538L34.7379 36.3979V40.5404L41.7987 37.9381C43.0021 37.4851 44.7687 37.3889 45.7443 37.7245C46.7217 38.0593 46.5371 38.6965 45.3346 39.1475L34.7379 43.0986V47.0899L49.1369 41.6776ZM36.1087 22.8862V33.0938C40.2151 35.1684 43.4467 33.0919 43.4467 27.6133C43.4467 21.9923 41.5553 19.4975 35.9764 17.4931C33.7828 16.7193 29.702 15.4329 26.9011 14.8888V45.3675L33.4886 47.5555V21.9931C33.4886 20.7952 33.9993 19.9955 34.8225 20.2715C35.8973 20.584 36.1087 21.6874 36.1087 22.8862ZM12.5462 38.6533C11.0921 39.7819 11.6229 41.741 14.8136 42.6814V42.6812C18.2364 43.8615 21.7097 44.0943 24.971 43.5366C25.0385 43.5248 25.1076 43.5128 25.1772 43.5008C25.3276 43.4749 25.48 43.4486 25.6214 43.4223V39.8375L22.3611 41.0756C21.1586 41.5275 19.3911 41.6226 18.4147 41.2881C17.439 40.9535 17.6236 40.3153 18.8243 39.8644L25.6214 37.319V33.3121L16.176 36.8267C16.176 36.8267 13.8903 37.6112 12.5462 38.6533Z" fill="white"/>
</svg>
