<svg width="64" height="64" viewBox="0 0 64 64" fill="none" xmlns="http://www.w3.org/2000/svg">
<path fill-rule="evenodd" clip-rule="evenodd" d="M6.92083 4H58.4792V21.7152L55.5753 18.6087L50.9528 23.546L46.3313 18.6021L39.8957 25.5148L45.9786 32.0119L39.8882 38.5029L46.334 45.3877L50.9497 40.4654L55.5781 45.381L58.4792 42.2872V60.0001H14.1208C8.81889 60.0001 4.52082 55.702 4.52082 50.4001V41.2209L8.42188 45.381L13.0503 40.4654L17.666 45.3877L24.1118 38.5029L18.0214 32.0119L24.1043 25.5148L17.6687 18.6021L13.0472 23.546L8.42465 18.6087L4.52082 22.7849V6.4C4.52082 5.07452 5.59534 4 6.92083 4ZM55.5737 23.0001L55.5736 23L53.2378 25.4949L58.4792 31.1054V31.1053L59.3283 32.0141L58.4792 32.921V32.9209L53.2378 38.5192L55.5736 41L55.5737 41L55.5737 41L58.4792 37.9014L64 32.0141L58.4792 26.1083L55.5737 23L55.5737 23.0001ZM8.42631 41L8.42636 41L10.7622 38.5192L4.67183 32.0141L10.7622 25.4949L8.42636 23L8.42632 23.0001L8.42627 23L0 32.0141L8.42627 41L8.42631 41ZM34.9792 23.2501C35.9457 23.2501 36.7292 22.4666 36.7292 21.5001C36.7292 20.5336 35.9457 19.7501 34.9792 19.7501C34.0127 19.7501 33.2292 20.5336 33.2292 21.5001C33.2292 22.4666 34.0127 23.2501 34.9792 23.2501ZM29.7291 21.5001C29.7291 22.4666 28.9456 23.2501 27.9791 23.2501C27.0126 23.2501 26.2291 22.4666 26.2291 21.5001C26.2291 20.5336 27.0126 19.7501 27.9791 19.7501C28.9456 19.7501 29.7291 20.5336 29.7291 21.5001ZM34.9792 30.2502C35.9457 30.2502 36.7292 29.4667 36.7292 28.5002C36.7292 27.5337 35.9457 26.7502 34.9792 26.7502C34.0127 26.7502 33.2292 27.5337 33.2292 28.5002C33.2292 29.4667 34.0127 30.2502 34.9792 30.2502ZM29.7291 28.5002C29.7291 29.4667 28.9456 30.2502 27.9791 30.2502C27.0126 30.2502 26.2291 29.4667 26.2291 28.5002C26.2291 27.5337 27.0126 26.7502 27.9791 26.7502C28.9456 26.7502 29.7291 27.5337 29.7291 28.5002ZM17.6642 23.0001L17.6641 23L9.23788 32.0141L17.6641 41L17.6642 41L17.6642 41L20.0001 38.5051L13.9097 32.0141L20.0001 25.509L17.6642 23L17.6642 23.0001ZM48.3178 30.1208L47.3187 29.0537C47.3187 29.0537 47.3187 29.0538 47.3187 29.0538L43.9999 25.509L46.3358 23L46.3358 23.0001L46.3359 23L54.7621 32.0141L46.3359 41L46.3358 41L46.3358 41L43.9999 38.5051L47.3081 34.9793C47.3081 34.9793 47.3081 34.9794 47.3081 34.9794L48.3534 33.8653C48.3534 33.8654 48.3533 33.8654 48.3533 33.8654L50.0903 32.0141L48.3176 30.1208C48.3177 30.1208 48.3177 30.1208 48.3178 30.1208ZM34.9792 37.2501C35.9457 37.2501 36.7292 36.4666 36.7292 35.5001C36.7292 34.5336 35.9457 33.7501 34.9792 33.7501C34.0127 33.7501 33.2292 34.5336 33.2292 35.5001C33.2292 36.4666 34.0127 37.2501 34.9792 37.2501ZM29.7291 35.5001C29.7291 36.4666 28.9456 37.2501 27.9791 37.2501C27.0126 37.2501 26.2291 36.4666 26.2291 35.5001C26.2291 34.5336 27.0126 33.7501 27.9791 33.7501C28.9456 33.7501 29.7291 34.5336 29.7291 35.5001ZM36.7292 42.5C36.7292 43.4665 35.9457 44.25 34.9792 44.25C34.0127 44.25 33.2292 43.4665 33.2292 42.5C33.2292 41.5335 34.0127 40.75 34.9792 40.75C35.9457 40.75 36.7292 41.5335 36.7292 42.5ZM27.9791 44.25C28.9456 44.25 29.7291 43.4665 29.7291 42.5C29.7291 41.5335 28.9456 40.75 27.9791 40.75C27.0126 40.75 26.2291 41.5335 26.2291 42.5C26.2291 43.4665 27.0126 44.25 27.9791 44.25ZM36.7292 49.5001C36.7292 50.4666 35.9457 51.2501 34.9792 51.2501C34.0127 51.2501 33.2292 50.4666 33.2292 49.5001C33.2292 48.5336 34.0127 47.7501 34.9792 47.7501C35.9457 47.7501 36.7292 48.5336 36.7292 49.5001ZM27.9791 51.2501C28.9456 51.2501 29.7291 50.4666 29.7291 49.5001C29.7291 48.5336 28.9456 47.7501 27.9791 47.7501C27.0126 47.7501 26.2291 48.5336 26.2291 49.5001C26.2291 50.4666 27.0126 51.2501 27.9791 51.2501ZM22.729 49.5001C22.729 50.4666 21.9455 51.2501 20.979 51.2501C20.0125 51.2501 19.229 50.4666 19.229 49.5001C19.229 48.5336 20.0125 47.7501 20.979 47.7501C21.9455 47.7501 22.729 48.5336 22.729 49.5001ZM13.9793 51.2501C14.9458 51.2501 15.7293 50.4666 15.7293 49.5001C15.7293 48.5336 14.9458 47.7501 13.9793 47.7501C13.0128 47.7501 12.2293 48.5336 12.2293 49.5001C12.2293 50.4666 13.0128 51.2501 13.9793 51.2501ZM43.7289 49.5001C43.7289 50.4666 42.9454 51.2501 41.9789 51.2501C41.0124 51.2501 40.2289 50.4666 40.2289 49.5001C40.2289 48.5336 41.0124 47.7501 41.9789 47.7501C42.9454 47.7501 43.7289 48.5336 43.7289 49.5001ZM50.7293 49.5001C50.7293 50.4666 49.9458 51.2501 48.9793 51.2501C48.0128 51.2501 47.2293 50.4666 47.2293 49.5001C47.2293 48.5336 48.0128 47.7501 48.9793 47.7501C49.9458 47.7501 50.7293 48.5336 50.7293 49.5001Z" fill="white"/>
</svg>
