<svg width="32" height="32" viewBox="0 0 32 32" fill="none" xmlns="http://www.w3.org/2000/svg">
<g clip-path="url(#clip0_1967_19310)">
<path fill-rule="evenodd" clip-rule="evenodd" d="M8.19997 3H32.1915V29.1447H11.8C9.149 29.1447 6.99996 26.9956 6.99996 24.3447V4.2C6.99996 3.53726 7.53722 3 8.19997 3ZM18.2468 11.9149C17.7956 11.9149 17.4298 11.5492 17.4298 11.0979C17.4298 10.6467 17.7956 10.2809 18.2468 10.2809C18.698 10.2809 19.0638 10.6467 19.0638 11.0979C19.0638 11.5492 18.698 11.9149 18.2468 11.9149ZM20.6979 11.0979C20.6979 11.5492 21.0637 11.9149 21.5149 11.9149C21.9662 11.9149 22.3319 11.5492 22.3319 11.0979C22.3319 10.6467 21.9662 10.2809 21.5149 10.2809C21.0637 10.2809 20.6979 10.6467 20.6979 11.0979ZM24.7831 11.9149C24.3318 11.9149 23.966 11.5492 23.966 11.0979C23.966 10.6467 24.3318 10.2809 24.7831 10.2809C25.2343 10.2809 25.6001 10.6467 25.6001 11.0979C25.6001 11.5492 25.2343 11.9149 24.7831 11.9149ZM27.234 11.0979C27.234 11.5492 27.5998 11.9149 28.0511 11.9149C28.5023 11.9149 28.8681 11.5492 28.8681 11.0979C28.8681 10.6467 28.5023 10.2809 28.0511 10.2809C27.5998 10.2809 27.234 10.6467 27.234 11.0979ZM14.9789 11.9149C14.5276 11.9149 14.1618 11.5492 14.1618 11.0979C14.1618 10.6467 14.5276 10.2809 14.9789 10.2809C15.4301 10.2809 15.7959 10.6467 15.7959 11.0979C15.7959 11.5492 15.4301 11.9149 14.9789 11.9149ZM10.8936 11.0979C10.8936 11.5492 11.2594 11.9149 11.7106 11.9149C12.1618 11.9149 12.5276 11.5492 12.5276 11.0979C12.5276 10.6467 12.1618 10.2809 11.7106 10.2809C11.2594 10.2809 10.8936 10.6467 10.8936 11.0979ZM18.2468 15.1831C17.7956 15.1831 17.4298 14.8173 17.4298 14.3661C17.4298 13.9148 17.7956 13.549 18.2468 13.549C18.698 13.549 19.0638 13.9148 19.0638 14.3661C19.0638 14.8173 18.698 15.1831 18.2468 15.1831ZM20.6979 14.3661C20.6979 14.8173 21.0637 15.1831 21.5149 15.1831C21.9662 15.1831 22.3319 14.8173 22.3319 14.3661C22.3319 13.9148 21.9662 13.549 21.5149 13.549C21.0637 13.549 20.6979 13.9148 20.6979 14.3661ZM24.7831 15.1831C24.3318 15.1831 23.966 14.8173 23.966 14.3661C23.966 13.9148 24.3318 13.549 24.7831 13.549C25.2343 13.549 25.6001 13.9148 25.6001 14.3661C25.6001 14.8173 25.2343 15.1831 24.7831 15.1831ZM27.234 14.3661C27.234 14.8173 27.5998 15.1831 28.0511 15.1831C28.5023 15.1831 28.8681 14.8173 28.8681 14.3661C28.8681 13.9148 28.5023 13.549 28.0511 13.549C27.5998 13.549 27.234 13.9148 27.234 14.3661ZM14.9789 15.1831C14.5276 15.1831 14.1618 14.8173 14.1618 14.3661C14.1618 13.9148 14.5276 13.549 14.9789 13.549C15.4301 13.549 15.7959 13.9148 15.7959 14.3661C15.7959 14.8173 15.4301 15.1831 14.9789 15.1831ZM10.8936 14.3661C10.8936 14.8173 11.2594 15.1831 11.7106 15.1831C12.1618 15.1831 12.5276 14.8173 12.5276 14.3661C12.5276 13.9148 12.1618 13.549 11.7106 13.549C11.2594 13.549 10.8936 13.9148 10.8936 14.3661ZM18.2468 18.4511C17.7956 18.4511 17.4298 18.0853 17.4298 17.6341C17.4298 17.1828 17.7956 16.817 18.2468 16.817C18.698 16.817 19.0638 17.1828 19.0638 17.6341C19.0638 18.0853 18.698 18.4511 18.2468 18.4511ZM20.6979 17.6341C20.6979 18.0853 21.0637 18.4511 21.5149 18.4511C21.9662 18.4511 22.3319 18.0853 22.3319 17.6341C22.3319 17.1828 21.9662 16.817 21.5149 16.817C21.0637 16.817 20.6979 17.1828 20.6979 17.6341ZM24.7831 18.4511C24.3318 18.4511 23.966 18.0853 23.966 17.6341C23.966 17.1828 24.3318 16.817 24.7831 16.817C25.2343 16.817 25.6001 17.1828 25.6001 17.6341C25.6001 18.0853 25.2343 18.4511 24.7831 18.4511ZM27.234 17.6341C27.234 18.0853 27.5998 18.4511 28.0511 18.4511C28.5023 18.4511 28.8681 18.0853 28.8681 17.6341C28.8681 17.1828 28.5023 16.817 28.0511 16.817C27.5998 16.817 27.234 17.1828 27.234 17.6341ZM18.2468 21.7191C17.7956 21.7191 17.4298 21.3533 17.4298 20.9021C17.4298 20.4509 17.7956 20.0851 18.2468 20.0851C18.698 20.0851 19.0638 20.4509 19.0638 20.9021C19.0638 21.3533 18.698 21.7191 18.2468 21.7191ZM20.6979 20.9021C20.6979 21.3533 21.0637 21.7191 21.5149 21.7191C21.9662 21.7191 22.3319 21.3533 22.3319 20.9021C22.3319 20.4509 21.9662 20.0851 21.5149 20.0851C21.0637 20.0851 20.6979 20.4509 20.6979 20.9021ZM24.7831 21.7191C24.3318 21.7191 23.966 21.3533 23.966 20.9021C23.966 20.4509 24.3318 20.0851 24.7831 20.0851C25.2343 20.0851 25.6001 20.4509 25.6001 20.9021C25.6001 21.3533 25.2343 21.7191 24.7831 21.7191ZM27.234 20.9021C27.234 21.3533 27.5998 21.7191 28.0511 21.7191C28.5023 21.7191 28.8681 21.3533 28.8681 20.9021C28.8681 20.4509 28.5023 20.0851 28.0511 20.0851C27.5998 20.0851 27.234 20.4509 27.234 20.9021ZM18.2468 24.9872C17.7956 24.9872 17.4298 24.6214 17.4298 24.1702C17.4298 23.719 17.7956 23.3532 18.2468 23.3532C18.698 23.3532 19.0638 23.719 19.0638 24.1702C19.0638 24.6214 18.698 24.9872 18.2468 24.9872ZM20.6979 24.1702C20.6979 24.6214 21.0637 24.9872 21.5149 24.9872C21.9662 24.9872 22.3319 24.6214 22.3319 24.1702C22.3319 23.719 21.9662 23.3532 21.5149 23.3532C21.0637 23.3532 20.6979 23.719 20.6979 24.1702ZM24.7831 24.9872C24.3318 24.9872 23.966 24.6214 23.966 24.1702C23.966 23.719 24.3318 23.3532 24.7831 23.3532C25.2343 23.3532 25.6001 23.719 25.6001 24.1702C25.6001 24.6214 25.2343 24.9872 24.7831 24.9872ZM27.234 24.1702C27.234 24.6214 27.5998 24.9872 28.0511 24.9872C28.5023 24.9872 28.8681 24.6214 28.8681 24.1702C28.8681 23.719 28.5023 23.3532 28.0511 23.3532C27.5998 23.3532 27.234 23.719 27.234 24.1702ZM14.9789 18.4511C14.5276 18.4511 14.1618 18.0853 14.1618 17.6341C14.1618 17.1828 14.5276 16.817 14.9789 16.817C15.4301 16.817 15.7959 17.1828 15.7959 17.6341C15.7959 18.0853 15.4301 18.4511 14.9789 18.4511ZM14.1618 20.9021C14.1618 21.3533 14.5276 21.7191 14.9789 21.7191C15.4301 21.7191 15.7959 21.3533 15.7959 20.9021C15.7959 20.4509 15.4301 20.0851 14.9789 20.0851C14.5276 20.0851 14.1618 20.4509 14.1618 20.9021ZM14.9789 24.9872C14.5276 24.9872 14.1618 24.6214 14.1618 24.1702C14.1618 23.719 14.5276 23.3532 14.9789 23.3532C15.4301 23.3532 15.7959 23.719 15.7959 24.1702C15.7959 24.6214 15.4301 24.9872 14.9789 24.9872ZM10.8936 17.6341C10.8936 18.0853 11.2594 18.4511 11.7106 18.4511C12.1618 18.4511 12.5276 18.0853 12.5276 17.6341C12.5276 17.1828 12.1618 16.817 11.7106 16.817C11.2594 16.817 10.8936 17.1828 10.8936 17.6341ZM11.7106 21.7191C11.2594 21.7191 10.8936 21.3533 10.8936 20.9021C10.8936 20.4509 11.2594 20.0851 11.7106 20.0851C12.1618 20.0851 12.5276 20.4509 12.5276 20.9021C12.5276 21.3533 12.1618 21.7191 11.7106 21.7191ZM10.8936 24.1702C10.8936 24.6214 11.2594 24.9872 11.7106 24.9872C12.1618 24.9872 12.5276 24.6214 12.5276 24.1702C12.5276 23.719 12.1618 23.3532 11.7106 23.3532C11.2594 23.3532 10.8936 23.719 10.8936 24.1702ZM0 15.9999L4.76596 20.0851V11.9148L0 15.9999Z" fill="white"/>
</g>
<defs>
<clipPath id="clip0_1967_19310">
<rect width="32" height="32" fill="white"/>
</clipPath>
</defs>
</svg>
