<svg width="64" height="64" viewBox="0 0 64 64" fill="none" xmlns="http://www.w3.org/2000/svg">
<path fill-rule="evenodd" clip-rule="evenodd" d="M41.651 18.7385L41.651 18.7385L45.8022 14.46L45.8021 14.4599L42.4452 11L32.0001 0.234497L21.5551 11H21.555L18.198 14.4599L18.1981 14.46L22.3492 18.7385L22.3492 18.7385L29.0685 11.8132V27.8386H29.0685V27.8386H34.9317V11.8131L41.651 18.7385ZM41.651 22.7026L49.6483 14.4599L46.2913 11H54.4438C55.7693 11 56.8438 12.0745 56.8438 13.4V54.3999C56.8438 59.7019 52.5457 63.9999 47.2438 63.9999H7.15637V11H17.7088L14.3519 14.4599L22.3492 22.7026L26.308 18.6223V30.599H37.6921V18.6223L41.651 22.7026ZM13.7813 29.2188C14.696 29.2188 15.4376 28.4772 15.4376 27.5625C15.4376 26.6478 14.696 25.9063 13.7813 25.9063C12.8666 25.9063 12.1251 26.6478 12.1251 27.5625C12.1251 28.4772 12.8666 29.2188 13.7813 29.2188ZM15.4376 34.1877C15.4376 35.1024 14.696 35.844 13.7813 35.844C12.8666 35.844 12.1251 35.1024 12.1251 34.1877C12.1251 33.273 12.8666 32.5315 13.7813 32.5315C14.696 32.5315 15.4376 33.273 15.4376 34.1877ZM20.4061 35.844C21.3208 35.844 22.0624 35.1024 22.0624 34.1877C22.0624 33.273 21.3208 32.5315 20.4061 32.5315C19.4914 32.5315 18.7499 33.273 18.7499 34.1877C18.7499 35.1024 19.4914 35.844 20.4061 35.844ZM15.4376 40.8126C15.4376 41.7274 14.696 42.4689 13.7813 42.4689C12.8666 42.4689 12.1251 41.7274 12.1251 40.8126C12.1251 39.8979 12.8666 39.1564 13.7813 39.1564C14.696 39.1564 15.4376 39.8979 15.4376 40.8126ZM13.7813 49.0937C14.696 49.0937 15.4376 48.3522 15.4376 47.4375C15.4376 46.5227 14.696 45.7812 13.7813 45.7812C12.8666 45.7812 12.1251 46.5227 12.1251 47.4375C12.1251 48.3522 12.8666 49.0937 13.7813 49.0937ZM15.4376 54.0625C15.4376 54.9772 14.696 55.7188 13.7813 55.7188C12.8666 55.7188 12.1251 54.9772 12.1251 54.0625C12.1251 53.1478 12.8666 52.4063 13.7813 52.4063C14.696 52.4063 15.4376 53.1478 15.4376 54.0625ZM46.9064 29.2188C47.8211 29.2188 48.5626 28.4772 48.5626 27.5625C48.5626 26.6478 47.8211 25.9063 46.9064 25.9063C45.9916 25.9063 45.2501 26.6478 45.2501 27.5625C45.2501 28.4772 45.9916 29.2188 46.9064 29.2188ZM48.5626 34.1877C48.5626 35.1024 47.8211 35.844 46.9064 35.844C45.9916 35.844 45.2501 35.1024 45.2501 34.1877C45.2501 33.273 45.9916 32.5315 46.9064 32.5315C47.8211 32.5315 48.5626 33.273 48.5626 34.1877ZM20.4061 42.4689C21.3208 42.4689 22.0624 41.7274 22.0624 40.8126C22.0624 39.8979 21.3208 39.1564 20.4061 39.1564C19.4914 39.1564 18.7499 39.8979 18.7499 40.8126C18.7499 41.7274 19.4914 42.4689 20.4061 42.4689ZM22.0624 47.4375C22.0624 48.3522 21.3208 49.0937 20.4061 49.0937C19.4914 49.0937 18.7499 48.3522 18.7499 47.4375C18.7499 46.5227 19.4914 45.7812 20.4061 45.7812C21.3208 45.7812 22.0624 46.5227 22.0624 47.4375ZM20.4061 55.7188C21.3208 55.7188 22.0624 54.9772 22.0624 54.0625C22.0624 53.1478 21.3208 52.4063 20.4061 52.4063C19.4914 52.4063 18.7499 53.1478 18.7499 54.0625C18.7499 54.9772 19.4914 55.7188 20.4061 55.7188ZM28.6878 40.8126C28.6878 41.7274 27.9463 42.4689 27.0316 42.4689C26.1168 42.4689 25.3753 41.7274 25.3753 40.8126C25.3753 39.8979 26.1168 39.1564 27.0316 39.1564C27.9463 39.1564 28.6878 39.8979 28.6878 40.8126ZM27.0316 49.0937C27.9463 49.0937 28.6878 48.3522 28.6878 47.4375C28.6878 46.5227 27.9463 45.7812 27.0316 45.7812C26.1168 45.7812 25.3753 46.5227 25.3753 47.4375C25.3753 48.3522 26.1168 49.0937 27.0316 49.0937ZM28.6878 54.0625C28.6878 54.9772 27.9463 55.7188 27.0316 55.7188C26.1168 55.7188 25.3753 54.9772 25.3753 54.0625C25.3753 53.1478 26.1168 52.4063 27.0316 52.4063C27.9463 52.4063 28.6878 53.1478 28.6878 54.0625ZM33.6562 42.4689C34.571 42.4689 35.3125 41.7274 35.3125 40.8126C35.3125 39.8979 34.571 39.1564 33.6562 39.1564C32.7415 39.1564 32 39.8979 32 40.8126C32 41.7274 32.7415 42.4689 33.6562 42.4689ZM35.3125 47.4375C35.3125 48.3522 34.571 49.0937 33.6562 49.0937C32.7415 49.0937 32 48.3522 32 47.4375C32 46.5227 32.7415 45.7812 33.6562 45.7812C34.571 45.7812 35.3125 46.5227 35.3125 47.4375ZM33.6562 55.7188C34.571 55.7188 35.3125 54.9772 35.3125 54.0625C35.3125 53.1478 34.571 52.4063 33.6562 52.4063C32.7415 52.4063 32 53.1478 32 54.0625C32 54.9772 32.7415 55.7188 33.6562 55.7188ZM41.9372 40.8126C41.9372 41.7274 41.1957 42.4689 40.2809 42.4689C39.3662 42.4689 38.6247 41.7274 38.6247 40.8126C38.6247 39.8979 39.3662 39.1564 40.2809 39.1564C41.1957 39.1564 41.9372 39.8979 41.9372 40.8126ZM40.2809 49.0937C41.1957 49.0937 41.9372 48.3522 41.9372 47.4375C41.9372 46.5227 41.1957 45.7812 40.2809 45.7812C39.3662 45.7812 38.6247 46.5227 38.6247 47.4375C38.6247 48.3522 39.3662 49.0937 40.2809 49.0937ZM41.9372 54.0625C41.9372 54.9772 41.1957 55.7188 40.2809 55.7188C39.3662 55.7188 38.6247 54.9772 38.6247 54.0625C38.6247 53.1478 39.3662 52.4063 40.2809 52.4063C41.1957 52.4063 41.9372 53.1478 41.9372 54.0625ZM46.9064 42.4689C47.8211 42.4689 48.5626 41.7274 48.5626 40.8126C48.5626 39.8979 47.8211 39.1564 46.9064 39.1564C45.9916 39.1564 45.2501 39.8979 45.2501 40.8126C45.2501 41.7274 45.9916 42.4689 46.9064 42.4689ZM48.5626 47.4375C48.5626 48.3522 47.8211 49.0937 46.9064 49.0937C45.9916 49.0937 45.2501 48.3522 45.2501 47.4375C45.2501 46.5227 45.9916 45.7812 46.9064 45.7812C47.8211 45.7812 48.5626 46.5227 48.5626 47.4375ZM46.9064 55.7188C47.8211 55.7188 48.5626 54.9772 48.5626 54.0625C48.5626 53.1478 47.8211 52.4063 46.9064 52.4063C45.9916 52.4063 45.2501 53.1478 45.2501 54.0625C45.2501 54.9772 45.9916 55.7188 46.9064 55.7188Z" fill="white"/>
</svg>
