<svg width="64" height="64" viewBox="0 0 64 64" fill="none" xmlns="http://www.w3.org/2000/svg">
<g clip-path="url(#clip0_1967:19520)">
<path fill-rule="evenodd" clip-rule="evenodd" d="M10.3358 0H57.0645V50.9876H17.5358C12.2339 50.9876 7.93579 46.6895 7.93579 41.3876V2.4C7.93579 1.07452 9.01031 0 10.3358 0ZM30.2428 17.527C29.3629 17.527 28.6495 16.8136 28.6495 15.9337C28.6495 15.0537 29.3629 14.3403 30.2428 14.3403C31.1228 14.3403 31.8362 15.0537 31.8362 15.9337C31.8362 16.8136 31.1228 17.527 30.2428 17.527ZM35.0231 15.9337C35.0231 16.8136 35.7364 17.527 36.6164 17.527C37.4964 17.527 38.2098 16.8136 38.2098 15.9337C38.2098 15.0537 37.4964 14.3403 36.6164 14.3403C35.7364 14.3403 35.0231 15.0537 35.0231 15.9337ZM42.9899 17.527C42.1099 17.527 41.3965 16.8136 41.3965 15.9337C41.3965 15.0537 42.1099 14.3403 42.9899 14.3403C43.8699 14.3403 44.5833 15.0537 44.5833 15.9337C44.5833 16.8136 43.8699 17.527 42.9899 17.527ZM47.7699 15.9337C47.7699 16.8136 48.4832 17.527 49.3632 17.527C50.2432 17.527 50.9566 16.8136 50.9566 15.9337C50.9566 15.0537 50.2432 14.3403 49.3632 14.3403C48.4832 14.3403 47.7699 15.0537 47.7699 15.9337ZM23.8696 17.527C22.9897 17.527 22.2763 16.8136 22.2763 15.9337C22.2763 15.0537 22.9897 14.3403 23.8696 14.3403C24.7496 14.3403 25.463 15.0537 25.463 15.9337C25.463 16.8136 24.7496 17.527 23.8696 17.527ZM15.9024 15.9337C15.9024 16.8136 16.6158 17.527 17.4958 17.527C18.3758 17.527 19.0892 16.8136 19.0892 15.9337C19.0892 15.0537 18.3758 14.3403 17.4958 14.3403C16.6158 14.3403 15.9024 15.0537 15.9024 15.9337ZM30.2428 23.9006C29.3629 23.9006 28.6495 23.1872 28.6495 22.3072C28.6495 21.4273 29.3629 20.7139 30.2428 20.7139C31.1228 20.7139 31.8362 21.4273 31.8362 22.3072C31.8362 23.1872 31.1228 23.9006 30.2428 23.9006ZM35.0231 22.3072C35.0231 23.1872 35.7364 23.9006 36.6164 23.9006C37.4964 23.9006 38.2098 23.1872 38.2098 22.3072C38.2098 21.4273 37.4964 20.7139 36.6164 20.7139C35.7364 20.7139 35.0231 21.4273 35.0231 22.3072ZM42.9899 23.9006C42.1099 23.9006 41.3965 23.1872 41.3965 22.3072C41.3965 21.4273 42.1099 20.7139 42.9899 20.7139C43.8699 20.7139 44.5833 21.4273 44.5833 22.3072C44.5833 23.1872 43.8699 23.9006 42.9899 23.9006ZM47.7699 22.3072C47.7699 23.1872 48.4832 23.9006 49.3632 23.9006C50.2432 23.9006 50.9566 23.1872 50.9566 22.3072C50.9566 21.4273 50.2432 20.7139 49.3632 20.7139C48.4832 20.7139 47.7699 21.4273 47.7699 22.3072ZM23.8696 23.9006C22.9897 23.9006 22.2763 23.1872 22.2763 22.3072C22.2763 21.4273 22.9897 20.7139 23.8696 20.7139C24.7496 20.7139 25.463 21.4273 25.463 22.3072C25.463 23.1872 24.7496 23.9006 23.8696 23.9006ZM15.9024 22.3072C15.9024 23.1872 16.6158 23.9006 17.4958 23.9006C18.3758 23.9006 19.0892 23.1872 19.0892 22.3072C19.0892 21.4273 18.3758 20.7139 17.4958 20.7139C16.6158 20.7139 15.9024 21.4273 15.9024 22.3072ZM30.2428 30.2739C29.3629 30.2739 28.6495 29.5606 28.6495 28.6806C28.6495 27.8006 29.3629 27.0872 30.2428 27.0872C31.1228 27.0872 31.8362 27.8006 31.8362 28.6806C31.8362 29.5606 31.1228 30.2739 30.2428 30.2739ZM35.0231 28.6806C35.0231 29.5606 35.7364 30.2739 36.6164 30.2739C37.4964 30.2739 38.2098 29.5606 38.2098 28.6806C38.2098 27.8006 37.4964 27.0872 36.6164 27.0872C35.7364 27.0872 35.0231 27.8006 35.0231 28.6806ZM42.9899 30.2739C42.1099 30.2739 41.3965 29.5606 41.3965 28.6806C41.3965 27.8006 42.1099 27.0872 42.9899 27.0872C43.8699 27.0872 44.5833 27.8006 44.5833 28.6806C44.5833 29.5606 43.8699 30.2739 42.9899 30.2739ZM47.7699 28.6806C47.7699 29.5606 48.4832 30.2739 49.3632 30.2739C50.2432 30.2739 50.9566 29.5606 50.9566 28.6806C50.9566 27.8006 50.2432 27.0872 49.3632 27.0872C48.4832 27.0872 47.7699 27.8006 47.7699 28.6806ZM30.2428 36.6473C29.3629 36.6473 28.6495 35.9339 28.6495 35.0539C28.6495 34.1739 29.3629 33.4606 30.2428 33.4606C31.1228 33.4606 31.8362 34.1739 31.8362 35.0539C31.8362 35.9339 31.1228 36.6473 30.2428 36.6473ZM35.0231 35.0539C35.0231 35.9339 35.7364 36.6473 36.6164 36.6473C37.4964 36.6473 38.2098 35.9339 38.2098 35.0539C38.2098 34.1739 37.4964 33.4606 36.6164 33.4606C35.7364 33.4606 35.0231 34.1739 35.0231 35.0539ZM42.9899 36.6473C42.1099 36.6473 41.3965 35.9339 41.3965 35.0539C41.3965 34.1739 42.1099 33.4606 42.9899 33.4606C43.8699 33.4606 44.5833 34.1739 44.5833 35.0539C44.5833 35.9339 43.8699 36.6473 42.9899 36.6473ZM47.7699 35.0539C47.7699 35.9339 48.4832 36.6473 49.3632 36.6473C50.2432 36.6473 50.9566 35.9339 50.9566 35.0539C50.9566 34.1739 50.2432 33.4606 49.3632 33.4606C48.4832 33.4606 47.7699 34.1739 47.7699 35.0539ZM30.2428 43.0207C29.3629 43.0207 28.6495 42.3074 28.6495 41.4274C28.6495 40.5474 29.3629 39.834 30.2428 39.834C31.1228 39.834 31.8362 40.5474 31.8362 41.4274C31.8362 42.3074 31.1228 43.0207 30.2428 43.0207ZM35.0231 41.4274C35.0231 42.3074 35.7364 43.0207 36.6164 43.0207C37.4964 43.0207 38.2098 42.3074 38.2098 41.4274C38.2098 40.5474 37.4964 39.834 36.6164 39.834C35.7364 39.834 35.0231 40.5474 35.0231 41.4274ZM42.9899 43.0207C42.1099 43.0207 41.3965 42.3074 41.3965 41.4274C41.3965 40.5474 42.1099 39.834 42.9899 39.834C43.8699 39.834 44.5833 40.5474 44.5833 41.4274C44.5833 42.3074 43.8699 43.0207 42.9899 43.0207ZM47.7699 41.4274C47.7699 42.3074 48.4832 43.0207 49.3632 43.0207C50.2432 43.0207 50.9566 42.3074 50.9566 41.4274C50.9566 40.5474 50.2432 39.834 49.3632 39.834C48.4832 39.834 47.7699 40.5474 47.7699 41.4274ZM23.8696 30.2739C22.9897 30.2739 22.2763 29.5606 22.2763 28.6806C22.2763 27.8006 22.9897 27.0872 23.8696 27.0872C24.7496 27.0872 25.463 27.8006 25.463 28.6806C25.463 29.5606 24.7496 30.2739 23.8696 30.2739ZM22.2763 35.0539C22.2763 35.9339 22.9897 36.6473 23.8696 36.6473C24.7496 36.6473 25.463 35.9339 25.463 35.0539C25.463 34.1739 24.7496 33.4606 23.8696 33.4606C22.9897 33.4606 22.2763 34.1739 22.2763 35.0539ZM23.8696 43.0207C22.9897 43.0207 22.2763 42.3074 22.2763 41.4274C22.2763 40.5474 22.9897 39.834 23.8696 39.834C24.7496 39.834 25.463 40.5474 25.463 41.4274C25.463 42.3074 24.7496 43.0207 23.8696 43.0207ZM15.9024 28.6806C15.9024 29.5606 16.6158 30.2739 17.4958 30.2739C18.3758 30.2739 19.0892 29.5606 19.0892 28.6806C19.0892 27.8006 18.3758 27.0872 17.4958 27.0872C16.6158 27.0872 15.9024 27.8006 15.9024 28.6806ZM17.4958 36.6473C16.6158 36.6473 15.9024 35.9339 15.9024 35.0539C15.9024 34.1739 16.6158 33.4606 17.4958 33.4606C18.3758 33.4606 19.0892 34.1739 19.0892 35.0539C19.0892 35.9339 18.3758 36.6473 17.4958 36.6473ZM15.9024 41.4274C15.9024 42.3074 16.6158 43.0207 17.4958 43.0207C18.3758 43.0207 19.0892 42.3074 19.0892 41.4274C19.0892 40.5474 18.3758 39.834 17.4958 39.834C16.6158 39.834 15.9024 40.5474 15.9024 41.4274ZM31.8362 64L39.803 54.7054H23.8694L31.8362 64Z" fill="white"/>
</g>
<defs>
<clipPath id="clip0_1967:19520">
<rect width="64" height="64" fill="white"/>
</clipPath>
</defs>
</svg>
