<svg width="32" height="32" viewBox="0 0 32 32" fill="none" xmlns="http://www.w3.org/2000/svg">
<path fill-rule="evenodd" clip-rule="evenodd" d="M1 6.85718H17.5477L18.549 8.05877C17.1766 8.33434 16.1428 9.54645 16.1428 11V21C16.1428 22.6569 17.486 24 19.1428 24H28C29.6568 24 31 22.6569 31 21V11C31 9.5029 29.9033 8.26193 28.4696 8.03654L29.4524 6.85718H31C31.5523 6.85718 32 7.30489 32 7.85718V21.1429C32 23.352 30.2091 25.1429 28 25.1429H4C1.79086 25.1429 0 23.352 0 21.1429V7.85718C0 7.30489 0.447715 6.85718 1 6.85718ZM19.1428 9H19.3333L23.5 14L27.6667 9H28C29.1045 9 30 9.89543 30 11V21C30 22.1046 29.1045 23 28 23H19.1428C18.0383 23 17.1428 22.1046 17.1428 21V11C17.1428 9.89543 18.0383 9 19.1428 9ZM2.14272 13.1429C2.45831 13.1429 2.71415 12.887 2.71415 12.5714C2.71415 12.2558 2.45831 12 2.14272 12C1.82713 12 1.57129 12.2558 1.57129 12.5714C1.57129 12.887 1.82713 13.1429 2.14272 13.1429ZM2.71415 14.8572C2.71415 15.1728 2.45831 15.4286 2.14272 15.4286C1.82713 15.4286 1.57129 15.1728 1.57129 14.8572C1.57129 14.5416 1.82713 14.2858 2.14272 14.2858C2.45831 14.2858 2.71415 14.5416 2.71415 14.8572ZM2.14272 17.7143C2.45831 17.7143 2.71415 17.4584 2.71415 17.1428C2.71415 16.8272 2.45831 16.5714 2.14272 16.5714C1.82713 16.5714 1.57129 16.8272 1.57129 17.1428C1.57129 17.4584 1.82713 17.7143 2.14272 17.7143ZM2.71415 19.4286C2.71415 19.7442 2.45831 20 2.14272 20C1.82713 20 1.57129 19.7442 1.57129 19.4286C1.57129 19.113 1.82713 18.8572 2.14272 18.8572C2.45831 18.8572 2.71415 19.113 2.71415 19.4286ZM2.14272 22.2857C2.45831 22.2857 2.71415 22.0298 2.71415 21.7143C2.71415 21.3987 2.45831 21.1428 2.14272 21.1428C1.82713 21.1428 1.57129 21.3987 1.57129 21.7143C1.57129 22.0298 1.82713 22.2857 2.14272 22.2857ZM5.00004 12.5714C5.00004 12.887 4.7442 13.1429 4.42861 13.1429C4.11302 13.1429 3.85718 12.887 3.85718 12.5714C3.85718 12.2558 4.11302 12 4.42861 12C4.7442 12 5.00004 12.2558 5.00004 12.5714ZM6.71425 13.1429C7.02984 13.1429 7.28568 12.887 7.28568 12.5714C7.28568 12.2558 7.02984 12 6.71425 12C6.39866 12 6.14282 12.2558 6.14282 12.5714C6.14282 12.887 6.39866 13.1429 6.71425 13.1429ZM9.57157 12.5714C9.57157 12.887 9.31573 13.1429 9.00014 13.1429C8.68455 13.1429 8.42871 12.887 8.42871 12.5714C8.42871 12.2558 8.68455 12 9.00014 12C9.31573 12 9.57157 12.2558 9.57157 12.5714ZM11.2858 13.1429C11.6014 13.1429 11.8572 12.887 11.8572 12.5714C11.8572 12.2558 11.6014 12 11.2858 12C10.9702 12 10.7144 12.2558 10.7144 12.5714C10.7144 12.887 10.9702 13.1429 11.2858 13.1429ZM14.1429 12.5714C14.1429 12.887 13.887 13.1429 13.5714 13.1429C13.2558 13.1429 13 12.887 13 12.5714C13 12.2558 13.2558 12 13.5714 12C13.887 12 14.1429 12.2558 14.1429 12.5714ZM4.42861 15.4286C4.7442 15.4286 5.00004 15.1728 5.00004 14.8572C5.00004 14.5416 4.7442 14.2858 4.42861 14.2858C4.11302 14.2858 3.85718 14.5416 3.85718 14.8572C3.85718 15.1728 4.11302 15.4286 4.42861 15.4286ZM7.28568 14.8572C7.28568 15.1728 7.02984 15.4286 6.71425 15.4286C6.39866 15.4286 6.14282 15.1728 6.14282 14.8572C6.14282 14.5416 6.39866 14.2858 6.71425 14.2858C7.02984 14.2858 7.28568 14.5416 7.28568 14.8572ZM9.00014 15.4286C9.31573 15.4286 9.57157 15.1728 9.57157 14.8572C9.57157 14.5416 9.31573 14.2858 9.00014 14.2858C8.68455 14.2858 8.42871 14.5416 8.42871 14.8572C8.42871 15.1728 8.68455 15.4286 9.00014 15.4286ZM11.8572 14.8572C11.8572 15.1728 11.6014 15.4286 11.2858 15.4286C10.9702 15.4286 10.7144 15.1728 10.7144 14.8572C10.7144 14.5416 10.9702 14.2858 11.2858 14.2858C11.6014 14.2858 11.8572 14.5416 11.8572 14.8572ZM13.5714 15.4286C13.887 15.4286 14.1429 15.1728 14.1429 14.8572C14.1429 14.5416 13.887 14.2858 13.5714 14.2858C13.2558 14.2858 13 14.5416 13 14.8572C13 15.1728 13.2558 15.4286 13.5714 15.4286ZM5.00004 17.1428C5.00004 17.4584 4.7442 17.7143 4.42861 17.7143C4.11302 17.7143 3.85718 17.4584 3.85718 17.1428C3.85718 16.8272 4.11302 16.5714 4.42861 16.5714C4.7442 16.5714 5.00004 16.8272 5.00004 17.1428ZM4.42861 20C4.7442 20 5.00004 19.7442 5.00004 19.4286C5.00004 19.113 4.7442 18.8572 4.42861 18.8572C4.11302 18.8572 3.85718 19.113 3.85718 19.4286C3.85718 19.7442 4.11302 20 4.42861 20ZM5.00004 21.7143C5.00004 22.0298 4.7442 22.2857 4.42861 22.2857C4.11302 22.2857 3.85718 22.0298 3.85718 21.7143C3.85718 21.3987 4.11302 21.1428 4.42861 21.1428C4.7442 21.1428 5.00004 21.3987 5.00004 21.7143ZM6.71425 17.7143C7.02984 17.7143 7.28568 17.4584 7.28568 17.1428C7.28568 16.8272 7.02984 16.5714 6.71425 16.5714C6.39866 16.5714 6.14282 16.8272 6.14282 17.1428C6.14282 17.4584 6.39866 17.7143 6.71425 17.7143ZM7.28568 19.4286C7.28568 19.7442 7.02984 20 6.71425 20C6.39866 20 6.14282 19.7442 6.14282 19.4286C6.14282 19.113 6.39866 18.8572 6.71425 18.8572C7.02984 18.8572 7.28568 19.113 7.28568 19.4286ZM6.71425 22.2857C7.02984 22.2857 7.28568 22.0298 7.28568 21.7143C7.28568 21.3987 7.02984 21.1428 6.71425 21.1428C6.39866 21.1428 6.14282 21.3987 6.14282 21.7143C6.14282 22.0298 6.39866 22.2857 6.71425 22.2857ZM9.57157 17.1428C9.57157 17.4584 9.31573 17.7143 9.00014 17.7143C8.68455 17.7143 8.42871 17.4584 8.42871 17.1428C8.42871 16.8272 8.68455 16.5714 9.00014 16.5714C9.31573 16.5714 9.57157 16.8272 9.57157 17.1428ZM9.00014 20C9.31573 20 9.57157 19.7442 9.57157 19.4286C9.57157 19.113 9.31573 18.8572 9.00014 18.8572C8.68455 18.8572 8.42871 19.113 8.42871 19.4286C8.42871 19.7442 8.68455 20 9.00014 20ZM9.57157 21.7143C9.57157 22.0298 9.31573 22.2857 9.00014 22.2857C8.68455 22.2857 8.42871 22.0298 8.42871 21.7143C8.42871 21.3987 8.68455 21.1428 9.00014 21.1428C9.31573 21.1428 9.57157 21.3987 9.57157 21.7143ZM11.2858 17.7143C11.6014 17.7143 11.8572 17.4584 11.8572 17.1428C11.8572 16.8272 11.6014 16.5714 11.2858 16.5714C10.9702 16.5714 10.7144 16.8272 10.7144 17.1428C10.7144 17.4584 10.9702 17.7143 11.2858 17.7143ZM11.8572 19.4286C11.8572 19.7442 11.6014 20 11.2858 20C10.9702 20 10.7144 19.7442 10.7144 19.4286C10.7144 19.113 10.9702 18.8572 11.2858 18.8572C11.6014 18.8572 11.8572 19.113 11.8572 19.4286ZM11.2858 22.2857C11.6014 22.2857 11.8572 22.0298 11.8572 21.7143C11.8572 21.3987 11.6014 21.1428 11.2858 21.1428C10.9702 21.1428 10.7144 21.3987 10.7144 21.7143C10.7144 22.0298 10.9702 22.2857 11.2858 22.2857ZM14.1429 17.1428C14.1429 17.4584 13.887 17.7143 13.5714 17.7143C13.2558 17.7143 13 17.4584 13 17.1428C13 16.8272 13.2558 16.5714 13.5714 16.5714C13.887 16.5714 14.1429 16.8272 14.1429 17.1428ZM13.5714 20C13.887 20 14.1429 19.7442 14.1429 19.4286C14.1429 19.113 13.887 18.8572 13.5714 18.8572C13.2558 18.8572 13 19.113 13 19.4286C13 19.7442 13.2558 20 13.5714 20ZM14.1429 21.7143C14.1429 22.0298 13.887 22.2857 13.5714 22.2857C13.2558 22.2857 13 22.0298 13 21.7143C13 21.3987 13.2558 21.1428 13.5714 21.1428C13.887 21.1428 14.1429 21.3987 14.1429 21.7143ZM24 15H23V17H24V15ZM25 14.8096L25.5871 14.0001L27.2061 15.1743L26.619 15.9838L25 14.8096ZM22.1214 14.7071L21.4143 14L20.0001 15.4142L20.7072 16.1213L22.1214 14.7071Z" fill="white"/>
<path d="M17 5L23.5 13L30 5H17Z" fill="white"/>
<rect x="21" y="1" width="5" height="5" fill="white"/>
</svg>
