<svg width="64" height="64" viewBox="0 0 64 64" fill="none" xmlns="http://www.w3.org/2000/svg">
<g clip-path="url(#clip0_1967:19485)">
<path fill-rule="evenodd" clip-rule="evenodd" d="M53.6643 0H6.93567V50.9876H46.4644C51.7663 50.9876 56.0644 46.6895 56.0644 41.3876V2.4C56.0644 1.07452 54.9898 0 53.6643 0ZM33.7573 17.527C34.6373 17.527 35.3507 16.8136 35.3507 15.9337C35.3507 15.0537 34.6373 14.3403 33.7573 14.3403C32.8773 14.3403 32.1639 15.0537 32.1639 15.9337C32.1639 16.8136 32.8773 17.527 33.7573 17.527ZM28.9771 15.9337C28.9771 16.8136 28.2637 17.527 27.3837 17.527C26.5037 17.527 25.7903 16.8136 25.7903 15.9337C25.7903 15.0537 26.5037 14.3403 27.3837 14.3403C28.2637 14.3403 28.9771 15.0537 28.9771 15.9337ZM21.0102 17.527C21.8902 17.527 22.6036 16.8136 22.6036 15.9337C22.6036 15.0537 21.8902 14.3403 21.0102 14.3403C20.1303 14.3403 19.4169 15.0537 19.4169 15.9337C19.4169 16.8136 20.1303 17.527 21.0102 17.527ZM16.2303 15.9337C16.2303 16.8136 15.5169 17.527 14.6369 17.527C13.7569 17.527 13.0435 16.8136 13.0435 15.9337C13.0435 15.0537 13.7569 14.3403 14.6369 14.3403C15.5169 14.3403 16.2303 15.0537 16.2303 15.9337ZM40.1305 17.527C41.0105 17.527 41.7239 16.8136 41.7239 15.9337C41.7239 15.0537 41.0105 14.3403 40.1305 14.3403C39.2505 14.3403 38.5371 15.0537 38.5371 15.9337C38.5371 16.8136 39.2505 17.527 40.1305 17.527ZM48.0977 15.9337C48.0977 16.8136 47.3843 17.527 46.5043 17.527C45.6244 17.527 44.911 16.8136 44.911 15.9337C44.911 15.0537 45.6244 14.3403 46.5043 14.3403C47.3843 14.3403 48.0977 15.0537 48.0977 15.9337ZM33.7573 23.9006C34.6373 23.9006 35.3507 23.1872 35.3507 22.3072C35.3507 21.4273 34.6373 20.7139 33.7573 20.7139C32.8773 20.7139 32.1639 21.4273 32.1639 22.3072C32.1639 23.1872 32.8773 23.9006 33.7573 23.9006ZM28.9771 22.3072C28.9771 23.1872 28.2637 23.9006 27.3837 23.9006C26.5037 23.9006 25.7903 23.1872 25.7903 22.3072C25.7903 21.4273 26.5037 20.7139 27.3837 20.7139C28.2637 20.7139 28.9771 21.4273 28.9771 22.3072ZM21.0102 23.9006C21.8902 23.9006 22.6036 23.1872 22.6036 22.3072C22.6036 21.4273 21.8902 20.7139 21.0102 20.7139C20.1303 20.7139 19.4169 21.4273 19.4169 22.3072C19.4169 23.1872 20.1303 23.9006 21.0102 23.9006ZM16.2303 22.3072C16.2303 23.1872 15.5169 23.9006 14.6369 23.9006C13.7569 23.9006 13.0435 23.1872 13.0435 22.3072C13.0435 21.4273 13.7569 20.7139 14.6369 20.7139C15.5169 20.7139 16.2303 21.4273 16.2303 22.3072ZM40.1305 23.9006C41.0105 23.9006 41.7239 23.1872 41.7239 22.3072C41.7239 21.4273 41.0105 20.7139 40.1305 20.7139C39.2505 20.7139 38.5371 21.4273 38.5371 22.3072C38.5371 23.1872 39.2505 23.9006 40.1305 23.9006ZM48.0977 22.3072C48.0977 23.1872 47.3843 23.9006 46.5043 23.9006C45.6244 23.9006 44.911 23.1872 44.911 22.3072C44.911 21.4273 45.6244 20.7139 46.5043 20.7139C47.3843 20.7139 48.0977 21.4273 48.0977 22.3072ZM33.7573 30.2739C34.6373 30.2739 35.3507 29.5606 35.3507 28.6806C35.3507 27.8006 34.6373 27.0872 33.7573 27.0872C32.8773 27.0872 32.1639 27.8006 32.1639 28.6806C32.1639 29.5606 32.8773 30.2739 33.7573 30.2739ZM28.9771 28.6806C28.9771 29.5606 28.2637 30.2739 27.3837 30.2739C26.5037 30.2739 25.7903 29.5606 25.7903 28.6806C25.7903 27.8006 26.5037 27.0872 27.3837 27.0872C28.2637 27.0872 28.9771 27.8006 28.9771 28.6806ZM21.0102 30.2739C21.8902 30.2739 22.6036 29.5606 22.6036 28.6806C22.6036 27.8006 21.8902 27.0872 21.0102 27.0872C20.1303 27.0872 19.4169 27.8006 19.4169 28.6806C19.4169 29.5606 20.1303 30.2739 21.0102 30.2739ZM16.2303 28.6806C16.2303 29.5606 15.5169 30.2739 14.6369 30.2739C13.7569 30.2739 13.0435 29.5606 13.0435 28.6806C13.0435 27.8006 13.7569 27.0872 14.6369 27.0872C15.5169 27.0872 16.2303 27.8006 16.2303 28.6806ZM33.7573 36.6473C34.6373 36.6473 35.3507 35.9339 35.3507 35.0539C35.3507 34.1739 34.6373 33.4606 33.7573 33.4606C32.8773 33.4606 32.1639 34.1739 32.1639 35.0539C32.1639 35.9339 32.8773 36.6473 33.7573 36.6473ZM28.9771 35.0539C28.9771 35.9339 28.2637 36.6473 27.3837 36.6473C26.5037 36.6473 25.7903 35.9339 25.7903 35.0539C25.7903 34.1739 26.5037 33.4606 27.3837 33.4606C28.2637 33.4606 28.9771 34.1739 28.9771 35.0539ZM21.0102 36.6473C21.8902 36.6473 22.6036 35.9339 22.6036 35.0539C22.6036 34.1739 21.8902 33.4606 21.0102 33.4606C20.1303 33.4606 19.4169 34.1739 19.4169 35.0539C19.4169 35.9339 20.1303 36.6473 21.0102 36.6473ZM16.2303 35.0539C16.2303 35.9339 15.5169 36.6473 14.6369 36.6473C13.7569 36.6473 13.0435 35.9339 13.0435 35.0539C13.0435 34.1739 13.7569 33.4606 14.6369 33.4606C15.5169 33.4606 16.2303 34.1739 16.2303 35.0539ZM33.7573 43.0207C34.6373 43.0207 35.3507 42.3074 35.3507 41.4274C35.3507 40.5474 34.6373 39.834 33.7573 39.834C32.8773 39.834 32.1639 40.5474 32.1639 41.4274C32.1639 42.3074 32.8773 43.0207 33.7573 43.0207ZM28.9771 41.4274C28.9771 42.3074 28.2637 43.0207 27.3837 43.0207C26.5037 43.0207 25.7903 42.3074 25.7903 41.4274C25.7903 40.5474 26.5037 39.834 27.3837 39.834C28.2637 39.834 28.9771 40.5474 28.9771 41.4274ZM21.0102 43.0207C21.8902 43.0207 22.6036 42.3074 22.6036 41.4274C22.6036 40.5474 21.8902 39.834 21.0102 39.834C20.1303 39.834 19.4169 40.5474 19.4169 41.4274C19.4169 42.3074 20.1303 43.0207 21.0102 43.0207ZM16.2303 41.4274C16.2303 42.3074 15.5169 43.0207 14.6369 43.0207C13.7569 43.0207 13.0435 42.3074 13.0435 41.4274C13.0435 40.5474 13.7569 39.834 14.6369 39.834C15.5169 39.834 16.2303 40.5474 16.2303 41.4274ZM40.1305 30.2739C41.0105 30.2739 41.7239 29.5606 41.7239 28.6806C41.7239 27.8006 41.0105 27.0872 40.1305 27.0872C39.2505 27.0872 38.5371 27.8006 38.5371 28.6806C38.5371 29.5606 39.2505 30.2739 40.1305 30.2739ZM41.7239 35.0539C41.7239 35.9339 41.0105 36.6473 40.1305 36.6473C39.2505 36.6473 38.5371 35.9339 38.5371 35.0539C38.5371 34.1739 39.2505 33.4606 40.1305 33.4606C41.0105 33.4606 41.7239 34.1739 41.7239 35.0539ZM40.1305 43.0207C41.0105 43.0207 41.7239 42.3074 41.7239 41.4274C41.7239 40.5474 41.0105 39.834 40.1305 39.834C39.2505 39.834 38.5371 40.5474 38.5371 41.4274C38.5371 42.3074 39.2505 43.0207 40.1305 43.0207ZM48.0977 28.6806C48.0977 29.5606 47.3843 30.2739 46.5043 30.2739C45.6244 30.2739 44.911 29.5606 44.911 28.6806C44.911 27.8006 45.6244 27.0872 46.5043 27.0872C47.3843 27.0872 48.0977 27.8006 48.0977 28.6806ZM46.5043 36.6473C47.3843 36.6473 48.0977 35.9339 48.0977 35.0539C48.0977 34.1739 47.3843 33.4606 46.5043 33.4606C45.6244 33.4606 44.911 34.1739 44.911 35.0539C44.911 35.9339 45.6244 36.6473 46.5043 36.6473ZM48.0977 41.4274C48.0977 42.3074 47.3843 43.0207 46.5043 43.0207C45.6244 43.0207 44.911 42.3074 44.911 41.4274C44.911 40.5474 45.6244 39.834 46.5043 39.834C47.3843 39.834 48.0977 40.5474 48.0977 41.4274ZM32.1639 64L40.1307 54.7054H24.1971L32.1639 64Z" fill="white"/>
</g>
<defs>
<clipPath id="clip0_1967:19485">
<rect width="64" height="64" fill="white"/>
</clipPath>
</defs>
</svg>
