<svg width="32" height="32" viewBox="0 0 32 32" fill="none" xmlns="http://www.w3.org/2000/svg">
<path fill-rule="evenodd" clip-rule="evenodd" d="M0 16C0 19.3137 2.68629 22 6 22H26C29.3137 22 32 19.3137 32 16C32 12.6863 29.3137 10 26 10H6C2.68629 10 0 12.6863 0 16ZM7.17124 13.698C7.46324 13.698 7.73524 13.74 7.98724 13.824C8.23924 13.904 8.44724 14.004 8.61124 14.124L8.17324 14.898C8.02924 14.794 7.86524 14.71 7.68124 14.646C7.50124 14.582 7.33324 14.55 7.17724 14.55C7.01324 14.55 6.88524 14.584 6.79324 14.652C6.70124 14.716 6.65524 14.804 6.65524 14.916C6.65524 15.036 6.71324 15.132 6.82924 15.204C6.94924 15.272 7.13524 15.348 7.38724 15.432C7.66324 15.528 7.88524 15.618 8.05324 15.702C8.22524 15.786 8.37524 15.912 8.50324 16.08C8.63124 16.244 8.69524 16.458 8.69524 16.722C8.69524 17.002 8.62124 17.244 8.47324 17.448C8.32924 17.652 8.12724 17.808 7.86724 17.916C7.61124 18.02 7.31724 18.072 6.98524 18.072C6.71724 18.072 6.44724 18.038 6.17524 17.97C5.90724 17.902 5.66924 17.806 5.46124 17.682L5.77324 16.818C6.21324 17.046 6.62324 17.16 7.00324 17.16C7.19124 17.16 7.33324 17.124 7.42924 17.052C7.52524 16.98 7.57324 16.886 7.57324 16.77C7.57324 16.654 7.51924 16.564 7.41124 16.5C7.30324 16.432 7.13524 16.364 6.90724 16.296C6.61124 16.204 6.37524 16.118 6.19924 16.038C6.02324 15.954 5.87124 15.828 5.74324 15.66C5.61524 15.488 5.55124 15.262 5.55124 14.982C5.55124 14.718 5.61924 14.49 5.75524 14.298C5.89124 14.102 6.08124 13.954 6.32524 13.854C6.56924 13.75 6.85124 13.698 7.17124 13.698ZM12.3385 15.468V13.8H13.3705V18H12.3385V16.356H10.5925V18H9.55448V13.8H10.5925V15.468H12.3385ZM17.2412 18H18.3632L16.7252 13.8H15.7172L14.1392 18H15.2252L15.4652 17.28H16.9952L17.2412 18ZM15.7352 16.464L16.2152 15.018L16.7132 16.464H15.7352ZM22.7066 18H21.5546L20.7566 16.668H20.6666H20.1686V18H19.1306V13.8H20.7626C21.3626 13.8 21.8066 13.918 22.0946 14.154C22.3826 14.39 22.5266 14.722 22.5266 15.15C22.5266 15.474 22.4566 15.746 22.3166 15.966C22.1806 16.182 21.9886 16.346 21.7406 16.458L22.7066 18ZM20.1686 14.688V15.78H20.7326C20.9446 15.78 21.1106 15.732 21.2306 15.636C21.3546 15.536 21.4166 15.392 21.4166 15.204C21.4166 15.032 21.3606 14.904 21.2486 14.82C21.1367 14.732 20.9586 14.688 20.7146 14.688H20.1686ZM26.3688 13.8H23.4588V18H26.3688V17.112H24.4968V16.326H26.0868V15.444H24.4968V14.688H26.3688V13.8Z" fill="white"/>
</svg>
