<svg width="32" height="32" viewBox="0 0 32 32" fill="none" xmlns="http://www.w3.org/2000/svg">
<path fill-rule="evenodd" clip-rule="evenodd" d="M10.5833 9L16 15.5L21.4167 9H27.8572C28.9617 9 29.8572 9.89543 29.8572 11V21C29.8572 22.1046 28.9617 23 27.8572 23H4.14289C3.03832 23 2.14289 22.1046 2.14289 21V11C2.14289 9.89543 3.03832 9 4.14289 9H10.5833ZM9.75001 8H4.14289C2.48604 8 1.14289 9.34315 1.14289 11V21C1.14289 22.6569 2.48604 24 4.14289 24H27.8572C29.514 24 30.8572 22.6569 30.8572 21V11C30.8572 9.34315 29.514 8 27.8572 8H22.25L23.2024 6.85718H31C31.5523 6.85718 32 7.30489 32 7.85718V21.1429C32 23.352 30.2091 25.1429 28 25.1429H4C1.79086 25.1429 0 23.352 0 21.1429V7.85718C0 7.30489 0.447715 6.85718 1 6.85718H8.79765L9.75001 8ZM15.5 17H16.5V19H15.5V17ZM18.2071 16L17.5 16.7072L18.9142 18.1214L19.6213 17.4143L18.2071 16ZM13.9143 16L14.6214 16.7071L13.2072 18.1213L12.5001 17.4142L13.9143 16Z" fill="white"/>
<path d="M9.5 6L16 14L22.5 6H9.5Z" fill="white"/>
<rect x="13.5" y="2" width="5" height="5" fill="white"/>
</svg>
