<svg width="64" height="64" viewBox="0 0 64 64" fill="none" xmlns="http://www.w3.org/2000/svg">
<g clip-path="url(#clip0_1967:19047)">
<path fill-rule="evenodd" clip-rule="evenodd" d="M64 6.92249H18.0735C16.748 6.92249 15.6735 7.997 15.6735 9.32249V17.4447L21.2621 22.867L17.4009 26.6134H28.7347V37.3864H17.4009L21.2621 41.1328L15.6735 46.5551V47.4776C15.6735 52.7795 19.9715 57.0776 25.2735 57.0776H64V6.92249ZM17.5107 41.1328L17.5108 41.1328L15.6735 39.3501V39.3503L10.9571 34.7743H26.1224V29.2258H26.1224V29.2256H15.6735V29.2258H10.9571L17.5108 22.8672L17.5107 22.8671L17.5108 22.867L15.6735 21.0844V21.0845L13.4619 18.9388L0 32L13.4619 45.0613L17.5108 41.1329L17.5107 41.1328ZM54.857 22.596C54.857 23.4616 55.5588 24.1633 56.4244 24.1633C57.29 24.1633 57.9917 23.4616 57.9917 22.596C57.9917 21.7304 57.29 21.0286 56.4244 21.0286C55.5588 21.0286 54.857 21.7304 54.857 22.596ZM56.4244 30.4328C55.5588 30.4328 54.857 29.7311 54.857 28.8654C54.857 27.9998 55.5588 27.2981 56.4244 27.2981C57.29 27.2981 57.9917 27.9998 57.9917 28.8654C57.9917 29.7311 57.29 30.4328 56.4244 30.4328ZM54.857 35.1347C54.857 36.0004 55.5588 36.7021 56.4244 36.7021C57.29 36.7021 57.9917 36.0004 57.9917 35.1347C57.9917 34.2691 57.29 33.5674 56.4244 33.5674C55.5588 33.5674 54.857 34.2691 54.857 35.1347ZM56.4244 42.9714C55.5588 42.9714 54.857 42.2697 54.857 41.404C54.857 40.5384 55.5588 39.8367 56.4244 39.8367C57.29 39.8367 57.9917 40.5384 57.9917 41.404C57.9917 42.2697 57.29 42.9714 56.4244 42.9714ZM54.857 47.6735C54.857 48.5391 55.5588 49.2408 56.4244 49.2408C57.29 49.2408 57.9917 48.5391 57.9917 47.6735C57.9917 46.8079 57.29 46.1062 56.4244 46.1062C55.5588 46.1062 54.857 46.8079 54.857 47.6735ZM50.1552 24.1633C49.2896 24.1633 48.5879 23.4616 48.5879 22.596C48.5879 21.7304 49.2896 21.0286 50.1552 21.0286C51.0208 21.0286 51.7226 21.7304 51.7226 22.596C51.7226 23.4616 51.0208 24.1633 50.1552 24.1633ZM42.3181 22.596C42.3181 23.4616 43.0198 24.1633 43.8855 24.1633C44.7511 24.1633 45.4528 23.4616 45.4528 22.596C45.4528 21.7304 44.7511 21.0286 43.8855 21.0286C43.0198 21.0286 42.3181 21.7304 42.3181 22.596ZM50.1552 30.4328C49.2896 30.4328 48.5879 29.7311 48.5879 28.8654C48.5879 27.9998 49.2896 27.2981 50.1552 27.2981C51.0208 27.2981 51.7226 27.9998 51.7226 28.8654C51.7226 29.7311 51.0208 30.4328 50.1552 30.4328ZM42.3181 28.8654C42.3181 29.7311 43.0198 30.4328 43.8855 30.4328C44.7511 30.4328 45.4528 29.7311 45.4528 28.8654C45.4528 27.9998 44.7511 27.2981 43.8855 27.2981C43.0198 27.2981 42.3181 27.9998 42.3181 28.8654ZM50.1552 36.7021C49.2896 36.7021 48.5879 36.0004 48.5879 35.1347C48.5879 34.2691 49.2896 33.5674 50.1552 33.5674C51.0208 33.5674 51.7226 34.2691 51.7226 35.1347C51.7226 36.0004 51.0208 36.7021 50.1552 36.7021ZM48.5879 41.404C48.5879 42.2697 49.2896 42.9714 50.1552 42.9714C51.0208 42.9714 51.7226 42.2697 51.7226 41.404C51.7226 40.5384 51.0208 39.8367 50.1552 39.8367C49.2896 39.8367 48.5879 40.5384 48.5879 41.404ZM50.1552 49.2408C49.2896 49.2408 48.5879 48.5391 48.5879 47.6735C48.5879 46.8079 49.2896 46.1062 50.1552 46.1062C51.0208 46.1062 51.7226 46.8079 51.7226 47.6735C51.7226 48.5391 51.0208 49.2408 50.1552 49.2408ZM42.3181 35.1347C42.3181 36.0004 43.0198 36.7021 43.8855 36.7021C44.7511 36.7021 45.4528 36.0004 45.4528 35.1347C45.4528 34.2691 44.7511 33.5674 43.8855 33.5674C43.0198 33.5674 42.3181 34.2691 42.3181 35.1347ZM43.8855 42.9714C43.0198 42.9714 42.3181 42.2697 42.3181 41.404C42.3181 40.5384 43.0198 39.8367 43.8855 39.8367C44.7511 39.8367 45.4528 40.5384 45.4528 41.404C45.4528 42.2697 44.7511 42.9714 43.8855 42.9714ZM42.3181 47.6735C42.3181 48.5391 43.0198 49.2408 43.8855 49.2408C44.7511 49.2408 45.4528 48.5391 45.4528 47.6735C45.4528 46.8079 44.7511 46.1062 43.8855 46.1062C43.0198 46.1062 42.3181 46.8079 42.3181 47.6735ZM37.6163 42.9714C36.7507 42.9714 36.049 42.2697 36.049 41.404C36.049 40.5384 36.7507 39.8367 37.6163 39.8367C38.4819 39.8367 39.1837 40.5384 39.1837 41.404C39.1837 42.2697 38.4819 42.9714 37.6163 42.9714ZM36.049 47.6735C36.049 48.5391 36.7507 49.2408 37.6163 49.2408C38.4819 49.2408 39.1837 48.5391 39.1837 47.6735C39.1837 46.8079 38.4819 46.1062 37.6163 46.1062C36.7507 46.1062 36.049 46.8079 36.049 47.6735ZM31.3472 49.2408C30.4815 49.2408 29.7798 48.5391 29.7798 47.6735C29.7798 46.8079 30.4815 46.1062 31.3472 46.1062C32.2128 46.1062 32.9145 46.8079 32.9145 47.6735C32.9145 48.5391 32.2128 49.2408 31.3472 49.2408Z" fill="white"/>
</g>
<defs>
<clipPath id="clip0_1967:19047">
<rect width="64" height="64" fill="white"/>
</clipPath>
</defs>
</svg>
