<svg width="64" height="64" viewBox="0 0 64 64" fill="none" xmlns="http://www.w3.org/2000/svg">
<g clip-path="url(#clip0_1967:18777)">
<path fill-rule="evenodd" clip-rule="evenodd" d="M62 14.035C63.1046 14.035 64 14.9305 64 16.035V41.9649C64 46.3831 60.4183 49.9649 56 49.9649H9.12281C4.70453 49.9649 1.12281 46.3831 1.12281 41.9649V36.2183L11.5725 46.3569L18.2779 39.851L14.9586 36.6305H24.7017V27.3695H14.9586L18.2779 24.1489L11.5725 17.643L1.12281 27.7817V16.035C1.12281 14.9305 2.01824 14.035 3.12281 14.035H62ZM11.5725 43.228L1.12281 33.0894V33.0893L0 31.9999L1.12281 30.9105L11.5725 20.7719L11.5725 20.7719L15.0531 24.1489L9.41928 29.615H22.4561V34.3848H22.4561V34.3849H9.41931L15.0531 39.851L15.0531 39.851L11.5725 43.228L11.5725 43.228ZM57.2631 26.386C56.643 26.386 56.1403 25.8833 56.1403 25.2632C56.1403 24.6431 56.643 24.1404 57.2631 24.1404C57.8832 24.1404 58.3859 24.6431 58.3859 25.2632C58.3859 25.8833 57.8832 26.386 57.2631 26.386ZM56.1403 29.7545C56.1403 30.3746 56.643 30.8773 57.2631 30.8773C57.8832 30.8773 58.3859 30.3746 58.3859 29.7545C58.3859 29.1343 57.8832 28.6316 57.2631 28.6316C56.643 28.6316 56.1403 29.1343 56.1403 29.7545ZM57.2631 35.3684C56.643 35.3684 56.1403 34.8657 56.1403 34.2456C56.1403 33.6255 56.643 33.1228 57.2631 33.1228C57.8832 33.1228 58.3859 33.6255 58.3859 34.2456C58.3859 34.8657 57.8832 35.3684 57.2631 35.3684ZM56.1403 38.7369C56.1403 39.357 56.643 39.8597 57.2631 39.8597C57.8832 39.8597 58.3859 39.357 58.3859 38.7369C58.3859 38.1168 57.8832 37.6141 57.2631 37.6141C56.643 37.6141 56.1403 38.1168 56.1403 38.7369ZM57.2631 44.3508C56.643 44.3508 56.1403 43.8481 56.1403 43.228C56.1403 42.6079 56.643 42.1052 57.2631 42.1052C57.8832 42.1052 58.3859 42.6079 58.3859 43.228C58.3859 43.8481 57.8832 44.3508 57.2631 44.3508ZM51.6492 25.2632C51.6492 25.8833 52.1519 26.386 52.772 26.386C53.3921 26.386 53.8948 25.8833 53.8948 25.2632C53.8948 24.6431 53.3921 24.1404 52.772 24.1404C52.1519 24.1404 51.6492 24.6431 51.6492 25.2632ZM48.2807 26.386C47.6606 26.386 47.1579 25.8833 47.1579 25.2632C47.1579 24.6431 47.6606 24.1404 48.2807 24.1404C48.9008 24.1404 49.4035 24.6431 49.4035 25.2632C49.4035 25.8833 48.9008 26.386 48.2807 26.386ZM42.6666 25.2632C42.6666 25.8833 43.1693 26.386 43.7894 26.386C44.4095 26.386 44.9122 25.8833 44.9122 25.2632C44.9122 24.6431 44.4095 24.1404 43.7894 24.1404C43.1693 24.1404 42.6666 24.6431 42.6666 25.2632ZM39.2983 26.386C38.6782 26.386 38.1755 25.8833 38.1755 25.2632C38.1755 24.6431 38.6782 24.1404 39.2983 24.1404C39.9184 24.1404 40.4211 24.6431 40.4211 25.2632C40.4211 25.8833 39.9184 26.386 39.2983 26.386ZM33.6842 25.2632C33.6842 25.8833 34.1869 26.386 34.807 26.386C35.4271 26.386 35.9298 25.8833 35.9298 25.2632C35.9298 24.6431 35.4271 24.1404 34.807 24.1404C34.1869 24.1404 33.6842 24.6431 33.6842 25.2632ZM52.772 30.8773C52.1519 30.8773 51.6492 30.3746 51.6492 29.7545C51.6492 29.1343 52.1519 28.6316 52.772 28.6316C53.3921 28.6316 53.8948 29.1343 53.8948 29.7545C53.8948 30.3746 53.3921 30.8773 52.772 30.8773ZM47.1579 29.7545C47.1579 30.3746 47.6606 30.8773 48.2807 30.8773C48.9008 30.8773 49.4035 30.3746 49.4035 29.7545C49.4035 29.1343 48.9008 28.6316 48.2807 28.6316C47.6606 28.6316 47.1579 29.1343 47.1579 29.7545ZM43.7894 30.8773C43.1693 30.8773 42.6666 30.3746 42.6666 29.7545C42.6666 29.1343 43.1693 28.6316 43.7894 28.6316C44.4095 28.6316 44.9122 29.1343 44.9122 29.7545C44.9122 30.3746 44.4095 30.8773 43.7894 30.8773ZM38.1755 29.7545C38.1755 30.3746 38.6782 30.8773 39.2983 30.8773C39.9184 30.8773 40.4211 30.3746 40.4211 29.7545C40.4211 29.1343 39.9184 28.6316 39.2983 28.6316C38.6782 28.6316 38.1755 29.1343 38.1755 29.7545ZM34.807 30.8773C34.1869 30.8773 33.6842 30.3746 33.6842 29.7545C33.6842 29.1343 34.1869 28.6316 34.807 28.6316C35.4271 28.6316 35.9298 29.1343 35.9298 29.7545C35.9298 30.3746 35.4271 30.8773 34.807 30.8773ZM51.6492 34.2456C51.6492 34.8657 52.1519 35.3684 52.772 35.3684C53.3921 35.3684 53.8948 34.8657 53.8948 34.2456C53.8948 33.6255 53.3921 33.1228 52.772 33.1228C52.1519 33.1228 51.6492 33.6255 51.6492 34.2456ZM52.772 39.8597C52.1519 39.8597 51.6492 39.357 51.6492 38.7369C51.6492 38.1168 52.1519 37.6141 52.772 37.6141C53.3921 37.6141 53.8948 38.1168 53.8948 38.7369C53.8948 39.357 53.3921 39.8597 52.772 39.8597ZM51.6492 43.228C51.6492 43.8481 52.1519 44.3508 52.772 44.3508C53.3921 44.3508 53.8948 43.8481 53.8948 43.228C53.8948 42.6079 53.3921 42.1052 52.772 42.1052C52.1519 42.1052 51.6492 42.6079 51.6492 43.228ZM48.2807 35.3684C47.6606 35.3684 47.1579 34.8657 47.1579 34.2456C47.1579 33.6255 47.6606 33.1228 48.2807 33.1228C48.9008 33.1228 49.4035 33.6255 49.4035 34.2456C49.4035 34.8657 48.9008 35.3684 48.2807 35.3684ZM47.1579 38.7369C47.1579 39.357 47.6606 39.8597 48.2807 39.8597C48.9008 39.8597 49.4035 39.357 49.4035 38.7369C49.4035 38.1168 48.9008 37.6141 48.2807 37.6141C47.6606 37.6141 47.1579 38.1168 47.1579 38.7369ZM48.2807 44.3508C47.6606 44.3508 47.1579 43.8481 47.1579 43.228C47.1579 42.6079 47.6606 42.1052 48.2807 42.1052C48.9008 42.1052 49.4035 42.6079 49.4035 43.228C49.4035 43.8481 48.9008 44.3508 48.2807 44.3508ZM42.6666 34.2456C42.6666 34.8657 43.1693 35.3684 43.7894 35.3684C44.4095 35.3684 44.9122 34.8657 44.9122 34.2456C44.9122 33.6255 44.4095 33.1228 43.7894 33.1228C43.1693 33.1228 42.6666 33.6255 42.6666 34.2456ZM43.7894 39.8597C43.1693 39.8597 42.6666 39.357 42.6666 38.7369C42.6666 38.1168 43.1693 37.6141 43.7894 37.6141C44.4095 37.6141 44.9122 38.1168 44.9122 38.7369C44.9122 39.357 44.4095 39.8597 43.7894 39.8597ZM42.6666 43.228C42.6666 43.8481 43.1693 44.3508 43.7894 44.3508C44.4095 44.3508 44.9122 43.8481 44.9122 43.228C44.9122 42.6079 44.4095 42.1052 43.7894 42.1052C43.1693 42.1052 42.6666 42.6079 42.6666 43.228ZM39.2983 35.3684C38.6782 35.3684 38.1755 34.8657 38.1755 34.2456C38.1755 33.6255 38.6782 33.1228 39.2983 33.1228C39.9184 33.1228 40.4211 33.6255 40.4211 34.2456C40.4211 34.8657 39.9184 35.3684 39.2983 35.3684ZM38.1755 38.7369C38.1755 39.357 38.6782 39.8597 39.2983 39.8597C39.9184 39.8597 40.4211 39.357 40.4211 38.7369C40.4211 38.1168 39.9184 37.6141 39.2983 37.6141C38.6782 37.6141 38.1755 38.1168 38.1755 38.7369ZM30.3157 39.8597C29.6956 39.8597 29.1929 39.357 29.1929 38.7369C29.1929 38.1168 29.6956 37.6141 30.3157 37.6141C30.9358 37.6141 31.4385 38.1168 31.4385 38.7369C31.4385 39.357 30.9358 39.8597 30.3157 39.8597ZM38.1755 43.228C38.1755 43.8481 38.6782 44.3508 39.2983 44.3508C39.9184 44.3508 40.4211 43.8481 40.4211 43.228C40.4211 42.6079 39.9184 42.1052 39.2983 42.1052C38.6782 42.1052 38.1755 42.6079 38.1755 43.228ZM30.3157 44.3508C29.6956 44.3508 29.1929 43.8481 29.1929 43.228C29.1929 42.6079 29.6956 42.1052 30.3157 42.1052C30.9358 42.1052 31.4385 42.6079 31.4385 43.228C31.4385 43.8481 30.9358 44.3508 30.3157 44.3508ZM33.6842 34.2456C33.6842 34.8657 34.1869 35.3684 34.807 35.3684C35.4271 35.3684 35.9298 34.8657 35.9298 34.2456C35.9298 33.6255 35.4271 33.1228 34.807 33.1228C34.1869 33.1228 33.6842 33.6255 33.6842 34.2456ZM34.807 39.8597C34.1869 39.8597 33.6842 39.357 33.6842 38.7369C33.6842 38.1168 34.1869 37.6141 34.807 37.6141C35.4271 37.6141 35.9298 38.1168 35.9298 38.7369C35.9298 39.357 35.4271 39.8597 34.807 39.8597ZM33.6842 43.228C33.6842 43.8481 34.1869 44.3508 34.807 44.3508C35.4271 44.3508 35.9298 43.8481 35.9298 43.228C35.9298 42.6079 35.4271 42.1052 34.807 42.1052C34.1869 42.1052 33.6842 42.6079 33.6842 43.228ZM25.8246 44.3508C25.2045 44.3508 24.7018 43.8481 24.7018 43.228C24.7018 42.6079 25.2045 42.1052 25.8246 42.1052C26.4447 42.1052 26.9474 42.6079 26.9474 43.228C26.9474 43.8481 26.4447 44.3508 25.8246 44.3508Z" fill="white"/>
</g>
<defs>
<clipPath id="clip0_1967:18777">
<rect width="64" height="64" fill="white"/>
</clipPath>
</defs>
</svg>
