<svg width="64" height="64" viewBox="0 0 64 64" fill="none" xmlns="http://www.w3.org/2000/svg">
<path fill-rule="evenodd" clip-rule="evenodd" d="M2 2H62L41.6006 22.3994C40.7771 22.1687 39.8469 22.0533 38.81 22.0533C37.7523 22.0533 36.7567 22.1933 35.8234 22.4733C34.9056 22.7533 34.0734 23.1344 33.3267 23.6167L34.6334 26.6033C35.1156 26.3078 35.66 26.0744 36.2667 25.9033C36.8734 25.7167 37.4878 25.6233 38.11 25.6233C38.1986 25.6233 38.2854 25.6254 38.3705 25.6295L28.9733 35.0267H22.6738V22.3333H18.6371V38.6667H25.3333L10.7868 53.2132C5.35786 47.7843 2 40.2843 2 32V2Z" fill="white"/>
<path opacity="0.5" fill-rule="evenodd" clip-rule="evenodd" d="M25.3332 38.6667L10.7866 53.2132C16.2156 58.6421 23.7156 62 31.9998 62C48.5684 62 61.9998 48.5685 61.9998 32V2L41.6005 22.3994C42.3338 22.6048 42.9825 22.9017 43.5467 23.29C44.7445 24.0989 45.3434 25.2967 45.3434 26.8833C45.3434 27.9722 45.0323 28.9678 44.41 29.87C43.8034 30.7567 42.8623 31.7133 41.5867 32.74L38.5067 35.19H45.8334V38.6667H33.3967V35.3533L38.11 31.5267C38.8412 30.92 39.3934 30.4378 39.7667 30.08C40.14 29.7222 40.4278 29.3567 40.63 28.9833C40.8478 28.61 40.9567 28.1978 40.9567 27.7467C40.9567 27.0467 40.6845 26.5178 40.14 26.16C39.6679 25.8406 39.078 25.6638 38.3703 25.6295L28.9732 35.0267H30.0705V38.6667H25.3332Z" fill="white"/>
</svg>
