<svg width="32" height="32" viewBox="0 0 32 32" fill="none" xmlns="http://www.w3.org/2000/svg">
<path fill-rule="evenodd" clip-rule="evenodd" d="M0 8C0 7.44772 0.447715 7 1 7H31C31.5523 7 32 7.44772 32 8V13.8105L27.7877 9.30433L25.4764 11.773L23.1657 9.30103L19.9478 12.7574L22.9893 16.0059L19.9441 19.2514L23.167 22.6938L25.4749 20.2327L27.7891 22.6905L32 18.1999V21.2857C32 23.4949 30.2091 25.2857 28 25.2857H4C1.79086 25.2857 0 23.4949 0 21.2857V18.1999L4.21094 22.6905L6.52514 20.2327L8.83298 22.6938L12.0559 19.2514L9.01071 16.0059L12.0522 12.7574L8.83435 9.30103L6.5236 11.773L4.21233 9.30433L0 13.8105V8ZM15.4286 12.5714C15.4286 12.887 15.1728 13.1428 14.8572 13.1428C14.5416 13.1428 14.2858 12.887 14.2858 12.5714C14.2858 12.2558 14.5416 12 14.8572 12C15.1728 12 15.4286 12.2558 15.4286 12.5714ZM14.8572 15.4286C15.1728 15.4286 15.4286 15.1727 15.4286 14.8571C15.4286 14.5416 15.1728 14.2857 14.8572 14.2857C14.5416 14.2857 14.2858 14.5416 14.2858 14.8571C14.2858 15.1727 14.5416 15.4286 14.8572 15.4286ZM15.4286 17.1428C15.4286 17.4584 15.1728 17.7142 14.8572 17.7142C14.5416 17.7142 14.2858 17.4584 14.2858 17.1428C14.2858 16.8272 14.5416 16.5714 14.8572 16.5714C15.1728 16.5714 15.4286 16.8272 15.4286 17.1428ZM14.8572 20C15.1728 20 15.4286 19.7441 15.4286 19.4285C15.4286 19.113 15.1728 18.8571 14.8572 18.8571C14.5416 18.8571 14.2858 19.113 14.2858 19.4285C14.2858 19.7441 14.5416 20 14.8572 20ZM15.4286 21.7143C15.4286 22.0299 15.1728 22.2857 14.8572 22.2857C14.5416 22.2857 14.2858 22.0299 14.2858 21.7143C14.2858 21.3987 14.5416 21.1429 14.8572 21.1429C15.1728 21.1429 15.4286 21.3987 15.4286 21.7143ZM17.1428 13.1428C17.4584 13.1428 17.7143 12.887 17.7143 12.5714C17.7143 12.2558 17.4584 12 17.1428 12C16.8272 12 16.5714 12.2558 16.5714 12.5714C16.5714 12.887 16.8272 13.1428 17.1428 13.1428ZM17.7143 14.8571C17.7143 15.1727 17.4584 15.4286 17.1428 15.4286C16.8272 15.4286 16.5714 15.1727 16.5714 14.8571C16.5714 14.5416 16.8272 14.2857 17.1428 14.2857C17.4584 14.2857 17.7143 14.5416 17.7143 14.8571ZM17.1428 17.7142C17.4584 17.7142 17.7143 17.4584 17.7143 17.1428C17.7143 16.8272 17.4584 16.5714 17.1428 16.5714C16.8272 16.5714 16.5714 16.8272 16.5714 17.1428C16.5714 17.4584 16.8272 17.7142 17.1428 17.7142ZM17.7143 19.4285C17.7143 19.7441 17.4584 20 17.1428 20C16.8272 20 16.5714 19.7441 16.5714 19.4285C16.5714 19.113 16.8272 18.8571 17.1428 18.8571C17.4584 18.8571 17.7143 19.113 17.7143 19.4285ZM17.1428 22.2857C17.4584 22.2857 17.7143 22.0299 17.7143 21.7143C17.7143 21.3987 17.4584 21.1429 17.1428 21.1429C16.8272 21.1429 16.5714 21.3987 16.5714 21.7143C16.5714 22.0299 16.8272 22.2857 17.1428 22.2857ZM6.95485 16.007L10 19.2525L8.83212 20.5L4.61899 16.007L8.83212 11.5L10 12.7545L6.95485 16.007ZM4.95911e-05 16.007L4.21318 20.5L5.38111 19.2596L2.33591 16.007L5.38111 12.7474L4.21318 11.5L4.95911e-05 16.007ZM22 19.2525L25.0451 16.007L22 12.7545L23.1679 11.5L27.381 16.007L23.1679 20.5L22 19.2525ZM27.7868 20.5L32 16.007L27.7868 11.5L26.6189 12.7474L29.6641 16.007L26.6189 19.2596L27.7868 20.5Z" fill="white"/>
</svg>
