<svg width="32" height="32" viewBox="0 0 32 32" fill="none" xmlns="http://www.w3.org/2000/svg">
<path fill-rule="evenodd" clip-rule="evenodd" d="M0 7.85718C0 7.30489 0.447715 6.85718 1 6.85718H31C31.5523 6.85718 32 7.30489 32 7.85718V21.1429C32 23.352 30.2091 25.1429 28 25.1429H4C1.79086 25.1429 0 23.352 0 21.1429V7.85718ZM20 12.5714C20 12.887 19.7442 13.1429 19.4286 13.1429C19.113 13.1429 18.8572 12.887 18.8572 12.5714C18.8572 12.2558 19.113 12 19.4286 12C19.7442 12 20 12.2558 20 12.5714ZM21.7143 13.1429C22.0298 13.1429 22.2857 12.887 22.2857 12.5714C22.2857 12.2558 22.0298 12 21.7143 12C21.3987 12 21.1428 12.2558 21.1428 12.5714C21.1428 12.887 21.3987 13.1429 21.7143 13.1429ZM24.5714 12.5714C24.5714 12.887 24.3156 13.1429 24 13.1429C23.6844 13.1429 23.4286 12.887 23.4286 12.5714C23.4286 12.2558 23.6844 12 24 12C24.3156 12 24.5714 12.2558 24.5714 12.5714ZM26.2858 13.1429C26.6014 13.1429 26.8572 12.887 26.8572 12.5714C26.8572 12.2558 26.6014 12 26.2858 12C25.9702 12 25.7144 12.2558 25.7144 12.5714C25.7144 12.887 25.9702 13.1429 26.2858 13.1429ZM29.1429 12.5714C29.1429 12.887 28.887 13.1429 28.5714 13.1429C28.2558 13.1429 28 12.887 28 12.5714C28 12.2558 28.2558 12 28.5714 12C28.887 12 29.1429 12.2558 29.1429 12.5714ZM19.4286 15.4285C19.7442 15.4285 20 15.1727 20 14.8571C20 14.5415 19.7442 14.2856 19.4286 14.2856C19.113 14.2856 18.8572 14.5415 18.8572 14.8571C18.8572 15.1727 19.113 15.4285 19.4286 15.4285ZM22.2857 14.8571C22.2857 15.1727 22.0298 15.4285 21.7143 15.4285C21.3987 15.4285 21.1428 15.1727 21.1428 14.8571C21.1428 14.5415 21.3987 14.2856 21.7143 14.2856C22.0298 14.2856 22.2857 14.5415 22.2857 14.8571ZM24 15.4285C24.3156 15.4285 24.5714 15.1727 24.5714 14.8571C24.5714 14.5415 24.3156 14.2856 24 14.2856C23.6844 14.2856 23.4286 14.5415 23.4286 14.8571C23.4286 15.1727 23.6844 15.4285 24 15.4285ZM26.8572 14.8571C26.8572 15.1727 26.6014 15.4285 26.2858 15.4285C25.9702 15.4285 25.7144 15.1727 25.7144 14.8571C25.7144 14.5415 25.9702 14.2856 26.2858 14.2856C26.6014 14.2856 26.8572 14.5415 26.8572 14.8571ZM28.5714 15.4285C28.887 15.4285 29.1429 15.1727 29.1429 14.8571C29.1429 14.5415 28.887 14.2856 28.5714 14.2856C28.2558 14.2856 28 14.5415 28 14.8571C28 15.1727 28.2558 15.4285 28.5714 15.4285ZM20 17.1428C20 17.4584 19.7442 17.7143 19.4286 17.7143C19.113 17.7143 18.8572 17.4584 18.8572 17.1428C18.8572 16.8272 19.113 16.5714 19.4286 16.5714C19.7442 16.5714 20 16.8272 20 17.1428ZM19.4286 20C19.7442 20 20 19.7442 20 19.4286C20 19.113 19.7442 18.8572 19.4286 18.8572C19.113 18.8572 18.8572 19.113 18.8572 19.4286C18.8572 19.7442 19.113 20 19.4286 20ZM20 21.7143C20 22.0298 19.7442 22.2857 19.4286 22.2857C19.113 22.2857 18.8572 22.0298 18.8572 21.7143C18.8572 21.3987 19.113 21.1428 19.4286 21.1428C19.7442 21.1428 20 21.3987 20 21.7143ZM21.7143 17.7143C22.0298 17.7143 22.2857 17.4584 22.2857 17.1428C22.2857 16.8272 22.0298 16.5714 21.7143 16.5714C21.3987 16.5714 21.1428 16.8272 21.1428 17.1428C21.1428 17.4584 21.3987 17.7143 21.7143 17.7143ZM22.2857 19.4286C22.2857 19.7442 22.0298 20 21.7143 20C21.3987 20 21.1428 19.7442 21.1428 19.4286C21.1428 19.113 21.3987 18.8572 21.7143 18.8572C22.0298 18.8572 22.2857 19.113 22.2857 19.4286ZM21.7143 22.2857C22.0298 22.2857 22.2857 22.0298 22.2857 21.7143C22.2857 21.3987 22.0298 21.1428 21.7143 21.1428C21.3987 21.1428 21.1428 21.3987 21.1428 21.7143C21.1428 22.0298 21.3987 22.2857 21.7143 22.2857ZM24.5714 17.1428C24.5714 17.4584 24.3156 17.7143 24 17.7143C23.6844 17.7143 23.4286 17.4584 23.4286 17.1428C23.4286 16.8272 23.6844 16.5714 24 16.5714C24.3156 16.5714 24.5714 16.8272 24.5714 17.1428ZM24 20C24.3156 20 24.5714 19.7442 24.5714 19.4286C24.5714 19.113 24.3156 18.8572 24 18.8572C23.6844 18.8572 23.4286 19.113 23.4286 19.4286C23.4286 19.7442 23.6844 20 24 20ZM24.5714 21.7143C24.5714 22.0298 24.3156 22.2857 24 22.2857C23.6844 22.2857 23.4286 22.0298 23.4286 21.7143C23.4286 21.3987 23.6844 21.1428 24 21.1428C24.3156 21.1428 24.5714 21.3987 24.5714 21.7143ZM26.2858 17.7143C26.6014 17.7143 26.8572 17.4584 26.8572 17.1428C26.8572 16.8272 26.6014 16.5714 26.2858 16.5714C25.9702 16.5714 25.7144 16.8272 25.7144 17.1428C25.7144 17.4584 25.9702 17.7143 26.2858 17.7143ZM26.8572 19.4286C26.8572 19.7442 26.6014 20 26.2858 20C25.9702 20 25.7144 19.7442 25.7144 19.4286C25.7144 19.113 25.9702 18.8572 26.2858 18.8572C26.6014 18.8572 26.8572 19.113 26.8572 19.4286ZM26.2858 22.2857C26.6014 22.2857 26.8572 22.0298 26.8572 21.7143C26.8572 21.3987 26.6014 21.1428 26.2858 21.1428C25.9702 21.1428 25.7144 21.3987 25.7144 21.7143C25.7144 22.0298 25.9702 22.2857 26.2858 22.2857ZM29.1429 17.1428C29.1429 17.4584 28.887 17.7143 28.5714 17.7143C28.2558 17.7143 28 17.4584 28 17.1428C28 16.8272 28.2558 16.5714 28.5714 16.5714C28.887 16.5714 29.1429 16.8272 29.1429 17.1428ZM28.5714 20C28.887 20 29.1429 19.7442 29.1429 19.4286C29.1429 19.113 28.887 18.8572 28.5714 18.8572C28.2558 18.8572 28 19.113 28 19.4286C28 19.7442 28.2558 20 28.5714 20ZM29.1429 21.7143C29.1429 22.0298 28.887 22.2857 28.5714 22.2857C28.2558 22.2857 28 22.0298 28 21.7143C28 21.3987 28.2558 21.1428 28.5714 21.1428C28.887 21.1428 29.1429 21.3987 29.1429 21.7143ZM4.14282 9H13C14.1045 9 15 9.89543 15 11V21C15 22.1046 14.1045 23 13 23H4.14282C3.03825 23 2.14282 22.1046 2.14282 21V11C2.14282 9.89543 3.03825 9 4.14282 9ZM1.14282 11C1.14282 9.34315 2.48597 8 4.14282 8H13C14.6568 8 16 9.34315 16 11V21C16 22.6569 14.6568 24 13 24H4.14282C2.48597 24 1.14282 22.6569 1.14282 21V11Z" fill="white"/>
</svg>
