<svg width="64" height="64" viewBox="0 0 64 64" fill="none" xmlns="http://www.w3.org/2000/svg">
<g clip-path="url(#clip0_1967:15445)">
<path fill-rule="evenodd" clip-rule="evenodd" d="M64 15.7142C64 14.6097 63.1046 13.7142 62 13.7142H2C0.895431 13.7142 0 14.6097 0 15.7142V42.2857C0 46.7039 3.58172 50.2857 8 50.2857H56C60.4183 50.2857 64 46.7039 64 42.2857V15.7142ZM24 25.1428C24 25.774 24.5117 26.2857 25.1429 26.2857C25.774 26.2857 26.2857 25.774 26.2857 25.1428C26.2857 24.5116 25.774 23.9999 25.1429 23.9999C24.5117 23.9999 24 24.5116 24 25.1428ZM20.5714 26.2857C19.9402 26.2857 19.4286 25.774 19.4286 25.1428C19.4286 24.5116 19.9402 23.9999 20.5714 23.9999C21.2026 23.9999 21.7143 24.5116 21.7143 25.1428C21.7143 25.774 21.2026 26.2857 20.5714 26.2857ZM14.8571 25.1428C14.8571 25.774 15.3688 26.2857 16 26.2857C16.6312 26.2857 17.1429 25.774 17.1429 25.1428C17.1429 24.5116 16.6312 23.9999 16 23.9999C15.3688 23.9999 14.8571 24.5116 14.8571 25.1428ZM11.4286 26.2857C10.7974 26.2857 10.2857 25.774 10.2857 25.1428C10.2857 24.5116 10.7974 23.9999 11.4286 23.9999C12.0598 23.9999 12.5714 24.5116 12.5714 25.1428C12.5714 25.774 12.0598 26.2857 11.4286 26.2857ZM5.71429 25.1428C5.71429 25.774 6.22596 26.2857 6.85715 26.2857C7.48833 26.2857 8 25.774 8 25.1428C8 24.5116 7.48833 23.9999 6.85715 23.9999C6.22596 23.9999 5.71429 24.5116 5.71429 25.1428ZM25.1429 30.8571C24.5117 30.8571 24 30.3454 24 29.7142C24 29.0831 24.5117 28.5714 25.1429 28.5714C25.774 28.5714 26.2857 29.0831 26.2857 29.7142C26.2857 30.3454 25.774 30.8571 25.1429 30.8571ZM19.4286 29.7142C19.4286 30.3454 19.9402 30.8571 20.5714 30.8571C21.2026 30.8571 21.7143 30.3454 21.7143 29.7142C21.7143 29.0831 21.2026 28.5714 20.5714 28.5714C19.9402 28.5714 19.4286 29.0831 19.4286 29.7142ZM16 30.8571C15.3688 30.8571 14.8571 30.3454 14.8571 29.7142C14.8571 29.0831 15.3688 28.5714 16 28.5714C16.6312 28.5714 17.1429 29.0831 17.1429 29.7142C17.1429 30.3454 16.6312 30.8571 16 30.8571ZM10.2857 29.7142C10.2857 30.3454 10.7974 30.8571 11.4286 30.8571C12.0598 30.8571 12.5714 30.3454 12.5714 29.7142C12.5714 29.0831 12.0598 28.5714 11.4286 28.5714C10.7974 28.5714 10.2857 29.0831 10.2857 29.7142ZM6.85715 30.8571C6.22596 30.8571 5.71429 30.3454 5.71429 29.7142C5.71429 29.0831 6.22596 28.5714 6.85715 28.5714C7.48833 28.5714 8 29.0831 8 29.7142C8 30.3454 7.48833 30.8571 6.85715 30.8571ZM24 34.2857C24 34.9168 24.5117 35.4285 25.1429 35.4285C25.774 35.4285 26.2857 34.9168 26.2857 34.2857C26.2857 33.6545 25.774 33.1428 25.1429 33.1428C24.5117 33.1428 24 33.6545 24 34.2857ZM25.1429 39.9999C24.5117 39.9999 24 39.4883 24 38.8571C24 38.2259 24.5117 37.7142 25.1429 37.7142C25.774 37.7142 26.2857 38.2259 26.2857 38.8571C26.2857 39.4883 25.774 39.9999 25.1429 39.9999ZM24 43.4285C24 44.0597 24.5117 44.5714 25.1429 44.5714C25.774 44.5714 26.2857 44.0597 26.2857 43.4285C26.2857 42.7973 25.774 42.2857 25.1429 42.2857C24.5117 42.2857 24 42.7973 24 43.4285ZM20.5714 35.4285C19.9402 35.4285 19.4286 34.9168 19.4286 34.2857C19.4286 33.6545 19.9402 33.1428 20.5714 33.1428C21.2026 33.1428 21.7143 33.6545 21.7143 34.2857C21.7143 34.9168 21.2026 35.4285 20.5714 35.4285ZM19.4286 38.8571C19.4286 39.4883 19.9402 39.9999 20.5714 39.9999C21.2026 39.9999 21.7143 39.4883 21.7143 38.8571C21.7143 38.2259 21.2026 37.7142 20.5714 37.7142C19.9402 37.7142 19.4286 38.2259 19.4286 38.8571ZM20.5714 44.5714C19.9402 44.5714 19.4286 44.0597 19.4286 43.4285C19.4286 42.7973 19.9402 42.2857 20.5714 42.2857C21.2026 42.2857 21.7143 42.7973 21.7143 43.4285C21.7143 44.0597 21.2026 44.5714 20.5714 44.5714ZM14.8571 34.2857C14.8571 34.9168 15.3688 35.4285 16 35.4285C16.6312 35.4285 17.1429 34.9168 17.1429 34.2857C17.1429 33.6545 16.6312 33.1428 16 33.1428C15.3688 33.1428 14.8571 33.6545 14.8571 34.2857ZM16 39.9999C15.3688 39.9999 14.8571 39.4883 14.8571 38.8571C14.8571 38.2259 15.3688 37.7142 16 37.7142C16.6312 37.7142 17.1429 38.2259 17.1429 38.8571C17.1429 39.4883 16.6312 39.9999 16 39.9999ZM14.8571 43.4285C14.8571 44.0597 15.3688 44.5714 16 44.5714C16.6312 44.5714 17.1429 44.0597 17.1429 43.4285C17.1429 42.7973 16.6312 42.2857 16 42.2857C15.3688 42.2857 14.8571 42.7973 14.8571 43.4285ZM11.4286 35.4285C10.7974 35.4285 10.2857 34.9168 10.2857 34.2857C10.2857 33.6545 10.7974 33.1428 11.4286 33.1428C12.0598 33.1428 12.5714 33.6545 12.5714 34.2857C12.5714 34.9168 12.0598 35.4285 11.4286 35.4285ZM10.2857 38.8571C10.2857 39.4883 10.7974 39.9999 11.4286 39.9999C12.0598 39.9999 12.5714 39.4883 12.5714 38.8571C12.5714 38.2259 12.0598 37.7142 11.4286 37.7142C10.7974 37.7142 10.2857 38.2259 10.2857 38.8571ZM11.4286 44.5714C10.7974 44.5714 10.2857 44.0597 10.2857 43.4285C10.2857 42.7973 10.7974 42.2857 11.4286 42.2857C12.0598 42.2857 12.5714 42.7973 12.5714 43.4285C12.5714 44.0597 12.0598 44.5714 11.4286 44.5714ZM5.71429 34.2857C5.71429 34.9168 6.22596 35.4285 6.85715 35.4285C7.48833 35.4285 8 34.9168 8 34.2857C8 33.6545 7.48833 33.1428 6.85715 33.1428C6.22596 33.1428 5.71429 33.6545 5.71429 34.2857ZM6.85715 39.9999C6.22596 39.9999 5.71429 39.4883 5.71429 38.8571C5.71429 38.2259 6.22596 37.7142 6.85715 37.7142C7.48833 37.7142 8 38.2259 8 38.8571C8 39.4883 7.48833 39.9999 6.85715 39.9999ZM5.71429 43.4285C5.71429 44.0597 6.22596 44.5714 6.85715 44.5714C7.48833 44.5714 8 44.0597 8 43.4285C8 42.7973 7.48833 42.2857 6.85715 42.2857C6.22596 42.2857 5.71429 42.7973 5.71429 43.4285ZM55.7143 17.9999H38C35.7909 17.9999 34 19.7908 34 21.9999V42C34 44.2091 35.7909 45.9999 38 45.9999H55.7143C57.9234 45.9999 59.7143 44.2091 59.7143 42V21.9999C59.7143 19.7908 57.9234 17.9999 55.7143 17.9999ZM61.7143 21.9999C61.7143 18.6862 59.028 15.9999 55.7143 15.9999H38C34.6863 15.9999 32 18.6862 32 21.9999V42C32 45.3137 34.6863 47.9999 38 47.9999H55.7143C59.028 47.9999 61.7143 45.3137 61.7143 42V21.9999Z" fill="white"/>
</g>
<defs>
<clipPath id="clip0_1967:15445">
<rect width="64" height="64" fill="white"/>
</clipPath>
</defs>
</svg>
