<svg width="32" height="32" viewBox="0 0 32 32" fill="none" xmlns="http://www.w3.org/2000/svg">
<path fill-rule="evenodd" clip-rule="evenodd" d="M0 7.85718C0 7.30489 0.447715 6.85718 1 6.85718H31C31.5523 6.85718 32 7.30489 32 7.85718V21.1429C32 23.352 30.2091 25.1429 28 25.1429H4C1.79086 25.1429 0 23.352 0 21.1429V7.85718ZM17.7143 12.5714C17.7143 12.887 17.4584 13.1429 17.1428 13.1429C16.8272 13.1429 16.5714 12.887 16.5714 12.5714C16.5714 12.2558 16.8272 12 17.1428 12C17.4584 12 17.7143 12.2558 17.7143 12.5714ZM17.1428 15.4286C17.4584 15.4286 17.7143 15.1728 17.7143 14.8572C17.7143 14.5416 17.4584 14.2858 17.1428 14.2858C16.8272 14.2858 16.5714 14.5416 16.5714 14.8572C16.5714 15.1728 16.8272 15.4286 17.1428 15.4286ZM17.7143 17.1428C17.7143 17.4584 17.4584 17.7143 17.1428 17.7143C16.8272 17.7143 16.5714 17.4584 16.5714 17.1428C16.5714 16.8272 16.8272 16.5714 17.1428 16.5714C17.4584 16.5714 17.7143 16.8272 17.7143 17.1428ZM17.1428 20C17.4584 20 17.7143 19.7442 17.7143 19.4286C17.7143 19.113 17.4584 18.8572 17.1428 18.8572C16.8272 18.8572 16.5714 19.113 16.5714 19.4286C16.5714 19.7442 16.8272 20 17.1428 20ZM17.7143 21.7143C17.7143 22.0298 17.4584 22.2857 17.1428 22.2857C16.8272 22.2857 16.5714 22.0298 16.5714 21.7143C16.5714 21.3987 16.8272 21.1428 17.1428 21.1428C17.4584 21.1428 17.7143 21.3987 17.7143 21.7143ZM19.4286 13.1429C19.7442 13.1429 20 12.887 20 12.5714C20 12.2558 19.7442 12 19.4286 12C19.113 12 18.8572 12.2558 18.8572 12.5714C18.8572 12.887 19.113 13.1429 19.4286 13.1429ZM22.2857 12.5714C22.2857 12.887 22.0298 13.1429 21.7143 13.1429C21.3987 13.1429 21.1428 12.887 21.1428 12.5714C21.1428 12.2558 21.3987 12 21.7143 12C22.0298 12 22.2857 12.2558 22.2857 12.5714ZM24 13.1429C24.3156 13.1429 24.5714 12.887 24.5714 12.5714C24.5714 12.2558 24.3156 12 24 12C23.6844 12 23.4286 12.2558 23.4286 12.5714C23.4286 12.887 23.6844 13.1429 24 13.1429ZM26.8571 12.5714C26.8571 12.887 26.6013 13.1429 26.2857 13.1429C25.9701 13.1429 25.7142 12.887 25.7142 12.5714C25.7142 12.2558 25.9701 12 26.2857 12C26.6013 12 26.8571 12.2558 26.8571 12.5714ZM28.5714 13.1429C28.887 13.1429 29.1429 12.887 29.1429 12.5714C29.1429 12.2558 28.887 12 28.5714 12C28.2558 12 28 12.2558 28 12.5714C28 12.887 28.2558 13.1429 28.5714 13.1429ZM20 14.8572C20 15.1728 19.7442 15.4286 19.4286 15.4286C19.113 15.4286 18.8572 15.1728 18.8572 14.8572C18.8572 14.5416 19.113 14.2858 19.4286 14.2858C19.7442 14.2858 20 14.5416 20 14.8572ZM21.7143 15.4286C22.0298 15.4286 22.2857 15.1728 22.2857 14.8572C22.2857 14.5416 22.0298 14.2858 21.7143 14.2858C21.3987 14.2858 21.1428 14.5416 21.1428 14.8572C21.1428 15.1728 21.3987 15.4286 21.7143 15.4286ZM24.5714 14.8572C24.5714 15.1728 24.3156 15.4286 24 15.4286C23.6844 15.4286 23.4286 15.1728 23.4286 14.8572C23.4286 14.5416 23.6844 14.2858 24 14.2858C24.3156 14.2858 24.5714 14.5416 24.5714 14.8572ZM26.2857 15.4286C26.6013 15.4286 26.8571 15.1728 26.8571 14.8572C26.8571 14.5416 26.6013 14.2858 26.2857 14.2858C25.9701 14.2858 25.7142 14.5416 25.7142 14.8572C25.7142 15.1728 25.9701 15.4286 26.2857 15.4286ZM29.1429 14.8572C29.1429 15.1728 28.887 15.4286 28.5714 15.4286C28.2558 15.4286 28 15.1728 28 14.8572C28 14.5416 28.2558 14.2858 28.5714 14.2858C28.887 14.2858 29.1429 14.5416 29.1429 14.8572ZM19.4286 17.7143C19.7442 17.7143 20 17.4584 20 17.1428C20 16.8272 19.7442 16.5714 19.4286 16.5714C19.113 16.5714 18.8572 16.8272 18.8572 17.1428C18.8572 17.4584 19.113 17.7143 19.4286 17.7143ZM20 19.4286C20 19.7442 19.7442 20 19.4286 20C19.113 20 18.8572 19.7442 18.8572 19.4286C18.8572 19.113 19.113 18.8572 19.4286 18.8572C19.7442 18.8572 20 19.113 20 19.4286ZM19.4286 22.2857C19.7442 22.2857 20 22.0298 20 21.7143C20 21.3987 19.7442 21.1428 19.4286 21.1428C19.113 21.1428 18.8572 21.3987 18.8572 21.7143C18.8572 22.0298 19.113 22.2857 19.4286 22.2857ZM22.2857 17.1428C22.2857 17.4584 22.0298 17.7143 21.7143 17.7143C21.3987 17.7143 21.1428 17.4584 21.1428 17.1428C21.1428 16.8272 21.3987 16.5714 21.7143 16.5714C22.0298 16.5714 22.2857 16.8272 22.2857 17.1428ZM21.7143 20C22.0298 20 22.2857 19.7442 22.2857 19.4286C22.2857 19.113 22.0298 18.8572 21.7143 18.8572C21.3987 18.8572 21.1428 19.113 21.1428 19.4286C21.1428 19.7442 21.3987 20 21.7143 20ZM22.2857 21.7143C22.2857 22.0298 22.0298 22.2857 21.7143 22.2857C21.3987 22.2857 21.1428 22.0298 21.1428 21.7143C21.1428 21.3987 21.3987 21.1428 21.7143 21.1428C22.0298 21.1428 22.2857 21.3987 22.2857 21.7143ZM24 17.7143C24.3156 17.7143 24.5714 17.4584 24.5714 17.1428C24.5714 16.8272 24.3156 16.5714 24 16.5714C23.6844 16.5714 23.4286 16.8272 23.4286 17.1428C23.4286 17.4584 23.6844 17.7143 24 17.7143ZM24.5714 19.4286C24.5714 19.7442 24.3156 20 24 20C23.6844 20 23.4286 19.7442 23.4286 19.4286C23.4286 19.113 23.6844 18.8572 24 18.8572C24.3156 18.8572 24.5714 19.113 24.5714 19.4286ZM24 22.2857C24.3156 22.2857 24.5714 22.0298 24.5714 21.7143C24.5714 21.3987 24.3156 21.1428 24 21.1428C23.6844 21.1428 23.4286 21.3987 23.4286 21.7143C23.4286 22.0298 23.6844 22.2857 24 22.2857ZM26.8571 17.1428C26.8571 17.4584 26.6013 17.7143 26.2857 17.7143C25.9701 17.7143 25.7142 17.4584 25.7142 17.1428C25.7142 16.8272 25.9701 16.5714 26.2857 16.5714C26.6013 16.5714 26.8571 16.8272 26.8571 17.1428ZM26.2857 20C26.6013 20 26.8571 19.7442 26.8571 19.4286C26.8571 19.113 26.6013 18.8572 26.2857 18.8572C25.9701 18.8572 25.7142 19.113 25.7142 19.4286C25.7142 19.7442 25.9701 20 26.2857 20ZM26.8571 21.7143C26.8571 22.0298 26.6013 22.2857 26.2857 22.2857C25.9701 22.2857 25.7142 22.0298 25.7142 21.7143C25.7142 21.3987 25.9701 21.1428 26.2857 21.1428C26.6013 21.1428 26.8571 21.3987 26.8571 21.7143ZM28.5714 17.7143C28.887 17.7143 29.1429 17.4584 29.1429 17.1428C29.1429 16.8272 28.887 16.5714 28.5714 16.5714C28.2558 16.5714 28 16.8272 28 17.1428C28 17.4584 28.2558 17.7143 28.5714 17.7143ZM29.1429 19.4286C29.1429 19.7442 28.887 20 28.5714 20C28.2558 20 28 19.7442 28 19.4286C28 19.113 28.2558 18.8572 28.5714 18.8572C28.887 18.8572 29.1429 19.113 29.1429 19.4286ZM28.5714 22.2857C28.887 22.2857 29.1429 22.0298 29.1429 21.7143C29.1429 21.3987 28.887 21.1428 28.5714 21.1428C28.2558 21.1428 28 21.3987 28 21.7143C28 22.0298 28.2558 22.2857 28.5714 22.2857ZM13.5714 16.0714C13.5714 19.1484 11.077 21.6429 8.00002 21.6429C4.923 21.6429 2.42859 19.1484 2.42859 16.0714C2.42859 12.9944 4.923 10.5 8.00002 10.5C11.077 10.5 13.5714 12.9944 13.5714 16.0714ZM8.00002 20.6429C10.5247 20.6429 12.5714 18.5962 12.5714 16.0714C12.5714 13.5467 10.5247 11.5 8.00002 11.5C5.47529 11.5 3.42859 13.5467 3.42859 16.0714C3.42859 18.5962 5.47529 20.6429 8.00002 20.6429ZM6.89465 18H9.34465V17.22H7.75965V14.5H6.89465V18Z" fill="white"/>
</svg>
