<svg width="32" height="32" viewBox="0 0 32 32" fill="none" xmlns="http://www.w3.org/2000/svg">
<path fill-rule="evenodd" clip-rule="evenodd" d="M12.8 5.75C5.73076 5.75 0 11.4808 0 18.55V25.75H32V18.55C32 11.4808 26.2692 5.75 19.2 5.75H12.8ZM14.1661 20.15H16.3165L14.5133 17.2716C14.9763 17.0625 15.3347 16.7564 15.5885 16.3532C15.8499 15.9425 15.9805 15.4348 15.9805 14.83C15.9805 14.0311 15.7117 13.4113 15.1741 12.9708C14.6365 12.5303 13.8077 12.31 12.6877 12.31H9.64132V20.15H11.5789V17.6636H12.5085H12.6765L14.1661 20.15ZM11.5789 16.006V13.9676H12.5981C13.0536 13.9676 13.3859 14.0497 13.5949 14.214C13.804 14.3708 13.9085 14.6097 13.9085 14.9308C13.9085 15.2817 13.7928 15.5505 13.5613 15.7372C13.3373 15.9164 13.0275 16.006 12.6317 16.006H11.5789ZM21.9738 18.4924V12.31H20.473L17.8298 13.6204L18.4458 15.0652L20.0026 14.4492V18.4924H18.1882V20.15H23.441V18.4924H21.9738Z" fill="white"/>
</svg>
