<svg width="64" height="64" viewBox="0 0 64 64" fill="none" xmlns="http://www.w3.org/2000/svg">
<g clip-path="url(#clip0_1967:19310)">
<path fill-rule="evenodd" clip-rule="evenodd" d="M16.017 5.85535H64V58.1447H23.217C17.9151 58.1447 13.617 53.8466 13.617 48.5447V8.25535C13.617 6.92986 14.6916 5.85535 16.017 5.85535ZM36.4936 23.8299C35.5911 23.8299 34.8595 23.0983 34.8595 22.1959C34.8595 21.2934 35.5911 20.5618 36.4936 20.5618C37.396 20.5618 38.1276 21.2934 38.1276 22.1959C38.1276 23.0983 37.396 23.8299 36.4936 23.8299ZM41.3959 22.1959C41.3959 23.0983 42.1274 23.8299 43.0299 23.8299C43.9324 23.8299 44.6639 23.0983 44.6639 22.1959C44.6639 21.2934 43.9324 20.5618 43.0299 20.5618C42.1274 20.5618 41.3959 21.2934 41.3959 22.1959ZM49.5661 23.8299C48.6636 23.8299 47.9321 23.0983 47.9321 22.1959C47.9321 21.2934 48.6636 20.5618 49.5661 20.5618C50.4686 20.5618 51.2001 21.2934 51.2001 22.1959C51.2001 23.0983 50.4686 23.8299 49.5661 23.8299ZM54.4681 22.1959C54.4681 23.0983 55.1997 23.8299 56.1022 23.8299C57.0046 23.8299 57.7362 23.0983 57.7362 22.1959C57.7362 21.2934 57.0046 20.5618 56.1022 20.5618C55.1997 20.5618 54.4681 21.2934 54.4681 22.1959ZM29.9578 23.8299C29.0553 23.8299 28.3237 23.0983 28.3237 22.1959C28.3237 21.2934 29.0553 20.5618 29.9578 20.5618C30.8602 20.5618 31.5918 21.2934 31.5918 22.1959C31.5918 23.0983 30.8602 23.8299 29.9578 23.8299ZM21.7871 22.1959C21.7871 23.0983 22.5187 23.8299 23.4212 23.8299C24.3236 23.8299 25.0552 23.0983 25.0552 22.1959C25.0552 21.2934 24.3236 20.5618 23.4212 20.5618C22.5187 20.5618 21.7871 21.2934 21.7871 22.1959ZM36.4936 30.3661C35.5911 30.3661 34.8595 29.6345 34.8595 28.7321C34.8595 27.8296 35.5911 27.098 36.4936 27.098C37.396 27.098 38.1276 27.8296 38.1276 28.7321C38.1276 29.6345 37.396 30.3661 36.4936 30.3661ZM41.3959 28.7321C41.3959 29.6345 42.1274 30.3661 43.0299 30.3661C43.9324 30.3661 44.6639 29.6345 44.6639 28.7321C44.6639 27.8296 43.9324 27.098 43.0299 27.098C42.1274 27.098 41.3959 27.8296 41.3959 28.7321ZM49.5661 30.3661C48.6636 30.3661 47.9321 29.6345 47.9321 28.7321C47.9321 27.8296 48.6636 27.098 49.5661 27.098C50.4686 27.098 51.2001 27.8296 51.2001 28.7321C51.2001 29.6345 50.4686 30.3661 49.5661 30.3661ZM54.4681 28.7321C54.4681 29.6345 55.1997 30.3661 56.1022 30.3661C57.0046 30.3661 57.7362 29.6345 57.7362 28.7321C57.7362 27.8296 57.0046 27.098 56.1022 27.098C55.1997 27.098 54.4681 27.8296 54.4681 28.7321ZM29.9578 30.3661C29.0553 30.3661 28.3237 29.6345 28.3237 28.7321C28.3237 27.8296 29.0553 27.098 29.9578 27.098C30.8602 27.098 31.5918 27.8296 31.5918 28.7321C31.5918 29.6345 30.8602 30.3661 29.9578 30.3661ZM21.7871 28.7321C21.7871 29.6345 22.5187 30.3661 23.4212 30.3661C24.3236 30.3661 25.0552 29.6345 25.0552 28.7321C25.0552 27.8296 24.3236 27.098 23.4212 27.098C22.5187 27.098 21.7871 27.8296 21.7871 28.7321ZM36.4936 36.9022C35.5911 36.9022 34.8595 36.1706 34.8595 35.2682C34.8595 34.3657 35.5911 33.6341 36.4936 33.6341C37.396 33.6341 38.1276 34.3657 38.1276 35.2682C38.1276 36.1706 37.396 36.9022 36.4936 36.9022ZM41.3959 35.2682C41.3959 36.1706 42.1274 36.9022 43.0299 36.9022C43.9324 36.9022 44.6639 36.1706 44.6639 35.2682C44.6639 34.3657 43.9324 33.6341 43.0299 33.6341C42.1274 33.6341 41.3959 34.3657 41.3959 35.2682ZM49.5661 36.9022C48.6636 36.9022 47.9321 36.1706 47.9321 35.2682C47.9321 34.3657 48.6636 33.6341 49.5661 33.6341C50.4686 33.6341 51.2001 34.3657 51.2001 35.2682C51.2001 36.1706 50.4686 36.9022 49.5661 36.9022ZM54.4681 35.2682C54.4681 36.1706 55.1997 36.9022 56.1022 36.9022C57.0046 36.9022 57.7362 36.1706 57.7362 35.2682C57.7362 34.3657 57.0046 33.6341 56.1022 33.6341C55.1997 33.6341 54.4681 34.3657 54.4681 35.2682ZM36.4936 43.4383C35.5911 43.4383 34.8595 42.7067 34.8595 41.8042C34.8595 40.9018 35.5911 40.1702 36.4936 40.1702C37.396 40.1702 38.1276 40.9018 38.1276 41.8042C38.1276 42.7067 37.396 43.4383 36.4936 43.4383ZM41.3959 41.8042C41.3959 42.7067 42.1274 43.4383 43.0299 43.4383C43.9324 43.4383 44.6639 42.7067 44.6639 41.8042C44.6639 40.9018 43.9324 40.1702 43.0299 40.1702C42.1274 40.1702 41.3959 40.9018 41.3959 41.8042ZM49.5661 43.4383C48.6636 43.4383 47.9321 42.7067 47.9321 41.8042C47.9321 40.9018 48.6636 40.1702 49.5661 40.1702C50.4686 40.1702 51.2001 40.9018 51.2001 41.8042C51.2001 42.7067 50.4686 43.4383 49.5661 43.4383ZM54.4681 41.8042C54.4681 42.7067 55.1997 43.4383 56.1022 43.4383C57.0046 43.4383 57.7362 42.7067 57.7362 41.8042C57.7362 40.9018 57.0046 40.1702 56.1022 40.1702C55.1997 40.1702 54.4681 40.9018 54.4681 41.8042ZM36.4936 49.9745C35.5911 49.9745 34.8595 49.2429 34.8595 48.3404C34.8595 47.438 35.5911 46.7064 36.4936 46.7064C37.396 46.7064 38.1276 47.438 38.1276 48.3404C38.1276 49.2429 37.396 49.9745 36.4936 49.9745ZM41.3959 48.3404C41.3959 49.2429 42.1274 49.9745 43.0299 49.9745C43.9324 49.9745 44.6639 49.2429 44.6639 48.3404C44.6639 47.438 43.9324 46.7064 43.0299 46.7064C42.1274 46.7064 41.3959 47.438 41.3959 48.3404ZM49.5661 49.9745C48.6636 49.9745 47.9321 49.2429 47.9321 48.3404C47.9321 47.438 48.6636 46.7064 49.5661 46.7064C50.4686 46.7064 51.2001 47.438 51.2001 48.3404C51.2001 49.2429 50.4686 49.9745 49.5661 49.9745ZM54.4681 48.3404C54.4681 49.2429 55.1997 49.9745 56.1022 49.9745C57.0046 49.9745 57.7362 49.2429 57.7362 48.3404C57.7362 47.438 57.0046 46.7064 56.1022 46.7064C55.1997 46.7064 54.4681 47.438 54.4681 48.3404ZM29.9578 36.9022C29.0553 36.9022 28.3237 36.1706 28.3237 35.2682C28.3237 34.3657 29.0553 33.6341 29.9578 33.6341C30.8602 33.6341 31.5918 34.3657 31.5918 35.2682C31.5918 36.1706 30.8602 36.9022 29.9578 36.9022ZM28.3237 41.8042C28.3237 42.7067 29.0553 43.4383 29.9578 43.4383C30.8602 43.4383 31.5918 42.7067 31.5918 41.8042C31.5918 40.9018 30.8602 40.1702 29.9578 40.1702C29.0553 40.1702 28.3237 40.9018 28.3237 41.8042ZM29.9578 49.9745C29.0553 49.9745 28.3237 49.2429 28.3237 48.3404C28.3237 47.438 29.0553 46.7064 29.9578 46.7064C30.8602 46.7064 31.5918 47.438 31.5918 48.3404C31.5918 49.2429 30.8602 49.9745 29.9578 49.9745ZM21.7871 35.2682C21.7871 36.1706 22.5187 36.9022 23.4212 36.9022C24.3236 36.9022 25.0552 36.1706 25.0552 35.2682C25.0552 34.3657 24.3236 33.6341 23.4212 33.6341C22.5187 33.6341 21.7871 34.3657 21.7871 35.2682ZM23.4212 43.4383C22.5187 43.4383 21.7871 42.7067 21.7871 41.8042C21.7871 40.9018 22.5187 40.1702 23.4212 40.1702C24.3236 40.1702 25.0552 40.9018 25.0552 41.8042C25.0552 42.7067 24.3236 43.4383 23.4212 43.4383ZM21.7871 48.3404C21.7871 49.2429 22.5187 49.9745 23.4212 49.9745C24.3236 49.9745 25.0552 49.2429 25.0552 48.3404C25.0552 47.438 24.3236 46.7064 23.4212 46.7064C22.5187 46.7064 21.7871 47.438 21.7871 48.3404ZM0 31.9999L9.53192 40.1701V23.8297L0 31.9999Z" fill="white"/>
</g>
<defs>
<clipPath id="clip0_1967:19310">
<rect width="64" height="64" fill="white"/>
</clipPath>
</defs>
</svg>
