<svg width="64" height="64" viewBox="0 0 64 64" fill="none" xmlns="http://www.w3.org/2000/svg">
<path fill-rule="evenodd" clip-rule="evenodd" d="M0 15.7142C0 14.6097 0.895431 13.7142 2 13.7142H62C63.1046 13.7142 64 14.6097 64 15.7142V42.2857C64 46.7039 60.4183 50.2857 56 50.2857H8C3.58172 50.2857 0 46.7039 0 42.2857V15.7142ZM40 25.1428C40 25.774 39.4883 26.2857 38.8571 26.2857C38.226 26.2857 37.7143 25.774 37.7143 25.1428C37.7143 24.5116 38.226 23.9999 38.8571 23.9999C39.4883 23.9999 40 24.5116 40 25.1428ZM43.4286 26.2857C44.0598 26.2857 44.5714 25.774 44.5714 25.1428C44.5714 24.5116 44.0598 23.9999 43.4286 23.9999C42.7974 23.9999 42.2857 24.5116 42.2857 25.1428C42.2857 25.774 42.7974 26.2857 43.4286 26.2857ZM49.1429 25.1428C49.1429 25.774 48.6312 26.2857 48 26.2857C47.3688 26.2857 46.8571 25.774 46.8571 25.1428C46.8571 24.5116 47.3688 23.9999 48 23.9999C48.6312 23.9999 49.1429 24.5116 49.1429 25.1428ZM52.5714 26.2857C53.2026 26.2857 53.7143 25.774 53.7143 25.1428C53.7143 24.5116 53.2026 23.9999 52.5714 23.9999C51.9402 23.9999 51.4286 24.5116 51.4286 25.1428C51.4286 25.774 51.9402 26.2857 52.5714 26.2857ZM58.2857 25.1428C58.2857 25.774 57.774 26.2857 57.1429 26.2857C56.5117 26.2857 56 25.774 56 25.1428C56 24.5116 56.5117 23.9999 57.1429 23.9999C57.774 23.9999 58.2857 24.5116 58.2857 25.1428ZM38.8571 30.8571C39.4883 30.8571 40 30.3454 40 29.7142C40 29.0831 39.4883 28.5714 38.8571 28.5714C38.226 28.5714 37.7143 29.0831 37.7143 29.7142C37.7143 30.3454 38.226 30.8571 38.8571 30.8571ZM44.5714 29.7142C44.5714 30.3454 44.0598 30.8571 43.4286 30.8571C42.7974 30.8571 42.2857 30.3454 42.2857 29.7142C42.2857 29.0831 42.7974 28.5714 43.4286 28.5714C44.0598 28.5714 44.5714 29.0831 44.5714 29.7142ZM48 30.8571C48.6312 30.8571 49.1429 30.3454 49.1429 29.7142C49.1429 29.0831 48.6312 28.5714 48 28.5714C47.3688 28.5714 46.8571 29.0831 46.8571 29.7142C46.8571 30.3454 47.3688 30.8571 48 30.8571ZM53.7143 29.7142C53.7143 30.3454 53.2026 30.8571 52.5714 30.8571C51.9402 30.8571 51.4286 30.3454 51.4286 29.7142C51.4286 29.0831 51.9402 28.5714 52.5714 28.5714C53.2026 28.5714 53.7143 29.0831 53.7143 29.7142ZM57.1429 30.8571C57.774 30.8571 58.2857 30.3454 58.2857 29.7142C58.2857 29.0831 57.774 28.5714 57.1429 28.5714C56.5117 28.5714 56 29.0831 56 29.7142C56 30.3454 56.5117 30.8571 57.1429 30.8571ZM40 34.2857C40 34.9168 39.4883 35.4285 38.8571 35.4285C38.226 35.4285 37.7143 34.9168 37.7143 34.2857C37.7143 33.6545 38.226 33.1428 38.8571 33.1428C39.4883 33.1428 40 33.6545 40 34.2857ZM38.8571 39.9999C39.4883 39.9999 40 39.4883 40 38.8571C40 38.2259 39.4883 37.7142 38.8571 37.7142C38.226 37.7142 37.7143 38.2259 37.7143 38.8571C37.7143 39.4883 38.226 39.9999 38.8571 39.9999ZM40 43.4285C40 44.0597 39.4883 44.5714 38.8571 44.5714C38.226 44.5714 37.7143 44.0597 37.7143 43.4285C37.7143 42.7973 38.226 42.2857 38.8571 42.2857C39.4883 42.2857 40 42.7973 40 43.4285ZM43.4286 35.4285C44.0598 35.4285 44.5714 34.9168 44.5714 34.2857C44.5714 33.6545 44.0598 33.1428 43.4286 33.1428C42.7974 33.1428 42.2857 33.6545 42.2857 34.2857C42.2857 34.9168 42.7974 35.4285 43.4286 35.4285ZM44.5714 38.8571C44.5714 39.4883 44.0598 39.9999 43.4286 39.9999C42.7974 39.9999 42.2857 39.4883 42.2857 38.8571C42.2857 38.2259 42.7974 37.7142 43.4286 37.7142C44.0598 37.7142 44.5714 38.2259 44.5714 38.8571ZM43.4286 44.5714C44.0598 44.5714 44.5714 44.0597 44.5714 43.4285C44.5714 42.7973 44.0598 42.2857 43.4286 42.2857C42.7974 42.2857 42.2857 42.7973 42.2857 43.4285C42.2857 44.0597 42.7974 44.5714 43.4286 44.5714ZM49.1429 34.2857C49.1429 34.9168 48.6312 35.4285 48 35.4285C47.3688 35.4285 46.8571 34.9168 46.8571 34.2857C46.8571 33.6545 47.3688 33.1428 48 33.1428C48.6312 33.1428 49.1429 33.6545 49.1429 34.2857ZM48 39.9999C48.6312 39.9999 49.1429 39.4883 49.1429 38.8571C49.1429 38.2259 48.6312 37.7142 48 37.7142C47.3688 37.7142 46.8571 38.2259 46.8571 38.8571C46.8571 39.4883 47.3688 39.9999 48 39.9999ZM49.1429 43.4285C49.1429 44.0597 48.6312 44.5714 48 44.5714C47.3688 44.5714 46.8571 44.0597 46.8571 43.4285C46.8571 42.7973 47.3688 42.2857 48 42.2857C48.6312 42.2857 49.1429 42.7973 49.1429 43.4285ZM52.5714 35.4285C53.2026 35.4285 53.7143 34.9168 53.7143 34.2857C53.7143 33.6545 53.2026 33.1428 52.5714 33.1428C51.9402 33.1428 51.4286 33.6545 51.4286 34.2857C51.4286 34.9168 51.9402 35.4285 52.5714 35.4285ZM53.7143 38.8571C53.7143 39.4883 53.2026 39.9999 52.5714 39.9999C51.9402 39.9999 51.4286 39.4883 51.4286 38.8571C51.4286 38.2259 51.9402 37.7142 52.5714 37.7142C53.2026 37.7142 53.7143 38.2259 53.7143 38.8571ZM52.5714 44.5714C53.2026 44.5714 53.7143 44.0597 53.7143 43.4285C53.7143 42.7973 53.2026 42.2857 52.5714 42.2857C51.9402 42.2857 51.4286 42.7973 51.4286 43.4285C51.4286 44.0597 51.9402 44.5714 52.5714 44.5714ZM58.2857 34.2857C58.2857 34.9168 57.774 35.4285 57.1429 35.4285C56.5117 35.4285 56 34.9168 56 34.2857C56 33.6545 56.5117 33.1428 57.1429 33.1428C57.774 33.1428 58.2857 33.6545 58.2857 34.2857ZM57.1429 39.9999C57.774 39.9999 58.2857 39.4883 58.2857 38.8571C58.2857 38.2259 57.774 37.7142 57.1429 37.7142C56.5117 37.7142 56 38.2259 56 38.8571C56 39.4883 56.5117 39.9999 57.1429 39.9999ZM58.2857 43.4285C58.2857 44.0597 57.774 44.5714 57.1429 44.5714C56.5117 44.5714 56 44.0597 56 43.4285C56 42.7973 56.5117 42.2857 57.1429 42.2857C57.774 42.2857 58.2857 42.7973 58.2857 43.4285ZM8.28571 17.9999H26C28.2091 17.9999 30 19.7908 30 21.9999V42C30 44.2091 28.2091 45.9999 26 45.9999H8.28571C6.07657 45.9999 4.28571 44.2091 4.28571 42V21.9999C4.28571 19.7908 6.07658 17.9999 8.28571 17.9999ZM2.28571 21.9999C2.28571 18.6862 4.97201 15.9999 8.28571 15.9999H26C29.3137 15.9999 32 18.6862 32 21.9999V42C32 45.3137 29.3137 47.9999 26 47.9999H8.28571C4.972 47.9999 2.28571 45.3137 2.28571 42V21.9999Z" fill="white"/>
</svg>
