<svg width="64" height="64" viewBox="0 0 64 64" fill="none" xmlns="http://www.w3.org/2000/svg">
<path fill-rule="evenodd" clip-rule="evenodd" d="M64 16C64 14.8954 63.1046 14 62 14H2C0.895428 14 0 14.8954 0 16V42.5714C0 46.9897 3.58172 50.5714 8 50.5714H56C60.4183 50.5714 64 46.9897 64 42.5714V16ZM56.0001 25.4286C56.0001 26.0598 56.5117 26.5715 57.1429 26.5715C57.7741 26.5715 58.2858 26.0598 58.2858 25.4286C58.2858 24.7974 57.7741 24.2858 57.1429 24.2858C56.5117 24.2858 56.0001 24.7974 56.0001 25.4286ZM34.2857 26.5715C33.6545 26.5715 33.1429 26.0598 33.1429 25.4286C33.1429 24.7974 33.6545 24.2858 34.2857 24.2858C34.9169 24.2858 35.4286 24.7974 35.4286 25.4286C35.4286 26.0598 34.9169 26.5715 34.2857 26.5715ZM56.0001 30C56.0001 30.6312 56.5117 31.1429 57.1429 31.1429C57.7741 31.1429 58.2858 30.6312 58.2858 30C58.2858 29.3689 57.7741 28.8572 57.1429 28.8572C56.5117 28.8572 56.0001 29.3689 56.0001 30ZM34.2857 31.1429C33.6545 31.1429 33.1429 30.6312 33.1429 30C33.1429 29.3689 33.6545 28.8572 34.2857 28.8572C34.9169 28.8572 35.4286 29.3689 35.4286 30C35.4286 30.6312 34.9169 31.1429 34.2857 31.1429ZM56.0001 34.5714C56.0001 35.2026 56.5117 35.7143 57.1429 35.7143C57.7741 35.7143 58.2858 35.2026 58.2858 34.5714C58.2858 33.9403 57.7741 33.4286 57.1429 33.4286C56.5117 33.4286 56.0001 33.9403 56.0001 34.5714ZM57.1429 40.2857C56.5117 40.2857 56.0001 39.774 56.0001 39.1429C56.0001 38.5117 56.5117 38 57.1429 38C57.7741 38 58.2858 38.5117 58.2858 39.1429C58.2858 39.774 57.7741 40.2857 57.1429 40.2857ZM56.0001 43.7143C56.0001 44.3455 56.5117 44.8571 57.1429 44.8571C57.7741 44.8571 58.2858 44.3455 58.2858 43.7143C58.2858 43.0831 57.7741 42.5714 57.1429 42.5714C56.5117 42.5714 56.0001 43.0831 56.0001 43.7143ZM34.2857 35.7143C33.6545 35.7143 33.1429 35.2026 33.1429 34.5714C33.1429 33.9403 33.6545 33.4286 34.2857 33.4286C34.9169 33.4286 35.4286 33.9403 35.4286 34.5714C35.4286 35.2026 34.9169 35.7143 34.2857 35.7143ZM33.1429 39.1429C33.1429 39.774 33.6545 40.2857 34.2857 40.2857C34.9169 40.2857 35.4286 39.774 35.4286 39.1429C35.4286 38.5117 34.9169 38 34.2857 38C33.6545 38 33.1429 38.5117 33.1429 39.1429ZM34.2857 44.8571C33.6545 44.8571 33.1429 44.3455 33.1429 43.7143C33.1429 43.0831 33.6545 42.5714 34.2857 42.5714C34.9169 42.5714 35.4286 43.0831 35.4286 43.7143C35.4286 44.3455 34.9169 44.8571 34.2857 44.8571ZM51.4285 25.4286C51.4285 26.0598 51.9402 26.5715 52.5714 26.5715C53.2026 26.5715 53.7142 26.0598 53.7142 25.4286C53.7142 24.7974 53.2026 24.2858 52.5714 24.2858C51.9402 24.2858 51.4285 24.7974 51.4285 25.4286ZM29.7143 26.5715C29.0831 26.5715 28.5715 26.0598 28.5715 25.4286C28.5715 24.7974 29.0831 24.2858 29.7143 24.2858C30.3455 24.2858 30.8572 24.7974 30.8572 25.4286C30.8572 26.0598 30.3455 26.5715 29.7143 26.5715ZM51.4285 30C51.4285 30.6312 51.9402 31.1429 52.5714 31.1429C53.2026 31.1429 53.7142 30.6312 53.7142 30C53.7142 29.3689 53.2026 28.8572 52.5714 28.8572C51.9402 28.8572 51.4285 29.3689 51.4285 30ZM29.7143 31.1429C29.0831 31.1429 28.5715 30.6312 28.5715 30C28.5715 29.3689 29.0831 28.8572 29.7143 28.8572C30.3455 28.8572 30.8572 29.3689 30.8572 30C30.8572 30.6312 30.3455 31.1429 29.7143 31.1429ZM51.4285 34.5714C51.4285 35.2026 51.9402 35.7143 52.5714 35.7143C53.2026 35.7143 53.7142 35.2026 53.7142 34.5714C53.7142 33.9403 53.2026 33.4286 52.5714 33.4286C51.9402 33.4286 51.4285 33.9403 51.4285 34.5714ZM52.5714 40.2857C51.9402 40.2857 51.4285 39.774 51.4285 39.1429C51.4285 38.5117 51.9402 38 52.5714 38C53.2026 38 53.7142 38.5117 53.7142 39.1429C53.7142 39.774 53.2026 40.2857 52.5714 40.2857ZM51.4285 43.7143C51.4285 44.3455 51.9402 44.8571 52.5714 44.8571C53.2026 44.8571 53.7142 44.3455 53.7142 43.7143C53.7142 43.0831 53.2026 42.5714 52.5714 42.5714C51.9402 42.5714 51.4285 43.0831 51.4285 43.7143ZM29.7143 35.7143C29.0831 35.7143 28.5715 35.2026 28.5715 34.5714C28.5715 33.9403 29.0831 33.4286 29.7143 33.4286C30.3455 33.4286 30.8572 33.9403 30.8572 34.5714C30.8572 35.2026 30.3455 35.7143 29.7143 35.7143ZM28.5715 39.1429C28.5715 39.774 29.0831 40.2857 29.7143 40.2857C30.3455 40.2857 30.8572 39.774 30.8572 39.1429C30.8572 38.5117 30.3455 38 29.7143 38C29.0831 38 28.5715 38.5117 28.5715 39.1429ZM29.7143 44.8571C29.0831 44.8571 28.5715 44.3455 28.5715 43.7143C28.5715 43.0831 29.0831 42.5714 29.7143 42.5714C30.3455 42.5714 30.8572 43.0831 30.8572 43.7143C30.8572 44.3455 30.3455 44.8571 29.7143 44.8571ZM46.8571 25.4286C46.8571 26.0598 47.3688 26.5715 48 26.5715C48.6311 26.5715 49.1428 26.0598 49.1428 25.4286C49.1428 24.7974 48.6311 24.2858 48 24.2858C47.3688 24.2858 46.8571 24.7974 46.8571 25.4286ZM25.1429 26.5715C24.5117 26.5715 24.0001 26.0598 24.0001 25.4286C24.0001 24.7974 24.5117 24.2858 25.1429 24.2858C25.7741 24.2858 26.2858 24.7974 26.2858 25.4286C26.2858 26.0598 25.7741 26.5715 25.1429 26.5715ZM19.4285 25.4286C19.4285 26.0598 19.9402 26.5715 20.5714 26.5715C21.2026 26.5715 21.7142 26.0598 21.7142 25.4286C21.7142 24.7974 21.2026 24.2858 20.5714 24.2858C19.9402 24.2858 19.4285 24.7974 19.4285 25.4286ZM48 31.1429C47.3688 31.1429 46.8571 30.6312 46.8571 30C46.8571 29.3689 47.3688 28.8572 48 28.8572C48.6311 28.8572 49.1428 29.3689 49.1428 30C49.1428 30.6312 48.6311 31.1429 48 31.1429ZM24.0001 30C24.0001 30.6312 24.5117 31.1429 25.1429 31.1429C25.7741 31.1429 26.2858 30.6312 26.2858 30C26.2858 29.3689 25.7741 28.8572 25.1429 28.8572C24.5117 28.8572 24.0001 29.3689 24.0001 30ZM20.5714 31.1429C19.9402 31.1429 19.4285 30.6312 19.4285 30C19.4285 29.3689 19.9402 28.8572 20.5714 28.8572C21.2026 28.8572 21.7142 29.3689 21.7142 30C21.7142 30.6312 21.2026 31.1429 20.5714 31.1429ZM46.8571 34.5714C46.8571 35.2026 47.3688 35.7143 48 35.7143C48.6311 35.7143 49.1428 35.2026 49.1428 34.5714C49.1428 33.9403 48.6311 33.4286 48 33.4286C47.3688 33.4286 46.8571 33.9403 46.8571 34.5714ZM48 40.2857C47.3688 40.2857 46.8571 39.774 46.8571 39.1429C46.8571 38.5117 47.3688 38 48 38C48.6311 38 49.1428 38.5117 49.1428 39.1429C49.1428 39.774 48.6311 40.2857 48 40.2857ZM46.8571 43.7143C46.8571 44.3455 47.3688 44.8571 48 44.8571C48.6311 44.8571 49.1428 44.3455 49.1428 43.7143C49.1428 43.0831 48.6311 42.5714 48 42.5714C47.3688 42.5714 46.8571 43.0831 46.8571 43.7143ZM25.1429 35.7143C24.5117 35.7143 24.0001 35.2026 24.0001 34.5714C24.0001 33.9403 24.5117 33.4286 25.1429 33.4286C25.7741 33.4286 26.2858 33.9403 26.2858 34.5714C26.2858 35.2026 25.7741 35.7143 25.1429 35.7143ZM24.0001 39.1429C24.0001 39.774 24.5117 40.2857 25.1429 40.2857C25.7741 40.2857 26.2858 39.774 26.2858 39.1429C26.2858 38.5117 25.7741 38 25.1429 38C24.5117 38 24.0001 38.5117 24.0001 39.1429ZM25.1429 44.8571C24.5117 44.8571 24.0001 44.3455 24.0001 43.7143C24.0001 43.0831 24.5117 42.5714 25.1429 42.5714C25.7741 42.5714 26.2858 43.0831 26.2858 43.7143C26.2858 44.3455 25.7741 44.8571 25.1429 44.8571ZM19.4285 34.5714C19.4285 35.2026 19.9402 35.7143 20.5714 35.7143C21.2026 35.7143 21.7142 35.2026 21.7142 34.5714C21.7142 33.9403 21.2026 33.4286 20.5714 33.4286C19.9402 33.4286 19.4285 33.9403 19.4285 34.5714ZM20.5714 40.2857C19.9402 40.2857 19.4285 39.774 19.4285 39.1429C19.4285 38.5117 19.9402 38 20.5714 38C21.2026 38 21.7142 38.5117 21.7142 39.1429C21.7142 39.774 21.2026 40.2857 20.5714 40.2857ZM19.4285 43.7143C19.4285 44.3455 19.9402 44.8571 20.5714 44.8571C21.2026 44.8571 21.7142 44.3455 21.7142 43.7143C21.7142 43.0831 21.2026 42.5714 20.5714 42.5714C19.9402 42.5714 19.4285 43.0831 19.4285 43.7143ZM43.4286 26.5715C42.7974 26.5715 42.2857 26.0598 42.2857 25.4286C42.2857 24.7974 42.7974 24.2858 43.4286 24.2858C44.0597 24.2858 44.5714 24.7974 44.5714 25.4286C44.5714 26.0598 44.0597 26.5715 43.4286 26.5715ZM37.7143 25.4286C37.7143 26.0598 38.226 26.5715 38.8571 26.5715C39.4883 26.5715 40 26.0598 40 25.4286C40 24.7974 39.4883 24.2858 38.8571 24.2858C38.226 24.2858 37.7143 24.7974 37.7143 25.4286ZM43.4286 31.1429C42.7974 31.1429 42.2857 30.6312 42.2857 30C42.2857 29.3689 42.7974 28.8572 43.4286 28.8572C44.0597 28.8572 44.5714 29.3689 44.5714 30C44.5714 30.6312 44.0597 31.1429 43.4286 31.1429ZM37.7143 30C37.7143 30.6312 38.226 31.1429 38.8571 31.1429C39.4883 31.1429 40 30.6312 40 30C40 29.3689 39.4883 28.8572 38.8571 28.8572C38.226 28.8572 37.7143 29.3689 37.7143 30ZM43.4286 35.7143C42.7974 35.7143 42.2857 35.2026 42.2857 34.5714C42.2857 33.9403 42.7974 33.4286 43.4286 33.4286C44.0597 33.4286 44.5714 33.9403 44.5714 34.5714C44.5714 35.2026 44.0597 35.7143 43.4286 35.7143ZM42.2857 39.1429C42.2857 39.774 42.7974 40.2857 43.4286 40.2857C44.0597 40.2857 44.5714 39.774 44.5714 39.1429C44.5714 38.5117 44.0597 38 43.4286 38C42.7974 38 42.2857 38.5117 42.2857 39.1429ZM43.4286 44.8571C42.7974 44.8571 42.2857 44.3455 42.2857 43.7143C42.2857 43.0831 42.7974 42.5714 43.4286 42.5714C44.0597 42.5714 44.5714 43.0831 44.5714 43.7143C44.5714 44.3455 44.0597 44.8571 43.4286 44.8571ZM37.7143 34.5714C37.7143 35.2026 38.226 35.7143 38.8571 35.7143C39.4883 35.7143 40 35.2026 40 34.5714C40 33.9403 39.4883 33.4286 38.8571 33.4286C38.226 33.4286 37.7143 33.9403 37.7143 34.5714ZM38.8571 40.2857C38.226 40.2857 37.7143 39.774 37.7143 39.1429C37.7143 38.5117 38.226 38 38.8571 38C39.4883 38 40 38.5117 40 39.1429C40 39.774 39.4883 40.2857 38.8571 40.2857ZM37.7143 43.7143C37.7143 44.3455 38.226 44.8571 38.8571 44.8571C39.4883 44.8571 40 44.3455 40 43.7143C40 43.0831 39.4883 42.5714 38.8571 42.5714C38.226 42.5714 37.7143 43.0831 37.7143 43.7143ZM3 32.5L13 41V24L3 32.5Z" fill="white"/>
</svg>
