<svg width="32" height="32" viewBox="0 0 32 32" fill="none" xmlns="http://www.w3.org/2000/svg">
<g clip-path="url(#clip0_1967_19345)">
<path fill-rule="evenodd" clip-rule="evenodd" d="M16.0891 -0.00012207L12.0213 4.74564H20.1569L16.0891 -0.00012207ZM26.8848 5.99988H3V32.0338H23.2848C25.9357 32.0338 28.0848 29.8848 28.0848 27.2338V7.19988C28.0848 6.53714 27.5475 5.99988 26.8848 5.99988ZM16.9025 14.9152C17.3519 14.9152 17.7161 14.5509 17.7161 14.1016C17.7161 13.6523 17.3519 13.2881 16.9025 13.2881C16.4532 13.2881 16.089 13.6523 16.089 14.1016C16.089 14.5509 16.4532 14.9152 16.9025 14.9152ZM14.4618 14.1016C14.4618 14.5509 14.0976 14.9152 13.6483 14.9152C13.199 14.9152 12.8347 14.5509 12.8347 14.1016C12.8347 13.6523 13.199 13.2881 13.6483 13.2881C14.0976 13.2881 14.4618 13.6523 14.4618 14.1016ZM10.394 14.9152C10.8433 14.9152 11.2075 14.5509 11.2075 14.1016C11.2075 13.6523 10.8433 13.2881 10.394 13.2881C9.94465 13.2881 9.58041 13.6523 9.58041 14.1016C9.58041 14.5509 9.94465 14.9152 10.394 14.9152ZM7.95332 14.1016C7.95332 14.5509 7.58908 14.9152 7.13976 14.9152C6.69045 14.9152 6.3262 14.5509 6.3262 14.1016C6.3262 13.6523 6.69045 13.2881 7.13976 13.2881C7.58908 13.2881 7.95332 13.6523 7.95332 14.1016ZM20.1566 14.9152C20.606 14.9152 20.9702 14.5509 20.9702 14.1016C20.9702 13.6523 20.606 13.2881 20.1566 13.2881C19.7073 13.2881 19.3431 13.6523 19.3431 14.1016C19.3431 14.5509 19.7073 14.9152 20.1566 14.9152ZM24.2247 14.1016C24.2247 14.5509 23.8604 14.9152 23.4111 14.9152C22.9618 14.9152 22.5976 14.5509 22.5976 14.1016C22.5976 13.6523 22.9618 13.2881 23.4111 13.2881C23.8604 13.2881 24.2247 13.6523 24.2247 14.1016ZM16.9025 18.1694C17.3519 18.1694 17.7161 17.8052 17.7161 17.3559C17.7161 16.9066 17.3519 16.5423 16.9025 16.5423C16.4532 16.5423 16.089 16.9066 16.089 17.3559C16.089 17.8052 16.4532 18.1694 16.9025 18.1694ZM14.4618 17.3559C14.4618 17.8052 14.0976 18.1694 13.6483 18.1694C13.199 18.1694 12.8347 17.8052 12.8347 17.3559C12.8347 16.9066 13.199 16.5423 13.6483 16.5423C14.0976 16.5423 14.4618 16.9066 14.4618 17.3559ZM10.394 18.1694C10.8433 18.1694 11.2075 17.8052 11.2075 17.3559C11.2075 16.9066 10.8433 16.5423 10.394 16.5423C9.94465 16.5423 9.58041 16.9066 9.58041 17.3559C9.58041 17.8052 9.94465 18.1694 10.394 18.1694ZM7.95332 17.3559C7.95332 17.8052 7.58908 18.1694 7.13976 18.1694C6.69045 18.1694 6.3262 17.8052 6.3262 17.3559C6.3262 16.9066 6.69045 16.5423 7.13976 16.5423C7.58908 16.5423 7.95332 16.9066 7.95332 17.3559ZM20.1566 18.1694C20.606 18.1694 20.9702 17.8052 20.9702 17.3559C20.9702 16.9066 20.606 16.5423 20.1566 16.5423C19.7073 16.5423 19.3431 16.9066 19.3431 17.3559C19.3431 17.8052 19.7073 18.1694 20.1566 18.1694ZM24.2247 17.3559C24.2247 17.8052 23.8604 18.1694 23.4111 18.1694C22.9618 18.1694 22.5976 17.8052 22.5976 17.3559C22.5976 16.9066 22.9618 16.5423 23.4111 16.5423C23.8604 16.5423 24.2247 16.9066 24.2247 17.3559ZM16.9025 21.4236C17.3519 21.4236 17.7161 21.0594 17.7161 20.6101C17.7161 20.1608 17.3519 19.7965 16.9025 19.7965C16.4532 19.7965 16.089 20.1608 16.089 20.6101C16.089 21.0594 16.4532 21.4236 16.9025 21.4236ZM14.4618 20.6101C14.4618 21.0594 14.0976 21.4236 13.6483 21.4236C13.199 21.4236 12.8347 21.0594 12.8347 20.6101C12.8347 20.1608 13.199 19.7965 13.6483 19.7965C14.0976 19.7965 14.4618 20.1608 14.4618 20.6101ZM10.394 21.4236C10.8433 21.4236 11.2075 21.0594 11.2075 20.6101C11.2075 20.1608 10.8433 19.7965 10.394 19.7965C9.94465 19.7965 9.58041 20.1608 9.58041 20.6101C9.58041 21.0594 9.94465 21.4236 10.394 21.4236ZM7.95332 20.6101C7.95332 21.0594 7.58908 21.4236 7.13976 21.4236C6.69045 21.4236 6.3262 21.0594 6.3262 20.6101C6.3262 20.1608 6.69045 19.7965 7.13976 19.7965C7.58908 19.7965 7.95332 20.1608 7.95332 20.6101ZM16.9025 24.6778C17.3519 24.6778 17.7161 24.3136 17.7161 23.8643C17.7161 23.415 17.3519 23.0507 16.9025 23.0507C16.4532 23.0507 16.089 23.415 16.089 23.8643C16.089 24.3136 16.4532 24.6778 16.9025 24.6778ZM14.4618 23.8643C14.4618 24.3136 14.0976 24.6778 13.6483 24.6778C13.199 24.6778 12.8347 24.3136 12.8347 23.8643C12.8347 23.415 13.199 23.0507 13.6483 23.0507C14.0976 23.0507 14.4618 23.415 14.4618 23.8643ZM10.394 24.6778C10.8433 24.6778 11.2075 24.3136 11.2075 23.8643C11.2075 23.415 10.8433 23.0507 10.394 23.0507C9.94465 23.0507 9.58041 23.415 9.58041 23.8643C9.58041 24.3136 9.94465 24.6778 10.394 24.6778ZM7.95332 23.8643C7.95332 24.3136 7.58908 24.6778 7.13976 24.6778C6.69045 24.6778 6.3262 24.3136 6.3262 23.8643C6.3262 23.415 6.69045 23.0507 7.13976 23.0507C7.58908 23.0507 7.95332 23.415 7.95332 23.8643ZM16.9025 27.9321C17.3519 27.9321 17.7161 27.5679 17.7161 27.1186C17.7161 26.6692 17.3519 26.305 16.9025 26.305C16.4532 26.305 16.089 26.6692 16.089 27.1186C16.089 27.5679 16.4532 27.9321 16.9025 27.9321ZM14.4618 27.1186C14.4618 27.5679 14.0976 27.9321 13.6483 27.9321C13.199 27.9321 12.8347 27.5679 12.8347 27.1186C12.8347 26.6692 13.199 26.305 13.6483 26.305C14.0976 26.305 14.4618 26.6692 14.4618 27.1186ZM10.394 27.9321C10.8433 27.9321 11.2075 27.5679 11.2075 27.1186C11.2075 26.6692 10.8433 26.305 10.394 26.305C9.94465 26.305 9.58041 26.6692 9.58041 27.1186C9.58041 27.5679 9.94465 27.9321 10.394 27.9321ZM7.95332 27.1186C7.95332 27.5679 7.58908 27.9321 7.13976 27.9321C6.69045 27.9321 6.3262 27.5679 6.3262 27.1186C6.3262 26.6692 6.69045 26.305 7.13976 26.305C7.58908 26.305 7.95332 26.6692 7.95332 27.1186ZM20.1566 21.4236C20.606 21.4236 20.9702 21.0594 20.9702 20.6101C20.9702 20.1608 20.606 19.7965 20.1566 19.7965C19.7073 19.7965 19.3431 20.1608 19.3431 20.6101C19.3431 21.0594 19.7073 21.4236 20.1566 21.4236ZM20.9702 23.8643C20.9702 24.3136 20.606 24.6778 20.1566 24.6778C19.7073 24.6778 19.3431 24.3136 19.3431 23.8643C19.3431 23.415 19.7073 23.0507 20.1566 23.0507C20.606 23.0507 20.9702 23.415 20.9702 23.8643ZM20.1566 27.9321C20.606 27.9321 20.9702 27.5679 20.9702 27.1186C20.9702 26.6692 20.606 26.305 20.1566 26.305C19.7073 26.305 19.3431 26.6692 19.3431 27.1186C19.3431 27.5679 19.7073 27.9321 20.1566 27.9321ZM24.2247 20.6101C24.2247 21.0594 23.8604 21.4236 23.4111 21.4236C22.9618 21.4236 22.5976 21.0594 22.5976 20.6101C22.5976 20.1608 22.9618 19.7965 23.4111 19.7965C23.8604 19.7965 24.2247 20.1608 24.2247 20.6101ZM23.4111 24.6778C23.8604 24.6778 24.2247 24.3136 24.2247 23.8643C24.2247 23.415 23.8604 23.0507 23.4111 23.0507C22.9618 23.0507 22.5976 23.415 22.5976 23.8643C22.5976 24.3136 22.9618 24.6778 23.4111 24.6778ZM24.2247 27.1186C24.2247 27.5679 23.8604 27.9321 23.4111 27.9321C22.9618 27.9321 22.5976 27.5679 22.5976 27.1186C22.5976 26.6692 22.9618 26.305 23.4111 26.305C23.8604 26.305 24.2247 26.6692 24.2247 27.1186Z" fill="white"/>
</g>
<defs>
<clipPath id="clip0_1967_19345">
<rect width="32" height="32" fill="white"/>
</clipPath>
</defs>
</svg>
