<svg width="64" height="64" viewBox="0 0 64 64" fill="none" xmlns="http://www.w3.org/2000/svg">
<g clip-path="url(#clip0_1967:15882)">
<path fill-rule="evenodd" clip-rule="evenodd" d="M62 13.7142C63.1046 13.7142 64 14.6097 64 15.7142V42.2857C64 46.7039 60.4183 50.2857 56 50.2857H8C3.58172 50.2857 0 46.7039 0 42.2857V15.7142C0 14.6097 0.895431 13.7142 2 13.7142H62ZM55.7143 17.9999H8.28572C6.07658 17.9999 4.28572 19.7908 4.28572 21.9999V42C4.28572 44.2091 6.07658 45.9999 8.28572 45.9999H55.7143C57.9234 45.9999 59.7143 44.2091 59.7143 42V21.9999C59.7143 19.7908 57.9234 17.9999 55.7143 17.9999ZM61.7143 21.9999C61.7143 18.6862 59.028 15.9999 55.7143 15.9999H8.28572C4.97201 15.9999 2.28572 18.6862 2.28572 21.9999V42C2.28572 45.3137 4.97201 47.9999 8.28572 47.9999H55.7143C59.028 47.9999 61.7143 45.3137 61.7143 42V21.9999Z" fill="white"/>
</g>
<defs>
<clipPath id="clip0_1967:15882">
<rect width="64" height="64" fill="white"/>
</clipPath>
</defs>
</svg>
