<svg width="32" height="32" viewBox="0 0 32 32" fill="none" xmlns="http://www.w3.org/2000/svg">
<g clip-path="url(#clip0_1967_20432)">
<path fill-rule="evenodd" clip-rule="evenodd" d="M31.9998 0.00012207L-6.48499e-05 4.44454L7.28877 11.7334H10.0416C11.2861 11.7334 12.207 11.9781 12.8043 12.4676C13.4016 12.9571 13.7003 13.6456 13.7003 14.5333C13.7003 15.2053 13.5551 15.7695 13.2647 16.2258C13.0751 16.5269 12.833 16.7794 12.5384 16.983L15.7924 20.237V18.6773L18.3062 16.6364C18.6961 16.3129 18.9906 16.0557 19.1897 15.8649C19.3888 15.6741 19.5423 15.4791 19.6502 15.28C19.7663 15.0809 19.8244 14.8611 19.8244 14.6205C19.8244 14.2471 19.6792 13.9651 19.3888 13.7742C19.1067 13.5834 18.7459 13.488 18.3062 13.488C17.9743 13.488 17.6466 13.5378 17.3231 13.6374C16.9995 13.7286 16.7091 13.8531 16.4519 14.0107L15.7551 12.4178C16.1533 12.1606 16.5971 11.9574 17.0866 11.808C17.5844 11.6587 18.1153 11.584 18.6795 11.584C19.7248 11.584 20.5669 11.8039 21.2057 12.2436C21.8445 12.675 22.1639 13.3138 22.1639 14.16C22.1639 14.7408 21.998 15.2717 21.6661 15.7529C21.3426 16.2258 20.8407 16.736 20.1604 17.2836L18.5177 18.5902H22.4252V20.4444H15.9998L24.1497 28.5942C26.8871 26.3167 28.7978 23.0543 29.3197 19.2964L31.9998 0.00012207ZM9.13054 13.5751L11.0579 15.5024C11.2847 15.2972 11.3981 15.0115 11.3981 14.6453C11.3981 14.2886 11.2819 14.0231 11.0496 13.8489C10.8173 13.6664 10.4482 13.5751 9.94209 13.5751H9.13054Z" fill="white"/>
<path opacity="0.5" fill-rule="evenodd" clip-rule="evenodd" d="M15.9998 20.4445L24.1497 28.5943C21.5824 30.7302 18.288 32 14.7299 32C6.59479 32 -2.09808e-05 25.4052 -2.09808e-05 17.2701V4.44458L7.28878 11.7334H6.65652V20.4445H8.80939V17.6818H9.84228H10.0289L11.684 20.4445H14.0734L12.0698 17.2463C12.2385 17.1701 12.3946 17.0823 12.5383 16.983L15.7921 20.2368V20.4445H15.9998ZM11.0577 15.5024C11.043 15.5157 11.0278 15.5287 11.012 15.5414C10.7632 15.7405 10.4189 15.84 9.97917 15.84H8.80939V13.5752H9.13054L11.0577 15.5024Z" fill="white"/>
</g>
<defs>
<clipPath id="clip0_1967_20432">
<rect width="32" height="32" fill="white"/>
</clipPath>
</defs>
</svg>
