<svg width="32" height="32" viewBox="0 0 32 32" fill="none" xmlns="http://www.w3.org/2000/svg">
<g clip-path="url(#clip0_1967_16053)">
<path d="M-0.0465821 9.96183C-0.270402 8.17127 1.12576 6.58972 2.93025 6.58972H29.0697C30.8742 6.58972 32.2703 8.17127 32.0465 9.96183L30.5534 21.9065C30.3032 23.9082 28.6016 25.4104 26.5843 25.4104H5.41562C3.39832 25.4104 1.69672 23.9082 1.4465 21.9065L-0.0465821 9.96183Z" fill="white"/>
<path fill-rule="evenodd" clip-rule="evenodd" d="M28.4093 8.76599H3.5908C2.67798 8.76599 1.97678 9.57447 2.10588 10.4781L3.68285 21.5169C3.8236 22.5022 4.66744 23.2341 5.66274 23.2341H26.3374C27.3327 23.2341 28.1765 22.5022 28.3173 21.5169L29.8942 10.4781C30.0233 9.57447 29.3221 8.76599 28.4093 8.76599ZM3.5908 7.76599C2.06943 7.76599 0.900773 9.11346 1.11593 10.6195L2.6929 21.6583C2.90403 23.1363 4.16979 24.2341 5.66274 24.2341H26.3374C27.8303 24.2341 29.0961 23.1363 29.3072 21.6583L30.8842 10.6195C31.0993 9.11346 29.9307 7.76599 28.4093 7.76599H3.5908Z" fill="#B8BCBF"/>
</g>
<defs>
<clipPath id="clip0_1967_16053">
<rect width="32" height="32" fill="white"/>
</clipPath>
</defs>
</svg>
