<svg width="32" height="32" viewBox="0 0 32 32" fill="none" xmlns="http://www.w3.org/2000/svg">
<path fill-rule="evenodd" clip-rule="evenodd" d="M6.5004 2H28.74V10.3232L27.7876 9.30436L25.4763 11.773L23.1655 9.30106L19.9477 12.7574L22.9892 16.0059L19.944 19.2514L23.1669 22.6938L25.4747 20.2327L27.7889 22.6905L28.74 21.6763V30.5H10.2729C8.26099 30.5 6.56214 29.0056 6.30558 27.0101L5.56526 21.252L6.52503 20.2327L8.83286 22.6938L12.0558 19.2514L9.0106 16.0059L12.0521 12.7574L8.83423 9.30106L6.52349 11.773L4.21221 9.30436L4.05126 9.47653L3.5249 5.38257C3.29425 3.58861 4.69168 2 6.5004 2ZM27.7868 11.5001L27.7867 11.5L26.6188 12.7475L28.74 15.018V15.0178L29.6641 16.007L28.74 16.9941V16.9939L26.6188 19.2596L27.7867 20.5L27.7868 20.4999L27.7869 20.5L32 16.007L27.7869 11.5L27.7868 11.5001ZM4.85802 15.7513L4.85801 15.7512L8.832 11.5L8.83203 11.5L8.83207 11.5L10 12.7545L6.9548 16.007L10 19.2525L8.83207 20.5L8.83204 20.5L8.832 20.5L4.93413 16.3432L4.93412 16.3432L4.61894 16.007L4.85802 15.7513ZM25.045 16.0071L21.9998 19.2525L23.1678 20.5L23.1679 20.4999L23.1679 20.5L27.3811 16.007L23.1679 11.5L23.1678 11.5001L23.1678 11.5L21.9998 12.7545L25.045 16.0071ZM0 16.007L4.21313 20.5L5.38106 19.2596L2.33586 16.007L5.38106 12.7475L4.21313 11.5L0 16.007Z" fill="white"/>
</svg>
