<svg width="64" height="64" viewBox="0 0 64 64" fill="none" xmlns="http://www.w3.org/2000/svg">
<path fill-rule="evenodd" clip-rule="evenodd" d="M7.10583 0H50.372C53.9894 0 56.7843 3.17721 56.323 6.76513L50.9349 48.6723L50.9331 48.6865L41.8775 39.3532L39.2781 42.0323V32H25.0199V42.0323L22.4205 39.3532L12.4204 49.6601L18.2341 55.6522H7.10583V0ZM49.9071 51.6911L47.2481 54.4317C48.3368 53.7487 49.2526 52.8092 49.9071 51.6911ZM24.0499 55.6522L32.1493 64L46.0623 49.6601L41.8778 45.3472L41.8776 45.3473L41.8775 45.3472L35.1045 52.328V36.1739H29.1941L29.1938 36.1739V52.328L22.4208 45.3472L22.4206 45.3473L22.4205 45.3472L18.236 49.6601L24.0497 55.6522H24.0499Z" fill="white"/>
</svg>
