<svg width="64" height="64" viewBox="0 0 64 64" fill="none" xmlns="http://www.w3.org/2000/svg">
<g clip-path="url(#clip0_1967:16083)">
<path fill-rule="evenodd" clip-rule="evenodd" d="M5.86075 13.1794C2.25176 13.1794 -0.54056 16.3425 -0.09292 19.9237L2.89323 43.8129C3.39366 47.8163 6.79688 50.8206 10.8315 50.8206H53.1687C57.2033 50.8206 60.6065 47.8163 61.1069 43.8129L64.093 19.9237C64.5407 16.3425 61.7484 13.1794 58.1394 13.1794H5.86075ZM46.2608 35.5897H48.1808L46.5708 33.0197C46.9841 32.8331 47.3041 32.5597 47.5308 32.1997C47.7641 31.8331 47.8808 31.3797 47.8808 30.8397C47.8808 30.1264 47.6408 29.5731 47.1608 29.1797C46.6808 28.7864 45.9408 28.5897 44.9408 28.5897H42.2208V35.5897H43.9508V33.3697H44.7808H44.9308L46.2608 35.5897ZM43.9508 31.8897V30.0697H44.8608C45.2674 30.0697 45.5641 30.1431 45.7508 30.2897C45.9374 30.4297 46.0308 30.6431 46.0308 30.9297C46.0308 31.2431 45.9274 31.4831 45.7208 31.6497C45.5208 31.8097 45.2441 31.8897 44.8908 31.8897H43.9508ZM44.9392 23.5897C40.2943 23.5897 36.5289 27.3551 36.5289 32C36.5289 36.6449 40.2943 40.4103 44.9392 40.4103C49.5841 40.4103 53.3495 36.6449 53.3495 32C53.3495 27.3551 49.5841 23.5897 44.9392 23.5897ZM34.5289 32C34.5289 26.2506 39.1898 21.5897 44.9392 21.5897C50.6887 21.5897 55.3495 26.2506 55.3495 32C55.3495 37.7495 50.6887 42.4103 44.9392 42.4103C39.1898 42.4103 34.5289 37.7495 34.5289 32ZM32.5001 32C32.5001 25.1301 38.0693 19.5609 44.9392 19.5609C51.8092 19.5609 57.3784 25.1301 57.3784 32C57.3784 38.87 51.8092 44.4392 44.9392 44.4392C38.0693 44.4392 32.5001 38.87 32.5001 32ZM44.9392 18.5609C37.517 18.5609 31.5001 24.5778 31.5001 32C31.5001 39.4223 37.517 45.4392 44.9392 45.4392C52.3614 45.4392 58.3784 39.4223 58.3784 32C58.3784 24.5778 52.3614 18.5609 44.9392 18.5609Z" fill="white"/>
</g>
<defs>
<clipPath id="clip0_1967:16083">
<rect width="64" height="64" fill="white"/>
</clipPath>
</defs>
</svg>
