<svg width="64" height="64" viewBox="0 0 64 64" fill="none" xmlns="http://www.w3.org/2000/svg">
<path fill-rule="evenodd" clip-rule="evenodd" d="M13.0009 4H57.4801V20.6465L55.5752 18.6087L50.9527 23.546L46.3312 18.6021L39.8955 25.5148L45.9785 32.0119L39.8881 38.5029L46.3339 45.3876L50.9496 40.4654L55.578 45.381L57.4801 43.3526V61H20.546C16.5221 61 13.1244 58.0112 12.6113 54.0202L11.1306 42.5041L13.0502 40.4654L17.6658 45.3876L24.1117 38.5029L18.0213 32.0119L24.1042 25.5148L17.6686 18.6021L13.0471 23.546L8.42454 18.6087L8.10265 18.9531L7.04992 10.7651C6.58861 7.17721 9.38347 4 13.0009 4ZM55.5736 23.0001L55.5735 23L53.2377 25.4949L57.4801 30.0361V30.0358L59.3283 32.0141L57.4801 33.9881V33.9879L53.2377 38.5192L55.5735 41L55.5736 40.9999L55.5737 41L64 32.0141L55.5737 23L55.5736 23.0001ZM10.6356 38.6536L10.7621 38.5192L10.5954 38.3411L4.67173 32.0141L9.16372 27.2058L10.7621 25.4949L10.7621 25.4949L8.65429 23.2436L8.42627 23L0 32.0141L8.42627 41L10.6356 38.6536ZM9.71614 31.5025L17.6641 23L17.6641 23L20 25.509L20 25.509L13.9096 32.0141L20 38.5051L17.6641 41L9.86838 32.6865L9.23788 32.0141L9.71614 31.5025ZM50.0902 32.0141L43.9998 38.5051L46.3357 41L46.3358 40.9999L46.3359 41L54.7621 32.0141L46.3359 23L46.3358 23.0001L46.3357 23L43.9998 25.509L50.0902 32.0141Z" fill="white"/>
</svg>
