<svg width="32" height="32" viewBox="0 0 32 32" fill="none" xmlns="http://www.w3.org/2000/svg">
<g clip-path="url(#clip0_7527_1112)">
<path fill-rule="evenodd" clip-rule="evenodd" d="M2.93037 6.58972C1.12588 6.58972 -0.27028 8.17127 -0.04646 9.96183L1.44662 21.9065C1.69684 23.9082 3.39845 25.4104 5.41574 25.4104H26.5844C28.6017 25.4104 30.3033 23.9082 30.5536 21.9065L32.0466 9.96183C32.2705 8.17127 30.8743 6.58972 29.0698 6.58972H2.93037ZM3.5908 8.76599H13.0001C14.1046 8.76599 15.0001 9.66142 15.0001 10.766V21.2341C15.0001 22.3386 14.1046 23.2341 13.0001 23.2341H5.66274C4.66744 23.2341 3.8236 22.5022 3.68285 21.5169L2.10588 10.4781C1.97678 9.57447 2.67798 8.76599 3.5908 8.76599ZM1.11593 10.6195C0.900773 9.11346 2.06943 7.76599 3.5908 7.76599H13.0001C14.6569 7.76599 16.0001 9.10914 16.0001 10.766V21.2341C16.0001 22.8909 14.6569 24.2341 13.0001 24.2341H5.66274C4.16979 24.2341 2.90403 23.1363 2.6929 21.6583L1.11593 10.6195Z" fill="white"/>
</g>
<defs>
<clipPath id="clip0_7527_1112">
<rect width="32" height="32" fill="white"/>
</clipPath>
</defs>
</svg>
