<svg width="64" height="64" viewBox="0 0 64 64" fill="none" xmlns="http://www.w3.org/2000/svg">
<g clip-path="url(#clip0_1967:16263)">
<path fill-rule="evenodd" clip-rule="evenodd" d="M22.6169 18.2559L22.6167 18.256L18.5212 14.0348L32.1382 6.10352e-05L41.3864 9.53196H41.3867L45.7555 14.0348L41.66 18.2559L41.6599 18.2559L41.6597 18.256L35.0308 11.4237V27.234H35.0306V27.2341H29.2459V11.4236L22.617 18.2559L22.6169 18.2559ZM22.617 24.1224L12.8296 14.0348L17.1984 9.53196H7.62756V64H42.6085C46.6324 64 50.0301 61.0112 50.5432 57.0202L55.779 16.2971C56.2403 12.7092 53.4455 9.53196 49.828 9.53196H47.0786L51.4474 14.0348L41.66 24.1224L39.1159 21.5003V31.3191H25.1611V21.5003L22.617 24.1224Z" fill="white"/>
</g>
<defs>
<clipPath id="clip0_1967:16263">
<rect width="64" height="64" fill="white"/>
</clipPath>
</defs>
</svg>
