<svg width="64" height="64" viewBox="0 0 64 64" fill="none" xmlns="http://www.w3.org/2000/svg">
<path fill-rule="evenodd" clip-rule="evenodd" d="M29.46 64C44.1643 64 56.617 53.1573 58.6399 38.5928L64 0H0V34.54C0 50.8103 13.1897 64 29.46 64ZM45.3526 35.4026H37.5375L40.8229 32.7893C42.1835 31.6942 43.1873 30.6737 43.8344 29.728C44.4981 28.7656 44.83 27.7037 44.83 26.5422C44.83 24.8497 44.1912 23.5721 42.9135 22.7093C41.6359 21.8299 39.9518 21.3902 37.8611 21.3902C36.7328 21.3902 35.6709 21.5395 34.6753 21.8382C33.6964 22.1369 32.8087 22.5434 32.0122 23.0577L33.406 26.2435C33.9204 25.9283 34.5011 25.6794 35.1482 25.4969C35.7953 25.2977 36.4507 25.1982 37.1144 25.1982C37.9938 25.1982 38.7156 25.389 39.2798 25.7706C39.8605 26.1523 40.1509 26.7164 40.1509 27.4631C40.1509 27.9443 40.0347 28.384 39.8024 28.7822C39.5867 29.1804 39.2798 29.5703 38.8815 29.952C38.4833 30.3336 37.8943 30.848 37.1144 31.4951L32.0869 35.5769V39.1111H45.3526V35.4026ZM23.8707 39.1111H28.6493L24.6422 32.7146C25.6709 32.25 26.4674 31.5697 27.0315 30.6737C27.6123 29.7612 27.9027 28.6329 27.9027 27.2889C27.9027 25.5134 27.3053 24.1363 26.1106 23.1573C24.916 22.1783 23.0742 21.6889 20.5853 21.6889H13.8155V39.1111H18.1213V33.5857H20.1871H20.5604L23.8707 39.1111ZM18.1213 29.9022V25.3724H20.3862C21.3984 25.3724 22.1367 25.5549 22.6013 25.92C23.0659 26.2684 23.2982 26.7994 23.2982 27.5129C23.2982 28.2927 23.041 28.89 22.5266 29.3049C22.0289 29.7031 21.3403 29.9022 20.4609 29.9022H18.1213Z" fill="white"/>
</svg>
