<svg width="32" height="32" viewBox="0 0 32 32" fill="none" xmlns="http://www.w3.org/2000/svg">
<path fill-rule="evenodd" clip-rule="evenodd" d="M0 0.00012207L31.9998 4.44454L24.1691 12.2752C24.154 12.2646 24.1388 12.254 24.1233 12.2436C23.4845 11.8039 22.6425 11.584 21.5971 11.584C21.033 11.584 20.502 11.6587 20.0043 11.808C19.5148 11.9574 19.0709 12.1606 18.6727 12.4178L19.3696 14.0107C19.6268 13.8531 19.9171 13.7286 20.2407 13.6374C20.5643 13.5378 20.892 13.488 21.2238 13.488C21.6635 13.488 22.0244 13.5834 22.3065 13.7742C22.3818 13.8237 22.4474 13.8794 22.5032 13.9412L16.6094 19.8349L14.9877 17.2462C15.5021 17.0139 15.9003 16.6738 16.1824 16.2258C16.4728 15.7695 16.6179 15.2053 16.6179 14.5333C16.6179 13.6456 16.3193 12.9571 15.7219 12.4676C15.1246 11.9781 14.2037 11.7334 12.9593 11.7334H9.57442V20.4444H11.7273V17.6818H12.7602H12.9468L14.602 20.4444H15.9999L7.85008 28.5942C5.11263 26.3167 3.20197 23.0543 2.68004 19.2964L0 0.00012207ZM11.7273 15.84V13.5751H12.8597C13.3658 13.5751 13.735 13.6664 13.9673 13.8489C14.1996 14.0231 14.3157 14.2886 14.3157 14.6453C14.3157 15.0353 14.1871 15.3339 13.93 15.5413C13.6811 15.7405 13.3368 15.84 12.8971 15.84H11.7273Z" fill="white"/>
<path opacity="0.5" fill-rule="evenodd" clip-rule="evenodd" d="M15.9999 20.4445L7.8501 28.5943C10.4173 30.7302 13.7118 32 17.2699 32C25.405 32 31.9998 25.4052 31.9998 17.2701V4.44458L24.1692 12.2752C24.7776 12.7059 25.0818 13.3342 25.0818 14.1601C25.0818 14.7408 24.9159 15.2718 24.584 15.7529C24.2605 16.2258 23.7586 16.736 23.0783 17.2836L21.4356 18.5903H25.3432V20.4445H18.7103V18.6774L21.2241 16.6365C21.614 16.3129 21.9085 16.0558 22.1076 15.8649C22.3067 15.6741 22.4602 15.4792 22.5681 15.2801C22.6842 15.0809 22.7423 14.8611 22.7423 14.6205C22.7423 14.344 22.6626 14.1175 22.5033 13.9411L16.6096 19.8348L16.9915 20.4445H15.9999Z" fill="white"/>
</svg>
