<svg width="64" height="64" viewBox="0 0 64 64" fill="none" xmlns="http://www.w3.org/2000/svg">
<path fill-rule="evenodd" clip-rule="evenodd" d="M7.10583 0H50.372C53.9894 0 56.7843 3.17721 56.323 6.76513L50.9349 48.6723L50.9332 48.686L41.8782 39.3532L39.2788 42.0323V32H25.0206V42.0323L22.4212 39.3532L12.421 49.6601L18.2347 55.6522H7.10583V0ZM47.2498 54.4307L49.9061 51.6928C49.2521 52.8096 48.3372 53.7481 47.2498 54.4307ZM46.0627 49.6601L40.249 55.6522H40.2486L32.1493 64L18.2362 49.6601L22.4208 45.3472L22.421 45.3474L22.4212 45.3472L29.1941 52.3279V36.1739H35.1045L35.1049 36.1739V52.3279L41.8778 45.3472L41.878 45.3474L41.8782 45.3472L46.0627 49.6601Z" fill="white"/>
</svg>
