<svg width="32" height="32" viewBox="0 0 32 32" fill="none" xmlns="http://www.w3.org/2000/svg">
<g clip-path="url(#clip0_1967_16023)">
<path fill-rule="evenodd" clip-rule="evenodd" d="M-0.0465821 9.96183C-0.270402 8.17127 1.12576 6.58972 2.93025 6.58972H29.0697C30.8742 6.58972 32.2703 8.17127 32.0465 9.96183L30.5534 21.9065C30.3032 23.9082 28.6016 25.4104 26.5843 25.4104H5.41562C3.39832 25.4104 1.69672 23.9082 1.4465 21.9065L-0.0465821 9.96183ZM14.6474 16.2052C14.6474 19.356 12.0931 21.9103 8.94222 21.9103C5.79135 21.9103 3.23706 19.356 3.23706 16.2052C3.23706 13.0543 5.79135 10.5 8.94222 10.5C12.0931 10.5 14.6474 13.0543 14.6474 16.2052ZM8.94222 20.9103C11.5408 20.9103 13.6474 18.8038 13.6474 16.2052C13.6474 13.6066 11.5408 11.5 8.94222 11.5C6.34363 11.5 4.23706 13.6066 4.23706 16.2052C4.23706 18.8038 6.34363 20.9103 8.94222 20.9103ZM7.83691 18H10.2869V17.22H8.70191V14.5H7.83691V18Z" fill="white"/>
</g>
<defs>
<clipPath id="clip0_1967_16023">
<rect width="32" height="32" fill="white"/>
</clipPath>
</defs>
</svg>
