<svg width="32" height="32" viewBox="0 0 32 32" fill="none" xmlns="http://www.w3.org/2000/svg">
<g clip-path="url(#clip0_1967_16038)">
<path d="M-0.0465821 9.96183C-0.270402 8.17127 1.12576 6.58972 2.93025 6.58972H29.0697C30.8742 6.58972 32.2703 8.17127 32.0465 9.96183L30.5534 21.9065C30.3032 23.9082 28.6016 25.4104 26.5843 25.4104H5.41562C3.39832 25.4104 1.69672 23.9082 1.4465 21.9065L-0.0465821 9.96183Z" fill="white"/>
<path fill-rule="evenodd" clip-rule="evenodd" d="M28.7629 16.2052C28.7629 19.356 26.2086 21.9103 23.0577 21.9103C19.9068 21.9103 17.3525 19.356 17.3525 16.2052C17.3525 13.0543 19.9068 10.5 23.0577 10.5C26.2086 10.5 28.7629 13.0543 28.7629 16.2052ZM23.0577 20.9103C25.6563 20.9103 27.7629 18.8038 27.7629 16.2052C27.7629 13.6066 25.6563 11.5 23.0577 11.5C20.4591 11.5 18.3525 13.6066 18.3525 16.2052C18.3525 18.8038 20.4591 20.9103 23.0577 20.9103Z" fill="#B8BCBF"/>
<path d="M24.6785 18H23.7185L23.0535 16.89H22.9785H22.5635V18H21.6985V14.5H23.0585C23.5585 14.5 23.9285 14.5983 24.1685 14.795C24.4085 14.9917 24.5285 15.2683 24.5285 15.625C24.5285 15.895 24.4702 16.1217 24.3535 16.305C24.2402 16.485 24.0802 16.6217 23.8735 16.715L24.6785 18ZM22.5635 15.24V16.15H23.0335C23.2102 16.15 23.3485 16.11 23.4485 16.03C23.5518 15.9467 23.6035 15.8267 23.6035 15.67C23.6035 15.5267 23.5568 15.42 23.4635 15.35C23.3702 15.2767 23.2218 15.24 23.0185 15.24H22.5635Z" fill="#B8BCBF"/>
</g>
<defs>
<clipPath id="clip0_1967_16038">
<rect width="32" height="32" fill="white"/>
</clipPath>
</defs>
</svg>
