<svg width="32" height="32" viewBox="0 0 32 32" fill="none" xmlns="http://www.w3.org/2000/svg">
<path fill-rule="evenodd" clip-rule="evenodd" d="M14.73 32C22.0822 32 28.3085 26.5787 29.3199 19.2964L32 0H0V17.27C0 25.4052 6.59484 32 14.73 32ZM22.6764 17.7013H18.7688L20.4115 16.3947C21.0918 15.8471 21.5937 15.3369 21.9173 14.864C22.2491 14.3828 22.415 13.8519 22.415 13.2711C22.415 12.4249 22.0956 11.7861 21.4568 11.3547C20.818 10.915 19.9759 10.6951 18.9306 10.6951C18.3665 10.6951 17.8355 10.7698 17.3377 10.9191C16.8482 11.0685 16.4044 11.2717 16.0062 11.5289L16.703 13.1218C16.9602 12.9642 17.2506 12.8397 17.5742 12.7485C17.8977 12.6489 18.2254 12.5991 18.5573 12.5991C18.997 12.5991 19.3579 12.6945 19.6399 12.8853C19.9303 13.0762 20.0755 13.3582 20.0755 13.7316C20.0755 13.9722 20.0174 14.192 19.9013 14.3911C19.7934 14.5902 19.6399 14.7852 19.4408 14.976C19.2417 15.1668 18.9472 15.424 18.5573 15.7476L16.0435 17.7885V19.5556H22.6764V17.7013ZM11.9354 19.5556H14.3247L12.3212 16.3573C12.8355 16.125 13.2337 15.7849 13.5158 15.3369C13.8062 14.8806 13.9514 14.3165 13.9514 13.6445C13.9514 12.7568 13.6527 12.0682 13.0554 11.5787C12.458 11.0892 11.5372 10.8445 10.2927 10.8445H6.90782V19.5556H9.06071V16.7929H10.0936H10.2803L11.9354 19.5556ZM9.06071 14.9511V12.6862H10.1932C10.6992 12.6862 11.0684 12.7775 11.3007 12.96C11.533 13.1342 11.6492 13.3997 11.6492 13.7565C11.6492 14.1464 11.5206 14.445 11.2634 14.6525C11.0145 14.8516 10.6702 14.9511 10.2305 14.9511H9.06071Z" fill="white"/>
</svg>
