<svg width="32" height="32" viewBox="0 0 32 32" fill="none" xmlns="http://www.w3.org/2000/svg">
<g clip-path="url(#clip0_1967_16002)">
<path fill-rule="evenodd" clip-rule="evenodd" d="M10.3883 8.76599L16 15.5L21.6117 8.76599H28.4093C29.3221 8.76599 30.0233 9.57447 29.8942 10.4781L28.3173 21.5169C28.1765 22.5022 27.3327 23.2341 26.3374 23.2341H5.66274C4.66744 23.2341 3.8236 22.5022 3.68285 21.5169L2.10588 10.4781C1.97678 9.57447 2.67798 8.76599 3.5908 8.76599H10.3883ZM9.555 7.76599H3.5908C2.06943 7.76599 0.900773 9.11346 1.11593 10.6195L2.6929 21.6583C2.90403 23.1363 4.16979 24.2341 5.66274 24.2341H26.3374C27.8303 24.2341 29.0961 23.1363 29.3072 21.6583L30.8842 10.6195C31.0993 9.11346 29.9307 7.76599 28.4093 7.76599H22.445L23.4252 6.58972H29.0698C30.8743 6.58972 32.2705 8.17127 32.0466 9.96183L30.5536 21.9065C30.3033 23.9082 28.6017 25.4104 26.5845 25.4104H5.41574C3.39845 25.4104 1.69684 23.9082 1.44663 21.9065L-0.04646 9.96183C-0.27028 8.17127 1.12588 6.58972 2.93037 6.58972H8.57477L9.555 7.76599ZM15.5 17H16.5V19H15.5V17ZM18.2071 16L17.5 16.7072L18.9142 18.1214L19.6213 17.4143L18.2071 16ZM13.9143 16L14.6214 16.7071L13.2072 18.1213L12.5001 17.4142L13.9143 16Z" fill="white"/>
<path d="M9.5 6L16 14L22.5 6H9.5Z" fill="white"/>
<rect x="13.5" y="2" width="5" height="5" fill="white"/>
</g>
<defs>
<clipPath id="clip0_1967_16002">
<rect width="32" height="32" fill="white"/>
</clipPath>
</defs>
</svg>
