<svg width="32" height="32" viewBox="0 0 32 32" fill="none" xmlns="http://www.w3.org/2000/svg">
<g clip-path="url(#clip0_1967_16065)">
<path d="M-0.0465821 9.96183C-0.270402 8.17127 1.12576 6.58972 2.93025 6.58972H29.0697C30.8742 6.58972 32.2703 8.17127 32.0465 9.96183L30.5534 21.9065C30.3032 23.9082 28.6016 25.4104 26.5843 25.4104H5.41562C3.39832 25.4104 1.69672 23.9082 1.4465 21.9065L-0.0465821 9.96183Z" fill="white"/>
<path fill-rule="evenodd" clip-rule="evenodd" d="M9.53036 12C7.20791 12 5.3252 13.8827 5.3252 16.2052C5.3252 18.5276 7.20791 20.4103 9.53036 20.4103C11.8528 20.4103 13.7355 18.5276 13.7355 16.2052C13.7355 13.8827 11.8528 12 9.53036 12ZM4.3252 16.2052C4.3252 13.3304 6.65563 11 9.53036 11C12.4051 11 14.7355 13.3304 14.7355 16.2052C14.7355 19.0799 12.4051 21.4103 9.53036 21.4103C6.65563 21.4103 4.3252 19.0799 4.3252 16.2052Z" fill="#B8BCBF"/>
<path fill-rule="evenodd" clip-rule="evenodd" d="M9.53039 10C6.0954 10 3.31079 12.7846 3.31079 16.2196C3.31079 19.6546 6.0954 22.4392 9.53039 22.4392C12.9654 22.4392 15.75 19.6546 15.75 16.2196C15.75 12.7846 12.9654 10 9.53039 10ZM2.81079 16.2196C2.81079 12.5085 5.81926 9.5 9.53039 9.5C13.2415 9.5 16.25 12.5085 16.25 16.2196C16.25 19.9307 13.2415 22.9392 9.53039 22.9392C5.81926 22.9392 2.81079 19.9307 2.81079 16.2196Z" fill="#B8BCBF"/>
<path d="M10.875 18H8.42505V14.5H9.29005V17.22H10.875V18Z" fill="#B8BCBF"/>
</g>
<defs>
<clipPath id="clip0_1967_16065">
<rect width="32" height="32" fill="white"/>
</clipPath>
</defs>
</svg>
