<svg width="64" height="64" viewBox="0 0 64 64" fill="none" xmlns="http://www.w3.org/2000/svg">
<g clip-path="url(#clip0_1967:16065)">
<path fill-rule="evenodd" clip-rule="evenodd" d="M5.86062 13.1793C2.25164 13.1793 -0.540682 16.3424 -0.093042 19.9235L2.89313 43.8129C3.39356 47.8163 6.79677 50.8206 10.8314 50.8206H53.1688C57.2034 50.8206 60.6066 47.8163 61.107 43.8129L64.0932 19.9235C64.5408 16.3424 61.7485 13.1793 58.1395 13.1793H5.86062ZM10.6505 32C10.6505 27.3551 14.416 23.5896 19.0609 23.5896C23.7058 23.5896 27.4712 27.3551 27.4712 32C27.4712 36.6449 23.7058 40.4103 19.0609 40.4103C14.416 40.4103 10.6505 36.6449 10.6505 32ZM19.0609 21.5896C13.3114 21.5896 8.65055 26.2505 8.65055 32C8.65055 37.7494 13.3114 42.4103 19.0609 42.4103C24.8103 42.4103 29.4712 37.7494 29.4712 32C29.4712 26.2505 24.8103 21.5896 19.0609 21.5896ZM19.0609 19.5608C12.1909 19.5608 6.62167 25.13 6.62167 32C6.62167 38.8699 12.1909 44.4392 19.0609 44.4392C25.9308 44.4392 31.5001 38.8699 31.5001 32C31.5001 25.13 25.9308 19.5608 19.0609 19.5608ZM5.62167 32C5.62167 24.5777 11.6386 18.5608 19.0609 18.5608C26.4831 18.5608 32.5001 24.5777 32.5001 32C32.5001 39.4222 26.4831 45.4392 19.0609 45.4392C11.6386 45.4392 5.62167 39.4222 5.62167 32ZM16.8502 34.4134H21.7502V32.8534H18.5802V27.4134H16.8502V34.4134Z" fill="white"/>
</g>
<defs>
<clipPath id="clip0_1967:16065">
<rect width="64" height="64" fill="white"/>
</clipPath>
</defs>
</svg>
