<svg width="64" height="64" viewBox="0 0 64 64" fill="none" xmlns="http://www.w3.org/2000/svg">
<g clip-path="url(#clip0_1967:16002)">
<path fill-rule="evenodd" clip-rule="evenodd" d="M-0.093042 19.9235C-0.540682 16.3424 2.25164 13.1793 5.86062 13.1793H58.1395C61.7485 13.1793 64.5408 16.3424 64.0932 19.9235L61.107 43.8129C60.6066 47.8163 57.2034 50.8206 53.1688 50.8206H10.8314C6.79677 50.8206 3.39356 47.8163 2.89313 43.8129L-0.093042 19.9235ZM32.0001 23.5896C27.3552 23.5896 23.5897 27.3551 23.5897 32C23.5897 36.6449 27.3552 40.4103 32.0001 40.4103C36.645 40.4103 40.4104 36.6449 40.4104 32C40.4104 27.3551 36.645 23.5896 32.0001 23.5896ZM21.5897 32C21.5897 26.2505 26.2506 21.5896 32.0001 21.5896C37.7495 21.5896 42.4104 26.2505 42.4104 32C42.4104 37.7494 37.7495 42.4103 32.0001 42.4103C26.2506 42.4103 21.5897 37.7494 21.5897 32ZM19.5609 32C19.5609 25.13 25.1301 19.5608 32.0001 19.5608C38.87 19.5608 44.4393 25.13 44.4393 32C44.4393 38.8699 38.87 44.4392 32.0001 44.4392C25.1301 44.4392 19.5609 38.8699 19.5609 32ZM32.0001 18.5608C24.5778 18.5608 18.5609 24.5777 18.5609 32C18.5609 39.4222 24.5778 45.4392 32.0001 45.4392C39.4223 45.4392 45.4393 39.4222 45.4393 32C45.4393 24.5777 39.4223 18.5608 32.0001 18.5608Z" fill="white"/>
</g>
<defs>
<clipPath id="clip0_1967:16002">
<rect width="64" height="64" fill="white"/>
</clipPath>
</defs>
</svg>
