<svg width="64" height="64" viewBox="0 0 64 64" fill="none" xmlns="http://www.w3.org/2000/svg">
<g clip-path="url(#clip0_1967:16038)">
<path fill-rule="evenodd" clip-rule="evenodd" d="M-0.093042 19.9235C-0.540682 16.3424 2.25164 13.1793 5.86062 13.1793H58.1395C61.7485 13.1793 64.5408 16.3424 64.0932 19.9235L61.107 43.8129C60.6066 47.8163 57.2034 50.8206 53.1688 50.8206H10.8314C6.79677 50.8206 3.39356 47.8163 2.89313 43.8129L-0.093042 19.9235ZM57.5259 32C57.5259 38.3017 52.4173 43.4103 46.1156 43.4103C39.8138 43.4103 34.7052 38.3017 34.7052 32C34.7052 25.6982 39.8138 20.5896 46.1156 20.5896C52.4173 20.5896 57.5259 25.6982 57.5259 32ZM46.1156 41.4103C51.3127 41.4103 55.5259 37.1971 55.5259 32C55.5259 26.8028 51.3127 22.5896 46.1156 22.5896C40.9184 22.5896 36.7052 26.8028 36.7052 32C36.7052 37.1971 40.9184 41.4103 46.1156 41.4103ZM47.4371 34.4134H49.3571L47.7471 31.8434C48.1604 31.6567 48.4804 31.3834 48.7071 31.0234C48.9405 30.6567 49.0571 30.2034 49.0571 29.6634C49.0571 28.95 48.8171 28.3967 48.3371 28.0034C47.8571 27.61 47.1171 27.4134 46.1171 27.4134H43.3971V34.4134H45.1271V32.1934H45.9571H46.1071L47.4371 34.4134ZM45.1271 30.7134V28.8934H46.0371C46.4438 28.8934 46.7405 28.9667 46.9271 29.1134C47.1138 29.2534 47.2071 29.4667 47.2071 29.7534C47.2071 30.0667 47.1038 30.3067 46.8971 30.4734C46.6971 30.6334 46.4205 30.7134 46.0671 30.7134H45.1271Z" fill="white"/>
</g>
<defs>
<clipPath id="clip0_1967:16038">
<rect width="64" height="64" fill="white"/>
</clipPath>
</defs>
</svg>
