<svg width="64" height="64" viewBox="0 0 64 64" fill="none" xmlns="http://www.w3.org/2000/svg">
<path fill-rule="evenodd" clip-rule="evenodd" d="M25.6 8.30005C11.4615 8.30005 0 19.7616 0 33.9V54.7001H64V24.3001C64 15.4635 56.8366 8.30005 48 8.30005H25.6ZM28.3322 40.3H32.633L29.0266 34.5432C29.9525 34.125 30.6693 33.5128 31.177 32.7064C31.6997 31.885 31.961 30.8696 31.961 29.66C31.961 28.0621 31.4234 26.8226 30.3482 25.9416C29.273 25.0605 27.6154 24.62 25.3754 24.62H19.2826V40.3H23.1578V35.3272H25.017H25.353L28.3322 40.3ZM23.1578 32.012V27.9352H25.1962C26.1072 27.9352 26.7717 28.0994 27.1898 28.428C27.608 28.7416 27.817 29.2194 27.817 29.8616C27.817 30.5634 27.5856 31.101 27.1226 31.4744C26.6746 31.8328 26.0549 32.012 25.2634 32.012H23.1578ZM43.9476 36.9848V24.62H40.946L35.6596 27.2408L36.8916 30.1304L40.0052 28.8984V36.9848H36.3764V40.3H46.882V36.9848H43.9476Z" fill="white"/>
</svg>
