<svg width="32" height="32" viewBox="0 0 32 32" fill="none" xmlns="http://www.w3.org/2000/svg">
<path fill-rule="evenodd" clip-rule="evenodd" d="M22.3292 2H3.5V10.0664L4.21233 9.30436L6.5236 11.773L8.83435 9.30106L12.0522 12.7574L9.01071 16.0059L12.0559 19.2514L8.83298 22.6938L6.52514 20.2327L4.21094 22.6905L3.5 21.9324V30.5H18.4484C22.4723 30.5 25.87 27.5112 26.3831 23.5202L26.6459 21.4764L25.4749 20.2327L23.167 22.6938L19.9441 19.2514L22.9893 16.0059L19.9478 12.7574L23.1657 9.30106L25.4764 11.773L27.7877 9.30436L28.1597 9.70233L28.2802 8.76513C28.7415 5.17721 25.9466 2 22.3292 2ZM27.7868 11.5L27.7868 11.5L26.6189 12.7475L27.6291 13.8288L27.6292 13.8288L29.6641 16.007L26.9806 18.8733L26.9806 18.8733L26.6189 19.2596L26.8934 19.5512L26.8934 19.5511L27.7869 20.5L32 16.007L27.9114 11.6333L27.7869 11.5L27.7868 11.5ZM23.1679 11.5L23.1679 11.5L27.3811 16.007L23.1679 20.5L23.1679 20.5L23.1679 20.5L22 19.2525L25.0451 16.0071L22 12.7545L23.1679 11.5L23.1679 11.5ZM4.21316 20.5L4.21318 20.5L5.38111 19.2596L3.5 17.2504V17.2504L2.33586 16.007L3.5 14.761V14.761L5.38111 12.7475L4.21318 11.5L4.21316 11.5L4.21313 11.5L0 16.007L4.21313 20.5L4.21316 20.5ZM10 19.2525L6.95485 16.0071L10 12.7545L8.83212 11.5L8.8321 11.5L8.83207 11.5L4.61894 16.007L8.83207 20.5L8.83209 20.5L8.83212 20.5L10 19.2525Z" fill="white"/>
</svg>
