<svg width="32" height="32" viewBox="0 0 32 32" fill="none" xmlns="http://www.w3.org/2000/svg">
<g clip-path="url(#clip0_1967_16149)">
<path fill-rule="evenodd" clip-rule="evenodd" d="M3.52939 6.5C1.40678 6.5 -0.235507 8.37809 0.0277703 10.5044L0.386006 13.3976L4.21232 9.30433L6.5236 11.773L8.83435 9.30103L12.0522 12.7574L9.01071 16.0059L12.0559 19.2514L8.83297 22.6938L6.52514 20.2327L4.21094 22.6905L1.12981 19.4047L1.36933 21.3392C1.66366 23.7162 3.66523 25.5 6.03816 25.5H25.9618C28.3348 25.5 30.3363 23.7162 30.6307 21.3392L30.8702 19.4047L27.7891 22.6905L25.4749 20.2327L23.167 22.6938L19.9441 19.2514L22.9893 16.0059L19.9478 12.7574L23.1656 9.30103L25.4764 11.773L27.7877 9.30433L31.614 13.3976L31.9722 10.5044C32.2355 8.37809 30.5932 6.5 28.4706 6.5H3.52939ZM31.3738 15.3372L32 16.007L31.183 16.8782L27.7869 20.5L27.7868 20.5L26.6189 19.2596L26.6189 19.2596L29.6641 16.007L26.6189 12.7475L26.6189 12.7474L27.7868 11.5L27.7869 11.5L31.3738 15.3372ZM4.21317 20.5L4.21318 20.5L5.38111 19.2596L2.33591 16.007L5.38111 12.7474L4.21318 11.5L4.21314 11.5L4.21313 11.5L0 16.007L4.21313 20.5L4.21317 20.5ZM10 19.2525L6.95485 16.007L10 12.7545L8.83212 11.5L8.83208 11.5L8.83207 11.5L4.61894 16.007L8.83207 20.5L8.8321 20.5L8.83212 20.5L10 19.2525ZM25.0451 16.007L21.9999 19.2525L22 19.2525L23.1679 20.5L23.1679 20.5L27.3811 16.007L27.381 16.007L23.1679 11.5L23.1679 11.5L21.9999 12.7545L22 12.7545L25.0451 16.007Z" fill="white"/>
</g>
<defs>
<clipPath id="clip0_1967_16149">
<rect width="32" height="32" fill="white"/>
</clipPath>
</defs>
</svg>
