<svg width="64" height="64" viewBox="0 0 64 64" fill="none" xmlns="http://www.w3.org/2000/svg">
<g clip-path="url(#clip0_1967:16311)">
<path fill-rule="evenodd" clip-rule="evenodd" d="M16.276 4.87341H58.283C61.9005 4.87341 64.6954 8.05063 64.234 11.6385L59.0259 52.1467C58.5127 56.1377 55.115 59.1265 51.0912 59.1265H16.276V49.0045L24.0273 41.4839L21.4155 38.9499H31.1956V25.0501H21.4155L24.0273 22.5161L16.276 14.9955V4.87341ZM27.1266 29.1191V34.8809H16.276V34.8809H11.3783L16.276 39.6328L18.1839 41.4839L18.1839 41.4839L16.276 43.3351L13.9794 45.5633L0 32L13.9794 18.4367L16.276 20.665L18.1839 22.5161L18.1839 22.5161L16.276 24.3672V24.3671L11.3783 29.1191H27.1266L27.1266 29.1191Z" fill="white"/>
</g>
<defs>
<clipPath id="clip0_1967:16311">
<rect width="64" height="64" fill="white"/>
</clipPath>
</defs>
</svg>
