<svg width="32" height="32" viewBox="0 0 32 32" fill="none" xmlns="http://www.w3.org/2000/svg">
<g clip-path="url(#clip0_1967_16002)">
<path d="M-0.0465821 9.96183C-0.270402 8.17127 1.12576 6.58972 2.93025 6.58972H29.0697C30.8742 6.58972 32.2703 8.17127 32.0465 9.96183L30.5534 21.9065C30.3032 23.9082 28.6016 25.4104 26.5843 25.4104H5.41562C3.39832 25.4104 1.69672 23.9082 1.4465 21.9065L-0.0465821 9.96183Z" fill="white"/>
<path fill-rule="evenodd" clip-rule="evenodd" d="M16 11.7948C13.6775 11.7948 11.7948 13.6775 11.7948 16C11.7948 18.3224 13.6775 20.2051 16 20.2051C18.3224 20.2051 20.2051 18.3224 20.2051 16C20.2051 13.6775 18.3224 11.7948 16 11.7948ZM10.7948 16C10.7948 13.1252 13.1252 10.7948 16 10.7948C18.8747 10.7948 21.2051 13.1252 21.2051 16C21.2051 18.8747 18.8747 21.2051 16 21.2051C13.1252 21.2051 10.7948 18.8747 10.7948 16Z" fill="#B8BCBF"/>
<path fill-rule="evenodd" clip-rule="evenodd" d="M16 9.7804C12.565 9.7804 9.7804 12.565 9.7804 16C9.7804 19.435 12.565 22.2196 16 22.2196C19.435 22.2196 22.2196 19.435 22.2196 16C22.2196 12.565 19.435 9.7804 16 9.7804ZM9.2804 16C9.2804 12.2889 12.2889 9.2804 16 9.2804C19.7111 9.2804 22.7196 12.2889 22.7196 16C22.7196 19.7111 19.7111 22.7196 16 22.7196C12.2889 22.7196 9.2804 19.7111 9.2804 16Z" fill="#B8BCBF"/>
</g>
<defs>
<clipPath id="clip0_1967_16002">
<rect width="32" height="32" fill="white"/>
</clipPath>
</defs>
</svg>
