<svg width="64" height="64" viewBox="0 0 64 64" fill="none" xmlns="http://www.w3.org/2000/svg">
<g clip-path="url(#clip0_1967:16175)">
<path fill-rule="evenodd" clip-rule="evenodd" d="M-0.00258795 21.1589C-0.450228 17.5778 2.34209 14.4147 5.95108 14.4147H53.9062C57.5151 14.4147 60.3075 17.5778 59.8598 21.1589L59.6112 23.1477L52.672 16.4151L44.5299 24.3148L46.6463 26.3682H38.7212V37.6317H46.6463L44.5299 39.6851L52.672 47.5849L57.0506 43.3366C56.2419 46.9548 53.0195 49.5852 49.2443 49.5852H10.613C6.57837 49.5852 3.17517 46.5809 2.67474 42.5775L-0.00258795 21.1589ZM52.672 21.0092L59.0991 27.2449L63.9999 31.9999L57.7462 38.0676L52.672 42.9908L52.6719 42.9907L49.265 39.6851L49.2649 39.6851L54.7797 34.3345H42.0184V34.3344H42.0183V29.6654H54.7797L49.265 24.3148L49.2649 24.3148L52.6719 21.0091L52.672 21.0092Z" fill="white"/>
</g>
<defs>
<clipPath id="clip0_1967:16175">
<rect width="64" height="64" fill="white"/>
</clipPath>
</defs>
</svg>
