<svg width="64" height="64" viewBox="0 0 64 64" fill="none" xmlns="http://www.w3.org/2000/svg">
<path fill-rule="evenodd" clip-rule="evenodd" d="M34.54 64C19.8357 64 7.38296 53.1573 5.36011 38.5928L0 0H64V34.54C64 50.8103 50.8103 64 34.54 64ZM49.4221 35.4026H41.607L44.8923 32.7893C46.2529 31.6942 47.2568 30.6737 47.9039 29.728C48.5676 28.7656 48.8994 27.7037 48.8994 26.5422C48.8994 24.8497 48.2606 23.5721 46.983 22.7093C45.7054 21.8299 44.0212 21.3902 41.9305 21.3902C40.8022 21.3902 39.7403 21.5395 38.7448 21.8382C37.7658 22.1369 36.8781 22.5434 36.0816 23.0577L37.4754 26.2435C37.9898 25.9283 38.5705 25.6794 39.2177 25.4969C39.8648 25.2977 40.5202 25.1982 41.1839 25.1982C42.0633 25.1982 42.7851 25.389 43.3492 25.7706C43.9299 26.1523 44.2203 26.7164 44.2203 27.4631C44.2203 27.9443 44.1042 28.384 43.8719 28.7822C43.6562 29.1804 43.3492 29.5703 42.951 29.952C42.5528 30.3336 41.9637 30.848 41.1839 31.4951L36.1563 35.5769V39.1111H49.4221V35.4026ZM20.4128 39.1111H32.6083V35.2284H24.7185V21.6889H20.4128V39.1111Z" fill="white"/>
</svg>
