<svg width="32" height="32" viewBox="0 0 32 32" fill="none" xmlns="http://www.w3.org/2000/svg">
<path fill-rule="evenodd" clip-rule="evenodd" d="M0 0L32 4.44444L23.8762 12.5683C23.7643 12.4494 23.6361 12.3412 23.4915 12.2435C22.8527 11.8038 22.0106 11.584 20.9653 11.584C20.4012 11.584 19.8702 11.6587 19.3724 11.808C18.8829 11.9573 18.4391 12.1606 18.0409 12.4178L18.7377 14.0107C18.9949 13.853 19.2853 13.7286 19.6089 13.6373C19.9324 13.5378 20.2601 13.488 20.592 13.488C21.0317 13.488 21.3926 13.5834 21.6746 13.7742C21.8934 13.9179 22.0297 14.1135 22.0837 14.3608L16.3042 20.1403V18.5031H12.3593V11.7333H10.2064V20.4444H16L7.85015 28.5943C5.11267 26.3168 3.20199 23.0544 2.68006 19.2964L0 0Z" fill="white"/>
<path opacity="0.5" fill-rule="evenodd" clip-rule="evenodd" d="M16 20.4445L7.8501 28.5944C10.4174 30.7303 13.7118 32 17.2699 32C25.405 32 31.9999 25.4052 31.9999 17.27V4.44458L23.8762 12.5683C24.2587 12.9747 24.4499 13.5053 24.4499 14.16C24.4499 14.7408 24.284 15.2717 23.9521 15.7529C23.6285 16.2258 23.1266 16.736 22.4463 17.2836L20.8037 18.5902H24.7112V20.4445H18.0783V18.6773L20.5921 16.6365C20.982 16.3129 21.2765 16.0557 21.4757 15.8649C21.6748 15.6741 21.8282 15.4791 21.9361 15.28C22.0522 15.0809 22.1103 14.861 22.1103 14.6205C22.1103 14.5283 22.1015 14.4417 22.0838 14.3607L16.3043 20.1402V20.4445H16Z" fill="white"/>
</svg>
