<svg width="64" height="64" viewBox="0 0 64 64" fill="none" xmlns="http://www.w3.org/2000/svg">
<g clip-path="url(#clip0_1967:16191)">
<path fill-rule="evenodd" clip-rule="evenodd" d="M5.86062 13.1793C2.25164 13.1793 -0.540682 16.3424 -0.093042 19.9235L2.89313 43.8129C3.39356 47.8163 6.79677 50.8206 10.8314 50.8206H53.1688C57.2034 50.8206 60.6066 47.8163 61.107 43.8129L64.0932 19.9235C64.5408 16.3424 61.7485 13.1793 58.1395 13.1793H5.86062ZM56.8186 17.5319H38.0001C35.7909 17.5319 34.0001 19.3228 34.0001 21.5319V42.468C34.0001 44.6772 35.7909 46.468 38.0001 46.468H52.6747C54.6653 46.468 56.353 45.0043 56.6345 43.0337L59.7884 20.9562C60.0466 19.1489 58.6442 17.5319 56.8186 17.5319ZM61.7683 21.239C62.1986 18.2268 59.8613 15.5319 56.8186 15.5319H38.0001C34.6864 15.5319 32.0001 18.2182 32.0001 21.5319V42.468C32.0001 45.7817 34.6864 48.468 38.0001 48.468H52.6747C55.6606 48.468 58.1921 46.2725 58.6144 43.3166L61.7683 21.239Z" fill="white"/>
</g>
<defs>
<clipPath id="clip0_1967:16191">
<rect width="64" height="64" fill="white"/>
</clipPath>
</defs>
</svg>
