<svg width="32" height="32" viewBox="0 0 32 32" fill="none" xmlns="http://www.w3.org/2000/svg">
<g clip-path="url(#clip0_7527_1118)">
<path fill-rule="evenodd" clip-rule="evenodd" d="M-0.04646 9.96183C-0.246407 8.36225 0.846476 6.92948 2.36837 6.64203L3.31725 7.78069C1.93234 7.93055 0.913864 9.2051 1.11593 10.6195L2.6929 21.6583C2.90403 23.1363 4.16979 24.2341 5.66274 24.2341H13.0001C14.6569 24.2341 16.0001 22.8909 16.0001 21.2341V10.766C16.0001 9.32817 14.9886 8.12659 13.6383 7.83403L14.6752 6.58972H29.0698C30.8743 6.58972 32.2705 8.17127 32.0466 9.96183L30.5536 21.9065C30.3033 23.9082 28.6017 25.4104 26.5845 25.4104H5.41574C3.39845 25.4104 1.69684 23.9082 1.44663 21.9065L-0.04646 9.96183ZM3.5908 8.76599H4.13834L8.50004 14L12.8617 8.76599H13.0001C14.1046 8.76599 15.0001 9.66142 15.0001 10.766V21.2341C15.0001 22.3386 14.1046 23.2341 13.0001 23.2341H5.66274C4.66744 23.2341 3.8236 22.5022 3.68285 21.5169L2.10588 10.4781C1.97678 9.57447 2.67798 8.76599 3.5908 8.76599ZM9 15H8V17H9V15ZM10 14.8096L10.5871 14.0001L12.2061 15.1743L11.619 15.9838L10 14.8096ZM7.12141 14.7071L6.41431 14L5.00009 15.4142L5.7072 16.1213L7.12141 14.7071Z" fill="white"/>
<path d="M2 5L8.50003 13L15 5H2Z" fill="white"/>
<rect x="6" y="1" width="5" height="5" fill="white"/>
</g>
<defs>
<clipPath id="clip0_7527_1118">
<rect width="32" height="32" fill="white"/>
</clipPath>
</defs>
</svg>
