<svg width="32" height="32" viewBox="0 0 32 32" fill="none" xmlns="http://www.w3.org/2000/svg">
<g clip-path="url(#clip0_1967_16083)">
<path d="M-0.0465821 9.96183C-0.270402 8.17127 1.12576 6.58972 2.93025 6.58972H29.0696C30.8741 6.58972 32.2702 8.17127 32.0464 9.96183L30.5533 21.9064C30.3031 23.9082 28.6015 25.4103 26.5842 25.4103H5.41561C3.39832 25.4103 1.69671 23.9082 1.44649 21.9064L-0.0465821 9.96183Z" fill="white"/>
<path d="M24.0904 17.7948H23.1304L22.4654 16.6848H22.3904H21.9754V17.7948H21.1104V14.2948H22.4704C22.9704 14.2948 23.3404 14.3931 23.5804 14.5898C23.8204 14.7865 23.9404 15.0631 23.9404 15.4198C23.9404 15.6898 23.882 15.9165 23.7654 16.0998C23.652 16.2798 23.492 16.4165 23.2854 16.5098L24.0904 17.7948ZM21.9754 15.0348V15.9448H22.4454C22.622 15.9448 22.7604 15.9048 22.8604 15.8248C22.9637 15.7415 23.0154 15.6215 23.0154 15.4648C23.0154 15.3215 22.9687 15.2148 22.8754 15.1448C22.782 15.0715 22.6337 15.0348 22.4304 15.0348H21.9754Z" fill="#B8BCBF"/>
<path fill-rule="evenodd" clip-rule="evenodd" d="M22.4695 11.7948C20.1471 11.7948 18.2644 13.6775 18.2644 15.9999C18.2644 18.3224 20.1471 20.2051 22.4695 20.2051C24.792 20.2051 26.6747 18.3224 26.6747 15.9999C26.6747 13.6775 24.792 11.7948 22.4695 11.7948ZM17.2644 15.9999C17.2644 13.1252 19.5948 10.7948 22.4695 10.7948C25.3443 10.7948 27.6747 13.1252 27.6747 15.9999C27.6747 18.8747 25.3443 21.2051 22.4695 21.2051C19.5948 21.2051 17.2644 18.8747 17.2644 15.9999Z" fill="#B8BCBF"/>
<path fill-rule="evenodd" clip-rule="evenodd" d="M22.4696 9.7804C19.0346 9.7804 16.25 12.565 16.25 16C16.25 19.4349 19.0346 22.2195 22.4696 22.2195C25.9045 22.2195 28.6891 19.4349 28.6891 16C28.6891 12.565 25.9045 9.7804 22.4696 9.7804ZM15.75 16C15.75 12.2889 18.7585 9.2804 22.4696 9.2804C26.1807 9.2804 29.1891 12.2889 29.1891 16C29.1891 19.7111 26.1807 22.7195 22.4696 22.7195C18.7585 22.7195 15.75 19.7111 15.75 16Z" fill="#B8BCBF"/>
</g>
<defs>
<clipPath id="clip0_1967_16083">
<rect width="32" height="32" fill="white"/>
</clipPath>
</defs>
</svg>
