<svg width="64" height="64" viewBox="0 0 64 64" fill="none" xmlns="http://www.w3.org/2000/svg">
<g clip-path="url(#clip0_1967:16203)">
<path fill-rule="evenodd" clip-rule="evenodd" d="M5.86062 13.1793C2.25164 13.1793 -0.540682 16.3424 -0.093042 19.9235L2.89313 43.8129C3.39356 47.8163 6.79677 50.8206 10.8314 50.8206H53.1688C57.2034 50.8206 60.6066 47.8163 61.107 43.8129L64.0932 19.9235C64.5408 16.3424 61.7485 13.1793 58.1395 13.1793H5.86062ZM7.18156 17.5319H26.0001C28.2092 17.5319 30.0001 19.3228 30.0001 21.5319V42.468C30.0001 44.6772 28.2092 46.468 26.0001 46.468H11.3254C9.33484 46.468 7.64716 45.0043 7.36565 43.0337L4.21171 20.9562C3.95353 19.1489 5.35591 17.5319 7.18156 17.5319ZM2.23181 21.239C1.8015 18.2268 4.13881 15.5319 7.18156 15.5319H26.0001C29.3138 15.5319 32.0001 18.2182 32.0001 21.5319V42.468C32.0001 45.7817 29.3138 48.468 26.0001 48.468H11.3254C8.33954 48.468 5.80802 46.2725 5.38575 43.3166L2.23181 21.239Z" fill="white"/>
</g>
<defs>
<clipPath id="clip0_1967:16203">
<rect width="64" height="64" fill="white"/>
</clipPath>
</defs>
</svg>
