<svg width="64" height="64" viewBox="0 0 64 64" fill="none" xmlns="http://www.w3.org/2000/svg">
<path fill-rule="evenodd" clip-rule="evenodd" d="M1.90987 21.6776C1.46223 18.0964 4.25455 14.9333 7.86354 14.9333H54.0035C57.6125 14.9333 60.4048 18.0964 59.9572 21.6776L59.7407 23.4089L53.0061 16.8747L45.1041 24.5415L47.1581 26.5344H39.4667V37.4657H47.1581L45.1041 39.4585L53.0061 47.1253L57.2272 43.0299C56.3423 46.5384 53.1724 49.0667 49.4713 49.0667H12.3958C8.36119 49.0667 4.95798 46.0624 4.45755 42.059L4.2761 40.6074L10.994 47.1253L18.896 39.4585L16.842 37.4657H24.5334V26.5344H16.842L18.896 24.5415L10.994 16.8747L2.35701 25.2546L1.90987 21.6776ZM53.0061 21.3334L59.2437 27.3853L64 32L57.9308 37.8886L53.0061 42.6667L53.006 42.6667L49.6995 39.4585L49.6995 39.4585L55.0516 34.2657H42.6666V29.7344L42.6667 29.7344L55.0516 29.7344L49.6995 24.5415L49.6995 24.5415L53.006 21.3334L53.0061 21.3334ZM10.9939 21.3334L10.9939 21.3334L0 32L10.9939 42.6667L10.994 42.6667L10.994 42.6667L14.3006 39.4585L8.94842 34.2657H21.3333V34.2657H21.3334V29.7344H8.9484L14.3006 24.5415L10.994 21.3334L10.9939 21.3334Z" fill="white"/>
</svg>
