<svg width="32" height="32" viewBox="0 0 32 32" fill="none" xmlns="http://www.w3.org/2000/svg">
<g clip-path="url(#clip0_1967_16191)">
<path d="M-0.0465821 9.96183C-0.270402 8.17127 1.12576 6.58972 2.93025 6.58972H29.0697C30.8742 6.58972 32.2703 8.17127 32.0465 9.96183L30.5534 21.9065C30.3032 23.9082 28.6016 25.4104 26.5843 25.4104H5.41562C3.39832 25.4104 1.69672 23.9082 1.4465 21.9065L-0.0465821 9.96183Z" fill="white"/>
<path fill-rule="evenodd" clip-rule="evenodd" d="M18.9999 8.76599H28.4092C29.322 8.76599 30.0232 9.57447 29.8941 10.4781L28.3172 21.5169C28.1764 22.5022 27.3326 23.2341 26.3373 23.2341H18.9999C17.8954 23.2341 16.9999 22.3386 16.9999 21.2341V10.766C16.9999 9.66142 17.8954 8.76599 18.9999 8.76599ZM28.4092 7.76599C29.9306 7.76599 31.0992 9.11346 30.8841 10.6195L29.3071 21.6583C29.096 23.1363 27.8302 24.2341 26.3373 24.2341H18.9999C17.3431 24.2341 15.9999 22.8909 15.9999 21.2341V10.766C15.9999 9.10914 17.3431 7.76599 18.9999 7.76599H28.4092Z" fill="#B8BCBF"/>
</g>
<defs>
<clipPath id="clip0_1967_16191">
<rect width="32" height="32" fill="white"/>
</clipPath>
</defs>
</svg>
