<svg width="64" height="64" viewBox="0 0 64 64" fill="none" xmlns="http://www.w3.org/2000/svg">
<path fill-rule="evenodd" clip-rule="evenodd" d="M56.9412 13C61.1864 13 64.471 16.7562 63.9445 21.0087L63.228 26.7952L55.5753 18.6087L50.9528 23.546L46.3313 18.6021L39.8957 25.5147L45.9786 32.0118L39.8882 38.5028L46.334 45.3876L50.9497 40.4654L55.5781 45.381L61.7404 38.8094L61.2613 42.6783C60.6727 47.4324 56.6695 51 51.9237 51H12.0763C7.33047 51 3.32732 47.4324 2.73867 42.6783L2.25962 38.8094L8.42188 45.381L13.0503 40.4654L17.666 45.3876L24.1118 38.5028L18.0214 32.0118L24.1043 25.5147L17.6687 18.6021L13.0472 23.546L8.42465 18.6087L0.772013 26.7952L0.0555406 21.0087C-0.471013 16.7562 2.81356 13 7.05877 13H56.9412ZM55.5737 23L62.7477 30.6744L64 32.0141L62.366 33.7564L55.5737 41L55.5736 40.9999L53.2379 38.5192L53.2378 38.5191L59.3282 32.014L53.2379 25.4949L53.2378 25.4949L55.5736 22.9999L55.5737 23ZM8.42634 40.9999L8.42636 40.9999L10.7622 38.5191L4.67182 32.014L10.7622 25.4949L8.42636 22.9999L8.42629 23L8.42627 23L0 32.0141L8.42627 41L8.42634 40.9999ZM20.0001 38.505L13.9097 32.014L20.0001 25.509L17.6642 22.9999L17.6642 23L17.6641 23L9.23788 32.0141L17.6641 41L17.6642 40.9999L17.6642 40.9999L20.0001 38.505ZM50.0903 32.014L43.9999 38.505L44 38.5051L46.3358 40.9999L46.3359 41L54.7621 32.0141L54.762 32.014L46.3359 23L46.3358 22.9999L43.9999 25.509L44 25.509L50.0903 32.014Z" fill="white"/>
</svg>
