<svg width="64" height="64" viewBox="0 0 64 64" fill="none" xmlns="http://www.w3.org/2000/svg">
<g clip-path="url(#clip0_1967:16117)">
<path fill-rule="evenodd" clip-rule="evenodd" d="M40.2495 16.992L40.2496 16.992L43.7829 13.3503L32.035 1.24188L20.287 13.3503L21.0771 14.1646L23.8203 16.992L23.8204 16.992L29.5396 11.0973V14.1646H29.5396V24.7378H29.5396V24.7378H34.5303V11.0973L37.5062 14.1646L40.2495 16.992ZM40.2495 22.0533L47.9034 14.1646H58.1327C61.7417 14.1646 64.534 17.3277 64.0864 20.9088L61.1062 44.7503C60.6058 48.7538 57.2026 51.7581 53.168 51.7581H10.9023C6.86769 51.7581 3.46448 48.7538 2.96405 44.7503L-0.0161377 20.9088C-0.463778 17.3277 2.32854 14.1646 5.93753 14.1646H16.1664L23.8203 22.0533L26.0152 19.7911V28.2622H38.0546V19.7911L40.2495 22.0533Z" fill="white"/>
</g>
<defs>
<clipPath id="clip0_1967:16117">
<rect width="64" height="64" fill="white"/>
</clipPath>
</defs>
</svg>
