<svg width="64" height="64" viewBox="0 0 64 64" fill="none" xmlns="http://www.w3.org/2000/svg">
<path fill-rule="evenodd" clip-rule="evenodd" d="M0.000244141 0.00012207L63.9999 8.88896L48.3384 24.5504C48.3083 24.529 48.2778 24.5079 48.2468 24.4871C46.9692 23.6077 45.2851 23.168 43.1944 23.168C42.0661 23.168 41.0042 23.3173 40.0087 23.616C39.0297 23.9146 38.142 24.3211 37.3456 24.8355L38.7393 28.0213C39.2537 27.706 39.8344 27.4571 40.4816 27.2746C41.1287 27.0755 41.7841 26.9759 42.4478 26.9759C43.3272 26.9759 44.0489 27.1668 44.6131 27.5484C44.7638 27.6474 44.8949 27.7587 45.0065 27.8823L33.2191 39.6698L29.9756 34.4923C31.0043 34.0278 31.8008 33.3475 32.3649 32.4515C32.9457 31.5389 33.236 30.4106 33.236 29.0666C33.236 27.2912 32.6387 25.914 31.444 24.9351C30.2494 23.9561 28.4076 23.4666 25.9187 23.4666H19.149V40.8887H23.4548V35.3634H25.5205H25.8939L29.2041 40.8887H32.0001L15.7004 57.1884C10.2255 52.6333 6.40419 46.1086 5.36032 38.5927L0.000244141 0.00012207ZM23.4548 31.6799V27.1502H25.7196C26.7318 27.1502 27.4701 27.3327 27.9347 27.6977C28.3993 28.0462 28.6316 28.5771 28.6316 29.2906C28.6316 30.0704 28.3744 30.6678 27.8601 31.0826C27.3623 31.4808 26.6737 31.6799 25.7943 31.6799H23.4548Z" fill="white"/>
<path opacity="0.5" fill-rule="evenodd" clip-rule="evenodd" d="M31.9999 40.8888L15.7002 57.1885C20.8347 61.4603 27.4236 63.9998 34.5398 63.9998C50.81 63.9998 63.9996 50.8102 63.9996 34.54V8.88904L48.3384 24.5502C49.5552 25.4118 50.1635 26.6683 50.1635 28.32C50.1635 29.4814 49.8317 30.5433 49.168 31.5057C48.5209 32.4515 47.517 33.4719 46.1565 34.567L42.8711 37.1803H50.6862V40.8888H37.4205V37.3546L42.448 33.2728C43.2279 32.6257 43.8169 32.1113 44.2151 31.7297C44.6133 31.3481 44.9203 30.9582 45.136 30.5599C45.3683 30.1617 45.4845 29.722 45.4845 29.2408C45.4845 28.6878 45.3252 28.2349 45.0066 27.8821L33.2192 39.6695L33.983 40.8888H31.9999Z" fill="white"/>
</svg>
