<svg width="64" height="64" viewBox="0 0 64 64" fill="none" xmlns="http://www.w3.org/2000/svg">
<path fill-rule="evenodd" clip-rule="evenodd" d="M0 0L64 8.88889L47.7522 25.1366C47.5285 24.8989 47.2721 24.6824 46.9829 24.4871C45.7053 23.6077 44.0212 23.168 41.9305 23.168C40.8022 23.168 39.7403 23.3173 38.7447 23.616C37.7657 23.9146 36.878 24.3212 36.0816 24.8355L37.4754 28.0213C37.9897 27.706 38.5705 27.4572 39.2176 27.2746C39.8647 27.0755 40.5201 26.976 41.1838 26.976C42.0632 26.976 42.785 27.1668 43.3492 27.5484C43.7866 27.8359 44.0593 28.227 44.1673 28.7216L32.6083 40.2806V37.0062H24.7185V23.4666H20.4127V40.8889H32L15.7003 57.1886C10.2253 52.6335 6.40399 46.1087 5.36011 38.5928L0 0Z" fill="white"/>
<path opacity="0.5" fill-rule="evenodd" clip-rule="evenodd" d="M31.9999 40.8889L15.7002 57.1886C20.8347 61.4605 27.4236 64 34.5399 64C50.8102 64 63.9999 50.8103 63.9999 34.54V8.88892L47.7524 25.1364C48.5173 25.9493 48.8998 27.0105 48.8998 28.32C48.8998 29.4815 48.5679 30.5434 47.9042 31.5058C47.2571 32.4516 46.2532 33.472 44.8927 34.5671L41.6073 37.1804H49.4224V40.8889H36.1567V37.3547L41.1842 33.2729C41.9641 32.6258 42.5531 32.1114 42.9513 31.7298C43.3495 31.3481 43.6565 30.9582 43.8722 30.56C44.1045 30.1618 44.2207 29.7221 44.2207 29.2409C44.2207 29.0566 44.203 28.8833 44.1676 28.7213L32.6087 40.2802V40.8889H31.9999Z" fill="white"/>
</svg>
