<svg width="32" height="32" viewBox="0 0 32 32" fill="none" xmlns="http://www.w3.org/2000/svg">
<g clip-path="url(#clip0_7527_1115)">
<path fill-rule="evenodd" clip-rule="evenodd" d="M2.93037 6.58972H17.3248L18.3617 7.83403C17.0115 8.12658 15.9999 9.32816 15.9999 10.766V21.2341C15.9999 22.8909 17.3431 24.2341 18.9999 24.2341H26.3373C27.8302 24.2341 29.096 23.1363 29.3071 21.6583L30.8841 10.6195C31.0861 9.20511 30.0677 7.93056 28.6828 7.78069L29.6317 6.64201C31.1536 6.92939 32.2466 8.3622 32.0466 9.96183L30.5536 21.9065C30.3033 23.9082 28.6017 25.4104 26.5845 25.4104H5.41574C3.39845 25.4104 1.69684 23.9082 1.44663 21.9065L-0.04646 9.96183C-0.27028 8.17127 1.12588 6.58972 2.93037 6.58972ZM18.9999 8.76599H19.1383L23.5 14L27.8617 8.76599H28.4092C29.322 8.76599 30.0232 9.57447 29.8941 10.4781L28.3172 21.5169C28.1764 22.5022 27.3326 23.2341 26.3373 23.2341H18.9999C17.8954 23.2341 16.9999 22.3386 16.9999 21.2341V10.766C16.9999 9.66142 17.8954 8.76599 18.9999 8.76599ZM24 15H23V17H24V15ZM25 14.8096L25.5871 14.0001L27.2061 15.1743L26.619 15.9838L25 14.8096ZM22.1214 14.7071L21.4143 14L20.0001 15.4142L20.7072 16.1213L22.1214 14.7071Z" fill="white"/>
<path d="M17 5L23.5 13L30 5H17Z" fill="white"/>
<rect x="21" y="1" width="5" height="5" fill="white"/>
</g>
<defs>
<clipPath id="clip0_7527_1115">
<rect width="32" height="32" fill="white"/>
</clipPath>
</defs>
</svg>
