<svg width="64" height="64" viewBox="0 0 64 64" fill="none" xmlns="http://www.w3.org/2000/svg">
<path fill-rule="evenodd" clip-rule="evenodd" d="M51.4792 4H7V20.1328L8.42465 18.6087L13.0472 23.546L17.6687 18.6021L24.1043 25.5148L18.0214 32.0119L24.1118 38.5029L17.666 45.3876L13.0503 40.4654L8.42188 45.381L7 43.8647V61H43.9341C47.958 61 51.3557 58.0112 51.8688 54.0202L53.2918 42.9528L50.9497 40.4654L46.334 45.3876L39.8882 38.5029L45.9786 32.0119L39.8957 25.5148L46.3313 18.6021L50.9528 23.546L55.5753 18.6087L56.3194 19.4047L57.4302 10.7651C57.8915 7.17721 55.0966 4 51.4792 4ZM55.5737 23.0001L55.5736 23L53.2378 25.4949L55.2583 27.6577L55.2583 27.6576L59.3283 32.0141L53.9611 37.7467L53.9612 37.7466L53.2378 38.5192L53.7868 39.1023L53.7868 39.1022L55.5737 41L64 32.0141L55.8229 23.2666L55.5737 23L55.5737 23.0001ZM46.3358 23.0001L46.3359 23L54.7621 32.0141L46.3359 41L46.3358 41L46.3358 41L43.9999 38.5051L50.0903 32.0141L43.9999 25.509L46.3358 23L46.3358 23.0001ZM8.42631 41L8.42636 41L10.7622 38.5192L7 34.5008V34.5009L4.67173 32.0141L7 29.5219V29.522L10.7622 25.4949L8.42636 23L8.42632 23.0001L8.42627 23L0 32.0141L8.42627 41L8.42631 41ZM20.0001 38.5051L13.9097 32.0141L20.0001 25.509L17.6642 23L17.6642 23.0001L17.6641 23L9.23788 32.0141L17.6641 41L17.6642 41L17.6642 41L20.0001 38.5051Z" fill="white"/>
</svg>
