<svg width="32" height="32" viewBox="0 0 32 32" fill="none" xmlns="http://www.w3.org/2000/svg">
<path fill-rule="evenodd" clip-rule="evenodd" d="M17.27 32C9.91784 32 3.69148 26.5787 2.68005 19.2964L0 0H32V17.27C32 25.4052 25.4052 32 17.27 32ZM24.711 17.7013H20.8035L22.4461 16.3947C23.1264 15.8471 23.6283 15.3369 23.9519 14.864C24.2837 14.3828 24.4497 13.8519 24.4497 13.2711C24.4497 12.4249 24.1303 11.7861 23.4915 11.3547C22.8526 10.915 22.0106 10.6951 20.9652 10.6951C20.4011 10.6951 19.8701 10.7698 19.3723 10.9191C18.8829 11.0685 18.439 11.2717 18.0408 11.5289L18.7377 13.1218C18.9949 12.9642 19.2852 12.8397 19.6088 12.7485C19.9323 12.6489 20.26 12.5991 20.5919 12.5991C21.0316 12.5991 21.3925 12.6945 21.6746 12.8853C21.9649 13.0762 22.1101 13.3582 22.1101 13.7316C22.1101 13.9722 22.052 14.192 21.9359 14.3911C21.828 14.5902 21.6746 14.7852 21.4755 14.976C21.2763 15.1668 20.9818 15.424 20.5919 15.7476L18.0781 17.7885V19.5556H24.711V17.7013ZM10.2063 19.5556H16.3041V17.6142H12.3592V10.8445H10.2063V19.5556Z" fill="white"/>
</svg>
