<svg width="64" height="64" viewBox="0 0 64 64" fill="none" xmlns="http://www.w3.org/2000/svg">
<g clip-path="url(#clip0_1967:16023)">
<path fill-rule="evenodd" clip-rule="evenodd" d="M-0.093042 19.9235C-0.540682 16.3424 2.25164 13.1793 5.86062 13.1793H58.1395C61.7485 13.1793 64.5408 16.3424 64.0932 19.9235L61.107 43.8129C60.6066 47.8163 57.2034 50.8206 53.1688 50.8206H10.8314C6.79677 50.8206 3.39356 47.8163 2.89313 43.8129L-0.093042 19.9235ZM29.2949 32C29.2949 38.3017 24.1863 43.4103 17.8846 43.4103C11.5828 43.4103 6.47426 38.3017 6.47426 32C6.47426 25.6982 11.5828 20.5896 17.8846 20.5896C24.1863 20.5896 29.2949 25.6982 29.2949 32ZM17.8846 41.4103C23.0818 41.4103 27.2949 37.1971 27.2949 32C27.2949 26.8028 23.0818 22.5896 17.8846 22.5896C12.6874 22.5896 8.47426 26.8028 8.47426 32C8.47426 37.1971 12.6874 41.4103 17.8846 41.4103ZM15.674 34.4134H20.574V32.8534H17.404V27.4134H15.674V34.4134Z" fill="white"/>
</g>
<defs>
<clipPath id="clip0_1967:16023">
<rect width="64" height="64" fill="white"/>
</clipPath>
</defs>
</svg>
