<svg width="64" height="64" viewBox="0 0 64 64" fill="none" xmlns="http://www.w3.org/2000/svg">
<g clip-path="url(#clip0_1967:16101)">
<path fill-rule="evenodd" clip-rule="evenodd" d="M-0.0161377 18.9861C-0.463778 15.405 2.32854 12.2419 5.93753 12.2419H58.1327C61.7417 12.2419 64.534 15.405 64.0864 18.9861L61.1062 42.8276C60.6058 46.8311 57.2026 49.8354 53.168 49.8354H47.9033L40.2495 41.9467L38.0546 44.2089V35.7378H26.0152V44.2089L23.8203 41.9467L16.1665 49.8354H10.9023C6.86769 49.8354 3.46448 46.8311 2.96405 42.8276L-0.0161377 18.9861ZM37.5063 49.8354L34.5303 52.9027V39.2622H29.5396V39.2622H29.5396V49.8354H29.5396V52.9027L26.5635 49.8354L23.8204 47.008L23.8203 47.008L21.0771 49.8354L20.287 50.6497L32.035 62.7581L43.7829 50.6497L42.9927 49.8354L40.2496 47.008L40.2495 47.008L37.5063 49.8354Z" fill="white"/>
</g>
<defs>
<clipPath id="clip0_1967:16101">
<rect width="64" height="64" fill="white"/>
</clipPath>
</defs>
</svg>
