<svg width="32" height="32" viewBox="0 0 32 32" fill="none" xmlns="http://www.w3.org/2000/svg">
<g clip-path="url(#clip0_7527_1109)">
<path fill-rule="evenodd" clip-rule="evenodd" d="M2.93037 6.58972C1.12588 6.58972 -0.27028 8.17127 -0.04646 9.96183L1.44663 21.9065C1.69684 23.9082 3.39845 25.4104 5.41574 25.4104H26.5845C28.6017 25.4104 30.3033 23.9082 30.5536 21.9065L32.0466 9.96183C32.2705 8.17127 30.8743 6.58972 29.0698 6.58972H2.93037ZM28.4092 8.76599H18.9999C17.8954 8.76599 16.9999 9.66142 16.9999 10.766V21.2341C16.9999 22.3386 17.8954 23.2341 18.9999 23.2341H26.3373C27.3326 23.2341 28.1764 22.5022 28.3172 21.5169L29.8941 10.4781C30.0232 9.57447 29.322 8.76599 28.4092 8.76599ZM30.8841 10.6195C31.0992 9.11346 29.9306 7.76599 28.4092 7.76599H18.9999C17.3431 7.76599 15.9999 9.10914 15.9999 10.766V21.2341C15.9999 22.8909 17.3431 24.2341 18.9999 24.2341H26.3373C27.8302 24.2341 29.096 23.1363 29.3071 21.6583L30.8841 10.6195Z" fill="white"/>
</g>
<defs>
<clipPath id="clip0_7527_1109">
<rect width="32" height="32" fill="white"/>
</clipPath>
</defs>
</svg>
