<svg width="32" height="32" viewBox="0 0 32 32" fill="none" xmlns="http://www.w3.org/2000/svg">
<g clip-path="url(#clip0_1967_16053)">
<path fill-rule="evenodd" clip-rule="evenodd" d="M2.93037 6.58972C1.12588 6.58972 -0.27028 8.17127 -0.04646 9.96183L1.44663 21.9065C1.69684 23.9082 3.39845 25.4104 5.41574 25.4104H26.5845C28.6017 25.4104 30.3033 23.9082 30.5536 21.9065L32.0466 9.96183C32.2705 8.17127 30.8743 6.58972 29.0698 6.58972H2.93037ZM3.5908 8.76599H28.4093C29.3221 8.76599 30.0233 9.57447 29.8942 10.4781L28.3173 21.5169C28.1765 22.5022 27.3327 23.2341 26.3374 23.2341H5.66274C4.66744 23.2341 3.8236 22.5022 3.68285 21.5169L2.10588 10.4781C1.97678 9.57447 2.67798 8.76599 3.5908 8.76599ZM1.11593 10.6195C0.900773 9.11346 2.06943 7.76599 3.5908 7.76599H28.4093C29.9307 7.76599 31.0993 9.11346 30.8842 10.6195L29.3072 21.6583C29.0961 23.1363 27.8303 24.2341 26.3374 24.2341H5.66274C4.16979 24.2341 2.90403 23.1363 2.6929 21.6583L1.11593 10.6195Z" fill="white"/>
</g>
<defs>
<clipPath id="clip0_1967_16053">
<rect width="32" height="32" fill="white"/>
</clipPath>
</defs>
</svg>
