<svg width="32" height="32" viewBox="0 0 32 32" fill="none" xmlns="http://www.w3.org/2000/svg">
<path d="M9.51904 4.05537C10.0532 3.70095 10.7733 3.84668 11.1279 4.38076L13.5859 8.08368C13.9405 8.61777 13.7956 9.33779 13.2616 9.6925C12.7275 10.0472 12.0063 9.90129 11.6517 9.36711L9.19365 5.6642C8.83925 5.13005 8.98496 4.40996 9.51904 4.05537ZM21.1062 4.38076C21.4609 3.84658 22.182 3.70071 22.7162 4.05537C23.2501 4.40992 23.3957 5.13011 23.0416 5.6642L20.5824 9.36711C20.2278 9.90124 19.5078 10.047 18.9736 9.6925C18.4395 9.3379 18.2938 8.61783 18.6482 8.08368L21.1062 4.38076ZM14.9566 7.48164V2.09507C14.9566 1.45387 15.4764 0.934082 16.1176 0.934082C16.7587 0.934245 17.2786 1.45397 17.2786 2.09507V7.48164C17.2786 8.12274 16.7587 8.64246 16.1176 8.64263C15.4764 8.64263 14.9566 8.12284 14.9566 7.48164Z" fill="white"/>
<path d="M14.8518 11.1193C17.6353 10.3605 20.5076 12.0024 21.2667 14.7859L23.9232 24.5273C24.6824 27.311 23.0413 30.183 20.2577 30.9422C17.474 31.7014 14.602 30.0604 13.8428 27.2767L11.1852 17.5342C10.4264 14.7507 12.0683 11.8784 14.8518 11.1193Z" fill="white"/>
</svg>
