<svg width="64" height="64" viewBox="0 0 64 64" fill="none" xmlns="http://www.w3.org/2000/svg">
<g clip-path="url(#clip0_1967:16247)">
<path fill-rule="evenodd" clip-rule="evenodd" d="M41.6595 18.2558L41.6597 18.256L45.7552 14.0348L32.1382 6.10352e-05L22.89 9.53196H22.8897L18.5209 14.0348L22.6164 18.2559L22.6165 18.2558L22.6167 18.256L29.2456 11.4238V27.234H29.2459V27.2341H35.0305V11.4237L41.6594 18.2559L41.6595 18.2558ZM41.6594 24.1224L51.4468 14.0348L47.078 9.53196H49.828C53.4455 9.53196 56.2403 12.7092 55.779 16.2971L50.5432 57.0202C50.0301 61.0112 46.6324 64 42.6085 64H7.62756V9.53196H17.1978L12.829 14.0348L22.6164 24.1224L25.1605 21.5003V31.3191H39.1153V21.5003L41.6594 24.1224Z" fill="white"/>
</g>
<defs>
<clipPath id="clip0_1967:16247">
<rect width="64" height="64" fill="white"/>
</clipPath>
</defs>
</svg>
