<svg width="64" height="64" viewBox="0 0 64 64" fill="none" xmlns="http://www.w3.org/2000/svg">
<g clip-path="url(#clip0_1967:16133)">
<path fill-rule="evenodd" clip-rule="evenodd" d="M1.98193 20.5259C1.53429 16.9448 4.32661 13.7817 7.9356 13.7817H58.1063C61.7153 13.7817 64.5076 16.9448 64.0599 20.5259L61.2243 43.2106C60.7239 47.214 57.3207 50.2183 53.2861 50.2183H12.7557C8.72115 50.2183 5.31794 47.214 4.81751 43.2106L4.5647 41.188L11.736 48.1459L20.1713 39.9618L17.9787 37.8344H26.1891V26.1655H17.9787L20.1713 24.0382L11.736 15.854L2.51613 24.7995L1.98193 20.5259ZM11.7359 20.6137L11.7358 20.6135L0 32L11.7358 43.3864L11.7359 43.3863L11.736 43.3864L15.2657 39.9618L9.55241 34.4185L22.7729 34.4185L22.7731 34.4185V29.5814H9.55241L15.2657 24.0382L11.736 20.6135L11.7359 20.6137Z" fill="white"/>
</g>
<defs>
<clipPath id="clip0_1967:16133">
<rect width="64" height="64" fill="white"/>
</clipPath>
</defs>
</svg>
