<svg width="64" height="64" viewBox="0 0 64 64" fill="none" xmlns="http://www.w3.org/2000/svg">
<g clip-path="url(#clip0_1967:15914)">
<path fill-rule="evenodd" clip-rule="evenodd" d="M17.8569 40.6427V31.4317L33.029 44.6427H21.8569C19.6477 44.6427 17.8569 42.8518 17.8569 40.6427ZM17.7141 50.2853H39.5094L42.9548 53.2853H33.6426V60.9997H42.8568V63.9997H21.4283V60.9997H30.6426V53.2853H17.7141C13.0197 53.2853 9.21408 49.4798 9.21408 44.7853V30.3569H12.2141V44.7853C12.2141 47.8229 14.6765 50.2853 17.7141 50.2853ZM52.071 42.4751L55.0659 45.0829C55.0693 44.9841 55.071 44.8849 55.071 44.7853V30.3569H52.071V42.4751ZM17.8569 12.6836L46.4282 37.5617V4C46.4282 1.79086 44.6373 0 42.4282 0H21.8569C19.6477 0 17.8569 1.79086 17.8569 4V12.6836ZM0 10.0711L60.7713 62.9868L64.2854 58.9222L3.51412 6.00647L0 10.0711Z" fill="white"/>
</g>
<defs>
<clipPath id="clip0_1967:15914">
<rect width="64" height="64" fill="white"/>
</clipPath>
</defs>
</svg>
