<svg width="64" height="64" viewBox="0 0 64 64" fill="none" xmlns="http://www.w3.org/2000/svg">
<path fill-rule="evenodd" clip-rule="evenodd" d="M32 60C47.464 60 60 47.464 60 32C60 16.536 47.464 4 32 4C16.536 4 4 16.536 4 32C4 47.464 16.536 60 32 60ZM15.0833 32C15.0833 22.6572 22.6572 15.0833 32 15.0833C41.3428 15.0833 48.9167 22.6572 48.9167 32C48.9167 41.3428 41.3428 48.9167 32 48.9167C22.6572 48.9167 15.0833 41.3428 15.0833 32ZM32 11.5833C20.7242 11.5833 11.5833 20.7242 11.5833 32C11.5833 43.2758 20.7242 52.4167 32 52.4167C43.2758 52.4167 52.4167 43.2758 52.4167 32C52.4167 20.7242 43.2758 11.5833 32 11.5833Z" fill="white"/>
</svg>
