<svg width="32" height="32" viewBox="0 0 32 32" fill="none" xmlns="http://www.w3.org/2000/svg">
<g clip-path="url(#clip0_1967_15914)">
<path fill-rule="evenodd" clip-rule="evenodd" d="M8.9284 18.3213V15.7158L16.5145 22.3213H12.9284C10.7193 22.3213 8.9284 20.5305 8.9284 18.3213ZM12.357 24.3927H18.8934L22.0032 27.1005C21.2962 27.291 20.5527 27.3927 19.7855 27.3927H17.5713V29.7499H21.4284V32.7499H10.7141V29.7499H14.5713V27.3927H12.357C7.66261 27.3927 3.85703 23.5871 3.85703 18.8927V15.1784H6.85703V18.8927C6.85703 21.9303 9.31946 24.3927 12.357 24.3927ZM25.0759 20.4019L27.4846 22.4993C27.9984 21.4045 28.2855 20.1821 28.2855 18.8927V15.1784H25.2855V18.8927C25.2855 19.4161 25.2124 19.9224 25.0759 20.4019ZM8.9284 6.34179L23.1903 18.7601C23.206 18.616 23.2141 18.4696 23.2141 18.3213V4C23.2141 1.79086 21.4232 0 19.2141 0H12.9284C10.7193 0 8.9284 1.79086 8.9284 4V6.34179ZM0 5.03552L30.3857 31.4934L32.1427 29.4611L1.75706 3.00323L0 5.03552Z" fill="white"/>
</g>
<defs>
<clipPath id="clip0_1967_15914">
<rect width="32" height="32" fill="white"/>
</clipPath>
</defs>
</svg>
