<svg width="64" height="64" viewBox="0 0 64 64" fill="none" xmlns="http://www.w3.org/2000/svg">
<path d="M60 32C60 47.464 47.464 60 32 60C16.536 60 4 47.464 4 32C4 16.536 16.536 4 32 4C47.464 4 60 16.536 60 32Z" fill="#3D4450"/>
<path fill-rule="evenodd" clip-rule="evenodd" d="M32 14.5C22.335 14.5 14.5 22.335 14.5 32C14.5 41.6649 22.335 49.5 32 49.5C41.6649 49.5 49.5 41.6649 49.5 32C49.5 22.335 41.6649 14.5 32 14.5ZM12.1666 32C12.1666 21.0463 21.0463 12.1666 32 12.1666C42.9536 12.1666 51.8333 21.0463 51.8333 32C51.8333 42.9536 42.9536 51.8333 32 51.8333C21.0463 51.8333 12.1666 42.9536 12.1666 32Z" fill="#ED838F"/>
</svg>
