<svg width="64" height="64" viewBox="0 0 64 64" fill="none" xmlns="http://www.w3.org/2000/svg">
<path fill-rule="evenodd" clip-rule="evenodd" d="M32 6.05263C17.6697 6.05263 6.05263 17.6697 6.05263 32C6.05263 46.3303 17.6697 57.9474 32 57.9474C46.3303 57.9474 57.9474 46.3303 57.9474 32C57.9474 17.6697 46.3303 6.05263 32 6.05263ZM3 32C3 15.9837 15.9837 3 32 3C48.0163 3 61 15.9837 61 32C61 48.0163 48.0163 61 32 61C15.9837 61 3 48.0163 3 32Z" fill="#ED838F"/>
<path fill-rule="evenodd" clip-rule="evenodd" d="M31.9999 15.2105C22.7274 15.2105 15.2105 22.7274 15.2105 31.9999C15.2105 41.2725 22.7274 48.7894 31.9999 48.7894C41.2725 48.7894 48.7894 41.2725 48.7894 31.9999C48.7894 22.7274 41.2725 15.2105 31.9999 15.2105ZM12.1578 31.9999C12.1578 21.0415 21.0415 12.1578 31.9999 12.1578C42.9584 12.1578 51.842 21.0415 51.842 31.9999C51.842 42.9584 42.9584 51.842 31.9999 51.842C21.0415 51.842 12.1578 42.9584 12.1578 31.9999Z" fill="#ED838F"/>
</svg>
