<svg width="64" height="64" viewBox="0 0 64 64" fill="none" xmlns="http://www.w3.org/2000/svg">
<path fill-rule="evenodd" clip-rule="evenodd" d="M32 6.05263C17.6697 6.05263 6.05263 17.6697 6.05263 32C6.05263 46.3303 17.6697 57.9474 32 57.9474C46.3303 57.9474 57.9474 46.3303 57.9474 32C57.9474 17.6697 46.3303 6.05263 32 6.05263ZM3 32C3 15.9837 15.9837 3 32 3C48.0163 3 61 15.9837 61 32C61 48.0163 48.0163 61 32 61C15.9837 61 3 48.0163 3 32Z" fill="#D6B4D7"/>
<path fill-rule="evenodd" clip-rule="evenodd" d="M15.2106 15.2106H48.7895V48.7895H15.2106V15.2106ZM18.2632 18.2632V45.7369H45.7369V18.2632H18.2632Z" fill="#D6B4D7"/>
</svg>
