<svg width="32" height="32" viewBox="0 0 32 32" fill="none" xmlns="http://www.w3.org/2000/svg">
<g clip-path="url(#clip0_6311_41140)">
<path fill-rule="evenodd" clip-rule="evenodd" d="M7.49704 26.6239L-0.316351 18.8888L-0.397583 -0.397461L18.8886 -0.316229L26.6238 7.49716C31.9502 12.8235 31.9864 21.4231 26.7047 26.7048C21.423 31.9865 12.8234 31.9503 7.49704 26.6239ZM6.99998 20.2934H12.9453V18.4006H9.09904V11.8H6.99998V20.2934ZM22.4322 15.7555C22.9985 15.9415 23.3989 16.2084 23.6334 16.5563C23.8761 16.9041 23.9974 17.3247 23.9974 17.8181C23.9974 18.3196 23.868 18.7564 23.6092 19.1285C23.3584 19.5006 22.9944 19.7878 22.5172 19.99C22.048 20.1922 21.498 20.2933 20.867 20.2933H17.1664V11.8H20.5273C21.5546 11.8 22.3069 11.9901 22.7841 12.3703C23.2694 12.7423 23.5121 13.2722 23.5121 13.9597C23.5121 14.7767 23.1522 15.3753 22.4322 15.7555ZM19.3018 13.5351V15.258H20.4181C20.7498 15.258 21.0005 15.1811 21.1704 15.0275C21.3483 14.8738 21.4373 14.6513 21.4373 14.3601C21.4373 13.8101 21.0854 13.5351 20.3817 13.5351H19.3018ZM20.6486 18.5704C21.0126 18.5704 21.2836 18.4855 21.4616 18.3156C21.6476 18.1376 21.7406 17.9071 21.7406 17.624C21.7406 17.0416 21.3928 16.7504 20.6972 16.7504H19.3018V18.5704H20.6486ZM16.4666 9.99999H24.6C25.1523 9.99999 25.6 10.4477 25.6 11V21C25.6 21.5523 25.1523 22 24.6 22H16.4666C15.9144 22 15.4666 21.5523 15.4666 21V11C15.4666 10.4477 15.9144 9.99999 16.4666 9.99999ZM14.4666 11C14.4666 9.89542 15.3621 8.99999 16.4666 8.99999H24.6C25.7045 8.99999 26.6 9.89542 26.6 11V21C26.6 22.1046 25.7045 23 24.6 23H16.4666C15.3621 23 14.4666 22.1046 14.4666 21V11Z" fill="white"/>
</g>
<defs>
<clipPath id="clip0_6311_41140">
<rect width="32" height="32" fill="white"/>
</clipPath>
</defs>
</svg>
