<svg width="32" height="32" viewBox="0 0 32 32" fill="none" xmlns="http://www.w3.org/2000/svg">
<path fill-rule="evenodd" clip-rule="evenodd" d="M29.1569 12.0041C28.5079 12.0632 20.6402 12.5364 11.5913 11.4718C4.20133 10.6024 3.61138 10.5158 3.01885 10.4539C2.88585 10.44 2.75271 10.4273 2.54251 10.4073C-1.18348 10.0531 0.456645 14.5082 1.25823 15.7654C2.25754 17.3328 2.61268 19.0928 2.95758 20.802C3.2411 22.207 3.51769 23.5777 4.13949 24.7789C5.07158 26.5795 7.39694 28.2175 15.3173 27.9727C23.5821 28.2175 26.835 26.7831 27.8594 24.9826C27.8925 24.8832 27.967 24.7565 28.0554 24.6063C28.1973 24.365 28.3749 24.0631 28.4737 23.7162C28.6604 23.0611 28.7827 22.4854 28.8964 21.9495C29.1593 20.7117 29.3768 19.6872 30.2388 18.3915C31.0753 17.1342 33.7567 11.5851 29.1569 12.0041ZM9.97816 24.2265H12.1136V21.3309H15.1995V19.5302H12.1136V17.5106H15.6562V15.71H9.97816V24.2265ZM16.5689 17.8513V24.2265H18.5932V20.4306C19.0294 19.8547 19.4902 19.5667 19.9757 19.5667C20.4694 19.5667 20.7163 19.8871 20.7163 20.5279V24.2265H22.753V19.8587C22.753 19.1612 22.5514 18.6178 22.1482 18.2284C21.7449 17.8391 21.1936 17.6444 20.4941 17.6444C20.0333 17.6444 19.6301 17.7377 19.2845 17.9243C18.9389 18.1027 18.6179 18.3866 18.3217 18.7759H18.26L17.939 17.8513H16.5689Z" fill="white"/>
<path d="M18.1478 9.32285H13.8895V4H15.393V8.13661H18.1478V9.32285Z" fill="white" fill-opacity="0.5"/>
</svg>
