<svg width="32" height="32" viewBox="0 0 32 32" fill="none" xmlns="http://www.w3.org/2000/svg">
<g clip-path="url(#clip0_6311_41140)">
<path fill-rule="evenodd" clip-rule="evenodd" d="M24.1453 27.0214L31.9587 19.2862L32.04 0L12.7537 0.0812314L5.0186 7.89462C-0.307779 13.221 -0.344 21.8206 4.9377 27.1023C10.2194 32.384 18.819 32.3477 24.1453 27.0214ZM7 20.2934H12.9453V18.4006H9.09907V11.8H7V20.2934ZM22.4323 15.7555C22.9985 15.9415 23.3989 16.2084 23.6335 16.5563C23.8761 16.9041 23.9975 17.3247 23.9975 17.8181C23.9975 18.3196 23.8681 18.7564 23.6092 19.1285C23.3584 19.5006 22.9945 19.7878 22.5172 19.99C22.0481 20.1922 21.498 20.2933 20.8671 20.2933H17.1664V11.8H20.5273C21.5546 11.8 22.3069 11.9901 22.7841 12.3703C23.2695 12.7424 23.5121 13.2722 23.5121 13.9597C23.5121 14.7767 23.1522 15.3753 22.4323 15.7555ZM19.3019 13.5351V15.258H20.4181C20.7498 15.258 21.0005 15.1812 21.1704 15.0275C21.3484 14.8738 21.4373 14.6513 21.4373 14.3601C21.4373 13.8101 21.0855 13.5351 20.3817 13.5351H19.3019ZM20.6487 18.5704C21.0127 18.5704 21.2837 18.4855 21.4616 18.3156C21.6477 18.1376 21.7407 17.9071 21.7407 17.624C21.7407 17.0416 21.3929 16.7504 20.6972 16.7504H19.3019V18.5704H20.6487ZM16.4667 10H24.6C25.1523 10 25.6 10.4477 25.6 11V21C25.6 21.5523 25.1523 22 24.6 22H16.4667C15.9144 22 15.4667 21.5523 15.4667 21V11C15.4667 10.4477 15.9144 10 16.4667 10ZM14.4667 11C14.4667 9.89543 15.3621 9 16.4667 9H24.6C25.7046 9 26.6 9.89543 26.6 11V21C26.6 22.1046 25.7046 23 24.6 23H16.4667C15.3621 23 14.4667 22.1046 14.4667 21V11Z" fill="white"/>
</g>
<defs>
<clipPath id="clip0_6311_41140">
<rect width="32" height="32" fill="white"/>
</clipPath>
</defs>
</svg>
