<svg width="32" height="32" viewBox="0 0 32 32" fill="none" xmlns="http://www.w3.org/2000/svg">
<g clip-path="url(#clip0_6311_41153)">
<path fill-rule="evenodd" clip-rule="evenodd" d="M7.88446 26.6698L0.0811252 18.9446L0 -0.316772L19.2614 -0.235647L26.9866 7.56768C32.3061 12.8872 32.3423 21.4757 27.0674 26.7506C21.7925 32.0255 13.204 31.9893 7.88446 26.6698ZM10.3018 20.2933H12.6314L10.6779 17.1751C11.1794 16.9486 11.5677 16.6169 11.8427 16.1801C12.1258 15.7353 12.2674 15.1852 12.2674 14.53C12.2674 13.6645 11.9762 12.9931 11.3938 12.5159C10.8114 12.0386 9.9135 11.8 8.70017 11.8H5.3999V20.2933H7.49897V17.5997H8.50604H8.68804L10.3018 20.2933ZM7.49897 15.804V13.5957H8.6031C9.09652 13.5957 9.45648 13.6847 9.68297 13.8627C9.90946 14.0325 10.0227 14.2914 10.0227 14.6392C10.0227 15.0194 9.89732 15.3106 9.64657 15.5128C9.4039 15.7069 9.06821 15.804 8.6395 15.804H7.49897ZM21.7656 15.7555C22.3318 15.9415 22.7322 16.2085 22.9668 16.5563C23.2094 16.9041 23.3308 17.3247 23.3308 17.8181C23.3308 18.3197 23.2013 18.7565 22.9425 19.1285C22.6917 19.5006 22.3277 19.7878 21.8505 19.99C21.3813 20.1922 20.8313 20.2933 20.2004 20.2933H16.4997V11.8H19.8606C20.8879 11.8 21.6402 11.9901 22.1174 12.3703C22.6028 12.7424 22.8454 13.2722 22.8454 13.9597C22.8454 14.7767 22.4855 15.3753 21.7656 15.7555ZM18.6352 13.5351V15.258H19.7514C20.0831 15.258 20.3338 15.1812 20.5037 15.0275C20.6816 14.8738 20.7706 14.6513 20.7706 14.3601C20.7706 13.8101 20.4188 13.5351 19.715 13.5351H18.6352ZM19.982 18.5704C20.346 18.5704 20.6169 18.4855 20.7949 18.3156C20.9809 18.1377 21.074 17.9071 21.074 17.624C21.074 17.0416 20.7261 16.7504 20.0305 16.7504H18.6352V18.5704H19.982ZM15.7089 9.95455H24.0241C24.5512 9.95455 24.9786 10.3819 24.9786 10.9091V21.0909C24.9786 21.6181 24.5512 22.0455 24.0241 22.0455H15.7089C15.1817 22.0455 14.7544 21.6181 14.7544 21.0909V10.9091C14.7544 10.3819 15.1817 9.95455 15.7089 9.95455ZM13.7998 10.9091C13.7998 9.85473 14.6545 9 15.7089 9H24.0241C25.0784 9 25.9331 9.85473 25.9331 10.9091V21.0909C25.9331 22.1453 25.0784 23 24.0241 23H15.7089C14.6545 23 13.7998 22.1453 13.7998 21.0909V10.9091Z" fill="white"/>
</g>
<defs>
<clipPath id="clip0_6311_41153">
<rect width="32" height="32" fill="white"/>
</clipPath>
</defs>
</svg>
