<svg width="32" height="32" viewBox="0 0 32 32" fill="none" xmlns="http://www.w3.org/2000/svg">
<path fill-rule="evenodd" clip-rule="evenodd" d="M2.81596 12.5017C3.46378 12.5607 11.3176 13.0331 20.3505 11.9704C27.7275 11.1025 28.3164 11.016 28.9079 10.9542C29.0407 10.9403 29.1736 10.9277 29.3834 10.9078C33.1028 10.5542 31.4656 15.0014 30.6654 16.2565C29.6679 17.8211 29.3134 19.578 28.9691 21.2841C28.686 22.6867 28.4099 24.055 27.7892 25.254C26.8588 27.0515 24.5375 28.6866 16.6311 28.4422C8.38088 28.6866 5.13374 27.2547 4.1111 25.4574C4.07809 25.3582 4.00369 25.2317 3.91548 25.0817C3.77382 24.8409 3.59656 24.5395 3.49787 24.1932C3.31151 23.5393 3.18947 22.9645 3.0759 22.4297C2.81353 21.194 2.59638 20.1713 1.73587 18.8779C0.900915 17.6228 -1.77577 12.0835 2.81596 12.5017ZM9.76416 24.1911H11.8958V21.3006H14.9763V19.5031H11.8958V17.487H15.4322V15.6896H9.76416V24.1911ZM16.3433 17.8271V24.1911H18.3641V20.4019C18.7994 19.827 19.2594 19.5396 19.7441 19.5396C20.237 19.5396 20.4834 19.8594 20.4834 20.499V24.1911H22.5165V19.831C22.5165 19.1347 22.3152 18.5922 21.9127 18.2036C21.5102 17.815 20.9598 17.6206 20.2616 17.6206C19.8016 17.6206 19.3991 17.7138 19.0541 17.9C18.7091 18.0781 18.3887 18.3615 18.093 18.7501H18.0314L17.711 17.8271H16.3433Z" fill="white"/>
<path d="M18.2658 9.31347H16.8964L15.9478 7.62834H15.8409H15.2489V9.31347H14.015V4H15.955C16.6682 4 17.196 4.14928 17.5383 4.44785C17.8807 4.74642 18.0518 5.16643 18.0518 5.7079C18.0518 6.1178 17.9686 6.46191 17.8022 6.74023C17.6405 7.01349 17.4123 7.22097 17.1175 7.36267L18.2658 9.31347ZM15.2489 5.12342V6.50492H15.9193C16.1713 6.50492 16.3686 6.44419 16.5113 6.32274C16.6587 6.19623 16.7324 6.01406 16.7324 5.77622C16.7324 5.55862 16.6658 5.39668 16.5327 5.29041C16.3995 5.17908 16.1879 5.12342 15.8979 5.12342H15.2489Z" fill="white" fill-opacity="0.5"/>
</svg>
