<svg width="32" height="32" viewBox="0 0 32 32" fill="none" xmlns="http://www.w3.org/2000/svg">
<g clip-path="url(#clip0_6311_41153)">
<path fill-rule="evenodd" clip-rule="evenodd" d="M24.7731 26.5768L32.5765 18.8516L32.6576 -0.40979L13.3962 -0.328665L5.67102 7.47467C0.351498 12.7942 0.315324 21.3827 5.59023 26.6576C10.8651 31.9325 19.4536 31.8963 24.7731 26.5768ZM10.3018 20.2933H12.6314L10.678 17.1751C11.1795 16.9486 11.5678 16.6169 11.8428 16.1801C12.1259 15.7353 12.2674 15.1852 12.2674 14.53C12.2674 13.6645 11.9762 12.9931 11.3938 12.5159C10.8114 12.0386 9.91358 11.8 8.70024 11.8H5.39998V20.2933H7.49904V17.5997H8.50611H8.68811L10.3018 20.2933ZM7.49904 15.804V13.5957H8.60318C9.0966 13.5957 9.45655 13.6847 9.68304 13.8627C9.90953 14.0325 10.0228 14.2914 10.0228 14.6392C10.0228 15.0194 9.8974 15.3106 9.64664 15.5128C9.40398 15.7069 9.06829 15.804 8.63958 15.804H7.49904ZM21.7656 15.7555C22.3318 15.9415 22.7322 16.2085 22.9668 16.5563C23.2095 16.9041 23.3308 17.3247 23.3308 17.8181C23.3308 18.3197 23.2014 18.7565 22.9426 19.1285C22.6918 19.5006 22.3278 19.7878 21.8506 19.99C21.3814 20.1922 20.8314 20.2933 20.2004 20.2933H16.4998V11.8H19.8607C20.888 11.8 21.6402 11.9901 22.1175 12.3703C22.6028 12.7424 22.8455 13.2722 22.8455 13.9597C22.8455 14.7767 22.4855 15.3753 21.7656 15.7555ZM18.6352 13.5351V15.258H19.7515C20.0831 15.258 20.3339 15.1812 20.5038 15.0275C20.6817 14.8738 20.7707 14.6513 20.7707 14.3601C20.7707 13.8101 20.4188 13.5351 19.7151 13.5351H18.6352ZM19.982 18.5704C20.346 18.5704 20.617 18.4855 20.795 18.3156C20.981 18.1377 21.074 17.9071 21.074 17.624C21.074 17.0416 20.7262 16.7504 20.0306 16.7504H18.6352V18.5704H19.982ZM15.709 9.95454H24.0241C24.5513 9.95454 24.9787 10.3819 24.9787 10.9091V21.0909C24.9787 21.6181 24.5513 22.0455 24.0241 22.0455H15.709C15.1818 22.0455 14.7544 21.6181 14.7544 21.0909V10.9091C14.7544 10.3819 15.1818 9.95454 15.709 9.95454ZM13.7999 10.9091C13.7999 9.85473 14.6546 9 15.709 9H24.0241C25.0785 9 25.9332 9.85473 25.9332 10.9091V21.0909C25.9332 22.1453 25.0785 23 24.0241 23H15.709C14.6546 23 13.7999 22.1453 13.7999 21.0909V10.9091Z" fill="white"/>
</g>
<defs>
<clipPath id="clip0_6311_41153">
<rect width="32" height="32" fill="white"/>
</clipPath>
</defs>
</svg>
