<svg width="64" height="64" viewBox="0 0 64 64" fill="none" xmlns="http://www.w3.org/2000/svg">
<path d="M31.9523 3C16.7187 3 4.24444 14.7952 3.05551 29.7899L18.5943 36.2463C19.9104 35.3394 21.4999 34.8158 23.2165 34.8158C23.3691 34.8158 23.5217 34.8221 23.6743 34.8285L30.5854 24.7576C30.5854 24.7129 30.5854 24.6618 30.5854 24.6171C30.5854 18.563 35.4937 13.6329 41.521 13.6329C47.5483 13.6329 52.4566 18.563 52.4566 24.6171C52.4566 30.6711 47.5483 35.6012 41.521 35.6012C41.4383 35.6012 41.3557 35.6012 41.273 35.5949L31.4119 42.6643C31.4182 42.792 31.4182 42.9262 31.4182 43.0539C31.4182 47.6008 27.737 51.2984 23.2102 51.2984C19.2364 51.2984 15.9176 48.4502 15.161 44.676L4.05371 40.0588C7.49335 52.2818 18.677 61.248 31.9523 61.248C47.9679 61.248 60.9445 48.2075 60.9445 32.1272C60.9445 16.0405 47.9616 3 31.9523 3Z" fill="white"/>
<path d="M21.2266 47.1924L17.6662 45.7172C18.2956 47.0391 19.3892 48.1439 20.8388 48.7506C23.9732 50.0597 27.5845 48.5654 28.8943 45.417C29.5237 43.8907 29.5301 42.2112 28.9006 40.6849C28.2776 39.1586 27.095 37.9644 25.5754 37.3322C24.0686 36.6999 22.4537 36.7255 21.0359 37.2619L24.7171 38.7882C27.0314 39.7589 28.125 42.4219 27.1586 44.7465C26.1922 47.0583 23.5409 48.1567 21.2266 47.1924Z" fill="white"/>
<path d="M48.8069 24.6175C48.8069 20.5814 45.5389 17.299 41.5207 17.299C37.5025 17.299 34.2345 20.5814 34.2345 24.6175C34.2345 28.6535 37.5025 31.936 41.5207 31.936C45.5389 31.936 48.8069 28.6535 48.8069 24.6175ZM36.0592 24.6047C36.0592 21.5713 38.5134 19.1062 41.5334 19.1062C44.5598 19.1062 47.0076 21.5649 47.0076 24.6047C47.0076 27.6445 44.5598 30.1032 41.5334 30.1032C38.507 30.1032 36.0592 27.6445 36.0592 24.6047Z" fill="white"/>
</svg>
