<svg width="32" height="32" viewBox="0 0 32 32" fill="none" xmlns="http://www.w3.org/2000/svg">
<path d="M15.9762 1.5C8.35937 1.5 2.12224 7.3976 1.52777 14.8949L9.29716 18.1231C9.95521 17.6697 10.75 17.4079 11.6083 17.4079C11.6846 17.4079 11.7609 17.4111 11.8372 17.4143L15.2927 12.3788C15.2927 12.3564 15.2927 12.3309 15.2927 12.3085C15.2927 9.28151 17.7469 6.81646 20.7605 6.81646C23.7742 6.81646 26.2283 9.28151 26.2283 12.3085C26.2283 15.3356 23.7742 17.8006 20.7605 17.8006C20.7192 17.8006 20.6779 17.8006 20.6365 17.7974L15.706 21.3322C15.7091 21.396 15.7091 21.4631 15.7091 21.5269C15.7091 23.8004 13.8685 25.6492 11.6051 25.6492C9.61824 25.6492 7.95882 24.2251 7.58052 22.338L2.02687 20.0294C3.74669 26.1409 9.33849 30.624 15.9762 30.624C23.984 30.624 30.4723 24.1037 30.4723 16.0636C30.4723 8.02025 23.9808 1.5 15.9762 1.5Z" fill="white"/>
<path d="M10.6133 23.5963L8.8331 22.8587C9.14782 23.5197 9.6946 24.0721 10.4194 24.3754C11.9866 25.03 13.7923 24.2828 14.4472 22.7086C14.7619 21.9455 14.7651 21.1057 14.4503 20.3426C14.1388 19.5794 13.5475 18.9823 12.7877 18.6662C12.0343 18.3501 11.2269 18.3629 10.518 18.6311L12.3586 19.3942C13.5157 19.8796 14.0625 21.2111 13.5793 22.3734C13.0961 23.5293 11.7705 24.0785 10.6133 23.5963Z" fill="white"/>
<path d="M24.4034 12.3087C24.4034 10.2907 22.7695 8.64941 20.7603 8.64941C18.7512 8.64941 17.1172 10.2907 17.1172 12.3087C17.1172 14.3267 18.7512 15.9679 20.7603 15.9679C22.7695 15.9679 24.4034 14.3267 24.4034 12.3087ZM18.0296 12.3023C18.0296 10.7856 19.2567 9.55305 20.7667 9.55305C22.2799 9.55305 23.5038 10.7824 23.5038 12.3023C23.5038 13.8222 22.2799 15.0515 20.7667 15.0515C19.2535 15.0515 18.0296 13.8222 18.0296 12.3023Z" fill="white"/>
</svg>
