<svg width="64" height="64" viewBox="0 0 64 64" fill="none" xmlns="http://www.w3.org/2000/svg">
<path fill-rule="evenodd" clip-rule="evenodd" d="M32 3C48.0163 3 61 15.9837 61 32C61 48.0163 48.0163 61 32 61C15.9837 61 3 48.0163 3 32C3 15.9837 15.9837 3 32 3ZM15.6087 24.4348C11.4305 24.4348 8.04348 27.8218 8.04348 32C8.04348 36.1782 11.4305 39.5652 15.6087 39.5652L24.4348 39.5652L24.4348 48.3913C24.4348 52.5695 27.8218 55.9565 32 55.9565C36.1782 55.9565 39.5652 52.5695 39.5652 48.3913L39.5652 39.5652L48.3913 39.5652C52.5695 39.5652 55.9565 36.1782 55.9565 32C55.9565 27.8218 52.5695 24.4348 48.3913 24.4348L39.5652 24.4348L39.5652 15.6087C39.5652 11.4305 36.1782 8.04348 32 8.04348C27.8218 8.04348 24.4348 11.4305 24.4348 15.6087L24.4348 24.4348L15.6087 24.4348ZM16.8696 26.9565L11.8261 32L16.8696 37.0435L16.8696 26.9565Z" fill="white"/>
</svg>
