<svg width="32" height="32" viewBox="0 0 32 32" fill="none" xmlns="http://www.w3.org/2000/svg">
<path fill-rule="evenodd" clip-rule="evenodd" d="M16 1.5C24.0081 1.5 30.5 7.99187 30.5 16C30.5 24.0081 24.0081 30.5 16 30.5C7.99187 30.5 1.5 24.0081 1.5 16C1.5 7.99187 7.99187 1.5 16 1.5ZM7.80436 12.2174C5.71528 12.2174 4.02175 13.9109 4.02175 16C4.02175 18.089 5.71528 19.7826 7.80435 19.7826L12.2174 19.7826L12.2174 24.1956C12.2174 26.2847 13.9109 27.9782 16 27.9782C18.0891 27.9782 19.7826 26.2847 19.7826 24.1956L19.7826 19.7826L24.1957 19.7826C26.2847 19.7826 27.9783 18.089 27.9783 16C27.9783 13.9109 26.2847 12.2174 24.1957 12.2174L19.7826 12.2174L19.7826 7.80434C19.7826 5.71526 18.0891 4.02173 16 4.02173C13.9109 4.02173 12.2174 5.71526 12.2174 7.80433L12.2174 12.2174L7.80436 12.2174ZM8.43478 13.4783L5.91304 16L8.43478 18.5217L8.43478 13.4783Z" fill="white"/>
</svg>
