<svg width="64" height="64" viewBox="0 0 64 64" fill="none" xmlns="http://www.w3.org/2000/svg">
<path fill-rule="evenodd" clip-rule="evenodd" d="M27.8069 6.57687L21.9608 0H42.0391L36.193 6.57685L32 11.2941L31.9999 11.2941L27.8069 6.57687ZM39.5294 18.8235C39.5294 15.6771 37.5994 12.9814 34.8587 11.8558L39.0491 7.14146C51.5822 10.2872 60.8627 21.6285 60.8627 35.1372C60.8627 51.0777 47.9404 64 32 64C16.0595 64 3.13724 51.0777 3.13724 35.1372C3.13724 21.6285 12.4177 10.2873 24.9507 7.14149L29.1412 11.8558C26.4005 12.9814 24.4706 15.6771 24.4706 18.8235L24.4706 27.6078L15.6862 27.6078C11.5278 27.6078 8.15681 30.9788 8.15681 35.1372C8.15681 39.2956 11.5278 42.6666 15.6862 42.6666H24.4706L24.4706 51.451C24.4706 55.6094 27.8416 58.9804 32 58.9804C36.1584 58.9804 39.5294 55.6094 39.5294 51.451V42.6666H48.3137C52.4721 42.6666 55.8431 39.2956 55.8431 35.1372C55.8431 30.9788 52.4721 27.6078 48.3137 27.6078L39.5294 27.6078V18.8235Z" fill="white"/>
</svg>
