<svg width="32" height="32" viewBox="0 0 32 32" fill="none" xmlns="http://www.w3.org/2000/svg">
<path fill-rule="evenodd" clip-rule="evenodd" d="M1.5 16C1.5 7.99187 7.99187 1.5 16 1.5C24.0081 1.5 30.5 7.99187 30.5 16C30.5 24.0081 24.0081 30.5 16 30.5C7.99187 30.5 1.5 24.0081 1.5 16ZM12.2174 24.1957C12.2174 26.2848 13.9109 27.9783 16 27.9783C18.0891 27.9783 19.7826 26.2848 19.7826 24.1957V19.7826H24.1957C26.2847 19.7826 27.9783 18.0891 27.9783 16C27.9783 13.911 26.2848 12.2174 24.1957 12.2174L19.7826 12.2174V7.80438C19.7826 5.7153 18.0891 4.02177 16 4.02177C13.9109 4.02177 12.2174 5.7153 12.2174 7.80437V12.2174L7.80437 12.2174C5.71529 12.2174 4.02176 13.911 4.02176 16C4.02176 18.0891 5.71528 19.7826 7.80436 19.7826H12.2174V24.1957ZM16 19.7826C18.0891 19.7826 19.7826 18.0891 19.7826 16C19.7826 13.9109 18.0891 12.2174 16 12.2174C13.9109 12.2174 12.2174 13.9109 12.2174 16C12.2174 18.0891 13.9109 19.7826 16 19.7826Z" fill="white"/>
</svg>
