<svg width="32" height="32" viewBox="0 0 32 32" fill="none" xmlns="http://www.w3.org/2000/svg">
<path fill-rule="evenodd" clip-rule="evenodd" d="M16 1.5C7.99187 1.5 1.5 7.99187 1.5 16C1.5 24.0081 7.99187 30.5 16 30.5C24.0081 30.5 30.5 24.0081 30.5 16C30.5 7.99187 24.0081 1.5 16 1.5ZM16 27.9783C13.9109 27.9783 12.2174 26.2848 12.2174 24.1957L12.2174 19.7826L7.80436 19.7826C5.71528 19.7826 4.02175 18.0891 4.02175 16C4.02175 13.911 5.71529 12.2174 7.80436 12.2174L12.2174 12.2174L12.2174 7.80437C12.2174 5.7153 13.9109 4.02177 16 4.02177C18.0891 4.02177 19.7826 5.7153 19.7826 7.80438L19.7826 12.2174L24.1957 12.2174C26.2847 12.2174 27.9783 13.911 27.9783 16C27.9783 18.0891 26.2847 19.7826 24.1957 19.7826L19.7826 19.7826L19.7826 24.1957C19.7826 26.2848 18.0891 27.9783 16 27.9783Z" fill="white"/>
</svg>
