<svg width="64" height="64" viewBox="0 0 64 64" fill="none" xmlns="http://www.w3.org/2000/svg">
<path fill-rule="evenodd" clip-rule="evenodd" d="M32 2.99999C15.9837 2.99999 3 15.9837 3 32C3 48.0162 15.9837 61 32 61C48.0163 61 61 48.0163 61 32C61 15.9837 48.0163 3 32 2.99999ZM31.9999 55.9565C27.8218 55.9565 24.4347 52.5695 24.4347 48.3913L24.4347 39.5653L15.6087 39.5653C11.4305 39.5652 8.04346 36.1782 8.04346 32C8.04346 27.8219 11.4305 24.4348 15.6087 24.4348L24.4347 24.4348L24.4347 15.6087C24.4347 11.4306 27.8218 8.0435 31.9999 8.0435C36.1781 8.0435 39.5652 11.4306 39.5652 15.6087L39.5652 24.4348L48.3913 24.4348C52.5694 24.4348 55.9565 27.8219 55.9565 32C55.9565 36.1782 52.5694 39.5653 48.3913 39.5653L39.5652 39.5653L39.5652 48.3913C39.5652 52.5695 36.1781 55.9565 31.9999 55.9565Z" fill="white"/>
</svg>
