<svg width="32" height="32" viewBox="0 0 32 32" fill="none" xmlns="http://www.w3.org/2000/svg">
<path fill-rule="evenodd" clip-rule="evenodd" d="M30.5 16C30.5 24.0081 24.0081 30.5 16 30.5C7.99187 30.5 1.5 24.0081 1.5 16C1.5 7.99187 7.99187 1.5 16 1.5C24.0081 1.5 30.5 7.99187 30.5 16ZM19.7826 7.80438C19.7826 5.7153 18.0891 4.02177 16 4.02177C13.9109 4.02177 12.2174 5.7153 12.2174 7.80438L12.2174 12.2174H7.80434C5.71526 12.2174 4.02173 13.911 4.02173 16C4.02173 18.0891 5.71526 19.7826 7.80434 19.7826L12.2174 19.7826V24.1957C12.2174 26.2848 13.9109 27.9783 16 27.9783C18.0891 27.9783 19.7826 26.2848 19.7826 24.1957V19.7826H24.1956C26.2847 19.7826 27.9783 18.0891 27.9783 16C27.9783 13.911 26.2847 12.2174 24.1957 12.2174H19.7826V7.80438ZM18.5217 8.43481L16 5.91307L13.4783 8.43481L18.5217 8.43481Z" fill="white"/>
</svg>
