<svg width="32" height="32" viewBox="0 0 32 32" fill="none" xmlns="http://www.w3.org/2000/svg">
<path fill-rule="evenodd" clip-rule="evenodd" d="M16 30.5C7.99187 30.5 1.5 24.0081 1.5 16C1.5 7.99187 7.99187 1.5 16 1.5C24.0081 1.5 30.5 7.99187 30.5 16C30.5 24.0081 24.0081 30.5 16 30.5ZM24.1957 19.7826C26.2847 19.7826 27.9783 18.0891 27.9783 16C27.9783 13.911 26.2847 12.2174 24.1957 12.2174L19.7826 12.2174L19.7826 7.80436C19.7826 5.71528 18.0891 4.02175 16 4.02175C13.9109 4.02175 12.2174 5.71528 12.2174 7.80436L12.2174 12.2174L7.80435 12.2174C5.71527 12.2174 4.02174 13.911 4.02174 16C4.02174 18.0891 5.71527 19.7826 7.80434 19.7826L12.2174 19.7826L12.2174 24.1957C12.2174 26.2847 13.9109 27.9783 16 27.9783C18.0891 27.9783 19.7826 26.2847 19.7826 24.1957L19.7826 19.7826L24.1957 19.7826ZM23.5652 18.5218L26.087 16L23.5652 13.4783L23.5652 18.5218Z" fill="white"/>
</svg>
