<svg width="64" height="64" viewBox="0 0 64 64" fill="none" xmlns="http://www.w3.org/2000/svg">
<path fill-rule="evenodd" clip-rule="evenodd" d="M3 32C3 15.9837 15.9837 3 32 3C48.0163 3 61 15.9837 61 32C61 48.0163 48.0163 61 32 61C15.9837 61 3 48.0163 3 32ZM24.4348 48.3913C24.4348 52.5695 27.8218 55.9565 32 55.9565C36.1782 55.9565 39.5652 52.5695 39.5652 48.3913L39.5652 39.5652H48.3913C52.5695 39.5652 55.9565 36.1782 55.9565 32C55.9565 27.8219 52.5695 24.4348 48.3913 24.4348L39.5652 24.4348V15.6087C39.5652 11.4305 36.1782 8.04348 32 8.04348C27.8218 8.04348 24.4348 11.4305 24.4348 15.6087V24.4348L15.6087 24.4348C11.4305 24.4348 8.04348 27.8218 8.04348 32C8.04348 36.1782 11.4305 39.5652 15.6087 39.5652H24.4348V48.3913ZM43.3478 29.266L46.0819 31.9941L43.3478 34.7281L44.3964 35.7826L48.179 31.9941L44.3964 28.2174L43.3478 29.266ZM48.5434 28.2174L52.326 31.9941L48.5434 35.7826L47.4948 34.734L50.2288 31.9941L47.4948 29.2601L48.5434 28.2174ZM15.6087 35.7826L11.8261 32.0059L15.6087 28.2174L16.6573 29.266L13.9233 32.0059L16.6573 34.74L15.6087 35.7826ZM20.8042 34.734L18.0702 32.0059L20.8042 29.2719L19.7556 28.2174L15.973 32.0059L19.7556 35.7826L20.8042 34.734Z" fill="white"/>
</svg>
