<svg width="64" height="64" viewBox="0 0 64 64" fill="none" xmlns="http://www.w3.org/2000/svg">
<path fill-rule="evenodd" clip-rule="evenodd" d="M3 32C3 15.9837 15.9837 3 32 3C48.0163 3 61 15.9837 61 32C61 48.0163 48.0163 61 32 61C15.9837 61 3 48.0163 3 32ZM24.4347 48.3913C24.4347 52.5695 27.8218 55.9566 32 55.9566C36.1781 55.9566 39.5652 52.5695 39.5652 48.3913V39.5653H48.3913C52.5695 39.5653 55.9565 36.1782 55.9565 32C55.9565 27.8219 52.5695 24.4348 48.3913 24.4348L39.5652 24.4348V15.6087C39.5652 11.4306 36.1781 8.04351 32 8.04351C27.8218 8.04351 24.4348 11.4306 24.4347 15.6087V24.4348L15.6087 24.4348C11.4305 24.4348 8.04348 27.8219 8.04348 32C8.04348 36.1782 11.4305 39.5653 15.6087 39.5653H24.4347V48.3913ZM32 39.5653C36.1781 39.5653 39.5652 36.1782 39.5652 32.0001C39.5652 27.8219 36.1781 24.4348 32 24.4348C27.8218 24.4348 24.4348 27.8219 24.4348 32.0001C24.4348 36.1782 27.8218 39.5653 32 39.5653Z" fill="white"/>
</svg>
