<svg width="32" height="32" viewBox="0 0 32 32" fill="none" xmlns="http://www.w3.org/2000/svg">
<path fill-rule="evenodd" clip-rule="evenodd" d="M16 5.64706L10.9804 0H21.0196L16 5.64706ZM19.7647 9.41181C19.7647 7.83856 18.7997 6.49071 17.4293 5.9279L19.5246 3.57069C25.7911 5.14358 30.4314 10.8142 30.4314 17.5686C30.4314 25.5388 23.9702 32 16 32C8.02978 32 1.56863 25.5388 1.56863 17.5686C1.56863 10.8142 6.20885 5.14362 12.4754 3.57071L14.5707 5.92793C13.2003 6.49075 12.2353 7.83858 12.2353 9.41181L12.2353 13.8039H7.84313C5.76395 13.8039 4.07843 15.4894 4.07843 17.5686C4.07843 19.6478 5.76394 21.3333 7.84313 21.3333H12.2353V25.7255C12.2353 27.8047 13.9208 29.4902 16 29.4902C18.0792 29.4902 19.7647 27.8047 19.7647 25.7255V21.3333L24.1569 21.3333C26.236 21.3333 27.9216 19.6478 27.9216 17.5686C27.9216 15.4894 26.2361 13.8039 24.1569 13.8039H19.7647L19.7647 9.41181Z" fill="white"/>
</svg>
