<svg width="32" height="32" viewBox="0 0 32 32" fill="none" xmlns="http://www.w3.org/2000/svg">
<path fill-rule="evenodd" clip-rule="evenodd" d="M1.5 16C1.5 7.99187 7.99187 1.5 16 1.5C24.0081 1.5 30.5 7.99187 30.5 16C30.5 24.0081 24.0081 30.5 16 30.5C7.99187 30.5 1.5 24.0081 1.5 16ZM12.2174 24.1956C12.2174 26.2847 13.9109 27.9782 16 27.9782C18.0891 27.9782 19.7826 26.2847 19.7826 24.1956V19.7826H24.1957C26.2847 19.7826 27.9783 18.089 27.9783 16C27.9783 13.9109 26.2847 12.2174 24.1957 12.2174L19.7826 12.2174V7.80431C19.7826 5.71524 18.0891 4.02171 16 4.02171C13.9109 4.02171 12.2174 5.71523 12.2174 7.80431V12.2174L7.80435 12.2174C5.71527 12.2174 4.02174 13.9109 4.02174 16C4.02174 18.089 5.71527 19.7826 7.80434 19.7826H12.2174V24.1956ZM7.80435 17.8913L5.91304 16.003L7.80435 14.1087L8.32864 14.633L6.96163 16.003L8.32864 17.37L7.80435 17.8913ZM10.4021 17.367L9.0351 16.003L10.4021 14.6359L9.87782 14.1087L7.98652 16.003L9.87782 17.8913L10.4021 17.367ZM21.6739 14.633L23.0409 15.997L21.6739 17.3641L22.1982 17.8913L24.0895 15.997L22.1982 14.1087L21.6739 14.633ZM24.2717 14.1087L26.163 15.997L24.2717 17.8913L23.7474 17.367L25.1144 15.997L23.7474 14.63L24.2717 14.1087Z" fill="white"/>
</svg>
