<svg width="32" height="32" viewBox="0 0 32 32" fill="none" xmlns="http://www.w3.org/2000/svg">
<path fill-rule="evenodd" clip-rule="evenodd" d="M9.6 0L13.9719 4.91835L13.9718 4.91834L16 7.20002L17.5824 5.41981L17.5823 5.41981L22.3999 0H9.6ZM11.5296 4.57915L16 9.60834L19.4878 5.68446L30.3999 7.20003V18.743C30.3999 26.0646 24.4646 32 17.143 32C10.5261 32 4.92236 27.1207 4.01208 20.5667L1.60004 3.20004L11.5296 4.57915ZM11.4038 21.9428H16.8918V20.1956H13.3414V14.1029H11.4038V21.9428ZM19.289 21.9428H21.2266V15.7604H23.5114V14.1029H17.0042V15.7604H19.289V21.9428Z" fill="white"/>
</svg>
