<svg width="64" height="64" viewBox="0 0 64 64" fill="none" xmlns="http://www.w3.org/2000/svg">
<path opacity="0.5" fill-rule="evenodd" clip-rule="evenodd" d="M31.2381 41.6508L15.7003 57.1886C20.8349 61.4605 27.4238 64 34.54 64C50.8103 64 64 50.8103 64 34.54V8.88892L48.6603 24.2286H48.692V27.9122H44.9768L43.6147 29.2742V41.6508H39.3089V33.58L33.9817 38.9072V41.6508H31.2381Z" fill="white"/>
<path fill-rule="evenodd" clip-rule="evenodd" d="M0 0L64 8.88888L48.6602 24.2286H34.2316V27.9122H39.3089V33.5799L33.9817 38.9071V37.7682H26.092V24.2286H21.7862V41.6508H31.238L15.7003 57.1885C10.2253 52.6334 6.40398 46.1086 5.3601 38.5927L0 0ZM43.6147 29.2742L44.9767 27.9122H43.6147V29.2742Z" fill="white"/>
</svg>
