<svg width="32" height="32" viewBox="0 0 32 32" fill="none" xmlns="http://www.w3.org/2000/svg">
<g clip-path="url(#clip0_1967_17676)">
<path fill-rule="evenodd" clip-rule="evenodd" d="M7.09437 0.520528L30.4431 4.27387C31.5492 4.45168 32.189 5.65047 31.7823 6.6943C30.931 8.8789 29.7672 12.4333 29.7672 15.5385C29.7672 18.7746 31.0312 22.7237 31.8882 25.0293C32.2609 26.0322 31.6675 27.1641 30.6192 27.3776L7.30364 32.125C6.86168 32.215 6.40503 32.1248 6.06599 31.8273C4.48193 30.4376 0 25.615 0 15.5385C0 5.19994 4.71797 1.55656 6.18352 0.674204C6.45658 0.509802 6.77967 0.46994 7.09437 0.520528ZM21.7754 12.3933C21.2752 12.2214 20.7164 12.1354 20.0989 12.1354C19.3173 12.1354 18.6021 12.3035 17.9534 12.6395C17.3124 12.9756 16.8005 13.4759 16.4175 14.1402C16.0345 14.7968 15.843 15.5901 15.843 16.5202C15.843 17.4582 16.0384 18.2437 16.4292 18.8768C16.8278 19.5021 17.3398 19.9671 17.9651 20.272C18.5982 20.5768 19.2704 20.7292 19.9816 20.7292C20.6616 20.7292 21.283 20.6237 21.8458 20.4127C22.4164 20.2016 22.8931 19.9163 23.2761 19.5568V15.6175H19.5244V17.2354H21.3416V18.5016C21.0056 18.7361 20.5757 18.8533 20.052 18.8533C19.4501 18.8533 18.9577 18.6423 18.5747 18.2202C18.1996 17.7904 18.012 17.1924 18.012 16.4264C18.012 15.637 18.2113 15.0391 18.6099 14.6327C19.0164 14.2184 19.5518 14.0113 20.2161 14.0113C20.9196 14.0113 21.5605 14.191 22.1389 14.5506L23.1003 13.0382C22.7251 12.7724 22.2835 12.5575 21.7754 12.3933ZM8.68177 20.5416H14.4266V18.7127H10.71V12.3347H8.68177V20.5416Z" fill="white"/>
</g>
<defs>
<clipPath id="clip0_1967_17676">
<rect width="32" height="32" fill="white"/>
</clipPath>
</defs>
</svg>
