<svg width="32" height="32" viewBox="0 0 32 32" fill="none" xmlns="http://www.w3.org/2000/svg">
<g clip-path="url(#clip0_1967_20263)">
<path opacity="0.5" fill-rule="evenodd" clip-rule="evenodd" d="M2.68007 19.2965L3.05176e-05 0.000244141L12.1141 12.1143H10.8931V20.8254H16.9909V18.8841H13.046V13.0462L19.6544 19.6547V20.8254H20.8252L27.6856 27.6859C25.02 30.3514 21.3376 32.0001 17.27 32.0001C9.91785 32.0001 3.69149 26.5788 2.68007 19.2965Z" fill="white"/>
<path fill-rule="evenodd" clip-rule="evenodd" d="M32 17.27C32 21.3376 30.3513 25.0201 27.6857 27.6857L20.8254 20.8254H21.8073V13.9561H24.346V12.1143H17.1158V13.9561H19.6544V19.6545L13.046 13.046V12.1143H12.1143L0 0L32 4.44444V17.27Z" fill="white"/>
</g>
<defs>
<clipPath id="clip0_1967_20263">
<rect width="32" height="32" fill="white"/>
</clipPath>
</defs>
</svg>
