<svg width="64" height="64" viewBox="0 0 64 64" fill="none" xmlns="http://www.w3.org/2000/svg">
<path fill-rule="evenodd" clip-rule="evenodd" d="M3.42426 7.03072C1.61696 6.77253 0 8.17492 0 10.0006V48.5987L64 57.7415V18.2863C64 16.7933 62.9022 15.5276 61.4243 15.3164L3.42426 7.03072ZM18.7561 40.1418H29.7321V36.6474H22.6313V24.4618H18.7561V40.1418ZM45.2453 33.2426C44.8122 32.6005 44.073 32.1077 43.0277 31.7642C44.3567 31.0624 45.0213 29.9573 45.0213 28.449C45.0213 27.1797 44.5733 26.2016 43.6773 25.5146C42.7962 24.8128 41.4074 24.4618 39.5109 24.4618H33.3061V40.1418H40.1381C41.3029 40.1418 42.3183 39.9552 43.1845 39.5818C44.0655 39.2085 44.7375 38.6784 45.2005 37.9914C45.6783 37.3045 45.9173 36.4981 45.9173 35.5722C45.9173 34.6613 45.6933 33.8848 45.2453 33.2426ZM37.2485 30.8458V27.665H39.2421C40.5413 27.665 41.1909 28.1728 41.1909 29.1882C41.1909 29.7258 41.0266 30.1365 40.6981 30.4202C40.3845 30.704 39.9215 30.8458 39.3093 30.8458H37.2485ZM41.2357 36.4906C40.9071 36.8042 40.4069 36.961 39.7349 36.961H37.2485V33.601H39.8245C41.1087 33.601 41.7509 34.1386 41.7509 35.2138C41.7509 35.7365 41.5791 36.1621 41.2357 36.4906Z" fill="white"/>
</svg>
