<svg width="64" height="64" viewBox="0 0 64 64" fill="none" xmlns="http://www.w3.org/2000/svg">
<g clip-path="url(#clip0_1967:17676)">
<path fill-rule="evenodd" clip-rule="evenodd" d="M14.1887 1.04106L60.8862 8.54774C63.0984 8.90335 64.378 11.3009 63.5645 13.3886C61.8619 17.7578 59.5343 24.8665 59.5343 31.0769C59.5343 37.5491 62.0623 45.4474 63.7763 50.0587C64.5218 52.0643 63.335 54.3282 61.2383 54.7551L14.6073 64.2501C13.7234 64.4301 12.8101 64.2495 12.132 63.6546C8.96386 60.8751 0 51.2301 0 31.0769C0 10.3999 9.43593 3.11312 12.367 1.34841C12.9132 1.0196 13.5593 0.93988 14.1887 1.04106ZM43.5509 24.7867C42.5504 24.4428 41.4327 24.2708 40.1978 24.2708C38.6345 24.2708 37.2042 24.6069 35.9067 25.2791C34.6249 25.9513 33.601 26.9518 32.835 28.2805C32.069 29.5936 31.686 31.1803 31.686 33.0405C31.686 34.9164 32.0768 36.4874 32.8584 37.7536C33.6557 39.0042 34.6796 39.9343 35.9302 40.544C37.1964 41.1536 38.5408 41.4585 39.9633 41.4585C41.3233 41.4585 42.566 41.2474 43.6916 40.8254C44.8327 40.4033 45.7863 39.8327 46.5523 39.1136V31.235H39.0488V34.4709H42.6833V37.0033C42.0111 37.4722 41.1513 37.7067 40.104 37.7067C38.9003 37.7067 37.9155 37.2847 37.1495 36.4405C36.3991 35.5807 36.024 34.3849 36.024 32.8529C36.024 31.2741 36.4226 30.0782 37.2198 29.2653C38.0327 28.4368 39.1035 28.0226 40.4322 28.0226C41.8391 28.0226 43.121 28.3821 44.2778 29.1012L46.2005 26.0764C45.4502 25.5449 44.567 25.115 43.5509 24.7867ZM17.3635 41.0833H28.8532V37.4254H21.4201V24.6695H17.3635V41.0833Z" fill="white"/>
</g>
<defs>
<clipPath id="clip0_1967:17676">
<rect width="64" height="64" fill="white"/>
</clipPath>
</defs>
</svg>
