<svg width="32" height="32" viewBox="0 0 32 32" fill="none" xmlns="http://www.w3.org/2000/svg">
<path fill-rule="evenodd" clip-rule="evenodd" d="M3.42426 3.75996C1.61696 3.50178 0 4.90416 0 6.72981V24.2994L32 28.8708V10.4441C32 8.95115 30.9022 7.68538 29.4243 7.47425L3.42426 3.75996ZM9.37803 20.071H14.866V18.3238H11.3156V12.2309H9.37803V20.071ZM22.6226 16.6214C22.4061 16.3003 22.0365 16.0539 21.5138 15.8822C22.1784 15.5312 22.5106 14.9787 22.5106 14.2246C22.5106 13.5899 22.2866 13.1008 21.8386 12.7573C21.3981 12.4064 20.7037 12.2309 19.7554 12.2309H16.653V20.071H20.069C20.6514 20.071 21.1592 19.9776 21.5922 19.791C22.0328 19.6043 22.3688 19.3392 22.6002 18.9958C22.8392 18.6523 22.9586 18.2491 22.9586 17.7862C22.9586 17.3307 22.8466 16.9424 22.6226 16.6214ZM18.6242 15.4229V13.8326H19.621C20.2706 13.8326 20.5954 14.0864 20.5954 14.5941C20.5954 14.863 20.5133 15.0683 20.349 15.2102C20.1922 15.352 19.9608 15.4229 19.6546 15.4229H18.6242ZM20.6178 18.2454C20.4536 18.4022 20.2034 18.4806 19.8674 18.4806H18.6242V16.8006H19.9122C20.5544 16.8006 20.8754 17.0694 20.8754 17.607C20.8754 17.8683 20.7896 18.0811 20.6178 18.2454Z" fill="white"/>
</svg>
