<svg width="64" height="64" viewBox="0 0 64 64" fill="none" xmlns="http://www.w3.org/2000/svg">
<g clip-path="url(#clip0_1967:17692)">
<path fill-rule="evenodd" clip-rule="evenodd" d="M19.2 0L27.9439 9.83685L27.9437 9.83682L32 14.4002L35.1647 10.8398L35.1646 10.8397L44.7998 0H19.2ZM23.0592 9.15843L32 19.2168L38.9757 11.3691L60.7999 14.4002V37.4861C60.7999 52.1294 48.9292 64 34.286 64C21.0521 64 9.84471 54.2416 8.02415 41.1336L3.20007 6.40022L23.0592 9.15843ZM22.8077 43.8857H33.7836V40.3913H26.6829V28.2058H22.8077V43.8857ZM38.5781 43.8857H42.4533V31.5209H47.0228V28.2058H34.0085V31.5209H38.5781V43.8857Z" fill="white"/>
</g>
<defs>
<clipPath id="clip0_1967:17692">
<rect width="64" height="64" fill="white"/>
</clipPath>
</defs>
</svg>
