<svg width="32" height="32" viewBox="0 0 32 32" fill="none" xmlns="http://www.w3.org/2000/svg">
<g clip-path="url(#clip0_1967_20302)">
<path fill-rule="evenodd" clip-rule="evenodd" d="M0 17.27C0 21.3376 1.64872 25.0201 4.31435 27.6857L12.0939 19.9061L10.9895 18.0627H10.8028H9.76996V20.8254H7.61707V12.1143H11.002C12.2464 12.1143 13.1673 12.359 13.7646 12.8485C14.362 13.338 14.6606 14.0265 14.6606 14.9143C14.6606 15.5863 14.5154 16.1504 14.2251 16.6067C13.943 17.0547 13.5448 17.3948 13.0304 17.6271L13.5475 18.4525L18.044 13.956H16.3918V12.1143H19.8858L32 0L0 4.44444V17.27ZM9.76996 16.2209V13.956H10.9024C11.4085 13.956 11.7777 14.0473 12.01 14.2298C12.2423 14.404 12.3584 14.6695 12.3584 15.0263C12.3584 15.4162 12.2298 15.7148 11.9726 15.9223C11.7237 16.1214 11.3794 16.2209 10.9397 16.2209H9.76996Z" fill="white"/>
<path opacity="0.5" fill-rule="evenodd" clip-rule="evenodd" d="M29.3199 19.2964L32 0L19.8857 12.1142H23.622V13.956H21.0834V20.8253H18.9305V13.956H18.044L13.5475 18.4525L15.0339 20.8253H12.6446L12.0939 19.9061L4.31432 27.6857C6.97992 30.3513 10.6624 32 14.73 32C22.0821 32 28.3085 26.5786 29.3199 19.2964Z" fill="white"/>
</g>
<defs>
<clipPath id="clip0_1967_20302">
<rect width="32" height="32" fill="white"/>
</clipPath>
</defs>
</svg>
