<svg width="32" height="32" viewBox="0 0 32 32" fill="none" xmlns="http://www.w3.org/2000/svg">
<g clip-path="url(#clip0_1967_17710)">
<path fill-rule="evenodd" clip-rule="evenodd" d="M24.9056 0.520528L1.5569 4.27387C0.450825 4.45168 -0.18901 5.65047 0.217746 6.6943C1.06904 8.8789 2.23283 12.4333 2.23283 15.5385C2.23283 18.7746 0.968836 22.7237 0.111842 25.0293C-0.260908 26.0322 0.332479 27.1641 1.38084 27.3776L24.6964 32.125C25.1383 32.215 25.595 32.1248 25.934 31.8273C27.5181 30.4376 32 25.615 32 15.5385C32 5.19994 27.282 1.55656 25.8165 0.674204C25.5434 0.509802 25.2203 0.46994 24.9056 0.520528ZM23.2712 12.3933C22.771 12.2214 22.2121 12.1354 21.5947 12.1354C20.8131 12.1354 20.0979 12.3035 19.4491 12.6395C18.8082 12.9756 18.2963 13.4759 17.9133 14.1402C17.5303 14.7968 17.3388 15.5901 17.3388 16.5202C17.3388 17.4582 17.5342 18.2437 17.925 18.8768C18.3236 19.5021 18.8356 19.9671 19.4609 20.272C20.094 20.5768 20.7662 20.7292 21.4774 20.7292C22.1574 20.7292 22.7788 20.6237 23.3416 20.4127C23.9121 20.2016 24.3889 19.9163 24.7719 19.5568V15.6175H21.0202V17.2354H22.8374V18.5016C22.5013 18.7361 22.0715 18.8533 21.5478 18.8533C20.9459 18.8533 20.4535 18.6423 20.0705 18.2202C19.6954 17.7904 19.5078 17.1924 19.5078 16.4264C19.5078 15.637 19.7071 15.0391 20.1057 14.6327C20.5121 14.2184 21.0475 14.0113 21.7119 14.0113C22.4154 14.0113 23.0563 14.191 23.6347 14.5506L24.5961 13.0382C24.2209 12.7724 23.7793 12.5575 23.2712 12.3933ZM13.5974 20.5416H15.8485L13.9609 17.5285C14.4455 17.3097 14.8207 16.9892 15.0864 16.5671C15.36 16.1373 15.4967 15.6058 15.4967 14.9727C15.4967 14.1363 15.2154 13.4876 14.6526 13.0264C14.0898 12.5653 13.2223 12.3347 12.0498 12.3347H8.86088V20.5416H10.8892V17.9389H11.8623H12.0381L13.5974 20.5416ZM10.8892 16.2037V14.0699H11.9561C12.4328 14.0699 12.7807 14.1559 12.9995 14.3278C13.2184 14.492 13.3278 14.7421 13.3278 15.0782C13.3278 15.4455 13.2066 15.7269 12.9643 15.9223C12.7298 16.1099 12.4055 16.2037 11.9912 16.2037H10.8892Z" fill="white"/>
</g>
<defs>
<clipPath id="clip0_1967_17710">
<rect width="32" height="32" fill="white"/>
</clipPath>
</defs>
</svg>
