<svg width="32" height="32" viewBox="0 0 32 32" fill="none" xmlns="http://www.w3.org/2000/svg">
<path fill-rule="evenodd" clip-rule="evenodd" d="M14.73 32C22.0822 32 28.3085 26.5787 29.3199 19.2964L32 0L0 4.44444V17.27C0 25.4052 6.59485 32 14.73 32ZM12.8668 20.8254H15.2562L13.2526 17.6272C13.767 17.3949 14.1652 17.0547 14.4473 16.6067C14.7376 16.1504 14.8828 15.5863 14.8828 14.9143C14.8828 14.0266 14.5842 13.338 13.9868 12.8485C13.3895 12.359 12.4686 12.1143 11.2242 12.1143H7.83926V20.8254H9.99215V18.0627H11.025H11.2117L12.8668 20.8254ZM9.99215 16.221V13.9561H11.1246C11.6307 13.9561 11.9999 14.0473 12.2322 14.2298C12.4644 14.4041 12.5806 14.6695 12.5806 15.0263C12.5806 15.4162 12.452 15.7149 12.1948 15.9223C11.9459 16.1214 11.6016 16.221 11.1619 16.221H9.99215ZM19.1527 20.8254H21.3056V13.9561H23.8443V12.1143H16.614V13.9561H19.1527V20.8254Z" fill="white"/>
</svg>
