<svg width="32" height="32" viewBox="0 0 32 32" fill="none" xmlns="http://www.w3.org/2000/svg">
<g clip-path="url(#clip0_1967_20302)">
<path fill-rule="evenodd" clip-rule="evenodd" d="M0 0L32 4.44444L24.3301 12.1143H18.3918V13.9561H20.9305V15.5139L16.489 19.9554L15.0304 17.6272C15.5448 17.3949 15.943 17.0547 16.2251 16.6067C16.5154 16.1504 16.6606 15.5863 16.6606 14.9143C16.6606 14.0266 16.3619 13.338 15.7646 12.8485C15.1673 12.359 14.2464 12.1143 13.002 12.1143H9.61706V20.8254H11.77V18.0627H12.8028H12.9895L14.6446 20.8254H15.619L7.85013 28.5943C5.11266 26.3167 3.20199 23.0543 2.68005 19.2964L0 0ZM11.77 16.2209V13.9561H12.9024C13.4085 13.9561 13.7777 14.0473 14.01 14.2298C14.2422 14.4041 14.3584 14.6695 14.3584 15.0263C14.3584 15.4162 14.2298 15.7149 13.9726 15.9223C13.7237 16.1214 13.3794 16.2209 12.9397 16.2209H11.77Z" fill="white"/>
<path opacity="0.5" fill-rule="evenodd" clip-rule="evenodd" d="M15.619 20.8254L7.85014 28.5943C10.4174 30.7302 13.7119 32 17.27 32C25.4051 32 32 25.4052 32 17.27V4.44446L24.3301 12.1143H25.622V13.9561H23.0834V20.8254H20.9305V15.514L16.489 19.9555L17.0339 20.8254H15.619Z" fill="white"/>
</g>
<defs>
<clipPath id="clip0_1967_20302">
<rect width="32" height="32" fill="white"/>
</clipPath>
</defs>
</svg>
