<svg width="64" height="64" viewBox="0 0 64 64" fill="none" xmlns="http://www.w3.org/2000/svg">
<path fill-rule="evenodd" clip-rule="evenodd" d="M29.46 64C44.1643 64 56.617 53.1573 58.6399 38.5928L64 0L0 8.88889V34.54C0 50.8103 13.1897 64 29.46 64ZM25.7336 41.6508H30.5123L26.5052 35.2544C27.5339 34.7898 28.3304 34.1095 28.8945 33.2135C29.4753 32.3009 29.7656 31.1726 29.7656 29.8286C29.7656 28.0532 29.1683 26.676 27.9736 25.6971C26.779 24.7181 24.9372 24.2286 22.4483 24.2286H15.6785V41.6508H19.9843V36.1255H22.0501H22.4234L25.7336 41.6508ZM19.9843 32.4419V27.9122H22.2492C23.2613 27.9122 23.9997 28.0947 24.4643 28.4597C24.9289 28.8082 25.1612 29.3391 25.1612 30.0526C25.1612 30.8325 24.904 31.4298 24.3896 31.8446C23.8919 32.2428 23.2033 32.4419 22.3239 32.4419H19.9843ZM38.3054 41.6508H42.6112V27.9122H47.6885V24.2286H33.2281V27.9122H38.3054V41.6508Z" fill="white"/>
</svg>
