<svg width="32" height="32" viewBox="0 0 32 32" fill="none" xmlns="http://www.w3.org/2000/svg">
<path fill-rule="evenodd" clip-rule="evenodd" d="M3.42426 3.75993C1.61696 3.50175 0 4.90413 0 6.72978V24.2993L32 28.8708V10.4441C32 8.95112 30.9022 7.68535 29.4243 7.47422L3.42426 3.75993ZM13.3341 20.071H15.4845L13.6813 17.1926C14.1442 16.9836 14.5026 16.6774 14.7565 16.2742C15.0178 15.8636 15.1485 15.3558 15.1485 14.751C15.1485 13.9521 14.8797 13.3324 14.3421 12.8918C13.8045 12.4513 12.9757 12.231 11.8557 12.231H8.80926V20.071H10.7469V17.5846H11.6765H11.8445L13.3341 20.071ZM10.7469 15.927V13.8886H11.7661C12.2215 13.8886 12.5538 13.9708 12.7629 14.135C12.9719 14.2918 13.0765 14.5308 13.0765 14.8518C13.0765 15.2028 12.9607 15.4716 12.7293 15.6582C12.5053 15.8374 12.1954 15.927 11.7997 15.927H10.7469ZM23.1914 16.6214C22.9748 16.3004 22.6052 16.054 22.0826 15.8822C22.7471 15.5313 23.0794 14.9788 23.0794 14.2246C23.0794 13.59 22.8554 13.1009 22.4074 12.7574C21.9668 12.4065 21.2724 12.231 20.3242 12.231H17.2218V20.071H20.6378C21.2202 20.071 21.7279 19.9777 22.161 19.791C22.6015 19.6044 22.9375 19.3393 23.169 18.9958C23.4079 18.6524 23.5274 18.2492 23.5274 17.7862C23.5274 17.3308 23.4154 16.9425 23.1914 16.6214ZM19.193 15.423V13.8326H20.1898C20.8394 13.8326 21.1642 14.0865 21.1642 14.5942C21.1642 14.863 21.082 15.0684 20.9178 15.2102C20.761 15.3521 20.5295 15.423 20.2234 15.423H19.193ZM21.1866 18.2454C21.0223 18.4022 20.7722 18.4806 20.4362 18.4806H19.193V16.8006H20.481C21.1231 16.8006 21.4442 17.0694 21.4442 17.607C21.4442 17.8684 21.3583 18.0812 21.1866 18.2454Z" fill="white"/>
</svg>
