<svg width="64" height="64" viewBox="0 0 64 64" fill="none" xmlns="http://www.w3.org/2000/svg">
<path fill-rule="evenodd" clip-rule="evenodd" d="M0 0L64 8.88888L48.6602 24.2286H36.7837V27.9122H41.861V31.0278L32.9779 39.9109L30.0608 35.2544C31.0895 34.7898 31.886 34.1095 32.4501 33.2135C33.0309 32.3009 33.3212 31.1726 33.3212 29.8286C33.3212 28.0532 32.7239 26.676 31.5292 25.697C30.3346 24.7181 28.4928 24.2286 26.0039 24.2286H19.2341V41.6508H23.5399V36.1255H25.6057H25.979L29.2892 41.6508H31.238L15.7003 57.1885C10.2253 52.6334 6.40398 46.1086 5.3601 38.5927L0 0ZM23.5399 32.4419V27.9122H25.8048C26.8169 27.9122 27.5553 28.0947 28.0199 28.4597C28.4845 28.8082 28.7168 29.3391 28.7168 30.0526C28.7168 30.8325 28.4596 31.4298 27.9452 31.8446C27.4475 32.2428 26.7589 32.4419 25.8795 32.4419H23.5399Z" fill="white"/>
<path opacity="0.5" fill-rule="evenodd" clip-rule="evenodd" d="M31.2381 41.6508L15.7003 57.1886C20.8349 61.4605 27.4238 64 34.54 64C50.8103 64 64 50.8103 64 34.54V8.88892L48.6603 24.2286H51.2441V27.9122H46.1667V41.6508H41.861V31.0279L32.9779 39.911L34.0679 41.6508H31.2381Z" fill="white"/>
</svg>
