<svg width="64" height="64" viewBox="0 0 64 64" fill="none" xmlns="http://www.w3.org/2000/svg">
<path fill-rule="evenodd" clip-rule="evenodd" d="M60.5757 7.03072C62.383 6.77253 64 8.17492 64 10.0006V48.5987L0 57.7415V18.2863C0 16.7933 1.09779 15.5276 2.57574 15.3164L60.5757 7.03072ZM26.6681 40.142H30.9689L27.3625 34.3852C28.2884 33.9671 29.0052 33.3548 29.5129 32.5484C30.0356 31.7271 30.2969 30.7116 30.2969 29.502C30.2969 27.9042 29.7593 26.6647 28.6841 25.7836C27.6089 24.9026 25.9513 24.462 23.7113 24.462H17.6185V40.142H21.4937V35.1692H23.3529H23.6889L26.6681 40.142ZM21.4937 31.854V27.7772H23.5321C24.443 27.7772 25.1076 27.9415 25.5257 28.27C25.9438 28.5836 26.1529 29.0615 26.1529 29.7036C26.1529 30.4055 25.9214 30.9431 25.4585 31.3164C25.0105 31.6748 24.3908 31.854 23.5993 31.854H21.4937ZM46.3827 33.2428C45.9496 32.6007 45.2104 32.1079 44.1651 31.7644C45.4942 31.0626 46.1587 29.9575 46.1587 28.4492C46.1587 27.1799 45.7107 26.2018 44.8147 25.5148C43.9336 24.813 42.5448 24.462 40.6483 24.462H34.4435V40.142H41.2755C42.4403 40.142 43.4558 39.9554 44.3219 39.582C45.203 39.2087 45.875 38.6786 46.3379 37.9916C46.8158 37.3047 47.0547 36.4983 47.0547 35.5724C47.0547 34.6615 46.8307 33.885 46.3827 33.2428ZM38.3859 30.846V27.6652H40.3795C41.6787 27.6652 42.3283 28.173 42.3283 29.1884C42.3283 29.726 42.164 30.1367 41.8355 30.4204C41.5219 30.7042 41.059 30.846 40.4467 30.846H38.3859ZM42.3731 36.4908C42.0446 36.8044 41.5443 36.9612 40.8723 36.9612H38.3859V33.6012H40.9619C42.2462 33.6012 42.8883 34.1388 42.8883 35.214C42.8883 35.7367 42.7166 36.1623 42.3731 36.4908Z" fill="white"/>
</svg>
