<svg width="32" height="32" viewBox="0 0 32 32" fill="none" xmlns="http://www.w3.org/2000/svg">
<g clip-path="url(#clip0_1967_17747)">
<path fill-rule="evenodd" clip-rule="evenodd" d="M9.60005 0L14.4177 5.41984L14.4176 5.41984L16 7.20003L18.0281 4.91838L22.4 0H9.60005ZM12.5122 5.68449L16 9.60835L20.4704 4.57919L30.4 3.20007L27.9879 20.5668C27.0777 27.1208 21.4739 32 14.857 32C7.53539 32 1.60004 26.0647 1.60004 18.743V7.20006L12.5122 5.68449ZM13.1802 21.9428H15.3306L13.5274 19.0644C13.9903 18.8554 14.3487 18.5492 14.6026 18.146C14.8639 17.7354 14.9946 17.2276 14.9946 16.6228C14.9946 15.8239 14.7258 15.2042 14.1882 14.7636C13.6506 14.3231 12.8218 14.1028 11.7018 14.1028H8.6554V21.9428H10.593V19.4564H11.5226H11.6906L13.1802 21.9428ZM10.593 17.7988V15.7604H11.6122C12.0677 15.7604 12.3999 15.8426 12.609 16.0068C12.8181 16.1636 12.9226 16.4026 12.9226 16.7236C12.9226 17.0746 12.8069 17.3434 12.5754 17.53C12.3514 17.7092 12.0415 17.7988 11.6458 17.7988H10.593ZM18.8375 21.9428H20.7751V15.7604H23.0599V14.1028H16.5527V15.7604H18.8375V21.9428Z" fill="white"/>
</g>
<defs>
<clipPath id="clip0_1967_17747">
<rect width="32" height="32" fill="white"/>
</clipPath>
</defs>
</svg>
