<svg width="64" height="64" viewBox="0 0 64 64" fill="none" xmlns="http://www.w3.org/2000/svg">
<path fill-rule="evenodd" clip-rule="evenodd" d="M19.2 0L32 14.4L32 14.4L36.0562 9.83667L44.7998 0H19.2ZM25.0242 11.3689L32 19.2166L40.9406 9.15827L60.7999 6.40004L55.9758 41.1335C54.1553 54.2415 42.9478 63.9999 29.714 63.9999C15.0707 63.9999 3.20001 52.1292 3.20001 37.486V14.4L25.0242 11.3689ZM26.3603 43.8857H30.6611L27.0547 38.1289C27.9806 37.7107 28.6974 37.0985 29.2051 36.2921C29.7278 35.4707 29.9891 34.4553 29.9891 33.2457C29.9891 31.6478 29.4515 30.4084 28.3763 29.5273C27.3011 28.6462 25.6435 28.2057 23.4035 28.2057H17.3107V43.8857H21.1859V38.9129H23.0451H23.3811L26.3603 43.8857ZM21.1859 35.5977V31.5209H23.2243C24.1353 31.5209 24.7998 31.6852 25.2179 32.0137C25.636 32.3273 25.8451 32.8052 25.8451 33.4473C25.8451 34.1492 25.6136 34.6867 25.1507 35.0601C24.7027 35.4185 24.083 35.5977 23.2915 35.5977H21.1859ZM37.6749 43.8857H41.5501V31.5209H46.1197V28.2057H33.1053V31.5209H37.6749V43.8857Z" fill="white"/>
</svg>
