<svg width="64" height="64" viewBox="0 0 64 64" fill="none" xmlns="http://www.w3.org/2000/svg">
<g clip-path="url(#clip0_1967:17710)">
<path fill-rule="evenodd" clip-rule="evenodd" d="M49.8113 1.04106L3.11381 8.54774C0.901651 8.90335 -0.378021 11.3009 0.435492 13.3886C2.13809 17.7578 4.46565 24.8665 4.46565 31.0769C4.46565 37.5491 1.93767 45.4474 0.223685 50.0587C-0.521815 52.0643 0.664958 54.3282 2.76168 54.7551L49.3927 64.2501C50.2766 64.4301 51.1899 64.2495 51.868 63.6546C55.0361 60.8751 64 51.2301 64 31.0769C64 10.3999 54.5641 3.11312 51.633 1.34841C51.0868 1.0196 50.4407 0.93988 49.8113 1.04106ZM46.5424 24.7867C45.542 24.4428 44.4243 24.2708 43.1893 24.2708C41.6261 24.2708 40.1958 24.6069 38.8983 25.2791C37.6165 25.9513 36.5925 26.9518 35.8266 28.2805C35.0606 29.5936 34.6776 31.1803 34.6776 33.0405C34.6776 34.9164 35.0684 36.4874 35.85 37.7536C36.6473 39.0042 37.6712 39.9343 38.9217 40.544C40.188 41.1536 41.5323 41.4585 42.9549 41.4585C44.3149 41.4585 45.5576 41.2474 46.6831 40.8254C47.8243 40.4033 48.7778 39.8327 49.5438 39.1136V31.235H42.0404V34.4709H45.6749V37.0033C45.0027 37.4722 44.1429 37.7067 43.0955 37.7067C41.8919 37.7067 40.907 37.2847 40.1411 36.4405C39.3907 35.5807 39.0155 34.3849 39.0155 32.8529C39.0155 31.2741 39.4142 30.0782 40.2114 29.2653C41.0243 28.4368 42.0951 28.0226 43.4238 28.0226C44.8307 28.0226 46.1126 28.3821 47.2693 29.1012L49.1921 26.0764C48.4418 25.5449 47.5585 25.115 46.5424 24.7867ZM27.1949 41.0833H31.6969L27.9218 35.0571C28.891 34.6194 29.6413 33.9784 30.1728 33.1343C30.7199 32.2745 30.9935 31.2115 30.9935 29.9453C30.9935 28.2727 30.4307 26.9752 29.3052 26.0529C28.1797 25.1306 26.4445 24.6695 24.0997 24.6695H17.7217V41.0833H21.7783V35.8778H23.7245H24.0762L27.1949 41.0833ZM21.7783 32.4074V28.1398H23.9121C24.8657 28.1398 25.5613 28.3118 25.999 28.6557C26.4367 28.984 26.6556 29.4842 26.6556 30.1564C26.6556 30.8911 26.4133 31.4538 25.9287 31.8446C25.4597 32.2198 24.811 32.4074 23.9824 32.4074H21.7783Z" fill="white"/>
</g>
<defs>
<clipPath id="clip0_1967:17710">
<rect width="64" height="64" fill="white"/>
</clipPath>
</defs>
</svg>
