<svg width="64" height="64" viewBox="0 0 64 64" fill="none" xmlns="http://www.w3.org/2000/svg">
<path fill-rule="evenodd" clip-rule="evenodd" d="M32 64C49.6731 64 64 49.6731 64 32C64 14.3269 49.6731 0 32 0C14.3269 0 0 14.3269 0 32C0 49.6731 14.3269 64 32 64ZM56.8261 32C56.8261 45.7111 45.7111 56.8261 32 56.8261C18.2889 56.8261 7.17391 45.7111 7.17391 32C7.17391 18.2889 18.2889 7.17391 32 7.17391C45.7111 7.17391 56.8261 18.2889 56.8261 32ZM59.8261 32C59.8261 47.3679 47.3679 59.8261 32 59.8261C16.6321 59.8261 4.17391 47.3679 4.17391 32C4.17391 16.6321 16.6321 4.17391 32 4.17391C47.3679 4.17391 59.8261 16.6321 59.8261 32Z" fill="white"/>
</svg>
