<svg width="32" height="32" viewBox="0 0 32 32" fill="none" xmlns="http://www.w3.org/2000/svg">
<path fill-rule="evenodd" clip-rule="evenodd" d="M16 32C24.8366 32 32 24.8366 32 16C32 7.16344 24.8366 0 16 0C7.16344 0 0 7.16344 0 16C0 24.8366 7.16344 32 16 32ZM4.69112 18.9565L1.72996 16L4.69112 13.0342L5.51199 13.855L3.3717 16L5.51199 18.1402L4.69112 18.9565ZM8.75837 18.1356L6.61808 16L8.75837 13.8597L7.9375 13.0342L4.97634 16L7.9375 18.9565L8.75837 18.1356ZM27.3089 18.9565L30.27 16L27.3089 13.0342L26.488 13.855L28.6283 16L26.488 18.1402L27.3089 18.9565ZM25.3819 16L23.2416 18.1356L24.0625 18.9565L27.0237 16L24.0625 13.0342L23.2416 13.8597L25.3819 16Z" fill="white"/>
</svg>
