<svg width="64" height="64" viewBox="0 0 64 64" fill="none" xmlns="http://www.w3.org/2000/svg">
<path fill-rule="evenodd" clip-rule="evenodd" d="M32 64C49.6731 64 64 49.6731 64 32C64 14.3269 49.6731 0 32 0C14.3269 0 0 14.3269 0 32C0 49.6731 14.3269 64 32 64ZM9.38224 37.9129L3.45992 31.9999L9.38224 26.0683L11.024 27.71L6.7434 31.9999L11.024 36.2804L9.38224 37.9129ZM17.5167 36.2712L13.2362 31.9999L17.5167 27.7193L15.875 26.0683L9.95267 31.9999L15.875 37.9129L17.5167 36.2712ZM54.6178 37.9129L60.5401 31.9999L54.6178 26.0683L52.976 27.71L57.2566 31.9999L52.976 36.2804L54.6178 37.9129ZM50.7638 31.9999L46.4833 36.2712L48.125 37.9129L54.0473 31.9999L48.125 26.0683L46.4833 27.7193L50.7638 31.9999Z" fill="white"/>
</svg>
