<svg width="32" height="32" viewBox="0 0 32 32" fill="none" xmlns="http://www.w3.org/2000/svg">
<g clip-path="url(#clip0_1967_17796)">
<path fill-rule="evenodd" clip-rule="evenodd" d="M16 32C24.8366 32 32 24.8366 32 16C32 7.16344 24.8366 0 16 0C7.16344 0 0 7.16344 0 16C0 24.8366 7.16344 32 16 32ZM26.913 16C26.913 22.0271 22.0271 26.913 16 26.913C9.97289 26.913 5.08696 22.0271 5.08696 16C5.08696 9.97287 9.97289 5.08694 16 5.08694C22.0271 5.08694 26.913 9.97287 26.913 16ZM29.913 16C29.913 23.6839 23.684 29.913 16 29.913C8.31604 29.913 2.08696 23.6839 2.08696 16C2.08696 8.31602 8.31604 2.08694 16 2.08694C23.684 2.08694 29.913 8.31602 29.913 16Z" fill="white"/>
</g>
<defs>
<clipPath id="clip0_1967_17796">
<rect width="32" height="32" fill="white"/>
</clipPath>
</defs>
</svg>
