<svg width="64" height="64" viewBox="0 0 64 64" fill="none" xmlns="http://www.w3.org/2000/svg">
<g clip-path="url(#clip0_1967:16932)">
<path fill-rule="evenodd" clip-rule="evenodd" d="M15.0124 18C7.15767 18 0.790161 24.1401 0.790161 31.7143C0.790161 39.2885 7.15767 45.4286 15.0124 45.4286H48.9877C56.8424 45.4286 63.2099 39.2885 63.2099 31.7143C63.2099 24.1401 56.8424 18 48.9877 18H15.0124ZM17.7778 35.1429C19.7415 35.1429 21.3334 33.6078 21.3334 31.7143C21.3334 29.8207 19.7415 28.2857 17.7778 28.2857C15.8141 28.2857 14.2223 29.8207 14.2223 31.7143C14.2223 33.6078 15.8141 35.1429 17.7778 35.1429ZM35.5556 31.7143C35.5556 33.6078 33.9637 35.1429 32 35.1429C30.0364 35.1429 28.4445 33.6078 28.4445 31.7143C28.4445 29.8207 30.0364 28.2857 32 28.2857C33.9637 28.2857 35.5556 29.8207 35.5556 31.7143ZM46.2223 35.1429C48.1859 35.1429 49.7778 33.6078 49.7778 31.7143C49.7778 29.8207 48.1859 28.2857 46.2223 28.2857C44.2586 28.2857 42.6667 29.8207 42.6667 31.7143C42.6667 33.6078 44.2586 35.1429 46.2223 35.1429Z" fill="white"/>
</g>
<defs>
<clipPath id="clip0_1967:16932">
<rect width="64" height="27.4286" fill="white" transform="translate(0 18)"/>
</clipPath>
</defs>
</svg>
