<svg width="32" height="32" viewBox="0 0 32 32" fill="none" xmlns="http://www.w3.org/2000/svg">
<path fill-rule="evenodd" clip-rule="evenodd" d="M5.76 10C2.57884 10 0 12.6863 0 16C0 19.3137 2.57884 22 5.76 22H26.24C29.4212 22 32 19.3137 32 16C32 12.6863 29.4212 10 26.24 10H5.76ZM6.97636 13.8333C7.249 13.8333 7.50052 13.8733 7.73092 13.9533C7.96132 14.0333 8.15524 14.1313 8.31268 14.2473L7.95556 14.9073C7.81348 14.8033 7.65412 14.7193 7.47748 14.6553C7.30468 14.5913 7.13956 14.5593 6.98212 14.5593C6.79012 14.5593 6.64036 14.6013 6.53284 14.6853C6.42532 14.7653 6.37156 14.8773 6.37156 15.0213C6.37156 15.1653 6.43492 15.2793 6.56164 15.3633C6.68836 15.4433 6.88228 15.5313 7.1434 15.6273C7.4122 15.7273 7.62724 15.8193 7.78852 15.9033C7.9498 15.9873 8.08996 16.1113 8.209 16.2753C8.33188 16.4353 8.39332 16.6413 8.39332 16.8933C8.39332 17.1613 8.32612 17.3933 8.19172 17.5893C8.06116 17.7853 7.87684 17.9373 7.63876 18.0453C7.40068 18.1493 7.12804 18.2013 6.82084 18.2013C6.57124 18.2013 6.31588 18.1673 6.05476 18.0993C5.79748 18.0273 5.57092 17.9313 5.37508 17.8113L5.64004 17.0793C5.82436 17.1833 6.01828 17.2673 6.2218 17.3313C6.42916 17.3913 6.63268 17.4213 6.83236 17.4213C7.05124 17.4213 7.21444 17.3773 7.32196 17.2893C7.43332 17.2013 7.489 17.0853 7.489 16.9413C7.489 16.7973 7.42948 16.6853 7.31044 16.6053C7.1914 16.5253 7.009 16.4433 6.76324 16.3593C6.48676 16.2673 6.26404 16.1793 6.09508 16.0953C5.92612 16.0073 5.7802 15.8813 5.65732 15.7173C5.53828 15.5493 5.47876 15.3313 5.47876 15.0633C5.47876 14.8153 5.5402 14.5993 5.66308 14.4153C5.7898 14.2273 5.96644 14.0833 6.193 13.9833C6.41956 13.8833 6.68068 13.8333 6.97636 13.8333ZM11.2796 18.1293H10.4328V14.6853H9.21172V13.9293H12.5007V14.6853H11.2796V18.1293ZM16.2595 13.9293H13.5407V18.1293H16.2595V17.3673H14.3875V16.3833H16.0003V15.6273H14.3875V14.6793H16.2595V13.9293ZM21.0746 18.1293H20.1588L19.8823 17.3133H18.3041L18.0391 18.1293H17.1578L18.667 13.9293H19.5194L21.0746 18.1293ZM19.0874 14.9313L18.5345 16.6113H19.6519L19.0874 14.9313ZM25.5273 13.9293L24.2716 16.9113L22.9123 13.9293H22.1001V18.1293H22.872V15.4893L23.9779 18.0093H24.4905L25.5734 15.4593V18.1293H26.3856V13.9293H25.5273Z" fill="white"/>
</svg>
