<svg width="64" height="64" viewBox="0 0 64 64" fill="none" xmlns="http://www.w3.org/2000/svg">
<path fill-rule="evenodd" clip-rule="evenodd" d="M11.52 20C5.15768 20 0 25.3726 0 32C0 38.6274 5.15768 44 11.52 44H52.48C58.8423 44 64 38.6274 64 32C64 25.3726 58.8423 20 52.48 20H11.52ZM13.9527 27.6667C14.498 27.6667 15.001 27.7467 15.4618 27.9067C15.9226 28.0667 16.3105 28.2627 16.6254 28.4947L15.9111 29.8147C15.627 29.6067 15.3082 29.4387 14.955 29.3107C14.6094 29.1827 14.2791 29.1187 13.9642 29.1187C13.5802 29.1187 13.2807 29.2027 13.0657 29.3707C12.8506 29.5307 12.7431 29.7547 12.7431 30.0427C12.7431 30.3307 12.8698 30.5587 13.1233 30.7267C13.3767 30.8867 13.7646 31.0627 14.2868 31.2547C14.8244 31.4547 15.2545 31.6387 15.577 31.8067C15.8996 31.9747 16.1799 32.2227 16.418 32.5507C16.6638 32.8707 16.7866 33.2827 16.7866 33.7867C16.7866 34.3227 16.6522 34.7867 16.3834 35.1787C16.1223 35.5707 15.7537 35.8747 15.2775 36.0907C14.8014 36.2987 14.2561 36.4027 13.6417 36.4027C13.1425 36.4027 12.6318 36.3347 12.1095 36.1987C11.595 36.0547 11.1418 35.8627 10.7502 35.6227L11.2801 34.1587C11.6487 34.3667 12.0366 34.5347 12.4436 34.6627C12.8583 34.7827 13.2654 34.8427 13.6647 34.8427C14.1025 34.8427 14.4289 34.7547 14.6439 34.5787C14.8666 34.4027 14.978 34.1707 14.978 33.8827C14.978 33.5947 14.859 33.3707 14.6209 33.2107C14.3828 33.0507 14.018 32.8867 13.5265 32.7187C12.9735 32.5347 12.5281 32.3587 12.1902 32.1907C11.8522 32.0147 11.5604 31.7627 11.3146 31.4347C11.0766 31.0987 10.9575 30.6627 10.9575 30.1267C10.9575 29.6307 11.0804 29.1987 11.3262 28.8307C11.5796 28.4547 11.9329 28.1667 12.386 27.9667C12.8391 27.7667 13.3614 27.6667 13.9527 27.6667ZM22.5591 36.2587H20.8657V29.3707H18.4234V27.8587H25.0014V29.3707H22.5591V36.2587ZM32.5189 27.8587H27.0815V36.2587H32.5189V34.7347H28.7749V32.7667H32.0005V31.2547H28.7749V29.3587H32.5189V27.8587ZM42.1493 36.2587H40.3176L39.7646 34.6267H36.6081L36.0782 36.2587H34.3157L37.3339 27.8587H39.0389L42.1493 36.2587ZM38.1749 29.8627L37.0689 33.2227H39.3038L38.1749 29.8627ZM51.0546 27.8587L48.5433 33.8227L45.8246 27.8587H44.2002V36.2587H45.7439V30.9787L47.9558 36.0187H48.981L51.1468 30.9187V36.2587H52.7711V27.8587H51.0546Z" fill="white"/>
</svg>
