<svg width="32" height="32" viewBox="0 0 32 32" fill="none" xmlns="http://www.w3.org/2000/svg">
<path fill-rule="evenodd" clip-rule="evenodd" d="M7.50613 9C3.57877 9 0.39502 12.134 0.39502 16C0.39502 19.866 3.57877 23 7.50613 23H24.4938C28.4211 23 31.6049 19.866 31.6049 16C31.6049 12.134 28.4211 9 24.4938 9H7.50613ZM8.88885 17.75C9.87069 17.75 10.6666 16.9665 10.6666 16C10.6666 15.0335 9.87069 14.25 8.88885 14.25C7.90701 14.25 7.11107 15.0335 7.11107 16C7.11107 16.9665 7.90701 17.75 8.88885 17.75ZM17.7777 16C17.7777 16.9665 16.9818 17.75 16 17.75C15.0181 17.75 14.2222 16.9665 14.2222 16C14.2222 15.0335 15.0181 14.25 16 14.25C16.9818 14.25 17.7777 15.0335 17.7777 16ZM23.1111 17.75C24.0929 17.75 24.8888 16.9665 24.8888 16C24.8888 15.0335 24.0929 14.25 23.1111 14.25C22.1292 14.25 21.3333 15.0335 21.3333 16C21.3333 16.9665 22.1292 17.75 23.1111 17.75Z" fill="white"/>
</svg>
