<svg width="64" height="64" viewBox="0 0 64 64" fill="none" xmlns="http://www.w3.org/2000/svg">
<path fill-rule="evenodd" clip-rule="evenodd" d="M0 9.78261C0 8.24582 1.24582 7 2.78261 7H47.3043C48.8411 7 50.087 8.24582 50.087 9.78261V54.3043C50.087 55.8411 48.8411 57.087 47.3043 57.087H2.78261C1.24582 57.087 0 55.8411 0 54.3043V9.78261ZM5.56522 11.1739C4.79682 11.1739 4.17391 11.7968 4.17391 12.5652V51.5217C4.17391 52.2901 4.79682 52.913 5.56522 52.913H44.5217C45.2901 52.913 45.913 52.2901 45.913 51.5217V12.5652C45.913 11.7968 45.2901 11.1739 44.5217 11.1739H5.56522ZM6.95652 13.9565V50.1304H43.1304V13.9565H6.95652ZM64 32.0435L54.2609 23.6957V40.3913L64 32.0435ZM20.7377 38.9999H30.2821V35.9613H24.1075V25.3651H20.7377V38.9999Z" fill="white"/>
</svg>
