<svg width="64" height="64" viewBox="0 0 64 64" fill="none" xmlns="http://www.w3.org/2000/svg">
<path opacity="0.5" fill-rule="evenodd" clip-rule="evenodd" d="M13.3333 60.8889C5.96954 60.8889 0 52.9295 0 43.1111V7.55556C0 5.59188 1.19391 4 2.66667 4H61.3333C62.8061 4 64 5.59188 64 7.55556V57.3333C64 59.297 62.8061 60.8889 61.3333 60.8889H13.3333ZM46.756 37.6249H38.9409L42.2262 35.0115C43.5868 33.9164 44.5906 32.896 45.2377 31.9502C45.9014 30.9878 46.2333 29.9259 46.2333 28.7644C46.2333 27.072 45.5945 25.7944 44.3169 24.9315C43.0392 24.0521 41.3551 23.6124 39.2644 23.6124C38.1361 23.6124 37.0742 23.7618 36.0786 24.0604C35.0997 24.3591 34.212 24.7656 33.4155 25.28L34.8093 28.4658C35.3237 28.1505 35.9044 27.9016 36.5515 27.7191C37.1986 27.52 37.854 27.4204 38.5177 27.4204C39.3971 27.4204 40.1189 27.6112 40.6831 27.9929C41.2638 28.3745 41.5542 28.9387 41.5542 29.6853C41.5542 30.1665 41.438 30.6062 41.2057 31.0044C40.99 31.4027 40.6831 31.7926 40.2848 32.1742C39.8866 32.5558 39.2976 33.0702 38.5177 33.7173L33.4902 37.7991V41.3333H46.756V37.6249ZM17.7466 41.3333H29.9422V37.4507H22.0524V23.9111H17.7466V41.3333Z" fill="white"/>
<path fill-rule="evenodd" clip-rule="evenodd" d="M63.9996 57.3333V7.55555C63.9996 5.59187 62.8057 4 61.3329 4H2.66627C1.84319 4 1.10721 4.4972 0.618042 5.27862L35.9213 35.8255L38.5177 33.7175C39.2976 33.0704 39.8866 32.556 40.2848 32.1744C40.683 31.7928 40.99 31.4029 41.2057 31.0046C41.438 30.6064 41.5541 30.1667 41.5541 29.6855C41.5541 28.9389 41.2638 28.3747 40.683 27.9931C40.1189 27.6115 39.3971 27.4206 38.5177 27.4206C37.854 27.4206 37.1986 27.5202 36.5515 27.7193C35.9044 27.9018 35.3236 28.1507 34.8093 28.466L33.4155 25.2802C34.2119 24.7658 35.0996 24.3593 36.0786 24.0606C37.0742 23.762 38.1361 23.6126 39.2644 23.6126C41.355 23.6126 43.0392 24.0523 44.3168 24.9317C45.5944 25.7946 46.2333 27.0722 46.2333 28.7646C46.2333 29.9261 45.9014 30.988 45.2377 31.9504C44.5906 32.8962 43.5867 33.9166 42.2262 35.0117L38.9408 37.6251H46.7559V41.3335H42.2869L63.3911 59.5943C63.7712 58.9798 63.9996 58.1921 63.9996 57.3333Z" fill="white"/>
</svg>
