<svg width="64" height="64" viewBox="0 0 64 64" fill="none" xmlns="http://www.w3.org/2000/svg">
<g clip-path="url(#clip0_1967:16824)">
<path fill-rule="evenodd" clip-rule="evenodd" d="M9.77778 7C8.24365 7 7 8.24365 7 9.77778V20.6478L8.53415 19.0066L11.1667 21.8184V12.5556C11.1667 11.7885 11.7885 11.1667 12.5556 11.1667H51.4444C52.2115 11.1667 52.8333 11.7885 52.8333 12.5556V22.0548L55.6872 19.0066L57 20.411V9.77778C57 8.24365 55.7563 7 54.2222 7H9.77778ZM7 54.2222V44.1458L8.53138 45.7789L11.1667 42.9801V51.4444C11.1667 52.2115 11.7885 52.8333 12.5556 52.8333H51.4444C52.2115 52.8333 52.8333 52.2115 52.8333 51.4444V42.745L55.6899 45.7789L57 44.3818V54.2222C57 55.7563 55.7563 57 54.2222 57H9.77778C8.24366 57 7 55.7563 7 54.2222ZM13.9444 50.0556V41.7001L17.7754 45.7855L24.2213 38.9008L18.1309 32.4098L24.2138 25.9127L17.7782 19L13.9444 23.1012V13.9444H50.0556V22.8644L46.4431 19L40.0075 25.9127L46.0904 32.4098L40 38.9008L46.4459 45.7855L50.0556 41.9361V50.0556H13.9444ZM17.7737 41.3979L17.7736 41.3979L9.34738 32.412L17.7736 23.3979L17.7737 23.398L17.7737 23.3979L20.1096 25.9069L14.0192 32.412L20.1096 38.903L20.1095 38.903L17.7737 41.3979ZM8.53586 41.3979L8.53576 41.3979L0.109497 32.412L8.53576 23.3979L8.53579 23.398L8.53586 23.3979L10.8717 25.8928L7 30.0371V30.0371L4.78122 32.412L7 34.7819V34.7817L10.8717 38.9171L10.8716 38.9171L8.53586 41.3979ZM55.6856 23.3979L55.6855 23.3979L53.3496 25.8928L53.3497 25.8929L57 29.8002L59.4401 32.412L57 35.0183V35.0181L53.3496 38.9171L53.3497 38.9171L55.6855 41.3979L55.6856 41.3979L57 39.996L64.1118 32.412L57 24.8041L55.6856 23.3979ZM52.8333 30.2291L54.8738 32.412L54.8739 32.412L46.4477 41.3979L46.4476 41.3979L44.1118 38.903L44.1117 38.903L50.0556 32.5682V32.5683L50.2022 32.412L50.0556 32.2555L44.1118 25.907L44.1117 25.9069L46.4476 23.3979L46.4477 23.3979L50.0556 27.2576L52.8333 30.2291ZM37.2295 38.9444H27.7018V25.3333H31.0657V35.911H37.2295V38.9444Z" fill="white"/>
</g>
<defs>
<clipPath id="clip0_1967:16824">
<rect width="64" height="64" fill="white"/>
</clipPath>
</defs>
</svg>
