<svg width="64" height="64" viewBox="0 0 64 64" fill="none" xmlns="http://www.w3.org/2000/svg">
<path fill-rule="evenodd" clip-rule="evenodd" d="M13.3333 60.8889C5.96954 60.8889 0 52.9295 0 43.1111V7.55556C0 5.59188 1.19391 4 2.66667 4H61.3333C62.8061 4 64 5.59188 64 7.55556V57.3333C64 59.297 62.8061 60.8889 61.3333 60.8889H13.3333ZM46.7558 37.6249H38.9407L42.226 35.0115C43.5866 33.9164 44.5905 32.896 45.2376 31.9502C45.9013 30.9878 46.2331 29.9259 46.2331 28.7644C46.2331 27.072 45.5943 25.7944 44.3167 24.9315C43.039 24.0521 41.3549 23.6124 39.2642 23.6124C38.1359 23.6124 37.074 23.7618 36.0784 24.0604C35.0995 24.3591 34.2118 24.7656 33.4153 25.28L34.8091 28.4658C35.3235 28.1505 35.9042 27.9016 36.5513 27.7191C37.1985 27.52 37.8539 27.4204 38.5176 27.4204C39.397 27.4204 40.1187 27.6112 40.6829 27.9929C41.2636 28.3745 41.554 28.9387 41.554 29.6853C41.554 30.1665 41.4379 30.6062 41.2056 31.0044C40.9899 31.4027 40.6829 31.7926 40.2847 32.1742C39.8864 32.5558 39.2974 33.0702 38.5176 33.7173L33.49 37.7991V41.3333H46.7558V37.6249ZM17.7464 41.3333H29.942V37.4507H22.0522V23.9111H17.7464V41.3333Z" fill="white"/>
</svg>
