<svg width="64" height="64" viewBox="0 0 64 64" fill="none" xmlns="http://www.w3.org/2000/svg">
<path fill-rule="evenodd" clip-rule="evenodd" d="M8 10.6667C8 9.19391 9.19391 8 10.6667 8H53.3333C54.8061 8 56 9.19391 56 10.6667V53.3333C56 54.8061 54.8061 56 53.3333 56H10.6667C9.19391 56 8 54.8061 8 53.3333V10.6667ZM13.3333 12C12.597 12 12 12.597 12 13.3333V50.6667C12 51.403 12.597 52 13.3333 52H50.6667C51.403 52 52 51.403 52 50.6667V13.3333C52 12.597 51.403 12 50.6667 12H13.3333ZM14.6667 14.6667V49.3333H49.3333V14.6667H14.6667ZM27.8737 38.6666H37.0204V35.7546H31.103V25.5999H27.8737V38.6666Z" fill="white"/>
<path fill-rule="evenodd" clip-rule="evenodd" d="M54 6H10C7.79086 6 6 7.79086 6 10V54C6 56.2091 7.79086 58 10 58H54C56.2091 58 58 56.2091 58 54V10C58 7.79086 56.2091 6 54 6ZM10 4C6.68629 4 4 6.68629 4 10V54C4 57.3137 6.68629 60 10 60H54C57.3137 60 60 57.3137 60 54V10C60 6.68629 57.3137 4 54 4H10Z" fill="white"/>
</svg>
