<svg width="64" height="64" viewBox="0 0 64 64" fill="none" xmlns="http://www.w3.org/2000/svg">
<path fill-rule="evenodd" clip-rule="evenodd" d="M19.0001 0L31.8001 14.4L44.6 0H19.0001ZM43.1927 6.4L38.926 11.2H54.2C55.0837 11.2 55.8 11.9163 55.8 12.8V57.6C55.8 58.4837 55.0837 59.2 54.2 59.2H9.4C8.51635 59.2 7.8 58.4837 7.8 57.6V12.8C7.8 11.9163 8.51634 11.2 9.4 11.2H24.6742L20.4076 6.4H6.2C4.43269 6.4 3 7.83269 3 9.6V60.8C3 62.5673 4.43269 64 6.2 64H57.4C59.1673 64 60.6 62.5673 60.6 60.8V9.6C60.6 7.83269 59.1673 6.4 57.4 6.4H43.1927ZM11 14.4H27.5187L31.8001 19.2166L36.0816 14.4H52.6V56H11V14.4ZM26.8484 43.1999H37.8244V39.7055H30.7236V27.5199H26.8484V43.1999Z" fill="white"/>
</svg>
