<svg width="64" height="64" viewBox="0 0 64 64" fill="none" xmlns="http://www.w3.org/2000/svg">
<path fill-rule="evenodd" clip-rule="evenodd" d="M40.3913 9.73913L32.0435 0L23.6957 9.73913H40.3913ZM13.9565 20.8696V57.0435H50.1304V20.8696H13.9565ZM9.78261 13.913C8.24582 13.913 7 15.1589 7 16.6957V61.2174C7 62.7542 8.24582 64 9.78261 64H54.3043C55.8411 64 57.087 62.7542 57.087 61.2174V16.6957C57.087 15.1589 55.8411 13.913 54.3043 13.913H9.78261ZM11.1739 19.4783C11.1739 18.7099 11.7968 18.087 12.5652 18.087H51.5217C52.2901 18.087 52.913 18.7099 52.913 19.4783V58.4348C52.913 59.2032 52.2901 59.8261 51.5217 59.8261H12.5652C11.7968 59.8261 11.1739 59.2032 11.1739 58.4348V19.4783ZM27.7378 45.913H37.2821V42.8744H31.1075V32.2782H27.7378V45.913Z" fill="white"/>
</svg>
