<svg width="64" height="64" viewBox="0 0 64 64" fill="none" xmlns="http://www.w3.org/2000/svg">
<path fill-rule="evenodd" clip-rule="evenodd" d="M6 4C4.89543 4 4 4.89543 4 6V58C4 59.1046 4.89543 60 6 60H58C59.1046 60 60 59.1046 60 58V6C60 4.89543 59.1046 4 58 4H6ZM16.8126 42.5H29.9726V38.804H20.9286V22.9H16.8126V42.5ZM46.5824 26.4V22.9H34.0664V33.008L36.6704 34.436C37.2491 33.9694 37.8371 33.624 38.4344 33.4C39.0318 33.1574 39.6851 33.036 40.3944 33.036C41.3464 33.036 42.0931 33.288 42.6344 33.792C43.1944 34.296 43.4744 35.024 43.4744 35.976C43.4744 37.0587 43.1104 37.8894 42.3824 38.468C41.6544 39.0467 40.6278 39.336 39.3024 39.336C37.5478 39.336 35.9518 38.8507 34.5144 37.88L33.0584 41.016C33.7864 41.632 34.7011 42.108 35.8024 42.444C36.9038 42.78 38.0891 42.948 39.3584 42.948C41.0758 42.948 42.5598 42.6587 43.8104 42.08C45.0798 41.4827 46.0411 40.652 46.6944 39.588C47.3664 38.524 47.7024 37.2827 47.7024 35.864C47.7024 33.96 47.1704 32.5134 46.1064 31.524C45.0611 30.516 43.6611 30.012 41.9064 30.012C41.2158 30.012 40.5251 30.096 39.8344 30.264C39.1624 30.4134 38.5558 30.656 38.0144 30.992V26.4H46.5824Z" fill="white"/>
</svg>
