<svg width="64" height="64" viewBox="0 0 64 64" fill="none" xmlns="http://www.w3.org/2000/svg">
<path fill-rule="evenodd" clip-rule="evenodd" d="M13.913 9.78261C13.913 8.24582 15.1589 7 16.6957 7H61.2174C62.7542 7 64 8.24582 64 9.78261V54.3043C64 55.8411 62.7542 57.087 61.2174 57.087H16.6957C15.1589 57.087 13.913 55.8411 13.913 54.3043V9.78261ZM19.4783 11.1739C18.7099 11.1739 18.087 11.7968 18.087 12.5652V51.5217C18.087 52.2901 18.7099 52.913 19.4783 52.913H58.4348C59.2032 52.913 59.8261 52.2901 59.8261 51.5217V12.5652C59.8261 11.7968 59.2032 11.1739 58.4348 11.1739H19.4783ZM57.0435 13.9565H20.8696V50.1304H57.0435V13.9565ZM0 32.0435L9.73913 23.6957V40.3913L0 32.0435ZM34.6508 38.9999H44.1952V35.9613H38.0206V25.3651H34.6508V38.9999Z" fill="white"/>
</svg>
