<svg width="32" height="32" viewBox="0 0 32 32" fill="none" xmlns="http://www.w3.org/2000/svg">
<path fill-rule="evenodd" clip-rule="evenodd" d="M4.83105 9.39862C4.97271 7.29875 6.71734 5.66785 8.82198 5.66785H23.1281C25.2327 5.66785 26.9774 7.29875 27.119 9.39862L27.2664 11.5828L26.7047 12.2149L24.7396 10L22.0031 13.0969L24.5896 16.0076L21.9999 18.9156L24.7408 22L26.7034 19.7948L27.9116 21.1467L27.9409 21.5814C28.0967 23.8913 26.2651 25.8507 23.95 25.8507H8.00013C5.74527 25.8507 3.94903 23.992 4.00104 21.761L5.9046 19.7948L8.03078 22L11 18.9156L8.19452 16.0076L10.9966 13.0969L8.03204 10L5.90318 12.2149L4.72372 10.9897L4.83105 9.39862ZM4.85062 18.9229L4.13895 19.658L4.14056 19.6342L3.79182 20L0 16.0063L3.79182 12L4.59818 12.8506L4.59975 12.8274L4.85062 13.088L4.83682 13.1024L4.84296 13.1088L2.10228 16.0063L4.84296 18.8974L4.83456 18.9062L4.85062 18.9229ZM4.37016 16.2307L4.36966 16.238L4.85473 16.7411L7.94886 20L7.97267 19.9749L8.02999 20.0343L9.10599 18.9166L6.30049 16.0086L9.10599 13.0943L8.02999 11.9703L7.97488 12.0276L7.94886 12L4.56313 15.5772L4.403 15.7438L4.40282 15.7466L4.15705 16.0063L4.37016 16.2307ZM27.7654 18.9804L27.7685 19.0261L27.6763 18.9229L27.697 18.8996L27.6951 18.8974L30.1313 16.0063L27.6951 13.1088L28.6295 12L32 16.0063L28.6295 20L27.7654 18.9804ZM24.8535 12.0965L24.7415 11.9703L23.7483 13.0943L26.338 16.0086L23.7483 18.9166L24.7415 20.0343L24.8554 19.9063L24.9343 20L28.3048 16.0063L24.9343 12L24.8535 12.0965ZM19.7836 20.1292H13.6855V11.0469H15.5928V18.4165H19.7836V20.1292Z" fill="white"/>
</svg>
