<svg width="32" height="32" viewBox="0 0 32 32" fill="none" xmlns="http://www.w3.org/2000/svg">
<path fill-rule="evenodd" clip-rule="evenodd" d="M0 22.594C0 27.503 2.985 30.444 6.667 30.444H30.666C31.402 30.444 32 29.648 32 28.666V3.778C32 2.796 31.402 2 30.666 2H1.333C0.597 2 0 2.796 0 3.778C0 3.778 0.732 7.458 0.844 8.687C1.21073 12.7238 0.973685 14.7265 0.802058 16.1764C0.783682 16.3317 0.766055 16.4806 0.75 16.625C0.556 18.371 0 22.594 0 22.594ZM25.8438 20.4124H20.4518L22.7718 18.4924C23.6998 17.7244 24.3878 17.0311 24.8358 16.4124C25.2838 15.7831 25.5078 15.0844 25.5078 14.3164C25.5078 13.2711 25.1185 12.4657 24.3398 11.9004C23.5612 11.3351 22.5265 11.0524 21.2358 11.0524C20.5105 11.0524 19.8278 11.1537 19.1878 11.3564C18.5585 11.5591 17.9985 11.8311 17.5078 12.1724L18.3078 13.9004C18.6385 13.6764 19.0225 13.4897 19.4598 13.3404C19.9078 13.1911 20.3665 13.1164 20.8358 13.1164C21.4652 13.1164 21.9772 13.2604 22.3718 13.5484C22.7772 13.8257 22.9798 14.2417 22.9798 14.7964C22.9798 15.1377 22.8998 15.4524 22.7398 15.7404C22.5798 16.0284 22.3665 16.3004 22.0998 16.5564C21.8438 16.8124 21.4705 17.1484 20.9798 17.5644L20.7078 17.8044L17.4758 20.4924V22.4444H25.8438V20.4124ZM8.28852 22.4444H15.8085V20.3324H10.6405V11.2444H8.28852V22.4444Z" fill="white"/>
</svg>
