<svg width="64" height="64" viewBox="0 0 64 64" fill="none" xmlns="http://www.w3.org/2000/svg">
<path fill-rule="evenodd" clip-rule="evenodd" d="M4 7.11111C4 5.39289 5.39289 4 7.11111 4H56.8889C58.6071 4 60 5.39289 60 7.11111V56.8889C60 58.6071 58.6071 60 56.8889 60H7.11111C5.39289 60 4 58.6071 4 56.8889V7.11111ZM10.2222 8.66667C9.36311 8.66667 8.66667 9.36311 8.66667 10.2222V53.7778C8.66667 54.6369 9.36311 55.3333 10.2222 55.3333H53.7778C54.6369 55.3333 55.3333 54.6369 55.3333 53.7778V10.2222C55.3333 9.36311 54.6369 8.66667 53.7778 8.66667H10.2222ZM11.7778 11.7778V52.2222H52.2222V11.7778H11.7778ZM27.186 39.7777H37.8571V36.3803H30.9536V24.5332H27.186V39.7777Z" fill="white"/>
</svg>
