<svg width="32" height="32" viewBox="0 0 32 32" fill="none" xmlns="http://www.w3.org/2000/svg">
<path fill-rule="evenodd" clip-rule="evenodd" d="M2 0C0.895431 0 0 0.895431 0 2V30C0 31.1046 0.895431 32 2 32H30C31.1046 32 32 31.1046 32 30V2C32 0.895431 31.1046 0 30 0H2ZM7.32151 22H14.8415V19.888H9.67351V10.8H7.32151V22ZM24.3328 12.8V10.8H17.1808V16.576L18.6688 17.392C18.9995 17.1254 19.3355 16.928 19.6768 16.8C20.0182 16.6614 20.3915 16.592 20.7968 16.592C21.3408 16.592 21.7675 16.736 22.0768 17.024C22.3968 17.312 22.5568 17.728 22.5568 18.272C22.5568 18.8907 22.3488 19.3654 21.9328 19.696C21.5168 20.0267 20.9302 20.192 20.1728 20.192C19.1702 20.192 18.2582 19.9147 17.4368 19.36L16.6048 21.152C17.0208 21.504 17.5435 21.776 18.1728 21.968C18.8022 22.16 19.4795 22.256 20.2048 22.256C21.1862 22.256 22.0342 22.0907 22.7488 21.76C23.4742 21.4187 24.0235 20.944 24.3968 20.336C24.7808 19.728 24.9728 19.0187 24.9728 18.208C24.9728 17.12 24.6688 16.2934 24.0608 15.728C23.4635 15.152 22.6635 14.864 21.6608 14.864C21.2662 14.864 20.8715 14.912 20.4768 15.008C20.0928 15.0934 19.7462 15.232 19.4368 15.424V12.8H24.3328Z" fill="white"/>
</svg>
