<svg width="32" height="32" viewBox="0 0 32 32" fill="none" xmlns="http://www.w3.org/2000/svg">
<path fill-rule="evenodd" clip-rule="evenodd" d="M1.52299 6.39376C1.66647 4.29542 3.41044 2.66663 5.51367 2.66663H26.4864C28.5897 2.66663 30.3337 4.29542 30.4771 6.39376L31.7079 24.3938C31.8659 26.7049 30.0338 28.6666 27.7172 28.6666H4.28291C1.96635 28.6666 0.134194 26.7049 0.292222 24.3938L1.52299 6.39376ZM20.6966 21.3888H13.1766V10.1888H15.5286V19.2768H20.6966V21.3888ZM5.86224 4.25C4.41948 4.25 3.22202 5.36498 3.11923 6.80407L1.90494 23.8041C1.79124 25.396 3.05201 26.75 4.64795 26.75H27.352C28.948 26.75 30.2088 25.396 30.0951 23.8041L28.8808 6.80407C28.778 5.36498 27.5805 4.25 26.1378 4.25H5.86224ZM4.61542 6.91094C4.66214 6.25681 5.20644 5.75 5.86224 5.75H26.1378C26.7936 5.75 27.3379 6.25681 27.3846 6.91094L28.5989 23.9109C28.6506 24.6345 28.0775 25.25 27.352 25.25H4.64795C3.92253 25.25 3.34944 24.6345 3.40113 23.9109L4.61542 6.91094Z" fill="white"/>
</svg>
