<svg width="64" height="64" viewBox="0 0 64 64" fill="none" xmlns="http://www.w3.org/2000/svg">
<path fill-rule="evenodd" clip-rule="evenodd" d="M7 2.78261C7 1.24582 8.24582 0 9.78261 0H54.3043C55.8411 0 57.087 1.24582 57.087 2.78261V47.3043C57.087 48.8411 55.8411 50.087 54.3043 50.087H9.78261C8.24582 50.087 7 48.8411 7 47.3043V2.78261ZM12.5652 4.17391C11.7968 4.17391 11.1739 4.79682 11.1739 5.56522V44.5217C11.1739 45.2901 11.7968 45.913 12.5652 45.913H51.5217C52.2901 45.913 52.913 45.2901 52.913 44.5217V5.56522C52.913 4.79682 52.2901 4.17391 51.5217 4.17391H12.5652ZM13.9565 6.95652V43.1304H50.1304V6.95652H13.9565ZM32.0435 64L40.3913 54.2609H23.6957L32.0435 64ZM27.7378 31.9999H37.2821V28.9613H31.1075V18.3651H27.7378V31.9999Z" fill="white"/>
</svg>
