<svg width="32" height="32" viewBox="0 0 32 32" fill="none" xmlns="http://www.w3.org/2000/svg">
<path fill-rule="evenodd" clip-rule="evenodd" d="M25.3333 2C29.0152 2 32 5.97969 32 10.8889V28.6667C32 29.6485 31.403 30.4444 30.6667 30.4444H1.33333C0.596953 30.4444 0 29.6485 0 28.6667V3.77778C0 2.79594 0.596953 2 1.33333 2H25.3333ZM14.0609 22.4445H16.6689L14.0289 18.2045C14.7116 17.9058 15.2396 17.4685 15.6129 16.8925C15.9969 16.3165 16.1889 15.5965 16.1889 14.7325C16.1889 13.6338 15.8263 12.7805 15.1009 12.1725C14.3756 11.5538 13.2449 11.2445 11.7089 11.2445H7.51693V22.4445H9.86893V18.6685H11.5329H11.8049L14.0609 22.4445ZM9.86893 16.6525V13.2445H11.5649C12.3009 13.2445 12.8343 13.3831 13.1649 13.6605C13.5063 13.9271 13.6769 14.3325 13.6769 14.8765C13.6769 15.4311 13.5009 15.8685 13.1489 16.1885C12.8076 16.4978 12.3276 16.6525 11.7089 16.6525H9.86893ZM23.7056 20.4125V11.2445H21.8976L18.2176 13.0685L18.9696 14.8285L21.3216 13.8365V20.4125H18.6816V22.4445H25.8336V20.4125H23.7056Z" fill="white"/>
</svg>
