<svg width="32" height="32" viewBox="0 0 32 32" fill="none" xmlns="http://www.w3.org/2000/svg">
<path fill-rule="evenodd" clip-rule="evenodd" d="M12.8333 5.66785C10.7286 5.66785 8.984 7.29875 8.84234 9.39862L8.02049 21.5814C7.86466 23.8913 9.69631 25.8507 12.0114 25.8507H27.9613C30.2764 25.8507 32.108 23.8913 31.9522 21.5814L31.1303 9.39862C30.9887 7.29875 29.244 5.66785 27.1394 5.66785H12.8333ZM21.9256 20.3979H24.0311L21.8997 16.9747C22.4509 16.7335 22.8772 16.3805 23.1786 15.9154C23.4886 15.4504 23.6436 14.8691 23.6436 14.1715C23.6436 13.2845 23.3508 12.5956 22.7652 12.1047C22.1796 11.6052 21.2667 11.3555 20.0266 11.3555H16.6422V20.3979H18.5411V17.3493H19.8846H20.1042L21.9256 20.3979ZM18.5411 15.7217V12.9702H19.9104C20.5046 12.9702 20.9352 13.0821 21.2022 13.306C21.4777 13.5213 21.6155 13.8486 21.6155 14.2878C21.6155 14.7356 21.4734 15.0887 21.1892 15.347C20.9137 15.5968 20.5261 15.7217 20.0266 15.7217H18.5411Z" fill="white"/>
<path d="M5.33337 10.3333L5.33337 21L4.05312e-05 15.6667L5.33337 10.3333Z" fill="white"/>
</svg>
