<svg width="64" height="64" viewBox="0 0 64 64" fill="none" xmlns="http://www.w3.org/2000/svg">
<path fill-rule="evenodd" clip-rule="evenodd" d="M4 7.11111C4 5.39289 5.39289 4 7.11111 4H56.8889C58.6071 4 60 5.39289 60 7.11111V56.8889C60 58.6071 58.6071 60 56.8889 60H7.11111C5.39289 60 4 58.6071 4 56.8889V7.11111ZM10.2222 8.66667C9.36311 8.66667 8.66667 9.36311 8.66667 10.2222V53.7778C8.66667 54.6369 9.36311 55.3333 10.2222 55.3333H53.7778C54.6369 55.3333 55.3333 54.6369 55.3333 53.7778V10.2222C55.3333 9.36311 54.6369 8.66667 53.7778 8.66667H10.2222ZM11.7778 11.7778V52.2222H52.2222V11.7778H11.7778ZM34.8783 39.7777H39.0596L35.5534 34.1808C36.4536 33.7743 37.1504 33.179 37.6441 32.395C38.1522 31.5965 38.4063 30.6093 38.4063 29.4333C38.4063 27.8798 37.8836 26.6747 36.8383 25.8181C35.793 24.9616 34.1814 24.5333 32.0036 24.5333H26.0801V39.7777H29.8476V34.943H31.6552H31.9819L34.8783 39.7777ZM29.8476 31.7199V27.7564H31.8294C32.715 27.7564 33.3611 27.9161 33.7676 28.2355C34.1742 28.5404 34.3774 29.005 34.3774 29.6293C34.3774 30.3116 34.1524 30.8343 33.7023 31.1973C33.2667 31.5457 32.6642 31.7199 31.8947 31.7199H29.8476Z" fill="white"/>
</svg>
