<svg width="64" height="64" viewBox="0 0 64 64" fill="none" xmlns="http://www.w3.org/2000/svg">
<path fill-rule="evenodd" clip-rule="evenodd" d="M40.3479 9.73913L32 0L23.6522 9.73913H40.3479ZM13.9131 20.8696V57.0435H50.087V20.8696H13.9131ZM9.73915 13.913C8.20236 13.913 6.95654 15.1589 6.95654 16.6957V61.2174C6.95654 62.7542 8.20236 64 9.73915 64H54.2609C55.7977 64 57.0435 62.7542 57.0435 61.2174V16.6957C57.0435 15.1589 55.7977 13.913 54.2609 13.913H9.73915ZM11.1305 19.4783C11.1305 18.7099 11.7534 18.087 12.5218 18.087H51.4783C52.2467 18.087 52.8696 18.7099 52.8696 19.4783V58.4348C52.8696 59.2032 52.2467 59.8261 51.4783 59.8261H12.5218C11.7534 59.8261 11.1305 59.2032 11.1305 58.4348V19.4783ZM34.5744 45.9129H38.3142L35.1782 40.907C35.9833 40.5434 36.6066 40.011 37.0481 39.3098C37.5026 38.5956 37.7298 37.7126 37.7298 36.6607C37.7298 35.2713 37.2624 34.1935 36.3274 33.4273C35.3924 32.6612 33.951 32.2781 32.0032 32.2781H26.7051V45.9129H30.0749V41.5887H31.6916H31.9837L34.5744 45.9129ZM30.0749 38.706V35.1609H31.8474C32.6395 35.1609 33.2174 35.3037 33.581 35.5894C33.9446 35.8621 34.1264 36.2777 34.1264 36.836C34.1264 37.4464 33.9251 37.9138 33.5225 38.2385C33.133 38.5501 32.5941 38.706 31.9058 38.706H30.0749Z" fill="white"/>
</svg>
