<svg width="32" height="32" viewBox="0 0 32 32" fill="none" xmlns="http://www.w3.org/2000/svg">
<g clip-path="url(#clip0_1967_16603)">
<path opacity="0.5" fill-rule="evenodd" clip-rule="evenodd" d="M32 22.594C32 27.503 29.015 30.444 25.333 30.444H1.334C0.598 30.444 0 29.648 0 28.666V3.778C0 2.796 0.598 2 1.334 2H30.667C31.403 2 32 2.796 32 3.778C32 3.778 31.268 7.458 31.156 8.687C30.7893 12.7238 31.0263 14.7265 31.1979 16.1764C31.2163 16.3317 31.2339 16.4806 31.25 16.625C31.444 18.371 32 22.594 32 22.594ZM25.3647 19.4124H19.9727L22.2927 17.4924C23.2207 16.7244 23.9087 16.031 24.3567 15.4124C24.8047 14.783 25.0287 14.0844 25.0287 13.3164C25.0287 12.271 24.6394 11.4657 23.8607 10.9004C23.082 10.335 22.0474 10.0524 20.7567 10.0524C20.0314 10.0524 19.3487 10.1537 18.7087 10.3564C18.0794 10.559 17.5194 10.831 17.0287 11.1724L17.8287 12.9004C18.1594 12.6764 18.5434 12.4897 18.9807 12.3404C19.4287 12.191 19.8874 12.1164 20.3567 12.1164C20.986 12.1164 21.498 12.2604 21.8927 12.5484C22.298 12.8257 22.5007 13.2417 22.5007 13.7964C22.5007 14.1377 22.4207 14.4524 22.2607 14.7404C22.1007 15.0284 21.8874 15.3004 21.6207 15.5564C21.3647 15.8124 20.9914 16.1484 20.5007 16.5644L20.2287 16.8044L16.9967 19.4924V21.4444H25.3647V19.4124ZM12.744 21.4444H15.352L12.712 17.2044C13.3947 16.9057 13.9227 16.4684 14.296 15.8924C14.68 15.3164 14.872 14.5964 14.872 13.7324C14.872 12.6337 14.5093 11.7804 13.784 11.1724C13.0587 10.5537 11.928 10.2444 10.392 10.2444H6.2V21.4444H8.552V17.6684H10.216H10.488L12.744 21.4444ZM8.552 15.6524V12.2444H10.248C10.984 12.2444 11.5173 12.383 11.848 12.6604C12.1893 12.927 12.36 13.3324 12.36 13.8764C12.36 14.431 12.184 14.8684 11.832 15.1884C11.4907 15.4977 11.0107 15.6524 10.392 15.6524H8.552Z" fill="white"/>
<path fill-rule="evenodd" clip-rule="evenodd" d="M0 28.6667V3.77777C0 2.79594 0.596952 2 1.33333 2H30.6667C31.0782 2 31.4462 2.2486 31.6908 2.63931L22.7799 10.3496C22.1953 10.1515 21.5208 10.0524 20.7567 10.0524C20.0314 10.0524 19.3487 10.1537 18.7087 10.3564C18.0794 10.559 17.5194 10.831 17.0287 11.1724L17.8287 12.9004C18.1594 12.6764 18.5434 12.4897 18.9807 12.3404C19.4287 12.191 19.8874 12.1164 20.3567 12.1164C20.4819 12.1164 20.6024 12.1221 20.7183 12.1335L13.4633 18.411L12.712 17.2044C13.3947 16.9057 13.9227 16.4684 14.296 15.8924C14.68 15.3164 14.872 14.5964 14.872 13.7324C14.872 12.6337 14.5093 11.7804 13.784 11.1724C13.0587 10.5537 11.928 10.2444 10.392 10.2444H6.2V21.4444H8.552V17.6684H10.216H10.488L11.7944 19.855L0.30427 29.7972C0.114182 29.4899 0 29.0961 0 28.6667ZM8.552 15.6524V12.2444H10.248C10.984 12.2444 11.5173 12.383 11.848 12.6604C12.1893 12.927 12.36 13.3324 12.36 13.8764C12.36 14.431 12.184 14.8684 11.832 15.1884C11.4907 15.4977 11.0107 15.6524 10.392 15.6524H8.552Z" fill="white"/>
</g>
<defs>
<clipPath id="clip0_1967_16603">
<rect width="32" height="32" fill="white"/>
</clipPath>
</defs>
</svg>
