<svg width="32" height="32" viewBox="0 0 32 32" fill="none" xmlns="http://www.w3.org/2000/svg">
<path d="M26.6666 10.6667L26.6666 21.3334L32 16L26.6666 10.6667Z" fill="white"/>
<path fill-rule="evenodd" clip-rule="evenodd" d="M11.5353 8.39929C9.43067 8.39929 7.68604 10.0302 7.54438 12.1301L7.05857 19.3314C6.90275 21.6413 8.7344 23.6007 11.0495 23.6007H20.9505C23.2656 23.6007 25.0972 21.6413 24.9414 19.3314L24.4556 12.1301C24.3139 10.0302 22.5693 8.39929 20.4646 8.39929H11.5353ZM17.561 19.375H19.1328L17.5417 16.8196C17.9531 16.6396 18.2714 16.3761 18.4964 16.0289C18.7278 15.6818 18.8435 15.2479 18.8435 14.7271C18.8435 14.065 18.6249 13.5507 18.1878 13.1843C17.7506 12.8114 17.0692 12.625 16.1435 12.625H13.6171V19.375H15.0346V17.0993H16.0374H16.2014L17.561 19.375ZM15.0346 15.8843V13.8304H16.0567C16.5003 13.8304 16.8217 13.9139 17.021 14.0811C17.2267 14.2418 17.3296 14.4861 17.3296 14.8139C17.3296 15.1482 17.2235 15.4118 17.0114 15.6046C16.8056 15.7911 16.5164 15.8843 16.1435 15.8843H15.0346Z" fill="white"/>
</svg>
