<svg width="64" height="64" viewBox="0 0 64 64" fill="none" xmlns="http://www.w3.org/2000/svg">
<path fill-rule="evenodd" clip-rule="evenodd" d="M50.6667 4C58.0305 4 64 11.9594 64 21.7778V57.3333C64 59.297 62.8061 60.8889 61.3333 60.8889H2.66667C1.19391 60.8889 0 59.297 0 57.3333V7.55556C0 5.59188 1.19391 4 2.66667 4H50.6667ZM27.0361 41.3333H31.8148L27.8077 34.9368C28.8364 34.4722 29.6329 33.7919 30.197 32.8959C30.7777 31.9833 31.0681 30.855 31.0681 29.511C31.0681 27.7356 30.4708 26.3585 29.2761 25.3795C28.0814 24.4005 26.2397 23.911 23.7508 23.911H16.981V41.3333H21.2868V35.8079H23.3526H23.7259L27.0361 41.3333ZM21.2868 32.1244V27.5946H23.5517C24.5638 27.5946 25.3022 27.7771 25.7668 28.1422C26.2314 28.4906 26.4637 29.0216 26.4637 29.735C26.4637 30.5149 26.2065 31.1122 25.6921 31.527C25.1943 31.9253 24.5057 32.1244 23.6263 32.1244H21.2868ZM44.3866 37.6497V23.911H41.0514L35.1777 26.823L36.5466 30.0337L40.0061 28.6648V37.6497H35.9741V41.3333H47.647V37.6497H44.3866Z" fill="white"/>
</svg>
