<svg width="64" height="64" viewBox="0 0 64 64" fill="none" xmlns="http://www.w3.org/2000/svg">
<path fill-rule="evenodd" clip-rule="evenodd" d="M8 10.6668C8 9.19403 9.19391 8.00012 10.6667 8.00012H53.3333C54.8061 8.00012 56 9.19403 56 10.6668V53.3335C56 54.8062 54.8061 56.0001 53.3333 56.0001H10.6667C9.19391 56.0001 8 54.8062 8 53.3335V10.6668ZM13.3333 12.0001C12.597 12.0001 12 12.5971 12 13.3335V50.6668C12 51.4032 12.597 52.0001 13.3333 52.0001H50.6667C51.403 52.0001 52 51.4032 52 50.6668V13.3335C52 12.5971 51.403 12.0001 50.6667 12.0001H13.3333ZM14.6667 14.6668V49.3335H49.3333V14.6668H14.6667ZM34.4671 38.6665H38.0511L35.0458 33.8692C35.8174 33.5207 36.4147 33.0105 36.8378 32.3385C37.2734 31.6541 37.4911 30.8079 37.4911 29.7999C37.4911 28.4683 37.0431 27.4354 36.1471 26.7012C35.2511 25.967 33.8698 25.5999 32.0031 25.5999H26.9258V38.6665H30.1551V34.5225H31.7045H31.9845L34.4671 38.6665ZM30.1551 31.7599V28.3625H31.8538C32.6129 28.3625 33.1667 28.4994 33.5151 28.7732C33.8636 29.0345 34.0378 29.4327 34.0378 29.9679C34.0378 30.5527 33.8449 31.0007 33.4591 31.3119C33.0858 31.6105 32.5694 31.7599 31.9098 31.7599H30.1551Z" fill="white"/>
<path fill-rule="evenodd" clip-rule="evenodd" d="M54 6H10C7.79086 6 6 7.79086 6 10V54C6 56.2091 7.79086 58 10 58H54C56.2091 58 58 56.2091 58 54V10C58 7.79086 56.2091 6 54 6ZM10 4C6.68629 4 4 6.68629 4 10V54C4 57.3137 6.68629 60 10 60H54C57.3137 60 60 57.3137 60 54V10C60 6.68629 57.3137 4 54 4H10Z" fill="white"/>
</svg>
