<svg width="32" height="32" viewBox="0 0 32 32" fill="none" xmlns="http://www.w3.org/2000/svg">
<path fill-rule="evenodd" clip-rule="evenodd" d="M25.3333 30.4444C29.0152 30.4444 32 26.4648 32 21.5556V3.77778C32 2.79594 31.403 2 30.6667 2H1.33333C0.596953 2 0 2.79594 0 3.77778V28.6667C0 29.6485 0.596953 30.4444 1.33333 30.4444H25.3333ZM25.7596 20.4124H20.3676L22.6876 18.4924C23.6156 17.7244 24.3036 17.0311 24.7516 16.4124C25.1996 15.7831 25.4236 15.0844 25.4236 14.3164C25.4236 13.2711 25.0343 12.4657 24.2556 11.9004C23.477 11.3351 22.4423 11.0524 21.1516 11.0524C20.4263 11.0524 19.7436 11.1537 19.1036 11.3564C18.4743 11.5591 17.9143 11.8311 17.4236 12.1724L18.2236 13.9004C18.5543 13.6764 18.9383 13.4897 19.3756 13.3404C19.8236 13.1911 20.2823 13.1164 20.7516 13.1164C21.381 13.1164 21.893 13.2604 22.2876 13.5484C22.693 13.8257 22.8956 14.2417 22.8956 14.7964C22.8956 15.1377 22.8156 15.4524 22.6556 15.7404C22.4956 16.0284 22.2823 16.3004 22.0156 16.5564C21.7596 16.8124 21.3863 17.1484 20.8956 17.5644L20.6236 17.8044L17.3916 20.4924V22.4444H25.7596V20.4124ZM13.1389 22.4444H15.7469L13.1069 18.2044C13.7896 17.9057 14.3176 17.4684 14.6909 16.8924C15.0749 16.3164 15.2669 15.5964 15.2669 14.7324C15.2669 13.6337 14.9043 12.7804 14.1789 12.1724C13.4536 11.5537 12.3229 11.2444 10.7869 11.2444H6.59494V22.4444H8.94694V18.6684H10.6109H10.8829L13.1389 22.4444ZM8.94694 16.6524V13.2444H10.6429C11.3789 13.2444 11.9123 13.3831 12.2429 13.6604C12.5843 13.9271 12.7549 14.3324 12.7549 14.8764C12.7549 15.4311 12.5789 15.8684 12.2269 16.1884C11.8856 16.4977 11.4056 16.6524 10.7869 16.6524H8.94694Z" fill="white"/>
</svg>
