<svg width="64" height="64" viewBox="0 0 64 64" fill="none" xmlns="http://www.w3.org/2000/svg">
<path fill-rule="evenodd" clip-rule="evenodd" d="M6.95654 2.78261C6.95654 1.24582 8.20236 0 9.73915 0H54.2609C55.7977 0 57.0435 1.24582 57.0435 2.78261V47.3043C57.0435 48.8411 55.7977 50.087 54.2609 50.087H9.73915C8.20236 50.087 6.95654 48.8411 6.95654 47.3043V2.78261ZM12.5218 4.17391C11.7534 4.17391 11.1305 4.79682 11.1305 5.56522V44.5217C11.1305 45.2901 11.7534 45.913 12.5218 45.913H51.4783C52.2467 45.913 52.8696 45.2901 52.8696 44.5217V5.56522C52.8696 4.79682 52.2467 4.17391 51.4783 4.17391H12.5218ZM13.9131 6.95652V43.1304H50.087V6.95652H13.9131ZM32 64L40.3478 54.2609H23.6522L32 64ZM34.5745 31.9999H38.3143L35.1783 26.994C35.9834 26.6304 36.6067 26.098 37.0482 25.3968C37.5027 24.6826 37.7299 23.7995 37.7299 22.7477C37.7299 21.3583 37.2625 20.2805 36.3275 19.5143C35.3925 18.7482 33.9512 18.3651 32.0033 18.3651H26.7052V31.9999H30.075V27.6757H31.6917H31.9838L34.5745 31.9999ZM30.075 24.7929V21.2479H31.8475C32.6396 21.2479 33.2175 21.3907 33.5811 21.6764C33.9447 21.9491 34.1265 22.3646 34.1265 22.923C34.1265 23.5333 33.9252 24.0008 33.5226 24.3255C33.1331 24.6371 32.5942 24.7929 31.9059 24.7929H30.075Z" fill="white"/>
</svg>
