<svg width="32" height="32" viewBox="0 0 32 32" fill="none" xmlns="http://www.w3.org/2000/svg">
<path fill-rule="evenodd" clip-rule="evenodd" d="M5.51367 2.66663C3.41044 2.66663 1.66647 4.29542 1.52299 6.39376L0.292222 24.3938C0.134194 26.7049 1.96635 28.6666 4.28291 28.6666H27.7172C30.0338 28.6666 31.8659 26.7049 31.7079 24.3938L30.4771 6.39376C30.3337 4.29542 28.5897 2.66663 26.4864 2.66663H5.51367ZM18.4159 21.3889H21.0239L18.3839 17.1489C19.0666 16.8502 19.5946 16.4129 19.9679 15.8369C20.3519 15.2609 20.5439 14.5409 20.5439 13.6769C20.5439 12.5782 20.1812 11.7249 19.4559 11.1169C18.7306 10.4982 17.5999 10.1889 16.0639 10.1889H11.8719V21.3889H14.2239V17.6129H15.8879H16.1599L18.4159 21.3889ZM14.2239 15.5969V12.1889H15.9199C16.6559 12.1889 17.1892 12.3275 17.5199 12.6049C17.8612 12.8715 18.0319 13.2769 18.0319 13.8209C18.0319 14.3755 17.8559 14.8129 17.5039 15.1329C17.1626 15.4422 16.6826 15.5969 16.0639 15.5969H14.2239Z" fill="white"/>
</svg>
