<svg width="32" height="32" viewBox="0 0 32 32" fill="none" xmlns="http://www.w3.org/2000/svg">
<path fill-rule="evenodd" clip-rule="evenodd" d="M32 22.594C32 27.503 29.015 30.444 25.333 30.444H1.334C0.598 30.444 0 29.648 0 28.666V3.778C0 2.796 0.598 2 1.334 2H30.667C31.403 2 32 2.796 32 3.778C32 3.778 31.268 7.458 31.156 8.687C30.7893 12.7238 31.0263 14.7265 31.1979 16.1764C31.2163 16.3317 31.2339 16.4806 31.25 16.625C31.444 18.371 32 22.594 32 22.594ZM25.3647 20.4124H19.9727L22.2927 18.4924C23.2207 17.7244 23.9087 17.031 24.3567 16.4124C24.8047 15.783 25.0287 15.0844 25.0287 14.3164C25.0287 13.271 24.6394 12.4657 23.8607 11.9004C23.082 11.335 22.0474 11.0524 20.7567 11.0524C20.0314 11.0524 19.3487 11.1537 18.7087 11.3564C18.0794 11.559 17.5194 11.831 17.0287 12.1724L17.8287 13.9004C18.1594 13.6764 18.5434 13.4897 18.9807 13.3404C19.4287 13.191 19.8874 13.1164 20.3567 13.1164C20.986 13.1164 21.498 13.2604 21.8927 13.5484C22.298 13.8257 22.5007 14.2417 22.5007 14.7964C22.5007 15.1377 22.4207 15.4524 22.2607 15.7404C22.1007 16.0284 21.8874 16.3004 21.6207 16.5564C21.3647 16.8124 20.9914 17.1484 20.5007 17.5644L20.2287 17.8044L16.9967 20.4924V22.4444H25.3647V20.4124ZM12.744 22.4444H15.352L12.712 18.2044C13.3947 17.9057 13.9227 17.4684 14.296 16.8924C14.68 16.3164 14.872 15.5964 14.872 14.7324C14.872 13.6337 14.5093 12.7804 13.784 12.1724C13.0587 11.5537 11.928 11.2444 10.392 11.2444H6.2V22.4444H8.552V18.6684H10.216H10.488L12.744 22.4444ZM8.552 16.6524V13.2444H10.248C10.984 13.2444 11.5173 13.383 11.848 13.6604C12.1893 13.927 12.36 14.3324 12.36 14.8764C12.36 15.431 12.184 15.8684 11.832 16.1884C11.4907 16.4977 11.0107 16.6524 10.392 16.6524H8.552Z" fill="white"/>
</svg>
