<svg width="64" height="64" viewBox="0 0 64 64" fill="none" xmlns="http://www.w3.org/2000/svg">
<path fill-rule="evenodd" clip-rule="evenodd" d="M19.0001 0L31.8001 14.4L44.6 0H19.0001ZM43.1927 6.4L38.926 11.2H54.2C55.0837 11.2 55.8 11.9163 55.8 12.8V57.6C55.8 58.4837 55.0837 59.2 54.2 59.2H9.4C8.51635 59.2 7.8 58.4837 7.8 57.6V12.8C7.8 11.9163 8.51634 11.2 9.4 11.2H24.6742L20.4076 6.4H6.2C4.43269 6.4 3 7.83269 3 9.6V60.8C3 62.5673 4.43269 64 6.2 64H57.4C59.1673 64 60.6 62.5673 60.6 60.8V9.6C60.6 7.83269 59.1673 6.4 57.4 6.4H43.1927ZM11 14.4H27.5187L31.8001 19.2166L36.0816 14.4H52.6V56H11V14.4ZM34.7605 43.1999H39.0613L35.4549 37.4431C36.3808 37.025 37.0976 36.4127 37.6053 35.6063C38.128 34.785 38.3893 33.7695 38.3893 32.5599C38.3893 30.9621 37.8517 29.7226 36.7765 28.8415C35.7013 27.9605 34.0437 27.5199 31.8037 27.5199H25.7109V43.1999H29.5861V38.2271H31.4453H31.7813L34.7605 43.1999ZM29.5861 34.9119V30.8351H31.6245C32.5355 30.8351 33.2 30.9994 33.6181 31.3279C34.0363 31.6415 34.2453 32.1194 34.2453 32.7615C34.2453 33.4634 34.0139 34.001 33.5509 34.3743C33.1029 34.7327 32.4832 34.9119 31.6917 34.9119H29.5861Z" fill="white"/>
</svg>
