<svg width="32" height="32" viewBox="0 0 32 32" fill="none" xmlns="http://www.w3.org/2000/svg">
<path fill-rule="evenodd" clip-rule="evenodd" d="M6.30712 7.11108C4.20248 7.11108 2.45785 8.74199 2.31619 10.8419L1.17686 27.7307C1.02103 30.0406 2.85268 32 5.16779 32H26.8321C29.1473 32 30.9789 30.0406 30.8231 27.7307L29.6837 10.8419C29.5421 8.74199 27.7975 7.11108 25.6928 7.11108H6.30712ZM18.4158 24.9444H21.0238L18.3838 20.7044C19.0665 20.4058 19.5945 19.9684 19.9678 19.3924C20.3518 18.8164 20.5438 18.0964 20.5438 17.2324C20.5438 16.1338 20.1812 15.2804 19.4558 14.6724C18.7305 14.0538 17.5998 13.7444 16.0638 13.7444H11.8718V24.9444H14.2238V21.1684H15.8878H16.1598L18.4158 24.9444ZM14.2238 19.1524V15.7444H15.9198C16.6558 15.7444 17.1892 15.8831 17.5198 16.1604C17.8612 16.4271 18.0318 16.8324 18.0318 17.3764C18.0318 17.9311 17.8558 18.3684 17.5038 18.6884C17.1625 18.9978 16.6825 19.1524 16.0638 19.1524H14.2238Z" fill="white"/>
<path d="M21.3333 0H10.6666L16 5.33333L21.3333 0Z" fill="white"/>
</svg>
