<svg width="32" height="32" viewBox="0 0 32 32" fill="none" xmlns="http://www.w3.org/2000/svg">
<path fill-rule="evenodd" clip-rule="evenodd" d="M2 0C0.895431 0 0 0.895431 0 2V30C0 31.1046 0.895431 32 2 32H30C31.1046 32 32 31.1046 32 30V2C32 0.895431 31.1046 0 30 0H2ZM13.0608 22H15.6688L13.0288 17.76C13.7115 17.4614 14.2395 17.024 14.6128 16.448C14.9968 15.872 15.1888 15.152 15.1888 14.288C15.1888 13.1894 14.8262 12.336 14.1008 11.728C13.3755 11.1094 12.2448 10.8 10.7088 10.8H6.51682V22H8.86882V18.224H10.5328H10.8048L13.0608 22ZM8.86882 16.208V12.8H10.5648C11.3008 12.8 11.8342 12.9387 12.1648 13.216C12.5062 13.4827 12.6768 13.888 12.6768 14.432C12.6768 14.9867 12.5008 15.424 12.1488 15.744C11.8075 16.0534 11.3275 16.208 10.7088 16.208H8.86882ZM25.1375 12.8V10.8H17.9855V16.576L19.4735 17.392C19.8042 17.1254 20.1402 16.928 20.4815 16.8C20.8228 16.6614 21.1962 16.592 21.6015 16.592C22.1455 16.592 22.5722 16.736 22.8815 17.024C23.2015 17.312 23.3615 17.728 23.3615 18.272C23.3615 18.8907 23.1535 19.3654 22.7375 19.696C22.3215 20.0267 21.7348 20.192 20.9775 20.192C19.9748 20.192 19.0628 19.9147 18.2415 19.36L17.4095 21.152C17.8255 21.504 18.3482 21.776 18.9775 21.968C19.6068 22.16 20.2842 22.256 21.0095 22.256C21.9908 22.256 22.8388 22.0907 23.5535 21.76C24.2788 21.4187 24.8282 20.944 25.2015 20.336C25.5855 19.728 25.7775 19.0187 25.7775 18.208C25.7775 17.12 25.4735 16.2934 24.8655 15.728C24.2682 15.152 23.4682 14.864 22.4655 14.864C22.0708 14.864 21.6762 14.912 21.2815 15.008C20.8975 15.0934 20.5508 15.232 20.2415 15.424V12.8H25.1375Z" fill="white"/>
</svg>
