<svg width="32" height="32" viewBox="0 0 32 32" fill="none" xmlns="http://www.w3.org/2000/svg">
<path fill-rule="evenodd" clip-rule="evenodd" d="M2 0C0.895431 0 0 0.895431 0 2V30C0 31.1046 0.895431 32 2 32H30C31.1046 32 32 31.1046 32 30V2C32 0.895431 31.1046 0 30 0H2ZM12.9046 22H15.5126L12.8726 17.76C13.5552 17.4614 14.0832 17.024 14.4566 16.448C14.8406 15.872 15.0326 15.152 15.0326 14.288C15.0326 13.1894 14.6699 12.336 13.9446 11.728C13.2192 11.1094 12.0886 10.8 10.5526 10.8H6.36057V22H8.71257V18.224H10.3766H10.6486L12.9046 22ZM8.71257 16.208V12.8H10.4086C11.1446 12.8 11.6779 12.9387 12.0086 13.216C12.3499 13.4827 12.5206 13.888 12.5206 14.432C12.5206 14.9867 12.3446 15.424 11.9926 15.744C11.6512 16.0534 11.1712 16.208 10.5526 16.208H8.71257ZM24.5813 17.648V10.8H22.4053L16.9173 17.92V19.456H22.1973V22H24.5813V19.456H26.1973V17.648H24.5813ZM19.2053 17.648L22.2933 13.6V17.648H19.2053Z" fill="white"/>
</svg>
