<svg width="64" height="64" viewBox="0 0 64 64" fill="none" xmlns="http://www.w3.org/2000/svg">
<path fill-rule="evenodd" clip-rule="evenodd" d="M13.913 9.73915C13.913 8.20236 15.1589 6.95654 16.6957 6.95654H61.2174C62.7542 6.95654 64 8.20236 64 9.73915V54.2609C64 55.7977 62.7542 57.0435 61.2174 57.0435H16.6957C15.1589 57.0435 13.913 55.7977 13.913 54.2609V9.73915ZM19.4783 11.1305C18.7099 11.1305 18.087 11.7534 18.087 12.5218V51.4783C18.087 52.2467 18.7099 52.8696 19.4783 52.8696H58.4348C59.2032 52.8696 59.8261 52.2467 59.8261 51.4783V12.5218C59.8261 11.7534 59.2032 11.1305 58.4348 11.1305H19.4783ZM57.0435 13.9131H20.8696V50.087H57.0435V13.9131ZM0 32L9.73913 23.6522V40.3479L0 32ZM41.5309 38.9565H45.2708L42.1348 33.9506C42.9399 33.587 43.5632 33.0546 44.0047 32.3534C44.4592 31.6391 44.6864 30.7561 44.6864 29.7043C44.6864 28.3149 44.2189 27.2371 43.284 26.4709C42.349 25.7048 40.9076 25.3217 38.9598 25.3217H33.6617V38.9565H37.0315V34.6323H38.6482H38.9403L41.5309 38.9565ZM37.0315 31.7495V28.2045H38.804C39.5961 28.2045 40.174 28.3473 40.5375 28.633C40.9011 28.9057 41.0829 29.3212 41.0829 29.8796C41.0829 30.4899 40.8817 30.9574 40.4791 31.282C40.0895 31.5937 39.5506 31.7495 38.8624 31.7495H37.0315Z" fill="white"/>
</svg>
