<svg width="32" height="32" viewBox="0 0 32 32" fill="none" xmlns="http://www.w3.org/2000/svg">
<g clip-path="url(#clip0_1967_16796)">
<path fill-rule="evenodd" clip-rule="evenodd" d="M4.82204 5.66785C2.7174 5.66785 0.97277 7.29875 0.831113 9.39862L0.00925547 21.5814C-0.146568 23.8913 1.68508 25.8507 4.00019 25.8507H19.95C22.2651 25.8507 24.0968 23.8913 23.941 21.5814L23.1191 9.39862C22.9774 7.29875 21.2328 5.66785 19.1282 5.66785H4.82204ZM13.9256 20.3979H16.0311L13.8997 16.9747C14.4509 16.7335 14.8772 16.3805 15.1786 15.9154C15.4886 15.4504 15.6436 14.8691 15.6436 14.1715C15.6436 13.2845 15.3508 12.5956 14.7652 12.1047C14.1796 11.6052 13.2667 11.3555 12.0266 11.3555H8.64221V20.3979H10.5411V17.3493H11.8846H12.1042L13.9256 20.3979ZM10.5411 15.7217V12.9702H11.9104C12.5046 12.9702 12.9352 13.0821 13.2022 13.306C13.4777 13.5213 13.6155 13.8486 13.6155 14.2878C13.6155 14.7356 13.4734 15.0887 13.1892 15.347C12.9137 15.5968 12.5261 15.7217 12.0266 15.7217H10.5411Z" fill="white"/>
<path d="M26.9502 10.3333V21L32.2835 15.6667L26.9502 10.3333Z" fill="white"/>
</g>
<defs>
<clipPath id="clip0_1967_16796">
<rect width="32" height="32" fill="white"/>
</clipPath>
</defs>
</svg>
