<svg width="32" height="32" viewBox="0 0 32 32" fill="none" xmlns="http://www.w3.org/2000/svg">
<path d="M21.3333 24.8889H10.6666L16 30.2222L21.3333 24.8889Z" fill="white"/>
<path fill-rule="evenodd" clip-rule="evenodd" d="M8.82204 2C6.7174 2 4.97277 3.63091 4.83111 5.73077L4.00926 17.9136C3.85343 20.2235 5.68508 22.1828 8.00019 22.1828H23.95C26.2651 22.1828 28.0968 20.2235 27.941 17.9136L27.1191 5.73077C26.9774 3.63091 25.2328 2 23.1282 2H8.82204ZM17.9256 16.3979H20.0311L17.8997 12.9747C18.4509 12.7335 18.8772 12.3805 19.1786 11.9154C19.4886 11.4504 19.6436 10.8691 19.6436 10.1715C19.6436 9.28451 19.3508 8.59557 18.7652 8.1047C18.1796 7.60521 17.2667 7.35547 16.0266 7.35547H12.6422V16.3979H14.5411V13.3493H15.8846H16.1042L17.9256 16.3979ZM14.5411 11.7217V8.97018H15.9104C16.5046 8.97018 16.9352 9.08214 17.2022 9.30604C17.4777 9.52134 17.6155 9.84859 17.6155 10.2878C17.6155 10.7356 17.4734 11.0887 17.1892 11.347C16.9137 11.5968 16.5261 11.7217 16.0266 11.7217H14.5411Z" fill="white"/>
</svg>
