<svg width="32" height="32" viewBox="0 0 32 32" fill="none" xmlns="http://www.w3.org/2000/svg">
<path d="M21.3333 7.33337H10.6666L16 2.00004L21.3333 7.33337Z" fill="white"/>
<path fill-rule="evenodd" clip-rule="evenodd" d="M8.82204 10C6.7174 10 4.97277 11.6309 4.83111 13.7308L4.00926 25.9136C3.85343 28.2235 5.68508 30.1828 8.00019 30.1828H23.95C26.2651 30.1828 28.0968 28.2235 27.941 25.9136L27.1191 13.7308C26.9774 11.6309 25.2328 10 23.1282 10H8.82204ZM17.9256 24.3979H20.0311L17.8997 20.9747C18.4509 20.7335 18.8772 20.3805 19.1786 19.9154C19.4886 19.4504 19.6436 18.8691 19.6436 18.1715C19.6436 17.2845 19.3508 16.5956 18.7652 16.1047C18.1796 15.6052 17.2667 15.3555 16.0266 15.3555H12.6422V24.3979H14.5411V21.3493H15.8846H16.1042L17.9256 24.3979ZM14.5411 19.7217V16.9702H15.9104C16.5046 16.9702 16.9352 17.0821 17.2022 17.306C17.4777 17.5213 17.6155 17.8486 17.6155 18.2878C17.6155 18.7356 17.4734 19.0887 17.1892 19.347C16.9137 19.5968 16.5261 19.7217 16.0266 19.7217H14.5411Z" fill="white"/>
</svg>
