<svg width="32" height="32" viewBox="0 0 32 32" fill="none" xmlns="http://www.w3.org/2000/svg">
<g clip-path="url(#clip0_1967:16603)">
<path opacity="0.5" fill-rule="evenodd" clip-rule="evenodd" d="M25.3333 30.4444C29.0152 30.4444 32 26.4648 32 21.5556V3.77778C32 2.79594 31.403 2 30.6667 2H1.33333C0.596953 2 0 2.79594 0 3.77778V28.6667C0 29.6485 0.596953 30.4444 1.33333 30.4444H25.3333ZM25.7597 19.4124H20.3677L22.6877 17.4924C23.6157 16.7244 24.3037 16.031 24.7517 15.4124C25.1997 14.783 25.4237 14.0844 25.4237 13.3164C25.4237 12.271 25.0343 11.4657 24.2557 10.9004C23.477 10.335 22.4423 10.0524 21.1517 10.0524C20.4263 10.0524 19.7437 10.1537 19.1037 10.3564C18.4743 10.559 17.9143 10.831 17.4237 11.1724L18.2237 12.9004C18.5543 12.6764 18.9383 12.4897 19.3757 12.3404C19.8237 12.191 20.2823 12.1164 20.7517 12.1164C21.381 12.1164 21.893 12.2604 22.2877 12.5484C22.693 12.8257 22.8957 13.2417 22.8957 13.7964C22.8957 14.1377 22.8157 14.4524 22.6557 14.7404C22.4957 15.0284 22.2823 15.3004 22.0157 15.5564C21.7597 15.8124 21.3863 16.1484 20.8957 16.5644L20.6237 16.8044L17.3917 19.4924V21.4444H25.7597V19.4124ZM13.139 21.4444H15.747L13.107 17.2044C13.7896 16.9057 14.3176 16.4684 14.691 15.8924C15.075 15.3164 15.267 14.5964 15.267 13.7324C15.267 12.6337 14.9043 11.7804 14.179 11.1724C13.4536 10.5537 12.323 10.2444 10.787 10.2444H6.59497V21.4444H8.94697V17.6684H10.611H10.883L13.139 21.4444ZM8.94697 15.6524V12.2444H10.643C11.379 12.2444 11.9123 12.383 12.243 12.6604C12.5843 12.927 12.755 13.3324 12.755 13.8764C12.755 14.431 12.579 14.8684 12.227 15.1884C11.8856 15.4977 11.4056 15.6524 10.787 15.6524H8.94697Z" fill="white"/>
<path fill-rule="evenodd" clip-rule="evenodd" d="M0 28.6667V3.77777C0 2.79594 0.596952 2 1.33333 2H30.6667C31.0782 2 31.4462 2.2486 31.6908 2.63931L22.8826 10.2608C22.3685 10.1218 21.7916 10.0524 21.1517 10.0524C20.4263 10.0524 19.7437 10.1537 19.1037 10.3564C18.4743 10.559 17.9143 10.831 17.4237 11.1724L18.2237 12.9004C18.5543 12.6764 18.9383 12.4897 19.3757 12.3404C19.8193 12.1925 20.2735 12.1178 20.7381 12.1164L13.72 18.1889L13.107 17.2044C13.7896 16.9057 14.3176 16.4684 14.691 15.8924C15.075 15.3164 15.267 14.5964 15.267 13.7324C15.267 12.6337 14.9043 11.7804 14.179 11.1724C13.4536 10.5537 12.323 10.2444 10.787 10.2444H6.59497V21.4444H8.94697V17.6684H10.611H10.883L12.0548 19.6298L0.30427 29.7972C0.114182 29.4899 0 29.0961 0 28.6667ZM8.94697 15.6524V12.2444H10.643C11.379 12.2444 11.9123 12.383 12.243 12.6604C12.5843 12.927 12.755 13.3324 12.755 13.8764C12.755 14.431 12.579 14.8684 12.227 15.1884C11.8856 15.4977 11.4056 15.6524 10.787 15.6524H8.94697Z" fill="white"/>
</g>
<defs>
<clipPath id="clip0_1967:16603">
<rect width="32" height="32" fill="white"/>
</clipPath>
</defs>
</svg>
