<svg width="64" height="64" viewBox="0 0 64 64" fill="none" xmlns="http://www.w3.org/2000/svg">
<path fill-rule="evenodd" clip-rule="evenodd" d="M6 4C4.89543 4 4 4.89543 4 6V58C4 59.1046 4.89543 60 6 60H58C59.1046 60 60 59.1046 60 58V6C60 4.89543 59.1046 4 58 4H6ZM26.583 42.5H31.147L26.527 35.08C27.7217 34.5574 28.6457 33.792 29.299 32.784C29.971 31.776 30.307 30.516 30.307 29.004C30.307 27.0814 29.6723 25.588 28.403 24.524C27.1337 23.4414 25.155 22.9 22.467 22.9H15.131V42.5H19.247V35.892H22.159H22.635L26.583 42.5ZM19.247 32.364V26.4H22.215C23.503 26.4 24.4363 26.6427 25.015 27.128C25.6123 27.5947 25.911 28.304 25.911 29.256C25.911 30.2267 25.603 30.992 24.987 31.552C24.3897 32.0934 23.5497 32.364 22.467 32.364H19.247ZM47.0172 34.884V22.9H43.2092L33.6052 35.36V38.048H42.8452V42.5H47.0172V38.048H49.8452V34.884H47.0172ZM37.6092 34.884L43.0132 27.8V34.884H37.6092Z" fill="white"/>
</svg>
