<svg width="64" height="64" viewBox="0 0 64 64" fill="none" xmlns="http://www.w3.org/2000/svg">
<path fill-rule="evenodd" clip-rule="evenodd" d="M6 4C4.89543 4 4 4.89543 4 6V58C4 59.1046 4.89543 60 6 60H58C59.1046 60 60 59.1046 60 58V6C60 4.89543 59.1046 4 58 4H6ZM26.8564 42.5H31.4204L26.8004 35.08C27.9951 34.5574 28.9191 33.792 29.5724 32.784C30.2444 31.776 30.5804 30.516 30.5804 29.004C30.5804 27.0814 29.9458 25.588 28.6764 24.524C27.4071 23.4414 25.4284 22.9 22.7404 22.9H15.4044V42.5H19.5204V35.892H22.4324H22.9084L26.8564 42.5ZM19.5204 32.364V26.4H22.4884C23.7764 26.4 24.7098 26.6427 25.2884 27.128C25.8858 27.5947 26.1844 28.304 26.1844 29.256C26.1844 30.2267 25.8764 30.992 25.2604 31.552C24.6631 32.0934 23.8231 32.364 22.7404 32.364H19.5204ZM47.9906 26.4V22.9H35.4746V33.008L38.0786 34.436C38.6573 33.9694 39.2453 33.624 39.8426 33.4C40.44 33.1574 41.0933 33.036 41.8026 33.036C42.7546 33.036 43.5013 33.288 44.0426 33.792C44.6026 34.296 44.8826 35.024 44.8826 35.976C44.8826 37.0587 44.5186 37.8894 43.7906 38.468C43.0626 39.0467 42.036 39.336 40.7106 39.336C38.956 39.336 37.36 38.8507 35.9226 37.88L34.4666 41.016C35.1946 41.632 36.1093 42.108 37.2106 42.444C38.312 42.78 39.4973 42.948 40.7666 42.948C42.484 42.948 43.968 42.6587 45.2186 42.08C46.488 41.4827 47.4493 40.652 48.1026 39.588C48.7746 38.524 49.1106 37.2827 49.1106 35.864C49.1106 33.96 48.5786 32.5134 47.5146 31.524C46.4693 30.516 45.0693 30.012 43.3146 30.012C42.624 30.012 41.9333 30.096 41.2426 30.264C40.5706 30.4134 39.964 30.656 39.4226 30.992V26.4H47.9906Z" fill="white"/>
</svg>
