<svg width="32" height="32" viewBox="0 0 32 32" fill="none" xmlns="http://www.w3.org/2000/svg">
<path fill-rule="evenodd" clip-rule="evenodd" d="M1.52299 6.39376C1.66647 4.29542 3.41044 2.66663 5.51367 2.66663H26.4864C28.5897 2.66663 30.3337 4.29542 30.4771 6.39376L31.7079 24.3938C31.8659 26.7049 30.0338 28.6666 27.7172 28.6666H4.28291C1.96635 28.6666 0.134194 26.7049 0.292222 24.3938L1.52299 6.39376ZM21.0239 21.3888H18.4159L16.1599 17.6128H15.8879H14.2239V21.3888H11.8719V10.1888H16.0639C17.5999 10.1888 18.7306 10.4982 19.4559 11.1168C20.1813 11.7248 20.5439 12.5782 20.5439 13.6768C20.5439 14.5408 20.3519 15.2608 19.9679 15.8368C19.5946 16.4128 19.0666 16.8502 18.3839 17.1488L21.0239 21.3888ZM14.2239 12.1888V15.5968H16.0639C16.6826 15.5968 17.1626 15.4422 17.5039 15.1328C17.8559 14.8128 18.0319 14.3755 18.0319 13.8208C18.0319 13.2768 17.8613 12.8715 17.5199 12.6048C17.1893 12.3275 16.6559 12.1888 15.9199 12.1888H14.2239ZM5.86224 4.25C4.41948 4.25 3.22202 5.36498 3.11923 6.80407L1.90494 23.8041C1.79124 25.396 3.05201 26.75 4.64795 26.75H27.352C28.948 26.75 30.2088 25.396 30.0951 23.8041L28.8808 6.80407C28.778 5.36498 27.5805 4.25 26.1378 4.25H5.86224ZM4.61542 6.91094C4.66214 6.25681 5.20644 5.75 5.86224 5.75H26.1378C26.7936 5.75 27.3379 6.25681 27.3846 6.91094L28.5989 23.9109C28.6506 24.6345 28.0775 25.25 27.352 25.25H4.64795C3.92253 25.25 3.34944 24.6345 3.40113 23.9109L4.61542 6.91094Z" fill="white"/>
</svg>
