<svg width="64" height="64" viewBox="0 0 64 64" fill="none" xmlns="http://www.w3.org/2000/svg">
<path fill-rule="evenodd" clip-rule="evenodd" d="M0 9.73915C0 8.20236 1.24582 6.95654 2.78261 6.95654H47.3043C48.8411 6.95654 50.087 8.20236 50.087 9.73915V54.2609C50.087 55.7977 48.8411 57.0435 47.3043 57.0435H2.78261C1.24582 57.0435 0 55.7977 0 54.2609V9.73915ZM5.56522 11.1305C4.79682 11.1305 4.17391 11.7534 4.17391 12.5218V51.4783C4.17391 52.2467 4.79682 52.8696 5.56522 52.8696H44.5217C45.2901 52.8696 45.913 52.2467 45.913 51.4783V12.5218C45.913 11.7534 45.2901 11.1305 44.5217 11.1305H5.56522ZM6.95652 13.9131V50.087H43.1304V13.9131H6.95652ZM64 32L54.2609 23.6522V40.3478L64 32ZM27.6179 38.9564H31.3577L28.2217 33.9505C29.0268 33.5869 29.6501 33.0545 30.0917 32.3533C30.5461 31.6391 30.7734 30.7561 30.7734 29.7043C30.7734 28.3148 30.3059 27.237 29.371 26.4709C28.436 25.7047 26.9946 25.3216 25.0468 25.3216H19.7487V38.9564H23.1184V34.6323H24.7351H25.0273L27.6179 38.9564ZM23.1184 31.7495V28.2044H24.891C25.6831 28.2044 26.2609 28.3473 26.6245 28.6329C26.9881 28.9056 27.1699 29.3212 27.1699 29.8796C27.1699 30.4899 26.9686 30.9574 26.5661 31.282C26.1765 31.5936 25.6376 31.7495 24.9494 31.7495H23.1184Z" fill="white"/>
</svg>
