<svg width="64" height="64" viewBox="0 0 64 64" fill="none" xmlns="http://www.w3.org/2000/svg">
<path opacity="0.5" fill-rule="evenodd" clip-rule="evenodd" d="M50.6667 60.8889C58.0305 60.8889 64 52.9295 64 43.1111V7.55556C64 5.59188 62.8061 4 61.3333 4H2.66667C1.19391 4 0 5.59188 0 7.55556V57.3333C0 59.297 1.19391 60.8889 2.66667 60.8889H50.6667ZM48.0197 37.6249H40.2046L43.4899 35.0115C44.8505 33.9164 45.8544 32.896 46.5015 31.9502C47.1652 30.9878 47.497 29.9259 47.497 28.7644C47.497 27.072 46.8582 25.7944 45.5806 24.9315C44.303 24.0521 42.6188 23.6124 40.5282 23.6124C39.3999 23.6124 38.3379 23.7618 37.3424 24.0604C36.3634 24.3591 35.4757 24.7656 34.6793 25.28L36.073 28.4658C36.5874 28.1505 37.1682 27.9016 37.8153 27.7191C38.4624 27.52 39.1178 27.4204 39.7815 27.4204C40.6609 27.4204 41.3827 27.6112 41.9468 27.9929C42.5276 28.3745 42.8179 28.9387 42.8179 29.6853C42.8179 30.1665 42.7018 30.6062 42.4695 31.0044C42.2538 31.4027 41.9468 31.7926 41.5486 32.1742C41.1504 32.5558 40.5613 33.0702 39.7815 33.7173L34.7539 37.7991V41.3333H48.0197V37.6249ZM26.5377 41.3333H31.3164L27.3093 34.9369C28.338 34.4723 29.1344 33.792 29.6986 32.896C30.2793 31.9834 30.5697 30.8551 30.5697 29.5111C30.5697 27.7357 29.9724 26.3585 28.7777 25.3795C27.583 24.4006 25.7413 23.9111 23.2524 23.9111H16.4826V41.3333H20.7884V35.808H22.8542H23.2275L26.5377 41.3333ZM20.7884 32.1244V27.5947H23.0533C24.0654 27.5947 24.8038 27.7772 25.2684 28.1422C25.733 28.4907 25.9653 29.0216 25.9653 29.7351C25.9653 30.515 25.7081 31.1123 25.1937 31.5271C24.6959 31.9253 24.0073 32.1244 23.1279 32.1244H20.7884Z" fill="white"/>
<path fill-rule="evenodd" clip-rule="evenodd" d="M0 57.3333V7.55555C0 5.59187 1.1939 4 2.66666 4H61.3333C62.1564 4 62.8924 4.4972 63.3816 5.27862L42.0881 23.7033C41.5959 23.6428 41.0758 23.6126 40.5278 23.6126C39.3995 23.6126 38.3376 23.762 37.342 24.0606C36.363 24.3593 35.4753 24.7658 34.6789 25.2802L36.0727 28.466C36.4257 28.2496 36.81 28.0645 37.2256 27.9106L27.9403 35.945L27.3089 34.9371C28.3376 34.4725 29.1341 33.7922 29.6982 32.8962C30.279 31.9836 30.5693 30.8553 30.5693 29.5113C30.5693 27.7359 29.972 26.3587 28.7773 25.3797C27.5827 24.4008 25.7409 23.9113 23.252 23.9113H16.4822V41.3335H20.788V35.8082H22.8538H23.2271L24.8902 38.5841L0.60854 59.5943C0.228363 58.9798 0 58.1921 0 57.3333ZM20.788 32.1246V27.5949H23.0529C24.065 27.5949 24.8034 27.7774 25.268 28.1424C25.7326 28.4909 25.9649 29.0218 25.9649 29.7353C25.9649 30.5152 25.7077 31.1125 25.1933 31.5273C24.6956 31.9255 24.007 32.1246 23.1276 32.1246H20.788Z" fill="white"/>
</svg>
