<svg width="64" height="64" viewBox="0 0 64 64" fill="none" xmlns="http://www.w3.org/2000/svg">
<path fill-rule="evenodd" clip-rule="evenodd" d="M32 64C45.8071 64 57 52.8071 57 39C57 25.1929 45.8071 14 32 14C18.1929 14 7 25.1929 7 39C7 52.8071 18.1929 64 32 64ZM35.8121 46H40L36.4883 40.1257C37.3898 39.699 38.0878 39.0743 38.5822 38.2514C39.0912 37.4133 39.3456 36.3771 39.3456 35.1429C39.3456 33.5124 38.8221 32.2476 37.7752 31.3486C36.7282 30.4495 35.1141 30 32.9329 30H27V46H30.7735V40.9257H32.5839H32.9111L35.8121 46ZM30.7735 37.5429V33.3829H32.7584C33.6454 33.3829 34.2925 33.5505 34.6997 33.8857C35.1068 34.2057 35.3104 34.6933 35.3104 35.3486C35.3104 36.0648 35.085 36.6133 34.6342 36.9943C34.198 37.36 33.5945 37.5429 32.8238 37.5429H30.7735Z" fill="white"/>
<path d="M40 10L32 0L24 10H40Z" fill="white"/>
</svg>
