<svg width="32" height="32" viewBox="0 0 32 32" fill="none" xmlns="http://www.w3.org/2000/svg">
<g clip-path="url(#clip0_8152_846)">
<path d="M30 0C31.1046 0 32 0.895431 32 2V30C32 31.1046 31.1046 32 30 32H2C0.895431 32 0 31.1046 0 30V2C0 0.895431 0.895431 0 2 0H30ZM22.7373 10C21.9587 10 21.2275 10.1169 20.5449 10.3516C19.873 10.5862 19.2706 10.9231 18.7373 11.3604L19.7285 12.8643C20.0805 12.5976 20.4758 12.3896 20.9131 12.2402C21.361 12.0803 21.8248 12 22.3047 12C22.9339 12 23.4244 12.1229 23.7764 12.3682C24.139 12.6134 24.3212 12.9385 24.3213 13.3438C24.3213 13.781 24.129 14.1228 23.7451 14.3682C23.3718 14.6028 22.8755 14.7197 22.2568 14.7197H20.9609V16.4961H22.4004C23.9684 16.4961 24.7529 17.0082 24.7529 18.0322C24.7529 18.5547 24.5447 18.9651 24.1289 19.2637C23.7236 19.5623 23.158 19.7119 22.4326 19.7119C21.2914 19.7119 20.3046 19.3761 19.4727 18.7041L18.4648 20.4316C18.9661 20.8369 19.5794 21.152 20.3047 21.376C21.0407 21.6 21.8143 21.7119 22.625 21.7119C23.4783 21.7119 24.257 21.5683 24.9609 21.2803C25.6649 20.9816 26.2197 20.5655 26.625 20.0322C27.0303 19.4883 27.2324 18.8641 27.2324 18.1602C27.2324 17.3922 27.0085 16.779 26.5605 16.3203C26.1232 15.851 25.5476 15.5409 24.833 15.3916V15.3438C25.4409 15.1091 25.9106 14.7732 26.2412 14.3359C26.5824 13.8881 26.7528 13.3815 26.7529 12.8164C26.7529 11.9844 26.4112 11.3068 25.7285 10.7842C25.0459 10.2616 24.049 10.0001 22.7373 10ZM5 10.2559V21.4561H7.14355V14.416L10.2158 21.1357H11.6396L14.6484 14.3359V21.4561H16.9043V10.2559H14.5195L11.0322 18.208L7.25586 10.2559H5Z" fill="white"/>
</g>
<defs>
<clipPath id="clip0_8152_846">
<rect width="32" height="32" fill="white"/>
</clipPath>
</defs>
</svg>
