<svg width="32" height="32" viewBox="0 0 32 32" fill="none" xmlns="http://www.w3.org/2000/svg">
<path fill-rule="evenodd" clip-rule="evenodd" d="M21.3333 31C21.3333 31.5523 20.8856 32 20.3333 32H11.6667C11.1144 32 10.6667 31.5523 10.6667 31V21.3333H1C0.447716 21.3333 0 20.8856 0 20.3333L0 11.6667C0 11.1144 0.447716 10.6667 1 10.6667H10.6667V1C10.6667 0.447716 11.1144 0 11.6667 0H20.3333C20.8856 0 21.3333 0.447716 21.3333 1L21.3333 10.6667L31 10.6667C31.5523 10.6667 32 11.1144 32 11.6667V20.3333C32 20.8856 31.5523 21.3333 31 21.3333H21.3333V31ZM5.33333 19.5556L1.77778 16L5.33333 12.4444V19.5556Z" fill="white"/>
</svg>
