<svg width="64" height="64" viewBox="0 0 64 64" fill="none" xmlns="http://www.w3.org/2000/svg">
<path fill-rule="evenodd" clip-rule="evenodd" d="M41.8473 9.84615C41.8473 15.284 37.439 19.6923 32.0011 19.6923L32.001 19.6923C30.6416 19.6923 29.3465 19.4168 28.1686 18.9185C24.8394 17.5104 22.4458 14.3234 22.1796 10.549L22.1797 10.549C22.1633 10.3168 22.155 10.0825 22.155 9.84615C22.155 4.40827 26.5632 0 32.0011 0C37.439 0 41.8473 4.40827 41.8473 9.84615ZM19.3523 11.82C10.4877 16.4221 4.43188 25.6856 4.43188 36.3636C4.43188 51.6268 16.8051 64 32.0682 64C47.3314 64 59.7046 51.6268 59.7046 36.3636C59.7046 25.6357 53.592 16.3354 44.6596 11.7557C43.7376 17.9192 38.4214 22.6461 32.001 22.6461C25.6031 22.6461 20.3015 17.9521 19.3523 11.82ZM34.8121 48H39L35.4883 42.1257C36.3898 41.699 37.0878 41.0743 37.5822 40.2514C38.0912 39.4133 38.3456 38.3771 38.3456 37.1429C38.3456 35.5124 37.8221 34.2476 36.7752 33.3486C35.7282 32.4495 34.1141 32 31.9329 32H26V48H29.7735V42.9257H31.5839H31.9111L34.8121 48ZM29.7735 39.5429V35.3829H31.7584C32.6454 35.3829 33.2925 35.5505 33.6997 35.8857C34.1068 36.2057 34.3104 36.6933 34.3104 37.3486C34.3104 38.0648 34.085 38.6133 33.6342 38.9943C33.198 39.36 32.5945 39.5429 31.8238 39.5429H29.7735Z" fill="white"/>
</svg>
