<svg width="64" height="64" viewBox="0 0 64 64" fill="none" xmlns="http://www.w3.org/2000/svg">
<path fill-rule="evenodd" clip-rule="evenodd" d="M25 57C38.8071 57 50 45.8071 50 32C50 18.1929 38.8071 7 25 7C11.1929 7 0 18.1929 0 32C0 45.8071 11.1929 57 25 57ZM27.8121 40H32L28.4883 34.1257C29.3898 33.699 30.0878 33.0743 30.5822 32.2514C31.0912 31.4133 31.3456 30.3771 31.3456 29.1429C31.3456 27.5124 30.8221 26.2476 29.7752 25.3486C28.7282 24.4495 27.1141 24 24.9329 24H19V40H22.7735V34.9257H24.5839H24.9111L27.8121 40ZM22.7735 31.5429V27.3829H24.7584C25.6454 27.3829 26.2925 27.5505 26.6997 27.8857C27.1068 28.2057 27.3104 28.6933 27.3104 29.3486C27.3104 30.0648 27.085 30.6133 26.6342 30.9943C26.198 31.36 25.5945 31.5429 24.8238 31.5429H22.7735Z" fill="white"/>
<path d="M54 24L64 32L54 40V24Z" fill="white"/>
</svg>
