<svg width="32" height="32" viewBox="0 0 32 32" fill="none" xmlns="http://www.w3.org/2000/svg">
<path fill-rule="evenodd" clip-rule="evenodd" d="M16.0001 5.33333L10.6668 0H21.3334L16.0001 5.33333ZM28.4446 19.5556C28.4446 26.4284 22.873 32 16.0001 32C9.12723 32 3.55566 26.4284 3.55566 19.5556C3.55566 12.6827 9.12723 7.11111 16.0001 7.11111C22.873 7.11111 28.4446 12.6827 28.4446 19.5556ZM19.6212 15.1111C20.6831 15.1111 21.4837 15.3185 22.023 15.7333C22.5623 16.1481 22.8319 16.6833 22.8319 17.3387C22.8319 17.7618 22.7074 18.1393 22.4586 18.4711C22.2097 18.803 21.8488 19.0684 21.3759 19.2676V19.3173C21.9317 19.4335 22.3714 19.6699 22.695 20.0267C23.0268 20.3834 23.1928 20.8646 23.1928 21.4702C23.1928 22.0261 23.031 22.5156 22.7074 22.9387C22.3839 23.3535 21.9442 23.677 21.3883 23.9093C20.8408 24.1333 20.2351 24.2453 19.5714 24.2453C18.9243 24.2453 18.3104 24.1582 17.7297 23.984C17.1489 23.8098 16.6636 23.5609 16.2737 23.2373L17.1572 21.6444C17.7546 22.1671 18.4929 22.4284 19.3723 22.4284C19.8535 22.4284 20.2268 22.333 20.4923 22.1422C20.7661 21.9431 20.903 21.6693 20.903 21.3209C20.903 20.6406 20.3969 20.3004 19.3848 20.3004H18.1652V18.7076H19.2354C19.6586 18.7076 19.9863 18.6329 20.2186 18.4836C20.4591 18.3259 20.5794 18.1061 20.5794 17.824C20.5794 17.5585 20.4591 17.3428 20.2186 17.1769C19.9863 17.011 19.6586 16.928 19.2354 16.928C18.8953 16.928 18.5593 16.9861 18.2274 17.1022C17.8956 17.2101 17.6011 17.3594 17.3439 17.5502L16.4479 16.1689C16.8793 15.8204 17.3646 15.5591 17.9039 15.3849C18.4514 15.2024 19.0239 15.1111 19.6212 15.1111ZM15.3423 24.0338H9.24455V15.3227H11.3974V22.0924H15.3423V24.0338Z" fill="white"/>
</svg>
