<svg width="32" height="32" viewBox="0 0 32 32" fill="none" xmlns="http://www.w3.org/2000/svg">
<path fill-rule="evenodd" clip-rule="evenodd" d="M19.5555 28.4444C26.4284 28.4444 32 22.8729 32 16C32 9.12711 26.4284 3.55554 19.5555 3.55554C12.6827 3.55554 7.11108 9.12711 7.11108 16C7.11108 22.8729 12.6827 28.4444 19.5555 28.4444ZM21.2001 20.4445H23.5895L21.5859 17.2462C22.1003 17.0139 22.4985 16.6738 22.7806 16.2258C23.071 15.7695 23.2161 15.2053 23.2161 14.5333C23.2161 13.6456 22.9175 12.957 22.3201 12.4676C21.7228 11.9781 20.8019 11.7333 19.5575 11.7333H16.1726V20.4445H18.3255V17.6818H19.3584H19.545L21.2001 20.4445ZM18.3255 15.84V13.5751H19.4579C19.964 13.5751 20.3332 13.6664 20.5655 13.8489C20.7978 14.0231 20.9139 14.2886 20.9139 14.6453C20.9139 15.0353 20.7853 15.3339 20.5281 15.5413C20.2792 15.7404 19.935 15.84 19.4952 15.84H18.3255Z" fill="white"/>
<path d="M5.33325 10.6667L5.33325 21.3334L-8.15392e-05 16L5.33325 10.6667Z" fill="white"/>
</svg>
