<svg width="32" height="32" viewBox="0 0 32 32" fill="none" xmlns="http://www.w3.org/2000/svg">
<g clip-path="url(#clip0_8152_831)">
<path d="M30 0C31.1046 0 32 0.895431 32 2V30C32 31.1046 31.1046 32 30 32H2C0.895431 32 0 31.1046 0 30V2C0 0.895431 0.895431 0 2 0H30ZM24.1133 10C23.0893 10 22.1819 10.213 21.3926 10.6396C20.6034 11.0556 19.9801 11.7175 19.5215 12.624C19.0628 13.52 18.833 14.6562 18.833 16.0322C18.833 17.2908 19.0302 18.3469 19.4248 19.2002C19.8301 20.0428 20.3799 20.6719 21.0732 21.0879C21.7772 21.5038 22.5935 21.7119 23.5215 21.7119C24.3746 21.7119 25.1268 21.5415 25.7773 21.2002C26.4279 20.8482 26.9293 20.3736 27.2812 19.7764C27.6439 19.1684 27.8252 18.4849 27.8252 17.7275C27.8251 16.9704 27.6597 16.3302 27.3291 15.8076C26.9985 15.2851 26.5505 14.8956 25.9854 14.6396C25.4307 14.373 24.8165 14.2402 24.1445 14.2402C23.6114 14.2403 23.089 14.3364 22.5771 14.5283C22.0758 14.7203 21.6172 14.9868 21.2012 15.3281C21.3505 13.1096 22.3156 12.0001 24.0967 12C24.5552 12 24.9873 12.0644 25.3926 12.1924C25.8086 12.3097 26.1721 12.4642 26.4814 12.6562L27.4248 10.8965C27.0515 10.6512 26.5819 10.4431 26.0166 10.2725C25.4514 10.0912 24.8171 10 24.1133 10ZM5 10.2559V21.4561H7.14355V14.416L10.2158 21.1357H11.6396L14.6484 14.3359V21.4561H16.9043V10.2559H14.5195L11.0322 18.208L7.25586 10.2559H5ZM23.585 16.0957C24.1503 16.0957 24.604 16.2503 24.9453 16.5596C25.2973 16.8582 25.4726 17.2853 25.4727 17.8398C25.4727 18.405 25.2812 18.8639 24.8975 19.2158C24.5241 19.5572 24.0487 19.7275 23.4727 19.7275C22.8649 19.7275 22.3742 19.5094 22.001 19.0723C21.6276 18.6243 21.382 17.9893 21.2646 17.168C21.5526 16.8481 21.8995 16.5924 22.3047 16.4004C22.7207 16.1977 23.1476 16.0957 23.585 16.0957Z" fill="white"/>
</g>
<defs>
<clipPath id="clip0_8152_831">
<rect width="32" height="32" fill="white"/>
</clipPath>
</defs>
</svg>
