<svg width="32" height="32" viewBox="0 0 32 32" fill="none" xmlns="http://www.w3.org/2000/svg">
<path fill-rule="evenodd" clip-rule="evenodd" d="M16.0001 32C22.873 32 28.4446 26.4284 28.4446 19.5555C28.4446 12.6827 22.873 7.11108 16.0001 7.11108C9.12723 7.11108 3.55566 12.6827 3.55566 19.5555C3.55566 26.4284 9.12723 32 16.0001 32ZM17.6447 24H20.0341L18.0305 20.8018C18.5449 20.5695 18.9431 20.2293 19.2252 19.7813C19.5155 19.325 19.6607 18.7609 19.6607 18.0889C19.6607 17.2012 19.3621 16.5126 18.7647 16.0231C18.1674 15.5336 17.2465 15.2889 16.002 15.2889H12.6172V24H14.7701V21.2373H15.8029H15.9896L17.6447 24ZM14.7701 19.3955V17.1307H15.9025C16.4086 17.1307 16.7778 17.2219 17.0101 17.4044C17.2423 17.5787 17.3585 17.8441 17.3585 18.2009C17.3585 18.5908 17.2299 18.8895 16.9727 19.0969C16.7238 19.296 16.3795 19.3955 15.9398 19.3955H14.7701Z" fill="white"/>
<path d="M21.3334 5.33337H10.6667L16.0001 4.05312e-05L21.3334 5.33337Z" fill="white"/>
</svg>
