<svg width="64" height="64" viewBox="0 0 64 64" fill="none" xmlns="http://www.w3.org/2000/svg">
<path opacity="0.5" fill-rule="evenodd" clip-rule="evenodd" d="M30.8 4C21.4026 4.71555 14 12.5746 14 22.1642V30.572H25.2V22.164C25.2 18.7742 27.6049 15.9467 30.8 15.2975V4ZM33.6 4V15.2975C36.7951 15.9467 39.2 18.7742 39.2 22.164V30.572H50.4V22.1642C50.4 12.5746 42.9974 4.71555 33.6 4ZM36.4 22.164V30.572H28V22.164C28 19.8422 29.8804 17.96 32.2 17.96C34.5196 17.96 36.4 19.8422 36.4 22.164ZM14 33.3747V41.7827C14 51.8438 22.1484 60 32.2 60C42.2516 60 50.4 51.8438 50.4 41.7827V33.3747H14Z" fill="white"/>
<path d="M36.4 22.1734V30.5734H28V22.1734C28 19.8538 29.8804 17.9734 32.2 17.9734C34.5196 17.9734 36.4 19.8538 36.4 22.1734Z" fill="white"/>
</svg>
