<svg width="32" height="32" viewBox="0 0 32 32" fill="none" xmlns="http://www.w3.org/2000/svg">
<g clip-path="url(#clip0_3727_33572)">
<path fill-rule="evenodd" clip-rule="evenodd" d="M16.0003 26.3612C21.899 26.3612 26.6809 21.5794 26.6809 15.6806C26.6809 9.78187 21.899 5 16.0003 5C10.1015 5 5.31966 9.78187 5.31966 15.6806C5.31966 21.5794 10.1015 26.3612 16.0003 26.3612ZM17.1266 19.3125H19.1666L17.4559 16.5819C17.8951 16.3835 18.2351 16.0931 18.4759 15.7106C18.7239 15.321 18.8478 14.8394 18.8478 14.2656C18.8478 13.5077 18.5928 12.9198 18.0828 12.5019C17.5728 12.084 16.7866 11.875 15.7241 11.875H12.8341V19.3125H14.6722V16.9538H15.5541H15.7134L17.1266 19.3125ZM14.6722 15.3813V13.4475H15.6391C16.0711 13.4475 16.3864 13.5254 16.5847 13.6813C16.783 13.83 16.8822 14.0567 16.8822 14.3613C16.8822 14.6942 16.7724 14.9492 16.5528 15.1263C16.3403 15.2963 16.0464 15.3813 15.6709 15.3813H14.6722ZM16.0004 23.7864C20.477 23.7864 24.1061 20.1574 24.1061 15.6807C24.1061 11.2041 20.477 7.57501 16.0004 7.57501C11.5237 7.57501 7.89467 11.2041 7.89467 15.6807C7.89467 20.1574 11.5237 23.7864 16.0004 23.7864ZM16.0004 24.6178C20.9362 24.6178 24.9375 20.6165 24.9375 15.6807C24.9375 10.7449 20.9362 6.74365 16.0004 6.74365C11.0646 6.74365 7.06331 10.7449 7.06331 15.6807C7.06331 20.6165 11.0646 24.6178 16.0004 24.6178ZM3.75008 19.4309V11.9307L0 15.6808L3.75008 19.4309Z" fill="white"/>
</g>
<defs>
<clipPath id="clip0_3727_33572">
<rect width="32" height="32" fill="white"/>
</clipPath>
</defs>
</svg>
