<svg width="32" height="32" viewBox="0 0 32 32" fill="none" xmlns="http://www.w3.org/2000/svg">
<g clip-path="url(#clip0_1967_18391)">
<path opacity="0.4" fill-rule="evenodd" clip-rule="evenodd" d="M20.8887 10.6127C20.8887 8.36923 19.3852 6.47782 17.3332 5.89597V1.40002e-07C22.5949 0.641341 26.6665 5.02868 26.6665 10.3456V15.0683H20.8887V10.6127ZM26.6665 17.7417V21.5738C26.6665 27.332 21.8909 32 15.9998 32C10.1088 32 5.33317 27.332 5.33317 21.5738V17.7417H26.6665ZM5.33317 15.0683V10.3456C5.33317 5.02868 9.40476 0.64134 14.6665 0V5.89597C12.6145 6.47782 11.1109 8.36923 11.1109 10.6127V15.0683H5.33317ZM13.7776 10.6127V15.0683H18.2221V10.6127C18.2221 9.3823 17.2271 8.38487 15.9998 8.38487C14.7725 8.38487 13.7776 9.3823 13.7776 10.6127Z" fill="white"/>
<path d="M20.8887 10.6429C20.8887 8.39307 19.3852 6.49632 17.3332 5.91283V0C22.5949 0.643152 26.6665 5.04289 26.6665 10.3748V15.1111H20.8887V10.6429Z" fill="white"/>
</g>
<defs>
<clipPath id="clip0_1967_18391">
<rect width="32" height="32" fill="white"/>
</clipPath>
</defs>
</svg>
