<svg width="64" height="64" viewBox="0 0 64 64" fill="none" xmlns="http://www.w3.org/2000/svg">
<g clip-path="url(#clip0_1967:18289)">
<path fill-rule="evenodd" clip-rule="evenodd" d="M20.3638 0L32.0001 13.0909L32.0002 13.0908L32.0003 13.0909L35.6649 8.96813L35.6648 8.96812L43.6364 0H20.3638ZM25.0197 9.61643L32.0003 17.4696L38.9808 9.61648C50.8642 12.7092 59.6365 23.512 59.6365 36.3636C59.6365 51.6268 47.2633 64 32.0001 64C16.737 64 4.36377 51.6268 4.36377 36.3636C4.36377 23.5119 13.1361 12.7091 25.0197 9.61643ZM43.0574 30.0218C42.1619 29.3406 40.8324 29 39.0689 29C38.077 29 37.1263 29.1499 36.217 29.4496C35.3215 29.7357 34.5155 30.1649 33.7991 30.7371L35.2871 33.0054C35.7142 32.6921 36.2032 32.4469 36.7543 32.2698C37.3054 32.079 37.8634 31.9837 38.4283 31.9837C39.1309 31.9837 39.6751 32.1199 40.0609 32.3924C40.4604 32.6648 40.6602 33.0191 40.6602 33.455C40.6602 33.9183 40.4604 34.2793 40.0609 34.5381C39.6751 34.7834 39.1309 34.906 38.4283 34.906H36.651V37.5218H38.6763C40.3571 37.5218 41.1975 38.0804 41.1975 39.1975C41.1975 39.7698 40.9702 40.2193 40.5155 40.5463C40.0746 40.8597 39.4547 41.0163 38.6556 41.0163C37.1952 41.0163 35.969 40.5872 34.9771 39.7289L33.5098 42.3447C34.1573 42.876 34.9633 43.2847 35.9277 43.5708C36.8921 43.8569 37.9116 44 38.9862 44C40.0884 44 41.0942 43.8161 42.0035 43.4482C42.9265 43.0668 43.6567 42.5354 44.194 41.8542C44.7313 41.1594 45 40.3556 45 39.4428C45 38.4482 44.7245 37.658 44.1734 37.0722C43.6361 36.4864 42.9059 36.0981 41.9828 35.9074V35.8256C42.7681 35.4986 43.3674 35.0627 43.7807 34.5177C44.194 33.9728 44.4007 33.3529 44.4007 32.658C44.4007 31.5817 43.9529 30.703 43.0574 30.0218ZM27.349 43.6526H31.3168L27.9896 38.4005C28.8438 38.0191 29.5051 37.4605 29.9736 36.7248C30.4558 35.9755 30.6969 35.049 30.6969 33.9455C30.6969 32.4877 30.2009 31.3569 29.2089 30.5531C28.217 29.7493 26.6877 29.3474 24.6211 29.3474H19V43.6526H22.5752V39.1158H24.2904H24.6004L27.349 43.6526ZM22.5752 36.0913V32.3719H24.4558C25.2962 32.3719 25.9093 32.5218 26.295 32.8215C26.6808 33.1076 26.8737 33.5436 26.8737 34.1294C26.8737 34.7698 26.6601 35.2602 26.233 35.6008C25.8197 35.9278 25.248 36.0913 24.5178 36.0913H22.5752Z" fill="white"/>
</g>
<defs>
<clipPath id="clip0_1967:18289">
<rect width="64" height="64" fill="white"/>
</clipPath>
</defs>
</svg>
