<svg width="64" height="64" viewBox="0 0 64 64" fill="none" xmlns="http://www.w3.org/2000/svg">
<circle cx="32" cy="32" r="18" stroke="white" stroke-width="3"/>
<path fill-rule="evenodd" clip-rule="evenodd" d="M32.0515 34.5687C28.8399 34.5687 25.9947 34.1326 24.0041 33.4691C23.001 33.1347 22.2975 32.7697 21.8755 32.4371C21.6247 32.2394 21.5379 32.1085 21.5096 32.0516C21.5379 31.9947 21.6247 31.8637 21.8755 31.666C22.2975 31.3335 23.001 30.9684 24.0041 30.634C24.0239 30.6274 24.0437 30.6209 24.0636 30.6144C24.1229 29.5109 24.2233 28.4367 24.3621 27.4063C23.904 27.5231 23.4675 27.6506 23.0555 27.788C21.8777 28.1806 20.8163 28.6811 20.0186 29.3098C19.2378 29.9251 18.5 30.8403 18.5 32.0516C18.5 33.2628 19.2378 34.178 20.0186 34.7933C20.8163 35.422 21.8777 35.9226 23.0555 36.3151C25.4267 37.1056 28.6072 37.5687 32.0515 37.5687C35.4958 37.5687 38.6763 37.1056 41.0475 36.3151C42.2253 35.9226 43.2867 35.422 44.0844 34.7933C44.8652 34.178 45.603 33.2628 45.603 32.0516C45.603 30.8403 44.8652 29.9251 44.0844 29.3098C43.2867 28.6811 42.2253 28.1806 41.0475 27.788C40.6036 27.64 40.1313 27.5035 39.6343 27.3793C39.7736 28.4075 39.8745 29.4793 39.9346 30.5804C39.99 30.5981 40.0447 30.616 40.0989 30.634C41.102 30.9684 41.8055 31.3335 42.2275 31.666C42.4783 31.8637 42.5651 31.9947 42.5934 32.0516C42.5651 32.1085 42.4783 32.2394 42.2275 32.4371C41.8055 32.7697 41.102 33.1347 40.0989 33.4691C38.1084 34.1326 35.2631 34.5687 32.0515 34.5687ZM21.4968 32.0192C21.497 32.0192 21.4975 32.0208 21.498 32.0241C21.497 32.0208 21.4967 32.0192 21.4968 32.0192ZM21.498 32.079C21.4975 32.0823 21.497 32.0839 21.4968 32.0839C21.4967 32.0839 21.497 32.0823 21.498 32.079ZM42.6058 32.083C42.606 32.0836 42.6061 32.0839 42.6062 32.0839C42.6062 32.0839 42.6061 32.0833 42.6058 32.0821C42.6056 32.0813 42.6054 32.0803 42.605 32.079C42.6053 32.0809 42.6056 32.0822 42.6058 32.083ZM42.605 32.0241C42.6055 32.0208 42.6061 32.0192 42.6062 32.0192C42.6063 32.0192 42.606 32.0208 42.605 32.0241Z" fill="white"/>
<path fill-rule="evenodd" clip-rule="evenodd" d="M30.4379 39.4624C30.5007 39.6831 30.5661 39.8955 30.6339 40.0989C30.9683 41.102 31.3334 41.8055 31.6659 42.2275C31.8636 42.4783 31.9946 42.5651 32.0515 42.5934C32.1084 42.5651 32.2393 42.4783 32.437 42.2275C32.7696 41.8055 33.1347 41.102 33.469 40.0989C33.5342 39.9034 33.5971 39.6997 33.6577 39.4882C34.7255 39.4664 35.7749 39.4144 36.7965 39.3339C36.6536 39.9418 36.4926 40.5151 36.3151 41.0476C35.9225 42.2254 35.4219 43.2867 34.7933 44.0844C34.1779 44.8652 33.2627 45.603 32.0515 45.603C30.8402 45.603 29.925 44.8652 29.3097 44.0844C28.681 43.2867 28.1805 42.2254 27.7879 41.0476C27.6026 40.4916 27.4352 39.8911 27.2876 39.2532C28.3093 39.3527 29.3627 39.4229 30.4379 39.4624ZM29.5349 32.2612C29.5345 32.1915 29.5343 32.1216 29.5343 32.0515C29.5343 28.84 29.9704 25.9947 30.6339 24.0042C30.9683 23.0011 31.3334 22.2975 31.6659 21.8756C31.8636 21.6247 31.9946 21.5379 32.0515 21.5096C32.1084 21.5379 32.2393 21.6247 32.437 21.8756C32.7696 22.2975 33.1347 23.0011 33.469 24.0042C34.1325 25.9947 34.5686 28.84 34.5686 32.0515C34.5686 32.1377 34.5683 32.2236 34.5677 32.3093C35.6217 32.2632 36.6262 32.1829 37.5686 32.0745C37.5686 32.0668 37.5686 32.0592 37.5686 32.0515C37.5686 28.6072 37.1055 25.4268 36.3151 23.0555C35.9225 21.8777 35.4219 20.8163 34.7933 20.0186C34.1779 19.2378 33.2627 18.5 32.0515 18.5C30.8402 18.5 29.925 19.2378 29.3097 20.0186C28.681 20.8163 28.1805 21.8777 27.7879 23.0555C27.0044 25.4058 26.5425 28.5511 26.5344 31.9603C27.4683 32.091 28.4731 32.1935 29.5349 32.2612ZM32.024 42.605C32.0207 42.6056 32.0191 42.6061 32.0191 42.6062C32.0191 42.6062 32.0194 42.6062 32.02 42.6061C32.0208 42.6059 32.0222 42.6056 32.024 42.605ZM32.0789 42.605C32.0822 42.6056 32.0839 42.6061 32.0839 42.6062C32.0838 42.6063 32.0822 42.606 32.0789 42.605ZM32.0827 21.4973C32.0835 21.4971 32.0839 21.4969 32.0839 21.4969C32.0838 21.4968 32.0822 21.497 32.0789 21.4981C32.0806 21.4978 32.0819 21.4975 32.0827 21.4973ZM32.024 21.4981C32.0207 21.4975 32.0191 21.497 32.0191 21.4969C32.0191 21.4968 32.0208 21.497 32.024 21.4981Z" fill="white"/>
<path fill-rule="evenodd" clip-rule="evenodd" d="M6 33.5C5.17157 33.5 4.5 32.8284 4.5 32C4.5 31.1716 5.17157 30.5 6 30.5H9C9.82843 30.5 10.5 31.1716 10.5 32C10.5 32.8284 9.82843 33.5 9 33.5H6ZM55 33.5C54.1716 33.5 53.5 32.8284 53.5 32C53.5 31.1716 54.1716 30.5 55 30.5L58 30.5C58.8284 30.5 59.5 31.1716 59.5 32C59.5 32.8284 58.8284 33.5 58 33.5H55Z" fill="white"/>
<path fill-rule="evenodd" clip-rule="evenodd" d="M33.5 58C33.5 58.8284 32.8284 59.5 32 59.5C31.1716 59.5 30.5 58.8284 30.5 58V55C30.5 54.1716 31.1716 53.5 32 53.5C32.8284 53.5 33.5 54.1716 33.5 55V58ZM33.5 9C33.5 9.82843 32.8284 10.5 32 10.5C31.1716 10.5 30.5 9.82843 30.5 9V6C30.5 5.17157 31.1716 4.5 32 4.5C32.8284 4.5 33.5 5.17157 33.5 6V9Z" fill="white"/>
</svg>
