<svg width="32" height="32" viewBox="0 0 32 32" fill="none" xmlns="http://www.w3.org/2000/svg">
<path fill-rule="evenodd" clip-rule="evenodd" d="M0 12.3041C0 9.49214 2.14783 7.11108 4.91852 7.11108H27.0815C29.8522 7.11108 32 9.49214 32 12.3041C32 15.116 29.8522 17.497 27.0815 17.497H23.9407V28.4444H22.163V15.7193H27.0815C28.7618 15.7193 30.2222 14.2463 30.2222 12.3041C30.2222 10.3618 28.7618 8.88886 27.0815 8.88886H4.91852C3.2382 8.88886 1.77778 10.3618 1.77778 12.3041C1.77778 14.2463 3.2382 15.7193 4.91852 15.7193H9.83704V28.4444H8.05926V17.497H4.91852C2.14783 17.497 0 15.116 0 12.3041Z" fill="white"/>
<path d="M19.1078 25.7778H13.4455V17.6889H15.4446V23.9751H19.1078V25.7778Z" fill="white"/>
</svg>
