<svg width="64" height="64" viewBox="0 0 64 64" fill="none" xmlns="http://www.w3.org/2000/svg">
<path opacity="0.5" fill-rule="evenodd" clip-rule="evenodd" d="M30.8 4.00012C21.4026 4.71568 14 12.5747 14 22.1643V30.5721H25.2V22.1641C25.2 18.7743 27.6049 15.9468 30.8 15.2976V4.00012ZM33.6 4.00012V15.2976C36.7951 15.9468 39.2 18.7743 39.2 22.1641V30.5721H50.4V22.1643C50.4 12.5747 42.9974 4.71567 33.6 4.00012ZM36.4 22.1641V30.5721H28V22.1641C28 19.8423 29.8804 17.9601 32.2 17.9601C34.5196 17.9601 36.4 19.8423 36.4 22.1641ZM14 33.3748V41.7829C14 51.844 22.1484 60.0001 32.2 60.0001C42.2516 60.0001 50.4 51.844 50.4 41.7829V33.3748H14Z" fill="white"/>
<path d="M30.8 4C21.4026 4.71555 14 12.5746 14 22.1642V30.6252H25.2V22.1642C25.2273 19.2559 27.1633 16.2014 30.8 15.3475V4Z" fill="white"/>
</svg>
