<svg width="32" height="32" viewBox="0 0 32 32" fill="none" xmlns="http://www.w3.org/2000/svg">
<path opacity="0.4" fill-rule="evenodd" clip-rule="evenodd" d="M31.8678 21C31.955 21.6543 32 22.3219 32 23H5.5L3.4375 20H0V18H2.0625L0 15C1.23428 13.9029 2.5814 12.881 4.0001 11.9756C4.01323 10.33 5.3513 9 7 9C7.6359 9 8.22559 9.19785 8.71088 9.53535C11.1256 8.56649 13.61 8 16 8H17C24.6062 8 30.89 13.6613 31.8678 21ZM29.8471 21C28.8851 14.7698 23.4996 10 17 10H16C11.6503 10 6.73482 12.1687 2.67818 15.3653L6.55206 21H29.8471ZM9 17.4C9 17.7314 9.26863 18 9.6 18H15V15H11.4C10.0745 15 9 16.0745 9 17.4ZM24 17.4C24 17.7314 23.7314 18 23.4 18H18V15H21.6C22.9255 15 24 16.0745 24 17.4Z" fill="white"/>
<path d="M9 17.4C9 17.7314 9.26863 18 9.6 18H15V15H11.4C10.0745 15 9 16.0745 9 17.4Z" fill="white"/>
</svg>
