<svg width="32" height="32" viewBox="0 0 32 32" fill="none" xmlns="http://www.w3.org/2000/svg">
<g clip-path="url(#clip0_8152_821)">
<path d="M30 0C31.1046 0 32 0.895431 32 2V30C32 31.1046 31.1046 32 30 32H2C0.895431 32 0 31.1046 0 30V2C0 0.895431 0.895431 0 2 0H30ZM23.2334 10C22.4547 10 21.7554 10.1278 21.1367 10.3838C20.5181 10.6398 20.0326 11.0083 19.6807 11.4883C19.3289 11.9574 19.1534 12.4959 19.1533 13.1035C19.1533 13.7008 19.3129 14.208 19.6328 14.624C19.9634 15.0399 20.3688 15.3441 20.8486 15.5361C20.2621 15.7495 19.7765 16.1121 19.3926 16.624C19.0194 17.1253 18.833 17.7069 18.833 18.3682C18.833 19.0188 19.0143 19.6003 19.377 20.1123C19.7396 20.6136 20.2518 21.0079 20.9131 21.2959C21.5743 21.5732 22.3314 21.7119 23.1846 21.7119C24.0592 21.7119 24.8388 21.5683 25.5215 21.2803C26.2147 20.9923 26.7478 20.592 27.1211 20.0801C27.5051 19.5574 27.6973 18.965 27.6973 18.3037C27.6972 17.6214 27.4999 17.0295 27.1055 16.5283C26.7215 16.027 26.2251 15.6962 25.6172 15.5361C26.1078 15.3548 26.513 15.0506 26.833 14.624C27.153 14.1974 27.3134 13.6802 27.3135 13.0723C27.3135 12.4643 27.1371 11.9254 26.7852 11.4561C26.4332 10.9867 25.9478 10.6291 25.3291 10.3838C24.7105 10.1278 24.0119 10 23.2334 10ZM5 10.2559V21.4561H7.14355V14.416L10.2158 21.1357H11.6396L14.6484 14.3359V21.4561H16.9043V10.2559H14.5195L11.0322 18.208L7.25586 10.2559H5ZM23.2812 16.3682C23.8891 16.3682 24.3846 16.5337 24.7686 16.8643C25.1525 17.1842 25.3447 17.5945 25.3447 18.0957C25.3447 18.5864 25.1585 18.9816 24.7852 19.2803C24.4119 19.5789 23.9104 19.7275 23.2812 19.7275C22.6306 19.7275 22.1184 19.5839 21.7451 19.2959C21.3719 18.9973 21.1847 18.5869 21.1846 18.0645C21.1846 17.5738 21.3827 17.1677 21.7773 16.8477C22.172 16.5279 22.6734 16.3682 23.2812 16.3682ZM23.2334 11.9844C23.7559 11.9844 24.1722 12.1122 24.4814 12.3682C24.8011 12.6241 24.9608 12.9653 24.9609 13.3916C24.9609 13.8182 24.8014 14.1551 24.4814 14.4004C24.1615 14.6457 23.7452 14.7675 23.2334 14.7676C22.7323 14.7676 22.316 14.6455 21.9854 14.4004C21.6654 14.1551 21.5049 13.8183 21.5049 13.3916C21.505 12.9652 21.6597 12.6241 21.9688 12.3682C22.2888 12.1122 22.7107 11.9844 23.2334 11.9844Z" fill="white"/>
</g>
<defs>
<clipPath id="clip0_8152_821">
<rect width="32" height="32" fill="white"/>
</clipPath>
</defs>
</svg>
