<svg width="64" height="64" viewBox="0 0 64 64" fill="none" xmlns="http://www.w3.org/2000/svg">
<path fill-rule="evenodd" clip-rule="evenodd" d="M32 50C45.8071 50 57 38.8071 57 25C57 11.1929 45.8071 0 32 0C18.1929 0 7 11.1929 7 25C7 38.8071 18.1929 50 32 50ZM34.8121 33H39L35.4883 27.1257C36.3898 26.699 37.0878 26.0743 37.5822 25.2514C38.0912 24.4133 38.3456 23.3771 38.3456 22.1429C38.3456 20.5124 37.8221 19.2476 36.7752 18.3486C35.7282 17.4495 34.1141 17 31.9329 17H26V33H29.7735V27.9257H31.5839H31.9111L34.8121 33ZM29.7735 24.5429V20.3829H31.7584C32.6454 20.3829 33.2925 20.5505 33.6997 20.8857C34.1068 21.2057 34.3104 21.6933 34.3104 22.3486C34.3104 23.0648 34.085 23.6133 33.6342 23.9943C33.198 24.36 32.5945 24.5429 31.8238 24.5429H29.7735Z" fill="white"/>
<path d="M40 54L32 64L24 54H40Z" fill="white"/>
</svg>
