<svg width="64" height="64" viewBox="0 0 64 64" fill="none" xmlns="http://www.w3.org/2000/svg">
<path d="M57 36L60 31H54L57 36Z" fill="white"/>
<path d="M28 7L33 4V10L28 7Z" fill="white"/>
<circle cx="32" cy="32" r="18" transform="rotate(-45 32 32)" stroke="white" stroke-width="3"/>
<path d="M57 32C57 18.1929 45.8071 7 32 7" stroke="white" stroke-width="3"/>
<path fill-rule="evenodd" clip-rule="evenodd" d="M30.6778 33.7799C28.4069 31.509 26.7033 29.1887 25.765 27.312C25.2921 26.3663 25.0528 25.6106 24.9896 25.0771C24.952 24.7599 24.9832 24.606 25.0035 24.5457C25.0637 24.5255 25.2177 24.4943 25.5348 24.5319C26.0442 24.5922 26.7559 24.8131 27.6423 25.2444C28.4625 24.5018 29.2914 23.807 30.1176 23.168C29.7758 22.9699 29.4399 22.7883 29.1114 22.624C28.0009 22.0688 26.8965 21.6722 25.8879 21.5527C24.9007 21.4357 23.7318 21.5611 22.8753 22.4176C22.0189 23.2741 21.8934 24.443 22.0104 25.4302C22.13 26.4388 22.5265 27.5432 23.0817 28.6536C24.1996 30.8893 26.121 33.4657 28.5565 35.9012C30.992 38.3367 33.5684 40.2581 35.8041 41.376C36.9145 41.9312 38.0189 42.3277 39.0275 42.4473C40.0147 42.5643 41.1836 42.4388 42.0401 41.5823C42.8966 40.7259 43.022 39.557 42.905 38.5698C42.7854 37.5612 42.3889 36.4568 41.8337 35.3463C41.6621 35.0032 41.4717 34.6521 41.2633 34.2947C40.6253 35.1202 39.9316 35.9484 39.1901 36.768C39.6367 37.6764 39.8644 38.4045 39.9258 38.9229C39.9634 39.24 39.9322 39.394 39.912 39.4542C39.8517 39.4744 39.6978 39.5057 39.3806 39.4681C38.8471 39.4049 38.0914 39.1655 37.1457 38.6927C35.269 37.7543 32.9487 36.0508 30.6778 33.7799ZM25.0173 24.5138C25.0174 24.5139 25.0166 24.5154 25.0147 24.5181C25.0163 24.5151 25.0172 24.5137 25.0173 24.5138ZM24.9759 24.557C24.9731 24.5589 24.9716 24.5597 24.9715 24.5596C24.9715 24.5595 24.9728 24.5586 24.9759 24.557ZM39.8985 39.4853C39.8982 39.4858 39.8981 39.4861 39.8981 39.4861C39.8981 39.4862 39.8985 39.4857 39.8992 39.4846C39.8996 39.4839 39.9001 39.483 39.9007 39.4818C39.8996 39.4834 39.8989 39.4845 39.8985 39.4853ZM39.9395 39.443C39.9423 39.4411 39.9438 39.4403 39.9439 39.4404C39.9439 39.4404 39.9426 39.4414 39.9395 39.443Z" fill="#DCDEDF"/>
<path fill-rule="evenodd" clip-rule="evenodd" d="M25.8357 36.5486C25.8117 36.5953 25.7881 36.6418 25.765 36.688C25.2921 37.6337 25.0528 38.3894 24.9896 38.9229C24.952 39.2401 24.9832 39.394 25.0035 39.4543C25.0637 39.4745 25.2177 39.5057 25.5348 39.4681C26.0684 39.4049 26.824 39.1656 27.7697 38.6927C27.8089 38.6731 27.8483 38.6532 27.8879 38.6329C28.6611 39.38 29.4428 40.0939 30.2254 40.7691C29.8465 40.9917 29.4744 41.1945 29.1114 41.376C28.0009 41.9312 26.8965 42.3278 25.8879 42.4473C24.9007 42.5643 23.7318 42.4389 22.8753 41.5824C22.0189 40.7259 21.8934 39.557 22.0104 38.5698C22.13 37.5612 22.5265 36.4568 23.0817 35.3464C23.274 34.9618 23.4901 34.5671 23.7285 34.1648C24.3911 34.9607 25.0954 35.7579 25.8357 36.5486ZM30.2796 30.6248C30.4103 30.4898 30.5431 30.3549 30.6778 30.2201C32.9487 27.9492 35.269 26.2457 37.1457 25.3073C38.0914 24.8345 38.8471 24.5951 39.3806 24.5319C39.6978 24.4943 39.8517 24.5256 39.912 24.5458C39.9322 24.606 39.9634 24.76 39.9258 25.0771C39.8626 25.6107 39.6233 26.3663 39.1504 27.312C38.2121 29.1887 36.5085 31.509 34.2376 33.7799C34.0917 33.9258 33.9456 34.0694 33.7995 34.2105C34.5752 34.9236 35.3405 35.5796 36.0831 36.1743C36.1752 36.084 36.2672 35.993 36.3589 35.9012C38.7944 33.4658 40.7159 30.8893 41.8337 28.6537C42.3889 27.5432 42.7854 26.4388 42.905 25.4302C43.022 24.443 42.8966 23.2741 42.0401 22.4177C41.1836 21.5612 40.0147 21.4357 39.0275 21.5527C38.0189 21.6723 36.9145 22.0688 35.8041 22.624C33.5684 23.7419 30.992 25.6633 28.5565 28.0988C28.4909 28.1644 28.4256 28.2301 28.3608 28.2959C28.9347 29.0481 29.5759 29.8289 30.2796 30.6248ZM24.9715 39.4404C24.9716 39.4403 24.9731 39.4411 24.9759 39.443C24.9728 39.4414 24.9715 39.4405 24.9715 39.4404ZM25.0147 39.4819C25.0166 39.4846 25.0174 39.4861 25.0173 39.4862C25.0172 39.4863 25.0163 39.4849 25.0147 39.4819ZM39.9428 24.5591C39.9435 24.5595 39.9438 24.5597 39.9439 24.5596C39.9439 24.5596 39.9426 24.5586 39.9395 24.557C39.941 24.558 39.9421 24.5587 39.9428 24.5591ZM39.9007 24.5182C39.8988 24.5154 39.898 24.5139 39.8981 24.5139C39.8982 24.5138 39.8991 24.5152 39.9007 24.5182Z" fill="#DCDEDF"/>
<path fill-rule="evenodd" clip-rule="evenodd" d="M15.0606 12.9393C14.4748 12.3536 13.5251 12.3536 12.9393 12.9393C12.3535 13.5251 12.3535 14.4749 12.9393 15.0607L17.9394 20.0607C18.5252 20.6464 19.4749 20.6464 20.0607 20.0607C20.6465 19.4749 20.6465 18.5251 20.0607 17.9393L15.0606 12.9393ZM46.0607 43.9393C45.4749 43.3536 44.5251 43.3536 43.9393 43.9393C43.3536 44.5251 43.3536 45.4749 43.9393 46.0607L48.9393 51.0607C49.5251 51.6464 50.4749 51.6464 51.0607 51.0607C51.6464 50.4749 51.6464 49.5251 51.0607 48.9393L46.0607 43.9393Z" fill="white"/>
</svg>
