<svg width="64" height="64" viewBox="0 0 64 64" fill="none" xmlns="http://www.w3.org/2000/svg">
<path fill-rule="evenodd" clip-rule="evenodd" d="M30.0302 6.73684C30.6257 6.73684 31.1969 6.50025 31.6181 6.07912C32.0392 5.65798 32.2758 5.0868 32.2758 4.49123V0H27.7846V4.49123C27.7846 5.0868 28.0212 5.65798 28.4423 6.07912C28.8634 6.50025 29.4346 6.73684 30.0302 6.73684ZM41.146 10.0267L44.3235 6.84912L41.146 3.67158L37.9684 6.84912C37.7598 7.05776 37.5943 7.30546 37.4814 7.57806C37.3684 7.85066 37.3103 8.14283 37.3103 8.43789C37.3103 8.73296 37.3684 9.02513 37.4814 9.29773C37.5943 9.57033 37.7598 9.81803 37.9684 10.0267C38.1771 10.2353 38.4248 10.4008 38.6974 10.5137C38.97 10.6266 39.2621 10.6848 39.5572 10.6848C39.8523 10.6848 40.1444 10.6266 40.417 10.5137C40.6896 10.4008 40.9373 10.2353 41.146 10.0267ZM22.0919 10.0267C22.3007 9.81811 22.4664 9.57044 22.5794 9.29783C22.6924 9.02522 22.7505 8.733 22.7505 8.43789C22.7505 8.14279 22.6924 7.85057 22.5794 7.57796C22.4664 7.30535 22.3007 7.05768 22.0919 6.84912L18.9144 3.67158L15.7368 6.84912L18.9144 10.0267C19.1229 10.2355 19.3706 10.4011 19.6432 10.5141C19.9158 10.6271 20.208 10.6853 20.5032 10.6853C20.7983 10.6853 21.0905 10.6271 21.3631 10.5141C21.6357 10.4011 21.8834 10.2355 22.0919 10.0267ZM35.2961 28.7116V14.7102C35.1731 13.4525 34.5892 12.2847 33.6568 11.4316C32.7423 10.5792 31.5386 10.1053 30.2884 10.1053C29.0382 10.1053 27.8345 10.5792 26.92 11.4316C25.9753 12.2808 25.3759 13.4477 25.2358 14.7102V48.7762L24.8204 48.5292L20.3291 44.2401C19.2258 43.1562 17.7481 42.5378 16.2017 42.5128C14.6552 42.4877 13.1583 43.0578 12.0204 44.1053L9 46.8337L24.7193 64H55.0351V32.5614L35.2961 28.7116ZM39.2622 54.921H34.3263L36.4013 53.2704C37.2606 52.5788 37.8946 51.9343 38.3033 51.337C38.7225 50.7292 38.9321 50.0585 38.9321 49.3249C38.9321 48.256 38.5286 47.4491 37.7217 46.9041C36.9148 46.3487 35.8511 46.071 34.5307 46.071C33.818 46.071 33.1474 46.1653 32.5186 46.3539C31.9003 46.5426 31.3396 46.7993 30.8366 47.1242L31.7169 49.1363C32.0418 48.9372 32.4086 48.78 32.8173 48.6647C33.226 48.5389 33.6399 48.4761 34.0591 48.4761C34.6145 48.4761 35.0704 48.5966 35.4267 48.8376C35.7934 49.0786 35.9768 49.4349 35.9768 49.9065C35.9768 50.2104 35.9035 50.4881 35.7568 50.7396C35.6205 50.9911 35.4267 51.2374 35.1751 51.4784C34.9236 51.7195 34.5516 52.0443 34.0591 52.453L30.8838 55.031V57.2631H39.2622V54.921ZM49.531 49.0262H46.6701L45.4283 51.3055L44.2493 49.0262H41.1998V49.152L44.1707 53.0818L41.2155 57.1531V57.2631H44.1865L45.4126 54.8895L46.7644 57.2631H49.6568V57.1531L46.8745 53.0818L49.531 49.1363V49.0262Z" fill="white"/>
</svg>
