<svg width="32" height="32" viewBox="0 0 32 32" fill="none" xmlns="http://www.w3.org/2000/svg">
<g clip-path="url(#clip0_1967_18498)">
<path fill-rule="evenodd" clip-rule="evenodd" d="M15.1112 0V1.77778C15.1112 2.2687 14.7132 2.66667 14.2223 2.66667C13.7314 2.66667 13.3334 2.2687 13.3334 1.77778V0H15.1112ZM16.889 7.11111C16.889 5.63835 15.6951 4.44444 14.2223 4.44444C12.7495 4.44444 11.5556 5.63835 11.5556 7.11111L11.5556 7.11339V24L9.33368 21.778C7.8361 20.2805 5.43075 20.2098 3.8478 21.6168L2.66675 22.6667L11.5556 32H27.5556V16.635L16.889 14.2222V7.11111ZM9.77786 3.92377L8.52078 2.66669L9.77786 1.40961L11.0349 2.66669C11.3821 3.01383 11.3821 3.57664 11.0349 3.92377C10.6878 4.2709 10.125 4.2709 9.77786 3.92377ZM19.9238 2.66669L18.6667 3.92377C18.3196 4.2709 17.7568 4.2709 17.4097 3.92377C17.0625 3.57664 17.0625 3.01383 17.4097 2.66669L18.6667 1.40961L19.9238 2.66669ZM19.2862 27.3283H16.9341L17.9229 26.5418C18.3324 26.2122 18.6345 25.9051 18.8292 25.6205C19.029 25.3308 19.1289 25.0112 19.1289 24.6617C19.1289 24.1523 18.9366 23.7678 18.5521 23.5081C18.1676 23.2434 17.6607 23.1111 17.0315 23.1111C16.6919 23.1111 16.3723 23.1561 16.0727 23.2459C15.7781 23.3358 15.5109 23.4582 15.2712 23.613L15.6907 24.5718C15.8455 24.4769 16.0202 24.402 16.215 24.3471C16.4098 24.2871 16.607 24.2572 16.8068 24.2572C17.0714 24.2572 17.2887 24.3146 17.4585 24.4295C17.6332 24.5443 17.7206 24.7141 17.7206 24.9388C17.7206 25.0836 17.6857 25.216 17.6158 25.3358C17.5508 25.4557 17.4585 25.573 17.3386 25.6879C17.2188 25.8027 17.0415 25.9576 16.8068 26.1523L15.2937 27.3808V28.4444H19.2862V27.3283ZM23.9441 24.5194H22.5808L21.9891 25.6055L21.4273 24.5194H19.9741V24.5793L21.3898 26.4519L19.9816 28.392V28.4444H21.3973L21.9816 27.3134L22.6258 28.4444H24.004V28.392L22.6782 26.4519L23.9441 24.5718V24.5194Z" fill="white"/>
</g>
<defs>
<clipPath id="clip0_1967_18498">
<rect width="32" height="32" fill="white"/>
</clipPath>
</defs>
</svg>
