<svg width="64" height="64" viewBox="0 0 64 64" fill="none" xmlns="http://www.w3.org/2000/svg">
<g clip-path="url(#clip0_1967:18440)">
<path opacity="0.5" fill-rule="evenodd" clip-rule="evenodd" d="M40.4652 15.309L38.441 17.5142L36.2605 15.1387V21.9826H32.9132V23.1448C35.8334 23.7381 38.0313 26.3223 38.0313 29.4204V37.1048H48.2674V29.4205C48.2674 23.473 45.1518 18.2538 40.4652 15.309ZM33.7015 12.8984V19.4211H32.9132V12.8196C33.1778 12.8397 33.4406 12.8661 33.7015 12.8984ZM29.5658 12.8985C29.8268 12.8661 30.0896 12.8397 30.3542 12.8196V19.4211H29.5658V12.8985ZM22.8022 15.309L24.8263 17.5142L27.0068 15.1387V21.9826H30.3542V23.1448C27.434 23.7381 25.2361 26.3223 25.2361 29.4204V37.1048H15V29.4205C15 23.473 18.1155 18.2539 22.8022 15.309ZM35.4723 37.1048V29.4204C35.4723 27.2984 33.7537 25.5782 31.6337 25.5782C29.5137 25.5782 27.7952 27.2984 27.7952 29.4204V37.1048H35.4723ZM15 47.3508V39.6663H48.2674V47.3508C48.2674 56.546 40.8203 64.0003 31.6337 64.0003C22.4472 64.0003 15 56.546 15 47.3508Z" fill="white"/>
<path d="M35.4723 29.4289V37.106H27.7952V29.4289C27.7952 27.3089 29.5137 25.5903 31.6337 25.5903C33.7537 25.5903 35.4723 27.3089 35.4723 29.4289Z" fill="white"/>
<path d="M33.7017 8.62481L38.4412 13.7835L41.3693 10.5964L31.6339 6.86646e-05L21.8984 10.5964L24.8265 13.7835L29.566 8.62481V19.4709H33.7017V8.62481Z" fill="white"/>
</g>
<defs>
<clipPath id="clip0_1967:18440">
<rect width="64" height="64" fill="white"/>
</clipPath>
</defs>
</svg>
