<svg width="64" height="64" viewBox="0 0 64 64" fill="none" xmlns="http://www.w3.org/2000/svg">
<g clip-path="url(#clip0_1967:18299)">
<path fill-rule="evenodd" clip-rule="evenodd" d="M32.0001 13.0909L20.3638 0H43.6364L35.6648 8.96812C35.6648 8.96812 35.6649 8.96813 35.6649 8.96813L32.0003 13.0909L32.0002 13.0908L32.0001 13.0909ZM25.0197 9.61643L32.0003 17.4696L38.9808 9.61648C50.8642 12.7092 59.6365 23.512 59.6365 36.3636C59.6365 51.6268 47.2633 64 32.0001 64C16.737 64 4.36377 51.6268 4.36377 36.3636C4.36377 23.5119 13.1361 12.7091 25.0197 9.61643ZM39.0689 29C40.8324 29 42.1619 29.3406 43.0574 30.0218C43.9529 30.703 44.4007 31.5817 44.4007 32.658C44.4007 33.3529 44.194 33.9727 43.7807 34.5177C43.3674 35.0627 42.7681 35.4986 41.9828 35.8256V35.9073C42.9059 36.0981 43.6361 36.4864 44.1734 37.0722C44.7245 37.658 45 38.4482 45 39.4428C45 40.3556 44.7313 41.1594 44.194 41.8542C43.6567 42.5354 42.9265 43.0667 42.0035 43.4482C41.0942 43.8161 40.0884 44 38.9862 44C37.9116 44 36.8921 43.8569 35.9277 43.5708C34.9633 43.2847 34.1573 42.876 33.5098 42.3447L34.9771 39.7289C35.969 40.5872 37.1952 41.0163 38.6556 41.0163C39.4547 41.0163 40.0746 40.8597 40.5155 40.5463C40.9702 40.2193 41.1975 39.7697 41.1975 39.1975C41.1975 38.0804 40.3571 37.5218 38.6763 37.5218H36.651V34.906H38.4283C39.1309 34.906 39.6751 34.7834 40.0609 34.5381C40.4604 34.2793 40.6602 33.9182 40.6602 33.455C40.6602 33.0191 40.4604 32.6648 40.0609 32.3924C39.6751 32.1199 39.1309 31.9836 38.4283 31.9836C37.8634 31.9836 37.3054 32.079 36.7543 32.2697C36.2032 32.4469 35.7142 32.6921 35.2871 33.0054L33.7991 30.737C34.5155 30.1648 35.3215 29.7357 36.217 29.4496C37.1263 29.1499 38.077 29 39.0689 29ZM31.3168 43.6526H27.349L24.6004 39.1158H24.2904H22.5752V43.6526H19V29.3474H24.6211C26.6877 29.3474 28.217 29.7493 29.2089 30.5531C30.2009 31.3569 30.6969 32.4877 30.6969 33.9455C30.6969 35.049 30.4558 35.9755 29.9736 36.7248C29.5051 37.4605 28.8438 38.0191 27.9896 38.4005L31.3168 43.6526ZM22.5752 32.3719V36.0913H24.5178C25.248 36.0913 25.8197 35.9278 26.233 35.6008C26.6601 35.2602 26.8737 34.7697 26.8737 34.1294C26.8737 33.5436 26.6808 33.1076 26.295 32.8215C25.9093 32.5218 25.2962 32.3719 24.4558 32.3719H22.5752Z" fill="white"/>
</g>
<defs>
<clipPath id="clip0_1967:18299">
<rect width="64" height="64" fill="white"/>
</clipPath>
</defs>
</svg>
