<svg width="32" height="32" viewBox="0 0 32 32" fill="none" xmlns="http://www.w3.org/2000/svg">
<path fill-rule="evenodd" clip-rule="evenodd" d="M16 32C24.8366 32 32 24.8366 32 16C32 7.16344 24.8366 0 16 0C7.16344 0 0 7.16344 0 16C0 24.8366 7.16344 32 16 32ZM18.1145 21.8667H21.1865L18.6105 17.7547C19.2718 17.456 19.7838 17.0187 20.1465 16.4427C20.5198 15.856 20.7065 15.1307 20.7065 14.2667C20.7065 13.1253 20.3225 12.24 19.5545 11.6107C18.7865 10.9813 17.6025 10.6667 16.0025 10.6667H11.6505V21.8667H14.4185V18.3147H15.7465H15.9865L18.1145 21.8667ZM14.4185 15.9467V13.0347H15.8745C16.5252 13.0347 16.9998 13.152 17.2985 13.3867C17.5972 13.6107 17.7465 13.952 17.7465 14.4107C17.7465 14.912 17.5812 15.296 17.2505 15.5627C16.9305 15.8187 16.4878 15.9467 15.9225 15.9467H14.4185Z" fill="white"/>
</svg>
