<svg width="32" height="32" viewBox="0 0 32 32" fill="none" xmlns="http://www.w3.org/2000/svg">
<g clip-path="url(#clip0_8152_841)">
<path d="M30 0C31.1046 0 32 0.895431 32 2V30C32 31.1046 31.1046 32 30 32H2C0.895431 32 0 31.1046 0 30V2C0 0.895431 0.895431 0 2 0H30ZM4 10V21.2002H6.14355V14.1602L9.21582 20.8799H10.6396L13.6484 14.0801V21.2002H15.9043V10H13.5195L10.0322 17.9521L6.25586 10H4ZM23.2412 10L17.7529 17.1201V18.6562H23.0332V21.2002H25.417V18.6562H27.0332V16.8477H25.417V10H23.2412ZM23.1289 16.8477H20.041L23.1289 12.7998V16.8477Z" fill="white"/>
</g>
<defs>
<clipPath id="clip0_8152_841">
<rect width="32" height="32" fill="white"/>
</clipPath>
</defs>
</svg>
