<svg width="64" height="64" viewBox="0 0 64 64" fill="none" xmlns="http://www.w3.org/2000/svg">
<path fill-rule="evenodd" clip-rule="evenodd" d="M32 60C47.464 60 60 47.464 60 32C60 16.536 47.464 4 32 4C16.536 4 4 16.536 4 32C4 47.464 16.536 60 32 60ZM44 37.2471C44 33.8786 42.2662 31.6671 38.7985 30.6129C40.0665 29.9443 40.9852 29.1086 41.5545 28.1057C42.1238 27.1029 42.4085 25.9971 42.4085 24.7886C42.4085 22.6286 41.6451 20.9571 40.1183 19.7743C38.5915 18.5914 36.2366 18 33.0536 18H23V45H34.1405C37.1423 45 39.536 44.3186 41.3216 42.9557C43.1072 41.5929 44 39.69 44 37.2471ZM28.7837 29.3014V22.7057H32.5878C35.3567 22.7057 36.7412 23.7471 36.7412 25.83C36.7412 26.9357 36.3919 27.7971 35.6932 28.4143C34.9945 29.0057 33.9981 29.3014 32.7043 29.3014H28.7837ZM36.8189 39.3686C36.0943 40.0114 35.0074 40.3329 33.5582 40.3329H28.7837V33.39H33.7135C35.085 33.39 36.1331 33.6857 36.8577 34.2771C37.5823 34.8429 37.9445 35.6914 37.9445 36.8229C37.9445 37.8771 37.5693 38.7257 36.8189 39.3686Z" fill="#D94126"/>
</svg>
