<svg width="32" height="32" viewBox="0 0 32 32" fill="none" xmlns="http://www.w3.org/2000/svg">
<path fill-rule="evenodd" clip-rule="evenodd" d="M16 28C22.6274 28 28 22.6274 28 16C28 9.37258 22.6274 4 16 4C9.37258 4 4 9.37258 4 16C4 22.6274 9.37258 28 16 28ZM16 30C23.732 30 30 23.732 30 16C30 8.26801 23.732 2 16 2C8.26801 2 2 8.26801 2 16C2 23.732 8.26801 30 16 30Z" fill="white"/>
<path d="M18.5059 9H22.0775L17.3538 15.4221L22.5 22.5H19.0436L15.8944 17.5821L12.8796 22.5H9.5L14.2814 15.5186L9.69202 9H13.1677L15.8368 13.3393L18.5059 9Z" fill="white"/>
</svg>
