<svg width="32" height="32" viewBox="0 0 32 32" fill="none" xmlns="http://www.w3.org/2000/svg">
<path fill-rule="evenodd" clip-rule="evenodd" d="M18.1523 19.073C17.2906 18.6421 16.2252 17.8599 15.1825 16.8172C14.1398 15.7745 13.3576 14.7092 12.9268 13.8475C12.7097 13.4132 12.5998 13.0663 12.5708 12.8213C12.5535 12.6757 12.5679 12.605 12.5771 12.5773C12.6048 12.5681 12.6755 12.5537 12.8211 12.571C13.0661 12.6 13.413 12.7099 13.8473 12.927C13.8707 12.9387 13.8943 12.9507 13.918 12.9629C14.295 12.6249 14.6758 12.3097 15.0548 12.0211C14.8531 11.9001 14.6555 11.7911 14.4633 11.695C13.9534 11.44 13.4463 11.258 12.9832 11.2031C12.5299 11.1494 11.9933 11.207 11.6 11.6002C11.2067 11.9935 11.1492 12.5301 11.2029 12.9834C11.2578 13.4465 11.4398 13.9536 11.6948 14.4635C12.208 15.49 13.0903 16.673 14.2085 17.7912C15.3268 18.9095 16.5098 19.7917 17.5363 20.305C18.0461 20.5599 18.5532 20.742 19.0163 20.7969C19.4696 20.8506 20.0063 20.793 20.3996 20.3998C20.7928 20.0065 20.8504 19.4698 20.7967 19.0165C20.7418 18.5534 20.5597 18.0463 20.3048 17.5365C20.2156 17.3581 20.1153 17.175 20.0045 16.9883C19.715 17.368 19.3988 17.7493 19.0598 18.1268L19.0728 18.1525C19.2899 18.5867 19.3998 18.9337 19.4288 19.1786C19.4461 19.3243 19.4317 19.395 19.4224 19.4226C19.3948 19.4319 19.3241 19.4463 19.1784 19.429C18.9335 19.4 18.5865 19.2901 18.1523 19.073ZM12.5629 12.5835C12.5624 12.5838 12.5629 12.5835 12.5629 12.5835V12.5835Z" fill="#8B929A"/>
<path fill-rule="evenodd" clip-rule="evenodd" d="M13.8473 19.073C13.9353 19.0289 14.0255 18.9812 14.1176 18.93C14.4795 19.2662 14.8443 19.5854 15.2083 19.8849C14.9532 20.044 14.7039 20.1847 14.4633 20.305C13.9534 20.5599 13.4463 20.742 12.9832 20.7969C12.5299 20.8506 11.9932 20.793 11.6 20.3998C11.2067 20.0065 11.1491 19.4698 11.2029 19.0165C11.2577 18.5534 11.4398 18.0463 11.6947 17.5365C11.81 17.306 11.9439 17.0676 12.0948 16.8238C12.4004 17.1816 12.7242 17.5392 13.0638 17.893C13.0148 17.9813 12.9691 18.0679 12.9268 18.1525C12.7097 18.5867 12.5998 18.9337 12.5707 19.1787C12.5535 19.3243 12.5678 19.395 12.5771 19.4226C12.6048 19.4319 12.6755 19.4463 12.8211 19.429C13.0661 19.4 13.413 19.2901 13.8473 19.073ZM12.5823 19.4353C12.5832 19.4366 12.5835 19.4373 12.5835 19.4373L12.5823 19.4353Z" fill="#8B929A"/>
<path fill-rule="evenodd" clip-rule="evenodd" d="M16.817 16.8172C16.7943 16.84 16.7715 16.8626 16.7487 16.8851C17.1155 17.2079 17.475 17.5008 17.8206 17.7616C18.9248 16.6521 19.7961 15.481 20.3048 14.4635C20.5597 13.9536 20.7418 13.4465 20.7967 12.9834C20.8504 12.5302 20.7928 11.9935 20.3995 11.6002C20.0063 11.207 19.4696 11.1494 19.0163 11.2031C18.5532 11.258 18.0461 11.4401 17.5362 11.695C16.5097 12.2082 15.3268 13.0905 14.2085 14.2087L14.201 14.2162C14.4718 14.5574 14.7719 14.9096 15.0991 15.2667C15.1267 15.2387 15.1545 15.2107 15.1825 15.1827C16.2252 14.14 17.2906 13.3579 18.1523 12.927C18.5865 12.7099 18.9335 12.6 19.1784 12.571C19.3241 12.5537 19.3947 12.5681 19.4224 12.5773C19.4317 12.605 19.446 12.6757 19.4288 12.8213C19.3997 13.0663 19.2899 13.4133 19.0727 13.8475C18.6419 14.7092 17.8597 15.7745 16.817 16.8172ZM19.4172 12.5647L19.4163 12.5632C19.4163 12.5632 19.4165 12.5633 19.4172 12.5647Z" fill="#8B929A"/>
<path fill-rule="evenodd" clip-rule="evenodd" d="M16 23.5557C20.1728 23.5557 23.5555 20.1729 23.5555 16.0001C23.5555 11.8273 20.1728 8.44454 16 8.44454C11.8272 8.44454 8.44442 11.8273 8.44442 16.0001C8.44442 20.1729 11.8272 23.5557 16 23.5557ZM16 24.889C20.9092 24.889 24.8889 20.9093 24.8889 16.0001C24.8889 11.0909 20.9092 7.11121 16 7.11121C11.0908 7.11121 7.11108 11.0909 7.11108 16.0001C7.11108 20.9093 11.0908 24.889 16 24.889Z" fill="white"/>
<path fill-rule="evenodd" clip-rule="evenodd" d="M26.01 24.899C26.3112 25.2002 26.3067 25.6932 25.9999 26C25.693 26.3068 25.2001 26.3114 24.8989 26.0101L21.3231 22.4344L22.4342 21.3232L26.01 24.899ZM10.6766 9.56564L9.56549 10.6768L5.98975 7.10101C5.6885 6.79977 5.69303 6.30683 5.99985 6C6.30668 5.69318 6.79962 5.68865 7.10086 5.9899L10.6766 9.56564Z" fill="white"/>
<path fill-rule="evenodd" clip-rule="evenodd" d="M17.0346 2.26053L17.9618 1.33337L17.3332 0.704834L15.3713 2.66671L17.3332 4.62858L17.9618 4.00004L17.1209 3.15922C23.3449 3.69549 28.3044 8.655 28.8407 14.8789L27.9999 14.0381L27.3713 14.6667L29.3332 16.6286L31.2951 14.6667L30.6665 14.0381L29.7394 14.9653C29.2357 8.18094 23.819 2.76425 17.0346 2.26053Z" fill="white"/>
</svg>
