<svg width="32" height="32" viewBox="0 0 32 32" fill="none" xmlns="http://www.w3.org/2000/svg">
<g clip-path="url(#clip0_3727_33477)">
<path fill-rule="evenodd" clip-rule="evenodd" d="M16.0001 -0.00012207L12.25 3.74996H19.7502L16.0001 -0.00012207ZM16.0002 26.3612C21.8989 26.3612 26.6808 21.5793 26.6808 15.6806C26.6808 9.78183 21.8989 4.99996 16.0002 4.99996C10.1015 4.99996 5.31958 9.78183 5.31958 15.6806C5.31958 21.5793 10.1015 26.3612 16.0002 26.3612ZM13.7797 19.3426H19.0132V17.6764H15.6274V11.8662H13.7797V19.3426ZM16.0003 23.7864C20.477 23.7864 24.106 20.1573 24.106 15.6807C24.106 11.204 20.477 7.57497 16.0003 7.57497C11.5236 7.57497 7.89459 11.204 7.89459 15.6807C7.89459 20.1573 11.5236 23.7864 16.0003 23.7864ZM16.0003 24.6178C20.9361 24.6178 24.9374 20.6165 24.9374 15.6807C24.9374 10.7449 20.9361 6.74361 16.0003 6.74361C11.0645 6.74361 7.06323 10.7449 7.06323 15.6807C7.06323 20.6165 11.0645 24.6178 16.0003 24.6178Z" fill="white"/>
</g>
<defs>
<clipPath id="clip0_3727_33477">
<rect width="32" height="32" fill="white"/>
</clipPath>
</defs>
</svg>
