<svg width="32" height="32" viewBox="0 0 32 32" fill="none" xmlns="http://www.w3.org/2000/svg">
<path fill-rule="evenodd" clip-rule="evenodd" d="M3.44251 16.79C3.01407 16.79 2.66675 16.4363 2.66675 15.9999C2.66675 15.5635 3.01407 15.2098 3.44251 15.2098H4.99402C5.42246 15.2098 5.76978 15.5635 5.76978 15.9999C5.76978 16.4363 5.42246 16.79 4.99402 16.79H3.44251ZM28.7839 16.79C28.3555 16.79 28.0082 16.4363 28.0082 15.9999C28.0082 15.5635 28.3555 15.2098 28.7839 15.2098H30.3354C30.7639 15.2098 31.1112 15.5635 31.1112 15.9999C31.1112 16.4363 30.7639 16.79 30.3354 16.79H28.7839Z" fill="#8B929A"/>
<path fill-rule="evenodd" clip-rule="evenodd" d="M15.7332 15.9999C15.7332 17.4746 15.9334 18.781 16.2381 19.6949C16.3916 20.1555 16.5592 20.4785 16.7119 20.6723C16.8027 20.7875 16.8628 20.8273 16.8889 20.8403C16.9151 20.8273 16.9752 20.7875 17.066 20.6723C17.2187 20.4785 17.3863 20.1555 17.5398 19.6949C17.5428 19.6859 17.5458 19.6768 17.5488 19.6676C18.0555 19.6404 18.5487 19.5943 19.0218 19.5306C18.9682 19.7409 18.9097 19.9413 18.8466 20.1305C18.6663 20.6713 18.4365 21.1586 18.1478 21.5249C17.8653 21.8834 17.4451 22.2222 16.8889 22.2222C16.3328 22.2222 15.9126 21.8834 15.63 21.5249C15.3414 21.1586 15.1116 20.6713 14.9313 20.1305C14.5684 19.0417 14.3557 17.5814 14.3557 15.9999C14.3557 14.4185 14.5684 12.9582 14.9313 11.8694C15.1116 11.3286 15.3414 10.8413 15.63 10.475C15.9126 10.1165 16.3328 9.77772 16.8889 9.77772C17.4451 9.77772 17.8653 10.1165 18.1478 10.475C18.4365 10.8413 18.6663 11.3286 18.8466 11.8694C18.9145 12.0732 18.9772 12.2901 19.0342 12.5183C18.5621 12.4543 18.07 12.408 17.5644 12.3804C17.5563 12.355 17.5481 12.3298 17.5398 12.305C17.3863 11.8444 17.2187 11.5214 17.066 11.3276C16.9752 11.2124 16.9151 11.1726 16.8889 11.1596C16.8628 11.1726 16.8027 11.2124 16.7119 11.3276C16.5592 11.5214 16.3916 11.8444 16.2381 12.305C15.9334 13.2189 15.7332 14.5253 15.7332 15.9999ZM16.8741 11.1537C16.8738 11.1537 16.8741 11.1538 16.8741 11.1537C16.8741 11.1537 16.8744 11.1537 16.8749 11.1539C16.8753 11.154 16.8758 11.1541 16.8763 11.1543C16.8755 11.1541 16.8744 11.1538 16.8741 11.1537Z" fill="white"/>
<path fill-rule="evenodd" clip-rule="evenodd" d="M13.4862 16.7408C13.3849 16.7119 13.2874 16.6819 13.194 16.6508C12.7334 16.4972 12.4104 16.3296 12.2166 16.1769C12.1015 16.0862 12.0616 16.026 12.0486 15.9999C12.0616 15.9738 12.1015 15.9136 12.2166 15.8229C12.4104 15.6702 12.7334 15.5026 13.194 15.349C13.2837 15.3191 13.3773 15.2902 13.4744 15.2624C13.4844 14.7721 13.5083 14.2903 13.5453 13.8212C13.2661 13.8868 13.0029 13.9608 12.7584 14.0423C12.2176 14.2225 11.7303 14.4524 11.364 14.741C11.0055 15.0235 10.6667 15.4438 10.6667 15.9999C10.6667 16.5561 11.0055 16.9763 11.364 17.2588C11.7303 17.5475 12.2176 17.7773 12.7584 17.9575C13.0137 18.0426 13.2894 18.1195 13.5823 18.1872C13.5366 17.7181 13.5044 17.2345 13.4862 16.7408ZM16.7927 17.1554C16.8247 17.1556 16.8568 17.1557 16.889 17.1557C18.3636 17.1557 19.67 16.9554 20.5839 16.6508C21.0445 16.4972 21.3676 16.3296 21.5613 16.1769C21.6765 16.0862 21.7163 16.026 21.7293 15.9999C21.7163 15.9738 21.6765 15.9136 21.5613 15.8229C21.3676 15.6702 21.0445 15.5026 20.5839 15.349C19.67 15.0444 18.3636 14.8441 16.889 14.8441C16.8494 14.8441 16.8099 14.8443 16.7706 14.8446C16.7918 14.3606 16.8286 13.8994 16.8784 13.4667C16.8819 13.4667 16.8855 13.4667 16.889 13.4667C18.4704 13.4667 19.9308 13.6793 21.0195 14.0423C21.5603 14.2225 22.0476 14.4524 22.4139 14.741C22.7724 15.0235 23.1112 15.4438 23.1112 15.9999C23.1112 16.5561 22.7724 16.9763 22.4139 17.2588C22.0476 17.5475 21.5603 17.7773 21.0195 17.9575C19.9404 18.3173 18.4962 18.5294 16.9309 18.5331C16.8709 18.1043 16.8238 17.6429 16.7927 17.1554ZM12.0433 16.0125C12.043 16.014 12.0428 16.0148 12.0428 16.0148C12.0427 16.0148 12.0428 16.0146 12.0428 16.0143C12.0429 16.014 12.043 16.0134 12.0433 16.0125ZM12.0433 15.9873C12.043 15.9858 12.0428 15.985 12.0428 15.985C12.0427 15.985 12.0428 15.9858 12.0433 15.9873ZM21.735 15.9856C21.7351 15.9852 21.7352 15.985 21.7352 15.985C21.7352 15.985 21.7351 15.9858 21.7346 15.9873C21.7348 15.9865 21.7349 15.9859 21.735 15.9856ZM21.7346 16.0125C21.7349 16.014 21.7351 16.0148 21.7352 16.0148C21.7352 16.0148 21.7351 16.014 21.7346 16.0125Z" fill="#8B929A"/>
<path fill-rule="evenodd" clip-rule="evenodd" d="M14.4192 30.0061C13.9895 29.9303 13.7025 29.5205 13.7783 29.0908L15.5556 19.1111L16.7614 21.273L15.3346 29.3652C15.2588 29.7949 14.849 30.0819 14.4192 30.0061ZM17.0164 10.7269L18.4432 2.6347C18.519 2.20495 18.9288 1.91801 19.3586 1.99378C19.7883 2.06956 20.0753 2.47936 19.9995 2.9091L18.4196 11.7807L17.0164 10.7269Z" fill="white"/>
<path fill-rule="evenodd" clip-rule="evenodd" d="M17.5678 23.5254C21.4225 23.1822 24.4444 19.944 24.4444 16C24.4444 11.8272 21.0617 8.44442 16.8889 8.44442C12.7161 8.44442 9.33333 11.8272 9.33333 16C9.33333 19.0243 11.1102 21.6335 13.6769 22.8408L13.4383 24.1943C10.2429 22.8471 8 19.6855 8 16C8 11.0908 11.9797 7.11108 16.8889 7.11108C21.7981 7.11108 25.7778 11.0908 25.7778 16C25.7778 20.7615 22.0339 24.6486 17.3292 24.8781L17.5678 23.5254Z" fill="#8B929A"/>
<path d="M3.73527 11.9503C3.52221 11.4532 3.29135 11.1077 3.08027 10.8993C2.87301 10.6948 2.73427 10.6666 2.66667 10.6666C2.59907 10.6666 2.46033 10.6948 2.25307 10.8993C2.04199 11.1077 1.81112 11.4532 1.59807 11.9503C1.17331 12.9414 0.888889 14.3725 0.888889 15.9999C0.888889 17.6273 1.17331 19.0585 1.59807 20.0496C1.81112 20.5467 2.04199 20.8922 2.25307 21.1005C2.46033 21.3051 2.59907 21.3333 2.66667 21.3333C2.73427 21.3333 2.87301 21.3051 3.08027 21.1005C3.29135 20.8922 3.52221 20.5467 3.73527 20.0496C3.93649 19.58 4.10623 19.0117 4.22914 18.3706L5.09617 18.5688C4.67703 20.7236 3.74685 22.2222 2.66667 22.2222C1.19391 22.2222 0 19.4364 0 15.9999C0 12.5635 1.19391 9.77771 2.66667 9.77771C3.65938 9.77771 4.5254 11.0434 4.98449 12.9209L4.12215 13.1366C4.0143 12.6946 3.88331 12.2957 3.73527 11.9503Z" fill="white"/>
<path fill-rule="evenodd" clip-rule="evenodd" d="M2.87002 11.9448L4.50302 12.8876L5.44583 11.2546L6.21563 11.6991L4.82837 14.1018L2.42558 12.7146L2.87002 11.9448Z" fill="white"/>
</svg>
