<svg width="32" height="32" viewBox="0 0 32 32" fill="none" xmlns="http://www.w3.org/2000/svg">
<g clip-path="url(#clip0_8152_856)">
<path d="M30 0C31.1046 0 32 0.895431 32 2V30C32 31.1046 31.1046 32 30 32H2C0.895431 32 0 31.1046 0 30V2C0 0.895431 0.895431 0 2 0H30ZM5 10V21.2002H7.14355V14.1602L10.2158 20.8799H11.6396L14.6484 14.0801V21.2002H16.9043V10H14.5195L11.0322 17.9521L7.25586 10H5ZM22.5771 10L18.8975 11.8242L19.6494 13.584L22.001 12.5918V19.168H19.3613V21.2002H26.5127V19.168H24.3848V10H22.5771Z" fill="white"/>
</g>
<defs>
<clipPath id="clip0_8152_856">
<rect width="32" height="32" fill="white"/>
</clipPath>
</defs>
</svg>
