<svg width="32" height="32" viewBox="0 0 32 32" fill="none" xmlns="http://www.w3.org/2000/svg">
<path d="M21.091 7.09091C21.091 9.90254 18.8117 12.1818 16.0001 12.1818C13.1885 12.1818 10.9092 9.90254 10.9092 7.09091C10.9092 4.27928 13.1885 2 16.0001 2C18.8117 2 21.091 4.27928 21.091 7.09091Z" fill="white"/>
<mask id="path-2-inside-1_1967_17012" fill="white">
<path d="M21.091 24.9091C21.091 22.0975 18.8117 19.8182 16.0001 19.8182C13.1885 19.8182 10.9092 22.0975 10.9092 24.9091C10.9092 27.7207 13.1885 30 16.0001 30C18.8117 30 21.091 27.7207 21.091 24.9091Z"/>
</mask>
<path d="M19.091 24.9091C19.091 23.202 17.7072 21.8182 16.0001 21.8182V17.8182C19.9163 17.8182 23.091 20.9929 23.091 24.9091H19.091ZM16.0001 21.8182C14.293 21.8182 12.9092 23.202 12.9092 24.9091H8.90918C8.90918 20.9929 12.0839 17.8182 16.0001 17.8182V21.8182ZM12.9092 24.9091C12.9092 26.6162 14.293 28 16.0001 28V32C12.0839 32 8.90918 28.8253 8.90918 24.9091H12.9092ZM16.0001 28C17.7072 28 19.091 26.6162 19.091 24.9091H23.091C23.091 28.8253 19.9163 32 16.0001 32V28Z" fill="white" mask="url(#path-2-inside-1_1967_17012)"/>
<mask id="path-4-inside-2_1967_17012" fill="white">
<path d="M7.09091 10.9091C9.90254 10.9091 12.1818 13.1884 12.1818 16C12.1818 18.8117 9.90254 21.0909 7.09091 21.0909C4.27928 21.0909 2 18.8117 2 16C2 13.1884 4.27928 10.9091 7.09091 10.9091Z"/>
</mask>
<path d="M7.09091 12.9091C8.79797 12.9091 10.1818 14.293 10.1818 16H14.1818C14.1818 12.0838 11.0071 8.90912 7.09091 8.90912V12.9091ZM10.1818 16C10.1818 17.7071 8.79797 19.0909 7.09091 19.0909V23.0909C11.0071 23.0909 14.1818 19.9162 14.1818 16H10.1818ZM7.09091 19.0909C5.38385 19.0909 4 17.7071 4 16H0C0 19.9162 3.17471 23.0909 7.09091 23.0909V19.0909ZM4 16C4 14.293 5.38385 12.9091 7.09091 12.9091V8.90912C3.17471 8.90912 0 12.0838 0 16H4Z" fill="white" mask="url(#path-4-inside-2_1967_17012)"/>
<mask id="path-6-inside-3_1967_17012" fill="white">
<path d="M24.9091 10.9091C22.0975 10.9091 19.8182 13.1884 19.8182 16C19.8182 18.8117 22.0975 21.0909 24.9091 21.0909C27.7207 21.0909 30 18.8117 30 16C30 13.1884 27.7207 10.9091 24.9091 10.9091Z"/>
</mask>
<path d="M24.9091 12.9091C23.202 12.9091 21.8182 14.293 21.8182 16H17.8182C17.8182 12.0838 20.9929 8.90912 24.9091 8.90912V12.9091ZM21.8182 16C21.8182 17.7071 23.202 19.0909 24.9091 19.0909V23.0909C20.9929 23.0909 17.8182 19.9162 17.8182 16H21.8182ZM24.9091 19.0909C26.6162 19.0909 28 17.7071 28 16H32C32 19.9162 28.8253 23.0909 24.9091 23.0909V19.0909ZM28 16C28 14.293 26.6162 12.9091 24.9091 12.9091V8.90912C28.8253 8.90912 32 12.0838 32 16H28Z" fill="white" mask="url(#path-6-inside-3_1967_17012)"/>
</svg>
