<svg width="32" height="32" viewBox="0 0 32 32" fill="none" xmlns="http://www.w3.org/2000/svg">
<path fill-rule="evenodd" clip-rule="evenodd" d="M16.0001 24.8889C22.873 24.8889 28.4446 19.3173 28.4446 12.4444C28.4446 5.57157 22.873 0 16.0001 0C9.12723 0 3.55566 5.57157 3.55566 12.4444C3.55566 19.3173 9.12723 24.8889 16.0001 24.8889ZM17.6447 16.8889H20.0341L18.0305 13.6907C18.5449 13.4584 18.9431 13.1182 19.2252 12.6702C19.5155 12.2139 19.6607 11.6498 19.6607 10.9778C19.6607 10.0901 19.362 9.4015 18.7647 8.91202C18.1674 8.42254 17.2465 8.1778 16.002 8.1778H12.6172V16.8889H14.7701V14.1262H15.8029H15.9896L17.6447 16.8889ZM14.7701 12.2845V10.0196H15.9025C16.4086 10.0196 16.7778 10.1108 17.0101 10.2934C17.2423 10.4676 17.3585 10.7331 17.3585 11.0898C17.3585 11.4797 17.2299 11.7784 16.9727 11.9858C16.7238 12.1849 16.3795 12.2845 15.9398 12.2845H14.7701Z" fill="white"/>
<path d="M21.3334 26.6666H10.6667L16.0001 32L21.3334 26.6666Z" fill="white"/>
</svg>
