<svg width="32" height="32" viewBox="0 0 32 32" fill="none" xmlns="http://www.w3.org/2000/svg">
<g clip-path="url(#clip0_8152_826)">
<path d="M30 0C31.1046 0 32 0.895431 32 2V30C32 31.1046 31.1046 32 30 32H2C0.895431 32 0 31.1046 0 30V2C0 0.895431 0.895431 0 2 0H30ZM5 10V21.2002H7.14355V14.1602L10.2158 20.8799H11.6396L14.6484 14.0801V21.2002H16.9043V10H14.5195L11.0322 17.9521L7.25586 10H5ZM18.4492 10V12.1279H24.0488L19.7129 21.2002H22.2412L26.6406 11.8398V10H18.4492Z" fill="white"/>
</g>
<defs>
<clipPath id="clip0_8152_826">
<rect width="32" height="32" fill="white"/>
</clipPath>
</defs>
</svg>
