<svg width="64" height="64" viewBox="0 0 64 64" fill="none" xmlns="http://www.w3.org/2000/svg">
<g clip-path="url(#clip0_1967:18309)">
<path fill-rule="evenodd" clip-rule="evenodd" d="M20.3638 0L32.0001 13.0909L32.0002 13.0908L32.0003 13.0909L35.6649 8.96813L35.6648 8.96812L43.6364 0H20.3638ZM25.0197 9.61643L32.0003 17.4696L38.9808 9.61648C50.8642 12.7092 59.6365 23.512 59.6365 36.3636C59.6365 51.6268 47.2633 64 32.0001 64C16.737 64 4.36377 51.6268 4.36377 36.3636C4.36377 23.5119 13.1361 12.7091 25.0197 9.61643ZM42.1149 30.0536C41.2325 29.3749 39.9224 29.0355 38.1847 29.0355C37.2073 29.0355 36.2706 29.1848 35.3746 29.4835C34.4921 29.7686 33.698 30.1962 32.992 30.7664L34.4582 33.0267C34.879 32.7145 35.361 32.4701 35.904 32.2936C36.447 32.1036 36.9969 32.0086 37.5535 32.0086C38.2458 32.0086 38.7821 32.1443 39.1622 32.4158C39.5559 32.6873 39.7528 33.0403 39.7528 33.4747C39.7528 33.9363 39.5559 34.2961 39.1622 34.554C38.7821 34.7984 38.2458 34.9206 37.5535 34.9206H35.8022V37.5271H37.7978C39.4541 37.5271 40.2822 38.0837 40.2822 39.1969C40.2822 39.7671 40.0582 40.2151 39.6102 40.5409C39.1758 40.8532 38.5649 41.0093 37.7775 41.0093C36.3384 41.0093 35.1302 40.5816 34.1527 39.7264L32.7069 42.3329C33.345 42.8624 34.1392 43.2696 35.0895 43.5547C36.0398 43.8398 37.0444 43.9824 38.1033 43.9824C39.1894 43.9824 40.1804 43.7991 41.0764 43.4326C41.986 43.0524 42.7055 42.523 43.2349 41.8442C43.7644 41.1518 44.0291 40.3509 44.0291 39.4413C44.0291 38.4503 43.7576 37.6629 43.2146 37.0791C42.6851 36.4953 41.9656 36.1084 41.056 35.9184V35.8369C41.8298 35.5111 42.4204 35.0767 42.8277 34.5336C43.2349 33.9906 43.4386 33.3729 43.4386 32.6806C43.4386 31.6081 42.9974 30.7324 42.1149 30.0536ZM20.4775 43.6362H30.4557V40.4595H24.0004V29.3816H20.4775V43.6362Z" fill="white"/>
</g>
<defs>
<clipPath id="clip0_1967:18309">
<rect width="64" height="64" fill="white"/>
</clipPath>
</defs>
</svg>
