<svg width="32" height="32" viewBox="0 0 32 32" fill="none" xmlns="http://www.w3.org/2000/svg">
<path fill-rule="evenodd" clip-rule="evenodd" d="M10.6668 0L16.0001 5.33333L21.3334 0H10.6668ZM28.4446 19.5556C28.4446 26.4284 22.873 32 16.0001 32C9.12723 32 3.55566 26.4284 3.55566 19.5556C3.55566 12.6827 9.12723 7.11111 16.0001 7.11111C22.873 7.11111 28.4446 12.6827 28.4446 19.5556ZM22.7536 15.6995C22.2143 15.2847 21.4137 15.0773 20.3518 15.0773C19.7545 15.0773 19.182 15.1685 18.6345 15.351C18.0952 15.5253 17.6099 15.7866 17.1785 16.135L18.0745 17.5164C18.3317 17.3256 18.6262 17.1762 18.958 17.0684C19.2899 16.9522 19.6259 16.8941 19.966 16.8941C20.3892 16.8941 20.7169 16.9771 20.9492 17.143C21.1897 17.309 21.31 17.5247 21.31 17.7901C21.31 18.0722 21.1897 18.2921 20.9492 18.4497C20.7169 18.599 20.3892 18.6737 19.966 18.6737H18.8958V20.2666H20.1154C21.1275 20.2666 21.6336 20.6067 21.6336 21.287C21.6336 21.6355 21.4967 21.9093 21.2229 22.1084C20.9575 22.2992 20.5841 22.3946 20.1029 22.3946C19.2235 22.3946 18.4852 22.1333 17.8878 21.6106L17.0043 23.2035C17.3942 23.527 17.8795 23.7759 18.4603 23.9501C19.041 24.1244 19.6549 24.2115 20.302 24.2115C20.9657 24.2115 21.5714 24.0995 22.1189 23.8755C22.6748 23.6432 23.1145 23.3196 23.438 22.9048C23.7616 22.4817 23.9234 21.9922 23.9234 21.4364C23.9234 20.8307 23.7574 20.3496 23.4256 19.9928C23.102 19.6361 22.6623 19.3996 22.1065 19.2835V19.2337C22.5794 19.0346 22.9403 18.7691 23.1892 18.4373C23.438 18.1054 23.5625 17.7279 23.5625 17.3048C23.5625 16.6494 23.2929 16.1143 22.7536 15.6995ZM13.7388 23.9999H16.1282L14.1246 20.8017C14.639 20.5694 15.0372 20.2293 15.3193 19.7813C15.6096 19.325 15.7548 18.7608 15.7548 18.0888C15.7548 17.2011 15.4562 16.5125 14.8588 16.023C14.2615 15.5336 13.3406 15.2888 12.0962 15.2888H8.71126V23.9999H10.8642V21.2373H11.897H12.0837L13.7388 23.9999ZM10.8642 19.3955V17.1306H11.9966C12.5027 17.1306 12.8719 17.2218 13.1042 17.4044C13.3364 17.5786 13.4526 17.8441 13.4526 18.2008C13.4526 18.5907 13.324 18.8894 13.0668 19.0968C12.8179 19.2959 12.4736 19.3955 12.0339 19.3955H10.8642Z" fill="white"/>
</svg>
