<svg width="64" height="64" viewBox="0 0 64 64" fill="none" xmlns="http://www.w3.org/2000/svg">
<g clip-path="url(#clip0_2643:19515)">
<path fill-rule="evenodd" clip-rule="evenodd" d="M32.0001 13.0909L20.3638 0H43.6364L35.6648 8.96812C35.6648 8.96812 35.6649 8.96813 35.6649 8.96813L32.0003 13.0909L32.0002 13.0908L32.0001 13.0909ZM25.0197 9.61643L32.0003 17.4696L38.9808 9.61648C50.8642 12.7092 59.6365 23.512 59.6365 36.3636C59.6365 51.6268 47.2633 64 32.0001 64C16.737 64 4.36377 51.6268 4.36377 36.3636C4.36377 23.5119 13.1361 12.7091 25.0197 9.61643ZM39.0001 45H34.8122L31.9112 39.9257H31.584H29.7736V45H26.0001V29H31.933C34.1142 29 35.7283 29.4495 36.7753 30.3486C37.8223 31.2476 38.3458 32.5124 38.3458 34.1428C38.3458 35.3771 38.0913 36.4133 37.5823 37.2514C37.0879 38.0743 36.3899 38.699 35.4884 39.1257L39.0001 45ZM29.7736 32.3828V36.5428H31.8239C32.5946 36.5428 33.1981 36.36 33.6344 35.9943C34.0851 35.6133 34.3105 35.0648 34.3105 34.3486C34.3105 33.6933 34.1069 33.2057 33.6998 32.8857C33.2926 32.5505 32.6455 32.3828 31.7585 32.3828H29.7736Z" fill="white"/>
</g>
<defs>
<clipPath id="clip0_2643:19515">
<rect width="64" height="64" fill="white"/>
</clipPath>
</defs>
</svg>
