<svg width="32" height="32" viewBox="0 0 32 32" fill="none" xmlns="http://www.w3.org/2000/svg">
<path fill-rule="evenodd" clip-rule="evenodd" d="M14.3208 28.5575C14.3208 28.9859 14.6746 29.3333 15.1109 29.3333C15.5473 29.3333 15.901 28.9859 15.901 28.5575V27.006C15.901 26.5775 15.5473 26.2302 15.1109 26.2302C14.6746 26.2302 14.3208 26.5775 14.3208 27.006V28.5575ZM14.3208 3.21607C14.3208 3.64451 14.6746 3.99183 15.1109 3.99183C15.5473 3.99183 15.901 3.64451 15.901 3.21607V1.66455C15.901 1.23612 15.5473 0.888796 15.1109 0.888796C14.6746 0.888796 14.3208 1.23612 14.3208 1.66455L14.3208 3.21607Z" fill="#8B929A"/>
<path fill-rule="evenodd" clip-rule="evenodd" d="M14.1492 15.1111C14.1492 13.6365 14.3494 12.3301 14.6541 11.4161C14.8076 10.9556 14.9752 10.6325 15.1279 10.4388C15.2187 10.3236 15.2788 10.2838 15.3049 10.2708C15.3311 10.2838 15.3912 10.3236 15.482 10.4388C15.6346 10.6325 15.8023 10.9556 15.9558 11.4161C15.9588 11.4252 15.9618 11.4343 15.9648 11.4434C16.4715 11.4707 16.9647 11.5167 17.4378 11.5805C17.3842 11.3702 17.3256 11.1698 17.2626 10.9806C17.0823 10.4398 16.8525 9.95245 16.5638 9.58618C16.2813 9.22768 15.8611 8.88892 15.3049 8.88892C14.7488 8.88892 14.3286 9.22768 14.046 9.58618C13.7574 9.95245 13.5276 10.4398 13.3473 10.9806C12.9844 12.0693 12.7717 13.5296 12.7717 15.1111C12.7717 16.6925 12.9844 18.1528 13.3473 19.2416C13.5276 19.7824 13.7574 20.2697 14.046 20.636C14.3286 20.9945 14.7488 21.3333 15.3049 21.3333C15.8611 21.3333 16.2813 20.9945 16.5638 20.636C16.8525 20.2697 17.0823 19.7824 17.2626 19.2416C17.3305 19.0378 17.3932 18.8209 17.4502 18.5927C16.9781 18.6567 16.486 18.703 15.9804 18.7306C15.9723 18.756 15.9641 18.7812 15.9558 18.806C15.8023 19.2666 15.6346 19.5896 15.482 19.7834C15.3912 19.8986 15.3311 19.9384 15.3049 19.9514C15.2788 19.9384 15.2187 19.8986 15.1279 19.7834C14.9752 19.5896 14.8076 19.2666 14.6541 18.806C14.3494 17.8921 14.1492 16.5857 14.1492 15.1111ZM15.2901 19.9573C15.2898 19.9573 15.2901 19.9572 15.2901 19.9573C15.2901 19.9573 15.2904 19.9572 15.2909 19.9571C15.2913 19.957 15.2917 19.9569 15.2923 19.9567C15.2915 19.9569 15.2904 19.9572 15.2901 19.9573Z" fill="#8B929A"/>
<path fill-rule="evenodd" clip-rule="evenodd" d="M11.7084 14.1762C11.607 14.205 11.5095 14.2351 11.4161 14.2662C10.9556 14.4197 10.6325 14.5874 10.4388 14.74C10.3236 14.8308 10.2838 14.8909 10.2708 14.9171C10.2838 14.9432 10.3236 15.0033 10.4388 15.0941C10.6325 15.2468 10.9556 15.4144 11.4161 15.5679C11.5059 15.5978 11.5994 15.6268 11.6965 15.6546C11.7066 16.1448 11.7304 16.6267 11.7674 17.0957C11.4883 17.0301 11.225 16.9562 10.9806 16.8747C10.4398 16.6944 9.95245 16.4646 9.58618 16.176C9.22768 15.8934 8.88892 15.4732 8.88892 14.9171C8.88892 14.3609 9.22768 13.9407 9.58618 13.6582C9.95245 13.3695 10.4398 13.1397 10.9806 12.9594C11.2358 12.8743 11.5115 12.7975 11.8044 12.7298C11.7588 13.1988 11.7265 13.6825 11.7084 14.1762ZM15.0148 13.7616C15.0468 13.7614 15.0789 13.7613 15.1111 13.7613C16.5857 13.7613 17.8921 13.9616 18.806 14.2662C19.2666 14.4197 19.5896 14.5874 19.7834 14.74C19.8986 14.8308 19.9384 14.8909 19.9514 14.9171C19.9384 14.9432 19.8986 15.0033 19.7834 15.0941C19.5896 15.2468 19.2666 15.4144 18.806 15.5679C17.8921 15.8726 16.5857 16.0728 15.1111 16.0728C15.0715 16.0728 15.0321 16.0727 14.9927 16.0724C15.0139 16.5563 15.0507 17.0175 15.1005 17.4503C15.1041 17.4503 15.1076 17.4503 15.1111 17.4503C16.6925 17.4503 18.1528 17.2376 19.2416 16.8747C19.7824 16.6944 20.2697 16.4646 20.636 16.176C20.9945 15.8934 21.3333 15.4732 21.3333 14.9171C21.3333 14.3609 20.9945 13.9407 20.636 13.6582C20.2697 13.3695 19.7824 13.1397 19.2416 12.9594C18.1625 12.5997 16.7183 12.3876 15.153 12.3839C15.093 12.8127 15.0459 13.2741 15.0148 13.7616ZM10.2655 14.9045C10.2652 14.9029 10.265 14.9022 10.2649 14.9022C10.2649 14.9022 10.2649 14.9023 10.265 14.9026C10.265 14.903 10.2652 14.9036 10.2655 14.9045ZM10.2655 14.9297C10.2652 14.9312 10.265 14.9319 10.2649 14.9319C10.2649 14.9319 10.265 14.9312 10.2655 14.9297ZM19.9571 14.9314C19.9572 14.9318 19.9572 14.9319 19.9573 14.9319C19.9573 14.9319 19.9572 14.9312 19.9567 14.9297C19.9568 14.9305 19.957 14.931 19.9571 14.9314ZM19.9567 14.9045C19.957 14.9029 19.9572 14.9022 19.9573 14.9022C19.9573 14.9022 19.9572 14.903 19.9567 14.9045Z" fill="white"/>
<path fill-rule="evenodd" clip-rule="evenodd" d="M1.10498 17.2729C1.18076 17.7026 1.59056 17.9896 2.02031 17.9138L10.1125 16.4869L9.83813 14.9307L1.7459 16.3576C1.31616 16.4334 1.02921 16.8432 1.10498 17.2729ZM20.3841 14.6758L28.4764 13.2489C28.9061 13.1731 29.1931 12.7633 29.1173 12.3336C29.0415 11.9038 28.6317 11.6169 28.202 11.6927L18.7759 13.3642L20.3841 14.6758Z" fill="white"/>
<path fill-rule="evenodd" clip-rule="evenodd" d="M22.6667 15.1111C22.6667 19.2839 19.2839 22.6667 15.1111 22.6667C12.0868 22.6667 9.47753 20.8898 8.27029 18.3231L6.91681 18.5617C8.26399 21.757 11.4256 24 15.1111 24C20.0203 24 24 20.0203 24 15.1111C24 10.2019 20.0203 6.22222 15.1111 6.22222C10.3496 6.22222 6.46247 9.96611 6.23294 14.6707L7.58564 14.4322C7.92892 10.5775 11.1671 7.55556 15.1111 7.55556C19.2839 7.55556 22.6667 10.9383 22.6667 15.1111Z" fill="#8B929A"/>
<path d="M19.1609 28.2646C19.658 28.4777 20.0035 28.7085 20.2119 28.9196C20.4164 29.1269 20.4446 29.2656 20.4446 29.3332C20.4446 29.4008 20.4164 29.5396 20.2119 29.7468C20.0035 29.9579 19.658 30.1888 19.1609 30.4018C18.1698 30.8266 16.7387 31.111 15.1113 31.111C13.4839 31.111 12.0527 30.8266 11.0616 30.4018C10.5645 30.1888 10.219 29.9579 10.0107 29.7468C9.80614 29.5396 9.77794 29.4008 9.77794 29.3332C9.77794 29.2656 9.80614 29.1269 10.0107 28.9196C10.219 28.7085 10.5645 28.4777 11.0616 28.2646C11.5312 28.0634 12.0995 27.8937 12.7406 27.7707L12.5424 26.9037C10.3876 27.3229 8.88905 28.253 8.88905 29.3332C8.88905 30.806 11.6748 31.9999 15.1113 31.9999C18.5477 31.9999 21.3335 30.806 21.3335 29.3332C21.3335 28.3405 20.0678 27.4745 18.1903 27.0154L17.9746 27.8777C18.4166 27.9856 18.8155 28.1166 19.1609 28.2646Z" fill="white"/>
<path fill-rule="evenodd" clip-rule="evenodd" d="M19.1665 29.1299L18.2237 27.4969L19.8567 26.5541L19.4123 25.7843L17.0095 27.1715L18.3967 29.5743L19.1665 29.1299Z" fill="white"/>
</svg>
