<svg width="32" height="32" viewBox="0 0 32 32" fill="none" xmlns="http://www.w3.org/2000/svg">
<path fill-rule="evenodd" clip-rule="evenodd" d="M0 14.0819C0 11.27 2.14783 8.88894 4.91852 8.88894H27.0815C29.8522 8.88894 32 11.27 32 14.0819C32 16.8939 29.8522 19.2749 27.0815 19.2749H23.9407V30.2223H22.163V17.4971H27.0815C28.7618 17.4971 30.2222 16.0242 30.2222 14.0819C30.2222 12.1397 28.7618 10.6667 27.0815 10.6667H4.91852C3.2382 10.6667 1.77778 12.1397 1.77778 14.0819C1.77778 16.0242 3.2382 17.4971 4.91852 17.4971H9.83704V30.2223H8.05926V19.2749H4.91852C2.14783 19.2749 0 16.8939 0 14.0819Z" fill="white"/>
<path d="M19.7458 27.5556H17.5272L15.9903 24.9903H14.8578V27.5556H12.8587V19.4667H16.0018C17.1574 19.4667 18.0125 19.694 18.5672 20.1485C19.1218 20.603 19.3992 21.2424 19.3992 22.0667C19.3992 22.6907 19.2644 23.2146 18.9947 23.6383C18.7328 24.0543 18.363 24.3701 17.8854 24.5859L19.7458 27.5556ZM14.8578 21.177V23.2801H15.9441C16.3524 23.2801 16.6721 23.1876 16.9032 23.0027C17.142 22.8101 17.2614 22.5328 17.2614 22.1707C17.2614 21.8395 17.1535 21.593 16.9378 21.4312C16.7221 21.2617 16.3793 21.177 15.9094 21.177H14.8578Z" fill="white"/>
<path d="M21.3333 1.77783H10.6667L16 7.11117L21.3333 1.77783Z" fill="white"/>
</svg>
