<svg width="32" height="32" viewBox="0 0 32 32" fill="none" xmlns="http://www.w3.org/2000/svg">
<path opacity="0.4" fill-rule="evenodd" clip-rule="evenodd" d="M10.8859 8.09063C9.12251 9.57439 8 11.8102 8 14.3112V17.7757H12.4444V14.2119C12.4444 13.3381 12.7593 12.538 13.2815 11.9189L13.2815 7.76819L11.9223 9.12564L10.8859 8.09063ZM8 19.5556V23.0223C8 27.4896 11.5817 31.1112 16 31.1112C20.4183 31.1112 24 27.4896 24 23.0223V19.5556H8ZM24 17.7757V14.3112C24 11.8102 22.8775 9.57439 21.1141 8.09063L20.0777 9.12563L18.7185 7.76819L18.7185 11.9288C19.2358 12.5464 19.5473 13.3427 19.5473 14.2119V17.7757H24ZM16.1886 12.4445L15.8031 12.4445C14.9131 12.5407 14.2202 13.2953 14.2202 14.2119V17.7757H17.7716V14.2119C17.7716 13.2953 17.0787 12.5407 16.1886 12.4445Z" fill="white"/>
<path fill-rule="evenodd" clip-rule="evenodd" d="M12.0001 6.63787L15.1112 3.50435V10.6667L16.889 10.6667V3.50435L20.0001 6.63787L21.3334 5.29493L16.0001 0L10.6667 5.29493L12.0001 6.63787ZM17.7779 17.752V14.1964C17.7779 13.2146 16.9819 12.4186 16.0001 12.4186C15.0182 12.4186 14.2223 13.2146 14.2223 14.1964V17.752H17.7779Z" fill="white"/>
</svg>
