<svg width="64" height="64" viewBox="0 0 64 64" fill="none" xmlns="http://www.w3.org/2000/svg">
<path fill-rule="evenodd" clip-rule="evenodd" d="M41.3352 5C41.3352 4.44772 40.8875 4 40.3352 4H23.6686C23.1163 4 22.6686 4.44771 22.6686 5V21.6657C22.6686 22.218 22.2209 22.6657 21.6686 22.6657H5C4.44772 22.6657 4 23.1134 4 23.6657V40.3324C4 40.8847 4.44771 41.3324 5 41.3324H21.6686C22.2209 41.3324 22.6686 41.7801 22.6686 42.3324V59C22.6686 59.5523 23.1163 60 23.6686 60H40.3352C40.8875 60 41.3352 59.5523 41.3352 59V42.3324C41.3352 41.7801 41.783 41.3324 42.3352 41.3324H59C59.5523 41.3324 60 40.8847 60 40.3324V23.6657C60 23.1134 59.5523 22.6657 59 22.6657H42.3352C41.783 22.6657 41.3352 22.218 41.3352 21.6657V5Z" fill="white"/>
</svg>
