<svg width="32" height="32" viewBox="0 0 32 32" fill="none" xmlns="http://www.w3.org/2000/svg">
<g clip-path="url(#clip0_3727_33543)">
<path fill-rule="evenodd" clip-rule="evenodd" d="M16.0001 -0.00012207L12.25 3.74996H19.7502L16.0001 -0.00012207ZM16.0002 26.3612C21.8989 26.3612 26.6808 21.5793 26.6808 15.6806C26.6808 9.78183 21.8989 4.99996 16.0002 4.99996C10.1015 4.99996 5.31958 9.78183 5.31958 15.6806C5.31958 21.5793 10.1015 26.3612 16.0002 26.3612ZM17.1265 19.3125H19.1665L17.4559 16.5818C17.895 16.3835 18.235 16.0931 18.4759 15.7106C18.7238 15.321 18.8477 14.8393 18.8477 14.2656C18.8477 13.5077 18.5927 12.9198 18.0827 12.5018C17.5727 12.0839 16.7865 11.875 15.724 11.875H12.834V19.3125H14.6721V16.9537H15.554H15.7134L17.1265 19.3125ZM14.6721 15.3812V13.4475H15.639C16.0711 13.4475 16.3863 13.5254 16.5846 13.6812C16.7829 13.83 16.8821 14.0566 16.8821 14.3612C16.8821 14.6941 16.7723 14.9491 16.5527 15.1262C16.3402 15.2962 16.0463 15.3812 15.6709 15.3812H14.6721ZM16.0003 23.7864C20.477 23.7864 24.106 20.1573 24.106 15.6807C24.106 11.204 20.477 7.57497 16.0003 7.57497C11.5236 7.57497 7.89459 11.204 7.89459 15.6807C7.89459 20.1573 11.5236 23.7864 16.0003 23.7864ZM16.0003 24.6178C20.9361 24.6178 24.9374 20.6165 24.9374 15.6807C24.9374 10.7449 20.9361 6.74361 16.0003 6.74361C11.0645 6.74361 7.06323 10.7449 7.06323 15.6807C7.06323 20.6165 11.0645 24.6178 16.0003 24.6178Z" fill="white"/>
</g>
<defs>
<clipPath id="clip0_3727_33543">
<rect width="32" height="32" fill="white"/>
</clipPath>
</defs>
</svg>
