<svg width="32" height="32" viewBox="0 0 32 32" fill="none" xmlns="http://www.w3.org/2000/svg">
<g clip-path="url(#clip0_8152_851)">
<path d="M30 0C31.1046 0 32 0.895431 32 2V30C32 31.1046 31.1046 32 30 32H2C0.895431 32 0 31.1046 0 30V2C0 0.895431 0.895431 0 2 0H30ZM5 10.1924V21.3916H7.14355V14.3516L10.2158 21.0723H11.6396L14.6484 14.2725V21.3916H16.9043V10.1924H14.5195L11.0322 18.1436L7.25586 10.1924H5ZM22.7529 10C22.0277 10 21.345 10.1011 20.7051 10.3037C20.0759 10.5063 19.516 10.7789 19.0254 11.1201L19.8252 12.8477C20.1557 12.6238 20.5395 12.4373 20.9766 12.2881C21.4244 12.1388 21.8833 12.0645 22.3525 12.0645C22.9818 12.0645 23.494 12.2082 23.8887 12.4961C24.294 12.7734 24.4971 13.1895 24.4971 13.7441C24.497 14.0854 24.4168 14.4005 24.2568 14.6885C24.0969 14.9763 23.8836 15.2481 23.6172 15.5039C23.3612 15.7599 22.9876 16.0958 22.4971 16.5117L22.2246 16.752L18.9932 19.4404V21.3916H27.3613V19.3604H21.9688L24.2891 17.4404C25.2169 16.6726 25.9045 15.9789 26.3525 15.3604C26.8005 14.731 27.0254 14.0317 27.0254 13.2637C27.0253 12.2185 26.635 11.4129 25.8564 10.8477C25.0778 10.2826 24.0433 10 22.7529 10Z" fill="white"/>
</g>
<defs>
<clipPath id="clip0_8152_851">
<rect width="32" height="32" fill="white"/>
</clipPath>
</defs>
</svg>
