<svg width="32" height="32" viewBox="0 0 32 32" fill="none" xmlns="http://www.w3.org/2000/svg">
<path fill-rule="evenodd" clip-rule="evenodd" d="M0 12.3041C0 9.49214 2.14783 7.11108 4.91852 7.11108H27.0815C29.8522 7.11108 32 9.49214 32 12.3041C32 15.116 29.8522 17.497 27.0815 17.497H23.9407V28.4444H22.163V15.7193H27.0815C28.7618 15.7193 30.2222 14.2463 30.2222 12.3041C30.2222 10.3618 28.7618 8.88886 27.0815 8.88886H4.91852C3.2382 8.88886 1.77778 10.3618 1.77778 12.3041C1.77778 14.2463 3.2382 15.7193 4.91852 15.7193H9.83704V28.4444H8.05926V17.497H4.91852C2.14783 17.497 0 15.116 0 12.3041Z" fill="white"/>
<path d="M19.7458 25.7778H17.5272L15.9903 23.2124H14.8578V25.7778H12.8587V17.6889H16.0018C17.1574 17.6889 18.0125 17.9161 18.5672 18.3707C19.1218 18.8252 19.3992 19.4646 19.3992 20.2889C19.3992 20.9129 19.2644 21.4367 18.9947 21.8604C18.7328 22.2764 18.363 22.5923 17.8854 22.808L19.7458 25.7778ZM14.8578 19.3991V21.5022H15.9441C16.3524 21.5022 16.6721 21.4098 16.9032 21.2249C17.142 21.0323 17.2614 20.755 17.2614 20.3929C17.2614 20.0616 17.1535 19.8151 16.9378 19.6533C16.7221 19.4838 16.3793 19.3991 15.9094 19.3991H14.8578Z" fill="white"/>
</svg>
