<svg width="32" height="32" viewBox="0 0 32 32" fill="none" xmlns="http://www.w3.org/2000/svg">
<path d="M16 1.5C24.0081 1.5 30.5 7.99187 30.5 16C30.5 24.0081 24.0081 30.5 16 30.5C7.99187 30.5 1.5 24.0081 1.5 16C1.5 7.99187 7.99187 1.5 16 1.5ZM15.6123 9C14.3203 9 13.1735 9.2786 12.1729 9.83594C11.1722 10.3806 10.3933 11.1792 9.83594 12.2305C9.27878 13.2817 9.00003 14.5417 9 16.0107C9 17.4547 9.27272 18.6967 9.81738 19.7354C10.3747 20.7738 11.141 21.5658 12.1162 22.1104C13.0915 22.6422 14.2061 22.9082 15.46 22.9082C16.4606 22.9082 17.3788 22.7493 18.2148 22.4326C19.0635 22.116 19.7541 21.698 20.2861 21.1787L18.918 19.1836C18.4241 19.5635 17.9176 19.8491 17.3984 20.0391C16.8792 20.229 16.309 20.3242 15.6885 20.3242C14.5486 20.3242 13.6361 19.9631 12.9521 19.2412C12.2809 18.5066 11.9454 17.4361 11.9453 16.0303C11.9453 15.0549 12.1101 14.2309 12.4395 13.5596C12.7814 12.8885 13.2368 12.3878 13.8066 12.0586C14.3765 11.7293 15.0164 11.5655 15.7256 11.5654C16.2703 11.5654 16.8029 11.641 17.3223 11.793C17.8415 11.945 18.3096 12.1609 18.7275 12.4395L20.0195 10.2539C19.5256 9.87403 18.8857 9.56974 18.1006 9.3418C17.3155 9.11391 16.486 9.00003 15.6123 9Z" fill="white"/>
</svg>
