<svg width="64" height="64" viewBox="0 0 64 64" fill="none" xmlns="http://www.w3.org/2000/svg">
<path fill-rule="evenodd" clip-rule="evenodd" d="M39 57C52.8071 57 64 45.8071 64 32C64 18.1929 52.8071 7 39 7C25.1929 7 14 18.1929 14 32C14 45.8071 25.1929 57 39 57ZM41.8121 40H46L42.4883 34.1257C43.3898 33.699 44.0878 33.0743 44.5822 32.2514C45.0912 31.4133 45.3456 30.3771 45.3456 29.1429C45.3456 27.5124 44.8221 26.2476 43.7752 25.3486C42.7282 24.4495 41.1141 24 38.9329 24H33V40H36.7735V34.9257H38.5839H38.9111L41.8121 40ZM36.7735 31.5429V27.3829H38.7584C39.6454 27.3829 40.2925 27.5505 40.6997 27.8857C41.1068 28.2057 41.3104 28.6933 41.3104 29.3486C41.3104 30.0648 41.085 30.6133 40.6342 30.9943C40.198 31.36 39.5945 31.5429 38.8238 31.5429H36.7735Z" fill="white"/>
<path d="M10 24L0 32L10 40L10 24Z" fill="white"/>
</svg>
