<svg width="32" height="32" viewBox="0 0 32 32" fill="none" xmlns="http://www.w3.org/2000/svg">
<path fill-rule="evenodd" clip-rule="evenodd" d="M10.6667 0.888916L16 6.22225L21.3333 0.888916H10.6667ZM0 13.0059C0 10.2593 2.18423 8.00003 4.91852 8.00003H27.0815C29.8158 8.00003 32 10.2593 32 13.0059C32 15.7525 29.8158 18.0117 27.0815 18.0117H25.9556V28.4445H24.1778H6.04444V18.0117H4.91852C2.18423 18.0117 0 15.7525 0 13.0059ZM20.8081 16.5759C20.3436 16.2186 19.654 16.0399 18.7393 16.0399C18.2248 16.0399 17.7318 16.1185 17.2601 16.2757C16.7957 16.4258 16.3776 16.6509 16.006 16.951L16.7778 18.1408C16.9993 17.9765 17.253 17.8478 17.5388 17.7549C17.8247 17.6549 18.1141 17.6049 18.4071 17.6049C18.7715 17.6049 19.0538 17.6763 19.2539 17.8193C19.4611 17.9622 19.5647 18.148 19.5647 18.3766C19.5647 18.6196 19.4611 18.809 19.2539 18.9447C19.0538 19.0734 18.7715 19.1377 18.4071 19.1377H17.4852V20.5097H18.5357C19.4075 20.5097 19.8434 20.8027 19.8434 21.3886C19.8434 21.6888 19.7255 21.9246 19.4897 22.0961C19.261 22.2605 18.9394 22.3426 18.525 22.3426C17.7675 22.3426 17.1315 22.1175 16.617 21.6673L15.856 23.0394C16.1918 23.3181 16.6099 23.5324 17.1101 23.6825C17.6103 23.8326 18.1391 23.9076 18.6965 23.9076C19.2681 23.9076 19.7898 23.8111 20.2614 23.6182C20.7402 23.4181 21.1189 23.1394 21.3976 22.7821C21.6763 22.4177 21.8157 21.9961 21.8157 21.5173C21.8157 20.9956 21.6728 20.5812 21.3869 20.2739C21.1082 19.9666 20.7295 19.7629 20.2507 19.6629V19.62C20.658 19.4485 20.9689 19.2199 21.1833 18.934C21.3976 18.6482 21.5048 18.323 21.5048 17.9586C21.5048 17.3941 21.2726 16.9332 20.8081 16.5759ZM10.1843 23.7254H15.4366V22.0532H12.0387V16.2221H10.1843V23.7254Z" fill="white"/>
</svg>
