<svg width="32" height="32" viewBox="0 0 32 32" fill="none" xmlns="http://www.w3.org/2000/svg">
<g clip-path="url(#clip0_1967_18359)">
<path fill-rule="evenodd" clip-rule="evenodd" d="M31 10.6667C31.5523 10.6667 32 11.1144 32 11.6667V20.3333C32 20.8856 31.5523 21.3333 31 21.3333H21.3333V31C21.3333 31.5523 20.8856 32 20.3333 32H11.6667C11.1144 32 10.6667 31.5523 10.6667 31L10.6667 21.3333L1 21.3333C0.447716 21.3333 0 20.8856 0 20.3333V11.6667C0 11.1144 0.447716 10.6667 1 10.6667H10.6667V1C10.6667 0.447715 11.1144 0 11.6667 0L20.3333 0C20.8856 0 21.3333 0.447715 21.3333 1V10.6667H31ZM26.6667 12.4444L30.2222 16L26.6667 19.5556V12.4444Z" fill="white"/>
</g>
<defs>
<clipPath id="clip0_1967_18359">
<rect width="32" height="32" fill="white"/>
</clipPath>
</defs>
</svg>
