<svg width="64" height="64" viewBox="0 0 64 64" fill="none" xmlns="http://www.w3.org/2000/svg">
<path fill-rule="evenodd" clip-rule="evenodd" d="M41.8473 9.84615C41.8473 15.284 37.439 19.6923 32.0011 19.6923L32.001 19.6923C30.6416 19.6923 29.3465 19.4168 28.1686 18.9185C24.8394 17.5104 22.4458 14.3234 22.1796 10.549L22.1797 10.549C22.1633 10.3168 22.155 10.0825 22.155 9.84615C22.155 4.40827 26.5632 0 32.0011 0C37.439 0 41.8473 4.40827 41.8473 9.84615ZM19.3523 11.82C10.4877 16.4221 4.43188 25.6856 4.43188 36.3636C4.43188 51.6268 16.8051 64 32.0682 64C47.3314 64 59.7046 51.6268 59.7046 36.3636C59.7046 25.6357 53.592 16.3354 44.6596 11.7557C43.7376 17.9192 38.4214 22.6461 32.001 22.6461C25.6031 22.6461 20.3015 17.9521 19.3523 11.82ZM27 45.5556H37.8889V42.0889H30.8444V30H27V45.5556Z" fill="white"/>
</svg>
