<svg width="32" height="32" viewBox="0 0 32 32" fill="none" xmlns="http://www.w3.org/2000/svg">
<path opacity="0.4" fill-rule="evenodd" clip-rule="evenodd" d="M10.7727 8.18763C9.07463 9.67091 8 11.8641 8 14.3111V17.7757H12.4444V14.2119C12.4444 13.0135 13.0366 11.9536 13.944 11.3094L10.7727 8.18763ZM8 19.5556V23.0223C8 27.4896 11.5817 31.1111 16 31.1111C20.4183 31.1111 24 27.4896 24 23.0223V19.5556H8ZM24 17.7757V14.3111C24 11.8641 22.9254 9.67091 21.2273 8.18762L18.0525 11.3128C18.9572 11.9573 19.5473 13.0156 19.5473 14.2119V17.7757H24ZM14.2202 14.2119C14.2202 13.4959 14.6429 12.8788 15.2521 12.5971L16 13.3333L16.7452 12.5997C17.3514 12.8826 17.7716 13.4981 17.7716 14.2119V17.7757H14.2202V14.2119Z" fill="white"/>
<path fill-rule="evenodd" clip-rule="evenodd" d="M12.0001 4.0288L15.1112 7.16231V0H16.889V7.16231L20.0001 4.0288L21.3334 5.37174L16.0001 10.6667L10.6667 5.37174L12.0001 4.0288ZM17.7779 17.752V14.1964C17.7779 13.2146 16.9819 12.4186 16.0001 12.4186C15.0182 12.4186 14.2223 13.2146 14.2223 14.1964V17.752H17.7779Z" fill="white"/>
</svg>
