<svg width="64" height="64" viewBox="0 0 64 64" fill="none" xmlns="http://www.w3.org/2000/svg">
<g clip-path="url(#clip0_1967:18415)">
<path opacity="0.5" fill-rule="evenodd" clip-rule="evenodd" d="M23.8004 14.729C18.5631 17.5326 15 23.06 15 29.4204V37.1047H25.2361V29.4202C25.2361 26.3222 27.434 23.738 30.3542 23.1447V21.8692L23.8004 14.729ZM32.9132 21.869V23.1447C35.8334 23.738 38.0313 26.3222 38.0313 29.4202V37.1047H48.2674V29.4204C48.2674 23.06 44.7042 17.5326 39.4669 14.729L32.9132 21.869ZM26.2853 13.6503C27.5776 13.2113 28.9412 12.927 30.3542 12.8195V18.0832L26.2853 13.6503ZM36.9819 13.6502L32.9132 18.083V12.8195C34.3261 12.927 35.6897 13.2113 36.9819 13.6502ZM35.4723 37.1047V29.4202C35.4723 27.2982 33.7537 25.578 31.6337 25.578C29.5137 25.578 27.7952 27.2982 27.7952 29.4202V37.1047H35.4723ZM15 47.3506V39.6662H48.2674V47.3506C48.2674 56.5459 40.8202 64.0001 31.6337 64.0001C22.4472 64.0001 15 56.5459 15 47.3506Z" fill="white"/>
<path d="M35.4723 29.4289V37.106H27.7952V29.4289C27.7952 27.3089 29.5137 25.5903 31.6337 25.5903C33.7537 25.5903 35.4723 27.3089 35.4723 29.4289Z" fill="white"/>
<path d="M33.7017 10.8461L38.4412 5.68749L41.3693 8.8745L31.6339 19.4709L21.8984 8.8745L24.8265 5.68749L29.566 10.8461V0H33.7017V10.8461Z" fill="white"/>
</g>
<defs>
<clipPath id="clip0_1967:18415">
<rect width="64" height="64" fill="white"/>
</clipPath>
</defs>
</svg>
