<svg width="32" height="32" viewBox="0 0 32 32" fill="none" xmlns="http://www.w3.org/2000/svg">
<path d="M32 1.96484V18.2451C32 18.2451 25.3365 24.5588 23.9189 25.9648C21.3824 28.4808 17.8901 30.0351 14.0352 30.0352C6.28381 30.0352 3.4532e-05 23.7513 0 16C0 8.24863 6.28378 1.96484 14.0352 1.96484H32ZM9 12V20.4004H10.7637V17.5918H11.9404C12.6282 17.5917 13.2162 17.4602 13.7041 17.1963C14.1921 16.9323 14.5596 16.5796 14.8076 16.1396C15.0555 15.6918 15.1796 15.1962 15.1797 14.6523C15.1797 13.8363 14.8998 13.1917 14.3398 12.7197C13.7879 12.2399 12.9881 12.0001 11.9404 12H9ZM16.3242 12V20.4004H18.0879V17.5684H19.54L21.2324 20.4004H23.1885L21.208 17.2197C21.72 16.9957 22.1165 16.6683 22.3965 16.2363C22.6845 15.8044 22.8281 15.2641 22.8281 14.6162C22.8281 13.7924 22.5564 13.1523 22.0127 12.6963C21.4687 12.2323 20.6198 12 19.4678 12H16.3242ZM11.8799 13.5C12.3357 13.5 12.6838 13.6037 12.9238 13.8115C13.1718 14.0115 13.2959 14.3203 13.2959 14.7363C13.2958 15.1602 13.1718 15.4925 12.9238 15.7324C12.6838 15.9722 12.3394 16.0918 11.8916 16.0918H10.7637V13.5H11.8799ZM19.3604 13.5C19.9123 13.5 20.3126 13.6036 20.5605 13.8115C20.8165 14.0115 20.9443 14.3158 20.9443 14.7236C20.9443 15.1396 20.8119 15.468 20.5479 15.708C20.2919 15.9399 19.9316 16.0557 19.4678 16.0557H18.0879V13.5H19.3604Z" fill="white"/>
</svg>
