<svg width="32" height="32" viewBox="0 0 32 32" fill="none" xmlns="http://www.w3.org/2000/svg">
<g clip-path="url(#clip0_8402_740)">
<path d="M30 0C31.1046 0 32 0.895431 32 2V30C32 31.1046 31.1046 32 30 32H2C0.895431 32 0 31.1046 0 30V2C0 0.895431 0.895431 0 2 0H30ZM5 10V21.2002H7.35156V17.4238H9.28809L11.5439 21.2002H14.1523L11.5117 16.96C12.1942 16.6614 12.7224 16.2242 13.0957 15.6484C13.4797 15.0725 13.6718 14.3522 13.6719 13.4883C13.6719 12.3896 13.3093 11.5357 12.584 10.9277C11.8587 10.3092 10.7281 10.0001 9.19238 10H5ZM15.6562 10V21.2002H17.7998V14.1602L20.8721 20.8799H22.2959L25.3047 14.0801V21.2002H27.5605V10H25.1758L21.6885 17.9521L17.9121 10H15.6562ZM9.04785 12C9.78385 12 10.3178 12.1387 10.6484 12.416C10.9896 12.6827 11.1601 13.0881 11.1602 13.6318C11.1602 14.1865 10.9838 14.6243 10.6318 14.9443C10.2906 15.2535 9.81071 15.4081 9.19238 15.4082H7.35156V12H9.04785Z" fill="white"/>
</g>
<defs>
<clipPath id="clip0_8402_740">
<rect width="32" height="32" fill="white"/>
</clipPath>
</defs>
</svg>
