<svg width="32" height="32" viewBox="0 0 32 32" fill="none" xmlns="http://www.w3.org/2000/svg">
<g clip-path="url(#clip0_1967_18343)">
<path fill-rule="evenodd" clip-rule="evenodd" d="M21.3333 31C21.3333 31.5523 20.8856 32 20.3333 32L11.6667 32C11.1144 32 10.6667 31.5523 10.6667 31V21.3333L1 21.3333C0.447716 21.3333 0 20.8856 0 20.3333L0 11.6667C0 11.1144 0.447716 10.6667 1 10.6667H10.6667V1C10.6667 0.447716 11.1144 0 11.6667 0H20.3333C20.8856 0 21.3333 0.447716 21.3333 1L21.3333 10.6667H31C31.5523 10.6667 32 11.1144 32 11.6667V20.3333C32 20.8856 31.5523 21.3333 31 21.3333H21.3333V31ZM19.5556 26.6667L16 30.2222L12.4444 26.6667L19.5556 26.6667Z" fill="white"/>
</g>
<defs>
<clipPath id="clip0_1967_18343">
<rect width="32" height="32" fill="white"/>
</clipPath>
</defs>
</svg>
