<svg width="64" height="64" viewBox="0 0 64 64" fill="none" xmlns="http://www.w3.org/2000/svg">
<circle cx="32" cy="32" r="26.5" stroke="white" stroke-width="3"/>
<path d="M38.7985 30.6129C42.2662 31.6671 44 33.8786 44 37.2471C44 39.69 43.1072 41.5929 41.3216 42.9557C39.536 44.3186 37.1423 45 34.1405 45H23V18H33.0536C36.2366 18 38.5915 18.5914 40.1183 19.7743C41.6451 20.9571 42.4085 22.6286 42.4085 24.7886C42.4085 25.9971 42.1238 27.1029 41.5545 28.1057C40.9852 29.1086 40.0665 29.9443 38.7985 30.6129ZM28.7837 22.7057V29.3014H32.7043C33.9982 29.3014 34.9945 29.0057 35.6932 28.4143C36.3919 27.7971 36.7412 26.9357 36.7412 25.83C36.7412 23.7471 35.3567 22.7057 32.5878 22.7057H28.7837ZM33.5582 40.3329C35.0074 40.3329 36.0943 40.0114 36.8189 39.3686C37.5693 38.7257 37.9445 37.8771 37.9445 36.8229C37.9445 35.6914 37.5823 34.8429 36.8577 34.2771C36.1331 33.6857 35.085 33.39 33.7135 33.39H28.7837V40.3329H33.5582Z" fill="white"/>
</svg>
