<svg width="64" height="64" viewBox="0 0 64 64" fill="none" xmlns="http://www.w3.org/2000/svg">
<path fill-rule="evenodd" clip-rule="evenodd" d="M32 61C48.0163 61 61 48.0163 61 32C61 15.9837 48.0163 3 32 3C15.9837 3 3 15.9837 3 32C3 48.0163 15.9837 61 32 61ZM35.1678 41H40L35.948 34.3914C36.9883 33.9114 37.7936 33.2086 38.3641 32.2829C38.9513 31.34 39.245 30.1743 39.245 28.7857C39.245 26.9514 38.6409 25.5286 37.4329 24.5171C36.2248 23.5057 34.3624 23 31.8456 23H25V41H29.354V35.2914H31.443H31.8205L35.1678 41ZM29.354 31.4857V26.8057H31.6443C32.6678 26.8057 33.4144 26.9943 33.8842 27.3714C34.354 27.7314 34.5889 28.28 34.5889 29.0171C34.5889 29.8229 34.3289 30.44 33.8087 30.8686C33.3054 31.28 32.6091 31.4857 31.7198 31.4857H29.354Z" fill="white"/>
</svg>
