<svg width="32" height="32" viewBox="0 0 32 32" fill="none" xmlns="http://www.w3.org/2000/svg">
<path d="M20.4446 4.44444C20.4446 6.89904 18.4547 8.88889 16.0001 8.88889C13.5455 8.88889 11.5557 6.89904 11.5557 4.44444C11.5557 1.98985 13.5455 0 16.0001 0C18.4547 0 20.4446 1.98985 20.4446 4.44444Z" fill="white"/>
<path fill-rule="evenodd" clip-rule="evenodd" d="M10.544 8.3678C6.40596 10.3897 3.55566 14.6397 3.55566 19.5555C3.55566 26.4284 9.12723 32 16.0001 32C22.873 32 28.4446 26.4284 28.4446 19.5555C28.4446 14.6397 25.5943 10.3897 21.4562 8.3678C20.398 10.5328 18.3514 12 16.0001 12C13.6488 12 11.6022 10.5328 10.544 8.3678ZM20.0341 24H17.6447L15.9896 21.2373H15.8029H14.7701V24H12.6172V15.2889H16.002C17.2465 15.2889 18.1674 15.5336 18.7647 16.0231C19.362 16.5126 19.6607 17.2012 19.6607 18.0889C19.6607 18.7609 19.5155 19.325 19.2252 19.7813C18.9431 20.2293 18.5449 20.5695 18.0305 20.8018L20.0341 24ZM14.7701 17.1307V19.3956H15.9398C16.3795 19.3956 16.7238 19.296 16.9727 19.0969C17.2299 18.8895 17.3585 18.5908 17.3585 18.2009C17.3585 17.8441 17.2423 17.5787 17.0101 17.4044C16.7778 17.2219 16.4086 17.1307 15.9025 17.1307H14.7701Z" fill="white"/>
</svg>
