<svg width="32" height="32" viewBox="0 0 32 32" fill="none" xmlns="http://www.w3.org/2000/svg">
<path fill-rule="evenodd" clip-rule="evenodd" d="M0 13.0058C0 10.2593 2.18423 8 4.91852 8H27.0815C29.8158 8 32 10.2593 32 13.0058C32 15.7524 29.8158 18.0117 27.0815 18.0117H25.9556V28.4444H24.1778H6.04444V18.0117H4.91852C2.18423 18.0117 0 15.7524 0 13.0058ZM17.3791 23.4861H19.877L17.7824 20.1425C18.3201 19.8997 18.7364 19.5441 19.0313 19.0757C19.3349 18.5987 19.4867 18.0089 19.4867 17.3064C19.4867 16.3783 19.1744 15.6585 18.5499 15.1467C17.9255 14.635 16.9627 14.3792 15.6617 14.3792H12.123V23.4861H14.3738V20.5979H15.6487L17.3791 23.4861ZM14.3738 18.6724V16.3046H15.5577C16.0867 16.3046 16.4727 16.4 16.7155 16.5908C16.9584 16.773 17.0798 17.0505 17.0798 17.4235C17.0798 17.8311 16.9454 18.1434 16.6765 18.3602C16.4163 18.5683 16.0564 18.6724 15.5967 18.6724H14.3738Z" fill="white"/>
</svg>
