<svg width="32" height="32" viewBox="0 0 32 32" fill="none" xmlns="http://www.w3.org/2000/svg">
<path fill-rule="evenodd" clip-rule="evenodd" d="M16 23.5557C20.1728 23.5557 23.5555 20.1729 23.5555 16.0001C23.5555 11.8273 20.1728 8.44454 16 8.44454C11.8272 8.44454 8.44442 11.8273 8.44442 16.0001C8.44442 20.1729 11.8272 23.5557 16 23.5557ZM16 24.889C20.9092 24.889 24.8889 20.9093 24.8889 16.0001C24.8889 11.0909 20.9092 7.11121 16 7.11121C11.0908 7.11121 7.11108 11.0909 7.11108 16.0001C7.11108 20.9093 11.0908 24.889 16 24.889Z" fill="white"/>
<path fill-rule="evenodd" clip-rule="evenodd" d="M2.55359 16.7902C2.12515 16.7902 1.77783 16.4364 1.77783 16C1.77783 15.5637 2.12515 15.2099 2.55359 15.2099H4.1051C4.53354 15.2099 4.88086 15.5637 4.88086 16C4.88086 16.4364 4.53354 16.7902 4.1051 16.7902H2.55359ZM27.895 16.7902C27.4666 16.7902 27.1192 16.4364 27.1192 16C27.1192 15.5637 27.4666 15.2099 27.895 15.2099H29.4465C29.875 15.2099 30.2223 15.5637 30.2223 16C30.2223 16.4364 29.875 16.7902 29.4465 16.7902H27.895Z" fill="white"/>
<path fill-rule="evenodd" clip-rule="evenodd" d="M16.7903 29.4465C16.7903 29.875 16.4365 30.2223 16.0002 30.2223C15.5638 30.2223 15.21 29.875 15.21 29.4465V27.895C15.21 27.4666 15.5638 27.1193 16.0002 27.1193C16.4365 27.1193 16.7903 27.4666 16.7903 27.895V29.4465ZM16.7903 4.10512C16.7903 4.53356 16.4365 4.88088 16.0002 4.88088C15.5638 4.88088 15.21 4.53356 15.21 4.10512V2.5536C15.21 2.12517 15.5638 1.77785 16.0002 1.77785C16.4365 1.77785 16.7903 2.12517 16.7903 2.5536V4.10512Z" fill="white"/>
<path fill-rule="evenodd" clip-rule="evenodd" d="M16.0001 17.3582C14.5254 17.3582 13.219 17.168 12.3051 16.8786C11.8445 16.7327 11.5215 16.5735 11.3277 16.4284C11.2125 16.3422 11.1727 16.2851 11.1597 16.2602C11.1727 16.2354 11.2125 16.1783 11.3277 16.0921C11.5215 15.947 11.8445 15.7878 12.3051 15.6419C12.3141 15.6391 12.3232 15.6362 12.3324 15.6334C12.3596 15.1521 12.4057 14.6835 12.4694 14.234C12.2591 14.285 12.0587 14.3406 11.8695 14.4005C11.3287 14.5718 10.8414 14.7901 10.4751 15.0643C10.1166 15.3327 9.77783 15.7319 9.77783 16.2602C9.77783 16.7886 10.1166 17.1878 10.4751 17.4562C10.8414 17.7304 11.3287 17.9487 11.8695 18.12C12.9583 18.4647 14.4186 18.6667 16.0001 18.6667C17.5815 18.6667 19.0418 18.4647 20.1306 18.12C20.6714 17.9487 21.1587 17.7304 21.525 17.4562C21.8835 17.1878 22.2223 16.7886 22.2223 16.2602C22.2223 15.7319 21.8835 15.3327 21.525 15.0643C21.1587 14.7901 20.6714 14.5718 20.1306 14.4005C19.9268 14.336 19.7099 14.2765 19.4817 14.2223C19.5457 14.6707 19.592 15.1383 19.6196 15.6186C19.645 15.6263 19.6702 15.6341 19.695 15.6419C20.1556 15.7878 20.4786 15.947 20.6724 16.0921C20.7876 16.1783 20.8274 16.2354 20.8404 16.2602C20.8274 16.2851 20.7876 16.3422 20.6724 16.4284C20.4786 16.5735 20.1556 16.7327 19.695 16.8786C18.7811 17.168 17.4747 17.3582 16.0001 17.3582ZM11.1538 16.2461C11.1539 16.2461 11.1541 16.2468 11.1544 16.2483C11.1539 16.2468 11.1538 16.2461 11.1538 16.2461ZM11.1544 16.2722C11.1541 16.2737 11.1539 16.2744 11.1538 16.2744C11.1538 16.2744 11.1539 16.2736 11.1544 16.2722ZM20.8461 16.274C20.8462 16.2742 20.8462 16.2744 20.8463 16.2744C20.8463 16.2744 20.8463 16.2741 20.8461 16.2736C20.846 16.2732 20.8459 16.2728 20.8457 16.2722C20.8459 16.273 20.846 16.2736 20.8461 16.274ZM20.8457 16.2483C20.846 16.2468 20.8462 16.2461 20.8463 16.2461C20.8463 16.2461 20.8462 16.2468 20.8457 16.2483Z" fill="white"/>
<path fill-rule="evenodd" clip-rule="evenodd" d="M15.2202 19.4028C15.2506 19.5042 15.2822 19.6016 15.315 19.695C15.4766 20.1556 15.653 20.4787 15.8138 20.6724C15.9093 20.7876 15.9726 20.8274 16.0001 20.8404C16.0276 20.8274 16.0909 20.7876 16.1865 20.6724C16.3472 20.4787 16.5237 20.1556 16.6853 19.695C16.7168 19.6053 16.7472 19.5118 16.7765 19.4147C17.2926 19.4046 17.7998 19.3808 18.2936 19.3438C18.2245 19.6229 18.1467 19.8861 18.0609 20.1306C17.8712 20.6714 17.6292 21.1587 17.3254 21.525C17.0279 21.8835 16.5856 22.2223 16.0001 22.2223C15.4147 22.2223 14.9723 21.8835 14.6749 21.525C14.371 21.1587 14.1291 20.6714 13.9394 20.1306C13.8498 19.8754 13.7689 19.5997 13.6976 19.3068C14.1914 19.3524 14.7005 19.3847 15.2202 19.4028ZM14.7838 16.0963C14.7836 16.0643 14.7835 16.0322 14.7835 16.0001C14.7835 14.5255 14.9943 13.219 15.315 12.3051C15.4766 11.8445 15.653 11.5215 15.8138 11.3277C15.9093 11.2126 15.9726 11.1727 16.0001 11.1597C16.0276 11.1727 16.0909 11.2126 16.1865 11.3277C16.3472 11.5215 16.5237 11.8445 16.6853 12.3051C17.006 13.219 17.2168 14.5255 17.2168 16.0001C17.2168 16.0396 17.2166 16.0791 17.2163 16.1184C17.7258 16.0973 18.2113 16.0604 18.6668 16.0106C18.6668 16.0071 18.6668 16.0036 18.6668 16.0001C18.6668 14.4186 18.443 12.9583 18.0609 11.8695C17.8712 11.3287 17.6292 10.8414 17.3254 10.4751C17.0279 10.1166 16.5856 9.77785 16.0001 9.77785C15.4147 9.77785 14.9723 10.1166 14.6749 10.4751C14.371 10.8414 14.1291 11.3287 13.9394 11.8695C13.5607 12.9487 13.3374 14.3928 13.3335 15.9582C13.7849 16.0182 14.2705 16.0653 14.7838 16.0963ZM15.9869 20.8457C15.9853 20.846 15.9845 20.8462 15.9845 20.8463C15.9845 20.8463 15.9846 20.8463 15.9849 20.8462C15.9853 20.8462 15.986 20.846 15.9869 20.8457ZM16.0134 20.8457C16.015 20.846 16.0158 20.8462 16.0158 20.8463C16.0158 20.8463 16.015 20.8462 16.0134 20.8457ZM16.0152 11.154C16.0156 11.1539 16.0158 11.1539 16.0158 11.1539C16.0158 11.1538 16.015 11.1539 16.0134 11.1544C16.0142 11.1543 16.0148 11.1541 16.0152 11.154ZM15.9869 11.1544C15.9853 11.1541 15.9845 11.1539 15.9845 11.1539C15.9845 11.1538 15.9853 11.1539 15.9869 11.1544Z" fill="white"/>
</svg>
