<svg width="32" height="32" viewBox="0 0 32 32" fill="none" xmlns="http://www.w3.org/2000/svg">
<path d="M20.4446 4.44444C20.4446 6.89904 18.4547 8.88889 16.0001 8.88889C13.5455 8.88889 11.5557 6.89904 11.5557 4.44444C11.5557 1.98985 13.5455 0 16.0001 0C18.4547 0 20.4446 1.98985 20.4446 4.44444Z" fill="white"/>
<path d="M14.7701 17.1307V19.3956H15.9398C16.3795 19.3956 16.7238 19.296 16.9727 19.0969C17.2299 18.8895 17.3585 18.5908 17.3585 18.2009C17.3585 17.8442 17.2423 17.5787 17.0101 17.4045C16.7778 17.2219 16.4086 17.1307 15.9025 17.1307H14.7701Z" fill="white"/>
<path fill-rule="evenodd" clip-rule="evenodd" d="M11.0044 8.15444C6.61885 10.0788 3.55566 14.4595 3.55566 19.5556C3.55566 26.4284 9.12723 32 16.0001 32C22.873 32 28.4446 26.4284 28.4446 19.5556C28.4446 14.4595 25.3814 10.0788 20.9958 8.15444C19.8617 9.67902 18.0463 10.6667 16.0001 10.6667C13.954 10.6667 12.1385 9.67902 11.0044 8.15444ZM20.0341 24H17.6447L15.9896 21.2373H14.7701V24H12.6172V15.2889H16.002C17.2465 15.2889 18.1674 15.5336 18.7647 16.0231C19.362 16.5126 19.6607 17.2012 19.6607 18.0889C19.6607 18.7609 19.5155 19.325 19.2252 19.7813C18.9431 20.2293 18.5449 20.5695 18.0305 20.8018L20.0341 24Z" fill="white"/>
</svg>
