<svg width="32" height="32" viewBox="0 0 32 32" fill="none" xmlns="http://www.w3.org/2000/svg">
<g clip-path="url(#clip0_1967_18367)">
<path opacity="0.4" fill-rule="evenodd" clip-rule="evenodd" d="M11.111 10.6127C11.111 8.36923 12.6146 6.47782 14.6666 5.89597V0C9.40484 0.64134 5.33325 5.02868 5.33325 10.3456V15.0683H11.111V10.6127ZM5.33325 17.7417V21.5738C5.33325 27.332 10.1089 32 15.9999 32C21.891 32 26.6666 27.332 26.6666 21.5738L26.6666 17.7417H5.33325ZM26.6666 15.0683L26.6666 10.3456C26.6666 5.02868 22.595 0.641341 17.3333 3.383e-07V5.89597C19.3853 6.47782 20.8888 8.36923 20.8888 10.6127V15.0683H26.6666ZM18.2221 10.6127V15.0683H13.7777V10.6127C13.7777 9.3823 14.7726 8.38487 15.9999 8.38487C17.2272 8.38487 18.2221 9.3823 18.2221 10.6127Z" fill="white"/>
<path d="M11.111 10.6429C11.111 8.39307 12.6146 6.49632 14.6666 5.91283V0C9.40484 0.643152 5.33325 5.04289 5.33325 10.3748V15.1111H11.111V10.6429Z" fill="white"/>
</g>
<defs>
<clipPath id="clip0_1967_18367">
<rect width="32" height="32" fill="white"/>
</clipPath>
</defs>
</svg>
