<svg width="32" height="32" viewBox="0 0 32 32" fill="none" xmlns="http://www.w3.org/2000/svg">
<path d="M17.9648 1.96484C25.7162 1.96484 32 8.24863 32 16C32 23.7513 25.7162 30.0352 17.9648 30.0352C14.1099 30.0351 10.6176 28.4808 8.08105 25.9648C6.66347 24.5588 0 18.2451 0 18.2451V1.96484H17.9648ZM10 12V20.4004H11.7637V17.5918H12.9404C13.6282 17.5917 14.2162 17.4602 14.7041 17.1963C15.1921 16.9323 15.5596 16.5796 15.8076 16.1396C16.0555 15.6918 16.1796 15.1962 16.1797 14.6523C16.1797 13.8363 15.8998 13.1917 15.3398 12.7197C14.7879 12.2399 13.9881 12.0001 12.9404 12H10ZM17.3242 12V20.4004H22.9639V18.8164H19.0879V12H17.3242ZM12.8799 13.5C13.3357 13.5 13.6838 13.6037 13.9238 13.8115C14.1718 14.0115 14.2959 14.3203 14.2959 14.7363C14.2958 15.1602 14.1718 15.4925 13.9238 15.7324C13.6838 15.9722 13.3394 16.0918 12.8916 16.0918H11.7637V13.5H12.8799Z" fill="white"/>
</svg>
