<svg width="32" height="32" viewBox="0 0 32 32" fill="none" xmlns="http://www.w3.org/2000/svg">
<path fill-rule="evenodd" clip-rule="evenodd" d="M0 13.0059C0 10.2593 2.18423 8.00003 4.91852 8.00003H27.0815C29.8158 8.00003 32 10.2593 32 13.0059C32 15.7525 29.8158 18.0117 27.0815 18.0117H25.9556V28.4445H24.1778V16.2339H27.0815C28.7982 16.2339 30.2222 14.8068 30.2222 13.0059C30.2222 11.205 28.7982 9.7778 27.0815 9.7778H4.91852C3.20181 9.7778 1.77778 11.205 1.77778 13.0059C1.77778 14.8068 3.20181 16.2339 4.91852 16.2339H7.82222V28.4445H6.04444V18.0117H4.91852C2.18423 18.0117 0 15.7525 0 13.0059Z" fill="white"/>
<path d="M16.0741 24.889H14.1968L12.8963 22.7183H11.9381V24.889H10.2465V18.0445H12.9061C13.8839 18.0445 14.6074 18.2368 15.0768 18.6214C15.5461 19.006 15.7807 19.547 15.7807 20.2445C15.7807 20.7725 15.6667 21.2158 15.4385 21.5743C15.2169 21.9263 14.904 22.1935 14.4999 22.3761L16.0741 24.889ZM11.9381 19.4916V21.2712H12.8572C13.2027 21.2712 13.4732 21.1929 13.6688 21.0365C13.8708 20.8735 13.9719 20.6389 13.9719 20.3325C13.9719 20.0522 13.8806 19.8436 13.6981 19.7067C13.5156 19.5633 13.2255 19.4916 12.8279 19.4916H11.9381Z" fill="white"/>
<path d="M19.1901 17.8783C20.0245 17.8783 20.6535 18.0412 21.0773 18.3672C21.501 18.6931 21.7128 19.1135 21.7128 19.6285C21.7128 19.9609 21.615 20.2575 21.4195 20.5183C21.2239 20.779 20.9404 20.9876 20.5688 21.1441V21.1832C21.0055 21.2744 21.351 21.4602 21.6053 21.7405C21.866 22.0208 21.9964 22.3989 21.9964 22.8747C21.9964 23.3115 21.8693 23.6961 21.615 24.0285C21.3608 24.3544 21.0153 24.6087 20.5786 24.7912C20.1484 24.9672 19.6725 25.0552 19.151 25.0552C18.6426 25.0552 18.1602 24.9867 17.7039 24.8498C17.2476 24.7129 16.8663 24.5174 16.5599 24.2632L17.2541 23.0116C17.7235 23.4223 18.3036 23.6276 18.9946 23.6276C19.3727 23.6276 19.666 23.5527 19.8746 23.4027C20.0897 23.2463 20.1973 23.0312 20.1973 22.7574C20.1973 22.2229 19.7996 21.9556 19.0044 21.9556H18.0461V20.7041H18.887C19.2195 20.7041 19.477 20.6454 19.6595 20.5281C19.8485 20.4042 19.943 20.2315 19.943 20.0098C19.943 19.8012 19.8485 19.6318 19.6595 19.5014C19.477 19.371 19.2195 19.3058 18.887 19.3058C18.6198 19.3058 18.3558 19.3515 18.095 19.4427C17.8343 19.5275 17.6029 19.6448 17.4008 19.7947L16.6968 18.7094C17.0358 18.4356 17.4171 18.2303 17.8408 18.0934C18.271 17.95 18.7208 17.8783 19.1901 17.8783Z" fill="white"/>
<path d="M21.3333 0.888916H10.6667L16 6.22225L21.3333 0.888916Z" fill="white"/>
</svg>
