<svg width="32" height="32" viewBox="0 0 32 32" fill="none" xmlns="http://www.w3.org/2000/svg">
<path fill-rule="evenodd" clip-rule="evenodd" d="M12.4444 28.4444C19.3173 28.4444 24.8889 22.8729 24.8889 16C24.8889 9.12711 19.3173 3.55554 12.4444 3.55554C5.57157 3.55554 0 9.12711 0 16C0 22.8729 5.57157 28.4444 12.4444 28.4444ZM14.0891 20.4445H16.4784L14.4748 17.2462C14.9892 17.0139 15.3874 16.6738 15.6695 16.2258C15.9599 15.7695 16.1051 15.2053 16.1051 14.5333C16.1051 13.6456 15.8064 12.957 15.2091 12.4676C14.6117 11.9781 13.6908 11.7333 12.4464 11.7333H9.0615V20.4445H11.2144V17.6818H12.2473H12.4339L14.0891 20.4445ZM11.2144 15.84V13.5751H12.3468C12.8529 13.5751 13.2221 13.6664 13.4544 13.8489C13.6867 14.0231 13.8028 14.2886 13.8028 14.6453C13.8028 15.0353 13.6742 15.3339 13.4171 15.5413C13.1682 15.7404 12.8239 15.84 12.3842 15.84H11.2144Z" fill="white"/>
<path d="M26.6667 10.6667V21.3334L32.0001 16L26.6667 10.6667Z" fill="white"/>
</svg>
