<svg width="64" height="64" viewBox="0 0 64 64" fill="none" xmlns="http://www.w3.org/2000/svg">
<path opacity="0.5" fill-rule="evenodd" clip-rule="evenodd" d="M33.2 4.00012C42.5974 4.71568 50 12.5747 50 22.1643V30.5721H38.8V22.1641C38.8 18.7743 36.3951 15.9468 33.2 15.2976V4.00012ZM30.4 4.00012V15.2976C27.2049 15.9468 24.8 18.7743 24.8 22.1641V30.5721H13.6V22.1643C13.6 12.5747 21.0026 4.71567 30.4 4.00012ZM27.6 22.1641V30.5721H36V22.1641C36 19.8423 34.1196 17.9601 31.8 17.9601C29.4804 17.9601 27.6 19.8423 27.6 22.1641ZM50 33.3748V41.7829C50 51.844 41.8516 60.0001 31.8 60.0001C21.7484 60.0001 13.6 51.844 13.6 41.7829V33.3748H50Z" fill="white"/>
<path d="M33.2 4C42.5974 4.71555 50 12.5746 50 22.1642V30.6252H38.8V22.1642C38.7727 19.2559 36.8367 16.2014 33.2 15.3475V4Z" fill="white"/>
</svg>
