<svg width="32" height="32" viewBox="0 0 32 32" fill="none" xmlns="http://www.w3.org/2000/svg">
<g clip-path="url(#clip0_8152_836)">
<path d="M30 0C31.1046 0 32 0.895431 32 2V30C32 31.1046 31.1046 32 30 32H2C0.895431 32 0 31.1046 0 30V2C0 0.895431 0.895431 0 2 0H30ZM19.665 10V15.7764L21.1533 16.5918C21.4839 16.3253 21.8199 16.128 22.1611 16C22.5024 15.8614 22.876 15.792 23.2812 15.792C23.8249 15.7921 24.2513 15.9359 24.5605 16.2236C24.8805 16.5116 25.041 16.9278 25.041 17.4717C25.041 18.0903 24.833 18.5658 24.417 18.8965C24.0011 19.227 23.4143 19.3915 22.6572 19.3916C21.6546 19.3916 20.7422 19.1142 19.9209 18.5596L19.0889 20.3516C19.5049 20.7036 20.0279 20.976 20.6572 21.168C21.2864 21.3599 21.9634 21.456 22.6885 21.4561C23.6696 21.4561 24.5178 21.2905 25.2324 20.96C25.9577 20.6186 26.5075 20.1441 26.8809 19.5361C27.2648 18.9282 27.457 18.2188 27.457 17.4082C27.457 16.3202 27.1529 15.4931 26.5449 14.9277C25.9476 14.3518 25.1471 14.0645 24.1445 14.0645C23.75 14.0645 23.3555 14.112 22.9609 14.208C22.5769 14.2933 22.2302 14.432 21.9209 14.624V12H26.8164V10H19.665ZM5 10V21.2002H7.14355V14.1602L10.2158 20.8799H11.6396L14.6484 14.0801V21.2002H16.9043V10H14.5195L11.0322 17.9521L7.25586 10H5Z" fill="white"/>
</g>
<defs>
<clipPath id="clip0_8152_836">
<rect width="32" height="32" fill="white"/>
</clipPath>
</defs>
</svg>
