<svg width="32" height="32" viewBox="0 0 32 32" fill="none" xmlns="http://www.w3.org/2000/svg">
<path fill-rule="evenodd" clip-rule="evenodd" d="M10.6667 0.888916L16 6.22225L21.3333 0.888916H10.6667ZM0 13.0059C0 10.2593 2.18423 8.00003 4.91852 8.00003H27.0815C29.8158 8.00003 32 10.2593 32 13.0059C32 15.7525 29.8158 18.0117 27.0815 18.0117H25.9556V28.4445H24.1778H6.04444V18.0117H4.91852C2.18423 18.0117 0 15.7525 0 13.0059ZM21.4328 16.5759C20.9683 16.2186 20.2787 16.0399 19.364 16.0399C18.8495 16.0399 18.3565 16.1185 17.8848 16.2757C17.4203 16.4258 17.0023 16.6509 16.6307 16.951L17.4025 18.1408C17.624 17.9765 17.8777 17.8478 18.1635 17.7549C18.4493 17.6549 18.7388 17.6049 19.0317 17.6049C19.3962 17.6049 19.6785 17.6763 19.8785 17.8193C20.0858 17.9622 20.1894 18.148 20.1894 18.3766C20.1894 18.6196 20.0858 18.809 19.8785 18.9447C19.6785 19.0734 19.3962 19.1377 19.0317 19.1377H18.1099V20.5097H19.1604C20.0322 20.5097 20.4681 20.8027 20.4681 21.3887C20.4681 21.6888 20.3502 21.9246 20.1144 22.0961C19.8857 22.2605 19.5641 22.3426 19.1497 22.3426C18.3922 22.3426 17.7562 22.1175 17.2417 21.6673L16.4806 23.0394C16.8165 23.3181 17.2345 23.5324 17.7348 23.6825C18.235 23.8326 18.7638 23.9076 19.3212 23.9076C19.8928 23.9076 20.4145 23.8111 20.8861 23.6182C21.3649 23.4181 21.7436 23.1394 22.0223 22.7821C22.301 22.4177 22.4404 21.9961 22.4404 21.5173C22.4404 20.9956 22.2974 20.5812 22.0116 20.2739C21.7329 19.9666 21.3542 19.763 20.8754 19.6629V19.62C21.2827 19.4485 21.5936 19.2199 21.8079 18.934C22.0223 18.6482 22.1295 18.323 22.1295 17.9586C22.1295 17.3941 21.8973 16.9332 21.4328 16.5759ZM13.89 23.7254H15.948L14.2223 20.9706C14.6653 20.7705 15.0084 20.4775 15.2513 20.0917C15.5014 19.6986 15.6265 19.2127 15.6265 18.6339C15.6265 17.8693 15.3692 17.2762 14.8547 16.8546C14.3402 16.4329 13.547 16.2221 12.4751 16.2221H9.55957V23.7254H11.4139V21.3458H12.4644L13.89 23.7254ZM11.4139 19.7594V17.8085H12.3894C12.8253 17.8085 13.1433 17.8871 13.3433 18.0444C13.5434 18.1944 13.6435 18.4231 13.6435 18.7304C13.6435 19.0662 13.5327 19.3235 13.3112 19.5021C13.0968 19.6736 12.8003 19.7594 12.4215 19.7594H11.4139Z" fill="white"/>
</svg>
