<svg width="32" height="32" viewBox="0 0 32 32" fill="none" xmlns="http://www.w3.org/2000/svg">
<g clip-path="url(#clip0_1967_17399)">
<path fill-rule="evenodd" clip-rule="evenodd" d="M15.8953 25.3023C23.2934 25.3023 29.2907 19.6382 29.2907 12.6512C29.2907 5.66412 23.2934 0 15.8953 0C8.4973 0 2.5 5.66412 2.5 12.6512C2.5 19.6382 8.4973 25.3023 15.8953 25.3023ZM17.479 15.8628H19.7802L17.8505 12.7826C18.3459 12.5589 18.7295 12.2313 19.0011 11.7998C19.2808 11.3603 19.4206 10.817 19.4206 10.1698C19.4206 9.31484 19.133 8.65165 18.5577 8.18023C17.9824 7.70881 17.0955 7.47309 15.8969 7.47309H12.6369V15.8628H14.7104V13.2021H15.7052H15.885L17.479 15.8628ZM14.7104 11.4282V9.24692H15.8011C16.2885 9.24692 16.644 9.33481 16.8677 9.5106C17.0915 9.67839 17.2033 9.93408 17.2033 10.2777C17.2033 10.6532 17.0795 10.9408 16.8318 11.1406C16.5921 11.3324 16.2605 11.4282 15.837 11.4282H14.7104ZM15.8954 19.6744C21.3757 19.6744 25.4254 15.8 25.4254 11.4761C25.4254 7.15223 21.3757 3.27783 15.8954 3.27783C10.4151 3.27783 6.36542 7.15223 6.36542 11.4761C6.36542 15.8 10.4151 19.6744 15.8954 19.6744ZM15.8954 21.4639C22.147 21.4639 27.2149 16.9922 27.2149 11.4761C27.2149 5.96002 22.147 1.48835 15.8954 1.48835C9.64384 1.48835 4.57595 5.96002 4.57595 11.4761C4.57595 16.9922 9.64384 21.4639 15.8954 21.4639ZM13.8918 26.7907H10.6861L15.8954 32L21.1047 26.7907H17.8989L13.8918 26.7907Z" fill="white"/>
</g>
<defs>
<clipPath id="clip0_1967_17399">
<rect width="32" height="32" fill="white"/>
</clipPath>
</defs>
</svg>
