<svg width="64" height="64" viewBox="0 0 64 64" fill="none" xmlns="http://www.w3.org/2000/svg">
<path fill-rule="evenodd" clip-rule="evenodd" d="M61 3H3V61H61V3ZM47.8333 32C47.8333 40.7445 40.7445 47.8333 32 47.8333C23.2555 47.8333 16.1667 40.7445 16.1667 32C16.1667 23.2555 23.2555 16.1667 32 16.1667C40.7445 16.1667 47.8333 23.2555 47.8333 32ZM51.3333 32C51.3333 42.6775 42.6775 51.3333 32 51.3333C21.3225 51.3333 12.6667 42.6775 12.6667 32C12.6667 21.3225 21.3225 12.6667 32 12.6667C42.6775 12.6667 51.3333 21.3225 51.3333 32Z" fill="white"/>
</svg>
