<svg width="32" height="32" viewBox="0 0 32 32" fill="none" xmlns="http://www.w3.org/2000/svg">
<path fill-rule="evenodd" clip-rule="evenodd" d="M19.4844 3.75464V3.75467H24.4905L19.5684 8.29817L18.3075 9.46208L16.5876 11.0497L16.3555 11.2639L16.3555 11.2639L16.1069 11.0344L14.2954 9.36227L12.9908 8.1581L8.22044 3.75467H13.2267V0H19.4843V3.75464H19.4844ZM19.9347 9.89555L21.1 8.81986C25.6314 10.681 28.7999 14.9466 28.7999 19.9111C28.7999 26.5876 23.0692 31.9999 16 31.9999C8.93071 31.9999 3.19995 26.5876 3.19995 19.9111C3.19995 14.7656 6.60379 10.3709 11.4009 8.62596L12.5939 9.72724C8.28904 10.9864 5.1836 14.5674 5.1836 18.7883C5.1836 24.0592 10.0263 28.3321 16 28.3321C21.9737 28.3321 26.8163 24.0592 26.8163 18.7883C26.8163 14.7422 23.9629 11.2842 19.9347 9.89555ZM14.1778 11.1893L16.3555 13.1994L18.4043 11.3082C22.3388 12.2327 25.0269 15.3688 25.0269 18.7883C25.0269 22.867 21.2024 26.5427 16 26.5427C10.7975 26.5427 6.97307 22.867 6.97307 18.7883C6.97307 15.2027 9.92867 11.9285 14.1778 11.1893ZM13.5196 22.5534H18.5702V20.9454H15.3028V15.3382H13.5196V22.5534Z" fill="white"/>
</svg>
