<svg width="64" height="64" viewBox="0 0 64 64" fill="none" xmlns="http://www.w3.org/2000/svg">
<path d="M50 34C50 22.9543 41.0457 14 30 14H14V50H50V34Z" fill="white"/>
<path d="M36.8624 41H33.9824L31.9874 37.67H31.7624H30.5174V41H27.9224V30.5H32.0024C33.5024 30.5 34.6124 30.795 35.3324 31.385C36.0524 31.975 36.4124 32.805 36.4124 33.875C36.4124 34.685 36.2374 35.365 35.8874 35.915C35.5474 36.455 35.0674 36.865 34.4474 37.145L36.8624 41ZM30.5174 32.72V35.45H31.9274C32.4574 35.45 32.8724 35.33 33.1724 35.09C33.4824 34.84 33.6374 34.48 33.6374 34.01C33.6374 33.58 33.4974 33.26 33.2174 33.05C32.9374 32.83 32.4924 32.72 31.8824 32.72H30.5174Z" fill="#B8BCBF"/>
</svg>
