<svg width="64" height="64" viewBox="0 0 64 64" fill="none" xmlns="http://www.w3.org/2000/svg">
<path fill-rule="evenodd" clip-rule="evenodd" d="M38.969 7.50927V7.50933H48.9811L39.1368 16.5964L39.1369 16.5964L36.6151 18.9242L36.615 18.9242L34.9449 20.4658L34.945 20.4658L32.7111 22.5279L32.711 22.5278L30.3382 20.3375L28.5908 18.7246L25.9818 16.3162L16.441 7.50933H26.4534V0H38.9687V7.50927H38.969ZM39.8695 19.7911L42.2001 17.6398C51.2629 21.362 57.6 29.8932 57.6 39.8222C57.6 53.1752 46.1385 63.9999 32 63.9999C17.8615 63.9999 6.40002 53.1752 6.40002 39.8222C6.40002 29.5311 13.2077 20.7418 22.8019 17.252L25.188 19.4545C16.5782 21.9729 10.3673 29.1348 10.3673 37.5766C10.3673 48.1184 20.0527 56.6643 32.0001 56.6643C43.9475 56.6643 53.6328 48.1184 53.6328 37.5766C53.6328 29.4845 47.9259 22.5684 39.8695 19.7911ZM26.7413 20.8884L32.7111 26.3989L38.3628 21.182C46.2998 23.5179 51.8434 30.0992 51.8434 37.5766C51.8434 46.9262 43.1763 54.8748 32.0001 54.8748C20.8239 54.8748 12.1568 46.9262 12.1568 37.5766C12.1568 29.7571 18.2191 22.9177 26.7413 20.8884ZM27.0393 45.1067H37.1405V41.8908H30.6057V30.6764H27.0393V45.1067Z" fill="white"/>
</svg>
