<svg width="32" height="32" viewBox="0 0 32 32" fill="none" xmlns="http://www.w3.org/2000/svg">
<path d="M32 20C32 8.95431 23.0457 0 12 0H8C3.58172 0 0 3.58172 0 8V32H32V20Z" fill="white"/>
<path d="M14.7267 15.4271L10.3273 21.0971H14.8985V23H7.5V21.5214L11.873 15.9029H7.71138V14H14.7267V15.4271Z" fill="#B8BCBF"/>
<path d="M25 23H22.4634L20.7062 20.1457H20.5081H19.4115V23H17.1259V14H20.7194C22.0406 14 23.0183 14.2529 23.6524 14.7586C24.2866 15.2643 24.6037 15.9757 24.6037 16.8929C24.6037 17.5871 24.4495 18.17 24.1412 18.6414C23.8418 19.1043 23.419 19.4557 22.8729 19.6957L25 23ZM19.4115 15.9029V18.2429H20.6534C21.1202 18.2429 21.4857 18.14 21.75 17.9343C22.023 17.72 22.1595 17.4114 22.1595 17.0086C22.1595 16.64 22.0362 16.3657 21.7896 16.1857C21.543 15.9971 21.151 15.9029 20.6138 15.9029H19.4115Z" fill="#B8BCBF"/>
</svg>
