<svg width="32" height="32" viewBox="0 0 32 32" fill="none" xmlns="http://www.w3.org/2000/svg">
<path fill-rule="evenodd" clip-rule="evenodd" d="M27 7C29.7614 7 32 9.23858 32 12V19C32 21.7614 29.7614 24 27 24H0V7H27ZM12.5396 10.408C11.9306 10.205 11.2732 10.1035 10.5676 10.1035C9.79423 10.1035 9.11273 10.2292 8.52306 10.4805C7.93339 10.7222 7.47423 11.0798 7.14556 11.5535C6.81689 12.0175 6.65256 12.5685 6.65256 13.2065C6.65256 13.8832 6.80723 14.4293 7.11656 14.845C7.42589 15.251 7.79323 15.5555 8.21856 15.7585C8.64389 15.9518 9.21423 16.1597 9.92956 16.382C10.4806 16.5463 10.8866 16.7107 11.1476 16.875C11.4086 17.0297 11.5391 17.2472 11.5391 17.5275C11.5391 17.8078 11.4231 18.035 11.1911 18.209C10.9591 18.383 10.6159 18.47 10.1616 18.47C9.24323 18.47 8.25239 18.1945 7.18906 17.6435L6.43506 19.7315C6.93773 20.0312 7.51289 20.2632 8.16056 20.4275C8.81789 20.5918 9.47039 20.674 10.1181 20.674C10.9204 20.674 11.6309 20.5483 12.2496 20.297C12.8779 20.036 13.3661 19.659 13.7141 19.166C14.0717 18.673 14.2506 18.0882 14.2506 17.4115C14.2506 16.7735 14.0959 16.2563 13.7866 15.86C13.4772 15.454 13.1147 15.1495 12.6991 14.9465C12.2931 14.7435 11.7566 14.526 11.0896 14.294C10.4806 14.091 10.0311 13.9073 9.74106 13.743C9.46073 13.569 9.32056 13.337 9.32056 13.047C9.32056 12.7763 9.43172 12.5637 9.65406 12.409C9.87639 12.2447 10.1857 12.1625 10.5821 12.1625C10.9591 12.1625 11.3651 12.2398 11.8001 12.3945C12.2447 12.5492 12.6411 12.7522 12.9891 13.0035L14.0476 11.133C13.6512 10.843 13.1486 10.6013 12.5396 10.408ZM21.5809 20.5H24.3649L22.0304 16.7735C22.6297 16.5028 23.0937 16.1065 23.4224 15.5845C23.7607 15.0528 23.9299 14.3955 23.9299 13.6125C23.9299 12.5782 23.5819 11.7758 22.8859 11.2055C22.1899 10.6352 21.1169 10.35 19.6669 10.35H15.7229V20.5H18.2314V17.281H19.4349H19.6524L21.5809 20.5ZM18.2314 15.135V12.496H19.5509C20.1405 12.496 20.5707 12.6023 20.8414 12.815C21.112 13.018 21.2474 13.3273 21.2474 13.743C21.2474 14.1973 21.0975 14.5453 20.7979 14.787C20.5079 15.019 20.1067 15.135 19.5944 15.135H18.2314Z" fill="white"/>
</svg>
