<svg width="64" height="64" viewBox="0 0 64 64" fill="none" xmlns="http://www.w3.org/2000/svg">
<path fill-rule="evenodd" clip-rule="evenodd" d="M50.0001 34C50.0001 22.9543 41.0458 14 30.0001 14H22.0001C19.791 14 17.791 14.8954 16.3433 16.3432L29.5001 29.5H30.408V30.4079L33.1319 33.1318V29.5H37.2119C38.7119 29.5 39.8219 29.795 40.5419 30.385C41.2619 30.975 41.6219 31.805 41.6219 32.875C41.6219 33.685 41.4469 34.365 41.0969 34.915C40.7569 35.455 40.2769 35.865 39.6569 36.145L42.0719 40H40.0001L50.0001 50V34ZM37.9842 37.9841L37.1969 36.67H36.9719H36.6701L37.9842 37.9841ZM35.7269 34.45V31.72H37.0919C37.7019 31.72 38.1469 31.83 38.4269 32.05C38.7069 32.26 38.8469 32.58 38.8469 33.01C38.8469 33.48 38.6919 33.84 38.3819 34.09C38.0819 34.33 37.6669 34.45 37.1369 34.45H35.7269Z" fill="white"/>
<path opacity="0.5" fill-rule="evenodd" clip-rule="evenodd" d="M40 40L50 50H14V22C14 19.7909 14.8954 17.7909 16.3431 16.3431L29.5 29.5H22.4429V31.72H27.1679L22.2029 38.275V40H30.6029V37.78H25.4129L30.4079 31.165V30.4079L33.1318 33.1318V40H35.7268V36.67H36.67L37.9841 37.9841L39.1918 40H40Z" fill="white"/>
</svg>
