<svg width="64" height="64" viewBox="0 0 64 64" fill="none" xmlns="http://www.w3.org/2000/svg">
<g clip-path="url(#clip0_1967:17399)">
<path fill-rule="evenodd" clip-rule="evenodd" d="M31.7907 50.6046C46.5868 50.6046 58.5814 39.2764 58.5814 25.3023C58.5814 11.3282 46.5868 0 31.7907 0C16.9946 0 5 11.3282 5 25.3023C5 39.2764 16.9946 50.6046 31.7907 50.6046ZM34.958 31.7257H39.5604L35.7011 25.5652C36.6919 25.1178 37.459 24.4626 38.0023 23.5996C38.5616 22.7207 38.8413 21.634 38.8413 20.3396C38.8413 18.6297 38.266 17.3034 37.1154 16.3605C35.9648 15.4177 34.191 14.9462 31.7939 14.9462H25.2739V31.7257H29.4208V26.4042H31.4104H31.7699L34.958 31.7257ZM29.4208 22.8565V18.4939H31.6021C32.5769 18.4939 33.2881 18.6697 33.7355 19.0212C34.183 19.3568 34.4067 19.8682 34.4067 20.5554C34.4067 21.3064 34.159 21.8817 33.6636 22.2812C33.1842 22.6648 32.521 22.8565 31.6741 22.8565H29.4208ZM31.7908 41.1383C43.5227 41.1383 52.6402 32.7922 52.6402 22.9522C52.6402 13.1122 43.5227 4.76617 31.7908 4.76617C20.0589 4.76617 10.9413 13.1122 10.9413 22.9522C10.9413 32.7922 20.0589 41.1383 31.7908 41.1383ZM31.7908 42.9277C44.2939 42.9277 54.4297 33.9844 54.4297 22.9522C54.4297 11.92 44.2939 2.97669 31.7908 2.97669C19.2877 2.97669 9.15188 11.92 9.15188 22.9522C9.15188 33.9844 19.2877 42.9277 31.7908 42.9277ZM27.7835 53.5814H21.3721L31.7907 64L42.2093 53.5814H35.7978L27.7835 53.5814Z" fill="white"/>
</g>
<defs>
<clipPath id="clip0_1967:17399">
<rect width="64" height="64" fill="white"/>
</clipPath>
</defs>
</svg>
