<svg width="32" height="32" viewBox="0 0 32 32" fill="none" xmlns="http://www.w3.org/2000/svg">
<path fill-rule="evenodd" clip-rule="evenodd" d="M32 16.1111C32 24.4567 24.8366 31.2222 16 31.2222C7.16344 31.2222 0 24.4567 0 16.1111C0 7.76547 7.16344 1 16 1C24.8366 1 32 7.76547 32 16.1111ZM20.6402 19.9473H17.8916L15.9876 16.7692H15.7728H14.5846V19.9473H12.108V9.92622H16.0019C17.4335 9.92622 18.4928 10.2078 19.18 10.7709C19.8672 11.3339 20.2107 12.1261 20.2107 13.1473C20.2107 13.9203 20.0437 14.5693 19.7097 15.0942C19.3852 15.6096 18.9271 16.0009 18.3354 16.2681L20.6402 19.9473ZM14.5846 12.045V14.6504H15.9303C16.4361 14.6504 16.8322 14.5359 17.1185 14.3069C17.4144 14.0683 17.5623 13.7247 17.5623 13.2761C17.5623 12.8657 17.4287 12.5603 17.1615 12.3599C16.8943 12.1499 16.4695 12.045 15.8874 12.045H14.5846ZM27.731 14.7076C27.731 20.1041 22.696 24.848 16.0001 24.848C9.30415 24.848 4.26906 20.1041 4.26906 14.7076C4.26906 9.31116 9.30415 4.56726 16.0001 4.56726C22.696 4.56726 27.731 9.31116 27.731 14.7076ZM29.5205 14.7076C29.5205 21.2963 23.4672 26.6374 16.0001 26.6374C8.53291 26.6374 2.47959 21.2963 2.47959 14.7076C2.47959 8.11895 8.53291 2.77778 16.0001 2.77778C23.4672 2.77778 29.5205 8.11895 29.5205 14.7076Z" fill="white"/>
</svg>
