<svg width="64" height="64" viewBox="0 0 64 64" fill="none" xmlns="http://www.w3.org/2000/svg">
<g clip-path="url(#clip0_1967:17392)">
<path fill-rule="evenodd" clip-rule="evenodd" d="M32 50.6046C46.7961 50.6046 58.7907 39.2764 58.7907 25.3023C58.7907 11.3282 46.7961 0 32 0C17.2039 0 5.20929 11.3282 5.20929 25.3023C5.20929 39.2764 17.2039 50.6046 32 50.6046ZM26.9716 31.7257H38.7172V27.9863H31.1185V14.9462H26.9716V31.7257ZM32.0001 41.1383C43.732 41.1383 52.8495 32.7922 52.8495 22.9522C52.8495 13.1122 43.732 4.76617 32.0001 4.76617C20.2682 4.76617 11.1506 13.1122 11.1506 22.9522C11.1506 32.7922 20.2682 41.1383 32.0001 41.1383ZM32.0001 42.9277C44.5032 42.9277 54.639 33.9844 54.639 22.9522C54.639 11.92 44.5032 2.97669 32.0001 2.97669C19.497 2.97669 9.36117 11.92 9.36117 22.9522C9.36117 33.9844 19.497 42.9277 32.0001 42.9277ZM27.9928 53.5814H21.5814L32 64L42.4186 53.5814H36.0071L27.9928 53.5814Z" fill="white"/>
</g>
<defs>
<clipPath id="clip0_1967:17392">
<rect width="64" height="64" fill="white"/>
</clipPath>
</defs>
</svg>
