<svg width="32" height="32" viewBox="0 0 32 32" fill="none" xmlns="http://www.w3.org/2000/svg">
<path d="M12.4915 5.71899C16.3669 1.84344 18.4401 -1.66536 22.3157 2.21021L29.3333 12.0354C32.1399 16.9473 30.7528 17.6335 26.8772 21.509L18.8069 28.8772C14.9312 32.7528 8.6474 32.7528 4.77173 28.8772L4.06958 28.175C0.194214 24.2994 0.430329 19.4198 4.30591 15.5442L12.4915 5.71899ZM13.2356 12.0002C12.4438 12.0003 11.728 12.172 11.0881 12.5159C10.4482 12.8518 9.93971 13.3557 9.56372 14.0276C9.18772 14.6996 9.00024 15.5121 9.00024 16.4641C9.00025 17.4241 9.19243 18.2282 9.57642 18.8762C9.96834 19.524 10.4761 20.0037 11.0999 20.3157C11.7237 20.6196 12.3957 20.7717 13.1155 20.7717C13.8035 20.7717 14.436 20.6598 15.012 20.4358C15.5879 20.2038 16.0637 19.8959 16.4397 19.512V15.6721H12.6956V17.0881H14.76V18.636C14.352 18.98 13.824 19.1516 13.176 19.1516C12.496 19.1516 11.9401 18.9119 11.5081 18.4319C11.0841 17.944 10.8724 17.2562 10.8723 16.3684C10.8723 15.4807 11.0917 14.8004 11.5315 14.3284C11.9795 13.8564 12.5719 13.6204 13.3079 13.6204C14.0758 13.6204 14.7718 13.8322 15.3958 14.2561L16.26 12.9602C15.8921 12.6803 15.4563 12.4516 14.9524 12.2756C14.4484 12.0916 13.8756 12.0002 13.2356 12.0002ZM18.0549 20.592H23.6956V19.0081H19.8196V12.1917H18.0549V20.592Z" fill="white"/>
</svg>
