<svg width="32" height="32" viewBox="0 0 32 32" fill="none" xmlns="http://www.w3.org/2000/svg">
<path fill-rule="evenodd" clip-rule="evenodd" d="M30.5 1.5H1.5V30.5H30.5V1.5ZM22.1667 16C22.1667 19.4058 19.4057 22.1667 16 22.1667C12.5942 22.1667 9.83332 19.4058 9.83332 16C9.83332 12.5943 12.5942 9.83335 16 9.83335C19.4057 9.83335 22.1667 12.5943 22.1667 16ZM25.6667 16C25.6667 21.3388 21.3387 25.6667 16 25.6667C10.6612 25.6667 6.33332 21.3388 6.33332 16C6.33332 10.6613 10.6612 6.33335 16 6.33335C21.3387 6.33335 25.6667 10.6613 25.6667 16Z" fill="white"/>
</svg>
