<svg width="32" height="32" viewBox="0 0 32 32" fill="none" xmlns="http://www.w3.org/2000/svg">
<path fill-rule="evenodd" clip-rule="evenodd" d="M0 22.8571C0 10.2335 10.2335 0 22.8571 0C26.4396 0 29.5409 2.06048 31.0405 5.06099C30.5977 4.17507 30.0153 3.37111 29.3221 2.67793L18.4445 13.5555H17.6832V14.3169L11.0845 20.9155H10.8219L15.2619 15.0355V13.5555H8.18187V15.5289H12.3819L7.96854 21.3555V22.8889H9.11114L0 32V22.8571Z" fill="white"/>
<path opacity="0.5" fill-rule="evenodd" clip-rule="evenodd" d="M9.11106 22.8889L0 32H32V9.14283C32 6.6181 30.9767 4.33239 29.3221 2.67786L18.4444 13.5556H19.9898V20.8089H24.2165V22.8889H17.6832V14.3168L11.0844 20.9156H15.4352V22.8889H9.11106Z" fill="white"/>
</svg>
