<svg width="64" height="64" viewBox="0 0 64 64" fill="none" xmlns="http://www.w3.org/2000/svg">
<g clip-path="url(#clip0_1967:17364)">
<path fill-rule="evenodd" clip-rule="evenodd" d="M36.0071 10.4186L42.4186 10.4186L32 0L21.5814 10.4186L27.9928 10.4186H36.0071ZM32 64C46.7961 64 58.7907 52.6717 58.7907 38.6977C58.7907 24.7236 46.7961 13.3953 32 13.3953C17.2039 13.3953 5.20929 24.7236 5.20929 38.6977C5.20929 52.6717 17.2039 64 32 64ZM26.9716 45.1211H38.7172V41.3816H31.1185V28.3416H26.9716V45.1211ZM32.0001 54.5337C43.732 54.5337 52.8495 46.1876 52.8495 36.3476C52.8495 26.5076 43.732 18.1616 32.0001 18.1616C20.2682 18.1616 11.1506 26.5076 11.1506 36.3476C11.1506 46.1876 20.2682 54.5337 32.0001 54.5337ZM32.0001 56.3231C44.5032 56.3231 54.639 47.3798 54.639 36.3476C54.639 25.3154 44.5032 16.3721 32.0001 16.3721C19.497 16.3721 9.36117 25.3154 9.36117 36.3476C9.36117 47.3798 19.497 56.3231 32.0001 56.3231Z" fill="white"/>
</g>
<defs>
<clipPath id="clip0_1967:17364">
<rect width="64" height="64" fill="white"/>
</clipPath>
</defs>
</svg>
