<svg width="64" height="64" viewBox="0 0 64 64" fill="none" xmlns="http://www.w3.org/2000/svg">
<path fill-rule="evenodd" clip-rule="evenodd" d="M64 32.2222C64 48.9135 49.6731 62.4444 32 62.4444C14.3269 62.4444 0 48.9135 0 32.2222C0 15.5309 14.3269 2 32 2C49.6731 2 64 15.5309 64 32.2222ZM41.2805 39.8945H35.7832L31.9752 33.5383H31.5457H29.1693V39.8945H24.216V19.8524H32.0038C34.867 19.8524 36.9857 20.4155 38.36 21.5417C39.7344 22.6679 40.4215 24.2522 40.4215 26.2945C40.4215 27.8406 40.0875 29.1386 39.4194 30.1884C38.7704 31.2192 37.8542 32.0018 36.6708 32.5362L41.2805 39.8945ZM29.1693 24.0899V29.3009H31.8607C32.8723 29.3009 33.6645 29.0718 34.2371 28.6137C34.8288 28.1365 35.1247 27.4493 35.1247 26.5522C35.1247 25.7314 34.8574 25.1206 34.323 24.7198C33.7885 24.2999 32.9391 24.0899 31.7748 24.0899H29.1693ZM57.2516 29.4152C57.2516 41.4003 46.1632 51.4854 32.0001 51.4854C17.8371 51.4854 6.74867 41.4003 6.74867 29.4152C6.74867 17.4301 17.8371 7.34503 32.0001 7.34503C46.1632 7.34503 57.2516 17.4301 57.2516 29.4152ZM59.0411 29.4152C59.0411 42.5925 46.9344 53.2749 32.0001 53.2749C17.0658 53.2749 4.9592 42.5925 4.9592 29.4152C4.9592 16.2379 17.0658 5.55556 32.0001 5.55556C46.9344 5.55556 59.0411 16.2379 59.0411 29.4152Z" fill="white"/>
</svg>
