<svg width="32" height="32" viewBox="0 0 32 32" fill="none" xmlns="http://www.w3.org/2000/svg">
<path fill-rule="evenodd" clip-rule="evenodd" d="M12.8 28.5889C19.8692 28.5889 25.6 23.1765 25.6 16.5C25.6 9.82351 19.8692 4.41113 12.8 4.41113C5.73076 4.41113 0 9.82351 0 16.5C0 23.1765 5.73076 28.5889 12.8 28.5889ZM10.3975 19.569H16.0093V17.7824H12.3788V11.5522H10.3975V19.569ZM12.8001 23.1316C18.0025 23.1316 21.827 19.456 21.827 15.3773C21.827 11.2985 18.0025 7.62288 12.8001 7.62288C7.59759 7.62288 3.77316 11.2985 3.77316 15.3773C3.77316 19.456 7.59759 23.1316 12.8001 23.1316ZM12.8001 24.9211C18.7738 24.9211 23.6164 20.6482 23.6164 15.3773C23.6164 10.1063 18.7738 5.8334 12.8001 5.8334C6.82634 5.8334 1.98369 10.1063 1.98369 15.3773C1.98369 20.6482 6.82634 24.9211 12.8001 24.9211ZM27.0222 18.9069V22.1889L32 16.8556L27.0222 11.5222V14.8043V18.9069Z" fill="white"/>
</svg>
