<svg width="32" height="32" viewBox="0 0 32 32" fill="none" xmlns="http://www.w3.org/2000/svg">
<g clip-path="url(#clip0_1967_17413)">
<path fill-rule="evenodd" clip-rule="evenodd" d="M19.2 28.1778C26.2693 28.1778 32 22.7654 32 16.0889C32 9.41238 26.2693 4 19.2 4C12.1308 4 6.40002 9.41238 6.40002 16.0889C6.40002 22.7654 12.1308 28.1778 19.2 28.1778ZM20.7133 19.1579H22.9122L21.0683 16.2145C21.5417 16.0008 21.9082 15.6877 22.1678 15.2754C22.435 14.8555 22.5686 14.3363 22.5686 13.7179C22.5686 12.9009 22.2937 12.2672 21.744 11.8167C21.1943 11.3663 20.3468 11.141 19.2015 11.141H16.0864V19.1579H18.0677V16.6154H19.0183H19.1901L20.7133 19.1579ZM18.0677 14.9204V12.836H19.1099C19.5756 12.836 19.9154 12.92 20.1292 13.088C20.343 13.2483 20.4499 13.4926 20.4499 13.8209C20.4499 14.1798 20.3315 14.4547 20.0948 14.6455C19.8658 14.8288 19.5489 14.9204 19.1443 14.9204H18.0677ZM19.2001 22.7205C24.4025 22.7205 28.227 19.0449 28.227 14.9661C28.227 10.8874 24.4025 7.21175 19.2001 7.21175C13.9976 7.21175 10.1732 10.8874 10.1732 14.9661C10.1732 19.0449 13.9976 22.7205 19.2001 22.7205ZM19.2001 24.51C25.1738 24.51 30.0165 20.2371 30.0165 14.9661C30.0165 9.69521 25.1738 5.42228 19.2001 5.42228C13.2264 5.42228 8.3837 9.69521 8.3837 14.9661C8.3837 20.2371 13.2264 24.51 19.2001 24.51ZM4.97778 18.4957V21.7778L0 16.4445L4.97778 11.1111V14.3932L4.97778 18.4957Z" fill="white"/>
</g>
<defs>
<clipPath id="clip0_1967_17413">
<rect width="32" height="32" fill="white"/>
</clipPath>
</defs>
</svg>
