<svg width="64" height="64" viewBox="0 0 64 64" fill="none" xmlns="http://www.w3.org/2000/svg">
<path fill-rule="evenodd" clip-rule="evenodd" d="M64 32.2222C64 48.9135 49.6731 62.4444 32 62.4444C14.3269 62.4444 0 48.9135 0 32.2222C0 15.5309 14.3269 2 32 2C49.6731 2 64 15.5309 64 32.2222ZM40.0233 39.8945H25.9938V19.8524H30.9471V35.428H40.0233V39.8945ZM57.2516 29.4152C57.2516 41.4003 46.1632 51.4854 32.0001 51.4854C17.8371 51.4854 6.74867 41.4003 6.74867 29.4152C6.74867 17.4301 17.8371 7.34503 32.0001 7.34503C46.1632 7.34503 57.2516 17.4301 57.2516 29.4152ZM59.0411 29.4152C59.0411 42.5925 46.9344 53.2749 32.0001 53.2749C17.0658 53.2749 4.9592 42.5925 4.9592 29.4152C4.9592 16.2379 17.0658 5.55556 32.0001 5.55556C46.9344 5.55556 59.0411 16.2379 59.0411 29.4152Z" fill="white"/>
</svg>
