<svg width="32" height="32" viewBox="0 0 32 32" fill="none" xmlns="http://www.w3.org/2000/svg">
<g clip-path="url(#clip0_1967_17195)">
<path fill-rule="evenodd" clip-rule="evenodd" d="M32 22.8571C32 10.2336 21.7666 0.00012207 9.14299 0.00012207C6.61827 0.00012207 4.33259 1.02346 2.67807 2.67798L13.5557 13.5557H14.5849V14.5848L17.0062 17.0061V13.5557H20.6328C21.9661 13.5557 22.9528 13.8179 23.5928 14.3423C24.2328 14.8668 24.5528 15.6045 24.5528 16.5556C24.5528 17.2756 24.3972 17.8801 24.0861 18.369C23.7839 18.849 23.3572 19.2134 22.8061 19.4623L24.9528 22.889H22.889L32 32L0.000198364 32L0.000183105 9.14293V32H32V22.8571ZM21.6512 21.6512L20.6195 19.929H20.4195H19.929L21.6512 21.6512ZM19.3128 17.9556V15.529H20.5261C21.0684 15.529 21.4639 15.6268 21.7128 15.8223C21.9617 16.009 22.0861 16.2934 22.0861 16.6756C22.0861 17.0934 21.9483 17.4134 21.6728 17.6356C21.4061 17.849 21.0372 17.9556 20.5661 17.9556H19.3128Z" fill="white"/>
<path opacity="0.5" fill-rule="evenodd" clip-rule="evenodd" d="M22.889 22.889L32 32H0.00012207V9.14292C0.00012207 6.6182 1.02347 4.3325 2.67799 2.67798L13.5557 13.5557H7.50479V15.529H11.7048L7.29146 21.3556V22.889H14.7581V20.9156H10.1448L14.5848 15.0357V14.5847L17.006 17.006V22.889H19.3127V19.929H19.929L21.651 21.651L22.3927 22.889H22.889Z" fill="white"/>
</g>
<defs>
<clipPath id="clip0_1967_17195">
<rect width="32" height="32" fill="white"/>
</clipPath>
</defs>
</svg>
