<svg width="64" height="64" viewBox="0 0 64 64" fill="none" xmlns="http://www.w3.org/2000/svg">
<path d="M50 34C50 22.9543 41.0457 14 30 14H22C17.5817 14 14 17.5817 14 22V50H50V34Z" fill="white"/>
<path d="M30.4079 31.165L25.4129 37.78H30.6029V40H22.2029V38.275L27.1679 31.72H22.4429V29.5H30.4079V31.165Z" fill="#B8BCBF"/>
<path d="M42.0718 40H39.1918L37.1968 36.67H36.9718H35.7268V40H33.1318V29.5H37.2118C38.7118 29.5 39.8218 29.795 40.5418 30.385C41.2618 30.975 41.6218 31.805 41.6218 32.875C41.6218 33.685 41.4468 34.365 41.0968 34.915C40.7568 35.455 40.2768 35.865 39.6568 36.145L42.0718 40ZM35.7268 31.72V34.45H37.1368C37.6668 34.45 38.0818 34.33 38.3818 34.09C38.6918 33.84 38.8468 33.48 38.8468 33.01C38.8468 32.58 38.7068 32.26 38.4268 32.05C38.1468 31.83 37.7018 31.72 37.0918 31.72H35.7268Z" fill="#B8BCBF"/>
</svg>
