<svg width="32" height="32" viewBox="0 0 32 32" fill="none" xmlns="http://www.w3.org/2000/svg">
<path fill-rule="evenodd" clip-rule="evenodd" d="M5 7C2.23858 7 0 9.23858 0 12V19C0 21.7614 2.23858 24 5 24H32V7H5ZM14.5395 10.408C13.9305 10.205 13.2732 10.1035 12.5675 10.1035C11.7942 10.1035 11.1127 10.2292 10.523 10.4805C9.93333 10.7222 9.47416 11.0798 9.1455 11.5535C8.81683 12.0175 8.6525 12.5685 8.6525 13.2065C8.6525 13.8832 8.80716 14.4293 9.1165 14.845C9.42583 15.251 9.79316 15.5555 10.2185 15.7585C10.6438 15.9518 11.2142 16.1597 11.9295 16.382C12.4805 16.5463 12.8865 16.7107 13.1475 16.875C13.4085 17.0297 13.539 17.2472 13.539 17.5275C13.539 17.8078 13.423 18.035 13.191 18.209C12.959 18.383 12.6158 18.47 12.1615 18.47C11.2432 18.47 10.2523 18.1945 9.189 17.6435L8.435 19.7315C8.93766 20.0312 9.51283 20.2632 10.1605 20.4275C10.8178 20.5918 11.4703 20.674 12.118 20.674C12.9203 20.674 13.6308 20.5483 14.2495 20.297C14.8778 20.036 15.366 19.659 15.714 19.166C16.0717 18.673 16.2505 18.0882 16.2505 17.4115C16.2505 16.7735 16.0958 16.2563 15.7865 15.86C15.4772 15.454 15.1147 15.1495 14.699 14.9465C14.293 14.7435 13.7565 14.526 13.0895 14.294C12.4805 14.091 12.031 13.9073 11.741 13.743C11.4607 13.569 11.3205 13.337 11.3205 13.047C11.3205 12.7763 11.4317 12.5637 11.654 12.409C11.8763 12.2447 12.1857 12.1625 12.582 12.1625C12.959 12.1625 13.365 12.2398 13.8 12.3945C14.2447 12.5492 14.641 12.7522 14.989 13.0035L16.0475 11.133C15.6512 10.843 15.1485 10.6013 14.5395 10.408ZM17.7228 20.5H24.8278V18.238H20.2313V10.35H17.7228V20.5Z" fill="white"/>
</svg>
