<svg width="32" height="32" viewBox="0 0 32 32" fill="none" xmlns="http://www.w3.org/2000/svg">
<g clip-path="url(#clip0_1967_17371)">
<path fill-rule="evenodd" clip-rule="evenodd" d="M17.8989 5.2093L21.1047 5.2093L15.8954 0L10.686 5.2093L13.8918 5.2093H17.8989ZM15.8953 32C23.2934 32 29.2907 26.3359 29.2907 19.3488C29.2907 12.3618 23.2934 6.69768 15.8953 6.69768C8.4973 6.69768 2.5 12.3618 2.5 19.3488C2.5 26.3359 8.4973 32 15.8953 32ZM17.479 22.5606H19.7802L17.8506 19.4803C18.346 19.2566 18.7295 18.929 19.0012 18.4975C19.2808 18.0581 19.4206 17.5147 19.4206 16.8675C19.4206 16.0126 19.133 15.3494 18.5577 14.878C17.9824 14.4065 17.0955 14.1708 15.897 14.1708H12.637V22.5606H14.7104V19.8998H15.7052H15.885L17.479 22.5606ZM14.7104 18.126V15.9447H15.8011C16.2885 15.9447 16.644 16.0326 16.8678 16.2083C17.0915 16.3761 17.2034 16.6318 17.2034 16.9754C17.2034 17.3509 17.0795 17.6386 16.8318 17.8383C16.5921 18.0301 16.2605 18.126 15.837 18.126H14.7104ZM15.8954 26.3721C21.3757 26.3721 25.4254 22.4977 25.4254 18.1738C25.4254 13.8499 21.3757 9.97552 15.8954 9.97552C10.4151 9.97552 6.36543 13.8499 6.36543 18.1738C6.36543 22.4977 10.4151 26.3721 15.8954 26.3721ZM15.8954 28.1616C22.147 28.1616 27.2149 23.6899 27.2149 18.1738C27.2149 12.6577 22.147 8.18604 15.8954 8.18604C9.64385 8.18604 4.57596 12.6577 4.57596 18.1738C4.57596 23.6899 9.64385 28.1616 15.8954 28.1616Z" fill="white"/>
</g>
<defs>
<clipPath id="clip0_1967_17371">
<rect width="32" height="32" fill="white"/>
</clipPath>
</defs>
</svg>
