<svg width="32" height="32" viewBox="0 0 32 32" fill="none" xmlns="http://www.w3.org/2000/svg">
<path fill-rule="evenodd" clip-rule="evenodd" d="M32 16.1111C32 24.4567 24.8366 31.2222 16 31.2222C7.16344 31.2222 0 24.4567 0 16.1111C0 7.76547 7.16344 1 16 1C24.8366 1 32 7.76547 32 16.1111ZM20.0116 19.9473H12.9969V9.92622H15.4735V17.714H20.0116V19.9473ZM27.731 14.7076C27.731 20.1041 22.696 24.848 16.0001 24.848C9.30415 24.848 4.26906 20.1041 4.26906 14.7076C4.26906 9.31116 9.30415 4.56726 16.0001 4.56726C22.696 4.56726 27.731 9.31116 27.731 14.7076ZM29.5205 14.7076C29.5205 21.2963 23.4672 26.6374 16.0001 26.6374C8.53291 26.6374 2.47959 21.2963 2.47959 14.7076C2.47959 8.11895 8.53291 2.77778 16.0001 2.77778C23.4672 2.77778 29.5205 8.11895 29.5205 14.7076Z" fill="white"/>
</svg>
