<svg width="32" height="32" viewBox="0 0 32 32" fill="none" xmlns="http://www.w3.org/2000/svg">
<g clip-path="url(#clip0_1967_17191)">
<path fill-rule="evenodd" clip-rule="evenodd" d="M12 0C23.0457 0 32 8.95431 32 20V32H0V8C0 3.58172 3.58172 0 8 0H12ZM10.3273 21.0971L14.7267 15.4271V14H7.71138V15.9029H11.873L7.5 21.5214V23H14.8985V21.0971H10.3273ZM22.4634 23H25L22.8729 19.6957C23.419 19.4557 23.8418 19.1043 24.1412 18.6414C24.4495 18.17 24.6037 17.5871 24.6037 16.8929C24.6037 15.9757 24.2866 15.2643 23.6524 14.7586C23.0183 14.2529 22.0406 14 20.7194 14H17.1259V23H19.4115V20.1457H20.5081H20.7062L22.4634 23ZM19.4115 18.2429V15.9029H20.6138C21.151 15.9029 21.543 15.9971 21.7896 16.1857C22.0362 16.3657 22.1595 16.64 22.1595 17.0086C22.1595 17.4114 22.023 17.72 21.75 17.9343C21.4857 18.14 21.1202 18.2429 20.6534 18.2429H19.4115Z" fill="white"/>
</g>
<defs>
<clipPath id="clip0_1967_17191">
<rect width="32" height="32" fill="white"/>
</clipPath>
</defs>
</svg>
