<svg width="32" height="32" viewBox="0 0 32 32" fill="none" xmlns="http://www.w3.org/2000/svg">
<g clip-path="url(#clip0_1967_17292)">
<path fill-rule="evenodd" clip-rule="evenodd" d="M12 0C23.0457 0 32 8.95431 32 20V32H0V0H12ZM17.9228 24H20.5L18.3389 20.5121C18.8937 20.2588 19.3233 19.8879 19.6275 19.3993C19.9407 18.9017 20.0973 18.2864 20.0973 17.5536C20.0973 16.5855 19.7752 15.8345 19.1309 15.3007C18.4866 14.7669 17.4933 14.5 16.151 14.5H12.5V24H14.8221V20.9871H15.9362H16.1376L17.9228 24ZM14.8221 18.9786V16.5086H16.0436C16.5895 16.5086 16.9877 16.6081 17.2383 16.8071C17.4888 16.9971 17.6141 17.2867 17.6141 17.6757C17.6141 18.101 17.4754 18.4267 17.198 18.6529C16.9295 18.87 16.5582 18.9786 16.0839 18.9786H14.8221Z" fill="white"/>
</g>
<defs>
<clipPath id="clip0_1967_17292">
<rect width="32" height="32" fill="white"/>
</clipPath>
</defs>
</svg>
