<svg width="64" height="64" viewBox="0 0 64 64" fill="none" xmlns="http://www.w3.org/2000/svg">
<path fill-rule="evenodd" clip-rule="evenodd" d="M32 24.3636C37.6233 24.3636 42.1818 19.8051 42.1818 14.1818C42.1818 8.55856 37.6233 4 32 4C26.3767 4 21.8182 8.55856 21.8182 14.1818C21.8182 19.8051 26.3767 24.3636 32 24.3636ZM36.6682 16.8771L32 8.79151L27.3318 16.8771H36.6682Z" fill="white"/>
<path fill-rule="evenodd" clip-rule="evenodd" d="M32 39.6364C37.6233 39.6364 42.1818 44.1949 42.1818 49.8182C42.1818 55.4414 37.6233 60 32 60C26.3767 60 21.8182 55.4414 21.8182 49.8182C21.8182 44.1949 26.3767 39.6364 32 39.6364ZM36.6682 47.1229L32 55.2085L27.3318 47.1229H36.6682Z" fill="white"/>
<path fill-rule="evenodd" clip-rule="evenodd" d="M24.3636 31.9999C24.3636 26.3767 19.8051 21.8181 14.1818 21.8181C8.55856 21.8181 4 26.3767 4 31.9999C4 37.6232 8.55856 42.1818 14.1818 42.1818C19.8051 42.1818 24.3636 37.6232 24.3636 31.9999ZM16.877 27.3317L8.79142 31.9999L16.877 36.6681V27.3317Z" fill="white"/>
<path fill-rule="evenodd" clip-rule="evenodd" d="M39.6364 31.9999C39.6364 26.3767 44.1949 21.8181 49.8182 21.8181C55.4414 21.8181 60 26.3767 60 31.9999C60 37.6232 55.4414 42.1818 49.8182 42.1818C44.1949 42.1818 39.6364 37.6232 39.6364 31.9999ZM47.123 27.3317L55.2086 31.9999L47.123 36.6681V27.3317Z" fill="white"/>
</svg>
