<svg width="32" height="32" viewBox="0 0 32 32" fill="none" xmlns="http://www.w3.org/2000/svg">
<g clip-path="url(#clip0_1967_17385)">
<path fill-rule="evenodd" clip-rule="evenodd" d="M12.8 28.1778C19.8692 28.1778 25.6 22.7654 25.6 16.0889C25.6 9.41238 19.8692 4 12.8 4C5.73076 4 0 9.41238 0 16.0889C0 22.7654 5.73076 28.1778 12.8 28.1778ZM14.3133 19.1579H16.5122L14.6683 16.2145C15.1417 16.0008 15.5082 15.6877 15.7678 15.2754C16.035 14.8555 16.1686 14.3363 16.1686 13.7179C16.1686 12.9009 15.8937 12.2672 15.344 11.8167C14.7943 11.3663 13.9468 11.141 12.8015 11.141H9.68641V19.1579H11.6677V16.6154H12.6183H12.7901L14.3133 19.1579ZM11.6677 14.9204V12.836H12.7099C13.1756 12.836 13.5154 12.92 13.7292 13.088C13.943 13.2483 14.0499 13.4926 14.0499 13.8209C14.0499 14.1798 13.9315 14.4547 13.6948 14.6455C13.4658 14.8288 13.1489 14.9204 12.7443 14.9204H11.6677ZM12.8 22.7205C18.0025 22.7205 21.8269 19.0449 21.8269 14.9661C21.8269 10.8874 18.0025 7.21175 12.8 7.21175C7.59757 7.21175 3.77314 10.8874 3.77314 14.9661C3.77314 19.0449 7.59757 22.7205 12.8 22.7205ZM12.8 24.51C18.7738 24.51 23.6164 20.2371 23.6164 14.9661C23.6164 9.69521 18.7738 5.42228 12.8 5.42228C6.82633 5.42228 1.98367 9.69521 1.98367 14.9661C1.98367 20.2371 6.82633 24.51 12.8 24.51ZM27.0222 18.4957V21.7778L32 16.4445L27.0222 11.1111V14.3932V18.4957Z" fill="white"/>
</g>
<defs>
<clipPath id="clip0_1967_17385">
<rect width="32" height="32" fill="white"/>
</clipPath>
</defs>
</svg>
