<svg width="64" height="64" viewBox="0 0 64 64" fill="none" xmlns="http://www.w3.org/2000/svg">
<g clip-path="url(#clip0_1967:17406)">
<path fill-rule="evenodd" clip-rule="evenodd" d="M38.4 57.1777C52.5385 57.1777 64 46.3529 64 32.9999C64 19.6469 52.5385 8.82214 38.4 8.82214C24.2615 8.82214 12.8 19.6469 12.8 32.9999C12.8 46.3529 24.2615 57.1777 38.4 57.1777ZM33.5951 39.1379H44.8187V35.5647H37.5577V23.1042H33.5951V39.1379ZM38.4001 48.0527C49.5763 48.0527 58.2434 40.1041 58.2434 30.7544C58.2434 21.4048 49.5763 13.4562 38.4001 13.4562C27.2239 13.4562 18.5568 21.4048 18.5568 30.7544C18.5568 40.1041 27.2239 48.0527 38.4001 48.0527ZM38.4001 49.8422C50.3476 49.8422 60.0329 41.2963 60.0329 30.7544C60.0329 20.2126 50.3476 11.6667 38.4001 11.6667C26.4527 11.6667 16.7674 20.2126 16.7674 30.7544C16.7674 41.2963 26.4527 49.8422 38.4001 49.8422ZM9.95556 37.8137V44.3778L0 33.7111L9.95556 23.0444V29.6085L9.95556 37.8137Z" fill="white"/>
</g>
<defs>
<clipPath id="clip0_1967:17406">
<rect width="64" height="64" fill="white"/>
</clipPath>
</defs>
</svg>
