<svg width="64" height="64" viewBox="0 0 64 64" fill="none" xmlns="http://www.w3.org/2000/svg">
<path fill-rule="evenodd" clip-rule="evenodd" d="M25.6 57.1777C39.7385 57.1777 51.2 46.3529 51.2 32.9999C51.2 19.6469 39.7385 8.82214 25.6 8.82214C11.4615 8.82214 0 19.6469 0 32.9999C0 46.3529 11.4615 57.1777 25.6 57.1777ZM20.795 39.1379H32.0186V35.5647H24.7576V23.1042H20.795V39.1379ZM25.6001 48.0527C36.7763 48.0527 45.4434 40.1041 45.4434 30.7544C45.4434 21.4048 36.7763 13.4562 25.6001 13.4562C14.4239 13.4562 5.75683 21.4048 5.75683 30.7544C5.75683 40.1041 14.4239 48.0527 25.6001 48.0527ZM25.6001 49.8422C37.5475 49.8422 47.2329 41.2963 47.2329 30.7544C47.2329 20.2126 37.5475 11.6667 25.6001 11.6667C13.6527 11.6667 3.96736 20.2126 3.96736 30.7544C3.96736 41.2963 13.6527 49.8422 25.6001 49.8422ZM54.0444 37.8137V44.3778L64 33.7111L54.0444 23.0444V29.6085V37.8137Z" fill="white"/>
</svg>
