<svg width="64" height="64" viewBox="0 0 64 64" fill="none" xmlns="http://www.w3.org/2000/svg">
<g clip-path="url(#clip0_1967:17413)">
<path fill-rule="evenodd" clip-rule="evenodd" d="M38.4 56.3556C52.5385 56.3556 64 45.5308 64 32.1778C64 18.8248 52.5385 8 38.4 8C24.2615 8 12.8 18.8248 12.8 32.1778C12.8 45.5308 24.2615 56.3556 38.4 56.3556ZM41.4266 38.3158H45.8244L42.1366 32.4291C43.0834 32.0015 43.8163 31.3755 44.3355 30.5509C44.87 29.711 45.1372 28.6727 45.1372 27.4358C45.1372 25.8019 44.5875 24.5344 43.488 23.6335C42.3886 22.7326 40.6936 22.2821 38.4031 22.2821H32.1728V38.3158H36.1354V33.2308H38.0366H38.3802L41.4266 38.3158ZM36.1354 29.8408V25.6721H38.2198C39.1513 25.6721 39.8308 25.84 40.2584 26.176C40.686 26.4967 40.8997 26.9853 40.8997 27.6419C40.8997 28.3596 40.6631 28.9093 40.1897 29.2911C39.7316 29.6576 39.0979 29.8408 38.2885 29.8408H36.1354ZM38.4001 47.2305C49.5763 47.2305 58.2434 39.2819 58.2434 29.9323C58.2434 20.5827 49.5763 12.6341 38.4001 12.6341C27.2239 12.6341 18.5568 20.5827 18.5568 29.9323C18.5568 39.2819 27.2239 47.2305 38.4001 47.2305ZM38.4001 49.02C50.3476 49.02 60.0329 40.4742 60.0329 29.9323C60.0329 19.3904 50.3476 10.8446 38.4001 10.8446C26.4527 10.8446 16.7674 19.3904 16.7674 29.9323C16.7674 40.4742 26.4527 49.02 38.4001 49.02ZM9.95556 36.9915V43.5556L0 32.889L9.95556 22.2223V28.7864L9.95556 36.9915Z" fill="white"/>
</g>
<defs>
<clipPath id="clip0_1967:17413">
<rect width="64" height="64" fill="white"/>
</clipPath>
</defs>
</svg>
