<svg width="64" height="64" viewBox="0 0 64 64" fill="none" xmlns="http://www.w3.org/2000/svg">
<g clip-path="url(#clip0_1967:17385)">
<path fill-rule="evenodd" clip-rule="evenodd" d="M25.6 56.3556C39.7385 56.3556 51.2 45.5308 51.2 32.1778C51.2 18.8248 39.7385 8 25.6 8C11.4615 8 0 18.8248 0 32.1778C0 45.5308 11.4615 56.3556 25.6 56.3556ZM28.6265 38.3158H33.0243L29.3366 32.4291C30.2834 32.0015 31.0163 31.3755 31.5355 30.5509C32.07 29.711 32.3372 28.6727 32.3372 27.4358C32.3372 25.8019 31.7875 24.5344 30.688 23.6335C29.5886 22.7326 27.8936 22.2821 25.603 22.2821H19.3728V38.3158H23.3354V33.2308H25.2366H25.5801L28.6265 38.3158ZM23.3354 29.8408V25.6721H25.4198C26.3513 25.6721 27.0308 25.84 27.4584 26.176C27.8859 26.4967 28.0997 26.9853 28.0997 27.6419C28.0997 28.3596 27.863 28.9093 27.3897 29.2911C26.9315 29.6576 26.2978 29.8408 25.4885 29.8408H23.3354ZM25.6001 47.2305C36.7763 47.2305 45.4434 39.2819 45.4434 29.9323C45.4434 20.5827 36.7763 12.6341 25.6001 12.6341C14.4239 12.6341 5.75682 20.5827 5.75682 29.9323C5.75682 39.2819 14.4239 47.2305 25.6001 47.2305ZM25.6001 49.02C37.5475 49.02 47.2328 40.4742 47.2328 29.9323C47.2328 19.3904 37.5475 10.8446 25.6001 10.8446C13.6527 10.8446 3.96734 19.3904 3.96734 29.9323C3.96734 40.4742 13.6527 49.02 25.6001 49.02ZM54.0445 36.9915V43.5556L64 32.889L54.0445 22.2223V28.7864V36.9915Z" fill="white"/>
</g>
<defs>
<clipPath id="clip0_1967:17385">
<rect width="64" height="64" fill="white"/>
</clipPath>
</defs>
</svg>
