<svg width="32" height="32" viewBox="0 0 32 32" fill="none" xmlns="http://www.w3.org/2000/svg">
<g clip-path="url(#clip0_1967_17392)">
<path fill-rule="evenodd" clip-rule="evenodd" d="M16 25.3023C23.398 25.3023 29.3953 19.6382 29.3953 12.6512C29.3953 5.66412 23.398 0 16 0C8.60192 0 2.60461 5.66412 2.60461 12.6512C2.60461 19.6382 8.60192 25.3023 16 25.3023ZM13.4858 15.8628H19.3586V13.9931H15.5592V7.47309H13.4858V15.8628ZM16 19.6744C21.4803 19.6744 25.53 15.8 25.53 11.4761C25.53 7.15223 21.4803 3.27783 16 3.27783C10.5197 3.27783 6.47004 7.15223 6.47004 11.4761C6.47004 15.8 10.5197 19.6744 16 19.6744ZM16 21.4639C22.2516 21.4639 27.3195 16.9922 27.3195 11.4761C27.3195 5.96002 22.2516 1.48835 16 1.48835C9.74846 1.48835 4.68056 5.96002 4.68056 11.4761C4.68056 16.9922 9.74846 21.4639 16 21.4639ZM13.9964 26.7907H10.7907L16 32L21.2093 26.7907H18.0035L13.9964 26.7907Z" fill="white"/>
</g>
<defs>
<clipPath id="clip0_1967_17392">
<rect width="32" height="32" fill="white"/>
</clipPath>
</defs>
</svg>
