<svg width="64" height="64" viewBox="0 0 64 64" fill="none" xmlns="http://www.w3.org/2000/svg">
<g clip-path="url(#clip0_1967:17371)">
<path fill-rule="evenodd" clip-rule="evenodd" d="M35.7978 10.4186L42.2093 10.4186L31.7907 0L21.3721 10.4186L27.7835 10.4186H35.7978ZM31.7907 64C46.5868 64 58.5814 52.6717 58.5814 38.6977C58.5814 24.7236 46.5868 13.3953 31.7907 13.3953C16.9946 13.3953 5 24.7236 5 38.6977C5 52.6717 16.9946 64 31.7907 64ZM34.958 45.1211H39.5604L35.7011 38.9606C36.6919 38.5132 37.459 37.858 38.0023 36.995C38.5616 36.1161 38.8413 35.0294 38.8413 33.735C38.8413 32.0251 38.266 30.6987 37.1154 29.7559C35.9648 28.813 34.191 28.3416 31.7939 28.3416H25.2739V45.1211H29.4208V39.7996H31.4104H31.77L34.958 45.1211ZM29.4208 36.2519V31.8893H31.6022C32.577 31.8893 33.2881 32.0651 33.7355 32.4166C34.183 32.7522 34.4067 33.2636 34.4067 33.9507C34.4067 34.7018 34.159 35.2771 33.6636 35.6766C33.1842 36.0602 32.521 36.2519 31.6741 36.2519H29.4208ZM31.7908 54.5337C43.5227 54.5337 52.6403 46.1876 52.6403 36.3476C52.6403 26.5076 43.5227 18.1616 31.7908 18.1616C20.0589 18.1616 10.9414 26.5076 10.9414 36.3476C10.9414 46.1876 20.0589 54.5337 31.7908 54.5337ZM31.7908 56.3231C44.2939 56.3231 54.4297 47.3798 54.4297 36.3476C54.4297 25.3154 44.2939 16.3721 31.7908 16.3721C19.2877 16.3721 9.15188 25.3154 9.15188 36.3476C9.15188 47.3798 19.2877 56.3231 31.7908 56.3231Z" fill="white"/>
</g>
<defs>
<clipPath id="clip0_1967:17371">
<rect width="64" height="64" fill="white"/>
</clipPath>
</defs>
</svg>
