<svg width="64" height="64" viewBox="0 0 64 64" fill="none" xmlns="http://www.w3.org/2000/svg">
<path fill-rule="evenodd" clip-rule="evenodd" d="M38.5689 7.50927V7.50933H48.581L38.7367 16.5964L38.7368 16.5964L36.2151 18.9242L36.215 18.9242L34.5449 20.4658L34.545 20.4658L32.3111 22.5279L32.311 22.5278L29.9382 20.3375L28.1908 18.7246L25.5818 16.3162L16.0409 7.50933H26.0534V0H38.5687V7.50927H38.5689ZM39.4695 19.7911L41.8001 17.6398C50.8629 21.362 57.2 29.8932 57.2 39.8222C57.2 53.1752 45.7385 63.9999 31.6 63.9999C17.4615 63.9999 6 53.1752 6 39.8222C6 29.5311 12.8077 20.7418 22.4019 17.252L24.788 19.4545C16.1782 21.9729 9.96732 29.1348 9.96732 37.5766C9.96732 48.1184 19.6526 56.6643 31.6001 56.6643C43.5475 56.6643 53.2328 48.1184 53.2328 37.5766C53.2328 29.4845 47.5258 22.5684 39.4695 19.7911ZM26.3413 20.8884L32.3111 26.3989L37.9628 21.182C45.8998 23.5179 51.4433 30.0992 51.4433 37.5766C51.4433 46.9262 42.7763 54.8748 31.6001 54.8748C20.4239 54.8748 11.7568 46.9262 11.7568 37.5766C11.7568 29.7571 17.8191 22.9177 26.3413 20.8884ZM34.6265 45.9601H39.0243L35.3366 40.0734C36.2834 39.6459 37.0163 39.0198 37.5355 38.1952C38.07 37.3553 38.3372 36.317 38.3372 35.0801C38.3372 33.4462 37.7875 32.1788 36.688 31.2778C35.5886 30.3769 33.8936 29.9264 31.603 29.9264H25.3728V45.9601H29.3354V40.8751H31.2366H31.5801L34.6265 45.9601ZM29.3354 37.4851V33.3164H31.4198C32.3513 33.3164 33.0308 33.4844 33.4584 33.8203C33.8859 34.141 34.0997 34.6296 34.0997 35.2862C34.0997 36.0039 33.863 36.5537 33.3897 36.9354C32.9315 37.3019 32.2978 37.4851 31.4885 37.4851H29.3354Z" fill="white"/>
</svg>
