<svg width="32" height="32" viewBox="0 0 32 32" fill="none" xmlns="http://www.w3.org/2000/svg">
<g clip-path="url(#clip0_1967_17195)">
<path fill-rule="evenodd" clip-rule="evenodd" d="M32 22.8571C32 10.2336 21.7666 0.00012207 9.14299 0.00012207C6.61827 0.00012207 4.33259 1.02346 2.67807 2.67798L13.5557 13.5557H14.5849V14.5848L17.0062 17.0061V13.5557H20.6328C21.9661 13.5557 22.9528 13.8179 23.5928 14.3423C24.2328 14.8668 24.5528 15.6045 24.5528 16.5556C24.5528 17.2756 24.3972 17.8801 24.0861 18.369C23.7839 18.849 23.3572 19.2134 22.8061 19.4623L24.9528 22.889H22.889L32 32L0.000198364 32L0.000183105 9.14293V32H32V22.8571ZM21.6512 21.6512L20.6195 19.929H20.4195H19.929L21.6512 21.6512ZM19.3128 17.9556V15.529H20.5261C21.0684 15.529 21.4639 15.6268 21.7128 15.8223C21.9617 16.009 22.0861 16.2934 22.0861 16.6756C22.0861 17.0934 21.9483 17.4134 21.6728 17.6356C21.4061 17.849 21.0372 17.9556 20.5661 17.9556H19.3128Z" fill="white"/>
<path opacity="0.5" fill-rule="evenodd" clip-rule="evenodd" d="M31.9999 32L2.67797 2.67798C1.02345 4.3325 0.000102997 6.6182 0.000102997 9.14292V32H31.9999Z" fill="white"/>
<path d="M14.5847 15.0357L10.1448 20.9156H14.7581V22.889H7.29144V21.3556L11.7048 15.529H7.50478V13.5557H14.5847V15.0357Z" fill="#B8BCBF"/>
<path d="M24.9526 22.889H22.3926L20.6193 19.929H20.4193H19.3127V22.889H17.006V13.5557H20.6327C21.966 13.5557 22.9526 13.8179 23.5926 14.3423C24.2326 14.8668 24.5526 15.6045 24.5526 16.5556C24.5526 17.2756 24.3971 17.8801 24.086 18.369C23.7838 18.849 23.3571 19.2134 22.806 19.4623L24.9526 22.889ZM19.3127 15.529V17.9556H20.566C21.0371 17.9556 21.406 17.849 21.6727 17.6356C21.9482 17.4134 22.086 17.0934 22.086 16.6756C22.086 16.2934 21.9615 16.009 21.7127 15.8223C21.4638 15.6268 21.0682 15.529 20.526 15.529H19.3127Z" fill="#B8BCBF"/>
</g>
<defs>
<clipPath id="clip0_1967_17195">
<rect width="32" height="32" fill="white"/>
</clipPath>
</defs>
</svg>
