<svg width="32" height="32" viewBox="0 0 32 32" fill="none" xmlns="http://www.w3.org/2000/svg">
<path fill-rule="evenodd" clip-rule="evenodd" d="M19.2844 3.75464V3.75467H24.2905L19.3683 8.29817L18.1074 9.46208L16.3875 11.0497L16.1555 11.2639L16.1555 11.2639L15.9068 11.0344L14.0953 9.36227L12.7908 8.1581L8.02043 3.75467H13.0267V0H19.2843V3.75464H19.2844ZM19.7347 9.89555L20.9 8.81986C25.4314 10.681 28.5999 14.9466 28.5999 19.9111C28.5999 26.5876 22.8692 31.9999 15.7999 31.9999C8.73069 31.9999 2.99994 26.5876 2.99994 19.9111C2.99994 14.7656 6.40378 10.3709 11.2009 8.62596L12.3939 9.72724C8.08902 10.9864 4.98359 14.5674 4.98359 18.7883C4.98359 24.0592 9.82624 28.3321 15.8 28.3321C21.7737 28.3321 26.6163 24.0592 26.6163 18.7883C26.6163 14.7422 23.7628 11.2842 19.7347 9.89555ZM13.9778 11.1893L16.1555 13.1994L18.2043 11.3082C22.1388 12.2327 24.8269 15.3688 24.8269 18.7883C24.8269 22.867 21.0024 26.5427 15.8 26.5427C10.5975 26.5427 6.77306 22.867 6.77306 18.7883C6.77306 15.2027 9.72866 11.9285 13.9778 11.1893ZM17.3132 22.9801H19.5121L17.6683 20.0367C18.1416 19.8229 18.5081 19.5099 18.7677 19.0976C19.035 18.6777 19.1686 18.1585 19.1686 17.5401C19.1686 16.7231 18.8937 16.0894 18.344 15.6389C17.7942 15.1884 16.9468 14.9632 15.8015 14.9632H12.6864V22.9801H14.6677V20.4376H15.6182H15.79L17.3132 22.9801ZM14.6677 18.7426V16.6582H15.7099C16.1756 16.6582 16.5154 16.7422 16.7292 16.9102C16.9429 17.0705 17.0498 17.3148 17.0498 17.6431C17.0498 18.002 16.9315 18.2768 16.6948 18.4677C16.4657 18.651 16.1489 18.7426 15.7442 18.7426H14.6677Z" fill="white"/>
</svg>
