<svg width="32" height="32" viewBox="0 0 32 32" fill="none" xmlns="http://www.w3.org/2000/svg">
<path d="M9.93872 2.21033C13.8143 -1.66505 15.8873 1.8435 19.7629 5.71912L27.9485 15.5443C31.8241 19.42 32.0595 24.2995 28.1838 28.1752L27.4817 28.8773C23.6061 32.7525 17.3231 32.7525 13.4475 28.8773L5.3772 21.5082C1.50154 17.6325 0.114134 16.9468 2.92114 12.0345L9.93872 2.21033ZM12.2356 12.0004C11.4438 12.0004 10.728 12.1721 10.0881 12.516C9.44815 12.852 8.93972 13.3557 8.56372 14.0277C8.18772 14.6997 8.00024 15.5122 8.00024 16.4642C8.00028 17.4241 8.19245 18.2284 8.57642 18.8763C8.96833 19.524 9.4761 20.0039 10.0999 20.3158C10.7239 20.6198 11.3965 20.7719 12.1165 20.7719C12.8043 20.7718 13.4361 20.6599 14.012 20.4359C14.5878 20.204 15.0637 19.896 15.4397 19.5121V15.6722H11.6965V17.0883H13.76V18.6361C13.352 18.9801 12.824 19.1517 12.176 19.1517C11.4961 19.1517 10.94 18.912 10.5081 18.432C10.0841 17.944 9.87231 17.2556 9.87231 16.3676C9.87238 15.4798 10.0925 14.7994 10.5325 14.3275C10.9804 13.8559 11.5722 13.6195 12.3079 13.6195C13.0758 13.6195 13.7718 13.8323 14.3958 14.2562L15.26 12.9603C14.8921 12.6804 14.4563 12.4517 13.9524 12.2758C13.4484 12.0918 12.8756 12.0004 12.2356 12.0004ZM17.0549 20.5922H18.8196V17.7601H20.2717L21.9631 20.5922H23.9192L21.9397 17.4115C22.4514 17.1875 22.8473 16.8599 23.1272 16.4281C23.4152 15.9961 23.5598 15.456 23.5598 14.808C23.5598 13.984 23.2874 13.3441 22.7434 12.8881C22.1994 12.4241 21.3514 12.1918 20.1995 12.1918H17.0549V20.5922ZM20.0911 13.6918C20.6431 13.6918 21.0433 13.7963 21.2913 14.0043C21.5472 14.2043 21.675 14.5084 21.675 14.9164C21.675 15.3321 21.5433 15.6599 21.2795 15.8998C21.0236 16.1318 20.6634 16.2484 20.1995 16.2484H18.8196V13.6918H20.0911Z" fill="white"/>
</svg>
