<svg width="32" height="32" viewBox="0 0 32 32" fill="none" xmlns="http://www.w3.org/2000/svg">
<path fill-rule="evenodd" clip-rule="evenodd" d="M16 12.1818C18.8116 12.1818 21.0909 9.90254 21.0909 7.09091C21.0909 4.27928 18.8116 2 16 2C13.1883 2 10.9091 4.27928 10.9091 7.09091C10.9091 9.90254 13.1883 12.1818 16 12.1818ZM18.3341 8.43854L16 4.39576L13.6659 8.43854H18.3341Z" fill="white"/>
<path fill-rule="evenodd" clip-rule="evenodd" d="M16 19.8182C18.8116 19.8182 21.0909 22.0975 21.0909 24.9091C21.0909 27.7207 18.8116 30 16 30C13.1883 30 10.9091 27.7207 10.9091 24.9091C10.9091 22.0975 13.1883 19.8182 16 19.8182ZM18.3341 23.5615L16 27.6042L13.6659 23.5615H18.3341Z" fill="white"/>
<path fill-rule="evenodd" clip-rule="evenodd" d="M12.1818 16C12.1818 13.1884 9.90254 10.9091 7.09091 10.9091C4.27928 10.9091 2 13.1884 2 16C2 18.8117 4.27928 21.0909 7.09091 21.0909C9.90254 21.0909 12.1818 18.8117 12.1818 16ZM8.43848 13.6659L4.3957 16L8.43848 18.3341V13.6659Z" fill="white"/>
<path fill-rule="evenodd" clip-rule="evenodd" d="M19.8182 16C19.8182 13.1884 22.0975 10.9091 24.9091 10.9091C27.7207 10.9091 30 13.1884 30 16C30 18.8117 27.7207 21.0909 24.9091 21.0909C22.0975 21.0909 19.8182 18.8117 19.8182 16ZM23.5615 13.6659L27.6043 16L23.5615 18.3341V13.6659Z" fill="white"/>
</svg>
