<svg width="32" height="32" viewBox="0 0 32 32" fill="none" xmlns="http://www.w3.org/2000/svg">
<g clip-path="url(#clip0_1967_17364)">
<path fill-rule="evenodd" clip-rule="evenodd" d="M18.0036 5.2093L21.2093 5.2093L16 0L10.7907 5.2093L13.9964 5.2093H18.0036ZM16 32C23.3981 32 29.3954 26.3359 29.3954 19.3488C29.3954 12.3618 23.3981 6.69768 16 6.69768C8.60198 6.69768 2.60468 12.3618 2.60468 19.3488C2.60468 26.3359 8.60198 32 16 32ZM13.4858 22.5606H19.3586V20.6908H15.5593V14.1708H13.4858V22.5606ZM16.0001 26.3721C21.4804 26.3721 25.5301 22.4977 25.5301 18.1738C25.5301 13.8499 21.4804 9.97552 16.0001 9.97552C10.5198 9.97552 6.4701 13.8499 6.4701 18.1738C6.4701 22.4977 10.5198 26.3721 16.0001 26.3721ZM16.0001 28.1616C22.2517 28.1616 27.3196 23.6899 27.3196 18.1738C27.3196 12.6577 22.2517 8.18604 16.0001 8.18604C9.74853 8.18604 4.68063 12.6577 4.68063 18.1738C4.68063 23.6899 9.74853 28.1616 16.0001 28.1616Z" fill="white"/>
</g>
<defs>
<clipPath id="clip0_1967_17364">
<rect width="32" height="32" fill="white"/>
</clipPath>
</defs>
</svg>
