<svg width="32" height="32" viewBox="0 0 32 32" fill="none" xmlns="http://www.w3.org/2000/svg">
<path d="M32 20C32 8.95431 23.0457 0 12 0H0V32H32V20Z" fill="white"/>
<path d="M20.5 24H17.9228L16.1376 20.9871H15.9362H14.8221V24H12.5V14.5H16.151C17.4933 14.5 18.4866 14.7669 19.1309 15.3007C19.7752 15.8345 20.0973 16.5855 20.0973 17.5536C20.0973 18.2864 19.9407 18.9017 19.6275 19.3993C19.3233 19.8879 18.8937 20.2588 18.3389 20.5121L20.5 24ZM14.8221 16.5086V18.9786H16.0839C16.5582 18.9786 16.9295 18.87 17.198 18.6529C17.4754 18.4267 17.6141 18.101 17.6141 17.6757C17.6141 17.2867 17.4888 16.9971 17.2383 16.8071C16.9877 16.6081 16.5895 16.5086 16.0436 16.5086H14.8221Z" fill="#B8BCBF"/>
</svg>
