<svg width="32" height="32" viewBox="0 0 32 32" fill="none" xmlns="http://www.w3.org/2000/svg">
<g clip-path="url(#clip0_1967_17406)">
<path fill-rule="evenodd" clip-rule="evenodd" d="M19.2 28.5889C26.2693 28.5889 32 23.1765 32 16.5C32 9.82351 26.2693 4.41113 19.2 4.41113C12.1308 4.41113 6.40002 9.82351 6.40002 16.5C6.40002 23.1765 12.1308 28.5889 19.2 28.5889ZM16.7976 19.569H22.4093V17.7824H18.7789V11.5522H16.7976V19.569ZM19.2001 23.1317C24.4025 23.1317 28.227 19.456 28.227 15.3773C28.227 11.2986 24.4025 7.62289 19.2001 7.62289C13.9976 7.62289 10.1732 11.2986 10.1732 15.3773C10.1732 19.456 13.9976 23.1317 19.2001 23.1317ZM19.2001 24.9211C25.1738 24.9211 30.0165 20.6482 30.0165 15.3773C30.0165 10.1063 25.1738 5.83341 19.2001 5.83341C13.2264 5.83341 8.3837 10.1063 8.3837 15.3773C8.3837 20.6482 13.2264 24.9211 19.2001 24.9211ZM4.97778 18.9069V22.1889L0 16.8556L4.97778 11.5223V14.8043L4.97778 18.9069Z" fill="white"/>
</g>
<defs>
<clipPath id="clip0_1967_17406">
<rect width="32" height="32" fill="white"/>
</clipPath>
</defs>
</svg>
