<svg width="32" height="32" viewBox="0 0 32 32" fill="none" xmlns="http://www.w3.org/2000/svg">
<path d="M30.5 30.5H1.5V1.5H30.5V30.5ZM16.6123 9C15.3203 9 14.1735 9.2786 13.1729 9.83594C12.1722 10.3806 11.3933 11.1792 10.8359 12.2305C10.2788 13.2817 10 14.5417 10 16.0107C10 17.4547 10.2727 18.6967 10.8174 19.7354C11.3747 20.7738 12.141 21.5658 13.1162 22.1104C14.0915 22.6422 15.2061 22.9082 16.46 22.9082C17.4606 22.9082 18.3788 22.7493 19.2148 22.4326C20.0635 22.116 20.7541 21.698 21.2861 21.1787L19.918 19.1836C19.4241 19.5635 18.9176 19.8491 18.3984 20.0391C17.8792 20.229 17.309 20.3242 16.6885 20.3242C15.5486 20.3242 14.6361 19.9631 13.9521 19.2412C13.2809 18.5066 12.9454 17.4361 12.9453 16.0303C12.9453 15.0549 13.1101 14.2309 13.4395 13.5596C13.7814 12.8885 14.2368 12.3878 14.8066 12.0586C15.3765 11.7293 16.0164 11.5655 16.7256 11.5654C17.2703 11.5654 17.8029 11.641 18.3223 11.793C18.8415 11.945 19.3096 12.1609 19.7275 12.4395L21.0195 10.2539C20.5256 9.87403 19.8857 9.56974 19.1006 9.3418C18.3155 9.11391 17.486 9.00003 16.6123 9Z" fill="white"/>
</svg>
