<svg width="64" height="64" viewBox="0 0 64 64" fill="none" xmlns="http://www.w3.org/2000/svg">
<g clip-path="url(#clip0_1967:18031)">
<path fill-rule="evenodd" clip-rule="evenodd" d="M40.4968 22.377L61.6057 1.26812C60.9476 0.492349 59.9657 0 58.8687 0H6.32676C3.65994 0 1.86355 2.83158 2.86134 5.3047C5.14034 10.9534 8.26394 20.1905 8.26394 28.3864C8.26394 37.529 3.08138 51.8542 0.0606814 59.4272C-0.377361 60.5254 -0.249421 61.6785 0.265065 62.6087L23.1819 39.6919H21.3493V22.377H25.6285V35.8331H27.0406L36.8359 26.0379H33.718V22.377H40.4968Z" fill="white"/>
<path opacity="0.5" fill-rule="evenodd" clip-rule="evenodd" d="M23.1818 39.692L0.241699 62.6321C0.860263 63.732 2.02158 64.5144 3.42533 64.5144H31.4527C46.9362 64.5144 62.4196 51.6115 62.4196 25.8057V3.58728C62.4196 2.71229 62.1064 1.91047 61.5859 1.28784L40.4967 22.3771H48.0893V26.0379H43.0432V39.692H38.764V26.0379H36.8358L27.0405 35.8332H33.4696V39.692H23.1818Z" fill="white"/>
</g>
<defs>
<clipPath id="clip0_1967:18031">
<rect width="64" height="64" fill="white"/>
</clipPath>
</defs>
</svg>
