<svg width="32" height="32" viewBox="0 0 32 32" fill="none" xmlns="http://www.w3.org/2000/svg">
<g clip-path="url(#clip0_1967_18023)">
<path fill-rule="evenodd" clip-rule="evenodd" d="M6.53576 0H28.282C30.175 0 31.7097 1.53464 31.7097 3.42771V12.8C31.7097 25.6 24.0297 32.0001 16.3496 32.0001H4.98403C2.50354 32.0001 0.810881 29.4348 1.67094 27.1082C3.11555 23.2002 4.82962 17.7831 4.82962 14.08C4.82962 11.0701 3.98027 7.77704 3.08048 5.13292C2.25959 2.72067 3.98766 0 6.53576 0ZM11.4917 19.8523H17.5895V17.911H13.6446V11.1412H11.4917V19.8523ZM20.2531 19.8523H22.406V12.983H24.9447V11.1412H17.7144V12.983H20.2531V19.8523Z" fill="white"/>
</g>
<defs>
<clipPath id="clip0_1967_18023">
<rect width="32" height="32" fill="white"/>
</clipPath>
</defs>
</svg>
