<svg width="32" height="32" viewBox="0 0 32 32" fill="none" xmlns="http://www.w3.org/2000/svg">
<path fill-rule="evenodd" clip-rule="evenodd" d="M10.2857 26.1052H26.9474C29.7379 26.1052 32 23.843 32 21.0525C32 12.6811 25.2136 5.89465 16.8421 5.89465H10.2857H10.1053C4.52428 5.89465 0 10.4189 0 15.9999C0 21.5809 4.52428 26.1052 10.1053 26.1052H10.2857ZM9.02956 20.9427H14.8064V19.1036H11.0691V12.6901H9.02956V20.9427ZM22.9712 17.3116C22.7433 16.9736 22.3543 16.7142 21.8041 16.5335C22.5036 16.1641 22.8534 15.5825 22.8534 14.7886C22.8534 14.1206 22.6176 13.6058 22.146 13.2442C21.6823 12.8748 20.9513 12.6901 19.9531 12.6901H16.6875V20.9427H20.2832C20.8963 20.9427 21.4308 20.8445 21.8866 20.648C22.3503 20.4515 22.704 20.1725 22.9477 19.8109C23.1992 19.4494 23.3249 19.025 23.3249 18.5377C23.3249 18.0582 23.207 17.6495 22.9712 17.3116ZM18.7624 16.0501V14.376H19.8117C20.4955 14.376 20.8374 14.6432 20.8374 15.1777C20.8374 15.4606 20.7509 15.6768 20.578 15.8261C20.4129 15.9754 20.1693 16.0501 19.847 16.0501H18.7624ZM20.8609 19.0211C20.688 19.1861 20.4247 19.2686 20.071 19.2686H18.7624V17.5002H20.1182C20.7941 17.5002 21.1321 17.7832 21.1321 18.3491C21.1321 18.6241 21.0417 18.8481 20.8609 19.0211Z" fill="white"/>
</svg>
