<svg width="32" height="32" viewBox="0 0 32 32" fill="none" xmlns="http://www.w3.org/2000/svg">
<g clip-path="url(#clip0_1967_18031)">
<path fill-rule="evenodd" clip-rule="evenodd" d="M20.2483 11.1885L30.2796 1.15728C29.624 0.445752 28.6844 0 27.6406 0H6.06564C3.39882 0 1.58939 2.84696 2.43676 5.37558C3.3181 8.00558 4.13194 11.235 4.13194 14.1932C4.13194 17.8658 2.4594 23.2109 1.01856 27.1342C0.62831 28.1968 0.745023 29.3068 1.21602 30.2208L11.5909 19.846H10.6746V11.1885H12.8142V17.9166H13.5203L18.4179 13.0189H16.8589V11.1885H20.2483Z" fill="white"/>
<path opacity="0.5" fill-rule="evenodd" clip-rule="evenodd" d="M11.591 19.846L1.2041 30.2328C1.8152 31.4087 3.01374 32.2572 4.47279 32.2572H15.7264C23.4681 32.2572 31.2099 25.8057 31.2099 12.9028V3.58733C31.2099 2.65448 30.8538 1.80479 30.2702 1.16675L20.2484 11.1885H24.0448V13.019H21.5218V19.846H19.3822V13.019H18.418L13.5203 17.9166H16.735V19.846H11.591Z" fill="white"/>
</g>
<defs>
<clipPath id="clip0_1967_18031">
<rect width="32" height="32" fill="white"/>
</clipPath>
</defs>
</svg>
