<svg width="32" height="32" viewBox="0 0 32 32" fill="none" xmlns="http://www.w3.org/2000/svg">
<g clip-path="url(#clip0_1967_18027)">
<path fill-rule="evenodd" clip-rule="evenodd" d="M13.7656 30.2456H32V13.7207C32 13.7207 25.2359 7.31245 23.7974 5.88562C21.2228 3.3319 17.6784 1.75439 13.7656 1.75439C5.89799 1.75439 -0.47998 8.13237 -0.47998 16C-0.47998 23.8676 5.89799 30.2456 13.7656 30.2456ZM10.1362 13.784V21.5399H12.0531V19.1134H12.9948C13.6596 19.1134 14.2284 18.9878 14.7011 18.7367C15.1739 18.4856 15.5284 18.1495 15.7648 17.7284C16.0012 17.3 16.1194 16.8273 16.1194 16.3102C16.1194 15.5346 15.8498 14.9215 15.3105 14.4709C14.7787 14.013 14.0105 13.784 13.0059 13.784H10.1362ZM13.7815 17.1855C13.5895 17.3776 13.3199 17.4736 12.9727 17.4736H12.0531V15.4238H12.9505C13.3125 15.4238 13.5895 15.5051 13.7815 15.6676C13.9736 15.8301 14.0696 16.0738 14.0696 16.3988C14.0696 16.7312 13.9736 16.9935 13.7815 17.1855ZM21.763 19.9001V13.784H20.2783L17.6635 15.0803L18.2729 16.5096L19.813 15.9002V19.9001H18.018V21.5399H23.2145V19.9001H21.763Z" fill="white"/>
</g>
<defs>
<clipPath id="clip0_1967_18027">
<rect width="32" height="32" fill="white"/>
</clipPath>
</defs>
</svg>
