<svg width="64" height="64" viewBox="0 0 64 64" fill="none" xmlns="http://www.w3.org/2000/svg">
<g clip-path="url(#clip0_1967:18045)">
<path fill-rule="evenodd" clip-rule="evenodd" d="M48.2907 54.0427L63.9175 38.5724L64.0799 0L25.5075 0.162463L10.0372 15.7892C-0.615557 26.442 -0.687999 43.6411 9.8754 54.2045C20.4388 64.7679 37.6379 64.6955 48.2907 54.0427ZM43.806 25.9382C42.7762 25.1461 41.2473 24.75 39.2194 24.75C38.0787 24.75 36.9855 24.9243 35.9398 25.2728C34.91 25.6055 33.9832 26.1046 33.1593 26.77L34.8704 29.4079C35.3616 29.0435 35.924 28.7583 36.5577 28.5524C37.1915 28.3306 37.8331 28.2197 38.4827 28.2197C39.2907 28.2197 39.9165 28.3781 40.3601 28.695C40.8196 29.0118 41.0493 29.4238 41.0493 29.9308C41.0493 30.4694 40.8196 30.8893 40.3601 31.1903C39.9165 31.4755 39.2907 31.6181 38.4827 31.6181H36.4389V34.66H38.7679C40.7008 34.66 41.6672 35.3096 41.6672 36.6087C41.6672 37.2741 41.4058 37.797 40.8829 38.1772C40.376 38.5416 39.663 38.7238 38.7441 38.7238C37.0647 38.7238 35.6547 38.2247 34.5139 37.2266L32.8266 40.2685C33.5713 40.8864 34.4981 41.3617 35.6071 41.6944C36.7162 42.0271 37.8886 42.1935 39.1243 42.1935C40.3918 42.1935 41.5484 41.9796 42.594 41.5518C43.6555 41.1082 44.4952 40.4903 45.1131 39.6982C45.731 38.8901 46.04 37.9554 46.04 36.8939C46.04 35.7373 45.7231 34.8184 45.0894 34.1371C44.4715 33.4559 43.6318 33.0044 42.5703 32.7825V32.6875C43.4733 32.3072 44.1625 31.8003 44.6378 31.1665C45.1131 30.5328 45.3508 29.8119 45.3508 29.0039C45.3508 27.7523 44.8359 26.7304 43.806 25.9382ZM17.3709 25.154V41.7895H21.4822V36.5849H23.5022C24.9281 36.5849 26.1481 36.3156 27.1621 35.7769C28.176 35.2383 28.9365 34.5174 29.4435 33.6143C29.9505 32.6954 30.204 31.6814 30.204 30.5724C30.204 28.9089 29.6257 27.5939 28.4691 26.6274C27.3284 25.6451 25.6807 25.154 23.526 25.154H17.3709ZM25.1896 32.4498C24.7776 32.8618 24.1994 33.0677 23.4547 33.0677H21.4822V28.6712H23.4072C24.1835 28.6712 24.7776 28.8455 25.1896 29.194C25.6015 29.5426 25.8074 30.0654 25.8074 30.7625C25.8074 31.4755 25.6015 32.0379 25.1896 32.4498Z" fill="white"/>
</g>
<defs>
<clipPath id="clip0_1967:18045">
<rect width="64" height="64" fill="white"/>
</clipPath>
</defs>
</svg>
