<svg width="64" height="64" viewBox="0 0 64 64" fill="none" xmlns="http://www.w3.org/2000/svg">
<path fill-rule="evenodd" clip-rule="evenodd" d="M20.5714 52.2105H57.7744C61.2127 52.2105 64 49.4232 64 45.9849V30.4661C64 20.1513 55.6382 11.7894 45.3233 11.7894H20.5714H20.2105C9.04856 11.7894 0 20.838 0 32C0 43.1619 9.04856 52.2105 20.2105 52.2105H20.5714ZM18.0591 41.8856H29.6128V38.2072H22.1383V25.3803H18.0591V41.8856ZM45.9425 34.6232C45.4866 33.9473 44.7085 33.4286 43.6082 33.067C45.0072 32.3282 45.7067 31.165 45.7067 29.5773C45.7067 28.2412 45.2351 27.2116 44.292 26.4885C43.3645 25.7497 41.9026 25.3803 39.9063 25.3803H33.3749V41.8856H40.5665C41.7926 41.8856 42.8615 41.6891 43.7732 41.2961C44.7006 40.9031 45.408 40.3451 45.8953 39.622C46.3983 38.8989 46.6498 38.05 46.6498 37.0754C46.6498 36.1166 46.4141 35.2992 45.9425 34.6232ZM37.5248 32.1003V28.7521H39.6233C40.9909 28.7521 41.6747 29.2865 41.6747 30.3554C41.6747 30.9213 41.5018 31.3536 41.1559 31.6523C40.8258 31.951 40.3385 32.1003 39.6941 32.1003H37.5248ZM41.7218 38.0422C41.376 38.3723 40.8494 38.5373 40.1421 38.5373H37.5248V35.0005H40.2364C41.5882 35.0005 42.2642 35.5664 42.2642 36.6982C42.2642 37.2484 42.0834 37.6964 41.7218 38.0422Z" fill="white"/>
</svg>
