<svg width="32" height="32" viewBox="0 0 32 32" fill="none" xmlns="http://www.w3.org/2000/svg">
<path fill-rule="evenodd" clip-rule="evenodd" d="M10.2857 26.1053H26.9474C29.7379 26.1053 32 23.8432 32 21.0527C32 12.6812 25.2136 5.89478 16.8421 5.89478H10.2857H10.1053C4.52428 5.89478 0 10.4191 0 16C0 21.581 4.52428 26.1053 10.1053 26.1053H10.2857ZM13.1938 21.0877H15.4574L13.5593 18.0578C14.0466 17.8378 14.4239 17.5155 14.6911 17.0911C14.9662 16.6588 15.1037 16.1244 15.1037 15.4877C15.1037 14.6468 14.8208 13.9944 14.2549 13.5307C13.689 13.067 12.8166 12.8351 11.6376 12.8351H8.43087V21.0877H10.4704V18.4705H11.449H11.6258L13.1938 21.0877ZM10.4704 16.7256V14.5799H11.5433C12.0227 14.5799 12.3725 14.6664 12.5926 14.8393C12.8126 15.0044 12.9227 15.2559 12.9227 15.5938C12.9227 15.9632 12.8008 16.2462 12.5572 16.4427C12.3214 16.6313 11.9952 16.7256 11.5787 16.7256H10.4704ZM23.5699 17.4566C23.342 17.1186 22.9529 16.8592 22.4028 16.6785C23.1023 16.3091 23.452 15.7275 23.452 14.9336C23.452 14.2656 23.2162 13.7508 22.7447 13.3892C22.2809 13.0198 21.55 12.8351 20.5518 12.8351H17.2861V21.0877H20.8819C21.495 21.0877 22.0294 20.9895 22.4853 20.793C22.949 20.5965 23.3027 20.3175 23.5463 19.9559C23.7979 19.5944 23.9236 19.17 23.9236 18.6827C23.9236 18.2032 23.8057 17.7945 23.5699 17.4566ZM19.3611 16.1951V14.521H20.4103C21.0941 14.521 21.436 14.7882 21.436 15.3227C21.436 15.6056 21.3496 15.8218 21.1767 15.9711C21.0116 16.1204 20.768 16.1951 20.4457 16.1951H19.3611ZM21.4596 19.1661C21.2867 19.3311 21.0234 19.4136 20.6697 19.4136H19.3611V17.6452H20.7169C21.3928 17.6452 21.7308 17.9282 21.7308 18.4941C21.7308 18.7691 21.6404 18.9931 21.4596 19.1661Z" fill="white"/>
</svg>
