<svg width="32" height="32" viewBox="0 0 32 32" fill="none" xmlns="http://www.w3.org/2000/svg">
<g clip-path="url(#clip0_1967_18045)">
<path fill-rule="evenodd" clip-rule="evenodd" d="M24.1453 27.0214L31.9587 19.2862L32.04 0L12.7537 0.0812315L5.0186 7.89462C-0.307779 13.221 -0.344 21.8206 4.9377 27.1023C10.2194 32.384 18.819 32.3477 24.1453 27.0214ZM21.903 12.9691C21.3881 12.573 20.6237 12.375 19.6097 12.375C19.0394 12.375 18.4928 12.4621 17.9699 12.6364C17.455 12.8028 16.9916 13.0523 16.5797 13.385L17.4352 14.7039C17.6808 14.5218 17.962 14.3792 18.2789 14.2762C18.5957 14.1653 18.9166 14.1098 19.2414 14.1098C19.6454 14.1098 19.9583 14.189 20.1801 14.3475C20.4098 14.5059 20.5247 14.7119 20.5247 14.9654C20.5247 15.2347 20.4098 15.4446 20.1801 15.5951C19.9583 15.7377 19.6454 15.809 19.2414 15.809H18.2195V17.33H19.3839C20.3504 17.33 20.8336 17.6548 20.8336 18.3043C20.8336 18.6371 20.7029 18.8985 20.4415 19.0886C20.188 19.2708 19.8315 19.3619 19.3721 19.3619C18.5324 19.3619 17.8273 19.1124 17.257 18.6133L16.4133 20.1342C16.7856 20.4432 17.2491 20.6808 17.8036 20.8472C18.3581 21.0135 18.9443 21.0967 19.5622 21.0967C20.1959 21.0967 20.7742 20.9898 21.297 20.7759C21.8278 20.5541 22.2476 20.2451 22.5566 19.8491C22.8655 19.4451 23.02 18.9777 23.02 18.4469C23.02 17.8687 22.8616 17.4092 22.5447 17.0686C22.2357 16.7279 21.8159 16.5022 21.2851 16.3913V16.3437C21.7367 16.1536 22.0813 15.9001 22.3189 15.5833C22.5566 15.2664 22.6754 14.906 22.6754 14.5019C22.6754 13.8761 22.4179 13.3652 21.903 12.9691ZM8.68545 12.577V20.8947H10.7411V18.2925H11.7511C12.4641 18.2925 13.0741 18.1578 13.581 17.8885C14.088 17.6191 14.4683 17.2587 14.7218 16.8071C14.9753 16.3477 15.102 15.8407 15.102 15.2862C15.102 14.4544 14.8129 13.7969 14.2346 13.3137C13.6642 12.8226 12.8404 12.577 11.763 12.577H8.68545ZM12.5948 16.2249C12.3888 16.4309 12.0997 16.5339 11.7274 16.5339H10.7411V14.3356H11.7036C12.0918 14.3356 12.3888 14.4227 12.5948 14.597C12.8008 14.7713 12.9037 15.0327 12.9037 15.3813C12.9037 15.7377 12.8008 16.0189 12.5948 16.2249Z" fill="white"/>
</g>
<defs>
<clipPath id="clip0_1967_18045">
<rect width="32" height="32" fill="white"/>
</clipPath>
</defs>
</svg>
