<svg width="64" height="64" viewBox="0 0 64 64" fill="none" xmlns="http://www.w3.org/2000/svg">
<g clip-path="url(#clip0_1967:18027)">
<path fill-rule="evenodd" clip-rule="evenodd" d="M27.5312 60.4913H64V27.4415C64 27.4415 50.4718 14.625 47.5948 11.7714C42.4456 6.66393 35.3568 3.50891 27.5312 3.50891C11.796 3.50891 -0.959961 16.2649 -0.959961 32.0001C-0.959961 47.7354 11.796 60.4913 27.5312 60.4913ZM20.2723 27.5681V43.08H24.106V38.227H25.9896C27.3192 38.227 28.4567 37.9758 29.4022 37.4735C30.3477 36.9712 31.0568 36.2991 31.5295 35.457C32.0023 34.6001 32.2386 33.6547 32.2386 32.6205C32.2386 31.0693 31.6994 29.8432 30.621 28.942C29.5573 28.0261 28.0209 27.5681 26.0117 27.5681H20.2723ZM27.5629 34.3712C27.1788 34.7553 26.6396 34.9473 25.9452 34.9473H24.106V30.8478H25.9009C26.6248 30.8478 27.1788 31.0103 27.5629 31.3353C27.947 31.6603 28.1391 32.1478 28.1391 32.7978C28.1391 33.4626 27.947 33.9871 27.5629 34.3712ZM43.5259 39.8003V27.5681H40.5565L35.3268 30.1608L36.5456 33.0194L39.6258 31.8006V39.8003H36.0359V43.08H46.4289V39.8003H43.5259Z" fill="white"/>
</g>
<defs>
<clipPath id="clip0_1967:18027">
<rect width="64" height="64" fill="white"/>
</clipPath>
</defs>
</svg>
