<svg width="64" height="64" viewBox="0 0 64 64" fill="none" xmlns="http://www.w3.org/2000/svg">
<path d="M29.1128 60.8795C24.6479 60.4545 20.125 58.8508 16.2344 56.3133C12.9761 54.1879 12.2405 53.3185 12.2405 51.5731C12.2405 48.0759 16.0924 41.9446 22.6736 34.9632C26.4158 30.9959 31.6227 26.3459 32.184 26.4682C33.2809 26.713 42.0364 35.253 45.3141 39.2654C50.5016 45.6286 52.8889 50.8324 51.6759 53.151C50.7532 54.9157 45.0431 58.3613 40.8492 59.6816C37.3909 60.7765 32.8486 61.2402 29.1128 60.8795ZM7.84662 47.9407C5.14318 43.793 3.77533 39.7034 3.11076 33.7975C2.89139 31.846 2.96882 30.7318 3.60758 26.7258C4.40119 21.7345 7.24012 15.9638 10.6597 12.4087C12.1179 10.8952 12.247 10.8566 14.0213 11.4555C16.1763 12.1833 18.4733 13.7677 22.0413 16.9943L24.1253 18.8749L22.9897 20.2725C17.7055 26.7516 12.1373 35.9357 10.0403 41.6162C8.89832 44.7011 8.44022 47.8054 8.93058 49.0935C9.25963 49.963 8.95639 49.641 7.84662 47.9407ZM55.3342 48.6427C55.5988 47.3417 55.2633 44.9459 54.4696 42.5307C52.7598 37.3011 47.0239 27.5631 41.759 20.9488L40.1008 18.8685L41.8945 17.2197C44.2366 15.0686 45.8625 13.7805 47.6175 12.6921C49.0047 11.8291 50.979 11.0691 51.8307 11.0691C52.3534 11.0691 54.1987 12.9819 55.6891 15.0751C57.999 18.3082 59.6959 22.2368 60.554 26.3201C61.1089 28.9607 61.154 34.609 60.6443 37.2367C60.2249 39.3942 59.3345 42.1958 58.47 44.1022C57.8183 45.5255 56.2053 48.2885 55.4955 49.1901C55.1342 49.641 55.1342 49.641 55.3342 48.6427ZM29.5903 10.0773C27.1578 8.84071 23.4091 7.52042 21.338 7.15975C20.6089 7.03739 19.3766 6.96654 18.5829 7.00518C16.8731 7.08891 16.9506 7.00518 19.6927 5.71065C21.9703 4.6351 23.8737 4.00393 26.4545 3.46294C29.358 2.85109 34.81 2.84465 37.6683 3.45006C40.7524 4.10054 44.385 5.45304 46.4303 6.70892L47.0368 7.08247L45.6431 7.01162C42.8687 6.86993 38.8297 7.99057 34.4874 10.103C33.1776 10.7406 32.0421 11.2494 31.9582 11.2301C31.8808 11.2172 30.8097 10.6956 29.5903 10.0773Z" fill="white"/>
</svg>
