<svg width="64" height="64" viewBox="0 0 64 64" fill="none" xmlns="http://www.w3.org/2000/svg">
<path fill-rule="evenodd" clip-rule="evenodd" d="M20.5714 52.2106H57.5038C61.0915 52.2106 64 49.3021 64 45.7144V31.2783C64 20.5149 55.2746 11.7896 44.5113 11.7896H20.5714H20.2105C9.04856 11.7896 0 20.8381 0 32.0001C0 43.162 9.04856 52.2106 20.2105 52.2106H20.5714ZM26.3875 42.1755H30.9147L27.1185 36.1157C28.0931 35.6756 28.8476 35.0311 29.3821 34.1822C29.9323 33.3177 30.2073 32.2488 30.2073 30.9755C30.2073 29.2935 29.6414 27.9888 28.5097 27.0614C27.3779 26.134 25.633 25.6702 23.2751 25.6702H16.8617V42.1755H20.9408V36.941H22.8979H23.2515L26.3875 42.1755ZM20.9408 33.4513V29.1599H23.0865C24.0454 29.1599 24.7449 29.3328 25.185 29.6787C25.6252 30.0088 25.8452 30.5118 25.8452 31.1877C25.8452 31.9265 25.6016 32.4924 25.1143 32.8854C24.6427 33.2627 23.9904 33.4513 23.1572 33.4513H20.9408ZM47.1398 34.9132C46.6839 34.2373 45.9058 33.7185 44.8054 33.357C46.2045 32.6182 46.904 31.4549 46.904 29.8673C46.904 28.5312 46.4324 27.5015 45.4892 26.7785C44.5618 26.0397 43.0999 25.6702 41.1035 25.6702H34.5722V42.1755H41.7638C42.9899 42.1755 44.0588 41.979 44.9705 41.586C45.8979 41.1931 46.6053 40.635 47.0926 39.9119C47.5956 39.1888 47.8471 38.34 47.8471 37.3654C47.8471 36.4065 47.6113 35.5891 47.1398 34.9132ZM38.7221 32.3902V29.042H40.8206C42.1882 29.042 42.872 29.5765 42.872 30.6454C42.872 31.2113 42.6991 31.6436 42.3532 31.9422C42.0231 32.2409 41.5358 32.3902 40.8913 32.3902H38.7221ZM42.9191 38.3321C42.5733 38.6622 42.0467 38.8273 41.3393 38.8273H38.7221V35.2905H41.4337C42.7855 35.2905 43.4614 35.8564 43.4614 36.9881C43.4614 37.5383 43.2807 37.9863 42.9191 38.3321Z" fill="white"/>
</svg>
