<svg width="32" height="32" viewBox="0 0 32 32" fill="none" xmlns="http://www.w3.org/2000/svg">
<g clip-path="url(#clip0_1967_18057)">
<path fill-rule="evenodd" clip-rule="evenodd" d="M20.2483 11.1885L30.2796 1.15728C29.624 0.445752 28.6844 0 27.6406 0H6.06564C3.39882 0 1.58939 2.84696 2.43676 5.37558C3.3181 8.00558 4.13194 11.235 4.13194 14.1932C4.13194 17.8658 2.4594 23.2109 1.01856 27.1342C0.62831 28.1968 0.745023 29.3068 1.21602 30.2208L13.3494 18.0874L12.7581 17.1003H12.5726H11.546V19.846H9.40641V11.1885H12.7704C14.0072 11.1885 14.9224 11.4318 15.5161 11.9182C16.1097 12.4047 16.4066 13.089 16.4066 13.9713C16.4066 14.4577 16.33 14.8872 16.177 15.2599L18.4179 13.0189H18.1271V11.1885H20.2483ZM11.546 15.2699V13.0189H12.6715C13.1745 13.0189 13.5414 13.1096 13.7722 13.291C14.0031 13.4642 14.1185 13.728 14.1185 14.0826C14.1185 14.4701 13.9907 14.7669 13.7351 14.9731C13.4878 15.1709 13.1456 15.2699 12.7086 15.2699H11.546Z" fill="white"/>
<path opacity="0.5" fill-rule="evenodd" clip-rule="evenodd" d="M13.3495 18.0874L1.2041 30.2328C1.8152 31.4087 3.01374 32.2572 4.47279 32.2572H15.7264C23.4681 32.2572 31.2099 25.8057 31.2099 12.9028V3.58733C31.2099 2.65448 30.8538 1.80479 30.2702 1.16675L20.2484 11.1885H25.3129V13.019H22.7898V19.846H20.6502V13.019H18.418L16.177 15.2599C16.1199 15.3989 16.0522 15.5301 15.9738 15.6533C15.6934 16.0985 15.2977 16.4366 14.7865 16.6675L16.7777 19.846H14.4031L13.3495 18.0874Z" fill="white"/>
</g>
<defs>
<clipPath id="clip0_1967_18057">
<rect width="32" height="32" fill="white"/>
</clipPath>
</defs>
</svg>
