<svg width="32" height="32" viewBox="0 0 32 32" fill="none" xmlns="http://www.w3.org/2000/svg">
<path d="M14.5564 30.4398C12.324 30.2272 10.0625 29.4254 8.11719 28.1566C6.48803 27.094 6.12026 26.6592 6.12026 25.7865C6.12026 24.038 8.04622 20.9723 11.3368 17.4816C13.2079 15.4979 15.8113 13.1729 16.092 13.2341C16.6404 13.3565 21.0182 17.6265 22.657 19.6327C25.2508 22.8143 26.4444 25.4162 25.8379 26.5755C25.3766 27.4578 22.5215 29.1807 20.4246 29.8408C18.6954 30.3883 16.4243 30.6201 14.5564 30.4398ZM3.92331 23.9703C2.57159 21.8965 1.88767 19.8517 1.55538 16.8987C1.4457 15.923 1.48441 15.3659 1.80379 13.3629C2.20059 10.8672 3.62006 7.98192 5.32987 6.20436C6.05896 5.44761 6.12348 5.42829 7.01065 5.72777C8.08815 6.09165 9.23663 6.88383 11.0206 8.49716L12.0627 9.43747L11.4949 10.1363C8.85273 13.3758 6.06864 17.9678 5.02017 20.8081C4.44916 22.3506 4.22011 23.9027 4.46529 24.5468C4.62982 24.9815 4.47819 24.8205 3.92331 23.9703ZM27.6671 24.3213C27.7994 23.6709 27.6316 22.4729 27.2348 21.2654C26.3799 18.6505 23.5119 13.7816 20.8795 10.4744L20.0504 9.43425L20.9472 8.60987C22.1183 7.53431 22.9313 6.89027 23.8087 6.34605C24.5023 5.91454 25.4895 5.53455 25.9154 5.53455C26.1767 5.53455 27.0993 6.49096 27.8445 7.53753C28.9995 9.15409 29.8479 11.1184 30.277 13.16C30.5544 14.4803 30.577 17.3045 30.3222 18.6183C30.1125 19.6971 29.6673 21.0979 29.235 22.0511C28.9091 22.7628 28.1026 24.1442 27.7478 24.5951C27.5671 24.8205 27.5671 24.8205 27.6671 24.3213ZM14.7951 5.03864C13.5789 4.42036 11.7046 3.76021 10.669 3.57988C10.3045 3.51869 9.68828 3.48327 9.29147 3.50259C8.43657 3.54445 8.47528 3.50259 9.84636 2.85533C10.9852 2.31755 11.9368 2.00197 13.2273 1.73147C14.679 1.42555 17.405 1.42233 18.8342 1.72503C20.3762 2.05027 22.1925 2.72652 23.2152 3.35446L23.5184 3.54123L22.8216 3.50581C21.4344 3.43497 19.4149 3.99529 17.2437 5.05152C16.5888 5.37032 16.021 5.62472 15.9791 5.61506C15.9404 5.60862 15.4049 5.34778 14.7951 5.03864Z" fill="white"/>
</svg>
