<svg width="64" height="64" viewBox="0 0 64 64" fill="none" xmlns="http://www.w3.org/2000/svg">
<g clip-path="url(#clip0_1967:18071)">
<path fill-rule="evenodd" clip-rule="evenodd" d="M15.7687 53.3395L0.162007 37.8891L-0.000244141 -0.633667L38.5225 -0.471416L53.9729 15.1352C64.6119 25.7743 64.6843 42.9513 54.1345 53.5011C43.5847 64.0509 26.4077 63.9785 15.7687 53.3395ZM18.7849 24.4879V41.1019H22.891V35.9041H24.9084C26.3325 35.9041 27.5508 35.6351 28.5635 35.0971C29.5762 34.5592 30.3357 33.8392 30.842 32.9373C31.3483 32.0196 31.6015 31.0069 31.6015 29.8993C31.6015 28.2379 31.024 26.9246 29.8689 25.9594C28.7296 24.9784 27.0841 24.4879 24.9321 24.4879H18.7849ZM26.5936 31.7743C26.1822 32.1857 25.6046 32.3914 24.8609 32.3914H22.891V28.0006H24.8135C25.5888 28.0006 26.1822 28.1746 26.5936 28.5227C27.0049 28.8708 27.2106 29.393 27.2106 30.0892C27.2106 30.8012 27.0049 31.3629 26.5936 31.7743ZM46.444 34.48V24.4879H42.5753L34.6717 35.0022V37.5892H42.2667V41.1019H46.444V37.5892H48.7462V34.48H46.444ZM38.5642 34.48L42.4091 29.2822V34.48H38.5642Z" fill="white"/>
</g>
<defs>
<clipPath id="clip0_1967:18071">
<rect width="64" height="64" fill="white"/>
</clipPath>
</defs>
</svg>
