<svg width="64" height="64" viewBox="0 0 64 64" fill="none" xmlns="http://www.w3.org/2000/svg">
<g clip-path="url(#clip0_1967:18049)">
<path fill-rule="evenodd" clip-rule="evenodd" d="M7.52536 0H59.9916C61.8847 0 63.4193 1.53464 63.4193 3.42771V25.6C63.4193 51.2001 48.0593 64.0001 32.6993 64.0001H4.69363C2.21315 64.0001 0.526761 61.4401 1.44803 59.1371C4.43325 51.6744 9.65923 37.3042 9.65923 28.1601C9.65923 19.9334 6.48681 10.6492 4.21985 5.06509C3.26139 2.70413 4.97727 0 7.52536 0ZM29.5975 39.7047H34.3762L30.369 33.3082C31.3978 32.8436 32.1942 32.1633 32.7584 31.2673C33.3391 30.3547 33.6295 29.2265 33.6295 27.8825C33.6295 26.107 33.0322 24.7299 31.8375 23.7509C30.6428 22.7719 28.801 22.2824 26.3122 22.2824H19.5424V39.7047H23.8481V34.1794H25.9139H26.2873L29.5975 39.7047ZM23.8481 30.4958V25.966H26.113C27.1252 25.966 27.8636 26.1485 28.3282 26.5136C28.7927 26.862 29.025 27.393 29.025 28.1064C29.025 28.8863 28.7679 29.4836 28.2535 29.8985C27.7557 30.2967 27.0671 30.4958 26.1877 30.4958H23.8481ZM42.1693 39.7047H46.4751V25.966H51.5524V22.2824H37.0919V25.966H42.1693V39.7047Z" fill="white"/>
</g>
<defs>
<clipPath id="clip0_1967:18049">
<rect width="64" height="64" fill="white"/>
</clipPath>
</defs>
</svg>
