<svg width="32" height="32" viewBox="0 0 32 32" fill="none" xmlns="http://www.w3.org/2000/svg">
<g clip-path="url(#clip0_1967_18031)">
<path fill-rule="evenodd" clip-rule="evenodd" d="M21.5216 19.3663L27.7215 25.5168C29.8695 22.4009 31.228 18.162 31.228 12.8001V3.58742C31.228 1.60614 29.6218 0 27.6406 0H6.08646C4.95844 0 3.98399 0.509322 3.29858 1.28848L19.382 17.2437V12.9151H16.859V11.0993H24.0447V12.9151H21.5216V19.3663Z" fill="white"/>
<path opacity="0.5" fill-rule="evenodd" clip-rule="evenodd" d="M19.382 17.2433L3.28899 1.27856C2.34474 2.34509 1.94417 3.92204 2.43778 5.38981C3.31167 7.98838 4.11367 11.1667 4.11367 14.0799C4.11367 17.7067 2.4563 22.9776 1.01994 26.8646C0.118504 29.3041 1.89005 32 4.49073 32H15.7263C20.2288 32 24.7313 29.8352 27.7108 25.5057L21.5216 19.3658V19.6877H19.382V17.2433ZM10.6746 19.6877H16.7348V17.7737H12.8142V11.0993H10.6746V19.6877Z" fill="white"/>
</g>
<defs>
<clipPath id="clip0_1967_18031">
<rect width="32" height="32" fill="white"/>
</clipPath>
</defs>
</svg>
