<svg width="32" height="32" viewBox="0 0 32 32" fill="none" xmlns="http://www.w3.org/2000/svg">
<g clip-path="url(#clip0_1967:18049)">
<path fill-rule="evenodd" clip-rule="evenodd" d="M6.53576 0H28.282C30.175 0 31.7097 1.53464 31.7097 3.42771V12.8C31.7097 25.6 24.0297 32.0001 16.3496 32.0001H4.98403C2.50354 32.0001 0.810881 29.4348 1.67094 27.1082C3.11555 23.2002 4.82962 17.7831 4.82962 14.08C4.82962 11.0701 3.98027 7.77704 3.08048 5.13292C2.25959 2.72067 3.98766 0 6.53576 0ZM14.7987 19.8523H17.188L15.1845 16.6541C15.6988 16.4218 16.0971 16.0817 16.3791 15.6337C16.6695 15.1774 16.8147 14.6132 16.8147 13.9412C16.8147 13.0535 16.516 12.3649 15.9187 11.8754C15.3213 11.3859 14.4005 11.1412 13.156 11.1412H9.77112V19.8523H11.924V17.0897H12.9569H13.1436L14.7987 19.8523ZM11.924 15.2479V12.983H13.0565C13.5625 12.983 13.9317 13.0742 14.164 13.2568C14.3963 13.431 14.5125 13.6965 14.5125 14.0532C14.5125 14.4431 14.3839 14.7418 14.1267 14.9492C13.8778 15.1483 13.5335 15.2479 13.0938 15.2479H11.924ZM21.0846 19.8523H23.2375V12.983H25.7761V11.1412H18.5459V12.983H21.0846V19.8523Z" fill="white"/>
</g>
<defs>
<clipPath id="clip0_1967:18049">
<rect width="32" height="32" fill="white"/>
</clipPath>
</defs>
</svg>
