<svg width="32" height="32" viewBox="0 0 32 32" fill="none" xmlns="http://www.w3.org/2000/svg">
<path fill-rule="evenodd" clip-rule="evenodd" d="M25.1691 0H3.42771C1.53464 0 0 1.53464 0 3.42771V12.8C0 25.6 7.6787 32 15.3574 32H26.7205C29.2009 32 30.8936 29.4349 30.0337 27.1083C28.5893 23.2003 26.8755 17.7831 26.8755 14.08C26.8755 11.07 27.7247 7.7768 28.6244 5.13265C29.4451 2.72046 27.7171 0 25.1691 0ZM11.4135 20.7111H13.8795L11.8116 17.5129C12.3425 17.2806 12.7535 16.9405 13.0446 16.4925C13.3443 16.0362 13.4942 15.472 13.4942 14.8C13.4942 13.9123 13.1859 13.2237 12.5694 12.7342C11.9529 12.2447 11.0025 12 9.71811 12H6.22461V20.7111H8.44658V17.9485H9.51261H9.70526L11.4135 20.7111ZM8.44658 16.1067V13.8418H9.61536C10.1377 13.8418 10.5187 13.933 10.7584 14.1156C10.9982 14.2898 11.1181 14.5553 11.1181 14.912C11.1181 15.3019 10.9854 15.6006 10.7199 15.808C10.463 16.0071 10.1077 16.1067 9.65389 16.1067H8.44658ZM17.9011 20.7111H20.123V13.8418H22.7431V12H15.2809V13.8418H17.9011V20.7111Z" fill="white"/>
</svg>
