<svg width="32" height="32" viewBox="0 0 32 32" fill="none" xmlns="http://www.w3.org/2000/svg">
<g clip-path="url(#clip0_1967_18071)">
<path fill-rule="evenodd" clip-rule="evenodd" d="M7.88446 26.6698L0.0811257 18.9446L0 -0.316772L19.2614 -0.235647L26.9866 7.56768C32.3061 12.8872 32.3423 21.4757 27.0674 26.7506C21.7925 32.0255 13.204 31.9893 7.88446 26.6698ZM9.39258 12.244V20.551H11.4456V17.9521H12.4543C13.1663 17.9521 13.7755 17.8176 14.2819 17.5486C14.7882 17.2796 15.1679 16.9196 15.4211 16.4687C15.6743 16.0098 15.8009 15.5035 15.8009 14.9497C15.8009 14.119 15.5121 13.4623 14.9346 12.9797C14.3649 12.4892 13.5421 12.244 12.4662 12.244H9.39258ZM13.2969 15.8872C13.0912 16.0929 12.8024 16.1957 12.4306 16.1957H11.4456V14.0003H12.4068C12.7945 14.0003 13.0912 14.0873 13.2969 14.2614C13.5026 14.4354 13.6054 14.6965 13.6054 15.0446C13.6054 15.4006 13.5026 15.6815 13.2969 15.8872ZM23.2221 17.2401V12.244H21.2878L17.336 17.5011V18.7947H21.1335V20.551H23.2221V18.7947H24.3732V17.2401H23.2221ZM19.2822 17.2401L21.2047 14.6411V17.2401H19.2822Z" fill="white"/>
</g>
<defs>
<clipPath id="clip0_1967_18071">
<rect width="32" height="32" fill="white"/>
</clipPath>
</defs>
</svg>
