<svg width="64" height="64" viewBox="0 0 64 64" fill="none" xmlns="http://www.w3.org/2000/svg">
<g clip-path="url(#clip0_1967:18057)">
<path fill-rule="evenodd" clip-rule="evenodd" d="M40.4968 22.377L61.6057 1.26812C60.9476 0.492349 59.9657 0 58.8687 0H6.32676C3.65994 0 1.86355 2.83158 2.86134 5.3047C5.14034 10.9534 8.26394 20.1905 8.26394 28.3864C8.26394 37.529 3.08138 51.8542 0.0606814 59.4272C-0.377361 60.5254 -0.249421 61.6785 0.265065 62.6087L26.699 36.1748L25.5162 34.2006H25.1452H23.0922V39.6919H18.8129V22.377H25.541C28.0145 22.377 29.845 22.8635 31.0323 23.8364C32.2196 24.8093 32.8132 26.178 32.8132 27.9425C32.8132 28.9153 32.6602 29.7744 32.354 30.5197L36.8359 26.0379H36.2543V22.377H40.4968ZM23.0922 30.5397V26.0379H25.3431C26.349 26.0379 27.0828 26.2192 27.5446 26.582C28.0063 26.9283 28.2371 27.456 28.2371 28.1651C28.2371 28.9402 27.9815 29.5338 27.4703 29.9461C26.9756 30.3418 26.2913 30.5397 25.4173 30.5397H23.0922Z" fill="white"/>
<path opacity="0.5" fill-rule="evenodd" clip-rule="evenodd" d="M26.6989 36.1748L0.241699 62.6321C0.860263 63.732 2.02158 64.5144 3.42533 64.5144H31.4527C46.9362 64.5144 62.4196 51.6115 62.4196 25.8057V3.58728C62.4196 2.71229 62.1064 1.91047 61.5859 1.28784L40.4967 22.3771H50.6256V26.0379H45.5796V39.692H41.3003V26.0379H36.8358L32.354 30.5197C32.2398 30.7978 32.1043 31.0601 31.9474 31.3066C31.3868 32.1971 30.5952 32.8732 29.5728 33.3349L33.5552 39.692H28.806L26.6989 36.1748Z" fill="white"/>
</g>
<defs>
<clipPath id="clip0_1967:18057">
<rect width="64" height="64" fill="white"/>
</clipPath>
</defs>
</svg>
