<svg width="64" height="64" viewBox="0 0 64 64" fill="none" xmlns="http://www.w3.org/2000/svg">
<path fill-rule="evenodd" clip-rule="evenodd" d="M36.386 59.6141H1.04004V27.5819C1.04004 27.5819 14.1517 15.16 16.9401 12.3942C21.9308 7.44399 28.8013 4.38611 36.386 4.38611C51.6368 4.38611 64 16.7493 64 32.0001C64 47.2509 51.6368 59.6141 36.386 59.6141ZM47.2918 39.5387H40.5479L43.3829 37.2835C44.557 36.3385 45.4233 35.4579 45.9817 34.6418C46.5544 33.8113 46.8408 32.8949 46.8408 31.8927C46.8408 30.4322 46.2895 29.3297 45.187 28.5851C44.0845 27.8262 42.6312 27.4468 40.8271 27.4468C39.8534 27.4468 38.937 27.5757 38.0779 27.8334C37.2332 28.0911 36.4671 28.4419 35.7798 28.8858L36.9826 31.6349C37.4264 31.3629 37.9276 31.1481 38.486 30.9906C39.0444 30.8188 39.61 30.7329 40.1827 30.7329C40.9416 30.7329 41.5645 30.8975 42.0513 31.2269C42.5524 31.5562 42.803 32.043 42.803 32.6873C42.803 33.1026 42.7028 33.482 42.5023 33.8256C42.3162 34.1693 42.0513 34.5058 41.7076 34.8351C41.364 35.1644 40.8557 35.6083 40.1827 36.1667L35.8443 39.689V42.7388H47.2918V39.5387ZM21.1889 27.7045V42.7388H24.9045V38.0352H26.7301C28.0187 38.0352 29.1213 37.7918 30.0376 37.305C30.954 36.8182 31.6413 36.1667 32.0995 35.3505C32.5577 34.5201 32.7868 33.6037 32.7868 32.6014C32.7868 31.098 32.2641 29.9096 31.2189 29.0361C30.188 28.1484 28.6989 27.7045 26.7516 27.7045H21.1889ZM28.255 34.2981C27.8827 34.6704 27.3601 34.8566 26.6871 34.8566H24.9045V30.8832H26.6442C27.3458 30.8832 27.8827 31.0407 28.255 31.3557C28.6273 31.6707 28.8134 32.1432 28.8134 32.7732C28.8134 33.4176 28.6273 33.9259 28.255 34.2981Z" fill="white"/>
</svg>
