<svg width="32" height="32" viewBox="0 0 32 32" fill="none" xmlns="http://www.w3.org/2000/svg">
<g clip-path="url(#clip0_1967_18079)">
<path fill-rule="evenodd" clip-rule="evenodd" d="M21.5043 26H4.79C2.02857 26 -0.209999 23.7614 -0.209999 21C-0.209999 12.7157 6.50573 6 14.79 6H21.5043H21.79C27.3128 6 31.79 10.4772 31.79 16C31.79 21.5228 27.3128 26 21.79 26H21.5043ZM8.9693 20.9427H14.7085V19.1035H10.9956V12.6901H8.9693V20.9427ZM22.8201 17.3115C22.5936 16.9736 22.2071 16.7142 21.6605 16.5334C22.3555 16.164 22.703 15.5824 22.703 14.7886C22.703 14.1205 22.4687 13.6057 22.0002 13.2442C21.5395 12.8748 20.8133 12.6901 19.8217 12.6901H16.5773V20.9427H20.1496C20.7587 20.9427 21.2896 20.8444 21.7425 20.648C22.2032 20.4515 22.5546 20.1725 22.7967 19.8109C23.0465 19.4494 23.1715 19.0249 23.1715 18.5376C23.1715 18.0582 23.0543 17.6495 22.8201 17.3115ZM18.6387 16.0501V14.376H19.6811C20.3604 14.376 20.7001 14.6432 20.7001 15.1776C20.7001 15.4606 20.6142 15.6767 20.4424 15.8261C20.2785 15.9754 20.0364 16.0501 19.7162 16.0501H18.6387ZM20.7235 19.021C20.5518 19.1861 20.2902 19.2686 19.9388 19.2686H18.6387V17.5002H19.9856C20.6572 17.5002 20.9929 17.7831 20.9929 18.349C20.9929 18.6241 20.9031 18.8481 20.7235 19.021Z" fill="white"/>
</g>
<defs>
<clipPath id="clip0_1967_18079">
<rect width="32" height="32" fill="white"/>
</clipPath>
</defs>
</svg>
