<svg width="64" height="64" viewBox="0 0 64 64" fill="none" xmlns="http://www.w3.org/2000/svg">
<g clip-path="url(#clip0_1967:18023)">
<path fill-rule="evenodd" clip-rule="evenodd" d="M7.52536 0H59.9916C61.8847 0 63.4193 1.53464 63.4193 3.42771V25.6C63.4193 51.2001 48.0593 64.0001 32.6993 64.0001H4.69363C2.21315 64.0001 0.526761 61.4401 1.44803 59.1371C4.43325 51.6744 9.65923 37.3042 9.65923 28.1601C9.65923 19.9334 6.48681 10.6492 4.21985 5.06509C3.26139 2.70413 4.97727 0 7.52536 0ZM22.9835 39.7047H35.1791V35.822H27.2893V22.2824H22.9835V39.7047ZM40.5063 39.7047H44.8121V25.966H49.8894V22.2824H35.429V25.966H40.5063V39.7047Z" fill="white"/>
</g>
<defs>
<clipPath id="clip0_1967:18023">
<rect width="64" height="64" fill="white"/>
</clipPath>
</defs>
</svg>
