<svg width="32" height="32" viewBox="0 0 32 32" fill="none" xmlns="http://www.w3.org/2000/svg">
<path fill-rule="evenodd" clip-rule="evenodd" d="M18.193 29.807H0.52002V13.7909C0.52002 13.7909 7.07585 7.57992 8.47007 6.19702C10.9654 3.72193 14.4006 2.19299 18.193 2.19299C25.8184 2.19299 32 8.3746 32 16C32 23.6254 25.8184 29.807 18.193 29.807ZM23.6459 19.7693H20.2739L21.6914 18.6417C22.2785 18.1692 22.7116 17.7289 22.9908 17.3208C23.2772 16.9056 23.4204 16.4474 23.4204 15.9463C23.4204 15.216 23.1447 14.6648 22.5935 14.2925C22.0422 13.9131 21.3156 13.7234 20.4135 13.7234C19.9267 13.7234 19.4685 13.7878 19.0389 13.9167C18.6166 14.0455 18.2335 14.2209 17.8899 14.4429L18.4913 15.8174C18.7132 15.6814 18.9638 15.574 19.243 15.4953C19.5222 15.4093 19.805 15.3664 20.0913 15.3664C20.4708 15.3664 20.7822 15.4487 21.0256 15.6134C21.2762 15.778 21.4015 16.0215 21.4015 16.3436C21.4015 16.5512 21.3514 16.741 21.2511 16.9128C21.1581 17.0846 21.0256 17.2528 20.8538 17.4175C20.682 17.5822 20.4278 17.8041 20.0913 18.0833L17.9221 19.8445V21.3694H23.6459V19.7693ZM10.5944 13.8522V21.3694H12.4522V19.0176H13.365C14.0093 19.0176 14.5606 18.8959 15.0188 18.6525C15.477 18.409 15.8206 18.0833 16.0497 17.6752C16.2788 17.26 16.3934 16.8018 16.3934 16.3007C16.3934 15.5489 16.132 14.9547 15.6094 14.518C15.094 14.0742 14.3494 13.8522 13.3758 13.8522H10.5944ZM14.1275 17.149C13.9413 17.3352 13.68 17.4282 13.3435 17.4282H12.4522V15.4416H13.3221C13.6729 15.4416 13.9413 15.5203 14.1275 15.6778C14.3136 15.8353 14.4067 16.0716 14.4067 16.3866C14.4067 16.7087 14.3136 16.9629 14.1275 17.149Z" fill="white"/>
</svg>
