<?xml version="1.0"?>
<svg xmlns="http://www.w3.org/2000/svg" viewBox="0 0 36 36" fill="none">
  <path fill-rule="evenodd" clip-rule="evenodd" d="M18 4L23 9H13L18 4ZM2 30V13H34V30H2ZM5 17H7V19H5V17ZM7 21H5V23H7V21ZM5 25H7V27H5V25ZM11 17H9V19H11V17ZM9 21H11V23H9V21ZM15 17H13V19H15V17ZM13 21H15V23H13V21ZM27 27V25H9V27H27ZM17 19V17H19V19H17ZM19 23V21H17V23H19ZM21 17H23V19H21V17ZM27 17H25V19H27V17ZM29 17H31V19H29V17ZM23 21H21V23H23V21ZM25 21H27V23H25V21ZM31 21H29V23H31V21ZM29 25H31V27H29V25Z" fill="currentColor"/>
</svg>
