<?xml version="1.0"?>
<svg width="36" height="36" viewBox="0 0 36 36" fill="currentColor" xmlns="http://www.w3.org/2000/svg">
  <path fill-rule="evenodd" clip-rule="evenodd" d="M11.0893 11.0884L8.40179 13.7759L11.0893 16.4634V20.3027H14.9286L18 23.3741L21.0714 20.3027H24.9107V16.4634L27.5982 13.7759L24.9107 11.0885V7.24915H21.0714L18 4.17773L14.9286 7.24915H11.0893V11.0884ZM21.8393 13.7759C21.8393 15.8963 20.1204 17.6152 18 17.6152C15.8796 17.6152 14.1607 15.8963 14.1607 13.7759C14.1607 11.6556 15.8796 9.93666 18 9.93666C20.1204 9.93666 21.8393 11.6556 21.8393 13.7759Z" fill="currentColor"/>
  <path d="M7.25 27.9813L9.9375 23.3742H13.3929L16.0804 26.0617L12.625 31.8206L10.7054 27.9813H7.25Z" fill="currentColor"/>
  <path d="M28.75 27.9813L26.0625 23.3742H22.6071L19.9196 26.0617L23.375 31.8206L25.2946 27.9813H28.75Z" fill="currentColor"/>
</svg>
