<?xml version="1.0"?>
<svg width="11" height="11" viewBox="0 0 11 11" fill="none" xmlns="http://www.w3.org/2000/svg">
  <path d="M10.2758 2.45971L9.20028 6.3586C9.14883 6.55507 9.03359 6.72888 8.87266 6.85277C8.71173 6.97665 8.51421 7.04358 8.31112 7.04304H4.50695C4.309 7.04324 4.11631 6.97935 3.95769 6.86093C3.79906 6.74252 3.68303 6.57593 3.62695 6.3861L2.31 2.45971H0.611115V1.23749H2.53C2.72203 1.23785 2.9091 1.2985 3.0648 1.41089C3.2205 1.52328 3.33697 1.68173 3.39778 1.86388L3.59945 2.47499L10.2758 2.45971ZM4.58334 8.26527C4.43225 8.26527 4.28456 8.31007 4.15894 8.394C4.03332 8.47794 3.93541 8.59724 3.8776 8.73683C3.81978 8.87641 3.80465 9.03 3.83413 9.17818C3.8636 9.32636 3.93635 9.46247 4.04319 9.5693C4.15002 9.67614 4.28613 9.74889 4.43431 9.77837C4.58249 9.80784 4.73608 9.79271 4.87566 9.7349C5.01525 9.67708 5.13455 9.57917 5.21849 9.45355C5.30242 9.32793 5.34723 9.18024 5.34723 9.02915C5.34723 8.82656 5.26675 8.63226 5.12349 8.489C4.98023 8.34575 4.78593 8.26527 4.58334 8.26527ZM8.25 8.26527C8.09892 8.26527 7.95123 8.31007 7.82561 8.394C7.69999 8.47794 7.60208 8.59724 7.54426 8.73683C7.48645 8.87641 7.47132 9.03 7.50079 9.17818C7.53027 9.32636 7.60302 9.46247 7.70985 9.5693C7.81668 9.67614 7.9528 9.74889 8.10098 9.77837C8.24916 9.80784 8.40275 9.79271 8.54233 9.7349C8.68191 9.67708 8.80122 9.57917 8.88515 9.45355C8.96909 9.32793 9.01389 9.18024 9.01389 9.02915C9.01389 8.82656 8.93341 8.63226 8.79016 8.489C8.6469 8.34575 8.4526 8.26527 8.25 8.26527Z" fill="currentColor"/>
</svg>
