<?xml version="1.0"?>
<svg viewBox="0 0 60 38" width="32">
  <path d="M16 8.9l1.9 5.1c.2.5.6 1 1.2 1.2l5.1 1.9-5.1 1.9c-.5.2-1 .6-1.2 1.2L16 25.1 14.1 20c-.2-.5-.6-1-1.2-1.2l-5-1.8 5.1-1.9c.5-.2 1-.6 1.2-1.2l1.8-5zm-.9-.4c.3-.9 1.6-.9 1.9 0l1.9 5.1c.1.3.3.5.6.6l5.1 1.9c.9.3.9 1.6 0 1.9l-5.1 1.9c-.3.1-.5.3-.6.6L17 25.6c-.3.9-1.6.9-1.9 0l-1.9-5.1c-.1-.3-.3-.5-.6-.6L7.5 18c-.9-.3-.9-1.6 0-1.9l5.1-1.9c.3-.1.5-.3.6-.6l1.9-5.1zm17.8 15.4l-1.9-5-1.9 5.1c-.2.5-.6 1-1.2 1.2l-5 1.8 5.1 1.9c.5.2 1 .6 1.2 1.2l1.9 5.1 1.9-5.1c.2-.5.6-1 1.2-1.2l5.1-1.9-5.1-1.9c-.7-.2-1.1-.6-1.3-1.2zm-1-5.4c-.3-.9-1.6-.9-1.9 0l-1.9 5.1c-.1.3-.3.5-.6.6l-5.1 1.9c-.9.3-.9 1.6 0 1.9l5.1 1.9c.3.1.5.3.6.6l1.9 5.1c.3.9 1.6.9 1.9 0l1.9-5.1c.1-.3.3-.5.6-.6l5.1-1.9c.9-.3.9-1.6 0-1.9l-5.1-1.9c-.3-.1-.5-.3-.6-.6l-1.9-5.1zM43 4.9l1.9 5.1c.2.5.6 1 1.2 1.2l5.1 1.9-5.1 1.9c-.5.2-1 .6-1.2 1.2L43 21.1 41.1 16c-.2-.5-.6-1-1.2-1.2l-5-1.8 5.1-1.9c.5-.2 1-.6 1.2-1.2l1.8-5zm-.9-.4c.3-.9 1.6-.9 1.9 0l1.9 5.1c.1.3.3.5.6.6l5.1 1.9c.9.3.9 1.6 0 1.9l-5.1 1.9c-.3.1-.5.3-.6.6L44 21.6c-.3.9-1.6.9-1.9 0l-1.9-5.1c-.1-.3-.3-.5-.6-.6L34.5 14c-.9-.3-.9-1.6 0-1.9l5.1-1.9c.3-.1.5-.3.6-.6l1.9-5.1z" fill-rule="evenodd" clip-rule="evenodd" fill="#fff"/>
</svg>
