<?xml version="1.0"?>
<svg xmlns="http://www.w3.org/2000/svg" viewBox="0 0 36 36" fill="none">
  <path fill="currentColor" fill-rule="evenodd" clip-rule="evenodd" d="M8.80859 10.3281L6.0585 7.77075C3.24327 10.3886 1.50201 14.0052 1.50201 18C1.50201 21.9948 3.24327 25.6114 6.0585 28.2293L8.80859 25.6719C6.69717 23.7085 5.39122 20.9961 5.39122 18C5.39122 15.0039 6.69717 12.2915 8.80859 10.3281ZM13.4721 14.6647L10.7205 12.106C9.2257 13.5658 8.30813 15.5414 8.30813 17.7164C8.30813 20.0356 9.35149 22.1282 11.0255 23.6104L13.7771 21.0517C12.8062 20.2252 12.1973 19.0369 12.1973 17.7164C12.1973 16.5401 12.6804 15.4689 13.4721 14.6647ZM27.1914 10.3281L29.9415 7.77075C32.7567 10.3886 34.498 14.0052 34.498 18C34.498 21.9948 32.7567 25.6114 29.9415 28.2293L27.1914 25.6719C29.3028 23.7085 30.6088 20.9961 30.6088 18C30.6088 15.0039 29.3028 12.2915 27.1914 10.3281ZM22.5279 14.6647L25.2795 12.106C26.7743 13.5658 27.6919 15.5414 27.6919 17.7164C27.6919 20.0356 26.6485 22.1282 24.9745 23.6104L22.2229 21.0517C23.1938 20.2252 23.8027 19.0369 23.8027 17.7164C23.8027 16.5401 23.3196 15.4689 22.5279 14.6647ZM18 20.719C19.6296 20.719 20.9507 19.3979 20.9507 17.7683C20.9507 16.1387 19.6296 14.8176 18 14.8176C16.3703 14.8176 15.0492 16.1387 15.0492 17.7683C15.0492 19.3979 16.3703 20.719 18 20.719Z"/>
</svg>
