<?xml version="1.0"?>
<svg width="32" height="32" viewBox="0 0 32 32" fill="none" xmlns="http://www.w3.org/2000/svg">
  <circle cx="16" cy="16" r="16" fill="#BDCCDB"/>
  <circle cx="16" cy="16" r="16" fill=""/>
  <circle cx="16" cy="16" r="14.2745" fill="#98A8B7"/>
  <circle cx="16" cy="16" r="14.2745" fill=""/>
  <circle cx="16" cy="16" r="14.2745" stroke="#7A92A9"/>
  <circle cx="16" cy="16" r="11.1309" fill="#BDCCDB"/>
  <circle cx="16" cy="16" r="11.1309" fill=""/>
  <circle cx="16" cy="16" r="10.2107" fill="#5792C8"/>
  <circle cx="16" cy="16" r="10.2107" fill=""/>
  <path fill-rule="evenodd" clip-rule="evenodd" d="M20.6016 17.9523C22.8425 17.9523 24.6591 16.1357 24.6591 13.8948C24.6591 11.6539 22.8425 9.83727 20.6016 9.83727C18.3607 9.83727 16.5441 11.6539 16.5441 13.8948C16.5441 13.9609 16.5457 14.0266 16.5488 14.0919L14.0477 17.6314C14.0205 17.6306 13.9933 17.6303 13.966 17.6303C13.2606 17.6303 12.6127 17.8767 12.1038 18.2882L6.33398 15.9235C6.33398 17.4638 6.62381 19.1438 6.97803 19.5302C7.16531 19.7345 9.1256 20.4564 11.0502 21.127C11.3013 22.5093 12.5112 23.5574 13.966 23.5574C15.6027 23.5574 16.9296 22.2306 16.9296 20.5939C16.9296 20.5326 16.9277 20.4717 16.924 20.4113L20.2613 17.9382C20.3735 17.9475 20.487 17.9523 20.6016 17.9523ZM12.1995 21.5232C12.5338 22.1572 13.1994 22.5894 13.966 22.5894C15.0681 22.5894 15.9615 21.696 15.9615 20.5939C15.9615 19.4917 15.0681 18.5983 13.966 18.5983C13.7007 18.5983 13.4475 18.65 13.216 18.744L14.1914 19.1438L14.1886 19.1617C14.8832 19.2688 15.4151 19.8692 15.4151 20.5939C15.4151 21.3942 14.7663 22.043 13.966 22.043C13.8901 22.043 13.8157 22.0371 13.743 22.0259L13.7405 22.042L13.6136 21.9998C13.5414 21.9818 13.4713 21.9583 13.4038 21.9299C13.0402 21.8084 12.6309 21.6704 12.1995 21.5232ZM20.6016 16.5998C22.0956 16.5998 23.3066 15.3887 23.3066 13.8948C23.3066 12.4008 22.0956 11.1898 20.6016 11.1898C19.1077 11.1898 17.8966 12.4008 17.8966 13.8948C17.8966 15.3887 19.1077 16.5998 20.6016 16.5998ZM22.4 13.8948C22.4 14.888 21.5948 15.6932 20.6016 15.6932C19.6083 15.6932 18.8032 14.888 18.8032 13.8948C18.8032 12.9015 19.6083 12.0964 20.6016 12.0964C21.5948 12.0964 22.4 12.9015 22.4 13.8948Z" fill="#BDCCDB"/>
  <path fill-rule="evenodd" clip-rule="evenodd" d="M20.6016 17.9523C22.8425 17.9523 24.6591 16.1357 24.6591 13.8948C24.6591 11.6539 22.8425 9.83727 20.6016 9.83727C18.3607 9.83727 16.5441 11.6539 16.5441 13.8948C16.5441 13.9609 16.5457 14.0266 16.5488 14.0919L14.0477 17.6314C14.0205 17.6306 13.9933 17.6303 13.966 17.6303C13.2606 17.6303 12.6127 17.8767 12.1038 18.2882L6.33398 15.9235C6.33398 17.4638 6.62381 19.1438 6.97803 19.5302C7.16531 19.7345 9.1256 20.4564 11.0502 21.127C11.3013 22.5093 12.5112 23.5574 13.966 23.5574C15.6027 23.5574 16.9296 22.2306 16.9296 20.5939C16.9296 20.5326 16.9277 20.4717 16.924 20.4113L20.2613 17.9382C20.3735 17.9475 20.487 17.9523 20.6016 17.9523ZM12.1995 21.5232C12.5338 22.1572 13.1994 22.5894 13.966 22.5894C15.0681 22.5894 15.9615 21.696 15.9615 20.5939C15.9615 19.4917 15.0681 18.5983 13.966 18.5983C13.7007 18.5983 13.4475 18.65 13.216 18.744L14.1914 19.1438L14.1886 19.1617C14.8832 19.2688 15.4151 19.8692 15.4151 20.5939C15.4151 21.3942 14.7663 22.043 13.966 22.043C13.8901 22.043 13.8157 22.0371 13.743 22.0259L13.7405 22.042L13.6136 21.9998C13.5414 21.9818 13.4713 21.9583 13.4038 21.9299C13.0402 21.8084 12.6309 21.6704 12.1995 21.5232ZM20.6016 16.5998C22.0956 16.5998 23.3066 15.3887 23.3066 13.8948C23.3066 12.4008 22.0956 11.1898 20.6016 11.1898C19.1077 11.1898 17.8966 12.4008 17.8966 13.8948C17.8966 15.3887 19.1077 16.5998 20.6016 16.5998ZM22.4 13.8948C22.4 14.888 21.5948 15.6932 20.6016 15.6932C19.6083 15.6932 18.8032 14.888 18.8032 13.8948C18.8032 12.9015 19.6083 12.0964 20.6016 12.0964C21.5948 12.0964 22.4 12.9015 22.4 13.8948Z" fill=""/>
  <defs>
    <linearGradient id="" x1="8.4375" y1="1.75" x2="23.1875" y2="22.9375" gradient-units="userSpaceOnUse">
      <stop stop-color="white" stop-opacity="0.54"/>
      <stop offset="1" stop-color="white" stop-opacity="0"/>
    </linearGradient>
    <linearGradient id="" x1="9" y1="3.125" x2="22.4375" y2="24.625" gradient-units="userSpaceOnUse">
      <stop stop-color="white" stop-opacity="0.25"/>
      <stop offset="1" stop-color="white" stop-opacity="0"/>
    </linearGradient>
    <linearGradient id="" x1="10.3125" y1="6.375" x2="19.6875" y2="23.125" gradient-units="userSpaceOnUse">
      <stop stop-color="white" stop-opacity="0.65"/>
      <stop offset="1" stop-color="white" stop-opacity="0"/>
    </linearGradient>
    <linearGradient id="" x1="10" y1="8" x2="20.5" y2="26.2107" gradient-units="userSpaceOnUse">
      <stop stop-color="#72A5D3"/>
      <stop offset="1" stop-color="#4F7294"/>
    </linearGradient>
    <linearGradient id="" x1="12.1875" y1="13.5625" x2="18.5625" y2="23.5574" gradient-units="userSpaceOnUse">
      <stop stop-color="white" stop-opacity="0.44"/>
      <stop offset="1" stop-color="white" stop-opacity="0"/>
    </linearGradient>
  </defs>
</svg>
