<?xml version="1.0"?>
<svg xmlns="http://www.w3.org/2000/svg" viewBox="0 0 36 36" fill="none">
  <path d="M20.6758 23.3058C21.3828 22.5988 21.78 21.6399 21.78 20.64H14.24C14.24 21.6399 14.6372 22.5988 15.3442 23.3058C16.0512 24.0128 17.0101 24.41 18.01 24.41C19.0099 24.41 19.9688 24.0128 20.6758 23.3058Z" fill="currentColor"/>
  <path fill-rule="evenodd" clip-rule="evenodd" d="M32.63 16.5C33.8296 18.6136 33.0804 21.3073 31.159 21.6988C30.7353 24.4863 29.4327 27.0863 27.4145 29.1045C24.9203 31.5987 21.5374 33 18.01 33C14.4826 33 11.0997 31.5987 8.60547 29.1045C6.11246 26.6115 4.71136 23.2307 4.70999 19.7052C4.70976 19.6565 4.70979 19.6079 4.7101 19.5593C3.29037 17.7223 2.53682 15.999 3.58997 14C4.15183 12.9316 4.83327 12.4249 5.49471 11.933C6.3872 11.2694 7.24326 10.6328 7.71997 8.68001C8.71997 4.81001 12.79 1.68001 17.28 3.56001C19.8577 4.63932 21.6246 4.73645 23.3546 4.83155C24.6381 4.90209 25.9012 4.97153 27.46 5.44001C28.762 5.78534 29.8823 6.61614 30.5909 7.76176C31.2995 8.90737 31.5425 10.2808 31.27 11.6C30.7909 13.5752 31.6117 14.8722 32.2776 15.9244C32.4039 16.1241 32.5247 16.315 32.63 16.5ZM20.0981 10.6316C20.3919 10.7018 20.6823 10.7871 20.9682 10.8873L20.9805 10.8916L20.9929 10.8958C22.8358 11.5151 24.4373 12.6981 25.5709 14.2775C26.7046 15.857 27.3129 17.7528 27.31 19.697L27.31 19.7C27.31 22.1665 26.3302 24.532 24.5861 26.2761C22.842 28.0202 20.4765 29 18.01 29C15.5435 29 13.178 28.0202 11.4339 26.2761C9.68981 24.532 8.70999 22.1665 8.71001 19.7L8.70996 19.6896C8.70175 18.1046 9.10859 16.545 9.89003 15.166L9.8936 15.1597L9.89712 15.1534C10.1847 14.6373 10.5196 14.152 10.8964 13.7032C11.6712 13.9338 12.4806 14.0522 13.3 14.05C15.2809 14.0498 17.1991 13.3554 18.721 12.0875C19.2395 11.6554 19.701 11.1661 20.0981 10.6316Z" fill="currentColor"/>
</svg>
