<?xml version="1.0"?>
<svg width="51px" height="56px" viewBox="0 0 51 56" fill="none" xmlns="http://www.w3.org/2000/svg">
  <path fill-rule="evenodd" clip-rule="evenodd" d="M43.2109 6.95H7.21094C4.00769 6.95 1.41094 9.54675 1.41094 12.75V48.6496C1.41094 51.8528 4.00769 54.4496 7.21094 54.4496H43.2109C46.4142 54.4496 49.0109 51.8528 49.0109 48.6496V12.75C49.0109 9.54675 46.4142 6.95 43.2109 6.95ZM7.21094 5.75C3.34494 5.75 0.210938 8.88401 0.210938 12.75V48.6496C0.210938 52.5156 3.34494 55.6496 7.21094 55.6496H43.2109C47.0769 55.6496 50.2109 52.5156 50.2109 48.6496V12.75C50.2109 8.88401 47.0769 5.75 43.2109 5.75H7.21094Z" fill=""/>
  <path fill-rule="evenodd" clip-rule="evenodd" d="M50.2109 17.875H0.210938V16.675H50.2109V17.875Z" fill=""/>
  <path fill-rule="evenodd" clip-rule="evenodd" d="M27.3491 29.4463L25.9645 25.5785C25.7114 24.8714 24.7113 24.8714 24.4581 25.5785L23.0735 29.4463C22.6297 30.6861 21.4717 31.5275 20.1555 31.5664L16.0491 31.688C15.2983 31.7103 14.9893 32.6614 15.5836 33.1207L18.8342 35.6327C19.8762 36.4379 20.3185 37.7992 19.9488 39.0631L18.7956 43.0061C18.5847 43.727 19.3938 44.3148 20.0142 43.8915L23.4079 41.5762C24.4956 40.8341 25.927 40.8341 27.0148 41.5762L30.4084 43.8915C31.0288 44.3148 31.8379 43.727 31.6271 43.0061L30.4738 39.0631C30.1041 37.7992 30.5464 36.4379 31.5884 35.6327L34.839 33.1207C35.4334 32.6614 35.1243 31.7103 34.3735 31.688L30.2672 31.5664C28.9509 31.5275 27.7929 30.6861 27.3491 29.4463ZM27.0943 25.1741C26.4614 23.4062 23.9612 23.4062 23.3283 25.1741L21.9437 29.0419C21.6663 29.8168 20.9426 30.3426 20.1199 30.367L16.0136 30.4886C14.1366 30.5441 13.364 32.922 14.8498 34.0702L18.1005 36.5823C18.7517 37.0855 19.0281 37.9363 18.7971 38.7262L17.6438 42.6692C17.1167 44.4715 19.1394 45.9411 20.6905 44.8828L24.0841 42.5675C24.764 42.1037 25.6586 42.1037 26.3385 42.5675L29.7321 44.8828C31.2832 45.9411 33.306 44.4715 32.7788 42.6692L31.6255 38.7262C31.3945 37.9363 31.6709 37.0855 32.3221 36.5823L35.5728 34.0702C37.0586 32.922 36.286 30.5441 34.409 30.4886L30.3027 30.367C29.48 30.3426 28.7563 29.8168 28.4789 29.0419L27.0943 25.1741Z" fill=""/>
  <path fill-rule="evenodd" clip-rule="evenodd" d="M16.4922 9.125V0.0268555L17.6922 0.0268555L17.6922 9.125H16.4922Z" fill=""/>
  <path fill-rule="evenodd" clip-rule="evenodd" d="M17.0234 13.2063C17.8795 13.2063 18.5734 12.5123 18.5734 11.6562C18.5734 10.8002 17.8795 10.1062 17.0234 10.1062C16.1674 10.1062 15.4734 10.8002 15.4734 11.6562C15.4734 12.5123 16.1674 13.2063 17.0234 13.2063ZM17.0234 14.4062C18.5422 14.4062 19.7734 13.175 19.7734 11.6562C19.7734 10.1375 18.5422 8.90625 17.0234 8.90625C15.5047 8.90625 14.2734 10.1375 14.2734 11.6562C14.2734 13.175 15.5047 14.4062 17.0234 14.4062Z" fill=""/>
  <path fill-rule="evenodd" clip-rule="evenodd" d="M32.8672 9.125V0.0268555L34.0672 0.0268555V9.125H32.8672Z" fill=""/>
  <path fill-rule="evenodd" clip-rule="evenodd" d="M33.3984 13.2063C34.2545 13.2063 34.9484 12.5123 34.9484 11.6562C34.9484 10.8002 34.2545 10.1062 33.3984 10.1062C32.5424 10.1062 31.8484 10.8002 31.8484 11.6562C31.8484 12.5123 32.5424 13.2063 33.3984 13.2063ZM33.3984 14.4062C34.9172 14.4062 36.1484 13.175 36.1484 11.6562C36.1484 10.1375 34.9172 8.90625 33.3984 8.90625C31.8797 8.90625 30.6484 10.1375 30.6484 11.6562C30.6484 13.175 31.8797 14.4062 33.3984 14.4062Z" fill=""/>
</svg>
