<?xml version="1.0"?>
<svg xmlns="http://www.w3.org/2000/svg" viewBox="0 0 36 36" fill="none">
  <path d="M0 21V25C2.12173 25 4.15656 25.8429 5.65685 27.3431C7.15715 28.8434 8 30.8783 8 33H12C12 29.8174 10.7357 26.7652 8.48528 24.5147C6.23484 22.2643 3.1826 21 0 21ZM0 28V33H5C5 32.3434 4.87067 31.6932 4.6194 31.0866C4.36812 30.48 3.99983 29.9288 3.53553 29.4645C3.07124 29.0002 2.52005 28.6319 1.91342 28.3806C1.30679 28.1293 0.656609 28 0 28Z" fill="currentColor"/>
  <path fill-rule="evenodd" clip-rule="evenodd" d="M19 4C28.9167 4 32.8078 7.82154 32.8078 7.82154C32.8078 7.82154 36 18.3631 36 22.6462C36 25.8585 31.2778 28 31.2778 28L25.6111 22.4615H12.3889L12.1991 22.647C11.9182 22.3161 11.6229 21.9955 11.3137 21.6863C8.97067 19.3433 5.97578 17.802 2.75528 17.239C3.69919 12.7519 5.19222 7.82154 5.19222 7.82154C5.19222 7.82154 9.08333 4 19 4ZM13.3333 15.0769H16.1667V12.3077H13.3333V9.53846H10.5V12.3077H7.66667V15.0769H10.5V17.8462H13.3333V15.0769ZM20.9938 17.4572C21.3821 17.7108 21.8386 17.8462 22.3056 17.8462C22.6156 17.8462 22.9226 17.7865 23.2091 17.6705C23.4956 17.5545 23.7559 17.3845 23.9751 17.1702C24.1944 16.956 24.3683 16.7016 24.4869 16.4216C24.6056 16.1416 24.6667 15.8415 24.6667 15.5385C24.6667 15.082 24.5282 14.6359 24.2687 14.2564C24.0093 13.8769 23.6406 13.5811 23.2091 13.4064C22.7777 13.2318 22.3029 13.1861 21.8449 13.2751C21.3869 13.3642 20.9662 13.5839 20.636 13.9067C20.3058 14.2294 20.0809 14.6406 19.9898 15.0883C19.8987 15.5359 19.9455 15.9999 20.1242 16.4216C20.3029 16.8433 20.6055 17.2037 20.9938 17.4572ZM26.6605 13.7649C27.0487 14.0185 27.5052 14.1538 27.9722 14.1538C28.5984 14.1538 29.199 13.9107 29.6418 13.4779C30.0846 13.0452 30.3333 12.4582 30.3333 11.8462C30.3333 11.3897 30.1949 10.9436 29.9354 10.5641C29.676 10.1846 29.3072 9.88879 28.8758 9.71412C28.4443 9.53946 27.9696 9.49376 27.5116 9.5828C27.0536 9.67185 26.6329 9.89163 26.3027 10.2144C25.9725 10.5371 25.7476 10.9483 25.6565 11.3959C25.5654 11.8436 25.6121 12.3076 25.7908 12.7293C25.9695 13.1509 26.2722 13.5114 26.6605 13.7649Z" fill="currentColor"/>
  <path d="M3.59567 25.8536C2.71888 24.9898 2 23.8995 2 22.6462C2 22.216 2.0322 21.7227 2.09012 21.1834C2.74122 21.2985 3.37994 21.467 4 21.6863C5.67161 22.2773 7.20766 23.2371 8.48528 24.5147C8.76659 24.796 9.03248 25.0899 9.28243 25.3949C9.29803 25.4139 9.31357 25.433 9.32904 25.4522L6.72222 28C6.72222 28 6.36151 27.8364 5.83947 27.5319C5.77973 27.4681 5.71885 27.4051 5.65685 27.3431C5.46932 27.1556 5.27343 26.9783 5.07006 26.8117C4.61305 26.4373 4.11828 26.1165 3.59567 25.8536Z" fill="currentColor"/>
</svg>
