<?xml version="1.0"?>
<svg xmlns="http://www.w3.org/2000/svg" viewBox="0 0 36 36" fill="none">
  <path fill="currentColor" fill-rule="evenodd" clip-rule="evenodd" d="M2 0C0.895431 0 0 0.895431 0 2V34C0 35.1046 0.895431 36 2 36H34C35.1046 36 36 35.1046 36 34V2C36 0.895431 35.1046 0 34 0H2ZM8.23669 24.75H16.6967V22.374H10.8827V12.15H8.23669V24.75ZM27.3744 14.4V12.15H19.3284V18.648L21.0024 19.566C21.3744 19.266 21.7524 19.044 22.1364 18.9C22.5204 18.744 22.9404 18.666 23.3964 18.666C24.0084 18.666 24.4884 18.828 24.8364 19.152C25.1964 19.476 25.3764 19.944 25.3764 20.556C25.3764 21.252 25.1424 21.786 24.6744 22.158C24.2064 22.53 23.5464 22.716 22.6944 22.716C21.5664 22.716 20.5404 22.404 19.6164 21.78L18.6804 23.796C19.1484 24.192 19.7364 24.498 20.4444 24.714C21.1524 24.93 21.9144 25.038 22.7304 25.038C23.8344 25.038 24.7884 24.852 25.5924 24.48C26.4084 24.096 27.0264 23.562 27.4464 22.878C27.8784 22.194 28.0944 21.396 28.0944 20.484C28.0944 19.26 27.7524 18.33 27.0684 17.694C26.3964 17.046 25.4964 16.722 24.3684 16.722C23.9244 16.722 23.4804 16.776 23.0364 16.884C22.6044 16.98 22.2144 17.136 21.8664 17.352V14.4H27.3744Z"/>
</svg>
