<?xml version="1.0"?>
<svg xmlns="http://www.w3.org/2000/svg" viewBox="0 0 98 32">
  <path fill="currentColor" d="M96.885,14.225c0,0.025,0,0.062,0,0.111v0.037
				c0,0.026,0,0.063,0,0.112c0,0.025,0,0.049,0,0.075c0,0.024,0,0.049,0,0.075c0,0.049,0,0.086,0,0.111v0.037
				c0,0.025,0,0.062,0,0.112c0,0.024,0,0.049,0,0.074s0,0.05,0,0.074c0,0.025,0,0.05,0,0.075c0,0.024,0,0.049,0,0.074v0.148
				c-0.075,0-0.149,0-0.223,0c-1.19,0-2.368,0-3.533,0v0.113c-0.149,0-0.298,0-0.446,0v-0.113c-1.661,0-3.322,0-4.983,0
				c0,0.026,0,0.05,0,0.075c0,0.026,0,0.062,0,0.112c0,0.024,0,0.063,0,0.112v0.037c-0.074,0-0.136,0-0.186,0v-0.074
				c-0.05,0-0.1,0-0.149,0v-0.037c0-0.024,0-0.05,0-0.075v-0.036c0-0.025,0-0.063,0-0.113c-0.149,0-0.322,0-0.52,0v0.113
				c-0.05,0-0.111,0-0.186,0v-0.113c-0.149,0-0.323,0-0.52,0c0,0.026,0,0.05,0,0.075v0.112c0,0.049,0,0.1,0,0.149
				c-0.05,0-0.113,0-0.187,0c-0.049,0-0.1,0-0.148,0v0.037c-0.05,0-0.112,0-0.186,0v-0.037c0-0.049,0-0.1,0-0.149
				c0-0.05,0-0.086,0-0.112c0-0.049,0-0.099,0-0.148c0-0.025,0-0.05,0-0.075c-2.951,0-5.889,0-8.814,0
				c-0.024,0-0.037-0.012-0.037-0.037c-0.024,0-0.037-0.013-0.037-0.037c-0.024,0-0.049,0-0.074,0h-0.111v0.26
				c-0.124,0-0.236,0-0.335,0c-4.462,0-8.925-0.012-13.387-0.038v0.41c-0.024,0-0.049,0.012-0.074,0.037v0.596
				c0.049,0,0.087,0,0.111,0v0.333c-0.024,0-0.062,0-0.111,0l-0.037,0.038h-0.038c0,0.024-0.012,0.037-0.038,0.037v-0.037
				c0.025,0,0.038-0.013,0.038-0.038c-0.124,0-0.272,0-0.446,0v0.075c-0.124,0-0.248,0-0.372,0v-0.335c-0.249,0-0.483,0-0.706,0
				v0.298c-0.1,0-0.21,0-0.334,0v-0.298c-0.149,0-0.31,0-0.483,0v0.26c-0.149,0-0.273,0-0.372,0v-0.26c-0.174,0-0.36,0-0.559,0v0.26
				c-0.148,0-0.272,0-0.371,0v-0.26c-0.174,0-0.335,0-0.483,0v0.26c-0.15,0-0.273,0-0.372,0v-0.26c-0.174,0-0.36,0-0.559,0v0.26
				c-0.099,0-0.209,0-0.333,0v-0.26h-0.15c-0.098,0-0.197,0-0.296,0v0.335c-0.124,0-0.236,0-0.334,0v-0.335c-0.174,0-0.36,0-0.559,0
				v0.26c-0.098,0-0.21,0-0.333,0v-0.26c-0.15,0-0.311,0-0.483,0v0.26c-0.149,0-0.286,0-0.41,0v-0.26c-0.174,0-0.347,0-0.521,0v0.26
				c-0.125,0-0.26,0-0.409,0v-0.26c-0.174,0-0.348,0-0.521,0v0.223c-0.125,0-0.235,0-0.333,0v-0.223c-0.15,0-0.324,0-0.522,0v0.26
				c-0.099,0-0.21,0-0.334,0v-0.26c-0.149,0-0.311,0-0.483,0v0.26c-0.125,0-0.236,0-0.335,0v-0.26c-0.198,0-0.384,0-0.558,0v0.223
				c-0.124,0-0.261,0-0.409,0v-0.223c-0.149,0-0.31,0-0.483,0v0.26c-0.125,0-0.236,0-0.334,0v-0.26c-0.198,0-0.41,0-0.633,0v0.26
				c-0.396,0-0.781,0-1.152,0v-0.26c-0.149,0-0.285,0-0.41,0v0.112l-0.037,0.037v0.037l-0.038,0.037v0.075
				c0,0.024-0.012,0.037-0.038,0.037c-0.025,0-0.037,0.012-0.037,0.037h-0.037c-0.099,0-0.198,0-0.297,0
				c-0.075,0.025-0.149,0.038-0.223,0.038c-0.025,0.024-0.063,0.037-0.112,0.037l-0.037,0.037c-0.024,0.025-0.061,0.037-0.112,0.037
				l-0.037,0.038h-0.037c-0.074,0.024-0.148,0.037-0.223,0.037c-0.05,0-0.1,0.012-0.149,0.036l-0.037,0.037v0.037
				c-0.025,0-0.05,0.013-0.074,0.039l-0.075,0.037c0,0.024-0.012,0.037-0.037,0.037l-0.074,0.074h-0.037
				c0,0.024-0.013,0.037-0.038,0.037v0.074l-0.037,0.037H45.42v0.037c0,0.025,0,0.05,0,0.074v0.038c0,0.025,0,0.049,0,0.074v0.52
				c0,0.026,0,0.05,0,0.074c0,0.05,0,0.1,0,0.149c0,0.05,0,0.088,0,0.112v0.148c0,0.05,0,0.1,0,0.149c0,0.05,0,0.087,0,0.112
				c0,0.05,0,0.1,0,0.148s0,0.099,0,0.149c0,0.025,0,0.05,0,0.075v0.037l0.112,0.11h0.037c0.024,0,0.049,0.014,0.074,0.039
				c0.024,0,0.037,0.012,0.037,0.037l0.038,0.037c0.024,0,0.037,0.012,0.037,0.037v0.706h-0.037c0,0.024-0.013,0.038-0.038,0.038
				v0.037h-0.037c-0.074,0-0.162,0-0.26,0v0.111c-0.024,0-0.075,0-0.149,0c-0.024,0-0.049,0-0.074,0v0.038c0,0.075,0,0.148,0,0.223
				c0,0.074,0,0.148,0,0.223c0,0.049,0,0.112,0,0.187c0,0.099,0,0.174,0,0.223c0,0.074,0,0.149,0,0.224c0,0.073,0,0.148,0,0.222
				c0,0.074,0,0.15,0,0.224s0,0.148,0,0.223c0,0.074,0,0.136,0,0.187c0,0.074,0,0.161,0,0.259c0,0.05,0,0.112,0,0.186
				c0,0.075,0,0.148,0,0.224c0,0.074,0,0.148,0,0.222s0,0.149,0,0.223c0,0.075,0,0.149,0,0.224c0,0.049,0,0.11,0,0.186
				c0,0.098,0,0.174,0,0.223c0,0.073,0,0.149,0,0.223c0,0.074,0,0.149,0,0.223c0,0.075,0,0.149,0,0.223c0,0.049,0,0.124,0,0.223
				c0,0.074,0,0.138,0,0.186c0,0.074,0,0.162,0,0.261c0,0.05,0,0.111,0,0.186c0,0.074,0,0.149,0,0.224c0,0.074,0,0.148,0,0.223
				c0,0.074,0,0.136,0,0.186c0,0.099,0,0.186,0,0.26c0,0.049,0,0.112,0,0.187c0,0.098,0,0.172,0,0.222c0,0.075,0,0.149,0,0.223
				c0,0.049,0,0.124,0,0.223c0,0.075,0,0.137,0,0.187c0,0.049,0,0.099,0,0.148v0.112c0,0.073,0,0.136,0,0.186v0.148
				c0,0.025,0,0.062,0,0.111c0,0.026,0,0.05,0,0.075c0.025,0,0.05,0,0.074,0v0.223c-2.157,0-4.314,0-6.47,0c-0.05,0-0.099,0-0.148,0
				c-0.025,0-0.062,0-0.113,0v-0.074c0-0.025,0-0.049,0-0.074s0-0.05,0-0.075v-0.075c0-0.024,0-0.049,0-0.074v-0.037
				c0-0.025,0-0.049,0-0.075v-0.036c0-0.025,0-0.05,0-0.075h-0.036v-0.038c-0.1,0-0.199,0-0.297,0v-0.446
				c0.024,0,0.049-0.013,0.074-0.038c0-0.099,0-0.173,0-0.223c0-0.075,0-0.149,0-0.223c0-0.075,0-0.149,0-0.224
				c0-0.073,0-0.147,0-0.223c0-0.05,0-0.124,0-0.222c0-0.074,0-0.137,0-0.186c0-0.074,0-0.161,0-0.261c0-0.049,0-0.111,0-0.186
				c0-0.074,0-0.149,0-0.223s0-0.149,0-0.224c0-0.074,0-0.135,0-0.186c0-0.098,0-0.185,0-0.26c0-0.049,0-0.111,0-0.185
				c0-0.1,0-0.174,0-0.224c0-0.074,0-0.148,0-0.224c0-0.073,0-0.147,0-0.222c0-0.074,0-0.149,0-0.222c0-0.05,0-0.125,0-0.225
				c0-0.074,0-0.135,0-0.186c0-0.074,0-0.162,0-0.26c0-0.05,0-0.112,0-0.186c0-0.075,0-0.148,0-0.223c0-0.074,0-0.149,0-0.223
				c0-0.074,0-0.137,0-0.187c0-0.099,0-0.186,0-0.261c0-0.049,0-0.11,0-0.186c0-0.074,0-0.135,0-0.186c-0.05,0-0.099,0-0.149,0
				c-0.1,0-0.186,0-0.261,0h-0.036c-0.025,0-0.05,0.013-0.075,0.038c-0.025,0-0.038,0.013-0.038,0.038h-0.037
				c-0.024,0-0.061,0.012-0.111,0.036c-0.05,0-0.1,0.012-0.148,0.038v0.148c-1.587,0.025-3.173,0.038-4.76,0.038
				c-0.149,0-0.273,0-0.373,0v0.186l-0.074,0.074v0.038l-0.038,0.037v0.038h-0.037l-0.036,0.038v0.074h-0.038
				c0,0.024-0.012,0.037-0.037,0.037v0.074c-0.024,0-0.038,0.012-0.038,0.038v0.074h-0.037l-0.075,0.075v0.037
				c-0.024,0-0.036,0.012-0.036,0.037V23h-0.038v0.075h-0.037v0.036c-0.024,0-0.037,0.013-0.037,0.037v0.039h-0.075v0.074h0.037
				v0.111l0.038,0.037v0.038c0.024,0,0.037,0.012,0.037,0.036v0.038h0.037v0.037c0.025,0,0.038,0.012,0.038,0.037v0.446
				c-0.025,0.025-0.049,0.037-0.075,0.037c-0.173,0-0.36,0-0.557,0l-0.038,0.037v0.075c-0.024,0-0.037,0.013-0.037,0.038v0.037
				c0,0.024-0.012,0.037-0.037,0.037l-0.037,0.036v0.039h-0.038v0.038c0,0.024-0.012,0.037-0.037,0.037v0.037l-0.037,0.036v0.038
				h-0.037V24.6h-0.037v0.073l-0.037,0.038v0.037H30.77v0.038c0,0.025-0.013,0.036-0.037,0.036v0.038h-0.038v0.037
				c0,0.025-0.012,0.038-0.038,0.038c0,0.024-0.012,0.037-0.037,0.037v0.076h-0.038v0.185c0,0.025-0.012,0.038-0.037,0.038
				c0,0.026-0.013,0.038-0.038,0.038v0.037c-0.024,0.024-0.049,0.037-0.074,0.037v0.074h-0.037v0.075l-0.037,0.038v0.037
				c0,0.025-0.013,0.037-0.038,0.037v0.037c0,0.024-0.012,0.037-0.037,0.037v0.039l-0.037,0.036c0,0.025-0.012,0.038-0.037,0.038
				v0.111c0,0.025-0.013,0.038-0.037,0.038l-0.039,0.037c0,0.024-0.011,0.037-0.036,0.037v0.037l-0.038,0.038v0.037h-0.036v0.038
				c-0.026,0.024-0.051,0.038-0.076,0.038v0.037l-0.037,0.038c0,0.024-0.013,0.037-0.037,0.037v0.038
				c0,0.024-0.012,0.037-0.037,0.037v0.037c0,0.024-0.012,0.037-0.038,0.037v0.111c-0.024,0-0.037,0.012-0.037,0.037v0.038h-0.038
				l0.038,0.036v0.037c0.024,0,0.037,0.013,0.037,0.039v0.037h0.038v0.483l-0.038,0.038c0,0.024-0.013,0.037-0.037,0.037v0.037
				h-0.038V27.5l-0.038,0.037v0.075l-0.037,0.038c-0.024,0-0.05,0-0.074,0v0.037c-0.174,0-0.36,0-0.559,0
				c-0.023-0.024-0.061-0.037-0.111-0.037c-0.025,0-0.05-0.013-0.075-0.038c-0.024-0.025-0.049-0.038-0.073-0.038
				c-0.025-0.025-0.063-0.037-0.112-0.037c-0.074-0.024-0.137-0.037-0.186-0.037v-0.037c-0.075-0.024-0.149-0.037-0.223-0.037
				c-0.074-0.025-0.137-0.037-0.186-0.037s-0.099,0-0.148,0c-0.05-0.026-0.087-0.037-0.111-0.037
				c-0.075-0.025-0.15-0.038-0.224-0.038c-0.024-0.025-0.062-0.038-0.111-0.038c-0.025,0-0.062-0.011-0.112-0.037
				c-0.05-0.024-0.086-0.038-0.11-0.038c-0.051-0.024-0.101-0.037-0.149-0.037c-0.025,0-0.051-0.013-0.075-0.039
				c-0.075-0.024-0.137-0.036-0.186-0.036c-0.049-0.025-0.099-0.038-0.148-0.038c-0.025,0-0.063,0-0.112,0v-0.037
				c-0.05-0.025-0.1-0.037-0.148-0.037c-0.05-0.024-0.087-0.038-0.113-0.038c-0.049,0-0.098-0.012-0.148-0.037
				c-0.049-0.024-0.1-0.036-0.149-0.036c-0.024-0.026-0.062-0.038-0.111-0.038c-0.049-0.025-0.1-0.037-0.15-0.037
				c-0.074,0-0.124-0.012-0.148-0.039c-0.024-0.024-0.049-0.037-0.074-0.037c-0.049-0.024-0.087-0.036-0.111-0.036
				c-0.05,0-0.1,0-0.15,0c-0.073-0.026-0.135-0.038-0.186-0.038l-0.036-0.037v-0.447h0.036v-0.148c0.025,0,0.038-0.012,0.038-0.037
				h0.038c0-0.025,0.012-0.038,0.038-0.038V25.9l0.037-0.037v-0.037c0.024-0.025,0.049-0.038,0.074-0.038v-0.111h0.037v-0.037
				c0.025,0,0.051,0,0.075,0v-0.074h0.037v-0.038c0.025-0.024,0.05-0.038,0.074-0.038v-0.075h0.037c0.025,0,0.037-0.012,0.037-0.037
				v-0.037h0.038v-0.074h0.037v-0.074c0.024,0,0.037-0.013,0.037-0.038v-0.036h0.037v-0.038c0.025-0.025,0.05-0.037,0.075-0.037
				v-0.076h0.038c0-0.024,0.012-0.037,0.037-0.037l0.037-0.038V24.86l0.038-0.038c0-0.024,0.013-0.036,0.037-0.036v-0.149
				c0.025,0,0.037-0.012,0.037-0.037v-0.038h0.075v-0.074l0.074-0.074v-0.076c0.026,0,0.037-0.011,0.037-0.036
				c0.025,0,0.038-0.013,0.038-0.037h0.036c0-0.024,0.013-0.037,0.038-0.037v-0.112l0.075-0.074v-0.037l0.074-0.074
				c0.025,0,0.037-0.013,0.037-0.037v-0.038h0.076v-0.075l0.037-0.037v-0.076l0.038-0.037v-0.074h0.037v-0.037h0.038l0.074-0.038
				v-0.074l0.037-0.037v-0.074h0.037v-0.037c0.025,0,0.037-0.012,0.037-0.037v-0.037h0.037l0.038-0.039v-0.073h0.037v-0.15h0.038
				l0.037-0.037v-0.075c0.025,0,0.05,0,0.074,0h0.039v-0.112h0.036c0-0.024,0.013-0.037,0.037-0.037v-0.111h0.037v-0.037
				l0.037-0.038h0.038v-0.075c0-0.024,0.012-0.038,0.037-0.038v-0.111l0.036-0.037c0-0.024,0.014-0.037,0.039-0.037v-0.074h0.075
				v-0.074c0.024,0,0.049,0,0.073,0c0-0.024,0.013-0.038,0.038-0.038v-0.038c0.024,0,0.037-0.012,0.037-0.037v-0.111l0.038-0.038
				h0.036l0.075-0.074v-0.074c0.024,0,0.05,0,0.075,0c0-0.025,0.012-0.038,0.037-0.038v-0.075h0.037v-0.036l0.037-0.038v-0.037
				h0.037c0.025,0,0.038-0.012,0.038-0.037v-0.038l0.037-0.036c0-0.026,0.013-0.038,0.038-0.038v-0.073h0.038v-0.037l0.036-0.037
				c0.025,0,0.037-0.014,0.037-0.039h0.038v-0.037l0.038-0.037v-0.075h0.037V20.77h0.037v-0.038l0.037-0.037
				c0.025,0,0.038-0.013,0.038-0.037h0.037l0.074-0.075v-0.038c0.025,0,0.038-0.013,0.038-0.037v-0.037h0.038v-0.075
				c0.024,0,0.037-0.013,0.037-0.038l0.037-0.037v-0.037l0.039-0.038v-0.037h0.037l0.037-0.039c0-0.024,0.013-0.037,0.037-0.037
				l0.037-0.037v-0.038c0.025-0.024,0.049-0.036,0.075-0.036v-0.038h0.074v-0.112h0.038v-0.112l0.037-0.037v-0.074h0.037
				c0-0.025,0.013-0.037,0.037-0.037v-0.298h0.038V19.17l-0.038-0.038v-0.148c-0.024-0.025-0.05-0.037-0.074-0.037V18.91
				c0-0.025-0.012-0.037-0.037-0.037v-0.037l-0.038-0.038c0-0.024-0.012-0.038-0.037-0.038v-0.037l-0.038-0.037h-0.037l-0.112-0.074
				v-0.038H28.91c-0.025-0.024-0.05-0.037-0.075-0.037l-0.037-0.037v-0.075c-0.025-0.024-0.062-0.036-0.112-0.036l-0.037-0.038
				c0-0.025-0.013-0.038-0.038-0.038c-0.024-0.024-0.049-0.037-0.075-0.037c0-0.024-0.012-0.037-0.037-0.037h-0.037v-0.036
				c0-0.026-0.013-0.038-0.037-0.038c-0.026,0-0.038-0.012-0.038-0.037c-0.025-0.024-0.049-0.037-0.075-0.037
				c-1.189-0.025-2.367-0.038-3.532-0.038v-0.037c-0.025,0-0.038-0.013-0.038-0.038v-0.037c0-0.024-0.013-0.037-0.037-0.037
				l-0.148-0.148c-0.024,0-0.049-0.013-0.074-0.038h-0.038c-0.025,0-0.05,0-0.074,0c0-0.025-0.012-0.038-0.037-0.038
				c-0.049,0-0.087,0-0.112,0v0.038c-0.024,0-0.049,0-0.074,0h-0.074c-0.348,0-0.67,0-0.968,0v-0.074
				c-0.769,0-1.537,0.013-2.305,0.037c-0.025,0.025-0.05,0.038-0.075,0.038c-0.199,0-0.384,0-0.557,0h-0.038l-0.074,0.074
				c-0.024,0-0.038,0.013-0.038,0.038c-0.024,0-0.036,0.012-0.036,0.036h-0.038c0,0.025-0.012,0.038-0.037,0.038h-0.037v0.037
				l-0.038,0.037c0,0.025-0.012,0.038-0.036,0.038c0,0.025-0.013,0.037-0.039,0.037v0.038l-0.036,0.037
				c0,0.025-0.012,0.037-0.038,0.037v0.074c-0.025,0-0.049,0-0.074,0l-0.039,0.037H19.54v0.037l-0.038,0.038
				c-0.024,0-0.037,0.012-0.037,0.038c-0.025,0-0.037,0.012-0.037,0.036h-0.037c-0.025,0.025-0.05,0.037-0.075,0.037v0.038
				c-0.024,0-0.037,0.012-0.037,0.037h-0.036v0.037c-0.026,0.026-0.05,0.038-0.076,0.038c-0.024,0-0.049,0-0.074,0
				c-0.025,0-0.037,0.012-0.037,0.037h-0.037v0.074l-0.037,0.037v0.038c0,0.025-0.013,0.038-0.038,0.038v0.037
				c-0.025,0-0.037,0.012-0.037,0.037c-0.025,0-0.038,0.013-0.038,0.038h-0.037c0,0.024-0.013,0.037-0.037,0.037v0.037
				c-0.026,0-0.038,0.013-0.038,0.038H18.72v0.074c-0.024,0-0.036,0.013-0.036,0.038l-0.075,0.074v0.037
				c0,0.025-0.012,0.037-0.038,0.037h-0.037c-0.024,0-0.037,0.013-0.037,0.038h-0.037c0,0.024-0.013,0.037-0.037,0.037v0.037
				c-0.025,0-0.038,0.012-0.038,0.038c-0.024,0-0.037,0.011-0.037,0.035h-0.037v0.039l-0.037,0.037v0.037
				c-0.025,0-0.038,0.012-0.038,0.037h-0.074v0.036c-0.025,0-0.037,0.014-0.037,0.038v0.037h-0.038v0.039h-0.037
				c0,0.023-0.012,0.037-0.038,0.037c-0.024,0-0.049,0.012-0.074,0.037h-0.038v0.037c0,0.025-0.013,0.037-0.037,0.037v0.038h-0.038
				v0.038l-0.036,0.036V20.1l-0.039,0.037c0,0.025,0.013,0.05,0.039,0.075v0.037c-0.025,0.025-0.039,0.05-0.039,0.075
				s0.013,0.037,0.039,0.037c0,0.024,0,0.05,0,0.075c0,0.024,0,0.05,0,0.074c0,0.024,0,0.049,0,0.075c0,0.025,0,0.049,0,0.075v0.074
				c0,0.025,0,0.049,0,0.075c0,0.025,0,0.049,0,0.074s0,0.05,0,0.074c0,0.025,0,0.05,0,0.074v0.037c0,0.025,0,0.051,0,0.076
				c0,0.024,0,0.049,0,0.074v0.036c-0.025,0.025-0.051,0.05-0.075,0.074c0,0.025,0,0.05,0,0.075c-0.024,0-0.05,0-0.074,0
				c0,0.024,0,0.049,0,0.075c-0.025,0.024-0.049,0.049-0.074,0.074c-0.025,0.025-0.05,0.037-0.074,0.037
				c0,0.025-0.013,0.038-0.038,0.038s-0.062,0.012-0.111,0.037c-0.025,0-0.05,0-0.075,0c-0.024-0.025-0.049-0.037-0.074-0.037
				c-0.024,0-0.037-0.013-0.037-0.038c-2.207,0-4.413,0-6.62,0c-0.769,0-1.548,0-2.343,0c-0.694,0-1.388,0-2.083,0V21.55
				c-0.025,0-0.049,0-0.074,0v-0.074H6.004c0-0.026-0.013-0.038-0.038-0.038V21.29c-0.024,0-0.062,0-0.11,0v-0.038
				c0-0.073,0-0.135,0-0.186v-0.037c-0.084-0.024-0.159-0.037-0.224-0.037c0-0.025,0-0.05,0-0.075v-0.037c0-0.025,0-0.049,0-0.074
				V20.77c0-0.025,0-0.05,0-0.074c-0.716,0-1.422,0-2.119,0c0,0.049,0,0.099,0,0.148c0,0.074,0,0.149,0,0.222
				c0,0.076,0,0.15,0,0.224s0,0.136,0,0.186c0,0.074,0,0.161,0,0.259c0,0.05,0,0.113,0,0.187c0,0.075,0,0.148,0,0.223
				c0,0.075,0,0.149,0,0.223c0,0.075,0,0.15,0,0.224c0,0.074,0,0.149,0,0.223c0,0.05,0,0.111,0,0.186c0,0.025,0,0.05,0,0.075v0.408
				c-0.125,0-0.248,0-0.372,0v-0.036c-0.322-0.025-0.669-0.038-1.042-0.038v0.26c-0.025,0.026-0.049,0.038-0.075,0.038v0.372H1.988
				c-0.025,0-0.05,0-0.075,0c-0.147,0-0.31,0-0.482,0c0.024,0.001,0.036,0.013,0.036,0.037l0.037,0.037H1.467
				c-0.049,0-0.086,0-0.111,0L1.318,24.19c-0.024,0-0.049,0-0.074,0c-0.1,0-0.174,0-0.224,0c-0.123,0-0.235,0-0.334,0v-0.038
				c0-0.024,0-0.062,0-0.111c0-0.025,0-0.062,0-0.111v-0.075c0-0.05,0-0.1,0-0.149c0-0.025,0-0.063,0-0.111c0-0.025,0-0.049,0-0.074
				c0-0.05,0-0.086,0-0.112c0-0.049,0-0.087,0-0.111c0-0.049,0-0.086,0-0.111c0-0.026,0-0.063,0-0.111c0-0.05,0-0.087,0-0.113
				c0-0.049,0-0.086,0-0.111c0-0.024,0-0.062,0-0.111c0-0.026,0-0.062,0-0.112c0-0.025,0-0.062,0-0.111c0-0.025,0-0.05,0-0.075
				c0-0.05,0-0.099,0-0.148c0-0.025,0-0.063,0-0.111c0.049,0,0.111,0,0.186,0v-0.298c0-0.024,0.013-0.036,0.037-0.036v-0.038
				c0-0.05,0-0.124,0-0.223c0-0.075,0-0.137,0-0.186c0-0.075,0-0.149,0-0.223c0-0.074,0-0.149,0-0.224s0-0.148,0-0.223
				c0-0.074,0-0.148,0-0.223c0-0.074,0-0.136,0-0.186c0-0.075,0-0.162,0-0.261c0-0.049,0-0.111,0-0.186c0-0.073,0-0.149,0-0.223
				c0-0.074,0-0.15,0-0.223c0-0.074,0-0.149,0-0.224c0-0.074,0-0.148,0-0.223c0-0.049,0-0.112,0-0.186c0-0.099,0-0.173,0-0.223
				c0-0.074,0-0.149,0-0.223c0-0.075,0-0.148,0-0.223c0-0.074,0-0.149,0-0.223c0-0.074,0-0.148,0-0.224c0-0.075,0-0.137,0-0.186
				c0-0.075,0-0.161,0-0.26c0-0.049,0-0.112,0-0.186c0-0.075,0-0.149,0-0.224s0-0.149,0-0.223c0-0.074,0-0.136,0-0.186
				c0-0.099,0-0.186,0-0.261c0-0.05,0-0.111,0-0.186c0-0.099,0-0.172,0-0.223c0-0.074,0-0.148,0-0.223c0-0.073,0-0.148,0-0.224
				c0-0.074,0-0.148,0-0.222H0.872v-0.038l-0.038-0.037c-0.025-0.024-0.037-0.05-0.037-0.074c0-0.025,0-0.049,0-0.075
				c0-0.024,0-0.048,0-0.074v-0.037c0-0.025,0-0.05,0-0.075c0-0.023,0-0.048,0-0.073c0-0.026,0-0.051,0-0.076v-0.037
				c0-0.024,0-0.049,0-0.074v-0.039c0-0.025,0-0.049,0-0.073c0-0.025,0-0.049,0-0.075c0-0.024,0-0.049,0-0.075
				c0-0.024,0-0.049,0-0.074v-0.074c0-0.025,0-0.049,0-0.074c0-0.026,0-0.05,0-0.075c0-0.025,0-0.05,0-0.075s0-0.05,0-0.075v-0.037
				c0-0.025,0-0.049,0-0.074s0-0.049,0-0.075v-0.074H0.723c-0.025,0-0.037-0.013-0.037-0.038v-0.186c0-0.025,0-0.051,0-0.075v-0.26
				c-0.05,0-0.112,0-0.187,0v-0.335c0.272,0,0.546,0,0.818,0v0.037c0.273,0,0.534,0,0.781,0v0.335c-0.025,0-0.062,0-0.111,0
				l0.036,0.037c0.472,0,0.931,0,1.377,0v0.261c0.049,0,0.086,0,0.111,0v0.038c0,0.05,0,0.111,0,0.186c0,0.099,0,0.173,0,0.223
				c0,0.075,0,0.149,0,0.223c0,0.075,0,0.149,0,0.225c0,0.074,0,0.148,0,0.222c0,0.05,0,0.125,0,0.224c0,0.075,0,0.136,0,0.186
				c0,0.074,0,0.16,0,0.26c0,0.05,0,0.112,0,0.186c0,0.075,0,0.148,0,0.223s0,0.149,0,0.224c0,0.074,0,0.135,0,0.186
				c0,0.099,0,0.187,0,0.26c0,0.049,0,0.112,0,0.186c0.768,0,1.549,0,2.343,0c0-0.074,0-0.148,0-0.223c0-0.075,0-0.148,0-0.223
				c0-0.051,0-0.125,0-0.223c0-0.05,0-0.099,0-0.148c0.049,0,0.086,0,0.11,0c0.075,0,0.149,0,0.224,0c1.115,0,2.219,0,3.309,0
				c0-0.051,0-0.101,0-0.15c0-0.049,0-0.099,0-0.148s0-0.086,0-0.112c0-0.049,0-0.099,0-0.148c0-0.051,0-0.1,0-0.149
				c0-0.025,0-0.063,0-0.111c0-0.05,0-0.101,0-0.149v-0.037c-0.942,0-1.884,0-2.826,0v-0.075c-0.125,0-0.248,0-0.372,0v-0.445
				c-0.025,0-0.037-0.013-0.037-0.039v-0.297H6.228v-0.037c0-0.049,0-0.111,0-0.186c0-0.025,0-0.061,0-0.111
				c0-0.076,0-0.137,0-0.187c0-0.074,0-0.125,0-0.148c0-0.049,0-0.112,0-0.187c0-0.05,0-0.099,0-0.148c0-0.05,0-0.111,0-0.186
				c0-0.05,0-0.088,0-0.112c0-0.074,0-0.136,0-0.185c0-0.075,0-0.137,0-0.187c0-0.049,0-0.1,0-0.149c0-0.049,0-0.11,0-0.186
				c0-0.024,0-0.074,0-0.148c0-0.05,0-0.099,0-0.149c0-0.049,0-0.098,0-0.149c0-0.074,0-0.136,0-0.187c0-0.049,0-0.098,0-0.147
				c0-0.05,0-0.111,0-0.186c-0.025,0-0.038-0.013-0.038-0.038v-0.334c0-0.024,0.012-0.037,0.038-0.037V10.06
				c0.049,0,0.099,0,0.147,0V9.911c0.05,0,0.1-0.013,0.149-0.038V9.8c0.075,0,0.149-0.012,0.223-0.038
				c0.025,0,0.038-0.013,0.038-0.038c0.124,0,0.248,0,0.373,0c3.147,0,6.284,0,9.406,0c0.1,0,0.187,0,0.261,0
				c0.446-0.025,0.893-0.037,1.339-0.037H18.2V9.651c0.248,0.025,0.508,0.037,0.782,0.037c0.222,0.024,0.433,0.037,0.632,0.037
				h0.222c0.372,0,0.746,0,1.116,0v0.038c0.075,0,0.174,0,0.299,0L21.287,9.8h0.037l0.038,0.038c0,0.024,0.013,0.036,0.037,0.036
				v0.484c-0.024,0-0.037,0.012-0.037,0.037h-0.038v0.075l-0.037,0.037v0.074c-0.024,0-0.036,0.012-0.036,0.038l-0.037,0.037
				c0,0.024-0.013,0.038-0.039,0.038c0,0.024-0.012,0.036-0.037,0.036l-0.073,0.075v0.037l-0.076,0.073v0.037l-0.149,0.149h-0.037
				v0.076l-0.075,0.036v0.038l-0.074,0.111h-0.037v0.037l-0.074,0.075v0.037l-0.112,0.074v0.039c-0.025,0-0.037,0.012-0.037,0.037
				v0.036c0,0.025-0.013,0.038-0.037,0.038v0.075c-0.025,0-0.051,0-0.076,0c0,0.023-0.013,0.037-0.036,0.037
				c0,0.024-0.012,0.037-0.038,0.037l-0.036,0.037c-0.025,0-0.05,0-0.075,0v0.075c-0.025,0-0.037,0.013-0.037,0.037v0.037h-0.038
				v0.112c-0.024,0-0.036,0.013-0.036,0.037l-0.075,0.074h-0.037v0.038c-0.025,0-0.038,0.012-0.038,0.038L19.8,12.403
				c0,0.025-0.013,0.037-0.039,0.037v0.037c-0.024,0-0.036,0.013-0.036,0.037l-0.075,0.111h-0.036v0.038l-0.075,0.074v0.037h-0.038
				v0.075c-0.024,0-0.037,0.013-0.037,0.038v0.037h-0.037c0,0.024-0.013,0.037-0.037,0.037h-0.038c-0.025,0-0.037,0.012-0.037,0.038
				l-0.037,0.037v0.037h-0.036l-0.039,0.037v0.037h-0.038c0,0.024-0.012,0.037-0.037,0.037l-0.074,0.076h-0.037v0.037l-0.037,0.036
				v0.038h-0.038v0.037l-0.037,0.038v0.038l-0.074,0.074h-0.037l-0.076,0.074c-0.024,0-0.036,0.012-0.036,0.037H18.61l-0.112,0.149
				h-0.037v0.038c-0.025,0-0.037,0.012-0.037,0.036v0.039c-0.049,0-0.087,0-0.112,0l-0.037,0.036c0,0.025-0.013,0.038-0.038,0.038
				L18.2,14.038c-0.024,0-0.05,0-0.074,0c0,0.025-0.013,0.038-0.038,0.038c-0.025,0.025-0.048,0.038-0.074,0.038l-0.036,0.036v0.038
				h-0.076c0,0.025-0.013,0.037-0.037,0.037l-0.074,0.075h-0.039v0.036c-0.025,0.025-0.049,0.037-0.074,0.037h-0.037
				c-0.049,0-0.086,0-0.112,0v0.039c-0.049,0-0.087,0-0.111,0c-1.314,0-2.628,0-3.942,0v0.11l-0.037,0.038v0.111l-0.112,0.075
				c0,0.023,0,0.049,0,0.074s0,0.05,0,0.075v0.037c0,0.024,0,0.05,0,0.074v0.075c0,0.024,0,0.049,0,0.074v0.037
				c0,0.025,0,0.05,0,0.075c0,0.024,0,0.049,0,0.073v0.038c0,0.024,0,0.05,0,0.075c0.942,0,1.859,0,2.752,0c0.62,0,1.228,0,1.821,0
				h0.038c0-0.025,0.012-0.039,0.038-0.039v-0.037c0.024,0,0.036-0.012,0.036-0.038h0.038c0.024,0,0.049-0.012,0.074-0.037
				c0.024,0,0.037-0.012,0.037-0.036H18.2c0-0.025,0.013-0.038,0.037-0.038v-0.037c0.025,0,0.038-0.012,0.038-0.037
				c0.024,0,0.037-0.013,0.037-0.037h0.037c0-0.025,0.013-0.037,0.037-0.037h0.038l0.074-0.075h0.037
				c0-0.024,0.012-0.037,0.037-0.037v-0.074c0.025,0,0.038-0.013,0.038-0.039v-0.037c0-0.024,0.012-0.037,0.037-0.037v-0.037h0.038
				c0.024,0,0.036-0.013,0.036-0.038l0.038-0.038v-0.073c0.025,0,0.038-0.014,0.038-0.038h0.037
				c0.025-0.026,0.049-0.038,0.074-0.038v-0.037c0.024,0,0.049-0.013,0.075-0.037v-0.037c0-0.026,0.013-0.039,0.037-0.039v-0.037
				l0.037-0.036h0.037c0-0.025,0.012-0.037,0.037-0.037v-0.075c0.025,0,0.037-0.012,0.037-0.038h0.038v-0.074
				c0.025,0,0.039-0.012,0.039-0.038h0.036l0.037-0.037v-0.038c0-0.024,0.012-0.036,0.037-0.036v-0.075h0.038l0.037-0.038
				c0.024-0.024,0.049-0.037,0.073-0.037v-0.037l0.038-0.038h0.036c0-0.023,0.013-0.037,0.039-0.037h0.036
				c0.025,0,0.038-0.013,0.038-0.037s0.013-0.037,0.038-0.037v-0.037h0.036c0-0.025,0.013-0.038,0.039-0.038v-0.074
				c0.024,0,0.036-0.013,0.036-0.038c0.026,0,0.038-0.012,0.038-0.037l0.037-0.038c0.024,0,0.05,0,0.075,0v-0.036l0.036-0.037
				v-0.076c0.025,0,0.038-0.013,0.038-0.037c0.024,0,0.037-0.013,0.037-0.037v-0.111h0.037l0.038-0.038
				c0-0.025,0.012-0.037,0.036-0.037v-0.037c0.026,0,0.038-0.012,0.038-0.038h0.036v-0.037l0.037-0.038v-0.037
				c0.025,0,0.039-0.012,0.039-0.037l0.037-0.037h0.037v-0.038h0.037c0.025,0,0.037-0.012,0.037-0.037l0.077-0.074v-0.037
				c0.024,0,0.036-0.013,0.036-0.037c0.024,0,0.037-0.012,0.037-0.037h0.037c0-0.025,0.013-0.037,0.038-0.037v-0.075h0.038
				c0-0.025,0.012-0.038,0.037-0.038c0-0.024,0.013-0.037,0.037-0.037c0.025,0,0.038-0.012,0.038-0.037
				c0.024,0,0.037-0.012,0.037-0.037h0.037c0-0.025,0.012-0.037,0.038-0.037v-0.075c0.025,0,0.038-0.013,0.038-0.037
				c0.025,0,0.038-0.013,0.038-0.038v-0.037c0.023,0,0.036-0.012,0.036-0.037c0.024,0,0.037-0.012,0.037-0.037h0.037
				c0.025-0.026,0.05-0.037,0.076-0.037V11.77l0.036-0.036v-0.038h0.037c0-0.024,0.012-0.036,0.038-0.036
				c0-0.025,0.013-0.037,0.037-0.037v-0.039h0.038v-0.11c0.024,0,0.037-0.013,0.037-0.038h0.038c0.075,0,0.136,0,0.186,0v-0.038
				c0.224,0,0.446,0,0.669,0h0.038c0.099,0,0.211,0,0.334,0c0.05,0,0.087,0,0.112,0c0.049,0,0.099,0,0.148,0
				c0.074,0,0.136,0,0.186,0h0.037c0.273,0,0.545,0,0.817,0h0.298v-0.037h0.037v-0.038l0.037-0.037V11.25l0.038-0.038h0.075v-0.036
				c0-0.025,0.013-0.051,0.037-0.076c0-0.024,0.012-0.05,0.037-0.073c0-0.025,0-0.05,0-0.076c0-0.023,0-0.049,0-0.074v-0.073
				c0-0.025,0-0.05,0-0.075c0-0.024,0-0.05,0-0.074c0-0.025,0-0.05,0-0.075c0.025-0.025,0.05-0.049,0.075-0.074
				c0.025,0,0.05,0,0.074,0h0.038V10.32c0.025,0,0.038-0.012,0.038-0.037c0.049-0.025,0.086-0.038,0.111-0.038
				c0.571,0,1.14,0,1.711,0V9.8c-0.42,0-0.855,0-1.302,0c-0.075,0-0.161,0-0.261,0c-0.024,0-0.048,0-0.073,0V9.093
				c0.073,0,0.148,0,0.223,0c0.694,0,1.387,0,2.082,0c0-0.025,0.012-0.037,0.037-0.037l0.037-0.037c0.025,0,0.038-0.013,0.038-0.038
				V8.944h0.037c0.023-0.024,0.062-0.038,0.111-0.038l0.038-0.036h0.036c0-0.025,0.013-0.039,0.037-0.039h0.038
				c0.173,0,0.347,0,0.521,0c0.024,0,0.049,0.013,0.074,0.039h0.037c0.025,0.024,0.05,0.036,0.076,0.036v0.038h0.037l0.037,0.075
				c0,0.024,0.012,0.037,0.037,0.037v0.334c0.819,0,1.625,0,2.417,0v0.074c0.025,0,0.05,0,0.075,0v0.074c0,0.025,0,0.051,0,0.075
				v0.038c0,0.025,0,0.049,0,0.074c0,0.024,0,0.051,0,0.075c0,0.025,0,0.049,0,0.074c0,0.025,0,0.049,0,0.075v0.037
				c0,0.024,0,0.05,0,0.074v0.037c0,0.025,0,0.05,0,0.075v0.038c1.14,0,2.293,0,3.458,0c0-0.05,0-0.1,0-0.149
				c0-0.074,0-0.148,0-0.222c0-0.075,0-0.15,0-0.224c0-0.075,0-0.136,0-0.186c0-0.074,0-0.162,0-0.261c0-0.048,0-0.111,0-0.186
				c0-0.074,0-0.149,0-0.223c0-0.074,0-0.148,0-0.223c0-0.074,0-0.136,0-0.187c0-0.098,0-0.187,0-0.259c0-0.05,0-0.113,0-0.186
				c0-0.1,0-0.174,0-0.224c0-0.074,0-0.148,0-0.222c-0.248,0-0.496,0-0.745,0c0,0.024-0.012,0.036-0.037,0.036L33.67,7.532h-0.037
				c-0.049,0.024-0.101,0.037-0.149,0.037h-0.037c0,0.024-0.013,0.037-0.037,0.037c-0.024,0-0.038,0.013-0.038,0.038V7.68h-0.037
				v0.038c-0.025,0-0.037,0.012-0.037,0.037c-0.024,0.024-0.05,0.036-0.075,0.036l-0.037,0.038c-0.026,0-0.037,0.012-0.037,0.037
				c-0.05,0-0.087,0-0.112,0L33,7.904c-0.049,0-0.099,0-0.148,0c-2.157-0.026-4.314-0.039-6.47-0.039v0.039
				c-0.076-0.026-0.161-0.039-0.261-0.039h-0.075c0-0.075,0-0.124,0-0.147V7.494c0-0.049,0-0.099,0-0.148V7.308
				c0-0.074,0-0.148,0-0.223c0-0.05,0-0.112,0-0.185c0-0.075,0-0.137,0-0.187c0-0.05,0-0.112,0-0.187c0-0.074,0-0.148,0-0.222
				c0-0.049,0-0.099,0-0.149c0-0.074,0-0.148,0-0.222c0-0.05,0-0.111,0-0.187c0-0.049,0-0.099,0-0.148c0-0.075,0-0.148,0-0.223
				c0-0.075,0-0.136,0-0.187c0-0.049,0-0.111,0-0.186c0-0.073,0-0.136,0-0.186s0-0.111,0-0.186c0.149,0,0.297,0,0.446,0l0.037,0.037
				c2.207,0,4.389,0.013,6.544,0.037v0.074c0.05,0,0.113,0,0.187,0v0.037h0.075l0.037,0.037c0.025,0.025,0.062,0.037,0.112,0.037
				l0.074,0.039h0.037c0.05,0.024,0.099,0.037,0.148,0.037V5.04c0.026,0,0.05,0,0.076,0c0,0.025,0.012,0.038,0.037,0.038
				s0.037,0.011,0.037,0.037c0.024,0,0.037,0.013,0.037,0.038h0.038c0.174,0,0.347,0,0.521,0c0-0.025,0-0.051,0-0.075
				c0-0.099,0-0.175,0-0.224c0-0.074,0-0.148,0-0.223c0-0.05,0-0.124,0-0.224c0.1,0,0.187,0,0.26,0c0.025,0,0.049,0,0.075,0
				c0.793,0,1.587,0,2.379,0v0.372h-0.038c0,0.074,0,0.136,0,0.187c0,0.049,0,0.099,0,0.148c0.645,0,1.289,0,1.935,0V4.779
				c0.024,0,0.049,0,0.074,0V4.668c0.174,0,0.346,0,0.52,0V4.631c-0.024,0-0.049-0.012-0.073-0.037V4.111l0.036-0.038V4.036
				l0.037-0.037V3.85c0.1,0.025,0.199,0.037,0.299,0.037V3.85c0-0.049,0-0.086,0-0.11c0-0.025,0-0.051,0-0.075
				c0-0.025,0-0.062,0-0.111c0-0.025,0-0.051,0-0.075V3.403l0.036-0.037V3.069c0.496,0,0.992,0,1.488,0v0.187
				c0.074,0,0.137,0,0.186,0v0.52c-0.025,0-0.037,0.013-0.037,0.038v0.073c0,0.025,0,0.05,0,0.075v0.038c0.099,0,0.173,0,0.223,0
				v0.669c0.198,0,0.384,0,0.559,0v0.223h0.036v0.039h0.037v0.037l0.038,0.037V5.04l0.037,0.038v0.037c0.421,0,0.867,0,1.339,0
				c0-0.075,0-0.148,0-0.224c0-0.024,0-0.061,0-0.111h-0.038V4.445c0.77,0,1.537,0,2.306,0c0.124,0,0.247,0,0.373,0v0.223
				c0,0.049,0,0.099,0,0.148v0.074c0,0.075,0,0.137,0,0.187c0.693,0,1.388,0,2.082,0h0.037c0-0.024,0.013-0.038,0.039-0.038
				c0.024,0,0.062-0.012,0.111-0.037V4.966c0.025-0.025,0.049-0.037,0.074-0.037c0.025,0,0.038-0.014,0.038-0.039
				c0.049,0,0.086,0,0.111,0c0.025,0,0.063,0,0.112,0c0.024-0.024,0.061-0.037,0.111-0.037c0.05-0.024,0.1-0.037,0.149-0.037h0.075
				c0.024,0,0.05-0.012,0.074-0.037h0.037l0.038-0.037c0.024,0,0.048,0,0.074,0c0.026-0.025,0.05-0.037,0.075-0.037l0.037-0.037
				c0.049,0,0.112,0,0.186,0c0.025,0,0.062-0.013,0.112-0.037c0.049-0.024,0.086-0.037,0.111-0.037h0.038
				c0-0.025,0.012-0.038,0.037-0.038c0.049,0,0.111,0,0.186,0V4.52h0.038c0.024-0.024,0.049-0.037,0.074-0.037l0.037-0.037
				c0.025,0,0.062,0,0.112,0c0.049,0,0.098-0.012,0.148-0.038h0.038c0.049-0.025,0.11-0.038,0.187-0.038h0.037
				c0.024-0.024,0.062-0.037,0.111-0.037c0.025,0,0.062-0.012,0.112-0.037h0.037c0.024-0.025,0.062-0.038,0.111-0.038
				c0.075-0.024,0.125-0.037,0.149-0.037l0.037-0.038c0.05,0,0.1,0,0.149,0c0.075,0,0.136,0,0.186,0h0.037
				c0.026-0.024,0.062-0.037,0.111-0.037h0.038c0.049-0.024,0.087-0.036,0.111-0.036c0.074,0,0.149-0.013,0.224-0.038V4.036h0.037
				c0.024-0.024,0.049-0.037,0.074-0.037V3.961c0.075,0,0.161,0,0.261,0c0.074,0,0.136-0.012,0.186-0.037h0.037
				c0.048-0.024,0.111-0.038,0.186-0.038h0.037c0.024-0.024,0.074-0.037,0.149-0.037c0.049,0,0.098,0,0.148,0
				c0.075-0.024,0.148-0.036,0.223-0.036c0.074-0.025,0.136-0.038,0.185-0.038l0.037-0.036c0.025,0,0.05,0,0.075,0h0.038
				c0.049,0,0.087,0,0.111,0c0.025,0,0.037-0.013,0.037-0.039l0.037-0.037V3.589h0.037V3.553c0.124,0,0.236,0,0.334,0v0.148
				c1.884-0.024,3.781-0.037,5.689-0.037h0.037c0.049,0,0.099,0,0.148,0c0.126,0,0.249,0,0.373,0v0.222c0,0.025,0,0.063,0,0.112
				c0,0.049,0,0.099,0,0.148c0,0.05,0,0.112,0,0.186s0,0.149,0,0.223c0,0.075,0,0.149,0,0.223s0,0.136,0,0.187
				c0,0.099,0,0.186,0,0.26c0,0.049,0,0.111,0,0.187c0,0.099,0,0.173,0,0.223c0,0.074,0,0.147,0,0.223c0,0.049,0,0.123,0,0.223
				c0,0.074,0,0.148,0,0.223c0,0.049,0,0.124,0,0.222c0,0.075,0,0.137,0,0.187c0,0.074,0,0.148,0,0.223s0,0.149,0,0.223
				c0,0.075,0,0.136,0,0.186c0,0.099,0,0.187,0,0.26c0,0.074,0,0.136,0,0.185c0,0.1,0,0.186,0,0.261c0,0.051,0,0.11,0,0.186
				c0,0.074,0,0.149,0,0.223s0,0.149,0,0.223c0,0.049,0,0.123,0,0.223c-0.124,0-0.247,0-0.373,0V8.871c-1.907,0-3.816,0-5.726,0
				H54.94c-0.174,0-0.36,0-0.558,0c-0.075-0.025-0.149-0.039-0.224-0.039c-0.024,0-0.037-0.012-0.037-0.037
				c-0.049-0.024-0.111-0.037-0.185-0.037c-0.025,0-0.05,0-0.075,0c-0.073,0-0.136-0.013-0.187-0.038V8.684
				c-0.024-0.025-0.061-0.038-0.11-0.038c-0.05-0.024-0.099-0.036-0.149-0.036l-0.037-0.038c-0.075-0.025-0.148-0.037-0.223-0.037
				l-0.074-0.038c-0.026,0-0.05-0.012-0.074-0.037c-0.051-0.024-0.1-0.037-0.15-0.037c-0.049,0-0.098,0-0.149,0
				c-0.024-0.025-0.061-0.038-0.11-0.038c-0.025,0-0.062-0.013-0.112-0.038c-0.05-0.025-0.086-0.037-0.111-0.037
				c-0.049-0.025-0.1-0.037-0.149-0.037s-0.098-0.012-0.148-0.037V8.201c-0.05-0.025-0.087-0.039-0.111-0.039
				c-0.05-0.024-0.112-0.036-0.186-0.036c-0.049,0-0.099-0.013-0.148-0.037c-0.051-0.025-0.087-0.038-0.112-0.038
				c-0.074,0-0.136,0-0.185,0c-0.026,0-0.076-0.012-0.149-0.037c-0.076-0.025-0.149-0.039-0.223-0.039
				C50.937,7.952,50.898,7.94,50.85,7.94c-0.05-0.024-0.099-0.036-0.149-0.036c-0.051,0-0.086-0.014-0.112-0.039
				c-0.049-0.024-0.086-0.037-0.111-0.037H50.44c-0.049-0.025-0.098-0.038-0.148-0.038V7.755c-0.025,0-0.05,0-0.076,0V7.718
				c-0.024,0-0.049,0-0.073,0c-0.05-0.025-0.087-0.038-0.112-0.038c-0.049,0-0.085-0.012-0.111-0.037
				c-0.05-0.024-0.099-0.038-0.149-0.038c-0.05-0.025-0.099-0.037-0.148-0.037c-0.049-0.026-0.111-0.037-0.186-0.037
				c-0.918,0-1.835,0-2.752,0v0.037c-0.049,0-0.099,0-0.147,0c0,0.074,0,0.124,0,0.149c0,0.073,0,0.147,0,0.222
				c0.024,0.075,0.037,0.149,0.037,0.222c0,0.076,0,0.15,0,0.225c0,0.05,0,0.124,0,0.224c0,0.074,0,0.135,0,0.185
				c0,0.075,0,0.162,0,0.261c0,0.05,0,0.111,0,0.186c0,0.074,0,0.149,0,0.223c0,0.074,0,0.148,0,0.223
				c0,0.075-0.013,0.137-0.037,0.186c0,0.1,0,0.186,0,0.26c0,0.025,0,0.05,0,0.075c4.908,0,9.816,0,14.725,0v-0.038
				c0-0.025,0-0.05,0-0.075s0-0.049,0-0.074V9.985c0-0.025,0-0.05,0-0.074V9.874c0-0.024,0-0.049,0-0.074V9.725
				c0-0.025,0-0.049,0-0.074V9.613c0-0.024,0-0.05,0-0.075s0-0.049,0-0.074c0-0.024,0-0.049,0-0.074l-0.037-0.037V8.758
				c0.074,0,0.137,0,0.186,0V8.684c0.868,0,1.723,0,2.565,0V8.72c0.099,0,0.198,0,0.298,0c0.025,0,0.049,0.013,0.075,0.038h0.037
				v0.037l0.037,0.037c0.025,0,0.05,0.013,0.073,0.039v0.036h0.039l0.038,0.038c0.049,0,0.074,0.013,0.074,0.037v0.038h0.036
				c0,0.024,0.013,0.037,0.039,0.037c0.024,0,0.062,0.012,0.111,0.037V8.72c0.024,0,0.05,0,0.074,0V8.684c0.298,0,0.596,0,0.893,0
				h0.037l0.037,0.036v0.038c0.025,0,0.05,0,0.074,0v0.148h0.039v0.038l0.036,0.037c0.025,0,0.037,0.012,0.037,0.038v0.074h0.037
				v0.074h0.037v0.075c0.025,0,0.039,0.012,0.039,0.037v0.075h0.036v0.037c0,0.025,0.013,0.037,0.037,0.037v0.037h0.037v0.112
				c0.025,0,0.038,0.013,0.038,0.037v0.149L66.356,9.8v0.409c0.992,0,1.996,0,3.012,0c0.024-0.025,0.049-0.038,0.075-0.038
				c0.024,0,0.061,0.012,0.111,0.038h0.037c2.182,0,4.375,0,6.583,0v0.26c0.173,0.024,0.334,0.037,0.483,0.037v0.335
				c-0.124,0-0.261,0-0.41,0v0.223c0,0.025,0.013,0.037,0.038,0.037c0.074,0,0.161,0,0.26,0v0.112h0.036v0.371
				c-0.024,0-0.049,0-0.073,0c0,0.025,0,0.051,0,0.076c0,0.049,0,0.11,0,0.186c0,0.049,0,0.086,0,0.111c0,0.05,0,0.111,0,0.186
				c0,0.05,0,0.1,0,0.148c0,0.05,0,0.1,0,0.149c0,0.074,0,0.136,0,0.186c0,0.05,0,0.099,0,0.148c0,0.051,0,0.113,0,0.187
				c0,0.025,0,0.075,0,0.149c0,0.05,0,0.112,0,0.187c0,0.024,0,0.062,0,0.111c0,0.075,0,0.137,0,0.186c0,0.049,0,0.088,0,0.111
				c3.049,0,6.086,0,9.111,0c0-0.023,0-0.05,0-0.074c0-0.049,0-0.099,0-0.148c0-0.05,0-0.1,0-0.15c0.023,0,0.049,0,0.074,0
				c0.148,0,0.297,0,0.447,0v0.186c0,0.05,0,0.087,0,0.112c0.024,0,0.062,0,0.111,0h0.038c0.198,0,0.396,0,0.593,0v-0.298
				c0.075,0,0.149,0,0.224,0v0.075l0.037,0.075v0.036l0.111,0.112c0.025,0,0.038,0.012,0.038,0.037c0.024-0.025,0.049-0.025,0.074,0
				c0-0.049,0-0.086,0-0.111c0-0.049,0-0.111,0-0.186c0-0.025,0-0.049,0-0.074c0.075,0,0.137,0,0.187,0v0.036
				c0.049,0,0.098,0,0.148,0v0.075c0.024,0,0.037,0.013,0.037,0.038v0.223c1.612,0,3.212,0,4.797,0v-0.223c0.149,0,0.285,0,0.409,0
				v0.223c1.314,0,2.627,0,3.942,0v0.187c0,0.025,0,0.049,0,0.075c0,0.024,0,0.049,0,0.074v0.037c0,0.05,0,0.087,0,0.111
				C96.885,14.176,96.885,14.201,96.885,14.225z M63.306,10.209c0.496,0,1.004,0,1.525,0V9.985c-0.521,0-1.03,0-1.525,0V10.209z
				 M43.895,5.486l0.038,0.037V5.486H43.895z M39.992,7.755c-0.274,0-0.558,0-0.856,0V7.494c-0.621,0-1.253,0-1.896,0v0.038h-0.076
				v0.037c0,0.074,0,0.149,0,0.222c0,0.075,0,0.149,0,0.225c0,0.049,0,0.123,0,0.223c0,0.074,0.013,0.136,0.038,0.187
				c0,0.073,0,0.148,0,0.222c-0.024,0.074-0.038,0.149-0.038,0.224c0,0.074,0,0.148,0,0.223c0.026,0,0.051,0,0.076,0
				c2.229,0.025,4.461,0.037,6.693,0.037c0-0.024,0-0.05,0-0.074c0-0.099,0-0.186,0-0.261c0-0.05,0-0.111,0-0.185
				c0-0.1,0-0.174,0-0.224c0-0.075,0-0.149,0-0.225c0-0.073,0-0.147,0-0.222c0-0.075,0-0.149,0-0.222c0-0.05,0-0.112,0-0.186
				c-0.297-0.025-0.595-0.038-0.893-0.038h-0.111c-0.148,0-0.297,0-0.447,0v0.261c-0.322,0-0.657,0-1.004,0v0.297
				c-0.471-0.025-0.967-0.037-1.486-0.037V7.755z M33.372,19.021v0.149h-0.037v0.26c-0.025,0.025-0.05,0.038-0.075,0.038
				c0,0.023-0.012,0.035-0.037,0.035v0.039c0,0.024,0,0.062,0,0.111c0,0.024,0,0.05,0,0.074c0,0.05,0,0.088,0,0.112
				c0,0.05,0,0.099,0,0.148c0,0.024,0,0.062,0,0.111c0,0.025,0,0.062,0,0.112c0,0.025,0,0.062,0,0.111c0,0.024,0,0.049,0,0.074
				c0,0.05,0,0.099,0,0.148c0,0.025,0,0.063,0,0.113c0,0.024,0,0.049,0,0.074c0,0.049,0,0.087,0,0.112c0,0.024,0,0.049,0,0.074
				h0.037c0,0.024,0.014,0.037,0.038,0.037v0.111l0.074,0.076v0.074l0.038,0.036c0.024,0,0.037,0.012,0.037,0.038
				c0.025,0,0.037,0.012,0.037,0.036l0.036,0.038c0.025,0.025,0.051,0.037,0.075,0.037h0.038v0.037l0.037,0.038
				c0.024,0,0.049,0.013,0.073,0.036c0.026,0.026,0.05,0.038,0.076,0.038c0.024,0.025,0.049,0.037,0.074,0.037
				c0.05,0,0.099,0.013,0.148,0.038c1.017,0,2.057,0,3.124,0c0.026-0.025,0.051-0.038,0.076-0.038c0.049,0,0.098-0.012,0.148-0.037
				c0.024-0.025,0.061-0.038,0.111-0.038v-0.074c0.025-0.025,0.05-0.037,0.075-0.037h0.038V21.29h0.036v-0.038l0.075-0.073v-0.037
				c0.025-0.025,0.05-0.037,0.075-0.037v-0.039h0.036c0-0.024,0-0.049,0-0.073c0-0.025,0-0.05,0-0.075c0-0.025,0-0.062,0-0.111
				c0-0.025,0-0.05,0-0.075v-0.037c0-0.05,0-0.087,0-0.112c0-0.025,0-0.051,0-0.075c0-0.05,0-0.086,0-0.111V20.36
				c0-0.024,0-0.061,0-0.111c0-0.024,0-0.05,0-0.075c0-0.024,0-0.049,0-0.074c0-0.049,0-0.087,0-0.111v-0.038
				c0-0.025,0-0.061,0-0.111c0-0.024,0-0.049,0-0.076c0-0.025,0-0.061,0-0.11l-0.036-0.037v-0.298c-0.025,0-0.037-0.012-0.037-0.037
				c-0.025,0-0.038-0.012-0.038-0.037h-0.038l-0.037-0.038v-0.074c0-0.025-0.013-0.037-0.036-0.037v-0.075l-0.075-0.074H37.5
				c-0.024,0-0.05,0-0.074,0h-0.037c-0.497,0-1.004,0-1.525,0h-0.038v0.037c-0.024,0-0.037,0.012-0.037,0.037h-0.038l-0.036,0.038
				c-0.025,0-0.038,0.012-0.038,0.037c-0.024,0-0.037,0.012-0.037,0.037h-0.037c-0.026,0-0.05,0.013-0.075,0.038
				c-0.025,0-0.038,0.011-0.038,0.037c-0.024,0.024-0.049,0.038-0.073,0.038l-0.039,0.037c-0.024,0-0.037,0.012-0.037,0.037h-0.038
				v0.038c-0.024,0-0.037,0.012-0.037,0.037h-0.037v0.037l-0.073,0.112c-0.026,0-0.039,0.012-0.039,0.037h-0.036l-0.074,0.074
				c-0.024,0-0.049,0.011-0.075,0.036v0.038l-0.038,0.037v0.039l-0.037,0.037v0.037l-0.074,0.074v0.038l-0.037,0.038V20.1
				l-0.038,0.037v0.037l-0.036,0.039v0.111c-0.025,0.024-0.051,0.037-0.075,0.037v0.149c0.024,0,0.037,0.013,0.037,0.037
				c0.024,0,0.038,0.013,0.038,0.038v0.223l0.036,0.037v0.222h0.038v0.076c0.025,0,0.037,0.012,0.037,0.037v0.037
				c0,0.024,0.012,0.036,0.038,0.036c0.024,0,0.037,0.012,0.037,0.038v0.186c-0.049,0-0.086,0-0.111,0c-0.025,0-0.062,0-0.111,0
				c-0.025,0-0.062,0-0.111,0l-0.038-0.038v-0.037h-0.111v-0.037h-0.038l-0.074-0.074v-0.074l-0.038-0.037v-0.074H34.19v-0.039
				c-0.023,0-0.037-0.012-0.037-0.037v-0.074l-0.037-0.037V20.77h-0.038v-0.261l-0.037-0.037V20.36h-0.037v-0.037
				c0-0.024,0-0.049,0-0.075v-0.037c0-0.025,0-0.05,0-0.075v-0.223c0-0.024,0-0.049,0-0.074v-0.037c0-0.026,0-0.051,0-0.076v-0.074
				c0-0.025,0-0.05,0-0.074v-0.076c0-0.024,0-0.048,0-0.073v-0.037c0-0.025,0-0.05,0-0.075v-0.074l0.037-0.038v-0.26
				c-0.099,0-0.198,0-0.298,0v0.037c-0.073,0-0.172,0-0.296,0H33.41v0.037H33.372z M22.142,11.808c0-0.026,0.014-0.039,0.039-0.039
				v-0.036h-0.039V11.808z M3.512,17.161c0,0.052,0,0.125,0,0.224c0,0.074,0,0.136,0,0.186c0,0.075,0,0.149,0,0.223
				c0,0.074,0,0.149,0,0.224s0,0.148,0,0.223s0,0.15,0,0.223c0,0.075,0,0.138,0,0.187c0,0.098,0,0.186,0,0.26
				c0,0.05,0,0.112,0,0.187c0,0.074,0,0.148,0,0.223c0,0.075,0,0.15,0,0.224c0,0.074,0,0.147,0,0.222c0,0.076,0,0.149,0,0.224
				c0,0.024,0,0.062,0,0.111c0.697,0,1.403,0,2.119,0c0-0.025,0-0.049,0-0.074v-0.038c0-0.025,0-0.05,0-0.075v-0.037
				c0.076,0,0.149,0,0.224,0V19.84H5.818v-0.707c0-0.025,0.012-0.037,0.038-0.037c0-0.075,0-0.149,0-0.224c0-0.074,0-0.149,0-0.223
				v-0.149c0-0.024,0-0.049,0-0.075c0-0.074,0-0.136,0-0.186c0-0.074,0-0.161,0-0.261c0-0.049,0-0.111,0-0.186
				c0-0.074,0-0.148,0-0.223s0-0.149,0-0.223c0-0.074,0-0.135,0-0.187c0-0.049,0-0.098,0-0.147c-0.299,0-0.608,0-0.93,0
				c-0.049,0-0.124,0-0.223,0c-0.397,0-0.793,0-1.19,0C3.512,17.063,3.512,17.112,3.512,17.161z M14.705,19.84
				c0.024,0,0.049,0,0.074,0c0-0.024-0.012-0.037-0.038-0.037L14.705,19.84z"/>
</svg>
