<?xml version="1.0"?>
<svg xmlns="http://www.w3.org/2000/svg" viewBox="0 0 92.059 31.75">
  <path fill="currentColor" d="M5.04,14.941c-0.285,0.287-0.427,0.632-0.427,1.034
	c0,0.402,0.143,0.744,0.427,1.029c0.286,0.287,0.631,0.43,1.033,0.43s0.745-0.143,1.03-0.43c0.286-0.285,0.43-0.627,0.43-1.029
	c0-0.402-0.144-0.747-0.43-1.034c-0.285-0.284-0.628-0.426-1.03-0.426S5.326,14.657,5.04,14.941z M49.132,15.079
	c-0.239-0.239-0.526-0.358-0.861-0.358c-0.336,0-0.623,0.119-0.862,0.358c-0.236,0.238-0.357,0.525-0.357,0.861
	c0,0.336,0.121,0.623,0.357,0.861c0.239,0.238,0.526,0.357,0.862,0.357c0.335,0,0.622-0.119,0.861-0.357
	c0.238-0.238,0.356-0.525,0.356-0.861C49.489,15.604,49.37,15.317,49.132,15.079z M52.684,15.875c0-0.249-0.089-0.463-0.267-0.641
	c-0.176-0.175-0.388-0.263-0.638-0.263s-0.464,0.088-0.642,0.263c-0.176,0.178-0.263,0.393-0.263,0.641
	c0,0.25,0.087,0.463,0.263,0.637c0.178,0.179,0.392,0.27,0.642,0.27s0.462-0.091,0.638-0.27
	C52.595,16.338,52.684,16.125,52.684,15.875z M55.805,16.001c0-0.201-0.071-0.374-0.215-0.518c-0.144-0.144-0.315-0.215-0.517-0.215
	c-0.2,0-0.373,0.071-0.517,0.215c-0.144,0.144-0.215,0.316-0.215,0.518c0,0.201,0.071,0.372,0.215,0.517
	c0.144,0.143,0.316,0.215,0.517,0.215c0.201,0,0.373-0.072,0.517-0.215C55.734,16.373,55.805,16.202,55.805,16.001z M58.539,15.988
	c0-0.155-0.056-0.289-0.168-0.401c-0.108-0.109-0.241-0.164-0.396-0.164c-0.155,0-0.288,0.055-0.401,0.164
	c-0.108,0.112-0.162,0.246-0.162,0.401c0,0.155,0.054,0.287,0.162,0.397c0.113,0.11,0.246,0.166,0.401,0.166
	c0.154,0,0.287-0.056,0.396-0.166C58.484,16.275,58.539,16.143,58.539,15.988z M33.82,11.703c1.719-0.212,3.441-0.89,5.163-2.032
	c0.864-0.571,1.554-1.121,2.071-1.649c1.289,1.375,2.659,1.937,4.111,1.684c0.322,0.394,0.984,0.589,1.985,0.589
	c18.566-0.497,32.612,1.364,42.137,5.58c-9.524,4.217-23.57,6.078-42.137,5.58c-1.001,0-1.663,0.197-1.985,0.592
	c-1.452-0.254-2.823,0.309-4.111,1.682c-0.518-0.527-1.208-1.078-2.071-1.648c-1.722-1.143-3.444-1.82-5.163-2.033
	c-0.938-0.113-2.117-0.137-3.535-0.066c-1.036,0.053-2.44,0.174-4.211,0.359c-2.831,0.301-4.354,0.459-4.573,0.479
	c-1.783,0.17-3.324,0.27-4.625,0.297c-1.527,0.037-3.126-0.078-4.797-0.348c-1.633-0.268-3.145-0.648-4.534-1.146
	c-1.433-0.514-2.564-1.092-3.397-1.73c-0.814-0.627-1.272-1.268-1.369-1.916c-0.009-0.069-0.009-0.133,0-0.193
	c0.097-0.652,0.554-1.292,1.369-1.921c0.833-0.64,1.965-1.216,3.397-1.731c1.39-0.497,2.901-0.878,4.534-1.145
	c1.671-0.27,3.27-0.386,4.797-0.35c1.3,0.029,2.842,0.128,4.625,0.298c0.219,0.02,1.742,0.179,4.573,0.478
	c1.771,0.187,3.175,0.307,4.211,0.362C31.703,11.841,32.881,11.818,33.82,11.703z M40.012,11.402c-1.292,0-2.394,0.456-3.308,1.369
	c-0.912,0.914-1.37,2.016-1.37,3.307s0.458,2.395,1.37,3.307c0.914,0.912,2.016,1.371,3.308,1.371c0.341,0,0.668-0.033,0.982-0.096
	c0.287-0.059,0.564-0.143,0.831-0.254c0.545-0.23,1.043-0.57,1.495-1.021c0.912-0.912,1.369-2.016,1.369-3.307
	s-0.457-2.394-1.369-3.307C42.406,11.858,41.303,11.402,40.012,11.402z"/>
</svg>
