<svg width="119" height="122" viewBox="0 0 119 122" fill="none" xmlns="http://www.w3.org/2000/svg">
<path d="M59.5 19.5437C55.93 19.5437 53.55 17.1748 53.55 13.6214V5.92233C53.55 2.36893 55.93 0 59.5 0C63.07 0 65.45 2.36893 65.45 5.92233V13.6214C65.45 16.5825 63.07 19.5437 59.5 19.5437ZM73.78 116.078C73.78 112.524 71.4 110.155 67.83 110.155H51.17C47.6 110.155 45.22 112.524 45.22 116.078C45.22 119.631 47.6 122 51.17 122H67.83C71.4 122 73.78 119.631 73.78 116.078ZM32.725 29.0194C35.105 26.6505 35.105 23.0971 32.725 20.7282L27.37 15.3981C24.99 13.0291 21.42 13.0291 19.04 15.3981C16.66 17.767 16.66 21.3204 19.04 23.6893L24.395 29.0194C26.775 31.3883 30.345 31.3883 32.725 29.0194ZM94.605 29.0194L99.96 23.6893C102.34 21.3204 102.34 17.767 99.96 15.3981C97.58 13.0291 94.01 13.0291 91.63 15.3981L86.275 20.7282C83.895 23.0971 83.895 26.6505 86.275 29.0194C88.06 31.3883 92.225 31.3883 94.605 29.0194ZM119 55.0777C119 51.5243 116.62 49.1553 113.05 49.1553H105.315C101.745 49.1553 99.365 51.5243 99.365 55.0777C99.365 58.6311 101.745 61 105.315 61H113.05C116.62 61 119 58.6311 119 55.0777ZM19.635 55.0777C19.635 51.5243 17.255 49.1553 13.685 49.1553H5.95C2.38 49.1553 0 51.5243 0 55.0777C0 58.6311 2.38 61 5.95 61H13.685C17.255 61 19.635 58.6311 19.635 55.0777ZM79.73 34.9417C73.78 30.2039 67.235 27.8349 59.5 27.8349C57.12 27.8349 54.145 28.4272 51.765 29.0194C34.51 33.165 23.8 50.3398 28.56 68.1068C30.94 76.9903 36.295 84.0971 44.03 88.2427V96.534C44.03 100.087 46.41 102.456 49.98 102.456H69.615C73.185 102.456 75.565 100.087 75.565 96.534V88.8349C91.035 79.9515 96.985 60.4078 88.06 45.0097C85.68 40.8641 83.3 37.3107 79.73 34.9417Z" fill="url(#paint0_linear)" fill-opacity="0.85"/>
<defs>
<linearGradient id="paint0_linear" x1="59.5" y1="0" x2="59.5" y2="122" gradientUnits="userSpaceOnUse">
<stop stop-color="white"/>
<stop offset="1" stop-color="white" stop-opacity="0.58"/>
</linearGradient>
</defs>
</svg>
