<?xml version="1.0"?>
<svg xmlns="http://www.w3.org/2000/svg" viewBox="0 0 36 36" fill="none">
  <path d="M31.06 13L27.82 16.24C27.9314 16.8338 27.9916 17.436 28 18.04C28.001 19.0585 27.8424 20.0707 27.53 21.04H24L21 29.04L26 32.04C31.07 25.77 31.74 20.69 31.74 20.69C31.9114 19.8205 31.9985 18.9364 32 18.05C32.0008 16.3231 31.6821 14.611 31.06 13Z" fill="currentColor"/>
  <path d="M33.06 6.76005L30.94 4.64005L27.65 7.93005C25.6668 6.04325 23.1741 4.77921 20.48 4.2943C17.786 3.80939 15.0089 4.12489 12.4923 5.20176C9.97574 6.27863 7.83004 8.06963 6.32066 10.3532C4.81129 12.6368 4.00447 15.3127 4 18.05C4.00415 18.94 4.09458 19.8275 4.27 20.7C4.8128 23.3864 5.8541 25.9472 7.34 28.25L3.94 31.64L6.06 33.76L33.06 6.76005ZM12.69 22.89L12 21.05H8.47C8.15762 20.0807 7.99903 19.0685 8 18.05C8.00457 16.104 8.57689 14.2015 9.6468 12.5759C10.7167 10.9503 12.2377 9.67215 14.0233 8.89825C15.8089 8.12435 17.7815 7.88828 19.6993 8.21899C21.6171 8.54969 23.3967 9.4328 24.82 10.76L12.69 22.89Z" fill="currentColor"/>
</svg>
