<?xml version="1.0"?>
<svg style="" width="36" height="36" viewBox="0 0 36 36" fill="none" xmlns="http://www.w3.org/2000/svg">
  <path d="M31.3137 19.5299L10.0583 32.3788C9.77894 32.5477 9.45165 32.6083 9.13395 32.5496C8.81603 32.4909 8.52835 32.3169 8.32083 32.0582C8.11354 31.7995 8 31.4723 8 31.1346V5.4368C8 5.09914 8.11354 4.77196 8.32083 4.51325C8.52833 4.25455 8.81604 4.08049 9.13395 4.02181C9.45165 3.96313 9.77896 4.02377 10.0583 4.19261L31.3137 17.0415C31.593 17.2103 31.8068 17.4769 31.9172 17.7942C32.0276 18.1116 32.0276 18.4598 31.9172 18.7772C31.8068 19.0945 31.593 19.3611 31.3137 19.5299Z" fill="currentColor"/>
</svg>
