<?xml version="1.0"?>
<svg xmlns="http://www.w3.org/2000/svg" viewBox="0 0 36 36" fill="none">
  <path fill="currentColor" d="M13.5 9.5C13.5 8.60999 13.7639 7.73996 14.2584 6.99994C14.7529 6.25991 15.4557 5.68314 16.2779 5.34254C17.1002 5.00195 18.005 4.91283 18.8779 5.08647C19.7508 5.2601 20.5526 5.68868 21.182 6.31802C21.8113 6.94736 22.2399 7.74918 22.4135 8.6221C22.5872 9.49501 22.4981 10.3998 22.1575 11.2221C21.8169 12.0443 21.2401 12.7471 20.5001 13.2416C19.76 13.7361 18.89 14 18 14C17.4087 14.0013 16.8229 13.8858 16.2764 13.6601C15.7298 13.4345 15.2332 13.103 14.8151 12.6849C14.397 12.2668 14.0655 11.7702 13.8399 11.2236C13.6142 10.6771 13.4987 10.0913 13.5 9.5ZM25 24V30H11V24C11 22.1435 11.7375 20.363 13.0503 19.0503C14.363 17.7375 16.1435 17 18 17C19.8565 17 21.637 17.7375 22.9497 19.0503C24.2625 20.363 25 22.1435 25 24Z"/>
  <g opacity="0.5">
    <path fill="currentColor" d="M7.00001 24C6.99798 22.6709 7.23859 21.3527 7.71001 20.11C7.35115 20.0378 6.98607 20.001 6.62001 20C5.91266 19.9987 5.21199 20.1369 4.5581 20.4067C3.90422 20.6764 3.30995 21.0725 2.80931 21.5722C2.30867 22.0719 1.91149 22.6655 1.64049 23.3189C1.3695 23.9722 1.23001 24.6726 1.23001 25.38V30H7.00001V24Z"/>
    <path fill="currentColor" d="M4.55552 10.5899C5.13109 10.2053 5.80778 10 6.50001 10C7.42827 10 8.31851 10.3688 8.97488 11.0251C9.63126 11.6815 10 12.5717 10 13.5C10 14.1922 9.79474 14.8689 9.41016 15.4445C9.02557 16.0201 8.47894 16.4687 7.8394 16.7336C7.19986 16.9985 6.49613 17.0678 5.81719 16.9328C5.13826 16.7977 4.51462 16.4644 4.02514 15.9749C3.53565 15.4854 3.20231 14.8618 3.06726 14.1828C2.93221 13.5039 3.00153 12.8002 3.26643 12.1606C3.53134 11.5211 3.97994 10.9744 4.55552 10.5899Z"/>
    <path fill="currentColor" d="M35 30V25.38C35 23.9531 34.4332 22.5847 33.4242 21.5758C32.4153 20.5668 31.0469 20 29.62 20C29.1779 20.0004 28.7376 20.0576 28.31 20.17C28.77 21.3944 29.0038 22.6921 29 24V30H35Z"/>
    <path fill="currentColor" d="M27.5555 16.4101C28.1311 16.7947 28.8078 17 29.5 17C30.4283 17 31.3185 16.6313 31.9749 15.9749C32.6313 15.3185 33 14.4283 33 13.5C33 12.8078 32.7947 12.1311 32.4102 11.5555C32.0256 10.9799 31.4789 10.5313 30.8394 10.2664C30.1999 10.0015 29.4961 9.9322 28.8172 10.0673C28.1383 10.2023 27.5146 10.5356 27.0251 11.0251C26.5357 11.5146 26.2023 12.1383 26.0673 12.8172C25.9322 13.4961 26.0015 14.1999 26.2664 14.8394C26.5313 15.4789 26.9799 16.0256 27.5555 16.4101Z"/>
  </g>
</svg>
