<?xml version="1.0"?>
<svg width="36" height="36" viewBox="0 0 36 36" fill="none" xmlns="http://www.w3.org/2000/svg">
  <path d="M14.5 7L17.2 15.37C17.5375 16.5175 18.4825 17.395 19.63 17.8L28 20.5L19.63 23.2C18.4825 23.5375 17.605 24.4825 17.2 25.63L14.5 34L11.8 25.63C11.4625 24.4825 10.5175 23.605 9.37 23.2L1 20.5L9.37 17.8C10.5175 17.4625 11.395 16.5175 11.8 15.37L14.5 7Z" fill="currentColor"/>
  <path d="M24.9231 2L26.3077 6.33599C26.4923 6.94209 26.9538 7.40833 27.5538 7.59482L31.8462 8.99353L27.5538 10.3922C26.9538 10.5787 26.4923 11.045 26.3077 11.6511L24.9231 15.9871L23.5385 11.6511C23.3538 11.045 22.8923 10.5787 22.2923 10.3922L18 8.99353L22.2923 7.59482C22.8923 7.40833 23.3538 6.94209 23.5385 6.33599L24.9231 2Z" fill="currentColor"/>
  <path d="M7.46154 3L8.15385 5.1913C8.24615 5.47105 8.47692 5.70416 8.75384 5.79741L10.9231 6.49676L8.75384 7.19611C8.47692 7.28936 8.24615 7.52248 8.15385 7.80222L7.46154 9.99352L6.76923 7.80222C6.67692 7.52248 6.44615 7.28936 6.16923 7.19611L4 6.49676L6.16923 5.79741C6.44615 5.70416 6.67692 5.47105 6.76923 5.1913L7.46154 3Z" fill="currentColor"/>
  <path d="M31.4615 12L32.1538 14.1913C32.2462 14.471 32.4769 14.7042 32.7538 14.7974L34.9231 15.4968L32.7538 16.1961C32.4769 16.2894 32.2462 16.5225 32.1538 16.8022L31.4615 18.9935L30.7692 16.8022C30.6769 16.5225 30.4462 16.2894 30.1692 16.1961L28 15.4968L30.1692 14.7974C30.4462 14.7042 30.6769 14.471 30.7692 14.1913L31.4615 12Z" fill="currentColor"/>
  <path d="M26.4615 25L27.1538 27.1913C27.2462 27.471 27.4769 27.7042 27.7538 27.7974L29.9231 28.4968L27.7538 29.1961C27.4769 29.2894 27.2462 29.5225 27.1538 29.8022L26.4615 31.9935L25.7692 29.8022C25.6769 29.5225 25.4462 29.2894 25.1692 29.1961L23 28.4968L25.1692 27.7974C25.4462 27.7042 25.6769 27.471 25.7692 27.1913L26.4615 25Z" fill="currentColor"/>
</svg>
