<?xml version="1.0"?>
<svg xmlns="http://www.w3.org/2000/svg" viewBox="0 0 1024 1024" fill="none">
  <path d="M576.107 267.076C556.045 267.076 539.795 283.295 539.795 303.31C539.795 313.576 544.06 322.842 550.935 329.451C557.467 335.717 566.342 339.56 576.107 339.56C587.982 339.56 598.513 333.873 605.138 325.076C605.998 323.935 606.795 322.748 607.513 321.513C608.67 319.529 609.638 317.42 610.404 315.217C611.701 311.482 612.404 307.482 612.404 303.31C612.404 283.295 596.154 267.076 576.107 267.076Z" fill="white"/>
  <path fill-rule="evenodd" clip-rule="evenodd" d="M0.888672 0.888672H2.91992C165.951 42.6699 336.826 64.8886 512.888 64.8886C688.951 64.8886 859.826 42.6699 1022.86 0.888672H1024.89V704.888H1022.86C859.826 663.107 688.951 640.888 512.888 640.888C336.826 640.888 165.951 663.107 2.91992 704.888H0.888672V0.888672ZM512.56 160.889C411.529 160.889 328.748 238.654 320.889 337.482L423.967 380.029C426.154 378.545 428.451 377.201 430.857 376.045C432.388 375.295 433.951 374.607 435.56 374.013C436.623 373.623 437.685 373.263 438.763 372.935C443.779 371.404 449.107 370.592 454.607 370.592L457.638 370.67L503.498 304.342L503.482 303.404C503.482 278.81 515.826 257.029 534.67 243.935C546.404 235.779 560.654 230.998 576.013 230.998C616.013 230.998 648.545 263.482 648.545 303.404C648.545 343.326 616.013 375.826 576.013 375.826L574.373 375.779L508.982 422.357L509.06 424.935C509.06 454.904 484.623 479.295 454.607 479.295C428.263 479.295 406.232 460.513 401.232 435.638L327.514 405.217C350.342 485.81 424.513 544.888 512.56 544.888C618.779 544.888 704.888 458.92 704.888 352.888C704.888 246.842 618.779 160.889 512.56 160.889ZM441.42 452.217L417.795 442.467C421.982 451.185 429.217 458.467 438.842 462.467C459.623 471.107 483.592 461.263 492.263 440.498C493.248 438.123 494.013 435.685 494.529 433.217C495.076 430.654 495.373 428.076 495.42 425.482C495.513 419.998 494.482 414.513 492.326 409.295C488.17 399.217 480.342 391.357 470.263 387.17C466.185 385.482 461.998 384.498 457.826 384.17C451.748 383.701 445.717 384.607 440.138 386.701L464.56 396.795C479.888 403.17 487.138 420.748 480.748 436.045C474.373 451.357 456.748 458.592 441.42 452.217ZM576.013 255.154C602.67 255.154 624.357 276.795 624.357 303.404C624.357 329.998 602.67 351.638 576.013 351.638C549.373 351.638 527.685 329.998 527.685 303.404C527.685 276.795 549.373 255.154 576.013 255.154Z" fill="white"/>
  <path fill-rule="evenodd" clip-rule="evenodd" d="M1024.89 1024.89V801.404C861.248 759.295 689.685 736.889 512.888 736.889C336.092 736.889 164.529 759.295 0.888672 801.404V1024.89H358.217L423.967 997.748C432.701 1003.7 443.263 1007.19 454.607 1007.19C455.623 1007.19 456.638 1007.15 457.638 1007.11L469.935 1024.89H628.92C615.685 1010.78 596.857 1001.95 576.013 1001.95L574.373 1002L508.982 955.42L509.06 952.842C509.06 922.873 484.623 898.482 454.607 898.482C428.263 898.482 406.232 917.264 401.232 942.139L327.514 972.56C350.342 891.967 424.513 832.889 512.56 832.889C618.779 832.889 704.888 918.857 704.888 1024.89H1024.89ZM441.42 925.56L417.795 935.31C421.982 926.592 429.217 919.31 438.842 915.31C447.638 911.654 456.998 911.31 465.529 913.701C477.17 916.951 487.263 925.295 492.263 937.279C496.451 947.326 496.482 958.42 492.326 968.482C489.763 974.701 485.795 980.092 480.763 984.279C479.107 985.67 477.326 986.92 475.435 988.029C473.795 988.998 472.06 989.857 470.263 990.607C460.263 994.764 449.56 994.607 440.138 991.076L464.56 980.982C472.748 977.576 478.623 970.982 481.357 963.232C483.748 956.482 483.732 948.857 480.748 941.732C474.373 926.42 456.748 919.185 441.42 925.56Z" fill=""/>
  <defs>
    <linearGradient id="" x1="512.888" y1="736.889" x2="512.888" y2="1024.89" gradient-units="userSpaceOnUse">
      <stop stop-color="white" stop-opacity="0.35"/>
      <stop offset="1" stop-color="white" stop-opacity="0"/>
    </linearGradient>
  </defs>
</svg>
