<?xml version="1.0"?>
<svg version="1.1" id="Layer_1" xmlns="http://www.w3.org/2000/svg" x="0px" y="0px" width="256px" height="256px" viewBox="0 0 256 256">
  <circle opacity="0" fill="#FFFFFF" stroke-width="0" cx="166.241" cy="161.906" r="75.259"/>
  <polyline fill="none" stroke="#ffffff" stroke-width="8" stroke-linecap="round" stroke-miterlimit="10" points="92.367,155.634 51.311,183 51.311,150.296 23.834,150.296 23.834,19.473 140.5,19.473 140.5,91.5"/>
  <line fill="none" stroke="#ffffff" stroke-width="8" stroke-miterlimit="10" x1="48.529" y1="82.167" x2="113.379" y2="82.167"/>
  <line fill="none" stroke="#ffffff" stroke-width="8" stroke-miterlimit="10" x1="48.529" y1="113.167" x2="113.379" y2="113.167"/>
  <line fill="none" stroke="#ffffff" stroke-width="8" stroke-miterlimit="10" x1="48.529" y1="51.167" x2="99.138" y2="51.167"/>
  <path d="M166.241,82.167c-43.933,0-79.74,35.807-79.74,79.74c0,43.932,35.808,79.739,79.74,79.739 c43.932,0,79.739-35.808,79.739-79.739C245.98,117.975,210.173,82.167,166.241,82.167 M166.241,231.717 c-3.611,0-7.522-0.301-11.134-0.902c-3.31-3.311-6.318-8.426-9.027-14.444c-2.407-5.416-4.212-11.434-6.018-18.054  8.124-0.902,16.851-1.505,25.878-1.505c9.026,0,17.753,0.603,25.877,1.505c-1.504,6.62-3.61,12.638-6.018,18.054 c-2.708,6.019-5.718,11.134-9.027,14.444C173.764,231.416,169.852,231.717,166.241,231.717 M166.241,191.696 c-9.629,0-18.656,0.602-27.082,1.505c-1.805-9.027-2.708-18.656-3.009-28.887h59.88c0,10.23-1.203,19.859-3.009,28.887 C184.896,192.298,175.87,191.696,166.241,191.696 M166.241,92.097c3.61,0,7.522,0.301,11.133,0.903 c3.311,3.31,6.319,8.425,9.027,14.443c2.407,5.416,4.213,11.435,6.019,18.055c-8.125,0.902-16.851,1.504-25.878,1.504  s-17.753-0.602-25.878-1.504c1.505-6.62,3.611-12.639,6.019-18.055c2.708-6.018,5.717-11.133,9.026-14.443 	C158.719,92.398,162.63,92.097,166.241,92.097 M166.241,132.117c9.629,0,18.655-0.602,27.081-1.504 	c1.806,9.026,2.708,18.655,3.009,28.887h-59.88c0-10.231,1.204-19.86,3.01-28.887 	C147.585,131.516,156.612,132.117,166.241,132.117 M201.146,159.5c0-10.532-1.203-20.462-3.009-29.488 c10.23-1.505,19.258-3.311,26.479-6.019c6.921,10.531,10.833,22.567,11.134,35.507H201.146z M131.336,159.5H96.432 c0.301-12.639,4.212-24.976,11.133-35.507c7.522,2.407,16.55,4.514,26.479,6.019C132.54,139.038,131.637,148.968,131.336,159.5 M131.336,164.314c0,10.531,1.204,20.461,3.01,29.488c-10.231,1.505-19.259,3.31-26.48,6.018 c-6.921-10.531-10.832-22.567-11.133-35.506H131.336z M201.146,164.314h34.905c-0.301,12.638-4.213,24.975-11.134,35.506 c-7.522-2.406-16.55-4.513-26.479-6.018C199.942,184.775,200.845,174.846,201.146,164.314 M221.908,119.78 c-0.301,0-0.602,0.301-0.903,0.301c-6.92,2.106-15.045,3.912-23.771,5.115c-2.708-12.337-6.921-22.868-12.036-30.391 c11.434,3.31,21.966,9.328,30.691,17.753C217.695,114.966,219.802,117.072,221.908,119.78 M147.585,94.806 c-5.115,7.522-9.328,18.054-12.036,30.391c-8.727-1.203-16.851-3.009-23.771-5.115c-0.301,0-0.602-0.301-0.902-0.301 c1.805-2.407,3.911-4.814,6.318-7.222C125.619,103.833,136.15,97.814,147.585,94.806 M110.574,204.033 c0.301,0,0.602-0.301,0.902-0.301c6.921-2.106,15.045-3.912,23.771-5.115c2.708,12.337,6.921,22.869,12.036,30.392 c-11.435-3.311-21.966-9.328-30.692-17.754C114.786,208.848,112.68,206.742,110.574,204.033 M184.896,229.009 c5.116-7.522,9.329-18.055,12.036-30.392c8.727,1.203,16.852,3.009,23.771,5.115c0.301,0,0.603,0.301,0.903,0.301 c-1.806,2.407-3.912,4.814-6.319,7.222C206.863,219.981,196.331,226,184.896,229.009"/>
</svg>
