<?xml version="1.0"?>
<svg xmlns="http://www.w3.org/2000/svg" viewBox="0 0 36 36" fill="none">
  <path fill="currentColor" fill-rule="evenodd" clip-rule="evenodd" d="M21.1862 2.52116C20.1687 2.17914 19.0936 2 18 2C15.3478 2 12.8043 3.05357 10.9289 4.92893C9.05357 6.8043 8 9.34784 8 12V19L4 24V26H32V24L28 19V14.4025C23.9218 12.9611 21 9.07177 21 4.5C21 3.82354 21.064 3.16202 21.1862 2.52116ZM21.46 32.897C20.4483 33.6133 19.2396 33.9986 18 34C16.7604 33.9986 15.5517 33.6133 14.54 32.897C13.5282 32.1807 12.7632 31.1687 12.35 30H23.65C23.2368 31.1687 22.4718 32.1807 21.46 32.897Z"/>
  <path fill="#FFC82C" d="M36 4.5C36 6.98528 33.9853 9 31.5 9C29.0147 9 27 6.98528 27 4.5C27 2.01472 29.0147 0 31.5 0C33.9853 0 36 2.01472 36 4.5Z"/>
</svg>
