<?xml version="1.0"?>
<svg viewBox="0 0 36 36" fill="none" xmlns="http://www.w3.org/2000/svg">
  <path fill="currentColor" d="M3 33H10.54C10.5374 31.0011 9.74211 29.0848 8.32866 27.6713C6.91521 26.2579 4.99892 25.4626 3 25.46V33Z"/>
  <path fill="currentColor" d="M3 22.08V18.08C6.95622 18.0826 10.7496 19.6554 13.5471 22.4529C16.3446 25.2504 17.9174 29.0438 17.92 33H13.92C13.9174 30.1046 12.766 27.3286 10.7187 25.2813C8.67136 23.234 5.89535 22.0826 3 22.08Z"/>
  <path fill="currentColor" d="M3 10.54V14.54C7.89427 14.5453 12.5866 16.4919 16.0473 19.9527C19.5081 23.4134 21.4547 28.1057 21.46 33H25.46C25.4547 27.0449 23.0867 21.3352 18.8758 17.1242C14.6648 12.9133 8.95514 10.5453 3 10.54Z"/>
  <path fill="currentColor" d="M3 7V3C10.9565 3 18.5871 6.16071 24.2132 11.7868C29.8393 17.4129 33 25.0435 33 33H29C29 29.5856 28.3275 26.2047 27.0209 23.0502C25.7142 19.8958 23.7991 17.0295 21.3848 14.6152C18.9705 12.2009 16.1042 10.2858 12.9498 8.97913C9.7953 7.67251 6.41437 7 3 7Z"/>
</svg>
