<?xml version="1.0"?>
<svg viewBox="0 0 21.839 15.428">
  <path fill="" d="M21.632 7.103c-.184-.231-4.824-5.65-10.681-5.65-1.217 0-2.366.23-3.446.6l7.581 5.766c.161-.461.252-.946.252-1.453 0-.807-.229-1.545-.597-2.191 2.228 1.015 4.042 2.652 4.916 3.529a20.28 20.28 0 0 1-2.228 1.914l1.539 1.176c1.585-1.246 2.573-2.399 2.665-2.491a.974.974 0 0 0-.001-1.2zM20.392 13.745L2.59.184c-.414-.3-.987-.23-1.286.185-.299.415-.23.991.183 1.291l2.688 2.052C1.832 5.234.34 6.987.224 7.102a.913.913 0 0 0 0 1.199c.184.231 4.824 5.65 10.704 5.65 1.837 0 3.537-.53 5.03-1.245l3.308 2.537a.993.993 0 0 0 .552.185.891.891 0 0 0 .735-.369c.321-.438.229-1.015-.161-1.314zm-9.464-1.661c-3.951 0-7.419-3.067-8.729-4.382a18.178 18.178 0 0 1 3.538-2.79l.896.669a4.77 4.77 0 0 0-.069.807 4.37 4.37 0 0 0 4.364 4.382c.689 0 1.332-.161 1.906-.461l1.424 1.084a8.52 8.52 0 0 1-3.33.691z"/>
</svg>
