<?xml version="1.0"?>
<svg version="1.1" xmlns="http://www.w3.org/2000/svg" x="0px" y="0px" width="256px" height="256px" viewBox="-127.5 664.5 256 256">
  <g>
    <g>
      <g>
        <path d="M-64.7,826.3c-0.5-2.9-0.8-5.8-0.8-8.7v-38.2h11.2v36.5L-64.7,826.3z"/>
        <path d="M-54.8,779.9v35.8l-9.6,9.6c-0.4-2.6-0.6-5.1-0.6-7.6v-37.7H-54.8 M-53.8,778.9H-66v38.7c0,3.3,0.4,6.5,1,9.7l11.2-11.2 V778.9L-53.8,778.9z"/>
      </g>
      <g>
        <path d="M56.8,817.6c0,24.7-24.8,44.9-55.3,44.9c-16.6,0-31.6-6-41.7-15.5l-8.6,8.6c11.1,10.5,26.7,17.5,44.2,18.8v25.1h-35.2 c-2.1,0-3.8,2.7-3.8,6.1c0,3.4,1.7,6.1,3.8,6.1h35.5H7.3h35.5c2.1,0,3.8-2.7,3.8-6.1c0-3.4-1.7-6.1-3.8-6.1H7.6v-25.1 C42,871.8,69,847.3,69,817.6v-38.7H56.8V817.6z"/>
        <path d="M69,778.9H56.8v38.7c0,24.7-24.8,44.9-55.3,44.9c-16.6,0-31.6-6-41.7-15.5l-8.6,8.6c11.1,10.5,26.7,17.5,44.2,18.8v25.1 h-35.2c-2.1,0-3.8,2.7-3.8,6.1c0,3.4,1.7,6.1,3.8,6.1h35.5H7.3h35.5c2.1,0,3.8-2.7,3.8-6.1c0-3.4-1.7-6.1-3.8-6.1H7.6v-25.1 C42,871.8,69,847.3,69,817.6V778.9L69,778.9z"/>
      </g>
    </g>
    <g>
      <path d="M40.6,712.5c0-21.6-17.5-39.1-39.1-39.1c-21.6,0-39.1,17.5-39.1,39.1v87.4l10-10v-72.4h0v-5c0-16.1,13.1-29.1,29.1-29.1 c16.1,0,29.1,13.1,29.1,29.1v5v14.1l10-10V712.5z"/>
    </g>
    <g>
      <path d="M-4.7,835.4c-2.2-0.5-4.4-1.2-6.4-2.2C-9.1,834.2-6.9,834.9-4.7,835.4z"/>
      <path d="M-0.1,836c-0.2,0-0.4,0-0.6,0C-0.6,836-0.4,836-0.1,836z"/>
      <path d="M30.6,806.9C30.6,806.9,30.6,806.9,30.6,806.9v-16.6"/>
      <path d="M-11.9,832.8c0.2,0.1,0.5,0.2,0.7,0.3C-11.4,833-11.7,832.9-11.9,832.8L-11.9,832.8z"/>
      <path d="M-1.7,835.9c-0.3,0-0.5-0.1-0.8-0.1C-2.3,835.8-2,835.8-1.7,835.9z"/>
      <path d="M-3.3,835.7c-0.3-0.1-0.6-0.1-1-0.2C-3.9,835.6-3.6,835.6-3.3,835.7z"/>
      <path d="M30.6,776.1v14.1v16.6c0,0,0,0,0,0s0,0,0,0c0,16.1-13,29.1-29.1,29.1c-0.5,0-1.1,0-1.6,0c-0.2,0-0.4,0-0.6,0 c-0.3,0-0.6,0-1-0.1c-0.3,0-0.5-0.1-0.8-0.1c-0.2,0-0.5-0.1-0.7-0.1c-0.3-0.1-0.6-0.1-1-0.2c-0.2,0-0.3-0.1-0.5-0.1 c-2.2-0.5-4.4-1.2-6.4-2.2c0,0-0.1,0-0.1,0c-0.2-0.1-0.5-0.2-0.7-0.3l0,0c-3-1.6-5.7-3.6-8-6.1l-7.1,7.1 c7.1,7.6,17.3,12.3,28.5,12.3c21.6,0,39.1-17.5,39.1-39.1v-40.8L30.6,776.1z"/>
      <path d="M-0.8,836c-0.3,0-0.6-0.1-1-0.1C-1.4,835.9-1.1,835.9-0.8,836z"/>
      <path d="M1.5,836.1c-0.5,0-1.1,0-1.6,0C0.4,836,0.9,836.1,1.5,836.1z"/>
      <path d="M-2.6,835.8c-0.2,0-0.5-0.1-0.7-0.1C-3,835.7-2.8,835.7-2.6,835.8z"/>
      <path d="M1.5,836.1c16.1,0,29.1-13,29.1-29.1c0,0,0,0,0,0C30.6,823,17.6,836.1,1.5,836.1z"/>
      <path d="M-4.2,835.5c-0.2,0-0.3-0.1-0.5-0.1C-4.5,835.4-4.4,835.5-4.2,835.5z"/>
      <path d="M-11.1,833.2C-11.1,833.2-11.2,833.2-11.1,833.2C-11.2,833.2-11.1,833.2-11.1,833.2z"/>
    </g>
  </g>
  <g>
    <g>
      <path d="M-53.8,816.1L-65,827.3c2.2,10.8,7.9,20.5,16.2,28.3l8.6-8.6c-8.5-7.9-13.6-18.2-13.6-29.4V816.1L-53.8,816.1z"/>
    </g>
    <g>
      <path d="M1.5,834.6c-15.2,0-27.6-12.4-27.6-27.6v-94.5c0-15.2,12.4-27.6,27.6-27.6c15.2,0,27.6,12.4,27.6,27.6v94.5 C29.1,822.2,16.7,834.6,1.5,834.6z"/>
      <path d="M1.5,696.3c8.9,0,16.1,7.2,16.1,16.1v94.5c0,8.9-7.2,16.1-16.1,16.1c-8.9,0-16.1-7.2-16.1-16.1v-94.5 C-14.6,703.6-7.4,696.3,1.5,696.3 M1.5,673.3c-21.6,0-39.1,17.5-39.1,39.1v94.5c0,21.6,17.5,39.1,39.1,39.1s39.1-17.5,39.1-39.1 v-94.5C40.6,690.8,23.1,673.3,1.5,673.3L1.5,673.3z"/>
    </g>
  </g>
  <g fill="none" stroke-width="1">
    <line x1="-82.5" y1="866.5" x2="83.5" y2="700.4"/>
  </g>
</svg>
