<?xml version="1.0"?>
<svg xmlns="http://www.w3.org/2000/svg" viewBox="0 0 36 36" fill="none">
  <path d="M30 32H6V31C6 27.8174 7.26428 24.7652 9.51472 22.5147C11.7652 20.2643 14.8174 19 18 19C21.1826 19 24.2348 20.2643 26.4853 22.5147C28.7357 24.7652 30 27.8174 30 31V32ZM18 3C16.8133 3 15.6533 3.35189 14.6666 4.01118C13.6799 4.67047 12.9108 5.60754 12.4567 6.7039C12.0026 7.80026 11.8838 9.00666 12.1153 10.1705C12.3468 11.3344 12.9182 12.4035 13.7574 13.2426C14.5965 14.0818 15.6656 14.6532 16.8295 14.8847C17.9933 15.1162 19.1997 14.9974 20.2961 14.5433C21.3925 14.0892 22.3295 13.3201 22.9888 12.3334C23.6481 11.3467 24 10.1867 24 9C24 7.4087 23.3679 5.88258 22.2426 4.75736C21.1174 3.63214 19.5913 3 18 3Z" fill="currentColor"/>
</svg>
