<?xml version="1.0"?>
<svg width="36" height="36" viewBox="0 0 36 36" fill="none" xmlns="http://www.w3.org/2000/svg">
  <path d="M7.48 21.11C7.00858 22.3527 6.76797 23.6709 6.77 25V30H1V26.38C0.999999 25.6726 1.13949 24.9722 1.41048 24.3189C1.68148 23.6655 2.07866 23.0719 2.5793 22.5722C3.07994 22.0725 3.67421 21.6764 4.32809 21.4067C4.98198 21.1369 5.68265 20.9987 6.39 21C6.75605 21.001 7.12114 21.0378 7.48 21.11ZM6.27 11C5.57777 11 4.90108 11.2053 4.3255 11.5899C3.74993 11.9744 3.30133 12.5211 3.03642 13.1606C2.77151 13.8002 2.7022 14.5039 2.83725 15.1828C2.9723 15.8618 3.30564 16.4854 3.79513 16.9749C4.28461 17.4644 4.90825 17.7977 5.58718 17.9328C6.26612 18.0678 6.96985 17.9985 7.60939 17.7336C8.24893 17.4687 8.79556 17.0201 9.18014 16.4445C9.56473 15.8689 9.77 15.1922 9.77 14.5C9.77 13.5717 9.40125 12.6815 8.74487 12.0251C8.0885 11.3688 7.19826 11 6.27 11ZM13.27 10.5C13.27 9.60999 13.5339 8.73996 14.0284 7.99994C14.5229 7.25991 15.2257 6.68314 16.0479 6.34254C16.8702 6.00195 17.775 5.91283 18.6479 6.08647C19.5208 6.2601 20.3226 6.68868 20.952 7.31802C21.5813 7.94736 22.0099 8.74918 22.1835 9.6221C22.3572 10.495 22.2681 11.3998 21.9275 12.2221C21.5869 13.0443 21.0101 13.7471 20.2701 14.2416C19.53 14.7361 18.66 15 17.77 15C17.1787 15.0013 16.5929 14.8858 16.0464 14.6601C15.4998 14.4345 15.0032 14.103 14.5851 13.6849C14.167 13.2668 13.8355 12.7702 13.6099 12.2236C13.3842 11.6771 13.2687 11.0913 13.27 10.5ZM24.77 25V30H10.77V25C10.77 23.1435 11.5075 21.363 12.8203 20.0503C14.133 18.7375 15.9135 18 17.77 18C19.6265 18 21.407 18.7375 22.7197 20.0503C24.0325 21.363 24.77 23.1435 24.77 25ZM34.77 26.38V30H28.77V25C28.7738 23.6921 28.54 22.3944 28.08 21.17C28.5076 21.0576 28.9479 21.0004 29.39 21C30.8169 21 32.1853 21.5668 33.1942 22.5758C34.2032 23.5847 34.77 24.9531 34.77 26.38ZM29.27 18C28.5778 18 27.9011 17.7947 27.3255 17.4101C26.7499 17.0256 26.3013 16.4789 26.0364 15.8394C25.7715 15.1999 25.7022 14.4961 25.8373 13.8172C25.9723 13.1383 26.3056 12.5146 26.7951 12.0251C27.2846 11.5356 27.9083 11.2023 28.5872 11.0673C29.2661 10.9322 29.9699 11.0015 30.6094 11.2664C31.2489 11.5313 31.7956 11.9799 32.1801 12.5555C32.5647 13.1311 32.77 13.8078 32.77 14.5C32.77 15.4283 32.4013 16.3185 31.7449 16.9749C31.0885 17.6313 30.1983 18 29.27 18Z" fill="currentColor"/>
</svg>
