<?xml version="1.0"?>
<svg width="24" height="24" viewBox="0 0 24 24" fill="none" xmlns="http://www.w3.org/2000/svg">
  <path fill-rule="evenodd" clip-rule="evenodd" d="M21.1334 10.5001C21.1353 8.73644 20.6267 7.00996 19.6688 5.52915C19.5205 5.29997 19.3625 5.0782 19.1953 4.86435L17.452 6.60766L16.0589 5.21472L17.8215 3.45216C17.1909 2.93055 16.4899 2.49338 15.7354 2.15523C14.126 1.43394 12.3422 1.19403 10.5995 1.46448C8.8567 1.73492 7.22951 2.50415 5.91442 3.67927C4.59933 4.85438 3.65259 6.38512 3.18854 8.08659C2.72449 9.78807 2.76298 11.5875 3.29937 13.2676C3.83575 14.9477 4.84709 16.4365 6.21123 17.5543C7.57537 18.6721 9.23396 19.3711 10.9867 19.5667V23.3667L18.2067 17.1934C19.1298 16.3399 19.8664 15.3047 20.37 14.1528C20.8737 13.0009 21.1336 11.7573 21.1334 10.5001ZM14.4972 9.56583L16.3388 7.72437L14.9458 6.33143L13.1041 8.17289L14.4972 9.56583ZM7.33337 15.3334L7.33337 9.42369H9.30347L9.30347 11.9688L11.9907 9.2858L13.3816 10.6766L10.6983 13.3635H13.2437V15.3334H7.33337Z" fill="currentColor"/>
</svg>
