<?xml version="1.0"?>
<svg xmlns="http://www.w3.org/2000/svg" viewBox="0 0 92 32">
  <path fill="currentColor" d="M78.551,15.482l-0.1-0.065l-1.901,0.032
				c-0.089,0.068-0.178,0.169-0.267,0.3c-0.177,0.202-0.256,0.412-0.234,0.634c0,0.222,0.102,0.446,0.302,0.668
				c0.089,0.088,0.178,0.168,0.265,0.233h2.102c0.067-0.065,0.134-0.146,0.2-0.233c0.113-0.244,0.169-0.502,0.169-0.767
				c0-0.267-0.112-0.489-0.336-0.666C78.685,15.572,78.617,15.526,78.551,15.482z M90.458,17.284
				c-1.49,1.135-3.202,2.046-5.138,2.734c-1.89,0.689-4.447,1.167-7.671,1.435c-1,0.089-2.001,0.156-3,0.2L36.062,21.72
				l-0.035,4.103h-1.333v-4.97h-4.305c-0.043-0.045-0.109-0.1-0.198-0.168c-0.156-0.109-0.334-0.166-0.533-0.166
				c-0.201,0.021-0.379,0.09-0.535,0.201c-0.065,0.045-0.112,0.099-0.134,0.166h-3.101c-0.045-0.067-0.101-0.121-0.166-0.166
				c-0.158-0.135-0.347-0.201-0.568-0.201c-0.2,0-0.366,0.066-0.502,0.201c-0.065,0.045-0.108,0.099-0.131,0.166h-3.07
				c-0.021-0.067-0.064-0.121-0.132-0.166c-0.112-0.135-0.256-0.201-0.432-0.201c-0.201,0-0.369,0.066-0.502,0.201
				c-0.067,0.045-0.112,0.099-0.134,0.166h-3.068c-0.045-0.067-0.101-0.133-0.166-0.201c-0.112-0.131-0.258-0.198-0.435-0.198
				s-0.322,0.067-0.435,0.198c-0.065,0.068-0.121,0.134-0.166,0.201h-3.234c-0.021-0.067-0.065-0.121-0.134-0.166
				c-0.111-0.135-0.256-0.201-0.432-0.201c-0.158,0-0.302,0.044-0.435,0.134c-0.046,0.046-0.079,0.077-0.101,0.101H9.945
				l-1.302,0.532H1.107c-0.135-0.177-0.258-0.389-0.367-0.633c-0.268-0.488-0.422-0.822-0.469-1.001
				c-0.044-0.198-0.044-1.123,0-2.767l0.068-2.401c0-0.066,0.011-0.158,0.033-0.268c0.021-0.224,0.088-0.399,0.201-0.534
				c0.132-0.11,0.311-0.233,0.533-0.364l0.3-0.137l6.97,0.035l1.469,0.533l1.635-0.034l0.198,0.2
				c0.112,0.112,0.244,0.167,0.401,0.167c0.132,0,0.301-0.077,0.5-0.234l0.267-0.198h3.004l0.197,0.198
				c0.156,0.136,0.347,0.201,0.566,0.201c0.201,0.022,0.369-0.035,0.502-0.167c0.045-0.044,0.077-0.101,0.099-0.167l0.068-0.065
				l2.867,0.032l0.167,0.2c0.156,0.153,0.333,0.225,0.533,0.2c0.156,0,0.322-0.068,0.501-0.2l0.167-0.2h3.067l0.167,0.2
				c0.113,0.132,0.256,0.2,0.434,0.2c0.18,0.024,0.355-0.047,0.535-0.2l0.199-0.2h3.067l0.169,0.233
				c0.177,0.156,0.343,0.234,0.5,0.234c0.243,0,0.434-0.078,0.566-0.234c0.043-0.046,0.077-0.099,0.101-0.166l0.032-0.067h4.303
				V6.177h1.402v7.07h3.567c0.153-0.021,0.289-0.053,0.4-0.099c0.156-0.112,0.332-0.223,0.534-0.333l32.918,0.133l18.577,2.868
				C91.725,16.241,91.192,16.728,90.458,17.284z"/>
</svg>
