<?xml version="1.0"?>
<svg xmlns="http://www.w3.org/2000/svg" viewBox="0 0 68.375 32">
  <path fill="currentColor" d="M46.44,18.814c-0.434,0.165-0.746,0.353-0.937,0.571
				c-0.163,0.243-0.242,0.596-0.242,1.058c0,0.653,0.012,1.221,0.04,1.709h1.628v0.814l0.285,0.082
				c0.216,0.083,0.34,0.148,0.367,0.204c0.162,0.216,0.407,0.366,0.732,0.446c0.543,0.163,1.126,0.015,1.75-0.446
				c0.677-0.488,0.881-1.139,0.61-1.954c-0.245-0.707-0.693-1.208-1.343-1.507c-0.163-0.082-0.354-0.299-0.569-0.652l-0.286-0.486
				c-0.189-0.028-0.408-0.042-0.649-0.042C47.282,18.583,46.82,18.653,46.44,18.814z M35.369,21.989
				c0.434-0.407,0.652-0.855,0.652-1.343c0-0.462-0.122-0.936-0.367-1.424l-0.327-0.568h-5.574c-0.706,0.678-1.248,1.193-1.63,1.545
				c-0.188,0.163-0.27,0.393-0.242,0.692c0,0.162,0.026,0.446,0.081,0.854c0,0.924,0.258,1.588,0.773,1.995
				c0.624,0.515,1.206,0.747,1.75,0.694c0.244-0.059,0.828-0.274,1.75-0.652c0.813-0.38,1.451-0.694,1.913-0.936
				C34.719,22.519,35.125,22.234,35.369,21.989z M55.476,10.511c0.055-0.081-0.054-0.244-0.325-0.489c-3.122,0-5.156,0-6.106,0
				C48.42,9.996,47.35,9.941,45.83,9.86l-2.159-0.123v1.224h11.642c0.027-0.055,0.041-0.11,0.041-0.164
				C55.41,10.661,55.448,10.565,55.476,10.511z M56.9,9.86c-0.082-0.027-0.216-0.027-0.408,0H56.25v0.772l0.326,0.044
				c0.216,0.082,0.325,0.23,0.325,0.446c0,0.19-0.067,0.368-0.204,0.529l-0.204,0.204l0.165,1.994h0.488V10.39
				c0-0.163-0.012-0.272-0.04-0.326C57.077,9.956,57.008,9.885,56.9,9.86z M67.767,16.901c-0.107,0.219-0.298,0.325-0.569,0.325
				h-5.617l-0.203-0.243c-0.055,0.026-0.121,0.067-0.204,0.122c-0.135,0.081-0.204,0.136-0.204,0.163s0.177,0.231,0.529,0.611
				c0.327,0.432,0.477,0.774,0.449,1.017c-0.054,0.326-0.162,1.194-0.326,2.605c-0.134,1.409-0.202,2.225-0.202,2.441
				c0,0.164-0.056,0.272-0.162,0.326c-0.056,0.053-0.192,0.081-0.408,0.081h-2.36c-0.108,0-0.204-0.096-0.287-0.285
				c-0.107-0.218-0.162-0.501-0.162-0.854c0-0.461-0.014-0.91-0.041-1.344c-0.056-0.487-0.122-0.77-0.204-0.854
				c-0.055-0.082-0.462-0.162-1.22-0.245c-0.734-0.054-1.154-0.026-1.263,0.083c-0.162,0.162-0.298,0.298-0.406,0.407
				c-0.191,0.189-0.285,0.366-0.285,0.528c-0.028,0.108-0.095,0.842-0.204,2.198c-0.299,1.467-0.869,2.618-1.709,3.46
				c-0.868,0.895-2.227,1.521-4.069,1.873c-1.414,0.27-2.566,0.338-3.461,0.203c-0.543-0.082-0.869-0.176-0.977-0.286
				c-0.055-0.028-0.055-0.148,0-0.366c0.651-2.251,0.95-3.487,0.896-3.703c-0.055-0.19-0.108-0.329-0.164-0.407
				c-0.107-0.137-0.256-0.204-0.446-0.204c-0.163-0.028-0.612-0.041-1.344-0.041c-0.378-0.027-0.774-0.04-1.18-0.04
				c-0.081,0-0.163,0.066-0.244,0.203c-0.083,0.161-0.165,0.285-0.245,0.365c-0.082,0.109-0.407,0.382-0.976,0.815
				c-0.706,0.569-1.44,1.086-2.197,1.547c-2.308,1.438-4.262,2.156-5.863,2.156c-1.544,0-3.201-0.054-4.965-0.164l-2.158-0.203
				l-0.039-1.343c-3.31-1.355-5.197-2.061-5.656-2.115c-0.275-0.028-0.573-0.042-0.896-0.042l-0.408-0.042l-0.325,0.571
				c-0.244,0.354-0.476,0.529-0.694,0.529H1.465c-0.244,0-0.46-0.175-0.65-0.529c-0.136-0.298-0.204-0.623-0.204-0.976V18.45
				c0-1.411-0.026-2.974-0.082-4.683c-0.054-1.358-0.082-2.062-0.082-2.117c0.082-0.515,0.204-0.772,0.368-0.772h20.552
				c0.138,0,0.517-0.068,1.141-0.202c0.597-0.111,1.02-0.165,1.262-0.165h14.653l0.042-1.749c0-0.109,0.216-0.626,0.648-1.547
				c0.436-0.952,0.653-1.52,0.653-1.71c0.027-0.164,0.203-0.34,0.529-0.53c0.163-0.081,0.325-0.149,0.49-0.204
				c0-0.243,0.026-0.487,0.081-0.732c0.08-0.488,0.148-0.774,0.202-0.854c0.354-0.517,0.652-0.775,0.896-0.775
				c0.271,0,0.474,0.148,0.611,0.446c0.055,0.165,0.108,0.395,0.163,0.694c0.054,0.19,0.054,0.597,0,1.22
				c-0.027,0-0.069,0.015-0.122,0.042c-0.055,0.054-0.083,0.149-0.083,0.285v0.893h11.559l1.465-0.854
				c0.272,0,0.408-0.093,0.408-0.284v-0.65H55.72V3.186l0.204-0.205l0.448-0.284l0.937-0.082c0.053,0,0.108,0.068,0.162,0.204
				c0.028,0.107,0.042,0.23,0.042,0.367v1.79l0.163,0.608c0.134,0.383,0.232,0.586,0.284,0.612c0.11,0.027,0.476,0.027,1.101,0
				c1.627,1.764,2.482,2.687,2.563,2.769c0.191,0.244,0.286,0.501,0.286,0.772v4.397h5.576l0.244,0.244
				c0.189,0.245,0.286,0.625,0.286,1.139C68.013,16.196,67.93,16.658,67.767,16.901z"/>
</svg>
