<?xml version="1.0"?>
<svg xmlns="http://www.w3.org/2000/svg" viewBox="0 0 18 18" fill="none">
  <path stroke="#67707B" d="M9 0L9 18" stroke-width="0.5" stroke-dasharray="1 1"/>
  <path stroke="#8B929A" d="M17.5 10.5751C17.5 10.8904 17.3423 11.2413 16.9492 11.6131C16.555 11.9859 15.9577 12.3447 15.1783 12.6564C13.6221 13.2789 11.438 13.6751 9 13.6751C6.56204 13.6751 4.37791 13.2789 2.82173 12.6564C2.04226 12.3447 1.44501 11.9859 1.05082 11.6131C0.657679 11.2413 0.5 10.8904 0.5 10.5751C0.5 10.2598 0.657679 9.90889 1.05082 9.53709C1.44501 9.1643 2.04226 8.80554 2.82173 8.49375C4.37791 7.87128 6.56204 7.4751 9 7.4751C11.438 7.4751 13.6221 7.87128 15.1783 8.49375C15.9577 8.80554 16.555 9.1643 16.9492 9.53709C17.3423 9.90889 17.5 10.2598 17.5 10.5751Z"/>
  <ellipse fill="#D9D9D9" cx="4.76522" cy="6.30029" rx="2.64706" ry="3"/>
  <rect fill="#D9D9D9" x="13.7656" y="6.90039" width="1.05882" height="3.6" rx="0.5"/>
  <ellipse fill="#D9D9D9" cx="9.00057" cy="4.80029" rx="2.64706" ry="3"/>
  <rect fill="#D9D9D9" x="4.23535" y="5.7002" width="9.52941" height="6" rx="1"/>
</svg>
