<?xml version="1.0"?>
<svg xmlns="http://www.w3.org/2000/svg" viewBox="0 0 90.25 32">
  <path fill="currentColor" d="M88.842,8.021c0.247,0,0.37,0.11,0.37,0.334v2.447h-3.931
				c-0.123,0-0.766,0-1.927,0c-1.139,0.023-2.411,0.062-3.82,0.111c-1.384,0-2.769,0.013-4.153,0.038
				c-1.286,0.025-2.151,0.037-2.595,0.037c0,0.321-0.1,0.581-0.298,0.778c-0.519,0.521-1.001,0.778-1.446,0.778
				c-0.198,0-0.457-0.135-0.778-0.408c-0.322-0.32-0.569-0.543-0.743-0.667c-0.098,0-0.234-0.025-0.406-0.075
				c-0.124-0.024-0.284-0.087-0.482-0.185l-0.705-0.223c-0.099-0.049-0.322-0.074-0.668-0.074c-0.372-0.049-0.829-0.074-1.372-0.074
				c-0.52,0-1.138,0.025-1.854,0.074c-0.643,0-1.297,0.025-1.966,0.074c0,0.1-0.024,0.223-0.073,0.371
				c-0.075,0.173-0.111,0.31-0.111,0.407l-0.26,0.112c-0.099,0.025-0.223,0.038-0.37,0.038c0,0.073-0.014,0.197-0.038,0.371
				c-0.024,0.098-0.037,0.247-0.037,0.445c-0.05,0.196-0.073,0.443-0.073,0.741h-0.298c-1.014,0-2.126,0.012-3.336,0.037
				c-1.187,0-2.325,0.012-3.411,0.037c-1.063,0.05-1.966,0.074-2.708,0.074c-0.741,0.025-1.187,0.037-1.335,0.037
				c-0.098,0.025-0.271,0.049-0.519,0.074c-0.223,0.025-0.482,0.049-0.779,0.074c-0.321,0.073-0.643,0.124-0.964,0.149
				c-0.296,0.074-0.531,0.124-0.705,0.148h-0.111l-0.186-0.446c-0.049-0.272-0.074-0.556-0.074-0.853
				c-0.048-0.247-0.074-0.469-0.074-0.668c0-0.221,0-0.396,0-0.518c-0.148,0.075-0.421,0.136-0.815,0.185
				c-0.421,0.049-0.866,0.124-1.335,0.222c-0.445,0.076-0.877,0.161-1.298,0.262c-0.42,0.048-0.68,0.073-0.778,0.073
				c0,0.148-0.013,0.296-0.038,0.444c-0.075,0.149-0.111,0.26-0.111,0.334c0,1.26,0.197,2.682,0.594,4.265
				c0.396,1.507,0.829,2.942,1.297,4.302c0.495,1.309,0.927,2.409,1.3,3.299c0.395,0.866,0.592,1.31,0.592,1.335l0.148,0.26
				l-0.296,0.111c-0.124,0.074-0.396,0.198-0.816,0.372c-0.371,0.198-0.877,0.444-1.52,0.742c-0.668,0.272-1.57,0.715-2.707,1.334
				h-0.26c-0.419-0.545-0.865-1.483-1.335-2.819c-0.47-1.335-0.914-2.731-1.333-4.19c-0.421-1.434-0.768-2.794-1.04-4.079
				c-0.296-1.311-0.519-2.165-0.667-2.559c-0.222,0.123-0.544,0.271-0.964,0.443c-0.099,0-0.16,0.038-0.185,0.111
				c0,0.026-0.038,0.038-0.111,0.038c-0.125,0.223-0.334,0.334-0.63,0.334c-1.21,0.297-2.176,0.309-2.894,0.038
				c-0.691-0.271-1.149-0.495-1.371-0.668c-0.05,0.075-0.111,0.124-0.186,0.147l-0.668,0.335c-0.766,1.73-1.223,3.151-1.371,4.265
				c-0.124,1.112-0.186,1.928-0.186,2.447v0.593c0,0.1-0.024,0.162-0.074,0.186c-0.05,0-0.075,0.037-0.075,0.112
				c-0.419,0-1.816-0.631-4.19-1.892l-0.222-0.111v-0.112c0.296-0.668,0.605-1.372,0.927-2.113c0.273-0.767,0.544-1.471,0.816-2.115
				c0.247-0.642,0.445-1.223,0.593-1.742c0.148-0.444,0.234-0.717,0.26-0.815c0-0.098-0.038-0.197-0.111-0.297
				c-0.049-0.098-0.074-0.197-0.074-0.296c-0.075-0.049-0.161-0.148-0.259-0.296c-0.1-0.099-0.199-0.2-0.298-0.297
				c-0.123-0.1-0.211-0.209-0.26-0.333c-0.148-0.073-0.494-0.112-1.038-0.112c-0.618,0-1.311,0.013-2.077,0.039
				c-0.791,0.049-1.669,0.085-2.633,0.11c-0.913,0.075-1.767,0.125-2.558,0.148l-3.115,0.111c-1.953,0-4.918,1.768-8.899,5.303
				l-0.297,0.296c-0.173,0.248-0.419,0.458-0.741,0.63c-0.346,0.42-0.569,0.679-0.667,0.779c-0.125,0.099-0.223,0.15-0.298,0.15
				c-0.196,0-0.383-0.15-0.555-0.448c-0.149-0.395-0.224-0.702-0.224-0.927c0-0.123-0.012-0.505-0.037-1.149
				c-0.023-0.619-0.086-1.348-0.185-2.188c-0.073-0.816-0.148-1.657-0.223-2.521c-0.098-0.841-0.198-1.535-0.295-2.077
				c-0.272-0.544-0.224-1.087,0.147-1.632c0.247-0.273,0.569-0.409,0.964-0.409c0.42,0,0.68,0,0.779,0h17.243
				c0.125,0,0.273,0,0.445,0c0.149,0,0.26-0.049,0.334-0.148V9.281c0.099-0.074,0.162-0.147,0.187-0.223
				c0.024-0.074,0.073-0.173,0.147-0.297c0.173-0.123,0.433-0.185,0.778-0.185c0.372,0,0.631-0.05,0.779-0.147
				c0.149-0.051,0.297-0.074,0.446-0.074c0.172,0,0.321-0.05,0.445-0.149c0.37-0.098,0.678-0.209,0.926-0.333
				c0.296-0.124,0.506-0.297,0.63-0.519c0.197-0.124,0.309-0.321,0.333-0.593c0.049-0.249,0.1-0.618,0.148-1.114V5.314
				c0-0.445,0.111-0.755,0.334-0.929c0.198-0.099,0.469-0.148,0.815-0.148h0.296l0.111,0.148l0.817,0.78
				c0,0.173,0.309,0.135,0.926-0.111h0.482c0.148,0.073,0.271,0.272,0.37,0.592c0.075,0.322,0.149,0.656,0.224,1.001
				C30.659,6.55,31.462,6.5,32.328,6.5c0.841,0,1.335,0.05,1.483,0.148c0.099,0.025,0.186,0.038,0.26,0.038
				c0.098,0.05,0.235,0.075,0.408,0.075h9.457c0-0.249-0.038-0.458-0.111-0.631l-0.112-0.295h1.669v0.295
				c0,0.125,0.025,0.198,0.074,0.223c0,0.023,0.025,0.037,0.073,0.037H68.41c0-0.048-0.012-0.135-0.037-0.26
				c0-0.098,0-0.259,0-0.482c-0.075-0.148-0.111-0.346-0.111-0.592L68.78,4.09l1.558-0.148h0.148v2.707l-0.112,0.038
				c-0.024,0.05-0.06,0.075-0.11,0.075c-0.025,0.023-0.05,0.061-0.075,0.111c0.198,0.223,0.581,0.507,1.15,0.852
				c0.593,0.322,1.249,0.482,1.966,0.482c0.271,0.026,0.765,0.05,1.482,0.075c0.717,0.05,1.508,0.075,2.374,0.075
				s1.743-0.025,2.633-0.075c0.964-0.024,1.817-0.038,2.559-0.038c0.792,0,1.458-0.011,2.002-0.037c0.494,0,0.803,0,0.926,0
				c0.099,0,0.334-0.036,0.706-0.111c0.272-0.048,0.593-0.111,0.965-0.184c0.418-0.025,0.802-0.051,1.149-0.076
				C88.472,7.785,88.72,7.847,88.842,8.021z M31.438,13.027c-0.199,0-0.396,0.086-0.594,0.26c-0.173,0.222-0.259,0.494-0.259,0.816
				c0,0.321,0.086,0.592,0.259,0.815c0.198,0.198,0.395,0.297,0.594,0.297h2.706c0.223,0,0.445-0.099,0.668-0.297
				c0.173-0.223,0.259-0.494,0.259-0.815c0-0.322-0.086-0.594-0.259-0.816c-0.224-0.173-0.445-0.26-0.668-0.26H31.438z
				 M2.735,12.953c0.075,0.495,0.148,1.001,0.222,1.521c0.076,0.593,0.125,1.162,0.149,1.706c0.075,0.47,0.136,0.89,0.186,1.26
				c0.223-0.222,0.532-0.494,0.927-0.816c0.445-0.346,0.889-0.717,1.334-1.111c0.99-0.717,1.941-1.434,2.856-2.152
				c0.939-0.668,1.78-1.273,2.521-1.816H2.55C2.574,11.938,2.636,12.408,2.735,12.953z"/>
</svg>
