<?xml version="1.0"?>
<svg xmlns="http://www.w3.org/2000/svg" viewBox="0 0 36 36" fill="none">
  <path d="M32 24H28V8H12V4H32V24ZM24 12V32H4V12H24ZM21 22C21 20.1435 20.2625 18.363 18.9497 17.0503C17.637 15.7375 15.8565 15 14 15V13L9 17L14 21V19C14.5933 19 15.1734 19.1759 15.6667 19.5056C16.1601 19.8352 16.5446 20.3038 16.7716 20.8519C16.9987 21.4001 17.0581 22.0033 16.9424 22.5853C16.8266 23.1672 16.5409 23.7018 16.1213 24.1213C15.7018 24.5409 15.1672 24.8266 14.5853 24.9424C14.0033 25.0581 13.4001 24.9987 12.8519 24.7716C12.3038 24.5446 11.8352 24.1601 11.5056 23.6667C11.1759 23.1734 11 22.5933 11 22H7C7 23.8565 7.7375 25.637 9.05025 26.9497C10.363 28.2625 12.1435 29 14 29C15.8565 29 17.637 28.2625 18.9497 26.9497C20.2625 25.637 21 23.8565 21 22Z" fill="currentColor"/>
</svg>
