<?xml version="1.0"?>
<svg width="188" height="252" viewBox="0 0 188 252" fill="none" xmlns="http://www.w3.org/2000/svg">
  <path d="M151.47 228.69H35.66C29.22 228.69 23.99 223.45 23.99 217.01V101.2C23.99 94.76 29.23 89.53 35.66 89.53H151.47C157.91 89.53 163.14 94.77 163.14 101.2V217.01C163.14 223.45 157.9 228.69 151.47 228.69ZM35.66 96.53C33.08 96.53 30.98 98.63 30.98 101.21V217.02C30.98 219.6 33.08 221.7 35.66 221.7H151.47C154.05 221.7 156.15 219.6 156.15 217.02V101.21C156.15 98.63 154.05 96.53 151.47 96.53H35.66Z" fill="currentColor"/>
  <path d="M141.12 96.53H46.01V56.49H141.12V96.53ZM53.01 89.53H134.13V63.48H53V89.53H53.01Z" fill="currentColor"/>
  <path d="M80.54 63.4801H62.53V23.4501H80.54V63.4901V63.4801ZM69.53 56.4801H73.55V30.4401H69.53V56.4801Z" fill="currentColor"/>
  <path d="M124.59 63.4801H106.58V23.4501H124.59V63.4901V63.4801ZM113.58 56.4801H117.6V30.4401H113.58V56.4801Z" fill="currentColor"/>
  <path d="M185.17 250.5C187.36 248.76 187.83 245.6 186.16 243.32L185.17 241.97V1.42004H8.64005C6.89005 0.230036 4.56005 0.160036 2.73005 1.42004H1.95005V2.19004C0.270046 4.00004 -0.029954 6.75004 1.48005 8.81004L1.96005 9.46004V250.71H179.12C179.98 251.28 180.93 251.67 181.94 251.67C182.95 251.67 184.01 251.34 184.92 250.71H185.18V250.49L185.17 250.5ZM178.17 232.41L14.2 8.42004H178.17V232.41ZM8.95005 19.02L173.45 243.72H8.95005V19.02Z" fill="currentColor"/>
  <path d="M42.1099 121.69L53.2099 106.16H58.5999V122.57H63.0299V126.2H58.5999V132.03H54.8099V126.2H42.1199V121.69H42.1099ZM54.7999 109.91L45.6999 122.56H54.7999V109.91Z" fill="currentColor"/>
  <path d="M68.49 123.89C68.73 127.08 71.09 129.24 74.32 129.24C77.55 129.24 79.87 127.21 79.87 124.01C79.87 120.46 77.28 118.66 74.28 118.66C72.44 118.66 70.69 119.38 69.57 120.54C68.21 120.02 67.05 119.5 65.74 119.02L69.1 106.17H82.75V109.76H71.69L69.77 117.18C70.93 115.9 73 115.27 75.04 115.27C80.11 115.27 83.82 118.5 83.82 123.85C83.82 128.72 80.07 132.67 74.32 132.67C68.57 132.67 65.1 129.08 64.74 125.01L68.49 123.9V123.89Z" fill="currentColor"/>
  <path d="M86.72 122.21V118.94H97.54V122.21H86.72Z" fill="currentColor"/>
  <path d="M118.81 110.2C117.85 109.64 116.13 109.08 114.18 109.08C108.79 109.08 105.4 113.03 105.07 118.35C106.11 116.63 108.46 114.99 111.9 114.99C117.01 114.99 120.76 118.18 120.76 123.81C120.76 129.44 116.25 132.63 111.18 132.63C106.11 132.63 101.08 129.2 101.08 120.66C101.08 111.04 106.87 105.57 114.41 105.57C116.77 105.57 118.8 106.17 120 107.01L118.8 110.2H118.81ZM111.23 129.24C114.26 129.24 116.82 127.24 116.82 123.81C116.82 120.38 114.23 118.34 111.23 118.34C108.23 118.34 105.64 120.34 105.64 123.81C105.64 127.28 108.4 129.24 111.23 129.24Z" fill="currentColor"/>
  <path d="M126.22 109.72C127.9 107.2 130.49 105.57 134.16 105.57C137.83 105.57 140.43 107.2 142.1 109.72C143.82 112.28 144.42 115.55 144.42 119.1C144.42 122.65 143.82 125.93 142.1 128.48C140.43 131 137.83 132.63 134.16 132.63C130.49 132.63 127.89 131 126.22 128.48C124.5 125.92 123.91 122.65 123.91 119.1C123.91 115.55 124.51 112.27 126.22 109.72ZM130.05 127.48C131.05 128.52 132.33 129.16 134.16 129.16C135.99 129.16 137.27 128.52 138.27 127.48C139.83 125.84 140.55 123.05 140.55 119.1C140.55 115.15 139.83 112.35 138.27 110.72C137.27 109.68 135.99 109.04 134.16 109.04C132.33 109.04 131.05 109.68 130.05 110.72C128.49 112.35 127.77 115.15 127.77 119.1C127.77 123.05 128.49 125.84 130.05 127.48Z" fill="currentColor"/>
  <path d="M108.99 143.63H113.02L104.95 171.93H100.92L93.5299 148.97L86.2199 171.93H82.3099L74.1199 143.63H78.1599L84.3799 165.79L91.4899 143.63H95.5999L102.87 166.02L108.98 143.63H108.99Z" fill="currentColor"/>
  <path d="M38.21 203.56V187.59H41.53V203.46C41.53 207.15 43.55 209.24 46.93 209.24C50.31 209.24 52.3 207.15 52.3 203.46V187.59H55.65V203.56C55.65 209.27 51.86 212.35 46.93 212.35C42 212.35 38.21 209.27 38.21 203.56Z" fill="currentColor"/>
  <path d="M73.68 194.16C73.41 192.41 71.93 190.02 68.55 190.02C65.81 190.02 63.86 191.8 63.86 194.06C63.86 195.81 64.92 197.14 66.97 197.58L70.5999 198.37C74.6399 199.26 76.8899 201.79 76.8899 205.18C76.8899 208.94 73.68 212.36 68.51 212.36C62.66 212.36 59.9 208.6 59.45 205.15L62.66 204.12C62.9 206.82 64.81 209.32 68.47 209.32C71.82 209.32 73.4599 207.57 73.4599 205.45C73.4599 203.71 72.26 202.21 69.83 201.69L66.3799 200.94C62.9199 200.19 60.4599 197.93 60.4599 194.31C60.4599 190.69 63.9799 187.09 68.4599 187.09C73.9299 187.09 76.1199 190.47 76.6699 193.11L73.66 194.17L73.68 194.16Z" fill="currentColor"/>
  <path d="M89.17 187.59C93.79 187.59 96.49 190.32 96.49 194.16C96.49 196.76 94.99 198.6 92.86 199.39C95.63 200.07 97.24 202.53 97.24 205.24C97.24 209.07 94.2 211.84 89.75 211.84H81.27V187.6H89.17V187.59ZM88.79 198.19C91.49 198.19 93.1 196.58 93.1 194.32C93.1 192.06 91.42 190.53 88.66 190.53H84.62V198.19H88.79ZM89.27 208.89C91.97 208.89 93.82 207.39 93.82 205.02C93.82 202.65 92.35 201.05 89.41 201.05H84.62V208.88H89.27V208.89Z" fill="currentColor"/>
  <path d="M113.28 201.92V211.84H109.92V187.6H118.75C123.23 187.6 126.24 190.71 126.24 194.78C126.24 198.85 123.23 201.93 118.75 201.93H113.28V201.92ZM118.13 198.91C121.04 198.91 122.82 197.3 122.82 194.8C122.82 192.3 121.04 190.6 118.13 190.6H113.28V198.91H118.13Z" fill="currentColor"/>
  <path d="M130.11 211.84V187.6H138.59C144.75 187.6 150.11 191.8 150.11 199.77C150.11 207.74 144.67 211.84 138.52 211.84H130.11ZM138.42 208.87C142.9 208.87 146.66 205.86 146.66 199.77C146.66 193.68 142.97 190.57 138.48 190.57H133.46V208.87H138.42Z" fill="currentColor"/>
</svg>
