<?xml version="1.0"?>
<svg xmlns="http://www.w3.org/2000/svg" viewBox="0 0 36 39" fill="none">
  <path fill="white" d="M36 12C36 18.2132 30.9632 23.25 24.75 23.25C18.5368 23.25 13.5 18.2132 13.5 12C13.5 5.7868 18.5368 0.75 24.75 0.75C30.9632 0.75 36 5.7868 36 12Z"/>
  <path fill="white" d="M18 30C18 34.9706 13.9706 39 9 39C4.0294 39 0 34.9706 0 30C0 25.0294 4.0294 21 9 21C13.9706 21 18 25.0294 18 30Z" fill-opacity="0.65"/>
  <path stroke="#8B929A" d="M4 25L14 35M14 25L4 35"/>
  <path stroke="#8B929A" d="M24.7501 19.1319C28.6886 19.1319 31.8815 15.9391 31.8815 12.0005C31.8815 8.06198 28.6886 4.86914 24.7501 4.86914C20.8115 4.86914 17.6187 8.06198 17.6187 12.0005C17.6187 15.9391 20.8115 19.1319 24.7501 19.1319Z" stroke-width="1.25" stroke-miterlimit="10"/>
</svg>
