<?xml version="1.0"?>
<svg width="25" height="24" viewBox="0 0 25 24" fill="" xmlns="http://www.w3.org/2000/svg">
  <path fill-rule="evenodd" clip-rule="evenodd" d="M1.97014 2.77093H4.44345V3.97865C4.44345 5.04817 5.31099 5.91572 6.38052 5.91572C7.45004 5.91572 8.31699 5.04817 8.31699 3.97865V2.77093H16.6836V3.97865C16.6836 5.04817 17.5511 5.91572 18.6207 5.91572C19.6902 5.91572 20.5571 5.04817 20.5571 3.97865V2.77093H23.0293C24.1136 2.77093 25 3.65738 25 4.74167V21.4991C25 22.5834 24.1136 23.4698 23.0293 23.4698H1.97073C0.886445 23.4698 0 22.5834 0 21.4991V4.74167C0 3.65738 0.886445 2.77093 1.97073 2.77093H1.97014ZM23.5005 8.23961V21.4991C23.5005 21.7578 23.2879 21.9704 23.0293 21.9704H1.97073C1.71206 21.9704 1.49946 21.7583 1.49946 21.4991V8.23961H23.5005V8.23961Z" fill=""/>
  <path d="M5.29335 1.08724C5.29335 0.486629 5.77998 0 6.38059 0C6.98061 0 7.46724 0.486629 7.46724 1.08724V3.97867C7.46724 4.57928 6.98061 5.06591 6.38059 5.06591C5.77998 5.06591 5.29335 4.57928 5.29335 3.97867V1.08724V1.08724Z" fill=""/>
  <path d="M17.5329 1.08724C17.5329 0.486629 18.0195 0 18.6201 0C19.2201 0 19.7068 0.486629 19.7068 1.08724V3.97867C19.7068 4.57928 19.2201 5.06591 18.6201 5.06591C18.0195 5.06591 17.5329 4.57928 17.5329 3.97867V1.08724V1.08724Z" fill=""/>
</svg>
