<?xml version="1.0"?>
<svg xmlns="http://www.w3.org/2000/svg" version="1.1" viewBox="0 0 1024 1024">
  <path d="M896.1,127.9c-62.8-62.9-164-62.9-366.3-62.9h-35.8c-202.3,0-303.4,0-366.3,62.9-62.9,62.8-62.9,164-62.9,366.3v35.8c0,202.3,0,303.4,62.9,366.3,62.8,62.9,164,62.9,366.3,62.9h35.8c202.3,0,303.4,0,366.3-62.9,62.9-62.8,62.9-164,62.9-366.3v-35.8c0-202.3,0-303.4-62.9-366.3ZM704.8,716.9c-22.3-70.8-77.2-125.6-150.6-133v133h-11.7c-201.7,0-324.1-139.9-328.9-372.5h102.2c3.2,170.8,80.9,243.2,140.5,258.1v-258.1h97.9v147.4c57.5-6.4,117.6-73.4,137.8-147.4h96.4c-15.5,91-80.9,158-127.2,185.7,46.3,22.4,120.8,80.9,149.6,186.8h-105.9Z"/>
</svg>
