<?xml version="1.0"?>
<svg xmlns="http://www.w3.org/2000/svg" viewBox="0 0 93 85" fill="none">
  <path stroke="currentColor" d="M90.0469 41.8938C88.7508 40.001 87.7445 39.4215 85.9982 37.9585C84.5962 36.7839 83.0911 35.744 81.6907 34.565M81.6907 34.565C81.2408 34.1862 81.5342 34.4553 81.6907 34.565ZM81.6907 34.565C82.7383 35.2987 84.2187 36.6291 85.2663 37.3627C86.772 38.4173 89.4666 40.219 90.8284 41.4637C91.0278 41.646 91.0231 41.5032 90.8284 41.8938C90.5428 42.4667 89.968 43.0208 89.533 43.4643C87.9809 45.0465 86.2836 46.784 84.684 48.3129C82.8447 50.5536 83.2458 49.9551 81.2253 52.0173C80.8966 52.4866 82.1787 51.0846 82.5723 50.6701C84.3118 48.8384 83.8917 49.2008 85.5595 47.3026C87.0681 45.5856 87.8436 44.52 89.1962 42.6676C89.486 42.2708 90.0469 41.4637 90.0469 41.4637" stroke-width="2.94335" stroke-linecap="round" stroke-linejoin="round"/>
  <path stroke="currentColor" d="M3.09998 44.6086C11.2217 46.2842 49.571 47.3026 87.712 41.9853" stroke-width="5.88669" stroke-linecap="round" stroke-linejoin="round"/>
</svg>
