<?xml version="1.0"?>
<svg xmlns="http://www.w3.org/2000/svg" viewBox="0 0 46 47" fill="none">
  <path stroke="currentColor" fill="currentColor" d="M23 7.38892C29.6405 7.38892 34.242 8.69779 37.1699 9.99146C38.6345 10.6386 39.6828 11.2832 40.3604 11.761C40.6989 11.9998 40.9454 12.197 41.1045 12.3323C41.1603 12.3797 41.2056 12.4201 41.2402 12.4514C41.2433 12.4618 41.2466 12.4731 41.25 12.4846C41.2814 12.5922 41.327 12.7511 41.3857 12.9553C41.5034 13.3645 41.6721 13.9564 41.874 14.6848C42.278 16.1422 42.8171 18.1467 43.3555 20.3352C44.4379 24.7353 45.5 29.807 45.5 32.7004C45.4998 34.6845 44.063 36.4077 42.4902 37.6848C41.7174 38.3123 40.942 38.8073 40.3584 39.1458C40.0962 39.2978 39.8734 39.4168 39.709 39.5022L32.1514 31.9446H13.8486L13.7021 32.0911L6.29004 39.5022C6.12571 39.4168 5.90342 39.2976 5.6416 39.1458C5.05803 38.8073 4.28256 38.3123 3.50977 37.6848C1.93696 36.4077 0.500199 34.6845 0.5 32.7004C0.5 29.807 1.56212 24.7353 2.64453 20.3352C3.18289 18.1467 3.72199 16.1422 4.12598 14.6848C4.3279 13.9564 4.49657 13.3645 4.61426 12.9553C4.67299 12.7511 4.71857 12.5922 4.75 12.4846C4.75335 12.4731 4.75578 12.4617 4.75879 12.4514C4.79351 12.42 4.83937 12.38 4.89551 12.3323C5.05464 12.197 5.30107 11.9998 5.63965 11.761C6.31717 11.2832 7.36553 10.6386 8.83008 9.99146C11.758 8.69779 16.3595 7.38892 23 7.38892ZM11 17.8889H7.16699V22.7219H11V26.5559H15.833V22.7219H19.667V17.8889H15.833V14.0559H11V17.8889ZM28.8857 19.4475C28.2109 19.1681 27.4683 19.0952 26.752 19.2375C26.125 19.3623 25.5424 19.6475 25.0605 20.0627L24.8594 20.2483C24.4074 20.7003 24.082 21.2612 23.9121 21.8743L23.8486 22.1409C23.724 22.7678 23.7645 23.4147 23.9639 24.0188L24.0586 24.2747C24.3033 24.8653 24.6968 25.3811 25.1982 25.7727L25.4199 25.9329C26.0274 26.3388 26.742 26.5559 27.4727 26.5559C27.8971 26.5559 28.318 26.4827 28.7168 26.3401L28.8857 26.2747C29.278 26.1122 29.6392 25.8833 29.9531 25.5989L30.085 25.4739C30.3852 25.1736 30.6304 24.8237 30.8115 24.4407L30.8857 24.2747C31.0713 23.8267 31.1669 23.3465 31.167 22.8616C31.167 22.2222 31.0009 21.595 30.6875 21.0413L30.5439 20.8088C30.1888 20.2773 29.7029 19.848 29.1348 19.5618L28.8857 19.4475ZM36.5527 14.3372C35.9619 14.0924 35.3192 14.0055 34.6875 14.0833L34.418 14.1262C33.791 14.251 33.2085 14.536 32.7266 14.9514L32.5264 15.1379C32.0742 15.5901 31.748 16.1506 31.5781 16.7639L31.5156 17.0295C31.391 17.6565 31.4315 18.3033 31.6309 18.9075L31.7256 19.1643C31.9703 19.7548 32.3639 20.2698 32.8652 20.6614L33.0859 20.8215C33.6934 21.2274 34.4081 21.4445 35.1387 21.4446C36.0572 21.4446 36.9405 21.1021 37.6182 20.4885L37.751 20.3625C38.4438 19.6698 38.833 18.73 38.833 17.7502C38.833 17.1109 38.6679 16.4836 38.3545 15.9299L38.2109 15.6975C37.8557 15.1658 37.3692 14.7367 36.8008 14.4504L36.5527 14.3372Z"/>
</svg>
