<?xml version="1.0"?>
<svg xmlns="http://www.w3.org/2000/svg" viewBox="0 0 22 20" fill="none">
  <path fill="currentColor" d="M5.55344 11.3334L7.94011 13.7267L6.06011 15.6067L0.446777 10.0001L6.06011 4.39341L7.94011 6.27341L5.55344 8.66675H13.6668V11.3334H5.55344ZM12.4334 0.666748H11.0001V3.33341H12.4334C14.2016 3.33341 15.8972 4.03579 17.1475 5.28604C18.3977 6.53628 19.1001 8.23197 19.1001 10.0001C19.1001 11.7682 18.3977 13.4639 17.1475 14.7141C15.8972 15.9644 14.2016 16.6667 12.4334 16.6667H11.0001V19.3334H12.4334C14.9088 19.3334 17.2828 18.3501 19.0331 16.5997C20.7834 14.8494 21.7668 12.4754 21.7668 10.0001C21.7668 7.52473 20.7834 5.15076 19.0331 3.40042C17.2828 1.65008 14.9088 0.666748 12.4334 0.666748Z"/>
</svg>
