<?xml version="1.0"?>
<svg width="19" height="19" viewBox="0 0 19 19">
  <path d="M15.9747 12.5368H12.5368V15.9976C12.5368 17.6707 11.1846 19.0229 9.51146 19.0229C7.83836 19.0229 6.48613 17.6707 6.48613 15.9976V12.5368H3.02533C1.35223 12.5368 0 11.1846 0 9.51146C0 7.83836 1.35223 6.48613 3.02533 6.48613H6.48613V3.02533C6.48613 1.35223 7.83836 0 9.51146 0C11.1846 0 12.5368 1.35223 12.5368 3.02533V6.48613H15.9976C17.6707 6.48613 19.0229 7.83836 19.0229 9.51146C19 11.1846 17.6478 12.5368 15.9747 12.5368Z" fill="#F9FDFF"/>
</svg>
