<?xml version="1.0"?>
<svg xmlns="http://www.w3.org/2000/svg" viewBox="0 0 36 36" fill="none">
  <path fill="currentColor" fill-rule="evenodd" clip-rule="evenodd" d="M18 4L3 30H33L18 4ZM21.025 12.9375L20.0167 21.0625H15.9833L14.975 12.9375H21.025ZM18 27.5625C17.5055 27.5625 17.0222 27.4195 16.6111 27.1517C16.2 26.8839 15.8795 26.5032 15.6903 26.0578C15.5011 25.6124 15.4516 25.1223 15.548 24.6495C15.6445 24.1766 15.8826 23.7423 16.2322 23.4014C16.5819 23.0605 17.0273 22.8284 17.5123 22.7343C17.9972 22.6403 18.4999 22.6886 18.9567 22.873C19.4135 23.0575 19.804 23.37 20.0787 23.7708C20.3534 24.1716 20.5 24.6429 20.5 25.125C20.5 25.7715 20.2366 26.3915 19.7678 26.8486C19.2989 27.3057 18.663 27.5625 18 27.5625Z"/>
</svg>
