<?xml version="1.0"?>
<svg xmlns="http://www.w3.org/2000/svg" viewBox="0 0 36 36" fill="none">
  <path fill="currentColor" opacity="0.25" fill-rule="evenodd" clip-rule="evenodd" d="M32.1774 26.0227C31.0248 26.7123 29.7647 27.2408 28.4282 27.5772C28.8074 29.3555 29 31.173 29 33H33C33 30.6305 32.7197 28.29 32.1774 26.0227ZM12.0661 8.63187C12.5918 7.36674 13.2977 6.19534 14.1518 5.14971C10.6386 3.74299 6.85763 3 3 3V7C6.0976 7 9.16768 7.55351 12.0661 8.63187ZM11.1319 12.0701C11.0449 12.701 11 13.3452 11 14C11 14.8456 11.075 15.6737 11.2186 16.478C8.68874 15.2181 5.87932 14.5431 3 14.54V10.54C5.8091 10.5425 8.5636 11.0707 11.1319 12.0701ZM24.8923 27.9996C23.3734 27.9882 21.912 27.7348 20.5447 27.2762C21.1436 29.1074 21.4579 31.0375 21.46 33H25.46C25.4585 31.3036 25.2653 29.6272 24.8923 27.9996ZM3 33H10.54C10.5374 31.0011 9.74211 29.0848 8.32866 27.6713C6.91521 26.2579 4.99892 25.4626 3 25.46V33ZM3 22.08V18.08C6.95622 18.0826 10.7496 19.6554 13.5471 22.4529C16.3446 25.2504 17.9174 29.0438 17.92 33H13.92C13.9174 30.1046 12.766 27.3286 10.7187 25.2813C8.67136 23.234 5.89535 22.0826 3 22.08Z"/>
  <path fill-rule="evenodd" clip-rule="evenodd" d="M25 23C29.9706 23 34 18.9706 34 14C34 9.02944 29.9706 5 25 5C20.0294 5 16 9.02944 16 14C16 18.9706 20.0294 23 25 23ZM28.6 8.6L30.4 10.4L26.8 14L30.4 17.6L28.6 19.4L25 15.8L21.4 19.4L19.6 17.6L23.2 14L19.6 10.4L21.4 8.6L25 12.2L28.6 8.6Z" fill="#AD66BB"/>
</svg>
