<?xml version="1.0"?>
<svg xmlns="http://www.w3.org/2000/svg" viewBox="0 0 36 36" fill="none">
  <path d="M26 12.05V10.05C26 7.92826 25.1571 5.89342 23.6569 4.39313C22.1566 2.89284 20.1217 2.04999 18 2.04999C15.8783 2.04999 13.8434 2.89284 12.3431 4.39313C10.8429 5.89342 10 7.92826 10 10.05V12.05H2L4 34.05H32L34 12.05H26ZM14 10.05C14 8.98912 14.4214 7.97171 15.1716 7.22156C15.9217 6.47142 16.9391 6.04999 18 6.04999C19.0609 6.04999 20.0783 6.47142 20.8284 7.22156C21.5786 7.97171 22 8.98912 22 10.05V12.05H14V10.05ZM23.61 27.05C23.61 25.6656 23.06 24.3378 22.0811 23.3589C21.1022 22.38 19.7744 21.83 18.39 21.83C17.3162 21.821 16.2667 22.1498 15.39 22.77L18 25.38L9.66 26.38L10.66 18.04L12.76 20.14L12.87 20.25C14.4122 18.966 16.3533 18.2589 18.36 18.25C20.6763 18.2526 22.8967 19.1746 24.5336 20.8134C26.1706 22.4522 27.09 24.6737 27.09 26.99L23.61 27.05Z" fill="currentColor"/>
</svg>
