<?xml version="1.0"?>
<svg xmlns="http://www.w3.org/2000/svg" viewBox="0 0 91.436 33.02">
  <path fill="currentColor" d="M64.413,15.165c0.021,0,0.042,0,0.063,0
				c0.167-0.021,0.301-0.082,0.407-0.188c0.124-0.124,0.187-0.271,0.187-0.438s-0.063-0.313-0.187-0.438
				c-0.105-0.105-0.24-0.156-0.407-0.156c-0.021,0-0.042,0-0.063,0H42.11c-0.146,0-0.271,0.051-0.375,0.156
				c-0.125,0.124-0.188,0.271-0.188,0.438s0.063,0.313,0.188,0.438c0.104,0.105,0.23,0.167,0.375,0.188H64.413z M75.736,21.265
				H36.104l-0.563-1.596h-2.096v2.034l-0.125,0.155h-0.844l-0.313-0.499v-0.845l-0.188-0.313c0,0.146-0.052,0.281-0.156,0.406
				c-0.125,0.125-0.271,0.188-0.438,0.188c-0.167,0-0.313-0.063-0.438-0.188c-0.105-0.125-0.157-0.26-0.157-0.406
				c-0.021,0.146-0.083,0.281-0.188,0.406c-0.125,0.125-0.271,0.188-0.439,0.188c-0.166,0-0.312-0.063-0.438-0.188
				c-0.104-0.125-0.156-0.26-0.156-0.406c-0.021,0.146-0.083,0.281-0.187,0.406c-0.125,0.125-0.271,0.188-0.438,0.188
				s-0.313-0.063-0.438-0.188c-0.102-0.123-0.155-0.258-0.156-0.406c-0.002,0.148-0.064,0.283-0.188,0.406
				c-0.125,0.125-0.271,0.188-0.438,0.188c-0.168,0-0.313-0.063-0.438-0.188c-0.103-0.123-0.155-0.258-0.157-0.406
				c-0.001,0.148-0.064,0.283-0.188,0.406c-0.125,0.125-0.271,0.188-0.438,0.188s-0.303-0.063-0.407-0.188
				c-0.123-0.123-0.186-0.258-0.189-0.406c-0.001,0.148-0.063,0.283-0.187,0.406c-0.104,0.125-0.24,0.188-0.407,0.188
				c-0.188,0-0.333-0.063-0.438-0.188c-0.123-0.123-0.186-0.258-0.187-0.406c-0.002,0.148-0.065,0.283-0.188,0.406
				c-0.104,0.125-0.24,0.188-0.407,0.188c-0.167,0-0.313-0.063-0.438-0.188c-0.124-0.123-0.186-0.258-0.188-0.406
				c-0.001,0.148-0.064,0.283-0.188,0.406c-0.104,0.125-0.24,0.188-0.407,0.188s-0.313-0.063-0.438-0.188
				c-0.104-0.125-0.167-0.26-0.188-0.406c0,0.146-0.052,0.281-0.156,0.406c-0.125,0.125-0.271,0.188-0.438,0.188
				c-0.166,0-0.313-0.063-0.438-0.188c-0.104-0.125-0.167-0.26-0.187-0.406c0,0.146-0.053,0.281-0.157,0.406
				c-0.125,0.125-0.271,0.188-0.438,0.188c-0.167,0-0.313-0.063-0.438-0.188c-0.104-0.125-0.157-0.26-0.157-0.406
				c-0.021,0.146-0.083,0.281-0.187,0.406c-0.125,0.125-0.271,0.188-0.438,0.188c-0.167,0-0.313-0.063-0.438-0.188
				c-0.104-0.125-0.156-0.26-0.156-0.406c-0.021,0.146-0.083,0.281-0.187,0.406c-0.125,0.125-0.271,0.188-0.438,0.188
				c-0.167,0-0.313-0.063-0.438-0.188c-0.103-0.123-0.156-0.258-0.157-0.406c-0.002,0.148-0.065,0.283-0.188,0.406
				c-0.125,0.125-0.271,0.188-0.438,0.188c-0.167,0-0.313-0.063-0.438-0.188c-0.104-0.123-0.156-0.258-0.156-0.406
				c-0.002,0.148-0.065,0.283-0.188,0.406c-0.125,0.125-0.271,0.188-0.438,0.188c-0.167,0-0.303-0.063-0.406-0.188
				c-0.124-0.123-0.186-0.258-0.188-0.406c-0.001,0.148-0.064,0.283-0.188,0.406c-0.104,0.125-0.24,0.188-0.407,0.188
				c-0.188,0-0.333-0.063-0.438-0.188c-0.123-0.123-0.186-0.258-0.188-0.406c-0.002,0.148-0.064,0.283-0.188,0.406
				c-0.104,0.125-0.24,0.188-0.407,0.188c-0.166,0-0.313-0.063-0.438-0.188c-0.123-0.123-0.186-0.258-0.188-0.406
				c-0.002,0.148-0.064,0.283-0.188,0.406c-0.104,0.125-0.24,0.188-0.406,0.188c-0.168,0-0.313-0.063-0.439-0.188
				c-0.104-0.125-0.167-0.26-0.188-0.406c0,0.146-0.052,0.281-0.156,0.406c-0.126,0.125-0.271,0.188-0.438,0.188
				s-0.313-0.063-0.438-0.188c-0.104-0.125-0.167-0.26-0.188-0.406c0,0.146-0.052,0.281-0.156,0.406
				c-0.125,0.125-0.271,0.188-0.438,0.188c-0.166,0-0.312-0.063-0.437-0.188c-0.104-0.125-0.156-0.26-0.156-0.406
				c-0.021,0.146-0.084,0.281-0.189,0.406c-0.125,0.125-0.271,0.188-0.437,0.188c-0.167,0-0.313-0.063-0.438-0.188
				c-0.104-0.125-0.156-0.26-0.156-0.406c-0.021,0.146-0.083,0.281-0.188,0.406c-0.125,0.125-0.271,0.188-0.438,0.188
				c-0.167,0-0.313-0.063-0.438-0.188c-0.103-0.123-0.155-0.258-0.156-0.406c-0.002,0.148-0.065,0.283-0.188,0.406
				c-0.125,0.125-0.27,0.188-0.438,0.188c-0.167,0-0.313-0.063-0.438-0.188c-0.103-0.123-0.155-0.258-0.156-0.406
				c-0.001,0.148-0.065,0.283-0.187,0.406c-0.126,0.125-0.272,0.188-0.439,0.188c-0.167,0-0.302-0.063-0.407-0.188
				c-0.125-0.125-0.187-0.26-0.187-0.406l-0.344-0.876L0.851,17.23v-2.409l3.253-2.034l0.25-0.437c0-0.167,0.052-0.303,0.157-0.407
				c0.125-0.125,0.27-0.188,0.438-0.188s0.313,0.063,0.438,0.188c0.104,0.104,0.167,0.24,0.188,0.407
				c0-0.167,0.053-0.303,0.157-0.407c0.125-0.125,0.271-0.188,0.438-0.188c0.167,0,0.313,0.063,0.438,0.188
				c0.104,0.104,0.157,0.24,0.157,0.407c0.021-0.167,0.083-0.303,0.187-0.407c0.125-0.125,0.272-0.188,0.439-0.188
				c0.166,0,0.312,0.063,0.437,0.188c0.104,0.104,0.156,0.24,0.156,0.407c0.021-0.167,0.083-0.303,0.188-0.407
				c0.125-0.125,0.271-0.188,0.438-0.188c0.167,0,0.303,0.063,0.407,0.188c0.124,0.103,0.186,0.238,0.188,0.407
				c0.001-0.169,0.064-0.305,0.188-0.407c0.125-0.125,0.271-0.188,0.437-0.188c0.167,0,0.303,0.063,0.407,0.188
				c0.123,0.103,0.186,0.238,0.188,0.407c0.002-0.169,0.064-0.305,0.187-0.407c0.105-0.125,0.251-0.188,0.438-0.188
				c0.167,0,0.303,0.063,0.408,0.188c0.123,0.103,0.186,0.238,0.187,0.407c0.001-0.169,0.065-0.305,0.188-0.407
				c0.104-0.125,0.24-0.188,0.407-0.188c0.167,0,0.313,0.063,0.438,0.188c0.123,0.103,0.185,0.238,0.188,0.407
				c0.001-0.169,0.054-0.305,0.157-0.407c0.125-0.125,0.271-0.188,0.438-0.188c0.167,0,0.313,0.063,0.438,0.188
				c0.124,0.103,0.187,0.238,0.188,0.407c0.002-0.169,0.054-0.305,0.156-0.407c0.125-0.125,0.271-0.188,0.438-0.188
				s0.313,0.063,0.438,0.188c0.104,0.104,0.167,0.24,0.188,0.407c0-0.167,0.051-0.303,0.156-0.407
				c0.125-0.125,0.272-0.188,0.438-0.188c0.167,0,0.313,0.063,0.438,0.188c0.104,0.104,0.166,0.24,0.187,0.407
				c0-0.167,0.053-0.303,0.157-0.407c0.125-0.125,0.271-0.188,0.438-0.188c0.167,0,0.313,0.063,0.438,0.188
				c0.104,0.104,0.157,0.24,0.157,0.407c0.021-0.167,0.083-0.303,0.187-0.407c0.125-0.125,0.271-0.188,0.438-0.188
				c0.167,0,0.312,0.063,0.437,0.188c0.105,0.104,0.157,0.24,0.157,0.407c0.021-0.167,0.083-0.303,0.188-0.407
				c0.125-0.125,0.271-0.188,0.438-0.188c0.167,0,0.302,0.063,0.407,0.188c0.123,0.103,0.185,0.238,0.188,0.407
				c0.002-0.169,0.065-0.305,0.188-0.407c0.125-0.125,0.271-0.188,0.438-0.188c0.167,0,0.302,0.063,0.406,0.188
				c0.124,0.103,0.186,0.238,0.188,0.407c0.002-0.169,0.065-0.305,0.188-0.407c0.104-0.125,0.25-0.188,0.438-0.188
				c0.167,0,0.302,0.063,0.407,0.188c0.124,0.103,0.186,0.238,0.188,0.407c0.002-0.169,0.064-0.305,0.188-0.407
				c0.104-0.125,0.24-0.188,0.407-0.188c0.188,0,0.333,0.063,0.438,0.188c0.123,0.103,0.186,0.238,0.188,0.407
				c0.001-0.169,0.054-0.305,0.157-0.407c0.124-0.125,0.27-0.188,0.437-0.188c0.167,0,0.313,0.063,0.438,0.188
				c0.123,0.103,0.185,0.238,0.187,0.407c0.003-0.169,0.055-0.305,0.157-0.407c0.125-0.125,0.271-0.188,0.438-0.188
				s0.313,0.063,0.437,0.188c0.106,0.104,0.168,0.24,0.189,0.407c0-0.167,0.052-0.303,0.156-0.407
				c0.125-0.125,0.271-0.188,0.438-0.188c0.167,0,0.313,0.063,0.438,0.188c0.104,0.104,0.167,0.24,0.188,0.407
				c0-0.167,0.052-0.303,0.156-0.407c0.125-0.125,0.271-0.188,0.438-0.188c0.167,0,0.313,0.063,0.438,0.188
				c0.104,0.104,0.155,0.24,0.155,0.407c0.021-0.167,0.084-0.303,0.189-0.407c0.125-0.125,0.271-0.188,0.438-0.188
				c0.167,0,0.313,0.063,0.438,0.188c0.104,0.104,0.157,0.24,0.157,0.407c0.021-0.167,0.083-0.303,0.188-0.407
				c0.125-0.125,0.271-0.188,0.438-0.188c0.167,0,0.302,0.063,0.407,0.188c0.123,0.103,0.186,0.238,0.188,0.407
				c0.001-0.169,0.064-0.305,0.187-0.407c0.126-0.125,0.272-0.188,0.439-0.188c0.166,0,0.302,0.063,0.406,0.188
				c0.125,0.104,0.187,0.24,0.187,0.407l0.251,0.25l2.877-1.439h12.637l2.846,1.346h17.423l21.553,1.938L75.736,21.265z
				 M36.323,11.756h-0.031c-0.167,0-0.313,0.063-0.438,0.188c-0.104,0.125-0.157,0.271-0.157,0.438c0,0.166,0.052,0.303,0.157,0.405
				c0.125,0.125,0.271,0.188,0.438,0.188h0.031c0.146,0,0.282-0.063,0.407-0.188c0.125-0.103,0.188-0.239,0.188-0.405
				c0-0.168-0.063-0.313-0.188-0.438C36.605,11.818,36.469,11.756,36.323,11.756z M45.864,12.382c0-0.168-0.062-0.313-0.188-0.438
				c-0.104-0.125-0.24-0.188-0.407-0.188h-6.413c-0.146,0.021-0.271,0.083-0.375,0.188c-0.125,0.125-0.187,0.271-0.187,0.438
				c0,0.166,0.063,0.303,0.187,0.405c0.105,0.125,0.229,0.188,0.375,0.188h6.413c0.167,0,0.302-0.063,0.407-0.188
				C45.802,12.685,45.864,12.548,45.864,12.382z M47.083,12.976c0.167,0,0.303-0.063,0.406-0.188
				c0.125-0.103,0.189-0.239,0.189-0.405c0-0.168-0.063-0.313-0.189-0.438c-0.104-0.125-0.239-0.188-0.406-0.188
				c-0.167,0-0.313,0.063-0.438,0.188c-0.125,0.125-0.188,0.271-0.188,0.438c0,0.166,0.063,0.303,0.188,0.405
				C46.771,12.912,46.916,12.976,47.083,12.976z"/>
</svg>
