<?xml version="1.0"?>
<svg xmlns="http://www.w3.org/2000/svg" viewBox="0 0 88.5 32">
  <path fill="currentColor" d="M86.469,4.433V8.46l1.417,0.149
				c0.099,0.199,0.186,0.399,0.261,0.597c0.099,0.151,0.162,0.298,0.187,0.448c0,0.123-0.063,0.248-0.187,0.374
				c-0.149,0.148-0.361,0.223-0.635,0.223c-0.125,0-0.261-0.038-0.41-0.111h-0.448l-0.634,1.118l-1.194-0.485H74.791l-0.521,0.635
				l-0.598-0.448H66.51l-0.112,0.635H55.132l-1.342,0.708c-0.323,0.199-0.647,0.372-0.97,0.522
				c-0.348,0.099-0.584,0.149-0.709,0.149c-0.249,0-0.485-0.037-0.708-0.113c-0.15-0.023-0.25-0.085-0.298-0.187l-0.523-0.334h-5.11
				c0,1.267,0.286,2.573,0.858,3.918c0.497,1.167,1.281,2.46,2.35,3.877c1.095,1.444,2.661,2.886,4.7,4.328
				c-0.049,0-0.273,0.287-0.67,0.858c-0.324,0.597-0.735,1.244-1.231,1.94c-0.448,0.795-1.008,1.704-1.679,2.723
				c-1.493-1.02-2.91-2.237-4.254-3.656c-1.168-1.219-2.375-2.749-3.618-4.588c-1.243-1.792-2.274-3.93-3.096-6.417
				c-0.099-0.099-0.236-0.086-0.411,0.038c-0.125,0.075-0.224,0.162-0.299,0.261l-1.118-0.186c-0.572,0.323-1.169,0.547-1.791,0.671
				c-0.498,0.151-1.083,0.186-1.753,0.112c-0.696-0.075-1.368-0.374-2.015-0.896c-0.05,0-0.285,0.188-0.709,0.56
				c-0.422,0.375-0.882,0.859-1.379,1.454c-0.521,0.623-1.007,1.32-1.455,2.09c-0.473,0.72-0.797,1.454-0.97,2.201
				c0,0.05-0.224,0.148-0.671,0.297c-0.422,0.174-0.921,0.287-1.493,0.335c-0.546,0.026-1.069-0.098-1.565-0.374
				c-0.474-0.296-0.771-0.894-0.897-1.789c0.025-0.1,0.212-0.497,0.561-1.193c0.298-0.647,0.659-1.33,1.083-2.053
				c0.397-0.746,0.771-1.43,1.119-2.051c0.373-0.597,0.597-0.896,0.671-0.896c-0.074,0-0.286-0.147-0.633-0.447
				c-0.299-0.298-0.623-0.411-0.972-0.335c-0.073,0.025-0.322,0.111-0.745,0.26c-0.448,0.125-1.007,0.312-1.679,0.561
				c-0.673,0.249-1.417,0.522-2.238,0.82c-0.847,0.299-1.691,0.597-2.538,0.896c-1.989,0.721-4.215,1.542-6.677,2.462l-8.84,2.91
				L0.667,10.476c0.398-0.299,0.858-0.523,1.38-0.672c0.474-0.175,1.021-0.311,1.642-0.41C4.262,9.269,4.896,9.281,5.592,9.43
				c0,0.05,0.547,0.037,1.64-0.037c1.095-0.125,2.313-0.224,3.657-0.298l5.409-0.336c0.348,0.101,0.696,0.211,1.044,0.336
				c0.622,0.223,1.144,0.335,1.566,0.335c0.149,0,0.461-0.073,0.934-0.224c0.521-0.1,1.056-0.236,1.604-0.41
				c0.621-0.15,1.317-0.36,2.088-0.633l3.395-2.911l0.298,0.299h20.741c0-0.049,0.076-0.111,0.225-0.185
				c0.074-0.076,0.211-0.139,0.41-0.188c0.198-0.049,0.496-0.076,0.894-0.076l15.967,0.149c0.297,0.075,0.598,0.175,0.896,0.299
				c0.225,0.075,0.473,0.149,0.746,0.224c0.249,0.125,0.473,0.199,0.672,0.224h6.677c0.348,0.448,0.685,0.858,1.007,1.232
				c0.273,0.298,0.573,0.609,0.895,0.933c0.273,0.273,0.51,0.423,0.708,0.446h5.857l0.448-0.149c0.298-0.521,0.51-0.994,0.634-1.417
				c0.174-0.349,0.336-0.709,0.485-1.082c0.124-0.375,0.236-0.609,0.335-0.71c0.075-0.348,0.112-0.534,0.112-0.56v-0.26H86.469z
				 M35.473,12.789l-2.015,0.037c-0.398-0.025-0.746,0.085-1.044,0.335c-0.248,0.274-0.374,0.61-0.374,1.008
				c0,0.322,0.126,0.609,0.374,0.857c0.298,0.249,0.646,0.375,1.044,0.375h2.015c0.373,0,0.671-0.126,0.896-0.375
				c0.224-0.248,0.334-0.535,0.334-0.857c0-0.398-0.111-0.734-0.334-1.008C36.144,12.911,35.846,12.789,35.473,12.789z"/>
</svg>
