<?xml version="1.0"?>
<svg xmlns="http://www.w3.org/2000/svg" viewBox="0 0 36 36" fill="none">
  <path fill="currentColor" fill-rule="evenodd" clip-rule="evenodd" d="M35.9679 20.4396H31.9599V20.8005C31.9279 21.5959 31.8397 22.1699 31.6954 22.5472C31.5591 22.9162 31.3587 23.1376 31.1102 23.2606C30.8377 23.4 30.4529 23.482 29.9238 23.482C29.483 23.482 29.1383 23.4082 28.8898 23.277C28.6573 23.154 28.4649 22.9572 28.3126 22.662C28.1603 22.3585 28.0321 21.9403 27.9519 21.4155C27.8717 20.8743 27.8317 20.2182 27.8317 19.4392V16.569C27.8317 15.7736 27.8798 15.1093 27.9599 14.5763C28.0561 14.0433 28.1924 13.6415 28.3687 13.3462C28.5371 13.051 28.7455 12.8624 28.994 12.7394C29.2505 12.6082 29.5711 12.5344 29.9639 12.5344C30.517 12.5344 30.9098 12.6246 31.1583 12.7722C31.3908 12.9034 31.5832 13.1412 31.7114 13.5349C31.8477 13.9449 31.9359 14.5271 31.9599 15.3062V15.667H36L35.9679 15.2733C35.8717 13.9695 35.5992 12.846 35.1263 11.9112C34.6613 10.9681 33.988 10.2383 33.1222 9.73804C32.2485 9.23781 31.1824 9 29.9479 9C29.01 9 28.1603 9.16401 27.3908 9.50023C26.6293 9.82825 25.98 10.3285 25.4429 10.9845C24.9138 11.6323 24.505 12.436 24.2244 13.3708C23.9519 14.3139 23.8156 15.3882 23.8156 16.5854V19.431C23.8156 20.6282 23.9439 21.6943 24.2004 22.6374C24.4649 23.5722 24.8657 24.3677 25.3948 25.0237C25.9238 25.6715 26.5731 26.1718 27.3347 26.508C28.0962 26.836 28.9539 27 29.8998 27C31.1182 27 32.1764 26.7704 33.0661 26.2866C33.9639 25.8027 34.6613 25.0975 35.1423 24.1708C35.6232 23.236 35.8798 22.1125 35.9279 20.8169L35.9439 20.4314L35.9679 20.4396ZM22.9178 23.2442V26.7786H12.7776V9.23781H22.8938V12.7804H16.8016V16.0442H21.9559V19.4966H16.8016V23.2442H22.9178ZM5.62725 9.23781H0V26.7704H4.02405V20.6118H5.09018L7.56713 26.7704H11.7034V26.1636L8.90581 19.4966C9.18637 19.3162 9.4509 19.1112 9.69138 18.8815C10.1804 18.4059 10.5491 17.8237 10.8056 17.1431C11.0621 16.446 11.1904 15.6178 11.1904 14.6829C11.1904 13.5267 10.9739 12.5344 10.5251 11.7062C10.0762 10.8861 9.42685 10.2629 8.58517 9.84465C7.7515 9.42642 6.75752 9.22961 5.61924 9.22961L5.62725 9.23781ZM5.53908 17.0692H4.02405V12.7804H5.62725C6.02806 12.7804 6.30862 12.8706 6.50902 13.0182H6.51703C6.72545 13.174 6.89379 13.3954 6.998 13.7153C7.11824 14.0515 7.18236 14.4533 7.18236 14.9617C7.18236 15.421 7.11022 15.8146 6.98196 16.1344C6.86172 16.446 6.68537 16.6674 6.45291 16.8314C6.23647 16.979 5.93988 17.0692 5.53908 17.0692Z"/>
</svg>
