<svg width="91" height="118" viewBox="0 0 91 118" fill="none" xmlns="http://www.w3.org/2000/svg">
<path d="M10.636 0H0.981445V118H10.636V0Z" fill="url(#paint0_linear)" fill-opacity="0.85"/>
<path d="M64.975 28.4804L71.7818 33.2545V0H54.6182V33.2545L61.425 28.4804C61.9441 28.1162 62.5643 27.9207 63.2 27.9207C63.8357 27.9207 64.4558 28.1162 64.975 28.4804Z" fill="url(#paint1_linear)" fill-opacity="0.85"/>
<path d="M90.0182 0H77.1997V39.2623C77.199 39.8231 77.0444 40.3729 76.7525 40.8518C76.4607 41.3307 76.043 41.7201 75.5449 41.9776C75.0469 42.2352 74.4877 42.3509 73.9284 42.3121C73.3691 42.2733 72.8311 42.0816 72.3734 41.7578L62.5412 34.8078L52.709 41.7578C52.2511 42.0814 51.713 42.273 51.1535 42.3115C50.5941 42.35 50.0349 42.234 49.5369 41.9761C49.0389 41.7182 48.6214 41.3285 48.3298 40.8493C48.0383 40.3702 47.884 39.8201 47.8837 39.2592V0H18.1455V118H90.0182V0Z" fill="url(#paint2_linear)" fill-opacity="0.85"/>
<defs>
<linearGradient id="paint0_linear" x1="5.80872" y1="0" x2="5.80872" y2="118" gradientUnits="userSpaceOnUse">
<stop stop-color="white"/>
<stop offset="1" stop-color="white" stop-opacity="0.58"/>
</linearGradient>
<linearGradient id="paint1_linear" x1="63.2" y1="0" x2="63.2" y2="33.2545" gradientUnits="userSpaceOnUse">
<stop stop-color="white"/>
<stop offset="1" stop-color="white" stop-opacity="0.58"/>
</linearGradient>
<linearGradient id="paint2_linear" x1="54.0819" y1="0" x2="54.0819" y2="118" gradientUnits="userSpaceOnUse">
<stop stop-color="white"/>
<stop offset="1" stop-color="white" stop-opacity="0.58"/>
</linearGradient>
</defs>
</svg>
