<?xml version="1.0"?>
<svg xmlns="http://www.w3.org/2000/svg" viewBox="0 0 14 14" fill="none">
  <path fill="currentColor" d="M13.6666 8.05776V5.9422L11.9199 5.6222C11.8053 5.22889 11.6457 4.8501 11.4444 4.49331L12.4533 3.03554L10.9644 1.53776L9.50659 2.55554C9.1498 2.35419 8.77101 2.19461 8.3777 2.07998L8.0577 0.333313H5.94214L5.62214 2.07998C5.22883 2.19461 4.85003 2.35419 4.49325 2.55554L3.03547 1.53776L1.5377 3.03554L2.55547 4.49331C2.35412 4.8501 2.19455 5.22889 2.07992 5.6222L0.333252 5.9422V8.05776L2.07992 8.37776C2.19455 8.77107 2.35412 9.14986 2.55547 9.50665L1.5377 10.9644L3.03547 12.4622L4.49325 11.4444C4.85043 11.6427 5.22921 11.7993 5.62214 11.9111L5.94214 13.6666H8.0577L8.3777 11.92C8.77101 11.8053 9.1498 11.6458 9.50659 11.4444L10.9644 12.4533L12.4621 10.9555L11.4444 9.50665C11.6426 9.14947 11.7992 8.77069 11.911 8.37776L13.6666 8.05776ZM6.99992 9.2222C6.56041 9.2222 6.13076 9.09187 5.76532 8.84769C5.39988 8.60351 5.11505 8.25645 4.94685 7.85039C4.77866 7.44433 4.73465 6.99751 4.8204 6.56645C4.90614 6.13538 5.11779 5.73942 5.42857 5.42863C5.73935 5.11785 6.13532 4.9062 6.56638 4.82046C6.99745 4.73471 7.44427 4.77872 7.85033 4.94691C8.25639 5.11511 8.60345 5.39994 8.84763 5.76538C9.09181 6.13082 9.22214 6.56047 9.22214 6.99998C9.22214 7.29181 9.16466 7.58078 9.05299 7.85039C8.94131 8.12 8.77762 8.36498 8.57127 8.57133C8.36491 8.77768 8.11994 8.94137 7.85033 9.05305C7.58071 9.16472 7.29175 9.2222 6.99992 9.2222Z" fill-opacity="0.5"/>
</svg>
