<?xml version="1.0"?>
<svg version="1.1" xmlns="http://www.w3.org/2000/svg" x="0px" y="0px" width="100px" height="91.582px" viewBox="0 0 100 91.582" enable-background="new 0 0 100 91.582">
  <g>
    <path clip-path="" d="M88.853,29.724H62.271V11.351C62.262,5.18,57.26,0.179,51.089,0.169H11.255
				C5.085,0.179,0.085,5.18,0.074,11.351v24.908c-0.001,2.207,0.657,4.36,1.888,6.19c3.942,7.586,22.118,18.799,22.314,18.916
				c0.389,0.229,0.83,0.354,1.281,0.361c1.351,0.01,2.455-1.074,2.468-2.426c0.003-0.329-0.062-0.654-0.187-0.958
				c-1.319-3.565-2.341-7.233-3.053-10.968h13.135v18.389C37.93,71.9,42.882,76.882,49.02,76.928H75.29
				c-0.715,3.724-1.737,7.379-3.054,10.936c-0.517,1.248,0.076,2.678,1.323,3.196c0.303,0.125,0.63,0.188,0.959,0.186
				c0.451-0.006,0.894-0.13,1.279-0.361c0.197-0.115,18.373-11.329,22.314-18.914c1.235-1.834,1.894-3.997,1.888-6.207V40.906
				C99.99,34.746,95.01,29.751,88.853,29.724 M32.797,42.449H21.831c-0.721,0.01-1.4,0.327-1.873,0.869
				c-0.464,0.544-0.669,1.265-0.558,1.973c0,0.228,0.59,3.79,1.641,8.028c-5.517-3.842-12.773-9.425-14.776-13.136
				c-0.067-0.162-0.149-0.314-0.247-0.46c-0.738-1.033-1.13-2.276-1.116-3.546V11.351c0.008-3.463,2.825-6.264,6.288-6.255h0.065
				h39.833c3.45,0.007,6.246,2.804,6.255,6.255v18.373H49.02c-3.223,0.005-6.286,1.399-8.406,3.825
				c-1.744-0.054-3.464-0.427-5.074-1.101c2.588-3.257,4.169-7.2,4.548-11.345h1.33c1.359,0,2.463-1.103,2.463-2.463
				c0-1.361-1.104-2.461-2.463-2.461h-7.784v-4.384c0-1.36-1.102-2.464-2.461-2.464c-1.361,0-2.463,1.104-2.463,2.464v4.384h-7.668
				c-1.361,0-2.462,1.1-2.462,2.461c0,1.36,1.102,2.463,2.462,2.463H35.13c-0.348,3.137-1.604,6.104-3.613,8.538
				c-1.439-1.598-2.553-3.46-3.284-5.482c-0.489-1.271-1.916-1.903-3.185-1.414c-1.27,0.489-1.902,1.917-1.412,3.185
				c0.892,2.395,2.192,4.619,3.841,6.57c-2.017,0.812-4.178,1.208-6.354,1.165c-1.359,0-2.463,1.102-2.463,2.461
				c0,1.362,1.104,2.465,2.463,2.465c3.647,0.07,7.244-0.868,10.393-2.71c2.032,1.239,4.293,2.049,6.649,2.38
				c-0.218,0.859-0.327,1.741-0.327,2.627v1.641L32.797,42.449z M95.19,65.763c0.013,1.271-0.379,2.514-1.117,3.547
				c-0.097,0.138-0.181,0.287-0.246,0.443c-1.938,3.678-9.211,9.277-14.776,13.135c1.099-4.236,1.64-7.799,1.64-8.03
				c0.111-0.704-0.091-1.425-0.558-1.969c-0.462-0.548-1.138-0.871-1.854-0.887H49.02c-3.447,0-6.246-2.791-6.255-6.239V40.906
				c0.009-3.452,2.805-6.249,6.255-6.257h39.833c3.449,0.008,6.246,2.805,6.256,6.257L95.19,65.763z M77.834,56.635L77.834,56.635
				l-6.564-16.42c-0.037-0.092-0.081-0.18-0.133-0.262l-0.099-0.165c-0.047-0.078-0.102-0.15-0.164-0.214l-0.132-0.164l-0.182-0.147
				l-0.195-0.099c-0.056-0.043-0.116-0.076-0.182-0.098l-0.246-0.132c-0.06-0.009-0.121-0.009-0.18,0l-0.248-0.082h-0.245h-0.231
				h-0.261h-0.214l-0.279,0.082c-0.055-0.007-0.109-0.007-0.164,0l-0.246,0.132l-0.247,0.098c-0.064,0.044-0.124,0.095-0.18,0.147
				l-0.182,0.148l-0.149,0.166c-0.056,0.066-0.113,0.138-0.161,0.211v0.166l-0.149,0.263l-6.567,16.418l-3.282,8.21
				c-0.546,1.246,0.026,2.697,1.272,3.24c0.036,0.016,0.072,0.029,0.105,0.042c0.29,0.127,0.604,0.189,0.919,0.182
				c1.005-0.006,1.905-0.616,2.283-1.544l2.657-6.665h9.854l2.66,6.665c0.383,0.931,1.291,1.54,2.298,1.544
				c0.31,0.003,0.619-0.059,0.904-0.182c1.269-0.485,1.906-1.907,1.422-3.18c-0.014-0.034-0.028-0.069-0.044-0.103L77.834,56.635z
				M66.062,55.123l2.939-7.323l2.923,7.323H66.062z"/>
  </g>
</svg>
