<?xml version="1.0"?>
<svg xmlns="http://www.w3.org/2000/svg" viewBox="0 0 36 36" fill="none">
  <path fill-rule="evenodd" clip-rule="evenodd" d="M32.62 9.14C32.62 9.14 28.5 5 18 5C7.5 5 3.38 9.14 3.38 9.14C3.38 9.14 0 20.56 0 25.2C0 28.68 5 31 5 31L11 25H25L31 31C31 31 36 28.68 36 25.2C36 20.56 32.62 9.14 32.62 9.14ZM10 18.55C9.30777 18.55 8.63108 18.3447 8.0555 17.9601C7.47993 17.5756 7.03133 17.0289 6.76642 16.3894C6.50151 15.7499 6.4322 15.0461 6.56725 14.3672C6.7023 13.6883 7.03564 13.0646 7.52513 12.5751C8.01461 12.0856 8.63825 11.7523 9.31718 11.6173C9.99612 11.4822 10.6999 11.5515 11.3394 11.8164C11.9789 12.0813 12.5256 12.5299 12.9101 13.1055C13.2947 13.6811 13.5 14.3578 13.5 15.05C13.5 15.9783 13.1313 16.8685 12.4749 17.5249C11.8185 18.1813 10.9283 18.55 10 18.55ZM26 18.55C25.3078 18.55 24.6311 18.3447 24.0555 17.9601C23.4799 17.5756 23.0313 17.0289 22.7664 16.3894C22.5015 15.7499 22.4322 15.0461 22.5673 14.3672C22.7023 13.6883 23.0356 13.0646 23.5251 12.5751C24.0146 12.0856 24.6383 11.7523 25.3172 11.6173C25.9961 11.4822 26.6999 11.5515 27.3394 11.8164C27.9789 12.0813 28.5256 12.5299 28.9101 13.1055C29.2947 13.6811 29.5 14.3578 29.5 15.05C29.5 15.5096 29.4095 15.9648 29.2336 16.3894C29.0577 16.814 28.7999 17.1999 28.4749 17.5249C28.1499 17.8499 27.764 18.1077 27.3394 18.2836C26.9148 18.4595 26.4596 18.55 26 18.55Z" fill="currentColor"/>
</svg>
