<?xml version="1.0"?>
<svg version="1.1" id="Layer_3" xmlns="http://www.w3.org/2000/svg" x="0px" y="0px" viewBox="0 0 256 256">
  <g id="g4768_2_" transform="translate(-6.9308024,-10)">
    <g id="g4763_2_"/>
  </g>
  <path d="M235.4,158.1c-14.6-33.7-46.9-69.7-49.3-80.3c-2-6.4-2.3-32.5-16.5-52.3c-11.8-13.8-25.2-23.1-42.7-23.1 c-17.4,0-32.5,8.7-43,23.1C69.7,45.2,69.4,70,67.4,77.8c-0.9,9.9-33.1,43.8-48,77.5c-6.8,15.3-11.1,27.4-9.3,30.6 c4.4,4,5.4-1.5,31.1-8.4c0.2,26.2,8.7,76,84.8,76c0.3,0,0.5,0,0.7,0c0.3,0,0.5,0,0.7,0c77.4,0,85.6-59.8,84.8-77.4 c-0.1-2.6,28,15.6,31.1,9.8C245.1,182.8,241.4,172,235.4,158.1z M182,213.8c-4.9,8.9-16.4,24.1-52.6,24.6c-0.9,0-1.7,0-2.6,0 c-0.9,0-1.7,0-2.6,0c-36.2-0.5-47.7-15.7-52.6-24.6c-15.9-28.5,0.1-83.4,10.1-109.2c5.7-14.7,12.9-23.5,22.1-28.3 c5.8,9.9,19.4,21.6,23.7,21.6c4.5,0,17.2-11,23.2-20.7c9,5.4,15.9,14.5,21.2,27.4C181,126.7,197.8,185.3,182,213.8z"/>
</svg>
