<?xml version="1.0"?>
<svg xmlns="http://www.w3.org/2000/svg" width="1003" height="631" viewBox="0 0 1003 631" fill="none">
  <path stroke="currentColor" d="M793.999 2C826.311 2 844.546 10.5581 851.561 22.0897L856.911 30.8839L825.235 22.0897H760.883L731.087 30.8839L736.437 22.0897C743.451 10.5581 761.687 2 793.999 2Z" stroke-width="4"/>
  <path stroke="currentColor" d="M205.924 2C238.236 2 256.472 10.5581 263.487 22.0897L268.836 30.8839L238.646 22.0897H178.749L143.013 30.8839L148.362 22.0897C155.377 10.5581 173.613 2 205.924 2Z" stroke-width="4"/>
  <path stroke="currentColor" opacity="0.5" fill-rule="evenodd" clip-rule="evenodd" d="M432.744 389.834C432.744 410.105 424.69 429.546 410.354 443.88C396.018 458.214 376.574 466.267 356.299 466.267C336.025 466.267 316.581 458.214 302.245 443.88C287.909 429.546 279.854 410.105 279.854 389.834C279.854 369.563 287.909 350.122 302.245 335.788C316.581 321.454 336.025 313.401 356.299 313.401C376.574 313.401 396.018 321.454 410.354 335.788C424.69 350.122 432.744 369.563 432.744 389.834V389.834Z" stroke-width="4" stroke-linecap="round" stroke-linejoin="round"/>
  <path style="" stroke="black" fill="#4D4D4D" fill-rule="evenodd" clip-rule="evenodd" d="M416.85 390.09C416.85 406.107 410.487 421.467 399.162 432.793C387.836 444.119 372.475 450.481 356.458 450.481C340.442 450.481 325.081 444.119 313.755 432.793C302.43 421.467 296.067 406.107 296.067 390.09C296.067 374.073 302.43 358.712 313.755 347.387C325.081 336.061 340.442 329.698 356.458 329.698C372.475 329.698 387.836 336.061 399.162 347.387C410.487 358.712 416.85 374.073 416.85 390.09V390.09Z" stroke-linecap="round" stroke-linejoin="round"/>
  <path stroke="currentColor" opacity="0.5" fill-rule="evenodd" clip-rule="evenodd" d="M721.296 389.834C721.296 410.105 713.242 429.546 698.906 443.88C684.57 458.214 665.126 466.267 644.852 466.267C624.577 466.267 605.133 458.214 590.797 443.88C576.461 429.546 568.407 410.105 568.407 389.834C568.407 369.563 576.461 350.122 590.797 335.788C605.133 321.454 624.577 313.401 644.852 313.401C665.126 313.401 684.57 321.454 698.906 335.788C713.242 350.122 721.296 369.563 721.296 389.834Z" stroke-width="4" stroke-linecap="round" stroke-linejoin="round"/>
  <path style="" stroke="black" fill="#4D4D4D" fill-rule="evenodd" clip-rule="evenodd" d="M704.947 390.09C704.947 406.107 698.584 421.467 687.259 432.793C675.933 444.119 660.572 450.481 644.556 450.481C628.539 450.481 613.178 444.119 601.852 432.793C590.527 421.467 584.164 406.107 584.164 390.09C584.164 374.073 590.527 358.712 601.852 347.387C613.178 336.061 628.539 329.698 644.556 329.698C660.572 329.698 675.933 336.061 687.259 347.387C698.584 358.712 704.947 374.073 704.947 390.09Z" stroke-linecap="round" stroke-linejoin="round"/>
  <path stroke="currentColor" d="M427.899 240.217H392.906C389.339 240.217 386.446 243.109 386.446 246.676V261.209C386.446 264.776 389.339 267.668 392.906 267.668H427.899C431.467 267.668 434.359 264.776 434.359 261.209V246.676C434.359 243.109 431.467 240.217 427.899 240.217Z" stroke-width="4" stroke-linecap="round" stroke-linejoin="round"/>
  <path stroke="currentColor" fill-rule="evenodd" clip-rule="evenodd" d="M607.705 253.943L572.713 267.668C569.381 268.975 566.253 264.788 566.253 261.209V246.676C566.253 243.098 569.381 238.91 572.713 240.217L607.705 253.943Z" stroke-width="4" stroke-linecap="round" stroke-linejoin="round"/>
  <path stroke="currentColor" fill-rule="evenodd" clip-rule="evenodd" d="M534.676 328.71C534.676 337.375 531.234 345.685 525.105 351.812C518.977 357.94 510.665 361.382 501.999 361.382C493.332 361.382 485.02 357.94 478.892 351.812C472.764 345.685 469.321 337.375 469.321 328.71C469.321 320.044 472.764 311.734 478.892 305.607C485.02 299.479 493.332 296.037 501.999 296.037C510.665 296.037 518.977 299.479 525.105 305.607C531.234 311.734 534.676 320.044 534.676 328.71V328.71Z" stroke-width="4" stroke-linecap="round" stroke-linejoin="round"/>
  <path fill="currentColor" d="M455.354 389.833L451.354 389.833L455.354 389.833ZM426.342 459.864L423.513 457.036L423.513 457.036L426.342 459.864ZM356.299 488.872L356.299 492.872L356.299 488.872ZM286.256 459.864L289.085 457.036L289.085 457.036L286.256 459.864ZM286.256 319.801L289.085 322.63L289.085 322.63L286.256 319.801ZM535.252 106.693V102.693C533.854 102.693 532.557 103.423 531.832 104.619L535.252 106.693ZM465.37 106.693L468.784 104.61C468.058 103.419 466.764 102.693 465.37 102.693V106.693ZM6.37567 513.632L2.44662 512.882L2.44662 512.882L6.37567 513.632ZM199.103 576.07L195.595 574.147L195.595 574.147L199.103 576.07ZM278.778 45.8978L282.705 45.1376L282.705 45.1376L278.778 45.8978ZM133.963 45.8978L130.036 45.1376L130.036 45.1376L133.963 45.8978ZM362.759 238.044L358.759 238.044L362.759 238.044ZM206.64 394.139L206.64 398.139L206.64 394.139ZM96.2463 127.668L93.4181 124.84L96.2463 127.668ZM317.033 127.668L314.205 130.497L317.033 127.668ZM865.034 45.8978L868.961 45.1376L868.961 45.1376L865.034 45.8978ZM720.219 45.8978L716.292 45.1376L716.292 45.1376L720.219 45.8978ZM997.514 513.632L1001.44 512.854L1001.44 512.854L997.514 513.632ZM804.787 576.07L808.295 574.147L808.295 574.147L804.787 576.07ZM641.13 238.044H645.13H641.13ZM797.25 394.139V398.139V394.139ZM907.643 127.668L904.815 130.497L904.815 130.497L907.643 127.668ZM686.857 127.668L684.029 124.84L684.029 124.84L686.857 127.668ZM743.907 389.833L739.907 389.833L743.907 389.833ZM714.894 459.864L717.723 462.693L714.894 459.864ZM644.852 488.872V492.872V488.872ZM574.809 459.864L577.637 457.036L577.637 457.036L574.809 459.864ZM714.894 319.801L712.066 322.63L712.066 322.63L714.894 319.801ZM288.332 105.024L286.239 108.433L288.332 105.024ZM290.99 106.693L288.829 110.059L288.829 110.059L290.99 106.693ZM735.08 430.703L738.723 432.353L735.08 430.703ZM732.177 436.582L728.651 434.694L732.177 436.582ZM764.188 390.599L765.035 386.69L764.188 390.599ZM874.156 102.202L872.186 105.683L872.186 105.683L874.156 102.202ZM712.9 106.693L715.061 110.059L715.061 110.059L712.9 106.693ZM266.071 430.703L269.715 429.052L269.715 429.052L266.071 430.703ZM259.867 367.191L255.973 366.277L259.867 367.191ZM423.513 457.036C405.687 474.859 381.509 484.872 356.299 484.872L356.299 492.872C383.631 492.872 409.843 482.016 429.17 462.693L423.513 457.036ZM356.299 484.872C331.089 484.872 306.911 474.859 289.085 457.036L283.428 462.693C302.755 482.016 328.967 492.872 356.299 492.872L356.299 484.872ZM356.299 294.793C381.509 294.793 405.687 304.807 423.513 322.63L429.17 316.973C409.843 297.649 383.631 286.793 356.299 286.793V294.793ZM423.513 322.63C441.34 340.453 451.354 364.627 451.354 389.833H459.354C459.354 362.505 448.497 336.296 429.17 316.973L423.513 322.63ZM531.832 104.619C531.423 105.293 530.626 105.781 529.718 105.781V113.781C533.469 113.781 536.838 111.792 538.672 108.767L531.832 104.619ZM529.718 105.781H470.775V113.781H529.718V105.781ZM470.775 105.781C469.97 105.781 469.248 105.37 468.784 104.61L461.955 108.777C463.738 111.698 466.933 113.781 470.775 113.781V105.781ZM51.5434 198.296C40.2236 260.275 30.7124 324.465 22.6492 380.384C14.576 436.373 7.97133 483.941 2.44662 512.882L10.3047 514.382C15.8739 485.208 22.5154 437.367 30.5673 381.526C38.6294 325.615 48.1225 261.553 59.4132 199.733L51.5434 198.296ZM2.44662 512.882C-6.74177 561.015 28.8767 604.445 73.0558 622.249C95.2916 631.209 120.121 633.911 143.251 627.426C166.469 620.917 187.675 605.229 202.61 577.993L195.595 574.147C181.647 599.583 162.145 613.821 141.092 619.723C119.951 625.65 96.9462 623.251 76.046 614.828C33.9532 597.866 2.0919 557.405 10.3047 514.382L2.44662 512.882ZM282.705 45.1376C280.659 34.5714 270.842 27.5548 257.878 23.1997C244.686 18.7676 226.909 16.5996 206.37 16.5996V24.5996C226.477 24.5996 243.289 26.7377 255.331 30.7832C267.602 34.9057 273.666 40.5382 274.85 46.658L282.705 45.1376ZM206.37 16.5996C185.832 16.5996 168.055 18.7676 154.862 23.1997C141.899 27.5548 132.081 34.5714 130.036 45.1376L137.89 46.658C139.075 40.5382 145.139 34.9057 157.41 30.7832C169.452 26.7377 186.264 24.5996 206.37 24.5996V16.5996ZM206.64 390.139C166.295 390.139 127.602 374.114 99.0745 345.591L93.4181 351.248C123.446 381.272 164.173 398.139 206.64 398.139L206.64 390.139ZM99.0745 345.591C70.5465 317.068 54.5198 278.382 54.5198 238.044H46.5198C46.5198 280.504 63.3897 321.225 93.4181 351.248L99.0745 345.591ZM54.5198 238.044C54.5198 197.706 70.5465 159.02 99.0745 130.497L93.4181 124.84C63.3897 154.863 46.5198 195.584 46.5198 238.044H54.5198ZM314.205 130.497C342.733 159.02 358.759 197.706 358.759 238.044H366.759C366.759 195.584 349.889 154.863 319.861 124.84L314.205 130.497ZM868.961 45.1376C866.916 34.5714 857.098 27.5548 844.135 23.1997C830.942 18.7676 813.165 16.5996 792.627 16.5996V24.5996C812.733 24.5996 829.545 26.7377 841.587 30.7832C853.858 34.9057 859.922 40.5382 861.107 46.658L868.961 45.1376ZM792.627 16.5996C772.088 16.5996 754.311 18.7676 741.119 23.1997C728.155 27.5548 718.338 34.5714 716.292 45.1376L724.146 46.658C725.331 40.5382 731.395 34.9057 743.666 30.7832C755.708 26.7377 772.52 24.5996 792.627 24.5996V16.5996ZM944.348 199.238C955.638 261.056 965.163 325.777 973.258 382.084C981.341 438.311 988.017 486.294 993.591 514.41L1001.44 512.854C995.918 485.008 989.283 437.335 981.177 380.946C973.081 324.637 963.538 259.782 952.218 197.801L944.348 199.238ZM993.591 514.41C1002.1 557.346 970.269 597.799 928.087 614.781C907.145 623.212 884.078 625.624 862.885 619.705C841.78 613.81 822.241 599.579 808.295 574.147L801.28 577.993C816.217 605.233 837.466 620.912 860.733 627.41C883.912 633.883 908.8 631.17 931.075 622.202C975.326 604.387 1010.97 560.949 1001.44 512.854L993.591 514.41ZM797.25 398.139C839.716 398.139 880.443 381.272 910.472 351.248L904.815 345.591C876.287 374.114 837.595 390.139 797.25 390.139V398.139ZM910.472 351.248C940.5 321.225 957.37 280.504 957.37 238.044H949.37C949.37 278.382 933.343 317.068 904.815 345.591L910.472 351.248ZM957.37 238.044C957.37 195.584 940.5 154.863 910.472 124.84L904.815 130.497C933.343 159.02 949.37 197.706 949.37 238.044H957.37ZM684.029 124.84C654 154.863 637.13 195.584 637.13 238.044H645.13C645.13 197.706 661.157 159.02 689.685 130.497L684.029 124.84ZM712.066 457.036C694.24 474.859 670.062 484.872 644.852 484.872V492.872C672.183 492.872 698.396 482.016 717.723 462.693L712.066 457.036ZM644.852 484.872C619.641 484.872 595.463 474.859 577.637 457.036L571.981 462.693C591.307 482.016 617.52 492.872 644.852 492.872V484.872ZM549.796 389.833C549.796 364.627 559.811 340.453 577.637 322.63L571.981 316.973C552.654 336.296 541.796 362.505 541.796 389.833H549.796ZM577.637 322.63C595.463 304.807 619.641 294.793 644.852 294.793V286.793C617.52 286.793 591.307 297.649 571.981 316.973L577.637 322.63ZM99.0745 130.497C107.407 122.166 116.606 114.901 126.461 108.791L122.245 101.992C111.872 108.424 102.188 116.071 93.4181 124.84L99.0745 130.497ZM126.461 108.791C150.346 93.9799 178.079 85.9493 206.64 85.9493V77.9493C176.577 77.9493 147.385 86.4024 122.245 101.992L126.461 108.791ZM130.036 45.1376C127.447 58.5143 124.861 75.6449 120.399 104.786L128.307 105.997C132.783 76.764 135.339 59.8384 137.89 46.658L130.036 45.1376ZM206.64 85.9493C234.97 85.9493 262.485 93.8507 286.239 108.433L290.425 101.616C265.422 86.2664 236.46 77.9493 206.64 77.9493V85.9493ZM292.286 104.419C287.858 75.5014 285.283 58.4585 282.705 45.1376L274.85 46.658C277.391 59.7828 279.936 76.6218 284.378 105.63L292.286 104.419ZM286.239 108.433C287.107 108.966 287.971 109.508 288.829 110.059L293.151 103.327C292.247 102.747 291.339 102.177 290.425 101.616L286.239 108.433ZM288.829 110.059C297.926 115.899 306.441 122.735 314.205 130.497L319.861 124.84C311.69 116.67 302.726 109.474 293.151 103.327L288.829 110.059ZM465.37 102.693H290.99V110.693H465.37V102.693ZM202.61 577.993C228.021 531.654 255.419 477.967 273.987 440.969L266.837 437.381C248.282 474.352 220.936 527.936 195.595 574.147L202.61 577.993ZM289.085 457.036C283.112 451.064 278.016 444.379 273.88 437.182L266.944 441.168C271.428 448.971 276.953 456.219 283.428 462.693L289.085 457.036ZM451.354 389.833C451.354 403.491 448.414 416.846 442.884 429.052L450.17 432.353C456.166 419.12 459.354 404.641 459.354 389.833L451.354 389.833ZM442.884 429.052C438.208 439.372 431.68 448.87 423.513 457.036L429.17 462.693C438.024 453.84 445.101 443.542 450.17 432.353L442.884 429.052ZM446.527 434.703H554.624V426.703H446.527V434.703ZM577.637 457.036C569.47 448.87 562.943 439.372 558.267 429.052L550.98 432.353C556.05 443.542 563.127 453.84 571.981 462.693L577.637 457.036ZM558.267 429.052C552.737 416.846 549.796 403.491 549.796 389.833H541.796C541.796 404.641 544.984 419.12 550.98 432.353L558.267 429.052ZM739.907 389.833C739.907 403.491 736.967 416.846 731.436 429.052L738.723 432.353C744.719 419.12 747.907 404.641 747.907 389.833L739.907 389.833ZM731.436 429.052C730.571 430.962 729.642 432.843 728.651 434.694L735.704 438.47C736.778 436.464 737.785 434.424 738.723 432.353L731.436 429.052ZM728.651 434.694C724.288 442.842 718.722 450.381 712.066 457.036L717.723 462.693C724.938 455.479 730.973 447.304 735.704 438.47L728.651 434.694ZM808.295 574.147C782.355 526.844 754.315 471.816 735.753 434.79L728.602 438.375C747.176 475.427 775.269 530.559 801.28 577.993L808.295 574.147ZM763.341 394.508C774.399 396.904 785.761 398.139 797.25 398.139V390.139C786.335 390.139 775.54 388.966 765.035 386.69L763.341 394.508ZM910.472 124.84C900.163 114.533 888.594 105.777 876.126 98.7208L872.186 105.683C884.031 112.386 895.022 120.705 904.815 130.497L910.472 124.84ZM876.126 98.7208C852.276 85.2235 825.138 77.9493 797.25 77.9493V85.9493C823.745 85.9493 849.527 92.8599 872.186 105.683L876.126 98.7208ZM878.11 101.597C873.945 74.3847 871.455 58.0222 868.961 45.1376L861.107 46.658C863.563 59.3482 866.024 75.515 870.202 102.807L878.11 101.597ZM797.25 77.9493C766.34 77.9493 736.351 86.8856 710.739 103.327L715.061 110.059C739.394 94.439 767.884 85.9493 797.25 85.9493V77.9493ZM710.739 103.327C709.786 103.939 708.839 104.561 707.899 105.193L712.363 111.832C713.256 111.231 714.156 110.64 715.061 110.059L710.739 103.327ZM707.899 105.193C699.387 110.916 691.387 117.483 684.029 124.84L689.685 130.497C696.676 123.507 704.277 117.269 712.363 111.832L707.899 105.193ZM716.292 45.1376C713.665 58.7108 711.041 76.1511 706.456 106.087L714.363 107.299C718.964 77.2658 721.557 60.0343 724.146 46.658L716.292 45.1376ZM706.456 106.087C706.363 106.689 706.271 107.295 706.177 107.907L714.085 109.119C714.178 108.507 714.271 107.9 714.363 107.299L706.456 106.087ZM712.9 102.693H710.409V110.693H712.9V102.693ZM710.409 102.693H535.252V110.693H710.409V102.693ZM273.88 437.182C272.361 434.538 270.971 431.824 269.715 429.052L262.428 432.353C263.79 435.359 265.297 438.301 266.944 441.168L273.88 437.182ZM269.715 429.052C264.184 416.846 261.244 403.491 261.244 389.833H253.244C253.244 404.641 256.432 419.12 262.428 432.353L269.715 429.052ZM263.761 368.106C267.773 351.024 276.474 335.238 289.085 322.63L283.428 316.973C269.756 330.642 260.323 347.758 255.973 366.277L263.761 368.106ZM358.759 238.044C358.759 255.747 355.673 273.131 349.797 289.478L357.326 292.184C363.51 274.977 366.759 256.678 366.759 238.044L358.759 238.044ZM289.085 322.63C306.291 305.427 329.414 295.499 353.672 294.83L353.451 286.833C327.152 287.559 302.083 298.321 283.428 316.973L289.085 322.63ZM353.672 294.83C354.546 294.805 355.422 294.793 356.299 294.793V286.793C355.348 286.793 354.399 286.806 353.451 286.833L353.672 294.83ZM261.244 389.833C261.244 388.502 261.272 387.174 261.327 385.849L253.334 385.514C253.274 386.95 253.244 388.39 253.244 389.833H261.244ZM261.327 385.849C261.579 379.835 262.401 373.896 263.761 368.106L255.973 366.277C254.498 372.554 253.608 378.993 253.334 385.514L261.327 385.849ZM256.032 381.898C240.282 387.305 223.607 390.139 206.64 390.139L206.64 398.139C224.499 398.139 242.051 395.155 258.629 389.465L256.032 381.898ZM644.852 294.793C646.623 294.793 648.388 294.843 650.147 294.941L650.593 286.953C648.686 286.847 646.771 286.793 644.852 286.793V294.793ZM650.147 294.941C673.427 296.239 695.492 306.059 712.066 322.63L717.723 316.973C699.753 299.006 675.832 288.36 650.593 286.953L650.147 294.941ZM637.13 238.044C637.13 256.721 640.395 275.061 646.607 292.303L654.133 289.591C648.231 273.211 645.13 255.788 645.13 238.044L637.13 238.044ZM742.404 388.454C749.225 390.941 756.22 392.965 763.341 394.508L765.035 386.69C758.27 385.224 751.624 383.3 745.144 380.938L742.404 388.454ZM712.066 322.63C728.727 339.288 738.564 361.493 739.779 384.903L747.768 384.489C746.451 359.107 735.786 335.033 717.723 316.973L712.066 322.63ZM739.779 384.903C739.864 386.541 739.907 388.185 739.907 389.833H747.907C747.907 388.046 747.861 386.264 747.768 384.489L739.779 384.903Z"/>
  <path stroke="currentColor" d="M233.198 166.282C233.02 162.7 231.433 159.334 228.783 156.918C226.134 154.502 222.636 153.231 219.053 153.383H192.052C190.433 153.308 188.815 153.553 187.291 154.103C185.766 154.653 184.365 155.499 183.167 156.591C181.969 157.683 180.998 159 180.31 160.467C179.621 161.935 179.228 163.523 179.154 165.142V198.12C179.15 199.067 179.349 200.005 179.738 200.869C180.128 201.733 180.698 202.504 181.411 203.128L200.608 220.735C202.116 222.065 204.058 222.799 206.069 222.799C208.079 222.799 210.021 222.065 211.529 220.735L230.726 203.128C231.412 202.488 231.957 201.712 232.327 200.85C232.697 199.988 232.884 199.058 232.876 198.12L233.198 166.282Z" stroke-width="4" stroke-miterlimit="10"/>
  <path stroke="currentColor" d="M233.199 304.941C233.02 308.522 231.433 311.888 228.783 314.304C226.134 316.721 222.636 317.991 219.053 317.839H192.052C188.78 317.985 185.584 316.826 183.166 314.618C180.747 312.409 179.304 309.33 179.154 306.059V273.146C179.148 272.198 179.347 271.26 179.736 270.396C180.126 269.531 180.697 268.761 181.411 268.137L200.608 250.531C202.116 249.201 204.058 248.467 206.069 248.467C208.079 248.467 210.021 249.201 211.529 250.531L230.726 268.137C231.413 268.777 231.959 269.553 232.329 270.415C232.699 271.277 232.886 272.208 232.876 273.146V273.146L233.199 304.941Z" stroke-width="4" stroke-miterlimit="10"/>
  <path stroke="currentColor" d="M135.579 262.698C131.997 262.52 128.631 260.933 126.215 258.283C123.799 255.633 122.528 252.136 122.68 248.553V221.466C122.534 218.194 123.693 214.998 125.902 212.58C128.111 210.161 131.189 208.718 134.461 208.568H167.417C168.356 208.549 169.289 208.731 170.153 209.101C171.017 209.472 171.792 210.023 172.425 210.718L190.032 229.915C191.362 231.423 192.096 233.364 192.096 235.375C192.096 237.386 191.362 239.328 190.032 240.836L172.425 260.033C171.789 260.724 171.014 261.273 170.151 261.643C169.288 262.014 168.356 262.197 167.417 262.183V262.183L135.579 262.698Z" stroke-width="4" stroke-miterlimit="10"/>
  <path stroke="currentColor" d="M274.237 262.698C277.819 262.52 281.185 260.933 283.601 258.283C286.017 255.633 287.288 252.136 287.136 248.553V221.466C287.211 219.847 286.966 218.229 286.416 216.704C285.866 215.18 285.02 213.779 283.928 212.581C282.836 211.383 281.519 210.412 280.052 209.723C278.584 209.035 276.996 208.642 275.377 208.568H242.443C241.503 208.55 240.57 208.732 239.707 209.103C238.843 209.474 238.068 210.024 237.434 210.717L219.827 229.915C218.497 231.423 217.763 233.364 217.763 235.375C217.763 237.386 218.497 239.327 219.827 240.835L237.434 260.033C238.071 260.722 238.847 261.269 239.71 261.639C240.573 262.01 241.504 262.195 242.443 262.182L274.237 262.698Z" stroke-width="4" stroke-miterlimit="10"/>
  <path stroke="currentColor" opacity="0.5" d="M206.198 143.043H192.053L199.125 136.873L206.198 130.703L213.271 136.873L220.343 143.043H206.198Z" stroke-width="4" stroke-miterlimit="10"/>
  <path stroke="currentColor" opacity="0.5" d="M206.198 328.673H192.053L199.125 334.843L206.198 341.012L213.271 334.843L220.343 328.673H206.198Z" stroke-width="4" stroke-miterlimit="10"/>
  <path stroke="currentColor" opacity="0.5" d="M299.024 235.869V221.724L305.194 228.796L311.342 235.869L305.194 242.942L299.024 250.014V235.869Z" stroke-width="4" stroke-miterlimit="10"/>
  <path stroke="currentColor" opacity="0.5" d="M113.372 235.869V221.724L107.202 228.796L101.032 235.869L107.202 242.942L113.372 250.014V235.869Z" stroke-width="4" stroke-miterlimit="10"/>
  <path stroke="currentColor" d="M797.546 196.146C814.797 196.146 828.782 182.161 828.782 164.91C828.782 147.659 814.797 133.674 797.546 133.674C780.295 133.674 766.31 147.659 766.31 164.91C766.31 182.161 780.295 196.146 797.546 196.146Z" stroke-width="4" stroke-miterlimit="10"/>
  <path stroke="currentColor" d="M725.292 269.193C742.544 269.193 756.528 255.209 756.528 237.958C756.528 220.706 742.544 206.722 725.292 206.722C708.041 206.722 694.057 220.706 694.057 237.958C694.057 255.209 708.041 269.193 725.292 269.193Z" stroke-width="4" stroke-miterlimit="10"/>
  <path stroke="currentColor" d="M869.928 269.193C887.179 269.193 901.164 255.209 901.164 237.958C901.164 220.706 887.179 206.722 869.928 206.722C852.677 206.722 838.692 220.706 838.692 237.958C838.692 255.209 852.677 269.193 869.928 269.193Z" stroke-width="4" stroke-miterlimit="10"/>
  <path stroke="currentColor" d="M797.546 342.716C814.797 342.716 828.782 328.731 828.782 311.48C828.782 294.229 814.797 280.244 797.546 280.244C780.295 280.244 766.31 294.229 766.31 311.48C766.31 328.731 780.295 342.716 797.546 342.716Z" stroke-width="4" stroke-miterlimit="10"/>
  <path stroke="#3CCAD0" d="M797.299 177.726H817.089L807.194 160.59L797.299 143.434L787.404 160.59L777.488 177.726H797.299Z" stroke-width="3" stroke-miterlimit="10"/>
  <path stroke="#D6B4D7" d="M742.618 220.633H707.967V255.284H742.618V220.633Z" stroke-width="3" stroke-miterlimit="10"/>
  <path stroke="#ED838F" d="M869.927 257.758C880.863 257.758 889.728 248.893 889.728 237.958C889.728 227.022 880.863 218.157 869.927 218.157C858.992 218.157 850.127 227.022 850.127 237.958C850.127 248.893 858.992 257.758 869.927 257.758Z" stroke-width="3" stroke-miterlimit="10"/>
  <path fill="#97AFDD" d="M815.684 295.09L813.935 293.341L797.556 309.74L781.157 293.341L779.408 295.09L795.807 311.489L779.408 327.867L781.157 329.616L797.556 313.217L813.935 329.616L815.684 327.867L799.285 311.489L815.684 295.09Z"/>
</svg>
