<?xml version="1.0"?>
<svg xmlns="http://www.w3.org/2000/svg" viewBox="0 0 36 36" fill="none">
  <path fill="currentColor" d="M6.68629 7C3.79086 9.89543 2 13.8954 2 18.3137C2 22.732 3.79086 26.732 6.68629 29.6274L9.51472 26.799C7.34315 24.6274 6 21.6274 6 18.3137C6 15 7.34315 12 9.51472 9.82843L6.68629 7Z"/>
  <path fill="currentColor" d="M26.4853 9.82843L29.3137 7C32.2091 9.89543 34 13.8954 34 18.3137C34 22.732 32.2091 26.732 29.3137 29.6274L26.4853 26.799C28.6569 24.6274 30 21.6274 30 18.3137C30 15 28.6569 12 26.4853 9.82843Z"/>
  <circle fill="currentColor" cx="18" cy="18" r="2"/>
  <path fill="currentColor" d="M17.8891 9.04865C15.6603 9.10326 13.4479 9.98104 11.7469 11.682C9.93317 13.4958 9.05539 15.8911 9.11363 18.2678L13.1158 18.2678C13.0561 16.9153 13.5426 15.5431 14.5754 14.5104C15.4953 13.5905 16.6844 13.104 17.8891 13.0508V9.04865Z"/>
  <path fill="currentColor" d="M23.106 18.2678L27.1082 18.2678C27.0536 20.4966 26.1758 22.709 24.4749 24.4099C22.6611 26.2237 20.2657 27.1015 17.8891 27.0432V23.041C19.2416 23.1007 20.6137 22.6142 21.6464 21.5815C22.5663 20.6616 23.0528 19.4725 23.106 18.2678Z"/>
</svg>
