<?xml version="1.0"?>
<svg xmlns="http://www.w3.org/2000/svg" version="1.1" x="0px" y="0px" viewBox="0 0 100 100">
  <g transform="translate(0,-952.36218)">
    <path d="m 40.99855,964.36216 c -15.9798,0 -28.9986,13.01864 -28.9986,28.99862 0,15.97992 13.0188,28.99862 28.9986,28.99862 6.9189,0 13.2881,-2.4349 18.2803,-6.4997 l 23.5927,23.6239 c 1.1714,1.1714 3.0784,1.1715 4.2498,0 1.1716,-1.1715 1.1716,-3.0783 0,-4.2498 l -23.6239,-23.5926 c 4.0649,-4.9923 6.4997,-11.3615 6.4997,-18.28042 0,-15.97998 -13.0187,-28.99862 -28.9986,-28.99862 z m 0,5.99972 c 12.7374,0 22.9989,10.26145 22.9989,22.9989 0,12.73732 -10.2615,22.99892 -22.9989,22.99892 -12.7374,0 -22.9989,-10.2616 -22.9989,-22.99892 0,-12.73745 10.2615,-22.9989 22.9989,-22.9989 z" fill="currentColor" fill-opacity="1" stroke="none" visibility="visible" display="inline" overflow="visible"/>
  </g>
</svg>
