<?xml version="1.0"?>
<svg viewBox="0 0 36 36" fill="none" xmlns="http://www.w3.org/2000/svg">
  <g clip-path="">
    <path fill="currentColor" d="M25.3865 5.11825C26.755 4.90005 28.1094 4.97923 29.4236 5.39462C30.4285 5.71216 31.3614 6.19989 32.1726 6.89462C32.3276 7.02768 32.4119 7.17257 32.408 7.37704C32.4056 7.49827 32.4255 7.61963 32.4314 7.69345C32.5721 7.80286 32.6969 7.87505 32.7898 7.97567C33.7307 8.99583 34.2022 10.2489 34.5398 11.5626C34.9787 13.2716 35.2054 15.0185 35.4158 16.7657C35.5919 18.2301 35.751 19.6978 35.8796 21.1671C36.0269 22.851 36.0917 24.5378 35.7634 26.212C35.5761 27.1675 35.2593 28.0684 34.5789 28.7999C33.9668 29.458 33.1821 29.8296 32.3533 30.1241C31.7359 30.3438 31.5771 30.317 31.2107 29.7599C30.651 28.9095 30.1303 28.0326 29.5935 27.1671C28.9629 26.149 28.3487 25.1202 27.6961 24.1163C27.2547 23.4372 26.6937 22.8717 25.8972 22.6016C25.2789 22.3918 24.6367 22.3551 23.991 22.3556C19.8645 22.3575 15.7376 22.3624 11.6111 22.3614C10.178 22.3614 9.04967 22.9302 8.28492 24.1524C7.43808 25.5056 6.61368 26.8734 5.77515 28.2325C5.46691 28.7316 5.1469 29.2242 4.82887 29.7169C4.76726 29.8121 4.68876 29.8965 4.61695 29.9845C4.40805 30.2398 4.16884 30.3079 3.84058 30.1925C2.86063 29.848 1.9303 29.4329 1.25465 28.5997C0.678281 27.8888 0.403921 27.0492 0.233162 26.169C-0.034456 24.7888 -0.0493176 23.3911 0.0759357 22.0011C0.277018 19.7696 0.510949 17.5401 0.783944 15.3165C0.992378 13.6187 1.26467 11.9263 1.85328 10.3067C2.16201 9.45791 2.57326 8.66447 3.19508 7.99716C3.29517 7.88989 3.42374 7.80944 3.57496 7.68954C3.49832 7.16883 3.8053 6.87846 4.18922 6.60555C6.15956 5.20425 8.33914 4.74637 10.7107 5.12997C11.05 5.18473 11.0504 5.18936 11.4265 5.58016C11.5389 5.56107 11.6476 5.52694 11.7566 5.52645C14.8635 5.51177 17.97 5.49081 21.0769 5.49227C22.2174 5.49277 23.3574 5.5474 24.4978 5.57235C24.5492 5.57333 24.6169 5.53872 24.6502 5.49813C24.842 5.26328 25.09 5.16571 25.3865 5.11825ZM12.2996 14.6524C12.1182 14.6524 11.9696 14.8002 11.9695 14.9815V16.6192C11.9695 16.7005 11.9009 16.7683 11.8181 16.7686H10.1697C9.98837 16.7687 9.8397 16.9165 9.83961 17.0977V18.586C9.83976 18.7673 9.98841 18.914 10.1697 18.9141H11.8181C11.9008 18.9145 11.9693 18.9825 11.9695 19.0636V20.7022C11.9696 20.8836 12.1182 21.0304 12.2996 21.0304H13.7976C13.9786 21.0298 14.1276 20.8832 14.1277 20.7022V19.0636C14.1279 18.9823 14.1952 18.9142 14.2781 18.9141H15.9265C16.1076 18.9138 16.2564 18.7671 16.2566 18.586V17.0977C16.2565 16.9175 16.1094 16.7704 15.9295 16.7686L15.9246 16.7667H14.2761C14.193 16.7667 14.1277 16.7007 14.1277 16.6192V14.9815C14.1276 14.8005 13.9786 14.653 13.7976 14.6524H12.2996ZM22.9158 15.9591C21.8797 15.9591 21.0382 16.7996 21.0378 17.835C21.0379 18.8707 21.8795 19.711 22.9158 19.711C23.9516 19.7105 24.7927 18.8704 24.7927 17.835C24.7924 16.7999 23.9514 15.9596 22.9158 15.9591ZM28.3132 13.3809C27.6194 13.3809 27.0564 13.9433 27.0564 14.6368C27.0564 15.3303 27.6194 15.8927 28.3132 15.8927C29.0066 15.8922 29.5691 15.3299 29.5691 14.6368C29.5691 13.9436 29.0066 13.3814 28.3132 13.3809ZM7.63648 10.2296C6.60034 10.2296 5.75873 11.07 5.75855 12.1056C5.75883 13.141 6.6004 13.9815 7.63648 13.9815C8.67212 13.981 9.51316 13.1407 9.51344 12.1056C9.51326 11.0703 8.67218 10.2301 7.63648 10.2296ZM25.7566 10.8233C25.0622 10.8233 24.4999 11.3851 24.4998 12.0792C24.4998 12.7733 25.0621 13.335 25.7566 13.335C26.4507 13.3346 27.0124 12.773 27.0125 12.0792C27.0124 11.3854 26.4507 10.8238 25.7566 10.8233ZM30.8826 10.8233C30.1888 10.8233 29.6258 11.3858 29.6257 12.0792C29.6258 12.7726 30.1888 13.335 30.8826 13.335C31.5761 13.3347 32.1384 12.7724 32.1384 12.0792C32.1383 11.386 31.576 10.8237 30.8826 10.8233ZM28.3289 8.26376C27.635 8.26376 27.072 8.82614 27.072 9.51962C27.0722 10.2129 27.6352 10.7755 28.3289 10.7755C29.0221 10.775 29.5845 10.2126 29.5847 9.51962C29.5847 8.82643 29.0223 8.26424 28.3289 8.26376Z"/>
  </g>
  <defs>
    <clipPath id="">
      <rect fill="currentColor" width="36" height="36"/>
    </clipPath>
  </defs>
</svg>
