<?xml version="1.0"?>
<svg xmlns="http://www.w3.org/2000/svg" viewBox="0 0 36 36" fill="none">
  <path fill-rule="evenodd" clip-rule="evenodd" d="M2 5V24H11L16 30L21 24H21.08V22C21.0761 20.8261 21.3039 19.6629 21.7504 18.5772C22.1969 17.4916 22.8533 16.5047 23.682 15.6732C24.5107 14.8417 25.4953 14.182 26.5795 13.7319C27.6637 13.2817 28.8261 13.05 30 13.05V5H2ZM18.91 15.07L19.58 19L16.06 17.15L12.53 19L13.21 15.07L10.35 12.29L14.35 11.72L16.11 8.15L17.87 11.72L21.81 12.29L18.91 15.07ZM30 35C29.6044 35 29.2178 34.8827 28.8889 34.6629C28.56 34.4432 28.3036 34.1308 28.1522 33.7654C28.0009 33.3999 27.9613 32.9978 28.0384 32.6098C28.1156 32.2219 28.3061 31.8655 28.5858 31.5858C28.8655 31.3061 29.2219 31.1156 29.6098 31.0384C29.9978 30.9613 30.3999 31.0009 30.7654 31.1522C31.1308 31.3036 31.4432 31.56 31.6629 31.8889C31.8827 32.2178 32 32.6044 32 33C32 33.5304 31.7893 34.0391 31.4142 34.4142C31.0391 34.7893 30.5304 35 30 35ZM32.52 26.17C32.2967 26.293 32.1092 26.472 31.9759 26.6894C31.8427 26.9068 31.7683 27.1551 31.76 27.41V28.5H28.23V27.41C28.2332 26.5459 28.4629 25.6978 28.8964 24.9503C29.3298 24.2028 29.9517 23.582 30.7 23.15C30.8996 23.0303 31.0657 22.8622 31.1828 22.6611C31.2999 22.46 31.3643 22.2326 31.37 22C31.3728 21.6302 31.2313 21.2738 30.9754 21.0068C30.7196 20.7397 30.3696 20.583 30 20.57C29.814 20.5699 29.63 20.6072 29.4587 20.6795C29.2874 20.7518 29.1323 20.8578 29.0027 20.9912C28.8731 21.1245 28.7716 21.2825 28.7041 21.4558C28.6366 21.6291 28.6046 21.8141 28.61 22H25.08C25.0793 21.1411 25.3039 20.2971 25.7314 19.5522C26.1588 18.8073 26.7742 18.1875 27.5161 17.7548C28.258 17.3221 29.1004 17.0915 29.9592 17.0861C30.8181 17.0807 31.6633 17.3007 32.4105 17.7241C33.1578 18.1475 33.7809 18.7595 34.2177 19.499C34.6544 20.2385 34.8896 21.0797 34.8997 21.9385C34.9097 22.7973 34.6944 23.6437 34.275 24.3932C33.8557 25.1428 33.2471 25.7692 32.51 26.21L32.52 26.17Z" fill="currentColor"/>
</svg>
