<?xml version="1.0"?>
<svg width="36" height="36" viewBox="0 0 36 36" fill="none" xmlns="http://www.w3.org/2000/svg">
  <path d="M8.22 33.93C9.00446 33.7747 9.71061 33.3517 10.2177 32.7334C10.7248 32.115 11.0013 31.3397 11 30.54V25H28V4H4V30.83C4.00192 31.3 4.11422 31.7629 4.32787 32.1815C4.54152 32.6002 4.85053 32.9627 5.23 33.24C5.65215 33.5582 6.13651 33.7841 6.65162 33.903C7.16674 34.0218 7.7011 34.0311 8.22 33.93Z" fill="currentColor"/>
  <path d="M14 30.54C13.9892 31.7631 13.6434 32.9598 13 34H30.7C33.42 34 34 32 34 30.25V28H14V30.54Z" fill="currentColor"/>
</svg>
