<?xml version="1.0"?>
<svg xmlns="http://www.w3.org/2000/svg" width="24" height="24" viewBox="0 0 107 108">
  <defs/>
  <path fill-rule="evenodd" clip-rule="evenodd" d="M105.388 67.2088C106.441 62.9818 107 58.5568 107 54C107 24.1766 83.0472 0 53.5 0C23.9528 0 0 24.1766 0 54C0 58.4814 0.540852 62.8354 1.56027 66.9989C13.4899 68.4437 22.7369 78.6942 22.7369 91.1247C22.7369 93.3544 22.4394 95.514 21.8822 97.5653C30.7397 104.125 41.6716 108 53.5 108C65.8328 108 77.191 103.788 86.2395 96.7115C85.8214 94.9177 85.6002 93.0473 85.6002 91.1247C85.6002 79.1811 94.1371 69.25 105.388 67.2088ZM36.8306 24.3121C36.8303 31.0623 42.1083 33.7623 51.0135 33.7623C59.9188 33.7623 73.7722 38.4875 73.7722 52.6626C73.7722 52.6626 66.186 55.3627 66.5155 62.1129C66.6689 65.2564 68.8968 67.6678 71.2671 70.2335C73.9868 73.1775 76.8941 76.3245 77.0705 81.0132C90.9236 71.9007 90.9236 52.6626 90.9236 52.6626C91.9128 24.3121 64.867 14.5245 54.3119 14.5244C43.7568 14.5243 36.8309 17.5618 36.8306 24.3121ZM70.1693 80.3367C70.1696 73.5864 64.8916 70.8865 55.9864 70.8865C47.0812 70.8865 33.2278 66.1613 33.2278 51.9862C33.2278 51.9862 40.814 49.2861 40.4844 42.5358C40.331 39.3924 38.1032 36.9809 35.7329 34.4152C33.0131 31.4713 30.1058 28.3243 29.9294 23.6356C16.0763 32.7481 16.0763 51.9862 16.0763 51.9862C15.0871 80.3367 42.133 90.1243 52.688 90.1244C63.2431 90.1245 70.169 87.087 70.1693 80.3367ZM62.4167 52.5726C62.4167 57.5431 58.4245 61.5726 53.5 61.5726C48.5755 61.5726 44.5833 57.5431 44.5833 52.5726C44.5833 47.602 48.5755 43.5726 53.5 43.5726C58.4245 43.5726 62.4167 47.602 62.4167 52.5726Z" fill=""/>
  <path fill-rule="evenodd" clip-rule="evenodd" d="M105.388 67.2088C106.441 62.9818 107 58.5568 107 54C107 24.1766 83.0472 0 53.5 0C23.9528 0 0 24.1766 0 54C0 58.4814 0.540852 62.8354 1.56027 66.9989C13.4899 68.4437 22.7369 78.6942 22.7369 91.1247C22.7369 93.3544 22.4394 95.514 21.8822 97.5653C30.7397 104.125 41.6716 108 53.5 108C65.8328 108 77.191 103.788 86.2395 96.7115C85.8214 94.9177 85.6002 93.0473 85.6002 91.1247C85.6002 79.1811 94.1371 69.25 105.388 67.2088ZM36.8306 24.3121C36.8303 31.0623 42.1083 33.7623 51.0135 33.7623C59.9188 33.7623 73.7722 38.4875 73.7722 52.6626C73.7722 52.6626 66.186 55.3627 66.5155 62.1129C66.6689 65.2564 68.8968 67.6678 71.2671 70.2335C73.9868 73.1775 76.8941 76.3245 77.0705 81.0132C90.9236 71.9007 90.9236 52.6626 90.9236 52.6626C91.9128 24.3121 64.867 14.5245 54.3119 14.5244C43.7568 14.5243 36.8309 17.5618 36.8306 24.3121ZM70.1693 80.3367C70.1696 73.5864 64.8916 70.8865 55.9864 70.8865C47.0812 70.8865 33.2278 66.1613 33.2278 51.9862C33.2278 51.9862 40.814 49.2861 40.4844 42.5358C40.331 39.3924 38.1032 36.9809 35.7329 34.4152C33.0131 31.4713 30.1058 28.3243 29.9294 23.6356C16.0763 32.7481 16.0763 51.9862 16.0763 51.9862C15.0871 80.3367 42.133 90.1243 52.688 90.1244C63.2431 90.1245 70.169 87.087 70.1693 80.3367ZM62.4167 52.5726C62.4167 57.5431 58.4245 61.5726 53.5 61.5726C48.5755 61.5726 44.5833 57.5431 44.5833 52.5726C44.5833 47.602 48.5755 43.5726 53.5 43.5726C58.4245 43.5726 62.4167 47.602 62.4167 52.5726Z" fill=""/>
</svg>
