<?xml version="1.0"?>
<svg xmlns="http://www.w3.org/2000/svg" viewBox="0 0 36 36" fill="none">
  <path fill="currentColor" fill-rule="evenodd" clip-rule="evenodd" d="M18 24.75C27.9411 24.75 36 19.7132 36 13.5C36 7.2868 27.9411 2.25 18 2.25C8.05887 2.25 0 7.2868 0 13.5C0 19.7132 8.05887 24.75 18 24.75ZM14 19H23V16.7371H16.8149V7H14V19Z"/>
  <path fill="currentColor" d="M11 26V31.601C11 32.926 12.0446 34 13.3333 34H22.6667C23.9554 34 25 32.926 25 31.601V26C22.7984 26.523 20.4394 26.8029 18 26.8029C15.5606 26.8029 13.2016 26.523 11 26Z"/>
</svg>
