<?xml version="1.0"?>
<svg xmlns="http://www.w3.org/2000/svg" viewBox="0 0 36 36" fill="none">
  <g clip-path="">
    <path fill="currentColor" d="M34.5489 14.8979C34.0471 13.107 33.4146 11.3703 32.6633 9.69886C31.5496 7.22244 29.0787 5.63623 26.3628 5.63623H9.539C6.82361 5.63623 4.35214 7.22244 3.23897 9.69886C2.48764 11.3703 1.85526 13.107 1.35345 14.8979C0.452174 18.1113 -0.0302734 21.4994 -0.0302734 25.0005C-0.0302734 25.6495 -0.0136754 26.2952 0.0189672 26.9359C0.121874 28.9492 1.77614 30.5332 3.79169 30.5332C5.15659 30.5332 6.41639 29.7979 7.0836 28.6073C7.09136 28.5929 7.09967 28.5791 7.10742 28.5647C7.86815 27.2191 9.29118 26.3837 10.837 26.3837H25.0637C26.6095 26.3837 28.0325 27.2191 28.7932 28.5647C28.801 28.5785 28.8092 28.5929 28.817 28.6067C29.4843 29.7974 30.744 30.5327 32.1089 30.5327C34.1251 30.5327 35.7788 28.9492 35.8817 26.9353C35.9143 26.294 35.9309 25.649 35.9309 25C35.9309 21.4989 35.4485 18.1107 34.5477 14.8973L34.5489 14.8979ZM25.2634 8.40256C26.0274 8.40256 26.6466 9.02167 26.6466 9.78573C26.6466 10.5498 26.0274 11.1689 25.2634 11.1689C24.4993 11.1689 23.8802 10.5498 23.8802 9.78573C23.8802 9.02167 24.4993 8.40256 25.2634 8.40256ZM26.6466 15.3184C26.6466 16.0825 26.0274 16.7016 25.2634 16.7016C24.4993 16.7016 23.8802 16.0825 23.8802 15.3184C23.8802 14.5544 24.4993 13.9352 25.2634 13.9352C26.0274 13.9352 26.6466 14.5544 26.6466 15.3184ZM10.6383 9.78573C12.1659 9.78573 13.4047 11.0245 13.4047 12.552C13.4047 14.0796 12.1659 15.3184 10.6383 15.3184C9.11076 15.3184 7.87203 14.0796 7.87203 12.552C7.87203 11.0245 9.11076 9.78573 10.6383 9.78573ZM13.6913 19.262L13.0506 23.3059C12.9886 23.6982 12.6202 23.9659 12.2279 23.904L8.18409 23.2633C7.79179 23.2013 7.52403 22.8328 7.58597 22.4406L8.2267 18.3968C8.28864 18.0045 8.65712 17.7367 9.04936 17.7987L13.0932 18.4394C13.4855 18.5013 13.7532 18.8698 13.6913 19.262ZM21.1139 12.552C21.1139 11.788 21.733 11.1689 22.4971 11.1689C23.2611 11.1689 23.8802 11.788 23.8802 12.552C23.8802 13.3161 23.2611 13.9352 22.4971 13.9352C21.733 13.9352 21.1139 13.3161 21.1139 12.552ZM27.7177 23.2633L23.6738 23.904C23.2816 23.9659 22.9131 23.6987 22.8511 23.3059L22.2105 19.262C22.1485 18.8698 22.4157 18.5013 22.8086 18.4394L26.8524 17.7987C27.2446 17.7367 27.6131 18.0045 27.6751 18.3968L28.3158 22.4406C28.3777 22.8328 28.11 23.2013 27.7177 23.2633ZM28.0297 13.9352C27.2657 13.9352 26.6466 13.3161 26.6466 12.552C26.6466 11.788 27.2657 11.1689 28.0297 11.1689C28.7938 11.1689 29.4129 11.788 29.4129 12.552C29.4129 13.3161 28.7938 13.9352 28.0297 13.9352Z"/>
  </g>
  <defs>
    <clipPath id="">
      <rect fill="currentColor" width="36" height="36"/>
    </clipPath>
  </defs>
</svg>
