<?xml version="1.0"?>
<svg xmlns="http://www.w3.org/2000/svg" viewBox="0 0 320 161" fill="none">
  <path stroke="currentColor" d="M73.1533 12.7214V1.63894C73.1533 1.04606 72.6727 0.56543 72.0798 0.56543H2.37282C1.77994 0.56543 1.29932 1.04605 1.29932 1.63893V158.743C1.29932 159.336 1.77994 159.816 2.37283 159.816H72.0798C72.6727 159.816 73.1533 159.336 73.1533 158.743V135.162"/>
  <path stroke="currentColor" opacity="0.7" d="M42.1007 31.6514H9.45837C8.47023 31.6514 7.66919 32.4524 7.66919 33.4405V151.657C7.66919 152.645 8.47023 153.446 9.45837 153.446H64.994C65.9821 153.446 66.7831 152.645 66.7831 151.657V135.291" stroke-width="0.33"/>
  <path stroke="currentColor" opacity="0.7" d="M66.7831 12.812V8.72473C66.7831 7.73659 65.9821 6.93555 64.994 6.93555H9.45837C8.47023 6.93555 7.66919 7.73659 7.66919 8.72473V23.4921C7.66919 24.4802 8.47023 25.2813 9.45837 25.2813H42.2381" stroke-width="0.33"/>
  <circle stroke="currentColor" cx="16.8424" cy="16.109" r="3.79487" stroke-width="1.07351"/>
  <mask fill="currentColor" id="">
    <path fill-rule="evenodd" clip-rule="evenodd" d="M42.8861 12.2861C42.2932 12.2861 41.8126 12.7668 41.8126 13.3596V134.537C41.8126 135.129 42.2932 135.61 42.8861 135.61H133.924V154.211H108.189C107.626 154.211 107.17 154.667 107.17 155.23V158.797C107.17 159.36 107.626 159.816 108.189 159.816H192.783C193.346 159.816 193.802 159.36 193.802 158.797V155.23C193.802 154.667 193.346 154.211 192.783 154.211H167.048V135.61H258.085C258.678 135.61 259.158 135.129 259.158 134.537V13.3596C259.158 12.7668 258.678 12.2861 258.085 12.2861H42.8861Z"/>
  </mask>
  <path fill="currentColor" d="M133.924 135.61H134.924V134.61H133.924V135.61ZM133.924 154.211V155.211H134.924V154.211H133.924ZM167.048 154.211H166.048V155.211H167.048V154.211ZM167.048 135.61V134.61H166.048V135.61H167.048ZM42.8126 13.3596C42.8126 13.319 42.8455 13.2861 42.8861 13.2861V11.2861C41.741 11.2861 40.8126 12.2145 40.8126 13.3596H42.8126ZM42.8126 134.537V13.3596H40.8126V134.537H42.8126ZM42.8861 134.61C42.8455 134.61 42.8126 134.577 42.8126 134.537H40.8126C40.8126 135.682 41.7409 136.61 42.8861 136.61V134.61ZM133.924 134.61H42.8861V136.61H133.924V134.61ZM132.924 135.61V154.211H134.924V135.61H132.924ZM133.924 153.211H108.189V155.211H133.924V153.211ZM108.189 153.211C107.074 153.211 106.17 154.115 106.17 155.23H108.17C108.17 155.225 108.17 155.224 108.171 155.223C108.171 155.221 108.173 155.219 108.175 155.216C108.178 155.214 108.18 155.212 108.182 155.212C108.183 155.211 108.184 155.211 108.189 155.211V153.211ZM106.17 155.23V158.797H108.17V155.23H106.17ZM106.17 158.797C106.17 159.912 107.074 160.816 108.189 160.816V158.816C108.184 158.816 108.183 158.816 108.182 158.815C108.18 158.815 108.178 158.813 108.175 158.811C108.173 158.808 108.171 158.806 108.171 158.804C108.17 158.803 108.17 158.802 108.17 158.797H106.17ZM108.189 160.816H192.783V158.816H108.189V160.816ZM192.783 160.816C193.898 160.816 194.802 159.912 194.802 158.797H192.802C192.802 158.802 192.801 158.803 192.801 158.804C192.8 158.806 192.799 158.808 192.796 158.811C192.794 158.813 192.792 158.815 192.79 158.815C192.789 158.816 192.787 158.816 192.783 158.816V160.816ZM194.802 158.797V155.23H192.802V158.797H194.802ZM194.802 155.23C194.802 154.115 193.898 153.211 192.783 153.211V155.211C192.787 155.211 192.789 155.211 192.79 155.212C192.792 155.212 192.794 155.214 192.796 155.216C192.799 155.219 192.8 155.221 192.801 155.223C192.801 155.224 192.802 155.225 192.802 155.23H194.802ZM192.783 153.211H167.048V155.211H192.783V153.211ZM168.048 154.211V135.61H166.048V154.211H168.048ZM258.085 134.61H167.048V136.61H258.085V134.61ZM258.158 134.537C258.158 134.577 258.125 134.61 258.085 134.61V136.61C259.23 136.61 260.158 135.682 260.158 134.537H258.158ZM258.158 13.3596V134.537H260.158V13.3596H258.158ZM258.085 13.2861C258.125 13.2861 258.158 13.319 258.158 13.3596H260.158C260.158 12.2145 259.23 11.2861 258.085 11.2861V13.2861ZM42.8861 13.2861H258.085V11.2861H42.8861V13.2861Z" mask=""/>
  <rect stroke="currentColor" opacity="0.7" x="48.4718" y="18.8213" width="204.021" height="110.254" rx="1.62418" stroke-width="0.33"/>
  <path fill="currentColor" d="M246.077 65.8994L228.938 83.0461L246.077 100.193C250.596 95.6372 253.133 89.4724 253.133 83.0461C253.133 76.6198 250.596 70.4549 246.077 65.8994Z"/>
  <g opacity="0.5">
    <path fill="currentColor" opacity="0.5" d="M279.941 134.163L270.727 124.919C281.818 113.768 288.046 98.6593 288.046 82.9074C288.046 67.1556 281.818 52.0469 270.727 40.8958L279.941 31.6523C286.664 38.3759 291.999 46.3643 295.638 55.1597C299.278 63.955 301.151 73.3844 301.151 82.9074C301.151 92.4304 299.278 101.86 295.638 110.655C291.999 119.451 286.664 127.439 279.941 134.163Z"/>
  </g>
  <path fill="currentColor" opacity="0.5" d="M262.803 117.017L253.589 107.773C260.161 101.178 263.853 92.2338 263.853 82.9082C263.853 73.5826 260.161 64.6388 253.589 58.0433L262.803 48.7998C267.294 53.2644 270.859 58.5772 273.292 64.4315C275.725 70.2858 276.978 76.5656 276.978 82.9082C276.978 89.2509 275.725 95.5306 273.292 101.385C270.859 107.239 267.294 112.552 262.803 117.017Z"/>
  <path fill="currentColor" d="M246.077 65.8994L228.938 83.0461L246.077 100.193C250.596 95.6372 253.133 89.4724 253.133 83.0461C253.133 76.6198 250.596 70.4549 246.077 65.8994Z"/>
  <g opacity="0.5">
    <path fill="currentColor" opacity="0.5" d="M279.941 134.163L270.727 124.919C281.818 113.768 288.046 98.6593 288.046 82.9074C288.046 67.1556 281.818 52.0469 270.727 40.8958L279.941 31.6523C286.664 38.3759 291.999 46.3643 295.638 55.1597C299.278 63.955 301.151 73.3844 301.151 82.9074C301.151 92.4304 299.278 101.86 295.638 110.655C291.999 119.451 286.664 127.439 279.941 134.163Z"/>
  </g>
  <path fill="currentColor" opacity="0.5" d="M262.803 117.017L253.589 107.773C260.161 101.178 263.853 92.2338 263.853 82.9082C263.853 73.5826 260.161 64.6388 253.589 58.0433L262.803 48.7998C267.294 53.2644 270.859 58.5772 273.292 64.4315C275.725 70.2858 276.978 76.5656 276.978 82.9082C276.978 89.2509 275.725 95.5306 273.292 101.385C270.859 107.239 267.294 112.552 262.803 117.017Z"/>
  <path fill="currentColor" d="M246.077 65.8994L228.938 83.0461L246.077 100.193C250.596 95.6372 253.133 89.4724 253.133 83.0461C253.133 76.6198 250.596 70.4549 246.077 65.8994Z"/>
  <g opacity="0.5">
    <path fill="currentColor" opacity="0.5" d="M279.941 134.163L270.727 124.919C281.818 113.768 288.046 98.6593 288.046 82.9074C288.046 67.1556 281.818 52.0469 270.727 40.8958L279.941 31.6523C286.664 38.3759 291.999 46.3643 295.638 55.1597C299.278 63.955 301.151 73.3844 301.151 82.9074C301.151 92.4304 299.278 101.86 295.638 110.655C291.999 119.451 286.664 127.439 279.941 134.163Z"/>
  </g>
  <path fill="currentColor" opacity="0.5" d="M262.803 117.017L253.589 107.773C260.161 101.178 263.853 92.2338 263.853 82.9082C263.853 73.5826 260.161 64.6388 253.589 58.0433L262.803 48.7998C267.294 53.2644 270.859 58.5772 273.292 64.4315C275.725 70.2858 276.978 76.5656 276.978 82.9082C276.978 89.2509 275.725 95.5306 273.292 101.385C270.859 107.239 267.294 112.552 262.803 117.017Z"/>
  <path fill="currentColor" d="M246.077 65.8994L228.938 83.0461L246.077 100.193C250.596 95.6372 253.133 89.4724 253.133 83.0461C253.133 76.6198 250.596 70.4549 246.077 65.8994Z"/>
  <g opacity="0.5">
    <path fill="currentColor" opacity="0.5" d="M279.941 134.163L270.727 124.919C281.818 113.768 288.046 98.6593 288.046 82.9074C288.046 67.1556 281.818 52.0469 270.727 40.8958L279.941 31.6523C286.664 38.3759 291.999 46.3643 295.638 55.1597C299.278 63.955 301.151 73.3844 301.151 82.9074C301.151 92.4304 299.278 101.86 295.638 110.655C291.999 119.451 286.664 127.439 279.941 134.163Z"/>
  </g>
  <path fill="currentColor" opacity="0.5" d="M262.803 117.017L253.589 107.773C260.161 101.178 263.853 92.2338 263.853 82.9082C263.853 73.5826 260.161 64.6388 253.589 58.0433L262.803 48.7998C267.294 53.2644 270.859 58.5772 273.292 64.4315C275.725 70.2858 276.978 76.5656 276.978 82.9082C276.978 89.2509 275.725 95.5306 273.292 101.385C270.859 107.239 267.294 112.552 262.803 117.017Z"/>
  <path fill="currentColor" d="M246.077 65.8994L228.938 83.0461L246.077 100.193C250.596 95.6372 253.133 89.4724 253.133 83.0461C253.133 76.6198 250.596 70.4549 246.077 65.8994Z"/>
  <g opacity="0.5">
    <path fill="currentColor" opacity="0.5" d="M279.941 134.163L270.727 124.919C281.818 113.768 288.046 98.6593 288.046 82.9074C288.046 67.1556 281.818 52.0469 270.727 40.8958L279.941 31.6523C286.664 38.3759 291.999 46.3643 295.638 55.1597C299.278 63.955 301.151 73.3844 301.151 82.9074C301.151 92.4304 299.278 101.86 295.638 110.655C291.999 119.451 286.664 127.439 279.941 134.163Z"/>
  </g>
  <path fill="currentColor" opacity="0.5" d="M262.803 117.017L253.589 107.773C260.161 101.178 263.853 92.2338 263.853 82.9082C263.853 73.5826 260.161 64.6388 253.589 58.0433L262.803 48.7998C267.294 53.2644 270.859 58.5772 273.292 64.4315C275.725 70.2858 276.978 76.5656 276.978 82.9082C276.978 89.2509 275.725 95.5306 273.292 101.385C270.859 107.239 267.294 112.552 262.803 117.017Z"/>
  <path fill="currentColor" d="M246.077 65.8994L228.938 83.0461L246.077 100.193C250.596 95.6372 253.133 89.4724 253.133 83.0461C253.133 76.6198 250.596 70.4549 246.077 65.8994Z"/>
  <g opacity="0.5">
    <path fill="currentColor" opacity="0.5" d="M279.941 134.163L270.727 124.919C281.818 113.768 288.046 98.6593 288.046 82.9074C288.046 67.1556 281.818 52.0469 270.727 40.8958L279.941 31.6523C286.664 38.3759 291.999 46.3643 295.638 55.1597C299.278 63.955 301.151 73.3844 301.151 82.9074C301.151 92.4304 299.278 101.86 295.638 110.655C291.999 119.451 286.664 127.439 279.941 134.163Z"/>
  </g>
  <path fill="currentColor" opacity="0.5" d="M262.803 117.017L253.589 107.773C260.161 101.178 263.853 92.2338 263.853 82.9082C263.853 73.5826 260.161 64.6388 253.589 58.0433L262.803 48.7998C267.294 53.2644 270.859 58.5772 273.292 64.4315C275.725 70.2858 276.978 76.5656 276.978 82.9082C276.978 89.2509 275.725 95.5306 273.292 101.385C270.859 107.239 267.294 112.552 262.803 117.017Z"/>
  <path fill="currentColor" d="M246.077 65.8994L228.938 83.0461L246.077 100.193C250.596 95.6372 253.133 89.4724 253.133 83.0461C253.133 76.6198 250.596 70.4549 246.077 65.8994Z"/>
  <g opacity="0.5">
    <path fill="currentColor" opacity="0.5" d="M279.941 134.163L270.727 124.919C281.818 113.768 288.046 98.6593 288.046 82.9074C288.046 67.1556 281.818 52.0469 270.727 40.8958L279.941 31.6523C286.664 38.3759 291.999 46.3643 295.638 55.1597C299.278 63.955 301.151 73.3844 301.151 82.9074C301.151 92.4304 299.278 101.86 295.638 110.655C291.999 119.451 286.664 127.439 279.941 134.163Z"/>
  </g>
  <path fill="currentColor" opacity="0.5" d="M262.803 117.017L253.589 107.773C260.161 101.178 263.853 92.2338 263.853 82.9082C263.853 73.5826 260.161 64.6388 253.589 58.0433L262.803 48.7998C267.294 53.2644 270.859 58.5772 273.292 64.4315C275.725 70.2858 276.978 76.5656 276.978 82.9082C276.978 89.2509 275.725 95.5306 273.292 101.385C270.859 107.239 267.294 112.552 262.803 117.017Z"/>
  <path fill="currentColor" d="M246.077 65.8994L228.938 83.0461L246.077 100.193C250.596 95.6372 253.133 89.4724 253.133 83.0461C253.133 76.6198 250.596 70.4549 246.077 65.8994Z"/>
  <g opacity="0.5">
    <path fill="currentColor" opacity="0.5" d="M279.941 134.163L270.727 124.919C281.818 113.768 288.046 98.6593 288.046 82.9074C288.046 67.1556 281.818 52.0469 270.727 40.8958L279.941 31.6523C286.664 38.3759 291.999 46.3643 295.638 55.1597C299.278 63.955 301.151 73.3844 301.151 82.9074C301.151 92.4304 299.278 101.86 295.638 110.655C291.999 119.451 286.664 127.439 279.941 134.163Z"/>
  </g>
</svg>
