<?xml version="1.0"?>
<svg version="1.1" xmlns="http://www.w3.org/2000/svg" x="0px" y="0px" width="256px" height="256px" viewBox="0 0 256 256">
  <g>
    <g transform="matrix(1.34048,0,0,1.34048,-10.0942,-5.50445)">
      <path d="M102.239,90.394c-22.556,0-40.906-18.351-40.906-40.906c0-22.556,18.35-40.906,40.906-40.906s40.906,18.35,40.906,40.906 C143.145,72.043,124.795,90.394,102.239,90.394z"/>
    </g>
    <path d="M127.453,250.212c-30.208,0-52.086-4.188-65.028-12.45c-12.507-7.983-13.141-17.484-13.141-19.308v-41.781 c0-20.554,5.356-38.104,15.489-50.754c11.63-14.519,29.216-22.193,50.858-22.194h23.646c21.643,0,39.229,7.674,50.858,22.193 c10.133,12.65,15.488,30.201,15.488,50.754v41.751c0.011,2.202-0.586,8.058-6.43,14.175 c-11.164,11.687-35.301,17.613-71.732,17.613C127.458,250.212,127.458,250.212,127.453,250.212z"/>
    <path opacity="" d="M87.625,170.102c-5.877,0-14.85-1.804-24.219-10.4c-8.677-7.961-20.959-20.438-30.563-31.048 c-18.766-20.732-21.125-26.658-19.522-32.832c1.463-5.64,10.288-27.077,26.729-28.926c0.429-0.048,0.867-0.072,1.303-0.072 c7.609,0,14.543,6.335,38.063,31.516c7.141,7.645,14.524,15.549,18.002,18.33l0.803,0.641c5.551,4.432,11.291,9.015,15.104,14.136 c8.477,11.383,3.634,20.705,1.158,24.185C108.034,164.692,97.995,170.102,87.625,170.102z"/>
  </g>
  <g>
    <g transform="matrix(1.34048,0,0,1.34048,-10.0942,-5.50445)">
      <circle fill="currentColor" cx="102.239" cy="49.488" r="33.446"/>
    </g>
    <path fill="currentColor" d="M195.624,218.454v-41.781c0-34.743-16.666-62.948-56.347-62.948h-11.822h-0.997h-10.826 c-39.68,0.001-56.348,28.205-56.348,62.948v41.781c0,0,0,21.758,68.169,21.758C196.62,240.214,195.624,218.454,195.624,218.454z"/>
    <path opacity="" d="M41.167,76.833c6.53-0.734,39.348,39.127,50.007,47.647c10.659,8.52,21.327,16.686,15.16,25.353 s-20.646,16.74-36.167,2.5 s-48.516-48.801-47.167-54S31.599,77.909,41.167,76.833z"/>
  </g>
</svg>
