<?xml version="1.0"?>
<svg width="1595" height="702" viewBox="0 0 1595 702" fill="none" xmlns="http://www.w3.org/2000/svg">
  <g>
    <g>
      <g>
        <circle cx="219.875" cy="350.418" r="71" stroke="white" stroke-width="8"/>
        <path d="M199.684 414.787L198.809 414.632V374.68C198.809 371.918 196.57 369.68 193.809 369.68H155.54L155.004 366.412C152.968 353.986 152.968 341.311 155.004 328.886L155.54 325.618H193.809C196.57 325.618 198.809 323.379 198.809 320.618V285.246L204.631 284.474C214.75 283.132 225.001 283.132 235.12 284.474L240.942 285.246V320.618C240.942 323.379 243.181 325.618 245.942 325.618H284.211L284.747 328.886C286.783 341.311 286.783 353.986 284.747 366.412L284.211 369.68H245.942C243.181 369.68 240.942 371.918 240.942 374.68V414.632L240.067 414.787C226.709 417.148 213.042 417.148 199.684 414.787Z" stroke="white" stroke-width="8"/>
        <path d="M198.809 414.632L199.684 414.787C213.042 417.148 226.709 417.148 240.067 414.787L240.942 414.632V374.68C240.942 371.918 243.181 369.68 245.942 369.68L218.5 364L193.809 369.68C196.57 369.68 198.809 371.918 198.809 374.68V414.632Z" fill="" onClick=""/>
        <path d="M241.013 280.905L240.14 280.752C226.816 278.416 213.184 278.416 199.86 280.752L198.987 280.905V320.434C198.987 323.166 196.754 325.381 194 325.381L221.372 331L246 325.381C243.246 325.381 241.013 323.166 241.013 320.434V280.905Z" fill="" onClick=""/>
        <path d="M284.131 368.917L284.282 368.027C286.573 354.447 286.573 340.553 284.282 326.973L284.131 326.083H245.363C242.683 326.083 240.511 323.807 240.511 321L235 348.898L240.511 374C240.511 371.193 242.683 368.917 245.363 368.917H284.131Z" fill="" onClick=""/>
        <path d="M154.869 326.083L154.718 326.973C152.427 340.553 152.427 354.447 154.718 368.027L154.869 368.917H193.637C196.317 368.917 198.489 371.193 198.489 374L204 346.102L198.489 321C198.489 323.807 196.317 326.083 193.637 326.083H154.869Z" fill="" onClick=""/>
      </g>
      <g>
        <g>
          <path d="M180.57 247.407C179.953 247.464 179.41 246.975 179.41 246.356C179.41 244.383 179.41 242.43 179.41 240.458C179.41 240.364 179.41 240.289 179.41 240.195C179.41 240.101 179.41 240.026 179.429 239.932C179.429 239.838 179.448 239.763 179.448 239.669C179.448 239.631 179.448 239.594 179.466 239.556C179.466 239.519 179.485 239.462 179.485 239.425C179.504 239.368 179.504 239.331 179.522 239.274C179.541 239.218 179.56 239.18 179.579 239.124C179.597 239.068 179.635 239.03 179.653 238.993C179.672 238.955 179.71 238.918 179.747 238.899C179.934 238.73 180.121 238.636 180.365 238.617C206.077 235.818 225.577 214.03 225.577 188.072C225.577 180.784 224.192 174.21 221.254 167.542C221.161 167.317 221.142 167.11 221.198 166.866C221.217 166.809 221.235 166.753 221.254 166.716C221.273 166.659 221.31 166.622 221.329 166.584C221.366 166.546 221.385 166.509 221.422 166.471C221.46 166.434 221.497 166.396 221.516 166.377C221.553 166.34 221.591 166.321 221.61 166.302C221.647 166.284 221.666 166.265 221.703 166.246C221.778 166.19 221.853 166.152 221.928 166.096C222.003 166.039 222.077 166.002 222.152 165.964C222.227 165.927 222.302 165.87 222.377 165.833C224.08 164.856 225.764 163.861 227.467 162.884C228.01 162.564 228.702 162.79 228.964 163.372C232.613 171.393 234.316 179.3 234.316 188.128C234.316 218.782 211.036 244.477 180.57 247.407Z" fill="white"/>
          <path d="M120.827 163.298C121.089 162.734 121.781 162.509 122.324 162.809C124.027 163.786 125.711 164.782 127.414 165.758C127.489 165.796 127.564 165.852 127.639 165.89C127.714 165.927 127.789 165.984 127.863 166.021C127.938 166.078 128.013 166.115 128.088 166.171C128.125 166.19 128.144 166.209 128.182 166.247C128.219 166.265 128.256 166.303 128.294 166.341C128.331 166.378 128.369 166.416 128.406 166.453C128.444 166.491 128.481 166.528 128.5 166.585C128.537 166.622 128.556 166.679 128.575 166.716C128.593 166.754 128.612 166.791 128.612 166.848C128.668 167.092 128.649 167.298 128.556 167.524C125.618 174.192 124.233 180.766 124.233 188.054C124.233 214.012 143.714 235.8 169.445 238.599C169.689 238.618 169.876 238.712 170.063 238.881C170.1 238.918 170.138 238.956 170.175 239.012C170.213 239.05 170.231 239.106 170.25 239.144C170.269 239.2 170.287 239.238 170.306 239.294C170.325 239.331 170.325 239.388 170.344 239.425C170.344 239.463 170.362 239.519 170.362 239.557C170.362 239.594 170.362 239.632 170.381 239.67C170.381 239.763 170.4 239.839 170.4 239.932C170.4 240.026 170.4 240.102 170.418 240.195C170.418 240.289 170.418 240.364 170.418 240.458C170.418 242.431 170.418 244.384 170.418 246.356C170.418 246.976 169.876 247.483 169.258 247.408C138.773 244.478 115.512 218.783 115.512 188.054C115.475 179.226 117.178 171.318 120.827 163.298Z" fill="white"/>
          <path d="M217.846 157.924C217.771 157.962 217.696 158.018 217.621 158.056C217.547 158.094 217.472 158.131 217.397 158.187C217.322 158.225 217.247 158.263 217.154 158.3C217.116 158.319 217.079 158.338 217.041 158.356C217.004 158.375 216.966 158.394 216.91 158.413C216.873 158.432 216.817 158.45 216.761 158.45C216.704 158.469 216.648 158.469 216.611 158.469C216.555 158.469 216.499 158.469 216.461 158.469C216.424 158.469 216.368 158.45 216.33 158.45C216.087 158.375 215.918 158.263 215.787 158.056C206.262 144.983 191.085 137.244 174.954 137.226C158.785 137.207 143.571 144.945 134.008 158.056C133.859 158.263 133.69 158.375 133.466 158.45C133.41 158.469 133.353 158.469 133.297 158.488C133.241 158.507 133.185 158.488 133.129 158.488C133.073 158.488 133.035 158.469 132.979 158.469C132.923 158.45 132.886 158.45 132.848 158.432C132.811 158.413 132.773 158.394 132.736 158.394C132.698 158.375 132.661 158.356 132.642 158.356C132.567 158.319 132.493 158.281 132.399 158.244C132.305 158.206 132.249 158.169 132.174 158.112C132.1 158.075 132.025 158.018 131.95 157.981C130.247 157.004 128.563 156.009 126.86 155.032C126.317 154.713 126.167 153.999 126.523 153.492C150.215 120.133 199.6 120.133 223.292 153.492C223.647 153.999 223.498 154.713 222.955 155.032C221.252 155.952 219.549 156.948 217.846 157.924Z" fill="white"/>
        </g>
        <circle cx="174.914" cy="187.943" r="35.5" fill="" stroke="white" stroke-width="8" onClick="" style="">
          <path id="legion_go_s_MotionPath1" d="m0 0 A 10 20 15 1 1 30 10 z" fill="transparent" stroke="none"/>
        </circle>
      </g>
      <g>
        <g>
          <path d="M1357.14 406.611C1356.53 406.667 1355.98 406.179 1355.98 405.559C1355.98 403.587 1355.98 401.633 1355.98 399.661C1355.98 399.567 1355.98 399.492 1355.98 399.398C1355.98 399.304 1355.98 399.229 1356 399.135C1356 399.041 1356.02 398.966 1356.02 398.872C1356.02 398.834 1356.02 398.797 1356.04 398.759C1356.04 398.722 1356.06 398.665 1356.06 398.628C1356.08 398.571 1356.08 398.534 1356.1 398.478C1356.11 398.421 1356.13 398.384 1356.15 398.327C1356.17 398.271 1356.21 398.233 1356.23 398.196C1356.25 398.158 1356.28 398.121 1356.32 398.102C1356.51 397.933 1356.69 397.839 1356.94 397.82C1382.65 395.021 1402.15 373.233 1402.15 347.275C1402.15 339.987 1400.77 333.413 1397.83 326.745C1397.73 326.52 1397.72 326.313 1397.77 326.069C1397.79 326.013 1397.81 325.956 1397.83 325.919C1397.85 325.862 1397.88 325.825 1397.9 325.787C1397.94 325.75 1397.96 325.712 1398 325.674C1398.03 325.637 1398.07 325.599 1398.09 325.581C1398.13 325.543 1398.16 325.524 1398.18 325.505C1398.22 325.487 1398.24 325.468 1398.28 325.449C1398.35 325.393 1398.43 325.355 1398.5 325.299C1398.58 325.242 1398.65 325.205 1398.73 325.167C1398.8 325.13 1398.88 325.073 1398.95 325.036C1400.65 324.059 1402.34 323.064 1404.04 322.087C1404.58 321.768 1405.28 321.993 1405.54 322.575C1409.19 330.596 1410.89 338.503 1410.89 347.331C1410.89 377.985 1387.61 403.68 1357.14 406.611Z" fill="white"/>
          <path d="M1297.4 322.501C1297.66 321.937 1298.35 321.712 1298.9 322.012C1300.6 322.989 1302.28 323.985 1303.99 324.961C1304.06 324.999 1304.14 325.055 1304.21 325.093C1304.29 325.13 1304.36 325.187 1304.44 325.224C1304.51 325.281 1304.59 325.318 1304.66 325.375C1304.7 325.393 1304.72 325.412 1304.75 325.45C1304.79 325.469 1304.83 325.506 1304.87 325.544C1304.9 325.581 1304.94 325.619 1304.98 325.656C1305.02 325.694 1305.05 325.731 1305.07 325.788C1305.11 325.825 1305.13 325.882 1305.15 325.919C1305.17 325.957 1305.19 325.994 1305.19 326.051C1305.24 326.295 1305.22 326.502 1305.13 326.727C1302.19 333.395 1300.81 339.969 1300.81 347.257C1300.81 373.215 1320.29 395.003 1346.02 397.802C1346.26 397.821 1346.45 397.915 1346.64 398.084C1346.67 398.121 1346.71 398.159 1346.75 398.215C1346.79 398.253 1346.8 398.309 1346.82 398.347C1346.84 398.403 1346.86 398.441 1346.88 398.497C1346.9 398.535 1346.9 398.591 1346.92 398.628C1346.92 398.666 1346.94 398.722 1346.94 398.76C1346.94 398.798 1346.94 398.835 1346.95 398.873C1346.95 398.967 1346.97 399.042 1346.97 399.136C1346.97 399.23 1346.97 399.305 1346.99 399.399C1346.99 399.492 1346.99 399.568 1346.99 399.662C1346.99 401.634 1346.99 403.587 1346.99 405.559C1346.99 406.179 1346.45 406.686 1345.83 406.611C1315.35 403.681 1292.09 377.986 1292.09 347.257C1292.05 338.429 1293.75 330.521 1297.4 322.501Z" fill="white"/>
          <path d="M1394.42 317.128C1394.34 317.165 1394.27 317.222 1394.19 317.259C1394.12 317.297 1394.04 317.334 1393.97 317.391C1393.9 317.428 1393.82 317.466 1393.73 317.503C1393.69 317.522 1393.65 317.541 1393.61 317.56C1393.58 317.578 1393.54 317.597 1393.48 317.616C1393.45 317.635 1393.39 317.654 1393.33 317.654C1393.28 317.672 1393.22 317.672 1393.18 317.672C1393.13 317.672 1393.07 317.672 1393.03 317.672C1393 317.672 1392.94 317.654 1392.9 317.654C1392.66 317.578 1392.49 317.466 1392.36 317.259C1382.84 304.186 1367.66 296.447 1351.53 296.429C1335.36 296.41 1320.14 304.149 1310.58 317.259C1310.43 317.466 1310.26 317.578 1310.04 317.654C1309.98 317.672 1309.93 317.672 1309.87 317.691C1309.81 317.71 1309.76 317.691 1309.7 317.691C1309.65 317.691 1309.61 317.672 1309.55 317.672C1309.5 317.654 1309.46 317.654 1309.42 317.635C1309.38 317.616 1309.35 317.597 1309.31 317.597C1309.27 317.578 1309.23 317.56 1309.22 317.56C1309.14 317.522 1309.07 317.484 1308.97 317.447C1308.88 317.409 1308.82 317.372 1308.75 317.315C1308.67 317.278 1308.6 317.222 1308.52 317.184C1306.82 316.207 1305.14 315.212 1303.43 314.235C1302.89 313.916 1302.74 313.202 1303.1 312.695C1326.79 279.336 1376.17 279.336 1399.86 312.695C1400.22 313.202 1400.07 313.916 1399.53 314.235C1397.83 315.155 1396.12 316.151 1394.42 317.128Z" fill="white"/>
        </g>
        <circle cx="1351.49" cy="347.146" r="35.5" fill="" stroke="white" stroke-width="8" onClick="" style="">
          <path id="legion_go_s_MotionPath2" d="m0 0 L-30 0 A 10 5 1 1 15 10 z" fill="transparent" stroke="none"/>
          <path id="legion_go_s_MotionPath2b" d="m0 0 L30 -10 A 10 5 1 1 15 10 z" fill="transparent" stroke="none"/>
        </circle>
      </g>
      <path d="M276.922 147.802C276.773 147.652 276.623 147.483 276.511 147.295C276.398 147.107 276.286 146.919 276.193 146.713C276.118 146.506 276.043 146.299 276.005 146.093C275.968 145.886 275.949 145.661 275.949 145.435C275.949 143.05 275.949 140.664 275.949 138.279C275.949 138.035 275.987 137.772 276.024 137.528C276.08 137.283 276.155 137.039 276.267 136.814C276.38 136.588 276.511 136.382 276.66 136.175C276.81 135.987 276.997 135.8 277.184 135.649C277.371 135.499 277.596 135.368 277.821 135.255C278.045 135.142 278.288 135.067 278.532 135.011C278.775 134.954 279.018 134.936 279.28 134.936C281.657 134.936 284.034 134.936 286.41 134.936C286.635 134.936 286.841 134.954 287.065 134.992C287.271 135.029 287.496 135.105 287.683 135.18C287.889 135.255 288.076 135.368 288.263 135.48C288.45 135.593 288.618 135.743 288.768 135.894C294.738 141.885 300.708 147.877 306.677 153.869C306.827 154.019 306.977 154.188 307.089 154.376C307.201 154.564 307.313 154.752 307.407 154.958C307.482 155.165 307.557 155.371 307.594 155.597C307.632 155.822 307.65 156.029 307.65 156.254C307.65 158.64 307.65 161.025 307.65 163.411C307.65 163.655 307.613 163.918 307.575 164.162C307.519 164.406 307.444 164.65 307.332 164.876C307.22 165.101 307.089 165.308 306.939 165.514C306.789 165.702 306.602 165.89 306.415 166.04C306.228 166.191 306.003 166.322 305.779 166.435C305.554 166.547 305.311 166.623 305.068 166.679C304.825 166.735 304.581 166.754 304.319 166.754C301.943 166.754 299.566 166.754 297.189 166.754C296.965 166.754 296.759 166.735 296.534 166.698C296.328 166.66 296.104 166.585 295.917 166.51C295.711 166.435 295.524 166.322 295.337 166.191C295.15 166.078 294.981 165.928 294.831 165.777C288.862 159.786 282.892 153.794 276.922 147.802Z" onClick="" fill="" stroke="white" stroke-width="8" stroke-linecap="round" stroke-linejoin="round"/>
      <path d="M306.695 99.454C306.844 99.6043 306.994 99.7734 307.106 99.9612C307.219 100.149 307.331 100.337 307.425 100.543C307.499 100.75 307.574 100.957 307.612 101.163C307.649 101.37 307.668 101.595 307.668 101.821C307.668 104.206 307.668 106.592 307.668 108.977C307.668 109.221 307.63 109.484 307.593 109.728C307.537 109.973 307.462 110.217 307.35 110.442C307.237 110.668 307.106 110.874 306.957 111.081C306.807 111.269 306.62 111.456 306.433 111.607C306.246 111.757 306.021 111.888 305.797 112.001C305.572 112.114 305.329 112.189 305.085 112.245C304.842 112.302 304.599 112.32 304.337 112.32C301.96 112.32 299.584 112.32 297.207 112.32C296.982 112.32 296.776 112.302 296.552 112.264C296.346 112.227 296.121 112.151 295.934 112.076C295.728 112.001 295.541 111.888 295.354 111.757C295.167 111.644 294.999 111.494 294.849 111.344C288.879 105.352 282.91 99.3601 276.94 93.3683C276.79 93.2181 276.64 93.049 276.528 92.8612C276.416 92.6734 276.304 92.4855 276.21 92.2789C276.135 92.0723 276.06 91.8657 276.023 91.6591C275.986 91.4525 275.967 91.2271 275.967 91.0017C275.967 88.6162 275.967 86.2308 275.967 83.8453C275.967 83.6012 276.004 83.3382 276.042 83.094C276.098 82.8498 276.173 82.6057 276.285 82.3803C276.397 82.1549 276.528 81.9483 276.678 81.7416C276.828 81.5538 277.015 81.366 277.202 81.2157C277.389 81.0655 277.614 80.934 277.838 80.8213C278.063 80.7086 278.306 80.6334 278.549 80.5771C278.793 80.5207 279.036 80.502 279.298 80.502C281.674 80.502 284.051 80.502 286.428 80.502C286.652 80.502 286.858 80.5207 287.083 80.5583C287.289 80.5959 287.513 80.671 287.7 80.7461C287.906 80.8213 288.093 80.934 288.28 81.0655C288.468 81.1781 288.636 81.3284 288.786 81.4787C294.755 87.4705 300.725 93.4623 306.695 99.454Z" onClick="" fill="" stroke="white" stroke-width="8" stroke-linecap="round" stroke-linejoin="round"/>
      <rect x="1324.4" y="447.533" width="54" height="54" rx="8" stroke="white" stroke-width="8" onClick="" fill=""/>
      <circle cx="1430.95" cy="137.826" r="27.5" stroke="white" stroke-width="8" onClick="" fill="">
        <animate id="legion_go_s_buttonpress_y" attributeName="r" from="28" to="26" begin="legion_go_s_buttonpress_b.end+500ms;legion_go_s_buttonpress_y.end+1s" dur="250ms" repeatCount="2" restart="always"/>
      </circle>
      <circle cx="1480.99" cy="187.871" r="27.5" stroke="white" stroke-width="8" onClick="" fill="">
        <animate id="legion_go_s_buttonpress_b" attributeName="r" from="28" to="26" begin="legion_go_s_buttonpress_x.end+500ms;legion_go_s_buttonpress_b.end+1s" dur="250ms" repeatCount="2" restart="always"/>
      </circle>
      <circle cx="1430.95" cy="237.914" r="27.5" stroke="white" stroke-width="8" onClick="" fill="">
        <animate id="legion_go_s_buttonpress_a" attributeName="r" from="28" to="26" begin="0ms;legion_go_s_buttonpress_a.end+1s" dur="250ms" repeatCount="2" restart="always"/>
      </circle>
      <circle cx="1380.91" cy="187.871" r="27.5" stroke="white" stroke-width="8" onClick="" fill="">
        <animate id="legion_go_s_buttonpress_x" attributeName="r" from="28" to="26" begin="legion_go_s_buttonpress_a.end+500ms;legion_go_s_buttonpress_x.end+1s" dur="250ms" repeatCount="2" restart="always"/>
      </circle>
      <path d="M1255.47 60.4238H338.811V636.725H1255.47V60.4238Z" fill="" stroke="white" stroke-width="8" stroke-linecap="round" stroke-linejoin="round"/>
      <path d="M1299.43 111.361C1299.28 111.512 1299.11 111.662 1298.92 111.775C1298.74 111.887 1298.55 112 1298.34 112.094C1298.14 112.169 1297.93 112.244 1297.71 112.282C1297.5 112.319 1297.28 112.338 1297.05 112.338C1294.67 112.338 1292.3 112.338 1289.92 112.338C1289.68 112.338 1289.42 112.319 1289.17 112.263C1288.93 112.207 1288.69 112.131 1288.46 112.019C1288.24 111.906 1288.03 111.775 1287.83 111.624C1287.64 111.474 1287.45 111.286 1287.3 111.098C1287.15 110.91 1287.02 110.685 1286.91 110.46C1286.8 110.234 1286.72 109.99 1286.66 109.746C1286.61 109.502 1286.59 109.258 1286.59 108.995C1286.59 106.609 1286.59 104.224 1286.59 101.838C1286.59 101.613 1286.61 101.406 1286.65 101.181C1286.68 100.974 1286.76 100.749 1286.83 100.561C1286.91 100.354 1287.02 100.167 1287.15 99.9788C1287.26 99.7909 1287.41 99.6219 1287.56 99.4716C1293.53 93.4798 1299.5 87.488 1305.47 81.4963C1305.62 81.346 1305.79 81.1957 1305.98 81.083C1306.16 80.9703 1306.35 80.8576 1306.56 80.7637C1306.76 80.6886 1306.97 80.6134 1307.17 80.5759C1307.38 80.5383 1307.61 80.5195 1307.83 80.5195C1310.21 80.5195 1312.58 80.5195 1314.96 80.5195C1315.2 80.5195 1315.47 80.5571 1315.71 80.5947C1315.95 80.6322 1316.19 80.7261 1316.42 80.8388C1316.64 80.9515 1316.85 81.083 1317.06 81.2333C1317.24 81.3835 1317.43 81.5714 1317.58 81.7592C1317.73 81.947 1317.86 82.1724 1317.97 82.3978C1318.09 82.6232 1318.16 82.8674 1318.22 83.1116C1318.27 83.3558 1318.29 83.5999 1318.29 83.8629C1318.29 86.2484 1318.29 88.6338 1318.29 91.0193C1318.29 91.2447 1318.27 91.4513 1318.23 91.6767C1318.2 91.8833 1318.12 92.1087 1318.05 92.2965C1317.97 92.5031 1317.86 92.6909 1317.75 92.8788C1317.64 93.0666 1317.49 93.2356 1317.34 93.3859C1311.37 99.3777 1305.4 105.369 1299.43 111.361Z" onClick="" fill="" stroke="white" stroke-width="8" stroke-linecap="round" stroke-linejoin="round"/>
      <path d="M1299.43 165.777C1299.28 165.928 1299.11 166.078 1298.92 166.191C1298.74 166.303 1298.55 166.416 1298.34 166.51C1298.14 166.585 1297.93 166.66 1297.71 166.698C1297.5 166.735 1297.28 166.754 1297.05 166.754C1294.67 166.754 1292.3 166.754 1289.92 166.754C1289.68 166.754 1289.42 166.716 1289.17 166.679C1288.93 166.623 1288.69 166.547 1288.46 166.435C1288.24 166.322 1288.03 166.191 1287.83 166.04C1287.64 165.89 1287.45 165.702 1287.3 165.514C1287.15 165.327 1287.02 165.101 1286.91 164.876C1286.8 164.65 1286.72 164.406 1286.66 164.162C1286.61 163.918 1286.59 163.674 1286.59 163.411C1286.59 161.025 1286.59 158.64 1286.59 156.254C1286.59 156.029 1286.61 155.822 1286.65 155.597C1286.68 155.39 1286.76 155.165 1286.83 154.958C1286.91 154.752 1287.02 154.564 1287.15 154.376C1287.26 154.188 1287.41 154.019 1287.56 153.869C1293.53 147.877 1299.5 141.885 1305.47 135.894C1305.62 135.743 1305.79 135.593 1305.98 135.48C1306.16 135.368 1306.35 135.255 1306.56 135.18C1306.76 135.105 1306.97 135.029 1307.17 134.992C1307.38 134.954 1307.61 134.936 1307.83 134.936C1310.21 134.936 1312.58 134.936 1314.96 134.936C1315.2 134.936 1315.47 134.973 1315.71 135.011C1315.95 135.067 1316.19 135.142 1316.42 135.255C1316.64 135.368 1316.85 135.499 1317.06 135.649C1317.24 135.8 1317.43 135.987 1317.58 136.175C1317.73 136.363 1317.86 136.588 1317.97 136.814C1318.09 137.039 1318.16 137.283 1318.22 137.528C1318.27 137.772 1318.29 138.016 1318.29 138.279C1318.29 140.664 1318.29 143.05 1318.29 145.435C1318.29 145.661 1318.27 145.867 1318.23 146.093C1318.2 146.299 1318.12 146.525 1318.05 146.713C1317.97 146.919 1317.86 147.107 1317.75 147.295C1317.64 147.483 1317.49 147.652 1317.34 147.802C1311.37 153.794 1305.4 159.786 1299.43 165.777Z" onClick="" fill="" stroke="white" stroke-width="8" stroke-linecap="round" stroke-linejoin="round"/>
      <g opacity="">
        <path d="M1128.88 497.042C1127.58 493.32 1131.16 489.739 1134.88 491.046L1227.35 523.523C1231.46 524.966 1231.57 530.738 1227.52 532.335L1193.99 545.552C1189.14 547.464 1185.3 551.303 1183.39 556.153L1170.17 589.679C1168.58 593.731 1162.8 593.622 1161.36 589.513L1128.88 497.042Z" fill="white"/>
        <circle cx="1158.88" cy="525" r="100" stroke="#1A9FFF" stroke-width="30"/>
      </g>
      <path id="legion_go_s_MotionPath3" d="m0 0 L-450 -200z" fill="transparent" stroke="none"/>
    </g>
    <g>
      <path d="M288.133 697.975C277.897 697.957 267.997 697.9 258.528 697.712C249.059 697.525 240.02 697.224 231.094 696.754C222.167 696.285 213.335 695.646 204.184 694.632C202.967 694.5 201.751 694.35 200.516 694.219" stroke="white" stroke-width="8" stroke-linecap="round" stroke-linejoin="round"/>
      <path d="M297.244 697.995C294.138 697.995 291.106 697.995 288.131 697.977" stroke="white" stroke-width="8" stroke-linecap="round" stroke-linejoin="round"/>
      <path d="M297.695 697.996C297.545 697.996 297.396 697.996 297.246 697.996" stroke="white" stroke-width="8" stroke-linecap="round" stroke-linejoin="round"/>
      <path d="M1296.56 697.996H297.697" stroke="white" stroke-width="8" stroke-linecap="round" stroke-linejoin="round"/>
      <path d="M1297.03 697.996C1296.88 697.996 1296.73 697.996 1296.58 697.996" stroke="white" stroke-width="8" stroke-linecap="round" stroke-linejoin="round"/>
      <path d="M1306.14 697.957C1303.16 697.976 1300.13 697.976 1297.02 697.976" stroke="white" stroke-width="8" stroke-linecap="round" stroke-linejoin="round"/>
      <path d="M288.09 697.941C288.11 697.961 288.129 697.981 288.149 698.001" stroke="white" stroke-width="8" stroke-linecap="round" stroke-linejoin="round"/>
      <path d="M287.986 697.826C288.043 697.883 288.081 697.922 288.1 697.941" stroke="white" stroke-width="8" stroke-linecap="round" stroke-linejoin="round"/>
      <path d="M200.515 694.203C193.816 693.433 186.929 692.475 180.061 691.291C169.937 689.545 161.123 687.516 151.822 684.68" stroke="white" stroke-width="8" stroke-linecap="round" stroke-linejoin="round"/>
      <path d="M1131.07 18.9309C1131.04 17.6348 1131 16.3388 1130.98 15.0428C1130.96 14.1412 1130.55 13.7843 1129.74 13.5401C1128.42 13.2208 1127.07 12.9391 1125.72 12.7137C1125.68 12.7137 1125.66 12.6949 1125.63 12.6949C1125.59 12.6949 1125.55 12.6761 1125.51 12.6761C1125.05 12.601 1124.58 12.5446 1124.13 12.4883C1124.07 12.4883 1124.02 12.4695 1123.96 12.4695C1123.91 12.4695 1123.83 12.4507 1123.76 12.4507C1123.68 12.4507 1123.62 12.4319 1123.55 12.4319C1117.54 11.6243 1111.69 11.6243 1105.66 12.4319C1105.58 12.4507 1105.53 12.4507 1105.45 12.4507C1105.38 12.4507 1105.32 12.4695 1105.27 12.4695C1105.21 12.4695 1105.15 12.4883 1105.1 12.4883C1104.63 12.5446 1104.18 12.601 1103.73 12.6761C1103.68 12.6761 1103.64 12.6949 1103.6 12.6949C1103.56 12.6949 1103.55 12.7137 1103.51 12.7137C1103.4 12.7325 1103.28 12.7512 1103.15 12.77C1101.92 12.9766 1100.7 13.2396 1099.47 13.5401C1098.74 13.8407 1098.25 14.1412 1098.23 15.0428C1098.19 16.3388 1098.16 17.6348 1098.14 18.9121" stroke="white" stroke-width="8" stroke-linecap="round" stroke-linejoin="round"/>
      <path d="M151.806 684.678C146.005 682.912 140.26 680.921 134.608 678.705C130.81 677.221 127.085 675.625 123.399 673.953C118.571 671.736 113.817 669.351 109.195 666.797C105.321 664.655 101.466 662.383 97.7049 659.978C93.7563 657.443 89.8826 654.757 86.1211 651.883" stroke="white" stroke-width="8" stroke-linecap="round" stroke-linejoin="round"/>
      <path d="M1433.79 31.5921C1434.6 31.5358 1435.42 31.4982 1436.26 31.4794C1437.53 31.4231 1438.82 31.4043 1440.13 31.4043C1441.5 31.4043 1442.87 31.4231 1444.27 31.4794C1445.69 31.5358 1447.13 31.6297 1448.59 31.7424C1449.55 31.8175 1450.5 31.9114 1451.46 32.0241C1451.98 32.0805 1452.49 32.1368 1453.01 32.212C1454.15 32.3622 1455.29 32.5313 1456.42 32.7191C1458.03 32.9821 1459.6 33.2826 1461.17 33.6019C1464.05 34.203 1466.82 34.8979 1469.52 35.7056C1472.51 36.6072 1475.35 37.6215 1478.05 38.7673C1478.07 38.7673 1478.09 38.786 1478.11 38.786C1481.16 40.0821 1484 41.5284 1486.62 43.0498C1489.46 44.7027 1492.12 46.5059 1494.55 48.3466C1497.06 50.2437 1499.36 52.2159 1501.44 54.1693C1503.63 56.2355 1505.58 58.2453 1507.35 60.1987C1508.87 61.8892 1510.27 63.5233 1511.58 65.1386C1511.62 65.195 1511.68 65.2513 1511.71 65.3077C1511.85 65.4767 1511.98 65.627 1512.07 65.7397C1512.13 65.8148 1512.18 65.89 1512.24 65.9463C1512.3 66.0214 1512.35 66.0966 1512.43 66.1717C1512.56 66.3408 1512.69 66.5098 1512.84 66.6976C1512.97 66.8667 1513.1 67.0357 1513.23 67.2048C1513.34 67.3738 1513.47 67.5241 1513.59 67.6744C1513.62 67.7119 1513.64 67.7495 1513.66 67.787C1513.75 67.9185 1513.85 68.05 1513.94 68.1815C1514.07 68.3505 1514.19 68.5196 1514.32 68.6886C1514.43 68.8577 1514.56 69.0267 1514.67 69.1958C1514.92 69.5339 1515.14 69.8532 1515.36 70.1725C1515.59 70.4918 1515.81 70.8299 1516.02 71.1492C1516.24 71.4873 1516.45 71.8066 1516.66 72.1447C1516.86 72.4828 1517.07 72.8021 1517.27 73.1214C1517.67 73.7788 1518.06 74.4362 1518.41 75.0749C1518.79 75.7323 1519.13 76.3709 1519.46 77.0095C1520.1 78.2492 1520.68 79.4889 1521.18 80.691" fill="" stroke="white" stroke-width="8" stroke-linecap="round" stroke-linejoin="round"/>
      <path d="M73.0938 80.7074C73.599 79.4865 74.1791 78.2656 74.8154 77.0259C75.1523 76.3873 75.4891 75.7299 75.8634 75.0912C76.2189 74.4526 76.6119 73.7952 77.0049 73.1378C77.2108 72.8185 77.4166 72.4804 77.6225 72.1611C77.8283 71.823 78.0529 71.5037 78.2587 71.1656C78.4833 70.8275 78.6892 70.5082 78.9137 70.1889C79.1383 69.8695 79.3628 69.5315 79.6061 69.2121C79.7184 69.0431 79.8494 68.874 79.9617 68.705C80.0927 68.5359 80.205 68.3669 80.336 68.1979C80.4295 68.0664 80.5231 67.9349 80.6167 67.8034C80.6354 67.7659 80.6728 67.7283 80.6915 67.6907C80.8038 67.5404 80.9348 67.3714 81.0471 67.2211C81.1781 67.0521 81.2904 66.883 81.4401 66.714C81.5711 66.545 81.7208 66.3571 81.8518 66.1881C81.9079 66.1129 81.9828 66.019 82.0389 65.9627C82.0951 65.8875 82.1512 65.8124 82.2073 65.7561C82.3009 65.6434 82.4132 65.4931 82.5629 65.3241C82.6003 65.2677 82.6565 65.2114 82.6939 65.155C84.0038 63.5397 85.4074 61.9055 86.9232 60.2339C88.701 58.2804 90.6285 56.2706 92.8368 54.2045C94.914 52.2511 97.2158 50.2788 99.7234 48.3817C102.137 46.541 104.795 44.7378 107.658 43.0849C110.278 41.5635 113.122 40.1172 116.173 38.8212C116.191 38.8212 116.21 38.8024 116.229 38.8024C118.924 37.6566 121.768 36.6424 124.762 35.7408C127.476 34.9331 130.245 34.2381 133.109 33.6371C134.662 33.3178 136.253 33.0172 137.862 32.7543C138.985 32.5664 140.126 32.3974 141.268 32.2471C141.792 32.172 142.316 32.1156 142.821 32.0593C143.776 31.9466 144.73 31.8527 145.684 31.7775C147.125 31.6649 148.566 31.5709 150.007 31.5146C151.392 31.4582 152.777 31.4395 154.143 31.4395C155.453 31.4395 156.744 31.477 158.017 31.5146C158.84 31.5522 159.645 31.5897 160.449 31.6273" stroke="white" stroke-width="8" stroke-linecap="round" stroke-linejoin="round"/>
      <path d="M66.9355 104.621C67.0478 100.958 67.1601 97.2953 67.2537 93.6139C67.2537 93.426 67.2724 93.257 67.2724 93.0692C67.3098 92.3554 67.4034 91.6604 67.5344 90.9655C67.7028 90.1014 67.9274 89.2374 68.2081 88.411C68.8069 86.7017 69.6491 85.1051 70.6409 83.6589C71.1649 82.8888 71.745 82.1562 72.3438 81.48C72.531 81.2734 72.7181 81.0668 72.9052 80.879C73.3918 80.3718 73.8784 79.8835 74.3836 79.4327C74.4772 79.3388 74.5895 79.2449 74.683 79.1509C74.8702 78.9819 75.0573 78.8128 75.2632 78.6626C75.731 78.2681 76.3673 77.7422 77.0971 77.1412C77.8644 76.5213 78.7814 75.7888 79.8106 74.9811C80.0352 74.7933 80.2785 74.6054 80.5404 74.4176C81.42 73.7414 82.3931 73.0089 83.4785 72.2012C84.8446 71.1869 86.3791 70.1163 88.0446 68.9705C89.654 67.8623 91.357 66.7353 93.1535 65.5708C94.8752 64.4438 96.6717 63.3168 98.4869 62.1898C100.283 61.0816 102.099 59.9735 103.951 58.884C105.785 57.7946 107.619 56.7428 109.491 55.6721C113.196 53.5684 116.939 51.5399 120.756 49.5489C124.555 47.5766 128.391 45.642 132.265 43.8013C136.139 41.9417 140.05 40.1573 143.999 38.4105C147.929 36.6825 151.896 35.0108 155.882 33.3955C163.854 30.1648 171.938 27.1783 180.079 24.3984C188.219 21.6185 196.453 19.0452 204.725 16.6786C208.861 15.4952 213.015 14.3682 217.188 13.2788C219.265 12.7341 221.361 12.2082 223.457 11.6823C223.551 11.6635 223.644 11.6447 223.738 11.6071C225.553 11.1563 227.35 10.7243 229.146 10.2923C230.194 10.0481 231.242 9.80396 232.29 9.55978C233.338 9.3156 234.386 9.07142 235.434 8.84602C236.482 8.62062 237.53 8.37644 238.578 8.13226C239.626 7.90687 240.674 7.66269 241.722 7.43729C242.246 7.32459 242.77 7.2119 243.294 7.0992C243.818 6.9865 244.342 6.8738 244.866 6.7611C245.39 6.6484 245.914 6.5357 246.438 6.42301C246.962 6.31031 247.486 6.19761 248.01 6.1037C248.534 5.991 249.058 5.8783 249.6 5.78438C250.124 5.67168 250.648 5.57777 251.172 5.46507C251.434 5.40873 251.696 5.35237 251.958 5.31481C252.22 5.25846 252.482 5.20211 252.744 5.16455C253.081 5.08941 253.418 5.03306 253.755 4.95793C253.923 4.92037 254.092 4.90158 254.26 4.86402C254.279 4.86402 254.316 4.84523 254.335 4.84523C254.372 4.84523 254.391 4.82645 254.429 4.82645C254.934 4.73254 255.439 4.63862 255.944 4.5447C256.506 4.45079 257.048 4.37566 257.572 4.30053C257.741 4.28175 257.891 4.26296 258.059 4.24417C258.452 4.18783 258.845 4.15026 259.219 4.11269C259.5 4.09391 259.799 4.05635 260.08 4.03757C260.379 4.01878 260.679 4 260.997 4C261.334 4 261.689 4 262.026 4C262.419 4.01878 262.794 4.03756 263.205 4.09391C263.261 4.09391 263.318 4.11269 263.392 4.11269C264.085 4.20661 264.777 4.37566 265.451 4.63862C265.488 4.65741 265.507 4.65741 265.544 4.67619C266.162 4.92037 266.761 5.25846 267.304 5.6529C267.865 6.06613 268.37 6.55449 268.801 7.0992C269.025 7.38094 269.212 7.66269 269.399 7.96322C269.587 8.26375 269.755 8.58306 269.905 8.90237C270.298 9.74761 270.56 10.6304 270.728 11.5508C270.803 12.0204 270.859 12.4899 270.897 12.9595C270.897 13.0159 C270.897 13.0722 270.897 13.1286C270.99 15.5516 271.084 17.9746 271.196 20.3976" fill="" stroke="white" stroke-width="8" stroke-linecap="round" stroke-linejoin="round"/>
      <path d="M1323.04 20.4499C1323.14 18.0269 1323.23 15.6039 1323.34 13.1809C1323.34 13.1245 1323.34 13.0682 1323.34 12.993C1323.36 12.5235 1323.42 12.0538 1323.51 11.5842C1323.66 10.6638 1323.94 9.78107 1324.33 8.93584C1324.48 8.61652 1324.65 8.29722 1324.84 7.99669C1325.03 7.69616 1325.23 7.41442 1325.44 7.13268C1325.87 6.58797 1326.37 6.09968 1326.94 5.68645C1327.48 5.27322 1328.08 4.95394 1328.69 4.70976C1328.73 4.69098 1328.75 4.69102 1328.79 4.67223C1329.46 4.40927 1330.15 4.24021 1330.85 4.14629C1330.9 4.14629 1330.96 4.12749 1331.03 4.12749C1331.45 4.07114 1331.82 4.0524 1332.21 4.03362C1332.57 4.01484 1332.91 4.01484 1333.24 4.03362C1333.54 4.03362 1333.84 4.05237 1334.16 4.07115C1334.44 4.08993 1334.72 4.10873 1335.02 4.14629C1335.39 4.18386 1335.79 4.22141 1336.18 4.27776C1336.35 4.29655 1336.5 4.31536 1336.67 4.33415C1337.19 4.40928 1337.73 4.48438 1338.29 4.57829C1338.8 4.65342 1339.31 4.74733 1339.81 4.86003C1339.85 4.86003 1339.87 4.87883 1339.9 4.87883C1339.92 4.87883 1339.96 4.89763 1339.98 4.89763C1340.15 4.93519 1340.32 4.95393 1340.48 4.9915C1340.82 5.04785 1341.16 5.12304 1341.49 5.19817C1341.76 5.25452 1342.02 5.31087 1342.28 5.34844C1342.54 5.40478 1342.8 5.46102 1343.07 5.49858C1343.59 5.61128 1344.11 5.70522 1344.64 5.81792C1345.16 5.93062 1345.69 6.02449 1346.23 6.13719C1346.75 6.24989 1347.28 6.36255 1347.8 6.45647C1348.33 6.56916 1348.85 6.6819 1349.37 6.7946C1349.9 6.9073 1350.42 7.01998 1350.95 7.13268C1351.47 7.24537 1351.99 7.35805 1352.52 7.47075C1353.57 7.69615 1354.61 7.92158 1355.66 8.16576C1356.71 8.39116 1357.76 8.63532 1358.8 8.8795C1359.85 9.12368 1360.9 9.34907 1361.95 9.59325C1363 9.83743 1364.04 10.0816 1365.09 10.3257C1366.89 10.7577 1368.7 11.1898 1370.5 11.6405C1370.59 11.6593 1370.69 11.6969 1370.78 11.7157C1372.88 12.2416 1374.95 12.7676 1377.05 13.3123C1381.22 14.4018 1385.38 15.5287 1389.51 16.7121C1397.79 19.0787 1406.02 21.6332 1414.16 24.4319C1422.3 27.2118 1430.38 30.1983 1438.36 33.429C1442.34 35.0443 1446.31 36.716 1450.24 38.444C1454.17 40.1721 1458.1 41.9753 1461.97 43.8348C1465.85 45.6943 1469.7 47.6102 1473.48 49.5824C1477.3 51.5734 1481.04 53.602 1484.75 55.7057C1486.62 56.7575 1488.45 57.8281 1490.29 58.9175C1492.14 60.007 1493.96 61.1152 1495.75 62.2234C1497.57 63.3504 1499.35 64.4774 1501.09 65.6044C1502.88 66.769 1504.57 67.8959 1506.19 69.0041C1507.88 70.1499 1509.39 71.2393 1510.76 72.2348C1511.85 73.0237 1512.84 73.775 1513.7 74.4512C1513.94 74.6391 1514.19 74.8269 1514.43 75.0147C1515.46 75.8224 1516.37 76.5549 1517.14 77.1748C1517.87 77.7758 1518.51 78.3205 1518.98 78.6962C1519.16 78.8652 1519.37 79.0155 1519.56 79.1845C1519.65 79.2785 1519.76 79.3724 1519.86 79.4663C1520.36 79.9171 1520.85 80.4054 1521.33 80.9126C1521.52 81.1192 1521.71 81.3071 1521.9 81.5137C1522.49 82.1899 1523.07 82.9225 1523.6 83.6926C1524.59 85.1201 1525.43 86.7354 1526.03 88.4447C1526.31 89.2711 1526.54 90.1353 1526.7 90.9993C1526.84 91.6943 1527 93 1527 93C1527 93 1526.03 97.5 1523.6 99.5301C1523.26 99.8137 1520.58 98.8997 1516 97.0576C1509.11 94.2815 1486 82 1486 82C1486 82 1378.15 29.3778 1323.04 20.4499Z" fill="" stroke="white" stroke-width="8" stroke-linecap="round" stroke-linejoin="round"/>
      <path d="M1067.43 18.9309C1067.39 17.6348 1067.35 16.3388 1067.33 15.0428C1067.32 14.1412 1066.9 13.7843 1066.1 13.5401C1064.77 13.2208 1063.42 12.9391 1062.08 12.7137C1062.04 12.7137 1062.02 12.6949 1061.98 12.6949C1061.95 12.6949 1061.91 12.6761 1061.87 12.6761C1061.4 12.601 1060.93 12.5446 1060.49 12.4883C1060.43 12.4883 1060.37 12.4695 1060.32 12.4695C1060.26 12.4695 1060.19 12.4507 1060.11 12.4507C1060.04 12.4507 1059.98 12.4319 1059.91 12.4319C1053.9 11.6243 1048.04 11.6243 1042.02 12.4319C1041.94 12.4507 1041.88 12.4507 1041.81 12.4507C1041.73 12.4507 1041.68 12.4695 1041.62 12.4695C1041.57 12.4695 1041.51 12.4883 1041.45 12.4883C1040.99 12.5446 1040.54 12.601 1040.09 12.6761C1040.03 12.6761 1039.99 12.6949 1039.96 12.6949C1039.92 12.6949 1039.9 12.7137 1039.86 12.7137C1039.75 12.7325 1039.64 12.7512 1039.51 12.77C1038.27 12.9766 1037.06 13.2396 1035.82 13.5401C1035.09 13.8407 1034.6 14.1412 1034.59 15.0428C1034.55 16.3388 1034.51 17.6348 1034.49 18.9121" stroke="white" stroke-width="8" stroke-linecap="round" stroke-linejoin="round"/>
      <path d="M1562.37 203.572C1562.73 205.413 1563.1 207.329 1563.49 209.282C1563.87 211.236 1564.26 213.227 1564.65 215.312C1565.05 217.397 1565.48 219.575 1565.91 221.905C1566.34 224.215 1566.81 226.675 1567.29 229.286C1567.78 231.897 1568.28 234.696 1568.85 237.682C1569.39 240.688 1569.97 243.881 1570.59 247.318C1571.2 250.755 1571.84 254.399 1572.48 258.099C1573.11 261.8 1573.77 265.556 1574.39 269.294C1575.02 273.032 1575.62 276.751 1576.22 280.395C1576.8 284.039 1577.38 287.608 1577.94 291.327C1578.52 295.046 1579.1 298.934 1579.74 303.197C1580.35 307.48 1581.03 312.138 1581.65 316.759C1582.28 321.379 1582.86 325.944 1583.42 330.47C1583.99 334.997 1584.51 339.468 1585.01 343.975C1585.52 348.483 1585.99 353.01 1586.42 357.537C1586.85 362.064 1587.26 366.59 1587.63 371.061C1588.01 375.531 1588.33 379.945 1588.63 384.321C1588.93 388.698 1589.17 393.037 1589.39 397.563C1589.62 402.09 1589.81 406.842 1589.95 411.876C1590.1 416.891 1590.2 422.188 1590.22 427.71C1590.24 433.232 1590.2 439.018 1590.05 445.028C1589.9 451.039 1589.66 457.312 1589.28 463.623C1588.91 469.935 1588.4 476.321 1587.82 482.313C1587.24 488.304 1586.55 493.92 1585.82 499.198C1585.09 504.476 1584.28 509.435 1583.46 514.112C1582.62 518.77 1581.74 523.166 1580.82 527.373C1579.89 531.58 1578.91 535.638 1577.87 539.657C1576.82 543.677 1575.68 547.677 1574.44 551.678C1573.21 555.698 1571.86 559.717 1570.4 563.775C1568.94 567.832 1567.33 571.908 1565.61 575.984C1563.89 580.059 1562.02 584.117 1560.03 588.099C1558.05 592.081 1555.95 596.006 1553.78 599.763C1551.61 603.519 1549.35 607.145 1547.03 610.582C1544.71 614.019 1542.35 617.287 1539.99 620.349C1537.63 623.411 1535.25 626.266 1532.88 628.952C1530.5 631.638 1528.12 634.173 1525.75 636.54C1523.37 638.907 1521.01 641.142 1518.6 643.283C1516.19 645.424 1513.72 647.509 1511.1 649.576C1510.14 650.327 1509.19 651.078 1508.18 651.829C1504.4 654.684 1500.52 657.37 1496.59 659.906C1492.83 662.31 1488.98 664.602 1485.1 666.724C1480.48 669.26 1475.73 671.664 1470.9 673.881C1467.21 675.571 1463.47 677.149 1459.69 678.633C1454.04 680.849 1448.29 682.84 1442.49 684.606C1433.17 687.442 1424.36 689.471 1414.25 691.217C1407.38 692.401 1400.48 693.359 1393.8 694.129C1392.6 694.26 1391.42 694.392 1390.24 694.523C1381.09 695.519 1372.26 696.176 1363.33 696.646C1354.4 697.115 1345.37 697.416 1335.88 697.604C1326.39 697.792 1316.45 697.867 1306.18 697.885" stroke="white" stroke-width="8" stroke-linecap="round" stroke-linejoin="round"/>
      <path d="M86.1187 651.883C85.4637 651.395 84.8274 650.907 84.1912 650.399C81.59 648.371 79.0824 646.286 76.6683 644.201C74.2729 642.097 71.9711 639.975 69.7068 637.74C67.4237 635.504 65.1593 633.157 62.7827 630.527C60.4247 627.897 57.9545 625.005 55.5217 621.943C53.089 618.881 50.6936 615.632 48.3918 612.289C46.09 608.945 43.8818 605.508 41.7484 601.92C39.6151 598.333 37.5566 594.633 35.5729 590.763C33.5892 586.913 31.6804 582.912 29.8652 578.761C28.0313 574.591 26.2722 570.252 24.6066 565.763C22.9411 561.293 21.3879 556.672 19.9843 552.202C18.5995 547.731 17.3644 543.374 16.2416 539.072C15.1188 534.771 14.1082 530.507 13.1725 526.15C12.2369 521.773 11.3573 517.284 10.5339 512.588C9.7105 507.893 8.94324 502.971 8.23212 497.731C7.521 492.49 6.86603 486.893 6.28591 480.826C5.70578 474.759 5.21922 468.204 4.84494 461.574C4.47067 454.943 4.2461 448.256 4.11511 442.096C3.98411 435.916 3.9841 430.262 4.02153 424.872C4.05896 419.481 4.18995 414.334 4.33966 409.376C4.50809 404.417 4.71395 399.665 4.93851 395.157C5.16308 390.668 5.42507 386.441 5.72449 382.234C6.00519 378.027 6.32333 373.819 6.71631 369.293C7.09059 364.766 7.53972 359.901 8.00757 355.28C8.4567 350.66 8.94324 346.283 9.4298 341.963C9.91636 337.643 10.4216 333.361 10.983 328.871C11.5445 324.382 12.162 319.668 12.7795 315.122C13.3971 310.577 14.0334 306.182 14.6322 302.068C15.2311 297.973 15.8112 294.16 16.3726 290.535C16.934 286.91 17.4767 283.454 18.0568 279.942C18.6182 276.429 19.2171 272.842 19.8534 269.047C20.4896 265.253 21.182 261.271 21.837 257.458C22.492 253.664 23.1282 250.039 23.7458 246.639C24.3634 243.24 24.9248 240.028 25.4862 237.022C26.0289 234.017 26.5529 231.218 27.0394 228.608C27.526 225.978 27.9938 223.536 28.4242 221.245C28.8547 218.953 29.2664 216.831 29.6593 214.821C30.0523 212.792 30.4266 210.876 30.7822 208.998C31.1565 207.12 31.512 205.298 31.8489 203.551C32.3728 200.94 32.822 198.498 33.2898 196.132C33.8325 193.371 34.3752 190.703 34.9179 188.13C35.4232 185.67 35.9097 183.303 36.3963 181.011C36.8641 178.72 37.332 176.522 37.7811 174.381C38.2677 172.089 38.7355 169.873 39.2034 167.713C39.6712 165.553 40.1203 163.43 40.5695 161.383C41.4677 157.251 42.3473 153.325 43.1894 149.512C44.0502 145.699 44.8736 141.999 45.7344 138.336C46.5953 134.674 47.5123 131.067 48.3731 127.442C48.3918 127.348 48.4105 127.273 48.4292 127.179C48.5789 126.559 48.7848 125.921 49.0468 125.282C49.3088 124.643 49.6269 124.005 49.9825 123.347C50.0386 123.254 50.0947 123.141 50.1509 123.047C50.6187 122.22 51.2924 121.112 52.1907 119.741C53.1638 118.295 54.3053 116.755 55.6902 115.102C56.1393 114.576 56.5884 114.05 57.075 113.505C57.9733 112.51 58.9651 111.495 60.013 110.481C61.5288 109.016 63.2318 107.513 65.0096 106.048C66.0389 105.203 67.1243 104.358 68.2471 103.494C69.0331 102.893 69.8378 102.292 70.6612 101.691C72.6635 100.207 74.6846 98.7793 76.9115 97.2578C78.7268 96.0181 80.5794 94.7597 82.4882 93.5012C82.7315 93.351 82.9748 93.1819 83.2181 93.0316C84.2099 92.393 85.2017 91.7356 86.231 91.097C87.2789 90.4208 88.3643 89.7446 89.4497 89.0872C90.5538 88.3922 91.6954 87.716 92.8369 87.0211C93.9223 86.3637 95.0077 85.725 96.0931 85.0676C97.0849 84.4854 98.0955 83.8843 99.106 83.302C100.079 82.7385 101.052 82.175 102.044 81.6116C103.055 81.0293 104.084 80.447 105.094 79.8835C106.199 79.2637 107.303 78.6438 108.425 78.024C109.661 77.3478 110.896 76.6716 112.131 75.9954C113.516 75.2441 114.9 74.5116 116.285 73.7602C117.82 72.9526 119.354 72.1449 120.889 71.3372C122.592 70.4544 124.295 69.5716 126.016 68.7076C127.925 67.7309 129.834 66.773 131.762 65.8338C133.876 64.782 135.991 63.7677 138.105 62.7346C140.258 61.7015 142.428 60.6685 144.599 59.673C146.564 58.7526 148.548 57.851 150.531 56.9494C152.253 56.1605 153.993 55.3904 155.734 54.6203C157.25 53.9441 158.784 53.2867 160.319 52.6293C161.666 52.0471 163.013 51.4836 164.361 50.9013C165.54 50.3941 166.737 49.9058 167.916 49.4174C168.964 48.9854 170.012 48.5534 171.06 48.1214C171.996 47.7457 172.913 47.3701 173.849 46.9944C174.672 46.6563 175.496 46.337 176.319 45.9989C177.049 45.7172 177.797 45.4166 178.527 45.1349C179.182 44.8719 179.837 44.6278 180.492 44.3648C180.623 44.3084 180.754 44.2709 180.866 44.2145C181.615 43.9328 182.382 43.6322 183.131 43.3505C183.823 43.0875 184.497 42.8246 185.189 42.5804C185.863 42.3174 186.555 42.0733 187.229 41.8103C187.959 41.5473 188.689 41.2656 189.419 41.0026C190.205 40.7209 191.009 40.4204 191.795 40.1386C192.656 39.8381 193.517 39.5188 194.378 39.2182C195.313 38.8801 196.249 38.5608 197.185 38.2415C198.195 37.8846 199.206 37.5466 200.235 37.2085C201.339 36.8328 202.443 36.4759 203.529 36.1002C204.726 35.7058 205.924 35.3114 207.122 34.9357C208.413 34.5225 209.723 34.1093 211.033 33.7148C212.436 33.2828 213.859 32.8508 215.281 32.4188C216.815 31.968 218.35 31.5172 219.903 31.0664C221.587 30.5968 223.253 30.1272 224.937 29.6577C226.809 29.1505 228.68 28.6622 230.551 28.1738C237.719 26.3519 245.073 24.6426 253.12 23.1963C261.167 21.75 269.925 20.5291 277.523 19.8154C285.121 19.1016 291.596 18.8762 297.565 18.8574C630.52 18.8574 963.475 18.8574 1296.43 18.8574C1302.64 18.8762 1309.29 19.1016 1317.13 19.8717C1324.97 20.6418 1334.03 21.9379 1342.02 23.4029C1350.01 24.868 1356.95 26.5209 1363.44 28.1738C1365.37 28.6622 1367.28 29.1693 1369.21 29.6952C1370.93 30.1648 1372.65 30.6344 1374.37 31.1415C1376.02 31.6111 1377.65 32.0995 1379.29 32.5878C1380.83 33.0574 1382.38 33.527 1383.92 33.9966C1385.32 34.4286 1386.7 34.8794 1388.11 35.3302C1389.38 35.7434 1390.65 36.1566 1391.93 36.5886C1393.11 36.9831 1394.27 37.3775 1395.43 37.7719C1396.51 38.1476 1397.58 38.5045 1398.66 38.8989C1399.65 39.237 1400.65 39.5939 1401.64 39.9508C1402.56 40.2701 1403.45 40.6082 1404.35 40.9275C1405.18 41.228 1406 41.5286 1406.84 41.8479C1407.61 42.1296 1408.36 42.4114 1409.11 42.6931C1409.8 42.9561 1410.49 43.219 1411.18 43.482C1411.84 43.7262 1412.47 43.9703 1413.13 44.2333C1413.26 44.2897 1413.39 44.3272 1413.5 44.3836C1417.99 46.1116 1422.65 47.9899 1427.73 50.1124C1432.8 52.2349 1438.28 54.6203 1443.48 56.9682C1448.68 59.3161 1453.61 61.6264 1458.6 64.0682C1463.62 66.51 1468.71 69.0645 1473.65 71.6565C1478.59 74.2298 1483.38 76.8407 1487.29 79.0195C1491.2 81.1983 1494.2 82.9452 1496.8 84.4478C1499.38 85.9692 1501.55 87.2652 1503.93 88.7303C1506.02 90.0264 1508.29 91.4351 1510.31 92.7499C1510.59 92.9377 1510.87 93.1068 1511.13 93.2946C1511.24 93.3697 1511.38 93.4449 1511.49 93.52C1513.42 94.7972 1515.29 96.0557 1517.12 97.3142C1519.33 98.8356 1521.35 100.263 1523.37 101.747C1524.19 102.348 1525 102.949 1525.79 103.55C1526.91 104.414 1527.97 105.259 1529.02 106.105C1530.8 107.57 1532.5 109.072 1534.02 110.537C1535.07 111.552 1536.06 112.566 1536.96 113.562C1537.44 114.106 1537.91 114.632 1538.34 115.158C1539.73 116.811 1540.87 118.351 1541.84 119.797C1542.76 121.15 1543.41 122.277 1543.88 123.103C1543.94 123.197 1543.99 123.291 1544.05 123.404C1544.42 124.061 1544.72 124.7 1544.99 125.338C1545.25 125.977 1545.45 126.616 1545.6 127.217C1545.62 127.311 1545.64 127.386 1545.66 127.48C1546.52 131.124 1547.44 134.73 1548.3 138.374C1549.16 142.037 1550 145.737 1550.84 149.55C1551.7 153.363 1552.56 157.288 1553.48 161.421C1553.93 163.487 1554.4 165.59 1554.85 167.751C1555.32 169.911 1555.78 172.127 1556.27 174.419C1556.72 176.56 1557.19 178.776 1557.65 181.049C1558.12 183.34 1558.61 185.707 1559.13 188.168C1559.66 190.741 1560.22 193.408 1560.76 196.169C1561.23 198.536 1561.7 200.959 1562.2 203.589" stroke="white" stroke-width="8" stroke-linecap="round" stroke-linejoin="round"/>
    </g>
  </g>
</svg>
