<?xml version="1.0"?>
<svg xmlns="http://www.w3.org/2000/svg" viewBox="0 0 36 36" fill="none">
  <path d="M30.85 19.94L34 18.05L30.85 16.16C30.4477 13.3855 29.1593 10.8154 27.1769 8.83306C25.1946 6.85069 22.6245 5.56228 19.85 5.15999L18 2.04999L16.11 5.19999C13.3355 5.60228 10.7654 6.89069 8.78307 8.87306C6.80071 10.8554 5.51229 13.4255 5.11 16.2L2 18.05L5.15 19.94C5.55229 22.7145 6.84071 25.2846 8.82307 27.2669C10.8054 29.2493 13.3755 30.5377 16.15 30.94L18 34.05L19.89 30.9C22.6514 30.4919 25.2082 29.2059 27.182 27.232C29.1559 25.2582 30.4419 22.7014 30.85 19.94ZM23.65 18.68C23.4322 19.9266 22.8353 21.0756 21.9404 21.9704C21.0456 22.8652 19.8966 23.4622 18.65 23.68L11 25L12.35 17.32C12.5678 16.0734 13.1647 14.9244 14.0596 14.0295C14.9544 13.1347 16.1034 12.5377 17.35 12.32L25 11L23.65 18.68ZM16.23 16.28C16.5799 15.931 17.0254 15.6935 17.5101 15.5976C17.9949 15.5016 18.4973 15.5515 18.9537 15.7409C19.4101 15.9303 19.8002 16.2507 20.0746 16.6617C20.3491 17.0727 20.4955 17.5558 20.4955 18.05C20.4955 18.5442 20.3491 19.0273 20.0746 19.4383C19.8002 19.8492 19.4101 20.1697 18.9537 20.3591C18.4973 20.5485 17.9949 20.5984 17.5101 20.5024C17.0254 20.4065 16.5799 20.169 16.23 19.82C15.7647 19.3484 15.5037 18.7125 15.5037 18.05C15.5037 17.3875 15.7647 16.7516 16.23 16.28Z" fill="currentColor"/>
</svg>
