<?xml version="1.0"?>
<svg xmlns="http://www.w3.org/2000/svg" viewBox="0 0 44.875 32">
  <path fill="currentColor" d="M43.566,10.77c-0.084,0.055-0.22,0.083-0.412,0.083
				c-0.381,0.082-0.997,0.137-1.844,0.165c-0.875,0.025-1.82,0.052-2.831,0.079c-1.013,0.085-2.01,0.126-2.997,0.126
				c-0.981,0.025-1.789,0.039-2.422,0.039c-0.709,0-1.282,0.04-1.721,0.125c-0.437,0.08-0.778,0.148-1.024,0.205
				c-0.217,0.137-0.356,0.275-0.412,0.41c-0.054,0.135-0.081,0.315-0.081,0.534v0.33c0,0.246,0.014,0.545,0.043,0.9
				c0.027,0.327,0.067,0.643,0.123,0.942c0.078,0.383,0.162,0.753,0.244,1.109v0.123l-0.574,0.656v0.124
				c-0.191,0.109-0.685,0.164-1.479,0.164c-1.584,0.082-2.922,0.105-4.018,0.082c-1.039,0-1.929-0.028-2.667-0.082
				c-0.655-0.083-1.176-0.164-1.558-0.246c-0.329-0.112-0.56-0.207-0.697-0.288c-0.219,0-0.44,0.042-0.658,0.125
				c-0.216,0.164-0.477,0.438-0.779,0.82c-0.354,0.41-0.766,1.039-1.23,1.887c-0.439,0.903-0.945,2.107-1.517,3.609
				c-0.602,1.475-1.272,3.336-2.01,5.577l-0.083,0.084c0,0.656-0.179,1.065-0.533,1.231c-0.191,0.189-0.344,0.231-0.452,0.123H2.79
				c0-0.136,0.016-0.262,0.042-0.369c0.106-0.275,0.166-0.493,0.166-0.657H2.339c-0.11,0-0.22-0.012-0.327-0.041
				c-0.631-0.055-1.122-0.342-1.477-0.859c-0.193-0.305-0.288-0.686-0.288-1.15c0-0.573,0.08-1.067,0.245-1.477
				c0.138-0.466,0.205-0.726,0.205-0.779v0.082c0.028-0.028,0.205-0.26,0.534-0.698c0.274-0.438,0.629-0.984,1.067-1.642
				c0.466-0.681,0.943-1.409,1.437-2.172c0.574-0.767,1.106-1.518,1.599-2.258c0.545-1.039,0.972-1.968,1.27-2.788
				c0.277-0.822,0.411-1.544,0.411-2.176c0-0.409-0.067-0.819-0.202-1.229c-0.249-0.521-0.591-0.931-1.026-1.23
				C5.376,10.115,4.95,9.882,4.514,9.663C4.13,9.583,3.871,9.405,3.735,9.13C3.623,8.83,3.57,8.5,3.57,8.146
				c0-0.134,0.016-0.274,0.041-0.41c0-0.081,0-0.178,0-0.288L3.57,7.367V5.191c0-0.356,0-0.654,0-0.903
				c0-0.246-0.041-0.408-0.124-0.492H3.405c-0.027,0-0.04-0.041-0.04-0.12c0-0.03,0.013-0.07,0.04-0.124l0.041-0.085
				c0.028-0.053,0.152-0.133,0.37-0.243c0.193-0.082,0.781-0.151,1.763-0.207c0.056-0.082,0.084-0.164,0.084-0.247
				c0-0.055,0.041-0.108,0.125-0.163c0.053-0.11,0.105-0.205,0.163-0.289l0.121-0.121L7.26,2.239l0.126,0.287
				C7.438,2.58,7.466,2.662,7.466,2.771c0.028,0.083,0.042,0.166,0.042,0.247h33.884l0.081-0.164
				c0.054-0.055,0.096-0.083,0.124-0.083l0.779-0.245c0.028,0.054,0.083,0.11,0.165,0.164l0.204,0.202h1.477l0.288,4.475
				C44.508,9.25,44.195,10.387,43.566,10.77z M27.361,11.592h-5.827c-0.079,0-0.177,0.066-0.284,0.204
				c-0.139,0.138-0.206,0.328-0.206,0.577v1.968c0,0.301,0.067,0.504,0.206,0.613c0.106,0.137,0.205,0.208,0.284,0.208h5.827
				c0.139,0,0.249-0.071,0.328-0.208c0.137-0.109,0.208-0.313,0.208-0.613v-1.968c0-0.249-0.071-0.438-0.208-0.577
				C27.61,11.658,27.5,11.592,27.361,11.592z"/>
</svg>
