<?xml version="1.0"?>
<svg xmlns="http://www.w3.org/2000/svg" viewBox="0 0 36 36" fill="none">
  <path fill="currentColor" fill-rule="evenodd" clip-rule="evenodd" d="M2 0C0.895431 0 0 0.895431 0 2V34C0 35.1046 0.895431 36 2 36H34C35.1046 36 36 35.1046 36 34V2C36 0.895431 35.1046 0 34 0H2ZM14.6934 24.75H17.6274L14.6574 19.98C15.4254 19.644 16.0194 19.152 16.4394 18.504C16.8714 17.856 17.0874 17.046 17.0874 16.074C17.0874 14.838 16.6794 13.878 15.8634 13.194C15.0474 12.498 13.7754 12.15 12.0474 12.15H7.33142V24.75H9.97742V20.502H11.8494H12.1554L14.6934 24.75ZM9.97742 18.234V14.4H11.8854C12.7134 14.4 13.3134 14.556 13.6854 14.868C14.0694 15.168 14.2614 15.624 14.2614 16.236C14.2614 16.86 14.0634 17.352 13.6674 17.712C13.2834 18.06 12.7434 18.234 12.0474 18.234H9.97742ZM28.2797 14.4V12.15H20.2337V18.648L21.9077 19.566C22.2797 19.266 22.6577 19.044 23.0417 18.9C23.4257 18.744 23.8457 18.666 24.3017 18.666C24.9137 18.666 25.3937 18.828 25.7417 19.152C26.1017 19.476 26.2817 19.944 26.2817 20.556C26.2817 21.252 26.0477 21.786 25.5797 22.158C25.1117 22.53 24.4517 22.716 23.5997 22.716C22.4717 22.716 21.4457 22.404 20.5217 21.78L19.5857 23.796C20.0537 24.192 20.6417 24.498 21.3497 24.714C22.0577 24.93 22.8197 25.038 23.6357 25.038C24.7397 25.038 25.6937 24.852 26.4977 24.48C27.3137 24.096 27.9317 23.562 28.3517 22.878C28.7837 22.194 28.9997 21.396 28.9997 20.484C28.9997 19.26 28.6577 18.33 27.9737 17.694C27.3017 17.046 26.4017 16.722 25.2737 16.722C24.8297 16.722 24.3857 16.776 23.9417 16.884C23.5097 16.98 23.1197 17.136 22.7717 17.352V14.4H28.2797Z"/>
</svg>
