<?xml version="1.0"?>
<svg xmlns="http://www.w3.org/2000/svg" width="50" height="50" viewBox="0 0 50 50" fill="none">
  <path fill="currentColor" fill-rule="evenodd" clip-rule="evenodd" d="M27.6095 11.4453C27.1763 10.6163 26.6574 9.96908 26.0365 9.67275C25.709 9.51644 25.3616 9.46251 25.011 9.52586C24.6658 9.58826 24.3503 9.75823 24.068 9.99686C23.5133 10.4657 23.0301 11.2466 22.6146 12.2528C22.2176 13.2144 21.8779 14.3942 21.6033 15.7281L19.2028 15.4227L21.4354 20.7471L22.5365 19.2991L24.597 16.109L22.5984 15.8547C22.8612 14.5949 23.1795 13.505 23.5389 12.6344C23.9304 11.6863 24.3382 11.0778 24.7135 10.7606C24.8962 10.6062 25.0554 10.534 25.1888 10.5099C25.317 10.4868 25.4523 10.502 25.6058 10.5752C25.9377 10.7336 26.3353 11.1566 26.7403 11.9414C26.8189 12.0937 26.8965 12.257 26.9727 12.4311L27.6095 11.4453ZM27.2437 35.8894L27.9123 36.9158C27.8204 37.1286 27.726 37.3292 27.629 37.5171C27.1918 38.3641 26.6668 39.0264 26.0365 39.3271C25.709 39.4835 25.3616 39.5374 25.011 39.474C24.6658 39.4116 24.3503 39.2417 24.068 39.003C23.5133 38.5342 23.0301 37.7533 22.6146 36.7471C22.2176 35.7855 21.8779 34.6057 21.6033 33.2718L19.2028 33.5772L21.4354 28.2528L24.9301 32.8485L22.5984 33.1452C22.8612 34.405 23.1795 35.4949 23.5389 36.3655C23.9304 37.3136 24.3382 37.9221 24.7135 38.2393C24.8962 38.3937 25.0554 38.4659 25.1888 38.49C25.317 38.5131 25.4523 38.4979 25.6058 38.4246C25.9377 38.2663 26.3353 37.8433 26.7403 37.0585C26.9142 36.7217 27.0827 36.3312 27.2437 35.8894Z"/>
</svg>
