<?xml version="1.0"?>
<svg xmlns="http://www.w3.org/2000/svg" viewBox="0 0 725 195" fill="none">
  <path stroke="currentColor" d="M312.794 159.841C317.981 161.073 324.762 161.112 333.546 158.703L333.684 158.664C328.253 170.415 317.302 171.009 313.477 170.842" stroke-width="0.787979" stroke-miterlimit="10"/>
  <path stroke="currentColor" d="M453.588 54.9077C453.588 54.9077 455.425 51.7981 462.193 50.8475C466.918 50.1842 487.367 50.5518 487.367 50.5518C487.367 50.5518 489.753 50.894 489.753 52.0939M714.443 54.9077C714.443 54.9077 712.606 51.7981 705.838 50.8475C701.113 50.1842 680.663 50.5518 680.663 50.5518C680.663 50.5518 678.278 50.894 678.278 52.0939M474.895 119.528H496.787C498.869 119.528 500.562 117.838 500.558 115.751V93.8489C500.558 91.7618 498.869 90.0718 496.783 90.0718H474.895C472.809 90.0718 471.12 91.7618 471.12 93.8489V104.8M488.989 160C488.989 158.608 488.558 157.249 487.756 156.111L477.41 141.424M723.473 90.1487H710.938C708.237 90.1487 706.047 92.3385 706.047 95.0398V113.908C706.047 117.942 704.8 121.877 702.476 125.175L680.682 156.111C679.88 157.249 679.45 158.608 679.45 160M456.444 65.9988H457.806C458.481 65.9988 459.029 65.4513 459.029 64.776V60.0984C459.029 59.7918 459.234 59.5232 459.53 59.4426C461.403 58.9316 463.38 58.9316 465.254 59.4426C465.549 59.5232 465.755 59.7918 465.755 60.0984V64.776C465.755 65.4513 466.302 65.9988 466.977 65.9988H471.655C471.962 65.9988 472.231 66.2039 472.311 66.4997C472.822 68.3733 472.822 70.3495 472.311 72.2232C472.231 72.5189 471.962 72.7241 471.655 72.7241H466.977C466.302 72.7241 465.755 73.2715 465.755 73.9468V78.6245C465.755 78.931 465.549 79.1996 465.254 79.2803C464.865 79.3862 464.472 79.4701 464.077 79.5321M497.602 131.227H488.799C487.165 131.227 485.839 129.9 485.839 128.265C485.839 126.63 487.165 125.304 488.799 125.304H497.602C499.236 125.304 500.562 126.63 500.562 128.265C500.562 129.9 499.236 131.227 497.602 131.227ZM479.642 60.1726H475.175C474.166 60.1726 473.351 59.3529 473.351 58.3474C473.351 57.3376 474.17 56.5222 475.175 56.5222H479.642C480.651 56.5222 481.466 57.3419 481.466 58.3474C481.47 59.3529 480.651 60.1726 479.642 60.1726ZM498.225 73.8328C498.225 79.0035 494.036 83.1952 488.868 83.1952C483.701 83.1952 479.512 79.0035 479.512 73.8328C479.512 68.662 483.701 64.4703 488.868 64.4703C494.036 64.4703 498.225 68.662 498.225 73.8328ZM495.209 74.0041C495.209 77.5811 492.311 80.4809 488.736 80.4809C485.161 80.4809 482.263 77.5811 482.263 74.0041C482.263 70.427 485.161 67.5272 488.736 67.5272C492.311 67.5272 495.209 70.427 495.209 74.0041ZM500.655 143.733H498.51C498.185 143.733 497.919 143.467 497.919 143.141C497.919 142.816 498.185 142.55 498.51 142.55H500.655C500.98 142.55 501.246 142.816 501.246 143.141C501.251 143.471 500.985 143.733 500.655 143.733ZM496.572 143.733H494.427C494.102 143.733 493.836 143.467 493.836 143.141C493.836 142.816 494.102 142.55 494.427 142.55H496.572C496.897 142.55 497.163 142.816 497.163 143.141C497.163 143.471 496.901 143.733 496.572 143.733ZM492.489 143.733H490.344C490.019 143.733 489.753 143.467 489.753 143.141C489.753 142.816 490.019 142.55 490.344 142.55H492.489C492.814 142.55 493.08 142.816 493.08 143.141C493.08 143.471 492.814 143.733 492.489 143.733ZM500.655 137.906H498.51C498.185 137.906 497.919 137.64 497.919 137.315C497.919 136.99 498.185 136.724 498.51 136.724H500.655C500.98 136.724 501.246 136.99 501.246 137.315C501.25 137.64 500.984 137.906 500.655 137.906ZM496.585 137.906H494.44C494.115 137.906 493.849 137.64 493.849 137.315C493.849 136.99 494.115 136.724 494.44 136.724H496.585C496.91 136.724 497.176 136.99 497.176 137.315C497.176 137.64 496.91 137.906 496.585 137.906ZM492.51 137.906H490.365C490.04 137.906 489.774 137.64 489.774 137.315C489.774 136.99 490.04 136.724 490.365 136.724H492.51C492.835 136.724 493.101 136.99 493.101 137.315C493.101 137.64 492.839 137.906 492.51 137.906ZM488.44 137.906H486.295C485.97 137.906 485.704 137.64 485.704 137.315C485.704 136.99 485.97 136.724 486.295 136.724H488.44C488.765 136.724 489.031 136.99 489.031 137.315C489.031 137.64 488.765 137.906 488.44 137.906ZM500.655 140.817H496.505C496.179 140.817 495.913 140.551 495.913 140.226C495.913 139.901 496.179 139.635 496.505 139.635H500.655C500.98 139.635 501.246 139.901 501.246 140.226C501.25 140.556 500.984 140.817 500.655 140.817ZM494.604 140.817H492.46C492.134 140.817 491.868 140.551 491.868 140.226C491.868 139.901 492.134 139.635 492.46 139.635H494.604C494.93 139.635 495.196 139.901 495.196 140.226C495.196 140.556 494.93 140.817 494.604 140.817ZM490.437 140.817H488.292C487.967 140.817 487.701 140.551 487.701 140.226C487.701 139.901 487.967 139.635 488.292 139.635H490.437C490.762 139.635 491.028 139.901 491.028 140.226C491.028 140.556 490.762 140.817 490.437 140.817ZM671.847 119.528H693.735C695.821 119.528 697.51 117.838 697.51 115.751V93.8489C697.51 91.7618 695.821 90.0718 693.735 90.0718H671.847C669.761 90.0718 668.072 91.7618 668.072 93.8489V115.751C668.072 117.838 669.761 119.528 671.847 119.528ZM671.032 131.227H679.836C681.47 131.227 682.796 129.9 682.796 128.265C682.796 126.63 681.47 125.304 679.836 125.304H671.032C669.398 125.304 668.072 126.63 668.072 128.265C668.072 129.9 669.398 131.227 671.032 131.227ZM688.988 60.1726H693.455C694.464 60.1726 695.279 59.3529 695.279 58.3474C695.279 57.3376 694.46 56.5222 693.455 56.5222H688.988C687.979 56.5222 687.164 57.3419 687.164 58.3474C687.164 59.3529 687.979 60.1726 688.988 60.1726ZM688.849 73.9832C688.849 79.154 684.66 83.3457 679.493 83.3457C674.325 83.3457 670.136 79.154 670.136 73.9832C670.136 68.8125 674.325 64.6208 679.493 64.6208C684.66 64.6208 688.849 68.8125 688.849 73.9832ZM686.021 73.9832C686.021 77.5603 683.123 80.46 679.548 80.46C675.974 80.46 673.076 77.5603 673.076 73.9832C673.076 70.4062 675.974 67.5064 679.548 67.5064C683.123 67.5064 686.021 70.4062 686.021 73.9832ZM667.975 143.733H670.12C670.445 143.733 670.711 143.467 670.711 143.141C670.711 142.816 670.445 142.55 670.12 142.55H667.975C667.65 142.55 667.384 142.816 667.384 143.141C667.384 143.471 667.646 143.733 667.975 143.733ZM672.058 143.733H674.203C674.528 143.733 674.794 143.467 674.794 143.141C674.794 142.816 674.528 142.55 674.203 142.55H672.058C671.733 142.55 671.467 142.816 671.467 143.141C671.467 143.471 671.733 143.733 672.058 143.733ZM676.145 143.733H678.29C678.615 143.733 678.881 143.467 678.881 143.141C678.881 142.816 678.615 142.55 678.29 142.55H676.145C675.82 142.55 675.554 142.816 675.554 143.141C675.55 143.471 675.816 143.733 676.145 143.733ZM667.975 137.906H670.12C670.445 137.906 670.711 137.64 670.711 137.315C670.711 136.99 670.445 136.724 670.12 136.724H667.975C667.65 136.724 667.384 136.99 667.384 137.315C667.384 137.64 667.646 137.906 667.975 137.906ZM672.046 137.906H674.19C674.516 137.906 674.782 137.64 674.782 137.315C674.782 136.99 674.516 136.724 674.19 136.724H672.046C671.72 136.724 671.454 136.99 671.454 137.315C671.454 137.64 671.72 137.906 672.046 137.906ZM676.12 137.906H678.265C678.59 137.906 678.856 137.64 678.856 137.315C678.856 136.99 678.59 136.724 678.265 136.724H676.12C675.795 136.724 675.529 136.99 675.529 137.315C675.529 137.64 675.795 137.906 676.12 137.906ZM680.195 137.906H682.339C682.665 137.906 682.931 137.64 682.931 137.315C682.931 136.99 682.665 136.724 682.339 136.724H680.195C679.869 136.724 679.603 136.99 679.603 137.315C679.603 137.64 679.865 137.906 680.195 137.906ZM667.975 140.817H672.126C672.451 140.817 672.717 140.551 672.717 140.226C672.717 139.901 672.451 139.634 672.126 139.634H667.975C667.65 139.634 667.384 139.901 667.384 140.226C667.384 140.556 667.646 140.817 667.975 140.817ZM674.03 140.817H676.175C676.5 140.817 676.766 140.551 676.766 140.226C676.766 139.901 676.5 139.634 676.175 139.634H674.03C673.705 139.634 673.439 139.901 673.439 140.226C673.435 140.556 673.701 140.817 674.03 140.817ZM678.197 140.817H680.342C680.668 140.817 680.934 140.551 680.934 140.226C680.934 139.901 680.668 139.634 680.342 139.634H678.197C677.872 139.634 677.606 139.901 677.606 140.226C677.606 140.556 677.868 140.817 678.197 140.817ZM710.938 61.2605C710.938 63.5397 709.091 65.3874 706.811 65.3874C704.532 65.3874 702.684 63.5397 702.684 61.2605C702.684 58.9813 704.532 57.1336 706.811 57.1336C709.091 57.1336 710.938 58.9813 710.938 61.2605ZM710.938 77.6285C710.938 79.9077 709.091 81.7554 706.811 81.7554C704.532 81.7554 702.684 79.9077 702.684 77.6285C702.684 75.3493 704.532 73.5016 706.811 73.5016C709.091 73.5016 710.938 75.3493 710.938 77.6285ZM719.039 69.5143C719.039 71.7935 717.191 73.6411 714.911 73.6411C712.632 73.6411 710.784 71.7935 710.784 69.5143C710.784 67.2351 712.632 65.3874 714.911 65.3874C717.191 65.3874 719.039 67.2351 719.039 69.5143ZM702.684 69.5143C702.684 71.7935 700.836 73.6411 698.557 73.6411C696.277 73.6411 694.43 71.7935 694.43 69.5143C694.43 67.2351 696.277 65.3874 698.557 65.3874C700.836 65.3874 702.684 67.2351 702.684 69.5143ZM663.654 155.966H504.66C504.107 155.966 503.663 155.518 503.663 154.969V57.685C503.663 57.1315 504.111 56.6879 504.66 56.6879H663.65C664.203 56.6879 664.646 57.1358 664.646 57.685V154.969C664.65 155.518 664.203 155.966 663.654 155.966ZM514.058 62.3931H654.703V150.256H514.058V62.3931Z" stroke-opacity="0.7" stroke-width="0.405526" stroke-miterlimit="10"/>
  <path stroke="currentColor" d="M475.55 159.893C480.574 160.153 486.616 160.153 494.037 160.153H674.638C694.608 160.153 704.593 160.153 711.634 155.086C713.909 153.449 715.914 151.466 717.577 149.21C722.723 142.228 722.835 132.244 723.06 112.276L723.342 87.2437C723.509 72.4216 723.593 65.0105 719.862 59.8029C718.658 58.1218 717.195 56.6423 715.528 55.4193C710.362 51.6309 702.95 51.6309 688.126 51.6309H480.548C465.724 51.6309 458.312 51.6309 453.147 55.4193C451.479 56.6423 450.016 58.1218 448.812 59.8029C448.633 60.0533 448.462 60.3088 448.3 60.5699" stroke-width="1.21658"/>
  <path stroke="currentColor" opacity="0.7" d="M723.473 76.3928L722.527 71.2306C720.773 61.6486 712.422 54.6885 702.68 54.6885H465.758C459.99 54.6885 454.71 57.1285 450.998 61.1081M501.707 74.0391C501.707 81.1808 495.917 86.9702 488.775 86.9702C481.633 86.9702 475.843 81.1808 475.843 74.0391C475.843 66.8975 481.633 61.1081 488.775 61.1081C495.917 61.1081 501.707 66.8975 501.707 74.0391ZM692.473 73.9617C692.473 81.1033 686.684 86.8927 679.541 86.8927C672.399 86.8927 666.61 81.1033 666.61 73.9617C666.61 66.82 672.399 61.0306 679.541 61.0306C686.684 61.0306 692.473 66.82 692.473 73.9617Z" stroke-width="0.405526" stroke-miterlimit="10"/>
  <path fill="currentColor" fill-rule="evenodd" clip-rule="evenodd" d="M529.038 57.1329C529.375 57.1329 529.649 56.8592 529.649 56.5215C529.649 56.1839 529.375 55.9102 529.038 55.9102C528.7 55.9102 528.426 56.1839 528.426 56.5215C528.426 56.8592 528.7 57.1329 529.038 57.1329ZM640.318 57.1329C640.656 57.1329 640.929 56.8592 640.929 56.5215C640.929 56.1839 640.656 55.9102 640.318 55.9102C639.98 55.9102 639.707 56.1839 639.707 56.5215C639.707 56.8592 639.98 57.1329 640.318 57.1329Z"/>
  <path stroke="currentColor" d="M302.828 106.5C304.868 98.1362 306.868 91.385 307.709 88.267C311.01 76.0179 313.362 73.6658 314.777 71.7746C316.191 69.8835 319.004 64.6828 319.004 64.6828L320.888 64.21V62.3268C320.888 62.3268 333.61 57.1419 342.092 61.3851V63.2684C342.092 63.2684 345.878 64.2179 346.82 65.6323H427.6C428.557 64.21 432.328 63.2684 432.328 63.2684V61.3851C440.806 57.1419 453.532 62.3268 453.532 62.3268V64.21L455.415 64.6828C455.415 64.6828 458.248 69.8835 459.659 71.7668C461.069 73.65 463.425 76.01 466.727 88.2592C470.024 100.512 491.237 168.838 462.491 170.721C462.491 170.721 447.417 173.081 440.822 158.472C434.227 143.863 432.343 139.624 430.929 134.439C430.929 134.439 429.518 130.66 427.631 132.075C425.744 133.489 416.32 141.972 403.598 131.602H370.869C358.147 141.972 348.719 133.481 346.836 132.075C344.952 130.668 343.538 134.439 343.538 134.439C342.124 139.624 340.232 143.859 333.641 158.472C328.535 169.791 318.338 170.924 314 170.86" stroke-width="1.18197" stroke-miterlimit="10"/>
  <path stroke="currentColor" d="M440.854 158.669L440.991 158.708C469.918 166.639 477.112 148.031 477.238 147.677C476.844 160.284 473.023 170.044 462.421 170.737C462.432 170.721 447.504 173.05 440.854 158.669Z" stroke-width="0.787979" stroke-miterlimit="10"/>
  <path stroke="currentColor" opacity="0.7" d="M358.506 137.306C368.069 137.306 375.822 129.554 375.822 119.991C375.822 110.427 368.069 102.675 358.506 102.675C348.943 102.675 341.19 110.427 341.19 119.991C341.19 129.554 348.943 137.306 358.506 137.306Z" stroke-width="0.295492" stroke-miterlimit="10"/>
  <path stroke="currentColor" d="M358.506 130.345C364.659 130.345 369.648 125.356 369.648 119.203C369.648 113.049 364.659 108.061 358.506 108.061C352.352 108.061 347.364 113.049 347.364 119.203C347.364 125.356 352.352 130.345 358.506 130.345Z" stroke-width="0.787979" stroke-miterlimit="10"/>
  <path stroke="currentColor" opacity="0.7" d="M358.506 126.133C362.333 126.133 365.436 123.03 365.436 119.203C365.436 115.375 362.333 112.272 358.506 112.272C354.678 112.272 351.575 115.375 351.575 119.203C351.575 123.03 354.678 126.133 358.506 126.133Z" stroke-width="0.39399" stroke-miterlimit="10"/>
  <path stroke="currentColor" opacity="0.7" d="M330.706 114.176C342.351 114.176 351.792 104.735 351.792 93.0893C351.792 81.4436 342.351 72.0029 330.706 72.0029C319.06 72.0029 309.62 81.4436 309.62 93.0893C309.62 104.735 319.06 114.176 330.706 114.176Z" stroke-width="0.196995" stroke-miterlimit="10"/>
  <path stroke="currentColor" opacity="0.7" d="M359.534 65.5156H415.142C415.769 65.5156 416.37 65.7588 416.813 66.1916C417.257 66.6243 417.506 67.2113 417.506 67.8234V95.6358C417.506 96.5539 417.132 97.4344 416.467 98.0836C415.802 98.7328 414.9 99.0975 413.96 99.0975H360.716C359.776 99.0975 358.874 98.7328 358.209 98.0836C357.544 97.4344 357.17 96.5539 357.17 95.6358V67.8234C357.17 67.2113 357.419 66.6243 357.862 66.1916C358.306 65.7588 358.907 65.5156 359.534 65.5156Z" stroke-width="1.18197" stroke-miterlimit="10"/>
  <path stroke="currentColor" opacity="0.7" d="M351.685 68.8789H350.834C349.637 68.8789 348.667 69.8491 348.667 71.0458V76.609C348.667 77.8057 349.637 78.7759 350.834 78.7759H351.685C352.882 78.7759 353.852 77.8057 353.852 76.609V71.0458C353.852 69.8491 352.882 68.8789 351.685 68.8789Z" stroke-width="0.39399" stroke-miterlimit="10"/>
  <path stroke="currentColor" d="M380.983 104.747C381.372 104.747 381.688 104.432 381.688 104.042C381.688 103.653 381.372 103.337 380.983 103.337C380.593 103.337 380.278 103.653 380.278 104.042C380.278 104.432 380.593 104.747 380.983 104.747Z" stroke-width="0.196995" stroke-miterlimit="10"/>
  <path stroke="currentColor" d="M384.166 104.747C384.556 104.747 384.872 104.432 384.872 104.042C384.872 103.653 384.556 103.337 384.166 103.337C383.777 103.337 383.461 103.653 383.461 104.042C383.461 104.432 383.777 104.747 384.166 104.747Z" stroke-width="0.196995" stroke-miterlimit="10"/>
  <path stroke="currentColor" d="M387.346 104.747C387.735 104.747 388.051 104.432 388.051 104.042C388.051 103.653 387.735 103.337 387.346 103.337C386.956 103.337 386.641 103.653 386.641 104.042C386.641 104.432 386.956 104.747 387.346 104.747Z" stroke-width="0.196995" stroke-miterlimit="10"/>
  <path stroke="currentColor" d="M390.525 104.747C390.915 104.747 391.231 104.432 391.231 104.042C391.231 103.653 390.915 103.337 390.525 103.337C390.136 103.337 389.82 103.653 389.82 104.042C389.82 104.432 390.136 104.747 390.525 104.747Z" stroke-width="0.196995" stroke-miterlimit="10"/>
  <path stroke="currentColor" d="M393.709 104.747C394.098 104.747 394.414 104.432 394.414 104.042C394.414 103.653 394.098 103.337 393.709 103.337C393.319 103.337 393.003 103.653 393.003 104.042C393.003 104.432 393.319 104.747 393.709 104.747Z" stroke-width="0.196995" stroke-miterlimit="10"/>
  <path stroke="currentColor" d="M382.397 107.104C382.787 107.104 383.102 106.788 383.102 106.399C383.102 106.009 382.787 105.693 382.397 105.693C382.008 105.693 381.692 106.009 381.692 106.399C381.692 106.788 382.008 107.104 382.397 107.104Z" stroke-width="0.196995" stroke-miterlimit="10"/>
  <path stroke="currentColor" d="M385.695 107.104C386.084 107.104 386.4 106.788 386.4 106.399C386.4 106.009 386.084 105.693 385.695 105.693C385.305 105.693 384.99 106.009 384.99 106.399C384.99 106.788 385.305 107.104 385.695 107.104Z" stroke-width="0.196995" stroke-miterlimit="10"/>
  <path stroke="currentColor" d="M388.996 107.104C389.386 107.104 389.702 106.788 389.702 106.399C389.702 106.009 389.386 105.693 388.996 105.693C388.607 105.693 388.291 106.009 388.291 106.399C388.291 106.788 388.607 107.104 388.996 107.104Z" stroke-width="0.196995" stroke-miterlimit="10"/>
  <path stroke="currentColor" d="M392.294 107.104C392.684 107.104 392.999 106.788 392.999 106.399C392.999 106.009 392.684 105.693 392.294 105.693C391.905 105.693 391.589 106.009 391.589 106.399C391.589 106.788 391.905 107.104 392.294 107.104Z" stroke-width="0.196995" stroke-miterlimit="10"/>
  <path stroke="currentColor" d="M384.166 109.459C384.556 109.459 384.872 109.144 384.872 108.754C384.872 108.365 384.556 108.049 384.166 108.049C383.777 108.049 383.461 108.365 383.461 108.754C383.461 109.144 383.777 109.459 384.166 109.459Z" stroke-width="0.196995" stroke-miterlimit="10"/>
  <path stroke="currentColor" d="M387.346 109.459C387.735 109.459 388.051 109.144 388.051 108.754C388.051 108.365 387.735 108.049 387.346 108.049C386.956 108.049 386.641 108.365 386.641 108.754C386.641 109.144 386.956 109.459 387.346 109.459Z" stroke-width="0.196995" stroke-miterlimit="10"/>
  <path stroke="currentColor" d="M390.525 109.459C390.915 109.459 391.231 109.144 391.231 108.754C391.231 108.365 390.915 108.049 390.525 108.049C390.136 108.049 389.82 108.365 389.82 108.754C389.82 109.144 390.136 109.459 390.525 109.459Z" stroke-width="0.196995" stroke-miterlimit="10"/>
  <path stroke="currentColor" d="M335.749 80.5011C335.716 79.8447 335.425 79.2279 334.94 78.785C334.454 78.3422 333.813 78.1093 333.156 78.1372H328.208C327.911 78.1234 327.615 78.1682 327.335 78.2691C327.056 78.37 326.799 78.5249 326.58 78.725C326.36 78.9252 326.182 79.1666 326.056 79.4355C325.93 79.7044 325.858 79.9956 325.844 80.2923V86.3361C325.843 86.5098 325.88 86.6817 325.951 86.8401C326.023 86.9984 326.127 87.1396 326.258 87.2541L329.776 90.4809C330.052 90.7246 330.408 90.8591 330.777 90.8591C331.145 90.8591 331.501 90.7246 331.777 90.4809L335.296 87.2541C335.422 87.1367 335.521 86.9945 335.589 86.8365C335.657 86.6785 335.691 86.5081 335.69 86.3361V86.3361L335.749 80.5011Z" stroke-width="0.787979" stroke-miterlimit="10"/>
  <path stroke="currentColor" d="M335.749 105.914C335.716 106.57 335.425 107.187 334.94 107.63C334.454 108.073 333.813 108.305 333.156 108.278H328.208C327.608 108.304 327.023 108.092 326.579 107.687C326.136 107.282 325.872 106.718 325.844 106.118V100.086C325.843 99.9127 325.879 99.7408 325.951 99.5824C326.022 99.424 326.127 99.2828 326.258 99.1685L329.776 95.9417C330.052 95.698 330.408 95.5635 330.777 95.5635C331.145 95.5635 331.501 95.698 331.777 95.9417L335.296 99.1685C335.422 99.2857 335.522 99.4279 335.59 99.586C335.657 99.744 335.692 99.9145 335.69 100.086V100.086L335.749 105.914Z" stroke-width="0.787979" stroke-miterlimit="10"/>
  <path stroke="currentColor" d="M317.858 98.1719C317.201 98.1392 316.585 97.8483 316.142 97.3627C315.699 96.8771 315.466 96.236 315.494 95.5794V90.6152C315.467 90.0155 315.679 89.4297 316.084 88.9865C316.489 88.5433 317.053 88.2788 317.653 88.2512H323.693C323.865 88.2477 324.036 88.2811 324.194 88.349C324.353 88.417 324.495 88.518 324.611 88.6452L327.838 92.1635C328.081 92.4399 328.216 92.7958 328.216 93.1643C328.216 93.5328 328.081 93.8886 327.838 94.165L324.611 97.6833C324.494 97.81 324.352 97.9106 324.194 97.9785C324.036 98.0464 323.865 98.0801 323.693 98.0773V98.0773L317.858 98.1719Z" stroke-width="0.787979" stroke-miterlimit="10"/>
  <path stroke="currentColor" d="M343.27 98.1718C343.927 98.1392 344.543 97.8483 344.986 97.3627C345.429 96.877 345.662 96.236 345.634 95.5794V90.6151C345.648 90.3184 345.603 90.0218 345.502 89.7424C345.401 89.463 345.246 89.2062 345.046 88.9867C344.846 88.7672 344.605 88.5892 344.336 88.463C344.067 88.3368 343.776 88.2648 343.479 88.2512H337.443C337.271 88.248 337.1 88.2814 336.942 88.3493C336.783 88.4173 336.641 88.5181 336.525 88.6452L333.298 92.1635C333.055 92.4399 332.92 92.7957 332.92 93.1642C332.92 93.5327 333.055 93.8886 333.298 94.165L336.525 97.6833C336.642 97.8096 336.784 97.9099 336.942 97.9778C337.1 98.0456 337.271 98.0795 337.443 98.0773L343.27 98.1718Z" stroke-width="0.787979" stroke-miterlimit="10"/>
  <path stroke="currentColor" opacity="0.7" d="M444.033 113.939C455.679 113.939 465.119 104.499 465.119 92.8529C465.119 81.2073 455.679 71.7666 444.033 71.7666C432.387 71.7666 422.947 81.2073 422.947 92.8529C422.947 104.499 432.387 113.939 444.033 113.939Z" stroke-width="0.196995" stroke-miterlimit="10"/>
  <path stroke="currentColor" d="M444.049 85.4298C447.21 85.4298 449.773 82.8668 449.773 79.7051C449.773 76.5435 447.21 73.9805 444.049 73.9805C440.887 73.9805 438.324 76.5435 438.324 79.7051C438.324 82.8668 440.887 85.4298 444.049 85.4298Z" stroke-width="0.39399" stroke-miterlimit="10"/>
  <path stroke="currentColor" d="M430.807 98.8185C433.968 98.8185 436.531 96.2555 436.531 93.0938C436.531 89.9322 433.968 87.3691 430.807 87.3691C427.645 87.3691 425.082 89.9322 425.082 93.0938C425.082 96.2555 427.645 98.8185 430.807 98.8185Z" stroke-width="0.39399" stroke-miterlimit="10"/>
  <path stroke="currentColor" d="M457.314 98.8185C460.476 98.8185 463.039 96.2555 463.039 93.0938C463.039 89.9322 460.476 87.3691 457.314 87.3691C454.153 87.3691 451.59 89.9322 451.59 93.0938C451.59 96.2555 454.153 98.8185 457.314 98.8185Z" stroke-width="0.39399" stroke-miterlimit="10"/>
  <path stroke="currentColor" d="M444.049 112.292C447.21 112.292 449.773 109.729 449.773 106.567C449.773 103.406 447.21 100.843 444.049 100.843C440.887 100.843 438.324 103.406 438.324 106.567C438.324 109.729 440.887 112.292 444.049 112.292Z" stroke-width="0.39399" stroke-miterlimit="10"/>
  <path stroke="currentColor" d="M444.049 82.1325H447.721L445.885 78.953L444.049 75.7695L442.213 78.953L440.373 82.1325H444.049Z" stroke-width="0.39399" stroke-miterlimit="10"/>
  <path stroke="currentColor" d="M433.994 89.7949H427.399V96.3903H433.994V89.7949Z" stroke-width="0.39399" stroke-miterlimit="10"/>
  <path stroke="currentColor" d="M457.314 97.1672C459.564 97.1672 461.388 95.3433 461.388 93.0934C461.388 90.8435 459.564 89.0195 457.314 89.0195C455.064 89.0195 453.24 90.8435 453.24 93.0934C453.24 95.3433 455.064 97.1672 457.314 97.1672Z" stroke-width="0.39399" stroke-miterlimit="10"/>
  <path fill="currentColor" d="M447.52 103.372L447.185 103.037L444.049 106.177L440.909 103.037L440.574 103.372L443.714 106.512L440.574 109.648L440.909 109.983L444.049 106.843L447.185 109.983L447.52 109.648L444.38 106.512L447.52 103.372Z"/>
  <path stroke="currentColor" opacity="0.7" d="M330.8 76.242H328.208L329.504 75.1112L330.8 73.9805L332.097 75.1112L333.393 76.242H330.8Z" stroke-width="0.196995" stroke-miterlimit="10"/>
  <path stroke="currentColor" opacity="0.7" d="M330.8 110.263H328.208L329.504 111.393L330.8 112.524L332.097 111.393L333.393 110.263H330.8Z" stroke-width="0.196995" stroke-miterlimit="10"/>
  <path stroke="currentColor" opacity="0.7" d="M347.813 93.2546V90.6621L348.944 91.9583L350.07 93.2546L348.944 94.5508L347.813 95.847V93.2546Z" stroke-width="0.196995" stroke-miterlimit="10"/>
  <path stroke="currentColor" opacity="0.7" d="M313.788 93.2546V90.6621L312.657 91.9583L311.526 93.2546L312.657 94.5508L313.788 95.847V93.2546Z" stroke-width="0.196995" stroke-miterlimit="10"/>
  <path stroke="currentColor" d="M320.903 62.3424V64.2257C320.903 64.2257 338.337 62.3424 342.108 63.284V61.4008C333.641 57.1575 320.903 62.3424 320.903 62.3424Z" stroke-width="0.787979" stroke-miterlimit="10"/>
  <path stroke="currentColor" d="M453.315 62.3424V64.2257C453.315 64.2257 435.881 62.3424 432.111 63.284V61.4008C440.593 57.1575 453.315 62.3424 453.315 62.3424Z" stroke-width="0.787979" stroke-miterlimit="10"/>
  <path stroke="currentColor" d="M424.236 68.8789H423.385C422.188 68.8789 421.218 69.8491 421.218 71.0458V76.609C421.218 77.8058 422.188 78.7759 423.385 78.7759H424.236C425.433 78.7759 426.403 77.8058 426.403 76.609V71.0458C426.403 69.8491 425.433 68.8789 424.236 68.8789Z" stroke-width="0.39399" stroke-miterlimit="10"/>
  <path stroke="currentColor" opacity="0.7" d="M415.993 136.518C425.556 136.518 433.309 128.766 433.309 119.203C433.309 109.639 425.556 101.887 415.993 101.887C406.429 101.887 398.677 109.639 398.677 119.203C398.677 128.766 406.429 136.518 415.993 136.518Z" stroke-width="0.295492" stroke-miterlimit="10"/>
  <path stroke="currentColor" d="M415.993 130.345C422.146 130.345 427.135 125.356 427.135 119.203C427.135 113.049 422.146 108.061 415.993 108.061C409.839 108.061 404.851 113.049 404.851 119.203C404.851 125.356 409.839 130.345 415.993 130.345Z" stroke-width="0.787979" stroke-miterlimit="10"/>
  <path stroke="currentColor" opacity="0.7" d="M415.993 126.133C419.82 126.133 422.923 123.03 422.923 119.203C422.923 115.375 419.82 112.272 415.993 112.272C412.165 112.272 409.062 115.375 409.062 119.203C409.062 123.03 412.165 126.133 415.993 126.133Z" stroke-width="0.39399" stroke-miterlimit="10"/>
  <path fill="currentColor" fill-rule="evenodd" clip-rule="evenodd" d="M392.078 119.124C392.078 121.857 389.862 124.073 387.129 124.073C384.396 124.073 382.181 121.857 382.181 119.124C382.181 116.391 384.396 114.176 387.129 114.176C389.862 114.176 392.078 116.391 392.078 119.124ZM387.145 116.512C386.861 116.429 386.574 116.35 386.282 116.295L386.298 121.133L387.389 121.48V117.414C387.389 117.335 387.412 117.258 387.456 117.193C387.47 117.174 387.49 117.159 387.512 117.15C387.534 117.141 387.558 117.138 387.582 117.142C387.631 117.152 387.677 117.174 387.716 117.205C387.769 117.255 387.802 117.322 387.811 117.394C387.818 117.485 387.818 117.576 387.811 117.666V119.187C387.961 119.264 388.127 119.306 388.295 119.309C388.408 119.312 388.519 119.287 388.618 119.234C388.722 119.178 388.809 119.095 388.87 118.994C388.936 118.88 388.982 118.756 389.004 118.627C389.028 118.478 389.036 118.326 389.028 118.174C389.023 117.942 388.974 117.714 388.882 117.501C388.827 117.384 388.751 117.279 388.658 117.189C388.572 117.103 388.476 117.029 388.37 116.969C388.137 116.837 387.89 116.732 387.633 116.657L387.145 116.512ZM384.643 119.727L386.069 119.223V119.782C386.071 119.807 386.071 119.832 386.069 119.857L384.942 120.251C384.888 120.268 384.839 120.296 384.797 120.334C384.786 120.343 384.779 120.355 384.775 120.368C384.771 120.381 384.77 120.395 384.773 120.409C384.789 120.437 384.816 120.459 384.848 120.468C384.931 120.498 385.019 120.512 385.108 120.511C385.206 120.51 385.304 120.5 385.399 120.479C385.464 120.466 385.527 120.447 385.588 120.424L386.069 120.247V120.724V120.818C385.872 120.855 385.671 120.876 385.47 120.881C385.069 120.887 384.669 120.826 384.288 120.7C384.16 120.667 384.038 120.611 383.93 120.535C383.87 120.492 383.824 120.433 383.796 120.365C383.783 120.337 383.777 120.306 383.777 120.275C383.777 120.243 383.783 120.213 383.796 120.184C383.822 120.127 383.865 120.079 383.918 120.046C384.042 119.966 384.174 119.9 384.312 119.849C384.375 119.82 384.449 119.795 384.527 119.768L384.527 119.768C384.565 119.755 384.604 119.741 384.643 119.727ZM388.792 119.515H388.465C388.166 119.555 387.872 119.629 387.59 119.735V120.393L388.772 119.976C388.899 119.935 389.032 119.914 389.166 119.913C389.256 119.911 389.345 119.926 389.43 119.956C389.445 119.961 389.459 119.968 389.471 119.978C389.484 119.988 389.494 120.001 389.501 120.015C389.517 120.051 389.489 120.082 389.465 120.102C389.397 120.146 389.323 120.179 389.245 120.2L387.582 120.795V120.819V121.43L389.769 120.642C389.795 120.632 389.822 120.622 389.848 120.613C389.941 120.58 390.035 120.546 390.123 120.504C390.233 120.452 390.333 120.381 390.419 120.295C390.462 120.247 390.486 120.186 390.486 120.121C390.483 120.082 390.472 120.043 390.454 120.008C390.436 119.973 390.41 119.942 390.379 119.917C390.28 119.836 390.166 119.775 390.045 119.735L389.848 119.668C389.505 119.565 389.149 119.513 388.792 119.515Z"/>
  <g clip-path="">
    <g clip-path="">
      <path fill="currentColor" fill-rule="evenodd" clip-rule="evenodd" d="M682.505 8.66699C678.455 8.66699 675.172 11.9502 675.172 16.0003C675.172 20.0504 678.455 23.3337 682.505 23.3337H699.838C703.888 23.3337 707.172 20.0504 707.172 16.0003C707.172 11.9502 703.888 8.66699 699.838 8.66699H682.505ZM695.838 11.7225H686.505V13.4337H695.838V11.7225ZM686.505 18.567H695.838V20.2781H686.505V18.567ZM695.838 15.1448H686.505V16.8559H695.838V15.1448Z"/>
    </g>
  </g>
  <path fill="currentColor" fill-rule="evenodd" clip-rule="evenodd" d="M251.82 56.25C259.69 56.25 266.07 49.8701 266.07 42C266.07 34.1299 259.69 27.75 251.82 27.75C243.95 27.75 237.57 34.1299 237.57 42C237.57 49.8701 243.95 56.25 251.82 56.25ZM250.632 49.5442V43.1874H244.276V40.8124H250.632V34.4559H253.007V40.8124L259.364 40.8124V43.1874H253.007V49.5442H250.632Z"/>
  <path fill="currentColor" fill-rule="evenodd" clip-rule="evenodd" d="M98.6935 30.25C106.564 30.25 112.943 23.8701 112.943 16C112.943 8.12994 106.564 1.75 98.6935 1.75C90.8234 1.75 84.4435 8.12994 84.4435 16C84.4435 23.8701 90.8234 30.25 98.6935 30.25ZM90.6935 9V12H106.693V9H90.6935ZM106.693 20V23H90.6935V20H106.693ZM90.6935 17.5H106.693V14.5H90.6935V17.5Z"/>
  <path fill="currentColor" fill-rule="evenodd" clip-rule="evenodd" d="M100.513 88.2261H96.8743V87.5439H100.513V88.2261ZM100.513 89.4768H96.8743V88.7946H100.513V89.4768ZM96.8743 90.7274H100.513V90.0452H96.8743V90.7274Z"/>
  <path fill="currentColor" d="M417.218 22C417.218 18.6863 419.904 16 423.218 16C426.532 16 429.218 18.6863 429.218 22V30.5C429.218 33.8137 426.532 36.5 423.218 36.5C419.904 36.5 417.218 33.8137 417.218 30.5V22Z"/>
  <path fill="currentColor" d="M409.805 8.87598C410.23 8.87598 410.624 8.96549 410.986 9.1445C411.349 9.31905 411.642 9.58982 411.866 9.9568C412.09 10.3193 412.202 10.7713 412.202 11.3129C412.202 11.8544 412.09 12.3131 411.866 12.6891C411.642 13.0605 411.347 13.3403 410.98 13.5282C410.617 13.7117 410.226 13.8035 409.805 13.8035C409.384 13.8035 408.99 13.7117 408.623 13.5282C408.261 13.3403 407.968 13.0605 407.744 12.6891C407.52 12.3131 407.408 11.8544 407.408 11.3129C407.408 10.7713 407.52 10.3193 407.744 9.9568C407.968 9.58982 408.261 9.31905 408.623 9.1445C408.986 8.96549 409.38 8.87598 409.805 8.87598ZM409.805 9.95009C409.456 9.95009 409.176 10.0665 408.966 10.2992C408.755 10.5319 408.65 10.872 408.65 11.3196C408.65 11.7716 408.755 12.1207 408.966 12.3668C409.176 12.6085 409.454 12.7294 409.798 12.7294C410.143 12.7294 410.42 12.6085 410.631 12.3668C410.845 12.1207 410.953 11.7716 410.953 11.3196C410.953 10.872 410.848 10.5319 410.637 10.2992C410.427 10.0665 410.15 9.95009 409.805 9.95009Z"/>
  <path fill="currentColor" d="M413.231 13.6894V8.9901H414.97C415.579 8.9901 416.044 9.12884 416.366 9.40632C416.693 9.67932 416.857 10.0508 416.857 10.5207C416.857 10.834 416.785 11.1204 416.642 11.38C416.498 11.6351 416.284 11.8387 415.997 11.9909C415.711 12.1431 415.366 12.2192 414.963 12.2192H414.393V13.6894H413.231ZM414.95 11.2256C415.16 11.2256 415.324 11.1674 415.44 11.0511C415.556 10.9347 415.615 10.7758 415.615 10.5744C415.615 10.3775 415.556 10.2298 415.44 10.1313C415.324 10.0329 415.156 9.98366 414.937 9.98366H414.393V11.2256H414.95Z"/>
  <path fill="currentColor" d="M420 13.6894H418.839V9.98366H417.469V8.9901H421.37V9.98366H420V13.6894Z"/>
  <path fill="currentColor" d="M422.279 8.9901H423.44V13.6894H422.279V8.9901Z"/>
  <path fill="currentColor" d="M426.865 8.87598C427.29 8.87598 427.684 8.96549 428.046 9.1445C428.409 9.31905 428.702 9.58982 428.925 9.9568C429.149 10.3193 429.261 10.7713 429.261 11.3129C429.261 11.8544 429.149 12.3131 428.925 12.6891C428.702 13.0605 428.406 13.3403 428.039 13.5282C427.677 13.7117 427.285 13.8035 426.865 13.8035C426.444 13.8035 426.05 13.7117 425.683 13.5282C425.32 13.3403 425.027 13.0605 424.804 12.6891C424.58 12.3131 424.468 11.8544 424.468 11.3129C424.468 10.7713 424.58 10.3193 424.804 9.9568C425.027 9.58982 425.32 9.31905 425.683 9.1445C426.046 8.96549 426.439 8.87598 426.865 8.87598ZM426.865 9.95009C426.515 9.95009 426.236 10.0665 426.025 10.2992C425.815 10.5319 425.71 10.872 425.71 11.3196C425.71 11.7716 425.815 12.1207 426.025 12.3668C426.236 12.6085 426.513 12.7294 426.858 12.7294C427.202 12.7294 427.48 12.6085 427.69 12.3668C427.905 12.1207 428.012 11.7716 428.012 11.3196C428.012 10.872 427.907 10.5319 427.697 10.2992C427.487 10.0665 427.209 9.95009 426.865 9.95009Z"/>
  <path fill="currentColor" d="M433.265 11.7022V8.9901H434.446V13.6894H433.473L431.452 11.0175V13.6894H430.291V8.9901H431.271L433.265 11.7022Z"/>
  <path fill="currentColor" d="M437.322 8.87598C437.649 8.87598 437.953 8.92297 438.235 9.01695C438.517 9.10646 438.75 9.21835 438.933 9.35261L438.443 10.2186C438.282 10.1023 438.098 10.0083 437.893 9.93666C437.691 9.86506 437.503 9.82925 437.329 9.82925C437.145 9.82925 437.002 9.86729 436.899 9.94338C436.796 10.015 436.745 10.1134 436.745 10.2388C436.745 10.373 436.81 10.4804 436.939 10.561C437.074 10.6371 437.282 10.7221 437.564 10.8161C437.872 10.9235 438.121 11.0242 438.309 11.1182C438.501 11.2122 438.669 11.3532 438.812 11.5411C438.956 11.7246 439.027 11.9641 439.027 12.2594C439.027 12.5727 438.944 12.8435 438.779 13.0717C438.618 13.3 438.392 13.4745 438.101 13.5954C437.814 13.7117 437.485 13.7699 437.114 13.7699C436.814 13.7699 436.512 13.7319 436.208 13.6558C435.908 13.5797 435.641 13.4723 435.409 13.3336L435.758 12.3668C436.25 12.622 436.709 12.7495 437.134 12.7495C437.344 12.7495 437.503 12.7092 437.611 12.6287C437.718 12.5481 437.772 12.4429 437.772 12.3131C437.772 12.1834 437.711 12.0827 437.59 12.011C437.47 11.935 437.282 11.8589 437.027 11.7828C436.695 11.6799 436.431 11.5836 436.234 11.4941C436.037 11.4001 435.867 11.2592 435.724 11.0712C435.581 10.8788 435.509 10.6259 435.509 10.3126C435.509 10.0172 435.585 9.76212 435.738 9.5473C435.89 9.328 436.102 9.16241 436.375 9.05052C436.648 8.93416 436.964 8.87598 437.322 8.87598Z"/>
  <rect stroke="currentColor" x="694.927" y="56.8467" width="3.1" height="7.51155" rx="1.55" transform="rotate(90 694.927 56.8467)"/>
  <path fill="currentColor" d="M153.29 81.0974L152.517 81.4L153.29 81.0974ZM145.194 70.095L144.374 69.9687L144.267 70.6612L144.932 70.8827L145.194 70.095ZM27.0739 70.095L27.3365 70.8827L28.0011 70.6612L27.8946 69.9687L27.0739 70.095ZM18.9778 175.76V174.929L18.9769 174.929L18.9778 175.76ZM136.683 158.737L137.377 158.281L136.683 158.737ZM159.949 101.66C160.094 102.095 160.565 102.33 161 102.185C161.435 102.039 161.67 101.569 161.524 101.134L159.949 101.66ZM154.064 80.7948C152.16 75.9309 150.078 73.0782 148.428 71.428C147.604 70.6034 146.89 70.0826 146.367 69.7627C146.105 69.6029 145.892 69.4937 145.737 69.4221C145.659 69.3863 145.596 69.3599 145.549 69.3413C145.526 69.332 145.506 69.3247 145.491 69.3191C145.483 69.3162 145.476 69.3139 145.471 69.3119C145.468 69.3109 145.465 69.31 145.463 69.3093C145.462 69.3089 145.461 69.3085 145.46 69.3082C145.459 69.308 145.458 69.3078 145.458 69.3077C145.458 69.3074 145.457 69.3072 145.194 70.095C144.932 70.8827 144.931 70.8825 144.93 70.8823C144.93 70.8822 144.93 70.882 144.929 70.8819C144.928 70.8817 144.928 70.8814 144.927 70.8812C144.926 70.8808 144.925 70.8805 144.924 70.8802C144.923 70.8797 144.922 70.8796 144.923 70.8798C144.924 70.8803 144.93 70.8822 144.939 70.8859C144.958 70.8933 144.992 70.9074 145.041 70.93C145.139 70.9752 145.295 71.0541 145.501 71.1798C145.912 71.4308 146.522 71.87 147.254 72.6024C148.718 74.0661 150.684 76.7147 152.517 81.4L154.064 80.7948ZM146.015 70.2212C146.285 68.4654 145.261 66.756 143.793 65.2743C142.292 63.76 140.151 62.3003 137.751 61.0082C132.957 58.4265 126.933 56.4105 122.438 55.9824L122.28 57.6357C126.504 58.0379 132.313 59.9662 136.964 62.4705C139.287 63.7215 141.272 65.0902 142.613 66.4433C143.986 67.8289 144.519 69.0258 144.374 69.9687L146.015 70.2212ZM122.438 55.9824C117.918 55.5519 115.558 56.4129 113.836 57.4463C113.422 57.6944 113.052 57.9483 112.72 58.1743C112.381 58.4053 112.087 58.6039 111.79 58.7729C111.219 59.0971 110.66 59.3001 109.903 59.3001V60.9609C111.016 60.9609 111.857 60.6449 112.61 60.2166C112.975 60.0093 113.323 59.7733 113.655 59.5469C113.995 59.3155 114.325 59.0895 114.69 58.8704C116.082 58.0355 118.081 57.2357 122.28 57.6357L122.438 55.9824ZM109.903 59.3001H62.3647V60.9609H109.903V59.3001ZM62.3647 59.3001C61.6086 59.3001 61.0488 59.0971 60.4787 58.7729C60.1814 58.6039 59.887 58.4053 59.548 58.1743C59.2162 57.9483 58.8458 57.6944 58.4325 57.4463C56.71 56.4129 54.3502 55.5519 49.8304 55.9824L49.9878 57.6357C54.187 57.2357 56.1866 58.0355 57.578 58.8704C57.9431 59.0895 58.2734 59.3155 58.613 59.5469C58.9454 59.7733 59.2933 60.0093 59.6577 60.2166C60.411 60.6449 61.2524 60.9609 62.3647 60.9609V59.3001ZM49.8304 55.9824C45.3349 56.4105 39.3115 58.4265 34.5168 61.0082C32.1174 62.3003 29.9763 63.76 28.4757 65.2743C27.0073 66.756 25.9831 68.4654 26.2532 70.2212L27.8946 69.9687C27.7495 69.0258 28.2822 67.8289 29.6553 66.4433C30.9961 65.0902 32.9809 63.7215 35.3042 62.4705C39.955 59.9662 45.7644 58.0379 49.9878 57.6357L49.8304 55.9824ZM27.0739 70.095C26.8113 69.3072 26.8106 69.3074 26.8099 69.3077C26.8097 69.3078 26.809 69.308 26.8085 69.3082C26.8075 69.3085 26.8064 69.3089 26.8052 69.3093C26.8029 69.31 26.8004 69.3109 26.7976 69.3119C26.7919 69.3139 26.7852 69.3162 26.7775 69.3191C26.762 69.3247 26.7425 69.332 26.7189 69.3413C26.6718 69.3599 26.6089 69.3863 26.5313 69.4221C26.3761 69.4937 26.1628 69.6029 25.9013 69.7627C25.3779 70.0826 24.6645 70.6034 23.8399 71.428C22.1898 73.0782 20.1078 75.9309 18.2045 80.7948L19.751 81.4C21.5844 76.7147 23.5505 74.0661 25.0142 72.6024C25.7466 71.87 26.3566 71.4308 26.7673 71.1798C26.973 71.0541 27.1294 70.9752 27.2273 70.93C27.2762 70.9074 27.3105 70.8933 27.3291 70.8859C27.3384 70.8822 27.3438 70.8803 27.345 70.8798C27.3457 70.8796 27.3453 70.8797 27.3439 70.8802C27.3432 70.8805 27.3422 70.8808 27.341 70.8812C27.3404 70.8814 27.3397 70.8817 27.3389 70.8819C27.3385 70.882 27.3379 70.8822 27.3378 70.8823C27.3371 70.8825 27.3365 70.8827 27.0739 70.095ZM18.2045 80.7948C16.3417 85.5552 6.68294 109.303 2.31901 131.867C0.140639 143.131 -0.744783 154.223 1.40075 162.537C2.4773 166.708 4.33188 170.239 7.22608 172.726C10.1309 175.221 14.0036 176.596 18.9787 176.59L18.9769 174.929C14.3238 174.934 10.8586 173.657 8.30826 171.466C5.7473 169.266 4.02946 166.077 3.00881 162.122C0.959927 154.182 1.78092 143.396 3.94954 132.183C8.27961 109.793 17.8771 86.1889 19.751 81.4L18.2045 80.7948ZM18.9778 176.59C20.4763 176.59 21.7311 176.515 22.8987 176.101C24.0887 175.679 25.1137 174.934 26.2284 173.729C27.3308 172.536 28.5555 170.855 30.1354 168.518C31.7182 166.177 33.6896 163.129 36.2789 159.194L34.8915 158.281C32.291 162.234 30.3348 165.258 28.7596 167.588C27.1814 169.922 26.0177 171.51 25.009 172.601C24.0124 173.679 23.2034 174.231 22.3438 174.536C21.462 174.849 20.4519 174.929 18.9778 174.929V176.59ZM36.2789 159.194C41.4713 151.301 44.9039 147.314 48.65 145.244C52.3793 143.183 56.5234 142.96 63.4027 142.96V141.299C56.5807 141.299 52.006 141.492 47.8467 143.79C43.7043 146.08 40.0787 150.396 34.8915 158.281L36.2789 159.194ZM63.4027 142.96H108.866V141.299H63.4027V142.96ZM108.866 142.96C115.745 142.96 119.889 143.183 123.618 145.244C127.364 147.314 130.797 151.301 135.989 159.194L137.377 158.281C132.189 150.396 128.564 146.08 124.421 143.79C120.262 141.492 115.687 141.299 108.866 141.299V142.96ZM135.989 159.194C139.527 164.571 141.913 168.285 143.744 170.824C145.567 173.35 146.929 174.844 148.457 175.666L149.244 174.203C148.078 173.576 146.904 172.365 145.091 169.852C143.287 167.351 140.936 163.691 137.377 158.281L135.989 159.194ZM161.524 101.134C158.159 91.0609 155.043 83.2986 154.064 80.7948L152.517 81.4C153.499 83.9091 156.599 91.6332 159.949 101.66L161.524 101.134Z"/>
  <path fill="currentColor" d="M85.4283 78.4443C84.4107 78.3404 83.4327 77.9944 82.576 77.4354C81.8536 76.9621 81.6917 76.7711 81.6917 76.385C81.6917 75.6086 82.5428 74.2509 84.0043 72.7023C84.8346 71.8221 85.9847 70.7924 86.1093 70.8215C86.3501 70.8754 88.2931 72.7687 89.0156 73.6572C90.1656 75.0647 90.6763 76.2189 90.423 76.7337C90.2196 77.124 88.9574 77.8879 88.0274 78.1786C87.1855 78.4297 86.3037 78.5199 85.4283 78.4443ZM80.7201 75.5795C80.1114 74.6398 79.7501 73.5616 79.6697 72.4448C79.624 71.9207 79.6605 71.3926 79.7777 70.8796C79.992 69.6965 80.5344 68.5974 81.3429 67.7076C81.6626 67.3713 81.6917 67.363 82.0861 67.4958C82.7539 67.7891 83.3566 68.2125 83.8589 68.7414L84.3198 69.1566L84.0707 69.468C82.8988 70.9015 81.9332 72.4918 81.2018 74.1928C80.9671 74.7128 80.8823 75.2879 80.9568 75.8535C81.0315 76.0487 80.9568 75.9781 80.716 75.6003L80.7201 75.5795ZM91.2368 75.7331C91.2729 75.2734 91.2077 74.8114 91.0458 74.3796C90.6638 73.2212 89.3851 71.0581 88.2267 69.5967L87.8613 69.1358L88.2765 68.7704C88.6657 68.3961 89.0898 68.0596 89.5428 67.7657C89.826 67.583 90.1442 67.4613 90.477 67.4086C90.5933 67.4086 91.0001 67.8238 91.3281 68.2971C91.8556 69.0443 92.2231 69.8924 92.4076 70.7883C92.5327 71.5898 92.5397 72.4053 92.4284 73.2088C92.3194 73.7302 92.1581 74.2394 91.9468 74.7284C91.7572 75.1205 91.5364 75.4967 91.2866 75.8535C91.2077 75.9573 91.2077 75.9573 91.2493 75.7373L91.2368 75.7331ZM85.5321 67.1886C84.9514 66.9002 84.338 66.6827 83.7053 66.5409C83.5045 66.513 83.3018 66.5018 83.0992 66.5077C82.7172 66.5284 82.7338 66.5077 83.3441 66.2212C83.8196 65.9935 84.3218 65.8261 84.8388 65.723C85.6636 65.5871 86.5051 65.5871 87.3299 65.723C88.0099 65.8657 88.6649 66.1092 89.273 66.4454L89.4058 66.5284H89.0986C88.2337 66.5654 87.3887 66.7997 86.6282 67.2135C86.3376 67.3547 86.0843 67.4668 86.0677 67.4668C86.0511 67.4668 85.8103 67.3464 85.5405 67.2093L85.5321 67.1886Z"/>
  <path stroke="currentColor" d="M109.048 125.257C114.551 125.257 119.013 120.796 119.013 115.293C119.013 109.789 114.551 105.328 109.048 105.328C103.545 105.328 99.0837 109.789 99.0837 115.293C99.0837 120.796 103.545 125.257 109.048 125.257Z" stroke-width="0.415186" stroke-miterlimit="10"/>
  <path stroke="currentColor" d="M109.048 121.91C112.703 121.91 115.666 118.947 115.666 115.292C115.666 111.637 112.703 108.674 109.048 108.674C105.393 108.674 102.43 111.637 102.43 115.292C102.43 118.947 105.393 121.91 109.048 121.91Z" stroke-width="0.830372" stroke-miterlimit="10"/>
  <path stroke="currentColor" opacity="0.7" d="M109.048 127.748C115.927 127.748 121.504 122.172 121.504 115.292C121.504 108.413 115.927 102.837 109.048 102.837C102.169 102.837 96.5927 108.413 96.5927 115.292C96.5927 122.172 102.169 127.748 109.048 127.748Z" stroke-width="0.415186" stroke-miterlimit="10"/>
  <path stroke="currentColor" d="M42.2032 99.0998C47.7065 99.0998 52.1677 94.6386 52.1677 89.1354C52.1677 83.6321 47.7065 79.1709 42.2032 79.1709C36.7 79.1709 32.2388 83.6321 32.2388 89.1354C32.2388 94.6386 36.7 99.0998 42.2032 99.0998Z" stroke-width="0.415186" stroke-miterlimit="10"/>
  <path stroke="currentColor" d="M42.2033 95.7537C45.8583 95.7537 48.8213 92.7907 48.8213 89.1356C48.8213 85.4806 45.8583 82.5176 42.2033 82.5176C38.5482 82.5176 35.5852 85.4806 35.5852 89.1356C35.5852 92.7907 38.5482 95.7537 42.2033 95.7537Z" stroke-width="0.830372" stroke-miterlimit="10"/>
  <path stroke="currentColor" opacity="0.7" d="M42.2034 101.591C49.0824 101.591 54.659 96.0143 54.659 89.1353C54.659 82.2562 49.0824 76.6797 42.2034 76.6797C35.3244 76.6797 29.7478 82.2562 29.7478 89.1353C29.7478 96.0143 35.3244 101.591 42.2034 101.591Z" stroke-width="0.415186" stroke-miterlimit="10"/>
  <path stroke="currentColor" d="M118.834 95.3934C122.106 95.3934 124.759 92.7408 124.759 89.4686C124.759 86.1965 122.106 83.5439 118.834 83.5439C115.562 83.5439 112.909 86.1965 112.909 89.4686C112.909 92.7408 115.562 95.3934 118.834 95.3934Z" stroke-width="0.830372" stroke-miterlimit="10"/>
  <path stroke="currentColor" d="M142.653 95.3934C145.925 95.3934 148.578 92.7408 148.578 89.4686C148.578 86.1965 145.925 83.5439 142.653 83.5439C139.381 83.5439 136.729 86.1965 136.729 89.4686C136.729 92.7408 139.381 95.3934 142.653 95.3934Z" stroke-width="0.830372" stroke-miterlimit="10"/>
  <path stroke="currentColor" opacity="0.7" d="M63.1701 131.413C71.081 131.413 77.494 125 77.494 117.09C77.494 109.179 71.081 102.766 63.1701 102.766C55.2592 102.766 48.8462 109.179 48.8462 117.09C48.8462 125 55.2592 131.413 63.1701 131.413Z" stroke-width="0.415186" stroke-miterlimit="10"/>
  <path stroke="currentColor" d="M73.7823 92.7233C75.846 92.7233 77.519 91.0504 77.519 88.9867C77.519 86.923 75.846 85.25 73.7823 85.25C71.7186 85.25 70.0457 86.923 70.0457 88.9867C70.0457 91.0504 71.7186 92.7233 73.7823 92.7233Z" stroke-width="0.415186" stroke-miterlimit="10"/>
  <path stroke="currentColor" d="M98.6935 92.7233C100.757 92.7233 102.43 91.0504 102.43 88.9867C102.43 86.923 100.757 85.25 98.6935 85.25C96.6298 85.25 94.9568 86.923 94.9568 88.9867C94.9568 91.0504 96.6298 92.7233 98.6935 92.7233Z" stroke-miterlimit="10"/>
  <path stroke="currentColor" d="M130.92 83.8338C134.192 83.8338 136.845 81.1812 136.845 77.9091C136.845 74.637 134.192 71.9844 130.92 71.9844C127.648 71.9844 124.995 74.637 124.995 77.9091C124.995 81.1812 127.648 83.8338 130.92 83.8338Z" stroke-width="0.830372" stroke-miterlimit="10"/>
  <path stroke="currentColor" d="M130.92 106.877C134.192 106.877 136.845 104.224 136.845 100.952C136.845 97.6799 134.192 95.0273 130.92 95.0273C127.648 95.0273 124.995 97.6799 124.995 100.952C124.995 104.224 127.648 106.877 130.92 106.877Z" stroke-width="0.830372" stroke-miterlimit="10"/>
  <path fill="currentColor" d="M130.326 81.4757V78.4739L128.188 74.3428H129.567L130.941 77.1619L132.299 74.3428H133.656L131.506 78.4946V81.4881L130.326 81.4757Z"/>
  <path fill="currentColor" d="M116.11 93.0343L118.132 89.3225L116.297 85.9014H117.676L118.834 88.0354L120.001 85.9014H121.367L119.532 89.3142L121.554 93.0509H120.129L118.83 90.6137L117.526 93.0343H116.11Z"/>
  <path fill="currentColor" d="M133.856 104.514H132.577L132.066 102.895H129.724L129.239 104.51H127.993L130.268 97.377H131.514L133.856 104.514ZM131.701 101.691L130.87 99.046L130.077 101.691H131.701Z"/>
  <path fill="currentColor" d="M140.204 85.901H142.546C143.002 85.8737 143.46 85.9329 143.895 86.0754C144.181 86.207 144.418 86.4267 144.572 86.7023C144.755 87.0034 144.848 87.3505 144.842 87.7029C144.847 88.0287 144.768 88.3505 144.613 88.6371C144.477 88.8949 144.269 89.1082 144.015 89.2516C144.356 89.3611 144.649 89.5838 144.846 89.8826C145.049 90.2097 145.152 90.5895 145.14 90.9746C145.155 91.4414 145.025 91.9013 144.767 92.2907C144.562 92.6134 144.246 92.8498 143.878 92.955C143.328 93.0342 142.773 93.0634 142.218 93.0422H140.229L140.204 85.901ZM141.379 87.0884V88.7492H142.159C142.449 88.7556 142.739 88.7473 143.027 88.7243C143.21 88.7012 143.377 88.6109 143.496 88.471C143.601 88.3126 143.66 88.128 143.666 87.9381C143.672 87.7481 143.625 87.5602 143.53 87.3957C143.453 87.2735 143.333 87.1846 143.193 87.1466C142.818 87.1041 142.441 87.0888 142.064 87.1009L141.379 87.0884ZM141.379 89.9241V91.8257H142.496C142.806 91.8423 143.118 91.8172 143.422 91.751C143.565 91.6942 143.685 91.5902 143.762 91.4562C143.857 91.2817 143.907 91.0861 143.907 90.8874C143.907 90.6886 143.857 90.493 143.762 90.3186C143.664 90.1697 143.517 90.0597 143.347 90.0072C143.017 89.9359 142.679 89.908 142.342 89.9241H141.379Z"/>
  <path stroke="currentColor" d="M74.2597 113.865H66.3961V106.001C66.3961 105.68 66.2684 105.371 66.041 105.144C65.8137 104.917 65.5053 104.789 65.1838 104.789H61.1523C60.9933 104.789 60.8359 104.82 60.689 104.881C60.5422 104.942 60.4088 105.032 60.2965 105.144C60.1843 105.257 60.0954 105.391 60.0349 105.538C59.9744 105.685 59.9436 105.842 59.9441 106.001V113.865H52.0805C51.9215 113.864 51.7639 113.895 51.6169 113.956C51.4698 114.016 51.3361 114.105 51.2235 114.217C51.1109 114.33 51.0215 114.463 50.9605 114.61C50.8996 114.757 50.8682 114.914 50.8682 115.073V119.088C50.8682 119.41 50.9959 119.718 51.2233 119.945C51.4506 120.173 51.759 120.3 52.0805 120.3H59.9441V128.181C59.9441 128.501 60.0714 128.808 60.298 129.035C60.5246 129.262 60.8319 129.389 61.1523 129.389H65.1838C65.3428 129.389 65.5003 129.359 65.6474 129.298C65.7945 129.238 65.9282 129.149 66.0408 129.036C66.1534 128.924 66.2428 128.791 66.3038 128.644C66.3647 128.497 66.3961 128.34 66.3961 128.181V120.334H74.2597C74.4187 120.334 74.5762 120.302 74.7231 120.241C74.8699 120.18 75.0033 120.091 75.1155 119.978C75.2278 119.866 75.3167 119.732 75.3772 119.585C75.4376 119.438 75.4685 119.28 75.4679 119.121V115.09C75.4701 114.93 75.4405 114.771 75.3808 114.622C75.321 114.474 75.2324 114.339 75.12 114.225C75.0076 114.111 74.8736 114.02 74.726 113.959C74.5783 113.897 74.4198 113.865 74.2597 113.865V113.865Z" stroke-width="0.830372" stroke-miterlimit="10"/>
  <path stroke="currentColor" d="M31.6409 68.0186C29.2951 69.206 27.2815 70.3021 27.2815 70.3021C27.2815 70.3021 29.3325 69.1935 31.6409 68.0186Z" stroke-width="0.830372" stroke-miterlimit="10"/>
  <path stroke="currentColor" d="M38.2839 65.043C35.9745 65.9188 33.7116 66.9124 31.5039 68.0199C33.3473 67.1023 35.6807 66.027 38.2839 65.043Z" stroke-width="0.830372" stroke-miterlimit="10"/>
  <path stroke="currentColor" d="M140.835 68.0186C142.274 68.7537 143.661 69.586 144.987 70.5097C143.663 69.5823 142.276 68.7499 140.835 68.0186V68.0186Z" stroke-width="0.830372" stroke-miterlimit="10"/>
  <path stroke="currentColor" opacity="0.7" d="M109.488 63.6598H62.9875C57.5901 63.6598 58.0634 61.999 52.1927 61.999C47.5966 61.999 42.5811 63.394 38.2632 65.0423C44.3374 62.763 51.3208 61.3306 54.6838 64.9053C61.3268 71.9635 64.2331 81.0976 77.9342 81.0976H94.5416C108.243 81.0976 111.149 71.9635 117.792 64.9053C121.155 61.3306 128.138 62.763 134.213 65.0423C129.895 63.3816 124.879 61.999 120.283 61.999C114.412 61.999 114.886 63.6598 109.488 63.6598Z" stroke-width="0.830372" stroke-miterlimit="10"/>
  <path stroke="currentColor" d="M140.968 68.0199C138.769 66.9123 136.514 65.9187 134.213 65.043C136.795 66.027 139.124 67.1023 140.968 68.0199Z" stroke-width="0.830372" stroke-miterlimit="10"/>
  <path stroke="currentColor" d="M231.335 160.524C231.335 160.524 266.654 159.556 270.665 160.895C275.117 162.379 286.99 187.238 286.99 187.238C291.813 196.885 314.446 200.224 313.704 173.881C312.647 136.273 301.46 101.159 300.347 98.191C299.234 95.2228 295.338 92.4401 295.338 92.4401C291.628 78.712 264.172 79.083 264.172 79.083C264.172 79.083 259.567 81.7507 257.864 81.6802C244.507 81.1237 218.906 81.1237 204.64 81.6802C202.937 81.747 198.332 79.083 198.332 79.083C198.332 79.083 170.876 78.712 167.166 92.4401C167.166 92.4401 163.27 95.2228 162.157 98.191C161.044 101.159 149.861 136.273 148.8 173.881C148.058 200.224 170.691 196.885 175.514 187.238C175.514 187.238 187.387 162.379 191.839 160.895C195.835 159.556 231.335 160.524 231.335 160.524Z" stroke-width="1.08657" stroke-miterlimit="10"/>
  <path stroke="currentColor" d="M299.79 97.8199C298.677 94.8517 294.781 92.069 294.781 92.069C291.071 78.3409 263.615 78.7119 263.615 78.7119C263.615 78.7119 259.011 81.3759 257.307 81.3091C250.317 81.0383 240.611 80.8973 230.964 80.8936H230.593C220.947 80.8936 211.24 81.0383 204.25 81.3091C202.547 81.3759 197.943 78.7119 197.943 78.7119C197.943 78.7119 170.487 78.3409 166.776 92.069C166.776 92.069 162.88 94.8517 161.767 97.8199C161.689 98.0314 161.556 98.4136 161.396 98.933C161.404 98.8996 168.32 86.1325 206.847 85.3904C220.141 85.1344 227.132 85.0565 230.593 85.0602H230.964C234.426 85.0602 241.416 85.1344 254.71 85.3904C293.238 86.1325 300.154 98.8996 300.176 98.9404C300.002 98.4136 299.868 98.0314 299.79 97.8199Z" stroke-opacity="0.7" stroke-width="0.371029" stroke-miterlimit="10"/>
  <path stroke="currentColor" d="M275.065 107.838C278.241 107.838 280.816 105.263 280.816 102.087C280.816 98.9107 278.241 96.3359 275.065 96.3359C271.889 96.3359 269.314 98.9107 269.314 102.087C269.314 105.263 271.889 107.838 275.065 107.838Z" stroke-width="0.742059" stroke-miterlimit="10"/>
  <path stroke="currentColor" d="M288.059 119.128C291.235 119.128 293.81 116.553 293.81 113.377C293.81 110.201 291.235 107.626 288.059 107.626C284.882 107.626 282.308 110.201 282.308 113.377C282.308 116.553 284.882 119.128 288.059 119.128Z" stroke-width="0.742059" stroke-miterlimit="10"/>
  <path stroke="currentColor" d="M262.131 119.128C265.307 119.128 267.882 116.553 267.882 113.377C267.882 110.201 265.307 107.626 262.131 107.626C258.955 107.626 256.38 110.201 256.38 113.377C256.38 116.553 258.955 119.128 262.131 119.128Z" stroke-width="0.742059" stroke-miterlimit="10"/>
  <path stroke="currentColor" d="M251.557 104.127C253.401 104.127 254.896 102.632 254.896 100.788C254.896 98.9433 253.401 97.4482 251.557 97.4482C249.712 97.4482 248.217 98.9433 248.217 100.788C248.217 102.632 249.712 104.127 251.557 104.127Z" stroke-width="0.371029" stroke-miterlimit="10"/>
  <path stroke="currentColor" d="M210.743 104.057C212.588 104.057 214.083 102.562 214.083 100.718C214.083 98.8739 212.588 97.3789 210.743 97.3789C208.899 97.3789 207.404 98.8739 207.404 100.718C207.404 102.562 208.899 104.057 210.743 104.057Z" stroke-width="0.371029" stroke-miterlimit="10"/>
  <path stroke="currentColor" d="M242.826 116.742C244.67 116.742 246.165 115.247 246.165 113.403C246.165 111.559 244.67 110.063 242.826 110.063C240.982 110.063 239.487 111.559 239.487 113.403C239.487 115.247 240.982 116.742 242.826 116.742Z" stroke-width="0.185515" stroke-miterlimit="10"/>
  <path stroke="currentColor" opacity="0.7" d="M242.826 118.226C245.49 118.226 247.65 116.066 247.65 113.402C247.65 110.739 245.49 108.579 242.826 108.579C240.162 108.579 238.003 110.739 238.003 113.402C238.003 116.066 240.162 118.226 242.826 118.226Z" stroke-width="0.371029" stroke-miterlimit="10"/>
  <path stroke="currentColor" d="M185.187 122.909C190.412 122.909 194.648 118.673 194.648 113.448C194.648 108.222 190.412 103.986 185.187 103.986C179.962 103.986 175.726 108.222 175.726 113.448C175.726 118.673 179.962 122.909 185.187 122.909Z" stroke-width="1.11309" stroke-miterlimit="10"/>
  <path stroke="currentColor" d="M185.187 120.126C188.875 120.126 191.865 117.136 191.865 113.447C191.865 109.759 188.875 106.769 185.187 106.769C181.498 106.769 178.508 109.759 178.508 113.447C178.508 117.136 181.498 120.126 185.187 120.126Z" stroke-width="0.185515" stroke-miterlimit="10"/>
  <path stroke="currentColor" opacity="0.7" d="M185.187 126.434C192.359 126.434 198.173 120.62 198.173 113.448C198.173 106.276 192.359 100.462 185.187 100.462C178.015 100.462 172.201 106.276 172.201 113.448C172.201 120.62 178.015 126.434 185.187 126.434Z" stroke-width="0.371029" stroke-miterlimit="10"/>
  <path stroke="currentColor" d="M253.085 145.912C258.311 145.912 262.547 141.676 262.547 136.451C262.547 131.225 258.311 126.989 253.085 126.989C247.86 126.989 243.624 131.225 243.624 136.451C243.624 141.676 247.86 145.912 253.085 145.912Z" stroke-width="1.11309" stroke-miterlimit="10"/>
  <path stroke="currentColor" d="M253.085 143.13C256.774 143.13 259.764 140.139 259.764 136.451C259.764 132.763 256.774 129.772 253.085 129.772C249.397 129.772 246.407 132.763 246.407 136.451C246.407 140.139 249.397 143.13 253.085 143.13Z" stroke-width="0.185515" stroke-miterlimit="10"/>
  <path stroke="currentColor" opacity="0.7" d="M253.085 149.438C260.257 149.438 266.071 143.624 266.071 136.452C266.071 129.28 260.257 123.466 253.085 123.466C245.913 123.466 240.099 129.28 240.099 136.452C240.099 143.624 245.913 149.438 253.085 149.438Z" stroke-width="0.371029" stroke-miterlimit="10"/>
  <path stroke="currentColor" opacity="0.7" d="M221.132 110.435H217.422C216.807 110.435 216.309 110.933 216.309 111.548V115.258C216.309 115.873 216.807 116.371 217.422 116.371H221.132C221.747 116.371 222.245 115.873 222.245 115.258V111.548C222.245 110.933 221.747 110.435 221.132 110.435Z" stroke-width="0.371029" stroke-miterlimit="10"/>
  <path stroke="currentColor" d="M219.277 115.629C220.506 115.629 221.503 114.632 221.503 113.403C221.503 112.173 220.506 111.177 219.277 111.177C218.047 111.177 217.051 112.173 217.051 113.403C217.051 114.632 218.047 115.629 219.277 115.629Z" stroke-width="0.185515" stroke-miterlimit="10"/>
  <path stroke="currentColor" d="M215.845 133.346H208.61V126.111C208.61 125.816 208.493 125.533 208.284 125.324C208.075 125.115 207.792 124.998 207.497 124.998H203.787C203.491 124.998 203.208 125.115 202.999 125.324C202.791 125.533 202.673 125.816 202.673 126.111V133.346H195.438C195.143 133.346 194.86 133.463 194.651 133.672C194.443 133.881 194.325 134.164 194.325 134.459V138.17C194.325 138.465 194.443 138.748 194.651 138.957C194.86 139.165 195.143 139.283 195.438 139.283H202.673V146.518C202.673 146.813 202.791 147.096 202.999 147.305C203.208 147.514 203.491 147.631 203.787 147.631H207.497C207.792 147.631 208.075 147.514 208.284 147.305C208.493 147.096 208.61 146.813 208.61 146.518V139.283H215.845C216.14 139.283 216.423 139.165 216.632 138.957C216.841 138.748 216.958 138.465 216.958 138.17V134.459C216.958 134.164 216.841 133.881 216.632 133.672C216.423 133.463 216.14 133.346 215.845 133.346V133.346Z" stroke-width="0.742059" stroke-miterlimit="10"/>
  <path stroke="currentColor" d="M263.415 78.712C263.415 78.712 259.73 81.005 257.679 81.6802C281.191 84.0177 291.913 90.0358 294.782 92.403C290.433 78.5413 263.415 78.712 263.415 78.712Z" stroke-width="0.742059" stroke-miterlimit="10"/>
  <path stroke="currentColor" opacity="0.7" d="M305.011 115.629C300.584 127.502 271.373 161.217 271.373 161.217C276.416 165.54 286.586 186.867 286.586 186.867C291.409 196.513 314.042 199.853 313.3 173.51C312.691 151.315 308.539 129.991 305.011 115.629Z" stroke-width="0.742059" stroke-miterlimit="10"/>
  <path fill="currentColor" d="M227.254 87.2858C226.638 87.3961 226.066 87.6803 225.606 88.105C225.145 88.5297 224.816 89.0771 224.657 89.6827C224.542 90.1279 224.534 90.3876 224.546 93.8382C224.546 97.0068 224.546 97.081 224.609 97.3259C224.738 97.9569 225.05 98.5362 225.505 98.9924C225.96 99.4486 226.538 99.7618 227.169 99.8934C227.773 99.9579 228.38 99.9765 228.987 99.949C230.471 99.949 230.616 99.949 230.653 99.9156C230.69 99.8823 230.697 99.3702 230.697 93.6081C230.697 89.3376 230.697 87.3266 230.671 87.3006C230.645 87.2747 230.593 87.245 229.035 87.245C228.441 87.2286 227.847 87.2422 227.254 87.2858ZM229.636 93.5933V98.925H228.564C228.134 98.9544 227.701 98.932 227.276 98.8582C226.866 98.7583 226.493 98.5438 226.2 98.2396C225.906 97.9354 225.706 97.5542 225.622 97.1403C225.566 96.8732 225.566 90.3245 225.622 90.0648C225.697 89.7024 225.861 89.3643 226.099 89.0802C226.336 88.7961 226.64 88.5749 226.983 88.436C227.332 88.295 227.492 88.2802 228.62 88.2764H229.636V93.5933Z"/>
  <path fill="currentColor" d="M227.466 89.8797C227.264 89.9309 227.075 90.0245 226.913 90.1543C226.775 90.2755 226.667 90.427 226.597 90.5969C226.528 90.7669 226.499 90.9507 226.512 91.1338C226.509 91.2859 226.548 91.436 226.623 91.5679C226.741 91.8164 226.94 92.0168 227.187 92.1356C227.324 92.2119 227.48 92.2479 227.636 92.2395C227.779 92.2552 227.924 92.2388 228.059 92.1913C228.331 92.1073 228.563 91.9282 228.713 91.6869C228.863 91.4456 228.92 91.1583 228.876 90.8778C228.85 90.719 228.793 90.5669 228.708 90.4303C228.623 90.2938 228.512 90.1756 228.38 90.0827C228.249 89.9897 228.1 89.9239 227.943 89.8891C227.786 89.8542 227.624 89.8511 227.466 89.8797Z"/>
  <path fill="currentColor" d="M231.955 87.2648C231.955 87.2648 231.955 90.1254 231.955 93.6057C231.955 99.3455 231.955 99.9132 232 99.9429C232.044 99.9725 234.111 99.9429 234.363 99.9429C234.893 99.8799 235.4 99.689 235.839 99.3864C236.279 99.0839 236.638 98.6789 236.886 98.2064C236.962 98.0573 237.029 97.9037 237.087 97.7464C237.25 97.2492 237.246 97.3753 237.246 93.5983C237.246 90.5818 237.246 90.1328 237.205 89.9399C237.086 89.2765 236.763 88.6665 236.283 88.1935C235.803 87.7205 235.188 87.4077 234.523 87.2982C234.063 87.2519 233.6 87.2383 233.139 87.2574C232.489 87.2462 231.963 87.2462 231.955 87.2648ZM234.768 92.9972C234.971 93.0515 235.157 93.1546 235.311 93.2975C235.465 93.4404 235.582 93.6188 235.651 93.8172C235.738 94.0899 235.738 94.383 235.651 94.6557C235.562 94.911 235.394 95.1315 235.171 95.2852C234.948 95.4389 234.683 95.5179 234.413 95.5109C234.142 95.5039 233.881 95.4112 233.667 95.2461C233.452 95.0811 233.296 94.8522 233.22 94.5926C233.158 94.3493 233.158 94.0939 233.22 93.8506C233.318 93.5362 233.534 93.2719 233.822 93.1129C234.111 92.9538 234.449 92.9124 234.768 92.9972Z"/>
  <path fill="currentColor" d="M239.157 101.861C238.961 101.923 238.795 102.054 238.688 102.229C238.581 102.404 238.54 102.612 238.574 102.814C238.592 102.945 238.641 103.069 238.718 103.175C238.795 103.282 238.898 103.368 239.016 103.426C239.165 103.508 239.336 103.54 239.505 103.52C239.674 103.499 239.833 103.426 239.958 103.311C240.043 103.234 240.112 103.141 240.161 103.036C240.209 102.932 240.236 102.819 240.24 102.704C240.244 102.589 240.224 102.475 240.183 102.367C240.142 102.26 240.079 102.162 239.999 102.079C239.888 101.975 239.753 101.9 239.606 101.862C239.459 101.824 239.304 101.823 239.157 101.861ZM239.621 102.232C239.696 102.267 239.76 102.322 239.806 102.392C239.851 102.461 239.877 102.542 239.88 102.625C239.894 102.728 239.872 102.832 239.819 102.921C239.766 103.01 239.684 103.078 239.587 103.115C239.505 103.146 239.416 103.154 239.329 103.139C239.242 103.124 239.161 103.086 239.094 103.029C239.027 102.971 238.977 102.897 238.949 102.813C238.921 102.73 238.916 102.64 238.934 102.554C238.947 102.486 238.976 102.421 239.018 102.365C239.061 102.31 239.116 102.265 239.179 102.235C239.249 102.203 239.325 102.188 239.401 102.19C239.478 102.191 239.553 102.211 239.621 102.246V102.232Z"/>
  <path fill="currentColor" d="M221.514 102.68V103.485H221.681H221.845V102.977V102.469L222.216 102.981L222.587 103.497H222.802H222.961V101.916H222.798H222.631V102.955L222.26 102.435L221.871 101.92H221.54L221.514 102.68Z"/>
  <path fill="currentColor" d="M224.149 102.68V103.482H224.49V101.879H224.149V102.68Z"/>
  <path fill="currentColor" d="M225.688 101.912C225.688 101.912 225.688 102.283 225.688 102.706V103.471H225.852H226.015V102.421L226.412 102.951L226.805 103.482H227.121V101.879H226.779V102.384V102.888L226.408 102.384L226.037 101.879H225.881C225.77 101.879 225.696 101.886 225.688 101.912Z"/>
  <path fill="currentColor" d="M228.245 101.897C228.234 101.954 228.234 102.011 228.245 102.068V102.22H228.738V103.481H229.109V102.22H229.61V101.879H228.942C228.71 101.872 228.477 101.878 228.245 101.897Z"/>
  <path fill="currentColor" d="M230.753 102.681V103.482H231.989V103.167H231.068V102.796H231.911V102.507H231.068V102.191H231.525H231.977V102.039V101.891H230.738L230.753 102.681Z"/>
  <path fill="currentColor" d="M233.291 101.912C233.291 101.912 233.291 102.283 233.291 102.706V103.471H233.458H233.621V102.421L234.018 102.951L234.411 103.482H234.727V101.879H234.385V102.384V102.888L234.014 102.384L233.643 101.879H233.487C233.358 101.879 233.302 101.886 233.291 101.912Z"/>
  <path fill="currentColor" d="M236.07 102.677V103.482H236.419C236.686 103.515 236.958 103.459 237.19 103.323C237.307 103.243 237.399 103.133 237.458 103.005C237.517 102.877 237.541 102.735 237.527 102.595C237.512 102.454 237.46 102.32 237.376 102.207C237.292 102.094 237.179 102.005 237.049 101.95C236.873 101.886 236.683 101.863 236.496 101.883H236.07V102.677ZM236.931 102.269C237.039 102.326 237.12 102.422 237.159 102.538C237.197 102.653 237.188 102.779 237.135 102.889C237.049 103.063 236.879 103.141 236.578 103.141H236.385V102.221H236.604C236.715 102.215 236.826 102.231 236.931 102.269Z"/>
  <path fill="currentColor" d="M235.276 104.198C234.905 104.244 234.563 104.424 234.315 104.703C234.032 105.002 233.879 105.4 233.887 105.812C233.895 106.224 234.065 106.615 234.359 106.903C234.558 107.117 234.817 107.264 235.101 107.326C235.337 107.388 235.583 107.395 235.822 107.347C236.061 107.299 236.285 107.196 236.478 107.048C236.634 106.933 236.849 106.706 236.819 106.677C236.79 106.647 236.704 106.565 236.578 106.454L236.344 106.25L236.274 106.343C236.19 106.448 236.086 106.535 235.967 106.598C235.848 106.66 235.717 106.697 235.583 106.706C235.449 106.715 235.314 106.696 235.188 106.65C235.061 106.604 234.946 106.532 234.849 106.439C234.782 106.364 234.723 106.282 234.675 106.194C234.607 106.072 234.581 105.932 234.601 105.794C234.582 105.659 234.606 105.522 234.667 105.4C234.764 105.199 234.929 105.039 235.133 104.947C235.336 104.856 235.566 104.839 235.78 104.899C235.971 104.953 236.142 105.06 236.274 105.207L236.363 105.319L236.478 105.222C236.545 105.174 236.652 105.074 236.723 105.011L236.856 104.892L236.753 104.766C236.576 104.552 236.348 104.387 236.089 104.288C235.83 104.188 235.55 104.157 235.276 104.198Z"/>
  <path fill="currentColor" d="M222.256 104.313C221.633 104.48 221.307 104.9 221.448 105.371C221.548 105.723 221.878 105.894 222.761 106.05C223.351 106.157 223.525 106.243 223.525 106.421C223.525 106.551 223.451 106.647 223.284 106.721C223.117 106.795 223.11 106.792 222.754 106.792C222.442 106.813 222.13 106.753 221.848 106.617C221.79 106.585 221.728 106.561 221.663 106.547C221.633 106.584 221.381 107.051 221.388 107.055C221.59 107.148 221.798 107.225 222.012 107.285C222.415 107.367 222.829 107.379 223.236 107.322C223.822 107.211 224.115 106.951 224.141 106.484C224.17 106.332 224.145 106.175 224.071 106.039C223.996 105.904 223.877 105.799 223.733 105.742C223.435 105.601 223.117 105.506 222.791 105.46C222.349 105.374 222.219 105.334 222.13 105.245C222.091 105.205 222.069 105.152 222.069 105.096C222.069 105.041 222.091 104.987 222.13 104.948C222.32 104.759 222.998 104.751 223.525 104.948C223.582 104.971 223.642 104.984 223.703 104.985C223.781 104.824 223.851 104.659 223.911 104.491C223.708 104.408 223.497 104.346 223.28 104.306C222.941 104.249 222.595 104.251 222.256 104.313Z"/>
  <path fill="currentColor" d="M224.501 104.312C224.501 104.338 224.694 104.995 224.909 105.767C225.124 106.538 225.314 107.199 225.321 107.221C225.328 107.243 225.377 107.269 225.692 107.269H226.063L226.093 107.169C226.353 106.227 226.616 105.34 226.627 105.373C226.638 105.407 226.761 105.826 226.902 106.334L227.161 107.255H227.532H227.903L228.323 105.789C228.553 104.98 228.742 104.305 228.753 104.286C228.764 104.268 228.686 104.253 228.43 104.253H228.1L228.063 104.375C228.063 104.45 227.918 104.921 227.785 105.429C227.651 105.937 227.529 106.36 227.521 106.36C227.514 106.36 227.388 105.96 227.247 105.47C227.106 104.98 226.965 104.509 226.935 104.416L226.887 104.249H226.616H226.349L226.041 105.299C225.874 105.878 225.733 106.36 225.729 106.368C225.726 106.375 225.61 105.949 225.469 105.418C225.329 104.887 225.195 104.409 225.18 104.346L225.15 104.234H224.82C224.512 104.271 224.486 104.275 224.501 104.312Z"/>
  <path fill="currentColor" d="M229.48 105.771V107.255H230.163V105.771V104.287H229.829H229.495L229.48 105.771Z"/>
  <path fill="currentColor" d="M230.883 104.602V104.929H231.833V107.281H232.489V104.936H232.957H233.424V104.306H232.155H230.883V104.602Z"/>
  <path fill="currentColor" d="M237.491 105.771V107.255H238.122V106.071H239.517V107.281H240.147V105.797V104.312H239.839H239.528V105.5H238.133V104.316H237.502L237.491 105.771Z"/>
  <path stroke="currentColor" opacity="0.7" d="M156.885 115.629C161.311 127.502 190.522 161.217 190.522 161.217C185.48 165.532 175.31 186.867 175.31 186.867C170.487 196.513 147.854 199.853 148.596 173.51C149.208 151.315 153.36 129.991 156.885 115.629Z" stroke-width="0.742059" stroke-miterlimit="10"/>
  <path stroke="currentColor" d="M275.065 129.728C278.241 129.728 280.816 127.154 280.816 123.978C280.816 120.801 278.241 118.227 275.065 118.227C271.889 118.227 269.314 120.801 269.314 123.978C269.314 127.154 271.889 129.728 275.065 129.728Z" stroke-width="0.742059" stroke-miterlimit="10"/>
  <path stroke="currentColor" d="M198.314 78.712C198.314 78.712 201.998 81.005 204.05 81.6802C180.538 84.0177 169.815 90.0358 166.947 92.403C171.31 78.5413 198.314 78.712 198.314 78.712Z" stroke-width="0.742059" stroke-miterlimit="10"/>
  <path fill="currentColor" d="M273.829 126.103V122.122H275.058C275.261 122.113 275.463 122.154 275.648 122.241C275.806 122.324 275.936 122.453 276.019 122.612C276.113 122.776 276.161 122.961 276.16 123.15C276.162 123.322 276.12 123.492 276.037 123.644C275.961 123.79 275.846 123.913 275.703 123.996C275.889 124.067 276.045 124.197 276.148 124.367C276.265 124.551 276.323 124.766 276.315 124.983C276.319 125.203 276.268 125.421 276.167 125.617C276.079 125.787 275.94 125.926 275.77 126.014C275.556 126.106 275.324 126.148 275.091 126.137L273.829 126.103ZM274.264 123.796H274.972C275.105 123.801 275.237 123.788 275.366 123.755C275.471 123.723 275.563 123.656 275.625 123.566C275.694 123.455 275.726 123.325 275.718 123.195C275.724 123.065 275.695 122.937 275.633 122.824C275.585 122.734 275.508 122.665 275.414 122.627C275.254 122.581 275.087 122.562 274.92 122.571H274.264V123.796ZM274.264 125.651H275.076C275.21 125.658 275.345 125.641 275.473 125.603C275.592 125.563 275.692 125.481 275.755 125.373C275.825 125.248 275.858 125.107 275.852 124.964C275.854 124.835 275.822 124.707 275.759 124.593C275.702 124.493 275.615 124.414 275.51 124.367C275.354 124.309 275.187 124.284 275.02 124.293H274.278L274.264 125.651Z"/>
  <path stroke="currentColor" d="M244.158 112.66H241.491V115.038H244.158V112.66Z" stroke-width="0.371029" stroke-miterlimit="10"/>
  <path fill="currentColor" d="M242.826 112.846H240.823L241.825 112.045L242.826 111.247L243.824 112.045L244.826 112.846H242.826Z"/>
  <path fill="currentColor" d="M243.038 113.589H242.618C242.516 113.589 242.433 113.672 242.433 113.774V114.194C242.433 114.296 242.516 114.379 242.618 114.379H243.038C243.14 114.379 243.223 114.296 243.223 114.194V113.774C243.223 113.672 243.14 113.589 243.038 113.589Z"/>
  <path fill="currentColor" d="M253.69 100.346H252.02V98.6768H251.278V100.346H249.609V101.088H251.278V102.758H252.02V101.088H253.69V100.346Z"/>
  <path fill="currentColor" d="M212.784 101.089V100.347H208.703V101.089H212.784Z"/>
  <path fill="currentColor" d="M205.579 129.172H204.651L205.115 128.281L205.579 127.391L206.042 128.281L206.506 129.172H205.579Z"/>
  <path fill="currentColor" d="M205.579 143.642H204.651L205.115 144.532L205.579 145.423L206.042 144.532L206.506 143.642H205.579Z"/>
  <path fill="currentColor" d="M212.784 136.407V135.479L213.674 135.943L214.561 136.407L213.674 136.871L212.784 137.335V136.407Z"/>
  <path fill="currentColor" d="M198.314 136.407V135.479L197.423 135.943L196.533 136.407L197.423 136.871L198.314 137.335V136.407Z"/>
  <path fill="currentColor" d="M273.566 104.212L274.835 102.135L273.722 100.228H274.234L274.831 101.248C274.928 101.407 275.015 101.572 275.091 101.741C275.169 101.586 275.256 101.435 275.351 101.289L276.011 100.228H276.475L275.332 102.105L276.568 104.212H276.033L275.21 102.791C275.158 102.705 275.111 102.616 275.069 102.524C274.995 102.669 274.943 102.769 274.909 102.825L274.089 104.212H273.566Z"/>
  <path fill="currentColor" d="M286.53 115.37L287.788 111.385H288.251L289.587 115.37H289.094L288.723 114.164H287.346L286.975 115.37H286.53ZM287.465 113.733H288.578L288.24 112.62C288.133 112.279 288.058 112.004 288.01 111.793C287.966 112.05 287.905 112.304 287.828 112.554L287.465 113.733Z"/>
  <path fill="currentColor" d="M261.797 115.37V113.681L260.539 111.385H261.066L261.708 112.587C261.834 112.824 261.945 113.051 262.042 113.262C262.138 113.054 262.257 112.821 262.413 112.557L263.047 111.385H263.548L262.242 113.681V115.37H261.797Z"/>
  <defs>
    <clipPath id="">
      <rect fill="currentColor" width="32" height="32" transform="translate(675.172)"/>
    </clipPath>
    <clipPath id="">
      <rect fill="currentColor" width="32" height="22" transform="translate(675.172 5)"/>
    </clipPath>
  </defs>
</svg>
