<?xml version="1.0"?>
<svg xmlns="http://www.w3.org/2000/svg" viewBox="0 0 36 36" fill="none">
  <path fill="currentColor" d="M27 20.1931C26.9943 23.588 25.6228 26.8421 23.1861 29.2427C20.7495 31.6432 17.4463 32.9943 14.0003 32.9999C12.2937 33.0055 10.603 32.6766 9.02663 32.0323C7.45029 31.3879 6.01984 30.4411 4.81854 29.2469C2.3908 26.8485 1.01923 23.6049 1.0006 20.2178C0.93382 13.0373 6.47794 7.52611 13.8968 7.3896H19.6875V4L27 9.19871L19.6875 14.3991V11.1723H13.9519C8.7116 11.271 4.7935 15.1424 4.84024 20.1783C4.88532 25.1649 8.99373 29.2238 14.0003 29.2238C16.4289 29.2212 18.7572 28.2696 20.4745 26.5778C22.1918 24.8861 23.1577 22.5923 23.1604 20.1997"/>
  <rect fill="currentColor" width="3" height="32" transform="matrix(-1 0 0 1 34.1738 2)"/>
</svg>
