<?xml version="1.0"?>
<svg xmlns="http://www.w3.org/2000/svg" viewBox="0 0 36 36" fill="none">
  <path d="M33 20.38V15.62L29.07 14.9C28.8121 14.015 28.453 13.1628 28 12.36L30.27 9.08L26.92 5.71L23.64 8C22.8372 7.54696 21.985 7.18793 21.1 6.93L20.38 3H15.62L14.9 6.93C14.015 7.18793 13.1628 7.54696 12.36 8L9.08 5.71L5.71 9.08L8 12.36C7.54696 13.1628 7.18793 14.015 6.93 14.9L3 15.62V20.38L6.93 21.1C7.18793 21.985 7.54696 22.8372 8 23.64L5.71 26.92L9.08 30.29L12.36 28C13.1637 28.4461 14.0159 28.7984 14.9 29.05L15.62 33H20.38L21.1 29.07C21.985 28.8121 22.8372 28.453 23.64 28L26.92 30.27L30.29 26.9L28 23.64C28.4461 22.8363 28.7984 21.9841 29.05 21.1L33 20.38ZM18 23C17.0111 23 16.0444 22.7068 15.2221 22.1573C14.3999 21.6079 13.759 20.827 13.3806 19.9134C13.0022 18.9998 12.9031 17.9945 13.0961 17.0245C13.289 16.0546 13.7652 15.1637 14.4645 14.4645C15.1637 13.7652 16.0546 13.289 17.0245 13.0961C17.9945 12.9031 18.9998 13.0022 19.9134 13.3806C20.827 13.759 21.6079 14.3999 22.1573 15.2221C22.7068 16.0444 23 17.0111 23 18C23 18.6566 22.8707 19.3068 22.6194 19.9134C22.3681 20.52 21.9998 21.0712 21.5355 21.5355C21.0712 21.9998 20.52 22.3681 19.9134 22.6194C19.3068 22.8707 18.6566 23 18 23Z" fill="currentColor"/>
</svg>
