<?xml version="1.0"?>
<svg xmlns="http://www.w3.org/2000/svg" viewBox="0 0 36 32" fill="none">
  <path fill="currentColor" d="M36 22C36 27.5228 32.6421 32 28.5 32H1.5C0.671574 32 0 31.1046 0 30V2C0 0.895432 0.671574 0 1.5 0H34.5C35.3284 0 36 0.895432 36 2V22Z"/>
  <path fill="currentColor" d="M17.7153 23H14.7813L12.2433 18.752H11.9373H10.0653V23H7.41931V10.4H12.1353C13.8633 10.4 15.1353 10.748 15.9513 11.444C16.7673 12.128 17.1753 13.088 17.1753 14.324C17.1753 15.296 16.9593 16.106 16.5273 16.754C16.1073 17.402 15.5133 17.894 14.7453 18.23L17.7153 23ZM10.0653 12.65V16.484H12.1353C12.8313 16.484 13.3713 16.31 13.7553 15.962C14.1513 15.602 14.3493 15.11 14.3493 14.486C14.3493 13.874 14.1573 13.418 13.7733 13.118C13.4013 12.806 12.8013 12.65 11.9733 12.65H10.0653Z"/>
  <path fill="currentColor" d="M22.9136 20.714H28.9796V23H19.5656V20.804L23.2016 17.78L23.5076 17.51C24.0596 17.042 24.4796 16.664 24.7676 16.376C25.0676 16.088 25.3076 15.782 25.4876 15.458C25.6676 15.134 25.7576 14.78 25.7576 14.396C25.7576 13.772 25.5296 13.304 25.0736 12.992C24.6296 12.668 24.0536 12.506 23.3456 12.506C22.8176 12.506 22.3016 12.59 21.7976 12.758C21.3056 12.926 20.8736 13.136 20.5016 13.388L19.6016 11.444C20.1536 11.06 20.7836 10.754 21.4916 10.526C22.2116 10.298 22.9796 10.184 23.7956 10.184C25.2476 10.184 26.4116 10.502 27.2876 11.138C28.1636 11.774 28.6016 12.68 28.6016 13.856C28.6016 14.72 28.3496 15.506 27.8456 16.214C27.3416 16.91 26.5676 17.69 25.5236 18.554L22.9136 20.714Z"/>
</svg>
