<?xml version="1.0"?>
<svg xmlns="http://www.w3.org/2000/svg" viewBox="0 0 1920 1080" fill="none">
  <path fill="currentColor" d="M1152.79 691H480.654C469.259 691 460 700.279 460 711.699V914.002C460 925.422 469.259 934.701 480.654 934.701H1152.79C1164.18 934.701 1173.44 925.422 1173.44 914.002V711.699C1173.44 700.279 1164.21 691 1152.79 691ZM786.691 720.078C786.691 716.912 789.261 714.337 792.42 714.337H812.392C815.55 714.337 818.12 716.912 818.12 720.078V740.093C818.12 743.259 815.55 745.834 812.392 745.834L792.42 745.803C789.262 745.803 786.691 743.228 786.691 740.062V720.078ZM786.691 761.444C786.691 758.279 789.261 755.703 792.42 755.703H812.392C815.55 755.703 818.12 758.278 818.12 761.444V781.46C818.12 784.625 815.55 787.201 812.392 787.201L792.42 787.17C789.262 787.17 786.691 784.594 786.691 781.429V761.444ZM797.436 802.841V822.857C797.436 826.022 794.866 828.598 791.708 828.598H771.736C768.578 828.598 766.008 826.022 766.008 822.857L766.039 802.841C766.039 799.676 768.609 797.1 771.767 797.1H791.739C794.897 797.1 797.436 799.676 797.436 802.841ZM743.341 720.074C743.341 716.909 745.911 714.333 749.07 714.333H769.041C772.2 714.333 774.77 716.909 774.77 720.074V740.09C774.77 743.255 772.2 745.831 769.041 745.831H749.07C745.911 745.831 743.341 743.255 743.341 740.09V720.074ZM743.341 761.44C743.341 758.275 745.911 755.699 749.07 755.699H769.041C772.2 755.699 774.77 758.275 774.77 761.44V781.456C774.77 784.622 772.2 787.197 769.041 787.197H749.07C745.911 787.197 743.341 784.622 743.341 781.456V761.44ZM569.907 844.207C569.907 841.042 572.477 838.466 575.636 838.466H595.607C598.766 838.466 601.336 841.042 601.336 844.207V864.223C601.336 867.388 598.766 869.964 595.607 869.964L575.636 869.933C572.477 869.933 569.907 867.357 569.907 864.192V844.207ZM554.982 828.567C551.824 828.567 549.254 825.991 549.254 822.826L549.285 802.84C549.285 799.675 551.855 797.099 555.013 797.099H574.985C578.143 797.099 580.713 799.675 580.713 802.84V822.856C580.713 826.022 578.143 828.597 574.985 828.597L554.982 828.567ZM598.332 828.567C595.174 828.567 592.604 825.991 592.604 822.826L592.635 802.84C592.635 799.675 595.205 797.099 598.363 797.099H618.335C621.494 797.099 624.064 799.675 624.064 802.84V822.856C624.064 826.022 621.494 828.597 618.335 828.597L598.332 828.567ZM613.288 844.207C613.288 841.042 615.858 838.466 619.017 838.466H638.989C642.147 838.466 644.717 841.042 644.717 844.207V864.223C644.717 867.388 642.147 869.964 638.989 869.964H619.017C615.859 869.964 613.288 867.388 613.288 864.223V844.207ZM641.714 828.567C638.555 828.567 635.985 825.991 635.985 822.826V802.84C635.985 799.675 638.555 797.099 641.714 797.099H661.685C664.844 797.099 667.414 799.675 667.414 802.84V822.856C667.414 826.022 664.844 828.597 661.685 828.597L641.714 828.567ZM656.639 844.207C656.639 841.042 659.209 838.466 662.367 838.466H682.339C685.497 838.466 688.067 841.042 688.067 844.207V864.223C688.067 867.388 685.497 869.964 682.339 869.964H662.367C659.209 869.964 656.639 867.388 656.639 864.223V844.207ZM685.064 828.567C681.906 828.567 679.335 825.991 679.335 822.826V802.84C679.335 799.675 681.906 797.099 685.064 797.099H705.036C708.194 797.099 710.764 799.675 710.764 802.84V822.856C710.764 826.022 708.194 828.597 705.036 828.597L685.064 828.567ZM699.989 844.207C699.989 841.042 702.559 838.466 705.717 838.466H725.689C728.848 838.466 731.418 841.042 731.418 844.207V864.223C731.418 867.388 728.848 869.964 725.689 869.964H705.717C702.559 869.964 699.989 867.388 699.989 864.223V844.207ZM728.414 828.567C725.256 828.567 722.686 825.991 722.686 822.826V802.84C722.686 799.675 725.256 797.099 728.414 797.099H748.386C751.544 797.099 754.114 799.675 754.114 802.84V822.856C754.114 826.022 751.544 828.597 748.386 828.597L728.414 828.567ZM699.989 720.08C699.989 716.915 702.559 714.339 705.717 714.339H725.689C728.848 714.339 731.418 716.915 731.418 720.08V740.096C731.418 743.261 728.848 745.837 725.689 745.837H705.717C702.559 745.837 699.989 743.261 699.989 740.096V720.08ZM699.989 761.446C699.989 758.281 702.559 755.705 705.717 755.705H725.689C728.848 755.705 731.418 758.281 731.418 761.446V781.462C731.418 784.627 728.848 787.203 725.689 787.203H705.717C702.559 787.203 699.989 784.628 699.989 781.462V761.446ZM656.639 720.08C656.639 716.915 659.209 714.339 662.367 714.339H682.339C685.497 714.339 688.067 716.915 688.067 720.08V740.096C688.067 743.261 685.497 745.837 682.339 745.837H662.367C659.209 745.837 656.639 743.261 656.639 740.096V720.08ZM656.639 761.446C656.639 758.281 659.209 755.705 662.367 755.705H682.339C685.497 755.705 688.067 758.281 688.067 761.446V781.462C688.067 784.627 685.497 787.203 682.339 787.203H662.367C659.209 787.203 656.639 784.628 656.639 781.462V761.446ZM613.288 720.08C613.288 716.915 615.858 714.339 619.017 714.339H638.989C642.147 714.339 644.717 716.915 644.717 720.08V740.096C644.717 743.261 642.147 745.837 638.989 745.837H619.017C615.859 745.837 613.288 743.261 613.288 740.096V720.08ZM613.288 761.446C613.288 758.281 615.858 755.705 619.017 755.705H638.989C642.147 755.705 644.717 758.281 644.717 761.446V781.462C644.717 784.627 642.147 787.203 638.989 787.203H619.017C615.859 787.203 613.288 784.628 613.288 781.462V761.446ZM569.907 720.08C569.907 716.915 572.477 714.339 575.636 714.339H595.607C598.766 714.339 601.336 716.915 601.336 720.08V740.096C601.336 743.261 598.766 745.837 595.607 745.837L575.636 745.806C572.477 745.806 569.907 743.23 569.907 740.065V720.08ZM569.907 761.446C569.907 758.281 572.477 755.705 575.636 755.705H595.607C598.766 755.705 601.336 758.281 601.336 761.446V781.462C601.336 784.627 598.766 787.203 595.607 787.203L575.636 787.172C572.477 787.172 569.907 784.597 569.907 781.431V761.446ZM526.557 720.08C526.557 716.915 529.127 714.339 532.285 714.339H552.227C555.385 714.339 557.955 716.915 557.955 720.08V740.096C557.955 743.261 555.385 745.837 552.227 745.837H532.255C529.097 745.837 526.527 743.261 526.527 740.096L526.557 720.08ZM526.557 761.446C526.557 758.281 529.127 755.705 532.285 755.705L552.227 755.736C555.385 755.736 557.955 758.312 557.955 761.477V781.493C557.955 784.659 555.385 787.234 552.227 787.234H532.255C529.097 787.234 526.527 784.659 526.527 781.493L526.557 761.446ZM483.207 720.08C483.207 716.915 485.777 714.339 488.935 714.339H508.907C512.065 714.339 514.635 716.915 514.635 720.08V740.096C514.635 743.261 512.065 745.837 508.907 745.837L488.935 745.806C485.777 745.806 483.207 743.23 483.207 740.065V720.08ZM483.207 761.446C483.207 758.281 485.777 755.705 488.935 755.705H508.907C512.065 755.705 514.635 758.281 514.635 761.446V781.462C514.635 784.627 512.065 787.203 508.907 787.203L488.935 787.172C485.777 787.172 483.207 784.597 483.207 781.431V761.446ZM483.207 802.844C483.207 799.678 485.777 797.103 488.935 797.103H531.604C534.763 797.103 537.333 799.678 537.333 802.844V822.859C537.333 826.025 534.763 828.601 531.604 828.601L488.935 828.57C485.777 828.57 483.207 825.994 483.207 822.828V802.844ZM514.604 905.597C514.604 908.762 512.034 911.338 508.876 911.338H488.935C485.776 911.338 483.206 908.763 483.206 905.597V885.581C483.206 882.416 485.776 879.84 488.935 879.84H508.906C512.065 879.84 514.635 882.416 514.635 885.581L514.604 905.597ZM557.955 905.597C557.955 908.762 555.385 911.338 552.226 911.338H532.254C529.096 911.338 526.526 908.763 526.526 905.597V885.581C526.526 882.416 529.096 879.84 532.254 879.84L552.226 879.871C555.385 879.871 557.955 882.447 557.955 885.612V905.597ZM557.955 864.231C557.955 867.396 555.385 869.972 552.226 869.972L488.935 869.941C485.777 869.941 483.207 867.365 483.207 864.2V844.184C483.207 841.019 485.777 838.443 488.935 838.443L552.226 838.505C555.385 838.505 557.955 841.081 557.955 844.246V864.231ZM774.742 905.597C774.742 908.762 772.172 911.338 769.014 911.338H575.637C572.479 911.338 569.909 908.763 569.909 905.597V885.581C569.909 882.416 572.479 879.84 575.637 879.84H769.014C772.172 879.84 774.742 882.416 774.742 885.581V905.597ZM774.742 864.231C774.742 867.396 772.172 869.972 769.014 869.972H749.042C745.884 869.972 743.314 867.396 743.314 864.231V844.215C743.314 841.05 745.884 838.474 749.042 838.474H769.014C772.172 838.474 774.742 841.05 774.742 844.215V864.231ZM818.092 905.597C818.092 908.762 815.522 911.338 812.364 911.338H792.423C789.264 911.338 786.694 908.763 786.694 905.597V885.581C786.694 882.416 789.264 879.84 792.423 879.84H812.394C815.553 879.84 818.123 882.416 818.123 885.581L818.092 905.597ZM861.443 905.597C861.443 908.762 858.873 911.338 855.714 911.338H835.742C832.584 911.338 830.014 908.763 830.014 905.597V885.581C830.014 882.416 832.584 879.84 835.742 879.84H855.714C858.873 879.84 861.443 882.416 861.443 885.581V905.597ZM861.443 864.231C861.443 867.396 858.873 869.972 855.714 869.972L792.423 869.941C789.265 869.941 786.695 867.365 786.695 864.2V844.184C786.695 841.019 789.265 838.443 792.423 838.443H855.745C858.904 838.443 861.474 841.019 861.474 844.184L861.443 864.231ZM861.443 822.834C861.443 825.999 858.873 828.575 855.714 828.575H815.12C811.962 828.575 809.392 825.999 809.392 822.834L809.423 802.848C809.423 799.683 811.993 797.107 815.151 797.107H855.745C858.904 797.107 861.474 799.683 861.474 802.848L861.443 822.834ZM861.443 781.467C861.443 784.633 858.873 787.209 855.714 787.209H835.742C832.584 787.209 830.014 784.633 830.014 781.467V761.452C830.014 758.286 832.584 755.711 835.742 755.711H855.714C858.873 755.711 861.443 758.286 861.443 761.452V781.467ZM861.443 740.07C861.443 743.235 858.873 745.811 855.714 745.811H835.742C832.584 745.811 830.014 743.236 830.014 740.07V720.054C830.014 716.889 832.584 714.313 835.742 714.313H855.714C858.873 714.313 861.443 716.889 861.443 720.054V740.07ZM919.254 905.597C919.254 908.762 916.684 911.338 913.525 911.338H893.553C890.395 911.338 887.825 908.763 887.825 905.597V885.581C887.825 882.416 890.395 879.84 893.553 879.84H913.525C916.684 879.84 919.254 882.416 919.254 885.581V905.597ZM919.254 781.467C919.254 784.632 916.684 787.208 913.525 787.208H893.553C890.395 787.208 887.825 784.632 887.825 781.467V761.451C887.825 758.286 890.395 755.71 893.553 755.71H913.525C916.684 755.71 919.254 758.286 919.254 761.451V781.467ZM919.254 740.07C919.254 743.235 916.684 745.811 913.525 745.811H893.553C890.395 745.811 887.825 743.235 887.825 740.07V720.054C887.825 716.888 890.395 714.313 893.553 714.313H913.525C916.684 714.313 919.254 716.888 919.254 720.054V740.07ZM962.604 905.597C962.604 908.762 960.034 911.338 956.875 911.338H936.904C933.745 911.338 931.175 908.762 931.175 905.597V885.581C931.175 882.415 933.745 879.84 936.904 879.84H956.875C960.034 879.84 962.604 882.415 962.604 885.581V905.597ZM962.604 864.23C962.604 867.396 960.034 869.971 956.875 869.971H936.904C933.745 869.971 931.175 867.396 931.175 864.23V844.215C931.175 841.049 933.745 838.473 936.904 838.473H956.875C960.034 838.473 962.604 841.049 962.604 844.215V864.23ZM962.604 781.464C962.604 784.629 960.034 787.205 956.875 787.205H936.904C933.745 787.205 931.175 784.629 931.175 781.464V761.448C931.175 758.282 933.745 755.707 936.904 755.707H956.875C960.034 755.707 962.604 758.282 962.604 761.448V781.464ZM962.604 740.066C962.604 743.232 960.034 745.807 956.875 745.807H936.904C933.745 745.807 931.175 743.232 931.175 740.066V720.05C931.175 716.885 933.745 714.309 936.904 714.309H956.875C960.034 714.309 962.604 716.885 962.604 720.05V740.066ZM1005.95 905.593C1005.95 908.758 1003.38 911.334 1000.23 911.334H980.254C977.096 911.334 974.525 908.759 974.525 905.593V885.577C974.525 882.412 977.095 879.836 980.254 879.836H1000.23C1003.38 879.836 1005.95 882.412 1005.95 885.577V905.593ZM1005.95 781.463C1005.95 784.628 1003.38 787.204 1000.23 787.204H980.254C977.096 787.204 974.525 784.628 974.525 781.463V761.447C974.525 758.282 977.095 755.706 980.254 755.706H1000.23C1003.38 755.706 1005.95 758.282 1005.95 761.447V781.463ZM1005.95 740.066C1005.95 743.231 1003.38 745.807 1000.23 745.807H980.254C977.096 745.807 974.525 743.231 974.525 740.066V720.05C974.525 716.885 977.095 714.309 980.254 714.309H1000.23C1003.38 714.309 1005.95 716.884 1005.95 720.05V740.066ZM1063.77 905.593C1063.77 908.758 1061.19 911.334 1058.04 911.334H1038.06C1034.91 911.334 1032.34 908.758 1032.34 905.593V885.577C1032.34 882.411 1034.91 879.836 1038.06 879.836H1058.04C1061.19 879.836 1063.77 882.411 1063.77 885.577V905.593ZM1063.77 864.226C1063.77 867.392 1061.19 869.967 1058.04 869.967H1038.06C1034.91 869.967 1032.34 867.392 1032.34 864.226V844.211C1032.34 841.045 1034.91 838.47 1038.06 838.47H1058.04C1061.19 838.47 1063.77 841.045 1063.77 844.211V864.226ZM1063.77 822.829C1063.77 825.994 1061.19 828.57 1058.04 828.57H1038.06C1034.91 828.57 1032.34 825.994 1032.34 822.829L1032.4 802.844C1032.4 799.678 1034.97 797.103 1038.13 797.103H1058.1C1061.26 797.103 1063.83 799.678 1063.83 802.844L1063.77 822.829ZM1063.77 781.463C1063.77 784.628 1061.19 787.204 1058.04 787.204H1038.06C1034.91 787.204 1032.34 784.628 1032.34 781.463V761.447C1032.34 758.282 1034.91 755.706 1038.06 755.706H1058.04C1061.19 755.706 1063.77 758.282 1063.77 761.447V781.463ZM1063.77 740.066C1063.77 743.231 1061.19 745.807 1058.04 745.807H1038.06C1034.91 745.807 1032.34 743.231 1032.34 740.066V720.05C1032.34 716.885 1034.91 714.309 1038.06 714.309H1058.04C1061.19 714.309 1063.77 716.884 1063.77 720.05V740.066ZM1107.15 905.593C1107.15 908.758 1104.58 911.334 1101.42 911.334H1081.45C1078.29 911.334 1075.72 908.758 1075.72 905.593V885.577C1075.72 882.411 1078.29 879.836 1081.45 879.836H1101.42C1104.58 879.836 1107.15 882.411 1107.15 885.577V905.593ZM1107.15 864.226C1107.15 867.392 1104.58 869.967 1101.42 869.967H1081.45C1078.29 869.967 1075.72 867.392 1075.72 864.226V844.211C1075.72 841.045 1078.29 838.47 1081.45 838.47H1101.42C1104.58 838.47 1107.15 841.045 1107.15 844.211V864.226ZM1107.15 822.829C1107.15 825.994 1104.58 828.57 1101.42 828.57H1081.45C1078.29 828.57 1075.72 825.994 1075.72 822.829L1075.75 802.844C1075.75 799.678 1078.32 797.103 1081.48 797.103H1101.45C1104.61 797.103 1107.18 799.678 1107.18 802.844L1107.15 822.829ZM1107.15 781.463C1107.15 784.628 1104.58 787.204 1101.42 787.204H1081.45C1078.29 787.204 1075.72 784.628 1075.72 781.463V761.447C1075.72 758.282 1078.29 755.706 1081.45 755.706H1101.42C1104.58 755.706 1107.15 758.282 1107.15 761.447V781.463ZM1107.15 740.066C1107.15 743.231 1104.58 745.807 1101.42 745.807H1081.45C1078.29 745.807 1075.72 743.231 1075.72 740.066V720.05C1075.72 716.885 1078.29 714.309 1081.45 714.309H1101.42C1104.58 714.309 1107.15 716.884 1107.15 720.05V740.066ZM1150.5 905.593C1150.5 908.758 1147.93 911.334 1144.77 911.334H1124.8C1121.64 911.334 1119.07 908.758 1119.07 905.593V885.577C1119.07 882.411 1121.64 879.836 1124.8 879.836H1144.77C1147.93 879.836 1150.5 882.411 1150.5 885.577V905.593ZM1150.5 864.226C1150.5 867.392 1147.93 869.967 1144.77 869.967H1124.8C1121.64 869.967 1119.07 867.392 1119.07 864.226V844.211C1119.07 841.045 1121.64 838.47 1124.8 838.47H1144.77C1147.93 838.47 1150.5 841.045 1150.5 844.211V864.226ZM1150.5 822.829C1150.5 825.994 1147.93 828.57 1144.77 828.57H1124.8C1121.64 828.57 1119.07 825.994 1119.07 822.829L1119.1 802.844C1119.1 799.678 1121.67 797.103 1124.83 797.103H1144.8C1147.96 797.103 1150.53 799.678 1150.53 802.844L1150.5 822.829ZM1150.5 781.463C1150.5 784.628 1147.93 787.204 1144.77 787.204H1124.8C1121.64 787.204 1119.07 784.628 1119.07 781.463V761.447C1119.07 758.282 1121.64 755.706 1124.8 755.706H1144.77C1147.93 755.706 1150.5 758.282 1150.5 761.447V781.463ZM1150.5 740.066C1150.5 743.231 1147.93 745.807 1144.77 745.807H1124.8C1121.64 745.807 1119.07 743.231 1119.07 740.066V720.05C1119.07 716.885 1121.64 714.309 1124.8 714.309H1144.77C1147.93 714.309 1150.5 716.884 1150.5 720.05V740.066Z"/>
  <path fill="currentColor" d="M1304.45 725.463C1282.51 725.463 1264.72 743.252 1264.72 765.196V857.909C1264.72 894.483 1294.37 924.132 1330.94 924.132C1367.52 924.132 1397.16 894.483 1397.16 857.909V765.196C1397.16 743.252 1379.38 725.463 1357.43 725.463H1350.81V798.308C1350.81 809.28 1341.91 818.175 1330.94 818.175C1319.97 818.175 1311.07 809.28 1311.07 798.308V725.463H1304.45Z"/>
  <path fill="currentColor" d="M1324.32 738.707H1337.56V778.441H1324.32V738.707Z"/>
  <path fill="#1A9FFF" d="M879.621 183.879C878.45 182.707 876.55 182.707 875.379 183.879L856.287 202.971C855.115 204.142 855.115 206.042 856.287 207.213C857.458 208.385 859.358 208.385 860.529 207.213L877.5 190.243L894.471 207.213C895.642 208.385 897.542 208.385 898.713 207.213C899.885 206.042 899.885 204.142 898.713 202.971L879.621 183.879ZM877.5 302L880.5 302L880.5 186L877.5 186L874.5 186L874.5 302L877.5 302Z"/>
  <path fill="#1A9FFF" d="M798.121 183.879C796.95 182.707 795.05 182.707 793.879 183.879L774.787 202.971C773.615 204.142 773.615 206.042 774.787 207.213C775.958 208.385 777.858 208.385 779.029 207.213L796 190.243L812.971 207.213C814.142 208.385 816.042 208.385 817.213 207.213C818.385 206.042 818.385 204.142 817.213 202.971L798.121 183.879ZM796 302L799 302L799 186L796 186L793 186L793 302L796 302Z"/>
  <rect fill="currentColor" x="1319" y="681" width="24.2764" height="35.947"/>
  <rect fill="currentColor" x="866.277" y="680.556" width="24.2764" height="21.4441"/>
  <rect fill="currentColor" x="774" y="348" width="44" height="39"/>
  <rect stroke="currentColor" x="782.5" y="323.5" width="27" height="55" stroke-width="3"/>
  <path stroke="currentColor" d="M796.278 353C796.278 353 796.277 456.189 796.277 508.943C796.277 539 809.66 561.298 839.277 569.234C884.277 581.292 878.12 605.5 878.12 690.261" stroke-width="6.06911"/>
  <rect fill="currentColor" x="855" y="348" width="44" height="39"/>
  <rect stroke="currentColor" x="863.5" y="323.5" width="27" height="55" stroke-width="3"/>
  <path stroke="currentColor" d="M877.002 353C877.002 353 877 431.786 877 484.5C877 544.744 967.814 559.5 1124.58 559.5C1288.83 559.5 1329.5 599.5 1329.5 690" stroke-width="6.06911"/>
  <path fill="currentColor" d="M1193 141H728V0H1193V141ZM1155 77C1143.95 77 1135 85.9543 1135 97C1135 108.046 1143.95 117 1155 117C1166.05 117 1175 108.046 1175 97C1175 85.9543 1166.05 77 1155 77ZM771 107H821V87H771V107ZM852 107H902V87H852V107Z"/>
</svg>
