<?xml version="1.0"?>
<svg width="36" height="36" viewBox="0 0 36 36" fill="none" xmlns="http://www.w3.org/2000/svg">
  <path d="M33.9668 18.2627C33.9332 18.1521 33.9332 18.0047 33.9332 17.894C33.5963 15.0184 31.9121 12.659 29.3857 11.5899C26.7246 10.447 23.7604 11.0369 21.6383 13.0645L19.2803 15.3134L21.8403 17.7833L23.8614 15.8294C25.0404 14.7234 26.6909 14.3915 28.1731 15.0184C29.3857 15.5345 30.1941 16.493 30.4973 17.7833C30.531 17.9677 30.5646 18.152 30.5984 18.3363C30.6321 18.5575 30.6657 18.7787 30.6657 19C30.6657 19.2212 30.6321 19.4423 30.5984 19.6637C30.43 21.212 29.5542 22.4287 28.1732 22.9816C27.9037 23.0923 27.6679 23.166 27.3984 23.2397C27.1289 23.2765 26.8931 23.3133 26.6236 23.3133C25.613 23.3133 24.6362 22.9078 23.8615 22.1705L14.3622 13.0645C12.9475 11.7005 11.1958 11 9.37683 11C8.4336 11 7.52418 11.1843 6.61475 11.5898C4.0884 12.659 2.40417 15.0184 2.06732 17.894C2.03366 18.2627 2 18.6313 2 19C2 19.258 2.03366 19.5162 2.03366 19.7742C2.03366 19.8848 2.03366 19.9953 2.06732 20.106C2.40417 23.0185 4.0884 25.3779 6.61475 26.4102C7.52418 26.8157 8.4674 27 9.37683 27C11.1958 27 12.9474 26.2995 14.3622 24.9355L16.7201 22.6867L14.1601 20.2535L12.139 22.1705C10.96 23.3133 9.30949 23.6083 7.82737 22.9815C6.61475 22.4654 5.80629 21.47 5.5031 20.2165C5.43577 20.0322 5.402 19.8479 5.402 19.6635C5.36834 19.4424 5.36834 19.2212 5.36834 18.9999C5.36834 18.7787 5.402 18.5575 5.402 18.3362C5.57042 16.7879 6.47985 15.6081 7.82724 15.0182C8.33251 14.7971 8.87143 14.6864 9.3767 14.6864C10.3872 14.6864 11.3641 15.0919 12.1388 15.8292L21.6378 24.9353C23.0525 26.2993 24.8042 26.9998 26.6232 26.9998C27.5664 26.9998 28.4758 26.8154 29.3853 26.4099C31.9116 25.3408 33.6295 22.9813 33.9327 20.1057C33.9663 19.7371 34 19.3684 34 18.9998C34.0003 18.742 33.9667 18.5207 33.9667 18.2627L33.9668 18.2627Z" fill="currentColor"/>
</svg>
