<?xml version="1.0"?>
<svg width="36" height="36" viewBox="0 0 36 36" fill="none" xmlns="http://www.w3.org/2000/svg">
  <path d="M14 17C15.4706 16.9968 16.9289 17.2682 18.3 17.8C16.5605 19.2553 15.269 21.1737 14.5752 23.333C13.8814 25.4922 13.8137 27.8039 14.38 30H2V29C2 25.8174 3.26428 22.7652 5.51472 20.5147C7.76515 18.2643 10.8174 17 14 17Z" fill="currentColor"/>
  <path d="M10.6666 2.01118C11.6533 1.35189 12.8133 1 14 1C15.5913 1 17.1174 1.63214 18.2426 2.75736C19.3679 3.88258 20 5.4087 20 7C20 8.18669 19.6481 9.34673 18.9888 10.3334C18.3295 11.3201 17.3925 12.0892 16.2961 12.5433C15.1997 12.9974 13.9933 13.1162 12.8295 12.8847C11.6656 12.6532 10.5965 12.0818 9.75736 11.2426C8.91824 10.4035 8.3468 9.33443 8.11529 8.17054C7.88378 7.00666 8.0026 5.80026 8.45672 4.7039C8.91085 3.60754 9.67988 2.67047 10.6666 2.01118Z" fill="currentColor"/>
  <path d="M32.5 27C32.5 28.2856 32.1188 29.5423 31.4046 30.6112C30.6903 31.6801 29.6752 32.5132 28.4874 33.0052C27.2997 33.4972 25.9928 33.6259 24.7319 33.3751C23.471 33.1243 22.3128 32.5052 21.4038 31.5962C20.4948 30.6872 19.8757 29.529 19.6249 28.2681C19.3741 27.0072 19.5028 25.7003 19.9948 24.5126C20.4868 23.3248 21.3199 22.3097 22.3888 21.5954C23.4577 20.8812 24.7144 20.5 26 20.5" stroke="currentColor" stroke-width="3"/>
  <path d="M32.7419 20.4742L25.9919 24.3713L25.9919 16.5771L32.7419 20.4742Z" fill="currentColor"/>
</svg>
