<?xml version="1.0"?>
<svg xmlns="http://www.w3.org/2000/svg" viewBox="0 0 36 32" fill="none">
  <path fill="currentColor" d="M0 22C0 27.5228 3.35786 32 7.5 32H34.5C35.3284 32 36 31.1046 36 30V2C36 0.895432 35.3284 0 34.5 0H1.5C0.671574 0 0 0.895432 0 2V22Z"/>
  <path fill="currentColor" d="M17.7846 23H9.32458V10.4H11.9706V20.624H17.7846V23Z"/>
  <path fill="currentColor" d="M23.0083 20.714H29.0743V23H19.6603V20.804L23.2963 17.78L23.6023 17.51C24.1543 17.042 24.5743 16.664 24.8623 16.376C25.1623 16.088 25.4023 15.782 25.5823 15.458C25.7623 15.134 25.8523 14.78 25.8523 14.396C25.8523 13.772 25.6243 13.304 25.1683 12.992C24.7243 12.668 24.1483 12.506 23.4403 12.506C22.9123 12.506 22.3963 12.59 21.8923 12.758C21.4003 12.926 20.9683 13.136 20.5963 13.388L19.6963 11.444C20.2483 11.06 20.8783 10.754 21.5863 10.526C22.3063 10.298 23.0743 10.184 23.8903 10.184C25.3423 10.184 26.5063 10.502 27.3823 11.138C28.2583 11.774 28.6963 12.68 28.6963 13.856C28.6963 14.72 28.4443 15.506 27.9403 16.214C27.4363 16.91 26.6623 17.69 25.6183 18.554L23.0083 20.714Z"/>
</svg>
