<?xml version="1.0"?>
<svg xmlns="http://www.w3.org/2000/svg" version="1.1" viewBox="0 0 1024 1024">
  <path d="M496.2,371.2c-21,0-38-17-38-38.9s17-38.9,38-38.9,38,17,38,38.9-17,38.9-38,38.9M280.9,371.2c-21,0-38-17-38-38.9s17-38.9,38-38.9,38,17,38,38.9-17,38.9-38,38.9M388.6,147.8c-178.9,0-323.8,121.4-323.8,271.2s43.7,155.4,111.7,204.8c5.7,4,8.9,10.5,8.9,17.8s-.8,4.9-.8,7.3c-5.7,20.2-13.8,53.4-14.6,55-.8,2.4-1.6,4.9-1.6,8.1,0,5.7,4.9,10.5,10.5,10.5s4-.8,6.5-1.6l70.4-41.3c5.7-3.2,11.3-4.9,17-4.9s6.5.8,9.7,1.6c33.2,9.7,68.8,14.6,105.2,14.6s12.1,0,17.8-.8c-7.3-21-10.5-43.7-10.5-66.4,0-136.8,131.9-247.7,294.6-247.7s7.3,0,13,.8c-24.3-130.3-153-229.1-314.1-229.1"/>
  <path d="M779.5,584.8c-18.6,0-34-15.4-34-34s15.4-34,34-34,34,15.4,34,34-15.4,34-34,34M599.8,584.8c-18.6,0-34-15.4-34-34s15.4-34,34-34,34,15.4,34,34-15.4,34-34,34M866.1,794.5c56.7-41.3,93.1-102.8,93.1-170.8,0-124.7-120.6-225.8-269.5-225.8s-269.5,101.2-269.5,225.8,120.6,225.8,269.5,225.8,60.7-4,88.2-12.1c2.4-.8,4.9-.8,8.1-.8,4.9,0,9.7,1.6,14.6,4l59.1,34c1.6.8,3.2,1.6,4.9,1.6,4.9,0,8.9-4,8.9-8.9s-.8-4.9-1.6-6.5c0-1.6-7.3-28.3-12.1-45.3-.8-1.6-.8-4-.8-5.7-.8-6.5,2.4-12.1,7.3-15.4"/>
</svg>
