<?xml version="1.0"?>
<svg xmlns="http://www.w3.org/2000/svg" width="1040" height="713" viewBox="0 0 1040 713" fill="none">
  <path onClick="" stroke="currentColor" d="M695.778 49.417L696.247 48.0704C702.266 30.8094 719.094 19.7128 737.331 20.9787L780.576 23.9807L823.821 26.9827C842.057 28.2487 857.19 41.564 860.767 59.4911L862.994 70.6541L823.711 56.1543L695.778 49.417Z" stroke-width="4" stroke-miterlimit="10"/>
  <path onClick="" stroke="currentColor" d="M345.046 49.7627L344.576 48.4161C338.557 31.1551 321.729 20.0585 303.493 21.3244L260.248 24.3264L217.002 27.3284C198.766 28.5944 183.633 41.9097 180.056 59.8368L177.829 70.9998L217.112 56.5L345.046 49.7627Z" stroke-width="4" stroke-miterlimit="10"/>
  <path stroke="currentColor" d="M787.106 556.99L833.911 646.234C852.612 681.892 897.75 694.023 931.807 672.542C997.198 631.299 1031.02 554.501 1017.3 478.416L1009.77 436.645C995.3 356.401 974.02 277.536 946.162 200.905L930.526 157.897L930.526 157.895C925.695 144.608 923.28 137.964 920.473 132.081C901.504 92.3158 864.34 64.296 820.891 57.0005C814.462 55.921 807.409 55.427 793.304 54.4389L654.413 44.709H385.587L246.695 54.4389C232.591 55.427 225.538 55.921 219.109 57.0005C175.66 64.2959 138.496 92.3158 119.527 132.081C116.72 137.964 114.305 144.609 109.474 157.897L109.474 157.897L93.8385 200.904C65.9796 277.536 44.7001 356.401 30.231 436.645L22.6991 478.416C8.97999 554.5 42.8023 631.299 108.193 672.542C142.25 694.023 187.388 681.892 206.089 646.234L252.894 556.99C267.563 529.021 274.897 515.036 285.004 504.282C298.538 489.882 315.76 479.468 334.799 474.17C349.016 470.215 364.808 470.215 396.39 470.215H643.61C675.192 470.215 690.984 470.215 705.201 474.17C724.24 479.468 741.462 489.882 754.996 504.282C765.103 515.036 772.437 529.021 787.106 556.99Z" stroke-width="8" stroke-miterlimit="10"/>
  <path stroke="currentColor" opacity="0.5" d="M382.37 45V45C396.694 49.5904 407.724 61.1154 411.682 75.6274L421.464 111.5M658 45V45C643.672 49.5904 632.639 61.1177 628.681 75.6329L618.9 111.5M428.827 138.5L437.724 171.124C442.534 188.76 458.552 200.995 476.833 200.995H563.531C581.812 200.995 597.83 188.76 602.64 171.124L611.536 138.5" stroke-width="4" stroke-miterlimit="10"/>
  <path stroke="currentColor" opacity="0.5" d="M896.807 682.37L890.57 650.619C871.191 551.978 837.244 456.77 789.844 368.121L787.101 362.992C777.699 345.408 759.378 334.429 739.438 334.429H734.673M143.557 682.37L149.794 650.619C169.173 551.978 203.12 456.77 250.52 368.121L253.263 362.992C262.665 345.408 280.986 334.429 300.926 334.429H303.158" stroke-width="4" stroke-miterlimit="10"/>
  <path stroke="currentColor" opacity="0.5" d="M452.626 332.74H585.5" stroke-width="4" stroke-miterlimit="10"/>
  <path stroke="currentColor" opacity="0.5" d="M197.602 662.102L250.787 549.866C267.776 514.015 276.27 496.089 289.274 482.97C300.771 471.372 314.747 462.529 330.151 457.106C347.575 450.973 367.411 450.973 407.084 450.973H631.591C671.264 450.973 691.1 450.973 708.524 457.106C723.928 462.529 737.904 471.372 749.401 482.97C762.405 496.089 770.899 514.015 787.888 549.866L841.073 662.102" stroke-width="4" stroke-miterlimit="10"/>
  <path onClick="" stroke="currentColor" d="M718.771 217.842C737.013 217.842 751.802 203.053 751.802 184.809C751.802 166.566 737.013 151.776 718.771 151.776C700.529 151.776 685.741 166.566 685.741 184.809C685.741 203.053 700.529 217.842 718.771 217.842Z" stroke-width="4" stroke-miterlimit="10"/>
  <path onClick="" stroke="currentColor" d="M851.563 217.842C869.805 217.842 884.593 203.053 884.593 184.809C884.593 166.566 869.805 151.776 851.563 151.776C833.321 151.776 818.533 166.566 818.533 184.809C818.533 203.053 833.321 217.842 851.563 217.842Z" stroke-width="4" stroke-miterlimit="10"/>
  <path onClick="" stroke="currentColor" d="M786.151 153.396C804.393 153.396 819.181 138.607 819.181 120.364C819.181 102.12 804.393 87.3311 786.151 87.3311C767.909 87.3311 753.121 102.12 753.121 120.364C753.121 138.607 767.909 153.396 786.151 153.396Z" stroke-width="4" stroke-miterlimit="10"/>
  <path onClick="" stroke="currentColor" d="M786.151 281.871C804.393 281.871 819.181 267.082 819.181 248.838C819.181 230.595 804.393 215.806 786.151 215.806C767.909 215.806 753.121 230.595 753.121 248.838C753.121 267.082 767.909 281.871 786.151 281.871Z" stroke-width="4" stroke-miterlimit="10"/>
  <path onClick="" stroke="currentColor" d="M325.623 190.763V173.873C325.623 166.41 319.574 160.361 312.111 160.361H278.5L275.884 157.828L252.019 181.5L275.634 206.388L278 204.276H312.111C319.574 204.276 325.623 198.226 325.623 190.763Z" stroke-width="3" stroke-miterlimit="10"/>
  <path onClick="" stroke="currentColor" d="M177 173.873V190.764C177 198.226 183.05 204.276 190.512 204.276H224.5L226.928 206.388L252.019 181.5L226.856 157.931L224.356 160.361H190.512C183.05 160.361 177 166.411 177 173.873Z" stroke-width="3" stroke-miterlimit="10"/>
  <path onClick="" stroke="currentColor" d="M242.868 256.635H259.755C267.218 256.635 273.267 250.586 273.267 243.123V208.5L275.634 206.388L252.019 181.5L226.928 206.388L229.356 208.5V243.123C229.356 250.586 235.406 256.635 242.868 256.635Z" stroke-width="3" stroke-miterlimit="10"/>
  <path onClick="" stroke="currentColor" d="M259.755 108H242.868C235.406 108 229.356 114.05 229.356 121.512L229.356 155.5L226.856 157.93L252.019 181.5L275.884 157.828L273.267 155.296V121.512C273.267 114.05 267.218 108 259.755 108Z" stroke-width="3" stroke-miterlimit="10"/>
  <path stroke="currentColor" d="M384.441 54H653.559C656.594 54 659.504 55.1946 661.649 57.3211C663.795 59.4475 665 62.3316 665 65.3389V201.992C665 206.503 663.192 210.829 659.974 214.018C656.755 217.208 652.391 219 647.839 219H390.161C385.609 219 381.245 217.208 378.026 214.018C374.808 210.829 373 206.503 373 201.992V65.3389C373 62.3316 374.205 59.4475 376.351 57.3211C378.496 55.1946 381.406 54 384.441 54V54Z" stroke-width="4" stroke-miterlimit="10"/>
  <path fill="currentColor" d="M229.691 121.612H231.691H229.691ZM229.691 243.223H227.691H229.691ZM229.691 211.131H227.691H229.691ZM229.691 153.704H227.691H229.691ZM260.09 110.1C266.448 110.1 271.602 115.254 271.602 121.612H275.602C275.602 113.045 268.657 106.1 260.09 106.1V110.1ZM243.203 110.1H260.09V106.1H243.203V110.1ZM231.691 121.612C231.691 115.254 236.845 110.1 243.203 110.1V106.1C234.636 106.1 227.691 113.045 227.691 121.612H231.691ZM231.691 153.704L231.691 121.612H227.691L227.691 153.704H231.691ZM190.847 162.46H222.935V158.46H190.847V162.46ZM179.335 173.972C179.335 167.614 184.489 162.46 190.847 162.46V158.46C182.28 158.46 175.335 165.405 175.335 173.972H179.335ZM179.335 190.863V173.972H175.335V190.863H179.335ZM190.847 202.375C184.489 202.375 179.335 197.221 179.335 190.863H175.335C175.335 199.43 182.28 206.375 190.847 206.375V202.375ZM222.935 202.375H190.847V206.375H222.935V202.375ZM231.691 243.223L231.691 211.131H227.691L227.691 243.223H231.691ZM243.203 254.735C236.845 254.735 231.691 249.581 231.691 243.223H227.691C227.691 251.79 234.636 258.735 243.203 258.735V254.735ZM260.09 254.735H243.203V258.735H260.09V254.735ZM271.602 243.223C271.602 249.581 266.448 254.735 260.09 254.735V258.735C268.657 258.735 275.602 251.79 275.602 243.223H271.602ZM271.602 211.131V243.223H275.602V211.131H271.602ZM312.446 202.375H280.358V206.375H312.446V202.375ZM323.958 190.863C323.958 197.221 318.804 202.375 312.446 202.375V206.375C321.013 206.375 327.958 199.43 327.958 190.863H323.958ZM323.958 173.972V190.863H327.958V173.972H323.958ZM312.446 162.46C318.804 162.46 323.958 167.614 323.958 173.972H327.958C327.958 165.405 321.013 158.46 312.446 158.46V162.46ZM280.358 162.46H312.446V158.46H280.358V162.46ZM271.602 121.612V153.704H275.602V121.612H271.602ZM280.358 158.46C277.732 158.46 275.602 156.331 275.602 153.704H271.602C271.602 158.54 275.522 162.46 280.358 162.46V158.46ZM275.602 211.131C275.602 208.505 277.732 206.375 280.358 206.375V202.375C275.522 202.375 271.602 206.295 271.602 211.131H275.602ZM222.935 206.375C225.561 206.375 227.691 208.505 227.691 211.131H231.691C231.691 206.295 227.77 202.375 222.935 202.375V206.375ZM227.691 153.704C227.691 156.331 225.561 158.46 222.935 158.46V162.46C227.77 162.46 231.691 158.54 231.691 153.704H227.691Z"/>
  <path onClick="" style="" stroke="currentColor" d="M661.063 374.481C682.825 374.481 700.466 356.838 700.466 335.074C700.466 313.31 682.825 295.667 661.063 295.667C639.301 295.667 621.659 313.31 621.659 335.074C621.659 356.838 639.301 374.481 661.063 374.481Z" stroke-width="4" stroke-miterlimit="10"/>
  <path stroke="currentColor" d="M661.063 394.405C693.829 394.405 720.391 367.841 720.391 335.072C720.391 302.303 693.829 275.739 661.063 275.739C628.297 275.739 601.735 302.303 601.735 335.072C601.735 367.841 628.297 394.405 661.063 394.405Z" stroke-width="4" stroke-miterlimit="10"/>
  <path stroke="currentColor" opacity="0.5" d="M661.063 409.238C702.02 409.238 735.223 376.033 735.223 335.072C735.223 294.111 702.02 260.906 661.063 260.906C620.105 260.906 586.903 294.111 586.903 335.072C586.903 376.033 620.105 409.238 661.063 409.238Z" stroke-width="4" stroke-miterlimit="10"/>
  <path onClick="" style="" stroke="currentColor" d="M378.162 374.481C399.924 374.481 417.566 356.838 417.566 335.074C417.566 313.31 399.924 295.667 378.162 295.667C356.4 295.667 338.759 313.31 338.759 335.074C338.759 356.838 356.4 374.481 378.162 374.481Z" stroke-width="4" stroke-miterlimit="10"/>
  <path stroke="currentColor" d="M378.162 394.405C410.928 394.405 437.49 367.841 437.49 335.072C437.49 302.303 410.928 275.739 378.162 275.739C345.396 275.739 318.834 302.303 318.834 335.072C318.834 367.841 345.396 394.405 378.162 394.405Z" stroke-width="4" stroke-miterlimit="10"/>
  <path stroke="currentColor" opacity="0.5" d="M378.162 409.238C419.12 409.238 452.322 376.033 452.322 335.072C452.322 294.111 419.12 260.906 378.162 260.906C337.205 260.906 304.002 294.111 304.002 335.072C304.002 376.033 337.205 409.238 378.162 409.238Z" stroke-width="4" stroke-miterlimit="10"/>
</svg>
