<?xml version="1.0"?>
<svg xmlns="http://www.w3.org/2000/svg" viewBox="0 0 36 36" fill="none">
  <path d="M18 3.05005C15.0333 3.05005 12.1332 3.92978 9.66645 5.578C7.19972 7.22623 5.27713 9.56891 4.14181 12.3098C3.0065 15.0507 2.70945 18.0667 3.28823 20.9764C3.86701 23.8861 5.29562 26.5589 7.3934 28.6567C9.49119 30.7544 12.1639 32.1831 15.0737 32.7618C17.9834 33.3406 20.9994 33.0436 23.7403 31.9082C26.4811 30.7729 28.8238 28.8503 30.472 26.3836C32.1203 23.9169 33 21.0168 33 18.05C33 16.0802 32.612 14.1297 31.8582 12.3098C31.1044 10.4899 29.9995 8.83633 28.6066 7.44345C27.2137 6.05057 25.5601 4.94568 23.7403 4.19186C21.9204 3.43804 19.9698 3.05005 18 3.05005ZM25.68 13.79C25.68 13.95 25.68 14.11 25.68 14.28C25.6928 16.2048 25.1857 18.0972 24.2123 19.7576C23.2388 21.4181 21.8351 22.7849 20.1494 23.7138C18.4636 24.6427 16.5583 25.0992 14.6347 25.0352C12.711 24.9712 10.8403 24.389 9.22001 23.35C9.52315 23.3653 9.82686 23.3653 10.13 23.35C11.8274 23.3493 13.4754 22.7788 14.81 21.73C14.0264 21.7114 13.2683 21.4477 12.6423 20.976C12.0163 20.5042 11.5539 19.8482 11.32 19.1C11.5711 19.1436 11.8252 19.1671 12.08 19.17C12.4504 19.1681 12.8194 19.1245 13.18 19.04C12.3466 18.8524 11.6064 18.3761 11.0903 17.6953C10.5742 17.0145 10.3155 16.1732 10.36 15.32C10.36 15.61 11.25 15.78 11.86 15.8C11.3218 15.4608 10.8723 14.998 10.5488 14.4501C10.2253 13.9023 10.0372 13.2852 10 12.65C10.0004 11.9798 10.1762 11.3213 10.51 10.74C11.4475 11.9172 12.6237 12.8823 13.9613 13.5717C15.2989 14.2612 16.7674 14.6594 18.27 14.74C18.2017 14.4585 18.1681 14.1697 18.17 13.88C18.1673 12.8793 18.5617 11.9183 19.2665 11.2078C19.9714 10.4973 20.9292 10.0953 21.93 10.09C22.4464 10.0894 22.9573 10.1957 23.4306 10.4022C23.9039 10.6087 24.3293 10.911 24.68 11.29C25.5229 11.1206 26.331 10.8095 27.07 10.37C26.7885 11.2421 26.2029 11.9838 25.42 12.46C26.1654 12.3724 26.8935 12.1735 27.58 11.87C27.058 12.6114 26.4158 13.2603 25.68 13.79Z" fill="currentColor"/>
</svg>
