<?xml version="1.0"?>
<svg version="1.1" id="Layer_1" xmlns="http://www.w3.org/2000/svg" x="0px" y="0px" width="256px" height="256px" viewBox="0 0 256 256">
  <g>
    <path d="M239.874,94.963l-31.115,21.325c-18.18,12.586-43.351,5.594-52.44-14.333l-23.772-50.692c-2.099-4.194-8.041-4.194-9.789,0 l-23.074,50.343c-9.439,20.627-35.31,27.27-53.49,13.983L16.128,93.565c-4.195-3.147-10.139,1.049-8.391,6.293l31.464,106.628 c0.35,1.049,1.398,1.397,2.098,1.397h173.752c1.049,0,1.749-0.698,2.098-1.397l31.115-104.53 C250.012,96.36,244.068,91.816,239.874,94.963z"/>
  </g>
</svg>
