<?xml version="1.0"?>
<svg xmlns="http://www.w3.org/2000/svg" width="972" height="697" viewBox="0 0 972 697" fill="none">
  <path stroke="currentColor" d="M844.516 48.5166C845.084 52.2098 850.197 74.3685 850.481 75.7889L827.05 52.0498L803.55 37.5498L773.05 26.0498L743.55 19.5498L712.05 17.0498L681.114 19.5498C685.231 13.0857 691.313 5.03679 696.507 4.19919C745.974 -3.77935 795.888 10.3803 838.55 39.71C843.095 42.8349 843.947 44.8235 844.516 48.5166Z" stroke-width="4"/>
  <path stroke="currentColor" d="M137.167 39.71C132.622 42.8349 131.769 44.8235 131.201 48.5166C130.862 50.7232 128.9 59.5213 127.315 66.5498L140.55 55.0498L174.55 35.0498L220.05 20.0498L267.05 16.5498L295.541 21.0498C291.454 14.4043 284.814 5.10305 279.21 4.19919C229.743 -3.77935 179.828 10.3803 137.167 39.71Z" stroke-width="4"/>
  <path stroke="currentColor" d="M967.791 543.218C965.45 607.363 959.075 645.023 947.789 666.445C942.235 676.986 935.578 683.415 927.72 687.214C919.809 691.038 910.305 692.381 898.726 692.052C844.846 686.251 815.4 668.201 790.205 644.493C780.762 635.608 771.961 625.975 762.635 615.765C759.348 612.167 755.995 608.498 752.527 604.765C739.282 590.51 724.533 575.547 705.786 560.817C671.113 533.573 641.419 518.55 607.512 510.666C573.774 502.821 536.078 502.104 485.628 503.082C435.177 502.104 397.472 502.821 363.723 510.666C329.806 518.55 300.103 533.573 265.429 560.817C246.682 575.547 231.933 590.511 218.688 604.768C215.217 608.505 211.862 612.177 208.573 615.778C199.249 625.986 190.45 635.619 181.01 644.503C155.817 668.215 126.373 686.268 72.5014 692.071C61.0812 692.326 51.7019 690.908 43.8902 687.025C36.1208 683.163 29.5275 676.675 24.024 666.095C12.8461 644.607 6.52404 607.003 4.1961 543.218C1.76917 476.72 22.1792 379.84 46.5612 291.182C70.9079 202.651 99.0551 122.87 111.785 90.8169C120.454 68.989 141.963 50.3394 169.313 37.1032C196.574 23.9099 229.045 16.3958 258.713 16.4308C281.96 16.4582 303.162 21.147 318.747 30.9692C367.881 61.9361 421.555 65.8756 485.993 65.8756C550.432 65.8756 604.147 61.9362 653.281 30.9692C681.111 13.4292 726.563 12.499 768.774 24.3564C811.03 36.2269 848.106 60.3585 860.202 90.8169C872.932 122.87 901.079 202.651 925.426 291.182C949.808 379.84 970.218 476.72 967.791 543.218Z" stroke-width="8"/>
  <path stroke="currentColor" opacity="0.5" d="M305.01 505.897C351.009 480.714 396.629 478.678 487.813 478.678C578.996 478.678 624.617 480.714 670.615 505.897C717.801 531.731 746.261 563.55 775.241 595.952C775.851 596.634 776.462 597.316 777.072 597.999C804.738 628.92 833.218 660.228 879.092 686.752C835.832 678.795 810.357 662.437 787.927 641.624C778.968 633.309 770.517 624.307 761.583 614.791C758.324 611.32 755.001 607.78 751.566 604.181C738.745 590.747 724.456 576.586 706.37 562.375C671.872 535.27 642.44 520.403 608.879 512.599C575.401 504.815 537.923 504.088 487.447 505.067C436.971 504.088 399.483 504.815 365.995 512.599C332.424 520.403 302.981 535.27 268.483 562.375C250.457 576.539 236.278 590.66 223.602 604.066C219.976 607.901 216.482 611.667 213.06 615.356C204.486 624.597 196.367 633.349 187.77 641.458C165.754 662.227 140.78 678.601 98.097 686.683C143.764 660.168 171.898 628.872 199.237 597.971C199.81 597.324 200.382 596.677 200.953 596.031C229.647 563.587 257.821 531.732 305.01 505.897Z" stroke-width="4"/>
  <path stroke="currentColor" fill-rule="evenodd" clip-rule="evenodd" d="M322.768 384.497C322.768 391.485 365.134 390.949 365.134 384.497C365.134 358.424 386.294 337.263 412.367 337.263C419.191 338.767 421.826 291.042 412.367 289.744C386.294 289.744 365.134 268.583 365.134 242.511C365.134 235.496 322.768 234.962 322.768 242.511C322.768 268.583 301.608 289.744 275.535 289.744C267.891 289.451 266.362 336.995 275.535 337.263C301.608 337.263 322.768 358.424 322.768 384.497Z" stroke-width="4" stroke-linecap="round" stroke-linejoin="round"/>
  <path stroke="currentColor" d="M594.183 145.529H588.296C576.484 145.529 566.909 154.132 566.909 164.744C566.909 175.356 576.484 183.959 588.296 183.959H594.183C605.994 183.959 615.57 175.356 615.57 164.744C615.57 154.132 605.994 145.529 594.183 145.529Z" stroke-width="4" stroke-linecap="round" stroke-linejoin="round"/>
  <path fill="currentColor" fill-rule="evenodd" clip-rule="evenodd" d="M583.897 176.695L604.596 164.744L583.897 152.794V176.695Z"/>
  <path stroke="currentColor" d="M386.789 145.529H392.676C404.488 145.529 414.063 154.132 414.063 164.744C414.063 175.356 404.488 183.959 392.676 183.959H386.789C374.978 183.959 365.402 175.356 365.402 164.744C365.402 154.132 374.978 145.529 386.789 145.529Z" stroke-width="4" stroke-linecap="round" stroke-linejoin="round"/>
  <path fill="currentColor" fill-rule="evenodd" clip-rule="evenodd" d="M397.074 176.695L376.376 164.744L397.074 152.794V176.695Z"/>
  <path stroke="currentColor" opacity="0.5" fill-rule="evenodd" clip-rule="evenodd" d="M437.868 313.503C437.868 365.345 395.793 407.421 343.951 407.421C292.108 407.421 250.033 365.345 250.033 313.503C250.033 261.66 292.108 219.585 343.951 219.585C395.793 219.585 437.868 261.66 437.868 313.503ZM424.161 313.503C424.161 357.779 388.227 393.713 343.951 393.713C299.675 393.713 263.74 357.779 263.74 313.503C263.74 269.227 299.675 233.292 343.951 233.292C388.227 233.292 424.161 269.227 424.161 313.503Z" stroke-width="4"/>
  <path stroke="currentColor" d="M629.528 375.51C661.55 375.51 687.51 349.551 687.51 317.528C687.51 285.505 661.55 259.546 629.528 259.546C597.505 259.546 571.545 285.505 571.545 317.528C571.545 349.551 597.505 375.51 629.528 375.51Z" stroke-width="4" stroke-miterlimit="10"/>
  <path style="" stroke="currentColor" d="M629.527 356.037C650.796 356.037 668.037 338.796 668.037 317.527C668.037 296.259 650.796 279.018 629.527 279.018C608.259 279.018 591.018 296.259 591.018 317.527C591.018 338.796 608.259 356.037 629.527 356.037Z" stroke-width="4" stroke-miterlimit="10"/>
  <path stroke="currentColor" opacity="0.5" d="M629.528 390.005C669.556 390.005 702.005 357.556 702.005 317.528C702.005 277.499 669.556 245.05 629.528 245.05C589.499 245.05 557.05 277.499 557.05 317.528C557.05 357.556 589.499 390.005 629.528 390.005Z" stroke-width="4" stroke-miterlimit="10"/>
  <path stroke="currentColor" d="M211.528 207.51C243.55 207.51 269.51 181.551 269.51 149.528C269.51 117.505 243.55 91.5459 211.528 91.5459C179.505 91.5459 153.545 117.505 153.545 149.528C153.545 181.551 179.505 207.51 211.528 207.51Z" stroke-width="4" stroke-miterlimit="10"/>
  <path style="" stroke="currentColor" d="M211.527 188.037C232.796 188.037 250.037 170.796 250.037 149.527C250.037 128.259 232.796 111.018 211.527 111.018C190.259 111.018 173.018 128.259 173.018 149.527C173.018 170.796 190.259 188.037 211.527 188.037Z" stroke-width="4" stroke-miterlimit="10"/>
  <path stroke="currentColor" opacity="0.5" d="M211.528 222.005C251.556 222.005 284.005 189.556 284.005 149.528C284.005 109.499 251.556 77.0498 211.528 77.0498C171.499 77.0498 139.05 109.499 139.05 149.528C139.05 189.556 171.499 222.005 211.528 222.005Z" stroke-width="4" stroke-miterlimit="10"/>
  <path stroke="currentColor" d="M697.525 196.26C716.565 196.26 732.001 180.825 732.001 161.785C732.001 142.745 716.565 127.31 697.525 127.31C678.485 127.31 663.05 142.745 663.05 161.785C663.05 180.825 678.485 196.26 697.525 196.26Z" stroke-width="4" stroke-miterlimit="10"/>
  <path stroke="currentColor" d="M836.127 196.26C855.167 196.26 870.602 180.825 870.602 161.785C870.602 142.745 855.167 127.31 836.127 127.31C817.087 127.31 801.652 142.745 801.652 161.785C801.652 180.825 817.087 196.26 836.127 196.26Z" stroke-width="4" stroke-miterlimit="10"/>
  <path stroke="currentColor" d="M767.853 129C786.893 129 802.328 113.565 802.328 94.5251C802.328 75.4849 786.893 60.0498 767.853 60.0498C748.813 60.0498 733.378 75.4849 733.378 94.5251C733.378 113.565 748.813 129 767.853 129Z" stroke-width="4" stroke-miterlimit="10"/>
  <path stroke="currentColor" d="M767.853 263.084C786.893 263.084 802.328 247.649 802.328 228.609C802.328 209.569 786.893 194.134 767.853 194.134C748.813 194.134 733.378 209.569 733.378 228.609C733.378 247.649 748.813 263.084 767.853 263.084Z" stroke-width="4" stroke-miterlimit="10"/>
  <path fill="currentColor" d="M764.398 115.278V97.8109L751.956 73.7725H759.977L767.974 90.1765L775.874 73.7725H783.774L771.259 97.9317V115.351L764.398 115.278Z"/>
  <path fill="currentColor" d="M681.677 182.538L693.442 160.939L682.764 141.032H690.785L697.525 153.45L704.314 141.032H712.262L701.584 160.891L713.349 182.634H705.063L697.501 168.453L689.915 182.538H681.677Z"/>
  <path fill="currentColor" d="M821.873 141.032H835.499C838.156 140.873 840.82 141.217 843.35 142.046C845.018 142.813 846.397 144.091 847.288 145.694C848.354 147.447 848.899 149.466 848.859 151.517C848.89 153.413 848.432 155.285 847.53 156.953C846.736 158.453 845.529 159.694 844.051 160.528C846.033 161.166 847.738 162.461 848.883 164.2C850.067 166.104 850.663 168.314 850.598 170.554C850.684 173.271 849.924 175.947 848.424 178.213C847.232 180.091 845.392 181.466 843.254 182.078C840.055 182.539 836.82 182.709 833.59 182.586H822.018L821.873 141.032ZM828.71 147.941V157.605H833.252C834.936 157.642 836.622 157.594 838.301 157.46C839.363 157.326 840.336 156.8 841.031 155.986C841.642 155.065 841.984 153.991 842.018 152.885C842.053 151.78 841.778 150.687 841.224 149.729C840.776 149.018 840.078 148.501 839.267 148.28C837.086 148.032 834.89 147.944 832.696 148.014L828.71 147.941ZM828.71 164.442V175.507H835.209C837.016 175.604 838.828 175.458 840.596 175.072C841.432 174.742 842.131 174.137 842.577 173.357C843.131 172.342 843.422 171.204 843.422 170.047C843.422 168.89 843.131 167.752 842.577 166.737C842.007 165.871 841.152 165.231 840.161 164.925C838.242 164.51 836.276 164.348 834.315 164.442H828.71Z"/>
  <path fill="currentColor" d="M784.933 249.338H777.492L774.521 239.916H760.895L758.068 249.314H750.821L764.06 207.809H771.308L784.933 249.338ZM772.395 232.91L767.563 217.521L762.949 232.91H772.395Z"/>
  <circle stroke="currentColor" cx="491.05" cy="165.05" r="45"/>
  <path fill="currentColor" d="M486.497 209.868C479.372 209.14 472.526 206.717 466.529 202.801C461.472 199.486 460.338 198.148 460.338 195.444C460.338 190.006 466.296 180.496 476.527 169.649C482.34 163.484 490.391 156.272 491.263 156.475C492.949 156.853 506.551 170.114 511.609 176.338C519.66 186.196 523.234 194.281 521.461 197.887C520.037 200.62 511.202 205.971 504.691 208.007C498.797 209.766 492.624 210.398 486.497 209.868ZM453.537 189.802C449.276 183.22 446.746 175.668 446.184 167.846C445.864 164.174 446.119 160.475 446.939 156.882C448.44 148.596 452.237 140.897 457.897 134.664C460.135 132.309 460.338 132.251 463.099 133.181C467.775 135.235 471.994 138.201 475.51 141.905L478.736 144.814L476.992 146.995C468.789 157.036 462.029 168.175 456.909 180.089C455.266 183.731 454.672 187.76 455.194 191.722C455.717 193.088 455.194 192.594 453.508 189.948L453.537 189.802ZM527.158 190.878C527.411 187.658 526.955 184.422 525.821 181.398C523.147 173.284 514.195 158.133 506.086 147.896L503.529 144.668L506.435 142.109C509.16 139.487 512.128 137.13 515.3 135.071C517.282 133.791 519.509 132.94 521.839 132.57C522.653 132.57 525.502 135.479 527.798 138.794C531.49 144.028 534.063 149.968 535.354 156.243C536.23 161.857 536.279 167.569 535.5 173.197C534.737 176.849 533.608 180.415 532.128 183.841C530.801 186.587 529.256 189.222 527.507 191.722C526.955 192.449 526.955 192.449 527.245 190.907L527.158 190.878ZM487.223 131.029C483.158 129.009 478.864 127.486 474.435 126.492C473.029 126.297 471.61 126.219 470.191 126.26C467.517 126.405 467.633 126.26 471.906 124.253C475.235 122.658 478.75 121.486 482.369 120.763C488.143 119.812 494.034 119.812 499.808 120.763C504.569 121.763 509.153 123.469 513.411 125.824L514.341 126.405H512.19C506.135 126.664 500.22 128.305 494.896 131.204C492.862 132.192 491.089 132.978 490.973 132.978C490.856 132.978 489.171 132.134 487.281 131.174L487.223 131.029Z"/>
  <path stroke="#9BD98C" d="M439.05 162.209C440.474 135.71 461.71 114.474 488.21 113.05M439.05 167.89C440.474 194.39 461.71 215.625 488.21 217.05M493.891 113.05C520.39 114.474 541.626 135.71 543.05 162.209M543.05 167.89C541.626 194.39 520.39 215.625 493.891 217.05" stroke-width="8"/>
</svg>
