<?xml version="1.0"?>
<svg fill="#000000" xmlns="http://www.w3.org/2000/svg" version="1.1" viewBox="0 0 16 16" x="0px" y="0px">
  <path d="M8,11c-0.2,0-0.5-0.1-0.6-0.2c-0.2-0.2-0.3-0.3-0.3-0.6l0-7.7L5.7,3.6C5.5,3.8,5.3,3.9,5.1,3.9
					c-0.2,0-0.4-0.1-0.6-0.2C4.4,3.5,4.3,3.4,4.3,3.2c0-0.2,0.1-0.4,0.3-0.5l2.7-2.4C7.5,0.1,7.7,0,8,0s0.5,0.1,0.7,0.3l2.8,2.4
					c0.2,0.2,0.3,0.3,0.3,0.5c0,0.2-0.1,0.4-0.2,0.5c-0.1,0.1-0.3,0.2-0.6,0.2c-0.2,0-0.4-0.1-0.6-0.2L8.8,2.5l0,7.7
					c0,0.2-0.1,0.4-0.3,0.6C8.4,10.9,8.2,11,8,11z"/>
  <path d="M4,16c-0.8,0-1.3-0.2-1.7-0.6c-0.4-0.4-0.6-0.9-0.6-1.7V7.9c0-0.7,0.2-1.3,0.6-1.7c0.4-0.4,1-0.6,1.7-0.6h1.9
				V7H4.1c-0.7,0-1,0.3-1,1v5.6c0,0.7,0.3,1,1,1h7.9c0.3,0,0.6-0.1,0.7-0.3c0.2-0.2,0.3-0.4,0.3-0.7V8c0-0.3-0.1-0.6-0.3-0.7
				C12.5,7.1,12.2,7,11.9,7h-1.8V5.6H12c0.8,0,1.3,0.2,1.7,0.6c0.4,0.4,0.6,0.9,0.6,1.7v5.8c0,0.7-0.2,1.3-0.6,1.7
				c-0.4,0.4-1,0.6-1.7,0.6H4z"/>
</svg>
