<?xml version="1.0"?>
<svg xmlns="http://www.w3.org/2000/svg" viewBox="0 0 36 36" fill="none">
  <rect fill="currentColor" x="1.82617" y="2" width="3" height="4"/>
  <rect fill="currentColor" x="1.82617" y="9" width="3" height="4"/>
  <rect fill="currentColor" x="1.82617" y="16" width="3" height="4"/>
  <rect fill="currentColor" x="1.82617" y="23" width="3" height="4"/>
  <rect fill="currentColor" x="1.82617" y="30" width="3" height="4"/>
  <path fill="currentColor" d="M10 20.0764C10.0053 23.2371 11.2713 26.2668 13.5205 28.5018C15.7697 30.7368 18.8188 31.9947 21.9997 31.9999C23.5751 32.0052 25.1357 31.6989 26.5908 31.099C28.0459 30.4991 29.3663 29.6176 30.4752 28.5057C32.7162 26.2727 33.9822 23.2528 33.9994 20.0993C34.0611 13.414 28.9434 8.28293 22.0953 8.15584H16.75V5L10 9.84017L16.75 14.6819V11.6776H22.0444C26.8816 11.7695 30.4983 15.374 30.4552 20.0626C30.4136 24.7052 26.6212 28.4843 21.9997 28.4843C19.758 28.4818 17.6087 27.5959 16.0235 26.0208C14.4384 24.4456 13.5467 22.31 13.5443 20.0825"/>
</svg>
