<?xml version="1.0"?>
<svg xmlns="http://www.w3.org/2000/svg" viewBox="0 0 31 30" fill="none">
  <path fill="currentColor" d="M11.8667 20.8749L14.0834 17.7416V28.3749H5.75004V20.8749H11.8667ZM19.6167 20.8749L17.4167 17.7416V28.3749H25.75V20.8749H19.6167ZM21.575 17.5416H29.9167L25.75 11.7083H17.4167L21.575 17.5416ZM14.075 11.7083H5.75004L1.58337 17.5416H9.91671L14.075 11.7083ZM16.9917 1.70825H14.4917V5.45825C14.4917 5.62311 14.5243 5.78634 14.5876 5.93854C14.651 6.09074 14.7438 6.22891 14.8608 6.3451C14.9777 6.46128 15.1165 6.55318 15.2691 6.6155C15.4217 6.67783 15.5852 6.70935 15.75 6.70825C16.0816 6.70825 16.3995 6.57656 16.6339 6.34214C16.8683 6.10772 17 5.78977 17 5.45825L16.9917 1.70825ZM23.825 5.38325L21.825 3.86659L19.975 6.31658C19.8744 6.44714 19.8005 6.59633 19.7577 6.75555C19.715 6.91477 19.7041 7.08088 19.7258 7.24431C19.7475 7.40774 19.8013 7.56527 19.8841 7.70782C19.9669 7.85037 20.0771 7.97513 20.2084 8.07492C20.4739 8.27518 20.8079 8.36218 21.1374 8.31689C21.4669 8.27161 21.765 8.09772 21.9667 7.83325L23.825 5.38325ZM11.5084 6.31658L9.65837 3.86659L7.65837 5.38325L9.51671 7.83325C9.71836 8.09772 10.0165 8.27161 10.346 8.31689C10.6755 8.36218 11.0095 8.27518 11.275 8.07492C11.4063 7.97513 11.5165 7.85037 11.5993 7.70782C11.6821 7.56527 11.7359 7.40774 11.7576 7.24431C11.7793 7.08088 11.7684 6.91477 11.7257 6.75555C11.6829 6.59633 11.609 6.44714 11.5084 6.31658Z"/>
</svg>
