<?xml version="1.0"?>
<svg width="36" height="36" viewBox="0 0 36 36" fill="none" xmlns="http://www.w3.org/2000/svg">
  <path d="M17.6253 34.113C17.743 34.1717 17.8718 34.2012 18 34.2012C18.1282 34.2012 18.257 34.1717 18.3748 34.113C18.8953 33.8524 31.1275 27.6036 31.1275 16.0461L31.1274 8.2254C31.1274 7.76274 30.7522 7.38762 30.2892 7.38762C30.2258 7.38762 23.8719 7.32574 18.5922 2.04672C18.265 1.71954 17.7346 1.71954 17.4075 2.04672C12.1509 7.30272 5.77225 7.38762 5.71045 7.38762C5.24779 7.38762 4.87231 7.76274 4.87231 8.2254V16.0464C4.87278 27.6033 17.1048 33.8523 17.6253 34.113H17.6253Z" fill="currentColor"/>
</svg>
