<?xml version="1.0"?>
<svg xmlns="http://www.w3.org/2000/svg" width="1280" height="720" viewBox="0 0 1280 720" fill="none">
  <path fill="white" d="M376.879 249.966H401.485C403.295 249.966 404.774 248.487 404.774 246.677C404.774 244.867 403.295 243.388 401.485 243.388H376.879C375.068 243.388 373.589 244.867 373.589 246.677C373.589 248.487 375.068 249.966 376.879 249.966ZM404.472 310.606C404.472 296.665 415.819 285.32 429.762 285.32C443.704 285.32 455.052 296.665 455.052 310.606C455.052 324.546 443.704 335.892 429.762 335.892C415.819 335.892 404.472 324.546 404.472 310.606ZM411.645 310.606C411.645 320.603 419.753 328.71 429.752 328.71C439.751 328.71 447.859 320.603 447.859 310.606C447.859 300.608 439.751 292.501 429.752 292.501C419.753 292.501 411.645 300.608 411.645 310.606ZM383.076 349.279C383.076 347.549 381.677 346.151 379.947 346.151C378.217 346.151 376.819 347.549 376.819 349.279C376.819 351.009 378.217 352.407 379.947 352.407C381.677 352.407 383.076 351.009 383.076 349.279ZM429.752 322.675C436.411 322.675 441.823 317.264 441.823 310.606C441.823 303.947 436.411 298.536 429.752 298.536C423.092 298.536 417.68 303.947 417.68 310.606C417.68 317.264 423.092 322.675 429.752 322.675ZM429.681 427.59H429.722C429.722 427.59 433.222 424.895 436.723 423.728C440.224 422.561 449.086 420.007 450.937 418.045C452.798 416.084 453.12 413.962 452.637 411.045C452.165 408.128 448.342 399.529 446.592 393.645C446.531 393.453 446.471 393.252 446.41 393.041C438.795 397.205 430.758 400.504 422.408 402.898C420.085 427.118 428.977 427.59 429.681 427.59ZM437.297 428.345C435.285 429.2 433.192 430.628 432.478 431.171C431.744 431.744 430.838 432.076 429.903 432.116H429.681C428.645 432.116 425.044 431.825 421.976 427.993C418.294 423.406 416.896 415.41 417.771 404.125C408.526 406.388 398.95 407.545 389.182 407.545C363.228 407.545 338.542 399.347 318.071 384.18C318.353 384.743 318.634 385.296 318.896 385.85C341.389 433.374 360.442 562.8 413.073 562.8C432.216 562.8 458.532 548.799 451.742 503.387C451.742 503.387 444.087 464.986 437.297 428.345ZM370.692 294.714C371.437 294.714 372.05 294.111 372.05 293.356V279.526C372.05 278.782 371.447 278.169 370.692 278.169H358.319C353.36 278.169 349.336 274.135 349.336 269.187V255.327C349.336 254.583 348.732 253.969 347.978 253.969H331.158C330.414 253.969 329.8 254.573 329.8 255.327V269.187C329.8 274.145 325.766 278.169 320.817 278.169H308.444C307.699 278.169 307.086 278.772 307.086 279.526V293.356C307.086 294.101 307.689 294.714 308.444 294.714H320.817C325.776 294.714 329.8 298.747 329.8 303.696V317.556C329.8 318.3 330.404 318.914 331.158 318.914H347.978C348.722 318.914 349.336 318.31 349.336 317.556V303.696C349.336 298.737 353.37 294.714 358.319 294.714H370.692ZM389.182 403.019C325.565 403.019 274 351.461 274 287.855C274 224.248 325.565 172.69 389.182 172.69C452.798 172.69 504.363 224.258 504.363 287.855C504.363 329.565 482.192 366.086 448.986 386.302C447.668 387.107 446.33 387.881 444.982 388.616C438.061 392.468 430.697 395.616 422.992 397.969C421.423 398.462 419.843 398.905 418.254 399.317C408.969 401.731 399.221 403.019 389.182 403.019ZM429.752 279.285C412.449 279.285 398.426 293.306 398.426 310.606C398.426 327.905 412.449 341.926 429.752 341.926C447.054 341.926 461.077 327.905 461.077 310.606C461.077 293.306 447.054 279.285 429.752 279.285ZM383.649 223.081C383.649 226.139 386.124 228.613 389.182 228.613C392.24 228.613 394.714 226.139 394.714 223.081C394.714 220.023 392.24 217.549 389.182 217.549C386.124 217.549 383.649 220.023 383.649 223.081ZM367.554 246.677C367.554 251.827 371.728 256.001 376.879 256.001H401.485C406.635 256.001 410.81 251.827 410.81 246.677C410.81 241.527 406.635 237.353 401.485 237.353H376.879C371.728 237.353 367.554 241.527 367.554 246.677ZM358.319 300.749H370.692C374.776 300.749 378.086 297.44 378.086 293.356V279.526C378.086 275.443 374.776 272.134 370.692 272.134H358.319C356.689 272.134 355.372 270.816 355.372 269.187V255.327C355.372 251.243 352.062 247.934 347.978 247.934H331.158C327.074 247.934 323.765 251.243 323.765 255.327V269.187C323.765 270.816 322.447 272.134 320.817 272.134H308.444C304.36 272.134 301.05 275.443 301.05 279.526V293.356C301.05 297.44 304.36 300.749 308.444 300.749H320.817C322.447 300.749 323.765 302.066 323.765 303.696V317.556C323.765 321.639 327.074 324.948 331.158 324.948H347.978C352.062 324.948 355.372 321.639 355.372 317.556V303.696C355.372 302.066 356.689 300.749 358.319 300.749ZM391.033 353.543C391.033 344.401 383.619 336.998 374.485 336.998C365.351 336.998 358.671 343.697 357.987 352.216L366.86 355.887C367.614 355.374 368.519 355.072 369.495 355.072C369.586 355.072 369.666 355.072 369.757 355.072L373.7 349.359C373.7 349.359 373.7 349.309 373.7 349.279C373.7 345.839 376.497 343.033 379.947 343.033C383.397 343.033 386.184 345.829 386.184 349.279C386.184 352.729 383.387 355.525 379.947 355.525C379.897 355.525 379.857 355.525 379.806 355.525L374.183 359.538C374.183 359.608 374.183 359.689 374.183 359.759C374.183 362.344 372.081 364.446 369.495 364.446C367.232 364.446 365.331 362.827 364.898 360.684L358.55 358.059C360.512 365.009 366.9 370.099 374.475 370.099C383.619 370.099 391.023 362.686 391.023 353.553L391.033 353.543ZM371.738 360.715C371.185 362.032 369.676 362.656 368.348 362.113L366.316 361.278C366.679 362.032 367.302 362.656 368.127 362.998C369.918 363.742 371.98 362.897 372.724 361.107C373.086 360.242 373.086 359.286 372.724 358.421C372.362 357.556 371.688 356.873 370.823 356.51C369.958 356.148 369.043 356.168 368.228 356.47L370.33 357.335C371.648 357.888 372.272 359.397 371.728 360.725L371.738 360.715ZM379.937 353.443C382.231 353.443 384.092 351.582 384.092 349.289C384.092 346.996 382.231 345.135 379.937 345.135C377.643 345.135 375.782 346.996 375.782 349.289C375.782 351.582 377.654 353.443 379.937 353.443Z"/>
  <path fill="white" d="M867.226 247.233C867.226 245.425 868.705 243.949 870.516 243.949H895.121C896.932 243.949 898.411 245.425 898.411 247.233C898.411 249.04 896.932 250.516 895.121 250.516H870.516C868.705 250.516 867.226 249.04 867.226 247.233ZM906.056 349.654C906.056 347.927 904.658 346.531 902.927 346.531C901.197 346.531 899.799 347.927 899.799 349.654C899.799 351.381 901.197 352.776 902.927 352.776C904.658 352.776 906.056 351.381 906.056 349.654ZM842.248 298.9C835.589 298.9 830.177 304.302 830.177 310.948C830.177 317.595 835.589 322.997 842.248 322.997C848.908 322.997 854.32 317.595 854.32 310.948C854.32 304.302 848.908 298.9 842.248 298.9ZM908.329 295.286C912.947 295.286 916.699 291.541 916.699 286.932C916.699 282.324 912.947 278.578 908.329 278.578C903.712 278.578 899.96 282.324 899.96 286.932C899.96 291.541 903.712 295.286 908.329 295.286ZM932.432 271.229C937.049 271.229 940.802 267.484 940.802 262.875C940.802 258.267 937.049 254.522 932.432 254.522C927.815 254.522 924.063 258.267 924.063 262.875C924.063 267.484 927.815 271.229 932.432 271.229ZM867.528 311.049C867.528 324.965 856.181 336.29 842.238 336.29C828.296 336.29 816.949 324.965 816.949 311.049C816.949 297.133 828.296 285.808 842.238 285.808C856.181 285.808 867.528 297.133 867.528 311.049ZM860.355 310.948C860.355 300.968 852.247 292.876 842.248 292.876C832.249 292.876 824.141 300.968 824.141 310.948C824.141 320.929 832.249 329.021 842.248 329.021C852.247 329.021 860.355 320.929 860.355 310.948ZM853.746 399.605C852.157 399.193 850.578 398.751 849.008 398.259C841.303 395.91 833.939 392.767 827.018 388.922C825.67 388.189 824.332 387.416 823.014 386.612C789.808 366.431 767.637 329.975 767.637 288.338C767.637 224.853 819.212 173.376 882.818 173.376C946.425 173.376 998 224.853 998 288.338C998 351.823 946.435 403.299 882.818 403.299C872.779 403.299 863.031 402.014 853.746 399.605ZM914.013 353.911C914.013 344.784 906.599 337.395 897.465 337.395C888.331 337.395 881.652 344.082 880.967 352.586L889.84 356.25C890.594 355.738 891.5 355.437 892.476 355.437C892.566 355.437 892.647 355.437 892.737 355.437L896.68 349.734C896.68 349.734 896.68 349.684 896.68 349.654C896.68 346.22 899.477 343.419 902.927 343.419C906.378 343.419 909.164 346.21 909.164 349.654C909.164 353.098 906.368 355.889 902.927 355.889C902.877 355.889 902.837 355.889 902.787 355.889L897.163 359.895C897.163 359.965 897.163 360.046 897.163 360.116C897.163 362.696 895.061 364.795 892.476 364.795C890.212 364.795 888.311 363.178 887.878 361.04L881.531 358.419C883.492 365.357 889.88 370.437 897.455 370.437C906.599 370.437 914.003 363.038 914.003 353.921L914.013 353.911ZM894.729 361.07C894.176 362.385 892.667 363.008 891.339 362.465L889.307 361.632C889.669 362.385 890.293 363.008 891.118 363.349C892.908 364.092 894.97 363.249 895.715 361.461C896.077 360.598 896.077 359.644 895.715 358.781C895.353 357.917 894.679 357.234 893.813 356.873C892.948 356.511 892.033 356.532 891.218 356.833L893.321 357.696C894.638 358.248 895.262 359.755 894.719 361.08L894.729 361.07ZM902.927 353.811C905.221 353.811 907.082 351.953 907.082 349.664C907.082 347.375 905.221 345.517 902.927 345.517C900.634 345.517 898.773 347.375 898.773 349.664C898.773 351.953 900.644 353.811 902.927 353.811ZM946.837 310.989C946.837 303.047 940.389 296.611 932.432 296.611C924.475 296.611 918.027 303.047 918.027 310.989C918.027 318.931 924.475 325.366 932.432 325.366C940.389 325.366 946.837 318.931 946.837 310.989ZM956.535 272.544C948.578 272.544 942.129 278.98 942.129 286.922C942.129 294.864 948.578 301.3 956.535 301.3C964.492 301.3 970.94 294.864 970.94 286.922C970.94 278.98 964.492 272.544 956.535 272.544ZM918.017 262.865C918.017 270.807 924.465 277.243 932.422 277.243C940.379 277.243 946.827 270.807 946.827 262.865C946.827 254.923 940.379 248.488 932.422 248.488C924.465 248.488 918.017 254.923 918.017 262.865ZM908.329 272.544C900.372 272.544 893.924 278.98 893.924 286.922C893.924 294.864 900.372 301.3 908.329 301.3C916.287 301.3 922.735 294.864 922.735 286.922C922.735 278.98 916.287 272.544 908.329 272.544ZM877.286 223.678C877.286 226.73 879.76 229.2 882.818 229.2C885.877 229.2 888.351 226.73 888.351 223.678C888.351 220.626 885.877 218.156 882.818 218.156C879.76 218.156 877.286 220.626 877.286 223.678ZM861.19 247.233C861.19 252.373 865.365 256.54 870.516 256.54H895.121C900.272 256.54 904.446 252.373 904.446 247.233C904.446 242.092 900.272 237.925 895.121 237.925H870.516C865.365 237.925 861.19 242.092 861.19 247.233ZM873.564 311.049C873.564 293.78 859.541 279.783 842.238 279.783C824.936 279.783 810.913 293.78 810.913 311.049C810.913 328.318 824.936 342.314 842.238 342.314C859.541 342.314 873.564 328.318 873.564 311.049ZM882.818 407.817C873.061 407.817 863.484 406.663 854.239 404.414C855.104 415.679 853.706 423.651 850.024 428.229C846.956 432.055 843.355 432.346 842.329 432.346H842.097C841.162 432.306 840.267 431.975 839.522 431.412C838.808 430.87 836.726 429.434 834.704 428.581C827.913 465.158 820.258 503.492 820.258 503.492C813.468 548.814 839.784 562.8 858.927 562.8C911.548 562.8 930.611 433.601 953.104 386.161C953.366 385.608 953.638 385.056 953.929 384.494C933.458 399.645 908.772 407.817 882.818 407.817ZM956.535 295.286C961.152 295.286 964.904 291.541 964.904 286.932C964.904 282.324 961.152 278.578 956.535 278.578C951.917 278.578 948.165 282.324 948.165 286.932C948.165 291.541 951.917 295.286 956.535 295.286ZM840.085 426.342C841.403 427.155 842.278 427.828 842.278 427.828H842.329C843.033 427.828 851.926 427.356 849.592 403.179C841.242 400.789 833.205 397.496 825.59 393.339C825.529 393.55 825.469 393.751 825.409 393.942C823.658 399.815 819.846 408.4 819.363 411.312C818.89 414.223 819.202 416.342 821.063 418.3C822.914 420.257 831.776 422.808 835.277 423.972C837.027 424.555 838.778 425.519 840.085 426.342ZM932.432 302.625C927.815 302.625 924.063 306.37 924.063 310.979C924.063 315.587 927.815 319.332 932.432 319.332C937.049 319.332 940.802 315.587 940.802 310.979C940.802 306.37 937.049 302.625 932.432 302.625Z"/>
  <path fill="#59BF40" d="M406.043 126.5L389.265 144.118L381.707 136.212L375.75 142.386L389.265 156.5L412 132.673L406.043 126.5Z"/>
  <path fill="#59BF40" d="M898.043 126.5L881.265 144.118L873.707 136.212L867.75 142.386L881.265 156.5L904 132.673L898.043 126.5Z"/>
</svg>
