<?xml version="1.0"?>
<svg viewBox="0 0 36 26" fill="none" xmlns="http://www.w3.org/2000/svg">
  <path fill="currentColor" d="M16.1827 0.0781004C17.6081 -0.0426998 19.0335 -0.0183863 20.4571 0.121069C23.1735 0.386856 25.7983 1.04207 28.3604 1.96775C28.3933 1.97962 28.4272 1.98854 28.4707 2.00193C28.4909 1.96528 28.5193 1.93316 28.5264 1.89744C28.5625 1.71211 28.6809 1.67014 28.8555 1.66892C29.6045 1.66433 30.3068 1.85492 30.9815 2.16013C31.946 2.59683 32.798 3.20275 33.5821 3.90916C33.6515 3.97184 33.6587 4.0229 33.6211 4.10544C33.5517 4.25805 33.4959 4.41663 33.4317 4.5781C33.8532 4.96729 34.223 5.39899 34.5352 5.87986C35.1214 6.78349 35.4179 7.78243 35.5371 8.84568C35.7968 11.1614 35.9333 13.4849 35.9893 15.8135C36.0312 17.563 35.9522 19.308 35.7452 21.0459C35.6396 21.9318 35.484 22.8097 35.1397 23.6406C34.9085 24.1987 34.6002 24.7018 34.0889 25.0547C33.3268 25.5809 31.8525 25.6874 31.0977 24.4013C30.7916 23.8796 30.6396 23.3065 30.5069 22.7236C30.164 21.2205 29.8132 19.7187 29.4649 18.2168C29.3652 17.7865 29.2627 17.3565 29.1563 16.9033C28.9289 17.0598 28.7547 17.247 28.6407 17.4707C28.4287 17.8872 28.233 18.3132 28.0498 18.7431C27.8101 19.3059 27.5943 19.8836 27.1934 20.3554C25.8977 21.881 23.8114 22.5708 21.6748 21.6279C20.7231 21.2077 19.9131 20.6151 19.417 19.6777C18.6868 18.2976 18.5895 16.8836 19.337 15.4814C19.7143 14.7738 20.2355 14.1607 20.8174 13.6045C20.9131 13.513 21.0054 13.4171 21.0987 13.3232C21.1053 13.3165 21.1081 13.3056 21.125 13.2715C19.0201 12.8742 16.9252 12.8754 14.7891 13.2461C14.8996 13.3584 14.9835 13.4489 15.0733 13.5332C15.6865 14.109 16.2264 14.7504 16.6319 15.4853C17.252 16.6089 17.2713 17.7935 16.8594 18.9892C16.4264 20.2467 15.5363 21.0751 14.3409 21.6045C13.0659 22.169 11.7798 22.2381 10.4932 21.6592C9.31318 21.1283 8.49376 20.2528 8.03227 19.0361C7.8451 18.5422 7.62199 18.0604 7.39262 17.584C7.24337 17.2739 7.00619 17.0271 6.70317 16.8174C6.62981 17.1331 6.55966 17.4332 6.49027 17.7334C6.16674 19.1315 5.84402 20.5299 5.51957 21.9277C5.38381 22.5117 5.2609 23.1001 5.1016 23.6777C4.99151 24.0771 4.78572 24.4377 4.51078 24.7549C3.77431 25.6032 2.45123 25.5179 1.74027 24.9228C1.27551 24.5338 0.998936 24.0235 0.790079 23.4697C0.51363 22.7361 0.370845 21.9703 0.275431 21.1963C0.0625906 19.4694 -0.0391154 17.7349 0.0146884 15.9961C0.0639243 14.4025 0.145108 12.8095 0.239298 11.2177C0.293428 10.303 0.380001 9.38862 0.487345 8.47849C0.644598 7.14865 1.20265 5.99432 2.10746 5.00876C2.25884 4.84393 2.42083 4.68749 2.58598 4.53611C2.65364 4.47384 2.67533 4.42018 2.62895 4.3408C2.61888 4.32371 2.61641 4.30211 2.60941 4.28318C2.46019 3.87647 2.45845 3.87395 2.80668 3.60154C3.75687 2.85869 4.77722 2.24333 5.95219 1.92283C6.43149 1.79205 6.91854 1.72986 7.41801 1.7656C7.56878 1.7763 7.65507 1.82431 7.68168 1.97263C7.6861 1.9963 7.70206 2.01729 7.70024 2.01365H7.70121C8.85964 1.6644 9.99349 1.30045 11.1397 0.982397C12.7909 0.524039 14.4739 0.222765 16.1827 0.0781004ZM11.6436 14.5459C11.5481 14.5459 11.4554 14.584 11.3877 14.6513C11.3203 14.7187 11.2825 14.8109 11.2823 14.9062V16.5761H9.60942C9.51394 16.5762 9.42124 16.6143 9.35356 16.6816C9.28616 16.749 9.24829 16.8412 9.24809 16.9365V17.8388C9.24816 17.9343 9.2861 18.0262 9.35356 18.0937C9.42128 18.1613 9.51371 18.1992 9.60942 18.1992H11.2823V19.8681C11.2823 19.9637 11.3202 20.0564 11.3877 20.124C11.4555 20.1915 11.5479 20.2294 11.6436 20.2295H12.5469L12.6182 20.2226C12.6874 20.2088 12.7521 20.1745 12.8028 20.124C12.8702 20.0564 12.9082 19.9636 12.9082 19.8681V18.1992H14.5811L14.6524 18.1924C14.7216 18.1785 14.7863 18.1443 14.837 18.0937C14.9043 18.0262 14.9423 17.9342 14.9424 17.8388V16.9365C14.9422 16.8412 14.9044 16.749 14.837 16.6816C14.7693 16.6143 14.6766 16.5762 14.5811 16.5761H12.9082V14.9062C12.908 14.8109 12.8703 14.7187 12.8028 14.6513C12.7351 14.584 12.6424 14.5459 12.5469 14.5459H11.6436ZM23.6299 16.0361C22.8392 16.0362 22.1979 16.6768 22.1973 17.4668C22.1973 18.2572 22.8389 18.8984 23.6299 18.8984C24.4208 18.8981 25.0625 18.2571 25.0625 17.4668C25.0619 16.6769 24.4204 16.0364 23.6299 16.0361ZM24.9141 10.0381C24.1027 10.0382 23.4448 10.6961 23.4444 11.5068C23.4446 12.3176 24.1026 12.9745 24.9141 12.9746C25.7257 12.9746 26.3836 12.3177 26.3838 11.5068C26.3834 10.6961 25.7256 10.0381 24.9141 10.0381ZM29.0166 7.02048C27.7316 7.02074 26.6898 8.06175 26.6895 9.34568C26.6895 10.6298 27.7314 11.6706 29.0166 11.6709C30.3019 11.6707 31.3447 10.6299 31.3448 9.34568C31.3445 8.06172 30.3017 7.0207 29.0166 7.02048ZM7.16703 7.51755C6.06435 7.51791 5.17021 8.41113 5.16996 9.51267C5.17006 10.6143 6.06425 11.5074 7.16703 11.5078C8.27012 11.5078 9.16498 10.6146 9.16508 9.51267C9.16483 8.41091 8.27002 7.51755 7.16703 7.51755ZM32.4268 5.96091C32.1773 5.89397 31.9081 5.92981 31.6358 6.12107L31.6875 6.19529L31.6348 6.12009L31.625 6.12888C31.3844 6.3549 31.2555 6.56575 31.2139 6.77048C31.1722 6.97658 31.2224 7.16409 31.3106 7.33689C31.3977 7.50721 31.5271 7.67288 31.6495 7.83396C31.7732 7.99695 31.8926 8.15982 31.9766 8.33494C32.0646 8.56462 32.0999 8.79776 32.1211 9.02244C32.1419 9.24271 32.1507 9.46898 32.1866 9.65818C32.2233 9.85102 32.2925 10.0294 32.4493 10.1562C32.6054 10.2822 32.8337 10.3456 33.1602 10.3457H33.1661C33.5007 10.3247 33.7197 10.1432 33.8516 9.88669C33.9805 9.63579 34.0277 9.31221 34.0313 8.99021C34.0348 8.66633 33.9945 8.33347 33.9434 8.05955C33.8927 7.7881 33.8297 7.56499 33.7832 7.46189C33.6977 7.27222 33.4405 6.75768 33.0733 6.37888C32.8896 6.18958 32.6713 6.02681 32.4268 5.96091ZM28.626 4.45212C28.3017 4.44856 27.9687 4.48892 27.6944 4.54001C27.4226 4.59065 27.2 4.6538 27.0967 4.70017C26.9075 4.78524 26.3924 5.04199 26.0127 5.40915C25.8229 5.59275 25.6598 5.81104 25.5938 6.05564C25.5267 6.30496 25.5625 6.57357 25.7539 6.84568L25.7627 6.85544C25.9891 7.09596 26.1994 7.22518 26.4043 7.26658C26.611 7.30822 26.7985 7.25829 26.9717 7.1699C27.1424 7.08278 27.3074 6.95331 27.4688 6.83103C27.5919 6.73776 27.7148 6.64721 27.8428 6.57224L27.9737 6.5029C28.2026 6.41596 28.4344 6.38139 28.6582 6.36033C28.8788 6.33958 29.1046 6.33173 29.294 6.29587C29.4874 6.25918 29.6659 6.18939 29.793 6.0322C29.8876 5.91515 29.947 5.75785 29.9707 5.5488L29.9834 5.32224L29.9825 5.31638C29.9613 4.98226 29.7801 4.76252 29.5235 4.63083C29.2723 4.50218 28.9483 4.45568 28.626 4.45212Z"/>
</svg>
