<?xml version="1.0"?>
<svg xmlns="http://www.w3.org/2000/svg" viewBox="0 0 36 36" fill="none">
  <g clip-path="">
    <path d="M0.999983 6H31C31.002 6.56397 30.8654 7.11979 30.602 7.61852C30.3387 8.11725 29.9568 8.54359 29.49 8.86L16 18L2.49998 8.89C2.03073 8.56963 1.64815 8.13801 1.3864 7.63371C1.12465 7.12941 0.991891 6.56813 0.999983 6ZM29.55 20C30.0328 20.0027 30.5145 20.0462 30.99 20.13V12.26L16 22.66L0.999983 12.26V27H21.2C21.5496 25.0391 22.5775 23.2634 24.1039 21.9838C25.6304 20.7041 27.5581 20.0019 29.55 20ZM32.05 28V24H29.05V28H25.05V31H29.05V35H32.05V31H36.05V28H32.05Z" fill="currentColor"/>
  </g>
  <defs>
    <clipPath id="">
      <rect fill="currentColor"/>
    </clipPath>
  </defs>
</svg>
