<?xml version="1.0"?>
<svg xmlns="http://www.w3.org/2000/svg" viewBox="0 0 19 18" fill="none">
  <path fill="#8B929A" d="M7.07013 7.77755C5.8972 9.00486 3.9955 9.00486 2.82257 7.77755C1.64964 6.55025 1.64964 4.56039 2.82257 3.33308C3.9955 2.10577 5.8972 2.10577 7.07013 3.33308C8.24306 4.56039 8.24306 6.55025 7.07013 7.77755Z"/>
  <path fill="#8B929A" d="M11.3979 13.9172C11.5887 13.7175 11.898 13.7175 12.0888 13.9172L12.2474 14.0831C12.4382 14.2827 12.4382 14.6064 12.2474 14.806L10.3898 16.7498C10.199 16.9494 9.88968 16.9494 9.69889 16.7498L9.54029 16.5838C9.3495 16.3842 9.3495 16.0605 9.54029 15.8609L11.3979 13.9172Z"/>
  <path fill="#8B929A" d="M11.5292 10.2228C10.3563 11.4501 8.45458 11.4501 7.28165 10.2228C6.10872 8.99547 6.10872 7.00561 7.28165 5.77831C8.45458 4.551 10.3563 4.551 11.5292 5.77831C12.7021 7.00561 12.7021 8.99547 11.5292 10.2228Z"/>
  <path fill="#8B929A" d="M4.25544 5.38996C4.63702 4.99069 5.25568 4.99069 5.63726 5.38996L11.901 11.9441C12.2826 12.3434 12.2826 12.9907 11.901 13.39L9.0353 16.3886C8.65372 16.7879 8.03506 16.7879 7.65348 16.3886L1.3897 9.83444C1.00812 9.43517 1.00812 8.78783 1.3897 8.38856L4.25544 5.38996Z"/>
  <path fill="#D9D9D9" d="M6.39758 5.45603C6.39758 7.19171 5.05288 8.59875 3.3941 8.59875C1.73533 8.59875 0.390625 7.19171 0.390625 5.45603C0.390625 3.72036 1.73533 2.31332 3.3941 2.31332C5.05288 2.31332 6.39758 3.72036 6.39758 5.45603Z"/>
  <path fill="#D9D9D9" d="M13.6058 6.58462C13.6058 6.30848 13.8296 6.08462 14.1058 6.08462H14.3071C14.5833 6.08462 14.8071 6.30848 14.8071 6.58462V9.35588C14.8071 9.63202 14.5833 9.85588 14.3071 9.85588H14.1058C13.8296 9.85588 13.6058 9.63202 13.6058 9.35588V6.58462Z"/>
  <path fill="#D9D9D9" d="M11.2033 3.88442C11.2033 5.62009 9.85864 7.02714 8.19987 7.02714C6.54109 7.02714 5.19639 5.62009 5.19639 3.88442C5.19639 2.14874 6.54109 0.741699 8.19987 0.741699C9.85864 0.741699 11.2033 2.14874 11.2033 3.88442Z"/>
  <path fill="#D9D9D9" d="M2.79302 5.82718C2.79302 5.27489 3.24074 4.82718 3.79302 4.82718H12.6055C13.1578 4.82718 13.6055 5.27489 13.6055 5.82718V10.1126C13.6055 10.6649 13.1578 11.1126 12.6055 11.1126H3.79302C3.24073 11.1126 2.79302 10.6649 2.79302 10.1126V5.82718Z"/>
  <path fill="#B8BCBF" d="M17.0008 7.74316L15.3886 10.1377L18.2684 10.3367L17.0008 7.74316ZM12.9769 17.363C15.4123 15.3244 16.6776 12.8735 17.0931 10.0237L16.5984 9.9516C16.1999 12.6846 14.9935 15.0229 12.6559 16.9796L12.9769 17.363Z"/>
</svg>
