<?xml version="1.0"?>
<svg xmlns="http://www.w3.org/2000/svg" version="1.1" viewBox="0 0 1024 1024">
  <path d="M941.3,294.9c-10.3-38.8-40.7-69.4-79.2-79.7-69.9-18.8-350.1-18.8-350.1-18.8,0,0-280.2,0-350.1,18.8-38.6,10.4-68.9,40.9-79.2,79.7-18.7,70.3-18.7,217.1-18.7,217.1,0,0,0,146.7,18.7,217.1,10.3,38.8,40.7,69.4,79.2,79.7,69.9,18.8,350.1,18.8,350.1,18.8,0,0,280.2,0,350.1-18.8,38.6-10.4,68.9-40.9,79.2-79.7,18.7-70.3,18.7-217.1,18.7-217.1,0,0,0-146.7-18.7-217.1ZM420.4,645.2v-266.4l234.2,133.2-234.2,133.2Z"/>
</svg>
