<?xml version="1.0"?>
<svg xmlns="http://www.w3.org/2000/svg" viewBox="0 0 60 39" fill="none">
  <path fill="currentColor" d="M20.2544 28.0733H21.8805C22.6505 28.0733 23.3893 27.7674 23.9338 27.2226C24.4782 26.6782 24.7841 25.9397 24.7841 25.1697V22.5369C24.7841 21.9376 24.5491 21.3626 24.1288 20.9351C23.7088 20.5079 23.1379 20.2628 22.5386 20.2527H20.2544V28.0733Z"/>
  <path fill="currentColor" d="M53.0371 23.7372C53.0371 24.5497 52.3783 25.2085 51.5658 25.2085C50.7535 25.2085 50.0947 24.5497 50.0947 23.7372C50.0947 22.9246 50.7535 22.2661 51.5658 22.2661C52.3783 22.2661 53.0371 22.9246 53.0371 23.7372Z"/>
  <path fill="currentColor" d="M13.7505 13.4774V16.0812C13.7635 16.6785 14.0095 17.2472 14.4364 17.665C14.8637 18.0831 15.4374 18.3169 16.0348 18.3169H18.319V10.4963H16.6835C15.8946 10.4881 15.1365 10.8012 14.5832 11.3636C14.0303 11.9257 13.7297 12.6889 13.7505 13.4774Z"/>
  <path fill="currentColor" d="M32.421 17.4362C32.421 17.1362 32.4985 16.8265 32.5467 16.5263C32.5952 16.2263 32.6242 16.168 32.6724 15.9938C32.721 15.8196 32.7887 15.4613 32.8659 15.1904C32.9434 14.9194 32.9821 14.8227 33.0401 14.6387C33.0981 14.4547 33.2046 14.1355 33.3013 13.8935C33.398 13.6516 33.4563 13.5259 33.5335 13.3419C33.611 13.1579 33.7367 12.8771 33.853 12.6449C33.9693 12.4127 34.0464 12.2867 34.1435 12.1125C34.2402 11.9382 34.3952 11.6673 34.521 11.4543C34.6467 11.2413 34.7437 11.1058 34.8596 10.9413C34.9759 10.7769 35.1501 10.5251 35.2951 10.3317L35.6921 9.83797L35.9243 9.54747L35.9249 9.5481C33.7871 5.89204 30.5051 3.0416 26.5855 1.43715C22.666 -0.167213 18.327 -0.436528 14.2392 0.670589C10.1512 1.77802 6.54175 4.20066 3.96828 7.56433C1.39449 10.9277 0 15.0453 0 19.2807C0 23.5159 1.39449 27.6328 3.96828 30.9962C6.54175 34.3599 10.1512 36.7824 14.2392 37.89C18.327 38.9974 22.6656 38.7281 26.5855 37.1234C30.505 35.519 33.7871 32.6687 35.9249 29.0124L35.6927 28.722L35.3055 28.2282C35.1505 28.025 35.0055 27.8218 34.8603 27.6088L34.5216 27.0959C34.3861 26.8829 34.2604 26.6605 34.1344 26.4377C34.0086 26.2149 33.9409 26.0892 33.8536 25.9052C33.7667 25.7212 33.6309 25.4405 33.5341 25.1985C33.4374 24.9566 33.3697 24.8403 33.3019 24.6566C33.2342 24.4726 33.1277 24.1629 33.0407 23.9115C32.9538 23.6597 32.915 23.5532 32.8665 23.3598C32.818 23.1663 32.731 22.8273 32.6731 22.5564C32.6151 22.2854 32.5861 22.2079 32.5568 22.0239C32.5278 21.8399 32.4601 21.4237 32.4213 21.114C32.4213 20.959 32.4213 20.814 32.3633 20.659C32.3633 20.2041 32.2956 19.6911 32.2956 19.2749C32.2956 18.8587 32.2956 18.307 32.3633 17.8908C32.3728 17.7462 32.4018 17.5912 32.421 17.4362ZM22.5388 18.3171C23.6573 18.3196 24.7292 18.7651 25.52 19.5559C26.3108 20.3468 26.7563 21.4186 26.7588 22.5371V25.0924C26.7588 26.3759 26.2491 27.6069 25.3414 28.5143C24.434 29.4221 23.2029 29.9318 21.9194 29.9318H20.2545V32.2161C20.2545 32.7507 19.8213 33.1839 19.2866 33.1839C18.7523 33.1839 18.3187 32.7507 18.3187 32.2161V30.0093H16.0345C14.9154 30.0093 13.8419 29.5648 13.0505 28.7733C12.2593 27.9819 11.8145 26.9084 11.8145 25.7893C11.8145 25.2547 12.248 24.8214 12.7824 24.8214C13.317 24.8214 13.7503 25.2547 13.7503 25.7893C13.7503 26.3952 13.991 26.9762 14.4195 27.4043C14.8477 27.8328 15.429 28.0735 16.0345 28.0735H18.3187V20.2529H16.0345C14.9154 20.2529 13.8419 19.8083 13.0505 19.0169C12.2593 18.2254 11.8145 17.152 11.8145 16.0329V13.4776C11.8145 12.194 12.3246 10.963 13.2319 10.0556C14.1397 9.14792 15.3707 8.63816 16.6539 8.63816H18.2898V6.27642C18.2898 5.74206 18.723 5.30853 19.2576 5.30853C19.7923 5.30853 20.2255 5.74206 20.2255 6.27642V8.56065H22.5098C23.6283 8.56317 24.7001 9.00868 25.491 9.79948C26.2818 10.5903 26.7273 11.6622 26.7298 12.7807C26.7298 13.3153 26.2966 13.7486 25.7619 13.7486C25.2272 13.7486 24.794 13.3153 24.794 12.7807C24.794 12.1748 24.5533 11.5938 24.1248 11.1657C23.6966 10.7372 23.1156 10.4964 22.5098 10.4964H20.2545V18.3171H22.5388Z"/>
  <path fill="currentColor" d="M44.1421 14.8326C44.1421 15.6451 43.4836 16.3036 42.6711 16.3036C41.8585 16.3036 41.1997 15.6451 41.1997 14.8326C41.1997 14.02 41.8585 13.3612 42.6711 13.3612C43.4836 13.3612 44.1421 14.02 44.1421 14.8326Z"/>
  <path fill="currentColor" d="M47.1135 32.1772C51.1064 32.1754 54.873 30.3237 57.3127 27.1629C59.7526 24.0024 60.5903 19.8898 59.5812 16.0265C58.572 12.1634 55.8299 8.98595 52.1562 7.42192C48.4822 5.8582 44.2911 6.08509 40.8077 8.0363C37.324 9.98725 34.9411 13.4422 34.3547 17.3918C33.7684 21.3415 35.0453 25.3397 37.8119 28.2185C40.2456 30.7473 43.6039 32.1764 47.1134 32.177L47.1135 32.1772ZM51.5657 27.1538C50.6624 27.1538 49.7957 26.7949 49.1567 26.156C48.5177 25.517 48.1589 24.6506 48.1589 23.747C48.1589 22.8434 48.5178 21.9769 49.1567 21.338C49.7957 20.699 50.6624 20.3398 51.5657 20.3398C52.4693 20.3398 53.3361 20.699 53.975 21.338C54.614 21.9769 54.9729 22.8434 54.9729 23.747C54.9678 24.6481 54.6067 25.5107 53.9688 26.1469C53.3307 26.7833 52.4671 27.1419 51.5657 27.1444V27.1538ZM42.6708 11.4255C43.5744 11.4255 44.4408 11.7847 45.0798 12.4237C45.7187 13.0623 46.0776 13.9291 46.0776 14.8327C46.0776 15.7363 45.7187 16.6027 45.0798 17.2417C44.4408 17.8806 43.5744 18.2395 42.6708 18.2395C41.7672 18.2395 40.9004 17.8806 40.2618 17.2417C39.6228 16.6027 39.2636 15.7363 39.2636 14.8327C39.2661 13.9297 39.626 13.0648 40.2643 12.4262C40.9029 11.7878 41.7678 11.428 42.6708 11.4255ZM39.5443 25.489L53.3271 11.7159C53.7112 11.387 54.2836 11.409 54.6413 11.7666C54.9989 12.1242 55.0209 12.6967 54.692 13.0805L40.9189 26.8536C40.5351 27.1825 39.9627 27.1605 39.605 26.8028C39.2474 26.4452 39.2254 25.8728 39.5543 25.489H39.5443Z"/>
</svg>
