<?xml version="1.0"?>
<svg xmlns="http://www.w3.org/2000/svg" viewBox="0 0 36 36" fill="none">
  <path fill="currentColor" fill-rule="evenodd" clip-rule="evenodd" d="M18 24.75C27.9411 24.75 36 19.7132 36 13.5C36 7.2868 27.9411 2.25 18 2.25C8.05887 2.25 0 7.2868 0 13.5C0 19.7132 8.05887 24.75 18 24.75ZM20.8833 18.9875H23.6775L20.849 14.4447C21.5804 14.1247 22.1461 13.6561 22.5461 13.039C22.9575 12.4218 23.1633 11.6504 23.1633 10.7247C23.1633 9.54755 22.7747 8.63326 21.9975 7.98183C21.2204 7.31898 20.009 6.98755 18.3633 6.98755H13.8718V18.9875H16.3918V14.9418H18.1747H18.4661L20.8833 18.9875ZM16.3918 12.7818V9.13041H18.209C18.9975 9.13041 19.569 9.27898 19.9233 9.57612C20.289 9.86183 20.4718 10.2961 20.4718 10.879C20.4718 11.4733 20.2833 11.9418 19.9061 12.2847C19.5404 12.6161 19.0261 12.7818 18.3633 12.7818H16.3918Z"/>
  <path fill="currentColor" d="M11 26V31.601C11 32.926 12.0446 34 13.3333 34H22.6667C23.9554 34 25 32.926 25 31.601V26C22.7984 26.523 20.4394 26.8029 18 26.8029C15.5606 26.8029 13.2016 26.523 11 26Z"/>
</svg>
