<?xml version="1.0"?>
<svg xmlns="http://www.w3.org/2000/svg" viewBox="0 0 36 36" fill="none">
  <path fill="currentColor" fill-rule="evenodd" clip-rule="evenodd" d="M9.64304 9.49988L6.39294 12.8055L9.64304 16.1112V20.8333H14.2858L18.0001 24.6111L21.7143 20.8333H26.3573V16.111L29.6072 12.8055L26.3573 9.50012V4.77777H21.7143L18.0001 1L14.2858 4.77777H9.64304V9.49988ZM22.6432 12.8056C22.6432 15.4136 20.5645 17.5278 18.0004 17.5278C15.4362 17.5278 13.3575 15.4136 13.3575 12.8056C13.3575 10.1976 15.4362 8.08334 18.0004 8.08334C20.5645 8.08334 22.6432 10.1976 22.6432 12.8056Z"/>
  <path fill="currentColor" d="M5 30.2778L8.25 24.6111H12.4286L15.6786 27.9167L11.5 35L9.17857 30.2778H5Z"/>
  <path fill="currentColor" d="M30.9999 30.2778L27.7499 24.6111H23.5713L20.3213 27.9167L24.4999 35L26.8213 30.2778H30.9999Z"/>
</svg>
