<?xml version="1.0"?>
<svg xmlns="http://www.w3.org/2000/svg" version="1.1" viewBox="0 0 1024 1024">
  <path d="M518.9,959h-.3c-133.4-.9-235.9-44.9-304.9-130.7-61.2-76.4-92.9-182.7-94-315.9v-.6c1.1-133.3,32.7-239.5,94-315.9,68.8-85.9,171.5-129.9,304.8-130.8h.5c102.3.7,187.8,27,254.3,78.1,62.5,48.1,106.5,116.6,130.7,203.7l-76,21.2c-41.1-147.5-145.2-222.9-309.3-224-108.4.8-190.3,34.9-243.6,101.2-49.8,62.1-75.5,151.9-76.5,266.9,1,115,26.7,204.7,76.6,266.9,53.3,66.4,135.3,100.5,243.6,101.2,97.7-.7,162.4-23.5,216.1-76.2,61.3-60.1,60.3-133.8,40.6-178.7-11.5-26.5-32.5-48.5-60.9-65.2-7.2,50.3-23.2,91.1-47.8,121.9-33,41-79.7,63.5-138.9,66.7-44.8,2.4-88-8.1-121.4-29.9-39.6-25.7-62.8-64.8-65.3-110.4-2.4-44.3,15.2-85.1,49.5-114.8,32.8-28.3,78.9-45,133.5-48.1,40.1-2.2,77.8-.4,112.5,5.3-4.6-27.6-13.9-49.6-27.9-65.4-19.1-21.8-48.7-32.9-87.9-33.2h-1.1c-31.5,0-74.2,8.7-101.4,49.2l-65.4-43.9c36.5-54.2,95.7-84,166.8-84h1.6c119,.7,189.9,73.6,196.9,200.7,4,1.7,8,3.5,12,5.3,55.5,26.1,96.1,65.6,117.5,114.3,29.7,67.9,32.5,178.4-57.7,266.7-68.9,67.4-152.5,97.9-271.1,98.7h-.3ZM556.3,523.5c-9,0-18.1.3-27.5.8-68.4,3.8-111,35.2-108.6,79.8,2.5,46.8,54.1,68.5,103.7,65.8,45.6-2.4,105-20.2,115-138.2-25.2-5.5-52.8-8.2-82.5-8.2Z"/>
</svg>
