<?xml version="1.0"?>
<svg xmlns="http://www.w3.org/2000/svg" viewBox="0 0 36 34" fill="none" aria-label="">
  <path fill="currentColor" fill-rule="evenodd" clip-rule="evenodd" d="M18 34C27.9411 34 36 26.3888 36 17C36 7.61116 27.9411 0 18 0C8.05887 0 0 7.61116 0 17C0 26.3888 8.05887 34 18 34ZM18.0001 27.0526C25.6294 27.0526 31.4211 21.6411 31.4211 15.4211C31.4211 9.20102 25.6294 3.78947 18.0001 3.78947C10.3708 3.78947 4.57902 9.20102 4.57902 15.4211C4.57902 21.6411 10.3708 27.0526 18.0001 27.0526ZM18.0001 28.8421C26.4006 28.8421 33.2106 22.8333 33.2106 15.4211C33.2106 8.00881 26.4006 2 18.0001 2C9.59953 2 2.78955 8.00881 2.78955 15.4211C2.78955 22.8333 9.59953 28.8421 18.0001 28.8421ZM22.5131 21.3157H14.6215V10.042H17.4077V18.8033H22.5131V21.3157Z"/>
</svg>
