<?xml version="1.0"?>
<svg xmlns="http://www.w3.org/2000/svg" width="456" height="320" viewBox="0 0 456 320" fill="none">
  <path fill="" onClick="" d="M301.29 264.653C307.552 284.091 325.784 298.156 347.305 298.156C352.185 298.156 356.895 297.43 361.335 296.085C360.358 293.938 359.444 291.929 358.349 289.954C353.773 281.695 348.823 273.797 341.547 269.221C337.022 266.374 332.01 265.106 326.5 265.027C318.046 264.907 309.653 264.779 301.29 264.653Z"/>
  <path fill="currentColor" d="M344.98 297.099C344.429 297.073 343.96 297.499 343.934 298.051C343.907 298.602 344.332 299.07 344.884 299.097C345.686 299.136 346.494 299.156 347.306 299.156C348.117 299.156 348.925 299.136 349.727 299.097C350.278 299.071 350.703 298.602 350.677 298.051C350.65 297.499 350.181 297.073 349.63 297.099C348.86 297.137 348.085 297.156 347.306 297.156C346.526 297.156 345.751 297.137 344.98 297.099ZM360.025 296.475C359.891 295.94 359.348 295.614 358.812 295.748C357.32 296.12 355.799 296.422 354.255 296.649C353.709 296.73 353.331 297.238 353.411 297.784C353.491 298.33 354.001 298.708 354.547 298.628C356.157 298.391 357.742 298.077 359.298 297.688C359.833 297.554 360.159 297.011 360.025 296.475ZM335.798 295.748C335.262 295.614 334.719 295.94 334.585 296.475C334.451 297.011 334.778 297.554 335.313 297.688C336.869 298.077 338.455 298.391 340.064 298.628C340.611 298.708 341.119 298.33 341.199 297.784C341.279 297.238 340.901 296.73 340.355 296.649C338.811 296.422 337.29 296.12 335.798 295.748ZM327.061 292.621C326.562 292.385 325.965 292.598 325.729 293.096C325.492 293.595 325.705 294.192 326.204 294.428C327.658 295.117 329.15 295.737 330.678 296.284C331.198 296.47 331.77 296.199 331.956 295.679C332.142 295.16 331.871 294.587 331.352 294.401C329.887 293.877 328.455 293.281 327.061 292.621ZM319.104 287.843C318.661 287.514 318.034 287.606 317.705 288.05C317.376 288.493 317.468 289.119 317.911 289.448C319.205 290.409 320.549 291.309 321.936 292.142C322.409 292.427 323.023 292.273 323.308 291.8C323.592 291.326 323.438 290.712 322.965 290.427C321.634 289.628 320.346 288.765 319.104 287.843ZM312.228 281.607C311.857 281.199 311.224 281.167 310.815 281.538C310.406 281.909 310.375 282.542 310.746 282.951C311.831 284.147 312.974 285.29 314.17 286.375C314.579 286.746 315.212 286.715 315.583 286.305C315.954 285.896 315.923 285.264 315.514 284.893C314.366 283.852 313.269 282.755 312.228 281.607ZM306.693 274.156C306.409 273.683 305.795 273.529 305.321 273.813C304.848 274.097 304.695 274.712 304.979 275.185C305.812 276.572 306.712 277.916 307.673 279.21C308.002 279.653 308.628 279.745 309.071 279.416C309.515 279.086 309.608 278.46 309.278 278.016C308.356 276.775 307.493 275.487 306.693 274.156ZM302.72 265.769C302.533 265.25 301.961 264.979 301.441 265.165C300.922 265.351 300.651 265.923 300.837 266.443C301.383 267.97 302.004 269.463 302.692 270.917C302.929 271.416 303.525 271.629 304.024 271.392C304.523 271.156 304.736 270.559 304.5 270.06C303.839 268.666 303.244 267.234 302.72 265.769Z"/>
  <path fill="" onClick="" d="M153.976 264.653C147.713 284.091 129.481 298.156 107.96 298.156C103.08 298.156 98.3704 297.43 93.9298 296.085C94.9073 293.938 95.8216 291.929 96.9161 289.954C101.493 281.695 106.442 273.797 113.718 269.221C118.243 266.374 123.255 265.106 128.765 265.027C137.22 264.907 145.613 264.779 153.976 264.653Z"/>
  <path fill="currentColor" d="M105.635 297.099C106.405 297.137 107.18 297.156 107.959 297.156C108.739 297.156 109.514 297.137 110.285 297.099C110.836 297.073 111.305 297.499 111.331 298.051C111.358 298.602 110.933 299.071 110.381 299.098C109.579 299.136 108.771 299.156 107.959 299.156C107.148 299.156 106.341 299.136 105.538 299.098C104.987 299.071 104.562 298.602 104.588 298.051C104.615 297.499 105.084 297.073 105.635 297.099ZM95.2396 296.475C95.3736 295.94 95.9169 295.614 96.4525 295.748C97.9447 296.121 99.4655 296.422 101.01 296.649C101.556 296.73 101.934 297.238 101.854 297.784C101.774 298.33 101.265 298.708 100.718 298.628C99.1081 298.391 97.5228 298.077 95.9672 297.688C95.4316 297.554 95.1059 297.011 95.2396 296.475ZM119.467 295.748C120.003 295.614 120.546 295.94 120.68 296.475C120.814 297.011 120.487 297.555 119.952 297.688C118.396 298.077 116.811 298.391 115.201 298.628C114.654 298.708 114.146 298.33 114.066 297.784C113.986 297.238 114.363 296.73 114.91 296.649C116.454 296.422 117.975 296.121 119.467 295.748ZM128.204 292.621C128.703 292.385 129.3 292.598 129.536 293.097C129.773 293.596 129.56 294.192 129.061 294.429C127.607 295.117 126.115 295.737 124.587 296.284C124.067 296.47 123.495 296.199 123.309 295.68C123.123 295.16 123.394 294.587 123.913 294.401C125.378 293.877 126.81 293.282 128.204 292.621ZM136.161 287.843C136.604 287.513 137.231 287.607 137.56 288.05C137.889 288.493 137.797 289.119 137.354 289.448C136.06 290.409 134.717 291.309 133.329 292.142C132.856 292.427 132.242 292.273 131.957 291.8C131.673 291.326 131.827 290.712 132.3 290.428C133.631 289.628 134.919 288.765 136.161 287.843ZM143.037 281.607C143.408 281.199 144.041 281.167 144.45 281.538C144.859 281.909 144.89 282.542 144.519 282.951C143.434 284.147 142.291 285.29 141.095 286.375C140.686 286.746 140.053 286.715 139.682 286.306C139.311 285.896 139.342 285.264 139.751 284.893C140.899 283.852 141.996 282.755 143.037 281.607ZM148.572 274.156C148.856 273.683 149.47 273.529 149.944 273.813C150.417 274.098 150.571 274.712 150.286 275.185C149.453 276.573 148.553 277.916 147.592 279.21C147.263 279.653 146.637 279.745 146.194 279.416C145.75 279.087 145.657 278.46 145.987 278.016C146.909 276.775 147.772 275.487 148.572 274.156ZM152.545 265.769C152.731 265.25 153.304 264.979 153.824 265.165C154.343 265.351 154.614 265.923 154.428 266.443C153.882 267.971 153.261 269.463 152.573 270.917C152.336 271.416 151.74 271.629 151.241 271.392C150.742 271.156 150.529 270.559 150.765 270.06C151.426 268.666 152.021 267.234 152.545 265.769Z"/>
  <path stroke="currentColor" d="M384.95 316.346C387.534 317.113 389.11 317.041 391.801 317.178C406.387 317.919 421.837 312.708 432.331 302.458C457.84 277.541 454.505 233.68 450.551 201.518C445.672 161.824 434.279 122.749 423.101 84.5278C419.828 73.3342 417.674 61.6952 412.621 51.0978C408.414 42.2728 401.94 34.0273 394.341 27.8778C388.861 23.4426 382.132 20.8841 375.461 18.8478C356.926 13.1892 337.122 12.5528 317.901 11.6378C287.84 10.2066 257.723 10.0237 227.634 10.0078C197.545 10.0237 167.426 10.2066 137.364 11.6378C118.143 12.5528 98.3394 13.1892 79.8041 18.8478C73.1336 20.8841 66.4045 23.4426 60.9241 27.8778C53.3251 34.0273 46.8515 42.2728 42.6441 51.0978C37.5916 61.6952 35.4375 73.3342 32.1641 84.5278C20.9865 122.749 9.5936 161.824 4.71408 201.518C0.760437 233.68 -2.57513 277.541 22.9341 302.458C33.4278 312.708 48.8787 317.919 63.4641 317.178C66.1557 317.041 67.7315 317.113 70.3151 316.346C76.0379 314.646 80.7997 310.482 84.4541 305.908C88.6575 300.646 90.6229 294.089 93.8541 288.258C98.4137 280.029 103.732 271.366 111.854 266.258C117.011 263.015 122.674 261.614 128.714 261.528C161.965 261.053 194.3 260.476 227.633 260.309C260.965 260.476 293.3 261.053 326.551 261.528C332.592 261.614 338.255 263.015 343.411 266.258C351.533 271.366 356.852 280.029 361.411 288.258C364.642 294.089 366.608 300.646 370.811 305.908C374.466 310.482 379.227 314.646 384.95 316.346Z" stroke-width="4" stroke-linejoin="round"/>
  <circle stroke="currentColor" onClick="" cx="162.133" cy="108.758" r="34.5" stroke-width="2"/>
  <g transform="">
    <circle stroke="currentColor" cx="162.133" cy="108.758" r="20.75" stroke-width="2"/>
    <circle stroke="" onClick="" cx="162.133" cy="108.758" r="17.7578" stroke-width="7"/>
    <circle stroke="currentColor" fill="" onClick="" cx="162.133" cy="108.758" r="15" stroke-linecap="round" stroke-dasharray="2 2"/>
  </g>
  <circle stroke="currentColor" onClick="" cx="34.5" cy="34.5" r="34.5" transform="matrix(-1 0 0 1 327.633 74.2578)" stroke-width="2"/>
  <g transform="">
    <circle stroke="currentColor" cx="20.75" cy="20.75" r="20.75" transform="matrix(-1 0 0 1 313.883 88.0078)" stroke-width="2"/>
    <circle stroke="" onClick="" cx="17.7578" cy="17.7578" r="17.7578" transform="matrix(-1 0 0 1 310.89 91)" stroke-width="7"/>
    <circle stroke="currentColor" fill="" onClick="" cx="15" cy="15" r="15" transform="matrix(-1 0 0 1 308.133 93.7578)" stroke-linecap="round" stroke-dasharray="2 2"/>
  </g>
  <circle stroke="currentColor" fill="" onClick="" cx="367.133" cy="101.508" r="13.5" stroke-width="2"/>
  <path fill="currentColor" d="M370.343 107.838L369.583 105.568H365.023L364.243 107.838H361.633L366.303 95.0078H368.263L372.953 107.838H370.343ZM367.353 98.7878L365.733 103.458H368.923L367.353 98.7878Z"/>
  <circle stroke="currentColor" fill="" onClick="" cx="393.133" cy="76.0078" r="13.5" stroke-width="2"/>
  <path fill="currentColor" d="M394.503 82.8378H389.133V70.0078H394.283C396.783 70.0078 398.243 71.4178 398.243 73.6178C398.243 75.0378 397.303 75.9578 396.663 76.2678C397.433 76.6278 398.423 77.4378 398.423 79.1478C398.423 81.5478 396.783 82.8477 394.493 82.8477L394.503 82.8378ZM394.083 72.2377H391.633V75.1978H394.083C395.143 75.1978 395.743 74.5978 395.743 73.7178C395.743 72.8378 395.143 72.2377 394.083 72.2377ZM394.253 77.4478H391.643V80.6077H394.253C395.383 80.6077 395.923 79.8878 395.923 79.0178C395.923 78.1478 395.383 77.4478 394.253 77.4478Z"/>
  <circle stroke="currentColor" fill="" onClick="" cx="341.133" cy="76.0078" r="13.5" stroke-width="2"/>
  <path fill="currentColor" d="M343.453 82.8378L340.963 78.3678L338.493 82.8378H335.633L339.613 76.2578L335.883 70.0078H338.733L340.973 74.1478L343.223 70.0078H346.053L342.323 76.2578L346.323 82.8378H343.463H343.453Z"/>
  <circle stroke="currentColor" fill="" onClick="" cx="367.133" cy="49.5078" r="13.5" stroke-width="2"/>
  <path fill="currentColor" d="M368.483 51.0778V56.3377H365.993V51.0778L362.133 43.5078H364.853L367.253 48.6777L369.613 43.5078H372.333L368.473 51.0778H368.483Z"/>
  <path fill="currentColor" d="M139.217 37.5878H155.525H139.217Z"/>
  <path fill="currentColor" d="M155.566 49.6477L139.217 49.6478L155.566 49.6477Z"/>
  <path fill="" onClick="" d="M139.217 37.5878H155.525C158.835 37.6078 161.556 40.3077 161.556 43.6177C161.556 46.9377 158.886 49.6277 155.566 49.6477L139.217 49.6478C135.887 49.6478 133.187 46.9478 133.187 43.6178C133.187 40.2878 135.887 37.5878 139.217 37.5878Z"/>
  <path stroke="currentColor" d="M139.217 37.5878H155.525H139.217Z" stroke-width="2" stroke-linecap="round" stroke-linejoin="round"/>
  <path stroke="currentColor" d="M155.566 49.6477L139.217 49.6478L155.566 49.6477Z" stroke-width="2" stroke-linecap="round" stroke-linejoin="round"/>
  <path stroke="currentColor" d="M139.217 37.5878H155.525C158.835 37.6078 161.556 40.3077 161.556 43.6177C161.556 46.9377 158.886 49.6277 155.566 49.6477L139.217 49.6478C135.887 49.6478 133.187 46.9478 133.187 43.6178C133.187 40.2878 135.887 37.5878 139.217 37.5878Z" stroke-width="2" stroke-linecap="round" stroke-linejoin="round"/>
  <path fill="currentColor" d="M152.068 42.8677H146.058C145.718 42.8677 145.578 43.0077 145.578 43.3477V45.8677C145.578 46.2077 145.718 46.3477 146.058 46.3477H152.078C152.418 46.3477 152.558 46.2077 152.558 45.8677V43.3477C152.558 43.0077 152.418 42.8677 152.068 42.8677Z"/>
  <path fill="currentColor" d="M149.216 41.2977V41.7877C147.206 41.7877 145.216 41.7877 143.206 41.7877V43.3377H144.236V44.3077H142.726C142.386 44.3077 142.246 44.1677 142.246 43.8277V41.3077C142.246 40.9577 142.386 40.8177 142.726 40.8177H148.746C149.086 40.8177 149.226 40.9677 149.226 41.3077"/>
  <path stroke="currentColor" fill="" onClick="" d="M245.444 194.708C245.444 198.258 242.564 201.138 239.014 201.138H216.254C212.704 201.138 209.824 198.258 209.824 194.708C209.824 191.158 212.704 188.278 216.254 188.278H239.014C242.564 188.278 245.444 191.158 245.444 194.708Z" stroke-width="2" stroke-linecap="round" stroke-linejoin="round"/>
  <path fill="currentColor" d="M229.056 194.708C229.056 195.508 228.406 196.158 227.606 196.158C226.806 196.158 226.156 195.508 226.156 194.708C226.156 193.908 226.806 193.258 227.606 193.258C228.406 193.258 229.056 193.908 229.056 194.708Z"/>
  <path fill="currentColor" d="M222.836 194.708C222.836 195.508 222.186 196.158 221.376 196.158C220.566 196.158 219.926 195.508 219.926 194.708C219.926 193.908 220.576 193.258 221.376 193.258C222.176 193.258 222.836 193.908 222.836 194.708Z"/>
  <path fill="currentColor" d="M235.267 194.708C235.267 195.508 234.617 196.158 233.817 196.158C233.017 196.158 232.367 195.508 232.367 194.708C232.367 193.908 233.017 193.258 233.817 193.258C234.617 193.258 235.267 193.908 235.267 194.708Z"/>
  <path fill="currentColor" d="M299.741 37.5878H316.049H299.741Z"/>
  <path fill="currentColor" d="M316.09 49.6477L299.741 49.6478L316.09 49.6477Z"/>
  <path fill="" onClick="" d="M299.741 37.5878H316.049C319.359 37.6078 322.08 40.3077 322.08 43.6177C322.08 46.9377 319.41 49.6277 316.09 49.6477L299.741 49.6478C296.411 49.6478 293.711 46.9478 293.711 43.6178C293.711 40.2878 296.411 37.5878 299.741 37.5878Z"/>
  <path stroke="currentColor" d="M299.741 37.5878H316.049H299.741Z" stroke-width="2" stroke-linecap="round" stroke-linejoin="round"/>
  <path stroke="currentColor" d="M316.09 49.6477L299.741 49.6478L316.09 49.6477Z" stroke-width="2" stroke-linecap="round" stroke-linejoin="round"/>
  <path stroke="currentColor" d="M299.741 37.5878H316.049C319.359 37.6078 322.08 40.3077 322.08 43.6177C322.08 46.9377 319.41 49.6277 316.09 49.6477L299.741 49.6478C296.411 49.6478 293.711 46.9478 293.711 43.6178C293.711 40.2878 296.411 37.5878 299.741 37.5878Z" stroke-width="2" stroke-linecap="round" stroke-linejoin="round"/>
  <path fill="currentColor" d="M312.686 41.5978H303.286C302.936 41.5978 302.656 41.3178 302.656 40.9678C302.656 40.6178 302.936 40.3378 303.286 40.3378H312.686C313.036 40.3378 313.316 40.6178 313.316 40.9678C313.316 41.3178 313.036 41.5978 312.686 41.5978Z"/>
  <path fill="currentColor" d="M312.686 44.1478H303.286C302.936 44.1478 302.656 43.8678 302.656 43.5278C302.656 43.1878 302.936 42.8978 303.286 42.8978H312.686C313.036 42.8978 313.316 43.1778 313.316 43.5278C313.316 43.8778 313.036 44.1478 312.686 44.1478Z"/>
  <path fill="currentColor" d="M312.686 46.7078H303.286C302.936 46.7078 302.656 46.4278 302.656 46.0778C302.656 45.7278 302.936 45.4578 303.286 45.4578H312.686C313.036 45.4578 313.316 45.7378 313.316 46.0778C313.316 46.4178 313.036 46.7078 312.686 46.7078Z"/>
  <path stroke="currentColor" d="M260.328 121.388C249.068 121.368 205.408 121.388 194.148 121.458" stroke-width="0.73" stroke-linecap="round" stroke-linejoin="round"/>
  <path stroke="currentColor" d="M129.908 122.978C126.218 123.138 123.508 123.318 119.828 123.508C117.828 123.618 115.837 123.768 113.847 123.968C111.377 124.228 108.897 124.558 106.447 125.018C104.247 125.428 102.057 125.928 99.8962 126.548C96.0362 127.658 92.2762 129.158 88.8362 131.208C85.7662 133.028 82.9562 135.288 80.5662 137.928C78.1162 140.658 76.1162 143.798 74.5662 147.118M51.4373 293.418C52.5273 277.648 53.9673 261.918 55.7773 246.218C57.1773 234.248 58.8072 222.328 60.6472 210.428M74.5664 147.108C73.6464 149.098 72.8663 151.128 72.2264 153.218C71.9964 153.948 71.7858 154.688 71.5858 155.428M60.6483 210.428C63.5383 191.928 66.7283 173.558 71.5883 155.428" stroke-width="0.73" stroke-linecap="round" stroke-linejoin="round"/>
  <path stroke="currentColor" d="M380.707 147.108C381.627 149.098 382.397 151.128 383.047 153.218C383.277 153.948 383.487 154.688 383.687 155.428C384.167 157.238 384.637 159.048 385.077 160.858C385.557 162.818 386.017 164.778 386.467 166.748C387.467 171.148 388.397 175.558 389.277 179.988C391.287 190.098 393.037 200.248 394.627 210.428M335.445 123.508C337.445 123.618 339.435 123.768 341.425 123.968C343.895 124.228 346.376 124.558 348.826 125.018C351.026 125.428 353.216 125.928 355.376 126.548C359.236 127.658 362.996 129.158 366.446 131.208C369.506 133.028 372.326 135.288 374.706 137.928C377.166 140.658 379.156 143.798 380.706 147.118M399.496 246.218C401.306 261.918 402.746 277.648 403.826 293.418M394.617 210.428C396.467 222.328 398.087 234.258 399.497 246.218M324.398 122.968C328.078 123.138 331.768 123.308 335.448 123.498" stroke-width="0.73" stroke-linecap="round" stroke-linejoin="round"/>
  <circle stroke="currentColor" fill="" onClick="" cx="227.5" cy="76" r="14" stroke-width="2"/>
  <path fill="currentColor" d="M231.917 70.1406C233.279 70.1406 234.383 71.245 234.383 72.6074C234.383 73.9699 233.279 75.0751 231.917 75.0751C230.554 75.0751 229.45 73.9699 229.45 72.6074C229.45 71.245 230.554 70.1406 231.917 70.1406Z"/>
  <path fill="currentColor" fill-rule="evenodd" clip-rule="evenodd" d="M231.914 67.6972C234.625 67.6972 236.824 69.8958 236.824 72.6074C236.824 75.3191 234.625 77.5175 231.914 77.5175C231.874 77.5175 231.834 77.5156 231.794 77.5146L231.797 77.5175L227.38 80.6679C227.384 80.7387 227.386 80.81 227.386 80.8818C227.386 82.9248 225.73 84.581 223.687 84.581C221.882 84.5809 220.38 83.2887 220.054 81.579L214.888 79.5195C214.584 78.4056 214.42 77.233 214.42 76.0224C214.42 75.6188 214.439 75.2195 214.474 74.8251L221.62 77.8134C222.21 77.415 222.922 77.1826 223.687 77.1826C223.762 77.1826 223.837 77.1849 223.912 77.1894L223.894 77.1718L227 72.6601L227.005 72.665C227.004 72.6459 227.004 72.6265 227.004 72.6074C227.004 69.8959 229.202 67.6975 231.914 67.6972ZM223.651 78.1513C223.345 78.1514 223.051 78.2038 222.776 78.2968L224.422 78.9853C225.449 79.4122 225.936 80.5912 225.509 81.6181C225.083 82.6449 223.903 83.1308 222.877 82.704L221.174 82.0253C221.607 82.9614 222.552 83.6121 223.651 83.6122C225.159 83.6122 226.381 82.3896 226.381 80.8818C226.381 79.3739 225.159 78.1513 223.651 78.1513ZM231.912 69.3359C230.105 69.336 228.64 70.8008 228.64 72.6074C228.64 74.4142 230.105 75.8788 231.912 75.8788C233.719 75.8788 235.183 74.4142 235.183 72.6074C235.183 70.8007 233.718 69.3359 231.912 69.3359Z"/>
  <path fill="" onClick="" d="M100.749 63.2587C100.273 62.7822 100.024 62.0789 100.001 61.1484C100 61.1105 99.9995 61.0718 99.9993 61.0331L99.9993 47.0078C99.9993 45.2083 99.9993 44.0077 96.9993 43.0078C93.9993 42.0078 91.9993 42.0078 88.9993 42.0078L87.9993 42.0078C84.9993 42.0078 82.9993 42.0078 79.9993 43.0078C76.9993 44.0077 76.9993 45.2083 76.9993 47.0078L76.9993 61.0078C76.9993 62.0078 76.7493 62.7578 76.2493 63.2578L88.4993 75.5078L100.749 63.2587Z"/>
  <path fill="" onClick="" d="M76.2532 87.7568C76.7296 88.2333 76.9789 88.9366 77.0013 89.8671C77.0022 89.905 77.0031 89.9437 77.0032 89.9824L77.0032 104.008C77.0032 105.807 77.0033 107.008 80.0032 108.008C83.0032 109.008 85.0033 109.008 88.0032 109.008L89.0032 109.008C92.0032 109.008 94.0032 109.008 97.0032 108.008C100.003 107.008 100.003 105.807 100.003 104.008L100.003 90.0078C100.003 89.0077 100.253 88.2578 100.753 87.7578L88.5032 75.5078L76.2532 87.7568Z"/>
  <path fill="" onClick="" d="M76.2531 63.2578C75.7766 63.7342 75.0732 63.9834 74.1428 64.0059C74.1049 64.0068 74.0662 64.0077 74.0275 64.0078H60.0021C58.2027 64.0078 57.0021 64.0078 56.0021 67.0078C55.0021 70.0078 55.0021 72.0078 55.0021 75.0078V76.0078C55.0021 79.0078 55.0021 81.0078 56.0021 84.0078C57.0021 87.0078 58.2027 87.0078 60.0021 87.0078H74.0021C75.0021 87.0078 75.7521 87.2578 76.2521 87.7578L88.5021 75.5078L76.2531 63.2578Z"/>
  <path fill="" onClick="" d="M100.753 87.7577C101.229 87.2813 101.933 87.0321 102.863 87.0097C102.901 87.0088 102.94 87.0079 102.978 87.0077L117.004 87.0078C118.803 87.0078 120.004 87.0077 121.004 84.0078C122.004 81.0078 122.004 79.0077 122.004 76.0078L122.004 75.0078C122.004 72.0078 122.004 70.0077 121.004 67.0078C120.004 64.0078 118.803 64.0078 117.004 64.0078L103.004 64.0077C102.004 64.0077 101.254 63.7578 100.754 63.2577L88.5037 75.5077L100.753 87.7577Z"/>
  <path stroke="currentColor" d="M74.0049 64.0078C76.0049 64.0078 77.0049 63.0078 77.0049 61.0078L77.0049 47.0078C77.0049 45.2084 77.0049 44.0078 80.0049 43.0078C83.0049 42.0078 85.0049 42.0078 88.0049 42.0078L89.0037 42.0078C92.0037 42.0078 94.0037 42.0078 97.0037 43.0078C100.004 44.0078 100.004 45.2084 100.004 47.0078L100.004 61.0078C100.004 63.0078 101.004 64.0078 103.004 64.0078L117.004 64.0078C118.803 64.0078 120.004 64.0078 121.004 67.0078C122.004 70.0078 122.004 72.0078 122.004 75.0078L122.004 76.0078C122.004 79.0078 122.004 81.0078 121.004 84.0078C120.004 87.0078 118.803 87.0078 117.004 87.0078L103.004 87.0078C101.004 87.0078 100.004 88.0078 100.004 90.0078L100.004 104.008C100.004 105.807 100.004 107.008 97.0037 108.008C94.0037 109.008 92.0037 109.008 89.0037 109.008H88.0037C85.0037 109.008 83.0037 109.008 80.0037 108.008C77.0037 107.008 77.0037 105.807 77.0037 104.008L77.0037 90.0078C77.0037 88.0078 76.0037 87.0078 74.0037 87.0078L60.0037 87.0078C58.2043 87.0078 57.0037 87.0078 56.0037 84.0078C55.0037 81.0078 55.0037 79.0078 55.0037 76.0078L55.0037 75.0078C55.0037 72.0078 55.0037 70.0078 56.0037 67.0078C57.0037 64.0078 58.2043 64.0078 60.0037 64.0078L74.0037 64.0078C76.0037 64.0078 77.0037 63.0078 77.0037 61.0078" stroke-width="2" stroke-linecap="round" stroke-linejoin="round"/>
  <path stroke="currentColor" fill="" onClick="" d="M394.341 27.8778C388.861 23.4426 382.132 20.8841 375.461 18.8478C359.516 13.9799 342.632 12.8287 325.988 12.0195C326.058 11.5995 326.196 10.8379 326.266 10.4179C326.606 8.77624 327.409 7.19377 328.556 5.96782C329.7 4.72122 331.19 3.80654 332.796 3.27782C335.04 2.49815 337.493 2.32237 339.846 2.16782C348.531 1.64 357.389 2.38451 365.917 4.0178C373.556 5.19303 381.667 8.00852 387.905 12.7579C391.361 15.4075 394.374 18.7736 396.305 22.6979C397.225 24.5479 397.905 26.5179 398.355 28.5379L398.985 32.0308C397.494 30.5628 395.943 29.1738 394.341 27.8778Z" stroke-width="4"/>
  <path stroke="currentColor" fill="" onClick="" d="M60.924 27.8778C66.4044 23.4426 73.1335 20.8841 79.804 18.8478C95.7492 13.9799 112.633 12.8287 129.277 12.0195C129.207 11.5995 129.07 10.8379 129 10.4179C128.659 8.77624 127.857 7.19377 126.71 5.96782C125.565 4.72122 124.075 3.80654 122.47 3.27782C120.225 2.49815 117.772 2.32237 115.42 2.16782C106.735 1.64 97.8758 2.38451 89.3483 4.0178C81.7093 5.19303 73.5983 8.00852 67.3603 12.7579C63.9043 15.4075 60.8913 18.7736 58.9603 22.6979C58.0403 24.5479 57.3603 26.5179 56.9103 28.5379L56.2803 32.0308C57.7711 30.5628 59.3226 29.1738 60.924 27.8778Z" stroke-width="4"/>
  <ellipse stroke="currentColor" fill="" onClick="" cx="17.2898" cy="25.2235" rx="17.2898" ry="25.2235" transform="matrix(-0.987259 0.159122 0.159122 0.987259 382.332 153.732)" fill-opacity="0.5" stroke-linecap="round" stroke-linejoin="round" stroke-dasharray="3 3"/>
  <ellipse stroke="currentColor" fill="" onClick="" cx="17.2898" cy="25.2235" rx="17.2898" ry="25.2235" transform="matrix(-0.987259 0.159122 0.159122 0.987259 391.481 210.501)" fill-opacity="0.5" stroke-linecap="round" stroke-linejoin="round" stroke-dasharray="3 3"/>
  <ellipse stroke="currentColor" fill="" onClick="" cx="85.9896" cy="181.385" rx="17.2898" ry="25.2235" transform="rotate(9.15596 85.9896 181.385)" fill-opacity="0.5" stroke-linecap="round" stroke-linejoin="round" stroke-dasharray="3 3"/>
  <ellipse stroke="currentColor" fill="" onClick="" cx="76.8397" cy="238.155" rx="17.2898" ry="25.2235" transform="rotate(9.15596 76.8397 238.155)" fill-opacity="0.5" stroke-linecap="round" stroke-linejoin="round" stroke-dasharray="3 3"/>
  <g transform="">
    <rect x="" y="" width="93" height="93" rx="16" stroke="currentColor" fill="" vectorEffect="non-scaling-stroke"/>
  </g>
  <g transform="">
    <rect x="" y="" width="93" height="93" rx="16" stroke="currentColor" fill="" vectorEffect="non-scaling-stroke"/>
  </g>
  <defs>
    <radialGradient id="" cx="0" cy="0" r="1" gradient-units="userSpaceOnUse" gradientTransform="translate(88.5021 75.5078) rotate(-90) scale(33.5 33.5)">
      <stop offset="0.206799" stop-color="#1A9FFF" stop-opacity="0"/>
      <stop offset="0.73567" stop-color="#1A9FFF"/>
    </radialGradient>
    <radialGradient id="" cx="50%" cy="50%" r="1" gradient-units="objectBoundingBox">
      <stop offset="0.201923" stop-color="#ffffffff"/>
      <stop offset="1" stop-color="#ffffffff" stop-opacity="0"/>
    </radialGradient>
  </defs>
</svg>
