<?xml version="1.0"?>
<svg xmlns="http://www.w3.org/2000/svg" viewBox="0 0 36 36" fill="none">
  <path d="M33 18C33.0014 20.7047 32.2715 23.3594 30.8875 25.6832C29.5035 28.0069 27.517 29.9133 25.1382 31.2004C22.7594 32.4875 20.0769 33.1075 17.3746 32.9947C14.6722 32.8819 12.0507 32.0406 9.7874 30.5597C7.52413 29.0789 5.70334 27.0137 4.5178 24.5827C3.33226 22.1517 2.82607 19.4454 3.05281 16.7502C3.27955 14.0551 4.2308 11.4714 5.80584 9.2726C7.38089 7.07385 9.52113 5.34187 12 4.26V8.79C10.0125 10.0834 8.49624 11.9845 7.67712 14.2098C6.85801 16.4351 6.77992 18.8655 7.45451 21.1388C8.12909 23.4121 9.52023 25.4066 11.4206 26.8249C13.3209 28.2433 15.6287 29.0095 18 29.0095C20.3713 29.0095 22.6791 28.2433 24.5794 26.8249C26.4798 25.4066 27.8709 23.4121 28.5455 21.1388C29.2201 18.8655 29.142 16.4351 28.3229 14.2098C27.5038 11.9845 25.9875 10.0834 24 8.79V4.26C26.6738 5.42694 28.9493 7.34824 30.5478 9.78866C32.1463 12.2291 32.9985 15.0827 33 18ZM20 1H16V15H20V1Z" fill="currentColor"/>
</svg>
