<?xml version="1.0"?>
<svg xmlns="http://www.w3.org/2000/svg" viewBox="0 0 36 36" fill="none">
  <ellipse fill="currentColor" cx="18" cy="19.5" rx="18" ry="11.25"/>
  <path fill="currentColor" d="M11 32V33.601C11 34.926 12.0446 36 13.3333 36H22.6667C23.9554 36 25 34.926 25 33.601V32C22.7984 32.523 20.4394 32.8029 18 32.8029C15.5606 32.8029 13.2016 32.523 11 32Z"/>
  <path fill="currentColor" d="M23.1111 0H12L17.5556 5.625L23.1111 0Z"/>
  <path fill="currentColor" d="M18.152 24.956H15.544L13.288 21.18H13.016H11.352V24.956H9V13.756H13.192C14.728 13.756 15.8587 14.0653 16.584 14.684C17.3093 15.292 17.672 16.1453 17.672 17.244C17.672 18.108 17.48 18.828 17.096 19.404C16.7227 19.98 16.1947 20.4173 15.512 20.716L18.152 24.956ZM11.352 15.756V19.164H13.192C13.8107 19.164 14.2907 19.0093 14.632 18.7C14.984 18.38 15.16 17.9427 15.16 17.388C15.16 16.844 14.9893 16.4387 14.648 16.172C14.3173 15.8947 13.784 15.756 13.048 15.756H11.352Z"/>
  <path fill="currentColor" d="M23.5962 13.5C24.9082 13.5 25.9056 13.7613 26.5882 14.284C27.2709 14.8067 27.6122 15.484 27.6122 16.316C27.6122 16.8813 27.4416 17.388 27.1003 17.836C26.7696 18.2733 26.3002 18.6093 25.6922 18.844V18.892C26.4069 19.0413 26.9829 19.3507 27.4202 19.82C27.8682 20.2787 28.0923 20.892 28.0923 21.66C28.0923 22.364 27.8896 22.988 27.4842 23.532C27.0789 24.0653 26.5243 24.4813 25.8202 24.78C25.1162 25.068 24.3376 25.212 23.4843 25.212C22.6736 25.212 21.9003 25.1 21.1643 24.876C20.4389 24.652 19.8256 24.3373 19.3243 23.932L20.3323 22.204C21.1643 22.876 22.1509 23.212 23.2923 23.212C24.0176 23.212 24.5829 23.0627 24.9882 22.764C25.4042 22.4653 25.6122 22.0547 25.6122 21.532C25.6122 20.508 24.8283 19.996 23.2603 19.996H21.8203V18.22H23.1163C23.7349 18.22 24.2309 18.1027 24.6043 17.868C24.9883 17.6227 25.1803 17.2813 25.1803 16.844C25.1803 16.4387 24.9989 16.1133 24.6363 15.868C24.2843 15.6227 23.7936 15.5 23.1643 15.5C22.6842 15.5 22.2203 15.58 21.7723 15.74C21.3349 15.8893 20.9403 16.0973 20.5883 16.364L19.5963 14.86C20.1296 14.4227 20.7323 14.0867 21.4043 13.852C22.0869 13.6173 22.8176 13.5 23.5962 13.5Z"/>
</svg>
