<?xml version="1.0"?>
<svg xmlns="http://www.w3.org/2000/svg" viewBox="0 0 36 36" fill="none">
  <path fill="currentColor" d="M2 20.1018C2.00706 24.3161 3.69501 28.3558 6.69399 31.3357C9.69297 34.3157 13.7584 35.9929 17.9996 35.9999C20.1001 36.0069 22.181 35.5986 24.1211 34.7987C26.0612 33.9988 27.8217 32.8234 29.3003 31.3409C32.2882 28.3636 33.9763 24.3371 33.9993 20.1324C34.0815 11.2187 27.2579 4.37723 18.127 4.20778H11V0L2 6.45356L11 12.9092V8.90351H18.0592C24.5088 9.02601 29.3311 13.832 29.2735 20.0834C29.2181 26.2736 24.1616 31.3124 17.9996 31.3124C15.0106 31.3091 12.1449 30.1278 10.0314 28.0277C7.91782 25.9275 6.72898 23.08 6.72572 20.11"/>
  <path fill="currentColor" d="M15.4272 15.1337V24.8663H13.197V17.6738L11 18.3222V16.611L15.222 15.1337H15.4272Z"/>
  <path fill="currentColor" d="M24 19.111V20.889C24 21.5887 23.9184 22.197 23.7551 22.7139C23.5963 23.2308 23.3669 23.6586 23.0669 23.9973C22.7713 24.336 22.4184 24.5878 22.0081 24.7527C21.5978 24.9176 21.1456 25 20.6515 25C20.2544 25 19.8839 24.9488 19.5397 24.8463C19.1956 24.7393 18.8846 24.5789 18.6067 24.365C18.3331 24.1466 18.0971 23.8748 17.8986 23.5495C17.7001 23.2242 17.5478 22.8409 17.442 22.3997C17.3361 21.9541 17.2831 21.4505 17.2831 20.889V19.111C17.2831 18.4069 17.3626 17.7986 17.5214 17.2861C17.6846 16.7692 17.9162 16.3414 18.2162 16.0027C18.5162 15.664 18.8714 15.4122 19.2817 15.2473C19.6919 15.0824 20.1442 15 20.6383 15C21.0353 15 21.4037 15.0535 21.7434 15.1604C22.0875 15.2629 22.3985 15.4234 22.6765 15.6417C22.9544 15.8556 23.1904 16.1252 23.3846 16.4505C23.5831 16.7758 23.7353 17.1613 23.8412 17.607C23.9471 18.0481 24 18.5495 24 19.111ZM21.7699 21.1631V18.8235C21.7699 18.5116 21.7522 18.2398 21.7169 18.008C21.686 17.7763 21.6375 17.5802 21.5713 17.4198C21.5096 17.2594 21.4324 17.1301 21.3397 17.0321C21.2471 16.9296 21.1412 16.8561 21.0221 16.8115C20.9074 16.7625 20.7794 16.738 20.6383 16.738C20.4618 16.738 20.303 16.7758 20.1618 16.8516C20.025 16.9229 19.9081 17.0388 19.8111 17.1992C19.714 17.3596 19.639 17.5735 19.5861 17.8409C19.5375 18.1083 19.5133 18.4358 19.5133 18.8235V21.1631C19.5133 21.4795 19.5287 21.7558 19.5596 21.992C19.5949 22.2237 19.6434 22.422 19.7052 22.5869C19.7714 22.7473 19.8508 22.8788 19.9434 22.9813C20.0361 23.0793 20.1419 23.1506 20.2611 23.1952C20.3802 23.2398 20.5103 23.262 20.6515 23.262C20.8236 23.262 20.978 23.2264 21.1147 23.1551C21.2515 23.0838 21.3684 22.9679 21.4655 22.8075C21.5669 22.6426 21.6419 22.4265 21.6905 22.1591C21.7434 21.8873 21.7699 21.5553 21.7699 21.1631Z"/>
</svg>
