<?xml version="1.0"?>
<svg xmlns="http://www.w3.org/2000/svg" viewBox="0 0 36 36" fill="none">
  <path fill="currentColor" d="M8 4C5.79086 4 4 5.79086 4 8V27C4 29.2091 5.79086 31 8 31H13V20C13 16.134 16.134 13 20 13H31V8C31 5.79086 29.2091 4 27 4H8Z"/>
  <path fill="currentColor" d="M16 20C16 17.7909 17.7909 16 20 16H31L16 31V20Z"/>
  <path fill="currentColor" d="M29 24.0625V25C29 25.2671 28.9738 25.5282 28.9239 25.7806L30.8858 26.1688C30.9609 25.7892 31 25.3982 31 25V24.0625H29Z"/>
  <path fill="currentColor" d="M28.3263 27.2225C28.0342 27.6587 27.6587 28.0342 27.2225 28.3263L28.3351 29.9882C28.9885 29.5507 29.5507 28.9885 29.9882 28.3351L28.3263 27.2225Z"/>
  <path fill="currentColor" d="M21 29H22.1875V31H19L21 29Z"/>
  <path fill="currentColor" d="M24.0625 29H25C25.2671 29 25.5282 28.9738 25.7806 28.9239L26.1688 30.8858C25.7892 30.9609 25.3982 31 25 31H24.0625V29Z"/>
  <path fill="currentColor" d="M29 22.1875V21L31 19V22.1875H29Z"/>
</svg>
