<?xml version="1.0"?>
<svg xmlns="http://www.w3.org/2000/svg" viewBox="0 0 36 36" fill="none">
  <path fill="currentColor" d="M8.61686 18.3184V13H11.3224V25.9716H8.61686V20.6533H2.72404V25.9716H0V13H2.72404V18.3184H8.61686Z"/>
  <path fill="currentColor" d="M17.3216 13C18.6311 13 19.7924 13.2471 20.8054 13.7412C21.8308 14.223 22.6338 14.9457 23.2144 15.9093C23.8074 16.873 24.1039 18.0404 24.1039 19.4117C24.1039 20.7953 23.8074 21.9813 23.2144 22.9696C22.6338 23.9456 21.8308 24.693 20.8054 25.2119C19.78 25.7184 18.6188 25.9716 17.3216 25.9716H13.1707V13H17.3216ZM15.9318 15.4646V23.5255H17.3401C19.9221 23.5255 21.2131 22.1543 21.2131 19.4117C21.2131 18.028 20.8857 17.0274 20.2309 16.4097C19.5885 15.7796 18.6249 15.4646 17.3401 15.4646H15.9318Z"/>
  <path fill="currentColor" d="M36 25.9716H32.9795L30.3666 21.5983H28.1244V25.9716H25.4003V13H30.2554C32.0344 13 33.3439 13.3583 34.184 14.0748C35.024 14.779 35.4441 15.7673 35.4441 17.0397C35.4441 18.0404 35.2217 18.8743 34.777 19.5414C34.3446 20.2085 33.7331 20.715 32.9424 21.0609L36 25.9716ZM28.1244 15.3164V19.2634H30.2554C30.972 19.2634 31.5279 19.0843 31.9232 18.726C32.3309 18.3554 32.5347 17.8489 32.5347 17.2065C32.5347 16.5765 32.3371 16.107 31.9417 15.7982C31.5588 15.477 30.9411 15.3164 30.0886 15.3164H28.1244Z"/>
</svg>
