<?xml version="1.0"?>
<svg width="41" height="64" viewBox="0 0 41 64" fill="none" xmlns="http://www.w3.org/2000/svg">
  <path fill-rule="evenodd" clip-rule="evenodd" d="M30.4126 5.84583C28.4532 5.77501 26.5883 4.98584 25.1733 3.62868C22.883 1.43206 19.2764 1.40456 16.9529 3.566C15.5173 4.90142 13.6406 5.66206 11.6804 5.70299C8.50765 5.76924 5.93799 8.30001 5.82337 11.4714C5.75255 13.4308 4.96338 15.2956 3.60622 16.7107C1.4096 19.001 1.3821 22.6075 3.54354 24.9311C4.87896 26.3667 5.6396 28.2433 5.68053 30.2036C5.74678 33.3763 8.27755 35.946 11.4489 36.0606C13.4083 36.1314 15.2732 36.9206 16.6882 38.2778C18.9785 40.4744 22.5851 40.5019 24.9086 38.3404C26.3442 37.005 28.2209 36.2444 30.1811 36.2035C33.3539 36.1372 35.9235 33.6064 36.0382 30.4351C36.109 28.4757 36.8981 26.6108 38.2553 25.1958C40.4519 22.9055 40.4794 19.2989 38.318 16.9754C36.9826 15.5398 36.2219 13.6631 36.181 11.7029C36.1147 8.53011 33.584 5.96045 30.4126 5.84583ZM37.1808 11.682C37.1035 7.9792 34.1499 4.98025 30.4487 4.84648C28.7347 4.78453 27.1033 4.09418 25.8655 2.90697C23.1926 0.343378 18.9835 0.311283 16.2718 2.83381C15.016 4.00202 13.3743 4.6674 11.6595 4.70321C7.95674 4.78052 4.95779 7.73408 4.82402 11.4352C4.76207 13.1493 4.07172 14.7806 2.88451 16.0185C0.320917 18.6914 0.288821 22.9005 2.81135 25.6122C3.97955 26.868 4.64494 28.5097 4.68075 30.2245C4.75807 33.9272 7.71162 36.9262 11.4128 37.06C13.1268 37.1219 14.7582 37.8123 15.996 38.9995C18.669 41.5631 22.878 41.5952 25.5897 39.0726C26.8455 37.9044 28.4872 37.239 30.202 37.2032C33.9048 37.1259 36.9037 34.1724 37.0375 30.4712C37.0995 28.7572 37.7898 27.1258 38.977 25.888C41.5406 23.215 41.5727 19.006 39.0502 16.2943C37.882 15.0384 37.2166 13.3968 37.1808 11.682ZM31.4863 41.2401C31.4867 41.2404 31.487 41.2407 31.1669 41.6248L31.487 41.2407L31.6669 41.3906V41.6248V62.5728V63.4683L30.9046 62.9985L20.9309 56.8517L10.9573 62.9985L10.1949 63.4683V62.5728V41.6248V41.3555L10.4198 41.2073L10.6949 41.6248C10.4198 41.2073 10.42 41.2071 10.4203 41.2069L10.4209 41.2065L10.4222 41.2057L10.425 41.2039L10.4321 41.1993L10.4518 41.1873C10.4674 41.1779 10.4879 41.1661 10.5133 41.1524C10.5641 41.125 10.6344 41.0902 10.7241 41.0527C10.9034 40.9778 11.1598 40.8927 11.4906 40.8367C12.1557 40.724 13.1039 40.7318 14.3111 41.1525C14.7935 41.3206 15.3635 41.6156 15.9507 41.9446C16.2911 42.1353 16.6562 42.3485 17.0236 42.563L17.024 42.5632L17.0248 42.5637C17.2873 42.717 17.551 42.871 17.8076 43.0179C18.4375 43.3784 19.0498 43.7114 19.6033 43.955C20.1687 44.2038 20.6187 44.3343 20.9375 44.3385C21.205 44.3421 21.6162 44.2205 22.1636 43.9649C22.6946 43.7169 23.2892 43.3749 23.9047 43.0052C24.1025 42.8864 24.3034 42.7642 24.5044 42.642L24.5055 42.6413L24.5067 42.6406L24.5067 42.6405L24.5069 42.6405C24.9206 42.3888 25.3344 42.137 25.7213 41.9151C26.2933 41.587 26.855 41.2951 27.3286 41.1477C28.7347 40.7101 29.7388 40.6983 30.4172 40.8191C30.7557 40.8794 31.0083 40.9719 31.1846 41.0565C31.2726 41.0987 31.3409 41.1387 31.3909 41.1712C31.4159 41.1874 31.4363 41.2018 31.4523 41.2136C31.4603 41.2195 31.4671 41.2248 31.4729 41.2293L31.4808 41.2356L31.4841 41.2383L31.4856 41.2395L31.4863 41.2401ZM11.1949 41.9422V61.6774L20.6686 55.8387L20.9309 55.6771L21.1932 55.8387L30.6669 61.6774V41.9208C30.5682 41.8813 30.4282 41.8368 30.242 41.8037C29.7472 41.7156 28.9065 41.704 27.6258 42.1025C27.2665 42.2144 26.7877 42.4563 26.2189 42.7825C25.8428 42.9982 25.4485 43.2381 25.0417 43.4856L25.0415 43.4858L25.0399 43.4867C24.836 43.6108 24.629 43.7367 24.4195 43.8625C23.8009 44.234 23.1684 44.5994 22.5866 44.871C22.0212 45.135 21.4338 45.3452 20.9243 45.3385C20.3958 45.3315 19.7928 45.1309 19.2005 44.8703C18.5965 44.6045 17.9466 44.2496 17.3108 43.8857C17.0355 43.7281 16.7669 43.5712 16.504 43.4176C16.1468 43.209 15.8002 43.0066 15.4619 42.817C14.8778 42.4897 14.3743 42.2334 13.9821 42.0968C12.9316 41.7307 12.1539 41.7385 11.6576 41.8226C11.4625 41.8557 11.308 41.901 11.1949 41.9422ZM23.7901 8.68637C24.8582 9.71081 26.2659 10.3065 27.7449 10.36C29.879 10.4371 31.582 12.1663 31.6266 14.3013C31.6575 15.781 32.2316 17.1975 33.2397 18.2812C34.6941 19.8447 34.6756 22.2717 33.1975 23.8129C32.173 24.881 31.5774 26.2887 31.5239 27.7677C31.4468 29.9018 29.7176 31.6048 27.5826 31.6494C26.1029 31.6803 24.6863 32.2544 23.6027 33.2625C22.0391 34.7169 19.6122 34.6984 18.071 33.2203C17.0028 32.1958 15.5952 31.6002 14.1162 31.5467C11.9821 31.4696 10.2791 29.7404 10.2345 27.6054C10.2036 26.1257 9.62942 24.7091 8.62139 23.6255C7.16691 22.0619 7.18542 19.635 8.66357 18.0938C9.68801 17.0256 10.2837 15.618 10.3372 14.1389C10.4143 12.0049 12.1435 10.3019 14.2785 10.2573C15.7582 10.2264 17.1747 9.65222 18.2584 8.64419C19.8219 7.18971 22.2489 7.20821 23.7901 8.68637ZM27.781 9.36061C30.4449 9.45689 32.5707 11.6154 32.6264 14.2804C32.6521 15.5146 33.131 16.6962 33.9719 17.6001C35.7874 19.5518 35.7643 22.5812 33.9192 24.5051C33.0647 25.396 32.5678 26.5702 32.5232 27.8038C32.427 30.4677 30.2685 32.5935 27.6034 32.6492C26.3692 32.6749 25.1876 33.1538 24.2838 33.9946C22.332 35.8102 19.3026 35.7871 17.3788 33.942C16.4879 33.0875 15.3137 32.5906 14.08 32.546C11.4161 32.4498 9.29034 30.2913 9.23469 27.6262C9.20892 26.392 8.73001 25.2104 7.88921 24.3066C6.07363 22.3548 6.09673 19.3254 7.94186 17.4016C8.79635 16.5107 9.29322 15.3365 9.33781 14.1028C9.43409 11.4389 11.5926 9.31314 14.2576 9.25749C15.4918 9.23172 16.6734 8.75281 17.5773 7.912C19.529 6.09643 22.5584 6.11953 24.4823 7.96466C25.3732 8.81915 26.5474 9.31602 27.781 9.36061Z" fill="none"/>
</svg>
