<?xml version="1.0"?>
<svg xmlns="http://www.w3.org/2000/svg" viewBox="0 0 36 36" fill="none">
  <path d="M31.7 15.75C31.703 13.1045 30.94 10.5148 29.5032 8.2936C28.0663 6.07238 26.0171 4.31465 23.6031 3.23272C21.189 2.15079 18.5133 1.79092 15.8992 2.19659C13.285 2.60226 10.8442 3.75611 8.8716 5.51878C6.89896 7.28145 5.47885 9.57755 4.78278 12.1298C4.0867 14.682 4.14444 17.3811 4.94902 19.9013C5.7536 22.4214 7.2706 24.6546 9.31681 26.3313C11.363 28.008 13.8509 29.0565 16.48 29.35V35.05L27.31 25.79C28.6947 24.5098 29.7995 22.9569 30.555 21.2291C31.3105 19.5012 31.7004 17.6358 31.7 15.75ZM18 25.05C17.5126 25.0519 17.0356 24.9091 16.6296 24.6396C16.2235 24.37 15.9066 23.9859 15.7192 23.536C15.5318 23.0861 15.4822 22.5906 15.5768 22.1125C15.6714 21.6344 15.9059 21.1951 16.2505 20.8505C16.5952 20.5059 17.0344 20.2714 17.5126 20.1768C17.9907 20.0822 18.4861 20.1317 18.936 20.3192C19.386 20.5066 19.77 20.8234 20.0396 21.2295C20.3091 21.6356 20.452 22.1126 20.45 22.6C20.45 23.2498 20.1919 23.8729 19.7324 24.3324C19.273 24.7918 18.6498 25.05 18 25.05ZM20.52 16.17C20.2967 16.293 20.1092 16.472 19.9759 16.6894C19.8427 16.9068 19.7683 17.1551 19.76 17.41V18.5H16.23V17.41C16.2332 16.5459 16.463 15.6978 16.8964 14.9503C17.3298 14.2028 17.9517 13.582 18.7 13.15C18.8996 13.0303 19.0657 12.8621 19.1828 12.6611C19.3 12.46 19.3643 12.2326 19.37 12C19.3728 11.6301 19.2313 11.2738 18.9754 11.0067C18.7196 10.7397 18.3696 10.583 18 10.57C17.8141 10.5699 17.63 10.6071 17.4587 10.6795C17.2874 10.7518 17.1323 10.8578 17.0027 10.9911C16.8731 11.1245 16.7716 11.2825 16.7041 11.4557C16.6367 11.629 16.6047 11.8141 16.61 12H13.08C13.0793 11.1411 13.3039 10.2971 13.7314 9.55218C14.1589 8.80726 14.7742 8.18749 15.5161 7.75476C16.258 7.32203 17.1004 7.09146 17.9592 7.08608C18.8181 7.0807 19.6633 7.30069 20.4106 7.72409C21.1578 8.14749 21.7809 8.7595 22.2177 9.499C22.6544 10.2385 22.8896 11.0796 22.8997 11.9384C22.9097 12.7972 22.6944 13.6437 22.275 14.3932C21.8557 15.1427 21.2471 15.7692 20.51 16.21L20.52 16.17Z" fill="currentColor"/>
</svg>
