<?xml version="1.0"?>
<svg width="36" height="36" viewBox="0 0 36 36" fill="none" xmlns="http://www.w3.org/2000/svg">
  <path d="M32.991 20.3742C31.996 19.9541 30.8307 20.4415 30.3037 21.4683L27.0772 20.1006C27.0852 19.9739 27.089 19.8507 27.089 19.724V16.0418L30.3197 14.6703C30.8511 15.6771 32.0045 16.1567 32.9913 15.7405C34.0339 15.2966 34.4896 14.0161 34.0061 12.8824C33.784 12.3555 33.4034 11.9551 32.9517 11.7171C33.0943 11.2297 33.0705 10.6745 32.8487 10.1515C32.3691 9.01382 31.1322 8.45483 30.0896 8.89511C29.0945 9.31523 28.6348 10.4924 29.0075 11.5864L26.8273 12.5099C25.8561 8.53397 22.2688 5.58887 17.9998 5.58887C13.7269 5.58887 10.1434 8.53403 9.17233 12.5099L6.98818 11.5864C7.36084 10.4924 6.90111 9.31523 5.90995 8.89511C4.86733 8.45519 3.63076 9.01393 3.14725 10.1515C2.92518 10.6746 2.90537 11.2297 3.04424 11.7171C2.59634 11.9551 2.21198 12.3554 1.9898 12.8824C1.51028 14.0161 1.96601 15.2966 3.00863 15.7405C3.99182 16.1567 5.14919 15.6771 5.68016 14.6703L8.91086 16.0418L8.91121 19.7243C8.91121 19.851 8.9152 19.9742 8.92305 20.1009L5.69235 21.4686C5.16501 20.4419 3.99957 19.9544 3.00888 20.3745C1.96626 20.8184 1.51053 22.0986 1.99005 23.2326C2.21212 23.7557 2.59662 24.1599 3.04449 24.3979C2.90586 24.8853 2.92566 25.4405 3.1475 25.9635C3.63101 27.0972 4.86794 27.6602 5.9102 27.2199C6.89339 26.7998 7.35314 25.6385 7.00028 24.5562L9.80681 23.3671C9.9854 23.716 10.1913 24.0529 10.4253 24.3702L11.9593 26.4751V26.9902C11.9593 28.8809 13.4933 30.4108 15.3841 30.4108H20.6164C22.5071 30.4108 24.037 28.8808 24.037 26.9902V26.4751L25.575 24.3702C25.809 24.0531 26.0149 23.716 26.1935 23.3671L29 24.5562C28.6433 25.6383 29.103 26.7998 30.0901 27.2199C31.1327 27.6598 32.3693 27.0971 32.8492 25.9635C33.0712 25.4404 33.095 24.8853 32.9522 24.3979C33.404 24.1599 33.7844 23.7557 34.0066 23.2326C34.49 22.0986 34.0339 20.8184 32.9917 20.3742L32.991 20.3742ZM24.6825 18.0554C24.6825 18.3885 24.5993 18.7016 24.4485 18.987C24.0324 19.8035 23.0808 20.3706 21.9671 20.3706C21.111 20.3706 20.346 19.8194 19.8503 19.1102C19.4738 18.5792 19.2516 17.9607 19.2516 17.4135C19.2516 17.1953 19.2872 17.0014 19.3585 16.8306C19.6796 16.0102 20.7262 15.7446 21.9667 15.7446C23.0924 15.7446 24.0558 16.3235 24.464 17.1517C24.6073 17.429 24.6825 17.7343 24.6825 18.0554L24.6825 18.0554ZM11.3124 18.0554C11.3124 17.7343 11.3877 17.429 11.5306 17.1518C11.9428 16.3234 12.9062 15.7446 14.0279 15.7446C15.2685 15.7446 16.3149 16.0103 16.6361 16.8307C16.7074 17.0013 16.743 17.1954 16.743 17.4136C16.743 17.9604 16.5209 18.5749 16.1443 19.1064C15.6529 19.8199 14.8879 20.3707 14.0275 20.3707C12.9176 20.3707 11.9622 19.8038 11.5461 18.9872C11.3955 18.7016 11.3124 18.3885 11.3124 18.0554L11.3124 18.0554ZM19.0341 21.8843C19.0341 22.578 18.5704 23.1407 17.9995 23.1407C17.4286 23.1407 16.9649 22.5776 16.9649 21.8843C16.9649 21.3691 17.2227 20.481 17.5912 20.0649L17.9995 19.8942L18.4078 20.0649C18.7764 20.4813 19.0341 21.3692 19.0341 21.8843Z" fill="currentColor"/>
</svg>
