<?xml version="1.0"?>
<svg xmlns="http://www.w3.org/2000/svg" viewBox="0 0 44.625 32">
  <path fill="currentColor" d="M44.465,6.059V7.5l-0.559,0.606h-2.282
				C41.563,8.168,41.502,8.2,41.439,8.2c-0.063,0.031-0.124,0.047-0.185,0.047v2.421h-6.051c0,0.125,0,0.248,0,0.372
				s0.032,0.25,0.093,0.371c0,0.127,0.015,0.267,0.047,0.42c-0.032,0.031-0.094,0.079-0.188,0.141
				c-0.09,0.031-0.185,0.108-0.278,0.234c0.032,0.061,0.079,0.278,0.14,0.649c0.061,0.188,0.093,0.359,0.093,0.513H33.9
				c-0.746,0-1.211-0.015-1.399-0.046c-0.092,0.125-0.216,0.356-0.372,0.7c-0.124,0.339-0.325,0.698-0.604,1.068
				c-0.249,0.372-0.542,0.714-0.884,1.024c-0.341,0.278-0.729,0.451-1.164,0.512c-0.683,0.094-1.473,0.108-2.375,0.047
				c-0.93-0.03-1.66-0.249-2.188-0.652c-0.184,0-0.275-0.06-0.278-0.186v8.38c-0.156,0.03-0.264,0.06-0.328,0.092
				c-0.123,0.061-0.262,0.093-0.418,0.093v7.215h-5.446v-7.029c-0.031-0.031-0.062-0.062-0.093-0.092
				c-0.032,0-0.078-0.016-0.14-0.047c-0.031-0.031-0.061-0.047-0.092-0.047h-3.119l-0.652-0.883c0.372-1.738,0.73-3.321,1.072-4.748
				c0.278-1.21,0.527-2.311,0.744-3.306l0.371-1.535c-0.341-0.622-0.634-1.164-0.881-1.63c-0.311-0.496-0.561-0.774-0.747-0.836
				c-0.187-0.095-0.622-0.141-1.302-0.141c-0.652,0-1.273,0.046-1.863,0.141c-0.031,0.028-0.076,0.077-0.139,0.138
				c-0.094,0.063-0.169,0.124-0.233,0.186l-0.279,0.279l-0.698-0.092c0-0.062-0.03-0.126-0.094-0.187
				c0-0.028-0.015-0.062-0.044-0.093c-0.033-0.062-0.063-0.108-0.094-0.14H5.738v3.445H5.506c-0.062,0.062-0.279,0.154-0.652,0.278
				c-0.373,0.062-0.729,0.062-1.069,0c-0.218-0.061-0.406-0.124-0.559-0.185c-0.156-0.063-0.265-0.093-0.326-0.093
				c-0.032,0-0.094,0-0.188,0c-0.155,0-0.309-0.015-0.465-0.046c-0.155,0-0.341-0.017-0.559-0.048c-0.062,0-0.171-0.062-0.326-0.184
				c-0.187-0.157-0.372-0.39-0.56-0.698c-0.091-0.095-0.139-0.219-0.139-0.374c0-0.186,0-0.296,0-0.327
				c0-0.496,0.109-1.009,0.327-1.536c0-0.062,0.03-0.405,0.092-1.023c0-0.59,0-1.147,0-1.676l0.373-6.981L2.572,0.66V0.52
				l2.374,0.14c0.531,0.063,1.135,0.125,1.816,0.187c0.622,0.062,1.227,0.091,1.816,0.091C9.138,1,9.616,1.048,10.021,1.079
				c0.372,0.062,0.62,0.092,0.746,0.092c0.061,0,0.34,0.017,0.836,0.048c0.495,0.093,1.04,0.169,1.628,0.232
				c0.559,0.063,1.086,0.14,1.583,0.232c0.495,0.063,0.792,0.094,0.884,0.094h0.139v0.14c0.093,0,0.156,0.063,0.188,0.186
				c0.092,0.125,0.092,0.279,0,0.466c-0.095,0.155-0.312,0.294-0.651,0.417c-0.249,0.062-0.56,0.11-0.932,0.14
				c-0.434,0-0.837,0-1.211,0c-0.403,0-0.759,0-1.069,0c-0.312-0.03-0.481-0.047-0.513-0.047L7.274,2.753H7.181
				c-0.029,0-0.044-0.03-0.047-0.091V3.08c0.186,0,0.465,0.017,0.838,0.047c0.401,0,0.807,0.032,1.21,0.095
				c0.433,0.03,0.822,0.076,1.163,0.138c0.374,0,0.622,0.016,0.746,0.047c0.093,0,0.728,0,1.909,0c1.21,0,2.654,0,4.328,0
				c1.739,0,3.601,0,5.587,0c1.955,0,3.799,0,5.538,0c0-0.031,0-0.155,0-0.373c0-0.186,0.029-0.371,0.093-0.558
				c0.03-0.248,0.062-0.496,0.092-0.747h0.095c0.155-0.029,0.418-0.06,0.791-0.09c0.311,0,0.621,0,0.933,0c0.309,0,0.588,0,0.835,0
				c0.282,0.03,0.45,0.074,0.514,0.139c0.093,0.093,0.217,0.264,0.373,0.512c0.122,0.28,0.232,0.512,0.324,0.697h4.701
				c0-0.091,0-0.171,0-0.233c0-0.124,0.032-0.248,0.093-0.372c0-0.124,0.016-0.248,0.047-0.372h0.095
				c0.154-0.063,0.387-0.154,0.698-0.282c0.247-0.124,0.544-0.231,0.885-0.322c0.247-0.125,0.509-0.203,0.791-0.236
				c0.279-0.061,0.481-0.061,0.605,0c0.31,0.127,0.497,0.28,0.559,0.468c0.091,0.185,0.139,0.309,0.139,0.372v3.119l0.466,0.418
				h2.562L44.465,6.059z M26.125,15.183h3.537c0.312,0,0.56-0.094,0.747-0.281c0.216-0.184,0.324-0.431,0.324-0.745v-0.559
				c0-0.311-0.108-0.558-0.324-0.745c-0.187-0.185-0.435-0.278-0.747-0.278h-3.537c-0.311,0-0.573,0.093-0.792,0.278
				c-0.249,0.188-0.373,0.435-0.373,0.745v0.559c0,0.313,0.124,0.561,0.373,0.745C25.553,15.089,25.814,15.183,26.125,15.183z
				 M3.784,3.221c-0.248,0-0.436,0-0.559,0C3.163,3.313,3.133,3.454,3.133,3.638c0,0.217,0,0.436,0,0.651
				c0,0.373,0.013,0.793,0.044,1.257c0.032,0.466,0.078,1.009,0.14,1.629c0.124-0.807,0.31-1.582,0.56-2.327
				c0.217-0.712,0.371-1.211,0.464-1.49C4.157,3.267,3.969,3.221,3.784,3.221z"/>
</svg>
