<?xml version="1.0"?>
<svg width="41" height="42" viewBox="0 0 41 42" fill="none" xmlns="http://www.w3.org/2000/svg">
  <path fill-rule="evenodd" clip-rule="evenodd" d="M18.968 0.666687C9.32085 0.666687 1.41741 8.09258 0.666504 17.5294L10.5096 21.5923C11.3435 21.0229 12.351 20.6903 13.435 20.6903C13.5322 20.6903 13.6288 20.6927 13.7247 20.698L18.1025 14.3645C18.1025 14.3494 18.1023 14.3344 18.1021 14.3195L18.1019 14.3042L18.1018 14.2751C18.1018 10.4627 21.2084 7.36062 25.0277 7.36062C28.847 7.36062 31.9539 10.4627 31.9539 14.2751C31.9539 18.0873 28.847 21.1896 25.0277 21.1896C24.9749 21.1896 24.9231 21.1881 24.8708 21.1865L18.6275 25.6337C18.6308 25.7153 18.6337 25.7974 18.6337 25.8795C18.6337 28.7416 16.3016 31.0693 13.435 31.0693C10.9191 31.0693 8.815 29.2763 8.33822 26.9019L1.29907 23.9966C3.47854 31.6921 10.5608 37.3334 18.968 37.3334C20.3531 37.3334 21.7024 37.1803 22.9998 36.8902V28C22.9998 27.4477 23.4476 27 23.9998 27H35.4971C36.6734 24.5825 37.3332 21.8683 37.3332 19.0002C37.333 8.87433 29.1107 0.666687 18.968 0.666687ZM12.1753 28.4843L9.91926 27.5542C10.3192 28.3856 11.0105 29.0806 11.9292 29.4633C13.9139 30.2888 16.2029 29.348 17.0302 27.3656C17.4307 26.4062 17.4337 25.347 17.0361 24.3856C16.6398 23.424 15.8917 22.6733 14.9296 22.2729C13.9753 21.8769 12.953 21.8913 12.0539 22.2294L14.3848 23.1918C15.8492 23.801 16.5412 25.4794 15.9313 26.9408C15.3216 28.4026 13.6395 29.0939 12.1753 28.4843ZM25.028 9.66774C27.5728 9.66774 29.6429 11.7346 29.6429 14.2747C29.6429 16.8149 27.5726 18.8811 25.028 18.8811C22.4833 18.8811 20.4126 16.8149 20.4126 14.2747C20.4126 11.7344 22.4835 9.66774 25.028 9.66774ZM25.0356 10.8063C23.1211 10.8063 21.5687 12.3553 21.5687 14.2667C21.5687 16.1782 23.1211 17.7271 25.0356 17.7272C26.9505 17.7272 28.5025 16.1782 28.5025 14.2667C28.5025 12.3553 26.9504 10.8063 25.0356 10.8063Z" fill="#000F18"/>
  <path d="M30.3335 36.6666V31.3333H27.2859V36.6666H30.3335Z" fill="black"/>
  <path fill-rule="evenodd" clip-rule="evenodd" d="M25 28.6667H39.8571V32.2222H41V35.7778H39.8571V39.3334H25V28.6667ZM26.1429 30H38.7143V38H26.1429V30Z" fill="black"/>
</svg>
