<?xml version="1.0"?>
<svg xmlns="http://www.w3.org/2000/svg" viewBox="0 0 36 36" fill="none">
  <path fill="currentColor" d="M14 16V8C14 6.93913 14.4214 5.92172 15.1716 5.17157C15.9217 4.42143 16.9391 4 18 4C19.0609 4 20.0783 4.42143 20.8284 5.17157C21.5786 5.92172 22 6.93913 22 8V10H26V8C26 5.87827 25.1571 3.84344 23.6569 2.34315C22.1566 0.842855 20.1217 0 18 0C15.8783 0 13.8434 0.842855 12.3431 2.34315C10.8429 3.84344 10 5.87827 10 8V16H6V22C6 25.1826 7.26428 28.2348 9.51472 30.4853C11.7652 32.7357 14.8174 34 18 34C21.1826 34 24.2348 32.7357 26.4853 30.4853C28.7357 28.2348 30 25.1826 30 22V16H14ZM21 26H15V22H21V26Z"/>
</svg>
