<?xml version="1.0"?>
<svg xmlns="http://www.w3.org/2000/svg" viewBox="0 0 36 36" fill="none">
  <path fill="currentColor" fill-rule="evenodd" clip-rule="evenodd" d="M2 0C0.895431 0 0 0.895431 0 2V34C0 35.1046 0.895431 36 2 36H34C35.1046 36 36 35.1046 36 34V2C36 0.895431 35.1046 0 34 0H2ZM14.5176 24.75H17.4516L14.4816 19.98C15.2496 19.644 15.8436 19.152 16.2636 18.504C16.6956 17.856 16.9116 17.046 16.9116 16.074C16.9116 14.838 16.5036 13.878 15.6876 13.194C14.8716 12.498 13.5996 12.15 11.8716 12.15H7.15564V24.75H9.80164V20.502H11.6736H11.9796L14.5176 24.75ZM9.80164 18.234V14.4H11.7096C12.5376 14.4 13.1376 14.556 13.5096 14.868C13.8936 15.168 14.0856 15.624 14.0856 16.236C14.0856 16.86 13.8876 17.352 13.4916 17.712C13.1076 18.06 12.5676 18.234 11.8716 18.234H9.80164ZM27.6539 19.854V12.15H25.2059L19.0319 20.16V21.888H24.9719V24.75H27.6539V21.888H29.4719V19.854H27.6539ZM21.6059 19.854L25.0799 15.3V19.854H21.6059Z"/>
</svg>
