<?xml version="1.0"?>
<svg xmlns="http://www.w3.org/2000/svg" viewBox="0 0 57 45" fill="none">
  <path fill="currentColor" d="M8.132 23.6465H5.225L0.19 10.3465H3.249L6.745 20.4735L10.146 10.3465H13.205L8.132 23.6465ZM25.6895 23.6465H22.5925L19.9135 19.1625H19.5905H17.6145V23.6465H14.8215V10.3465H19.7995C21.6235 10.3465 22.9662 10.7138 23.8275 11.4485C24.6888 12.1705 25.1195 13.1838 25.1195 14.4885C25.1195 15.5145 24.8915 16.3695 24.4355 17.0535C23.9922 17.7375 23.3652 18.2568 22.5545 18.6115L25.6895 23.6465ZM17.6145 12.7215V16.7685H19.7995C20.5342 16.7685 21.1042 16.5848 21.5095 16.2175C21.9275 15.8375 22.1365 15.3182 22.1365 14.6595C22.1365 14.0135 21.9338 13.5322 21.5285 13.2155C21.1358 12.8862 20.5025 12.7215 19.6285 12.7215H17.6145ZM32.7768 16.1035H36.4248V18.1555H32.7768V21.7845H30.6678V18.1555H27.0008V16.1035H30.6678V12.4745H32.7768V16.1035Z"/>
  <mask id="" mask-type="alpha" mask-units="userSpaceOnUse" x="16" y="0" width="41" height="45">
    <rect fill="currentColor" x="30.6709" width="28.0621" height="36.6291" transform="rotate(22.1353 30.6709 0)"/>
  </mask>
  <g mask="">
    <path fill="currentColor" d="M43.86 9.64648H17.3018C17.1351 9.64648 17 9.78157 17 9.94828V25.8623C17 25.9424 17.0318 26.0191 17.0884 26.0757C17.145 26.1323 17.2217 26.1641 17.3018 26.1641H43.86C43.9401 26.1641 44.0168 26.1323 44.0734 26.0757C44.13 26.0191 44.1618 25.9424 44.1618 25.8623V9.94828C44.1618 9.78157 44.0267 9.64648 43.86 9.64648ZM42.6528 24.6551H18.509V11.1555H42.6528V24.6551Z"/>
    <path fill="currentColor" d="M28.0661 27.4272V28.735H23.0743C22.735 28.735 22.4096 28.8698 22.1697 29.1098C21.9297 29.3497 21.7949 29.6751 21.7949 30.0144V30.6463L39.3671 30.6464V30.0144C39.3671 29.6751 39.2323 29.3497 38.9924 29.1097C38.7524 28.8698 38.4271 28.735 38.0877 28.735H33.096V27.4272L28.0661 27.4272Z"/>
  </g>
</svg>
