<?xml version="1.0"?>
<svg xmlns="http://www.w3.org/2000/svg" width="284" height="115" viewBox="0 0 284 115" fill="none">
  <path stroke="currentColor" d="M9.6626 5.79873C9.6626 5.79873 11.523 2.64755 18.3787 1.68422C23.1645 1.01202 43.8783 1.38451 43.8783 1.38451C43.8783 1.38451 46.2947 1.73131 46.2947 2.94726M273.886 5.79873C273.886 5.79873 272.026 2.64755 265.17 1.68422C260.385 1.01202 239.671 1.38451 239.671 1.38451C239.671 1.38451 237.254 1.73131 237.254 2.94726M0.929108 41.5115H13.6253C16.3617 41.5115 18.58 43.7307 18.58 46.4681V65.5884C18.58 69.6765 19.8431 73.6645 22.1965 77.0065L44.2724 108.357C45.0847 109.51 45.5207 110.887 45.5207 112.298M283.033 41.5115H270.337C267.6 41.5115 265.382 43.7307 265.382 46.4681V65.5884C265.382 69.6765 264.119 73.6645 261.766 77.0065L239.69 108.357C238.877 109.51 238.441 110.887 238.441 112.298M54.876 24.9772C54.876 30.2171 50.6328 34.465 45.3986 34.465C40.1643 34.465 35.9211 30.2171 35.9211 24.9772C35.9211 19.7372 40.1643 15.4894 45.3986 15.4894C50.6328 15.4894 54.876 19.7372 54.876 24.9772ZM51.8208 25.1508C51.8208 28.7757 48.8855 31.7143 45.2645 31.7143C41.6435 31.7143 38.7081 28.7757 38.7081 25.1508C38.7081 21.5258 41.6435 18.5872 45.2645 18.5872C48.8855 18.5872 51.8208 21.5258 51.8208 25.1508ZM57.3377 95.8129H55.1651C54.8357 95.8129 54.5663 95.5431 54.5663 95.2135C54.5663 94.8838 54.8357 94.6141 55.1651 94.6141H57.3377C57.667 94.6141 57.9364 94.8838 57.9364 95.2135C57.9407 95.5474 57.6713 95.8129 57.3377 95.8129ZM53.2017 95.8129H51.029C50.6997 95.8129 50.4303 95.5431 50.4303 95.2135C50.4303 94.8838 50.6997 94.6141 51.029 94.6141H53.2017C53.531 94.6141 53.8004 94.8838 53.8004 95.2135C53.8004 95.5474 53.5353 95.8129 53.2017 95.8129ZM49.0663 95.8129H46.8936C46.5643 95.8129 46.2949 95.5431 46.2949 95.2135C46.2949 94.8838 46.5643 94.6141 46.8936 94.6141H49.0663C49.3956 94.6141 49.665 94.8838 49.665 95.2135C49.665 95.5474 49.3956 95.8129 49.0663 95.8129ZM57.3374 89.9087H55.1648C54.8354 89.9087 54.566 89.639 54.566 89.3093C54.566 88.9796 54.8354 88.7099 55.1648 88.7099H57.3374C57.6667 88.7099 57.9361 88.9796 57.9361 89.3093C57.9404 89.639 57.671 89.9087 57.3374 89.9087ZM53.2147 89.9087H51.042C50.7127 89.9087 50.4433 89.639 50.4433 89.3093C50.4433 88.9796 50.7127 88.7099 51.042 88.7099H53.2147C53.544 88.7099 53.8134 88.9796 53.8134 89.3093C53.8134 89.639 53.544 89.9087 53.2147 89.9087ZM49.0874 89.9087H46.9148C46.5855 89.9087 46.3161 89.639 46.3161 89.3093C46.3161 88.9796 46.5855 88.7099 46.9148 88.7099H49.0874C49.4168 88.7099 49.6862 88.9796 49.6862 89.3093C49.6862 89.639 49.421 89.9087 49.0874 89.9087ZM44.9647 89.9087H42.7921C42.4628 89.9087 42.1933 89.639 42.1933 89.3093C42.1933 88.9796 42.4628 88.7099 42.7921 88.7099H44.9647C45.294 88.7099 45.5635 88.9796 45.5635 89.3093C45.5635 89.639 45.294 89.9087 44.9647 89.9087ZM57.3376 92.8586H53.1335C52.8042 92.8586 52.5347 92.5889 52.5347 92.2592C52.5347 91.9296 52.8042 91.6598 53.1335 91.6598H57.3376C57.6669 91.6598 57.9364 91.9296 57.9364 92.2592C57.9406 92.5932 57.6712 92.8586 57.3376 92.8586ZM51.2088 92.8586H49.0362C48.7069 92.8586 48.4374 92.5889 48.4374 92.2592C48.4374 91.9296 48.7069 91.6598 49.0362 91.6598H51.2088C51.5381 91.6598 51.8076 91.9296 51.8076 92.2592C51.8076 92.5932 51.5381 92.8586 51.2088 92.8586ZM46.9875 92.8586H44.8149C44.4856 92.8586 44.2161 92.5889 44.2161 92.2592C44.2161 91.9296 44.4856 91.6598 44.8149 91.6598H46.9875C47.3168 91.6598 47.5863 91.9296 47.5863 92.2592C47.5863 92.5932 47.3168 92.8586 46.9875 92.8586ZM247.963 25.1297C247.963 30.3696 243.719 34.6175 238.485 34.6175C233.251 34.6175 229.008 30.3696 229.008 25.1297C229.008 19.8897 233.251 15.6419 238.485 15.6419C243.719 15.6419 247.963 19.8897 247.963 25.1297ZM245.098 25.1296C245.098 28.7546 242.162 31.6932 238.541 31.6932C234.92 31.6932 231.985 28.7546 231.985 25.1296C231.985 21.5047 234.92 18.5661 238.541 18.5661C242.162 18.5661 245.098 21.5047 245.098 25.1296ZM226.819 95.8129H228.992C229.321 95.8129 229.59 95.5431 229.59 95.2135C229.59 94.8838 229.321 94.6141 228.992 94.6141H226.819C226.49 94.6141 226.22 94.8838 226.22 95.2135C226.22 95.5474 226.485 95.8129 226.819 95.8129ZM230.954 95.8129H233.127C233.456 95.8129 233.726 95.5431 233.726 95.2135C233.726 94.8838 233.456 94.6141 233.127 94.6141H230.954C230.625 94.6141 230.356 94.8838 230.356 95.2135C230.356 95.5474 230.625 95.8129 230.954 95.8129ZM235.094 95.8129H237.267C237.596 95.8129 237.866 95.5431 237.866 95.2135C237.866 94.8838 237.596 94.6141 237.267 94.6141H235.094C234.765 94.6141 234.496 94.8838 234.496 95.2135C234.491 95.5474 234.761 95.8129 235.094 95.8129ZM226.819 89.9087H228.992C229.321 89.9087 229.59 89.639 229.59 89.3093C229.59 88.9796 229.321 88.7099 228.992 88.7099H226.819C226.49 88.7099 226.22 88.9796 226.22 89.3093C226.22 89.639 226.485 89.9087 226.819 89.9087ZM230.942 89.9087H233.114C233.444 89.9087 233.713 89.639 233.713 89.3093C233.713 88.9796 233.444 88.7099 233.114 88.7099H230.942C230.612 88.7099 230.343 88.9796 230.343 89.3093C230.343 89.639 230.612 89.9087 230.942 89.9087ZM235.069 89.9087H237.242C237.571 89.9087 237.84 89.639 237.84 89.3093C237.84 88.9796 237.571 88.7099 237.242 88.7099H235.069C234.74 88.7099 234.47 88.9796 234.47 89.3093C234.47 89.639 234.74 89.9087 235.069 89.9087ZM239.196 89.9087H241.369C241.698 89.9087 241.967 89.639 241.967 89.3093C241.967 88.9796 241.698 88.7099 241.369 88.7099H239.196C238.867 88.7099 238.597 88.9796 238.597 89.3093C238.597 89.639 238.862 89.9087 239.196 89.9087ZM226.819 92.8586H231.023C231.352 92.8586 231.622 92.5889 231.622 92.2592C231.622 91.9295 231.352 91.6598 231.023 91.6598H226.819C226.49 91.6598 226.22 91.9295 226.22 92.2592C226.22 92.5932 226.485 92.8586 226.819 92.8586ZM232.952 92.8586H235.124C235.454 92.8586 235.723 92.5889 235.723 92.2592C235.723 91.9295 235.454 91.6598 235.124 91.6598H232.952C232.623 91.6598 232.353 91.9295 232.353 92.2592C232.349 92.5932 232.618 92.8586 232.952 92.8586ZM237.173 92.8586H239.346C239.675 92.8586 239.944 92.5889 239.944 92.2592C239.944 91.9295 239.675 91.6598 239.346 91.6598H237.173C236.844 91.6598 236.574 91.9295 236.574 92.2592C236.574 92.5932 236.84 92.8586 237.173 92.8586ZM222.442 108.21H61.3939C60.8337 108.21 60.3846 107.756 60.3846 107.199V8.61323C60.3846 8.05236 60.8379 7.6028 61.3939 7.6028H222.437C222.998 7.6028 223.447 8.05664 223.447 8.61323V107.199C223.451 107.756 222.998 108.21 222.442 108.21ZM70.9132 13.3844H213.375V102.424H70.9132V13.3844Z" stroke-width="0.648402" stroke-miterlimit="10"/>
  <path stroke="currentColor" d="M1.30011 38.5679C1.13093 23.5474 1.04634 16.0371 4.82481 10.7597C6.04452 9.05617 7.52649 7.55681 9.21553 6.31749C14.4479 2.4783 21.9556 2.4783 36.9711 2.4783H247.23C262.245 2.4783 269.753 2.4783 274.985 6.31749C276.674 7.55681 278.156 9.05617 279.376 10.7597C283.155 16.0371 283.07 23.5474 282.901 38.5679L282.615 63.9354C282.387 84.1705 282.273 94.288 277.061 101.364C275.377 103.65 273.346 105.659 271.041 107.318C263.91 112.453 253.796 112.453 233.567 112.453H50.6335C30.4052 112.453 20.291 112.453 13.1595 107.318C10.8553 105.659 8.8243 103.65 7.14012 101.364C1.92769 94.288 1.81374 84.1705 1.58583 63.9354L1.30011 38.5679Z" stroke-width="1.94521"/>
  <path stroke="currentColor" opacity="0.3" d="M283.033 27.5711L282.076 22.3397C280.298 12.6295 271.84 5.57618 261.972 5.57618H21.9902C12.1224 5.57618 3.66381 12.6295 1.88658 22.3397L0.929108 27.5711M58.4031 25.1859C58.4031 32.4231 52.5385 38.2901 45.3041 38.2901C38.0698 38.2901 32.2052 32.4231 32.2052 25.1859C32.2052 17.9487 38.0698 12.0817 45.3041 12.0817C52.5385 12.0817 58.4031 17.9487 58.4031 25.1859ZM251.633 25.1074C251.633 32.3446 245.769 38.2116 238.534 38.2116C231.3 38.2116 225.436 32.3446 225.436 25.1074C225.436 17.8701 231.3 12.0032 238.534 12.0032C245.769 12.0032 251.633 17.8701 251.633 25.1074Z" stroke-width="0.648402" stroke-miterlimit="10"/>
  <path onClick="" stroke="currentColor" fill="" d="M53.4199 71.2842H31.2446C29.1318 71.2842 27.4211 69.5716 27.4211 67.4565V45.2613C27.4211 43.1462 29.1318 41.4336 31.2446 41.4336H53.4156C55.5283 41.4336 57.239 43.1462 57.239 45.2613V67.4565C57.2433 69.5716 55.5283 71.2842 53.4199 71.2842Z" stroke-width="0.648402" stroke-miterlimit="10"/>
  <path onClick="" stroke="currentColor" fill="" d="M230.741 71.2842H252.912C255.025 71.2842 256.735 69.5716 256.735 67.4565V45.2613C256.735 43.1462 255.025 41.4336 252.912 41.4336H230.741C228.628 41.4336 226.917 43.1462 226.917 45.2613V67.4565C226.917 69.5716 228.628 71.2842 230.741 71.2842Z" stroke-width="0.648402" stroke-miterlimit="10"/>
  <path onClick="" fill="" d="M266.156 16.4187C268.465 16.4187 270.337 14.5463 270.337 12.2366C270.337 9.92688 268.465 8.05447 266.156 8.05447C263.848 8.05447 261.976 9.92688 261.976 12.2366C261.976 14.5463 263.848 16.4187 266.156 16.4187Z"/>
  <path onClick="" fill="" d="M266.156 33.0058C268.465 33.0058 270.337 31.1334 270.337 28.8237C270.337 26.514 268.465 24.6416 266.156 24.6416C263.848 24.6416 261.976 26.514 261.976 28.8237C261.976 31.1334 263.848 33.0058 266.156 33.0058Z"/>
  <path onClick="" fill="" d="M274.361 24.783C276.67 24.783 278.542 22.9106 278.542 20.6009C278.542 18.2911 276.67 16.4187 274.361 16.4187C272.052 16.4187 270.181 18.2911 270.181 20.6009C270.181 22.9106 272.052 24.783 274.361 24.783Z"/>
  <path onClick="" fill="" d="M257.795 24.783C260.104 24.783 261.976 22.9106 261.976 20.6009C261.976 18.2911 260.104 16.4187 257.795 16.4187C255.487 16.4187 253.615 18.2911 253.615 20.6009C253.615 22.9106 255.487 24.783 257.795 24.783Z"/>
  <path stroke="currentColor" d="M266.156 16.4187C268.465 16.4187 270.337 14.5463 270.337 12.2366C270.337 9.92688 268.465 8.05447 266.156 8.05447C263.848 8.05447 261.976 9.92688 261.976 12.2366C261.976 14.5463 263.848 16.4187 266.156 16.4187Z" stroke-width="0.648402" stroke-miterlimit="10"/>
  <path stroke="currentColor" d="M266.156 33.0058C268.465 33.0058 270.337 31.1334 270.337 28.8237C270.337 26.514 268.465 24.6416 266.156 24.6416C263.848 24.6416 261.976 26.514 261.976 28.8237C261.976 31.1334 263.848 33.0058 266.156 33.0058Z" stroke-width="0.648402" stroke-miterlimit="10"/>
  <path stroke="currentColor" d="M274.361 24.783C276.67 24.783 278.542 22.9106 278.542 20.6009C278.542 18.2911 276.67 16.4187 274.361 16.4187C272.052 16.4187 270.181 18.2911 270.181 20.6009C270.181 22.9106 272.052 24.783 274.361 24.783Z" stroke-width="0.648402" stroke-miterlimit="10"/>
  <path stroke="currentColor" d="M257.795 24.783C260.104 24.783 261.976 22.9106 261.976 20.6009C261.976 18.2911 260.104 16.4187 257.795 16.4187C255.487 16.4187 253.615 18.2911 253.615 20.6009C253.615 22.9106 255.487 24.783 257.795 24.783Z" stroke-width="0.648402" stroke-miterlimit="10"/>
  <path onClick="" stroke="currentColor" fill="" d="M36.0526 11.1341H31.5286C30.5064 11.1341 29.681 10.3035 29.681 9.2845C29.681 8.26123 30.5107 7.4349 31.5286 7.4349H33.7906H36.0526C37.0748 7.4349 37.9002 8.26551 37.9002 9.2845C37.9045 10.3035 37.0748 11.1341 36.0526 11.1341Z" stroke-width="0.648402" stroke-miterlimit="10"/>
  <path stroke="currentColor" fill="" d="M15.1736 11.0589C15.1736 10.7483 15.3815 10.4761 15.6811 10.3943C17.579 9.87651 19.5809 9.87651 21.4788 10.3943C21.7784 10.4761 21.9863 10.7483 21.9863 11.0589V15.7992C21.9863 16.4835 22.5408 17.0383 23.2249 17.0383H27.9633C28.2738 17.0383 28.5459 17.2462 28.6276 17.5459C29.1452 19.4446 29.1452 21.4473 28.6276 23.346C28.5459 23.6457 28.2738 23.8536 27.9633 23.8536H23.2249C22.5408 23.8536 21.9863 24.4084 21.9863 25.0928V29.833C21.9863 30.1437 21.7784 30.4159 21.4788 30.4976C19.5809 31.0154 17.579 31.0154 15.6811 30.4976C15.3815 30.4159 15.1736 30.1437 15.1736 29.833V25.0928C15.1736 24.4084 14.6191 23.8536 13.935 23.8536H9.19665C8.88613 23.8536 8.61402 23.6457 8.53232 23.346C8.0147 21.4473 8.0147 19.4446 8.53232 17.5459C8.61402 17.2462 8.88613 17.0383 9.19665 17.0383H13.935C14.6191 17.0383 15.1736 16.4835 15.1736 15.7992V11.0589Z" stroke-miterlimit="10"/>
  <circle onClick="" fill="" cx="238.612" cy="25.2877" r="7.13242"/>
  <circle onClick="" fill="" cx="45.3881" cy="25.2877" r="7.13242"/>
  <path onClick="" stroke="currentColor" fill="" d="M247.103 10.1341H251.628C252.65 10.1341 253.475 9.3035 253.475 8.2845C253.475 7.26123 252.645 6.4349 251.628 6.4349H247.103C246.081 6.4349 245.256 7.26551 245.256 8.2845C245.256 9.3035 246.081 10.1341 247.103 10.1341Z" stroke-width="0.648402" stroke-miterlimit="10"/>
  <path stroke="currentColor" fill="" d="M228.915 82.1397H237.833C239.488 82.1397 240.831 80.7953 240.831 79.1383C240.831 77.4814 239.488 76.137 237.833 76.137H228.915C227.26 76.137 225.917 77.4814 225.917 79.1383C225.917 80.7953 227.26 82.1397 228.915 82.1397Z" stroke-width="0.648402" stroke-miterlimit="10"/>
  <path stroke="currentColor" fill="" d="M53.2452 82.1397H44.3281C42.673 82.1397 41.33 80.7953 41.33 79.1383C41.33 77.4814 42.673 76.137 44.3281 76.137H53.2452C54.9004 76.137 56.2433 77.4814 56.2433 79.1383C56.2433 80.7953 54.9004 82.1397 53.2452 82.1397Z" stroke-width="0.648402" stroke-miterlimit="10"/>
</svg>
