<?xml version="1.0"?>
<svg width="61px" height="66px" viewBox="0 0 61 66" fill="none" xmlns="http://www.w3.org/2000/svg">
  <path fill-rule="evenodd" clip-rule="evenodd" d="M58 2H3C2.44772 2 2 2.44772 2 3V49.9671L14.44 40.7192L15.0898 40.2361L15.6975 40.7713L21.5338 45.911L40.422 28.2692L41.1163 27.6207L41.7995 28.2809L59 44.9038V3C59 2.44772 58.5523 2 58 2ZM2 63V52.4592L14.9834 42.8074L20.8927 48.0113L27.4097 53.7505L28.7315 52.2495L23.0419 47.2391L41.0928 30.3793L59 47.6851V63C59 63.5523 58.5523 64 58 64H3C2.44772 64 2 63.5523 2 63ZM3 0C1.34315 0 0 1.34315 0 3V63C0 64.6569 1.34315 66 3 66H58C59.6569 66 61 64.6569 61 63V3C61 1.34315 59.6569 0 58 0H3ZM22.7185 16.2664C22.7185 18.5968 20.8293 20.486 18.4989 20.486C16.1685 20.486 14.2793 18.5968 14.2793 16.2664C14.2793 13.936 16.1685 12.0468 18.4989 12.0468C20.8293 12.0468 22.7185 13.936 22.7185 16.2664ZM24.7185 16.2664C24.7185 19.7014 21.9339 22.486 18.4989 22.486C15.0639 22.486 12.2793 19.7014 12.2793 16.2664C12.2793 12.8314 15.0639 10.0468 18.4989 10.0468C21.9339 10.0468 24.7185 12.8314 24.7185 16.2664Z" fill=""/>
</svg>
