<?xml version="1.0"?>
<svg width="36" height="36" viewBox="0 0 36 36" fill="none" xmlns="http://www.w3.org/2000/svg">
  <path fill-rule="evenodd" clip-rule="evenodd" d="M31.7 15.75C31.703 13.1045 30.94 10.5148 29.5031 8.2936C28.0663 6.07238 26.0171 4.31465 23.603 3.23272C21.189 2.15079 18.5133 1.79092 15.8991 2.19659C13.285 2.60226 10.8442 3.75611 8.87157 5.51878C6.89893 7.28145 5.47882 9.57755 4.78275 12.1298C4.08667 14.682 4.14441 17.3811 4.94899 19.9013C5.75356 22.4214 7.27057 24.6546 9.31678 26.3313C11.363 28.008 13.8509 29.0565 16.48 29.35V35.05L27.31 25.79C28.6947 24.5098 29.7995 22.9569 30.555 21.2291C31.3105 19.5012 31.7003 17.6358 31.7 15.75ZM27 14.572V17.428L24.63 17.86C24.4791 18.3905 24.2677 18.9018 24 19.384L25.374 21.34L23.352 23.362L21.384 22C20.9023 22.2718 20.391 22.4872 19.86 22.642L19.428 25H16.572L16.14 22.63C15.6096 22.4791 15.0982 22.2677 14.616 22L12.648 23.374L10.626 21.352L12 19.384C11.7282 18.9023 11.5128 18.391 11.358 17.86L9 17.428V14.572L11.358 14.14C11.5128 13.609 11.7282 13.0977 12 12.616L10.626 10.648L12.648 8.626L14.616 10C15.0977 9.72818 15.609 9.51276 16.14 9.358L16.572 7H19.428L19.86 9.358C20.391 9.51276 20.9023 9.72818 21.384 10L23.352 8.626L25.362 10.648L24 12.616C24.2718 13.0977 24.4872 13.609 24.642 14.14L27 14.572ZM16.3333 18.4944C16.8266 18.8241 17.4067 19 18 19C18.394 19 18.7841 18.9224 19.1481 18.7716C19.512 18.6209 19.8427 18.3999 20.1213 18.1213C20.3999 17.8427 20.6209 17.512 20.7716 17.1481C20.9224 16.7841 21 16.394 21 16C21 15.4067 20.8241 14.8266 20.4944 14.3333C20.1648 13.8399 19.6962 13.4554 19.1481 13.2284C18.5999 13.0013 17.9967 12.9419 17.4147 13.0576C16.8328 13.1734 16.2982 13.4591 15.8787 13.8787C15.4591 14.2982 15.1734 14.8328 15.0576 15.4147C14.9419 15.9967 15.0013 16.5999 15.2284 17.1481C15.4554 17.6962 15.8399 18.1648 16.3333 18.4944Z" fill="currentColor"/>
</svg>
