<?xml version="1.0"?>
<svg xmlns="http://www.w3.org/2000/svg" viewBox="0 0 36 36" fill="none">
  <g clip-path="">
    <path d="M26.11 7.75003C26.11 7.99003 26.11 8.24003 26.11 8.50003C26.11 16.13 20.34 24.93 9.78 24.93C6.6637 24.9292 3.61429 24.0261 1 22.33C1.45819 22.3819 1.91888 22.4086 2.38 22.41C4.97038 22.4151 7.48647 21.5447 9.52 19.94C8.32676 19.9117 7.17228 19.5108 6.21828 18.7935C5.26429 18.0762 4.55857 17.0785 4.2 15.94C4.58283 16.0085 4.9711 16.042 5.36 16.04C5.91304 16.0351 6.46355 15.9646 7 15.83C5.73131 15.5458 4.60431 14.8214 3.81897 13.7853C3.03364 12.7491 2.64074 11.4683 2.71 10.17V10.09C2.71 10.53 4.06 10.79 5 10.82C4.1783 10.3003 3.49273 9.59167 3.00045 8.75323C2.50818 7.9148 2.22345 6.97083 2.17 6.00003C2.18734 4.98041 2.47366 3.98346 3 3.11003C4.43985 4.88492 6.23748 6.33656 8.27578 7.37035C10.3141 8.40415 12.5473 8.99691 14.83 9.11003C14.7291 8.68069 14.6788 8.24105 14.68 7.80003C14.6774 7.04361 14.8238 6.29408 15.1108 5.59424C15.3978 4.8944 15.8199 4.25795 16.3529 3.72122C16.8859 3.1845 17.5194 2.75802 18.2173 2.46612C18.9151 2.17423 19.6636 2.02265 20.42 2.02003C21.2046 2.01882 21.9809 2.17988 22.7002 2.49308C23.4196 2.80629 24.0664 3.26487 24.6 3.84003C25.8901 3.59358 27.126 3.11953 28.25 2.44003C27.8221 3.77498 26.9274 4.91103 25.73 5.64003C26.8578 5.51142 27.96 5.2148 29 4.76003C28.2214 5.92005 27.2429 6.93246 26.11 7.75003ZM17 30.55L23 33.55C23.0591 34.241 23.3819 34.8828 23.9014 35.3423C24.4209 35.8017 25.0972 36.0437 25.7903 36.018C26.4833 35.9923 27.1399 35.7008 27.6239 35.2041C28.1079 34.7074 28.3822 34.0435 28.39 33.35C28.3869 33.1482 28.3635 32.9472 28.32 32.75L30.87 31C31.2149 31.0993 31.5712 31.1531 31.93 31.16C32.7747 31.166 33.6006 30.9109 34.2948 30.4297C34.989 29.9484 35.5177 29.2645 35.8084 28.4714C36.0992 27.6783 36.1379 26.8147 35.9192 25.9988C35.7006 25.1829 35.2352 24.4544 34.5868 23.913C33.9384 23.3716 33.1386 23.0437 32.2968 22.9741C31.4549 22.9045 30.6121 23.0966 29.8836 23.5242C29.1551 23.9517 28.5765 24.5939 28.2268 25.3628C27.8771 26.1318 27.7734 26.9899 27.93 27.82L26 30.7C25.89 30.7 25.79 30.7 25.67 30.7C25.132 30.6989 24.606 30.8591 24.16 31.16L18.39 28.16L17 30.55Z" fill="currentColor"/>
  </g>
  <defs>
    <clipPath id="">
      <rect fill="currentColor"/>
    </clipPath>
  </defs>
</svg>
