<?xml version="1.0"?>
<svg xmlns="http://www.w3.org/2000/svg" viewBox="0 0 36 36" fill="none">
  <path d="M29.76 22.52C27.9494 22.528 26.2094 21.8177 24.9216 20.5449C23.6338 19.2721 22.9032 17.5406 22.89 15.73C22.892 14.5417 23.2095 13.3753 23.81 12.35L23 6.7C21.1055 5.75439 19.0174 5.26146 16.9 5.26C14.3004 5.25684 11.7523 5.98431 9.54617 7.35944C7.34007 8.73457 5.56483 10.702 4.42292 13.0374C3.28101 15.3727 2.81839 17.982 3.08783 20.5676C3.35727 23.1532 4.34792 25.611 5.94679 27.6607C7.54566 29.7105 9.68839 31.2696 12.1306 32.1604C14.5728 33.0511 17.2162 33.2376 19.7593 32.6985C22.3024 32.1594 24.6428 30.9165 26.5136 29.1115C28.3844 27.3066 29.7102 25.0122 30.34 22.49C30.1473 22.5102 29.9537 22.5202 29.76 22.52ZM18.56 20L12.76 25.53L9.83 22.73L14.41 18.36V11.21H18.56V20ZM27.56 10L26.39 2H33.13L32 10H27.56ZM32.67 15.73C32.6978 16.3011 32.5545 16.8674 32.2583 17.3564C31.9621 17.8455 31.5266 18.2349 31.0076 18.4748C30.4886 18.7147 29.9099 18.7941 29.3454 18.7029C28.781 18.6117 28.2567 18.3539 27.8398 17.9628C27.4228 17.5716 27.1322 17.0648 27.0051 16.5074C26.8781 15.9499 26.9205 15.3672 27.1268 14.834C27.3331 14.3008 27.694 13.8414 28.1631 13.5146C28.6323 13.1878 29.1883 13.0086 29.76 13C30.5004 12.9891 31.2157 13.2688 31.7522 13.7792C32.2888 14.2896 32.6039 14.9899 32.63 15.73H32.67Z" fill="currentColor"/>
</svg>
