<?xml version="1.0"?>
<svg viewBox="0 0 36 36" fill="none" xmlns="http://www.w3.org/2000/svg">
  <g clip-path="">
    <path fill="currentColor" d="M11.2168 10.004C11.2667 10.004 11.3173 10.0048 11.3672 10.007C11.5907 10.0171 11.7075 10.136 11.7139 10.3605V10.5197H11.8965C15.9638 10.5197 20.0313 10.5188 24.0986 10.5226C24.239 10.5226 24.2877 10.4877 24.2861 10.3439C24.2837 10.1215 24.407 10.0095 24.6426 10.0079C25.5809 10.0033 26.5196 9.99799 27.458 10.0021C27.9951 10.0045 28.534 9.99883 29.0683 10.0431C30.1561 10.133 31.1802 10.4534 32.1455 10.965C32.3761 11.0871 32.5061 11.2487 32.4639 11.5187C32.4349 11.7034 32.5097 11.814 32.668 11.9269C34.3326 13.1148 35.399 14.705 35.8115 16.714C36.1472 18.3488 36.0615 19.9547 35.3359 21.4796C34.1526 23.9665 32.214 25.5049 29.4902 26.0021C28.1318 26.2499 26.8154 26.0562 25.5508 25.5109C25.3928 25.4427 25.2679 25.4444 25.1074 25.5246C23.4412 26.358 21.4298 25.8397 20.3681 24.3107C20.3086 24.2249 20.2442 24.1962 20.1426 24.1964C18.7123 24.1994 17.2818 24.2 15.8515 24.1964C15.7425 24.1962 15.6803 24.2342 15.6191 24.3224C14.5809 25.825 12.5275 26.3527 10.8974 25.5314C10.7321 25.4481 10.5977 25.4363 10.4277 25.5109C9.50667 25.9146 8.54336 26.127 7.53514 26.0997C5.65293 26.0489 4.00893 25.3806 2.60643 24.1339C1.39697 23.0585 0.587029 21.7317 0.197251 20.1554C-0.0490111 19.1589 -0.0459867 18.154 0.103501 17.1447C0.327081 15.6367 0.938596 14.308 1.94139 13.1603C2.37813 12.6607 2.87171 12.2238 3.42186 11.8527C3.50003 11.7999 3.52651 11.7413 3.52733 11.6505C3.52983 11.2987 3.69023 11.0423 4.00877 10.882C5.17119 10.2965 6.40354 10.0013 7.70506 10.0001C8.87562 9.99932 10.0462 10.0024 11.2168 10.004ZM12.5498 20.5704C11.7008 20.5706 11.0121 21.2596 11.0117 22.1085C11.0117 22.9578 11.7006 23.6465 12.5498 23.6466C13.399 23.6465 14.0879 22.9578 14.0879 22.1085C14.0874 21.2596 13.3988 20.5706 12.5498 20.5704ZM23.4736 20.5704C22.6246 20.5706 21.936 21.2596 21.9355 22.1085C21.9355 22.9578 22.6244 23.6465 23.4736 23.6466C24.3228 23.6465 25.0117 22.9578 25.0117 22.1085C25.0113 21.2596 24.3226 20.5706 23.4736 20.5704ZM28.6064 17.8507C27.9106 17.8511 27.3461 18.4157 27.3457 19.1115C27.3457 19.8076 27.9103 20.3728 28.6064 20.3732C29.3028 20.3732 29.8681 19.8079 29.8681 19.1115C29.8677 18.4154 29.3025 17.8507 28.6064 17.8507ZM6.7119 13.465C6.53797 13.4652 6.39674 13.6065 6.39647 13.7804V15.3331C6.39645 15.4095 6.33405 15.4707 6.25877 15.4708H4.70604C4.53211 15.471 4.39093 15.6124 4.39061 15.7863V17.1974C4.39084 17.3714 4.53205 17.5117 4.70604 17.5119H6.25877C6.33487 17.512 6.39602 17.5746 6.39647 17.6496V19.2033C6.39665 19.3773 6.53791 19.5185 6.7119 19.5187H8.12303C8.29688 19.5183 8.43731 19.3772 8.43748 19.2033V17.6496C8.43793 17.5736 8.50031 17.5122 8.57518 17.5119H10.1289C10.3027 17.5115 10.4441 17.3713 10.4443 17.1974V15.7863C10.444 15.6125 10.3027 15.4712 10.1289 15.4708H8.57518C8.50006 15.4705 8.4375 15.4094 8.43748 15.3331V13.7804C8.43721 13.6066 8.29682 13.4654 8.12303 13.465H6.7119ZM25.5478 15.2316C24.8521 15.2321 24.2875 15.7966 24.2871 16.4923C24.2871 17.1884 24.8519 17.7536 25.5478 17.754C26.2442 17.754 26.8095 17.1887 26.8096 16.4923C26.8091 15.7963 26.244 15.2316 25.5478 15.2316ZM31.667 15.2316C30.9711 15.2319 30.4067 15.7965 30.4062 16.4923C30.4063 17.1885 30.9709 17.7537 31.667 17.754C32.3633 17.7539 32.9287 17.1886 32.9287 16.4923C32.9283 15.7964 32.363 15.2317 31.667 15.2316ZM28.6064 12.5988C27.9106 12.5991 27.3461 13.1637 27.3457 13.8595C27.3458 14.5556 27.9104 15.1209 28.6064 15.1212C29.3027 15.1212 29.868 14.5558 29.8681 13.8595C29.8677 13.1635 29.3025 12.5988 28.6064 12.5988Z"/>
  </g>
  <defs>
    <clipPath id="">
      <rect fill="currentColor" width="36" height="36"/>
    </clipPath>
  </defs>
</svg>
