<?xml version="1.0"?>
<svg xmlns="http://www.w3.org/2000/svg" viewBox="0 0 322 68" fill="none">
  <path fill="currentColor" fill-rule="evenodd" clip-rule="evenodd" d="M14.3752 2.2025C12.7033 3.87437 9.35952 10.5619 9.35952 10.5619C7.68762 15.5775 2.67204 30.6244 1.00016 50.6869C1.00016 50.6869 -0.671708 65.7337 11.0314 67.4056C21.3065 68.6899 24.6747 55.1737 26.442 48.0814C26.9752 45.9417 27.3627 44.3869 27.7502 43.9994C28.7546 42.9948 29.7591 42.5938 30.401 42.4339C32.2342 44.4241 34.8623 45.6712 37.7813 45.6712C40.7523 45.6712 43.4217 44.3798 45.2585 42.3275H63.7419C65.5787 44.3798 68.248 45.6712 71.2188 45.6712C74.1381 45.6712 76.7661 44.4241 78.5994 42.4339C79.2414 42.5938 80.2457 42.9948 81.2503 43.9994C81.6376 44.3869 82.0252 45.9417 82.5584 48.0814C84.3257 55.1737 87.6938 68.6899 97.9691 67.4056C109.672 65.7337 108 50.6869 108 50.6869C107.571 45.5363 106.922 40.7163 106.165 36.3117L240.627 36.3117V39.7451L265.805 39.7451V46.612L294.417 46.612V43.7507H321.312V20.8611H294.417V18H265.805L265.805 24.8669H240.627V28.3003L104.59 28.3003C102.684 19.69 100.606 13.456 99.641 10.5619C99.641 10.5619 96.2972 3.8744 94.625 2.2025C94.499 2.07641 94.3064 1.96932 94.0579 1.87915C92.5269 1.08295 87.9684 -0.813033 81.25 0.53062C80.6918 1.08907 80.3197 1.64752 80.0721 2.14368C79.7556 2.18035 79.5785 2.20252 79.5785 2.20252L77.9066 3.87437L72.8907 3.8744V17.2494C72.8907 19.096 71.3938 20.5931 69.5469 20.5931H39.4532C37.6065 20.5931 36.1094 19.096 36.1094 17.2494V3.8744L31.0938 3.87434L29.4221 2.2025C29.4221 2.2025 29.2447 2.18032 28.9282 2.14365C28.6805 1.64752 28.3086 1.08907 27.7502 0.53062C21.0319 -0.813033 16.4733 1.08295 14.9424 1.87915C14.694 1.96932 14.5013 2.07644 14.3752 2.2025ZM105.964 35.1672C105.606 33.1667 105.228 31.2565 104.839 29.4448L239.482 29.4448V35.1672L105.964 35.1672ZM43.8 33.9681C43.8 37.6617 40.8061 40.6556 37.1125 40.6556C33.4192 40.6556 30.4252 37.6617 30.4252 33.9681C30.4252 30.2748 33.4192 27.2806 37.1125 27.2806C40.8061 27.2806 43.8 30.2748 43.8 33.9681ZM71.2188 40.6556C74.9124 40.6556 77.9063 37.6617 77.9063 33.9681C77.9063 30.2748 74.9124 27.2806 71.2188 27.2806C67.5255 27.2806 64.5313 30.2748 64.5313 33.9681C64.5313 37.6617 67.5255 40.6556 71.2188 40.6556ZM91.2813 12.2337C91.2813 14.0804 89.7845 15.5775 87.9375 15.5775C86.0909 15.5775 84.5938 14.0804 84.5938 12.2337C84.5938 10.3871 86.0909 8.89003 87.9375 8.89003C89.7845 8.89003 91.2813 10.3871 91.2813 12.2337ZM87.9375 30.6244C89.7845 30.6244 91.2813 29.1273 91.2813 27.2806C91.2813 25.434 89.7845 23.9369 87.9375 23.9369C86.0909 23.9369 84.5938 25.434 84.5938 27.2806C84.5938 29.1273 86.0909 30.6244 87.9375 30.6244ZM80.4142 16.4136C82.2609 16.4136 83.758 17.9104 83.758 19.7573C83.758 21.604 82.2609 23.1011 80.4142 23.1011C78.5676 23.1011 77.0705 21.604 77.0705 19.7573C77.0705 17.9104 78.5676 16.4136 80.4142 16.4136ZM98.8049 19.7573C98.8049 17.9104 97.3078 16.4136 95.4611 16.4136C93.6145 16.4136 92.1174 17.9104 92.1174 19.7573C92.1174 21.604 93.6145 23.1011 95.4611 23.1011C97.3078 23.1011 98.8049 21.604 98.8049 19.7573ZM17.7189 12.048C17.7189 11.2274 18.3843 10.5619 19.205 10.5619H22.9203C23.7411 10.5619 24.4064 11.2274 24.4064 12.048V14.962C24.4064 15.3561 24.2499 15.7341 23.9711 16.0129L22.1135 17.8706C21.5331 18.4507 20.5922 18.4507 20.0118 17.8706L18.1542 16.0129C17.8755 15.7341 17.7189 15.3561 17.7189 14.962V12.048ZM19.205 28.9525C18.3843 28.9525 17.7189 28.2873 17.7189 27.4664V24.5524C17.7189 24.1583 17.8755 23.7802 18.1542 23.5017L20.0118 21.6441C20.5922 21.0636 21.5331 21.0636 22.1135 21.6441L23.9711 23.5017C24.2499 23.7802 24.4064 24.1583 24.4064 24.5524V27.4664C24.4064 28.2873 23.7411 28.9525 22.9203 28.9525H19.205ZM13.3535 23.1011C12.5327 23.1011 11.8674 22.4356 11.8674 21.615V17.8997C11.8674 17.0788 12.5327 16.4136 13.3535 16.4136H16.2674C16.6616 16.4136 17.0396 16.5699 17.3182 16.8487L19.1759 18.7064C19.7563 19.2868 19.7563 20.2278 19.1759 20.808L17.3182 22.6657C17.0396 22.9445 16.6616 23.1011 16.2674 23.1011H13.3535ZM30.258 21.615C30.258 22.4356 29.5926 23.1011 28.7719 23.1011H25.8579C25.4638 23.1011 25.0858 22.9445 24.8071 22.6657L22.9494 20.808C22.3691 20.2278 22.3691 19.2868 22.9494 18.7064L24.8071 16.8487C25.0858 16.5699 25.4638 16.4136 25.8579 16.4136H28.7719C29.5926 16.4136 30.258 17.0788 30.258 17.8997V21.615ZM69.5483 3.87378H39.4546V17.2487H69.5483V3.87378ZM241.771 26.0114V38.6006H264.661V26.0114H241.771ZM266.95 19.1445V45.4675H293.273V19.1445L266.95 19.1445ZM309.868 25.439H305.29V30.0169H309.868V25.439ZM309.868 34.5948H305.29V39.1728H309.868V34.5948Z"/>
</svg>
