<?xml version="1.0"?>
<svg xmlns="http://www.w3.org/2000/svg" version="1.1" id="Layer_1" x="0px" y="0px" viewBox="0 0 36 36">
  <path fill="currentColor" opacity="0.5" d="M4.7,25.2c0.5-1.7,1.2-3.4,1.8-4.5c0.9-1.6,2.4-3.3,3.5-4.5c0.9-1,1.4-2.4,1.1-3.8l-0.7-3.8  c-0.1-0.4,0-0.7,0.3-0.9l0,0c-0.4,0-0.8,0.1-1.1,0.1V7.3c0,0,0-0.6-1.7-0.6c-1.3,0-2.6,0.7-3.1,1C4.6,7.8,4.5,8,4.5,8.2v0.6  C4.3,8.9,4.1,8.9,3.9,9C2.8,9.6,0,18,0,23.1c0,2.7,0.5,4.6,0.9,5.8c0.2,0.6,0.7,1.1,1.2,1.4l0.1,0c0.5,0.2,1-0.1,1.1-0.6  C3.7,28.6,4.1,26.9,4.7,25.2z M7.9,16.3c0,0.3-0.3,0.6-0.6,0.6H6.2c-0.3,0-0.6-0.3-0.6-0.6v-0.9c0-0.1,0.1-0.3,0.2-0.4l0.6-0.6  c0.2-0.2,0.6-0.2,0.8,0L7.7,15c0.1,0.1,0.2,0.2,0.2,0.4V16.3z M9,9.1c0.3-0.1,0.6,0,0.8,0.3l0.3,0.6c0.1,0.3,0,0.6-0.3,0.8  c-0.3,0.1-0.6,0-0.8-0.3L8.8,9.8C8.6,9.5,8.8,9.2,9,9.1z M8,12.8c0.1-0.1,0.2-0.2,0.4-0.2h0.9c0.3,0,0.6,0.3,0.6,0.6v1.1  c0,0.3-0.3,0.6-0.6,0.6H8.4c-0.1,0-0.3-0.1-0.4-0.2l-0.6-0.6c-0.2-0.2-0.2-0.6,0-0.8L8,12.8z M5.6,11.2c0-0.3,0.3-0.6,0.6-0.6h1.1  c0.3,0,0.6,0.3,0.6,0.6v0.9c0,0.1-0.1,0.3-0.2,0.4l-0.6,0.6c-0.2,0.2-0.6,0.2-0.8,0l-0.6-0.6c-0.1-0.1-0.2-0.2-0.2-0.4V11.2z   M3.7,13.2c0-0.3,0.3-0.6,0.6-0.6h0.9c0.1,0,0.3,0.1,0.4,0.2l0.6,0.6c0.2,0.2,0.2,0.6,0,0.8l-0.6,0.6c-0.1,0.1-0.2,0.2-0.4,0.2H4.2  c-0.3,0-0.6-0.3-0.6-0.6V13.2z"/>
  <path fill="currentColor" d="M23.8,13.5l0.6-2l0.5-3c0-0.2,0-0.3-0.1-0.4c-0.1-0.1-0.4-0.3-0.7-0.4c-0.1,0-0.2-0.1-0.3-0.1c-1.7-0.1-3.7-0.2-5.9-0.2v7.6  h4C22.8,14.9,23.6,14.3,23.8,13.5z"/>
  <path fill="currentColor" opacity="0.5" d="M12,7.5c-0.1,0-0.1,0-0.2,0.1c-0.3,0.1-0.5,0.3-0.7,0.4C11,8.2,11,8.3,11,8.5l0.5,2.9l0.6,2.1  c0.3,0.8,1,1.4,1.9,1.4h4V7.3C15.8,7.3,13.7,7.4,12,7.5z"/>
  <path fill="currentColor" opacity="0.5" d="M14,15.5c-1,0-2-0.6-2.4-1.6c-0.2,1-0.6,1.9-1.3,2.7C9.3,17.8,7.9,19.4,7,21c-0.6,1-1.2,2.7-1.8,4.4  c-0.5,1.7-1,3.4-1.3,4.5c-0.1,0.4-0.3,0.7-0.6,0.8l0,0c1,0.2,2-0.4,2.3-1.3l1.9-4.7c0.5-1.3,1.8-2.1,3.1-2.1H18v-7H14z M12.4,21.4  c-1.2,0-2.2-1-2.2-2.2s1-2.2,2.2-2.2s2.2,1,2.2,2.2S13.6,21.4,12.4,21.4z"/>
  <path fill="currentColor" d="M32.1,29.8c-0.3-1.1-0.7-2.8-1.3-4.5C30.2,23.6,29.6,22,29,21c-0.9-1.5-2.3-3.2-3.4-4.4c-0.7-0.8-1.1-1.7-1.3-2.7  c-0.4,1-1.3,1.6-2.4,1.6h-4v7h7.3c1.4,0,2.6,0.8,3.1,2.1l1.9,4.7c0.4,0.9,1.3,1.5,2.3,1.3l0,0C32.4,30.5,32.2,30.2,32.1,29.8z   M23.6,21.4c-1.2,0-2.2-1-2.2-2.2s1-2.2,2.2-2.2s2.2,1,2.2,2.2S24.9,21.4,23.6,21.4z"/>
  <path fill="currentColor" d="M32.1,9c-0.1-0.1-0.3-0.1-0.6-0.2V8.2c0-0.2-0.1-0.4-0.3-0.5c-0.5-0.3-1.8-1-3.1-1c-1.7,0-1.7,0.6-1.7,0.6v0.5  c-0.4,0-0.8-0.1-1.2-0.1l0,0c0.2,0.2,0.3,0.6,0.3,0.9l-0.5,3l0,0l0,0l-0.1,0.7c-0.2,1.4,0.2,2.8,1.1,3.8c1.1,1.2,2.5,3,3.5,4.5  c0.6,1.1,1.3,2.8,1.8,4.5c0.5,1.7,1,3.4,1.3,4.5c0.1,0.5,0.6,0.8,1.1,0.6l0.1,0c0.5-0.3,1-0.8,1.2-1.4c0.4-1.2,0.9-3.1,0.9-5.8  C36,18,33.2,9.6,32.1,9z M29.2,10.1c0.6,0,1.1,0.5,1.1,1.1s-0.5,1.1-1.1,1.1s-1.1-0.5-1.1-1.1S28.6,10.1,29.2,10.1z M25.9,9.9  l0.3-0.6C26.4,9,26.7,8.9,27,9.1c0.3,0.1,0.4,0.5,0.3,0.8l-0.3,0.6c-0.1,0.3-0.5,0.4-0.8,0.3C25.9,10.5,25.8,10.2,25.9,9.9z   M27,14.6c-0.6,0-1.1-0.5-1.1-1.1s0.5-1.1,1.1-1.1s1.1,0.5,1.1,1.1S27.6,14.6,27,14.6z M29.2,16.9c-0.6,0-1.1-0.5-1.1-1.1  s0.5-1.1,1.1-1.1s1.1,0.5,1.1,1.1S29.9,16.9,29.2,16.9z M31.5,14.6c-0.6,0-1.1-0.5-1.1-1.1s0.5-1.1,1.1-1.1s1.1,0.5,1.1,1.1  S32.1,14.6,31.5,14.6z"/>
</svg>
