<?xml version="1.0"?>
<svg xmlns="http://www.w3.org/2000/svg" width="50" height="50" viewBox="0 0 50 50" fill="none">
  <circle fill="currentColor" cx="25" cy="25" r="1"/>
  <path fill="currentColor" fill-rule="evenodd" clip-rule="evenodd" d="M13.3883 38.0928C13.4125 38.1143 13.4368 38.1357 13.4611 38.157C16.6532 40.9564 20.754 42.4998 24.9997 42.4998C29.2453 42.4998 33.3462 40.9564 36.5382 38.157C36.6637 38.047 36.7875 37.9352 36.9095 37.8219L37.6694 38.4805C37.5148 38.6258 37.3575 38.7686 37.1976 38.9089C33.8231 41.8682 29.4879 43.4998 24.9997 43.4998C20.5114 43.4998 16.1762 41.8682 12.8018 38.9089C12.7494 38.863 12.6973 38.8168 12.6456 38.7703L13.3883 38.0928ZM11.5387 13.8171C12.786 12.3156 14.2713 11.0389 15.9285 10.0344L16.8007 12.1739L20.3409 7.61317L14.6211 6.82764L15.5465 9.0974C13.7397 10.1715 12.1222 11.5497 10.7695 13.1781L11.5387 13.8171ZM38.9224 12.8175L38.1698 13.476C36.9848 12.1216 35.6011 10.962 34.0709 10.0344L33.1986 12.1739L29.6584 7.61318L35.3782 6.82764L34.4529 9.09741C36.1247 10.0913 37.6345 11.3456 38.9224 12.8175Z"/>
</svg>
