<?xml version="1.0"?>
<svg xmlns="http://www.w3.org/2000/svg" viewBox="0 0 92.059 31.75">
  <path fill="currentColor" d="M4.341,19.058c0.28,0.257,0.614,0.387,1.001,0.387
				c0.388,0,0.71-0.13,0.969-0.387c0.28-0.282,0.419-0.615,0.419-1.002c0-0.389-0.14-0.71-0.419-0.97
				c-0.259-0.28-0.582-0.418-0.969-0.418c-0.387,0-0.721,0.138-1.001,0.418c-0.258,0.26-0.388,0.581-0.388,0.97
				C3.954,18.443,4.083,18.776,4.341,19.058z M1.822,15.051c-0.085-0.106-0.204-0.161-0.355-0.161c-0.15,0-0.279,0.055-0.388,0.161
				c-0.107,0.109-0.162,0.239-0.162,0.39s0.054,0.277,0.162,0.387c0.108,0.107,0.237,0.162,0.388,0.162
				c0.151,0,0.27-0.055,0.355-0.162c0.108-0.109,0.162-0.236,0.162-0.387S1.93,15.161,1.822,15.051z M36.121,15.311
				c-0.28-0.279-0.615-0.421-1.001-0.421c-0.388,0-0.711,0.142-0.969,0.421c-0.279,0.257-0.419,0.582-0.419,0.97
				s0.14,0.72,0.419,1.002c0.258,0.257,0.582,0.385,0.969,0.385c0.387,0,0.722-0.128,1.001-0.385
				c0.257-0.282,0.387-0.614,0.387-1.002S36.378,15.568,36.121,15.311z M67.996,14.988c0.108-0.13,0.161-0.269,0.161-0.421
				c0-0.171-0.053-0.323-0.161-0.451c-0.129-0.106-0.269-0.173-0.421-0.193l-16.631-0.517c-0.28,0.021-0.529,0.139-0.743,0.354
				c-0.258,0.237-0.388,0.526-0.388,0.872c0,0.323,0.129,0.604,0.388,0.839c0.214,0.215,0.463,0.334,0.743,0.356l16.631-0.646
				C67.727,15.161,67.867,15.097,67.996,14.988z M90.344,12.017l-8.364,8.332c-7.277,2.714-14.974,3.466-23.092,2.26
				c-0.065-0.063-0.14-0.129-0.226-0.193c-0.172-0.15-0.333-0.237-0.484-0.257c-0.172,0-0.334,0.041-0.484,0.129
				c-0.086,0.041-0.162,0.085-0.227,0.128c-0.021-0.063-0.064-0.115-0.129-0.161c-0.129-0.131-0.258-0.194-0.387-0.194
				c-0.108,0-0.195,0.044-0.259,0.128c-0.021,0.043-0.042,0.086-0.063,0.132c-0.022-0.065-0.055-0.12-0.098-0.161
				c-0.085-0.13-0.193-0.194-0.322-0.194c-0.108,0-0.194,0.044-0.259,0.128c-0.043,0.044-0.064,0.086-0.064,0.13
				c-0.065-0.063-0.152-0.13-0.259-0.193c-0.215-0.15-0.409-0.226-0.582-0.226c-0.172,0-0.301,0.052-0.387,0.161
				c-0.065,0.044-0.097,0.096-0.097,0.159c-0.043-0.042-0.096-0.095-0.162-0.159c-0.108-0.109-0.226-0.161-0.355-0.161
				c-0.107,0-0.183,0.052-0.226,0.161c-0.021,0.064-0.032,0.117-0.032,0.159c-0.022-0.042-0.055-0.095-0.098-0.159
				c-0.085-0.109-0.183-0.161-0.291-0.161s-0.182,0.052-0.225,0.161c-0.044,0.064-0.065,0.117-0.065,0.159
				c-0.043-0.042-0.097-0.086-0.162-0.127c-0.171-0.109-0.354-0.161-0.548-0.161c-0.194,0.02-0.345,0.096-0.453,0.225
				c-0.064,0.063-0.107,0.128-0.129,0.194c-0.021-0.044-0.053-0.087-0.096-0.131c-0.108-0.086-0.216-0.115-0.323-0.095
				c-0.108,0.021-0.173,0.095-0.195,0.226c-0.021,0.065-0.032,0.129-0.032,0.192c-0.043-0.042-0.086-0.083-0.129-0.127
				c-0.129-0.046-0.237-0.055-0.324-0.032c-0.085,0.041-0.14,0.128-0.161,0.258c0,0.063,0,0.129,0,0.193
				c-0.064-0.043-0.151-0.075-0.259-0.098c-0.194-0.041-0.387-0.021-0.582,0.065c-0.171,0.085-0.278,0.215-0.322,0.388
				c-0.043,0.109-0.053,0.193-0.032,0.26l-0.291,0.161c-0.215-0.282-0.462-0.551-0.743-0.809c-0.581-0.539-1.065-0.721-1.453-0.548
				c-0.409,0.15-0.7,0.548-0.872,1.195c-0.087,0.32-0.129,0.632-0.129,0.936h-1.292c-0.108-0.711-0.398-0.853-0.872-0.42
				l-0.485-0.195c-0.043-0.71-0.355-0.86-0.937-0.451l-0.419-0.195c-0.086-0.664-0.398-0.806-0.937-0.419l-0.485-0.129
				c-0.043-0.645-0.355-0.784-0.936-0.42c-0.539-0.236-1.184-0.474-1.938-0.71c-1.529-0.453-2.82-0.646-3.876-0.582
				c-1.098,0.065-2.421,0.368-3.971,0.905c-1.357,0.537-2.11,0.807-2.261,0.807c-0.302,0.021-0.797-0.075-1.486-0.292
				c-1.378-0.428-2.163-0.667-2.357-0.711c-2.454-0.667-4.952-0.881-7.493-0.644c-1.615,0.13-4.124,0.644-7.525,1.55
				c-3.166,0.884-4.845,1.334-5.039,1.357c-0.259,0.043-0.56,0.063-0.903,0.063L2.21,23.772l-0.776-1.163l-0.193-3.294
				c-0.172-0.321-0.344-0.71-0.516-1.16c-0.345-0.906-0.496-1.683-0.452-2.327c0.021-0.754,0.495-1.303,1.421-1.648
				c0.452-0.17,0.904-0.279,1.356-0.323c0-0.063,0.076-0.182,0.226-0.355c0.216-0.279,1.356-0.654,3.423-1.128
				c2.37-0.56,5.006-1.003,7.913-1.325c2.647-0.323,5.457-0.493,8.428-0.517c1.486-0.021,2.712-0.012,3.682,0.032
				c1.399,0.065,2.681,0.236,3.843,0.519c0.581,0.128,1.012,0.257,1.291,0.387l1.809,0.128l0.097,0.259
				c0.108,0.172,0.258,0.271,0.453,0.292c0.192,0,0.332-0.087,0.42-0.26l0.064-0.226l0.613,0.064l0.13,0.225
				c0.085,0.15,0.215,0.226,0.386,0.226c0.173,0,0.302-0.063,0.389-0.193l0.065-0.225h0.613l0.162,0.225
				c0.151,0.153,0.313,0.217,0.484,0.193c0.151-0.021,0.27-0.107,0.355-0.257l0.064-0.258l0.582-0.098l0.226,0.162
				c0.151,0.106,0.302,0.141,0.452,0.098c0.129-0.046,0.216-0.173,0.258-0.387v-0.26l0.453-0.162l0.259,0.13
				c0.215,0.064,0.376,0.075,0.485,0.032c0.107-0.066,0.17-0.194,0.192-0.387l-0.032-0.26l0.452-0.258l0.291,0.064
				c0.215,0.043,0.376,0.031,0.484-0.032c0.107-0.065,0.15-0.193,0.129-0.389l-0.064-0.289l1.066-0.549l0.162,0.354
				c0.193,0.28,0.419,0.505,0.677,0.679c0.281,0.171,0.615,0.301,1.001,0.388c0.195,0.042,0.367,0.063,0.517,0.063l19.087-0.419
				l1.615,0.903c1.271,0.667,2.368,1.195,3.294,1.582c1.851,0.733,3.003,0.667,3.455-0.191c0.151-0.262-0.042-0.701-0.581-1.327
				l-0.872-0.871C77.813,10.413,84.079,11.004,90.344,12.017z"/>
</svg>
