<?xml version="1.0"?>
<svg xmlns="http://www.w3.org/2000/svg" viewBox="0 0 83.5 32">
  <path fill="currentColor" d="M78.091,3.545c0,0.085,0.072,0.199,0.216,0.342
				c0.113,0.314,0.242,0.728,0.384,1.241c0.085,0.542,0.2,1.068,0.342,1.583v1.368c0.114,0.086,0.186,0.2,0.213,0.341
				c0.03,0.172,0.087,0.343,0.171,0.515h0.257c0.172,0,0.314-0.015,0.427-0.042c0.059,0,0.144,0,0.258,0l2.352,0.042l0.085,0.17
				c0,0.142,0.043,0.284,0.128,0.427c0.084,0.199,0.156,0.415,0.214,0.643c0.057,0.256,0.057,0.485,0,0.684
				c-0.058,0.229-0.2,0.384-0.428,0.47c-0.257,0.113-0.569,0.186-0.941,0.213c-0.313,0.058-0.555,0.086-0.727,0.086
				c-0.028,0-0.171,0.043-0.428,0.128c-0.17,0.029-0.314,0.071-0.427,0.128h-0.255c-0.145,0-0.315-0.044-0.515-0.128
				c0,0.257-0.042,0.485-0.126,0.685c-0.059,0.255-0.244,0.427-0.557,0.513c-0.115,0-0.199,0.014-0.256,0.042
				c-0.029,0.057-0.058,0.086-0.087,0.086l-0.083,0.043v0.726l-0.216,0.685h-0.126c-0.285,0-0.714,0-1.285,0
				c-0.627,0.029-1.054-0.072-1.283-0.299c-0.113,0-0.213,0.058-0.298,0.171l-0.13,0.128h-0.085
				c-0.256,0.029-0.513,0.129-0.77,0.299c-0.228,0.172-0.37,0.341-0.428,0.513c0,0.085,0,0.3,0,0.642
				c0,0.312,0.029,0.698,0.086,1.154c0,0.483,0,1.068,0,1.753c0,0.741,0,1.439,0,2.094c0,0.657,0,1.283,0,1.882
				c-0.029,0.599-0.058,1.099-0.086,1.498c-0.084,0.571-0.155,1.025-0.214,1.367c-0.113,0.313-0.199,0.571-0.256,0.771
				c-0.084,0.17-0.127,0.327-0.127,0.471l-0.128,0.213H72.79c-0.228,0.057-0.613,0.099-1.154,0.129
				c-0.542,0-0.928-0.115-1.155-0.342v-0.086c-0.085-0.114-0.199-0.243-0.342-0.385c-0.143-0.115-0.214-0.329-0.214-0.643
				c-0.057-0.398-0.086-0.655-0.086-0.77v-0.17l-0.171-0.128c0.144-1.767,0.244-3.236,0.299-4.404
				c0.087-1.113,0.143-1.995,0.172-2.652c0.057-0.655,0.128-1.154,0.214-1.497c0.057-0.314,0.099-0.526,0.128-0.641
				c-0.085,0-0.185-0.042-0.3-0.128c-0.056-0.086-0.142-0.186-0.256-0.3L69.71,14.92c-0.057-0.028-0.113-0.058-0.17-0.085
				c-0.028-0.056-0.085-0.086-0.172-0.086c0-0.113-0.084-0.213-0.256-0.3c-0.199-0.142-0.328-0.212-0.385-0.212
				c-0.142,0-0.241-0.029-0.299-0.086c-0.086,0-0.128-0.014-0.128-0.043c-0.029,0-0.057,0-0.085,0l-0.642,0.129
				c-0.027,0-0.086-0.029-0.171-0.086c-0.084,0-0.142-0.014-0.171-0.043c-0.084,0-0.156,0-0.213,0c-0.028,0-0.099,0-0.213,0
				c-0.114,0.03-0.201,0.043-0.257,0.043c-0.144,0.057-0.285,0.086-0.427,0.086h-2.607c0-0.086,0.013-0.215,0.042-0.386
				c0-0.114,0.014-0.257,0.042-0.427c0-0.114,0-0.214,0-0.299c-0.256,0.114-0.641,0.34-1.154,0.684
				c-0.541,0.285-0.898,0.428-1.069,0.428h-1.754c0.058,0.227,0.128,0.542,0.214,0.939c0.086,0.401,0.171,0.826,0.257,1.283
				c0.057,0.514,0.142,1.084,0.256,1.712c-0.114,0-0.199,0.012-0.256,0.042l-0.471,0.257c0,0.086,0.073,0.414,0.214,0.984
				c0.171,0.598,0.357,1.368,0.556,2.308c0.172,0.94,0.385,1.981,0.643,3.122c0.228,1.197,0.499,2.38,0.813,3.549
				c0.131,0.598,0.267,1.211,0.406,1.839c0.021,0.102,0.042,0.201,0.063,0.299c-0.071,0.004-0.141,0.018-0.213,0.043
				c-0.114,0-0.213,0.014-0.3,0.042c-0.114,0.028-0.213,0.043-0.3,0.043c-0.057,0.027-0.127,0.055-0.213,0.084
				c-0.228,0-0.456,0.013-0.684,0.043c-0.114,0-0.215,0.013-0.299,0.043c-0.114,0.028-0.214,0.042-0.3,0.042
				c-0.058,0.03-0.127,0.059-0.213,0.086c-0.428,0-0.87,0.015-1.326,0.043c-0.113,0-0.214,0.016-0.298,0.042
				c-0.115,0.028-0.215,0.043-0.3,0.043c-0.058,0.028-0.129,0.057-0.215,0.084c-0.242,0-0.484,0-0.726,0l-0.213-0.897
				c-0.004-0.014-0.004-0.027,0-0.042c-0.288-1.353-0.589-2.65-0.899-3.891c-0.284-1.313-0.569-2.494-0.854-3.55
				c-0.201-1.055-0.385-1.894-0.557-2.522c-0.172-0.626-0.257-0.955-0.257-0.984h-1.154c-0.342,0.029-0.641,0.042-0.897,0.042
				c-0.229,0.028-0.444,0.043-0.643,0.043c-0.256,0-0.441,0.058-0.556,0.172c-0.256,0.113-0.441,0.255-0.556,0.427
				c-0.143,0.198-0.256,0.37-0.342,0.512c-0.059,0.143-0.142,0.271-0.257,0.384c-0.114,0.116-0.228,0.217-0.342,0.3
				c-0.144,0.086-0.484,0.157-1.026,0.215c-0.627,0.086-1.253,0.128-1.883,0.128c-0.739,0-1.438,0-2.095,0
				c-0.625,0-1.041-0.072-1.239-0.213c-0.342-0.087-0.727-0.229-1.155-0.43c-0.457-0.227-0.783-0.412-0.982-0.553
				c-0.57,0.796-0.855,1.34-0.855,1.625c0.113,0.254,0.199,0.44,0.256,0.554c0.058,0.115,0.086,0.216,0.086,0.3h0.129l-0.471,0.471
				c-0.029-0.029-0.073-0.043-0.129-0.043c-0.143,0-0.227,0.014-0.256,0.043c-0.115,0.084-0.241,0.298-0.385,0.641
				c-0.199,0.342-0.441,0.728-0.726,1.153c-0.229,0.457-0.415,0.885-0.557,1.284c-0.172,0.341-0.256,0.584-0.256,0.726v0.941
				c0.084,0.086,0.057,0.228-0.087,0.429c-0.227,0.17-0.555,0.228-0.981,0.17c-0.172-0.083-0.515-0.241-1.028-0.469
				c-0.483-0.287-1.026-0.6-1.625-0.941c-0.569-0.315-1.082-0.614-1.539-0.899c-0.512-0.372-0.784-0.626-0.813-0.77
				c0-0.113,0.043-0.271,0.129-0.471c0.057-0.141,0.242-0.484,0.555-1.025c0.257-0.542,0.671-1.325,1.24-2.353
				c0.6-0.998,1.384-2.352,2.353-4.063c0-0.255-0.099-0.712-0.3-1.367c-0.142-0.656-0.626-1.113-1.453-1.369l-1.797-0.684
				c-0.369-0.086-0.684-0.143-0.94-0.171c-0.256-0.057-0.527-0.085-0.813-0.085c-0.257-0.058-0.57-0.1-0.941-0.129
				c-0.427-0.083-0.869-0.127-1.326-0.127c-0.484-0.03-0.913-0.03-1.282,0c-0.428,0-0.727,0.044-0.897,0.127L4.201,21.675H4.117
				c-0.058,0-0.215,0.017-0.47,0.043c-0.315,0.057-0.657,0.1-1.028,0.128c-0.314,0-0.669-0.014-1.068-0.042
				c-0.399-0.058-0.685-0.144-0.855-0.257c-0.172-0.199-0.257-0.384-0.257-0.557v-2.993c0-0.712,0-1.453,0-2.224
				c0-0.741-0.072-1.296-0.213-1.668v-2.051c0-0.286-0.014-0.571-0.043-0.855c-0.058-0.286-0.085-0.558-0.085-0.813
				c-0.085-0.371-0.114-0.726-0.085-1.069c0-0.342,0.186-0.585,0.555-0.727c0.029-0.028,0.315-0.07,0.854-0.128
				c0.515,0,1.099-0.015,1.754-0.043c0.685,0,1.411-0.013,2.181-0.042c0.711,0,1.325,0,1.838,0h15.565
				c0.199-0.086,0.5-0.17,0.898-0.256c0.399-0.142,0.784-0.243,1.155-0.299c0.426-0.143,0.827-0.256,1.197-0.342
				c0.286-0.114,0.47-0.199,0.556-0.256l0.898-0.642c0.199-0.086,0.371-0.186,0.514-0.3c0.169-0.029,0.298-0.071,0.382-0.128
				c0.171-0.143,0.728-0.285,1.669-0.428c0.284,0,0.457-0.028,0.514-0.085c0.142,0,0.242-0.028,0.299-0.084
				c0.142-0.086,0.498-0.429,1.069-1.028c0.513-0.569,1.012-1.097,1.496-1.582c0.284-0.2,0.713-0.256,1.283-0.171
				c0.57,0.058,0.998,0.114,1.283,0.171c0.085,0,0.172-0.014,0.256-0.043c0.057,0,0.101-0.014,0.127-0.043
				c0.086,0,0.144,0.015,0.172,0.043c0.199,0.115,0.342,0.186,0.429,0.214h1.024L38.24,3.63v1.797h0.17V4.358h2.224V3.802h1.196
				v0.557h0.813V3.802h1.111v0.557h0.771V3.802h1.154v0.557h0.941V3.802h1.112v0.557h0.94V3.802h1.155v0.557h0.941V3.802h1.155
				v0.557h0.726V3.802h1.282v0.557h0.685V3.802h1.155v0.557h1.197v1.068h15.694c0.284-0.228,0.641-0.541,1.068-0.941
				c0.457-0.399,0.757-0.711,0.898-0.941c0-0.256,0.014-0.455,0.042-0.598c0.029-0.113,0.042-0.229,0.042-0.342
				c0.114-0.285,0.2-0.528,0.256-0.727c0.144-0.228,0.343-0.371,0.599-0.426h0.344c0.255-0.116,0.511-0.186,0.768-0.216
				c0.229,0,0.443,0.172,0.642,0.514c0.314,0.399,0.527,0.798,0.643,1.197C78.049,3.204,78.091,3.403,78.091,3.545z M56.326,4.957
				H39.095v0.47h17.231V4.957z M42.558,19.026c0.229,0.199,0.499,0.298,0.813,0.298h3.975c0.256,0,0.543-0.1,0.855-0.298
				c0.199-0.199,0.301-0.414,0.301-0.643c0-0.427-0.102-0.756-0.301-0.982c-0.313-0.17-0.599-0.256-0.855-0.256h-3.975
				c-0.314,0-0.584,0.086-0.813,0.256c-0.285,0.227-0.428,0.556-0.428,0.982C42.13,18.612,42.272,18.827,42.558,19.026z
				 M20.194,12.824c0-0.713-0.342-1.069-1.027-1.069h-1.88c-0.257,0-0.471,0.084-0.642,0.257c-0.2,0.201-0.298,0.471-0.298,0.812
				c0,0.228,0.098,0.415,0.298,0.557c0.171,0.198,0.385,0.3,0.642,0.3h1.88c0.314,0,0.57-0.102,0.77-0.3
				C20.108,13.239,20.194,13.052,20.194,12.824z M5.868,10.985c-0.484-0.085-0.939-0.141-1.367-0.169c-0.457,0-0.8-0.03-1.027-0.086
				c0,0.398,0.015,0.913,0.042,1.538c0.086,0.657,0.143,1.326,0.171,2.01c0,0.685,0.028,1.34,0.085,1.967
				c0.029,0.6,0.045,0.985,0.045,1.155c0.141,0.143,0.441,0.299,0.896,0.471c0.513,0.17,0.998,0.256,1.455,0.256
				C6.511,18.1,6.98,17.985,7.58,17.785c0.542-0.171,1.111-0.371,1.71-0.599c0.57-0.256,1.14-0.513,1.711-0.769
				c0.513-0.257,0.911-0.47,1.196-0.643c0.199-0.229,0.298-0.485,0.298-0.769c0-0.315-0.084-0.755-0.255-1.326
				c-0.172-0.514-0.329-0.971-0.47-1.369c-0.229,0-0.628-0.056-1.198-0.169c-0.513-0.146-1.154-0.316-1.924-0.515
				c-0.341-0.113-0.769-0.229-1.282-0.342C6.909,11.114,6.411,11.014,5.868,10.985z"/>
</svg>
