<?xml version="1.0"?>
<svg xmlns="http://www.w3.org/2000/svg" viewBox="0 0 36 36" fill="none">
  <path d="M34 6V30H17V26H30V10H6V15H2V6H34ZM2 18V22C4.12173 22 6.15656 22.8429 7.65685 24.3431C9.15715 25.8434 10 27.8783 10 30H14C14 26.8174 12.7357 23.7652 10.4853 21.5147C8.23484 19.2643 5.1826 18 2 18ZM2 25V30H7C7 29.3434 6.87067 28.6932 6.6194 28.0866C6.36812 27.48 5.99983 26.9288 5.53553 26.4645C5.07124 26.0002 4.52005 25.6319 3.91342 25.3806C3.30679 25.1293 2.65661 25 2 25Z" fill="currentColor"/>
</svg>
