<?xml version="1.0"?>
<svg viewBox="0 0 36 36" xmlns="http://www.w3.org/2000/svg" fill="none">
  <path fill="currentColor" d="M12.456 6.473h-5.55v5.705h-3.7V2.67h9.25v3.803ZM25.249 29.525h5.55V23.82H34.5v9.508h-9.251v-3.803ZM6.881 24.077v5.55h5.705v3.701H3.078v-9.251h3.803ZM30.697 11.921v-5.55h-5.705V2.67H34.5v9.251h-3.803Z"/>
  <path fill="currentColor" fill-rule="evenodd" d="M28.055 9.145H9.553v18.502h18.502V9.145ZM17.3 14.547l3.671 7.949 1.533-2.655 2.954 5.117H19.55l.003-.003h-7.06L17.3 14.547Zm5.348 2.172a2.63 2.63 0 1 0 0-5.262 2.63 2.63 0 0 0 0 5.262Z" clip-rule="evenodd"/>
</svg>
