<?xml version="1.0"?>
<svg xmlns="http://www.w3.org/2000/svg" viewBox="0 0 36 36" fill="none">
  <path fill="currentColor" d="M0 2C0 0.895431 0.895431 0 2 0H34C35.1046 0 36 0.895431 36 2V34C36 35.1046 35.1046 36 34 36H2C0.895431 36 0 35.1046 0 34V2Z"/>
  <path fill="currentColor" d="M17.6274 24.75H14.6934L12.1554 20.502H11.8494H9.97742V24.75H7.33142V12.15H12.0474C13.7754 12.15 15.0474 12.498 15.8634 13.194C16.6794 13.878 17.0874 14.838 17.0874 16.074C17.0874 17.046 16.8714 17.856 16.4394 18.504C16.0194 19.152 15.4254 19.644 14.6574 19.98L17.6274 24.75ZM9.97742 14.4V18.234H12.0474C12.7434 18.234 13.2834 18.06 13.6674 17.712C14.0634 17.352 14.2614 16.86 14.2614 16.236C14.2614 15.624 14.0694 15.168 13.6854 14.868C13.3134 14.556 12.7134 14.4 11.8854 14.4H9.97742Z"/>
  <path fill="currentColor" d="M28.2797 12.15V14.4H22.7717V17.352C23.1197 17.136 23.5097 16.98 23.9417 16.884C24.3857 16.776 24.8297 16.722 25.2737 16.722C26.4017 16.722 27.3017 17.046 27.9737 17.694C28.6577 18.33 28.9997 19.26 28.9997 20.484C28.9997 21.396 28.7837 22.194 28.3517 22.878C27.9317 23.562 27.3137 24.096 26.4977 24.48C25.6937 24.852 24.7397 25.038 23.6357 25.038C22.8197 25.038 22.0577 24.93 21.3497 24.714C20.6417 24.498 20.0537 24.192 19.5857 23.796L20.5217 21.78C21.4457 22.404 22.4717 22.716 23.5997 22.716C24.4517 22.716 25.1117 22.53 25.5797 22.158C26.0477 21.786 26.2817 21.252 26.2817 20.556C26.2817 19.944 26.1017 19.476 25.7417 19.152C25.3937 18.828 24.9137 18.666 24.3017 18.666C23.8457 18.666 23.4257 18.744 23.0417 18.9C22.6577 19.044 22.2797 19.266 21.9077 19.566L20.2337 18.648V12.15H28.2797Z"/>
</svg>
