<?xml version="1.0"?>
<svg xmlns="http://www.w3.org/2000/svg" viewBox="0 0 36 36" fill="none">
  <path d="M11.73 23C9.35238 24.6447 7.71785 27.1594 7.18 30H2V23C2 21.1435 2.7375 19.363 4.05025 18.0502C5.36301 16.7375 7.14348 16 9 16C9.41241 16.001 9.82396 16.0378 10.23 16.11C10.0726 16.7445 9.99538 17.3963 10 18.05C10.0042 19.8475 10.6136 21.5912 11.73 23ZM9 13.05C9.89002 13.05 10.76 12.7861 11.5001 12.2916C12.2401 11.7971 12.8169 11.0943 13.1575 10.2721C13.4981 9.4498 13.5872 8.545 13.4135 7.67208C13.2399 6.79917 12.8113 5.99735 12.182 5.36801C11.5526 4.73867 10.7508 4.31009 9.87791 4.13646C9.00499 3.96282 8.10019 4.05194 7.27792 4.39253C6.45566 4.73313 5.75285 5.3099 5.25839 6.04992C4.76392 6.78995 4.5 7.65997 4.5 8.54999C4.49868 9.14131 4.61418 9.72706 4.83986 10.2736C5.06554 10.8202 5.39695 11.3168 5.81508 11.7349C6.23321 12.153 6.72981 12.4845 7.27637 12.7101C7.82293 12.9358 8.40868 13.0513 9 13.05ZM27 13.05C27.89 13.05 28.76 12.7861 29.5001 12.2916C30.2401 11.7971 30.8169 11.0943 31.1575 10.2721C31.4981 9.4498 31.5872 8.545 31.4135 7.67208C31.2399 6.79917 30.8113 5.99735 30.182 5.36801C29.5526 4.73867 28.7508 4.31009 27.8779 4.13646C27.005 3.96282 26.1002 4.05194 25.2779 4.39253C24.4557 4.73313 23.7529 5.3099 23.2584 6.04992C22.7639 6.78995 22.5 7.65997 22.5 8.54999C22.4987 9.14131 22.6142 9.72706 22.8399 10.2736C23.0655 10.8202 23.397 11.3168 23.8151 11.7349C24.2332 12.153 24.7298 12.4845 25.2764 12.7101C25.8229 12.9358 26.4087 13.0513 27 13.05ZM32 18.1C31.344 17.444 30.5642 16.925 29.7058 16.573C28.8474 16.2211 27.9277 16.0433 27 16.05C26.5876 16.051 26.176 16.0878 25.77 16.16C25.9233 16.7783 26.0005 17.413 26 18.05C26.0071 19.8646 25.3971 21.6278 24.27 23.05C26.6476 24.6947 28.2821 27.2094 28.82 30.05H34V23.05C34.0134 21.2006 33.2944 19.421 32 18.1ZM18 22.05C18.7911 22.05 19.5645 21.8154 20.2223 21.3759C20.8801 20.9363 21.3928 20.3116 21.6955 19.5807C21.9983 18.8498 22.0775 18.0456 21.9231 17.2696C21.7688 16.4937 21.3878 15.781 20.8284 15.2216C20.269 14.6622 19.5563 14.2812 18.7804 14.1268C18.0044 13.9725 17.2002 14.0517 16.4693 14.3545C15.7384 14.6572 15.1136 15.1699 14.6741 15.8277C14.2346 16.4855 14 17.2589 14 18.05C14 19.1109 14.4214 20.1283 15.1716 20.8784C15.9217 21.6286 16.9391 22.05 18 22.05ZM18 25.05C16.1435 25.05 14.363 25.7875 13.0503 27.1002C11.7375 28.413 11 30.1935 11 32.05H25C25 30.1935 24.2625 28.413 22.9497 27.1002C21.637 25.7875 19.8565 25.05 18 25.05Z" fill="currentColor"/>
</svg>
