<?xml version="1.0"?>
<svg xmlns="http://www.w3.org/2000/svg" viewBox="0 0 36 36" fill="none">
  <path fill="currentColor" d="M31 29.4754L27.6984 33L23.4476 29.1475C22.2095 30.4044 20.8339 31.3333 19.3206 31.9344C17.8349 32.5355 16.1429 33 14.2444 33C11.3005 33 9.01693 32.194 7.39365 30.9098C5.79788 29.5984 5 27.8361 5 25.623C5 24.0929 5.4127 22.7268 6.2381 21.5246C7.06349 20.2951 8.31534 19.1066 9.99365 17.959L10.5714 17.5492C9.33333 16.3743 8.39788 15.2404 7.76508 14.1475C7.13228 13.0546 6.81587 11.7978 6.81587 10.377C6.81587 8.16393 7.55873 6.38798 9.04444 5.04918C10.5302 3.68306 12.5799 3 15.1937 3C17.5323 3 19.4307 3.61475 20.8889 4.84426C22.3471 6.07377 23.0762 7.72678 23.0762 9.80328C23.0762 12.4536 21.6455 14.9262 18.7841 17.2213L18.0413 17.7951L22.4571 21.7705C22.5397 21.5519 22.691 21.224 22.9111 20.7869L25.2635 16.0328L29.7619 18L27.946 22.0574C27.3683 23.3142 26.818 24.3798 26.2952 25.2541L31 29.4754ZM11.9333 10.623C11.9333 11.3607 12.1672 12.0437 12.6349 12.6721C13.1026 13.3005 13.763 13.9973 14.6159 14.7623L15.2349 14.3115C17.0508 13.0546 17.9587 11.6885 17.9587 10.2131C17.9587 9.3388 17.6974 8.71038 17.1746 8.32787C16.6519 7.94535 15.964 7.7541 15.1111 7.7541C14.0931 7.7541 13.309 8.01366 12.7587 8.53279C12.2085 9.02459 11.9333 9.72131 11.9333 10.623ZM14.6159 28C16.5143 28 18.1788 27.0164 19.6095 25.7049L14.1619 20.7869L13.2952 21.4426C12.4698 22.0437 11.8646 22.6175 11.4794 23.1639C11.1217 23.7104 10.9429 24.3115 10.9429 24.9672C10.9429 25.7869 11.2455 26.4426 11.8508 26.9344C12.4836 27.4262 13.4053 28 14.6159 28Z"/>
</svg>
