<?xml version="1.0"?>
<svg xmlns="http://www.w3.org/2000/svg" viewBox="0 0 36 36" fill="none">
  <path d="M18 3C15.0333 3 12.1332 3.87973 9.66645 5.52796C7.19972 7.17618 5.27713 9.51886 4.14181 12.2597C3.0065 15.0006 2.70945 18.0166 3.28823 20.9264C3.86701 23.8361 5.29562 26.5088 7.3934 28.6066C9.49119 30.7044 12.1639 32.133 15.0737 32.7118C17.9834 33.2906 20.9994 32.9935 23.7403 31.8582C26.4811 30.7229 28.8238 28.8003 30.472 26.3336C32.1203 23.8668 33 20.9667 33 18C33 16.0302 32.612 14.0796 31.8582 12.2597C31.1044 10.4399 29.9995 8.78628 28.6066 7.3934C27.2137 6.00052 25.5601 4.89563 23.7403 4.14181C21.9204 3.38799 19.9698 3 18 3ZM7.00001 18C7.00169 15.7749 7.67812 13.6027 8.94001 11.77L24.23 27.06C22.5787 28.1948 20.6488 28.857 18.6486 28.9752C16.6484 29.0933 14.654 28.6629 12.8805 27.7304C11.1071 26.7978 9.62204 25.3986 8.58569 23.6838C7.54934 21.969 7.00105 20.0037 7.00001 18ZM27.06 24.23L11.77 8.94C13.8875 7.49109 16.4449 6.82796 18.9996 7.06536C21.5544 7.30275 23.9457 8.42573 25.76 10.24C27.5743 12.0543 28.6973 14.4457 28.9347 17.0004C29.172 19.5551 28.5089 22.1125 27.06 24.23Z" fill="currentColor"/>
</svg>
