<?xml version="1.0"?>
<svg viewBox="0 -8 60 60" width="32">
  <path d="M.5 5.5C.5 2.5 3 0 6 0h48c3 0 5.5 2.5 5.5 5.5V35c0 3-2.5 5.5-5.5 5.5h-1.5c-.8 0-1.5.7-1.5 1.5v8.1c0 1.3-1.6 2-2.6 1.1L37.8 40.5H6C3 40.5.5 38 .5 35V5.5zM6 1C3.5 1 1.5 3 1.5 5.5V35c0 2.5 2 4.5 4.5 4.5h32.2l.1.1 10.8 10.8c.3.3.9.1.9-.4v-8c0-1.4 1.1-2.5 2.5-2.5H54c2.5 0 4.5-2 4.5-4.5V5.5C58.5 3 56.5 1 54 1H6zm24 31c6.6 0 12-5.4 12-12S36.6 8 30 8s-12 5.4-12 12 5.4 12 12 12zm0 1c7.2 0 13-5.8 13-13S37.2 7 30 7s-13 5.8-13 13 5.8 13 13 13zm-3.5-15c.8 0 1.5-.7 1.5-1.5s-.7-1.5-1.5-1.5-1.5.7-1.5 1.5.7 1.5 1.5 1.5zm8.5-1.5c0 .8-.7 1.5-1.5 1.5s-1.5-.7-1.5-1.5.7-1.5 1.5-1.5 1.5.7 1.5 1.5zM24.5 22c0 2.5 2 4.5 4.5 4.5h2c2.5 0 4.5-2 4.5-4.5h-1c0 1.9-1.6 3.5-3.5 3.5h-2c-1.9 0-3.5-1.6-3.5-3.5h-1z" fill-rule="evenodd" clip-rule="evenodd" fill="#fff"/>
</svg>
