<?xml version="1.0"?>
<svg xmlns="http://www.w3.org/2000/svg" version="1.1" id="Layer_1" x="0px" y="0px" viewBox="0 0 36 36">
  <path fill="currentColor" opacity="0.5" d="M12.9,13.7c-0.6,0-1.1-0.5-1.1-1.1V8l-1.7,0L9.6,7.5c0,0-0.1,0-0.2,0C9.3,7.3,9.2,7.1,9,6.9  C6.7,6.5,5.2,7.1,4.7,7.4c-0.1,0-0.1,0.1-0.2,0.1C3.9,8,2.8,10.3,2.8,10.3C2.2,12,0.6,17,0,23.8c0,0-0.6,5.1,3.4,5.6  c3.5,0.4,4.6-4.1,5.2-6.5c0.2-0.7,0.3-1.2,0.4-1.4c0.3-0.3,0.7-0.5,0.9-0.5c0.6,0.7,1.5,1.1,2.5,1.1c1,0,1.9-0.4,2.5-1.1H18v-7.3  H12.9z M5.6,10.8c0-0.3,0.2-0.5,0.5-0.5h1.2c0.3,0,0.5,0.2,0.5,0.5v1c0,0.1-0.1,0.3-0.1,0.4l-0.6,0.6c-0.2,0.2-0.5,0.2-0.7,0  l-0.6-0.6c-0.1-0.1-0.1-0.2-0.1-0.4V10.8z M5.1,14.5h-1c-0.3,0-0.5-0.2-0.5-0.5v-1.2c0-0.3,0.2-0.5,0.5-0.5h1c0.1,0,0.3,0.1,0.4,0.1  L6.1,13c0.2,0.2,0.2,0.5,0,0.7l-0.6,0.6C5.4,14.4,5.3,14.5,5.1,14.5z M7.9,16c0,0.3-0.2,0.5-0.5,0.5H6.1c-0.3,0-0.5-0.2-0.5-0.5v-1  c0-0.1,0.1-0.3,0.1-0.4L6.4,14c0.2-0.2,0.5-0.2,0.7,0l0.6,0.6c0.1,0.1,0.1,0.2,0.1,0.4V16z M9.8,14c0,0.3-0.2,0.5-0.5,0.5h-1  c-0.1,0-0.3-0.1-0.4-0.1l-0.6-0.6c-0.2-0.2-0.2-0.5,0-0.7L8,12.4c0.1-0.1,0.2-0.1,0.4-0.1h1c0.3,0,0.5,0.2,0.5,0.5V14z M12.1,20.4  c-1.2,0-2.2-1-2.2-2.2c0-1.2,1-2.2,2.2-2.2c1.2,0,2.2,1,2.2,2.2C14.4,19.4,13.4,20.4,12.1,20.4z"/>
  <path fill="currentColor" d="M36,23.8C35.4,17,33.8,12,33.2,10.3c0,0-1.1-2.2-1.7-2.8c0,0-0.1-0.1-0.2-0.1c-0.5-0.3-2-0.9-4.3-0.5  c-0.2,0.2-0.3,0.4-0.4,0.5c-0.1,0-0.2,0-0.2,0L25.9,8l-1.7,0v4.5c0,0.6-0.5,1.1-1.1,1.1H18V21h3.1c0.6,0.7,1.5,1.1,2.5,1.1  c1,0,1.9-0.4,2.5-1.1c0.2,0.1,0.6,0.2,0.9,0.5c0.1,0.1,0.3,0.7,0.4,1.4c0.6,2.4,1.7,6.9,5.2,6.5C36.6,28.8,36,23.8,36,23.8z   M23.6,20.4c-1.2,0-2.2-1-2.2-2.2c0-1.2,1-2.2,2.2-2.2c1.2,0,2.2,1,2.2,2.2C25.9,19.4,24.9,20.4,23.6,20.4z M26.7,14.5  c-0.6,0-1.1-0.5-1.1-1.1c0-0.6,0.5-1.1,1.1-1.1c0.6,0,1.1,0.5,1.1,1.1C27.8,14,27.3,14.5,26.7,14.5z M29.2,17  c-0.6,0-1.1-0.5-1.1-1.1c0-0.6,0.5-1.1,1.1-1.1c0.6,0,1.1,0.5,1.1,1.1C30.4,16.5,29.9,17,29.2,17z M29.2,12c-0.6,0-1.1-0.5-1.1-1.1  c0-0.6,0.5-1.1,1.1-1.1c0.6,0,1.1,0.5,1.1,1.1C30.4,11.5,29.9,12,29.2,12z M31.8,14.5c-0.6,0-1.1-0.5-1.1-1.1c0-0.6,0.5-1.1,1.1-1.1  c0.6,0,1.1,0.5,1.1,1.1C32.9,14,32.4,14.5,31.8,14.5z"/>
  <rect fill="currentColor" opacity="0.5" x="12.9" y="8" width="5.1" height="4.5"/>
  <rect fill="currentColor" x="18" y="8" width="5.1" height="4.5"/>
</svg>
