<?xml version="1.0"?>
<svg viewBox="0 0 36 36" fill="none" xmlns="http://www.w3.org/2000/svg">
  <path fill-rule="evenodd" clip-rule="evenodd" d="M22 6H2V27H12L18 34L24 27H34V21H27C24.2386 21 22 18.7614 22 16V6ZM8.11107 18.5787C8.5222 18.8534 9.00555 19 9.5 19C9.8283 19 10.1534 18.9353 10.4567 18.8097C10.76 18.6841 11.0356 18.4999 11.2678 18.2678C11.4999 18.0356 11.6841 17.76 11.8097 17.4567C11.9353 17.1534 12 16.8283 12 16.5C12 16.0055 11.8534 15.5222 11.5787 15.1111C11.304 14.7 10.9135 14.3795 10.4567 14.1903C9.99989 14.0011 9.49723 13.9516 9.01227 14.048C8.52732 14.1445 8.08186 14.3826 7.73223 14.7322C7.3826 15.0819 7.1445 15.5273 7.04804 16.0123C6.95157 16.4972 7.00108 16.9999 7.1903 17.4567C7.37952 17.9135 7.69995 18.304 8.11107 18.5787ZM16.6111 18.5787C17.0222 18.8534 17.5055 19 18 19C18.3283 19 18.6534 18.9353 18.9567 18.8097C19.26 18.6841 19.5356 18.4999 19.7678 18.2678C19.9999 18.0356 20.1841 17.76 20.3097 17.4567C20.4353 17.1534 20.5 16.8283 20.5 16.5C20.5 16.0055 20.3534 15.5222 20.0787 15.1111C19.804 14.7 19.4135 14.3795 18.9567 14.1903C18.4999 14.0011 17.9972 13.9516 17.5123 14.048C17.0273 14.1445 16.5819 14.3826 16.2322 14.7322C15.8826 15.0819 15.6445 15.5273 15.548 16.0123C15.4516 16.4972 15.5011 16.9999 15.6903 17.4567C15.8795 17.9135 16.2 18.304 16.6111 18.5787Z" fill="currentColor"/>
</svg>
