<?xml version="1.0"?>
<svg width="36" height="36" viewBox="0 0 36 36" fill="none" xmlns="http://www.w3.org/2000/svg">
  <path d="M26 24.5V36L18 33L10 36V24.5L12 24.56C12.4845 24.5765 12.9464 24.7684 13.3 25.1L16.59 28.2C16.9609 28.5488 17.4509 28.7429 17.96 28.7429C18.4691 28.7429 18.9591 28.5488 19.33 28.2L22.62 25.1C22.9736 24.7684 23.4355 24.5765 23.92 24.56L26 24.5ZM30 12L28.2 13.91C27.1867 14.9805 26.6029 16.3866 26.56 17.86L26.49 20.49L23.86 20.56C22.3866 20.6029 20.9805 21.1867 19.91 22.2L18 24L16.09 22.2C15.0195 21.1867 13.6134 20.6029 12.14 20.56L9.51 20.49L9.44 17.86C9.3971 16.3866 8.81331 14.9805 7.8 13.91L6 12L7.8 10.09C8.81331 9.01949 9.3971 7.61342 9.44 6.14L9.51 3.51L12.14 3.44C13.6134 3.3971 15.0195 2.81331 16.09 1.8L18 0L19.91 1.8C20.9805 2.81331 22.3866 3.3971 23.86 3.44L26.49 3.51L26.56 6.14C26.5906 7.6308 27.1753 9.05677 28.2 10.14L30 12ZM23 12C23 11.0111 22.7068 10.0444 22.1573 9.22215C21.6079 8.3999 20.827 7.75904 19.9134 7.3806C18.9998 7.00216 17.9945 6.90315 17.0245 7.09607C16.0546 7.289 15.1637 7.7652 14.4645 8.46447C13.7652 9.16373 13.289 10.0546 13.0961 11.0245C12.9031 11.9945 13.0022 12.9998 13.3806 13.9134C13.759 14.827 14.3999 15.6079 15.2221 16.1573C16.0444 16.7068 17.0111 17 18 17C18.6566 17 19.3068 16.8707 19.9134 16.6194C20.52 16.3681 21.0712 15.9998 21.5355 15.5355C21.9998 15.0712 22.3681 14.52 22.6194 13.9134C22.8707 13.3068 23 12.6566 23 12Z" fill="currentColor"/>
</svg>
