<?xml version="1.0"?>
<svg xmlns="http://www.w3.org/2000/svg" viewBox="0 0 36 36" fill="none">
  <path d="M28 4.05005H8C6.93913 4.05005 5.92172 4.47148 5.17157 5.22162C4.42143 5.97177 4 6.98918 4 8.05005V28.05C4 29.1109 4.42143 30.1283 5.17157 30.8785C5.92172 31.6286 6.93913 32.05 8 32.05H28C29.0609 32.05 30.0783 31.6286 30.8284 30.8785C31.5786 30.1283 32 29.1109 32 28.05V8.05005C32 6.98918 31.5786 5.97177 30.8284 5.22162C30.0783 4.47148 29.0609 4.05005 28 4.05005ZM24 12.05H20V15.05H24L23 19.05H20V28.05H16V19.05H13V15.05H16V12.86C16 11.5844 16.5068 10.3609 17.4088 9.45887C18.3109 8.55682 19.5343 8.05005 20.81 8.05005H24V12.05Z" fill="currentColor"/>
</svg>
