<?xml version="1.0"?>
<svg xmlns="http://www.w3.org/2000/svg" viewBox="0 0 36 36" fill="none">
  <path d="M10 19.5C10 20.1922 9.79474 20.8689 9.41016 21.4445C9.02557 22.0201 8.47894 22.4687 7.8394 22.7336C7.19986 22.9985 6.49613 23.0678 5.81719 22.9328C5.13826 22.7977 4.51462 22.4644 4.02514 21.9749C3.53565 21.4854 3.20231 20.8618 3.06726 20.1828C2.93221 19.5039 3.00153 18.8002 3.26643 18.1606C3.53134 17.5211 3.97994 16.9745 4.55552 16.5899C5.13109 16.2053 5.80778 16 6.50001 16C7.42827 16 8.31851 16.3688 8.97488 17.0251C9.63126 17.6815 10 18.5718 10 19.5ZM18 23C16.1435 23 14.363 23.7375 13.0503 25.0503C11.7375 26.363 11 28.1435 11 30V32H25V30C25 28.1435 24.2625 26.363 22.9498 25.0503C21.637 23.7375 19.8565 23 18 23ZM1.23001 31.38V32H7.00001V30C6.99798 28.6709 7.23859 27.3527 7.71001 26.11C7.35115 26.0378 6.98607 26.001 6.62001 26C5.91266 25.9987 5.21199 26.1369 4.5581 26.4067C3.90422 26.6764 3.30995 27.0725 2.80931 27.5722C2.30867 28.0719 1.91149 28.6655 1.64049 29.3189C1.3695 29.9722 1.23001 30.6727 1.23001 31.38ZM29.62 26C29.1779 26.0004 28.7376 26.0576 28.31 26.17C28.77 27.3944 29.0038 28.6921 29 30V32H35V31.38C35 29.9531 34.4332 28.5847 33.4242 27.5758C32.4153 26.5668 31.0469 26 29.62 26ZM22.5 15.5C22.5 14.61 22.2361 13.74 21.7416 12.9999C21.2472 12.2599 20.5444 11.6831 19.7221 11.3426C18.8998 11.002 17.995 10.9128 17.1221 11.0865C16.2492 11.2601 15.4474 11.6887 14.818 12.318C14.1887 12.9474 13.7601 13.7492 13.5865 14.6221C13.4128 15.495 13.502 16.3998 13.8426 17.2221C14.1831 18.0444 14.7599 18.7472 15.4999 19.2416C16.24 19.7361 17.11 20 18 20C18.5913 20.0013 19.1771 19.8858 19.7236 19.6602C20.2702 19.4345 20.7668 19.1031 21.1849 18.6849C21.6031 18.2668 21.9345 17.7702 22.1602 17.2236C22.3858 16.6771 22.5013 16.0913 22.5 15.5ZM33 19.5C33 18.8078 32.7947 18.1311 32.4102 17.5555C32.0256 16.9799 31.4789 16.5313 30.8394 16.2664C30.1999 16.0015 29.4961 15.9322 28.8172 16.0673C28.1383 16.2023 27.5146 16.5357 27.0251 17.0251C26.5357 17.5146 26.2023 18.1383 26.0673 18.8172C25.9322 19.4961 26.0015 20.1999 26.2664 20.8394C26.5313 21.4789 26.9799 22.0256 27.5555 22.4102C28.1311 22.7947 28.8078 23 29.5 23C30.4283 23 31.3185 22.6313 31.9749 21.9749C32.6313 21.3185 33 20.4283 33 19.5ZM29.16 11.05H31.74C30.5732 8.37369 28.6507 6.09606 26.2082 4.49646C23.7658 2.89685 20.9096 2.0448 17.99 2.0448C15.0704 2.0448 12.2142 2.89685 9.7718 4.49646C7.32937 6.09606 5.40685 8.37369 4.24001 11.05H6.82001C7.36859 11.055 7.91207 10.9445 8.41515 10.7257C8.91822 10.5069 9.36963 10.1847 9.74001 9.78001C10.7723 8.60954 12.0418 7.67211 13.4642 7.03001C14.8866 6.38791 16.4294 6.05583 17.99 6.05583C19.5506 6.05583 21.0934 6.38791 22.5158 7.03001C23.9382 7.67211 25.2078 8.60954 26.24 9.78001C26.6104 10.1847 27.0618 10.5069 27.5649 10.7257C28.0679 10.9445 28.6114 11.055 29.16 11.05Z" fill="currentColor"/>
</svg>
