<?xml version="1.0"?>
<svg xmlns="http://www.w3.org/2000/svg" viewBox="0 0 1920 1080" fill="none">
  <path fill="#1A9FFF" d="M879.121 154.879C877.95 153.707 876.05 153.707 874.879 154.879L855.787 173.971C854.615 175.142 854.615 177.042 855.787 178.213C856.958 179.385 858.858 179.385 860.029 178.213L877 161.243L893.971 178.213C895.142 179.385 897.042 179.385 898.213 178.213C899.385 177.042 899.385 175.142 898.213 173.971L879.121 154.879ZM877 212.5L880 212.5L880 157L877 157L874 157L874 212.5L877 212.5Z"/>
  <path fill="currentColor" d="M963.206 758.612C965.381 758.612 967.147 760.377 967.147 762.552C967.147 764.727 965.381 766.493 963.206 766.493H963.118L959.562 769.03V769.165C959.562 770.794 958.239 772.127 956.602 772.127C955.173 772.127 953.969 771.108 953.704 769.751L949.699 768.098L954.948 766.726C955.422 766.397 956 766.212 956.609 766.212H956.777L959.266 762.601C959.266 762.601 959.266 762.568 959.266 762.552C959.266 760.377 961.031 758.612 963.206 758.612ZM957.465 767.111C956.919 766.886 956.341 766.895 955.827 767.087L957.151 767.633C957.986 767.978 958.379 768.933 958.034 769.768C957.689 770.602 956.726 770.996 955.899 770.651H955.892L954.607 770.12C954.832 770.594 955.225 770.987 955.755 771.212C956.886 771.686 958.186 771.148 958.66 770.017C958.885 769.471 958.893 768.868 958.66 768.315C958.435 767.769 958.011 767.335 957.465 767.111ZM963.212 759.928C961.768 759.928 960.588 761.108 960.588 762.552C960.588 763.997 961.767 765.177 963.212 765.177C964.657 765.177 965.837 763.997 965.837 762.552C965.837 761.107 964.657 759.928 963.212 759.928ZM963.212 760.57C964.303 760.57 965.187 761.453 965.187 762.544C965.187 763.636 964.303 764.519 963.212 764.519C962.121 764.519 961.238 763.636 961.238 762.544C961.238 761.453 962.121 760.57 963.212 760.57Z"/>
  <path fill="currentColor" d="M1024.7 719.94C1026.98 715.054 1037.25 715.543 1047.02 717.009C1056.79 718.475 1063.47 722.059 1067.22 725.316C1070.21 727.923 1071.72 733.57 1072.1 736.067C1075.85 739 1080.09 746.167 1082.04 750.076C1083.6 753.206 1095.72 798.51 1101.59 820.771C1104.36 832.174 1109.44 860.452 1107.61 882.345C1105.33 909.709 1091.65 916.714 1089.7 918.832C1087.74 920.95 1073.57 926.814 1064.29 924.371C1055 921.928 1051.42 914.271 1049.46 909.873C1047.51 905.475 1042.29 896.353 1036.92 892.118C1032.89 888.942 1027.78 888.095 1025.32 888.046H894.551C892.075 888.046 889.284 888.48 888.198 888.697C879.728 890.489 872.398 900.1 868.325 909.548C864.253 918.995 859.203 926.652 843.565 924.371C827.928 922.091 821.412 914.272 815.711 903.847C810.01 893.422 810.336 871.593 810.01 862.146C809.749 854.587 814.788 828.047 817.34 815.722L830.371 767.994C831.186 764.736 833.369 756.722 835.584 750.728C837.799 744.733 843.348 738.239 845.846 735.741C845.455 733.786 847.421 729.931 848.452 728.248C852.036 721.895 862.136 719.126 866.045 717.823C869.955 716.52 884.939 715.543 889.338 717.009C892.856 718.182 893.845 721.407 893.899 722.873L954.332 721.407L1014.77 722.384L1023.89 722.71L1024.7 719.94ZM885.943 808.631C885.894 808.632 885.845 808.632 885.796 808.633C885.695 808.635 885.595 808.64 885.495 808.645C885.491 808.645 885.486 808.645 885.481 808.646C885.292 808.655 885.104 808.668 884.916 808.686C884.877 808.689 884.838 808.692 884.799 808.696C884.754 808.701 884.71 808.707 884.665 808.712C884.602 808.719 884.539 808.725 884.476 808.733C884.415 808.741 884.354 808.75 884.294 808.759C884.252 808.765 884.209 808.77 884.167 808.776C878.623 809.609 873.982 813.89 872.959 819.716L866.722 855.239C865.539 861.973 869.607 868.414 875.98 870.366C875.999 870.372 876.018 870.377 876.037 870.383C876.546 870.536 877.068 870.663 877.604 870.757L914.71 877.271C914.884 877.302 915.059 877.327 915.232 877.351C915.27 877.356 915.307 877.361 915.345 877.366C915.383 877.371 915.422 877.376 915.46 877.381C915.645 877.403 915.83 877.421 916.015 877.436C916.18 877.448 916.344 877.457 916.509 877.464C916.809 877.476 917.109 877.479 917.406 877.471C917.433 877.47 917.46 877.469 917.487 877.468C917.685 877.461 917.882 877.451 918.078 877.436C918.093 877.434 918.109 877.433 918.124 877.432C918.439 877.406 918.752 877.37 919.062 877.322C919.081 877.319 919.101 877.316 919.121 877.312C919.205 877.299 919.289 877.285 919.373 877.271C919.403 877.265 919.434 877.259 919.464 877.254C919.542 877.239 919.62 877.225 919.698 877.209C919.722 877.204 919.746 877.198 919.771 877.193C919.854 877.176 919.938 877.159 920.021 877.14C920.041 877.135 920.06 877.13 920.08 877.125C920.164 877.105 920.248 877.086 920.331 877.064C920.367 877.055 920.403 877.045 920.439 877.035C920.503 877.018 920.567 877.001 920.631 876.983C920.663 876.974 920.696 876.965 920.729 876.956C920.804 876.934 920.879 876.913 920.954 876.89C920.995 876.877 921.036 876.864 921.077 876.851C921.129 876.834 921.181 876.817 921.232 876.8C921.289 876.781 921.346 876.763 921.402 876.743C921.448 876.727 921.494 876.711 921.539 876.694C921.594 876.675 921.649 876.654 921.704 876.634C921.754 876.615 921.803 876.597 921.853 876.578C921.886 876.565 921.92 876.551 921.953 876.538C922.025 876.51 922.096 876.482 922.167 876.452C922.202 876.438 922.237 876.422 922.271 876.407C922.324 876.385 922.377 876.363 922.43 876.34C922.482 876.317 922.533 876.293 922.585 876.27C922.626 876.251 922.668 876.231 922.709 876.212C922.879 876.132 923.046 876.049 923.212 875.963C923.231 875.953 923.251 875.943 923.271 875.933C923.433 875.847 923.593 875.759 923.751 875.667C923.781 875.649 923.812 875.631 923.842 875.613C923.994 875.523 924.145 875.43 924.294 875.334C924.32 875.317 924.347 875.3 924.373 875.283C924.525 875.184 924.674 875.082 924.821 874.977C924.846 874.959 924.87 874.941 924.895 874.924C925.047 874.813 925.197 874.7 925.345 874.583C925.356 874.574 925.368 874.565 925.38 874.556C925.534 874.433 925.685 874.307 925.834 874.178C925.847 874.166 925.861 874.154 925.874 874.143C926.014 874.02 926.151 873.894 926.286 873.766C926.324 873.729 926.362 873.692 926.4 873.655C926.437 873.62 926.473 873.584 926.509 873.548C926.535 873.522 926.562 873.495 926.588 873.469C926.636 873.42 926.683 873.372 926.73 873.322C926.764 873.287 926.797 873.251 926.83 873.216C926.87 873.173 926.91 873.13 926.949 873.087C926.981 873.052 927.013 873.018 927.044 872.982C927.081 872.941 927.117 872.9 927.153 872.858C927.187 872.819 927.221 872.781 927.255 872.741C927.299 872.689 927.343 872.637 927.386 872.585C927.408 872.558 927.429 872.53 927.451 872.503C927.489 872.457 927.526 872.41 927.563 872.363C927.605 872.311 927.646 872.259 927.687 872.206C927.715 872.169 927.742 872.132 927.77 872.095C927.789 872.068 927.809 872.041 927.829 872.015C927.935 871.87 928.04 871.724 928.141 871.575C928.171 871.53 928.201 871.483 928.231 871.438C928.259 871.396 928.287 871.355 928.313 871.313C928.348 871.259 928.382 871.205 928.416 871.15C928.438 871.114 928.46 871.078 928.482 871.042C928.508 871 928.533 870.959 928.558 870.917C928.647 870.767 928.734 870.615 928.817 870.461C928.958 870.202 929.09 869.937 929.214 869.667C929.316 869.445 929.412 869.22 929.502 868.991C929.52 868.945 929.537 868.899 929.555 868.853C929.679 868.526 929.791 868.194 929.891 867.854C929.932 867.714 929.971 867.572 930.008 867.429C930.039 867.308 930.069 867.187 930.097 867.065C930.148 866.842 930.193 866.617 930.233 866.389L936.47 830.866C936.49 830.752 936.508 830.637 936.525 830.523C936.565 830.256 936.596 829.989 936.62 829.723C936.646 829.432 936.663 829.142 936.67 828.854C936.676 828.588 936.673 828.323 936.664 828.06C936.658 827.88 936.649 827.701 936.636 827.523C936.631 827.466 936.625 827.409 936.62 827.353C936.606 827.189 936.589 827.026 936.568 826.864C936.549 826.708 936.526 826.553 936.501 826.398C936.491 826.335 936.48 826.272 936.469 826.209C936.422 825.943 936.366 825.68 936.304 825.419C936.291 825.367 936.279 825.315 936.266 825.263C936.248 825.193 936.23 825.124 936.211 825.055C936.202 825.023 936.193 824.991 936.185 824.959C936.173 824.918 936.161 824.877 936.149 824.836C936.129 824.767 936.109 824.698 936.088 824.629C936.079 824.6 936.07 824.572 936.062 824.543C936.038 824.468 936.014 824.394 935.989 824.319C935.939 824.17 935.886 824.021 935.831 823.874C935.814 823.828 935.797 823.782 935.779 823.736C935.757 823.678 935.734 823.621 935.711 823.563C935.697 823.528 935.683 823.493 935.669 823.458C935.644 823.398 935.618 823.338 935.593 823.278C935.575 823.238 935.559 823.197 935.541 823.157C935.514 823.095 935.486 823.034 935.458 822.973C935.431 822.913 935.403 822.855 935.375 822.796C935.369 822.782 935.362 822.769 935.355 822.756C935.328 822.698 935.301 822.641 935.272 822.584C935.19 822.418 935.104 822.255 935.015 822.093C935.002 822.07 934.989 822.047 934.977 822.024C934.886 821.863 934.793 821.703 934.696 821.545C934.686 821.528 934.675 821.51 934.664 821.493C934.567 821.337 934.467 821.183 934.364 821.031C934.343 821 934.321 820.968 934.3 820.937C934.2 820.792 934.098 820.649 933.992 820.509C933.974 820.485 933.956 820.461 933.938 820.438C933.823 820.285 933.704 820.135 933.582 819.988C933.574 819.978 933.566 819.969 933.558 819.959C933.434 819.81 933.306 819.664 933.176 819.521C933.158 819.501 933.141 819.483 933.123 819.464C932.999 819.33 932.873 819.198 932.744 819.068C932.714 819.038 932.684 819.008 932.653 818.978C932.611 818.936 932.568 818.894 932.524 818.853C932.473 818.804 932.421 818.755 932.369 818.707C932.35 818.689 932.331 818.672 932.312 818.654C932.249 818.597 932.187 818.541 932.124 818.485C932.108 818.471 932.092 818.457 932.076 818.443C932.024 818.398 931.972 818.353 931.919 818.309C931.882 818.277 931.844 818.245 931.807 818.214C931.746 818.163 931.684 818.114 931.622 818.064C931.613 818.057 931.603 818.049 931.594 818.042C931.532 817.993 931.47 817.944 931.407 817.896C931.372 817.869 931.337 817.843 931.302 817.816C931.262 817.786 931.221 817.756 931.181 817.727C931.136 817.694 931.09 817.66 931.045 817.628C930.991 817.589 930.936 817.551 930.882 817.514C930.851 817.492 930.82 817.471 930.789 817.45C930.551 817.289 930.308 817.136 930.059 816.989C930.025 816.97 929.992 816.949 929.958 816.93C929.916 816.906 929.874 816.883 929.832 816.859C929.775 816.827 929.719 816.795 929.661 816.764C929.4 816.622 929.132 816.489 928.859 816.364C928.839 816.355 928.819 816.345 928.799 816.336C928.531 816.215 928.259 816.103 927.981 815.999C927.946 815.986 927.911 815.972 927.875 815.959C927.249 815.731 926.599 815.547 925.927 815.411C925.814 815.388 925.701 815.368 925.588 815.348L888.482 808.833C888.369 808.813 888.254 808.794 888.141 808.777C887.688 808.71 887.238 808.665 886.79 808.644C886.602 808.635 886.415 808.631 886.229 808.63C886.199 808.63 886.17 808.629 886.141 808.629H886.104C886.05 808.629 885.997 808.63 885.943 808.631ZM1031.26 808.629C1031.06 808.63 1030.87 808.634 1030.68 808.644C1030.63 808.646 1030.58 808.65 1030.54 808.652C1030.47 808.656 1030.41 808.659 1030.34 808.664C1030.31 808.667 1030.28 808.67 1030.24 808.673C1029.83 808.706 1029.41 808.759 1028.99 808.833L991.887 815.348C991.802 815.363 991.717 815.379 991.633 815.396C991.605 815.401 991.578 815.406 991.551 815.411C991.496 815.422 991.441 815.435 991.387 815.446C984.376 816.949 979.755 823.743 981.005 830.865L987.241 866.389C988.048 870.981 991.104 874.614 995.077 876.354C995.098 876.363 995.119 876.372 995.141 876.381C995.204 876.408 995.267 876.435 995.331 876.461C995.366 876.475 995.4 876.49 995.435 876.504C995.61 876.575 995.787 876.642 995.966 876.705C995.979 876.71 995.992 876.714 996.005 876.719C996.176 876.779 996.348 876.835 996.521 876.889C996.578 876.906 996.635 876.923 996.691 876.939C996.752 876.957 996.812 876.974 996.872 876.991C996.947 877.012 997.022 877.031 997.097 877.051C997.113 877.055 997.129 877.06 997.146 877.064C997.333 877.112 997.521 877.155 997.711 877.194C997.732 877.199 997.753 877.204 997.773 877.208C997.848 877.223 997.923 877.237 997.998 877.251C998.044 877.259 998.09 877.268 998.136 877.276C998.161 877.281 998.187 877.285 998.213 877.289C998.287 877.302 998.36 877.314 998.435 877.325C998.504 877.336 998.574 877.345 998.644 877.354C998.677 877.359 998.711 877.364 998.745 877.368C998.829 877.379 998.914 877.388 998.998 877.397C999.021 877.4 999.045 877.403 999.068 877.405C999.164 877.415 999.259 877.424 999.354 877.432C999.369 877.433 999.383 877.434 999.397 877.436C999.586 877.45 999.776 877.46 999.967 877.467C1000 877.468 1000.04 877.47 1000.07 877.471C1000.39 877.479 1000.7 877.476 1001.02 877.462C1001.03 877.461 1001.05 877.461 1001.07 877.46C1001.38 877.445 1001.7 877.418 1002.01 877.381C1002.26 877.351 1002.51 877.316 1002.76 877.271L1039.87 870.757L1040.21 870.693C1040.21 870.693 1040.21 870.693 1040.21 870.692C1040.37 870.661 1040.52 870.625 1040.67 870.589C1041.18 870.468 1041.67 870.321 1042.15 870.146C1042.17 870.139 1042.19 870.131 1042.21 870.123C1042.5 870.018 1042.78 869.904 1043.05 869.78C1043.1 869.758 1043.15 869.735 1043.2 869.713C1043.25 869.689 1043.3 869.667 1043.35 869.643C1043.39 869.624 1043.43 869.605 1043.46 869.586C1043.53 869.554 1043.59 869.522 1043.66 869.489C1043.69 869.473 1043.72 869.456 1043.75 869.439C1043.81 869.408 1043.87 869.378 1043.93 869.346C1043.97 869.325 1044.01 869.304 1044.04 869.283C1044.11 869.247 1044.17 869.21 1044.24 869.173C1044.26 869.162 1044.28 869.151 1044.3 869.14C1044.37 869.099 1044.43 869.059 1044.5 869.018C1044.54 868.997 1044.57 868.976 1044.6 868.955C1044.67 868.915 1044.73 868.875 1044.79 868.834C1044.81 868.821 1044.84 868.809 1044.86 868.796C1044.9 868.766 1044.95 868.735 1044.99 868.705C1045.14 868.603 1045.29 868.498 1045.44 868.391C1045.47 868.373 1045.49 868.354 1045.52 868.336C1045.66 868.226 1045.81 868.115 1045.95 868C1045.97 867.983 1045.99 867.965 1046.02 867.948C1046.15 867.838 1046.28 867.726 1046.41 867.611C1046.45 867.583 1046.48 867.553 1046.51 867.524C1046.64 867.41 1046.76 867.294 1046.88 867.175C1046.91 867.152 1046.93 867.128 1046.95 867.105C1047.08 866.983 1047.2 866.859 1047.32 866.732C1047.35 866.704 1047.37 866.674 1047.4 866.646C1047.66 866.364 1047.91 866.072 1048.14 865.77C1048.15 865.751 1048.17 865.731 1048.18 865.712C1048.42 865.405 1048.64 865.089 1048.85 864.764C1048.86 864.748 1048.87 864.733 1048.88 864.717C1048.98 864.562 1049.07 864.404 1049.16 864.245C1049.18 864.222 1049.19 864.2 1049.2 864.177C1049.29 864.019 1049.38 863.859 1049.46 863.698C1049.47 863.676 1049.48 863.654 1049.5 863.632C1049.58 863.465 1049.66 863.296 1049.74 863.126C1049.75 863.107 1049.76 863.088 1049.77 863.068C1049.84 862.899 1049.92 862.728 1049.99 862.556C1050 862.531 1050.01 862.506 1050.02 862.481C1050.08 862.308 1050.15 862.133 1050.21 861.956C1050.22 861.937 1050.22 861.918 1050.23 861.899C1050.29 861.726 1050.35 861.552 1050.4 861.376C1050.41 861.344 1050.42 861.313 1050.43 861.281C1050.5 861.011 1050.57 860.738 1050.64 860.462C1050.64 860.425 1050.65 860.387 1050.66 860.35C1050.7 860.176 1050.73 860.002 1050.76 859.826C1050.77 859.785 1050.77 859.743 1050.78 859.701C1050.79 859.65 1050.8 859.598 1050.81 859.547C1050.82 859.481 1050.83 859.414 1050.83 859.348C1050.84 859.299 1050.85 859.25 1050.85 859.201C1050.86 859.157 1050.86 859.113 1050.87 859.068C1050.89 858.898 1050.9 858.727 1050.92 858.555C1050.92 858.505 1050.92 858.456 1050.93 858.406C1050.93 858.346 1050.93 858.286 1050.94 858.226C1050.94 858.181 1050.94 858.136 1050.94 858.092C1050.94 858.032 1050.95 857.973 1050.95 857.913C1050.95 857.847 1050.95 857.781 1050.95 857.715C1050.95 857.67 1050.95 857.624 1050.95 857.579C1050.95 857.539 1050.95 857.5 1050.95 857.46C1050.95 857.281 1050.95 857.102 1050.94 856.922C1050.93 856.87 1050.93 856.818 1050.93 856.766C1050.92 856.596 1050.91 856.427 1050.89 856.257C1050.88 856.196 1050.88 856.134 1050.87 856.073C1050.85 855.909 1050.83 855.745 1050.81 855.58L1050.75 855.239L1044.51 819.716C1044.41 819.144 1044.28 818.587 1044.11 818.046C1044.06 817.897 1044.01 817.75 1043.96 817.604C1043.87 817.326 1043.76 817.052 1043.65 816.784C1043.63 816.732 1043.6 816.681 1043.58 816.63C1043.48 816.391 1043.36 816.157 1043.25 815.927C1043.21 815.858 1043.17 815.79 1043.14 815.722C1043.12 815.693 1043.11 815.665 1043.09 815.637C1043.05 815.561 1043.01 815.487 1042.97 815.412C1042.95 815.387 1042.94 815.363 1042.93 815.338C1042.91 815.31 1042.89 815.282 1042.88 815.254C1042.84 815.188 1042.8 815.122 1042.76 815.058C1042.74 815.023 1042.72 814.988 1042.7 814.953C1042.66 814.896 1042.63 814.84 1042.59 814.783C1042.57 814.751 1042.55 814.719 1042.53 814.687C1042.37 814.453 1042.21 814.224 1042.05 814.002C1042.01 813.961 1041.98 813.92 1041.95 813.879C1041.91 813.83 1041.88 813.782 1041.84 813.734C1041.8 813.685 1041.76 813.637 1041.72 813.588C1041.7 813.561 1041.68 813.535 1041.66 813.509C1041.62 813.46 1041.58 813.412 1041.54 813.363C1041.5 813.324 1041.47 813.284 1041.43 813.245C1041.4 813.204 1041.36 813.162 1041.32 813.121C1041.29 813.086 1041.26 813.051 1041.23 813.017C1041.19 812.978 1041.16 812.94 1041.12 812.902C1041 812.773 1040.88 812.645 1040.75 812.521C1040.74 812.505 1040.72 812.49 1040.71 812.475C1040.66 812.424 1040.6 812.375 1040.55 812.325C1040.43 812.207 1040.3 812.091 1040.17 811.979C1040.14 811.953 1040.12 811.928 1040.09 811.902C1039.96 811.789 1039.82 811.679 1039.69 811.571C1039.66 811.55 1039.63 811.529 1039.61 811.508C1039.47 811.396 1039.32 811.286 1039.17 811.18C1039.15 811.162 1039.13 811.144 1039.1 811.127C1038.95 811.022 1038.8 810.92 1038.65 810.82C1038.63 810.804 1038.6 810.787 1038.58 810.771C1038.42 810.669 1038.26 810.572 1038.1 810.478C1038.08 810.468 1038.07 810.457 1038.05 810.447C1037.89 810.356 1037.73 810.267 1037.57 810.182C1037.53 810.161 1037.49 810.141 1037.45 810.121C1037.3 810.043 1037.15 809.968 1037 809.896C1036.82 809.814 1036.65 809.737 1036.47 809.663C1036.47 809.662 1036.47 809.661 1036.47 809.66C1036.4 809.632 1036.33 809.604 1036.26 809.577C1036.22 809.56 1036.18 809.541 1036.13 809.524C1035.97 809.461 1035.8 809.401 1035.63 809.344C1035.59 809.331 1035.55 809.317 1035.52 809.305C1035.48 809.292 1035.44 809.28 1035.4 809.268C1035.33 809.245 1035.26 809.223 1035.19 809.202C1035.16 809.192 1035.12 809.182 1035.09 809.172C1035.03 809.154 1034.97 809.136 1034.91 809.119C1034.83 809.097 1034.75 809.076 1034.67 809.056C1034.66 809.052 1034.64 809.049 1034.63 809.045C1034.63 809.044 1034.62 809.043 1034.62 809.042C1034.54 809.02 1034.45 809 1034.36 808.98C1034.34 808.975 1034.32 808.969 1034.3 808.964C1034.21 808.945 1034.13 808.928 1034.05 808.911C1034.02 808.905 1034 808.898 1033.97 808.893C1033.93 808.885 1033.9 808.879 1033.86 808.872C1033.79 808.858 1033.72 808.845 1033.65 808.832C1033.29 808.768 1032.92 808.719 1032.55 808.685C1032.47 808.678 1032.4 808.672 1032.32 808.666C1032.32 808.666 1032.31 808.665 1032.31 808.665C1032.24 808.66 1032.18 808.656 1032.12 808.652C1032.08 808.65 1032.04 808.647 1032 808.646C1031.97 808.644 1031.93 808.643 1031.9 808.642C1031.83 808.639 1031.75 808.635 1031.68 808.633C1031.62 808.631 1031.56 808.632 1031.5 808.631C1031.46 808.63 1031.41 808.629 1031.37 808.629H1031.26ZM914.879 770.972C904.892 770.972 896.796 779.067 896.796 789.054C896.796 799.04 904.892 807.137 914.879 807.137C924.866 807.137 932.961 799.04 932.961 789.054C932.961 779.067 924.866 770.972 914.879 770.972ZM1001.67 770.972C991.687 770.972 983.592 779.067 983.592 789.054C983.592 799.04 991.687 807.137 1001.67 807.137C1011.66 807.137 1019.76 799.04 1019.76 789.054C1019.76 779.067 1011.66 770.972 1001.67 770.972ZM1050.92 773.012C1045.61 773.012 1041.31 777.315 1041.31 782.623C1041.31 787.931 1045.61 792.233 1050.92 792.233C1056.23 792.233 1060.53 787.931 1060.53 782.623C1060.53 777.315 1056.23 773.012 1050.92 773.012ZM866.731 742.389C864.972 742.389 861.732 743.091 859.898 743.525C859.096 743.715 858.541 744.436 858.541 745.26V755.237C858.541 756.238 857.73 757.049 856.729 757.049H846.766C846.011 757.049 845.337 757.516 845.124 758.24C844.689 759.717 844.044 762.384 844.044 765.193C844.044 768.002 844.689 770.668 845.123 772.145C845.336 772.869 846.011 773.338 846.766 773.338H856.729C857.73 773.338 858.541 774.148 858.541 775.148V785.125C858.541 785.875 859.002 786.546 859.717 786.771C861.248 787.254 864.042 787.999 866.686 787.999C869.329 787.999 872.122 787.254 873.653 786.771C874.368 786.546 874.83 785.875 874.83 785.125V775.148C874.83 774.148 875.641 773.338 876.641 773.338H886.625C887.371 773.338 888.038 772.88 888.253 772.166C888.687 770.722 889.328 768.1 889.328 765.193C889.328 762.286 888.687 759.664 888.253 758.22C888.038 757.506 887.371 757.049 886.626 757.049H876.641C875.64 757.049 874.83 756.237 874.83 755.237V745.254C874.83 744.432 874.277 743.714 873.479 743.522C871.67 743.088 868.486 742.389 866.731 742.389ZM958.723 754.768C952.875 754.768 948.135 759.508 948.135 765.355C948.135 771.203 952.875 775.943 958.723 775.943C964.57 775.943 969.311 771.203 969.311 765.355C969.31 759.508 964.57 754.768 958.723 754.768ZM1033.33 755.42C1028.02 755.42 1023.72 759.722 1023.72 765.03C1023.72 770.338 1028.02 774.641 1033.33 774.641C1038.63 774.641 1042.94 770.338 1042.94 765.03C1042.94 759.723 1038.63 755.42 1033.33 755.42ZM1068.18 755.42C1062.88 755.42 1058.57 759.723 1058.57 765.03C1058.57 770.338 1062.88 774.641 1068.18 774.641C1073.49 774.641 1077.79 770.338 1077.79 765.03C1077.79 759.723 1073.49 755.42 1068.18 755.42ZM1050.59 738.479C1045.28 738.479 1040.98 742.782 1040.98 748.09C1040.98 753.397 1045.29 757.7 1050.59 757.7C1055.9 757.7 1060.2 753.397 1060.2 748.09C1060.2 742.782 1055.9 738.479 1050.59 738.479Z"/>
  <circle fill="currentColor" cx="914.883" cy="789.054" r="13.7428"/>
  <circle fill="currentColor" cx="1001.68" cy="789.054" r="13.7428"/>
  <path stroke="#1A9FFF" d="M995.75 682.528C993.634 674.631 988.971 667.652 982.485 662.675C975.998 657.698 968.051 655 959.875 655C951.699 655 943.751 657.698 937.265 662.675C930.778 667.652 926.115 674.631 923.999 682.528M983.662 685.767C982.259 680.53 979.167 675.903 974.866 672.602C970.565 669.302 965.295 667.513 959.874 667.513C954.453 667.513 949.183 669.302 944.882 672.602C940.581 675.903 937.489 680.53 936.086 685.767M970.311 689.344C969.696 687.047 968.339 685.017 966.452 683.569C964.565 682.121 962.253 681.336 959.875 681.336C957.496 681.336 955.184 682.121 953.297 683.569C951.411 685.017 950.054 687.047 949.438 689.344" stroke-width="5.06467" stroke-linecap="round"/>
  <rect fill="currentColor" x="855" y="266" width="44.2764" height="39"/>
  <rect stroke="currentColor" x="863.5" y="241.5" width="27" height="55" stroke-width="3"/>
  <path stroke="currentColor" d="M962.968 456.4C962.968 440.605 975.747 427.8 991.542 427.8C1019.84 427.8 1064.26 427.8 1101.81 427.8C1109.66 427.8 1116 421.442 1116 413.6C1116 405.758 1109.64 399.4 1101.8 399.4H889.899C882.223 399.4 875.999 393.177 875.999 385.5C875.999 377.823 882.223 371.6 889.899 371.6H1102.3C1109.87 371.6 1116 365.466 1116 357.9C1116 350.334 1109.93 344.2 1102.36 344.2C1066.97 344.2 971.071 344.2 915.338 344.2C893.136 344.2 875.199 326.202 875.199 304" stroke-width="8.8"/>
  <path fill="currentColor" d="M1004.2 469.6C1013.92 469.6 1021.8 477.48 1021.8 487.2V500.4C1021.8 510.12 1013.92 518.001 1004.2 518.001H920.6C910.88 518.001 903 510.12 903 500.4V487.2C903 477.48 910.88 469.601 920.6 469.6H1004.2ZM943.303 482.564C940.96 482.564 939.06 484.463 939.06 486.806C939.06 489.15 940.959 491.05 943.303 491.05C945.646 491.049 947.545 489.15 947.545 486.806C947.545 484.463 945.646 482.564 943.303 482.564ZM962.397 482.564C960.054 482.564 958.155 484.463 958.154 486.806C958.154 489.15 960.054 491.049 962.397 491.05C964.741 491.05 966.641 489.15 966.641 486.806C966.64 484.463 964.741 482.564 962.397 482.564ZM979.37 482.564C977.027 482.564 975.127 484.463 975.127 486.806C975.127 489.15 977.027 491.049 979.37 491.05C981.713 491.05 983.613 489.15 983.613 486.806C983.613 484.463 981.713 482.564 979.37 482.564Z"/>
  <rect fill="currentColor" x="954" y="452" width="17.6" height="19.75"/>
  <path stroke="#1A9FFF" d="M998.75 543.816C996.634 551.714 991.971 558.692 985.485 563.669C978.998 568.647 971.051 571.344 962.875 571.344C954.699 571.344 946.751 568.647 940.265 563.669C933.778 558.692 929.115 551.714 926.999 543.816M986.662 540.578C985.259 545.815 982.167 550.442 977.866 553.742C973.565 557.042 968.295 558.831 962.874 558.831C957.453 558.831 952.183 557.042 947.882 553.742C943.581 550.442 940.489 545.815 939.086 540.578M973.311 537C972.696 539.297 971.339 541.328 969.452 542.775C967.565 544.223 965.253 545.008 962.875 545.008C960.496 545.008 958.184 544.223 956.297 542.775C954.411 541.328 953.054 539.297 952.438 537" stroke-width="5.06467" stroke-linecap="round"/>
  <path fill="currentColor" d="M1193 141H728V0H1193V141ZM1155 77C1143.95 77 1135 85.9543 1135 97C1135 108.046 1143.95 117 1155 117C1166.05 117 1175 108.046 1175 97C1175 85.9543 1166.05 77 1155 77ZM771 107H821V87H771V107ZM852 107H902V87H852V107Z"/>
  <path fill="currentColor" d="M1029.83 813.756C1034.49 812.937 1038.94 816.055 1039.76 820.72L1045.99 856.243C1046.81 860.908 1043.69 865.355 1039.03 866.174L1001.92 872.689C997.258 873.508 992.811 870.39 991.992 865.724L985.756 830.201C984.937 825.535 988.055 821.089 992.72 820.27L1029.83 813.756Z"/>
  <path fill="currentColor" d="M877.679 820.22C878.499 815.555 882.945 812.437 887.61 813.256L924.716 819.77C929.381 820.589 932.5 825.035 931.68 829.701L925.444 865.224C924.625 869.89 920.178 873.008 915.512 872.189L878.407 865.674C873.742 864.855 870.624 860.408 871.443 855.743L877.679 820.22Z"/>
  <path fill="currentColor" d="M949.348 764.406L954.95 766.726C955.423 766.397 956.001 766.212 956.611 766.212C956.667 766.212 956.723 766.212 956.78 766.212L959.268 762.6C959.268 762.6 959.268 762.568 959.268 762.552C959.268 760.377 961.033 758.612 963.208 758.612C965.383 758.612 967.149 760.377 967.149 762.552C967.149 764.727 965.383 766.493 963.208 766.493C963.176 766.493 963.152 766.493 963.12 766.493L959.565 769.029C959.565 769.077 959.565 769.125 959.565 769.166C959.565 770.795 958.24 772.127 956.603 772.127C955.174 772.127 953.971 771.108 953.706 769.752L949.701 768.098"/>
  <path fill="black" d="M955.894 770.65L954.609 770.121C954.834 770.594 955.227 770.987 955.757 771.212C956.889 771.686 958.189 771.148 958.662 770.016C958.887 769.471 958.895 768.869 958.662 768.315C958.438 767.769 958.012 767.336 957.467 767.111C956.921 766.886 956.343 766.894 955.829 767.087L957.154 767.633C957.988 767.978 958.382 768.933 958.036 769.768C957.691 770.602 956.728 770.996 955.902 770.65H955.894Z"/>
  <path fill="black" d="M965.839 762.552C965.839 761.108 964.659 759.928 963.214 759.928C961.77 759.928 960.59 761.108 960.59 762.552C960.59 763.997 961.77 765.177 963.214 765.177C964.659 765.177 965.839 763.997 965.839 762.552ZM961.24 762.544C961.24 761.453 962.123 760.57 963.214 760.57C964.306 760.57 965.189 761.453 965.189 762.544C965.189 763.636 964.306 764.519 963.214 764.519C962.123 764.519 961.24 763.636 961.24 762.544Z"/>
</svg>
