<?xml version="1.0"?>
<svg viewBox="0 0 20 20" fill="none" xmlns="http://www.w3.org/2000/svg">
  <path fill-rule="evenodd" clip-rule="evenodd" d="M17.3972 11.2461L18.8767 11.4932C18.9578 11.0075 19 10.5087 19 10C19 9.49131 18.9578 8.99248 18.8767 8.50682L17.3972 8.75386C17.4647 9.15821 17.5 9.57442 17.5 10C17.5 10.4256 17.4647 10.8418 17.3972 11.2461ZM17.0295 7.3783L18.4348 6.8539C18.0814 5.90668 17.5729 5.03501 16.9403 4.26971L15.7842 5.22538C16.3119 5.86387 16.7354 6.59021 17.0295 7.3783ZM14.7746 4.21582L15.7303 3.05967C14.965 2.42708 14.0933 1.91864 13.1461 1.56519L12.6217 2.97054C13.4098 3.26461 14.1361 3.68805 14.7746 4.21582ZM11.2461 2.60281L11.4932 1.1233C11.0075 1.0422 10.5087 1 10 1C9.49131 1 8.99248 1.0422 8.50682 1.1233L8.75386 2.60281C9.15821 2.5353 9.57442 2.5 10 2.5C10.4256 2.5 10.8418 2.5353 11.2461 2.60281ZM7.3783 2.97054L6.8539 1.56519C5.90668 1.91864 5.03501 2.42708 4.26971 3.05967L5.22538 4.21582C5.86387 3.68805 6.59021 3.26461 7.3783 2.97054ZM4.21582 5.22538L3.05967 4.26971C2.42708 5.03501 1.91864 5.90668 1.56519 6.8539L2.97054 7.3783C3.26461 6.59022 3.68805 5.86387 4.21582 5.22538ZM1 10C1 9.49131 1.0422 8.99248 1.1233 8.50682L2.60281 8.75386C2.5353 9.15821 2.5 9.57442 2.5 10C2.5 10.4256 2.5353 10.8418 2.60281 11.2461L1.1233 11.4932C1.0422 11.0075 1 10.5087 1 10ZM2.97054 12.6217L1.56519 13.1461C1.91864 14.0933 2.42708 14.965 3.05967 15.7303L4.21582 14.7746C3.68805 14.1361 3.26461 13.4098 2.97054 12.6217ZM5.22538 15.7842L4.26971 16.9403C5.03501 17.5729 5.90668 18.0814 6.8539 18.4348L7.3783 17.0295C6.59022 16.7354 5.86387 16.3119 5.22538 15.7842ZM8.75386 17.3972L8.50682 18.8767C8.99248 18.9578 9.49131 19 10 19C10.5087 19 11.0075 18.9578 11.4932 18.8767L11.2461 17.3972C10.8418 17.4647 10.4256 17.5 10 17.5C9.57442 17.5 9.15821 17.4647 8.75386 17.3972ZM12.6217 17.0295L13.1461 18.4348C14.0933 18.0814 14.965 17.5729 15.7303 16.9403L14.7746 15.7842C14.1361 16.3119 13.4098 16.7354 12.6217 17.0295ZM15.7842 14.7746L16.9403 15.7303C17.5729 14.965 18.0814 14.0933 18.4348 13.1461L17.0295 12.6217C16.7354 13.4098 16.3119 14.1361 15.7842 14.7746ZM9.2425 14.7702C9.46679 14.92 9.73048 15 10.0002 15C10.362 15 10.7089 14.8563 10.9646 14.6006C11.2204 14.3448 11.3641 13.998 11.3641 13.6363C11.3641 13.3666 11.2841 13.1029 11.1343 12.8787C10.9844 12.6544 10.7714 12.4796 10.5222 12.3764C10.2729 12.2732 9.99872 12.2462 9.73415 12.2988C9.46958 12.3514 9.22656 12.4813 9.03582 12.672C8.84508 12.8628 8.71518 13.1057 8.66255 13.3703C8.60993 13.6348 8.63694 13.909 8.74016 14.1582C8.84339 14.4074 9.01821 14.6203 9.2425 14.7702ZM11.0981 10.3552C11.1722 10.2348 11.2765 10.1358 11.4005 10.068C11.8099 9.82315 12.1479 9.47526 12.3808 9.05903C12.6137 8.64279 12.7333 8.17276 12.7278 7.69584C12.7223 7.21892 12.5918 6.75179 12.3493 6.34105C12.1069 5.93031 11.7609 5.59033 11.346 5.35502C10.9311 5.11972 10.4617 4.99732 9.98466 5.00004C9.50764 5.00277 9.03969 5.13052 8.62748 5.37054C8.21527 5.61057 7.87321 5.95448 7.63545 6.36796C7.39769 6.78144 7.27253 7.25004 7.27246 7.72699H9.23191C9.23191 7.6261 9.25178 7.52621 9.29039 7.43301C9.32901 7.3398 9.3856 7.25511 9.45694 7.18378C9.52829 7.11244 9.61299 7.05586 9.70621 7.01725C9.79942 6.97865 9.89933 6.95878 10.0002 6.95878C10.1659 6.96387 10.3255 7.02207 10.4556 7.12479C10.5856 7.22751 10.6792 7.3693 10.7225 7.52925C10.7658 7.6892 10.7565 7.85883 10.6961 8.01311C10.6356 8.16739 10.5271 8.29816 10.3867 8.3861C9.97322 8.62846 9.63003 8.97429 9.39088 9.38955C9.15173 9.80482 9.02487 10.2752 9.02278 10.7544V11.3635H10.9777V10.7544C10.9825 10.6131 11.024 10.4755 11.0981 10.3552Z" fill="currentColor"/>
</svg>
