<?xml version="1.0"?>
<svg version="1.1" id="Layer_5" xmlns="http://www.w3.org/2000/svg" x="0px" y="0px" width="256px" height="255.999px" viewBox="0 0 256 255.999">
  <path d="M165.678,20.535c-17.251,0-31.386,14.135-31.386,31.386c0,17.252,14.135,31.386,31.386,31.386 c17.251,0,31.386-14.134,31.386-31.386C197.063,34.67,182.929,20.535,165.678,20.535z"/>
  <path d="M165.678,93.121c24.995,0,45.335,20.34,45.335,45.335v52.31c0,3.853-3.123,6.975-6.975,6.975h-13.95v34.874 c0,3.852-3.123,6.974-6.974,6.975h-34.874c-3.852-0.001-6.974-3.123-6.975-6.975v-34.874h-13.95c-3.852,0-6.974-3.123-6.974-6.975 v-52.31C120.343,113.461,140.683,93.121,165.678,93.121z"/>
  <g>
    <line fill="none" stroke="#ffffff" stroke-width="22" stroke-miterlimit="10" x1="14" y1="128" x2="101.5" y2="128"/>
    <line fill="none" stroke="#ffffff" stroke-width="22" stroke-miterlimit="10" x1="57.75" y1="84.25" x2="57.75" y2="171.75"/>
  </g>
</svg>
