<?xml version="1.0"?>
<svg xmlns="http://www.w3.org/2000/svg" version="1.1" x="0px" y="0px" viewBox="0 0 600 600">
  <g>
    <path d="M256,0C126.6,0,21.3,104.7,21.3,233.7c0,65.9,26.5,125.4,74.7,168.3v99.3c0,3.8,2,7.4,5.3,9.2c1.7,1,3.5,1.5,5.3,1.5   c1.8,0,3.7-0.5,5.4-1.5l85.8-50.3c18.9,4.8,38.4,7.3,58.1,7.3c129.4,0,234.7-104.9,234.7-233.7C490.7,104.7,385.4,0,256,0z    M405.3,254.1L370,260c-3,13.5-8.3,26-15.5,37.3l20.8,29.2L347.8,354l-29.2-20.8c-11.3,7.2-23.8,12.5-37.3,15.5l-5.9,35.3h-39   l-5.9-35.3c-13.5-3-26-8.3-37.3-15.5L164.2,354l-27.5-27.5l20.8-29.2C150.3,286,145,273.5,142,260l-35.3-5.9v-39l35.3-5.9   c3-13.5,8.3-26,15.5-37.3l-20.8-29.2l27.5-27.5l29.2,20.8c11.3-7.2,23.8-12.5,37.3-15.5l5.9-35.3h39l5.9,35.3   c13.5,3,26,8.3,37.3,15.5l29.2-20.8l27.5,27.5L354.5,172c7.2,11.3,12.5,23.8,15.5,37.3l35.3,5.9V254.1z"/>
    <circle cx="256" cy="234.6" r="45.9"/>
  </g>
</svg>
