<?xml version="1.0"?>
<svg xmlns="http://www.w3.org/2000/svg" viewBox="0 0 81.466 32">
  <path fill="currentColor" d="M80.762,7.29c0.032,0.032,0.063,0.079,0.094,0.141
				c0.063,0.063,0.125,0.11,0.188,0.142c0,0.062,0,0.125,0,0.187c0.032,0.031,0.078,0.078,0.142,0.141
				c0,0.032,0.016,0.047,0.046,0.047c0.032,0,0.063,0.016,0.095,0.049c0,0.03,0.015,0.062,0.047,0.09
				c0.03,0.033,0.063,0.048,0.093,0.048v0.048c0,0.032,0,0.063,0,0.093c0,0.032,0,0.062,0,0.095v0.048c0,0.031,0,0.062,0,0.092
				c0,0.032,0,0.063,0,0.094L81.42,8.653c0,0.03,0.016,0.046,0.046,0.046c0,0.031,0,0.062,0,0.093s0,0.063,0,0.094
				c0,0.032-0.016,0.063-0.046,0.094c0,0.032-0.017,0.063-0.047,0.093l-0.094,0.048c-0.031,0-0.063,0-0.094,0h-0.047l0.047,0.046
				c0,0.032,0,0.063,0,0.095c0,0.03,0,0.063,0,0.093c-0.032,0-0.047,0.016-0.047,0.047c0,0.031-0.017,0.047-0.048,0.047
				c-0.031,0.031-0.047,0.063-0.047,0.094c-0.031,0-0.063,0-0.093,0v0.047c-0.032,0-0.063,0-0.094,0
				c0,0.032-0.014,0.047-0.046,0.047h-0.047c-0.846,0.031-1.674,0.047-2.488,0.047l-0.046,0.047c-0.063,0-0.111,0-0.143,0h-0.046
				c-0.031,0-0.063,0-0.094,0s-0.063,0-0.095,0c-6.573,0.03-13.116,0.063-19.626,0.094c-0.031,0-0.063,0-0.094,0v0.046
				c0,0.032,0,0.063,0,0.094v0.094c0,0.032,0,0.063,0,0.095s0,0.062,0,0.092v0.049c0,0.03-0.015,0.062-0.046,0.092
				c0,0.033-0.016,0.063-0.047,0.094v0.283c0,0.031,0,0.062,0,0.093v0.047c0,0.031,0,0.063,0,0.094c0,0.032,0,0.063,0,0.094v0.094
				c0,0.033,0,0.064,0,0.095v0.14c0.031,0,0.064,0,0.094,0c0.032,0,0.063,0.017,0.094,0.048h0.046
				c0.031,0.03,0.08,0.046,0.142,0.046c0.03,0,0.062,0.014,0.093,0.046c0.03,0.03,0.047,0.063,0.047,0.094H58.6
				c0,0.032,0,0.063,0,0.094v0.047c0.031,0,0.063,0,0.093,0v0.047c0,0.03,0,0.063,0,0.095c0,0.03,0.017,0.062,0.047,0.093v0.046
				l0.047,0.047c-0.063,0.032-0.094,0.063-0.094,0.094v0.094c0,0.031,0,0.063,0,0.093c0,0.033,0,0.063,0,0.096v0.093
				c0,0.031,0,0.062,0,0.094v0.093c0,0.032,0,0.064,0,0.095c0,0.032,0,0.063,0,0.096v0.045c0,0.032,0,0.063,0,0.093
				c0,0.033,0,0.063,0,0.095v0.046c0,0.031,0,0.063,0,0.095v0.047c0,0.031,0,0.063,0,0.093c0,0.031,0,0.063,0,0.096
				c0,0.031,0,0.063,0,0.093v0.045c0,0.032,0,0.064,0,0.095c0,0.031,0,0.062,0,0.093c0,0.033,0,0.063,0,0.095
				c0,0.032,0,0.063,0,0.094v0.046c0,0.032,0,0.063,0,0.094c0,0.032,0,0.063,0,0.094v0.14c0,0.034,0,0.065,0,0.096v0.046
				c0,0.031,0,0.063,0,0.093c0,0.034,0,0.063,0,0.095v0.046c0,0.031,0,0.062,0,0.093c0,0.033,0,0.063,0,0.095
				c0,0.033,0,0.063,0,0.094s0,0.063,0,0.094v0.047l-0.045,0.046v0.047c-0.063,0-0.112,0.016-0.143,0.048c-0.093,0-0.188,0-0.281,0
				c-0.031,0-0.078-0.016-0.141-0.048h-0.047v0.048c0,0.031,0,0.063,0,0.094v0.047c0,0.03,0,0.063,0,0.093c0,0.032,0,0.065,0,0.095
				v0.046c0,0.031,0,0.063,0,0.093c0,0.032,0,0.064,0,0.095s0,0.062,0,0.093c0,0.031,0,0.063,0,0.094v0.094c0,0.031,0,0.062,0,0.093
				v0.047c0,0.032,0,0.063,0,0.094v0.046c0,0.032,0,0.063,0,0.095v0.046c0,0.033,0,0.063,0,0.094c0,0.031,0,0.063,0,0.095v0.047
				c0,0.03,0,0.063,0,0.093c0,0.031,0,0.063,0,0.095c0,0.03,0,0.062,0,0.093v0.095c0,0.032,0,0.063,0,0.094c0,0.031,0,0.062,0,0.093
				v0.048c0,0.032,0,0.063,0,0.093v0.048c-0.031,0.031-0.048,0.063-0.048,0.094v0.047h0.142l0.047,0.046
				c0.032,0,0.062,0.016,0.093,0.048c0,0.031,0,0.063,0,0.094l0.046,0.046c0,0.033,0.017,0.063,0.048,0.095v0.045
				c0,0.033,0.016,0.048,0.047,0.048h0.045c0.031,0.031,0.047,0.062,0.047,0.095c0,0.032,0,0.062,0,0.093v0.048
				c0,0.03-0.016,0.062-0.047,0.094l-0.045,0.046c0,0.032,0,0.063,0,0.094v0.048c0,0.031,0,0.062,0,0.093c0,0.032,0,0.063,0,0.094
				v0.095c0,0.03,0,0.062,0,0.093c0,0.031,0,0.063,0,0.094c0,0.033,0,0.063,0,0.095v0.046c0,0.03,0,0.063,0,0.094
				c0,0.032,0,0.063,0,0.095v0.046c0,0.03,0,0.063,0,0.094v0.047c0,0.032,0,0.063,0,0.093v0.046c0,0.033,0,0.063,0,0.095v0.095
				c0,0.031,0,0.063,0,0.094c0,0.031,0,0.062,0,0.093v0.093c0,0.033,0,0.064,0,0.095c0,0.031,0,0.062,0,0.093v0.048
				c0,0.033,0,0.064,0,0.095c0,0.032,0,0.063,0,0.094v0.186c0,0.033,0,0.063,0,0.095c0,0.032,0,0.064,0,0.095v0.047
				c0,0.03,0,0.063,0,0.095c0,0.031,0,0.063,0,0.093v0.093c0,0.032,0,0.063,0,0.094c0,0.032,0,0.062,0,0.093v0.047
				c0,0.032,0,0.064,0,0.096v0.139c0,0.031,0,0.062,0,0.095c0,0.03,0,0.063,0,0.093v0.046c0,0.031,0,0.063,0,0.095
				c0,0.031,0,0.062,0,0.094v0.046c0,0.031,0,0.063,0,0.094v0.094c0,0.031,0,0.061,0,0.093v0.096c0,0.03,0,0.062,0,0.092
				c0,0.031,0,0.063,0,0.094v0.095c0,0.03,0,0.061,0,0.093c0,0.031,0,0.063,0,0.095v0.045c0,0.032,0,0.063,0,0.095s0,0.063,0,0.093
				v0.047c0,0.032,0,0.063,0,0.094v0.048c0,0.03,0,0.062,0,0.093c0,0.032,0,0.063,0,0.095v0.047c0,0.031,0,0.063,0,0.093
				c0,0.032,0,0.063,0,0.094v0.094c0,0.032,0,0.063,0,0.095c0,0.03,0,0.063,0,0.093v0.046c0,0.033,0,0.064,0,0.096v0.093
				c0,0.031,0,0.062,0,0.094v0.047c0,0.03,0,0.063,0,0.093v0.047c0,0.031,0,0.063,0,0.093c0,0.032,0,0.064,0,0.095v0.047
				c0,0.032,0,0.062,0,0.093s0,0.063,0,0.095c0,0.031,0,0.063,0,0.093s0,0.061,0,0.093c0,0.032,0,0.065,0,0.096
				c0,0.031,0,0.062,0,0.093v0.046c0,0.033,0,0.064,0,0.095v0.045c0,0.032,0,0.062,0,0.095v0.047c0,0.032,0,0.063,0,0.094
				c0,0.031,0,0.062,0,0.094v0.047c0,0.032,0,0.062,0,0.093c0,0.031,0,0.063,0,0.094v0.047c0,0.031,0,0.061,0,0.093
				c0,0.03,0,0.063,0,0.094v0.047c0,0.032,0,0.063,0,0.094s0,0.063,0,0.094v0.093c0,0.032,0,0.064,0,0.095v0.047
				c0,0.032,0,0.063,0,0.094s0,0.063,0,0.093c0,0.032,0,0.064,0,0.095c0,0.031,0,0.063,0,0.094v0.095c0,0.031,0,0.063,0,0.093
				c0,0.032,0,0.063,0,0.094v0.047c0,0.032,0,0.063,0,0.095c0,0.031,0,0.062,0,0.094v0.094c0,0.032,0,0.063,0,0.094v0.094
				c0,0.033,0,0.063,0,0.095v0.046c0,0.031,0,0.062,0,0.094c0,0.033,0,0.063,0,0.095v0.091c0,0.032,0,0.063,0,0.097
				c0,0.031,0,0.062,0,0.091v0.048c-0.032,0.031-0.047,0.063-0.047,0.095c0.031,0,0.063,0.015,0.093,0.046
				c0.031,0.031,0.047,0.062,0.047,0.094c0,0.031,0,0.062,0,0.094c0,0.03-0.016,0.062-0.047,0.094c-0.062,0-0.108,0-0.141,0
				c-0.124,0-0.25,0-0.375,0c-0.031,0.032-0.048,0.063-0.048,0.093c-0.031,0.033-0.062,0.063-0.093,0.094v0.047
				c0,0.031,0,0.062,0,0.093c0,0.032,0,0.063,0,0.094v0.048c0,0.031,0,0.062,0,0.093v0.048c0,0.031,0,0.063,0,0.094
				c0,0.03,0,0.062,0,0.093s0,0.063,0,0.094v0.048c0,0.03,0,0.062,0,0.092c0,0.032,0,0.065,0,0.096c0,0.032,0,0.063,0,0.094
				c0,0.032,0,0.063,0,0.094v0.047c0,0.031,0,0.063,0,0.093c0,0.032,0,0.063,0,0.095c0,0.031,0,0.062,0,0.093v0.047
				c0,0.031,0,0.063,0,0.095v0.047c0,0.031,0,0.062,0,0.093c0,0.031,0,0.063,0,0.094v0.047c0,0.032,0,0.062,0,0.093v0.048
				c0.031,0.033,0.077,0.047,0.141,0.047l0.046,0.047c0,0.031,0.017,0.063,0.048,0.093c-0.031,0.032-0.048,0.065-0.048,0.095
				c0,0.031-0.015,0.047-0.046,0.047c-0.063,0-0.11,0.014-0.141,0.046c-0.377,0-0.752,0-1.127,0
				c-0.063-0.033-0.11-0.046-0.143-0.046c-0.03,0-0.062-0.016-0.092-0.047c0-0.03,0-0.063,0-0.095c0-0.03,0-0.062,0-0.093
				c0.03,0,0.062-0.015,0.092-0.047c0.033,0,0.079-0.015,0.143-0.047h0.046c0-0.031,0-0.063,0-0.094v-0.047c0-0.03,0-0.063,0-0.093
				c0-0.031,0-0.063,0-0.094V31.19c0-0.031,0-0.064,0-0.095v-0.094c0-0.031,0-0.063,0-0.094c0-0.033,0-0.063,0-0.094V30.72
				c0-0.031,0-0.062,0-0.094c0-0.031,0-0.062,0-0.094v-0.047c0-0.032,0-0.062,0-0.094c0-0.031,0-0.062,0-0.094V30.25
				c0-0.031,0-0.063,0-0.093V30.11c0-0.031,0-0.063,0-0.094c0-0.031,0-0.063,0-0.095v-0.046c0-0.032,0-0.063,0-0.094
				c0-0.03,0-0.064,0-0.094V29.64h-0.046c0-0.031,0-0.063,0-0.093c-0.063-0.031-0.11-0.049-0.143-0.049
				c-0.03-0.03-0.045-0.061-0.045-0.093H56.44c-0.032,0-0.063,0-0.095,0c-0.062-0.032-0.11-0.064-0.141-0.094
				c0-0.032-0.016-0.063-0.048-0.094v-0.094l-0.046-0.046c0-0.033-0.016-0.064-0.047-0.095l-0.046-0.048c0-0.03,0-0.061,0-0.091
				c0-0.034-0.017-0.065-0.048-0.097v-0.091c0-0.032,0-0.063,0-0.095c0-0.032,0-0.063,0-0.094V28.42c0-0.032,0-0.063,0-0.095v-0.094
				c0-0.031,0-0.062,0-0.094v-0.094c0-0.032,0-0.063,0-0.094c0-0.031,0-0.063,0-0.095v-0.047c0-0.031,0-0.062,0-0.094
				c0-0.031,0-0.063,0-0.093v-0.095c0-0.031,0-0.063,0-0.094c0-0.03,0-0.063,0-0.095c0-0.03,0-0.062,0-0.093s0-0.062,0-0.094v-0.047
				c0-0.03,0-0.063,0-0.095v-0.093c0-0.03,0-0.063,0-0.094s0-0.062,0-0.094v-0.047c0-0.03,0-0.063,0-0.094c0-0.032,0-0.062,0-0.093
				v-0.047c0-0.031,0-0.063,0-0.094c0-0.031,0-0.062,0-0.093v-0.047c0-0.032,0-0.063,0-0.094c0-0.031,0-0.062,0-0.094v-0.047
				c0-0.033,0-0.063,0-0.095v-0.045c0-0.031,0-0.063,0-0.095v-0.046c0-0.031,0-0.062,0-0.093c0-0.03,0-0.063,0-0.096
				c0-0.032,0-0.062,0-0.093s0-0.063,0-0.093c0-0.032,0-0.064,0-0.095s0-0.061,0-0.093v-0.047c0-0.031,0-0.063,0-0.095
				c0-0.031,0-0.062,0-0.093v-0.047c0-0.031,0-0.063,0-0.093V24.71c0-0.032,0-0.063,0-0.094v-0.093c0-0.032,0-0.063,0-0.096v-0.046
				c0-0.031,0-0.063,0-0.093c0-0.033,0-0.063,0-0.095v-0.094c0-0.031,0-0.062,0-0.094c0-0.031,0-0.062,0-0.093v-0.047
				c0-0.032,0-0.063,0-0.095c0-0.031,0-0.063,0-0.093V23.63c0-0.031,0-0.063,0-0.094v-0.047c0-0.03,0-0.062,0-0.093s0-0.063,0-0.095
				v-0.045c0-0.033,0-0.064,0-0.095c0-0.032,0-0.063,0-0.093v-0.095c0-0.031,0-0.063,0-0.094c0-0.03,0-0.062,0-0.092V22.69
				c0-0.032,0-0.062,0-0.093v-0.094c0-0.031,0-0.063,0-0.094v-0.046c0-0.032,0-0.063,0-0.094c0-0.032,0-0.064,0-0.095v-0.046
				c0-0.031,0-0.063,0-0.093c0-0.033,0-0.064,0-0.095V21.8c0-0.032,0-0.064,0-0.096v-0.047c0-0.032,0-0.062,0-0.093
				c0-0.031,0-0.062,0-0.094v-0.093c0-0.031,0-0.062,0-0.093c0-0.032,0-0.065,0-0.095v-0.047c0-0.031,0-0.063,0-0.095
				c0-0.031,0-0.062,0-0.095v-0.186c0-0.031,0-0.062,0-0.094c0-0.03,0-0.062,0-0.095V20.53c0-0.031,0-0.062,0-0.093
				c0-0.031,0-0.062,0-0.095V20.25c0-0.031,0-0.063,0-0.093c0-0.031,0-0.063,0-0.094v-0.095c0-0.032,0-0.062,0-0.095v-0.046
				c0-0.031,0-0.062,0-0.093v-0.047c0-0.031,0-0.064,0-0.094v-0.046c0-0.031,0-0.063,0-0.095c0-0.031,0-0.064,0-0.094v-0.046
				c0-0.032,0-0.062,0-0.095c0-0.03,0-0.063,0-0.094c0-0.032,0-0.063,0-0.093v-0.095c0-0.031,0-0.063,0-0.094
				c0-0.031,0-0.062,0-0.093V18.7c0-0.031,0-0.062,0-0.094V18.56c0-0.033,0-0.064,0-0.094v-0.048c0-0.031,0-0.062,0-0.093
				c0-0.033,0-0.063,0-0.095s0-0.063,0-0.093V18.09c0-0.031,0.016-0.048,0.048-0.048c0.031,0,0.078,0,0.139,0v-0.046
				c0-0.031,0-0.063,0-0.094c0.032-0.032,0.048-0.063,0.048-0.094c0.03,0,0.062-0.016,0.093-0.047l0.048-0.047v-0.094
				c0-0.03,0-0.061,0-0.093v-0.094c0-0.032,0-0.063,0-0.093v-0.048c0-0.031,0-0.063,0-0.095v-0.093c0-0.032,0-0.064,0-0.095
				c0-0.03,0-0.063,0-0.093v-0.095c0-0.031,0-0.062,0-0.093s0-0.063,0-0.094v-0.048c0-0.031,0-0.063,0-0.094
				c0-0.031,0-0.062,0-0.094v-0.187c0-0.032,0-0.063,0-0.096c0-0.03,0-0.063,0-0.093v-0.047c0-0.031,0-0.063,0-0.095
				c0-0.031,0-0.062,0-0.093v-0.093c0-0.032,0-0.063,0-0.094c0-0.032,0-0.062,0-0.094V15.46c0-0.032,0-0.063,0-0.095
				c-0.031,0-0.062,0-0.093,0s-0.063,0-0.095,0c-0.062,0-0.124,0-0.187,0c-0.031,0-0.063,0-0.094,0v0.048l-0.094-0.095v-0.046
				c0-0.032,0-0.063,0-0.094c0-0.032,0-0.063,0-0.094v-0.047c0-0.032,0-0.062,0-0.095c0-0.031,0-0.062,0-0.093v-0.093
				c0.032-0.03,0.048-0.064,0.048-0.094c0-0.031,0.016-0.047,0.046-0.047c-0.03-0.031-0.063-0.046-0.094-0.046
				c0-0.03,0-0.062,0-0.096V14.38c0.032,0,0.048-0.017,0.048-0.047c0-0.03,0.016-0.062,0.046-0.094c0-0.031,0-0.062,0-0.094v-0.046
				c0-0.031,0-0.062,0-0.094c0-0.031,0-0.062,0-0.095c0-0.031-0.016-0.062-0.046-0.093c0-0.031-0.016-0.063-0.048-0.095v-0.045
				c0-0.031,0-0.063,0-0.093c0-0.032,0-0.064,0-0.096c0-0.03,0-0.062,0-0.093c0.032,0,0.064,0,0.094,0
				c-0.03-0.032-0.063-0.047-0.094-0.047l-0.047-0.095c-0.062,0-0.124-0.016-0.187-0.046L55.5,13.16
				c-0.03-0.032-0.062-0.063-0.092-0.095c0-0.03,0-0.063,0-0.092c0-0.033,0-0.064,0-0.096c0-0.03-0.016-0.063-0.047-0.095
				c0-0.03-0.015-0.045-0.048-0.045c0-0.032,0-0.063,0-0.096v-0.093l-0.094-0.094c-0.031,0.032-0.078,0.048-0.141,0.048v0.093
				c0,0.031,0,0.062,0,0.094v0.093c0,0.032-0.015,0.064-0.047,0.095c0,0.032-0.016,0.063-0.046,0.096l-0.046,0.045
				c-0.063,0.032-0.11,0.047-0.141,0.047c-0.125,0.032-0.234,0.063-0.328,0.095c-0.032,0.031-0.064,0.046-0.095,0.046v0.046
				c0,0.031,0,0.063,0,0.095c0,0.031,0,0.063,0,0.094s-0.015,0.045-0.045,0.045l-0.048,0.047c0,0.032-0.015,0.063-0.047,0.095
				c0,0.03-0.015,0.046-0.046,0.046c-0.032,0-0.048,0.015-0.048,0.045h-0.094c-0.063,0.032-0.141,0.048-0.235,0.048l-0.047,0.047
				c-0.031,0-0.063,0-0.092,0c-0.063,0-0.126-0.016-0.189-0.047v-0.048c-0.062,0-0.125,0-0.188,0c-0.032,0-0.047,0.016-0.047,0.048
				L53.2,13.817h-0.093c-0.031,0-0.063,0-0.095,0c-0.094,0-0.156,0-0.188,0c-0.156,0-0.296,0-0.423,0c-0.03,0-0.062,0-0.092,0
				c-0.126,0.031-0.267,0.062-0.423,0.093c-0.031,0-0.063,0-0.095,0c-0.062,0-0.11,0-0.14,0h-0.047c-0.063,0-0.125,0-0.187,0
				c0-0.031-0.017-0.062-0.049-0.093c-0.031,0-0.063,0-0.093,0c-0.032,0-0.079-0.016-0.142-0.047
				c-0.031-0.032-0.047-0.062-0.047-0.093c-0.031,0-0.062-0.017-0.093-0.046c0-0.032,0-0.063,0-0.095v-0.047c0-0.03,0-0.062,0-0.093
				c0-0.032,0-0.063,0-0.096c0-0.03,0-0.062,0-0.093V13.16c0-0.032,0-0.063,0-0.095c0-0.03,0-0.063,0-0.092c0-0.033,0-0.064,0-0.096
				c-0.063,0-0.141,0-0.236,0c-0.032,0-0.078,0-0.14,0h-9.956c0,0.032,0,0.063,0,0.096c0,0.029,0,0.062,0,0.092
				c0,0.032,0,0.063,0,0.095v0.046c0,0.031,0,0.063,0,0.093c0,0.033,0,0.064,0,0.096c0,0.031,0,0.063,0,0.093v0.047
				c0,0.032,0,0.063,0,0.095v0.092c0.032,0,0.062,0,0.095,0c0.03,0,0.063,0,0.093,0c0.062,0.032,0.111,0.064,0.142,0.095
				c0,0.031,0.016,0.062,0.047,0.093h0.047c0,0.033,0,0.063,0,0.095c0,0.032,0,0.063,0,0.094v0.095c0,0.03,0,0.063,0,0.093
				c0,0.031,0,0.063,0,0.093v0.093c0,0.034,0,0.065,0,0.096v0.14c0.03,0.063,0.077,0.11,0.141,0.142
				c0,0.062,0.016,0.125,0.046,0.188c0.032,0.033,0.062,0.079,0.093,0.142c0.032,0.031,0.064,0.047,0.096,0.047
				c0.031,0.031,0.062,0.047,0.094,0.047h0.046c0.032,0,0.079,0.016,0.141,0.046c0,0.032,0.016,0.047,0.048,0.047
				c0.03,0.032,0.062,0.048,0.093,0.048c0,0.031,0,0.063,0,0.094v0.047c0,0.03,0,0.063,0,0.093c0,0.032,0,0.065,0,0.095v0.046
				c0,0.031,0,0.063,0,0.093c0,0.032,0,0.064,0,0.095s0,0.062,0,0.093c0,0.031,0,0.063,0,0.094v0.094c0,0.031,0,0.062,0,0.093v0.047
				c0,0.032,0,0.063,0,0.094v0.046c0,0.032,0,0.063,0,0.095v0.046c0,0.033,0,0.063,0,0.094c0,0.031,0,0.063,0,0.095v0.047
				c0,0.03,0,0.063,0,0.093c0,0.031,0,0.063,0,0.095c0,0.03,0,0.062,0,0.093v0.095c0,0.032,0,0.063,0,0.094c0,0.031,0,0.062,0,0.093
				v0.048c0,0.032,0,0.063,0,0.093v0.048c0,0.031,0,0.063,0,0.094v0.047c0,0.032,0,0.063,0,0.094c0,0.031,0,0.063,0,0.094v0.046
				c0,0.033,0,0.063,0,0.095v0.142c0,0.03,0,0.062,0,0.093s0,0.063,0,0.095v0.047c0,0.032,0,0.063,0,0.093c0,0.032,0,0.063,0,0.094
				v0.094c0,0.031,0,0.062,0,0.093v0.047c0,0.032,0,0.063,0,0.095v0.093c0,0.031,0,0.063,0,0.094c0,0.033,0,0.063,0,0.095v0.091
				c0,0.033,0,0.065,0,0.096c0,0.032,0,0.063,0,0.094v0.046c0,0.032,0,0.063,0,0.095c0,0.032,0,0.063,0,0.093v0.141
				c0,0.031,0,0.064,0,0.095v0.046c0,0.032,0,0.063,0,0.095c0,0.031,0,0.063,0,0.093v0.046c0,0.033,0,0.064,0,0.095v0.093
				c0,0.033,0,0.065,0,0.096c0,0.03,0,0.062,0,0.092v0.048c0,0.031,0,0.063,0,0.094v0.141c0,0.031,0,0.063,0,0.093
				c0,0.032,0,0.063,0,0.094v0.047c0,0.032,0,0.062,0,0.094c0,0.031,0,0.062,0,0.093v0.047c0,0.032,0,0.063,0,0.094v0.093
				c0,0.032,0,0.064,0,0.095v0.094c0,0.031,0,0.063,0,0.093s0,0.062,0,0.095c0,0.03,0,0.063,0,0.093c0,0.032,0,0.062,0,0.094
				c0,0.031,0,0.063,0,0.094v0.047c0,0.031,0,0.062,0,0.093c0,0.032,0,0.064,0,0.095v0.047c0,0.031,0,0.061,0,0.093v0.143
				c0,0.03,0,0.062,0,0.092c0,0.033,0,0.064,0,0.096v0.047c0,0.03,0,0.061,0,0.093c0,0.031,0,0.063,0,0.095c0,0.03,0,0.062,0,0.093
				c0,0.031,0,0.063,0,0.094v0.046c0,0.031,0,0.063,0,0.094c0,0.031,0,0.063,0,0.095c0,0.03,0,0.062,0,0.093v0.046
				c0,0.033,0,0.065,0,0.095v0.047c0,0.031,0,0.062,0,0.094s0,0.063,0,0.095v0.045c0,0.032,0,0.063,0,0.095c0,0.03,0,0.063,0,0.093
				v0.094c0,0.031,0,0.063,0,0.093v0.093c0,0.033,0,0.063,0,0.096c0,0.03,0,0.063,0,0.093v0.093c0,0.032,0,0.063,0,0.093v0.049
				c0,0.03,0,0.062,0,0.093c0,0.03,0,0.062,0,0.093v0.049c0,0.031,0,0.063,0,0.093s0,0.061,0,0.093v0.049c0,0.031,0,0.063,0,0.093
				s0,0.062,0,0.093v0.048c0,0.031,0,0.062,0,0.092c0,0.032,0,0.062,0,0.095v0.094c0,0.032,0,0.063,0,0.094v0.047
				c0,0.031,0,0.063,0,0.094v0.235c0,0.031,0,0.063,0,0.094v0.046c0,0.033,0,0.063,0,0.094v0.047
				c-0.031,0.031-0.063,0.063-0.093,0.094v0.047c0,0.031,0,0.062,0,0.095c0,0.031,0,0.062,0,0.093v0.047c0,0.03,0,0.062,0,0.095
				v0.045c0,0.032,0,0.064,0,0.095c-0.032,0.031-0.048,0.063-0.048,0.094c-0.031,0.033-0.062,0.046-0.093,0.046
				c-0.031,0.032-0.079,0.048-0.141,0.048c-2.786,0-5.556,0-8.311,0c-0.031,0-0.077,0-0.142,0h-0.046c-0.031,0-0.062,0-0.093,0
				c-0.063,0-0.11,0-0.141,0c-0.032,0-0.078-0.017-0.141-0.048c-0.063,0-0.126-0.014-0.188-0.046c0-0.031-0.016-0.063-0.047-0.094
				c-0.03-0.03-0.062-0.063-0.093-0.095h-0.141c-0.062,0-0.111,0-0.141,0c-0.031,0-0.063-0.013-0.094-0.045
				c-0.03-0.033-0.046-0.064-0.046-0.095v-0.094c0-0.03,0-0.063,0-0.095c0-0.03,0-0.061,0-0.093V26.87c0-0.031,0-0.063,0-0.094
				c0-0.031,0-0.062,0-0.094v-0.094c0-0.032,0-0.062,0-0.093V26.4c0-0.031,0-0.062,0-0.093c0-0.031,0-0.063,0-0.094v-0.047
				c0-0.032,0-0.063,0-0.094v-0.094c0-0.033,0-0.063,0-0.095c0-0.03,0-0.062,0-0.092v-0.048c0-0.031,0-0.063,0-0.093
				s0-0.062,0-0.093v-0.049c0-0.032,0-0.062,0-0.093s0-0.063,0-0.093v-0.049c0-0.031,0-0.063,0-0.093c0-0.031,0-0.063,0-0.093
				v-0.049c0-0.03,0-0.061,0-0.093v-0.093c0-0.031,0-0.063,0-0.093c0-0.032,0-0.063,0-0.096v-0.093c0-0.03,0-0.063,0-0.093v-0.094
				c0-0.031,0-0.063,0-0.093c0-0.033,0-0.063,0-0.095v-0.045c0-0.032,0-0.063,0-0.095s0-0.063,0-0.094v-0.047
				c0-0.03,0-0.063,0-0.095v-0.046c0-0.031,0-0.063,0-0.093c0-0.031,0-0.063,0-0.095c0-0.032,0-0.063,0-0.094v-0.046
				c0-0.032,0-0.063,0-0.094c0-0.031,0-0.063,0-0.093c0-0.033,0-0.064,0-0.095c0-0.032,0-0.063,0-0.093v-0.047
				c0-0.032,0-0.063,0-0.096c0-0.03,0-0.062,0-0.092V22.69c0-0.032,0-0.062,0-0.093V22.55c0-0.03,0-0.063,0-0.095
				c0-0.031,0-0.062,0-0.093v-0.047c0-0.031,0-0.063,0-0.094c0-0.032,0-0.063,0-0.094c0-0.031,0-0.063,0-0.093
				c0-0.033,0-0.064,0-0.095s0-0.062,0-0.093v-0.094c0-0.031,0-0.063,0-0.095v-0.093c0-0.031,0-0.062,0-0.094v-0.047
				c0-0.032,0-0.063,0-0.093c0-0.032,0-0.062,0-0.094v-0.047c0-0.031,0-0.063,0-0.094c0-0.03,0-0.063,0-0.093V20.86
				c0-0.031,0-0.063,0-0.094v-0.048c0-0.031,0-0.062,0-0.092c0-0.031,0-0.063,0-0.096v-0.093c0-0.031,0-0.062,0-0.095v-0.046
				c0-0.03,0-0.062,0-0.093c0-0.032,0-0.063,0-0.095v-0.046c0-0.031,0-0.063,0-0.095v-0.141c0-0.031,0-0.062,0-0.093
				c0-0.033,0-0.063,0-0.095v-0.046c0-0.031,0-0.062,0-0.094c0-0.031,0-0.063,0-0.096v-0.091c0-0.032,0-0.062,0-0.095
				c0-0.03,0-0.063,0-0.094v-0.093c0-0.031,0-0.063,0-0.095v-0.047c0-0.032,0-0.063,0-0.093V18.7c0-0.031,0-0.062,0-0.094
				c0-0.03,0-0.062,0-0.093v-0.047c0-0.032,0-0.063,0-0.095s0-0.063,0-0.093v-0.142c0-0.032,0-0.062,0-0.095v-0.046
				c0-0.031,0-0.063,0-0.094c0-0.032,0-0.063,0-0.094v-0.047c0-0.031,0-0.063,0-0.094v-0.048c0-0.03,0-0.061,0-0.093v-0.048
				c0-0.031,0-0.062,0-0.093c0-0.032,0-0.063,0-0.094v-0.095c0-0.031,0-0.063,0-0.093c0-0.032,0-0.064,0-0.095
				c0-0.03,0-0.063,0-0.093v-0.047c0-0.031,0-0.063,0-0.095c0-0.031,0-0.062,0-0.094v-0.046c0-0.032,0-0.063,0-0.095v-0.046
				c0-0.031,0-0.062,0-0.094v-0.047c0-0.032,0-0.063,0-0.093v-0.046c-0.032,0-0.048-0.017-0.048-0.048
				c0-0.032-0.016-0.063-0.047-0.094c0-0.032,0-0.062,0-0.093s0-0.063,0-0.095c0-0.031,0-0.062,0-0.093v-0.093
				c0-0.032,0-0.063,0-0.094c0-0.032,0-0.062,0-0.094V15.46c0-0.032,0-0.063,0-0.095v-0.14c0-0.031,0-0.063,0-0.094s0-0.062,0-0.094
				v-0.046c0-0.031,0-0.063,0-0.095c0.032-0.03,0.047-0.062,0.047-0.093l0.048-0.047h0.046c-0.03-0.03-0.046-0.064-0.046-0.094
				v-0.094c0-0.03,0-0.062,0-0.096l0.092-0.093c0.033-0.031,0.048-0.062,0.048-0.093c0.03,0,0.063-0.016,0.095-0.048
				c0.031-0.031,0.077-0.045,0.141-0.045v-0.049c0-0.03,0.015-0.061,0.046-0.092c0-0.031,0-0.063,0-0.094l0.046-0.048
				c0.032-0.029,0.063-0.045,0.094-0.046c-0.564,0-1.127,0.016-1.69,0.046c-0.031,0-0.063,0-0.094,0v0.048c0,0.063,0,0.126,0,0.187
				c0,0.032,0,0.079,0,0.142c0,0.063,0,0.107,0,0.14v0.095c0,0.031,0,0.077,0,0.14c-0.03,0.064-0.046,0.109-0.046,0.141
				c0,0.031,0.016,0.063,0.046,0.093c0,0.032,0.016,0.064,0.047,0.095l0.047,0.046c0.032,0.033,0.063,0.063,0.094,0.094
				c0.03,0.031,0.062,0.063,0.093,0.094v0.14c0,0.032,0.016,0.063,0.048,0.095v0.046c0,0.032,0,0.062,0,0.094
				c-0.032,0.031-0.048,0.063-0.048,0.094l-0.046,0.093H30.85v0.047c0,0.032-0.017,0.063-0.047,0.094
				c0,0.032-0.016,0.048-0.047,0.048l-0.094,0.093c-0.03,0-0.062,0-0.093,0c-0.156,0.031-0.313,0.063-0.47,0.094
				c-0.032,0-0.063,0.016-0.094,0.048h-0.047c-0.062,0-0.11,0-0.142,0H29.77c-0.189,0-0.375,0-0.563,0l-0.047,0.046h-0.047
				c0,0.031,0,0.062,0,0.093v0.047c0,0.032,0,0.063,0,0.094v0.046c-0.031,0.032-0.046,0.063-0.046,0.095
				c-0.033,0-0.063,0.016-0.094,0.046c0,0.033,0,0.063,0,0.094c0,0.031-0.016,0.063-0.048,0.095l-0.046,0.047
				c0,0.03,0,0.063,0,0.093c0,0.031,0,0.063,0,0.095c0,0.03,0,0.062,0,0.093c-0.031,0-0.063,0.016-0.094,0.047v0.047
				c0,0.032-0.016,0.063-0.047,0.094c0,0.031-0.017,0.062-0.048,0.093v0.048c0,0.032,0,0.063,0,0.093v0.048c0,0.031,0,0.063,0,0.094
				l-0.046,0.047c0,0.032-0.016,0.063-0.046,0.094c0,0.031,0,0.063,0,0.094v0.046c-0.032,0.033-0.047,0.063-0.047,0.095
				l-0.048,0.045v0.096c-0.031,0.03-0.046,0.062-0.046,0.093c-0.031,0.031-0.063,0.063-0.094,0.095v0.047c0,0.032,0,0.063,0,0.093
				c0,0.032,0,0.063,0,0.094v0.048c0,0.031-0.016,0.046-0.047,0.046c0,0.031,0,0.062,0,0.093v0.047c0,0.032,0,0.063,0,0.095
				l-0.047,0.046v0.047c-0.031,0.031-0.063,0.063-0.093,0.094c0,0.033,0,0.063,0,0.095v0.091c0,0.033,0,0.065,0,0.096
				c0,0.032-0.016,0.063-0.047,0.094v0.046c-0.031,0.032-0.063,0.063-0.094,0.095c0,0.032,0,0.063,0,0.093v0.141
				c-0.03,0.031-0.063,0.064-0.093,0.095v0.046c0,0.032,0,0.063,0,0.095c0,0.031,0,0.063,0,0.093v0.046c0,0.033,0,0.064,0,0.095
				v0.093c0,0.033,0,0.065,0,0.096c0,0.03,0,0.062,0,0.092v0.048c0,0.031,0,0.063,0,0.094c-0.032,0.031-0.062,0.046-0.095,0.046
				v0.095c0,0.031,0,0.063,0,0.093c-0.031,0.032-0.063,0.063-0.094,0.094v0.047c0,0.032,0,0.062,0,0.094c0,0.031,0,0.062,0,0.093
				l-0.046,0.047c0,0.032,0,0.063,0,0.094c-0.032,0-0.063,0.016-0.095,0.047c-0.03,0-0.077,0-0.141,0l-0.047,0.046
				c-0.031,0.032-0.046,0.064-0.046,0.095c-0.031,0-0.062,0.017-0.094,0.048h-0.047c-0.063,0-0.124-0.016-0.188-0.048l-0.047-0.047
				c-0.031,0.032-0.063,0.047-0.093,0.047c0,0.032-0.016,0.048-0.047,0.048c-0.031,0-0.063,0-0.094,0c-0.594,0-1.188,0-1.784,0
				c-0.062,0-0.141-0.016-0.235-0.048v-0.047c-0.094,0-0.173-0.016-0.234-0.047c-0.032,0-0.064,0-0.095,0h-0.046
				c-0.033,0-0.079-0.015-0.143-0.046c-0.061,0-0.124-0.016-0.186-0.047l-0.095-0.094c-0.063,0-0.109-0.016-0.141-0.047
				c-0.033,0-0.063-0.016-0.096-0.046c-0.03-0.031-0.063-0.062-0.093-0.093v-0.095c-0.031,0-0.078,0-0.142,0
				c0-0.031-0.015-0.063-0.046-0.094c-0.032-0.03-0.047-0.063-0.047-0.093V20.86c0-0.031,0-0.063,0-0.094
				c-0.032-0.031-0.063-0.062-0.094-0.094v-0.046c0-0.031,0-0.063,0-0.096v-0.045c0-0.032,0-0.063,0-0.094
				c0.031-0.031,0.047-0.063,0.047-0.095c0.031,0,0.047-0.016,0.047-0.046c0-0.031,0-0.063,0-0.093c0-0.031,0-0.063,0-0.094
				c0-0.031,0-0.063,0-0.095c0.031,0,0.047-0.016,0.047-0.047c0.031-0.03,0.046-0.063,0.046-0.093c0.032,0,0.048-0.016,0.048-0.047
				c0.032-0.031,0.047-0.063,0.047-0.093c0-0.031,0-0.064,0-0.094v-0.094c0-0.031,0.015-0.063,0.046-0.096v-0.045
				c0-0.032,0-0.063,0-0.094c0.03-0.03,0.047-0.063,0.047-0.096l0.045-0.045c0-0.032,0-0.063,0-0.093v-0.047
				c0.032,0,0.063-0.016,0.096-0.048v-0.047c0-0.032,0-0.063,0-0.093c0-0.031,0-0.062,0-0.094c0.032,0,0.046-0.016,0.046-0.047
				c0.032-0.031,0.047-0.063,0.047-0.093c0-0.033,0-0.064,0-0.094v-0.048c0.031,0,0.062-0.016,0.092-0.047
				c0-0.031,0.016-0.063,0.049-0.093V18.23c0-0.031,0-0.063,0-0.093V18.09l0.046-0.048c0-0.03,0-0.063,0-0.094
				c0-0.032,0-0.063,0-0.094v-0.046c0.031,0,0.047-0.016,0.047-0.047c0.032-0.031,0.047-0.063,0.047-0.094
				c0.03-0.032,0.046-0.062,0.046-0.094v-0.046c0-0.032,0-0.062,0-0.094s0-0.063,0-0.093c0.032-0.032,0.064-0.048,0.095-0.048
				v-0.095c0.031-0.031,0.048-0.063,0.048-0.093c0.031,0,0.046-0.016,0.046-0.048c0-0.03,0-0.062,0-0.093
				c0.031-0.031,0.047-0.063,0.047-0.093v-0.048c0-0.031,0-0.062,0-0.093v-0.094c0.031-0.032,0.048-0.063,0.048-0.095
				c0-0.029,0-0.062,0-0.092l0.046-0.048c0-0.031,0-0.063,0-0.093v-0.093c0.031,0,0.063-0.017,0.094-0.048c0-0.032,0-0.063,0-0.094
				c0-0.032,0-0.062,0-0.093v-0.048c0.031-0.031,0.047-0.062,0.047-0.094c0.032-0.031,0.047-0.062,0.047-0.093v-0.047
				c0-0.032,0-0.063,0-0.094v-0.047l0.046-0.047c0-0.031,0.016-0.063,0.048-0.094v-0.048l-0.048-0.047
				c0-0.03-0.015-0.046-0.046-0.046c0-0.032,0-0.063,0-0.094c0-0.032-0.015-0.063-0.047-0.094c0-0.031-0.016-0.047-0.047-0.047
				c0-0.032,0-0.062,0-0.095c-0.031-0.031-0.063-0.062-0.094-0.093c-0.031,0-0.046-0.015-0.046-0.046l-0.048-0.047
				c0-0.03,0-0.064,0-0.094c-0.031-0.031-0.062-0.063-0.093-0.094l-0.048-0.046c0-0.031-0.031-0.064-0.095-0.095
				c-0.03,0-0.061-0.016-0.093-0.047c-0.031,0-0.062,0-0.093,0v-0.047c-0.064,0-0.142-0.015-0.235-0.046l-0.049-0.093
				c-0.062,0-0.123-0.017-0.186-0.049c-0.032,0-0.078-0.016-0.141-0.046c-0.032-0.031-0.047-0.062-0.047-0.094
				c-0.032,0-0.063-0.015-0.094-0.046V13.91c-0.063,0-0.127,0-0.189,0c-0.031-0.031-0.063-0.062-0.093-0.093
				c-0.063-0.031-0.094-0.063-0.094-0.095c-0.031,0-0.063-0.014-0.094-0.045c-0.031,0-0.046-0.017-0.046-0.046
				c-0.063-0.032-0.095-0.063-0.095-0.095c0-0.031-0.016-0.047-0.048-0.047v-0.045c-0.029-0.031-0.062-0.063-0.092-0.094
				c0-0.033-0.017-0.064-0.049-0.095c0-0.03-0.015-0.046-0.046-0.046l-0.046-0.046c0-0.032-0.015-0.063-0.046-0.095
				c0-0.03,0-0.063,0-0.092v-0.048c0-0.032,0-0.063,0-0.094c-0.033-0.032-0.047-0.063-0.047-0.094c-0.03,0-0.048-0.016-0.048-0.048
				c0-0.032,0-0.063,0-0.094H22.21c0-0.031-0.016-0.047-0.047-0.047c0-0.031,0-0.062,0-0.094c0-0.03,0-0.063,0-0.094v-0.093
				c-0.031,0-0.063,0-0.094,0s-0.063,0-0.095,0s-0.061,0-0.093,0c-0.062,0-0.11,0-0.14,0c-0.031,0-0.079-0.016-0.141-0.048
				c-0.032-0.03-0.048-0.062-0.048-0.094c-0.063-0.032-0.109-0.047-0.142-0.047c-0.03,0-0.062-0.015-0.093-0.046
				c0-0.031,0-0.063,0-0.093c0-0.032,0-0.065,0-0.095V11.75c-1.691,0-3.411,0-5.165,0c-0.032,0-0.079-0.015-0.141-0.046v-0.048
				c-0.063,0-0.126,0-0.188,0l-0.046-0.047c-0.032-0.031-0.063-0.063-0.095-0.093l-0.047-0.046c0-0.031-0.015-0.048-0.046-0.048
				c-0.031-0.031-0.063-0.063-0.095-0.094v-0.045c0-0.031,0-0.062,0-0.095v-0.048c0-0.031,0-0.062,0-0.093c0-0.03,0-0.062,0-0.095
				v-0.046c0-0.032,0-0.062,0-0.094c0-0.031,0-0.063,0-0.095v-0.046c0-0.03,0-0.063,0-0.094c-0.75,0-1.487,0-2.207,0
				c-0.125-0.032-0.22-0.047-0.281-0.047c-0.095-0.032-0.157-0.048-0.188-0.048c-0.032,0.031-0.079,0.079-0.142,0.141
				c-0.063,0.062-0.142,0.094-0.234,0.094h-0.188c-0.032,0-0.078,0-0.141,0v0.095c-0.031,0.094-0.079,0.188-0.142,0.281
				l-6.526,5.071c-0.062,0.063-0.157,0.079-0.282,0.048c-0.031,0-0.063,0-0.094,0c-0.063,0-0.109,0.016-0.142,0.046
				c-0.062,0.031-0.126,0.062-0.188,0.093c0.032,0.063,0.032,0.141,0,0.234c-0.031,0.094-0.078,0.188-0.141,0.283l-0.187,0.14
				c-0.063,0.031-0.126,0.047-0.188,0.047c0,0.033-0.016,0.048-0.047,0.048H4.134c-0.033,0.03-0.064,0.062-0.095,0.093l-0.046,0.047
				c0,0.031-0.015,0.047-0.047,0.047c-0.063,0.032-0.11,0.063-0.142,0.094l-0.046,0.046c0,0.032-0.015,0.046-0.047,0.046
				c-0.03,0-0.063,0.016-0.093,0.048c-0.033,0-0.063,0-0.094,0c-0.032,0.032-0.063,0.063-0.094,0.093H3.382
				c-0.032,0.032-0.064,0.048-0.095,0.048H2.865c-0.063,0-0.126-0.016-0.189-0.048c-0.03,0-0.046-0.014-0.046-0.046
				c-0.031,0-0.063-0.015-0.093-0.046c-0.063,0-0.124,0-0.188,0c-0.032-0.032-0.095-0.062-0.188-0.094
				c0-0.032-0.015-0.063-0.046-0.093c-0.063-0.032-0.11-0.048-0.142-0.048c-0.03,0-0.046-0.017-0.046-0.047
				c-0.032-0.031-0.062-0.047-0.095-0.047C1.8,17.166,1.77,17.134,1.738,17.104c-0.031,0-0.047-0.016-0.047-0.048
				c0-0.03-0.016-0.062-0.047-0.093c-0.03-0.031-0.046-0.063-0.046-0.093c-0.033,0-0.047-0.015-0.047-0.048
				c-0.032-0.031-0.063-0.062-0.095-0.093v-0.094c0-0.032,0-0.063,0-0.095c0-0.029,0-0.062,0-0.092c0-0.032-0.015-0.048-0.047-0.048
				c0-0.031,0-0.063,0-0.093v-0.093l-0.046-0.048c0-0.032-0.016-0.063-0.047-0.094c0-0.032,0-0.062,0-0.093v-0.048
				c-0.032-0.031-0.046-0.062-0.046-0.094c0-0.031,0-0.062,0-0.093v-0.047c0-0.032,0-0.063,0-0.094
				c-0.032,0-0.062-0.017-0.095-0.047c0-0.031-0.017-0.047-0.047-0.047c0-0.031,0-0.063,0-0.094v-0.048c0-0.03,0-0.062,0-0.093
				v-0.047c-0.032-0.031-0.063-0.063-0.094-0.094c0-0.031,0-0.062,0-0.094c0-0.032,0-0.062,0-0.095c0-0.031,0-0.062,0-0.093v-0.046
				c0-0.032-0.016-0.062-0.046-0.095c0-0.031-0.016-0.062-0.047-0.093v-0.046c0-0.03,0-0.062,0-0.096v-0.046l-0.094-0.094
				c0-0.03,0-0.062,0-0.094c0-0.031,0-0.062,0-0.094v-0.046c0-0.031,0-0.062,0-0.094c0-0.031,0-0.062,0-0.095
				c-0.032-0.031-0.047-0.062-0.047-0.093c0-0.031-0.015-0.063-0.046-0.095v-0.045c0-0.031,0-0.063,0-0.093c0-0.032,0-0.064,0-0.096
				c-0.031-0.03-0.063-0.062-0.093-0.093v-0.047c0-0.033,0-0.064,0-0.095c0-0.03-0.017-0.046-0.049-0.046
				c0-0.032-0.015-0.062-0.046-0.095c0-0.03,0-0.062,0-0.093v-0.045c0-0.033,0-0.064,0-0.096c0-0.03,0-0.063,0-0.095v-0.045
				l-0.047-0.048c0-0.032-0.015-0.063-0.046-0.094v-0.093c0-0.032,0-0.063,0-0.096c0-0.03,0-0.062,0-0.093v-0.046L0.424,12.22
				c0-0.03-0.016-0.062-0.047-0.094v-0.047c0-0.031,0-0.062,0-0.093c0-0.03,0-0.062,0-0.093v-0.048c0-0.031,0-0.063,0-0.094
				s-0.015-0.062-0.047-0.094v-0.047c0-0.031,0-0.063,0-0.093c0-0.031-0.017-0.062-0.048-0.094l-0.046-0.047
				c0-0.031-0.016-0.062-0.046-0.092c0-0.031,0-0.062,0-0.095v-0.094c0-0.031,0-0.062,0-0.094c0-0.031,0-0.063,0-0.094v-0.047
				c0-0.031,0-0.062,0-0.093v-0.048c-0.031,0-0.047-0.015-0.047-0.046c0-0.03,0-0.063,0-0.094v-0.095c0-0.031,0-0.062,0-0.094
				c0-0.03,0-0.063,0-0.092v-0.049c-0.031-0.03-0.046-0.061-0.046-0.092C0.064,10.124,0.032,10.092,0,10.06V9.966
				c0-0.03,0-0.062,0-0.094V9.778c0-0.031,0-0.062,0-0.093c0-0.031,0-0.063,0-0.094V9.544C0,9.513,0,9.48,0,9.45V9.355
				c0-0.03,0-0.063,0-0.093C0,9.23,0,9.199,0,9.167V9.122c0-0.031,0-0.063,0-0.094c0-0.031,0-0.063,0-0.093V8.886
				c0-0.031,0-0.063,0-0.094s0-0.063,0-0.093V8.653C0,8.62,0,8.589,0,8.557c0-0.031,0-0.063,0-0.091V8.418
				c0.032-0.032,0.064-0.065,0.096-0.097l0.046-0.046c0-0.03,0-0.061,0-0.093l0.047-0.048c0-0.031,0-0.063,0-0.092
				c0.03-0.032,0.046-0.063,0.046-0.095c0.031,0,0.063,0,0.094,0c0-0.03,0-0.062,0-0.095c0.032-0.03,0.047-0.062,0.047-0.093
				c0.032,0,0.062,0,0.094,0c0-0.032,0-0.063,0-0.095c0.031-0.031,0.063-0.062,0.094-0.092c0-0.032,0.016-0.048,0.046-0.048h0.049
				c0.062-0.03,0.109-0.046,0.14-0.046c0.063-0.03,0.125-0.047,0.188-0.047V7.384c0.031,0,0.093,0,0.188,0l0.046,0.047V7.384
				c0.033,0,0.049-0.015,0.049-0.046c0.031,0,0.062,0,0.093,0L1.409,7.29c0.032,0,0.078,0,0.142,0c0.063,0,0.109,0,0.14,0
				c0.031,0.032,0.079,0.048,0.14,0.048c0.033,0,0.063,0.015,0.095,0.046C1.957,7.322,2.035,7.29,2.161,7.29h9.389
				c0.127,0,0.205,0.016,0.236,0.048c0.064-0.033,0.127-0.063,0.188-0.095c0.063-0.031,0.125-0.063,0.188-0.093
				c0.032-0.032,0.063-0.049,0.095-0.049c0.063-0.031,0.125-0.046,0.188-0.046c0.063,0,0.14,0,0.234,0c1.847,0,3.709,0,5.587,0
				V7.009c0.032-0.032,0.047-0.063,0.047-0.094V6.82c0.031-0.03,0.046-0.062,0.046-0.094c0-0.031,0-0.062,0-0.093
				c0.032-0.032,0.063-0.048,0.094-0.048h0.047c0-0.031,0-0.062,0-0.094c0-0.03,0-0.063,0-0.092V6.352
				c0.032-0.032,0.063-0.062,0.094-0.095V6.21c0.063-0.032,0.125-0.063,0.187-0.094c0.032,0,0.063,0,0.095,0
				c0.031-0.031,0.046-0.062,0.046-0.095l0.094-0.093c0.031,0,0.079,0,0.139,0c0.096,0,0.205,0,0.331,0c0.031,0,0.063,0,0.093,0
				c0.031,0,0.046,0.016,0.046,0.047l0.094-0.047V5.881c0-0.031,0-0.063,0-0.094c0-0.031,0-0.062,0-0.094c0.033,0,0.064,0,0.095,0
				c0-0.03,0-0.062,0-0.093c0-0.031,0-0.063,0-0.094V5.459c0.031-0.031,0.046-0.062,0.046-0.093c0-0.033-0.015-0.064-0.046-0.095
				V5.224c-0.031-0.03-0.063-0.046-0.095-0.046l-0.045-0.046c0-0.033-0.018-0.065-0.049-0.096V4.989c0-0.03,0-0.062,0-0.093
				c0-0.032,0-0.063,0-0.095V4.754c0-0.031,0-0.063,0-0.093c0-0.031,0-0.063,0-0.094c0.031-0.033,0.049-0.065,0.049-0.095
				c0.03-0.031,0.045-0.062,0.045-0.095V4.333c0.033-0.033,0.064-0.047,0.095-0.047c0.031,0,0.062,0,0.093,0h0.046V4.237
				c0.033-0.03,0.064-0.046,0.095-0.046c0-0.03,0.015-0.047,0.046-0.047s0.063-0.015,0.094-0.046c0.032,0,0.063,0,0.095,0
				c0.031,0,0.063,0,0.093,0s0.061-0.016,0.093-0.047c0.032,0,0.08-0.016,0.142-0.046c0.031-0.032,0.046-0.064,0.046-0.095V3.862
				c0-0.032,0-0.063,0-0.094c0.031-0.031,0.047-0.063,0.047-0.093c0.03-0.032,0.063-0.048,0.094-0.048
				c0-0.031,0.016-0.063,0.048-0.093c0-0.031,0.015-0.063,0.046-0.094c0.031,0,0.063-0.016,0.093-0.048c0.063,0,0.11,0,0.142,0
				V3.345c0.188,0,0.376,0,0.564,0c0.031,0.033,0.077,0.046,0.141,0.046c0.031,0.032,0.063,0.048,0.094,0.048
				c0,0.031,0.015,0.063,0.046,0.094c0.031,0.03,0.064,0.062,0.095,0.093c0.031,0,0.047,0.016,0.047,0.048
				c0.032,0.03,0.047,0.062,0.047,0.093c0.031,0.031,0.047,0.062,0.047,0.094c0.031,0,0.08,0,0.142,0c0.124,0,0.234,0,0.327,0
				c0.063,0,0.126,0.016,0.188,0.047c0.032,0.031,0.063,0.063,0.095,0.095c0.031,0.03,0.063,0.046,0.093,0.046
				c0,0.031,0.016,0.047,0.047,0.047c0,0.031,0,0.063,0,0.093c0,0.033,0,0.063,0,0.095h0.048c0,0.031,0.031,0.062,0.094,0.092
				c0.063,0,0.109,0.018,0.141,0.048c0.031,0,0.047,0.016,0.047,0.047c0.063,0,0.109,0,0.141,0c0.532,0,1.048,0,1.549,0
				c0.219,0,0.469,0,0.751,0c0.031-0.031,0.062-0.047,0.094-0.047s0.078,0,0.141,0V4.378h0.094c0.062,0.033,0.108,0.063,0.14,0.095
				V4.426h0.096V4.378c0.062,0.033,0.107,0.063,0.139,0.095c0.033,0.03,0.048,0.062,0.048,0.095c0.032,0,0.062,0,0.094,0
				c0,0.03,0.016,0.063,0.046,0.094c0.031,0.03,0.046,0.062,0.046,0.093v0.093c0.033-0.031,0.063-0.046,0.095-0.046
				c0.03,0,0.078,0,0.141,0c0.032,0,0.079,0.016,0.141,0.046c0.031,0.033,0.046,0.063,0.046,0.095v0.093c0,0.031,0,0.063,0,0.096
				v0.093c0,0.03,0,0.062,0,0.093c0,0.031,0,0.064,0,0.095l0.047,0.046c0,0.031,0.016,0.047,0.048,0.047c0,0.03,0,0.063,0,0.094
				c0,0.032,0,0.063,0,0.093c0.03,0,0.046,0.016,0.046,0.048v0.046l0.046,0.048c0,0.031,0,0.062,0,0.093v0.047
				c0,0.031,0,0.064,0,0.095v0.046h0.141c1.157,0,2.333-0.016,3.521-0.046V6.021l0.049-0.046c0-0.031,0.015-0.047,0.046-0.047
				s0.078,0,0.14,0c0.033,0,0.095-0.014,0.188-0.046c0-0.031,0-0.063,0-0.094c0.033-0.031,0.063-0.062,0.095-0.094h0.047
				c0.031-0.03,0.062-0.062,0.094-0.093c0.032-0.031,0.046-0.063,0.046-0.094l0.095-0.093c0-0.031,0.016-0.046,0.046-0.046
				c0.031,0,0.063,0,0.094,0V5.317c0.063,0,0.141,0,0.236,0c0.03,0.031,0.077,0.064,0.139,0.095l0.094,0.093c0,0.03,0,0.063,0,0.094
				c0.063-0.063,0.142-0.11,0.235-0.141c0.063,0,0.142-0.031,0.235-0.093c0.093,0,0.188,0,0.283,0V5.317
				c0.124,0.031,0.233,0.049,0.327,0.049c0.032,0.031,0.063,0.062,0.095,0.093c0.03-0.062,0.046-0.11,0.046-0.142
				c0.095-0.063,0.189-0.093,0.283-0.093h2.3c0.096,0,0.174,0.03,0.236,0.093c0.03,0.064,0.062,0.126,0.094,0.188
				c0.155,0,0.298-0.016,0.422-0.047c0.063,0,0.126,0,0.188,0c0.032,0,0.078-0.015,0.141-0.046c1.001,0,1.987,0,2.958,0
				c0.063,0.031,0.111,0.046,0.142,0.046c0.062,0,0.109,0,0.14,0c0.063,0.031,0.108,0.062,0.142,0.093
				c0.03,0.032,0.078,0.063,0.14,0.095l0.047,0.046c0.031,0,0.047-0.014,0.047-0.046c0.031-0.031,0.063-0.063,0.094-0.095
				c0-0.031,0.014-0.062,0.045-0.093h0.048c0.031,0,0.078,0,0.141,0V5.413c0.031,0.031,0.078,0.046,0.141,0.046
				c0.031,0.031,0.062,0.047,0.094,0.047c0,0.03,0.015,0.063,0.046,0.094c0,0.032,0,0.063,0,0.093v0.048h0.047
				c0.031,0,0.079-0.016,0.141-0.048c0.062,0,0.124,0,0.187,0c0.032,0.032,0.063,0.048,0.094,0.048v0.046
				c0.596-0.031,1.206-0.046,1.832-0.046V5.693c0.03-0.03,0.063-0.062,0.095-0.093c0.032-0.031,0.062-0.063,0.094-0.094
				c0.03,0,0.045-0.016,0.045-0.047c0.063,0,0.127-0.015,0.19-0.046c0.218,0,0.438-0.016,0.656-0.046
				c0.031-0.033,0.048-0.064,0.048-0.095c0.031-0.031,0.062-0.047,0.093-0.047c0.032-0.03,0.063-0.046,0.094-0.046
				c0.032,0,0.048-0.016,0.048-0.046c0.063-0.033,0.125-0.065,0.187-0.096c0.063,0,0.157,0,0.282,0h0.047
				c0.032,0,0.047-0.016,0.047-0.047l0.094-0.093c0.063-0.032,0.109-0.049,0.141-0.049c0.094-0.031,0.156-0.046,0.188-0.046
				c0.03,0,0.062,0,0.093,0h0.047l0.046-0.046h0.049c0.029-0.031,0.062-0.046,0.093-0.046c0.062,0,0.094-0.016,0.094-0.046h0.047
				c0.03,0,0.063,0,0.093,0V4.568c0-0.033,0-0.065,0-0.095c0-0.031,0-0.062,0-0.095c-0.031,0-0.063-0.015-0.093-0.045
				c0-0.033-0.016-0.047-0.047-0.047V4.237L43.011,2.97c-0.063-0.032-0.125-0.094-0.188-0.188c-0.03-0.063-0.046-0.125-0.046-0.186
				h-0.047c-0.032-0.032-0.063-0.048-0.095-0.048c-0.031,0-0.061-0.014-0.093-0.047h-0.095c-0.062,0-0.107,0-0.14,0
				c-0.125-0.031-0.219-0.063-0.281-0.093c-0.031,0-0.079,0-0.142,0h-0.047c-0.031,0-0.062-0.016-0.094-0.047
				c-0.062,0-0.108,0-0.141,0c-0.063-0.032-0.125-0.047-0.188-0.047c-0.03-0.032-0.063-0.048-0.093-0.048
				c-0.032-0.032-0.063-0.062-0.094-0.093c-0.031-0.031-0.063-0.063-0.095-0.094C41.101,2.047,41.07,2.03,41.04,2.03
				c-0.063,0-0.11-0.015-0.142-0.046c-0.063,0-0.11-0.015-0.14-0.046c-0.033-0.031-0.048-0.063-0.048-0.093
				c-0.031-0.033-0.063-0.049-0.094-0.049c-0.031-0.031-0.047-0.063-0.047-0.094l-0.046-0.047h-0.046V1.609l-0.048-0.048
				c-0.031-0.032-0.062-0.047-0.094-0.047c-0.032-0.031-0.063-0.062-0.094-0.092l-0.046-0.096c0-0.03,0-0.063,0-0.094
				c-0.031-0.031-0.048-0.062-0.048-0.093L40.1,1.092c0-0.031,0-0.063,0-0.094c0-0.031,0-0.062,0-0.093V0.857
				c0.031,0,0.046-0.015,0.046-0.046c0-0.032,0.017-0.062,0.048-0.094V0.669c0-0.031,0-0.063,0-0.094V0.528l0.046-0.046
				c0.031-0.032,0.062-0.063,0.094-0.094c0.032,0,0.063,0,0.094,0V0.341c0.032-0.095,0.095-0.171,0.188-0.236
				c0.063-0.094,0.157-0.124,0.282-0.094l0.282,0.094c0.125,0.031,0.219,0.096,0.282,0.188c0.062,0.095,0.078,0.189,0.046,0.283
				c0.031,0,0.063,0,0.094,0h0.094c0.032,0.031,0.078,0.046,0.14,0.046c0.032,0.032,0.063,0.048,0.095,0.048c0.063,0,0.109,0,0.14,0
				l0.048,0.047c0.03,0,0.062,0,0.093,0c0.063,0.032,0.11,0.046,0.141,0.046l0.046,0.048c0-0.062,0.032-0.109,0.094-0.142
				c0.064-0.063,0.157-0.094,0.283-0.094c0.062,0,0.125,0.015,0.188,0.046l4.883,1.316c0.093,0,0.17,0.046,0.234,0.141
				c0,0.031,0.016,0.063,0.048,0.094c0.031,0.032,0.063,0.047,0.093,0.047c0.032,0.03,0.079,0.046,0.141,0.046
				c0.062,0,0.109,0.017,0.141,0.048c0,0.031,0,0.063,0,0.094c0.031,0,0.063,0.015,0.094,0.046C48.63,2.484,48.661,2.5,48.692,2.5
				c0,0.033,0.015,0.063,0.047,0.095c0.031-0.032,0.063-0.048,0.094-0.048V2.5h0.047c0.063-0.031,0.125-0.047,0.188-0.047V2.407
				c0.063,0.031,0.109,0.062,0.14,0.093h0.049c0.032,0.033,0.062,0.063,0.093,0.095c0,0.03,0,0.062,0,0.092v0.047
				c0,0.032,0,0.063,0,0.095s0,0.063,0,0.094V2.97c0,0.032,0,0.063,0,0.093v0.049c0,0.03,0,0.061,0,0.093v0.047
				c0,0.031,0,0.063,0,0.093V3.44c0,0.031,0,0.063,0,0.094c0,0.03,0,0.062,0,0.093c0,0.032,0,0.063,0,0.095c0,0.031,0,0.062,0,0.093
				v0.047c0,0.03,0,0.063,0,0.095s0,0.062,0,0.093v0.047c0,0.031,0,0.063,0,0.093v0.142c0,0.031,0,0.063,0,0.093
				c0,0.031,0,0.063,0,0.093v0.049c0,0.03,0,0.063,0,0.094c0,0.03,0,0.062,0,0.093v0.093c0,0.033,0,0.063,0,0.095
				c0,0.031,0,0.063,0,0.093v0.047c0,0.034,0,0.064,0,0.095v0.14c0,0.031,0,0.064,0,0.095v0.046c0,0.031,0,0.062,0,0.093
				c0,0.032,0,0.063,0,0.095v0.046c0,0.032,0,0.063,0,0.094c0,0.031,0,0.063,0,0.094v0.046c-0.031,0-0.061,0.016-0.093,0.047
				c-0.032,0.031-0.049,0.064-0.049,0.095c-0.031,0.03-0.078,0.046-0.14,0.046c-0.031,0-0.063,0-0.094,0h-0.046L48.88,6.163
				c0,0.031-0.015,0.048-0.047,0.048c0,0.031-0.015,0.046-0.046,0.046h-0.094c-0.5,0-1.002,0-1.504,0
				c0,0.034-0.016,0.048-0.045,0.048v0.047l-0.047,0.047c0,0.03-0.017,0.046-0.047,0.046c-0.063,0-0.11,0-0.141,0
				c-0.064,0.032-0.141,0.063-0.234,0.094v0.094c0,0.031,0,0.063,0,0.093c0,0.032,0,0.064,0,0.094v0.094c2.285,0,4.602,0,6.949,0
				V6.868c0-0.033,0-0.063,0-0.095s0-0.063,0-0.094V6.539c0.032-0.031,0.047-0.062,0.047-0.094c0.029-0.031,0.046-0.063,0.046-0.093
				c0.031-0.032,0.062-0.047,0.093-0.047c0.032,0,0.08-0.015,0.141-0.048c0.031,0,0.078-0.015,0.142-0.046
				c0.031-0.032,0.046-0.063,0.046-0.094c0.031,0,0.064,0,0.094,0L54.28,6.07V6.021c0-0.03,0-0.063,0-0.093V5.881
				c0-0.031,0-0.063,0-0.094c0-0.031,0-0.062,0-0.094c0-0.03,0-0.062,0-0.093c0-0.031,0-0.063,0-0.094V5.459
				c0-0.031,0-0.062,0-0.093c0-0.033,0-0.064,0-0.095l-0.047-0.047c-0.03-0.03-0.063-0.046-0.094-0.046V5.131
				c0-0.033,0-0.065,0-0.096c0.031,0,0.048-0.016,0.048-0.047c0.031-0.03,0.046-0.062,0.046-0.093
				c0.032-0.032,0.063-0.063,0.095-0.095c0.03,0,0.045-0.016,0.045-0.046c0.031,0,0.063-0.016,0.095-0.046
				c0.031-0.032,0.077-0.046,0.14-0.046c0-0.031,0-0.063,0-0.094c0.031,0,0.063-0.018,0.095-0.049
				c0.031-0.031,0.047-0.063,0.047-0.093c0.03-0.03,0.047-0.063,0.047-0.093l0.047-0.047V4.237c0.031,0,0.063,0,0.094,0
				c0-0.03,0-0.061,0-0.093l0.046-0.046h0.046c0.033,0,0.063-0.016,0.096-0.047c0.187,0,0.389-0.016,0.609-0.046
				c0.032,0,0.047-0.016,0.047-0.047c0.032,0,0.064,0,0.094,0V3.909c0.063,0,0.125,0,0.188,0c0.063,0.031,0.11,0.063,0.141,0.095
				l0.047,0.046c0.031,0,0.045-0.016,0.045-0.046c0.064-0.032,0.111-0.047,0.143-0.047V3.909c0.062,0.031,0.125,0.063,0.188,0.095
				l0.047,0.046c0,0.031,0.016,0.047,0.046,0.047c0,0.031,0,0.063,0,0.093c0,0.033,0,0.063,0,0.095c0,0.031,0,0.062,0,0.092
				c0,0.033,0,0.063,0,0.095c0,0.03,0,0.062,0,0.095c0,0.03,0,0.063,0,0.094c0,0.03,0,0.062,0,0.093v0.046h0.047
				c0.03,0,0.047,0.016,0.047,0.046h0.047c0.063,0.033,0.125,0.063,0.188,0.095c0,0.031,0.017,0.046,0.047,0.046
				c0,0.031,0.016,0.047,0.046,0.047c0,0.031,0,0.063,0,0.096c0.031,0.031,0.062,0.046,0.095,0.046l0.046,0.046v0.047
				c0,0.031,0,0.063,0,0.095c0,0.031,0,0.062,0,0.093v0.047c0,0.03,0,0.063,0,0.094c0,0.032,0,0.063,0,0.093
				c0,0.032,0,0.063,0,0.094c0,0.031,0,0.063,0,0.094v0.046c0,0.031,0,0.063,0,0.093c0,0.033,0,0.064,0,0.095s0,0.063,0,0.094v0.046
				c0,0.034,0,0.063,0,0.095v0.187l0.095,0.046c0.03,0.032,0.061,0.048,0.095,0.048c0.062,0.031,0.108,0.063,0.14,0.093
				c0,0.032,0.015,0.064,0.046,0.094c0.031,0.031,0.063,0.048,0.094,0.048v0.046c0,0.031,0,0.063,0,0.094v0.046
				c7.387,0,14.775,0,22.162,0c0.125,0,0.236,0,0.329,0c0.094,0.032,0.187,0.063,0.282,0.095C80.59,7.212,80.668,7.259,80.762,7.29z
				 M58.317,15.037c0-0.031,0-0.062,0-0.095c0,0.033-0.017,0.064-0.046,0.095H58.317z M56.675,5.459c0,0.031,0,0.062,0,0.093
				c0,0.032,0,0.063,0,0.095v0.046c0.03,0.03,0.046,0.062,0.046,0.094V5.693c0-0.03,0-0.062,0-0.093c0-0.031,0-0.063,0-0.094V5.459
				H56.675z M54.703,6.539l-0.047,0.046h0.047V6.539z M54.515,6.726c0.063-0.031,0.093-0.062,0.093-0.093
				c-0.063,0.031-0.126,0.063-0.188,0.093v0.047C54.453,6.742,54.482,6.726,54.515,6.726z M47.377,4.378c0,0.033,0,0.063,0,0.095
				l0.047,0.046V4.473c0-0.031,0-0.062,0-0.095c0-0.031,0-0.062,0-0.092h-0.047V4.378z M44.842,6.021
				c-0.095,0.001-0.205,0.018-0.329,0.049c0.093,0,0.188,0,0.282,0C44.795,6.039,44.811,6.023,44.842,6.021z M56.44,14.991
				l-0.047-0.049v0.049H56.44z M22.022,11.609v-0.093h-0.048c0,0.03,0,0.062,0,0.093H22.022z M25.027,14.427
				c0.032,0.031,0.063,0.046,0.095,0.046v-0.046C25.085,14.427,25.053,14.427,25.027,14.427z M30.24,15.365
				c-0.032,0.063-0.063,0.111-0.094,0.142c0.032,0,0.077,0,0.14,0c0-0.031-0.016-0.063-0.046-0.094V15.365z M11.082,9.591H3.241
				c0,0.032,0,0.063,0,0.094c0.031,0.062,0.046,0.11,0.046,0.141c0,0.03,0,0.078,0,0.14c0,0.032,0.016,0.079,0.048,0.142
				c0,0.032,0,0.079,0,0.14c0.032,0.032,0.047,0.079,0.047,0.141c0.031,0.063,0.063,0.11,0.093,0.142
				c0,0.062,0.016,0.125,0.047,0.187v0.048c0,0.062,0,0.108,0,0.14c0,0.063,0,0.125,0,0.188c0.031,0.062,0.079,0.11,0.141,0.142
				c0,0.032,0.016,0.078,0.046,0.14v0.047c0.063,0,0.141,0,0.235,0c0.063,0.063,0.125,0.14,0.188,0.234l0.703,2.065l1.221-0.89
				c0.094-0.063,0.189-0.094,0.281-0.094c0.095,0.03,0.157,0.077,0.188,0.14c0.032-0.03,0.063-0.063,0.094-0.095l0.095-0.093
				c0.03-0.032,0.046-0.063,0.046-0.094l0.047-0.047c0.032,0,0.063-0.015,0.095-0.046c0.03-0.032,0.047-0.063,0.047-0.096
				c0.093-0.03,0.172-0.062,0.234-0.093l0.047-0.046c0.032,0,0.062-0.016,0.094-0.048c0.032-0.03,0.063-0.062,0.093-0.094
				c0.032-0.032,0.063-0.047,0.094-0.047c0.03-0.031,0.079-0.046,0.141-0.046c0-0.031,0.031-0.063,0.094-0.093
				c0.032-0.032,0.063-0.065,0.093-0.095c0.032-0.031,0.064-0.063,0.095-0.094c0.063-0.031,0.109-0.062,0.14-0.094H8.17
				c0.033,0,0.079-0.015,0.141-0.047c0-0.031,0.015-0.063,0.048-0.093c0.031,0,0.063-0.016,0.093-0.046
				c0.031-0.031,0.062-0.048,0.094-0.048c0-0.031,0.016-0.063,0.047-0.094c0.063-0.031,0.109-0.061,0.141-0.093l0.047-0.048
				c0.031-0.032,0.078-0.064,0.142-0.094C8.985,11.062,9.016,11.031,9.016,11c0.063-0.031,0.109-0.063,0.142-0.094h0.046
				c0.032-0.032,0.048-0.062,0.048-0.094c0.031-0.031,0.062-0.063,0.093-0.095c0.031,0,0.063,0,0.093,0
				c0.033-0.032,0.08-0.062,0.143-0.094c0.03-0.031,0.045-0.063,0.045-0.093c0.032-0.032,0.064-0.048,0.097-0.048
				c0-0.031,0.014-0.062,0.045-0.094c0.062,0,0.108-0.013,0.14-0.046C9.94,10.31,9.97,10.279,10,10.247
				c0.032,0,0.065-0.014,0.095-0.046c0.032-0.03,0.063-0.062,0.095-0.094c0.03-0.032,0.077-0.063,0.141-0.095
				c0.031,0,0.063-0.015,0.093-0.046c0.063-0.03,0.11-0.062,0.142-0.094c0.031-0.031,0.077-0.046,0.14-0.046h0.047
				C10.784,9.795,10.8,9.763,10.8,9.732c0.063-0.031,0.108-0.063,0.141-0.094C10.97,9.608,11.018,9.593,11.082,9.591z"/>
</svg>
