<?xml version="1.0"?>
<svg version="1.1" id="Layer_2" xmlns="http://www.w3.org/2000/svg" x="0px" y="0px" width="256px" height="256px" viewBox="0 0 409.6 409.6">
  <path d="M275.1,153c-4.3-0.2-8,3.9-8.2,9.1l-5.8,136.5c-0.1,3.3-2.5,6.1-5.3,6.1H155.1c-2.7,0-5.1-2.8-5.3-6.1
						l-5.8-136.5c-0.2-5.2-3.9-9.3-8.2-9.1c-4.3,0.2-7.7,4.6-7.5,9.9l5.8,136.5c0.5,13.4,9.8,24.2,21,24.2h100.8
						c11.2,0,20.5-10.8,21-24.2l5.8-136.5C282.9,157.6,279.5,153.2,275.1,153z M211.8,276.1v-98.4c0-4.2-2.8-7.6-6.3-7.6
						c-3.5,0-6.3,3.4-6.3,7.6v98.4c0,4.2,2.8,7.6,6.3,7.6C209,283.7,211.8,280.3,211.8,276.1z M174.2,283.7c3.5-0.1,6.2-3.6,6.1-7.8
						l-3.1-98.4c-0.1-4.2-3-7.5-6.5-7.4c-3.5,0.1-6.2,3.6-6.1,7.8l3.1,98.4C167.8,280.5,170.7,283.8,174.2,283.7z M243.3,276.3l3.2-98.4
						c0.1-4.2-2.6-7.7-6.1-7.8c-3.5-0.1-6.4,3.2-6.5,7.4l-3.2,98.4c-0.1,4.2,2.6,7.7,6.1,7.8C240.3,283.8,243.2,280.5,243.3,276.3z
						M284.3,120.7h-40l-3-12.6c-2.6-11.1-12-19.6-21.6-19.6h-28.4c-9.6,0-19,8.5-21.6,19.6l-3,12.6h-40c-4.3,0-7.9,4.3-7.9,9.5
						s3.5,9.5,7.9,9.5h157.5c4.3,0,7.9-4.2,7.9-9.5S288.6,120.7,284.3,120.7z M183.1,120.7l1.8-7.4c0.7-3,3.9-5.9,6.4-5.9h28.4
						c2.6,0,5.7,2.9,6.4,5.9l1.8,7.4H183.1z"/>
</svg>
