<?xml version="1.0"?>
<svg xmlns="http://www.w3.org/2000/svg" viewBox="0 0 36 36" fill="none">
  <path fill="currentColor" fill-rule="evenodd" clip-rule="evenodd" d="M18 1L0 33H36L18 1ZM21.63 12L20.42 22H15.58L14.37 12H21.63ZM18 30C17.4067 30 16.8266 29.8241 16.3333 29.4944C15.8399 29.1648 15.4554 28.6962 15.2284 28.1481C15.0013 27.5999 14.9419 26.9967 15.0576 26.4147C15.1734 25.8328 15.4591 25.2982 15.8787 24.8787C16.2982 24.4591 16.8328 24.1734 17.4147 24.0576C17.9967 23.9419 18.5999 24.0013 19.1481 24.2284C19.6962 24.4554 20.1648 24.8399 20.4944 25.3333C20.8241 25.8266 21 26.4067 21 27C21 27.7956 20.6839 28.5587 20.1213 29.1213C19.5587 29.6839 18.7956 30 18 30Z"/>
</svg>
