<?xml version="1.0"?>
<svg xmlns="http://www.w3.org/2000/svg" viewBox="0 0 36 36" fill="none">
  <path fill="currentColor" fill-rule="evenodd" clip-rule="evenodd" d="M18 26.5C22.6944 26.5 26.5 22.6944 26.5 18C26.5 13.3056 22.6944 9.5 18 9.5C13.3056 9.5 9.5 13.3056 9.5 18C9.5 22.6944 13.3056 26.5 18 26.5ZM18 28C23.5228 28 28 23.5228 28 18C28 12.4772 23.5228 8 18 8C12.4772 8 8 12.4772 8 18C8 23.5228 12.4772 28 18 28Z"/>
  <path fill="currentColor" fill-rule="evenodd" clip-rule="evenodd" d="M2.87273 18.8887C2.39073 18.8887 2 18.4907 2 17.9998C2 17.5089 2.39073 17.1109 2.87273 17.1109H4.61818C5.10018 17.1109 5.49091 17.5089 5.49091 17.9998C5.49091 18.4907 5.10018 18.8887 4.61818 18.8887H2.87273ZM31.3818 18.8887C30.8998 18.8887 30.5091 18.4907 30.5091 17.9998C30.5091 17.5089 30.8998 17.1109 31.3818 17.1109H33.1273C33.6093 17.1109 34 17.5089 34 17.9998C34 18.4907 33.6093 18.8887 33.1273 18.8887H31.3818Z"/>
  <path fill="currentColor" fill-rule="evenodd" clip-rule="evenodd" d="M18.8887 33.1273C18.8887 33.6093 18.4907 34 17.9998 34C17.5089 34 17.1109 33.6093 17.1109 33.1273V31.3818C17.1109 30.8998 17.5089 30.5091 17.9998 30.5091C18.4907 30.5091 18.8887 30.8998 18.8887 31.3818V33.1273ZM18.8887 4.61818C18.8887 5.10018 18.4907 5.49091 17.9998 5.49091C17.5089 5.49091 17.1109 5.10018 17.1109 4.61818V2.87273C17.1109 2.39074 17.5089 2 17.9998 2C18.4907 2 18.8887 2.39074 18.8887 2.87273V4.61818Z"/>
  <path fill="currentColor" fill-rule="evenodd" clip-rule="evenodd" d="M18 19.5279C16.3411 19.5279 14.8713 19.3139 13.8432 18.9883C13.325 18.8242 12.9616 18.6451 12.7436 18.4819C12.614 18.3849 12.5692 18.3206 12.5546 18.2927C12.5692 18.2648 12.614 18.2005 12.7436 18.1035C12.9616 17.9403 13.325 17.7612 13.8432 17.5971C13.8533 17.5939 13.8636 17.5906 13.8738 17.5874C13.9045 17.046 13.9563 16.5189 14.028 16.0132C13.7914 16.0706 13.566 16.1331 13.3531 16.2005C12.7447 16.3932 12.1965 16.6388 11.7844 16.9473C11.3811 17.2492 11 17.6983 11 18.2927C11 18.8871 11.3811 19.3361 11.7844 19.6381C12.1965 19.9466 12.7447 20.1922 13.3531 20.3849C14.578 20.7727 16.2209 21 18 21C19.7791 21 21.422 20.7727 22.6469 20.3849C23.2553 20.1922 23.8035 19.9466 24.2156 19.6381C24.6189 19.3361 25 18.8871 25 18.2927C25 17.6983 24.6189 17.2492 24.2156 16.9473C23.8035 16.6388 23.2553 16.3932 22.6469 16.2005C22.4176 16.1279 22.1736 16.0609 21.9169 16C21.9888 16.5045 22.041 17.0304 22.072 17.5708C22.1006 17.5795 22.1289 17.5882 22.1568 17.5971C22.675 17.7612 23.0384 17.9403 23.2564 18.1035C23.386 18.2005 23.4308 18.2648 23.4454 18.2927C23.4308 18.3206 23.386 18.3849 23.2564 18.4819C23.0384 18.6451 22.675 18.8242 22.1568 18.9883C21.1287 19.3139 19.6589 19.5279 18 19.5279ZM12.548 18.2768C12.5481 18.2768 12.5483 18.2776 12.5486 18.2792C12.5481 18.2776 12.548 18.2768 12.548 18.2768ZM12.5486 18.3062C12.5483 18.3078 12.5481 18.3086 12.548 18.3086C12.548 18.3086 12.5481 18.3078 12.5486 18.3062ZM23.4518 18.3081C23.4519 18.3084 23.452 18.3086 23.452 18.3086C23.452 18.3086 23.452 18.3083 23.4518 18.3077C23.4517 18.3073 23.4516 18.3068 23.4514 18.3062C23.4515 18.3071 23.4517 18.3077 23.4518 18.3081ZM23.4514 18.2792C23.4517 18.2776 23.4519 18.2768 23.452 18.2768C23.452 18.2768 23.4519 18.2776 23.4514 18.2792Z"/>
  <path fill="currentColor" fill-rule="evenodd" clip-rule="evenodd" d="M17.1226 21.8281C17.1567 21.9421 17.1923 22.0518 17.2292 22.1568C17.411 22.675 17.6095 23.0384 17.7903 23.2564C17.8978 23.386 17.969 23.4308 18 23.4454C18.0309 23.4308 18.1021 23.386 18.2096 23.2564C18.3904 23.0384 18.589 22.675 18.7708 22.1568C18.8062 22.0559 18.8404 21.9507 18.8734 21.8414C19.454 21.8301 20.0246 21.8033 20.5801 21.7617C20.5024 22.0757 20.4149 22.3718 20.3184 22.6469C20.1049 23.2553 19.8327 23.8035 19.4908 24.2156C19.1562 24.6189 18.6586 25 18 25C17.3413 25 16.8437 24.6189 16.5091 24.2156C16.1672 23.8035 15.8951 23.2553 15.6816 22.6469C15.5808 22.3597 15.4898 22.0495 15.4096 21.72C15.9651 21.7714 16.5379 21.8077 17.1226 21.8281ZM16.6316 18.1083C16.6313 18.0723 16.6312 18.0362 16.6312 18C16.6312 16.3411 16.8684 14.8713 17.2292 13.8432C17.411 13.325 17.6095 12.9616 17.7903 12.7436C17.8978 12.614 17.969 12.5692 18 12.5546C18.0309 12.5692 18.1021 12.614 18.2096 12.7436C18.3904 12.9616 18.589 13.325 18.7708 13.8432C19.1316 14.8713 19.3687 16.3411 19.3687 18C19.3687 18.0445 19.3685 18.0889 19.3682 18.1332C19.9413 18.1094 20.4875 18.0679 21 18.0119C21 18.0079 21 18.004 21 18C21 16.2209 20.7482 14.578 20.3184 13.3531C20.1049 12.7447 19.8327 12.1965 19.4908 11.7844C19.1562 11.3811 18.6586 11 18 11C17.3413 11 16.8437 11.3811 16.5091 11.7844C16.1672 12.1965 15.8951 12.7447 15.6816 13.3531C15.2556 14.5672 15.0044 16.1919 15 17.9529C15.5078 18.0204 16.0542 18.0734 16.6316 18.1083ZM17.985 23.4514C17.9832 23.4517 17.9824 23.4519 17.9824 23.452C17.9824 23.452 17.9825 23.452 17.9829 23.4519C17.9833 23.4518 17.984 23.4517 17.985 23.4514ZM18.0149 23.4514C18.0167 23.4517 18.0176 23.4519 18.0176 23.452C18.0176 23.452 18.0167 23.4519 18.0149 23.4514ZM18.017 12.5482C18.0174 12.5481 18.0176 12.548 18.0176 12.548C18.0176 12.548 18.0167 12.5481 18.0149 12.5486C18.0158 12.5485 18.0165 12.5483 18.017 12.5482ZM17.985 12.5486C17.9833 12.5483 17.9824 12.5481 17.9824 12.548C17.9824 12.548 17.9833 12.5481 17.985 12.5486Z"/>
</svg>
