<?xml version="1.0"?>
<svg xmlns="http://www.w3.org/2000/svg" viewBox="0 0 55 37" fill="none">
  <path fill="currentColor" d="M33.6009 7.90708H50.8782C52.0142 7.90708 53.0449 8.3717 53.791 9.12055C54.5374 9.86976 55 10.9044 55 12.0447V25.672C55 27.9496 53.1458 29.8097 50.8783 29.8097H48.12C47.3373 31.81 45.8447 33.5566 43.8136 34.8285C41.6511 36.1828 38.8737 37 35.704 37C34.988 37 34.4074 36.4171 34.4074 35.6983C34.4074 35.1888 34.699 34.7479 35.1234 34.534C36.2956 33.8138 36.9901 33.0738 37.3857 32.1952C37.6859 31.5282 37.8413 30.7449 37.9168 29.8096H25.5205C23.2519 29.8096 21.3991 27.9482 21.3991 25.6719V21.9028H17.0836C17.1592 22.8378 17.3146 23.6212 17.6148 24.2881C18.0105 25.167 18.7048 25.9068 19.8768 26.6272C20.3014 26.8411 20.5928 27.2819 20.5928 27.7913C20.5928 28.5101 20.0122 29.093 19.2961 29.093C16.1265 29.093 13.3488 28.2756 11.1865 26.9217C9.15546 25.6497 7.66267 23.9032 6.88002 21.9029H4.12174C1.854 21.9029 0 20.0436 0 17.7653V4.13753C0 1.86138 1.85313 0 4.12174 0H29.4796C31.7473 0 33.6011 1.85943 33.6011 4.13753L33.6009 7.90708ZM23.9921 21.9028V25.6719C23.9921 26.5196 24.676 27.2063 25.5202 27.2063C30.1078 27.2063 34.7063 27.2113 39.2871 27.2113C40.0005 27.2225 40.5695 27.8123 40.5584 28.5282C40.5267 30.4189 40.346 31.9294 39.7456 33.2629C39.6428 33.4912 39.529 33.7121 39.4031 33.9267C40.5378 33.6214 41.5597 33.1767 42.4457 32.6218C44.2148 31.5141 45.4374 29.9682 45.9188 28.231C46.0452 27.6452 46.5644 27.2064 47.1859 27.2064H50.8781C51.7206 27.2064 52.4066 26.5198 52.4066 25.6721V12.0448C52.4066 11.623 52.2346 11.2396 51.9574 10.9613C51.6804 10.6832 51.2983 10.5106 50.8781 10.5106H33.6009V17.7653C33.6009 18.9021 33.138 19.9352 32.3921 20.6842L32.387 20.6892C31.6407 21.4382 30.6117 21.9027 29.4793 21.9027H23.992L23.9921 21.9028ZM9.08081 20.3238C9.56237 22.061 10.7848 23.607 12.5541 24.7148C13.4403 25.2696 14.4621 25.7144 15.5971 26.0197C15.4712 25.8051 15.3572 25.584 15.2544 25.3557C14.654 24.0223 14.473 22.5121 14.4412 20.6215C14.4301 19.9054 14.9992 19.3156 15.7125 19.3046C18.0317 19.3046 20.3694 19.2996 22.6953 19.2996H29.479C29.9011 19.2996 30.284 19.128 30.5608 18.8512C30.8365 18.5733 31.0074 18.1891 31.0074 17.7654V4.13759C31.0074 3.29058 30.3211 2.60342 29.4792 2.60342H4.12137C3.27726 2.60342 2.59295 3.29187 2.59295 4.13759V17.7654C2.59295 18.6124 3.27947 19.2995 4.12137 19.2995H7.81361C8.43495 19.2995 8.95412 19.7383 9.08072 20.3239L9.08081 20.3238Z"/>
</svg>
