<?xml version="1.0"?>
<svg xmlns="http://www.w3.org/2000/svg" viewBox="0 0 36 36" fill="none">
  <path fill="currentColor" d="M9.82998 20L13.41 23.59L10.59 26.41L2.16998 18L10.59 9.59L13.41 12.41L9.82998 16H22V20H9.82998ZM20.15 4H18V8H20.15C22.8021 8 25.3457 9.05357 27.2211 10.9289C29.0964 12.8043 30.15 15.3478 30.15 18C30.15 20.6522 29.0964 23.1957 27.2211 25.0711C25.3457 26.9464 22.8021 28 20.15 28H18V32H20.15C23.863 32 27.424 30.525 30.0495 27.8995C32.675 25.274 34.15 21.713 34.15 18C34.15 14.287 32.675 10.726 30.0495 8.1005C27.424 5.475 23.863 4 20.15 4Z"/>
</svg>
