<?xml version="1.0"?>
<svg xmlns="http://www.w3.org/2000/svg" viewBox="0 0 1280 500" fill="none">
  <path stroke="currentColor" d="M659.985 288.483C659.985 268.856 644.074 252.945 624.447 252.945H552.926C545.422 252.945 539.338 246.862 539.338 239.357C539.338 231.853 545.367 225.769 552.872 225.769C584.738 225.769 665.528 225.769 714.955 225.769C721.882 225.769 727.48 220.154 727.48 213.227C727.48 206.3 721.864 200.684 714.937 200.684H553.972C545.89 200.684 539.338 194.132 539.338 186.051C539.338 177.969 545.89 171.418 553.972 171.418H714.937C721.864 171.418 727.48 165.802 727.48 158.875C727.48 151.948 721.916 146.332 714.989 146.332C702.279 146.332 681.52 146.332 660.585 146.332C623.64 146.332 593.69 116.382 593.69 79.4373V10.4521" stroke-width="8.36184"/>
  <rect fill="currentColor" x="568.605" width="50.171" height="12.5428"/>
  <path fill="currentColor" d="M698.213 305.207C707.45 305.207 714.937 312.694 714.937 321.931V334.474C714.937 343.71 707.45 351.197 698.213 351.197H618.776C609.54 351.197 602.052 343.71 602.052 334.474V321.931C602.052 312.694 609.54 305.207 618.776 305.207H698.213ZM640.352 317.525C638.126 317.525 636.321 319.33 636.321 321.557C636.321 323.783 638.126 325.588 640.352 325.588C642.579 325.588 644.383 323.783 644.383 321.557C644.383 319.33 642.579 317.525 640.352 317.525ZM658.495 317.525C656.268 317.525 654.462 319.33 654.462 321.557C654.462 323.783 656.268 325.588 658.495 325.588C660.721 325.588 662.526 323.783 662.526 321.557C662.526 319.33 660.721 317.526 658.495 317.525ZM674.62 317.525C672.393 317.526 670.588 319.33 670.588 321.557C670.588 323.783 672.393 325.588 674.62 325.588C676.846 325.588 678.652 323.783 678.652 321.557C678.652 319.33 676.846 317.525 674.62 317.525Z"/>
  <rect fill="currentColor" x="652.223" y="288.483" width="16.7237" height="16.7237"/>
</svg>
