<?xml version="1.0"?>
<svg xmlns="http://www.w3.org/2000/svg" width="1002" height="619" viewBox="0 0 1002 619" fill="none">
  <path onClick="" stroke="currentColor" d="M865.004 16.4768V26.8562C865.004 26.8562 768.919 16.4768 748.139 21.6665V11.2871C794.889 -12.099 865.004 16.4768 865.004 16.4768Z" stroke-width="4" stroke-miterlimit="10"/>
  <path onClick="" d="M135.236 16.4767V26.8561C135.236 26.8561 231.321 16.4767 252.102 21.6664V11.287C205.438 -12.0991 135.236 16.4767 135.236 16.4767Z"/>
  <path stroke="currentColor" d="M252.015 21.5794V11.2002C205.264 -12.1859 135.149 16.3899 135.149 16.3899V26.7691M135.236 16.4767V26.8561C135.236 26.8561 231.321 16.4767 252.102 21.6664V11.287C205.438 -12.0991 135.236 16.4767 135.236 16.4767Z" stroke-width="4" stroke-miterlimit="10"/>
  <path stroke="currentColor" opacity="0.5" d="M796.322 547.366L797.082 547.583C956.507 591.293 996.157 488.737 996.852 486.783C994.681 556.268 973.618 610.054 915.185 613.876C915.25 613.789 832.976 626.622 796.322 547.366Z" stroke-width="4" stroke-miterlimit="10"/>
  <path stroke="currentColor" opacity="0.5" d="M204.83 547.366L204.07 547.583C44.6446 591.293 4.97294 488.737 4.2998 486.783C6.6015 556.268 27.5556 610.054 85.9883 613.876C86.01 613.789 168.198 626.622 204.83 547.366Z" stroke-width="4" stroke-miterlimit="10"/>
  <path stroke="currentColor" d="M466.355 250.186C468.501 250.186 470.241 248.446 470.241 246.299C470.241 244.152 468.501 242.412 466.355 242.412C464.208 242.412 462.468 244.152 462.468 246.299C462.468 248.446 464.208 250.186 466.355 250.186Z" stroke-width="0.5" stroke-miterlimit="10"/>
  <path stroke="currentColor" d="M483.9 250.186C486.046 250.186 487.786 248.446 487.786 246.299C487.786 244.152 486.046 242.412 483.9 242.412C481.753 242.412 480.013 244.152 480.013 246.299C480.013 248.446 481.753 250.186 483.9 250.186Z" stroke-width="0.5" stroke-miterlimit="10"/>
  <path stroke="currentColor" d="M501.423 250.186C503.57 250.186 505.31 248.446 505.31 246.299C505.31 244.152 503.57 242.412 501.423 242.412C499.276 242.412 497.536 244.152 497.536 246.299C497.536 248.446 499.276 250.186 501.423 250.186Z" stroke-width="0.5" stroke-miterlimit="10"/>
  <path stroke="currentColor" d="M518.946 250.186C521.093 250.186 522.833 248.446 522.833 246.299C522.833 244.152 521.093 242.412 518.946 242.412C516.799 242.412 515.059 244.152 515.059 246.299C515.059 248.446 516.799 250.186 518.946 250.186Z" stroke-width="0.5" stroke-miterlimit="10"/>
  <path stroke="currentColor" d="M536.491 250.186C538.638 250.186 540.378 248.446 540.378 246.299C540.378 244.152 538.638 242.412 536.491 242.412C534.345 242.412 532.604 244.152 532.604 246.299C532.604 248.446 534.345 250.186 536.491 250.186Z" stroke-width="0.5" stroke-miterlimit="10"/>
  <path stroke="currentColor" d="M474.15 263.171C476.297 263.171 478.037 261.431 478.037 259.284C478.037 257.138 476.297 255.397 474.15 255.397C472.003 255.397 470.263 257.138 470.263 259.284C470.263 261.431 472.003 263.171 474.15 263.171Z" stroke-width="0.5" stroke-miterlimit="10"/>
  <path stroke="currentColor" d="M492.325 263.171C494.471 263.171 496.212 261.431 496.212 259.284C496.212 257.138 494.471 255.397 492.325 255.397C490.178 255.397 488.438 257.138 488.438 259.284C488.438 261.431 490.178 263.171 492.325 263.171Z" stroke-width="0.5" stroke-miterlimit="10"/>
  <path stroke="currentColor" d="M510.521 263.171C512.668 263.171 514.408 261.431 514.408 259.284C514.408 257.138 512.668 255.397 510.521 255.397C508.374 255.397 506.634 257.138 506.634 259.284C506.634 261.431 508.374 263.171 510.521 263.171Z" stroke-width="0.5" stroke-miterlimit="10"/>
  <path stroke="currentColor" d="M528.696 263.171C530.843 263.171 532.583 261.431 532.583 259.284C532.583 257.138 530.843 255.397 528.696 255.397C526.549 255.397 524.809 257.138 524.809 259.284C524.809 261.431 526.549 263.171 528.696 263.171Z" stroke-width="0.5" stroke-miterlimit="10"/>
  <path stroke="currentColor" d="M483.9 276.155C486.046 276.155 487.786 274.415 487.786 272.269C487.786 270.122 486.046 268.382 483.9 268.382C481.753 268.382 480.013 270.122 480.013 272.269C480.013 274.415 481.753 276.155 483.9 276.155Z" stroke-width="0.5" stroke-miterlimit="10"/>
  <path stroke="currentColor" d="M501.423 276.155C503.57 276.155 505.31 274.415 505.31 272.269C505.31 270.122 503.57 268.382 501.423 268.382C499.276 268.382 497.536 270.122 497.536 272.269C497.536 274.415 499.276 276.155 501.423 276.155Z" stroke-width="0.5" stroke-miterlimit="10"/>
  <path stroke="currentColor" d="M518.946 276.155C521.093 276.155 522.833 274.415 522.833 272.269C522.833 270.122 521.093 268.382 518.946 268.382C516.799 268.382 515.059 270.122 515.059 272.269C515.059 274.415 516.799 276.155 518.946 276.155Z" stroke-width="0.5" stroke-miterlimit="10"/>
  <path stroke="currentColor" d="M866.198 26.7695L876.578 29.3752C876.578 29.3752 892.19 58.0378 899.964 68.4171C907.737 78.7965 920.723 91.8034 938.919 159.313C957.094 226.843 1074 603.409 915.576 613.789C915.576 613.789 832.498 626.795 796.149 546.279C759.799 465.763 749.42 442.399 741.625 413.824C741.625 413.824 733.851 393 723.45 400.795C713.049 408.59 661.109 455.341 590.994 398.189H414.717C341.717 457.403 286.217 413.824 276.217 400.795C265.838 393.043 259.984 413.824 259.984 413.824C252.188 442.399 241.765 465.742 205.438 546.279C169.11 626.817 86.0102 613.789 86.0102 613.789C-72.5028 603.409 44.3191 226.865 62.5155 159.356C80.7119 91.8467 93.6752 78.8834 101.471 68.4606C109.266 58.0378 124.77 29.3752 124.77 29.3752L135.149 26.7695C135.149 26.7695 231.321 16.4771 252.101 21.6667M252.015 21.5798C252.015 21.5798 272.882 26.8129 278.072 34.6083H723.276C728.552 26.7695 749.333 21.5798 749.333 21.5798C770.113 16.3901 865.004 26.8564 865.004 26.8564" stroke-width="8" stroke-miterlimit="10"/>
  <path stroke="currentColor" d="M348.143 29.4619H654.616C658.071 29.4619 661.385 30.8346 663.828 33.2779C666.272 35.7212 667.644 39.035 667.644 42.4904V199.505C667.644 204.688 665.585 209.659 661.92 213.324C658.255 216.989 653.285 219.048 648.102 219.048H354.657C349.474 219.048 344.503 216.989 340.838 213.324C337.173 209.659 335.114 204.688 335.114 199.505V42.4904C335.114 39.035 336.487 35.7212 338.93 33.2779C341.374 30.8346 344.687 29.4619 348.143 29.4619V29.4619Z" stroke-width="4" stroke-miterlimit="10"/>
  <path stroke="currentColor" d="M500.228 356.693C515.291 356.693 527.501 344.483 527.501 329.42C527.501 314.358 515.291 302.147 500.228 302.147C485.166 302.147 472.956 314.358 472.956 329.42C472.956 344.483 485.166 356.693 500.228 356.693Z" stroke-width="4"/>
  <path fill="currentColor" d="M495.56 313.83C497.167 314.134 498.752 314.568 500.315 315.024L503.008 315.828C504.423 316.241 505.786 316.817 507.069 317.543C507.65 317.874 508.183 318.283 508.654 318.759C509.165 319.253 509.585 319.833 509.891 320.475C510.396 321.649 510.669 322.91 510.695 324.188C510.738 325.022 510.695 325.859 510.565 326.685C510.44 327.396 510.19 328.08 509.826 328.704C509.488 329.261 509.008 329.718 508.437 330.029C507.889 330.318 507.275 330.46 506.656 330.441C505.726 330.424 504.812 330.194 503.985 329.768C503.985 326.967 503.985 324.188 503.985 321.387C504.028 320.888 504.028 320.387 503.985 319.888C503.938 319.491 503.754 319.122 503.464 318.846C503.248 318.675 502.995 318.556 502.726 318.499C502.595 318.477 502.461 318.492 502.338 318.542C502.216 318.591 502.109 318.674 502.031 318.781C501.789 319.14 501.661 319.564 501.662 319.997V342.406L495.647 340.495L495.56 313.83Z"/>
  <path fill="currentColor" d="M486.527 332.742L494.387 329.963V333.046C494.398 333.184 494.398 333.322 494.387 333.459L488.177 335.63C487.88 335.723 487.606 335.878 487.374 336.086C487.318 336.138 487.276 336.203 487.253 336.275C487.231 336.348 487.227 336.425 487.243 336.499C487.333 336.657 487.481 336.774 487.656 336.825C488.115 336.99 488.601 337.071 489.089 337.063C489.629 337.06 490.168 337.002 490.696 336.89C491.05 336.814 491.399 336.713 491.738 336.586L494.387 335.609C494.387 336.477 494.387 337.367 494.387 338.236C494.387 338.41 494.387 338.583 494.387 338.757C493.298 338.96 492.194 339.076 491.087 339.105C488.875 339.138 486.673 338.8 484.572 338.106C483.864 337.923 483.195 337.614 482.596 337.194C482.268 336.957 482.012 336.634 481.858 336.26C481.789 336.103 481.753 335.932 481.753 335.76C481.753 335.589 481.789 335.418 481.858 335.261C482.003 334.947 482.237 334.683 482.531 334.501C483.214 334.062 483.942 333.698 484.703 333.415C485.224 333.177 485.875 332.981 486.527 332.742Z"/>
  <path fill="currentColor" d="M507.59 331.571C508.198 331.571 508.784 331.571 509.392 331.571C511.363 331.56 513.325 331.845 515.211 332.417L516.297 332.787C516.967 333.005 517.593 333.344 518.143 333.785C518.312 333.924 518.452 334.095 518.552 334.29C518.653 334.484 518.713 334.696 518.729 334.915C518.728 335.268 518.596 335.608 518.36 335.87C517.889 336.347 517.338 336.736 516.731 337.021C516.102 337.325 515.428 337.542 514.777 337.781L502.726 342.124V338.758V338.628L511.889 335.349C512.32 335.231 512.73 335.048 513.105 334.806C513.235 334.697 513.387 334.524 513.3 334.328C513.261 334.251 513.205 334.182 513.138 334.126C513.071 334.07 512.993 334.028 512.91 334.003C512.443 333.836 511.95 333.755 511.455 333.764C510.718 333.77 509.985 333.887 509.283 334.111L502.769 336.413V332.787C504.325 332.2 505.942 331.792 507.59 331.571V331.571Z"/>
  <path onClick="" stroke="currentColor" d="M710.247 58.0156H705.557C698.961 58.0156 693.614 63.3626 693.614 69.9584V100.619C693.614 107.215 698.961 112.561 705.557 112.561H710.247C716.843 112.561 722.19 107.215 722.19 100.619V69.9584C722.19 63.3626 716.843 58.0156 710.247 58.0156Z" stroke-width="4" stroke-miterlimit="10"/>
  <path onClick="" stroke="currentColor" d="M299.373 58.0156H294.683C288.087 58.0156 282.74 63.3626 282.74 69.9584V100.619C282.74 107.215 288.087 112.561 294.683 112.561H299.373C305.969 112.561 311.316 107.215 311.316 100.619V69.9584C311.316 63.3626 305.969 58.0156 299.373 58.0156Z" stroke-width="4" stroke-miterlimit="10"/>
  <path onClick="" stroke="currentColor" d="M217.055 116.557C216.874 112.94 215.271 109.54 212.595 107.099C209.919 104.659 206.386 103.376 202.767 103.529H175.494C173.858 103.453 172.224 103.7 170.684 104.256C169.144 104.812 167.729 105.666 166.519 106.769C165.309 107.872 164.328 109.202 163.633 110.684C162.937 112.167 162.541 113.771 162.465 115.407V148.716C162.461 149.673 162.662 150.621 163.056 151.493C163.449 152.366 164.025 153.144 164.745 153.775L184.136 171.559C185.659 172.903 187.62 173.644 189.651 173.644C191.682 173.644 193.644 172.903 195.167 171.559L214.558 153.775C215.25 153.129 215.801 152.345 216.175 151.474C216.548 150.603 216.737 149.664 216.729 148.716L217.055 116.557Z" stroke-width="4" stroke-miterlimit="10"/>
  <path onClick="" stroke="currentColor" d="M217.055 256.613C216.874 260.231 215.272 263.631 212.595 266.071C209.919 268.512 206.386 269.795 202.767 269.642H175.494C172.189 269.789 168.961 268.619 166.518 266.388C164.075 264.157 162.618 261.047 162.465 257.742V224.498C162.46 223.541 162.66 222.593 163.054 221.72C163.447 220.847 164.024 220.069 164.745 219.439L184.136 201.655C185.659 200.312 187.62 199.57 189.651 199.57C191.682 199.57 193.644 200.312 195.167 201.655L214.558 219.439C215.251 220.085 215.803 220.869 216.177 221.74C216.55 222.611 216.739 223.55 216.729 224.498V224.498L217.055 256.613Z" stroke-width="4" stroke-miterlimit="10"/>
  <path onClick="" stroke="currentColor" d="M118.451 213.945C114.833 213.765 111.434 212.162 108.993 209.485C106.553 206.809 105.269 203.276 105.423 199.657V172.297C105.275 168.992 106.446 165.764 108.677 163.321C110.908 160.878 114.017 159.421 117.322 159.269H150.61C151.559 159.25 152.501 159.433 153.374 159.808C154.247 160.182 155.029 160.739 155.669 161.44L173.453 180.831C174.796 182.354 175.538 184.315 175.538 186.346C175.538 188.377 174.796 190.339 173.453 191.862L155.669 211.253C155.026 211.951 154.243 212.505 153.371 212.879C152.5 213.253 151.558 213.439 150.61 213.424V213.424L118.451 213.945Z" stroke-width="4" stroke-miterlimit="10"/>
  <path onClick="" stroke="currentColor" d="M258.507 213.945C262.125 213.765 265.524 212.162 267.965 209.485C270.405 206.809 271.689 203.276 271.535 199.657V172.297C271.611 170.662 271.364 169.027 270.808 167.487C270.252 165.948 269.399 164.532 268.296 163.322C267.193 162.113 265.862 161.132 264.38 160.436C262.898 159.741 261.293 159.344 259.658 159.269H226.392C225.443 159.251 224.501 159.435 223.628 159.81C222.756 160.184 221.973 160.74 221.332 161.44L203.549 180.831C202.205 182.354 201.464 184.315 201.464 186.346C201.464 188.377 202.205 190.338 203.549 191.862L221.332 211.252C221.977 211.948 222.76 212.501 223.632 212.875C224.503 213.249 225.444 213.436 226.392 213.424L258.507 213.945Z" stroke-width="4" stroke-miterlimit="10"/>
  <path stroke="currentColor" opacity="0.5" d="M189.782 93.084H175.494L182.638 86.8521L189.782 80.6201L196.926 86.8521L204.07 93.084H189.782Z" stroke-width="4" stroke-miterlimit="10"/>
  <path stroke="currentColor" opacity="0.5" d="M189.782 280.586H175.494L182.638 286.818L189.782 293.05L196.926 286.818L204.07 280.586H189.782Z" stroke-width="4" stroke-miterlimit="10"/>
  <path stroke="currentColor" opacity="0.5" d="M283.543 186.845V172.558L289.775 179.702L295.986 186.845L289.775 193.989L283.543 201.133V186.845Z" stroke-width="4" stroke-miterlimit="10"/>
  <path stroke="currentColor" opacity="0.5" d="M96.0205 186.845V172.558L89.7886 179.702L83.5566 186.845L89.7886 193.989L96.0205 201.133V186.845Z" stroke-width="4" stroke-miterlimit="10"/>
  <path stroke="currentColor" opacity="0.5" d="M189.261 302.148C253.444 302.148 305.475 250.117 305.475 185.934C305.475 121.75 253.444 69.7197 189.261 69.7197C125.078 69.7197 73.0469 121.75 73.0469 185.934C73.0469 250.117 125.078 302.148 189.261 302.148Z" stroke-width="4" stroke-miterlimit="10"/>
  <path onClick="" stroke="currentColor" d="M813.932 143.721C831.357 143.721 845.483 129.596 845.483 112.171C845.483 94.7458 831.357 80.6201 813.932 80.6201C796.508 80.6201 782.382 94.7458 782.382 112.171C782.382 129.596 796.508 143.721 813.932 143.721Z" stroke-width="4" stroke-miterlimit="10"/>
  <path onClick="" stroke="currentColor" d="M740.951 217.506C758.376 217.506 772.502 203.38 772.502 185.955C772.502 168.53 758.376 154.404 740.951 154.404C723.526 154.404 709.4 168.53 709.4 185.955C709.4 203.38 723.526 217.506 740.951 217.506Z" stroke-width="4" stroke-miterlimit="10"/>
  <path onClick="" stroke="currentColor" d="M887.044 217.506C904.469 217.506 918.594 203.38 918.594 185.955C918.594 168.53 904.469 154.404 887.044 154.404C869.619 154.404 855.493 168.53 855.493 185.955C855.493 203.38 869.619 217.506 887.044 217.506Z" stroke-width="4" stroke-miterlimit="10"/>
  <path onClick="" stroke="currentColor" d="M813.932 291.768C831.357 291.768 845.483 277.643 845.483 260.218C845.483 242.793 831.357 228.667 813.932 228.667C796.508 228.667 782.382 242.793 782.382 260.218C782.382 277.643 796.508 291.768 813.932 291.768Z" stroke-width="4" stroke-miterlimit="10"/>
  <path stroke="#3CCAD0" d="M813.684 125.117H833.673L823.678 107.808L813.684 90.4785L803.689 107.808L793.673 125.117H813.684Z" stroke-width="3" stroke-miterlimit="10"/>
  <path stroke="#D6B4D7" d="M758.451 168.455H723.451V203.455H758.451V168.455Z" stroke-width="3" stroke-miterlimit="10"/>
  <path stroke="#ED838F" d="M887.044 205.955C898.09 205.955 907.044 197.001 907.044 185.955C907.044 174.909 898.09 165.955 887.044 165.955C875.998 165.955 867.044 174.909 867.044 185.955C867.044 197.001 875.998 205.955 887.044 205.955Z" stroke-width="3" stroke-miterlimit="10"/>
  <path fill="#97AFDD" d="M832.253 243.663L830.486 241.896L813.943 258.461L797.378 241.896L795.612 243.663L812.176 260.227L795.612 276.771L797.378 278.538L813.943 261.973L830.486 278.538L832.253 276.771L815.689 260.227L832.253 243.663Z"/>
  <path stroke="currentColor" opacity="0.5" d="M813.845 300.845C878.028 300.845 930.059 248.814 930.059 184.631C930.059 120.448 878.028 68.417 813.845 68.417C749.662 68.417 697.631 120.448 697.631 184.631C697.631 248.814 749.662 300.845 813.845 300.845Z" stroke-width="4" stroke-miterlimit="10"/>
  <path stroke="currentColor" opacity="0.5" d="M659.306 425.288C712.012 425.288 754.74 382.561 754.74 329.854C754.74 277.148 712.012 234.421 659.306 234.421C606.6 234.421 563.873 277.148 563.873 329.854C563.873 382.561 606.6 425.288 659.306 425.288Z" stroke-width="4" stroke-miterlimit="10"/>
  <path stroke="currentColor" d="M659.306 391.262C693.22 391.262 720.713 363.769 720.713 329.855C720.713 295.94 693.22 268.447 659.306 268.447C625.392 268.447 597.898 295.94 597.898 329.855C597.898 363.769 625.392 391.262 659.306 391.262Z" stroke-width="4" stroke-miterlimit="10"/>
  <path onClick="" style="" stroke="currentColor" d="M659.306 368.05C680.401 368.05 697.501 350.95 697.501 329.855C697.501 308.761 680.401 291.66 659.306 291.66C638.211 291.66 621.111 308.761 621.111 329.855C621.111 350.95 638.211 368.05 659.306 368.05Z" stroke-width="4" stroke-miterlimit="10"/>
  <path stroke="currentColor" opacity="0.5" d="M342.476 429.631C395.182 429.631 437.909 386.904 437.909 334.197C437.909 281.491 395.182 238.764 342.476 238.764C289.769 238.764 247.042 281.491 247.042 334.197C247.042 386.904 289.769 429.631 342.476 429.631Z" stroke-width="4" stroke-miterlimit="10"/>
  <path stroke="currentColor" d="M342.475 391.262C376.39 391.262 403.883 363.769 403.883 329.855C403.883 295.94 376.39 268.447 342.475 268.447C308.561 268.447 281.068 295.94 281.068 329.855C281.068 363.769 308.561 391.262 342.475 391.262Z" stroke-width="4" stroke-miterlimit="10"/>
  <path onClick="" style="" stroke="currentColor" d="M342.475 368.05C363.57 368.05 380.67 350.95 380.67 329.855C380.67 308.761 363.57 291.66 342.475 291.66C321.381 291.66 304.28 308.761 304.28 329.855C304.28 350.95 321.381 368.05 342.475 368.05Z" stroke-width="4" stroke-miterlimit="10"/>
</svg>
