<?xml version="1.0"?>
<svg xmlns="http://www.w3.org/2000/svg" width="999" height="701" viewBox="0 0 999 701" fill="none">
  <path d="M360.716 24.145C338.973 24.145 338.973 -0.0142184 288.238 4.81763C237.504 9.64949 150.941 50.9281 155.773 82.3351C155.773 82.3351 167.491 76.9571 181.141 70.0475C191.158 65.0226 201.371 60.4005 211.754 56.1919C214.632 55.0229 217.581 53.8636 220.593 52.7253C245.718 43.1341 274.782 35.0166 301.526 35.0166C334.315 35.0166 333.095 42.9195 360.716 43.6348V24.145Z"/>
  <path fill="currentColor" d="M360.716 24.145H362.716V22.145H360.716V24.145ZM155.773 82.3351L153.797 82.6392L154.199 85.2529L156.604 84.1544L155.773 82.3351ZM181.141 70.0475L180.244 68.2598L180.237 68.2631L181.141 70.0475ZM220.593 52.7253L221.302 54.5953L221.306 54.5938L220.593 52.7253ZM360.716 43.6348L360.664 45.6341L362.716 45.6872V43.6348H360.716ZM360.716 22.145C355.709 22.145 351.972 20.7711 348.342 18.7071C346.498 17.6584 344.693 16.4388 342.732 15.1027C340.788 13.7786 338.701 12.3482 336.378 10.9544C326.92 5.2794 313.802 0.373941 288.049 2.82664L288.428 6.80862C313.409 4.42947 325.659 9.18772 334.32 14.3844C336.527 15.7085 338.517 17.0715 340.48 18.4087C342.425 19.7339 344.358 21.0435 346.365 22.1842C350.436 24.4991 354.852 26.145 360.716 26.145V22.145ZM288.049 2.82664C262.351 5.27406 227.767 16.9089 200.215 31.8526C186.434 39.3274 174.293 47.693 165.873 56.2499C157.529 64.729 152.439 73.8136 153.797 82.6392L157.75 82.031C156.692 75.1531 160.61 67.3002 168.724 59.0554C176.76 50.8884 188.525 42.7435 202.122 35.3687C229.327 20.6134 263.391 9.19306 288.428 6.80862L288.049 2.82664ZM180.237 68.2631C173.431 71.7087 167.104 74.7733 162.478 76.9768C160.166 78.0784 158.279 78.9643 156.972 79.5745C156.318 79.8795 155.809 80.1157 155.464 80.2754C155.291 80.3552 155.16 80.4159 155.071 80.4566C155.027 80.4769 154.994 80.4922 154.972 80.5024C154.961 80.5075 154.952 80.5113 154.947 80.5138C154.944 80.5151 154.942 80.516 154.941 80.5166C154.94 80.5169 154.94 80.5171 154.939 80.5173C154.939 80.5173 154.939 80.5174 154.939 80.5174C154.939 80.5174 154.939 80.5174 155.773 82.3351C156.608 84.1528 156.608 84.1528 156.608 84.1527C156.608 84.1526 156.608 84.1526 156.608 84.1525C156.609 84.1523 156.609 84.152 156.61 84.1517C156.612 84.151 156.614 84.1499 156.617 84.1486C156.623 84.1459 156.631 84.1418 156.643 84.1366C156.666 84.126 156.7 84.1102 156.745 84.0895C156.835 84.048 156.969 83.9864 157.143 83.9057C157.492 83.7443 158.005 83.5063 158.663 83.1992C159.979 82.5851 161.875 81.6946 164.198 80.588C168.844 78.3751 175.201 75.2959 182.044 71.8319L180.237 68.2631ZM155.773 82.3351C156.604 84.1544 156.604 84.1543 156.604 84.1543C156.605 84.1542 156.605 84.1541 156.605 84.154C156.605 84.1538 156.606 84.1536 156.607 84.1532C156.608 84.1525 156.611 84.1515 156.614 84.1501C156.62 84.1473 156.629 84.1433 156.64 84.1379C156.664 84.1271 156.699 84.1112 156.744 84.0902C156.836 84.0482 156.972 83.9858 157.149 83.9041C157.504 83.7408 158.025 83.5002 158.691 83.1902C160.025 82.5703 161.941 81.6728 164.279 80.5614C168.952 78.339 175.311 75.2589 182.048 71.8299L180.233 68.2651C173.538 71.6732 167.213 74.7369 162.561 76.949C160.235 78.0549 158.329 78.9474 157.005 79.5631C156.343 79.8709 155.826 80.1095 155.476 80.271C155.3 80.3517 155.167 80.4131 155.077 80.4543C155.032 80.4748 154.998 80.4903 154.976 80.5007C154.964 80.5058 154.956 80.5097 154.951 80.5122C154.948 80.5135 154.946 80.5144 154.944 80.515C154.944 80.5153 154.943 80.5155 154.943 80.5157C154.943 80.5158 154.943 80.5158 154.943 80.5158C154.943 80.5159 154.943 80.5159 155.773 82.3351ZM301.526 33.0166C274.424 33.0166 245.094 41.2314 219.879 50.8568L221.306 54.5938C246.342 45.0367 275.139 37.0166 301.526 37.0166V33.0166ZM360.768 41.6355C347.22 41.2846 340.819 39.1895 333.607 37.1341C326.217 35.0278 318.138 33.0166 301.526 33.0166V37.0166C317.703 37.0166 325.409 38.9568 332.511 40.9809C339.791 43.0558 346.591 45.2697 360.664 45.6341L360.768 41.6355ZM358.716 24.145V43.6348H362.716V24.145H358.716ZM182.037 71.8352C192.007 66.8342 202.171 62.234 212.506 58.0454L211.003 54.3383C200.57 58.5669 190.309 63.2111 180.244 68.2598L182.037 71.8352ZM212.507 58.0448C215.37 56.8817 218.304 55.7283 221.3 54.5961L219.885 50.8545C216.858 51.9989 213.893 53.1642 211.002 54.3389L212.507 58.0448ZM182.032 71.838C190.591 67.5776 200.968 62.7326 212.507 58.0448L211.002 54.3389C199.349 59.0728 188.878 63.962 180.249 68.2571L182.032 71.838ZM219.883 50.8553C216.91 51.983 213.95 53.1441 211.003 54.3383L212.506 58.0454C215.424 56.8625 218.357 55.7124 221.302 54.5953L219.883 50.8553Z"/>
  <path d="M636.579 24.145C658.323 24.145 658.323 -0.0142184 709.057 4.81763C759.792 9.64949 846.354 51.9281 841.522 83.3351C841.522 83.3351 829.805 76.9571 816.155 70.0475C806.138 65.0226 795.925 60.4005 785.541 56.1919C782.664 55.0229 779.715 53.8636 776.703 52.7253C751.577 43.1341 722.514 35.0166 695.77 35.0166C662.981 35.0166 664.201 42.9195 636.579 43.6348V24.145Z"/>
  <path fill="currentColor" d="M636.579 24.145H634.579V22.145H636.579V24.145ZM841.522 83.3351L843.499 83.6392L843.068 86.4437L840.571 85.0946L841.522 83.3351ZM816.155 70.0475L817.052 68.2598L817.058 68.2631L816.155 70.0475ZM776.703 52.7253L775.994 54.5953L775.99 54.5938L776.703 52.7253ZM636.579 43.6348L636.631 45.6341L634.579 45.6872V43.6348H636.579ZM636.579 22.145C641.586 22.145 645.324 20.7711 648.954 18.7071C650.798 17.6584 652.602 16.4388 654.564 15.1027C656.508 13.7786 658.595 12.3482 660.918 10.9544C670.376 5.2794 683.493 0.373941 709.247 2.82664L708.868 6.80862C683.886 4.42947 671.637 9.18772 662.976 14.3844C660.769 15.7085 658.779 17.0715 656.816 18.4087C654.87 19.7339 652.937 21.0435 650.931 22.1842C646.86 24.4991 642.444 26.145 636.579 26.145V22.145ZM709.247 2.82664C734.954 5.27498 769.543 17.1652 797.093 32.3594C810.875 39.9601 823.013 48.4514 831.431 57.1016C839.771 65.6719 844.856 74.8179 843.499 83.6392L839.546 83.031C840.604 76.1488 836.681 68.2323 828.564 59.8912C820.525 51.63 808.758 43.3608 795.161 35.862C767.954 20.8572 733.894 9.19214 708.868 6.80862L709.247 2.82664ZM817.058 68.2631C823.898 71.7253 830.251 75.0533 834.894 77.5155C837.216 78.7467 839.111 79.7618 840.426 80.4694C841.083 80.8232 841.596 81.1001 841.944 81.2888C842.119 81.3831 842.252 81.4554 842.342 81.5041C842.387 81.5285 842.421 81.547 842.444 81.5595C842.455 81.5657 842.464 81.5704 842.469 81.5736C842.472 81.5752 842.475 81.5764 842.476 81.5772C842.477 81.5776 842.477 81.5779 842.478 81.5781C842.478 81.5782 842.478 81.5783 842.478 81.5784C842.478 81.5785 842.478 81.5785 841.522 83.3351C840.566 85.0917 840.566 85.0917 840.566 85.0917C840.566 85.0917 840.566 85.0916 840.566 85.0915C840.565 85.0913 840.565 85.0911 840.564 85.0907C840.563 85.09 840.561 85.0888 840.558 85.0873C840.553 85.0843 840.544 85.0798 840.533 85.0737C840.511 85.0616 840.477 85.0435 840.433 85.0195C840.345 84.9714 840.213 84.8999 840.04 84.8063C839.694 84.6192 839.185 84.3439 838.53 83.9918C837.222 83.2875 835.334 82.2763 833.02 81.0493C828.392 78.5951 822.062 75.2793 815.252 71.8319L817.058 68.2631ZM841.522 83.3351C840.571 85.0946 840.571 85.0946 840.571 85.0945C840.571 85.0945 840.571 85.0944 840.571 85.0943C840.571 85.0941 840.57 85.0939 840.569 85.0935C840.568 85.0927 840.566 85.0916 840.563 85.0901C840.557 85.087 840.549 85.0824 840.537 85.0763C840.515 85.064 840.481 85.0456 840.436 85.0213C840.345 84.9727 840.211 84.9003 840.035 84.8058C839.684 84.6166 839.167 84.3386 838.503 83.9835C837.177 83.2733 835.269 82.2549 832.94 81.023C828.284 78.5589 821.952 75.2422 815.248 71.8299L817.062 68.2651C823.791 71.6899 830.143 75.017 834.811 77.4874C837.146 78.7228 839.061 79.7444 840.392 80.4573C841.057 80.8137 841.577 81.0931 841.931 81.2834C842.108 81.3786 842.243 81.4515 842.334 81.5007C842.38 81.5253 842.415 81.544 842.438 81.5565C842.449 81.5628 842.458 81.5676 842.464 81.5708C842.467 81.5724 842.469 81.5736 842.471 81.5744C842.472 81.5748 842.472 81.5751 842.473 81.5753C842.473 81.5754 842.473 81.5755 842.473 81.5756C842.473 81.5756 842.473 81.5757 841.522 83.3351ZM695.77 33.0166C722.871 33.0166 752.201 41.2314 777.416 50.8568L775.99 54.5938C750.954 45.0367 722.156 37.0166 695.77 37.0166V33.0166ZM636.528 41.6355C650.076 41.2846 656.476 39.1895 663.688 37.1341C671.079 35.0278 679.157 33.0166 695.77 33.0166V37.0166C679.593 37.0166 671.887 38.9568 664.785 40.9809C657.504 43.0558 650.704 45.2697 636.631 45.6341L636.528 41.6355ZM638.579 24.145V43.6348H634.579V24.145H638.579ZM815.258 71.8352C805.289 66.8342 795.124 62.234 784.79 58.0454L786.292 54.3383C796.726 58.5669 806.987 63.2111 817.052 68.2598L815.258 71.8352ZM784.788 58.0448C781.925 56.8817 778.991 55.7283 775.996 54.5961L777.41 50.8545C780.438 51.9989 783.402 53.1642 786.294 54.3389L784.788 58.0448ZM815.264 71.838C806.705 67.5776 796.327 62.7326 784.788 58.0448L786.294 54.3389C797.946 59.0728 808.417 63.962 817.046 68.2571L815.264 71.838ZM777.412 50.8553C780.386 51.983 783.346 53.1441 786.292 54.3383L784.79 58.0454C781.871 56.8625 778.939 55.7124 775.994 54.5953L777.412 50.8553Z"/>
  <path stroke="currentColor" d="M182.297 69.8688C168.647 76.7784 158.169 83.1787 158.169 83.1787C158.169 83.1787 168.864 76.7059 182.297 69.8688ZM182.297 69.8688C195.143 63.4248 207.514 57.6431 220.951 52.5466C205.804 58.2723 193.023 64.5296 182.297 69.8688ZM817.669 69.8688C826.042 74.1467 832.455 77.8041 840.169 83.1787C832.469 77.7825 826.055 74.1242 817.669 69.8688ZM817.669 69.8688C804.873 63.4243 792.542 57.6426 779.151 52.5466M817.669 69.8688C806.943 64.5296 794.178 58.2723 779.151 52.5466M779.151 52.5466C743.806 39.2832 703.17 30.9482 683.601 51.7494C644.947 92.8201 628.035 145.97 548.309 145.97H451.672C371.947 145.97 355.035 92.8201 316.381 51.7494C296.812 30.9482 256.176 39.2832 220.831 52.5466C245.956 42.9554 275.141 34.8379 301.885 34.8379C336.046 34.8379 333.292 44.5016 364.699 44.5016H635.283C666.69 44.5016 663.936 34.8379 698.097 34.8379C724.841 34.8379 754.026 42.8829 779.151 52.5466Z" stroke-width="4" stroke-miterlimit="10"/>
  <path stroke="currentColor" d="M890.163 145.971C868.419 90.4043 843.052 81.9485 843.052 81.9485C847.884 50.5415 760.911 9.47077 710.176 4.63892C659.442 -0.192929 659.442 23.9663 637.699 23.9663H361.075C339.332 23.9663 339.332 -0.192929 288.597 4.63892C237.863 9.47077 150.89 50.5415 155.721 81.9485C155.721 81.9485 130.354 90.4043 108.611 145.971C86.8675 201.537 -115.49 697.043 108.611 696.802C143.207 696.802 144.85 689.554 205.248 597.749C265.646 505.944 287.389 501.112 367.115 501.112H631.659C711.384 501.112 733.128 505.944 793.526 597.749C853.924 689.554 855.567 696.391 890.163 696.802C1113.32 699.411 911.906 201.537 890.163 145.971Z" stroke-width="8" stroke-miterlimit="10"/>
  <path stroke="currentColor" d="M632.722 402.928C664.745 402.928 690.704 376.969 690.704 344.946C690.704 312.923 664.745 286.964 632.722 286.964C600.699 286.964 574.74 312.923 574.74 344.946C574.74 376.969 600.699 402.928 632.722 402.928Z" stroke-width="4" stroke-miterlimit="10"/>
  <path style="" stroke="currentColor" d="M632.722 383.456C653.99 383.456 671.232 366.215 671.232 344.946C671.232 323.678 653.99 306.437 632.722 306.437C611.453 306.437 594.212 323.678 594.212 344.946C594.212 366.215 611.453 383.456 632.722 383.456Z" stroke-width="4" stroke-miterlimit="10"/>
  <path stroke="currentColor" opacity="0.5" d="M632.722 417.424C672.75 417.424 705.2 384.975 705.2 344.946C705.2 304.918 672.75 272.469 632.722 272.469C592.694 272.469 560.244 304.918 560.244 344.946C560.244 384.975 592.694 417.424 632.722 417.424Z" stroke-width="4" stroke-miterlimit="10"/>
  <path stroke="currentColor" d="M243.758 250.725C275.781 250.725 301.74 224.766 301.74 192.743C301.74 160.72 275.781 134.761 243.758 134.761C211.735 134.761 185.776 160.72 185.776 192.743C185.776 224.766 211.735 250.725 243.758 250.725Z" stroke-width="4" stroke-miterlimit="10"/>
  <path style="" stroke="currentColor" d="M243.758 231.253C265.026 231.253 282.268 214.012 282.268 192.743C282.268 171.475 265.026 154.233 243.758 154.233C222.489 154.233 205.248 171.475 205.248 192.743C205.248 214.012 222.489 231.253 243.758 231.253Z" stroke-width="4" stroke-miterlimit="10"/>
  <path stroke="currentColor" opacity="0.5" d="M243.758 265.22C283.786 265.22 316.236 232.771 316.236 192.742C316.236 152.714 283.786 120.265 243.758 120.265C203.729 120.265 171.28 152.714 171.28 192.742C171.28 232.771 203.729 265.22 243.758 265.22Z" stroke-width="4" stroke-miterlimit="10"/>
  <path stroke="currentColor" opacity="0.5" d="M365.762 438.756C411.795 438.756 449.111 401.44 449.111 355.407C449.111 309.374 411.795 272.058 365.762 272.058C319.729 272.058 282.413 309.374 282.413 355.407C282.413 401.44 319.729 438.756 365.762 438.756Z" stroke-width="4" stroke-miterlimit="10"/>
  <path stroke="currentColor" d="M689.665 229.151C708.705 229.151 724.14 213.716 724.14 194.675C724.14 175.635 708.705 160.2 689.665 160.2C670.625 160.2 655.19 175.635 655.19 194.675C655.19 213.716 670.625 229.151 689.665 229.151Z" stroke-width="4" stroke-miterlimit="10"/>
  <path stroke="currentColor" d="M828.267 229.151C847.307 229.151 862.742 213.716 862.742 194.675C862.742 175.635 847.307 160.2 828.267 160.2C809.227 160.2 793.792 175.635 793.792 194.675C793.792 213.716 809.227 229.151 828.267 229.151Z" stroke-width="4" stroke-miterlimit="10"/>
  <path stroke="currentColor" d="M759.993 161.891C779.033 161.891 794.468 146.456 794.468 127.416C794.468 108.376 779.033 92.9404 759.993 92.9404C740.953 92.9404 725.518 108.376 725.518 127.416C725.518 146.456 740.953 161.891 759.993 161.891Z" stroke-width="4" stroke-miterlimit="10"/>
  <path stroke="currentColor" d="M759.993 295.975C779.033 295.975 794.468 280.54 794.468 261.5C794.468 242.46 779.033 227.024 759.993 227.024C740.953 227.024 725.518 242.46 725.518 261.5C725.518 280.54 740.953 295.975 759.993 295.975Z" stroke-width="4" stroke-miterlimit="10"/>
  <path fill="currentColor" d="M756.538 148.169V130.702L744.096 106.663H752.117L760.113 123.067L768.013 106.663H775.914L763.399 130.822V148.241L756.538 148.169Z"/>
  <path fill="currentColor" d="M673.816 215.428L685.582 193.83L674.904 173.923H682.924L689.665 186.341L696.454 173.923H704.402L693.724 193.782L705.489 215.525H697.203L689.641 201.344L682.055 215.428H673.816Z"/>
  <path fill="currentColor" d="M814.013 173.922H827.639C830.296 173.764 832.96 174.108 835.49 174.937C837.158 175.703 838.537 176.981 839.428 178.585C840.494 180.337 841.039 182.357 840.999 184.407C841.03 186.303 840.572 188.176 839.67 189.843C838.876 191.344 837.669 192.585 836.191 193.419C838.173 194.056 839.878 195.352 841.023 197.091C842.207 198.994 842.803 201.204 842.738 203.445C842.824 206.161 842.064 208.837 840.564 211.103C839.372 212.981 837.532 214.357 835.394 214.969C832.194 215.43 828.96 215.6 825.73 215.476H814.158L814.013 173.922ZM820.85 180.832V190.496H825.392C827.076 190.533 828.762 190.485 830.441 190.351C831.503 190.216 832.476 189.691 833.171 188.877C833.782 187.955 834.124 186.881 834.158 185.776C834.192 184.67 833.917 183.577 833.364 182.62C832.916 181.909 832.218 181.391 831.407 181.17C829.226 180.923 827.03 180.834 824.836 180.904L820.85 180.832ZM820.85 197.333V208.398H827.349C829.156 208.494 830.968 208.348 832.736 207.963C833.572 207.632 834.27 207.027 834.717 206.247C835.271 205.232 835.562 204.094 835.562 202.938C835.562 201.781 835.271 200.643 834.717 199.628C834.146 198.762 833.292 198.121 832.301 197.816C830.382 197.401 828.416 197.239 826.455 197.333H820.85Z"/>
  <path fill="currentColor" d="M777.073 282.229H769.632L766.661 272.807H753.035L750.208 282.205H742.96L756.2 240.699H763.447L777.073 282.229ZM764.535 265.801L759.703 250.411L755.088 265.801H764.535Z"/>
  <path stroke="currentColor" d="M430.291 336.635H384.534V290.878C384.534 289.007 383.791 287.212 382.468 285.889C381.145 284.566 379.35 283.823 377.479 283.823H354.021C353.095 283.823 352.179 284.006 351.325 284.361C350.47 284.716 349.694 285.235 349.041 285.891C348.388 286.546 347.87 287.324 347.519 288.18C347.167 289.036 346.987 289.952 346.99 290.878V336.635H301.233C300.307 336.632 299.391 336.812 298.535 337.164C297.679 337.515 296.901 338.033 296.246 338.686C295.591 339.339 295.071 340.115 294.716 340.97C294.361 341.824 294.178 342.74 294.178 343.666V367.028C294.178 368.899 294.921 370.693 296.244 372.016C297.567 373.339 299.362 374.082 301.233 374.082H346.99V419.937C346.99 421.801 347.731 423.589 349.049 424.908C350.368 426.226 352.156 426.967 354.021 426.967H377.479C378.405 426.97 379.321 426.791 380.177 426.439C381.033 426.087 381.811 425.569 382.466 424.916C383.122 424.263 383.642 423.487 383.996 422.633C384.351 421.778 384.534 420.862 384.534 419.937V374.276H430.291C431.217 374.276 432.133 374.093 432.987 373.738C433.842 373.383 434.618 372.863 435.271 372.208C435.924 371.552 436.442 370.775 436.794 369.919C437.146 369.063 437.325 368.146 437.322 367.221V343.762C437.335 342.831 437.162 341.906 436.815 341.042C436.467 340.178 435.951 339.392 435.297 338.729C434.643 338.066 433.864 337.539 433.004 337.18C432.145 336.82 431.223 336.635 430.291 336.635V336.635Z" stroke-width="4" stroke-miterlimit="10"/>
  <path stroke="currentColor" d="M572.469 213.617C584.477 213.617 594.212 203.882 594.212 191.873C594.212 179.865 584.477 170.13 572.469 170.13C560.46 170.13 550.726 179.865 550.726 191.873C550.726 203.882 560.46 213.617 572.469 213.617Z" stroke-width="4" stroke-miterlimit="10"/>
  <path stroke="currentColor" d="M560.17 185.179H585.17" stroke-width="2"/>
  <path stroke="currentColor" d="M560.17 192.179H585.17" stroke-width="2"/>
  <path stroke="currentColor" d="M560.17 199.179H585.17" stroke-width="2"/>
  <path stroke="currentColor" d="M427.513 213.617C439.522 213.617 449.257 203.882 449.257 191.873C449.257 179.865 439.522 170.13 427.513 170.13C415.505 170.13 405.77 179.865 405.77 191.873C405.77 203.882 415.505 213.617 427.513 213.617Z" stroke-width="4" stroke-miterlimit="10"/>
  <rect stroke="currentColor" x="423.169" y="189.179" width="15" height="12" stroke-width="2"/>
  <path stroke="currentColor" d="M433.169 183.929V182.179H416.169V196.179H417.669" stroke-width="2"/>
  <ellipse cx="499.064" cy="93.3039" rx="37.405" ry="37.385"/>
  <path fill="currentColor" d="M495.28 130.533C489.358 129.928 483.667 127.915 478.682 124.662C474.478 121.908 473.536 120.797 473.536 118.55C473.536 114.032 478.489 106.132 486.993 97.1206C491.825 91.9988 498.517 86.0073 499.242 86.1765C500.643 86.4905 511.95 97.5071 516.153 102.677C522.845 110.867 525.817 117.583 524.343 120.579C523.159 122.85 515.815 127.296 510.403 128.987C505.504 130.448 500.373 130.973 495.28 130.533ZM467.883 113.863C464.341 108.395 462.238 102.121 461.771 95.6227C461.505 92.5725 461.717 89.4996 462.399 86.5147C463.646 79.6306 466.802 73.2351 471.507 68.057C473.367 66.1001 473.536 66.0518 475.831 66.8249C479.717 68.5314 483.224 70.9953 486.147 74.0726L488.829 76.4886L487.38 78.3005C480.561 86.642 474.942 95.896 470.685 105.794C469.32 108.819 468.826 112.166 469.26 115.457C469.695 116.593 469.26 116.182 467.859 113.984L467.883 113.863ZM529.078 114.757C529.289 112.082 528.909 109.393 527.967 106.881C525.744 100.141 518.303 87.5535 511.563 79.0494L509.437 76.3678L511.853 74.2418C514.118 72.0632 516.585 70.1056 519.221 68.3953C520.869 67.3319 522.72 66.6242 524.657 66.3175C525.334 66.3175 527.701 68.7335 529.61 71.4877C532.679 75.8356 534.818 80.7705 535.891 85.9832C536.619 90.6471 536.66 95.3924 536.012 100.068C535.378 103.102 534.439 106.065 533.21 108.91C532.106 111.192 530.822 113.381 529.368 115.457C528.909 116.061 528.909 116.061 529.151 114.781L529.078 114.757ZM495.884 65.0371C492.504 63.359 488.935 62.0937 485.254 61.2683C484.085 61.1057 482.905 61.041 481.726 61.0749C479.504 61.1957 479.6 61.075 483.152 59.408C485.919 58.0831 488.84 57.1091 491.849 56.5089C496.649 55.7184 501.545 55.7184 506.345 56.5089C510.302 57.3395 514.113 58.7563 517.651 60.7126L518.424 61.1958H516.636C511.604 61.4109 506.687 62.7744 502.262 65.1821C500.57 66.0035 499.097 66.6558 499 66.6558C498.903 66.6558 497.502 65.9551 495.932 65.1579L495.884 65.0371Z"/>
</svg>
