<?xml version="1.0"?>
<svg xmlns="http://www.w3.org/2000/svg" viewBox="0 0 405 290" fill="none">
  <g clip-path="">
    <path stroke="currentColor" d="M209.75 10H194.75C193.784 10 193 10.7835 193 11.75C193 12.7165 193.784 13.5 194.75 13.5H209.75C210.716 13.5 211.5 12.7165 211.5 11.75C211.5 10.7835 210.716 10 209.75 10Z" stroke-width="0.5"/>
    <g opacity="0.3">
      <path stroke="currentColor" d="M48.75 105.5C51.3734 105.5 53.5 103.373 53.5 100.75C53.5 98.1266 51.3734 96 48.75 96C46.1266 96 44 98.1266 44 100.75C44 103.373 46.1266 105.5 48.75 105.5Z" stroke-width="0.5"/>
      <path stroke="currentColor" d="M149.75 53.5C152.373 53.5 154.5 51.3734 154.5 48.75C154.5 46.1266 152.373 44 149.75 44C147.127 44 145 46.1266 145 48.75C145 51.3734 147.127 53.5 149.75 53.5Z" stroke-width="0.5"/>
      <path stroke="currentColor" d="M255.75 53.5C258.373 53.5 260.5 51.3734 260.5 48.75C260.5 46.1266 258.373 44 255.75 44C253.127 44 251 46.1266 251 48.75C251 51.3734 253.127 53.5 255.75 53.5Z" stroke-width="0.5"/>
      <path stroke="currentColor" d="M356.75 105.5C359.373 105.5 361.5 103.373 361.5 100.75C361.5 98.1266 359.373 96 356.75 96C354.127 96 352 98.1266 352 100.75C352 103.373 354.127 105.5 356.75 105.5Z" stroke-width="0.5"/>
      <path stroke="currentColor" d="M30.75 262.5C33.3734 262.5 35.5 260.373 35.5 257.75C35.5 255.127 33.3734 253 30.75 253C28.1266 253 26 255.127 26 257.75C26 260.373 28.1266 262.5 30.75 262.5Z" stroke-width="0.5"/>
      <path stroke="currentColor" d="M374.75 262.5C377.373 262.5 379.5 260.373 379.5 257.75C379.5 255.127 377.373 253 374.75 253C372.127 253 370 255.127 370 257.75C370 260.373 372.127 262.5 374.75 262.5Z" stroke-width="0.5"/>
    </g>
    <path stroke="currentColor" d="M219.75 42H185.75C182.022 42 179 45.0221 179 48.75C179 52.4779 182.022 55.5 185.75 55.5H219.75C223.478 55.5 226.5 52.4779 226.5 48.75C226.5 45.0221 223.478 42 219.75 42Z" stroke-width="0.5"/>
    <path stroke="currentColor" opacity="0.3" d="M202.75 52.5C204.821 52.5 206.5 50.8211 206.5 48.75C206.5 46.6789 204.821 45 202.75 45C200.679 45 199 46.6789 199 48.75C199 50.8211 200.679 52.5 202.75 52.5Z" stroke-width="0.5"/>
    <path stroke="currentColor" opacity="0.3" d="M219.75 52.5C221.821 52.5 223.5 50.8211 223.5 48.75C223.5 46.6789 221.821 45 219.75 45C217.679 45 216 46.6789 216 48.75C216 50.8211 217.679 52.5 219.75 52.5Z" stroke-width="0.5"/>
    <path stroke="currentColor" opacity="0.3" d="M185.75 52.5C187.821 52.5 189.5 50.8211 189.5 48.75C189.5 46.6789 187.821 45 185.75 45C183.679 45 182 46.6789 182 48.75C182 50.8211 183.679 52.5 185.75 52.5Z" stroke-width="0.5"/>
    <path stroke="currentColor" d="M82.75 155.75C84.75 145.75 90.75 137.75 98.25 137.75C105.75 137.75 112.25 146.75 112.25 157.25C112.25 162.612 109.25 169.25 103.75 173.75C98.25 178.25 95.4028 182.229 91.75 181.25C84.2859 179.25 80.7501 165.75 82.75 155.75Z" stroke-width="0.5"/>
    <path stroke="currentColor" d="M323.25 155.75C321.25 145.75 315.25 137.75 307.75 137.75C300.25 137.75 293.75 146.75 293.75 157.25C293.75 162.612 296.75 169.25 302.25 173.75C307.75 178.25 310.597 182.229 314.25 181.25C321.714 179.25 325.25 165.75 323.25 155.75Z" stroke-width="0.5"/>
    <path stroke="currentColor" d="M77.7207 236.485C84.332 236.947 90.3473 227.943 91.1563 216.373C91.9654 204.803 87.2617 195.049 80.6505 194.587C74.0392 194.125 68.0238 203.129 67.2148 214.699C66.4058 226.269 71.1094 236.023 77.7207 236.485Z" stroke-width="0.5"/>
    <path stroke="currentColor" d="M327.651 236.485C321.04 236.947 315.024 227.943 314.215 216.373C313.406 204.803 318.11 195.049 324.721 194.587C331.333 194.125 337.348 203.129 338.157 214.699C338.966 226.269 334.262 236.022 327.651 236.485Z" stroke-width="0.5"/>
    <path stroke="currentColor" d="M114.386 28.25C114.6 26.9015 114.588 25.5203 114.322 24.1954C113.524 20.202 109.786 19.0372 106.216 18.5381C98.908 17.5601 95.2845 17.6079 88.3248 17.8725C78.3711 18.4133 67.7874 19.9524 58.7997 24.4866C48.636 30.3103 48.7199 37.0492 48.258 41.7497C48.1563 42.7566 48.2844 43.582 48.5587 44.25M114.386 28.25C113.753 32.2359 111.139 35.9356 107.227 37.0493C107.227 37.0493 104.156 38.0429 99.4214 38.0429C63.9972 36.6547 54.4874 46.1879 53.2558 46.4888C52.3386 47.0079 49.5307 46.6179 48.5587 44.25M114.386 28.25C113.965 32.6065 114.224 34.5678 114.386 38.8281M48.5587 44.25C48.9972 46.6167 48.8068 49.4739 48.5587 54.25" stroke-width="0.5" stroke-miterlimit="10"/>
    <path stroke="currentColor" d="M114.47 25.6226C114.638 25.2898 114.839 24.9442 114.881 24.1538C114.965 22.6979 115.175 12.5896 115.007 9.59452C114.923 8.0554 114.755 6.70675 114.209 5.75M50.75 26.75C50.2484 29.7309 50.2888 30.8208 50.2468 32.6927" stroke-width="0.5" stroke-miterlimit="10"/>
    <path stroke="currentColor" d="M50.2644 27.2457C46.4795 32.7456 42.2704 47.9358 47.9346 53.5825C50.1605 55.8434 53.8564 57.4762 57.9723 58.5648C70.9386 62.0606 87.8723 60.8842 99.5931 53.4987C103.583 50.9866 108.677 47.7953 111.46 44.0049C119.01 33.7229 116.978 19.2278 116.978 7.24048" stroke-width="0.5" stroke-miterlimit="10"/>
    <path stroke="currentColor" d="M290.591 28.25C290.376 26.9015 290.389 25.5203 290.654 24.1954C291.452 20.202 295.19 19.0372 298.76 18.5381C306.068 17.5601 309.692 17.6079 316.652 17.8725C326.605 18.4133 337.189 19.9524 346.177 24.4866C356.34 30.3103 356.256 37.0492 356.718 41.7497C356.82 42.7566 356.692 43.582 356.418 44.25M290.591 28.25C291.224 32.2359 293.837 35.9356 297.75 37.0493C297.75 37.0493 300.82 38.0429 305.555 38.0429C340.979 36.6547 350.489 46.1879 351.721 46.4888C352.638 47.0079 355.446 46.6179 356.418 44.25M290.591 28.25C291.011 32.6065 290.752 34.5678 290.591 38.8281M356.418 44.25C355.979 46.6167 356.17 49.4739 356.418 54.25" stroke-width="0.5" stroke-miterlimit="10"/>
    <path stroke="currentColor" d="M290.507 25.6226C290.339 25.2898 290.138 24.9442 290.096 24.1538C290.012 22.6979 289.802 12.5896 289.97 9.59452C290.054 8.0554 290.222 6.70675 290.768 5.75M354.226 26.75C354.728 29.7309 354.688 30.8208 354.73 32.6927" stroke-width="0.5" stroke-miterlimit="10"/>
    <path stroke="currentColor" d="M354.712 27.2457C358.497 32.7456 362.706 47.9358 357.042 53.5825C354.816 55.8434 351.12 57.4762 347.004 58.5648C334.038 62.0606 317.104 60.8842 305.383 53.4987C301.393 50.9866 296.3 47.7953 293.517 44.0049C285.967 33.7229 287.999 19.2278 287.999 7.24048" stroke-width="0.5" stroke-miterlimit="10"/>
    <path stroke="currentColor" opacity="0.3" d="M192.75 11.75H116.75" stroke-width="0.5"/>
    <path stroke="currentColor" opacity="0.3" d="M287.75 11.75H211.75" stroke-width="0.5"/>
    <path stroke="currentColor" opacity="0.3" d="M109.75 45.75L121.451 38.836C123.762 37.4704 126.397 36.75 129.082 36.75H275.418C278.103 36.75 280.738 37.4704 283.049 38.836L294.75 45.75" stroke-width="0.5"/>
    <path stroke="currentColor" d="M403.534 216.097C403.428 195.172 399.537 174.247 395.381 153.746C391.011 132.185 385.522 110.889 379.606 89.6987C374.17 70.1509 369.694 48.3251 358.129 31.585C356.534 29.2623 354.127 26.75 354.127 26.75C354.127 26.75 353.436 24.2889 352.321 21.9965C344.327 5.73316 324.769 0.91244 307.608 0.753514C302.119 0.753514 292.42 1.17731 290.182 7.00457C284.267 7.00457 278.351 6.79268 272.436 6.58077C266.787 6.42185 261.084 6.20995 255.382 6.05102C237.743 5.62722 220.05 5.36235 202.41 5.2564C202.303 5.2564 202.25 5.2564 202.143 5.2564C202.037 5.2564 201.984 5.2564 201.877 5.2564C184.184 5.36235 166.544 5.62722 148.905 6.05102C143.202 6.20995 137.5 6.42185 131.851 6.58077C125.936 6.79268 120.949 6.95159 115.034 7.00457C112.742 1.17731 102.167 0.700539 96.6784 0.753514C79.465 0.859464 59.9601 5.68019 51.9663 21.9965C50.8257 24.2889 50.3731 26.75 50.3731 26.75C50.3731 26.75 47.7532 29.2623 46.1575 31.585C34.5931 48.3251 30.1698 70.1509 24.6808 89.6987C18.7653 110.889 13.2763 132.185 8.90632 153.746C4.74953 174.247 0.859186 195.172 0.752602 216.097C0.592726 244.757 7.73387 280.038 40.5618 287.137C58.4146 291.004 69.4461 288.514 77.4399 271.88C84.8475 256.358 92.7348 229.765 113.305 228.123C125.829 227.116 140.484 228.282 153.275 228.123C169.582 227.911 185.943 227.858 202.25 227.858C218.611 227.858 234.918 227.964 251.225 228.123C264.016 228.282 278.671 227.116 291.194 228.123C311.765 229.765 319.652 256.358 327.06 271.88C335.001 288.514 346.085 291.057 363.938 287.137C396.713 279.985 403.907 244.757 403.747 216.097H403.534Z" stroke-width="1.5" stroke-miterlimit="10"/>
  </g>
  <defs>
    <clipPath id="">
      <rect fill="currentColor" width="405" height="290"/>
    </clipPath>
  </defs>
</svg>
