<svg width="206" height="52" viewBox="0 0 206 52" fill="none" xmlns="http://www.w3.org/2000/svg">
<path d="M132.881 8.814C134.427 13.2102 134.684 19.4166 129.79 24.3299L103 52L76.21 24.3299C71.3157 19.4166 71.5733 12.9516 73.1189 8.814C75.1796 3.64203 79.8164 0.280238 85.2259 0.0216394C85.4835 0.0216394 85.7411 0.0216394 86.2563 0.0216394C91.1506 0.0216394 95.7873 2.09043 99.3936 5.71082C101.454 7.77961 104.803 7.77961 106.864 5.71082C110.47 1.83183 115.622 0.0216394 120.774 0.0216394C126.184 0.280238 130.82 3.64203 132.881 8.814ZM48.6473 0.0216394C43.4953 -0.236959 38.3434 1.83183 34.7371 5.71082C32.6763 7.77961 29.3276 7.77961 27.2668 5.71082C23.918 2.09043 19.2813 0.0216394 14.1294 0.0216394C13.8718 0.0216394 13.6142 0.0216394 13.099 0.0216394C7.4319 0.280238 3.05277 3.64203 0.992002 8.814C-0.553574 13.2102 -0.811168 19.4166 4.08316 24.3299L30.8731 52L57.6631 24.5885C62.5574 19.6751 62.2998 13.2102 60.7543 9.0726C58.6935 3.64202 54.0568 0.280238 48.6473 0.0216394ZM205.008 8.814C202.947 3.64203 198.311 0.280238 192.901 0.0216394C187.749 -0.236959 182.597 1.83183 178.991 5.71082C176.93 7.77961 173.581 7.77961 171.521 5.71082C168.172 2.09043 163.535 0.0216394 158.383 0.0216394C158.126 0.0216394 157.868 0.0216394 157.353 0.0216394C151.686 0.280238 147.307 3.64203 145.246 8.814C143.7 13.2102 143.443 19.4166 148.337 24.3299L175.127 52L201.917 24.5885C206.811 19.4165 206.554 13.2102 205.008 8.814Z" fill="url(#paint0_linear)" fill-opacity="0.85"/>
<defs>
<linearGradient id="paint0_linear" x1="103" y1="0" x2="103" y2="52" gradientUnits="userSpaceOnUse">
<stop stop-color="white"/>
<stop offset="1" stop-color="white" stop-opacity="0.58"/>
</linearGradient>
</defs>
</svg>
