<?xml version="1.0"?>
<svg xmlns="http://www.w3.org/2000/svg" viewBox="0 0 40 40" fill="none">
  <path fill="currentColor" fill-rule="evenodd" clip-rule="evenodd" d="M14.4081 7.35292C14.182 7.19302 13.909 7 13.25 7C12.125 7 8.75 8.125 8.1875 8.6875C7.625 9.25 7.625 9.8125 7.625 9.8125V9.9553C7.18366 10.2942 6.80144 10.6361 6.5 10.9375C5.375 12.0625 2 21.625 2 26.6875C2 31.75 5.375 32.3125 5.375 32.3125C6.28215 32.3125 7.67696 30.5244 9.03512 28.7833C10.2034 27.2856 11.3447 25.8226 12.125 25.5625C13.8125 25 26.1875 25 27.875 25.5625C28.6553 25.8226 29.7966 27.2856 30.9649 28.7833C32.323 30.5244 33.7178 32.3125 34.625 32.3125C34.625 32.3125 38 31.75 38 26.6875C38 21.625 34.625 12.0625 33.5 10.9375C33.1986 10.6361 32.8163 10.2942 32.375 9.9553V9.8125C32.375 9.8125 32.375 9.25 31.8125 8.6875C31.25 8.125 27.875 7 26.75 7C26.091 7 25.818 7.19302 25.5919 7.35292C25.432 7.46599 25.2955 7.5625 25.0625 7.5625H14.9375C14.7045 7.5625 14.568 7.46599 14.4081 7.35292ZM30.9688 11.5C30.9688 10.7233 30.3392 10.0938 29.5625 10.0938C28.7858 10.0938 28.1562 10.7233 28.1562 11.5C28.1562 12.2767 28.7858 12.9062 29.5625 12.9062C30.3392 12.9062 30.9688 12.2767 30.9688 11.5ZM12.6875 13.75C12.6875 14.9926 11.6801 16 10.4375 16C9.19486 16 8.1875 14.9926 8.1875 13.75C8.1875 12.5074 9.19486 11.5 10.4375 11.5C11.6801 11.5 12.6875 12.5074 12.6875 13.75ZM27.3125 19.375C27.3125 20.6176 26.3051 21.625 25.0625 21.625C23.8199 21.625 22.8125 20.6176 22.8125 19.375C22.8125 18.1324 23.8199 17.125 25.0625 17.125C26.3051 17.125 27.3125 18.1324 27.3125 19.375ZM14.0938 17.6875V18.5312H13.25C12.9393 18.5312 12.6875 18.7831 12.6875 19.0938V20.2188C12.6875 20.5294 12.9393 20.7812 13.25 20.7812H14.0938V21.625C14.0938 21.9357 14.3456 22.1875 14.6562 22.1875H15.7812C16.0919 22.1875 16.3438 21.9357 16.3438 21.625V20.7812H17.1875C17.4982 20.7812 17.75 20.5294 17.75 20.2188V19.0938C17.75 18.7831 17.4982 18.5312 17.1875 18.5312H16.3438V17.6875C16.3438 17.3768 16.0919 17.125 15.7812 17.125H14.6562C14.3456 17.125 14.0938 17.3768 14.0938 17.6875ZM28.4375 14.0312C28.4375 14.8079 27.8079 15.4375 27.0312 15.4375C26.2546 15.4375 25.625 14.8079 25.625 14.0312C25.625 13.2546 26.2546 12.625 27.0312 12.625C27.8079 12.625 28.4375 13.2546 28.4375 14.0312ZM32.0938 15.4375C32.8704 15.4375 33.5 14.8079 33.5 14.0312C33.5 13.2546 32.8704 12.625 32.0938 12.625C31.3171 12.625 30.6875 13.2546 30.6875 14.0312C30.6875 14.8079 31.3171 15.4375 32.0938 15.4375ZM29.5625 15.1562C30.3392 15.1562 30.9688 15.7858 30.9688 16.5625C30.9688 17.3392 30.3392 17.9688 29.5625 17.9688C28.7858 17.9688 28.1562 17.3392 28.1562 16.5625C28.1562 15.7858 28.7858 15.1562 29.5625 15.1562ZM21.5475 9.79465C21.5475 9.79465 21.549 9.7979 21.5525 9.80628L21.437 9.79976C21.2823 9.79092 21.1307 9.81357 20.9806 9.84925C20.7241 9.91021 20.4816 10.0087 20.2449 10.1235C20.2087 10.1411 20.172 10.1578 20.1353 10.1744C20.1017 10.1896 20.068 10.2049 20.0348 10.2209C20.0221 10.2273 20.0081 10.2304 19.9939 10.23C19.9798 10.2295 19.9659 10.2256 19.9537 10.2184L19.8737 10.1792C19.7609 10.1237 19.6481 10.0682 19.5326 10.0189C19.3376 9.93288 19.1343 9.86672 18.9259 9.82148C18.8064 9.79682 18.6857 9.7962 18.5647 9.80008C18.5478 9.80109 18.531 9.80109 18.5141 9.80008C18.5059 9.79825 18.4981 9.79522 18.4908 9.79108C18.4926 9.78858 18.4942 9.78565 18.4958 9.78268C18.4988 9.77717 18.5018 9.77156 18.5063 9.76843C18.5267 9.7554 18.5476 9.74377 18.5686 9.73275C18.8475 9.58725 19.1386 9.4765 19.4497 9.42112C19.574 9.40153 19.6992 9.38868 19.8249 9.38265C20.02 9.37052 20.2158 9.37524 20.4102 9.39677C20.6124 9.41693 20.8058 9.47324 20.9968 9.53886C21.1814 9.6023 21.3621 9.67598 21.5276 9.78193L21.5344 9.78624C21.5388 9.78896 21.5432 9.7917 21.5475 9.79465ZM22.4032 14.1813C22.4006 14.1824 22.3972 14.1838 22.3927 14.1861C22.3936 14.1686 22.3955 14.1513 22.3984 14.1341C22.4267 14.0223 22.4169 13.9103 22.4003 13.7983C22.3578 13.5122 22.2464 13.2501 22.1193 12.9934C21.8538 12.4574 21.5366 11.9528 21.1828 11.471C21.1097 11.3713 21.0326 11.2744 20.9555 11.1775C20.9204 11.1335 20.8851 11.0891 20.8504 11.0447L20.8299 11.0182L20.8634 10.987C20.8884 10.9638 20.9133 10.9405 20.9388 10.9183C20.9721 10.8892 21.0054 10.8599 21.0386 10.8307C21.1488 10.7337 21.2593 10.6364 21.3733 10.544C21.5386 10.41 21.7186 10.2985 21.9241 10.2338C21.9415 10.2284 21.9592 10.2245 21.977 10.2207C21.9893 10.218 22.0015 10.2154 22.0136 10.2122C22.029 10.2083 22.0452 10.2083 22.0607 10.2122C22.0762 10.2161 22.0904 10.2239 22.1021 10.2347C22.1902 10.3085 22.2703 10.3914 22.341 10.482C22.6456 10.8557 22.8391 11.2819 22.9466 11.7491C22.9839 11.9224 23.0017 12.0993 22.9995 12.2765C23 12.4337 22.995 12.591 22.9871 12.7478C22.9807 12.8752 22.9479 12.998 22.9152 13.1207L22.9034 13.1649C22.8129 13.5093 22.6557 13.8222 22.4574 14.1159C22.4477 14.1307 22.4365 14.1447 22.4253 14.1586L22.4107 14.1771C22.4092 14.1787 22.4071 14.1796 22.4032 14.1813ZM20.1028 15.37C20.0756 15.3719 20.0515 15.3735 20.0318 15.375C19.4497 15.3706 18.9665 15.2361 18.5165 14.981C18.3677 14.8976 18.2264 14.8016 18.0941 14.6941C17.9681 14.5908 17.9309 14.46 17.956 14.3041C17.9827 14.1394 18.0532 13.9911 18.131 13.8467C18.2414 13.6428 18.3752 13.4534 18.5179 13.2706C18.6897 13.0515 18.8726 12.8413 19.0658 12.6408C19.3048 12.3896 19.5578 12.1518 19.8234 11.9286C19.8677 11.8919 19.9147 11.8577 19.961 11.8248C20.0074 11.792 20.0206 11.7903 20.0636 11.8261L20.1083 11.8632C20.2079 11.9456 20.3075 12.0282 20.4022 12.1158C20.697 12.3884 20.9809 12.6719 21.2476 12.9721C21.5 13.2557 21.727 13.5572 21.9045 13.8937C21.9674 14.0128 22.0229 14.135 22.0509 14.268C22.0664 14.3345 22.0707 14.4031 22.0638 14.471C22.0534 14.558 22.0019 14.621 21.9381 14.6759C21.709 14.8729 21.4462 15.0141 21.1726 15.1382C20.921 15.252 20.6563 15.3153 20.3834 15.3464C20.2819 15.3579 20.1796 15.3648 20.1028 15.37ZM17.6167 14.1918L17.6257 14.1865L17.6238 14.1785C17.622 14.1709 17.6201 14.1633 17.619 14.1555C17.6163 14.1391 17.6131 14.1227 17.6098 14.1064C17.6025 14.0694 17.5952 14.0325 17.5944 13.9954C17.5921 13.8651 17.6173 13.7376 17.65 13.6121C17.7181 13.3506 17.8296 13.1061 17.9532 12.8676C18.1427 12.5033 18.3545 12.1511 18.5874 11.8127C18.7528 11.5708 18.9264 11.3348 19.1141 11.1096C19.1281 11.0929 19.1416 11.076 19.1553 11.0587C19.1653 11.0462 19.1754 11.0336 19.1859 11.0207L19.1403 10.9799C19.1039 10.9473 19.0684 10.9155 19.0331 10.8834C18.8746 10.7396 18.7145 10.5979 18.5406 10.4721C18.3953 10.3669 18.2406 10.2811 18.0678 10.2282C17.9846 10.2028 17.9188 10.2184 17.8564 10.2788C17.6799 10.4516 17.5292 10.6489 17.409 10.8645C17.2738 11.1031 17.1618 11.3513 17.1013 11.6195C17.0946 11.6489 17.0881 11.6769 17.0817 11.7043C17.0501 11.8391 17.0222 11.9587 17.0079 12.1469C16.9958 12.3072 16.9984 12.3765 17.0015 12.4614C17.0028 12.4964 17.0042 12.5341 17.0047 12.582C17.0241 12.7745 17.0471 12.8879 17.0893 13.077C17.1777 13.4739 17.3499 13.8321 17.5871 14.1605C17.5964 14.1715 17.6062 14.1819 17.6167 14.1918Z"/>
</svg>
