<?xml version="1.0"?>
<svg width="24" height="27" viewBox="0 0 24 27" fill="none" xmlns="http://www.w3.org/2000/svg">
  <path d="M1.55554 15.117C1.5602 17.9135 2.67377 20.5942 4.65227 22.5716C6.63077 24.549 9.31284 25.662 12.1109 25.6667C13.4966 25.6713 14.8694 25.4003 16.1493 24.8696C17.4292 24.3388 18.5907 23.5588 19.5661 22.5751C21.5374 20.5994 22.651 17.9274 22.6662 15.1373C22.7204 9.22235 18.2188 4.68248 12.1949 4.57003H7.49304V1.77783L1.55554 6.06029L7.49304 10.3441V7.68603H12.1502C16.4051 7.76731 19.5865 10.9565 19.5485 15.1048C19.5119 19.2125 16.176 22.5561 12.1109 22.5561C10.1389 22.5539 8.24838 21.7701 6.85402 20.3764C5.45966 18.9828 4.67535 17.0933 4.6732 15.1224" fill="currentColor"/>
  <path d="M12.1109 25.6667L12.1127 25.1111L12.1118 25.1111L12.1109 25.6667ZM19.5661 22.5751L19.1728 22.1827L19.1716 22.1839L19.5661 22.5751ZM22.6662 15.1373L22.1106 15.1322L22.1106 15.1343L22.6662 15.1373ZM12.1949 4.57003L12.2053 4.01448H12.1949V4.57003ZM7.49304 4.57003H6.93749V5.12559H7.49304V4.57003ZM7.49304 1.77783H8.0486V0.692152L7.16805 1.32725L7.49304 1.77783ZM1.55554 6.06029L1.23056 5.60971L0.605936 6.06022L1.23049 6.51082L1.55554 6.06029ZM7.49304 10.3441L7.16799 10.7946L8.0486 11.43V10.3441H7.49304ZM7.49304 7.68603V7.13047H6.93749V7.68603H7.49304ZM12.1502 7.68603L12.1608 7.13047H12.1502V7.68603ZM19.5485 15.1048L18.993 15.0997L18.993 15.0999L19.5485 15.1048ZM12.1109 22.5561L12.1102 23.1116H12.1109V22.5561ZM0.999987 15.1179C1.00489 18.0616 2.17705 20.8832 4.25954 22.9645L5.045 22.1787C3.1705 20.3052 2.11551 17.7655 2.1111 15.1161L0.999987 15.1179ZM4.25954 22.9645C6.34202 25.0459 9.16499 26.2173 12.1099 26.2222L12.1118 25.1111C9.46069 25.1067 6.91951 24.0522 5.045 22.1787L4.25954 22.9645ZM12.109 26.2222C13.5684 26.2271 15.0141 25.9417 16.3621 25.3827L15.9365 24.3564C14.7246 24.8589 13.4248 25.1155 12.1127 25.1111L12.109 26.2222ZM16.3621 25.3827C17.7101 24.8237 18.9333 24.0023 19.9606 22.9662L19.1716 22.1839C18.2481 23.1153 17.1484 23.8538 15.9365 24.3564L16.3621 25.3827ZM19.9594 22.9675C22.0338 20.8884 23.2058 18.0766 23.2217 15.1403L22.1106 15.1343C22.0963 17.7783 21.0409 20.3104 19.1728 22.1827L19.9594 22.9675ZM23.2217 15.1424C23.2788 8.91288 18.5239 4.13252 12.2053 4.01457L12.1845 5.12549C17.9136 5.23243 22.162 9.53182 22.1106 15.1322L23.2217 15.1424ZM12.1949 4.01448H7.49304V5.12559H12.1949V4.01448ZM8.0486 4.57003V1.77783H6.93749V4.57003H8.0486ZM7.16805 1.32725L1.23056 5.60971L1.88053 6.51087L7.81803 2.22842L7.16805 1.32725ZM1.23049 6.51082L7.16799 10.7946L7.81809 9.89357L1.8806 5.60975L1.23049 6.51082ZM8.0486 10.3441V7.68603H6.93749V10.3441H8.0486ZM7.49304 8.24158H12.1502V7.13047H7.49304V8.24158ZM12.1396 8.24148C16.1033 8.3172 19.028 11.2693 18.993 15.0997L20.104 15.1099C20.1449 10.6436 16.7069 7.21742 12.1608 7.13057L12.1396 8.24148ZM18.993 15.0999C18.959 18.9084 15.8655 22.0005 12.1109 22.0005V23.1116C16.4866 23.1116 20.0648 19.5166 20.104 15.1098L18.993 15.0999ZM12.1115 22.0005C10.2866 21.9985 8.53706 21.2731 7.24675 19.9835L6.46129 20.7694C7.95971 22.267 9.99128 23.1093 12.1102 23.1116L12.1115 22.0005ZM7.24675 19.9835C5.95646 18.6939 5.23075 16.9455 5.22876 15.1218L4.11765 15.123C4.11996 17.2411 4.96286 19.2717 6.46129 20.7694L7.24675 19.9835Z" fill="currentColor"/>
</svg>
