<?xml version="1.0"?>
<svg version="1.1" xmlns="http://www.w3.org/2000/svg" viewBox="0 0 36 36" fill="none">
  <g>
    <path d="M25.026 26.735a1.402 1.402 0 0 0 1.997-.07l7.29-7.71a1.402 1.402 0 0 0 0-1.927l-7.29-7.71a1.402 1.402 0 0 0-2.032 1.927l6.343 6.764-6.378 6.729a1.401 1.401 0 0 0 .07 1.997ZM12.34 9.285a1.402 1.402 0 0 0-1.997.07l-7.254 7.71a1.402 1.402 0 0 0 0 1.927l7.29 7.71a1.402 1.402 0 0 0 2.032-1.927L6.033 18.01l6.378-6.729a1.401 1.401 0 0 0-.07-1.997ZM15.25 32.134h.351a1.402 1.402 0 0 0 1.332-1.051l6.238-25.478a1.407 1.407 0 0 0-2.733-.666l-6.239 25.478a1.402 1.402 0 0 0 1.052 1.717Z"/>
  </g>
</svg>
