<?xml version="1.0"?>
<svg xmlns="http://www.w3.org/2000/svg" viewBox="0 0 279 190" fill="none">
  <path fill="currentColor" d="M276.557 118.966L276.377 117.587C276.377 117.575 274.727 107.206 273.807 102.575C269.077 78.747 262.957 53.718 255.596 28.199C255.448 27.679 255.207 27.26 255.037 26.988C254.957 26.869 254.867 26.759 254.766 26.658C254.766 26.658 249.118 21.029 248.778 20.67C248.038 19.889 247.266 19.08 246.438 18.549C246.297 18.459 245.557 18.139 245.288 18.01C244.495 17.629 243.956 17.379 243.556 17.209C243.546 17.17 243.536 17.129 243.527 17.09C243.496 17.01 243.476 16.94 243.447 16.86C243.426 16.819 243.406 16.78 243.386 16.751C242.585 15.05 241.675 13.36 240.796 11.72L240.505 11.159C240.386 10.94 240.263 10.751 240.073 10.591C239.891 10.402 239.675 10.28 239.565 10.21C239.545 10.2 239.276 10.03 239.165 9.98C233.625 7.511 222.858 3.701 222.846 3.701C219.718 2.41 216.278 1.191 212.038 -0.149C210.688 -0.579 208.877 -1.079 206.926 -1.079C206.127 -1.079 205.346 -0.989 204.617 -0.819C202.926 -1.13 201.287 -1.409 199.717 -1.639C199.688 -1.649 197.457 -1.94 197.197 -1.969C197.047 -1.998 196.916 -1.998 196.787 -1.998C196.057 -1.998 195.346 -1.719 194.807 -1.219C194.647 -1.1 194.516 -0.949 194.397 -0.78C194.137 -0.44 192.708 1.441 191.688 2.762C177.307 1.89 161.506 1.431 142.077 1.332C142.067 1.332 126.397 1.41 126.097 1.41C126.097 1.41 106.898 1.832 98.2062 2.192C96.7762 2.262 95.4972 2.311 94.2672 2.362C91.9492 2.442 89.7382 2.522 87.0972 2.741C86.2072 1.568 85.1272 0.138 84.3972 -0.842C84.2972 -0.981 84.1762 -1.102 84.0472 -1.201C83.5862 -1.592 82.8462 -2 81.7762 -2C81.1862 -2 80.6712 -1.873 80.2082 -1.791C79.9482 -1.744 75.8272 -1.121 74.1872 -0.82C73.4472 -0.99 72.6672 -1.08 71.8472 -1.08C70.7772 -1.08 69.6172 -0.932 68.4272 -0.631C68.3982 -0.621 68.3662 -0.621 68.3372 -0.611C64.0462 0.649 59.8762 2.1 55.9682 3.69C55.9472 3.7 55.9272 3.71 55.9072 3.719C50.6372 5.408 45.1672 7.51 39.6372 9.979C39.3262 10.12 39.0262 10.35 38.8262 10.629L38.7172 10.779C38.7172 10.779 38.4242 11.22 38.2662 11.439C36.8362 13.548 35.8972 15.429 35.4162 17.148C34.9962 17.308 34.4262 17.58 33.5252 18.009C33.2552 18.138 32.7962 18.339 32.7752 18.349C32.0862 18.599 31.5152 19.148 30.6562 20.038C30.5062 20.188 30.4062 20.308 30.3362 20.368C30.3162 20.388 28.7562 21.948 28.7562 21.948C28.0572 22.657 26.4672 24.237 26.4362 24.268C26.2172 24.508 25.8872 24.817 25.5462 25.147C24.8362 25.829 24.1162 26.518 23.6062 27.249C23.5462 27.339 23.4972 27.429 23.4472 27.519C23.4072 27.619 23.3562 27.738 23.3272 27.839C22.5872 30.359 21.8172 33.038 21.1062 35.577C19.0462 42.827 16.9662 50.677 14.5372 60.247C10.0162 78.858 5.34716 98.065 2.43616 117.526C2.43616 117.546 2.33616 118.296 2.33616 118.296C0.536161 131.837 -1.33384 145.837 1.32616 159.616C2.81616 167.177 5.24616 173.155 8.77516 177.915C12.3162 182.905 17.4162 186.677 23.0952 188.507C26.2162 189.446 29.3752 189.927 32.5352 189.927C38.5052 189.927 44.0242 188.245 48.4852 185.075C59.3742 177.235 65.4952 162.106 70.8852 148.757C71.9242 146.187 73.9052 141.437 73.9142 141.405C74.1642 140.745 74.4532 139.995 74.7732 139.266C74.9942 138.846 75.9742 137.455 76.1442 137.196C76.3042 137.016 76.9842 136.257 77.1542 136.065C79.5332 133.805 82.6482 132.481 85.7182 132.45C85.7182 132.45 85.8862 132.448 86.1632 132.427H188.003C189.583 132.427 191.153 132.427 192.714 132.437C196.464 132.447 200.064 134.107 202.343 136.857C203.105 137.796 203.663 138.607 204.083 139.377C204.083 139.377 206.903 146.246 207.954 148.848C213.263 161.996 219.294 176.897 230.013 184.858C234.542 188.178 240.152 189.938 246.254 189.938C249.404 189.938 252.574 189.458 255.674 188.518C261.225 186.717 266.235 183.077 269.805 178.247C273.616 173.108 276.225 166.667 277.555 159.099C280.077 145.726 278.288 132.117 276.557 118.966ZM59.3422 67.242C51.7742 67.242 45.6172 61.086 45.6172 53.519C45.6172 45.951 51.7732 39.796 59.3422 39.796C66.9082 39.796 73.0652 45.95 73.0652 53.519C73.0652 61.085 66.9092 67.242 59.3422 67.242ZM121.963 93.212C121.965 93.267 121.955 93.294 121.947 93.335C121.586 95.048 120.058 96.29 118.31 96.29H108.806C108.769 96.29 108.755 96.292 108.701 96.29C108.453 96.347 108.267 96.546 108.267 96.811L108.3 106.147C108.3 106.182 108.302 106.217 108.302 106.258C108.302 108.006 107.062 109.535 105.349 109.893C105.337 109.897 105.324 109.899 105.312 109.899C103.865 110.2 102.408 110.35 100.951 110.35C99.4922 110.35 98.0332 110.198 96.5842 109.897C96.5742 109.897 96.5642 109.895 96.5552 109.893C94.8522 109.538 93.6142 108.022 93.6022 106.282V106.276V96.831C93.6022 96.788 93.6062 96.802 93.6022 96.759C93.5862 96.519 93.3872 96.325 93.1512 96.29C93.1162 96.292 93.0962 96.29 93.0632 96.29H83.6492C83.6452 96.29 83.6372 96.29 83.6332 96.29C81.8832 96.29 80.3562 95.048 79.9962 93.335C79.9922 93.323 79.9922 93.312 79.9902 93.3C79.3882 90.404 79.3882 87.47 79.9922 84.575C79.9922 84.563 79.9942 84.552 79.9962 84.54C80.3552 82.829 81.8812 81.622 83.6292 81.622C83.6762 81.622 83.7112 81.626 83.7642 81.624H93.0632C93.3482 81.624 93.5752 81.433 93.6272 81.179C93.6352 81.138 93.6312 81.113 93.6312 81.079L93.6022 71.6C93.6022 69.834 94.8442 68.303 96.5552 67.946C96.6062 67.936 96.6332 67.928 96.6862 67.919C99.5162 67.345 102.403 67.343 105.235 67.919C105.309 67.939 105.309 67.939 105.35 67.948C107.063 68.303 108.26 69.835 108.26 71.583C108.26 71.63 108.27 71.665 108.268 71.714V81.066C108.268 81.375 108.518 81.625 108.825 81.625L118.198 81.594C118.255 81.594 118.272 81.588 118.311 81.588C120.059 81.588 121.532 82.83 121.891 84.541C121.901 84.59 121.914 84.621 121.936 84.697C122.51 87.527 122.541 90.38 121.963 93.212ZM139.012 41.652C132.371 41.652 126.967 36.25 126.967 29.608C126.967 22.965 132.371 17.561 139.012 17.561C145.657 17.561 151.059 22.965 151.059 29.608C151.059 36.249 145.657 41.652 139.012 41.652ZM177.129 102.644C169.563 102.644 163.406 96.488 163.406 88.921C163.406 81.353 169.562 75.198 177.129 75.198C184.697 75.198 190.854 81.352 190.854 88.921C190.854 96.488 184.698 102.644 177.129 102.644ZM201.75 62.714C196.811 62.714 192.791 58.694 192.791 53.755C192.791 48.816 196.811 44.794 201.75 44.794C206.691 44.794 210.711 48.815 210.711 53.755C210.711 58.695 206.692 62.714 201.75 62.714ZM222.356 82.827C217.417 82.827 213.397 78.811 213.397 73.87C213.397 68.929 217.417 64.909 222.356 64.909C227.297 64.909 231.316 68.929 231.316 73.87C231.316 78.811 227.297 82.827 222.356 82.827ZM222.356 41.673C217.417 41.673 213.397 37.653 213.397 32.715C213.397 27.774 217.417 23.756 222.356 23.756C227.297 23.756 231.316 27.774 231.316 32.715C231.317 37.654 227.297 41.673 222.356 41.673ZM242.657 62.714C237.715 62.714 233.696 58.694 233.696 53.755C233.696 48.816 237.716 44.794 242.657 44.794C247.598 44.794 251.618 48.815 251.618 53.755C251.618 58.695 247.598 62.714 242.657 62.714Z"/>
</svg>
