<?xml version="1.0"?>
<svg viewBox="0 0 36 36" fill="none" xmlns="http://www.w3.org/2000/svg">
  <path d="M14.6999 25.42L18.0799 22.05L33.0599 7.06005L30.9399 4.94005L23.9999 11.88V8.05005C23.9999 6.45875 23.3678 4.93263 22.2426 3.80741C21.1174 2.68219 19.5912 2.05005 17.9999 2.05005C16.4086 2.05005 14.8825 2.68219 13.7573 3.80741C12.6321 4.93263 11.9999 6.45875 11.9999 8.05005V16.05C12.0021 17.0575 12.2579 18.0482 12.7437 18.9308C13.2296 19.8134 13.9298 20.5594 14.7799 21.1L11.9999 23.84C10.6491 22.6903 9.65647 21.1771 9.13994 19.48L5.34994 20.6201C6.05673 22.9386 7.39296 25.0157 9.20994 26.6201L4.93994 30.9401L7.05994 33.0601L14.6999 25.42Z" fill="currentColor"/>
  <path d="M18.3299 26L14.7399 29.58C15.1551 29.6912 15.5757 29.7813 15.9999 29.85V34.01H19.9999V29.89C22.4663 29.5004 24.7732 28.4243 26.6566 26.785C28.54 25.1456 29.9239 23.0091 30.6499 20.6201L26.8199 19.48C26.2501 21.3098 25.1284 22.9186 23.6084 24.0858C22.0885 25.2531 20.2448 25.9217 18.3299 26Z" fill="currentColor"/>
</svg>
