<?xml version="1.0"?>
<svg version="1.1" id="Layer_3" xmlns="http://www.w3.org/2000/svg" x="0px" y="0px" width="256px" height="256px" viewBox="0 0 256 256">
  <path d="M250.151,128.021c0,67.418-54.604,122.022-122.022,122.022S6.107,195.439,6.107,128.021C6.107,60.604,60.712,6,128.129,6 S250.151,60.604,250.151,128.021z M105.799,192.389c54.117,0,83.707-44.842,83.707-83.707c0-1.282,0-2.563-0.062-3.783 c5.736-4.148,10.739-9.335,14.705-15.252c-5.247,2.318-10.922,3.905-16.901,4.637c6.103-3.661,10.738-9.396,12.936-16.29 c-5.675,3.355-11.959,5.796-18.67,7.138c-5.369-5.734-12.995-9.273-21.477-9.273c-16.228,0-29.406,13.179-29.406,29.407 c0,2.318,0.243,4.576,0.793,6.711c-24.466-1.22-46.125-12.934-60.646-30.75c-2.501,4.332-3.965,9.396-3.965,14.765 c0,10.189,5.186,19.218,13.117,24.465c-4.819-0.122-9.334-1.464-13.3-3.661c0,0.122,0,0.244,0,0.366 c0,14.275,10.128,26.113,23.611,28.857c-2.44,0.672-5.064,1.039-7.748,1.039c-1.892,0-3.723-0.184-5.553-0.551 c3.722,11.714,14.581,20.195,27.455,20.44c-10.067,7.868-22.757,12.566-36.546,12.566c-2.379,0-4.697-0.122-7.016-0.427 C73.707,187.507,89.204,192.389,105.799,192.389"/>
</svg>
