<?xml version="1.0"?>
<svg xmlns="http://www.w3.org/2000/svg" viewBox="0 0 36 36" fill="none">
  <path d="M32.42 9.32L32 8.5H27V4H9V8.5H4L3.58 9.32C3.46 9.56 0.630001 15.26 4.58 19.97L6.91 18C6.19155 17.0916 5.7216 16.0121 5.54629 14.8673C5.37097 13.7225 5.49631 12.5517 5.91 11.47H9V13C9.00097 15.1262 9.75465 17.1833 11.1275 18.8069C12.5003 20.4305 14.4036 21.5156 16.5 21.87L15.44 28H13.82L11.34 32H24.72L22.24 28H20.56L19.5 21.89C21.5998 21.5351 23.5058 20.447 24.879 18.8193C26.2522 17.1916 27.0038 15.1296 27 13V11.5H30.07C30.4837 12.5817 30.609 13.7525 30.4337 14.8973C30.2584 16.0421 29.7885 17.1216 29.07 18.03L31.38 20C35.37 15.26 32.54 9.56 32.42 9.32Z" fill="currentColor"/>
</svg>
