<?xml version="1.0"?>
<svg xmlns="http://www.w3.org/2000/svg" viewBox="0 0 36 36" fill="none">
  <path fill="currentColor" fill-rule="evenodd" clip-rule="evenodd" d="M5.7359 3C3.63266 3 1.88869 4.6288 1.74521 6.72713L0.292222 27.9771C0.134194 30.2883 1.96635 32.25 4.2829 32.25H31.7172C34.0338 32.25 35.8659 30.2883 35.7079 27.9771L34.2549 6.72713C34.1114 4.6288 32.3675 3 30.2642 3H5.7359ZM20.7179 24.0625H23.6519L20.6819 19.2925C21.4499 18.9565 22.0439 18.4645 22.4639 17.8165C22.8959 17.1685 23.1119 16.3585 23.1119 15.3865C23.1119 14.1505 22.7039 13.1905 21.8879 12.5065C21.0719 11.8105 19.7999 11.4625 18.0719 11.4625H13.3559V24.0625H16.0019V19.8145H17.8739H18.1799L20.7179 24.0625ZM16.0019 17.5465V13.7125H17.9099C18.7379 13.7125 19.3379 13.8685 19.7099 14.1805C20.0939 14.4805 20.2859 14.9365 20.2859 15.5485C20.2859 16.1725 20.0879 16.6645 19.6919 17.0245C19.3079 17.3725 18.7679 17.5465 18.0719 17.5465H16.0019Z"/>
</svg>
