<?xml version="1.0"?>
<svg xmlns="http://www.w3.org/2000/svg" viewBox="0 0 78.604 32">
  <path fill="currentColor" d="M39.088,16.865c0-0.337-0.091-0.609-0.273-0.817
				c-0.181-0.208-0.402-0.312-0.661-0.312h-1.869c-0.026-0.026-0.039-0.013-0.039,0.039c-0.052,0.052-0.105,0.206-0.156,0.468
				c-0.025,0.207,0.051,0.505,0.233,0.895c0.129,0.312,0.169,0.493,0.117,0.544c-0.155,0.104-0.454-0.142-0.896-0.739
				c-0.129-0.155-0.22-0.401-0.272-0.739l-0.039-0.467c-0.156,0.077-0.312,0.181-0.468,0.312c-0.285,0.26-0.428,0.531-0.428,0.817
				c0.027,0.363,0.143,0.701,0.35,1.012c0.235,0.313,0.521,0.468,0.857,0.468h2.375c0.467,0,0.792-0.169,0.973-0.507
				C39.022,17.604,39.088,17.28,39.088,16.865z M68.948,6.51c-0.13,0.26-0.207,0.428-0.233,0.505
				c-0.026,0.079-0.014,0.234,0.038,0.469l0.234,0.506h1.752l0.117-2.298h-1.479L68.948,6.51z M73.035,11.025
				c-0.077,0-0.142-0.039-0.193-0.116l-0.078-0.117h-1.208c-0.155,0.441-0.325,0.662-0.505,0.662h-0.585
				c-0.078,0-0.155-0.065-0.233-0.194l-0.117-0.156h-2.414v0.622c0,0.155-0.104,0.312-0.312,0.468
				c-0.207,0.181-0.427,0.272-0.661,0.272H47.924c-0.129,0-0.258-0.117-0.39-0.35l-0.154-0.351l-0.429,0.7h-0.272v4.477l0.311,0.39
				c-0.025,0.104-0.129,0.208-0.311,0.312c-0.13,0.053-0.168,0.325-0.118,0.818c0.078,0.882,0.118,1.4,0.118,1.557
				c0,0.52,0.026,0.986,0.078,1.401c0.077,0.312,0.194,0.753,0.35,1.324c0.181,0.675,0.532,1.868,1.052,3.581l0.194,0.116
				c0.078,0.104,0.039,0.196-0.116,0.273c-3.868,1.246-5.917,1.895-6.152,1.946c-0.155,0-0.272-0.064-0.349-0.194
				c-0.053-0.13-0.053-0.247,0-0.351c0.026-0.053-0.092-0.532-0.352-1.439c-0.363-1.194-0.635-2.323-0.817-3.389
				c-0.207-1.167-0.325-2.219-0.351-3.153l0.039-1.051l-0.507-0.155v-0.428c-0.233,0.336-0.402,0.506-0.505,0.506h-4.438
				c-0.157,0.285-0.299,0.428-0.429,0.428c-0.079,0-0.182-0.078-0.312-0.233l-0.117-0.194c-0.104-0.053-0.208-0.078-0.312-0.078
				c-0.208,0-0.364,0.116-0.467,0.351c-0.104,0.232-0.221,0.415-0.35,0.545c-0.156,0.181-0.259,0.311-0.312,0.39
				c-0.052,0.13-0.012,0.298,0.118,0.506c0.155,0.232,0.219,0.39,0.194,0.468c-0.026,0.051-0.208,0.142-0.546,0.271
				c-0.337,0.104-0.544,0.26-0.622,0.467c-0.025,0.052-0.298,0.558-0.817,1.519c-0.441,0.805-0.663,1.272-0.663,1.401
				c0,0.053,0.091,0.221,0.273,0.506c0.155,0.208,0.169,0.402,0.039,0.585c-0.286,0.363-1.44,0.402-3.465,0.116
				c-0.778-0.104-1.377-0.285-1.791-0.545c-0.467-0.259-0.624-0.545-0.467-0.856c0.233-0.415,1.882-3.258,4.943-8.525
				c0.157-0.286,0.157-0.688,0-1.208c-0.155-0.544-0.402-0.83-0.739-0.856c-0.233,0-0.454,0.014-0.662,0.04
				c-0.155,0.026-0.298,0.013-0.429-0.04c-0.285-0.129-0.429-0.323-0.429-0.583c-0.024-0.338-0.039-0.637-0.039-0.896
				c-0.026-0.493-0.013-0.856,0.039-1.089h-0.194l-0.506-0.195v-0.194h-5.996l-0.078,0.428c-0.131,0.338-0.363,0.637-0.701,0.896
				c-0.363,0.259-0.675,0.519-0.934,0.778l-0.312,0.272l-0.701,1.284h-0.933l-0.625,1.091h-2.296v-0.585h-1.363
				c-1.998,1.532-3.101,2.362-3.308,2.492c-0.208,0.129-0.364,0.208-0.468,0.234c-0.13,0.025-0.221-0.053-0.272-0.234l-0.039-0.39
				l-6.229,4.011l-0.118,0.467c-0.129,0.312-0.272,0.479-0.427,0.506c-0.209,0.052-0.441,0.039-0.701-0.039
				c-0.285-0.052-0.506-0.143-0.662-0.272c-0.259-0.208-0.389-0.324-0.389-0.35C0.065,21.563,0,21.355,0,21.069V9.156
				C0,8.845,0.117,8.572,0.352,8.34c0.258-0.26,0.621-0.391,1.09-0.391h19.387c0.104,0,0.183,0.104,0.234,0.312
				c0.027,0.105,0.053,0.208,0.078,0.312h5.606V8.34l0.506-0.195h0.973V7.288l0.195-0.194c0.208-0.13,0.558-0.194,1.051-0.194h2.335
				l0.819-1.169l-0.078-0.389c-0.157-0.053-0.313-0.13-0.467-0.233c-0.312-0.234-0.468-0.546-0.468-0.935
				c0-0.26,0.104-0.494,0.311-0.701c0.234-0.233,0.493-0.351,0.779-0.351c0.338,0,0.624,0.117,0.857,0.351
				c0.207,0.207,0.311,0.454,0.311,0.74v2.335h0.467V5.926h1.441v0.816h10.979c0.156,0,0.297,0.078,0.428,0.234
				c0.104,0.13,0.182,0.246,0.234,0.351c0.025,0.13,0.194,0.052,0.505-0.233h1.169c0-0.079,0.013-0.144,0.039-0.194
				c0.052-0.13,0.156-0.195,0.312-0.195h17.362c0.157,0,0.298,0.077,0.43,0.233c0.051,0.077,0.103,0.144,0.154,0.195l0.818-1.129
				c0.572-0.805,0.948-1.285,1.129-1.441l0.194-0.193c0.233-0.131,0.558-0.195,0.974-0.195h0.972v4.982h1.168l0.156-0.194
				c0.104-0.104,0.208-0.155,0.311-0.155h4.671c0.208,0,0.377,0.077,0.507,0.233c0.208,0.182,0.312,0.441,0.312,0.778v0.391
				c0,0.258-0.091,0.467-0.273,0.621c-0.156,0.131-0.324,0.195-0.505,0.195H73.035z"/>
</svg>
