<?xml version="1.0"?>
<svg width="59" height="59" viewBox="0 0 59 59" fill="none" xmlns="http://www.w3.org/2000/svg">
  <rect x="1.5" y="1.5" width="56" height="56" rx="4" stroke-width="1" fill-opacity="0.0"/>
  <path d="M29.14 15.868C30.748 15.868 32.128 16.144 33.28 16.696C34.456 17.224 35.356 17.968 35.98 18.928C36.604 19.864 36.916 20.932 36.916 22.132C36.916 22.948 36.772 23.68 36.484 24.328C36.196 24.952 35.848 25.492 35.44 25.948C35.032 26.38 34.468 26.932 33.748 27.604C32.956 28.3 32.308 28.924 31.804 29.476C31.3 30.028 30.868 30.724 30.508 31.564C30.172 32.38 30.004 33.34 30.004 34.444H27.088C27.088 33.004 27.268 31.78 27.628 30.772C28.012 29.764 28.468 28.96 28.996 28.36C29.548 27.736 30.232 27.076 31.048 26.38C31.888 25.636 32.5 24.988 32.884 24.436C33.292 23.884 33.496 23.212 33.496 22.42C33.496 21.268 33.064 20.356 32.2 19.684C31.336 19.012 30.16 18.676 28.672 18.676C26.608 18.676 24.736 19.336 23.056 20.656L21.76 18.244C22.696 17.524 23.8 16.948 25.072 16.516C26.368 16.084 27.724 15.868 29.14 15.868ZM28.564 37.288C29.26 37.288 29.812 37.504 30.22 37.936C30.628 38.344 30.832 38.908 30.832 39.628C30.832 40.348 30.628 40.912 30.22 41.32C29.812 41.728 29.26 41.932 28.564 41.932C27.892 41.932 27.352 41.728 26.944 41.32C26.536 40.912 26.332 40.348 26.332 39.628C26.332 38.908 26.536 38.344 26.944 37.936C27.352 37.504 27.892 37.288 28.564 37.288Z" fill=""/>
</svg>
