<?xml version="1.0"?>
<svg xmlns="http://www.w3.org/2000/svg" version="1.1" id="Layer_1" x="0px" y="0px" viewBox="0 0 1200 1200">
  <g>
    <path d="M590.4,883.4H363.8c-6.3,0-12.3-2.5-16.7-6.9c-4.4-4.4-6.9-10.4-6.9-16.7V505.5h519.5V614h44.4c0.9,0,1.9,0,2.8,0.1V387.5   c0-18.8-7.5-36.8-20.8-50.1c-13.3-13.3-31.3-20.8-50.1-20.8h-47.2V293c0-13-10.6-23.6-23.6-23.6S741.7,280,741.7,293v23.6H623.6   V293c0-13-10.6-23.6-23.6-23.6S576.4,280,576.4,293v23.6H458.3V293c0-13-10.6-23.6-23.6-23.6c-13,0-23.6,10.6-23.6,23.6v23.6h-47.2   c-18.8,0-36.8,7.5-50.1,20.8c-13.3,13.3-20.8,31.3-20.8,50.1v472.3c0,18.8,7.5,36.8,20.8,50.1c13.3,13.3,31.3,20.8,50.1,20.8h226.7   c-0.1-0.9-0.1-1.9-0.1-2.8V883.4z M340.2,387.5c0-6.3,2.5-12.3,6.9-16.7c4.4-4.4,10.4-6.9,16.7-6.9h47.2l0,23.6   c0,13,10.6,23.6,23.6,23.6c13,0,23.6-10.6,23.6-23.6v-23.6h118.1v23.6c0,13,10.6,23.6,23.6,23.6s23.6-10.6,23.6-23.6v-23.6h118.1   v23.6c0,13,10.6,23.6,23.6,23.6s23.6-10.6,23.6-23.6v-23.6h47.2c6.3,0,12.3,2.5,16.7,6.9c4.4,4.4,6.9,10.4,6.9,16.7v70.8H340.2   V387.5z"/>
    <path d="M904.2,629h-267c-17.6,0-31.8,14.2-31.8,31.8v267c0,17.6,14.2,31.8,31.8,31.8h267c17.6,0,31.8-14.2,31.8-31.8v-267   C936,643.2,921.8,629,904.2,629z M860.5,829.8l-87.7,87.7L685,829.8c-6.6-6.6-6.6-17.4,0-24c6.6-6.6,17.4-6.6,24,0l46.7,46.7v-164   c0-9.4,7.6-17,17-17s17,7.6,17,17v164l46.7-46.7c6.6-6.6,17.4-6.6,24,0C867.1,812.4,867.1,823.2,860.5,829.8z"/>
  </g>
</svg>
