<?xml version="1.0"?>
<svg xmlns="http://www.w3.org/2000/svg" viewBox="0 0 99.75 32">
  <path fill="currentColor" d="M37.502,4.18c0.024-0.024,0.037-0.048,0.037-0.074
				c0.024-0.025,0.038-0.05,0.038-0.075c0.024-0.026,0.037-0.051,0.037-0.075c0.025,0,0.05,0,0.075,0s0.061,0,0.111,0V3.919
				c0.646,0,1.282,0,1.904,0c0.05,0,0.086,0,0.111,0c0.1,0,0.212,0,0.336,0c0.05,0.024,0.087,0.037,0.112,0.037
				c0.025,0.024,0.049,0.062,0.074,0.112l0.038,0.038c0.025,0.026,0.037,0.049,0.037,0.074c0,0.025,0,0.05,0,0.075
				c0,0.025,0,0.049,0,0.074c-0.024,0.025-0.037,0.051-0.037,0.075c-0.026,0.025-0.038,0.05-0.038,0.076
				c-0.025,0-0.037,0.012-0.037,0.037v0.037c0,0.025,0,0.049,0,0.075s0,0.05,0,0.075c0,0.024,0,0.05,0,0.074v0.037
				c0,0.025,0,0.05,0,0.075c0,0.026,0,0.05,0,0.075c0,0.025,0,0.062,0,0.112c0,0.025,0,0.049,0,0.074v0.037c0,0.025,0,0.05,0,0.075
				s0,0.05,0,0.075c0,0.024,0,0.049,0,0.074c0,0.025,0,0.05,0,0.075h0.037c0.025,0,0.038,0.012,0.038,0.037
				c0.025,0.049,0.037,0.087,0.037,0.112s-0.012,0.05-0.037,0.074c0,0.025-0.013,0.049-0.038,0.075l-0.037,0.038
				c0,0.024,0,0.049,0,0.074c0,0.025,0,0.049,0,0.075c0,0.024,0,0.05,0,0.074c0,0.05,0,0.086,0,0.111v0.038c0,0.025,0,0.05,0,0.076
				c0,0.023,0,0.048,0,0.073s0,0.05,0,0.074c0,0.026,0,0.051,0,0.076v0.038c0,0.049,0,0.086,0,0.111c0,0.026,0,0.051,0,0.076
				c0,0.025,0,0.05,0,0.075V6.83c-0.025,0.024-0.037,0.049-0.037,0.075v0.036c2.538,0,5.1,0,7.687,0c0.025,0,0.05,0.013,0.076,0.038
				c0-0.025,0.012-0.038,0.037-0.038c0.124-0.025,0.223-0.048,0.299-0.074c0.049-0.026,0.11-0.038,0.186-0.038
				c0.099-0.025,0.174-0.05,0.223-0.075c0.075-0.024,0.138-0.049,0.187-0.074c0.075-0.025,0.162-0.05,0.261-0.075
				c0.05-0.025,0.112-0.049,0.187-0.074c0.05-0.025,0.125-0.05,0.224-0.075c0.076-0.025,0.125-0.05,0.15-0.075
				c0.074-0.025,0.15-0.038,0.224-0.038c0-0.025,0.012-0.05,0.037-0.073c0.025-0.026,0.051-0.051,0.077-0.076
				c0.049-0.025,0.086-0.038,0.111-0.038c0.025-0.025,0.05-0.062,0.076-0.111c0.074,0,0.123-0.013,0.147-0.037
				c0.05-0.025,0.112-0.038,0.188-0.038c0.049-0.026,0.099-0.062,0.148-0.112c0.025-0.024,0.05-0.037,0.075-0.037
				c0.024,0,0.05-0.013,0.074-0.038h0.038c0-0.026,0-0.05,0-0.075c0.025-0.024,0.048-0.049,0.074-0.074l0.075-0.075
				c0.025,0,0.062,0,0.112,0V5.523c0.571,0,1.12,0,1.641,0V5.487c0.175,0,0.361,0,0.561,0v0.037c0.124,0,0.236,0,0.335,0
				c0.024,0,0.037-0.012,0.037-0.037c0.199,0,0.374,0,0.523,0l0.037,0.037c0.622,0,1.245,0,1.866,0c0.025,0,0.05,0,0.076,0
				c0.049,0,0.099,0.013,0.148,0.038l0.037,0.075c0.05,0.025,0.1,0.05,0.149,0.074c0.025,0.025,0.05,0.049,0.075,0.075l0.037,0.038
				c0.025,0.024,0.038,0.049,0.038,0.074c0,0.025,0,0.049,0,0.075c0,0.024-0.013,0.05-0.038,0.074c0,0.025-0.012,0.05-0.037,0.075
				v0.037c-0.025,0-0.05,0.013-0.075,0.038c0,0.05-0.013,0.087-0.037,0.112c0,0.024,0,0.049,0,0.074s0,0.049,0,0.075v0.037
				c0,0.024,0,0.05,0,0.075v0.149c0,0.025,0,0.05,0,0.075c0,0.025,0,0.049,0,0.075c0,0.025,0,0.062,0,0.112c0,0.024,0,0.062,0,0.112
				c0,0.025,0,0.05,0,0.075c0,0.049,0,0.087,0,0.111c0,0.05,0,0.086,0,0.112c0,0.049,0,0.087,0,0.111c0,0.026,0,0.063,0,0.113
				c0,0.023,0,0.062,0,0.11c0,0.027,0,0.063,0,0.112v0.075c0,0.025,0,0.062,0,0.112c0,0.05,0,0.088,0,0.113c0,0.024,0,0.049,0,0.074
				c0,0.049,0,0.087,0,0.112c0,0.049,0,0.086,0,0.112V8.51c0,0.049,0,0.098,0,0.147c0,0.025,0,0.063,0,0.113
				c0,0.024,0,0.048,0,0.073c0,0.026,0,0.063,0,0.113c0,0.024,0,0.062,0,0.112s0,0.087,0,0.111c0,0.025,0,0.05,0,0.075
				c0,0.051,0,0.087,0,0.112c0,0.049,0,0.087,0,0.112s0,0.062,0,0.111c0,0.025,0,0.063,0,0.112c0,0.026,0,0.063,0,0.112
				c0,0.025,0,0.05,0,0.075c0,0.024,0,0.062,0,0.112c0,0.024,0,0.062,0,0.112v0.075c0,0.048,0,0.088,0,0.112c0,0.05,0,0.086,0,0.111
				c0,0.05,0,0.087,0,0.112s0,0.062,0,0.112c0,0.025,0,0.051,0,0.075c12.389,0,24.766,0,37.128,0c1.767,0,3.521,0,5.262,0
				c0.074,0.024,0.149,0.049,0.224,0.074c0.05,0.024,0.087,0.049,0.112,0.075v0.037c0.049,0.024,0.087,0.061,0.112,0.112
				c0.025,0.024,0.05,0.063,0.075,0.112l0.036,0.075c0,0.05,0,0.086,0,0.111c0,0.05,0,0.087,0,0.111c0,0.05,0,0.088,0,0.114
				c0,0.023-0.012,0.061-0.036,0.111c0,0.025-0.013,0.063-0.038,0.112c-0.024,0.024-0.05,0.062-0.074,0.113v0.074
				c0,0.025,0,0.062,0,0.113c0,0.049,0,0.086,0,0.11c0,0.025,0,0.05,0,0.076c0,0.049,0,0.086,0,0.112c0,0.05,0,0.086,0,0.111v0.076
				c0,0.025,0,0.05,0,0.075c0,0.024,0,0.049,0,0.075v0.037c0,0.024,0,0.062,0,0.112c0,0.025-0.013,0.05-0.038,0.075
				c-0.025,0.025-0.037,0.062-0.037,0.112c-0.025,0.024-0.062,0.062-0.112,0.11c-0.075,0.025-0.15,0.05-0.224,0.076
				c-0.074,0-0.161,0-0.261,0c-0.075,0-0.137,0-0.187,0c-0.074-0.025-0.162-0.051-0.261-0.076
				c-7.986-0.024-15.971-0.049-23.957-0.074c0,0.025,0,0.05,0,0.074c0,0.025,0,0.05,0,0.076c0,0.025,0,0.05,0,0.075
				c0,0.049,0,0.087,0,0.112c0,0.023,0,0.049,0,0.074l0.037,0.037c0,0.05,0,0.087,0,0.112c0,0.024,0,0.063,0,0.112
				c0,0.025,0,0.062,0,0.112c0,0.024,0,0.05,0,0.075c0,0.025,0,0.063,0,0.112v0.113c0,0.049,0,0.086,0,0.111
				c0,0.025,0,0.051,0,0.076v0.111c0,0.049,0,0.086,0,0.111v0.113c0,0.024,0,0.062,0,0.111c0,0.026,0,0.063,0,0.113
				c0,0.024,0,0.049,0,0.075c0,0.024,0,0.063,0,0.111v0.299c0,0.05,0,0.087,0,0.113c0,0.049,0,0.086,0,0.111v0.112
				c0,0.025,0,0.063,0,0.112c0,0.024,0,0.063,0,0.112v0.075c0,0.024,0,0.062,0,0.112v0.112c0,0.024,0,0.049,0,0.075v0.708
				c-0.024,0-0.049,0.012-0.074,0.037h-0.038c0,0.026,0,0.063,0,0.112c0,0.05,0,0.087,0,0.113c0,0.025,0,0.049,0,0.074
				c0,0.05,0,0.087,0,0.112c0,0.05,0,0.087,0,0.112c0,0.025,0,0.063,0,0.112c0,0.025,0,0.062,0,0.112c0,0.024,0,0.063,0,0.112
				c0,0.025,0,0.049,0,0.074c0,0.025,0,0.063,0,0.114c0,0.024,0,0.061,0,0.11v0.075c0,0.049,0,0.086,0,0.111
				c-0.026,0.049-0.05,0.087-0.076,0.112c0,0.051-0.013,0.087-0.037,0.113c-0.025,0-0.049,0.024-0.075,0.073
				c-0.024,0-0.037,0.013-0.037,0.038c0,0.026,0.013,0.051,0.037,0.075c0.026,0.025,0.039,0.062,0.039,0.112
				c0,0.025-0.013,0.05-0.039,0.075c0,0.025-0.012,0.05-0.037,0.075c0,0.1,0,0.186,0,0.261c0,0.1,0,0.187,0,0.261
				c0,0.074,0,0.161,0,0.261c0,0.075,0,0.15,0,0.225c0,0.1,0,0.187,0,0.262c0,0.099,0,0.186,0,0.26s0,0.163,0,0.262
				c0,0.1,0,0.174,0,0.223c0,0.101,0,0.187,0,0.262c0,0.099,0,0.186,0,0.262c0,0.075,0,0.162,0,0.261c0,0.1,0,0.174,0,0.224v0.037
				c0.05,0,0.087,0.013,0.112,0.037c0.024,0.05,0.05,0.087,0.074,0.112l0.039,0.074c0,0.025,0,0.05,0,0.074h0.038
				c0.024,0.05,0.049,0.088,0.074,0.113c0,0.05,0,0.086,0,0.11c0,0.026,0,0.063,0,0.114c-0.024,0.024-0.049,0.061-0.074,0.11v0.038
				c0,0.026,0,0.05,0,0.074v0.075c0,0.025,0,0.05,0,0.075s0,0.049,0,0.074c0,0.025,0,0.049,0,0.074c0,0.025,0,0.05,0,0.075v0.038
				c0,0.025,0,0.05,0,0.074v0.039h-0.038v0.037h0.038c0,0.024,0.012,0.037,0.037,0.037h0.037c0.026,0.025,0.075,0.05,0.148,0.075
				c0.025,0.024,0.05,0.037,0.076,0.037c0,0.025,0.012,0.05,0.037,0.074c0.025,0.026,0.038,0.05,0.038,0.075c0,0.024,0,0.05,0,0.075
				c0,0.025,0.012,0.062,0.037,0.11v0.039c0,0.025,0.012,0.05,0.038,0.075c0,0.025,0,0.049,0,0.074c0,0.024,0.013,0.051,0.038,0.075
				c0.024,0.025,0.037,0.05,0.037,0.075c0.024,0,0.037,0.011,0.037,0.036c0.025,0.025,0.037,0.063,0.037,0.113
				c0.025,0.024,0.038,0.049,0.038,0.073c0.025,0.026,0.05,0.051,0.074,0.076c0,0.025,0.014,0.037,0.038,0.037
				c0,0.025,0,0.05,0,0.075s0.013,0.049,0.037,0.076c0,0.024,0,0.049,0,0.073c0.025,0.025,0.039,0.063,0.039,0.113
				c0.024,0,0.038,0.012,0.038,0.036c0,0.026,0.012,0.051,0.037,0.076c0,0.024,0,0.049,0,0.073c0.025,0.026,0.037,0.051,0.037,0.076
				s0.012,0.05,0.038,0.075l0.037,0.037c0.024,0.025,0.037,0.063,0.037,0.113c0,0.024,0.013,0.05,0.038,0.074
				c0,0.025,0,0.049,0,0.075c0,0.024,0.013,0.038,0.038,0.038c0,0.025,0,0.049,0,0.074c0.024,0.023,0.037,0.05,0.037,0.074
				c0.025,0.024,0.038,0.049,0.038,0.074c0,0.026,0.012,0.063,0.037,0.113l0.038,0.037c0,0.025,0.013,0.05,0.038,0.075
				c0,0.024,0.013,0.051,0.037,0.075c0.024,0.025,0.038,0.049,0.038,0.074c0.024,0.025,0.037,0.05,0.037,0.075v0.038
				c0,0.024,0,0.048,0,0.075c0.025,0.049,0.037,0.086,0.037,0.111c0.05,0.025,0.087,0.05,0.111,0.076
				c0.024,0.024,0.049,0.037,0.075,0.037c0,0.025,0,0.049,0,0.074c0.026,0.025,0.051,0.051,0.075,0.075c0,0.026,0,0.051,0,0.075
				c0.026,0.024,0.062,0.05,0.111,0.074c0.026,0.025,0.052,0.038,0.076,0.038c0.024,0.025,0.049,0.05,0.074,0.075
				c0,0.024,0.012,0.05,0.037,0.074c0.026,0.025,0.051,0.05,0.076,0.075c0,0.024,0,0.05,0,0.075s0,0.05,0,0.075
				c0,0.025,0,0.049,0,0.074c0,0.025,0,0.05,0,0.075c0,0.025,0,0.05,0,0.075s0,0.049,0,0.075c-0.025,0-0.039,0.012-0.039,0.038
				c-0.024,0.024-0.037,0.049-0.037,0.074c0.026,0,0.051,0,0.076,0c0,0.05,0.011,0.087,0.037,0.112c0,0.025,0.013,0.05,0.038,0.075
				l0.037,0.036c0,0.026,0,0.052,0,0.076c-0.024,0.025-0.05,0.051-0.074,0.075c0,0.025,0,0.05,0,0.075
				c-0.025,0.025-0.037,0.049-0.037,0.074c0,0.025-0.013,0.049-0.039,0.074c-0.024,0.025-0.049,0.049-0.074,0.074
				c0,0.026,0,0.05,0,0.075c-0.025,0.025-0.049,0.051-0.074,0.075c0,0.025-0.012,0.049-0.037,0.075
				c-0.025,0-0.051,0.012-0.076,0.038c0,0.024,0,0.05,0,0.073c0,0.05,0,0.088,0,0.113c-0.025,0.024-0.038,0.049-0.038,0.075v0.037
				c0,0.025-0.011,0.05-0.037,0.075c-0.024,0.025-0.049,0.037-0.075,0.037c-0.05,0.025-0.099,0.037-0.149,0.037
				c-0.024,0-0.049,0-0.074,0c-0.05,0-0.088,0-0.112,0c-0.598,0-1.206,0-1.829,0c-0.05-0.024-0.099-0.037-0.148-0.037
				c-0.026-0.024-0.05-0.049-0.076-0.075c-0.024-0.025-0.038-0.05-0.038-0.074c0-0.025,0-0.051,0-0.075c0-0.025,0-0.05,0-0.076
				c0-0.024,0-0.049,0-0.074v-0.037c0-0.026,0-0.051,0-0.076c0-0.024,0-0.049,0-0.074c0-0.024,0-0.049,0-0.074
				c0-0.026,0-0.051,0-0.075c0-0.025,0-0.05,0-0.075v-0.037c0-0.025,0-0.049,0-0.074c0-0.025,0-0.063,0-0.112
				c0-0.025,0-0.051,0-0.075v-0.039c0-0.024,0-0.048,0-0.073s0-0.049,0-0.074s0-0.05,0-0.075c0-0.024,0-0.05,0-0.074
				c0-0.025,0-0.05,0-0.076c0-0.024,0-0.049,0-0.073c0-0.026,0-0.05,0-0.076c0-0.024,0-0.051,0-0.074c0-0.025,0-0.05,0-0.075v-0.037
				c0-0.025,0.013-0.051,0.038-0.075c0.026-0.025,0.05-0.062,0.076-0.112c0-0.026,0-0.05,0-0.075c0-0.025,0-0.049,0-0.075
				c0.023-0.024,0.036-0.05,0.036-0.074l0.037-0.037c0.025,0,0.05-0.012,0.075-0.038c0.025,0,0.063-0.013,0.112-0.038
				c0.049,0,0.087-0.012,0.112-0.037h0.037l-0.037-0.037v-0.037c0-0.025,0-0.051,0-0.075s0-0.049,0-0.075
				c-0.025-0.024-0.037-0.049-0.037-0.073c-0.025-0.027-0.037-0.051-0.037-0.075c0-0.024,0-0.051,0-0.075
				c-0.025-0.024-0.038-0.05-0.038-0.075c-0.025-0.024-0.049-0.048-0.075-0.074c0-0.025-0.012-0.05-0.038-0.074
				c0-0.025-0.012-0.05-0.038-0.075c-0.024,0-0.049-0.012-0.074-0.038c0-0.024,0-0.049,0-0.075c0-0.025,0-0.05,0-0.074
				c0-0.051,0-0.086,0-0.113l-0.036-0.036c-0.026-0.025-0.039-0.05-0.039-0.075c-0.024-0.026-0.049-0.051-0.075-0.075
				c0-0.024,0-0.05,0-0.075c0-0.025,0-0.049,0-0.074l-0.037-0.037c-0.025-0.05-0.036-0.087-0.036-0.113
				c-0.026-0.024-0.038-0.049-0.038-0.074c-0.025-0.025-0.037-0.049-0.037-0.074c0-0.026-0.014-0.051-0.039-0.075v-0.038
				c0-0.025-0.013-0.05-0.037-0.075c0-0.024-0.012-0.049-0.037-0.073c-0.025-0.051-0.038-0.088-0.038-0.113l-0.037-0.037
				c-0.025-0.025-0.037-0.049-0.037-0.075c0-0.025,0-0.049,0-0.075c0-0.024-0.013-0.049-0.038-0.074c0-0.024-0.012-0.05-0.037-0.076
				c-0.025-0.024-0.052-0.036-0.075-0.036c0-0.05,0-0.087,0-0.113c0-0.025,0-0.05,0-0.075c0.023-0.024,0.037-0.049,0.037-0.074
				l0.038-0.038c-0.598,0-1.207,0.012-1.83,0.038c-0.049,0.024-0.112,0.05-0.186,0.074c-0.075,0-0.162,0-0.262,0
				c-0.049-0.024-0.087-0.037-0.112-0.037h-0.037c-0.026,0-0.062,0.013-0.112,0.037c-0.075-0.024-0.149-0.049-0.225-0.074
				c0-0.052-0.025-0.077-0.075-0.077c0-0.048,0-0.085,0-0.11c0-0.051,0-0.087,0-0.112c0-0.05,0-0.087,0-0.112
				c0-0.026,0-0.063,0-0.112c0-0.024,0-0.062,0-0.112c0-0.024,0-0.062,0-0.111v-0.075c0-0.025,0-0.062,0-0.112
				c0-0.049,0-0.087,0-0.112c0-0.025,0-0.05,0-0.075c0-0.048,0-0.086,0-0.112c0-0.05,0-0.086,0-0.11
				c0.024-0.051,0.037-0.088,0.037-0.114c0-0.024-0.013-0.061-0.037-0.11c0-0.025,0-0.063,0-0.113
				c0.024-0.024,0.05-0.049,0.075-0.074c0-0.025,0.013-0.049,0.039-0.074c0.049-0.025,0.098-0.062,0.148-0.112
				c0.05-0.024,0.1-0.049,0.149-0.074c0.199,0,0.386-0.013,0.56-0.038v-0.036c0-0.027,0-0.051,0-0.076c0-0.05,0-0.087,0-0.113
				c0-0.049,0-0.085,0-0.111c0-0.026,0-0.062,0-0.112c0-0.024,0-0.063,0-0.113c0.024-0.025,0.036-0.062,0.036-0.111
				c-0.175,0-0.372,0-0.596,0c-0.049-0.025-0.1-0.038-0.149-0.038c-0.05-0.024-0.1-0.063-0.148-0.111
				c0-0.025-0.014-0.037-0.039-0.037c0-0.05-0.025-0.089-0.075-0.114v-0.074c0-0.049,0-0.087,0-0.111c0-0.05,0-0.087,0-0.113
				c0-0.049,0-0.1,0-0.149v-0.075c0-0.024,0-0.062,0-0.111c0-0.025,0-0.062,0-0.112c0.024-0.025,0.05-0.05,0.075-0.075v-0.039
				c0-0.049-0.025-0.087-0.075-0.112c0-0.05,0-0.086,0-0.111c0-0.024,0-0.05,0-0.075c0-0.049,0-0.086,0-0.112
				c0.024-0.05,0.05-0.086,0.075-0.111c0-0.051,0.013-0.075,0.039-0.075c0.073,0,0.135,0,0.186,0v-0.038c0.074,0,0.161,0,0.26,0
				c0.1,0,0.187,0,0.262,0l-0.037-0.037c0-0.025,0-0.062,0-0.112c0-0.024,0-0.062,0-0.112c0-0.024,0-0.05,0-0.075
				c0-0.025,0-0.063,0-0.112c0-0.05,0-0.087,0-0.112v-0.075c0-0.049,0-0.087,0-0.111c0-0.051,0-0.086,0-0.112
				c0-0.049,0-0.086,0-0.111c0-0.026,0-0.062,0-0.113c0-0.024,0-0.063,0-0.112c0-0.025,0-0.062,0-0.111V18.21c0-0.05,0-0.086,0-0.11
				c0-0.051,0-0.089,0-0.114c0-0.024,0-0.049,0-0.074c0-0.049,0-0.088,0-0.112c0-0.05,0-0.087,0-0.112c0-0.049,0-0.087,0-0.112
				c0-0.025,0-0.062,0-0.112c0-0.024,0-0.062,0-0.112c0-0.025,0-0.049,0-0.074c0-0.025,0-0.05,0-0.075
				c-0.026,0.025-0.051,0.037-0.075,0.037c-0.1-0.024-0.187-0.05-0.262-0.075c-0.025-0.05-0.05-0.086-0.074-0.112v-0.037h-0.037
				c-0.05-0.05-0.088-0.074-0.112-0.074c-0.024-0.05-0.062-0.088-0.111-0.113c0-0.049,0-0.086,0-0.111c0-0.024,0-0.063,0-0.112
				h-0.039v-0.074c0-0.024,0-0.05,0-0.076c0-0.024,0-0.05,0-0.074c0-0.025,0-0.049,0-0.074v-0.075c0-0.024,0-0.05,0-0.074
				c0-0.025,0-0.05,0-0.076c0-0.024,0-0.05,0-0.074v-0.187c-0.025-0.049-0.05-0.087-0.075-0.112c0-0.024,0-0.05,0-0.075v-0.037
				c-7.787,0-15.573-0.012-23.359-0.038c-0.05-0.024-0.1-0.036-0.149-0.036l-0.037,0.036c0,0.026-0.013,0.063-0.039,0.112
				c-0.023,0.024-0.048,0.062-0.074,0.112c-0.049,0.025-0.086,0.061-0.111,0.111c-0.05,0.026-0.088,0.052-0.113,0.076
				c-0.024,0.024-0.049,0.061-0.074,0.11c-0.025,0.026-0.05,0.063-0.074,0.112c-0.025,0.05-0.05,0.075-0.076,0.075
				c-0.024,0.051-0.05,0.087-0.075,0.112c-0.025,0.05-0.048,0.086-0.074,0.112c-0.025,0.049-0.062,0.087-0.113,0.111
				c-0.023,0.024-0.061,0.062-0.111,0.112c0,0.025-0.012,0.063-0.038,0.111c-0.024,0.025-0.038,0.063-0.038,0.113
				c-0.024,0-0.049,0.024-0.074,0.074c-0.049,0.025-0.087,0.063-0.112,0.112c-0.05,0.049-0.087,0.087-0.112,0.111
				c-0.024,0.025-0.05,0.05-0.074,0.075c-0.024,0.05-0.051,0.087-0.075,0.112c-0.025,0.05-0.049,0.087-0.075,0.112l-0.036,0.074
				c-0.05,0.051-0.087,0.101-0.112,0.151c-0.025,0.024-0.05,0.061-0.074,0.111c-0.025,0.026-0.05,0.051-0.076,0.075
				c0,0.024-0.012,0.062-0.038,0.111c-0.024,0.026-0.063,0.063-0.111,0.112c-0.025,0.05-0.038,0.087-0.038,0.113
				c-0.024,0.025-0.049,0.049-0.075,0.075c-0.024,0.049-0.037,0.086-0.037,0.111c-0.049,0.051-0.087,0.088-0.111,0.112
				c-0.051,0.024-0.087,0.063-0.113,0.111c-0.024,0.025-0.049,0.063-0.075,0.112c-0.025,0.025-0.038,0.062-0.038,0.112
				c-0.025,0.025-0.05,0.05-0.074,0.075c-0.025,0.025-0.037,0.062-0.037,0.112c-0.05,0.024-0.087,0.062-0.113,0.111v0.075
				c-0.024,0.05-0.063,0.087-0.111,0.113c-0.024,0.049-0.051,0.087-0.076,0.111c-0.024,0.05-0.049,0.088-0.075,0.112
				c0,0.024-0.011,0.063-0.036,0.112c-0.025,0.024-0.05,0.062-0.075,0.111c-0.025,0.025-0.05,0.063-0.075,0.113
				c-0.024,0-0.049,0.026-0.075,0.075c-0.025,0.024-0.037,0.049-0.037,0.074c-0.523,0-1.056,0-1.604,0v0.038
				c-4.254,0-8.495,0-12.725,0c-0.101-0.025-0.199-0.05-0.298-0.075v0.075c-0.025,0-0.037,0.012-0.037,0.038V20.3h-0.038v0.076
				l-0.036,0.037v0.038c-0.025,0.024-0.063,0.036-0.114,0.036v0.038c0,0.025-0.012,0.037-0.037,0.037v0.112
				c-0.025,0-0.037,0.013-0.037,0.039v0.037c-0.025,0-0.039,0.013-0.039,0.037v0.113c0,0.024-0.011,0.037-0.037,0.037
				c0,0.025-0.013,0.038-0.038,0.038v0.037H28.36v0.15c-0.025,0-0.037,0.013-0.037,0.038v0.037c-0.025,0-0.038,0.012-0.038,0.036
				c-0.025,0-0.038,0.013-0.038,0.039v0.037h-0.037v0.038l-0.038,0.037v0.037c0,0.024-0.013,0.037-0.038,0.037v0.075
				c0,0.025-0.012,0.038-0.037,0.038l-0.038,0.037v0.075l-0.036,0.038h-0.039c0,0.048-0.012,0.099-0.036,0.148l-0.485,1.046
				l0.261,2.388c0.024,0.074,0,0.161-0.075,0.26c-0.075,0.075-0.149,0.113-0.225,0.113c-0.073,0-0.149-0.013-0.224-0.038
				c-0.024,0.024-0.049,0.049-0.075,0.073c-0.024,0.076-0.087,0.125-0.186,0.15l-1.717,0.261c-0.075,0.024-0.138,0.024-0.187,0
				l-2.536-1.006c-0.077-0.05-0.125-0.112-0.151-0.188c-0.024-0.025-0.048-0.049-0.073-0.075c-0.076-0.099-0.113-0.186-0.113-0.261
				l0.113-0.672c0-0.1,0.037-0.173,0.11-0.223c0.051-0.025,0.101-0.05,0.15-0.075v-0.785c0.025,0,0.037-0.012,0.037-0.037v-0.521
				c0.025,0,0.037-0.012,0.037-0.038v-0.038l0.039-0.037v-0.112c0.023-0.025,0.049-0.038,0.074-0.038v-0.036h0.037v-0.076
				l0.112-0.113v-0.073c0.025,0,0.038-0.012,0.038-0.038c0.025,0,0.037-0.013,0.037-0.037h0.075v-0.038l0.038-0.037v-0.076
				l0.037-0.037V21.42c0.024,0,0.05-0.013,0.075-0.037l0.036-0.038v-0.037c0.025,0,0.039-0.013,0.039-0.039l0.037-0.036v-0.037
				l0.037-0.038h0.038c0-0.025,0.012-0.038,0.036-0.038v-0.149l0.039-0.038v-0.037l0.037-0.038v-0.038
				c0.025,0,0.038-0.012,0.038-0.038l0.037-0.037v-0.037c0.024,0,0.037-0.012,0.037-0.039c0.024,0,0.051-0.012,0.075-0.037
				l0.075-0.075v-0.037l0.037-0.038v-0.074c0.025,0,0.051-0.012,0.077-0.037l0.036-0.038V20.3c0.025,0,0.038-0.012,0.038-0.037
				l0.037-0.039v-0.074c0-0.025,0.013-0.038,0.038-0.038l0.074-0.074v-0.113c0.024,0,0.038-0.011,0.038-0.037l0.037-0.038v-0.037
				c0.024,0,0.037-0.012,0.037-0.037l0.037-0.038v-0.037l0.039-0.038v-0.037h0.037v-0.075c0-0.025,0.013-0.038,0.037-0.038
				c0-0.024,0.013-0.037,0.037-0.037v-0.038l0.038-0.036v-0.113c0.024,0,0.037-0.013,0.037-0.038V19.18l0.038-0.037v-0.037
				c0.024-0.025,0.049-0.038,0.075-0.038l0.037-0.038v-0.037l0.038-0.038V18.92l0.037-0.038v-0.074c0.026,0,0.038-0.013,0.038-0.037
				l0.038-0.038v-0.261l-0.076-0.075v-0.149c-0.024,0-0.037-0.013-0.037-0.038V18.1l-0.038-0.039v-0.038l-0.037-0.037v-0.112
				L24.479,17.8V17.39l-0.038-0.037c-0.05,0-0.099,0-0.149,0c-0.472,0-0.946,0-1.418,0c0-0.025-0.012-0.037-0.038-0.037v-0.037
				c-0.074,0-0.162,0-0.261,0c-0.073-0.025-0.137-0.038-0.188-0.038v-0.187h-0.037v-0.335h-0.036c0,0.049,0,0.099,0,0.148
				c0,0.026,0,0.051,0,0.076v0.037c0,0.024,0,0.062,0,0.112c0,0.049,0,0.086,0,0.112v0.037c-0.199,0-0.398,0-0.597,0v0.038h-0.037
				v0.037h-0.037l-0.038,0.037c-0.024,0-0.038,0.013-0.038,0.037h-0.037c-0.024,0.025-0.05,0.038-0.074,0.038v0.037l-0.038,0.038
				c0,0.024-0.013,0.037-0.037,0.037v0.074h-0.038c0,0.026-0.013,0.039-0.037,0.039v0.037c-0.025,0.05-0.05,0.099-0.075,0.148
				l-0.037,0.038v0.038c-0.025,0-0.05,0-0.075,0v0.074c0,0.025,0,0.063,0,0.114c0,0.049,0,0.086,0,0.11v0.038
				c-0.024,0-0.05,0-0.075,0v0.038c0.025,0.1,0.025,0.199,0,0.298l-0.447,0.596c-0.075,0.075-0.149,0.113-0.224,0.113
				c-0.101,0.025-0.187,0.025-0.262,0c-0.074-0.075-0.111-0.149-0.111-0.224l-1.231,0.074c-0.075,0-0.149-0.024-0.224-0.074
				c-0.125,0.024-0.236,0.062-0.336,0.111c-0.05,0.026-0.086,0.05-0.111,0.075c-0.026,0-0.05,0-0.076,0c0,0.025,0,0.063,0,0.111
				c-0.025,0.1-0.086,0.163-0.185,0.188l-9.329,3.917c-0.101,0.051-0.188,0.051-0.263,0c-0.05-0.024-0.086-0.049-0.111-0.074
				c-0.125,0-0.237,0-0.337,0s-0.186,0-0.262,0c0,0.05,0,0.1,0,0.149c0,0.024,0,0.062,0,0.112c0,0.024,0,0.062,0,0.111
				c0,0.05,0,0.099,0,0.15c0,0.05,0,0.086,0,0.11c0,0.025,0,0.063,0,0.113c0,0.049,0,0.098,0,0.149c0,0.05,0,0.086,0,0.111
				c0,0.051,0,0.101,0,0.15c0,0.025,0,0.063,0,0.112c0,0.025,0,0.062,0,0.112c0,0.049,0,0.1,0,0.149c0,0.05,0,0.087,0,0.113v0.036
				c0.052,0,0.113,0.039,0.188,0.112c0.074,0.074,0.112,0.15,0.112,0.224v0.374c0,0.099-0.038,0.187-0.112,0.261
				C7.65,26.097,7.576,26.122,7.5,26.122l-0.039,0.037c-0.073,0.075-0.161,0.112-0.26,0.112H5.448c-0.074,0-0.138-0.024-0.187-0.074
				c-0.025,0.026-0.05,0.038-0.075,0.038c-0.024,0-0.074,0.012-0.148,0.037c-0.05,0-0.1,0-0.149,0
				c-0.074-0.024-0.15-0.048-0.225-0.074c-0.049-0.05-0.1-0.087-0.149-0.112c0-0.023-0.013-0.048-0.038-0.075
				c0-0.049,0-0.087,0-0.111c0-0.05,0-0.088,0-0.112c0-0.025,0-0.049,0-0.074c-1.121,0-2.251,0.025-3.395,0.074
				c-0.076,0.023-0.15,0.05-0.225,0.074c-0.075,0-0.162,0-0.261,0c-0.075-0.024-0.162-0.051-0.262-0.074
				c-0.025-0.049-0.063-0.087-0.112-0.112c-0.024-0.026-0.049-0.063-0.075-0.112c0-0.024,0-0.05,0-0.075
				c0-0.025-0.025-0.063-0.075-0.111c-0.024,0-0.049-0.025-0.074-0.075c0-0.05,0-0.087,0-0.112c0-0.049,0-0.086,0-0.112
				c0-0.024,0-0.05,0-0.074c0-0.05,0-0.086,0-0.112c0-0.049,0-0.086,0-0.111c0-0.05,0-0.087,0-0.112s0-0.063,0-0.112
				c0-0.024,0-0.062,0-0.112c0-0.025,0-0.05,0-0.074c0-0.025,0-0.063,0-0.113c0-0.05,0-0.087,0-0.112c0-0.05,0-0.088,0-0.113
				c0-0.024,0-0.048,0-0.074c0-0.049,0-0.088,0-0.112c0-0.049,0-0.087,0-0.111c0-0.025,0-0.063,0-0.113c0-0.024,0-0.062,0-0.111
				c0-0.025,0-0.063,0-0.112c0-0.025,0-0.05,0-0.075c0-0.024,0-0.063,0-0.112s0-0.086,0-0.111v-0.075c0-0.05,0-0.086,0-0.112
				c0-0.05,0-0.088,0-0.112c0-0.05,0-0.088,0-0.113c0-0.024,0-0.061,0-0.11c0-0.026,0-0.063,0-0.113c0-0.025,0-0.062,0-0.112v-0.074
				c0-0.025,0-0.062,0-0.112c0-0.049,0-0.087,0-0.112c0-0.024,0-0.05,0-0.075c0-0.049,0-0.087,0-0.111c0-0.049,0-0.087,0-0.111
				c0-0.051,0-0.088,0-0.113s0-0.061,0-0.113c0-0.024,0-0.062,0-0.111c0-0.024,0-0.05,0-0.075c0-0.024,0-0.063,0-0.111
				c0-0.05,0-0.087,0-0.112c0-0.05,0-0.087,0-0.113c0-0.024,0-0.049,0-0.074c0-0.049,0-0.087,0-0.112c0-0.05,0-0.087,0-0.111
				c0-0.05,0-0.088,0-0.113c0-0.025,0-0.062,0-0.112c0-0.024,0-0.061,0-0.11c0-0.026,0-0.051,0-0.076c0-0.025,0-0.062,0-0.111
				c0-0.051,0-0.088,0-0.112c0-0.049,0-0.086,0-0.112c0-0.025,0-0.049,0-0.075c0-0.049,0-0.087,0-0.112c0-0.05,0-0.099,0-0.149
				v-0.075c0-0.025,0-0.062,0-0.112c0-0.024,0-0.062,0-0.112c0-0.024,0-0.05,0-0.075c0-0.025,0-0.063,0-0.112
				c0-0.05,0-0.087,0-0.112v-0.075c0-0.049,0-0.087,0-0.111c0-0.051,0-0.086,0-0.112c0-0.049,0-0.086,0-0.111
				c0-0.026,0-0.062,0-0.113c0-0.024,0-0.063,0-0.112c0-0.025,0-0.062,0-0.111V18.21c0-0.05,0-0.086,0-0.11c0-0.051,0-0.089,0-0.114
				c0-0.024,0-0.049,0-0.074c0-0.049,0-0.088,0-0.112c0-0.05,0-0.087,0-0.112c0-0.049,0-0.087,0-0.112c0-0.025,0-0.062,0-0.112
				c0-0.024,0-0.062,0-0.112c0-0.025,0-0.049,0-0.074c0-0.025,0-0.063,0-0.113c0-0.05,0-0.086,0-0.112c0-0.049,0-0.086,0-0.11
				c0-0.025,0-0.05,0-0.076c0-0.05,0-0.086,0-0.111c0-0.049,0-0.1,0-0.149v-0.074c0-0.024,0-0.064,0-0.113c0-0.025,0-0.062,0-0.111
				c0-0.026,0-0.051,0-0.075s0-0.062,0-0.112c0-0.05,0-0.088,0-0.112v-0.075c0-0.049,0-0.087,0-0.112c0-0.049,0-0.087,0-0.112
				c0-0.05,0-0.087,0-0.112s0-0.062,0-0.111c0-0.026,0-0.063,0-0.113c0-0.024,0-0.062,0-0.112v-0.074c0-0.024,0-0.062,0-0.113
				c0-0.048,0-0.087,0-0.111c0-0.026,0-0.051,0-0.075c0-0.05,0-0.087,0-0.113c0-0.049,0-0.087,0-0.111c0-0.05,0-0.087,0-0.113
				c0-0.025,0-0.062,0-0.111c0-0.025,0-0.062,0-0.111c0-0.024,0-0.05,0-0.076c0-0.024,0-0.062,0-0.111c0-0.05,0-0.089,0-0.113
				c0.025-0.049,0.049-0.086,0.074-0.112c0.05-0.024,0.075-0.05,0.075-0.075c0.1-0.025,0.187-0.037,0.261-0.037v-0.037
				c0.05,0.024,0.125,0.049,0.225,0.074c0.025-0.025,0.05-0.037,0.074-0.037c0.049,0,0.099,0,0.149,0v-0.037c1.168,0,2.324,0,3.47,0
				c0.025,0,0.062,0.012,0.112,0.037c0.024-0.049,0.049-0.087,0.075-0.112c0.075-0.026,0.162-0.038,0.261-0.038v-0.037
				c0.05,0.024,0.113,0.048,0.187,0.075c0.598,0.025,1.181,0.05,1.754,0.075c0-0.024,0-0.05,0-0.075v-0.038
				c-0.025-0.025-0.063-0.049-0.112-0.074c-0.025-0.025-0.05-0.063-0.074-0.112c-0.025-0.024-0.063-0.062-0.112-0.112
				c-0.025-0.024-0.063-0.062-0.112-0.111l-0.037-0.075c0-0.025,0-0.062,0-0.112s0-0.087,0-0.112s0-0.05,0-0.074
				c0-0.05,0-0.087,0-0.112c0-0.05,0-0.087,0-0.113c0.024-0.049,0.049-0.086,0.074-0.111c0.025-0.025,0.05-0.062,0.075-0.112
				c0-0.024,0-0.063,0-0.112c0-0.025,0-0.062,0-0.112v-0.074c0-0.05,0-0.087,0-0.113c0-0.049,0-0.087,0-0.111
				c0-0.025,0-0.05,0-0.076c0.025-0.05,0.05-0.087,0.074-0.111c0.025-0.05,0.05-0.087,0.075-0.112h0.038
				c0.024-0.05,0.049-0.074,0.074-0.074c0.025-0.025,0.05-0.051,0.075-0.076c0.024,0,0.05-0.012,0.074-0.038
				c0.025,0,0.075,0,0.148,0v-0.037c3.782,0,7.576,0,11.382,0c0.074,0.025,0.149,0.05,0.224,0.074
				c0.049,0.051,0.086,0.076,0.111,0.076c0,0.048,0.013,0.099,0.037,0.149c0.025,0.025,0.05,0.061,0.075,0.11l0.038,0.038
				c0,0.026,0.012,0.05,0.037,0.076c0.025,0.024,0.049,0.062,0.075,0.111c0,0.025,0,0.063,0,0.113l-0.038,0.074
				c-0.025,0.051-0.049,0.087-0.074,0.112c0,0.025,0,0.049,0,0.075s0,0.063,0,0.112v0.037c0,0.05,0,0.086,0,0.111
				c0,0.05,0,0.088,0,0.113s0,0.063,0,0.112c0,0.024,0,0.049,0,0.074s0,0.049,0,0.075c0,0.049,0,0.086,0,0.11
				c0,0.05,0,0.088,0,0.113s0,0.049,0,0.075c0,0.024,0,0.062,0,0.112c0,0.025,0,0.062,0,0.112v0.038c0,0.049,0,0.085,0,0.112
				c0,0.05,0,0.087,0,0.112c0,0.024,0,0.062,0,0.112h-0.038v0.038c-0.05,0.025-0.087,0.062-0.112,0.111c0,0.052,0,0.088,0,0.113
				c-0.025,0.049-0.062,0.074-0.111,0.074c-0.025,0.025-0.051,0.051-0.075,0.076v0.037c0,0.049,0,0.086,0,0.111l0.038,0.037v0.038
				c0.622,0,1.23,0.014,1.829,0.038v-0.038c0.024,0,0.049,0,0.075,0v-0.038c0.099-0.024,0.187-0.048,0.261-0.074
				c0.075,0.025,0.15,0.049,0.225,0.074c0.098,0,0.21,0,0.334,0c0.175-0.024,0.35-0.037,0.523-0.037
				c0.125,0,0.236-0.012,0.336-0.037c0.024,0,0.049,0,0.074,0c0.05,0,0.087-0.013,0.113-0.037c0.024,0,0.036-0.012,0.036-0.037
				c0.05,0,0.113,0,0.188,0c0-0.026,0.012-0.037,0.037-0.037c0.025-0.024,0.063-0.038,0.112-0.038c0.025,0,0.037-0.012,0.037-0.038
				c0.024,0,0.062,0,0.111,0c0.026,0,0.038-0.012,0.038-0.037c0.05,0,0.087,0,0.113,0c0-0.024,0.013-0.037,0.037-0.037
				c0.024,0,0.05-0.012,0.075-0.037c0.024,0,0.05,0,0.075,0h0.036c0.025,0,0.039-0.013,0.039-0.038c0.025,0,0.049,0,0.074,0
				s0.038-0.012,0.038-0.038h0.036v-0.037c0.026,0,0.051,0,0.076,0c0-0.025,0.013-0.038,0.038-0.038
				c0.025-0.024,0.062-0.037,0.112-0.037c0.05,0,0.087-0.012,0.112-0.038h0.037l0.038-0.037c0.025,0,0.039-0.014,0.039-0.038h0.036
				c0.049-0.025,0.087-0.037,0.112-0.037c0.024,0,0.05-0.013,0.074-0.037h0.038l0.037-0.038h0.037c0.025,0,0.037-0.012,0.037-0.037
				c0.026,0,0.051,0,0.076,0v-0.038c0.025-0.025,0.05-0.037,0.074-0.037c0.025,0,0.038-0.013,0.038-0.037h0.037
				c0.025,0,0.05-0.013,0.075-0.038h0.038c0-0.025,0.012-0.038,0.037-0.038c0.051-0.024,0.101-0.037,0.15-0.037l0.037-0.037h0.075
				c0.025-0.024,0.062-0.037,0.111-0.037L25,13.359h0.039l0.038-0.037c0.024-0.025,0.049-0.037,0.074-0.037
				c0.05,0,0.088-0.013,0.113-0.038c0.023,0,0.062,0,0.112,0c0.025,0,0.038-0.013,0.038-0.038l0.036-0.038
				c0-0.025,0.013-0.038,0.038-0.038c0.05,0,0.088-0.011,0.113-0.036c0.024,0,0.048-0.013,0.074-0.038
				c0.025,0,0.037-0.012,0.037-0.037c0.025,0,0.051,0,0.075,0v-0.037c0.025-0.025,0.05-0.038,0.075-0.038s0.038-0.012,0.038-0.037
				c0.05,0,0.087,0,0.111,0c0.026,0,0.038-0.013,0.038-0.038l0.075-0.075c0.049,0,0.099-0.012,0.149-0.037
				c0.024,0,0.049-0.013,0.073-0.037c0.025,0,0.039-0.013,0.039-0.037h0.038c0-0.026,0.012-0.039,0.038-0.039
				c0-0.024,0.012-0.036,0.036-0.036c0.025,0,0.05-0.013,0.075-0.038c0.05,0,0.1-0.012,0.149-0.037h0.075v-0.037l0.037-0.039
				c0.051,0,0.088-0.011,0.113-0.036c0.024,0,0.049-0.012,0.074-0.038c0.025,0,0.037-0.013,0.037-0.037h0.039
				c0-0.025,0.012-0.038,0.036-0.038v-0.038c0.025,0,0.038-0.012,0.038-0.036c0.025,0,0.049-0.013,0.075-0.038h0.037
				c0.026,0,0.037-0.012,0.037-0.038c0.025,0,0.039-0.012,0.039-0.036c0.024,0,0.049-0.013,0.073-0.038h0.039
				c0-0.024,0.012-0.037,0.037-0.037s0.038-0.013,0.038-0.039l0.037-0.038v-0.037h0.037l0.038-0.037c0.025,0,0.049,0,0.075,0
				c0-0.025,0.012-0.037,0.037-0.037c0-0.025,0.012-0.039,0.037-0.039c0-0.024,0.014-0.038,0.038-0.038
				c0.025,0,0.049-0.012,0.075-0.037c0.024,0,0.049-0.013,0.073-0.037l0.039-0.037c0.024,0,0.049,0,0.074,0l0.037-0.038
				c0-0.025,0.025-0.063,0.075-0.111c0.024,0,0.049,0,0.074,0c0.026,0,0.063-0.013,0.111-0.038c0.024-0.026,0.05-0.063,0.075-0.113
				c0-0.024,0.013-0.049,0.039-0.075c0.024,0,0.049-0.012,0.073-0.037c0.025,0,0.05,0,0.076,0v-0.038h0.038c0.023,0,0.048,0,0.074,0
				v-0.037h0.037v-0.038h0.037c0.026-0.024,0.05-0.037,0.074-0.037c0.026,0,0.051-0.012,0.076-0.037h0.037c0.05,0,0.101,0,0.149,0
				c0.025,0,0.051-0.013,0.075-0.037c0.124-0.051,0.224-0.089,0.299-0.113c0.049-0.024,0.1-0.049,0.149-0.074
				c0.074,0,0.123,0,0.149,0c0.597-0.026,1.169-0.05,1.717-0.075c0.075-0.025,0.148-0.038,0.224-0.038
				c0-0.024,0.012-0.049,0.038-0.074c0-0.051,0-0.101,0-0.149c-1.568,0-3.148,0-4.739,0v-0.037c-0.026,0-0.051-0.012-0.076-0.038
				c-0.024,0-0.049,0-0.074,0c-0.225,0-0.437,0-0.635,0c-0.373,0-0.771,0-1.193,0v-0.037c-0.026,0-0.05-0.013-0.075-0.037v-0.038
				c-0.05,0-0.113-0.012-0.186-0.037c-0.025-0.024-0.05-0.051-0.075-0.075v-0.038c0-0.025,0-0.062,0-0.112c0-0.026,0-0.05,0-0.075
				c0-0.025,0-0.05,0-0.074c0-0.026,0-0.05,0-0.076V9.814c0-0.024,0-0.049,0-0.074c0-0.025,0-0.051,0-0.075c0-0.025,0-0.063,0-0.112
				V9.517c0-0.025,0-0.051,0-0.075c0-0.025,0-0.05,0-0.074c0-0.025,0-0.049,0-0.074c0-0.026,0-0.052,0-0.076V9.18
				c0-0.024,0-0.061,0-0.111c0-0.025,0-0.05,0-0.075c0-0.024,0-0.049,0-0.074c0-0.025,0-0.05,0-0.076V8.808c0-0.025,0-0.051,0-0.075
				c0-0.025,0-0.05,0-0.076c0-0.024,0-0.061,0-0.112V8.51c0-0.025,0-0.051,0-0.075c0-0.026,0-0.051,0-0.076c0-0.024,0-0.049,0-0.075
				c0-0.025-0.014-0.049-0.037-0.074V7.799c0.023,0,0.037-0.012,0.037-0.037c0-0.05,0-0.087,0-0.112c0-0.049,0-0.1,0-0.15V7.427
				c0-0.025,0.012-0.063,0.036-0.113c0.051-0.025,0.087-0.05,0.112-0.075c0.05,0,0.101,0,0.151,0V7.202c0.024,0,0.049,0,0.074,0
				V7.166h0.036c0-0.025,0.014-0.05,0.039-0.075c0.025-0.025,0.05-0.05,0.074-0.075c0-0.024,0.013-0.037,0.038-0.037
				c0.049,0,0.086,0,0.111,0V6.941c0.92,0,1.842,0,2.763,0V6.905c0-0.026,0-0.051,0-0.075V6.792c0-0.024,0-0.05,0-0.075
				c0-0.024,0-0.049,0-0.076c0-0.024,0-0.062,0-0.111V6.494c0-0.024,0-0.049,0-0.076c0-0.023,0-0.049,0-0.074s0-0.05,0-0.073
				c0-0.026,0-0.051,0-0.076V6.157c0-0.025,0-0.062,0-0.111c0-0.024,0-0.05,0-0.074c0-0.026,0-0.05,0-0.075
				c-0.026-0.024-0.038-0.05-0.038-0.074c-0.025,0-0.038-0.013-0.038-0.038c0-0.026,0-0.05,0-0.075c0-0.024,0-0.049,0-0.074
				s0-0.063,0-0.112V5.487c0-0.025,0-0.05,0-0.075c0-0.025,0-0.05,0-0.074c0-0.025,0.012-0.05,0.038-0.075
				c0.024-0.025,0.038-0.05,0.038-0.075V5.15c0.024-0.025,0.049-0.049,0.074-0.074l0.038-0.038C28.348,5.014,28.373,5,28.396,5
				c0.024,0,0.05,0,0.075,0V4.964c0.721,0,1.431,0,2.127,0C30.624,4.989,30.648,5,30.673,5h0.038V4.964
				c0.049,0.025,0.086,0.05,0.112,0.074c0.025,0.026,0.049,0.05,0.074,0.075c0.025,0.025,0.049,0.038,0.074,0.038
				c0,0.025,0.012,0.049,0.037,0.074c0,0.025,0,0.05,0,0.076c0,0.024,0,0.05,0,0.074c0,0.05,0,0.087,0,0.113v0.037
				c0,0.025,0,0.049,0,0.075c0,0.025,0,0.049,0,0.074s0,0.05,0,0.075c0,0.024,0,0.05,0,0.075v0.037c0,0.05,0,0.086,0,0.112
				c0,0.024,0,0.05,0,0.074c0,0.025,0,0.05,0,0.075v0.037c0,0.025,0,0.051,0,0.076s0,0.05,0,0.075c0,0.024,0,0.049,0,0.074
				c0,0.049,0,0.087,0,0.112v0.038c0,0.025,0,0.049,0,0.074c0,0.025,0,0.05,0,0.075s0,0.05,0,0.074s0,0.05,0,0.075v0.038
				c0,0.025,0,0.048,0,0.074c2.141,0,4.255,0,6.345,0V6.905c0-0.026,0-0.051,0-0.075V6.792c0-0.024,0-0.05,0-0.075
				c0-0.024,0-0.049,0-0.076c0-0.024,0-0.062,0-0.111V6.494c0-0.024,0-0.049,0-0.076c0-0.023,0-0.049,0-0.074s0-0.05,0-0.073
				c0-0.026,0-0.051,0-0.076V6.157c0-0.025,0-0.062,0-0.111c0-0.024,0-0.05,0-0.074c0-0.026,0-0.05,0-0.075c0-0.024,0-0.05,0-0.074
				V5.785c0-0.026,0-0.05,0-0.075c0-0.024,0-0.049,0-0.074s0-0.063,0-0.112V5.487c0-0.025,0-0.05,0-0.075c0-0.025,0-0.05,0-0.074
				c0-0.025,0-0.05,0-0.075s0-0.05,0-0.075V5.15c0-0.025,0-0.049,0-0.074c0-0.051,0-0.087,0-0.112c0-0.024,0-0.049,0-0.075
				c0-0.025,0-0.05,0-0.075V4.777c0-0.024,0-0.05,0-0.074c0-0.024,0-0.049,0-0.075s0-0.049,0-0.075V4.479c0-0.025,0-0.05,0-0.076
				c0-0.024,0.012-0.05,0.037-0.075c0.024-0.025,0.049-0.049,0.075-0.074C37.465,4.229,37.478,4.205,37.502,4.18z M71.646,18.1
				c0-0.027,0-0.051,0-0.077c0-0.024-0.012-0.05-0.038-0.074c0,0.024,0,0.05,0,0.074c0,0.025,0,0.063,0,0.113L71.646,18.1z
				 M31.046,17.576c0,0.025,0,0.063,0,0.112c0,0.025,0,0.062,0,0.112c0,0.024,0,0.063,0,0.112c0,0.025,0,0.049,0,0.074
				c0,0.025,0,0.063,0,0.114c0,0.024,0,0.049,0,0.073v0.038c0.05,0.024,0.1,0.05,0.149,0.075c0.025,0.025,0.05,0.049,0.076,0.075
				c0,0.049,0.012,0.086,0.037,0.111c0,0.024,0,0.063,0,0.112c0.123-0.024,0.236-0.037,0.335-0.037c0.073,0,0.136-0.013,0.187-0.038
				v-0.037c0.049,0,0.111,0,0.186,0c0.074-0.025,0.149-0.05,0.224-0.075c0.075-0.025,0.149-0.062,0.225-0.111
				c0.025,0,0.05-0.025,0.074-0.075c0.025-0.024,0.051-0.05,0.076-0.074l0.037-0.036c0.05-0.027,0.1-0.051,0.149-0.077
				c0.025-0.05,0.05-0.074,0.074-0.074c0.025-0.049,0.062-0.086,0.113-0.113c0.024-0.049,0.063-0.086,0.111-0.111
				c0-0.05,0.012-0.087,0.038-0.113c0-0.025,0.013-0.062,0.038-0.11c0.024-0.025,0.037-0.063,0.037-0.113
				c0-0.024,0.012-0.062,0.037-0.111v-0.075c0-0.05,0.012-0.088,0.037-0.112c-0.747,0.024-1.48,0.037-2.201,0.037l-0.038,0.037
				c0,0.05,0,0.087,0,0.113c0,0.025,0,0.049,0,0.074c0,0.05,0,0.087,0,0.112C31.046,17.515,31.046,17.551,31.046,17.576z
				 M29.927,18.584c-0.075-0.024-0.125-0.062-0.15-0.112c-0.024-0.025-0.061-0.063-0.111-0.111c-0.026-0.025-0.05-0.05-0.075-0.075
				c0-0.025,0-0.063,0-0.113c0-0.049,0-0.086,0-0.112c0-0.05,0-0.087,0-0.111c0-0.024,0-0.049,0-0.075c0-0.05,0-0.087,0-0.111
				c0-0.05,0-0.1,0-0.151v-0.074c0-0.024,0-0.062,0-0.112c0-0.025,0-0.062,0-0.112c0-0.025,0-0.05,0-0.075
				c-0.025,0-0.062,0.013-0.111,0.038c0,0.025-0.014,0.049-0.039,0.074c0,0.025-0.012,0.05-0.037,0.075l-0.037,0.037
				c-0.025,0.025-0.062,0.038-0.112,0.038l-0.037,0.037c-0.05,0.049-0.075,0.087-0.075,0.112c-0.049,0.024-0.087,0.062-0.112,0.112
				c0,0.048,0,0.1,0,0.149c0,0.025,0,0.061,0,0.111s0,0.101,0,0.149c0,0.026,0,0.05,0,0.075c0.05,0,0.087,0.012,0.112,0.038
				c0.025,0.025,0.062,0.049,0.112,0.075c0.025,0.049,0.05,0.086,0.075,0.111c0,0.051,0.012,0.088,0.037,0.112v0.038
				c0.199,0,0.386,0,0.56,0V18.584z M23.919,16.905c0.099,0,0.211,0,0.336,0c0.024,0,0.062,0,0.111,0v-0.039
				c-0.074,0-0.137,0-0.187,0c-0.074,0-0.161,0-0.26,0V16.905z M25,17.353v-0.037c-0.049,0-0.085,0-0.11,0v0.037
				C24.939,17.353,24.976,17.353,25,17.353z M9.142,19.33c0,0.024-0.012,0.037-0.037,0.037c0,0.025-0.012,0.039-0.037,0.039v0.074
				c0,0.025,0,0.049,0,0.074v0.075c0,0.024,0,0.05,0,0.075v0.075c0,0.024,0,0.05,0,0.074c0,0.025,0,0.05,0,0.075v0.075
				c0,0.025,0,0.05,0,0.075c0,0.024,0,0.05,0,0.075v0.038c0,0.024,0,0.049,0,0.075V20.3c0,0.025,0,0.05,0,0.076v0.037
				c0.049,0,0.099,0,0.149,0c0.05,0.025,0.099,0.049,0.15,0.074c0.174,0.025,0.36,0.051,0.559,0.075
				c0.024,0.025,0.075,0.051,0.148,0.075l0.037-0.075h0.038c0.024,0,0.05-0.012,0.076-0.037h0.037c0-0.025,0.013-0.038,0.037-0.038
				c0.025-0.024,0.05-0.036,0.074-0.036c0-0.025,0.013-0.038,0.038-0.038v-0.037c0.024,0,0.037-0.013,0.037-0.038
				c0.049,0,0.099-0.013,0.148-0.038h0.039c0-0.025,0.012-0.037,0.037-0.037h0.038c0.024,0,0.049,0,0.074,0l0.039-0.039h0.036
				c0.026,0,0.038-0.012,0.038-0.036c0.025,0,0.037-0.013,0.037-0.038v-0.038h0.037c0-0.025,0.013-0.037,0.038-0.037h0.038
				c0.025,0,0.05,0,0.075,0c0.025-0.025,0.062-0.037,0.112-0.037c0.026,0,0.049-0.012,0.075-0.038c0.048,0,0.1-0.011,0.148-0.037
				h0.037c0.024-0.025,0.05-0.038,0.075-0.038c0.026,0,0.039-0.011,0.039-0.037c0.048,0,0.086,0,0.109,0c0-0.025,0-0.049,0-0.075
				c0.026-0.05,0.052-0.086,0.077-0.111c0.024-0.051,0.049-0.087,0.074-0.112c0-0.024,0-0.062,0-0.111c0-0.025,0-0.063,0-0.113
				c0-0.024,0-0.049,0-0.074v-0.038c-0.896,0-1.792,0-2.688,0v0.038C9.179,19.318,9.167,19.33,9.142,19.33z M5.448,25.599
				c-0.049,0-0.088,0-0.112,0l0.038,0.038C5.398,25.611,5.422,25.6,5.448,25.599z M22.874,24.554h0.038l-0.038-0.037V24.554z"/>
</svg>
