<?xml version="1.0"?>
<svg xmlns="http://www.w3.org/2000/svg" viewBox="0 0 500 200" fill="none">
  <path stroke="currentColor" d="M104 151C226.41 147.754 164.278 117 287.692 117" stroke-width="3"/>
  <path stroke="currentColor" d="M307 116V118H300V116H307Z" stroke-width="2"/>
  <rect stroke="currentColor" x="286.192" y="119.5" width="5" height="14.0769" transform="rotate(-90 286.192 119.5)" stroke-width="3"/>
  <circle stroke="currentColor" fill="currentColor" cx="92" cy="62" r="1.5" stroke-width="3"/>
  <rect stroke="currentColor" x="34.5" y="50.5" width="68" height="113" stroke-width="3"/>
  <line stroke="currentColor" x1="43" y1="72.5" x2="95" y2="72.5" stroke-width="3"/>
  <line stroke="currentColor" x1="43" y1="81.5" x2="95" y2="81.5" stroke-width="3"/>
  <line stroke="currentColor" x1="43" y1="90.5" x2="95" y2="90.5" stroke-width="3"/>
  <path fill="currentColor" d="M337.707 117.707C338.098 117.317 338.098 116.683 337.707 116.293L331.343 109.929C330.953 109.538 330.319 109.538 329.929 109.929C329.538 110.319 329.538 110.953 329.929 111.343L335.586 117L329.929 122.657C329.538 123.047 329.538 123.681 329.929 124.071C330.319 124.462 330.953 124.462 331.343 124.071L337.707 117.707ZM318 117V118H337V117V116H318V117Z"/>
  <path stroke="currentColor" d="M354.565 111.413C353.451 111.61 352.337 111.807 351.223 112.001" stroke-width="1.18025" stroke-linecap="round" stroke-linejoin="round"/>
  <path stroke="currentColor" d="M354.791 128.038C354.965 128.038 355.143 128.045 355.317 128.049" stroke-width="1.18025" stroke-linecap="round" stroke-linejoin="round"/>
  <path stroke="currentColor" d="M354.78 128.038L354.789 128.038" stroke-width="1.18025" stroke-linecap="round" stroke-linejoin="round"/>
  <path stroke="currentColor" d="M349.003 114.554C348.996 115.007 348.992 115.463 349.003 115.916C349.011 116.361 349.031 116.802 349.054 117.247C349.104 118.09 349.193 118.934 349.317 119.773C349.572 121.484 349.994 123.167 350.543 124.803" stroke-width="2.36049" stroke-linecap="round" stroke-linejoin="round"/>
  <path stroke="currentColor" d="M352.214 127.357C352.284 127.415 352.357 127.465 352.434 127.516C352.512 127.566 352.589 127.608 352.67 127.651C352.848 127.74 353.034 127.802 353.224 127.856C353.719 127.988 354.237 128.026 354.748 128.038" stroke-width="2.36049" stroke-linecap="round" stroke-linejoin="round"/>
  <path stroke="currentColor" d="M351.212 112.004C351.061 112.031 350.914 112.07 350.775 112.124C350.628 112.179 350.485 112.248 350.345 112.326C350.075 112.48 349.827 112.681 349.622 112.917C349.429 113.142 349.27 113.401 349.165 113.68C349.061 113.958 349.007 114.256 349.003 114.554" stroke-width="2.36049" stroke-linecap="round" stroke-linejoin="round"/>
  <path stroke="currentColor" d="M351.204 126.211C351.483 126.652 351.808 127.02 352.21 127.353" stroke-width="2.36049" stroke-linecap="round" stroke-linejoin="round"/>
  <path stroke="currentColor" d="M350.543 124.803C350.705 125.302 350.922 125.767 351.205 126.212" stroke-width="2.36049" stroke-linecap="round" stroke-linejoin="round"/>
  <path stroke="currentColor" d="M439.604 118.586L439.828 117.684" stroke-width="1.18025" stroke-linecap="round" stroke-linejoin="round"/>
  <path stroke="currentColor" d="M439.826 117.684C439.861 117.553 439.869 117.409 439.85 117.274C439.83 117.139 439.792 117.011 439.726 116.891C439.66 116.771 439.575 116.663 439.478 116.57C439.366 116.462 439.231 116.376 439.095 116.299C438.879 116.179 438.654 116.079 438.422 115.986C438.082 115.846 437.733 115.723 437.385 115.599C436.426 115.266 435.451 114.976 434.476 114.701" stroke-width="2.36049" stroke-linecap="round" stroke-linejoin="round"/>
  <path stroke="currentColor" d="M434.477 114.705L413.205 108.72" stroke-width="2.36049" stroke-linecap="round" stroke-linejoin="round"/>
  <path stroke="currentColor" d="M413.205 108.72C412.791 108.604 412.373 108.492 411.955 108.38C411.545 108.271 411.131 108.167 410.717 108.066C409.99 107.888 409.255 107.722 408.52 107.579C408.024 107.482 407.529 107.393 407.03 107.343C406.755 107.316 406.481 107.296 406.206 107.35" stroke-width="2.36049" stroke-linecap="round" stroke-linejoin="round"/>
  <path stroke="currentColor" d="M406.205 107.351L402.379 108.121" stroke-width="2.36049" stroke-linecap="round" stroke-linejoin="round"/>
  <path stroke="currentColor" d="M402.379 108.12C401.923 108.201 401.679 108.399 401.509 108.828" stroke-width="1.18025" stroke-linecap="round" stroke-linejoin="round"/>
  <path stroke="currentColor" d="M364.726 104.309C363.987 104.328 363.26 104.402 362.532 104.53" stroke-width="2.36049" stroke-linecap="round" stroke-linejoin="round"/>
  <path stroke="currentColor" d="M362.065 104.917C362.05 104.967 362.042 105.017 362.038 105.071" stroke-width="1.18025" stroke-linecap="round" stroke-linejoin="round"/>
  <path stroke="currentColor" d="M362.534 104.534C362.278 104.565 362.147 104.673 362.065 104.917" stroke-width="2.36049" stroke-linecap="round" stroke-linejoin="round"/>
  <path stroke="currentColor" d="M382.509 104.101C382.137 104.135 381.77 104.162 381.398 104.174" stroke-width="1.18025" stroke-linecap="round" stroke-linejoin="round"/>
  <path stroke="currentColor" d="M383.502 104.003C383.169 104.038 382.841 104.069 382.508 104.1" stroke-width="1.18025" stroke-linecap="round" stroke-linejoin="round"/>
  <path stroke="currentColor" d="M370.403 104.1C369.919 104.054 369.439 104.011 368.956 103.98C368.762 103.969 368.565 103.957 368.372 103.946C368.197 103.938 368.019 103.93 367.845 103.926C367.157 103.907 366.468 103.926 365.779 103.977" stroke-width="2.36049" stroke-linecap="round" stroke-linejoin="round"/>
  <path stroke="currentColor" d="M365.779 103.977C365.71 103.98 365.64 103.988 365.57 103.996" stroke-width="2.36049" stroke-linecap="round" stroke-linejoin="round"/>
  <path stroke="currentColor" d="M376.458 103.067C375.533 103.067 374.608 103.079 373.68 103.106" stroke-width="2.36049" stroke-linecap="round" stroke-linejoin="round"/>
  <path stroke="currentColor" d="M365.148 104.104C365.079 104.135 365.009 104.17 364.939 104.208" stroke-width="2.36049" stroke-linecap="round" stroke-linejoin="round"/>
  <path stroke="currentColor" d="M365.57 103.996C365.423 104.011 365.284 104.046 365.148 104.104" stroke-width="2.36049" stroke-linecap="round" stroke-linejoin="round"/>
  <path stroke="currentColor" d="M373.679 103.102C373.61 103.102 373.54 103.106 373.47 103.114C373.42 103.118 373.374 103.125 373.323 103.133C373.23 103.148 373.138 103.179 373.052 103.222C372.874 103.307 372.716 103.443 372.611 103.613" stroke-width="2.36049" stroke-linecap="round" stroke-linejoin="round"/>
  <path stroke="currentColor" d="M371.115 104.154C370.879 104.139 370.643 104.119 370.403 104.096" stroke-width="1.18025" stroke-linecap="round" stroke-linejoin="round"/>
  <path stroke="currentColor" d="M380.299 103.601C380.272 103.559 380.241 103.516 380.206 103.477C380.172 103.439 380.137 103.404 380.098 103.369C380.025 103.307 379.939 103.253 379.854 103.21C379.769 103.172 379.676 103.141 379.587 103.125C379.471 103.106 379.351 103.102 379.231 103.098" stroke-width="2.36049" stroke-linecap="round" stroke-linejoin="round"/>
  <path stroke="currentColor" d="M379.231 103.102C378.306 103.079 377.382 103.067 376.457 103.067" stroke-width="2.36049" stroke-linecap="round" stroke-linejoin="round"/>
  <path stroke="currentColor" d="M362.505 104.944C361.968 105.126 361.441 105.327 360.927 105.559" stroke-width="1.18025" stroke-linecap="round" stroke-linejoin="round"/>
  <path stroke="currentColor" d="M364.723 104.371C363.999 104.503 363.295 104.681 362.599 104.909" stroke-width="2.36049" stroke-linecap="round" stroke-linejoin="round"/>
  <path stroke="currentColor" d="M370.464 104.421C369.083 104.147 367.729 104.065 366.328 104.166" stroke-width="2.36049" stroke-linecap="round" stroke-linejoin="round"/>
  <path stroke="currentColor" d="M372.263 104.878C371.753 104.719 371.238 104.584 370.716 104.476" stroke-width="1.18025" stroke-linecap="round" stroke-linejoin="round"/>
  <path stroke="currentColor" d="M371.591 105.574C371.591 105.512 371.583 105.447 371.571 105.385" stroke-width="1.18025" stroke-linecap="round" stroke-linejoin="round"/>
  <path stroke="currentColor" d="M361.604 106.065L361.577 107.636" stroke-width="1.18025" stroke-linecap="round" stroke-linejoin="round"/>
  <path stroke="currentColor" d="M371.605 106.541L371.59 105.574" stroke-width="1.18025" stroke-linecap="round" stroke-linejoin="round"/>
  <path stroke="currentColor" d="M361.612 105.977C361.612 106.008 361.608 106.035 361.608 106.066" stroke-width="1.18025" stroke-linecap="round" stroke-linejoin="round"/>
  <path stroke="currentColor" d="M376.945 103.129C376.48 103.118 376.016 103.121 375.552 103.149" stroke-width="2.36049" stroke-linecap="round" stroke-linejoin="round"/>
  <path stroke="currentColor" d="M377.351 103.148C377.278 103.144 377.208 103.141 377.135 103.137" stroke-width="2.36049" stroke-linecap="round" stroke-linejoin="round"/>
  <path stroke="currentColor" d="M372.274 103.702C371.841 103.814 371.516 104.178 371.458 104.619" stroke-width="2.36049" stroke-linecap="round" stroke-linejoin="round"/>
  <path stroke="currentColor" d="M371.458 104.619C371.458 104.619 371.458 104.639 371.458 104.646" stroke-width="1.18025" stroke-linecap="round" stroke-linejoin="round"/>
  <path stroke="currentColor" d="M381.461 104.723C381.461 104.638 381.449 104.557 381.426 104.476" stroke-width="1.18025" stroke-linecap="round" stroke-linejoin="round"/>
  <path stroke="currentColor" d="M381.464 104.951L381.46 104.723" stroke-width="1.18025" stroke-linecap="round" stroke-linejoin="round"/>
  <path stroke="currentColor" d="M381.426 104.471C381.306 104.023 381.086 103.806 380.637 103.69" stroke-width="2.36049" stroke-linecap="round" stroke-linejoin="round"/>
  <path stroke="currentColor" d="M380.637 103.69C379.596 103.403 378.555 103.225 377.479 103.152" stroke-width="2.36049" stroke-linecap="round" stroke-linejoin="round"/>
  <path stroke="currentColor" d="M374.848 103.207C373.974 103.299 373.123 103.462 372.275 103.698" stroke-width="2.36049" stroke-linecap="round" stroke-linejoin="round"/>
  <path stroke="currentColor" d="M380.644 105.799C380.427 105.629 380.18 105.505 379.921 105.404C379.6 105.277 379.263 105.195 378.926 105.13C378.04 104.959 377.135 104.909 376.233 104.936C375.765 104.952 375.297 104.983 374.837 105.044C374.427 105.099 374.02 105.176 373.622 105.28C373.305 105.366 372.991 105.47 372.701 105.617C372.477 105.729 372.26 105.869 372.082 106.047" stroke-width="1.18025" stroke-linecap="round" stroke-linejoin="round"/>
  <path stroke="currentColor" d="M381.434 106.967C381.434 106.901 381.426 106.835 381.414 106.774C381.403 106.712 381.387 106.654 381.368 106.592C381.325 106.468 381.264 106.348 381.19 106.24C381.028 106.011 380.795 105.837 380.544 105.717" stroke-width="1.18025" stroke-linecap="round" stroke-linejoin="round"/>
  <path stroke="currentColor" d="M372.38 105.83C372.31 105.864 372.245 105.903 372.179 105.942C372.117 105.98 372.059 106.023 372.005 106.069C371.9 106.155 371.804 106.255 371.726 106.364C371.575 106.576 371.486 106.836 371.482 107.095" stroke-width="1.18025" stroke-linecap="round" stroke-linejoin="round"/>
  <path stroke="currentColor" d="M371.478 107.095L371.447 109.014" stroke-width="1.18025" stroke-linecap="round" stroke-linejoin="round"/>
  <path stroke="currentColor" d="M381.465 108.739L381.434 106.967" stroke-width="1.18025" stroke-linecap="round" stroke-linejoin="round"/>
  <path stroke="currentColor" d="M386.313 104.015C386.123 104.007 385.934 104.003 385.744 104.003" stroke-width="1.18025" stroke-linecap="round" stroke-linejoin="round"/>
  <path stroke="currentColor" d="M386.487 104.023C386.487 104.023 386.467 104.023 386.455 104.023" stroke-width="1.18025" stroke-linecap="round" stroke-linejoin="round"/>
  <path stroke="currentColor" d="M387.147 104.073C386.93 104.054 386.718 104.035 386.501 104.023" stroke-width="1.18025" stroke-linecap="round" stroke-linejoin="round"/>
  <path stroke="currentColor" d="M387.619 104.124C387.53 104.112 387.441 104.101 387.349 104.093" stroke-width="1.18025" stroke-linecap="round" stroke-linejoin="round"/>
  <path stroke="currentColor" d="M382.354 104.359C382.277 104.375 382.199 104.398 382.126 104.421C382.06 104.444 381.994 104.472 381.933 104.506C381.813 104.568 381.704 104.65 381.611 104.75C381.43 104.947 381.317 105.211 381.313 105.481" stroke-width="1.18025" stroke-linecap="round" stroke-linejoin="round"/>
  <path stroke="currentColor" d="M391.314 105.849C391.314 105.787 391.306 105.721 391.295 105.656C391.283 105.594 391.264 105.536 391.245 105.478C391.198 105.362 391.136 105.249 391.051 105.153C390.877 104.944 390.629 104.812 390.37 104.731" stroke-width="1.18025" stroke-linecap="round" stroke-linejoin="round"/>
  <path stroke="currentColor" d="M381.316 105.485L381.297 106.426" stroke-width="1.18025" stroke-linecap="round" stroke-linejoin="round"/>
  <path stroke="currentColor" d="M391.338 107.323L391.314 105.849" stroke-width="1.18025" stroke-linecap="round" stroke-linejoin="round"/>
  <path stroke="currentColor" d="M390.37 104.731C389.569 104.479 388.764 104.294 387.937 104.17" stroke-width="1.18025" stroke-linecap="round" stroke-linejoin="round"/>
  <path stroke="currentColor" d="M384.439 104.05C383.735 104.108 383.042 104.212 382.354 104.359" stroke-width="1.18025" stroke-linecap="round" stroke-linejoin="round"/>
  <path stroke="currentColor" d="M449.991 125.113C448.184 123.999 446.35 122.935 444.489 121.921" stroke-width="2.36049" stroke-linecap="round" stroke-linejoin="round"/>
  <path stroke="currentColor" d="M458.07 131.187C456.449 129.662 451.996 126.478 450.158 125.217" stroke-width="2.36049" stroke-linecap="round" stroke-linejoin="round"/>
  <path stroke="currentColor" d="M466.991 147.727C466.953 147.24 466.891 146.756 466.813 146.276" stroke-width="2.36049" stroke-linecap="round" stroke-linejoin="round"/>
  <path stroke="currentColor" d="M466.818 146.273C466.713 145.619 466.574 144.969 466.404 144.326C466.226 143.657 466.021 142.996 465.785 142.346C465.301 141.022 464.697 139.742 463.997 138.523C463.258 137.238 462.415 136.02 461.486 134.863C460.476 133.609 459.374 132.433 458.213 131.319" stroke-width="2.36049" stroke-linecap="round" stroke-linejoin="round"/>
  <path stroke="currentColor" d="M386.323 107.451C386.087 107.439 385.851 107.424 385.615 107.408C385.363 107.389 385.108 107.369 384.857 107.35C384.408 107.311 383.955 107.265 383.506 107.207C383.104 107.157 382.702 107.099 382.303 107.029C382.009 106.975 381.711 106.917 381.421 106.839" stroke-width="1.18025" stroke-linecap="round" stroke-linejoin="round"/>
  <path stroke="currentColor" d="M391.62 107.234C391.593 107.253 391.562 107.265 391.527 107.273C391.477 107.288 391.426 107.304 391.376 107.315C391.237 107.346 391.09 107.369 390.947 107.389C390.525 107.443 390.103 107.47 389.681 107.485C388.559 107.532 387.437 107.509 386.315 107.451" stroke-width="1.18025" stroke-linecap="round" stroke-linejoin="round"/>
  <path stroke="currentColor" d="M372.031 106.046C371.888 106.038 371.741 106.027 371.598 106.015" stroke-width="1.18025" stroke-linecap="round" stroke-linejoin="round"/>
  <path stroke="currentColor" d="M381.306 105.988C381.197 105.996 381.093 106.004 380.984 106.011" stroke-width="1.18025" stroke-linecap="round" stroke-linejoin="round"/>
  <path stroke="currentColor" d="M376.442 110.24C376.151 110.26 375.865 110.263 375.579 110.26C375.304 110.256 375.029 110.236 374.755 110.205C374.217 110.147 373.687 110.039 373.172 109.88C372.685 109.729 372.209 109.536 371.779 109.261C371.625 109.161 371.474 109.052 371.35 108.917C371.304 108.867 371.261 108.813 371.23 108.754C371.207 108.708 371.188 108.662 371.188 108.611" stroke-width="1.18025" stroke-linecap="round" stroke-linejoin="round"/>
  <path stroke="currentColor" d="M381.734 108.379C381.734 108.422 381.715 108.461 381.692 108.495C381.661 108.546 381.622 108.592 381.579 108.635C381.46 108.755 381.32 108.848 381.177 108.933C380.752 109.188 380.291 109.378 379.823 109.54C378.732 109.919 377.598 110.159 376.445 110.237" stroke-width="1.18025" stroke-linecap="round" stroke-linejoin="round"/>
  <path stroke="currentColor" d="M366.583 107.714C366.281 107.741 365.976 107.76 365.674 107.78C365.384 107.795 365.093 107.811 364.807 107.818C364.285 107.834 363.763 107.838 363.24 107.818C362.819 107.803 362.401 107.776 361.987 107.714C361.844 107.691 361.697 107.668 361.557 107.629C361.507 107.613 361.457 107.598 361.406 107.579C361.375 107.567 361.341 107.552 361.313 107.528" stroke-width="1.18025" stroke-linecap="round" stroke-linejoin="round"/>
  <path stroke="currentColor" d="M371.493 106.925C371.361 106.967 371.23 107.002 371.098 107.037C370.932 107.08 370.765 107.118 370.599 107.153C370.193 107.238 369.787 107.312 369.376 107.377C368.452 107.525 367.519 107.637 366.583 107.718" stroke-width="1.18025" stroke-linecap="round" stroke-linejoin="round"/>
  <path stroke="currentColor" d="M445.739 122.617C445.646 122.342 445.533 122.076 445.402 121.82C445.27 121.565 445.123 121.317 444.957 121.085C444.617 120.605 444.203 120.176 443.746 119.804C443.235 119.387 442.67 119.038 442.082 118.733C441.339 118.35 440.566 118.036 439.78 117.746" stroke-width="2.36049" stroke-linecap="round" stroke-linejoin="round"/>
  <path stroke="currentColor" d="M351.498 109.752C351.309 110.499 351.185 111.25 351.131 112.02" stroke-width="2.36049" stroke-linecap="round" stroke-linejoin="round"/>
  <path stroke="currentColor" d="M355.139 106.104C354.918 106.131 354.698 106.174 354.485 106.236C354.28 106.294 354.079 106.367 353.885 106.46C353.502 106.642 353.154 106.889 352.856 107.191C352.535 107.512 352.276 107.888 352.063 108.29C351.819 108.754 351.641 109.25 351.506 109.756" stroke-width="2.36049" stroke-linecap="round" stroke-linejoin="round"/>
  <path stroke="currentColor" d="M360.826 105.609C358.93 105.722 357.038 105.888 355.15 106.101" stroke-width="2.36049" stroke-linecap="round" stroke-linejoin="round"/>
  <path stroke="currentColor" d="M403.288 109.254C403.218 109.238 403.149 109.223 403.079 109.204" stroke-width="1.18025" stroke-linecap="round" stroke-linejoin="round"/>
  <path stroke="currentColor" d="M417.337 112.709C416.768 112.554 416.203 112.399 415.634 112.249C415.065 112.098 414.501 111.947 413.932 111.8C412.876 111.525 411.815 111.258 410.755 110.999C409.831 110.771 408.902 110.546 407.973 110.329C406.886 110.078 405.799 109.834 404.712 109.583C404.24 109.474 403.764 109.366 403.292 109.254" stroke-width="1.18025" stroke-linecap="round" stroke-linejoin="round"/>
  <path stroke="currentColor" d="M403.081 109.203C402.582 109.087 402.082 108.967 401.583 108.847C401.146 108.743 400.713 108.635 400.276 108.522C399.482 108.321 398.689 108.112 397.9 107.892C397.312 107.725 396.724 107.555 396.14 107.366C395.761 107.242 395.389 107.11 395.025 106.952" stroke-width="1.18025" stroke-linecap="round" stroke-linejoin="round"/>
  <path stroke="currentColor" d="M399.3 105.118L398.561 104.839" stroke-width="1.18025" stroke-linecap="round" stroke-linejoin="round"/>
  <path stroke="currentColor" d="M401.868 108.236C401.868 108.236 401.892 108.248 401.903 108.252" stroke-width="1.18025" stroke-linecap="round" stroke-linejoin="round"/>
  <path stroke="currentColor" d="M401.788 108.112C401.095 106.986 400.286 106.008 399.308 105.118" stroke-width="2.36049" stroke-linecap="round" stroke-linejoin="round"/>
  <path stroke="currentColor" d="M401.919 108.252C401.861 108.217 401.822 108.174 401.787 108.116" stroke-width="1.18025" stroke-linecap="round" stroke-linejoin="round"/>
  <path stroke="currentColor" d="M364.866 145.042C365.164 144.887 365.466 144.756 365.783 144.647" stroke-width="2.36049" stroke-linecap="round" stroke-linejoin="round"/>
  <path stroke="currentColor" d="M364.053 145.541C364.161 145.464 364.269 145.39 364.382 145.321" stroke-width="1.18025" stroke-linecap="round" stroke-linejoin="round"/>
  <path stroke="currentColor" d="M362.026 147.793C362.177 147.603 362.328 147.41 362.479 147.22" stroke-width="2.36049" stroke-linecap="round" stroke-linejoin="round"/>
  <path stroke="currentColor" d="M379.653 146.918C380.369 146.868 381.085 146.841 381.804 146.837C382.528 146.837 383.251 146.852 383.971 146.899C385.461 146.988 386.946 147.177 388.417 147.444C391.829 148.063 395.16 149.1 398.403 150.323" stroke-width="2.36049" stroke-linecap="round" stroke-linejoin="round"/>
  <path stroke="currentColor" d="M441.929 164.909C442.509 164.952 443.089 164.986 443.67 165.01C444.239 165.033 444.811 165.044 445.384 165.044C446.463 165.044 447.543 165.002 448.618 164.909C450.564 164.739 452.499 164.402 454.364 163.826" stroke-width="2.36049" stroke-linecap="round" stroke-linejoin="round"/>
  <path stroke="currentColor" d="M398.402 150.323C398.816 150.478 399.23 150.641 399.644 150.803C400.058 150.966 400.472 151.132 400.882 151.298C401.826 151.681 402.763 152.08 403.695 152.482C406.705 153.786 409.684 155.171 412.679 156.506" stroke-width="2.36049" stroke-linecap="round" stroke-linejoin="round"/>
  <path stroke="currentColor" d="M370.009 145.487C370.229 145.773 370.469 146.032 370.736 146.276" stroke-width="2.36049" stroke-linecap="round" stroke-linejoin="round"/>
  <path stroke="currentColor" d="M374.859 147.468C376.45 147.209 378.044 147.027 379.653 146.918" stroke-width="2.36049" stroke-linecap="round" stroke-linejoin="round"/>
  <path stroke="currentColor" d="M465.401 154.563C465.51 154.323 465.614 154.076 465.715 153.832C465.811 153.592 465.9 153.352 465.986 153.109C466.16 152.606 466.314 152.091 466.446 151.573C466.721 150.485 466.899 149.371 466.995 148.253" stroke-width="2.36049" stroke-linecap="round" stroke-linejoin="round"/>
  <path stroke="currentColor" d="M454.358 163.822C454.989 163.629 455.616 163.408 456.231 163.161C456.819 162.921 457.392 162.654 457.953 162.36C459.048 161.783 460.085 161.098 461.036 160.305C461.949 159.543 462.777 158.684 463.501 157.744C464.24 156.785 464.863 155.736 465.37 154.637" stroke-width="2.36049" stroke-linecap="round" stroke-linejoin="round"/>
  <path stroke="currentColor" d="M365.783 144.648C365.953 144.59 366.801 144.416 366.975 144.369" stroke-width="2.36049" stroke-linecap="round" stroke-linejoin="round"/>
  <path stroke="currentColor" d="M364.382 145.321C364.54 145.22 364.699 145.131 364.865 145.042" stroke-width="2.36049" stroke-linecap="round" stroke-linejoin="round"/>
  <path stroke="currentColor" d="M362.479 147.22C362.664 146.984 362.854 146.748 363.047 146.516C363.171 146.365 363.299 146.214 363.434 146.071C363.519 145.982 363.608 145.893 363.705 145.812C363.817 145.715 363.937 145.626 364.057 145.537" stroke-width="2.36049" stroke-linecap="round" stroke-linejoin="round"/>
  <path stroke="currentColor" d="M358.985 151.031C359.094 150.954 359.198 150.876 359.303 150.795C359.411 150.71 359.515 150.617 359.62 150.528C359.852 150.319 360.073 150.098 360.289 149.874C360.908 149.216 361.469 148.508 362.03 147.8" stroke-width="2.36049" stroke-linecap="round" stroke-linejoin="round"/>
  <path stroke="currentColor" d="M357.905 151.159C358.056 151.182 358.211 151.205 358.362 151.232" stroke-width="1.18025" stroke-linecap="round" stroke-linejoin="round"/>
  <path stroke="currentColor" d="M357.364 150.996C357.538 151.077 357.716 151.128 357.906 151.159" stroke-width="1.18025" stroke-linecap="round" stroke-linejoin="round"/>
  <path stroke="currentColor" d="M356.029 144.353C355.944 145.282 355.804 146.21 355.704 147.139C355.677 147.379 355.653 147.615 355.638 147.858C355.607 148.311 355.599 148.771 355.696 149.216C355.797 149.661 356.002 150.087 356.319 150.412C356.628 150.725 357.042 150.946 357.472 151.019" stroke-width="2.36049" stroke-linecap="round" stroke-linejoin="round"/>
  <path stroke="currentColor" d="M359.878 126.707C359.596 126.741 359.313 126.78 359.035 126.823C358.779 126.861 358.528 126.904 358.272 126.954C357.847 127.035 357.429 127.128 357.011 127.252C356.407 127.43 355.816 127.666 355.316 128.053" stroke-width="1.18025" stroke-linecap="round" stroke-linejoin="round"/>
  <path stroke="currentColor" d="M355.317 128.053C355.201 128.142 355.092 128.239 354.995 128.343C354.903 128.444 354.817 128.552 354.74 128.665C354.581 128.904 354.469 129.171 354.396 129.446C354.229 130.065 354.256 130.734 354.438 131.346" stroke-width="2.36049" stroke-linecap="round" stroke-linejoin="round"/>
  <path stroke="currentColor" d="M357.473 151.02C357.635 151.047 357.802 151.078 357.964 151.105" stroke-width="1.18025" stroke-linecap="round" stroke-linejoin="round"/>
  <path stroke="currentColor" d="M360.777 126.648C360.475 126.648 360.177 126.672 359.879 126.706" stroke-width="1.18025" stroke-linecap="round" stroke-linejoin="round"/>
  <path stroke="currentColor" d="M355.077 133.594C355.197 134.066 355.309 134.542 355.41 135.018C355.51 135.478 355.599 135.942 355.681 136.407C355.835 137.304 355.955 138.206 356.037 139.111C356.191 140.852 356.199 142.609 356.029 144.35" stroke-width="2.36049" stroke-linecap="round" stroke-linejoin="round"/>
  <path stroke="currentColor" d="M354.443 131.346C354.633 131.953 354.807 132.561 354.97 133.176" stroke-width="2.36049" stroke-linecap="round" stroke-linejoin="round"/>
  <path stroke="currentColor" d="M383.499 103.996C383.317 104.073 383.139 104.154 382.961 104.243" stroke-width="1.18025" stroke-linecap="round" stroke-linejoin="round"/>
  <path stroke="currentColor" d="M395.547 104.839C394.928 104.464 394.289 104.143 393.616 103.872" stroke-width="2.36049" stroke-linecap="round" stroke-linejoin="round"/>
  <path stroke="currentColor" d="M393.617 103.872L393.582 100.908" stroke-width="2.36049" stroke-linecap="round" stroke-linejoin="round"/>
  <path stroke="currentColor" d="M383.46 101.028L383.499 103.996" stroke-width="2.36049" stroke-linecap="round" stroke-linejoin="round"/>
  <path stroke="currentColor" d="M393.578 100.908L395.536 100.715" stroke-width="2.36049" stroke-linecap="round" stroke-linejoin="round"/>
  <path stroke="currentColor" d="M381.499 100.889L383.464 101.036" stroke-width="2.36049" stroke-linecap="round" stroke-linejoin="round"/>
  <path stroke="currentColor" d="M381.766 100.9C381.801 100.9 381.835 100.9 381.867 100.9" stroke-width="1.18025" stroke-linecap="round" stroke-linejoin="round"/>
  <path stroke="currentColor" d="M396.15 96.1648C395.992 96.1068 395.825 96.0681 395.659 96.0449C395.446 96.0178 395.229 96.0101 395.013 96.0101C394.239 95.9984 393.465 95.9984 392.695 96.0023C391.457 96.0062 390.219 96.0178 388.985 96.0333C387.611 96.0487 386.242 96.0681 384.868 96.0952C383.943 96.1106 383.015 96.13 382.09 96.1648C381.928 96.1726 381.765 96.1764 381.603 96.188C381.51 96.1958 381.413 96.2035 381.32 96.2151C381.146 96.2383 380.976 96.2809 380.81 96.3428" stroke-width="2.36049" stroke-linecap="round" stroke-linejoin="round"/>
  <path stroke="currentColor" d="M395.594 100.711C396.801 100.587 397.718 99.5615 397.702 98.3467" stroke-width="2.36049" stroke-linecap="round" stroke-linejoin="round"/>
  <path stroke="currentColor" d="M395.539 100.715C395.539 100.715 395.544 100.715 395.548 100.715" stroke-width="1.18025" stroke-linecap="round" stroke-linejoin="round"/>
  <path stroke="currentColor" d="M379.274 98.5713C379.29 99.7862 380.23 100.788 381.441 100.885" stroke-width="2.36049" stroke-linecap="round" stroke-linejoin="round"/>
  <path stroke="currentColor" d="M380.651 96.4087C379.804 96.7917 379.262 97.6429 379.274 98.5753" stroke-width="2.36049" stroke-linecap="round" stroke-linejoin="round"/>
  <path stroke="currentColor" d="M397.706 98.3433C397.694 97.4108 397.133 96.5751 396.274 96.2114" stroke-width="2.36049" stroke-linecap="round" stroke-linejoin="round"/>
  <path stroke="currentColor" d="M354.749 128.03C354.749 128.03 354.765 128.034 354.773 128.034" stroke-width="1.18025" stroke-linecap="round" stroke-linejoin="round"/>
  <path stroke="currentColor" d="M352.264 112.592C352.225 112.577 352.19 112.561 352.155 112.546" stroke-width="1.18025" stroke-linecap="round" stroke-linejoin="round"/>
  <path stroke="currentColor" d="M352.482 112.681C352.443 112.666 352.408 112.65 352.369 112.635" stroke-width="1.18025" stroke-linecap="round" stroke-linejoin="round"/>
  <path stroke="currentColor" d="M352.699 112.766C352.672 112.755 352.644 112.747 352.617 112.735" stroke-width="1.18025" stroke-linecap="round" stroke-linejoin="round"/>
  <path stroke="currentColor" d="M353.135 112.933C353.054 112.902 352.969 112.871 352.888 112.84" stroke-width="1.18025" stroke-linecap="round" stroke-linejoin="round"/>
  <path stroke="currentColor" d="M353.359 113.014C353.313 112.995 353.262 112.979 353.216 112.96" stroke-width="1.18025" stroke-linecap="round" stroke-linejoin="round"/>
  <path stroke="currentColor" d="M353.812 113.181C353.715 113.146 353.614 113.111 353.518 113.076" stroke-width="1.18025" stroke-linecap="round" stroke-linejoin="round"/>
  <path stroke="currentColor" d="M354.261 113.343C354.133 113.297 354.002 113.251 353.874 113.204" stroke-width="1.18025" stroke-linecap="round" stroke-linejoin="round"/>
  <path stroke="currentColor" d="M355.363 128.019L355.363 127.945" stroke-width="1.18025" stroke-linecap="round" stroke-linejoin="round"/>
  <path stroke="currentColor" d="M351.262 112.043L352.686 111.792" stroke-width="1.18025" stroke-linecap="round" stroke-linejoin="round"/>
  <path stroke="currentColor" d="M351.966 112.457C351.761 112.372 351.568 112.268 351.382 112.148" stroke-width="1.18025" stroke-linecap="round" stroke-linejoin="round"/>
  <path stroke="currentColor" d="M352.055 112.504C352.024 112.489 351.997 112.473 351.966 112.461" stroke-width="1.18025" stroke-linecap="round" stroke-linejoin="round"/>
  <path stroke="currentColor" d="M351.258 112.036C351.258 112.036 351.238 112.012 351.223 112.004" stroke-width="1.18025" stroke-linecap="round" stroke-linejoin="round"/>
  <path stroke="currentColor" d="M354.644 111.448L352.687 111.792" stroke-width="1.18025" stroke-linecap="round" stroke-linejoin="round"/>
  <path stroke="currentColor" d="M354.753 128.022C354.95 128.022 355.148 128.03 355.345 128.034" stroke-width="1.18025" stroke-linecap="round" stroke-linejoin="round"/>
  <path stroke="currentColor" d="M354.78 128.038C354.78 128.038 354.776 128.038 354.771 128.038" stroke-width="1.18025" stroke-linecap="round" stroke-linejoin="round"/>
  <path stroke="currentColor" d="M355.313 127.933C355.313 127.933 355.348 127.941 355.364 127.945" stroke-width="1.18025" stroke-linecap="round" stroke-linejoin="round"/>
  <path stroke="currentColor" d="M359.659 122.993C359.651 122.965 359.644 122.934 359.636 122.907" stroke-width="1.18025" stroke-linecap="round" stroke-linejoin="round"/>
  <path stroke="currentColor" d="M354.547 113.448C354.501 113.428 354.455 113.413 354.404 113.397" stroke-width="1.18025" stroke-linecap="round" stroke-linejoin="round"/>
  <path stroke="currentColor" d="M354.802 113.544C354.744 113.521 354.686 113.498 354.628 113.479" stroke-width="1.18025" stroke-linecap="round" stroke-linejoin="round"/>
  <path stroke="currentColor" d="M355.578 113.951C355.527 113.916 355.477 113.881 355.423 113.846" stroke-width="1.18025" stroke-linecap="round" stroke-linejoin="round"/>
  <path stroke="currentColor" d="M355.843 114.175C355.762 114.098 355.677 114.028 355.588 113.962" stroke-width="1.18025" stroke-linecap="round" stroke-linejoin="round"/>
  <path stroke="currentColor" d="M355.975 114.303C355.975 114.303 355.952 114.279 355.94 114.268" stroke-width="1.18025" stroke-linecap="round" stroke-linejoin="round"/>
  <path stroke="currentColor" d="M356.671 115.258C356.497 114.952 356.3 114.674 356.071 114.411" stroke-width="1.18025" stroke-linecap="round" stroke-linejoin="round"/>
  <path stroke="currentColor" d="M356.789 115.456C356.769 115.421 356.75 115.386 356.73 115.351" stroke-width="1.18025" stroke-linecap="round" stroke-linejoin="round"/>
  <path stroke="currentColor" d="M357.786 117.657C357.519 116.945 357.21 116.256 356.857 115.583" stroke-width="1.18025" stroke-linecap="round" stroke-linejoin="round"/>
  <path stroke="currentColor" d="M358.234 118.864C358.204 118.779 358.173 118.697 358.146 118.612" stroke-width="1.18025" stroke-linecap="round" stroke-linejoin="round"/>
  <path stroke="currentColor" d="M359.116 121.41C359.085 121.317 359.054 121.228 359.023 121.135" stroke-width="1.18025" stroke-linecap="round" stroke-linejoin="round"/>
  <path stroke="currentColor" d="M359.294 121.909C359.232 121.743 359.17 121.577 359.116 121.41" stroke-width="1.18025" stroke-linecap="round" stroke-linejoin="round"/>
  <path stroke="currentColor" d="M359.367 122.095C359.344 122.033 359.317 121.971 359.298 121.909" stroke-width="1.18025" stroke-linecap="round" stroke-linejoin="round"/>
  <path stroke="currentColor" d="M359.634 122.903C359.557 122.633 359.464 122.362 359.367 122.099" stroke-width="1.18025" stroke-linecap="round" stroke-linejoin="round"/>
  <path stroke="currentColor" d="M358.253 125.643C358.57 125.596 358.887 125.558 359.209 125.519" stroke-width="1.18025" stroke-linecap="round" stroke-linejoin="round"/>
  <path stroke="currentColor" d="M357.435 125.774C357.647 125.736 357.864 125.705 358.077 125.67" stroke-width="1.18025" stroke-linecap="round" stroke-linejoin="round"/>
  <path stroke="currentColor" d="M357.073 125.836C357.17 125.817 357.271 125.802 357.367 125.782" stroke-width="1.18025" stroke-linecap="round" stroke-linejoin="round"/>
  <path stroke="currentColor" d="M356.841 125.883C356.872 125.875 356.907 125.871 356.938 125.863" stroke-width="1.18025" stroke-linecap="round" stroke-linejoin="round"/>
  <path stroke="currentColor" d="M356.443 125.972C356.478 125.964 356.513 125.956 356.548 125.948" stroke-width="1.18025" stroke-linecap="round" stroke-linejoin="round"/>
  <path stroke="currentColor" d="M356.276 126.01C356.307 126.002 356.335 125.995 356.366 125.987" stroke-width="1.18025" stroke-linecap="round" stroke-linejoin="round"/>
  <path stroke="currentColor" d="M355.917 126.107C355.952 126.096 355.987 126.088 356.022 126.08" stroke-width="1.18025" stroke-linecap="round" stroke-linejoin="round"/>
  <path stroke="currentColor" d="M354.633 126.63C354.633 126.63 354.653 126.614 354.665 126.61" stroke-width="1.18025" stroke-linecap="round" stroke-linejoin="round"/>
  <path stroke="currentColor" d="M354.52 126.715C354.554 126.688 354.593 126.66 354.628 126.633" stroke-width="1.18025" stroke-linecap="round" stroke-linejoin="round"/>
  <path stroke="currentColor" d="M354.318 126.908C354.376 126.834 354.442 126.772 354.516 126.714" stroke-width="1.18025" stroke-linecap="round" stroke-linejoin="round"/>
  <path stroke="currentColor" d="M354.234 127.036C354.234 127.036 354.242 127.024 354.246 127.016" stroke-width="1.18025" stroke-linecap="round" stroke-linejoin="round"/>
  <path stroke="currentColor" d="M354.188 127.442C354.188 127.442 354.181 127.415 354.177 127.403" stroke-width="1.18025" stroke-linecap="round" stroke-linejoin="round"/>
  <path stroke="currentColor" d="M354.235 127.555C354.235 127.555 354.223 127.535 354.219 127.523" stroke-width="1.18025" stroke-linecap="round" stroke-linejoin="round"/>
  <path stroke="currentColor" d="M354.265 127.605C354.265 127.605 354.246 127.57 354.234 127.554" stroke-width="1.18025" stroke-linecap="round" stroke-linejoin="round"/>
  <path stroke="currentColor" d="M354.327 127.69C354.307 127.666 354.288 127.643 354.272 127.62" stroke-width="1.18025" stroke-linecap="round" stroke-linejoin="round"/>
  <path stroke="currentColor" d="M354.605 127.937C354.582 127.918 354.555 127.902 354.531 127.883" stroke-width="1.18025" stroke-linecap="round" stroke-linejoin="round"/>
  <path stroke="currentColor" d="M354.792 128.022L354.732 128.022" stroke-width="1.18025" stroke-linecap="round" stroke-linejoin="round"/>
  <path stroke="currentColor" d="M355.917 126.103C355.484 126.207 355.085 126.366 354.694 126.587" stroke-width="1.18025" stroke-linecap="round" stroke-linejoin="round"/>
  <path stroke="currentColor" d="M356.276 126.01C356.191 126.03 356.106 126.053 356.017 126.076" stroke-width="1.18025" stroke-linecap="round" stroke-linejoin="round"/>
  <path stroke="currentColor" d="M356.444 125.972C356.417 125.979 356.389 125.983 356.362 125.991" stroke-width="1.18025" stroke-linecap="round" stroke-linejoin="round"/>
  <path stroke="currentColor" d="M356.842 125.883C356.745 125.902 356.645 125.925 356.548 125.945" stroke-width="1.18025" stroke-linecap="round" stroke-linejoin="round"/>
  <path stroke="currentColor" d="M357.074 125.836C357.031 125.844 356.985 125.851 356.942 125.863" stroke-width="1.18025" stroke-linecap="round" stroke-linejoin="round"/>
  <path stroke="currentColor" d="M357.434 125.771C357.411 125.771 357.392 125.778 357.368 125.782" stroke-width="1.18025" stroke-linecap="round" stroke-linejoin="round"/>
  <path stroke="currentColor" d="M358.253 125.646C358.195 125.654 358.137 125.662 358.079 125.67" stroke-width="1.18025" stroke-linecap="round" stroke-linejoin="round"/>
  <path stroke="currentColor" d="M354.732 128.022C354.732 128.022 354.745 128.031 354.749 128.031" stroke-width="1.18025" stroke-linecap="round" stroke-linejoin="round"/>
  <path stroke="currentColor" d="M351.259 112.036C351.297 112.078 351.336 112.113 351.383 112.144" stroke-width="1.18025" stroke-linecap="round" stroke-linejoin="round"/>
  <path stroke="currentColor" d="M353.812 113.181C353.832 113.188 353.855 113.196 353.875 113.204" stroke-width="1.18025" stroke-linecap="round" stroke-linejoin="round"/>
  <path stroke="currentColor" d="M353.359 113.015C353.414 113.034 353.468 113.053 353.522 113.073" stroke-width="1.18025" stroke-linecap="round" stroke-linejoin="round"/>
  <path stroke="currentColor" d="M353.136 112.933C353.163 112.945 353.19 112.953 353.213 112.964" stroke-width="1.18025" stroke-linecap="round" stroke-linejoin="round"/>
  <path stroke="currentColor" d="M352.697 112.767C352.763 112.794 352.825 112.817 352.891 112.84" stroke-width="1.18025" stroke-linecap="round" stroke-linejoin="round"/>
  <path stroke="currentColor" d="M352.481 112.678C352.528 112.697 352.574 112.716 352.617 112.732" stroke-width="1.18025" stroke-linecap="round" stroke-linejoin="round"/>
  <path stroke="currentColor" d="M352.269 112.588C352.303 112.604 352.335 112.616 352.369 112.631" stroke-width="1.18025" stroke-linecap="round" stroke-linejoin="round"/>
  <path stroke="currentColor" d="M352.056 112.5C352.091 112.515 352.122 112.531 352.157 112.542" stroke-width="1.18025" stroke-linecap="round" stroke-linejoin="round"/>
  <path stroke="currentColor" d="M358.238 118.864C358.505 119.618 358.768 120.377 359.024 121.135" stroke-width="1.18025" stroke-linecap="round" stroke-linejoin="round"/>
  <path stroke="currentColor" d="M357.785 117.657C357.909 117.974 358.029 118.291 358.145 118.612" stroke-width="1.18025" stroke-linecap="round" stroke-linejoin="round"/>
  <path stroke="currentColor" d="M356.788 115.456C356.811 115.498 356.835 115.541 356.858 115.583" stroke-width="1.18025" stroke-linecap="round" stroke-linejoin="round"/>
  <path stroke="currentColor" d="M356.672 115.258C356.691 115.289 356.711 115.32 356.726 115.355" stroke-width="1.18025" stroke-linecap="round" stroke-linejoin="round"/>
  <path stroke="currentColor" d="M355.972 114.303C356.007 114.338 356.038 114.373 356.073 114.411" stroke-width="1.18025" stroke-linecap="round" stroke-linejoin="round"/>
  <path stroke="currentColor" d="M355.844 114.175C355.875 114.206 355.906 114.233 355.937 114.264" stroke-width="1.18025" stroke-linecap="round" stroke-linejoin="round"/>
  <path stroke="currentColor" d="M355.577 113.955C355.577 113.955 355.586 113.963 355.594 113.967" stroke-width="1.18025" stroke-linecap="round" stroke-linejoin="round"/>
  <path stroke="currentColor" d="M354.802 113.541C355.018 113.626 355.223 113.726 355.421 113.85" stroke-width="1.18025" stroke-linecap="round" stroke-linejoin="round"/>
  <path stroke="currentColor" d="M354.547 113.444C354.574 113.455 354.601 113.463 354.628 113.475" stroke-width="1.18025" stroke-linecap="round" stroke-linejoin="round"/>
  <path stroke="currentColor" d="M354.261 113.343C354.307 113.359 354.357 113.378 354.404 113.394" stroke-width="1.18025" stroke-linecap="round" stroke-linejoin="round"/>
  <path stroke="currentColor" d="M354.605 127.937C354.648 127.968 354.691 127.995 354.737 128.022" stroke-width="1.18025" stroke-linecap="round" stroke-linejoin="round"/>
  <path stroke="currentColor" d="M354.326 127.689C354.388 127.763 354.454 127.825 354.531 127.883" stroke-width="1.18025" stroke-linecap="round" stroke-linejoin="round"/>
  <path stroke="currentColor" d="M354.265 127.604C354.265 127.604 354.269 127.612 354.273 127.617" stroke-width="1.18025" stroke-linecap="round" stroke-linejoin="round"/>
  <path stroke="currentColor" d="M354.188 127.442C354.195 127.469 354.207 127.496 354.219 127.523" stroke-width="1.18025" stroke-linecap="round" stroke-linejoin="round"/>
  <path stroke="currentColor" d="M354.234 127.036C354.161 127.156 354.145 127.264 354.176 127.403" stroke-width="1.18025" stroke-linecap="round" stroke-linejoin="round"/>
  <path stroke="currentColor" d="M354.319 126.908C354.292 126.943 354.265 126.978 354.241 127.016" stroke-width="1.18025" stroke-linecap="round" stroke-linejoin="round"/>
  <path stroke="currentColor" d="M354.694 126.591C354.694 126.591 354.674 126.603 354.662 126.611" stroke-width="1.18025" stroke-linecap="round" stroke-linejoin="round"/>
  <path stroke="currentColor" d="M359.655 122.993C359.705 123.163 359.74 123.337 359.775 123.511C359.813 123.712 359.844 123.914 359.868 124.119C359.887 124.281 359.899 124.447 359.899 124.614C359.899 124.726 359.899 124.842 359.875 124.954C359.844 125.097 359.786 125.241 359.678 125.337C359.554 125.449 359.365 125.504 359.202 125.523" stroke-width="1.18025" stroke-linecap="round" stroke-linejoin="round"/>
  <path stroke="currentColor" d="M371.734 104.026C371.618 104.034 371.506 104.042 371.39 104.05" stroke-width="1.18025" stroke-linecap="round" stroke-linejoin="round"/>
  <path stroke="currentColor" d="M381.541 104.193C381.459 104.185 381.378 104.178 381.293 104.17" stroke-width="1.18025" stroke-linecap="round" stroke-linejoin="round"/>
  <path stroke="currentColor" d="M381.541 104.193C381.754 104.217 381.874 104.298 381.967 104.491" stroke-width="1.18025" stroke-linecap="round" stroke-linejoin="round"/>
  <path stroke="currentColor" d="M371.389 104.05C371.052 104.077 370.913 104.216 370.897 104.553" stroke-width="1.18025" stroke-linecap="round" stroke-linejoin="round"/>
  <path stroke="currentColor" d="M364.51 104.34L364.51 104.407" stroke-width="2.36049" stroke-linecap="round" stroke-linejoin="round"/>
  <path stroke="currentColor" d="M364.061 104.364C364.208 104.348 364.355 104.34 364.502 104.34" stroke-width="2.36049" stroke-linecap="round" stroke-linejoin="round"/>
  <path stroke="currentColor" d="M364.029 104.464L364.029 104.367" stroke-width="2.36049" stroke-linecap="round" stroke-linejoin="round"/>
  <path stroke="currentColor" d="M364.1 104.476C364.1 104.476 364.065 104.476 364.046 104.476" stroke-width="2.36049" stroke-linecap="round" stroke-linejoin="round"/>
  <path stroke="currentColor" d="M364.101 104.464C364.166 104.464 364.236 104.457 364.302 104.453" stroke-width="2.36049" stroke-linecap="round" stroke-linejoin="round"/>
  <path stroke="currentColor" d="M364.029 104.464C364.029 104.464 364.041 104.464 364.049 104.464" stroke-width="2.36049" stroke-linecap="round" stroke-linejoin="round"/>
  <path stroke="currentColor" d="M362.038 105.106L362.038 105.071" stroke-width="1.18025" stroke-linecap="round" stroke-linejoin="round"/>
  <path stroke="currentColor" d="M363.551 104.414L363.551 104.511" stroke-width="2.36049" stroke-linecap="round" stroke-linejoin="round"/>
  <path stroke="currentColor" d="M363.469 104.417C363.492 104.417 363.519 104.414 363.543 104.414" stroke-width="2.36049" stroke-linecap="round" stroke-linejoin="round"/>
  <path stroke="currentColor" d="M363.07 104.472C363.179 104.449 363.283 104.433 363.395 104.425" stroke-width="2.36049" stroke-linecap="round" stroke-linejoin="round"/>
  <path stroke="currentColor" d="M363.07 104.573L363.07 104.472" stroke-width="2.36049" stroke-linecap="round" stroke-linejoin="round"/>
  <path stroke="currentColor" d="M363.07 104.585L363.07 104.572" stroke-width="2.36049" stroke-linecap="round" stroke-linejoin="round"/>
  <path stroke="currentColor" d="M363.403 104.545C363.291 104.56 363.183 104.576 363.07 104.584" stroke-width="2.36049" stroke-linecap="round" stroke-linejoin="round"/>
  <path stroke="currentColor" d="M363.314 104.545C363.392 104.537 363.469 104.526 363.547 104.51" stroke-width="2.36049" stroke-linecap="round" stroke-linejoin="round"/>
  <path stroke="currentColor" d="M363.07 104.572C363.094 104.572 363.117 104.572 363.14 104.568" stroke-width="2.36049" stroke-linecap="round" stroke-linejoin="round"/>
  <path stroke="currentColor" d="M369.067 104.321C369.087 104.321 369.107 104.321 369.127 104.325" stroke-width="1.18025" stroke-linecap="round" stroke-linejoin="round"/>
  <path stroke="currentColor" d="M366.538 104.212L366.472 104.212" stroke-width="2.36049" stroke-linecap="round" stroke-linejoin="round"/>
  <path stroke="currentColor" d="M364.784 104.309C364.784 104.309 364.807 104.344 364.819 104.36" stroke-width="2.36049" stroke-linecap="round" stroke-linejoin="round"/>
  <path stroke="currentColor" d="M369.173 104.267C369.173 104.267 369.141 104.255 369.122 104.255" stroke-width="1.18025" stroke-linecap="round" stroke-linejoin="round"/>
  <path stroke="currentColor" d="M369.172 104.267L369.172 104.29" stroke-width="1.18025" stroke-linecap="round" stroke-linejoin="round"/>
  <path stroke="currentColor" d="M369.172 104.29L369.172 104.322" stroke-width="1.18025" stroke-linecap="round" stroke-linejoin="round"/>
  <path stroke="currentColor" d="M364.727 104.208L364.723 104.371" stroke-width="2.36049" stroke-linecap="round" stroke-linejoin="round"/>
  <path stroke="currentColor" d="M366.39 104.216C365.837 104.216 365.28 104.208 364.727 104.208" stroke-width="2.36049" stroke-linecap="round" stroke-linejoin="round"/>
  <path stroke="currentColor" d="M366.472 104.208L366.444 104.212" stroke-width="2.36049" stroke-linecap="round" stroke-linejoin="round"/>
  <path stroke="currentColor" d="M366.472 104.221L366.472 104.208" stroke-width="2.36049" stroke-linecap="round" stroke-linejoin="round"/>
  <path stroke="currentColor" d="M372.264 104.878C372.345 104.901 372.449 104.882 372.461 105.009" stroke-width="1.18025" stroke-linecap="round" stroke-linejoin="round"/>
  <path stroke="currentColor" d="M372.461 105.009C372.484 105.253 371.184 105.47 371.057 105.493C370.557 105.586 370.054 105.659 369.548 105.721C368.538 105.849 367.528 105.934 366.51 105.992C365.497 106.05 364.483 106.081 363.466 106.073C362.959 106.069 362.448 106.054 361.941 106.011C361.531 105.977 360.243 105.86 360.92 105.559" stroke-width="1.18025" stroke-linecap="round" stroke-linejoin="round"/>
  <path stroke="currentColor" d="M369.067 104.247C369.087 104.247 369.107 104.251 369.127 104.255" stroke-width="1.18025" stroke-linecap="round" stroke-linejoin="round"/>
  <path stroke="currentColor" d="M370.746 104.545C370.684 104.414 370.572 104.441 370.468 104.421" stroke-width="1.18025" stroke-linecap="round" stroke-linejoin="round"/>
  <path stroke="currentColor" d="M362.602 104.909C362.493 104.944 362.374 104.932 362.323 105.075" stroke-width="1.18025" stroke-linecap="round" stroke-linejoin="round"/>
  <path stroke="currentColor" d="M369.172 104.29C369.702 104.352 370.224 104.437 370.743 104.549" stroke-width="1.18025" stroke-linecap="round" stroke-linejoin="round"/>
  <path stroke="currentColor" d="M369.126 104.325C369.126 104.325 369.153 104.325 369.169 104.325" stroke-width="1.18025" stroke-linecap="round" stroke-linejoin="round"/>
  <path stroke="currentColor" d="M366.39 104.243C366.27 104.259 366.146 104.278 366.026 104.297" stroke-width="2.36049" stroke-linecap="round" stroke-linejoin="round"/>
  <path stroke="currentColor" d="M362.32 105.079C363.674 104.599 365.032 104.321 366.468 104.224" stroke-width="2.36049" stroke-linecap="round" stroke-linejoin="round"/>
  <path stroke="currentColor" d="M366.39 104.244C366.417 104.244 366.522 104.244 366.471 104.22" stroke-width="2.36049" stroke-linecap="round" stroke-linejoin="round"/>
  <path stroke="currentColor" d="M375.514 103.16C375.514 103.16 375.522 103.16 375.526 103.16" stroke-width="2.36049" stroke-linecap="round" stroke-linejoin="round"/>
  <path stroke="currentColor" d="M376.976 103.137C376.976 103.137 376.988 103.137 376.993 103.137" stroke-width="2.36049" stroke-linecap="round" stroke-linejoin="round"/>
  <path stroke="currentColor" d="M377.479 103.156C377.316 103.144 377.158 103.137 376.995 103.133" stroke-width="2.36049" stroke-linecap="round" stroke-linejoin="round"/>
  <path stroke="currentColor" d="M378.504 103.269C378.376 103.249 378.245 103.23 378.117 103.214" stroke-width="2.36049" stroke-linecap="round" stroke-linejoin="round"/>
  <path stroke="currentColor" d="M376.976 103.137C376.976 103.137 376.956 103.137 376.944 103.137" stroke-width="2.36049" stroke-linecap="round" stroke-linejoin="round"/>
  <path stroke="currentColor" d="M375.557 103.156C375.557 103.156 375.537 103.156 375.525 103.156" stroke-width="2.36049" stroke-linecap="round" stroke-linejoin="round"/>
  <path stroke="currentColor" d="M374.848 103.206C375.068 103.183 375.289 103.163 375.513 103.152" stroke-width="2.36049" stroke-linecap="round" stroke-linejoin="round"/>
  <path stroke="currentColor" d="M384.443 104.058C384.877 104.015 385.31 103.996 385.743 104" stroke-width="1.18025" stroke-linecap="round" stroke-linejoin="round"/>
  <path stroke="currentColor" d="M383.72 104.147C383.94 104.116 384.161 104.085 384.381 104.065" stroke-width="1.18025" stroke-linecap="round" stroke-linejoin="round"/>
  <path stroke="currentColor" d="M383.674 104.22C383.674 104.22 383.662 104.22 383.654 104.22" stroke-width="1.18025" stroke-linecap="round" stroke-linejoin="round"/>
  <path stroke="currentColor" d="M386.312 104.023C385.813 104.007 385.314 104.023 384.814 104.066" stroke-width="1.18025" stroke-linecap="round" stroke-linejoin="round"/>
  <path stroke="currentColor" d="M386.335 104.026C386.335 104.026 386.319 104.026 386.312 104.026" stroke-width="1.18025" stroke-linecap="round" stroke-linejoin="round"/>
  <path stroke="currentColor" d="M386.503 104.038C386.503 104.038 386.491 104.038 386.486 104.038" stroke-width="1.18025" stroke-linecap="round" stroke-linejoin="round"/>
  <path stroke="currentColor" d="M387.221 104.081C387.198 104.081 387.175 104.077 387.147 104.077" stroke-width="1.18025" stroke-linecap="round" stroke-linejoin="round"/>
  <path stroke="currentColor" d="M387.934 104.17C387.698 104.135 387.458 104.104 387.218 104.081" stroke-width="1.18025" stroke-linecap="round" stroke-linejoin="round"/>
  <path stroke="currentColor" d="M386.335 104.026C386.335 104.026 386.351 104.026 386.359 104.026" stroke-width="1.18025" stroke-linecap="round" stroke-linejoin="round"/>
  <path stroke="currentColor" d="M383.65 104.162C383.674 104.154 383.697 104.15 383.72 104.146" stroke-width="1.18025" stroke-linecap="round" stroke-linejoin="round"/>
  <path stroke="currentColor" d="M383.65 104.216L383.65 104.162" stroke-width="1.18025" stroke-linecap="round" stroke-linejoin="round"/>
  <path stroke="currentColor" d="M383.719 104.22C383.719 104.22 383.688 104.22 383.677 104.22" stroke-width="1.18025" stroke-linecap="round" stroke-linejoin="round"/>
  <path stroke="currentColor" d="M384.753 104.073C384.772 104.069 384.796 104.065 384.815 104.065" stroke-width="1.18025" stroke-linecap="round" stroke-linejoin="round"/>
  <path stroke="currentColor" d="M384.815 104.081C384.792 104.081 384.772 104.081 384.749 104.081" stroke-width="1.18025" stroke-linecap="round" stroke-linejoin="round"/>
  <path stroke="currentColor" d="M385.619 104C385.642 104 385.67 104 385.693 104" stroke-width="1.18025" stroke-linecap="round" stroke-linejoin="round"/>
  <path stroke="currentColor" d="M384.714 104.034C384.834 104.027 384.954 104.019 385.074 104.011" stroke-width="1.18025" stroke-linecap="round" stroke-linejoin="round"/>
  <path stroke="currentColor" d="M384.382 104.065C384.401 104.065 384.425 104.062 384.444 104.058" stroke-width="1.18025" stroke-linecap="round" stroke-linejoin="round"/>
  <path stroke="currentColor" d="M437.215 118.841C436.975 118.883 436.731 118.93 436.491 118.976" stroke-width="1.18025" stroke-linecap="round" stroke-linejoin="round"/>
  <path stroke="currentColor" d="M436.462 118.984C436.462 118.984 436.482 118.984 436.494 118.98" stroke-width="1.18025" stroke-linecap="round" stroke-linejoin="round"/>
  <path stroke="currentColor" d="M436.461 118.984C436.318 119 436.178 119 436.035 118.984" stroke-width="1.18025" stroke-linecap="round" stroke-linejoin="round"/>
  <path stroke="currentColor" d="M440.377 120.644C439.085 120.106 437.8 119.557 436.516 118.996" stroke-width="1.18025" stroke-linecap="round" stroke-linejoin="round"/>
  <path stroke="currentColor" d="M449.747 125.113C449.406 124.919 449.062 124.726 448.718 124.536C448.404 124.366 448.091 124.2 447.777 124.033C447.05 123.654 446.315 123.287 445.572 122.934C443.862 122.122 442.121 121.375 440.376 120.64" stroke-width="1.18025" stroke-linecap="round" stroke-linejoin="round"/>
  <path stroke="currentColor" d="M354.462 111.432C354.47 111.413 354.477 111.39 354.485 111.37" stroke-width="1.18025" stroke-linecap="round" stroke-linejoin="round"/>
  <path stroke="currentColor" d="M352.532 110.886C352.369 111.188 352.253 111.501 352.176 111.838" stroke-width="1.18025" stroke-linecap="round" stroke-linejoin="round"/>
  <path stroke="currentColor" d="M352.636 110.732C352.597 110.778 352.562 110.829 352.531 110.883" stroke-width="1.18025" stroke-linecap="round" stroke-linejoin="round"/>
  <path stroke="currentColor" d="M363.906 121.754C363.756 121.135 363.589 120.516 363.396 119.909C363.206 119.317 362.99 118.737 362.742 118.172C362.328 117.228 361.817 116.318 361.163 115.521C360.598 114.833 359.925 114.233 359.179 113.738C358.792 113.482 358.385 113.254 357.971 113.041C357.294 112.693 356.602 112.387 355.913 112.062" stroke-width="1.18025" stroke-linecap="round" stroke-linejoin="round"/>
  <path stroke="currentColor" d="M440.222 118.59C440.659 118.605 439.912 118.284 439.703 118.191" stroke-width="1.18025" stroke-linecap="round" stroke-linejoin="round"/>
  <path stroke="currentColor" d="M437.216 118.841C438.214 118.651 439.204 118.566 440.222 118.586" stroke-width="1.18025" stroke-linecap="round" stroke-linejoin="round"/>
  <path stroke="currentColor" d="M363.906 121.754C365.28 121.827 366.657 121.905 368.031 121.986" stroke-width="0.5" stroke-linecap="round" stroke-linejoin="round"/>
  <path stroke="currentColor" d="M466.6 147.646C465.513 147.638 463.083 147.692 461.996 147.646C460.89 147.599 459.783 147.534 458.677 147.445C456.402 147.263 454.134 146.992 451.883 146.62C447.565 145.909 443.309 144.829 439.173 143.405" stroke-width="0.5" stroke-linecap="round" stroke-linejoin="round"/>
  <path stroke="currentColor" d="M352.907 110.569C352.787 110.589 352.705 110.635 352.636 110.736" stroke-width="1.18025" stroke-linecap="round" stroke-linejoin="round"/>
  <path stroke="currentColor" d="M355.913 112.059C354.899 111.587 353.897 111.088 352.91 110.565" stroke-width="1.18025" stroke-linecap="round" stroke-linejoin="round"/>
  <path stroke="currentColor" d="M355.151 106.101C355.151 106.101 355.143 106.101 355.139 106.101" stroke-width="1.18025" stroke-linecap="round" stroke-linejoin="round"/>
  <path stroke="currentColor" d="M440.376 143.792C438.891 143.313 437.417 142.794 435.958 142.241C434.399 141.649 432.851 141.018 431.319 140.357C426.626 138.341 422.037 136.093 417.387 133.988C415.681 133.215 413.967 132.464 412.237 131.744C409.231 130.491 406.186 129.334 403.091 128.312" stroke-width="0.5" stroke-linecap="round" stroke-linejoin="round"/>
  <path stroke="currentColor" d="M426.939 115.641C431.509 117.154 435.977 118.879 440.38 120.829" stroke-width="1.18025" stroke-linecap="round" stroke-linejoin="round"/>
  <path stroke="currentColor" d="M423.36 114.481C424.556 114.856 425.751 115.243 426.939 115.646" stroke-width="1.18025" stroke-linecap="round" stroke-linejoin="round"/>
  <path stroke="currentColor" d="M423.326 114.469L423.361 114.48" stroke-width="1.18025" stroke-linecap="round" stroke-linejoin="round"/>
  <path stroke="currentColor" d="M403.092 128.312C391.594 124.509 380.052 122.706 368.031 121.982" stroke-width="0.5" stroke-linecap="round" stroke-linejoin="round"/>
  <path stroke="currentColor" d="M423.325 114.469C421.34 113.846 419.344 113.258 417.336 112.708" stroke-width="1.18025" stroke-linecap="round" stroke-linejoin="round"/>
  <path stroke="currentColor" d="M390.641 104.839L398.553 104.839" stroke-width="2.36049" stroke-linecap="round" stroke-linejoin="round"/>
  <path stroke="currentColor" d="M381.464 104.839L381.538 104.839" stroke-width="1.18025" stroke-linecap="round" stroke-linejoin="round"/>
  <path stroke="currentColor" d="M402.743 108.047C402.376 107.989 402.008 107.927 401.637 107.873" stroke-width="1.18025" stroke-linecap="round" stroke-linejoin="round"/>
  <path stroke="currentColor" d="M401.308 108.778C401.385 108.766 401.466 108.755 401.544 108.747" stroke-width="1.18025" stroke-linecap="round" stroke-linejoin="round"/>
  <path stroke="currentColor" d="M399.296 105.118C399.37 105.118 399.223 105.118 399.188 105.118L391.021 105.118" stroke-width="1.18025" stroke-linecap="round" stroke-linejoin="round"/>
  <path stroke="currentColor" d="M401.922 108.244C401.941 108.251 401.965 108.259 401.984 108.271" stroke-width="1.18025" stroke-linecap="round" stroke-linejoin="round"/>
  <path stroke="currentColor" d="M369.864 145.294C369.868 145.294 369.868 145.29 369.868 145.286C369.868 145.278 369.868 145.271 369.868 145.263C369.868 145.224 369.86 145.185 369.853 145.143C369.787 144.768 369.713 144.396 369.652 144.025C369.559 143.471 369.489 142.914 369.396 142.365C369.33 141.982 369.253 141.603 369.168 141.224C369.029 140.601 368.866 139.985 368.696 139.374C368.456 138.511 368.201 137.656 367.941 136.801" stroke-width="1.18025" stroke-linecap="round" stroke-linejoin="round"/>
  <path stroke="currentColor" d="M370.007 145.487C369.957 145.425 369.911 145.359 369.864 145.293" stroke-width="2.36049" stroke-linecap="round" stroke-linejoin="round"/>
  <path stroke="currentColor" d="M374.86 147.468C373.374 147.739 371.85 147.298 370.735 146.276" stroke-width="2.36049" stroke-linecap="round" stroke-linejoin="round"/>
  <path stroke="currentColor" d="M369.594 144.492C369.679 144.759 369.71 145.038 369.865 145.289" stroke-width="2.36049" stroke-linecap="round" stroke-linejoin="round"/>
  <path stroke="currentColor" d="M369.439 144.024C369.494 144.179 369.544 144.338 369.59 144.496" stroke-width="2.36049" stroke-linecap="round" stroke-linejoin="round"/>
  <path stroke="currentColor" d="M355.31 128.034L355.321 128.053" stroke-width="1.18025" stroke-linecap="round" stroke-linejoin="round"/>
  <path stroke="currentColor" d="M367.946 136.797C366.491 131.999 365.361 127.121 364.038 122.292" stroke-width="1.18025" stroke-linecap="round" stroke-linejoin="round"/>
  <path stroke="currentColor" d="M423.329 160.75C419.712 159.492 416.168 158.08 412.674 156.509" stroke-width="2.36049" stroke-linecap="round" stroke-linejoin="round"/>
  <path stroke="currentColor" d="M454.414 163.768C453.354 164.097 452.274 164.348 451.183 164.542C450.104 164.731 449.013 164.859 447.918 164.936C445.519 165.107 443.105 165.033 440.71 164.801C437.889 164.526 435.096 164.031 432.337 163.385C429.288 162.669 426.286 161.775 423.326 160.754" stroke-width="2.36049" stroke-linecap="round" stroke-linejoin="round"/>
  <path stroke="currentColor" d="M354.326 128.019C354.442 128.266 354.558 128.514 354.678 128.758" stroke-width="1.18025" stroke-linecap="round" stroke-linejoin="round"/>
  <path stroke="currentColor" d="M358.985 151.031C358.831 151.155 358.672 151.221 358.475 151.244" stroke-width="1.18025" stroke-linecap="round" stroke-linejoin="round"/>
  <path stroke="currentColor" d="M358.184 151.089C358.253 151.213 358.334 151.255 358.474 151.24" stroke-width="2.36049" stroke-linecap="round" stroke-linejoin="round"/>
  <path stroke="currentColor" d="M364.413 138.36C364.355 139.006 364.262 139.644 364.142 140.283C364.019 140.937 363.86 141.583 363.674 142.221C363.299 143.502 362.8 144.744 362.196 145.935C361.864 146.597 361.496 147.247 361.101 147.874C360.753 148.423 360.382 148.957 359.975 149.464C359.778 149.715 359.569 149.959 359.353 150.191C359.194 150.362 359.028 150.524 358.85 150.679C358.706 150.803 358.556 150.919 358.389 151.008C358.281 151.066 358.165 151.112 358.037 151.116" stroke-width="1.18025" stroke-linecap="round" stroke-linejoin="round"/>
  <path stroke="currentColor" d="M369.33 144.095C368.459 144.281 367.906 144.287 367.017 144.345" stroke-width="2.36049" stroke-linecap="round" stroke-linejoin="round"/>
  <path stroke="currentColor" d="M363.024 128.568C364.131 131.798 364.719 134.905 364.413 138.36" stroke-width="1.18025" stroke-linecap="round" stroke-linejoin="round"/>
  <path stroke="currentColor" d="M360.776 126.649C362.076 126.637 362.695 127.434 363.024 128.568" stroke-width="1.18025" stroke-linecap="round" stroke-linejoin="round"/>
  <path stroke="currentColor" d="M358.037 151.112C358.009 151.112 357.986 151.112 357.959 151.104" stroke-width="1.18025" stroke-linecap="round" stroke-linejoin="round"/>
  <path stroke="currentColor" d="M354.814 132.583L354.834 132.583" stroke-width="2.36049" stroke-linecap="round" stroke-linejoin="round"/>
  <path stroke="currentColor" d="M354.675 132.116C354.713 132.247 354.752 132.379 354.787 132.51" stroke-width="2.36049" stroke-linecap="round" stroke-linejoin="round"/>
  <path stroke="currentColor" d="M355.012 133.334C355.035 133.42 355.054 133.505 355.077 133.59" stroke-width="2.36049" stroke-linecap="round" stroke-linejoin="round"/>
  <path stroke="currentColor" d="M354.969 133.176C354.98 133.226 354.996 133.276 355.007 133.331" stroke-width="2.36049" stroke-linecap="round" stroke-linejoin="round"/>
  <path stroke="currentColor" d="M389.206 103.872C388.618 103.88 384.126 103.934 383.538 103.988" stroke-width="1.18025" stroke-linecap="round" stroke-linejoin="round"/>
  <path stroke="currentColor" d="M393.609 103.868C393.238 103.799 392.874 103.853 392.506 103.849C392.139 103.849 391.771 103.849 391.404 103.849C390.669 103.849 389.933 103.861 389.202 103.868" stroke-width="1.18025" stroke-linecap="round" stroke-linejoin="round"/>
  <path stroke="currentColor" d="M383.538 103.988C383.538 103.988 383.511 103.988 383.499 103.992" stroke-width="1.18025" stroke-linecap="round" stroke-linejoin="round"/>
  <path stroke="currentColor" d="M395.59 100.707C395.59 100.707 395.562 100.711 395.547 100.715" stroke-width="1.18025" stroke-linecap="round" stroke-linejoin="round"/>
  <path stroke="currentColor" d="M381.503 100.87C382.25 100.796 387.802 100.722 388.548 100.715C389.725 100.699 390.897 100.688 392.073 100.68C392.661 100.68 393.249 100.672 393.833 100.672C394.275 100.672 394.712 100.672 395.153 100.68C395.23 100.68 395.52 100.599 395.594 100.699" stroke-width="1.18025" stroke-linecap="round" stroke-linejoin="round"/>
  <path stroke="currentColor" d="M381.444 100.881C381.444 100.881 381.484 100.87 381.503 100.87" stroke-width="1.18025" stroke-linecap="round" stroke-linejoin="round"/>
  <path stroke="currentColor" d="M381.499 100.889C381.499 100.889 381.468 100.889 381.456 100.885" stroke-width="1.18025" stroke-linecap="round" stroke-linejoin="round"/>
  <path stroke="currentColor" d="M393.578 100.908C393.748 100.858 393.4 100.893 393.311 100.893C392.982 100.885 392.657 100.885 392.328 100.885C391.906 100.885 391.489 100.885 391.067 100.889C390.227 100.893 389.388 100.9 388.548 100.912C387.709 100.924 386.869 100.935 386.026 100.951C385.186 100.966 384.346 100.943 383.503 101.024" stroke-width="1.18025" stroke-linecap="round" stroke-linejoin="round"/>
  <path stroke="currentColor" d="M383.504 101.024C383.504 101.024 383.477 101.024 383.465 101.028" stroke-width="1.18025" stroke-linecap="round" stroke-linejoin="round"/>
</svg>
