<?xml version="1.0"?>
<svg xmlns="http://www.w3.org/2000/svg" viewBox="0 0 36 36" fill="none">
  <path d="M28 4.05005H8C6.93913 4.05005 5.92172 4.47148 5.17157 5.22162C4.42143 5.97177 4 6.98918 4 8.05005V28.05C4 29.1109 4.42143 30.1283 5.17157 30.8785C5.92172 31.6286 6.93913 32.05 8 32.05H28C29.0609 32.05 30.0783 31.6286 30.8284 30.8785C31.5786 30.1283 32 29.1109 32 28.05V8.05005C32 6.98918 31.5786 5.97177 30.8284 5.22162C30.0783 4.47148 29.0609 4.05005 28 4.05005ZM18 27.05C16.22 27.05 14.4799 26.5222 12.9999 25.5333C11.5198 24.5443 10.3663 23.1387 9.68508 21.4942C9.0039 19.8497 8.82567 18.0401 9.17293 16.2942C9.5202 14.5484 10.3774 12.9448 11.636 11.6861C12.8947 10.4274 14.4984 9.57025 16.2442 9.22298C17.99 8.87571 19.7996 9.05394 21.4442 9.73513C23.0887 10.4163 24.4943 11.5699 25.4832 13.0499C26.4722 14.53 27 16.27 27 18.05C27 20.437 26.0518 22.7262 24.364 24.414C22.6761 26.1018 20.3869 27.05 18 27.05ZM27 11.05C26.6044 11.05 26.2178 10.9328 25.8889 10.713C25.56 10.4932 25.3036 10.1809 25.1522 9.81542C25.0009 9.44996 24.9613 9.04783 25.0384 8.65987C25.1156 8.27191 25.3061 7.91554 25.5858 7.63584C25.8655 7.35613 26.2219 7.16565 26.6098 7.08848C26.9978 7.01131 27.3999 7.05091 27.7654 7.20229C28.1308 7.35366 28.4432 7.61001 28.6629 7.93891C28.8827 8.26781 29 8.65449 29 9.05005C29 9.58048 28.7893 10.0892 28.4142 10.4643C28.0391 10.8393 27.5304 11.05 27 11.05Z" fill="currentColor"/>
  <path d="M18 23.05C20.7614 23.05 23 20.8115 23 18.05C23 15.2886 20.7614 13.05 18 13.05C15.2386 13.05 13 15.2886 13 18.05C13 20.8115 15.2386 23.05 18 23.05Z" fill="currentColor"/>
</svg>
