<?xml version="1.0"?>
<svg viewBox="0 0 36 36" fill="none" xmlns="http://www.w3.org/2000/svg">
  <path d="M24.1834 21.543C20.7146 21.543 17.9004 24.3572 17.9004 27.826C17.9004 31.2947 20.7146 34.109 24.1834 34.109C27.6521 34.109 30.4664 31.2947 30.4664 27.826C30.4664 24.3572 27.6521 21.543 24.1834 21.543ZM27.1613 26.9097L24.0198 30.0512C23.8561 30.2148 23.6271 30.313 23.398 30.313C23.169 30.313 22.9398 30.2148 22.7762 30.0512L21.2054 28.4804C20.8455 28.1205 20.8455 27.5641 21.2054 27.2041C21.5653 26.8442 22.1217 26.8442 22.4817 27.2041L23.398 28.1205L25.885 25.6335C26.2449 25.2735 26.8013 25.2735 27.1612 25.6335C27.5212 25.9607 27.5212 26.5498 27.1612 26.9097L27.1613 26.9097Z" fill="currentColor"/>
  <path d="M24.184 19.7425C24.4785 19.7425 24.8058 19.7752 25.1003 19.8079L25.1002 4.78763C25.1002 3.80591 24.3148 3.02051 23.3331 3.02051H7.29837C6.31665 3.02051 5.53125 3.80591 5.53125 4.78763V24.5856C5.53125 25.5673 6.31665 26.3527 7.29837 26.3527H16.1993C16.9192 22.5895 20.2243 19.7425 24.1839 19.7425L24.184 19.7425ZM10.4072 6.71838H20.1917C20.6825 6.71838 21.108 7.11102 21.108 7.63471C21.108 8.12557 20.7154 8.55103 20.1917 8.55103L10.4072 8.55093C9.91636 8.55093 9.4909 8.15829 9.4909 7.6346C9.5236 7.14374 9.91636 6.71838 10.4072 6.71838ZM10.4072 11.4306H20.1917C20.6825 11.4306 21.108 11.8233 21.108 12.347C21.108 12.8705 20.7154 13.2633 20.1917 13.2633H10.4072C9.91636 13.2633 9.4909 12.8706 9.4909 12.347C9.4909 11.8234 9.91636 11.4306 10.4072 11.4306ZM13.8432 22.6549H10.4072C9.91636 22.6549 9.4909 22.2623 9.4909 21.7386C9.4909 21.2478 9.88353 20.8223 10.4072 20.8223H13.8432C14.3341 20.8223 14.7596 21.2149 14.7596 21.7386C14.7595 22.2623 14.3341 22.6549 13.8432 22.6549ZM10.4072 17.9427C9.91636 17.9427 9.4909 17.5501 9.4909 17.0264C9.4909 16.5028 9.88353 16.11 10.4072 16.11H20.1917C20.6825 16.11 21.108 16.5027 21.108 17.0264C21.108 17.5499 20.7154 17.9427 20.1917 17.9427H10.4072Z" fill="currentColor"/>
</svg>
