<?xml version="1.0"?>
<svg xmlns="http://www.w3.org/2000/svg" viewBox="0 0 800 574" fill="none">
  <path stroke="currentColor" d="M699.371 91.7085C699.371 91.7085 559.781 16.8525 400.791 16.8525C241.849 16.8525 81.819 102.681 81.819 102.681C39.954 132.173 22.3154 172.516 21.1116 212.104M25.1135 183.712C18.9256 208.853 8.87025 343.536 12.7376 414.469C16.6051 485.402 23.5666 557.233 69.9758 561.722C116.385 566.212 119.479 507.849 124.893 486.3C128.565 471.689 142.548 410.434 151.172 372.504C156.037 375.564 160.523 379.033 164.52 383.197C181.968 401.37 185.185 437.031 205.886 458.41C235.058 488.539 283.03 504.171 335.557 470.899C379.322 443.177 387.416 383.662 364.538 348.532C344.733 318.122 333.734 312.636 322.323 299.08C344.224 294.335 369.414 291.481 398.326 291.481C427.925 291.481 453.857 294.623 476.481 299.772C465.277 312.832 454.318 318.644 434.853 348.532C411.975 383.662 420.069 443.178 463.834 470.899C516.361 504.172 564.333 488.539 593.505 458.411C614.206 437.031 617.423 401.37 634.871 383.197C638.197 379.733 641.861 376.749 645.801 374.082M774.766 184.526C781.105 209.667 791.406 344.35 787.444 415.283C783.482 486.216 776.351 558.047 728.806 562.536C681.261 567.025 678.091 508.663 672.544 487.113C668.808 472.6 654.649 412.065 645.801 374.082M645.801 374.082C674.967 354.337 719.224 351.955 753.121 300.46C789.763 244.791 793.263 156.001 717.572 102.681C711.386 98.3228 705.095 94.5734 698.742 91.3916" stroke-width="8"/>
  <path stroke="currentColor" opacity="0.5" d="M322.323 299.08C319.384 295.589 316.418 291.562 313.267 286.437C293.426 254.163 316.203 189.769 272.773 130.831C237.352 82.7623 152.747 52.7153 81.8193 102.68C6.1287 156.001 9.62819 244.791 46.2709 300.459C79.2431 350.55 122.019 354.17 151.172 372.503M476.481 299.771C479.613 296.121 482.764 291.904 486.125 286.437C505.966 254.163 483.189 189.769 526.618 130.831C562.04 82.7623 646.645 52.7153 717.572 102.68C793.263 156.001 789.764 244.791 753.121 300.459C719.224 351.955 674.967 354.337 645.801 374.081" stroke-width="4"/>
  <path onClick="" stroke="currentColor" d="M739.154 100.391L735.24 110.004C735.24 110.004 650.16 64.1629 628.957 61.1345L632.87 51.5212C684.988 47.4878 739.154 100.391 739.154 100.391Z" stroke-width="4" stroke-miterlimit="10"/>
  <path onClick="" stroke="currentColor" d="M175.598 63.4539L172.087 53.6866C120.181 47.496 63.8683 98.1077 63.8683 98.1077L67.3798 107.875M63.9793 98.1601L67.4909 107.927C67.4909 107.927 154.398 65.653 175.709 63.5063L172.198 53.7389C120.374 47.5189 63.9793 98.1601 63.9793 98.1601Z" stroke-width="4" stroke-miterlimit="10"/>
  <path onClick="" stroke="currentColor" d="M287.738 376.263H326.098C327.664 376.263 329.165 376.884 330.271 377.991C331.378 379.098 332 380.599 332 382.164V401.836C332 403.402 331.378 404.903 330.271 406.01C329.165 407.116 327.664 407.738 326.098 407.738H287.738L272 392L287.738 376.263Z" stroke-width="4" stroke-miterlimit="10"/>
  <path onClick="" stroke="currentColor" d="M217.902 376.263H256.262L272 392L256.262 407.738H217.902C216.336 407.738 214.835 407.116 213.729 406.01C212.622 404.903 212 403.402 212 401.836V382.164C212 380.599 212.622 379.098 213.729 377.991C214.835 376.884 216.336 376.263 217.902 376.263Z" stroke-width="4" stroke-miterlimit="10"/>
  <path onClick="" stroke="currentColor" d="M256.262 446.098V407.738L272 392L287.738 407.738V446.098C287.738 447.664 287.116 449.165 286.009 450.271C284.902 451.378 283.401 452 281.836 452H262.164C260.599 452 259.097 451.378 257.991 450.271C256.884 449.165 256.262 447.664 256.262 446.098Z" stroke-width="4" stroke-miterlimit="10"/>
  <path onClick="" stroke="currentColor" d="M287.738 337.902V376.262L272 392L256.262 376.262V337.902C256.262 336.336 256.884 334.835 257.991 333.729C259.097 332.622 260.599 332 262.164 332H281.836C283.401 332 284.902 332.622 286.009 333.729C287.116 334.835 287.738 336.336 287.738 337.902Z" stroke-width="4" stroke-miterlimit="10"/>
  <path stroke="currentColor" d="M326.098 376.262H287.738V337.902C287.738 336.336 287.116 334.835 286.009 333.729C284.902 332.622 283.401 332 281.836 332H262.164C260.599 332 259.098 332.622 257.991 333.729C256.884 334.835 256.262 336.336 256.262 337.902V376.262H217.902C216.336 376.262 214.835 376.884 213.729 377.991C212.622 379.098 212 380.599 212 382.164V401.836C212 403.401 212.622 404.902 213.729 406.009C214.835 407.116 216.336 407.738 217.902 407.738H256.262V446.098C256.262 447.664 256.884 449.165 257.991 450.271C259.098 451.378 260.599 452 262.164 452H281.836C283.401 452 284.902 451.378 286.009 450.271C287.116 449.165 287.738 447.664 287.738 446.098V407.738H326.098C327.664 407.738 329.165 407.116 330.271 406.009C331.378 404.902 332 403.401 332 401.836V382.164C332 380.599 331.378 379.098 330.271 377.991C329.165 376.884 327.664 376.262 326.098 376.262V376.262Z" stroke-width="4" stroke-miterlimit="10"/>
  <path fill="currentColor" d="M271.665 354.131H266.747L269.206 349.41L271.665 344.688L274.124 349.41L276.583 354.131H271.665Z"/>
  <path fill="currentColor" d="M271.665 430.853H266.747L269.206 435.574L271.665 440.295L274.124 435.574L276.583 430.853H271.665Z"/>
  <path fill="currentColor" d="M309.869 392.491V387.573L314.59 390.032L319.292 392.491L314.59 394.95L309.869 397.409V392.491Z"/>
  <path fill="currentColor" d="M233.147 392.491V387.573L228.426 390.032L223.705 392.491L228.426 394.95L233.147 397.409V392.491Z"/>
  <path stroke="currentColor" d="M369.982 228H347.688C343.994 228 341 230.994 341 234.688V256.982C341 260.676 343.994 263.67 347.688 263.67H369.982C373.676 263.67 376.67 260.676 376.67 256.982V234.688C376.67 230.994 373.676 228 369.982 228Z" stroke-width="4" stroke-miterlimit="10"/>
  <path stroke="currentColor" d="M358.835 259.212C366.223 259.212 372.212 253.223 372.212 245.835C372.212 238.448 366.223 232.459 358.835 232.459C351.448 232.459 345.459 238.448 345.459 245.835C345.459 253.223 351.448 259.212 358.835 259.212Z" stroke-width="2" stroke-miterlimit="10"/>
  <path stroke="currentColor" d="M436.835 263.67C446.685 263.67 454.67 255.685 454.67 245.835C454.67 235.985 446.685 228 436.835 228C426.985 228 419 235.985 419 245.835C419 255.685 426.985 263.67 436.835 263.67Z" stroke-width="4" stroke-miterlimit="10"/>
  <path stroke="currentColor" d="M443.949 241.871H429.701V254.574H443.949V241.871Z" stroke-width="2" stroke-miterlimit="10"/>
  <path fill="currentColor" d="M436.835 242.862H426.134L431.484 238.582L436.835 234.321L442.165 238.582L447.516 242.862H436.835Z"/>
  <path fill="currentColor" d="M437.964 246.825H435.725C435.178 246.825 434.734 247.269 434.734 247.816V250.055C434.734 250.603 435.178 251.046 435.725 251.046H437.964C438.512 251.046 438.955 250.603 438.955 250.055V247.816C438.955 247.269 438.512 246.825 437.964 246.825Z"/>
  <path onClick="" stroke="currentColor" d="M457.065 203.129C468.146 203.129 477.129 194.146 477.129 183.065C477.129 171.983 468.146 163 457.065 163C445.983 163 437 171.983 437 183.065C437 194.146 445.983 203.129 457.065 203.129Z" stroke-width="4" stroke-miterlimit="10"/>
  <path fill="currentColor" d="M469.884 180.411H459.851V170.379H455.393V180.411H445.36V184.87H455.393V194.902H459.851V184.87H469.884V180.411Z"/>
  <path onClick="" stroke="currentColor" d="M339.065 203.129C350.146 203.129 359.129 194.146 359.129 183.065C359.129 171.983 350.146 163 339.065 163C327.983 163 319 171.983 319 183.065C319 194.146 327.983 203.129 339.065 203.129Z" stroke-width="4" stroke-miterlimit="10"/>
  <path fill="currentColor" d="M351.326 185.294V180.835H326.803V185.294H351.326Z"/>
  <path stroke="currentColor" opacity="0.5" d="M544.184 234.131C543.314 228.973 542.861 223.674 542.861 218.27C542.861 193.618 552.286 171.146 567.76 154.199M571.069 285.789C588.521 303.097 612.64 313.803 639.283 313.803C686.415 313.803 725.648 280.3 734.045 236.019M658.417 124.618C674.789 127.884 689.66 135.258 701.887 145.609" stroke-width="4"/>
  <path onClick="" stroke="currentColor" d="M599.229 117.139C591.114 120.795 555.407 139.072 570.826 161.005C589.896 181.313 600.446 160.599 616.677 152.882C637.776 144.759 659.282 156.537 659.282 128.918C657.659 102.924 607.344 113.484 599.229 117.139Z" stroke-width="4"/>
  <path stroke="currentColor" fill="currentColor" d="M611.521 137.983L611.481 137.891L605.653 124.012L605.647 123.996L605.64 123.981L605.57 123.822C605.52 123.687 605.503 123.581 605.501 123.503C605.509 123.502 605.518 123.5 605.529 123.5H609.286C609.347 123.5 609.372 123.514 609.379 123.52C609.383 123.523 609.41 123.542 609.432 123.619L609.438 123.64L609.445 123.66L612.624 131.997L612.633 132.021L612.644 132.043L612.645 132.044L612.654 132.063C612.66 132.074 612.668 132.09 612.678 132.107C612.697 132.142 612.725 132.19 612.759 132.241C612.79 132.289 612.838 132.356 612.899 132.417C612.93 132.448 612.976 132.488 613.036 132.524C613.094 132.559 613.197 132.608 613.332 132.608C613.597 132.608 613.765 132.453 613.853 132.336C613.922 132.243 613.98 132.121 614.02 132.043L614.031 132.021L614.04 131.997L617.219 123.66L617.226 123.64L617.231 123.619C617.254 123.542 617.281 123.523 617.285 123.52C617.293 123.514 617.317 123.5 617.377 123.5H621.134C621.144 123.5 621.154 123.501 621.162 123.501C621.162 123.589 621.162 123.647 621.149 123.709C621.143 123.739 621.134 123.771 621.119 123.808L621.055 123.928L621.028 123.968L621.01 124.012L615.183 137.891L615.144 137.983V145.745L615.143 145.758C615.141 145.775 615.138 145.797 615.133 145.819C615.13 145.832 615.125 145.84 615.123 145.847C615.051 145.9 615.027 145.914 615.018 145.918C615.016 145.919 615.016 145.919 615.014 145.919C615.01 145.92 614.996 145.922 614.969 145.922H611.699C611.697 145.922 611.691 145.922 611.684 145.921C611.667 145.919 611.645 145.916 611.622 145.911C611.608 145.908 611.598 145.904 611.592 145.901V145.9L611.566 145.875L611.529 145.826C611.527 145.821 611.521 145.801 611.521 145.747V137.983Z"/>
  <path onClick="" stroke="currentColor" d="M742.149 176.382C738.498 168.259 720.238 132.516 698.327 147.95C678.039 167.04 698.733 177.6 706.442 193.847C714.558 214.967 702.791 236.494 730.382 236.494C756.351 234.869 745.801 184.505 742.149 176.382Z" stroke-width="4"/>
  <path stroke="currentColor" fill="currentColor" d="M715.156 178.5H718.913C718.917 178.5 718.924 178.501 718.933 178.501C718.951 178.502 718.975 178.503 718.998 178.507C718.999 178.507 719.001 178.507 719.002 178.507L719.032 178.522C719.034 178.524 719.036 178.527 719.038 178.529C719.061 178.562 719.092 178.613 719.13 178.688L721.916 185.562L721.924 185.579L721.933 185.597L722.38 185.373L721.933 185.598L721.934 185.599L721.935 185.601C721.935 185.602 721.936 185.604 721.937 185.605C721.938 185.609 721.941 185.613 721.943 185.618C721.949 185.628 721.956 185.64 721.965 185.655C721.982 185.684 722.007 185.725 722.04 185.77C722.071 185.811 722.121 185.872 722.189 185.927C722.251 185.976 722.384 186.066 722.572 186.066C722.717 186.066 722.894 186.025 723.041 185.878C723.145 185.774 723.196 185.648 723.227 185.561L723.229 185.562L726.008 178.703C726.011 178.698 726.014 178.693 726.018 178.688C726.035 178.659 726.058 178.621 726.083 178.584C726.101 178.557 726.118 178.534 726.132 178.516C726.138 178.513 726.143 178.51 726.147 178.509C726.157 178.506 726.18 178.5 726.232 178.5H729.989C730.043 178.5 730.084 178.504 730.114 178.508C730.114 178.532 730.115 178.551 730.114 178.569C730.113 178.592 730.112 178.606 730.11 178.616C730.108 178.631 730.105 178.635 730.103 178.639L730.08 178.673L730.062 178.711L725.729 188.35L725.725 188.358L725.721 188.368L726.185 188.555C725.77 188.389 725.725 188.371 725.721 188.369H725.72V188.371C725.719 188.372 725.718 188.373 725.718 188.374C725.717 188.377 725.716 188.381 725.714 188.386C725.71 188.395 725.705 188.408 725.699 188.423C725.688 188.453 725.673 188.497 725.658 188.546C725.633 188.627 725.588 188.786 725.588 188.939C725.588 189.024 725.593 189.246 725.727 189.525V189.526L730.444 200.269V200.27C730.517 200.44 730.57 200.566 730.604 200.67C730.64 200.776 730.646 200.826 730.646 200.844C730.646 200.851 730.645 200.858 730.645 200.864C730.629 200.867 730.604 200.873 730.567 200.873H726.57C726.509 200.873 726.485 200.859 726.478 200.854C726.473 200.85 726.447 200.831 726.425 200.754L726.418 200.731L726.409 200.71L723.327 192.807L723.319 192.785L723.309 192.765V192.764L723.308 192.763L723.305 192.757L723.277 192.706C723.261 192.677 723.234 192.636 723.201 192.592C723.17 192.551 723.12 192.489 723.052 192.435C722.998 192.391 722.889 192.317 722.737 192.299L722.669 192.295C722.524 192.295 722.348 192.337 722.201 192.483C722.143 192.542 722.1 192.607 722.068 192.668L722.011 192.807L718.928 200.71L718.92 200.731L718.913 200.754C718.891 200.83 718.865 200.85 718.86 200.854C718.853 200.859 718.829 200.873 718.768 200.873H714.578L714.558 200.872C714.541 200.871 714.522 200.868 714.503 200.865C714.502 200.859 714.5 200.852 714.5 200.844C714.5 200.826 714.506 200.776 714.541 200.67C714.576 200.566 714.627 200.439 714.7 200.27L714.699 200.269L719.418 189.526L719.422 189.519L719.425 189.511V189.51L719.426 189.509C719.426 189.508 719.426 189.506 719.427 189.505C719.428 189.502 719.43 189.499 719.432 189.494C719.435 189.485 719.44 189.472 719.445 189.456C719.456 189.426 719.471 189.383 719.486 189.334C719.511 189.253 719.557 189.093 719.557 188.939C719.557 188.877 719.558 188.766 719.535 188.649C719.512 188.534 719.468 188.429 719.405 188.324L715.098 178.746C715.096 178.741 715.095 178.736 715.094 178.73C715.085 178.7 715.074 178.658 715.063 178.614C715.054 178.576 715.045 178.538 715.038 178.507C715.068 178.503 715.107 178.5 715.156 178.5Z"/>
  <path onClick="" stroke="currentColor" d="M550.943 293.821C567.526 293.821 580.97 280.365 580.97 263.765C580.97 247.166 567.526 233.709 550.943 233.709C534.36 233.709 520.917 247.166 520.917 263.765C520.917 280.365 534.36 293.821 550.943 293.821Z" stroke-width="4"/>
  <path stroke="currentColor" fill="currentColor" d="M543.674 252.5H551.235C552.506 252.5 553.572 252.771 554.545 253.346L554.552 253.351L554.56 253.354C555.413 253.82 556.093 254.453 556.606 255.258L556.816 255.613L556.821 255.621C557.355 256.555 557.622 257.578 557.622 258.699C557.622 260.26 557.152 261.512 556.266 262.49L556.083 262.683C556.005 262.76 555.927 262.858 555.871 262.983C555.814 263.111 555.792 263.243 555.792 263.373C555.792 263.409 555.787 263.548 555.842 263.693C555.897 263.84 555.994 263.953 556.113 264.043V264.044C556.623 264.475 557.048 264.962 557.347 265.563L557.467 265.829C557.777 266.582 557.911 267.336 557.911 268.145C557.911 270.264 557.315 271.908 556.131 273.093C554.939 274.285 553.34 274.922 551.235 274.922H544.174V274.873H543.68L543.663 274.872C543.647 274.871 543.625 274.868 543.603 274.862C543.587 274.859 543.577 274.854 543.57 274.852L543.546 274.827L543.509 274.778C543.507 274.773 543.5 274.753 543.5 274.699V252.68C543.5 252.677 543.5 252.672 543.501 252.664C543.502 252.647 543.505 252.625 543.511 252.603C543.514 252.59 543.517 252.581 543.52 252.574C543.592 252.521 543.617 252.508 543.626 252.504C543.628 252.503 543.628 252.503 543.63 252.503L543.674 252.5ZM547.871 265.062H547.87L547.868 265.062C547.867 265.063 547.866 265.063 547.865 265.063C547.863 265.064 547.86 265.064 547.856 265.065C547.85 265.067 547.843 265.07 547.835 265.073C547.818 265.079 547.795 265.087 547.769 265.098C547.718 265.118 547.645 265.151 547.569 265.2C547.439 265.284 547.172 265.5 547.172 265.88V270.479L547.19 270.547L547.191 270.548V270.55L547.195 270.562C547.197 270.568 547.199 270.575 547.202 270.584C547.208 270.601 547.216 270.624 547.227 270.649C547.247 270.7 547.28 270.773 547.329 270.849C547.413 270.979 547.628 271.247 548.009 271.247H551.735V271.155C552.341 271.054 552.883 270.763 553.308 270.244C553.805 269.636 554.096 268.949 554.096 268.097C554.096 267.248 553.807 266.55 553.293 265.979C552.774 265.402 552.065 265.042 551.235 265.042H547.938L547.871 265.062ZM547.871 256.194H547.868L547.856 256.198C547.851 256.2 547.843 256.202 547.835 256.205C547.818 256.211 547.795 256.22 547.769 256.23C547.718 256.251 547.645 256.284 547.569 256.333C547.439 256.417 547.172 256.632 547.172 257.012V260.841L547.19 260.908L547.191 260.909V260.911L547.195 260.923C547.197 260.929 547.199 260.937 547.202 260.945C547.208 260.963 547.216 260.986 547.227 261.012C547.247 261.063 547.281 261.134 547.329 261.21C547.413 261.34 547.628 261.608 548.009 261.608H551.235C551.962 261.608 552.615 261.302 553.13 260.787C553.645 260.272 553.951 259.619 553.951 258.892C553.951 258.255 553.717 257.675 553.313 257.195L553.13 256.996C552.615 256.481 551.962 256.175 551.235 256.175H547.938L547.871 256.194Z"/>
  <path onClick="" stroke="currentColor" d="M640.211 265.387C667.102 265.387 688.902 243.566 688.902 216.648C688.902 189.73 667.102 167.908 640.211 167.908C613.319 167.908 591.52 189.73 591.52 216.648C591.52 243.566 613.319 265.387 640.211 265.387Z" stroke-width="4"/>
  <path stroke="currentColor" fill="currentColor" d="M637.598 205.5H642.077C642.174 205.5 642.188 205.52 642.177 205.512C642.171 205.508 642.174 205.508 642.184 205.523L642.222 205.619L648.047 227.346V227.347L648.05 227.354C648.095 227.515 648.128 227.647 648.149 227.747C648.173 227.859 648.175 227.9 648.175 227.892C648.175 227.895 648.174 227.898 648.174 227.9C648.138 227.914 648.101 227.922 648.049 227.922H644.533C644.472 227.922 644.447 227.907 644.44 227.902C644.438 227.901 644.431 227.895 644.421 227.88L644.388 227.803L644.387 227.798L643.375 224.376L643.362 224.334L643.343 224.295V224.294L643.341 224.291C643.34 224.289 643.339 224.286 643.337 224.282C643.333 224.274 643.326 224.262 643.319 224.248C643.305 224.219 643.286 224.18 643.265 224.138L643.15 223.909L643.109 223.839C643.008 223.685 642.861 223.6 642.716 223.563C642.595 223.533 642.464 223.536 642.414 223.536H637.357V224.036C637.357 223.536 637.357 223.536 637.356 223.536H637.333C637.321 223.536 637.305 223.538 637.287 223.539C637.251 223.541 637.2 223.545 637.143 223.555C637.072 223.566 636.89 223.6 636.732 223.722L636.666 223.779C636.529 223.917 636.449 224.059 636.393 224.224L636.342 224.396L635.432 227.803C635.402 227.907 635.375 227.918 635.386 227.91C635.398 227.901 635.385 227.922 635.286 227.922H631.622C631.616 227.922 631.607 227.921 631.595 227.92C631.569 227.918 631.536 227.915 631.504 227.91C631.503 227.91 631.501 227.909 631.5 227.909C631.5 227.904 631.5 227.898 631.5 227.892C631.5 227.828 631.498 227.664 631.604 227.414L631.618 227.381L631.627 227.347L637.455 205.611C637.477 205.54 637.502 205.523 637.506 205.52C637.513 205.514 637.538 205.5 637.598 205.5ZM639.439 210.367L639.438 210.368H639.438L639.437 210.369C639.435 210.37 639.434 210.371 639.433 210.372C639.43 210.374 639.428 210.375 639.426 210.377C639.42 210.381 639.414 210.385 639.407 210.39C639.394 210.4 639.379 210.413 639.362 210.428C639.329 210.458 639.287 210.5 639.245 210.556C639.169 210.657 639.09 210.809 639.075 211.005L637.493 218.828L637.483 218.878V219.105L637.509 219.182L637.983 219.024L637.509 219.183V219.184L637.51 219.185C637.51 219.185 637.51 219.186 637.511 219.188C637.511 219.19 637.513 219.192 637.514 219.194C637.516 219.2 637.518 219.207 637.521 219.215C637.526 219.23 637.534 219.25 637.544 219.272C637.564 219.317 637.595 219.38 637.64 219.446C637.708 219.549 637.911 219.813 638.272 219.813H641.354V219.425C641.504 219.773 641.504 219.773 641.504 219.772H641.505L641.506 219.771C641.507 219.771 641.508 219.771 641.509 219.771C641.511 219.77 641.514 219.768 641.517 219.767C641.523 219.764 641.531 219.761 641.539 219.757C641.556 219.749 641.577 219.737 641.603 219.723C641.652 219.695 641.721 219.653 641.792 219.593C641.897 219.504 642.104 219.289 642.101 218.972L642.086 218.83L642.085 218.828L640.496 210.973L640.49 210.943L640.48 210.914V210.913L640.479 210.912C640.479 210.911 640.479 210.91 640.479 210.908C640.478 210.905 640.476 210.901 640.475 210.896C640.471 210.887 640.467 210.873 640.461 210.857C640.45 210.826 640.432 210.781 640.413 210.735C640.395 210.693 640.369 210.632 640.336 210.576C640.321 210.55 640.292 210.504 640.25 210.458C640.229 210.435 640.191 210.397 640.138 210.363C640.085 210.33 639.989 210.283 639.861 210.283H639.565L639.439 210.367Z"/>
  <path stroke="currentColor" opacity="0.5" d="M164.651 313.803C217.903 313.803 261.073 271.031 261.073 218.27C261.073 165.509 217.903 122.737 164.651 122.737C111.398 122.737 68.228 165.509 68.228 218.27C68.228 271.031 111.398 313.803 164.651 313.803Z" stroke-width="4"/>
  <path stroke="currentColor" opacity="0.5" d="M207.969 177.564C204.618 174.21 173.076 159.64 165.205 159.64C157.334 159.64 126.684 173.39 122.552 177.526C118.218 181.864 104.822 214.125 104.618 220.426C104.419 226.579 117.448 258.347 122.278 263.181C127.589 268.497 157.115 280.544 164.987 280.741C172.858 280.938 202.499 267.716 207.544 263.256C212.663 258.73 225.665 226.468 225.665 220.349C225.664 214.243 211.7 181.3 207.969 177.564Z" stroke-width="4"/>
  <path onClick="" style="" stroke="currentColor" d="M164.78 261.824C187.705 261.824 206.289 243.226 206.289 220.285C206.289 197.343 187.705 178.745 164.78 178.745C141.855 178.745 123.271 197.343 123.271 220.285C123.271 243.226 141.855 261.824 164.78 261.824Z" stroke-width="4"/>
  <path stroke="currentColor" opacity="0.5" d="M565.891 349.982C562.54 346.628 530.998 332.058 523.127 332.058C515.256 332.058 484.606 345.807 480.474 349.944C476.14 354.282 462.744 386.543 462.54 392.844C462.341 398.997 475.37 430.765 480.2 435.599C485.511 440.915 515.038 452.962 522.909 453.159C530.78 453.356 560.421 440.134 565.466 435.674C570.585 431.148 583.587 398.886 583.587 392.767C583.587 386.661 569.623 353.718 565.891 349.982Z" stroke-width="4"/>
  <path onClick="" style="" stroke="currentColor" d="M522.986 422.981C539.121 422.981 552.201 409.888 552.201 393.737C552.201 377.586 539.121 364.493 522.986 364.493C506.851 364.493 493.771 377.586 493.771 393.737C493.771 409.888 506.851 422.981 522.986 422.981Z" stroke-width="4"/>
</svg>
