<?xml version="1.0"?>
<svg xmlns="http://www.w3.org/2000/svg" viewBox="0 0 92 32.5">
  <path fill="currentColor" d="M9.736,26.29c0.816-0.815,1.224-1.8,1.224-2.954
		s-0.407-2.139-1.224-2.955c-0.816-0.816-1.801-1.225-2.955-1.225s-2.139,0.408-2.955,1.225c-0.816,0.816-1.224,1.801-1.224,2.955
		s0.408,2.139,1.224,2.954c0.816,0.816,1.801,1.225,2.955,1.225S8.92,27.106,9.736,26.29z M54.573,8.704
		c-0.245,0-0.454,0.087-0.626,0.26c-0.172,0.172-0.259,0.381-0.259,0.625c0,0.245,0.086,0.454,0.259,0.627
		c0.172,0.172,0.381,0.259,0.626,0.259c0.245,0,0.454-0.087,0.626-0.259c0.172-0.173,0.259-0.382,0.259-0.627
		c0-0.244-0.086-0.453-0.259-0.625C55.026,8.791,54.817,8.704,54.573,8.704z M51.765,7.642c-0.287,0-0.533,0.102-0.737,0.305
		c-0.203,0.204-0.305,0.45-0.305,0.737s0.102,0.531,0.305,0.735c0.205,0.204,0.451,0.307,0.737,0.307s0.531-0.103,0.734-0.307
		c0.205-0.204,0.308-0.448,0.308-0.735s-0.103-0.533-0.308-0.737C52.296,7.743,52.051,7.642,51.765,7.642z M48.638,6.634
		c-0.359,0-0.666,0.128-0.919,0.382c-0.254,0.254-0.381,0.561-0.381,0.919c0,0.359,0.127,0.667,0.381,0.921
		c0.253,0.253,0.56,0.381,0.919,0.381c0.359,0,0.666-0.128,0.92-0.381c0.254-0.254,0.381-0.562,0.381-0.921
		c0-0.358-0.127-0.665-0.381-0.919C49.304,6.762,48.998,6.634,48.638,6.634z M22.398,8.593c0.962-0.229,2.037-0.401,3.224-0.518
		c0.697-0.07,1.758-0.142,3.182-0.213c1.392-0.072,2.446-0.145,3.162-0.217c1.168-0.118,2.221-0.297,3.161-0.535
		c1.833-0.457,3.434-1.033,4.805-1.731c0.445-0.226,1.021-0.545,1.727-0.958c0.844-0.494,1.445-0.838,1.804-1.031l2.546,1.86
		c0.269-0.131,0.354-0.355,0.251-0.672l-0.91-1.16l2.728,0.377l0.839,1.23c0.172,0.19,0.345,0.257,0.518,0.196l0.168-1.245
		l1.888,1.749l0.154-1.217l1.762,1.776V5.096l1.917,1.818V5.823c11.872,4.56,18.456,11.684,19.75,21.373
		c-9.496-8.46-19.287-12.824-29.374-13.093L45.4,14.46l-1.846,0.231c-1.986,2.1-3.982,3.158-5.987,3.175
		c-0.256-0.498-0.467-0.873-0.633-1.122c-0.266-0.403-0.556-0.734-0.871-0.993c-0.792-0.657-1.898-0.982-3.314-0.976
		c-1.912,0.012-4.094,0.69-6.546,2.039c-1.226,0.673-2.261,1.345-3.105,2.018c-0.919-0.102-1.99-0.086-3.214,0.042
		c-2.448,0.259-4.437,0.964-5.966,2.114c-0.324,0.246-0.571,0.619-0.741,1.124c-0.082,0.252-0.196,0.768-0.342,1.549
		c-0.136,0.723-0.285,1.296-0.448,1.721c-0.25,0.645-0.602,1.196-1.058,1.651c-0.076,0.078-0.187,0.198-0.334,0.358
		c-1.145,1.145-2.525,1.718-4.144,1.718c-1.618,0-2.999-0.573-4.144-1.718C1.563,26.25,0.99,24.869,0.99,23.248
		c0-0.704,0.169-1.458,0.507-2.262c0.364-0.868,0.869-1.651,1.515-2.351c2.203-2.356,4.805-4.327,7.805-5.913
		C13.994,11.044,17.854,9.668,22.398,8.593z"/>
</svg>
