<?xml version="1.0"?>
<svg width="80" height="50" viewBox="0 0 80 50" xmlns="http://www.w3.org/2000/svg" version="1.1" overflow="visible">
  <g transform="translate(2,0)">
    <rect x="0" y="10" width="15" height="10" fill="currentColor"/>
    <rect x="0" y="22" width="15" height="3" fill="currentColor"/>
    <rect x="0" y="27" width="15" height="3" fill="currentColor"/>
    <rect x="0" y="32" width="12" height="3" fill="currentColor"/>
    <rect x="20" y="10" width="15" height="10" fill="currentColor"/>
    <rect x="20" y="22" width="15" height="3" fill="currentColor"/>
    <rect x="20" y="27" width="15" height="3" fill="currentColor"/>
    <rect x="20" y="32" width="12" height="3" fill="currentColor"/>
    <rect x="40" y="10" width="15" height="10" fill="currentColor"/>
    <rect x="40" y="22" width="15" height="3" fill="currentColor"/>
    <rect x="40" y="27" width="15" height="3" fill="currentColor"/>
    <rect x="40" y="32" width="12" height="3" fill="currentColor"/>
    <rect x="60" y="10" width="15" height="10" fill="currentColor"/>
    <rect x="60" y="22" width="15" height="3" fill="currentColor"/>
    <rect x="60" y="27" width="15" height="3" fill="currentColor"/>
    <rect x="60" y="32" width="12" height="3" fill="currentColor"/>
  </g>
</svg>
