<?xml version="1.0"?>
<svg xmlns="http://www.w3.org/2000/svg" viewBox="0 0 813 153" fill="none">
  <path stroke="currentColor" d="M812.893 111.646C577.732 105.411 697.092 46.3291 460.004 46.3291" stroke-width="5.76327"/>
  <path fill="currentColor" d="M422.912 42.4865C421.851 42.4865 420.99 43.3466 420.99 44.4076L420.99 48.2498C420.99 49.3108 421.851 50.1709 422.912 50.1709L436.359 50.1709C437.42 50.1709 438.28 49.3108 438.28 48.2498L438.28 44.4076C438.28 43.3466 437.42 42.4865 436.359 42.4865L422.912 42.4865Z"/>
  <rect stroke="currentColor" x="2.88163" y="2.88163" width="9.60544" height="27.043" transform="matrix(8.78456e-08 -1 -1 -2.17505e-08 465.767 54.0138)" stroke-width="5.76327"/>
  <path fill="#1A9FFF" d="M363.918 47.688C363.168 46.9378 363.168 45.7214 363.918 44.9712L376.144 32.7454C376.894 31.9952 378.111 31.9952 378.861 32.7454C379.611 33.4957 379.611 34.712 378.861 35.4623L367.993 46.3296L378.861 57.1969C379.611 57.9471 379.611 59.1635 378.861 59.9137C378.111 60.664 376.894 60.664 376.144 59.9137L363.918 47.688ZM401.777 46.3296V48.2507H365.277V46.3296V44.4085H401.777V46.3296Z"/>
  <path fill="currentColor" d="M94.6276 91.6852C67.2768 104.21 43.2679 115.199 6.54441 115.199C4.40733 115.199 2.22586 115.161 0 115.085C1.57903 136.285 16.4625 152.88 50.3767 152.88C100.252 152.88 146.818 113.436 183.96 113.436C195.039 113.436 201.139 115.022 203.511 115.022C205.882 115.022 209.808 113.367 211.989 110.951C215.154 107.45 219.517 79.852 221.597 72.071C222.954 66.9978 224.019 62.7807 224.989 59.2295C161.422 61.1066 125.973 77.3344 94.6339 91.6852H94.6276Z"/>
  <path fill="currentColor" d="M156.716 12.6005H158.638V14.8074C158.727 14.8074 158.815 14.8074 158.904 14.8074C168.023 15.0039 176.4 15.2069 184.067 15.4288V12.5942H186.065C189.876 12.5942 192.996 10.1083 192.996 6.29709C192.996 2.48586 189.876 0 186.065 0H156.716C152.905 0 149.785 2.48586 149.785 6.29709C149.785 10.1083 152.905 12.5942 156.716 12.5942V12.6005Z"/>
  <path fill="currentColor" d="M46.5333 56.0146C58.3792 50.3643 69.8256 46.5848 77.6193 44.0165C79.249 43.4775 80.6568 43.0145 81.8997 42.5896C108.388 33.5213 129.803 28.6257 136.684 27.1481C132.131 25.1062 126.874 24.5862 121.724 26.0447L50.985 46.0965C47.288 47.1428 45.1192 51.0238 46.1655 54.7209L46.5333 56.0082V56.0146Z"/>
  <path fill="currentColor" d="M237.419 67.6451C235.44 67.3344 233.43 68.1017 232.193 69.6808C231.711 70.2895 231.362 70.8539 231.153 71.3042C227.462 79.2881 226.416 87.6208 227.963 96.7779C229.961 108.617 236.962 116.893 241.712 121.3C247.254 117.635 242.029 107.711 243.405 95.9218C245.612 76.9608 249.835 76.2886 244.984 70.7588C243.57 69.1417 240.83 68.1778 237.419 67.6451Z"/>
  <path fill="currentColor" d="M225.147 97.2524C223.505 87.5055 224.621 78.6274 228.565 70.1045C228.857 69.4767 229.371 68.6713 230.081 67.7962C230.316 67.5108 230.119 67.0859 229.751 67.0859C229.46 67.0859 229.161 67.0859 228.863 67.0859C228.147 67.0859 227.424 67.0986 226.695 67.1176C226.219 67.1303 225.813 67.4537 225.693 67.9103C225.287 69.4513 224.862 71.0811 224.399 72.8123C223.765 75.184 222.896 79.5469 221.888 84.5948C219.611 96.0031 217.994 103.473 216.504 107.995C218.362 108.223 220.081 108.591 221.4 109.181C227.018 111.692 231.115 122.758 236.403 122.758C236.505 122.758 236.606 122.758 236.708 122.745C237.45 122.688 238.116 122.587 238.724 122.46C233.727 117.596 227.158 109.187 225.141 97.2587L225.147 97.2524Z"/>
  <path fill="currentColor" d="M234.392 61.4489C236.2 55.4689 238.692 47.9099 241.964 42.4308C242.243 41.9742 242.522 41.5557 242.801 41.1689C243.042 40.8328 242.7 40.3889 242.313 40.5411C239.371 41.7015 236.422 43.3313 234.183 45.6016C230.854 48.9816 229.332 54.0357 226.827 63.5797C226.738 63.9221 226.998 64.2582 227.353 64.2518C227.867 64.2455 228.374 64.2392 228.869 64.2392C230.531 64.2392 232.071 64.2836 233.505 64.3723C233.809 64.3914 234.069 64.1504 234.063 63.846C234.05 63.0596 234.151 62.2543 234.392 61.4553V61.4489Z"/>
  <path fill="currentColor" d="M256.798 37.7319C248.706 39.4061 246.785 40.0339 244.407 43.9085C241.3 49.1022 238.884 56.452 237.127 62.2735C237.127 62.2798 237.127 62.2925 237.121 62.2988C236.765 63.4974 237.584 64.753 238.814 64.9813C242.771 65.7169 245.491 66.9979 247.14 68.8749C248.117 69.991 248.808 71.0057 249.271 71.9759C252.619 70.2827 255.574 66.0149 257.198 55.2344C258.149 48.8929 258.732 43.3632 257.8 39.7866C257.597 39.0002 257.248 38.3217 256.805 37.7319H256.798Z"/>
  <path fill="currentColor" d="M190.918 20.6672C190.918 20.9208 191.146 21.1111 191.393 21.054C192.725 20.7433 196.219 20.0457 199.327 20.0711C201.73 20.0901 204.267 20.3374 206.454 20.9398C206.702 21.0096 206.943 20.832 206.949 20.5784C206.993 19.3608 207.856 18.1876 209.574 17.2998C207.754 15.8349 203.816 14.8203 199.244 14.8203C194.672 14.8203 190.372 15.9364 188.686 17.5091C190.62 18.6189 190.924 19.9442 190.924 20.6735L190.918 20.6672Z"/>
  <path fill="currentColor" d="M211.095 21.6188C215.832 23.3691 221.349 23.0774 226.289 22.3988C227.773 22.0945 229.631 21.7584 230.544 20.5979C230.563 20.1476 229.777 19.5642 229.276 19.2662C224.647 16.7169 218.781 16.7803 213.752 18.0866C212.363 18.5179 210.879 19.0505 209.922 20.0588C209.674 20.3379 209.624 20.5598 209.662 20.5915C209.877 20.9466 210.55 21.3905 211.095 21.6125V21.6188Z"/>
  <path fill="currentColor" d="M205.622 22.7795C201.475 21.2702 196.719 21.4097 192.565 22.8049C187.447 24.7834 187.289 27.1551 192.774 28.6137C196.097 29.7107 208.152 29.8312 209.535 26.039C209.592 24.6946 207.537 23.4707 205.628 22.7732L205.622 22.7795Z"/>
  <path fill="currentColor" d="M168.759 21.6188C173.496 23.3691 179.013 23.0774 183.953 22.3988C185.437 22.0945 187.295 21.7584 188.208 20.5979C188.227 20.1476 187.441 19.5642 186.94 19.2662C182.311 16.7169 176.445 16.7803 171.416 18.0866C170.027 18.5179 168.543 19.0505 167.586 20.0588C167.338 20.3379 167.288 20.5598 167.326 20.5915C167.541 20.9466 168.214 21.3905 168.759 21.6125V21.6188Z"/>
  <path fill="currentColor" d="M246.456 22.5699C244.16 21.6821 239.861 21.0099 233.253 20.4519C233.253 20.5026 233.272 20.547 233.278 20.5977C233.132 23.7114 229.543 24.967 227.108 25.785C222.51 27.1041 217.703 26.9519 213.112 25.7597C212.783 25.6709 212.472 25.5758 212.167 25.4743C212.212 25.6582 212.243 25.8485 212.263 26.0514C212.218 29.2285 208.959 30.9534 206.441 31.9236C201.672 33.6104 196.51 33.4582 191.76 31.8982C187.455 30.4334 185.482 27.7699 186.04 25.3538C185.603 25.5187 185.178 25.6646 184.785 25.7977C180.187 27.1168 175.38 26.9646 170.789 25.7724C164.663 24.1236 162.977 20.2933 166.318 17.8772C163.497 17.7948 160.935 17.725 158.81 17.6743C158.176 17.6616 157.58 17.6553 157.009 17.6553C150.135 17.6553 147.738 18.7714 143.248 24.1553C142.849 24.6372 142.202 25.5377 141.555 26.4699L154.206 23.7621C155.405 23.5402 155.792 25.3285 154.58 25.6011C154.58 25.6011 110.577 35.8109 82.7758 45.3041C64.3538 51.5758 5.46687 67.9115 0.0322266 112.226C39.9011 113.596 64.8231 102.2 93.4359 89.092C125.169 74.5637 161.093 58.1202 225.795 56.3573C227.558 50.371 229.201 46.5344 232.099 43.5983C239.67 35.9124 253.913 34.8978 253.913 34.8978C253.913 34.8978 253.463 25.2904 246.456 22.5763V22.5699Z"/>
</svg>
