<?xml version="1.0"?>
<svg xmlns="http://www.w3.org/2000/svg" viewBox="0 0 36 36" fill="none">
  <path stroke="currentColor" d="M3.50025 30.4998C18.6879 30.4998 31 18.1877 31 3" stroke-width="5"/>
  <path fill="currentColor" fill-rule="evenodd" clip-rule="evenodd" d="M22.9793 3.00024C22.9793 13.7582 14.2583 22.4792 3.50031 22.4792V3.00024H22.9793ZM13.8126 8.15645C13.8126 9.10568 14.5821 9.87518 15.5314 9.87518C16.4806 9.87518 17.2501 9.10568 17.2501 8.15645C17.2501 7.20722 16.4806 6.43771 15.5314 6.43771C14.5821 6.43771 13.8126 7.20722 13.8126 8.15645ZM8.65642 16.7501C7.70719 16.7501 6.93769 15.9806 6.93769 15.0314C6.93769 14.0822 7.70719 13.3127 8.65642 13.3127C9.60565 13.3127 10.3752 14.0822 10.3752 15.0314C10.3752 15.9806 9.60565 16.7501 8.65642 16.7501ZM6.93769 8.15645C6.93769 9.10568 7.70719 9.87518 8.65642 9.87518C9.60565 9.87518 10.3752 9.10568 10.3752 8.15645C10.3752 7.20722 9.60565 6.43771 8.65642 6.43771C7.70719 6.43771 6.93769 7.20722 6.93769 8.15645Z"/>
</svg>
