<?xml version="1.0"?>
<svg xmlns="http://www.w3.org/2000/svg" version="1.1" viewBox="0 0 1024 1024">
  <path d="M892.3,65.9H131.7c-36.4,0-65.9,29.5-65.9,65.9v760.5c0,36.4,29.5,65.9,65.9,65.9h760.5c36.4,0,65.9-29.5,65.9-65.9V131.7c0-36.4-29.5-65.9-65.9-65.9ZM331.8,826h-134.1v-426.1h134.1v426.1ZM264.7,340.8c-42.7,0-77.3-32.5-77.3-77s34.6-77,77.3-77,77.3,32.5,77.3,77-34.6,77-77.3,77ZM826.3,826.3h-134.1v-232.7c0-68.7-29.2-89.8-66.8-89.8s-78.8,30-78.8,91.6v231h-134.1v-426.1h129v59h1.7c13-26.2,58.3-71,127.5-71s155.7,44.4,155.7,174.6v263.6Z"/>
</svg>
