<?xml version="1.0"?>
<svg version="1.1" xmlns="http://www.w3.org/2000/svg" x="0px" y="0px" viewBox="0 0 256 256">
  <g>
    <path fill="#020202" d="M115.512,137.263l21.6-21.6c0,0,25.5,25.5,45.8,45.8l35-35v91.6h-91.6l35-35 C141.012,162.763,115.512,137.263,115.512,137.263z"/>
    <path fill="#020202" d="M108.312,129.763c-20.3-20.3-35.8-35.8-35.8-35.8l21.6-21.601c0,0,15.5,15.5,35.8,35.801L108.312,129.763z"/>
    <path fill="#020202" d="M54.312,75.763c-20.3-20.3-15.8-15.8-15.8-15.8l21.6-21.601c0,0-4.5-4.5,15.8,15.801L54.312,75.763z"/>
  </g>
</svg>
