<?xml version="1.0"?>
<svg width="34" height="33" viewBox="0 0 34 33" fill="none" xmlns="http://www.w3.org/2000/svg">
  <path fill-rule="evenodd" clip-rule="evenodd" d="M23.8359 6.50266C25.4078 8.09734 26.3342 10.1889 26.4449 12.3932C28.3318 13.0444 29.9212 14.3212 30.933 15.9986C31.9447 17.6761 32.3138 19.6464 31.975 21.5621C31.6363 23.4778 30.6115 25.2159 29.0814 26.4699C27.5513 27.724 25.6141 28.4134 23.6115 28.4166H10.3893C8.38668 28.4134 6.44953 27.724 4.91943 26.4699C3.38934 25.2159 2.36457 23.4778 2.02582 21.5621C1.68707 19.6464 2.05611 17.6761 3.06784 15.9986C4.07958 14.3212 5.66905 13.0444 7.55597 12.3932C7.66779 10.1832 8.59949 8.08695 10.1791 6.49145C11.7587 4.89596 13.8796 3.90888 16.1504 3.7124H17.0193H17.8882C20.1522 3.91724 22.2641 4.90797 23.8359 6.50266ZM9.44481 17.9666L14.5543 22.9166L23.6398 14.0982L21.3826 11.9166L14.5543 18.5441L11.702 15.7757L9.44481 17.9666Z" fill="currentColor"/>
</svg>
