<?xml version="1.0"?>
<svg version="1.1" id="Layer_2" xmlns="http://www.w3.org/2000/svg" x="0px" y="0px" width="256px" height="256px" viewBox="0 0 256 256">
  <title/>
  <path d="M152.07,132.73c0,0,4.05,3.28,7.04,6.86s5.74,7.59,5.74,7.59c1.45-0.55,3.27-1.36,4.09-2.05l55.4-47.84
												l-14.19-16.04l-55.45,47.88C153.88,129.82,152.83,131.42,152.07,132.73z"/>
  <path d="M192.74,71.58c0-1.97-1.61-3.58-3.58-3.58H49.56c-1.97,0-3.58,1.61-3.58,3.58v97.84
						c0,1.97,1.61,3.58,3.58,3.58h139.6c1.97,0,3.58-1.61,3.58-3.58v-40.11l-21.48,18.54c-1.95,1.65-5.95,2.98-6.41,3.12
						c-0.18,0.06-0.37,0.09-0.55,0.09c-0.5,0-1-0.21-1.34-0.6l-0.68-0.76c0,0.15,0,0.3-0.02,0.45c-0.14,1.25-0.97,2.3-2.16,2.75
						l-1.98,0.79c-0.12,0.05-0.25,0.08-0.38,0.1l-14.52,2.33c-0.36,0.12-0.73,0.18-1.1,0.18c-0.96,0-1.9-0.39-2.56-1.11
						c-0.99-1.09-1.16-2.62-0.45-3.87l2.95-6.95H67.76c-0.99,0-1.79-0.8-1.79-1.79c0-0.99,0.8-1.79,1.79-1.79h75.84l1.6-3.76
						c0.04-0.09,0.09-0.19,0.15-0.27c0.6-0.92,1.68-1.48,2.89-1.5c0.55-0.02,1.11,0.12,1.62,0.38l-1.29-1.46
						c-0.49-0.55-0.59-1.35-0.25-2c0.21-0.42,2.14-4.11,4.06-5.75l2.19-1.89h-86.8c-0.99,0-1.79-0.8-1.79-1.79
						c0-0.99,0.8-1.79,1.79-1.79h90.94l34.04-29.4V71.58z M170.97,104.69H67.76c-0.99,0-1.79-0.8-1.79-1.79c0-0.99,0.8-1.79,1.79-1.79
						h103.21c0.99,0,1.79,0.8,1.79,1.79C172.76,103.89,171.95,104.69,170.97,104.69z"/>
</svg>
