<?xml version="1.0"?>
<svg viewBox="0 0 33 49" fill="currentColor">
  <path fill="currentColor" fill-rule="evenodd" clip-rule="evenodd" d="M28 47.1106C29.1046 47.1106 30 46.2151 30 45.1106L30 3.72705C30 2.62248 29.1046 1.72705 28 1.72705L5 1.72705C3.89544 1.72705 3 2.62248 3 3.72705L3 45.1106C3 46.2151 3.89543 47.1106 5 47.1106L28 47.1106ZM5.68119 5.82741L27.3188 5.82741L27.3188 42.7772H5.68119L5.68119 5.82741ZM20.9999 44.944C20.9999 45.3429 20.6766 45.6662 20.2777 45.6662L12.7221 45.6662C12.3233 45.6662 11.9999 45.3429 11.9999 44.944C11.9999 44.5451 12.3233 44.2218 12.7221 44.2218H20.2777C20.6766 44.2218 20.9999 44.5451 20.9999 44.944ZM17.2778 4.44406C17.6767 4.44406 18 4.12071 18 3.72184C18 3.32296 17.6767 2.99962 17.2778 2.99962L15.7222 2.99962C15.3233 2.99962 15 3.32296 15 3.72184C15 4.12071 15.3233 4.44406 15.7222 4.44406L17.2778 4.44406Z"/>
  <path fill="currentColor" d="M22.2456 22.4164C22.2456 21.6666 22.8127 21.0002 23.6228 21.0002C24.3519 21.0002 25 21.6666 25 22.4164C25 23.1661 24.3519 23.8325 23.6228 23.8325C22.8937 23.8325 22.2456 23.1661 22.2456 22.4164Z"/>
  <path fill="currentColor" d="M18.6812 22.4164C18.6812 21.6666 19.2483 21.0002 20.0584 21.0002C20.8685 21.0002 21.5166 21.6666 21.4355 22.4164C21.4355 23.1661 20.8685 23.8325 20.0584 23.8325C19.3293 23.8325 18.6812 23.1661 18.6812 22.4164Z"/>
  <path fill="currentColor" d="M15.1977 22.4164C15.1977 21.6666 15.7648 21.0002 16.5749 21.0002C17.304 21.0002 17.9521 21.6666 17.9521 22.4164C17.9521 23.1661 17.385 23.8325 16.5749 23.8325C15.8458 23.8325 15.1977 23.1661 15.1977 22.4164Z"/>
  <path fill="currentColor" d="M11.7143 22.4164C11.7143 21.6666 12.2814 21.0002 13.0915 21.0002C13.8206 21.0002 14.4686 21.6666 14.4686 22.4164C14.4686 23.1661 13.9016 23.8325 13.0915 23.8325C12.3624 23.8325 11.7143 23.1661 11.7143 22.4164Z"/>
  <path fill="currentColor" d="M8.14983 22.4164C8.14983 21.6666 8.7169 21.0002 9.527 21.0002C10.3371 21.0002 10.9852 21.6666 10.9042 22.4164C10.9042 23.1661 10.3371 23.8325 9.527 23.8325C8.79791 23.8325 8.14983 23.1661 8.14983 22.4164Z"/>
</svg>
