<?xml version="1.0"?>
<svg xmlns="http://www.w3.org/2000/svg" viewBox="0 0 36 36" fill="none">
  <path fill="currentColor" d="M11 32V33.601C11 34.926 12.0446 36 13.3333 36H22.6667C23.9554 36 25 34.926 25 33.601V32C22.7984 32.523 20.4394 32.8029 18 32.8029C15.5606 32.8029 13.2016 32.523 11 32Z"/>
  <path fill="currentColor" d="M23.1111 0H12L17.5556 5.625L23.1111 0Z"/>
  <path fill="currentColor" fill-rule="evenodd" clip-rule="evenodd" d="M18 30.75C27.9411 30.75 36 25.7132 36 19.5C36 13.2868 27.9411 8.25 18 8.25C8.05887 8.25 0 13.2868 0 19.5C0 25.7132 8.05887 30.75 18 30.75ZM26.5882 14.284C25.9056 13.7613 24.9082 13.5 23.5962 13.5C22.8176 13.5 22.0869 13.6173 21.4043 13.852C20.7323 14.0867 20.1296 14.4227 19.5963 14.86L20.5882 16.364C20.9403 16.0973 21.3349 15.8893 21.7723 15.74C22.2202 15.58 22.6842 15.5 23.1642 15.5C23.7936 15.5 24.2843 15.6227 24.6362 15.868C24.9989 16.1133 25.1803 16.4387 25.1803 16.844C25.1803 17.2813 24.9883 17.6227 24.6043 17.868C24.2309 18.1027 23.7349 18.22 23.1162 18.22H21.8203V19.996H23.2603C24.8283 19.996 25.6122 20.508 25.6122 21.532C25.6122 22.0547 25.4042 22.4653 24.9883 22.764C24.5829 23.0627 24.0176 23.212 23.2923 23.212C22.1509 23.212 21.1643 22.876 20.3323 22.204L19.3242 23.932C19.8256 24.3373 20.4389 24.652 21.1642 24.876C21.9002 25.1 22.6736 25.212 23.4842 25.212C24.3376 25.212 25.1162 25.068 25.8202 24.78C26.5243 24.4813 27.0789 24.0653 27.4842 23.532C27.8896 22.988 28.0923 22.364 28.0923 21.66C28.0923 20.892 27.8682 20.2787 27.4202 19.82C26.9829 19.3507 26.4069 19.0413 25.6922 18.892V18.844C26.3002 18.6093 26.7696 18.2733 27.1003 17.836C27.4416 17.388 27.6122 16.8813 27.6122 16.316C27.6122 15.484 27.2709 14.8067 26.5882 14.284ZM15.544 24.956H18.152L15.512 20.716C16.1947 20.4173 16.7227 19.98 17.096 19.404C17.48 18.828 17.672 18.108 17.672 17.244C17.672 16.1453 17.3093 15.292 16.584 14.684C15.8587 14.0653 14.728 13.756 13.192 13.756H9V24.956H11.352V21.18H13.016H13.288L15.544 24.956ZM11.352 19.164V15.756H13.048C13.784 15.756 14.3173 15.8947 14.648 16.172C14.9893 16.4387 15.16 16.844 15.16 17.388C15.16 17.9427 14.984 18.38 14.632 18.7C14.2907 19.0093 13.8107 19.164 13.192 19.164H11.352Z"/>
</svg>
