<?xml version="1.0"?>
<svg xmlns="http://www.w3.org/2000/svg" viewBox="0 0 82.5 32">
  <path fill="currentColor" d="M35.559,17.937c-2.777,1.284-5.455,2.143-8.031,2.573
					c-2.224,0.379-4.532,0.67-6.933,0.871c-1.995,0.153-3.095,0.253-3.3,0.303c-0.274,0.053-0.54,0.09-0.793,0.114l-0.3,0.038
					c-0.457,0.103-0.723,0.203-0.797,0.303c0,0.153-0.078,0.379-0.229,0.682c-0.151,0.355-0.279,0.569-0.38,0.645l-0.304,0.19
					c-0.049,0-0.124-0.09-0.225-0.266c-0.053-0.152-0.127-0.518-0.229-1.098c-0.077-0.708-0.125-1.164-0.152-1.365
					c-0.127-0.43-0.505-0.974-1.135-1.627c-0.708-0.783-1.402-1.229-2.085-1.327c-0.783-0.103-1.503,0.023-2.159,0.377
					c-0.655,0.329-1.036,0.784-1.136,1.364c-0.152,0.706-0.203,1.313-0.152,1.82c0.103,0.808,0.442,1.741,1.024,2.803
					c0.125,0.302,0.011,0.783-0.341,1.441c-0.254,0.403-0.633,0.855-1.139,1.359c-0.757,0.709-1.352,0.961-1.78,0.759
					c-0.429-0.227-1.085-1.198-1.969-2.914c-0.455-0.888-0.949-1.857-1.479-2.918c-0.279-0.556-0.491-1.68-0.645-3.373
					c-0.049-0.833-0.088-1.629-0.113-2.385v-1.744c0.052-1.338,0.178-2.426,0.38-3.259c0.201-0.961,0.781-2.347,1.741-4.169
					c0.886-1.716,1.491-2.713,1.819-2.991C4.975,3.918,5.466,4.08,6.199,4.636c0.732,0.53,1.327,1.177,1.779,1.933
					c0.203,0.305,0.304,0.492,0.304,0.566c0.05,0.154,0,0.419-0.152,0.798C7.828,8.537,7.601,9.031,7.449,9.411
					c-0.304,0.681-0.456,1.246-0.456,1.702c0.026,0.685,0.054,1.161,0.078,1.44c0.1,0.43,0.253,0.77,0.455,1.024
					c0.452,0.454,0.972,0.781,1.551,0.984c0.455,0.15,0.847,0.203,1.174,0.15c0.456-0.052,0.974-0.251,1.555-0.604
					c0.835-0.508,1.441-1.163,1.818-1.972c0.152-0.302,0.292-0.858,0.417-1.669l0.303-1.511c0.052-0.203,0.102-0.317,0.15-0.343
					c0.053-0.025,0.114-0.037,0.19-0.037c0.025,0.024,0.178,0.252,0.457,0.682c0.277,0.479,0.44,0.77,0.491,0.87
					c0.076,0.076,0.238,0.139,0.49,0.189c0.129,0,0.241,0,0.345,0c0.199,0,0.301,0.052,0.301,0.149l4.281,0.269
					c3.082,0.151,5.076,0.354,5.987,0.605c0.275,0.076,0.945,0.216,2.006,0.418c0.962,0.202,1.769,0.377,2.425,0.531
					c1.517,0.402,2.881,0.944,4.092,1.628c0.48,0.251,0.936,0.52,1.362,0.794c0.557,0.354,0.999,0.621,1.327,0.797
					c0.53,0.378,0.796,0.594,0.796,0.644C37.884,16.809,36.719,17.403,35.559,17.937z M6.275,22.366
					c-0.05-0.074-0.089-0.162-0.115-0.264c-0.05-0.078-0.15-0.114-0.303-0.114c-0.201-0.05-0.605,0.114-1.211,0.493
					c-0.379,0.251-0.733,0.491-1.062,0.719c-0.101,0.075-0.14,0.202-0.115,0.379l0.076,0.227c0.229,0.381,0.444,0.758,0.645,1.135
					c0.507,0.759,0.834,1.165,0.986,1.214c0.175,0.052,0.492-0.113,0.946-0.492c0.403-0.303,0.632-0.518,0.681-0.646
					c0.053-0.076-0.013-0.491-0.189-1.249C6.463,22.985,6.349,22.518,6.275,22.366z M2.978,11.685
					c-0.202,0.024-0.403,0.126-0.604,0.302c-0.306,0.275-0.493,1.073-0.57,2.386l-0.037,1.857c0,0.505,0.037,1.035,0.114,1.591
					c0.102,1.087,0.263,1.819,0.493,2.197c0.177,0.279,0.402,0.454,0.682,0.529C3.308,20.6,3.56,20.59,3.811,20.51
					c0.253-0.074,1.049-0.771,2.388-2.084c1.337-1.314,1.995-2.057,1.97-2.234c0-0.177-0.72-0.921-2.159-2.234
					c-1.363-1.264-2.185-1.971-2.464-2.122C3.37,11.733,3.179,11.685,2.978,11.685z M6.463,6.795
					c-0.177-0.227-0.429-0.44-0.757-0.643C5.378,5.975,5.098,5.886,4.873,5.886c-0.176,0-0.519,0.481-1.022,1.439
					C3.345,8.287,3.104,8.829,3.129,8.957c0,0.074,0.05,0.162,0.15,0.262c0.102,0.13,0.204,0.203,0.305,0.229l1.779,0.909
					c0.078,0.077,0.165,0.11,0.267,0.11c0.251,0.079,0.404-0.022,0.454-0.3c0.051-0.227,0.178-0.819,0.379-1.78
					C6.59,7.528,6.59,6.998,6.463,6.795z"/>
</svg>
