<?xml version="1.0"?>
<svg x="0px" y="0px" viewBox="0 0 720 720" style="">
  <path d="M189.54,272.79h-64.83c-21.35,0-38.66,17.31-38.66,38.66v97.09c0,21.35,17.31,38.66,38.66,38.66h64.83
				l137.79,77.33V195.46L189.54,272.79z"/>
  <g>
    <path d="M515.5,606.28c-5.35,0-10.69-2.14-14.63-6.36c-7.53-8.08-7.09-20.74,0.99-28.27
					c58.53-54.56,92.1-131.7,92.1-211.65s-33.57-157.09-92.1-211.65c-8.08-7.53-8.52-20.19-0.99-28.27
					c7.53-8.08,20.19-8.52,28.27-0.99c32.72,30.5,58.49,66.61,76.58,107.32c18.74,42.16,28.24,87.1,28.24,133.59
					s-9.5,91.43-28.24,133.59c-18.09,40.71-43.86,76.81-76.58,107.32C525.27,604.5,520.38,606.28,515.5,606.28z"/>
    <path d="M449.63,538.52c-5.42,0-10.82-2.19-14.76-6.5c-7.46-8.15-6.9-20.8,1.25-28.26
					c40.26-36.84,63.35-89.24,63.35-143.77c0-54.52-23.09-106.93-63.35-143.77c-8.15-7.46-8.71-20.11-1.25-28.26
					c7.46-8.15,20.11-8.71,28.26-1.25c23.8,21.78,42.56,47.69,55.76,77c13.66,30.35,20.59,62.75,20.59,96.28
					c0,33.53-6.93,65.92-20.59,96.28c-13.19,29.31-31.95,55.21-55.76,77C459.29,536.79,454.46,538.52,449.63,538.52z"/>
    <path d="M383.73,470.72c-5.58,0-11.13-2.32-15.08-6.85c-7.26-8.32-6.4-20.96,1.92-28.22
					C392.45,416.57,405,388.99,405,360c0-28.99-12.55-56.57-34.42-75.65c-8.32-7.26-9.18-19.9-1.92-28.22
					c7.26-8.32,19.9-9.19,28.22-1.92C427.46,280.89,445,319.45,445,360c0,40.55-17.54,79.11-48.13,105.79
					C393.08,469.1,388.4,470.72,383.73,470.72z"/>
  </g>
</svg>
