<?xml version="1.0"?>
<svg xmlns="http://www.w3.org/2000/svg" viewBox="0 0 50 50" fill="none">
  <path fill="currentColor" fill-rule="evenodd" clip-rule="evenodd" d="M0.5 20.6967C1.4226 9.11249 11.1025 0 22.9235 0C35.3465 0 45.4211 10.0746 45.4211 22.5025C45.4211 24.3384 45.2011 26.1231 44.7861 27.8316C42.9771 27.1161 40.4249 26.5 37 26.5C28.8333 26.5 25.6289 30.0031 25.6289 30.0031C25.6289 30.0031 23 39.1662 23 43.0923C23 43.7141 23.2403 44.3589 23.6193 44.9894C23.3883 44.9965 23.1563 45 22.9235 45C22.5074 45 22.094 44.9887 21.6834 44.9664C22.492 44.2345 23 43.1766 23 42C23 39.7909 21.2091 38 19 38C17.494 38 16.1824 38.8323 15.5 40.062C14.8176 38.8323 13.506 38 12 38C10.8053 38 9.73295 38.5238 9 39.3542C8.40788 38.6833 7.59423 38.2126 6.67352 38.0565C4.16766 35.438 2.28799 32.2154 1.27459 28.6301L9.89371 32.1971C10.4808 35.1129 13.0562 37.3133 16.1397 37.3133C19.6525 37.3133 22.5091 34.4567 22.5091 30.944C22.5091 30.8453 22.5091 30.7417 22.5042 30.643L30.1563 25.1814C30.2204 25.1864 30.2845 25.1864 30.3486 25.1864H30.3487C35.0258 25.1864 38.8346 21.3776 38.8346 16.7005C38.8346 12.0234 35.0258 8.21456 30.3487 8.21456C25.6716 8.21456 21.8628 12.0234 21.8628 16.7005V16.809L16.4999 24.5894C16.3815 24.5845 16.2631 24.5795 16.1447 24.5795C14.8126 24.5795 13.5792 24.9841 12.5579 25.6847L0.5 20.6967Z"/>
  <path fill="currentColor" d="M14.6003 34.1409L11.8374 33.0013C12.3258 34.0225 13.1744 34.8761 14.2993 35.3448C16.7316 36.3562 19.5339 35.2017 20.5503 32.7694C21.0387 31.5902 21.0436 30.2927 20.5552 29.1135C20.0717 27.9344 19.154 27.0118 17.9749 26.5234C16.8056 26.0349 15.5525 26.0547 14.4522 26.4691L17.3088 27.6482C19.1047 28.3982 19.9533 30.4555 19.2034 32.2514C18.4535 34.0373 16.3961 34.8859 14.6003 34.1409Z"/>
  <path fill="currentColor" d="M36.0028 16.7004C36.0028 13.5823 33.4669 11.0464 30.3488 11.0464C27.2307 11.0464 24.6948 13.5823 24.6948 16.7004C24.6948 19.8185 27.2307 22.3544 30.3488 22.3544C33.4669 22.3544 36.0028 19.8185 36.0028 16.7004ZM26.1108 16.6905C26.1108 14.347 28.0152 12.4426 30.3587 12.4426C32.7022 12.4426 34.6066 14.3421 34.6066 16.6905C34.6066 19.034 32.7071 20.9384 30.3587 20.9384C28.0102 20.9384 26.1108 19.0389 26.1108 16.6905Z"/>
  <path fill="currentColor" fill-rule="evenodd" clip-rule="evenodd" d="M46.7467 31.76C46.7467 31.76 44 29 37 29C30 29 27.2533 31.76 27.2533 31.76C27.2533 31.76 25 39.3733 25 42.4667C25 44.7867 28.3333 46.3333 28.3333 46.3333L32.3333 42.3333H41.6667L45.6667 46.3333C45.6667 46.3333 49 44.7867 49 42.4667C49 39.3733 46.7467 31.76 46.7467 31.76ZM35 37H33V39H31V37H29V35H31V33H33V35H35V37ZM39.3333 39C39.0037 39 38.6815 38.9023 38.4074 38.7191C38.1333 38.536 37.9197 38.2757 37.7935 37.9711C37.6674 37.6666 37.6344 37.3315 37.6987 37.0082C37.763 36.6849 37.9217 36.3879 38.1548 36.1548C38.3879 35.9217 38.6849 35.763 39.0082 35.6987C39.3315 35.6344 39.6666 35.6674 39.9711 35.7935C40.2757 35.9197 40.536 36.1333 40.7191 36.4074C40.9023 36.6815 41 37.0037 41 37.3333C41 37.5522 40.9569 37.7689 40.8731 37.9711C40.7894 38.1733 40.6666 38.3571 40.5118 38.5118C40.3571 38.6666 40.1733 38.7894 39.9711 38.8731C39.7689 38.9569 39.5522 39 39.3333 39ZM43.3333 36.3333C43.0037 36.3333 42.6815 36.2356 42.4074 36.0524C42.1333 35.8693 41.9197 35.609 41.7935 35.3045C41.6674 34.9999 41.6344 34.6648 41.6987 34.3415C41.763 34.0182 41.9217 33.7212 42.1548 33.4882C42.3879 33.2551 42.6849 33.0963 43.0082 33.032C43.3315 32.9677 43.6666 33.0007 43.9711 33.1269C44.2757 33.253 44.536 33.4666 44.7191 33.7407C44.9023 34.0148 45 34.337 45 34.6667C45 35.1087 44.8244 35.5326 44.5118 35.8452C44.1993 36.1577 43.7754 36.3333 43.3333 36.3333Z"/>
  <circle fill="currentColor" cx="6" cy="42" r="2.5"/>
  <circle fill="currentColor" cx="12" cy="42" r="2.5"/>
  <circle fill="currentColor" cx="19" cy="42" r="2.5"/>
</svg>
