<?xml version="1.0"?>
<svg width="19" height="19" viewBox="0 0 19 19" style="">
  <path d="M14.8406 11.2028L17.5123 8.53059C19.4614 6.58196 19.4614 3.41057 17.5123 1.46194C15.5635 -0.487315 12.3923 -0.487315 10.4435 1.46194L6.58776 5.31766C4.63871 7.26629 4.63871 10.4377 6.58776 12.3863C6.87553 12.6743 7.1905 12.9184 7.52381 13.1212L9.58797 11.0569C9.19479 10.9628 8.82184 10.7645 8.51573 10.4586C7.62985 9.57268 7.62985 8.13108 8.51573 7.24542L12.3714 3.3897C13.2573 2.50383 14.6989 2.50383 15.5846 3.3897C16.4705 4.27557 16.4705 5.71696 15.5846 6.60283L14.4518 7.73579C14.9186 8.83438 15.0476 10.0426 14.8406 11.2028Z"/>
  <path d="M4.13369 7.77151L1.46194 10.4435C-0.487315 12.3923 -0.487315 15.5635 1.46194 17.5123C3.41057 19.4614 6.58196 19.4614 8.5308 17.5123L12.3863 13.6566C14.3354 11.7078 14.3351 8.53658 12.3863 6.58795C12.0987 6.29997 11.7838 6.05584 11.4505 5.85303L9.38632 7.91739C9.77929 8.01163 10.1522 8.20959 10.4586 8.51571C11.3444 9.40158 11.3444 10.843 10.4586 11.7288L6.60262 15.5846C5.71675 16.4704 4.27536 16.4704 3.38949 15.5846C2.50361 14.6987 2.50361 13.2573 3.38949 12.3714L4.52244 11.2387C4.05547 10.1401 3.92645 8.93166 4.13369 7.77151Z"/>
</svg>
