<?xml version="1.0"?>
<svg xmlns="http://www.w3.org/2000/svg" viewBox="0 0 36 36" fill="none">
  <path fill="currentColor" d="M35.9627 17.1705C35.9248 17.0461 35.9248 16.8803 35.9248 16.7558C35.5458 13.5207 33.6511 10.8664 30.8089 9.6636C27.8152 8.37792 24.4805 9.04148 22.0931 11.3226L19.4404 13.8525L22.3204 16.6313L24.5941 14.433C25.9204 13.1888 27.7773 12.8155 29.4447 13.5207C30.8089 14.1013 31.7184 15.1796 32.0595 16.6313C32.0974 16.8386 32.1352 17.046 32.1732 17.2534C32.2111 17.5022 32.249 17.751 32.249 18C32.249 18.2488 32.2111 18.4976 32.1732 18.7466C31.9837 20.4885 30.9985 21.8572 29.4448 22.4794C29.1416 22.6038 28.8764 22.6867 28.5732 22.7696C28.27 22.8111 28.0048 22.8525 27.7015 22.8525C26.5647 22.8525 25.4657 22.3963 24.5942 21.5668L13.9074 11.3226C12.3159 9.78806 10.3453 9 8.29893 9C7.23781 9 6.2147 9.20737 5.19159 9.66356C2.34945 10.8664 0.454692 13.5207 0.0757399 16.7558C0.03787 17.1705 0 17.5853 0 18C0 18.2903 0.0378699 18.5807 0.0378699 18.8709C0.0378699 18.9954 0.03787 19.1198 0.0757399 19.2442C0.454692 22.5208 2.34945 25.1751 5.19159 26.3364C6.2147 26.7926 7.27583 27 8.29893 27C10.3453 27 12.3158 26.2119 13.9074 24.6774L16.5601 22.1475L13.6801 19.4102L11.4064 21.5668C10.08 22.8525 8.22318 23.1844 6.55579 22.4792C5.19159 21.8985 4.28208 20.7788 3.94099 19.3686C3.86525 19.1612 3.82725 18.9539 3.82725 18.7465C3.78938 18.4977 3.78938 18.2488 3.78938 17.9999C3.78938 17.751 3.82725 17.5022 3.82725 17.2532C4.01673 15.5114 5.03983 14.1841 6.55564 13.5205C7.12407 13.2717 7.73036 13.1472 8.29879 13.1472C9.43565 13.1472 10.5346 13.6034 11.4061 14.4329L22.0926 24.6772C23.6841 26.2117 25.6547 26.9997 27.7011 26.9997C28.7622 26.9997 29.7853 26.7923 30.8084 26.3362C33.6506 25.1334 35.5832 22.479 35.9243 19.244C35.9621 18.8292 36 18.4145 36 17.9997C36.0004 17.7097 35.9625 17.4608 35.9625 17.1705L35.9627 17.1705Z"/>
</svg>
