<?xml version="1.0"?>
<svg xmlns="http://www.w3.org/2000/svg" viewBox="0 0 32 31" fill="none">
  <path fill="currentColor" d="M21.0713 10.1003L17 14.1716V2H13V14.1715L8.41424 9.58578L5.58582 12.4142L15 21.8284L23.5615 13.267L22.8581 10.8882L22.8488 10.8552C22.848 10.8521 22.8471 10.8491 22.8461 10.8461L22.6591 10.6591L21.0713 10.1003Z"/>
  <path fill="currentColor" d="M26 27V22H30V31H0V22H4V27H26Z"/>
  <path fill="currentColor" d="M26 1L27.2 5.03C27.35 5.5825 27.77 6.005 28.28 6.2L32 7.5L28.28 8.8C27.77 8.9625 27.38 9.4175 27.2 9.97L26 14L24.8 9.97C24.65 9.4175 24.23 8.995 23.72 8.8L20 7.5L23.72 6.2C24.23 6.0375 24.62 5.5825 24.8 5.03L26 1Z"/>
  <path fill="currentColor" d="M21.5 0L22 1.56667C22.0667 1.76667 22.2333 1.93333 22.4333 2L24 2.5L22.4333 3C22.2333 3.06667 22.0667 3.23333 22 3.43333L21.5 5L21 3.43333C20.9333 3.23333 20.7667 3.06667 20.5667 3L19 2.5L20.5667 2C20.7667 1.93333 20.9333 1.76667 21 1.56667L21.5 0Z"/>
</svg>
