<?xml version="1.0"?>
<svg xmlns="http://www.w3.org/2000/svg" viewBox="0 0 134 134" fill="none">
  <circle stroke="currentColor" fill="currentColor" cx="92" cy="104" r="1.5" stroke-width="3"/>
  <rect stroke="currentColor" x="32.5" y="46.5" width="68" height="65" stroke-width="3"/>
  <line stroke="currentColor" x1="34" y1="96.5" x2="100" y2="96.5" stroke-width="3"/>
  <path stroke="currentColor" d="M42.1939 26.9874C43.6276 21.6368 46.7867 16.9088 51.1814 13.5366C55.5761 10.1645 60.9606 8.33665 66.5 8.33665C72.0394 8.33665 77.4239 10.1645 81.8186 13.5366C86.2133 16.9088 89.3724 21.6368 90.8061 26.9874" stroke-width="2.74514"/>
  <path stroke="currentColor" d="M50.3834 29.1809C51.334 25.633 53.4288 22.498 56.3428 20.262C59.2568 18.026 62.8272 16.814 66.5003 16.814C70.1733 16.814 73.7437 18.026 76.6577 20.262C79.5717 22.498 81.6665 25.633 82.6172 29.1809" stroke-width="2.74514"/>
  <path stroke="currentColor" d="M59.429 31.6057C59.846 30.0491 60.7651 28.6737 62.0435 27.6927C63.322 26.7117 64.8884 26.18 66.4998 26.18C68.1113 26.18 69.6777 26.7117 70.9561 27.6927C72.2346 28.6737 73.1536 30.0491 73.5707 31.6057" stroke-width="2.74514"/>
</svg>
