<?xml version="1.0"?>
<svg xmlns="http://www.w3.org/2000/svg" viewBox="0 0 36 36" fill="none">
  <circle fill="currentColor" cx="18" cy="18" r="18"/>
  <path fill="currentColor" d="M20.761 17.286C22.369 17.778 23.173 18.81 23.173 20.382C23.173 21.522 22.759 22.41 21.931 23.046C21.103 23.682 19.993 24 18.601 24H13.435V11.4H18.097C19.573 11.4 20.665 11.676 21.373 12.228C22.081 12.78 22.435 13.56 22.435 14.568C22.435 15.132 22.303 15.648 22.039 16.116C21.775 16.584 21.349 16.974 20.761 17.286ZM16.117 13.596V16.674H17.935C18.535 16.674 18.997 16.536 19.321 16.26C19.645 15.972 19.807 15.57 19.807 15.054C19.807 14.082 19.165 13.596 17.881 13.596H16.117ZM18.331 21.822C19.003 21.822 19.507 21.672 19.843 21.372C20.191 21.072 20.365 20.676 20.365 20.184C20.365 19.656 20.197 19.26 19.861 18.996C19.525 18.72 19.039 18.582 18.403 18.582H16.117V21.822H18.331Z"/>
</svg>
