<svg width="179" height="107" viewBox="0 0 179 107" fill="none" xmlns="http://www.w3.org/2000/svg">
<path fill-rule="evenodd" clip-rule="evenodd" d="M153.595 5.22428C153.244 3.91237 152.056 3 150.697 3H97C95.3431 3 94 4.34315 94 6V12C94 13.6569 95.3431 15 97 15H125C126.657 15 128 16.3431 128 18V99C128 100.657 129.343 102 131 102H175.591C177.564 102 178.999 100.129 178.489 98.2243L153.595 5.22428Z" fill="url(#paint0_linear)" fill-opacity="0.85"/>
<path d="M115.451 23H58C59.8126 42.8279 66.0206 48.195 71.1295 52.6023C75.3534 56.2464 81.139 61.2357 81.139 71.0948C81.139 82.547 76.8926 93.0142 69.9144 101H115.451C117.411 101 119 99.3985 119 97.4227V26.5773C119 24.6014 117.412 23 115.451 23Z" fill="url(#paint1_linear)" fill-opacity="0.85"/>
<path d="M48.0468 14.9149H48.5028C50.6928 14.9149 52.4688 13.3124 52.4688 11.338V3.57685C52.4688 1.6012 50.6928 0 48.5028 0H23.4972C21.3072 0 19.5312 1.6012 19.5312 3.57685V11.338C19.5312 13.3124 21.3072 14.9149 23.4972 14.9149H23.9532C22.8276 63.7759 0 56.1954 0 71.3385C0 91.032 16.1172 107 36 107C55.8828 107 72 91.032 72 71.3385C72 56.1954 49.1736 63.7771 48.0468 14.9149Z" fill="url(#paint2_linear)" fill-opacity="0.85"/>
<defs>
<linearGradient id="paint0_linear" x1="136.297" y1="3" x2="136.297" y2="102" gradientUnits="userSpaceOnUse">
<stop stop-color="white"/>
<stop offset="1" stop-color="white" stop-opacity="0.58"/>
</linearGradient>
<linearGradient id="paint1_linear" x1="88.5" y1="23" x2="88.5" y2="101" gradientUnits="userSpaceOnUse">
<stop stop-color="white"/>
<stop offset="1" stop-color="white" stop-opacity="0.58"/>
</linearGradient>
<linearGradient id="paint2_linear" x1="36" y1="0" x2="36" y2="107" gradientUnits="userSpaceOnUse">
<stop stop-color="white"/>
<stop offset="1" stop-color="white" stop-opacity="0.58"/>
</linearGradient>
</defs>
</svg>
