<?xml version="1.0"?>
<svg xmlns="http://www.w3.org/2000/svg" viewBox="0 0 36 36" fill="none">
  <path fill="currentColor" d="M26.93 23.408c-.003.698.018 1.405-.084 2.09-.337 2.283-2.263 3.795-4.526 3.61-1.36-.111-2.326-.795-2.842-2.098-.62-1.566-.027-3.26 1.404-4.092.877-.51 1.856-.671 2.822-.871 1.323-.274 1.465-.432 1.463-1.826-.003-2.713-.014-5.425-.022-8.138 0-.081 0-.163-.005-.244l.027-.469L13.93 13.43c-.015 4.226-.022 9.315-.048 13.541a7.5 7.5 0 0 1-.17 1.556c-.436 1.974-1.786 3.184-3.795 3.463-1.101.152-2.113-.025-2.927-.86-1.438-1.473-1.116-4.159.615-5.236.543-.338 1.128-.55 1.728-.715.36-.099.726-.18 1.092-.263l.037-.008c.265-.06.53-.13.79-.21.581-.18.88-.587.889-1.212.008-.651.016-1.303.016-1.955.004-4.296.03-10.007.032-14.302l14.749-3.267v1.845c.006 3.167.001 14.901-.007 17.602Z"/>
</svg>
