<?xml version="1.0"?>
<svg xmlns="http://www.w3.org/2000/svg" version="1.1" viewBox="0 0 1024 1024">
  <path d="M455.3,544.1c-70.6-18.3-150.3,16.8-181,79-31.2,63.4-1,133.8,70.3,156.8,73.8,23.8,160.9-12.6,191.1-81.2,29.7-67-7.5-135.8-80.4-154.6h0ZM401.4,706c-14.3,22.9-45.1,32.9-68.2,22.4-22.8-10.4-29.5-37-15.1-59.3,14.2-22.2,43.8-32.1,66.8-22.5,23.2,9.8,30.7,36.3,16.6,59.4h0ZM448.6,645.4c-5.2,8.9-16.7,13.2-25.6,9.4-8.8-3.6-11.6-13.6-6.6-22.3,5.2-8.7,16.2-12.9,25-9.4,9,3.3,12.2,13.4,7.3,22.3ZM795.3,441c15.5,5,32.1-3.5,37.2-19,12.2-37.9,4.6-81.3-24-113-27.6-30.6-69.5-44.2-109.9-35.6-15.9,3.4-26.1,19-22.7,35,0,0,0,0,0,0,3.4,15.9,19,26,34.9,22.6,0,0,0,0,.1,0,19.1-4,39.7,1.9,53.8,17.3,13.5,15,18,36.1,11.7,55.2-5.1,15.5,3.3,32.1,18.7,37.3,0,0,0,0,.1,0ZM898.7,227.5c-58.8-65.2-145.5-90.1-225.6-73.1-18.5,3.9-30.3,22-26.4,40.5,0,0,0,.1,0,.2,3.9,18.5,22.2,30.4,40.7,26.4,0,0,0,0,0,0,57-12.1,118.6,5.6,160.5,51.9,41.8,46.3,53.1,109.6,35.2,164.9-5.8,18,4,37.3,22.1,43.2,18,5.8,37.3-4,43.1-22h0c25-78.3,9.2-167.1-49.6-232.2h0ZM736.9,498.5c-12.6-3.7-21.2-6.3-14.6-22.9,14.3-36,15.8-67.1.3-89.1-29-41.6-108.6-39.3-199.8-1.1,0,0-28.6,12.5-21.4-10.2,14-45.1,11.9-82.8-10-104.7-49.4-49.5-181,1.9-293.8,114.6-84.4,84.5-133.4,174-133.4,251.5,0,148.1,189.9,238.2,375.7,238.2s405.6-141.5,405.6-253.9-57.2-106.3-108.6-122.3ZM440.5,821.7c-148.2,14.6-276.2-52.3-285.9-149.8-9.6-97.3,102.8-188.1,251-202.7,148.2-14.7,276.2,52.3,285.9,149.7,9.5,97.3-102.8,188.1-251,202.8Z"/>
</svg>
