<?xml version="1.0"?>
<svg viewBox="0 0 36 36" fill="none" xmlns="http://www.w3.org/2000/svg">
  <path fill-rule="evenodd" clip-rule="evenodd" d="M20.6737 18.9768C20.4716 18.6971 20.2544 18.4292 20.0231 18.1741C19.6636 17.5852 19.4564 16.8931 19.4564 16.1527C19.4564 14.0072 21.1957 12.268 23.3411 12.268C25.4866 12.268 27.2258 14.0072 27.2258 16.1527C27.2258 18.2981 25.4866 20.0374 23.3411 20.0374C22.3082 20.0374 21.3695 19.6343 20.6737 18.9768ZM20.4271 30.7201H16.5438V28.7777C16.5438 26.1434 18.0421 23.8591 20.2331 22.7305C20.36 23.269 20.4271 23.8305 20.4271 24.4077V30.7201ZM22.4271 30.7201V24.4077C22.4271 23.6062 22.3255 22.8284 22.1345 22.0864C22.5264 22.0162 22.9299 21.9795 23.342 21.9795C27.0966 21.9795 30.1402 25.0232 30.1402 28.7777V30.7201H22.4271Z" fill="white" fill-opacity="0.3"/>
  <path fill-rule="evenodd" clip-rule="evenodd" d="M13.1424 14.2104C15.5561 14.2104 17.5127 12.2538 17.5127 9.84018C17.5127 7.42654 15.5561 5.46991 13.1424 5.46991C10.7288 5.46991 8.77216 7.42654 8.77216 9.84018C8.77216 12.2538 10.7288 14.2104 13.1424 14.2104ZM13.1433 17.124C9.12062 17.124 5.85956 20.385 5.85956 24.4077V30.7203H20.4271V24.4077C20.4271 20.385 17.1661 17.124 13.1433 17.124Z" fill="white"/>
</svg>
