<?xml version="1.0"?>
<svg xmlns="http://www.w3.org/2000/svg" width="1002" height="680" viewBox="0 0 1002 680" fill="none">
  <path onClick="" d="M252.756 12.4376C252.756 12.4376 256.241 3.20791 251.087 3.20791C231.677 3.20791 182.656 -0.678262 136.191 25.1523V34.4876"/>
  <path stroke="currentColor" d="M252.756 12.4376C252.756 12.4376 256.241 3.20791 251.087 3.20791C231.677 3.20791 182.656 -0.678261 136.191 25.1523V34.4876" stroke-width="4" stroke-miterlimit="10"/>
  <path onClick="" d="M748.881 12.5646C748.881 12.5646 745.374 3.31373 750.549 3.31373C769.959 3.31373 818.98 -0.551453 865.445 25.258V34.6779"/>
  <path stroke="currentColor" d="M748.881 12.5646C748.881 12.5646 745.374 3.31373 750.549 3.31373C769.959 3.31373 818.98 -0.551453 865.445 25.258V34.6779" stroke-width="4" stroke-miterlimit="10"/>
  <path stroke="currentColor" opacity="0.5" d="M279.875 23.1182C279.875 23.1182 285.028 30.8483 294.279 53.6164C305.6 81.5379 310.626 126.461 314.027 151.088C317.512 176.264 323.953 195.632 287.816 235.571C244.835 283.156 165.168 405.972 121.28 569.932L92.5132 670.065" stroke-width="4" stroke-miterlimit="10"/>
  <path stroke="currentColor" opacity="0.5" d="M245.448 447.686C245.448 447.686 223.968 454.465 195.561 524.185C167.154 593.904 138.535 676.507 138.535 676.507" stroke-width="4" stroke-miterlimit="10"/>
  <path stroke="currentColor" opacity="0.5" d="M756.188 447.812C756.188 447.812 777.646 454.592 806.053 524.312C834.461 594.031 863.079 676.634 863.079 676.634" stroke-width="4" stroke-miterlimit="10"/>
  <path stroke="currentColor" opacity="0.5" d="M721.127 24.0059C721.127 24.0059 715.953 31.7571 706.723 54.5041C695.402 82.4467 690.376 127.37 686.975 151.997C683.49 177.152 677.027 196.519 713.186 236.48C756.167 284.086 835.834 406.902 879.722 570.862L908.489 670.974" stroke-width="4" stroke-miterlimit="10"/>
  <path stroke="currentColor" d="M463.456 250.63C466.663 250.63 469.264 248.03 469.264 244.822C469.264 241.614 466.663 239.014 463.456 239.014C460.248 239.014 457.647 241.614 457.647 244.822C457.647 248.03 460.248 250.63 463.456 250.63Z" stroke-width="0.5" stroke-miterlimit="10"/>
  <path stroke="currentColor" d="M482.02 250.63C485.228 250.63 487.828 248.03 487.828 244.822C487.828 241.614 485.228 239.014 482.02 239.014C478.812 239.014 476.212 241.614 476.212 244.822C476.212 248.03 478.812 250.63 482.02 250.63Z" stroke-width="0.5" stroke-miterlimit="10"/>
  <path stroke="currentColor" d="M500.564 250.63C503.772 250.63 506.372 248.03 506.372 244.822C506.372 241.614 503.772 239.014 500.564 239.014C497.356 239.014 494.756 241.614 494.756 244.822C494.756 248.03 497.356 250.63 500.564 250.63Z" stroke-width="0.5" stroke-miterlimit="10"/>
  <path stroke="currentColor" d="M519.129 250.63C522.337 250.63 524.938 248.03 524.938 244.822C524.938 241.614 522.337 239.014 519.129 239.014C515.922 239.014 513.321 241.614 513.321 244.822C513.321 248.03 515.922 250.63 519.129 250.63Z" stroke-width="0.5" stroke-miterlimit="10"/>
  <path stroke="currentColor" d="M537.695 250.63C540.903 250.63 543.503 248.03 543.503 244.822C543.503 241.614 540.903 239.014 537.695 239.014C534.487 239.014 531.887 241.614 531.887 244.822C531.887 248.03 534.487 250.63 537.695 250.63Z" stroke-width="0.5" stroke-miterlimit="10"/>
  <path stroke="currentColor" d="M473.446 266.449C476.654 266.449 479.254 263.849 479.254 260.641C479.254 257.433 476.654 254.833 473.446 254.833C470.238 254.833 467.638 257.433 467.638 260.641C467.638 263.849 470.238 266.449 473.446 266.449Z" stroke-width="0.5" stroke-miterlimit="10"/>
  <path stroke="currentColor" d="M492.01 266.449C495.218 266.449 497.819 263.849 497.819 260.641C497.819 257.433 495.218 254.833 492.01 254.833C488.803 254.833 486.202 257.433 486.202 260.641C486.202 263.849 488.803 266.449 492.01 266.449Z" stroke-width="0.5" stroke-miterlimit="10"/>
  <path stroke="currentColor" d="M510.576 266.449C513.784 266.449 516.384 263.849 516.384 260.641C516.384 257.433 513.784 254.833 510.576 254.833C507.368 254.833 504.768 257.433 504.768 260.641C504.768 263.849 507.368 266.449 510.576 266.449Z" stroke-width="0.5" stroke-miterlimit="10"/>
  <path stroke="currentColor" d="M529.12 266.449C532.327 266.449 534.928 263.849 534.928 260.641C534.928 257.433 532.327 254.833 529.12 254.833C525.912 254.833 523.312 257.433 523.312 260.641C523.312 263.849 525.912 266.449 529.12 266.449Z" stroke-width="0.5" stroke-miterlimit="10"/>
  <path stroke="currentColor" d="M895.141 55.6867C895.141 55.6867 893.853 49.3505 871.908 37.6074C866.797 34.9251 736.335 -4.99301 719.565 23.4143C719.565 23.4143 715.826 20.8376 692.551 17.7751C686.215 13.8255 675.655 11.2911 658.589 10.3407C578.331 5.88425 498.664 5.06055 498.664 5.06055C498.664 5.06055 423.918 5.75741 343.744 10.2139C326.847 11.1643 316.287 13.6566 309.951 17.5428C285.894 20.6687 282.071 23.3087 282.071 23.3087C265.28 -5.09859 134.839 34.7984 129.728 37.5019C107.783 49.1182 106.495 55.5811 106.495 55.5811C-26.375 335.704 3.19401 480.212 16.1199 577.114C29.0457 674.015 133.593 680.394 142.633 673.952C151.672 667.51 208.487 542.265 220.103 489.336C231.72 436.408 285.936 422.194 304.016 427.368C322.095 432.543 501.642 432.522 501.642 432.522L500.184 432.648C500.184 432.648 679.71 432.648 697.726 427.474C715.742 422.299 770.022 436.513 781.638 489.442C793.255 542.37 850.069 667.616 859.088 674.058C868.106 680.499 972.696 674.057 985.622 577.24C998.548 480.423 1028.12 335.81 895.141 55.6867Z" stroke-width="8" stroke-miterlimit="10"/>
  <path stroke="currentColor" d="M613.053 213.817C662.138 213.817 671.199 183.086 677.598 158.312C684.483 131.742 693.101 88.6136 699.416 50.7442C703.175 28.1873 704.717 13.7198 658.23 11.122C577.972 6.6655 498.305 5.8418 498.305 5.8418C498.305 5.8418 423.58 6.5598 343.385 11.0163C296.919 13.593 298.461 28.0606 302.221 50.6175C308.557 88.4657 317.153 131.615 324.017 158.185C330.353 182.96 339.498 213.711 388.583 213.711H497.819C497.819 213.711 542.046 213.817 613.053 213.817Z" stroke-width="2" stroke-miterlimit="10"/>
  <path stroke="currentColor" d="M521.094 371.208H481.978C479.587 371.208 477.648 373.146 477.648 375.538V375.918C477.648 378.309 479.587 380.248 481.978 380.248H521.094C523.485 380.248 525.423 378.309 525.423 375.918V375.538C525.423 373.146 523.485 371.208 521.094 371.208Z" stroke-width="4" stroke-miterlimit="10"/>
  <path stroke="currentColor" d="M502.808 359.871C522.138 359.871 537.808 344.201 537.808 324.871C537.808 305.541 522.138 289.871 502.808 289.871C483.478 289.871 467.808 305.541 467.808 324.871C467.808 344.201 483.478 359.871 502.808 359.871Z" stroke-width="4"/>
  <path fill="currentColor" d="M493.848 294.604C496.572 295.11 499.255 295.829 501.916 296.589C503.436 297.032 504.957 297.497 506.457 297.983C508.848 298.671 511.152 299.635 513.321 300.855C514.301 301.443 515.202 302.152 516.003 302.967C516.869 303.811 517.583 304.797 518.115 305.882C518.985 307.882 519.445 310.037 519.467 312.218C519.549 313.631 519.471 315.048 519.235 316.442C519.039 317.651 518.616 318.812 517.989 319.864C517.42 320.791 516.629 321.561 515.686 322.103C514.753 322.581 513.715 322.821 512.666 322.8C511.093 322.761 509.549 322.371 508.146 321.659C508.146 316.949 508.146 312.218 508.146 307.508C508.188 306.639 508.132 305.767 507.977 304.91C507.893 304.241 507.58 303.621 507.09 303.157C506.734 302.872 506.313 302.676 505.865 302.587C505.641 302.55 505.412 302.573 505.2 302.655C504.988 302.736 504.802 302.874 504.661 303.052C504.235 303.67 504.027 304.414 504.07 305.164V342.928L493.869 339.696L493.848 294.604Z"/>
  <path fill="currentColor" d="M478.599 326.538L491.863 321.828C491.863 323.56 491.863 325.292 491.863 327.045C491.863 327.277 491.863 327.51 491.863 327.742L481.302 331.501C480.8 331.649 480.338 331.909 479.951 332.262C479.852 332.341 479.779 332.447 479.742 332.567C479.704 332.688 479.703 332.817 479.74 332.938C479.809 333.073 479.904 333.193 480.02 333.291C480.136 333.389 480.27 333.463 480.415 333.508C481.197 333.778 482.018 333.913 482.844 333.909C483.76 333.906 484.673 333.807 485.569 333.613C486.168 333.489 486.754 333.312 487.322 333.085L491.799 331.459C491.799 332.938 491.799 334.416 491.799 335.873C491.799 336.169 491.799 336.465 491.799 336.76C489.96 337.106 488.095 337.303 486.224 337.352C482.458 337.426 478.708 336.855 475.135 335.662C473.945 335.365 472.821 334.85 471.819 334.141C471.257 333.742 470.818 333.193 470.552 332.557C470.433 332.288 470.371 331.997 470.371 331.702C470.371 331.407 470.433 331.116 470.552 330.847C470.816 330.326 471.218 329.887 471.714 329.579C472.825 328.844 474.006 328.222 475.241 327.721C476.424 327.277 477.522 326.918 478.599 326.538Z"/>
  <path fill="currentColor" d="M514.314 324.553C515.307 324.553 516.321 324.405 517.334 324.384C520.668 324.358 523.986 324.835 527.177 325.799L529.014 326.433C530.148 326.792 531.202 327.365 532.119 328.122C532.404 328.351 532.639 328.636 532.81 328.96C532.98 329.283 533.083 329.638 533.112 330.002C533.121 330.612 532.894 331.203 532.478 331.649C531.688 332.453 530.757 333.104 529.732 333.571C528.653 334.066 527.546 334.496 526.416 334.86L506.077 342.189V336.592C506.077 336.592 506.077 336.38 506.077 336.359L521.58 330.847C522.327 330.645 523.039 330.332 523.692 329.918C523.834 329.839 523.946 329.715 524.011 329.566C524.076 329.418 524.09 329.252 524.051 329.094C523.892 328.829 523.645 328.627 523.354 328.524C522.572 328.259 521.75 328.13 520.925 328.143C519.635 328.139 518.351 328.338 517.123 328.735L506.098 332.6V326.475C508.757 325.531 511.513 324.887 514.314 324.553Z"/>
  <path onClick="" stroke="currentColor" d="M724.752 93.7071L725.693 93.8497C731.79 94.7735 737.482 90.5797 738.406 84.4823L741.875 61.5865C742.799 55.4891 738.605 49.7974 732.508 48.8736L731.567 48.731C725.47 47.8072 719.778 52.001 718.854 58.0984L715.385 80.9943C714.461 87.0916 718.655 92.7833 724.752 93.7071Z" stroke-width="4" stroke-miterlimit="10"/>
  <path onClick="" stroke="currentColor" d="M264.255 47.6447L263.316 47.7888C257.228 48.7225 253.05 54.4145 253.984 60.5022L257.49 83.3621C258.424 89.4498 264.116 93.6279 270.203 92.6941L271.143 92.55C277.231 91.6163 281.409 85.9244 280.475 79.8366L276.969 56.9768C276.035 50.8891 270.343 46.711 264.255 47.6447Z" stroke-width="4" stroke-miterlimit="10"/>
  <path onClick="" stroke="currentColor" d="M216.513 107.601C216.343 103.911 214.719 100.438 211.996 97.9404C209.273 95.4432 205.673 94.1252 201.982 94.2742H174.271C172.609 94.2004 170.948 94.4549 169.383 95.0233C167.819 95.5916 166.381 96.4626 165.154 97.5864C163.926 98.7102 162.932 100.065 162.227 101.573C161.523 103.081 161.123 104.713 161.05 106.376V140.169C161.05 141.144 161.258 142.107 161.658 142.995C162.059 143.884 162.643 144.677 163.373 145.323L183.1 163.402C184.646 164.774 186.641 165.531 188.707 165.531C190.774 165.531 192.769 164.774 194.315 163.402L214.063 145.323C214.785 144.671 215.365 143.877 215.765 142.99C216.165 142.103 216.376 141.142 216.386 140.169L216.513 107.601Z" stroke-width="4" stroke-miterlimit="10"/>
  <path onClick="" stroke="currentColor" d="M216.513 250.102C216.513 257.452 210.008 263.408 201.982 263.408H174.271C172.609 263.482 170.948 263.227 169.383 262.659C167.819 262.091 166.381 261.22 165.154 260.096C163.926 258.972 162.932 257.618 162.227 256.109C161.523 254.601 161.123 252.969 161.05 251.306V217.513C161.046 216.538 161.252 215.573 161.653 214.684C162.053 213.795 162.64 213.003 163.373 212.36L183.1 194.259C184.646 192.887 186.641 192.13 188.707 192.13C190.774 192.13 192.769 192.887 194.315 194.259L214.063 212.36C214.789 213.009 215.37 213.803 215.77 214.69C216.17 215.578 216.38 216.539 216.386 217.513L216.513 250.102Z" stroke-width="4" stroke-miterlimit="10"/>
  <path onClick="" stroke="currentColor" d="M116.253 206.594C112.562 206.424 109.089 204.8 106.592 202.078C104.095 199.355 102.777 195.754 102.926 192.063V164.31C102.852 162.648 103.106 160.987 103.675 159.422C104.243 157.858 105.114 156.421 106.238 155.193C107.362 153.965 108.716 152.971 110.225 152.266C111.733 151.562 113.365 151.162 115.028 151.089H148.821C149.795 151.093 150.757 151.303 151.644 151.703C152.532 152.103 153.326 152.685 153.974 153.412L172.054 173.16C173.425 174.706 174.183 176.701 174.183 178.768C174.183 180.834 173.425 182.829 172.054 184.375L153.974 204.102C153.326 204.829 152.532 205.411 151.644 205.811C150.757 206.211 149.795 206.421 148.821 206.425L116.253 206.594Z" stroke-width="4" stroke-miterlimit="10"/>
  <path onClick="" stroke="currentColor" d="M258.754 206.594C266.104 206.594 272.06 200.089 272.06 192.063V164.31C272.134 162.648 271.879 160.987 271.311 159.422C270.743 157.858 269.872 156.421 268.748 155.193C267.624 153.965 266.269 152.971 264.761 152.266C263.253 151.562 261.621 151.162 259.958 151.089H226.165C225.19 151.089 224.227 151.297 223.339 151.697C222.45 152.098 221.657 152.682 221.011 153.412L202.911 173.16C201.539 174.706 200.782 176.701 200.782 178.768C200.782 180.834 201.539 182.829 202.911 184.375L221.011 204.102C221.657 204.832 222.45 205.416 223.339 205.817C224.227 206.217 225.19 206.425 226.165 206.425L258.754 206.594Z" stroke-width="4" stroke-miterlimit="10"/>
  <path fill="currentColor" d="M188.823 117.528H177.946L183.374 112.797L188.823 108.045L194.23 112.797L199.679 117.528H188.823Z"/>
  <path fill="currentColor" d="M188.824 241.464H178.812L183.818 245.815L188.824 250.166L193.808 245.815L198.814 241.464H188.824Z"/>
  <path fill="currentColor" d="M251.087 179.116V169.041L255.48 174.068L259.874 179.116L255.48 184.163L251.087 189.19V179.116Z"/>
  <path fill="currentColor" d="M127.151 179.115V168.344L122.441 173.73L117.752 179.115L122.441 184.501L127.151 189.887V179.115Z"/>
  <path onClick="" stroke="currentColor" d="M818.162 145.029C835.587 145.029 849.713 130.903 849.713 113.478C849.713 96.0534 835.587 81.9277 818.162 81.9277C800.737 81.9277 786.611 96.0534 786.611 113.478C786.611 130.903 800.737 145.029 818.162 145.029Z" stroke-width="4" stroke-miterlimit="10"/>
  <path onClick="" stroke="currentColor" d="M751.18 212.814C768.605 212.814 782.731 198.688 782.731 181.264C782.731 163.839 768.605 149.713 751.18 149.713C733.756 149.713 719.63 163.839 719.63 181.264C719.63 198.688 733.756 212.814 751.18 212.814Z" stroke-width="4" stroke-miterlimit="10"/>
  <path onClick="" stroke="currentColor" d="M885.273 212.814C902.698 212.814 916.824 198.688 916.824 181.264C916.824 163.839 902.698 149.713 885.273 149.713C867.848 149.713 853.723 163.839 853.723 181.264C853.723 198.688 867.848 212.814 885.273 212.814Z" stroke-width="4" stroke-miterlimit="10"/>
  <path onClick="" stroke="currentColor" d="M818.162 281.076C835.587 281.076 849.713 266.95 849.713 249.525C849.713 232.1 835.587 217.975 818.162 217.975C800.737 217.975 786.611 232.1 786.611 249.525C786.611 266.95 800.737 281.076 818.162 281.076Z" stroke-width="4" stroke-miterlimit="10"/>
  <path stroke="#8B929A" d="M817.913 126.424H837.902L827.908 109.116L817.913 91.7861L807.918 109.116L797.902 126.424H817.913Z" stroke-width="3" stroke-miterlimit="10"/>
  <path stroke="#8B929A" d="M768.68 163.764H733.68V198.764H768.68V163.764Z" stroke-width="3" stroke-miterlimit="10"/>
  <path stroke="#8B929A" d="M885.273 201.264C896.319 201.264 905.273 192.309 905.273 181.264C905.273 170.218 896.319 161.264 885.273 161.264C874.228 161.264 865.273 170.218 865.273 181.264C865.273 192.309 874.228 201.264 885.273 201.264Z" stroke-width="3" stroke-miterlimit="10"/>
  <path stroke="#8B929A" fill="#97AFDD" d="M835.775 232.972L819.564 249.182L819.21 249.536L819.564 249.89L835.775 266.08L834.715 267.139L818.526 250.929L818.172 250.575L817.818 250.928L801.607 267.139L800.548 266.08L816.758 249.89L817.112 249.536L816.759 249.182L800.548 232.972L801.607 231.912L817.818 248.123L818.172 248.477L818.526 248.123L834.715 231.912L835.775 232.972Z"/>
  <path stroke="currentColor" opacity="0.5" d="M664.566 387.26C702.336 387.26 732.955 356.641 732.955 318.871C732.955 281.101 702.336 250.482 664.566 250.482C626.796 250.482 596.178 281.101 596.178 318.871C596.178 356.641 626.796 387.26 664.566 387.26Z" stroke-width="4" stroke-miterlimit="10"/>
  <path stroke="currentColor" d="M664.566 373.595C694.789 373.595 719.29 349.094 719.29 318.871C719.29 288.648 694.789 264.147 664.566 264.147C634.343 264.147 609.843 288.648 609.843 318.871C609.843 349.094 634.343 373.595 664.566 373.595Z" stroke-width="4" stroke-miterlimit="10"/>
  <path onClick="" style="" stroke="currentColor" d="M664.567 355.199C684.63 355.199 700.894 338.935 700.894 318.871C700.894 298.808 684.63 282.544 664.567 282.544C644.504 282.544 628.239 298.808 628.239 318.871C628.239 338.935 644.504 355.199 664.567 355.199Z" stroke-width="4" stroke-miterlimit="10"/>
  <path stroke="currentColor" opacity="0.5" d="M338.548 386.964C376.318 386.964 406.937 356.345 406.937 318.575C406.937 280.805 376.318 250.187 338.548 250.187C300.778 250.187 270.159 280.805 270.159 318.575C270.159 356.345 300.778 386.964 338.548 386.964Z" stroke-width="4" stroke-miterlimit="10"/>
  <path stroke="currentColor" d="M338.548 373.299C368.771 373.299 393.272 348.798 393.272 318.575C393.272 288.352 368.771 263.852 338.548 263.852C308.325 263.852 283.824 288.352 283.824 318.575C283.824 348.798 308.325 373.299 338.548 373.299Z" stroke-width="4" stroke-miterlimit="10"/>
  <path onClick="" style="" stroke="currentColor" d="M338.548 354.903C358.611 354.903 374.875 338.639 374.875 318.576C374.875 298.512 358.611 282.248 338.548 282.248C318.485 282.248 302.22 298.512 302.22 318.576C302.22 338.639 318.485 354.903 338.548 354.903Z" stroke-width="4" stroke-miterlimit="10"/>
</svg>
