<?xml version="1.0"?>
<svg width="36" height="36" viewBox="0 0 36 36" fill="none" xmlns="http://www.w3.org/2000/svg">
  <path d="M19.6132 4.48004C19.7307 3.48122 19.0149 2.56503 18.0091 2.56444C15.3942 2.5629 12.81 3.21798 10.4991 4.48264C7.65347 6.03987 5.36308 8.44414 3.94564 11.3619C2.52821 14.2796 2.05401 17.5662 2.58884 20.7656C3.12367 23.9651 4.64101 26.9187 6.93035 29.2169C9.21969 31.515 12.1675 33.0436 15.3649 33.5906C18.5623 34.1377 21.8506 33.6761 24.7738 32.2698C27.6969 30.8636 30.1099 28.5824 31.678 25.7427C32.9515 23.4366 33.6165 20.855 33.6249 18.2401C33.6282 17.2344 32.7147 16.515 31.7155 16.6287V16.6287C30.7162 16.7424 30.0129 17.6477 29.9741 18.6526C29.9021 20.5123 29.3975 22.3384 28.4898 23.9822C27.2873 26.1599 25.4367 27.9094 23.1949 28.9879C20.9531 30.0663 18.4312 30.4204 15.9791 30.0008C13.527 29.5813 11.2663 28.4089 9.51055 26.6465C7.75483 24.884 6.59116 22.6189 6.18099 20.1652C5.77083 17.7115 6.13449 15.191 7.22154 12.9533C8.30859 10.7156 10.0651 8.87179 12.2474 7.67753C13.8946 6.77613 15.7227 6.27854 17.5826 6.21371C18.5877 6.17868 19.4957 5.47886 19.6132 4.48004V4.48004Z" fill="currentColor"/>
  <circle cx="23.6066" cy="4.83903" r="1.80192" fill="currentColor"/>
  <circle cx="28.1769" cy="7.97575" r="1.80192" fill="currentColor"/>
  <circle cx="31.216" cy="12.8156" r="1.80192" fill="currentColor"/>
  <rect x="16.1953" y="8.64453" width="3.60918" height="10.945" rx="1.80459" fill="currentColor"/>
  <rect x="15.7305" y="18.6074" width="3.60918" height="9.53741" rx="1.80459" transform="rotate(-58.9339 15.7305 18.6074)" fill="currentColor"/>
</svg>
