<?xml version="1.0"?>
<svg xmlns="http://www.w3.org/2000/svg" viewBox="0 0 1000 699" fill="none">
  <path onClick="" stroke="currentColor" d="M806.784 16.5643C805.86 16.28 804.864 15.9956 803.869 15.7112C802.873 15.4268 801.877 15.2135 800.882 14.9292L796.757 14.1471C795.477 13.8628 794.197 13.5784 792.846 13.294C791.353 13.0096 789.859 12.6541 788.295 12.3698C786.73 12.0854 785.237 11.801 783.743 11.5166C782.961 11.3744 782.179 11.2323 781.468 11.0901C780.757 10.9479 780.045 10.8768 779.263 10.7346C777.77 10.5213 776.276 10.308 774.783 10.0947C773.432 9.88147 772.01 9.73928 770.659 9.52599C769.307 9.31271 767.956 9.17052 766.605 9.02833C765.254 8.88614 763.903 8.74396 762.552 8.60177C761.2 8.45958 759.849 8.38848 758.498 8.24629C757.147 8.10411 755.867 8.03301 754.516 7.96192C753.165 7.89082 751.813 7.81973 750.533 7.74863C749.253 7.67754 747.902 7.60645 746.622 7.60645C745.342 7.60645 743.991 7.60645 742.711 7.60645C742.64 7.60645 742.569 7.60645 742.498 7.60645C740.009 7.60645 737.448 7.60645 734.959 7.60645C733.679 7.60645 732.399 7.67754 731.119 7.67754C729.839 7.67754 728.559 7.81973 727.279 7.81973C724.719 7.96192 722.23 8.10411 719.67 8.31739C717.11 8.53067 714.55 8.81505 712.061 9.09943C709.927 9.3838 707.865 9.66818 705.732 9.95256C704.452 10.0947 703.243 10.308 701.963 10.5213C701.18 10.6635 700.327 10.8057 699.474 10.9479C697.34 11.3034 695.349 11.7299 693.287 12.1565C693.145 12.2276 693.074 12.2276 692.931 12.2276C692.718 12.2276 692.434 12.3698 692.149 12.4409C691.936 12.512 691.793 12.5831 691.58 12.6541C691.438 12.7252 691.296 12.8674 691.153 12.8674C690.727 13.0807 690.371 13.294 689.944 13.5073C689.66 13.7206 689.304 13.9338 689.02 14.1471C688.807 14.2893 688.664 14.4315 688.451 14.5737C688.024 14.9292 687.171 15.7112 687.171 15.7112C686.175 16.7776 685.18 17.9151 684.113 18.9815C683.758 19.4081 683.331 19.7636 682.975 20.1902C682.62 20.5456 682.193 21.1144 681.909 21.5409C681.624 22.0386 681.34 22.5363 681.126 23.0339C681.055 23.1761 680.913 23.4605 680.913 23.4605C680.771 23.8871 680.273 25.0246 680.202 25.38C680.486 25.5222 680.913 25.6644 681.269 25.8777C681.411 25.9488 681.909 26.1621 681.909 26.1621C681.909 26.1621 682.193 26.3043 682.335 26.3754C682.549 26.4465 682.691 26.5886 682.904 26.6597C683.331 26.873 683.758 27.0152 684.184 27.2285C684.682 27.4418 685.18 27.6551 685.749 27.8683C686.389 28.1527 687.029 28.366 687.669 28.6504C688.451 28.9348 689.233 29.2191 690.087 29.5035C691.011 29.7879 691.936 30.1434 692.86 30.4277C693.785 30.7121 694.78 30.9965 695.705 31.2809C696.629 31.5653 697.554 31.7785 698.478 32.0629C699.332 32.2762 700.256 32.5606 701.109 32.7739C701.963 32.9871 702.816 33.2004 703.669 33.4137C704.523 33.627 705.447 33.8403 706.301 33.9825C707.154 34.1247 708.15 34.409 709.074 34.5512C710.07 34.7645 711.065 34.9778 712.061 35.12C713.128 35.3333 714.265 35.5465 715.332 35.7598C716.541 35.9731 717.75 36.1864 719.03 36.3997C720.381 36.613 721.804 36.8262 723.155 37.1106C724.719 37.3239 726.213 37.6083 727.777 37.8216C729.484 38.1059 731.19 38.3192 732.897 38.6036C734.746 38.888 736.595 39.1013 738.444 39.3856C740.506 39.67 742.498 39.9544 744.56 40.2388C746.764 40.5231 749.04 40.8786 751.245 41.163C753.662 41.5185 756.08 41.8739 758.498 42.2294C761.129 42.656 763.832 43.0114 766.463 43.438C769.378 43.9357 772.294 44.3622 775.139 44.8599C778.339 45.4287 781.468 45.9974 784.668 46.6373C788.152 47.3482 791.637 48.0591 795.122 48.8412C798.962 49.6943 802.802 50.6896 806.571 51.685C810.696 52.8225 814.82 53.96 818.945 55.2397C823.069 56.5194 827.336 57.9413 831.461 59.4342C835.372 60.8561 839.212 62.278 843.052 63.8421C846.466 65.1929 849.808 66.6148 853.15 68.0367C856.066 69.3164 858.911 70.525 861.755 71.8047C864.244 72.9422 866.662 74.0086 869.08 75.075C871.213 75.9992 873.276 76.9235 875.338 77.7766C877.116 78.5586 878.894 79.2696 880.529 79.9094C882.023 80.4782 883.374 80.9758 884.725 81.4024L888.849 82.6821L889.276 82.7532L889.703 82.8243L890.129 82.8954L890.556 82.9665C890.556 81.4024 890.485 79.4118 890.485 77.8477C890.485 76.6391 890.343 75.1461 890.343 73.9375C890.272 73.2266 890.343 72.5867 890.272 71.8758C890.201 71.1648 890.201 70.525 890.201 69.814C890.201 69.6718 890.201 69.6718 890.201 69.5297C890.201 69.3875 890.201 69.2453 890.201 69.2453L889.987 65.9749L889.845 64.9796C889.774 64.7663 889.703 64.482 889.561 64.1265C889.489 63.9843 889.418 63.771 889.347 63.6288C889.276 63.4155 889.134 63.2023 888.992 62.9179C888.849 62.7046 888.707 62.4202 888.565 62.2069C888.352 61.9226 888.138 61.6382 887.925 61.4249L887.569 61.0694C886.147 59.7186 884.725 58.51 883.303 57.3014C882.378 56.5194 881.169 55.453 880.245 54.6709C879.32 53.8889 878.325 53.1069 877.329 52.3959C876.76 51.9693 876.191 51.5428 875.622 51.1162C874.2 50.0498 872.778 49.0545 871.355 48.1302C871.071 47.8459 870.715 47.6326 870.36 47.4193C868.724 46.3529 867.089 45.2865 865.453 44.2201C863.817 43.1536 861.969 42.0161 860.262 40.9497C859.835 40.7364 859.408 40.4521 858.911 40.1677C857.346 39.2434 855.568 38.2481 853.933 37.2528L843.408 31.6363C842.626 31.2809 841.843 30.8543 841.061 30.4988C839.354 29.7168 837.648 28.8637 836.012 28.1527C834.376 27.4418 832.741 26.7308 831.105 26.0199L830.678 25.8066C829.683 25.38 828.758 24.9535 827.763 24.5269C827.123 24.2425 826.483 24.0292 825.914 23.7449C825.345 23.4605 824.705 23.2472 824.065 22.9628C823.069 22.6074 822.429 22.1808 821.363 21.8253L819.798 21.1144C819.158 20.7589 818.447 20.4034 817.736 20.1191C817.025 19.8347 816.385 19.5503 815.673 19.337C815.033 19.1237 814.18 18.8394 813.54 18.6261C811.904 18.1284 810.269 17.6308 808.633 17.1331C807.993 16.9198 807.353 16.7776 806.713 16.5643" stroke-width="4" stroke-linejoin="bevel"/>
  <path onClick="" stroke="currentColor" d="M194.772 16.9579C195.696 16.6735 196.692 16.3891 197.688 16.1048C198.683 15.8204 199.679 15.6071 200.674 15.3227L204.799 14.5407C206.079 14.2563 207.359 13.9719 208.71 13.6876C210.204 13.4032 211.697 13.0477 213.262 12.7633C214.826 12.4789 216.319 12.1946 217.813 11.9102C218.595 11.768 219.377 11.6258 220.088 11.4836C220.8 11.3414 221.511 11.2703 222.293 11.1282C223.786 10.9149 225.28 10.7016 226.773 10.4883C228.124 10.275 229.547 10.1328 230.898 9.91955C232.249 9.70627 233.6 9.56408 234.951 9.42189C236.302 9.2797 237.653 9.13751 239.005 8.99532C240.356 8.85313 241.707 8.78204 243.058 8.63985C244.409 8.49766 245.689 8.42657 247.041 8.35547C248.392 8.28438 249.743 8.21328 251.023 8.14219C252.303 8.07109 253.654 8 254.934 8C256.214 8 257.565 8 258.845 8C258.916 8 258.988 8 259.059 8C261.548 8 264.108 8 266.597 8C267.877 8 269.157 8.07109 270.437 8.07109C271.717 8.07109 272.997 8.21328 274.277 8.21328C276.837 8.35547 279.326 8.49766 281.886 8.71094C284.446 8.92423 287.006 9.2086 289.495 9.49298C291.629 9.77736 293.691 10.0617 295.824 10.3461C297.105 10.4883 298.313 10.7016 299.594 10.9149C300.376 11.0571 301.229 11.1992 302.082 11.3414C304.216 11.6969 306.207 12.1235 308.269 12.55C308.412 12.6211 308.483 12.6211 308.625 12.6211C308.838 12.6211 309.123 12.7633 309.407 12.8344C309.621 12.9055 309.763 12.9766 309.976 13.0477C310.118 13.1188 310.261 13.261 310.403 13.261C310.829 13.4743 311.185 13.6875 311.612 13.9008C311.896 14.1141 312.252 14.3274 312.536 14.5407C312.75 14.6829 312.892 14.8251 313.105 14.9672C313.532 15.3227 314.385 16.1048 314.385 16.1048C315.381 17.1712 316.376 18.3087 317.443 19.3751C317.799 19.8017 318.225 20.1571 318.581 20.5837C318.936 20.9392 319.363 21.5079 319.648 21.9345C319.932 22.4322 320.216 22.9298 320.43 23.4275C320.501 23.5697 320.643 23.854 320.643 23.854C320.785 24.2806 321.283 25.4181 321.354 25.7736C321.07 25.9158 320.643 26.058 320.288 26.2713C320.145 26.3424 319.647 26.5556 319.647 26.5556C319.647 26.5556 319.363 26.6978 319.221 26.7689C319.007 26.84 318.865 26.9822 318.652 27.0533C318.225 27.2666 317.799 27.4088 317.372 27.622C316.874 27.8353 316.376 28.0486 315.807 28.2619C315.167 28.5463 314.527 28.7596 313.887 29.0439C313.105 29.3283 312.323 29.6127 311.469 29.8971C310.545 30.1814 309.62 30.5369 308.696 30.8213C307.772 31.1057 306.776 31.3901 305.851 31.6744C304.927 31.9588 304.002 32.1721 303.078 32.4565C302.225 32.6698 301.3 32.9541 300.447 33.1674C299.593 33.3807 298.74 33.594 297.887 33.8073C297.033 34.0205 296.109 34.2338 295.255 34.376C294.402 34.5182 293.407 34.8026 292.482 34.9448C291.486 35.1581 290.491 35.3713 289.495 35.5135C288.429 35.7268 287.291 35.9401 286.224 36.1534C285.015 36.3667 283.806 36.5799 282.526 36.7932C281.175 37.0065 279.753 37.2198 278.402 37.5042C276.837 37.7174 275.344 38.0018 273.779 38.2151C272.072 38.4995 270.366 38.7128 268.659 38.9972C266.81 39.2815 264.961 39.4948 263.112 39.7792C261.05 40.0636 259.059 40.3479 256.996 40.6323C254.792 40.9167 252.516 41.2722 250.312 41.5565C247.894 41.912 245.476 42.2675 243.058 42.623C240.427 43.0495 237.725 43.405 235.093 43.8316C232.178 44.3292 229.262 44.7558 226.417 45.2535C223.217 45.8222 220.088 46.391 216.888 47.0308C213.404 47.7418 209.919 48.4527 206.435 49.2347C202.594 50.0879 198.754 51.0832 194.985 52.0785C190.861 53.216 186.736 54.3535 182.611 55.6332C178.487 56.9129 174.22 58.3348 170.096 59.8278C166.184 61.2497 162.344 62.6716 158.504 64.2357C155.09 65.5864 151.748 67.0083 148.406 68.4302C145.49 69.7099 142.646 70.9185 139.801 72.1982C137.312 73.3357 134.894 74.4022 132.476 75.4686C130.343 76.3928 128.281 77.317 126.218 78.1702C124.441 78.9522 122.663 79.6631 121.027 80.303C119.534 80.8717 118.183 81.3694 116.831 81.796L112.707 83.0757L112.28 83.1468L111.853 83.2179L111.427 83.289L111 83.3601C111 81.796 111.071 79.8053 111.071 78.2412C111.071 77.0326 111.213 75.5397 111.213 74.3311C111.285 73.6201 111.213 72.9803 111.284 72.2693C111.356 71.5584 111.356 70.9185 111.356 70.2076C111.356 70.0654 111.356 70.0654 111.356 69.9232C111.356 69.781 111.356 69.6388 111.356 69.6388L111.569 66.3685L111.711 65.3732C111.782 65.1599 111.853 64.8755 111.996 64.52C112.067 64.3778 112.138 64.1646 112.209 64.0224C112.28 63.8091 112.422 63.5958 112.565 63.3114C112.707 63.0981 112.849 62.8138 112.991 62.6005C113.205 62.3161 113.418 62.0317 113.631 61.8185L113.987 61.463C115.409 60.1122 116.831 58.9036 118.254 57.695C119.178 56.9129 120.387 55.8465 121.312 55.0645C122.236 54.2824 123.232 53.5004 124.227 52.7895C124.796 52.3629 125.365 51.9363 125.934 51.5098C127.356 50.4433 128.778 49.448 130.201 48.5238C130.485 48.2394 130.841 48.0261 131.196 47.8129C132.832 46.7464 134.468 45.68 136.103 44.6136C137.739 43.5472 139.588 42.4097 141.294 41.3433C141.721 41.13 142.148 40.8456 142.646 40.5612C144.21 39.637 145.988 38.6417 147.624 37.6464L158.148 32.0299C158.931 31.6744 159.713 31.2479 160.495 30.8924C162.202 30.1104 163.909 29.2572 165.544 28.5463C167.18 27.8353 168.815 27.1244 170.451 26.4134L170.878 26.2002C171.873 25.7736 172.798 25.347 173.793 24.9205C174.433 24.6361 175.073 24.4228 175.642 24.1384C176.211 23.854 176.851 23.6408 177.491 23.3564C178.487 23.0009 179.127 22.5743 180.194 22.2189L181.758 21.5079C182.398 21.1525 183.109 20.797 183.82 20.5126C184.532 20.2282 185.172 19.9439 185.883 19.7306C186.523 19.5173 187.376 19.2329 188.016 19.0196C189.652 18.522 191.287 18.0243 192.923 17.5266C193.563 17.3134 194.203 17.1712 194.843 16.9579" stroke-width="4" stroke-linejoin="bevel"/>
  <path stroke="currentColor" d="M888.423 82.612C888.565 82.6831 888.707 82.612 888.849 82.6831C888.992 82.7542 889.134 82.6831 889.276 82.7542C889.418 82.7542 889.561 82.7542 889.703 82.8253C889.845 82.8253 889.987 82.8253 890.129 82.8964C890.272 82.8964 890.414 82.8964 890.556 82.9675C890.698 82.9675 890.912 82.9675 891.054 82.9675C891.196 82.9675 891.41 82.9675 891.552 82.9675C891.694 82.9675 891.907 82.9675 892.05 82.9675C892.192 82.9675 892.405 82.9675 892.547 82.9675C892.69 82.9675 892.903 82.9675 893.045 82.9675C893.187 82.9675 893.401 82.9675 893.543 82.9675C893.685 82.9675 893.827 82.9675 893.97 82.9675C894.112 82.9675 894.254 82.9675 894.396 82.9675C894.539 82.9675 894.681 82.9675 894.752 82.8964C894.894 82.8964 895.036 82.8964 895.107 82.8253C895.179 82.7542 895.392 82.7542 895.676 82.7542C895.961 82.7542 896.459 82.7542 897.028 83.1097L897.241 83.3941C897.241 83.3941 897.241 83.3941 897.312 83.4652C900.796 86.9488 904.139 90.7168 907.481 94.7692C910.752 98.8216 913.952 103.158 916.939 107.851C920.353 113.112 923.695 118.799 926.753 124.771C926.753 124.771 926.895 125.126 927.037 125.269C930.166 131.454 933.011 137.923 935.713 144.749C938.416 151.574 940.833 158.612 943.109 165.864C945.385 173.115 947.447 180.58 949.296 188.116C951.216 195.652 952.923 203.259 954.487 210.866C955.27 214.705 956.052 218.545 956.763 222.455C957.474 226.365 958.185 230.204 958.896 234.185C960.319 242.077 961.599 250.039 962.879 258.215C963.519 262.339 964.159 266.462 964.799 270.728C965.439 274.922 966.008 279.259 966.648 283.596C967.857 292.269 969.066 301.298 970.275 310.541C971.483 319.854 972.692 329.452 973.901 339.334C974.47 344.31 975.11 349.287 975.679 354.406C976.248 359.525 976.888 364.643 977.457 369.833C978.666 380.213 979.804 390.735 980.87 401.328C981.439 406.589 981.937 411.85 982.435 417.04C982.933 422.23 983.431 427.42 983.857 432.467C984.711 442.634 985.493 452.445 986.062 461.829C986.631 471.214 987.129 480.243 987.413 488.916C987.697 497.59 987.84 505.908 987.768 513.871C987.768 521.833 987.555 529.44 987.128 536.763C986.702 544.086 986.204 551.053 985.422 557.736C985.066 561.077 984.639 564.348 984.213 567.547C983.786 570.746 983.288 573.874 982.719 576.931C981.653 583.045 980.373 588.875 978.95 594.42C977.528 599.966 975.964 605.227 974.186 610.203C972.408 615.18 970.488 619.872 968.425 624.209C966.363 628.546 964.088 632.74 961.67 636.579C959.252 640.419 956.621 644.044 953.776 647.457C950.932 650.869 947.945 654.069 944.674 657.055C941.402 660.041 937.918 662.884 934.149 665.586C930.38 668.288 926.397 670.776 922.131 673.193C917.864 675.61 913.312 677.885 908.406 680.018C898.948 684.284 888.423 688.123 876.262 691.606M102.617 83.3941C102.688 83.3941 102.83 83.2519 102.83 83.2519L102.901 83.2519M29.2988 315.588C29.6544 312.816 30.01 310.185 30.2944 307.626C30.5789 305.066 30.9344 302.578 31.29 300.232C31.6456 297.886 31.93 295.611 32.2145 293.407C32.4989 291.203 32.7834 289.141 33.0679 287.079C33.3523 285.018 33.6368 283.098 33.8501 281.25C34.0635 279.401 34.3479 277.553 34.6324 275.847C34.9168 274.14 35.1302 272.434 35.3435 270.799C35.5568 269.164 35.8413 267.6 36.0546 266.107C36.268 264.614 36.4813 263.192 36.6947 261.841C36.908 260.49 37.1213 259.211 37.2636 257.931C37.4058 256.651 37.6191 255.514 37.8325 254.376C38.0458 253.239 38.188 252.101 38.4014 251.035C38.6147 249.968 38.757 248.831 38.9703 247.764C39.1836 246.698 39.3259 245.56 39.5392 244.494C39.7525 243.428 39.8948 242.29 40.1081 241.224C40.3214 240.157 40.4637 239.02 40.677 237.953C40.8904 236.887 41.0326 235.749 41.2459 234.683C41.4593 233.617 41.6015 232.55 41.8148 231.484C42.0282 230.417 42.1704 229.351 42.3837 228.284C42.5971 227.218 42.8104 226.152 42.9527 225.085C43.0949 224.019 43.3793 222.952 43.5927 221.886C43.806 220.82 44.0194 219.753 44.2327 218.616C44.446 217.478 44.6594 216.412 44.8727 215.203C45.0861 213.994 45.3705 212.857 45.5839 211.577C45.7972 210.298 46.1528 209.018 46.4372 207.596C46.7217 206.174 47.0772 204.752 47.3617 203.259C47.6462 201.766 48.0728 200.202 48.4284 198.567C48.784 196.932 49.2107 195.226 49.6373 193.519C50.064 191.813 50.4907 189.965 50.9885 188.045C51.4863 186.125 51.9841 184.206 52.4819 182.144C52.9797 180.082 53.6197 177.95 54.2597 175.746C54.8997 173.542 55.5398 171.196 56.2509 168.85C56.962 166.503 57.7443 163.944 58.5977 161.385C59.451 158.825 60.3755 156.124 61.3711 153.28C62.3667 150.507 63.4334 147.521 64.6423 144.535C65.8512 141.549 67.1313 138.35 68.6247 135.009C70.1181 131.667 71.6826 128.326 73.5315 124.771C75.3094 121.216 77.3717 117.59 79.5762 113.751C81.8518 109.983 84.3408 106.073 87.1853 102.163M102.901 83.2519C103.684 82.6831 104.181 82.8253 104.466 82.8964C104.679 82.8964 104.893 82.9675 104.964 82.9675C105.035 82.9675 105.177 82.9675 105.39 83.0386C105.533 83.0386 105.675 83.0386 105.817 83.1097C105.959 83.1097 106.102 83.1097 106.315 83.1097C106.457 83.1097 106.67 83.1097 106.813 83.1097C106.955 83.1097 107.168 83.1097 107.382 83.1097C107.524 83.1097 107.737 83.1097 107.951 83.1097C108.164 83.1097 108.306 83.1097 108.519 83.1097C108.733 83.1097 108.875 83.1097 109.088 83.1097C109.231 83.1097 109.444 83.1097 109.657 83.0386C109.799 83.0386 110.013 83.0386 110.155 82.9675C110.297 82.9675 110.511 82.9675 110.653 82.8964C110.795 82.8964 110.937 82.8964 111.151 82.8253C111.293 82.8253 111.435 82.8253 111.577 82.7542L102.901 83.2519ZM307.851 477.115C308.349 477.044 308.775 476.973 309.344 476.901C309.913 476.83 310.411 476.759 310.98 476.688C311.549 476.617 312.118 476.546 312.758 476.475C313.398 476.404 314.038 476.333 314.749 476.262C315.46 476.191 316.171 476.048 316.953 476.048C317.736 476.048 318.518 475.977 319.371 475.906C320.225 475.835 321.078 475.835 322.074 475.764C323.069 475.693 324.065 475.693 325.132 475.622C326.198 475.551 327.336 475.551 328.545 475.48C329.754 475.408 331.034 475.48 332.385 475.409C333.736 475.337 335.087 475.337 336.581 475.337C338.074 475.337 339.497 475.337 340.919 475.337C342.341 475.337 343.834 475.337 345.328 475.337C346.821 475.337 348.386 475.337 350.021 475.337C351.657 475.337 353.364 475.337 355.142 475.337C356.919 475.337 358.911 475.337 360.902 475.337C362.893 475.337 365.097 475.337 367.231 475.337C369.364 475.337 371.569 475.337 373.844 475.337C376.12 475.337 378.325 475.337 380.458 475.337C382.591 475.337 384.796 475.337 387 475.337C398.307 475.337 409.543 475.337 420.211 475.337C430.878 475.337 440.833 475.337 450.149 475.337C459.465 475.337 468.07 475.337 476.248 475.337C484.426 475.337 492.178 475.337 499.929 475.337M500 475.337C507.751 475.337 515.503 475.337 523.681 475.337C531.859 475.337 540.464 475.337 549.78 475.337C559.095 475.337 569.051 475.337 579.718 475.337C590.385 475.337 601.621 475.337 612.929 475.337C614.777 475.337 616.555 475.337 618.262 475.337C619.969 475.337 621.533 475.337 623.098 475.337C624.662 475.337 626.227 475.337 627.862 475.337C629.498 475.337 631.205 475.337 633.054 475.337C634.903 475.337 636.894 475.337 638.956 475.337C641.018 475.337 643.294 475.337 645.641 475.337C647.987 475.337 650.263 475.337 652.468 475.337C654.672 475.337 656.734 475.337 658.726 475.337C660.717 475.337 662.424 475.337 664.13 475.409C665.837 475.48 667.402 475.408 668.895 475.48C670.388 475.551 671.811 475.551 673.091 475.622C674.371 475.693 675.651 475.693 676.789 475.764C677.926 475.835 679.064 475.906 680.06 475.906C681.055 475.906 682.051 476.048 682.975 476.119C683.9 476.191 684.753 476.262 685.607 476.333C686.46 476.404 687.242 476.475 687.953 476.546C688.665 476.617 689.376 476.688 690.087 476.759C690.798 476.83 691.722 476.973 692.291 477.044C693.358 477.186 694.567 477.328 695.776 477.541C696.985 477.755 698.194 477.897 699.545 478.181C700.896 478.466 702.247 478.679 703.812 479.034C705.376 479.39 707.012 479.745 708.719 480.172C710.425 480.598 712.203 481.096 713.981 481.665C715.759 482.234 717.394 482.802 718.888 483.371C720.381 483.94 721.732 484.438 723.012 485.077C724.292 485.717 725.501 486.215 726.639 486.855C727.777 487.495 728.844 488.063 729.839 488.632C730.835 489.201 731.759 489.77 732.755 490.409C733.751 491.049 734.675 491.618 735.528 492.258C736.382 492.898 737.306 493.467 738.16 494.177C739.013 494.888 739.937 495.528 740.791 496.239C741.644 496.95 742.569 497.661 743.422 498.443C744.275 499.225 745.2 500.007 746.124 500.86C747.049 501.713 747.973 502.638 748.969 503.562C749.965 504.486 750.96 505.553 751.956 506.619C752.951 507.685 754.018 508.894 755.085 510.103C756.151 511.311 757.218 512.662 758.427 514.084C759.636 515.506 760.774 517.07 762.054 518.705C763.334 520.34 764.614 522.189 765.965 524.037C767.316 525.886 768.739 527.947 770.161 530.08C771.583 532.213 773.076 534.346 774.499 536.621C775.921 538.896 777.414 541.1 778.766 543.304C780.117 545.508 781.468 547.711 782.89 549.915C784.312 552.119 785.664 554.252 787.015 556.527C788.366 558.802 789.788 561.006 791.21 563.423C792.633 565.841 794.126 568.329 795.762 570.959C797.397 573.59 799.104 576.434 800.811 579.277C802.518 582.121 804.366 585.249 806.286 588.378C808.207 591.506 810.198 594.847 812.26 598.331C814.322 601.814 816.456 605.44 818.66 609.137C820.865 612.834 823.212 616.744 825.487 620.583C827.834 624.493 830.11 628.333 832.314 632.029C834.519 635.655 836.581 639.139 838.501 642.338C840.421 645.537 842.199 648.452 843.906 651.225C845.612 653.998 847.106 656.557 848.599 658.832C850.093 661.107 851.444 663.24 852.653 665.159C853.862 667.079 855.071 668.856 856.137 670.492C857.204 672.127 858.199 673.62 859.195 674.97C860.191 676.321 861.044 677.53 861.897 678.667C862.751 679.805 863.604 680.871 864.386 681.867M307.922 477.186C306.784 477.328 305.646 477.541 304.366 477.684C303.086 477.826 301.806 478.11 300.384 478.323C298.962 478.537 297.468 478.821 295.904 479.176C294.339 479.532 292.633 479.887 290.926 480.385C289.219 480.883 287.441 481.38 285.735 481.949C284.028 482.518 282.463 483.087 280.97 483.655C279.477 484.224 278.054 484.864 276.774 485.433C275.708 485.859 274.712 486.357 273.788 486.855C273.788 486.855 273.361 487.068 273.076 487.21C271.939 487.779 270.872 488.419 269.876 488.988C268.881 489.556 267.956 490.125 267.103 490.694C266.25 491.263 265.396 491.831 264.614 492.4C263.832 492.969 263.049 493.538 262.196 494.106C261.343 494.675 260.632 495.315 259.778 495.955C258.925 496.595 258.143 497.235 257.289 498.017C256.436 498.799 255.582 499.509 254.658 500.363C253.734 501.216 252.809 502.069 251.813 502.993C250.818 503.917 249.822 504.913 248.827 505.979C247.831 507.045 246.764 508.183 245.698 509.392C244.631 510.6 243.564 511.88 242.426 513.231C241.289 514.582 240.08 516.074 238.871 517.71C237.662 519.345 236.311 521.051 234.96 522.9C233.608 524.748 232.257 526.739 230.835 528.8C229.413 530.862 228.061 532.924 226.639 535.057C225.217 537.19 223.866 539.322 222.444 541.526C221.021 543.73 219.67 545.863 218.319 548.067C216.968 550.271 215.545 552.475 214.123 554.821C212.701 557.167 211.208 559.513 209.643 562.073C208.079 564.632 206.443 567.262 204.807 570.035C203.172 572.808 201.394 575.652 199.616 578.638C197.838 581.623 195.918 584.752 193.998 587.951C192.078 591.15 190.016 594.634 187.882 598.117C185.749 601.601 183.615 605.298 181.269 609.208C178.922 613.118 176.504 617.242 174.086 621.294C171.668 625.347 169.393 629.186 167.259 632.74C165.126 636.295 163.206 639.494 161.428 642.409C159.65 645.324 158.015 648.026 156.45 650.514C154.886 653.002 153.463 655.348 152.183 657.41C150.903 659.472 149.694 661.391 148.556 663.169C147.419 664.946 146.352 666.581 145.356 668.074C144.361 669.567 143.365 671.131 142.298 672.624C141.232 674.117 140.165 675.681 139.027 677.245C137.889 678.809 136.752 680.374 135.543 681.795M876.262 691.606C876.262 691.606 876.049 691.464 875.907 691.393C875.765 691.322 875.622 691.251 875.409 691.109C875.196 690.967 874.982 690.896 874.769 690.753C874.556 690.611 874.342 690.469 874.129 690.398C873.916 690.327 873.702 690.114 873.489 689.971C873.276 689.829 873.062 689.687 872.849 689.545C872.636 689.403 872.493 689.26 872.28 689.189C872.067 689.118 871.924 688.905 871.782 688.834C871.64 688.763 871.427 688.621 871.284 688.478C871.142 688.336 871 688.265 870.858 688.123C870.715 687.981 870.573 687.91 870.431 687.767C870.289 687.625 870.147 687.554 870.075 687.483L876.262 691.606ZM102.627 83.3932C99.1426 86.8768 95.7901 90.7168 92.4477 94.7692C89.1054 98.8216 85.9764 103.158 82.9896 107.851C79.4339 113.254 76.0916 119.083 72.9626 125.269C69.8336 131.454 66.9891 137.923 64.2868 144.749C61.5844 151.574 59.1666 158.612 56.8909 165.864C54.6153 173.115 52.553 180.58 50.704 188.116C48.8551 195.652 47.0772 203.259 45.5127 210.866C44.7305 214.705 43.9482 218.545 43.2371 222.455C42.526 226.365 41.8148 230.204 41.1037 234.185C39.6814 242.077 38.4014 250.039 37.1213 258.215C36.4813 262.339 35.8413 266.462 35.2013 270.728C34.5612 274.993 33.9923 279.259 33.3523 283.596C32.1434 292.269 30.9344 301.298 29.7255 310.541C28.5166 319.854 27.3077 329.452 26.0987 339.334C25.5298 344.31 24.8898 349.287 24.3209 354.406C23.752 359.525 23.112 364.643 22.543 369.833C21.3341 380.213 20.1963 390.735 19.1296 401.328C18.5607 406.589 18.0629 411.85 17.5651 417.04C17.0673 422.23 16.5695 427.42 16.1428 432.467C15.2894 442.634 14.5072 452.445 13.9383 461.829C13.3694 471.214 12.8716 480.243 12.5871 488.916C12.3027 497.59 12.1604 505.908 12.2316 513.871C12.2316 521.833 12.4449 529.44 12.8716 536.763C13.2272 544.086 13.7961 551.053 14.5783 557.736C14.9339 561.077 15.3606 564.348 15.7872 567.547C16.2139 570.746 16.7117 573.874 17.2806 576.931C18.3473 583.045 19.6274 588.875 21.0497 594.42C22.4719 599.966 24.0364 605.227 25.8143 610.203C27.5921 615.18 29.5122 619.872 31.5745 624.209C33.6368 628.617 35.9124 632.74 38.3303 636.579C40.7481 640.419 43.3793 644.044 46.2239 647.457C49.0684 650.869 52.0552 654.069 55.3264 657.055C58.5977 660.041 62.0822 662.884 65.8513 665.586C69.6203 668.288 73.6026 670.776 77.8695 673.193C82.1363 675.61 86.6875 677.885 91.5944 680.018C101.052 684.284 111.648 688.123 123.809 691.535M123.809 691.535C123.809 691.535 123.951 691.464 124.093 691.393C124.236 691.322 124.378 691.251 124.52 691.18C124.662 691.109 124.876 690.967 125.16 690.824C125.444 690.682 125.587 690.54 125.871 690.469C126.156 690.398 126.298 690.185 126.511 690.042C126.725 689.9 126.938 689.758 127.151 689.616C127.365 689.474 127.578 689.332 127.72 689.189C127.862 689.047 128.076 688.905 128.289 688.834C128.502 688.763 128.645 688.549 128.787 688.478C128.929 688.407 129.071 688.265 129.214 688.123C129.356 687.981 129.498 687.91 129.64 687.767C129.782 687.625 129.925 687.554 130.067 687.412L123.809 691.535ZM887.996 82.3277C887.001 82.1144 885.863 81.7589 884.725 81.4034C883.374 80.9769 882.023 80.4792 880.529 79.9104C878.894 79.2706 877.116 78.5596 875.338 77.7776C873.276 76.9245 871.213 76.0002 869.08 75.076C866.662 74.0096 864.244 72.9432 861.755 71.8057C858.911 70.526 856.066 69.3174 853.15 68.0377C849.808 66.6158 846.466 65.1939 843.052 63.8431C839.212 62.279 835.372 60.8571 831.461 59.4353C827.336 57.9423 823.069 56.5204 818.945 55.2407C814.82 53.961 810.696 52.8235 806.571 51.686C802.802 50.6907 798.962 49.6953 795.122 48.8422C791.637 48.0602 788.152 47.3492 784.668 46.6383C781.468 45.9984 778.339 45.4297 775.139 44.8609C772.294 44.3633 769.378 43.9367 766.463 43.439C763.832 43.0125 761.129 42.657 758.498 42.2304C756.08 41.875 753.662 41.5195 751.245 41.164C749.04 40.8796 746.764 40.5242 744.56 40.2398C742.498 39.9554 740.506 39.671 738.444 39.3866C736.595 39.1023 734.746 38.889 732.897 38.6046C731.19 38.3202 729.484 38.1069 727.777 37.8226C726.213 37.6093 724.719 37.3249 723.155 37.1116C721.804 36.8272 720.381 36.614 719.03 36.4007C717.75 36.1874 716.541 35.9741 715.332 35.7608C714.265 35.5475 713.128 35.3343 712.061 35.121C711.065 34.9788 710.07 34.7655 709.074 34.5522C708.15 34.41 707.154 34.1257 706.301 33.9835C705.447 33.8413 704.523 33.628 703.669 33.4147C702.816 33.2014 701.963 32.9882 701.109 32.7749C700.256 32.5616 699.332 32.2772 698.478 32.0639C697.554 31.7795 696.629 31.5663 695.705 31.2819C694.78 30.9975 693.785 30.7131 692.86 30.4288C691.936 30.1444 691.011 29.7889 690.087 29.5045C689.233 29.2202 688.451 28.9358 687.669 28.6514C687.029 28.367 686.389 28.1537 685.749 27.8694C685.18 27.6561 684.682 27.4428 684.184 27.2295C683.758 27.0162 683.331 26.874 682.904 26.6608C682.691 26.5897 682.549 26.4475 682.335 26.3764C682.193 26.3053 681.909 26.1631 681.909 26.1631L681.766 26.092C681.766 26.092 681.411 25.9498 681.269 25.8787C680.913 25.6654 680.486 25.5232 680.202 25.3811C679.918 25.2389 679.562 25.0256 679.277 24.8834C678.993 24.7412 678.78 24.599 678.566 24.4568C678.353 24.3146 678.211 24.2435 678.069 24.1014C677.926 24.0303 677.784 23.9592 677.713 23.817C677.642 23.817 677.571 23.6748 677.5 23.6037C677.5 23.6037 677.357 23.5326 677.357 23.4615L675.508 22.4662C675.508 22.4662 675.011 22.4662 674.726 22.4662C674.015 22.4662 673.233 22.4662 672.522 22.3951C671.811 22.324 671.028 22.3951 670.317 22.3951C669.606 22.3951 668.824 22.3951 668.113 22.3951C667.401 22.3951 666.619 22.3951 665.908 22.3951C665.197 22.3951 664.415 22.3951 663.704 22.3951C662.992 22.3951 662.21 22.3951 661.499 22.3951L659.295 22.0396C658.583 22.0396 657.801 22.0396 657.09 22.0396C656.379 22.0396 655.597 22.0396 654.885 22.0396C654.174 22.0396 653.392 22.0396 652.681 22.0396C651.97 22.0396 651.188 22.0396 650.477 22.0396C649.765 22.0396 648.983 22.0396 648.272 22.0396C647.561 22.0396 646.779 22.0396 646.067 22.0396C645.356 22.0396 644.574 22.0396 643.863 22.0396C642.085 22.0396 640.307 21.9685 638.529 21.9685C634.547 21.8974 630.494 21.8263 626.44 21.7552L612.857 21.1154C609.373 21.1154 605.888 21.0443 602.404 20.9732C598.35 20.9732 594.297 20.9021 590.314 20.831C586.332 20.7599 582.279 20.831 578.225 20.7599C574.172 20.6888 570.189 20.7599 566.207 20.6888C562.224 20.6177 558.171 20.6888 554.189 20.6888C550.206 20.6888 546.153 20.6888 542.17 20.6888C538.188 20.6888 534.135 20.6888 530.152 20.6888C526.17 20.6888 522.116 20.6888 518.063 20.6888C514.009 20.6888 510.027 20.6888 506.045 20.6888H499.929C497.867 20.6888 495.875 20.6888 493.884 20.6888C489.902 20.6888 485.92 20.6888 481.866 20.6888C477.813 20.6888 473.759 20.6888 469.777 20.6888C465.794 20.6888 461.741 20.6888 457.759 20.6888C453.776 20.6888 449.723 20.6888 445.74 20.6888C441.758 20.6888 437.704 20.6177 433.722 20.6888C429.74 20.7599 425.757 20.6888 421.704 20.7599C417.65 20.831 413.597 20.7599 409.615 20.831C405.632 20.9021 401.579 20.9732 397.525 20.9732C394.041 21.0443 390.556 21.1154 387.072 21.1154C386.503 21.1154 386.005 21.1154 385.436 21.1154C381.454 21.1154 377.4 21.2576 373.418 21.2576C369.435 21.2576 365.382 21.3998 361.328 21.4709C359.551 21.4709 357.773 21.4709 355.995 21.542C355.284 21.542 354.502 21.542 353.79 21.542C353.079 21.542 352.297 21.542 351.586 21.542C350.875 21.542 350.092 21.542 349.381 21.542C348.67 21.542 347.888 21.542 347.177 21.542C346.466 21.542 345.683 21.542 344.972 21.542C344.261 21.542 343.479 21.542 342.768 21.542C342.057 21.542 341.274 21.542 340.563 21.542C339.852 21.542 339.07 21.542 338.359 21.542C337.648 21.542 336.865 21.542 336.154 21.542C335.443 21.542 334.661 21.542 333.95 21.542C333.239 21.542 332.456 21.542 331.745 21.542C331.034 21.542 330.252 21.542 329.541 21.542C328.83 21.542 328.047 21.542 327.336 21.542C326.625 21.542 325.843 21.542 325.132 21.613C324.847 21.613 324.634 21.613 324.349 21.613L323.852 22.6795C323.638 22.8217 323.425 22.9638 323.212 23.106L323.069 23.3193C322.998 23.3904 322.927 23.4615 322.927 23.4615L322.785 23.6037L322.643 23.7459C322.571 23.8881 322.429 23.9592 322.216 24.1014C322.074 24.1724 321.86 24.3146 321.647 24.4568C321.434 24.599 321.22 24.7412 320.936 24.8834C320.651 25.0256 320.367 25.1678 320.082 25.31C319.798 25.4521 319.514 25.5943 319.158 25.7365C318.802 25.8787 318.447 26.0209 318.162 26.1631C317.878 26.3053 317.451 26.5186 317.096 26.6608C316.882 26.7318 316.385 26.9451 316.385 26.9451M111.933 82.5409C111.933 82.5409 112.502 82.3988 112.786 82.3277C113.071 82.2566 113.426 82.1144 113.782 82.0433C114.137 81.9011 114.493 81.83 114.92 81.6878C115.346 81.5456 115.773 81.4034 116.2 81.2613C116.626 81.1191 117.124 80.9058 117.622 80.7636C118.12 80.5503 118.618 80.4081 119.186 80.1948C119.755 79.9815 120.324 79.7683 120.893 79.4839C121.533 79.1995 122.173 78.9862 122.813 78.7019C123.524 78.4175 124.236 78.1331 124.947 77.7776C125.729 77.4221 126.582 77.0667 127.365 76.7112C128.289 76.2846 129.142 75.9292 130.067 75.5026C131.062 75.076 132.058 74.5784 133.125 74.1518C134.263 73.6541 135.329 73.1565 136.467 72.6588C137.676 72.0901 138.956 71.5213 140.236 71.0237C141.587 70.3838 143.01 69.815 144.432 69.1752C145.996 68.5353 147.561 67.8244 149.054 67.1846C150.761 66.4736 152.539 65.6916 154.246 64.9806C156.166 64.1986 158.086 63.4166 160.077 62.6345C162.21 61.7814 164.415 60.9993 166.619 60.1462C169.037 59.222 171.455 58.3689 173.944 57.5868C176.717 56.6626 179.491 55.7384 182.335 54.8852C185.536 53.8899 188.736 52.9657 191.936 52.1125C195.42 51.1883 198.905 50.2641 202.461 49.4821C206.016 48.7 209.359 47.918 212.843 47.207C215.972 46.5672 219.172 45.9273 222.301 45.3586C225.217 44.8609 228.061 44.3633 230.977 43.8656C233.608 43.439 236.24 43.0125 238.942 42.5859C241.36 42.2304 243.778 41.875 246.267 41.5195C248.471 41.164 250.747 40.8796 252.951 40.5953C255.014 40.3109 257.076 40.0265 259.067 39.7421C260.916 39.4577 262.765 39.2445 264.685 38.9601C266.392 38.7468 268.098 38.4624 269.734 38.2491C271.227 38.0359 272.792 37.8226 274.285 37.5382C275.636 37.3249 277.059 37.1116 278.41 36.8983C279.69 36.6851 280.899 36.4718 282.179 36.2585C283.388 36.0452 284.526 35.8319 285.663 35.6186C286.801 35.4054 287.939 35.1921 289.077 34.9788C290.215 34.7655 291.353 34.5522 292.49 34.2679C293.628 33.9835 294.766 33.7702 295.904 33.4858C297.042 33.2014 298.251 32.9171 299.388 32.6327C300.526 32.3483 301.664 32.0639 302.802 31.7085C303.94 31.353 305.078 31.0686 306.215 30.7131C307.424 30.3577 308.633 29.9311 309.771 29.5045C310.98 29.078 312.118 28.6514 313.256 28.2248C314.393 27.7983 315.318 27.3717 316.242 27.0162C316.313 27.0162 316.385 26.9451 316.527 26.874M870.004 687.483C870.004 687.483 869.649 687.199 869.435 686.985C869.222 686.772 869.08 686.63 868.867 686.488C868.653 686.346 868.511 686.132 868.298 685.99C867.871 685.635 867.515 685.208 867.16 684.853C866.804 684.497 866.449 684.142 866.093 683.786C865.738 683.431 865.453 683.075 865.169 682.791C864.884 682.506 864.6 682.151 864.386 681.796L870.004 687.483ZM135.543 681.867C135.187 682.293 134.903 682.649 134.618 683.004C134.334 683.36 134.049 683.644 133.765 683.928C133.48 684.213 133.196 684.497 132.983 684.71C132.769 684.924 132.485 685.208 132.271 685.421C132.058 685.635 131.845 685.848 131.631 685.99C131.631 685.99 131.276 686.346 131.062 686.488C130.849 686.63 130.707 686.843 130.494 686.985C130.28 687.128 130.138 687.27 129.925 687.483L135.543 681.867Z" stroke-width="8" stroke-linejoin="bevel"/>
  <path onClick="" stroke="currentColor" d="M398.94 327.717H443.904L443.963 327.776C447.839 327.776 451 330.91 451 334.752V375.248C451 379.091 447.839 382.224 443.963 382.224H398.999C397.328 382.224 395.806 382.905 394.703 384L380 369.557C383.814 365.826 386.178 360.643 386.178 354.911C386.178 349.26 383.879 344.14 380.158 340.422L394.703 326C395.789 327.063 397.284 327.717 398.94 327.717Z" stroke-width="4" stroke-linejoin="bevel"/>
  <path onClick="" stroke="currentColor" d="M287.047 328.495H332.073C333.609 328.495 335.019 327.929 336.094 327L350.707 341.152C347.083 344.808 344.852 349.791 344.852 355.283C344.852 360.922 347.203 366.024 351 369.704L336.375 384C335.27 382.919 333.746 382.246 332.073 382.246H287.047C283.165 382.246 280 379.153 280 375.36V335.382C280 331.588 283.165 328.495 287.047 328.495Z" stroke-width="4" stroke-linejoin="bevel"/>
  <path onClick="" stroke="currentColor" d="M338.741 432.953V387.925C338.741 386.255 338.073 384.733 337 383.628L351.231 369C354.886 372.725 359.917 375.026 365.471 375.026C371.006 375.026 376.022 372.741 379.673 369.038L394 383.628C392.927 384.733 392.259 386.255 392.259 387.925V432.953C392.259 436.835 389.18 440 385.402 440H345.598C341.82 440 338.741 436.835 338.741 432.953Z" stroke-width="4" stroke-linejoin="bevel"/>
  <path onClick="" stroke="currentColor" d="M392.237 277.035V321.989C392.237 323.672 392.91 325.189 394 326.279L379.647 340.823C375.937 337.035 370.793 334.688 365.109 334.688C359.337 334.688 354.123 337.108 350.4 341L336 326.543C337.248 325.425 338.039 323.794 338.039 321.989V277.035C338.039 273.16 341.158 270 344.983 270H385.293C389.118 270 392.237 273.16 392.237 277.035Z" stroke-width="4" stroke-linejoin="bevel"/>
  <path stroke="currentColor" d="M365.47 375.532C376.926 375.532 386.212 366.299 386.212 354.911C386.212 343.523 376.926 334.291 365.47 334.291C354.015 334.291 344.728 343.523 344.728 354.911C344.728 366.299 354.015 375.532 365.47 375.532Z" stroke-width="4" stroke-linejoin="bevel"/>
  <path stroke="currentColor" d="M443.907 327.654H398.967C395.629 327.654 392.947 324.988 392.947 321.67V276.992C392.947 273.14 389.788 270 385.914 270H345.086C341.212 270 338.053 273.14 338.053 276.992V321.67C338.053 324.988 335.311 327.713 331.974 327.713H287.033C283.159 327.713 280 330.854 280 334.705V375.295C280 379.146 283.159 382.287 287.033 382.287H331.974C335.311 382.287 338.053 385.012 338.053 388.33V433.008C338.053 436.86 341.212 440 345.086 440H385.914C389.788 440 392.947 436.86 392.947 433.008V388.33C392.947 385.012 395.689 382.287 399.027 382.287H443.967C447.841 382.287 451 379.146 451 375.295V334.705C451 330.854 447.841 327.713 443.967 327.713L443.907 327.654Z" stroke-width="4" stroke-linejoin="bevel"/>
  <g opacity="0.5">
    <path stroke="currentColor" d="M500 341.11C502.946 341.11 505.334 338.723 505.334 335.778C505.334 332.834 502.946 330.446 500 330.446C497.054 330.446 494.666 332.834 494.666 335.778C494.666 338.723 497.054 341.11 500 341.11Z" stroke-width="4" stroke-linejoin="bevel"/>
    <path stroke="currentColor" d="M500 359.737C502.946 359.737 505.334 357.35 505.334 354.405C505.334 351.46 502.946 349.073 500 349.073C497.054 349.073 494.666 351.46 494.666 354.405C494.666 357.35 497.054 359.737 500 359.737Z" stroke-width="4" stroke-linejoin="bevel"/>
    <path stroke="currentColor" d="M500 378.293C502.946 378.293 505.334 375.906 505.334 372.961C505.334 370.016 502.946 367.629 500 367.629C497.054 367.629 494.666 370.016 494.666 372.961C494.666 375.906 497.054 378.293 500 378.293Z" stroke-width="4" stroke-linejoin="bevel"/>
  </g>
  <path stroke="currentColor" opacity="0.5" d="M509.671 257.148H490.257C482.677 257.148 476.533 263.292 476.533 270.87V270.941C476.533 278.519 482.677 284.662 490.257 284.662H509.671C517.252 284.662 523.396 278.519 523.396 270.941V270.87C523.396 263.292 517.252 257.148 509.671 257.148Z" stroke-width="4" stroke-linejoin="bevel"/>
  <path stroke="currentColor" opacity="0.5" d="M500 193.235C502.828 193.235 505.12 190.943 505.12 188.116C505.12 185.289 502.828 182.997 500 182.997C497.172 182.997 494.88 185.289 494.88 188.116C494.88 190.943 497.172 193.235 500 193.235Z" stroke-width="4" stroke-linejoin="bevel"/>
  <path stroke="currentColor" d="M566.42 212.003C579.695 212.003 590.457 201.245 590.457 187.973C590.457 174.702 579.695 163.943 566.42 163.943C553.145 163.943 542.384 174.702 542.384 187.973C542.384 201.245 553.145 212.003 566.42 212.003Z" stroke-width="4" stroke-linejoin="bevel"/>
  <path fill="currentColor" d="M581.781 184.632V184.845C581.781 184.845 581.71 184.987 581.71 185.058C581.71 185.129 581.638 185.2 581.638 185.272L581.496 185.414C580.785 186.054 580.074 186.765 579.292 187.475C578.581 188.115 577.869 188.826 577.158 189.466C576.447 190.177 575.736 190.817 574.954 191.528C574.883 191.599 574.883 191.67 574.812 191.741C574.74 191.812 574.74 191.883 574.669 191.954C574.669 192.026 574.598 192.097 574.598 192.168V192.594C574.74 193.59 574.954 194.585 575.167 195.58C575.309 196.576 575.523 197.642 575.736 198.637C575.878 199.633 576.092 200.628 576.305 201.694C576.305 201.694 576.234 201.908 576.163 201.979C576.163 202.05 576.092 202.121 576.021 202.192C576.021 202.263 575.949 202.334 575.878 202.334L575.736 202.476C575.736 202.476 575.594 202.547 575.523 202.547H575.167C575.167 202.547 575.025 202.476 574.954 202.476C574.954 202.476 574.883 202.405 574.812 202.405C574.243 202.05 573.745 201.765 573.176 201.552C572.678 201.268 572.18 200.983 571.754 200.699C571.256 200.486 570.829 200.272 570.403 199.988C569.976 199.775 569.549 199.562 569.194 199.348C568.767 199.135 568.411 198.922 568.056 198.708C567.629 198.495 567.345 198.353 566.989 198.14C566.918 198.14 566.847 198.069 566.776 198.069C566.705 197.997 566.633 197.997 566.562 197.997H566.207C566.207 197.997 566.065 197.997 565.993 198.069C565.922 198.069 565.851 198.14 565.78 198.14C565.78 198.14 565.733 198.163 565.638 198.211C565.069 198.495 564.571 198.779 563.931 199.135C563.291 199.49 562.651 199.846 561.94 200.201C561.3 200.557 560.731 200.841 560.091 201.197C559.451 201.552 558.669 201.979 557.958 202.405C557.887 202.405 557.744 202.476 557.673 202.476C557.602 202.476 557.531 202.547 557.46 202.547H557.247C557.247 202.547 557.104 202.476 557.033 202.476C556.962 202.476 556.891 202.405 556.82 202.405C556.82 202.334 556.749 202.334 556.678 202.263C556.678 202.263 556.606 202.192 556.606 202.121C556.535 202.121 556.535 202.05 556.464 201.979V201.694C556.535 201.197 556.678 200.699 556.749 200.201C556.82 199.704 556.891 199.206 557.033 198.708C557.104 198.211 557.175 197.713 557.318 197.144C557.318 196.647 557.46 196.149 557.602 195.651C557.602 195.154 557.744 194.656 557.887 194.158C557.958 193.59 558.029 193.092 558.171 192.594V192.168C558.171 192.168 558.1 192.026 558.029 191.954C558.029 191.883 557.958 191.812 557.958 191.741C557.887 191.67 557.815 191.599 557.744 191.528C557.033 190.817 556.322 190.177 555.611 189.466C554.9 188.826 554.117 188.115 553.406 187.475C552.695 186.765 551.984 186.054 551.273 185.414C551.202 185.343 551.131 185.343 551.131 185.272C551.131 185.2 551.06 185.129 551.06 185.129C550.988 185.058 550.989 184.987 550.989 184.916V184.49C550.989 184.49 551.06 184.347 551.131 184.276C551.131 184.205 551.202 184.134 551.273 184.063C551.344 183.992 551.415 183.992 551.415 183.921C551.486 183.921 551.557 183.85 551.629 183.85C551.7 183.779 551.771 183.779 551.842 183.779C552.34 183.707 552.837 183.636 553.335 183.565C553.833 183.494 554.331 183.494 554.758 183.423C555.255 183.352 555.753 183.281 556.251 183.21C556.749 183.139 557.247 183.068 557.744 182.997C558.242 182.925 558.74 182.925 559.238 182.854C559.735 182.783 560.233 182.712 560.731 182.641C560.802 182.641 560.873 182.57 560.944 182.57C561.016 182.57 561.087 182.499 561.158 182.499C561.158 182.428 561.3 182.357 561.371 182.357C561.371 182.357 561.442 182.214 561.513 182.143C561.584 182.072 561.584 182.001 561.656 181.93C562.082 181.006 562.509 180.082 562.936 179.229C563.362 178.304 563.789 177.451 564.216 176.527C564.642 175.674 565.069 174.75 565.496 173.896H565.567C565.567 173.896 565.638 173.683 565.709 173.683C565.78 173.612 565.78 173.541 565.851 173.541C565.922 173.47 565.993 173.47 566.065 173.399H566.278C566.278 173.399 566.42 173.328 566.491 173.399H566.705C566.705 173.399 566.847 173.399 566.918 173.541C566.989 173.541 567.06 173.612 567.06 173.683C567.131 173.683 567.202 173.754 567.202 173.825C567.274 173.825 567.274 173.968 567.274 173.968H567.345C567.771 174.963 568.056 175.674 568.482 176.598C568.98 177.451 569.407 178.375 569.834 179.229C570.26 180.153 570.687 181.006 571.114 181.93C571.114 182.001 571.185 182.072 571.256 182.143C571.256 182.214 571.327 182.286 571.398 182.357C571.469 182.357 571.54 182.428 571.611 182.499C571.683 182.499 571.754 182.57 571.825 182.57C571.896 182.57 571.967 182.641 572.038 182.641C573.034 182.783 574.029 182.854 574.954 182.997C575.949 183.139 576.945 183.281 577.941 183.423C578.936 183.494 579.861 183.636 580.856 183.779C580.927 183.779 580.998 183.779 581.07 183.85C581.141 183.85 581.212 183.921 581.283 183.921C581.354 183.992 581.425 183.992 581.496 184.063C581.496 184.063 581.567 184.205 581.638 184.276C581.638 184.276 581.71 184.347 581.71 184.418C581.71 184.49 581.781 184.561 581.781 184.632Z"/>
  <path stroke="currentColor" d="M433.367 212.003C446.641 212.003 457.403 201.245 457.403 187.973C457.403 174.702 446.641 163.943 433.367 163.943C420.092 163.943 409.33 174.702 409.33 187.973C409.33 201.245 420.092 212.003 433.367 212.003Z" stroke-width="4" stroke-linejoin="bevel"/>
  <path fill="currentColor" d="M444.46 181.362V194.585C444.46 194.585 444.46 194.941 444.389 195.154C444.389 195.367 444.389 195.51 444.318 195.723C444.247 195.936 444.176 196.078 444.105 196.292C444.034 196.434 443.962 196.647 443.82 196.789C443.749 197.003 443.678 197.145 443.536 197.287C443.394 197.429 443.251 197.571 443.109 197.713C443.038 197.856 442.825 197.998 442.682 198.14C442.54 198.211 442.398 198.353 442.185 198.424C442.114 198.496 442.042 198.496 441.971 198.567C441.971 198.638 441.758 198.638 441.687 198.709C441.474 198.709 441.331 198.851 441.118 198.922C440.905 198.922 440.762 198.993 440.549 198.993C440.336 199.064 440.193 199.064 439.98 199.064H426.753C426.753 199.064 426.326 199.064 426.113 198.993C425.828 198.993 425.615 198.922 425.402 198.851C425.188 198.78 424.975 198.709 424.762 198.567C424.548 198.496 424.406 198.353 424.193 198.211C424.051 198.14 423.837 197.998 423.695 197.856C423.553 197.713 423.411 197.571 423.268 197.429C423.126 197.216 423.055 197.074 422.913 196.931C422.842 196.718 422.771 196.576 422.628 196.363C422.557 196.149 422.486 196.007 422.415 195.794C422.415 195.581 422.415 195.367 422.415 195.154C422.344 194.941 422.344 194.728 422.344 194.585V181.362C422.344 181.362 422.344 180.935 422.415 180.793C422.415 180.58 422.415 180.366 422.415 180.224C422.486 180.011 422.557 179.798 422.628 179.656C422.7 179.442 422.771 179.3 422.842 179.087C422.984 178.945 423.055 178.802 423.197 178.589C423.34 178.447 423.482 178.305 423.553 178.163C423.695 178.02 423.908 177.949 424.051 177.807C424.193 177.665 424.335 177.594 424.548 177.452C424.691 177.452 424.833 177.309 425.046 177.238C425.26 177.167 425.402 177.096 425.615 177.025C425.757 177.025 425.971 177.025 426.184 176.883H440.549C440.549 176.883 440.976 176.954 441.189 177.025C441.402 177.096 441.545 177.167 441.758 177.238C441.971 177.309 442.114 177.452 442.327 177.523C442.469 177.594 442.611 177.736 442.825 177.878C442.967 178.02 443.109 178.163 443.251 178.305C443.394 178.447 443.536 178.589 443.607 178.802C443.749 178.945 443.891 179.158 443.962 179.371C444.105 179.584 444.176 179.798 444.247 180.011C444.318 180.224 444.389 180.509 444.389 180.722C444.46 180.935 444.46 181.148 444.46 181.362Z"/>
  <path stroke="currentColor" opacity="0.5" d="M501 147.094C518.595 147.094 532.859 132.834 532.859 115.244C532.859 97.6534 518.595 83.3936 501 83.3936C483.405 83.3936 469.141 97.6534 469.141 115.244C469.141 132.834 483.405 147.094 501 147.094Z" stroke-width="4" stroke-linejoin="bevel"/>
  <path stroke="currentColor" d="M501 139.274C514.275 139.274 525.036 128.515 525.036 115.244C525.036 101.972 514.275 91.2139 501 91.2139C487.725 91.2139 476.964 101.972 476.964 115.244C476.964 128.515 487.725 139.274 501 139.274Z" stroke-width="4" stroke-linejoin="bevel"/>
  <path fill="currentColor" d="M491.329 115.244H497.018C497.018 115.244 497.587 115.528 497.587 115.813V121.5C497.587 121.5 497.302 122.069 497.018 122.069H491.329C491.329 122.069 490.76 121.785 490.76 121.5V115.813C490.76 115.813 491.044 115.244 491.329 115.244Z"/>
  <path fill="currentColor" d="M504.911 115.244H510.6C510.6 115.244 511.169 115.528 511.169 115.813V121.5C511.169 121.5 510.885 122.069 510.6 122.069H504.911C504.911 122.069 504.342 121.785 504.342 121.5V115.813C504.342 115.813 504.627 115.244 504.911 115.244Z"/>
  <path fill="currentColor" d="M498.155 108.49H503.845C503.845 108.49 504.413 108.774 504.413 109.059V114.746C504.413 114.746 504.129 115.315 503.845 115.315H498.155C498.155 115.315 497.587 115.031 497.587 114.746V109.059C497.587 109.059 497.8 108.49 498.155 108.49Z"/>
  <path fill="currentColor" d="M484.502 108.49H490.191C490.191 108.49 490.76 108.774 490.76 109.059V114.746C490.76 114.746 490.475 115.315 490.191 115.315H484.502C484.502 115.315 483.933 115.031 483.933 114.746V109.059C483.933 109.059 484.217 108.49 484.502 108.49Z"/>
  <path fill="currentColor" d="M511.738 108.49H517.427C517.427 108.49 517.996 108.774 517.996 109.059V114.746C517.996 114.746 517.712 115.315 517.427 115.315H511.738C511.738 115.315 511.169 115.031 511.169 114.746V109.059C511.169 109.059 511.454 108.49 511.738 108.49Z"/>
  <path fill="currentColor" d="M498.155 122.069H503.845C503.845 122.069 504.413 122.354 504.413 122.638V128.325C504.413 128.325 504.129 128.894 503.845 128.894H498.155C498.155 128.894 497.587 128.61 497.587 128.325V122.638C497.587 122.638 497.8 122.069 498.155 122.069Z"/>
  <path fill="currentColor" d="M491.329 101.665H497.018C497.018 101.665 497.587 101.949 497.587 102.234V107.921C497.587 107.921 497.302 108.49 497.018 108.49H491.329C491.329 108.49 490.76 108.206 490.76 107.921V102.234C490.76 102.234 491.044 101.665 491.329 101.665Z"/>
  <path fill="currentColor" d="M504.911 101.665H510.6C510.6 101.665 511.169 101.949 511.169 102.234V107.921C511.169 107.921 510.885 108.49 510.6 108.49H504.911C504.911 108.49 504.342 108.206 504.342 107.921V102.234C504.342 102.234 504.627 101.665 504.911 101.665Z"/>
  <path onClick="" stroke="currentColor" d="M627.862 138.918C641.137 138.918 651.899 128.16 651.899 114.888C651.899 101.617 641.137 90.8584 627.862 90.8584C614.587 90.8584 603.826 101.617 603.826 114.888C603.826 128.16 614.587 138.918 627.862 138.918Z" stroke-width="4" stroke-linejoin="bevel"/>
  <path fill="currentColor" d="M640.734 111.618V118.301H631.134V127.899H624.52V118.301H614.849V111.618H624.52V102.021H631.134V111.618H640.734Z"/>
  <path onClick="" stroke="currentColor" d="M372.138 138.989C385.413 138.989 396.174 128.231 396.174 114.96C396.174 101.688 385.413 90.9297 372.138 90.9297C358.863 90.9297 348.101 101.688 348.101 114.96C348.101 128.231 358.863 138.989 372.138 138.989Z" stroke-width="4" stroke-linejoin="bevel"/>
  <path fill="currentColor" d="M385.08 111.618H359.124V118.23H385.08V111.618Z"/>
  <path onClick="" stroke="currentColor" d="M782.037 160.317C799.868 160.317 814.322 145.867 814.322 128.041C814.322 110.215 799.868 95.7637 782.037 95.7637C764.206 95.7637 749.751 110.215 749.751 128.041C749.751 145.867 764.206 160.317 782.037 160.317Z" stroke-width="4" stroke-linejoin="bevel"/>
  <path fill="currentColor" d="M780.122 148V131.054L768 108H773.078L779.264 120.067C780.48 122.451 781.552 124.723 782.482 126.845C783.412 124.76 784.556 122.413 786.058 119.769L792.172 108H797L784.413 131.054V148H780.122Z"/>
  <path onClick="" stroke="currentColor" d="M711.919 165.579C729.768 165.579 744.204 180.011 744.204 197.856C744.204 215.701 729.768 230.133 711.919 230.133C694.069 230.133 679.633 215.701 679.633 197.856C679.633 180.011 694.069 165.579 711.919 165.579Z" stroke-width="4" stroke-linejoin="bevel"/>
  <path fill="currentColor" d="M699 218L709.991 197.143L700.35 178H704.785L709.959 188.242C710.797 189.838 711.548 191.492 712.209 193.196C712.884 191.633 713.635 190.116 714.459 188.652L720.179 178H724.197L714.298 196.845L725 218H720.372L713.237 203.736C712.791 202.867 712.383 201.972 712.016 201.054C711.373 202.507 710.923 203.512 710.634 204.071L703.532 218H699Z"/>
  <path onClick="" stroke="currentColor" d="M851.657 230.133C869.488 230.133 883.943 215.682 883.943 197.856C883.943 180.03 869.488 165.579 851.657 165.579C833.826 165.579 819.371 180.03 819.371 197.856C819.371 215.682 833.826 230.133 851.657 230.133Z" stroke-width="4" stroke-linejoin="bevel"/>
  <path fill="currentColor" d="M840 217.651V178.012H851.854C853.817 177.922 855.772 178.328 857.548 179.194C859.08 180.019 860.33 181.309 861.129 182.889C862.038 184.517 862.508 186.366 862.49 188.245C862.516 189.961 862.108 191.654 861.308 193.158C860.577 194.619 859.46 195.836 858.085 196.668C859.875 197.373 861.387 198.673 862.383 200.362C863.504 202.193 864.066 204.33 863.994 206.494C864.029 208.69 863.537 210.86 862.561 212.811C861.709 214.504 860.371 215.884 858.73 216.764C856.662 217.675 854.422 218.092 852.176 217.983L840 217.651ZM844.19 194.673H851.03C852.308 194.729 853.587 194.592 854.826 194.267C855.845 193.95 856.729 193.286 857.333 192.383C857.997 191.277 858.31 189.986 858.228 188.688C858.289 187.402 858.004 186.124 857.405 184.994C856.945 184.106 856.197 183.413 855.292 183.036C853.746 182.577 852.135 182.39 850.529 182.482H844.19V194.673ZM844.19 213.144H852.033C853.327 213.213 854.624 213.05 855.864 212.663C857.011 212.266 857.979 211.452 858.586 210.373C859.258 209.135 859.58 207.727 859.517 206.309C859.537 205.019 859.228 203.745 858.622 202.615C858.074 201.621 857.234 200.832 856.223 200.362C854.712 199.787 853.104 199.536 851.496 199.623H844.333L844.19 213.144Z"/>
  <path onClick="" stroke="currentColor" d="M781.61 299.876C799.441 299.876 813.896 285.425 813.896 267.599C813.896 249.773 799.441 235.322 781.61 235.322C763.779 235.322 749.324 249.773 749.324 267.599C749.324 285.425 763.779 299.876 781.61 299.876Z" stroke-width="4" stroke-linejoin="bevel"/>
  <path fill="currentColor" d="M768 287L779.931 248H784.33L797 287H792.319L788.8 275.198H775.743L772.223 287H768ZM776.869 270.986H787.427L784.224 260.092C783.204 256.751 782.5 254.064 782.042 251.994C781.622 254.511 781.046 256.998 780.318 259.439L776.869 270.986Z"/>
  <path stroke="currentColor" fill="currentColor" opacity="0.5" d="M634.476 274.711C678.788 274.711 714.69 310.603 714.69 354.903C714.69 399.203 678.788 435.095 634.476 435.095C590.164 435.095 554.262 399.203 554.262 354.903C554.262 310.603 590.164 274.711 634.476 274.711ZM634.476 286.152C596.509 286.152 565.778 316.947 565.778 354.832C565.778 392.717 596.509 423.512 634.476 423.512C672.442 423.512 703.174 392.788 703.174 354.832C703.174 316.876 672.442 286.152 634.476 286.152Z"/>
  <path onClick="" style="" stroke="currentColor" d="M634.476 305.635C661.641 305.635 683.687 327.674 683.687 354.832C683.687 381.99 661.641 404.029 634.476 404.029C607.311 404.029 585.265 381.99 585.265 354.832C585.265 327.674 607.311 305.635 634.476 305.635Z" stroke-width="4" stroke-linejoin="bevel"/>
  <path fill="currentColor" opacity="0.5" d="M217.963 117.945C173.375 117.945 137.249 154.061 137.249 198.637C137.249 243.214 173.375 279.33 217.963 279.33C262.552 279.33 298.677 243.214 298.677 198.637C298.677 154.061 262.552 117.945 217.963 117.945ZM217.963 266.817C180.273 266.817 149.765 236.246 149.765 198.637C149.765 161.029 180.273 130.458 217.963 130.458C255.654 130.458 286.161 160.957 286.161 198.637C286.161 236.317 255.654 266.817 217.963 266.817Z"/>
  <path onClick="" style="" stroke="currentColor" d="M217.963 149.369C245.129 149.369 267.174 171.408 267.174 198.566C267.174 225.725 245.129 247.764 217.963 247.764C190.798 247.764 168.753 225.725 168.753 198.566C168.753 171.408 190.798 149.369 217.963 149.369Z" stroke-width="4" stroke-linejoin="bevel"/>
</svg>
