<?xml version="1.0"?>
<svg viewBox="0 0 36 36" fill="none" xmlns="http://www.w3.org/2000/svg">
  <path fill-rule="evenodd" clip-rule="evenodd" d="M17.998 9.82081C17.998 12.24 16.0368 14.2012 13.6176 14.2012C11.1984 14.2012 9.23724 12.24 9.23724 9.82081C9.23724 7.40159 11.1984 5.44043 13.6176 5.44043C16.0368 5.44043 17.998 7.40159 17.998 9.82081ZM6.31793 24.4221C6.31793 20.3901 9.58654 17.1215 13.6186 17.1215C14.8524 17.1215 16.0147 17.4275 17.0338 17.9679C17.2536 19.4972 18.0606 20.8369 19.219 21.751C16.1722 23.1386 14.0541 26.2102 14.0541 29.7765V30.7493H6.31793V24.4221ZM20.8293 23.2728C20.8885 23.6472 20.9192 24.0311 20.9192 24.4221V30.7493H16.0541V29.7765C16.0541 29.4275 16.0804 29.0847 16.131 28.7499C16.523 26.1552 18.3783 24.0403 20.8293 23.2728Z" fill="white" fill-opacity="0.3"/>
  <path fill-rule="evenodd" clip-rule="evenodd" d="M22.8671 21.0156C25.0175 21.0156 26.7608 19.2723 26.7608 17.1219C26.7608 14.9715 25.0175 13.2282 22.8671 13.2282C20.7167 13.2282 18.9734 14.9715 18.9734 17.1219C18.9734 19.2723 20.7167 21.0156 22.8671 21.0156ZM22.8681 22.9625C19.1048 22.9625 16.0541 26.0132 16.0541 29.7765V30.7499H29.682V29.7765C29.682 26.0132 26.6313 22.9625 22.8681 22.9625Z" fill="white"/>
</svg>
