<?xml version="1.0"?>
<svg version="1.1" id="Flag" xmlns="http://www.w3.org/2000/svg" height="100px" width="100px" x="0px" y="0px" viewBox="0 0 100 100">
  <path d="M82.5,10.8c-0.8-0.7-1.9-0.8-2.9-0.7l-7.2,1.8c-7.3,1.8-15.1,1.4-22.3-1.2h-0.1c-7.8-2.9-16.2-3.5-24.2-1.9l-2.8,0.6V8.5  c0-1.9-1.5-3.5-3.5-3.5S16,6.5,16,8.5v5.1v38.8v39.2c0,1.9,1.5,3.5,3.5,3.5s3.5-1.5,3.5-3.5V55.1l4-0.8c6.9-1.4,14-0.8,20.5,1.7  l0.3,0.1c5,1.8,10.2,2.8,15.5,2.8c3.6,0,7.3-0.4,10.9-1.4l7.2-1.8c1.5-0.4,2.6-1.8,2.6-3.3V13.6C83.9,12.5,83.3,11.5,82.5,10.8z"/>
</svg>
