<?xml version="1.0"?>
<svg viewBox="0 0 36 36" fill="none" xmlns="http://www.w3.org/2000/svg">
  <path d="M20.4543 23.3816L31.633 12.203V26.3061C31.633 29.6903 28.8795 32.4434 25.4951 32.4434L10.2785 32.4436C6.8941 32.4436 4.14062 29.6905 4.14062 26.3063V11.0891C4.14062 7.7047 6.89404 4.95151 10.2785 4.95151L25.0321 4.9514L13.5282 16.4552C13.3777 16.6061 13.2735 16.7966 13.2279 17.0047L11.7264 23.8574C11.645 24.2282 11.7583 24.6146 12.0267 24.8833C12.2379 25.0942 12.522 25.2089 12.814 25.2089C12.8932 25.2089 12.9732 25.2008 13.0526 25.1833L19.9053 23.6817C20.1133 23.6364 20.3037 23.5317 20.4543 23.3816L20.4543 23.3816ZM32.4599 4.45027C31.9586 3.94897 31.288 3.67285 30.5719 3.67285C29.8558 3.67285 29.1854 3.94863 28.684 4.45027L26.5389 6.59494L30.315 10.371L32.4597 8.22634C32.961 7.72504 33.2371 7.05418 33.2371 6.33842C33.2372 5.62166 32.9611 4.95148 32.4598 4.45019L32.4599 4.45027ZM14.2743 22.6355L19.11 21.576L28.7399 11.946L24.9639 8.1699L15.3342 17.7999L14.2743 22.6355Z" fill="currentColor"/>
</svg>
