<?xml version="1.0"?>
<svg xmlns="http://www.w3.org/2000/svg" viewBox="0 0 36 36" fill="none">
  <path fill="currentColor" d="M14.7163 7.6875L17.2476 15.5344C17.564 16.6102 18.4499 17.4328 19.5257 17.8125L27.3726 20.3438L19.5257 22.875C18.4499 23.1914 17.6273 24.0773 17.2476 25.1531L14.7163 33L12.1851 25.1531C11.8687 24.0773 10.9827 23.2547 9.90696 22.875L2.06009 20.3438L9.90696 17.8125C10.9827 17.4961 11.8054 16.6102 12.1851 15.5344L14.7163 7.6875Z"/>
  <path fill="currentColor" d="M24.488 3L25.7861 7.06499C25.9591 7.63321 26.3918 8.07031 26.9543 8.24514L30.9784 9.55643L26.9543 10.8677C26.3918 11.0426 25.9591 11.4796 25.7861 12.0479L24.488 16.1129L23.1899 12.0479C23.0168 11.4796 22.5841 11.0426 22.0216 10.8677L17.9976 9.55643L22.0216 8.24514C22.5841 8.07031 23.0168 7.63321 23.1899 7.06499L24.488 3Z"/>
  <path fill="currentColor" d="M8.11778 3.9375L8.76682 5.99185C8.85336 6.25411 9.0697 6.47265 9.32932 6.56007L11.363 7.21571L9.32932 7.87136C9.0697 7.95878 8.85336 8.17732 8.76682 8.43958L8.11778 10.4939L7.46874 8.43958C7.3822 8.17732 7.16586 7.95878 6.90624 7.87136L4.87259 7.21571L6.90624 6.56007C7.16586 6.47265 7.3822 6.25411 7.46874 5.99185L8.11778 3.9375Z"/>
  <path fill="currentColor" d="M30.6178 12.375L31.2668 14.4293C31.3534 14.6916 31.5697 14.9102 31.8293 14.9976L33.863 15.6532L31.8293 16.3089C31.5697 16.3963 31.3534 16.6148 31.2668 16.8771L30.6178 18.9314L29.9687 16.8771C29.8822 16.6148 29.6659 16.3963 29.4062 16.3089L27.3726 15.6532L29.4062 14.9976C29.6659 14.9102 29.8822 14.6916 29.9687 14.4293L30.6178 12.375Z"/>
  <path fill="currentColor" d="M25.9303 24.5625L26.5793 26.6168C26.6659 26.8791 26.8822 27.0977 27.1418 27.1851L29.1755 27.8407L27.1418 28.4964C26.8822 28.5838 26.6659 28.8023 26.5793 29.0646L25.9303 31.1189L25.2812 29.0646C25.1947 28.8023 24.9784 28.5838 24.7187 28.4964L22.6851 27.8407L24.7187 27.1851C24.9784 27.0977 25.1947 26.8791 25.2812 26.6168L25.9303 24.5625Z"/>
</svg>
