<?xml version="1.0"?>
<svg xmlns="http://www.w3.org/2000/svg" viewBox="0 0 36 36" fill="none">
  <path fill-rule="evenodd" clip-rule="evenodd" d="M2.00023 24.453H4.84442C6.92144 24.453 8.26825 22.9277 9.32331 21.1763L15.3048 11.2448C17.1871 8.11946 19.9271 5.76281 23.5619 5.76281H26.038L26.0379 2L33.9995 8.15498L26.0386 14.3096V10.5472H23.5624C21.5098 10.5472 20.1227 12.0984 19.0835 13.8239L13.1017 23.7561C11.1813 26.9448 8.58909 29.2381 4.84462 29.2381H2.0001L2.00023 24.453ZM2.00023 10.547H4.84442C6.92144 10.547 8.26825 12.0723 9.32331 13.8238L9.86817 14.7281L12.5155 10.3325C10.6604 7.62746 8.22064 5.76215 4.84419 5.76215L2 5.76202L2.00023 10.547ZM26.0384 20.6906V24.453H23.5622C21.5096 24.453 20.1225 22.9018 19.0833 21.1763L18.5385 20.2719L15.8931 24.6641C17.7422 27.3264 20.2893 29.2375 23.5622 29.2375H26.1776L26.0384 33L34 26.8454L26.0384 20.6906Z" fill="currentColor"/>
</svg>
