<?xml version="1.0"?>
<svg width="36" height="36" viewBox="0 0 36 36" fill="none" xmlns="http://www.w3.org/2000/svg">
  <path fill-rule="evenodd" clip-rule="evenodd" d="M32.1215 7.97173H3.87823V23.2312C3.8266 23.2806 3.77545 23.3307 3.72479 23.3813C2.67314 24.433 1.88115 25.6958 1.39011 27.0701H0V3.95898H35.9997V27.0701H34.6116C34.5565 26.9156 34.4975 26.7624 34.4348 26.6105C33.9353 25.4024 33.2027 24.3045 32.2788 23.3796L32.2778 23.3785C32.2262 23.327 32.1741 23.276 32.1215 23.2257V7.97173ZM31.6574 27.0701C31.3177 26.4177 30.88 25.8198 30.3585 25.2977C30.3584 25.2976 30.3583 25.2976 30.3582 25.2975C30.8798 25.8197 31.3176 26.4176 31.6573 27.0701H31.6574ZM17.1787 27.0701C16.8413 26.4235 16.4051 25.8258 15.8799 25.3006C15.8798 25.3005 15.8797 25.3004 15.8797 25.3003C16.405 25.8256 16.8412 26.4234 17.1786 27.0701H17.1787Z" fill="currentColor"/>
  <path d="M18.0011 30.4189H3.52539C3.52539 28.4993 4.28795 26.6583 5.64531 25.3009C7.00267 23.9436 8.84365 23.181 10.7633 23.181C12.6829 23.181 14.5238 23.9436 15.8812 25.3009C17.2386 26.6583 18.0011 28.4993 18.0011 30.4189ZM10.7633 20.4668C11.5685 20.4668 12.3556 20.228 13.0251 19.7807C13.6947 19.3333 14.2165 18.6975 14.5246 17.9535C14.8328 17.2096 14.9134 16.391 14.7563 15.6013C14.5992 14.8115 14.2115 14.0861 13.6421 13.5167C13.0727 12.9473 12.3473 12.5595 11.5575 12.4025C10.7678 12.2454 9.94917 12.326 9.20524 12.6341C8.4613 12.9423 7.82545 13.4641 7.37809 14.1336C6.93073 14.8032 6.69196 15.5903 6.69196 16.3955C6.69076 16.9305 6.79526 17.4605 6.99944 17.955C7.20362 18.4494 7.50346 18.8987 7.88175 19.277C8.26004 19.6553 8.70934 19.9552 9.20383 20.1593C9.69832 20.3635 10.2283 20.468 10.7633 20.4668ZM30.3598 25.2981C29.0262 23.9645 27.2248 23.204 25.3389 23.1787C23.4531 23.1533 21.6319 23.8651 20.263 25.1624C21.1577 26.7696 21.6249 28.5795 21.6201 30.4189H32.4768C32.4776 29.4681 32.291 28.5265 31.9278 27.6479C31.5645 26.7692 31.0317 25.9708 30.3598 25.2981ZM21.1677 16.3955C21.1677 17.2008 21.4065 17.9879 21.8538 18.6574C22.3012 19.3269 22.937 19.8488 23.681 20.1569C24.4249 20.4651 25.2435 20.5457 26.0333 20.3886C26.823 20.2315 27.5484 19.8438 28.1178 19.2744C28.6872 18.705 29.075 17.9796 29.2321 17.1898C29.3891 16.4 29.3085 15.5814 29.0004 14.8375C28.6922 14.0936 28.1704 13.4577 27.5009 13.0104C26.8314 12.563 26.0442 12.3242 25.239 12.3242C24.704 12.323 24.174 12.4275 23.6796 12.6317C23.1851 12.8359 22.7358 13.1357 22.3575 13.514C21.9792 13.8923 21.6793 14.3416 21.4752 14.8361C21.271 15.3306 21.1665 15.8605 21.1677 16.3955Z" fill="currentColor"/>
</svg>
