<?xml version="1.0"?>
<svg xmlns="http://www.w3.org/2000/svg" width="1280" height="720" viewBox="0 0 1280 720" fill="none">
  <rect fill="black" width="1280" height="720"/>
  <path fill="#1A9FFF" d="M584.879 377.879C583.707 379.05 583.707 380.95 584.879 382.121L603.971 401.213C605.142 402.385 607.042 402.385 608.213 401.213C609.385 400.042 609.385 398.142 608.213 396.971L591.243 380L608.213 363.029C609.385 361.858 609.385 359.958 608.213 358.787C607.042 357.615 605.142 357.615 603.971 358.787L584.879 377.879ZM658 380V377H587V380V383H658V380Z"/>
  <path fill="white" d="M615.875 264.5C613.993 270.227 604.411 276.315 587.119 291.428C570.713 293.111 534.349 303.016 514.005 341.398C514.005 341.398 502.048 364.332 506.864 381.714C505.392 382.459 503.904 382.861 502.357 382.861C493.954 382.861 483.686 364.633 463.777 364.633C427.98 364.633 323.301 500 259.828 500C244.969 500 232.795 494.616 224.191 485.724C232.745 476.757 244.359 466.424 258.816 454.903C306.503 416.914 344.289 388.312 374.65 365.337C411.307 337.588 435.523 319.26 451.234 304.038C465.984 289.753 472.916 278.408 474.387 265.815C474.521 264.684 475.466 263.839 476.603 263.839C516.856 263.822 564.693 264.157 597.596 264.383C604.369 264.433 610.531 264.475 615.85 264.509L615.875 264.5ZM256.492 451.956C304.212 413.942 342.023 385.323 372.401 362.331C439.887 311.247 467.213 290.557 470.591 265.982C470.75 264.852 469.855 263.839 468.71 263.839C436.158 263.889 409.894 264.199 402.87 265.019C393.664 266.091 385.896 267.431 379.349 268.888C377.844 269.223 376.506 270.077 375.545 271.282C374.023 273.217 372.777 274.95 371.23 276.306C356.238 289.435 310.198 319.419 271.024 353.229C249.159 372.094 210.243 405.41 210.001 447.518C209.926 461.317 214.09 473.667 221.682 482.919C230.345 473.876 242.009 463.494 256.492 451.956ZM576.374 320.867C578.682 310.594 581.977 306.022 581.91 302.33C581.91 301.995 581.776 301.425 581.642 300.931C581.508 300.437 581.007 300.194 580.547 300.37C571.926 303.719 547.242 314.881 543.229 334.315C543.003 335.403 543.73 336.458 544.826 336.676C546.808 337.078 548.839 337.521 550.888 338.032C557.494 339.673 563.882 342.21 569.325 344.772C570.111 345.141 571.014 345.174 571.8 344.814C572.135 344.664 572.444 344.479 572.695 344.278C576.433 341.298 572.988 335.922 576.374 320.851V320.867ZM525.728 333.988C528.813 334.248 532.969 334.691 537.685 335.42C538.488 335.545 539.265 335.009 539.407 334.206C543.045 314.37 565.312 302.639 576.324 298.001C576.792 297.8 576.55 297.096 576.057 297.222C571.566 298.377 566.533 300.035 561.248 302.371C550.411 307.152 536.163 315.927 524.632 331.551C523.922 332.514 524.532 333.896 525.728 333.996V333.988ZM615.925 260.406C614.06 253.925 608.073 252.644 602.212 251.941C586.826 250.099 566.683 248.784 546.481 247.947C546.481 248.106 546.507 248.257 546.507 248.424C546.406 249.68 545.537 250.032 544.659 250.341C541.857 251.103 538.981 251.087 536.138 251.229C531.405 251.329 526.731 251.48 522.032 251.38C520.527 252.485 517.383 252.527 515.987 252.753C509.724 253.255 503.478 253.23 497.215 253.339C493.042 253.356 488.878 253.314 484.681 253.012C482.415 252.795 480.425 252.736 478.175 251.857C477.916 251.748 477.54 251.53 477.23 251.221C477.163 251.221 477.088 251.229 477.021 251.229C470.658 251.363 464.387 251.597 458.007 251.17C456.059 250.894 451.334 251.061 451.569 248.064C451.569 248.039 451.569 248.014 451.569 247.989C410.638 250.584 392.853 257.023 383.697 263.403C383.229 263.73 382.786 264.056 382.359 264.383C388.187 263.219 394.818 262.172 402.419 261.285C410.321 260.364 441.877 260.079 479.404 260.079C519.105 260.079 565.487 260.397 597.638 260.623C604.461 260.674 610.657 260.716 616 260.749C615.975 260.64 615.95 260.531 615.916 260.423L615.925 260.406ZM501.069 240.135C479.112 239.892 479.287 248.918 479.246 249.362C483.861 251.505 496.922 251.505 500.191 251.43C512.14 251.154 520.259 249.32 520.36 249.27C520.335 248.968 519.532 240.327 501.069 240.126V240.135ZM530.536 241.424C527.877 241.374 523.679 241.324 520.117 242.178C521.689 243.903 522.684 246.113 522.843 248.943C524.131 249.002 532.752 249.194 536.013 248.809C538.145 248.558 540.369 248.424 542.459 247.905C543.195 247.721 543.622 246.925 543.346 246.214C541.615 241.809 534.934 241.717 530.544 241.424H530.536ZM471.419 241.424C466.67 241.34 457.054 241.223 454.804 246.28C454.495 246.975 454.913 247.771 455.649 247.963C459.445 248.935 463.626 248.91 467.539 249.085C470.6 249.161 473.668 249.085 476.704 248.818C476.712 248.65 476.72 248.491 476.72 248.34C477.046 245.929 478.041 244.003 479.48 242.454C476.896 241.675 473.81 241.583 471.411 241.424H471.419ZM456.611 235.295V238.267C465.633 234.466 479.246 236.911 483.234 237.966C483.318 237.941 486.428 235.303 490.141 235.303H492.775C497.8 235.303 501.914 231.184 501.914 226.152C501.914 221.12 497.8 217 492.775 217H454.077C449.052 217 444.938 221.12 444.938 226.152C444.938 231.184 449.052 235.303 454.077 235.303H456.611V235.295Z"/>
  <path fill="#1A9FFF" d="M536.504 341.304C536.629 340.325 537.536 339.645 538.518 339.803L538.534 339.811C542.263 340.408 546.315 341.179 550.409 342.191C555.377 343.418 560.27 345.209 564.706 347.124C565.688 347.829 566.811 348.982 566.977 350.656C567.285 353.741 564.364 359.736 563.316 371.999C562.101 386.219 565.338 401.824 564.822 404.394C564.722 404.867 564.556 405.323 564.356 405.762C557.233 399.403 544.551 386.974 540.374 375.672C534.94 360.963 535.73 347.348 536.504 341.304Z"/>
  <path fill="#1A9FFF" d="M532.768 340.831C531.919 347.265 531.103 361.386 536.862 376.957V376.949C541.372 389.154 554.553 402.064 561.918 408.606C559.347 410.381 555.552 410.721 552.165 408.084C541.339 399.635 533.666 383.06 519.778 377.919C517.223 376.974 514.419 377.289 512.114 378.641C511.423 379.047 510.541 378.632 510.416 377.845C507.928 362.679 517.39 344.604 517.905 343.633C518.788 341.983 519.695 340.4 520.635 338.866C520.984 338.294 521.625 337.962 522.299 338.003C524.105 338.111 527.234 338.335 531.162 338.791C532.177 338.907 532.901 339.828 532.768 340.831Z"/>
  <path stroke="" opacity="0.7" d="M634.021 264L1007 263.893" stroke-width="8" stroke-linecap="round"/>
  <path fill="#126FB2" d="M1025 286.088V233.51C1025 231.111 1027.1 229.252 1029.48 229.538L1100.48 238.076C1102.49 238.318 1104 240.023 1104 242.048V309.006C1104 311.72 1101.35 313.646 1098.77 312.812L1027.77 289.895C1026.12 289.361 1025 287.824 1025 286.088Z"/>
  <path stroke="white" opacity="0.7" d="M1049.5 265.5L1070 269.5M1070 269.5L1063 254M1070 269.5L1063 281.5" stroke-width="3"/>
  <defs>
    <linearGradient id="" x1="633.997" y1="268.5" x2="956.435" y2="270.419" gradient-units="userSpaceOnUse">
      <stop stop-color="#1A9FFF" stop-opacity="0.5"/>
      <stop offset="1" stop-color="#75C5FF"/>
    </linearGradient>
  </defs>
</svg>
