<?xml version="1.0"?>
<svg xmlns="http://www.w3.org/2000/svg" viewBox="0 0 36 36" fill="none">
  <path fill="currentColor" d="M4.75681 7.2625C8.4093 3.60402 14.3371 3.59803 17.9956 7.25052L18.0076 7.2625C23.4624 12.861 28.51 18.8367 33.1025 25.1657C34.4677 26.8003 34.2522 29.2433 32.6115 30.6085C31.2404 31.7581 29.2524 31.806 27.8214 30.7342L16.1813 21.9383C11.7444 24.6028 5.99027 23.1658 3.32575 18.7289C1.12228 15.0285 1.70908 10.3042 4.75681 7.2625ZM6.94232 18.3457C9.34338 20.8306 13.3012 20.9025 15.7861 18.5014C17.8399 16.5195 18.289 13.4059 16.8819 10.921C16.5945 10.3881 16.2292 9.89708 15.8041 9.47195C13.3551 7.02299 9.38529 7.02898 6.93633 9.48393C4.48737 11.9269 4.49335 15.9027 6.94232 18.3457Z"/>
  <path fill="currentColor" d="M11.3853 17.6272C9.32175 17.6272 7.64895 15.9544 7.64895 13.8909C7.64895 11.8273 9.32175 10.1545 11.3853 10.1545C13.4488 10.1545 15.1216 11.8273 15.1216 13.8909C15.1216 15.9544 13.4488 17.6272 11.3853 17.6272Z"/>
</svg>
