<?xml version="1.0"?>
<svg xmlns="http://www.w3.org/2000/svg" viewBox="0 0 144 101" fill="none">
  <path fill="currentColor" fill-rule="evenodd" clip-rule="evenodd" d="M12.4085 5.59658V3.93223C12.4085 3.41364 12.6656 2.93089 13.1146 2.67128C14.5883 1.81912 18.1516 0 21.7149 0C26.3681 0 26.3681 1.55107 26.3681 1.55107V2.87729C27.3741 2.75307 28.4235 2.63419 29.5152 2.52221L29.505 2.53357C28.8893 3.22321 28.5779 4.08053 28.7572 5.06715L30.6463 15.4569C31.3285 19.2092 30.1199 23.0672 27.5484 25.9338C24.4988 29.3332 20.5287 34.076 17.9478 38.3777C16.1564 41.3631 14.3929 46.0784 12.8948 50.7506C11.3906 55.4419 10.1326 60.1599 9.36458 63.1933C9.02425 64.5373 7.61555 65.3146 6.31511 64.8812L5.91266 64.7472C4.40856 63.8923 3.19862 62.6247 2.56197 60.9419C1.32576 57.6737 0 52.4321 0 44.9809C0 31.0213 7.75533 7.75533 10.8575 6.20426C11.2243 6.02084 11.7431 5.81568 12.4085 5.59658ZM15.5107 12.4085C15.5107 11.5518 16.2051 10.8575 17.0617 10.8575H20.1639C21.0205 10.8575 21.7149 11.5518 21.7149 12.4085V14.8682C21.7149 15.2796 21.5515 15.6742 21.2606 15.9651L19.7096 17.5162C19.1038 18.1217 18.1217 18.1217 17.516 17.5162L15.9649 15.9651C15.6741 15.6742 15.5107 15.2796 15.5107 14.8682V12.4085ZM15.5107 26.3681C15.5107 27.2249 16.2051 27.9192 17.0617 27.9192H20.1639C21.0205 27.9192 21.7149 27.2249 21.7149 26.3681V23.9085C21.7149 23.4971 21.5515 23.1025 21.2606 22.8116L19.7096 21.2605C19.1038 20.655 18.1217 20.655 17.516 21.2605L15.9649 22.8116C15.6741 23.1025 15.5107 23.4971 15.5107 23.9085V26.3681ZM27.1437 20.9395C27.1437 21.796 26.4492 22.4903 25.5926 22.4903H23.1329C22.7216 22.4903 22.327 22.3271 22.0362 22.0362L20.4851 20.4851C19.8794 19.8793 19.8794 18.8974 20.4851 18.2916L22.0362 16.7405C22.327 16.4496 22.7216 16.2861 23.1329 16.2861H25.5926C26.4492 16.2861 27.1437 16.9807 27.1437 17.8374V20.9395ZM11.633 22.4903C10.7764 22.4903 10.0819 21.796 10.0819 20.9395V17.8374C10.0819 16.9807 10.7764 16.2861 11.633 16.2861H14.0927C14.504 16.2861 14.8985 16.4496 15.1894 16.7405L16.7405 18.2916C17.3462 18.8974 17.3462 19.8793 16.7405 20.4851L15.1894 22.0362C14.8985 22.3271 14.504 22.4903 14.0927 22.4903H11.633ZM24.899 6.36797C25.6651 5.98488 26.5968 6.29545 26.9799 7.06164L27.7554 8.61271C28.1387 9.37892 27.8279 10.3107 27.0618 10.6937C26.2956 11.0767 25.3639 10.7662 24.9808 9.9999L24.2053 8.44894C23.8222 7.68275 24.1327 6.75107 24.899 6.36797Z" fill-opacity="0.6"/>
  <path fill="currentColor" d="M49.6341 1.55029C43.4583 1.55029 37.9094 1.80122 33.0596 2.19603C32.8713 2.2626 32.6899 2.33164 32.5156 2.40331C31.6467 2.76059 31.0285 3.15519 30.662 3.5658C30.3212 3.94759 30.2004 4.33344 30.2834 4.78889L31.7487 12.8481L33.5232 18.6476C34.2208 20.9305 36.3278 22.4895 38.7149 22.4895H60.5652C62.9474 22.4895 65.051 20.9368 65.7531 18.6606L67.4828 13.0502L68.9848 4.78889C69.0639 4.35349 68.947 3.97961 68.6048 3.60277C68.2367 3.19754 67.6166 2.80653 66.746 2.45115C66.5139 2.35646 66.269 2.26621 66.0128 2.1802C61.2093 1.79452 55.727 1.55029 49.6341 1.55029Z" fill-opacity="0.6"/>
  <path fill="currentColor" fill-rule="evenodd" clip-rule="evenodd" d="M89.658 7.5701C89.1928 6.85538 88.7708 6.38401 88.4113 6.20426C88.0446 6.02084 87.5256 5.81568 86.8603 5.59658V3.93223C86.8603 3.41364 86.6033 2.93089 86.1541 2.67128C84.6805 1.81912 81.117 0 77.5539 0C72.9007 0 72.9007 1.55107 72.9007 1.55107V2.87729C71.8826 2.75158 70.8202 2.63135 69.7144 2.51821L69.7536 2.56068C70.3707 3.24006 70.6895 4.08842 70.5116 5.06715L69.0124 13.3119L69.0248 13.3157L68.9928 13.4194L68.6225 15.4569C68.5505 15.853 68.4995 16.2503 68.469 16.6474C71.3549 14.4398 74.5041 12.559 77.8614 11.0604C78.363 10.0224 79.4259 9.3064 80.656 9.3064C81.0538 9.3064 81.4342 9.3813 81.7837 9.51777C84.3178 8.65114 86.9495 7.99497 89.658 7.5701ZM74.3698 6.36797C73.6035 5.98488 72.6721 6.29545 72.2888 7.06164L71.5134 8.61271C71.1301 9.37892 71.4409 10.3107 72.2069 10.6937C72.9732 11.0767 73.9049 10.7662 74.2879 9.9999L75.0636 8.44894C75.4466 7.68275 75.1361 6.75107 74.3698 6.36797Z" fill-opacity="0.6"/>
  <path fill="currentColor" fill-rule="evenodd" clip-rule="evenodd" d="M60.7863 24.0386C60.7124 24.0409 60.6384 24.0421 60.5641 24.0421H38.7138C35.8314 24.0421 33.2667 22.274 32.2222 19.6274C31.7995 22.3342 30.5653 24.8931 28.7018 26.9703C25.6653 30.355 21.7779 35.0077 19.2767 39.1764C17.586 41.9942 15.8673 46.5573 14.3707 51.2248C12.8803 55.8733 11.6312 60.5568 10.8671 63.5749C10.615 64.5706 10.0039 65.3815 9.20932 65.9046L9.29494 65.9192C12.0178 66.3731 14.6892 64.8698 15.7144 62.3067L20.9249 49.2808C22.3382 45.7474 25.7602 43.4306 29.5657 43.4306H51.1932C52.8585 36.1836 56.1995 29.5764 60.7863 24.0386ZM40.3266 34.1242C40.3266 37.5506 37.5488 40.3285 34.1224 40.3285C30.696 40.3285 27.9181 37.5506 27.9181 34.1242C27.9181 30.6978 30.696 27.9199 34.1224 27.9199C37.5488 27.9199 40.3266 30.6978 40.3266 34.1242Z" fill-opacity="0.6"/>
  <circle stroke="currentColor" cx="97.5" cy="30.5" r="11"/>
  <circle stroke="currentColor" cx="97.5" cy="80.5" r="11"/>
  <circle stroke="currentColor" cx="122.5" cy="55.5" r="11"/>
  <circle stroke="currentColor" cx="72.5" cy="55.5" r="11"/>
  <path fill="currentColor" d="M98.648 36H97.144V31.52L93.224 24.8H94.984L97.928 30.112L100.872 24.8H102.536L98.648 31.536V36Z"/>
  <path fill="currentColor" d="M75.712 50.8H77.648L73.84 56.112L78.064 62H76.176L72.976 57.312L70.032 62H68.224L72.144 56.192L68.4 50.8H70.32L73.008 55.056L75.712 50.8Z"/>
  <path fill="currentColor" d="M103.528 86H101.88L100.92 83.328H95.96L95 86H93.416L97.592 74.8H99.304L103.528 86ZM98.44 76.352L96.392 82.08H100.488L98.44 76.352Z"/>
  <path fill="currentColor" d="M124.024 55.08C124.707 55.2293 125.267 55.5493 125.704 56.04C126.152 56.52 126.376 57.1387 126.376 57.896C126.376 58.92 126.019 59.6933 125.304 60.216C124.589 60.7387 123.635 61 122.44 61H118.456V49.8H122.024C123.219 49.8 124.125 50.04 124.744 50.52C125.363 50.9893 125.672 51.656 125.672 52.52C125.672 53.0747 125.523 53.5813 125.224 54.04C124.925 54.488 124.525 54.8347 124.024 55.08ZM119.96 51.064V54.728H121.848C122.563 54.728 123.128 54.5573 123.544 54.216C123.96 53.8747 124.168 53.4053 124.168 52.808C124.168 51.6453 123.379 51.064 121.8 51.064H119.96ZM122.28 59.736C123.133 59.736 123.768 59.5707 124.184 59.24C124.6 58.8987 124.808 58.4347 124.808 57.848C124.808 56.5573 123.987 55.912 122.344 55.912H119.96V59.736H122.28Z"/>
  <path fill="currentColor" d="M50.7071 55.7071C51.0976 55.3166 51.0976 54.6834 50.7071 54.2929L44.3431 47.9289C43.9526 47.5384 43.3195 47.5384 42.9289 47.9289C42.5384 48.3195 42.5384 48.9526 42.9289 49.3431L48.5858 55L42.9289 60.6569C42.5384 61.0474 42.5384 61.6805 42.9289 62.0711C43.3195 62.4616 43.9526 62.4616 44.3431 62.0711L50.7071 55.7071ZM31 56H50V54H31V56Z"/>
</svg>
