<?xml version="1.0"?>
<svg xmlns="http://www.w3.org/2000/svg" viewBox="0 0 36 32" fill="none">
  <path fill="currentColor" fill-rule="evenodd" clip-rule="evenodd" d="M28.5 0C32.6421 0 36 4.47715 36 10V30C36 31.1046 35.3284 32 34.5 32H1.5C0.671573 32 0 31.1046 0 30V2C0 0.895431 0.671573 0 1.5 0H28.5ZM15.8185 23H18.7525L15.7825 18.23C16.5505 17.894 17.1445 17.402 17.5645 16.754C17.9965 16.106 18.2125 15.296 18.2125 14.324C18.2125 13.088 17.8045 12.128 16.9885 11.444C16.1725 10.748 14.9005 10.4 13.1725 10.4H8.45654V23H11.1025V18.752H12.9745H13.2805L15.8185 23ZM11.1025 16.484V12.65H13.0105C13.8385 12.65 14.4385 12.806 14.8105 13.118C15.1945 13.418 15.3865 13.874 15.3865 14.486C15.3865 15.11 15.1885 15.602 14.7925 15.962C14.4085 16.31 13.8685 16.484 13.1725 16.484H11.1025ZM26.6688 20.714V10.4H24.6348L20.4948 12.452L21.3408 14.432L23.9868 13.316V20.714H21.0168V23H29.0628V20.714H26.6688Z"/>
</svg>
