<?xml version="1.0"?>
<svg width="36" height="36" viewBox="0 0 36 36" fill="none" xmlns="http://www.w3.org/2000/svg">
  <path fill-rule="evenodd" clip-rule="evenodd" d="M7.72842 4.7124C8.6669 4.8761 9.22437 4.90553 10.2063 4.90553L10.2065 4.9057C11.758 4.9057 13.3913 4.50303 14.5144 4.05381C14.8327 3.92663 15.1281 3.7991 15.4273 3.64909C15.4613 3.63207 15.4948 3.61534 15.5278 3.59881C15.784 3.47074 16.0157 3.35489 16.2659 3.20717C16.4064 3.12409 16.5438 3.03309 16.6803 2.94266C17.3731 2.48382 18.0435 2.03979 18.9788 2.72008C19.6082 3.17809 20.8182 3.81266 21.4904 4.05027L22.4691 4.38917C23.954 4.86609 26.0313 5.04347 27.6353 4.80723C27.7854 4.78512 27.9326 4.75773 28.0771 4.73085C28.8169 4.59325 29.4854 4.4689 30.1037 5.13347C30.3622 5.41133 30.5146 5.84175 30.5146 6.36943V17.3831C30.5146 18.5456 30.424 19.73 30.2067 20.6975C30.0937 21.2005 29.9876 21.6543 29.8337 22.1178C29.4651 23.2276 29.0207 24.2119 28.4138 25.1984L27.687 26.2644C26.5961 27.7249 25.4204 28.7211 23.95 29.736L21.3453 31.5953C21.1704 31.7159 21.0059 31.8356 20.8424 31.9546C20.6642 32.0843 20.4871 32.2133 20.2986 32.3417C20.1167 32.4655 19.9446 32.591 19.7725 32.7166C19.6021 32.8409 19.4317 32.9652 19.2519 33.0877C19.2041 33.1203 19.1564 33.1542 19.1082 33.1885C18.8081 33.4021 18.4884 33.6295 18.0005 33.6295C17.4169 33.6295 16.7331 33.1116 16.1628 32.6796C15.9982 32.555 15.843 32.4374 15.7024 32.3416C15.5132 32.2128 15.3355 32.0834 15.1568 31.9533C14.9938 31.8347 14.83 31.7154 14.6557 31.5952C14.0783 31.1961 11.4072 29.3139 10.9864 28.9712C10.916 28.9135 10.8627 28.8705 10.7998 28.8196C10.7823 28.8054 10.7639 28.7906 10.7442 28.7747C10.6957 28.7354 10.6567 28.7023 10.6187 28.6699C10.5823 28.639 10.5468 28.6088 10.5046 28.5746C10.1642 28.2999 9.89733 28.033 9.58925 27.7249L9.57523 27.7109C9.52929 27.665 9.48045 27.6182 9.43103 27.571C9.32164 27.4663 9.20943 27.359 9.11962 27.2518L9.11769 27.2495C8.5097 26.5229 8.09586 26.0284 7.58717 25.1983C7.27281 24.6849 6.9056 23.9996 6.67255 23.442C6.21843 22.3542 6.07265 21.9039 5.80139 20.7272C5.58409 19.7834 5.48633 18.5948 5.48633 17.4562V6.36928C5.48633 5.8279 5.64467 5.39614 5.91525 5.11472C6.51092 4.49473 7.03068 4.58774 7.6148 4.69227C7.6524 4.69899 7.69026 4.70577 7.72842 4.7124ZM13.4207 9.35834C14.7763 8.45258 16.37 7.96913 18.0003 7.96913C19.0828 7.96913 20.1547 8.18234 21.1548 8.5966C22.1549 9.01085 23.0636 9.61804 23.8291 10.3835C24.5945 11.1489 25.2017 12.0576 25.616 13.0577C26.0302 14.0578 26.2434 15.1298 26.2434 16.2123C26.2434 17.8426 25.76 19.4363 24.8542 20.7919C23.9485 22.1475 22.6611 23.204 21.1548 23.8279C19.6486 24.4518 17.9912 24.6151 16.3922 24.297C14.7931 23.9789 13.3244 23.1939 12.1715 22.041C11.0187 20.8882 10.2336 19.4194 9.91557 17.8204C9.59751 16.2214 9.76075 14.564 10.3847 13.0577C11.0086 11.5515 12.0651 10.2641 13.4207 9.35834ZM21.4899 15.1681H23.9464C23.7856 14.2463 23.4131 13.3744 22.8581 12.6211C22.3031 11.8677 21.5808 11.2535 20.748 10.8267C21.1938 12.2329 21.4435 13.6938 21.4899 15.1681ZM17.9509 22.2572H18.0498C18.4619 21.9 19.2478 20.2184 19.4016 17.2564H16.599C16.7529 20.2184 17.5387 21.9 17.9509 22.2572ZM17.9509 10.1673C17.5387 10.5245 16.7529 12.2061 16.599 15.1681H19.4016C19.2478 12.2061 18.4619 10.5245 18.0498 10.1673H17.9509ZM14.4887 15.1681C14.5423 13.6927 14.7993 12.2318 15.2526 10.8267C14.4199 11.2535 13.6975 11.8677 13.1425 12.6211C12.5875 13.3744 12.215 14.2463 12.0543 15.1681H14.4887ZM14.5107 17.2564H12.0543C12.215 18.1782 12.5875 19.0501 13.1425 19.8035C13.6975 20.5568 14.4199 21.171 15.2526 21.5978C14.8068 20.1917 14.5572 18.7307 14.5107 17.2564ZM21.5119 17.2564C21.4583 18.7318 21.2013 20.1927 20.748 21.5978C21.5849 21.1737 22.3115 20.5606 22.8705 19.8071C23.4294 19.0536 23.8053 18.1803 23.9683 17.2564H21.5119Z" fill="currentColor"/>
</svg>
