<?xml version="1.0"?>
<svg xmlns="http://www.w3.org/2000/svg" viewBox="0 0 36 36" fill="none">
  <path fill="currentColor" fill-rule="evenodd" clip-rule="evenodd" d="M30.2729 5.14288L26.8164 8.35717C29.4702 10.825 31.1117 14.2343 31.1117 18C31.1117 21.7658 29.4702 25.1751 26.8164 27.6429L30.2729 30.8572C33.8114 27.5667 36 23.0211 36 18C36 12.979 33.8114 8.43331 30.2729 5.14288ZM24.4133 10.5918L20.9548 13.8078C21.9499 14.8186 22.5571 16.1651 22.5571 17.6435C22.5571 19.3033 21.7918 20.7968 20.5714 21.8357L24.0299 25.0517C26.134 23.1887 27.4454 20.5585 27.4454 17.6435C27.4454 14.9099 26.2921 12.4267 24.4133 10.5918ZM15.4286 18.0001L0 7.71436V28.2858L15.4286 18.0001Z"/>
</svg>
