<?xml version="1.0"?>
<svg width="36" height="36" viewBox="0 0 36 36" fill="none" xmlns="http://www.w3.org/2000/svg">
  <path fill-rule="evenodd" clip-rule="evenodd" d="M18.0001 2C16.4019 2.02152 14.8236 2.36052 13.3555 2.99755C11.8873 3.63458 10.558 4.55714 9.44364 5.71257C8.32928 6.868 7.45165 8.2336 6.86098 9.73129C6.27031 11.229 5.97819 12.8294 6.00127 14.441C6.00127 21.316 18.0001 35 18.0001 35C18.0001 35 29.9989 21.316 29.9989 14.441C30.0426 11.187 28.8032 8.04868 26.5532 5.71579C24.3033 3.3829 21.2268 2.04636 18.0001 2ZM25.6357 15.53C25.6328 15.8694 25.4971 16.1939 25.2581 16.4329C25.019 16.6719 24.696 16.806 24.3594 16.806H20.5416V20.656C20.5416 20.9974 20.4072 21.3247 20.1678 21.5661C19.9285 21.8074 19.6039 21.943 19.2654 21.943H16.7238C16.3853 21.943 16.0607 21.8074 15.8214 21.5661C15.5821 21.3247 15.4476 20.9974 15.4476 20.656V16.806H11.6407C11.3051 16.806 10.9833 16.6716 10.746 16.4323C10.5087 16.193 10.3754 15.8684 10.3754 15.53V12.956C10.3754 12.6176 10.5087 12.293 10.746 12.0537C10.9833 11.8145 11.3051 11.68 11.6407 11.68H15.4585V7.82999C15.4585 7.48865 15.593 7.16135 15.8323 6.91999C16.0717 6.67863 16.3962 6.54301 16.7347 6.54301H19.2763C19.6148 6.54301 19.9394 6.67863 20.1787 6.91999C20.4181 7.16135 20.5525 7.48865 20.5525 7.82999V11.68H24.3703C24.7069 11.68 25.0299 11.8141 25.2689 12.0531C25.5079 12.2921 25.6437 12.6166 25.6466 12.956L25.6357 15.53Z" fill="currentColor"/>
</svg>
