<?xml version="1.0"?>
<svg version="1.1" id="Layer_2" xmlns="http://www.w3.org/2000/svg" x="0px" y="0px" width="256px" height="256px" viewBox="0 0 256 256">
  <path fill-rule="evenodd" clip-rule="evenodd" d="M236.979,138.059c0.548,0.078,6.91,0.101,7.772,0.032 c1.215-0.095,1.396,0.068,1.388,0.708c-0.01,0.397,0.012,3.039-2.365,7.32c-3.301,5.948-12.079,10.436-12.55,10.672 c-0.47,0.233-0.53,0.484-0.136,0.75c0.434,0.295,8.068,1.454,9.084,1.611c1.017,0.154,0.637,1.001,0.637,1.001 s-0.704,2.621-2.895,5.36c-2.189,2.738-9.311,6.123-8.583,6.123c0.731,0,7.187,0.159,6.181,1.422 c-3.019,3.786-13.603,9.528-18.43,13.813c-13.388,11.885-13.217,12.864-15.52,15.09c-0.983-3.298-3.02-12.658-3.02-12.658 l-6.105-11.467c4.413,0.18,6.364,0.081,8.952,0.081c9.214,0,17.525-2.185,22.234-5.841l2.371-1.843l-2.911-0.728 c-2.131-0.528-7.121-1.782-11.896-2.979c2.184-0.104,10.803-1.299,14.413-5.339c0.136-0.151,0.276-0.321,0.406-0.494l1.245-1.664 l-2.404-0.735c-2.607-0.799-5.948-1.682-8.517-2.335c3.173-1.572,7.585-3.942,10.048-6.088c4.83-4.203,7.226-9.709,7.322-9.943 l0.9-2.098l-10.772,0.318c1.503-1.483,3.218-3.197,3.939-3.991c1.43-1.571,4.053-6.221,4.198-9.896l0.072-1.787l-1.763,0.288 c-1.979,0.322-5.301,1.279-8.179,2.173c2.025-2.193,4.296-4.767,5.46-6.484c2.687-3.964,2.76-8.371,2.597-12.916l-0.104-2.881 l-2.261,1.79c-2.559,2.028-7.595,5.031-11.097,7.047c1.538-3.644,3.54-8.752,3.813-11.276c0.5-4.681-0.248-10.196-0.248-10.196 l-10.76,9.394c0.885-1.953,1.684-4.013,2.117-5.832c1.735-7.29,0.055-17.892-0.021-18.338l-0.452-2.807l-7.777,7.739 c0.722-3.535,1.465-8.253,1.23-11.789c-0.426-6.321-2.278-10.517-2.359-10.694l-1.01-2.251l-6.465,8.577 c0.231-4.285,0.27-10.24-0.948-13.547c-1.934-5.262-3.651-8.007-3.723-8.121l-1.232-1.958l-3.057,4.85 c0.018-2.967-0.11-6.475-0.69-8.68c-1.202-4.543-2.825-6.396-3.002-6.592l-1.325-1.433l-1.623,2.705 c-0.278-3.19-1.112-7.084-3.343-9.478l-0.814-0.872l-1.012,0.623c-0.327,0.201-0.714,0.497-1.104,0.823 c-0.154-1.135-0.365-2.451-0.639-3.691c0.563-4.733,1.186-10.03,1.206-10.452c0.027-0.547,0.274-0.767,1.017-0.391 c0.898,0.452,3.156,2.064,5.187,6.133c2.036,4.067,3.132,11.324,3.117,12.044c-0.009,0.383,0.291,0.757,0.438,0.151 c0.145-0.607,0.478-7.591,0.623-8.312c0.081-0.383,0.199-0.484,0.737-0.212c0.496,0.249,2.959,2.181,4.899,6.463 c1.179,2.599,1.634,11.946,1.574,12.653c-0.106,1.278,0.313,0.891,0.339,0.883c-0.009,0.013-0.025,0.04-0.03,0.049 c0.03-0.041,0.036-0.049,0.03-0.049c0.573-0.841,4.21-8.99,4.519-9.377c0.313-0.39,0.521-0.395,0.835,0.002 c0.262,0.33,2.095,1.717,4.049,10.088c1.902,8.135,1.949,11.542,1.848,12.682c-0.08,0.86,0.339,0.993,0.731,0.524 c0.389-0.47,5.104-9.201,5.497-9.515c0.389-0.313,0.613-0.309,0.927,0.161c0.312,0.469,2.718,4.762,3.684,11.448 c0.861,5.947,0.608,13.599,0.375,14.381c-0.235,0.782-0.135,1.077,0.493,0.53c0.623-0.548,10.299-8.412,11.004-9.038 c0.703-0.627,1.18-0.65,1.34-0.046c0.172,0.654,0.822,8.654,0.275,15.225c-0.549,6.571-2.626,12.752-2.94,13.145 c-0.312,0.391,0.087,0.712,0.478,0.555c0.394-0.157,11.902-10.018,12.645-10.402c0.711-0.367,1.043,0.005,1.105,0.507 c0.068,0.544,0.966,3.098-0.419,11.269c-0.959,5.65-3.54,11.876-3.855,12.033c-0.313,0.157-0.077,0.336,0.234,0.259 c0.315-0.079,8.324-3.488,8.872-3.567c0.546-0.079,0.671,0.339,0.514,0.808c-0.158,0.469-0.458,6.273-2.534,11.639 c-2.603,6.732-6.056,11.001-6.056,11.001s-0.252,0.519,0.217,0.519s9.266-0.186,9.813-0.263c0.547-0.079,0.627,0.156,0.547,0.704 c-0.077,0.547,0.858,9.116-8.624,14.601C236.524,137.734,236.432,137.979,236.979,138.059z M174.473,24.823 c1.981,3.34,2.018,9.248,1.836,11.469l-0.52,6.238l5.25-8.744c0.395,0.843,0.85,2.003,1.25,3.524 c1.02,3.877,0.422,13.082,0.417,13.173l-0.384,5.752l6.435-10.212c0.628,1.27,1.45,3.097,2.32,5.459 c1.466,3.983,0.772,13.806,0.381,17.257l-0.602,5.308l9.568-12.69c0.493,1.707,1.058,4.21,1.259,7.227 c0.39,5.821-2.272,15.731-2.299,15.83l-1.428,5.26l11.125-11.068c0.377,3.586,0.772,9.774-0.304,14.302 c-1.2,5.057-5.778,12.588-5.823,12.664l-1.806,3.992l16.878-14.09c-0.116,1.366-0.262,2.944-0.423,4.435 c-0.312,2.935-3.954,11.389-5.335,14.399l-1.827,4.002l3.856-2.115c0.381-0.208,8.027-4.41,12.979-7.778 c-0.039,3.484-0.537,6.042-2.139,8.4c-2.189,3.234-9.05,10.198-9.118,10.268l-4.352,4.408l5.861-2.004 c0.08-0.025,6.868-2.34,11.188-3.41c-0.675,2.445-2.208,5.125-3.11,6.118c-1.319,1.449-6.429,6.429-6.48,6.482l-2.682,2.614 l13.475-0.404c-1.06,1.837-2.89,4.549-5.457,6.783c-3.727,3.244-12.956,7.341-13.048,7.383l-3.952,1.746l4.201,1.008 c0.062,0.015,5.637,1.354,10.266,2.67c-3.412,2.191-9.291,3.081-10.948,3.138c-2.06,0.072-11.075,0.125-11.075,0.125l-11.51,0.069 l11.162,2.804c0,0,12.587,3.164,19.486,4.894c-4.398,2.216-10.717,3.493-17.657,3.493c-3.102,0-10.335-0.284-15.048-0.483 c4.064,6.069,7.041,11.004,7.992,13.681c2.813,7.915,6.777,28.269,6.889,48.907c0.039,6.572-1.081,11.649-9.022,11.649 c-0.288,0-0.597-0.038-0.908-0.092c-1.846,0.339-4.351,0.595-5.438-0.095c-1.805-1.149-3.163-2.627-3.544-3.957 c-0.383-1.334-1.146-9.374-3.106-20.675c-1.92-11.046-4.038-19.431-4.237-19.525c-1.535-0.731-9.358-18.45-9.358-18.45 l-37.23-47.615c0,0-20.737,23.917-37.455,47.8c-0.867,1.235-5.994,11.251-9.275,17.989c-0.212,0.437-0.181,0.475-0.281,0.808 c-0.604,2.015-2.396,9.525-4.039,18.994c-1.962,11.301-2.725,19.341-3.105,20.675c-0.384,1.33-1.74,2.808-3.546,3.957 c-1.085,0.689-3.592,0.434-5.437,0.095c-0.313,0.054-0.621,0.092-0.909,0.092c-7.941,0-9.061-5.077-9.024-11.649 c0.114-20.639,4.078-40.992,6.892-48.907c0.95-2.677,3.926-7.611,7.993-13.681c-4.714,0.199-11.946,0.483-15.051,0.483 c-6.939,0-13.26-1.277-17.653-3.493c6.896-1.729,19.486-4.894,19.486-4.894l11.159-2.804l-11.508-0.069 c0,0-9.019-0.053-11.076-0.125c-1.66-0.057-7.537-0.946-10.949-3.138c4.629-1.315,10.202-2.655,10.264-2.67l4.201-1.008l-3.95-1.746 c-0.094-0.042-9.324-4.139-13.049-7.383c-2.566-2.234-4.397-4.946-5.458-6.783l13.477,0.404l-2.684-2.614 c-0.05-0.054-5.16-5.033-6.48-6.482c-0.9-0.993-2.436-3.673-3.108-6.118c4.319,1.069,11.108,3.384,11.188,3.41l5.861,2.004 l-4.352-4.408c-0.069-0.069-6.928-7.033-9.12-10.268c-1.601-2.358-2.099-4.916-2.139-8.4c4.953,3.368,12.601,7.57,12.98,7.778 l3.858,2.115l-1.829-4.002c-1.379-3.011-5.022-11.465-5.334-14.399c-0.161-1.491-0.305-3.068-0.421-4.435l16.877,14.09l-1.806-3.992 c-0.046-0.076-4.622-7.607-5.821-12.664c-1.078-4.528-0.682-10.716-0.307-14.302L58.57,89.672l-1.426-5.26 c-0.025-0.098-2.688-10.008-2.3-15.83c0.203-3.017,0.767-5.52,1.26-7.227l9.566,12.69l-0.601-5.308 c-0.391-3.451-1.083-13.274,0.381-17.257c0.871-2.362,1.693-4.189,2.32-5.459l6.435,10.212l-0.382-5.752 c-0.006-0.091-0.604-9.295,0.416-13.173c0.401-1.521,0.854-2.681,1.251-3.524l5.249,8.744l-0.52-6.238 c-0.181-2.221-0.144-8.129,1.836-11.469c0.596,0.522,1.248,1.148,1.67,1.575l2.215,2.245l0.276-3.142 c0.162-1.838,0.783-7.003,1.703-8.813c1.342-2.635,4.69-3.91,7.104-4.505c-6.691,13.614-36.889,77.59-36.889,122.937 c0,23.658,16.206,23.931,16.368,23.931c4.881,0,6.947-7.914,6.947-11.063V133.45c0-2.744,1.148-2.744,1.835-2.744 c5.807,0,10.48,3.196,13.855,6.69c8.813-11.615,15.81-20.526,15.81-20.526s0.16-0.182,0.248-0.345 c-1.03-2.443-7.165-16.995-7.165-16.995l1.708-43.717c0,0-0.278-3.797,1.044-6.052c1.314-2.245,4.247-3.175,4.247-3.175 l13.307,41.443c0,0-4.107,0.866-4.107,5.585c0,2.982,2.658,4.99,6.227,5.013c3.572-0.022,6.227-2.031,6.227-5.013 c0-4.719-4.109-5.585-4.109-5.585l13.311-41.443c0,0,2.93,0.93,4.245,3.175c1.322,2.255,1.043,6.052,1.043,6.052l1.709,43.717 l-7.309,17.34c0,0,6.997,8.911,15.809,20.526c3.375-3.494,8.048-6.69,13.855-6.69c0.687,0,1.833,0,1.833,2.744v14.538 c0,3.148,2.068,11.063,6.95,11.063c0.159,0,16.367-0.272,16.367-23.931c0-45.347-30.197-109.322-36.888-122.937 c2.412,0.595,5.761,1.87,7.104,4.505c0.92,1.809,1.541,6.975,1.705,8.813l0.275,3.142l2.213-2.245 C173.226,25.972,173.875,25.345,174.473,24.823z M176.157,181.396c-1.644-2.189-41.07-55.856-41.07-55.856l-6.723,8.809 l-0.946-1.233l-0.829-1.082l-5.053-6.594l-0.095,0.101c0,0-39.427,53.667-41.07,55.856c-1.643,2.191-4.777,6.708-6.058,9.322 c-1.279,2.614-8.946,39.306-8.946,42.592c0,2.005,0.041,8.618,0.071,13.47c1.536,0.2,3.411,0.761,4.357,0.125 c1.624-1.093,2.363-2.323,2.491-3.372c0.128-1.048,1.367-12.969,2.69-20.812c1.779-10.547,4.571-19.005,4.415-18.97 c3.213-6.672,8.966-17.938,9.887-19.252c17.808-25.439,38.994-49.947,38.994-49.947s21.166,24.502,38.978,49.947 c0.921,1.313,6.672,12.58,9.888,19.252c-0.158-0.035,2.635,8.423,4.414,18.97c1.322,7.843,2.562,19.764,2.688,20.812 c0.131,1.049,0.87,2.279,2.493,3.372c0.944,0.636,2.818,0.075,4.355-0.125c0.032-4.852,0.073-11.465,0.073-13.47 c0-3.286-7.667-39.978-8.948-42.592C180.936,188.104,177.801,183.588,176.157,181.396z M82.538,21.517l-1.014-0.623l-0.813,0.872 c-2.231,2.394-3.063,6.287-3.342,9.478l-1.624-2.705l-1.323,1.433c-0.179,0.197-1.801,2.049-3.004,6.592 c-0.581,2.205-0.709,5.712-0.689,8.68l-3.057-4.85l-1.234,1.958c-0.072,0.114-1.787,2.859-3.722,8.121 c-1.22,3.307-1.179,9.262-0.949,13.547l-6.463-8.577l-1.012,2.251c-0.08,0.177-1.934,4.373-2.359,10.694 c-0.234,3.536,0.51,8.253,1.231,11.789l-7.778-7.739l-0.453,2.807c-0.073,0.446-1.754,11.048-0.02,18.338 c0.433,1.819,1.231,3.879,2.117,5.832l-10.759-9.394c0,0-0.749,5.515-0.248,10.196c0.271,2.523,2.272,7.632,3.813,11.276 c-3.503-2.016-8.539-5.019-11.099-7.047l-2.259-1.79l-0.106,2.881c-0.162,4.545-0.087,8.952,2.6,12.916 c1.161,1.717,3.433,4.291,5.459,6.484c-2.877-0.894-6.201-1.851-8.179-2.173l-1.763-0.288l0.071,1.787 c0.148,3.675,2.771,8.324,4.198,9.896c0.723,0.794,2.436,2.508,3.941,3.991L21.93,137.83l0.896,2.098 c0.1,0.234,2.493,5.74,7.324,9.943c2.464,2.146,6.876,4.516,10.047,6.088c-2.57,0.653-5.908,1.536-8.518,2.335l-2.402,0.735 l1.246,1.664c0.13,0.173,0.27,0.343,0.407,0.494c3.608,4.04,12.229,5.234,14.412,5.339c-4.774,1.197-9.767,2.451-11.896,2.979 l-2.911,0.728l2.371,1.843c4.708,3.656,13.02,5.841,22.233,5.841c2.588,0,4.539,0.099,8.954-0.081l-6.105,11.467 c0,0-2.038,9.36-3.02,12.658c-2.304-2.226-2.133-3.205-15.52-15.09c-4.829-4.284-15.411-10.026-18.429-13.813 c-1.005-1.263,5.449-1.422,6.179-1.422c0.73,0-6.393-3.385-8.582-6.123c-2.191-2.739-2.895-5.36-2.895-5.36s-0.38-0.847,0.637-1.001 c1.018-0.157,8.65-1.316,9.084-1.611c0.395-0.266,0.332-0.517-0.137-0.75c-0.469-0.236-9.248-4.724-12.548-10.672 c-2.375-4.281-2.357-6.923-2.364-7.32c-0.01-0.64,0.17-0.803,1.385-0.708c0.862,0.068,7.226,0.046,7.774-0.032 c0.546-0.08,0.453-0.324,0.019-0.576c-9.483-5.484-8.546-14.054-8.624-14.601c-0.079-0.548,0-0.783,0.548-0.704 c0.546,0.077,9.342,0.263,9.812,0.263c0.469,0,0.218-0.519,0.218-0.519s-3.452-4.27-6.056-11.001 c-2.077-5.366-2.377-11.169-2.533-11.639c-0.157-0.469-0.034-0.887,0.514-0.808c0.549,0.079,8.558,3.488,8.87,3.567 c0.313,0.077,0.548-0.103,0.235-0.259c-0.314-0.157-2.896-6.383-3.855-12.033c-1.384-8.17-0.488-10.725-0.42-11.269 c0.063-0.502,0.397-0.874,1.105-0.507c0.743,0.385,12.255,10.245,12.646,10.402c0.391,0.157,0.79-0.164,0.477-0.555 c-0.313-0.392-2.392-6.574-2.938-13.145c-0.548-6.571,0.1-14.571,0.274-15.225c0.161-0.604,0.635-0.581,1.339,0.046 c0.704,0.626,10.381,8.489,11.006,9.038c0.625,0.547,0.727,0.252,0.492-0.53c-0.235-0.782-0.484-8.435,0.375-14.381 c0.965-6.686,3.372-10.979,3.685-11.448s0.536-0.474,0.927-0.161c0.391,0.313,5.106,9.045,5.497,9.515 c0.391,0.469,0.809,0.336,0.732-0.524c-0.104-1.14-0.057-4.547,1.845-12.682c1.956-8.371,3.789-9.758,4.052-10.088 c0.313-0.396,0.521-0.392,0.833-0.002c0.309,0.387,3.945,8.536,4.519,9.377c-0.005,0,0,0.008,0.031,0.049 c-0.007-0.009-0.022-0.036-0.031-0.049c0.025,0.008,0.446,0.395,0.34-0.883c-0.058-0.707,0.396-10.055,1.574-12.653 c1.941-4.282,4.404-6.214,4.899-6.463c0.54-0.272,0.658-0.171,0.737,0.212c0.146,0.721,0.478,7.705,0.625,8.312 c0.146,0.606,0.444,0.232,0.437-0.151c-0.015-0.72,1.081-7.977,3.115-12.044c2.033-4.069,4.292-5.681,5.188-6.133 c0.742-0.376,0.989-0.156,1.018,0.391c0.022,0.422,0.645,5.719,1.206,10.452c-0.272,1.24-0.484,2.556-0.639,3.691 C83.251,22.014,82.866,21.718,82.538,21.517z M127.35,141.814c-1.158,12.032-4.978,23.045-6.326,29.486 c-1.643,7.849-4.788,18.061-6.793,20.931c-4.433,6.343-18.036,18.547-20.403,19.732c-1.094,0.547-6.376-4.115-6.56-4.846 c-0.182-0.728,2.883-3.993,2.154-3.627c-0.731,0.364-4.104,0.906-5.06,0.87c-0.753-0.026,0.633-2.728,0.633-2.728 s-1.484,2.217-3.021,2.947c-0.03,0.015,9.433-18.119,9.433-18.119S127.52,140.043,127.35,141.814z M119.7,169.39l3.104-10.647 l-1.869-0.559l-3.152,10.656L119.7,169.39z M114.072,167.242l4.687-10.051l-1.764-0.838l-4.735,10.055L114.072,167.242z  M126.961,159.319l-0.82,11.06l-1.991-0.139l0.867-11.079L126.961,159.319z M131.727,170.391l-1.986,0.167l-0.828-11.078 l1.944-0.144L131.727,170.391z M164.422,186.462c0,0,9.463,18.134,9.434,18.119c-1.54-0.73-3.021-2.947-3.021-2.947 s1.384,2.701,0.633,2.728c-0.957,0.036-4.33-0.506-5.06-0.87c-0.731-0.366,2.334,2.899,2.153,3.627 c-0.185,0.73-5.467,5.393-6.56,4.846c-2.368-1.186-15.973-13.39-20.404-19.732c-2.007-2.87-5.149-13.082-6.792-20.931 c-1.349-6.441-4.621-17.127-5.778-29.16C128.854,140.373,164.422,186.462,164.422,186.462z M142.029,167.242l1.813-0.834 l-4.735-10.055l-1.762,0.838L142.029,167.242z M136.402,169.39l1.917-0.55l-3.152-10.656l-1.868,0.559L136.402,169.39z"/>
</svg>
