<?xml version="1.0"?>
<svg version="1.1" id="Layer_2" xmlns="http://www.w3.org/2000/svg" x="0px" y="0px" width="256px" height="256px" viewBox="0 0 256 256">
  <path d="M165.693,45.186H91.368c-7.963,0-14.41,6.447-14.41,14.41V210.9c0,7.964,6.447,14.41,14.41,14.41h74.134 c7.965,0,14.41-6.447,14.41-14.41V59.596C180.102,51.633,173.657,45.186,165.693,45.186z M113.172,57.509h30.717 c1.707,0,3.223,1.327,3.223,3.224c0,1.896-1.328,3.223-3.223,3.223h-30.717c-1.707,0-3.223-1.328-3.223-3.223 C109.949,58.837,111.465,57.509,113.172,57.509z M128.529,213.554c-4.551,0-8.152-3.603-8.152-8.153c0-4.55,3.604-8.152,8.152-8.152 s8.151,3.603,8.151,8.152C136.682,209.761,133.081,213.554,128.529,213.554z M169.105,186.819h-81.15V74.384h81.15V186.819 L169.105,186.819z"/>
</svg>
