<?xml version="1.0"?>
<svg width="36" height="36" viewBox="0 0 36 36" fill="none" xmlns="http://www.w3.org/2000/svg">
  <path d="M30 30.05H26L24 34.05L20.11 27.57L22.9 24.87L26.9 24.81L30 30.05ZM13.1 24.87L9.1 24.81L6 30.05H10L12 34.05L15.89 27.57L13.1 24.87ZM22.5 13.05C22.5 12.16 22.2361 11.2899 21.7416 10.5499C21.2471 9.8099 20.5443 9.23312 19.7221 8.89253C18.8998 8.55194 17.995 8.46282 17.1221 8.63645C16.2492 8.81009 15.4474 9.23867 14.818 9.86801C14.1887 10.4973 13.7601 11.2992 13.5865 12.1721C13.4128 13.045 13.5019 13.9498 13.8425 14.7721C14.1831 15.5943 14.7599 16.2971 15.4999 16.7916C16.24 17.2861 17.11 17.55 18 17.55C18.5913 17.5513 19.1771 17.4358 19.7236 17.2101C20.2702 16.9845 20.7668 16.653 21.1849 16.2349C21.603 15.8168 21.9345 15.3202 22.1601 14.7736C22.3858 14.2271 22.5013 13.6413 22.5 13.05ZM29 13.05L25.85 16.3L25.78 20.83L21.25 20.9L18 24.05L14.75 20.9L10.22 20.83L10.15 16.3L7 13.05L10.15 9.79999L10.22 5.26999L14.75 5.19999L18 2.04999L21.25 5.19999L25.78 5.26999L25.85 9.79999L29 13.05Z" fill="currentColor"/>
</svg>
