<?xml version="1.0"?>
<svg xmlns="http://www.w3.org/2000/svg" viewBox="0 0 36 36" fill="none">
  <path d="M18 34.05H2C2 31.9283 2.84285 29.8935 4.34315 28.3932C5.84344 26.8929 7.87827 26.05 10 26.05C12.1217 26.05 14.1566 26.8929 15.6569 28.3932C17.1571 29.8935 18 31.9283 18 34.05ZM10 23.05C10.89 23.05 11.76 22.7861 12.5001 22.2917C13.2401 21.7972 13.8169 21.0944 14.1575 20.2721C14.4981 19.4499 14.5872 18.5451 14.4135 17.6721C14.2399 16.7992 13.8113 15.9974 13.182 15.3681C12.5526 14.7387 11.7508 14.3101 10.8779 14.1365C10.005 13.9629 9.10019 14.052 8.27792 14.3926C7.45566 14.7332 6.75285 15.31 6.25839 16.05C5.76392 16.79 5.5 17.66 5.5 18.55C5.49868 19.1414 5.61418 19.7271 5.83986 20.2737C6.06554 20.8202 6.39695 21.3168 6.81508 21.735C7.23321 22.1531 7.72981 22.4845 8.27637 22.7102C8.82293 22.9359 9.40868 23.0514 10 23.05ZM31.66 28.39C30.186 26.916 28.1949 26.0755 26.1105 26.0474C24.0261 26.0194 22.0131 26.8061 20.5 28.24C21.4889 30.0165 22.0054 32.0169 22 34.05H34C34.0008 32.9992 33.7946 31.9584 33.3931 30.9873C32.9916 30.0161 32.4027 29.1336 31.66 28.39ZM21.5 18.55C21.5 19.4401 21.7639 20.3101 22.2584 21.0501C22.7529 21.7901 23.4557 22.3669 24.2779 22.7075C25.1002 23.0481 26.005 23.1372 26.8779 22.9636C27.7508 22.7899 28.5526 22.3614 29.182 21.732C29.8113 21.1027 30.2399 20.3009 30.4135 19.428C30.5872 18.555 30.4981 17.6502 30.1575 16.828C29.8169 16.0057 29.2401 15.3029 28.5001 14.8084C27.76 14.314 26.89 14.05 26 14.05C25.4087 14.0487 24.8229 14.1642 24.2764 14.3899C23.7298 14.6156 23.2332 14.947 22.8151 15.3651C22.397 15.7833 22.0655 16.2799 21.8399 16.8264C21.6142 17.373 21.4987 17.9587 21.5 18.55ZM20.83 6.91005L23.65 4.16005L19.75 3.59005L18 0.0500488L16.25 3.59005L12.35 4.16005L15.17 6.91005L14.51 10.81L18 9.00005L21.49 10.84L20.83 6.91005Z" fill="currentColor"/>
</svg>
