<?xml version="1.0"?>
<svg xmlns="http://www.w3.org/2000/svg" viewBox="0 0 30 30" fill="none">
  <path fill="currentColor" fill-rule="evenodd" clip-rule="evenodd" d="M8.33332 26.5469C14.7106 30.2288 22.8651 28.0438 26.547 21.6665C30.2289 15.2893 28.0439 7.13476 21.6667 3.45286C15.2894 -0.229037 7.13488 1.95596 3.45298 8.3332C-0.228915 14.7104 1.95609 22.865 8.33332 26.5469ZM6.23348 21.3692C3.79844 18.0137 3.41122 13.4055 5.61805 9.5832C7.6228 6.11087 11.2595 4.16821 15 4.16473V9.99903C13.2736 10.0006 11.5951 10.8972 10.6699 12.4999C9.65132 14.264 9.83004 16.3909 10.9539 17.9396L6.23348 21.3692ZM15 25.835C18.7405 25.8315 22.3772 23.8888 24.3819 20.4165C26.5887 16.5942 26.2015 11.9861 23.7666 8.63065L19.0461 12.0602C20.1699 13.6089 20.3486 15.7357 19.3301 17.4999C18.4049 19.1025 16.7264 19.9991 15 20.0007L15 25.835ZM16.25 12.8348C17.4457 13.5252 17.8554 15.0541 17.1651 16.2499C16.4747 17.4456 14.9457 17.8553 13.75 17.1649C12.5543 16.4746 12.1446 14.9456 12.8349 13.7499C13.5253 12.5541 15.0543 12.1444 16.25 12.8348Z"/>
</svg>
