<?xml version="1.0"?>
<svg xmlns="http://www.w3.org/2000/svg" viewBox="0 0 18 14" fill="none">
  <path fill="currentColor" d="M0.111115 0.361084V13.6944H17.8889V0.361084H0.111115ZM12.8889 2.58331C13.2185 2.58331 13.5408 2.68105 13.8148 2.86419C14.0889 3.04733 14.3025 3.30762 14.4287 3.61217C14.5548 3.91671 14.5878 4.25182 14.5235 4.57512C14.4592 4.89843 14.3005 5.1954 14.0674 5.42848C13.8343 5.66157 13.5373 5.82031 13.214 5.88462C12.8907 5.94892 12.5556 5.91592 12.2511 5.78977C11.9465 5.66363 11.6862 5.45001 11.5031 5.17592C11.32 4.90184 11.2222 4.57961 11.2222 4.24997C11.2222 3.80795 11.3978 3.38402 11.7104 3.07146C12.0229 2.7589 12.4469 2.58331 12.8889 2.58331V2.58331ZM11.7778 11.4722H2.33334L7.05556 5.36108L9.77778 8.88331L11.2222 7.02775L14.6778 11.4722H11.7778Z"/>
</svg>
