<?xml version="1.0"?>
<svg xmlns="http://www.w3.org/2000/svg" viewBox="0 0 180 91" fill="none">
  <path stroke="#1A9FFF" d="M4.7912 69.8798C9.79468 51.2066 20.8199 34.7061 36.157 22.9376C51.4941 11.169 70.2858 4.79007 89.6178 4.79007C108.95 4.79007 127.741 11.169 143.079 22.9376C158.416 34.7061 169.441 51.2066 174.444 69.8798" stroke-width="9.58025" stroke-linecap="round"/>
  <path stroke="#1A9FFF" d="M33.3716 77.5377C36.6893 65.1559 43.9999 54.2148 54.1696 46.4113C64.3393 38.6078 76.7997 34.3781 89.6184 34.3781C102.437 34.3781 114.897 38.6078 125.067 46.4113C135.237 54.2148 142.547 65.1559 145.865 77.5377" stroke-width="9.58025" stroke-linecap="round"/>
  <path stroke="#1A9FFF" d="M64.9417 85.9969C66.3973 80.5647 69.6046 75.7646 74.0663 72.341C78.528 68.9174 83.9947 67.0617 89.6185 67.0617C95.2424 67.0617 100.709 68.9174 105.171 72.341C109.632 75.7646 112.84 80.5647 114.295 85.9969" stroke-width="9.58025" stroke-linecap="round"/>
</svg>
