<?xml version="1.0"?>
<svg width="24" height="25" viewBox="0 0 24 25" fill="none" xmlns="http://www.w3.org/2000/svg">
  <path d="M11 1.43897C7.04639 1.80657 3.71892 4.33184 2.20648 7.82581L5.39812 8.86284C6.44716 6.70025 8.5275 5.13078 11 4.79366V1.43897Z" fill="#AAAAAA"/>
  <path d="M18.6018 8.86283C17.5528 6.70023 15.4724 5.13076 13 4.79365V1.43896C16.9535 1.80655 20.281 4.33181 21.7935 7.8258L18.6018 8.86283Z" fill="#AAAAAA"/>
  <path d="M17.0791 17.349C18.4685 16.0145 19.3333 14.1379 19.3333 12.0594C19.3333 11.6177 19.2943 11.1852 19.2195 10.7651L22.4111 9.72804C22.5784 10.4784 22.6666 11.2586 22.6666 12.0594C22.6666 15.2473 21.2681 18.1086 19.0511 20.0632L17.0791 17.349Z" fill="#AAAAAA"/>
  <path d="M8.53797 18.5257C9.56912 19.0789 10.7479 19.3927 12 19.3927C13.252 19.3927 14.4308 19.0789 15.462 18.5257L17.434 21.24C15.8426 22.1841 13.9846 22.726 12 22.726C10.0154 22.726 8.15738 22.1841 6.5659 21.24L8.53797 18.5257Z" fill="#AAAAAA"/>
  <path d="M4.7805 10.7651C4.70569 11.1852 4.66665 11.6177 4.66665 12.0594C4.66665 14.1379 5.53141 16.0145 6.92078 17.349L4.94878 20.0632C2.73181 18.1086 1.33331 15.2473 1.33331 12.0594C1.33331 11.2586 1.42155 10.4784 1.58884 9.72806L4.7805 10.7651Z" fill="#EEEEEE"/>
</svg>
