<?xml version="1.0"?>
<svg xmlns="http://www.w3.org/2000/svg" viewBox="0 0 36 36" fill="none">
  <path fill="currentColor" d="M5 9H27V14.219C28.349 14.3875 29.6858 14.6529 31 15.0138V5H1V27H8V23H5V9Z"/>
  <path fill="currentColor" d="M32.6676 21.1123C32.6751 20.4336 32.472 19.7693 32.0864 19.2107C31.7007 18.6522 31.1514 18.227 30.514 17.9935C28.0145 17.2731 25.4191 16.9409 22.8187 17.0086C20.2183 16.9409 17.6229 17.2731 15.1234 17.9935C14.4861 18.227 13.9368 18.6522 13.5511 19.2107C13.1654 19.7693 12.9623 20.4336 12.9698 21.1123L11 21.6048V25.5443L12.9698 26.0434C13.0256 26.8858 13.3093 27.6973 13.7903 28.3911C14.2714 29.085 14.9319 29.6352 15.7012 29.9829L17.671 30.8168C18.0712 30.9809 18.5149 31.0053 18.9307 30.8862C19.3465 30.7671 19.71 30.5113 19.9625 30.1602C20.2739 29.7008 20.7038 29.3344 21.2067 29.0997C21.7096 28.865 22.2666 28.7709 22.8187 28.8273C23.3735 28.7763 23.9317 28.877 24.4336 29.1187C24.9356 29.3604 25.3624 29.734 25.6683 30.1996C25.9209 30.5507 26.2844 30.8064 26.7002 30.9256C27.1159 31.0447 27.5597 31.0203 27.9599 30.8562L29.9296 30.0223C30.699 29.6746 31.3595 29.1244 31.8405 28.4305C32.3216 27.7367 32.6052 26.9252 32.6611 26.0828L34.6309 25.5837V21.6442L32.6676 21.1123ZM25.5502 20.9154C24.7525 20.7343 23.9385 20.6353 23.1207 20.6199C22.1013 20.5926 21.0823 20.6918 20.0873 20.9154L19.6408 18.9981C20.7997 18.7386 21.986 18.6218 23.1733 18.6501C24.124 18.6668 25.0703 18.7834 25.9966 18.9981L25.5502 20.9154Z"/>
</svg>
