<?xml version="1.0"?>
<svg style="" xmlns="http://www.w3.org/2000/svg" viewBox="0 0 36 36" fill="none">
  <rect fill="currentColor" x="3.82617" y="2" width="3" height="4"/>
  <rect fill="currentColor" x="3.82617" y="9" width="3" height="4"/>
  <rect fill="currentColor" x="3.82617" y="16" width="3" height="4"/>
  <rect fill="currentColor" x="3.82617" y="23" width="3" height="4"/>
  <rect fill="currentColor" x="3.82617" y="30" width="3" height="4"/>
  <path fill="currentColor" fill-rule="evenodd" clip-rule="evenodd" d="M10.0001 22.0989V17.8189L16.2074 15.869L16.2459 12.2486C16.2407 11.8588 16.0085 11.482 15.6333 11.3488C14.9327 11.0739 14.2894 10.6674 13.7463 10.0736C12.4484 8.65217 12.1894 6.49723 13.1336 4.75391C14.5932 1.99742 18.1636 1.18729 20.5946 2.88529C22.7995 4.4254 23.2317 7.43069 21.5622 9.61139C20.9843 10.3662 20.2727 10.8991 19.4342 11.2575C19.0506 11.4186 18.8005 11.8019 18.8058 12.1916L18.7749 15.6885L22.2544 14.6004C22.6449 14.4869 22.9514 14.1433 22.9958 13.7452C23.1147 12.6267 23.6444 11.538 24.5846 10.6499C26.1799 9.18956 28.571 8.84302 30.4666 9.82377C33.324 11.3048 33.8524 14.9779 31.6005 17.3526C30.0756 18.9478 27.5988 19.4062 25.6321 18.4616C25.0025 18.1506 24.4586 17.7277 24.0568 17.2325C23.8101 16.9314 23.3638 16.8342 22.9733 16.9477L19.373 18.0802L19.2532 29.7966C19.2494 32.0682 17.3331 33.9479 14.9505 34L15.093 20.4972L10.0001 22.0989ZM18.8394 5.17784C19.7723 5.82945 19.9292 7.09773 19.2443 7.99235C18.5379 8.91502 17.2182 9.10883 16.3136 8.47697C15.3807 7.82537 15.2238 6.55708 15.9087 5.66246C16.6151 4.73979 17.9349 4.54605 18.8394 5.17784ZM29.2418 12.4438C30.1747 13.0954 30.3316 14.3637 29.6467 15.2584C28.9403 16.181 27.6205 16.3748 26.716 15.743C25.7831 15.0914 25.6262 13.8231 26.3111 12.9285C27.0175 12.0058 28.3373 11.812 29.2418 12.4438ZM17.3194 17.5897C17.7434 17.8859 17.8326 18.5061 17.5116 18.9255C17.1691 19.3728 16.5447 19.4515 16.1207 19.1555C15.6967 18.8593 15.6074 18.2391 15.9285 17.8197C16.2496 17.4003 16.8954 17.2935 17.3194 17.5897Z"/>
</svg>
