<?xml version="1.0"?>
<svg xmlns="http://www.w3.org/2000/svg" viewBox="0 0 36 36" fill="none">
  <path d="M11 17.67V17.5C11 13.5 12.41 10.94 16.2 8.10002L13.8 4.90002C9.00003 8.52002 7.00003 12.17 7.00003 17.5V17.67L4.41003 15.09L1.59003 17.91L9.00003 25.33L16.41 17.91L13.59 15.09L11 17.67Z" fill="currentColor"/>
  <path d="M34.41 18.09L27 10.67L19.59 18.09L22.41 20.91L25 18.33V18.5C25 22.5 23.59 25.06 19.8 27.9L22.2 31.1C27 27.48 29 23.83 29 18.5V18.33L31.59 20.91L34.41 18.09Z" fill="currentColor"/>
</svg>
