<?xml version="1.0"?>
<svg xmlns="http://www.w3.org/2000/svg" viewBox="0 0 149 118" fill="none">
  <circle stroke="currentColor" cx="102.5" cy="47.5" r="11"/>
  <circle stroke="currentColor" cx="102.5" cy="97.5" r="11"/>
  <circle stroke="currentColor" cx="127.5" cy="72.5" r="11"/>
  <circle stroke="currentColor" cx="77.5" cy="72.5" r="11"/>
  <path fill="currentColor" d="M103.648 53H102.144V48.52L98.224 41.8H99.984L102.928 47.112L105.872 41.8H107.536L103.648 48.536V53Z"/>
  <path fill="currentColor" d="M80.712 67.8H82.648L78.84 73.112L83.064 79H81.176L77.976 74.312L75.032 79H73.224L77.144 73.192L73.4 67.8H75.32L78.008 72.056L80.712 67.8Z"/>
  <path fill="currentColor" d="M108.528 103H106.88L105.92 100.328H100.96L100 103H98.416L102.592 91.8H104.304L108.528 103ZM103.44 93.352L101.392 99.08H105.488L103.44 93.352Z"/>
  <path fill="currentColor" d="M129.024 72.08C129.707 72.2293 130.267 72.5493 130.704 73.04C131.152 73.52 131.376 74.1387 131.376 74.896C131.376 75.92 131.019 76.6933 130.304 77.216C129.589 77.7387 128.635 78 127.44 78H123.456V66.8H127.024C128.219 66.8 129.125 67.04 129.744 67.52C130.363 67.9893 130.672 68.656 130.672 69.52C130.672 70.0747 130.523 70.5813 130.224 71.04C129.925 71.488 129.525 71.8347 129.024 72.08ZM124.96 68.064V71.728H126.848C127.563 71.728 128.128 71.5573 128.544 71.216C128.96 70.8747 129.168 70.4053 129.168 69.808C129.168 68.6453 128.379 68.064 126.8 68.064H124.96ZM127.28 76.736C128.133 76.736 128.768 76.5707 129.184 76.24C129.6 75.8987 129.808 75.4347 129.808 74.848C129.808 73.5573 128.987 72.912 127.344 72.912H124.96V76.736H127.28Z"/>
  <path fill="currentColor" d="M55.7071 71.7071C56.0976 71.3166 56.0976 70.6834 55.7071 70.2929L49.3431 63.9289C48.9526 63.5384 48.3195 63.5384 47.9289 63.9289C47.5384 64.3195 47.5384 64.9526 47.9289 65.3431L53.5858 71L47.9289 76.6569C47.5384 77.0474 47.5384 77.6805 47.9289 78.0711C48.3195 78.4616 48.9526 78.4616 49.3431 78.0711L55.7071 71.7071ZM36 72H55V70H36V72Z"/>
  <mask id="" type="luminance" mask-units="userSpaceOnUse" x="0" y="0" width="104" height="104">
    <path fill="currentColor" d="M103.164 0H0V103.164H103.164V0Z"/>
  </mask>
  <g mask="">
    <path fill="currentColor" d="M67.0892 22.0195H38.0744V34.915H67.0892V22.0195Z"/>
    <path fill="currentColor" fill-rule="evenodd" clip-rule="evenodd" d="M9.05943 28.4667C9.05943 28.4667 12.2833 22.019 13.8953 20.407C14.0168 20.2855 14.2026 20.1822 14.4422 20.0953C15.9182 19.3276 20.3133 17.4996 26.7908 18.7951C27.3292 19.3335 27.6877 19.8719 27.9265 20.3503C28.2317 20.3856 28.4027 20.407 28.4027 20.407L30.0145 22.0189L34.8503 22.019V34.9144C34.8503 36.6949 36.2937 38.1383 38.0742 38.1383H67.089C67.2173 38.1383 67.3438 38.1308 67.4681 38.1163C62.0902 43.938 58.166 51.1225 56.272 59.0935H43.6714C41.9004 61.0722 39.3267 62.3174 36.4622 62.3174C33.6479 62.3174 31.114 61.1149 29.3465 59.1961C28.7276 59.3503 27.7592 59.7368 26.7908 60.7054C26.4172 61.0791 26.0436 62.5781 25.5295 64.6411C23.8255 71.4792 20.5781 84.5108 10.6714 83.2725C-0.612164 81.6606 0.999767 67.1532 0.999767 67.1532C2.6117 47.8099 7.44747 33.3025 9.05943 28.4667ZM93.5595 23.7558C92.7404 22.3527 91.8859 21.0248 91.268 20.407C91.1465 20.2855 90.9608 20.1822 90.7213 20.0953C89.2452 19.3276 84.8501 17.4996 78.3726 18.7951C77.8344 19.3335 77.4756 19.8719 77.2369 20.3503C76.9317 20.3857 76.7609 20.4071 76.7609 20.4071L75.149 22.019L70.3129 22.019V34.9144C70.3129 35.0482 70.3047 35.18 70.2889 35.3094C76.677 29.4668 84.6843 25.3652 93.5595 23.7558ZM35.8175 57.4815C39.3786 57.4815 42.2652 54.595 42.2652 51.0338C42.2652 47.4729 39.3786 44.5861 35.8175 44.5861C32.2566 44.5861 29.3699 47.4729 29.3699 51.0338C29.3699 54.595 32.2566 57.4815 35.8175 57.4815ZM18.552 28.4667C17.7606 28.4667 17.1191 29.1083 17.1191 29.8995V32.709C17.1191 33.089 17.2701 33.4535 17.5388 33.7223L19.3298 35.5134C19.8894 36.0727 20.7966 36.0727 21.3562 35.5134L23.1472 33.7223C23.4159 33.4535 23.5669 33.089 23.5669 32.709V29.8995C23.5669 29.1083 22.9254 28.4667 22.1341 28.4667H18.552ZM17.1191 44.7652C17.1191 45.5567 17.7606 46.198 18.552 46.198H22.1341C22.9254 46.198 23.5669 45.5567 23.5669 44.7652V41.9557C23.5669 41.5757 23.4159 41.2112 23.1472 40.9427L21.3562 39.1516C20.7966 38.592 19.8894 38.592 19.3298 39.1516L17.5388 40.9427C17.2701 41.2112 17.1191 41.5757 17.1191 41.9557V44.7652ZM11.4774 39.1235C11.4774 39.9147 12.1189 40.5564 12.9102 40.5564H15.7197C16.0997 40.5564 16.4641 40.4053 16.7328 40.1365L18.5239 38.3455C19.0834 37.7861 19.0834 36.8789 18.5239 36.3192L16.7328 34.5282C16.4641 34.2594 16.0997 34.1086 15.7197 34.1086H12.9102C12.1189 34.1086 11.4774 34.75 11.4774 35.5415V39.1235ZM27.7758 40.5564C28.5672 40.5564 29.2087 39.9147 29.2087 39.1235V35.5415C29.2087 34.75 28.5672 34.1086 27.7758 34.1086H24.9664C24.5863 34.1086 24.2219 34.2594 23.9532 34.5282L22.1621 36.3192C21.6026 36.8789 21.6026 37.7861 22.1621 38.3455L23.9532 40.1365C24.2219 40.4053 24.5863 40.5564 24.9664 40.5564H27.7758Z"/>
  </g>
</svg>
