<?xml version="1.0"?>
<svg xmlns="http://www.w3.org/2000/svg" viewBox="0 0 36 36" fill="none">
  <path d="M29.57 11.57L24.82 16.32C24.9485 16.8705 25.0089 17.4347 25 18C25 19.8565 24.2625 21.637 22.9497 22.9497C21.637 24.2625 19.8565 25 18 25C17.423 24.9983 16.8486 24.9244 16.29 24.78L12.73 28.34C15.6223 29.3235 18.732 29.4785 21.7078 28.7876C24.6836 28.0966 27.4069 26.5873 29.57 24.43L36 18L29.57 11.57Z" fill="currentColor"/>
  <path d="M28.94 2.94L23.94 7.94C20.9843 6.77797 17.7541 6.50244 14.6444 7.14712C11.5346 7.79181 8.68012 9.32876 6.43 11.57L0 18L6.43 24.43C6.6 24.6 6.79 24.75 6.97 24.91L3.44 28.44L5.56 30.56L31.06 5.06L28.94 2.94ZM11 18C11.0002 16.8706 11.2736 15.7581 11.7969 14.7573C12.3203 13.7565 13.078 12.8971 14.0054 12.2527C14.9328 11.6082 16.0024 11.1977 17.1229 11.0561C18.2434 10.9146 19.3815 11.0463 20.44 11.44L11.44 20.44C11.1493 19.6593 11.0003 18.833 11 18Z" fill="currentColor"/>
</svg>
