<?xml version="1.0"?>
<svg xmlns="http://www.w3.org/2000/svg" viewBox="0 0 500 200" fill="none">
  <rect fill="currentColor" x="410" y="77" width="20" height="15"/>
  <circle stroke="currentColor" fill="currentColor" cx="92" cy="62" r="1.5" stroke-width="3"/>
  <mask fill="currentColor" id="">
    <path d="M450.846 89C461.348 89.0002 470.255 96.7171 471.75 107.112L476.78 142.062C478.287 152.542 471.861 162.117 462.367 165.176L460.46 160.73C458.558 156.294 454.196 153.418 449.369 153.418H395.073C390.246 153.418 385.882 156.294 383.98 160.73L381.698 166.052C370.048 164.728 361.503 153.98 363.217 142.062L368.247 107.112C369.742 96.717 378.649 89.0001 389.151 89H450.846Z"/>
  </mask>
  <path fill="currentColor" d="M450.846 89L450.846 86H450.846V89ZM471.75 107.112L468.781 107.54L468.781 107.54L471.75 107.112ZM476.78 142.062L479.749 141.635L479.749 141.635L476.78 142.062ZM462.367 165.176L459.61 166.358L460.686 168.869L463.287 168.031L462.367 165.176ZM460.46 160.73L457.703 161.913L457.703 161.913L460.46 160.73ZM449.369 153.418L449.369 150.418H449.369V153.418ZM383.98 160.73L386.737 161.913L386.737 161.913L383.98 160.73ZM381.698 166.052L381.359 169.033L383.576 169.285L384.455 167.234L381.698 166.052ZM363.217 142.062L360.248 141.635L360.248 141.635L363.217 142.062ZM368.247 107.112L371.216 107.54L371.216 107.54L368.247 107.112ZM389.151 89V86H389.151L389.151 89ZM450.846 89L450.846 92C459.857 92.0001 467.498 98.6209 468.781 107.54L471.75 107.112L474.72 106.685C473.012 94.8133 462.84 86.0002 450.846 86L450.846 89ZM471.75 107.112L468.781 107.54L473.81 142.49L476.78 142.062L479.749 141.635L474.72 106.685L471.75 107.112ZM476.78 142.062L473.81 142.49C475.103 151.473 469.596 159.695 461.447 162.32L462.367 165.176L463.287 168.031C474.126 164.54 481.472 153.611 479.749 141.635L476.78 142.062ZM462.367 165.176L465.124 163.993L463.218 159.548L460.46 160.73L457.703 161.913L459.61 166.358L462.367 165.176ZM460.46 160.73L463.218 159.548C460.843 154.009 455.395 150.418 449.369 150.418L449.369 153.418L449.369 156.418C452.996 156.418 456.274 158.579 457.703 161.913L460.46 160.73ZM449.369 153.418V150.418H395.073V153.418V156.418H449.369V153.418ZM395.073 153.418V150.418C389.046 150.418 383.598 154.009 381.223 159.548L383.98 160.73L386.737 161.913C388.167 158.579 391.445 156.418 395.073 156.418V153.418ZM383.98 160.73L381.223 159.548L378.941 164.869L381.698 166.052L384.455 167.234L386.737 161.913L383.98 160.73ZM381.698 166.052L382.037 163.071C372.046 161.935 364.716 152.711 366.187 142.49L363.217 142.062L360.248 141.635C358.289 155.249 368.05 167.52 381.359 169.033L381.698 166.052ZM363.217 142.062L366.187 142.49L371.216 107.54L368.247 107.112L365.277 106.685L360.248 141.635L363.217 142.062ZM368.247 107.112L371.216 107.54C372.499 98.6208 380.14 92.0001 389.151 92L389.151 89L389.151 86C377.157 86.0001 366.985 94.8133 365.277 106.685L368.247 107.112ZM389.151 89V92H450.846V89V86H389.151V89Z" mask=""/>
  <circle stroke="currentColor" cx="419.721" cy="105.293" r="3.9309" stroke-width="3"/>
  <rect stroke="currentColor" x="34.5" y="50.5" width="68" height="113" stroke-width="3"/>
  <line stroke="currentColor" x1="43" y1="72.5" x2="95" y2="72.5" stroke-width="3"/>
  <line stroke="currentColor" x1="43" y1="81.5" x2="95" y2="81.5" stroke-width="3"/>
  <line stroke="currentColor" x1="43" y1="90.5" x2="95" y2="90.5" stroke-width="3"/>
  <path stroke="currentColor" d="M103 150H259.374C277.243 150 293.754 140.464 302.683 124.986L334.942 69.0699C343.178 54.7949 358.406 46 374.886 46H382C403.539 46 421 63.4609 421 85V85" stroke-width="3"/>
</svg>
