<?xml version="1.0"?>
<svg width="25" height="25" viewBox="0 0 25 25" fill="none" xmlns="http://www.w3.org/2000/svg">
  <path d="M9.02614 22.8275C7.78134 22.827 6.5646 22.4577 5.52951 21.7662C4.49441 21.0747 3.68736 20.0921 3.21021 18.9424C2.73306 17.7927 2.60721 16.5274 2.84853 15.3062C3.08985 14.085 3.68754 12.9627 4.56614 12.0809L6.73281 9.92754L8.61948 11.8142L6.45948 13.9675C5.77875 14.6483 5.39633 15.5715 5.39633 16.5342C5.39633 17.0109 5.49022 17.4829 5.67263 17.9233C5.85505 18.3637 6.12242 18.7638 6.45948 19.1009C6.79654 19.4379 7.19668 19.7053 7.63707 19.8877C8.07746 20.0701 8.54947 20.164 9.02614 20.164C9.98883 20.164 10.9121 19.7816 11.5928 19.1009L13.7528 16.9409L15.6328 18.8275L13.4795 20.9942C12.8945 21.5781 12.2 22.0406 11.4357 22.3552C10.6715 22.6699 9.85261 22.8304 9.02614 22.8275V22.8275ZM20.5661 13.9075C21.7481 12.7256 22.4122 11.1224 22.4122 9.45087C22.4122 7.7793 21.7481 6.17619 20.5661 4.99421C19.3842 3.81222 17.7811 3.14819 16.1095 3.14819C14.4379 3.14819 12.8348 3.81222 11.6528 4.99421L9.49948 7.16087L11.3861 9.04754L13.5395 6.88754C14.2202 6.20682 15.1435 5.82439 16.1061 5.82439C16.5828 5.82439 17.0548 5.91828 17.4952 6.10069C17.9356 6.28311 18.3357 6.55048 18.6728 6.88754C19.0099 7.2246 19.2772 7.62475 19.4597 8.06514C19.6421 8.50552 19.736 8.97753 19.736 9.4542C19.736 9.93088 19.6421 10.4029 19.4597 10.8433C19.2772 11.2837 19.0099 11.6838 18.6728 12.0209L16.5128 14.1742L18.3995 16.0609L20.5661 13.9075ZM16.4061 11.0475L14.5195 9.16087L8.51948 15.1609L10.4061 17.0475L16.4061 11.0475Z" fill="currentColor"/>
</svg>
