<?xml version="1.0"?>
<svg x="0px" y="0px" width="100px" height="120px" viewBox="0 0 240 276" fill="none" xmlns="http://www.w3.org/2000/svg">
  <path fill-rule="evenodd" clip-rule="evenodd" d="M107.636 23.0644L120.478 8.96963L133.319 23.0644C137.003 27.1077 142.704 28.6353 147.916 26.9756L166.085 21.19L170.159 39.8174C171.327 45.1608 175.501 49.3343 180.844 50.5029L199.472 54.5768L193.686 72.7455C192.026 77.9573 193.554 83.6585 197.597 87.3422L211.692 100.184L197.597 113.026C193.554 116.709 192.026 122.411 193.686 127.622L199.472 145.791L180.844 149.865C175.501 151.034 171.327 155.207 170.159 160.551L166.085 179.178L147.916 173.392C142.704 171.733 137.003 173.26 133.319 177.303L120.478 191.398L107.636 177.303C103.952 173.26 98.251 171.733 93.0392 173.392L74.8705 179.178L70.7966 160.551C69.628 155.207 65.4545 151.034 60.1111 149.865L41.4837 145.791L47.2693 127.622C48.929 122.411 47.4014 116.709 43.3581 113.026L29.2633 100.184L43.3581 87.3422C47.4014 83.6584 48.929 77.9573 47.2693 72.7455L41.4837 54.5768L60.1111 50.5029C65.4545 49.3343 69.628 45.1608 70.7966 39.8174L74.8705 21.19L93.0391 26.9756C98.251 28.6353 103.952 27.1077 107.636 23.0644ZM116.042 1.95909C118.422 -0.653032 122.533 -0.653031 124.913 1.9591L139.233 17.6766C140.812 19.4094 143.255 20.0641 145.489 19.3528L165.749 12.9011C169.116 11.8289 172.676 13.8842 173.431 17.3363L177.974 38.1081C178.475 40.3982 180.263 42.1868 182.553 42.6877L203.325 47.2305C206.777 47.9855 208.833 51.5454 207.76 54.9125L201.309 75.1729C200.598 77.4065 201.252 79.8499 202.985 81.4286L218.703 95.7488C221.315 98.1287 221.315 102.239 218.703 104.619L202.985 118.939C201.252 120.518 200.598 122.961 201.309 125.195L207.76 145.455C208.833 148.823 206.777 152.382 203.325 153.137L190.801 155.876L239.847 236.34C242.331 240.415 239.521 245.659 234.753 245.849L206.74 246.963C204.683 247.045 202.798 248.133 201.698 249.874L186.727 273.576C184.178 277.611 178.232 277.422 175.945 273.234L131.275 191.426L124.913 198.409C122.533 201.021 118.422 201.021 116.042 198.409L109.564 191.298L64.8244 273.234C62.5373 277.422 56.5913 277.611 54.0427 273.576L39.0711 249.874C37.9718 248.133 36.0867 247.045 34.0298 246.963L6.01687 245.849C1.24829 245.659 -1.56099 240.415 0.922882 236.34L49.9904 155.841L37.63 153.137C34.1779 152.382 32.1226 148.823 33.1948 145.455L39.6465 125.195C40.3578 122.961 39.7031 120.518 37.9703 118.939L22.2528 104.619C19.6407 102.239 19.6407 98.1286 22.2528 95.7487L37.9703 81.4286C39.7031 79.8499 40.3578 77.4065 39.6465 75.1729L33.1948 54.9125C32.1226 51.5454 34.1779 47.9855 37.63 47.2305L58.4018 42.6877C60.6919 42.1868 62.4805 40.3982 62.9814 38.1081L67.5242 17.3363C68.2792 13.8842 71.8391 11.8289 75.2062 12.9011L95.4666 19.3528C97.7002 20.0641 100.144 19.4094 101.722 17.6766L116.042 1.95909ZM58.2574 157.649L9.29666 237.973L34.3478 238.969C39.0346 239.156 43.3299 241.636 45.8348 245.601L59.2235 266.798L103.865 185.043L101.722 182.691C100.144 180.959 97.7002 180.304 95.4666 181.015L75.2062 187.467C71.8391 188.539 68.2792 186.484 67.5242 183.032L62.9814 162.26C62.4805 159.97 60.6919 158.181 58.4018 157.68L58.2574 157.649ZM136.974 185.17L181.546 266.798L194.935 245.601C197.44 241.636 201.735 239.156 206.422 238.969L231.473 237.973L182.534 157.684C180.253 158.191 178.473 159.976 177.974 162.26L173.431 183.032C172.676 186.484 169.116 188.539 165.749 187.467L145.489 181.015C143.255 180.304 140.812 180.959 139.233 182.691L136.974 185.17ZM146.738 53.2766C121.119 38.4858 88.3612 47.2633 73.5704 72.8818C62.3219 92.3648 64.7011 115.986 77.7705 132.691C79.1317 134.431 78.8247 136.945 77.0848 138.307C75.3449 139.668 72.8309 139.361 71.4697 137.621C56.4587 118.434 53.7068 91.2865 66.6422 68.8818C83.6422 39.437 121.293 29.3484 150.738 46.3484C152.651 47.453 153.307 49.8993 152.202 51.8125C151.097 53.7257 148.651 54.3812 146.738 53.2766ZM167.979 60.9959C166.588 59.2794 164.069 59.0153 162.353 60.406C160.636 61.7967 160.372 64.3156 161.763 66.032C175.326 82.7723 177.936 106.79 166.527 126.551C151.737 152.169 118.978 160.947 93.3599 146.156C91.4467 145.051 89.0003 145.707 87.8957 147.62C86.7912 149.533 87.4467 151.98 89.3599 153.084C118.805 170.084 156.456 159.996 173.456 130.551C186.575 107.827 183.558 80.2246 167.979 60.9959Z" fill="#E5E5E5"/>
</svg>
