<?xml version="1.0"?>
<svg xmlns="http://www.w3.org/2000/svg" viewBox="0 0 36 36" fill="none">
  <path fill="currentColor" d="M18 0C14.4399 0 10.9598 1.05568 7.99974 3.03355C5.03966 5.01141 2.73255 7.82263 1.37018 11.1117C0.00779915 14.4008 -0.348661 18.02 0.345873 21.5116C1.04041 25.0033 2.75474 28.2106 5.27209 30.7279C7.78943 33.2453 10.9967 34.9596 14.4884 35.6541C17.98 36.3487 21.5992 35.9922 24.8883 34.6298C28.1774 33.2674 30.9886 30.9603 32.9665 28.0003C34.9443 25.0402 36 21.5601 36 18C36 15.6362 35.5344 13.2956 34.6298 11.1117C33.7252 8.92784 32.3994 6.94353 30.7279 5.27208C29.0565 3.60062 27.0722 2.27475 24.8883 1.37017C22.7044 0.465584 20.3638 0 18 0V0ZM4.80001 18C4.80202 15.3299 5.61374 12.7232 7.12801 10.524L25.476 28.872C23.4944 30.2338 21.1785 31.0284 18.7783 31.1702C16.3781 31.3119 13.9847 30.7954 11.8566 29.6764C9.7285 28.5574 7.94645 26.8784 6.70282 24.8206C5.4592 22.7628 4.80126 20.4044 4.80001 18V18ZM28.872 25.476L10.524 7.128C13.065 5.3893 16.1338 4.59355 19.1995 4.87843C22.2652 5.1633 25.1349 6.51088 27.312 8.68799C29.4891 10.8651 30.8367 13.7348 31.1216 16.8005C31.4064 19.8662 30.6107 22.935 28.872 25.476V25.476Z"/>
</svg>
