<?xml version="1.0"?>
<svg xmlns="http://www.w3.org/2000/svg" viewBox="0 0 36 36" fill="none">
  <path d="M36 24.2C36 27.68 31 30 31 30L25 24H17.36L26.55 14.81C27.0058 14.9963 27.5066 15.0439 27.9893 14.9467C28.4721 14.8494 28.9154 14.6118 29.2636 14.2636C29.6118 13.9154 29.8494 13.4721 29.9466 12.9893C30.0438 12.5066 29.9963 12.0059 29.81 11.55L32.76 8.55002C33.39 10.79 36 20.12 36 24.2ZM33.56 3.56002L2.56 34.56L0.44 32.44L3.65 29.23C2.17 28.28 0 26.49 0 24.2C0 19.56 3.38 8.14002 3.38 8.14002C3.38 8.14002 7.5 4.00002 18 4.00002C21.2151 3.94797 24.4172 4.42085 27.48 5.40002L31.48 1.40002L33.56 3.56002ZM6 16H9V19H12V16H15V13H12V10H9V13H6V16Z" fill="currentColor"/>
</svg>
