<?xml version="1.0"?>
<svg xmlns="http://www.w3.org/2000/svg" viewBox="0 0 1000 656" fill="none">
  <path onClick="" stroke="currentColor" d="M850.896 154.361L850.703 154.264M855.381 172.052L855.038 159.662V159.566V159.614M855.381 172.052L855.23 159.662L855.182 159.566M855.381 172.052C826.18 153.099 791.814 142.297 755.539 142.457L661.096 142.457L661.193 134.891V134.602L661.241 134.505V134.264L661.289 134.168V133.927L661.337 133.831L661.385 133.686V133.59L661.482 133.397L661.53 133.252V133.156L661.626 132.963L661.674 132.819L661.722 132.722L661.819 132.626L662.011 132.24L662.108 132.144L662.156 132.048L662.252 131.951L662.3 131.855L662.397 131.807L662.445 131.71L662.541 131.614L662.589 131.517L662.686 131.469L662.926 131.228L663.023 131.18L663.167 131.036L663.263 130.987L663.36 130.891L663.745 130.698L663.841 130.602L664.13 130.457H664.227L664.371 130.409L664.66 130.264H664.805L664.997 130.168H665.142L665.238 130.12H665.334L665.575 130.072H665.816L666.587 129.975H667.405L669.813 129.879L673.088 129.831L676.989 129.783H755.539C782.653 129.734 810.104 135.421 834.955 146.264M851.04 154.361L850.848 154.264M834.955 146.264L838.085 147.662L841.168 149.156L844.202 150.65L847.236 152.24M834.955 146.264C841.216 149.204 848.103 152.144 853.737 156.192V156.289L853.882 156.337C854.604 157.252 855.23 158.361 855.182 159.566M855.182 159.566L855.182 159.614" stroke-width="4" stroke-linejoin="bevel"/>
  <path onClick="" stroke="currentColor" d="M159.266 154.361L159.458 154.264M155.124 159.662L155.124 171.954C184.314 153.032 218.587 142.297 254.816 142.457L349.21 142.457L349.114 134.891L349.114 134.361L349.065 134.264V134.023L349.017 133.927V133.831L348.969 133.686L348.921 133.59V133.493L348.873 133.397L348.825 133.252L348.68 132.963L348.632 132.819L348.439 132.433L348.343 132.337L348.247 132.144L348.15 132.047L348.102 131.951L347.861 131.71L347.813 131.614L347.573 131.373L347.476 131.325L347.428 131.228L347.332 131.18L347.235 131.084L347.043 130.987L346.898 130.843L346.609 130.698L346.513 130.602L346.32 130.505L346.176 130.457L346.08 130.409H345.983L345.887 130.361L345.742 130.313L345.646 130.264H345.55L345.357 130.168H345.164L345.068 130.12H344.924L344.779 130.072H344.538L343.72 129.975H342.949L340.541 129.879L337.266 129.831L333.317 129.782L254.816 129.782C227.653 129.686 200.25 135.469 175.351 146.264M155.124 159.614V159.566M155.124 159.566V159.469M155.124 159.566V159.421L155.172 159.276V158.987L155.22 158.843V158.698L155.365 158.264V158.168L155.557 157.782V157.686L155.75 157.3L155.846 157.204L155.991 156.915L156.135 156.77L156.184 156.674L156.328 156.529L156.376 156.433L156.617 156.192L156.713 156.144L156.761 156.047L156.858 155.951L156.954 155.903L157.05 155.807L157.147 155.758L157.339 155.614L158.014 155.132L158.688 154.746L160.855 153.445L163.504 151.999L166.249 150.554L168.946 149.204L173.955 146.891L175.351 146.264M175.351 146.264C171.643 147.903 166.634 150.264 163.119 152.24" stroke-width="4" stroke-linejoin="bevel"/>
  <path stroke="currentColor" d="M328.549 501.301L328.405 501.205L328.309 501.157L328.164 501.108L328.068 501.06L327.779 500.964L327.682 500.916L327.249 500.771H327.153L327.008 500.723H326.864L326.719 500.675H326.286L326.141 500.626H326.045L325.901 500.675H325.467L325.323 500.723H325.178L325.034 500.771L324.937 500.819H324.793L324.648 500.867L324.552 500.916L324.263 501.012C320.41 502.602 312.608 505.639 308.707 507.084C262.762 524.385 209.786 518.217 167.116 494.747C110.431 464.241 70.4103 403.181 69.0618 338.313C68.6284 322.94 70.4103 306.94 73.2517 291.855C89.9634 206.024 167.405 142.072 254.816 142.458L755.538 142.458C842.997 142.072 920.391 206.072 937.103 291.855C939.944 306.94 941.678 322.94 941.293 338.313C939.896 403.181 899.923 464.193 843.238 494.747C800.52 518.217 747.592 524.385 701.599 507.084C697.602 505.687 689.655 502.651 685.754 501.012L685.61 500.964L685.513 500.916L685.224 500.819H685.128L684.839 500.723H684.695L684.55 500.675H684.165L684.02 500.626H683.731L683.587 500.675H683.298L683.154 500.723H683.057L682.913 500.771H682.768L682.479 500.867L682.383 500.916H682.238L682.094 501.012L681.998 501.06L681.853 501.108L681.757 501.157L681.612 501.205L681.516 501.301M450.395 470.651H449.721L449.576 470.699H449.383L449.239 470.747L449.046 470.795L448.613 470.94L448.42 470.988L448.276 471.084L448.131 471.133L447.698 471.422L447.553 471.47L447.313 471.711L447.024 471.904L446.927 472.048L446.783 472.145L446.687 472.289L446.59 472.385L446.301 472.819C422.606 509.157 373.916 522.892 334.762 504.241M559.96 470.651H560.586L560.778 470.699H560.923L561.115 470.747L561.404 470.843L561.597 470.892L561.886 470.988L562.03 471.084L562.223 471.133L562.656 471.422L562.753 471.47L562.897 471.614L563.186 471.807L563.523 472.145L563.62 472.289L563.764 472.385L564.053 472.819C587.652 509.157 636.438 522.892 675.544 504.241M623.387 511.373C643.421 514.795 664.612 510.94 682.19 500.771M328.164 500.771L330.428 502.072L332.787 503.277L335.147 504.386L337.555 505.446L339.578 506.313L343.72 507.855L345.839 508.53L347.958 509.157L350.077 509.735L352.244 510.265L354.363 510.747L356.53 511.181L358.746 511.566L360.913 511.855L365.344 512.337L367.511 512.482L369.726 512.578H373.82L375.698 512.53L379.455 512.337L383.211 511.952L385.09 511.663L386.92 511.373M450.395 470.602H559.96" stroke-width="8" stroke-linejoin="bevel"/>
  <path onClick="" stroke="currentColor" d="M275.38 262.891H313.186C316.461 262.891 319.11 265.542 319.11 268.819V303.18C319.11 306.458 316.461 309.108 313.186 309.108H275.38C273.837 309.108 272.441 309.799 271.5 310.898L259.274 298.569C262.553 295.396 264.592 290.948 264.592 286.024C264.592 281.087 262.543 276.629 259.249 273.455L271.5 261.102C272.441 262.2 273.837 262.891 275.38 262.891Z" stroke-width="4" stroke-linejoin="bevel"/>
  <path onClick="" stroke="currentColor" d="M181.179 262.891H218.984C220.339 262.891 221.581 262.358 222.5 261.485L234.716 273.804C231.628 276.951 229.724 281.265 229.724 286.024C229.724 290.77 231.618 295.074 234.692 298.219L222.5 310.514C221.588 309.645 220.353 309.108 218.984 309.108H181.179C177.904 309.108 175.255 306.458 175.255 303.18V268.819C175.255 265.542 177.904 262.891 181.179 262.891Z" stroke-width="4" stroke-linejoin="bevel"/>
  <path onClick="" stroke="currentColor" d="M224.089 352.047V314.216C224.089 312.767 223.481 311.448 222.5 310.513L234.692 298.219C237.857 301.458 242.273 303.469 247.158 303.469C251.865 303.469 256.137 301.602 259.274 298.568L271.5 310.897C270.738 311.787 270.275 312.943 270.275 314.216V352.047C270.275 355.324 267.626 357.975 264.351 357.975H230.013C226.738 357.975 224.089 355.324 224.089 352.047Z" stroke-width="4" stroke-linejoin="bevel"/>
  <path onClick="" stroke="currentColor" d="M270.275 219.951V257.782C270.275 259.055 270.738 260.212 271.5 261.101L259.249 273.455C256.115 270.435 251.853 268.578 247.158 268.578C242.285 268.578 237.879 270.578 234.716 273.803L222.5 261.485C223.476 260.558 224.089 259.247 224.089 257.782V219.951C224.089 216.674 226.738 214.023 230.013 214.023H264.351C267.626 214.023 270.275 216.674 270.275 219.951Z" stroke-width="4" stroke-linejoin="bevel"/>
  <path stroke="currentColor" d="M247.159 303.47C256.787 303.47 264.593 295.659 264.593 286.024C264.593 276.389 256.787 268.579 247.159 268.579C237.53 268.579 229.725 276.389 229.725 286.024C229.725 295.659 237.53 303.47 247.159 303.47Z" stroke-width="4" stroke-linejoin="bevel"/>
  <path stroke="currentColor" d="M313.186 262.892H275.381C272.587 262.892 270.276 260.627 270.276 257.783V219.952C270.276 216.675 267.627 214.024 264.352 214.024H230.014C226.739 214.024 224.09 216.675 224.09 219.952V257.783C224.09 260.627 221.778 262.892 218.985 262.892H181.179C177.904 262.892 175.255 265.542 175.255 268.82V303.181C175.255 306.458 177.904 309.109 181.179 309.109H218.985C221.826 309.109 224.09 311.422 224.09 314.217V352.049C224.09 355.326 226.739 357.976 230.014 357.976H264.352C267.627 357.976 270.276 355.326 270.276 352.049V314.217C270.276 311.374 272.587 309.109 275.381 309.109H313.186C316.461 309.109 319.11 306.458 319.11 303.181V268.82C319.11 265.542 316.461 262.892 313.186 262.892Z" stroke-width="4" stroke-linejoin="bevel"/>
  <path stroke="currentColor" opacity="0.5" d="M564.101 472.915L564.053 472.819L564.101 472.867L563.812 472.434L563.716 472.337L563.62 472.193L563.283 471.855L563.138 471.759L563.042 471.614L562.608 471.325L562.464 471.277L562.175 471.084L562.03 471.036L561.886 470.94L561.597 470.843L561.404 470.795L561.115 470.699L560.923 470.65H560.778L560.634 470.602H559.96V470.65L559.815 470.65M564.101 472.915L564.631 473.687M564.101 472.915L564.053 472.915M686.043 501.012L686.091 501.108V501.735M559.622 470.65V470.602H559.671M563.812 472.867V472.819L563.861 472.771V472.723H563.909V472.626L563.957 472.578V472.482L564.005 472.433L564.053 472.241V472.096L564.101 471.903L564.246 471.18L564.294 470.891V470.506L564.342 470.12V469.735L564.39 469.397V468.626L564.342 468.241V467.855L564.294 467.325L564.246 466.843L564.149 465.783L564.053 465.301L563.957 464.771L563.861 464.289L563.764 463.759L563.331 462.024L562.753 460.289L562.56 459.759L562.319 459.18L561.982 458.361L561.597 456.819C557.84 446.265 556.348 434.699 557.166 423.518C560.008 381.927 596.513 347.132 638.461 348.048C679.83 348 715.421 382.506 718.166 423.518C720.285 448.193 710.364 473.542 691.822 490.024L690.426 491.277L689.077 492.578L687.777 493.927L686.525 495.325L685.754 496.241L684.984 497.108L683.731 498.699L682.672 499.952L682.479 500.193L682.046 500.626L681.95 500.674L681.901 500.771" stroke-width="4" stroke-linejoin="bevel"/>
  <path stroke="currentColor" opacity="0.5" d="M324.263 501.012H324.311V500.964H324.263V500.867H324.215V500.819H324.167V500.771L324.119 500.723H324.071L323.974 500.626M450.395 470.65V470.602M448.469 456.819L448.228 457.59L448.035 458.361M448.469 456.819L448.035 458.361M448.469 456.819C452.129 446.217 453.766 434.699 452.851 423.518C450.106 382.458 414.516 348 373.146 348.048C331.198 347.132 294.645 381.927 291.851 423.518C289.78 448.193 299.653 473.59 318.243 490.024L319.592 491.277L320.94 492.578L322.24 493.927L323.493 495.325L324.311 496.241L325.034 497.108L326.334 498.699L327.345 499.952L327.586 500.193L327.779 500.434L328.068 500.723L328.164 500.771L328.26 500.867L328.309 500.964H328.357L328.405 501.012V501.06L328.453 501.108H328.501V501.205L328.549 501.253V501.301M448.035 458.361L447.698 459.18L447.505 459.759L447.264 460.289L446.879 461.446L446.59 462.602L446.398 463.18L446.301 463.759L446.157 464.289L446.06 464.771L445.964 465.301L445.916 465.783L445.82 466.313L445.771 466.843L445.723 467.325L445.675 467.855V470.12L445.771 470.891L445.82 471.18V471.421L445.916 471.903L445.964 472.096L446.012 472.241L446.06 472.433V472.482L446.109 472.578V472.674L446.205 472.771V472.867" stroke-width="4" stroke-linejoin="bevel"/>
  <path stroke="currentColor" d="M246.773 420.819C257.32 420.819 265.893 429.398 265.893 439.952C265.893 450.506 257.32 459.084 246.773 459.084C236.226 459.084 227.654 450.506 227.654 439.952C227.654 429.398 236.226 420.819 246.773 420.819Z" stroke-width="4" stroke-miterlimit="22.93"/>
  <path fill="currentColor" d="M262.792 435.265V435.478C262.792 435.478 262.721 435.62 262.721 435.691C262.721 435.762 262.65 435.833 262.65 435.904L262.508 436.047C261.797 436.686 261.085 437.397 260.303 438.108C259.592 438.748 258.881 439.459 258.17 440.099C257.459 440.81 256.748 441.45 255.965 442.161C255.894 442.232 255.894 442.303 255.823 442.374C255.752 442.445 255.752 442.516 255.681 442.587C255.681 442.658 255.61 442.729 255.61 442.801V443.227C255.752 444.222 255.965 445.218 256.179 446.213C256.321 447.208 256.534 448.275 256.748 449.27C256.89 450.265 257.103 451.261 257.316 452.327C257.316 452.327 257.245 452.54 257.174 452.612C257.174 452.683 257.103 452.754 257.032 452.825C257.032 452.896 256.961 452.967 256.89 452.967L256.748 453.109C256.748 453.109 256.605 453.18 256.534 453.18H256.179C256.179 453.18 256.036 453.109 255.965 453.109C255.965 453.109 255.894 453.038 255.823 453.038C255.254 452.683 254.756 452.398 254.187 452.185C253.69 451.901 253.192 451.616 252.765 451.332C252.267 451.119 251.841 450.905 251.414 450.621C250.987 450.408 250.561 450.194 250.205 449.981C249.778 449.768 249.423 449.554 249.067 449.341C248.641 449.128 248.356 448.986 248.001 448.772C247.929 448.772 247.858 448.701 247.787 448.701C247.716 448.63 247.645 448.63 247.574 448.63H247.218C247.218 448.63 247.076 448.63 247.005 448.701C246.934 448.701 246.863 448.772 246.792 448.772C246.792 448.772 246.744 448.796 246.649 448.844C246.08 449.128 245.583 449.412 244.943 449.768C244.303 450.123 243.663 450.479 242.951 450.834C242.311 451.19 241.743 451.474 241.103 451.83C240.463 452.185 239.68 452.612 238.969 453.038C238.898 453.038 238.756 453.109 238.685 453.109C238.614 453.109 238.542 453.18 238.471 453.18H238.258C238.258 453.18 238.116 453.109 238.045 453.109C237.974 453.109 237.902 453.038 237.831 453.038C237.831 452.967 237.76 452.967 237.689 452.896C237.689 452.896 237.618 452.825 237.618 452.754C237.547 452.754 237.547 452.683 237.476 452.612V452.327C237.547 451.83 237.689 451.332 237.76 450.834C237.831 450.337 237.902 449.839 238.045 449.341C238.116 448.844 238.187 448.346 238.329 447.777C238.329 447.279 238.471 446.782 238.614 446.284C238.614 445.786 238.756 445.289 238.898 444.791C238.969 444.222 239.04 443.725 239.182 443.227V442.801C239.182 442.801 239.111 442.658 239.04 442.587C239.04 442.516 238.969 442.445 238.969 442.374C238.898 442.303 238.827 442.232 238.756 442.161C238.045 441.45 237.333 440.81 236.622 440.099C235.911 439.459 235.129 438.748 234.418 438.108C233.707 437.397 232.996 436.686 232.284 436.047C232.213 435.975 232.142 435.975 232.142 435.904C232.142 435.833 232.071 435.762 232.071 435.762C232 435.691 232 435.62 232 435.549V435.122C232 435.122 232.071 434.98 232.142 434.909C232.142 434.838 232.213 434.767 232.284 434.696C232.356 434.625 232.427 434.625 232.427 434.554C232.498 434.554 232.569 434.482 232.64 434.482C232.711 434.411 232.782 434.411 232.853 434.411C233.351 434.34 233.849 434.269 234.347 434.198C234.845 434.127 235.342 434.127 235.769 434.056C236.267 433.985 236.765 433.914 237.262 433.843C237.76 433.772 238.258 433.7 238.756 433.629C239.254 433.558 239.751 433.558 240.249 433.487C240.747 433.416 241.245 433.345 241.743 433.274C241.814 433.274 241.885 433.203 241.956 433.203C242.027 433.203 242.098 433.132 242.169 433.132C242.169 433.061 242.311 432.989 242.383 432.989C242.383 432.989 242.454 432.847 242.525 432.776C242.596 432.705 242.596 432.634 242.667 432.563C243.094 431.639 243.52 430.714 243.947 429.861C244.374 428.937 244.8 428.084 245.227 427.16C245.654 426.307 246.08 425.382 246.507 424.529H246.578C246.578 424.529 246.649 424.316 246.721 424.316C246.792 424.245 246.792 424.174 246.863 424.174C246.934 424.103 247.005 424.103 247.076 424.032H247.289C247.289 424.032 247.432 423.961 247.503 424.032H247.716C247.716 424.032 247.858 424.032 247.929 424.174C248.001 424.174 248.072 424.245 248.072 424.316C248.143 424.316 248.214 424.387 248.214 424.458C248.285 424.458 248.285 424.6 248.285 424.6H248.356C248.783 425.596 249.067 426.307 249.494 427.231C249.992 428.084 250.418 429.008 250.845 429.861C251.272 430.786 251.698 431.639 252.125 432.563C252.125 432.634 252.196 432.705 252.267 432.776C252.267 432.847 252.338 432.918 252.41 432.989C252.481 432.989 252.552 433.061 252.623 433.132C252.694 433.132 252.765 433.203 252.836 433.203C252.907 433.203 252.979 433.274 253.05 433.274C254.045 433.416 255.041 433.487 255.965 433.629C256.961 433.772 257.956 433.914 258.952 434.056C259.948 434.127 260.872 434.269 261.868 434.411C261.939 434.411 262.01 434.411 262.081 434.482C262.152 434.482 262.223 434.554 262.294 434.554C262.365 434.625 262.437 434.625 262.508 434.696C262.508 434.696 262.579 434.838 262.65 434.909C262.65 434.909 262.721 434.98 262.721 435.051C262.721 435.122 262.792 435.193 262.792 435.265Z"/>
  <path stroke="currentColor" opacity="0.5" d="M763.099 465.976C777.516 465.976 789.202 454.282 789.202 439.856C789.202 425.43 777.516 413.735 763.099 413.735C748.683 413.735 736.997 425.43 736.997 439.856C736.997 454.282 748.683 465.976 763.099 465.976Z" stroke-width="4" stroke-linejoin="bevel"/>
  <path stroke="currentColor" d="M762.666 459.373C773.412 459.373 782.123 450.656 782.123 439.903C782.123 429.151 773.412 420.434 762.666 420.434C751.921 420.434 743.209 429.151 743.209 439.903C743.209 450.656 751.921 459.373 762.666 459.373Z" stroke-width="4" stroke-linejoin="bevel"/>
  <path stroke="currentColor" fill="currentColor" d="M765.296 446.476V450.681H761.095V446.476H765.296ZM770.498 441.271V445.476H766.248V441.271H770.498ZM760.047 441.271V445.476H755.894V441.271H760.047ZM775.699 436.066V440.271H771.449V436.066H775.699ZM765.248 436.066V440.271H761.047V436.066H765.248ZM754.846 436.066V440.271H750.693V436.066H754.846ZM770.498 430.861V435.066H766.296V430.861H770.498ZM760.095 430.861V435.066H755.894V430.861H760.095Z"/>
  <path onClick="" stroke="currentColor" d="M551.82 270.555H505.972C499.269 270.555 493.835 275.981 493.835 282.675C493.835 289.369 499.269 294.796 505.972 294.796H551.82C558.523 294.796 563.957 289.369 563.957 282.675C563.957 275.981 558.523 270.555 551.82 270.555Z" stroke-width="4" stroke-linejoin="bevel"/>
  <path onClick="" stroke="currentColor" d="M464.651 270.555H418.802C412.099 270.555 406.666 275.981 406.666 282.675C406.666 289.369 412.099 294.796 418.802 294.796H464.651C471.353 294.796 476.787 289.369 476.787 282.675C476.787 275.981 471.353 270.555 464.651 270.555Z" stroke-width="4" stroke-linejoin="bevel"/>
  <path stroke="currentColor" opacity="0.5" d="M552.832 248.964H418.417C400.383 248.964 385.764 263.593 385.764 281.639V283.47C385.764 301.516 400.383 316.145 418.417 316.145H552.832C570.865 316.145 585.485 301.516 585.485 283.47V281.639C585.485 263.593 570.865 248.964 552.832 248.964Z" stroke-width="4" stroke-linejoin="bevel"/>
  <path onClick="" stroke="currentColor" d="M688.596 314.988C704.581 314.988 717.54 302.021 717.54 286.024C717.54 270.028 704.581 257.061 688.596 257.061C672.61 257.061 659.651 270.028 659.651 286.024C659.651 302.021 672.61 314.988 688.596 314.988Z" stroke-width="4" stroke-linejoin="bevel"/>
  <path stroke="currentColor" fill="currentColor" d="M686.929 289.538L686.89 289.445L681.062 275.566L681.056 275.551L681.048 275.536L680.979 275.377C680.928 275.242 680.912 275.136 680.909 275.058C680.917 275.057 680.927 275.055 680.938 275.055H684.695C684.756 275.055 684.78 275.069 684.787 275.074C684.792 275.077 684.818 275.097 684.84 275.174L684.846 275.194L684.854 275.215L688.032 283.552L688.041 283.575L688.052 283.598L688.053 283.599L688.063 283.618C688.069 283.629 688.076 283.644 688.086 283.662C688.105 283.696 688.133 283.745 688.167 283.796C688.199 283.843 688.247 283.911 688.308 283.972C688.338 284.002 688.385 284.043 688.445 284.079C688.502 284.114 688.605 284.163 688.74 284.163C689.006 284.163 689.173 284.008 689.261 283.891C689.331 283.798 689.389 283.676 689.428 283.598L689.44 283.575L689.448 283.552L692.627 275.215L692.634 275.194L692.64 275.174C692.662 275.096 692.689 275.077 692.694 275.074C692.701 275.069 692.725 275.055 692.785 275.055H696.542C696.553 275.055 696.562 275.055 696.571 275.056C696.57 275.143 696.57 275.202 696.558 275.264C696.552 275.293 696.542 275.326 696.528 275.362L696.463 275.482L696.437 275.522L696.418 275.566L690.591 289.445L690.552 289.538V297.3L690.551 297.312C690.55 297.329 690.547 297.352 690.541 297.374C690.538 297.386 690.534 297.395 690.531 297.401C690.459 297.454 690.436 297.469 690.426 297.473C690.424 297.473 690.424 297.473 690.422 297.474C690.418 297.474 690.405 297.477 690.377 297.477H687.108C687.105 297.476 687.1 297.476 687.092 297.476C687.075 297.474 687.053 297.471 687.031 297.466C687.017 297.463 687.007 297.459 687 297.456V297.455L686.975 297.43L686.938 297.381C686.936 297.375 686.929 297.356 686.929 297.302V289.538Z"/>
  <path onClick="" stroke="currentColor" d="M763.051 250.844C779.037 250.844 791.996 237.876 791.996 221.88C791.996 205.884 779.037 192.916 763.051 192.916C747.066 192.916 734.107 205.884 734.107 221.88C734.107 237.876 747.066 250.844 763.051 250.844Z" stroke-width="4" stroke-linejoin="bevel"/>
  <path stroke="currentColor" fill="currentColor" d="M755.635 210.669H759.392C759.396 210.669 759.403 210.669 759.412 210.67C759.43 210.671 759.454 210.672 759.477 210.676C759.478 210.676 759.48 210.676 759.481 210.676L759.511 210.691C759.513 210.693 759.515 210.696 759.517 210.698C759.54 210.73 759.571 210.782 759.609 210.856L762.395 217.73L762.403 217.748L762.412 217.766L762.859 217.542L762.412 217.767L762.413 217.768L762.414 217.77C762.414 217.771 762.415 217.773 762.416 217.774C762.417 217.778 762.42 217.782 762.422 217.787C762.428 217.797 762.435 217.809 762.444 217.824C762.461 217.853 762.486 217.894 762.519 217.938C762.55 217.98 762.6 218.041 762.668 218.096C762.73 218.145 762.863 218.235 763.051 218.235C763.196 218.235 763.373 218.194 763.52 218.047C763.624 217.943 763.675 217.817 763.706 217.729L763.708 217.73L766.487 210.872C766.49 210.867 766.493 210.862 766.497 210.856C766.514 210.828 766.537 210.79 766.562 210.753C766.58 210.726 766.597 210.703 766.611 210.685C766.617 210.682 766.622 210.679 766.626 210.678C766.636 210.675 766.659 210.669 766.711 210.669H770.468C770.522 210.669 770.563 210.673 770.593 210.677C770.593 210.701 770.594 210.72 770.593 210.738C770.592 210.761 770.591 210.775 770.589 210.785C770.587 210.8 770.584 210.804 770.582 210.808L770.559 210.842L770.542 210.88L766.208 220.519L766.204 220.527L766.2 220.537L766.664 220.724C766.249 220.558 766.204 220.54 766.2 220.538H766.199V220.54C766.198 220.541 766.197 220.542 766.197 220.543C766.196 220.546 766.195 220.55 766.193 220.555C766.189 220.564 766.184 220.576 766.178 220.592C766.167 220.622 766.152 220.666 766.137 220.715C766.112 220.796 766.067 220.955 766.067 221.108C766.067 221.192 766.072 221.415 766.206 221.694V221.695L770.923 232.438V232.438C770.996 232.609 771.049 232.735 771.083 232.839C771.119 232.945 771.125 232.995 771.125 233.013C771.125 233.02 771.124 233.027 771.124 233.033C771.108 233.036 771.083 233.042 771.046 233.042H767.049C766.988 233.042 766.964 233.028 766.957 233.022C766.952 233.019 766.926 233 766.904 232.923L766.897 232.9L766.888 232.879L763.806 224.976L763.798 224.954L763.788 224.934V224.933L763.787 224.932L763.784 224.926L763.756 224.875C763.74 224.846 763.713 224.805 763.68 224.761C763.649 224.72 763.599 224.658 763.531 224.604C763.477 224.56 763.368 224.486 763.216 224.468L763.148 224.464C763.003 224.464 762.827 224.506 762.68 224.652C762.622 224.711 762.579 224.776 762.547 224.837L762.49 224.976L759.407 232.879L759.399 232.9L759.392 232.923C759.37 232.999 759.344 233.019 759.339 233.022C759.332 233.028 759.308 233.042 759.247 233.042H755.057L755.037 233.041C755.02 233.04 755.001 233.037 754.982 233.034C754.981 233.028 754.979 233.021 754.979 233.013C754.979 232.995 754.985 232.945 755.02 232.839C755.055 232.735 755.106 232.608 755.179 232.438L755.178 232.438L759.897 221.695L759.901 221.688L759.904 221.68V221.679L759.905 221.678C759.905 221.677 759.905 221.675 759.906 221.674C759.907 221.671 759.909 221.668 759.911 221.663C759.914 221.654 759.919 221.64 759.924 221.625C759.935 221.594 759.95 221.552 759.965 221.503C759.99 221.422 760.036 221.262 760.036 221.108C760.036 221.046 760.037 220.935 760.014 220.818C759.991 220.703 759.947 220.598 759.884 220.493L755.577 210.915C755.575 210.91 755.574 210.905 755.573 210.899C755.564 210.869 755.553 210.827 755.542 210.783C755.533 210.745 755.524 210.707 755.517 210.676C755.547 210.672 755.586 210.669 755.635 210.669Z"/>
  <path onClick="" stroke="currentColor" d="M763.051 378.795C779.037 378.795 791.996 365.827 791.996 349.831C791.996 333.835 779.037 320.867 763.051 320.867C747.066 320.867 734.107 333.835 734.107 349.831C734.107 365.827 747.066 378.795 763.051 378.795Z" stroke-width="4" stroke-linejoin="bevel"/>
  <path stroke="currentColor" fill="currentColor" d="M757.272 339.536H764.833C766.104 339.536 767.17 339.807 768.143 340.382L768.15 340.387L768.157 340.391C769.011 340.856 769.691 341.489 770.204 342.294L770.414 342.649L770.419 342.657C770.952 343.591 771.22 344.614 771.22 345.735C771.22 347.296 770.75 348.548 769.864 349.526L769.681 349.719C769.603 349.796 769.525 349.894 769.469 350.02C769.412 350.147 769.39 350.279 769.39 350.409C769.39 350.445 769.385 350.584 769.44 350.729C769.494 350.876 769.592 350.989 769.711 351.079V351.08C770.221 351.512 770.646 351.998 770.945 352.6L771.065 352.865C771.375 353.619 771.509 354.372 771.509 355.181C771.509 357.301 770.913 358.944 769.729 360.129C768.537 361.321 766.938 361.958 764.833 361.958H757.772V361.909H757.278L757.261 361.908C757.244 361.907 757.223 361.904 757.2 361.898C757.185 361.895 757.175 361.89 757.168 361.888L757.144 361.863L757.107 361.814C757.105 361.809 757.098 361.789 757.098 361.735V339.716C757.098 339.714 757.098 339.708 757.099 339.7C757.1 339.684 757.103 339.661 757.109 339.639C757.112 339.626 757.115 339.617 757.117 339.61C757.19 339.557 757.214 339.544 757.224 339.54C757.225 339.539 757.226 339.539 757.228 339.539L757.272 339.536ZM761.469 352.098H761.468L761.466 352.099C761.465 352.099 761.464 352.099 761.463 352.1C761.461 352.1 761.457 352.101 761.454 352.102C761.448 352.103 761.441 352.107 761.433 352.109C761.416 352.115 761.393 352.123 761.366 352.134C761.316 352.154 761.243 352.188 761.167 352.236C761.037 352.32 760.77 352.536 760.77 352.916V357.516L760.788 357.583L760.789 357.584V357.586L760.793 357.598C760.795 357.604 760.797 357.612 760.8 357.62C760.806 357.637 760.814 357.66 760.824 357.686C760.845 357.736 760.878 357.809 760.927 357.885C761.011 358.015 761.226 358.283 761.607 358.283H765.333V358.191C765.939 358.09 766.481 357.8 766.906 357.28C767.403 356.672 767.694 355.985 767.694 355.133C767.694 354.284 767.405 353.587 766.891 353.015C766.372 352.438 765.663 352.078 764.833 352.078H761.536L761.469 352.098ZM761.469 343.23H761.466L761.454 343.234C761.448 343.236 761.441 343.238 761.433 343.241C761.416 343.247 761.393 343.256 761.366 343.267C761.316 343.287 761.243 343.32 761.167 343.369C761.037 343.453 760.77 343.668 760.77 344.048V347.877L760.788 347.944L760.789 347.945V347.947L760.793 347.959C760.795 347.965 760.797 347.973 760.8 347.981C760.806 347.999 760.814 348.022 760.824 348.048C760.845 348.099 760.878 348.17 760.927 348.246C761.011 348.377 761.226 348.645 761.607 348.645H764.833C765.56 348.645 766.213 348.338 766.728 347.823C767.243 347.308 767.549 346.655 767.549 345.928C767.549 345.291 767.315 344.712 766.911 344.231L766.728 344.032C766.213 343.517 765.56 343.211 764.833 343.211H761.536L761.469 343.23Z"/>
  <path onClick="" stroke="currentColor" d="M837.555 314.988C853.541 314.988 866.5 302.021 866.5 286.024C866.5 270.028 853.541 257.061 837.555 257.061C821.57 257.061 808.611 270.028 808.611 286.024C808.611 302.021 821.57 314.988 837.555 314.988Z" stroke-width="4" stroke-linejoin="bevel"/>
  <path stroke="currentColor" fill="currentColor" d="M835.581 275.055H840.06C840.157 275.055 840.171 275.075 840.16 275.066C840.154 275.062 840.157 275.063 840.167 275.078L840.205 275.174L846.03 296.9V296.901L846.033 296.909C846.078 297.069 846.111 297.202 846.132 297.302C846.156 297.414 846.158 297.454 846.158 297.446C846.158 297.449 846.157 297.452 846.157 297.455C846.121 297.468 846.084 297.477 846.032 297.477H842.516C842.455 297.477 842.43 297.462 842.423 297.457C842.421 297.455 842.414 297.449 842.404 297.435L842.371 297.357L842.37 297.353L841.358 293.931L841.345 293.889L841.326 293.85V293.849L841.324 293.846C841.323 293.844 841.322 293.841 841.32 293.837C841.316 293.829 841.309 293.817 841.302 293.803C841.288 293.774 841.269 293.735 841.248 293.692L841.133 293.464L841.092 293.394C840.991 293.239 840.844 293.154 840.699 293.118C840.578 293.088 840.447 293.091 840.397 293.091H835.34V293.591C835.34 293.091 835.339 293.091 835.339 293.091H835.316C835.304 293.091 835.288 293.093 835.27 293.094C835.234 293.096 835.183 293.1 835.125 293.109C835.055 293.121 834.873 293.155 834.715 293.276L834.649 293.334C834.512 293.471 834.432 293.613 834.375 293.778L834.325 293.951L833.415 297.357C833.385 297.462 833.358 297.473 833.369 297.465C833.381 297.456 833.368 297.477 833.269 297.477H829.605C829.599 297.476 829.59 297.475 829.578 297.475C829.552 297.473 829.519 297.47 829.487 297.465C829.486 297.465 829.484 297.464 829.483 297.464C829.483 297.459 829.483 297.453 829.483 297.446C829.483 297.383 829.481 297.218 829.587 296.969L829.601 296.936L829.61 296.901L835.438 275.166C835.46 275.095 835.485 275.077 835.489 275.074C835.496 275.069 835.52 275.055 835.581 275.055ZM837.422 279.922L837.421 279.923H837.42L837.419 279.924C837.418 279.925 837.417 279.926 837.416 279.927C837.413 279.928 837.411 279.93 837.409 279.932C837.403 279.935 837.397 279.939 837.39 279.944C837.377 279.954 837.362 279.967 837.345 279.982C837.312 280.012 837.27 280.055 837.228 280.11C837.152 280.212 837.073 280.363 837.058 280.56L835.476 288.383L835.466 288.433V288.66L835.492 288.736L835.966 288.579L835.492 288.737V288.738L835.493 288.739C835.493 288.74 835.493 288.741 835.494 288.742C835.494 288.744 835.496 288.746 835.497 288.749C835.499 288.754 835.501 288.762 835.503 288.77C835.509 288.785 835.517 288.804 835.527 288.827C835.547 288.871 835.578 288.935 835.623 289.001C835.691 289.104 835.894 289.368 836.255 289.368H839.337V288.979C839.487 289.327 839.487 289.327 839.487 289.327H839.488L839.489 289.326C839.49 289.326 839.491 289.326 839.492 289.325C839.494 289.324 839.497 289.323 839.5 289.321C839.505 289.319 839.513 289.316 839.522 289.312C839.539 289.303 839.56 289.291 839.585 289.277C839.634 289.25 839.704 289.207 839.775 289.147C839.88 289.059 840.087 288.844 840.083 288.526L840.069 288.385L840.068 288.383L838.479 280.527L838.473 280.498L838.463 280.469V280.468L838.462 280.467C838.462 280.466 838.462 280.464 838.461 280.463C838.46 280.46 838.459 280.456 838.458 280.451C838.454 280.441 838.45 280.428 838.444 280.412C838.432 280.381 838.415 280.336 838.396 280.29C838.378 280.248 838.352 280.187 838.319 280.131C838.304 280.105 838.275 280.059 838.233 280.013C838.211 279.989 838.174 279.952 838.121 279.918C838.068 279.885 837.972 279.838 837.844 279.838H837.548L837.422 279.922Z"/>
  <path stroke="currentColor" fill="currentColor" opacity="0.5" d="M638.075 364.259C670.355 364.259 696.572 390.492 696.572 422.795C696.572 455.097 670.355 481.331 638.075 481.331C605.795 481.331 579.579 455.097 579.579 422.795C579.579 390.492 605.748 364.259 638.075 364.259ZM638.075 371.5C609.77 371.5 586.767 394.519 586.767 422.843C586.767 451.167 609.77 474.186 638.075 474.187C666.381 474.187 689.385 451.167 689.385 422.843C689.385 394.519 666.381 371.5 638.075 371.5Z"/>
  <path onClick="" style="" stroke="currentColor" d="M638.075 458.554C657.785 458.554 673.762 442.566 673.762 422.844C673.762 403.121 657.785 387.133 638.075 387.133C618.366 387.133 602.389 403.121 602.389 422.844C602.389 442.566 618.366 458.554 638.075 458.554Z" stroke-width="4" stroke-linejoin="bevel"/>
  <path stroke="currentColor" fill="currentColor" opacity="0.5" d="M372.134 364.259C404.414 364.259 430.631 390.492 430.631 422.795C430.631 455.097 404.414 481.331 372.134 481.331C339.855 481.331 313.638 455.097 313.638 422.795C313.638 390.492 339.807 364.259 372.134 364.259ZM372.134 371.5C343.829 371.5 320.826 394.519 320.826 422.843C320.826 451.167 343.829 474.186 372.134 474.187C400.44 474.187 423.444 451.167 423.444 422.843C423.444 394.519 400.44 371.5 372.134 371.5Z"/>
  <path onClick="" style="" stroke="currentColor" d="M372.134 458.554C391.844 458.554 407.821 442.566 407.821 422.844C407.821 403.121 391.844 387.133 372.134 387.133C352.425 387.133 336.448 403.121 336.448 422.844C336.448 442.566 352.425 458.554 372.134 458.554Z" stroke-width="4" stroke-linejoin="bevel"/>
</svg>
