<?xml version="1.0"?>
<svg xmlns="http://www.w3.org/2000/svg" width="657" height="308" viewBox="0 0 657 308" fill="none">
  <path onClick="" d="M489.857 15.8965C489.857 15.8965 454.825 29.5318 398.417 15.916C398.417 15.916 397.367 3.58398 409.037 3.58398C420.708 3.58398 468.713 3.97303 480.384 3.97303C492.055 3.97303 489.857 15.8965 489.857 15.8965Z"/>
  <path onClick="" d="M230.05 16.4801C230.05 16.4801 192.296 29.1623 135.888 15.5465C135.888 15.5465 136.216 3 147.868 3C159.519 3 207.544 3.38901 219.214 3.38901C230.885 3.38901 230.05 16.4801 230.05 16.4801Z"/>
  <path onClick="" stroke="currentColor" d="M11.1269 132.038C11.1269 132.038 5.29156 129.121 5.29156 136.901L5.29156 174.072C5.29156 174.072 3.34646 212.76 32.5231 251.663C61.6998 290.565 88.9313 298.345 88.9313 298.345C88.9313 298.345 93.0939 301.224 94.9028 293.949C96.7118 286.675 34.4682 282.784 11.1269 132.038Z" stroke-width="3.89022" stroke-miterlimit="10"/>
  <path stroke="currentColor" d="M620.569 30.5823L623.545 22.6463C623.545 22.6463 624.109 15.5661 633.835 21.4014C633.835 21.4014 637.92 22.6463 637.92 31.6327C637.92 40.6191 639.456 49.625 639.456 49.625" stroke-width="3.89022" stroke-miterlimit="10"/>
  <path stroke="currentColor" d="M232.073 16.344L394 16.344C450.408 29.9598 491.746 16.344 491.746 16.344L581.221 14.3989C630.821 14.3989 667.681 84.6563 644.437 74.6973C630.821 68.862 628.876 92.2033 628.876 92.2033L629.051 92.7868L23.9465 94.1484L16.1661 94.1484C16.1661 94.1484 10.3308 94.1484 12.2759 86.368C14.221 78.5876 22.0014 18.2891 86.1901 14.3989L135.888 15.5465" stroke-width="3" stroke-miterlimit="10"/>
  <path stroke="currentColor" d="M133.5 16.0002C189.908 29.6159 230.05 16.4805 230.05 16.4805L319.5 15" stroke-width="3.89022" stroke-miterlimit="10"/>
  <path stroke="currentColor" d="M649.2 94.1673C652.021 94.8092 653.091 101.948 653.091 101.948L653.091 173.917C647.255 277.008 557.78 304.239 520.823 304.239C431.329 304.239 172.648 304.239 172.648 304.239C142.402 304.239 113.925 302.8 93.0349 293.989C91.2259 301.263 87.0634 298.384 87.0634 298.384C87.0634 298.384 59.8318 290.604 30.6551 251.702C1.47849 212.819 3.4236 174.131 3.4236 174.131C3.4236 174.131 2.47049 144.682 3.42359 136.96C4.29889 129.821 9.90081 132.33 10.1342 133.711C9.84246 121.691 9.37563 112.335 9.25892 103.893C9.14222 95.6261 13.9466 94.4007 15.4055 94.2062C15.4055 94.2062 8.46143 94.2062 10.4065 86.4258C12.3516 78.6453 20.1321 18.3469 84.3207 14.4567C84.3207 14.4567 134.096 14.8457 136.216 15.4293C136.216 15.4293 136.216 2.99999 147.868 2.99999C159.519 2.99999 207.544 3.389 219.214 3.389C230.885 3.389 229.193 15.9155 229.193 15.9155C229.621 15.8183 396.842 15.5654 398.417 15.9155C398.417 15.9155 397.367 3.58348 409.037 3.58348C420.708 3.58348 468.713 3.97254 480.384 3.97254C492.055 3.97254 489.857 15.896 489.857 15.896L579.371 14.4372C616.289 15.896 633.795 43.1276 639.63 48.9629C651.437 64.835 654.88 79.1121 643.521 74.2494C629.905 68.414 627.96 91.7554 627.96 91.7554C627.96 91.7554 642.451 92.6112 649.22 94.1478L649.2 94.1673Z" stroke-width="5.83533" stroke-miterlimit="10"/>
  <path stroke="currentColor" d="M454.574 143.943L454.574 168.256C454.574 171.479 457.187 174.092 460.41 174.092L484.723 174.092C487.946 174.092 490.559 171.479 490.559 168.256L490.559 143.943C490.559 140.72 487.946 138.107 484.723 138.107L460.41 138.107C457.187 138.107 454.574 140.72 454.574 143.943Z" stroke-width="3" stroke-miterlimit="10"/>
  <path stroke="currentColor" d="M486.065 156.099C486.065 148.643 480.021 142.6 472.565 142.6C465.11 142.6 459.066 148.643 459.066 156.099C459.066 163.554 465.11 169.598 472.565 169.598C480.021 169.598 486.065 163.554 486.065 156.099Z" stroke-width="2" stroke-miterlimit="10"/>
  <path onClick="" stroke="currentColor" d="M69.3057 142.717L69.3057 131.397L69.3057 121.107L69.3057 109.786C69.3057 109.222 69.7725 108.756 70.3366 108.756L78.5838 108.756C79.1479 108.756 79.6147 109.222 79.6147 109.786L79.6147 121.107L79.6147 131.397L79.6147 142.717C79.6147 143.281 79.1479 143.748 78.5838 143.748L70.3366 143.748C69.7725 143.748 69.3057 143.281 69.3057 142.717V142.717Z" stroke-width="3" stroke-miterlimit="10"/>
  <path fill="currentColor" d="M70.0254 81.7777L70.0254 70.4571L70.0254 60.1675L70.0254 48.847C70.0254 48.2829 70.4922 47.816 71.0563 47.816L79.3036 47.816C79.8677 47.816 80.3345 48.2829 80.3345 48.8469L80.3345 60.1675L80.3345 70.4571L80.3345 81.7777C80.3345 82.3418 79.8677 82.8086 79.3036 82.8086L71.0563 82.8086C70.4922 82.8086 70.0254 82.3418 70.0254 81.7777Z"/>
  <path onClick="" stroke="currentColor" d="M326.081 190.042C326.081 177.849 316.197 167.965 304.004 167.965C291.811 167.965 281.927 177.849 281.927 190.042C281.927 202.235 291.811 212.119 304.004 212.119C316.197 212.119 326.081 202.235 326.081 190.042Z" stroke-width="3.89022" stroke-miterlimit="10"/>
  <path onClick="" stroke="currentColor" d="M374.475 240.751C374.475 228.558 364.591 218.674 352.398 218.674C340.206 218.674 330.321 228.558 330.321 240.751C330.321 252.944 340.206 262.828 352.398 262.828C364.591 262.828 374.475 252.944 374.475 240.751Z" stroke-width="3.89022" stroke-miterlimit="10"/>
  <path onClick="" stroke="currentColor" d="M374.979 139.917C374.979 127.724 365.095 117.84 352.902 117.84C340.709 117.84 330.825 127.724 330.825 139.917C330.825 152.11 340.709 161.994 352.902 161.994C365.095 161.994 374.979 152.11 374.979 139.917Z" stroke-width="3.89022" stroke-miterlimit="10"/>
  <path onClick="" stroke="currentColor" d="M422.576 190.702C422.576 178.51 412.692 168.625 400.499 168.625C388.306 168.625 378.422 178.51 378.422 190.702C378.422 202.895 388.306 212.779 400.499 212.779C412.692 212.779 422.576 202.895 422.576 190.702Z" stroke-width="3.89022" stroke-miterlimit="10"/>
  <path stroke="currentColor" d="M221.685 191.578C221.685 164.185 199.478 141.978 172.085 141.978C144.691 141.978 122.484 164.185 122.484 191.578C122.484 218.972 144.691 241.179 172.085 241.179C199.478 241.179 221.685 218.972 221.685 191.578Z" stroke-width="4" stroke-miterlimit="10"/>
  <path onClick="" style="" stroke="currentColor" d="M206.941 191.578C206.941 172.241 191.266 156.566 171.929 156.566C152.592 156.566 136.917 172.241 136.917 191.578C136.917 210.914 152.592 226.59 171.929 226.59C191.266 226.59 206.941 210.914 206.941 191.578Z" stroke-width="3" stroke-miterlimit="10"/>
</svg>
