<?xml version="1.0"?>
<svg version="1.1" id="Layer_4" xmlns="http://www.w3.org/2000/svg" x="0px" y="0px" width="256px" height="256px" viewBox="0 0 256 256">
  <g transform="matrix(1.34048,0,0,1.34048,-10.0942,-5.50445)">
    <circle cx="85.923" cy="47.419" r="33.526"/>
  </g>
  <path d="M100.353,170.882c0-23.589,10.397-44.736,26.842-59.152c-3.352-0.423-6.773-0.649-10.257-0.649H94.231	c-39.775,0-56.481,28.271-56.481,63.099v41.88c0,0-0.3,16.369,35.917,21.813c36.217,5.444,73.651,5,73.651,5 C119.666,230.681,100.353,203.044,100.353,170.882z"/>
  <path d="M176.504,217.922v-42.624c0-35.443-17.002-64.217-57.483-64.217H106.96h-1.017H94.898 c-40.48,0.001-57.484,28.774-57.484,64.217v42.624c0,0,0,22.197,69.544,22.197C177.521,240.121,176.504,217.922,176.504,217.922z"/>
  <path d="M18.167,63.833c6.53-0.734,39.348,39.127,50.007,47.647s21.327,16.686,15.16,25.353s-20.646,16.74-36.167,2.5 S-1.349,90.532,0,85.333S8.599,64.909,18.167,63.833z"/>
  <path d="M178.51,103.892c-36.998,0-66.99,29.992-66.99,66.99s29.994,66.99,66.99,66.99c36.997,0,66.99-29.992,66.99-66.99 S215.508,103.892,178.51,103.892z"/>
</svg>
