<?xml version="1.0"?>
<svg width="36" height="36" viewBox="0 0 36 36" fill="none" xmlns="http://www.w3.org/2000/svg">
  <path fill-rule="evenodd" clip-rule="evenodd" d="M3.50571 11.2155C3.87965 9.34584 5.52131 8 7.42804 8H28.5578C30.4645 8 32.1061 9.34584 32.4801 11.2155L32.9759 13.6947C33.0378 14.0041 32.8011 14.2928 32.4856 14.2928H3.50017C3.18465 14.2928 2.948 14.0041 3.00988 13.6947L3.50571 11.2155ZM14.2172 16.8099H4.42812C4.27911 16.8099 4.16319 16.9394 4.17965 17.0875L5.20967 26.3577C5.32221 27.3706 6.17834 28.1368 7.19744 28.1368H28.7883C29.8074 28.1368 30.6635 27.3706 30.7761 26.3577L31.8061 17.0875C31.8226 16.9394 31.7066 16.8099 31.5576 16.8099H21.7686V19.8441C21.7686 20.9486 20.8731 21.8441 19.7686 21.8441H16.2172C15.1127 21.8441 14.2172 20.9486 14.2172 19.8441V16.8099ZM17.2343 16.8099C16.9582 16.8099 16.7343 17.0337 16.7343 17.3099V18.827C16.7343 19.1031 16.9582 19.327 17.2343 19.327H18.7514C19.0276 19.327 19.2514 19.1031 19.2514 18.827V17.3099C19.2514 17.0337 19.0276 16.8099 18.7514 16.8099H17.2343Z" fill="currentColor"/>
</svg>
