<?xml version="1.0"?>
<svg xmlns="http://www.w3.org/2000/svg" viewBox="0 0 75.833 32">
  <path fill="currentColor" d="M37.072,14.253c-0.076,0.051-0.15,0.112-0.226,0.188
				c-0.174,0.2-0.262,0.45-0.262,0.75c0,0.126,0.024,0.375,0.074,0.75c0.025,0.123-0.025,0.199-0.149,0.225
				c-0.149,0.051-0.399,0.062-0.75,0.037l-0.487-0.037c-0.024,0.299-0.087,0.449-0.188,0.449h-0.9c-0.124,0-0.211,0.026-0.26,0.076
				c-0.077,0.099-0.15,0.174-0.227,0.226c-0.174,0.174-0.787,1.298-1.835,3.372c-0.252,0.475-0.277,0.888-0.076,1.239
				c0.15,0.274,0.35,0.449,0.601,0.523c0.5,0.075,1.35,0.075,2.548,0c0.925-0.099,1.638-0.336,2.137-0.711
				c0.349-0.3,1.574-2.174,3.673-5.624c0.125-0.226-0.037-0.712-0.488-1.462H37.072z M72.271,8.256
				c0.075,0.025,0.225,0.037,0.45,0.037c0.149,0,0.325-0.075,0.524-0.225h1.837l0.188,0.336c0.101,0.276,0.15,0.563,0.15,0.863
				c0,0.325-0.049,0.613-0.15,0.863c-0.099,0.225-0.188,0.337-0.262,0.337h-1.65c-0.049-0.024-0.162-0.062-0.338-0.112
				c-0.074-0.026-0.187-0.038-0.336-0.038c-0.15,0-0.3,0.024-0.45,0.076l-0.225,0.075h-1.048l-0.151-0.112H69.16l-0.15-0.15h-0.788
				c-0.05,0.176-0.163,0.263-0.336,0.263h-1.538c-0.1,0-0.2-0.037-0.3-0.112l-0.113-0.075l-10.832,0.262l-0.602,0.637H54.24
				l-0.188-0.225h-0.262l-0.15,0.225h-2.249l-0.301,2.288c-0.024,0.25-0.188,0.425-0.486,0.523l0.261,0.263l0.6,0.075
				c0.4,0.076,0.587,0.238,0.563,0.488c-0.151,0.824-0.188,1.437-0.114,1.837c0.051,0.249,0.064,0.824,0.039,1.724
				c0,1.049,0,1.699,0,1.949c0.049,0.775,0.336,1.6,0.861,2.475c0.1,0.175-0.075,0.35-0.525,0.526
				c-0.45,0.174-0.925,0.261-1.424,0.261c-0.424,0-0.974-0.1-1.649-0.299l-0.937-0.263c-0.026-1.1,0.036-2.112,0.187-3.037
				c0.051-0.349,0.225-0.962,0.526-1.836c0.199-0.599,0.262-1.036,0.187-1.313c-0.05-0.3-0.138-0.612-0.261-0.937
				c-0.151-0.326-0.251-0.551-0.301-0.674c-0.074-0.2,0.112-0.426,0.562-0.677c0.225-0.124,0.449-0.237,0.675-0.336
				c-0.9-0.05-1.836-0.1-2.813-0.149c-1.924-0.051-3.01,0-3.26,0.149c-0.726,0.475-1.675,1.538-2.848,3.186
				c-0.275,0.35-1.075,1.55-2.399,3.6c-0.549,0.799-1.074,1.324-1.575,1.574c-0.374,0.176-1.086,0.299-2.137,0.375
				c-0.849,0.049-2.086,0.112-3.71,0.187c-1.4,0.025-2.274,0.038-2.625,0.038c-0.249,0-0.413-0.075-0.488-0.225
				c-0.074-0.15-0.098-0.412-0.074-0.787c0.05-1.075,0.188-1.849,0.412-2.325c0.1-0.226,0.338-0.662,0.712-1.312
				c0.376-0.675,0.638-1.075,0.788-1.2c0.075-0.099,0.325-0.324,0.75-0.674c0.375-0.451,0.563-1,0.563-1.65
				c0-0.724-0.313-1.149-0.938-1.275c-0.273-0.048-0.974-0.024-2.098,0.075c-1.074,0.05-1.837,0.102-2.286,0.15
				c-0.75,0.051-1.174,0.175-1.274,0.375c-0.2,0.3-0.55,0.539-1.051,0.712l-0.075,1.351c0.125,1.374,0.513,3.186,1.163,5.435
				c1,3.549,1.913,5.86,2.737,6.934c0.349,0.45,0.311,0.787-0.113,1.013c-0.25,0.1-1.162,0.424-2.737,0.974
				c-1.599,0.574-2.523,0.9-2.773,0.975c-0.3,0.075-0.425-0.376-0.375-1.351c-0.224-0.424-0.511-1.036-0.86-1.836
				c-0.625-1.65-1.176-3.437-1.65-5.36c-0.45-1.925-0.775-3.774-0.975-5.548l-0.149-2.062c-0.55-0.199-0.924-0.213-1.126-0.038
				l-1.686,1.351c-0.074,0.074-0.2,0-0.375-0.225c-0.175-0.2-0.287-0.289-0.337-0.262c-0.6,0.224-1.5,0.737-2.699,1.537
				c-1.375,0.975-2.137,1.724-2.288,2.249L8.92,21.075l0.413,0.451c0.274,0.323,0.413,0.538,0.413,0.637
				c0,0.324-0.101,0.576-0.301,0.75c-0.174,0.175-0.425,0.262-0.749,0.262H4.31c-0.276,0-0.55-0.113-0.824-0.337
				c-0.325-0.3-0.575-0.7-0.75-1.2c-0.2-0.649-0.587-2.262-1.163-4.835c-0.574-2.699-0.875-4.348-0.898-4.949
				c-0.025-0.625,0.012-1.074,0.112-1.349c0.075-0.199,0.238-0.437,0.488-0.711c0.25-0.275,0.649-0.6,1.199-0.975
				c0.601-0.401,1.063-0.6,1.386-0.6l23.579-0.487V7.468l0.601-0.45c0.424-0.3,0.725-0.5,0.899-0.599
				c0.274-0.125,0.624-0.188,1.05-0.188l1.423,0.037V4.358h-0.562c0.025,0.274-0.163,0.411-0.562,0.411
				c-0.226,0-0.375-0.062-0.45-0.187l-0.075-0.224h-1.312l-0.188,0.187h-0.449c-0.226-0.325-0.337-0.874-0.337-1.649
				c0-0.751,0.1-1.162,0.299-1.238h0.337l0.225,0.15l1.275-0.037l0.074-0.263c0.075-0.149,0.25-0.225,0.524-0.225
				c0.327,0,0.487,0.15,0.487,0.451l0.375-0.039V1.059l0.712-0.113c0.225,0,0.488,0.025,0.788,0.076V1.47l2.961-0.411
				c2.049-0.274,3.237-0.412,3.56-0.412h1.163l0.524,0.412h0.526V0.833h0.412v0.151h0.75v3.674l-0.75,0.037v0.151h-0.375V4.619
				H39.47l0.3,0.45h0.487c0.35,0.051,0.537,0.138,0.562,0.261l0.15,0.713h1.237v-0.15h0.563v0.15h1.275v-0.15h0.562v0.15h1.274
				v-0.15h0.526v0.15h1.311v-0.15h0.525v0.15h1.312v-0.15h0.524v0.15h1.012l2.662,1.312v0.863l0.675,0.374h11.621l0.188-0.112
				c0.125-0.125,0.224-0.188,0.301-0.188h1.386l0.337,0.299h0.674l0.337-0.188c0.278-0.024,0.764,0,1.463,0.076l0.038-0.148
				c0.075-0.101,0.176-0.151,0.3-0.151h0.937C72.108,8.181,72.196,8.206,72.271,8.256z"/>
</svg>
