<?xml version="1.0"?>
<svg width="26" height="26" viewBox="0 0 26 26" fill="none" xmlns="http://www.w3.org/2000/svg">
  <g clip-path="">
    <path fill-rule="evenodd" clip-rule="evenodd" d="M1.91287 -5.25V3.23255C1.91287 8.03591 5.76677 11.9298 10.5208 11.9298H22.0007L17.5467 7.4296C17.1732 7.05221 17.1732 6.44034 17.5467 6.06296C17.9202 5.68557 18.5258 5.68557 18.8993 6.06296L24.986 12.2128C25.3596 12.5902 25.3596 13.2021 24.986 13.5795L18.8993 19.7294C18.5258 20.1067 17.9202 20.1067 17.5467 19.7294C17.1732 19.352 17.1732 18.7401 17.5467 18.3627L22.0007 13.8625H10.5208C4.71032 13.8625 0 9.10332 0 3.23255V-5.25H1.91287Z" fill="#B8BCBF"/>
  </g>
  <defs>
    <clipPath id="">
      <rect width="26" height="26" fill="white"/>
    </clipPath>
  </defs>
</svg>
