<?xml version="1.0"?>
<svg xmlns="http://www.w3.org/2000/svg" viewBox="0 0 36 36" fill="none">
  <path fill="currentColor" fill-rule="evenodd" clip-rule="evenodd" d="M22.5692 25.966C20.5663 27.3182 18.1522 28.1076 15.5538 28.1076C8.62053 28.1076 3 22.4871 3 15.5538C3 8.62053 8.62053 3 15.5538 3C22.4871 3 28.1076 8.62053 28.1076 15.5538C28.1076 18.1523 27.3181 20.5665 25.9659 22.5694L33 29.6036L29.6034 33.0002L22.5692 25.966ZM25.318 15.5535C25.318 20.946 20.9464 25.3175 15.5539 25.3175C10.1614 25.3175 5.78983 20.946 5.78983 15.5535C5.78983 10.1609 10.1614 5.78938 15.5539 5.78938C20.9464 5.78938 25.318 10.1609 25.318 15.5535Z"/>
  <path fill="currentColor" fill-rule="evenodd" clip-rule="evenodd" d="M16.8179 14.1153L16.8179 10.0615L14.1153 10.0615L14.1153 14.1153H10.0614V16.8178H14.1153L14.1153 20.8717H16.8179L16.8179 16.8178H20.8716V14.1153H16.8179Z"/>
</svg>
