<?xml version="1.0"?>
<svg xmlns="http://www.w3.org/2000/svg" viewBox="0 0 36 36" fill="none">
  <g clip-path="">
    <path d="M30 11.05C29.9986 7.24269 29.1444 3.48399 27.5 0.0500488H2.5C0.854317 3.48354 0 7.24254 0 11.05C0 14.8576 0.854317 18.6166 2.5 22.05H27.5C29.1434 18.6158 29.9976 14.8573 30 11.05ZM11.25 17.1201V4.89005L21.25 11L11.25 17.1201ZM18.34 28.17L24.11 31.17C24.556 30.8692 25.082 30.7089 25.62 30.71C25.74 30.71 25.84 30.71 25.95 30.71L27.95 27.7901C27.8043 26.972 27.9138 26.129 28.2636 25.3753C28.6133 24.6216 29.1864 23.9937 29.9051 23.5768C30.6238 23.1599 31.4534 22.9741 32.2813 23.0447C33.1092 23.1153 33.8953 23.4388 34.5331 23.9713C35.1709 24.5039 35.6294 25.2197 35.8465 26.0217C36.0637 26.8237 36.0289 27.6731 35.7469 28.4547C35.4649 29.2362 34.9493 29.9122 34.2701 30.3908C33.5909 30.8693 32.7809 31.1274 31.95 31.13C31.5858 31.1346 31.2227 31.0909 30.87 31L28.26 32.8C28.3035 32.9972 28.3269 33.1982 28.33 33.4001C28.3222 34.0935 28.0479 34.7574 27.5639 35.2542C27.0799 35.7509 26.4233 36.0423 25.7303 36.068C25.0372 36.0937 24.3609 35.8518 23.8414 35.3923C23.3219 34.9328 22.9991 34.291 22.94 33.6L16.94 30.6L18.34 28.17Z" fill="currentColor"/>
  </g>
  <defs>
    <clipPath id="">
      <rect fill="currentColor"/>
    </clipPath>
  </defs>
</svg>
