<?xml version="1.0"?>
<svg xmlns="http://www.w3.org/2000/svg" viewBox="0 0 36 36" fill="none">
  <path fill="currentColor" d="M0 2C0 0.895431 0.895431 0 2 0H34C35.1046 0 36 0.895431 36 2V34C36 35.1046 35.1046 36 34 36H2C0.895431 36 0 35.1046 0 34V2Z"/>
  <path fill="currentColor" d="M16.6967 24.75H8.23669V12.15H10.8827V22.374H16.6967V24.75Z"/>
  <path fill="currentColor" d="M27.3744 12.15V14.4H21.8664V17.352C22.2144 17.136 22.6044 16.98 23.0364 16.884C23.4804 16.776 23.9244 16.722 24.3684 16.722C25.4964 16.722 26.3964 17.046 27.0684 17.694C27.7524 18.33 28.0944 19.26 28.0944 20.484C28.0944 21.396 27.8784 22.194 27.4464 22.878C27.0264 23.562 26.4084 24.096 25.5924 24.48C24.7884 24.852 23.8344 25.038 22.7304 25.038C21.9144 25.038 21.1524 24.93 20.4444 24.714C19.7364 24.498 19.1484 24.192 18.6804 23.796L19.6164 21.78C20.5404 22.404 21.5664 22.716 22.6944 22.716C23.5464 22.716 24.2064 22.53 24.6744 22.158C25.1424 21.786 25.3764 21.252 25.3764 20.556C25.3764 19.944 25.1964 19.476 24.8364 19.152C24.4884 18.828 24.0084 18.666 23.3964 18.666C22.9404 18.666 22.5204 18.744 22.1364 18.9C21.7524 19.044 21.3744 19.266 21.0024 19.566L19.3284 18.648V12.15H27.3744Z"/>
</svg>
