<?xml version="1.0"?>
<svg xmlns="http://www.w3.org/2000/svg" viewBox="0 0 315 221" fill="none">
  <path fill="currentColor" d="M147.517 56.0112L147.203 51.9697L154.06 54.9323L151.496 57.7125L147.517 56.0112Z"/>
  <path fill="currentColor" d="M161.797 45.5972C164.094 45.5972 165.959 47.535 165.959 49.9224C165.959 52.3097 164.094 54.2476 161.797 54.2476H161.704L157.949 57.0317V57.1812C157.949 58.9695 156.55 60.4321 154.821 60.4321C153.313 60.4321 152.042 59.3134 151.762 57.8247L147.532 56.0103L153.075 54.5034C153.575 54.1422 154.186 53.9399 154.83 53.9399H155.008L157.636 49.9751V49.9224C157.636 47.5351 159.5 45.5972 161.797 45.5972ZM155.732 54.9253C155.156 54.6787 154.545 54.6875 154.003 54.8989L155.402 55.4985C156.284 55.8775 156.698 56.9253 156.334 57.8413C155.97 58.7573 154.953 59.1895 154.08 58.811H154.071L152.715 58.229C152.952 58.7487 153.367 59.1806 153.927 59.4272C155.122 59.947 156.495 59.3567 156.995 58.1147C157.232 57.5157 157.241 56.8544 156.995 56.2466C156.758 55.6478 156.309 55.1719 155.732 54.9253ZM161.805 47.0415C160.279 47.0415 159.033 48.3359 159.033 49.9214C159.033 51.5071 160.279 52.8022 161.805 52.8022C163.33 52.8022 164.576 51.5071 164.576 49.9214C164.576 48.3359 163.33 47.0416 161.805 47.0415ZM161.805 47.7456C162.957 47.7457 163.889 48.7147 163.89 49.9126C163.89 51.1107 162.957 52.0805 161.805 52.0806C160.652 52.0806 159.72 51.1107 159.72 49.9126C159.72 48.7147 160.652 47.7456 161.805 47.7456Z"/>
  <path fill="currentColor" d="M226.742 4.16113C229.151 -0.999473 239.989 -0.482798 250.311 1.06543C260.632 2.6137 267.685 6.39834 271.642 9.83887C274.807 12.5913 276.401 18.5546 276.803 21.1924C280.759 24.2888 285.231 31.8576 287.296 35.9863C288.947 39.2893 301.746 87.136 307.939 110.646C310.864 122.688 316.231 152.552 314.305 175.673C311.896 204.572 297.447 211.97 295.382 214.207C293.318 216.443 278.35 222.637 268.545 220.057C258.74 217.476 254.955 209.391 252.891 204.746C250.826 200.101 245.321 190.468 239.645 185.995C235.103 182.417 229.266 181.637 226.915 181.694H89.293C86.6785 181.694 83.7312 182.152 82.584 182.382C73.6386 184.274 65.8964 194.424 61.5957 204.401C57.295 214.379 51.9626 222.465 35.4482 220.057C18.9336 217.648 12.0522 209.391 6.03125 198.381C0.0103111 187.371 0.35479 164.319 0.0107422 154.342C-0.264502 146.36 5.05685 118.33 7.75195 105.313L21.5137 54.9102C22.3738 51.4696 24.679 43.0054 27.0186 36.6748C29.3581 30.3443 35.2186 23.4865 37.8564 20.8486C37.4436 18.7843 39.5189 14.7122 40.6084 12.9346C44.393 6.22567 55.0588 3.30103 59.1875 1.9248C63.3162 0.548584 79.1433 -0.482819 83.7881 1.06543C87.5033 2.30407 88.547 5.7095 88.6045 7.25781L152.427 5.70996L216.249 6.74219L225.883 7.08594L226.742 4.16113ZM81.4766 97.792C74.5519 96.5763 67.9531 101.204 66.7373 108.129L59.6582 148.449C58.4426 155.374 63.0705 161.973 69.9951 163.188L111.985 170.561C118.91 171.776 125.51 167.148 126.726 160.224L133.805 119.903C135.02 112.979 130.392 106.38 123.468 105.164L81.4766 97.792ZM247.417 108.129C246.201 101.204 239.602 96.5765 232.678 97.792L190.687 105.164C183.762 106.38 179.134 112.979 180.35 119.903L187.429 160.224C188.644 167.148 195.243 171.776 202.168 170.561L244.159 163.188C251.084 161.973 255.712 155.374 254.496 148.449L247.417 108.129ZM110.764 58.0527C100.217 58.0528 91.6672 66.6028 91.667 77.1494C91.667 87.6962 100.217 96.246 110.764 96.2461C121.31 96.2461 129.86 87.6962 129.86 77.1494C129.86 66.6028 121.31 58.0527 110.764 58.0527ZM202.426 58.0527C191.879 58.0527 183.329 66.6028 183.329 77.1494C183.329 87.6962 191.879 96.2461 202.426 96.2461C212.972 96.2459 221.522 87.6961 221.522 77.1494C221.522 66.6029 212.972 58.053 202.426 58.0527ZM254.434 60.209C248.828 60.209 244.283 64.7529 244.283 70.3584C244.283 75.9638 248.828 80.5078 254.434 80.5078C260.039 80.5076 264.583 75.9637 264.583 70.3584C264.583 64.7531 260.039 60.2092 254.434 60.209ZM59.917 27.8662C58.012 27.8663 54.4627 28.6469 52.5566 29.1016C51.7951 29.2834 51.2676 29.967 51.2676 30.75V41.6289C51.2673 42.5787 50.4976 43.3484 49.5479 43.3486H38.6963C37.9792 43.3487 37.3394 43.7935 37.1338 44.4805C36.6759 46.0105 35.956 48.9005 35.9561 51.9502C35.9561 54.9998 36.6759 57.8898 37.1338 59.4199C37.3394 60.1069 37.9792 60.5517 38.6963 60.5518H49.5479C50.4978 60.5519 51.2676 61.3225 51.2676 62.2725V73.1309C51.2676 73.843 51.7055 74.4803 52.3838 74.6973C53.97 75.2044 57.0026 76.0341 59.8691 76.0342C62.7354 76.0341 65.7674 75.2044 67.3535 74.6973C68.0319 74.4803 68.4697 73.8431 68.4697 73.1309V62.2725C68.4697 61.3224 69.2403 60.5518 70.1904 60.5518H81.0576C81.7656 60.5517 82.3989 60.1182 82.6064 59.4414C83.0645 57.9463 83.7793 55.1068 83.7793 51.9502C83.7793 48.7938 83.0645 45.9551 82.6064 44.46C82.399 43.7829 81.7657 43.3487 81.0576 43.3486H70.1904C69.2405 43.3486 68.47 42.5788 68.4697 41.6289V30.7441C68.4697 29.9637 67.946 29.2822 67.1875 29.0986C65.3065 28.6435 61.8175 27.8663 59.917 27.8662ZM157.064 40.9404C150.889 40.9404 145.883 45.9475 145.883 52.123C145.883 58.2984 150.889 63.3047 157.064 63.3047C163.24 63.3047 168.246 58.2984 168.246 52.123C168.246 45.9475 163.24 40.9404 157.064 40.9404ZM235.853 41.6289C230.247 41.6291 225.703 46.173 225.703 51.7783C225.703 57.3837 230.247 61.9276 235.853 61.9277C241.458 61.9277 246.003 57.3838 246.003 51.7783C246.003 46.1729 241.458 41.6289 235.853 41.6289ZM272.667 41.6289C267.062 41.6289 262.518 46.1729 262.518 51.7783C262.518 57.3838 267.062 61.9277 272.667 61.9277C278.272 61.9276 282.816 57.3837 282.816 51.7783C282.816 46.173 278.272 41.629 272.667 41.6289ZM254.087 23.7383C248.481 23.7383 243.937 28.2832 243.937 33.8887C243.937 39.494 248.482 44.0381 254.087 44.0381C259.692 44.0378 264.236 39.4938 264.236 33.8887C264.236 28.2833 259.692 23.7385 254.087 23.7383Z"/>
  <path fill="currentColor" d="M200.563 170.738C200.385 170.747 200.207 170.751 200.029 170.752C200.207 170.751 200.385 170.747 200.563 170.738ZM201.203 170.691C201.01 170.71 200.818 170.724 200.626 170.734C200.818 170.724 201.01 170.71 201.203 170.691ZM201.521 170.657C201.433 170.668 201.345 170.677 201.258 170.686C201.347 170.676 201.436 170.667 201.525 170.656L201.521 170.657ZM233.47 102.305C237.901 101.527 242.124 104.489 242.902 108.921L249.981 149.24C250.759 153.672 247.798 157.895 243.367 158.674L201.376 166.046C196.945 166.824 192.721 163.862 191.942 159.431L184.863 119.11C184.085 114.679 187.048 110.455 191.479 109.677L233.47 102.305ZM188.598 163.755C188.694 163.946 188.795 164.134 188.9 164.319C188.795 164.134 188.694 163.946 188.598 163.755ZM188.24 162.981C188.307 163.14 188.377 163.296 188.45 163.451C188.377 163.296 188.307 163.14 188.24 162.981ZM246.516 105.163C246.927 106.091 247.234 107.083 247.417 108.128L254.496 148.448C254.861 150.529 254.695 152.578 254.102 154.463C254.695 152.578 254.86 150.529 254.495 148.448L247.416 108.128C247.233 107.083 246.927 106.091 246.516 105.163ZM180.601 114.364C180.498 114.74 180.412 115.121 180.345 115.507C180.412 115.121 180.498 114.74 180.601 114.364ZM189.127 105.538C189.083 105.552 189.04 105.566 188.996 105.58C189.033 105.568 189.07 105.555 189.107 105.544L189.127 105.538ZM232.678 97.791L190.687 105.163L190.364 105.224C190.471 105.202 190.579 105.182 190.687 105.163L232.677 97.791H232.678ZM245.629 103.507C245.897 103.929 246.143 104.37 246.361 104.827C246.143 104.37 245.897 103.929 245.629 103.507ZM234.551 97.6016C234.64 97.5992 234.729 97.5992 234.817 97.5986C234.729 97.5992 234.64 97.5992 234.551 97.6016ZM245.921 162.747C245.855 162.769 245.788 162.79 245.722 162.811C245.788 162.79 245.855 162.769 245.921 162.747ZM187.871 161.994C187.881 162.025 187.89 162.056 187.9 162.086C187.89 162.056 187.881 162.025 187.871 161.994ZM188.027 162.443C188.019 162.422 188.011 162.4 188.003 162.378C188.011 162.4 188.019 162.422 188.027 162.443ZM188.037 105.929C188.101 105.902 188.166 105.876 188.23 105.851C188.166 105.876 188.101 105.902 188.037 105.929ZM234.282 97.6113C234.372 97.607 234.461 97.604 234.551 97.6016C234.461 97.604 234.372 97.607 234.282 97.6113Z"/>
  <path fill="currentColor" d="M112.411 170.625C112.556 170.646 112.7 170.664 112.844 170.679C112.7 170.664 112.556 170.646 112.411 170.625ZM68.5723 162.85C68.9337 162.957 69.3025 163.051 69.6787 163.126C69.7859 163.148 69.8937 163.168 70.002 163.187V163.188C69.5134 163.102 69.0367 162.988 68.5723 162.85ZM71.2578 108.92C72.0358 104.489 76.2591 101.527 80.6904 102.304L122.682 109.677C127.113 110.455 130.076 114.679 129.298 119.111L122.219 159.43C121.441 163.862 117.217 166.824 112.785 166.046L70.7939 158.673C66.3628 157.895 63.401 153.672 64.1787 149.241L71.2578 108.92ZM125.521 163.834C125.344 164.18 125.152 164.516 124.945 164.841C125.152 164.516 125.344 164.18 125.521 163.834ZM67.6328 162.532C67.7974 162.595 67.9637 162.655 68.1318 162.711C67.9637 162.655 67.7974 162.595 67.6328 162.532ZM67.1035 162.315C67.2457 162.377 67.389 162.438 67.5342 162.495C67.389 162.438 67.2457 162.377 67.1035 162.315ZM126.442 161.494C126.373 161.741 126.294 161.983 126.211 162.223C126.262 162.076 126.312 161.928 126.358 161.778L126.442 161.494ZM64.6934 160.929C64.9816 161.14 65.2787 161.341 65.5859 161.528C65.2787 161.341 64.9817 161.14 64.6934 160.929ZM126.623 160.769C126.605 160.853 126.585 160.936 126.565 161.019C126.585 160.936 126.605 160.853 126.623 160.769ZM59.6602 152.843C59.7266 153.223 59.8112 153.598 59.9111 153.967C59.8112 153.598 59.7266 153.223 59.6602 152.843ZM59.5117 151.677C59.5418 152.052 59.5888 152.424 59.6514 152.791C59.5888 152.424 59.5418 152.052 59.5117 151.677ZM59.4873 151.295C59.4479 150.506 59.4824 149.703 59.5957 148.893C59.4824 149.703 59.4479 150.506 59.4873 151.295ZM66.9463 107.184C66.8677 107.494 66.8003 107.809 66.7441 108.128L59.665 148.448L66.7441 108.127C66.7821 107.911 66.8257 107.697 66.874 107.486L66.9463 107.184ZM134 118.006C133.992 118.318 133.974 118.632 133.942 118.947C133.974 118.632 133.992 118.318 134 118.006ZM67.5215 105.453C67.3709 105.817 67.2357 106.19 67.1182 106.573C67.2357 106.19 67.3709 105.817 67.5215 105.453ZM125.037 105.539C124.734 105.445 124.425 105.363 124.111 105.292L124.117 105.292C124.429 105.364 124.736 105.446 125.037 105.539ZM67.7656 104.899C67.6931 105.053 67.6232 105.209 67.5566 105.367C67.6232 105.209 67.6931 105.053 67.7656 104.899ZM68.8867 102.976C68.5372 103.47 68.221 103.991 67.9424 104.537C68.221 103.991 68.5371 103.47 68.8867 102.976ZM80.5654 97.6636C80.7629 97.6838 80.9609 97.7081 81.1592 97.7378C80.9609 97.7081 80.7629 97.6838 80.5654 97.6636ZM125.921 162.982C125.9 163.031 125.878 163.08 125.856 163.128C125.878 163.08 125.9 163.031 125.921 162.982ZM59.6123 148.772L59.6133 148.767C59.607 148.809 59.6016 148.851 59.5957 148.893C59.6013 148.853 59.6063 148.812 59.6123 148.772ZM59.4971 151.469C59.4934 151.411 59.4902 151.353 59.4873 151.295C59.4902 151.353 59.4934 151.411 59.4971 151.469ZM133.979 116.88C133.982 116.937 133.985 116.993 133.988 117.049C133.985 116.993 133.982 116.937 133.979 116.88ZM133.994 117.205C133.996 117.255 133.999 117.305 134 117.356C133.999 117.305 133.996 117.255 133.994 117.205ZM134.003 117.544C134.003 117.586 134.004 117.628 134.004 117.669C134.004 117.628 134.003 117.586 134.003 117.544ZM134.002 117.865C134.001 117.909 134.002 117.953 134.001 117.997C134.002 117.953 134.001 117.909 134.002 117.865Z"/>
  <circle fill="currentColor" cx="110.763" cy="77.1502" r="14.5135"/>
  <circle fill="currentColor" cx="202.429" cy="77.1477" r="14.5135"/>
</svg>
