<?xml version="1.0"?>
<svg version="1.1" id="Layer_1" xmlns="http://www.w3.org/2000/svg" x="0px" y="0px" viewBox="0 0 32 32" enable-background="new 0 0 32 32">
  <g>
    <path fill="white" d="M23.32,28.28C23,25.55,20.68,23.52,18,23.52h-3.78c-2.73,0-5,2.03-5.33,4.76L8.56,30.8h15.09L23.32,28.28z"/>
    <path fill="white" d="M16.08,22.15c2.82,0,5.1-2.28,5.1-5.1c0-2.82-2.28-5.1-5.1-5.1s-5.1,2.28-5.1,5.1
			C10.98,19.86,13.27,22.15,16.08,22.15z"/>
    <g>
      <path fill="white" d="M24.09,10.21c-0.94-1.22-2.18-2.23-3.57-2.9c-1.39-0.68-2.94-1.02-4.48-1.01l-0.02,0L16,6.3
				c-0.03,0-0.05,0-0.08,0c-1.52,0-3.04,0.35-4.4,1.01c-1.39,0.68-2.62,1.68-3.57,2.9c-0.94,1.22-1.6,2.67-1.91,4.18
				c-0.3,1.51-0.25,3.1,0.15,4.59c0.14,0.55,0.62,0.92,1.18,0.92c0.01,0,0.02,0,0.04,0h0.27l0.03-0.01c0.32-0.08,0.59-0.29,0.76-0.57
				l0.07-0.1c0.14-0.21,0.18-0.46,0.11-0.7L8.6,18.38c-0.18-0.62-0.27-1.27-0.29-1.92c0-4.24,3.45-7.68,7.69-7.68h0.04
				c4.24,0,7.69,3.45,7.69,7.68c-0.02,0.65-0.11,1.3-0.29,1.92l-0.04,0.15c-0.07,0.24-0.03,0.49,0.11,0.7l0.07,0.1
				c0.17,0.28,0.44,0.49,0.76,0.57l0.03,0.01l0.26,0c0.01,0,0.02,0,0.04,0c0.56,0,1.04-0.37,1.18-0.92c0.4-1.49,0.46-3.08,0.15-4.59
				C25.69,12.88,25.04,11.44,24.09,10.21z"/>
      <path fill="white" d="M16.02,0.68c-8.83,0-15.99,7.16-16,15.99h0.01c-0.02,2.68,0.74,5.31,2.18,7.57l0,0.01l0.01,0.01
				c0.37,0.43,1,0.51,1.47,0.19c0.47-0.32,0.62-0.94,0.36-1.44l0,0l0,0c-1.19-1.89-1.81-4.09-1.79-6.32v0v0
				c0-7.6,6.16-13.76,13.76-13.76c7.6,0,13.76,6.16,13.76,13.76v0v0c0.03,2.24-0.59,4.43-1.79,6.32l0,0l0,0
				c-0.26,0.5-0.11,1.12,0.36,1.44c0.47,0.32,1.1,0.24,1.47-0.19l0.01-0.01l0-0.01c1.45-2.26,2.2-4.89,2.18-7.57h0.01
				C32.02,7.84,24.86,0.68,16.02,0.68"/>
    </g>
  </g>
</svg>
