<?xml version="1.0"?>
<svg xmlns="http://www.w3.org/2000/svg" viewBox="0 0 74 74" fill="none">
  <path fill="currentColor" d="M37 10.3599C27.6285 10.3599 19.98 17.9072 19.98 27.1949C19.98 32.8877 22.3457 35.9972 24.3969 38.4564C26.2758 40.7094 27.8247 42.4021 28.0737 46.0414C27.2441 46.3582 26.64 47.1509 26.64 48.0764V52.5627C26.64 53.6047 27.407 54.5044 28.3975 54.7133L30.0394 61.0267C30.041 61.0337 30.0377 61.0429 30.0394 61.0499C30.2774 61.9874 30.836 62.8416 31.6119 63.2467C32.3935 63.6548 33.1174 63.6399 33.6931 63.6399H40.3069C40.8826 63.6399 41.6064 63.6548 42.3881 63.2467C43.164 62.8416 43.7226 61.9874 43.9606 61.0499C43.9623 61.0429 43.9589 61.0337 43.9606 61.0267L45.6025 54.7133C46.593 54.5045 47.36 53.6047 47.36 52.5627V48.0764C47.36 47.1509 46.7558 46.3582 45.9262 46.0414C46.1753 42.4021 47.7242 40.7094 49.6031 38.4564C51.6543 35.9967 54.02 32.8874 54.02 27.1949C54.02 17.9072 46.3715 10.3599 37 10.3599ZM37 13.3199C44.7909 13.3199 51.06 19.5266 51.06 27.1949C51.06 32.132 49.3557 34.1398 47.3369 36.5608C45.4799 38.7878 43.3032 41.4093 42.9662 45.8799H31.0337C30.6967 41.409 28.5201 38.7876 26.6631 36.5608C24.6443 34.1399 22.94 32.1324 22.94 27.1949C22.94 19.5266 29.209 13.3199 37 13.3199ZM29.6 48.8399H44.4V51.7999H29.6V48.8399ZM31.4731 54.7599H42.5269L41.0931 60.3099V60.333C41.0411 60.5428 41.0153 60.6064 41.0006 60.6336C41.0329 60.6168 40.8045 60.6799 40.3069 60.6799H33.6931C33.1954 60.6799 32.9671 60.6168 32.9994 60.6336C32.9847 60.6064 32.9589 60.5428 32.9069 60.333V60.3099L31.4731 54.7599Z"/>
</svg>
