<?xml version="1.0"?>
<svg xmlns="http://www.w3.org/2000/svg" width="1000" height="702" viewBox="0 0 1000 702" fill="none">
  <path onClick="" stroke="currentColor" d="M694.368 1.25157C694.368 1.25157 672.229 15.0293 659.901 19.0868C801.178 33.1321 865.608 69.293 882.841 83.5167C856.713 0.226047 694.368 1.25157 694.368 1.25157Z" stroke-width="4" stroke-miterlimit="10"/>
  <path onClick="" stroke="currentColor" d="M300.196 1.25157C300.196 1.25157 322.334 15.0293 334.663 19.0868C193.385 33.1321 128.955 69.293 111.722 83.5167C137.94 0.226047 300.196 1.25157 300.196 1.25157Z" stroke-width="4" stroke-miterlimit="10"/>
  <path stroke="currentColor" opacity="0.5" d="M911.939 117.066C905.25 99.2311 881.842 82.5106 881.842 82.5106C859.547 0.0225475 694.571 2.25196 694.571 2.25196C694.571 2.25196 666.905 18.2591 656.672 17.8578C614.67 16.2303 556.348 15.3832 498.384 15.3609H496.154C438.19 15.3609 379.869 16.2303 337.866 17.8578C327.634 18.2591 299.967 2.25196 299.967 2.25196C299.967 2.25196 134.991 0.0225475 112.697 82.5106C112.697 82.5106 89.2877 99.2311 82.5995 117.066C82.1313 118.337 81.3288 120.633 80.3701 123.755C80.4147 123.554 121.971 46.8401 353.472 42.3813C433.352 40.843 475.354 40.3748 496.154 40.3971H498.384C519.184 40.3971 561.186 40.843 641.066 42.3813C872.567 46.8401 914.123 123.554 914.257 123.799C913.209 120.633 912.407 118.337 911.939 117.066Z" stroke-width="4" stroke-miterlimit="10"/>
  <path stroke="currentColor" opacity="0.5" d="M943.306 224.077C916.709 295.418 741.188 498.004 741.188 498.004C771.486 523.977 832.594 652.123 832.594 652.123C861.576 710.088 997.57 730.152 993.111 571.864C989.455 438.501 964.508 310.377 943.306 224.077Z" stroke-width="4" stroke-miterlimit="10"/>
  <path stroke="currentColor" opacity="0.5" d="M53.2605 224.077C79.8574 295.418 255.378 498.004 255.378 498.004C225.081 523.932 163.973 652.123 163.973 652.123C134.991 710.088 -1.00325 730.152 3.45556 571.864C7.13408 438.501 32.0812 310.377 53.2605 224.077Z" stroke-width="4" stroke-miterlimit="10"/>
  <path stroke="currentColor" d="M734.93 496.064C710.83 488.016 498.613 493.835 498.613 493.835C498.613 493.835 285.303 488.016 261.293 496.064C234.54 504.982 163.199 654.352 163.199 654.352C134.217 712.317 -1.77718 732.381 2.68164 574.094C9.05774 348.121 76.252 137.13 82.9402 119.295C89.6285 101.46 113.037 84.739 113.037 84.739C193.964 38.9419 244.114 27.2742 338.207 20.0862C423.928 16.7421 577.757 16.7421 658.016 20.0862C752.264 28.5608 802.05 41.4417 883.185 84.739C883.185 84.739 906.594 101.46 913.282 119.295C919.971 137.13 987.187 348.121 993.541 574.094C998 732.381 862.006 712.317 833.024 654.352C833.024 654.352 761.683 504.982 734.93 496.064Z" stroke-width="8" stroke-miterlimit="10"/>
  <path fill="currentColor" d="M476.09 53.7728C472.386 54.4355 468.949 56.1434 466.184 58.6952C463.419 61.2469 461.441 64.5361 460.484 68.1748C459.793 70.8501 459.748 72.4107 459.815 93.1441C459.815 112.183 459.815 112.629 460.194 114.101C460.974 117.892 462.845 121.373 465.579 124.114C468.312 126.856 471.787 128.737 475.577 129.528C479.205 129.916 482.856 130.028 486.501 129.862C495.418 129.862 496.288 129.862 496.511 129.662C496.734 129.461 496.779 126.385 496.779 91.7619C496.779 66.1014 496.779 54.0181 496.622 53.862C496.466 53.706 496.154 53.5276 486.791 53.5276C483.222 53.4292 479.65 53.5111 476.09 53.7728V53.7728ZM490.402 91.6727V123.709H483.959C481.374 123.886 478.777 123.751 476.223 123.308C473.758 122.708 471.513 121.419 469.753 119.591C467.992 117.763 466.788 115.472 466.28 112.986C465.946 111.381 465.946 72.0317 466.28 70.4711C466.736 68.2936 467.721 66.2617 469.148 64.5549C470.575 62.848 472.4 61.5186 474.462 60.684C476.558 59.8368 477.516 59.7476 484.294 59.7253H490.402V91.6727Z"/>
  <path fill="currentColor" d="M477.36 69.3567C476.148 69.664 475.016 70.2264 474.039 71.0065C473.21 71.7345 472.56 72.645 472.143 73.6662C471.725 74.6875 471.55 75.7917 471.631 76.8921C471.613 77.8062 471.844 78.7079 472.3 79.5005C473.004 80.9933 474.2 82.1979 475.688 82.9115C476.511 83.3697 477.446 83.5861 478.386 83.5358C479.244 83.6304 480.113 83.5313 480.927 83.2459C482.558 82.7413 483.952 81.6653 484.853 80.2154C485.754 78.7656 486.102 77.0394 485.832 75.3538C485.679 74.3996 485.336 73.4855 484.825 72.6651C484.314 71.8448 483.645 71.1346 482.856 70.5761C482.067 70.0177 481.175 69.6222 480.231 69.4128C479.287 69.2034 478.312 69.1844 477.36 69.3567V69.3567Z"/>
  <path fill="currentColor" d="M504.336 53.6396C504.336 53.6396 504.336 70.8283 504.336 91.7402C504.336 126.229 504.336 129.64 504.604 129.818C504.871 129.997 517.289 129.818 518.805 129.818C521.989 129.44 525.033 128.293 527.674 126.475C530.316 124.657 532.475 122.224 533.965 119.385C534.422 118.489 534.824 117.565 535.169 116.62C536.15 113.633 536.128 114.391 536.128 91.6956C536.128 73.5705 536.128 70.8729 535.882 69.7136C535.163 65.7276 533.227 62.0619 530.341 59.2198C527.455 56.3777 523.76 54.4985 519.764 53.8403C517.001 53.5624 514.222 53.4805 511.448 53.595C507.547 53.5282 504.381 53.5282 504.336 53.6396ZM521.235 88.0839C522.454 88.4101 523.575 89.0295 524.5 89.8883C525.425 90.7471 526.126 91.8192 526.541 93.0109C527.065 94.6495 527.065 96.4108 526.541 98.0494C526.005 99.5837 524.996 100.908 523.659 101.832C522.322 102.755 520.726 103.23 519.102 103.188C517.477 103.146 515.908 102.589 514.62 101.597C513.333 100.605 512.394 99.2304 511.939 97.6704C511.561 96.2081 511.561 94.6739 511.939 93.2116C512.527 91.3227 513.824 89.7346 515.556 88.779C517.288 87.8234 519.323 87.5744 521.235 88.0839V88.0839Z"/>
  <path fill="currentColor" d="M547.609 141.344C546.434 141.718 545.434 142.504 544.791 143.556C544.148 144.608 543.906 145.857 544.109 147.073C544.215 147.857 544.512 148.603 544.975 149.245C545.438 149.886 546.051 150.404 546.762 150.752C547.66 151.242 548.689 151.438 549.704 151.314C550.719 151.19 551.671 150.752 552.424 150.061C552.937 149.597 553.351 149.035 553.642 148.409C553.932 147.782 554.094 147.103 554.117 146.412C554.14 145.721 554.023 145.033 553.775 144.389C553.526 143.744 553.15 143.156 552.67 142.659C552.005 142.033 551.192 141.584 550.308 141.354C549.423 141.124 548.495 141.12 547.609 141.344V141.344ZM550.396 143.573C550.848 143.786 551.233 144.119 551.508 144.536C551.783 144.953 551.938 145.437 551.956 145.936C552.037 146.554 551.907 147.18 551.587 147.714C551.268 148.248 550.777 148.659 550.195 148.879C549.7 149.067 549.164 149.119 548.643 149.028C548.122 148.937 547.634 148.707 547.233 148.362C546.831 148.018 546.53 147.571 546.361 147.07C546.191 146.568 546.161 146.03 546.271 145.513C546.347 145.1 546.52 144.71 546.776 144.377C547.032 144.044 547.363 143.776 547.743 143.596C548.161 143.403 548.617 143.309 549.077 143.321C549.537 143.332 549.988 143.449 550.396 143.662V143.573Z"/>
  <path fill="currentColor" d="M441.601 146.271V151.109H442.604H443.585V148.055V145.001L445.814 148.077L448.044 151.176H449.337H450.295V141.679H449.314H448.311V147.921L446.082 144.8L443.741 141.701H441.757L441.601 146.271Z"/>
  <path fill="currentColor" d="M457.429 146.272V151.087H459.48V141.456H457.429V146.272Z"/>
  <path fill="currentColor" d="M466.682 141.657C466.682 141.657 466.682 143.886 466.682 146.428V151.02H467.662H468.643V144.711L471.029 147.899L473.392 151.087H475.287V141.456H473.236V144.488V147.52L471.007 144.488L468.777 141.456H467.841C467.172 141.456 466.726 141.501 466.682 141.657Z"/>
  <path fill="currentColor" d="M482.042 141.568C481.977 141.906 481.977 142.254 482.042 142.593V143.507H485.007V151.087H487.237V143.507H490.246V141.456H486.233C484.835 141.416 483.436 141.453 482.042 141.568V141.568Z"/>
  <path fill="currentColor" d="M497.113 146.271V151.087H504.537V149.192H499.008V146.962H504.069V145.223H499.008V143.328H501.75H504.47V142.414V141.522H497.024L497.113 146.271Z"/>
  <path fill="currentColor" d="M512.362 141.657C512.362 141.657 512.362 143.886 512.362 146.428V151.02H513.365H514.346V144.711L516.732 147.899L519.095 151.087H520.99V141.456H518.939V144.488V147.52L516.709 144.488L514.48 141.456H513.544C512.763 141.456 512.429 141.501 512.362 141.657Z"/>
  <path fill="currentColor" d="M529.06 146.249V151.087H531.156C532.765 151.283 534.394 150.947 535.793 150.128C536.492 149.647 537.048 148.987 537.403 148.217C537.759 147.447 537.901 146.596 537.814 145.752C537.727 144.909 537.415 144.104 536.911 143.423C536.406 142.741 535.728 142.208 534.946 141.879C533.884 141.491 532.747 141.354 531.624 141.478H529.06V146.249ZM534.233 143.796C534.882 144.135 535.373 144.713 535.602 145.409C535.831 146.104 535.78 146.862 535.459 147.52C534.946 148.567 533.92 149.036 532.115 149.036H530.955V143.507H532.271C532.938 143.469 533.605 143.567 534.233 143.796V143.796Z"/>
  <path fill="currentColor" d="M524.29 155.389C522.061 155.666 520.008 156.743 518.515 158.421C516.817 160.22 515.894 162.613 515.944 165.086C515.994 167.559 517.014 169.914 518.783 171.642C519.973 172.926 521.53 173.813 523.242 174.183C524.657 174.556 526.138 174.599 527.572 174.309C529.006 174.019 530.354 173.404 531.513 172.511C532.449 171.82 533.742 170.46 533.564 170.282C533.386 170.104 532.873 169.613 532.115 168.944L530.71 167.718L530.287 168.275C529.785 168.909 529.156 169.43 528.441 169.806C527.726 170.183 526.941 170.405 526.134 170.46C525.328 170.514 524.52 170.4 523.761 170.123C523.001 169.847 522.308 169.415 521.726 168.855C521.322 168.406 520.97 167.912 520.678 167.384C520.272 166.651 520.115 165.806 520.232 164.976C520.123 164.166 520.263 163.342 520.633 162.613C521.217 161.405 522.207 160.442 523.43 159.891C524.653 159.341 526.031 159.239 527.322 159.603C528.466 159.925 529.495 160.567 530.287 161.453L530.822 162.122L531.513 161.543C531.914 161.253 532.561 160.651 532.984 160.272L533.787 159.558L533.163 158.8C532.104 157.515 530.73 156.525 529.175 155.927C527.62 155.329 525.937 155.144 524.29 155.389Z"/>
  <path fill="currentColor" d="M446.06 156.08C442.314 157.084 440.352 159.603 441.199 162.434C441.801 164.552 443.786 165.578 449.092 166.514C452.636 167.16 453.684 167.673 453.684 168.743C453.684 169.524 453.238 170.103 452.235 170.549C451.232 170.995 451.187 170.973 449.047 170.973C447.174 171.1 445.299 170.739 443.607 169.925C443.259 169.729 442.883 169.586 442.492 169.501C442.314 169.724 440.798 172.533 440.843 172.556C442.053 173.114 443.305 173.576 444.588 173.938C447.01 174.426 449.498 174.502 451.945 174.161C455.468 173.492 457.229 171.931 457.385 169.122C457.559 168.21 457.409 167.265 456.962 166.451C456.514 165.637 455.796 165.005 454.933 164.664C453.141 163.817 451.232 163.245 449.27 162.969C446.617 162.456 445.837 162.211 445.302 161.676C445.067 161.438 444.936 161.118 444.936 160.784C444.936 160.451 445.067 160.13 445.302 159.893C446.439 158.756 450.518 158.711 453.684 159.893C454.023 160.035 454.387 160.11 454.754 160.115C455.221 159.149 455.638 158.16 456.003 157.15C454.781 156.649 453.511 156.275 452.213 156.036C450.175 155.691 448.092 155.706 446.06 156.08V156.08Z"/>
  <path fill="currentColor" d="M459.547 156.08C459.547 156.237 460.707 160.183 462 164.82C463.293 169.457 464.43 173.425 464.474 173.559C464.519 173.693 464.809 173.849 466.704 173.849H468.933L469.112 173.247C470.672 167.584 472.255 162.256 472.322 162.457C472.389 162.657 473.125 165.176 473.972 168.231L475.532 173.76H477.762H479.991L482.51 164.954C483.893 160.093 485.03 156.036 485.096 155.924C485.163 155.813 484.695 155.724 483.157 155.724H481.173L480.95 156.459C480.95 156.905 480.08 159.737 479.278 162.791C478.475 165.845 477.739 168.387 477.695 168.387C477.65 168.387 476.892 165.979 476.045 163.036C475.198 160.093 474.351 157.262 474.172 156.705L473.883 155.701H472.255H470.65L468.799 162.011C467.796 165.489 466.949 168.387 466.927 168.431C466.905 168.476 466.213 165.912 465.366 162.724C464.519 159.536 463.716 156.66 463.627 156.281L463.449 155.612H461.465C459.614 155.835 459.458 155.858 459.547 156.08Z"/>
  <path fill="currentColor" d="M489.466 164.842V173.76H493.568V164.842V155.925H491.562H489.555L489.466 164.842Z"/>
  <path fill="currentColor" d="M497.893 157.82V159.782H503.601V173.916H507.547V159.826H510.356H513.165V156.036H505.54H497.893V157.82Z"/>
  <path fill="currentColor" d="M537.599 164.843V173.76H541.389V166.648H549.772V173.916H553.562V164.999V156.081H551.711H549.839V163.215H541.456V156.103H537.666L537.599 164.843Z"/>
  <path stroke="currentColor" d="M439.305 192.866H417.01C413.317 192.866 410.322 195.861 410.322 199.554V221.848C410.322 225.542 413.317 228.537 417.01 228.537H439.305C442.998 228.537 445.993 225.542 445.993 221.848V199.554C445.993 195.861 442.998 192.866 439.305 192.866Z" stroke-width="4" stroke-miterlimit="10"/>
  <path stroke="currentColor" d="M428.157 224.078C435.545 224.078 441.534 218.089 441.534 210.702C441.534 203.314 435.545 197.325 428.157 197.325C420.77 197.325 414.781 203.314 414.781 210.702C414.781 218.089 420.77 224.078 428.157 224.078Z" stroke-width="2" stroke-miterlimit="10"/>
  <path stroke="currentColor" d="M569.658 230.766C580.739 230.766 589.723 221.783 589.723 210.701C589.723 199.62 580.739 190.637 569.658 190.637C558.577 190.637 549.593 199.62 549.593 210.701C549.593 221.783 558.577 230.766 569.658 230.766Z" stroke-width="4" stroke-miterlimit="10"/>
  <path stroke="currentColor" d="M577.661 206.242H561.632V220.533H577.661V206.242Z" stroke-width="2" stroke-miterlimit="10"/>
  <path fill="currentColor" d="M569.658 207.357H557.619L563.638 202.541L569.658 197.748L575.655 202.541L581.674 207.357H569.658Z"/>
  <path fill="currentColor" d="M570.929 211.815H568.409C567.794 211.815 567.295 212.314 567.295 212.93V215.449C567.295 216.065 567.794 216.564 568.409 216.564H570.929C571.544 216.564 572.043 216.065 572.043 215.449V212.93C572.043 212.314 571.544 211.815 570.929 211.815Z"/>
  <path onClick="" stroke="currentColor" d="M622.116 154.966C633.197 154.966 642.18 145.983 642.18 134.902C642.18 123.82 633.197 114.837 622.116 114.837C611.034 114.837 602.051 123.82 602.051 134.902C602.051 145.983 611.034 154.966 622.116 154.966Z" stroke-width="4" stroke-miterlimit="10"/>
  <path fill="currentColor" d="M634.935 132.248H624.902V122.216H620.444V132.248H610.411V136.707H620.444V146.739H624.902V136.707H634.935V132.248Z"/>
  <path onClick="" stroke="currentColor" d="M376.881 154.542C387.962 154.542 396.946 145.559 396.946 134.478C396.946 123.396 387.962 114.413 376.881 114.413C365.8 114.413 356.816 123.396 356.816 134.478C356.816 145.559 365.8 154.542 376.881 154.542Z" stroke-width="4" stroke-miterlimit="10"/>
  <path fill="currentColor" d="M389.143 136.707V132.248H364.619V136.707H389.143Z"/>
  <path onClick="" stroke="currentColor" d="M364.062 330.532H407.535C409.309 330.532 411.011 331.237 412.265 332.491C413.519 333.745 414.224 335.447 414.224 337.22V359.514C414.224 361.288 413.519 362.99 412.265 364.244C411.011 365.498 409.309 366.203 407.535 366.203H364.062L346.227 348.367L364.062 330.532Z" stroke-width="4" stroke-miterlimit="10"/>
  <path onClick="" stroke="currentColor" d="M284.918 330.532H328.392L346.227 348.367L328.392 366.203H284.918C283.144 366.203 281.443 365.498 280.189 364.244C278.935 362.99 278.23 361.288 278.23 359.514V337.22C278.23 335.447 278.935 333.745 280.189 332.491C281.443 331.237 283.144 330.532 284.918 330.532Z" stroke-width="4" stroke-miterlimit="10"/>
  <path onClick="" stroke="currentColor" d="M328.392 409.676V366.202L346.227 348.367L364.062 366.202V409.676C364.062 411.45 363.357 413.151 362.103 414.405C360.849 415.659 359.148 416.364 357.374 416.364H335.08C333.306 416.364 331.605 415.659 330.35 414.405C329.096 413.151 328.392 411.45 328.392 409.676Z" stroke-width="4" stroke-miterlimit="10"/>
  <path onClick="" stroke="currentColor" d="M364.062 287.058V330.532L346.227 348.367L328.392 330.532V287.058C328.392 285.285 329.096 283.583 330.35 282.329C331.605 281.075 333.306 280.37 335.08 280.37H357.374C359.148 280.37 360.849 281.075 362.103 282.329C363.357 283.583 364.062 285.285 364.062 287.058Z" stroke-width="4" stroke-miterlimit="10"/>
  <path stroke="currentColor" d="M407.536 330.532H364.062V287.058C364.062 285.285 363.358 283.583 362.103 282.329C360.849 281.075 359.148 280.37 357.374 280.37H335.08C333.306 280.37 331.605 281.075 330.351 282.329C329.096 283.583 328.392 285.285 328.392 287.058V330.532H284.918C283.144 330.532 281.443 331.236 280.189 332.491C278.935 333.745 278.23 335.446 278.23 337.22V359.514C278.23 361.288 278.935 362.989 280.189 364.243C281.443 365.498 283.144 366.202 284.918 366.202H328.392V409.676C328.392 411.449 329.096 413.151 330.351 414.405C331.605 415.659 333.306 416.364 335.08 416.364H357.374C359.148 416.364 360.849 415.659 362.103 414.405C363.358 413.151 364.062 411.449 364.062 409.676V366.202H407.536C409.309 366.202 411.011 365.498 412.265 364.243C413.519 362.989 414.224 361.288 414.224 359.514V337.22C414.224 335.446 413.519 333.745 412.265 332.491C411.011 331.236 409.309 330.532 407.536 330.532V330.532Z" stroke-width="4" stroke-miterlimit="10"/>
  <path fill="currentColor" d="M345.848 305.451H340.274L343.061 300.101L345.848 294.75L348.634 300.101L351.421 305.451H345.848Z"/>
  <path fill="currentColor" d="M345.848 392.397H340.274L343.061 397.748L345.848 403.099L348.634 397.748L351.421 392.397H345.848Z"/>
  <path fill="currentColor" d="M389.143 348.924V343.351L394.493 346.137L399.822 348.924L394.493 351.711L389.143 354.498V348.924Z"/>
  <path fill="currentColor" d="M302.196 348.924V343.351L296.845 346.137L291.495 348.924L296.845 351.711L302.196 354.498V348.924Z"/>
  <path fill="#8B929A" d="M683.647 222.517V212.373L676.09 198.573H679.255L683.112 205.797C683.87 207.223 684.539 208.583 685.119 209.854C685.698 208.606 686.412 207.201 687.348 205.618L691.16 198.573H694.17L686.322 212.373V222.517H683.647Z"/>
  <path fill="#8B929A" d="M754.364 155.479L761.989 142.994L755.3 131.535H758.377L761.966 137.666C762.547 138.621 763.069 139.611 763.527 140.631C763.995 139.696 764.516 138.788 765.088 137.911L769.056 131.535H771.843L764.976 142.816L772.4 155.479H769.19L764.24 146.94C763.931 146.42 763.648 145.884 763.393 145.335C762.947 146.205 762.635 146.807 762.434 147.141L757.508 155.479H754.364Z"/>
  <path fill="#8B929A" d="M755.947 287.014V263.092H763.326C764.548 263.038 765.765 263.283 766.871 263.806C767.825 264.304 768.603 265.082 769.101 266.035C769.666 267.018 769.959 268.134 769.948 269.268C769.964 270.303 769.71 271.325 769.212 272.233C768.757 273.115 768.061 273.849 767.205 274.351C768.32 274.776 769.261 275.561 769.881 276.58C770.579 277.685 770.929 278.975 770.884 280.281C770.906 281.606 770.6 282.916 769.992 284.093C769.461 285.115 768.628 285.948 767.607 286.479C766.32 287.029 764.925 287.28 763.527 287.215L755.947 287.014ZM758.555 273.147H762.813C763.609 273.181 764.405 273.098 765.177 272.902C765.811 272.711 766.361 272.31 766.737 271.765C767.151 271.098 767.346 270.318 767.295 269.535C767.333 268.759 767.155 267.988 766.782 267.306C766.496 266.77 766.03 266.351 765.467 266.124C764.504 265.847 763.501 265.734 762.501 265.79H758.555V273.147ZM758.555 284.294H763.438C764.244 284.336 765.051 284.238 765.823 284.004C766.537 283.765 767.139 283.273 767.518 282.622C767.936 281.875 768.136 281.025 768.097 280.17C768.109 279.391 767.917 278.622 767.54 277.94C767.199 277.34 766.676 276.864 766.046 276.58C765.106 276.233 764.104 276.082 763.103 276.134H758.645L758.555 284.294Z"/>
  <path fill="#8B929A" d="M832.26 222.517L839.817 198.573H842.604L850.63 222.517H847.665L845.435 215.272H837.164L834.935 222.517H832.26ZM837.878 212.685H844.566L842.537 205.997C841.891 203.946 841.445 202.296 841.155 201.026C840.888 202.571 840.524 204.097 840.062 205.596L837.878 212.685Z"/>
  <path onClick="" stroke="currentColor" d="M763.371 177.26C782.455 177.26 797.927 161.789 797.927 142.704C797.927 123.62 782.455 108.148 763.371 108.148C744.286 108.148 728.815 123.62 728.815 142.704C728.815 161.789 744.286 177.26 763.371 177.26Z" stroke-width="4" stroke-miterlimit="10"/>
  <path onClick="" stroke="currentColor" d="M841.445 245.101C860.529 245.101 876.001 229.63 876.001 210.545C876.001 191.46 860.529 175.989 841.445 175.989C822.36 175.989 806.889 191.46 806.889 210.545C806.889 229.63 822.36 245.101 841.445 245.101Z" stroke-width="4" stroke-miterlimit="10"/>
  <path onClick="" stroke="currentColor" d="M685.654 245.101C704.738 245.101 720.209 229.63 720.209 210.545C720.209 191.46 704.738 175.989 685.654 175.989C666.569 175.989 651.098 191.46 651.098 210.545C651.098 229.63 666.569 245.101 685.654 245.101Z" stroke-width="4" stroke-miterlimit="10"/>
  <path onClick="" stroke="currentColor" d="M763.371 308.795C782.455 308.795 797.927 293.324 797.927 274.239C797.927 255.155 782.455 239.684 763.371 239.684C744.286 239.684 728.815 255.155 728.815 274.239C728.815 293.324 744.286 308.795 763.371 308.795Z" stroke-width="4" stroke-miterlimit="10"/>
  <path stroke="currentColor" opacity="0.5" d="M631.301 427.222C674.395 427.222 709.33 392.287 709.33 349.192C709.33 306.098 674.395 271.163 631.301 271.163C588.207 271.163 553.272 306.098 553.272 349.192C553.272 392.287 588.207 427.222 631.301 427.222Z" stroke-width="4" stroke-miterlimit="10"/>
  <path stroke="currentColor" d="M631.301 406.042C662.698 406.042 688.151 380.589 688.151 349.192C688.151 317.794 662.698 292.342 631.301 292.342C599.904 292.342 574.451 317.794 574.451 349.192C574.451 380.589 599.904 406.042 631.301 406.042Z" stroke-width="3" stroke-miterlimit="10"/>
  <path onClick="" style="" stroke="currentColor" d="M631.301 389.321C653.464 389.321 671.43 371.355 671.43 349.192C671.43 327.029 653.464 309.062 631.301 309.062C609.138 309.062 591.172 327.029 591.172 349.192C591.172 371.355 609.138 389.321 631.301 389.321Z" stroke-width="4" stroke-miterlimit="10"/>
  <path stroke="currentColor" opacity="0.5" d="M223.32 288.998C266.414 288.998 301.349 254.063 301.349 210.969C301.349 167.874 266.414 132.939 223.32 132.939C180.225 132.939 145.29 167.874 145.29 210.969C145.29 254.063 180.225 288.998 223.32 288.998Z" stroke-width="4" stroke-miterlimit="10"/>
  <path stroke="currentColor" d="M223.32 267.819C254.717 267.819 280.169 242.366 280.169 210.969C280.169 179.572 254.717 154.119 223.32 154.119C191.922 154.119 166.47 179.572 166.47 210.969C166.47 242.366 191.922 267.819 223.32 267.819Z" stroke-width="3" stroke-miterlimit="10"/>
  <path onClick="" style="" stroke="currentColor" d="M223.319 251.098C245.482 251.098 263.449 233.132 263.449 210.969C263.449 188.806 245.482 170.84 223.319 170.84C201.157 170.84 183.19 188.806 183.19 210.969C183.19 233.132 201.157 251.098 223.319 251.098Z" stroke-width="4" stroke-miterlimit="10"/>
</svg>
