<?xml version="1.0"?>
<svg xmlns="http://www.w3.org/2000/svg" viewBox="0 0 36 36" fill="none">
  <path fill-rule="evenodd" clip-rule="evenodd" fill="currentColor" d="M18 36C27.9411 36 36 27.9411 36 18C36 8.05887 27.9411 0 18 0C8.05887 0 0 8.05887 0 18C0 27.9411 8.05887 36 18 36ZM20.4999 10.8201C19.7519 10.4974 18.8719 10.3361 17.8599 10.3361C16.9799 10.3361 16.1219 10.4681 15.2859 10.7321C14.4499 10.9961 13.7166 11.3407 13.0859 11.7661L14.0759 13.9881C15.0586 13.2547 16.1073 12.8881 17.2219 12.8881C17.9699 12.8881 18.5493 13.0494 18.9599 13.3721C19.3853 13.6801 19.5979 14.1201 19.5979 14.6921C19.5979 15.1027 19.4953 15.4474 19.2899 15.7261C19.0846 16.0047 18.7693 16.3201 18.3439 16.6721C17.8893 17.0681 17.5153 17.4347 17.2219 17.7721C16.9286 18.1094 16.6793 18.5641 16.4739 19.1361C16.2686 19.7081 16.1659 20.4047 16.1659 21.2261H18.8499C18.8499 20.6541 18.9453 20.1554 19.1359 19.7301C19.3266 19.2901 19.5539 18.9234 19.8179 18.6301C20.0966 18.3221 20.4633 17.9701 20.9179 17.5741C21.3579 17.1781 21.7026 16.8407 21.9519 16.5621C22.2159 16.2834 22.4359 15.9461 22.6119 15.5501C22.7879 15.1541 22.8759 14.6994 22.8759 14.1861C22.8759 13.4234 22.6706 12.7561 22.2599 12.1841C21.8493 11.5974 21.2626 11.1427 20.4999 10.8201ZM18.7839 23.2721C18.4759 22.9494 18.0653 22.7881 17.5519 22.7881C17.0386 22.7881 16.6279 22.9494 16.3199 23.2721C16.0119 23.5801 15.8579 23.9907 15.8579 24.5041C15.8579 25.0467 16.0119 25.4794 16.3199 25.8021C16.6279 26.1101 17.0386 26.2641 17.5519 26.2641C18.0653 26.2641 18.4759 26.1101 18.7839 25.8021C19.0919 25.4794 19.2459 25.0467 19.2459 24.5041C19.2459 23.9907 19.0919 23.5801 18.7839 23.2721Z"/>
</svg>
