<?xml version="1.0"?>
<svg width="36" height="36" viewBox="0 0 36 36" fill="none" xmlns="http://www.w3.org/2000/svg">
  <rect width="1.24994" height="2.49988" transform="matrix(1 0 0 -1 9.875 5.50098)" fill=" currentColor "/>
  <rect width="1.24994" height="2.49988" transform="matrix(1 0 0 -1 19.25 5.50098)" fill=" currentColor "/>
  <rect width="1.24994" height="2.49988" transform="matrix(1 0 0 -1 13 5.50098)" fill=" currentColor "/>
  <rect width="1.24994" height="2.49988" transform="matrix(1 0 0 -1 22.375 5.50098)" fill=" currentColor "/>
  <rect width="1.24994" height="2.49988" transform="matrix(1 0 0 -1 16.125 5.50098)" fill=" currentColor "/>
  <rect width="1.24994" height="2.49988" transform="matrix(1 0 0 -1 25.498 5.50098)" fill=" currentColor "/>
  <rect width="1.24994" height="2.49988" transform="matrix(1 0 0 -1 9.875 33)" fill=" currentColor "/>
  <rect width="1.24994" height="2.49988" transform="matrix(1 0 0 -1 19.25 33)" fill=" currentColor "/>
  <rect width="1.24994" height="2.49988" transform="matrix(1 0 0 -1 13 33)" fill=" currentColor "/>
  <rect width="1.24994" height="2.49988" transform="matrix(1 0 0 -1 22.375 33)" fill=" currentColor "/>
  <rect width="1.24994" height="2.49988" transform="matrix(1 0 0 -1 16.125 33)" fill=" currentColor "/>
  <rect width="1.24994" height="2.49988" transform="matrix(1 0 0 -1 25.498 33)" fill=" currentColor "/>
  <rect width="1.24994" height="2.49988" transform="matrix(-4.37114e-08 -1 -1 4.37114e-08 5.5 26.749)" fill=" currentColor "/>
  <rect width="1.24994" height="2.49988" transform="matrix(-4.37114e-08 -1 -1 4.37114e-08 5.5 17.375)" fill=" currentColor "/>
  <rect width="1.24994" height="2.49988" transform="matrix(-4.37114e-08 -1 -1 4.37114e-08 5.5 23.6245)" fill=" currentColor "/>
  <rect width="1.24994" height="2.49988" transform="matrix(-4.37114e-08 -1 -1 4.37114e-08 5.5 14.25)" fill=" currentColor "/>
  <rect width="1.24994" height="2.49988" transform="matrix(-4.37114e-08 -1 -1 4.37114e-08 5.5 20.4995)" fill=" currentColor "/>
  <rect width="1.24994" height="2.49988" transform="matrix(-4.37114e-08 -1 -1 4.37114e-08 5.5 11.1255)" fill=" currentColor "/>
  <rect width="1.24994" height="2.49988" transform="matrix(-4.37114e-08 -1 -1 4.37114e-08 32.998 26.75)" fill=" currentColor "/>
  <rect width="1.24994" height="2.49988" transform="matrix(-4.37114e-08 -1 -1 4.37114e-08 32.998 17.3755)" fill=" currentColor "/>
  <rect width="1.24994" height="2.49988" transform="matrix(-4.37114e-08 -1 -1 4.37114e-08 32.998 23.625)" fill=" currentColor "/>
  <rect width="1.24994" height="2.49988" transform="matrix(-4.37114e-08 -1 -1 4.37114e-08 32.998 14.251)" fill=" currentColor "/>
  <rect width="1.24994" height="2.49988" transform="matrix(-4.37114e-08 -1 -1 4.37114e-08 32.998 20.5)" fill=" currentColor "/>
  <rect width="1.24994" height="2.49988" transform="matrix(-4.37114e-08 -1 -1 4.37114e-08 32.998 11.1255)" fill=" currentColor "/>
  <path fill-rule="evenodd" clip-rule="evenodd" d="M29.2499 6.75H6.75098V29.2489H29.2499V6.75ZM17.1903 18.8109L15.3017 25.8956L23.8983 16.2309H19.7703L21.3183 9.52285L13.0623 18.8109H17.1903Z" fill="currentColor"/>
</svg>
