<?xml version="1.0"?>
<svg xmlns="http://www.w3.org/2000/svg" viewBox="0 0 158 104" fill="none">
  <path fill="currentColor" d="M104.786 2.92353C108.097 1.11393 111.973 0.630923 115.628 1.57237L120.881 2.92567C122.466 3.33401 123.277 3.54279 124.024 3.80057C127.331 4.94083 130.24 6.92355 132.491 9.50802L131.964 9.78224C129.791 7.3243 127.002 5.43753 123.836 4.34598C123.113 4.09662 122.326 3.89365 120.721 3.48016L115.484 2.13105C111.971 1.22612 108.245 1.6904 105.062 3.4298C100.73 5.79678 95.8733 7.03725 90.937 7.03725H67.0632C62.1269 7.03725 57.2697 5.79678 52.9379 3.4298C49.7547 1.6904 46.0292 1.22612 42.5164 2.13105L37.2794 3.48016C35.6743 3.89365 34.8873 4.09662 34.1641 4.34598C29.0433 6.11169 24.9066 9.95819 22.7738 14.9372C22.4726 15.6404 22.213 16.4106 21.684 17.9814L12.2569 45.9781L11.7102 45.794L21.1427 17.7813L21.1427 17.7812C21.665 16.23 21.9321 15.4369 22.2435 14.71C24.4404 9.58141 28.7014 5.61933 33.976 3.80057C34.7236 3.5428 35.534 3.33402 37.1191 2.9257L42.3725 1.57237C46.0271 0.630923 49.9029 1.11393 53.2146 2.92353C57.4615 5.24415 62.2236 6.46033 67.0632 6.46033H90.937C95.7766 6.46033 100.539 5.24415 104.786 2.92353Z"/>
  <path fill="currentColor" d="M146.29 45.794L145.743 45.9781L136.885 19.6722L137.394 19.3744L146.29 45.794Z"/>
  <path fill="currentColor" d="M53.4999 5.66579C49.906 4.60838 46.0944 4.53383 42.4619 5.44992L37.5508 6.68848C35.0528 7.31846 33.8522 7.62232 32.7649 8.04553C28.4475 9.72591 24.8971 12.9326 22.7873 17.0572C22.2559 18.096 21.8318 19.2595 20.9516 21.6807L18.0767 29.5886C14.0698 40.6104 11.0092 51.9535 8.92814 63.4949L7.84181 69.5196C7.12884 73.4736 7.32528 77.4413 8.31865 81.1672L7.28932 81.7781C6.17924 77.801 5.94254 73.5504 6.70627 69.3148L7.7926 63.2902C9.88532 51.6842 12.963 40.2777 16.9923 29.1943L19.8846 21.2386C20.7433 18.8765 21.1921 17.642 21.76 16.5317C23.9985 12.1555 27.7656 8.75316 32.3464 6.97026C33.5085 6.51794 34.7822 6.19671 37.2194 5.58208L42.1797 4.33111C46.0122 3.36457 50.0338 3.44322 53.8255 4.55886C57.7196 5.70459 61.7577 6.28633 65.8168 6.28633H92.1835C96.2426 6.28633 100.281 5.70459 104.175 4.55886C107.966 3.44322 111.988 3.36457 115.821 4.33111L119.278 5.20311C123.182 6.1875 125.222 6.70205 127.027 7.56435C128.526 8.28079 129.923 9.17682 131.189 10.2272L130.154 10.873C129.041 9.98693 127.826 9.22496 126.529 8.60546C124.841 7.79866 122.918 7.31109 118.917 6.30204L115.538 5.44992C111.906 4.53384 108.094 4.60838 104.5 5.66579C100.501 6.84264 96.3528 7.44018 92.1835 7.44018H65.8168C61.6474 7.44018 57.4996 6.84264 53.4999 5.66579Z"/>
  <path fill="currentColor" d="M19.9127 96.9282C24.5399 99.8467 30.6727 98.1985 33.2136 93.3537L40.0166 80.3824L40.0166 80.3823C41.9441 76.707 43.0235 74.6489 44.3872 73.0832L53.0628 68.0302C54.9736 67.6573 57.2453 67.6573 61.0592 67.6573H96.9411C101.389 67.6573 103.74 67.6573 105.867 68.249C108.714 69.0413 111.29 70.599 113.314 72.7528C114.826 74.3614 115.918 76.4428 117.984 80.3824L124.787 93.3537C127.328 98.1985 133.46 99.8467 138.088 96.9282C147.32 91.105 152.095 80.2619 150.158 69.5196L149.072 63.4949C146.991 51.9535 143.93 40.6104 139.924 29.5886L137.589 23.1659C137.123 21.8855 136.737 20.8247 136.394 19.9207L137.416 19.3612C137.774 20.2997 138.171 21.3901 138.645 22.6955L141.008 29.1944C145.037 40.2777 148.115 51.6842 150.208 63.2901L151.294 69.3148C153.314 80.5199 148.333 91.8301 138.703 97.9041C133.506 101.182 126.618 99.3309 123.765 93.8896L117.014 81.0179C114.883 76.954 113.864 75.0229 112.473 73.543C110.594 71.5429 108.202 70.0964 105.557 69.3606C103.601 68.8162 101.417 68.8112 96.8285 68.8112H61.1718C56.5829 68.8112 54.3997 68.8162 52.443 69.3606C49.7987 70.0964 47.4067 71.5429 45.5269 73.543C44.136 75.0229 43.1175 76.954 40.9862 81.0179L34.2355 93.8896C31.3818 99.3309 24.494 101.182 19.2971 97.9041C16.5645 96.1806 14.2062 94.0354 12.276 91.5907L13.287 91.0082C15.1177 93.2969 17.3425 95.3071 19.9127 96.9282Z"/>
  <path stroke="currentColor" opacity="0.5" d="M32.5004 95.9105L42.9827 73.7898M125.309 95.9105L117.638 79.7225C115.188 74.5517 113.962 71.9662 112.087 70.0741C110.429 68.4013 108.413 67.1259 106.191 66.3437C103.678 65.4591 100.817 65.4591 95.095 65.4591H57.6284" stroke-width="0.576923" stroke-miterlimit="10"/>
  <path stroke="currentColor" d="M109.641 22.7319C109.04 22.4582 108.373 22.3057 107.669 22.3057C105.211 22.3057 103.188 24.1673 102.932 26.5575" stroke-width="0.576923" stroke-miterlimit="10"/>
  <path stroke="currentColor" d="M130.074 23.5883C131.004 24.4578 131.586 25.696 131.586 27.0701C131.586 29.7013 129.453 31.8344 126.822 31.8344C124.56 31.8344 122.666 30.2582 122.179 28.1443" stroke-width="0.576923" stroke-miterlimit="10"/>
  <path stroke="currentColor" d="M121.692 15.7317C120.927 14.1229 119.287 13.0107 117.387 13.0107C114.756 13.0107 112.623 15.1438 112.623 17.7751C112.623 18.7761 112.932 19.7051 113.46 20.4719" stroke-width="0.576923" stroke-miterlimit="10"/>
  <path stroke="currentColor" d="M117.387 41.0694C120.018 41.0694 122.151 38.9363 122.151 36.305C122.151 33.6738 120.018 31.5407 117.387 31.5407C114.756 31.5407 112.623 33.6738 112.623 36.305C112.623 38.9363 114.756 41.0694 117.387 41.0694Z" stroke-width="0.576923" stroke-miterlimit="10"/>
  <path fill="currentColor" d="M37.1286 17.9551H37.4171H37.1286ZM37.1286 35.4951H36.8402H37.1286ZM37.1286 30.8665H36.8402H37.1286ZM37.1286 22.5837H36.8402H37.1286ZM41.5131 16.2946C42.4301 16.2946 43.1735 17.038 43.1735 17.9551H43.7505C43.7505 16.7194 42.7488 15.7177 41.5131 15.7177V16.2946ZM39.0775 16.2946H41.5131V15.7177H39.0775V16.2946ZM37.4171 17.9551C37.4171 17.038 38.1605 16.2946 39.0775 16.2946V15.7177C37.8419 15.7177 36.8402 16.7194 36.8402 17.9551H37.4171ZM37.4171 22.5837L37.4171 17.9551H36.8402L36.8402 22.5837L37.4171 22.5837ZM31.5262 23.8466H36.1542V23.2697H31.5262V23.8466ZM29.8657 25.5071C29.8657 24.59 30.6091 23.8466 31.5262 23.8466V23.2697C30.2905 23.2697 29.2888 24.2714 29.2888 25.5071H29.8657ZM29.8657 27.9432V25.5071H29.2888V27.9432H29.8657ZM31.5262 29.6036C30.6091 29.6036 29.8657 28.8602 29.8657 27.9432H29.2888C29.2888 29.1788 30.2905 30.1805 31.5262 30.1805V29.6036ZM36.1542 29.6036H31.5262V30.1805H36.1542V29.6036ZM37.4171 35.4951L37.4171 30.8665H36.8402L36.8402 35.4951H37.4171ZM39.0775 37.1555C38.1605 37.1555 37.4171 36.4121 37.4171 35.4951H36.8402C36.8402 36.7307 37.8418 37.7324 39.0775 37.7324V37.1555ZM41.5131 37.1555H39.0775V37.7324H41.5131V37.1555ZM43.1735 35.4951C43.1735 36.4121 42.4301 37.1555 41.5131 37.1555V37.7324C42.7488 37.7324 43.7505 36.7307 43.7505 35.4951H43.1735ZM43.1735 30.8665V35.4951H43.7505V30.8665H43.1735ZM49.0644 29.6036H44.4364V30.1805H49.0644V29.6036ZM50.7249 27.9432C50.7249 28.8602 49.9815 29.6036 49.0644 29.6036V30.1805C50.3001 30.1805 51.3018 29.1788 51.3018 27.9432H50.7249ZM50.7249 25.5071V27.9432H51.3018V25.5071H50.7249ZM49.0645 23.8466C49.9815 23.8466 50.7249 24.59 50.7249 25.5071H51.3018C51.3018 24.2714 50.3001 23.2697 49.0645 23.2697V23.8466ZM44.4364 23.8466H49.0645V23.2697H44.4364V23.8466ZM43.1735 17.9551V22.5837H43.7505V17.9551H43.1735ZM44.4364 23.2697C44.0576 23.2697 43.7505 22.9626 43.7505 22.5837H43.1735C43.1735 23.2812 43.739 23.8466 44.4364 23.8466V23.2697ZM43.7505 30.8665C43.7505 30.4876 44.0576 30.1805 44.4364 30.1805V29.6036C43.739 29.6036 43.1735 30.169 43.1735 30.8665H43.7505ZM36.1542 30.1805C36.533 30.1805 36.8402 30.4876 36.8402 30.8665H37.4171C37.4171 30.169 36.8517 29.6036 36.1542 29.6036V30.1805ZM36.8402 22.5837C36.8402 22.9626 36.533 23.2697 36.1542 23.2697V23.8466C36.8517 23.8466 37.4171 23.2812 37.4171 22.5837L36.8402 22.5837Z"/>
  <path stroke="currentColor" opacity="0.5" d="M56.6159 6.01793L58.5042 6.64741C60.9769 7.4717 62.874 9.47724 63.5598 11.9919L64.7901 16.5034M101.437 6.01793L99.5485 6.64741C97.0758 7.4717 95.1787 9.47724 94.493 11.9919L93.2529 16.539M65.8619 20.4336L67.1334 25.0962C67.8271 27.6399 70.1375 29.4046 72.7741 29.4046H85.2787C87.9153 29.4046 90.2257 27.6399 90.9193 25.0962L92.1895 20.4386" stroke-width="0.576923" stroke-miterlimit="10"/>
  <g opacity="0.5">
    <path fill="currentColor" fill-rule="evenodd" clip-rule="evenodd" d="M110.65 48.9383H109.963V48.3614H110.65C113.632 48.3614 116.372 50.0035 117.779 52.6336L118.174 53.3733C125.024 66.1844 129.93 79.9435 132.731 94.1986L133.63 98.7781L133.064 98.8894L132.165 94.3098C129.375 80.1109 124.489 66.406 117.665 53.6453L117.27 52.9056C115.964 50.4633 113.419 48.9383 110.65 48.9383Z"/>
    <path fill="currentColor" d="M47.403 48.9383C44.6334 48.9383 42.0888 50.4633 40.7829 52.9056L40.3874 53.6453C38.2228 57.6936 36.2531 61.8369 34.4834 66.0608L33.6567 66.5462C35.5086 62.0602 37.5846 57.6636 39.8786 53.3733L40.2741 52.6336C41.6804 50.0035 44.4206 48.3614 47.403 48.3614H47.725V48.9383H47.403Z"/>
    <path fill="currentColor" d="M25.8882 94.3099L24.9886 98.8894L24.4225 98.7781L25.3221 94.1986C26.1007 90.2356 27.042 86.3109 28.1425 82.4343L28.8645 82.008C27.6963 86.059 26.7028 90.1634 25.8882 94.3099Z"/>
  </g>
  <rect stroke="currentColor" x="61.4878" y="16.4932" width="9.74366" height="3.89777" rx="1.94888" stroke-width="0.576923" stroke-miterlimit="10"/>
  <rect stroke="currentColor" x="86.8213" y="16.4932" width="9.74366" height="3.89777" rx="1.94888" stroke-width="0.576923" stroke-miterlimit="10"/>
  <path stroke="currentColor" opacity="0.5" d="M86.9988 48.4063H88.7698" stroke-width="0.576923" stroke-miterlimit="10"/>
  <path stroke="currentColor" d="M100.98 40.341C104.924 41.1037 107.903 44.5753 107.903 48.7427C107.903 53.4689 104.072 57.3003 99.3458 57.3003C94.6199 57.3003 90.7888 53.4689 90.7888 48.7427C90.7888 47.7225 90.9673 46.7439 91.2948 45.8367" stroke-width="0.576923" stroke-miterlimit="10"/>
  <path stroke="currentColor" d="M99.3457 54.4266C102.484 54.4266 105.029 51.8819 105.029 48.7429C105.029 45.6039 102.484 43.0592 99.3457 43.0592C96.207 43.0592 93.6625 45.6039 93.6625 48.7429C93.6625 51.8819 96.207 54.4266 99.3457 54.4266Z" stroke-width="0.576923" stroke-miterlimit="10"/>
  <path stroke="currentColor" opacity="0.5" d="M103.42 38.8492C107.307 40.4517 110.042 44.2777 110.042 48.7427C110.042 54.6505 105.253 59.4397 99.3457 59.4397C93.4384 59.4397 88.6496 54.6505 88.6496 48.7427C88.6496 48.258 88.6818 47.7808 88.7443 47.3132" stroke-width="0.576923" stroke-miterlimit="10"/>
  <path stroke="currentColor" d="M53.121 55.3636C51.2071 53.7942 49.9859 51.411 49.9859 48.7427C49.9859 44.0164 53.8169 40.1851 58.5428 40.1851C62.777 40.1851 66.2928 43.2607 66.9786 47.2999" stroke-width="0.576923" stroke-miterlimit="10"/>
  <path stroke="currentColor" d="M55.9491 53.8015C54.1146 52.8589 52.8596 50.9475 52.8596 48.7429C52.8596 45.6039 55.404 43.0592 58.5428 43.0592C61.6815 43.0592 64.226 45.6039 64.226 48.7429C64.226 48.8524 64.2229 48.9612 64.2168 49.0692" stroke-width="0.576923" stroke-miterlimit="10"/>
  <path stroke="currentColor" opacity="0.5" d="M68.9366 46.2066C67.7979 41.523 63.5764 38.0457 58.5428 38.0457C52.6355 38.0457 47.8466 42.8349 47.8466 48.7427C47.8466 51.7868 49.1181 54.534 51.1589 56.4819" stroke-width="0.576923" stroke-miterlimit="10"/>
  <path fill="currentColor" d="M156.393 3.76298C157.111 3.34877 157.356 2.43139 156.942 1.71395C156.528 0.996508 155.611 0.750696 154.893 1.16491L1.60674 89.6649C0.889303 90.0791 0.643493 90.9965 1.05771 91.7139C1.47192 92.4314 2.3893 92.6772 3.10674 92.263L156.393 3.76298Z"/>
</svg>
