<?xml version="1.0"?>
<svg xmlns="http://www.w3.org/2000/svg" viewBox="0 0 456 354" fill="none">
  <circle stroke="" fill="" cx="92.2716" cy="137.769" r="" fill-opacity="" stroke-width=""/>
  <circle stroke="" fill="" cx="363.729" cy="137.769" r="" fill-opacity="" stroke-width=""/>
  <g>
    <path fill="currentColor" d="M405.27 297.808C406.359 296.02 407.477 294.097 408.61 292.071C407.636 294.106 406.526 296.027 405.27 297.808Z"/>
    <path fill="currentColor" d="M50.7299 297.808C49.6405 296.02 48.5225 294.097 47.3897 292.071C48.3635 294.106 49.4734 296.027 50.7299 297.808Z"/>
    <path fill="#080D12" d="M401.99 301.678C403.2 300.488 404.3 299.188 405.27 297.808C406.359 296.02 407.477 294.097 408.61 292.071C416.302 278.315 424.68 259.805 429.49 246.488C434.554 232.493 439.202 218.309 442.94 203.898C444.28 198.718 445.5 193.498 446.59 188.258C448.04 181.658 449.39 171.258 450.37 164.568C452.21 152.008 453.47 139.608 452.49 126.828C452.12 122.008 451.56 117.198 450.69 112.448C449.94 108.348 448.95 104.298 447.62 100.348C446.42 96.7776 444.95 93.2976 443.16 89.9876C441.45 86.8376 439.46 83.8576 437.18 81.0876C432.68 75.6276 427.1 71.0376 420.75 67.9476C417.56 66.3876 414.17 65.2076 410.72 64.3676C409.01 63.9476 407.28 63.6176 405.54 63.3776C401.785 62.8551 397.872 62.5213 394.09 62.9076C392.37 63.0876 390.67 63.4476 389.03 63.9776C385.63 65.0776 382.5 66.9376 379.8 69.2776C376.77 71.8876 374.29 75.0976 372.25 78.5376C369.85 82.5876 368.08 86.9676 366.67 91.4576C365.92 92.0976 365.536 92.4869 364.936 93.2669C360.876 98.5069 357.78 108.848 356.02 114.868C355.091 117.978 354.183 121.097 353.29 124.218C352.806 125.91 352.047 128.89 351.81 130.638C351.739 131.522 352.046 132.895 352.497 133.684C350.076 137.82 347.218 141.734 343.78 145.088C342.33 146.498 340.77 147.808 339.09 148.938C337.51 149.998 335.83 150.918 334.07 151.628C330.96 152.828 327.69 153.488 324.35 153.538C292.168 154.286 259.981 154.679 227.79 154.698C195.599 154.679 163.832 154.286 131.65 153.538C128.31 153.488 125.04 152.828 121.93 151.628C120.17 150.918 118.49 149.998 116.91 148.938C115.23 147.808 113.67 146.498 112.22 145.088C108.782 141.734 105.924 137.82 103.502 133.684C103.954 132.895 104.261 131.522 104.19 130.638C103.953 128.89 103.193 125.91 102.71 124.218C101.816 121.097 100.908 117.978 99.9799 114.868C98.2199 108.848 95.1239 98.5069 91.0639 93.2669C90.4639 92.4869 90.0799 92.0976 89.3299 91.4576C87.9199 86.9676 86.1499 82.5876 83.7499 78.5376C81.7099 75.0976 79.2299 71.8876 76.1999 69.2776C73.4999 66.9376 70.3699 65.0776 66.9699 63.9776C65.3299 63.4476 63.6299 63.0876 61.9099 62.9076C58.1282 62.5213 54.2144 62.8551 50.4599 63.3776C48.7199 63.6176 46.9899 63.9476 45.2799 64.3676C41.8299 65.2076 38.4399 66.3876 35.2499 67.9476C28.8999 71.0376 23.3199 75.6276 18.8199 81.0876C16.5399 83.8576 14.5499 86.8376 12.8399 89.9876C11.0499 93.2976 9.57992 96.7776 8.37993 100.348C7.04992 104.298 6.05992 108.348 5.30992 112.448C4.43992 117.198 3.87993 122.008 3.50993 126.828C2.52994 139.608 3.78993 152.008 5.62993 164.568C6.60992 171.258 7.95993 181.658 9.40993 188.258C10.4999 193.498 11.7199 198.718 13.0599 203.898C16.7983 218.309 21.4456 232.493 26.5099 246.488C31.32 259.805 39.6984 278.315 47.3897 292.071C48.5225 294.097 49.6405 296.02 50.7299 297.808C51.6999 299.188 52.7999 300.488 54.0099 301.678C56.689 304.293 59.8417 306.387 63.1499 308.118C68.2422 310.798 73.7622 312.648 79.2999 314.148C99.2966 319.597 120.346 320.751 140.96 321.688C170.023 323.032 198.69 323.304 227.78 323.278C256.87 323.304 285.977 323.032 315.04 321.688C335.653 320.751 356.703 319.597 376.7 314.148C382.238 312.648 387.758 310.798 392.85 308.118C396.158 306.387 399.311 304.293 401.99 301.678Z"/>
    <path fill="currentColor" d="M401.99 301.678L402.689 302.393L402.691 302.391L401.99 301.678ZM442.94 203.898L443.908 204.149L443.908 204.148L442.94 203.898ZM446.59 188.258L445.613 188.043L445.611 188.054L446.59 188.258ZM394.09 62.9076L393.988 61.9128L393.986 61.913L394.09 62.9076ZM389.03 63.9776L388.722 63.0261L388.722 63.0262L389.03 63.9776ZM379.8 69.2776L380.453 70.0353L380.455 70.0333L379.8 69.2776ZM372.25 78.5376L371.39 78.0275L371.39 78.0278L372.25 78.5376ZM366.67 91.4576L367.319 92.2183L367.538 92.0316L367.624 91.7572L366.67 91.4576ZM343.78 145.088L344.477 145.805L344.478 145.803L343.78 145.088ZM339.09 148.938L339.647 149.768L339.648 149.767L339.09 148.938ZM334.07 151.628L334.43 152.561L334.437 152.558L334.444 152.555L334.07 151.628ZM324.35 153.538L324.335 152.538L324.327 152.538L324.35 153.538ZM452.49 126.828L453.487 126.751L453.487 126.751L452.49 126.828ZM450.69 112.448L449.706 112.628L449.706 112.628L450.69 112.448ZM447.62 100.348L446.672 100.666L446.672 100.667L447.62 100.348ZM443.16 89.9876L444.04 89.5119L444.039 89.5105L443.16 89.9876ZM437.18 81.0876L437.952 80.4521L437.952 80.4516L437.18 81.0876ZM420.75 67.9476L420.311 68.8459L420.312 68.8468L420.75 67.9476ZM410.72 64.3676L410.481 65.3387L410.483 65.3392L410.72 64.3676ZM405.54 63.3776L405.402 64.368L405.403 64.3682L405.54 63.3776ZM364.936 93.2669L365.726 93.8793L365.729 93.8766L364.936 93.2669ZM450.37 164.568L449.381 164.423L449.381 164.423L450.37 164.568ZM356.02 114.868L356.978 115.154L356.98 115.148L356.02 114.868ZM376.7 314.148L376.439 313.182L376.437 313.183L376.7 314.148ZM392.85 308.118L392.387 307.231L392.384 307.233L392.85 308.118ZM429.49 246.488L428.55 246.147L428.549 246.148L429.49 246.488ZM227.78 323.278L227.781 322.278L227.779 322.278L227.78 323.278ZM315.04 321.688L314.995 320.689L314.994 320.689L315.04 321.688ZM352.497 133.684L353.36 134.19C353.541 133.881 353.543 133.499 353.366 133.188L352.497 133.684ZM227.79 154.698L227.79 155.698L227.791 155.698L227.79 154.698ZM351.81 130.638L350.819 130.503L350.815 130.53L350.813 130.558L351.81 130.638ZM353.29 124.218L352.329 123.942L352.328 123.943L353.29 124.218ZM54.0099 301.678L53.3087 302.391L53.3113 302.393L54.0099 301.678ZM13.0599 203.898L12.0918 204.148L12.092 204.149L13.0599 203.898ZM9.40993 188.258L10.389 188.054L10.3866 188.043L9.40993 188.258ZM61.9099 62.9076L62.014 61.913L62.0115 61.9128L61.9099 62.9076ZM66.9699 63.9776L67.2777 63.0262L67.2774 63.0261L66.9699 63.9776ZM76.1999 69.2776L75.545 70.0333L75.5473 70.0353L76.1999 69.2776ZM83.7499 78.5376L84.6102 78.0278L84.6101 78.0275L83.7499 78.5376ZM89.3299 91.4576L88.3758 91.7572L88.462 92.0316L88.6808 92.2183L89.3299 91.4576ZM112.22 145.088L111.522 145.803L111.523 145.805L112.22 145.088ZM116.91 148.938L116.352 149.767L116.353 149.768L116.91 148.938ZM121.93 151.628L121.556 152.555L121.563 152.558L121.57 152.561L121.93 151.628ZM131.65 153.538L131.673 152.538L131.665 152.538L131.65 153.538ZM3.50993 126.828L2.51286 126.751L2.51286 126.751L3.50993 126.828ZM5.30992 112.448L6.29356 112.628L6.2936 112.628L5.30992 112.448ZM8.37993 100.348L9.32765 100.667L9.32781 100.666L8.37993 100.348ZM12.8399 89.9876L11.9611 89.5105L11.9603 89.5119L12.8399 89.9876ZM18.8199 81.0876L18.0482 80.4516L18.0478 80.4521L18.8199 81.0876ZM35.2499 67.9476L35.6875 68.8468L35.6892 68.8459L35.2499 67.9476ZM45.2799 64.3676L45.5165 65.3392L45.5184 65.3387L45.2799 64.3676ZM50.4599 63.3776L50.5965 64.3682L50.5978 64.368L50.4599 63.3776ZM91.0639 93.2669L90.2713 93.8766L90.2734 93.8793L91.0639 93.2669ZM5.62993 164.568L6.61937 164.423L6.61937 164.423L5.62993 164.568ZM99.9799 114.868L99.0201 115.148L99.0217 115.154L99.9799 114.868ZM79.2999 314.148L79.5628 313.183L79.5613 313.182L79.2999 314.148ZM63.1499 308.118L63.6157 307.233L63.6134 307.232L63.1499 308.118ZM26.5099 246.488L27.4505 246.148L27.4503 246.147L26.5099 246.488ZM140.96 321.688L141.006 320.689L141.005 320.689L140.96 321.688ZM103.502 133.684L102.634 133.188C102.457 133.499 102.459 133.881 102.64 134.19L103.502 133.684ZM104.19 130.638L105.187 130.558L105.185 130.53L105.181 130.503L104.19 130.638ZM102.71 124.218L103.671 123.943L103.671 123.942L102.71 124.218ZM401.99 301.678L402.691 302.391C403.945 301.158 405.084 299.812 406.088 298.383L405.27 297.808L404.452 297.233C403.516 298.564 402.455 299.817 401.289 300.965L401.99 301.678ZM442.94 203.898L443.908 204.148C445.252 198.953 446.476 193.717 447.569 188.461L446.59 188.258L445.611 188.054C444.524 193.278 443.308 198.482 441.972 203.647L442.94 203.898ZM394.09 62.9076L393.986 61.913C392.197 62.1003 390.429 62.4747 388.722 63.0261L389.03 63.9776L389.337 64.9291C390.911 64.4205 392.543 64.0749 394.194 63.9022L394.09 62.9076ZM389.03 63.9776L388.722 63.0262C385.18 64.1722 381.934 66.1046 379.145 68.5219L379.8 69.2776L380.455 70.0333C383.066 67.7706 386.08 65.983 389.338 64.929L389.03 63.9776ZM379.8 69.2776L379.147 68.5199C376.016 71.2173 373.47 74.5191 371.39 78.0275L372.25 78.5376L373.11 79.0477C375.11 75.6761 377.524 72.5579 380.453 70.0353L379.8 69.2776ZM372.25 78.5376L371.39 78.0278C368.939 82.1631 367.141 86.6192 365.716 91.158L366.67 91.4576L367.624 91.7572C369.019 87.316 370.761 83.0121 373.11 79.0474L372.25 78.5376ZM343.78 145.088L343.083 144.371C341.667 145.747 340.153 147.017 338.532 148.108L339.09 148.938L339.648 149.767C341.387 148.598 342.993 147.248 344.477 145.805L343.78 145.088ZM339.09 148.938L338.533 148.107C337.002 149.134 335.383 150.02 333.696 150.7L334.07 151.628L334.444 152.555C336.277 151.816 338.018 150.861 339.647 149.768L339.09 148.938ZM334.07 151.628L333.71 150.695C330.705 151.854 327.552 152.49 324.335 152.538L324.35 153.538L324.365 154.537C327.828 154.486 331.215 153.801 334.43 152.561L334.07 151.628ZM452.49 126.828L453.487 126.751C453.115 121.906 452.551 117.06 451.674 112.267L450.69 112.448L449.706 112.628C450.569 117.335 451.125 122.11 451.493 126.904L452.49 126.828ZM450.69 112.448L451.674 112.268C450.917 108.129 449.916 104.032 448.568 100.028L447.62 100.348L446.672 100.667C447.984 104.563 448.963 108.566 449.706 112.628L450.69 112.448ZM447.62 100.348L448.568 100.029C447.352 96.4116 445.86 92.8782 444.04 89.5119L443.16 89.9876L442.28 90.4633C444.04 93.717 445.488 97.1436 446.672 100.666L447.62 100.348ZM443.16 89.9876L444.039 89.5105C442.3 86.3069 440.274 83.2735 437.952 80.4521L437.18 81.0876L436.408 81.7231C438.646 84.4417 440.6 87.3683 442.281 90.4647L443.16 89.9876ZM437.18 81.0876L437.952 80.4516C433.37 74.8927 427.68 70.2075 421.188 67.0484L420.75 67.9476L420.312 68.8468C426.52 71.8677 431.99 76.3625 436.408 81.7236L437.18 81.0876ZM420.75 67.9476L421.189 67.0493C417.928 65.4542 414.469 64.2511 410.957 63.396L410.72 64.3676L410.483 65.3392C413.871 66.1641 417.192 67.321 420.311 68.8459L420.75 67.9476ZM410.72 64.3676L410.958 63.3965C409.215 62.9681 407.451 62.6317 405.677 62.387L405.54 63.3776L405.403 64.3682C407.109 64.6035 408.805 64.927 410.481 65.3387L410.72 64.3676ZM366.67 91.4576L366.021 90.6969C365.225 91.3761 364.791 91.8151 364.143 92.6572L364.936 93.2669L365.729 93.8766C366.281 93.1586 366.615 92.8191 367.319 92.2183L366.67 91.4576ZM452.49 126.828L451.493 126.904C452.464 139.573 451.217 151.886 449.381 164.423L450.37 164.568L451.359 164.713C453.203 152.129 454.476 139.642 453.487 126.751L452.49 126.828ZM446.59 188.258L447.567 188.472C449.027 181.826 450.385 171.366 451.359 164.713L450.37 164.568L449.381 164.423C448.395 171.149 447.053 181.489 445.613 188.043L446.59 188.258ZM356.02 114.868L356.98 115.148C357.86 112.139 359.065 108.081 360.551 104.127C362.046 100.153 363.793 96.3752 365.726 93.8793L364.936 93.2669L364.146 92.6544C362.019 95.3985 360.188 99.4115 358.679 103.423C357.163 107.454 355.94 111.576 355.06 114.587L356.02 114.868ZM376.7 314.148L376.961 315.113C382.533 313.604 388.131 311.731 393.316 309.003L392.85 308.118L392.384 307.233C387.384 309.865 381.943 311.692 376.439 313.182L376.7 314.148ZM392.85 308.118L393.313 309.004C396.681 307.242 399.921 305.095 402.689 302.393L401.99 301.678L401.291 300.962C398.701 303.492 395.635 305.533 392.387 307.232L392.85 308.118ZM429.49 246.488L430.43 246.828C435.501 232.815 440.159 218.6 443.908 204.149L442.94 203.898L441.972 203.647C438.244 218.019 433.607 232.171 428.55 246.147L429.49 246.488ZM227.78 323.278L227.779 324.278C256.875 324.304 286 324.032 315.086 322.687L315.04 321.688L314.994 320.689C285.954 322.032 256.866 322.304 227.781 322.278L227.78 323.278ZM315.04 321.688L315.085 322.687C335.688 321.75 356.844 320.595 376.963 315.112L376.7 314.148L376.437 313.183C356.562 318.599 335.619 319.751 314.995 320.689L315.04 321.688ZM405.54 63.3776L405.678 62.3871C401.896 61.8607 397.889 61.5143 393.988 61.9128L394.09 62.9076L394.192 63.9024C397.855 63.5282 401.675 63.8494 405.402 64.368L405.54 63.3776ZM352.497 133.684L351.634 133.179C349.246 137.258 346.44 141.095 343.082 144.372L343.78 145.088L344.478 145.803C347.995 142.373 350.905 138.382 353.36 134.19L352.497 133.684ZM324.35 153.538L324.327 152.538C292.152 153.286 259.973 153.679 227.79 153.698L227.79 154.698L227.791 155.698C259.989 155.679 292.184 155.286 324.373 154.537L324.35 153.538ZM351.81 130.638L350.813 130.558C350.767 131.133 350.844 131.803 350.982 132.416C351.12 133.03 351.339 133.672 351.629 134.18L352.497 133.684L353.366 133.188C353.205 132.907 353.044 132.468 352.934 131.977C352.823 131.485 352.782 131.027 352.807 130.717L351.81 130.638ZM353.29 124.218L354.251 124.493C355.144 121.375 356.051 118.26 356.978 115.154L356.02 114.868L355.062 114.582C354.132 117.696 353.223 120.819 352.329 123.942L353.29 124.218ZM351.81 130.638L352.801 130.772C353.028 129.101 353.769 126.18 354.252 124.492L353.29 124.218L352.328 123.943C351.844 125.639 351.067 128.678 350.819 130.503L351.81 130.638ZM405.27 297.808L406.124 298.328C407.221 296.528 408.345 294.594 409.483 292.559L408.61 292.071L407.737 291.583C406.61 293.599 405.498 295.511 404.416 297.287L405.27 297.808ZM408.61 292.071L409.483 292.559C417.201 278.755 425.602 260.196 430.43 246.827L429.49 246.488L428.549 246.148C423.758 259.414 415.402 277.874 407.737 291.583L408.61 292.071ZM408.61 292.071L407.708 291.639C406.756 293.629 405.674 295.501 404.453 297.231L405.27 297.808L406.087 298.384C407.379 296.554 408.517 294.583 409.512 292.502L408.61 292.071ZM54.0099 301.678L54.7111 300.965C53.5445 299.817 52.4836 298.564 51.548 297.233L50.7299 297.808L49.9118 298.383C50.9163 299.812 52.0554 301.158 53.3087 302.391L54.0099 301.678ZM13.0599 203.898L14.0281 203.647C12.692 198.482 11.4756 193.278 10.389 188.054L9.40993 188.258L8.43088 188.461C9.52421 193.717 10.7479 198.953 12.0918 204.148L13.0599 203.898ZM61.9099 62.9076L61.8058 63.9022C63.4567 64.0749 65.0885 64.4205 66.6624 64.9291L66.9699 63.9776L67.2774 63.0261C65.5714 62.4747 63.8032 62.1003 62.014 61.913L61.9099 62.9076ZM66.9699 63.9776L66.6621 64.929C69.9199 65.983 72.9342 67.7706 75.545 70.0333L76.1999 69.2776L76.8549 68.5219C74.0657 66.1046 70.8199 64.1722 67.2777 63.0262L66.9699 63.9776ZM76.1999 69.2776L75.5473 70.0353C78.4758 72.5579 80.8904 75.6761 82.8898 79.0477L83.7499 78.5376L84.6101 78.0275C82.5295 74.5191 79.984 71.2173 76.8526 68.5199L76.1999 69.2776ZM83.7499 78.5376L82.8896 79.0474C85.2391 83.0121 86.9812 87.316 88.3758 91.7572L89.3299 91.4576L90.284 91.158C88.8586 86.6192 87.0607 82.1631 84.6102 78.0278L83.7499 78.5376ZM112.22 145.088L111.523 145.805C113.007 147.248 114.613 148.598 116.352 149.767L116.91 148.938L117.468 148.108C115.847 147.017 114.333 145.747 112.917 144.371L112.22 145.088ZM116.91 148.938L116.353 149.768C117.982 150.861 119.723 151.816 121.556 152.555L121.93 151.628L122.304 150.7C120.617 150.02 118.998 149.134 117.467 148.107L116.91 148.938ZM121.93 151.628L121.57 152.561C124.785 153.801 128.172 154.486 131.635 154.537L131.65 153.538L131.665 152.538C128.448 152.49 125.294 151.854 122.29 150.695L121.93 151.628ZM3.50993 126.828L4.507 126.904C4.87503 122.11 5.43131 117.335 6.29356 112.628L5.30992 112.448L4.32628 112.267C3.44854 117.06 2.88482 121.906 2.51286 126.751L3.50993 126.828ZM5.30992 112.448L6.2936 112.628C7.03662 108.566 8.01563 104.563 9.32765 100.667L8.37993 100.348L7.43221 100.028C6.08422 104.032 5.08322 108.129 4.32624 112.268L5.30992 112.448ZM8.37993 100.348L9.32781 100.666C10.5119 97.1436 11.96 93.717 13.7195 90.4633L12.8399 89.9876L11.9603 89.5119C10.1399 92.8782 8.64798 96.4116 7.43204 100.029L8.37993 100.348ZM12.8399 89.9876L13.7188 90.4647C15.3997 87.3683 17.3543 84.4417 19.592 81.7231L18.8199 81.0876L18.0478 80.4521C15.7255 83.2735 13.7002 86.3069 11.9611 89.5105L12.8399 89.9876ZM18.8199 81.0876L19.5916 81.7236C24.0101 76.3625 29.4795 71.8677 35.6875 68.8468L35.2499 67.9476L34.8124 67.0484C28.3203 70.2075 22.6297 74.8927 18.0482 80.4516L18.8199 81.0876ZM35.2499 67.9476L35.6892 68.8459C38.8075 67.321 42.1285 66.1641 45.5165 65.3392L45.2799 64.3676L45.0434 63.396C41.5313 64.2511 38.0724 65.4542 34.8106 67.0493L35.2499 67.9476ZM45.2799 64.3676L45.5184 65.3387C47.1946 64.927 48.8906 64.6035 50.5965 64.3682L50.4599 63.3776L50.3233 62.387C48.5493 62.6317 46.7853 62.9681 45.0414 63.3965L45.2799 64.3676ZM89.3299 91.4576L88.6808 92.2183C89.3849 92.8191 89.719 93.1586 90.2713 93.8766L91.0639 93.2669L91.8565 92.6572C91.2088 91.8151 90.7749 91.3761 89.979 90.6969L89.3299 91.4576ZM3.50993 126.828L2.51286 126.751C1.52433 139.642 2.79708 152.129 4.64049 164.713L5.62993 164.568L6.61937 164.423C4.78278 151.886 3.53554 139.573 4.507 126.904L3.50993 126.828ZM9.40993 188.258L10.3866 188.043C8.94671 181.489 7.60474 171.149 6.61937 164.423L5.62993 164.568L4.64049 164.713C5.61511 171.366 6.97315 181.826 8.43322 188.472L9.40993 188.258ZM99.9799 114.868L100.94 114.587C100.06 111.576 98.8365 107.454 97.3204 103.423C95.8119 99.4115 93.9806 95.3985 91.8544 92.6544L91.0639 93.2669L90.2734 93.8793C92.2072 96.3752 93.9539 100.153 95.4484 104.127C96.9354 108.081 98.1403 112.139 99.0201 115.148L99.9799 114.868ZM79.2999 314.148L79.5613 313.182C74.0573 311.692 68.6161 309.865 63.6157 307.233L63.1499 308.118L62.6842 309.003C67.8684 311.731 73.4671 313.604 79.0385 315.113L79.2999 314.148ZM63.1499 308.118L63.6134 307.232C60.3648 305.533 57.2993 303.492 54.7085 300.962L54.0099 301.678L53.3113 302.393C56.0787 305.095 59.3186 307.242 62.6865 309.004L63.1499 308.118ZM26.5099 246.488L27.4503 246.147C22.3925 232.171 17.756 218.019 14.0279 203.647L13.0599 203.898L12.092 204.149C15.8406 218.6 20.4986 232.815 25.5696 246.828L26.5099 246.488ZM227.78 323.278L227.779 322.278C198.695 322.304 170.046 322.032 141.006 320.689L140.96 321.688L140.914 322.687C170 324.032 198.685 324.304 227.781 324.278L227.78 323.278ZM140.96 321.688L141.005 320.689C120.381 319.751 99.4377 318.599 79.5628 313.183L79.2999 314.148L79.037 315.112C99.1555 320.595 120.312 321.75 140.915 322.687L140.96 321.688ZM50.4599 63.3776L50.5978 64.368C54.3246 63.8494 58.1454 63.5282 61.8083 63.9024L61.9099 62.9076L62.0115 61.9128C58.1111 61.5143 54.1043 61.8607 50.3221 62.3871L50.4599 63.3776ZM103.502 133.684L102.64 134.19C105.095 138.382 108.005 142.373 111.522 145.803L112.22 145.088L112.918 144.372C109.559 141.095 106.754 137.258 104.365 133.179L103.502 133.684ZM131.65 153.538L131.627 154.537C163.816 155.286 195.591 155.679 227.79 155.698L227.79 154.698L227.791 153.698C195.608 153.679 163.848 153.286 131.673 152.538L131.65 153.538ZM104.19 130.638L103.193 130.717C103.218 131.027 103.177 131.485 103.066 131.977C102.956 132.468 102.795 132.907 102.634 133.188L103.502 133.684L104.371 134.18C104.661 133.672 104.88 133.03 105.018 132.416C105.155 131.803 105.233 131.133 105.187 130.558L104.19 130.638ZM102.71 124.218L103.671 123.942C102.777 120.819 101.868 117.696 100.938 114.582L99.9799 114.868L99.0217 115.154C99.9489 118.26 100.856 121.375 101.749 124.493L102.71 124.218ZM104.19 130.638L105.181 130.503C104.933 128.678 104.156 125.639 103.671 123.943L102.71 124.218L101.748 124.492C102.231 126.18 102.972 129.101 103.199 130.772L104.19 130.638ZM50.7299 297.808L51.5839 297.287C50.5019 295.511 49.3903 293.599 48.2625 291.583L47.3897 292.071L46.5168 292.559C47.6548 294.594 48.7791 296.528 49.876 298.328L50.7299 297.808ZM47.3897 292.071L48.2625 291.583C40.5977 277.874 32.242 259.414 27.4505 246.148L26.5099 246.488L25.5694 246.827C30.398 260.196 38.799 278.755 46.5168 292.559L47.3897 292.071ZM47.3897 292.071L46.4876 292.502C47.4833 294.583 48.621 296.554 49.9129 298.384L50.7299 297.808L51.5469 297.231C50.3258 295.501 49.2437 293.629 48.2917 291.639L47.3897 292.071Z"/>
    <path stroke="currentColor" d="M103.59 132.658C103.319 133.136 103.319 134.001 102.24 134.358C101.71 134.648 100.96 133.948 100.66 133.668C100.41 133.428 100.16 133.178 99.9299 132.918C97.5384 130.086 95.6696 126.824 93.7499 123.668C92.1299 121.008 90.5199 118.338 88.9199 115.668C86.9911 112.453 85.0885 109.214 83.4199 105.858C81.6049 102.201 79.7625 97.9755 80.0298 93.7977C80.0898 92.8677 80.2798 91.9477 80.7198 91.1277C81.0698 90.4777 81.5899 89.8977 82.2899 89.6177C82.939 89.354 83.6496 89.2482 84.3398 89.2877M103.59 132.658C103.803 130.972 103.764 130.631 103.59 129.351C103.48 128.541 103.2 127.748 103.01 126.948C102.176 123.612 101.096 120.342 100.15 117.038C97.9503 109.166 93.969 98.013 88.8899 91.4577M103.59 132.658C103.59 133.387 103.558 133.836 103.319 134.358C102.356 136.457 99.2855 137.669 97.7798 136.028C96.9188 135.052 96.1376 134.007 95.4099 132.928C94.9299 132.248 94.4899 131.558 94.0399 130.868C91.2817 126.583 88.5514 122.284 85.6599 118.088C83.3389 114.725 80.9553 111.434 78.7899 107.988C77.2812 105.602 75.8648 103.091 75.0099 100.388C74.5199 98.8277 74.2099 97.1977 74.2999 95.5677C74.3799 94.2277 74.7299 92.8977 75.4299 91.7577C75.7499 91.2477 76.1399 90.7777 76.5999 90.3877C77.0899 89.9777 77.6499 89.6677 78.2599 89.4777C78.8499 89.2977 79.7937 89.1196 80.4137 89.1896C81.0827 89.1696 82.4336 89.0418 84.3398 89.2877M88.8899 91.4577C90.6299 93.7477 91.9679 96.1015 93.0879 98.7215M88.8899 91.4577C87.7182 90.4561 85.9083 89.3521 84.3398 89.2877M126.87 173.218C127.08 174.028 127.13 174.878 126.97 175.688C126.82 176.498 126.46 177.268 125.95 177.918C125.4 178.618 124.69 179.168 123.9 179.588C120.66 181.298 116.73 179.728 114.2 177.798C109.654 174.295 106.57 169.111 103.58 164.328M126.87 173.218C127.505 174.921 127.111 177.212 126.81 178.558C126.589 179.202 126.43 179.688 126.06 180.158C125.114 181.356 123.603 182.064 122.15 182.418C120.45 182.848 118.65 182.858 116.93 182.498C115.2 182.128 113.56 181.378 112.1 180.378M126.87 173.218C126.297 171.069 124.778 169.251 123.32 167.638C121.187 165.244 118.846 163.042 116.68 160.678C114.044 157.799 111.615 154.753 109.36 151.568C107.74 149.268 106.22 146.908 104.64 144.588C103.045 142.254 100.943 138.591 97.8099 138.238M97.8099 138.238C94.0399 137.718 91.2199 137.998 90.1999 140.488C88.7308 143.793 89.4579 147.95 90.6899 151.198C92.0672 154.862 94.3069 158.179 96.5499 161.358C98.4991 164.111 100.475 166.834 102.47 169.568C105.283 173.432 108.114 177.631 112.11 180.378M97.8099 138.238C97.2311 138.158 96.641 138.227 96.0999 138.448C95.2039 138.791 94.9814 139.682 94.7708 140.524L94.7699 140.528C94.4627 141.976 94.5394 143.446 94.7599 144.898C95.818 151.927 99.8503 158.369 103.564 164.302M62.6599 271.788C62.3899 271.708 62.1098 271.658 61.8398 271.628C61.3898 271.578 60.9599 271.598 60.5099 271.708C59.399 272.002 58.438 272.747 57.8599 273.738C57.6399 274.248 57.2645 275.167 57.0545 276.215C56.8594 278.667 56.9355 279.659 57.2899 282.438C57.3499 283.148 57.4198 283.858 57.4998 284.568C57.7098 286.468 58.0199 288.348 58.4099 290.228C58.4599 290.498 58.5199 290.778 58.5799 291.048C58.7788 291.943 59.0245 292.833 59.3299 293.698C59.4799 294.168 59.6399 294.628 59.8199 295.078C60.3899 296.528 61.0698 297.968 61.9198 299.278C62.6598 300.418 63.5298 301.488 64.5298 302.428C65.5198 303.358 66.6298 304.148 67.8098 304.828C69.3101 305.701 70.9275 306.374 72.5399 307.008C77.2727 308.897 82.2246 310.298 87.2099 311.338C92.9496 312.54 98.8123 313.276 104.66 313.708C107.26 313.898 109.87 313.888 112.46 313.558C114.67 313.278 116.85 312.768 118.89 311.908C120.7 311.148 122.39 310.128 123.84 308.808C125.261 307.509 126.583 305.673 127.45 303.978C128.975 300.774 129.516 297.334 129.58 293.808M62.6599 271.788C62.8899 271.858 63.1198 271.928 63.3498 271.998M62.6599 271.788L63.3498 271.998M129.6 279.968C129.6 280.208 129.6 280.458 129.6 280.698M129.6 279.968C129.6 278.199 129.666 276.377 129.02 274.698C128.651 273.724 128.048 272.802 127.22 272.158C126.893 271.899 126.544 271.698 126.13 271.548C125.692 271.353 125.2 271.348 124.73 271.348C124.471 271.361 124.205 271.395 123.95 271.438C121.343 271.91 118.712 272.32 116.09 272.688C114.412 272.927 112.725 273.15 111.04 273.328C107.952 273.653 104.867 273.995 101.77 274.228C100.844 274.308 99.9002 274.428 98.9698 274.428C98.0696 274.495 97.1576 274.552 96.2399 274.588C93.9685 274.762 91.6928 274.721 89.4199 274.848C85.0083 274.848 80.4605 275.034 76.0799 274.408C75.2835 274.333 74.4878 274.211 73.6899 274.158C72.0632 273.995 70.4555 273.694 68.8499 273.388C68.4691 273.312 68.1193 273.24 67.7399 273.158C67.1199 273.018 66.4798 272.868 65.8598 272.708C65.7198 272.678 65.5698 272.638 65.4298 272.598C64.7298 272.418 64.0398 272.218 63.3498 271.998M129.6 279.968V280.698M129.58 292.928C129.58 293.228 129.58 293.508 129.58 293.808M129.58 292.928C129.58 292.075 129.581 291.221 129.581 290.368M129.58 292.928V293.808M129.6 280.698C129.6 281.278 129.59 281.858 129.59 282.438C129.59 285.081 129.584 287.725 129.581 290.368M41.9199 269.178C30.6999 250.678 22.3598 231.348 15.6498 210.858C11.5898 198.538 8.55985 185.908 6.34985 173.138M41.9199 269.178C41.5984 251.71 41.6999 231.926 51.6899 216.738C52.8499 214.968 54.1499 213.288 55.5999 211.748C57.0199 210.238 58.5999 208.868 60.2999 207.678C63.7199 205.288 67.6399 203.658 71.6899 202.598C80.0048 200.413 90.0123 199.766 98.4499 201.818C101.32 202.518 104.1 203.598 106.65 205.088C108.79 206.338 110.76 207.858 112.6 209.508C115.789 212.378 118.643 215.594 121.62 218.678C126.983 224.259 132.703 229.681 139.04 234.148C141.59 235.938 144.3 237.518 147.23 238.518C150.02 239.478 153.02 239.908 155.95 239.938H300.049C302.979 239.908 305.979 239.478 308.769 238.518C311.699 237.518 314.409 235.938 316.959 234.148C323.295 229.681 329.015 224.259 334.379 218.678C337.355 215.594 340.209 212.378 343.399 209.508C345.239 207.858 347.209 206.338 349.349 205.088C351.899 203.598 354.679 202.518 357.549 201.818C365.986 199.766 375.994 200.413 384.309 202.598C388.359 203.658 392.279 205.288 395.699 207.678C397.399 208.868 398.979 210.238 400.399 211.748C401.849 213.288 403.149 214.968 404.309 216.738C414.299 231.926 414.4 251.71 414.079 269.178M41.9199 269.178L41.9202 269.18C43.1296 277.378 45.0171 290.173 50.1437 297.612M214.61 292.838C214.85 295.378 217.01 297.318 219.56 297.278H236.439C238.989 297.318 241.149 295.378 241.389 292.838M214.61 292.838C214.213 288.64 216.82 286.828 219.42 286.818H236.579C239.179 286.828 241.785 288.64 241.389 292.838M214.61 292.838C214.61 292.838 138.558 294.567 129.581 290.368M129.58 290.368L129.581 290.368M103.58 164.328L103.564 164.302M103.58 164.328C103.574 164.319 103.569 164.31 103.564 164.302M352.409 132.658C352.68 133.136 352.68 134.001 353.759 134.358C354.289 134.648 355.039 133.948 355.339 133.668C355.589 133.428 355.839 133.178 356.069 132.918C358.46 130.086 360.329 126.824 362.249 123.668C363.869 121.008 365.479 118.338 367.079 115.668C369.008 112.453 370.91 109.214 372.579 105.858C374.394 102.201 376.236 97.9755 375.969 93.7977C375.909 92.8677 375.719 91.9477 375.279 91.1277C374.929 90.4777 374.409 89.8977 373.709 89.6177C373.06 89.354 372.349 89.2482 371.659 89.2877M352.409 132.658C352.196 130.972 352.235 130.631 352.409 129.351C352.519 128.541 352.799 127.748 352.989 126.948C353.823 123.612 354.903 120.342 355.849 117.038C358.048 109.166 362.03 98.013 367.109 91.4577M352.409 132.658C352.409 133.387 352.44 133.836 352.68 134.358C353.643 136.457 356.713 137.669 358.219 136.028C359.08 135.052 359.861 134.007 360.589 132.928C361.069 132.248 361.509 131.558 361.959 130.868C364.717 126.583 367.447 122.284 370.339 118.088C372.66 114.725 375.043 111.434 377.209 107.988C378.718 105.602 380.134 103.091 380.989 100.388C381.479 98.8277 381.789 97.1977 381.699 95.5677C381.619 94.2277 381.269 92.8977 380.569 91.7577C380.249 91.2477 379.859 90.7777 379.399 90.3877C378.909 89.9777 378.349 89.6677 377.739 89.4777C377.149 89.2977 376.205 89.1196 375.585 89.1896C374.916 89.1696 373.565 89.0418 371.659 89.2877M367.109 91.4577C365.369 93.7477 364.031 96.1015 362.911 98.7215M367.109 91.4577C368.281 90.4561 370.09 89.3521 371.659 89.2877M329.129 173.218C328.919 174.028 328.869 174.878 329.029 175.688C329.179 176.498 329.539 177.268 330.049 177.918C330.599 178.618 331.309 179.168 332.099 179.588C335.339 181.298 339.269 179.728 341.799 177.798C346.345 174.295 349.429 169.111 352.419 164.328M329.129 173.218C328.494 174.921 328.888 177.212 329.189 178.558C329.41 179.202 329.569 179.688 329.939 180.158C330.885 181.356 332.395 182.064 333.849 182.418C335.549 182.848 337.349 182.858 339.069 182.498C340.799 182.128 342.439 181.378 343.899 180.378M329.129 173.218C329.702 171.069 331.221 169.251 332.679 167.638C334.812 165.244 337.153 163.042 339.319 160.678C341.954 157.799 344.384 154.753 346.639 151.568C348.259 149.268 349.779 146.908 351.359 144.588C352.954 142.254 355.056 138.591 358.189 138.238M358.189 138.238C361.959 137.718 364.779 137.998 365.799 140.488C367.268 143.793 366.541 147.95 365.309 151.198C363.932 154.862 361.692 158.179 359.449 161.358C357.5 164.111 355.524 166.834 353.529 169.568C350.716 173.432 347.885 177.631 343.889 180.378M358.189 138.238C358.768 138.158 359.358 138.227 359.899 138.448C360.795 138.791 361.017 139.682 361.228 140.524L361.229 140.528C361.536 141.976 361.459 143.446 361.239 144.898C360.181 151.927 356.148 158.369 352.435 164.302M393.339 271.788C393.609 271.708 393.889 271.658 394.159 271.628C394.609 271.578 395.039 271.598 395.489 271.708C396.6 272.002 397.561 272.747 398.139 273.738C398.359 274.248 398.734 275.167 398.944 276.215C399.139 278.667 399.063 279.659 398.709 282.438C398.649 283.148 398.579 283.858 398.499 284.568C398.289 286.468 397.979 288.348 397.589 290.228C397.539 290.498 397.479 290.778 397.419 291.048C397.22 291.943 396.974 292.833 396.669 293.698C396.519 294.168 396.359 294.628 396.179 295.078C395.609 296.528 394.929 297.968 394.079 299.278C393.339 300.418 392.469 301.488 391.469 302.428C390.479 303.358 389.369 304.148 388.189 304.828C386.689 305.701 385.071 306.374 383.459 307.008C378.726 308.897 373.774 310.298 368.789 311.338C363.049 312.54 357.186 313.276 351.339 313.708C348.739 313.898 346.129 313.888 343.539 313.558C341.329 313.278 339.149 312.768 337.109 311.908C335.299 311.148 333.609 310.128 332.159 308.808C330.738 307.509 329.416 305.673 328.549 303.978C327.023 300.774 326.482 297.334 326.419 293.808M393.339 271.788C393.109 271.858 392.879 271.928 392.649 271.998M393.339 271.788L392.649 271.998M326.399 279.968C326.399 280.208 326.399 280.458 326.399 280.698M326.399 279.968C326.399 278.199 326.333 276.377 326.979 274.698C327.348 273.724 327.951 272.802 328.779 272.158C329.106 271.899 329.455 271.698 329.869 271.548C330.307 271.353 330.799 271.348 331.269 271.348C331.528 271.361 331.794 271.395 332.049 271.438C334.656 271.91 337.287 272.32 339.909 272.688C341.587 272.927 343.273 273.15 344.959 273.328C348.047 273.653 351.132 273.995 354.229 274.228C355.155 274.308 356.099 274.428 357.029 274.428C357.929 274.495 358.841 274.552 359.759 274.588C362.03 274.762 364.306 274.721 366.579 274.848C370.99 274.848 375.538 275.034 379.919 274.408C380.715 274.333 381.511 274.211 382.309 274.158C383.936 273.995 385.543 273.694 387.149 273.388C387.53 273.312 387.879 273.24 388.259 273.158C388.879 273.018 389.519 272.868 390.139 272.708C390.279 272.678 390.429 272.638 390.569 272.598C391.269 272.418 391.959 272.218 392.649 271.998M326.399 279.968V280.698M326.419 292.928C326.419 293.228 326.419 293.508 326.419 293.808M326.419 292.928C326.419 292.075 326.418 291.221 326.417 290.368M326.419 292.928V293.808M326.399 280.698C326.399 281.278 326.409 281.858 326.409 282.438C326.409 285.081 326.415 287.725 326.417 290.368M414.079 269.178C425.299 250.678 433.639 231.348 440.349 210.858C444.409 198.538 447.439 185.908 449.649 173.138M414.079 269.178L414.079 269.18C412.869 277.378 410.982 290.173 405.855 297.612M241.389 292.838C241.389 292.838 317.44 294.567 326.417 290.368M326.419 290.368L326.417 290.368M352.419 164.328L352.435 164.302M352.419 164.328C352.424 164.319 352.43 164.31 352.435 164.302M90.1199 270.218C91.1999 270.178 92.3099 270.138 93.3799 270.088C103.64 269.608 113.78 268.528 123.91 266.858C126.39 266.448 127.93 265.398 129.14 263.198C129.862 261.935 130.13 260.486 129.94 259.048C129.393 252.434 128.294 245.805 126.12 239.518C125.22 236.898 124.12 234.338 122.79 231.908C121.51 229.578 120.01 227.358 118.28 225.338C116.63 223.408 114.76 221.648 112.73 220.128C110.61 218.538 108.3 217.208 105.88 216.118C103.41 215.008 100.82 214.158 98.1799 213.508C89.4199 211.928 81.4698 212.788 81.4698 212.788C79.2398 212.988 77.0299 213.408 74.9199 214.158C72.8599 214.898 70.8899 215.938 69.1599 217.278C67.4999 218.558 66.0698 220.118 64.8498 221.818C63.4798 223.748 62.3999 225.858 61.5099 228.048C61.5099 228.048 58.8699 234.738 58.4099 237.558C58.3199 238.038 58.2399 238.498 58.1599 238.978C56.9799 245.868 56.6399 252.748 56.5699 259.708C56.5299 260.798 56.6899 261.818 57.0499 262.848C57.5396 264.147 58.207 265.37 59.2299 266.328C60.2613 267.296 61.5482 267.912 62.8998 268.288C71.6399 270.664 81.1177 270.539 90.1199 270.218ZM365.879 270.218C364.799 270.178 363.689 270.138 362.619 270.088C352.359 269.608 342.219 268.528 332.089 266.858C329.609 266.448 328.069 265.398 326.859 263.198C326.137 261.935 325.869 260.486 326.059 259.048C326.605 252.434 327.705 245.805 329.879 239.518C330.779 236.898 331.879 234.338 333.209 231.908C334.489 229.578 335.989 227.358 337.719 225.338C339.369 223.408 341.239 221.648 343.269 220.128C345.389 218.538 347.699 217.208 350.119 216.118C352.589 215.008 355.179 214.158 357.819 213.508C366.579 211.928 374.529 212.788 374.529 212.788C376.759 212.988 378.969 213.408 381.079 214.158C383.139 214.898 385.109 215.938 386.839 217.278C388.499 218.558 389.929 220.118 391.149 221.818C392.519 223.748 393.599 225.858 394.489 228.048C394.489 228.048 397.129 234.738 397.589 237.558C397.679 238.038 397.759 238.498 397.839 238.978C399.019 245.868 399.359 252.748 399.429 259.708C399.469 260.798 399.309 261.818 398.949 262.848C398.459 264.147 397.792 265.37 396.769 266.328C395.738 267.296 394.451 267.912 393.099 268.288C384.359 270.664 374.881 270.539 365.879 270.218Z"/>
  </g>
</svg>
