<?xml version="1.0"?>
<svg width="26" height="26" viewBox="0 0 26 26" fill="none" xmlns="http://www.w3.org/2000/svg">
  <path fill-rule="evenodd" clip-rule="evenodd" d="M1.91557 12.0138V0H0.00292969V13.9264H22.001L17.5475 18.3799C17.1741 18.7534 17.1741 19.3589 17.5475 19.7323C17.921 20.1058 18.5265 20.1058 18.9 19.7323L24.986 13.6463C25.3594 13.2729 25.3594 12.6674 24.986 12.2939L18.9 6.2079C18.5265 5.83443 17.921 5.83443 17.5475 6.2079C17.1741 6.58137 17.1741 7.18688 17.5475 7.56034L22.001 12.0138H1.91557Z" fill="#B8BCBF"/>
  <path fill-rule="evenodd" clip-rule="evenodd" d="M-4.71513e-05 26L-4.73828e-05 -8.36044e-08L1.9126 0L1.9126 26L-4.71513e-05 26Z" fill="#B8BCBF"/>
</svg>
