<?xml version="1.0"?>
<svg xmlns="http://www.w3.org/2000/svg" viewBox="0 0 36 36" fill="none">
  <path d="M30.65 5.16002C22.451 2.3486 13.549 2.3486 5.35 5.16002L4 5.62002V20.05C4 21.6025 4.36145 23.1336 5.05573 24.5222C5.75001 25.9107 6.75804 27.1186 8 28.05L18 35.55L28 28.05C29.242 27.1186 30.25 25.9107 30.9443 24.5222C31.6385 23.1336 32 21.6025 32 20.05V5.62002L30.65 5.16002ZM8.92 13.76L15.32 17.07C15.8155 16.7328 16.4006 16.5516 17 16.55C17.1198 16.5402 17.2402 16.5402 17.36 16.55L19.58 13.28C19.5281 13.0266 19.5013 12.7687 19.5 12.51C19.5 11.62 19.7639 10.75 20.2584 10.01C20.7529 9.26994 21.4557 8.69316 22.2779 8.35257C23.1002 8.01197 24.005 7.92286 24.8779 8.09649C25.7508 8.27012 26.5526 8.69871 27.182 9.32804C27.8113 9.95738 28.2399 10.7592 28.4135 11.6321C28.5872 12.505 28.4981 13.4098 28.1575 14.2321C27.8169 15.0544 27.2401 15.7572 26.5001 16.2516C25.76 16.7461 24.89 17.01 24 17.01C23.6001 17.0064 23.2028 16.9458 22.82 16.83L19.92 18.83C19.9724 19.0461 19.9993 19.2677 20 19.49C20.0305 20.2857 19.7437 21.0609 19.2026 21.645C18.6616 22.2292 17.9106 22.5745 17.115 22.605C16.3194 22.6355 15.5442 22.3487 14.96 21.8077C14.3758 21.2666 14.0305 20.5157 14 19.72L7.4 16.36L8.92 13.76Z" fill="currentColor"/>
</svg>
