<?xml version="1.0"?>
<svg xmlns="http://www.w3.org/2000/svg" viewBox="0 0 1024 1024" fill="none">
  <path fill="currentColor" d="M620.7 657.4C737.5 664.3 853.5 682.2 967.1 711.1V113.8C818.4 76 665.5 56.9 512 56.9C358.5 56.9 205.6 76 56.8999 113.8V711.1C170.5 682.2 286.5 664.3 403.3 657.4C402.2 655.2 401.2 652.9 400.3 650.7C394.2 636 391.1 620.3 391.2 604.4C391.2 580.5 398.3 557.2 411.6 537.3C424.9 517.4 443.8 501.9 465.9 492.8C488 483.7 512.3 481.3 535.7 485.9C559.2 490.6 580.7 502.1 597.6 519C614.5 535.9 626 557.4 630.7 580.9C635.4 604.4 633 628.7 623.8 650.7C622.7 653 621.7 655.2 620.7 657.4Z"/>
  <path fill="currentColor" d="M448 604.4C448 591.7 451.8 579.4 458.8 568.8C465.8 558.3 475.8 550.1 487.5 545.2C499.2 540.4 512.1 539.1 524.5 541.6C536.9 544.1 548.3 550.2 557.3 559.1C566.3 568.1 572.3 579.5 574.8 591.9C577.3 604.3 576 617.2 571.2 628.9C566.4 640.6 558.2 650.6 547.6 657.6C537.1 664.6 524.7 668.4 512 668.4C503.6 668.4 495.3 666.8 487.5 663.6C479.7 660.4 472.7 655.7 466.7 649.7C460.8 643.8 456 636.7 452.8 628.9C449.6 621.2 448 612.9 448 604.4ZM512 711.1C481.8 711.1 452.9 723.1 431.5 744.4C410.2 765.7 398.2 794.7 398.2 824.9V881.8H443.7L455.1 995.6H568.9L580.3 881.8H625.8V824.9C625.8 794.7 613.8 765.8 592.5 744.4C571.1 723.1 542.2 711.1 512 711.1Z"/>
</svg>
