<?xml version="1.0"?>
<svg xmlns="http://www.w3.org/2000/svg" viewBox="0 0 1920 1080" fill="none">
  <path fill="#1A9FFF" d="M879.121 184.879C877.95 183.707 876.05 183.707 874.879 184.879L855.787 203.971C854.615 205.142 854.615 207.042 855.787 208.213C856.958 209.385 858.858 209.385 860.029 208.213L877 191.243L893.971 208.213C895.142 209.385 897.042 209.385 898.213 208.213C899.385 207.042 899.385 205.142 898.213 203.971L879.121 184.879ZM877 303L880 303L880 187L877 187L874 187L874 303L877 303Z"/>
  <rect fill="currentColor" x="947" y="690.556" width="24.2764" height="48.947"/>
  <rect fill="currentColor" x="852.724" y="358" width="44.2764" height="39"/>
  <rect stroke="currentColor" x="861.5" y="333.5" width="28" height="55" stroke-width="3"/>
  <path stroke="currentColor" d="M875 363C875 363 875 466.189 875 518.943C875 549 891.383 571.298 921 579.234C966 591.292 959.842 615.5 959.842 700.261" stroke-width="6.06911"/>
  <path fill="currentColor" d="M1192 151H727V0H1192V151ZM1154 87C1142.95 87 1134 95.9543 1134 107C1134 118.046 1142.95 127 1154 127C1165.05 127 1174 118.046 1174 107C1174 95.9543 1165.05 87 1154 87ZM770 117H820V97H770V117ZM851 117H901V97H851V117Z"/>
  <path fill="currentColor" fill-rule="evenodd" clip-rule="evenodd" d="M901.625 704C907.226 704 909.547 705.639 911.469 706.998C912.828 707.958 913.988 708.778 915.969 708.778H1002.03C1004.01 708.778 1005.17 707.958 1006.53 706.998C1008.45 705.639 1010.77 704 1016.38 704C1025.94 704 1054.62 713.556 1059.41 718.333C1064.19 723.111 1064.19 727.889 1064.19 727.889V729.102C1067.94 731.981 1071.19 734.884 1073.75 737.444C1083.31 747 1112 828.222 1112 871.222C1112 914.222 1083.31 919 1083.31 919C1075.6 919 1063.75 903.812 1052.2 889.024C1042.27 876.302 1032.57 863.876 1025.94 861.667C1011.59 856.889 906.406 856.889 892.062 861.667C885.43 863.876 875.729 876.302 865.799 889.024C854.254 903.812 842.398 919 834.688 919C834.688 919 806 914.222 806 871.222C806 828.222 834.688 747 844.25 737.444C846.812 734.884 850.061 731.981 853.812 729.102V727.889C853.812 727.889 853.812 723.111 858.594 718.333C863.375 713.556 892.062 704 901.625 704ZM1040.28 730.278C1046.88 730.278 1052.23 735.625 1052.23 742.222C1052.23 748.819 1046.88 754.166 1040.28 754.166C1033.68 754.166 1028.33 748.819 1028.33 742.222C1028.33 735.625 1033.68 730.278 1040.28 730.278ZM877.719 780.444C888.281 780.444 896.844 771.888 896.844 761.333C896.844 750.779 888.281 742.222 877.719 742.222C867.156 742.222 858.594 750.779 858.594 761.333C858.594 771.888 867.156 780.444 877.719 780.444ZM1002.03 828.222C1012.59 828.222 1021.16 819.666 1021.16 809.111C1021.16 798.557 1012.59 790 1002.03 790C991.469 790 982.906 798.557 982.906 809.111C982.906 819.666 991.469 828.222 1002.03 828.222ZM908.797 801.944V794.778C908.797 792.139 910.938 790 913.578 790H923.14C925.781 790 927.922 792.139 927.922 794.778V801.944H935.094C937.735 801.944 939.875 804.084 939.875 806.723V816.278C939.875 818.916 937.735 821.055 935.094 821.055H927.922V828.222C927.922 830.861 925.781 833 923.14 833H913.578C910.938 833 908.797 830.861 908.797 828.222V821.055H901.625C898.984 821.055 896.844 818.916 896.844 816.278V806.723C896.844 804.084 898.984 801.944 901.625 801.944H908.797ZM1018.77 775.667C1025.37 775.667 1030.72 770.319 1030.72 763.722C1030.72 757.125 1025.37 751.778 1018.77 751.778C1012.16 751.778 1006.81 757.125 1006.81 763.722C1006.81 770.319 1012.16 775.667 1018.77 775.667ZM1073.75 763.722C1073.75 770.319 1068.4 775.667 1061.8 775.667C1055.2 775.667 1049.84 770.319 1049.84 763.722C1049.84 757.125 1055.2 751.778 1061.8 751.778C1068.4 751.778 1073.75 757.125 1073.75 763.722ZM1052.23 785.222C1052.23 778.625 1046.88 773.277 1040.28 773.277C1033.68 773.277 1028.33 778.625 1028.33 785.222C1028.33 791.819 1033.68 797.167 1040.28 797.167C1046.88 797.167 1052.23 791.819 1052.23 785.222Z"/>
</svg>
