<?xml version="1.0"?>
<svg xmlns="http://www.w3.org/2000/svg" viewBox="0 0 32 36" fill="none">
  <path fill="currentColor" fill-rule="evenodd" clip-rule="evenodd" d="M14.2725 32.1273C14.2725 32.6093 14.625 33 15.0599 33C15.4948 33 15.8473 32.6093 15.8473 32.1273V30.3818C15.8473 29.8998 15.4948 29.5091 15.0599 29.5091C14.625 29.5091 14.2725 29.8998 14.2725 30.3818V32.1273ZM14.2725 3.61817C14.2725 4.10017 14.625 4.4909 15.0599 4.4909C15.4948 4.4909 15.8473 4.10017 15.8473 3.61817V1.87272C15.8473 1.39072 15.4948 0.999989 15.0599 0.999989C14.625 0.999989 14.2725 1.39072 14.2725 1.87272V3.61817Z"/>
  <path fill="currentColor" fill-rule="evenodd" clip-rule="evenodd" d="M14.1013 16.9999C14.1013 15.341 14.3009 13.8713 14.6045 12.8431C14.7575 12.325 14.9245 11.9616 15.0767 11.7436C15.1672 11.614 15.2271 11.5692 15.2531 11.5546C15.2791 11.5692 15.3391 11.614 15.4295 11.7436C15.5817 11.9616 15.7488 12.325 15.9018 12.8431C15.9048 12.8533 15.9078 12.8635 15.9108 12.8738C16.4157 12.9045 16.9072 12.9563 17.3788 13.028C17.3253 12.7914 17.2669 12.5659 17.2041 12.3531C17.0244 11.7447 16.7954 11.1965 16.5077 10.7844C16.2262 10.3811 15.8074 10 15.2531 10C14.6989 10 14.2801 10.3811 13.9985 10.7844C13.7108 11.1965 13.4818 11.7447 13.3021 12.3531C12.9404 13.578 12.7285 15.2208 12.7285 16.9999C12.7285 18.7791 12.9404 20.4219 13.3021 21.6468C13.4818 22.2552 13.7108 22.8034 13.9985 23.2154C14.2801 23.6188 14.6989 23.9999 15.2531 23.9999C15.8074 23.9999 16.2262 23.6188 16.5077 23.2154C16.7954 22.8034 17.0244 22.2552 17.2041 21.6468C17.2718 21.4175 17.3343 21.1735 17.3911 20.9168C16.9206 20.9887 16.4302 21.0409 15.9263 21.0719C15.9182 21.1005 15.91 21.1288 15.9018 21.1567C15.7488 21.6749 15.5817 22.0383 15.4295 22.2563C15.3391 22.3858 15.2792 22.4307 15.2531 22.4453C15.2271 22.4307 15.1672 22.3858 15.0767 22.2563C14.9245 22.0383 14.7575 21.6749 14.6045 21.1567C14.3009 20.1286 14.1013 18.6589 14.1013 16.9999ZM15.2383 22.4519C15.238 22.452 15.2383 22.4519 15.2383 22.4519C15.2383 22.4519 15.2386 22.4519 15.2392 22.4517C15.2395 22.4516 15.24 22.4515 15.2406 22.4513C15.2397 22.4514 15.2387 22.4518 15.2383 22.4519Z"/>
  <path fill="currentColor" fill-rule="evenodd" clip-rule="evenodd" d="M11.6683 15.9484C11.5673 15.9809 11.4701 16.0147 11.377 16.0497C10.918 16.2224 10.5961 16.411 10.403 16.5828C10.2882 16.6849 10.2485 16.7525 10.2356 16.7819C10.2485 16.8113 10.2882 16.879 10.403 16.9811C10.5961 17.1529 10.918 17.3414 11.377 17.5141C11.4665 17.5478 11.5597 17.5803 11.6565 17.6116C11.6665 18.1632 11.6902 18.7052 11.7271 19.2329C11.4489 19.1591 11.1866 19.0759 10.9429 18.9843C10.404 18.7815 9.91832 18.5229 9.5533 18.1982C9.19601 17.8803 8.8584 17.4076 8.8584 16.7819C8.8584 16.1563 9.19601 15.6835 9.5533 15.3657C9.91832 15.0409 10.404 14.7824 10.9429 14.5796C11.1973 14.4839 11.4721 14.3974 11.764 14.3212C11.7185 14.8489 11.6864 15.3931 11.6683 15.9484ZM14.9635 15.482C14.9954 15.4818 15.0274 15.4817 15.0594 15.4817C16.529 15.4817 17.831 15.707 18.7418 16.0497C19.2008 16.2224 19.5228 16.411 19.7159 16.5828C19.8306 16.6849 19.8703 16.7525 19.8833 16.7819C19.8703 16.8113 19.8306 16.879 19.7159 16.9811C19.5228 17.1529 19.2008 17.3414 18.7418 17.5141C17.831 17.8569 16.529 18.0822 15.0594 18.0822C15.02 18.0822 14.9807 18.082 14.9415 18.0817C14.9625 18.6261 14.9993 19.1449 15.0489 19.6318C15.0524 19.6318 15.0559 19.6318 15.0594 19.6318C16.6355 19.6318 18.0909 19.3925 19.1759 18.9843C19.7149 18.7815 20.2005 18.5229 20.5656 18.1982C20.9228 17.8803 21.2605 17.4076 21.2605 16.7819C21.2605 16.1563 20.9228 15.6835 20.5656 15.3657C20.2005 15.0409 19.7149 14.7824 19.1759 14.5796C18.1004 14.1749 16.6612 13.9363 15.1012 13.9321C15.0414 14.4145 14.9945 14.9335 14.9635 15.482ZM10.2303 16.7677C10.23 16.766 10.2298 16.7652 10.2297 16.7652C10.2297 16.7652 10.2297 16.7654 10.2298 16.7657C10.2298 16.7661 10.23 16.7668 10.2303 16.7677ZM10.2303 16.7961C10.23 16.7978 10.2298 16.7987 10.2297 16.7986C10.2297 16.7986 10.2298 16.7978 10.2303 16.7961ZM19.889 16.7981C19.889 16.7985 19.8891 16.7987 19.8891 16.7986C19.8892 16.7986 19.8891 16.7978 19.8886 16.7961C19.8887 16.797 19.8889 16.7976 19.889 16.7981ZM19.8886 16.7677C19.8889 16.766 19.8891 16.7652 19.8891 16.7652C19.8892 16.7652 19.8891 16.7661 19.8886 16.7677Z"/>
  <path fill="currentColor" fill-rule="evenodd" clip-rule="evenodd" d="M1.10154 19.4322C1.17706 19.9157 1.58547 20.2385 2.01376 20.1533L10.0785 18.548L9.80503 16.7973L1.74028 18.4025C1.312 18.4877 1.02603 18.9488 1.10154 19.4322ZM20.3152 16.5105L28.38 14.9052C28.8083 14.82 29.0942 14.359 29.0187 13.8755C28.9432 13.392 28.5348 13.0692 28.1065 13.1545L18.7124 15.035L20.3152 16.5105Z"/>
  <path fill="currentColor" fill-rule="evenodd" clip-rule="evenodd" d="M22.5901 17C22.5901 21.6944 19.2189 25.5 15.0602 25.5C12.0462 25.5 9.4458 23.501 8.24266 20.6134L6.89378 20.8819C8.23638 24.4767 11.3873 27 15.0602 27C19.9528 27 23.9189 22.5228 23.9189 17C23.9189 11.4772 19.9528 7 15.0602 7C10.3149 7 6.44098 11.2119 6.21223 16.5046L7.56034 16.2362C7.90245 11.8997 11.1296 8.5 15.0602 8.5C19.2189 8.5 22.5901 12.3056 22.5901 17Z"/>
  <path fill="currentColor" d="M19.0965 31.7978C19.5919 32.0375 19.9363 32.2972 20.1439 32.5347C20.3477 32.7679 20.3758 32.924 20.3758 33C20.3758 33.0761 20.3477 33.2321 20.1439 33.4653C19.9363 33.7028 19.5919 33.9625 19.0965 34.2022C18.1088 34.68 16.6825 35 15.0606 35C13.4388 35 12.0125 34.68 11.0248 34.2022C10.5293 33.9625 10.185 33.7028 9.97737 33.4653C9.77352 33.2321 9.74541 33.0761 9.74541 33C9.74541 32.924 9.77352 32.7679 9.97737 32.5347C10.185 32.2972 10.5293 32.0375 11.0248 31.7978C11.4927 31.5714 12.0591 31.3805 12.698 31.2422L12.5005 30.2668C10.353 30.7383 8.85954 31.7848 8.85954 33C8.85954 34.6569 11.6359 36 15.0606 36C18.4854 36 21.2617 34.6569 21.2617 33C21.2617 31.8832 20.0003 30.9089 18.1292 30.3924L17.9142 31.3626C18.3547 31.4839 18.7522 31.6313 19.0965 31.7978Z"/>
  <path fill="currentColor" fill-rule="evenodd" clip-rule="evenodd" d="M19.1021 32.7709L18.1625 30.9338L19.7899 29.8732L19.347 29.0071L16.9523 30.5678L18.3349 33.2709L19.1021 32.7709Z"/>
</svg>
