<?xml version="1.0"?>
<svg xmlns="http://www.w3.org/2000/svg" viewBox="0 0 36 36" fill="none">
  <path d="M31.48 6.31C30.7507 5.57829 29.8842 4.99773 28.9301 4.6016C27.976 4.20547 26.9531 4.00156 25.92 4.00156C24.8869 4.00156 23.864 4.20547 22.9099 4.6016C21.9558 4.99773 21.0893 5.57829 20.36 6.31L18 8.51L15.64 6.31C14.1472 4.90003 12.1629 4.12849 10.1097 4.15963C8.05655 4.19077 6.09662 5.02215 4.64725 6.47674C3.19787 7.93132 2.37354 9.89422 2.34977 11.9475C2.326 14.0008 3.10467 15.9822 4.51998 17.47L18 31L31.48 17.47C32.9553 15.9877 33.7836 13.9814 33.7836 11.89C33.7836 9.7986 32.9553 7.79232 31.48 6.31Z" fill="currentColor"/>
</svg>
