<?xml version="1.0"?>
<svg xmlns="http://www.w3.org/2000/svg" viewBox="0 0 36 36" fill="none">
  <path fill="currentColor" d="M0 2C0 0.895431 0.895431 0 2 0H34C35.1046 0 36 0.895431 36 2V34C36 35.1046 35.1046 36 34 36H2C0.895431 36 0 35.1046 0 34V2Z"/>
  <path fill="currentColor" d="M17.4516 24.75H14.5176L11.9796 20.502H11.6736H9.80164V24.75H7.15564V12.15H11.8716C13.5996 12.15 14.8716 12.498 15.6876 13.194C16.5036 13.878 16.9116 14.838 16.9116 16.074C16.9116 17.046 16.6956 17.856 16.2636 18.504C15.8436 19.152 15.2496 19.644 14.4816 19.98L17.4516 24.75ZM9.80164 14.4V18.234H11.8716C12.5676 18.234 13.1076 18.06 13.4916 17.712C13.8876 17.352 14.0856 16.86 14.0856 16.236C14.0856 15.624 13.8936 15.168 13.5096 14.868C13.1376 14.556 12.5376 14.4 11.7096 14.4H9.80164Z"/>
  <path fill="currentColor" d="M27.6539 12.15V19.854H29.4719V21.888H27.6539V24.75H24.9719V21.888H19.0319V20.16L25.2059 12.15H27.6539ZM25.0799 15.3L21.6059 19.854H25.0799V15.3Z"/>
</svg>
