<?xml version="1.0"?>
<svg xmlns="http://www.w3.org/2000/svg" viewBox="0 0 39 30" fill="none">
  <path fill="#06BFFF" d="M4 11.1947L8.70813 12.7135C9.35359 12.9033 9.84719 13.4349 10.075 14.0803L11.5937 18.7885L13.1125 14.0803C13.3023 13.4349 13.8339 12.9413 14.4794 12.7135L19.1875 11.1947L14.4794 9.67595C13.8339 9.48611 13.3403 8.95455 13.1125 8.30908L11.5937 3.60095L10.075 8.30908C9.88516 8.95455 9.35359 9.44814 8.70813 9.67595L4 11.1947Z"/>
  <path fill="currentColor" d="M20 4.89423L22.439 5.67308C22.7799 5.77692 23.0422 6.03654 23.1471 6.37404L23.9339 8.78846L24.7206 6.37404C24.8255 6.03654 25.0878 5.77692 25.4287 5.67308L27.8677 4.89423L25.4287 4.11539C25.0878 4.01154 24.8255 3.75192 24.7206 3.41442L23.9339 1L23.1471 3.41442C23.0422 3.75192 22.7799 4.01154 22.439 4.11539L20 4.89423Z"/>
  <path fill="currentColor" d="M26 27.9471L27.2326 28.3365C27.39 28.3885 27.5211 28.5183 27.5735 28.674L27.9669 29.8942L28.3603 28.674C28.4128 28.5183 28.5439 28.3885 28.7012 28.3365L29.9339 27.9471L28.7012 27.5577C28.5439 27.5058 28.4128 27.376 28.3603 27.2202L27.9669 26L27.5735 27.2202C27.5211 27.376 27.39 27.5058 27.2326 27.5577L26 27.9471Z"/>
  <path fill="currentColor" d="M35 1.94711L36.2326 2.33654C36.39 2.38846 36.5211 2.51827 36.5735 2.67404L36.9669 3.89423L37.3603 2.67404C37.4128 2.51827 37.5439 2.38846 37.7012 2.33654L38.9339 1.94711L37.7012 1.55769C37.5439 1.50577 37.4128 1.37596 37.3603 1.22019L36.9669 8.59772e-08L36.5735 1.22019C36.5211 1.37596 36.39 1.50577 36.2326 1.55769L35 1.94711Z"/>
  <path fill="currentColor" d="M13 21.9471L14.2326 22.3365C14.39 22.3885 14.5211 22.5183 14.5735 22.674L14.9669 23.8942L15.3603 22.674C15.4128 22.5183 15.5439 22.3885 15.7012 22.3365L16.9339 21.9471L15.7012 21.5577C15.5439 21.5058 15.4128 21.376 15.3603 21.2202L14.9669 20L14.5735 21.2202C14.5211 21.376 14.39 21.5058 14.2326 21.5577L13 21.9471Z"/>
  <path fill="currentColor" d="M-8.51111e-08 15.8413L1.23261 16.2308C1.38996 16.2827 1.52109 16.4125 1.57354 16.5683L1.96693 17.7885L2.36031 16.5683C2.41276 16.4125 2.54389 16.2827 2.70125 16.2308L3.93386 15.8413L2.70125 15.4519C2.54389 15.4 2.41276 15.2702 2.36031 15.1144L1.96693 13.8942L1.57354 15.1144C1.52109 15.2702 1.38996 15.4 1.23261 15.4519L-8.51111e-08 15.8413Z"/>
</svg>
