<?xml version="1.0"?>
<svg viewBox="0 0 153 46" fill="none" xmlns="http://www.w3.org/2000/svg">
  <path d="M22.9891 0C10.8429 0 0.93833 9.30396 0 21.1548L12.3547 26.2486C13.3973 25.5209 14.6484 25.1051 16.0037 25.1051C16.108 25.1051 16.2644 25.1051 16.3687 25.1051L21.8944 17.2045C21.8944 17.1525 21.8944 17.1525 21.8944 17.1006C21.8944 12.3186 25.8041 8.42034 30.6 8.42034C35.3959 8.42034 39.3056 12.3186 39.3056 17.1006C39.3056 21.8825 35.3959 25.7808 30.6 25.7808C30.5479 25.7808 30.4436 25.7808 30.3915 25.7808L22.5721 31.3424C22.5721 31.4463 22.5721 31.5503 22.5721 31.6542C22.5721 35.2407 19.6528 38.1514 16.0559 38.1514C12.876 38.1514 10.2695 35.9164 9.64395 32.9017L0.781942 29.2633C3.5448 38.9311 12.4068 46 22.9891 46C35.7087 46 46.0303 35.7085 46.0303 23.026C46.0303 10.2915 35.7087 0 22.9891 0Z" fill="#E0E1E6"/>
  <path d="M14.44 34.8766L11.625 33.7331C12.1463 34.7726 12.9804 35.6562 14.1272 36.124C16.6294 37.1636 19.4966 35.9681 20.5391 33.4732C21.0604 32.2777 21.0604 30.9263 20.5391 29.7308C20.0178 28.5353 19.0795 27.5997 17.8805 27.08C16.6816 26.5602 15.3783 26.6122 14.2836 27.028L17.2029 28.2235C19.0274 29.0031 19.9136 31.0822 19.1316 32.9014C18.4018 34.7726 16.2645 35.6562 14.44 34.8766Z" fill="#E0E1E6"/>
  <path d="M36.3857 17.0488C36.3857 13.8782 33.7793 11.2793 30.5994 11.2793C27.4195 11.2793 24.813 13.8782 24.813 17.0488C24.813 20.2194 27.4195 22.8703 30.5994 22.8703C33.7793 22.8703 36.3857 20.2714 36.3857 17.0488ZM26.2205 17.0488C26.2205 14.6578 28.1493 12.6827 30.5994 12.6827C32.9973 12.6827 34.9782 14.6058 34.9782 17.0488C34.9782 19.4397 33.0495 21.3629 30.5994 21.3629C28.2014 21.4149 26.2205 19.4397 26.2205 17.0488Z" fill="#E0E1E6"/>
  <path d="M70.6879 15.7489L69.1241 18.4517C67.9251 17.6201 66.3091 17.1003 64.9016 17.1003C63.2856 17.1003 62.2951 17.776 62.2951 18.9715C62.2951 20.4269 64.0675 20.7387 66.674 21.6743C69.489 22.6619 71.105 23.8574 71.105 26.4043C71.105 29.9387 68.3421 31.9139 64.3282 31.9139C62.3994 31.9139 60.0014 31.3941 58.229 30.3026L59.3759 27.2879C60.8355 28.0675 62.6079 28.5353 64.1718 28.5353C66.3091 28.5353 67.2995 27.7557 67.2995 26.6122C67.2995 25.3127 65.7878 24.8969 63.2856 24.0653C60.4706 23.1297 58.5418 21.8822 58.5418 19.0235C58.5418 15.8009 61.1483 13.9297 64.8494 13.9297C67.4038 14.0336 69.489 14.8653 70.6879 15.7489Z" fill="#E0E1E6"/>
  <path d="M82.7305 17.4643V31.6542H79.0815V17.4643H73.8164V14.3457H87.9956V17.4643H82.7305Z" fill="#E0E1E6"/>
  <path d="M95.6574 17.4124V21.3107H102.643V24.4293H95.6574V28.4836H103.737V31.6022H92.0083V14.3457H103.737V17.4643H95.6574V17.4124Z" fill="#E0E1E6"/>
  <path d="M111.87 28.2756L110.723 31.6542H106.917L113.434 14.3457H117.083L123.755 31.6542H119.793L118.594 28.2756H111.87ZM115.258 18.4519L112.912 25.3649H117.708L115.258 18.4519Z" fill="#E0E1E6"/>
  <path d="M142.47 21.0508L137.726 31.1864H135.693L131.001 21.1547V31.7062H127.509V14.3457H131.001L136.84 26.8723L142.47 14.3457H145.963V31.6542H142.47V21.0508Z" fill="#E0E1E6"/>
  <path d="M153 16.5288C153 18.0361 151.905 18.9197 150.602 18.9197C149.299 18.9197 148.204 17.9841 148.204 16.5288C148.204 15.0214 149.351 14.1378 150.602 14.1378C151.853 14.0858 153 15.0214 153 16.5288ZM148.569 16.5288C148.569 17.7762 149.455 18.5559 150.55 18.5559C151.645 18.5559 152.531 17.7762 152.531 16.5288C152.531 15.2813 151.645 14.5016 150.55 14.5016C149.455 14.5016 148.569 15.2813 148.569 16.5288ZM150.602 15.2813C151.228 15.2813 151.436 15.5932 151.436 15.957C151.436 16.2689 151.228 16.4768 151.019 16.6327L151.593 17.6723H151.123L150.654 16.7367H150.133V17.6723H149.768V15.2813H150.602ZM150.185 16.3728H150.602C150.863 16.3728 151.019 16.2169 151.019 16.009C151.019 15.8011 150.915 15.6451 150.602 15.6451H150.185V16.3728Z" fill="#E0E1E6"/>
</svg>
