<?xml version="1.0"?>
<svg xmlns="http://www.w3.org/2000/svg" viewBox="0 0 36 36" fill="none">
  <path fill-rule="evenodd" clip-rule="evenodd" d="M18 3C15.0333 3 12.1332 3.87973 9.66645 5.52796C7.19971 7.17618 5.27712 9.51886 4.14181 12.2597C3.00649 15.0006 2.70944 18.0166 3.28822 20.9264C3.867 23.8361 5.29561 26.5088 7.3934 28.6066C9.49119 30.7044 12.1639 32.133 15.0736 32.7118C17.9834 33.2906 20.9994 32.9935 23.7402 31.8582C26.4811 30.7229 28.8238 28.8003 30.472 26.3336C32.1203 23.8668 33 20.9667 33 18C33 16.0302 32.612 14.0796 31.8582 12.2597C31.1044 10.4399 29.9995 8.78628 28.6066 7.3934C27.2137 6.00052 25.5601 4.89563 23.7402 4.14181C21.9204 3.38799 19.9698 3 18 3ZM20.5 26H15.5V16H20.5V26ZM18 14C17.4067 14 16.8266 13.8241 16.3333 13.4944C15.8399 13.1648 15.4554 12.6962 15.2284 12.1481C15.0013 11.5999 14.9419 10.9967 15.0576 10.4147C15.1734 9.83279 15.4591 9.29824 15.8787 8.87868C16.2982 8.45912 16.8328 8.1734 17.4147 8.05764C17.9967 7.94189 18.5999 8.0013 19.148 8.22836C19.6962 8.45542 20.1648 8.83994 20.4944 9.33329C20.8241 9.82664 21 10.4067 21 11C21 11.7956 20.6839 12.5587 20.1213 13.1213C19.5587 13.6839 18.7956 14 18 14Z" fill="currentColor"/>
</svg>
