<?xml version="1.0"?>
<svg width="36" height="36" viewBox="0 0 36 36" fill="none" xmlns="http://www.w3.org/2000/svg">
  <path d="M20 11.85V17L23.41 20.42L20.59 23.24L16 18.68V11.85H20ZM29 18.43C28.9612 19.5207 28.7589 20.5994 28.4 21.63L32.16 23C32.6583 21.5767 32.9414 20.0869 33 18.58L29 18.43ZM28.68 15.33L32.56 14.33C32.1998 12.8866 31.6268 11.5048 30.86 10.23L27.44 12.3C28.0013 13.2418 28.416 14.2635 28.67 15.33H28.68ZM28.09 6.90001C27.011 5.91173 25.7909 5.08941 24.47 4.46001L22.74 8.07C23.7087 8.53467 24.6047 9.13764 25.4 9.86L28.09 6.90001ZM26.93 24.42C25.8301 25.9503 24.3555 27.1724 22.6475 27.969C20.9396 28.7656 19.0557 29.11 17.1764 28.9693C15.297 28.8285 13.4854 28.2073 11.9152 27.1652C10.3449 26.1231 9.06879 24.6951 8.20908 23.018C7.34937 21.3409 6.93495 19.4711 7.00556 17.5879C7.07616 15.7046 7.62943 13.8711 8.61229 12.2631C9.59516 10.6552 10.9747 9.32667 12.6185 8.40506C14.2624 7.48345 16.1154 6.99963 18 7.00001C18.5659 6.99777 19.1311 7.04124 19.69 7.13001L20.3 3.18001C19.5393 3.05968 18.7702 2.99949 18 3.00001C15.527 2.99797 13.0918 3.60743 10.9112 4.77411C8.7307 5.9408 6.87245 7.62852 5.5019 9.68704C4.13134 11.7456 3.29102 14.111 3.05572 16.5728C2.82043 19.0347 3.19746 21.5165 4.15326 23.7973C5.10906 26.0782 6.61398 28.0874 8.53404 29.646C10.4541 31.2046 12.7297 32.2643 15.1584 32.7308C17.587 33.1972 20.0933 33.056 22.4542 32.3196C24.8151 31.5832 26.9572 30.2745 28.69 28.51V28.51L28.77 28.43L28.82 28.38C29.3109 27.8727 29.7654 27.3313 30.18 26.76L26.93 24.42Z" fill="currentColor"/>
</svg>
