<?xml version="1.0"?>
<svg version="1.1" id="Layer_2" xmlns="http://www.w3.org/2000/svg" x="0px" y="0px" width="128px" height="255px" viewBox="0 0 128 255">
  <rect x="7.756" y="5.518" fill="#292D33" width="112.144" height="234.357"/>
  <path fill="#3C414B" d="M40.334,15.72h47.237c3.957,0,7.164-3.259,7.164-7.28c0-1.113,0.889-2.017,1.984-2.017h9.746 c7.417,0,13.432,6.108,13.432,13.646v206.156c0,7.538-6.015,13.647-13.431,13.647H21.459c-7.417,0-13.429-6.109-13.429-13.647 V20.071c0-7.536,6.013-13.646,13.429-13.646h9.728c1.096,0,1.983,0.903,1.983,2.017C33.17,12.461,36.377,15.72,40.334,15.72 M107.057,0.001H20.87c-9.922,0-17.965,8.174-17.965,18.256v217.505c0,10.082,8.043,18.256,17.965,18.256h86.188 c9.923,0,17.966-8.174,17.966-18.256V18.257C125.022,8.175,116.979,0.001,107.057,0.001"/>
  <path fill="#3C414B" d="M0.826,33.349C0.369,33.349,0,33.725,0,34.189v7.616c0,0.464,0.37,0.84,0.826,0.84s0.827-0.376,0.827-0.84 v-7.617C1.653,33.725,1.283,33.349,0.826,33.349"/>
  <path fill="#3C414B" d="M0.826,51.56C0.369,51.56,0,51.936,0,52.4v16.8c0,0.465,0.37,0.841,0.826,0.841s0.827-0.376,0.827-0.841 V52.4C1.653,51.936,1.283,51.56,0.826,51.56"/>
  <path fill="#3C414B" d="M0.826,75.304C0.369,75.304,0,75.68,0,76.144v15.904c0,0.464,0.37,0.84,0.826,0.84s0.827-0.376,0.827-0.84 V76.144C1.653,75.68,1.283,75.304,0.826,75.304"/>
  <path fill="#3C414B" d="M127.617,58.056c-0.457,0-0.827,0.376-0.827,0.84v27.328c0,0.464,0.37,0.84,0.827,0.84 c0.456,0,0.826-0.376,0.826-0.84V58.896C128.443,58.432,128.073,58.056,127.617,58.056"/>
</svg>
