<?xml version="1.0"?>
<svg xmlns="http://www.w3.org/2000/svg" version="1.1" viewBox="0 0 1024 1024">
  <path d="M861.6,624.9c-8-25.6-18.8-55.5-29.8-84.2h0l-40.2-100.3c0-1.2.5-20.9.5-31.1,0-171.5-81-343.9-280.1-343.9S231.9,237.8,231.9,409.3s.5,29.9.5,31.1h0l-40.2,100.3h0c-11,28.7-21.9,58.6-29.8,84.2-38,122.2-25.7,172.8-16.3,173.9,20.1,2.4,78.2-92,78.2-92,0,54.7,28.2,126,89.1,177.6-22.8,7-50.7,17.8-68.6,31.1-16.1,11.9-14.1,24-11.2,28.9,12.8,21.5,218.9,13.8,278.4,7.1h0c59.5,6.7,265.7,14.5,278.4-7.1,2.9-4.9,4.9-17-11.2-28.9-18-13.3-45.9-24.1-68.7-31.1,60.9-51.5,89-122.9,89-177.5,0,0,58.1,94.4,78.2,92,9.4-1.1,21.7-51.7-16.3-173.9h.2Z"/>
</svg>
