<?xml version="1.0"?>
<svg xmlns="http://www.w3.org/2000/svg" viewBox="0 0 36 39" fill="none">
  <path fill="white" d="M18 30C18 34.9706 13.9706 39 9 39C4.02944 39 0 34.9706 0 30C0 25.0294 4.02944 21 9 21C13.9706 21 18 25.0294 18 30ZM11.7251 34.7912H14.04L10.1091 24.6H7.9544L4.13999 34.7912H6.36749L7.0372 32.8112H11.0263L11.7251 34.7912ZM7.61955 31.1078L9.0172 27.0314L10.444 31.1078H7.61955Z" fill-opacity="0.65"/>
  <path fill="white" d="M36 12C36 18.2133 30.9633 23.25 24.75 23.25C18.5367 23.25 13.5 18.2133 13.5 12C13.5 5.7868 18.5367 0.75 24.75 0.75C30.9633 0.75 36 5.7868 36 12ZM28.0119 12.5327C27.7115 12.1319 27.2776 11.8469 26.7102 11.6777C27.1191 11.455 27.4236 11.1656 27.6239 10.8093C27.8325 10.4442 27.9369 10.0478 27.9369 9.62034C27.9369 8.88111 27.6906 8.31111 27.1984 7.91033C26.706 7.50064 25.9676 7.29579 24.9829 7.29579H21.9164V16.6474H25.3334C26.2846 16.6474 27.044 16.4203 27.6114 15.9661C28.1789 15.503 28.4625 14.8484 28.4625 14.0022C28.4625 13.4144 28.3124 12.9246 28.0119 12.5327ZM23.506 11.2903V8.69854H24.8203C25.8549 8.69854 26.3723 9.10823 26.3723 9.9276C26.3723 10.3551 26.2387 10.6891 25.9717 10.9296C25.7047 11.17 25.3334 11.2903 24.8578 11.2903H23.506ZM26.3848 14.884C26.1094 15.1334 25.7005 15.258 25.1581 15.258H23.506V12.5327H25.2083C26.268 12.5327 26.7979 12.9869 26.7979 13.8954C26.7979 14.305 26.6601 14.6346 26.3848 14.884Z"/>
</svg>
