<?xml version="1.0"?>
<svg xmlns="http://www.w3.org/2000/svg" viewBox="0 0 36 36" fill="none">
  <path d="M28 13.52C27.8828 11.1153 26.902 8.83356 25.2376 7.0939C23.5733 5.35425 21.3372 4.27345 18.94 4.04999C18.64 4.04999 18.33 4.04999 18.02 4.04999C17.71 4.04999 17.4 4.04999 17.1 4.04999C14.6957 4.26433 12.45 5.34114 10.7774 7.08168C9.10491 8.82222 8.1184 11.109 8 13.52C6.00208 14.2303 4.31912 15.6232 3.24787 17.4532C2.17662 19.2831 1.78588 21.4325 2.14455 23.5224C2.50323 25.6122 3.58828 27.5084 5.20838 28.8764C6.82848 30.2444 8.87958 30.9965 11 31H25C27.1204 30.9965 29.1715 30.2444 30.7916 28.8764C32.4117 27.5084 33.4968 25.6122 33.8555 23.5224C34.2141 21.4325 33.8234 19.2831 32.7521 17.4532C31.6809 15.6232 29.9979 14.2303 28 13.52ZM23.25 21.06L20 17.83V27H16V17.83L12.77 21.06L9.94 18.23L18 10.17L26.06 18.23L23.25 21.06Z" fill="currentColor"/>
</svg>
