<?xml version="1.0"?>
<svg version="1.1" id="Layer_2" xmlns="http://www.w3.org/2000/svg" x="0px" y="0px" width="256px" height="256px" viewBox="0 0 256 256">
  <title/>
  <path d="M128.55,137.4c0-21,17.02-38.02,38.02-38.02c0,0,0.01,0,0.01,0c-7.68-19.04-26.32-32.47-48.11-32.47
												c-28.64,0-51.86,23.22-51.86,51.86c0,9.48,2.54,18.37,6.99,26.01c0.03,0.05,0.06,0.1,0.09,0.16l-6.85,29.66l32.69-7.54
												c5.87,2.3,12.26,3.57,18.94,3.57c8.06,0,15.68-1.84,22.49-5.12C133.34,158.55,128.55,148.53,128.55,137.4z"/>
  <path d="M196.36,154.8c2.95-5.08,4.64-10.97,4.64-17.27c0-19.01-15.41-34.42-34.42-34.42s-34.42,15.41-34.42,34.42
						c0,19.01,15.41,34.42,34.42,34.42c4.44,0,8.68-0.84,12.57-2.37l21.7,5.01l-4.54-19.69C196.32,154.87,196.34,154.84,196.36,154.8z
						M167.05,157.78c-2.3,0-4.16-1.86-4.16-4.16c0-2.3,1.86-4.16,4.16-4.16c2.3,0,4.16,1.86,4.16,4.16
						C171.21,155.91,169.34,157.78,167.05,157.78z M171.21,140.62v0.52c0,2.3-1.86,4.16-4.16,4.16s-4.16-1.86-4.16-4.16v-4.16
						c0-2.3,1.86-4.16,4.16-4.16c3.32,0,6.24-1.94,6.24-4.16c0-2.22-2.91-4.16-6.24-4.16c-2.13,0-4.1,0.75-5.29,2.01
						c-1.57,1.67-4.2,1.76-5.88,0.19c-1.67-1.57-1.76-4.2-0.19-5.88c2.77-2.95,6.9-4.64,11.35-4.64c8.02,0,14.55,5.6,14.55,12.47
						C181.6,134.31,177.18,139.08,171.21,140.62z"/>
</svg>
