<?xml version="1.0"?>
<svg xmlns="http://www.w3.org/2000/svg" viewBox="0 0 487 751" fill="none">
  <path fill="currentColor" d="M486.098 224.708H0V0H486.098V224.708ZM69.626 171.401V192.309H121.894V171.401H69.626Z"/>
  <path stroke="currentColor" d="M95.7601 182.724C95.7601 182.724 95.7598 194.396 95.7598 249.544C95.7598 307.414 129.31 332.456 173.847 347.9C222.745 364.855 244.451 404.815 244.451 464.417" stroke-width="6.34447"/>
  <path fill="currentColor" fill-rule="evenodd" clip-rule="evenodd" d="M335.632 469.539C338.754 462.851 352.798 463.52 366.173 465.526C379.549 467.532 388.689 472.437 393.816 476.895C397.918 480.462 399.983 488.191 400.503 491.609C405.631 495.622 411.427 505.43 414.102 510.78C416.242 515.06 432.828 577.063 440.853 607.53C444.643 623.135 451.598 661.834 449.101 691.795C445.98 729.247 427.255 738.833 424.58 741.731C421.904 744.629 402.51 752.654 389.803 749.31C377.097 745.966 372.192 735.489 369.517 729.47C366.842 723.451 359.708 710.968 352.352 705.171C346.467 700.535 338.902 699.524 335.855 699.598H157.515C154.127 699.598 150.307 700.193 148.821 700.49C137.229 702.942 127.198 716.094 121.625 729.024C116.051 741.954 109.14 752.431 87.7398 749.31C66.339 746.189 57.4221 735.488 49.6197 721.221C41.8174 706.954 42.2628 677.083 41.817 664.153C41.4603 653.809 48.3557 617.487 51.8482 600.619L69.6822 535.302C70.7968 530.844 73.7842 519.875 76.816 511.671C79.8478 503.468 87.4428 494.581 90.8609 491.163C90.3259 488.488 93.0155 483.211 94.4273 480.908C99.3318 472.214 113.153 468.425 118.503 466.641C123.854 464.858 144.362 463.52 150.381 465.526C155.196 467.131 156.549 471.545 156.624 473.551L239.329 471.545L322.034 472.882L334.518 473.329L335.632 469.539ZM147.386 590.874C138.413 589.298 129.861 595.295 128.286 604.268L119.112 656.518C117.536 665.491 123.534 674.043 132.507 675.619L186.922 685.172C195.896 686.748 204.448 680.75 206.023 671.777L215.196 619.527C216.771 610.554 210.775 602.002 201.801 600.426L147.386 590.874ZM362.424 604.268C360.849 595.295 352.297 589.298 343.324 590.874L288.909 600.426C279.936 602.002 273.938 610.554 275.513 619.527L284.687 671.777C286.263 680.75 294.814 686.748 303.788 685.172L358.203 675.619C367.176 674.043 373.173 665.491 371.597 656.518L362.424 604.268ZM185.337 539.376C171.67 539.376 160.59 550.455 160.59 564.123C160.59 577.79 171.67 588.87 185.337 588.87C199.005 588.869 210.084 577.79 210.084 564.123C210.083 550.456 199.004 539.376 185.337 539.376ZM304.119 539.376C290.452 539.376 279.372 550.455 279.372 564.123C279.372 577.79 290.451 588.87 304.119 588.87C317.786 588.87 328.866 577.79 328.866 564.123C328.866 550.455 317.786 539.376 304.119 539.376ZM371.513 542.168C364.249 542.168 358.36 548.058 358.36 555.322C358.36 562.586 364.249 568.474 371.513 568.474C378.777 568.474 384.665 562.586 384.666 555.322C384.666 548.058 378.777 542.169 371.513 542.168ZM119.446 500.259C116.977 500.259 112.377 501.271 109.907 501.86C108.92 502.095 108.237 502.981 108.237 503.996V518.093C108.237 519.324 107.239 520.323 106.007 520.323H91.9478C91.0188 520.323 90.1891 520.899 89.9224 521.789C89.3287 523.771 88.396 527.517 88.3961 531.469C88.3962 535.42 89.3287 539.163 89.9224 541.146C90.1891 542.037 91.0189 542.615 91.9488 542.615H106.007C107.239 542.615 108.237 543.613 108.237 544.844V558.918C108.237 559.841 108.804 560.666 109.683 560.947C111.739 561.604 115.669 562.678 119.383 562.678C123.098 562.678 127.028 561.604 129.084 560.947C129.962 560.666 130.53 559.841 130.53 558.918V544.844C130.53 543.613 131.528 542.615 132.759 542.615H146.839C147.758 542.615 148.58 542.051 148.849 541.173C149.443 539.236 150.37 535.558 150.37 531.469C150.37 527.378 149.442 523.7 148.848 521.762C148.579 520.885 147.759 520.323 146.841 520.323H132.759C131.528 520.323 130.53 519.324 130.53 518.093V503.989C130.53 502.978 129.852 502.094 128.869 501.856C126.431 501.266 121.909 500.259 119.446 500.259ZM245.338 517.202C237.336 517.202 230.848 523.689 230.848 531.692C230.848 539.694 237.336 546.181 245.338 546.181C253.341 546.181 259.828 539.694 259.829 531.692C259.829 523.689 253.341 517.202 245.338 517.202ZM347.437 518.093C340.173 518.093 334.285 523.982 334.285 531.246C334.285 538.51 340.173 544.399 347.437 544.399C354.701 544.399 360.59 538.51 360.59 531.246C360.59 523.982 354.701 518.093 347.437 518.093ZM395.141 518.093C387.877 518.093 381.989 523.982 381.989 531.246C381.989 538.51 387.877 544.399 395.141 544.399C402.405 544.399 408.294 538.51 408.294 531.246C408.293 523.982 402.405 518.093 395.141 518.093ZM371.066 494.909C363.802 494.909 357.914 500.798 357.914 508.062C357.914 515.326 363.802 521.214 371.066 521.214C378.33 521.214 384.218 515.326 384.218 508.062C384.218 500.798 378.33 494.909 371.066 494.909Z"/>
  <path fill="currentColor" fill-rule="evenodd" clip-rule="evenodd" d="M335.632 469.54C338.753 462.852 352.797 463.521 366.172 465.527C379.548 467.533 388.689 472.438 393.816 476.896C397.918 480.463 399.983 488.191 400.504 491.609C405.631 495.622 411.427 505.431 414.102 510.781C416.243 515.063 432.828 577.064 440.853 607.53C444.643 623.135 451.598 661.834 449.101 691.795C445.98 729.245 427.256 738.833 424.58 741.731C421.905 744.629 402.51 752.655 389.803 749.311C377.097 745.967 372.192 735.489 369.517 729.47C366.842 723.451 359.708 710.967 352.351 705.171C346.834 700.825 339.841 699.665 336.478 699.598H157.515C154.127 699.598 150.307 700.193 148.821 700.49C137.229 702.942 127.197 716.094 121.624 729.024C116.051 741.954 109.14 752.432 87.7389 749.311C66.3383 746.19 57.4211 735.489 49.6188 721.222C41.8164 706.955 42.2629 677.083 41.817 664.153C41.4605 653.809 48.3558 617.488 51.8483 600.62L69.6823 535.302C70.7969 530.844 73.7843 519.876 76.816 511.672C79.8477 503.469 87.4417 494.582 90.86 491.164C90.325 488.489 93.0155 483.212 94.4274 480.909C99.3317 472.215 113.152 468.425 118.503 466.641C123.853 464.858 144.362 463.521 150.381 465.527C155.196 467.132 156.548 471.546 156.623 473.552L239.329 471.545L322.034 472.883L334.517 473.33L335.632 469.54ZM147.386 590.874C138.413 589.298 129.861 595.296 128.286 604.269L119.112 656.518C117.536 665.492 123.534 674.044 132.507 675.62L186.922 685.172C195.895 686.748 204.446 680.751 206.022 671.778L215.196 619.528C216.771 610.554 210.774 602.003 201.8 600.427L147.386 590.874ZM362.423 604.269C360.848 595.296 352.296 589.298 343.323 590.874L288.909 600.427C279.935 602.003 273.938 610.554 275.513 619.528L284.687 671.778C286.263 680.751 294.814 686.748 303.788 685.172L358.202 675.62C367.175 674.044 373.173 665.492 371.597 656.518L362.423 604.269ZM185.337 539.377C171.669 539.377 160.589 550.456 160.589 564.124C160.59 577.791 171.669 588.87 185.337 588.87C199.004 588.87 210.083 577.791 210.084 564.124C210.084 550.456 199.004 539.377 185.337 539.377ZM304.119 539.377C290.452 539.377 279.372 550.456 279.372 564.124C279.372 577.791 290.452 588.87 304.119 588.87C317.786 588.87 328.865 577.791 328.865 564.124C328.865 550.456 317.786 539.377 304.119 539.377ZM371.512 542.17C364.249 542.17 358.36 548.058 358.36 555.322C358.36 562.586 364.249 568.474 371.512 568.474C378.776 568.474 384.666 562.586 384.666 555.322C384.666 548.058 378.776 542.17 371.512 542.17ZM119.445 500.259C116.976 500.259 112.376 501.272 109.906 501.861C108.919 502.096 108.236 502.982 108.236 503.997V518.094C108.236 519.325 107.238 520.323 106.007 520.323H91.9469C91.0178 520.323 90.189 520.9 89.9225 521.79C89.3288 523.772 88.3951 527.517 88.3951 531.469C88.3953 535.42 89.3278 539.164 89.9215 541.147C90.1882 542.038 91.019 542.615 91.9489 542.615H106.007C107.238 542.615 108.236 543.613 108.236 544.844V558.919C108.236 559.841 108.803 560.667 109.682 560.948C111.738 561.605 115.668 562.678 119.382 562.678C123.097 562.678 127.028 561.605 129.084 560.948C129.962 560.667 130.529 559.841 130.529 558.919V544.844C130.529 543.613 131.527 542.615 132.758 542.615H146.839C147.758 542.615 148.58 542.052 148.849 541.174C149.443 539.237 150.369 535.558 150.369 531.469C150.369 527.379 149.442 523.7 148.848 521.762C148.579 520.885 147.758 520.323 146.84 520.323H132.758C131.527 520.323 130.529 519.325 130.529 518.094V503.989C130.529 502.978 129.851 502.095 128.868 501.857C126.43 501.267 121.908 500.259 119.445 500.259ZM245.338 517.202C237.335 517.202 230.848 523.689 230.848 531.692C230.848 539.694 237.335 546.182 245.338 546.182C253.34 546.182 259.828 539.695 259.828 531.692C259.828 523.689 253.34 517.202 245.338 517.202ZM347.437 518.094C340.173 518.094 334.285 523.983 334.285 531.247C334.285 538.511 340.173 544.399 347.437 544.399C354.701 544.399 360.589 538.51 360.589 531.247C360.589 523.983 354.701 518.094 347.437 518.094ZM395.141 518.094C387.877 518.094 381.989 523.983 381.989 531.247C381.989 538.511 387.877 544.399 395.141 544.399C402.405 544.399 408.293 538.51 408.294 531.247C408.294 523.983 402.405 518.094 395.141 518.094ZM371.065 494.91C363.801 494.91 357.913 500.798 357.913 508.062C357.913 515.326 363.801 521.214 371.065 521.214C378.329 521.214 384.218 515.326 384.218 508.062C384.218 500.798 378.329 494.91 371.065 494.91Z"/>
  <path fill="currentColor" fill-rule="evenodd" clip-rule="evenodd" d="M302.009 685.385C301.795 685.399 301.583 685.409 301.371 685.415C301.583 685.409 301.795 685.399 302.009 685.385ZM303.371 685.239C303.012 685.293 302.655 685.333 302.299 685.363C302.655 685.333 303.013 685.293 303.371 685.239ZM344.354 596.723C350.097 595.714 355.57 599.552 356.579 605.294L365.752 657.544C366.76 663.287 362.922 668.76 357.179 669.769L302.764 679.322C297.022 680.33 291.549 676.492 290.541 670.749L281.368 618.499C280.36 612.757 284.197 607.285 289.939 606.276L344.354 596.723ZM286.829 677.479C286.943 677.666 287.061 677.851 287.182 678.033C287.061 677.851 286.943 677.666 286.829 677.479ZM286.427 676.774C286.491 676.894 286.557 677.014 286.625 677.132C286.557 677.014 286.491 676.894 286.427 676.774ZM359.653 675.295C359.315 675.386 358.973 675.469 358.625 675.539C358.973 675.469 359.315 675.386 359.653 675.295ZM360.521 675.036C360.298 675.11 360.072 675.18 359.844 675.244C360.072 675.18 360.298 675.11 360.521 675.036ZM285.247 674.017C285.288 674.143 285.331 674.269 285.375 674.394C285.331 674.269 285.288 674.143 285.247 674.017ZM285.059 673.399C284.986 673.137 284.918 672.87 284.857 672.602C284.918 672.87 284.986 673.137 285.059 673.399ZM275.449 619.105V619.106V619.105ZM368.629 669.163C368.6 669.202 368.569 669.24 368.54 669.279C368.572 669.237 368.604 669.196 368.636 669.153L368.629 669.163ZM369.404 668.01C369.299 668.18 369.194 668.349 369.083 668.516L368.86 668.842C369.05 668.57 369.23 668.292 369.404 668.01ZM369.881 667.186C369.976 667.009 370.066 666.831 370.155 666.651C370.066 666.831 369.976 667.009 369.881 667.186ZM347.477 590.671H347.478H347.477ZM292.562 683.134C292.47 683.08 292.379 683.025 292.288 682.969C292.379 683.025 292.47 683.08 292.562 683.134ZM286.763 677.367C286.717 677.289 286.67 677.211 286.625 677.132C286.67 677.211 286.717 677.289 286.763 677.367ZM285.166 673.759C285.17 673.773 285.174 673.787 285.178 673.802C285.174 673.787 285.17 673.773 285.166 673.759ZM284.845 672.542C284.849 672.562 284.853 672.582 284.857 672.602C284.853 672.582 284.849 672.562 284.845 672.542ZM368.161 669.766C368.238 669.671 368.315 669.575 368.389 669.479C368.315 669.575 368.238 669.671 368.161 669.766ZM368.161 669.766C368.094 669.848 368.026 669.93 367.958 670.012C368.026 669.93 368.094 669.848 368.161 669.766ZM369.625 667.643C369.581 667.718 369.538 667.793 369.493 667.867C369.538 667.793 369.581 667.718 369.625 667.643ZM370.478 665.955C370.448 666.024 370.418 666.093 370.387 666.162C370.418 666.093 370.448 666.024 370.478 665.955ZM370.313 666.32C370.282 666.386 370.252 666.453 370.22 666.519C370.252 666.453 370.282 666.386 370.313 666.32ZM371.459 662.954C371.438 663.047 371.417 663.141 371.394 663.233C371.417 663.141 371.438 663.047 371.459 662.954ZM371.807 658.173C371.798 658.041 371.786 657.908 371.773 657.775C371.786 657.908 371.798 658.041 371.807 658.173ZM371.807 658.173C371.815 658.269 371.82 658.366 371.825 658.462C371.82 658.366 371.815 658.269 371.807 658.173Z"/>
  <path fill="currentColor" d="M188.732 685.386C188.94 685.399 189.147 685.409 189.354 685.415C189.147 685.409 188.94 685.399 188.732 685.386ZM187.354 685.239C187.708 685.292 188.061 685.333 188.413 685.362C187.922 685.321 187.428 685.259 186.934 685.172L187.354 685.239ZM134.146 605.294C135.155 599.552 140.628 595.715 146.37 596.723L200.785 606.276C206.528 607.285 210.365 612.757 209.357 618.499L200.184 670.749C199.175 676.491 193.703 680.329 187.961 679.321L133.546 669.769C127.803 668.76 123.964 663.287 124.973 657.544L134.146 605.294ZM204.656 676.072C204.57 676.253 204.48 676.431 204.387 676.607C204.48 676.431 204.57 676.253 204.656 676.072ZM131.412 675.383C131.64 675.439 131.869 675.492 132.101 675.539C131.869 675.492 131.64 675.439 131.412 675.383ZM130.229 675.045C130.447 675.116 130.667 675.184 130.89 675.246C130.667 675.184 130.447 675.116 130.229 675.045ZM205.197 674.81C205.273 674.61 205.347 674.409 205.416 674.205C205.347 674.409 205.273 674.61 205.197 674.81ZM205.925 672.334C205.964 672.149 206.001 671.963 206.034 671.775C206.001 671.963 205.964 672.149 205.925 672.334ZM123.857 671.186C123.569 670.904 123.29 670.611 123.023 670.31C123.29 670.611 123.569 670.904 123.857 671.186ZM122.089 669.153C122.098 669.165 122.107 669.177 122.115 669.188C122.109 669.18 122.102 669.172 122.096 669.163L122.089 669.153ZM118.877 658.977C118.884 658.71 118.896 658.442 118.916 658.173C118.896 658.442 118.884 658.71 118.877 658.977ZM118.954 657.749C118.947 657.823 118.94 657.897 118.934 657.971C118.939 657.906 118.945 657.841 118.951 657.775L118.954 657.749ZM144.065 590.628H144.064H144.065ZM205.77 673.003C205.797 672.893 205.824 672.783 205.85 672.673C205.824 672.783 205.797 672.893 205.77 673.003ZM205.867 672.601C205.887 672.512 205.906 672.423 205.925 672.334C205.906 672.423 205.887 672.512 205.867 672.601ZM122.373 669.527C122.435 669.607 122.497 669.686 122.561 669.764C122.497 669.686 122.435 669.607 122.373 669.527ZM124.069 671.388C123.998 671.321 123.927 671.254 123.857 671.186C123.927 671.254 123.998 671.321 124.069 671.388ZM121.028 667.521C121.02 667.506 121.012 667.491 121.003 667.476C121.012 667.491 121.02 667.506 121.028 667.521ZM118.875 659.148C118.876 659.091 118.876 659.034 118.877 658.977C118.876 659.034 118.876 659.091 118.875 659.148Z"/>
  <path fill="currentColor" fill-rule="evenodd" clip-rule="evenodd" d="M335.632 469.539C338.753 462.852 352.797 463.52 366.173 465.526C379.548 467.533 388.688 472.438 393.815 476.897C397.917 480.463 399.983 488.191 400.503 491.609C405.63 495.622 411.426 505.43 414.102 510.78C416.242 515.06 432.827 577.064 440.852 607.53C444.642 623.135 451.597 661.835 449.101 691.796C445.98 729.247 427.254 738.833 424.579 741.731C421.903 744.63 402.509 752.654 389.803 749.311C377.096 745.967 372.192 735.49 369.517 729.471C366.841 723.452 359.708 710.968 352.352 705.172C346.467 700.535 338.902 699.524 335.855 699.599H157.515C154.126 699.599 150.306 700.193 148.82 700.49C137.228 702.943 127.197 716.095 121.624 729.024C116.051 741.954 109.14 752.432 87.7392 749.311C66.3384 746.19 57.4215 735.489 49.6191 721.222C41.8169 706.954 42.2622 677.083 41.8164 664.153C41.4597 653.81 48.3561 617.487 51.8486 600.619L69.6826 535.303C70.7972 530.844 73.7836 519.876 76.8154 511.672C79.8472 503.468 87.4422 494.581 90.8603 491.163C90.3254 488.488 93.0149 483.212 94.4267 480.908C99.3312 472.214 113.153 468.425 118.503 466.642C123.853 464.858 144.361 463.52 150.381 465.526C155.196 467.131 156.549 471.545 156.623 473.552L239.328 471.546L322.033 472.884L334.518 473.329L335.632 469.539ZM147.386 590.874C138.412 589.299 129.861 595.295 128.285 604.269L119.112 656.519C117.537 665.492 123.534 674.043 132.507 675.619L186.922 685.173C195.895 686.748 204.447 680.751 206.022 671.777L215.196 619.527C216.771 610.554 210.774 602.002 201.801 600.427L147.386 590.874ZM362.424 604.269C360.848 595.295 352.297 589.299 343.323 590.874L288.909 600.427C279.936 602.002 273.938 610.554 275.514 619.527L284.686 671.777C286.262 680.751 294.814 686.748 303.787 685.173L358.202 675.619C367.176 674.044 373.173 665.492 371.598 656.519L362.424 604.269ZM185.337 539.377C171.67 539.377 160.59 550.456 160.59 564.123C160.59 577.79 171.67 588.87 185.337 588.87C199.004 588.87 210.084 577.79 210.084 564.123C210.084 550.456 199.004 539.377 185.337 539.377ZM304.118 539.377C290.451 539.377 279.372 550.456 279.372 564.123C279.372 577.79 290.451 588.87 304.118 588.87C317.785 588.87 328.865 577.79 328.865 564.123C328.865 550.456 317.785 539.377 304.118 539.377ZM371.513 542.17C364.249 542.17 358.36 548.058 358.36 555.322C358.36 562.586 364.249 568.475 371.513 568.475C378.777 568.475 384.665 562.586 384.665 555.322C384.665 548.058 378.777 542.17 371.513 542.17ZM119.445 500.26C116.976 500.26 112.376 501.271 109.906 501.86C108.919 502.096 108.236 502.981 108.236 503.996V518.094C108.236 519.325 107.238 520.323 106.007 520.323H91.9472C91.018 520.323 90.1884 520.9 89.9218 521.79C89.3281 523.773 88.3954 527.518 88.3955 531.47C88.3956 535.42 89.3281 539.163 89.9218 541.146C90.1885 542.037 91.0184 542.615 91.9482 542.615H106.007C107.238 542.615 108.236 543.614 108.236 544.845V558.919C108.236 559.842 108.804 560.666 109.683 560.947C111.738 561.604 115.668 562.679 119.383 562.679C123.098 562.679 127.028 561.604 129.083 560.947C129.962 560.666 130.529 559.841 130.529 558.919V544.845C130.529 543.614 131.528 542.615 132.759 542.615H146.84C147.758 542.615 148.579 542.052 148.849 541.174C149.443 539.236 150.369 535.559 150.369 531.47C150.369 527.379 149.443 523.7 148.849 521.763C148.58 520.885 147.758 520.323 146.841 520.323H132.759C131.528 520.323 130.529 519.325 130.529 518.094V503.989C130.529 502.978 129.851 502.094 128.868 501.856C126.431 501.267 121.909 500.26 119.445 500.26ZM245.338 517.202C237.335 517.202 230.848 523.69 230.848 531.692C230.848 539.695 237.335 546.183 245.338 546.183C253.34 546.183 259.828 539.695 259.828 531.692C259.828 523.69 253.341 517.202 245.338 517.202ZM347.437 518.094C340.174 518.094 334.284 523.982 334.284 531.246C334.284 538.51 340.173 544.399 347.437 544.399C354.701 544.399 360.59 538.51 360.59 531.246C360.59 523.982 354.701 518.094 347.437 518.094ZM395.141 518.094C387.877 518.094 381.988 523.982 381.988 531.246C381.988 538.51 387.877 544.399 395.141 544.399C402.405 544.399 408.294 538.51 408.294 531.246C408.294 523.982 402.404 518.094 395.141 518.094ZM371.065 494.909C363.801 494.909 357.913 500.799 357.913 508.063C357.913 515.326 363.802 521.215 371.065 521.215C378.329 521.215 384.217 515.326 384.218 508.063C384.218 500.799 378.329 494.909 371.065 494.909Z"/>
  <path fill="currentColor" fill-rule="evenodd" clip-rule="evenodd" d="M302.009 685.385C301.795 685.399 301.583 685.409 301.371 685.415C301.583 685.409 301.795 685.399 302.009 685.385ZM303.371 685.239C303.012 685.293 302.655 685.333 302.299 685.363C302.655 685.333 303.013 685.293 303.371 685.239ZM344.354 596.723C350.097 595.714 355.57 599.552 356.579 605.294L365.752 657.544C366.76 663.287 362.922 668.76 357.179 669.769L302.764 679.322C297.022 680.33 291.549 676.492 290.541 670.749L281.368 618.499C280.36 612.757 284.197 607.285 289.939 606.276L344.354 596.723ZM286.829 677.479C286.943 677.666 287.061 677.851 287.182 678.033C287.061 677.851 286.943 677.666 286.829 677.479ZM286.427 676.774C286.491 676.894 286.557 677.014 286.625 677.132C286.557 677.014 286.491 676.894 286.427 676.774ZM359.653 675.295C359.315 675.386 358.973 675.469 358.625 675.539C358.973 675.469 359.315 675.386 359.653 675.295ZM360.521 675.036C360.298 675.11 360.072 675.18 359.844 675.244C360.072 675.18 360.298 675.11 360.521 675.036ZM285.247 674.017C285.288 674.143 285.331 674.269 285.375 674.394C285.331 674.269 285.288 674.143 285.247 674.017ZM285.059 673.399C284.986 673.137 284.918 672.87 284.857 672.602C284.918 672.87 284.986 673.137 285.059 673.399ZM275.449 619.105V619.106V619.105ZM368.629 669.163C368.6 669.202 368.569 669.24 368.54 669.279C368.572 669.237 368.604 669.196 368.636 669.153L368.629 669.163ZM369.404 668.01C369.299 668.18 369.194 668.349 369.083 668.516L368.86 668.842C369.05 668.57 369.23 668.292 369.404 668.01ZM369.881 667.186C369.976 667.009 370.066 666.831 370.155 666.651C370.066 666.831 369.976 667.009 369.881 667.186ZM347.477 590.671H347.478H347.477ZM292.562 683.134C292.47 683.08 292.379 683.025 292.288 682.969C292.379 683.025 292.47 683.08 292.562 683.134ZM286.763 677.367C286.717 677.289 286.67 677.211 286.625 677.132C286.67 677.211 286.717 677.289 286.763 677.367ZM285.166 673.759C285.17 673.773 285.174 673.787 285.178 673.802C285.174 673.787 285.17 673.773 285.166 673.759ZM284.845 672.542C284.849 672.562 284.853 672.582 284.857 672.602C284.853 672.582 284.849 672.562 284.845 672.542ZM368.161 669.766C368.238 669.671 368.315 669.575 368.389 669.479C368.315 669.575 368.238 669.671 368.161 669.766ZM368.161 669.766C368.094 669.848 368.026 669.93 367.958 670.012C368.026 669.93 368.094 669.848 368.161 669.766ZM369.625 667.643C369.581 667.718 369.538 667.793 369.493 667.867C369.538 667.793 369.581 667.718 369.625 667.643ZM370.478 665.955C370.448 666.024 370.418 666.093 370.387 666.162C370.418 666.093 370.448 666.024 370.478 665.955ZM370.313 666.32C370.282 666.386 370.252 666.453 370.22 666.519C370.252 666.453 370.282 666.386 370.313 666.32ZM371.459 662.954C371.438 663.047 371.417 663.141 371.394 663.233C371.417 663.141 371.438 663.047 371.459 662.954ZM371.807 658.173C371.798 658.041 371.786 657.908 371.773 657.775C371.786 657.908 371.798 658.041 371.807 658.173ZM371.807 658.173C371.815 658.269 371.82 658.366 371.825 658.462C371.82 658.366 371.815 658.269 371.807 658.173Z"/>
  <path fill="currentColor" d="M188.732 685.386C188.94 685.399 189.147 685.409 189.354 685.415C189.147 685.409 188.94 685.399 188.732 685.386ZM187.354 685.239C187.708 685.292 188.061 685.333 188.413 685.362C187.922 685.321 187.428 685.259 186.934 685.172L187.354 685.239ZM134.146 605.294C135.155 599.552 140.628 595.715 146.37 596.723L200.785 606.276C206.528 607.285 210.365 612.757 209.357 618.499L200.184 670.749C199.175 676.491 193.703 680.329 187.961 679.321L133.546 669.769C127.803 668.76 123.964 663.287 124.973 657.544L134.146 605.294ZM204.656 676.072C204.57 676.253 204.48 676.431 204.387 676.607C204.48 676.431 204.57 676.253 204.656 676.072ZM131.412 675.383C131.64 675.439 131.869 675.492 132.101 675.539C131.869 675.492 131.64 675.439 131.412 675.383ZM130.229 675.045C130.447 675.116 130.667 675.184 130.89 675.246C130.667 675.184 130.447 675.116 130.229 675.045ZM205.197 674.81C205.273 674.61 205.347 674.409 205.416 674.205C205.347 674.409 205.273 674.61 205.197 674.81ZM205.925 672.334C205.964 672.149 206.001 671.963 206.034 671.775C206.001 671.963 205.964 672.149 205.925 672.334ZM123.857 671.186C123.569 670.904 123.29 670.611 123.023 670.31C123.29 670.611 123.569 670.904 123.857 671.186ZM122.089 669.153C122.098 669.165 122.107 669.177 122.115 669.188C122.109 669.18 122.102 669.172 122.096 669.163L122.089 669.153ZM118.877 658.977C118.884 658.71 118.896 658.442 118.916 658.173C118.896 658.442 118.884 658.71 118.877 658.977ZM118.954 657.749C118.947 657.823 118.94 657.897 118.934 657.971C118.939 657.906 118.945 657.841 118.951 657.775L118.954 657.749ZM144.065 590.628H144.064H144.065ZM205.77 673.003C205.797 672.893 205.824 672.783 205.85 672.673C205.824 672.783 205.797 672.893 205.77 673.003ZM205.867 672.601C205.887 672.512 205.906 672.423 205.925 672.334C205.906 672.423 205.887 672.512 205.867 672.601ZM122.373 669.527C122.435 669.607 122.497 669.686 122.561 669.764C122.497 669.686 122.435 669.607 122.373 669.527ZM124.069 671.388C123.998 671.321 123.927 671.254 123.857 671.186C123.927 671.254 123.998 671.321 124.069 671.388ZM121.028 667.521C121.02 667.506 121.012 667.491 121.003 667.476C121.012 667.491 121.02 667.506 121.028 667.521ZM118.875 659.148C118.876 659.091 118.876 659.034 118.877 658.977C118.876 659.034 118.876 659.091 118.875 659.148Z"/>
  <circle fill="currentColor" cx="185.342" cy="564.122" r="18.8076"/>
  <circle fill="currentColor" cx="304.128" cy="564.122" r="18.8076"/>
  <path fill="currentColor" d="M251.474 522.459C254.45 522.459 256.866 524.876 256.866 527.853C256.866 530.829 254.45 533.245 251.474 533.245H251.353L246.487 536.717V536.903C246.487 539.133 244.674 540.956 242.434 540.956C240.479 540.956 238.831 539.561 238.469 537.705L232.988 535.442L240.171 533.564C240.819 533.114 241.611 532.861 242.445 532.861H242.676L246.08 527.918V527.853C246.08 524.876 248.497 522.459 251.474 522.459ZM243.616 534.092C242.869 533.784 242.079 533.795 241.376 534.059L243.188 534.806C244.331 535.278 244.869 536.585 244.396 537.728C243.924 538.87 242.606 539.408 241.475 538.936H241.464L239.706 538.211C240.014 538.859 240.553 539.397 241.277 539.704C242.826 540.352 244.605 539.616 245.253 538.067C245.56 537.321 245.571 536.497 245.253 535.739C244.945 534.992 244.363 534.399 243.616 534.092ZM251.485 524.261C249.508 524.261 247.894 525.875 247.894 527.853C247.894 529.83 249.508 531.444 251.485 531.444C253.462 531.444 255.077 529.829 255.077 527.853C255.077 525.876 253.462 524.261 251.485 524.261ZM251.485 525.14C252.979 525.14 254.188 526.348 254.188 527.842C254.187 529.335 252.979 530.543 251.485 530.543C249.992 530.543 248.783 529.335 248.783 527.842C248.783 526.348 249.992 525.14 251.485 525.14Z"/>
  <path fill="currentColor" d="M232.991 535.448L232.519 530.41L240.181 533.572L235.563 536.222L232.991 535.448Z"/>
  <rect fill="currentColor" x="232.519" y="464.146" width="24.3474" height="14.98"/>
  <rect fill="currentColor" x="72.3972" y="175.317" width="46.7251" height="20.0024"/>
</svg>
