<?xml version="1.0"?>
<svg width="36" height="36" viewBox="0 0 36 36" fill="none" xmlns="http://www.w3.org/2000/svg">
  <g clip-path="">
    <path fill-rule="evenodd" clip-rule="evenodd" d="M22.5253 12.7729V12.7715L22.5256 12.7715C22.3357 12.7588 22.1614 12.6393 22.084 12.4523L18.0001 2.45807L13.9318 12.4115C13.87 12.6083 13.6914 12.7574 13.4734 12.7729L2.71118 13.5688L10.9519 20.5396C11.0967 20.6619 11.1684 20.8588 11.1206 21.0557L9.51216 27.6172L9.58315 27.6881L20.1361 17.141L23.6091 20.614L18.3308 25.8948L27.4486 31.5438L24.8851 21.0825C24.8288 20.8912 24.8851 20.6761 25.0468 20.5397L33.2875 13.5689L22.5253 12.7729Z" fill="#0056D6"/>
    <path d="M20.1358 18.555L9.58335 29.1017L5.15585 24.68L3.09668 26.7392L9.58335 33.2317L22.195 20.6142L20.1358 18.555Z" fill="#1A9FFF"/>
  </g>
  <defs>
    <clipPath id="">
      <rect width="36" height="36" fill="white"/>
    </clipPath>
  </defs>
</svg>
