<?xml version="1.0"?>
<svg version="1.1" xmlns="http://www.w3.org/2000/svg" viewBox="0 0 36 36" fill="none">
  <g clip-path="">
    <path fill-rule="evenodd" clip-rule="evenodd" d="M30.614 17.086a1.324 1.324 0 0 1 0 2.648H26.98c.714.96 1.145 2.18 1.145 3.77 0 3.594-2.446 7.263-9.117 7.263-2.329 0-4.853-.864-7.573-2.593l-.684-.45-.073-.053a1.425 1.425 0 0 1-.25-2 1.483 1.483 0 0 1 2.044-.288c2.42 1.761 4.635 2.642 6.647 2.642 4.41 0 5.818-2.372 5.818-4.262 0-2.27-1.76-3.28-4.047-4.028l-14.102-.001a1.324 1.324 0 0 1 0-2.647h23.825ZM18.786 5.232c2.2 0 4.712.876 7.534 2.628a1.314 1.314 0 0 1 .323 1.95c-.52.634-1.427.789-2.128.363-2.414-1.465-4.398-2.198-5.95-2.198-2.965 0-5.078 1.594-5.078 3.928 0 1.167.63 1.95 1.625 2.54l-4.382-.001c-.276-.67-.43-1.446-.43-2.353 0-4.077 3.632-6.856 8.487-6.856Z"/>
  </g>
  <defs>
    <clipPath id="">
      <path transform="translate(.701)" d="M0 0h36v36H0z"/>
    </clipPath>
  </defs>
</svg>
