<?xml version="1.0"?>
<svg xmlns="http://www.w3.org/2000/svg" viewBox="0 0 87.167 32">
  <path fill="currentColor" d="M67.82,18.114c0.12,0.104,0.253,0.173,0.396,0.216h2.052
				l0.094-0.063c0.101-0.04,0.184-0.102,0.245-0.184c0.224-0.225,0.338-0.51,0.338-0.857c-0.021-0.347-0.124-0.612-0.308-0.796
				c-0.062-0.042-0.123-0.082-0.184-0.123l-0.092-0.029h-2.237c-0.123,0.06-0.244,0.152-0.367,0.275
				c-0.226,0.243-0.337,0.521-0.337,0.826S67.553,17.931,67.82,18.114z M86.937,17.685c-0.653,0.43-1.419,0.898-2.297,1.411
				c-1.758,1.041-3.227,1.766-4.412,2.174c-2.124,0.757-4.188,1.267-6.189,1.532c-0.611,0.062-1.185,0.103-1.715,0.123L41.53,23.078
				c-0.021-0.061-0.062-0.112-0.123-0.153c-0.123-0.123-0.266-0.215-0.428-0.276c-0.144-0.08-0.356-0.144-0.644-0.183l-0.368-0.063
				l-5.851,0.031l-0.031,4.688l-0.214,0.123c-0.165,0.08-0.328,0.121-0.493,0.121c-0.142,0-0.294-0.041-0.457-0.121l-0.246-0.095
				l-0.06-4.84l-0.276-0.061l-0.062-0.83l-0.184,0.37L27.989,21.7l-0.153-0.397l-0.4-0.033l-0.152,0.459l-3.31,0.124l-0.214-0.397
				l-0.459-0.034l-0.214,0.432h-3.432l-0.245-0.46h-0.276l-0.244,0.398l-3.218,0.062l-0.275-0.397h-0.308l-0.214,0.428l-3.4-0.123
				l-0.307-0.457h-0.459l-0.216,0.183l-0.732,0.367c-0.636,0.041-1.33,0.082-2.085,0.122c-1.513,0.082-2.594,0.111-3.248,0.092
				c-0.756-0.021-1.288-0.04-1.592-0.06c-0.267-0.021-0.451-0.053-0.554-0.093c-0.062-0.042-0.123-0.093-0.185-0.154l-0.06-0.092
				l-1.38,0.123c-0.082-0.063-0.131-0.132-0.152-0.215c-0.021-0.041-0.042-0.081-0.062-0.121l-0.03-1.503L0.231,19.37
				c-0.021-0.204-0.042-0.438-0.063-0.704c-0.021-0.552-0.021-0.99,0-1.318c0.021-0.327,0.063-0.673,0.124-1.041l0.121-0.429v-1.623
				c0-0.041,0-0.082,0-0.123c0.021-0.122,0.05-0.215,0.092-0.276c0.063-0.06,0.123-0.093,0.185-0.093
				c0.021-0.021,0.041-0.021,0.062,0h1.502l0.335-0.061c0.286-0.041,0.542-0.071,0.766-0.091c0.227-0.021,1.328,0,3.31,0.062
				c1,0.02,1.972,0.041,2.911,0.062l0.95,0.397l0.121,0.123l0.521-0.032l0.307-0.427l3.339-0.123l0.275,0.397h0.276l0.338-0.397
				h3.094l0.275,0.427l0.308,0.032l0.245-0.459l3.43-0.032l0.215,0.43l0.462-0.03l0.242-0.429l3.218,0.123l0.153,0.397l0.429,0.029
				l0.183-0.427l4.107-0.123l0.153,0.398l0.062-0.858l0.276-0.031V4.878l0.151-0.122c0.123-0.082,0.267-0.124,0.432-0.124
				c0.183,0,0.377,0.042,0.58,0.124c0.123,0.04,0.215,0.082,0.276,0.122l0.092,7.876h4.963l0.583,0.549l0.581,1.259l0.214,0.029
				c0.184,0.021,0.328-0.021,0.43-0.123c0.227-0.184,0.235-0.469,0.029-0.856c-0.059-0.123-0.142-0.246-0.244-0.368l-0.121-0.153
				l2.971,0.123l0.583,1.133l0.091,0.062c0.062,0.061,0.134,0.102,0.216,0.122c0.223,0.103,0.419,0.062,0.582-0.122
				c0.142-0.163,0.132-0.408-0.032-0.734c-0.041-0.123-0.101-0.235-0.183-0.339l-0.093-0.121l1.899,0.183l0.582,1.104l0.063,0.062
				c0.082,0.019,0.152,0.041,0.216,0.06c0.223,0.041,0.397-0.041,0.519-0.244c0.122-0.184,0.114-0.408-0.029-0.675
				c-0.042-0.082-0.092-0.162-0.153-0.245l-0.063-0.092h1.84l0.52,1.073l0.062,0.062c0.062,0.038,0.133,0.07,0.216,0.091
				c0.204,0.062,0.408-0.021,0.611-0.245c0.123-0.144,0.102-0.357-0.062-0.644c-0.042-0.082-0.091-0.162-0.152-0.245l-0.093-0.123
				h1.901l0.489,1.012l0.091,0.093c0.083,0.062,0.165,0.1,0.245,0.123c0.245,0.101,0.45,0.009,0.614-0.277
				c0.08-0.144,0.062-0.347-0.062-0.611c-0.041-0.062-0.094-0.133-0.153-0.216l-0.092-0.092l1.623-0.063l0.43,1.043l0.093,0.062
				c0.102,0.041,0.192,0.082,0.274,0.122c0.307,0.082,0.531,0.032,0.673-0.152c0.123-0.143,0.103-0.367-0.06-0.675
				c-0.041-0.103-0.103-0.203-0.183-0.307l-0.094-0.121l1.685,0.06l0.583,1.043l0.062,0.091c0.083,0.041,0.152,0.07,0.214,0.094
				c0.225,0.06,0.409-0.012,0.551-0.216c0.144-0.205,0.134-0.429-0.029-0.673c-0.063-0.062-0.133-0.133-0.214-0.216l-0.093-0.062
				l1.868,0.031l0.46,0.888l0.092,0.031c0.062,0.02,0.124,0.041,0.186,0.062c0.202,0,0.346-0.082,0.427-0.246
				c0.103-0.183,0.103-0.378,0-0.583c-0.04-0.079-0.092-0.151-0.153-0.213l-0.059-0.063l2.022-0.028l17.095,3.063L86.937,17.685z"/>
</svg>
