<?xml version="1.0"?>
<svg xmlns="http://www.w3.org/2000/svg" viewBox="0 0 36 36" fill="none">
  <path fill="currentColor" fill-rule="evenodd" clip-rule="evenodd" d="M31.3191 25.8753C27.1777 33.0485 18.0054 35.5062 10.8322 31.3647C3.65899 27.2233 1.20128 18.051 5.34272 10.8778C9.48417 3.70459 18.6565 1.24687 25.8297 5.38831C33.0029 9.52976 35.4606 18.7021 31.3191 25.8753ZM13.1684 23.2918C12.8141 23.2033 12.4599 23.2033 12.0171 23.2033C10.2458 23.2033 9.19736 24.1772 9.19736 25.417C9.19736 26.6569 10.2461 27.7196 12.0173 27.7196C13.8771 27.7196 15.3825 26.6569 15.3825 25.417V15.9411L22.9101 13.8157V20.5464C22.5558 20.4578 22.2016 20.3693 21.7588 20.3693C19.9875 20.3693 18.9388 21.432 18.9388 22.6718C18.9388 23.9117 19.9875 24.9744 21.7588 24.9744C23.6185 24.9744 25.124 23.9117 25.124 22.6718V9.03351C22.2545 9.94658 19.2887 10.7156 16.333 11.482C15.2752 11.7562 14.2187 12.0302 13.1684 12.3103V23.2918Z"/>
</svg>
