<?xml version="1.0"?>
<svg viewBox="0 0 21.839 15.428">
  <path fill="" d="m21.632,7.13629c-0.184,-0.247 -4.801,-5.827 -10.704,-5.827c-5.881,0 -10.497,5.603 -10.704,5.827a0.928,0.928 0 0 0 0,1.21c0.184,0.247 4.8,5.827 10.704,5.827c5.88,0 10.498,-5.603 10.704,-5.827a0.988,0.988 0 0 0 0,-1.21zm-10.704,5.087c-3.882,0 -7.281,-3.137 -8.568,-4.482c0.804,-0.829 2.389,-2.331 4.41,-3.384a4.202,4.202 0 0 0 -0.391,1.793c0,2.442 2.045,4.437 4.548,4.437c2.504,0 4.548,-1.995 4.548,-4.437c0,-0.628 -0.138,-1.233 -0.391,-1.793c2.021,1.031 3.606,2.532 4.41,3.384c-1.285,1.344 -4.684,4.482 -8.566,4.482z"/>
</svg>
