<?xml version="1.0"?>
<svg xmlns="http://www.w3.org/2000/svg" viewBox="0 0 36 36" fill="none">
  <path fill="currentColor" d="M33.8281 4.82812L4.95801 33.6982L1.25586 29.9961L4.25195 27H3C1.34315 27 2.63075e-07 25.6569 0 24V11C0 9.89543 0.895431 9 2 9H22.252L30.126 1.12598L33.8281 4.82812ZM34 9C35.1046 9 36 9.89543 36 11V24C36 25.6569 34.6569 27 33 27H15.6562L17.6562 25H28V14.6562L29.1094 13.5459C29.0397 13.6822 29 13.8364 29 14C29 14.5523 29.4477 15 30 15C30.5523 15 31 14.5523 31 14C31 13.4477 30.5523 13 30 13C29.8364 13 29.6822 13.0397 29.5459 13.1094L31.1094 11.5459C31.0397 11.6822 31 11.8364 31 12C31 12.5523 31.4477 13 32 13C32.5523 13 33 12.5523 33 12C33 11.4477 32.5523 11 32 11C31.8364 11 31.6822 11.0397 31.5459 11.1094L33.6562 9H34ZM2.5 21C2.22386 21 2 21.2239 2 21.5V24.5C2 24.7761 2.22386 25 2.5 25H5.5C5.77614 25 6 24.7761 6 24.5V21.5C6 21.2239 5.77614 21 5.5 21H2.5ZM30.5 21C30.2239 21 30 21.2239 30 21.5V24.5C30 24.7761 30.2239 25 30.5 25H33.5C33.7761 25 34 24.7761 34 24.5V21.5C34 21.2239 33.7761 21 33.5 21H30.5ZM8 11V23.252L20.252 11H8ZM32 15C31.4477 15 31 15.4477 31 16C31 16.5523 31.4477 17 32 17C32.5523 17 33 16.5523 33 16C33 15.4477 32.5523 15 32 15ZM4 12C2.89543 12 2 12.8954 2 14C2 15.1046 2.89543 16 4 16C5.10457 16 6 15.1046 6 14C6 12.8954 5.10457 12 4 12ZM34 13C33.4477 13 33 13.4477 33 14C33 14.5523 33.4477 15 34 15C34.5523 15 35 14.5523 35 14C35 13.4477 34.5523 13 34 13Z"/>
</svg>
