<?xml version="1.0"?>
<svg xmlns="http://www.w3.org/2000/svg" viewBox="0 0 36 36" fill="none">
  <path fill="currentColor" fill-rule="evenodd" clip-rule="evenodd" d="M24.3863 7.47896L25.1071 12.4075C24.9243 12.7208 24.7659 13.0494 24.6338 13.3906C24.14 14.667 24.0386 16.0617 24.3427 17.3961C24.6468 18.7305 25.3424 19.9436 26.3406 20.88C27.0073 21.5055 27.7887 21.9884 28.6367 22.3052C28.4523 22.7625 28.2397 23.2082 28 23.64L30.29 26.9L26.92 30.27L23.64 28C22.8372 28.453 21.985 28.8121 21.1 29.07L20.38 33H15.62L14.9 29.05C14.0159 28.7984 13.1637 28.4461 12.36 28L9.08 30.29L5.71 26.92L8 23.64C7.54696 22.8372 7.18793 21.985 6.93 21.1L3 20.38V15.62L6.93 14.9C7.18793 14.015 7.54696 13.1628 8 12.36L5.71 9.08L9.08 5.71L12.36 8C13.1628 7.54696 14.015 7.18793 14.9 6.93L15.62 3H20.38L21.1 6.93C21.985 7.18793 22.8372 7.54696 23.64 8L24.3863 7.47896ZM15.2221 22.1573C16.0444 22.7068 17.0111 23 18 23C18.6566 23 19.3068 22.8707 19.9134 22.6194C20.52 22.3681 21.0712 21.9998 21.5355 21.5355C21.9998 21.0712 22.3681 20.52 22.6194 19.9134C22.8707 19.3068 23 18.6566 23 18C23 17.0111 22.7068 16.0444 22.1573 15.2221C21.6079 14.3999 20.827 13.759 19.9134 13.3806C18.9998 13.0022 17.9945 12.9031 17.0245 13.0961C16.0546 13.289 15.1637 13.7652 14.4645 14.4645C13.7652 15.1637 13.289 16.0546 13.0961 17.0245C12.9031 17.9945 13.0022 18.9998 13.3806 19.9134C13.759 20.827 14.3999 21.6079 15.2221 22.1573Z"/>
  <path fill="#FFC82C" d="M28.7976 10L27.6276 2H34.3676L33.2376 10H28.7976Z"/>
  <path fill="#FFC82C" d="M31.02 18.74C32.6051 18.74 33.89 17.4551 33.89 15.87C33.89 14.2849 32.6051 13 31.02 13C29.435 13 28.15 14.2849 28.15 15.87C28.15 17.4551 29.435 18.74 31.02 18.74Z"/>
</svg>
