<?xml version="1.0"?>
<svg xmlns="http://www.w3.org/2000/svg" viewBox="0 0 20 36" fill="none">
  <path fill="currentColor" d="M9.0116 17.9667V16.1467H9.9216C10.3283 16.1467 10.6249 16.22 10.8116 16.3667C10.9983 16.5067 11.0916 16.72 11.0916 17.0067C11.0916 17.32 10.9883 17.56 10.7816 17.7267C10.5816 17.8867 10.3049 17.9667 9.9516 17.9667H9.0116Z"/>
  <path fill="currentColor" fill-rule="evenodd" clip-rule="evenodd" d="M10 28C15.5228 28 20 23.5228 20 18C20 12.4772 15.5228 8 10 8C4.47715 8 0 12.4772 0 18C0 23.5228 4.47715 28 10 28ZM11.3216 21.6667H13.2416L11.6316 19.0967C12.0449 18.91 12.3649 18.6367 12.5916 18.2767C12.8249 17.91 12.9416 17.4567 12.9416 16.9167C12.9416 16.2033 12.7016 15.65 12.2216 15.2567C11.7416 14.8633 11.0016 14.6667 10.0016 14.6667H7.2816V21.6667H9.0116V19.4467H9.9916L11.3216 21.6667Z"/>
  <path fill="currentColor" opacity="0.5" d="M10.0701 36L5.07007 31H15.0701L10.0701 36Z"/>
  <path fill="currentColor" opacity="0.5" d="M10.0835 0L15.0835 5L5.0835 5L10.0835 0Z"/>
</svg>
