<?xml version="1.0"?>
<svg xmlns="http://www.w3.org/2000/svg" viewBox="0 0 122 122" fill="none">
  <path fill="currentColor" d="M53.6247 0H48.75V4.8747H53.6247V0Z"/>
  <path fill="currentColor" d="M63.3747 0H58.5V4.8747H63.3747V0Z"/>
  <path fill="currentColor" d="M73.1227 0H68.248V4.8747H73.1227V0Z"/>
  <path fill="currentColor" d="M77.9958 0H73.1211V4.8747H77.9958V0Z"/>
  <path fill="currentColor" d="M43.8708 4.87451H38.9961V9.74921H43.8708V4.87451Z"/>
  <path fill="currentColor" d="M53.6247 4.87451H48.75V9.74921H53.6247V4.87451Z"/>
  <path fill="currentColor" d="M68.2477 4.87451H63.373V9.74921H68.2477V4.87451Z"/>
  <path fill="currentColor" d="M73.1227 4.87451H68.248V9.74921H73.1227V4.87451Z"/>
  <path fill="currentColor" d="M77.9958 4.87451H73.1211V9.74921H77.9958V4.87451Z"/>
  <path fill="currentColor" d="M63.3747 9.74896H58.5V14.6237H63.3747V9.74896Z"/>
  <path fill="currentColor" d="M82.8669 9.74896H77.9922V14.6237H82.8669V9.74896Z"/>
  <path fill="currentColor" d="M43.8708 14.6241H38.9961V19.4988H43.8708V14.6241Z"/>
  <path fill="currentColor" d="M48.7477 14.6241H43.873V19.4988H48.7477V14.6241Z"/>
  <path fill="currentColor" d="M53.6247 14.6241H48.75V19.4988H53.6247V14.6241Z"/>
  <path fill="currentColor" d="M63.3747 14.6241H58.5V19.4988H63.3747V14.6241Z"/>
  <path fill="currentColor" d="M68.2477 14.6241H63.373V19.4988H68.2477V14.6241Z"/>
  <path fill="currentColor" d="M77.9958 14.6241H73.1211V19.4988H77.9958V14.6241Z"/>
  <path fill="currentColor" d="M82.8669 14.6241H77.9922V19.4988H82.8669V14.6241Z"/>
  <path fill="currentColor" d="M48.7477 19.498H43.873V24.3727H48.7477V19.498Z"/>
  <path fill="currentColor" d="M73.1227 19.498H68.248V24.3727H73.1227V19.498Z"/>
  <path fill="currentColor" d="M77.9958 19.498H73.1211V24.3727H77.9958V19.498Z"/>
  <path fill="currentColor" d="M82.8669 19.498H77.9922V24.3727H82.8669V19.498Z"/>
  <path fill="currentColor" d="M43.8708 24.3737H38.9961V29.2484H43.8708V24.3737Z"/>
  <path fill="currentColor" d="M48.7477 24.3737H43.873V29.2484H48.7477V24.3737Z"/>
  <path fill="currentColor" d="M58.4958 24.3737H53.6211V29.2484H58.4958V24.3737Z"/>
  <path fill="currentColor" d="M63.3747 24.3737H58.5V29.2484H63.3747V24.3737Z"/>
  <path fill="currentColor" d="M68.2477 24.3737H63.373V29.2484H68.2477V24.3737Z"/>
  <path fill="currentColor" d="M73.1227 24.3737H68.248V29.2484H73.1227V24.3737Z"/>
  <path fill="currentColor" d="M43.8708 29.2488H38.9961V34.1235H43.8708V29.2488Z"/>
  <path fill="currentColor" d="M53.6247 29.2488H48.75V34.1235H53.6247V29.2488Z"/>
  <path fill="currentColor" d="M63.3747 29.2488H58.5V34.1235H63.3747V29.2488Z"/>
  <path fill="currentColor" d="M73.1227 29.2488H68.248V34.1235H73.1227V29.2488Z"/>
  <path fill="currentColor" d="M82.8669 29.2488H77.9922V34.1235H82.8669V29.2488Z"/>
  <path fill="currentColor" d="M48.7477 34.1227H43.873V38.9974H48.7477V34.1227Z"/>
  <path fill="currentColor" d="M53.6247 34.1227H48.75V38.9974H53.6247V34.1227Z"/>
  <path fill="currentColor" d="M58.4958 34.1227H53.6211V38.9974H58.4958V34.1227Z"/>
  <path fill="currentColor" d="M68.2477 34.1227H63.373V38.9974H68.2477V34.1227Z"/>
  <path fill="currentColor" d="M82.8669 34.1227H77.9922V38.9974H82.8669V34.1227Z"/>
  <path fill="currentColor" d="M4.8747 38.9978H0V43.8725H4.8747V38.9978Z"/>
  <path fill="currentColor" d="M9.74774 38.9978H4.87305V43.8725H9.74774V38.9978Z"/>
  <path fill="currentColor" d="M14.6266 38.9978H9.75195V43.8725H14.6266V38.9978Z"/>
  <path fill="currentColor" d="M19.4997 38.9978H14.625V43.8725H19.4997V38.9978Z"/>
  <path fill="currentColor" d="M24.3727 38.9978H19.498V43.8725H24.3727V38.9978Z"/>
  <path fill="currentColor" d="M34.1227 38.9978H29.248V43.8725H34.1227V38.9978Z"/>
  <path fill="currentColor" d="M38.9977 38.9978H34.123V43.8725H38.9977V38.9978Z"/>
  <path fill="currentColor" d="M43.8708 38.9978H38.9961V43.8725H43.8708V38.9978Z"/>
  <path fill="currentColor" d="M48.7477 38.9978H43.873V43.8725H48.7477V38.9978Z"/>
  <path fill="currentColor" d="M58.4958 38.9978H53.6211V43.8725H58.4958V38.9978Z"/>
  <path fill="currentColor" d="M77.9958 38.9978H73.1211V43.8725H77.9958V38.9978Z"/>
  <path fill="currentColor" d="M82.8669 38.9978H77.9922V43.8725H82.8669V38.9978Z"/>
  <path fill="currentColor" d="M87.7458 38.9978H82.8711V43.8725H87.7458V38.9978Z"/>
  <path fill="currentColor" d="M97.4958 38.9978H92.6211V43.8725H97.4958V38.9978Z"/>
  <path fill="currentColor" d="M107.244 38.9978H102.369V43.8725H107.244V38.9978Z"/>
  <path fill="currentColor" d="M116.992 38.9978H112.117V43.8725H116.992V38.9978Z"/>
  <path fill="currentColor" d="M4.8747 43.8716H0V48.7463H4.8747V43.8716Z"/>
  <path fill="currentColor" d="M19.4997 43.8716H14.625V48.7463H19.4997V43.8716Z"/>
  <path fill="currentColor" d="M53.6247 43.8716H48.75V48.7463H53.6247V43.8716Z"/>
  <path fill="currentColor" d="M63.3747 43.8716H58.5V48.7463H63.3747V43.8716Z"/>
  <path fill="currentColor" d="M82.8669 43.8716H77.9922V48.7463H82.8669V43.8716Z"/>
  <path fill="currentColor" d="M87.7458 43.8716H82.8711V48.7463H87.7458V43.8716Z"/>
  <path fill="currentColor" d="M121.869 43.8716H116.994V48.7463H121.869V43.8716Z"/>
  <path fill="currentColor" d="M9.74774 48.7462H4.87305V53.6209H9.74774V48.7462Z"/>
  <path fill="currentColor" d="M19.4997 48.7462H14.625V53.6209H19.4997V48.7462Z"/>
  <path fill="currentColor" d="M29.2497 48.7462H24.375V53.6209H29.2497V48.7462Z"/>
  <path fill="currentColor" d="M34.1227 48.7462H29.248V53.6209H34.1227V48.7462Z"/>
  <path fill="currentColor" d="M38.9977 48.7462H34.123V53.6209H38.9977V48.7462Z"/>
  <path fill="currentColor" d="M43.8708 48.7462H38.9961V53.6209H43.8708V48.7462Z"/>
  <path fill="currentColor" d="M53.6247 48.7462H48.75V53.6209H53.6247V48.7462Z"/>
  <path fill="currentColor" d="M68.2477 48.7462H63.373V53.6209H68.2477V48.7462Z"/>
  <path fill="currentColor" d="M73.1227 48.7462H68.248V53.6209H73.1227V48.7462Z"/>
  <path fill="currentColor" d="M92.6208 48.7462H87.7461V53.6209H92.6208V48.7462Z"/>
  <path fill="currentColor" d="M97.4958 48.7462H92.6211V53.6209H97.4958V48.7462Z"/>
  <path fill="currentColor" d="M102.371 48.7462H97.4961V53.6209H102.371V48.7462Z"/>
  <path fill="currentColor" d="M112.119 48.7462H107.244V53.6209H112.119V48.7462Z"/>
  <path fill="currentColor" d="M9.74774 53.6219H4.87305V58.4966H9.74774V53.6219Z"/>
  <path fill="currentColor" d="M14.6266 53.6219H9.75195V58.4966H14.6266V53.6219Z"/>
  <path fill="currentColor" d="M24.3727 53.6219H19.498V58.4966H24.3727V53.6219Z"/>
  <path fill="currentColor" d="M38.9977 53.6219H34.123V58.4966H38.9977V53.6219Z"/>
  <path fill="currentColor" d="M43.8708 53.6219H38.9961V58.4966H43.8708V53.6219Z"/>
  <path fill="currentColor" d="M63.3747 53.6219H58.5V58.4966H63.3747V53.6219Z"/>
  <path fill="currentColor" d="M68.2477 53.6219H63.373V58.4966H68.2477V53.6219Z"/>
  <path fill="currentColor" d="M97.4958 53.6219H92.6211V58.4966H97.4958V53.6219Z"/>
  <path fill="currentColor" d="M34.1227 58.4964H29.248V63.3711H34.1227V58.4964Z"/>
  <path fill="currentColor" d="M48.7477 58.4964H43.873V63.3711H48.7477V58.4964Z"/>
  <path fill="currentColor" d="M53.6247 58.4964H48.75V63.3711H53.6247V58.4964Z"/>
  <path fill="currentColor" d="M63.3747 58.4964H58.5V63.3711H63.3747V58.4964Z"/>
  <path fill="currentColor" d="M77.9958 58.4964H73.1211V63.3711H77.9958V58.4964Z"/>
  <path fill="currentColor" d="M82.8669 58.4964H77.9922V63.3711H82.8669V58.4964Z"/>
  <path fill="currentColor" d="M87.7458 58.4964H82.8711V63.3711H87.7458V58.4964Z"/>
  <path fill="currentColor" d="M97.4958 58.4964H92.6211V63.3711H97.4958V58.4964Z"/>
  <path fill="currentColor" d="M102.371 58.4964H97.4961V63.3711H102.371V58.4964Z"/>
  <path fill="currentColor" d="M107.244 58.4964H102.369V63.3711H107.244V58.4964Z"/>
  <path fill="currentColor" d="M116.992 58.4964H112.117V63.3711H116.992V58.4964Z"/>
  <path fill="currentColor" d="M121.869 58.4964H116.994V63.3711H121.869V58.4964Z"/>
  <path fill="currentColor" d="M4.8747 63.3715H0V68.2462H4.8747V63.3715Z"/>
  <path fill="currentColor" d="M9.74774 63.3715H4.87305V68.2462H9.74774V63.3715Z"/>
  <path fill="currentColor" d="M19.4997 63.3715H14.625V68.2462H19.4997V63.3715Z"/>
  <path fill="currentColor" d="M24.3727 63.3715H19.498V68.2462H24.3727V63.3715Z"/>
  <path fill="currentColor" d="M29.2497 63.3715H24.375V68.2462H29.2497V63.3715Z"/>
  <path fill="currentColor" d="M73.1227 63.3715H68.248V68.2462H73.1227V63.3715Z"/>
  <path fill="currentColor" d="M77.9958 63.3715H73.1211V68.2462H77.9958V63.3715Z"/>
  <path fill="currentColor" d="M82.8669 63.3715H77.9922V68.2462H82.8669V63.3715Z"/>
  <path fill="currentColor" d="M97.4958 63.3715H92.6211V68.2462H97.4958V63.3715Z"/>
  <path fill="currentColor" d="M102.371 63.3715H97.4961V68.2462H102.371V63.3715Z"/>
  <path fill="currentColor" d="M116.992 63.3715H112.117V68.2462H116.992V63.3715Z"/>
  <path fill="currentColor" d="M121.869 63.3715H116.994V68.2462H121.869V63.3715Z"/>
  <path fill="currentColor" d="M4.8747 68.2454H0V73.1201H4.8747V68.2454Z"/>
  <path fill="currentColor" d="M14.6266 68.2454H9.75195V73.1201H14.6266V68.2454Z"/>
  <path fill="currentColor" d="M19.4997 68.2454H14.625V73.1201H19.4997V68.2454Z"/>
  <path fill="currentColor" d="M24.3727 68.2454H19.498V73.1201H24.3727V68.2454Z"/>
  <path fill="currentColor" d="M34.1227 68.2454H29.248V73.1201H34.1227V68.2454Z"/>
  <path fill="currentColor" d="M38.9977 68.2454H34.123V73.1201H38.9977V68.2454Z"/>
  <path fill="currentColor" d="M43.8708 68.2454H38.9961V73.1201H43.8708V68.2454Z"/>
  <path fill="currentColor" d="M48.7477 68.2454H43.873V73.1201H48.7477V68.2454Z"/>
  <path fill="currentColor" d="M53.6247 68.2454H48.75V73.1201H53.6247V68.2454Z"/>
  <path fill="currentColor" d="M58.4958 68.2454H53.6211V73.1201H58.4958V68.2454Z"/>
  <path fill="currentColor" d="M63.3747 68.2454H58.5V73.1201H63.3747V68.2454Z"/>
  <path fill="currentColor" d="M68.2477 68.2454H63.373V73.1201H68.2477V68.2454Z"/>
  <path fill="currentColor" d="M73.1227 68.2454H68.248V73.1201H73.1227V68.2454Z"/>
  <path fill="currentColor" d="M87.7458 68.2454H82.8711V73.1201H87.7458V68.2454Z"/>
  <path fill="currentColor" d="M92.6208 68.2454H87.7461V73.1201H92.6208V68.2454Z"/>
  <path fill="currentColor" d="M102.371 68.2454H97.4961V73.1201H102.371V68.2454Z"/>
  <path fill="currentColor" d="M112.119 68.2454H107.244V73.1201H112.119V68.2454Z"/>
  <path fill="currentColor" d="M116.992 68.2454H112.117V73.1201H116.992V68.2454Z"/>
  <path fill="currentColor" d="M121.869 68.2454H116.994V73.1201H121.869V68.2454Z"/>
  <path fill="currentColor" d="M4.8747 73.1205H0V77.9952H4.8747V73.1205Z"/>
  <path fill="currentColor" d="M24.3727 73.1205H19.498V77.9952H24.3727V73.1205Z"/>
  <path fill="currentColor" d="M38.9977 73.1205H34.123V77.9952H38.9977V73.1205Z"/>
  <path fill="currentColor" d="M43.8708 73.1205H38.9961V77.9952H43.8708V73.1205Z"/>
  <path fill="currentColor" d="M53.6247 73.1205H48.75V77.9952H53.6247V73.1205Z"/>
  <path fill="currentColor" d="M58.4958 73.1205H53.6211V77.9952H58.4958V73.1205Z"/>
  <path fill="currentColor" d="M68.2477 73.1205H63.373V77.9952H68.2477V73.1205Z"/>
  <path fill="currentColor" d="M82.8669 73.1205H77.9922V77.9952H82.8669V73.1205Z"/>
  <path fill="currentColor" d="M87.7458 73.1205H82.8711V77.9952H87.7458V73.1205Z"/>
  <path fill="currentColor" d="M116.992 73.1205H112.117V77.9952H116.992V73.1205Z"/>
  <path fill="currentColor" d="M121.869 73.1205H116.994V77.9952H121.869V73.1205Z"/>
  <path fill="currentColor" d="M4.8747 77.9956H0V82.8703H4.8747V77.9956Z"/>
  <path fill="currentColor" d="M14.6266 77.9956H9.75195V82.8703H14.6266V77.9956Z"/>
  <path fill="currentColor" d="M24.3727 77.9956H19.498V82.8703H24.3727V77.9956Z"/>
  <path fill="currentColor" d="M34.1227 77.9956H29.248V82.8703H34.1227V77.9956Z"/>
  <path fill="currentColor" d="M38.9977 77.9956H34.123V82.8703H38.9977V77.9956Z"/>
  <path fill="currentColor" d="M48.7477 77.9956H43.873V82.8703H48.7477V77.9956Z"/>
  <path fill="currentColor" d="M53.6247 77.9956H48.75V82.8703H53.6247V77.9956Z"/>
  <path fill="currentColor" d="M58.4958 77.9956H53.6211V82.8703H58.4958V77.9956Z"/>
  <path fill="currentColor" d="M68.2477 77.9956H63.373V82.8703H68.2477V77.9956Z"/>
  <path fill="currentColor" d="M73.1227 77.9956H68.248V82.8703H73.1227V77.9956Z"/>
  <path fill="currentColor" d="M77.9958 77.9956H73.1211V82.8703H77.9958V77.9956Z"/>
  <path fill="currentColor" d="M82.8669 77.9956H77.9922V82.8703H82.8669V77.9956Z"/>
  <path fill="currentColor" d="M87.7458 77.9956H82.8711V82.8703H87.7458V77.9956Z"/>
  <path fill="currentColor" d="M92.6208 77.9956H87.7461V82.8703H92.6208V77.9956Z"/>
  <path fill="currentColor" d="M97.4958 77.9956H92.6211V82.8703H97.4958V77.9956Z"/>
  <path fill="currentColor" d="M102.371 77.9956H97.4961V82.8703H102.371V77.9956Z"/>
  <path fill="currentColor" d="M107.244 77.9956H102.369V82.8703H107.244V77.9956Z"/>
  <path fill="currentColor" d="M121.869 77.9956H116.994V82.8703H121.869V77.9956Z"/>
  <path fill="currentColor" d="M43.8708 82.8701H38.9961V87.7448H43.8708V82.8701Z"/>
  <path fill="currentColor" d="M48.7477 82.8701H43.873V87.7448H48.7477V82.8701Z"/>
  <path fill="currentColor" d="M53.6247 82.8701H48.75V87.7448H53.6247V82.8701Z"/>
  <path fill="currentColor" d="M63.3747 82.8701H58.5V87.7448H63.3747V82.8701Z"/>
  <path fill="currentColor" d="M82.8669 82.8701H77.9922V87.7448H82.8669V82.8701Z"/>
  <path fill="currentColor" d="M102.371 82.8701H97.4961V87.7448H102.371V82.8701Z"/>
  <path fill="currentColor" d="M121.869 82.8701H116.994V87.7448H121.869V82.8701Z"/>
  <path fill="currentColor" d="M43.8708 87.7446H38.9961V92.6193H43.8708V87.7446Z"/>
  <path fill="currentColor" d="M68.2477 87.7446H63.373V92.6193H68.2477V87.7446Z"/>
  <path fill="currentColor" d="M73.1227 87.7446H68.248V92.6193H73.1227V87.7446Z"/>
  <path fill="currentColor" d="M77.9958 87.7446H73.1211V92.6193H77.9958V87.7446Z"/>
  <path fill="currentColor" d="M82.8669 87.7446H77.9922V92.6193H82.8669V87.7446Z"/>
  <path fill="currentColor" d="M92.6208 87.7446H87.7461V92.6193H92.6208V87.7446Z"/>
  <path fill="currentColor" d="M102.371 87.7446H97.4961V92.6193H102.371V87.7446Z"/>
  <path fill="currentColor" d="M112.119 87.7446H107.244V92.6193H112.119V87.7446Z"/>
  <path fill="currentColor" d="M116.992 87.7446H112.117V92.6193H116.992V87.7446Z"/>
  <path fill="currentColor" d="M121.869 87.7446H116.994V92.6193H121.869V87.7446Z"/>
  <path fill="currentColor" d="M48.7477 92.6191H43.873V97.4938H48.7477V92.6191Z"/>
  <path fill="currentColor" d="M63.3747 92.6191H58.5V97.4938H63.3747V92.6191Z"/>
  <path fill="currentColor" d="M77.9958 92.6191H73.1211V97.4938H77.9958V92.6191Z"/>
  <path fill="currentColor" d="M82.8669 92.6191H77.9922V97.4938H82.8669V92.6191Z"/>
  <path fill="currentColor" d="M102.371 92.6191H97.4961V97.4938H102.371V92.6191Z"/>
  <path fill="currentColor" d="M107.244 92.6191H102.369V97.4938H107.244V92.6191Z"/>
  <path fill="currentColor" d="M43.8708 97.4935H38.9961V102.368H43.8708V97.4935Z"/>
  <path fill="currentColor" d="M48.7477 97.4935H43.873V102.368H48.7477V97.4935Z"/>
  <path fill="currentColor" d="M63.3747 97.4935H58.5V102.368H63.3747V97.4935Z"/>
  <path fill="currentColor" d="M73.1227 97.4935H68.248V102.368H73.1227V97.4935Z"/>
  <path fill="currentColor" d="M77.9958 97.4935H73.1211V102.368H77.9958V97.4935Z"/>
  <path fill="currentColor" d="M82.8669 97.4935H77.9922V102.368H82.8669V97.4935Z"/>
  <path fill="currentColor" d="M87.7458 97.4935H82.8711V102.368H87.7458V97.4935Z"/>
  <path fill="currentColor" d="M92.6208 97.4935H87.7461V102.368H92.6208V97.4935Z"/>
  <path fill="currentColor" d="M97.4958 97.4935H92.6211V102.368H97.4958V97.4935Z"/>
  <path fill="currentColor" d="M102.371 97.4935H97.4961V102.368H102.371V97.4935Z"/>
  <path fill="currentColor" d="M107.244 97.4935H102.369V102.368H107.244V97.4935Z"/>
  <path fill="currentColor" d="M43.8708 102.369H38.9961V107.243H43.8708V102.369Z"/>
  <path fill="currentColor" d="M48.7477 102.369H43.873V107.243H48.7477V102.369Z"/>
  <path fill="currentColor" d="M53.6247 102.369H48.75V107.243H53.6247V102.369Z"/>
  <path fill="currentColor" d="M73.1227 102.369H68.248V107.243H73.1227V102.369Z"/>
  <path fill="currentColor" d="M77.9958 102.369H73.1211V107.243H77.9958V102.369Z"/>
  <path fill="currentColor" d="M82.8669 102.369H77.9922V107.243H82.8669V102.369Z"/>
  <path fill="currentColor" d="M87.7458 102.369H82.8711V107.243H87.7458V102.369Z"/>
  <path fill="currentColor" d="M92.6208 102.369H87.7461V107.243H92.6208V102.369Z"/>
  <path fill="currentColor" d="M97.4958 102.369H92.6211V107.243H97.4958V102.369Z"/>
  <path fill="currentColor" d="M102.371 102.369H97.4961V107.243H102.371V102.369Z"/>
  <path fill="currentColor" d="M107.244 102.369H102.369V107.243H107.244V102.369Z"/>
  <path fill="currentColor" d="M116.992 102.369H112.117V107.243H116.992V102.369Z"/>
  <path fill="currentColor" d="M121.869 102.369H116.994V107.243H121.869V102.369Z"/>
  <path fill="currentColor" d="M43.8708 107.244H38.9961V112.118H43.8708V107.244Z"/>
  <path fill="currentColor" d="M48.7477 107.244H43.873V112.118H48.7477V107.244Z"/>
  <path fill="currentColor" d="M53.6247 107.244H48.75V112.118H53.6247V107.244Z"/>
  <path fill="currentColor" d="M58.4958 107.244H53.6211V112.118H58.4958V107.244Z"/>
  <path fill="currentColor" d="M63.3747 107.244H58.5V112.118H63.3747V107.244Z"/>
  <path fill="currentColor" d="M92.6208 107.244H87.7461V112.118H92.6208V107.244Z"/>
  <path fill="currentColor" d="M97.4958 107.244H92.6211V112.118H97.4958V107.244Z"/>
  <path fill="currentColor" d="M102.371 107.244H97.4961V112.118H102.371V107.244Z"/>
  <path fill="currentColor" d="M112.119 107.244H107.244V112.118H112.119V107.244Z"/>
  <path fill="currentColor" d="M121.869 107.244H116.994V112.118H121.869V107.244Z"/>
  <path fill="currentColor" d="M43.8708 112.118H38.9961V116.993H43.8708V112.118Z"/>
  <path fill="currentColor" d="M58.4958 112.118H53.6211V116.993H58.4958V112.118Z"/>
  <path fill="currentColor" d="M87.7458 112.118H82.8711V116.993H87.7458V112.118Z"/>
  <path fill="currentColor" d="M92.6208 112.118H87.7461V116.993H92.6208V112.118Z"/>
  <path fill="currentColor" d="M102.371 112.118H97.4961V116.993H102.371V112.118Z"/>
  <path fill="currentColor" d="M107.244 112.118H102.369V116.993H107.244V112.118Z"/>
  <path fill="currentColor" d="M112.119 112.118H107.244V116.993H112.119V112.118Z"/>
  <path fill="currentColor" d="M116.992 112.118H112.117V116.993H116.992V112.118Z"/>
  <path fill="currentColor" d="M43.8708 116.993H38.9961V121.867H43.8708V116.993Z"/>
  <path fill="currentColor" d="M48.7477 116.993H43.873V121.867H48.7477V116.993Z"/>
  <path fill="currentColor" d="M58.4958 116.993H53.6211V121.867H58.4958V116.993Z"/>
  <path fill="currentColor" d="M63.3747 116.993H58.5V121.867H63.3747V116.993Z"/>
  <path fill="currentColor" d="M107.244 116.993H102.369V121.867H107.244V116.993Z"/>
  <path fill="currentColor" d="M112.119 116.993H107.244V121.867H112.119V116.993Z"/>
  <path fill="currentColor" d="M116.992 116.993H112.117V121.867H116.992V116.993Z"/>
  <path fill="currentColor" d="M121.869 116.993H116.994V121.867H121.869V116.993Z"/>
  <g clip-path="">
    <path fill="currentColor" d="M29.297 6.10352e-05H24.4222H19.5476H19.5476H14.6729H9.79824H4.92356H0.0488281V4.87474V9.74942V14.6241V19.4988V24.3735V29.2481V34.1228H4.92356H9.79824H14.6729H19.5476H19.5476H24.4222H29.297H34.1717V29.2481V24.3735V19.4988V14.6241V9.74942V4.87474V6.10352e-05H29.297ZM29.297 9.74942V14.6241V19.4988V24.3735V29.2481H24.4222H19.5476H19.5476H14.6729H9.79824H4.92356V24.3735V19.4988V14.6241V9.74942V4.87474H9.79824H14.6729H19.5476H19.5476H24.4222H29.297V9.74942Z"/>
  </g>
  <path fill="currentColor" d="M19.4994 9.74939H19.4993H14.6247H9.75V14.624V19.4988V24.3734H14.6247H19.4993H19.4994H24.374V19.4988V14.624V9.74939H19.4994Z"/>
  <g clip-path="">
    <path fill="currentColor" d="M117.043 6.10352e-05H112.168H107.294H107.294H102.419H97.5443H92.6697H87.7949V4.87474V9.74942V14.6241V19.4988V24.3735V29.2481V34.1228H92.6697H97.5443H102.419H107.294H107.294H112.168H117.043H121.918V29.2481V24.3735V19.4988V14.6241V9.74942V4.87474V6.10352e-05H117.043ZM117.043 9.74942V14.6241V19.4988V24.3735V29.2481H112.168H107.294H107.294H102.419H97.5443H92.6697V24.3735V19.4988V14.6241V9.74942V4.87474H97.5443H102.419H107.294H107.294H112.168H117.043V9.74942Z"/>
  </g>
  <path fill="currentColor" d="M107.245 9.74939H107.245H102.371H97.4961V14.624V19.4988V24.3734H102.371H107.245H107.245H112.12V19.4988V14.624V9.74939H107.245Z"/>
  <g clip-path="">
    <path fill="currentColor" d="M29.297 87.7446H24.4222H19.5476H19.5476H14.6729H9.79824H4.92356H0.0488281V92.6193V97.494V102.369V107.243V112.118V116.993V121.867H4.92356H9.79824H14.6729H19.5476H19.5476H24.4222H29.297H34.1717V116.993V112.118V107.243V102.369V97.494V92.6193V87.7446H29.297ZM29.297 97.494V102.369V107.243V112.118V116.993H24.4222H19.5476H19.5476H14.6729H9.79824H4.92356V112.118V107.243V102.369V97.494V92.6193H9.79824H14.6729H19.5476H19.5476H24.4222H29.297V97.494Z"/>
  </g>
  <path fill="currentColor" d="M19.4994 97.494H19.4993H14.6247H9.75V102.369V107.243V112.118H14.6247H19.4993H19.4994H24.374V107.243V102.369V97.494H19.4994Z"/>
  <defs>
    <clipPath id="">
      <rect fill="currentColor" width="34.1229" height="34.1229"/>
    </clipPath>
    <clipPath id="">
      <rect fill="currentColor" width="34.1229" height="34.1229" transform="translate(87.7461)"/>
    </clipPath>
    <clipPath id="">
      <rect fill="currentColor" width="34.1229" height="34.1229" transform="translate(0 87.7446)"/>
    </clipPath>
  </defs>
</svg>
