<?xml version="1.0"?>
<svg xmlns="http://www.w3.org/2000/svg" viewBox="0 0 34 29" fill="none">
  <path fill="currentColor" d="M25.8051 26.8108C25.9997 27.7537 24.8802 28.4 24.161 27.7601L16.5223 20.9632C16.013 20.5099 16.0966 19.691 16.6871 19.3501L22.2588 16.1332C22.8493 15.7923 23.6003 16.1294 23.7382 16.7971L25.8051 26.8108Z"/>
  <path fill="currentColor" fill-rule="evenodd" clip-rule="evenodd" d="M11.5501 0.98291C5.55788 0.98291 0.700195 5.84059 0.700195 11.8328C0.700195 17.8251 5.55788 22.6828 11.5501 22.6828H22.4001C28.3923 22.6828 33.25 17.8251 33.25 11.8328C33.25 5.84059 28.3923 0.98291 22.4001 0.98291H11.5501ZM10.6671 14.1361C11.9391 14.1361 12.9702 13.105 12.9702 11.8331C12.9702 10.5611 11.9391 9.53004 10.6671 9.53004C9.39519 9.53004 8.36408 10.5611 8.36408 11.8331C8.36408 13.105 9.39519 14.1361 10.6671 14.1361ZM19.2778 11.8329C19.2778 13.1048 18.2466 14.136 16.9747 14.136C15.7028 14.136 14.6717 13.1048 14.6717 11.8329C14.6717 10.561 15.7028 9.52986 16.9747 9.52986C18.2466 9.52986 19.2778 10.561 19.2778 11.8329ZM23.2829 14.136C24.5548 14.136 25.5859 13.1048 25.5859 11.8329C25.5859 10.561 24.5548 9.52986 23.2829 9.52986C22.0109 9.52986 20.9798 10.561 20.9798 11.8329C20.9798 13.1048 22.0109 14.136 23.2829 14.136Z"/>
</svg>
