<?xml version="1.0"?>
<svg xmlns="http://www.w3.org/2000/svg" version="1.1" viewBox="0 0 1200 1200">
  <path d="m42.75-0.039062c-23.625 0.039062-42.789 19.199-42.789 42.824 0 2.1016 0.14844 4.1641 0.44922 6.2266l-0.039062-0.22656v337.09 0.60156c0 23.664 19.199 42.824 42.824 42.824s42.824-19.164 42.824-42.824v-0.63672 0.039062-239.21l269.55 269.55c7.7617 7.7617 18.449 12.523 30.262 12.523 23.664 0 42.824-19.199 42.824-42.824 0-11.852-4.8008-22.539-12.562-30.301l-269.55-269.55h239.25 0.60156c23.664 0 42.824-19.199 42.824-42.824s-19.164-42.824-42.824-42.824h-0.63672-337.39c-1.6875-0.26172-3.6758-0.41406-5.6641-0.41406zm1113.2 0.039062c-1.6484 0.039062-3.2266 0.1875-4.7617 0.41406l0.22656-0.039062h-337.31-0.60156c-23.664 0-42.824 19.164-42.824 42.824 0 23.664 19.164 42.824 42.824 42.824h0.63672 239.21l-269.55 269.55c-7.7617 7.7617-12.562 18.449-12.562 30.301 0 23.664 19.199 42.824 42.863 42.824 11.812 0 22.539-4.8008 30.301-12.523l269.55-269.55v239.21 0.60156c0 23.664 19.164 42.824 42.824 42.824 23.664 0 42.824-19.164 42.824-42.824v-0.63672 0.039063-337.39c0.22656-1.6875 0.375-3.6758 0.375-5.6641 0-23.664-19.164-42.824-42.824-42.824-0.41406 0-0.86328 0-1.2734 0.039062h0.074218zm-1113.4 770.77c-23.398 0.375-42.227 19.387-42.227 42.824v0.63672-0.039063 342.64 0.11328 0.11328c0 1.2383 0.074218 2.4766 0.1875 3.6758l-0.039063-0.1875c0.039063 0.33594 0.039063 0.52344 0.039063 0.71094v-0.14844c0.11328 1.2734 0.30078 2.3633 0.48828 3.4492l-0.039063-0.26172c0.11328 0.67578 0.1875 1.0859 0.26172 1.4609l-0.039063-0.26172c0.89844 4.1641 2.2891 7.875 4.0859 11.25l-0.11328-0.22656c0.26172 0.5625 0.44922 0.86328 0.63672 1.1641l-0.11328-0.22656c0.63672 1.125 1.1641 2.0234 1.7617 2.9258l-0.11328-0.14844c0.26172 0.44922 0.44922 0.71094 0.63672 0.97656l-0.11328-0.14844c2.3984 3.4141 5.1367 6.375 8.25 8.8867l0.074219 0.074219c0.11328 0.074218 0.22656 0.22656 0.375 0.33594l0.039062 0.039063c6.9766 5.5117 15.824 8.9258 25.461 9.1484h0.039062c0.22656 0.039063 0.5625 0.039063 0.9375 0.039063h342.71 0.60156c23.664 0 42.824-19.164 42.824-42.824 0-23.664-19.164-42.824-42.824-42.824h-0.63672-239.18l269.51-269.55c7.9883-7.8008 12.938-18.637 12.938-30.676 0-23.664-19.164-42.824-42.824-42.824-0.41406 0-0.86328 0-1.2734 0.039062h0.074219c-11.551 0.33594-21.938 5.2109-29.438 12.898l-269.55 269.55v-239.25-0.5625c0-23.664-19.199-42.824-42.824-42.824h-0.67578 0.039063zm1113.6 0c-23.398 0.375-42.227 19.387-42.227 42.824v0.63672-0.039063 239.25l-269.55-269.55c-7.8008-8.0234-18.676-12.977-30.711-12.977h-0.039063c-23.625 0.039062-42.789 19.199-42.789 42.824 0 12.039 4.9883 22.914 12.977 30.676l269.51 269.55h-239.21-0.60156c-23.664 0-42.824 19.164-42.824 42.824 0 23.664 19.164 42.824 42.824 42.824h0.63672 342.6c4.5 0 8.8867-0.71094 12.977-2.0234l-0.30078 0.074219c0.26172-0.11328 0.30078-0.14844 0.33594-0.14844l-0.22656 0.11328c1.6133-0.48828 2.9258-0.97656 4.2383-1.5391l-0.26172 0.11328c0.33594-0.14844 0.41406-0.1875 0.48828-0.22656l-0.22656 0.11328c1.4609-0.63672 2.6641-1.2383 3.8242-1.875l-0.22656 0.11328c0.1875-0.11328 0.22656-0.1875 0.26172-0.1875l-0.11328 0.074219c2.2109-1.2383 4.0859-2.4766 5.8516-3.8633l-0.074219 0.074219c0.63672-0.48828 1.125-0.89844 1.6484-1.3516l-0.074219 0.039063c0.97656-0.82422 1.8359-1.6484 2.6641-2.5117l0.11328-0.11328c1.875-1.9492 3.6016-4.0859 5.0625-6.4141l0.11328-0.1875c-0.11328 0.22656-0.074219 0.1875-0.074219 0.1875l0.11328-0.22656c0.63672-0.97656 1.3516-2.1758 1.9883-3.4141l0.11328-0.22656c-0.11328 0.22656-0.074219 0.1875-0.074219 0.1875l0.11328-0.22656c1.1641-2.25 2.2109-4.875 2.9609-7.6133l0.074219-0.30078c-0.039063 0.22656-0.039063 0.1875-0.039063 0.11328l0.074219-0.30078c0.86328-3.0742 1.3867-6.5625 1.4609-10.199v-0.039063c0.039063-0.22656 0.039063-0.5625 0.039063-0.9375v-342.71-0.5625c0-23.664-19.164-42.824-42.824-42.824h-0.67578 0.039062z"/>
</svg>
