<?xml version="1.0"?>
<svg xmlns="http://www.w3.org/2000/svg" viewBox="0 0 77.833 32">
  <path fill="currentColor" d="M77.171,11.729c0.052,0.398-0.026,0.848-0.238,1.352V13.2h-0.12
				c-0.053,0-0.304,0.026-0.755,0.081c-0.478,0.026-1.02,0.053-1.63,0.079c-0.583,0.026-1.127,0.04-1.63,0.04
				c-0.53,0-0.875-0.066-1.033-0.2c-0.08,0-0.134-0.027-0.16-0.079c-0.053,0-0.093-0.012-0.119-0.04h-6.48
				c-0.158,0.079-0.357,0.145-0.596,0.199c-0.265,0.026-0.451,0.091-0.557,0.198c-0.106,0.106-0.317,0.185-0.636,0.238
				c-0.371,0.026-0.596,0.04-0.676,0.04c-0.054,0-0.172-0.093-0.358-0.278h-0.159c-0.028,0.026-0.04,0.092-0.04,0.199
				c-0.053,0.053-0.08,0.186-0.08,0.397v0.039c-0.025,0.161-0.066,0.358-0.12,0.597c-0.079,0.265-0.198,0.517-0.357,0.754
				c-0.133,0.24-0.291,0.464-0.475,0.676c-0.268,0.186-0.545,0.278-0.837,0.278H44.216c-0.187,0-0.398,0.066-0.637,0.2v1.073
				c0,0.345-0.013,0.703-0.04,1.074c-0.026,0.344-0.159,0.688-0.397,1.034c-0.292,0.185-0.688,0.278-1.191,0.278
				C41.526,20.024,41.074,20,40.597,20c-0.53-0.054-1.033-0.107-1.51-0.16c-0.504-0.106-0.927-0.173-1.273-0.2
				c-0.344-0.052-0.57-0.118-0.676-0.198c-0.185,0.106-0.423,0.266-0.715,0.477c-0.319,0.238-0.477,0.651-0.477,1.232v0.835
				l-0.158,0.08c-0.054,0.079-0.2,0.252-0.438,0.517c-0.212,0.264-0.318,0.49-0.318,0.676c0,0.159,0.013,0.306,0.041,0.437
				c0,0.08,0.012,0.16,0.04,0.238l0.238,0.319h-0.238c-0.054,0.027-0.199,0.212-0.438,0.556c-0.265,0.344-0.396,0.822-0.396,1.431
				v0.398l0.158,0.238h-0.438c-0.158-0.053-0.45-0.131-0.874-0.238c-0.477-0.027-0.954-0.119-1.431-0.277
				c-0.53-0.133-1.008-0.305-1.432-0.519c-0.397-0.184-0.622-0.409-0.674-0.676l-0.16-0.118c0.105-1.432,0.291-2.823,0.556-4.174
				c0.319-1.352,1.034-2.533,2.147-3.538c0.026-0.107,0.066-0.239,0.119-0.398c0.026-0.159,0.041-0.305,0.041-0.437
				c0-0.239-0.212-0.478-0.637-0.717c-0.238-0.131-0.622-0.2-1.153-0.2c-0.583,0-1.257,0.147-2.027,0.439
				c-1.697,0.609-2.862,1.868-3.498,3.776l-0.08,0.04c-0.529,0.371-0.927,0.556-1.192,0.556v0.08c0,0.264,0.013,0.688,0.04,1.272
				c0.054,0.583,0.092,1.231,0.118,1.947c0,0.69,0.027,1.406,0.081,2.146c0.054,0.769,0.106,1.473,0.16,2.108v0.198
				c-0.054,0-0.2,0.107-0.438,0.319c-0.292,0.186-0.689,0.396-1.193,0.635c-0.529,0.213-1.179,0.438-1.948,0.676
				c-0.741,0.16-1.615,0.213-2.623,0.16h-0.12c-0.158-2.2-0.265-4.174-0.317-5.923c-0.107-1.51-0.173-2.902-0.2-4.174
				s-0.04-1.988-0.04-2.147c-1.032,0.16-1.96,0.319-2.782,0.477c-0.848,0.159-1.365,0.293-1.551,0.399
				c0,0.026-0.013,0.092-0.04,0.198c-0.054,0.132-0.08,0.225-0.08,0.278c0,0.504-0.12,0.756-0.357,0.756
				c-0.079,0.027-0.357,0.092-0.835,0.2c-0.477,0.051-0.821,0.145-1.034,0.277h-0.119c-0.106-0.132-0.185-0.252-0.239-0.358
				c-0.106-0.079-0.198-0.171-0.278-0.278c-0.027-0.132-0.053-0.25-0.08-0.356c-0.212,0.185-0.569,0.37-1.073,0.556
				C8.197,20,7.576,20.184,6.886,20.396c-0.742,0.159-1.497,0.278-2.266,0.358c-0.821,0.185-1.643,0.226-2.465,0.12l-0.119-0.12
				l-0.159-0.08c-0.61-1.908-1.034-3.551-1.272-4.93c-0.186-1.377-0.278-2.531-0.278-3.458c0-1.748,0.211-2.901,0.636-3.458
				c0.397-0.583,0.689-0.928,0.874-1.033c0.027,0,0.159-0.212,0.398-0.636C2.526,6.733,2.792,6.35,3.029,6.005V5.807h7.514v0.198
				c0.159,0.292,0.411,0.65,0.755,1.073c0.318,0.372,0.557,0.61,0.716,0.717c0.132,0,0.477-0.16,1.034-0.478
				c0.529-0.319,1.02-0.716,1.47-1.193h0.16c1.218,0.107,2.49,0.173,3.816,0.199c1.298,0.053,2.478,0.094,3.537,0.12
				c1.086,0,1.988,0,2.704,0c0.796-0.026,1.272-0.08,1.432-0.159c0.053-0.132,0.131-0.358,0.238-0.676
				c0.106-0.344,0.198-0.675,0.279-0.993c0.078-0.293,0.146-0.597,0.198-0.914c0.08-0.293,0.146-0.478,0.199-0.557v-0.12
				c0.025-0.08,0.092-0.147,0.199-0.199c0.079-0.132,0.264-0.225,0.556-0.278c0.212-0.08,0.597-0.16,1.152-0.239
				c0.53-0.053,1.233-0.119,2.109-0.198c3.789-0.185,10.003,0.014,18.645,0.597c2.543,0.079,4.584,0.132,6.122,0.158
				c1.51,0.026,2.664,0.039,3.458,0.039c0.794,0.026,1.312,0.067,1.55,0.121c0.239,0,0.383,0,0.438,0c0.026,0,0.159,0,0.397,0
				c0.212-0.053,0.41,0.092,0.597,0.437c0.504,0.557,0.754,1.512,0.754,2.862c0,0.452,0,0.928,0,1.432
				c-0.026,0.529-0.091,1.099-0.198,1.709c-0.08,0.16-0.12,0.292-0.12,0.398c-0.054,0.213-0.08,0.437-0.08,0.677
				c0.134,0,0.252,0,0.358,0c0.132,0.026,0.225,0.039,0.279,0.039c0.158,0.026,0.291,0.04,0.397,0.04l1.073,0.237
				c0,0.027,0.013,0.054,0.041,0.081c0,0.052,0.013,0.106,0.04,0.16v0.079h5.644c0.106-0.054,0.239-0.079,0.399-0.079
				c0.185-0.054,0.331-0.107,0.436-0.16l0.32-0.081c0.131-0.079,0.449-0.131,0.953-0.159c0.452,0,0.956-0.014,1.511-0.04
				c0.557-0.025,1.1-0.025,1.63,0c0.504,0.026,0.809,0.04,0.914,0.04l0.279,0.159v0.16C77.038,11.147,77.119,11.385,77.171,11.729z
				 M57.731,5.488H32.17c-0.875,0-1.312,0.464-1.312,1.392v1.273c0,0.899,0.438,1.351,1.312,1.351h25.562
				c0.425,0,0.742-0.133,0.954-0.398c0.265-0.212,0.397-0.53,0.397-0.953V6.88c0-0.424-0.132-0.757-0.397-0.994
				C58.474,5.62,58.156,5.488,57.731,5.488z"/>
</svg>
