<?xml version="1.0"?>
<svg width="24" height="25" viewBox="0 0 24 25" fill="none" xmlns="http://www.w3.org/2000/svg">
  <path d="M5.83642 17.6544L11.1103 8.49123C11.3014 8.11205 11.3354 7.67284 11.2048 7.2688C11.0743 6.86477 10.7898 6.52846 10.4129 6.33279C10.0085 6.09741 9.52857 6.02807 9.07408 6.13935C8.71066 6.24593 8.40357 6.49087 8.21885 6.82149L4.65539 13.027C4.58789 13.1445 4.56981 13.2839 4.60513 13.4147C4.64045 13.5455 4.72628 13.6569 4.84375 13.7244C4.96121 13.7919 5.10067 13.81 5.23146 13.7747C5.36226 13.7394 5.47366 13.6535 5.54116 13.5361L9.10462 7.33056C9.15274 7.23444 9.23692 7.16124 9.33879 7.12693C9.43346 7.10335 9.53194 7.09931 9.62821 7.11507C9.72449 7.13082 9.81655 7.16604 9.89876 7.21856C10.0402 7.28047 10.153 7.39363 10.2143 7.5353C10.2757 7.67697 10.2812 7.83663 10.2297 7.98216L4.95574 17.1453C4.85186 17.316 4.7119 17.4618 4.5457 17.5726C4.37949 17.6834 4.19106 17.7565 3.99361 17.7868C3.51917 17.8652 3.03226 17.7733 2.61913 17.5271C1.74354 17.0181 1.36174 15.9999 1.77917 15.3025L7.29744 5.71682C7.61091 5.20551 8.11435 4.83937 8.69737 4.69869C9.53455 4.49469 10.4184 4.63011 11.1562 5.0754C12.5968 5.90518 13.1924 7.55964 12.5154 8.75594L10.5555 12.1514C10.5186 12.2093 10.4939 12.2741 10.4827 12.3419C10.4716 12.4096 10.4743 12.4789 10.4906 12.5456C10.507 12.6123 10.5366 12.675 10.5778 12.7299C10.619 12.7849 10.6709 12.8309 10.7303 12.8652C10.7897 12.8996 10.8555 12.9216 10.9237 12.9299C10.9918 12.9381 11.061 12.9325 11.1269 12.9134C11.1928 12.8943 11.2542 12.862 11.3074 12.8185C11.3605 12.7751 11.4043 12.7213 11.4361 12.6605L13.396 9.26501C14.3684 7.58 13.5946 5.30448 11.6652 4.17435C10.6915 3.59863 9.53056 3.4286 8.43265 3.70092C8.00868 3.80714 7.61018 3.99694 7.26052 4.25918C6.91086 4.52143 6.61708 4.85085 6.39639 5.22812L0.883219 14.7935C0.190891 15.9999 0.735591 17.6188 2.11007 18.4078C2.58193 18.6822 3.1169 18.8296 3.66271 18.8354C3.8334 18.8348 4.00372 18.8194 4.17178 18.7896C4.51534 18.7335 4.84242 18.6028 5.13002 18.4066C5.41762 18.2105 5.65874 17.9537 5.83642 17.6544Z" fill="white"/>
  <path d="M23.6994 4.07252L19.9272 0.300349C19.8325 0.205068 19.7199 0.129475 19.5958 0.0779264C19.4717 0.0263781 19.3387 -0.000106136 19.2044 3.19658e-07H5.96866C5.6194 0.00268705 5.28535 0.143319 5.03933 0.391246C4.79331 0.639173 4.65526 0.974294 4.65527 1.32357V4.58159C4.65527 4.7166 4.70891 4.84608 4.80438 4.94155C4.89984 5.03702 5.02933 5.09065 5.16434 5.09065C5.29935 5.09065 5.42883 5.03702 5.5243 4.94155C5.61977 4.84608 5.6734 4.7166 5.6734 4.58159V1.32357C5.6734 1.24256 5.70558 1.16487 5.76286 1.10759C5.82015 1.05031 5.89784 1.01813 5.97884 1.01813H19.2145L22.9816 4.7903V23.1166C22.9816 23.1977 22.9494 23.2753 22.8922 23.3326C22.8349 23.3899 22.7572 23.4221 22.6762 23.4221H5.97884C5.89784 23.4221 5.82015 23.3899 5.76286 23.3326C5.70558 23.2753 5.6734 23.1977 5.6734 23.1166V19.8535C5.6734 19.7185 5.61977 19.589 5.5243 19.4936C5.42883 19.3981 5.29935 19.3445 5.16434 19.3445C5.02933 19.3445 4.89984 19.3981 4.80438 19.4936C4.70891 19.589 4.65527 19.7185 4.65527 19.8535V23.1116C4.65527 23.4626 4.79472 23.7992 5.04294 24.0475C5.29116 24.2957 5.62781 24.4351 5.97884 24.4351H22.6762C23.0268 24.4338 23.3627 24.2939 23.6106 24.046C23.8585 23.7981 23.9984 23.4622 23.9997 23.1116V4.78521C23.9973 4.51739 23.8894 4.26133 23.6994 4.07252Z" fill="white"/>
  <path d="M20.4365 18.3264H9.23706V19.3445H20.4365V18.3264Z" fill="white"/>
  <path d="M20.4365 14.2538H13.3096V15.2719H20.4365V14.2538Z" fill="white"/>
  <path d="M20.4364 10.1813H15.3457V11.1995H20.4364V10.1813Z" fill="white"/>
</svg>
