<?xml version="1.0"?>
<svg xmlns="http://www.w3.org/2000/svg" viewBox="0 0 36 36" fill="none">
  <path fill="currentColor" fill-rule="evenodd" clip-rule="evenodd" d="M7.28571 3C8.73774 3 10.0211 3.72211 10.7963 4.8268C13.0467 3.64788 15.5563 3 18 3C20.4437 3 22.9533 3.64788 25.2037 4.8268C25.9789 3.72211 27.2623 3 28.7143 3C31.0812 3 33 4.91878 33 7.28571C33 8.65658 32.3564 9.87711 31.3548 10.6616C32.3906 12.5001 33 14.6111 33 16.9286C33 29.4986 28.4271 33 18 33C7.57287 33 3 29.4986 3 16.9286C3 14.6111 3.60942 12.5001 4.6452 10.6616C3.64364 9.87711 3 8.65658 3 7.28571C3 4.91878 4.91878 3 7.28571 3ZM25.5 17C26.8807 17 28 15.8807 28 14.5C28 13.1193 26.8807 12 25.5 12C24.1193 12 23 13.1193 23 14.5C23 15.8807 24.1193 17 25.5 17ZM13 14.5C13 15.8807 11.8807 17 10.5 17C9.11929 17 8 15.8807 8 14.5C8 13.1193 9.11929 12 10.5 12C11.8807 12 13 13.1193 13 14.5ZM18 29C21.3137 29 24 26.3137 24 23C24 19.6863 21.3137 17 18 17C14.6863 17 12 19.6863 12 23C12 26.3137 14.6863 29 18 29ZM14.869 22.9951C14.1308 22.4046 14.5484 21.2142 15.4937 21.2142H20.5064C21.4517 21.2142 21.8692 22.4046 21.1311 22.9951L19.2494 24.5004C19.1697 24.5642 19.0863 24.621 19 24.6709V26.0001C19 26.5524 18.5523 27.0001 18 27.0001C17.4477 27.0001 17 26.5524 17 26.0001V24.6709C16.9137 24.621 16.8303 24.5642 16.7506 24.5004L14.869 22.9951Z"/>
</svg>
