<?xml version="1.0"?>
<svg xmlns="http://www.w3.org/2000/svg" viewBox="0 0 36 36" fill="none">
  <path d="M13.34 25.05L16 21.2901V34.05H6V25.05H13.34ZM22.64 25.05L20 21.2901V34.05H30V25.05H22.64ZM24.99 21.05H35L30 14.05H20L24.99 21.05ZM15.99 14.05H6L1 21.05H11L15.99 14.05ZM19.49 2.05005H16.49V6.55005C16.49 6.74788 16.5291 6.94375 16.6051 7.12639C16.6811 7.30904 16.7925 7.47484 16.9329 7.61426C17.0732 7.75368 17.2398 7.86396 17.4229 7.93875C17.606 8.01354 17.8022 8.05137 18 8.05005C18.3978 8.05005 18.7794 7.89201 19.0607 7.61071C19.342 7.3294 19.5 6.94787 19.5 6.55005L19.49 2.05005ZM27.69 6.46005L25.29 4.64005L23.07 7.58005C22.9492 7.73672 22.8606 7.91574 22.8092 8.1068C22.7579 8.29787 22.7449 8.4972 22.7709 8.69332C22.7969 8.88944 22.8615 9.07847 22.9609 9.24953C23.0603 9.42059 23.1925 9.57031 23.35 9.69005C23.6686 9.93036 24.0695 10.0348 24.4648 9.98042C24.8602 9.92608 25.218 9.71742 25.46 9.40005L27.69 6.46005ZM12.91 7.58005L10.69 4.64005L8.29 6.46005L10.52 9.40005C10.762 9.71742 11.1198 9.92608 11.5152 9.98042C11.9105 10.0348 12.3114 9.93036 12.63 9.69005C12.7875 9.57031 12.9197 9.42059 13.0191 9.24953C13.1185 9.07847 13.1831 8.88944 13.2091 8.69332C13.2351 8.4972 13.2221 8.29787 13.1708 8.1068C13.1194 7.91574 13.0308 7.73672 12.91 7.58005Z" fill="currentColor"/>
</svg>
