<?xml version="1.0"?>
<svg xmlns="http://www.w3.org/2000/svg" viewBox="0 0 36 36" fill="none">
  <path fill="currentColor" d="M15.6615 10.25C15.3525 10.7125 15.1875 11.2562 15.1875 11.8125C15.1867 12.1821 15.2589 12.5482 15.3999 12.8898C15.541 13.2314 15.7481 13.5417 16.0094 13.8031C16.2708 14.0644 16.5811 14.2715 16.9227 14.4126C17.2643 14.5536 17.6304 14.6258 18 14.625C18.5563 14.625 19.1 14.4601 19.5625 14.151C20.0251 13.842 20.3855 13.4027 20.5984 12.8888C20.8113 12.3749 20.867 11.8094 20.7585 11.2638C20.6499 10.7182 20.3821 10.2171 19.9887 9.82376C19.5954 9.43043 19.0943 9.16256 18.5487 9.05404C18.0031 8.94552 17.4376 9.00122 16.9237 9.21409C16.4098 9.42696 15.9705 9.78745 15.6615 10.25Z"/>
  <path fill="currentColor" d="M14.4645 17.9645C15.4021 17.0268 16.6739 16.5 18 16.5C19.3261 16.5 20.5979 17.0268 21.5355 17.9645C22.4732 18.9021 23 20.1739 23 21.5V24H21L20.5 29H15.5L15 24H13V21.5C13 20.1739 13.5268 18.9021 14.4645 17.9645Z"/>
  <path fill="currentColor" fill-rule="evenodd" clip-rule="evenodd" d="M18 0L35 7.00016V29L18 36L1 29V7.00016L18 0ZM4 27.7647V9.76471L18 4L32 9.76471V27.7647L24.6111 24.7222L24.1734 27.7864L27.1208 29L18 32.7556L8.87919 29L11.8266 27.7864L11.3889 24.7222L4 27.7647Z"/>
</svg>
