<?xml version="1.0"?>
<svg xmlns="http://www.w3.org/2000/svg" version="1.1" viewBox="0 0 1024 1024">
  <path d="M829.1,381c-29.9,0-57.5,10.1-79.5,27.1-60-37.1-135.6-60.4-218.5-63.5v-.3c0-55.5,41.3-101.6,94.7-109.1,9.7,41.1,46.6,71.8,90.7,71.8s93.2-41.7,93.2-93.2-41.7-93.2-93.2-93.2-82.6,31.9-91.3,74.3c-75.4,8.1-134.3,72-134.3,149.5v.5c-82,3.5-156.8,26.8-216.3,63.6-22.1-17.1-49.8-27.3-79.8-27.3-72.2,0-130.6,58.5-130.6,130.6s30.8,97.5,75.2,118.3c4.3,151.6,169.6,273.6,372.8,273.6s368.7-122.1,372.8-273.9c44.1-21,74.6-65.9,74.6-118s-58.5-130.6-130.6-130.6h0Z"/>
</svg>
