<?xml version="1.0"?>
<svg xmlns="http://www.w3.org/2000/svg" viewBox="0 0 542 316" fill="none">
  <g clip-path="">
    <g>
      <path stroke-width="" stroke="" d="M111.506 48.22C99.911 44.4727 85.8021 47.69 76.0611 52.4514L75.4019 52.7786C68.6189 56.2048 62.7146 61.1392 57.9605 66.9075L57.9586 66.9104C52.8278 73.1439 49.1441 80.3039 46.6402 87.7522C43.5811 96.8378 42.2267 106.292 41.524 115.446C40.5014 128.782 41.8242 141.616 43.6812 154.292L44.4732 159.833C45.3335 165.886 46.1499 173.216 47.5133 178.276C68.0052 254.323 180.969 203.684 151.981 122.068C152.345 120.198 152.18 118.43 151.934 117.064C151.577 115.084 150.783 112.779 150.516 111.844V111.841L149.157 107.138C148.928 106.354 148.698 105.571 148.467 104.787L147.77 102.438C146.757 98.9677 145.551 94.0269 143.874 89.5764C142.329 85.4778 140.147 81.0738 136.681 77.6682C135.257 73.3626 133.462 69.0578 131.05 64.9885L131.049 64.9876L130.623 64.2795C128.453 60.7491 125.778 57.346 122.462 54.4895C119.318 51.7677 115.614 49.5484 111.508 48.22H111.506Z" stroke-linecap="round"/>
      <path stroke-width="" stroke="" d="M74.3047 48.8583C84.3702 43.9383 99.284 40.3404 112.113 44.2196H112.14L112.74 44.4139C117.411 45.9252 121.575 48.432 125.072 51.4589L125.757 52.0624C128.908 54.9084 131.479 58.1604 133.586 61.4745L134.031 62.1854L134.049 62.2147L134.224 62.5048L134.235 62.5165L134.491 62.9491C136.917 67.043 138.739 71.3151 140.181 75.5272C143.834 79.4001 146.082 84.0969 147.616 88.1659C149.365 92.8052 150.67 98.0945 151.61 101.316L152.302 103.649L152.304 103.656L152.997 106.017L153 106.027L154.383 110.811C154.595 111.526 155.481 114.189 155.871 116.354C156.12 117.734 156.325 119.602 156.083 121.682C170.688 164.233 148.592 198.868 120.066 212.886C105.725 219.933 89.4551 221.931 75.207 216.818C60.7996 211.649 49.0696 199.424 43.6514 179.316C42.2038 173.944 41.3378 166.202 40.5127 160.396L39.3789 152.473C37.6904 140.452 36.5454 128.059 37.5361 115.14L37.6777 113.388C38.4315 104.598 39.8422 95.4073 42.8496 86.4755C45.4612 78.7073 49.3194 71.1584 54.7383 64.5292L54.7451 64.5204L54.874 64.3631C59.9441 58.2115 66.2733 52.908 73.5986 49.2079L73.6113 49.202L73.624 49.1952L74.2832 48.868L74.3047 48.8583Z" stroke-linecap="round"/>
      <path stroke-width="" stroke="" d="M72.6284 45.2271C83.0369 40.1583 98.703 36.2284 112.686 40.2192H112.771L113.972 40.6079C119.212 42.3032 123.837 45.0997 127.69 48.4341L127.704 48.4468L127.717 48.4585L128.402 49.062L128.42 49.0776L128.438 49.0942C131.909 52.2287 134.703 55.7756 136.961 59.3286L136.969 59.3403L136.976 59.3511L137.393 60.0171L137.421 60.0454L137.932 60.9097C140.375 65.032 142.225 69.2866 143.689 73.437C147.507 77.7221 149.823 82.6796 151.359 86.7554C153.176 91.5761 154.575 97.1952 155.446 100.18L156.137 102.513L156.142 102.529L156.832 104.877L156.843 104.917L158.226 109.701C158.404 110.288 159.374 113.236 159.808 115.645C160.063 117.059 160.293 118.993 160.142 121.203C174.932 165.555 151.713 201.792 121.831 216.476C106.739 223.892 89.3338 226.137 73.856 220.583C58.0591 214.915 45.5027 201.559 39.7896 180.357C38.258 174.673 37.343 166.523 36.5523 160.959L35.4194 153.04L35.4175 153.029C33.713 140.894 32.5255 128.173 33.5484 114.834V114.826L33.5493 114.817L33.6909 113.065L33.6929 113.045C34.4614 104.084 35.9117 94.5463 39.0591 85.1987C41.7986 77.051 45.8698 69.0579 51.6411 61.9976L51.6519 61.9839L51.7808 61.8267L51.7876 61.8189C57.1737 55.2839 63.9277 49.6113 71.7954 45.6372L71.8579 45.606L71.8589 45.605L72.5054 45.2847L72.5659 45.2544L72.6284 45.2271Z" stroke-linecap="round"/>
      <path stroke-width="" stroke="" d="M70.9631 41.5896C81.7271 36.3675 98.1337 32.1264 113.229 36.2195H113.402L115.203 36.8025C120.649 38.5644 125.46 41.3865 129.508 44.7332L130.308 45.4099L130.361 45.4558L130.363 45.4578L131.021 46.0379L131.084 46.0916L131.167 46.1697C134.914 49.5631 137.903 53.366 140.297 57.1218L140.321 57.157L140.344 57.1931L140.351 57.2039L140.359 57.2166L140.366 57.2283L140.542 57.5095L140.608 57.575L141.376 58.8748C143.836 63.0259 145.712 67.2719 147.201 71.3816C151.168 76.0402 153.554 81.2378 155.102 85.3445C156.987 90.3457 158.476 96.2831 159.28 99.0437L159.96 101.336L160.662 103.728L160.675 103.767L160.68 103.787L160.686 103.806L162.054 108.539L162.305 109.342C162.685 110.568 163.379 112.908 163.744 114.936C164.006 116.389 164.254 118.369 164.173 120.661C179.195 166.856 154.841 204.712 123.595 220.066C107.753 227.851 89.2135 230.344 72.5051 224.348C55.3176 218.181 41.9347 203.693 35.927 181.398C34.3114 175.403 33.3491 166.85 32.592 161.522L31.468 153.665L31.4563 153.586C29.7425 141.385 28.5153 128.391 29.5481 114.692V114.604L29.5686 114.412L29.7043 112.743L29.7072 112.705C30.466 103.857 31.888 94.3027 34.965 84.8377L35.2678 83.9226C38.1293 75.4126 42.4031 66.9928 48.507 59.5125L48.5324 59.4802L48.5588 59.448L48.6877 59.2908L48.7277 59.241L48.7561 59.2088C54.3311 52.4612 61.3125 46.5524 69.4719 42.3338L69.4943 42.3123L70.0832 42.0213L70.717 41.7068L70.7775 41.6765L70.8684 41.6306L70.9631 41.5896Z" stroke-linecap="round"/>
      <path stroke-width="" stroke="" d="M69.3175 37.942C80.4458 32.5658 97.5758 28.0344 113.742 32.2194H114.032L116.435 32.9967C122.04 34.8103 127.006 37.6376 131.224 40.9762L132.057 41.651L132.074 41.6647L132.092 41.6793L132.892 42.3561L132.913 42.3747L132.934 42.3932L133.091 42.5299L133.097 42.5358L133.622 42.9987L133.668 43.0377L133.749 43.1061L133.825 43.1793L133.853 43.2047L134.605 43.9001C138.282 47.3661 141.233 51.1635 143.608 54.8756L143.665 54.9586L143.692 55.0026L143.794 55.1042L144.051 55.5397L144.818 56.8356C147.296 61.0183 149.201 65.2655 150.717 69.3512C154.823 74.3547 157.279 79.7798 158.845 83.9342C160.802 89.1268 162.382 95.3871 163.121 97.9245L163.795 100.199L163.798 100.21L164.48 102.531L164.522 102.663L164.541 102.74L165.872 107.345L166.123 108.148L166.126 108.158C166.511 109.399 167.269 111.939 167.681 114.227L167.791 114.873C168.017 116.28 168.207 118.056 168.186 120.08C183.47 168.146 157.97 207.63 125.36 223.656C108.769 231.809 89.094 234.551 71.1545 228.114C52.5755 221.447 38.3666 205.826 32.0646 182.439C30.3656 176.134 29.356 167.184 28.632 162.089L27.5109 154.252L27.4992 154.173L27.4972 154.157L27.4953 154.142C25.7722 141.875 24.5061 128.612 25.548 114.557V114.392L25.588 114.014L25.716 112.436L25.7189 112.398L25.7209 112.381L25.7218 112.363C26.4949 103.348 27.9552 93.4634 31.1613 83.6012L31.1672 83.5817L31.4699 82.6667L31.4738 82.6569L31.4767 82.6481C34.4592 73.7782 38.9329 64.9346 45.3654 57.0368L45.3908 57.0045L45.4132 56.9762L45.4367 56.9479L45.463 56.9157L45.466 56.9118L45.5949 56.7545L45.6652 56.6667L45.7228 56.6002L45.7384 56.5817C51.4934 49.6359 58.6863 43.5067 67.1125 39.0543L67.173 38.9977L68.9396 38.1237L69.0646 38.0612L69.1701 38.0075L69.2795 37.9596L69.3175 37.942Z" stroke-linecap="round"/>
      <path stroke-width="" stroke="" d="M67.6545 34.3038C79.1542 28.765 97.0138 23.9444 114.237 28.2198H114.663L117.666 29.1914C123.772 31.167 129.155 34.2376 133.706 37.8399L133.724 37.8536L133.741 37.8682L134.544 38.5176L134.583 38.5489L134.635 38.5918L134.676 38.626L135.476 39.3028L135.49 39.3155L135.506 39.3291L135.528 39.3477L135.563 39.378L135.591 39.4034L135.716 39.5118L135.821 39.6026L135.831 39.6133L136.238 39.9707L136.261 39.9913L136.328 40.0489L136.428 40.1329L136.569 40.2676L137.321 40.9629L137.334 40.9766L137.348 40.9893C141.22 44.6393 144.32 48.6087 146.808 52.46L146.977 52.627L147.493 53.503L148.259 54.7969L148.743 55.628C151.008 59.5697 152.79 63.5331 154.233 67.3389C158.472 72.6662 161 78.3091 162.588 82.5235L162.964 83.5459C164.817 88.6999 166.32 94.5997 166.956 96.7881L167.63 99.0625L167.643 99.1045L167.653 99.1407L168.302 101.351L168.369 101.564L168.4 101.681L168.404 101.699L169.707 106.21L169.941 106.954L169.947 106.974C170.287 108.073 170.96 110.309 171.43 112.557L171.617 113.518L171.623 113.553L171.734 114.198L171.738 114.22L171.74 114.24C171.969 115.667 172.165 117.443 172.184 119.466C187.757 169.428 161.101 210.549 127.123 227.246C109.784 235.766 88.9753 238.758 69.8039 231.879C49.8328 224.713 34.7983 207.957 28.2024 183.48C26.4199 176.865 25.3637 167.522 24.6721 162.654L23.551 154.818L23.5422 154.759L23.5354 154.714L23.5295 154.669L23.5276 154.653C21.7978 142.328 20.4975 128.809 21.5481 114.416V114.181L21.5705 113.971L21.6028 113.663L21.7287 112.113L21.7317 112.081L21.7356 112.023L21.7385 111.992C22.5252 102.834 24.0198 92.6492 27.3391 82.419L27.3518 82.3789L27.3694 82.3252L27.7102 81.295L27.719 81.2715C30.8226 72.0752 35.4872 62.8459 42.2229 54.5616L42.2483 54.5293L42.2571 54.5186L42.2795 54.4903L42.3049 54.458L42.3313 54.4258L42.3723 54.376L42.4768 54.2481L42.5412 54.168L42.591 54.1055L42.6438 54.045L42.7014 53.9786C48.6419 46.8211 56.0561 40.4634 64.759 35.7774L64.8703 35.6739L67.1662 34.5381L67.2756 34.4834L67.3547 34.4434L67.4592 34.3897L67.5666 34.3428L67.6545 34.3038Z" stroke-linecap="round"/>
      <path stroke-width="" stroke="" d="M66.0025 30.66C77.8787 24.9579 96.4574 19.8605 114.71 24.2196H115.294L118.898 25.3856C125.499 27.5216 131.297 30.8333 136.179 34.6962L136.233 34.7382L136.257 34.7587L137.06 35.4081L137.082 35.4257L137.11 35.4481L137.138 35.4716L137.19 35.5145L137.26 35.5731L138.06 36.2499L138.078 36.2645L138.095 36.2802L138.11 36.2929L138.118 36.2987L138.121 36.3016L138.142 36.3202L138.172 36.3475L138.204 36.3729L138.233 36.4003L138.336 36.4901L138.34 36.493L138.55 36.6757L138.57 36.6952L138.861 36.9511L138.928 37.0087L139.006 37.0751L139.104 37.1571L139.307 37.3514L140.037 38.0263L140.093 38.079L140.13 38.1161C144.133 41.8956 147.342 45.9734 149.92 49.912L150.159 50.1473L150.422 50.5956L150.936 51.4667L151.702 52.7606L151.709 52.7714L152.2 53.6141L152.211 53.6356C154.484 57.5903 156.282 61.5486 157.746 65.3368C161.836 70.6103 164.375 76.0761 166.007 80.2675L166.331 81.1132L166.336 81.1278L166.342 81.1434L166.718 82.1659L166.728 82.1932C168.637 87.5018 170.218 93.6779 170.797 95.6708L171.459 97.9052L171.471 97.9472L171.489 98.0038L171.5 98.0438L172.118 100.148L172.215 100.459L172.243 100.563L172.271 100.675L173.543 105.075L173.757 105.758L173.765 105.781L173.772 105.805C174.078 106.794 174.663 108.733 175.145 110.828L175.345 111.738L175.351 111.765L175.356 111.791L175.544 112.752L175.554 112.806L175.563 112.86L175.566 112.879L175.673 113.505L175.687 113.579L175.698 113.654L175.699 113.663C175.926 115.095 176.122 116.844 176.171 118.828C192.051 170.704 164.232 213.467 128.887 230.836C110.801 239.723 88.8566 242.965 68.4527 235.644C47.0885 227.978 31.23 210.088 24.3404 184.52C22.4743 177.595 21.3713 167.862 20.7115 163.218L19.5914 155.385L19.5874 155.36L19.5806 155.316L19.5748 155.273L19.5689 155.231L19.2447 152.861C17.6685 141.081 16.555 128.102 17.5484 114.281V113.968L17.5933 113.546L17.6177 113.303L17.7447 111.753L17.7486 111.702L17.7564 111.619C18.5575 102.309 20.0878 91.8153 23.5259 81.2098L23.5386 81.1698L23.5503 81.1347L23.5679 81.0809L23.5718 81.0692L23.9126 80.0389L23.9371 79.9638L23.9556 79.913C27.1808 70.3828 32.0379 60.761 39.0806 52.0858L39.106 52.0536L39.1294 52.0253L39.1373 52.0145L39.1626 51.9823L39.2095 51.9257L39.2359 51.8934L39.2437 51.8827L39.2847 51.8329L39.4253 51.66L39.4624 51.6132L39.5171 51.5448L39.5748 51.4784L39.6275 51.4179L39.6509 51.3895C45.7793 44.0138 53.4196 37.4252 62.4019 32.5067L62.5738 32.3475L65.3931 30.953L65.4869 30.9061L65.5259 30.8856L65.6304 30.8319L65.7437 30.7743L65.8599 30.7235L65.9419 30.6874L66.0025 30.66Z" stroke-linecap="round"/>
      <path stroke-width="" stroke="" d="M64.3293 27.0262C76.5852 21.154 95.8903 15.7776 115.165 20.2195H115.925L120.129 21.5799C127.222 23.8751 133.431 27.4245 138.643 31.5447L138.696 31.5867L138.752 31.6297L138.806 31.6756L138.821 31.6883L139.567 32.2918L139.593 32.3123L139.595 32.3143L139.628 32.3396L139.66 32.366L139.689 32.3894L139.694 32.3934L139.745 32.4363L139.75 32.4412L139.844 32.5193L140.612 33.1687L140.745 33.2693L140.826 33.3504L140.832 33.3553L140.894 33.4129L140.965 33.4744L141.28 33.7488L141.308 33.7762L141.492 33.9383L141.519 33.9607L141.579 34.0125L141.776 34.1775L141.869 34.2664L142.037 34.4275L142.753 35.0896L142.762 35.0984L142.819 35.1512L142.871 35.2L142.947 35.2762C147.059 39.1704 150.364 43.3406 153.025 47.3553L153.341 47.6687L153.607 48.1189L154.378 49.4295L155.104 50.6551L155.125 50.6893L155.164 50.7566L155.655 51.5994L156.122 52.4227C158.198 56.1304 159.873 59.8183 161.26 63.3475C165.192 68.5325 167.728 73.816 169.402 77.9754L169.735 78.8152L169.739 78.827L169.743 78.8396L170.05 79.6424L170.067 79.6824L170.081 79.7234L170.087 79.7391L170.097 79.7625L170.473 80.785L170.479 80.8025L170.486 80.8201L170.492 80.8396L170.857 81.8748C172.653 87.0737 174.137 92.8248 174.633 94.5359L175.287 96.7478L175.291 96.7615L175.309 96.8182L175.332 96.8924L175.349 96.9588L175.934 98.948L176.031 99.2586L176.061 99.3514L176.085 99.4461L176.112 99.5506L176.115 99.5643L176.119 99.577L176.135 99.6395L177.37 103.916L177.56 104.516L177.584 104.588L177.599 104.641C177.917 105.668 178.531 107.706 179.043 109.931L179.047 109.95L179.052 109.969L179.25 110.87L179.256 110.896L179.271 110.966L179.284 111.036L179.289 111.062L179.465 111.968L179.477 112.021L179.491 112.096L179.508 112.202L179.612 112.805L179.62 112.854L179.635 112.933L179.647 113.013L179.65 113.036L179.741 113.643C179.931 114.958 180.087 116.483 180.151 118.175C196.349 171.978 167.362 216.385 130.652 234.426C111.818 243.68 88.7389 247.172 67.1017 239.409C44.3435 231.243 27.6609 212.218 20.4777 185.561C18.5284 178.327 17.3799 168.209 16.7512 163.783L15.631 155.951L15.6281 155.931L15.6222 155.893L15.6174 155.856L15.6115 155.813L15.6076 155.784L15.6056 155.773L15.2814 153.403L15.2795 153.391C13.6919 141.525 12.5467 128.299 13.548 114.152V113.755L13.6154 113.122L13.6349 112.933L13.758 111.427L13.7599 111.395L13.7658 111.327L13.7736 111.244C14.5899 101.774 16.1588 90.9643 19.7209 79.9764L19.7258 79.9607L19.7346 79.9324L19.7433 79.9051L19.7551 79.8699L19.7658 79.8367L19.7697 79.826L19.7726 79.8162L19.7765 79.8045L20.1144 78.782L20.132 78.7283L20.1545 78.659L20.1799 78.5906C23.5324 68.6975 28.5966 58.6528 35.9748 49.5643L35.9933 49.5398L36.0109 49.5174L36.0207 49.5066L36.05 49.4685L36.0783 49.4344L36.0793 49.4324L36.1555 49.3396L36.1965 49.2898L36.3224 49.1355L36.3264 49.1307L36.3322 49.1219L36.339 49.1141L36.3937 49.0457L36.4435 48.9832L36.5529 48.8572L36.5578 48.8514L36.5861 48.8182C42.9041 41.2176 50.7733 34.3945 60.0373 29.2439L60.2805 29.0193L60.8 28.7615L63.6193 27.367L63.6974 27.3279L63.8019 27.2742L63.8088 27.2703L63.8166 27.2664L63.9299 27.2088L64.0344 27.1561L64.1418 27.1092L64.2472 27.0623L64.3293 27.0262Z" stroke-linecap="round"/>
      <path stroke-width="" stroke="" d="M62.6351 23.4017C75.2725 17.3539 95.3106 11.6959 115.604 16.2191H116.556L121.361 17.7738C128.945 20.228 135.565 24.0155 141.106 28.3929L141.16 28.4349L141.197 28.4633L141.275 28.5238L141.351 28.5883L141.367 28.601L142.076 29.1762L142.245 29.308L142.277 29.3392L142.3 29.3588L142.443 29.4769L142.451 29.4857L143.105 30.0385L143.149 30.0717L143.374 30.2416L143.584 30.4515L143.59 30.4564L144.01 30.8217L144.043 30.8549L144.118 30.9203L144.153 30.9506L144.35 31.1156L144.441 31.1928L144.528 31.2748L144.621 31.3637L144.629 31.3715L144.638 31.3793L144.776 31.5111L145.469 32.1527L145.488 32.1703L145.536 32.2162L145.589 32.265L145.645 32.3168L145.749 32.4213C149.973 36.4301 153.376 40.6966 156.122 44.7933L156.157 44.8275L156.524 45.1908L156.785 45.6361L157.051 46.0863L157.054 46.0892L157.826 47.3998L158.512 48.5609L158.55 48.6215L158.585 48.683L158.619 48.7426L159.112 49.5853L159.135 49.6263L159.602 50.4496L159.607 50.4594L159.613 50.4691C161.692 54.1838 163.379 57.8658 164.781 61.3803C168.547 66.4462 171.065 71.5382 172.772 75.6498L173.113 76.4818L173.117 76.4916L173.119 76.5013L173.432 77.2885L173.506 77.4662L173.528 77.5375L173.761 78.1498L173.8 78.2426L173.817 78.2924L173.822 78.3021L173.851 78.3822L174.227 79.4047L174.239 79.434L174.248 79.4623L174.261 79.4984L174.266 79.5121L174.63 80.5472L174.633 80.558L174.637 80.5687C176.469 85.8694 178.015 91.8297 178.469 93.4008L179.123 95.6127L179.183 95.8041L179.208 95.9086L179.757 97.7738L179.845 98.0541L179.875 98.1469L179.908 98.2494L179.934 98.3529L179.954 98.433L179.965 98.4769L179.974 98.5033L179.988 98.5599L180 98.6068L181.2 102.758L181.357 103.257L181.368 103.291L181.41 103.412L181.435 103.506C181.766 104.577 182.402 106.691 182.938 109.02L182.941 109.03L182.958 109.109L183.155 110.002L183.16 110.029L183.165 110.049L183.169 110.07L183.184 110.139L183.191 110.17L183.197 110.202L183.21 110.272L183.214 110.289L183.216 110.3L183.385 111.168L183.401 111.246L183.431 111.4L183.444 111.479L183.451 111.526L183.548 112.097L183.553 112.125L183.568 112.204L183.581 112.28L183.593 112.354L183.605 112.434V112.438L183.697 113.045L183.701 113.073C183.889 114.377 184.044 115.867 184.123 117.508C200.651 173.251 170.49 219.304 132.415 238.015C112.836 247.636 88.6214 251.38 65.7503 243.174C41.9748 234.643 24.6403 214.974 16.973 187.897L16.6156 186.602C14.5827 179.058 13.3884 168.555 12.7904 164.345L11.6751 156.544L11.6741 156.539L11.6683 156.501L11.6566 156.415L11.6546 156.403L11.6478 156.354L11.6468 156.342L11.6429 156.315L11.3333 154.049L11.3236 153.986L11.3148 153.921C9.71532 141.967 8.53811 128.49 9.54817 114.017V113.542L9.63801 112.699L9.64778 112.597L9.77473 111.053L9.78059 110.985L9.78157 110.968L9.78352 110.952L9.79133 110.869C10.6228 101.239 12.2295 90.1123 15.9154 78.7426L15.9202 78.7279L15.9261 78.7084L15.9349 78.681L15.9486 78.64L15.9583 78.6088L15.9779 78.5512L15.9818 78.5375L15.9915 78.5072L16.3167 77.5267L16.3304 77.4838L16.3489 77.4262L16.3753 77.3451L16.4046 77.266C19.8571 67.091 25.0744 56.7092 32.6888 47.2679L32.7025 47.2416L32.9232 46.972L32.9515 46.9359L32.9681 46.9164L32.9876 46.8939L33.0638 46.8012L33.0677 46.7963L33.1087 46.7465L33.1497 46.6849L33.2689 46.5472L33.3148 46.4906L33.3675 46.4242L33.4232 46.3607L33.4993 46.2728L33.514 46.2553L33.5423 46.222C40.0455 38.4076 48.1345 31.3619 57.6654 25.9887L57.9876 25.6918L59.0218 25.1781L59.0267 25.1762L61.846 23.7816L61.8685 23.7699L61.9066 23.7494L61.9202 23.7426L62.0032 23.7006L62.1165 23.6429L62.1273 23.6381L62.3323 23.5345L62.4349 23.4896L62.5169 23.4535L62.6224 23.4066L62.6351 23.4017Z" stroke-linecap="round"/>
      <path stroke-width="" stroke="" d="M61.0266 19.7383C74.0535 13.5282 94.7757 7.62766 116.028 12.2188H117.187L122.592 13.9678C130.656 16.5772 137.678 20.5949 143.542 25.2207L143.597 25.2627L143.613 25.2744L143.628 25.2871L143.647 25.3018L143.725 25.3623L143.793 25.4151L143.859 25.4698L143.916 25.5176L144.563 26.042L144.9 26.3057L144.972 26.378L144.995 26.3975L145.139 26.5166L145.156 26.5332L145.609 26.917L146.005 27.2149L146.202 27.4131L146.312 27.5225L146.635 27.8037L146.74 27.8946L146.776 27.9307L146.94 28.0674L147.031 28.1446L147.111 28.2119L147.187 28.2842L147.274 28.3662L147.28 28.3721L147.334 28.4239L147.351 28.4385L147.394 28.4805L147.412 28.4971L147.421 28.5059L147.506 28.5879L148.186 29.2168L148.203 29.2325L148.227 29.2559L148.277 29.3018L148.307 29.3301L148.313 29.336L148.368 29.3877L148.422 29.4366L148.473 29.4883L148.531 29.5469C152.873 33.6721 156.379 38.0404 159.214 42.2256L159.337 42.3477L159.708 42.7139L160.23 43.6035L160.239 43.6172L160.242 43.6211L160.501 44.0596L161.269 45.3643L161.924 46.4727L161.936 46.4912L161.981 46.5635L162.023 46.6367L162.055 46.6924L162.089 46.752L162.566 47.5684L162.575 47.584L162.584 47.6006L162.608 47.6416L162.614 47.6533L163.073 48.4629L163.081 48.4766L163.133 48.5674L163.147 48.5948C165.211 52.291 166.895 55.9429 168.302 59.4219C171.899 64.3467 174.387 69.2448 176.12 73.2949L176.466 74.1162L176.47 74.125L176.473 74.1338L176.814 74.9659L176.821 74.9805L176.826 74.9961L176.897 75.1719L176.901 75.1856L177.123 75.7471L177.197 75.9248L177.277 76.1153L177.314 76.2383L177.482 76.6778L177.5 76.7159L177.521 76.7725L177.546 76.8321L177.578 76.9278L177.952 77.9483L177.989 78.0381L178.02 78.1299L178.022 78.1367L178.033 78.167L178.039 78.1846L178.451 79.3555L178.458 79.3809C180.306 84.7508 181.889 90.8188 182.305 92.2657L182.956 94.4698L183.04 94.7364L183.069 94.8565L183.595 96.6446L183.648 96.8135L183.678 96.9063L183.692 96.9473L183.757 97.1553L183.805 97.3487L183.822 97.3994L183.862 97.5616L185.021 101.576L185.157 102.008L185.198 102.129L185.238 102.247L185.279 102.396C185.619 103.501 186.254 105.622 186.804 107.987L186.814 108.02L186.846 108.162L186.865 108.25L187.057 109.123L187.077 109.211L187.083 109.243L187.092 109.284L187.099 109.315L187.112 109.374L187.122 109.433L187.123 109.439L187.136 109.497L187.143 109.536L187.308 110.384L187.325 110.472L187.356 110.625L187.369 110.695L187.38 110.766L187.393 110.845L187.394 110.852L187.487 111.397L187.501 111.476L187.503 111.489L187.517 111.564L187.526 111.609L187.532 111.655L187.544 111.73L187.548 111.752L187.551 111.774L187.563 111.855L187.575 111.942L187.652 112.447L187.655 112.464L187.656 112.48L187.659 112.502L187.806 113.605C187.927 114.603 188.025 115.682 188.091 116.831C204.956 174.524 173.618 222.224 134.18 241.605C113.855 251.592 88.5051 255.588 64.3996 246.939C39.2534 237.916 21.096 217.139 13.1243 188.986L13.1203 188.974L13.1174 188.961L12.76 187.666L12.7561 187.654L12.7532 187.643C10.6373 179.79 9.39833 168.91 8.83031 164.91L7.71507 157.11L7.70921 157.075L7.70531 157.042L7.7014 157.011L7.69749 156.984L7.69359 156.957L7.68675 156.908L7.68285 156.881L7.68187 156.88L7.67113 156.798L7.66917 156.781L7.37035 154.594L7.36449 154.56L7.36058 154.526L7.35179 154.462L7.34984 154.451C5.73855 142.408 4.52994 128.684 5.54808 113.888V113.33L5.66038 112.275L5.66624 112.214L5.78831 110.726L5.79515 110.616L5.80589 110.524L5.80882 110.493C6.65458 100.715 8.29679 89.2869 12.0969 77.5498L12.1057 77.5215L12.1184 77.4844L12.1203 77.4776L12.1272 77.4571L12.133 77.4366L12.1535 77.375L12.1545 77.3701L12.1702 77.3242L12.175 77.3096L12.1848 77.2793L12.1946 77.2481L12.5198 76.2676L12.5227 76.2578L12.5412 76.2002L12.5452 76.1885L12.5715 76.1075L12.5969 76.0313L12.6243 75.9561C16.1639 65.5322 21.5091 54.8499 29.3147 45.083L29.343 45.0303L29.8284 44.4375L29.8528 44.4063L29.8957 44.3535L29.9612 44.2578L30.1252 44.0674L30.2073 43.9727L30.2356 43.9366L30.2961 43.8604L30.3606 43.7871L30.4162 43.7237L30.468 43.6631L30.4709 43.6592C37.1636 35.618 45.4803 28.3395 55.2883 22.7393L55.6975 22.3633L57.2424 21.5957L57.3869 21.5244L57.3889 21.5225L60.0159 20.2237L60.0637 20.1983L60.1145 20.1729L60.1975 20.1309L60.303 20.0772L60.3811 20.0381L60.3977 20.0293L60.5295 19.9639L60.6272 19.9141L60.7278 19.8711L60.9983 19.751L61.0266 19.7383Z" stroke-linecap="round"/>
    </g>
    <g>
      <path stroke-width="" stroke="" d="M430.494 48.22C442.089 44.4727 456.198 47.69 465.939 52.4514L466.598 52.7786C473.381 56.2048 479.285 61.1392 484.039 66.9075L484.041 66.9104C489.172 73.1439 492.856 80.3039 495.36 87.7522C498.419 96.8378 499.773 106.292 500.476 115.446C501.499 128.782 500.176 141.616 498.319 154.292L497.527 159.833C496.666 165.886 495.85 173.216 494.487 178.276C473.995 254.323 361.031 203.684 390.019 122.068C389.655 120.198 389.82 118.43 390.066 117.064C390.423 115.084 391.217 112.779 391.484 111.844V111.841L392.843 107.138C393.072 106.354 393.302 105.571 393.533 104.787L394.23 102.438C395.243 98.9677 396.449 94.0269 398.126 89.5764C399.671 85.4778 401.853 81.0738 405.319 77.6682C406.743 73.3626 408.538 69.0578 410.95 64.9885L410.951 64.9876L411.377 64.2795C413.547 60.7491 416.222 57.346 419.538 54.4895C422.682 51.7677 426.386 49.5484 430.492 48.22H430.494Z" stroke-linecap="round"/>
      <path stroke-width="" stroke="" d="M467.695 48.8583C457.63 43.9383 442.716 40.3404 429.887 44.2196H429.86L429.26 44.4139C424.589 45.9252 420.425 48.432 416.928 51.4589L416.243 52.0624C413.092 54.9084 410.521 58.1604 408.414 61.4745L407.969 62.1854L407.951 62.2147L407.776 62.5048L407.765 62.5165L407.509 62.9491C405.083 67.043 403.261 71.3151 401.819 75.5272C398.166 79.4001 395.918 84.0969 394.384 88.1659C392.635 92.8052 391.33 98.0945 390.39 101.316L389.698 103.649L389.696 103.656L389.003 106.017L389 106.027L387.617 110.811C387.405 111.526 386.519 114.189 386.129 116.354C385.88 117.734 385.675 119.602 385.917 121.682C371.312 164.233 393.408 198.868 421.934 212.886C436.275 219.933 452.545 221.931 466.793 216.818C481.2 211.649 492.93 199.424 498.349 179.316C499.796 173.944 500.662 166.202 501.487 160.396L502.621 152.473C504.31 140.452 505.455 128.059 504.464 115.14L504.322 113.388C503.569 104.598 502.158 95.4073 499.15 86.4755C496.539 78.7073 492.681 71.1584 487.262 64.5292L487.255 64.5204L487.126 64.3631C482.056 58.2115 475.727 52.908 468.401 49.2079L468.389 49.202L468.376 49.1952L467.717 48.868L467.695 48.8583Z" stroke-linecap="round"/>
      <path stroke-width="" stroke="" d="M469.372 45.2271C458.963 40.1583 443.297 36.2284 429.314 40.2192H429.229L428.028 40.6079C422.788 42.3032 418.163 45.0997 414.31 48.4341L414.296 48.4468L414.283 48.4585L413.598 49.062L413.58 49.0776L413.562 49.0942C410.091 52.2287 407.297 55.7756 405.039 59.3286L405.031 59.3403L405.024 59.3511L404.607 60.0171L404.579 60.0454L404.068 60.9097C401.625 65.032 399.775 69.2866 398.311 73.437C394.493 77.7221 392.177 82.6796 390.641 86.7554C388.824 91.5761 387.425 97.1952 386.554 100.18L385.863 102.513L385.858 102.529L385.168 104.877L385.157 104.917L383.774 109.701C383.596 110.288 382.626 113.236 382.192 115.645C381.937 117.059 381.707 118.993 381.858 121.203C367.068 165.555 390.287 201.792 420.169 216.476C435.261 223.892 452.666 226.137 468.144 220.583C483.941 214.915 496.497 201.559 502.21 180.357C503.742 174.673 504.657 166.523 505.448 160.959L506.581 153.04L506.583 153.029C508.287 140.894 509.475 128.173 508.452 114.834V114.826L508.451 114.817L508.309 113.065L508.307 113.045C507.539 104.084 506.088 94.5463 502.941 85.1987C500.201 77.051 496.13 69.0579 490.359 61.9976L490.348 61.9839L490.219 61.8267L490.212 61.8189C484.826 55.2839 478.072 49.6113 470.205 45.6372L470.142 45.606L470.141 45.605L469.495 45.2847L469.434 45.2544L469.372 45.2271Z" stroke-linecap="round"/>
      <path stroke-width="" stroke="" d="M471.037 41.5896C460.273 36.3675 443.866 32.1264 428.771 36.2195H428.598L426.797 36.8025C421.351 38.5644 416.54 41.3865 412.492 44.7332L411.692 45.4099L411.639 45.4558L411.637 45.4578L410.979 46.0379L410.916 46.0916L410.833 46.1697C407.086 49.5631 404.097 53.366 401.703 57.1218L401.679 57.157L401.656 57.1931L401.649 57.2039L401.641 57.2166L401.634 57.2283L401.458 57.5095L401.392 57.575L400.624 58.8748C398.164 63.0259 396.288 67.2719 394.799 71.3816C390.832 76.0402 388.446 81.2378 386.898 85.3445C385.013 90.3457 383.524 96.2831 382.72 99.0437L382.04 101.336L381.338 103.728L381.325 103.767L381.32 103.787L381.314 103.806L379.946 108.539L379.695 109.342C379.315 110.568 378.621 112.908 378.256 114.936C377.994 116.389 377.746 118.369 377.827 120.661C362.805 166.856 387.159 204.712 418.405 220.066C434.247 227.851 452.787 230.344 469.495 224.348C486.682 218.181 500.065 203.693 506.073 181.398C507.689 175.403 508.651 166.85 509.408 161.522L510.532 153.665L510.544 153.586C512.258 141.385 513.485 128.391 512.452 114.692V114.604L512.431 114.412L512.296 112.743L512.293 112.705C511.534 103.857 510.112 94.3027 507.035 84.8377L506.732 83.9226C503.871 75.4126 499.597 66.9928 493.493 59.5125L493.468 59.4802L493.441 59.448L493.312 59.2908L493.272 59.241L493.244 59.2088C487.669 52.4612 480.688 46.5524 472.528 42.3338L472.506 42.3123L471.917 42.0213L471.283 41.7068L471.222 41.6765L471.132 41.6306L471.037 41.5896Z" stroke-linecap="round"/>
      <path stroke-width="" stroke="" d="M472.682 37.942C461.554 32.5658 444.424 28.0344 428.258 32.2194H427.968L425.565 32.9967C419.96 34.8103 414.994 37.6376 410.776 40.9762L409.943 41.651L409.926 41.6647L409.908 41.6793L409.108 42.3561L409.087 42.3747L409.066 42.3932L408.909 42.5299L408.903 42.5358L408.378 42.9987L408.332 43.0377L408.251 43.1061L408.175 43.1793L408.147 43.2047L407.395 43.9001C403.718 47.3661 400.767 51.1635 398.392 54.8756L398.335 54.9586L398.308 55.0026L398.206 55.1042L397.949 55.5397L397.182 56.8356C394.704 61.0183 392.799 65.2655 391.283 69.3512C387.177 74.3547 384.721 79.7798 383.155 83.9342C381.198 89.1268 379.618 95.3871 378.879 97.9245L378.205 100.199L378.202 100.21L377.52 102.531L377.478 102.663L377.459 102.74L376.128 107.345L375.877 108.148L375.874 108.158C375.489 109.399 374.731 111.939 374.319 114.227L374.209 114.873C373.983 116.28 373.793 118.056 373.814 120.08C358.53 168.146 384.03 207.63 416.64 223.656C433.231 231.809 452.906 234.551 470.846 228.114C489.424 221.447 503.633 205.826 509.935 182.439C511.634 176.134 512.644 167.184 513.368 162.089L514.489 154.252L514.501 154.173L514.503 154.157L514.505 154.142C516.228 141.875 517.494 128.612 516.452 114.557V114.392L516.412 114.014L516.284 112.436L516.281 112.398L516.279 112.381L516.278 112.363C515.505 103.348 514.045 93.4634 510.839 83.6012L510.833 83.5817L510.53 82.6667L510.526 82.6569L510.523 82.6481C507.541 73.7782 503.067 64.9346 496.635 57.0368L496.609 57.0045L496.587 56.9762L496.563 56.9479L496.537 56.9157L496.534 56.9118L496.405 56.7545L496.335 56.6667L496.277 56.6002L496.262 56.5817C490.507 49.6359 483.314 43.5067 474.888 39.0543L474.827 38.9977L473.06 38.1237L472.935 38.0612L472.83 38.0075L472.721 37.9596L472.682 37.942Z" stroke-linecap="round"/>
      <path stroke-width="" stroke="" d="M474.345 34.3038C462.846 28.765 444.986 23.9444 427.763 28.2198H427.337L424.334 29.1914C418.228 31.167 412.845 34.2376 408.294 37.8399L408.276 37.8536L408.259 37.8682L407.456 38.5176L407.417 38.5489L407.365 38.5918L407.324 38.626L406.524 39.3028L406.51 39.3155L406.494 39.3291L406.472 39.3477L406.437 39.378L406.409 39.4034L406.284 39.5118L406.179 39.6026L406.169 39.6133L405.762 39.9707L405.739 39.9913L405.672 40.0489L405.572 40.1329L405.431 40.2676L404.679 40.9629L404.666 40.9766L404.652 40.9893C400.78 44.6393 397.68 48.6087 395.192 52.46L395.023 52.627L394.507 53.503L393.741 54.7969L393.257 55.628C390.992 59.5697 389.21 63.5331 387.767 67.3389C383.528 72.6662 381 78.3091 379.412 82.5235L379.036 83.5459C377.183 88.6999 375.68 94.5997 375.044 96.7881L374.37 99.0625L374.357 99.1045L374.347 99.1407L373.698 101.351L373.631 101.564L373.6 101.681L373.596 101.699L372.293 106.21L372.059 106.954L372.053 106.974C371.713 108.073 371.04 110.309 370.57 112.557L370.383 113.518L370.377 113.553L370.266 114.198L370.262 114.22L370.26 114.24C370.031 115.667 369.835 117.443 369.816 119.466C354.243 169.428 380.899 210.549 414.877 227.246C432.216 235.766 453.025 238.758 472.196 231.879C492.167 224.713 507.202 207.957 513.798 183.48C515.58 176.865 516.636 167.522 517.328 162.654L518.449 154.818L518.458 154.759L518.465 154.714L518.47 154.669L518.472 154.653C520.202 142.328 521.503 128.809 520.452 114.416V114.181L520.429 113.971L520.397 113.663L520.271 112.113L520.268 112.081L520.264 112.023L520.261 111.992C519.475 102.834 517.98 92.6492 514.661 82.419L514.648 82.3789L514.631 82.3252L514.29 81.295L514.281 81.2715C511.177 72.0752 506.513 62.8459 499.777 54.5616L499.752 54.5293L499.743 54.5186L499.72 54.4903L499.695 54.458L499.669 54.4258L499.628 54.376L499.523 54.2481L499.459 54.168L499.409 54.1055L499.356 54.045L499.299 53.9786C493.358 46.8211 485.944 40.4634 477.241 35.7774L477.13 35.6739L474.834 34.5381L474.724 34.4834L474.645 34.4434L474.541 34.3897L474.433 34.3428L474.345 34.3038Z" stroke-linecap="round"/>
      <path stroke-width="" stroke="" d="M475.998 30.66C464.121 24.9579 445.543 19.8605 427.29 24.2196H426.706L423.102 25.3856C416.501 27.5216 410.703 30.8333 405.821 34.6962L405.767 34.7382L405.743 34.7587L404.94 35.4081L404.918 35.4257L404.89 35.4481L404.862 35.4716L404.81 35.5145L404.74 35.5731L403.94 36.2499L403.922 36.2645L403.905 36.2802L403.89 36.2929L403.882 36.2987L403.879 36.3016L403.858 36.3202L403.828 36.3475L403.796 36.3729L403.767 36.4003L403.664 36.4901L403.66 36.493L403.45 36.6757L403.43 36.6952L403.139 36.9511L403.072 37.0087L402.994 37.0751L402.896 37.1571L402.693 37.3514L401.963 38.0263L401.907 38.079L401.87 38.1161C397.867 41.8956 394.658 45.9734 392.08 49.912L391.841 50.1473L391.578 50.5956L391.064 51.4667L390.298 52.7606L390.291 52.7714L389.8 53.6141L389.789 53.6356C387.516 57.5903 385.718 61.5486 384.254 65.3368C380.164 70.6103 377.625 76.0761 375.993 80.2675L375.669 81.1132L375.664 81.1278L375.658 81.1434L375.282 82.1659L375.272 82.1932C373.363 87.5018 371.782 93.6779 371.203 95.6708L370.541 97.9052L370.529 97.9472L370.511 98.0038L370.5 98.0438L369.882 100.148L369.785 100.459L369.757 100.563L369.729 100.675L368.457 105.075L368.243 105.758L368.235 105.781L368.228 105.805C367.922 106.794 367.337 108.733 366.855 110.828L366.655 111.738L366.649 111.765L366.644 111.791L366.456 112.752L366.446 112.806L366.437 112.86L366.434 112.879L366.327 113.505L366.313 113.579L366.302 113.654L366.301 113.663C366.074 115.095 365.878 116.844 365.829 118.828C349.949 170.704 377.768 213.467 413.113 230.836C431.199 239.723 453.143 242.965 473.547 235.644C494.912 227.978 510.77 210.088 517.66 184.52C519.526 177.595 520.629 167.862 521.289 163.218L522.409 155.385L522.413 155.36L522.419 155.316L522.425 155.273L522.431 155.231L522.755 152.861C524.331 141.081 525.445 128.102 524.452 114.281V113.968L524.407 113.546L524.382 113.303L524.255 111.753L524.251 111.702L524.244 111.619C523.442 102.309 521.912 91.8153 518.474 81.2098L518.461 81.1698L518.45 81.1347L518.432 81.0809L518.428 81.0692L518.087 80.0389L518.063 79.9638L518.044 79.913C514.819 70.3828 509.962 60.761 502.919 52.0858L502.894 52.0536L502.871 52.0253L502.863 52.0145L502.837 51.9823L502.79 51.9257L502.764 51.8934L502.756 51.8827L502.715 51.8329L502.575 51.66L502.538 51.6132L502.483 51.5448L502.425 51.4784L502.373 51.4179L502.349 51.3895C496.221 44.0138 488.58 37.4252 479.598 32.5067L479.426 32.3475L476.607 30.953L476.513 30.9061L476.474 30.8856L476.37 30.8319L476.256 30.7743L476.14 30.7235L476.058 30.6874L475.998 30.66Z" stroke-linecap="round"/>
      <path stroke-width="" stroke="" d="M477.671 27.0262C465.415 21.154 446.11 15.7776 426.835 20.2195H426.075L421.871 21.5799C414.778 23.8751 408.569 27.4245 403.357 31.5447L403.304 31.5867L403.248 31.6297L403.194 31.6756L403.179 31.6883L402.433 32.2918L402.407 32.3123L402.405 32.3143L402.372 32.3396L402.34 32.366L402.311 32.3894L402.306 32.3934L402.255 32.4363L402.25 32.4412L402.156 32.5193L401.388 33.1687L401.255 33.2693L401.174 33.3504L401.168 33.3553L401.106 33.4129L401.035 33.4744L400.72 33.7488L400.692 33.7762L400.508 33.9383L400.481 33.9607L400.421 34.0125L400.224 34.1775L400.131 34.2664L399.963 34.4275L399.247 35.0896L399.238 35.0984L399.181 35.1512L399.129 35.2L399.053 35.2762C394.941 39.1704 391.636 43.3406 388.975 47.3553L388.659 47.6687L388.393 48.1189L387.622 49.4295L386.896 50.6551L386.875 50.6893L386.836 50.7566L386.345 51.5994L385.878 52.4227C383.802 56.1304 382.127 59.8183 380.74 63.3475C376.808 68.5325 374.272 73.816 372.598 77.9754L372.265 78.8152L372.261 78.827L372.257 78.8396L371.95 79.6424L371.933 79.6824L371.919 79.7234L371.913 79.7391L371.903 79.7625L371.527 80.785L371.521 80.8025L371.514 80.8201L371.508 80.8396L371.143 81.8748C369.347 87.0737 367.863 92.8248 367.367 94.5359L366.713 96.7478L366.709 96.7615L366.691 96.8182L366.668 96.8924L366.651 96.9588L366.066 98.948L365.969 99.2586L365.939 99.3514L365.915 99.4461L365.888 99.5506L365.885 99.5643L365.881 99.577L365.865 99.6395L364.63 103.916L364.44 104.516L364.416 104.588L364.401 104.641C364.083 105.668 363.469 107.706 362.957 109.931L362.953 109.95L362.948 109.969L362.75 110.87L362.744 110.896L362.729 110.966L362.716 111.036L362.711 111.062L362.535 111.968L362.523 112.021L362.509 112.096L362.492 112.202L362.388 112.805L362.38 112.854L362.365 112.933L362.353 113.013L362.35 113.036L362.259 113.643C362.069 114.958 361.913 116.483 361.849 118.175C345.651 171.978 374.638 216.385 411.348 234.426C430.182 243.68 453.261 247.172 474.898 239.409C497.656 231.243 514.339 212.218 521.522 185.561C523.472 178.327 524.62 168.209 525.249 163.783L526.369 155.951L526.372 155.931L526.378 155.893L526.383 155.856L526.388 155.813L526.392 155.784L526.394 155.773L526.719 153.403L526.721 153.391C528.308 141.525 529.453 128.299 528.452 114.152V113.755L528.385 113.122L528.365 112.933L528.242 111.427L528.24 111.395L528.234 111.327L528.226 111.244C527.41 101.774 525.841 90.9643 522.279 79.9764L522.274 79.9607L522.265 79.9324L522.257 79.9051L522.245 79.8699L522.234 79.8367L522.23 79.826L522.227 79.8162L522.223 79.8045L521.886 78.782L521.868 78.7283L521.846 78.659L521.82 78.5906C518.468 68.6975 513.403 58.6528 506.025 49.5643L506.007 49.5398L505.989 49.5174L505.979 49.5066L505.95 49.4685L505.922 49.4344L505.921 49.4324L505.845 49.3396L505.804 49.2898L505.678 49.1355L505.674 49.1307L505.668 49.1219L505.661 49.1141L505.606 49.0457L505.556 48.9832L505.447 48.8572L505.442 48.8514L505.414 48.8182C499.096 41.2176 491.227 34.3945 481.963 29.2439L481.72 29.0193L481.2 28.7615L478.381 27.367L478.303 27.3279L478.198 27.2742L478.191 27.2703L478.183 27.2664L478.07 27.2088L477.966 27.1561L477.858 27.1092L477.753 27.0623L477.671 27.0262Z" stroke-linecap="round"/>
      <path stroke-width="" stroke="" d="M479.365 23.4017C466.727 17.3539 446.689 11.6959 426.396 16.2191H425.444L420.639 17.7738C413.055 20.228 406.435 24.0155 400.894 28.3929L400.84 28.4349L400.803 28.4633L400.725 28.5238L400.649 28.5883L400.633 28.601L399.924 29.1762L399.755 29.308L399.723 29.3392L399.7 29.3588L399.557 29.4769L399.549 29.4857L398.895 30.0385L398.851 30.0717L398.626 30.2416L398.416 30.4515L398.41 30.4564L397.99 30.8217L397.957 30.8549L397.882 30.9203L397.847 30.9506L397.65 31.1156L397.559 31.1928L397.472 31.2748L397.379 31.3637L397.371 31.3715L397.362 31.3793L397.224 31.5111L396.531 32.1527L396.512 32.1703L396.464 32.2162L396.411 32.265L396.355 32.3168L396.251 32.4213C392.027 36.4301 388.624 40.6966 385.878 44.7933L385.843 44.8275L385.476 45.1908L385.215 45.6361L384.949 46.0863L384.946 46.0892L384.174 47.3998L383.488 48.5609L383.45 48.6215L383.415 48.683L383.381 48.7426L382.888 49.5853L382.865 49.6263L382.398 50.4496L382.393 50.4594L382.387 50.4691C380.308 54.1838 378.621 57.8658 377.219 61.3803C373.453 66.4462 370.935 71.5382 369.228 75.6498L368.887 76.4818L368.883 76.4916L368.881 76.5013L368.568 77.2885L368.494 77.4662L368.472 77.5375L368.239 78.1498L368.2 78.2426L368.183 78.2924L368.178 78.3021L368.149 78.3822L367.773 79.4047L367.761 79.434L367.752 79.4623L367.739 79.4984L367.734 79.5121L367.37 80.5472L367.367 80.558L367.363 80.5687C365.531 85.8694 363.985 91.8297 363.531 93.4008L362.877 95.6127L362.817 95.8041L362.792 95.9086L362.243 97.7738L362.155 98.0541L362.125 98.1469L362.092 98.2494L362.066 98.3529L362.046 98.433L362.035 98.4769L362.026 98.5033L362.012 98.5599L362 98.6068L360.8 102.758L360.643 103.257L360.632 103.291L360.59 103.412L360.565 103.506C360.234 104.577 359.598 106.691 359.062 109.02L359.059 109.03L359.042 109.109L358.845 110.002L358.84 110.029L358.835 110.049L358.831 110.07L358.816 110.139L358.809 110.17L358.803 110.202L358.79 110.272L358.786 110.289L358.784 110.3L358.615 111.168L358.599 111.246L358.569 111.4L358.556 111.479L358.549 111.526L358.452 112.097L358.447 112.125L358.432 112.204L358.419 112.28L358.407 112.354L358.395 112.434V112.438L358.303 113.045L358.299 113.073C358.111 114.377 357.956 115.867 357.877 117.508C341.349 173.251 371.51 219.304 409.585 238.015C429.164 247.636 453.379 251.38 476.25 243.174C500.025 234.643 517.36 214.974 525.027 187.897L525.384 186.602C527.417 179.058 528.612 168.555 529.21 164.345L530.325 156.544L530.326 156.539L530.332 156.501L530.343 156.415L530.345 156.403L530.352 156.354L530.353 156.342L530.357 156.315L530.667 154.049L530.676 153.986L530.685 153.921C532.285 141.967 533.462 128.49 532.452 114.017V113.542L532.362 112.699L532.352 112.597L532.225 111.053L532.219 110.985L532.218 110.968L532.216 110.952L532.209 110.869C531.377 101.239 529.77 90.1123 526.085 78.7426L526.08 78.7279L526.074 78.7084L526.065 78.681L526.051 78.64L526.042 78.6088L526.022 78.5512L526.018 78.5375L526.008 78.5072L525.683 77.5267L525.67 77.4838L525.651 77.4262L525.625 77.3451L525.595 77.266C522.143 67.091 516.926 56.7092 509.311 47.2679L509.298 47.2416L509.077 46.972L509.049 46.9359L509.032 46.9164L509.012 46.8939L508.936 46.8012L508.932 46.7963L508.891 46.7465L508.85 46.6849L508.731 46.5472L508.685 46.4906L508.632 46.4242L508.577 46.3607L508.501 46.2728L508.486 46.2553L508.458 46.222C501.954 38.4076 493.866 31.3619 484.335 25.9887L484.012 25.6918L482.978 25.1781L482.973 25.1762L480.154 23.7816L480.132 23.7699L480.093 23.7494L480.08 23.7426L479.997 23.7006L479.883 23.6429L479.873 23.6381L479.668 23.5345L479.565 23.4896L479.483 23.4535L479.378 23.4066L479.365 23.4017Z" stroke-linecap="round"/>
      <path stroke-width="" stroke="" d="M480.973 19.7383C467.947 13.5282 447.224 7.62766 425.972 12.2188H424.813L419.408 13.9678C411.344 16.5772 404.322 20.5949 398.458 25.2207L398.403 25.2627L398.387 25.2744L398.372 25.2871L398.353 25.3018L398.275 25.3623L398.207 25.4151L398.141 25.4698L398.084 25.5176L397.437 26.042L397.1 26.3057L397.028 26.378L397.005 26.3975L396.861 26.5166L396.844 26.5332L396.391 26.917L395.995 27.2149L395.798 27.4131L395.688 27.5225L395.365 27.8037L395.26 27.8946L395.224 27.9307L395.06 28.0674L394.969 28.1446L394.889 28.2119L394.813 28.2842L394.726 28.3662L394.72 28.3721L394.666 28.4239L394.649 28.4385L394.606 28.4805L394.588 28.4971L394.579 28.5059L394.494 28.5879L393.814 29.2168L393.797 29.2325L393.773 29.2559L393.723 29.3018L393.693 29.3301L393.687 29.336L393.632 29.3877L393.578 29.4366L393.527 29.4883L393.469 29.5469C389.127 33.6721 385.621 38.0404 382.786 42.2256L382.663 42.3477L382.292 42.7139L381.77 43.6035L381.761 43.6172L381.758 43.6211L381.499 44.0596L380.731 45.3643L380.076 46.4727L380.064 46.4912L380.019 46.5635L379.977 46.6367L379.945 46.6924L379.911 46.752L379.434 47.5684L379.425 47.584L379.416 47.6006L379.392 47.6416L379.386 47.6533L378.927 48.4629L378.919 48.4766L378.867 48.5674L378.853 48.5948C376.789 52.291 375.105 55.9429 373.698 59.4219C370.101 64.3467 367.613 69.2448 365.88 73.2949L365.534 74.1162L365.53 74.125L365.527 74.1338L365.186 74.9659L365.179 74.9805L365.174 74.9961L365.103 75.1719L365.099 75.1856L364.877 75.7471L364.803 75.9248L364.723 76.1153L364.686 76.2383L364.518 76.6778L364.5 76.7159L364.479 76.7725L364.454 76.8321L364.422 76.9278L364.048 77.9483L364.011 78.0381L363.98 78.1299L363.978 78.1367L363.967 78.167L363.961 78.1846L363.549 79.3555L363.542 79.3809C361.694 84.7508 360.111 90.8188 359.695 92.2657L359.044 94.4698L358.96 94.7364L358.931 94.8565L358.405 96.6446L358.352 96.8135L358.322 96.9063L358.308 96.9473L358.243 97.1553L358.195 97.3487L358.178 97.3994L358.138 97.5616L356.979 101.576L356.843 102.008L356.802 102.129L356.762 102.247L356.721 102.396C356.381 103.501 355.746 105.622 355.196 107.987L355.186 108.02L355.154 108.162L355.135 108.25L354.943 109.123L354.923 109.211L354.917 109.243L354.908 109.284L354.901 109.315L354.888 109.374L354.878 109.433L354.877 109.439L354.864 109.497L354.857 109.536L354.692 110.384L354.675 110.472L354.644 110.625L354.631 110.695L354.62 110.766L354.607 110.845L354.606 110.852L354.513 111.397L354.499 111.476L354.497 111.489L354.483 111.564L354.474 111.609L354.468 111.655L354.456 111.73L354.452 111.752L354.449 111.774L354.437 111.855L354.425 111.942L354.348 112.447L354.345 112.464L354.344 112.48L354.341 112.502L354.194 113.605C354.073 114.603 353.975 115.682 353.909 116.831C337.044 174.524 368.382 222.224 407.82 241.605C428.145 251.592 453.495 255.588 477.6 246.939C502.747 237.916 520.904 217.139 528.876 188.986L528.88 188.974L528.883 188.961L529.24 187.666L529.244 187.654L529.247 187.643C531.363 179.79 532.602 168.91 533.17 164.91L534.285 157.11L534.291 157.075L534.295 157.042L534.299 157.011L534.303 156.984L534.306 156.957L534.313 156.908L534.317 156.881L534.318 156.88L534.329 156.798L534.331 156.781L534.63 154.594L534.636 154.56L534.639 154.526L534.648 154.462L534.65 154.451C536.261 142.408 537.47 128.684 536.452 113.888V113.33L536.34 112.275L536.334 112.214L536.212 110.726L536.205 110.616L536.194 110.524L536.191 110.493C535.345 100.715 533.703 89.2869 529.903 77.5498L529.894 77.5215L529.882 77.4844L529.88 77.4776L529.873 77.4571L529.867 77.4366L529.846 77.375L529.845 77.3701L529.83 77.3242L529.825 77.3096L529.815 77.2793L529.805 77.2481L529.48 76.2676L529.477 76.2578L529.459 76.2002L529.455 76.1885L529.428 76.1075L529.403 76.0313L529.376 75.9561C525.836 65.5322 520.491 54.8499 512.685 45.083L512.657 45.0303L512.172 44.4375L512.147 44.4063L512.104 44.3535L512.039 44.2578L511.875 44.0674L511.793 43.9727L511.764 43.9366L511.704 43.8604L511.639 43.7871L511.584 43.7237L511.532 43.6631L511.529 43.6592C504.836 35.618 496.52 28.3395 486.712 22.7393L486.303 22.3633L484.758 21.5957L484.613 21.5244L484.611 21.5225L481.984 20.2237L481.936 20.1983L481.886 20.1729L481.803 20.1309L481.697 20.0772L481.619 20.0381L481.602 20.0293L481.47 19.9639L481.373 19.9141L481.272 19.8711L481.002 19.751L480.973 19.7383Z" stroke-linecap="round"/>
    </g>
    <path fill="#080D12" d="M436.737 47.9233C440.975 47.4972 445.24 47.8789 449.089 48.4145C450.964 48.6732 452.829 49.0289 454.673 49.4819C458.367 50.3815 462.026 51.6524 465.5 53.35C472.401 56.7085 478.412 61.6648 483.232 67.5024L483.238 67.5082L483.269 67.5453C485.565 70.3347 487.581 73.3161 489.329 76.4496L489.332 76.4545L489.672 77.0736L489.678 77.0844L490.033 77.7485C491.55 80.636 492.836 83.6247 493.923 86.6645L494.412 88.0717L494.414 88.0766L494.667 88.8481L494.669 88.852C495.782 92.2747 496.652 95.7467 497.34 99.2318L497.625 100.727L497.626 100.735L497.946 102.566L497.947 102.573C498.665 106.883 499.147 111.215 499.478 115.522C500.492 128.747 499.181 141.494 497.328 154.147C496.39 160.548 495.043 170.868 493.59 177.664L493.506 178.072C492.403 183.375 491.169 188.658 489.813 193.899L489.786 194.001L489.784 194.004C486.009 208.539 481.33 222.814 476.251 236.848L475.716 238.328L475.709 238.321C470.769 251.675 462.654 269.498 455.15 282.933C454.104 285.101 452.908 287.173 451.539 289.114L450.854 290.084L450.836 290.067C449.911 291.285 448.896 292.443 447.799 293.522L447.8 293.523L447.792 293.531L447.785 293.539C445.095 296.166 442.035 298.275 438.903 300.013L438.915 300.025L437.713 300.657C432.253 303.53 426.418 305.472 420.746 307.008L420.186 307.16L420.182 307.156C400.62 312.404 380.174 313.663 360.485 314.577L360.487 314.579L358.224 314.683C329.069 316.031 299.891 316.304 270.78 316.278C241.668 316.304 212.929 316.031 183.775 314.683C163.206 313.748 141.734 312.588 121.252 307.007C115.583 305.472 109.751 303.531 104.293 300.66C100.748 298.805 97.2467 296.499 94.2153 293.539L94.1987 293.523C92.8192 292.165 91.5666 290.683 90.4614 289.112C89.0875 287.165 87.8837 285.086 86.8354 282.91C79.2988 269.412 71.146 251.494 66.2153 238.126L65.7475 236.846C60.6572 222.78 55.9672 208.471 52.188 193.902L52.1557 193.779V193.772C50.8138 188.576 49.5904 183.34 48.4966 178.082L48.2192 176.768C46.8385 169.987 45.5695 160.272 44.6723 154.147C42.8187 141.494 41.5079 128.747 42.522 115.522C42.8998 110.6 43.4745 105.645 44.3755 100.726C45.1534 96.4738 46.1876 92.2338 47.5893 88.0707C48.8529 84.3119 50.4095 80.6187 52.3208 77.0844L52.3559 77.019L52.3618 77.0102C54.1611 73.7055 56.2556 70.5665 58.6567 67.6371L58.6606 67.6303L58.7329 67.5434C63.5588 61.6879 69.5814 56.7165 76.4995 53.35C79.972 51.6526 83.6327 50.3815 87.3257 49.4819L88.0181 49.3168C89.6362 48.9417 91.2692 48.6408 92.9097 48.4145H92.9165L94.3716 48.2231L94.3794 48.2221C97.8278 47.7967 101.554 47.5505 105.262 47.9233H105.275L105.327 47.9281C107.323 48.1371 109.296 48.555 111.2 49.1703C114.918 50.3732 118.307 52.3369 121.234 54.7582L121.813 55.2485L121.821 55.2553L122.438 55.8012L122.447 55.809L122.99 56.3119C125.497 58.6836 127.609 61.3842 129.393 64.1977L129.771 64.8022L129.774 64.808L130.186 65.4897L130.191 65.4975C132.6 69.5626 134.39 73.8801 135.81 78.2152C136.304 78.6923 136.729 79.1703 137.233 79.8246L137.68 80.4233C139.888 83.4847 141.696 87.5564 143.128 91.3656C144.685 95.5037 145.933 99.7134 146.813 102.724L147.509 105.068V105.07C147.74 105.853 147.969 106.636 148.198 107.418L148.199 107.421L149.555 112.115L149.556 112.118C149.958 113.525 150.588 115.94 150.955 117.891L151.094 118.695L151.095 118.704L151.152 119.087L151.153 119.096L151.155 119.104L151.166 119.186L151.168 119.209L151.177 119.315V119.318C151.255 120.291 151.122 121.281 150.944 122.075C150.932 122.127 150.918 122.179 150.906 122.231C152.971 125.536 155.314 128.591 158.012 131.223L158.506 131.695C159.667 132.781 160.877 133.766 162.14 134.616L162.669 134.962C163.882 135.735 165.133 136.393 166.41 136.91C169.086 137.937 171.877 138.495 174.71 138.538H174.749L174.772 138.538C206.914 139.286 238.641 139.677 270.79 139.696C302.942 139.677 335.091 139.286 367.235 138.538L367.254 138.538H367.291C370.13 138.495 372.926 137.935 375.608 136.903C377.065 136.312 378.49 135.535 379.861 134.616L380.399 134.244C381.648 133.355 382.844 132.336 383.991 131.22C386.687 128.589 389.028 125.536 391.092 122.232C391.08 122.179 391.067 122.127 391.055 122.075C390.876 121.28 390.745 120.29 390.823 119.318L390.829 119.245L390.831 119.209L390.835 119.174L390.847 119.092C391.127 117.038 391.957 113.825 392.445 112.118C393.341 108.988 394.252 105.855 395.185 102.729C396.065 99.718 397.315 95.5057 398.872 91.3656C400.401 87.2998 402.358 82.935 404.772 79.8188L405.18 79.3051C405.517 78.8976 405.836 78.556 406.189 78.2143C407.609 73.8792 409.4 69.5632 411.809 65.4985C414.011 61.7849 416.754 58.2061 420.19 55.2465C423.244 52.6013 426.834 50.4541 430.798 49.1713L431.516 48.9496C433.197 48.4545 434.927 48.111 436.674 47.9281L436.726 47.9233H436.737Z"/>
    <path fill="#080D12" d="M448.27 286.807C449.359 285.019 450.477 283.096 451.61 281.07C450.636 283.106 449.526 285.027 448.27 286.807Z"/>
    <path fill="#080D12" d="M93.7299 286.807C92.6405 285.019 91.5225 283.096 90.3897 281.07C91.3635 283.106 92.4734 285.027 93.7299 286.807Z"/>
    <path fill="#080D12" d="M444.99 290.677C446.2 289.487 447.3 288.187 448.27 286.807C449.359 285.019 450.477 283.096 451.61 281.07C459.302 267.315 467.68 248.805 472.49 235.487C477.554 221.493 482.202 207.309 485.94 192.897C487.28 187.717 488.5 182.497 489.59 177.257C491.04 170.657 492.39 160.257 493.37 153.567C495.21 141.007 496.47 128.607 495.49 115.827C495.12 111.007 494.56 106.197 493.69 101.447C492.94 97.3474 491.95 93.2974 490.62 89.3474C489.42 85.7774 487.95 82.2974 486.16 78.9874C484.45 75.8374 482.46 72.8574 480.18 70.0874C475.68 64.6274 470.1 60.0374 463.75 56.9474C460.56 55.3874 457.17 54.2074 453.72 53.3674C452.01 52.9474 450.28 52.6174 448.54 52.3774C444.785 51.8548 440.872 51.521 437.09 51.9074C435.37 52.0874 433.67 52.4474 432.03 52.9774C428.63 54.0774 425.5 55.9374 422.8 58.2774C419.77 60.8874 417.29 64.0974 415.25 67.5374C412.85 71.5874 411.08 75.9674 409.67 80.4574C408.92 81.0974 408.536 81.4866 407.936 82.2666C403.876 87.5066 400.78 97.8474 399.02 103.867C398.091 106.978 397.183 110.097 396.29 113.217C395.806 114.91 395.047 117.889 394.81 119.637C394.739 120.522 395.046 121.894 395.497 122.684C393.076 126.82 390.218 130.734 386.78 134.087C385.33 135.497 383.77 136.807 382.09 137.937C380.51 138.997 378.83 139.917 377.07 140.627C373.96 141.827 370.69 142.487 367.35 142.537C335.168 143.286 302.981 143.679 270.79 143.697C238.599 143.679 206.832 143.286 174.65 142.537C171.31 142.487 168.04 141.827 164.93 140.627C163.17 139.917 161.49 138.997 159.91 137.937C158.23 136.807 156.67 135.497 155.22 134.087C151.782 130.734 148.924 126.82 146.502 122.684C146.954 121.894 147.261 120.522 147.19 119.637C146.953 117.889 146.193 114.91 145.71 113.217C144.816 110.097 143.908 106.978 142.98 103.867C141.22 97.8474 138.124 87.5066 134.064 82.2666C133.464 81.4866 133.08 81.0974 132.33 80.4574C130.92 75.9674 129.15 71.5874 126.75 67.5374C124.71 64.0974 122.23 60.8874 119.2 58.2774C116.5 55.9374 113.37 54.0774 109.97 52.9774C108.33 52.4474 106.63 52.0874 104.91 51.9074C101.128 51.521 97.2144 51.8548 93.4599 52.3774C91.7199 52.6174 89.9899 52.9474 88.2799 53.3674C84.8299 54.2074 81.4399 55.3874 78.2499 56.9474C71.8999 60.0374 66.3199 64.6274 61.8199 70.0874C59.5399 72.8574 57.5499 75.8374 55.8399 78.9874C54.0499 82.2974 52.5799 85.7774 51.3799 89.3474C50.0499 93.2974 49.0599 97.3474 48.3099 101.447C47.4399 106.197 46.8799 111.007 46.5099 115.827C45.5299 128.607 46.7899 141.007 48.6299 153.567C49.6099 160.257 50.9599 170.657 52.4099 177.257C53.4999 182.497 54.7199 187.717 56.0599 192.897C59.7983 207.309 64.4456 221.493 69.5099 235.487C74.32 248.805 82.6984 267.315 90.3897 281.07C91.5225 283.096 92.6405 285.019 93.7299 286.807C94.6999 288.187 95.7999 289.487 97.0099 290.677C99.689 293.293 102.842 295.387 106.15 297.117C111.242 299.798 116.762 301.648 122.3 303.147C142.297 308.596 163.346 309.75 183.96 310.687C213.023 312.031 241.69 312.304 270.78 312.277C299.87 312.304 328.977 312.031 358.04 310.687C378.653 309.75 399.703 308.596 419.7 303.147C425.238 301.648 430.758 299.798 435.85 297.117C439.158 295.387 442.311 293.293 444.99 290.677Z"/>
    <path stroke="white" d="M448.27 286.807C447.3 288.187 446.2 289.487 444.99 290.677C438.181 297.326 428.698 300.71 419.7 303.147C399.703 308.596 378.653 309.75 358.04 310.687C328.977 312.031 299.87 312.304 270.78 312.277C241.69 312.304 213.023 312.031 183.96 310.687C163.346 309.75 142.297 308.596 122.3 303.147C111.833 300.313 100.232 296.058 93.7299 286.807M448.27 286.807C449.359 285.019 450.477 283.096 451.61 281.07M448.27 286.807C449.526 285.027 450.636 283.106 451.61 281.07M451.61 281.07C469.537 249.008 482.112 213.206 489.59 177.257C491.04 170.657 492.39 160.257 493.37 153.567C495.21 141.007 496.47 128.607 495.49 115.827C494.518 103.169 492.262 90.2703 486.16 78.9873C484.45 75.8373 482.46 72.8573 480.18 70.0873C475.68 64.6273 470.1 60.0373 463.75 56.9473C454.621 52.4829 441.916 49.7825 432.03 52.9773C428.63 54.0773 425.5 55.9373 422.8 58.2773C419.77 60.8873 417.29 64.0973 415.25 67.5373C412.85 71.5873 411.08 75.9673 409.67 80.4573C403.34 85.8593 401.241 96.2717 399.02 103.867C398.091 106.978 397.183 110.097 396.29 113.217C395.483 116.042 393.882 119.858 395.497 122.684C391.18 130.058 385.213 137.342 377.07 140.627C373.96 141.827 370.69 142.487 367.35 142.537C335.168 143.286 302.981 143.679 270.79 143.697C238.599 143.679 206.832 143.286 174.65 142.537C171.31 142.487 168.04 141.827 164.93 140.627C161.276 139.153 158.033 136.823 155.22 134.087C151.782 130.734 148.924 126.82 146.502 122.684C148.117 119.858 146.517 116.042 145.71 113.217C144.816 110.097 143.908 106.978 142.98 103.867C140.759 96.2717 138.66 85.8593 132.33 80.4573C130.92 75.9673 129.15 71.5873 126.75 67.5373C124.71 64.0973 122.23 60.8873 119.2 58.2773C116.5 55.9373 113.37 54.0773 109.97 52.9773C100.084 49.7825 87.3791 52.4829 78.2499 56.9473C71.8999 60.0373 66.3199 64.6273 61.8199 70.0873C57.1363 75.7776 53.7227 82.3775 51.3799 89.3473C48.5065 97.8811 47.1971 106.876 46.5099 115.827C45.5299 128.607 46.7899 141.007 48.6299 153.567C49.6099 160.257 50.9599 170.657 52.4099 177.257C59.8878 213.206 72.4626 249.008 90.3897 281.07M93.7299 286.807C92.6405 285.019 91.5225 283.096 90.3897 281.07M93.7299 286.807C92.4734 285.027 91.3635 283.106 90.3897 281.07" stroke-linecap="round"/>
    <path stroke="white" d="M146.59 121.658C146.32 122.136 146.32 123.001 145.24 123.358C144.71 123.648 143.96 122.948 143.66 122.668C143.41 122.428 143.16 122.178 142.93 121.918C140.539 119.086 138.67 115.824 136.75 112.668C135.13 110.008 133.52 107.338 131.92 104.668C129.992 101.453 128.089 98.2136 126.42 94.8577C124.605 91.2011 122.763 86.9755 123.03 82.7977C123.09 81.8677 123.28 80.9477 123.72 80.1277C124.07 79.4777 124.59 78.8977 125.29 78.6177C125.939 78.354 126.65 78.2482 127.34 78.2877M146.59 121.658C146.804 119.972 146.764 119.631 146.59 118.351C146.48 117.541 146.2 116.748 146.01 115.948C145.176 112.612 144.096 109.342 143.15 106.038C140.951 98.1655 136.97 87.013 131.89 80.4577M146.59 121.658C146.59 122.387 146.559 122.836 146.32 123.358C145.357 125.457 142.286 126.669 140.78 125.028C139.919 124.052 139.138 123.007 138.41 121.928C137.93 121.248 137.49 120.558 137.04 119.868C134.282 115.583 131.552 111.284 128.66 107.088C126.339 103.725 123.956 100.434 121.79 96.9877C120.282 94.602 118.865 92.0911 118.01 89.3877C117.52 87.8277 117.21 86.1977 117.3 84.5677C117.38 83.2277 117.73 81.8977 118.43 80.7577C118.75 80.2477 119.14 79.7777 119.6 79.3877C120.09 78.9777 120.65 78.6677 121.26 78.4777C121.85 78.2977 122.794 78.1196 123.414 78.1896C124.083 78.1696 125.434 78.0418 127.34 78.2877M131.89 80.4577C133.63 82.7477 134.968 85.1015 136.088 87.7215M131.89 80.4577C130.719 79.4561 128.909 78.3521 127.34 78.2877M169.87 162.218C170.08 163.028 170.13 163.878 169.97 164.688C169.82 165.498 169.46 166.268 168.95 166.918C168.4 167.618 167.69 168.168 166.9 168.588C163.66 170.298 159.73 168.728 157.2 166.798C152.654 163.295 149.57 158.111 146.58 153.328M169.87 162.218C170.505 163.921 170.111 166.212 169.81 167.558C169.589 168.202 169.43 168.688 169.06 169.158C168.115 170.356 166.604 171.064 165.15 171.418C163.45 171.848 161.65 171.858 159.93 171.498C158.2 171.128 156.56 170.378 155.1 169.378M169.87 162.218C169.297 160.069 167.779 158.251 166.32 156.638C164.187 154.244 161.846 152.042 159.68 149.678C157.045 146.799 154.616 143.753 152.36 140.568C150.74 138.268 149.22 135.908 147.64 133.588C146.046 131.254 143.943 127.591 140.81 127.238M140.81 127.238C137.04 126.718 134.22 126.998 133.2 129.488C131.731 132.793 132.458 136.95 133.69 140.198C135.068 143.862 137.307 147.179 139.55 150.358C141.5 153.111 143.476 155.834 145.47 158.568C148.283 162.432 151.115 166.631 155.11 169.378M140.81 127.238C140.232 127.158 139.641 127.227 139.1 127.448C138.204 127.791 137.982 128.682 137.771 129.524L137.77 129.528C137.463 130.976 137.54 132.446 137.76 133.898C138.818 140.927 142.851 147.369 146.564 153.302M105.66 260.788C105.39 260.708 105.11 260.658 104.84 260.628C104.39 260.578 103.96 260.598 103.51 260.708C102.399 261.002 101.439 261.747 100.86 262.738C100.64 263.248 100.265 264.167 100.055 265.215C99.8599 267.667 99.936 268.659 100.29 271.438C100.35 272.148 100.42 272.858 100.5 273.568C100.71 275.468 101.02 277.348 101.41 279.228C101.46 279.498 101.52 279.778 101.58 280.048C101.779 280.943 102.025 281.833 102.33 282.698C102.48 283.168 102.64 283.628 102.82 284.078C103.39 285.528 104.07 286.968 104.92 288.278C105.66 289.418 106.53 290.488 107.53 291.428C108.52 292.358 109.63 293.148 110.81 293.828C112.311 294.701 113.928 295.374 115.54 296.008C120.273 297.897 125.225 299.298 130.21 300.338C135.95 301.54 141.813 302.276 147.66 302.708C150.26 302.898 152.87 302.888 155.46 302.558C157.67 302.278 159.85 301.768 161.89 300.908C163.7 300.148 165.39 299.128 166.84 297.808C168.261 296.509 169.583 294.673 170.45 292.978C171.976 289.774 172.517 286.334 172.58 282.808M105.66 260.788C105.89 260.858 106.12 260.928 106.35 260.998M105.66 260.788L106.35 260.998M172.6 268.968C172.6 269.208 172.6 269.458 172.6 269.698M172.6 268.968C172.6 267.199 172.666 265.377 172.02 263.698C171.652 262.724 171.049 261.802 170.22 261.158C169.893 260.899 169.544 260.698 169.13 260.548C168.692 260.353 168.201 260.348 167.73 260.348C167.471 260.361 167.206 260.395 166.95 260.438C164.344 260.91 161.712 261.32 159.09 261.688C157.412 261.927 155.726 262.15 154.04 262.328C150.952 262.653 147.867 262.995 144.77 263.228C143.844 263.308 142.901 263.428 141.97 263.428C141.07 263.495 140.158 263.552 139.24 263.588C136.969 263.762 134.693 263.721 132.42 263.848C128.009 263.848 123.461 264.034 119.08 263.408C118.284 263.333 117.488 263.211 116.69 263.158C115.064 262.995 113.456 262.694 111.85 262.388C111.47 262.312 111.12 262.24 110.74 262.158C110.12 262.018 109.48 261.868 108.86 261.708C108.72 261.678 108.57 261.638 108.43 261.598C107.73 261.418 107.04 261.218 106.35 260.998M172.6 268.968V269.698M172.58 281.928C172.58 282.228 172.58 282.508 172.58 282.808M172.58 281.928C172.58 281.075 172.581 280.221 172.582 279.368M172.58 281.928V282.808M172.6 269.698C172.6 270.278 172.59 270.858 172.59 271.438C172.59 274.081 172.585 276.725 172.582 279.368M84.9203 258.178C73.7003 239.678 65.3603 220.348 58.6503 199.858C54.5903 187.538 51.5603 174.908 49.3503 162.138M84.9203 258.178C84.5989 240.71 84.7003 220.926 94.6904 205.738C95.8504 203.968 97.1503 202.288 98.6003 200.748C100.02 199.238 101.6 197.868 103.3 196.678C106.72 194.288 110.64 192.658 114.69 191.598C123.005 189.413 133.013 188.766 141.45 190.818C144.32 191.518 147.1 192.598 149.65 194.088C151.79 195.338 153.76 196.858 155.6 198.508C158.79 201.378 161.644 204.594 164.62 207.678C169.984 213.259 175.704 218.681 182.04 223.148C184.59 224.938 187.3 226.518 190.23 227.518C193.02 228.478 196.02 228.908 198.95 228.938H343.049C345.979 228.908 348.979 228.478 351.769 227.518C354.699 226.518 357.409 224.938 359.959 223.148C366.296 218.681 372.016 213.259 377.379 207.678C380.356 204.594 383.21 201.378 386.399 198.508C388.239 196.858 390.209 195.338 392.349 194.088C394.899 192.598 397.679 191.518 400.549 190.818C408.987 188.766 418.995 189.413 427.309 191.598C431.359 192.658 435.279 194.288 438.699 196.678C440.399 197.868 441.979 199.238 443.399 200.748C444.849 202.288 446.149 203.968 447.309 205.738C457.299 220.926 457.401 240.71 457.079 258.178M84.9203 258.178L84.9207 258.18C86.1301 266.378 88.0176 279.173 93.1442 286.612M257.61 281.838C257.85 284.378 260.01 286.318 262.56 286.278H279.439C281.989 286.318 284.149 284.378 284.389 281.838M257.61 281.838C257.214 277.64 259.82 275.828 262.42 275.818H279.579C282.179 275.828 284.786 277.64 284.389 281.838M257.61 281.838C257.61 281.838 181.559 283.567 172.582 279.368M172.58 279.368L172.582 279.368M146.58 153.328L146.564 153.302M146.58 153.328C146.575 153.319 146.57 153.31 146.564 153.302M395.409 121.658C395.68 122.136 395.68 123.001 396.759 123.358C397.289 123.648 398.039 122.948 398.339 122.668C398.589 122.428 398.839 122.178 399.069 121.918C401.461 119.086 403.33 115.824 405.249 112.668C406.869 110.008 408.479 107.338 410.079 104.668C412.008 101.453 413.911 98.2136 415.579 94.8577C417.394 91.2011 419.237 86.9755 418.969 82.7977C418.909 81.8677 418.719 80.9477 418.279 80.1277C417.929 79.4777 417.409 78.8977 416.709 78.6177C416.06 78.354 415.35 78.2482 414.659 78.2877M395.409 121.658C395.196 119.972 395.236 119.631 395.409 118.351C395.519 117.541 395.799 116.748 395.989 115.948C396.823 112.612 397.903 109.342 398.849 106.038C401.049 98.1655 405.03 87.013 410.109 80.4577M395.409 121.658C395.409 122.387 395.441 122.836 395.68 123.358C396.643 125.457 399.714 126.669 401.219 125.028C402.08 124.052 402.862 123.007 403.589 121.928C404.069 121.248 404.509 120.558 404.959 119.868C407.718 115.583 410.448 111.284 413.339 107.088C415.66 103.725 418.044 100.434 420.209 96.9877C421.718 94.602 423.134 92.0911 423.989 89.3877C424.479 87.8277 424.789 86.1977 424.699 84.5677C424.619 83.2277 424.269 81.8977 423.569 80.7577C423.249 80.2477 422.859 79.7777 422.399 79.3877C421.909 78.9777 421.349 78.6677 420.739 78.4777C420.149 78.2977 419.206 78.1196 418.586 78.1896C417.917 78.1696 416.566 78.0418 414.659 78.2877M410.109 80.4577C408.369 82.7477 407.031 85.1015 405.911 87.7215M410.109 80.4577C411.281 79.4561 413.091 78.3521 414.659 78.2877M372.129 162.218C371.919 163.028 371.869 163.878 372.029 164.688C372.179 165.498 372.539 166.268 373.049 166.918C373.599 167.618 374.309 168.168 375.099 168.588C378.339 170.298 382.269 168.728 384.799 166.798C389.345 163.295 392.43 158.111 395.419 153.328M372.129 162.218C371.494 163.921 371.889 166.212 372.189 167.558C372.411 168.202 372.569 168.688 372.939 169.158C373.885 170.356 375.396 171.064 376.849 171.418C378.549 171.848 380.349 171.858 382.069 171.498C383.799 171.128 385.439 170.378 386.899 169.378M372.129 162.218C372.702 160.069 374.221 158.251 375.679 156.638C377.813 154.244 380.153 152.042 382.319 149.678C384.955 146.799 387.384 143.753 389.639 140.568C391.259 138.268 392.779 135.908 394.359 133.588C395.954 131.254 398.056 127.591 401.189 127.238M401.189 127.238C404.959 126.718 407.779 126.998 408.799 129.488C410.268 132.793 409.541 136.95 408.309 140.198C406.932 143.862 404.692 147.179 402.449 150.358C400.5 153.111 398.524 155.834 396.529 158.568C393.717 162.432 390.885 166.631 386.889 169.378M401.189 127.238C401.768 127.158 402.358 127.227 402.899 127.448C403.795 127.791 404.018 128.682 404.228 129.524L404.229 129.528C404.537 130.976 404.46 132.446 404.239 133.898C403.181 140.927 399.149 147.369 395.436 153.302M436.339 260.788C436.609 260.708 436.889 260.658 437.159 260.628C437.609 260.578 438.039 260.598 438.489 260.708C439.6 261.002 440.561 261.747 441.139 262.738C441.359 263.248 441.735 264.167 441.945 265.215C442.14 267.667 442.064 268.659 441.709 271.438C441.649 272.148 441.579 272.858 441.499 273.568C441.289 275.468 440.979 277.348 440.589 279.228C440.539 279.498 440.479 279.778 440.419 280.048C440.22 280.943 439.975 281.833 439.669 282.698C439.519 283.168 439.359 283.628 439.179 284.078C438.609 285.528 437.929 286.968 437.079 288.278C436.339 289.418 435.469 290.488 434.469 291.428C433.479 292.358 432.369 293.148 431.189 293.828C429.689 294.701 428.072 295.374 426.459 296.008C421.727 297.897 416.775 299.298 411.789 300.338C406.05 301.54 400.187 302.276 394.339 302.708C391.739 302.898 389.129 302.888 386.539 302.558C384.329 302.278 382.149 301.768 380.109 300.908C378.299 300.148 376.609 299.128 375.159 297.808C373.739 296.509 372.417 294.673 371.549 292.978C370.024 289.774 369.483 286.334 369.419 282.808M436.339 260.788C436.109 260.858 435.879 260.928 435.649 260.998M436.339 260.788L435.649 260.998M369.399 268.968C369.399 269.208 369.399 269.458 369.399 269.698M369.399 268.968C369.399 267.199 369.333 265.377 369.979 263.698C370.348 262.724 370.951 261.802 371.779 261.158C372.106 260.899 372.456 260.698 372.869 260.548C373.308 260.353 373.799 260.348 374.269 260.348C374.529 260.361 374.794 260.395 375.049 260.438C377.656 260.91 380.288 261.32 382.909 261.688C384.587 261.927 386.274 262.15 387.959 262.328C391.047 262.653 394.132 262.995 397.229 263.228C398.155 263.308 399.099 263.428 400.029 263.428C400.93 263.495 401.842 263.552 402.759 263.588C405.031 263.762 407.306 263.721 409.579 263.848C413.991 263.848 418.539 264.034 422.919 263.408C423.716 263.333 424.512 263.211 425.309 263.158C426.936 262.995 428.544 262.694 430.149 262.388C430.53 262.312 430.88 262.24 431.259 262.158C431.879 262.018 432.519 261.868 433.139 261.708C433.279 261.678 433.429 261.638 433.569 261.598C434.269 261.418 434.959 261.218 435.649 260.998M369.399 268.968V269.698M369.419 281.928C369.419 282.228 369.419 282.508 369.419 282.808M369.419 281.928C369.419 281.075 369.419 280.221 369.418 279.368M369.419 281.928V282.808M369.399 269.698C369.399 270.278 369.409 270.858 369.409 271.438C369.409 274.081 369.415 276.725 369.418 279.368M457.079 258.178C468.299 239.678 476.639 220.348 483.349 199.858C487.409 187.538 490.439 174.908 492.649 162.138M457.079 258.178L457.079 258.18C455.87 266.378 453.982 279.173 448.856 286.612M284.389 281.838C284.389 281.838 360.441 283.567 369.418 279.368M369.419 279.368L369.418 279.368M395.419 153.328L395.436 153.302M395.419 153.328C395.425 153.319 395.43 153.31 395.436 153.302M133.12 259.218C134.2 259.178 135.31 259.138 136.38 259.088C146.64 258.608 156.78 257.528 166.91 255.858C169.39 255.448 170.93 254.398 172.14 252.198C172.862 250.935 173.13 249.486 172.94 248.048C172.394 241.434 171.294 234.805 169.12 228.518C168.22 225.898 167.12 223.338 165.79 220.908C164.51 218.578 163.01 216.358 161.28 214.338C159.63 212.408 157.76 210.648 155.73 209.128C153.61 207.538 151.3 206.208 148.88 205.118C146.41 204.008 143.82 203.158 141.18 202.508C132.42 200.928 124.47 201.788 124.47 201.788C122.24 201.988 120.03 202.408 117.92 203.158C115.86 203.898 113.89 204.938 112.16 206.278C110.5 207.558 109.07 209.118 107.85 210.818C106.48 212.748 105.4 214.858 104.51 217.048C104.51 217.048 101.87 223.738 101.41 226.558C101.32 227.038 101.24 227.498 101.16 227.978C99.9803 234.868 99.6403 241.748 99.5703 248.708C99.5303 249.798 99.6904 250.818 100.05 251.848C100.54 253.147 101.207 254.37 102.23 255.328C103.262 256.296 104.549 256.912 105.9 257.288C114.64 259.664 124.118 259.539 133.12 259.218ZM408.879 259.218C407.799 259.178 406.689 259.138 405.619 259.088C395.359 258.608 385.219 257.528 375.089 255.858C372.609 255.448 371.069 254.398 369.859 252.198C369.138 250.935 368.87 249.486 369.059 248.048C369.606 241.434 370.706 234.805 372.879 228.518C373.779 225.898 374.879 223.338 376.209 220.908C377.489 218.578 378.989 216.358 380.719 214.338C382.369 212.408 384.239 210.648 386.269 209.128C388.389 207.538 390.699 206.208 393.119 205.118C395.589 204.008 398.179 203.158 400.819 202.508C409.579 200.928 417.529 201.788 417.529 201.788C419.759 201.988 421.969 202.408 424.079 203.158C426.139 203.898 428.109 204.938 429.839 206.278C431.499 207.558 432.929 209.118 434.149 210.818C435.519 212.748 436.599 214.858 437.489 217.048C437.489 217.048 440.129 223.738 440.589 226.558C440.679 227.038 440.759 227.498 440.839 227.978C442.019 234.868 442.359 241.748 442.429 248.708C442.469 249.798 442.309 250.818 441.949 251.848C441.46 253.147 440.792 254.37 439.769 255.328C438.738 256.296 437.451 256.912 436.099 257.288C427.359 259.664 417.882 259.539 408.879 259.218Z"/>
    <path stroke="" d="M85.9268 85.1748L103.469 157.16" stroke-width="10" stroke-linecap="round"/>
    <path stroke="" d="M456.073 85.1748L438.531 157.16" stroke-width="10" stroke-linecap="round"/>
  </g>
  <defs>
    <clipPath id="">
      <rect fill="white" width="542" height="316"/>
    </clipPath>
  </defs>
</svg>
