<?xml version="1.0"?>
<svg xmlns="http://www.w3.org/2000/svg" viewBox="0 0 36 36" fill="none">
  <g clip-path="">
    <path fill="currentColor" d="M5.625 31.0429C0.0351562 31.0429 0.0351562 24.75 0.0351562 24.75C0.0351562 23.2708 0.691018 18.9574 1.67867 14.9078C2.09604 21.229 4.23237 26.4107 7.46967 30.1342C6.94663 30.6907 6.34611 31.0429 5.625 31.0429Z"/>
    <path fill="currentColor" fill-rule="evenodd" clip-rule="evenodd" d="M8.16687 29.2194C4.59849 25.0137 2.43205 18.8213 2.76162 11.0707C3.47054 8.93505 4.26138 7.27235 5.0625 6.76752C8.1706 5.06632 27.6869 4.8903 31.0078 6.76752C31.7909 7.26099 32.5642 8.86083 33.2607 10.9273C33.6225 18.7277 31.4618 24.9603 27.8856 29.1914C27.4035 28.4325 26.984 27.5272 26.5768 26.6483C25.7189 24.7967 24.9154 23.0625 23.6953 23.0625H12.375C11.1549 23.0625 10.3514 24.7967 9.49349 26.6483C9.08125 27.538 8.65647 28.4548 8.16687 29.2194ZM18 12.9375C18.7766 12.9375 19.4062 12.3079 19.4062 11.5312C19.4062 10.7546 18.7766 10.125 18 10.125C17.2234 10.125 16.5938 10.7546 16.5938 11.5312C16.5938 12.3079 17.2234 12.9375 18 12.9375ZM22.5 15.75C22.5 16.3713 21.9963 16.875 21.375 16.875C20.7537 16.875 20.25 16.3713 20.25 15.75C20.25 15.1286 20.7537 14.625 21.375 14.625C21.9963 14.625 22.5 15.1286 22.5 15.75ZM15.75 18.8437C15.75 19.931 14.8686 20.8125 13.7812 20.8125C12.6939 20.8125 11.8125 19.931 11.8125 18.8437C11.8125 17.7564 12.6939 16.875 13.7812 16.875C14.8686 16.875 15.75 17.7564 15.75 18.8437ZM24.75 18C24.75 18.6213 24.2463 19.125 23.625 19.125C23.0037 19.125 22.5 18.6213 22.5 18C22.5 17.3786 23.0037 16.875 23.625 16.875C24.2463 16.875 24.75 17.3786 24.75 18ZM21.375 21.375C21.9963 21.375 22.5 20.8713 22.5 20.25C22.5 19.6286 21.9963 19.125 21.375 19.125C20.7537 19.125 20.25 19.6286 20.25 20.25C20.25 20.8713 20.7537 21.375 21.375 21.375ZM20.25 18C20.25 18.6213 19.7463 19.125 19.125 19.125C18.5037 19.125 18 18.6213 18 18C18 17.3786 18.5037 16.875 19.125 16.875C19.7463 16.875 20.25 17.3786 20.25 18ZM13.5 12.375C13.5 14.8602 11.4853 16.875 9 16.875C6.51472 16.875 4.5 14.8602 4.5 12.375C4.5 9.88969 6.51472 7.87497 9 7.87497C11.4853 7.87497 13.5 9.88969 13.5 12.375ZM27 16.875C29.4853 16.875 31.5 14.8602 31.5 12.375C31.5 9.88969 29.4853 7.87497 27 7.87497C24.5147 7.87497 22.5 9.88969 22.5 12.375C22.5 14.8602 24.5147 16.875 27 16.875Z"/>
    <path fill="currentColor" d="M28.5791 30.1112C29.1072 30.6809 29.7143 31.0429 30.4453 31.0429C36.0352 31.0429 36.0352 24.75 36.0352 24.75C36.0352 23.2544 35.3647 18.8614 34.3587 14.7732C33.9637 21.1424 31.8281 26.3629 28.5791 30.1112Z"/>
  </g>
  <defs>
    <clipPath id="">
      <rect fill="currentColor" width="36" height="36"/>
    </clipPath>
  </defs>
</svg>
