<?xml version="1.0"?>
<svg width="59px" height="59px" viewBox="0 0 59 59" fill="none" xmlns="http://www.w3.org/2000/svg">
  <path fill-rule="evenodd" clip-rule="evenodd" d="M57.9907 30.2382L57.9932 30.1318L23.3635 58.4652L23.159 58.2152L23.0596 58.295C9.86456 55.3567 0 43.5804 0 29.5C0 13.2076 13.2076 0 29.5 0C45.7683 0 58.9609 13.1684 59 29.4275L57.9907 30.2382ZM57.9886 28.6833C52.956 26.4605 41.9077 24.7254 31.9404 33.2687C22.1502 41.6604 21.6264 52.0873 22.7598 57.1984C10.2728 54.1704 1 42.9181 1 29.5C1 13.7599 13.7599 1 29.5 1C44.967 1 57.5563 13.3209 57.9886 28.6833ZM57.2445 29.4523L23.7148 56.8857C22.676 52.0493 23.1845 42.0909 32.5912 34.028C41.9759 25.984 52.3311 27.4183 57.2445 29.4523Z" fill=""/>
</svg>
