<?xml version="1.0"?>
<svg xmlns="http://www.w3.org/2000/svg" viewBox="0 0 80 50" fill="none">
  <path fill="currentColor" fill-rule="evenodd" clip-rule="evenodd" d="M23.2213 0C17.4482 0.00172977 11.8873 2.17351 7.64545 6.08314C3.40358 9.99277 0.791694 15.3536 0.32959 21.0987L12.6419 26.1835C13.7181 25.445 14.9936 25.0504 16.2994 25.0519H16.6621L22.1382 17.1305V17.0399C22.1382 15.329 22.6464 13.6564 23.5985 12.2338C24.5506 10.8112 25.9039 9.70245 27.4872 9.0477C29.0705 8.39295 30.8128 8.22163 32.4936 8.55542C34.1745 8.88921 35.7184 9.71311 36.9303 10.9229C38.1421 12.1328 38.9673 13.6742 39.3017 15.3522C39.636 17.0303 39.4644 18.7697 38.8086 20.3504C38.1528 21.9311 37.0421 23.2822 35.6172 24.2327C34.1922 25.1833 32.517 25.6907 30.8032 25.6907H30.6218L22.8132 31.2533V31.5601C22.8098 33.1681 22.2087 34.7177 21.1265 35.9087C20.0443 37.0998 18.5579 37.8475 16.9551 38.0071C15.3524 38.1668 13.7473 37.7269 12.4507 36.7729C11.1541 35.8188 10.2583 34.4183 9.93666 32.8426L1.1306 29.2063C2.29301 33.3131 4.58013 37.0146 7.7347 39.8946C10.8893 42.7746 14.7862 44.7187 18.987 45.5082C23.1879 46.2978 27.5261 45.9015 31.5138 44.364C35.5014 42.8264 38.9802 40.2086 41.5589 36.805C44.1376 33.4013 45.7139 29.3468 46.1105 25.0976C46.5071 20.8484 45.7083 16.5729 43.8039 12.7522C41.8995 8.9315 38.9651 5.71705 35.3307 3.47042C31.6963 1.2238 27.5061 0.034119 23.2314 0.0352101L23.2213 0ZM14.7278 34.804L11.9016 33.6371C12.3115 34.4904 12.9613 35.2061 13.7719 35.6969C14.5824 36.1876 15.5185 36.4321 16.4659 36.4006C17.4133 36.369 18.331 36.0628 19.107 35.5193C19.8829 34.9757 20.4836 34.2184 20.8357 33.3397C21.1877 32.461 21.2759 31.499 21.0895 30.5712C20.903 29.6433 20.45 28.7897 19.7858 28.1145C19.1215 27.4394 18.2747 26.9719 17.3488 26.7692C16.4229 26.5665 15.4579 26.6373 14.5716 26.973L17.4885 28.1801C18.3439 28.5615 19.0162 29.2614 19.362 30.1307C19.7079 30.9999 19.6998 31.9696 19.3397 32.833C18.9796 33.6964 18.2958 34.3852 17.4343 34.7524C16.5727 35.1197 15.6015 35.1364 14.7278 34.7989V34.804ZM35.606 13.8365C36.2398 14.785 36.5776 15.8999 36.5766 17.04C36.5726 18.567 35.9629 20.0302 34.8809 21.1095C33.7989 22.1887 32.3327 22.7962 30.8032 22.7988C29.6612 22.7988 28.5448 22.4606 27.5953 21.8271C26.6457 21.1935 25.9058 20.293 25.4689 19.2396C25.0321 18.1861 24.9181 17.0269 25.1413 15.9087C25.3644 14.7905 25.9148 13.7635 26.7227 12.9576C27.5306 12.1517 28.5598 11.6032 29.68 11.3814C30.8003 11.1595 31.9612 11.2744 33.0161 11.7114C34.0709 12.1484 34.9723 12.888 35.606 13.8365ZM27.2044 14.6328C26.7283 15.3456 26.4748 16.1834 26.4758 17.04C26.4771 18.1877 26.9347 19.2878 27.748 20.0988C28.5613 20.9099 29.6638 21.3654 30.8133 21.3654C31.6714 21.3654 32.5102 21.1113 33.2237 20.6353C33.9371 20.1592 34.493 19.4826 34.8212 18.691C35.1493 17.8995 35.2349 17.0285 35.0672 16.1883C34.8994 15.3482 34.4858 14.5766 33.8786 13.9712C33.2715 13.3658 32.4982 12.9537 31.6565 12.7872C30.8147 12.6207 29.9424 12.7072 29.1499 13.0357C28.3574 13.3642 27.6804 13.92 27.2044 14.6328Z"/>
  <path fill="#4AD4FF" d="M31.635 45.874C31.5218 45.874 31.4969 45.716 31.6033 45.6773C40.8922 42.2999 47.5266 33.3932 47.5266 22.937C47.5266 12.4808 40.8922 3.57411 31.6033 0.196722C31.4969 0.15803 31.5218 0 31.635 0C44.3028 0 54.5721 10.2692 54.5721 22.937C54.5721 35.6048 44.3028 45.874 31.635 45.874Z"/>
  <path fill="#4AD4FF" d="M39.9974 45.874C39.8841 45.874 39.8592 45.716 39.9656 45.6773C49.2545 42.2999 55.8889 33.3932 55.8889 22.937C55.8889 12.4808 49.2545 3.57411 39.9656 0.196722C39.8592 0.15803 39.8841 0 39.9974 0C52.6651 0 62.9344 10.2692 62.9344 22.937C62.9344 35.6048 52.6651 45.874 39.9974 45.874Z"/>
</svg>
