<?xml version="1.0"?>
<svg version="1.1" id="Layer_3_copy" xmlns="http://www.w3.org/2000/svg" x="0px" y="0px" viewBox="0 0 256 256">
  <g id="Layer_3_copy">
    <g id="g4768_1_" transform="translate(-6.9308024,-10)">
      <g id="g4763_1_"/>
    </g>
    <path d="M206.3,36.6c-19.4,0-35.8,14.1-40.3,33H24.8c-6,0-10.8,4.8-10.8,10.8s4.8,10.8,10.8,10.8h141.3
				c4.7,18.6,20.9,32.4,40.2,32.4c22.9,0,41.5-19.5,41.5-43.5C247.9,56.2,229.2,36.6,206.3,36.6z M206.3,109.7
				c-15.2,0-27.5-13.2-27.5-29.5c0-16.3,12.4-29.5,27.5-29.5s27.5,13.2,27.5,29.5C233.9,96.4,221.5,109.7,206.3,109.7z"/>
    <path d="M230.4,157.3H107.9c-4.6-14.6-18.3-25.2-34.3-25.2s-29.7,10.6-34.3,25.2H24.8c-6,0-10.8,4.8-10.8,10.8
				S18.9,179,24.8,179h14.3c4.6,14.6,18.3,25.2,34.3,25.2s29.7-10.6,34.3-25.2h122.5c6,0,10.8-4.8,10.8-10.8S236.4,157.3,230.4,157.3z
				M73.5,189.8c-8,0-14.9-4.3-18.7-10.8l0,0c-0.7-1.2-1.3-2.4-1.7-3.7c0,0,0-0.1,0-0.1c-0.1-0.4-0.2-0.8-0.4-1.2c0-0.1,0-0.1,0-0.2
				c-0.2-0.8-0.4-1.7-0.5-2.6c0-0.1,0-0.2,0-0.3c0-0.3-0.1-0.7-0.1-1c0-0.1,0-0.2,0-0.4c0-0.4,0-0.9,0-1.3s0-0.9,0-1.3
				c0-0.1,0-0.2,0-0.4c0-0.3,0.1-0.7,0.1-1c0-0.1,0-0.2,0-0.3c0.1-0.9,0.3-1.8,0.5-2.6c0-0.1,0-0.1,0-0.2c0.1-0.4,0.2-0.8,0.4-1.2
				c0,0,0-0.1,0-0.1c0.5-1.3,1-2.6,1.7-3.7c3.7-6.4,10.7-10.8,18.7-10.8c8,0,14.9,4.3,18.7,10.8c0.7,1.2,1.3,2.4,1.7,3.7
				c0,0,0,0.1,0,0.1c0.1,0.4,0.3,0.8,0.4,1.2c0,0.1,0,0.1,0,0.2c0.2,0.8,0.4,1.7,0.5,2.6c0,0.1,0,0.2,0,0.3c0,0.3,0.1,0.7,0.1,1
				c0,0.1,0,0.2,0,0.4c0,0.4,0,0.9,0,1.3s0,0.9,0,1.3c0,0.1,0,0.2,0,0.4c0,0.3-0.1,0.7-0.1,1c0,0.1,0,0.2,0,0.3
				c-0.1,0.9-0.3,1.8-0.5,2.6c0,0.1,0,0.1,0,0.2c-0.1,0.4-0.2,0.8-0.4,1.2c0,0,0,0.1,0,0.1c-0.5,1.3-1,2.6-1.7,3.7l0,0
				C88.5,185.4,81.5,189.8,73.5,189.8z"/>
  </g>
</svg>
