<?xml version="1.0"?>
<svg version="1.1" xmlns="http://www.w3.org/2000/svg" viewBox="0 0 36 36" fill="none">
  <g clip-path="">
    <path d="M6.469 17.281a.825.825 0 0 0 0 1.375l6.267 4.148a.825.825 0 0 0 1.28-.688v-8.294a.825.825 0 0 0-1.28-.688L6.47 17.28Z"/>
    <rect width="6.91" height="2.734" rx="0.825" transform="matrix(-1 0 0 1 19.263 16.65)"/>
    <path d="M7.634 10.385h22.652c.602 0 1.16-.324 1.46-.848a1.705 1.705 0 0 0 0-1.697 1.685 1.685 0 0 0-1.46-.848H7.634c-.603 0-1.16.323-1.46.848a1.705 1.705 0 0 0 0 1.697c.3.524.857.848 1.46.848Zm15.168 9.33h7.484c.602 0 1.16-.324 1.46-.849a1.705 1.705 0 0 0 0-1.696 1.685 1.685 0 0 0-1.46-.848h-7.484c-.603 0-1.16.323-1.461.848a1.705 1.705 0 0 0 0 1.696c.301.525.858.848 1.46.848ZM7.634 29.043h22.652c.602 0 1.16-.323 1.46-.848a1.705 1.705 0 0 0 0-1.697 1.685 1.685 0 0 0-1.46-.848H7.634c-.603 0-1.16.323-1.46.848a1.705 1.705 0 0 0 0 1.697c.3.524.857.848 1.46.848Z"/>
  </g>
  <defs>
    <clipPath id="">
      <path transform="translate(.701)" d="M0 0h36v36H0z"/>
    </clipPath>
  </defs>
</svg>
