<?xml version="1.0"?>
<svg width="432" height="315" viewBox="0 0 432 315" fill="none" xmlns="http://www.w3.org/2000/svg">
  <g clip-path="">
    <path d="M425.32 190.33C402.85 67.52 380.06 29 369.26 19.29C358.46 9.57996 312.72 6.05996 293.48 4.62996C259.79 2.12996 216.48 1.99996 216.48 1.99996C216.48 1.99996 173.16 1.87997 139.48 4.18997C120.23 5.50997 74.48 8.80997 63.62 18.41C52.76 28.01 29.79 66.41 6.57002 189.13C-16.65 311.85 56.73 312 56.73 312C56.73 312 90.41 315.71 107.39 271.23C126.28 221.75 135.22 217.16 161.7 217.23L208.63 217.37H215.85H223.07L270.01 217.51C296.48 217.58 305.4 222.22 324.01 271.81C340.73 316.39 374.44 312.87 374.44 312.87C374.44 312.87 447.85 313.15 425.32 190.33Z" stroke="white" stroke-width="4" stroke-miterlimit="10"/>
    <path d="M333.97 139.34C363.214 139.34 386.92 115.633 386.92 86.3899C386.92 57.1465 363.214 33.4399 333.97 33.4399C304.727 33.4399 281.02 57.1465 281.02 86.3899C281.02 115.633 304.727 139.34 333.97 139.34Z" fill="#1A9FFF" stroke="white" stroke-width="3" stroke-miterlimit="10"/>
    <path d="M99.41 139.34C128.654 139.34 152.36 115.633 152.36 86.3899C152.36 57.1465 128.654 33.4399 99.41 33.4399C70.1665 33.4399 46.46 57.1465 46.46 86.3899C46.46 115.633 70.1665 139.34 99.41 139.34Z" stroke="white" stroke-width="3" stroke-miterlimit="10"/>
    <path d="M136.14 77.7901H108.02V49.6701C108.02 47.3865 107.113 45.1966 105.498 43.5819C103.884 41.9672 101.694 41.0601 99.41 41.0601C97.1265 41.0601 94.9365 41.9672 93.3218 43.5819C91.7071 45.1966 90.8 47.3865 90.8 49.6701V77.7901H62.68C60.4486 77.8661 58.334 78.8061 56.7823 80.4115C55.2307 82.0169 54.3634 84.1624 54.3634 86.3951C54.3634 88.6278 55.2307 90.7732 56.7823 92.3786C58.334 93.9841 60.4486 94.924 62.68 95.0001H90.85V123.12C90.85 125.404 91.7571 127.594 93.3718 129.208C94.9865 130.823 97.1765 131.73 99.46 131.73C101.744 131.73 103.933 130.823 105.548 129.208C107.163 127.594 108.07 125.404 108.07 123.12V95.0001H136.19C137.345 95.0394 138.496 94.846 139.574 94.4313C140.652 94.0166 141.636 93.389 142.467 92.5861C143.298 91.7832 143.958 90.8212 144.41 89.7576C144.861 88.694 145.093 87.5504 145.093 86.3951C145.093 85.2397 144.861 84.0961 144.41 83.0325C143.958 81.9689 143.298 81.0069 142.467 80.204C141.636 79.4011 140.652 78.7736 139.574 78.3588C138.496 77.9441 137.345 77.7507 136.19 77.7901H136.14Z" stroke="white" stroke-miterlimit="10"/>
    <path d="M214.43 62.51C210.087 62.5135 205.905 64.151 202.715 67.0969C199.524 70.0429 197.559 74.0815 197.21 78.41L206.47 82.23C207.286 81.6814 208.246 81.3857 209.23 81.38H209.5L213.62 75.38V75.3C213.618 74.0096 213.999 72.7477 214.715 71.6739C215.43 70.6002 216.448 69.763 217.64 69.2682C218.832 68.7735 220.144 68.6435 221.41 68.8948C222.675 69.1461 223.838 69.7672 224.75 70.6797C225.663 71.5921 226.284 72.7548 226.535 74.0205C226.786 75.2861 226.656 76.5979 226.162 77.7897C225.667 78.9815 224.83 79.9997 223.756 80.7153C222.682 81.431 221.42 81.812 220.13 81.81H219.99L214.11 86C214.115 86.0766 214.115 86.1534 214.11 86.23C214.127 87.4517 213.686 88.6356 212.874 89.5485C212.062 90.4615 210.938 91.0374 209.722 91.1628C208.507 91.2882 207.289 90.9541 206.307 90.2262C205.326 89.4984 204.653 88.4295 204.42 87.23L197.85 84.5C198.728 87.5922 200.451 90.3782 202.826 92.5449C205.2 94.7115 208.132 96.1728 211.292 96.7646C214.451 97.3564 217.713 97.0552 220.711 95.8948C223.708 94.7344 226.323 92.7609 228.261 90.1961C230.198 87.6312 231.382 84.5768 231.679 81.3761C231.976 78.1754 231.374 74.9553 229.941 72.0778C228.509 69.2003 226.302 66.7795 223.568 65.0875C220.835 63.3956 217.684 62.4995 214.47 62.5L214.43 62.51Z" fill="white"/>
    <path d="M208.04 88.7299L205.92 87.8499C206.227 88.4913 206.714 89.0295 207.322 89.3987C207.929 89.7678 208.631 89.952 209.342 89.9286C210.053 89.9053 210.741 89.6755 211.323 89.2672C211.905 88.859 212.356 88.29 212.62 87.6299C212.884 86.9697 212.95 86.2469 212.81 85.5498C212.67 84.8527 212.33 84.2115 211.832 83.7045C211.333 83.1975 210.698 82.8467 210.003 82.6949C209.308 82.5432 208.585 82.597 207.92 82.8499L210.11 83.7599C210.438 83.8965 210.737 84.0964 210.988 84.3482C211.239 84.6 211.438 84.8988 211.573 85.2275C211.709 85.5563 211.778 85.9085 211.778 86.264C211.777 86.6196 211.707 86.9716 211.57 87.2999C211.433 87.6282 211.234 87.9264 210.982 88.1774C210.73 88.4285 210.431 88.6275 210.102 88.7631C209.774 88.8986 209.421 88.9681 209.066 88.9676C208.71 88.9671 208.358 88.8965 208.03 88.7599L208.04 88.7299Z" fill="white"/>
    <path d="M224.48 75.34C224.482 74.4792 224.229 73.6372 223.752 72.9205C223.275 72.2039 222.596 71.6448 221.802 71.314C221.007 70.9832 220.132 70.8956 219.288 71.0624C218.443 71.2291 217.667 71.6426 217.058 72.2505C216.448 72.8585 216.033 73.6336 215.864 74.4777C215.696 75.3218 215.781 76.1969 216.11 76.9923C216.439 77.7878 216.997 78.4678 217.712 78.9462C218.428 79.4246 219.269 79.68 220.13 79.68C220.701 79.6813 221.266 79.57 221.794 79.3525C222.322 79.135 222.801 78.8155 223.205 78.4124C223.609 78.0092 223.93 77.5304 224.149 77.0031C224.367 76.4759 224.48 75.9108 224.48 75.34V75.34ZM216.88 75.34C216.88 74.6952 217.071 74.0649 217.429 73.5288C217.788 72.9927 218.297 72.5749 218.892 72.3281C219.488 72.0814 220.144 72.0168 220.776 72.1426C221.408 72.2684 221.989 72.5789 222.445 73.0348C222.901 73.4907 223.212 74.0716 223.337 74.704C223.463 75.3364 223.399 75.9919 223.152 76.5875C222.905 77.1832 222.487 77.6924 221.951 78.0506C221.415 78.4088 220.785 78.6 220.14 78.6C219.709 78.604 219.281 78.5222 218.881 78.3596C218.481 78.1969 218.118 77.9565 217.812 77.6523C217.506 77.3481 217.263 76.9862 217.098 76.5876C216.933 76.1889 216.849 75.7615 216.85 75.33L216.88 75.34Z" fill="white"/>
    <path d="M258.06 80.51H243.79C240.752 80.51 238.29 82.9724 238.29 86.01V88.25C238.29 91.2876 240.752 93.75 243.79 93.75H258.06C261.098 93.75 263.56 91.2876 263.56 88.25V86.01C263.56 82.9724 261.098 80.51 258.06 80.51Z" stroke="white" stroke-miterlimit="10"/>
    <path d="M185.25 80.51H170.98C167.942 80.51 165.48 82.9724 165.48 86.01V88.25C165.48 91.2876 167.942 93.75 170.98 93.75H185.25C188.288 93.75 190.75 91.2876 190.75 88.25V86.01C190.75 82.9724 188.288 80.51 185.25 80.51Z" stroke="white" stroke-miterlimit="10"/>
    <path d="M262.96 140.39C269.604 140.39 274.99 135.004 274.99 128.36C274.99 121.716 269.604 116.33 262.96 116.33C256.316 116.33 250.93 121.716 250.93 128.36C250.93 135.004 256.316 140.39 262.96 140.39Z" stroke="white" stroke-width="2" stroke-miterlimit="10"/>
    <path d="M238.89 164.46C245.534 164.46 250.92 159.074 250.92 152.43C250.92 145.786 245.534 140.4 238.89 140.4C232.246 140.4 226.86 145.786 226.86 152.43C226.86 159.074 232.246 164.46 238.89 164.46Z" stroke="white" stroke-width="2" stroke-miterlimit="10"/>
    <path d="M288.23 164.46C294.874 164.46 300.26 159.074 300.26 152.43C300.26 145.786 294.874 140.4 288.23 140.4C281.586 140.4 276.2 145.786 276.2 152.43C276.2 159.074 281.586 164.46 288.23 164.46Z" stroke="white" stroke-width="2" stroke-miterlimit="10"/>
    <path d="M288.23 164.46C294.874 164.46 300.26 159.074 300.26 152.43C300.26 145.786 294.874 140.4 288.23 140.4C281.586 140.4 276.2 145.786 276.2 152.43C276.2 159.074 281.586 164.46 288.23 164.46Z" stroke="white" stroke-width="2" stroke-miterlimit="10"/>
    <path d="M262.96 189.73C269.604 189.73 274.99 184.344 274.99 177.7C274.99 171.056 269.604 165.67 262.96 165.67C256.316 165.67 250.93 171.056 250.93 177.7C250.93 184.344 256.316 189.73 262.96 189.73Z" stroke="white" stroke-width="2" stroke-miterlimit="10"/>
    <path d="M27.38 98.78C20.7 122.2 13.67 151.98 6.63001 189.73C-16.23 312.48 57.18 312.48 57.18 312.48C57.18 312.48 73.46 314.22 89.05 300.32C44.04 232 31.09 144.83 27.38 98.78Z" stroke="white" stroke-width="2" stroke-miterlimit="10"/>
    <path d="M405.66 98.78C412.34 122.2 419.37 151.98 426.4 189.73C449.27 312.48 375.85 312.48 375.85 312.48C375.85 312.48 359.56 314.22 343.98 300.32C388.99 232 401.94 144.83 405.66 98.78Z" stroke="white" stroke-width="2" stroke-miterlimit="10"/>
    <path d="M368.85 18.85C358.02 9.22 312.28 5.78 293.03 4.41C259.34 2 216.03 2 216.03 2C216.03 2 172.7 2 139.03 4.41C119.78 5.78 74.03 9.22 63.21 18.85C58.66 22.9 51.97 32.06 44.05 50.45C51.22 41.72 65.48 29.35 90.89 24.86C120.8 19.59 184.12 18.86 216.05 18.77C247.98 18.68 311.29 19.59 341.2 24.86C366.61 29.35 380.87 41.72 388.04 50.45C380.1 32.06 373.41 22.9 368.85 18.85Z" stroke="white" stroke-width="2" stroke-miterlimit="10"/>
    <path d="M167.89 195.75C187.165 195.75 202.79 180.125 202.79 160.85C202.79 141.575 187.165 125.95 167.89 125.95C148.615 125.95 132.99 141.575 132.99 160.85C132.99 180.125 148.615 195.75 167.89 195.75Z" stroke="white" stroke-miterlimit="10"/>
    <path d="M167.89 186.12C181.846 186.12 193.16 174.806 193.16 160.85C193.16 146.894 181.846 135.58 167.89 135.58C153.934 135.58 142.62 146.894 142.62 160.85C142.62 174.806 153.934 186.12 167.89 186.12Z" stroke="white" stroke-width="3" stroke-miterlimit="10"/>
    <path d="M248.85 87.1299V84.1299L251.73 85.6299L254.6 87.1299L251.73 88.6299L248.85 90.1299V87.1299Z" fill="white"/>
    <path d="M180.85 87.1299V84.1299L177.97 85.6299L175.09 87.1299L177.97 88.6299L180.85 90.1299V87.1299Z" fill="white"/>
    <path d="M335 102C344.941 102 353 93.9411 353 84C353 74.0589 344.941 66 335 66C325.059 66 317 74.0589 317 84C317 93.9411 325.059 102 335 102Z" fill="white" stroke="white" stroke-width="2" stroke-miterlimit="10"/>
  </g>
  <defs>
    <clipPath id="">
      <rect width="431.82" height="315" fill="white"/>
    </clipPath>
  </defs>
</svg>
