<?xml version="1.0"?>
<svg viewBox="0 0 36 36" fill="none" xmlns="http://www.w3.org/2000/svg">
  <g clip-path="">
    <path fill="currentColor" fill-rule="evenodd" d="m20.581 23.05-5.842-2.454v3.975l4.461 1.846a3.296 3.296 0 0 0 6.528-.649v-.155l3.956-2.824h.1a4.391 4.391 0 1 0-4.388-4.39v.056l-2.775 4.023h-.184c-.662-.001-1.309.198-1.856.572Zm12.128-4.764a2.926 2.926 0 1 0-5.852 0 2.926 2.926 0 0 0 5.852 0Zm-5.106 0a2.198 2.198 0 1 1 2.198 2.198 2.202 2.202 0 0 1-2.21-2.203l.012.005ZM20.21 26.72l1.43.59a1.821 1.821 0 0 0 1.4-3.363l-1.477-.61a2.474 2.474 0 1 1-1.353 3.383Z" clip-rule="evenodd"/>
    <g clip-path="">
      <path fill="currentColor" d="m3.426 12.83.48-1.159a6.27 6.27 0 0 1 8.195-3.39l7.53 3.123-2.162 5.213-4.733-3.32-1.681 4.054 1.737.72-3.123 7.53a3.136 3.136 0 0 1-4.097 1.696 3.135 3.135 0 0 1-1.695-4.098L7 15.67l1.738.721 1.768-4.263c-3.235-2.02-7.08.703-7.08.703Z"/>
    </g>
    <path fill="currentColor" d="m12.469 23.578 1.458-3.38 5.582 2.407-1.458 3.38z"/>
  </g>
  <defs>
    <clipPath id="">
      <path fill="currentColor" d="M.79 0h36v36h-36z"/>
    </clipPath>
    <clipPath id="">
      <path fill="currentColor" d="m3.326 3.25 20.852 8.648L15.53 32.75l-20.852-8.648z"/>
    </clipPath>
  </defs>
</svg>
