<?xml version="1.0"?>
<svg xmlns="http://www.w3.org/2000/svg" viewBox="0 0 36 36" fill="none">
  <path d="M26 34.05H9.99997C9.99997 31.9283 10.8428 29.8935 12.3431 28.3932C13.8434 26.8929 15.8782 26.05 18 26.05C20.1217 26.05 22.1565 26.8929 23.6568 28.3932C25.1571 29.8935 26 31.9283 26 34.05ZM18 14.05C17.11 14.05 16.2399 14.314 15.4999 14.8084C14.7599 15.3029 14.1831 16.0057 13.8425 16.828C13.5019 17.6502 13.4128 18.555 13.5864 19.428C13.7601 20.3009 14.1887 21.1027 14.818 21.732C15.4473 22.3614 16.2491 22.7899 17.1221 22.9636C17.995 23.1372 18.8998 23.0481 19.722 22.7075C20.5443 22.3669 21.2471 21.7901 21.7416 21.0501C22.236 20.3101 22.5 19.4401 22.5 18.55C22.5013 17.9587 22.3858 17.373 22.1601 16.8264C21.9344 16.2799 21.603 15.7833 21.1849 15.3651C20.7668 14.947 20.2702 14.6156 19.7236 14.3899C19.177 14.1642 18.5913 14.0487 18 14.05ZM14.51 10.81L18 9.00005L21.49 10.84L20.83 6.94005L23.65 4.19005L19.75 3.62005L18 0.0500488L16.25 3.59005L12.35 4.16005L15.17 6.91005L14.51 10.81ZM28 7.88005L25.32 10.88C27.4916 12.8271 28.801 15.5568 28.9604 18.4691C29.1198 21.3813 28.1161 24.2377 26.17 26.41L29.17 29.08C30.4868 27.612 31.5012 25.8987 32.1552 24.0382C32.8092 22.1777 33.0899 20.2065 32.9812 18.2374C32.8725 16.2683 32.3766 14.34 31.5219 12.5627C30.6672 10.7855 29.4704 9.19425 28 7.88005ZM10.64 10.88L7.99997 7.88005C5.03633 10.5336 3.24813 14.2558 3.02872 18.2277C2.8093 22.1997 4.17664 26.0962 6.82997 29.06L9.82997 26.39C7.88383 24.2177 6.88011 21.3613 7.03951 18.4491C7.19891 15.5368 8.50837 12.8071 10.68 10.86L10.64 10.88Z" fill="currentColor"/>
</svg>
