<?xml version="1.0"?>
<svg xmlns="http://www.w3.org/2000/svg" viewBox="0 0 95.833 32">
  <path fill="currentColor" d="M88.067,18.142c-1.037,0.352-2.262,0.727-3.669,1.127
				c-2.823,0.799-5.164,1.352-7.022,1.656c-1.833,0.284-4.18,0.494-7.05,0.634c-0.916,0.048-1.824,0.086-2.714,0.108h-1.06
				c-0.023-0.117-0.082-0.283-0.176-0.496c-0.213-0.398-0.544-0.763-0.988-1.093c-0.399-0.329-0.905-0.564-1.516-0.704
				c-0.165-0.047-0.34-0.068-0.531-0.068l-19.816-0.11c-0.095,0.029-0.201,0.072-0.317,0.143c-0.048,0.024-0.095,0.083-0.142,0.174
				l-0.037,0.105l-0.458,2.19c-0.332,1.549-0.576,2.608-0.742,3.173c-0.024,0.071-0.059,0.165-0.106,0.279
				c-0.071,0.117-0.125,0.201-0.176,0.249c-0.117,0.095-0.339,0.166-0.671,0.209l-0.493,0.074c-0.306-0.024-0.634-0.035-0.989-0.035
				c-0.705-0.028-1.173-0.06-1.409-0.107c-0.095-0.022-0.174-0.072-0.248-0.141c-0.095-0.072-0.154-0.153-0.175-0.249
				c0-0.184,0.127-0.454,0.388-0.809c0.023-0.023,0.199-0.222,0.528-0.598c0.238-0.306,0.458-0.602,0.667-0.885
				c0.379-0.542,0.589-0.951,0.635-1.233c0.024-0.187,0.024-0.507,0-0.955l-0.033-0.631c-0.095,0.021-0.165,0.021-0.212,0
				c-0.143-0.19-0.305-0.39-0.491-0.603c-0.328-0.422-0.624-0.739-0.882-0.948c-0.378-0.309-0.746-0.542-1.098-0.708
				c-0.632-0.285-1.326-0.413-2.077-0.387c-0.726,0.048-1.391,0.292-1.972,0.738c-0.636,0.444-1.106,1.061-1.415,1.833
				c-0.257,0.682-0.458,1.188-0.6,1.52c-0.09,0.161-0.153,0.27-0.177,0.313c-0.023,0.049-0.065,0.085-0.139,0.107
				c-0.117,0.095-0.226,0.13-0.313,0.108c-0.119,0-0.27-0.099-0.464-0.283c-0.234-0.262-0.456-0.589-0.667-0.987
				c-0.167-0.284-0.284-0.497-0.354-0.638c-0.143-0.258-0.27-0.484-0.387-0.671c-0.354-0.469-0.813-0.86-1.377-1.164
				c-0.634-0.327-1.222-0.527-1.762-0.596c-0.682-0.073-1.292,0.08-1.833,0.456c-0.378,0.235-0.85,0.564-1.411,0.99
				c-0.4,0.304-0.659,0.481-0.775,0.526c-0.165,0.047-0.34,0.057-0.53,0.035c-0.115-0.024-0.316-0.104-0.599-0.248
				c-0.354-0.138-0.728-0.257-1.128-0.353c-0.608-0.139-1.199-0.185-1.765-0.139c-0.563,0.069-1.047,0.19-1.444,0.354
				c-0.377,0.164-0.751,0.397-1.129,0.704c-0.233,0.21-0.504,0.448-0.813,0.707c-0.21,0.165-0.41,0.278-0.599,0.35
				c-0.419,0.166-0.772,0.271-1.057,0.318c-0.304,0.025-0.576,0.069-0.81,0.143c-0.493,0.093-0.931,0.235-1.304,0.423
				c-0.399,0.211-0.821,0.552-1.271,1.02c-0.163,0.165-0.479,0.565-0.951,1.203c-0.378,0.469-0.787,1.011-1.237,1.62L5.613,26.32
				l-0.634-0.139c-1.95-3.175-3.069-4.962-3.352-5.359c-0.047-0.073-0.361-0.47-0.951-1.203c-0.422-0.539-0.646-0.878-0.668-1.018
				c-0.023-0.19,0.012-0.426,0.104-0.708c0.095-0.235,0.213-0.471,0.356-0.708c0.095-0.117,0.317-0.374,0.671-0.772
				c0.398-0.401,0.689-0.733,0.879-0.989c0.117-0.162,0.329-0.495,0.634-0.988c0.209-0.401,0.4-0.686,0.561-0.847
				c0.216-0.188,0.402-0.316,0.569-0.388c0.068-0.022,0.21-0.044,0.42-0.071c0.095-0.021,0.353-0.046,0.777-0.068
				c0.517-0.047,1.059-0.142,1.621-0.286c0.708-0.162,1.245-0.305,1.621-0.422c0.38-0.139,1.06-0.423,2.045-0.847
				c1.155-0.518,2.07-0.916,2.752-1.195c0.916-0.358,1.776-0.66,2.579-0.919c1.029-0.331,1.738-0.543,2.113-0.634
				c0.612-0.12,1.362-0.215,2.256-0.283c0.874-0.072,1.717-0.083,2.54-0.035c0.542,0.047,1.247,0.14,2.114,0.283
				c0.708,0.093,1.401,0.165,2.082,0.21c0.566,0.025,1.352,0.034,2.362,0.034c0.73,0,1.445-0.034,2.153-0.101
				c0.355-0.027,0.638-0.05,0.847-0.075l0.034-0.211l0.213-0.037l0.105,0.215l0.354-0.036V8.509l0.283-0.067l0.071,0.249l0.35-0.039
				V8.406l0.279-0.032l0.038,0.244l0.353-0.035V8.301h0.247l0.035,0.177l0.317-0.035V8.158l0.283-0.036l0.034,0.251l0.283-0.039
				V7.983l0.248-0.037l0.069,0.285l0.282-0.073V7.809h0.248l0.067,0.244h0.217l0.033-0.316l0.281-0.037l0.038,0.283l0.21-0.069
				V7.669l0.249-0.036l0.07,0.176l0.353-0.108c0.26-0.092,0.438-0.174,0.529-0.247c0.094-0.042,0.2-0.118,0.321-0.211
				c0.091-0.116,0.174-0.189,0.244-0.211c0.092-0.046,0.209-0.069,0.349-0.069c0.143,0.023,0.227,0.033,0.248,0.033
				c0.095-0.046,0.26-0.142,0.494-0.284c0.189-0.139,0.355-0.22,0.495-0.24c0.165-0.051,0.34-0.063,0.529-0.039
				c0.095,0.025,0.234,0.06,0.422,0.107c0.026,0.02,0.19,0.104,0.494,0.246c0.257,0.138,0.492,0.225,0.708,0.247
				c0.233,0.047,0.41,0.047,0.528,0c0.164-0.046,0.271-0.069,0.316-0.069c0.143,0,0.399,0.129,0.778,0.386
				c0.209,0.142,0.4,0.284,0.561,0.425l2.79,0.527c2.042,0.399,3.463,0.668,4.262,0.811c1.015,0.14,2.259,0.261,3.742,0.353
				c1.29,0.048,2.351,0.06,3.174,0.038c1.714-0.05,3.137-0.318,4.263-0.812c0.284-0.118,0.803-0.38,1.552-0.777
				c0.732-0.378,1.154-0.587,1.271-0.633c0.163-0.072,0.375-0.106,0.634-0.106c0.262,0,0.438,0.034,0.53,0.106
				c0.05,0.046,0.107,0.141,0.177,0.28c0.05,0.091,0.13,0.26,0.248,0.492c0.209,0.448,0.411,0.708,0.596,0.777
				c0.214,0.069,0.413,0.06,0.603-0.037c0.165-0.094,0.269-0.248,0.317-0.458c0.022-0.188,0.022-0.377,0-0.561l-0.069-0.212h0.351
				l0.14,0.281c0.139,0.236,0.25,0.423,0.318,0.563c0.094,0.212,0.2,0.399,0.318,0.563c0.162,0.166,0.317,0.262,0.458,0.283
				c0.282,0.026,0.492,0.012,0.634-0.032c0.26-0.073,0.387-0.238,0.387-0.495c0-0.26-0.026-0.503-0.069-0.742l-0.109-0.246
				l0.426,0.072l0.177,0.281c0.14,0.211,0.26,0.388,0.353,0.528c0.117,0.282,0.212,0.46,0.281,0.53
				c0.118,0.165,0.274,0.273,0.461,0.317c0.188,0.048,0.365,0.038,0.528-0.033c0.163-0.048,0.268-0.167,0.316-0.354
				c0.047-0.165,0.022-0.378-0.068-0.635L73.536,8.09l0.351,0.033l0.175,0.251c0.117,0.164,0.2,0.301,0.249,0.419
				c0.094,0.215,0.164,0.366,0.211,0.458c0.121,0.168,0.256,0.284,0.425,0.352c0.467,0.189,0.831,0.168,1.091-0.067
				c0.095-0.072,0.155-0.187,0.175-0.352c0-0.142-0.011-0.285-0.033-0.423c-0.023-0.12-0.083-0.251-0.176-0.387l-0.143-0.143
				l0.493,0.034l0.178,0.317c0.117,0.235,0.212,0.434,0.28,0.602c0.071,0.166,0.161,0.305,0.281,0.419
				c0.047,0.051,0.166,0.121,0.351,0.216c0.146,0.093,0.286,0.137,0.425,0.137c0.144,0.027,0.273-0.011,0.389-0.102
				c0.19-0.143,0.272-0.352,0.248-0.634c-0.021-0.099-0.084-0.238-0.176-0.427l-0.14-0.248l0.384,0.037l0.179,0.286
				c0.142,0.209,0.223,0.352,0.245,0.418c0.047,0.119,0.118,0.25,0.213,0.391c0.12,0.165,0.222,0.279,0.313,0.353
				c0.168,0.096,0.342,0.153,0.532,0.177c0.235,0.045,0.423,0.024,0.566-0.071c0.234-0.162,0.317-0.458,0.247-0.883
				c0-0.092-0.038-0.209-0.108-0.353l-0.105-0.174l0.493,0.105l0.106,0.139c0.097,0.166,0.19,0.356,0.284,0.567
				c0.068,0.119,0.139,0.224,0.212,0.318c0.094,0.139,0.247,0.292,0.458,0.46c0.139,0.116,0.304,0.173,0.493,0.173
				c0.164,0,0.305-0.057,0.423-0.173c0.091-0.099,0.152-0.226,0.178-0.39c0.022-0.117,0.008-0.248-0.036-0.388
				c-0.051-0.095-0.118-0.211-0.213-0.352l-0.142-0.176l0.425,0.104l0.174,0.213c0.117,0.164,0.189,0.292,0.216,0.387
				c0.021,0.119,0.089,0.244,0.21,0.387c0.095,0.165,0.211,0.284,0.351,0.355c0.188,0.117,0.331,0.188,0.426,0.212
				c0.187,0.023,0.352-0.036,0.494-0.178c0.117-0.116,0.172-0.247,0.172-0.389c0-0.091-0.023-0.234-0.072-0.422
				c-0.043-0.093-0.1-0.188-0.173-0.282l-0.14-0.109l10.296,1.308L88.067,18.142z M40.102,23.501c-0.256,0-0.471,0.079-0.634,0.247
				c-0.165,0.188-0.246,0.4-0.246,0.634c0,0.235,0.082,0.438,0.246,0.6c0.164,0.165,0.378,0.244,0.634,0.244
				c0.236,0,0.448-0.079,0.634-0.244c0.166-0.162,0.248-0.365,0.248-0.6c0-0.234-0.082-0.447-0.248-0.634
				C40.549,23.581,40.337,23.501,40.102,23.501z"/>
</svg>
