<?xml version="1.0"?>
<svg xmlns="http://www.w3.org/2000/svg" viewBox="0 0 89.667 32">
  <path fill="currentColor" d="M26.496,2.11h0.044c0-0.03,0.015-0.045,0.046-0.045V2.021
				c0.029,0,0.06,0,0.089,0V1.932h0.045l0.044-0.045V1.708l0.046-0.045V1.08c0-0.03,0-0.061,0-0.09V0.81c0.178,0,0.329,0,0.449,0
				c0-0.03,0-0.074,0-0.135c0.209,0,0.418,0,0.627,0V0.72c0,0.06,0,0.135,0,0.224c0,0.06,0,0.121,0,0.18c0,0.09,0,0.165,0,0.224
				c0,0.06,0,0.12,0,0.18c0,0.089,0,0.164,0,0.225c0,0.06,0,0.119,0,0.179c0,0.089,0,0.164,0,0.224c0,0.059,0,0.134,0,0.225
				c0,0.059,0,0.104,0,0.134c0.15,0,0.3,0,0.448,0c0.21,0,0.419,0,0.629,0V2.201c0.209,0,0.419,0,0.627,0v0.18l0.045,0.045v0.134
				c0.12-0.03,0.225-0.03,0.315,0V2.514c0-0.029,0-0.06,0-0.089c0-0.03,0-0.06,0-0.09s0-0.06,0-0.09c0-0.03,0-0.059,0-0.089
				s0-0.06,0-0.09c0-0.029,0-0.06,0-0.089v-0.09h0.089V1.841c0.269,0,0.554,0,0.853,0V1.796c0.209,0,0.419,0,0.628,0
				c0,0.06,0,0.105,0,0.135v0.224c0,0.03,0,0.059,0,0.089v0.09c0,0.03,0,0.06,0,0.09c0,0.029,0,0.06,0,0.089v0.045
				c1.525,0,3.065,0,4.62,0V2.11h0.044c1.018,0,2.019,0,3.006,0v-0.09c0-0.03,0-0.059,0-0.089V1.886c0-0.03,0-0.06,0-0.09
				c0-0.03,0-0.059,0-0.089V1.617c0-0.029,0-0.06,0-0.089V1.483c0.209,0,0.419,0,0.628,0v0.494c0,0.029,0.016,0.044,0.045,0.044
				v0.18c0.149,0,0.299,0,0.448,0v0.807c-0.029,0-0.06,0.015-0.09,0.045v0.089h-0.044v0.18c-0.03,0-0.045,0.014-0.045,0.044v0.045
				c-0.03,0-0.045,0.015-0.045,0.045v0.09h-0.044V3.59l-0.046,0.045v0.09l-0.044,0.045v0.044L39.907,3.86v0.09h-0.045v0.045
				l-0.045,0.044l-0.045,0.089c0,0.032-0.014,0.046-0.044,0.046c0,0.029-0.015,0.045-0.045,0.045v0.135l-0.045,0.045v0.045h-0.045
				v0.133h-0.045v0.091h-0.044v0.089c-0.03,0-0.045,0.015-0.045,0.044v0.045h-0.045v0.046l-0.045,0.044v0.135h-0.045v0.046
				c0,0.029-0.014,0.044-0.044,0.044v0.134c-0.03,0-0.045,0.016-0.045,0.046v0.044h-0.045v0.089h-0.044v0.091h-0.046v0.044
				c-0.029,0-0.044,0.015-0.044,0.045v0.134H39.01v0.045h-0.045v0.089l-0.045,0.045h-0.045v0.135H38.83v0.089h-0.045v0.18H38.74
				c0,0.03-0.015,0.045-0.044,0.045v0.045L38.65,6.506l-0.044,0.089c-0.03,0-0.045,0.015-0.045,0.045v0.045
				c-0.03,0-0.045,0.015-0.045,0.045v0.045h-0.044V6.91c0.494,0,1.002,0,1.524,0v0.404c1.107,0,2.213,0,3.32,0
				c0.928,0,1.854,0,2.781,0v0.404c8.761,0,17.522,0,26.284,0v0.224c0.119,0,0.239,0,0.358,0V7.673c0.091,0,0.194,0,0.315,0
				c0-0.061,0-0.121,0-0.181c0-0.09,0-0.179,0-0.268c0-0.09,0-0.18,0-0.27c0-0.09,0-0.179,0-0.27c0-0.06,0-0.134,0-0.224
				c0-0.121,0-0.209,0-0.27c0-0.089,0-0.179,0-0.269c0-0.089,0-0.179,0-0.269s0-0.18,0-0.27c0-0.09,0-0.179,0-0.268
				c0-0.091,0-0.181,0-0.271c0-0.059,0-0.134,0-0.223c0-0.121,0-0.209,0-0.269c0-0.091,0-0.18,0-0.27c0-0.089,0-0.179,0-0.269
				c0-0.089,0-0.179,0-0.269c0-0.06,0-0.15,0-0.269c0-0.09,0-0.166,0-0.224c0-0.061,0-0.105,0-0.136c0.089,0,0.179,0,0.269,0
				c0.119,0,0.24,0,0.359,0c0.089,0,0.179,0,0.269,0h0.045v0.045c0.06,0,0.104,0,0.135,0l0.044,0.045v0.314c0.09,0,0.18,0,0.269,0
				h0.045c0.031,0.029,0.06,0.044,0.09,0.044V3.86c0,0.09,0,0.179,0,0.268v0.046c0,0.059,0,0.119,0,0.18c0.089,0,0.194,0,0.313,0
				v0.358h0.09v0.045c0,0.061,0,0.149,0,0.269c0,0.091,0,0.165,0,0.224c0,0.091,0,0.194,0,0.315c0,0.089,0,0.164,0,0.224
				c0,0.09,0,0.179,0,0.269c0,0.089,0,0.179,0,0.27c0,0.089,0,0.179,0,0.268c0,0.09,0,0.18,0,0.269c0,0.09,0,0.165,0,0.225
				c0,0.089,0,0.164,0,0.224c0.12,0,0.24,0,0.358,0c0.12,0.03,0.225,0.045,0.315,0.045H75.7c0.03,0,0.059,0,0.089,0v0.044
				c0,0.06,0,0.121,0,0.18c0,0.06,0,0.104,0,0.135c0,0.06,0,0.12,0,0.18c0,0.089,0,0.164,0,0.224c0,0.059,0,0.104,0,0.134v0.091
				c0.09,0,0.166,0,0.224,0v0.089c0.599,0,1.211,0,1.84,0v0.179c0.03,0,0.06,0,0.089,0v0.628c-0.269,0-0.568,0-0.896,0v0.269
				l-0.09,0.045v0.045c0.299,0,0.598,0,0.897,0v0.627c-0.688,0-1.375,0-2.064,0v0.135c2.901,0,5.786,0,8.657,0V10.05
				c1.465,0,2.93,0,4.395,0c0.03,0,0.06,0,0.091,0v0.807c0,0.059,0,0.104,0,0.134s0,0.06,0,0.09v0.493c0,0.03,0,0.059,0,0.09
				c0,0.03,0,0.075,0,0.135v0.045c0,0.029,0,0.061,0,0.089c0,0.03,0,0.06,0,0.09v0.134c0.029,0,0.059,0,0.089,0v0.628
				c-0.12,0-0.224,0-0.313,0c-0.121,0-0.24,0-0.36,0c-1.585,0-3.154,0-4.709,0v0.045c-0.208,0-0.418,0-0.627,0
				c0-0.03-0.015-0.045-0.045-0.045H82.92v-0.403c-2.571,0-5.143,0-7.714,0v0.448c-0.061,0-0.105,0-0.135,0v0.269
				c-0.12,0-0.239,0-0.359,0v0.046c-0.03,0-0.06,0.014-0.09,0.045c0,0.029,0,0.059,0,0.089s0,0.074,0,0.135c0,0.029,0,0.059,0,0.089
				c0,0.06,0,0.104,0,0.136c0,0.027,0,0.059,0,0.089c0,0.06,0,0.104,0,0.135c0,0.028,0,0.059,0,0.089c0,0.06,0,0.104,0,0.135
				c0,0.028,0,0.059,0,0.089c0,0.03,0,0.074,0,0.135c0,0.029,0,0.075,0,0.134c0,0.03,0,0.06,0,0.09c0,0.029,0,0.06,0,0.09
				c0,0.059,0,0.104,0,0.134c0,0.06,0,0.104,0,0.134c0,0.03,0,0.075,0,0.136v0.089c0,0.03,0,0.075,0,0.134c0,0.031,0,0.06,0,0.09
				c-0.209,0-0.418,0-0.628,0v-0.044h-0.089c-0.179-0.03-0.374-0.046-0.583-0.046h-0.179l-0.089-0.044V14.49
				c0.03,0,0.06-0.015,0.089-0.045c0-0.03,0-0.074,0-0.134c0-0.031,0-0.061,0-0.091c0-0.059,0-0.104,0-0.133
				c0-0.031,0-0.075,0-0.135c0-0.03,0-0.061,0-0.089c0-0.031,0-0.075,0-0.135c0-0.03,0-0.062,0-0.089c0-0.062,0-0.105,0-0.136
				c0-0.03,0-0.06,0-0.089c0-0.062,0-0.105,0-0.135c0-0.06,0-0.105,0-0.134c-0.089,0-0.18,0-0.269,0
				c-0.03-0.03-0.074-0.046-0.135-0.046v-0.269c-0.119,0-0.239,0-0.358,0h-0.044c0,0.03-0.017,0.044-0.046,0.044v0.225
				c0,0.03,0,0.06,0,0.091v0.044c0,0.03,0,0.059,0,0.089v0.091c0,0.029,0,0.059,0,0.089v0.044c0,0.03,0,0.06,0,0.092v0.089
				c0,0.03,0,0.06,0,0.089v0.135c0,0.03,0,0.06,0,0.089v0.09c0,0.03,0,0.059,0,0.089v0.045h-0.044v0.135c-0.209,0-0.403,0-0.583,0
				v0.044h-0.045v0.09h-0.045v0.09l-0.089,0.089v0.045c-0.03,0-0.044,0.015-0.044,0.045v0.045c0,0.03,0,0.059,0,0.089v0.09
				c0,0.03,0,0.075,0,0.134c0,0.03,0,0.061,0,0.089c0,0.06,0,0.105,0,0.135c0,0.031,0,0.061,0,0.089v0.135c-0.15,0-0.314,0-0.494,0
				L70.9,15.657h-0.045v0.09h-0.044v0.224c-0.27,0-0.524,0-0.763,0l-0.045-0.046c-6.16-0.029-12.334-0.044-18.524-0.044v0.179
				c-0.24,0-0.479,0-0.718,0v-0.089h-0.045v-0.09c-0.029,0-0.044-0.015-0.044-0.045l-0.045-0.045v-0.044h-0.044v-0.09
				c0-0.03-0.016-0.045-0.045-0.045c-2.213-0.03-4.425-0.045-6.638-0.045h-0.044l-0.045,0.045c-0.031,0-0.045,0.015-0.045,0.045
				c-0.031,0-0.06,0-0.09,0l-0.044,0.044c-0.03,0-0.06,0.016-0.09,0.046c-0.03,0-0.06,0-0.09,0c0,0.029-0.015,0.044-0.044,0.044
				l-0.045,0.045h-0.044c-0.03,0.03-0.06,0.045-0.09,0.045c0,0.029-0.015,0.044-0.044,0.044l-0.045,0.046c-0.03,0-0.06,0-0.089,0
				v0.044c-0.03,0-0.06,0.015-0.089,0.045c-0.031,0-0.061,0.016-0.091,0.045l-0.045,0.044c-0.03,0-0.06,0.016-0.089,0.046
				l-0.046,0.044h-0.044c-0.03,0.03-0.06,0.045-0.09,0.045c0,0.03-0.015,0.045-0.044,0.045l-0.046,0.044h-0.044
				c0,0.031-0.015,0.046-0.045,0.046l-0.045,0.044h-0.044c-0.031,0-0.046,0.015-0.046,0.045l-0.044,0.045h-0.045
				c-0.03,0-0.045,0.015-0.045,0.044l-0.044,0.046v0.044c0,0.061,0,0.12,0,0.18c0,0.059,0,0.12,0,0.179c0,0.06,0,0.105,0,0.135
				c0,0.06,0,0.12,0,0.179c0,0.09,0,0.166,0,0.225c0,0.03,0,0.075,0,0.134c0,0.06,0,0.12,0,0.18v0.09c0.119,0,0.239,0,0.358,0v0.627
				c-0.209,0-0.434,0.016-0.672,0.046h-0.045v1.255h0.045v0.405h0.044v0.403l0.046,0.045v0.313c0,0.03,0.015,0.045,0.044,0.045
				v0.314h0.045v0.493l0.045,0.045c0,0.03,0.015,0.044,0.044,0.044v0.449c0,0.031,0.015,0.045,0.046,0.045v0.045l0.044,0.045v0.224
				l0.045,0.045v0.134l0.045,0.045v0.045l0.044,0.044v0.224l0.046,0.045c0,0.03,0.014,0.045,0.044,0.045v0.225h0.045v0.045
				c0,0.029,0.015,0.044,0.045,0.044v0.135l0.044,0.045v0.044l0.046,0.045v0.045h0.044v0.314l0.09,0.044v0.18
				c0,0.029,0.015,0.044,0.044,0.044v0.135h0.046v0.089l0.044,0.09v0.045h0.045v0.179h0.045v0.09l0.091,0.089v0.179
				c0,0.031,0.014,0.045,0.044,0.045c0,0.03,0.015,0.045,0.045,0.045v0.134l0.045,0.045v0.09h0.044v0.224h0.045v0.09l0.044,0.09
				v0.09l0.045,0.044v0.09c0,0.03,0.015,0.045,0.045,0.045v0.045h0.044v0.134c0.03,0,0.045,0.015,0.045,0.045l0.044,0.045v0.134
				c0,0.03,0.015,0.045,0.045,0.045v0.089c0,0.03,0.015,0.045,0.045,0.045l0.045,0.09v0.089c0.03,0,0.045,0.015,0.045,0.045v0.045
				l0.044,0.045v0.089c0,0.03,0.015,0.045,0.045,0.045v0.045h0.045v0.179l0.045,0.045v0.089c0,0.031,0.015,0.045,0.045,0.045v0.045
				c0,0.029,0.015,0.045,0.044,0.045v0.045h0.045v0.179l0.089,0.045v0.044l0.045,0.045v0.135c0.03,0,0.044,0.014,0.044,0.044v0.045
				c0.03,0,0.045,0.015,0.045,0.045v0.045h0.045c0,0.03,0.015,0.045,0.045,0.045v0.044c0.03,0,0.06,0.015,0.09,0.045l0.045,0.045
				v0.628h-0.045v0.089c-0.06,0-0.135,0-0.225,0v0.09c-0.09,0-0.179,0.015-0.269,0.045h-0.045c-0.031,0.03-0.06,0.045-0.09,0.045
				c-0.03,0-0.075,0.015-0.135,0.044H43.54c-0.03,0-0.06,0.015-0.09,0.045l-0.044,0.045c-0.03,0-0.075,0-0.135,0
				c-0.03,0-0.074,0.015-0.135,0.045c-0.03,0-0.06,0.015-0.089,0.045h-0.045l-0.09,0.089c-0.029,0-0.059,0-0.089,0h-0.045
				c-0.029,0-0.075,0.015-0.134,0.045v0.045c-0.03,0-0.06,0.015-0.09,0.045h-0.09l-0.044,0.044h-0.045
				c-0.03,0-0.06,0.015-0.089,0.045h-0.046c-0.029,0-0.059,0.015-0.089,0.045c-0.03,0-0.059,0.015-0.089,0.045h-0.046
				c-0.029,0-0.06,0-0.089,0s-0.06,0.015-0.089,0.045l-0.046,0.044c-0.03,0-0.06,0-0.089,0c-0.06,0.03-0.105,0.045-0.135,0.045
				c-0.029,0-0.074,0.016-0.134,0.045c-0.029,0-0.075,0.015-0.134,0.045h-0.045c-0.029,0-0.06,0.015-0.089,0.045h-0.046
				c-0.03,0.029-0.06,0.044-0.089,0.044h-0.045c-0.06,0-0.09,0.015-0.09,0.045c-0.029,0-0.059,0.015-0.089,0.045h-0.089
				c-0.031,0.029-0.06,0.045-0.09,0.045s-0.075,0.015-0.134,0.045c-0.031,0-0.06,0-0.09,0c-0.03,0-0.045,0.014-0.045,0.044
				c-0.03,0-0.06,0.015-0.09,0.045H40.22l-0.044,0.045c-0.06,0-0.104,0-0.134,0c-0.09,0-0.18,0.015-0.27,0.045v0.045
				c-0.03,0-0.059,0-0.089,0v0.044c-0.061,0.03-0.12,0.045-0.18,0.045c-0.03,0-0.075,0-0.135,0v0.045
				c-0.03,0-0.06,0.015-0.089,0.045l-0.09,0.045c-0.061,0-0.104,0-0.134,0c-0.03,0-0.06,0.014-0.09,0.044v0.045
				c-0.03,0-0.06,0-0.09,0c-0.029,0.03-0.059,0.045-0.089,0.045c-0.06,0-0.105,0.015-0.135,0.045c-0.089,0-0.178,0-0.268,0v0.045
				c-0.06,0-0.105,0.014-0.135,0.044h-0.045c-0.029,0-0.059,0-0.089,0c-0.239,0-0.494,0-0.762,0V31.4h-0.045
				c0-0.03-0.015-0.045-0.044-0.045v-0.179c-0.03,0-0.045-0.016-0.045-0.045l-0.045-0.045v-0.179c-0.03,0-0.044-0.015-0.044-0.045
				v-0.179h-0.045v-0.179h-0.044v-0.314h-0.091v-0.27h-0.044v-0.134h-0.045v-0.09l-0.044-0.044v-0.045
				c-0.03,0-0.045-0.015-0.045-0.045v-0.09h-0.046v-0.179l-0.089-0.09v-0.224h-0.044v-0.09c0-0.031-0.016-0.044-0.045-0.044v-0.09
				c-0.03,0-0.046-0.015-0.046-0.045v-0.089c-0.029,0-0.044-0.015-0.044-0.045v-0.09l-0.045-0.045v-0.268c-0.03,0-0.06,0-0.089,0
				v-0.314l-0.046-0.045v-0.089l-0.044-0.045v-0.179c0-0.031-0.015-0.045-0.045-0.045v-0.09h-0.044v-0.27l-0.045-0.044v-0.09h-0.046
				c0-0.03-0.015-0.045-0.044-0.045v-0.18h-0.045v-0.134l-0.044-0.045v-0.179l-0.045-0.045v-0.045c-0.031,0-0.045-0.014-0.045-0.045
				v-0.18c0-0.03-0.016-0.045-0.045-0.045v-0.089l-0.045-0.045v-0.09c-0.03,0-0.044-0.015-0.044-0.044v-0.09l-0.045-0.045v-0.135
				l-0.045-0.045v-0.09L35.556,25.3v-0.09H35.51v-0.179l-0.044-0.045v-0.134l-0.045-0.045v-0.09h-0.045v-0.089l-0.045-0.045v-0.135
				l-0.045-0.044v-0.09c0-0.03-0.014-0.045-0.044-0.045v-0.18h-0.045v-0.314c0-0.029-0.015-0.044-0.045-0.044v-0.135l-0.045-0.044
				v-0.09c-0.03,0-0.045-0.015-0.045-0.045v-0.134h-0.044v-0.359c-0.03,0-0.046-0.014-0.046-0.044h-0.044v-0.27
				c-0.029,0-0.044-0.015-0.044-0.045v-0.358l-0.046-0.045v-0.224l-0.044-0.045v-0.223h-0.045v-0.181l-0.045-0.044v-0.404
				c0-0.03-0.016-0.044-0.044-0.044V20.95h-0.045v-0.404h-0.044v-0.314h-0.045v-0.134c0-0.03-0.014-0.045-0.044-0.045v-0.224
				c-0.03,0-0.044-0.016-0.044-0.045v-0.134c-0.031,0-0.045-0.015-0.045-0.045c-2.243,0-4.485,0-6.729,0c-0.089,0-0.178,0-0.268,0
				v0.224l-0.045,0.045v0.044c-0.03,0-0.06,0-0.089,0v0.09l-0.046,0.045v0.089l-0.044,0.045c0,0.03-0.015,0.045-0.045,0.045
				c0,0.03-0.015,0.045-0.044,0.045v0.224c-0.03,0-0.045,0.015-0.045,0.045h-0.09v0.134l-0.045,0.045v0.045l-0.089,0.089v0.091
				c-0.03,0-0.046,0.015-0.046,0.045v0.134H26.72v0.044l-0.045,0.046v0.044l-0.044,0.045v0.045c-0.029,0-0.045,0.016-0.045,0.044
				v0.046H26.54v0.044c0,0.03-0.014,0.045-0.044,0.045l-0.045,0.045v0.134L26.362,21.8v0.045h-0.047v0.09
				c-0.028,0-0.044,0.015-0.044,0.045v0.044l-0.134,0.09v0.09l-0.09,0.044v0.135h-0.045v0.045h-0.044v0.044
				c0,0.031-0.016,0.045-0.044,0.045c0,0.03-0.016,0.045-0.046,0.045v0.09l-0.044,0.044v0.045l-0.045,0.045
				c-0.03,0-0.044,0.015-0.044,0.045v0.045h-0.044l-0.046,0.044v0.09c0,0.03-0.015,0.045-0.045,0.045
				c0,0.029-0.015,0.045-0.045,0.045l-0.044,0.089v0.045c-0.029,0-0.044,0.015-0.044,0.045v0.045l-0.045,0.044h-0.045v0.045
				l-0.045,0.045v0.135c-0.03,0-0.06,0-0.089,0v0.09c-0.031,0-0.045,0.015-0.045,0.045v0.044l-0.045,0.045v0.09h-0.045v0.045
				l-0.044,0.044h-0.044v0.18c-0.031,0-0.046,0.015-0.046,0.044c-0.029,0-0.045,0.016-0.045,0.045v0.09l-0.045,0.045v0.044
				c0,0.031-0.014,0.045-0.044,0.045v0.09l-0.045,0.045v0.089c-0.03,0-0.045,0.015-0.045,0.045v0.134
				c0,0.031-0.015,0.045-0.044,0.045v0.179c-0.03,0-0.06,0.015-0.09,0.045v0.314l-0.044,0.045v0.089h-0.045v0.583
				c0,0.029-0.015,0.044-0.044,0.044v0.045c-0.24,0-0.464,0-0.673,0v-0.045c0-0.029-0.016-0.044-0.045-0.044l-0.045-0.045
				c-0.029,0-0.06,0-0.09,0c-0.029-0.03-0.06-0.045-0.09-0.045v-0.045H23.49v-0.045c-0.06,0-0.104,0-0.134,0
				c-0.03-0.029-0.06-0.044-0.09-0.044c-0.03-0.03-0.06-0.045-0.089-0.045h-0.089v-0.045c-0.03-0.03-0.061-0.045-0.09-0.045
				s-0.059,0-0.089,0c-0.03-0.03-0.06-0.045-0.089-0.045v-0.044c-0.03,0-0.075,0-0.135,0v-0.045c-0.03,0-0.06,0-0.089,0
				c0-0.03-0.016-0.045-0.045-0.045c-0.03-0.03-0.06-0.045-0.089-0.045H22.37c-0.031-0.031-0.061-0.045-0.091-0.045v-0.044
				c-0.059,0-0.104,0-0.134,0c-0.03-0.03-0.075-0.045-0.134-0.045l-0.089-0.09c-0.031,0-0.076,0-0.135,0l-0.045-0.045h-0.045
				c-0.03,0-0.044-0.015-0.044-0.044l-0.09-0.045l-0.045-0.045h-0.045c-0.03-0.03-0.06-0.045-0.089-0.045
				c-0.029-0.03-0.075-0.045-0.135-0.045c-0.03-0.029-0.06-0.044-0.089-0.044l-0.045-0.045h-0.09c-0.03,0-0.044-0.015-0.044-0.045
				l-0.045-0.045h-0.045v-0.045h-0.134c-0.03,0-0.06-0.015-0.09-0.044l-0.09-0.045c-0.03,0-0.044-0.015-0.044-0.045
				c-0.06,0-0.104,0-0.135,0l-0.045-0.045c-0.03,0-0.059,0-0.089,0v-0.045c-0.029,0-0.074,0-0.135,0v-0.044h-0.044
				c-0.06-0.03-0.104-0.045-0.134-0.045c-0.031-0.03-0.061-0.045-0.09-0.045v-0.045c-0.031,0-0.06,0-0.089,0h-0.044
				c0-0.029-0.016-0.045-0.046-0.045c-0.029-0.029-0.059-0.044-0.089-0.044c-0.029,0-0.074,0-0.135,0v-0.045
				c-0.029,0-0.06-0.015-0.089-0.045h-0.044c-0.061-0.03-0.12-0.045-0.18-0.045c0-0.029-0.015-0.045-0.044-0.045
				c-0.03,0-0.061-0.015-0.091-0.044v-0.045c-0.029,0-0.059,0-0.089,0c-0.029-0.03-0.059-0.045-0.089-0.045h-0.09v-0.045h-0.045
				l-0.044-0.045v-0.044c-0.031,0-0.076,0-0.135,0v-0.135h-0.045v-0.717h0.045v-0.135c0-0.031,0.015-0.045,0.045-0.045v-0.134h0.045
				v-0.179c0.03,0,0.044-0.015,0.044-0.045h0.044c0.03,0,0.045-0.015,0.045-0.045v-0.089l0.045-0.045v-0.045l0.045-0.045
				c0-0.031,0.015-0.045,0.044-0.045v-0.044l0.044-0.045v-0.09h0.045v-0.045h0.044V21.98l0.046-0.045v-0.09h0.045V21.8l0.044-0.044
				v-0.045l0.135-0.134v-0.045h0.044v-0.089l0.089-0.09h0.044c0-0.03,0.015-0.045,0.046-0.045v-0.045l0.089-0.09
				c0.03,0,0.045-0.014,0.045-0.044v-0.045c0-0.03,0.015-0.045,0.044-0.045c0.03,0,0.046-0.014,0.046-0.044
				c0.029,0,0.044-0.016,0.044-0.045l0.089-0.045v-0.045l0.044-0.045c0-0.03,0.015-0.044,0.046-0.044v-0.045
				c0-0.03,0.015-0.045,0.044-0.045v-0.045h0.044V20.59c0.03,0,0.06-0.014,0.089-0.044v-0.045c0.031,0,0.046-0.015,0.046-0.045
				h0.044l0.044-0.09c0-0.03,0.015-0.044,0.045-0.044l0.044-0.045c0-0.031,0.015-0.045,0.045-0.045v-0.045
				c0.031,0,0.046-0.015,0.046-0.045l0.044-0.044c0.03,0,0.045-0.015,0.045-0.045c0.029,0,0.044-0.015,0.044-0.045v-0.045
				c0.03-0.03,0.061-0.045,0.09-0.045v-0.044c0-0.03,0.016-0.045,0.045-0.045l0.045-0.045v-0.045h0.044v-0.089
				c0.031,0,0.045-0.015,0.045-0.045h0.045v-0.045l0.045-0.045h0.045c0-0.03,0.015-0.045,0.044-0.045v-0.044l0.135-0.135v-0.045
				c0.029,0,0.045-0.014,0.045-0.044l0.044-0.045c0.03,0,0.045-0.016,0.045-0.045h0.045l0.09-0.09c0.029,0,0.044-0.014,0.044-0.044
				v-0.045l0.045-0.045c0.031,0,0.045-0.015,0.045-0.045v-0.045h0.044v-0.044h0.045v-0.045l0.044-0.044
				c0-0.03,0.015-0.046,0.045-0.046l0.045-0.045v-0.044c0.03,0,0.044-0.015,0.044-0.045c0.03,0,0.045-0.015,0.045-0.044v-0.09
				l0.045-0.045h0.044v-0.089h0.045v-0.09l0.044-0.045c0.03,0,0.045-0.015,0.045-0.045v-0.09l0.044-0.044
				c0.031,0,0.045-0.015,0.045-0.045v-0.179c0.031-0.03,0.061-0.045,0.089-0.045v-0.225c0.03,0,0.045-0.015,0.045-0.045v-0.403
				h-0.045v-0.225c-0.029-0.03-0.059-0.045-0.089-0.045v-0.134h-0.045v-0.045L22.1,16.463v-0.044h-0.045l-0.179-0.18
				c0-0.03-0.016-0.044-0.045-0.044l-0.044-0.046v-0.044h-0.045c-0.03-0.03-0.061-0.045-0.09-0.045h-0.045
				c-0.029-0.03-0.059-0.045-0.089-0.045c0-0.03-0.014-0.044-0.045-0.044h-0.044c-0.03-0.03-0.074-0.046-0.135-0.046
				c-0.031-0.029-0.06-0.044-0.089-0.044c-0.09-0.03-0.18-0.045-0.27-0.045h-0.045v-0.045c-0.029,0-0.059,0-0.09,0
				c-0.06-0.03-0.104-0.044-0.134-0.044c-0.029,0-0.06,0-0.09,0c-0.03-0.03-0.06-0.046-0.089-0.046v-0.044h-0.044
				c-0.061,0-0.105,0-0.135,0c-0.06-0.03-0.119-0.045-0.18-0.045c-0.06-0.03-0.104-0.045-0.134-0.045c-0.12,0-0.239,0-0.359,0
				v-0.179c-0.06,0-0.134,0-0.224,0v-0.045c0-0.03,0-0.059,0-0.09c0-0.029,0-0.059,0-0.089c0-0.059,0-0.104,0-0.134
				c0-0.03,0-0.061,0-0.09c0-0.059,0-0.104,0-0.134c0-0.06,0-0.105,0-0.135c0-0.03,0-0.059,0-0.089v-0.045c0-0.061,0-0.104,0-0.134
				c0-0.061,0-0.105,0-0.135c0-0.029,0-0.075,0-0.134c0-0.03,0-0.06,0-0.09c0-0.029,0-0.075,0-0.134c0-0.03,0-0.061,0-0.09
				c0-0.059,0-0.104,0-0.134c0-0.03,0-0.061,0-0.09v-0.045c-0.15,0-0.313,0-0.494,0v0.092c-0.089,0-0.194,0-0.313,0
				c0,0.027,0,0.059,0,0.089c0,0.06,0,0.119,0,0.179c0,0.03,0,0.075,0,0.134c0,0.061,0,0.105,0,0.135c0,0.06,0,0.104,0,0.135
				c0,0.06,0,0.12,0,0.179c0,0.03,0,0.074,0,0.135c0,0.059,0,0.104,0,0.134c0,0.06,0,0.12,0,0.179c0,0.03,0,0.06,0,0.09
				c0,0.059,0,0.104,0,0.134l0.044,0.045v0.627c-0.061,0-0.135,0-0.224,0v0.135c-0.958,0-1.944,0-2.961,0v0.897
				c-0.029,0-0.06,0-0.089,0v0.269c-0.209,0-0.419,0-0.628,0v-0.044h-0.089v0.044c-0.06,0-0.134,0.015-0.224,0.045
				c-0.12,0-0.24,0-0.359,0c-0.18,0-0.374,0-0.583,0v0.045l-0.045,0.044v0.405c-0.029,0-0.06,0-0.088,0v0.268l-0.045,0.046v0.134
				c-0.12,0-0.254,0.015-0.403,0.044c-0.359,0-0.734,0-1.121,0v-0.089c0-0.03,0-0.06,0-0.089v-0.09c0-0.03,0-0.06,0-0.09v-0.044
				c0-0.03,0-0.061,0-0.09h-0.046c-0.029,0-0.044,0.015-0.044,0.044c-0.03,0.031-0.06,0.06-0.09,0.09l-0.044,0.045
				c-0.031,0-0.046,0.015-0.046,0.045c-0.06,0-0.119,0-0.178,0c-0.032,0.029-0.046,0.06-0.046,0.09c-0.06,0-0.089,0.014-0.089,0.044
				c-0.06,0.031-0.104,0.045-0.135,0.045c-0.029,0.03-0.044,0.06-0.044,0.089c-0.03,0-0.045,0.016-0.045,0.046
				c-0.059,0-0.12,0-0.179,0c-0.03,0.029-0.06,0.059-0.089,0.089c-0.03,0-0.044,0.015-0.044,0.045
				c-0.031,0.029-0.061,0.044-0.09,0.044c0,0.03,0,0.06,0,0.09c-0.06,0-0.089,0.015-0.089,0.045c-0.061,0-0.105,0.015-0.135,0.044
				c-0.03,0.03-0.06,0.045-0.089,0.045c0,0.03,0,0.06,0,0.09c-0.061,0-0.105,0.016-0.135,0.045l-0.044,0.044
				c-0.06,0.03-0.089,0.061-0.089,0.09c-0.031,0-0.046,0.015-0.046,0.045c-0.059,0.03-0.089,0.06-0.089,0.089
				c-0.06,0-0.105,0-0.136,0c-0.029,0.03-0.044,0.061-0.044,0.09l-0.044,0.045c-0.06,0.03-0.105,0.045-0.135,0.045
				c-0.029,0.03-0.044,0.059-0.044,0.089l-0.089,0.045c-0.03,0.03-0.045,0.061-0.045,0.09c-0.031,0-0.045,0.014-0.045,0.044
				c-0.059,0-0.104,0.015-0.134,0.045v0.045c-0.031,0.03-0.061,0.045-0.09,0.045c-0.029,0.03-0.059,0.059-0.089,0.089v0.045
				c-0.03,0.03-0.06,0.06-0.089,0.09v0.045l-0.135,0.134c0,0.031,0,0.061,0,0.09c-0.418,0-0.837,0-1.256,0c0-0.03,0-0.06,0-0.09
				V19.11c0-0.029,0-0.06,0-0.09v-0.225c0-0.029,0-0.059,0-0.089c0-0.03,0-0.06,0-0.09v-0.045c0-0.059,0-0.104,0-0.133
				c-0.029,0-0.06,0-0.089,0l-0.045,0.044c-0.06,0.03-0.119,0.045-0.179,0.045c0,0.03,0,0.059,0,0.089v0.046
				c-0.06,0.029-0.121,0.044-0.18,0.044c-0.03,0-0.06,0.016-0.09,0.045c0,0.03-0.015,0.044-0.044,0.044
				c-0.031,0.03-0.075,0.045-0.135,0.045c-0.029,0.03-0.06,0.045-0.089,0.045v0.09c-0.061,0.03-0.105,0.044-0.135,0.044
				c-0.06,0-0.09,0.015-0.09,0.045c0,0.03-0.015,0.045-0.045,0.045c0,0.03-0.015,0.045-0.044,0.045V19.2c-0.03,0-0.06,0-0.09,0
				c0,0.03,0,0.059,0,0.089s-0.015,0.045-0.044,0.045c-0.061,0-0.104,0.015-0.135,0.045l-0.045,0.045
				c-0.03,0.03-0.06,0.059-0.09,0.089l-0.044,0.045v0.045c-0.03,0-0.06,0-0.09,0c-0.03,0.03-0.044,0.059-0.044,0.089v0.045H5.683
				c-0.029,0.03-0.059,0.045-0.089,0.045c0,0.03-0.014,0.045-0.045,0.045c0,0.03-0.015,0.059-0.044,0.089l-0.09,0.09
				c-0.03,0.031-0.045,0.061-0.045,0.09c-0.06,0-0.089,0.014-0.089,0.044l-0.045,0.045c-0.029,0.03-0.059,0.045-0.09,0.045
				c0,0.03-0.014,0.06-0.045,0.09l-0.044,0.044c-0.03,0.03-0.061,0.061-0.09,0.09v0.045l-0.09,0.089c0,0.03-0.015,0.045-0.044,0.045
				c-0.03,0.03-0.045,0.06-0.045,0.09c-0.029,0-0.045,0.015-0.045,0.045c-0.03,0.029-0.045,0.059-0.045,0.089
				c-0.03,0-0.06,0.015-0.088,0.045v0.045c-0.031,0.029-0.045,0.059-0.045,0.089c-0.03,0-0.06,0-0.09,0c0,0.03,0,0.06,0,0.09
				c-0.03,0-0.059,0.015-0.089,0.044c0,0.03-0.016,0.061-0.045,0.09c-0.029,0-0.045,0.015-0.045,0.045
				c0,0.03-0.014,0.045-0.045,0.045c0,0.031,0,0.061,0,0.09H4.203c-0.03,0.029-0.074,0.044-0.134,0.044v0.045
				c0,0.03-0.015,0.061-0.045,0.09c0,0.03-0.015,0.046-0.044,0.046c0,0.029,0,0.059,0,0.089V21.8c-0.06,0-0.105,0.015-0.133,0.045
				v0.045c-0.031,0.03-0.061,0.06-0.091,0.09v0.044c0,0.032-0.014,0.045-0.044,0.045c0,0.03-0.015,0.06-0.045,0.09v0.089
				c-0.059,0-0.09,0.015-0.09,0.045c0,0.03,0,0.06,0,0.09c-0.029,0-0.044,0.015-0.044,0.045l-0.044,0.044
				c-0.03,0.031-0.045,0.062-0.045,0.09l-0.044,0.045v0.045c-0.03,0.031-0.046,0.06-0.046,0.089v0.09
				c0,0.029-0.029,0.045-0.088,0.045c0,0.03,0,0.059,0,0.089v0.045c0,0.03-0.016,0.06-0.045,0.09v0.134
				c-0.03,0-0.06,0.015-0.09,0.045v0.089c0,0.031,0,0.061,0,0.09v0.09c-0.119,0-0.224,0-0.313,0
				c-0.329-0.03-0.644-0.045-0.942-0.045c-0.12,0-0.239,0-0.359,0c-0.06,0-0.09-0.015-0.09-0.045c0-0.03,0-0.06,0-0.09
				c-0.029-0.029-0.044-0.06-0.044-0.089c-0.031,0-0.046-0.015-0.046-0.045v-0.045c0-0.03,0-0.059,0-0.089v-0.045
				c0-0.03,0-0.06,0-0.09v-0.135c-0.03-0.03-0.06-0.045-0.089-0.045c0-0.03,0-0.059,0-0.09v-0.044c0-0.03,0-0.06,0-0.09v-0.09
				l-0.045-0.044v-0.045c0-0.03,0-0.06,0-0.09v-0.045c0-0.029,0-0.06,0-0.089v-0.045l-0.09-0.045c0-0.03,0-0.059,0-0.089
				c0-0.03,0-0.06,0-0.09v-0.045c0-0.03,0-0.06,0-0.089v-0.045c0-0.03-0.014-0.044-0.044-0.044c0-0.03-0.015-0.06-0.044-0.09v-0.134
				c0-0.03,0-0.06,0-0.09c-0.03,0-0.06,0-0.089,0c0-0.03,0-0.06,0-0.09v-0.134c0-0.03,0-0.06,0-0.09V20.95c0-0.03,0-0.061,0-0.091
				v-0.045c0-0.03-0.015-0.06-0.046-0.089c0-0.03,0-0.06,0-0.09v-0.089c0-0.03,0-0.06,0-0.09v-0.045c0-0.03-0.015-0.059-0.044-0.089
				c-0.03,0-0.044-0.015-0.044-0.045v-0.136c0-0.03,0-0.059,0-0.089v-0.045c0-0.029,0-0.06,0-0.09L0.75,19.873v-0.045l-0.044-0.045
				v-0.045c0-0.03,0-0.059,0-0.089v-0.045c0-0.031,0-0.061,0-0.091v-0.089c0-0.03,0-0.06,0-0.09c0-0.029,0-0.06,0-0.09V19.2
				c0-0.03,0-0.061,0-0.09v-0.09c0-0.029,0-0.059,0-0.089v-0.045c0-0.029-0.031-0.045-0.09-0.045v-0.045c0-0.029,0-0.059,0-0.089
				v-0.09c0-0.03,0-0.059,0-0.089v-0.045c0-0.03,0-0.06,0-0.09c0-0.03,0-0.059,0-0.089c-0.03,0-0.044-0.015-0.044-0.045v-0.044
				c0-0.03,0-0.061,0-0.09v-0.045c0-0.03,0-0.06,0-0.089v-0.18c0-0.03,0-0.059,0-0.09v-0.044c0-0.03-0.016-0.061-0.045-0.09v-0.044
				l-0.045-0.046v-0.044c0-0.03,0-0.06,0-0.09v-0.09c0-0.029,0-0.059,0-0.089v-0.089c0-0.03,0-0.061,0-0.09
				c0-0.03-0.015-0.045-0.046-0.045v-0.045l-0.044-0.044c0-0.03,0-0.061,0-0.09v-0.09c0-0.03,0-0.059,0-0.09v-0.134
				c0-0.03,0-0.059,0-0.09V16.33c0-0.03,0-0.061,0-0.09v-0.09c0-0.029,0-0.059,0-0.089H0.301c0-0.03,0-0.06,0-0.089v-0.046
				c0-0.029,0-0.059,0-0.089v-0.089c0-0.03,0-0.061,0-0.09v-0.135c0-0.03,0-0.061,0-0.09v-0.09c-0.029-0.03-0.045-0.059-0.045-0.09
				v-0.134c0-0.03,0-0.059,0-0.089v-0.09c0-0.03,0-0.059,0-0.089v-0.045c0-0.03,0-0.06,0-0.09v-0.179c0-0.03,0-0.061,0-0.09v-0.044
				c0-0.03,0-0.061,0-0.09v-0.18c0-0.03,0-0.06,0-0.09v-0.045c0-0.059,0-0.105,0-0.133v-0.046c0-0.029,0-0.059,0-0.089
				c-0.029-0.03-0.045-0.062-0.045-0.089l-0.044-0.046c0-0.029,0-0.059,0-0.089c0-0.03,0-0.06,0-0.089c0-0.062,0-0.105,0-0.135
				s0-0.06,0-0.089c0-0.062,0-0.105,0-0.135c0-0.03,0-0.075,0-0.134c0-0.03,0-0.075,0-0.135v-0.089c0-0.03,0-0.06,0-0.09
				c0-0.06,0-0.104,0-0.134c0-0.06,0-0.105,0-0.135c0-0.031,0-0.076,0-0.135c0-0.06,0-0.104,0-0.134c0-0.062,0-0.105,0-0.135
				c0-0.029,0-0.061,0-0.089c0-0.031,0-0.075,0-0.135c0-0.029,0-0.076,0-0.135c0-0.03,0-0.06,0-0.09v-0.089c0-0.06,0-0.105,0-0.135
				c0-0.061,0-0.104,0-0.134c0-0.03,0-0.075,0-0.135c0-0.03,0-0.059,0-0.089c0-0.03,0-0.075,0-0.135c0.03,0,0.044-0.015,0.044-0.044
				l0.045-0.045c0-0.03,0-0.06,0-0.09v-0.045c0-0.03,0-0.059,0-0.089c0-0.03,0-0.06,0-0.09v-0.089c0-0.03,0-0.06,0-0.09v-0.045
				c0-0.029,0-0.06,0-0.089V9.87c0-0.03,0-0.059,0-0.089V9.736c0-0.03,0.016-0.059,0.045-0.09V9.511c0-0.03,0-0.059,0-0.09V9.332
				c0-0.03,0-0.06,0-0.09V9.153c0-0.03,0-0.06,0-0.09V8.929c0.03,0,0.06-0.015,0.089-0.045V8.838c0.449,0,0.897,0.015,1.346,0.045
				v0.089c0.03,0,0.06,0,0.091,0v0.045l0.044,0.045v0.673c6.161,0,12.334,0,18.524,0c0.031,0,0.046-0.015,0.046-0.045l0.044-0.045
				h0.045c0.029,0,0.044-0.015,0.044-0.044V9.556h0.09V9.511l0.045-0.09h0.045l0.044-0.089h0.045l0.045-0.045l0.09-0.045V9.197
				c0.03,0,0.059-0.014,0.09-0.044l0.045-0.045h0.045V9.063c0-0.03,0.014-0.045,0.045-0.045h0.044V8.973l0.09-0.089
				c0.03,0,0.045-0.015,0.045-0.045c0.029,0,0.045-0.015,0.045-0.045c0.029,0,0.044-0.014,0.044-0.045l0.09-0.089
				c0.03,0,0.044-0.015,0.044-0.045h0.045c0-0.03,0.015-0.045,0.044-0.045V8.524l0.09-0.044c0-0.03,0.015-0.045,0.044-0.045h0.045
				L22.1,8.21V8.166h0.044l0.045-0.044h0.045c0-0.03,0.016-0.046,0.044-0.046V8.031c0.03-0.03,0.06-0.045,0.091-0.045
				c0.03-0.03,0.059-0.045,0.089-0.045c0.03,0,0.059-0.015,0.089-0.044l0.09-0.09c0.06,0,0.104,0,0.134,0V7.402
				c0.029,0,0.06-0.014,0.09-0.044V7.225c0.209,0,0.419,0,0.628,0v0.089c2.183,0,4.365,0,6.548,0V6.91
				c0-0.03-0.015-0.045-0.044-0.045V6.82L29.95,6.776V6.103c-0.09,0-0.195,0-0.315,0v0.449c-0.029,0-0.045,0.014-0.045,0.044
				c-0.208,0-0.418,0-0.627,0V6.417l-0.045-0.045V6.103c-0.598,0-1.195,0-1.793,0v0.404h-0.044v0.089c-0.21,0-0.419,0-0.628,0V6.282
				c-0.03,0-0.06,0-0.089,0V6.237c0-0.09,0-0.164,0-0.224s0-0.12,0-0.179c0-0.09,0-0.166,0-0.225c0-0.06,0-0.135,0-0.224
				c0-0.06,0-0.119,0-0.179c0-0.06,0-0.135,0-0.224c0-0.06,0-0.119,0-0.181c0-0.089,0-0.163,0-0.224c0-0.059,0-0.119,0-0.178
				c0-0.09,0-0.166,0-0.225c0-0.06,0-0.135,0-0.224c0-0.061,0-0.121,0-0.179c0-0.06,0-0.135,0-0.225c0-0.06,0-0.12,0-0.18
				c0-0.059,0-0.134,0-0.224c0-0.059,0-0.12,0-0.18c0-0.089,0-0.164,0-0.224c0-0.06,0-0.119,0-0.179c0-0.06,0-0.12,0-0.179
				c0.029,0,0.059,0,0.089,0v-0.18l0.045-0.045V2.11z M42.06,15.611l0.044-0.045H42.06V15.611z M33.178,16.419
				c-0.927,0-1.868,0-2.826,0v0.044l-0.044,0.09h-0.045v0.134c-0.03,0-0.044,0.015-0.044,0.045v0.18l-0.044,0.045v0.135h-0.046
				v0.178c0,0.031-0.014,0.046-0.044,0.046v0.673h0.044v0.089l0.046,0.045v0.09h0.044v0.178h0.044v0.584c0.867,0,1.72,0,2.557,0
				v-0.27h0.045v-0.044c0.03,0,0.044-0.016,0.044-0.046h0.044l0.09-0.089h0.045v-0.045l0.089-0.044c0-0.03,0.016-0.046,0.046-0.046
				l0.089-0.089h0.134l0.044-0.045c0-0.03,0.015-0.044,0.045-0.044l0.089-0.09c0.031,0,0.046-0.015,0.046-0.045
				c0.03,0,0.059-0.015,0.09-0.045v-0.044c0.029,0,0.059,0,0.089,0v-0.046c0.03,0,0.045-0.015,0.045-0.044h0.09
				c0-0.06,0-0.105,0-0.134c0-0.061,0-0.105,0-0.135c0-0.031,0-0.076,0-0.136c0-0.029,0-0.059,0-0.089s0-0.075,0-0.135
				c0-0.029,0-0.059,0-0.089c0-0.03,0-0.061,0-0.089l-0.045-0.046c0-0.029-0.015-0.044-0.044-0.044c0-0.03-0.015-0.045-0.045-0.045
				l-0.089-0.045c-0.031,0-0.06-0.015-0.09-0.044v-0.046c-0.03,0-0.046-0.015-0.046-0.044h-0.044c-0.029-0.03-0.06-0.045-0.09-0.045
				v-0.089c-0.029,0-0.059-0.015-0.09-0.046c-0.03,0-0.044-0.015-0.044-0.044l-0.044-0.045h-0.045l-0.044-0.045
				C33.224,16.433,33.208,16.419,33.178,16.419z M28.469,17.092c-0.03,0-0.044-0.015-0.044-0.046c-0.03,0-0.044-0.015-0.044-0.044
				v-0.045c-0.09,0-0.195,0-0.314,0c0,0.06,0,0.104,0,0.135c0,0.059,0,0.119,0,0.178c0,0.031,0,0.075,0,0.135s0,0.105,0,0.135
				c0,0.059,0,0.104,0,0.134c0,0.06,0,0.119,0,0.179c0,0.03,0,0.074,0,0.135c0,0.059,0,0.104,0,0.134c0,0.06,0,0.119,0,0.18
				l0.044,0.045c0.031,0,0.046,0.014,0.046,0.044H28.2v0.09h0.045v0.045l0.045,0.044v0.045h0.09v0.046l0.089,0.044h0.045v0.045
				c0.029,0.03,0.06,0.044,0.09,0.044h0.044v0.045h0.044l0.089,0.045v0.09c0.21,0,0.419,0,0.628,0v-0.09c-0.029,0-0.06,0-0.089,0
				v-0.09c-0.029,0-0.044-0.014-0.044-0.044v-0.045h-0.046v-0.044c-0.03,0-0.044-0.016-0.044-0.046h-0.045v-0.089l-0.044-0.045
				v-0.09c-0.03,0-0.06-0.015-0.09-0.044v-0.134h-0.045v-0.135l-0.045-0.045v-0.09l-0.089-0.089v-0.045h-0.046v-0.044
				c0-0.03-0.014-0.046-0.044-0.046c0-0.029-0.016-0.044-0.045-0.044v-0.09l-0.044-0.044v-0.046h-0.044v-0.089l-0.046-0.045v-0.09
				h-0.044v-0.044c-0.03,0-0.045-0.015-0.045-0.045V17.092z"/>
</svg>
