<?xml version="1.0"?>
<svg xmlns="http://www.w3.org/2000/svg" viewBox="0 0 73.625 32">
  <path fill="currentColor" d="M32.092,2.094c0.028-0.028,0.069-0.056,0.125-0.083
				c0-0.029,0-0.056,0-0.084V1.841c0-0.028,0-0.056,0-0.083V1.673c0.169,0.029,0.337,0.042,0.505,0.042c0,0.028,0,0.055,0,0.083
				c0.167,0,0.335,0.015,0.502,0.042v0.084c0.029,0,0.071,0.014,0.128,0.041c0,0.029,0,0.057,0,0.084
				c0.056,0,0.099,0.015,0.126,0.043c0,0.027,0,0.068,0,0.127c0.028,0,0.056,0.028,0.083,0.083c0.028,0.028,0.056,0.056,0.083,0.082
				c0.057,0.028,0.098,0.059,0.127,0.086c0.055,0.028,0.098,0.069,0.125,0.125l0.042,0.042c0.113,0.027,0.225,0.058,0.336,0.084
				v0.083c0.028,0.028,0.07,0.042,0.126,0.042c0,0.028,0,0.055,0,0.084c10.363,0,20.74,0,31.131,0
				c0.056,0.028,0.125,0.055,0.21,0.083c0.026,0.028,0.057,0.057,0.082,0.083c0.029,0.029,0.072,0.057,0.127,0.085l0.042,0.084
				c0.028,0.028,0.042,0.069,0.042,0.126c0.026,0.029,0.042,0.057,0.042,0.084v0.042h0.043c0.026,0.056,0.055,0.096,0.083,0.124
				c0.027,0.028,0.168,0.521,0.42,1.472c0.279,0.98,0.532,1.47,0.756,1.47h1.303l0.25-0.083h0.253V6.462h1.218l0.293,0.042
				l0.253,0.083h1.805l0.17,0.084l0.083,0.126l0.462,0.042l-0.042,4.032l-0.043,0.083l-0.042,0.129l-0.167,0.167h-0.168L72.8,11.208
				v0.044h-3.698l1.639,3.695c0,0.056,0,0.099,0,0.127c0,0.029,0,0.057,0,0.084s0.014,0.068,0.043,0.125v0.042
				c0,0.056,0,0.097,0,0.126c0,0.029,0,0.055,0,0.085c0,0.028,0,0.068,0,0.124v0.798c0,0.028-0.561,0.043-1.682,0.043
				c-0.054-0.028-0.6-1.021-1.638-2.983c-0.446,0.029-0.896,0.057-1.342,0.084c-0.085,0-0.156,0.013-0.211,0.041
				c-0.086,0-0.154,0-0.209,0h-0.084c0,0.028-0.013,0.055-0.042,0.084c0,0.059-0.015,0.084-0.042,0.084c0,0.056,0,0.099,0,0.125
				c0,0.031,0,0.06,0,0.087s-0.014,0.056-0.044,0.083c0,0.056-0.013,0.098-0.041,0.124c0,0.028,0,0.059,0,0.086s0,0.069,0,0.125
				v0.041c0,0.058,0,0.099,0,0.128c0,0.026,0,0.056,0,0.083c0,0.029,0,0.071,0,0.126c0,0.028,0,0.056,0,0.083s0,0.056,0,0.086v0.083
				c0,0.029,0,0.07,0,0.125c0,0.027,0,0.056,0,0.084c0,0.028,0,0.057,0,0.084c0,0.054,0,0.096,0,0.125v0.084
				c0,0.028,0,0.071,0,0.125v0.042c0,0.057,0,0.099,0,0.127s0,0.056,0,0.083s0,0.072,0,0.128v0.041c0,0.056,0,0.098,0,0.125
				c0,0.029,0,0.057,0,0.084s0,0.07,0,0.125v0.043c0,0.056,0,0.097,0,0.126v0.042c0,0.028,0,0.069,0,0.125c0,0.028,0,0.056,0,0.083
				c0.028,0.029,0.056,0.057,0.084,0.084c0,0.058,0,0.098,0,0.126v0.083c0,0.029,0,0.07,0,0.127v0.042c0,0.056,0,0.097,0,0.125
				c0,0.029,0,0.056,0,0.084c0,0.028,0,0.071,0,0.127v0.041c0,0.058,0,0.1,0,0.126v0.083c0,0.028,0,0.07,0,0.127
				c0.028,0.029,0.042,0.055,0.042,0.084c0.029,0.026,0.055,0.055,0.083,0.083c0,0.059,0.015,0.099,0.044,0.127v0.083
				c0,0.029,0,0.057,0,0.084c0,0.029,0,0.057,0,0.084c0,0.055,0,0.098,0,0.125v0.084c0,0.028,0,0.07,0,0.126v0.041
				c0,0.056,0,0.1,0,0.127s0,0.056,0,0.084c0,0.028,0,0.068,0,0.125c0,0.029,0.012,0.041,0.042,0.041c0,0.057,0.014,0.1,0.041,0.127
				c0,0.029,0.016,0.056,0.041,0.085c0,0.027,0,0.068,0,0.124c0,0.028,0,0.056,0,0.084s0.016,0.057,0.044,0.084
				c0,0.056,0.013,0.098,0.042,0.125v0.086c0,0.027,0,0.055,0,0.083c0.028,0.028,0.041,0.056,0.041,0.083
				c0.028,0.056,0.042,0.099,0.042,0.126c0.028,0.028,0.042,0.058,0.042,0.084c0.026,0.027,0.042,0.056,0.042,0.083v0.084
				c0.029,0.056,0.057,0.096,0.084,0.125c0,0.028,0.014,0.059,0.042,0.086c0,0.028,0,0.069,0,0.125c0,0.028,0,0.055,0,0.084
				c0,0.029,0.012,0.058,0.042,0.084c0,0.027,0,0.07,0,0.125c0.028,0,0.041,0.028,0.041,0.084c0.029,0.028,0.044,0.056,0.044,0.084
				c0.029,0.028,0.042,0.056,0.042,0.083c0.028,0.056,0.041,0.099,0.041,0.127c0.028,0,0.042,0.028,0.042,0.083
				c0,0.028,0,0.055,0,0.084c0.028,0.026,0.057,0.057,0.084,0.085c0,0.056,0.015,0.096,0.041,0.124c0,0.028,0,0.056,0,0.085
				c0,0.028,0,0.055,0,0.083v0.082c0,0.057,0,0.101,0,0.128c0.028,0.028,0.057,0.056,0.085,0.083c0,0.028,0,0.069,0,0.126
				c0,0.028,0,0.056,0,0.083c0,0.029,0,0.057,0,0.084c0.028,0.028,0.056,0.071,0.083,0.126c0.028,0,0.042,0.03,0.042,0.084
				c0.028,0.028,0.042,0.056,0.042,0.083c0,0.029,0,0.057,0,0.084s0,0.07,0,0.125c0.028,0.028,0.043,0.056,0.043,0.084
				c0,0.028,0.014,0.056,0.042,0.084c0.029,0.056,0.057,0.083,0.083,0.083c0,0.056,0,0.1,0,0.127c0,0.027,0,0.057,0,0.084
				c0,0.027,0,0.055,0,0.083c0.03,0.057,0.058,0.1,0.085,0.127c0,0.028,0,0.056,0,0.083c0,0.028,0,0.071,0,0.127v0.042
				c0,0.056,0.014,0.098,0.043,0.126c0.028,0.029,0.056,0.057,0.083,0.084c0,0.028,0,0.069,0,0.125v0.085c0,0.027,0,0.056,0,0.083
				c0.028,0.028,0.042,0.054,0.042,0.083c0.028,0.027,0.056,0.069,0.083,0.127c0,0.028,0.014,0.055,0.042,0.083
				c0,0.029,0,0.057,0,0.084v0.084c0,0.028,0.013,0.068,0.041,0.126c0,0.027,0.015,0.055,0.042,0.084c0,0.027,0,0.056,0,0.083
				c0,0.056,0,0.097,0,0.125c0,0.029,0,0.057,0,0.086c0,0.027,0,0.068,0,0.124l0.043,0.043c0.027,0.057,0.055,0.099,0.083,0.126
				s0.042,0.056,0.042,0.084c0,0.028,0,0.07,0,0.126v0.042c0,0.056,0,0.097,0,0.125v0.087c0,0.027,0,0.068,0,0.122
				c0,0.029,0,0.057,0,0.087c0,0.026,0,0.056,0,0.082c0,0.056,0,0.098,0,0.127v0.084c0,0.028,0,0.055,0,0.083s0,0.056,0,0.083
				c0,0.056,0,0.1,0,0.128v0.082c0,0.031,0,0.072,0,0.129v0.04c0,0.057,0,0.099,0,0.127c0,0.029,0,0.057,0,0.084s0,0.069,0,0.125
				v0.041c0,0.059,0,0.1,0,0.128v0.083c0,0.028,0,0.071,0,0.126c0,0.029,0,0.056,0,0.083s0,0.057,0,0.084
				c0,0.057-0.015,0.097-0.042,0.126v0.042c0.028,0.027,0.042,0.07,0.042,0.126v0.042c-0.028,0.057-0.057,0.098-0.084,0.125
				c0,0.056-0.014,0.085-0.041,0.085c-0.029,0.028-0.043,0.056-0.043,0.083c-0.027,0-0.042,0.014-0.042,0.041
				c-0.111,0.028-0.196,0.057-0.25,0.084c-0.085,0-0.154,0.016-0.21,0.042c-0.057,0.028-0.1,0.056-0.127,0.084
				c-0.028,0.028-0.083,0.042-0.167,0.042c-0.057,0.029-0.126,0.042-0.21,0.042c-0.028,0.028-0.056,0.055-0.083,0.084
				c-0.057,0-0.111,0.015-0.168,0.04c-0.142,0-0.281,0.016-0.421,0.043c-0.027,0-0.057,0-0.083,0
				c-0.057,0.028-0.113,0.043-0.169,0.043c-0.196,0-0.378,0.013-0.547,0.041c-0.056,0.028-0.125,0.056-0.209,0.084
				c-0.477,0.028-0.953,0.042-1.428,0.042c-0.029,0.028-0.057,0.056-0.084,0.084c-0.056,0-0.111,0.015-0.168,0.042
				c-0.28,0.029-0.56,0.058-0.84,0.085c-0.028,0-0.057,0.013-0.084,0.041c-0.083,0.028-0.154,0.056-0.209,0.083
				c-0.084-0.028-0.154-0.056-0.21-0.083s-0.098-0.041-0.126-0.041h-0.042c-0.084,0-0.155-0.015-0.211-0.043
				c-0.083-0.057-0.139-0.098-0.169-0.125c-0.026-0.03-0.067-0.058-0.124-0.085c-0.028-0.029-0.058-0.07-0.084-0.125v-0.043
				c-0.028-0.056-0.042-0.097-0.042-0.126c0-0.028,0-0.056,0-0.084c-0.028-0.028-0.041-0.07-0.041-0.126
				c-0.03-0.026-0.056-0.042-0.086-0.042c0-0.057,0-0.097,0-0.125v-0.083c-0.028-0.03-0.056-0.072-0.083-0.128
				c-0.029-0.026-0.058-0.054-0.084-0.083c0-0.03-0.014-0.056-0.042-0.086c0-0.056,0-0.097,0-0.125l-0.044-0.083
				c0-0.028,0-0.071,0-0.128v-0.043c-0.027-0.055-0.056-0.096-0.083-0.125c-0.028-0.028-0.054-0.056-0.083-0.083
				c0-0.027,0-0.07,0-0.125v-0.044c0-0.056-0.015-0.097-0.041-0.125c-0.03-0.056-0.058-0.083-0.085-0.083
				c0-0.028-0.013-0.071-0.041-0.128c0-0.028,0-0.056,0-0.083c0-0.029,0-0.057,0-0.085c0-0.056-0.015-0.099-0.042-0.125v-0.083
				c0-0.028,0-0.057,0-0.085c0-0.028,0-0.056,0-0.083c0-0.056,0-0.098,0-0.126v-0.084c-0.028-0.028-0.056-0.069-0.083-0.125
				c-0.029,0-0.058-0.015-0.085-0.043C60,26.53,59.986,26.488,59.986,26.46c-0.028-0.028-0.057-0.056-0.084-0.083
				c0-0.03-0.013-0.072-0.042-0.128v-0.041c0-0.056,0-0.097,0-0.126v-0.084c0-0.028,0-0.069,0-0.124
				c0-0.028-0.013-0.059-0.041-0.087c0-0.027-0.014-0.056-0.042-0.082c0-0.056,0-0.099,0-0.128v-0.083c0-0.028,0-0.056,0-0.084
				c0-0.027,0-0.055,0-0.084c0-0.055,0-0.099,0-0.126c-0.029-0.028-0.057-0.056-0.086-0.082c-0.028-0.031-0.041-0.071-0.041-0.128
				v-0.043c0-0.054,0-0.098,0-0.125c0-0.029,0-0.057,0-0.084c0-0.027,0-0.069,0-0.125c0-0.028,0-0.057,0-0.085
				c0-0.027,0-0.057,0-0.084c0-0.027,0-0.069,0-0.125v-0.083c-0.028-0.028-0.041-0.057-0.041-0.084
				c-0.03-0.027-0.042-0.056-0.042-0.085c0-0.056-0.015-0.097-0.043-0.125v-0.084c0-0.029,0-0.057,0-0.084s0-0.056,0-0.083
				c0-0.057,0-0.097,0-0.126c0-0.028,0-0.056,0-0.083s0-0.056,0-0.084v-0.085c0-0.056,0-0.097,0-0.125s0-0.056,0-0.084
				c0-0.03,0-0.071,0-0.126c0-0.027,0-0.055,0-0.084c0-0.027,0-0.055,0-0.084c0-0.027,0-0.069,0-0.126v-0.083
				c0-0.029-0.013-0.057-0.041-0.084c-0.03-0.028-0.058-0.056-0.084-0.083c-0.029-0.028-0.043-0.07-0.043-0.128
				c0-0.027,0-0.056,0-0.083c0-0.028,0-0.057,0-0.084v-0.085c0-0.054,0-0.097,0-0.125s0-0.057,0-0.084c0-0.028,0-0.056,0-0.084
				c0-0.056,0-0.098,0-0.125s0-0.056,0-0.084c0-0.028,0-0.069,0-0.125v-0.043c0-0.058,0-0.098,0-0.126s0-0.056,0-0.084
				c0-0.027,0-0.068,0-0.125v-0.084c0-0.028,0-0.056,0-0.083s0-0.056,0-0.084c-0.027-0.028-0.056-0.072-0.083-0.127
				c0-0.026,0-0.054,0-0.083c0-0.027,0-0.057,0-0.084v-0.083c0-0.028,0-0.069,0-0.128c0-0.028,0-0.056,0-0.083
				c0-0.027,0-0.055,0-0.083c0-0.056,0-0.1,0-0.127c0-0.028,0-0.057,0-0.084s0-0.069,0-0.125v-0.043c0-0.054,0-0.097,0-0.123
				c0-0.03,0-0.057,0-0.087c0-0.027,0-0.068,0-0.125v-0.043c0-0.057,0-0.098,0-0.125v-0.085c0-0.028,0-0.068,0-0.125
				c0-0.028,0-0.056,0-0.083c0-0.029,0-0.057,0-0.084c-0.028-0.056-0.042-0.098-0.042-0.126c-0.028,0-0.057-0.028-0.084-0.083
				c0-0.028,0-0.056,0-0.083s0-0.058,0-0.084c0-0.058,0-0.099,0-0.126v-0.084c0-0.028,0-0.07,0-0.125v-0.042
				c0-0.057,0-0.099,0-0.127s0-0.056,0-0.083s0-0.069,0-0.127v-0.042c0-0.055,0-0.097,0-0.125v-0.084c0-0.028,0-0.071,0-0.125
				c0-0.029,0-0.057,0-0.084c0-0.029,0-0.057,0-0.084c0-0.056,0-0.099,0-0.126v-0.084c0-0.028,0-0.069,0-0.126V16.84
				c0-0.056-0.013-0.099-0.041-0.127s-0.072-0.041-0.127-0.041c0-0.029-0.013-0.071-0.042-0.127v-0.042c0-0.057,0-0.098,0-0.127
				v-0.125c-0.056-0.028-0.097-0.07-0.125-0.125c-0.029-0.028-0.058-0.041-0.085-0.041c0-0.057,0-0.101,0-0.128s0-0.056,0-0.083
				s0-0.07,0-0.127c0-0.028-0.013-0.042-0.041-0.042c-0.028-0.028-0.056-0.055-0.085-0.083l-0.083-0.043
				c-0.111-0.028-0.195-0.058-0.252-0.084c-0.026,0-0.068-0.029-0.124-0.084V15.37c-0.029-0.028-0.057-0.043-0.084-0.043
				c-0.085,0-0.169-0.014-0.252-0.042h-0.083c-0.028,0-0.07,0-0.126,0s-0.142,0-0.253,0c-0.057,0-0.139,0-0.252,0
				c-0.056,0-0.126,0.015-0.209,0.042c0,0.056-0.013,0.097-0.041,0.126c-0.085,0.029-0.141,0.055-0.169,0.085
				c-0.057,0.028-0.112,0.068-0.169,0.124c0,0.029-0.013,0.042-0.041,0.042c0,0.056,0,0.098,0,0.126
				c-0.056,0.057-0.099,0.084-0.126,0.084c-0.027,0.027-0.056,0.069-0.084,0.126c-0.056,0.028-0.099,0.057-0.126,0.084
				c-0.057,0.027-0.083,0.056-0.083,0.082l-0.042,0.087c-0.056,0.027-0.097,0.069-0.126,0.125c-0.028,0.028-0.069,0.057-0.126,0.084
				c-0.028,0.028-0.055,0.056-0.083,0.083l-0.044,0.085c-0.056,0-0.125,0.028-0.208,0.082c-0.029,0.03-0.07,0.071-0.126,0.127
				c-0.028,0-0.056,0.016-0.083,0.043c0,0.055-0.015,0.099-0.045,0.126c-0.054,0.028-0.096,0.056-0.124,0.083
				s-0.056,0.069-0.084,0.125c-0.027,0.029-0.055,0.042-0.084,0.042c-0.055,0.055-0.125,0.098-0.208,0.124
				c-0.029,0.059-0.057,0.086-0.085,0.086c-0.028,0.029-0.071,0.069-0.126,0.125c-0.056,0.03-0.098,0.057-0.124,0.084
				c-0.028,0.028-0.058,0.058-0.085,0.085c-0.028,0.056-0.056,0.097-0.083,0.125l-0.083,0.083c-0.029,0.029-0.058,0.059-0.085,0.086
				c-0.083,0.027-0.167,0.042-0.25,0.042c-0.057,0.026-0.112,0.055-0.17,0.083c-0.027,0.059-0.056,0.099-0.083,0.127
				c-0.028,0-0.068,0.028-0.126,0.083c-0.084,0.029-0.167,0.057-0.251,0.084c-0.112,0.029-0.209,0.057-0.295,0.084
				c-0.083,0.055-0.14,0.098-0.169,0.125c-0.054,0-0.109,0.028-0.167,0.084c-0.056,0.028-0.111,0.056-0.167,0.083
				c-0.111,0-0.21,0.015-0.294,0.043c-0.029,0-0.056,0-0.083,0c-0.058,0-0.113,0-0.169,0c-0.224,0.028-0.463,0.056-0.715,0.083
				c-0.083,0.029-0.153,0.057-0.209,0.084c-0.587,0-1.176,0-1.765,0c-0.055-0.028-0.139-0.056-0.251-0.084
				c-0.14-0.028-0.295-0.056-0.462-0.083c-0.055,0-0.125,0-0.21,0c0-0.057-0.028-0.099-0.084-0.126
				c-0.028-0.056-0.071-0.084-0.126-0.084c0-0.028-0.015-0.071-0.042-0.125c-0.056-0.028-0.097-0.056-0.125-0.084
				c-0.058-0.028-0.142-0.056-0.252-0.084c0-0.056-0.028-0.083-0.085-0.083c-0.056-0.028-0.097-0.068-0.125-0.127
				c-0.029-0.028-0.071-0.057-0.127-0.083c0,0.026-0.015,0.055-0.043,0.083c-0.027,0.059-0.041,0.099-0.041,0.127
				c-0.029,0-0.058,0.028-0.085,0.083c0,0.029,0,0.057,0,0.084c-0.026,0.029-0.041,0.057-0.041,0.084
				c-0.029,0.055-0.042,0.098-0.042,0.125c-0.027,0-0.056,0.028-0.083,0.084c0,0.028-0.015,0.07-0.043,0.126
				c-0.028,0-0.056,0.014-0.083,0.041c0,0.056,0,0.1,0,0.127s0,0.056,0,0.084c-0.028,0.028-0.042,0.068-0.042,0.125l-0.042,0.041
				c-0.028,0.057-0.043,0.1-0.043,0.127c-0.027,0.029-0.056,0.056-0.083,0.085c0,0.027,0,0.068,0,0.124c0,0.028,0,0.056,0,0.084
				s0,0.057,0,0.084c0,0.056-0.014,0.098-0.042,0.125l-0.044,0.086c-0.027,0.027-0.055,0.055-0.083,0.083c0,0.028,0,0.056,0,0.083
				c0,0.056,0,0.099,0,0.126c0,0.028,0,0.058,0,0.084c-0.029,0.027-0.042,0.056-0.042,0.083c0,0.057-0.014,0.084-0.043,0.084
				c-0.029,0.056-0.041,0.096-0.041,0.125c-0.029,0.028-0.043,0.059-0.043,0.086c-0.029,0.028-0.056,0.069-0.085,0.125
				c0,0.028,0,0.055,0,0.084c0,0.029,0,0.058,0,0.084s-0.013,0.07-0.041,0.125c-0.028,0-0.056,0.028-0.083,0.084
				c0,0.028-0.015,0.056-0.042,0.084c0,0.028,0,0.056,0,0.083c-0.028,0.056-0.042,0.099-0.042,0.127v0.083c0,0.028,0,0.055,0,0.084
				c0,0.026,0,0.057,0,0.085c0,0.056,0,0.096,0,0.124s0,0.056,0,0.085c0,0.028,0,0.055,0,0.083l-0.042,0.082
				c-0.028,0.057-0.041,0.101-0.041,0.128c-0.03,0.028-0.058,0.056-0.086,0.083c0,0.028,0,0.069,0,0.126c0,0.028,0,0.056,0,0.083
				c0,0.029,0,0.057,0,0.084s0,0.071,0,0.126v0.084c0,0.028,0,0.056,0,0.083c-0.028,0.029-0.042,0.057-0.042,0.084
				s-0.014,0.07-0.042,0.125c-0.028,0.028-0.057,0.056-0.083,0.084c0,0.028,0,0.056,0,0.084v0.083c0,0.056,0,0.1,0,0.127
				c0,0.027,0,0.057,0,0.084c0,0.027,0,0.055,0,0.083c0,0.057,0,0.1,0,0.127c-0.028,0.028-0.042,0.056-0.042,0.083
				c-0.029,0.028-0.042,0.071-0.042,0.127v0.042c0,0.056,0,0.098,0,0.126c0,0.029,0,0.057,0,0.084s0,0.069,0,0.125v0.085
				c0,0.027,0,0.056,0,0.083s0,0.054,0,0.083c0,0.027,0,0.069,0,0.127c0,0.028,0,0.055,0,0.083c0,0.029,0,0.057,0,0.084v0.084
				c0,0.028,0,0.068,0,0.126c0,0.027,0,0.055,0,0.084c0,0.027,0,0.056,0,0.083c0,0.056,0,0.097,0,0.125c0,0.029,0,0.057,0,0.086
				c0,0.027,0,0.068,0,0.124v0.043c0,0.057,0,0.099,0,0.126s0,0.056,0,0.084c0,0.028,0,0.07,0,0.126v0.042c0,0.056,0,0.097,0,0.125
				v0.087c0,0.027,0,0.068,0,0.122c0,0.029,0,0.057,0,0.087c0,0.026,0,0.056,0,0.082c0,0.056,0,0.098,0,0.127v0.084
				c0,0.028,0,0.055,0,0.083s0,0.056,0,0.083c0,0.056,0,0.1,0,0.128v0.082c0,0.031,0,0.072,0,0.129v0.04c0,0.057,0,0.099,0,0.127
				c0,0.029,0,0.057,0,0.084s0,0.069,0,0.125v0.041c0,0.059,0,0.1,0,0.128v0.083c0,0.028,0,0.071,0,0.126c0,0.029,0,0.056,0,0.083
				s0,0.057,0,0.084c0,0.057,0,0.097,0,0.126v0.083c0,0.028,0,0.071,0,0.127v0.042c0,0.056,0,0.097,0,0.125c0,0.029,0,0.059,0,0.086
				c0,0.026,0,0.069,0,0.123v0.043c0,0.057,0,0.098,0,0.126c0,0.028,0,0.056,0,0.084c0,0.028,0,0.071,0,0.125
				c0,0.031,0,0.059,0,0.086s0,0.055,0,0.083l-0.044,0.084c-0.026,0.028-0.054,0.07-0.082,0.126
				c-0.027,0.029-0.058,0.058-0.085,0.085c-0.056,0-0.111,0-0.169,0v0.041c0,0.056,0,0.098,0,0.125s0,0.056,0,0.084
				c0,0.028,0,0.071,0,0.127v0.041c0,0.056,0,0.099,0,0.126c0,0.03,0,0.058,0,0.084s0,0.07,0,0.126c0,0.029,0,0.057,0,0.084
				c-2.435,0-4.871,0-7.31,0v-0.042c0-0.028,0-0.056,0-0.084v-0.083c0-0.027,0-0.069,0-0.126c0-0.029,0-0.057,0-0.084
				s0-0.056,0-0.083c0-0.057,0-0.1,0-0.126V30.03c0-0.028,0-0.068,0-0.124v-0.043c-0.278,0-0.559,0-0.839,0
				c-0.028,0-0.056,0.016-0.083,0.043c-0.056,0-0.113,0-0.168,0c-0.084,0-0.154,0-0.211,0c-0.055,0-0.099,0-0.126,0
				c-0.057,0-0.111,0-0.168,0c-0.083,0-0.152,0-0.208,0c-0.086,0-0.155-0.015-0.211-0.043c-0.056-0.057-0.098-0.098-0.125-0.125
				c-0.03-0.03-0.057-0.058-0.085-0.085c0-0.029,0-0.07,0-0.125v-0.043c0-0.056,0-0.097,0-0.126
				c-0.028-0.028-0.057-0.056-0.083-0.084c-0.028-0.028-0.057-0.07-0.086-0.126v-0.042c0-0.057,0-0.097,0-0.125v-0.083
				c0-0.03,0-0.072,0-0.128c0-0.026,0-0.054,0-0.083c0-0.03,0-0.056,0-0.086c0-0.056,0-0.097,0-0.125v-0.083
				c0-0.028,0-0.071,0-0.128v-0.043c0-0.055,0-0.096,0-0.125c0-0.028,0-0.056,0-0.083c-0.027-0.027-0.041-0.07-0.041-0.125v-0.044
				c0-0.056,0-0.097,0-0.125v-0.083c0-0.028,0-0.071,0-0.128c0-0.028,0-0.056,0-0.083c0-0.029,0-0.057,0-0.085
				c0-0.056,0-0.099,0-0.125v-0.083c0-0.028,0-0.057,0-0.085c0-0.028,0-0.056,0-0.083c0-0.056,0-0.098,0-0.126v-0.084
				c0-0.028,0-0.069,0-0.125v-0.043c0-0.056,0-0.098,0-0.125s0-0.056,0-0.083c0-0.03,0-0.072,0-0.128v-0.041
				c0-0.056,0-0.097,0-0.126v-0.084c0-0.028,0-0.069,0-0.124c0.028-0.028,0.041-0.059,0.041-0.087c0-0.027,0-0.056,0-0.082
				c0-0.056,0-0.099,0-0.128v-0.083c0-0.028,0-0.056,0-0.084c0-0.027,0-0.055,0-0.084c0-0.055,0-0.099,0-0.126s0-0.056,0-0.082
				c0-0.031,0-0.071,0-0.128v-0.043c0-0.054,0-0.098,0-0.125c0-0.029,0-0.057,0-0.084c0-0.027,0-0.069,0-0.125
				c0-0.028,0-0.057,0-0.085c0-0.027,0-0.057,0-0.084c0-0.027,0-0.069,0-0.125v-0.083c0-0.028,0-0.057,0-0.084
				c0-0.027,0-0.056,0-0.085c0-0.056,0-0.097,0-0.125v-0.084c0-0.029,0-0.057,0-0.084c0.03-0.028,0.043-0.056,0.043-0.083
				c0.057-0.057,0.098-0.097,0.126-0.126c0-0.028,0-0.056,0-0.083s0-0.056,0-0.084v-0.085c0-0.056,0-0.097,0-0.125s0-0.056,0-0.084
				c0-0.03,0-0.071,0-0.126c0-0.027,0.014-0.055,0.043-0.084c0.026-0.027,0.056-0.055,0.083-0.084c0-0.027,0.014-0.069,0.041-0.126
				v-0.083c0-0.029,0-0.057,0-0.084s0.015-0.056,0.043-0.083c0-0.028,0-0.07,0-0.128c0-0.027,0-0.056,0-0.083
				c0-0.028,0-0.057,0-0.084v-0.085c0-0.054,0-0.097,0-0.125s0-0.057,0-0.084c0.028-0.028,0.042-0.056,0.042-0.084
				c0.057-0.056,0.098-0.098,0.125-0.125c0.028-0.028,0.044-0.056,0.044-0.084c0.026-0.028,0.057-0.069,0.084-0.125l0.041-0.043
				c0-0.058,0-0.098,0-0.126s0.013-0.056,0.043-0.084c0-0.027,0.013-0.068,0.041-0.125v-0.084c0-0.028,0-0.056,0-0.083
				c0.028-0.028,0.043-0.056,0.043-0.084c0.028-0.028,0.042-0.072,0.042-0.127c0.026-0.026,0.041-0.054,0.041-0.083
				c0-0.027,0-0.057,0-0.084l0.042-0.083c0-0.028,0.014-0.069,0.042-0.128c0.029-0.028,0.071-0.056,0.127-0.083
				c0.028-0.027,0.056-0.055,0.083-0.083c0-0.056,0-0.1,0-0.127c0.028-0.028,0.041-0.057,0.041-0.084
				c0.029-0.028,0.044-0.069,0.044-0.125v-0.043c0-0.054,0-0.097,0-0.123c0.027-0.03,0.055-0.057,0.084-0.087
				c0-0.027,0.015-0.068,0.041-0.125c0.03-0.028,0.056-0.043,0.085-0.043c0.028-0.057,0.056-0.098,0.083-0.125v-0.085
				c0-0.028,0.014-0.068,0.041-0.125c0.028-0.028,0.043-0.056,0.043-0.083c0-0.029,0-0.057,0-0.084c0-0.056,0-0.098,0-0.126
				c0.027,0,0.056-0.028,0.084-0.083c0.028-0.028,0.042-0.056,0.042-0.083s0.014-0.058,0.041-0.084
				c0.028-0.058,0.055-0.099,0.083-0.126c0.03,0,0.058-0.028,0.086-0.084c0-0.028,0.014-0.07,0.042-0.125v-0.042
				c0-0.057,0-0.099,0-0.127c0.027-0.028,0.056-0.056,0.082-0.083c0.03-0.028,0.058-0.069,0.085-0.127v-0.042
				c0-0.055,0-0.097,0-0.125v-0.084c0-0.028,0.015-0.071,0.043-0.125c0.028-0.029,0.056-0.057,0.083-0.084
				c0-0.029,0.013-0.057,0.041-0.084c0-0.056,0-0.099,0-0.126v-0.084c0-0.028,0-0.069,0-0.126V16.84
				c0-0.056,0.015-0.099,0.043-0.127v-0.041c0-0.029,0-0.071,0-0.127v-0.042c0-0.057,0-0.098,0-0.127v-0.082c0-0.03,0-0.071,0-0.128
				c0-0.026,0-0.056,0-0.082c-0.028-0.029-0.043-0.057-0.043-0.085v-0.084c0-0.028,0-0.07,0-0.126
				c-0.028-0.029-0.041-0.057-0.041-0.084c-0.028-0.028-0.056-0.055-0.083-0.083c-0.028-0.056-0.043-0.101-0.043-0.127l-0.085-0.084
				c-0.026-0.028-0.055-0.068-0.082-0.125v-0.043c-0.029-0.054-0.042-0.097-0.042-0.125c-0.029-0.028-0.057-0.056-0.086-0.084
				c-0.028-0.029-0.055-0.07-0.083-0.126l-0.041-0.041c0-0.056-0.014-0.098-0.042-0.128c-0.029-0.027-0.072-0.056-0.128-0.083
				c-0.027-0.029-0.041-0.071-0.041-0.126c0-0.027,0-0.057,0-0.084c-0.028-0.028-0.07-0.056-0.126-0.083
				c-0.056-0.056-0.083-0.1-0.083-0.128l-6.891,0.044c-1.597,0.028-3.194,0.042-4.788,0.042c-0.029,0.028-0.057,0.069-0.086,0.125
				c-0.027,0-0.056,0.013-0.084,0.041c-0.055,0-0.097,0-0.125,0c-0.056,0-0.112,0-0.169,0c-0.055,0-0.125-0.013-0.21-0.041
				c-0.056-0.028-0.109-0.056-0.167-0.083c-0.028-0.056-0.057-0.1-0.085-0.128c-0.026,0-0.054-0.026-0.083-0.083
				c0-0.028,0-0.056,0-0.083v-0.041c-0.028-0.028-0.057-0.044-0.084-0.044c-0.029-0.057-0.041-0.099-0.041-0.127
				c-0.029-0.027-0.058-0.055-0.086-0.082c0-0.03,0-0.058,0-0.085v-0.083c0-0.056,0-0.098,0-0.126c0-0.03,0-0.058,0-0.084
				c0-0.028,0-0.071,0-0.126c0-0.026,0-0.058,0-0.083c0-0.028,0-0.059,0-0.086s0-0.054,0-0.083c0-0.029,0-0.071,0-0.127
				c0-0.028,0-0.056,0-0.084c0-0.026,0-0.054,0-0.084c0-0.026,0-0.067,0-0.124v-0.084c0-0.029,0-0.056,0-0.083
				c0-0.03,0-0.059,0-0.086c0-0.056,0-0.097,0-0.125c0-0.028,0-0.056,0-0.085c0-0.027,0-0.055,0-0.083v-0.085
				c0-0.056,0-0.097,0-0.125c0-0.029,0-0.056,0-0.084c0-0.026,0-0.057,0-0.083c0-0.057,0-0.097,0-0.126c0-0.028,0-0.056,0-0.084
				c0-0.028,0-0.071,0-0.127v-0.082c0-0.029,0-0.057,0-0.085s0-0.056,0-0.083c0-0.029,0-0.073,0-0.129c0-0.028,0-0.056,0-0.083
				s0-0.056,0-0.083v-0.084c0-0.028,0-0.07,0-0.125c0-0.03,0-0.057,0-0.084v-0.043c-0.167,0-0.349,0-0.545,0
				c-0.083,0-0.152,0-0.21,0c-0.083-0.027-0.167-0.056-0.25-0.083c-0.028-0.028-0.056-0.056-0.083-0.083
				c-0.03,0-0.058,0.015-0.085,0.042c-0.083-0.028-0.154-0.056-0.21-0.084c-0.029-0.027-0.056-0.071-0.085-0.127
				c-0.028,0-0.055-0.026-0.083-0.083c0-0.028,0-0.056,0-0.084V9.907H2.894v0.756l-0.041,0.084L2.808,10.79v0.504h0.044l0.041,0.041
				l-0.041,0.084l-0.759,8.235l-0.041,0.041v0.084l-0.042,0.043l-0.379,1.261l-1.345,0.126V7.386h0.086L0.54,7.345V7.304h0.084
				L0.75,7.386l0.083,0.084v0.084H3.02l0.125,0.042l0.043,0.041l0.083,0.042h19.283c0.252,0,0.49,0,0.715,0
				c0.7,0,1.4-0.014,2.099-0.042c0.029,0,0.058,0,0.085,0c0.057,0,0.112,0,0.168,0V7.598c0-0.028,0-0.056,0-0.086V7.427
				c0-0.027,0-0.069,0-0.124c0-0.028,0-0.058,0-0.083c0-0.028,0-0.057,0-0.085c0-0.057,0-0.098,0-0.126V6.923
				c0-0.028,0-0.068,0-0.124V6.757c0-0.059,0-0.098,0-0.127c0-0.028,0-0.056,0-0.083c0-0.027,0-0.071,0-0.126V6.377
				c0-0.054,0-0.097,0-0.125V6.168c0-0.028,0-0.07,0-0.126c0-0.027,0-0.056,0-0.083c0-0.029,0-0.057,0-0.084
				c0-0.057,0-0.097,0-0.125V5.665c0-0.028,0-0.071,0-0.127V5.497c0-0.056,0-0.098,0-0.126c0-0.03,0-0.057,0-0.083
				c0-0.028,0-0.07,0-0.127V5.118c0-0.056,0-0.098,0-0.125s0-0.056,0-0.084s0-0.07,0-0.127V4.74c0-0.056,0-0.099,0-0.126V4.53
				c0-0.027,0-0.07,0-0.127c0-0.028,0-0.056,0-0.083s0-0.055,0-0.083c0-0.056,0-0.1,0-0.127V4.025c0-0.028,0-0.056,0-0.083
				c0-0.029,0-0.057,0-0.084c0-0.055,0-0.098,0-0.126c0-0.027,0-0.057,0-0.084s0-0.068,0-0.124V3.48c0-0.056,0-0.099,0-0.127
				s0.014-0.056,0.042-0.083c0.056-0.028,0.097-0.07,0.125-0.126c0.03,0,0.085,0,0.169,0C25.985,3.115,26,3.088,26,3.06l0.042-0.043
				c0.027-0.028,0.056-0.042,0.083-0.042c0.056,0,0.111,0,0.169,0V2.934c1.819,0,3.626,0,5.417,0c0-0.03,0-0.057,0-0.084
				s0-0.07,0-0.126c0-0.027,0-0.058,0-0.084c0-0.029,0-0.057,0-0.084c0-0.027,0-0.055,0-0.083V2.43c0.059,0,0.126-0.016,0.21-0.044
				c0-0.026,0-0.054,0-0.082V2.221C31.979,2.162,32.035,2.121,32.092,2.094z M49.945,16.881c-0.7-0.7-1.091-1.511-1.175-2.437
				c-0.112,0.084-0.211,0.169-0.294,0.252c-0.364,0.365-0.645,0.769-0.841,1.218c0.028,0.027,0.07,0.069,0.128,0.126
				c0.754,0.728,1.624,1.134,2.604,1.218C50.227,17.147,50.084,17.023,49.945,16.881z M54.566,14.866
				c-0.056-0.056-0.111-0.114-0.167-0.169c-0.814-0.813-1.794-1.218-2.942-1.218c-0.446,0-0.868,0.07-1.26,0.209
				c-0.057,0.25-0.085,0.532-0.085,0.84c0,1.038,0.337,1.947,1.01,2.73c0.979-0.084,1.833-0.491,2.563-1.218
				C54.049,15.677,54.342,15.285,54.566,14.866z M36.208,28.77c0-0.026,0-0.054,0-0.083h-0.043c0,0.057,0.015,0.098,0.043,0.125
				V28.77z"/>
</svg>
