<?xml version="1.0"?>
<svg xmlns="http://www.w3.org/2000/svg" viewBox="0 0 36 36" fill="none">
  <path fill-rule="evenodd" clip-rule="evenodd" d="M7.3934 28.6067C13.2513 34.4645 22.7487 34.4645 28.6066 28.6067C34.4645 22.7488 34.4645 13.2513 28.6066 7.39346C22.7487 1.53559 13.2513 1.53559 7.3934 7.39346C1.53553 13.2513 1.53553 22.7488 7.3934 28.6067ZM21.9522 21.9523C19.0241 24.8805 15.291 26.5132 11.4652 26.8504C11.0311 26.5291 10.6153 26.1717 10.2218 25.7782C5.92606 21.4825 5.92606 14.5177 10.2218 10.2219C14.5176 5.92612 21.4824 5.92612 25.7782 10.2219C26.1716 10.6153 26.529 11.0311 26.8504 11.4652C26.5131 15.291 24.8804 19.0241 21.9522 21.9523Z" fill="currentColor"/>
</svg>
