<?xml version="1.0"?>
<svg width="36" height="36" viewBox="0 0 36 36" fill="none" xmlns="http://www.w3.org/2000/svg">
  <path d="M34 9.42197C32.4337 7.40864 29.497 6.99082 27.4217 8.47232L16.6537 16.2215L13.3254 13.8283C12.973 13.5625 12.7772 13.1065 12.8947 12.6887C13.0905 11.891 13.1296 11.0553 12.9339 10.1817C12.464 8.09242 10.6627 6.42103 8.47002 6.07916C5.02425 5.50936 2.00921 8.09249 2.00921 11.3592C2.00921 14.3222 4.47613 16.7153 7.53026 16.7153C8.58742 16.7153 9.52721 16.4494 10.3887 15.9556C10.7803 15.7277 11.2894 15.7656 11.6417 16.0315L14.8525 18.3486L11.6417 20.6657C11.2892 20.9316 10.7803 20.9697 10.3887 20.7417C9.2923 20.096 7.96112 19.83 6.55142 20.0579C4.20203 20.4757 2.36168 22.337 2.04843 24.6542C1.57862 28.1489 4.5936 31.0739 8.19599 30.694C10.6236 30.4281 12.6207 28.5668 13.0122 26.2116C13.1298 25.4519 13.0905 24.6922 12.8947 24.0084C12.7772 23.5905 12.973 23.1346 13.3254 22.8688L16.6537 20.4756L27.4217 28.2248C29.4971 29.7442 32.4337 29.3264 34 27.2751L21.5874 18.3483L34 9.42197ZM7.53026 13.6005C6.27732 13.6005 5.22 12.6128 5.22 11.3592C5.22 10.1437 6.23803 9.11802 7.53026 9.11802C8.7832 9.11802 9.84052 10.1056 9.84052 11.3592C9.84052 12.5749 8.82249 13.6005 7.53026 13.6005ZM7.53026 27.5794C6.27732 27.5794 5.22 26.5918 5.22 25.3382C5.22 24.1227 6.23803 23.0969 7.53026 23.0969C8.7832 23.0969 9.84052 24.0846 9.84052 25.3382C9.84052 26.5537 8.82249 27.5794 7.53026 27.5794ZM18.6115 19.4123C18.0242 19.4123 17.5151 18.9185 17.5151 18.3487C17.5151 17.7789 18.0242 17.285 18.6115 17.285C19.1989 17.285 19.708 17.7789 19.708 18.3487C19.7078 18.9185 19.238 19.4123 18.6115 19.4123Z" fill="currentColor"/>
</svg>
