<?xml version="1.0"?>
<svg xmlns="http://www.w3.org/2000/svg" viewBox="0 0 36 36" fill="none">
  <path fill="currentColor" d="M11 32V33.601C11 34.926 12.0446 36 13.3333 36H22.6667C23.9554 36 25 34.926 25 33.601V32C22.7984 32.523 20.4394 32.8029 18 32.8029C15.5606 32.8029 13.2016 32.523 11 32Z"/>
  <path fill="currentColor" d="M23.1111 0H12L17.5556 5.625L23.1111 0Z"/>
  <path fill="currentColor" fill-rule="evenodd" clip-rule="evenodd" d="M18 30.75C27.9411 30.75 36 25.7132 36 19.5C36 13.2868 27.9411 8.25 18 8.25C8.05887 8.25 0 13.2868 0 19.5C0 25.7132 8.05887 30.75 18 30.75ZM25.4679 14.284C24.7852 13.7613 23.7879 13.5 22.4759 13.5C21.6972 13.5 20.9666 13.6173 20.2839 13.852C19.6119 14.0867 19.0092 14.4227 18.4759 14.86L19.4679 16.364C19.8199 16.0973 20.2146 15.8893 20.6519 15.74C21.0999 15.58 21.5639 15.5 22.0439 15.5C22.6732 15.5 23.1639 15.6227 23.5159 15.868C23.8786 16.1133 24.0599 16.4387 24.0599 16.844C24.0599 17.2813 23.8679 17.6227 23.4839 17.868C23.1106 18.1027 22.6146 18.22 21.9959 18.22H20.6999V19.996H22.1399C23.7079 19.996 24.4919 20.508 24.4919 21.532C24.4919 22.0547 24.2839 22.4653 23.8679 22.764C23.4626 23.0627 22.8972 23.212 22.1719 23.212C21.0306 23.212 20.0439 22.876 19.2119 22.204L18.2039 23.932C18.7052 24.3373 19.3186 24.652 20.0439 24.876C20.7799 25.1 21.5532 25.212 22.3639 25.212C23.2172 25.212 23.9959 25.068 24.6999 24.78C25.4039 24.4813 25.9586 24.0653 26.3639 23.532C26.7692 22.988 26.9719 22.364 26.9719 21.66C26.9719 20.892 26.7479 20.2787 26.2999 19.82C25.8626 19.3507 25.2866 19.0413 24.5719 18.892V18.844C25.1799 18.6093 25.6492 18.2733 25.9799 17.836C26.3212 17.388 26.4919 16.8813 26.4919 16.316C26.4919 15.484 26.1506 14.8067 25.4679 14.284ZM9.48901 24.956H17.009V22.844H11.841V13.756H9.48901V24.956Z"/>
</svg>
