<?xml version="1.0"?>
<svg xmlns="http://www.w3.org/2000/svg" viewBox="0 0 32 32" fill="none">
  <path fill="currentColor" d="M21.0909 7.09091C21.0909 9.90254 18.8117 12.1818 16 12.1818C13.1884 12.1818 10.9091 9.90254 10.9091 7.09091C10.9091 4.27928 13.1884 2 16 2C18.8117 2 21.0909 4.27928 21.0909 7.09091Z"/>
  <path fill="currentColor" d="M21.0909 24.9091C21.0909 22.0975 18.8117 19.8182 16 19.8182C13.1884 19.8182 10.9091 22.0975 10.9091 24.9091C10.9091 27.7207 13.1884 30 16 30C18.8117 30 21.0909 27.7207 21.0909 24.9091Z"/>
  <path fill="currentColor" d="M7.09091 10.9091C9.90254 10.9091 12.1818 13.1884 12.1818 16C12.1818 18.8117 9.90254 21.0909 7.09091 21.0909C4.27928 21.0909 2 18.8117 2 16C2 13.1884 4.27928 10.9091 7.09091 10.9091Z"/>
  <path fill="currentColor" d="M24.9091 10.9091C22.0975 10.9091 19.8182 13.1884 19.8182 16C19.8182 18.8117 22.0975 21.0909 24.9091 21.0909C27.7207 21.0909 30 18.8117 30 16C30 13.1884 27.7207 10.9091 24.9091 10.9091Z"/>
</svg>
