<?xml version="1.0"?>
<svg xmlns="http://www.w3.org/2000/svg" viewBox="0 0 36 36" fill="none">
  <path fill="currentColor" fill-rule="evenodd" clip-rule="evenodd" d="M13 7H34V29H13V25H10V29H2V21C3.65685 21 5 19.6569 5 18C5 16.3431 3.65685 15 2 15V7H10V11H13V7ZM13 23H10V19H13V23ZM10 17H13V13H10V17ZM21 15C21 15.5523 20.5523 16 20 16C19.4477 16 19 15.5523 19 15C19 14.4477 19.4477 14 20 14C20.5523 14 21 14.4477 21 15ZM23 15C23 16.6569 21.6569 18 20 18C18.3431 18 17 16.6569 17 15C17 13.3431 18.3431 12 20 12C21.6569 12 23 13.3431 23 15ZM28 23C28.5523 23 29 22.5523 29 22C29 21.4477 28.5523 21 28 21C27.4477 21 27 21.4477 27 22C27 22.5523 27.4477 23 28 23ZM28 25C29.6569 25 31 23.6569 31 22C31 20.3431 29.6569 19 28 19C26.3431 19 25 20.3431 25 22C25 23.6569 26.3431 25 28 25ZM27.1679 11.9453L19.1679 23.9453L20.832 25.0547L28.832 13.0547L27.1679 11.9453Z"/>
</svg>
