<?xml version="1.0"?>
<svg xmlns="http://www.w3.org/2000/svg" version="1.1" viewBox="0 0 1024 1024">
  <path d="M327.6,69.9c-47.4,2.2-79.7,9.8-108,20.9-29.3,11.4-54.1,26.7-78.8,51.5-24.7,24.8-39.9,49.6-51.2,78.9-11,28.3-18.4,60.7-20.5,108.1-2.1,47.4-2.6,62.6-2.3,183.5.2,120.9.8,136.1,3.1,183.6,2.3,47.4,9.8,79.7,20.9,108,11.4,29.3,26.7,54.1,51.5,78.8,24.8,24.7,49.6,39.9,79,51.2,28.3,10.9,60.7,18.4,108.1,20.5,47.4,2.1,62.6,2.6,183.5,2.3,120.9-.2,136.1-.8,183.6-3s79.7-9.8,108-20.9c29.3-11.5,54.1-26.7,78.8-51.5,24.7-24.8,39.9-49.6,51.2-79,11-28.3,18.4-60.7,20.5-108.1,2.1-47.5,2.6-62.7,2.3-183.6-.2-120.9-.8-136.1-3-183.5s-9.8-79.7-20.9-108c-11.4-29.3-26.7-54.1-51.5-78.8-24.8-24.7-49.6-39.9-79-51.2-28.3-11-60.7-18.4-108.1-20.5s-62.6-2.6-183.6-2.3-136.1.7-183.5,3.1M332.8,874.8c-43.4-1.9-67-9.1-82.7-15.1-20.8-8-35.6-17.7-51.3-33.2-15.7-15.5-25.3-30.4-33.4-51.1-6.1-15.7-13.4-39.3-15.5-82.7-2.2-46.9-2.7-61-2.9-179.9s.2-132.9,2.3-179.9c1.9-43.4,9.1-67,15.1-82.7,8-20.8,17.7-35.6,33.2-51.3,15.5-15.6,30.4-25.3,51.1-33.4,15.7-6.1,39.2-13.4,82.6-15.5,47-2.2,61-2.7,179.9-2.9,118.9-.3,133,.2,179.9,2.3,43.4,1.9,67,9.1,82.7,15.1,20.8,8,35.6,17.6,51.3,33.2,15.6,15.6,25.3,30.3,33.4,51.2,6.1,15.6,13.4,39.2,15.5,82.6,2.2,47,2.7,61,3,179.9.2,118.8-.2,133-2.3,179.9-1.9,43.4-9.1,67-15.1,82.7-8,20.8-17.7,35.6-33.2,51.3-15.5,15.6-30.4,25.3-51.1,33.4-15.7,6.1-39.2,13.4-82.6,15.5-47,2.2-61,2.7-179.9,2.9-118.9.3-132.9-.2-179.9-2.3M695.8,274c0,29.5,24,53.4,53.5,53.3s53.4-24,53.3-53.5c0-29.5-24-53.4-53.5-53.3,0,0,0,0,0,0-29.5,0-53.4,24-53.3,53.5M283.4,512.4c.2,126.3,102.8,228.4,229,228.2,126.2-.2,228.4-102.8,228.2-229.1-.2-126.3-102.8-228.4-229.1-228.2s-228.4,102.8-228.2,229.1M363.6,512.3c-.2-82,66.2-148.6,148.1-148.7,82-.2,148.6,66.2,148.7,148.1.2,82-66.2,148.6-148.1,148.7-82,.2-148.5-66.1-148.7-148.1h0"/>
</svg>
