<?xml version="1.0"?>
<svg xmlns="http://www.w3.org/2000/svg" viewBox="0 0 500 200" fill="none">
  <circle stroke="currentColor" fill="currentColor" cx="92" cy="62" r="1.5" stroke-width="3"/>
  <rect stroke="currentColor" x="34.5" y="52.5" width="68" height="113" stroke-width="3"/>
  <line stroke="currentColor" x1="43" y1="72.5" x2="95" y2="72.5" stroke-width="3"/>
  <line stroke="currentColor" x1="43" y1="81.5" x2="95" y2="81.5" stroke-width="3"/>
  <line stroke="currentColor" x1="43" y1="90.5" x2="95" y2="90.5" stroke-width="3"/>
  <rect fill="currentColor" x="415" y="134.106" width="10" height="6"/>
  <rect stroke="currentColor" x="398.205" y="141.205" width="42.5893" height="24.1071" rx="6.02679" stroke-width="2.41071"/>
  <circle stroke="currentColor" fill="currentColor" cx="412.268" cy="148.036" r="1.20536" stroke-width="0.803571"/>
  <circle stroke="currentColor" fill="currentColor" cx="419.5" cy="148.036" r="1.20536" stroke-width="0.803571"/>
  <circle stroke="currentColor" fill="currentColor" cx="425.928" cy="148.036" r="1.20536" stroke-width="0.803571"/>
  <path stroke="currentColor" d="M103 159H334.54C349.003 159 362.153 150.613 368.252 137.5L371.396 130.741C375.578 121.75 384.593 116 394.509 116H400C411.046 116 420 124.954 420 136V136" stroke-width="3"/>
</svg>
