<?xml version="1.0"?>
<svg xmlns="http://www.w3.org/2000/svg" viewBox="0 0 786 487" fill="none">
  <path stroke="currentColor" d="M22.4347 484C18.9774 484 16.0379 481.476 15.5152 478.058L4.15587 403.786C3.3544 398.545 3.62972 393.197 4.96503 388.066L9.98499 368.779C11.7799 361.883 15.3339 355.574 20.295 350.468L28.1893 319.578C30.3632 311.071 31.1396 302.268 30.4881 293.512L25.7893 230.36C25.4136 225.311 25.8564 220.233 27.1006 215.325L48.1283 132.366C51.1644 120.388 61.9441 112 74.3007 112H393H711.699C724.056 112 734.836 120.388 737.872 132.366L758.899 215.325C760.144 220.233 760.586 225.311 760.211 230.36L755.512 293.512C754.86 302.268 755.637 311.071 757.811 319.578L765.705 350.468C770.666 355.574 774.22 361.883 776.015 368.779L781.035 388.066C782.37 393.197 782.646 398.545 781.844 403.786L770.485 478.058C769.962 481.476 767.023 484 763.565 484H22.4347Z" stroke-width="6" stroke-miterlimit="10" stroke-linejoin="round"/>
  <path stroke="currentColor" d="M18.4782 477.608C18.7784 479.56 20.4574 481 22.4317 481H763.568C765.543 481 767.222 479.56 767.522 477.608L778.746 404.649C780.983 390.111 769.735 377 755.025 377H30.9747C16.2654 377 5.0171 390.111 7.25375 404.649L18.4782 477.608Z" stroke-width="4" stroke-miterlimit="10" stroke-linejoin="round"/>
  <path stroke="currentColor" d="M757 223L735.425 133.383C732.83 122.6 723.183 115 712.092 115H73.9079C62.8169 115 53.1704 122.6 50.5745 133.383L29 223" stroke-width="4" stroke-miterlimit="10" stroke-linejoin="round"/>
  <path stroke="currentColor" opacity="0.28" d="M742.999 347L737.784 323.529C736.157 316.209 729.664 311 722.165 311H63.834C56.3348 311 49.8418 316.209 48.215 323.529L42.9993 347" stroke-width="4" stroke-miterlimit="10" stroke-linejoin="round"/>
  <path stroke="currentColor" d="M777.999 394L771.336 365.531C768.796 354.676 759.116 347 747.968 347H38.0308C26.8829 347 17.2027 354.676 14.6623 365.531L7.99927 394" stroke-width="4" stroke-miterlimit="10" stroke-linejoin="round"/>
  <path stroke="currentColor" d="M763 353L755.408 322.632C752.488 310.954 751.47 298.881 752.393 286.878L757.012 226.841C758.084 212.902 747.063 201 733.082 201H52.9166C38.9363 201 27.915 212.902 28.9873 226.841L33.6055 286.878C34.5288 298.881 33.511 310.954 30.5914 322.632L22.9995 353" stroke-width="4" stroke-miterlimit="10" stroke-linejoin="round"/>
  <path fill="currentColor" fill-rule="evenodd" clip-rule="evenodd" d="M388.709 145.545C398.079 145.545 405.675 150.928 405.675 157.568C405.675 164.209 398.079 169.592 388.709 169.592V176.325C403.327 176.325 415.177 167.927 415.177 157.568C415.177 147.209 403.327 138.812 388.709 138.812V145.545ZM388.71 165.774C395.105 165.774 400.29 162.1 400.29 157.568C400.29 153.036 395.105 149.362 388.71 149.362C382.315 149.362 377.13 153.036 377.13 157.568C377.13 162.1 382.315 165.774 388.71 165.774Z"/>
  <path stroke="currentColor" fill-rule="evenodd" clip-rule="evenodd" d="M644.36 106.962C641.381 92.3663 639.892 85.0684 636.06 79.6116C632.681 74.7994 628.042 71.0112 622.651 68.6629C616.539 66 609.09 66 594.194 66H308V50H588.081C610.822 50 622.193 50 631.468 54.1029C639.646 57.7204 646.651 63.5503 651.693 70.9356C657.411 79.3119 659.476 90.4937 663.604 112.857L664 115H646L644.36 106.962Z" stroke-width="4" stroke-miterlimit="10" stroke-linejoin="round"/>
  <path stroke="currentColor" d="M262 45H304.8C305.92 45 306.48 45 306.908 45.218C307.284 45.4097 307.59 45.7157 307.782 46.092C308 46.5198 308 47.0799 308 48.2V67.8C308 68.9201 308 69.4802 307.782 69.908C307.59 70.2843 307.284 70.5903 306.908 70.782C306.48 71 305.92 71 304.8 71H262V45Z" stroke-width="4" stroke-miterlimit="10" stroke-linejoin="round"/>
  <path stroke="currentColor" d="M262 64V33.1111C262 32.4201 261.643 31.7781 261.057 31.413L240.513 18.6303C239.889 18.242 239.102 18.2273 238.464 18.5919L215.461 31.7365C215.159 31.9092 214.817 32 214.469 32H192.25M179.5 32H156.908C156.331 32 155.782 32.249 155.402 32.683L128.24 63.7261C128.081 63.9072 127.957 64.1155 127.872 64.3408L122 80" stroke-width="4" stroke-miterlimit="10" stroke-linecap="round" stroke-linejoin="round"/>
  <path stroke="currentColor" d="M149.402 48.683C149.782 48.249 150.331 48 150.908 48H212.504C212.83 48 213.15 47.9205 213.438 47.7684L238.484 34.5365C239.113 34.2043 239.871 34.2311 240.475 34.6068L261.057 47.413C261.643 47.7781 262 48.4201 262 49.1111V78C262 79.1046 261.105 80 260 80H122L149.402 48.683Z" stroke-width="4" stroke-miterlimit="10" stroke-linecap="round" stroke-linejoin="round"/>
  <path stroke="currentColor" d="M180 8C180 4.68629 182.686 2 186 2V2C189.314 2 192 4.68629 192 8V42H180V8Z" stroke-width="4" stroke-miterlimit="10" stroke-linejoin="round"/>
  <path stroke="currentColor" d="M180 8C180 4.68629 182.686 2 186 2V2C189.314 2 192 4.68629 192 8V14C192 17.3137 189.314 20 186 20V20C182.686 20 180 17.3137 180 14V8Z" stroke-width="4" stroke-miterlimit="10" stroke-linejoin="round"/>
  <path stroke="currentColor" opacity="0.28" d="M158 32L152 48" stroke-width="4" stroke-miterlimit="10" stroke-linejoin="round"/>
  <line stroke="currentColor" opacity="0.28" x1="214" y1="32" x2="214" y2="48" stroke-width="4" stroke-miterlimit="10" stroke-linejoin="round"/>
  <line stroke="currentColor" opacity="0.28" x1="239" y1="19" x2="239" y2="35" stroke-width="4" stroke-miterlimit="10" stroke-linejoin="round"/>
</svg>
