<?xml version="1.0"?>
<svg xmlns="http://www.w3.org/2000/svg" width="657" height="308" viewBox="0 0 657 308" fill="none">
  <path onClick="" d="M427.482 16.4019C427.482 16.4019 464.092 31.1158 520.5 17.5C520.5 17.5 520.458 3.48633 508.807 3.48633C497.136 3.48633 449.131 3.87534 437.46 3.87534C425.79 3.87534 427.482 16.4019 427.482 16.4019Z"/>
  <path onClick="" d="M166.818 16.3829C166.818 16.3829 201.849 30.0181 258.258 16.4023C258.258 16.4023 259.308 4.07031 247.637 4.07031C235.967 4.07031 187.961 4.45933 176.291 4.45933C164.62 4.45933 166.818 16.3829 166.818 16.3829Z"/>
  <path stroke="currentColor" d="M35.2681 32.1382L32.292 24.2021C32.292 24.2021 31.728 17.1219 22.0025 22.9573C22.0025 22.9573 17.9177 24.2022 17.9177 33.1886C17.9177 42.175 16.3811 51.1808 16.3811 51.1808" stroke-width="3.89022" stroke-miterlimit="10"/>
  <path stroke="currentColor" onClick="" d="M646.364 134.237C646.364 134.237 652.2 131.319 652.2 139.1L652.2 176.271C652.2 176.271 654.145 214.959 624.968 253.861C595.791 292.764 568.56 300.544 568.56 300.544C568.56 300.544 564.397 303.423 562.588 296.148C560.779 288.873 623.023 284.983 646.364 134.237V134.237Z" stroke-width="3.89022" stroke-miterlimit="10"/>
  <path stroke="currentColor" d="M424.583 16.8494L260.221 16.8494C203.813 30.4652 164.911 16.8494 164.911 16.8494L75.4355 14.9043C25.8352 14.9043 -11.0246 85.1617 12.2194 75.2027C25.8352 69.3674 27.7803 92.7087 27.7803 92.7087L27.6052 93.2922L632.71 94.6538L640.49 94.6538C640.49 94.6538 646.325 94.6538 644.38 86.8734C642.435 79.0929 634.655 18.7945 570.466 14.9043L520.769 16.0519" stroke-width="3" stroke-miterlimit="10"/>
  <path stroke="currentColor" d="M523.765 17.3936C467.356 31.0094 426.606 16.9851 426.606 16.9851L337.131 15.04" stroke-width="3" stroke-miterlimit="10"/>
  <path stroke="currentColor" d="M7.47351 94.6731C4.6531 95.315 3.58325 102.454 3.58325 102.454L3.58324 174.423C9.41857 277.513 98.8937 304.745 135.851 304.745C225.345 304.745 484.026 304.745 484.026 304.745C514.272 304.745 542.748 303.306 563.639 294.494C565.448 301.769 569.61 298.89 569.61 298.89C569.61 298.89 596.842 291.11 626.019 252.208C655.195 213.305 653.25 174.617 653.25 174.617C653.25 174.617 654.203 145.168 653.25 137.446C652.375 130.308 646.773 132.817 646.54 134.198C646.831 122.177 647.298 112.821 647.415 104.379C647.532 96.1125 642.727 94.8871 641.268 94.6926C641.268 94.6926 648.212 94.6926 646.267 86.9121C644.322 79.1317 636.542 18.8332 572.353 14.943C572.353 14.943 523.12 15.8183 521 16.4019C521 16.4019 520.458 3.48632 508.806 3.48632C497.136 3.48632 449.13 3.87534 437.46 3.87533C425.789 3.87533 427.481 16.4019 427.481 16.4019C427.481 16.4019 260.076 15.1499 258.5 15.5C258.5 15.5 259.307 4.06985 247.636 4.06985C235.966 4.06985 187.96 4.45886 176.29 4.45886C164.619 4.45886 166.817 16.3824 166.817 16.3824L77.303 14.9236C40.3848 16.3824 22.8787 43.6139 17.0434 49.4493C5.23657 65.3214 1.79375 79.5985 13.1532 74.7357C26.769 68.9004 28.714 92.2417 28.714 92.2417C28.714 92.2417 14.223 93.0975 7.45404 94.6342L7.47351 94.6731Z" stroke-width="5.83533" stroke-miterlimit="10"/>
  <path stroke="currentColor" d="M166.525 159.97C166.525 169.724 174.432 177.632 184.187 177.632C193.941 177.632 201.848 169.724 201.848 159.97C201.848 150.216 193.941 142.309 184.187 142.309C174.432 142.309 166.525 150.216 166.525 159.97Z" stroke-width="3" stroke-miterlimit="10"/>
  <path stroke="currentColor" d="M188.096 167.032L188.096 152.91L175.511 152.91L175.511 167.032L188.096 167.032Z" stroke-width="2" stroke-miterlimit="10"/>
  <path fill="currentColor" d="M187.125 159.97L187.125 149.369L191.366 154.679L195.586 159.97L191.366 165.261L187.125 170.551L187.125 159.97Z"/>
  <path fill="currentColor" d="M183.195 161.06L183.195 158.843C183.195 158.306 182.759 157.87 182.222 157.87L180.005 157.87C179.468 157.87 179.032 158.306 179.032 158.843L179.032 161.06C179.032 161.597 179.468 162.033 180.005 162.033L182.222 162.033C182.759 162.033 183.195 161.597 183.195 161.06Z"/>
  <path onClick="" stroke="currentColor" d="M587.388 146.822L587.388 135.501L598.709 135.501C599.273 135.501 599.74 135.035 599.74 134.47L599.74 126.223C599.74 125.659 599.273 125.192 598.709 125.192L587.388 125.192L587.388 113.872C587.388 113.308 586.921 112.841 586.357 112.841L578.11 112.841C577.546 112.841 577.079 113.308 577.079 113.872L577.079 125.192L565.759 125.192C565.195 125.192 564.728 125.659 564.728 126.223L564.728 134.47C564.728 135.035 565.195 135.501 565.759 135.501L577.079 135.501L577.079 146.822C577.079 147.386 577.546 147.853 578.11 147.853L586.357 147.853C586.921 147.853 587.388 147.386 587.388 146.822Z" stroke-width="3" stroke-miterlimit="10"/>
  <path fill="currentColor" d="M587.058 83.7025L587.058 73.0627L597.698 73.0627C598.223 73.0627 598.67 72.6348 598.67 72.0902L598.67 64.3681C598.67 63.8429 598.242 63.3955 597.698 63.3955L587.058 63.3955L587.058 52.7558C587.058 52.2306 586.63 51.7832 586.086 51.7832L578.363 51.7832C577.838 51.7832 577.391 52.2111 577.391 52.7558L577.391 63.3955L566.751 63.3955C566.226 63.3955 565.779 63.8234 565.779 64.3681L565.779 72.0902C565.779 72.6153 566.207 73.0627 566.751 73.0627L577.391 73.0627L577.391 83.7025C577.391 84.2277 577.819 84.675 578.363 84.675L586.086 84.675C586.611 84.675 587.058 84.2471 587.058 83.7025Z"/>
  <path onClick="" stroke="currentColor" d="M509.058 194.184C509.058 206.377 518.943 216.261 531.135 216.261C543.328 216.261 553.212 206.377 553.212 194.184C553.212 181.992 543.328 172.107 531.135 172.107C518.943 172.107 509.058 181.992 509.058 194.184Z" stroke-width="3.89022" stroke-miterlimit="10"/>
  <path onClick="" stroke="currentColor" d="M461.17 244.253C461.17 256.446 471.054 266.33 483.247 266.33C495.44 266.33 505.324 256.446 505.324 244.253C505.324 232.06 495.44 222.176 483.247 222.176C471.054 222.176 461.17 232.06 461.17 244.253Z" stroke-width="3.89022" stroke-miterlimit="10"/>
  <path onClick="" stroke="currentColor" d="M461.17 143.184C461.17 155.377 471.054 165.261 483.247 165.261C495.44 165.261 505.324 155.377 505.324 143.184C505.324 130.992 495.44 121.107 483.247 121.107C471.054 121.107 461.17 130.992 461.17 143.184Z" stroke-width="3.89022" stroke-miterlimit="10"/>
  <path onClick="" stroke="currentColor" d="M414.449 194.184C414.449 206.377 424.333 216.261 436.526 216.261C448.719 216.261 458.603 206.377 458.603 194.184C458.603 181.992 448.719 172.107 436.526 172.107C424.333 172.107 414.449 181.992 414.449 194.184Z" stroke-width="3.89022" stroke-miterlimit="10"/>
  <path stroke="currentColor" d="M256.059 193.737C256.059 221.131 278.265 243.337 305.659 243.337C333.052 243.337 355.259 221.131 355.259 193.737C355.259 166.344 333.052 144.137 305.659 144.137C278.265 144.137 256.059 166.344 256.059 193.737Z" stroke-width="4" stroke-miterlimit="10"/>
  <path onClick="" style="" stroke="currentColor" d="M270.803 193.738C270.803 213.074 286.478 228.75 305.815 228.75C325.151 228.75 340.827 213.074 340.827 193.738C340.827 174.401 325.151 158.726 305.815 158.726C286.478 158.726 270.803 174.401 270.803 193.738Z" stroke-width="3" stroke-miterlimit="10"/>
</svg>
