<?xml version="1.0"?>
<svg version="1.1" xmlns="http://www.w3.org/2000/svg" x="0px" y="0px" width="256px" height="255.999px" viewBox="0 0 256 255.999">
  <g>
    <path d="M93.785,52.265c-0.946,0-2.357,0.63-3.304,1.577L40.284,98.022c-0.947,0.789-2.831,1.578-4.093,1.578H9.367 C8.104,99.6,7,100.706,7,101.967v52.069c0,1.264,1.104,2.367,2.367,2.367H36.19c1.262,0,3.146,0.632,4.093,1.578l50.197,44.181 c0.947,0.789,2.516,1.578,3.304,1.578s1.578-1.104,1.578-2.367V54.631C95.363,53.369,94.731,52.265,93.785,52.265z"/>
  </g>
  <g>
    <line fill="none" stroke-width="" stroke="#fff" stroke-miterlimit="10" x1="137" y1="170.667" x2="223.167" y2="84.5"/>
    <line fill="none" stroke-width="" stroke="#fff" stroke-miterlimit="10" x1="137" y1="84.5" x2="223.167" y2="170.667"/>
  </g>
</svg>
