<?xml version="1.0"?>
<svg xmlns="http://www.w3.org/2000/svg" viewBox="0 0 36 39" fill="none">
  <path fill="white" d="M36 12C36 18.2132 30.9632 23.25 24.75 23.25C18.5368 23.25 13.5 18.2132 13.5 12C13.5 5.7868 18.5368 0.75 24.75 0.75C30.9632 0.75 36 5.7868 36 12ZM28.1564 17.989H31.05L26.1364 5.25H23.443L18.675 17.989H21.4594L22.2965 15.514H27.2829L28.1564 17.989ZM23.0244 13.3847L24.7715 8.2892L26.555 13.3847H23.0244Z"/>
  <path fill="white" d="M18 30C18 34.9706 13.9706 39 9 39C4.0294 39 0 34.9706 0 30C0 25.0294 4.0294 21 9 21C13.9706 21 18 25.0294 18 30ZM11.6095 30.4262C11.3692 30.1055 11.0221 29.8775 10.5682 29.7422C10.8953 29.564 11.1389 29.3325 11.2991 29.0475C11.466 28.7553 11.5495 28.4383 11.5495 28.0963C11.5495 27.5049 11.3525 27.0489 10.9587 26.7283C10.5648 26.4005 9.9741 26.2366 9.1863 26.2366H6.7331V33.7179H9.4667C10.2277 33.7179 10.8352 33.5362 11.2891 33.1729C11.7431 32.8024 11.97 32.2787 11.97 31.6018C11.97 31.1315 11.8499 30.7397 11.6095 30.4262ZM8.0048 29.4322V27.3588H9.0562C9.8839 27.3588 10.2978 27.6866 10.2978 28.3421C10.2978 28.6841 10.191 28.9513 9.9774 29.1437C9.7638 29.336 9.4667 29.4322 9.0862 29.4322H8.0048ZM10.3078 32.3072C10.0875 32.5067 9.7604 32.6064 9.3265 32.6064H8.0048V30.4262H9.3666C10.2144 30.4262 10.6383 30.7895 10.6383 31.5163C10.6383 31.844 10.5281 32.1077 10.3078 32.3072Z" fill-opacity="0.65"/>
</svg>
