<?xml version="1.0"?>
<svg xmlns="http://www.w3.org/2000/svg" viewBox="0 0 36 36" fill="none">
  <path d="M32 18C31.9963 20.7626 31.1753 23.4623 29.6405 25.7593C28.1056 28.0563 25.9255 29.8478 23.3746 30.9084C20.8237 31.969 18.0161 32.2511 15.3051 31.7193C12.5942 31.1876 10.1012 29.8656 8.14 27.92L11 25.09C12.1323 26.2321 13.5234 27.0843 15.0552 27.5742C16.5871 28.0642 18.2145 28.1774 19.7995 27.9044C21.3844 27.6313 22.8801 26.98 24.1597 26.0056C25.4392 25.0313 26.4649 23.7627 27.1497 22.3075C27.8346 20.8523 28.1583 19.2534 28.0934 17.6464C28.0286 16.0394 27.5771 14.4718 26.7773 13.0765C25.9775 11.6811 24.8529 10.4993 23.499 9.63126C22.1451 8.76319 20.6018 8.23448 19 8.08999C18.67 7.99999 18.34 7.99999 18 7.99999C16.4962 7.99972 15.0121 8.34168 13.66 8.99999C12.1764 9.71304 10.8917 10.7813 9.92 12.11L9.42 13H15V18H2V4.99999H7V9.37999C8.09602 7.9698 9.45426 6.78473 11 5.88999C11.33 5.69999 11.66 5.51999 12 5.35999C14.1332 4.34811 16.4877 3.89218 18.8444 4.03459C21.2012 4.177 23.4836 4.91312 25.4795 6.1745C27.4753 7.43588 29.1197 9.18153 30.2598 11.2491C31.3998 13.3167 31.9985 15.639 32 18Z" fill="currentColor"/>
</svg>
