<?xml version="1.0"?>
<svg width="36" height="36" viewBox="0 0 36 36" fill="none" xmlns="http://www.w3.org/2000/svg">
  <path fill-rule="evenodd" clip-rule="evenodd" d="M32.204 25.7727L29.7196 24.9315C29.8932 24.4212 30.0332 23.9001 30.1386 23.3716L32.7118 23.8822C32.584 24.5227 32.4144 25.1543 32.204 25.7727ZM32.9679 21.9416L30.3499 21.7705C30.3675 21.5022 30.3764 21.2329 30.3764 20.963C30.3764 20.6931 30.3675 20.4238 30.3499 20.1556L32.9679 19.9844C32.9893 20.3095 33 20.6359 33 20.963C33 21.2901 32.9893 21.6165 32.9679 21.9416ZM32.7118 18.0439L30.1386 18.5545C30.0332 18.0259 29.8932 17.5049 29.7196 16.9946L32.204 16.1533C32.4144 16.7718 32.584 17.4033 32.7118 18.0439ZM31.4531 14.345C31.3086 14.0528 31.1543 13.7648 30.9904 13.4815C30.8264 13.1982 30.6535 12.9209 30.472 12.65L28.2906 14.104C28.4403 14.3276 28.583 14.5564 28.7182 14.7901C28.8535 15.0238 28.9808 15.2615 29.1 15.5026L31.4531 14.345ZM27.305 12.8228L29.2776 11.0972C28.8459 10.6062 28.3824 10.1439 27.8902 9.71322L26.1603 11.6809C26.5665 12.0362 26.9489 12.4177 27.305 12.8228ZM24.8759 10.6978L26.3336 8.52172C26.0619 8.34069 25.784 8.16821 25.5 8.00466C25.216 7.84112 24.9273 7.68721 24.6343 7.54309L23.4739 9.89036C23.7157 10.0093 23.9539 10.1363 24.1882 10.2712C24.4225 10.4061 24.6518 10.5484 24.8759 10.6978ZM21.9783 9.27236L22.8216 6.79408C22.2016 6.58415 21.5685 6.41493 20.9264 6.28751L20.4145 8.85439C20.9443 8.95952 21.4667 9.09914 21.9783 9.27236ZM18.8095 8.6436L18.981 6.03203C18.6551 6.01072 18.3279 6 18 6C17.6721 6 17.3449 6.01072 17.019 6.03203L17.1905 8.6436C17.4595 8.62601 17.7294 8.61717 18 8.61717C18.2705 8.61717 18.5405 8.62601 18.8095 8.6436ZM15.5855 8.85439L15.0736 6.28751C14.4315 6.41493 13.7984 6.58415 13.1784 6.79408L14.0217 9.27236C14.5333 9.09914 15.0557 8.95952 15.5855 8.85439ZM12.5261 9.89036L11.3657 7.54309C11.0727 7.68722 10.784 7.84112 10.5 8.00467C10.216 8.16821 9.93805 8.34069 9.66644 8.52172L10.6665 10.0147L11.1241 10.6978C11.3482 10.5484 11.5775 10.4061 11.8118 10.2712C12.0461 10.1363 12.2843 10.0093 12.5261 9.89036ZM9.83969 11.6809L9.29663 11.0632L8.10981 9.71323C7.61756 10.1439 7.15409 10.6062 6.7224 11.0972L8.07571 12.2811L8.69495 12.8228C9.05114 12.4177 9.43354 12.0362 9.83969 11.6809ZM7.70943 14.104L7.0246 13.6476L5.52795 12.65C5.34647 12.9209 5.17357 13.1982 5.00962 13.4815C4.84567 13.7648 4.69138 14.0528 4.5469 14.345L6.89997 15.5026C7.01918 15.2615 7.14648 15.0238 7.28175 14.7901C7.41703 14.5564 7.55969 14.3276 7.70943 14.104ZM6.28044 16.9946L3.79605 16.1533C3.58559 16.7718 3.41595 17.4033 3.28822 18.0439L5.86144 18.5545C5.96683 18.0259 6.1068 17.5049 6.28044 16.9946ZM5.65013 20.1556L3.03211 19.9844C3.01075 20.3096 3 20.6359 3 20.963C3 21.2901 3.01075 21.6165 3.03211 21.9417L5.65013 21.7705C5.6325 21.5022 5.62363 21.2329 5.62363 20.963C5.62363 20.6931 5.6325 20.4238 5.65013 20.1556ZM5.86144 23.3716L3.28822 23.8822C3.41595 24.5227 3.58559 25.1543 3.79605 25.7727L6.28045 24.9315C6.1068 24.4212 5.96683 23.9001 5.86144 23.3716Z" fill=" currentColor "/>
  <path d="M21.1738 19.5025C22.1002 18.8001 23.2773 19.9772 22.5749 20.9036L18.9306 25.7095C18.5642 26.1927 17.8555 26.2411 17.4267 25.8123L16.2651 24.6507C15.8363 24.2219 15.8847 23.5132 16.3679 23.1468L21.1738 19.5025Z" fill=" currentColor "/>
  <circle cx="17.0059" cy="25.0703" r="1.81818" transform="rotate(45 17.0059 25.0703)" fill="currentColor"/>
</svg>
