<?xml version="1.0"?>
<svg xmlns="http://www.w3.org/2000/svg" viewBox="0 0 500 200" fill="none">
  <rect fill="currentColor" x="410" y="77" width="20" height="15"/>
  <mask fill="currentColor" id="">
    <path d="M450.846 89C461.349 89 470.256 96.717 471.751 107.112L476.78 142.062C478.287 152.542 471.861 162.118 462.367 165.176L460.46 160.73C458.558 156.294 454.196 153.418 449.369 153.418H395.073C390.246 153.418 385.883 156.294 383.981 160.73L381.699 166.052C370.049 164.728 361.504 153.98 363.218 142.062L368.247 107.112C369.742 96.717 378.649 89 389.152 89H450.846Z"/>
  </mask>
  <path fill="currentColor" d="M471.751 107.112L474.721 106.685V106.685L471.751 107.112ZM476.78 142.062L479.749 141.635L479.749 141.635L476.78 142.062ZM462.367 165.176L459.61 166.358L460.686 168.869L463.287 168.031L462.367 165.176ZM460.46 160.73L457.703 161.913L457.703 161.913L460.46 160.73ZM395.073 153.418V150.418H395.073L395.073 153.418ZM383.981 160.73L386.738 161.913L386.738 161.913L383.981 160.73ZM381.699 166.052L381.36 169.033L383.577 169.284L384.456 167.234L381.699 166.052ZM363.218 142.062L360.249 141.635L360.249 141.635L363.218 142.062ZM368.247 107.112L365.277 106.685L365.277 106.685L368.247 107.112ZM450.846 89V92C459.857 92 467.499 98.6209 468.782 107.54L471.751 107.112L474.721 106.685C473.013 94.8131 462.84 86 450.846 86V89ZM471.751 107.112L468.782 107.54L473.81 142.49L476.78 142.062L479.749 141.635L474.721 106.685L471.751 107.112ZM476.78 142.062L473.81 142.49C475.103 151.473 469.596 159.695 461.447 162.32L462.367 165.176L463.287 168.031C474.126 164.54 481.472 153.611 479.749 141.635L476.78 142.062ZM462.367 165.176L465.124 163.993L463.218 159.548L460.46 160.73L457.703 161.913L459.61 166.358L462.367 165.176ZM460.46 160.73L463.218 159.548C460.843 154.009 455.396 150.418 449.369 150.418V153.418V156.418C452.996 156.418 456.274 158.579 457.703 161.913L460.46 160.73ZM449.369 153.418V150.418H395.073V153.418V156.418H449.369V153.418ZM395.073 153.418L395.073 150.418C389.046 150.418 383.599 154.009 381.224 159.548L383.981 160.73L386.738 161.913C388.168 158.579 391.446 156.418 395.073 156.418L395.073 153.418ZM383.981 160.73L381.224 159.548L378.942 164.869L381.699 166.052L384.456 167.234L386.738 161.913L383.981 160.73ZM381.699 166.052L382.037 163.071C372.047 161.936 364.717 152.711 366.188 142.49L363.218 142.062L360.249 141.635C358.29 155.249 368.051 167.52 381.36 169.033L381.699 166.052ZM363.218 142.062L366.188 142.49L371.216 107.54L368.247 107.112L365.277 106.685L360.249 141.635L363.218 142.062ZM368.247 107.112L371.216 107.54C372.499 98.6209 380.141 92 389.152 92V89V86C377.158 86 366.985 94.8131 365.277 106.685L368.247 107.112ZM389.152 89V92H450.846V89V86H389.152V89Z" mask=""/>
  <circle stroke="currentColor" cx="419.722" cy="105.293" r="3.9309" stroke-width="3"/>
  <circle stroke="currentColor" fill="currentColor" cx="94" cy="156" r="1.5" stroke-width="3"/>
  <rect stroke="currentColor" x="34.5" y="98.5" width="68" height="65" stroke-width="3"/>
  <line stroke="currentColor" x1="36" y1="148.5" x2="102" y2="148.5" stroke-width="3"/>
  <path stroke="currentColor" d="M102 157H257.442C275.807 157 292.694 146.932 301.427 130.776L334.331 69.9037C342.291 55.1772 357.684 46 374.424 46H381C402.539 46 420 63.4609 420 85V85" stroke-width="3"/>
</svg>
