<?xml version="1.0"?>
<svg xmlns="http://www.w3.org/2000/svg" viewBox="0 0 81 36" fill="none">
  <path fill="currentColor" fill-rule="evenodd" clip-rule="evenodd" d="M18 0C8.05888 0 0 8.05888 0 18C0 27.9411 8.05888 36 18 36H61C70.9411 36 79 27.9411 79 18C79 8.05888 70.9411 0 61 0H18ZM21.5 22.5C23.9853 22.5 26 20.4853 26 18C26 15.5147 23.9853 13.5 21.5 13.5C19.0147 13.5 17 15.5147 17 18C17 20.4853 19.0147 22.5 21.5 22.5ZM44 18C44 20.4853 41.9853 22.5 39.5 22.5C37.0147 22.5 35 20.4853 35 18C35 15.5147 37.0147 13.5 39.5 13.5C41.9853 13.5 44 15.5147 44 18ZM57.5 22.5C59.9853 22.5 62 20.4853 62 18C62 15.5147 59.9853 13.5 57.5 13.5C55.0147 13.5 53 15.5147 53 18C53 20.4853 55.0147 22.5 57.5 22.5Z"/>
</svg>
