<?xml version="1.0"?>
<svg width="36" height="36" viewBox="0 0 36 36" fill="none" xmlns="http://www.w3.org/2000/svg">
  <path fill-rule="evenodd" clip-rule="evenodd" d="M31.7 15.75C31.703 13.1045 30.94 10.5148 29.5031 8.2936C28.0663 6.07238 26.0171 4.31465 23.603 3.23272C21.189 2.15079 18.5133 1.79092 15.8991 2.19659C13.285 2.60226 10.8442 3.75611 8.87157 5.51878C6.89893 7.28145 5.47882 9.57755 4.78275 12.1298C4.08667 14.682 4.14441 17.3811 4.94899 19.9013C5.44737 21.4623 6.2191 22.9133 7.22063 24.1901L9.32215 22.0886L11.4117 24.178L9.28472 26.305C9.29539 26.3138 9.30608 26.3226 9.31678 26.3313C11.363 28.008 13.8509 29.0565 16.48 29.35V35.05L27.31 25.79C28.6947 24.5098 29.7995 22.9569 30.555 21.2291C31.3105 19.5012 31.7003 17.6358 31.7 15.75ZM24.5 9V17.8646H21.5449V14.0469L17.5141 18.0714L15.4277 15.9853L19.4526 11.9549H15.6346V9H24.5ZM13.7543 17.6514L10.9918 20.4136L13.0814 22.503L15.8439 19.7408L13.7543 17.6514Z" fill="currentColor"/>
</svg>
