<?xml version="1.0"?>
<svg version="1.1" xmlns="http://www.w3.org/2000/svg" x="0px" y="0px" width="256px" height="256px" viewBox="0 0 256 256">
  <path fill="" stroke="#currentColor" stroke-width="10" stroke-miterlimit="10" d="M127.755,18.624 c-2.061,0.101-3.846,1.465-4.485,3.427L98.312,96.933H18.379c-2.745,0.01-4.963,2.242-4.955,4.989 c0.006,1.572,0.754,3.05,2.019,3.984l64.925,47.476L55.41,230.873c-0.848,2.612,0.582,5.417,3.192,6.265 c1.521,0.495,3.186,0.228,4.475-0.719L128,188.945l64.926,47.474c2.212,1.624,5.324,1.144,6.947-1.071 c0.944-1.29,1.211-2.954,0.719-4.475l-24.959-77.492l64.922-47.476c2.211-1.63,2.681-4.743,1.049-6.953 c-0.934-1.265-2.41-2.015-3.984-2.02H157.69l-24.959-74.882C132.033,19.917,129.997,18.513,127.755,18.624z"/>
</svg>
