<?xml version="1.0"?>
<svg xmlns="http://www.w3.org/2000/svg" viewBox="0 0 36 36" fill="none">
  <path d="M7.70998 20.11C7.23856 21.3527 6.99795 22.6709 6.99998 24V29H1.22998V25.38C1.22998 24.6726 1.36947 23.9722 1.64046 23.3189C1.91146 22.6655 2.30864 22.0719 2.80928 21.5722C3.30992 21.0725 3.90419 20.6764 4.55807 20.4067C5.21196 20.1369 5.91263 19.9987 6.61998 20C6.98604 20.001 7.35112 20.0378 7.70998 20.11ZM6.49998 10C5.80775 10 5.13106 10.2053 4.55548 10.5899C3.97991 10.9744 3.53131 11.5211 3.2664 12.1606C3.0015 12.8002 2.93218 13.5039 3.06723 14.1828C3.20228 14.8618 3.53562 15.4854 4.02511 15.9749C4.51459 16.4644 5.13823 16.7977 5.81716 16.9328C6.4961 17.0678 7.19983 16.9985 7.83937 16.7336C8.47891 16.4687 9.02554 16.0201 9.41012 15.4445C9.79471 14.8689 9.99998 14.1922 9.99998 13.5C9.99998 12.5717 9.63123 11.6815 8.97485 11.0251C8.31848 10.3688 7.42824 10 6.49998 10ZM13.5 9.5C13.5 8.60999 13.7639 7.73996 14.2584 6.99994C14.7528 6.25991 15.4556 5.68314 16.2779 5.34254C17.1002 5.00195 18.005 4.91283 18.8779 5.08647C19.7508 5.2601 20.5526 5.68868 21.182 6.31802C21.8113 6.94736 22.2399 7.74918 22.4135 8.6221C22.5871 9.49501 22.498 10.3998 22.1574 11.2221C21.8168 12.0443 21.2401 12.7471 20.5 13.2416C19.76 13.7361 18.89 14 18 14C17.4087 14.0013 16.8229 13.8858 16.2763 13.6601C15.7298 13.4345 15.2332 13.103 14.8151 12.6849C14.3969 12.2668 14.0655 11.7702 13.8398 11.2236C13.6142 10.6771 13.4987 10.0913 13.5 9.5ZM25 24V29H11V24C11 22.1435 11.7375 20.363 13.0502 19.0503C14.363 17.7375 16.1435 17 18 17C19.8565 17 21.637 17.7375 22.9497 19.0503C24.2625 20.363 25 22.1435 25 24ZM35 25.38V29H29V24C29.0038 22.6921 28.77 21.3944 28.31 20.17C28.7376 20.0576 29.1778 20.0004 29.62 20C31.0468 20 32.4153 20.5668 33.4242 21.5758C34.4332 22.5847 35 23.9531 35 25.38ZM29.5 17C28.8077 17 28.1311 16.7947 27.5555 16.4101C26.9799 16.0256 26.5313 15.4789 26.2664 14.8394C26.0015 14.1999 25.9322 13.4961 26.0672 12.8172C26.2023 12.1383 26.5356 11.5146 27.0251 11.0251C27.5146 10.5356 28.1382 10.2023 28.8172 10.0673C29.4961 9.9322 30.1998 10.0015 30.8394 10.2664C31.4789 10.5313 32.0255 10.9799 32.4101 11.5555C32.7947 12.1311 33 12.8078 33 13.5C33 14.4283 32.6312 15.3185 31.9749 15.9749C31.3185 16.6313 30.4282 17 29.5 17Z" fill="currentColor"/>
</svg>
