<?xml version="1.0"?>
<svg xmlns="http://www.w3.org/2000/svg" viewBox="0 0 52.5 32">
  <path fill="currentColor" d="M52.271,6.917l-0.543,1.315v2.45h-2.541v-0.318h-0.589v0.364
				h-3.857v-0.408l-3.901-0.046l-0.682,0.273h-5.851c-0.182,0-0.392,0.03-0.636,0.091c-0.454,0.089-0.801,0.227-1.043,0.407
				l-0.046,0.047c-0.362,0.302-0.573,0.483-0.635,0.543c-0.21,0.271-0.332,0.575-0.363,0.907c-0.029,0.332-0.043,0.848-0.043,1.542
				c0,0.333,0,0.652,0,0.953c-0.426-0.03-0.862-0.047-1.316-0.047h-0.047c-0.423,0-0.801,0-1.133,0
				c-0.333,0-0.592,0.033-0.772,0.093c-0.392,0.089-0.68,0.211-0.861,0.362c-0.12,0.091-0.241,0.257-0.364,0.5
				c-0.058,0.061-0.107,0.122-0.136,0.181c-0.121,0.243-0.21,0.574-0.27,0.998c-0.063,0.484-0.137,0.785-0.228,0.906
				c-0.211,0.425-0.425,0.756-0.635,1.001c-0.484,0.482-1.09,0.862-1.816,1.133c-0.058,0.031-0.122,0.059-0.181,0.092
				c-0.757,0.211-1.481,0.377-2.177,0.498c-0.665,0.06-1.271,0.077-1.814,0.045c-0.122,0-0.256-0.029-0.409-0.089
				c-0.272-0.091-0.56-0.259-0.862-0.5c-0.122-0.122-0.242-0.242-0.362-0.363l-0.181-0.181l-0.272,0.271
				c-0.152-0.029-0.302-0.06-0.455-0.09c-0.213-0.032-0.408-0.06-0.589-0.092c-0.182,0-0.348-0.014-0.499-0.045
				c-0.365-0.06-0.68-0.104-0.954-0.136c-0.575-0.061-0.983-0.044-1.225,0.045c-0.392,0.181-0.71,0.392-0.952,0.636
				c-0.272,0.271-0.423,0.574-0.453,0.907c-0.03,0.454,0.09,0.861,0.363,1.225c0.06,0.121,0.15,0.258,0.272,0.407
				c0.06,0.122,0.075,0.228,0.045,0.319c0,0.06-0.06,0.152-0.182,0.271c-0.06,0.06-0.181,0.153-0.364,0.272
				c-0.332,0.303-0.515,0.636-0.544,0.998c-0.089,0.485,0,0.923,0.272,1.317l0.227,0.407c0.061,0.123,0.075,0.242,0.044,0.363
				c-0.03,0.092-0.09,0.181-0.182,0.273c-0.09,0.061-0.241,0.135-0.452,0.227c-0.425,0.21-0.713,0.422-0.863,0.633
				c-0.15,0.213-0.272,0.485-0.361,0.819c-0.064,0.301-0.183,0.528-0.365,0.679c-0.271,0.212-0.984,0.422-2.131,0.636
				c-1.182,0.181-2.195,0.255-3.042,0.227c-1.208-0.062-2.206-0.182-2.994-0.363c-1.179-0.302-1.828-0.726-1.95-1.271
				c-0.059-0.212,0-0.5,0.182-0.861c0.06-0.063,0.105-0.137,0.133-0.229c0.153-0.302,0.275-0.544,0.365-0.724
				c0.151-0.302,0.287-0.59,0.407-0.864c0.122-0.271,0.273-0.694,0.455-1.27c0.272-0.725,0.482-1.299,0.635-1.723
				c0.543-1.513,1.012-2.647,1.405-3.402c0.424-0.757,1.12-1.876,2.087-3.358c1.029-1.542,1.68-2.541,1.951-2.995
				c0.244-0.332,0.394-0.665,0.454-0.998c0.03-0.242,0.03-0.544,0-0.907c0-0.425,0-0.682,0-0.772c0-0.272,0.059-0.53,0.181-0.772
				c0.182-0.301,0.666-0.527,1.453-0.68c0.272-0.061,0.561-0.105,0.862-0.135h0.317c0.121-0.122,0.259-0.243,0.411-0.362
				c0.33-0.244,0.633-0.41,0.907-0.501c0.241-0.089,0.529-0.196,0.861-0.317l0.454-0.091l-0.273-0.68
				c-0.241-0.423-0.496-0.727-0.77-0.908c-0.271-0.151-0.652-0.256-1.135-0.317c-0.061-0.031-0.136-0.044-0.227-0.044
				c-0.302-0.032-0.576-0.047-0.816-0.047l-0.043-0.228c0.27-0.029,0.558-0.045,0.86-0.045c0.666-0.061,1.134-0.061,1.408,0
				c0.242,0.061,0.543,0.227,0.907,0.5c0.03,0.029,0.059,0.046,0.09,0.046c0.272,0.209,0.469,0.316,0.59,0.316
				c0.151,0,0.392-0.227,0.726-0.681c0.152-0.182,0.302-0.377,0.454-0.589l1.043,0.044l0.409-0.952l-0.091-0.046
				c-0.062-0.031-0.105-0.075-0.135-0.136c-0.152-0.181-0.183-0.394-0.093-0.635c0.063-0.151,0.153-0.259,0.272-0.319
				c0.031-0.029,0.061-0.043,0.091-0.043c0.09-0.031,0.151-0.031,0.183,0l0.089-0.455l0.545,0.091L17.93,2.924h1.587l0.5,0.319
				h2.449V2.607l0.635-0.59l0.907,0.047v0.453h0.816V2.064h0.954v0.453h0.816v-0.5h0.953v0.5h0.862v-0.5h0.817v0.5h0.952V2.064
				h0.817v0.453h0.907v-0.5h0.861v0.5h0.908v-0.5h0.908v0.5h0.863v-0.5h0.814v0.5h0.908V2.064h0.816v0.408h0.908V2.064h0.636
				L39.977,2.2c0.334,0.121,0.62,0.226,0.863,0.317c0.393,0.151,0.937,0.424,1.633,0.817h5.307V2.517h2.587l0.182,0.044
				c0.149,0.032,0.271,0.107,0.361,0.228c0.062,0.121,0.108,0.257,0.137,0.408l-0.045,0.227l1.268,1.044V6.917z M22.467,14.583
				l0.271,0.229c-0.122,0.304-0.242,0.544-0.364,0.726c-0.06,0.121-0.163,0.287-0.316,0.498c-0.031,0-0.061,0.017-0.091,0.045
				c-0.211,0.242-0.363,0.455-0.454,0.636c-0.062,0.333-0.062,0.635,0,0.908c0.06,0.271,0.243,0.543,0.545,0.817
				c0.242,0.241,0.558,0.483,0.953,0.725c0.181,0.12,0.347,0.212,0.5,0.272l-0.138,0.272c-0.211-0.06-0.468-0.149-0.771-0.272
				c-0.543-0.241-1.012-0.545-1.405-0.907c-0.242-0.273-0.437-0.65-0.59-1.134l-0.182-0.728l0.228-0.179l0.045-0.545
				c-0.119,0-0.257-0.017-0.406-0.044c-0.365-0.032-0.636-0.077-0.818-0.137c-0.182-0.061-0.346-0.183-0.499-0.364l-0.182-0.227
				l-0.181,0.138c-0.12,0.119-0.227,0.27-0.317,0.453c-0.333,0.453-0.499,0.892-0.499,1.315c0,0.061,0,0.122,0,0.181
				c0.029,0.424,0.107,0.817,0.226,1.181c0.123,0.452,0.273,0.785,0.455,0.997c0.212,0.212,0.467,0.392,0.77,0.545
				c0.364,0.152,0.833,0.24,1.408,0.272c0.544,0.029,1.166-0.017,1.861-0.138c0.392-0.091,0.726-0.167,0.998-0.225
				c0.149-0.064,0.271-0.106,0.363-0.139c0.149-0.059,0.302-0.135,0.454-0.225c0.181-0.092,0.392-0.228,0.636-0.41
				c0.512-0.362,0.815-0.665,0.904-0.906c0.154-0.273,0.243-0.561,0.275-0.863c0.06-0.302,0.06-0.682,0-1.134v-0.045
				c-0.032-0.363-0.228-0.68-0.592-0.954c-0.241-0.211-0.573-0.437-0.997-0.679c-0.303-0.152-0.756-0.228-1.362-0.228H22.42
				L22.467,14.583z"/>
</svg>
