<?xml version="1.0"?>
<svg xmlns="http://www.w3.org/2000/svg" viewBox="0 0 36 36" fill="none">
  <path d="M28 15.05C27.9791 16.4714 27.4713 17.8425 26.5613 18.9345C25.6513 20.0265 24.3942 20.7732 23 21.05C24.6527 18.3575 25.3568 15.1892 25 12.05C24 5.05005 15 2.05005 15 2.05005C19 14.05 6 14.05 6 23.05C6 29.68 11.37 34.05 18 34.05C24.63 34.05 30 29.68 30 23.05C30.0735 20.2511 29.382 17.4851 28 15.05ZM17.5 29.05C16.7894 29.0787 16.0807 28.959 15.4189 28.6986C14.7572 28.4382 14.1569 28.0428 13.6564 27.5376C13.1559 27.0324 12.7661 26.4285 12.5119 25.7643C12.2577 25.1002 12.1447 24.3903 12.18 23.68C12.18 21.68 13.49 20.74 15.96 18.05C15.5052 20.2002 15.8351 22.4421 16.89 24.3701C17.7505 25.8806 19.1568 27.0042 20.82 27.51C19.9571 28.4432 18.7599 28.9968 17.49 29.05H17.5Z" fill="currentColor"/>
</svg>
