<?xml version="1.0"?>
<svg xmlns="http://www.w3.org/2000/svg" viewBox="0 0 258 329" fill="none">
  <path fill="currentColor" d="M257.306 328.533H0V299.51H257.305V288.638H0V85.6938H257.306V328.533ZM241.288 304.249C235.866 304.249 231.471 308.644 231.471 314.066C231.471 319.488 235.866 323.882 241.288 323.882C246.71 323.882 251.104 319.488 251.104 314.066C251.104 308.644 246.71 304.249 241.288 304.249ZM18.082 319.233H41.333V309.416H18.082V319.233ZM68.7178 319.233H91.9688V309.416H68.7178V319.233ZM118.32 319.231H138.471V316.648H118.32V319.231ZM222.172 312.514C221.316 312.514 220.622 313.209 220.622 314.065C220.622 314.921 221.316 315.615 222.172 315.615C223.028 315.615 223.721 314.921 223.722 314.065C223.722 313.209 223.028 312.514 222.172 312.514Z"/>
  <path stroke="#1A9FFF" d="M190.068 49.6305C186.575 36.5918 178.876 25.0702 168.167 16.8528C157.458 8.63529 144.336 4.18115 130.838 4.18115C117.339 4.18115 104.217 8.63529 93.5082 16.8528C82.799 25.0702 75.1005 36.5918 71.6068 49.6305M170.111 54.9771C167.795 46.3314 162.69 38.6917 155.589 33.2429C148.488 27.794 139.787 24.8406 130.837 24.8406C121.886 24.8406 113.185 27.794 106.084 33.2429C98.9833 38.6917 93.8786 46.3314 91.562 54.9771M148.069 60.8844C147.052 57.0913 144.813 53.7396 141.697 51.3491C138.582 48.9585 134.765 47.6628 130.838 47.6628C126.911 47.6628 123.094 48.9585 119.979 51.3491C116.863 53.7396 114.624 57.0913 113.607 60.8844" stroke-width="8.36184" stroke-linecap="round"/>
</svg>
