<?xml version="1.0"?>
<svg xmlns="http://www.w3.org/2000/svg" viewBox="0 0 36 36" fill="none">
  <path d="M13.72 33.44C11.7602 33.4362 9.84536 32.8521 8.2172 31.7612C6.58905 30.6703 5.32051 29.1215 4.57167 27.3104C3.82283 25.4993 3.62724 23.5069 4.00958 21.5847C4.39193 19.6625 5.33507 17.8967 6.72 16.51L18.82 4.40999C19.9734 3.49397 21.4234 3.03421 22.8939 3.11828C24.3644 3.20234 25.7526 3.82436 26.7941 4.86586C27.8356 5.90735 28.4576 7.29555 28.5417 8.76605C28.6258 10.2365 28.166 11.6866 27.25 12.84L14.95 25.14L12.12 22.31L24.41 9.99999C24.7675 9.62754 24.9672 9.13127 24.9672 8.61499C24.9672 8.09872 24.7675 7.60244 24.41 7.22999C24.0375 6.87247 23.5413 6.67283 23.025 6.67283C22.5087 6.67283 22.0124 6.87247 21.64 7.22999L9.54 19.34C8.47122 20.4583 7.88261 21.9505 7.90011 23.4973C7.91762 25.044 8.53985 26.5225 9.63366 27.6163C10.7275 28.7101 12.206 29.3324 13.7527 29.3499C15.2995 29.3674 16.7917 28.7788 17.91 27.71L31.13 14.49L34 17.31L20.74 30.54C18.8768 32.3988 16.3518 33.4418 13.72 33.44Z" fill="currentColor"/>
</svg>
