<?xml version="1.0"?>
<svg xmlns="http://www.w3.org/2000/svg" viewBox="0 0 36 36" fill="none">
  <path fill="currentColor" d="M26 16V10C26 7.87827 25.1571 5.84344 23.6569 4.34315C22.1566 2.84285 20.1217 2 18 2C15.8783 2 13.8434 2.84285 12.3431 4.34315C10.8429 5.84344 10 7.87827 10 10V16H6V22C6 25.1826 7.26428 28.2348 9.51472 30.4853C11.7652 32.7357 14.8174 34 18 34C21.1826 34 24.2348 32.7357 26.4853 30.4853C28.7357 28.2348 30 25.1826 30 22V16H26ZM20 27H16V21H20V27ZM22 16H14V10C14 8.93913 14.4214 7.92172 15.1716 7.17157C15.9217 6.42143 16.9391 6 18 6C19.0609 6 20.0783 6.42143 20.8284 7.17157C21.5786 7.92172 22 8.93913 22 10V16Z"/>
</svg>
