<?xml version="1.0"?>
<svg xmlns="http://www.w3.org/2000/svg" viewBox="0 0 33 17" fill="none">
  <path fill="currentColor" d="M10.272 17H6.6L0.24 0.199999H4.104L8.52 12.992L12.816 0.199999H16.68L10.272 17ZM32.4499 17H28.5379L25.1539 11.336H24.7459H22.2499V17H18.7219V0.199999H25.0099C27.3139 0.199999 29.0099 0.663999 30.0979 1.592C31.1859 2.504 31.7299 3.784 31.7299 5.432C31.7299 6.728 31.4419 7.808 30.8659 8.672C30.3059 9.536 29.5139 10.192 28.4899 10.64L32.4499 17ZM22.2499 3.2V8.312H25.0099C25.9379 8.312 26.6579 8.08 27.1699 7.616C27.6979 7.136 27.9619 6.48 27.9619 5.648C27.9619 4.832 27.7059 4.224 27.1939 3.824C26.6979 3.408 25.8979 3.2 24.7939 3.2H22.2499Z"/>
</svg>
