<?xml version="1.0"?>
<svg xmlns="http://www.w3.org/2000/svg" viewBox="0 0 36 36" fill="none">
  <path d="M32 15H4V32H32V15Z" fill="currentColor"/>
  <path d="M4 4V11H32V4H4ZM8 9.5C7.60444 9.5 7.21776 9.3827 6.88886 9.16294C6.55996 8.94318 6.30362 8.63082 6.15224 8.26537C6.00087 7.89991 5.96126 7.49778 6.03843 7.10982C6.1156 6.72186 6.30608 6.36549 6.58579 6.08579C6.86549 5.80608 7.22186 5.6156 7.60982 5.53843C7.99778 5.46126 8.39991 5.50087 8.76537 5.65224C9.13082 5.80362 9.44318 6.05996 9.66294 6.38886C9.8827 6.71776 10 7.10444 10 7.5C10 8.03043 9.78929 8.53914 9.41421 8.91421C9.03914 9.28929 8.53043 9.5 8 9.5Z" fill="currentColor"/>
</svg>
