<?xml version="1.0"?>
<svg xmlns="http://www.w3.org/2000/svg" viewBox="0 0 36 36" fill="none">
  <path fill="currentColor" d="M13 33C14.6569 33 16 31.6569 16 30C16 28.3431 14.6569 27 13 27C11.3431 27 10 28.3431 10 30C10 31.6569 11.3431 33 13 33Z"/>
  <path fill="currentColor" d="M23 33C24.6569 33 26 31.6569 26 30C26 28.3431 24.6569 27 23 27C21.3431 27 20 28.3431 20 30C20 31.6569 21.3431 33 23 33Z"/>
  <path fill="currentColor" d="M31 3V17.4265V17.8344C30.9688 19.4686 30.2492 21.0271 28.9943 22.1785C27.7394 23.3299 26.0481 23.9834 24.2801 24H10.7199C9.83744 24 8.96361 23.8393 8.14831 23.5271C7.33302 23.215 6.59222 22.7574 5.96822 22.1806C5.34421 21.6037 4.84923 20.9189 4.51152 20.1653C4.17382 19.4116 4 18.6038 4 17.7881C4 16.9723 4.17382 16.1645 4.51152 15.4109C4.84923 14.6572 5.34421 13.9724 5.96822 13.3956C6.59222 12.8188 7.33302 12.3612 8.14831 12.049C8.96361 11.7368 10.7199 11.5762 10.7199 11.5762L12.6256 11.5298C14.0845 11.5177 15.48 10.9766 16.5117 10.0229C17.5434 9.06917 18.1288 7.77915 18.1419 6.43046V3H31Z"/>
</svg>
