<?xml version="1.0"?>
<svg width="36" height="36" viewBox="0 0 36 36" fill="none" xmlns="http://www.w3.org/2000/svg">
  <path d="M30.129 15.954H27.2883C27.089 16.3342 26.8325 16.686 26.5242 16.9959C26.308 17.2132 23.2564 20.2762 20.5807 22.9617L24.3102 22.9617L28.3958 18.861C29.0244 18.2294 29.5197 17.4897 29.8634 16.6858C29.9655 16.4471 30.0542 16.2029 30.129 15.954Z" fill="currentColor "/>
  <path d="M8.73885 22.9617H12.4687L6.54903 17.0201C6.2493 16.7011 6.0028 16.3411 5.81494 15.954H3C3.30328 17.0339 3.8666 18.0341 4.65326 18.861L8.73885 22.9617Z" fill="currentColor "/>
  <path d="M21.109 22.9619H17.3785C15.2292 25.119 13.3225 27.0327 13.3225 27.0327L9.26666 22.9619H5.53782L13.2954 30.7482H13.3515L21.109 22.9619Z" fill="currentColor "/>
  <path d="M32.6546 15.9545C32.8489 15.3091 32.9501 14.6332 32.9501 13.947C32.9501 12.9964 32.7558 12.0657 32.3891 11.2082C32.0453 10.4042 31.5501 9.66458 30.9214 9.03294C30.2792 8.38856 29.5161 7.87729 28.6758 7.52843C27.8356 7.17958 26.9348 7 26.025 7C25.1152 7 24.2144 7.17958 23.3741 7.52843C22.5339 7.87729 21.7708 8.38856 21.1285 9.03294L19.0502 10.9704L16.9718 9.03294C15.6572 7.79125 13.9097 7.11178 12.1016 7.13921C10.2934 7.16664 8.56741 7.89879 7.29101 9.17978C6.0146 10.4608 5.28865 12.1894 5.26772 13.9977C5.25999 14.6648 5.34846 15.3233 5.52577 15.9545H8.33985C8.05112 15.3597 7.90084 14.7009 7.90863 14.0279C7.92159 12.908 8.37117 11.8375 9.16163 11.0442C9.95209 10.2509 11.021 9.79749 12.1408 9.7805C13.2605 9.76352 14.3427 10.1843 15.1569 10.9533L15.1631 10.9592L19.0493 14.5819L22.9989 10.8976C23.7925 10.1014 24.8999 9.6416 26.0241 9.6416C27.2565 9.6416 28.3778 10.1871 29.1638 11.0442C29.8715 11.816 30.3073 12.8405 30.3073 13.9466C30.3073 14.6525 30.1347 15.3406 29.8128 15.9545H32.6546Z" fill="currentColor "/>
  <path fill-rule="evenodd" clip-rule="evenodd" d="M8.33985 15.9545C8.18568 15.6369 8.07098 15.3011 7.99874 14.9545C7.9357 14.6521 7.905 14.3415 7.90863 14.0279C7.92159 12.908 8.37117 11.8375 9.16163 11.0442C9.95209 10.2509 11.021 9.79749 12.1408 9.7805C13.2605 9.76352 14.3427 10.1843 15.1569 10.9533L15.1631 10.9592L19.0493 14.5819L22.9989 10.8976C23.7925 10.1014 24.8999 9.6416 26.0241 9.6416C27.2565 9.6416 28.3778 10.1871 29.1638 11.0442C29.8715 11.816 30.3073 12.8405 30.3073 13.9466C30.3073 14.2887 30.2667 14.6267 30.1883 14.954C30.1705 15.0282 30.1507 15.1023 30.129 15.1753C30.058 15.415 29.9663 15.648 29.8551 15.8716C29.8414 15.8992 29.8271 15.9272 29.8128 15.9545L27.2883 15.954C27.089 16.3342 26.8325 16.686 26.5242 16.9959C26.3346 17.1866 23.9628 19.5671 21.577 21.9617C21.4209 22.1184 21.2646 22.2753 21.109 22.4314C21.0204 22.5204 20.932 22.6091 20.8438 22.6976C20.7558 22.786 20.668 22.8741 20.5807 22.9617L24.3102 22.9617L28.3958 18.861C28.9537 18.3004 29.4066 17.6547 29.7417 16.9545C29.766 16.9039 29.7898 16.8524 29.8128 16.8012C29.83 16.7629 29.8469 16.7244 29.8634 16.6858C29.9459 16.493 30.0196 16.2965 30.0844 16.0969C30.0997 16.0496 30.1147 16.0017 30.129 15.954L32.6546 15.9545C32.8489 15.3091 32.9501 14.6332 32.9501 13.947C32.9501 12.9964 32.7558 12.0657 32.3891 11.2082C32.0453 10.4042 31.5501 9.66458 30.9214 9.03294C30.2792 8.38856 29.5161 7.87729 28.6758 7.52843C27.8356 7.17958 26.9348 7 26.025 7C25.1152 7 24.2144 7.17958 23.3741 7.52843C22.5339 7.87729 21.7708 8.38856 21.1285 9.03294L19.0502 10.9704L16.9718 9.03294C15.6572 7.79125 13.9097 7.11178 12.1016 7.13921C10.2934 7.16664 8.56741 7.89879 7.29101 9.17978C6.0146 10.4608 5.28865 12.1894 5.26772 13.9977C5.264 14.3191 5.28261 14.6386 5.32275 14.954C5.36587 15.293 5.43397 15.6276 5.52577 15.9545L3 15.954C3.09614 16.2964 3.21842 16.6307 3.36566 16.954C3.68289 17.6506 4.11598 18.2962 4.65326 18.861L8.73885 22.9617H12.4687L6.54903 17.0201C6.52866 16.9984 6.50854 16.9766 6.48867 16.9545C6.21619 16.6522 5.99 16.3147 5.81494 15.954L8.33985 15.9545ZM9.26666 22.9619H5.53782L13.2954 30.7482H13.3515L21.109 22.9619H17.3785L13.3225 27.0327L9.26666 22.9619Z" fill="currentColor"/>
</svg>
