<?xml version="1.0"?>
<svg version="1.1" xmlns="http://www.w3.org/2000/svg" viewBox="0 0 36 36" fill="none">
  <g>
    <path d="M14.683 16.45V9.394h3.59v17.214h-3.59v-7.058h-7.82v7.058H3.25V9.393h3.615v7.058h7.82ZM27.243 9c2.016 0 3.549.402 4.598 1.205 1.05.803 1.574 1.844 1.574 3.123 0 .869-.262 1.647-.787 2.336-.508.672-1.23 1.188-2.164 1.55v.073c1.098.23 1.984.705 2.656 1.426.688.705 1.033 1.648 1.033 2.828 0 1.082-.312 2.041-.935 2.877-.623.82-1.475 1.459-2.557 1.918-1.082.443-2.279.664-3.59.664-1.246 0-2.435-.172-3.566-.516-1.115-.345-2.057-.828-2.828-1.451l1.55-2.656c1.278 1.033 2.794 1.55 4.549 1.55 1.114 0 1.983-.23 2.606-.69.64-.458.959-1.09.959-1.893 0-1.574-1.205-2.36-3.615-2.36h-2.213v-2.73h1.992c.95 0 1.713-.18 2.287-.54.59-.378.885-.902.885-1.575 0-.623-.279-1.123-.836-1.5-.54-.377-1.295-.565-2.262-.565-.738 0-1.451.123-2.14.369-.672.23-1.278.549-1.82.959l-1.524-2.312a9.046 9.046 0 0 1 2.779-1.549C24.923 9.181 26.046 9 27.243 9Z"/>
  </g>
</svg>
