<?xml version="1.0"?>
<svg xmlns="http://www.w3.org/2000/svg" viewBox="0 0 96.583 32">
  <path fill="currentColor" d="M55.016,3.717h0.91l0.436,0.145
				c0.073,0.145,0.183,0.231,0.328,0.255c0.121,0,0.23,0,0.327,0l0.072,0.146c0.121,0,0.206,0.013,0.254,0.036
				c0.098,0.048,0.182,0.036,0.256-0.036c0.096,0,0.242,0.013,0.436,0.036c0.169,0.048,0.339,0.122,0.508,0.218
				c0.194,0.072,0.353,0.157,0.473,0.254c0.146,0.073,0.231,0.122,0.255,0.146c0.072,0.025,0.146,0.037,0.217,0.037
				c0.099,0.073,0.183,0.109,0.255,0.109h0.328c0.048,0,0.133,0.012,0.254,0.036c0.146,0.048,0.292,0.122,0.437,0.218
				c0.169,0.049,0.314,0.097,0.436,0.146l0.182,0.108h0.109c0.072,0.194,0.133,0.375,0.182,0.546
				c0.072,0.168,0.133,0.363,0.181,0.581c0.049,0.218,0.073,0.424,0.073,0.618c0,0.17-0.012,0.34-0.038,0.509
				c0,0.17-0.036,0.34-0.108,0.508c-0.195,0.631-0.388,1.031-0.583,1.201c-0.194,0.194-0.291,0.351-0.291,0.473
				c-0.072,0.048-0.121,0.072-0.145,0.072c-0.07,0.024-0.13,0.037-0.182,0.038h9.673c0.048,0.097,0.085,0.181,0.109,0.254
				c0.073,0.17,0.146,0.279,0.218,0.328c0.461,0.073,0.97,0.17,1.528,0.291c0.533,0.146,1.065,0.278,1.6,0.4
				c0.533,0.098,0.981,0.182,1.345,0.254c0.412,0.098,0.667,0.133,0.764,0.109c0.218,0,0.352-0.206,0.4-0.618
				c0.048-0.121,0.072-0.291,0.072-0.51l0.727-1.454c0-0.024,0-0.133,0-0.327c0-0.17,0.012-0.365,0.037-0.583
				c0.024-0.266,0.061-0.534,0.109-0.799h1.164v3.999l-0.038,0.291v0.073c0,0.072,0.098,0.108,0.291,0.108
				c0.073,0.073,0.51,0.11,1.31,0.11c0.824,0,1.818-0.013,2.981-0.037c1.188,0,2.461-0.012,3.818-0.037
				c1.333-0.024,2.594-0.036,3.782-0.036c0.388-0.024,0.776-0.036,1.164-0.036c0.314,0,0.63,0,0.945,0
				c0.291,0,0.521,0.012,0.691,0.036c0.266,0,0.534,0,0.799,0c0.292,0,0.57-0.036,0.837-0.108c0.534,0,0.897,0,1.09,0
				c0.17,0,0.255,0.036,0.255,0.108c0.243,0.897,0.352,1.467,0.327,1.71c-0.049,0.194-0.158,0.291-0.327,0.291
				c-0.073,0.072-0.375,0.109-0.909,0.109c-0.557,0-1.151-0.024-1.782-0.073c-0.581-0.025-1.15-0.049-1.708-0.073
				c-0.559,0-0.874-0.024-0.945-0.072H78.762c0,0.072-0.146,0.109-0.436,0.109v0.509h1.636l0.582,0.619v1.709H79.78
				c-0.097-0.024-0.194-0.073-0.291-0.146c-0.073-0.023-0.121-0.059-0.146-0.108c-0.073-0.025-0.121-0.037-0.146-0.037
				c-0.073,0-0.158,0.012-0.254,0.037c-0.098,0-0.23,0-0.4,0c-0.169,0.049-0.363,0.072-0.581,0.072l-5.6,0.182
				c-0.776,0.073-1.492,0.132-2.146,0.181c-0.654,0.025-0.994,0.037-1.018,0.037c-0.098,0.169-0.254,0.401-0.473,0.691
				c-0.218,0.314-0.545,0.473-0.981,0.473c-0.389,0-0.837-0.304-1.347-0.909c-0.168,0-0.314-0.036-0.435-0.11
				c-0.146-0.096-0.255-0.145-0.328-0.145c0.073,0.388,0.109,0.691,0.109,0.909c0,0.219,0,0.449,0,0.692
				c0,0.339-0.012,0.593-0.036,0.763c-0.049,0.146-0.109,0.267-0.182,0.364c-0.17,0.024-0.364,0.024-0.583,0
				c-0.169-0.049-0.364-0.122-0.581-0.218c-0.097-0.024-0.521-0.036-1.272-0.036c-0.8,0-1.734,0-2.8,0
				c-1.091,0-2.243,0.012-3.456,0.036c-0.851,0-1.663,0-2.436,0c0.037,0.129,0.074,0.263,0.109,0.4
				c0.291,1.114,0.436,1.999,0.436,2.653v6.837c0,0.582-0.06,0.897-0.182,0.945c-0.169-0.048-0.338-0.072-0.509-0.072h-7.891
				c-0.363,0-0.594-0.036-0.691-0.108c-0.145-0.073-0.218-0.267-0.218-0.583L45.38,17.861c0.049-0.097,0.073-0.194,0.073-0.291
				c-0.041-0.165-0.205-0.268-0.49-0.309c-0.03,0.005-0.059,0.01-0.092,0.018c-0.072,0.024-0.157,0.121-0.254,0.291
				c-0.097,0-0.146,0.085-0.146,0.255s0.012,0.328,0.035,0.472c0,0.122,0.037,0.219,0.11,0.292
				c-0.024,0.072-0.073,0.157-0.146,0.253c-0.098,0.074-0.182,0.109-0.255,0.109c0.073,0.17,0.109,0.327,0.109,0.473
				c0.024,0.146,0.037,0.328,0.037,0.545c0,0.388-0.048,0.74-0.146,1.056c-0.146,0.314-0.412,0.521-0.8,0.617
				c-0.315,0.17-0.704,0.279-1.164,0.328c-0.437,0.048-0.848,0.048-1.236,0c-0.413-0.049-0.752-0.097-1.019-0.146
				c-0.267-0.048-0.399-0.109-0.399-0.182c-0.097-0.024-0.195-0.048-0.292-0.072c-0.194-0.048-0.316-0.108-0.364-0.183
				c-0.023,0.074-0.12,0.364-0.29,0.873c-0.194,0.485-0.412,1.031-0.655,1.637c-0.242,0.582-0.449,1.127-0.618,1.635
				c-0.17,0.461-0.255,0.716-0.255,0.765c0.049,0.072,0.122,0.206,0.219,0.399c0.025,0.17,0.037,0.292,0.037,0.364
				c0,0.097-0.061,0.206-0.182,0.327c-0.049,0.17-0.182,0.376-0.4,0.619c-0.266,0.217-0.775,0.217-1.527,0
				c-0.387-0.097-0.8-0.219-1.236-0.364c-0.437-0.17-0.836-0.328-1.201-0.473c-0.412-0.146-0.848-0.316-1.308-0.509h-0.256
				l0.146-0.219c0.291-0.509,0.631-1.09,1.019-1.746c0.412-0.654,0.788-1.272,1.127-1.854c0.363-0.583,0.654-1.08,0.872-1.492
				c0.243-0.411,0.364-0.654,0.364-0.727c0.073-0.169,0.061-0.412-0.036-0.727c-0.122-0.339-0.303-0.57-0.545-0.692l-0.474-0.254
				c-0.129-0.065-0.257-0.126-0.382-0.181l-7.181-0.51h-6.146c-1.309,0-2.654,0.133-4.036,0.4c-1.551,0.291-2.4,0.642-2.545,1.055
				c-0.097,0.218-0.122,0.545-0.073,0.981c0.073,0.533,0.254,0.994,0.545,1.382c0.29,0.364,0.375,0.618,0.255,0.764
				c-0.049,0.073-0.134,0.108-0.255,0.108L1.164,23.534c-0.34,0-0.619-0.169-0.837-0.509C0.108,22.686,0,22.273,0,21.789V11.243
				c0.121-0.17,0.314-0.303,0.581-0.399c0.559-0.243,1.2-0.219,1.927,0.073c0.51,0.194,2.873,0.521,7.092,0.981
				c0.412,0.024,0.884,0.351,1.418,0.982c0.533,0.605,1.067,0.945,1.601,1.018c0.508,0.048,1.236,0.024,2.181-0.072
				c0.825-0.073,1.576-0.182,2.255-0.328c1.552-0.291,2.91-0.654,4.073-1.092c0.703-0.266,1.685-0.69,2.946-1.271
				c1.567-0.669,3.275-1.02,5.127-1.056c0.153-0.024,0.311-0.048,0.472-0.072c0.679-0.096,1.358-0.194,2.036-0.292
				c0.655-0.071,1.164-0.096,1.528-0.071V9.353c0.146-0.339,0.267-0.667,0.364-0.981c0.073-0.268,0.182-0.486,0.327-0.655
				c0.169-0.194,0.388-0.339,0.655-0.436c0.242-0.073,0.583-0.098,1.019-0.073c0.363,0.073,0.751,0.158,1.163,0.255
				c0.413,0.072,0.788,0.157,1.128,0.254l1.053,0.363c0.074,0.024,0.146,0.11,0.219,0.254c0.073,0.025,0.132,0.122,0.182,0.292
				c0.048,0.145,0.072,0.327,0.072,0.545v0.473h5.854V9.171h3.091v0.473c0.242,0,0.545,0.012,0.909,0.036c0.413,0,0.823,0,1.236,0
				c0.412,0,0.788,0.012,1.127,0.035c0.291,0.049,0.473,0.074,0.546,0.074c0.072,0,0.375-0.024,0.908-0.074
				c0.534-0.023,1.176-0.06,1.927-0.108c0.752-0.024,1.528-0.084,2.327-0.182c0.849-0.048,1.613-0.133,2.292-0.254
				c0.072-0.024,0.181-0.121,0.327-0.291c0.121-0.073,0.242-0.193,0.363-0.363c0.098-0.194,0.207-0.473,0.327-0.837
				c-0.291-0.242-0.509-0.387-0.654-0.436c-0.121-0.048-0.242-0.109-0.363-0.182c-0.243,0-0.388-0.06-0.437-0.182
				c-0.242-0.098-0.522-0.182-0.836-0.254c-0.339-0.073-0.631-0.133-0.873-0.182h-0.146c-0.169-0.121-0.46-0.182-0.872-0.182
				L55.78,6.117c-0.292-0.074-0.484-0.135-0.583-0.183c-0.072-0.048-0.194-0.17-0.364-0.364V5.534h-0.763
				c-0.266,0-0.472,0.013-0.619,0.037c-0.12,0-0.242-0.012-0.363-0.037c-0.217-0.266-0.351-0.557-0.399-0.873
				c-0.073-0.29,0.134-0.836,0.618-1.636V2.917h0.073c0.63,0.169,1.031,0.303,1.199,0.399C54.774,3.462,54.92,3.595,55.016,3.717z
				 M43.071,19.098c-0.414,0.056-1.256,0.068-2.527,0.036c-0.146,0.194-0.219,0.388-0.219,0.583c0,0.315,0.11,0.57,0.328,0.763
				c0.194,0.194,0.46,0.291,0.8,0.291h0.946c0.194,0,0.388-0.097,0.582-0.291c0.194-0.193,0.29-0.448,0.29-0.763
				C43.271,19.512,43.205,19.305,43.071,19.098z"/>
</svg>
