<?xml version="1.0"?>
<svg xmlns="http://www.w3.org/2000/svg" viewBox="0 0 72 32">
  <path fill="currentColor" d="M2.485,19.214c-0.226-0.169-0.479-0.254-0.761-0.254
				c-0.263,0.02-0.479,0.084-0.648,0.198c-0.114,0.093-0.228,0.244-0.338,0.452c-0.094,0.167-0.131,0.355-0.113,0.563
				c0,0.17,0.036,0.331,0.113,0.479c0.037,0.15,0.159,0.292,0.365,0.424c0.188,0.113,0.367,0.179,0.537,0.198
				c0.205,0.018,0.403-0.039,0.591-0.17c0.149-0.056,0.3-0.168,0.45-0.338c0.113-0.132,0.191-0.311,0.227-0.536
				c0.018-0.208-0.008-0.386-0.085-0.535C2.749,19.505,2.636,19.345,2.485,19.214z M71.227,14.506
				c-0.527,0.603-1.24,1.26-2.143,1.973c-1.787,1.466-3.524,2.547-5.217,3.242c-1.953,0.827-3.861,1.458-5.722,1.891
				c-1.655,0.395-3.525,0.676-5.61,0.846c-1.656,0.131-4.598,0.216-8.826,0.252h-5.837v-0.534l-0.395-0.509l-0.478-0.027
				l-0.284,0.367l-0.507-0.141c-0.037-0.432-0.131-0.903-0.282-1.411c-0.319-1.013-0.751-1.701-1.298-2.057
				c-0.713-0.453-1.362-0.771-1.946-0.959c-0.638-0.206-1.334-0.29-2.084-0.253c-0.734,0.055-1.373,0.196-1.918,0.421
				c-0.49,0.189-1.006,0.509-1.551,0.959c-0.469,0.357-0.78,0.564-0.93,0.62c-0.057,0.036-0.132,0.056-0.227,0.056
				c-0.15,0-0.263,0.009-0.337,0.029c-0.227,0.02-0.499-0.103-0.819-0.368c-0.169-0.15-0.291-0.252-0.365-0.309
				c-0.134-0.113-0.228-0.18-0.283-0.196c-0.131-0.056-0.912-0.056-2.34,0c-1.071,0.037-2.049,0.094-2.934,0.168
				c-2.931,0.208-4.971,0.387-6.118,0.537c-1.033,0.131-2.021,0.271-2.961,0.422c-1.165,0.189-1.832,0.31-2.001,0.366
				c-0.132,0.038-0.799,0.338-2.003,0.902c-1.258,0.583-2,0.913-2.226,0.987c-0.415,0.169-0.725,0.272-0.933,0.311
				c-0.355,0.093-0.674,0.093-0.958,0c-0.3-0.075-0.573-0.197-0.818-0.368c-0.225-0.131-0.366-0.262-0.422-0.393
				c-0.15-0.188-0.255-0.378-0.312-0.565c-0.111-0.283-0.159-0.573-0.139-0.875c0.018-0.358,0.028-0.574,0.028-0.649
				c0.017-0.112,0.084-0.329,0.196-0.648c0.133-0.357,0.62-1.335,1.466-2.932c0.865-1.617,1.374-2.501,1.524-2.651
				C3.387,12.824,3.5,12.72,3.557,12.7c0.075-0.057,0.169-0.085,0.282-0.085c0.018,0,0.168,0.02,0.451,0.057
				c0.207,0.038,0.366,0.028,0.48-0.028c0.112-0.055,0.187-0.15,0.226-0.281v-0.196l0.535,0.167l0.48-0.337l1.494-0.254
				c0.677-0.169,1.409-0.339,2.198-0.507c2.576-0.526,5.292-0.958,8.149-1.297c2.857-0.338,6.503-0.546,10.94-0.621
				c2.199-0.037,4.126-0.037,5.779,0l0.481,0.453l0.649-0.339l0.646,0.394l0.481-0.394l0.535,0.451l0.677-0.338l0.563,0.48
				l0.591-0.338l0.622,0.366l0.535-0.282L41,10.163l0.593-0.281l0.45,0.422l0.592-0.281l0.51,0.478l0.733-0.283l0.563,0.424
				l0.731-0.283l0.481,0.453l0.62-0.283l1.606,0.283c1.26,0.206,2.397,0.433,3.414,0.676c1.033,0.226,2.78,0.743,5.243,1.551
				c1.259,0.396,2.407,0.78,3.441,1.156l0.195,0.057c0.152,0.057,0.302,0.103,0.453,0.142c0.49,0.075,0.874,0.018,1.156-0.17
				c0.281-0.206,0.422-0.441,0.422-0.703c0.02-0.151-0.019-0.36-0.114-0.623c-0.056-0.131-0.329-0.355-0.816-0.675
				c-0.509-0.282-0.996-0.509-1.468-0.678c-0.148-0.037-0.45-0.142-0.902-0.31c-0.15-0.018-0.245-0.065-0.281-0.142
				c-0.039-0.095-0.039-0.179,0-0.253c0.019-0.132,0.113-0.217,0.281-0.253c0.132-0.057,0.236-0.085,0.311-0.085
				c0.076,0,0.216,0.02,0.424,0.056c0.225,0.058,1.062,0.283,2.509,0.677c1.597,0.471,2.856,0.865,3.778,1.184
				c0.882,0.263,2.03,0.694,3.441,1.297C70.08,14.018,70.7,14.28,71.227,14.506z"/>
</svg>
