<?xml version="1.0"?>
<svg width="33" height="32" viewBox="0 0 33 32" fill="none" xmlns="http://www.w3.org/2000/svg">
  <defs>
    <filter id="SoftGlow" height="300%" width="300%" x="-75%" y="-75%">
      <feMorphology operator="dilate" radius="2" in="SourceAlpha" result="thicken"/>
      <feGaussianBlur in="thicken" stdDeviation="5" result="blurred"/>
      <feFlood flood-color="rgba(55, 75, 148, .7)" result="glowColor"/>
      <feComposite in="glowColor" in2="blurred" operator="in" result="SoftGlow_colored"/>
      <feMerge>
        <feMergeNode in="SoftGlow_colored"/>
        <feMergeNode in="SourceGraphic"/>
      </feMerge>
    </filter>
  </defs>
  <path fill="none" stroke-width=".6px" d="M31.9861 26.8551C32.2029 26.8551 32.3783 27.0254 32.3783 27.2355V29.2195C32.3783 29.4295 32.2029 29.5998 31.9861 29.5998H1.39223C1.17543 29.5998 1 29.4295 1 29.2195V27.2355C1 27.0254 1.17543 26.8551 1.39223 26.8551H3.20016V1.83469C3.20016 1.62465 3.37559 1.45435 3.59239 1.45435H10.1412C10.358 1.45435 10.5334 1.62465 10.5334 1.83469V5.05554H14.5097V1.83469C14.5097 1.62465 14.6851 1.45435 14.9019 1.45435H19.6631C19.8798 1.45435 20.0553 1.62465 20.0553 1.83469V4.18744L25.4729 3.22867C25.576 3.21139 25.6813 3.23257 25.7663 3.28995C25.8521 3.34734 25.9108 3.43537 25.9291 3.53454L30.1782 26.1126C30.2172 26.3193 30.0759 26.5175 29.8629 26.5552L28.1683 26.8551H31.9861ZM23.5066 22.6202L24.2874 26.7688L29.3362 25.8751L28.5555 21.7266L23.5066 22.6202ZM23.3657 21.8718L28.4147 20.9782L28.0604 19.0957L23.0114 19.989L23.3657 21.8718ZM27.9195 18.3472L25.2278 4.04525L20.1786 4.93891L22.8705 19.2406L27.9195 18.3472ZM20.0553 26.8551H23.5062L20.0553 8.51936V26.8551ZM19.2708 2.21503H15.2941V5.43589V26.8551H19.2708V2.21503ZM14.5097 26.8551V5.81623H10.5334V26.8551H14.5097ZM9.74893 10.38H3.98462V18.6904H9.74893V10.38ZM3.98462 9.6193H9.74893V7.41988H3.98462V9.6193ZM9.74893 19.451H3.98462V21.6503H9.74893V19.451ZM9.74893 5.43589V2.21503H3.98462V6.65919H9.74893V5.43589ZM9.74893 22.411H3.98462V26.8551H9.74893V22.411ZM1.78446 28.8391H31.5939V27.6158H19.6631H14.9019H10.1412H3.59239H1.78446V28.8391ZM13.6023 22.1066H11.4409C11.2241 22.1066 11.0486 21.9363 11.0486 21.7263C11.0486 21.5162 11.2241 21.3459 11.4409 21.3459H13.6023C13.8191 21.3459 13.9946 21.5162 13.9946 21.7263C13.9946 21.9363 13.8191 22.1066 13.6023 22.1066ZM11.4409 19.4512H13.6023C13.8191 19.4512 13.9946 19.2809 13.9946 19.0709C13.9946 18.8608 13.8191 18.6905 13.6023 18.6905H11.4409C11.2241 18.6905 11.0486 18.8608 11.0486 19.0709C11.0486 19.2809 11.2241 19.4512 11.4409 19.4512ZM18.3634 22.1066H16.2016C15.9848 22.1066 15.8093 21.9363 15.8093 21.7263C15.8093 21.5162 15.9848 21.3459 16.2016 21.3459H18.3634C18.5802 21.3459 18.7556 21.5162 18.7556 21.7263C18.7556 21.9363 18.5802 22.1066 18.3634 22.1066ZM16.2016 19.4512H18.3634C18.5802 19.4512 18.7556 19.2809 18.7556 19.0709C18.7556 18.8608 18.5802 18.6905 18.3634 18.6905H16.2016C15.9848 18.6905 15.8093 18.8608 15.8093 19.0709C15.8093 19.2809 15.9848 19.4512 16.2016 19.4512ZM4.80876 14.5352C4.80876 12.8573 5.71273 11.543 6.86643 11.543C8.02052 11.543 8.92449 12.8573 8.92449 14.5352C8.92449 16.2129 8.02052 17.5273 6.86643 17.5273C5.71273 17.5273 4.80876 16.2129 4.80876 14.5352ZM5.59322 14.5352C5.59322 15.7448 6.1762 16.7666 6.86643 16.7666C7.55666 16.7666 8.14003 15.7448 8.14003 14.5352C8.14003 13.3256 7.55666 12.3037 6.86643 12.3037C6.1762 12.3037 5.59322 13.3256 5.59322 14.5352Z"/>
</svg>
