<?xml version="1.0"?>
<svg width="60px" height="52px" viewBox="0 0 60 52" fill="none" xmlns="http://www.w3.org/2000/svg">
  <path fill-rule="evenodd" clip-rule="evenodd" d="M0.5 5.5C0.5 2.46243 2.96243 0 6 0H54C57.0376 0 59.5 2.46243 59.5 5.5V35C59.5 38.0376 57.0376 40.5 54 40.5H52.5C51.6716 40.5 51 41.1716 51 42V50.0858C51 51.4221 49.3843 52.0914 48.4393 51.1464L37.7929 40.5H6C2.96243 40.5 0.5 38.0376 0.5 35V5.5ZM6 1C3.51472 1 1.5 3.01472 1.5 5.5V35C1.5 37.4853 3.51472 39.5 6 39.5H38H38.2071L38.3536 39.6464L49.1464 50.4393C49.4614 50.7543 50 50.5312 50 50.0858V42C50 40.6193 51.1193 39.5 52.5 39.5H54C56.4853 39.5 58.5 37.4853 58.5 35V5.5C58.5 3.01472 56.4853 1 54 1H6ZM30 32C36.6274 32 42 26.6274 42 20C42 13.3726 36.6274 8 30 8C23.3726 8 18 13.3726 18 20C18 26.6274 23.3726 32 30 32ZM30 33C37.1797 33 43 27.1797 43 20C43 12.8203 37.1797 7 30 7C22.8203 7 17 12.8203 17 20C17 27.1797 22.8203 33 30 33ZM26.5 18C27.3284 18 28 17.3284 28 16.5C28 15.6716 27.3284 15 26.5 15C25.6716 15 25 15.6716 25 16.5C25 17.3284 25.6716 18 26.5 18ZM35 16.5C35 17.3284 34.3284 18 33.5 18C32.6716 18 32 17.3284 32 16.5C32 15.6716 32.6716 15 33.5 15C34.3284 15 35 15.6716 35 16.5ZM24.5 22C24.5 24.4853 26.5147 26.5 29 26.5H31C33.4853 26.5 35.5 24.4853 35.5 22H34.5C34.5 23.933 32.933 25.5 31 25.5H29C27.067 25.5 25.5 23.933 25.5 22H24.5Z" fill=""/>
</svg>
