<?xml version="1.0"?>
<svg xmlns="http://www.w3.org/2000/svg" viewBox="0 0 79.833 32">
  <path fill="currentColor" d="M16.598,10.484c1.581-0.238,2.805-0.404,3.67-0.504
				c0.71-0.08,1.956-0.148,3.729-0.205c1.815-0.041,3.166-0.041,4.053,0c0.751,0.019,1.569,0.107,2.456,0.265
				c0.437,0.08,0.8,0.149,1.096,0.206c1.047,0.575,2.169,0.89,3.374,0.948c0.253,0.021,0.609,0.021,1.063,0
				c0.296,0,0.462,0.011,0.504,0.032c0.08,0.099,0.426,0.058,1.034-0.122c0.515-0.139,1.035-0.313,1.57-0.529
				c0.473-0.181,0.798-0.279,0.974-0.296c0.219-0.041,0.493,0,0.831,0.115c0.315,0.101,0.579,0.267,0.798,0.504
				c0.08,0.101,0.168,0.219,0.265,0.354c0.061,0.08,0.141,0.198,0.239,0.354c0.138,0.199,0.493,0.251,1.065,0.15
				c0.295-0.04,0.571-0.1,0.825-0.178c0.298,0,0.622-0.167,0.976-0.501c0.159-0.159,0.299-0.316,0.419-0.477
				c0.036,0,0.292,0.059,0.767,0.181c0.612,0.115,1.242,0.234,1.894,0.353c0.216,0.04,0.445,0.08,0.68,0.117
				c1.854,0.314,3.71,0.513,5.564,0.593c2.093,0.098,4.358-0.048,6.806-0.443c1.24-0.197,2.267-0.403,3.074-0.619l0.238,0.147
				c0.279,0.156,0.681,0.402,1.212,0.736c1.244,0.732,2.495,1.253,3.76,1.57c0.669,0.16,1.459,0.274,2.364,0.354
				c0.376,0.021,0.781,0.038,1.216,0.058c1.023,0.041,2.386-0.077,4.084-0.354c0.845-0.118,1.593-0.245,2.247-0.385
				c-0.216,0.279-0.474,0.613-0.771,1.007c-0.632,0.768-1.193,1.419-1.687,1.951c-0.532,0.593-1.39,1.164-2.573,1.719
				c-0.869,0.412-1.706,0.728-2.517,0.944c-0.098,0.021-0.195,0.041-0.296,0.06c-0.667,0.177-1.753,0.229-3.255,0.148
				c-1.222-0.057-2.365-0.167-3.432-0.326c-0.709-0.118-3.433-0.455-8.163-1.005l-6.897-0.828l-0.114,0.382l-1.866,0.147
				c-0.099-0.114-0.197-0.226-0.296-0.321c-0.08-0.08-0.228-0.148-0.444-0.208c-0.198-0.042-0.363-0.042-0.502,0
				c-0.1,0.038-0.217,0.098-0.354,0.177l-0.149,0.119l0.029-0.178c0.041-0.16-0.107-0.278-0.442-0.354
				c-0.101-0.021-0.267,0.028-0.502,0.148c-0.24,0.136-0.366,0.236-0.384,0.296c-0.022,0.058-0.03,0.167-0.03,0.321
				c-0.042,0.182-0.136,0.367-0.296,0.563c-0.16,0.219-0.426,0.416-0.802,0.594c-0.354,0.158-0.661,0.245-0.917,0.266
				c-0.216,0-0.404-0.038-0.561-0.118c-0.039-0.018-0.08-0.042-0.119-0.059l-0.029-0.03l0.12,0.267
				c0.059,0.157,0.096,0.334,0.116,0.532c0.02,0.217,0.012,0.481-0.031,0.799c-0.019,0.296-0.137,0.622-0.353,0.979
				c-0.159,0.274-0.328,0.501-0.503,0.681c-0.098,0.116-0.25,0.224-0.442,0.322c-0.199,0.104-0.327,0.122-0.387,0.06
				c-0.059-0.06-0.077-0.119-0.059-0.177c0.021-0.022,0.109-0.137,0.267-0.353c0.136-0.16,0.256-0.486,0.352-0.977
				c0.1-0.476,0.14-0.869,0.123-1.186c-0.023-0.275-0.146-0.632-0.39-1.066c-0.097-0.177-0.184-0.336-0.264-0.473
				c-0.08-0.116-0.136-0.176-0.177-0.176c-0.079,0-0.287,0-0.623,0c-0.433-0.021-0.777-0.041-1.033-0.062
				c-0.238,0-1.295-0.119-3.167-0.354c-1.991-0.258-3.137-0.405-3.433-0.443c-0.493-0.039-2.446,0.048-5.857,0.264
				c-3.394,0.24-5.454,0.414-6.185,0.533c-0.63,0.121-1.795,0.425-3.489,0.918c-1.263,0.376-2.376,0.719-3.345,1.037
				c-0.613,0.176-1.655,0.59-3.138,1.24c-1.437,0.633-2.335,1.057-2.691,1.272c-0.353,0.217-0.611,0.385-0.768,0.503
				c-0.178,0.139-0.296,0.266-0.355,0.386c-0.06,0.139-0.1,0.237-0.12,0.296c-0.02,0.039-0.059,0.106-0.116,0.207
				c-0.06,0.078-0.198,0.098-0.414,0.06c-0.198-0.042-0.405-0.109-0.622-0.207c-0.196-0.08-0.623-0.501-1.271-1.272
				c-0.258-0.317-0.476-0.603-0.65-0.859c-0.2-0.255-0.287-0.4-0.267-0.444c0-0.099,0.12-0.235,0.354-0.413
				c0.217-0.139,0.728-0.472,1.537-1.006c0.613-0.415,1.53-0.897,2.754-1.448c0.253-0.1,0.68-0.275,1.271-0.535
				c0.416-0.196,0.68-0.324,0.797-0.383c0.456-0.218,0.981-0.446,1.567-0.682c0.91-0.336,2.032-0.7,3.376-1.096
				c1.301-0.354,3.095-0.7,5.386-1.032c0.787-0.1,1.547-0.187,2.279-0.267c0.609-0.08,0.994-0.121,1.153-0.121
				c0.414-0.02,1.174-0.036,2.274-0.058c1.383-0.02,2.24-0.02,2.575,0c0.889,0.058,1.895,0.136,3.021,0.237
				c1.615,0.138,2.474,0.226,2.572,0.265c0.06,0.023,0.307,0.14,0.739,0.355c0.434,0.197,0.799,0.347,1.095,0.446
				c0.296,0.078,0.562,0.146,0.797,0.204c0.12,0.021,0.209,0.03,0.269,0.03l-0.239-0.326c-0.097-0.157-0.176-0.364-0.233-0.621
				c-0.039-0.157-0.06-0.314-0.06-0.475c0-0.078-0.011-0.128-0.029-0.146h-0.062c-0.53,0-1.042-0.038-1.537-0.118
				c-0.297-0.042-1.232-0.098-2.811-0.178c-1.616-0.1-2.674-0.148-3.165-0.148c-0.512,0-1.144,0.018-1.896,0.06
				c-0.728,0.038-1.766,0.106-3.105,0.205c-1.244,0.08-2.804,0.296-4.675,0.654c-1.735,0.313-3.275,0.641-4.616,0.977
				c-1.063,0.276-2.534,0.798-4.41,1.567c-1.005,0.432-2.107,0.915-3.312,1.448c-0.475,0.216-1.106,0.583-1.896,1.095
				c-0.293,0.199-0.709,0.481-1.242,0.858c-0.097,0.059-0.227,0.049-0.384-0.03c-0.059-0.02-0.106-0.05-0.146-0.088l-0.061-0.029
				c-0.16-0.061-0.443-0.326-0.858-0.799c-0.473-0.535-0.776-0.871-0.918-1.007c-0.217-0.237-0.362-0.412-0.441-0.533
				c-0.08-0.138-0.08-0.247,0-0.324c0.058-0.038,0.185-0.188,0.384-0.442c0.236-0.3,0.415-0.516,0.532-0.652
				c0.157-0.159,0.74-0.542,1.746-1.155c0.493-0.293,0.976-0.571,1.449-0.828c0.632-0.374,2.041-0.927,4.23-1.655
				c1.716-0.593,3.078-1.025,4.083-1.303C13.604,10.978,14.786,10.762,16.598,10.484z M26.126,10.517
				c-0.195,0-0.364,0.066-0.501,0.205c-0.142,0.136-0.208,0.305-0.208,0.504c0,0.194,0.066,0.364,0.208,0.501
				c0.137,0.139,0.306,0.208,0.501,0.208c0.197,0,0.365-0.069,0.504-0.208c0.139-0.137,0.206-0.307,0.206-0.501
				c0-0.199-0.067-0.368-0.206-0.504C26.492,10.583,26.324,10.517,26.126,10.517z M28.376,10.93
				c-0.139,0.116-0.206,0.274-0.206,0.472c0,0.196,0.067,0.363,0.206,0.504c0.138,0.139,0.306,0.205,0.504,0.205
				c0.195,0,0.362-0.066,0.499-0.205c0.141-0.141,0.21-0.308,0.21-0.504c0-0.197-0.069-0.355-0.21-0.472
				c-0.137-0.14-0.304-0.208-0.499-0.208C28.682,10.722,28.514,10.791,28.376,10.93z M66.249,13.562l-14.561-0.355l0.563,0.296
				l14.41,0.384L66.249,13.562z M32.042,15.189c0-0.176-0.066-0.336-0.205-0.474c-0.139-0.118-0.296-0.179-0.475-0.179
				c-0.194,0-0.362,0.061-0.501,0.179c-0.141,0.138-0.208,0.298-0.208,0.474c0,0.181,0.067,0.335,0.208,0.474
				c0.139,0.139,0.307,0.206,0.501,0.206c0.179,0,0.336-0.067,0.475-0.206S32.042,15.37,32.042,15.189z M33.32,14.981
				c-0.142,0.118-0.208,0.278-0.208,0.474c0,0.199,0.066,0.356,0.208,0.478c0.136,0.136,0.304,0.201,0.501,0.201
				c0.179,0,0.333-0.065,0.475-0.201c0.138-0.121,0.205-0.278,0.205-0.478c0-0.195-0.067-0.355-0.205-0.474
				c-0.142-0.137-0.296-0.207-0.475-0.207C33.624,14.774,33.456,14.844,33.32,14.981z M10.506,17.883
				c-0.159,0.136-0.237,0.296-0.237,0.472c0,0.197,0.078,0.362,0.237,0.503c0.136,0.139,0.307,0.206,0.504,0.206
				s0.364-0.067,0.501-0.206c0.159-0.141,0.235-0.306,0.235-0.503c0-0.176-0.076-0.336-0.235-0.472
				c-0.137-0.141-0.304-0.211-0.501-0.211S10.642,17.743,10.506,17.883z M3.583,17.672c0.175,0,0.332-0.068,0.472-0.206
				c0.138-0.138,0.207-0.295,0.207-0.471c0-0.199-0.069-0.355-0.207-0.478c-0.14-0.136-0.297-0.205-0.472-0.205
				c-0.198,0-0.366,0.069-0.505,0.205c-0.118,0.122-0.176,0.278-0.176,0.478c0,0.176,0.058,0.333,0.176,0.471
				C3.217,17.604,3.385,17.672,3.583,17.672z M5.624,15.988c0,0.196,0.071,0.364,0.208,0.505c0.136,0.136,0.296,0.206,0.473,0.206
				c0.198,0,0.366-0.07,0.503-0.206c0.136-0.141,0.208-0.309,0.208-0.505c0-0.177-0.072-0.334-0.208-0.473
				c-0.137-0.138-0.305-0.207-0.503-0.207c-0.177,0-0.337,0.069-0.473,0.207C5.695,15.654,5.624,15.811,5.624,15.988z M8.287,18.828
				c-0.14,0.137-0.207,0.296-0.207,0.474c0,0.196,0.067,0.367,0.207,0.503c0.138,0.14,0.306,0.208,0.503,0.208
				s0.365-0.068,0.504-0.208c0.138-0.136,0.205-0.307,0.205-0.503c0-0.178-0.067-0.337-0.205-0.474
				c-0.139-0.137-0.307-0.207-0.504-0.207S8.424,18.691,8.287,18.828z"/>
</svg>
