<?xml version="1.0"?>
<svg xmlns="http://www.w3.org/2000/svg" viewBox="0 0 36 36" fill="none">
  <path d="M22 30.05H17.29C17.2874 27.0566 16.097 24.1864 13.9803 22.0697C11.8636 19.953 8.99348 18.7627 6 18.76V14.05C10.2435 14.05 14.3131 15.7358 17.3137 18.7363C20.3143 21.7369 22 25.8066 22 30.05ZM6 4.05005V9.05005C11.5695 9.05005 16.911 11.2625 20.8492 15.2008C24.7875 19.1391 27 24.4805 27 30.05H32C32 26.6357 31.3275 23.2547 30.0209 20.1003C28.7142 16.9458 26.7991 14.0796 24.3848 11.6653C21.9705 9.25095 19.1042 7.3358 15.9498 6.02918C12.7953 4.72256 9.41437 4.05005 6 4.05005ZM8 24.05C7.20888 24.05 6.43552 24.2846 5.77772 24.7242C5.11992 25.1637 4.60723 25.7884 4.30448 26.5193C4.00173 27.2502 3.92252 28.0545 4.07686 28.8304C4.2312 29.6063 4.61216 30.3191 5.17157 30.8785C5.73098 31.4379 6.44372 31.8188 7.21964 31.9732C7.99556 32.1275 8.79983 32.0483 9.53074 31.7456C10.2616 31.4428 10.8864 30.9301 11.3259 30.2723C11.7654 29.6145 12 28.8412 12 28.05C12 26.9892 11.5786 25.9718 10.8284 25.2216C10.0783 24.4715 9.06087 24.05 8 24.05Z" fill="currentColor"/>
</svg>
