<?xml version="1.0"?>
<svg xmlns="http://www.w3.org/2000/svg" viewBox="0 0 36 36" fill="none">
  <path fill="currentColor" fill-rule="evenodd" clip-rule="evenodd" d="M35 3H1V33H35V3ZM31.9347 21.0462L31.9394 20.9383H28.8547L28.8498 21.0365C28.8295 21.4472 28.7887 21.8341 28.6385 22.1179L28.6363 22.1226C28.5624 22.2811 28.4582 22.4075 28.3157 22.4951C28.1728 22.5829 27.9843 22.636 27.7352 22.636C27.4879 22.636 27.3108 22.5787 27.1784 22.4897C27.0455 22.4003 26.9494 22.2733 26.8735 22.1204L26.873 22.1193C26.7937 21.9642 26.7287 21.7358 26.677 21.4462C26.6256 21.1581 26.5886 20.8163 26.5621 20.4387C26.5091 19.6833 26.499 18.7916 26.499 17.9123C26.499 17.0329 26.5091 16.1413 26.5621 15.3859C26.5886 15.0082 26.6256 14.6664 26.677 14.3784C26.7287 14.0887 26.7937 13.8603 26.873 13.7052L26.8735 13.7041C26.9494 13.5512 27.0455 13.4242 27.1784 13.3348C27.3108 13.2458 27.4879 13.1885 27.7352 13.1885C27.986 13.1885 28.1693 13.2372 28.3064 13.3197C28.4426 13.4017 28.5416 13.5223 28.6159 13.6815L28.6184 13.6861C28.7685 13.9699 28.8092 14.3568 28.8296 14.7676L28.8344 14.8657H31.9192L31.9144 14.7579C31.8527 13.3478 31.3792 12.1741 30.6046 11.4352C29.8534 10.7198 28.9552 10.3639 27.7352 10.3639C26.9095 10.3639 26.2742 10.5306 25.7583 10.8026C25.2429 11.0743 24.8524 11.4483 24.5128 11.853C23.9149 12.5722 23.6433 13.6099 23.5185 14.6994C23.4085 15.6589 23.411 16.6737 23.4132 17.5699L23.4132 17.5721C23.4135 17.6947 23.4138 17.815 23.4138 17.9327C23.4138 18.0512 23.4135 18.1723 23.4132 18.2954C23.411 19.1895 23.4085 20.1953 23.5185 21.1457C23.6434 22.2253 23.9154 23.2528 24.5131 23.9719C24.8527 24.3766 25.2429 24.7502 25.7583 25.0219C26.2742 25.2939 26.9095 25.4607 27.7352 25.4607C28.9552 25.4607 29.8535 25.1047 30.6047 24.3893C31.3788 23.6508 31.873 22.4571 31.9347 21.0462ZM18.5066 13.3523H22.2793V10.5276H15.4215V25.2971H22.2793V22.4725H18.5066V19.2634H21.7519V16.4387H18.5066V13.3523ZM10.8261 25.2971L9.06143 19.6315H8.28579V25.2971H5.20068V10.5276H9.4206C11.0094 10.5276 12.0494 10.9467 12.6872 11.742C13.321 12.5323 13.5391 13.6721 13.5391 15.0693C13.5391 16.6063 13.303 18.0261 11.9165 18.9378L14.0459 25.2971H10.8261ZM9.40032 13.3523H8.28579V16.8068H9.40032C9.65833 16.8068 9.8467 16.748 9.98633 16.6544C10.126 16.5608 10.225 16.427 10.2951 16.2633C10.4376 15.9303 10.454 15.4911 10.454 15.0693C10.454 14.6475 10.4375 14.2137 10.2953 13.8861C10.2254 13.7252 10.1266 13.5939 9.98704 13.502C9.84735 13.41 9.65873 13.3523 9.40032 13.3523Z"/>
</svg>
