<?xml version="1.0"?>
<svg xmlns="http://www.w3.org/2000/svg" viewBox="0 0 36 36" fill="none">
  <path fill="currentColor" fill-rule="evenodd" clip-rule="evenodd" d="M25.2377 7.0939C26.902 8.83356 27.8828 11.1153 28 13.52C29.998 14.2303 31.6809 15.6232 32.7522 17.4532C33.8234 19.2831 34.2142 21.4325 33.8555 23.5224C33.4968 25.6122 32.4118 27.5084 30.7917 28.8764C29.1716 30.2444 27.1205 30.9965 25 31H11C8.87962 30.9965 6.82852 30.2444 5.20842 28.8764C3.58833 27.5084 2.50327 25.6122 2.1446 23.5224C1.78593 21.4325 2.17666 19.2831 3.24792 17.4532C4.31917 15.6232 6.00213 14.2303 8.00005 13.52C8.11845 11.109 9.10495 8.82222 10.7775 7.08168C12.45 5.34114 14.6957 4.26433 17.1 4.04999H18.0201H18.9401C21.3372 4.27345 23.5733 5.35425 25.2377 7.0939ZM10 19.6L15.41 25L25.03 15.38L22.64 13L15.41 20.23L12.39 17.21L10 19.6Z"/>
</svg>
