<?xml version="1.0"?>
<svg xmlns="http://www.w3.org/2000/svg" viewBox="0 0 36 36" fill="none">
  <path fill="currentColor" fill-rule="evenodd" clip-rule="evenodd" d="M21.0001 4.46371C20.3342 4.2552 19.644 4.11562 18.94 4.04999H18.02H17.1C14.6956 4.26433 12.45 5.34114 10.7774 7.08168C9.10489 8.82222 8.11839 11.109 7.99999 13.52C6.00207 14.2303 4.31911 15.6232 3.24785 17.4532C2.1766 19.2831 1.78587 21.4325 2.14454 23.5224C2.50321 25.6122 3.58826 27.5084 5.20836 28.8764C6.82846 30.2444 8.87956 30.9965 11 31H25C27.1204 30.9965 29.1715 30.2444 30.7916 28.8764C32.4117 27.5084 33.4968 25.6122 33.8554 23.5224C34.2141 21.4325 33.8234 19.2831 32.7521 17.4532C32.1879 16.4894 31.4541 15.6469 30.5939 14.9615C25.2191 14.5021 21 9.99375 21 4.5C21 4.4879 21 4.4758 21.0001 4.46371ZM20.5 9H15.5V19H20.5V9ZM18 21C17.4067 21 16.8266 21.1759 16.3333 21.5056C15.8399 21.8352 15.4554 22.3038 15.2284 22.8519C15.0013 23.4001 14.9419 24.0033 15.0576 24.5853C15.1734 25.1672 15.4591 25.7018 15.8787 26.1213C16.2982 26.5409 16.8328 26.8266 17.4147 26.9424C17.9967 27.0581 18.5999 26.9987 19.1481 26.7716C19.6962 26.5446 20.1648 26.1601 20.4944 25.6667C20.8241 25.1734 21 24.5933 21 24C21 23.2043 20.6839 22.4413 20.1213 21.8787C19.5587 21.3161 18.7957 21 18 21Z"/>
  <path fill="#FFC82C" d="M36 4.5C36 6.98528 33.9853 9 31.5 9C29.0147 9 27 6.98528 27 4.5C27 2.01472 29.0147 0 31.5 0C33.9853 0 36 2.01472 36 4.5Z"/>
</svg>
