<?xml version="1.0"?>
<svg width="13" height="21" viewBox="0 0 13 21" fill="none" xmlns="http://www.w3.org/2000/svg">
  <path fill="" fill-rule="evenodd" clip-rule="evenodd" d="M5.80814 0.197492L5.19324 0.62086C4.96265 0.774812 4.69363 0.851788 4.38619 0.8133L3.92501 0.736324C3.42541 0.697836 2.96424 0.928764 2.73365 1.39062L2.4262 2.04492C2.27248 2.31433 2.08032 2.50677 1.8113 2.62224L1.38856 2.81468C0.92739 3.00712 0.658372 3.46897 0.696803 3.96932L0.735234 4.70059C0.773665 5.00849 0.696803 5.23942 0.504648 5.47035L0.23563 5.85523C-0.0718184 6.24011 -0.0718184 6.77894 0.197199 7.20231L0.619941 7.81812C0.773665 8.04904 0.812097 8.31846 0.812097 8.62636L0.735234 9.08822C0.696803 9.58856 0.92739 10.0504 1.38856 10.2813L2.04189 10.5893C2.31091 10.7432 2.50306 10.9356 2.61836 11.2051L2.77208 11.6284C3.00267 12.0903 3.42541 12.3597 3.96344 12.3212L4.69363 12.2827C4.96265 12.2442 5.23167 12.3212 5.46226 12.5137L5.84657 12.7831C6.23088 13.091 6.76891 13.091 7.19165 12.8216L7.80655 12.3982C8.03714 12.2442 8.30616 12.2057 8.57517 12.2057L9.03635 12.2827C9.53595 12.3212 10.0356 12.0903 10.2277 11.6284L10.5736 10.9741C10.6889 10.7047 10.881 10.5123 11.1501 10.3968L11.5728 10.2429C12.034 10.0119 12.3414 9.58856 12.303 9.04973L12.2646 8.31846C12.2261 8.04904 12.303 7.77963 12.4951 7.5487L12.7642 7.16382C13.0716 6.77894 13.0716 6.24011 12.8026 5.81674L12.3798 5.20093C12.2261 4.97 12.1493 4.70059 12.1877 4.43117L12.2646 3.96932C12.303 3.46897 12.0724 2.96863 11.6112 2.77619L10.9579 2.4298C10.6889 2.31433 10.4967 2.12189 10.3814 1.85248L10.1893 1.42911C9.99712 0.967252 9.53595 0.659348 9.03635 0.697836L8.30616 0.736324C7.99871 0.774812 7.76812 0.697836 7.53753 0.505396L7.15322 0.23598C6.76891 -0.0719243 6.23088 -0.0719243 5.80814 0.197492ZM6.4999 2.69921C4.38619 2.69921 2.65679 4.39268 2.65679 6.50952C2.65679 8.62636 4.38619 10.3583 6.4999 10.3583C8.6136 10.3583 10.3046 8.62636 10.3046 6.50952C10.3046 4.39268 8.6136 2.69921 6.4999 2.69921Z"/>
  <path fill="" fill-rule="evenodd" clip-rule="evenodd" d="M3.04084 12.7833V20.096L6.49963 17.6328L9.95843 20.096V12.7833C9.65098 12.8988 9.3051 12.9758 8.95922 12.9373L8.53648 12.8603C8.38276 12.8603 8.26746 12.8988 8.15217 12.9758L7.53727 13.3606C6.88394 13.784 6.07689 13.784 5.42356 13.3222L5.07768 13.0143C4.96239 12.9373 4.8471 12.9373 4.7318 12.9373L4.00161 12.9758C3.65573 12.9758 3.30985 12.9373 3.04084 12.7833Z"/>
</svg>
