<?xml version="1.0"?>
<svg xmlns="http://www.w3.org/2000/svg" viewBox="0 0 47.875 32">
  <path fill="currentColor" d="M8.387,1.282v0.192l0.384,0.039v0.422l27.197-0.077V1.625
				l0.23-0.152l0.806,0.039l0.461,0.269v0.153h0.192v0.422l0.346,0.268h0.537l0.077,0.079c0.08,0.051,0.129,0.102,0.156,0.154
				c0.025,0.051,0.038,0.114,0.038,0.189c0,0.026,0,0.052,0,0.077h8.528l0.077,0.079c0.025,0.05,0.051,0.125,0.076,0.229
				c0.128,0.258,0.194,0.565,0.194,0.923c0,0.356-0.038,0.704-0.117,1.037c-0.052,0.178-0.102,0.307-0.153,0.384l-8.683,0.038
				l-0.153,0.346h-0.767v1.497c-0.051,0.154-0.103,0.257-0.154,0.307c-0.052,0.078-0.102,0.129-0.153,0.154l-0.076,0.039h-5.765
				l-0.191,0.423h0.538c0.436,0.051,0.822,0.153,1.152,0.309c0.334,0.152,0.628,0.319,0.885,0.499
				c0.126,0.101,0.217,0.177,0.267,0.229L34.163,9.81h-3.266l5.454,18.859l-0.306,0.153l0.077,0.04
				c0.077,0.024,0.151,0.05,0.229,0.076c0.104,0.051,0.207,0.128,0.308,0.231v0.459c-0.025,0.026-0.062,0.065-0.113,0.117
				c-0.128,0.076-0.296,0.153-0.5,0.231c-0.179,0.101-0.356,0.176-0.537,0.229l-0.193,0.039h-0.538l-0.079,0.229h-1.305v0.422
				h-2.881v-0.383L24.674,9.886l-0.346-0.232l-0.537,0.999l-0.038,0.883h0.114l0.039,0.153l0.152,0.041v2.458l-0.152,0.039v0.153
				l-1.459,0.5c-0.436,0.154-0.947,0.308-1.537,0.461c-1.154,0.307-2.101,0.422-2.843,0.347c-0.665-0.077-1.344-0.23-2.037-0.463
				c-0.205-0.051-0.408-0.113-0.614-0.191l-0.191-0.116l-0.424,0.347l-0.654,0.193l-0.153,0.267l-1.383,3.303
				c-0.974,2.408-1.625,4.034-1.958,4.88c-0.053,0.128-0.077,0.244-0.077,0.346c-0.026,0.155-0.026,0.333,0,0.536
				c0.024,0.335,0.087,0.769,0.191,1.307l0.729,0.039c0.128,0.026,0.219,0.05,0.268,0.076c0.077,0.029,0.152,0.079,0.232,0.156
				c0.026,0.051,0.049,0.089,0.077,0.114l-0.039,0.076l-0.422,0.384c-0.36,0.282-0.706,0.487-1.037,0.615
				c-0.36,0.129-0.833,0.242-1.421,0.348l-0.77,0.113l-6.683,0.077l-0.231-0.266l-0.077-0.77l-0.537-0.116
				c-0.153,0-0.257-0.025-0.309-0.077c-0.05,0-0.088-0.024-0.114-0.076L0.397,26.71c0-0.128-0.013-0.282-0.038-0.463
				c-0.051-0.126-0.089-0.243-0.113-0.345c-0.029-0.18-0.039-0.446-0.039-0.806c0-0.359,0.039-0.704,0.113-1.037l3.419-9.181
				c0.18-0.229,0.358-0.487,0.538-0.768c0.384-0.564,0.602-0.922,0.654-1.074c0.077-0.258,0.127-0.464,0.152-0.617
				c0.052-0.23,0.038-0.46-0.038-0.691c-0.077-0.282-0.206-0.575-0.385-0.883c-0.153-0.281-0.346-0.551-0.576-0.808
				C3.906,9.859,3.611,9.616,3.202,9.31L2.666,8.888V8.233c0.127,0,0.28-0.05,0.46-0.153C3.51,7.9,3.854,7.631,4.161,7.272
				C4.47,6.888,4.686,6.478,4.814,6.045C4.84,5.915,4.866,5.788,4.892,5.66V5.505C4.866,5.481,4.84,5.441,4.814,5.391
				C4.738,5.288,4.648,5.199,4.546,5.123c-0.103-0.076-0.23-0.129-0.385-0.155L3.97,4.891C3.868,4.915,3.766,4.929,3.663,4.929
				c-0.257-0.024-0.447-0.09-0.576-0.192C2.908,4.635,2.792,4.495,2.741,4.316c-0.101-0.232-0.101-0.487,0-0.77
				c0.103-0.307,0.295-0.5,0.577-0.576c0.179-0.051,0.371-0.051,0.575,0c0.078,0,0.231,0.127,0.463,0.384
				C4.482,3.482,4.599,3.611,4.698,3.74v0.422l0.194,0.23l0.04-0.462c0.025-0.127,0.052-0.256,0.077-0.384
				c0.076-0.282,0.19-0.511,0.345-0.689c0.128-0.182,0.345-0.347,0.652-0.5C6.16,2.28,6.301,2.229,6.429,2.204v-0.27h1.228V1.282
				H8.387z M18.182,9.962c-0.204,0.024-0.434,0.088-0.691,0.19c-0.537,0.23-0.984,0.565-1.343,1.001
				c-0.361,0.433-0.588,0.919-0.692,1.46c-0.077,0.281-0.116,0.508-0.116,0.69l0.039,0.152c0.05,0.128,0.115,0.258,0.191,0.386
				c0.23,0.409,0.615,0.754,1.153,1.036c0.333,0.18,0.794,0.294,1.382,0.345c0.64,0.079,1.204,0.066,1.69-0.037
				c1.076-0.256,1.984-0.653,2.728-1.189c0.179-0.154,0.331-0.332,0.459-0.54c0.077-0.128,0.142-0.282,0.192-0.46
				c0.028-0.101,0.038-0.434,0.038-1c0-0.562-0.024-0.96-0.077-1.189c-0.023-0.155-0.178-0.424-0.46-0.808
				c-0.281-0.356-0.512-0.588-0.69-0.69c-0.231-0.128-0.447-0.179-0.653-0.153c-0.155,0-0.345,0.037-0.578,0.113
				c-0.153,0.053-0.283,0.155-0.382,0.308l-0.117,0.193l0.193,0.039l-0.038,0.384c-0.026,0.024-0.052,0.061-0.078,0.113
				c-0.077,0.128-0.14,0.245-0.191,0.346c-0.18,0.384-0.27,0.745-0.27,1.076c0,0.359,0.041,0.666,0.118,0.921
				c0.049,0.154,0.166,0.387,0.344,0.693c0.103,0.178,0.332,0.371,0.693,0.575c0.176,0.102,0.356,0.18,0.537,0.231v0.19
				c-0.23,0.026-0.5-0.011-0.808-0.114c-0.589-0.18-1.05-0.499-1.382-0.959c-0.177-0.281-0.308-0.704-0.383-1.27
				c-0.026-0.178-0.051-0.37-0.078-0.574v-0.231c-0.025-0.103-0.05-0.23-0.077-0.384c-0.077-0.256-0.127-0.398-0.154-0.424
				c-0.05-0.05-0.152-0.14-0.307-0.268L18.182,9.962z"/>
</svg>
