<?xml version="1.0"?>
<svg xmlns="http://www.w3.org/2000/svg" viewBox="0 0 487 751" fill="none">
  <path fill="currentColor" d="M486.098 157.851H0V0H486.098V157.851ZM446.369 90.9473C434.822 90.9473 425.462 100.308 425.462 111.854C425.462 123.401 434.822 132.762 446.369 132.762C457.916 132.762 467.276 123.401 467.276 111.854C467.276 100.308 457.916 90.9474 446.369 90.9473ZM44.9492 122.309H97.2178V101.401H44.9492V122.309ZM129.624 122.309H181.893V101.401H129.624V122.309Z"/>
  <path stroke="currentColor" d="M155.76 111.855C155.76 111.855 155.76 219.725 155.76 274.873C155.76 306.294 172.886 329.604 203.847 337.9C250.888 350.505 244.451 375.811 244.451 464.417" stroke-width="6.34447"/>
  <path fill="currentColor" fill-rule="evenodd" clip-rule="evenodd" d="M335.633 469.539C338.754 462.851 352.798 463.52 366.173 465.526C379.548 467.532 388.689 472.436 393.816 476.895C397.918 480.462 399.984 488.191 400.504 491.609C405.631 495.622 411.427 505.43 414.102 510.78C416.242 515.06 432.828 577.063 440.853 607.53C444.643 623.135 451.598 661.834 449.101 691.795C445.98 729.247 427.255 738.833 424.58 741.731C421.905 744.629 402.51 752.654 389.804 749.31C377.097 745.966 372.193 735.489 369.517 729.47C366.842 723.451 359.708 710.966 352.351 705.17C346.466 700.534 338.902 699.524 335.855 699.598H157.516C154.127 699.598 150.307 700.192 148.821 700.49C137.229 702.942 127.197 716.094 121.624 729.024C116.051 741.953 109.14 752.431 87.7392 749.31C66.3386 746.189 57.4214 735.488 49.619 721.221C41.8169 706.954 42.2631 677.082 41.8173 664.153C41.4606 653.809 48.356 617.487 51.8485 600.619L69.6825 535.302C70.7971 530.844 73.7845 519.875 76.8163 511.671C79.8481 503.468 87.4421 494.581 90.8602 491.163C90.3253 488.487 93.0158 483.211 94.4276 480.908C99.3321 472.214 113.152 468.424 118.503 466.641C123.853 464.858 144.363 463.519 150.382 465.526C155.197 467.131 156.55 471.545 156.624 473.551L239.329 471.545L322.034 472.882L334.517 473.329L335.633 469.539ZM147.387 590.872C138.413 589.297 129.862 595.295 128.286 604.268L119.112 656.518C117.537 665.491 123.534 674.043 132.508 675.619L186.922 685.172C195.895 686.748 204.447 680.75 206.022 671.777L215.196 619.527C216.771 610.553 210.774 602.002 201.801 600.426L147.387 590.872ZM362.424 604.268C360.848 595.295 352.297 589.297 343.323 590.872L288.909 600.426C279.936 602.002 273.938 610.553 275.514 619.527L284.687 671.777C286.263 680.75 294.814 686.748 303.788 685.172L358.202 675.619C367.176 674.043 373.173 665.491 371.598 656.518L362.424 604.268ZM185.337 539.375C171.67 539.376 160.591 550.455 160.591 564.122C160.591 577.79 171.67 588.869 185.337 588.87C199.004 588.87 210.084 577.79 210.084 564.122C210.084 550.455 199.004 539.375 185.337 539.375ZM304.119 539.375C290.452 539.375 279.372 550.455 279.372 564.122C279.372 577.79 290.452 588.87 304.119 588.87C317.786 588.869 328.866 577.79 328.866 564.122C328.866 550.455 317.786 539.376 304.119 539.375ZM371.513 542.168C364.249 542.169 358.36 548.058 358.36 555.322C358.36 562.585 364.249 568.474 371.513 568.474C378.776 568.474 384.666 562.586 384.666 555.322C384.666 548.058 378.777 542.168 371.513 542.168ZM119.446 500.259C116.977 500.259 112.376 501.271 109.906 501.86C108.919 502.095 108.237 502.981 108.237 503.996V518.093C108.237 519.324 107.239 520.323 106.008 520.323H91.9472C91.0182 520.323 90.1894 520.899 89.9227 521.789C89.329 523.771 88.3963 527.517 88.3964 531.469C88.3965 535.419 89.3281 539.163 89.9218 541.146C90.1885 542.037 91.0192 542.615 91.9491 542.615H106.008C107.239 542.615 108.237 543.613 108.237 544.844V558.918C108.237 559.841 108.804 560.666 109.683 560.947C111.738 561.604 115.669 562.678 119.384 562.678C123.099 562.678 127.029 561.603 129.084 560.947C129.962 560.666 130.53 559.841 130.53 558.918V544.844C130.53 543.613 131.528 542.615 132.759 542.615H146.84C147.758 542.615 148.58 542.051 148.85 541.173C149.443 539.235 150.37 535.558 150.37 531.469C150.37 527.378 149.442 523.7 148.849 521.762C148.58 520.885 147.759 520.323 146.842 520.323H132.759C131.528 520.323 130.53 519.324 130.53 518.093V503.989C130.53 502.977 129.851 502.094 128.868 501.856C126.431 501.266 121.909 500.259 119.446 500.259ZM245.339 517.202C237.336 517.202 230.849 523.689 230.849 531.692C230.849 539.694 237.336 546.181 245.339 546.181C253.341 546.181 259.828 539.694 259.828 531.692C259.828 523.689 253.341 517.202 245.339 517.202ZM347.437 518.093C340.173 518.093 334.285 523.982 334.285 531.246C334.285 538.51 340.173 544.398 347.437 544.398C354.701 544.398 360.59 538.51 360.59 531.246C360.59 523.982 354.701 518.093 347.437 518.093ZM395.141 518.093C387.878 518.093 381.989 523.982 381.989 531.246C381.989 538.51 387.878 544.398 395.141 544.398C402.405 544.398 408.294 538.51 408.294 531.246C408.294 523.982 402.405 518.093 395.141 518.093ZM371.066 494.909C363.802 494.909 357.913 500.797 357.913 508.061C357.913 515.325 363.802 521.214 371.066 521.214C378.33 521.214 384.219 515.325 384.219 508.061C384.218 500.797 378.33 494.909 371.066 494.909Z"/>
  <path fill="currentColor" fill-rule="evenodd" clip-rule="evenodd" d="M335.632 469.54C338.753 462.852 352.797 463.521 366.173 465.527C379.548 467.533 388.688 472.438 393.815 476.896C397.917 480.463 399.984 488.191 400.504 491.609C405.631 495.622 411.426 505.431 414.101 510.781C416.242 515.062 432.827 577.064 440.852 607.53C444.642 623.135 451.598 661.834 449.101 691.796C445.98 729.247 427.254 738.833 424.579 741.731C421.904 744.629 402.509 752.654 389.803 749.31C377.096 745.966 372.192 735.489 369.516 729.47C366.841 723.451 359.708 710.968 352.351 705.171C346.466 700.535 338.902 699.524 335.855 699.598H157.515C154.126 699.598 150.308 700.193 148.821 700.49C137.229 702.942 127.197 716.094 121.624 729.024C116.051 741.954 109.14 752.431 87.7391 749.31C66.3385 746.189 57.4214 735.489 49.619 721.222C41.8166 706.955 42.2621 677.083 41.8163 664.153C41.4597 653.809 48.356 617.488 51.8485 600.62L69.6825 535.302C70.7971 530.844 73.7845 519.876 76.8163 511.672C79.8481 503.469 87.4421 494.581 90.8602 491.163C90.3256 488.488 93.0148 483.212 94.4266 480.909C99.331 472.215 113.153 468.425 118.503 466.641C123.853 464.858 144.361 463.521 150.381 465.527C155.196 467.132 156.549 471.546 156.623 473.552L239.328 471.546L322.034 472.883L334.517 473.329L335.632 469.54ZM147.386 590.874C138.412 589.298 129.86 595.296 128.285 604.269L119.112 656.518C117.537 665.492 123.534 674.043 132.508 675.619L186.922 685.172C195.895 686.748 204.447 680.75 206.022 671.777L215.196 619.528C216.772 610.554 210.774 602.003 201.801 600.427L147.386 590.874ZM362.424 604.269C360.848 595.296 352.297 589.298 343.323 590.874L288.909 600.427C279.936 602.003 273.938 610.554 275.514 619.528L284.686 671.777C286.262 680.75 294.814 686.748 303.788 685.172L358.202 675.619C367.175 674.043 373.173 665.492 371.598 656.518L362.424 604.269ZM185.337 539.377C171.67 539.377 160.59 550.456 160.59 564.124C160.59 577.791 171.67 588.87 185.337 588.87C199.004 588.87 210.084 577.791 210.084 564.124C210.084 550.456 199.004 539.377 185.337 539.377ZM304.118 539.377C290.451 539.377 279.372 550.457 279.372 564.124C279.372 577.791 290.451 588.869 304.118 588.87C317.785 588.87 328.865 577.791 328.865 564.124C328.865 550.456 317.785 539.377 304.118 539.377ZM371.513 542.17C364.249 542.17 358.36 548.058 358.36 555.322C358.36 562.586 364.249 568.474 371.513 568.474C378.777 568.474 384.665 562.586 384.665 555.322C384.665 548.058 378.777 542.17 371.513 542.17ZM119.445 500.259C116.976 500.259 112.376 501.272 109.906 501.861C108.919 502.096 108.236 502.981 108.236 503.996V518.094C108.236 519.325 107.238 520.323 106.007 520.323H91.9471C91.018 520.323 90.1893 520.9 89.9227 521.79C89.3291 523.772 88.3954 527.517 88.3954 531.469C88.3955 535.42 89.328 539.164 89.9218 541.147C90.1885 542.038 91.0185 542.615 91.9481 542.615H106.007C107.238 542.615 108.236 543.613 108.236 544.844V558.919C108.236 559.841 108.804 560.667 109.683 560.948C111.738 561.605 115.668 562.678 119.383 562.678C123.098 562.678 127.028 561.604 129.083 560.947C129.962 560.666 130.529 559.841 130.529 558.919V544.844C130.529 543.613 131.528 542.615 132.759 542.615H146.84C147.758 542.615 148.579 542.051 148.849 541.173C149.443 539.236 150.369 535.558 150.369 531.469C150.369 527.379 149.442 523.7 148.849 521.762C148.58 520.885 147.758 520.323 146.841 520.323H132.759C131.528 520.323 130.529 519.325 130.529 518.094V503.989C130.529 502.978 129.851 502.094 128.868 501.856C126.431 501.266 121.908 500.26 119.445 500.259ZM245.338 517.202C237.335 517.202 230.848 523.689 230.848 531.692C230.848 539.695 237.335 546.182 245.338 546.182C253.34 546.182 259.828 539.695 259.828 531.692C259.828 523.689 253.34 517.202 245.338 517.202ZM347.437 518.093C340.173 518.093 334.284 523.983 334.284 531.247C334.284 538.511 340.174 544.399 347.437 544.399C354.701 544.399 360.59 538.51 360.59 531.247C360.59 523.983 354.701 518.094 347.437 518.093ZM395.141 518.093C387.878 518.093 381.988 523.983 381.988 531.247C381.988 538.511 387.878 544.399 395.141 544.399C402.405 544.399 408.294 538.51 408.294 531.247C408.294 523.983 402.405 518.094 395.141 518.093ZM371.065 494.91C363.801 494.91 357.913 500.798 357.913 508.062C357.913 515.326 363.801 521.214 371.065 521.214C378.329 521.214 384.218 515.326 384.218 508.062C384.218 500.798 378.329 494.91 371.065 494.91Z"/>
  <path fill="currentColor" fill-rule="evenodd" clip-rule="evenodd" d="M299.726 685.378C299.98 685.396 300.234 685.41 300.489 685.417C300.234 685.41 299.98 685.396 299.726 685.378ZM302.437 685.351C302.25 685.369 302.063 685.382 301.876 685.393C302.063 685.382 302.25 685.369 302.437 685.351ZM298.531 685.247C298.782 685.284 299.035 685.315 299.289 685.34C299.035 685.315 298.782 685.284 298.531 685.247ZM302.952 685.298C302.892 685.305 302.833 685.31 302.773 685.317C302.835 685.31 302.896 685.304 302.958 685.297L302.952 685.298ZM303.792 685.172H303.791H303.792ZM288.696 679.983C288.612 679.89 288.53 679.796 288.448 679.702C288.53 679.796 288.612 679.89 288.696 679.983ZM344.354 596.722C350.097 595.714 355.57 599.552 356.578 605.295L365.752 657.544C366.76 663.286 362.921 668.76 357.179 669.768L302.765 679.322C297.022 680.33 291.549 676.491 290.541 670.749L281.367 618.499C280.359 612.756 284.197 607.285 289.939 606.276L344.354 596.722ZM360.053 675.182C359.586 675.32 359.11 675.441 358.625 675.539C359.11 675.441 359.586 675.32 360.053 675.182ZM285.735 675.334C285.628 675.078 285.526 674.82 285.432 674.557C285.526 674.82 285.628 675.078 285.735 675.334ZM360.888 674.912C360.673 674.988 360.456 675.06 360.236 675.128C360.456 675.06 360.673 674.988 360.888 674.912ZM284.845 672.542C284.99 673.192 285.173 673.825 285.391 674.44C285.173 673.825 284.99 673.192 284.845 672.542ZM368.757 668.985C368.67 669.105 368.583 669.224 368.493 669.342C368.583 669.224 368.67 669.105 368.757 668.985ZM369.625 667.642C369.454 667.937 369.275 668.226 369.087 668.509C369.275 668.226 369.454 667.937 369.625 667.642ZM283.499 602.392V602.393V602.392ZM289.446 680.758C289.376 680.69 289.306 680.622 289.237 680.552C289.306 680.622 289.376 680.69 289.446 680.758ZM289.225 680.541C289.139 680.454 289.054 680.366 288.97 680.277C289.054 680.366 289.139 680.454 289.225 680.541ZM288.926 680.23C288.849 680.148 288.772 680.066 288.696 679.983C288.772 680.066 288.849 680.148 288.926 680.23ZM288.402 679.648C288.331 679.565 288.261 679.482 288.191 679.397C288.261 679.482 288.331 679.565 288.402 679.648ZM287.174 678.02C287.127 677.949 287.08 677.878 287.034 677.806C287.08 677.878 287.127 677.949 287.174 678.02ZM286.384 676.694C286.335 676.603 286.286 676.513 286.239 676.421C286.286 676.513 286.335 676.603 286.384 676.694ZM285.825 675.539C285.795 675.47 285.764 675.403 285.735 675.334C285.764 675.403 285.795 675.47 285.825 675.539ZM366.844 671.207C366.772 671.276 366.7 671.345 366.627 671.414C366.7 671.345 366.772 671.276 366.844 671.207ZM366.567 671.469C366.488 671.543 366.407 671.617 366.326 671.689C366.407 671.617 366.488 671.543 366.567 671.469ZM367.394 670.645C367.321 670.724 367.246 670.802 367.171 670.88C367.246 670.802 367.321 670.724 367.394 670.645ZM371.806 660.618C371.799 660.703 371.792 660.789 371.784 660.874C371.792 660.789 371.799 660.703 371.806 660.618ZM371.774 660.976C371.764 661.083 371.753 661.189 371.74 661.295C371.753 661.189 371.764 661.083 371.774 660.976Z"/>
  <path fill="currentColor" d="M188.732 685.386C188.94 685.399 189.147 685.409 189.354 685.415C189.147 685.409 188.94 685.399 188.732 685.386ZM187.354 685.239C187.708 685.292 188.061 685.333 188.413 685.362C187.922 685.321 187.428 685.259 186.934 685.172L187.354 685.239ZM134.146 605.294C135.155 599.552 140.628 595.715 146.37 596.723L200.785 606.276C206.528 607.285 210.365 612.757 209.357 618.499L200.184 670.749C199.175 676.491 193.703 680.329 187.961 679.321L133.546 669.769C127.803 668.76 123.964 663.287 124.973 657.544L134.146 605.294ZM204.656 676.072C204.57 676.253 204.48 676.431 204.387 676.607C204.48 676.431 204.57 676.253 204.656 676.072ZM131.412 675.383C131.64 675.439 131.869 675.492 132.101 675.539C131.869 675.492 131.64 675.439 131.412 675.383ZM130.229 675.045C130.447 675.116 130.667 675.184 130.89 675.246C130.667 675.184 130.447 675.116 130.229 675.045ZM205.197 674.81C205.273 674.61 205.347 674.409 205.416 674.205C205.347 674.409 205.273 674.61 205.197 674.81ZM205.925 672.334C205.964 672.149 206.001 671.963 206.034 671.775C206.001 671.963 205.964 672.149 205.925 672.334ZM123.857 671.186C123.569 670.904 123.29 670.611 123.023 670.31C123.29 670.611 123.569 670.904 123.857 671.186ZM122.089 669.153C122.098 669.165 122.107 669.177 122.115 669.188C122.109 669.18 122.102 669.172 122.096 669.163L122.089 669.153ZM118.877 658.977C118.884 658.71 118.896 658.442 118.916 658.173C118.896 658.442 118.884 658.71 118.877 658.977ZM118.954 657.749C118.947 657.823 118.94 657.897 118.934 657.971C118.939 657.906 118.945 657.841 118.951 657.775L118.954 657.749ZM144.065 590.628H144.064H144.065ZM205.77 673.003C205.797 672.893 205.824 672.783 205.85 672.673C205.824 672.783 205.797 672.893 205.77 673.003ZM205.867 672.601C205.887 672.512 205.906 672.423 205.925 672.334C205.906 672.423 205.887 672.512 205.867 672.601ZM122.373 669.527C122.435 669.607 122.497 669.686 122.561 669.764C122.497 669.686 122.435 669.607 122.373 669.527ZM124.069 671.388C123.998 671.321 123.927 671.254 123.857 671.186C123.927 671.254 123.998 671.321 124.069 671.388ZM121.028 667.521C121.02 667.506 121.012 667.491 121.003 667.476C121.012 667.491 121.02 667.506 121.028 667.521ZM118.875 659.148C118.876 659.091 118.876 659.034 118.877 658.977C118.876 659.034 118.876 659.091 118.875 659.148Z"/>
  <path fill="currentColor" fill-rule="evenodd" clip-rule="evenodd" d="M335.632 469.539C338.753 462.852 352.798 463.52 366.173 465.526C379.548 467.533 388.688 472.437 393.816 476.896C397.917 480.462 399.983 488.191 400.503 491.609C405.63 495.622 411.427 505.43 414.102 510.78C416.242 515.06 432.827 577.064 440.853 607.53C444.643 623.135 451.598 661.835 449.101 691.796C445.98 729.247 427.254 738.833 424.579 741.731C421.904 744.63 402.51 752.654 389.803 749.311C377.097 745.967 372.192 735.49 369.517 729.471C366.842 723.452 359.708 710.968 352.352 705.172C346.467 700.535 338.901 699.524 335.855 699.599H157.515C154.126 699.599 150.307 700.193 148.821 700.49C137.229 702.943 127.197 716.095 121.624 729.024C116.051 741.954 109.14 752.431 87.7395 749.311C66.3387 746.19 57.4218 735.489 49.6194 721.222C41.8171 706.954 42.2625 677.083 41.8167 664.153C41.46 653.81 48.3554 617.487 51.8479 600.619L69.6819 535.303C70.7965 530.844 73.7839 519.876 76.8157 511.672C79.8475 503.468 87.4425 494.581 90.8606 491.163C90.3256 488.488 93.0152 483.212 94.427 480.908C99.3315 472.214 113.153 468.425 118.503 466.642C123.854 464.858 144.362 463.52 150.381 465.526C155.196 467.131 156.549 471.545 156.623 473.552L239.328 471.546L322.033 472.883L334.518 473.329L335.632 469.539ZM147.386 590.874C138.413 589.299 129.861 595.295 128.285 604.269L119.112 656.519C117.536 665.492 123.534 674.044 132.507 675.619L186.922 685.173C195.896 686.748 204.447 680.751 206.023 671.777L215.196 619.527C216.771 610.554 210.774 602.002 201.801 600.427L147.386 590.874ZM362.424 604.269C360.848 595.295 352.297 589.299 343.323 590.874L288.908 600.427C279.935 602.002 273.938 610.554 275.513 619.527L284.687 671.777C286.262 680.751 294.814 686.748 303.787 685.173L358.202 675.619C367.176 674.044 373.172 665.492 371.597 656.519L362.424 604.269ZM185.337 539.376C171.67 539.376 160.59 550.456 160.59 564.123C160.59 577.79 171.67 588.87 185.337 588.87C199.004 588.87 210.083 577.79 210.083 564.123C210.083 550.456 199.004 539.376 185.337 539.376ZM304.118 539.376C290.451 539.376 279.371 550.456 279.371 564.123C279.371 577.79 290.451 588.87 304.118 588.87C317.786 588.87 328.865 577.79 328.865 564.123C328.865 550.456 317.786 539.376 304.118 539.376ZM371.513 542.169C364.249 542.169 358.36 548.058 358.36 555.322C358.36 562.586 364.249 568.475 371.513 568.475C378.777 568.474 384.665 562.586 384.665 555.322C384.665 548.058 378.777 542.169 371.513 542.169ZM119.446 500.26C116.977 500.26 112.376 501.271 109.907 501.86C108.92 502.096 108.237 502.981 108.237 503.996V518.094C108.237 519.325 107.238 520.323 106.007 520.323H91.9475C91.0185 520.323 90.1888 520.899 89.9221 521.789C89.3284 523.772 88.3957 527.517 88.3958 531.47C88.3959 535.42 89.3284 539.163 89.9221 541.146C90.1888 542.037 91.0186 542.615 91.9485 542.615H106.007C107.238 542.615 108.237 543.614 108.237 544.845V558.919C108.237 559.841 108.804 560.666 109.683 560.947C111.738 561.604 115.668 562.679 119.383 562.679C123.098 562.679 127.028 561.604 129.083 560.947C129.962 560.666 130.53 559.841 130.53 558.919V544.845C130.53 543.614 131.528 542.615 132.759 542.615H146.839C147.758 542.615 148.58 542.052 148.849 541.174C149.443 539.236 150.369 535.559 150.369 531.47C150.369 527.379 149.442 523.7 148.848 521.763C148.579 520.885 147.759 520.323 146.841 520.323H132.759C131.528 520.323 130.53 519.325 130.53 518.094V503.989C130.53 502.978 129.851 502.094 128.868 501.856C126.431 501.267 121.909 500.26 119.446 500.26ZM245.338 517.202C237.335 517.202 230.848 523.69 230.848 531.692C230.848 539.695 237.336 546.182 245.338 546.182C253.341 546.182 259.828 539.695 259.828 531.692C259.828 523.69 253.341 517.202 245.338 517.202ZM347.437 518.094C340.173 518.094 334.285 523.982 334.284 531.246C334.284 538.51 340.173 544.399 347.437 544.399C354.701 544.399 360.59 538.51 360.59 531.246C360.59 523.982 354.701 518.094 347.437 518.094ZM395.141 518.094C387.877 518.094 381.989 523.982 381.989 531.246C381.989 538.51 387.877 544.399 395.141 544.399C402.405 544.399 408.293 538.51 408.293 531.246C408.293 523.982 402.405 518.094 395.141 518.094ZM371.066 494.909C363.802 494.909 357.913 500.799 357.913 508.063C357.914 515.326 363.802 521.215 371.066 521.215C378.329 521.215 384.218 515.326 384.218 508.063C384.218 500.799 378.33 494.909 371.066 494.909Z"/>
  <path fill="currentColor" fill-rule="evenodd" clip-rule="evenodd" d="M299.726 685.378C299.98 685.396 300.234 685.41 300.489 685.417C300.234 685.41 299.98 685.396 299.726 685.378ZM302.437 685.351C302.25 685.369 302.063 685.382 301.876 685.393C302.063 685.382 302.25 685.369 302.437 685.351ZM298.531 685.247C298.782 685.284 299.035 685.315 299.289 685.34C299.035 685.315 298.782 685.284 298.531 685.247ZM302.952 685.298C302.892 685.305 302.833 685.31 302.773 685.317C302.835 685.31 302.896 685.304 302.958 685.297L302.952 685.298ZM303.792 685.172H303.791H303.792ZM288.696 679.983C288.612 679.89 288.53 679.796 288.448 679.702C288.53 679.796 288.612 679.89 288.696 679.983ZM344.354 596.722C350.097 595.714 355.57 599.552 356.578 605.295L365.752 657.544C366.76 663.286 362.921 668.76 357.179 669.768L302.765 679.322C297.022 680.33 291.549 676.491 290.541 670.749L281.367 618.499C280.359 612.756 284.197 607.285 289.939 606.276L344.354 596.722ZM360.053 675.182C359.586 675.32 359.11 675.441 358.625 675.539C359.11 675.441 359.586 675.32 360.053 675.182ZM285.735 675.334C285.628 675.078 285.526 674.82 285.432 674.557C285.526 674.82 285.628 675.078 285.735 675.334ZM360.888 674.912C360.673 674.988 360.456 675.06 360.236 675.128C360.456 675.06 360.673 674.988 360.888 674.912ZM284.845 672.542C284.99 673.192 285.173 673.825 285.391 674.44C285.173 673.825 284.99 673.192 284.845 672.542ZM368.757 668.985C368.67 669.105 368.583 669.224 368.493 669.342C368.583 669.224 368.67 669.105 368.757 668.985ZM369.625 667.642C369.454 667.937 369.275 668.226 369.087 668.509C369.275 668.226 369.454 667.937 369.625 667.642ZM283.499 602.392V602.393V602.392ZM289.446 680.758C289.376 680.69 289.306 680.622 289.237 680.552C289.306 680.622 289.376 680.69 289.446 680.758ZM289.225 680.541C289.139 680.454 289.054 680.366 288.97 680.277C289.054 680.366 289.139 680.454 289.225 680.541ZM288.926 680.23C288.849 680.148 288.772 680.066 288.696 679.983C288.772 680.066 288.849 680.148 288.926 680.23ZM288.402 679.648C288.331 679.565 288.261 679.482 288.191 679.397C288.261 679.482 288.331 679.565 288.402 679.648ZM287.174 678.02C287.127 677.949 287.08 677.878 287.034 677.806C287.08 677.878 287.127 677.949 287.174 678.02ZM286.384 676.694C286.335 676.603 286.286 676.513 286.239 676.421C286.286 676.513 286.335 676.603 286.384 676.694ZM285.825 675.539C285.795 675.47 285.764 675.403 285.735 675.334C285.764 675.403 285.795 675.47 285.825 675.539ZM366.844 671.207C366.772 671.276 366.7 671.345 366.627 671.414C366.7 671.345 366.772 671.276 366.844 671.207ZM366.567 671.469C366.488 671.543 366.407 671.617 366.326 671.689C366.407 671.617 366.488 671.543 366.567 671.469ZM367.394 670.645C367.321 670.724 367.246 670.802 367.171 670.88C367.246 670.802 367.321 670.724 367.394 670.645ZM371.806 660.618C371.799 660.703 371.792 660.789 371.784 660.874C371.792 660.789 371.799 660.703 371.806 660.618ZM371.774 660.976C371.764 661.083 371.753 661.189 371.74 661.295C371.753 661.189 371.764 661.083 371.774 660.976Z"/>
  <path fill="currentColor" d="M188.732 685.386C188.94 685.399 189.147 685.409 189.354 685.415C189.147 685.409 188.94 685.399 188.732 685.386ZM187.354 685.239C187.708 685.292 188.061 685.333 188.413 685.362C187.922 685.321 187.428 685.259 186.934 685.172L187.354 685.239ZM134.146 605.294C135.155 599.552 140.628 595.715 146.37 596.723L200.785 606.276C206.528 607.285 210.365 612.757 209.357 618.499L200.184 670.749C199.175 676.491 193.703 680.329 187.961 679.321L133.546 669.769C127.803 668.76 123.964 663.287 124.973 657.544L134.146 605.294ZM204.656 676.072C204.57 676.253 204.48 676.431 204.387 676.607C204.48 676.431 204.57 676.253 204.656 676.072ZM131.412 675.383C131.64 675.439 131.869 675.492 132.101 675.539C131.869 675.492 131.64 675.439 131.412 675.383ZM130.229 675.045C130.447 675.116 130.667 675.184 130.89 675.246C130.667 675.184 130.447 675.116 130.229 675.045ZM205.197 674.81C205.273 674.61 205.347 674.409 205.416 674.205C205.347 674.409 205.273 674.61 205.197 674.81ZM205.925 672.334C205.964 672.149 206.001 671.963 206.034 671.775C206.001 671.963 205.964 672.149 205.925 672.334ZM123.857 671.186C123.569 670.904 123.29 670.611 123.023 670.31C123.29 670.611 123.569 670.904 123.857 671.186ZM122.089 669.153C122.098 669.165 122.107 669.177 122.115 669.188C122.109 669.18 122.102 669.172 122.096 669.163L122.089 669.153ZM118.877 658.977C118.884 658.71 118.896 658.442 118.916 658.173C118.896 658.442 118.884 658.71 118.877 658.977ZM118.954 657.749C118.947 657.823 118.94 657.897 118.934 657.971C118.939 657.906 118.945 657.841 118.951 657.775L118.954 657.749ZM144.065 590.628H144.064H144.065ZM205.77 673.003C205.797 672.893 205.824 672.783 205.85 672.673C205.824 672.783 205.797 672.893 205.77 673.003ZM205.867 672.601C205.887 672.512 205.906 672.423 205.925 672.334C205.906 672.423 205.887 672.512 205.867 672.601ZM122.373 669.527C122.435 669.607 122.497 669.686 122.561 669.764C122.497 669.686 122.435 669.607 122.373 669.527ZM124.069 671.388C123.998 671.321 123.927 671.254 123.857 671.186C123.927 671.254 123.998 671.321 124.069 671.388ZM121.028 667.521C121.02 667.506 121.012 667.491 121.003 667.476C121.012 667.491 121.02 667.506 121.028 667.521ZM118.875 659.148C118.876 659.091 118.876 659.034 118.877 658.977C118.876 659.034 118.876 659.091 118.875 659.148Z"/>
  <circle fill="currentColor" cx="185.342" cy="564.122" r="18.8076"/>
  <circle fill="currentColor" cx="304.128" cy="564.122" r="18.8076"/>
  <path fill="currentColor" d="M251.474 522.46C254.45 522.46 256.866 524.876 256.866 527.853C256.866 530.829 254.45 533.245 251.474 533.245H251.353L246.487 536.717V536.903C246.487 539.133 244.674 540.956 242.434 540.956C240.479 540.956 238.831 539.561 238.469 537.705L232.988 535.442L240.171 533.564C240.819 533.114 241.611 532.861 242.445 532.861H242.676L246.08 527.918V527.853C246.08 524.876 248.497 522.46 251.474 522.46ZM243.616 534.092C242.869 533.784 242.079 533.795 241.376 534.059L243.188 534.806C244.331 535.278 244.869 536.585 244.396 537.728C243.924 538.87 242.606 539.408 241.475 538.936H241.464L239.706 538.211C240.014 538.859 240.553 539.397 241.277 539.704C242.826 540.352 244.605 539.616 245.253 538.067C245.56 537.321 245.571 536.497 245.253 535.739C244.945 534.992 244.363 534.399 243.616 534.092ZM251.485 524.261C249.508 524.261 247.894 525.875 247.894 527.853C247.894 529.83 249.508 531.444 251.485 531.444C253.462 531.444 255.077 529.829 255.077 527.853C255.077 525.876 253.462 524.261 251.485 524.261ZM251.485 525.14C252.979 525.14 254.188 526.348 254.188 527.842C254.187 529.335 252.979 530.543 251.485 530.543C249.992 530.543 248.783 529.335 248.783 527.842C248.783 526.348 249.992 525.14 251.485 525.14Z"/>
  <path fill="currentColor" d="M232.991 535.448L232.519 530.41L240.181 533.572L235.563 536.222L232.991 535.448Z"/>
  <rect fill="currentColor" x="232.519" y="464.146" width="24.3474" height="14.98"/>
  <rect fill="currentColor" x="132.462" y="104.365" width="46.7251" height="20.0024"/>
</svg>
