<?xml version="1.0"?>
<svg viewBox="0 0 232.73 46.07" xmlns="http://www.w3.org/2000/svg" fill="#E0E1E6">
  <g stroke="null" id="svg_2">
    <path stroke="null" id="svg_3" d="m21.73862,4.25158c-10.07896,0 -18.33997,7.77507 -19.12529,17.65445l10.28722,4.25199c0.87209,-0.59441 1.92641,-0.94585 3.05883,-0.94585c0.09979,0 0.20392,0.00434 0.30371,0.00868l4.57306,-6.62964c0,-0.03037 0,-0.06074 0,-0.09545c0,-3.99167 3.2454,-7.23707 7.23707,-7.23707c3.99167,0 7.23707,3.2454 7.23707,7.23707c0,3.99167 -3.2454,7.23707 -7.23707,7.23707c-0.0564,0 -0.10847,0 -0.16487,-0.00434l-6.52551,4.65984c0.00434,0.08678 0.00868,0.16921 0.00868,0.25599c0,2.99809 -2.43839,5.43214 -5.43214,5.43214c-2.62929,0 -4.82905,-1.87869 -5.32801,-4.36046l-7.35855,-3.04148c2.27785,8.05709 9.67979,13.96216 18.4658,13.96216c10.59961,0 19.19471,-8.5951 19.19471,-19.19471c0,-10.59527 -8.5951,-19.19037 -19.19471,-19.19037"/>
    <path stroke="null" id="svg_4" d="m14.64039,33.37339l-2.35595,-0.97622c0.41652,0.86775 1.1411,1.59667 2.09996,2.00017c2.07393,0.86341 4.46459,-0.12149 5.33235,-2.19542c0.41652,-1.00226 0.42086,-2.11298 0.00434,-3.11957c-0.41652,-1.00659 -1.1975,-1.79191 -2.19976,-2.21277c-0.99792,-0.41652 -2.06525,-0.39917 -3.00677,-0.04773l2.43405,1.00659c1.53159,0.6378 2.25182,2.395 1.61836,3.92659c-0.6378,1.53592 -2.395,2.25616 -3.92659,1.61836"/>
    <path stroke="null" id="svg_5" d="m32.89793,18.49576c0,-2.65966 -2.16505,-4.82471 -4.82471,-4.82471c-2.65966,0 -4.82471,2.16505 -4.82471,4.82471c0,2.65966 2.16505,4.82037 4.82471,4.82037c2.65966,0.00434 4.82471,-2.16071 4.82471,-4.82037m-8.4389,-0.00434c0,-2.00017 1.6227,-3.62287 3.62287,-3.62287c2.00017,0 3.62287,1.6227 3.62287,3.62287c0,2.00017 -1.6227,3.62287 -3.62287,3.62287c-2.00017,0 -3.62287,-1.6227 -3.62287,-3.62287"/>
  </g>
  <path stroke="null" id="svg_6" d="m46.71333,8.08293c0,2.23529 -1.67014,3.62707 -3.5849,3.62707c-1.91476,0 -3.60177,-1.39178 -3.60177,-3.62707c0,-2.23529 1.68701,-3.6102 3.60177,-3.6102c1.91476,-0.00844 3.5849,1.37491 3.5849,3.6102m-6.64682,0c0,1.90632 1.39178,3.1041 3.05349,3.1041c1.66171,0 3.04505,-1.19778 3.04505,-3.1041c0,-1.91476 -1.38335,-3.09566 -3.04505,-3.09566c-1.65327,0 -3.05349,1.18934 -3.05349,3.09566m3.09566,-1.84728c0.95316,0 1.23152,0.49767 1.23152,1.01221c0,0.48923 -0.29523,0.8182 -0.64106,0.9869l0.83507,1.57736l-0.63263,0l-0.71698,-1.40865l-0.76759,0l0,1.40865l-0.52297,0l0,-3.56803l1.21465,0l0,-0.00844zm-0.69167,1.67858l0.65793,0c0.43019,0 0.70011,-0.27836 0.70011,-0.61576c0,-0.3374 -0.17714,-0.56515 -0.69167,-0.56515l-0.66637,0l0,1.18091z"/>
  <g id="svg_7">
    <path id="svg_8" d="m77.46999,20.31667c-2.27,6.12 -7.24,10.13 -13.11,12.2c-0.54,-1.12 -1.7,-2.9 -2.65,-3.76c3.6,-1.03 6.95,-3.06 9.14,-5.63l-7.24,0l0,-3.89l10.05,0l0.79,-0.12l3.02,1.2zm-15.02,20.43c1.7,-1.57 3.39,-4.01 4.47,-6l4.22,2.11c-1.2,2.03 -2.73,4.55 -4.34,6.29l-4.35,-2.4zm8.57,-29.9l-8.23,0l0,-4.26l8.23,0l0,-2.28l5.01,0l0,2.28l10.42,0l0,-2.28l5.01,0l0,2.28l8.15,0l0,4.26l-8.15,0l0,2.15l-5.01,0l0,-2.15l-10.42,0l0,2.15l-5.01,0l0,-2.15zm-2.57,19.85l24.53,0l0,4.1l-24.53,0l0,-4.1zm28.71,-9.8c-1.86,1.45 -3.85,2.81 -5.59,3.81c2.52,1.24 5.46,2.19 8.48,2.77c-1.03,0.95 -2.4,2.9 -3.1,4.14c-5.29,-1.41 -10.05,-4.14 -13.44,-7.82l0,1.99c0,2.03 -0.33,2.94 -1.78,3.52c-1.32,0.54 -3.14,0.58 -5.46,0.58c-0.25,-1.2 -0.87,-2.69 -1.41,-3.76c1.37,0.08 2.85,0.08 3.27,0.08c0.46,-0.04 0.62,-0.12 0.62,-0.58l0,-5.83c1.41,-0.62 2.85,-1.45 4.26,-2.32l-14.23,0l0,-3.72l19.28,0l0.99,-0.25l2.98,2.52c-1.9,1.49 -4.18,3.06 -6.58,4.38c0.7,0.79 1.57,1.53 2.52,2.23c1.78,-1.28 3.97,-3.06 5.25,-4.38l3.94,2.64zm-19.11,14.89c0.7,1.99 1.24,4.63 1.28,6.29l-4.88,0.75c0.04,-1.66 -0.37,-4.34 -0.95,-6.41l4.55,-0.63zm8.65,-0.54c1.16,1.86 2.27,4.3 2.61,6l-4.51,1.41c-0.29,-1.65 -1.28,-4.22 -2.36,-6.12l4.26,-1.29zm8.39,-0.54c1.86,1.82 4.05,4.38 5.09,6.21l-4.43,2.07c-0.91,-1.78 -2.98,-4.47 -4.8,-6.37l4.14,-1.91z"/>
    <path id="svg_9" d="m110.14999,23.78667c-1.57,-1.12 -4.84,-2.9 -7.16,-4.09l2.61,-3.64c2.23,0.91 5.58,2.56 7.32,3.64l-2.77,4.09zm-5.79,15.14c2.03,-3.06 4.92,-8.07 7.16,-12.74l3.72,3.19c-1.94,4.22 -4.34,8.81 -6.58,12.74l-4.3,-3.19zm8.02,-26.02c-1.49,-1.28 -4.67,-3.14 -6.95,-4.38l2.73,-3.56c2.23,1.03 5.46,2.73 7.07,3.93l-2.85,4.01zm7.62,2.15c-0.91,1.32 -1.86,2.48 -2.81,3.52c-0.91,-0.87 -2.85,-2.36 -3.93,-3.02c2.98,-2.69 5.63,-6.99 7.07,-11.34l4.72,1.28c-0.41,0.99 -0.83,2.03 -1.32,3.06l18.08,0l0,4.22l-20.31,0c-0.46,0.74 -0.91,1.45 -1.41,2.15l17.95,0l0,3.97l-18.04,0l0,-3.84zm17.33,6.17c-0.08,10.05 -0.04,17.13 1.41,17.13c0.5,0 0.66,-2.23 0.7,-5.29c0.83,1.08 1.99,2.32 2.9,3.06c-0.33,4.67 -1.12,6.83 -3.97,6.87c-4.96,-0.04 -5.63,-6.87 -5.79,-17.5l-16.59,0l0,-4.3l19.28,0l0,0.04l2.06,0l0,-0.01z"/>
    <path id="svg_10" d="m182.70999,29.24667l-16.26,0l0,13.65l-5.13,0l0,-13.65l-16.09,0l0,-5.01l16.09,0l0,-12.53l-13.94,0l0,-4.88l32.93,0l0,4.88l-13.86,0l0,12.53l16.26,0l0,5.01zm-28.3,-16.21c1.37,2.65 2.85,6.12 3.31,8.44l-4.8,1.49c-0.41,-2.19 -1.7,-5.83 -3.02,-8.6l4.51,-1.33zm15.35,8.6c1.32,-2.4 2.81,-6.04 3.6,-8.73l5.25,1.32c-1.49,3.19 -3.19,6.54 -4.55,8.65l-4.3,-1.24z"/>
    <path id="svg_11" d="m212.48999,8.06667c3.81,3.56 8.73,8.65 10.88,12.12l-4.18,3.02c-0.54,-0.91 -1.28,-1.99 -2.15,-3.14c-21.97,1.08 -24.9,1.16 -27.09,1.9c-0.25,-0.99 -1.03,-3.43 -1.61,-4.72c1.08,-0.29 2.07,-1.08 3.43,-2.4c1.45,-1.28 5.96,-6.29 8.77,-11.25l4.96,2.11c-2.61,3.85 -5.87,7.53 -9.02,10.55l16.96,-0.54c-1.61,-1.82 -3.27,-3.56 -4.8,-5.09l3.85,-2.56zm-21.18,16.63l27.88,0l0,18.12l-5.29,0l0,-2.07l-17.54,0l0,2.11l-5.05,0l0,-18.16zm5.04,4.72l0,6.62l17.54,0l0,-6.62l-17.54,0z"/>
  </g>
  <g id="svg_12">
    <path id="svg_13" d="m224.05999,2.64667l-1.2,0l0,-0.43l2.92,0l0,0.43l-1.21,0l0,3.52l-0.52,0l0,-3.52l0.01,0z"/>
    <path id="svg_14" d="m229.54999,4.42667c-0.03,-0.55 -0.06,-1.21 -0.06,-1.71l-0.02,0c-0.13,0.46 -0.3,0.96 -0.5,1.5l-0.7,1.92l-0.39,0l-0.64,-1.88c-0.19,-0.56 -0.35,-1.07 -0.46,-1.54l-0.01,0c-0.01,0.49 -0.04,1.15 -0.08,1.75l-0.11,1.69l-0.49,0l0.28,-3.95l0.65,0l0.67,1.91c0.16,0.49 0.3,0.92 0.4,1.33l0.02,0c0.1,-0.4 0.24,-0.83 0.42,-1.33l0.7,-1.91l0.65,0l0.25,3.95l-0.5,0l-0.08,-1.73z"/>
  </g>
</svg>
