<?xml version="1.0"?>
<svg xmlns="http://www.w3.org/2000/svg" viewBox="0 0 36 36" fill="none">
  <path fill="currentColor" d="M1 30.6985L7.90454 23.7939C6.78948 23.3564 6 22.2705 6 21.0002C6 19.3434 7.34315 18.0002 9 18.0002C10.2703 18.0002 11.3561 18.7897 11.7937 19.9048L22.6985 9H11V15.3415C10.3744 15.1203 9.70126 15 9 15C8.65929 15 8.32521 15.0284 8 15.083V6H25.6985L30.6985 1L32.8198 3.12132L3.12132 32.8198L1 30.6985Z"/>
  <path fill="currentColor" d="M22.0095 18.1743L18.1741 22.0097C18.5886 23.17 19.6973 24.0002 21 24.0002C22.6569 24.0002 24 22.6571 24 21.0002C24 19.6976 23.1697 18.5888 22.0095 18.1743Z"/>
  <path fill="currentColor" d="M8.18356 32.0002H14V30.0002C14 28.9217 13.6585 27.9229 13.0777 27.1061L8.18356 32.0002Z"/>
  <path fill="currentColor" d="M26 30.0002C26 27.2388 23.7614 25.0002 21 25.0002C18.2386 25.0002 16 27.2388 16 30.0002V32.0002H26V30.0002Z"/>
  <path fill="currentColor" d="M29 19V11.1836L32 8.18356V22H26.917C26.9716 21.6748 27 21.3407 27 21C27 20.2987 26.8797 19.6256 26.6585 19H29Z"/>
</svg>
