<?xml version="1.0"?>
<svg width="78px" height="59px" viewBox="0 0 78 59" fill="none" xmlns="http://www.w3.org/2000/svg">
  <path fill-rule="evenodd" clip-rule="evenodd" d="M3 2H75C75.5523 2 76 2.44772 76 3V25.6362L68.5063 32.7893L55.6643 18.4365L54.9851 17.6774L54.2386 18.3705L47.6334 24.504L33.3138 11.2072L32.6449 10.5861L31.9655 11.1958L17.0936 24.5423L12.5854 20.7277L11.9914 20.2251L11.3582 20.6773L2 27.3618V3C2 2.44772 2.44772 2 3 2ZM2 44.3885V55.898C2 56.4502 2.44772 56.898 3 56.898H75C75.5523 56.898 76 56.4502 76 55.898V44.4179L70.3673 42.7281C69.6315 42.5074 68.8478 42.5032 68.1097 42.716L62.7717 44.2552C61.5774 44.5995 60.3057 44.5645 59.1323 44.1549L55.3406 42.8316C54.5367 42.5511 53.6643 42.5343 52.8502 42.7838L48.1375 44.2284C46.9576 44.5901 45.6948 44.5791 44.5213 44.197L40.1648 42.7783C39.397 42.5283 38.5714 42.5165 37.7968 42.7446L32.6112 44.271C31.4845 44.6027 30.2852 44.5963 29.162 44.2528L24.2385 42.7469C23.483 42.5158 22.6759 42.5137 21.9192 42.7407L16.9269 44.2384C15.7429 44.5936 14.4782 44.5744 13.3055 44.1835L9.22505 42.8234C8.40398 42.5497 7.5163 42.5497 6.69523 42.8234L2 44.3885ZM2 42.2803L6.06277 40.926C7.29438 40.5155 8.62591 40.5155 9.85751 40.926L13.9379 42.2862C14.7197 42.5468 15.5629 42.5595 16.3522 42.3227L21.3445 40.8251C22.4796 40.4845 23.6902 40.4878 24.8235 40.8344L29.747 42.3403C30.4957 42.5693 31.2953 42.5735 32.0464 42.3524L37.232 40.826C38.394 40.4839 39.6323 40.5016 40.7841 40.8766L45.1406 42.2953C45.9229 42.55 46.7647 42.5573 47.5514 42.3162L52.2641 40.8716C53.4852 40.4974 54.7938 40.5225 55.9996 40.9433L59.7913 42.2667C60.5736 42.5397 61.4214 42.563 62.2176 42.3335L67.5556 40.7943C68.6627 40.4751 69.8383 40.4814 70.942 40.8125L76 42.3299V28.4011L69.1402 34.9491L68.3931 35.6622L67.7044 34.8925L54.8531 20.5292L44.4567 30.183L43.0958 28.7174L46.1637 25.8686L32.6219 13.294L18.6349 25.8464L22.9324 29.4828L21.6405 31.0095L16.467 26.632L11.8875 22.7571L2 29.8196V42.2803ZM0 3C0 1.34315 1.34315 0 3 0H75C76.6569 0 78 1.34315 78 3V55.898C78 57.5548 76.6569 58.898 75 58.898H3C1.34315 58.898 0 57.5548 0 55.898V3ZM17.6094 13.1832C18.414 11.5742 18.9328 10.7593 19.4551 10.3118C19.8967 9.93322 20.4163 9.75659 21.4905 9.75659C22.0428 9.75659 22.4905 9.30888 22.4905 8.75659C22.4905 8.20431 22.0428 7.75659 21.4905 7.75659C20.177 7.75659 19.1047 7.97793 18.1535 8.79321C17.4662 9.38227 16.9009 10.2384 16.3059 11.3474C13.8336 10.1236 11.0561 10.2073 9.15781 11.0209C8.65018 11.2384 8.41503 11.8263 8.63259 12.334C8.85014 12.8416 9.43802 13.0767 9.94565 12.8592C11.5101 12.1887 14.0696 12.1744 16.1604 13.568L17.1028 14.1963L17.6094 13.1832ZM62.8781 15.5106C64.8505 15.5106 66.4495 13.9116 66.4495 11.9392C66.4495 9.96674 64.8505 8.36776 62.8781 8.36776C60.9056 8.36776 59.3066 9.96674 59.3066 11.9392C59.3066 13.9116 60.9056 15.5106 62.8781 15.5106ZM62.8781 17.5106C65.9551 17.5106 68.4495 15.0162 68.4495 11.9392C68.4495 8.86217 65.9551 6.36776 62.8781 6.36776C59.8011 6.36776 57.3066 8.86217 57.3066 11.9392C57.3066 15.0162 59.8011 17.5106 62.8781 17.5106Z" fill=""/>
</svg>
