<?xml version="1.0"?>
<svg xmlns="http://www.w3.org/2000/svg" viewBox="0 0 36 36" fill="none">
  <path fill="currentColor" d="M27.6606 9H5.44666V22.8569H12.2301C11.9392 24.1289 11.6473 25.5974 11.5322 26.8569H1.44666V5H31.6606V14.4497C30.5713 14.0391 29.2449 13.6862 27.6606 13.4886V9Z"/>
  <path fill="currentColor" d="M27.6606 17.1831C28.209 17.267 28.708 17.3724 29.1599 17.4909C30.064 17.7279 30.7797 18.0171 31.3256 18.2903C31.4454 18.3502 31.557 18.4094 31.6606 18.467C30.8488 18.0152 29.547 17.4717 27.6606 17.1831Z"/>
  <path fill="currentColor" d="M25.4122 23.4571C25.4563 23.2356 25.5551 23.0294 25.6989 22.8569C25.6116 22.9616 25.5409 23.0788 25.489 23.2042C25.4562 23.2833 25.4309 23.3657 25.4136 23.4504L25.4122 23.4571C25.4032 23.5025 25.3966 23.5482 25.3923 23.594C25.3883 23.636 25.3863 23.6781 25.3863 23.7201C25.3863 23.8501 25.4051 23.9796 25.4423 24.1046C25.4556 24.1491 25.4711 24.1929 25.489 24.236C25.5229 24.318 25.5647 24.396 25.6135 24.4691C25.7114 24.6156 25.8376 24.7422 25.9855 24.841C26.0593 24.8903 26.1374 24.932 26.2186 24.9656C26.2566 24.9814 26.2954 24.9954 26.3347 25.0076C26.4634 25.0476 26.5982 25.0682 26.7344 25.0682C26.7344 25.0682 26.7345 25.0682 26.7344 25.0682C26.4678 25.0682 26.2072 24.9892 25.9855 24.841C25.7638 24.6929 25.591 24.4823 25.489 24.236C25.3869 23.9897 25.3602 23.7186 25.4122 23.4571Z"/>
  <path fill="currentColor" d="M26.8831 25.06C26.9203 25.0559 26.9573 25.0502 26.9941 25.043C26.9593 25.0498 26.9243 25.0552 26.8892 25.0593C26.8872 25.0595 26.8851 25.0598 26.8831 25.06Z"/>
  <path fill="currentColor" d="M29.9698 22.9113C29.7032 22.9113 29.4426 22.8322 29.2209 22.6841C28.9992 22.5359 28.8264 22.3254 28.7243 22.0791C28.6223 21.8327 28.5956 21.5617 28.6476 21.3002C28.6996 21.0387 28.828 20.7985 29.0166 20.6099C29.1462 20.4803 29.3002 20.3791 29.4688 20.3116C29.3993 20.3394 29.3323 20.373 29.2685 20.4119C29.1774 20.4674 29.0928 20.5337 29.0166 20.6099C28.8619 20.7646 28.7477 20.9541 28.683 21.1616C28.6688 21.207 28.657 21.2532 28.6476 21.3002C28.6303 21.3872 28.6218 21.4753 28.6218 21.5632C28.6218 21.7393 28.6563 21.9147 28.7243 22.0791C28.7578 22.1598 28.7989 22.2366 28.8467 22.3087L28.849 22.3121C28.9469 22.4586 29.073 22.5852 29.2209 22.6841C29.2946 22.7334 29.3728 22.775 29.454 22.8086C29.6096 22.8731 29.7765 22.9081 29.9463 22.911L29.9698 22.9113C29.9698 22.9113 29.9698 22.9113 29.9698 22.9113Z"/>
  <path fill="currentColor" d="M29.7314 20.2363C29.7232 20.2378 29.715 20.2393 29.7069 20.241Z"/>
  <path fill="currentColor" fill-rule="evenodd" clip-rule="evenodd" d="M33.1222 19.2292C33.1222 19.2292 30.8333 17 25 17C19.1667 17 16.8778 19.2292 16.8778 19.2292C16.8778 19.2292 15 25.3785 15 27.8769C15 29.7508 17.7778 31 17.7778 31L21.1111 27.7692H28.8889L32.2222 31C32.2222 31 35 29.7508 35 27.8769C35 25.3785 33.1222 19.2292 33.1222 19.2292ZM23.3333 23.4615H21.6667V25.0769H20V23.4615H18.3333V21.8462H20V20.2308H21.6667V21.8462H23.3333V23.4615ZM26.9444 25.0769C26.6697 25.0769 26.4012 24.998 26.1728 24.8501C25.9444 24.7021 25.7664 24.4919 25.6613 24.2459C25.5561 23.9999 25.5286 23.7293 25.5822 23.4681C25.6358 23.207 25.7681 22.9672 25.9623 22.7789C26.1566 22.5906 26.4041 22.4624 26.6735 22.4105C26.9429 22.3585 27.2222 22.3852 27.4759 22.4871C27.7297 22.589 27.9466 22.7615 28.0993 22.9829C28.2519 23.2043 28.3333 23.4645 28.3333 23.7308C28.3333 23.9075 28.2974 24.0826 28.2276 24.2459C28.1578 24.4092 28.0555 24.5576 27.9265 24.6826C27.7976 24.8076 27.6444 24.9068 27.4759 24.9745C27.3074 25.0421 27.1268 25.0769 26.9444 25.0769ZM30.2778 22.9231C30.0031 22.9231 29.7345 22.8441 29.5061 22.6962C29.2777 22.5483 29.0997 22.3381 28.9946 22.0921C28.8895 21.8461 28.862 21.5754 28.9156 21.3143C28.9692 21.0532 29.1014 20.8133 29.2957 20.625C29.4899 20.4368 29.7374 20.3086 30.0068 20.2566C30.2762 20.2047 30.5555 20.2314 30.8093 20.3332C31.0631 20.4351 31.28 20.6077 31.4326 20.829C31.5852 21.0504 31.6667 21.3107 31.6667 21.5769C31.6667 21.9339 31.5203 22.2763 31.2599 22.5288C30.9994 22.7812 30.6461 22.9231 30.2778 22.9231Z"/>
</svg>
