<?xml version="1.0"?>
<svg xmlns="http://www.w3.org/2000/svg" viewBox="0 0 36 36" fill="none">
  <path fill="currentColor" d="M10.8344 3.69379C18.7351 -0.263479 28.3486 2.93369 32.306 10.8344C36.2633 18.7352 33.0661 28.3486 25.1654 32.3061C17.2646 36.2633 7.65117 33.0662 3.69373 25.1655C-0.263515 17.2647 2.93364 7.65123 10.8344 3.69379ZM20.3236 23.5307C19.7603 23.768 19.1784 23.9101 18.5961 23.9682L19.2933 30.9379C20.667 30.8009 22.0391 30.4411 23.3597 29.8422L20.3236 23.5307ZM23.4447 20.5131C22.9403 21.6077 22.1064 22.5573 20.9945 23.1967L24.0336 29.5121C26.671 28.1311 28.6404 25.9659 29.8011 23.4467L23.4447 20.5131ZM20.682 16.6567C20.0778 15.4504 18.7708 14.8291 17.5062 15.0405L17.5052 15.0395C17.2171 15.0877 16.9315 15.1802 16.6566 15.3178C15.3964 15.9491 14.7773 17.3469 15.0765 18.6625C15.0888 18.7162 15.1016 18.7701 15.1166 18.8227H15.1146C15.1651 18.9991 15.2326 19.1732 15.3177 19.3432C15.5654 19.8377 15.933 20.2313 16.3656 20.5121C16.46 20.5738 16.5583 20.6292 16.6595 20.6801C17.4756 21.0874 18.4649 21.1219 19.3431 20.6821C20.0538 20.3261 20.5589 19.7252 20.8129 19.0336C20.8344 18.9756 20.8535 18.9165 20.8715 18.8569C20.8841 18.8145 20.8958 18.7719 20.9066 18.7289C20.9133 18.7026 20.9211 18.6765 20.9271 18.6498C21.0718 17.9999 21.0034 17.2984 20.682 16.6567ZM12.0912 6.42133C9.68701 7.64774 7.82707 9.52186 6.6156 11.7241L12.7455 15.103C13.28 14.1315 14.0879 13.2978 15.1273 12.7319L12.0912 6.42133ZM15.8588 5.17426C14.8144 5.34895 13.7774 5.65575 12.7689 6.10004L15.808 12.4174C16.2033 12.2617 16.6062 12.1503 17.0121 12.0825L15.8588 5.17426Z"/>
</svg>
