<?xml version="1.0"?>
<svg xmlns="http://www.w3.org/2000/svg" baseProfile="tiny" version="1.2" viewBox="0 0 36 36">
  <path d="M15.2,11.1h15.4c.5,0,1-.3,1.3-.8.3-.5.3-1.1,0-1.5-.3-.5-.8-.8-1.3-.8h-15.4c-.5,0-1,.3-1.3.8-.3.5-.3,1.1,0,1.5.3.5.8.8,1.3.8ZM15.2,19.5h15.4c.5,0,1-.3,1.3-.8.3-.5.3-1.1,0-1.5-.3-.5-.8-.8-1.3-.8h-15.4c-.5,0-1,.3-1.3.8-.3.5-.3,1.1,0,1.5.3.5.8.8,1.3.8ZM15.2,27.9h15.4c.5,0,1-.3,1.3-.8.3-.5.3-1.1,0-1.5-.3-.5-.8-.8-1.3-.8h-15.4c-.5,0-1,.3-1.3.8-.3.5-.3,1.1,0,1.5.3.5.8.8,1.3.8Z" fill="#fff" stroke-width="0"/>
  <g>
    <path d="M5.8,12.5v-1h1.6v1h-1.6ZM5.9,7.9v-1.1l1.4-.5v1.1l-1.4.5ZM7.3,12.5v-6.2h1.2v6.2h-1.2ZM8.4,12.5v-1h1.4v1h-1.4Z" fill="#fff" stroke-width="0"/>
    <path d="M5.7,21v-1.2c.9-.5,1.6-1,2.1-1.5.5-.5.7-1.1.7-1.6s0-.5-.2-.6c-.1-.1-.4-.2-.6-.2s-.5,0-.8.2c-.3.1-.5.3-.7.5l-.7-.8c.2-.3.5-.6.9-.8.4-.2.8-.3,1.3-.3.7,0,1.2.2,1.5.5.3.3.5.8.5,1.4s-.2,1.1-.5,1.7c-.3.5-.9,1-1.6,1.5v1.2h-1.8ZM6,21v-1.1h3.9v1.1h-3.9Z" fill="#fff" stroke-width="0"/>
    <path d="M6.8,26.9v-1c.3,0,.6-.1.9-.2.3,0,.4-.2.6-.4s.2-.3.2-.5,0-.3-.2-.4c-.1,0-.3-.1-.5-.1s-.5,0-.8.1-.5.2-.8.4l-.6-.9c.3-.3.6-.5,1-.6.4-.1.8-.2,1.2-.2s1.1.1,1.4.4c.3.2.5.6.5,1s-.1.7-.4,1c-.3.3-.6.5-1,.6v.5l-1.4.2ZM7.4,29.6c-.3,0-.6,0-.9,0-.3,0-.5,0-.7-.2v-1.1c.3,0,.5.1.8.2.2,0,.5,0,.9,0s.7,0,.9-.2c.2-.1.3-.3.3-.6s0-.3-.2-.5c-.1-.1-.3-.2-.6-.3-.2,0-.5,0-.9,0h-.1v-1c-.1,0,1.2.5,1.2.5.5,0,1,.1,1.3.4.3.3.5.6.5,1.1s-.2,1-.6,1.3c-.4.3-1,.5-1.8.5Z" fill="#fff" stroke-width="0"/>
  </g>
</svg>
