<?xml version="1.0"?>
<svg width="47px" height="51px" viewBox="0 0 47 51" fill="none" xmlns="http://www.w3.org/2000/svg">
  <path fill-rule="evenodd" clip-rule="evenodd" d="M33.9999 10.5C33.9999 15.7034 29.5671 20 23.9999 20C18.4327 20 13.9999 15.7034 13.9999 10.5C13.9999 5.29663 18.4327 1 23.9999 1C29.5671 1 33.9999 5.29663 33.9999 10.5ZM34.9999 10.5C34.9999 16.299 30.075 21 23.9999 21C17.9247 21 12.9999 16.299 12.9999 10.5C12.9999 4.70101 17.9247 0 23.9999 0C30.075 0 34.9999 4.70101 34.9999 10.5ZM16.3702 23.5C10.6886 23.5 5.62398 26.8717 3.72868 32.2547C2.47599 35.8127 1.26935 39.3781 0.768536 40.866C0.549738 41.516 0.803538 42.2172 1.36831 42.5884L4.65592 44.7495C16.463 52.5107 31.809 52.2879 43.3858 44.1873L45.6833 42.5797C46.2215 42.2031 46.452 41.5201 46.2522 40.8944L43.9193 33.5891C42.0002 27.5792 36.4154 23.5 30.1065 23.5H24.2027H16.3702ZM4.67193 32.5868C6.41799 27.6277 11.0872 24.5 16.3702 24.5H24.2027H30.1065C35.9803 24.5 41.1799 28.2979 42.9667 33.8933L45.2996 41.1986C45.3662 41.4072 45.2893 41.6348 45.1099 41.7604L42.8125 43.368C31.5712 51.2338 16.67 51.4501 5.20521 43.9139L1.9176 41.7528C1.72419 41.6257 1.64564 41.3949 1.71629 41.185C2.21655 39.6988 3.42149 36.1384 4.67193 32.5868Z" fill=""/>
</svg>
