<?xml version="1.0"?>
<svg xmlns="http://www.w3.org/2000/svg" viewBox="0 0 36 36" fill="none">
  <path fill="currentColor" d="M2 7H35V11.9846H2V7ZM2 15.4701H35V29H2V15.4701ZM5.34008 20.5645C5.16594 20.5322 4.98643 20.5369 4.81443 20.5784C4.64244 20.6199 4.48221 20.6971 4.34526 20.8045C4.20831 20.9118 4.09802 21.0467 4.0223 21.1995C3.94659 21.3522 3.90732 21.519 3.90732 21.6879C3.90732 21.8567 3.94659 22.0235 4.0223 22.1763C4.09802 22.329 4.20831 22.4639 4.34526 22.5713C4.48221 22.6786 4.64244 22.7558 4.81443 22.7973C4.98643 22.8388 5.16594 22.8435 5.34008 22.8112H13.7126C13.9863 22.7603 14.233 22.6204 14.4103 22.4155C14.5877 22.2106 14.6846 21.9534 14.6846 21.6879C14.6846 21.4224 14.5877 21.1651 14.4103 20.9602C14.233 20.7553 13.9863 20.6154 13.7126 20.5645H5.34008ZM5.34008 23.9133C5.02896 23.9243 4.73444 24.0497 4.51848 24.2631C4.30253 24.4766 4.18197 24.7615 4.18219 25.0578C4.18219 25.3501 4.30418 25.6304 4.52133 25.8371C4.73847 26.0438 5.03299 26.1599 5.34008 26.1599H8.9919C9.14778 26.16 9.30208 26.1302 9.44554 26.0722C9.58901 26.0141 9.71869 25.9292 9.82681 25.8223C9.93494 25.7154 10.0193 25.5889 10.0748 25.4502C10.1303 25.3116 10.1558 25.1637 10.1498 25.0154C10.1387 24.7265 10.0132 24.4522 9.79841 24.2478C9.58361 24.0433 9.29547 23.9238 8.9919 23.9133H5.34008Z"/>
</svg>
