<?xml version="1.0"?>
<svg width="29" height="28" viewBox="0 0 29 28" fill="none" xmlns="http://www.w3.org/2000/svg">
  <path d="M24.4232 4.36344C22.5002 2.44044 20.0502 1.13086 17.383 0.600287C14.7157 0.0697194 11.9511 0.342 9.43855 1.3827C6.92606 2.42339 4.77858 4.18576 3.2677 6.44695C1.75682 8.70813 0.950394 11.3666 0.950394 14.0861C0.950394 16.8056 1.75682 19.464 3.2677 21.7252C4.77858 23.9864 6.92606 25.7487 9.43855 26.7894C11.9511 27.8301 14.7157 28.1024 17.383 27.5718C20.0502 27.0413 22.5002 25.7317 24.4232 23.8087C25.7042 22.5343 26.7208 21.0193 27.4145 19.3507C28.1082 17.6822 28.4653 15.893 28.4653 14.0861C28.4653 12.2791 28.1082 10.4899 27.4145 8.82138C26.7208 7.15284 25.7042 5.63784 24.4232 4.36344ZM16.5334 21.3914H12.865V12.3164H16.5334V21.3914ZM14.6992 10.7874C14.3015 10.7874 13.9127 10.6695 13.5821 10.4485C13.2514 10.2274 12.9938 9.91333 12.8417 9.54584C12.6896 9.17835 12.65 8.77402 12.7278 8.38399C12.8056 7.99397 12.9973 7.63578 13.2787 7.35475C13.5601 7.07373 13.9186 6.88248 14.3087 6.80523C14.6988 6.72797 15.1031 6.76818 15.4704 6.92075C15.8377 7.07332 16.1514 7.33141 16.372 7.66235C16.5926 7.9933 16.71 8.38223 16.7094 8.77994C16.7094 9.0438 16.6574 9.30507 16.5564 9.54881C16.4553 9.79255 16.3072 10.014 16.1205 10.2004C15.9338 10.3869 15.7122 10.5347 15.4683 10.6354C15.2244 10.7361 14.9631 10.7878 14.6992 10.7874Z" fill=""/>
</svg>
