<?xml version="1.0"?>
<svg version="1.1" id="Layer_3" xmlns="http://www.w3.org/2000/svg" x="0px" y="0px" width="256px" height="256px" viewBox="0 0 256 256">
  <path d="M236.445,23.522c-1.085-2.35-3.438-3.855-6.025-3.855H25.58c-2.586,0-4.936,1.501-6.024,3.855 c-1.08,2.349-0.698,5.112,0.983,7.083l80.328,94.039v104.181c0,2.74,1.682,5.194,4.237,6.188c0.778,0.3,1.588,0.445,2.392,0.445 c1.832,0,3.626-0.762,4.91-2.17l41.012-45.13c1.111-1.219,1.724-2.811,1.724-4.459v-59.054l80.325-94.04 C237.144,28.634,237.526,25.867,236.445,23.522z"/>
</svg>
