<?xml version="1.0"?>
<svg xmlns="http://www.w3.org/2000/svg" viewBox="0 0 36 36" fill="none">
  <g>
    <path fill-rule="evenodd" clip-rule="evenodd" d="M32 24V26H4V24L8 19V12C8 9.34784 9.05357 6.8043 10.9289 4.92893C12.8043 3.05357 15.3478 2 18 2C20.6522 2 23.1957 3.05357 25.0711 4.92893C26.9464 6.8043 28 9.34784 28 12V19L32 24Z" fill="currentColor"/>
    <path fill-rule="evenodd" clip-rule="evenodd" d="M18 34C19.2396 33.9986 20.4483 33.6133 21.46 32.897C22.4718 32.1807 23.2368 31.1687 23.65 30H12.35C12.7632 31.1687 13.5282 32.1807 14.54 32.897C15.5517 33.6133 16.7604 33.9986 18 34Z" fill="currentColor"/>
  </g>
</svg>
