<?xml version="1.0"?>
<svg version="1.1" id="Layer_2" xmlns="http://www.w3.org/2000/svg" x="0px" y="0px" width="256px" height="256px" viewBox="0 0 256 256">
  <path fill="currentColor" d="M213.771,68.659c-4.108-7.066-46.007-7.231-49.293-7.231H128H91.522c-3.286,0-45.186,0.165-49.293,7.231 c-19.555,29.248-27.385,100.263-27.276,104.01c0.238,8.294,2.11,24.583,16.595,35.162c9.201,6.72,22.183,8.709,29.083,3.614 c4.989-3.682,11.995-19.224,19.061-32.204c7.064-12.981,9.202-11.174,12.98-12.159c3.78-0.986,36.066-0.74,36.066-0.74 s30.809-0.247,34.588,0.74c3.777,0.985,5.915-0.822,12.98,12.159c7.064,12.98,14.07,28.522,19.061,32.204 c6.9,5.095,19.882,3.106,29.083-3.614c14.485-10.58,16.356-26.868,16.595-35.162C241.154,168.922,233.325,97.906,213.771,68.659z M67.251,128.14c-14.974,0-27.112-12.137-27.112-27.111c0-14.975,12.137-27.112,27.112-27.112 c14.973,0,27.111,12.137,27.111,27.112C94.362,116.003,82.224,128.14,67.251,128.14z M188.749,128.14 c-14.974,0-27.111-12.137-27.111-27.111c0-14.975,12.138-27.112,27.111-27.112c14.973,0,27.111,12.137,27.111,27.112 C215.86,116.003,203.722,128.14,188.749,128.14z"/>
</svg>
