<?xml version="1.0"?>
<svg xmlns="http://www.w3.org/2000/svg" viewBox="0 0 1024 1024" fill="none">
  <path fill="currentColor" d="M448 604.4C448 591.7 451.8 579.4 458.8 568.8C465.8 558.3 475.8 550.1 487.5 545.2C499.2 540.4 512.1 539.1 524.5 541.6C536.9 544.1 548.3 550.2 557.3 559.1C566.3 568.1 572.3 579.5 574.8 591.9C577.3 604.3 576 617.2 571.2 628.9C566.4 640.6 558.2 650.6 547.6 657.6C537.1 664.6 524.7 668.4 512 668.4C503.6 668.4 495.3 666.8 487.5 663.6C479.7 660.4 472.7 655.7 466.7 649.7C460.8 643.8 456 636.7 452.8 628.9C449.6 621.2 448 612.9 448 604.4ZM512 711.1C481.8 711.1 452.9 723.1 431.5 744.4C410.2 765.7 398.2 794.7 398.2 824.9V881.8H443.7L455.1 995.6H568.9L580.3 881.8H625.8V824.9C625.8 794.7 613.8 765.8 592.5 744.4C571.1 723.1 542.2 711.1 512 711.1Z"/>
  <path fill="currentColor" d="M664.8 748.8C699.5 753.6 733.9 760 768 768V399.4C684.3 379.7 598.3 369.8 512 369.8C425.7 369.8 339.7 379.7 256 399.4V768C290.1 760 324.5 753.6 359.2 748.8C367.3 732.4 378.1 717.3 391.3 704.2C399.8 695.7 409.1 688.2 419 681.8C411.2 672.5 404.9 662 400.2 650.7C394.1 636 391 620.3 391.1 604.4C391.1 580.5 398.2 557.2 411.5 537.3C424.8 517.4 443.7 501.9 465.8 492.8C487.9 483.7 512.2 481.3 535.6 485.9C559.1 490.6 580.6 502.1 597.5 519C614.4 535.9 625.9 557.4 630.6 580.9C635.3 604.4 632.9 628.7 623.7 650.7C619 662 612.7 672.4 605 681.7C614.9 688.1 624.2 695.7 632.7 704.2C645.8 717.4 656.6 732.5 664.8 748.8Z"/>
  <path fill="currentColor" d="M512 56.9C358.5 56.9 205.6 76 56.8999 113.8V711.1C75.7999 706.3 94.7999 701.8 113.8 697.6C142.1 691.3 170.6 685.8 199.1 680.9V623.2C170.5 628 142.1 633.4 113.8 639.4V158.6C244.4 128.8 378 113.8 512 113.8C646 113.8 779.6 128.8 910.2 158.6V639.4C881.9 633.3 853.4 627.9 824.9 623.2V680.9C853.5 685.8 881.9 691.4 910.2 697.6C929.2 701.8 948.2 706.3 967.1 711.1V113.8C818.4 76 665.5 56.9 512 56.9Z"/>
</svg>
