<?xml version="1.0"?>
<svg xmlns="http://www.w3.org/2000/svg" viewBox="0 0 79.167 32">
  <path fill="currentColor" d="M32.168,14.728l-0.087-0.291l0.029-0.289h-2.433v0.607
				L32.168,14.728z M75.94,11.108c-2.26,1.756-3.803,2.886-4.634,3.388c-1.234,0.751-2.557,1.477-3.964,2.172
				c-1.854,0.888-3.589,1.571-5.211,2.056c-1.602,0.462-3.609,0.905-6.023,1.331c-0.771,0.114-1.523,0.231-2.256,0.349l-0.899,0.144
				c-0.075-0.096-0.184-0.185-0.316-0.261c-0.253-0.173-0.493-0.251-0.726-0.231c-0.231,0.037-0.49,0.164-0.78,0.376l-0.405,0.317
				c-0.097-0.077-0.214-0.145-0.348-0.201c-0.29-0.137-0.541-0.185-0.754-0.144c-0.229,0.038-0.49,0.144-0.778,0.315l-0.379,0.261
				c-0.096-0.058-0.202-0.125-0.317-0.201c-0.271-0.115-0.503-0.166-0.694-0.146c-0.193,0-0.425,0.086-0.695,0.259l-0.349,0.263
				c-0.096-0.076-0.221-0.156-0.376-0.232c-0.308-0.136-0.57-0.192-0.781-0.174c-0.134,0.018-0.339,0.106-0.607,0.262l-0.291,0.231
				c-0.096-0.059-0.211-0.126-0.348-0.202c-0.271-0.155-0.511-0.232-0.724-0.232c-0.229,0-0.482,0.085-0.752,0.262
				c-0.077,0.038-0.154,0.086-0.232,0.144l-0.085,0.059c-0.136-0.078-0.29-0.155-0.464-0.231c-0.349-0.174-0.626-0.261-0.84-0.261
				c-0.173,0-0.397,0.097-0.666,0.29l-0.347,0.288h-2.896l-0.289-1.158l-1.592,1.593c-0.021,0.02-0.078,0.028-0.175,0.028
				c-0.153,0.02-0.337,0.02-0.549,0c-0.212-0.019-0.389-0.057-0.522-0.114l-0.114-0.06c-0.192-0.404-0.463-0.829-0.811-1.273
				c-0.677-0.849-1.381-1.342-2.115-1.478c-0.887-0.114-1.775,0.029-2.663,0.436c-0.27,0.136-0.512,0.28-0.723,0.435l-0.29,0.232
				l-0.404,0.029c-0.289-0.193-0.655-0.367-1.1-0.523c-0.928-0.327-1.805-0.435-2.635-0.317c-0.831,0.114-1.649,0.405-2.46,0.869
				c-0.405,0.231-0.725,0.452-0.955,0.664l-0.407,0.06c-0.56-0.231-1.256-0.454-2.085-0.665c-1.698-0.427-3.29-0.59-4.774-0.493
				c-0.696,0.057-1.197,0.115-1.506,0.174c-0.561,0.098-1.14,0.279-1.737,0.55c-0.617,0.269-1.391,0.763-2.315,1.476
				c-0.464,0.35-0.87,0.667-1.216,0.958l-1.68,0.577c-0.096,0-0.212-0.01-0.349-0.029c-0.248-0.019-0.491-0.049-0.724-0.087
				c-0.212-0.059-0.435-0.144-0.666-0.261l-0.288-0.144l-0.202-0.9l-0.984-0.491C0.595,21.386,0.529,21.33,0.47,21.27
				c-0.154-0.155-0.232-0.317-0.232-0.492c0-0.136,0.011-0.271,0.028-0.406l0.03-0.146c0.211-0.346,0.491-0.761,0.84-1.243
				c0.675-0.966,1.359-1.766,2.053-2.404c0.773-0.695,1.439-1.206,2-1.533c0.424-0.29,0.936-0.529,1.533-0.723
				c1.893-0.715,3.562-1.247,5.009-1.595c1.157-0.25,2.373-0.444,3.647-0.579c1.2-0.131,2.907-0.239,5.123-0.317
				c0.03,0,0.06,0,0.088,0c1.468-0.039,2.886-0.077,4.255-0.115c0.271,0,0.521,0,0.752,0c1.587-0.017,2.929-0.025,4.024-0.028
				c1.638-0.011,2.728-0.011,3.271,0c0.06,0,0.106,0,0.145,0c0.774,0.02,1.447,0.152,2.028,0.404
				c0.307,0.115,0.539,0.241,0.693,0.376l0.232-0.29l0.231,0.232l0.202-0.232l0.29,0.203l0.144-0.144l0.232,0.087l0.088-0.232
				l0.26,0.146l0.144-0.203l0.262,0.173l0.117-0.259l0.346,0.115l0.057-0.262l0.32,0.146v-0.348l0.347,0.115v-0.26l0.376,0.027
				l0.552-0.406l0.52,0.147c0.444,0.095,0.956,0.212,1.536,0.348c1.755,0.346,3.655,0.616,5.699,0.809
				c2.047,0.155,3.872,0.232,5.474,0.232c0.578,0,1.253-0.019,2.026-0.057c0.426,0,1.101-0.032,2.026-0.089
				c1.447-0.058,3.193-0.185,5.238-0.376c2.048-0.212,3.86-0.444,5.444-0.696c1.68-0.248,4.041-0.79,7.091-1.619
				c1.525-0.405,2.877-0.781,4.053-1.13C78.102,9.419,77.057,10.241,75.94,11.108z"/>
</svg>
