<?xml version="1.0"?>
<svg xmlns="http://www.w3.org/2000/svg" viewBox="0 0 46 47" fill="none">
  <path fill="currentColor" fill-rule="evenodd" clip-rule="evenodd" d="M0 14.5556C0 13.1442 1.14416 12 2.55556 12H43.4444C44.8558 12 46 13.1442 46 14.5556V31.1667C46 33.2838 44.2838 35 42.1667 35H3.83333C1.71624 35 0 33.2838 0 31.1667V14.5556ZM42.1667 20.9444C42.1667 21.6501 41.5946 22.2222 40.8889 22.2222C40.1832 22.2222 39.6111 21.6501 39.6111 20.9444C39.6111 20.2387 40.1832 19.6667 40.8889 19.6667C41.5946 19.6667 42.1667 20.2387 42.1667 20.9444ZM40.8889 17.1111C41.5946 17.1111 42.1667 16.539 42.1667 15.8333C42.1667 15.1276 41.5946 14.5556 40.8889 14.5556C40.1832 14.5556 39.6111 15.1276 39.6111 15.8333C39.6111 16.539 40.1832 17.1111 40.8889 17.1111ZM44.7222 18.3889C44.7222 19.0946 44.1501 19.6667 43.4444 19.6667C42.7387 19.6667 42.1667 19.0946 42.1667 18.3889C42.1667 17.6832 42.7387 17.1111 43.4444 17.1111C44.1501 17.1111 44.7222 17.6832 44.7222 18.3889ZM38.3333 19.6667C39.039 19.6667 39.6111 19.0946 39.6111 18.3889C39.6111 17.6832 39.039 17.1111 38.3333 17.1111C37.6276 17.1111 37.0556 17.6832 37.0556 18.3889C37.0556 19.0946 37.6276 19.6667 38.3333 19.6667ZM7.66667 18.3889C7.66667 19.8003 6.52251 20.9444 5.11111 20.9444C3.69972 20.9444 2.55556 19.8003 2.55556 18.3889C2.55556 16.9775 3.69972 15.8333 5.11111 15.8333C6.52251 15.8333 7.66667 16.9775 7.66667 18.3889ZM3.05556 27.3333C2.77941 27.3333 2.55556 27.5572 2.55556 27.8333V31.9444C2.55556 32.2206 2.77941 32.4444 3.05556 32.4444H7.16667C7.44281 32.4444 7.66667 32.2206 7.66667 31.9444V27.8333C7.66667 27.5572 7.44281 27.3333 7.16667 27.3333H3.05556ZM38.3333 27.8333C38.3333 27.5572 38.5572 27.3333 38.8333 27.3333H42.9444C43.2206 27.3333 43.4444 27.5572 43.4444 27.8333V31.9444C43.4444 32.2206 43.2206 32.4444 42.9444 32.4444H38.8333C38.5572 32.4444 38.3333 32.2206 38.3333 31.9444V27.8333ZM35.7778 14.5556H10.2222V32.4444H35.7778V14.5556Z"/>
</svg>
