<?xml version="1.0"?>
<svg width="61px" height="52px" viewBox="0 0 61 52" fill="none" xmlns="http://www.w3.org/2000/svg">
  <path fill-rule="evenodd" clip-rule="evenodd" d="M31.327 0.622074L31.0027 0.341797L30.6762 0.619372L7.67619 20.1694L0.676186 26.1194C0.465782 26.2982 0.440197 26.6138 0.61904 26.8242C0.797884 27.0346 1.11343 27.0602 1.32383 26.8813L7.50001 21.6316V49.0003C7.50001 50.3811 8.6193 51.5003 10 51.5003H51.5C52.8807 51.5003 54 50.3811 54 49.0003V21.5426L60.173 26.8786C60.3819 27.0592 60.6977 27.0362 60.8783 26.8273C61.0589 26.6184 61.0359 26.3027 60.827 26.1221L53.827 20.0712L31.327 0.622074ZM8.50001 49.0003V20.7816L30.9973 1.65889L53 20.6782V49.0003C53 49.8288 52.3284 50.5003 51.5 50.5003H38.5V32.0003C38.5 30.6196 37.3807 29.5003 36 29.5003H26C24.6193 29.5003 23.5 30.6196 23.5 32.0003V50.5003H10C9.17158 50.5003 8.50001 49.8288 8.50001 49.0003ZM24.5 50.5003H37.5V32.0003C37.5 31.1719 36.8284 30.5003 36 30.5003H26C25.1716 30.5003 24.5 31.1719 24.5 32.0003V50.5003Z" fill=""/>
</svg>
