<?xml version="1.0"?>
<svg version="1.1" id="Layer_2" xmlns="http://www.w3.org/2000/svg" x="0px" y="0px" width="256px" height="256px" viewBox="0 0 409.6 409.6">
  <path d="M225.1,328.8c-12.6,0-15.3-1.9-29.5-5.3c-18.7-4.8-35.3-6.3-51-5.3c-3.5,0.5-7.1,0.5-10.6,1l-7.6,1
				c-2.5,0.5-4.5-1-5.6-3.4c-12.6-36.2-16.6-74.7-11.6-117.6c0-2.4,2-3.9,4.5-4.3l4.5-0.5c3.5-0.5,6.6-1,10.1-1c5-0.5,9.6-2.9,13.1-7.2
				l0.5-1c0.5-0.5,1-1.4,1.5-2.4c9.1-14.5,22.2-25.6,36.8-37.6c7.6-6.3,14.1-12.5,20.2-18.3c6.6-7.2,10.1-16.4,10.6-27
				c0-9.6,5.6-15.4,16.1-16.4c13.6-1,22.7,3.9,27.8,15.9c7.6,16.4-4.4,33.3-13.9,50.6c-2,3.9-4.5,7.2-7.1,10.6c-1,1.4-2,2.9-3,4.3
				l-3.5,4.8c-1.5,1.9-3,3.9-4.5,6.3c4,0,7.6,0,11.6,0c11.1-0.5,34.6-0.5,46.7,1.4c7.6,1,13.6,4.8,17.7,10.1c3.5,4.8,4.5,11.1,3,17.8
				c-0.5,2.9-2,5.8-5,9.2c-1.5,1.9-14.4,3.9-16.5,5.3h10.9c2.5,1.9,5,3.9,7.1,6.3c4,4.3,5.6,9.2,5,14.9c-0.5,5.3-3,10.6-7.6,14
				c-2.5,1.9-16,3.9-18.5,5.3c5,5.3,18,12.1,16.5,19.3c-2,9.6-7.6,15.4-18.2,17.8c2.5,3.9,3,8.7,1.5,13.5c-0.5,2.4-1.5,4.3-2.5,6.3
				c-2.5,5.3-6.6,8.2-13.1,9.6C253.2,327.8,233.7,328.8,225.1,328.8z"/>
</svg>
