<?xml version="1.0"?>
<svg width="36" height="36" viewBox="0 0 36 36" fill="none" xmlns="http://www.w3.org/2000/svg">
  <path d="M32.4951 17.999C32.4951 26.0045 26.0054 32.4941 18 32.4941C9.99457 32.4941 3.50488 26.0045 3.50488 17.999C3.50488 9.99359 9.99457 3.50391 18 3.50391C26.0054 3.50391 32.4951 9.99359 32.4951 17.999ZM6.08187 17.999C6.08187 24.5812 11.4178 29.9172 18 29.9172C24.5822 29.9172 29.9181 24.5812 29.9181 17.999C29.9181 11.4168 24.5822 6.08089 18 6.08089C11.4178 6.08089 6.08187 11.4168 6.08187 17.999Z" fill="currentColor"/>
  <path d="M18 8.67969C19.2243 8.67969 20.4367 8.92084 21.5679 9.38937C22.699 9.85791 23.7268 10.5447 24.5925 11.4104C25.4583 12.2761 26.145 13.3039 26.6136 14.4351C27.0821 15.5662 27.3232 16.7786 27.3232 18.0029C27.3232 19.2273 27.0821 20.4396 26.6136 21.5708C26.145 22.7019 25.4583 23.7297 24.5925 24.5955C23.7268 25.4612 22.699 26.1479 21.5679 26.6165C20.4367 27.085 19.2243 27.3262 18 27.3262L18 18.0029L18 8.67969Z" fill="currentColor"/>
</svg>
