<?xml version="1.0"?>
<svg xmlns="http://www.w3.org/2000/svg" viewBox="0 0 12 12" fill="none">
  <path fill="currentColor" fill-rule="evenodd" clip-rule="evenodd" d="M1 0C0.447715 0 0 0.447715 0 1V11C0 11.5523 0.447715 12 1 12H11C11.5523 12 12 11.5523 12 11V1C12 0.447715 11.5523 0 11 0H1ZM6.00009 9.14281V7.97879C6.00009 7.48484 5.80443 7.01112 5.45615 6.66185C5.10787 6.31258 4.63549 6.11636 4.14295 6.11636C3.65041 6.11636 3.17803 6.31258 2.82975 6.66185C2.48147 7.01112 2.28581 7.48484 2.28581 7.97879V9.14281H6.00009ZM4.72332 5.24139C4.55153 5.3565 4.34956 5.41794 4.14295 5.41794C4.00568 5.41825 3.8697 5.39136 3.74282 5.33882C3.61594 5.28628 3.50066 5.20913 3.40359 5.11179C3.30653 5.01445 3.22959 4.89884 3.1772 4.77159C3.12481 4.64435 3.098 4.50799 3.09831 4.37032C3.09831 4.16313 3.15957 3.96058 3.27436 3.7883C3.38915 3.61602 3.5523 3.48174 3.74318 3.40245C3.93407 3.32316 4.14411 3.30241 4.34675 3.34283C4.54939 3.38326 4.73553 3.48303 4.88162 3.62955C5.02772 3.77606 5.12721 3.96273 5.16752 4.16594C5.20783 4.36916 5.18714 4.5798 5.10807 4.77123C5.02901 4.96266 4.89511 5.12627 4.72332 5.24139ZM8.52066 5.77217C8.76478 5.86581 8.98645 6.01006 9.17116 6.19551C9.34357 6.3686 9.48028 6.57406 9.57349 6.80015C9.6667 7.02624 9.71457 7.26853 9.71438 7.51318V8.6772H6.92866V7.97879C6.93046 7.39391 6.74762 6.82346 6.40634 6.34916C6.56949 6.14438 6.77391 5.97645 7.00622 5.85634C7.23854 5.73622 7.49351 5.66664 7.75448 5.65214C8.01545 5.63764 8.27654 5.67854 8.52066 5.77217ZM8.43761 4.77578C8.26582 4.89089 8.06385 4.95233 7.85724 4.95233C7.71996 4.95264 7.58399 4.92575 7.45711 4.87321C7.33023 4.82068 7.21494 4.74352 7.11788 4.64618C7.02081 4.54884 6.94388 4.43323 6.89149 4.30598C6.8391 4.17874 6.81229 4.04238 6.81259 3.90472C6.81259 3.69752 6.87386 3.49497 6.98865 3.32269C7.10343 3.15041 7.26658 3.01613 7.45747 2.93684C7.64835 2.85755 7.85839 2.8368 8.06104 2.87723C8.26368 2.91765 8.44981 3.01743 8.59591 3.16394C8.74201 3.31045 8.8415 3.49712 8.88181 3.70034C8.92211 3.90355 8.90143 4.11419 8.82236 4.30562C8.74329 4.49705 8.6094 4.66067 8.43761 4.77578Z"/>
</svg>
