<?xml version="1.0"?>
<svg xmlns="http://www.w3.org/2000/svg" viewBox="0 0 36 36" fill="none">
  <g clip-path="">
    <path d="M21 13.05H18V7.05005H21V13.05ZM15 7.05005H12V13.05H15V7.05005ZM5.83 0.0500488L0 5.70005V24.05H7V30.05L12.83 24.05H18.5L28 14.88V0.0500488H5.83ZM25 13L18.76 19H14L10 23V19H7V3.00005H25V13ZM17 30.55L23 33.55C23.0591 34.2411 23.3819 34.8828 23.9014 35.3423C24.4209 35.8018 25.0972 36.0437 25.7903 36.018C26.4833 35.9923 27.1399 35.7009 27.6239 35.2042C28.1079 34.7074 28.3822 34.0435 28.39 33.35C28.3869 33.1482 28.3635 32.9472 28.32 32.75L30.87 31C31.2149 31.0993 31.5712 31.1531 31.93 31.16C32.7747 31.166 33.6006 30.9109 34.2948 30.4297C34.989 29.9484 35.5177 29.2645 35.8084 28.4714C36.0992 27.6783 36.1379 26.8148 35.9192 25.9988C35.7006 25.1829 35.2352 24.4544 34.5868 23.913C33.9384 23.3716 33.1386 23.0437 32.2968 22.9741C31.4549 22.9045 30.6121 23.0966 29.8836 23.5242C29.1551 23.9518 28.5765 24.5939 28.2268 25.3629C27.8771 26.1318 27.7734 26.99 27.93 27.82L26 30.7001C25.89 30.7001 25.79 30.7001 25.67 30.7001C25.132 30.6989 24.606 30.8592 24.16 31.16L18.39 28.16L17 30.55Z" fill="currentColor"/>
  </g>
  <defs>
    <clipPath id="">
      <rect fill="currentColor"/>
    </clipPath>
  </defs>
</svg>
