<?xml version="1.0"?>
<svg xmlns="http://www.w3.org/2000/svg" viewBox="0 0 36 36" fill="none">
  <path d="M2 6.05005V30.05H34V6.05005H2ZM25 10.05C25.5933 10.05 26.1734 10.226 26.6667 10.5556C27.1601 10.8853 27.5446 11.3538 27.7716 11.902C27.9987 12.4502 28.0581 13.0534 27.9424 13.6353C27.8266 14.2173 27.5409 14.7518 27.1213 15.1714C26.7018 15.5909 26.1672 15.8766 25.5853 15.9924C25.0033 16.1082 24.4001 16.0488 23.8519 15.8217C23.3038 15.5946 22.8352 15.2101 22.5056 14.7168C22.1759 14.2234 22 13.6434 22 13.05C22 12.2544 22.3161 11.4913 22.8787 10.9287C23.4413 10.3661 24.2044 10.05 25 10.05ZM23 26.05H6L14.5 15.05L19.4 21.39L22 18.05L28.22 26.05H23Z" fill="currentColor"/>
</svg>
