<?xml version="1.0"?>
<svg xmlns="http://www.w3.org/2000/svg" viewBox="0 0 476 600" fill="none">
  <path fill="currentColor" d="M120.149 -86.0844C-66.5487 -86.0844 -219.429 57.91 -234 240.963L-43.5621 319.782C-27.4326 308.711 -7.95244 302.318 13.0861 302.318C14.9562 302.318 16.8263 302.318 18.6964 302.474L103.396 179.608C103.396 179.062 103.396 178.438 103.396 177.892C103.396 103.985 163.551 43.7991 237.419 43.7991C311.288 43.7991 371.443 103.985 371.443 177.892C371.443 251.8 311.288 311.986 237.419 311.986C236.406 311.986 235.394 311.986 234.381 311.986L113.604 398.211C113.604 399.77 113.682 401.407 113.682 402.966C113.682 458.475 68.5656 503.614 13.0861 503.614C-35.6142 503.614 -76.2888 468.844 -85.5613 422.769L-221.766 366.325C-179.611 515.542 -42.5491 625 120.149 625C316.431 625 475.467 465.803 475.467 269.497C475.467 73.1904 316.353 -86.0844 120.149 -86.0844Z" fill-opacity="0.15"/>
  <path fill="currentColor" d="M-11.3061 453.406L-54.9417 435.397C-47.2275 451.535 -33.8252 465.022 -16.0593 472.429C22.3556 488.411 66.6145 470.168 82.6661 431.733C90.3802 413.1 90.4582 392.596 82.744 373.964C75.1078 355.331 60.6146 340.752 41.9915 333.034C23.5244 325.316 3.73256 325.628 -13.6437 332.176L31.4723 350.809C59.8354 362.659 73.2377 395.169 61.3938 423.547C49.6278 451.925 17.057 465.334 -11.3061 453.484V453.406Z" fill-opacity="0.15"/>
  <path fill="currentColor" d="M326.71 177.812C326.71 128.541 286.659 88.4688 237.413 88.4688C188.167 88.4688 148.116 128.541 148.116 177.812C148.116 227.084 188.167 267.156 237.413 267.156C286.659 267.156 326.71 227.084 326.71 177.812ZM170.479 177.656C170.479 140.625 200.557 110.532 237.569 110.532C274.581 110.532 304.658 140.547 304.658 177.656C304.658 214.766 274.659 244.781 237.569 244.781C200.479 244.781 170.479 214.766 170.479 177.656Z" fill-opacity="0.15"/>
</svg>
