<?xml version="1.0"?>
<svg xmlns="http://www.w3.org/2000/svg" viewBox="0 0 36 36" fill="none">
  <g clip-path="">
    <path fill="currentColor" fill-rule="evenodd" clip-rule="evenodd" d="M4.49995 7.47C3.93745 8.0325 2.81244 10.2825 2.81244 10.2825C2.24993 11.97 0.562445 17.0325 -5.43911e-05 23.7825C-5.43911e-05 23.7825 -0.562553 28.845 3.37495 29.4075C6.832 29.8396 7.9652 25.2921 8.55982 22.9059C8.73921 22.186 8.86958 21.6629 8.99995 21.5325C9.33789 21.1945 9.67584 21.0596 9.89181 21.0058C10.5086 21.6754 11.3928 22.095 12.3749 22.095C13.3745 22.095 14.2726 21.6605 14.8906 20.97H21.1093C21.7273 21.6605 22.6254 22.095 23.6249 22.095C24.6071 22.095 25.4913 21.6754 26.1081 21.0058C26.3241 21.0596 26.662 21.1945 27 21.5325C27.1303 21.6629 27.2607 22.186 27.4401 22.9059C28.0347 25.2921 29.1679 29.8396 32.625 29.4075C36.5625 28.845 36 23.7825 36 23.7825C35.4375 17.0325 33.75 11.97 33.1875 10.2825C33.1875 10.2825 32.0625 8.03251 31.4999 7.47C31.4575 7.42758 31.3927 7.39155 31.3091 7.36121C30.794 7.09333 29.2603 6.45543 26.9999 6.9075C26.8121 7.09539 26.6869 7.28328 26.6036 7.45021C26.4971 7.46255 26.4375 7.47001 26.4375 7.47001L25.875 8.0325L24.1874 8.03251V12.5325C24.1874 13.1538 23.6838 13.6575 23.0624 13.6575H12.9374C12.3161 13.6575 11.8124 13.1538 11.8124 12.5325V8.03251L10.1249 8.03249L9.56245 7.47C9.56245 7.47 9.50277 7.46254 9.39629 7.4502C9.31296 7.28328 9.18783 7.09539 8.99995 6.9075C6.73958 6.45543 5.20586 7.09333 4.6908 7.36121C4.60721 7.39155 4.54237 7.42759 4.49995 7.47ZM14.3999 18.1575C14.3999 19.4002 13.3926 20.4075 12.1499 20.4075C10.9073 20.4075 9.89995 19.4002 9.89995 18.1575C9.89995 16.9149 10.9073 15.9075 12.1499 15.9075C13.3926 15.9075 14.3999 16.9149 14.3999 18.1575ZM23.6249 20.4075C24.8676 20.4075 25.8749 19.4002 25.8749 18.1575C25.8749 16.9149 24.8676 15.9075 23.6249 15.9075C22.3823 15.9075 21.3749 16.9149 21.3749 18.1575C21.3749 19.4002 22.3823 20.4075 23.6249 20.4075ZM30.3749 10.845C30.3749 11.4663 29.8713 11.97 29.2499 11.97C28.6286 11.97 28.1249 11.4663 28.1249 10.845C28.1249 10.2237 28.6286 9.72001 29.2499 9.72001C29.8713 9.72001 30.3749 10.2237 30.3749 10.845ZM29.2499 17.0325C29.8713 17.0325 30.3749 16.5288 30.3749 15.9075C30.3749 15.2862 29.8713 14.7825 29.2499 14.7825C28.6286 14.7825 28.1249 15.2862 28.1249 15.9075C28.1249 16.5288 28.6286 17.0325 29.2499 17.0325ZM26.7187 12.2513C27.34 12.2513 27.8437 12.7549 27.8437 13.3763C27.8437 13.9976 27.34 14.5013 26.7187 14.5013C26.0974 14.5013 25.5937 13.9976 25.5937 13.3763C25.5937 12.7549 26.0974 12.2513 26.7187 12.2513ZM32.9062 13.3763C32.9062 12.7549 32.4025 12.2513 31.7812 12.2513C31.1599 12.2513 30.6562 12.7549 30.6562 13.3763C30.6562 13.9976 31.1599 14.5013 31.7812 14.5013C32.4025 14.5013 32.9062 13.9976 32.9062 13.3763ZM5.62495 10.7825C5.62495 10.5064 5.8488 10.2825 6.12495 10.2825H7.37495C7.65109 10.2825 7.87495 10.5064 7.87495 10.7825V11.7629C7.87495 11.8955 7.82227 12.0227 7.7285 12.1165L7.1035 12.7415C6.90824 12.9367 6.59166 12.9367 6.39639 12.7415L5.77139 12.1165C5.67763 12.0227 5.62495 11.8955 5.62495 11.7629V10.7825ZM6.12495 16.47C5.8488 16.47 5.62495 16.2462 5.62495 15.97V14.9896C5.62495 14.857 5.67763 14.7298 5.77139 14.6361L6.39639 14.0111C6.59166 13.8158 6.90824 13.8158 7.1035 14.0111L7.7285 14.6361C7.82227 14.7298 7.87495 14.857 7.87495 14.9896V15.97C7.87495 16.2462 7.65109 16.47 7.37495 16.47H6.12495ZM4.1562 14.5013C3.88006 14.5013 3.6562 14.2774 3.6562 14.0013V12.7513C3.6562 12.4751 3.88006 12.2513 4.1562 12.2513H5.13659C5.2692 12.2513 5.39638 12.3039 5.49014 12.3977L6.11514 13.0227C6.31041 13.218 6.31041 13.5346 6.11514 13.7298L5.49014 14.3548C5.39638 14.4486 5.2692 14.5013 5.13659 14.5013H4.1562ZM9.8437 14.0013C9.8437 14.2774 9.61984 14.5013 9.3437 14.5013H8.36331C8.2307 14.5013 8.10352 14.4486 8.00975 14.3548L7.38475 13.7298C7.18949 13.5346 7.18949 13.218 7.38475 13.0227L8.00975 12.3977C8.10352 12.3039 8.2307 12.2513 8.36331 12.2513H9.3437C9.61984 12.2513 9.8437 12.4751 9.8437 12.7513V14.0013Z"/>
    <path fill="currentColor" d="M23.0624 8.03251L12.9374 8.03251V12.5325H23.0624V8.03251Z"/>
  </g>
  <defs>
    <clipPath id="">
      <rect fill="currentColor" width="36" height="36"/>
    </clipPath>
  </defs>
</svg>
