<?xml version="1.0"?>
<svg xmlns="http://www.w3.org/2000/svg" viewBox="0 0 36 36" fill="none">
  <path fill="currentColor" fill-rule="evenodd" clip-rule="evenodd" d="M17.7557 3.00213C19.9647 2.96357 22.1515 3.44837 24.1372 4.41688C26.123 5.3854 27.8513 6.81013 29.1809 8.57459C29.5133 9.01567 30.1403 9.10378 30.5814 8.77141C31.0224 8.43904 31.1106 7.81203 30.7782 7.37096C29.2586 5.35443 27.2834 3.72617 25.014 2.6193C22.7445 1.51242 20.2454 0.958371 17.7208 1.00244C15.1962 1.0465 12.7179 1.68744 10.4885 2.87284C8.25906 4.05824 6.34184 5.75444 4.89358 7.82278C4.5768 8.27518 4.68675 8.89873 5.13916 9.2155C5.59156 9.53228 6.21511 9.42233 6.53188 8.96993C7.79911 7.16014 9.47668 5.67596 11.4274 4.63873C13.3781 3.60151 15.5467 3.04069 17.7557 3.00213ZM21.9453 8.91085C20.6688 8.28824 19.263 7.97658 17.8429 8.00137C16.4229 8.02616 15.0288 8.38668 13.7748 9.05347C12.5207 9.72026 11.4423 10.6744 10.6276 11.8378C10.3109 12.2902 9.68731 12.4002 9.2349 12.0834C8.7825 11.7666 8.67255 11.1431 8.98933 10.6907C9.98501 9.26868 11.3031 8.10254 12.8358 7.28758C14.3685 6.47261 16.0724 6.03197 17.808 6.00168C19.5437 5.97138 21.2619 6.35229 22.8221 7.11327C24.3823 7.87424 25.7403 8.99367 26.785 10.38C27.1174 10.8211 27.0292 11.4481 26.5882 11.7805C26.1471 12.1129 25.5201 12.0247 25.1877 11.5837C24.333 10.4494 23.2219 9.53347 21.9453 8.91085ZM17.9302 13.0006C18.5613 12.9896 19.1861 13.1281 19.7535 13.4048C20.3208 13.6815 20.8147 14.0886 21.1945 14.5927C21.5269 15.0338 22.1539 15.1219 22.595 14.7896C23.0361 14.4572 23.1242 13.8302 22.7918 13.3891C22.222 12.6329 21.4813 12.0223 20.6302 11.6072C19.7792 11.1922 18.842 10.9844 17.8953 11.0009C16.9486 11.0174 16.0192 11.2578 15.1832 11.7023C14.3471 12.1468 13.6282 12.7829 13.0851 13.5585C12.7683 14.0109 12.8783 14.6345 13.3307 14.9513C13.7831 15.268 14.4066 15.1581 14.7234 14.7057C15.0855 14.1886 15.5648 13.7646 16.1221 13.4682C16.6795 13.1719 17.2991 13.0116 17.9302 13.0006ZM20 18C20 19.1046 19.1046 20 18 20C16.8954 20 16 19.1046 16 18C16 16.8954 16.8954 16 18 16C19.1046 16 20 16.8954 20 18ZM18 22C20.2091 22 22 20.2092 22 18C22 17.6994 21.9668 17.4065 21.904 17.1248C24.1087 17.3084 26.2927 17.6938 28.4251 18.2774C29.2882 18.5775 30.0321 19.1243 30.5543 19.8424C31.0766 20.5605 31.3516 21.4147 31.3415 22.2873L34 22.9711V28.0363L31.3326 28.6778C31.2569 29.761 30.8729 30.8043 30.2215 31.6964C29.57 32.5885 28.6756 33.2959 27.6338 33.743L24.9664 34.8151C24.4245 35.0261 23.8235 35.0575 23.2605 34.9043C22.6975 34.7512 22.2053 34.4223 21.8633 33.9709C21.449 33.3723 20.871 32.892 20.1913 32.5812C19.5116 32.2704 18.7557 32.1409 18.0044 32.2066C17.2569 32.134 16.5025 32.255 15.8215 32.5567C15.1405 32.8585 14.5583 33.3297 14.1367 33.9203C13.7947 34.3717 13.3025 34.7005 12.7395 34.8537C12.1765 35.0068 11.5755 34.9754 11.0336 34.7645L8.36621 33.6924C7.32437 33.2452 6.42999 32.5379 5.77854 31.6458C5.1271 30.7537 4.74305 29.7104 4.66741 28.6272L2 27.9856V22.9204L4.66741 22.2873C4.65729 21.4147 4.93229 20.5605 5.45457 19.8424C5.97684 19.1243 6.72071 18.5775 7.58377 18.2774C9.7133 17.6946 11.8942 17.3094 14.0959 17.1256C14.0331 17.407 14 17.6996 14 18C14 20.2092 15.7909 22 18 22Z"/>
</svg>
