<?xml version="1.0"?>
<svg xmlns="http://www.w3.org/2000/svg" viewBox="0 0 36 36" fill="none">
  <path fill-rule="evenodd" clip-rule="evenodd" d="M33 15.62V20.38L29.05 21.1C28.7984 21.9841 28.4461 22.8363 28 23.64L30.29 26.9L26.92 30.27L23.64 28C22.8372 28.453 21.985 28.8121 21.1 29.07L20.38 33H15.62L14.9 29.05C14.0159 28.7984 13.1637 28.4461 12.36 28L9.08 30.29L5.71 26.92L8 23.64C7.54696 22.8372 7.18793 21.985 6.93 21.1L3 20.38V15.62L6.93 14.9C7.18793 14.015 7.54696 13.1628 8 12.36L5.71 9.08L9.08 5.71L12.36 8C13.1628 7.54696 14.015 7.18793 14.9 6.93L15.62 3H20.38L21.1 6.93C21.985 7.18793 22.8372 7.54696 23.64 8L26.92 5.71L30.27 9.08L28 12.36C28.453 13.1628 28.8121 14.015 29.07 14.9L33 15.62ZM8 19.5899L14 22.5899C14.0591 23.2809 14.3819 23.9227 14.9014 24.3821C15.4209 24.8416 16.0972 25.0836 16.7903 25.0578C17.4833 25.0321 18.1399 24.7407 18.6239 24.244C19.1079 23.7473 19.3822 23.0834 19.39 22.3899C19.3869 22.1881 19.3635 21.987 19.32 21.7899L21.87 20.0399C22.2149 20.1392 22.5712 20.193 22.93 20.1999C23.7747 20.2059 24.6006 19.9508 25.2948 19.4695C25.989 18.9883 26.5177 18.3043 26.8084 17.5112C27.0992 16.7181 27.1379 15.8546 26.9192 15.0387C26.7006 14.2228 26.2352 13.4943 25.5868 12.9529C24.9384 12.4115 24.1386 12.0835 23.2968 12.0139C22.4549 11.9443 21.6121 12.1365 20.8836 12.564C20.1551 12.9916 19.5765 13.6338 19.2268 14.4027C18.8771 15.1716 18.7734 16.0298 18.93 16.8599L17 19.7399H16.67C16.132 19.7388 15.606 19.899 15.16 20.1999L9.39 17.1999L8 19.5899Z" fill="currentColor"/>
</svg>
