<?xml version="1.0"?>
<svg xmlns="http://www.w3.org/2000/svg" viewBox="0 0 36 36" fill="none">
  <path fill="currentColor" fill-rule="evenodd" clip-rule="evenodd" d="M24 14.25C26.0711 14.25 27.75 15.9289 27.75 18C27.75 20.0711 26.0711 21.75 24 21.75C21.9289 21.75 20.25 20.0711 20.25 18C20.25 15.9289 21.9289 14.25 24 14.25ZM23 15.5V18.4922L24.9932 20.375L26 19.4219L24.4258 17.9346V15.5H23Z"/>
  <path fill="currentColor" fill-rule="evenodd" clip-rule="evenodd" d="M10 11H13V7H34V29H13V25H10V29H2V21C3.65685 21 5 19.6569 5 18C5 16.3431 3.65685 15 2 15V7H10V11ZM24 12C20.6863 12 18 14.6863 18 18C18 21.3137 20.6863 24 24 24C27.3137 24 30 21.3137 30 18C30 14.6863 27.3137 12 24 12ZM10 23H13V19H10V23ZM10 17H13V13H10V17Z"/>
</svg>
