<?xml version="1.0"?>
<svg xmlns="http://www.w3.org/2000/svg" viewBox="0 0 36 36" fill="none">
  <path d="M17.974 3C10.0808 3 3.61438 9.07573 3 16.7967L11.0534 20.121C11.7357 19.6551 12.56 19.383 13.447 19.383C13.5265 19.383 13.6056 19.3849 13.684 19.3892L17.2658 14.2073C17.2658 14.1826 17.2652 14.1585 17.2652 14.1342C17.2652 11.0149 19.807 8.47686 22.9319 8.47686C26.0568 8.47686 28.5987 11.0149 28.5987 14.1342C28.5987 17.2532 26.0568 19.7915 22.9319 19.7915C22.8887 19.7915 22.8463 19.7903 22.8035 19.7889L17.6954 23.4276C17.6981 23.4944 17.7004 23.5615 17.7004 23.6287C17.7004 25.9704 15.7923 27.8749 13.447 27.8749C11.3885 27.8749 9.66695 26.4079 9.27686 24.4652L3.51756 22.0881C5.30075 28.3844 11.0953 33 17.974 33C26.2726 33 33 26.2842 33 18.0001C32.9999 9.71534 26.2725 3 17.974 3Z" fill="currentColor"/>
  <path d="M12.4163 25.7599L10.5704 24.9989C10.8977 25.6791 11.4633 26.2478 12.2149 26.5608C13.8388 27.2363 15.7116 26.4665 16.3884 24.8446C16.7162 24.0596 16.7186 23.193 16.3933 22.4064C16.0691 21.6196 15.457 21.0054 14.6698 20.6778C13.889 20.3538 13.0526 20.3656 12.317 20.6422L14.2241 21.4296C15.4222 21.928 15.9884 23.3013 15.4894 24.497C14.9906 25.6931 13.6143 26.2586 12.4163 25.7599Z" fill="currentColor"/>
  <path d="M26.7079 14.1338C26.7079 12.0555 25.0142 10.3645 22.9321 10.3645C20.8502 10.3645 19.1559 12.0554 19.1559 14.1338C19.1559 16.2122 20.8501 17.9027 22.9321 17.9027C25.0141 17.9027 26.7079 16.2122 26.7079 14.1338ZM20.1018 14.1273C20.1018 12.5634 21.372 11.296 22.9384 11.296C24.505 11.296 25.7749 12.5634 25.7749 14.1273C25.7749 15.6912 24.5051 16.9586 22.9384 16.9586C21.372 16.9585 20.1018 15.6912 20.1018 14.1273Z" fill="currentColor"/>
</svg>
