<?xml version="1.0"?>
<svg xmlns="http://www.w3.org/2000/svg" viewBox="0 0 36 36" fill="none">
  <path fill="currentColor" d="M14.8423 5.23802H8.25602C8.06408 5.23802 7.8781 5.334 7.76408 5.48998L3.89928 11H10.0685L14.8423 5.23802Z"/>
  <path fill="currentColor" d="M3.66016 13.5L14.8423 28.8125L9.68747 13.5H3.66016Z"/>
  <path fill="currentColor" d="M12.1675 13.5L17.4301 30.33C17.4339 30.3454 17.4403 30.3559 17.4475 30.3678L17.4527 30.3763L17.4574 30.3847L17.4601 30.39C17.4661 30.4139 17.478 30.4379 17.4961 30.4619C17.5201 30.504 17.5501 30.54 17.5801 30.57L17.6341 30.624C17.6882 30.666 17.7541 30.7019 17.8201 30.726C17.8623 30.7365 17.9044 30.7424 17.9424 30.7478L17.9582 30.75H17.9941L18.0001 30.756C18.0031 30.756 18.0046 30.7545 18.0061 30.753C18.0076 30.7515 18.0091 30.75 18.0121 30.75H18.0361C18.0841 30.75 18.1321 30.744 18.1801 30.726H18.1861C18.2521 30.702 18.318 30.666 18.3721 30.624C18.3811 30.615 18.3886 30.606 18.3961 30.597C18.4036 30.588 18.4111 30.579 18.4201 30.57C18.4561 30.54 18.4861 30.5039 18.5101 30.4619L18.5461 30.39C18.5491 30.378 18.5551 30.369 18.5611 30.36C18.5671 30.351 18.5731 30.342 18.5761 30.33L19.3385 27.889L19.3262 27.8851L21.4894 21.0028L23.8329 13.5L12.1675 13.5Z"/>
  <path fill="currentColor" d="M20.875 28.8125L32.346 13.5H26.3313L20.875 28.8125Z"/>
  <path fill="currentColor" d="M32.1009 11L28.236 5.48993C28.1221 5.33395 27.9421 5.23798 27.7441 5.23798H21.0513L25.8251 11H32.1009Z"/>
  <path fill="currentColor" d="M23.076 11L18.4622 5.45398C18.4562 5.448 18.4487 5.44199 18.4412 5.43599C18.4338 5.42998 18.4262 5.42397 18.4203 5.418C18.4157 5.41341 18.412 5.40792 18.4081 5.40222C18.4019 5.39309 18.3954 5.38341 18.3843 5.37605C18.3753 5.37007 18.3663 5.36556 18.3573 5.36105C18.3483 5.35654 18.3393 5.35202 18.3303 5.34605C18.2949 5.32248 18.2596 5.30479 18.2243 5.28709L18.2222 5.28605L18.2195 5.28515C18.1843 5.27349 18.1492 5.26187 18.1142 5.25605C18.0782 5.25007 18.0421 5.24409 18.0002 5.24409C17.9641 5.24409 17.9281 5.25007 17.8921 5.25605C17.85 5.26202 17.8141 5.27398 17.7781 5.29202C17.7421 5.3041 17.7121 5.32202 17.6761 5.34605C17.6671 5.35202 17.6566 5.35654 17.6461 5.36105C17.6356 5.36556 17.6252 5.37007 17.6161 5.37605C17.6102 5.38202 17.6056 5.38952 17.6011 5.39702C17.5966 5.40452 17.5921 5.41203 17.5861 5.418C17.5811 5.42132 17.5761 5.42418 17.5712 5.42696C17.5585 5.4342 17.5467 5.44094 17.5381 5.45398L12.9293 11H23.076Z"/>
</svg>
