<?xml version="1.0"?>
<svg xmlns="http://www.w3.org/2000/svg" viewBox="0 0 36 36" fill="none">
  <path fill="currentColor" d="M17.1666 27.2472C17.4133 27.412 17.7033 27.5 18 27.5C18.3978 27.5 18.7794 27.342 19.0607 27.0607C19.342 26.7794 19.5 26.3978 19.5 26C19.5 25.7033 19.412 25.4133 19.2472 25.1666C19.0824 24.92 18.8481 24.7277 18.574 24.6142C18.2999 24.5006 17.9983 24.4709 17.7074 24.5288C17.4164 24.5867 17.1491 24.7296 16.9393 24.9393C16.7296 25.1491 16.5867 25.4164 16.5288 25.7074C16.4709 25.9983 16.5006 26.2999 16.6142 26.574C16.7277 26.8481 16.92 27.0824 17.1666 27.2472Z"/>
  <path fill="currentColor" fill-rule="evenodd" clip-rule="evenodd" d="M18.85 21.5V21.438L18.8508 21.4161C18.8689 20.8796 19.0265 18.557 19.308 18.0999C19.5843 17.6513 19.9705 17.281 20.43 17.0239C21.1276 16.6025 21.7037 16.007 22.1017 15.2956C22.503 14.5783 22.7092 13.7683 22.6997 12.9464C22.6902 12.1246 22.4654 11.3196 22.0476 10.6118C21.6298 9.90395 21.0337 9.31807 20.3188 8.91258C19.6039 8.50709 18.7951 8.29617 17.9732 8.30086C17.1513 8.30555 16.345 8.52569 15.6347 8.93932C14.9245 9.35295 14.3351 9.9456 13.9255 10.6581C13.736 10.9877 13.588 11.3377 13.4836 11.6999H15.3074C15.453 11.3984 15.6484 11.123 15.8858 10.8857C16.1634 10.608 16.493 10.3878 16.8558 10.2375C17.2186 10.0873 17.6074 10.0099 18 10.0099H18.02L18.04 10.0105C18.683 10.0303 19.3026 10.2563 19.8074 10.655C20.3122 11.0538 20.6754 11.6043 20.8435 12.2252C21.0116 12.8462 20.9757 13.5047 20.741 14.1037C20.5062 14.7026 20.0852 15.2103 19.54 15.5517L19.5239 15.5618L19.5075 15.5714C18.7929 15.9904 18.1997 16.5882 17.7863 17.3061C17.3734 18.0232 17.1541 20.6355 17.15 21.463V21.5H18.85Z"/>
  <circle stroke="currentColor" cx="17.5" cy="18.5" r="15.25" stroke-width="2.5" stroke-linejoin="bevel" stroke-dasharray="4 4"/>
</svg>
