<?xml version="1.0"?>
<svg version="1.1" xmlns="http://www.w3.org/2000/svg" viewBox="0 0 36 36" fill="none">
  <g>
    <path d="M21.917 30.767c4.862 0 7.427-3.062 7.427-6.89 0-3.216-2.182-5.858-4.9-6.28 2.412-.497 4.402-2.64 4.402-5.857 0-3.407-2.488-6.508-7.35-6.508H10.793A2.735 2.735 0 0 0 8.06 7.967v20.066a2.734 2.734 0 0 0 2.734 2.734h11.124ZM20.31 15.492h-5.72c-.604 0-1.094-.49-1.094-1.094v-3.44c0-.604.49-1.093 1.094-1.093h5.72c1.838 0 2.986 1.225 2.986 2.794 0 1.646-1.148 2.833-2.986 2.833Zm.192 10.643h-5.912c-.604 0-1.094-.49-1.094-1.094v-3.823c0-.604.49-1.093 1.094-1.093H20.5c2.144 0 3.292 1.378 3.292 2.985 0 1.838-1.225 3.025-3.292 3.025Z"/>
  </g>
</svg>
