<?xml version="1.0"?>
<svg viewBox="0 0 58 56" fill="none">
  <path d="M57.9352 24.5887C57.8463 24.233 57.8463 23.8774 57.6684 23.5217C57.4017 22.8993 57.046 22.4547 56.5125 22.0101L49.577 16.4083V10.9844C49.577 8.85041 47.8876 7.16098 45.7536 7.16098H38.1956L31.5269 1.73706C30.1042 0.581137 28.0591 0.581137 26.6364 1.73706L19.9677 7.16098H12.4097C10.2757 7.16098 8.58631 8.93932 8.58631 10.9844V16.4083L1.56188 22.0101C1.02838 22.3658 0.672713 22.8993 0.405962 23.5217V23.6106C0.228128 24.1441 0.050293 24.5887 0.050293 25.1222V52.1529C0.050293 53.2199 0.494878 54.1091 1.1173 54.8204C1.82863 55.5318 2.80672 55.8874 3.7848 55.8874H54.0228C55.0898 55.8874 55.979 55.4428 56.6903 54.8204C57.4017 54.1091 57.7573 53.131 57.7573 52.1529V25.1222C57.9352 24.8554 57.9352 24.7665 57.9352 24.5887ZM49.577 19.7872L54.7342 23.9663L49.577 28.9456V19.7872ZM28.148 3.60431C28.4148 3.42648 28.6815 3.24864 28.9483 3.24864C29.3039 3.24864 29.5707 3.33756 29.7485 3.60431L34.0165 7.07207H23.9689L28.148 3.60431ZM10.9871 10.9844C10.9871 10.2731 11.5206 9.73958 12.2319 9.73958H45.6646C46.376 9.73958 46.9095 10.362 46.9095 10.9844V31.4353L46.8206 31.5242L40.2407 37.9262H17.6558L11.076 31.5242L10.9871 31.4353V10.9844ZM8.40848 19.7872V28.9456L3.34022 23.9663L8.40848 19.7872ZM2.62888 51.6194V26.9005L15.2551 39.26L2.62888 51.6194ZM4.49614 53.3088L17.6558 40.5048H40.2407L53.4004 53.3088H4.49614ZM55.3566 51.6194L42.6415 39.1711L55.2677 26.8116V51.6194H55.3566ZM29.0372 35.3476C30.5488 35.3476 31.9715 35.0809 33.3941 34.5474C34.0165 34.2806 34.3722 33.4804 34.1055 32.858C33.8387 32.2355 33.0385 31.8799 32.416 32.1466C31.349 32.5912 30.1931 32.769 29.0372 32.769C27.3478 32.769 25.7473 32.3245 24.4135 31.5242C21.746 29.9237 20.0566 27.0784 20.0566 23.7884C20.0566 18.8091 24.0579 14.8078 29.0372 14.8078C34.0165 14.8078 38.0178 18.8091 38.0178 23.7884V24.4109C38.0178 25.4779 37.2175 26.367 36.0616 26.367C34.9946 26.367 34.1055 25.4779 34.1055 24.4109V23.7884C34.1055 20.9431 31.7936 18.6313 28.9483 18.6313C26.1029 18.6313 23.7911 20.9431 23.7911 23.7884C23.7911 26.6338 26.1029 28.9456 28.9483 28.9456C30.3709 28.9456 31.7047 28.3232 32.5939 27.434C33.3941 28.4121 34.639 28.9456 35.9727 28.9456C38.4624 28.9456 40.5075 26.9894 40.5075 24.4109V23.7884C40.5075 17.3864 35.2614 12.2292 28.9483 12.2292C22.6352 12.2292 17.3891 17.4753 17.3891 23.7884C17.3891 26.7227 18.545 29.4791 20.3233 31.5242C22.5463 33.925 25.5694 35.3476 29.0372 35.3476ZM29.0372 26.367C27.6145 26.367 26.4586 25.2111 26.4586 23.7884C26.4586 22.3658 27.6145 21.2098 29.0372 21.2098C30.4599 21.2098 31.6158 22.3658 31.6158 23.7884C31.5269 25.2111 30.371 26.367 29.0372 26.367Z" fill="#1A99FF"/>
</svg>
