<?xml version="1.0"?>
<svg xmlns="http://www.w3.org/2000/svg" viewBox="0 0 36 39" fill="none">
  <path fill="white" d="M22.5 27C22.5 33.2132 17.4632 38.25 11.25 38.25C5.0368 38.25 0 33.2132 0 27C0 20.7868 5.0368 15.75 11.25 15.75C17.4632 15.75 22.5 20.7868 22.5 27ZM14.6564 32.989H17.55L12.6364 20.25H9.943L5.17499 32.989H7.95936L8.7965 30.514H13.7829L14.6564 32.989ZM9.52444 28.3847L11.2715 23.2892L13.055 28.3847H9.52444Z"/>
  <path fill="white" d="M36 9C36 13.9706 31.9706 18 27 18C22.0294 18 18 13.9706 18 9C18 4.02944 22.0294 0 27 0C31.9706 0 36 4.02944 36 9ZM29.6095 9.42616C29.3692 9.10553 29.0221 8.87753 28.5682 8.74216C28.8953 8.56403 29.1389 8.33247 29.2991 8.04746C29.466 7.75534 29.5495 7.43827 29.5495 7.09627C29.5495 6.50489 29.3525 6.04889 28.9587 5.72826C28.5648 5.40051 27.9741 5.23663 27.1863 5.23663H24.7331V12.7179H27.4667C28.2277 12.7179 28.8352 12.5362 29.2891 12.1729C29.7431 11.8024 29.97 11.2787 29.97 10.6018C29.97 10.1315 29.8499 9.73966 29.6095 9.42616ZM26.0048 8.43222V6.35883H27.0562C27.8839 6.35883 28.2978 6.68658 28.2978 7.34208C28.2978 7.68409 28.191 7.95128 27.9774 8.14365C27.7638 8.33603 27.4667 8.43222 27.0862 8.43222H26.0048ZM28.3078 11.3072C28.0875 11.5067 27.7604 11.6064 27.3265 11.6064H26.0048V9.42616H27.3666C28.2144 9.42616 28.6383 9.78954 28.6383 10.5163C28.6383 10.844 28.5281 11.1077 28.3078 11.3072Z" fill-opacity="0.65"/>
</svg>
