<?xml version="1.0"?>
<svg width="36" height="36" viewBox="0 0 36 36" fill="none" xmlns="http://www.w3.org/2000/svg">
  <path opacity="0.5" fill-rule="evenodd" clip-rule="evenodd" d="M22.6834 4.37074C21.1496 3.84367 19.5035 3.5575 17.7904 3.5575C9.89723 3.5575 3.43078 9.63322 2.81641 17.3542L10.8698 20.6785C11.5521 20.2126 12.3764 19.9405 13.2634 19.9405C13.3429 19.9405 13.422 19.9424 13.5004 19.9467L17.0822 14.7648L17.0821 14.7408L17.0819 14.728C17.0818 14.7159 17.0816 14.7038 17.0816 14.6917C17.0816 11.5724 19.6234 9.03435 22.7483 9.03435C22.9585 9.03435 23.1661 9.04584 23.3704 9.06821L22.6834 4.37074ZM23.6577 11.0324C23.3664 10.9603 23.0618 10.922 22.7485 10.922C20.6666 10.922 18.9723 12.6129 18.9723 14.6913C18.9723 16.7697 20.6665 18.4602 22.7485 18.4602C22.9344 18.4602 23.1172 18.4468 23.2959 18.4207C23.1997 18.1219 23.1234 17.8141 23.0685 17.499C22.9655 17.5103 22.8608 17.5161 22.7548 17.5161C21.1884 17.516 19.9182 16.2487 19.9182 14.6848C19.9182 13.1209 21.1884 11.8535 22.7548 11.8535C23.1266 11.8535 23.4818 11.9249 23.8072 12.0548L23.6577 11.0324ZM24.1529 20.1731C25.3892 21.9896 27.4735 23.1825 29.8364 23.1825C30.6742 23.1825 31.4769 23.0325 32.2193 22.758C30.3996 28.9977 24.6284 33.5575 17.7904 33.5575C10.9118 33.5575 5.11716 28.9419 3.33396 22.6456L9.09326 25.0226C9.48336 26.9653 11.2049 28.4324 13.2634 28.4324C15.6087 28.4324 17.5168 26.5278 17.5168 24.1862C17.5168 24.119 17.5145 24.0518 17.5118 23.985L22.6199 20.3464C22.6627 20.3478 22.7051 20.349 22.7483 20.349C23.233 20.349 23.7036 20.2879 24.1529 20.1731ZM32.3929 15.0069C32.393 15.007 32.393 15.0071 32.393 15.0073C31.972 14.1842 31.1651 13.5911 30.2109 13.4667C30.9292 13.5603 31.564 13.9195 32.0136 14.4425C32.1612 14.6142 32.2888 14.8035 32.3929 15.0069ZM32.6911 16.6113C32.5516 17.9595 31.4788 19.0307 30.1299 19.1677C31.4789 19.0306 32.5517 17.9592 32.691 16.6108C32.691 16.611 32.691 16.6111 32.6911 16.6113ZM10.3868 25.5564L12.2327 26.3173C13.4307 26.8161 14.807 26.2505 15.3058 25.0545C15.8048 23.8588 15.2386 22.4855 14.0405 21.9871L12.1334 21.1997C12.869 20.9231 13.7054 20.9113 14.4862 21.2353C15.2734 21.5629 15.8855 22.1771 16.2098 22.9639C16.535 23.7504 16.5326 24.6171 16.2048 25.4021C15.528 27.024 13.6552 27.7938 12.0313 27.1183C11.2797 26.8053 10.7141 26.2366 10.3868 25.5564Z" fill="white"/>
  <path d="M27.6138 10.4425L26.4438 2.4425H33.1838L32.0538 10.4425H27.6138Z" fill="#FFC82C"/>
  <path d="M29.8363 19.1825C31.4214 19.1825 32.7063 17.8976 32.7063 16.3125C32.7063 14.7274 31.4214 13.4425 29.8363 13.4425C28.2513 13.4425 26.9663 14.7274 26.9663 16.3125C26.9663 17.8976 28.2513 19.1825 29.8363 19.1825Z" fill="#FFC82C"/>
</svg>
