<?xml version="1.0"?>
<svg xmlns="http://www.w3.org/2000/svg" viewBox="0 0 36 36" fill="none">
  <path fill="currentColor" d="M11 9H29V19H26.6585C26.8797 19.6256 27 20.2987 27 21C27 21.3407 26.9716 21.6748 26.917 22H32V6H8V15.083C8.32521 15.0284 8.65929 15 9 15C9.70126 15 10.3744 15.1203 11 15.3415V9Z"/>
  <path fill="currentColor" d="M9 24C10.6569 24 12 22.6569 12 21C12 19.3431 10.6569 18 9 18C7.34315 18 6 19.3431 6 21C6 22.6569 7.34315 24 9 24Z"/>
  <path fill="currentColor" d="M21 24C22.6569 24 24 22.6569 24 21C24 19.3431 22.6569 18 21 18C19.3431 18 18 19.3431 18 21C18 22.6569 19.3431 24 21 24Z"/>
  <path fill="currentColor" d="M26 30C26 27.2386 23.7614 25 21 25C18.2386 25 16 27.2386 16 30V32H26V30Z"/>
  <path fill="currentColor" d="M14 30C14 27.2386 11.7614 25 9 25C6.23858 25 4 27.2386 4 30V32H14V30Z"/>
</svg>
