<?xml version="1.0"?>
<svg width="36" height="36" viewBox="0 0 36 36" fill="none" xmlns="http://www.w3.org/2000/svg">
  <path d="M18 4.15002C16.4087 4.15002 14.8826 4.78217 13.7574 5.90738C12.6321 7.0326 12 8.55872 12 10.15H24C24 8.55872 23.3679 7.0326 22.2426 5.90738C21.1174 4.78217 19.5913 4.15002 18 4.15002Z" fill="currentColor"/>
  <path d="M34 22.7V19.7H26V17.7L31 15.1V11.15L25.25 14.15H10.75L5 11.15V15.08L10 17.68V19.68H2V22.68H10V24.6L5 27.2V31.13L10.61 28.2C11.2158 29.6612 12.2412 30.91 13.5566 31.7886C14.8719 32.6671 16.4182 33.1361 18 33.1361C19.5818 33.1361 21.1281 32.6671 22.4434 31.7886C23.7588 30.91 24.7842 29.6612 25.39 28.2L31 31.15V27.22L26 24.62V22.7H34Z" fill="currentColor"/>
</svg>
