<?xml version="1.0"?>
<svg xmlns="http://www.w3.org/2000/svg" width="682" height="658" viewBox="0 0 682 658" fill="none">
  <path onClick="" stroke="currentColor" d="M389.916 229.976C389.916 229.976 403.045 193.408 389.429 137C389.429 137 377 137 377 148.651C377 160.322 377.389 208.327 377.389 219.998C377.389 231.668 389.916 229.976 389.916 229.976Z" stroke-width="5.83533" stroke-miterlimit="10"/>
  <path onClick="" stroke="currentColor" d="M389.897 490.64C389.897 490.64 403.532 455.609 389.916 399.201C389.916 399.201 377.584 398.15 377.584 409.821C377.584 421.492 377.973 469.497 377.973 481.168C377.973 492.838 389.897 490.64 389.897 490.64Z" stroke-width="5.83533" stroke-miterlimit="10"/>
  <path onClick="" stroke="currentColor" d="M292.047 397.829C292.047 397.829 278.917 434.397 292.533 490.805C292.533 490.805 304.962 490.805 304.962 479.154C304.962 467.483 304.573 419.478 304.573 407.807C304.573 396.136 292.047 397.829 292.047 397.829Z" stroke-width="5.83533" stroke-miterlimit="10"/>
  <path onClick="" stroke="currentColor" d="M292.066 137.165C292.066 137.165 278.431 172.196 292.046 228.604C292.046 228.604 304.378 229.654 304.378 217.984C304.378 206.313 303.989 158.308 303.989 146.637C303.989 134.967 292.066 137.165 292.066 137.165Z" stroke-width="5.83533" stroke-miterlimit="10"/>
  <path onClick="" stroke="currentColor" d="M507.912 11.3798C507.912 11.3798 504.995 5.5445 512.775 5.5445H549.946C549.946 5.5445 588.634 3.59939 627.537 32.776C666.439 61.9527 674.219 89.1843 674.219 89.1843C674.219 89.1843 677.098 93.3468 669.823 95.1558C662.549 96.9647 658.658 34.7212 507.912 11.3798V11.3798Z" stroke-width="3.89022" stroke-miterlimit="10"/>
  <path onClick="" stroke="currentColor" d="M175.201 11.1269C175.201 11.1269 178.119 5.29157 170.338 5.29157H133.167C133.167 5.29157 94.4788 3.34646 55.5766 32.5231C16.6744 61.6998 8.89391 88.9313 8.89391 88.9313C8.89391 88.9313 6.01514 93.0939 13.2899 94.9028C20.5646 96.7118 24.4548 34.4682 175.201 11.1269Z" stroke-width="3.89022" stroke-miterlimit="10"/>
  <path stroke="currentColor" d="M405.813 622.477L397.877 625.453C397.877 625.453 390.797 626.017 396.633 635.742C396.633 635.742 397.877 639.827 406.864 639.827C415.85 639.827 424.856 641.364 424.856 641.364" stroke-width="3.89022" stroke-miterlimit="10"/>
  <path stroke="currentColor" d="M276.657 620.569L284.593 623.545C284.593 623.545 291.674 624.109 285.838 633.835C285.838 633.835 284.593 637.92 275.607 637.92C266.621 637.92 257.615 639.456 257.615 639.456" stroke-width="3.89022" stroke-miterlimit="10"/>
  <path stroke="currentColor" d="M391.069 133.979C404.685 190.388 390.66 231.138 390.66 231.138L388.715 320.613" stroke-width="3" stroke-miterlimit="10"/>
  <path stroke="currentColor" d="M390.525 233.161V397.523C404.14 453.931 390.525 492.834 390.525 492.834L388.58 582.309C388.58 631.909 458.837 668.769 448.878 645.525C443.043 631.909 466.384 629.964 466.384 629.964L466.968 630.139L468.329 25.0344V17.254C468.329 17.254 468.329 11.4186 460.549 13.3638C452.768 15.3089 392.47 23.0893 388.58 87.278L389.727 136.976" stroke-width="3" stroke-miterlimit="10"/>
  <path stroke="currentColor" d="M468.348 650.271C468.99 653.091 476.129 654.161 476.129 654.161H548.098C651.189 648.326 678.42 558.85 678.42 521.893C678.42 432.399 678.42 173.719 678.42 173.719C678.42 143.472 676.981 114.996 668.17 94.1052C675.444 92.2962 672.566 88.1337 672.566 88.1337C672.566 88.1337 664.785 60.9021 625.883 31.7255C586.981 2.5488 548.292 4.49391 548.292 4.49391C548.292 4.49391 518.843 3.54081 511.121 4.49391C503.983 5.36921 506.492 10.9711 507.873 11.2045C495.852 10.9128 486.496 10.446 478.054 10.3292C469.788 10.2125 468.562 15.017 468.368 16.4758C468.368 16.4758 468.368 9.53175 460.587 11.4769C452.807 13.422 392.509 21.2024 388.618 85.3911C388.618 85.3911 389.007 135.166 389.591 137.287C389.591 137.287 377.162 137.287 377.162 148.938C377.162 160.608 377.551 208.614 377.551 220.284C377.551 231.955 390.077 230.263 390.077 230.263C389.98 230.691 389.727 397.912 390.077 399.488C390.077 399.488 377.745 398.437 377.745 410.108C377.745 421.779 378.134 469.784 378.134 481.455C378.134 493.125 390.058 490.927 390.058 490.927L388.599 580.441C390.058 617.359 417.289 634.865 423.125 640.701C438.997 652.508 453.274 655.95 448.411 644.591C442.576 630.975 465.917 629.03 465.917 629.03C465.917 629.03 466.773 643.521 468.31 650.29L468.348 650.271Z" stroke-width="5.83533" stroke-miterlimit="10"/>
  <path stroke="currentColor" d="M290.351 132.892C276.735 189.3 290.76 230.05 290.76 230.05L292.705 319.525" stroke-width="3.89022" stroke-miterlimit="10"/>
  <path stroke="currentColor" d="M290.895 232.073V396.435C277.279 452.843 290.895 491.746 290.895 491.746L292.84 581.221C292.84 630.821 222.583 667.681 232.542 644.437C238.377 630.821 215.036 628.876 215.036 628.876L214.452 629.051L213.091 23.9465V16.1661C213.091 16.1661 213.091 10.3308 220.871 12.2759C228.652 14.221 288.95 22.0014 292.84 86.1901L291.693 135.888" stroke-width="3" stroke-miterlimit="10"/>
  <path stroke="currentColor" d="M213.072 649.2C212.43 652.021 205.291 653.091 205.291 653.091H133.322C30.2315 647.255 3 557.78 3 520.823C3 431.328 3 172.648 3 172.648C3 142.402 4.43938 113.925 13.2507 93.0348C5.97602 91.2259 8.85478 87.0634 8.85478 87.0634C8.85478 87.0634 16.6352 59.8318 55.5374 30.6552C94.4202 1.47849 133.108 3.4236 133.108 3.4236C133.108 3.4236 162.557 2.4705 170.28 3.4236C177.418 4.2989 174.909 9.90082 173.528 10.1342C185.549 9.84247 194.905 9.37564 203.346 9.25893C211.613 9.14223 212.839 13.9467 213.033 15.4055C213.033 15.4055 213.033 8.46144 220.813 10.4065C228.594 12.3517 288.892 20.1321 292.783 84.3208C292.783 84.3208 292.394 134.096 291.81 136.216C291.81 136.216 304.239 136.216 304.239 147.868C304.239 159.519 303.85 207.544 303.85 219.214C303.85 230.885 291.324 229.193 291.324 229.193C291.421 229.621 291.674 396.842 291.324 398.417C291.324 398.417 303.656 397.367 303.656 409.038C303.656 420.708 303.267 468.714 303.267 480.384C303.267 492.055 291.343 489.857 291.343 489.857L292.802 579.371C291.343 616.289 264.112 633.795 258.276 639.63C242.404 651.437 228.127 654.88 232.99 643.521C238.825 629.905 215.484 627.96 215.484 627.96C215.484 627.96 214.628 642.451 213.091 649.22L213.072 649.2Z" stroke-width="5.83533" stroke-miterlimit="10"/>
  <path stroke="currentColor" d="M163.297 454.574H138.983C135.761 454.574 133.148 457.187 133.148 460.41V484.723C133.148 487.946 135.761 490.559 138.983 490.559H163.297C166.52 490.559 169.132 487.946 169.132 484.723V460.41C169.132 457.187 166.52 454.574 163.297 454.574Z" stroke-width="3" stroke-miterlimit="10"/>
  <path stroke="currentColor" d="M151.14 486.065C158.596 486.065 164.639 480.021 164.639 472.565C164.639 465.11 158.596 459.066 151.14 459.066C143.685 459.066 137.641 465.11 137.641 472.565C137.641 480.021 143.685 486.065 151.14 486.065Z" stroke-width="1.94511" stroke-miterlimit="10"/>
  <path stroke="currentColor" d="M533.646 491.22C543.4 491.22 551.308 483.312 551.308 473.558C551.308 463.804 543.4 455.896 533.646 455.896C523.892 455.896 515.984 463.804 515.984 473.558C515.984 483.312 523.892 491.22 533.646 491.22Z" stroke-width="3" stroke-miterlimit="10"/>
  <path stroke="currentColor" d="M540.707 469.648H526.585V482.233H540.707V469.648Z" stroke-width="2" stroke-miterlimit="10"/>
  <path fill="currentColor" d="M533.645 470.619H523.044L528.355 466.379L533.645 462.158L538.936 466.379L544.227 470.619H533.645Z"/>
  <path fill="currentColor" d="M534.735 474.55H532.518C531.981 474.55 531.545 474.985 531.545 475.522V477.74C531.545 478.277 531.981 478.712 532.518 478.712H534.735C535.272 478.712 535.708 478.277 535.708 477.74V475.522C535.708 474.985 535.272 474.55 534.735 474.55Z"/>
  <path onClick="" stroke="currentColor" d="M520.497 70.3563H509.177V59.0358C509.177 58.4717 508.71 58.0049 508.146 58.0049H499.898C499.334 58.0049 498.868 58.4717 498.868 59.0358V70.3563H487.547C486.983 70.3563 486.516 70.8232 486.516 71.3872V79.6345C486.516 80.1986 486.983 80.6654 487.547 80.6654H498.868V91.986C498.868 92.55 499.334 93.0169 499.898 93.0169H508.146C508.71 93.0169 509.177 92.55 509.177 91.986V80.6654H520.497C521.061 80.6654 521.528 80.1986 521.528 79.6345V71.3872C521.528 70.8232 521.061 70.3563 520.497 70.3563Z" stroke-width="3" stroke-miterlimit="10"/>
  <path fill="currentColor" d="M457.378 70.6865H446.738V60.0468C446.738 59.5216 446.31 59.0742 445.765 59.0742H438.043C437.518 59.0742 437.071 59.5021 437.071 60.0468V70.6865H426.431C425.906 70.6865 425.458 71.1145 425.458 71.6591V79.3812C425.458 79.9064 425.886 80.3537 426.431 80.3537H437.071V90.9935C437.071 91.5187 437.499 91.966 438.043 91.966H445.765C446.291 91.966 446.738 91.5381 446.738 90.9935V80.3537H457.378C457.903 80.3537 458.35 79.9258 458.35 79.3812V71.6591C458.35 71.1339 457.922 70.6865 457.378 70.6865Z"/>
  <path onClick="" stroke="currentColor" d="M164.522 69.3057H175.842H186.132H197.452C198.016 69.3057 198.483 69.7725 198.483 70.3366V78.5838C198.483 79.1479 198.016 79.6147 197.452 79.6147H186.132H175.842H164.522C163.958 79.6147 163.491 79.1479 163.491 78.5838V70.3366C163.491 69.7725 163.958 69.3057 164.522 69.3057V69.3057Z" stroke-width="3" stroke-miterlimit="10"/>
  <path fill="currentColor" d="M225.462 70.0254H236.783H247.072H258.393C258.957 70.0254 259.424 70.4922 259.424 71.0563V79.3036C259.424 79.8677 258.957 80.3345 258.393 80.3345H247.072H236.783H225.462C224.898 80.3345 224.431 79.8677 224.431 79.3036V71.0563C224.431 70.4922 224.898 70.0254 225.462 70.0254Z"/>
  <path onClick="" stroke="currentColor" d="M117.198 326.081C129.39 326.081 139.275 316.197 139.275 304.004C139.275 291.811 129.39 281.927 117.198 281.927C105.005 281.927 95.1206 291.811 95.1206 304.004C95.1206 316.197 105.005 326.081 117.198 326.081Z" stroke-width="3.89022" stroke-miterlimit="10"/>
  <path onClick="" stroke="currentColor" d="M66.4886 374.475C78.6814 374.475 88.5656 364.591 88.5656 352.398C88.5656 340.206 78.6814 330.321 66.4886 330.321C54.2958 330.321 44.4116 340.206 44.4116 352.398C44.4116 364.591 54.2958 374.475 66.4886 374.475Z" stroke-width="3.89022" stroke-miterlimit="10"/>
  <path onClick="" stroke="currentColor" d="M167.323 374.979C179.515 374.979 189.4 365.095 189.4 352.902C189.4 340.709 179.515 330.825 167.323 330.825C155.13 330.825 145.246 340.709 145.246 352.902C145.246 365.095 155.13 374.979 167.323 374.979Z" stroke-width="3.89022" stroke-miterlimit="10"/>
  <path onClick="" stroke="currentColor" d="M116.536 422.576C128.729 422.576 138.613 412.692 138.613 400.499C138.613 388.306 128.729 378.422 116.536 378.422C104.344 378.422 94.4595 388.306 94.4595 400.499C94.4595 412.692 104.344 422.576 116.536 422.576Z" stroke-width="3.89022" stroke-miterlimit="10"/>
  <path fill="currentColor" d="M117.198 295.25L121.127 302.058L125.056 308.866H117.198H109.339L113.268 302.058L117.198 295.25Z"/>
  <path fill="currentColor" d="M116.536 409.253L112.607 402.446L108.678 395.638H116.536H124.395L120.466 402.446L116.536 409.253Z"/>
  <path fill="currentColor" d="M176.913 352.902L170.105 356.831L163.297 360.76V352.902V345.044L170.105 348.973L176.913 352.902Z"/>
  <path fill="currentColor" d="M56.3159 352.396L63.1238 348.467L69.9317 344.538V352.396V360.274L63.1238 356.345L56.3159 352.396Z"/>
  <path onClick="" stroke="currentColor" d="M567.86 148.686C580.053 148.686 589.937 138.802 589.937 126.609C589.937 114.416 580.053 104.532 567.86 104.532C555.667 104.532 545.783 114.416 545.783 126.609C545.783 138.802 555.667 148.686 567.86 148.686Z" stroke-width="3.89022" stroke-miterlimit="10"/>
  <path onClick="" stroke="currentColor" d="M617.928 196.575C630.12 196.575 640.005 186.691 640.005 174.498C640.005 162.305 630.12 152.421 617.928 152.421C605.735 152.421 595.851 162.305 595.851 174.498C595.851 186.691 605.735 196.575 617.928 196.575Z" stroke-width="3.89022" stroke-miterlimit="10"/>
  <path onClick="" stroke="currentColor" d="M516.86 196.575C529.052 196.575 538.937 186.691 538.937 174.498C538.937 162.305 529.052 152.421 516.86 152.421C504.667 152.421 494.783 162.305 494.783 174.498C494.783 186.691 504.667 196.575 516.86 196.575Z" stroke-width="3.89022" stroke-miterlimit="10"/>
  <path onClick="" stroke="currentColor" d="M567.86 243.296C580.053 243.296 589.937 233.411 589.937 221.219C589.937 209.026 580.053 199.142 567.86 199.142C555.667 199.142 545.783 209.026 545.783 221.219C545.783 233.411 555.667 243.296 567.86 243.296Z" stroke-width="3.89022" stroke-miterlimit="10"/>
  <path fill="currentColor" d="M562.355 230.127V212.349H567.841C568.949 212.349 569.825 212.524 570.486 212.874C571.128 213.224 571.673 213.749 572.081 214.488C572.489 215.208 572.703 216.025 572.703 216.9C572.703 217.717 572.528 218.456 572.178 219.098C571.828 219.74 571.322 220.285 570.681 220.674C571.517 220.985 572.198 221.51 572.684 222.249C573.17 222.988 573.423 223.903 573.423 224.992C573.423 226.081 573.209 227.015 572.762 227.832C572.314 228.649 571.731 229.232 570.992 229.602C570.253 229.971 569.241 230.146 567.957 230.146H562.394L562.355 230.127ZM564.281 219.818H567.452C568.288 219.818 568.872 219.76 569.222 219.643C569.727 219.468 570.116 219.195 570.389 218.787C570.661 218.378 570.797 217.853 570.797 217.153C570.797 216.511 570.681 215.986 570.428 215.558C570.175 215.13 569.844 214.838 569.436 214.683C569.027 214.527 568.288 214.449 567.238 214.449H564.301V219.818H564.281ZM564.281 228.026H567.918C568.716 228.026 569.319 227.948 569.689 227.812C570.233 227.598 570.661 227.248 570.953 226.781C571.245 226.295 571.381 225.692 571.381 224.972C571.381 224.292 571.245 223.728 570.972 223.261C570.7 222.794 570.33 222.463 569.864 222.249C569.397 222.035 568.658 221.919 567.666 221.919H564.281V228.026V228.026Z"/>
  <path fill="currentColor" d="M561.189 135.518L566.849 126.24L561.87 117.721H564.165L566.83 122.272C567.374 123.206 567.763 123.945 567.997 124.47C568.308 123.828 568.697 123.167 569.144 122.447L572.101 117.721H574.182L569.067 126.085L574.571 135.499H572.198L568.522 129.158C568.308 128.808 568.114 128.399 567.9 127.971C567.569 128.613 567.335 129.061 567.18 129.294L563.523 135.499H561.208L561.189 135.518Z"/>
  <path fill="currentColor" d="M611.101 183.386L616.722 165.607H618.784L624.755 183.386H622.538L620.846 177.998H614.718L613.123 183.386H611.081H611.101ZM615.283 176.072H620.243L618.725 171.151C618.258 169.634 617.908 168.408 617.694 167.455C617.5 168.603 617.247 169.731 616.897 170.859L615.283 176.072V176.072Z"/>
  <path fill="currentColor" d="M515.79 183.386V175.858L510.169 165.607H512.523L515.382 170.976C515.946 172.026 516.452 173.038 516.88 173.991C517.308 173.057 517.833 172.007 518.475 170.84L521.314 165.607H523.551L517.735 175.858V183.386H515.81H515.79Z"/>
  <path stroke="currentColor" d="M567.413 401.686C594.806 401.686 617.013 379.479 617.013 352.086C617.013 324.692 594.806 302.485 567.413 302.485C540.019 302.485 517.812 324.692 517.812 352.086C517.812 379.479 540.019 401.686 567.413 401.686Z" stroke-width="4" stroke-miterlimit="10"/>
  <path onClick="" style="" stroke="currentColor" d="M567.413 386.942C586.749 386.942 602.425 371.267 602.425 351.93C602.425 332.593 586.749 316.918 567.413 316.918C548.076 316.918 532.401 332.593 532.401 351.93C532.401 371.267 548.076 386.942 567.413 386.942Z" stroke-width="3" stroke-miterlimit="10"/>
  <path stroke="currentColor" d="M115.661 221.685C143.054 221.685 165.261 199.478 165.261 172.085C165.261 144.691 143.054 122.484 115.661 122.484C88.2674 122.484 66.0605 144.691 66.0605 172.085C66.0605 199.478 88.2674 221.685 115.661 221.685Z" stroke-width="4" stroke-miterlimit="10"/>
  <path onClick="" style="" stroke="currentColor" d="M115.661 206.941C134.998 206.941 150.673 191.266 150.673 171.929C150.673 152.592 134.998 136.917 115.661 136.917C96.3243 136.917 80.6489 152.592 80.6489 171.929C80.6489 191.266 96.3243 206.941 115.661 206.941Z" stroke-width="3" stroke-miterlimit="10"/>
</svg>
