<?xml version="1.0"?>
<svg xmlns="http://www.w3.org/2000/svg" viewBox="0 0 1280 500" fill="none">
  <path stroke="currentColor" d="M636.913 175.599C636.913 155.972 621.002 140.061 601.375 140.061H529.855C522.35 140.061 516.267 133.977 516.267 126.473C516.267 118.968 522.295 112.885 529.8 112.885C561.666 112.885 642.457 112.885 691.883 112.885C698.81 112.885 704.408 107.269 704.408 100.342C704.408 93.4149 698.792 87.7993 691.865 87.7993H530.9C522.818 87.7993 516.267 81.2478 516.267 73.1661C516.267 65.0844 522.818 58.5329 530.9 58.5329H691.865C698.792 58.5329 704.408 52.9173 704.408 45.9901C704.408 39.0629 698.845 33.4473 691.918 33.4473C672.2 33.4473 633.117 33.4473 604.05 33.4473C585.578 33.4473 570.619 18.4725 570.619 0" stroke-width="8.36184"/>
  <rect fill="currentColor" x="545.532" width="50.171" height="12.5428"/>
  <rect fill="currentColor" x="629.151" y="175.599" width="16.7237" height="16.7237"/>
  <path fill="currentColor" d="M630.063 234.1L629.759 230.181L636.408 233.054L633.922 235.75L630.063 234.1Z"/>
  <path fill="currentColor" d="M643.912 224C646.14 224 647.948 225.88 647.948 228.195C647.948 230.51 646.139 232.389 643.912 232.39H643.821L640.18 235.09V235.234C640.18 236.969 638.823 238.387 637.146 238.387C635.683 238.387 634.451 237.302 634.18 235.858L630.077 234.099L635.453 232.638C635.938 232.287 636.531 232.091 637.155 232.091H637.327L639.876 228.246C639.876 228.246 639.876 228.213 639.876 228.195C639.876 225.88 641.684 224 643.912 224ZM638.032 233.047C637.473 232.808 636.881 232.816 636.354 233.021L637.711 233.603C638.566 233.97 638.969 234.986 638.615 235.875C638.262 236.763 637.275 237.182 636.429 236.814H636.421L635.105 236.251C635.336 236.755 635.739 237.174 636.281 237.413C637.44 237.917 638.772 237.344 639.257 236.14C639.487 235.559 639.495 234.918 639.257 234.328C639.027 233.747 638.591 233.286 638.032 233.047ZM643.92 225.401C642.441 225.402 641.233 226.657 641.232 228.194C641.232 229.732 642.441 230.988 643.92 230.988C645.4 230.988 646.608 229.732 646.608 228.194C646.608 226.657 645.399 225.401 643.92 225.401ZM643.92 226.085C645.038 226.085 645.942 227.025 645.942 228.187C645.942 229.348 645.038 230.288 643.92 230.288C642.802 230.288 641.899 229.348 641.898 228.187C641.898 227.025 642.802 226.085 643.92 226.085Z"/>
  <path fill="currentColor" d="M706.896 183.815C709.231 178.811 719.741 179.311 729.751 180.812C739.761 182.314 746.602 185.985 750.439 189.321C753.508 191.99 755.054 197.774 755.444 200.332C759.281 203.335 763.618 210.676 765.62 214.68C767.222 217.883 779.635 264.285 785.641 287.085C788.477 298.763 793.681 327.725 791.813 350.147C789.477 378.174 775.465 385.348 773.462 387.517C771.46 389.686 756.945 395.692 747.436 393.189C737.926 390.687 734.256 382.846 732.254 378.342C730.252 373.837 724.914 364.495 719.408 360.157C715.004 356.687 709.343 355.931 707.063 355.986H573.597C571.061 355.986 568.202 356.431 567.09 356.653C558.415 358.488 550.907 368.332 546.737 378.008C542.566 387.684 537.394 395.525 521.378 393.189C505.362 390.854 498.689 382.846 492.85 372.169C487.011 361.491 487.345 339.136 487.011 329.46C486.744 321.719 491.905 294.537 494.519 281.913L507.865 233.031C508.7 229.694 510.934 221.486 513.203 215.347C515.472 209.207 521.156 202.556 523.714 199.998C523.314 197.996 525.326 194.048 526.383 192.324C530.053 185.818 540.398 182.981 544.402 181.646C548.406 180.312 563.754 179.311 568.258 180.812C571.861 182.014 572.874 185.317 572.93 186.818L634.824 185.317L696.719 186.318L706.062 186.651L706.896 183.815ZM566.016 274.618C559.3 273.439 552.9 277.927 551.721 284.642L544.856 323.745C543.677 330.46 548.166 336.86 554.881 338.039L595.604 345.189C602.319 346.368 608.719 341.879 609.898 335.164L616.763 296.061C617.942 289.346 613.454 282.947 606.738 281.767L566.016 274.618ZM726.945 284.642C725.766 277.927 719.366 273.439 712.651 274.618L671.928 281.767C665.212 282.946 660.724 289.346 661.903 296.061L668.768 335.164C669.947 341.879 676.347 346.368 683.063 345.189L723.785 338.039C730.501 336.86 734.989 330.46 733.81 323.745L726.945 284.642ZM594.418 236.079C584.19 236.079 575.899 244.37 575.899 254.598C575.899 264.827 584.19 273.119 594.418 273.119C604.646 273.119 612.938 264.827 612.938 254.598C612.938 244.37 604.646 236.079 594.418 236.079ZM683.312 236.079C673.084 236.079 664.792 244.37 664.792 254.598C664.792 264.827 673.083 273.119 683.312 273.119C693.54 273.119 701.831 264.827 701.831 254.598C701.831 244.37 693.54 236.079 683.312 236.079ZM733.748 238.169C728.312 238.169 723.904 242.576 723.904 248.013C723.905 253.449 728.312 257.855 733.748 257.855C739.184 257.855 743.591 253.448 743.591 248.013C743.591 242.576 739.184 238.169 733.748 238.169ZM545.107 206.804C543.259 206.804 539.817 207.561 537.969 208.002C537.23 208.178 536.719 208.841 536.719 209.6V220.151C536.719 221.073 535.971 221.819 535.05 221.819H524.529C523.833 221.819 523.211 222.251 523.011 222.918C522.567 224.402 521.869 227.204 521.869 230.16C521.869 233.117 522.568 235.92 523.012 237.404C523.212 238.07 523.832 238.502 524.528 238.502H535.05C535.971 238.502 536.719 239.249 536.719 240.171V250.702C536.719 251.393 537.143 252.01 537.801 252.221C539.339 252.712 542.281 253.516 545.061 253.516C547.84 253.516 550.78 252.713 552.319 252.222C552.977 252.011 553.402 251.393 553.402 250.702V240.171C553.402 239.249 554.148 238.502 555.07 238.502H565.608C566.295 238.502 566.91 238.081 567.112 237.424C567.556 235.973 568.249 233.22 568.249 230.16C568.249 227.1 567.556 224.349 567.112 222.898C566.91 222.241 566.294 221.819 565.607 221.819H555.07C554.148 221.819 553.402 221.073 553.402 220.151V209.595C553.401 208.838 552.893 208.177 552.157 207.999C550.333 207.557 546.95 206.804 545.107 206.804ZM639.321 219.483C633.331 219.483 628.477 224.339 628.477 230.328C628.477 236.317 633.332 241.172 639.321 241.172C645.309 241.172 650.164 236.317 650.164 230.328C650.164 224.339 645.31 219.483 639.321 219.483ZM715.73 220.151C710.294 220.151 705.887 224.558 705.887 229.994C705.887 235.43 710.294 239.837 715.73 239.837C721.166 239.837 725.573 235.43 725.573 229.994C725.573 224.558 721.166 220.151 715.73 220.151ZM751.431 220.151C745.995 220.151 741.588 224.558 741.588 229.994C741.588 235.43 745.995 239.837 751.431 239.837C756.867 239.837 761.274 235.43 761.274 229.994C761.274 224.558 756.867 220.151 751.431 220.151ZM733.412 202.801C727.976 202.801 723.57 207.207 723.57 212.643C723.57 218.079 727.976 222.487 733.412 222.487C738.849 222.487 743.256 218.08 743.256 212.643C743.256 207.207 738.848 202.801 733.412 202.801Z"/>
  <path fill="currentColor" d="M681.509 345.362C681.335 345.371 681.163 345.374 680.99 345.375C681.163 345.374 681.335 345.371 681.509 345.362ZM713.422 278.995C717.719 278.241 721.815 281.114 722.569 285.411L729.435 324.513C730.189 328.81 727.317 332.906 723.02 333.661L682.297 340.812C677.999 341.566 673.902 338.693 673.147 334.396L666.283 295.293C665.529 290.995 668.401 286.899 672.699 286.145L713.422 278.995ZM669.443 337.559C669.582 337.91 669.735 338.253 669.903 338.587C669.735 338.253 669.582 337.91 669.443 337.559ZM725.742 337.528C725.602 337.577 725.462 337.625 725.319 337.669C725.462 337.625 725.602 337.577 725.742 337.528ZM669.141 336.695C669.185 336.839 669.233 336.982 669.282 337.123C669.233 336.982 669.185 336.839 669.141 336.695ZM733.912 327.344C734.051 326.174 734.026 324.964 733.812 323.744L726.946 284.643C726.844 284.06 726.702 283.495 726.524 282.948C726.702 283.495 726.845 284.059 726.947 284.642L733.812 323.744C734.027 324.964 734.051 326.174 733.912 327.344ZM661.812 292.397C661.787 292.591 661.768 292.786 661.753 292.981C661.768 292.786 661.787 292.591 661.812 292.397ZM726.282 282.269C726.138 281.901 725.978 281.543 725.802 281.195C725.978 281.543 726.138 281.901 726.282 282.269ZM671.312 281.892C671.285 281.898 671.258 281.904 671.231 281.91C671.257 281.904 671.282 281.898 671.308 281.893L671.312 281.892ZM712.652 274.617H712.653L671.931 281.767H671.93L712.652 274.617ZM668.747 282.781C668.901 282.708 669.057 282.638 669.215 282.57C669.057 282.638 668.901 282.708 668.747 282.781ZM725.575 280.772C725.648 280.904 725.721 281.036 725.789 281.17C725.721 281.036 725.648 280.904 725.575 280.772ZM670.29 282.172C670.332 282.159 670.373 282.144 670.415 282.131C670.373 282.144 670.332 282.159 670.29 282.172Z"/>
  <path fill="currentColor" d="M597.166 345.362C597.339 345.371 597.512 345.374 597.685 345.375C597.512 345.374 597.339 345.371 597.166 345.362ZM595.926 345.239C595.983 345.248 596.04 345.255 596.097 345.263C595.935 345.241 595.773 345.217 595.611 345.188L595.926 345.239ZM556.107 285.411C556.862 281.114 560.957 278.241 565.255 278.995L605.978 286.145C610.275 286.899 613.148 290.995 612.394 295.293L605.528 334.396C604.774 338.693 600.677 341.566 596.38 340.812L555.657 333.661C551.36 332.906 548.488 328.81 549.242 324.513L556.107 285.411ZM609.343 337.267C609.135 337.838 608.884 338.385 608.601 338.909C608.884 338.385 609.135 337.838 609.343 337.267ZM554.189 337.895C554.317 337.925 554.446 337.953 554.575 337.979C554.446 337.953 554.317 337.925 554.189 337.895ZM552.935 337.529C553.038 337.566 553.143 337.6 553.248 337.634C553.143 337.6 553.038 337.566 552.935 337.529ZM609.675 336.209C609.627 336.389 609.576 336.566 609.521 336.742C609.576 336.566 609.627 336.389 609.675 336.209ZM552.858 281.227C552.33 282.278 551.943 283.424 551.729 284.643L544.864 323.744C544.623 325.117 544.622 326.477 544.825 327.781C544.622 326.477 544.623 325.117 544.864 323.744L551.729 284.642C551.943 283.423 552.33 282.278 552.858 281.227ZM616.884 295.262C616.866 295.423 616.846 295.585 616.822 295.747C616.846 295.585 616.866 295.423 616.884 295.262ZM616.87 292.453C616.968 293.274 616.986 294.114 616.913 294.964C616.986 294.114 616.968 293.274 616.87 292.453ZM607.979 282.048C608.03 282.062 608.08 282.078 608.131 282.093C608.075 282.076 608.02 282.06 607.964 282.044L607.979 282.048ZM607.059 281.826C607.188 281.852 607.317 281.88 607.444 281.91C607.317 281.88 607.188 281.852 607.059 281.826ZM609.441 336.986C609.422 337.044 609.402 337.1 609.382 337.157C609.402 337.1 609.422 337.044 609.441 336.986ZM616.802 291.979C616.824 292.119 616.847 292.258 616.864 292.398C616.847 292.258 616.824 292.119 616.802 291.979Z"/>
  <circle fill="currentColor" cx="594.421" cy="254.6" r="14.0751"/>
  <circle fill="currentColor" cx="683.318" cy="254.598" r="14.0751"/>
</svg>
