<?xml version="1.0"?>
<svg xmlns="http://www.w3.org/2000/svg" viewBox="0 0 36 36" fill="none">
  <path fill="currentColor" fill-rule="evenodd" clip-rule="evenodd" d="M4.5 8.77962V8.17604C4.5 7.98797 4.59324 7.8129 4.75606 7.71875C5.29052 7.40971 6.58276 6.75 7.875 6.75C9.5625 6.75 9.5625 7.3125 9.5625 7.3125V7.79346C9.92732 7.74841 10.3079 7.7053 10.7038 7.66469L10.7001 7.66881C10.4768 7.91891 10.3639 8.22982 10.4289 8.58762L11.114 12.3555C11.3614 13.7163 10.9231 15.1154 9.99052 16.155C8.88458 17.3878 7.44481 19.1078 6.50883 20.6678C5.85918 21.7505 5.21964 23.4605 4.67636 25.1549C4.13086 26.8562 3.67463 28.5672 3.3961 29.6673C3.27268 30.1547 2.76181 30.4366 2.2902 30.2794L2.14425 30.2308C1.59878 29.9208 1.15999 29.4611 0.929107 28.8508C0.480791 27.6656 0 25.7647 0 23.0625C0 18 2.8125 9.5625 3.9375 9C4.07055 8.93348 4.25867 8.85908 4.5 8.77962ZM5.625 11.25C5.625 10.9393 5.87684 10.6875 6.1875 10.6875H7.3125C7.62316 10.6875 7.875 10.9393 7.875 11.25V12.142C7.875 12.2912 7.81574 12.4343 7.71025 12.5398L7.14775 13.1023C6.92808 13.3219 6.57192 13.3219 6.35225 13.1023L5.78975 12.5398C5.68426 12.4343 5.625 12.2912 5.625 12.142V11.25ZM5.625 16.3125C5.625 16.6232 5.87684 16.875 6.1875 16.875H7.3125C7.62316 16.875 7.875 16.6232 7.875 16.3125V15.4205C7.875 15.2713 7.81574 15.1282 7.71025 15.0227L7.14775 14.4602C6.92808 14.2406 6.57192 14.2406 6.35225 14.4602L5.78975 15.0227C5.68426 15.1282 5.625 15.2713 5.625 15.4205V16.3125ZM9.84375 14.3438C9.84375 14.6544 9.59191 14.9062 9.28125 14.9062H8.38924C8.24006 14.9062 8.09699 14.847 7.9915 14.7415L7.429 14.179C7.20933 13.9593 7.20933 13.6032 7.429 13.3835L7.9915 12.821C8.09699 12.7155 8.24006 12.6562 8.38925 12.6562H9.28125C9.59191 12.6562 9.84375 12.9081 9.84375 13.2188V14.3438ZM4.21875 14.9062C3.90809 14.9062 3.65625 14.6544 3.65625 14.3438V13.2188C3.65625 12.9081 3.90809 12.6562 4.21875 12.6562H5.11076C5.25994 12.6562 5.40301 12.7155 5.5085 12.821L6.071 13.3835C6.29067 13.6032 6.29067 13.9593 6.071 14.179L5.5085 14.7415C5.40301 14.847 5.25994 14.9062 5.11076 14.9062H4.21875ZM9.0297 9.05937C9.30756 8.92044 9.64544 9.03307 9.78437 9.31093L10.0656 9.87343C10.2046 10.1513 10.0919 10.4892 9.81406 10.6281C9.5362 10.767 9.19832 10.6544 9.05939 10.3765L8.77814 9.81404C8.63921 9.53618 8.75183 9.1983 9.0297 9.05937Z"/>
  <path fill="currentColor" d="M18 7.3125C15.7603 7.3125 13.748 7.4035 11.9892 7.54668C11.9209 7.57082 11.8551 7.59586 11.7919 7.62185C11.4768 7.75142 11.2526 7.89452 11.1197 8.04343C10.9961 8.18189 10.9523 8.32182 10.9824 8.48699L11.5138 11.4097L12.1573 13.5129C12.4103 14.3408 13.1744 14.9062 14.0401 14.9062H21.9642C22.8281 14.9062 23.591 14.3431 23.8456 13.5176L24.4729 11.483L25.0176 8.48699C25.0463 8.32909 25.0039 8.1935 24.8798 8.05684C24.7463 7.90988 24.5214 7.76808 24.2057 7.6392C24.1215 7.60486 24.0327 7.57213 23.9398 7.54094C22.1978 7.40107 20.2096 7.3125 18 7.3125Z"/>
  <path fill="currentColor" fill-rule="evenodd" clip-rule="evenodd" d="M3.37124 30.6556L3.34019 30.6503C3.62833 30.4606 3.84996 30.1665 3.94139 29.8054C4.2185 28.7109 4.67149 27.0124 5.212 25.3266C5.75474 23.6339 6.37801 21.9791 6.99117 20.9572C7.89825 19.4454 9.30802 17.7581 10.4092 16.5306C11.085 15.7773 11.5326 14.8493 11.6859 13.8677C12.0647 14.8275 12.9948 15.4687 14.0401 15.4687H21.9642C23.0065 15.4687 23.9345 14.8312 24.3153 13.8755C24.4698 14.8543 24.9168 15.7794 25.5908 16.5306C26.692 17.7581 28.1017 19.4454 29.0088 20.9572C29.622 21.9791 30.2453 23.6339 30.788 25.3266C31.3285 27.0124 31.7815 28.7109 32.0586 29.8054C32.15 30.1664 32.3717 30.4606 32.6598 30.6503L32.6288 30.6556C31.6413 30.8202 30.6725 30.275 30.3007 29.3455L28.4111 24.6216C27.8986 23.3402 26.6576 22.5 25.2775 22.5H10.7225C9.34243 22.5 8.10142 23.3402 7.58888 24.6216L5.69928 29.3455C5.3275 30.275 4.35868 30.8202 3.37124 30.6556ZM25.875 19.125C25.875 20.3676 24.8676 21.375 23.625 21.375C22.3824 21.375 21.375 20.3676 21.375 19.125C21.375 17.8824 22.3824 16.875 23.625 16.875C24.8676 16.875 25.875 17.8824 25.875 19.125ZM12.375 21.375C13.6176 21.375 14.625 20.3676 14.625 19.125C14.625 17.8824 13.6176 16.875 12.375 16.875C11.1324 16.875 10.125 17.8824 10.125 19.125C10.125 20.3676 11.1324 21.375 12.375 21.375Z"/>
  <path fill="currentColor" fill-rule="evenodd" clip-rule="evenodd" d="M33.7098 30.2794L33.8557 30.2308C34.4012 29.9208 34.84 29.4611 35.0709 28.8508C35.5192 27.6656 36 25.7647 36 23.0625C36 18 33.1875 9.5625 32.0625 9C31.9295 8.93348 31.7413 8.85908 31.5 8.77962V8.17604C31.5 7.98797 31.4068 7.8129 31.2439 7.71875C30.7095 7.40971 29.4172 6.75 28.125 6.75C26.4375 6.75 26.4375 7.3125 26.4375 7.3125V7.79346C26.0683 7.74787 25.683 7.70427 25.282 7.66324L25.2962 7.67864C25.52 7.92502 25.6356 8.23268 25.5711 8.58762L25.0274 11.5776L25.0319 11.579L25.0203 11.6166L24.886 12.3555C24.6386 13.7163 25.0769 15.1154 26.0095 16.155C27.1154 17.3878 28.5552 19.1078 29.4912 20.6678C30.1408 21.7505 30.7804 23.4605 31.3236 25.1549C31.8691 26.8562 32.3254 28.5672 32.6039 29.6673C32.7273 30.1547 33.2382 30.4366 33.7098 30.2794ZM26.2156 9.31093C26.3546 9.03307 26.6924 8.92044 26.9703 9.05937C27.2482 9.1983 27.3608 9.53618 27.2219 9.81404L26.9406 10.3765C26.8017 10.6544 26.4638 10.767 26.1859 10.6281C25.9081 10.4892 25.7954 10.1513 25.9344 9.87343L26.2156 9.31093ZM30.375 15.75C30.375 16.3713 29.8713 16.875 29.25 16.875C28.6287 16.875 28.125 16.3713 28.125 15.75C28.125 15.1287 28.6287 14.625 29.25 14.625C29.8713 14.625 30.375 15.1287 30.375 15.75ZM31.5 14.625C32.1213 14.625 32.625 14.1213 32.625 13.5C32.625 12.8787 32.1213 12.375 31.5 12.375C30.8787 12.375 30.375 12.8787 30.375 13.5C30.375 14.1213 30.8787 14.625 31.5 14.625ZM30.375 11.25C30.375 11.8713 29.8713 12.375 29.25 12.375C28.6287 12.375 28.125 11.8713 28.125 11.25C28.125 10.6287 28.6287 10.125 29.25 10.125C29.8713 10.125 30.375 10.6287 30.375 11.25ZM27 14.625C27.6213 14.625 28.125 14.1213 28.125 13.5C28.125 12.8787 27.6213 12.375 27 12.375C26.3787 12.375 25.875 12.8787 25.875 13.5C25.875 14.1213 26.3787 14.625 27 14.625Z"/>
</svg>
