<?xml version="1.0"?>
<svg width="24" height="24" viewBox="0 0 36 36" fill="none" xmlns="http://www.w3.org/2000/svg">
  <path fill-rule="evenodd" clip-rule="evenodd" d="M4.16683 8.982C4.10732 8.3908 3.83847 7.42693 4.15486 7.17995C4.46877 6.93489 4.7797 6.90487 5.90123 7.31306L31.1931 17.2282C32.2693 17.6503 32.2686 18.335 31.1931 18.7564L5.90123 28.6715C4.77972 29.1235 4.46864 29.0497 4.15487 28.8049C3.83836 28.5579 4.0953 27.5939 4.15484 27.0028L4.7797 21.2151C4.89862 20.0374 5.92644 18.9801 7.0706 18.854L15.467 18.4429C24.1686 17.9924 24.1686 17.9924 15.467 17.5419L7.0706 17.1313C5.92423 17.0053 4.89825 15.9476 4.7797 14.7706L4.16683 8.982Z" fill="currentColor"/>
</svg>
