<?xml version="1.0"?>
<svg width="36" height="36" viewBox="0 0 36 36" fill="none" xmlns="http://www.w3.org/2000/svg">
  <path d="M5.5 7C5.5 6.20888 5.7346 5.43552 6.17412 4.77772C6.61365 4.11992 7.23836 3.60723 7.96927 3.30448C8.70017 3.00173 9.50444 2.92252 10.2804 3.07686C11.0563 3.2312 11.769 3.61216 12.3284 4.17157C12.8878 4.73098 13.2688 5.44372 13.4231 6.21964C13.5775 6.99556 13.4983 7.79983 13.1955 8.53074C12.8928 9.26164 12.3801 9.88635 11.7223 10.3259C11.0645 10.7654 10.2911 11 9.5 11C8.43913 11 7.42172 10.5786 6.67157 9.82843C5.92143 9.07828 5.5 8.06087 5.5 7ZM9.5 14C7.51088 14 5.60322 14.7902 4.1967 16.1967C2.79018 17.6032 2 19.5109 2 21.5V26H5.2L6 35H13L13.8 26H17V21.5C17 19.5109 16.2098 17.6032 14.8033 16.1967C13.3968 14.7902 11.4891 14 9.5 14Z" fill="currentColor"/>
  <path fill-rule="evenodd" clip-rule="evenodd" d="M34.959 9.48904C34.9608 7.85167 34.4886 6.24879 33.5993 4.87399C32.7099 3.49918 31.4416 2.41125 29.9474 1.7416C28.4533 1.07195 26.7972 0.849212 25.1792 1.1003C23.5612 1.35138 22.0505 2.06555 20.8295 3.15654C19.6086 4.24753 18.7296 5.66868 18.2988 7.24834C17.868 8.82801 17.9037 10.4986 18.4017 12.0584C18.8997 13.6182 19.8386 15.0005 21.1051 16.0383C22.3716 17.0761 23.9114 17.725 25.5387 17.9066V21.4346L32.2418 15.7032C33.0989 14.9108 33.7827 13.9497 34.2503 12.8803C34.7179 11.8109 34.9592 10.6562 34.959 9.48904ZM24.8116 11.2173V14.6231H28.2173V11.2173H31.6231V7.81157H28.2173V4.4058H24.8116V7.81157H21.4058V11.2173H24.8116Z" fill="currentColor"/>
</svg>
