<?xml version="1.0"?>
<svg xmlns="http://www.w3.org/2000/svg" viewBox="0 0 36 36" fill="none">
  <path fill="currentColor" fill-rule="evenodd" clip-rule="evenodd" d="M16.48 35.0499V29.3499L16.51 29.3399C13.4035 28.995 10.5086 27.5974 8.30636 25.3794C6.10411 23.1615 4.72712 20.2567 4.40423 17.1478C4.08134 14.039 4.83199 10.9132 6.53143 8.29005C8.23087 5.66685 10.7768 3.70417 13.7461 2.72816C16.7153 1.75214 19.9292 1.82157 22.8536 2.9249C25.7779 4.02823 28.2367 6.09903 29.8213 8.79316C31.4058 11.4873 32.0208 14.6425 31.564 17.7346C31.1071 20.8266 29.606 23.6692 27.31 25.7899L16.48 35.0499ZM16.8787 23.6588C17.2136 23.8813 17.6074 24 18.0102 24C18.5503 24 19.0684 23.7867 19.4503 23.407C19.8323 23.0274 20.0468 22.5124 20.0468 21.9755C20.0468 21.5751 19.9274 21.1837 19.7036 20.8508C19.4798 20.5178 19.1617 20.2584 18.7896 20.1051C18.4174 19.9519 18.0079 19.9118 17.6129 19.9899C17.2178 20.068 16.8549 20.2609 16.57 20.544C16.2852 20.8271 16.0912 21.1878 16.0127 21.5806C15.9341 21.9733 15.9744 22.3803 16.1286 22.7502C16.2827 23.1202 16.5437 23.4364 16.8787 23.6588ZM20.0223 16.721C20.158 16.5009 20.3489 16.3197 20.5764 16.1952L20.5662 16.2357C21.3168 15.7895 21.9366 15.1554 22.3636 14.3967C22.7906 13.638 23.0099 12.7812 22.9997 11.9119C22.9894 11.0426 22.7499 10.1911 22.3052 9.44256C21.8604 8.694 21.2259 8.07451 20.4649 7.64592C19.704 7.21733 18.8433 6.99465 17.9687 7.0001C17.0941 7.00555 16.2362 7.23893 15.4808 7.67697C14.7253 8.115 14.0986 8.74235 13.6633 9.49639C13.228 10.2504 12.9993 11.1048 13 11.9742H16.5947C16.5893 11.786 16.6218 11.5987 16.6905 11.4233C16.7592 11.2479 16.8626 11.0879 16.9946 10.953C17.1266 10.818 17.2845 10.7107 17.4589 10.6375C17.6334 10.5643 17.8208 10.5266 18.0102 10.5266C18.3866 10.5398 18.7429 10.6984 19.0035 10.9688C19.264 11.2391 19.4082 11.5998 19.4053 11.9742C19.3995 12.2096 19.334 12.4398 19.2147 12.6434C19.0954 12.8469 18.9263 13.0171 18.723 13.1382C17.961 13.5756 17.3277 14.2039 16.8863 14.9606C16.445 15.7172 16.211 16.5757 16.2077 17.4504V18.5537H19.8024V17.4504C19.8109 17.1924 19.8866 16.9411 20.0223 16.721Z"/>
</svg>
