<?xml version="1.0"?>
<svg xmlns="http://www.w3.org/2000/svg" viewBox="0 0 36 32" fill="none">
  <path fill="currentColor" d="M36 10C36 4.47715 32.6421 0 28.5 0H1.5C0.671574 0 0 0.895431 0 2V30C0 31.1046 0.671574 32 1.5 32H34.5C35.3284 32 36 31.1046 36 30V10Z"/>
  <path fill="currentColor" d="M18.7525 23H15.8185L13.2805 18.752H12.9745H11.1025V23H8.45654V10.4H13.1725C14.9005 10.4 16.1725 10.748 16.9885 11.444C17.8045 12.128 18.2125 13.088 18.2125 14.324C18.2125 15.296 17.9965 16.106 17.5645 16.754C17.1445 17.402 16.5505 17.894 15.7825 18.23L18.7525 23ZM11.1025 12.65V16.484H13.1725C13.8685 16.484 14.4085 16.31 14.7925 15.962C15.1885 15.602 15.3865 15.11 15.3865 14.486C15.3865 13.874 15.1945 13.418 14.8105 13.118C14.4385 12.806 13.8385 12.65 13.0105 12.65H11.1025Z"/>
  <path fill="currentColor" d="M26.6688 10.4V20.714H29.0628V23H21.0168V20.714H23.9868V13.316L21.3408 14.432L20.4948 12.452L24.6348 10.4H26.6688Z"/>
</svg>
