<?xml version="1.0"?>
<svg xmlns="http://www.w3.org/2000/svg" viewBox="0 0 316 68" fill="none">
  <path fill="currentColor" d="M235.771 23.0114V35.6006H258.661V23.0114H235.771ZM234.627 21.8669L259.805 21.8669V36.7451H234.627V21.8669ZM233.482 26.4448L96.1445 26.4448V32.1672L233.482 32.1672V26.4448ZM234.627 33.3117L95 33.3117V25.3003L234.627 25.3003V33.3117ZM260.95 16.1445V42.4675H287.273V16.1445L260.95 16.1445ZM259.805 15L288.417 15V43.612L259.805 43.612V15Z"/>
  <path fill="currentColor" fill-rule="evenodd" clip-rule="evenodd" d="M315.312 17.8612V40.7508H287.845V17.8612L315.312 17.8612ZM303.868 22.4391H299.29V27.017H303.868V22.4391ZM303.868 31.595H299.29V36.1729H303.868V31.595Z"/>
  <path fill="currentColor" fill-rule="evenodd" clip-rule="evenodd" d="M12.6451 5.70326V4.00719C12.6451 3.47871 12.9071 2.98677 13.3646 2.7222C14.8664 1.8538 18.4977 0 22.1289 0C26.8708 0 26.8708 1.58063 26.8708 1.58063V2.93214C27.8959 2.80555 28.9654 2.68441 30.0778 2.57029L30.0674 2.58187C29.44 3.28465 29.1227 4.15832 29.3054 5.16374L31.2305 15.7515C31.9257 19.5754 30.6941 23.5069 28.0735 26.4282C24.9658 29.8924 20.92 34.7256 18.2899 39.1092C16.4644 42.1516 14.6673 46.9568 13.1406 51.718C11.6078 56.4987 10.3258 61.3067 9.54309 64.398C9.19628 65.7676 7.76073 66.5597 6.4355 66.118L6.02537 65.9814C4.4926 65.1103 3.25959 63.8185 2.6108 62.1036C1.35103 58.7732 0 53.4316 0 45.8384C0 31.6127 7.90317 7.90317 11.0644 6.32253C11.4383 6.13561 11.9669 5.92655 12.6451 5.70326ZM15.8063 12.6451C15.8063 11.772 16.514 11.0644 17.387 11.0644H20.5482C21.4212 11.0644 22.1289 11.772 22.1289 12.6451V15.1516C22.1289 15.5709 21.9623 15.973 21.6659 16.2694L20.0853 17.8501C19.468 18.4671 18.4672 18.4671 17.8499 17.8501L16.2693 16.2694C15.9729 15.973 15.8063 15.5709 15.8063 15.1516V12.6451ZM15.8063 26.8708C15.8063 27.7438 16.514 28.4514 17.387 28.4514H20.5482C21.4212 28.4514 22.1289 27.7438 22.1289 26.8708V24.3642C22.1289 23.945 21.9623 23.5429 21.6659 23.2464L20.0853 21.6658C19.468 21.0487 18.4672 21.0487 17.8499 21.6658L16.2693 23.2464C15.9729 23.5429 15.8063 23.945 15.8063 24.3642V26.8708ZM27.6611 21.3387C27.6611 22.2115 26.9534 22.919 26.0805 22.919H23.5739C23.1547 22.919 22.7527 22.7527 22.4562 22.4562L20.8756 20.8756C20.2583 20.2582 20.2583 19.2576 20.8756 18.6402L22.4562 17.0596C22.7527 16.7631 23.1547 16.5965 23.5739 16.5965H26.0805C26.9534 16.5965 27.6611 17.3044 27.6611 18.1774V21.3387ZM11.8548 22.919C10.9818 22.919 10.2741 22.2115 10.2741 21.3387V18.1774C10.2741 17.3044 10.9818 16.5965 11.8548 16.5965H14.3613C14.7805 16.5965 15.1825 16.7631 15.479 17.0596L17.0596 18.6402C17.6769 19.2576 17.6769 20.2582 17.0596 20.8756L15.479 22.4562C15.1825 22.7527 14.7805 22.919 14.3613 22.919H11.8548ZM25.3736 6.48937C26.1544 6.09897 27.1038 6.41546 27.4942 7.19625L28.2845 8.77689C28.6751 9.55771 28.3584 10.5072 27.5777 10.8975C26.7969 11.2878 25.8474 10.9714 25.457 10.1905L24.6667 8.61C24.2763 7.82921 24.5928 6.87976 25.3736 6.48937Z"/>
  <path fill="currentColor" d="M50.5803 1.58028C44.2867 1.58028 38.6321 1.83599 33.6898 2.23833C33.4979 2.30616 33.313 2.37652 33.1354 2.44956C32.25 2.81365 31.62 3.21576 31.2465 3.6342C30.8992 4.02328 30.7761 4.41648 30.8607 4.88061L32.3539 13.0935L34.1622 19.0035C34.8731 21.3299 37.0203 22.9187 39.4529 22.9187H61.7197C64.1473 22.9187 66.2911 21.3364 67.0065 19.0167L68.7692 13.2994L70.2998 4.88061C70.3805 4.43691 70.2613 4.0559 69.9126 3.67188C69.5375 3.25892 68.9055 2.86046 68.0184 2.49831C67.7818 2.40181 67.5323 2.30984 67.2712 2.2222C62.3762 1.82916 56.7893 1.58028 50.5803 1.58028Z"/>
  <path fill="currentColor" fill-rule="evenodd" clip-rule="evenodd" d="M9.47214 67.1764L9.38489 67.1615C10.1946 66.6285 10.8173 65.802 11.0743 64.7873C11.853 61.7118 13.1259 56.939 14.6447 52.2018C16.1698 47.4453 17.9212 42.7953 19.6442 39.9237C22.1931 35.6756 26.1546 30.9342 29.2489 27.4849C31.1479 25.3681 32.4057 22.7605 32.8365 20.0021C33.9009 22.6992 36.5145 24.501 39.4518 24.501H61.7186C64.6475 24.501 67.2552 22.7096 68.3253 20.0241C68.7594 22.7745 70.0155 25.3741 71.9094 27.4849C75.0038 30.9342 78.9651 35.6756 81.5141 39.9237C83.2372 42.7953 84.9887 47.4453 86.5137 52.2018C88.0325 56.939 89.3054 61.7118 90.0841 64.7873C90.3409 65.8017 90.9639 66.6285 91.7734 67.1615L91.6863 67.1764C88.9114 67.6389 86.1891 66.1069 85.1443 63.495L79.8345 50.2208C78.3944 46.62 74.9072 44.259 71.0291 44.259H30.1293C26.2513 44.259 22.764 46.62 21.3238 50.2208L16.014 63.495C14.9693 66.1069 12.2469 67.6389 9.47214 67.1764ZM72.708 34.7752C72.708 38.267 69.8772 41.0978 66.3855 41.0978C62.8938 41.0978 60.063 38.267 60.063 34.7752C60.063 31.2835 62.8938 28.4527 66.3855 28.4527C69.8772 28.4527 72.708 31.2835 72.708 34.7752ZM34.7728 41.0978C38.2646 41.0978 41.0954 38.267 41.0954 34.7752C41.0954 31.2835 38.2646 28.4527 34.7728 28.4527C31.2811 28.4527 28.4503 31.2835 28.4503 34.7752C28.4503 38.267 31.2811 41.0978 34.7728 41.0978Z"/>
  <path fill="currentColor" fill-rule="evenodd" clip-rule="evenodd" d="M94.7256 66.118L95.1356 65.9814C96.6685 65.1103 97.9015 63.8185 98.5503 62.1036C99.8101 58.7732 101.161 53.4316 101.161 45.8384C101.161 31.6127 93.258 7.90317 90.0967 6.32253C89.723 6.13561 89.1941 5.92655 88.5161 5.70326V4.00719C88.5161 3.47871 88.2542 2.98677 87.7964 2.7222C86.2947 1.8538 82.6634 0 79.0323 0C74.2904 0 74.2904 1.58063 74.2904 1.58063V2.93214C73.2529 2.80403 72.1702 2.68151 71.0434 2.56622L71.0833 2.60949C71.7122 3.30182 72.037 4.16635 71.8558 5.16374L70.328 13.5656L70.3406 13.5696L70.308 13.6752L69.9306 15.7515C69.2354 19.5754 70.4671 23.5069 73.0877 26.4282C76.1953 29.8924 80.2411 34.7256 82.8713 39.1092C84.6967 42.1516 86.494 46.9568 88.0204 51.718C89.5532 56.4987 90.8355 61.3067 91.618 64.398C91.9648 65.7676 93.4004 66.5597 94.7256 66.118ZM73.6668 7.19625C74.0574 6.41546 75.0066 6.09897 75.7875 6.48937C76.5684 6.87976 76.8848 7.82921 76.4945 8.61L75.7041 10.1905C75.3138 10.9714 74.3643 11.2878 73.5834 10.8975C72.8027 10.5072 72.4861 9.55771 72.8766 8.77689L73.6668 7.19625ZM85.3548 25.2901C85.3548 27.036 83.9394 28.4514 82.1935 28.4514C80.4477 28.4514 79.0323 27.036 79.0323 25.2901C79.0323 23.5443 80.4477 22.1289 82.1935 22.1289C83.9394 22.1289 85.3548 23.5443 85.3548 25.2901ZM88.5161 22.1289C90.2619 22.1289 91.6773 20.7135 91.6773 18.9676C91.6773 17.2217 90.2619 15.8063 88.5161 15.8063C86.7702 15.8063 85.3548 17.2217 85.3548 18.9676C85.3548 20.7135 86.7702 22.1289 88.5161 22.1289ZM85.3548 12.6451C85.3548 14.3909 83.9394 15.8063 82.1935 15.8063C80.4477 15.8063 79.0323 14.3909 79.0323 12.6451C79.0323 10.8992 80.4477 9.4838 82.1935 9.4838C83.9394 9.4838 85.3548 10.8992 85.3548 12.6451ZM75.871 22.1289C77.6169 22.1289 79.0323 20.7135 79.0323 18.9676C79.0323 17.2217 77.6169 15.8063 75.871 15.8063C74.1251 15.8063 72.7097 17.2217 72.7097 18.9676C72.7097 20.7135 74.1251 22.1289 75.871 22.1289Z"/>
</svg>
