<?xml version="1.0"?>
<svg xmlns="http://www.w3.org/2000/svg" viewBox="0 0 42 35" fill="none">
  <path fill="currentColor" d="M2.86369 0C1.57321 0 0.471511 0.88952 0.119285 2.09452L20.185 19.8661C20.6574 20.2845 21.3421 20.2845 21.8145 19.8661L41.8802 2.09452C41.528 0.88952 40.4264 0 39.136 0H2.86369ZM0 4.5631V30.4371L14.6054 17.5003L0 4.5631ZM42 4.5631L27.3946 17.4999L42 30.4367V4.5631ZM16.0615 18.7892L0.119413 32.9055C0.471605 34.1103 1.57316 35 2.86382 35H39.1363C40.4268 35 41.5284 34.1105 41.8807 32.9055L25.9386 18.7892L23.0675 21.3318C21.8876 22.3767 20.1122 22.3767 18.9324 21.3318L16.0615 18.7892Z"/>
</svg>
