<?xml version="1.0"?>
<svg x="0px" y="0px" width="100px" height="100px" viewBox="0 0 215 215" fill="none" xmlns="http://www.w3.org/2000/svg">
  <path fill-rule="evenodd" clip-rule="evenodd" d="M37.6146 37.7144C-0.630497 75.9444 -0.631195 137.928 37.6151 176.159C66.7056 205.238 109.551 212.205 145.234 197.037C147.268 196.173 149.617 197.12 150.481 199.153C151.345 201.186 150.397 203.534 148.364 204.399C109.781 220.8 63.4338 213.28 31.9583 181.817C-9.41226 140.463 -9.41295 73.4128 31.9588 32.0574C33.5213 30.4955 36.0541 30.4957 37.6159 32.0578C39.1777 33.6199 39.1771 36.1525 37.6146 37.7144Z" fill="#E5E5E5"/>
  <path fill-rule="evenodd" clip-rule="evenodd" d="M57.6852 17.4447C56.6914 15.4719 57.4852 13.0669 59.4583 12.0728C99.1749 -7.93684 148.868 -1.37195 182.042 31.7888C223.412 73.143 223.413 140.193 182.041 181.548C180.479 183.11 177.946 183.11 176.384 181.548C174.822 179.986 174.823 177.453 176.385 175.891C214.63 137.661 214.631 75.6779 176.385 37.4467C145.724 6.79791 99.7824 0.714176 63.0573 19.2167C61.0842 20.2108 58.679 19.4174 57.6852 17.4447Z" fill="#E5E5E5"/>
  <path fill-rule="evenodd" clip-rule="evenodd" d="M106.838 188.612C152.036 188.612 188.676 151.986 188.676 106.806C188.676 61.6257 152.036 25 106.838 25C61.6402 25 25 61.6257 25 106.806C25 151.986 61.6402 188.612 106.838 188.612ZM142.994 113.577C148.329 110.499 148.329 102.799 142.994 99.7197L93.9972 71.4425C88.6639 68.3645 81.9984 72.2136 81.9984 78.3714L81.9984 134.926C81.9984 141.084 88.6639 144.933 93.9972 141.855L142.994 113.577Z" fill="#E5E5E5"/>
</svg>
