<?xml version="1.0"?>
<svg xmlns="http://www.w3.org/2000/svg" viewBox="0 0 36 36" fill="none">
  <path fill="currentColor" opacity="0.25" fill-rule="evenodd" clip-rule="evenodd" d="M29 33H33C33 26.8636 31.12 20.9211 27.6789 15.9424L24.7962 18.8251C25.6637 20.1591 26.409 21.5731 27.0209 23.0502C28.3275 26.2047 29 29.5856 29 33ZM22.9963 16.3823L25.8352 13.5434C25.32 12.9388 24.779 12.3526 24.2132 11.7868C18.5871 6.16071 10.9565 3 3 3V7C6.41437 7 9.7953 7.67251 12.9498 8.97913C16.1042 10.2858 18.9705 12.2009 21.3848 14.6152C21.9498 15.1802 22.4874 15.7699 22.9963 16.3823ZM20.4751 18.9035L17.6271 21.7516C17.1425 21.1218 16.6153 20.5206 16.0473 19.9527C12.5866 16.4919 7.89427 14.5453 3 14.54V10.54C8.95514 10.5453 14.6648 12.9133 18.8758 17.1242C19.4427 17.6912 19.9763 18.2853 20.4751 18.9035ZM19.29 24.3313L22.223 21.3983C24.3198 24.8705 25.4563 28.8764 25.46 33H21.46C21.4567 29.9488 20.6989 26.976 19.29 24.3313ZM15.1004 24.2782C14.6354 23.6332 14.1166 23.0224 13.5471 22.4529C10.7496 19.6554 6.95622 18.0826 3 18.08V22.08C5.89535 22.0826 8.67136 23.234 10.7187 25.2813C11.2915 25.8541 11.7942 26.484 12.2212 27.1575L15.1004 24.2782ZM13.5246 30.0967L16.646 26.9753C17.4768 28.8554 17.9186 30.9049 17.92 33H13.92C13.9191 32.0102 13.7839 31.0343 13.5246 30.0967ZM9.74367 29.635L6.37866 33H3V25.46C4.99892 25.4626 6.91521 26.2579 8.32866 27.6713C8.90831 28.251 9.38399 28.9152 9.74367 29.635Z"/>
  <path fill="currentColor" fill-rule="evenodd" clip-rule="evenodd" d="M34.7374 5.23745L4.23745 35.7374L1.76257 33.2626L32.2626 2.76257L34.7374 5.23745Z"/>
</svg>
