<?xml version="1.0"?>
<svg xmlns="http://www.w3.org/2000/svg" viewBox="0 0 36 36" fill="none">
  <path d="M31.7 15.75C31.703 13.1045 30.94 10.5148 29.5031 8.2936C28.0663 6.07238 26.0171 4.31465 23.603 3.23272C21.189 2.15079 18.5133 1.79092 15.8991 2.19659C13.285 2.60226 10.8442 3.75611 8.87157 5.51878C6.89893 7.28145 5.47882 9.57755 4.78275 12.1298C4.08667 14.682 4.14441 17.3811 4.94899 19.9013C5.75356 22.4214 7.27057 24.6546 9.31678 26.3313C11.363 28.008 13.8509 29.0565 16.48 29.35V35.05L27.31 25.79C28.6947 24.5098 29.7995 22.9569 30.555 21.2291C31.3105 19.5012 31.7003 17.6358 31.7 15.75ZM14.25 9.79997C14.25 8.80541 14.6451 7.85158 15.3483 7.14832C16.0516 6.44506 17.0054 6.04997 18 6.04997C18.9945 6.04997 19.9484 6.44506 20.6516 7.14832C21.3549 7.85158 21.75 8.80541 21.75 9.79997V14.8C21.75 15.7945 21.3549 16.7484 20.6516 17.4516C19.9484 18.1549 18.9945 18.55 18 18.55C17.0054 18.55 16.0516 18.1549 15.3483 17.4516C14.6451 16.7484 14.25 15.7945 14.25 14.8V9.79997ZM19.25 23.45V26.05H16.75V23.45C15.2086 23.2066 13.7667 22.5346 12.5891 21.5107C11.4114 20.4869 10.5454 19.1525 10.09 17.66L12.49 16.94C12.8494 18.1186 13.5778 19.1505 14.568 19.8838C15.5582 20.6171 16.7578 21.0129 17.99 21.0129C19.2221 21.0129 20.4217 20.6171 21.4119 19.8838C22.4021 19.1505 23.1306 18.1186 23.49 16.94L25.89 17.66C25.4361 19.1498 24.5731 20.4824 23.3992 21.5059C22.2254 22.5295 20.7878 23.2031 19.25 23.45Z" fill="currentColor"/>
</svg>
