<?xml version="1.0"?>
<svg onClick="" viewBox="0 0 16 16" fill="none" xmlns="http://www.w3.org/2000/svg" style="">
  <path fill="currentColor" opacity="1" d="M9.75467 6.5L5.56047 2.43952C5.56047 2.43952 5.68487 1.26955 6.27511 0.70555C6.86535 0.141549 8 -3.49691e-07 8 -3.49691e-07C8 -3.49691e-07 16.0009 7.08692 16 8C15.9991 8.91308 8 16 8 16C8 16 6.87982 15.8258 6.27511 15.2535C5.6704 14.6812 5.56047 13.5605 5.56047 13.5605L9.75462 9.5L0.677395 9.5C0.677395 9.5 3.49692e-07 9 3.49691e-07 8C3.4969e-07 7 0.677395 6.5 0.677395 6.5L9.75467 6.5Z"/>
</svg>
