<?xml version="1.0"?>
<svg version="1.1" id="base" xmlns="http://www.w3.org/2000/svg" x="0px" y="0px" width="256px" height="256px" viewBox="0 0 256 256">
  <g>
    <path fill="none" stroke="#ffffff" stroke-width="6" stroke-miterlimit="10" d="M27.66,156.37 c12.355,43.698,52.503,75.733,100.16,75.733c57.495,0,104.104-46.61,104.104-104.105S185.314,23.895,127.82,23.895"/>
    <path fill="none" stroke="#ffffff" stroke-width="6" stroke-miterlimit="10" d="M201.432,101.166"/>
    <path fill="none" stroke="#ffffff" stroke-width="6" stroke-miterlimit="10" d="M127.82,23.895 c-54.686,0-99.487,42.167-103.745,95.754"/>
  </g>
  <g>
    <path fill="none" stroke="#ffffff" stroke-width="6" stroke-miterlimit="10" d="M127.82,23.895 c-54.686,0-99.487,42.167-103.745,95.754l55.797,23.069c4.729-3.231,10.44-5.122,16.584-5.122c0.551,0,1.098,0.014,1.642,0.047 l24.815-35.968c0-0.17-0.004-0.338-0.004-0.509c0-21.647,17.61-39.261,39.26-39.261s39.263,17.613,39.263,39.261 c0,21.65-17.611,39.264-39.263,39.264c-0.299,0-0.593-0.007-0.887-0.014l-35.392,25.251c0.018,0.462,0.035,0.931,0.035,1.396 c0,16.252-13.22,29.472-29.469,29.472c-14.265,0-26.19-10.185-28.892-23.666L27.66,156.37 c12.355,43.698,52.503,75.733,100.16,75.733c57.495,0,104.104-46.61,104.104-104.105S185.314,23.895,127.82,23.895z"/>
    <path stroke-linecap="butt" fill="none" stroke="#ffffff" stroke-width="6" stroke-miterlimit="10" d="M127.82,23.895 c-54.686,0-99.487,42.167-103.745,95.754l55.797,23.069c4.729-3.231,10.44-5.122,16.584-5.122c0.551,0,1.098,0.014,1.642,0.047 l24.815-35.968c0-0.17-0.004-0.338-0.004-0.509c0-21.647,17.61-39.261,39.26-39.261s39.263,17.613,39.263,39.261 c0,21.65-17.611,39.264-39.263,39.264c-0.299,0-0.593-0.007-0.887-0.014l-35.392,25.251c0.018,0.462,0.035,0.931,0.035,1.396 c0,16.252-13.22,29.472-29.469,29.472c-14.265,0-26.19-10.185-28.892-23.666L27.66,156.37 c12.355,43.698,52.503,75.733,100.16,75.733c57.495,0,104.104-46.61,104.104-104.105S185.314,23.895,127.82,23.895z"/>
    <path stroke-linecap="butt" fill="none" stroke="#ffffff" stroke-width="6" stroke-miterlimit="10" d="M127.82,23.895 c-54.686,0-99.487,42.167-103.745,95.754l55.797,23.069c4.729-3.231,10.44-5.122,16.584-5.122c0.551,0,1.098,0.014,1.642,0.047 l24.815-35.968c0-0.17-0.004-0.338-0.004-0.509c0-21.647,17.61-39.261,39.26-39.261s39.263,17.613,39.263,39.261 c0,21.65-17.611,39.264-39.263,39.264c-0.299,0-0.593-0.007-0.887-0.014l-35.392,25.251c0.018,0.462,0.035,0.931,0.035,1.396 c0,16.252-13.22,29.472-29.469,29.472c-14.265,0-26.19-10.185-28.892-23.666L27.66,156.37 c12.355,43.698,52.503,75.733,100.16,75.733c57.495,0,104.104-46.61,104.104-104.105S185.314,23.895,127.82,23.895z"/>
    <path stroke-linecap="butt" fill="none" stroke="#ffffff" stroke-width="6" stroke-miterlimit="10" d="M127.82,23.895 c-54.686,0-99.487,42.167-103.745,95.754l55.797,23.069c4.729-3.231,10.44-5.122,16.584-5.122c0.551,0,1.098,0.014,1.642,0.047 l24.815-35.968c0-0.17-0.004-0.338-0.004-0.509c0-21.647,17.61-39.261,39.26-39.261s39.263,17.613,39.263,39.261 c0,21.65-17.611,39.264-39.263,39.264c-0.299,0-0.593-0.007-0.887-0.014l-35.392,25.251c0.018,0.462,0.035,0.931,0.035,1.396 c0,16.252-13.22,29.472-29.469,29.472c-14.265,0-26.19-10.185-28.892-23.666L27.66,156.37 c12.355,43.698,52.503,75.733,100.16,75.733c57.495,0,104.104-46.61,104.104-104.105S185.314,23.895,127.82,23.895z"/>
    <path stroke-linecap="butt" fill="none" stroke="#ffffff" stroke-width="6" stroke-miterlimit="10" d="M127.82,23.895 c-54.686,0-99.487,42.167-103.745,95.754l55.797,23.069c4.729-3.231,10.44-5.122,16.584-5.122c0.551,0,1.098,0.014,1.642,0.047 l24.815-35.968c0-0.17-0.004-0.338-0.004-0.509c0-21.647,17.61-39.261,39.26-39.261s39.263,17.613,39.263,39.261 c0,21.65-17.611,39.264-39.263,39.264c-0.299,0-0.593-0.007-0.887-0.014l-35.392,25.251c0.018,0.462,0.035,0.931,0.035,1.396 c0,16.252-13.22,29.472-29.469,29.472c-14.265,0-26.19-10.185-28.892-23.666L27.66,156.37 c12.355,43.698,52.503,75.733,100.16,75.733c57.495,0,104.104-46.61,104.104-104.105S185.314,23.895,127.82,23.895z"/>
    <path stroke-linecap="butt" fill="none" stroke="#ffffff" stroke-width="6" stroke-miterlimit="10" d="M127.82,23.895 c-54.686,0-99.487,42.167-103.745,95.754l55.797,23.069c4.729-3.231,10.44-5.122,16.584-5.122c0.551,0,1.098,0.014,1.642,0.047 l24.815-35.968c0-0.17-0.004-0.338-0.004-0.509c0-21.647,17.61-39.261,39.26-39.261s39.263,17.613,39.263,39.261 c0,21.65-17.611,39.264-39.263,39.264c-0.299,0-0.593-0.007-0.887-0.014l-35.392,25.251c0.018,0.462,0.035,0.931,0.035,1.396 c0,16.252-13.22,29.472-29.469,29.472c-14.265,0-26.19-10.185-28.892-23.666L27.66,156.37 c12.355,43.698,52.503,75.733,100.16,75.733c57.495,0,104.104-46.61,104.104-104.105S185.314,23.895,127.82,23.895z"/>
    <path stroke-linecap="butt" fill="none" stroke="#ffffff" stroke-width="6" stroke-miterlimit="10" d="M127.82,23.895 c-54.686,0-99.487,42.167-103.745,95.754l55.797,23.069c4.729-3.231,10.44-5.122,16.584-5.122c0.551,0,1.098,0.014,1.642,0.047 l24.815-35.968c0-0.17-0.004-0.338-0.004-0.509c0-21.647,17.61-39.261,39.26-39.261s39.263,17.613,39.263,39.261 c0,21.65-17.611,39.264-39.263,39.264c-0.299,0-0.593-0.007-0.887-0.014l-35.392,25.251c0.018,0.462,0.035,0.931,0.035,1.396 c0,16.252-13.22,29.472-29.469,29.472c-14.265,0-26.19-10.185-28.892-23.666L27.66,156.37 c12.355,43.698,52.503,75.733,100.16,75.733c57.495,0,104.104-46.61,104.104-104.105S185.314,23.895,127.82,23.895z"/>
    <path stroke-linecap="butt" fill="none" stroke="#ffffff" stroke-width="6" stroke-miterlimit="10" d="M127.82,23.895 c-54.686,0-99.487,42.167-103.745,95.754l55.797,23.069c4.729-3.231,10.44-5.122,16.584-5.122c0.551,0,1.098,0.014,1.642,0.047 l24.815-35.968c0-0.17-0.004-0.338-0.004-0.509c0-21.647,17.61-39.261,39.26-39.261s39.263,17.613,39.263,39.261 c0,21.65-17.611,39.264-39.263,39.264c-0.299,0-0.593-0.007-0.887-0.014l-35.392,25.251c0.018,0.462,0.035,0.931,0.035,1.396 c0,16.252-13.22,29.472-29.469,29.472c-14.265,0-26.19-10.185-28.892-23.666L27.66,156.37 c12.355,43.698,52.503,75.733,100.16,75.733c57.495,0,104.104-46.61,104.104-104.105S185.314,23.895,127.82,23.895z"/>
    <path stroke-linecap="butt" fill="none" stroke="#ffffff" stroke-width="6" stroke-miterlimit="10" d="M127.82,23.895 c-54.686,0-99.487,42.167-103.745,95.754l55.797,23.069c4.729-3.231,10.44-5.122,16.584-5.122c0.551,0,1.098,0.014,1.642,0.047 l24.815-35.968c0-0.17-0.004-0.338-0.004-0.509c0-21.647,17.61-39.261,39.26-39.261s39.263,17.613,39.263,39.261 c0,21.65-17.611,39.264-39.263,39.264c-0.299,0-0.593-0.007-0.887-0.014l-35.392,25.251c0.018,0.462,0.035,0.931,0.035,1.396 c0,16.252-13.22,29.472-29.469,29.472c-14.265,0-26.19-10.185-28.892-23.666L27.66,156.37 c12.355,43.698,52.503,75.733,100.16,75.733c57.495,0,104.104-46.61,104.104-104.105S185.314,23.895,127.82,23.895z"/>
    <path stroke-linecap="butt" fill="none" stroke="#ffffff" stroke-width="6" stroke-miterlimit="10" d="M127.82,23.895 c-54.686,0-99.487,42.167-103.745,95.754l55.797,23.069c4.729-3.231,10.44-5.122,16.584-5.122c0.551,0,1.098,0.014,1.642,0.047 l24.815-35.968c0-0.17-0.004-0.338-0.004-0.509c0-21.647,17.61-39.261,39.26-39.261s39.263,17.613,39.263,39.261 c0,21.65-17.611,39.264-39.263,39.264c-0.299,0-0.593-0.007-0.887-0.014l-35.392,25.251c0.018,0.462,0.035,0.931,0.035,1.396 c0,16.252-13.22,29.472-29.469,29.472c-14.265,0-26.19-10.185-28.892-23.666L27.66,156.37 c12.355,43.698,52.503,75.733,100.16,75.733c57.495,0,104.104-46.61,104.104-104.105S185.314,23.895,127.82,23.895z"/>
    <path stroke-linecap="butt" fill="none" stroke="#ffffff" stroke-width="6" stroke-miterlimit="10" d="M127.82,23.895 c-54.686,0-99.487,42.167-103.745,95.754l55.797,23.069c4.729-3.231,10.44-5.122,16.584-5.122c0.551,0,1.098,0.014,1.642,0.047 l24.815-35.968c0-0.17-0.004-0.338-0.004-0.509c0-21.647,17.61-39.261,39.26-39.261s39.263,17.613,39.263,39.261 c0,21.65-17.611,39.264-39.263,39.264c-0.299,0-0.593-0.007-0.887-0.014l-35.392,25.251c0.018,0.462,0.035,0.931,0.035,1.396 c0,16.252-13.22,29.472-29.469,29.472c-14.265,0-26.19-10.185-28.892-23.666L27.66,156.37 c12.355,43.698,52.503,75.733,100.16,75.733c57.495,0,104.104-46.61,104.104-104.105S185.314,23.895,127.82,23.895z"/>
    <path stroke-linecap="butt" fill="none" stroke="#ffffff" stroke-width="6" stroke-miterlimit="10" d="M127.82,23.895 c-54.686,0-99.487,42.167-103.745,95.754l55.797,23.069c4.729-3.231,10.44-5.122,16.584-5.122c0.551,0,1.098,0.014,1.642,0.047 l24.815-35.968c0-0.17-0.004-0.338-0.004-0.509c0-21.647,17.61-39.261,39.26-39.261s39.263,17.613,39.263,39.261 c0,21.65-17.611,39.264-39.263,39.264c-0.299,0-0.593-0.007-0.887-0.014l-35.392,25.251c0.018,0.462,0.035,0.931,0.035,1.396 c0,16.252-13.22,29.472-29.469,29.472c-14.265,0-26.19-10.185-28.892-23.666L27.66,156.37 c12.355,43.698,52.503,75.733,100.16,75.733c57.495,0,104.104-46.61,104.104-104.105S185.314,23.895,127.82,23.895z"/>
    <path stroke-linecap="butt" fill="none" stroke="#ffffff" stroke-width="6" stroke-miterlimit="10" d="M127.82,23.895 c-54.686,0-99.487,42.167-103.745,95.754l55.797,23.069c4.729-3.231,10.44-5.122,16.584-5.122c0.551,0,1.098,0.014,1.642,0.047 l24.815-35.968c0-0.17-0.004-0.338-0.004-0.509c0-21.647,17.61-39.261,39.26-39.261s39.263,17.613,39.263,39.261 c0,21.65-17.611,39.264-39.263,39.264c-0.299,0-0.593-0.007-0.887-0.014l-35.392,25.251c0.018,0.462,0.035,0.931,0.035,1.396 c0,16.252-13.22,29.472-29.469,29.472c-14.265,0-26.19-10.185-28.892-23.666L27.66,156.37 c12.355,43.698,52.503,75.733,100.16,75.733c57.495,0,104.104-46.61,104.104-104.105S185.314,23.895,127.82,23.895z"/>
    <path stroke-linecap="butt" fill="none" stroke="#ffffff" stroke-width="6" stroke-miterlimit="10" d="M127.82,23.895 c-54.686,0-99.487,42.167-103.745,95.754l55.797,23.069c4.729-3.231,10.44-5.122,16.584-5.122c0.551,0,1.098,0.014,1.642,0.047 l24.815-35.968c0-0.17-0.004-0.338-0.004-0.509c0-21.647,17.61-39.261,39.26-39.261s39.263,17.613,39.263,39.261 c0,21.65-17.611,39.264-39.263,39.264c-0.299,0-0.593-0.007-0.887-0.014l-35.392,25.251c0.018,0.462,0.035,0.931,0.035,1.396 c0,16.252-13.22,29.472-29.469,29.472c-14.265,0-26.19-10.185-28.892-23.666L27.66,156.37 c12.355,43.698,52.503,75.733,100.16,75.733c57.495,0,104.104-46.61,104.104-104.105S185.314,23.895,127.82,23.895z"/>
    <path stroke-linecap="butt" fill="none" stroke="#ffffff" stroke-width="6" stroke-miterlimit="10" d="M127.82,23.895 c-54.686,0-99.487,42.167-103.745,95.754l55.797,23.069c4.729-3.231,10.44-5.122,16.584-5.122c0.551,0,1.098,0.014,1.642,0.047 l24.815-35.968c0-0.17-0.004-0.338-0.004-0.509c0-21.647,17.61-39.261,39.26-39.261s39.263,17.613,39.263,39.261 c0,21.65-17.611,39.264-39.263,39.264c-0.299,0-0.593-0.007-0.887-0.014l-35.392,25.251c0.018,0.462,0.035,0.931,0.035,1.396 c0,16.252-13.22,29.472-29.469,29.472c-14.265,0-26.19-10.185-28.892-23.666L27.66,156.37 c12.355,43.698,52.503,75.733,100.16,75.733c57.495,0,104.104-46.61,104.104-104.105S185.314,23.895,127.82,23.895z"/>
    <path stroke-linecap="butt" fill="none" stroke="#ffffff" stroke-width="6" stroke-miterlimit="10" d="M127.82,23.895 c-54.686,0-99.487,42.167-103.745,95.754l55.797,23.069c4.729-3.231,10.44-5.122,16.584-5.122c0.551,0,1.098,0.014,1.642,0.047 l24.815-35.968c0-0.17-0.004-0.338-0.004-0.509c0-21.647,17.61-39.261,39.26-39.261s39.263,17.613,39.263,39.261 c0,21.65-17.611,39.264-39.263,39.264c-0.299,0-0.593-0.007-0.887-0.014l-35.392,25.251c0.018,0.462,0.035,0.931,0.035,1.396 c0,16.252-13.22,29.472-29.469,29.472c-14.265,0-26.19-10.185-28.892-23.666L27.66,156.37 c12.355,43.698,52.503,75.733,100.16,75.733c57.495,0,104.104-46.61,104.104-104.105S185.314,23.895,127.82,23.895z"/>
    <path stroke-linecap="butt" fill="none" stroke="#ffffff" stroke-width="6" stroke-miterlimit="10" d="M127.82,23.895 c-54.686,0-99.487,42.167-103.745,95.754l55.797,23.069c4.729-3.231,10.44-5.122,16.584-5.122c0.551,0,1.098,0.014,1.642,0.047 l24.815-35.968c0-0.17-0.004-0.338-0.004-0.509c0-21.647,17.61-39.261,39.26-39.261s39.263,17.613,39.263,39.261 c0,21.65-17.611,39.264-39.263,39.264c-0.299,0-0.593-0.007-0.887-0.014l-35.392,25.251c0.018,0.462,0.035,0.931,0.035,1.396 c0,16.252-13.22,29.472-29.469,29.472c-14.265,0-26.19-10.185-28.892-23.666L27.66,156.37 c12.355,43.698,52.503,75.733,100.16,75.733c57.495,0,104.104-46.61,104.104-104.105S185.314,23.895,127.82,23.895z"/>
  </g>
  <g>
    <path fill="#ffffff" d="M89.226,181.579L76.5,176.321c2.256,4.696,6.159,8.628,11.339,10.786 c11.197,4.668,24.11-0.647,28.779-11.854c2.259-5.425,2.274-11.405,0.033-16.841c-2.237-5.436-6.46-9.675-11.886-11.938 c-5.384-2.24-11.151-2.156-16.22-0.244l13.146,5.436c8.261,3.443,12.166,12.93,8.725,21.189 C106.976,181.115,97.486,185.022,89.226,181.579"/>
  </g>
  <g>
    <circle fill="none" stroke="#ffffff" stroke-width="6" stroke-miterlimit="10" cx="161.731" cy="101.274" r="23.019"/>
  </g>
</svg>
