<?xml version="1.0"?>
<svg xmlns="http://www.w3.org/2000/svg" viewBox="0 0 36 36" fill="none">
  <path fill-rule="evenodd" clip-rule="evenodd" d="M15.64 6.30844C14.1472 4.89848 12.1629 4.12693 10.1097 4.15807C8.05655 4.18922 6.09662 5.02059 4.64725 6.47518C3.19787 7.92977 2.37354 9.89267 2.34977 11.9459C2.326 13.9992 3.10467 15.9807 4.51998 17.4684L18 30.9984L31.48 17.4684C32.1938 16.7512 32.7562 15.9113 33.1465 14.9984C33.5629 14.0247 33.7836 12.9679 33.7836 11.8884C33.7836 10.809 33.5629 9.7522 33.1465 8.77843C32.7562 7.86558 32.1938 7.02567 31.48 6.30844C30.7507 5.57674 29.8842 4.99617 28.9301 4.60004C27.976 4.20391 26.9531 4 25.92 4C24.8869 4 23.864 4.20391 22.9099 4.60004C21.9558 4.99617 21.0893 5.57674 20.36 6.30844L18 8.50844L15.64 6.30844ZM18 26.7479L6.67259 15.3785C5.80938 14.4597 5.33497 13.2421 5.34957 11.9807C5.36429 10.7091 5.87479 9.4935 6.77237 8.59269C7.66996 7.69188 8.88372 7.17702 10.1552 7.15773C11.4267 7.13844 12.6556 7.61625 13.5801 8.48943L13.5872 8.49616L18 12.6098L22.4848 8.42623C23.386 7.52209 24.6434 7 25.92 7C27.3194 7 28.5927 7.61948 29.4851 8.59269C30.2888 9.4691 30.7836 10.6324 30.7836 11.8884C30.7836 13.1861 30.2699 14.4309 29.3547 15.351C28.9121 15.7961 18 26.7479 18 26.7479Z" fill="currentColor"/>
</svg>
