<?xml version="1.0"?>
<svg xmlns="http://www.w3.org/2000/svg" viewBox="0 0 47 28" fill="none">
  <path fill="currentColor" d="M42.5002 8.49432C42.5147 7.1735 42.1195 5.88065 41.3689 4.79371C40.6184 3.70677 39.5494 2.87919 38.3091 2.42488C33.4448 1.02283 28.394 0.376401 23.3335 0.508213C18.2729 0.376401 13.2222 1.02283 8.35794 2.42488C7.11763 2.87919 6.04862 3.70677 5.29806 4.79371C4.5475 5.88065 4.15229 7.1735 4.16683 8.49432L0.333496 9.45266V17.1193L4.16683 18.0904C4.27554 19.7299 4.82745 21.3091 5.76364 22.6594C6.69984 24.0096 7.98516 25.0803 9.48238 25.7571L13.3157 27.3799C14.0945 27.6992 14.9581 27.7467 15.7672 27.5149C16.5763 27.283 17.2837 26.7853 17.7752 26.1021C18.3811 25.2081 19.2178 24.4949 20.1964 24.0382C21.1751 23.5815 22.2591 23.3984 23.3335 23.5082C24.4131 23.4088 25.4994 23.6048 26.4762 24.0752C27.4531 24.5456 28.2836 25.2727 28.8791 26.1788C29.3705 26.862 30.0779 27.3597 30.887 27.5915C31.6961 27.8234 32.5597 27.7758 33.3385 27.4565L37.1718 25.8338C38.6691 25.157 39.9544 24.0863 40.8906 22.736C41.8268 21.3858 42.3787 19.8066 42.4874 18.1671L46.3207 17.196V9.52932L42.5002 8.49432ZM28.6491 8.11099C27.0968 7.75874 25.5127 7.56607 23.9213 7.53599C21.9373 7.4828 19.9544 7.67594 18.0179 8.11099L17.1491 4.37988C19.4044 3.87493 21.713 3.64751 24.0235 3.70266C25.8737 3.73511 27.7153 3.9621 29.5179 4.37988L28.6491 8.11099Z"/>
</svg>
