<?xml version="1.0"?>
<svg version="1.1" xmlns="http://www.w3.org/2000/svg" viewBox="0 0 36 36" fill="none">
  <g>
    <path d="M14.232 31.152a8.408 8.408 0 0 1-7.767-5.193 8.427 8.427 0 0 1 1.81-9.172l1.632-1.623a1.784 1.784 0 0 1 2.518 2.527l-1.62 1.618a4.854 4.854 0 0 0 3.427 8.282 4.845 4.845 0 0 0 3.427-1.42l1.622-1.624a1.782 1.782 0 0 1 2.525 2.515l-1.627 1.64a8.376 8.376 0 0 1-5.947 2.45Zm15.41-11.923a8.428 8.428 0 0 0 0-11.914 8.413 8.413 0 0 0-11.903 0L16.116 8.95a1.784 1.784 0 0 0 2.53 2.516l1.613-1.62a4.845 4.845 0 0 1 8.275 3.43 4.855 4.855 0 0 1-1.42 3.431l-1.62 1.618a1.784 1.784 0 0 0 2.518 2.527l1.63-1.623Zm-6.813-2.563a1.782 1.782 0 0 0-2.522-2.52l-5.493 5.498a1.782 1.782 0 0 0 2.522 2.52l5.493-5.498Z"/>
  </g>
</svg>
