<?xml version="1.0"?>
<svg width="36" height="36" viewBox="0 0 36 36" fill="none" xmlns="http://www.w3.org/2000/svg">
  <path d="M11.3057 14.8302V17.7877H1.79932L1.79932 14.8302C1.79932 13.5751 2.3001 12.3715 3.19149 11.4841C4.08289 10.5967 5.29188 10.0981 6.55251 10.0981C7.81313 10.0981 9.02212 10.5967 9.91352 11.4841C10.8049 12.3715 11.3057 13.5751 11.3057 14.8302ZM6.55251 8.32357C7.08131 8.32357 7.59823 8.16746 8.03792 7.87498C8.4776 7.5825 8.82029 7.16679 9.02265 6.68041C9.22502 6.19403 9.27796 5.65883 9.1748 5.1425C9.07164 4.62616 8.81699 4.15188 8.44307 3.77962C8.06916 3.40736 7.59275 3.15385 7.07411 3.05115C6.55547 2.94844 6.01789 3.00115 5.52934 3.20262C5.04079 3.40408 4.62322 3.74525 4.32943 4.18298C4.03564 4.62071 3.87884 5.13534 3.87884 5.66179C3.87805 6.01156 3.94667 6.35804 4.08076 6.68133C4.21485 7.00462 4.41176 7.29837 4.66019 7.54569C4.90862 7.79302 5.20367 7.98905 5.52841 8.12254C5.85315 8.25604 6.20117 8.32435 6.55251 8.32357Z" fill="currentColor"/>
  <path d="M33.8057 29.8302V32.7877H24.2993V29.8302C24.2993 28.5751 24.8001 27.3715 25.6915 26.4841C26.5829 25.5967 27.7919 25.0981 29.0525 25.0981C30.3131 25.0981 31.5221 25.5967 32.4135 26.4841C33.3049 27.3715 33.8057 28.5751 33.8057 29.8302ZM29.0525 23.3236C29.5813 23.3236 30.0982 23.1675 30.5379 22.875C30.9776 22.5825 31.3203 22.1668 31.5227 21.6804C31.725 21.194 31.778 20.6588 31.6748 20.1425C31.5716 19.6262 31.317 19.1519 30.9431 18.7796C30.5692 18.4074 30.0928 18.1539 29.5741 18.0511C29.0555 17.9484 28.5179 18.0012 28.0293 18.2026C27.5408 18.4041 27.1232 18.7452 26.8294 19.183C26.5356 19.6207 26.3788 20.1353 26.3788 20.6618C26.3781 21.0116 26.4467 21.358 26.5808 21.6813C26.7148 22.0046 26.9118 22.2984 27.1602 22.5457C27.4086 22.793 27.7037 22.9891 28.0284 23.1225C28.3531 23.256 28.7012 23.3244 29.0525 23.3236Z" fill="currentColor"/>
  <path d="M8.04932 33L28.0493 4.25" stroke="currentColor" stroke-width="1.875" stroke-linecap="round"/>
</svg>
