<?xml version="1.0"?>
<svg width="36" height="36" viewBox="0 0 36 36" fill="none" xmlns="http://www.w3.org/2000/svg">
  <path fill-rule="evenodd" clip-rule="evenodd" d="M33 18C33 26.2843 26.2843 33 18 33C15.031 33 12.2636 32.1374 9.93446 30.6492L4.35707 32.4107C3.95174 32.5387 3.58168 32.1347 3.74474 31.7421L5.81718 26.7529C4.04426 24.2896 3 21.2667 3 18C3 9.71573 9.71573 3 18 3C26.2843 3 33 9.71573 33 18ZM18 9.66667C16.3518 9.66667 14.7407 10.1554 13.3703 11.0711C11.9998 11.9868 10.9317 13.2883 10.301 14.811C9.67028 16.3337 9.50525 18.0092 9.82679 19.6258C10.1483 21.2423 10.942 22.7271 12.1074 23.8926C13.2729 25.058 14.7577 25.8517 16.3743 26.1732C17.9908 26.4948 19.6663 26.3297 21.189 25.699C22.7118 25.0683 24.0132 24.0002 24.9289 22.6298C25.8446 21.2593 26.3333 19.6482 26.3333 18C26.3333 16.9057 26.1178 15.822 25.699 14.811C25.2802 13.7999 24.6664 12.8813 23.8926 12.1074C23.1187 11.3336 22.2001 10.7198 21.189 10.301C20.178 9.88222 19.0944 9.66667 18 9.66667ZM13 16.3333C13 16.0037 13.0978 15.6815 13.2809 15.4074C13.464 15.1333 13.7243 14.9197 14.0289 14.7935C14.3334 14.6674 14.6685 14.6344 14.9918 14.6987C15.3151 14.763 15.6121 14.9217 15.8452 15.1548C16.0783 15.3879 16.237 15.6849 16.3013 16.0082C16.3656 16.3315 16.3326 16.6666 16.2065 16.9711C16.0803 17.2757 15.8667 17.536 15.5926 17.7191C15.3185 17.9023 14.9963 18 14.6667 18C14.2246 18 13.8007 17.8244 13.4882 17.5118C13.1756 17.1993 13 16.7754 13 16.3333ZM21.3333 18C21.0037 18 20.6815 17.9023 20.4074 17.7191C20.1333 17.536 19.9197 17.2757 19.7935 16.9711C19.6674 16.6666 19.6344 16.3315 19.6987 16.0082C19.763 15.6849 19.9217 15.3879 20.1548 15.1548C20.3879 14.9217 20.6849 14.763 21.0082 14.6987C21.3315 14.6344 21.6666 14.6674 21.9711 14.7935C22.2757 14.9197 22.536 15.1333 22.7191 15.4074C22.9023 15.6815 23 16.0037 23 16.3333C23 16.7754 22.8244 17.1993 22.5119 17.5118C22.1993 17.8244 21.7754 18 21.3333 18ZM19.9642 22.1864C20.4851 21.6655 20.7778 20.9589 20.7778 20.2222H15.2222C15.2222 20.9589 15.5149 21.6655 16.0358 22.1864C16.5568 22.7073 17.2633 23 18 23C18.7367 23 19.4433 22.7073 19.9642 22.1864Z" fill="currentColor"/>
</svg>
