<?xml version="1.0"?>
<svg width="174" height="174" viewBox="0 0 174 174" fill="none" xmlns="http://www.w3.org/2000/svg" role="presentation">
  <path fill-rule="evenodd" clip-rule="evenodd" d="M9.66699 29V130.5H58.0003L87.0003 164.333L116 130.5H164.334V29H9.66699ZM45.917 91.8333C43.5271 91.8333 41.1909 91.1247 39.2038 89.7969C37.2168 88.4692 35.668 86.582 34.7534 84.3741C33.8389 82.1661 33.5996 79.7366 34.0658 77.3927C34.5321 75.0487 35.6829 72.8957 37.3728 71.2058C39.0627 69.5159 41.2157 68.3651 43.5596 67.8988C45.9036 67.4326 48.3331 67.6719 50.5411 68.5865C52.749 69.501 54.6362 71.0498 55.9639 73.0369C57.2916 75.024 58.0003 77.3601 58.0003 79.75C58.0003 81.3368 57.6878 82.9081 57.0805 84.3741C56.4733 85.8401 55.5832 87.1722 54.4612 88.2942C53.3392 89.4162 52.0071 90.3063 50.5411 90.9135C49.0751 91.5208 47.5038 91.8333 45.917 91.8333ZM87.0003 91.8333C84.6105 91.8333 82.2743 91.1247 80.2872 89.7969C78.3001 88.4692 76.7513 86.582 75.8368 84.3741C74.9222 82.1661 74.6829 79.7366 75.1492 77.3927C75.6154 75.0487 76.7662 72.8957 78.4561 71.2058C80.146 69.5159 82.299 68.3651 84.643 67.8988C86.9869 67.4326 89.4165 67.6719 91.6244 68.5865C93.8324 69.501 95.7195 71.0498 97.0472 73.0369C98.375 75.024 99.0837 77.3601 99.0837 79.75C99.0837 81.3368 98.7711 82.9081 98.1639 84.3741C97.5566 85.8401 96.6666 87.1722 95.5445 88.2942C94.4225 89.4162 93.0904 90.3063 91.6244 90.9135C90.1584 91.5208 88.5871 91.8333 87.0003 91.8333ZM128.084 91.8333C125.694 91.8333 123.358 91.1247 121.371 89.7969C119.383 88.4692 117.835 86.582 116.92 84.3741C116.006 82.1661 115.766 79.7366 116.232 77.3927C116.699 75.0487 117.85 72.8957 119.539 71.2058C121.229 69.5159 123.382 68.3651 125.726 67.8988C128.07 67.4326 130.5 67.6719 132.708 68.5865C134.916 69.501 136.803 71.0498 138.131 73.0369C139.458 75.024 140.167 77.3601 140.167 79.75C140.167 82.9547 138.894 86.0281 136.628 88.2942C134.362 90.5603 131.288 91.8333 128.084 91.8333Z" fill="white"/>
</svg>
