<?xml version="1.0"?>
<svg width="36" height="36" viewBox="0 0 36 36" fill="none" xmlns="http://www.w3.org/2000/svg">
  <path fill-rule="evenodd" clip-rule="evenodd" d="M31.4096 7H1V23.5601H21.9066V19.8801H7.65209V18.0401H21.9066V17.7641C21.9066 17.2208 21.9876 16.6959 22.1387 16.2001H20.9563V14.36H22.8569V14.7117C23.7116 13.4671 25.0741 12.5776 26.6581 12.3204V10.68H28.5587V12.244H31.4096V7ZM5.75149 10.68H3.8509V12.52H5.75149V10.68ZM3.8509 18.0401H5.75149V19.8801H3.8509V18.0401ZM7.65209 14.36H3.8509V16.2001H7.65209V14.36ZM7.65209 10.68H9.55269V12.52H7.65209V10.68ZM11.4533 10.68H13.3539V12.52H11.4533V10.68ZM11.4533 14.36H9.55269V16.2001H11.4533V14.36ZM15.2545 10.68H17.1551V12.52H15.2545V10.68ZM15.2545 14.36H13.3539V16.2001H15.2545V14.36ZM17.1551 14.36H19.0557V16.2001H17.1551V14.36ZM20.9563 10.68H19.0557V12.52H20.9563V10.68ZM24.7575 10.68H22.8569V12.52H24.7575V10.68Z" fill="white"/>
  <path fill-rule="evenodd" clip-rule="evenodd" d="M27.9783 15.4332C26.3164 15.4332 24.9691 16.7376 24.9691 18.3466V25.1444C24.9691 27.8261 27.2146 30 29.9845 30C32.7545 30 35 27.8261 35 25.1444V18.3466C35 16.7376 33.6527 15.4332 31.9907 15.4332H27.9783ZM29.9845 17.861C29.4305 17.861 28.9814 18.2958 28.9814 18.8321V20.7744C28.9814 21.3107 29.4305 21.7455 29.9845 21.7455C30.5385 21.7455 30.9876 21.3107 30.9876 20.7744V18.8321C30.9876 18.2958 30.5385 17.861 29.9845 17.861Z" fill="white"/>
</svg>
