<?xml version="1.0"?>
<svg version="1.1" xmlns="http://www.w3.org/2000/svg" x="0px" y="0px" width="256px" height="256px" viewBox="0 0 256 256">
  <path d="M134.787,129.241v52.051v26.025c0.041,4.334-0.092,8.677,0.094,13.009c-1.493,4.332-3.129,8.675-5.239,13.009 c-2.109-4.334-3.734-8.677-5.237-13.009c0.186-4.333,0.05-8.677,0.092-33.009v-26.025v-32.051v-5.146h10.291V129.241z"/>
  <path d="M186.55,151.049H73.351l-5.146-5.146c0-23.791,11.186-40.359,30.871-46.091V39.394 c-6.843-3.478-17.164-10.034-17.154-27.312l5.146-5.146h85.167l5.146,5.146c0,17.227-9.828,23.803-16.537,27.292v60.521 c19.664,6.062,30.852,22.609,30.852,46.01L186.55,151.049z"/>
  <line opacity="" fill="none" stroke="#ffffff" stroke-width="16" stroke-linecap="round" stroke-miterlimit="10" x1="33.833" y1="238.5" x2="221.834" y2="238.5"/>
</svg>
