<?xml version="1.0"?>
<svg version="1.1" id="Layer_1" xmlns="http://www.w3.org/2000/svg" x="0px" y="0px" viewBox="0 0 256 256">
  <g>
    <path d="M216.3,84.7c-18,0-32.7,14.7-32.7,32.7c0,0.1,0,0.3,0,0.4l-21.1,30.6c-3.4-0.1-6.8,0.4-10.1,1.8c-1.4,0.6-2.8,1.3-4,2.1 l-95.1-39.3c-1.6-7.4-6.7-13.9-14.2-17.1c-12.2-5.1-26.2,0.7-31.3,12.9c-5.1,12.2,0.7,26.2,12.9,31.3c5.9,2.5,12.4,2.5,18.3,0 c1.4-0.6,2.6-1.2,3.9-2l95.3,39.4c1.6,7.3,6.7,13.8,14.1,16.9c12.2,5.1,26.2-0.7,31.3-12.9c1.3-3.2,1.9-6.5,1.8-9.8l30.2-21.5 c0.2,0,0.5,0,0.7,0c18.1,0,32.7-14.7,32.7-32.7C249,99.4,234.3,84.7,216.3,84.7z M22.8,135.1c-7.1-2.9-11.3-9.8-11.3-17 c0-2.4,0.5-4.8,1.4-7.1c3.9-9.4,14.7-13.8,24.1-9.9c4.4,1.8,7.7,5.2,9.6,9.3l-10.9-4.5c-6.9-2.9-14.9,0.4-17.8,7.3 c-2.9,6.9,0.4,14.9,7.3,17.8l10.9,4.5C31.8,137,27.1,136.9,22.8,135.1z M178.5,179.4c-3.9,9.4-14.7,13.8-24.1,9.9 c-4.3-1.8-7.6-5.1-9.5-9l10.7,4.4c6.9,2.9,14.9-0.4,17.8-7.3c2.9-6.9-0.4-14.9-7.3-17.8l-11-4.6c4.2-1.6,9.1-1.7,13.6,0.2 c4.5,1.9,8.1,5.4,10,10C180.4,169.9,180.4,174.9,178.5,179.4z M216.3,139.3c-12,0-21.8-9.8-21.8-21.8c0-12,9.8-21.8,21.8-21.8 c12,0,21.8,9.8,21.8,21.8C238.1,129.5,228.3,139.3,216.3,139.3z M216.3,133.8c-9,0-16.4-7.3-16.4-16.4s7.3-16.4,16.4-16.4 c9.1,0,16.4,7.3,16.4,16.4S225.4,133.8,216.3,133.8z"/>
  </g>
</svg>
