<?xml version="1.0"?>
<svg xmlns="http://www.w3.org/2000/svg" viewBox="0 0 36 36" fill="none">
  <path fill="currentColor" fill-rule="evenodd" clip-rule="evenodd" d="M6.6282 8C4.52356 8 2.77893 9.6309 2.63727 11.7308L1.28806 31.7308C1.13224 34.0406 2.96389 36 5.27899 36H30.7211C33.0362 36 34.8679 34.0406 34.7121 31.7308L33.3629 11.7308C33.2212 9.63091 31.4766 8 29.3719 8H6.6282ZM20.7179 28.0625H23.6519L20.6819 23.2925C21.4499 22.9565 22.0439 22.4645 22.4639 21.8165C22.8959 21.1685 23.1119 20.3585 23.1119 19.3865C23.1119 18.1505 22.7039 17.1905 21.8879 16.5065C21.0719 15.8105 19.7999 15.4625 18.0719 15.4625H13.3559V28.0625H16.0019V23.8145H17.8739H18.1799L20.7179 28.0625ZM16.0019 21.5465V17.7125H17.9099C18.7379 17.7125 19.3379 17.8685 19.7099 18.1805C20.0939 18.4805 20.2859 18.9365 20.2859 19.5485C20.2859 20.1725 20.0879 20.6645 19.6919 21.0245C19.3079 21.3725 18.7679 21.5465 18.0719 21.5465H16.0019Z"/>
  <path fill="currentColor" d="M24 0H12L18 6L24 0Z"/>
</svg>
