<?xml version="1.0"?>
<svg xmlns="http://www.w3.org/2000/svg" viewBox="0 0 36 36" fill="none">
  <path fill="currentColor" d="M29.9629 13.5234C32.7448 13.5234 35 15.7786 35 18.5605V22.3379C35 25.1198 32.7448 27.375 29.9629 27.375H6.03711C3.2552 27.375 1 25.1198 1 22.3379V18.5605C1 15.7786 3.2552 13.5234 6.03711 13.5234H29.9629ZM13.2139 17.2334C12.5432 17.2334 11.999 17.7776 11.999 18.4482C11.9991 19.1189 12.5433 19.6621 13.2139 19.6621C13.8843 19.6619 14.4277 19.1187 14.4277 18.4482C14.4277 17.7777 13.8843 17.2336 13.2139 17.2334ZM18.6777 17.2334C18.0071 17.2334 17.4639 17.7776 17.4639 18.4482C17.4639 19.1189 18.0071 19.6621 18.6777 19.6621C19.3483 19.6621 19.8916 19.1188 19.8916 18.4482C19.8916 17.7776 19.3484 17.2334 18.6777 17.2334ZM23.5342 17.2334C22.8636 17.2335 22.3203 17.7776 22.3203 18.4482C22.3203 19.1188 22.8636 19.6621 23.5342 19.6621C24.2048 19.6621 24.749 19.1189 24.749 18.4482C24.749 17.7776 24.2048 17.2334 23.5342 17.2334Z"/>
  <rect fill="currentColor" x="16" y="13" width="5" height="3"/>
</svg>
