<svg width="83" height="130" viewBox="0 0 83 130" fill="none" xmlns="http://www.w3.org/2000/svg">
<path d="M78.9225 7.66314H47.3826V5.47367C47.3826 2.46315 44.7663 0 41.5687 0C38.3711 0 35.7549 2.46315 35.7549 5.47367V7.66314H4.21501C1.88949 7.66314 0 9.44209 0 11.6316V74.7157C0 76.9051 1.88949 78.6841 4.21501 78.6841H19.767L4.65105 122.747C3.63363 125.621 5.23243 128.768 8.43003 129.726C11.6276 130.684 14.8252 129.042 15.8426 126.168L22.9646 105.642H60.4636L67.5855 126.168C68.3123 128.495 70.6378 130 73.1087 130C73.69 130 74.2714 129.863 74.8528 129.726C77.9051 128.768 79.6492 125.621 78.6318 122.747L63.2252 78.8209H78.7771C81.1026 78.8209 82.9921 77.042 82.9921 74.8525V11.6316C83.1375 9.44209 81.248 7.66314 78.9225 7.66314ZM49.8534 22.5789C53.1964 22.5789 55.9579 25.1789 55.9579 28.3263C55.9579 31.4736 53.1964 34.0736 49.8534 34.0736C46.5105 34.0736 43.7489 31.4736 43.7489 28.3263C43.7489 25.1789 46.5105 22.5789 49.8534 22.5789ZM26.5982 94.6946L32.1213 78.6841H50.8708L56.394 94.6946H26.5982ZM65.4054 61.1683C64.824 61.9894 63.9519 62.5367 62.9345 62.5367H20.3483C19.3309 62.5367 18.3135 61.9894 17.8775 61.1683C17.2961 60.2104 17.4414 59.2525 18.0228 58.4315L32.5573 38.3157C33.5748 36.8105 36.191 36.8105 37.2084 38.3157L45.3477 49.5368L49.8534 43.5157C50.8708 42.0104 53.4871 42.0104 54.5045 43.5157L65.26 58.4315C65.8414 59.2525 65.8414 60.2104 65.4054 61.1683Z" fill="url(#paint0_linear)" fill-opacity="0.85"/>
<defs>
<linearGradient id="paint0_linear" x1="41.5" y1="0" x2="41.5" y2="130" gradientUnits="userSpaceOnUse">
<stop stop-color="white"/>
<stop offset="1" stop-color="white" stop-opacity="0.58"/>
</linearGradient>
</defs>
</svg>
