<?xml version="1.0"?>
<svg width="36" height="36" viewBox="0 0 36 36" fill="none" xmlns="http://www.w3.org/2000/svg">
  <g clip-path="">
    <path fill-rule="evenodd" clip-rule="evenodd" d="M0.400879 7.38525H36.4009V29.7798H0.400879V7.38525ZM12.6345 26.2414H9.28326L3.47884 10.909H7.0053L11.0355 22.5835L14.9563 10.909H18.4827L12.6345 26.2414ZM29.3047 26.2414H32.875L29.2609 20.437C30.1954 20.0281 30.9182 19.4294 31.4294 18.6409C31.9551 17.8524 32.2179 16.8667 32.2179 15.6839C32.2179 14.1799 31.7214 13.0117 30.7285 12.1794C29.7354 11.3324 28.1877 10.909 26.0849 10.909H20.3462V26.2414H23.566V21.0722H25.844H26.2163L29.3047 26.2414ZM23.566 18.3124V13.6469H25.8878C26.8954 13.6469 27.6254 13.8368 28.0781 14.2164C28.5454 14.5815 28.7791 15.1363 28.7791 15.8811C28.7791 16.6404 28.5381 17.2391 28.0562 17.6772C27.5889 18.1006 26.9318 18.3124 26.0849 18.3124H23.566Z" fill="currentColor"/>
  </g>
  <defs>
    <clipPath id="">
      <rect width="36" height="36" fill="currentColor" transform="translate(0.400879 0.825195)"/>
    </clipPath>
  </defs>
</svg>
