<?xml version="1.0"?>
<svg xmlns="http://www.w3.org/2000/svg" viewBox="0 0 231 298" fill="none">
  <path stroke="currentColor" d="M113.208 132.606C113.208 117.784 101.193 105.769 86.3714 105.769H32.3618C26.6947 105.769 22.1007 101.175 22.1007 95.5076C22.1007 89.8405 26.6534 85.2464 32.3204 85.2464C56.3845 85.2464 117.394 85.2464 154.719 85.2464C159.951 85.2464 164.178 81.0057 164.178 75.7746C164.178 70.5435 159.937 66.3028 154.706 66.3028H33.1511C27.0481 66.3028 22.1006 61.3553 22.1006 55.2523C22.1006 49.1493 27.0481 44.2018 33.1511 44.2018H154.706C159.937 44.2018 164.178 39.9612 164.178 34.73C164.178 29.4989 159.977 25.2582 154.746 25.2582C139.856 25.2582 110.342 25.2582 88.3916 25.2582C74.4419 25.2582 63.1451 13.9497 63.1451 0" stroke-width="6.31455"/>
  <rect fill="currentColor" x="44.2002" width="37.8873" height="9.47183"/>
  <rect fill="currentColor" x="107.347" y="132.605" width="12.6291" height="12.6291"/>
  <path fill="currentColor" d="M108.036 176.783L107.806 173.823L112.827 175.993L110.949 178.029L108.036 176.783Z"/>
  <path fill="currentColor" d="M118.493 169.156C120.175 169.156 121.541 170.576 121.541 172.324C121.541 174.072 120.175 175.491 118.493 175.491H118.425L115.675 177.53V177.64C115.675 178.949 114.651 180.02 113.385 180.021C112.28 180.021 111.349 179.201 111.144 178.111L108.046 176.782L112.105 175.679C112.472 175.414 112.919 175.266 113.391 175.266H113.521L115.445 172.362V172.324C115.445 170.576 116.811 169.156 118.493 169.156ZM114.053 175.988C113.631 175.808 113.184 175.814 112.787 175.969L113.812 176.407C114.457 176.685 114.761 177.453 114.494 178.124C114.227 178.795 113.482 179.11 112.843 178.833H112.837L111.844 178.407C112.018 178.788 112.321 179.104 112.73 179.285C113.606 179.666 114.612 179.233 114.979 178.323C115.152 177.885 115.158 177.401 114.979 176.956C114.805 176.517 114.475 176.169 114.053 175.988ZM118.5 170.214C117.383 170.214 116.47 171.162 116.47 172.323C116.47 173.485 117.383 174.434 118.5 174.434C119.617 174.434 120.53 173.485 120.53 172.323C120.53 171.162 119.617 170.214 118.5 170.214ZM118.5 170.73C119.344 170.73 120.027 171.44 120.027 172.317C120.027 173.195 119.344 173.904 118.5 173.904C117.656 173.904 116.973 173.195 116.973 172.317C116.973 171.44 117.656 170.73 118.5 170.73Z"/>
  <path fill="currentColor" d="M166.057 138.811C167.82 135.031 175.757 135.409 183.316 136.543C190.875 137.677 196.041 140.448 198.938 142.968C201.257 144.984 202.425 149.351 202.719 151.283C205.616 153.551 208.892 159.095 210.403 162.118C211.613 164.539 220.986 199.578 225.521 216.796C227.663 225.615 231.595 247.486 230.184 264.418C228.42 285.583 217.838 291.001 216.325 292.639C214.813 294.276 203.852 298.812 196.671 296.922C189.49 295.032 186.718 289.111 185.206 285.709C183.694 282.307 179.663 275.253 175.506 271.978C172.388 269.521 168.435 268.865 166.534 268.827H65.3945C63.4796 268.827 61.3204 269.163 60.4805 269.331C53.9295 270.717 48.26 278.15 45.1104 285.457C41.9607 292.764 38.0555 298.686 25.9609 296.922C13.8663 295.158 8.82648 289.111 4.41699 281.048C0.00769663 272.985 0.259771 256.103 0.0078125 248.796C-0.193764 242.95 3.70396 222.423 5.67773 212.89L15.7559 175.977C16.3858 173.457 18.0747 167.258 19.7881 162.622C21.5014 157.986 25.7928 152.963 27.7246 151.031C27.4222 149.519 28.9423 146.537 29.7402 145.235C32.5119 140.322 40.3229 138.181 43.3467 137.173C46.3703 136.165 57.9617 135.409 61.3633 136.543C64.0841 137.45 64.8486 139.944 64.8906 141.078L111.631 139.944L158.371 140.7L165.427 140.952L166.057 138.811ZM59.6689 207.381C54.5978 206.491 49.7655 209.88 48.875 214.951L43.6904 244.48C42.8002 249.552 46.1895 254.384 51.2607 255.274L82.0127 260.674C87.084 261.564 91.9172 258.175 92.8076 253.104L97.9912 223.575C98.8816 218.504 95.4922 213.671 90.4209 212.78L59.6689 207.381ZM181.196 214.951C180.306 209.88 175.473 206.491 170.402 207.381L139.65 212.78C134.579 213.671 131.19 218.504 132.08 223.575L137.264 253.104C138.154 258.175 142.987 261.564 148.059 260.674L178.811 255.274C183.882 254.384 187.271 249.552 186.381 244.48L181.196 214.951ZM81.1182 178.278C73.3942 178.278 67.1328 184.54 67.1328 192.264C67.1328 199.988 73.3942 206.249 81.1182 206.249C88.8422 206.249 95.1035 199.988 95.1035 192.264C95.1035 184.54 88.8422 178.278 81.1182 178.278ZM148.247 178.278C140.523 178.278 134.262 184.54 134.262 192.264C134.262 199.988 140.523 206.249 148.247 206.249C155.971 206.249 162.232 199.988 162.232 192.264C162.232 184.54 155.971 178.278 148.247 178.278ZM186.335 179.856C182.23 179.856 178.901 183.185 178.901 187.29C178.901 191.395 182.23 194.723 186.335 194.723C190.44 194.723 193.768 191.395 193.769 187.29C193.769 183.185 190.44 179.856 186.335 179.856ZM43.8809 156.171C42.4856 156.171 39.8852 156.742 38.4893 157.075C37.9314 157.208 37.5459 157.709 37.5459 158.282V166.25C37.5458 166.946 36.9817 167.51 36.2861 167.51H28.3389C27.8141 167.51 27.3461 167.835 27.1953 168.338C26.8596 169.458 26.3321 171.575 26.332 173.809C26.3321 176.042 26.8596 178.159 27.1953 179.279C27.3459 179.782 27.814 180.108 28.3389 180.108H36.2861C36.9817 180.109 37.5459 180.673 37.5459 181.368V189.321C37.5459 189.842 37.8659 190.309 38.3623 190.468C39.5238 190.839 41.7459 191.447 43.8457 191.447C45.9451 191.447 48.1659 190.839 49.3271 190.468C49.8235 190.309 50.1445 189.842 50.1445 189.321V181.368C50.1445 180.672 50.7085 180.108 51.4043 180.108H59.3623C59.8809 180.108 60.3451 179.791 60.4971 179.295C60.8326 178.2 61.3564 176.12 61.3564 173.809C61.3564 171.497 60.8326 169.418 60.4971 168.323C60.345 167.827 59.8809 167.51 59.3623 167.51H51.4043C50.7086 167.51 50.1446 166.946 50.1445 166.25V158.278C50.1445 157.707 49.7606 157.208 49.2051 157.073C47.8277 156.74 45.273 156.171 43.8809 156.171ZM115.026 165.746C110.504 165.746 106.838 169.413 106.838 173.936C106.838 178.458 110.504 182.124 115.026 182.124C119.549 182.124 123.216 178.458 123.216 173.936C123.216 169.413 119.549 165.746 115.026 165.746ZM172.729 166.25C168.623 166.25 165.295 169.578 165.295 173.684C165.295 177.789 168.623 181.116 172.729 181.116C176.833 181.116 180.161 177.788 180.161 173.684C180.161 169.579 176.834 166.25 172.729 166.25ZM199.688 166.25C195.583 166.25 192.255 169.578 192.255 173.684C192.255 177.789 195.583 181.116 199.688 181.116C203.793 181.116 207.121 177.789 207.121 173.684C207.121 169.578 203.794 166.25 199.688 166.25ZM186.081 153.147C181.976 153.148 178.648 156.476 178.648 160.581C178.648 164.686 181.976 168.015 186.081 168.015C190.186 168.015 193.515 164.686 193.515 160.581C193.515 156.476 190.186 153.147 186.081 153.147Z"/>
  <path fill="currentColor" d="M170.984 210.687C174.23 210.117 177.323 212.286 177.893 215.531L183.077 245.061C183.647 248.306 181.478 251.399 178.232 251.969L147.48 257.368C144.235 257.938 141.141 255.768 140.571 252.522L135.387 222.994C134.817 219.749 136.987 216.656 140.232 216.086L170.984 210.687ZM138.356 256.127C138.283 255.998 138.212 255.866 138.145 255.733C138.212 255.866 138.283 255.998 138.356 256.127ZM137.452 253.936C137.379 253.664 137.315 253.386 137.266 253.104C137.315 253.386 137.379 253.664 137.452 253.936ZM186.507 246.617C186.537 246.068 186.522 245.51 186.452 244.947L186.383 244.479C186.509 245.2 186.546 245.917 186.507 246.617ZM181.045 214.253C181.064 214.329 181.086 214.404 181.104 214.48L181.198 214.951C181.157 214.714 181.103 214.482 181.045 214.253ZM180.36 212.404C180.48 212.646 180.592 212.893 180.691 213.146C180.592 212.893 180.48 212.646 180.36 212.404ZM138.487 256.343C138.444 256.271 138.398 256.2 138.356 256.127C138.398 256.2 138.444 256.271 138.487 256.343ZM137.691 254.687C137.665 254.613 137.636 254.54 137.611 254.465C137.636 254.54 137.665 254.613 137.691 254.687ZM137.597 254.42C137.553 254.289 137.512 254.156 137.475 254.022C137.512 254.156 137.553 254.289 137.597 254.42ZM186.383 247.71C186.362 247.83 186.337 247.948 186.312 248.066C186.337 247.948 186.362 247.83 186.383 247.71ZM131.967 221.241C131.97 221.196 131.975 221.151 131.979 221.106C131.975 221.151 131.97 221.196 131.967 221.241ZM180.757 213.325C180.788 213.41 180.821 213.496 180.85 213.582C180.821 213.496 180.788 213.41 180.757 213.325ZM180.931 213.842C180.95 213.905 180.97 213.968 180.988 214.031C180.97 213.968 180.95 213.905 180.931 213.842ZM179.945 211.66C180 211.749 180.055 211.838 180.107 211.929C180.055 211.838 180 211.749 179.945 211.66ZM180.126 211.962C180.194 212.082 180.26 212.204 180.323 212.328C180.26 212.204 180.194 212.082 180.126 211.962Z"/>
  <path fill="currentColor" d="M51.2656 255.274L80.8438 260.467L51.2656 255.275C51.2466 255.272 51.2279 255.267 51.209 255.263L51.2656 255.274ZM52.1855 215.532C52.7553 212.286 55.8484 210.117 59.0938 210.686L89.8467 216.085C93.092 216.655 95.2612 219.749 94.6914 222.995L89.5068 252.523C88.937 255.768 85.844 257.937 82.5986 257.368L51.8457 251.968C48.6005 251.398 46.4322 248.305 47.002 245.06L52.1855 215.532ZM92.6016 254.026C92.6078 254.004 92.6141 253.982 92.6201 253.959C92.6141 253.982 92.6078 254.004 92.6016 254.026ZM43.625 247.25C43.6435 247.398 43.6658 247.546 43.6914 247.693C43.6658 247.546 43.6436 247.398 43.625 247.25ZM49.2275 213.583C49.0796 214.023 48.9627 214.48 48.8799 214.952L43.6963 244.48C43.641 244.795 43.601 245.109 43.5781 245.421C43.601 245.109 43.64 244.795 43.6953 244.48L48.8799 214.951C48.9627 214.479 49.0796 214.023 49.2275 213.583ZM98.1211 221.433C98.1349 221.679 98.1418 221.928 98.1357 222.177C98.1418 221.928 98.1349 221.679 98.1211 221.433ZM59.6748 207.38H59.6738H59.6748ZM43.7461 247.967C43.7273 247.876 43.7074 247.785 43.6914 247.693C43.7074 247.785 43.7273 247.876 43.7461 247.967ZM43.6035 247.036C43.6107 247.107 43.6161 247.179 43.625 247.25C43.6161 247.179 43.6107 247.107 43.6035 247.036ZM43.5566 246.129C43.5564 246.045 43.5546 245.961 43.5566 245.876C43.5546 245.961 43.5564 246.045 43.5566 246.129ZM97.8525 219.677C97.873 219.758 97.8938 219.839 97.9121 219.92C97.8938 219.839 97.873 219.758 97.8525 219.677Z"/>
  <circle fill="currentColor" cx="81.1193" cy="192.264" r="10.629"/>
  <circle fill="currentColor" cx="148.251" cy="192.263" r="10.629"/>
</svg>
