<?xml version="1.0"?>
<svg xmlns="http://www.w3.org/2000/svg" viewBox="0 0 36 36" fill="none">
  <path fill="currentColor" d="M30.0324 15.7047C29.6691 14.4082 29.2113 13.151 28.6674 11.941C27.8612 10.1483 26.0725 9 24.1063 9H11.9274C9.96162 9 8.17251 10.1483 7.36666 11.941C6.82276 13.151 6.36497 14.4082 6.0017 15.7047C5.34925 18.0309 5 20.4837 5 23.0181C5 23.488 5.01202 23.9554 5.03565 24.4192C5.11014 25.8766 6.30769 27.0233 7.76678 27.0233C8.75486 27.0233 9.66684 26.491 10.1499 25.6291C10.1555 25.6187 10.1615 25.6087 10.1671 25.5983C10.7178 24.6242 11.7479 24.0194 12.867 24.0194H23.1659C24.285 24.0194 25.3151 24.6242 25.8658 25.5983C25.8714 25.6083 25.8774 25.6187 25.883 25.6287C26.3661 26.4906 27.278 27.0229 28.2661 27.0229C29.7256 27.0229 30.9227 25.8766 30.9972 24.4188C31.0209 23.9546 31.0329 23.4875 31.0329 23.0177C31.0329 20.4833 30.6836 18.0305 30.0316 15.7043L30.0324 15.7047ZM23.3105 11.0026C23.8636 11.0026 24.3118 11.4508 24.3118 12.0039C24.3118 12.557 23.8636 13.0052 23.3105 13.0052C22.7574 13.0052 22.3092 12.557 22.3092 12.0039C22.3092 11.4508 22.7574 11.0026 23.3105 11.0026ZM24.3118 16.0091C24.3118 16.5622 23.8636 17.0104 23.3105 17.0104C22.7574 17.0104 22.3092 16.5622 22.3092 16.0091C22.3092 15.456 22.7574 15.0078 23.3105 15.0078C23.8636 15.0078 24.3118 15.456 24.3118 16.0091ZM12.7232 12.0039C13.829 12.0039 14.7258 12.9006 14.7258 14.0065C14.7258 15.1123 13.829 16.0091 12.7232 16.0091C11.6174 16.0091 10.7206 15.1123 10.7206 14.0065C10.7206 12.9006 11.6174 12.0039 12.7232 12.0039ZM14.9333 18.864L14.4695 21.7914C14.4246 22.0753 14.1579 22.2692 13.8739 22.2243L10.9465 21.7605C10.6625 21.7157 10.4687 21.4489 10.5135 21.1649L10.9773 18.2376C11.0222 17.9536 11.2889 17.7597 11.5729 17.8046L14.5003 18.2684C14.7843 18.3133 14.9781 18.58 14.9333 18.864ZM20.3066 14.0065C20.3066 13.4534 20.7548 13.0052 21.3079 13.0052C21.861 13.0052 22.3092 13.4534 22.3092 14.0065C22.3092 14.5596 21.861 15.0078 21.3079 15.0078C20.7548 15.0078 20.3066 14.5596 20.3066 14.0065ZM25.0872 21.7605L22.1598 22.2243C21.8758 22.2692 21.6091 22.0757 21.5642 21.7914L21.1004 18.864C21.0556 18.58 21.249 18.3133 21.5334 18.2684L24.4608 17.8046C24.7448 17.7597 25.0115 17.9536 25.0564 18.2376L25.5202 21.1649C25.565 21.4489 25.3712 21.7157 25.0872 21.7605ZM25.3131 15.0078C24.76 15.0078 24.3118 14.5596 24.3118 14.0065C24.3118 13.4534 24.76 13.0052 25.3131 13.0052C25.8662 13.0052 26.3144 13.4534 26.3144 14.0065C26.3144 14.5596 25.8662 15.0078 25.3131 15.0078Z"/>
</svg>
