<?xml version="1.0"?>
<svg width="23" height="23" viewBox="0 0 23 23" fill="none" xmlns="http://www.w3.org/2000/svg">
  <path d="M15.3252 10.8948L9.73258 7.16634C9.24837 6.85161 8.6189 7.19055 8.6189 7.77161V15.2284C8.6189 15.8095 9.27258 16.1484 9.73258 15.8337L15.3252 12.1053C15.761 11.8148 15.761 11.1853 15.3252 10.8948Z" fill="#C3D3D8"/>
  <path d="M11.5 0C5.15684 0 0 5.15684 0 11.5C0 17.8432 5.15684 23 11.5 23C17.8432 23 23 17.8432 23 11.5C23 5.15684 17.8432 0 11.5 0ZM11.5 21.2084C6.14947 21.2084 1.79158 16.8505 1.79158 11.5C1.79158 6.14947 6.14947 1.79158 11.5 1.79158C16.8505 1.79158 21.2084 6.14947 21.2084 11.5C21.2084 16.8505 16.8505 21.2084 11.5 21.2084Z" fill="#C3D3D8"/>
</svg>
