<?xml version="1.0"?>
<svg xmlns="http://www.w3.org/2000/svg" version="1.1" id="Layer_1" x="0px" y="0px" viewBox="0 0 36 36">
  <path fill="currentColor" opacity="0.5" d="M12.9,6.2c-0.2,0-0.4-0.1-0.5-0.2c-0.2-0.2-0.5-0.4-1.2-0.4c-1.1,0-4.5,1.1-5.1,1.7S5.6,8.4,5.6,8.4v0.1  c-0.4,0.3-0.8,0.7-1.1,1C3.4,10.7,0,20.2,0,25.3s3.4,5.6,3.4,5.6c0.9,0,2.3-1.8,3.7-3.5c1.2-1.5,2.3-3,3.1-3.2  c0.8-0.3,4.4-0.4,7.9-0.4V6.2H12.9z M8.4,14.6c-1.2,0-2.2-1-2.2-2.2s1-2.2,2.2-2.2s2.2,1,2.2,2.2S9.7,14.6,8.4,14.6z M15.8,18.8  c0,0.3-0.3,0.6-0.6,0.6h-0.8v0.8c0,0.3-0.3,0.6-0.6,0.6h-1.1c-0.3,0-0.6-0.3-0.6-0.6v-0.8h-0.8c-0.3,0-0.6-0.3-0.6-0.6v-1.1  c0-0.3,0.3-0.6,0.6-0.6h0.8v-0.8c0-0.3,0.3-0.6,0.6-0.6h1.1c0.3,0,0.6,0.3,0.6,0.6v0.8h0.8c0.3,0,0.6,0.3,0.6,0.6V18.8z"/>
  <path fill="currentColor" d="M31.5,9.6c-0.3-0.3-0.7-0.6-1.1-1V8.4c0,0,0-0.6-0.6-1.1s-3.9-1.7-5.1-1.7c-0.7,0-0.9,0.2-1.2,0.4c-0.2,0.1-0.3,0.2-0.5,0.2  H18v17.6c3.5,0,7,0.1,7.9,0.4c0.8,0.3,1.9,1.7,3.1,3.2c1.4,1.7,2.8,3.5,3.7,3.5c0,0,3.4-0.6,3.4-5.6S32.6,10.7,31.5,9.6z M27.6,8.7  c0.8,0,1.4,0.6,1.4,1.4s-0.6,1.4-1.4,1.4s-1.4-0.6-1.4-1.4S26.8,8.7,27.6,8.7z M23.1,20.2c-1.2,0-2.2-1-2.2-2.2s1-2.2,2.2-2.2  s2.2,1,2.2,2.2S24.3,20.2,23.1,20.2z M25,14.1c-0.8,0-1.4-0.6-1.4-1.4c0-0.8,0.6-1.4,1.4-1.4c0.8,0,1.4,0.6,1.4,1.4  C26.4,13.4,25.8,14.1,25,14.1z M27.6,16.6c-0.8,0-1.4-0.6-1.4-1.4s0.6-1.4,1.4-1.4s1.4,0.6,1.4,1.4S28.3,16.6,27.6,16.6z M30.1,14.1  c-0.8,0-1.4-0.6-1.4-1.4c0-0.8,0.6-1.4,1.4-1.4c0.8,0,1.4,0.6,1.4,1.4C31.5,13.4,30.9,14.1,30.1,14.1z"/>
</svg>
