<?xml version="1.0"?>
<svg xmlns="http://www.w3.org/2000/svg" viewBox="0 0 30 30" fill="none">
  <path fill="currentColor" d="M21.725 15.0001L11.6666 20.8917V9.10841L21.725 15.0001Z"/>
  <path fill="currentColor" fill-rule="evenodd" clip-rule="evenodd" d="M15 1.66675C12.3629 1.66675 9.78502 2.44873 7.59236 3.91382C5.39971 5.3789 3.69074 7.46129 2.68157 9.89763C1.6724 12.334 1.40836 15.0149 1.92283 17.6013C2.4373 20.1877 3.70717 22.5635 5.57187 24.4282C7.43657 26.2929 9.81235 27.5627 12.3988 28.0772C14.9852 28.5917 17.6661 28.3276 20.1024 27.3185C22.5388 26.3093 24.6211 24.6003 26.0862 22.4077C27.5513 20.215 28.3333 17.6372 28.3333 15.0001C28.3333 13.2491 27.9884 11.5153 27.3184 9.89763C26.6483 8.27996 25.6662 6.8101 24.4281 5.57199C23.1899 4.33388 21.7201 3.35175 20.1024 2.68169C18.4847 2.01162 16.7509 1.66675 15 1.66675ZM9.44426 6.68539C11.0888 5.58657 13.0222 5.00008 15 5.00008C16.3132 5.00008 17.6135 5.25874 18.8268 5.76129C20.0401 6.26383 21.1424 7.00043 22.071 7.92901C22.9996 8.8576 23.7362 9.95999 24.2388 11.1732C24.7413 12.3865 25 13.6869 25 15.0001C25 16.9779 24.4135 18.9113 23.3147 20.5558C22.2158 22.2003 20.6541 23.482 18.8268 24.2389C16.9995 24.9957 14.9889 25.1938 13.0491 24.8079C11.1093 24.4221 9.32742 23.4697 7.9289 22.0711C6.53037 20.6726 5.57796 18.8908 5.19211 16.951C4.80626 15.0112 5.00429 13.0005 5.76117 11.1732C6.51805 9.34599 7.79977 7.7842 9.44426 6.68539Z"/>
</svg>
