<?xml version="1.0"?>
<svg viewBox="0 0 48 48" fill="none" xmlns="http://www.w3.org/2000/svg">
  <path fill-rule="evenodd" clip-rule="evenodd" d="M24.0001 45.6002C35.9295 45.6002 45.6002 35.9295 45.6002 24.0001C45.6002 12.0708 35.9295 2.40015 24.0001 2.40015C12.0708 2.40015 2.40015 12.0708 2.40015 24.0001C2.40015 35.9295 12.0708 45.6002 24.0001 45.6002ZM20.6659 36H27.3326V22.6667H20.6659V36ZM21.777 19.3259C22.4348 19.7654 23.2081 20 23.9993 20C25.0601 20 26.0775 19.5786 26.8277 18.8285C27.5778 18.0783 27.9993 17.0609 27.9993 16C27.9993 15.2089 27.7647 14.4355 27.3251 13.7777C26.8856 13.1199 26.2609 12.6073 25.53 12.3045C24.7991 12.0018 23.9948 11.9225 23.2189 12.0769C22.443 12.2312 21.7302 12.6122 21.1708 13.1716C20.6114 13.731 20.2305 14.4437 20.0761 15.2197C19.9218 15.9956 20.001 16.7999 20.3037 17.5308C20.6065 18.2617 21.1192 18.8864 21.777 19.3259Z" fill="currentColor"/>
</svg>
