<?xml version="1.0"?>
<svg version="1.1" xmlns="http://www.w3.org/2000/svg" viewBox="0 0 36 36" fill="none">
  <g>
    <path d="M18.224 17.281a.825.825 0 0 1 0 1.375l-6.268 4.148a.825.825 0 0 1-1.28-.688v-8.294a.825.825 0 0 1 1.28-.688l6.268 4.147Z"/>
    <rect x="5.43" y="16.65" width="6.91" height="2.734" rx="0.825"/>
    <path d="M7.635 10.385h22.652c.603 0 1.16-.324 1.46-.848a1.705 1.705 0 0 0 0-1.697 1.685 1.685 0 0 0-1.46-.848H7.635c-.603 0-1.16.323-1.46.848a1.705 1.705 0 0 0 0 1.697c.3.524.857.848 1.46.848Zm15.168 9.33h7.484c.603 0 1.16-.324 1.46-.849a1.705 1.705 0 0 0 0-1.696 1.685 1.685 0 0 0-1.46-.848h-7.484c-.603 0-1.16.323-1.461.848a1.705 1.705 0 0 0 0 1.696c.301.525.858.848 1.46.848ZM7.635 29.043h22.652c.603 0 1.16-.323 1.46-.848a1.705 1.705 0 0 0 0-1.697 1.685 1.685 0 0 0-1.46-.848H7.635c-.603 0-1.16.323-1.46.848a1.705 1.705 0 0 0 0 1.697c.3.524.857.848 1.46.848Z"/>
  </g>
</svg>
