<?xml version="1.0"?>
<svg width="24" height="24" viewBox="0 0 24 24" fill="none" xmlns="http://www.w3.org/2000/svg" version="1.1" overflow="visible">
  <path fill-rule="evenodd" clip-rule="evenodd" d="M15.7809 13.8303L21.7716 19.7344C22.0764 20.0348 22.0758 20.5226 21.7716 20.8225L20.8057 21.7746C20.5008 22.0751 20.0063 22.0751 19.7016 21.7746L13.6519 15.8124C12.4785 16.5435 11.0879 16.9667 9.59684 16.9667C5.40156 16.9667 2 13.616 2 9.48334C2 5.35072 5.40139 2 9.59667 2C13.7919 2 17.1935 5.35089 17.1935 9.48334C17.1935 11.1042 16.6702 12.6049 15.781 13.8302L15.7809 13.8303ZM9.59672 15.0959C6.45485 15.0959 3.89918 12.5784 3.89918 9.48332C3.89918 6.38855 6.45502 3.87078 9.59672 3.87078C12.7384 3.87078 15.2943 6.38855 15.2943 9.48332C15.2941 12.5783 12.7382 15.0959 9.59672 15.0959ZM9.59061 5.17176C7.17702 5.17176 5.22028 7.09913 5.22028 9.47612H6.31286C6.31286 7.69589 7.78314 6.24777 9.5907 6.24777L9.59061 5.17176Z" fill="currentColor"/>
</svg>
