<?xml version="1.0"?>
<svg viewBox="0 0 36 36" fill="none" xmlns="http://www.w3.org/2000/svg">
  <path fill-rule="evenodd" clip-rule="evenodd" d="M26.6202 9H2C0.895431 9 0 9.89543 0 11V24C0 25.6569 1.34315 27 3 27H33C34.6569 27 36 25.6569 36 24V20.4722C35.4229 20.9887 34.7452 21.3952 34 21.6586V24.5C34 24.7761 33.7761 25 33.5 25H30.5C30.2239 25 30 24.7761 30 24.5V21.6586C29.2548 21.3952 28.5771 20.9887 28 20.4722V25H8V11H27.0252L26.6202 9ZM6 14C6 15.1046 5.10457 16 4 16C2.89543 16 2 15.1046 2 14C2 12.8954 2.89543 12 4 12C5.10457 12 6 12.8954 6 14ZM2.5 21C2.22386 21 2 21.2239 2 21.5V24.5C2 24.7761 2.22386 25 2.5 25H5.5C5.77614 25 6 24.7761 6 24.5V21.5C6 21.2239 5.77614 21 5.5 21H2.5Z" fill="white"/>
  <path d="M30.17 10L29 2H35.74L34.61 10H30.17Z" fill="#FFC82C"/>
  <path d="M32.3925 18.74C33.9775 18.74 35.2625 17.4551 35.2625 15.87C35.2625 14.2849 33.9775 13 32.3925 13C30.8074 13 29.5225 14.2849 29.5225 15.87C29.5225 17.4551 30.8074 18.74 32.3925 18.74Z" fill="#FFC82C"/>
</svg>
