<?xml version="1.0"?>
<svg xmlns="http://www.w3.org/2000/svg" viewBox="0 0 36 36" fill="none">
  <circle fill="currentColor" cx="18" cy="18" r="18"/>
  <path fill="currentColor" d="M17.8599 10.3361C18.8719 10.3361 19.7519 10.4974 20.4999 10.8201C21.2626 11.1427 21.8493 11.5974 22.2599 12.1841C22.6706 12.7561 22.8759 13.4234 22.8759 14.1861C22.8759 14.6994 22.7879 15.1541 22.6119 15.5501C22.4359 15.9461 22.2159 16.2834 21.9519 16.5621C21.7026 16.8407 21.3579 17.1781 20.9179 17.5741C20.4633 17.9701 20.0966 18.3221 19.8179 18.6301C19.5539 18.9234 19.3266 19.2901 19.1359 19.7301C18.9453 20.1554 18.8499 20.6541 18.8499 21.2261H16.1659C16.1659 20.4047 16.2686 19.7081 16.4739 19.1361C16.6793 18.5641 16.9286 18.1094 17.2219 17.7721C17.5153 17.4347 17.8893 17.0681 18.3439 16.6721C18.7693 16.3201 19.0846 16.0047 19.2899 15.7261C19.4953 15.4474 19.5979 15.1027 19.5979 14.6921C19.5979 14.1201 19.3853 13.6801 18.9599 13.3721C18.5493 13.0494 17.9699 12.8881 17.2219 12.8881C16.1073 12.8881 15.0586 13.2547 14.0759 13.9881L13.0859 11.7661C13.7166 11.3407 14.4499 10.9961 15.2859 10.7321C16.1219 10.4681 16.9799 10.3361 17.8599 10.3361ZM17.5519 22.7881C18.0653 22.7881 18.4759 22.9494 18.7839 23.2721C19.0919 23.5801 19.2459 23.9907 19.2459 24.5041C19.2459 25.0467 19.0919 25.4794 18.7839 25.8021C18.4759 26.1101 18.0653 26.2641 17.5519 26.2641C17.0386 26.2641 16.6279 26.1101 16.3199 25.8021C16.0119 25.4794 15.8579 25.0467 15.8579 24.5041C15.8579 23.9907 16.0119 23.5801 16.3199 23.2721C16.6279 22.9494 17.0386 22.7881 17.5519 22.7881Z"/>
</svg>
