<?xml version="1.0"?>
<svg version="1.1" id="Layer_1" xmlns="http://www.w3.org/2000/svg" x="0px" y="0px" width="256px" height="256px" viewBox="0 0 256 256">
  <path d="M203.553,197.794c0,21.929-17.778,39.706-39.706,39.706H92.154c-21.929,0-39.706-17.777-39.706-39.706v-71.693 c0-21.928,17.778-39.706,39.706-39.706h71.692c21.928,0,39.706,17.778,39.706,39.706V197.794z M128.001,129.664 c-8.941,0-16.19,7.248-16.19,16.189c0,5.589,2.833,10.518,7.137,13.427c2.066,1.395,0.318,23.508,0.318,32.842 c0,2.292-0.078,3.65,8.734,3.65c8.676,0,8.75-1.221,8.75-3.654c0-9.348-1.708-31.469,0.368-32.886 c4.269-2.916,7.071-7.821,7.071-13.38C144.191,136.912,136.941,129.664,128.001,129.664z"/>
  <path fill="none" stroke="#ffffff" stroke-width="22" stroke-miterlimit="10" d="M84.813,172.74V73.688l0,0 c0-23.85,19.335-43.188,43.187-43.188l0,0c23.852,0,43.188,19.337,43.188,43.188l0,0v23.885"/>
</svg>
