<?xml version="1.0"?>
<svg width="36" height="36" viewBox="0 0 36 36" fill="none" xmlns="http://www.w3.org/2000/svg">
  <path fill-rule="evenodd" clip-rule="evenodd" d="M31.7 15.2077C31.703 12.5623 30.94 9.97259 29.5032 7.75136C28.0664 5.53014 26.0172 3.77242 23.6031 2.69048C21.189 1.60855 18.5133 1.24869 15.8992 1.65436C13.2851 2.06002 10.8443 3.21387 8.87163 4.97655C6.89899 6.73922 5.47888 9.03532 4.78281 11.5875C4.08673 14.1397 4.14447 16.8389 4.94905 19.359C5.75363 21.8791 7.27063 24.1124 9.31684 25.7891C11.363 27.4658 13.8509 28.5142 16.48 28.8077V34.5077L27.31 25.2477C28.6947 23.9675 29.7996 22.4147 30.5551 20.6869C31.3106 18.959 31.7004 17.0935 31.7 15.2077ZM15.3 7.06885L16.3075 16.9577H20.1309L21.1039 7.06885H15.3ZM20.6927 22.0125C20.6927 23.3774 19.5862 24.4838 18.2213 24.4838C16.8564 24.4838 15.7499 23.3774 15.7499 22.0125C15.7499 20.6475 16.8564 19.5411 18.2213 19.5411C19.5862 19.5411 20.6927 20.6475 20.6927 22.0125Z" fill="currentColor"/>
</svg>
