<?xml version="1.0"?>
<svg xmlns="http://www.w3.org/2000/svg" viewBox="0 0 52.375 32">
  <path fill="currentColor" d="M24.563,1.998c0-0.029,0.014-0.045,0.044-0.045
				c0.058-0.028,0.116-0.042,0.176-0.042l0.042-0.043c0.029-0.03,0.058-0.047,0.085-0.047l0.046-0.042
				c0.028-0.03,0.059-0.044,0.087-0.044c0-0.029,0.015-0.043,0.043-0.043h0.043V1.647c0.031,0,0.059-0.013,0.09-0.044l0.086-0.087
				c0.028,0,0.043-0.015,0.043-0.043c0.029,0,0.045-0.013,0.045-0.043c0.058,0,0.1-0.015,0.128-0.044
				c0.031-0.03,0.059-0.044,0.088-0.044c0.088,0,0.19,0,0.306,0c0-0.028,0-0.059,0-0.087h0.045V1.21
				c0.174,0,0.349,0.015,0.522,0.044v0.042c0.03,0.03,0.059,0.045,0.088,0.045v0.044c0.029,0,0.058,0.015,0.088,0.044l0.042,0.043
				c0.029,0,0.059,0.014,0.088,0.043v0.046c0.029,0,0.043,0.013,0.043,0.041c0.058,0,0.086,0.017,0.086,0.044
				c0.03,0.029,0.058,0.044,0.089,0.044c0.029,0,0.043,0.014,0.043,0.043c0.03,0,0.058,0.014,0.088,0.044
				c0,0.028,0.015,0.042,0.044,0.042h0.087l0.043,0.047c0.03,0.027,0.06,0.043,0.087,0.043l0.046,0.087l0.084,0.042
				c0.062,0,0.104,0.017,0.132,0.045c0.031,0.028,0.059,0.058,0.087,0.087V2.26c0,0.028,0,0.072,0,0.13v0.131
				c0,0.06,0,0.103,0,0.133V2.87c0,0.059,0,0.103,0,0.133c0,0.028,0,0.058,0,0.086v0.132c0,0.058,0,0.101,0,0.13
				c6.266,0,12.527,0,18.79,0V3.306c0-0.028,0-0.056,0-0.085c0-0.029,0-0.059,0-0.088c0-0.028,0-0.059,0-0.086
				c0-0.031,0-0.06,0-0.088c0-0.029,0-0.06,0-0.088h0.044c0.028,0,0.058,0,0.087,0c0-0.029,0.014-0.056,0.042-0.087
				c0.03,0,0.043-0.015,0.043-0.043h0.043c0-0.028,0.015-0.058,0.044-0.086h0.045c0-0.03,0-0.059,0-0.088
				c0.029,0,0.058-0.015,0.086-0.044h0.043c0-0.029,0.016-0.058,0.044-0.086c0.029,0,0.044-0.015,0.044-0.044
				c0.029,0,0.043-0.013,0.043-0.044V2.302c0-0.029,0.013-0.042,0.044-0.042l0.043-0.044V2.171c0.408,0,0.832,0,1.267,0v0.044
				l0.088,0.086c0,0.029,0.015,0.043,0.043,0.043c0,0.031,0.015,0.044,0.044,0.044v0.044c0.029,0.029,0.043,0.057,0.043,0.086h0.045
				l0.044,0.044c0.028,0.029,0.058,0.059,0.086,0.088c0,0.028,0,0.058,0,0.086c0.03,0,0.058,0,0.087,0
				c0,0.029,0.014,0.043,0.043,0.043c0,0.031,0.015,0.059,0.045,0.087c0.027,0,0.058,0,0.086,0c0,0.059,0,0.103,0,0.133
				c0,0.028,0,0.058,0,0.086v0.132c0,0.03,0,0.058,0,0.085c0.03,0.031,0.06,0.044,0.088,0.044c0,0.03,0,0.073,0,0.132
				c0.088,0,0.176,0,0.262,0c0,0.06,0,0.101,0,0.13v0.09C49.542,3.73,49.571,3.759,49.6,3.79c0.029,0.027,0.074,0.042,0.132,0.042
				c0,0.029,0.014,0.059,0.043,0.088h0.044c0.028,0.029,0.087,0.043,0.174,0.043v0.087c0,0.058,0,0.102,0,0.13v0.218
				c0,0.06,0,0.104,0,0.132v0.088c0,0.027,0,0.059,0,0.087S50.022,4.75,50.08,4.75c0,0.06,0,0.102,0,0.133v0.086
				c0.031,0.028,0.075,0.043,0.132,0.043c0,0.03,0,0.059,0,0.087c0,0.029,0,0.059,0,0.089c0,0.028,0,0.056,0,0.085
				c0,0.03,0,0.058,0,0.088c0,0.028,0,0.06,0,0.088v0.044c0.06,0,0.133,0,0.218,0v0.085c0,0.03,0,0.074,0,0.133
				c0.468,0,0.935,0,1.399,0c0,0.028,0,0.07,0,0.13c0.087,0,0.173,0,0.263,0c0,0.029,0,0.059,0,0.089c0,0.028,0,0.057,0,0.086
				s0,0.059,0,0.087c0,0.027,0,0.059,0,0.087c0,0.031,0,0.059,0,0.086c0,0.031,0,0.06,0,0.088c0,0.03,0,0.058,0,0.089
				c0,0.028,0,0.057,0,0.087c0,0.028,0,0.058,0,0.086c0,0.03,0,0.06,0,0.088c0,0.03,0,0.06,0,0.087c0,0.03,0,0.059,0,0.089
				c0,0.027,0,0.057,0,0.087c0,0.029,0,0.057,0,0.088c0,0.028,0,0.058,0,0.086c0,0.029,0,0.059,0,0.087c0,0.03,0,0.059,0,0.087
				s0,0.059,0,0.086c0,0.03,0,0.058,0,0.091c0,0.027,0,0.058,0,0.086c0,0.029,0,0.057,0,0.086c0,0.028,0,0.058,0,0.086v0.088
				c0,0.03,0,0.058,0,0.088c0,0.029,0,0.057,0,0.088v0.043c-0.058,0-0.103,0-0.132,0c-0.525-0.03-1.062-0.043-1.616-0.043v0.043
				c-0.059,0-0.104,0-0.133,0c0,0.059,0,0.102,0,0.131c0,0.03,0,0.058,0,0.087V8.42c-0.057,0-0.101,0-0.132,0
				c0,0.059,0,0.102,0,0.13c0,0.029,0,0.061,0,0.089c0,0.029,0,0.06,0,0.087v0.044c-0.027,0.058-0.058,0.102-0.086,0.129
				c0,0.03-0.014,0.058-0.042,0.088c-0.031,0.029-0.061,0.058-0.088,0.088c0,0.028,0,0.059,0,0.087v0.044
				c-0.059,0.027-0.118,0.043-0.176,0.043c0,0.059,0,0.104,0,0.132v0.042c0,0.029-0.013,0.045-0.043,0.045
				c0,0.03-0.015,0.044-0.044,0.044c0,0.027,0,0.059,0,0.086l-0.042,0.043c0,0.03-0.016,0.045-0.045,0.045v0.044L49.47,9.774v0.088
				c-0.029,0-0.043,0.015-0.043,0.044c-0.031,0-0.088,0-0.176,0V9.95c0,0.058,0,0.1,0,0.13v0.089l-0.044,0.042v0.044
				c-0.204,0-0.421,0-0.655,0v-0.044c-4.194-0.029-8.39-0.058-12.583-0.086v0.044c-0.264,0-0.509,0-0.745,0c0,0.029,0,0.058,0,0.086
				V10.3c0,0.058,0,0.102,0,0.13c0,0.029,0,0.058,0,0.087c0,0.03,0,0.059,0,0.088s0,0.058,0,0.088c0,0.028,0,0.058,0,0.086
				c0,0.03,0,0.061,0,0.088c0,0.03,0,0.058,0,0.088c0,0.027,0,0.058,0,0.086c0,0.03,0,0.06,0,0.087c0,0.03,0,0.059,0,0.087
				c0,0.031,0,0.06,0,0.089c0,0.028,0,0.06,0,0.088c0,0.027,0,0.058,0,0.086c0,0.029,0,0.059,0,0.086c0,0.03,0,0.059,0,0.09
				c0,0.029,0,0.057,0,0.087c0,0.027,0,0.057,0,0.086c0,0.028,0,0.059,0,0.087c0,0.029,0,0.058,0,0.086s0,0.059,0,0.089
				c0,0.028,0,0.058,0,0.088c0,0.028,0,0.058,0,0.086c0,0.029,0,0.06,0,0.087c0,0.028,0,0.059,0,0.088c0,0.028,0,0.059,0,0.087
				c0,0.03,0,0.059,0,0.087c0,0.03,0,0.059,0,0.088s0,0.057,0,0.087c0,0.028,0,0.057,0,0.088c-0.057,0-0.116,0-0.173,0v0.086
				c-0.322,0.03-0.642,0.058-0.961,0.087v0.044c-0.263,0-0.523-0.014-0.787-0.044c-0.06,0-0.102,0-0.131,0c-0.058,0-0.116,0-0.176,0
				v0.087c-0.027,0-0.057,0-0.085,0c-0.03,0.029-0.059,0.045-0.088,0.045c0,0.027,0,0.058,0,0.086c-0.028,0-0.058,0-0.085,0
				c0,0.029,0,0.059,0,0.087v0.044h-0.045c-0.03,0.029-0.045,0.059-0.045,0.087h-0.043c0,0.031,0,0.058,0,0.088l-0.044,0.045h-0.042
				c-0.029,0.027-0.044,0.058-0.044,0.085v0.045h-0.045c-0.028,0.03-0.042,0.06-0.042,0.088l-0.131,0.132c0,0.027,0,0.057,0,0.086
				c-0.029,0-0.046,0.015-0.046,0.043h-0.042c-0.027,0.03-0.044,0.059-0.044,0.088v0.087c-0.029,0-0.057,0.014-0.086,0.044H31.99
				c0,0.029,0,0.059,0,0.089c-0.027,0-0.041,0.013-0.041,0.041c-0.029,0-0.044,0.015-0.044,0.044v0.043
				c-0.029,0.03-0.057,0.044-0.087,0.044l-0.044,0.042v0.046h-0.044c0,0.028,0,0.058,0,0.088c-0.028,0-0.059,0.013-0.087,0.042
				v0.043c-0.029,0-0.044,0.013-0.044,0.044c-0.058,0-0.116,0.014-0.174,0.042l-0.044,0.088v0.042l-0.088,0.087v0.176
				c0,0.028,0,0.059,0,0.088v0.131c0,0.028,0,0.059,0,0.086v0.043c0,0.031,0,0.059,0,0.089v0.041c0,0.03,0,0.06,0,0.088
				c0,0.03,0,0.06,0,0.088v0.173c0,0.03,0,0.059,0,0.088c0,0.03,0,0.058,0,0.088v0.262c0,0.029,0,0.056,0,0.088v0.26
				c0,0.031,0,0.059,0,0.088v0.262c0,0.028,0,0.059,0,0.087v0.263c0,0.028,0,0.058,0,0.086v0.264c0,0.028,0,0.058,0,0.085
				c0.088,0,0.206,0,0.351,0c0.029,0.03,0.073,0.06,0.131,0.088c0,0.058,0.016,0.088,0.044,0.088c0,0.027,0.014,0.058,0.043,0.085
				c0,0.033,0,0.073,0,0.133v0.131c0,0.028,0,0.059,0,0.086c0,0.03,0,0.074,0,0.132v0.13c0,0.029,0,0.073,0,0.131l0.044,0.044v0.352
				c0,0.028-0.016,0.042-0.044,0.042v0.044l-0.043,0.042v0.306l-0.044,0.044V20c-0.029,0-0.044,0.014-0.044,0.043
				c0,0.03-0.014,0.044-0.044,0.044v0.043c-0.028,0-0.043,0.013-0.043,0.044c0,0.027,0,0.059,0,0.086v0.088
				c-0.059,0-0.103,0-0.131,0c-0.029,0-0.058,0.013-0.088,0.044c0,0.029-0.013,0.044-0.044,0.044
				c-0.029,0.029-0.059,0.043-0.088,0.043v0.044h-0.044c-0.028,0-0.057,0.014-0.087,0.042c-0.028,0-0.056,0.013-0.087,0.044
				c-0.027,0-0.06,0-0.087,0c0,0.03-0.015,0.044-0.044,0.044v0.044c0,0.029,0,0.059,0,0.086v0.044c-0.028,0-0.058,0.014-0.086,0.044
				c0,0.028,0,0.058,0,0.088v0.042c0,0.029,0,0.06,0,0.087c0,0.03-0.016,0.059-0.043,0.089l-0.047,0.042v0.045
				c0,0.027,0,0.057,0,0.086c0,0.03,0,0.06,0,0.088c0,0.029,0,0.058,0,0.086c0,0.031,0,0.06,0,0.087c0,0.03,0,0.061,0,0.09
				c0,0.027,0,0.056,0,0.086s0,0.058,0,0.088c0,0.028,0,0.058,0,0.087c0,0.028,0,0.059,0,0.087c0,0.03,0,0.059,0,0.087
				c0,0.03,0,0.059,0,0.089c0,0.029,0,0.057,0,0.086c0,0.029,0,0.057,0,0.088c0,0.027,0,0.059,0,0.087c0,0.03,0,0.059,0,0.086
				c0,0.031,0,0.059,0,0.088s0,0.058,0,0.088c0,0.028,0,0.058,0,0.087c0,0.028,0,0.06,0,0.087c0,0.03,0,0.059,0,0.089v0.086
				c0,0.028,0,0.058,0,0.085c0,0.03,0,0.061,0,0.09s0,0.057,0,0.086v0.088c0,0.028,0,0.058,0,0.085c0,0.031,0,0.074,0,0.133v0.131
				c0,0.028,0,0.058,0,0.088c0,0.027,0,0.072,0,0.13v0.131c0,0.029,0,0.072,0,0.131V24.5c0,0.058,0,0.101,0,0.13v0.219
				c0,0.059,0,0.101,0,0.132v0.217c0,0.058,0,0.103,0,0.131v0.087c0,0.03,0,0.059,0,0.089v0.043c0,0.059,0,0.103,0,0.132v0.086
				c0,0.029,0,0.058,0,0.088v0.043c0,0.059,0,0.102,0,0.132v0.086c0,0.029,0,0.059,0,0.086c0,0.028,0,0.06,0,0.09
				c0,0.029,0,0.058,0,0.085c0,0.031,0,0.059,0,0.087v1.486c0,0.03,0,0.059,0,0.089v0.524c0,0.028,0,0.06,0,0.087
				c0,0.03,0,0.059,0,0.088v0.174c0,0.029,0,0.058,0,0.086c0,0.03,0,0.061,0,0.089v0.043c0,0.03,0,0.058,0,0.086v0.131
				c0,0.03,0,0.06,0,0.088v0.176c0,0.028,0,0.058,0,0.087v0.261c0,0.029,0,0.059,0,0.089c0,0.027,0,0.059,0,0.088v0.174
				c0,0.03,0,0.059,0,0.087s0,0.059,0,0.086v0.264c0,0.027,0,0.058,0,0.086v0.174c-2.342,0-4.69,0-7.033,0v-0.174
				c0-0.028,0-0.059,0-0.086v-0.611c0-0.029,0-0.061,0-0.088c0-0.03,0-0.06,0-0.089v-0.175c0-0.027,0-0.058,0-0.085
				c0-0.029,0-0.059,0-0.087v-0.176c0-0.028,0-0.058,0-0.088c0-0.027,0-0.058,0-0.086v-0.175c0-0.029,0-0.059,0-0.089
				c0-0.028,0-0.057,0-0.086v-0.174c0-0.029,0-0.059,0-0.088c0-0.027,0-0.059,0-0.087v-0.175c0-0.028,0-0.058,0-0.088
				c0-0.028,0-0.058,0-0.086V28.04c0-0.03,0-0.059,0-0.089v-1.486c0-0.028,0-0.057,0-0.087c0-0.027,0-0.056,0-0.085
				c0-0.03,0-0.062,0-0.09c0-0.027,0-0.057,0-0.086V26.03c0-0.03,0-0.074,0-0.132v-0.043c0-0.03,0-0.06,0-0.088V25.68
				c0-0.029,0-0.073,0-0.132v-0.043c0-0.03,0-0.059,0-0.089v-0.087c0-0.028,0-0.073,0-0.131v-0.217c0-0.031,0-0.073,0-0.132V24.63
				c0-0.029,0-0.072,0-0.13v-0.219c0-0.059,0-0.102,0-0.131V24.02c0-0.059,0-0.103,0-0.13c0-0.031,0-0.06,0-0.088V23.67
				c0-0.059,0-0.102,0-0.133c0-0.027,0-0.057,0-0.085v-0.088c0-0.03,0-0.057,0-0.086s0-0.06,0-0.09c0-0.028,0-0.057,0-0.085v-0.086
				c0-0.03,0-0.06,0-0.089c0-0.027,0-0.059,0-0.087c0-0.029,0-0.059,0-0.087c0-0.03,0-0.059,0-0.088s0-0.057,0-0.088
				c0-0.027,0-0.057,0-0.086c0-0.028,0-0.06,0-0.087c0-0.031,0-0.06,0-0.088c0-0.029,0-0.058,0-0.086c0-0.03,0-0.059,0-0.089
				c0-0.028,0-0.057,0-0.087c0-0.028,0-0.059,0-0.087c0-0.029,0-0.059,0-0.087c0-0.03,0-0.058,0-0.088s0-0.059,0-0.086
				c0-0.03,0-0.06,0-0.09c0-0.027,0-0.056,0-0.087c0-0.028,0-0.057,0-0.086c0-0.028,0-0.058,0-0.088c0-0.029,0-0.059,0-0.086
				c0-0.031,0-0.06,0-0.087c0-0.03,0-0.06,0-0.089c0-0.028,0-0.058,0-0.087c0-0.027,0-0.058,0-0.086v-0.088h-0.044
				c-0.028,0-0.042,0.014-0.042,0.044c0,0.028,0,0.058,0,0.088c-0.03,0.027-0.06,0.056-0.091,0.086
				c-0.027,0.03-0.042,0.058-0.042,0.089v0.044c-0.03,0.027-0.074,0.057-0.132,0.087c-0.03,0.027-0.044,0.057-0.044,0.086
				c-0.029,0.03-0.042,0.06-0.042,0.088c-0.351,0-0.715,0-1.094,0c0-0.028,0-0.058,0-0.088c-0.117-0.029-0.233-0.045-0.349-0.045
				c-0.028-0.028-0.043-0.058-0.043-0.086c-0.118-0.029-0.219-0.042-0.307-0.042c0-0.03,0-0.06,0-0.089v-0.043
				c-0.029,0-0.058,0-0.088,0c0-0.03,0-0.059,0-0.086c0-0.03,0-0.06,0-0.088c0-0.03,0-0.058,0-0.089c0-0.028,0-0.057,0-0.086
				c0-0.028,0-0.058,0-0.088c0-0.031,0-0.058,0-0.085c0-0.031,0-0.059,0-0.087c0-0.03,0-0.059,0-0.089c0-0.03,0-0.059,0-0.088
				c0-0.027,0-0.059,0-0.086c0-0.031,0-0.059,0-0.087c0-0.03,0-0.058,0-0.087c0-0.03,0-0.058,0-0.088c0-0.027,0-0.057,0-0.088
				c0-0.028,0-0.059,0-0.087c0-0.029,0-0.057,0-0.087c0-0.03,0-0.058,0-0.087s0-0.058,0-0.086c0-0.03,0-0.061,0-0.089
				c0-0.029,0-0.058,0-0.087c0-0.029,0-0.074,0-0.132v-0.043c0-0.027,0-0.057,0-0.085c0-0.03,0-0.061,0-0.09c0-0.029,0-0.07,0-0.13
				v-0.132c0-0.027,0-0.058,0-0.086c-1.718,0-3.437,0-5.156,0c0,0.028,0,0.059,0,0.086c0,0.03,0,0.074,0,0.132v0.13
				c0,0.029,0,0.073,0,0.131V19.3c0,0.058,0,0.104,0,0.132v0.131c-0.99-0.029-1.981-0.044-2.971-0.044v0.044l-0.042,0.087
				c-0.03,0.058-0.044,0.102-0.044,0.133c-0.028,0-0.058,0.027-0.086,0.085l-0.044,0.043c0,0.058-0.014,0.088-0.044,0.088
				c-0.03,0.058-0.059,0.102-0.086,0.131v0.088c-0.03,0.028-0.044,0.056-0.044,0.085l-0.044,0.044c0,0.059,0,0.103,0,0.132v0.174
				c-0.061,0.029-0.104,0.044-0.131,0.044c0,0.029,0,0.059,0,0.086c0,0.031-0.015,0.059-0.043,0.089
				c-0.029,0.028-0.06,0.058-0.089,0.088c0,0.027-0.013,0.056-0.044,0.086c0,0.03-0.015,0.058-0.043,0.089c0,0.029,0,0.057,0,0.086
				c0,0.028,0,0.058,0,0.086c0,0.029,0,0.075,0,0.133c-0.03,0-0.057,0.014-0.088,0.044c-0.028,0.029-0.042,0.057-0.042,0.088
				c0,0.028-0.016,0.056-0.045,0.087c-0.028,0.028-0.057,0.072-0.088,0.13l-0.044,0.043c0,0.031,0,0.06,0,0.088
				c0,0.029,0,0.059,0,0.089c-0.027,0.027-0.042,0.072-0.042,0.129v0.043l-0.043,0.089l-0.088,0.085c0,0.03,0,0.073,0,0.133
				c-0.028,0-0.058,0.015-0.086,0.043c0,0.058-0.029,0.088-0.087,0.088v0.087c0,0.028,0,0.072,0,0.131l-0.046,0.043v0.086
				c0,0.06,0,0.104,0,0.133v0.13c-0.06,0.029-0.101,0.045-0.131,0.045c0,0.029,0,0.057,0,0.086l-0.042,0.088
				c-0.06,0.028-0.102,0.058-0.131,0.085c0,0.031,0,0.074,0,0.133v0.044l-0.043,0.086c0,0.028,0,0.058,0,0.088
				c0,0.027,0,0.072,0,0.13c-0.059,0-0.104,0.014-0.132,0.043v0.088c-0.027,0.029-0.044,0.072-0.044,0.131
				c-0.028,0-0.058,0.028-0.086,0.086l-0.045,0.044V24.5c0,0.03,0,0.058,0,0.086v0.044c-0.028,0-0.056,0.016-0.088,0.046
				c0,0.027,0,0.056,0,0.086c-0.028,0.027-0.042,0.058-0.042,0.087c-0.029,0.028-0.044,0.059-0.044,0.086c0,0.03,0,0.061,0,0.089
				c0,0.029,0,0.059,0,0.087c-0.058,0-0.103,0.016-0.131,0.043c0,0.027,0,0.06,0,0.088v0.086c0,0.03,0,0.074,0,0.132
				c-0.058,0-0.102,0.014-0.13,0.044c0,0.03,0,0.057,0,0.086c-0.03,0.06-0.061,0.088-0.089,0.088c0,0.028,0,0.072,0,0.131v0.043
				c0,0.03,0,0.058,0,0.087l-0.043,0.088c-0.059,0.029-0.088,0.072-0.088,0.13v0.133c0,0.058-0.013,0.085-0.043,0.085
				c-0.06,0.031-0.089,0.074-0.089,0.132v0.131c0.029,0.06,0.073,0.088,0.132,0.088c0,0.028,0,0.059,0,0.086
				c0.029,0.03,0.073,0.046,0.131,0.046c0,0.027,0,0.071,0,0.128l0.044,0.045c0,0.03,0.014,0.058,0.044,0.087
				c0,0.029,0,0.058,0,0.089c0.028,0.028,0.057,0.071,0.087,0.129c0.027,0,0.042,0.014,0.042,0.044v0.173c0,0.029,0,0.074,0,0.132
				v0.218c0,0.03,0,0.073,0,0.132v0.132c0,0.057,0,0.101,0,0.129v0.088c-0.058,0-0.102,0.013-0.13,0.044c0,0.027,0,0.059,0,0.088
				c0,0.027,0,0.058,0,0.085c0,0.03,0,0.06,0,0.088c-0.061,0.03-0.118,0.058-0.176,0.088c-0.028,0.029-0.043,0.061-0.043,0.088
				c-0.321-0.027-0.625-0.044-0.919-0.044H9.533c0-0.027,0-0.059,0-0.087c-0.379,0-0.773-0.015-1.181-0.045V28.65
				c-0.554-0.027-1.12-0.059-1.703-0.087c0-0.03-0.015-0.043-0.043-0.043c-0.614-0.029-1.225-0.044-1.837-0.044
				c0-0.03,0-0.058,0-0.088c-0.204,0-0.377-0.015-0.522-0.043l-0.044-0.044c-0.497,0-0.991,0-1.486,0
				c-0.059,0-0.102-0.014-0.131-0.042c-0.087-0.03-0.175-0.044-0.261-0.044c0-0.031-0.031-0.042-0.088-0.042
				c-0.351-0.03-0.714-0.059-1.092-0.089c-0.03-0.027-0.06-0.043-0.088-0.043c0-0.059,0-0.102,0-0.132v-0.13
				c-0.173,0-0.335-0.014-0.481-0.043c-0.028-0.028-0.057-0.044-0.086-0.044c0-0.058,0-0.104,0-0.132
				c-0.029,0-0.06-0.028-0.088-0.085c-0.029,0-0.059-0.029-0.087-0.088v-0.044c0-0.058,0-0.101,0-0.129c0-0.031,0-0.06,0-0.089
				c0-0.029,0-0.057,0-0.087v-0.045c0-0.057,0-0.101,0-0.128c0-0.031,0-0.061,0-0.092c0-0.027,0-0.057,0-0.085v-0.044
				c0-0.058,0-0.101,0-0.131c0-0.029,0-0.058,0-0.088c0-0.027,0-0.058,0-0.086c0-0.03,0-0.06,0-0.087c0-0.031,0-0.059,0-0.089
				c0-0.028,0-0.058,0-0.086c0-0.03,0-0.057,0-0.088c0-0.029,0-0.06,0-0.088c0-0.027,0-0.058,0-0.086
				c0.028-0.029,0.058-0.06,0.087-0.087c0.028-0.031,0.059-0.06,0.088-0.09c0-0.027,0-0.059,0-0.086c0-0.029,0-0.059,0-0.087
				c0.029-0.028,0.058-0.058,0.086-0.087c0-0.029,0.017-0.058,0.045-0.087c0-0.03,0-0.058,0-0.088c0-0.029,0-0.058,0-0.087
				c0-0.028,0-0.058,0-0.087c0-0.028,0-0.059,0-0.089c0-0.027,0.014-0.058,0.044-0.086c0.028-0.03,0.042-0.06,0.042-0.087
				c0-0.03,0-0.059,0-0.086c0-0.03,0-0.06,0-0.09c0-0.028,0-0.056,0-0.086c0-0.029,0-0.059,0-0.088v-0.044c0.031,0,0.059,0,0.088,0
				v-0.086c0-0.059,0-0.102,0-0.131v-0.088c0.028-0.029,0.058-0.043,0.088-0.043c0.027-0.059,0.042-0.103,0.042-0.13
				c0-0.031,0.014-0.06,0.044-0.088v-0.086c0.028-0.03,0.057-0.044,0.086-0.044c0-0.059,0-0.102,0-0.133c0-0.027,0-0.057,0-0.085
				v-0.133c0.028-0.029,0.058-0.042,0.088-0.042v-0.09c0-0.028,0-0.057,0-0.085c0.058-0.029,0.116-0.058,0.172-0.086
				c0-0.03,0-0.06,0-0.089c0-0.027,0-0.059,0-0.087c0-0.029,0-0.059,0-0.087c0.059-0.03,0.09-0.059,0.09-0.088s0-0.057,0-0.088
				c0-0.027,0-0.057,0-0.086c0.028-0.028,0.058-0.06,0.087-0.087c0.029-0.031,0.059-0.06,0.088-0.088
				c0.028-0.029,0.058-0.058,0.086-0.086c0-0.03,0-0.059,0-0.089c0.059,0,0.104,0,0.131,0c0-0.057,0-0.102,0-0.129
				c0-0.031,0-0.06,0-0.089c0.028-0.028,0.059-0.057,0.087-0.088c0-0.027,0.015-0.043,0.046-0.043
				c0.026-0.059,0.041-0.103,0.041-0.13c0-0.031,0.016-0.059,0.047-0.087c0.055-0.031,0.1-0.059,0.13-0.088v-0.044
				c0-0.058,0-0.104,0-0.133c0.028-0.028,0.042-0.058,0.042-0.086c0.028-0.029,0.045-0.058,0.045-0.086v-0.045
				c0.057-0.028,0.101-0.043,0.129-0.043c0-0.059,0.017-0.086,0.045-0.086c0.029-0.06,0.042-0.103,0.042-0.132l0.045-0.087
				c0-0.03,0.014-0.044,0.045-0.044c0-0.058,0.015-0.088,0.042-0.088c0-0.058,0-0.103,0-0.13v-0.087
				c0.058-0.031,0.103-0.06,0.131-0.089V20.26c0-0.059,0-0.102,0-0.13c0.029,0,0.059-0.029,0.087-0.088
				c0-0.029,0.016-0.058,0.044-0.087c0.028-0.028,0.058-0.059,0.086-0.087c0-0.028,0-0.058,0-0.085
				c0.028-0.031,0.073-0.061,0.133-0.09c0-0.029,0-0.058,0-0.087c0.028-0.027,0.042-0.057,0.042-0.087
				c0.03-0.028,0.044-0.056,0.044-0.086c0-0.028,0.016-0.059,0.045-0.086c0.029-0.031,0.057-0.06,0.087-0.089
				c0-0.03,0-0.058,0-0.088c0.028-0.028,0.058-0.058,0.087-0.087c0.028-0.027,0.044-0.059,0.044-0.086
				c0.027-0.029,0.072-0.058,0.13-0.088c0-0.027,0-0.058,0-0.087h0.088c0-0.058,0-0.103,0-0.132
				c0.029-0.027,0.042-0.058,0.042-0.086c0.028,0,0.06-0.03,0.087-0.088c0.059-0.029,0.103-0.043,0.131-0.043c0-0.06,0-0.1,0-0.133
				v-0.085c0.06,0,0.102-0.016,0.131-0.043c0-0.031,0-0.059,0-0.088c0.028-0.028,0.058-0.058,0.089-0.088c0-0.028,0-0.059,0-0.086
				c0.058-0.028,0.102-0.059,0.132-0.087c0-0.028,0-0.059,0-0.088c0-0.03,0-0.058,0-0.088c0.056,0,0.1-0.014,0.129-0.042
				c0-0.028,0-0.059,0-0.087c0.031-0.03,0.059-0.061,0.088-0.088c0-0.03,0-0.058,0-0.088c0.058-0.028,0.102-0.059,0.13-0.087
				c0-0.028,0-0.058,0-0.086c0.031-0.028,0.074-0.058,0.132-0.087c0-0.031,0-0.06,0-0.089c0.03-0.03,0.059-0.057,0.087-0.088
				c0-0.027,0-0.057,0-0.085c0-0.029,0-0.057,0-0.087c0.059-0.029,0.103-0.059,0.132-0.087c0-0.032,0-0.06,0-0.088v-0.087
				c0.057-0.03,0.1-0.044,0.13-0.044c0-0.029,0.014-0.073,0.043-0.131l0.044-0.088v-0.045c0-0.057,0.014-0.087,0.044-0.087
				c0.058-0.056,0.087-0.1,0.087-0.129v-0.131c0.059-0.059,0.101-0.086,0.131-0.086c0-0.059,0-0.104,0-0.133l0.043-0.086
				l0.044-0.045v-0.086c0-0.06,0-0.102,0-0.132c0.028,0,0.059-0.028,0.087-0.088c0.029-0.027,0.042-0.058,0.042-0.087v-0.044
				c0-0.028,0-0.056,0-0.086c0.03-0.028,0.073-0.044,0.133-0.044c0-0.028,0-0.073,0-0.13v-0.219c-0.06-0.03-0.103-0.073-0.133-0.132
				v-0.13c-0.058-0.03-0.101-0.057-0.129-0.088c0-0.028,0-0.058,0-0.087c0-0.028,0-0.058,0-0.087
				c-0.031-0.029-0.06-0.059-0.087-0.086c-0.031,0-0.073-0.017-0.131-0.047c0-0.028,0-0.058,0-0.085c0-0.029,0-0.059,0-0.088
				c-0.029-0.028-0.073-0.072-0.131-0.13v-0.133c-0.029-0.028-0.058-0.058-0.087-0.087c-0.03-0.027-0.074-0.073-0.13-0.131
				c-0.029,0-0.073-0.015-0.132-0.043v-0.176c-0.029-0.029-0.057-0.072-0.087-0.129V12.79c0-0.058,0-0.101,0-0.132V12.44
				c0-0.029,0-0.06,0-0.088c-0.729,0-1.441,0-2.141,0c0-0.027,0-0.058,0-0.087c-0.087-0.028-0.16-0.043-0.22-0.043v-0.042
				c-0.028-0.03-0.072-0.044-0.129-0.044c-0.03-0.029-0.059-0.06-0.087-0.088C2.118,11.99,2.09,11.96,2.06,11.96
				c-0.058-0.03-0.103-0.058-0.129-0.089c-0.031-0.03-0.046-0.072-0.046-0.129c-0.028,0-0.059-0.017-0.087-0.044
				c0-0.03,0-0.058,0-0.088c-0.027-0.027-0.072-0.057-0.131-0.087v-0.043c-0.028-0.028-0.073-0.059-0.13-0.086
				c-0.029,0-0.073-0.015-0.131-0.042v-0.089c0-0.03,0-0.074,0-0.133l-0.09-0.087c-0.057,0-0.115-0.015-0.172-0.043
				c0-0.03,0-0.057,0-0.086c-0.03-0.031-0.06-0.059-0.088-0.088c0-0.028,0-0.058,0-0.087c0-0.028,0-0.059,0-0.087H0.969v-0.088
				c0-0.058,0-0.102,0-0.131v-0.219c0-0.058,0-0.101,0-0.131V9.992c0-0.028,0-0.058,0-0.086V9.862c0-0.058,0-0.101,0-0.13V9.643
				c0-0.028,0-0.058,0-0.086c0-0.03,0-0.058,0-0.088c0-0.029,0-0.06,0-0.087V9.294c0-0.029,0-0.06,0-0.087c0-0.03,0-0.059,0-0.088
				s0-0.058,0-0.087c0-0.029,0-0.057,0-0.087c0-0.027,0-0.058,0-0.088c0-0.027,0-0.058,0-0.085c0-0.03,0-0.059,0-0.088
				c0-0.028,0-0.058,0-0.088c0-0.028,0-0.056,0-0.087c0-0.028,0-0.059,0-0.087c0-0.029,0-0.059,0-0.087c0-0.03,0-0.058,0-0.086
				c0-0.031,0-0.059,0-0.089c0-0.027,0-0.057,0-0.086c0-0.03,0-0.061,0-0.089c0-0.029,0-0.057,0-0.086c0-0.028,0-0.058,0-0.087
				s0-0.058,0-0.086c0-0.029,0-0.06,0-0.087c0-0.03,0-0.06,0-0.089V7.458c0-0.028,0-0.058,0-0.088c0-0.027,0-0.056,0-0.085
				c0-0.031,0-0.059,0-0.088V7.108c0-0.028,0-0.057,0-0.087c0-0.027,0-0.06,0-0.087c0-0.028,0-0.059,0-0.086V6.759
				c0-0.029,0-0.058,0-0.085c0-0.03,0-0.074,0-0.132V6.41c0-0.028,0-0.072,0-0.132V6.149c0-0.031,0-0.06,0-0.089h0.086V6.017
				c0-0.029,0-0.058,0-0.086c0-0.03,0-0.06,0-0.089s0-0.06,0-0.087c0-0.029,0-0.059,0-0.087s0-0.058,0-0.088
				c0-0.029,0-0.057,0-0.085V5.449c0.028,0,0.058,0,0.088,0c0-0.029,0-0.06,0-0.088c0.087-0.03,0.172-0.058,0.262-0.088
				c0.028-0.03,0.042-0.057,0.042-0.085c0.031-0.03,0.045-0.06,0.045-0.089h0.044c0.057,0,0.13-0.015,0.217-0.043
				c0-0.03,0.017-0.059,0.044-0.087V4.882C1.826,4.852,1.856,4.809,1.885,4.75c0.059,0,0.134-0.016,0.219-0.044
				c0.029-0.028,0.058-0.06,0.087-0.087C2.219,4.59,2.236,4.56,2.236,4.531c0.057-0.029,0.129-0.057,0.216-0.085
				c0-0.031,0.031-0.06,0.09-0.089V4.313l0.042-0.044c0.058,0,0.103-0.014,0.131-0.042V4.181c0.059-0.028,0.117-0.058,0.176-0.087
				l0.042-0.043c0.06-0.029,0.102-0.058,0.133-0.087C3.124,3.934,3.181,3.92,3.24,3.92c0-0.03,0.014-0.059,0.044-0.088
				C3.342,3.803,3.4,3.774,3.459,3.744C3.488,3.715,3.532,3.686,3.59,3.658C3.618,3.628,3.634,3.6,3.634,3.57
				c0.086,0,0.173,0,0.261,0c0-0.027,0-0.058,0-0.087c0.06-0.029,0.102-0.059,0.131-0.086V3.351
				c0.058-0.029,0.133-0.059,0.221-0.086c0.056-0.03,0.1-0.044,0.129-0.044c0-0.029,0-0.059,0-0.088V3.089
				c0.059,0,0.103-0.015,0.131-0.042H4.55V3.003h0.044V2.958c0-0.029,0-0.06,0-0.088V2.739c0.146,0,0.263,0.014,0.351,0.043
				c0-0.029,0-0.059,0-0.087c0-0.029,0-0.058,0-0.086c0-0.029,0-0.06,0-0.089s0-0.058,0-0.086V2.39h0.043
				c0.029-0.027,0.057-0.044,0.087-0.044c0-0.028,0-0.058,0-0.086h0.043c0.03-0.03,0.044-0.058,0.044-0.088
				c0-0.029,0.014-0.044,0.044-0.044c0-0.028,0-0.057,0-0.088c0.289,0,0.597,0.017,0.916,0.045v0.043
				c0.116,0.031,0.234,0.044,0.35,0.044V2.26c0,0.028,0,0.072,0,0.13v0.088c0,0.03,0.015,0.043,0.044,0.043
				c0,0.06,0.014,0.103,0.043,0.133l0.046,0.086V2.87c0,0.059,0,0.103,0,0.133c0,0.028,0,0.058,0,0.086
				c5.94,0,11.884,0.016,17.827,0.044V3.089c0-0.028,0-0.058,0-0.086c0-0.03,0-0.074,0-0.133V2.653c0-0.03,0-0.073,0-0.133V2.39
				c0-0.058,0-0.102,0-0.13V2.04h0.042C24.504,2.04,24.533,2.026,24.563,1.998z M21.94,14.8c-0.029-0.029-0.057-0.059-0.086-0.086
				c0-0.031,0-0.06,0-0.091c0-0.027,0-0.056,0-0.086c-0.028-0.029-0.06-0.059-0.087-0.088c0-0.028,0-0.058,0-0.085
				c0-0.031,0-0.06,0-0.088v-0.087c-0.03-0.03-0.074-0.058-0.132-0.088v-0.129c-0.029,0-0.074-0.017-0.131-0.047
				c0-0.028,0-0.058,0-0.085c-0.029-0.029-0.058-0.059-0.088-0.088c-0.028-0.028-0.058-0.059-0.086-0.089
				c-0.204,0-0.41-0.014-0.613-0.041c-0.785,0-1.572,0-2.36,0l0.046,0.041c0,0.03,0,0.061,0,0.089v0.043c0,0.03,0,0.059,0,0.089
				h0.044v0.041l0.042,0.047c0,0.027,0.015,0.041,0.043,0.041c0,0.029,0,0.06,0,0.088l0.043,0.044
				c0.031,0.029,0.044,0.059,0.044,0.087h0.043c0,0.031,0.016,0.059,0.045,0.088h0.043c0,0.029,0.014,0.044,0.043,0.044
				c0.027,0.027,0.057,0.057,0.087,0.085v0.044c0.029,0.029,0.044,0.057,0.044,0.087h0.088c0,0.027,0,0.059,0,0.088
				c0.027,0,0.058,0,0.085,0l0.046,0.045c0.028,0.027,0.044,0.057,0.044,0.086h0.041v0.087c0.029,0.029,0.06,0.042,0.088,0.042
				c0.03,0,0.044,0.016,0.044,0.044l0.043,0.044v0.042h0.044l0.044,0.044c0.028,0.029,0.058,0.043,0.087,0.043v0.044
				c0,0.029,0.015,0.044,0.043,0.044h0.044c0.029,0.03,0.059,0.043,0.087,0.043s0.058,0.017,0.088,0.044
				c0.028,0,0.058,0.014,0.088,0.043v0.086l0.042,0.045h0.088c0.03,0.03,0.058,0.06,0.087,0.088l0.044,0.043
				c0,0.028,0,0.058,0,0.088l-0.044,0.044c-0.029,0.027-0.044,0.059-0.044,0.086l-0.043,0.043v0.088h-0.044c0,0.029,0,0.058,0,0.087
				c-0.029,0-0.044,0.014-0.044,0.042c-0.028,0-0.042,0.017-0.042,0.044h-0.046l-0.042,0.043h-0.043c-0.146,0-0.263,0-0.35,0
				c-0.058,0-0.102-0.013-0.132-0.043c-0.059,0-0.102,0-0.129,0c-0.03-0.027-0.061-0.044-0.091-0.044c-0.028,0-0.058,0-0.085,0
				c-0.029-0.028-0.059-0.042-0.088-0.042l-0.044-0.044v-0.043c-0.03,0-0.074,0-0.13,0h-0.089c-0.029-0.028-0.073-0.043-0.13-0.043
				c0-0.031-0.015-0.045-0.043-0.045l-0.042-0.043c-0.031,0-0.044-0.015-0.044-0.045c-0.029,0-0.046-0.014-0.046-0.041
				c-0.028,0-0.073,0-0.131,0l-0.043-0.044v-0.045c0-0.029-0.013-0.043-0.043-0.043l-0.042-0.043
				c-0.03-0.028-0.06-0.043-0.087-0.043c0-0.029-0.017-0.045-0.044-0.045c-0.03,0-0.045-0.014-0.045-0.045
				c0-0.027-0.016-0.041-0.044-0.041l-0.044-0.045v-0.043c0-0.027-0.014-0.044-0.043-0.044l-0.043-0.043
				c-0.029-0.028-0.059-0.044-0.088-0.044c0-0.027-0.014-0.044-0.042-0.044c-0.03,0-0.042-0.014-0.042-0.043
				s-0.015-0.044-0.044-0.044l-0.044-0.042v-0.044c0-0.028-0.016-0.044-0.046-0.044c-0.027,0-0.043-0.013-0.043-0.042l-0.042-0.044
				c-0.03-0.028-0.059-0.043-0.087-0.043c0-0.029-0.017-0.042-0.046-0.042c0-0.03-0.015-0.06-0.043-0.088h-0.043v-0.088
				l-0.044-0.044v-0.043c-0.028-0.03-0.058-0.044-0.088-0.044v-0.041c0-0.03-0.014-0.06-0.042-0.089c0-0.03-0.016-0.044-0.044-0.044
				c0-0.029-0.016-0.044-0.046-0.044v-0.042c0-0.03,0-0.058,0-0.088l-0.042-0.043c0-0.029,0-0.059,0-0.086v-0.088l-0.044-0.044
				c0-0.029-0.014-0.059-0.043-0.088v-0.045c0-0.027,0-0.058,0-0.085c-0.03,0-0.059,0-0.089,0l-0.042,0.041
				c-0.06,0.03-0.104,0.061-0.131,0.089v0.043c-0.028,0.03-0.059,0.059-0.088,0.089l-0.045,0.041
				c-0.028,0.03-0.043,0.059-0.043,0.087c-0.029,0.06-0.071,0.104-0.13,0.132c0,0.059,0,0.102,0,0.131
				c0,0.029-0.015,0.073-0.044,0.133c-0.057,0.027-0.087,0.056-0.087,0.085c0,0.057,0,0.102,0,0.129c0,0.031,0,0.074,0,0.134
				c-0.029,0.028-0.059,0.071-0.088,0.13c-0.028,0.029-0.057,0.059-0.086,0.087c-0.03,0.059-0.044,0.102-0.044,0.131
				s-0.03,0.073-0.088,0.132c0,0.03-0.015,0.073-0.042,0.13c0,0.029,0,0.059,0,0.086c0,0.031,0,0.075,0,0.133
				c-0.029,0.029-0.075,0.072-0.13,0.132c0,0.03,0,0.072,0,0.13c-0.031,0.029-0.047,0.057-0.047,0.088
				c-0.027,0.028-0.071,0.073-0.13,0.131c0,0.028,0,0.073,0,0.129c0,0.031,0,0.075,0,0.133c-0.029,0-0.044,0.029-0.044,0.086
				c-0.029,0.029-0.073,0.075-0.131,0.131c0,0.031,0,0.073,0,0.133c2.156,0.028,4.297,0.058,6.424,0.087c0-0.029,0-0.059,0-0.087
				c0-0.032,0-0.06,0-0.088c0-0.029,0-0.059,0-0.087c0-0.03,0-0.059,0-0.088c0.058-0.028,0.102-0.057,0.132-0.086
				c0.027-0.03,0.059-0.058,0.087-0.088v-0.088c0.029-0.027,0.057-0.044,0.086-0.044c0-0.056,0-0.1,0-0.129v-0.088
				c0.059,0,0.117-0.014,0.175-0.043c0-0.027,0-0.059,0-0.086c0-0.03,0-0.059,0-0.089c0-0.029,0-0.058,0-0.087
				c0.029-0.028,0.06-0.058,0.088-0.088c0-0.028-0.015-0.058-0.044-0.086c-0.028-0.029-0.043-0.06-0.043-0.088
				c0-0.027,0-0.058,0-0.087c0-0.028,0-0.059,0-0.089c-0.029-0.028-0.044-0.058-0.044-0.087c-0.027-0.028-0.073-0.056-0.131-0.086
				c0-0.028,0-0.058,0-0.087C21.94,14.856,21.94,14.828,21.94,14.8z M6.343,15.936v-0.045H6.299v0.045H6.343z"/>
</svg>
