<?xml version="1.0"?>
<svg xmlns="http://www.w3.org/2000/svg" viewBox="0 0 66 32">
  <path fill="currentColor" d="M6.958,18.46c-0.298,0.022-0.644,0.161-1.032,0.413
				c-0.367,0.229-0.733,0.528-1.1,0.894c-0.321,0.32-0.549,0.652-0.689,0.997c-0.089,0.252-0.192,0.699-0.307,1.341
				c-0.093,0.526-0.093,0.984,0,1.374c0.045,0.23,0.183,0.619,0.414,1.168c0.181,0.481,0.558,0.928,1.132,1.342
				c0.598,0.434,1.216,0.72,1.857,0.86c0.619,0.113,1.248,0.056,1.889-0.174c0.598-0.229,1.1-0.551,1.513-0.964
				c0.46-0.456,0.78-0.916,0.962-1.372c0.16-0.482,0.239-1.079,0.239-1.789c0-0.709-0.192-1.374-0.583-1.994
				c-0.344-0.595-0.835-1.121-1.479-1.58c-0.457-0.32-0.984-0.503-1.58-0.55C7.965,18.403,7.554,18.415,6.958,18.46z M64.805,21.21
				c0.503,1.259,0.8,2.29,0.891,3.095c-0.594-0.941-1.453-1.982-2.578-3.129c-2.29-2.269-4.789-3.93-7.491-4.984
				c-2.476-0.94-4.491-1.535-6.05-1.788c-0.618-0.09-1.26-0.147-1.925-0.171c-0.298,0-0.883,0-1.752,0
				c-2.086,0.047-4.194,0.356-6.326,0.929c-0.686,0.183-1.328,0.377-1.922,0.584l-0.69,0.275l0.07,0.241
				c0.022,0.161-0.01,0.285-0.104,0.378c-0.138,0.09-0.47,0.251-0.998,0.479c-0.527,0.207-0.856,0.31-0.995,0.31
				c-0.138-0.023-0.253-0.137-0.343-0.344c-0.025-0.045-0.104-0.241-0.242-0.585c-0.184-0.549-0.527-1.12-1.032-1.717
				c-0.802-0.962-1.696-1.5-2.68-1.614c-1.375-0.184-2.578,0.264-3.609,1.339c-0.322,0.321-0.607,0.688-0.858,1.099l-0.276,0.552
				c-0.297-0.183-0.697-0.31-1.203-0.378c-1.009-0.162-1.994-0.024-2.958,0.412c-0.8,0.366-1.5,0.951-2.093,1.752
				c-0.209,0.251-0.379,0.507-0.516,0.757l-0.174,0.308c-0.367-0.045-0.778-0.079-1.236-0.103c-0.917-0.021-1.604,0.103-2.063,0.378
				c-0.459,0.276-0.882,0.721-1.271,1.341c-0.116,0.183-0.242,0.4-0.38,0.653c-0.09,0.206-0.148,0.342-0.171,0.412
				c-0.09,0.138-0.171,0.195-0.239,0.172l-0.103-0.068v0.55c0,0.435-0.037,0.825-0.104,1.168c-0.091,0.414-0.356,0.976-0.79,1.686
				c-0.414,0.685-0.747,1.145-0.999,1.374c-0.365,0.366-0.859,0.688-1.478,0.962c-0.848,0.414-1.684,0.608-2.509,0.584
				c-0.758-0.021-1.787-0.376-3.094-1.065c-0.389-0.23-0.792-0.469-1.203-0.72l-0.482-0.344l-2.129-0.482l-0.139-0.345
				C0.77,24.866,1,24.5,1.252,24.063c0.503-0.869,0.823-1.604,0.961-2.2c0.16-0.572,0.38-1.33,0.655-2.268l0.345-1.203l0.72-0.38
				l-0.378-0.409c0.069-0.278,0.148-0.552,0.242-0.827c0.228-0.528,0.411-0.814,0.549-0.86c0.113-0.021,0.262-0.021,0.445,0
				c0.16,0,0.288-0.034,0.38-0.102c0.228-0.116,0.342-0.242,0.342-0.38c-0.047-0.137-0.058-0.228-0.034-0.273
				C5.548,15,5.674,14.918,5.858,14.918c0.022,0,0.149,0.034,0.377,0.107c0.183,0.067,0.296,0.055,0.342-0.037
				c0.048-0.045,0.103-0.218,0.173-0.516c0.07-0.253,0.161-0.414,0.275-0.482c0.183-0.138,0.401-0.138,0.652,0
				c0.114,0.092,0.208,0.138,0.276,0.138c0.09,0.022,0.184,0,0.276-0.07c0.138-0.113,0.206-0.285,0.206-0.513
				c-0.025-0.185,0.068-0.344,0.274-0.482c0.208-0.115,0.402-0.137,0.585-0.069c0.023,0,0.091,0.023,0.207,0.069
				c0.045,0.045,0.081,0.057,0.103,0.034c0.091-0.045,0.136-0.149,0.136-0.31c-0.021-0.185,0-0.321,0.071-0.412
				c0.228-0.23,0.448-0.332,0.653-0.31c0.138,0,0.217,0,0.239,0c0.093,0,0.184-0.034,0.276-0.104c0.069-0.091,0.15-0.194,0.24-0.309
				c0.022-0.046,0.068-0.115,0.137-0.204c0.023-0.046,0.184-0.14,0.479-0.277c0.141-0.068,0.277-0.137,0.414-0.205l0.068-0.242
				l1.617-0.893c1.285-0.71,2.508-1.306,3.679-1.787c1.145-0.482,2.728-0.985,4.742-1.514c1.008-0.274,1.915-0.494,2.715-0.652
				l1.031,0.481l0.48-0.138l0.482,0.034c0.391,0.045,0.779,0.079,1.168,0.104c1.261,0.045,2.326-0.025,3.2-0.208
				c1.35-0.297,2.462-0.745,3.332-1.338c0.436-0.299,0.746-0.575,0.93-0.827l2.13-0.275l0.378,0.482l0.034,0.377l4.88,0.379
				c1.766,0.251,3.221,0.539,4.367,0.86c1.306,0.388,2.701,0.916,4.193,1.581c1.375,0.616,2.462,1.214,3.264,1.786
				c0.872,0.596,1.765,1.271,2.684,2.027c1.052,0.917,1.934,1.787,2.643,2.612C62.283,16.203,63.795,18.668,64.805,21.21z"/>
</svg>
