<?xml version="1.0"?>
<svg height="100px" width="100px" fill="#000000" xmlns="http://www.w3.org/2000/svg" version="1.1" viewBox="0 0 32 32" x="0px" y="0px">
  <path d="M26.286 0c-3.142 0-5.714 2.572-5.714 5.714 0 0.512 0.074 1.006 0.202 1.479l-10.573 5.287c-1.049-1.332-2.67-2.194-4.487-2.194-3.142 0-5.714 2.572-5.714 5.714s2.572 5.714 5.714 5.714c1.815 0 3.437-0.862 4.486-2.193l10.574 5.287c-0.127 0.473-0.202 0.966-0.202 1.478 0 3.142 2.572 5.714 5.714 5.714s5.714-2.572 5.714-5.714c0-3.142-2.572-5.714-5.714-5.714-1.817 0-3.438 0.862-4.487 2.194l-10.573-5.287c0.128-0.473 0.202-0.967 0.202-1.479s-0.074-1.005-0.202-1.478l10.574-5.287c1.049 1.331 2.67 2.193 4.486 2.193 3.142 0 5.714-2.572 5.714-5.714s-2.572-5.714-5.714-5.714zM26.286 2.286c1.907 0 3.429 1.522 3.429 3.429s-1.522 3.429-3.429 3.429c-1.907 0-3.429-1.522-3.429-3.429s1.522-3.429 3.429-3.429zM5.714 12.571c1.907 0 3.429 1.522 3.429 3.429s-1.522 3.429-3.429 3.429c-1.907 0-3.429-1.522-3.429-3.429s1.522-3.429 3.429-3.429zM26.286 22.857c1.907 0 3.429 1.522 3.429 3.429s-1.522 3.429-3.429 3.429c-1.907 0-3.429-1.522-3.429-3.429s1.522-3.429 3.429-3.429z"/>
</svg>
