<?xml version="1.0"?>
<svg xmlns="http://www.w3.org/2000/svg" viewBox="0 0 37.75 32">
  <path fill="currentColor" d="M37.073,2.483v0.083c0,0.029,0,0.056,0,0.083
				c0,0.056,0,0.099,0,0.125c0,0.029,0,0.054,0,0.083c0.137,0,0.278,0,0.418,0c0,0.026,0,0.055,0,0.084c0,0.167,0,0.319,0,0.458
				c0,0.138,0,0.278,0,0.416c0,0.168,0,0.321,0,0.46c0,0.14,0,0.276,0,0.417c0,0.168,0,0.319,0,0.46c0,0.138,0,0.277,0,0.416
				c0,0.167,0,0.32,0,0.457c0,0.141,0,0.279,0,0.417c0,0.167,0,0.323,0,0.461c0,0.14,0,0.278,0,0.416c0,0.168,0,0.323,0,0.46
				s0,0.279,0,0.416c0,0.168,0,0.32,0,0.46s0,0.277,0,0.417c0,0.166,0,0.307,0,0.418c0,0.138,0,0.249,0,0.332
				c0,0.056,0,0.099,0,0.125c0,0.026,0,0.069,0,0.125v0.292c0,0.056,0,0.099,0,0.125c0,0.056,0,0.097,0,0.125v0.083
				c0,0.028,0,0.069,0,0.125c0,0.028,0,0.07,0,0.126v0.081c0,0.031,0,0.056,0,0.087v0.04c0,0.028,0,0.056,0,0.083
				c-3.368,0-6.746,0-10.139,0l-0.041,0.044v0.042c0,0.024,0,0.056,0,0.081c-0.028,0.029-0.057,0.042-0.084,0.042
				c-0.054,0.028-0.097,0.054-0.124,0.083l-0.043,0.041v0.042c-0.025,0-0.068,0.014-0.124,0.044c0,0.026-0.014,0.053-0.042,0.082
				h-0.041c-0.027,0.029-0.056,0.056-0.083,0.083c-0.028,0-0.043,0.015-0.043,0.044v0.041c-0.027,0-0.056,0.015-0.083,0.042
				c-0.027,0-0.055,0-0.083,0c0,0.056,0,0.111,0,0.166c0,0.113,0,0.237,0,0.375c0,0.112,0,0.237,0,0.377c0,0.139,0,0.263,0,0.375
				c0,0.138,0,0.262,0,0.374c0,0.143,0,0.265,0,0.376c0,0.14,0,0.266,0,0.375c0,0.141,0,0.279,0,0.419c0,0.111,0,0.234,0,0.376
				c0,0.111,0,0.234,0,0.375c0,0.112,0,0.234,0,0.375c0,0.029,0,0.056,0,0.083c0.083,0,0.153,0,0.209,0c0,0.029,0,0.056,0,0.085
				v0.082c0,0.03,0,0.057,0,0.085c0,0.027,0,0.056,0,0.083v0.04c0,0.03,0,0.058,0,0.084v0.083c0,0.028,0,0.056,0,0.085v0.085h-0.043
				v0.04c0,0.026,0,0.056,0,0.084v0.083c0,0.027,0,0.056,0,0.083v0.041c0,0.03,0,0.054,0,0.085c0,0.026,0,0.056,0,0.082
				c-4.116,0-8.245,0-12.388,0c0,0.056,0,0.097,0,0.125c0,0.058,0,0.097,0,0.124c-0.03,0.029-0.043,0.056-0.043,0.085
				c-0.028,0.056-0.055,0.099-0.083,0.127c0,0.026,0,0.067,0,0.123c0,0.029,0,0.071,0,0.125v0.085c0,0.027,0,0.056,0,0.083
				c0,0.057,0,0.098,0,0.124c0,0.056,0,0.099,0,0.126c-0.027,0.028-0.04,0.056-0.04,0.084c-0.057,0.027-0.097,0.069-0.127,0.125
				c0,0.027,0,0.07,0,0.125c0,0.028,0,0.056,0,0.084c0,0.026,0,0.07,0,0.123c0,0.028,0,0.056,0,0.084c0,0.056,0,0.097,0,0.126
				c-0.026,0.056-0.042,0.097-0.042,0.125c-0.054,0.028-0.082,0.054-0.082,0.083c0,0.026,0,0.07,0,0.126c0,0.025,0,0.068,0,0.124
				c0,0.028,0,0.056,0,0.083s0,0.054,0,0.082c0,0.058,0,0.098,0,0.127c0,0.055,0,0.096,0,0.124c-0.055,0.028-0.112,0.07-0.167,0.126
				c0,0.028,0,0.056,0,0.083s0,0.069,0,0.125c0,0.027,0,0.069,0,0.125c0,0.027,0,0.055,0,0.083s0,0.058,0,0.085
				c-0.028,0-0.07,0.026-0.125,0.082c0,0.028,0,0.056,0,0.084c0,0.028,0,0.07,0,0.126c0,0.027,0,0.068,0,0.124
				c0,0.028,0,0.056,0,0.085c-0.026,0.027-0.041,0.055-0.041,0.081c-0.029,0.056-0.07,0.097-0.126,0.128c0,0.056,0,0.096,0,0.122
				c0,0.029,0,0.07,0,0.126c-0.026,0-0.041,0.028-0.041,0.084c-0.028,0.028-0.055,0.069-0.084,0.125c0,0.028,0,0.056,0,0.083
				c0,0.056,0,0.098,0,0.124c-0.027,0.028-0.042,0.058-0.042,0.085c-0.026,0.056-0.07,0.097-0.125,0.125c0,0.056,0,0.098,0,0.125
				s0,0.069,0,0.125c-0.027,0-0.04,0.029-0.04,0.085c-0.028,0.026-0.057,0.068-0.084,0.124c0,0.029,0,0.056,0,0.085
				c0,0.054,0,0.096,0,0.124c0,0.028,0,0.056,0,0.083c-0.056,0-0.111,0.026-0.166,0.083c-0.029,0-0.042,0.028-0.042,0.084
				c-0.028,0.028-0.054,0.068-0.085,0.124c0,0.029,0,0.056,0,0.085c0,0.054,0,0.095,0,0.125c0,0.027,0,0.056,0,0.083v0.126
				c-0.054,0.027-0.11,0.055-0.166,0.083c0,0.028,0,0.056,0,0.083c0,0.056,0,0.098,0,0.125c0,0.028,0,0.069,0,0.125
				c-0.026,0.029-0.07,0.07-0.126,0.125v0.083c0,0.028,0,0.056,0,0.084c0,0.056,0,0.097,0,0.124
				c-0.054,0.057-0.109,0.099-0.165,0.125c0,0.03,0,0.058,0,0.085c0,0.056,0,0.097,0,0.124c0,0.029,0,0.069,0,0.126
				c-0.028,0.027-0.042,0.069-0.042,0.123c-0.056,0-0.083,0.029-0.083,0.084c0,0.029,0,0.056,0,0.086c0,0.053,0,0.095,0,0.123
				c0,0.056,0,0.097,0,0.125v0.042c-0.057,0.029-0.112,0.071-0.167,0.125v0.083c0,0.027,0,0.056,0,0.083c0,0.056,0,0.099,0,0.125
				c0,0.056,0,0.1,0,0.125v0.042c-0.029,0.03-0.07,0.056-0.127,0.084c0,0.027,0,0.07,0,0.126c0,0.026,0,0.053,0,0.081
				c0,0.056,0,0.1,0,0.127c0,0.056,0,0.096,0,0.123c0,0.029,0,0.056,0,0.087c0,0.025,0,0.054,0,0.081v0.042
				c-0.056,0.029-0.111,0.056-0.167,0.084c0,0.029,0,0.056,0,0.083c0,0.029,0,0.071,0,0.126c0,0.028,0,0.069,0,0.126
				c0,0.025,0,0.055,0,0.082c0,0.028,0,0.056,0,0.084c0,0.056,0,0.097,0,0.124c0,0.056,0,0.099,0,0.126s0,0.067,0,0.125
				c0,0.028,0,0.056,0,0.083c0,0.03,0,0.071,0,0.127c0,0.028,0,0.069,0,0.124c0,0.027,0,0.056,0,0.083c0,0.03,0,0.058,0,0.085v0.125
				h0.045c0.026,0,0.041,0.013,0.041,0.04v0.21l0.041,0.042v0.125c0.028,0,0.04,0.012,0.04,0.041v0.042
				c0,0.029,0.017,0.041,0.045,0.041v0.044c0,0.026,0.012,0.041,0.042,0.041v0.042l0.04,0.042v0.167c0.027,0,0.056,0.014,0.083,0.04
				v0.043l0.043,0.043v0.04h0.042v0.042c0,0.029,0.013,0.041,0.042,0.041h0.041V29.6c0.029,0,0.042,0.012,0.042,0.041v0.042
				c0.028,0,0.056,0,0.083,0v0.041c0.028,0.028,0.056,0.043,0.082,0.043c0.03,0,0.056,0,0.086,0v0.041
				c0,0.028,0.014,0.043,0.04,0.043h0.085c0.055,0,0.095,0,0.123,0v0.041h0.043v0.043c0.056,0,0.097,0,0.125,0v0.041
				c0.028,0,0.055,0,0.083,0c0,0.027,0.015,0.043,0.043,0.043v0.333c-0.196,0-0.378,0-0.543,0c-0.086,0-0.167,0-0.251,0v-0.04
				c-0.028,0-0.059,0-0.083,0l-0.042,0.04c-0.167,0-0.319,0-0.461,0c-0.107,0-0.206,0.016-0.29,0.042c-0.333,0-0.683,0-1.042,0
				c-0.087-0.026-0.154-0.042-0.208-0.042v-0.127h-0.042c-0.112,0-0.209,0-0.293,0c-0.056-0.025-0.112-0.041-0.167-0.041v-0.165
				c-0.11,0-0.234,0-0.375,0c-0.139-0.028-0.276-0.043-0.416-0.043V29.89C8.76,29.864,8.636,29.85,8.497,29.85
				c-0.139,0-0.278-0.015-0.417-0.043v-0.041H8.038c-0.057,0-0.097,0-0.125,0H7.83c-0.333-0.028-0.68-0.043-1.042-0.043
				c0-0.028,0-0.056,0-0.083c-0.336-0.029-0.64-0.057-0.919-0.084c-0.026,0-0.056-0.027-0.082-0.083c-0.166,0-0.333-0.013-0.5-0.04
				c-0.029-0.03-0.057-0.056-0.084-0.087c-0.167-0.026-0.335-0.056-0.502-0.081c-0.024,0-0.053-0.029-0.081-0.085
				c-0.167,0-0.335-0.014-0.499-0.042c-0.029-0.026-0.059-0.056-0.085-0.083c-0.167-0.029-0.32-0.056-0.46-0.085V28.89
				c-0.112,0-0.223-0.014-0.332-0.041c-0.028-0.03-0.056-0.056-0.085-0.085c-0.055-0.026-0.125-0.056-0.208-0.082
				c-0.084,0-0.166,0-0.251,0c0-0.029,0-0.055,0-0.083c0-0.057,0-0.099,0-0.128c0-0.027,0-0.056,0-0.083c0-0.056,0-0.096,0-0.124
				c0-0.028,0-0.07,0-0.126v-0.083c-0.778,0-1.555,0-2.333,0v-0.04c0-0.03,0-0.056,0-0.086v-0.082c-0.031,0-0.086,0-0.167,0
				c0-0.056,0-0.099,0-0.125c0-0.056,0-0.097,0-0.124c0-0.029,0-0.056,0-0.085c0-0.056,0-0.097,0-0.126c0-0.025,0-0.068,0-0.123
				c0-0.03,0-0.07,0-0.126c0-0.028,0-0.056,0-0.082c0-0.029,0-0.058,0-0.085c0-0.056,0-0.097,0-0.126c0-0.054,0-0.097,0-0.122
				c0-0.031,0-0.058,0-0.087c0-0.027,0-0.067,0-0.123c0-0.028,0-0.071,0-0.127c0-0.028,0-0.055,0-0.081c0-0.056,0-0.099,0-0.126
				c0-0.028,0-0.055,0-0.084c0-0.056,0-0.097,0-0.125c0-0.056,0-0.098,0-0.125c0-0.029,0-0.056,0-0.085c0-0.025,0-0.068,0-0.124
				c0-0.028,0-0.069,0-0.125c0-0.026,0-0.056,0-0.083v-0.085c0-0.056,0-0.097,0-0.123c0-0.03,0-0.057,0-0.086v-0.041
				c0.081-0.028,0.137-0.043,0.167-0.043c0-0.053,0-0.096,0-0.123c0-0.058,0-0.097,0-0.126c0-0.026,0-0.068,0-0.124
				c0-0.028,0-0.056,0-0.085c0-0.026,0-0.069,0-0.125c0-0.027,0-0.068,0-0.124c0-0.028,0-0.056,0-0.084
				c0.025-0.056,0.054-0.083,0.081-0.083c0.027-0.054,0.042-0.095,0.042-0.125c0-0.056,0-0.098,0-0.125c0-0.026,0-0.069,0-0.125
				c0-0.028,0-0.056,0-0.083c0-0.028,0-0.056,0-0.083c0.085-0.029,0.141-0.04,0.167-0.04c0-0.057,0-0.101,0-0.128
				c0-0.054,0-0.099,0-0.125s0-0.069,0-0.125c0-0.026,0-0.056,0-0.082c0-0.03,0-0.07,0-0.125c0-0.028,0-0.057,0-0.083
				c0-0.056,0-0.097,0-0.126c0.056-0.056,0.097-0.081,0.126-0.081c0-0.056,0-0.1,0-0.126c0-0.029,0-0.069,0-0.126
				c0-0.027,0-0.068,0-0.124c0-0.028,0-0.056,0-0.085c0-0.027,0-0.055,0-0.083c0.082-0.028,0.138-0.042,0.167-0.042
				c0-0.056,0-0.096,0-0.125c0-0.028,0-0.069,0-0.125c0-0.029,0-0.069,0-0.125c0-0.028,0-0.056,0-0.083c0-0.025,0-0.055,0-0.081
				c0.056-0.03,0.096-0.044,0.122-0.044c0-0.056,0-0.097,0-0.126c0-0.026,0-0.066,0-0.122c0-0.031,0-0.072,0-0.128
				c0.085-0.026,0.141-0.054,0.168-0.081c0-0.029,0-0.057,0-0.085c0-0.056,0-0.097,0-0.124c0-0.056,0-0.098,0-0.126
				c0.056-0.028,0.098-0.056,0.125-0.084c0-0.056,0-0.097,0-0.125c0-0.029,0-0.07,0-0.125c0.059-0.026,0.098-0.07,0.126-0.125
				c0-0.028,0.015-0.056,0.042-0.084c0-0.027,0-0.056,0-0.083c0.055,0,0.097-0.013,0.125-0.041c0-0.056,0-0.099,0-0.126
				s0-0.069,0-0.124c0.056-0.029,0.096-0.069,0.124-0.127c0-0.028,0.013-0.054,0.043-0.082c0-0.028,0-0.056,0-0.083s0-0.056,0-0.086
				v-0.038c0.056-0.029,0.096-0.056,0.124-0.084c0-0.027,0-0.056,0-0.083c0-0.059,0-0.099,0-0.127c0-0.056,0-0.096,0-0.124
				c0.056-0.028,0.112-0.056,0.167-0.083c0-0.029,0-0.072,0-0.127c0-0.026,0-0.068,0-0.125c0.028-0.026,0.069-0.056,0.125-0.083
				c0-0.056,0-0.098,0-0.125c0.026-0.028,0.042-0.054,0.042-0.083c0.028-0.056,0.056-0.099,0.083-0.125
				c0-0.054,0.013-0.099,0.042-0.125c0.027-0.029,0.055-0.056,0.083-0.085c0.029-0.026,0.044-0.067,0.044-0.125
				c0-0.026,0-0.069,0-0.125c0-0.026,0-0.056,0-0.082c0.054-0.057,0.111-0.085,0.164-0.085c0-0.056,0-0.097,0-0.122
				c0-0.056,0-0.102,0-0.128c0.029-0.027,0.07-0.069,0.126-0.125c0-0.026,0-0.056,0-0.083c0-0.026,0-0.072,0-0.126
				c0-0.027,0-0.067,0-0.124c0.056-0.028,0.098-0.056,0.125-0.083c0-0.058,0.014-0.084,0.042-0.084v-0.082
				c0.056-0.028,0.097-0.056,0.126-0.085c0-0.029,0-0.069,0-0.126v-0.084c0.053-0.025,0.111-0.053,0.166-0.081
				c0-0.028,0-0.07,0-0.126c0.056-0.026,0.098-0.056,0.127-0.082c0-0.056,0-0.099,0-0.126c0.029-0.056,0.053-0.081,0.083-0.081
				c0.026-0.057,0.056-0.102,0.082-0.126c0-0.056,0-0.097,0-0.128c0-0.025,0-0.066,0-0.123c0-0.029,0.028-0.056,0.083-0.084
				c0.027-0.027,0.044-0.066,0.044-0.123c0-0.029,0-0.056,0-0.086c0.053-0.056,0.096-0.096,0.124-0.125
				c0-0.057,0.015-0.083,0.042-0.083c0-0.055,0-0.097,0-0.125c0.056-0.028,0.095-0.069,0.125-0.125c0-0.028,0-0.07,0-0.126
				c0-0.028,0-0.056,0-0.083c0-0.026,0-0.056,0-0.083c0.055-0.028,0.111-0.04,0.167-0.04c0-0.056,0-0.1,0-0.126
				c0-0.026,0-0.07,0-0.125c0-0.027,0-0.068,0-0.125c0.057-0.028,0.096-0.056,0.124-0.083c0-0.028,0-0.07,0-0.125
				c0-0.027,0-0.054,0-0.083c0-0.056,0-0.097,0-0.126c0-0.025,0-0.056,0-0.081c0-0.056,0-0.099,0-0.127s0-0.056,0-0.083v-0.041
				c0.056,0,0.112-0.015,0.168-0.043c0-0.057,0-0.098,0-0.125c0-0.029,0-0.07,0-0.126v-0.125c-0.056,0-0.112-0.012-0.168-0.042
				c0-0.027,0-0.069,0-0.126v-0.041c0-0.027,0-0.056,0-0.083c-0.056,0-0.11-0.016-0.164-0.043c-0.029-0.029-0.072-0.068-0.126-0.124
				c0-0.029,0-0.07,0-0.124c0-0.028-0.014-0.056-0.043-0.087c-0.082-0.027-0.165-0.056-0.248-0.083c0-0.029,0-0.054,0-0.085
				c-0.057-0.025-0.112-0.053-0.168-0.081c-0.028-0.027-0.071-0.071-0.125-0.127v-0.083c-0.058-0.029-0.111-0.056-0.167-0.082
				c-0.028-0.03-0.056-0.059-0.085-0.085c-0.055-0.029-0.11-0.041-0.166-0.041c0-0.029,0-0.056,0-0.083
				c-0.057-0.028-0.111-0.056-0.167-0.083c0-0.029,0-0.057,0-0.082c-0.083-0.031-0.178-0.044-0.29-0.044c0-0.028,0-0.056,0-0.083
				c-0.056-0.028-0.113-0.055-0.168-0.083c-0.028-0.027-0.055-0.055-0.083-0.083c-0.057-0.028-0.111-0.041-0.167-0.041
				c0-0.029,0-0.056,0-0.083c-0.167-0.029-0.321-0.057-0.458-0.084c-0.028-0.028-0.057-0.057-0.085-0.084
				c-0.055-0.028-0.124-0.041-0.209-0.041c0-0.029,0-0.057,0-0.083c-0.192-0.029-0.388-0.056-0.582-0.085c0-0.026,0-0.069,0-0.125
				c0-0.026,0-0.056,0-0.082c0-0.029,0-0.057,0-0.085c-0.112,0-0.25,0-0.416,0c0-0.026,0-0.068,0-0.125c0-0.028,0-0.056,0-0.083
				V9.909c0-0.056,0-0.097,0-0.126c0-0.056,0-0.097,0-0.125c0-0.027,0-0.068,0-0.124c0-0.03,0-0.056,0-0.085
				c0-0.026,0-0.068,0-0.124c0-0.029,0-0.07,0-0.126c0-0.028,0-0.056,0-0.083V9.032c0-0.056,0-0.098,0-0.125
				c0-0.056,0-0.096,0-0.122c0-0.03,0-0.072,0-0.127C0.418,8.628,0.46,8.602,0.486,8.575c0-0.03,0-0.071,0-0.127
				c0-0.028,0-0.054,0-0.083c0-0.056,0-0.098,0-0.127V8.157c0-0.056,0-0.097,0-0.126c0-0.056,0-0.097,0-0.124
				c0-0.028,0-0.07,0-0.126c0-0.026,0-0.056,0-0.083c0-0.029,0-0.054,0-0.084c0.167-0.027,0.32-0.041,0.461-0.041
				c0-0.056,0-0.097,0-0.125c0-0.026,0-0.071,0-0.126c0-0.026,0-0.068,0-0.124c0-0.029,0-0.056,0-0.084c0-0.028,0-0.068,0-0.124
				c0-0.029,0-0.056,0-0.084c0-0.056,0-0.098,0-0.126V6.696c0-0.054,0-0.097,0-0.125s0-0.07,0-0.127c0-0.026,0-0.067,0-0.123
				c0.056-0.026,0.096-0.057,0.122-0.085c0-0.026,0-0.056,0-0.082c0-0.056,0-0.097,0-0.126c0.059-0.056,0.1-0.095,0.128-0.124
				c0-0.028,0.013-0.056,0.04-0.085c0-0.054,0-0.096,0-0.122c0-0.029,0-0.059,0-0.086V5.57c0.056,0,0.098-0.015,0.125-0.042
				c0-0.056,0-0.098,0-0.125c0-0.03,0-0.07,0-0.127c0-0.028,0-0.07,0-0.123c0.085-0.029,0.141-0.056,0.169-0.085
				c0-0.026,0-0.056,0-0.083c0-0.028,0-0.071,0-0.125c0.055-0.029,0.097-0.056,0.125-0.085c0-0.026,0-0.056,0-0.083
				c0-0.029,0-0.054,0-0.085V4.568c0.056-0.027,0.111-0.055,0.167-0.083c0-0.029,0-0.056,0-0.084c0.056,0,0.096-0.014,0.124-0.042
				c0-0.028,0-0.07,0-0.127c0-0.025,0-0.054,0-0.081V4.111c0.056,0,0.112-0.014,0.167-0.044c0-0.026,0-0.053,0-0.082
				C2.17,3.956,2.21,3.929,2.239,3.902c0-0.028,0-0.059,0-0.085s0-0.056,0-0.082V3.692C2.295,3.664,2.351,3.636,2.407,3.61
				c0-0.026,0-0.057,0-0.083c0.055,0,0.097-0.015,0.126-0.044c0-0.026,0-0.054,0-0.082c0.054-0.029,0.111-0.056,0.164-0.085
				c0-0.027,0-0.055,0-0.083c0.056,0,0.099-0.013,0.126-0.042c0-0.026,0-0.056,0-0.082C2.879,3.081,2.934,3.067,2.99,3.067
				c0-0.029,0-0.056,0-0.083V2.9c0-0.029,0-0.071,0-0.125V2.65c0.389,0,0.779,0.014,1.168,0.043c0-0.029,0-0.056,0-0.086
				c0-0.026,0-0.068,0-0.124c0-0.028,0-0.07,0-0.125c0-0.026,0-0.057,0-0.085V2.19c0-0.056,0-0.096,0-0.125c0-0.027,0-0.056,0-0.083
				V1.941c4.756,0.025,9.51,0.041,14.267,0.041c0,0.027,0,0.056,0,0.083c0,0.056,0,0.098,0,0.125c0,0.056,0,0.097,0,0.126
				c0,0.027,0,0.056,0,0.083c0.194,0,0.388,0,0.583,0v0.084c0.056,0.027,0.097,0.056,0.127,0.083c0,0.029,0,0.056,0,0.083
				c0,0.056,0,0.099,0,0.125c0,0.054,0,0.096,0,0.125c0,0.026,0,0.056,0,0.085c0,0.054,0,0.096,0,0.125c0,0.026,0,0.069,0,0.124
				v0.042c1.749,0,3.502,0,5.255,0V3.234c0-0.03,0-0.055,0-0.084V3.067c0-0.056,0-0.097,0-0.125c0-0.058,0-0.1,0-0.128
				c0-0.026,0-0.066,0-0.122c0-0.029,0-0.056,0-0.086c0-0.026,0-0.068,0-0.124c0-0.028,0-0.07,0-0.125c0-0.026,0-0.057,0-0.085V2.19
				c0-0.056,0-0.096,0-0.125c0-0.027,0-0.056,0-0.083V1.941c3.56,0.025,7.103,0.041,10.636,0.041V1.941
				c0.335,0.025,0.653,0.041,0.961,0.041h0.331c0.196,0,0.39,0,0.586,0c0,0.027,0,0.056,0,0.083c0.056,0,0.111,0.013,0.167,0.044
				c0,0.054,0,0.096,0,0.122c0,0.029,0,0.07,0,0.126C37.073,2.387,37.073,2.428,37.073,2.483z M17.55,11.704
				c-0.085,0.026-0.155,0.056-0.208,0.082c-0.028,0.029-0.071,0.056-0.126,0.085c-0.029,0.026-0.069,0.067-0.125,0.123
				c0,0.029,0,0.072,0,0.126c-0.028,0.027-0.067,0.056-0.124,0.083c0,0.031,0,0.059,0,0.087c0,0.054,0,0.095,0,0.124
				c-0.056,0.027-0.111,0.056-0.167,0.081c0,0.029,0,0.056,0,0.085c0,0.056,0,0.096,0,0.124c-0.028,0.028-0.069,0.057-0.127,0.083
				c0,0.029,0,0.058,0,0.084c0,0.054,0,0.097,0,0.125c0,0.056,0,0.097,0,0.126c-0.028,0.027-0.056,0.068-0.083,0.125
				c-0.027,0.028-0.056,0.055-0.083,0.083c0,0.027,0,0.067,0,0.123c0,0.031,0,0.071,0,0.127c0,0.028-0.014,0.055-0.042,0.082
				c-0.026,0.029-0.057,0.058-0.083,0.084c0,0.056,0,0.098,0,0.127c0,0.054,0,0.097,0,0.124c-0.029,0.029-0.042,0.071-0.042,0.126
				l0.042,0.085c0,0.026,0,0.066,0,0.123c0,0.028,0,0.056,0,0.084c0.026,0.056,0.057,0.097,0.083,0.124
				c0.028,0.028,0.042,0.056,0.042,0.083c0,0.057,0,0.099,0,0.126c0.056,0.056,0.097,0.097,0.125,0.125
				c0,0.028,0.013,0.069,0.041,0.125c0.028,0,0.041,0.026,0.041,0.083c0.03,0.028,0.058,0.068,0.086,0.125c0,0.031,0,0.058,0,0.086
				c0,0.056,0,0.096,0,0.123c0,0.029,0,0.056,0,0.084c0,0.056,0,0.098,0,0.123c0,0.031,0,0.072,0,0.128c0,0.025,0,0.07,0,0.126
				v0.081c0,0.028,0,0.071,0,0.126c0,0.026,0,0.056,0,0.082c0,0.057,0,0.099,0,0.126s0,0.056,0,0.081c0,0.058,0,0.1,0,0.127
				c2.779,0,5.546,0,8.301,0v-0.127c0-0.025,0-0.053,0-0.081V16.25c0-0.029,0-0.056,0-0.085v-0.208c0.221,0,0.443,0.015,0.665,0.042
				v-0.042c0-0.026,0-0.056,0-0.081v-0.043c0.03,0,0.058-0.014,0.085-0.044v-0.04c0-0.112,0-0.224,0-0.335c0-0.11,0-0.209,0-0.29
				c0-0.143,0-0.251,0-0.335c0-0.111,0-0.237,0-0.375c0-0.084,0-0.181,0-0.292c0-0.112,0-0.224,0-0.335c0-0.112,0-0.224,0-0.335
				c0-0.107,0-0.219,0-0.331c0-0.085,0-0.196,0-0.335c0-0.111,0-0.207,0-0.292c0-0.138,0-0.248,0-0.333c0-0.026,0-0.07,0-0.126
				c-0.11,0-0.235,0-0.377,0v-0.041c0-0.027,0-0.055,0-0.082c-0.025,0-0.054-0.015-0.082-0.041v-0.044h-0.083
				c0-0.027-0.013-0.053-0.042-0.083v-0.041c0-0.029-0.012-0.042-0.042-0.042v-0.044c-0.028,0-0.067,0-0.124,0v-0.083h-0.084
				c0-0.029-0.015-0.056-0.042-0.083l-0.083-0.042c-0.028-0.025-0.057-0.041-0.084-0.041c-0.054-0.029-0.095-0.04-0.124-0.04v-0.085
				h-0.042c-1.5,0-2.989,0-4.464,0c0,0.029,0,0.056,0,0.085v0.04c0,0.028,0,0.056,0,0.083s0,0.054,0,0.083v0.126
				c-0.056,0.026-0.112,0.053-0.167,0.082c0,0.056,0,0.097,0,0.126c0,0.026,0,0.067,0,0.123c0,0.029,0,0.072,0,0.126
				c0,0.027,0,0.056,0,0.083c0,0.031,0,0.059,0,0.087c0,0.054,0,0.095,0,0.124c0,0.056,0,0.095,0,0.124c0,0.057,0,0.112,0,0.167
				v0.043c0,0.027,0,0.069,0,0.125c0,0.028,0,0.069,0,0.125c0,0.028,0,0.056,0,0.083c0,0.029,0,0.056,0,0.085
				c0,0.056,0,0.097,0,0.126c0,0.056,0,0.095,0,0.123s0,0.055,0,0.084v0.083c0.028,0.028,0.043,0.055,0.043,0.082
				c0.026,0,0.04,0.015,0.04,0.045c0,0.026,0.013,0.04,0.043,0.04c0,0.03,0.013,0.042,0.041,0.042c0,0.031,0.014,0.042,0.043,0.042
				c0,0.028,0,0.056,0,0.084c0.026,0.027,0.053,0.041,0.081,0.041c0.028,0.028,0.058,0.056,0.084,0.083v0.042
				c0,0.028,0.014,0.043,0.042,0.043c0.027,0.028,0.042,0.056,0.042,0.085l0.042,0.04c0.028,0,0.056,0,0.084,0
				c0,0.027,0,0.056,0,0.083c0.027,0,0.056,0.016,0.083,0.04l0.042,0.044c0.028,0,0.054,0.012,0.083,0.04v0.083
				c0.026,0,0.056,0,0.081,0c0.031,0.028,0.056,0.056,0.086,0.083v0.042c0.025,0,0.056,0.015,0.081,0.043
				c0.056,0,0.113,0.014,0.167,0.042v0.083c0.083,0,0.142,0,0.168,0c0.056,0.028,0.096,0.055,0.125,0.082v0.044
				c0.083,0,0.153,0.011,0.208,0.04c0.054,0,0.126,0.016,0.209,0.042v0.085c0.194,0,0.389,0,0.583,0c0,0.025,0,0.056,0,0.081v0.086
				c0,0.025,0,0.056,0,0.081c0,0.026,0,0.056,0,0.082v0.044c0,0.027,0,0.056,0,0.083v0.084c0,0.027,0,0.055,0,0.083v0.083
				c-0.445,0-0.889,0-1.334,0v-0.044c-0.056-0.025-0.112-0.04-0.167-0.04c-0.056-0.028-0.126-0.056-0.208-0.083v-0.045
				c-0.029-0.025-0.07-0.04-0.126-0.04c-0.056,0-0.112-0.015-0.167-0.042v-0.041c-0.027-0.029-0.069-0.044-0.125-0.044
				c-0.057-0.026-0.112-0.056-0.165-0.082v-0.041l-0.043-0.04c-0.028-0.029-0.056-0.044-0.084-0.044v-0.042
				c-0.055-0.025-0.097-0.056-0.125-0.081c-0.028,0-0.056-0.015-0.086-0.043c0-0.027,0-0.057,0-0.083
				c-0.025-0.029-0.053-0.04-0.081-0.04c-0.028-0.03-0.056-0.044-0.084-0.044c-0.028-0.026-0.04-0.054-0.04-0.082l-0.043-0.042
				c0-0.028-0.012-0.056-0.041-0.083c-0.027-0.028-0.057-0.043-0.084-0.043v-0.042c-0.027-0.028-0.052-0.056-0.083-0.083v-0.042
				c-0.027-0.026-0.055-0.055-0.082-0.082l-0.043-0.044v-0.04c-0.026,0-0.053-0.016-0.082-0.042v-0.041
				c-0.029-0.029-0.056-0.056-0.083-0.084v-0.04c0-0.028-0.03-0.043-0.085-0.043v-0.042c0-0.028,0-0.056,0-0.083
				c-0.056,0-0.125,0-0.207,0c0-0.028,0-0.056,0-0.082c0-0.029-0.014-0.043-0.043-0.043c0-0.027-0.015-0.054-0.04-0.083V13.58
				c0-0.028,0-0.057,0-0.083v-0.044c0-0.025,0-0.056,0-0.081v-0.082c0-0.029,0-0.056,0-0.085v-0.126c0-0.027,0-0.055,0-0.083
				c0.053,0,0.083-0.013,0.083-0.041c0-0.029,0-0.056,0-0.083c0-0.055,0-0.098,0-0.125c0-0.058,0-0.111,0-0.167
				c0-0.056,0-0.111,0-0.167c0-0.057,0-0.113,0-0.167c0-0.056,0-0.112,0-0.167c0-0.056,0-0.112,0-0.167c0-0.057,0-0.112,0-0.167
				s0-0.112,0-0.167s0-0.097,0-0.125c0-0.083,0-0.153,0-0.209c-0.252,0-0.489,0-0.71,0v0.044c0,0.025,0,0.053,0,0.082v0.041
				c-0.141,0.029-0.292,0.057-0.46,0.084v0.042c-0.028,0.026-0.069,0.056-0.124,0.083C17.55,11.648,17.55,11.674,17.55,11.704z
				 M7.161,29.6c0.085,0,0.156,0.012,0.212,0.041V29.6c-0.087-0.029-0.183-0.044-0.294-0.044L7.161,29.6z"/>
</svg>
