<?xml version="1.0"?>
<svg width="24" height="24" viewBox="0 0 24 24" fill="none" xmlns="http://www.w3.org/2000/svg">
  <path d="M24 3.53537C24 4.4769 23.6308 5.36305 22.9662 6.02766L20.6124 8.39073L19.3108 9.69226L20.0401 10.4215C20.4001 10.7815 20.4001 11.3722 20.0401 11.7322C19.8555 11.9076 19.6247 11.9999 19.3847 11.9999C19.1447 11.9999 18.9139 11.9076 18.7293 11.7322L12.2678 5.27074C11.9078 4.91074 11.9078 4.31998 12.2678 3.95998C12.6278 3.59998 13.2186 3.59998 13.5786 3.95998L14.3078 4.68921L17.9632 1.03384C18.637 0.369229 19.5231 0 20.4646 0C22.4122 0 23.9998 1.58768 23.9998 3.53524L24 3.53537Z" fill="currentColor"/>
  <path d="M3.68306 15.323C3.20306 15.803 2.77845 16.3384 2.43691 16.9199L0.341537 20.4091C0.119999 20.7784 0 21.203 0 21.6276C0 22.9384 1.06153 23.9999 2.3723 23.9999C2.79691 23.9999 3.22152 23.8799 3.59075 23.6584L7.07996 21.563C7.6615 21.2122 8.20611 20.7968 8.67688 20.3168L16.6985 12.3046L11.6954 7.30151L3.68306 15.323Z" fill="currentColor"/>
</svg>
