<?xml version="1.0"?>
<svg xmlns="http://www.w3.org/2000/svg" viewBox="0 0 36 36" fill="none">
  <path fill="currentColor" fill-rule="evenodd" clip-rule="evenodd" d="M25.2376 7.0939C26.9019 8.83356 27.8828 11.1153 28 13.52C29.9979 14.2303 31.6809 15.6232 32.7521 17.4532C33.8234 19.2831 34.2141 21.4325 33.8554 23.5224C33.4968 25.6122 32.4117 27.5084 30.7916 28.8764C29.1715 30.2444 27.1204 30.9965 25 31H11C8.87956 30.9965 6.82846 30.2444 5.20836 28.8764C3.58826 27.5084 2.50321 25.6122 2.14454 23.5224C1.78587 21.4325 2.1766 19.2831 3.24785 17.4532C4.31911 15.6232 6.00207 14.2303 7.99999 13.52C8.11839 11.109 9.10489 8.82222 10.7774 7.08168C12.45 5.34114 14.6956 4.26433 17.1 4.04999H18.02H18.94C21.3372 4.27345 23.5733 5.35425 25.2376 7.0939ZM8.12134 17.6086L13.4213 12.3086L18.7213 17.6086L16.5062 19.8237L14.9887 18.3062L14.9851 27.2943L11.8575 27.2943L11.8539 18.3062L10.3364 19.8237L8.12134 17.6086ZM26.0554 19.9863L28.2705 22.2014L22.9705 27.5014L17.6706 22.2014L19.8857 19.9863L21.4032 21.5038L21.4067 12.5157L24.5344 12.5157L24.5379 21.5038L26.0554 19.9863Z"/>
</svg>
