<?xml version="1.0"?>
<svg xmlns="http://www.w3.org/2000/svg" version="1.1" x="0px" y="0px" width="256" height="256" viewBox="0 0 1200 1200" overflow="visible">
  <path fill="currentColor" d="M558,290.4h513.4c36,0,63.6-28.8,63.6-63.6s-28.8-63.6-63.6-63.6H558c-36,0-63.6,28.8-63.6,63.6  S522,290.4,558,290.4L558,290.4z"/>
  <path fill="currentColor" d="M1071.4,912H558c-36,0-63.6,28.8-63.6,63.6s28.8,63.6,63.6,63.6h513.4c36,0,63.6-28.8,63.6-63.6  S1106.2,912,1071.4,912z"/>
  <path fill="currentColor" d="M558,790.8h513.4c36,0,63.6-28.8,63.6-63.6s-27.6-64.8-63.6-64.8H558c-36,0-63.6,28.8-63.6,63.6  S522,790.8,558,790.8L558,790.8z"/>
  <path fill="currentColor" d="M558,540h513.4c36,0,63.6-28.8,63.6-63.6s-28.8-63.6-63.6-63.6H558c-36,0-63.6,28.8-63.6,63.6  S522,540,558,540L558,540z"/>
  <path fill="currentColor" d="M367.2,739.2h-82.8V460.8h83.8c34.8,0,55.2-38.4,34.8-67.2L255.4,181.2c-16.8-24-52.8-24-70.8,0L37,393.6  c-18,28.8,2.4,67.2,37.2,67.2H157v278.4H73.2c-34.8,0-55.2,38.4-34.8,67.2L186,1018.8c16.8,24,52.8,24,70.8,0l147.6-212.4  C422.4,777.6,402,739.2,367.2,739.2z"/>
</svg>
