<?xml version="1.0"?>
<svg xmlns="http://www.w3.org/2000/svg" version="1.1" viewBox="0 0 1024 1024">
  <path d="M929.4,264.8c-13-95.3-96.9-170.4-196.5-185-16.8-2.5-80.4-11.4-227.9-11.4h-1.1c-147.5,0-179.1,9-195.9,11.4-96.8,14.2-185.2,81.6-206.6,178.1-10.3,47.5-11.4,100.2-9.5,148.5,2.7,69.3,3.3,138.4,9.6,207.4,4.4,45.8,12.1,91.3,23,136,20.4,82.7,102.9,151.4,183.7,179.5,86.6,29.3,179.6,34.1,268.8,14,9.8-2.3,19.5-4.9,29.1-7.9,21.6-6.8,47-14.4,65.7-27.8.3-.2.5-.4.6-.7.1-.3.2-.6.2-.9v-66.9c0-.3,0-.6-.2-.8-.1-.3-.3-.5-.6-.7-.2-.2-.5-.3-.8-.4-.3,0-.6,0-.9,0-57.1,13.5-115.7,20.3-174.4,20.2-101.1,0-128.3-47.5-136.1-67.2-6.3-17.1-10.2-34.9-11.8-53,0-.3,0-.6.2-.9.1-.3.3-.5.6-.7.2-.2.5-.3.8-.4.3,0,.6,0,.9,0,56.2,13.4,113.8,20.2,171.6,20.2,13.9,0,27.8,0,41.7-.4,58.1-1.6,119.4-4.6,176.6-15.6,1.4-.3,2.9-.5,4.1-.9,90.2-17.1,176.1-70.9,184.8-207.1.3-5.4,1.1-56.2,1.1-61.7,0-18.9,6.2-134.1-.9-204.9ZM790.6,604.7h-94.9v-229.8c0-48.4-20.4-73.1-61.8-73.1s-68.4,29.2-68.4,86.8v125.8h-94.3v-125.8c0-57.7-22.9-86.8-68.4-86.8s-61.8,24.7-61.8,73.1v229.8h-94.8v-236.8c0-48.4,12.5-86.8,37.5-115.3,25.8-28.4,59.6-43,101.5-43s85.2,18.5,109.7,55.4l23.6,39.2,23.6-39.2c24.5-36.9,61.2-55.4,109.6-55.4s75.7,14.6,101.6,43c25,28.5,37.5,66.9,37.5,115.3v236.8Z"/>
</svg>
