<?xml version="1.0"?>
<svg width="36" height="36" viewBox="0 0 36 36" fill="none" xmlns="http://www.w3.org/2000/svg">
  <rect width="2.63415" height="15.1463" transform="matrix(1 0 0 -1 30.6582 31)" fill=" currentColor "/>
  <rect width="2.63415" height="18.439" transform="matrix(1 0 0 -1 14.8535 31)" fill=" currentColor "/>
  <rect width="2.63415" height="13.1707" transform="matrix(1 0 0 -1 22.7559 31)" fill=" currentColor "/>
  <rect width="2.63415" height="27" transform="matrix(1 0 0 -1 6.95117 31)" fill=" currentColor "/>
  <rect width="2.63415" height="13.8293" transform="matrix(1 0 0 -1 26.707 31)" fill=" currentColor "/>
  <rect width="2.63415" height="23.0488" transform="matrix(1 0 0 -1 10.9023 31)" fill=" currentColor "/>
  <rect width="2.63415" height="14.4878" transform="matrix(1 0 0 -1 18.8047 31)" fill=" currentColor "/>
  <rect width="2.63415" height="25.6829" transform="matrix(1 0 0 -1 3 31)" fill=" currentColor "/>
</svg>
