<?xml version="1.0"?>
<svg xmlns="http://www.w3.org/2000/svg" viewBox="0 0 36 36" fill="none">
  <ellipse fill="currentColor" cx="18" cy="13.5" rx="18" ry="11.25"/>
  <path fill="currentColor" d="M23.6775 18.9875H20.8833L18.4661 14.9418H18.1747H16.3918V18.9875H13.8718V6.98755H18.3633C20.009 6.98755 21.2204 7.31898 21.9975 7.98184C22.7747 8.63326 23.1633 9.54755 23.1633 10.7247C23.1633 11.6504 22.9575 12.4218 22.5461 13.039C22.1461 13.6561 21.5804 14.1247 20.849 14.4447L23.6775 18.9875ZM16.3918 9.13041V12.7818H18.3633C19.0261 12.7818 19.5404 12.6161 19.9061 12.2847C20.2833 11.9418 20.4718 11.4733 20.4718 10.879C20.4718 10.2961 20.289 9.86183 19.9233 9.57612C19.569 9.27898 18.9975 9.13041 18.209 9.13041H16.3918Z"/>
  <path fill="currentColor" d="M11 26V31.601C11 32.926 12.0446 34 13.3333 34H22.6667C23.9554 34 25 32.926 25 31.601V26C22.7984 26.523 20.4394 26.8029 18 26.8029C15.5606 26.8029 13.2016 26.523 11 26Z"/>
</svg>
