<?xml version="1.0"?>
<svg version="1.1" id="Layer_1" xmlns="http://www.w3.org/2000/svg" x="0px" y="0px" width="256px" height="256px" viewBox="0 0 256 256">
  <path fill="#666666" d="M181.732,53.151c-17.255,0-31.321,13.316-31.321,32.634v25.132 c0,18.005,24.006,21.006,24.382,21.381c-10.691,2.813-30.947,8.252-40.888,15.566c-8.252,6.003-11.44,18.005-13.128,22.882 c-0.75,2.063-1.688,5.064-1.688,7.127c0,0,0,9.94,0,19.881s12.941,16.505,18.005,16.505h89.65c4.877,0,18.006-5.627,18.006-16.505 s0-19.881,0-19.881c0-2.251-0.938-5.627-1.688-7.689c-4.313-10.878-4.688-16.316-13.315-22.319 c-9.941-6.939-30.009-12.19-40.512-15.004c0.374-0.563,24.193-4.127,24.193-22.131V85.785 C213.053,66.467,198.986,53.151,181.732,53.151L181.732,53.151z"/>
  <path fill="rgb(144, 153, 161)" d="M84.204,34.396c-20.068,0-36.385,15.38-36.385,38.074v29.258c0,20.818,27.945,24.382,28.32,24.944 c-12.378,3.189-36.01,9.565-47.638,18.006c-9.753,7.127-13.504,21.006-15.379,26.632c-0.75,2.251-1.876,6.002-1.876,8.253  c0,0,0,11.44,0,23.257c0,11.815,15.004,19.13,20.819,19.13h104.279c5.814,0,20.818-6.564,20.818-19.13c0-12.566,0-23.257,0-23.257 c0-2.438-1.125-6.564-2.063-8.815c-5.063-12.566-5.438-18.942-15.566-26.069c-11.628-8.065-34.885-14.067-47.076-17.443 c0.375-0.563,28.133-4.876,28.133-25.695V72.469C120.59,49.775,104.272,34.396,84.204,34.396L84.204,34.396z"/>
</svg>
