<?xml version="1.0"?>
<svg viewBox="0 0 78 48" fill="none" xmlns="http://www.w3.org/2000/svg">
  <path d="M45.2819 30.6667C42.1118 32.8597 39.9324 36.2126 39.2153 40H32.3086V30.6667C32.3086 28.1913 33.2919 25.8174 35.0423 24.067C36.7926 22.3167 39.1666 21.3334 41.6419 21.3334C42.1918 21.3347 42.7405 21.3837 43.2819 21.48C43.0721 22.3261 42.9691 23.1951 42.9753 24.0667C42.9808 26.4634 43.7934 28.7883 45.2819 30.6667ZM41.6419 17.4C42.8286 17.4 43.9887 17.0481 44.9753 16.3888C45.962 15.7296 46.7311 14.7925 47.1852 13.6961C47.6393 12.5998 47.7582 11.3934 47.5266 10.2295C47.2951 9.0656 46.7237 7.9965 45.8846 7.15739C45.0455 6.31827 43.9764 5.74683 42.8125 5.51532C41.6486 5.2838 40.4422 5.40262 39.3458 5.85675C38.2495 6.31088 37.3124 7.07991 36.6531 8.06661C35.9938 9.0533 35.6419 10.2133 35.6419 11.4C35.6402 12.1885 35.7942 12.9695 36.0951 13.6982C36.396 14.427 36.8379 15.0891 37.3954 15.6466C37.9529 16.2041 38.615 16.646 39.3437 16.9469C40.0725 17.2478 40.8535 17.4018 41.6419 17.4ZM65.6419 17.4C66.8286 17.4 67.9887 17.0481 68.9753 16.3888C69.962 15.7296 70.7311 14.7925 71.1852 13.6961C71.6393 12.5998 71.7581 11.3934 71.5266 10.2295C71.2951 9.0656 70.7237 7.9965 69.8846 7.15739C69.0454 6.31827 67.9764 5.74683 66.8125 5.51532C65.6486 5.2838 64.4422 5.40262 63.3458 5.85675C62.2495 6.31088 61.3124 7.07991 60.6531 8.06661C59.9938 9.0533 59.6419 10.2133 59.6419 11.4C59.6402 12.1885 59.7942 12.9695 60.0951 13.6982C60.396 14.427 60.8379 15.0891 61.3954 15.6466C61.9529 16.2041 62.615 16.646 63.3437 16.9469C64.0725 17.2478 64.8535 17.4018 65.6419 17.4ZM72.3086 24.1334C71.4339 23.2587 70.3941 22.5667 69.2497 22.0974C68.1052 21.6282 66.8788 21.3911 65.6419 21.4C65.092 21.4013 64.5433 21.4504 64.0019 21.5467C64.2063 22.3711 64.3093 23.2173 64.3086 24.0667C64.3181 26.4862 63.5047 28.8371 62.0019 30.7334C65.1721 32.9264 67.3515 36.2792 68.0686 40.0667H74.9753V30.7334C74.9932 28.2675 74.0345 25.8947 72.3086 24.1334ZM53.6419 29.4C54.6968 29.4 55.7279 29.0872 56.605 28.5012C57.482 27.9152 58.1656 27.0822 58.5693 26.1077C58.9729 25.1331 59.0786 24.0608 58.8728 23.0262C58.667 21.9916 58.159 21.0413 57.4132 20.2955C56.6673 19.5496 55.717 19.0416 54.6824 18.8358C53.6478 18.6301 52.5755 18.7357 51.6009 19.1393C50.6264 19.543 49.7935 20.2266 49.2074 21.1037C48.6214 21.9807 48.3086 23.0119 48.3086 24.0667C48.3086 25.4812 48.8705 26.8377 49.8707 27.8379C50.8709 28.8381 52.2274 29.4 53.6419 29.4ZM53.6419 33.4C51.1666 33.4 48.7926 34.3834 47.0423 36.1337C45.2919 37.884 44.3086 40.258 44.3086 42.7334H62.9753C62.9753 40.258 61.9919 37.884 60.2416 36.1337C58.4912 34.3834 56.1173 33.4 53.6419 33.4Z" fill="currentColor"/>
  <path d="M11.6169 34.9735V25.8254H2.46875V22.3068H11.6169V13.1587H15.1354V22.3068H24.2836V25.8254H15.1354V34.9735H11.6169Z" fill="currentColor"/>
</svg>
