<?xml version="1.0"?>
<svg version="1.1" id="Layer_5" xmlns="http://www.w3.org/2000/svg" x="0px" y="0px" width="256px" height="256px" viewBox="0 0 256 256">
  <g transform="translate(0,-952.36218)">
    <path d="M58.6,970.4c-15.4,0-28.1,12.7-28.1,28.1c0,15.4,12.7,28.1,28.1,28.1s28.1-12.7,28.1-28.1	C86.7,983,74,970.4,58.6,970.4z M202.1,970.4c-15.4,0-28.1,12.7-28.1,28.1c0,15.4,12.7,28.1,28.1,28.1s28.1-12.7,28.1-28.1 C230.2,983,217.6,970.4,202.1,970.4z M130.4,986c-15.4,0-28.1,12.7-28.1,28.1c0,15.4,12.7,28.1,28.1,28.1s28.1-12.7,28.1-28.1 C158.5,998.6,145.8,986,130.4,986z M242.8,1110.6c0-0.1,0-17.9,0-18l-0.1-16.1c0-22.4-18.2-40.6-40.6-40.6 c-17.8,0-30,7.7-36.3,18.8c-2,3.5-3.4,7.3-4.5,11.1c-7.5-8.7-18.6-14.3-31-14.3s-23.5,5.6-31,14.3c-1.1-3.9-2.5-7.6-4.5-11.1 c-6.3-11.1-18.4-18.8-36.3-18.8c-22.4,0-40.6,18.2-40.6,40.6v46.8c0,3.4,2.8,6.2,6.2,6.2h12.5v31.2c0,3.4,2.8,6.2,6.2,6.2h31.2 c3.4,0,6.2-2.8,6.2-6.2v-31.2h9.4v9.4c0,3.4,2.8,6.2,6.2,6.2h12.5v31.2c0,3.4,2.8,6.2,6.2,6.2H146c3.4,0,6.2-2.8,6.2-6.2v-31.2 h12.5c3.4,0,6.2-2.8,6.2-6.2v-9.4h9.4v31.2c0,3.4,2.8,6.2,6.2,6.2h31.2c3.4,0,6.2-2.8,6.2-6.2v-31.2h12.5c3.4,0,6.3-2.7,6.3-6.2	V1110.6z"/>
  </g>
</svg>
