<?xml version="1.0"?>
<svg xmlns="http://www.w3.org/2000/svg" viewBox="0 0 396 288" fill="none">
  <g clip-path="">
    <path stroke="currentColor" d="M65.3214 26.2772C65.3214 25.4177 65.8967 24.6645 66.7259 24.4384C71.9794 23.0056 77.5206 23.0056 82.7741 24.4384C83.6033 24.6645 84.1786 25.4177 84.1786 26.2772V40.9072C84.1786 41.9644 85.0356 42.8214 86.0928 42.8214H100.723C101.582 42.8214 102.335 43.3967 102.562 44.2259C103.994 49.4794 103.994 55.0206 102.562 60.2741C102.335 61.1033 101.582 61.6786 100.723 61.6786H86.0928C85.0356 61.6786 84.1786 62.5356 84.1786 63.5928V78.2228C84.1786 79.0823 83.6033 79.8355 82.7741 80.0616C77.5206 81.4944 71.9794 81.4944 66.7259 80.0616C65.8967 79.8355 65.3214 79.0823 65.3214 78.2228V63.5928C65.3214 62.5356 64.4644 61.6786 63.4072 61.6786H48.7772C47.9177 61.6786 47.1645 61.1033 46.9384 60.2741C45.5056 55.0206 45.5056 49.4794 46.9384 44.2259C47.1645 43.3967 47.9177 42.8214 48.7772 42.8214H63.4072C64.4644 42.8214 65.3214 41.9644 65.3214 40.9072V26.2772Z" stroke-width="0.5" stroke-miterlimit="10"/>
    <path stroke="currentColor" d="M65.3214 26.2772C65.3214 25.4177 65.8967 24.6645 66.7259 24.4384C71.9794 23.0056 77.5206 23.0056 82.7741 24.4384C83.6033 24.6645 84.1786 25.4177 84.1786 26.2772V40.9072C84.1786 41.9644 85.0356 42.8214 86.0928 42.8214H100.723C101.582 42.8214 102.335 43.3967 102.562 44.2259C103.994 49.4794 103.994 55.0206 102.562 60.2741C102.335 61.1033 101.582 61.6786 100.723 61.6786H86.0928C85.0356 61.6786 84.1786 62.5356 84.1786 63.5928V78.2228C84.1786 79.0823 83.6033 79.8355 82.7741 80.0616C77.5206 81.4944 71.9794 81.4944 66.7259 80.0616C65.8967 79.8355 65.3214 79.0823 65.3214 78.2228V63.5928C65.3214 62.5356 64.4644 61.6786 63.4072 61.6786H48.7772C47.9177 61.6786 47.1645 61.1033 46.9384 60.2741C45.5056 55.0206 45.5056 49.4794 46.9384 44.2259C47.1645 43.3967 47.9177 42.8214 48.7772 42.8214H63.4072C64.4644 42.8214 65.3214 41.9644 65.3214 40.9072V26.2772Z" stroke-width="0.5" stroke-miterlimit="10"/>
    <path stroke="currentColor" d="M293.655 109.623L240.475 119C231.773 120.534 225.962 128.833 227.496 137.535L236.873 190.715C238.408 199.417 246.706 205.228 255.409 203.693L308.588 194.316C317.291 192.782 323.101 184.483 321.567 175.781L312.19 122.601C310.655 113.899 302.357 108.088 293.655 109.623Z" stroke-width="0.5"/>
    <path stroke="currentColor" d="M155.62 119L102.441 109.623C93.7383 108.089 85.4398 113.9 83.9053 122.602L74.5283 175.782C72.9939 184.484 78.8046 192.782 87.5069 194.317L140.687 203.694C149.389 205.228 157.687 199.418 159.222 190.715L168.599 137.536C170.133 128.833 164.323 120.535 155.62 119Z" stroke-width="0.5"/>
    <path stroke="currentColor" d="M197.75 65.25C204.93 65.25 210.75 59.4297 210.75 52.25C210.75 45.0703 204.93 39.25 197.75 39.25C190.57 39.25 184.75 45.0703 184.75 52.25C184.75 59.4297 190.57 65.25 197.75 65.25Z" stroke-width="0.5"/>
    <path stroke="currentColor" d="M197.75 27.25C198.855 27.25 199.75 26.3546 199.75 25.25C199.75 24.1454 198.855 23.25 197.75 23.25C196.645 23.25 195.75 24.1454 195.75 25.25C195.75 26.3546 196.645 27.25 197.75 27.25Z" stroke-width="0.5"/>
    <path stroke="currentColor" d="M320.75 44.25C327.377 44.25 332.75 38.8774 332.75 32.25C332.75 25.6226 327.377 20.25 320.75 20.25C314.123 20.25 308.75 25.6226 308.75 32.25C308.75 38.8774 314.123 44.25 320.75 44.25Z" stroke-width="0.5"/>
    <path stroke="currentColor" d="M320.75 85.25C327.377 85.25 332.75 79.8774 332.75 73.25C332.75 66.6226 327.377 61.25 320.75 61.25C314.123 61.25 308.75 66.6226 308.75 73.25C308.75 79.8774 314.123 85.25 320.75 85.25Z" stroke-width="0.5"/>
    <path stroke="currentColor" d="M343.75 64.25C350.377 64.25 355.75 58.8774 355.75 52.25C355.75 45.6226 350.377 40.25 343.75 40.25C337.123 40.25 331.75 45.6226 331.75 52.25C331.75 58.8774 337.123 64.25 343.75 64.25Z" stroke-width="0.5"/>
    <path stroke="currentColor" d="M297.75 64.25C304.377 64.25 309.75 58.8774 309.75 52.25C309.75 45.6226 304.377 40.25 297.75 40.25C291.123 40.25 285.75 45.6226 285.75 52.25C285.75 58.8774 291.123 64.25 297.75 64.25Z" stroke-width="0.5"/>
    <path stroke="currentColor" d="M134.523 30.25H118.977C116.091 30.25 113.75 28.0103 113.75 25.25C113.75 22.4897 116.091 20.25 118.977 20.25H134.523C137.409 20.25 139.75 22.4897 139.75 25.25C139.75 28.0103 137.409 30.25 134.523 30.25Z" stroke-width="0.5" stroke-miterlimit="10"/>
    <path stroke="currentColor" d="M276.523 30.25H260.977C258.091 30.25 255.75 28.0103 255.75 25.25C255.75 22.4897 258.091 20.25 260.977 20.25H276.523C279.409 20.25 281.75 22.4897 281.75 25.25C281.75 28.0103 279.409 30.25 276.523 30.25Z" stroke-width="0.5" stroke-miterlimit="10"/>
    <path stroke="currentColor" d="M207.75 149.25H187.75C183.884 149.25 180.75 152.384 180.75 156.25C180.75 160.116 183.884 163.25 187.75 163.25H207.75C211.616 163.25 214.75 160.116 214.75 156.25C214.75 152.384 211.616 149.25 207.75 149.25Z" stroke-width="0.5"/>
    <path stroke="currentColor" d="M139.75 95.25C148.034 95.25 154.75 88.5343 154.75 80.25C154.75 71.9657 148.034 65.25 139.75 65.25C131.466 65.25 124.75 71.9657 124.75 80.25C124.75 88.5343 131.466 95.25 139.75 95.25Z" stroke-width="0.5"/>
    <path stroke="currentColor" d="M139.75 101.25C151.348 101.25 160.75 91.848 160.75 80.25C160.75 68.652 151.348 59.25 139.75 59.25C128.152 59.25 118.75 68.652 118.75 80.25C118.75 91.848 128.152 101.25 139.75 101.25Z" stroke-width="0.5"/>
    <path stroke="currentColor" opacity="0.3" d="M139.75 105.25C153.557 105.25 164.75 94.0571 164.75 80.25C164.75 66.4429 153.557 55.25 139.75 55.25C125.943 55.25 114.75 66.4429 114.75 80.25C114.75 94.0571 125.943 105.25 139.75 105.25Z" stroke-width="0.5"/>
    <path stroke="currentColor" d="M255.75 95.25C264.034 95.25 270.75 88.5343 270.75 80.25C270.75 71.9657 264.034 65.25 255.75 65.25C247.466 65.25 240.75 71.9657 240.75 80.25C240.75 88.5343 247.466 95.25 255.75 95.25Z" stroke-width="0.5"/>
    <path stroke="currentColor" d="M255.75 101.25C267.348 101.25 276.75 91.848 276.75 80.25C276.75 68.652 267.348 59.25 255.75 59.25C244.152 59.25 234.75 68.652 234.75 80.25C234.75 91.848 244.152 101.25 255.75 101.25Z" stroke-width="0.5"/>
    <path stroke="currentColor" opacity="0.3" d="M255.75 105.25C269.557 105.25 280.75 94.0571 280.75 80.25C280.75 66.4429 269.557 55.25 255.75 55.25C241.943 55.25 230.75 66.4429 230.75 80.25C230.75 94.0571 241.943 105.25 255.75 105.25Z" stroke-width="0.5"/>
    <g opacity="0.3">
      <path stroke="currentColor" opacity="0.3" d="M50.7575 287.25C46.9835 284.835 45.474 280.205 44.5179 275.878C41.7504 263.399 41.4987 250.517 41.9013 237.736C42.5555 217.155 44.8701 196.625 47.9396 176.296C50.1033 162.056 52.6193 147.866 55.2862 133.676C57.45 122.152 61.4755 109.673 70.8349 101.924C78.2318 95.8354 87.7925 93.2691 97.0009 92.4137C103.899 91.7512 110.819 91.2849 117.75 90.9622" stroke-width="0.5" stroke-miterlimit="10"/>
      <path stroke="currentColor" opacity="0.3" d="M345.629 287.2C349.352 284.784 350.862 280.155 351.868 275.828C354.636 263.348 354.887 250.467 354.485 237.686C353.831 217.105 351.566 196.625 348.447 176.246C346.283 162.005 343.717 147.815 341.1 133.625C338.936 122.152 334.911 109.623 325.551 101.874C318.205 95.7851 308.644 93.2188 299.385 92.3634C292.181 91.6937 284.968 91.2286 277.75 90.9087" stroke-width="0.5" stroke-miterlimit="10"/>
      <path stroke="currentColor" opacity="0.3" d="M162.75 89.25H232.75" stroke-width="0.5"/>
    </g>
    <path stroke="currentColor" d="M52.75 18.25C55.25 2.75008 95.25 -4.24998 106.75 3.75006" stroke-width="0.5"/>
    <path stroke="currentColor" d="M342.75 18.0853C340.25 2.58541 300.25 -4.41465 288.75 3.58539" stroke-width="0.5"/>
    <path stroke="currentColor" d="M394.686 205.79C392.978 158.058 379.966 108.215 365.698 62.7441C355.902 31.4922 352.687 15.816 317.369 8.12858C298.127 3.9583 278.032 2.25 258.388 2.25C238.192 2.25 217.946 2.25 197.75 2.35049C177.554 2.30024 157.308 2.25 137.112 2.25C117.468 2.25 97.3728 3.90806 78.1314 8.12858C42.7632 15.816 39.5982 31.4922 29.8016 62.7441C15.5338 108.215 2.52193 158.058 0.81381 205.79C0.612854 211.115 0.964526 216.542 0.81381 221.868L1.86884 234.127C4.5315 257.441 14.4285 280.302 39.347 286.03C51.2034 287.788 64.2655 289.396 71.7008 277.538C76.2223 270.354 77.3276 261.661 80.1409 253.773C84.6624 241.011 92.2485 225.134 107.521 223.878C115.107 223.275 123.497 223.476 131.083 223.325C153.289 222.923 175.544 223.677 197.75 223.325C219.956 223.626 242.211 222.923 264.417 223.325C272.003 223.476 280.443 223.224 287.979 223.878C303.252 225.134 310.838 241.011 315.359 253.773C318.122 261.661 319.278 270.354 323.799 277.538C331.235 289.346 344.297 287.788 356.153 286.03C381.071 280.302 390.969 257.441 393.631 234.127L394.686 221.868C394.535 216.542 394.887 211.115 394.686 205.79Z" stroke-width="1.5" stroke-miterlimit="10"/>
  </g>
  <defs>
    <clipPath id="">
      <rect fill="currentColor" width="396" height="288"/>
    </clipPath>
  </defs>
</svg>
