<?xml version="1.0"?>
<svg xmlns="http://www.w3.org/2000/svg" viewBox="0 0 40 41" fill="none">
  <path fill="currentColor" d="M19.9999 29.3888V34.9443H2.22217V29.3888C2.22217 27.0313 3.15867 24.7704 4.82566 23.1034C6.49265 21.4364 8.75358 20.4999 11.1111 20.4999C13.4685 20.4999 15.7295 21.4364 17.3965 23.1034C19.0634 24.7704 19.9999 27.0313 19.9999 29.3888ZM11.1111 17.1666C12.1 17.1666 13.0667 16.8733 13.8889 16.3239C14.7112 15.7745 15.352 14.9936 15.7305 14.08C16.1089 13.1663 16.2079 12.161 16.015 11.1911C15.8221 10.2212 15.3459 9.33029 14.6466 8.63103C13.9473 7.93176 13.0564 7.45556 12.0865 7.26263C11.1166 7.06971 10.1113 7.16872 9.19764 7.54716C8.28401 7.9256 7.50312 8.56646 6.95371 9.38871C6.4043 10.211 6.11106 11.1777 6.11106 12.1666C6.10959 12.8236 6.23792 13.4744 6.48868 14.0817C6.73943 14.689 7.10767 15.2408 7.57226 15.7054C8.03684 16.1699 8.58862 16.5382 9.19591 16.7889C9.8032 17.0397 10.454 17.168 11.1111 17.1666ZM35.1777 20.8777C34.2936 19.9926 33.2327 19.3041 32.0642 18.8572C30.8957 18.4103 29.6461 18.2151 28.397 18.2843C27.1479 18.3535 25.9275 18.6856 24.8156 19.2589C23.7037 19.8321 22.7253 20.6337 21.9444 21.611C23.5779 23.8747 24.453 26.5973 24.4444 29.3888V32.7221H37.7777V27.1666C37.7786 25.9989 37.5495 24.8425 37.1034 23.7635C36.6573 22.6844 36.0029 21.7038 35.1777 20.8777ZM28.8888 14.9443C29.8777 14.9443 30.8444 14.6511 31.6667 14.1017C32.4889 13.5523 33.1298 12.7714 33.5082 11.8578C33.8867 10.9441 33.9857 9.93879 33.7928 8.96889C33.5998 7.99898 33.1236 7.10807 32.4244 6.4088C31.7251 5.70954 30.8342 5.23334 29.8643 5.04041C28.8944 4.84749 27.889 4.9465 26.9754 5.32494C26.0618 5.70338 25.2809 6.34424 24.7315 7.16649C24.1821 7.98873 23.8888 8.95543 23.8888 9.94434C23.8874 10.6014 24.0157 11.2522 24.2665 11.8595C24.5172 12.4668 24.8855 13.0186 25.35 13.4831C25.8146 13.9477 26.3664 14.316 26.9737 14.5667C27.581 14.8175 28.2318 14.9458 28.8888 14.9443Z"/>
</svg>
