<?xml version="1.0"?>
<svg width="36" height="36" viewBox="0 0 36 36" fill="none" xmlns="http://www.w3.org/2000/svg">
  <path d="M31.9513 28.4678L31.6814 28.3401C31.4615 28.2254 31.2594 28.0795 31.0814 27.9068L26.6464 23.4718L27.1797 22.9385C27.3887 22.7296 27.5545 22.4816 27.6676 22.2086C27.7807 21.9356 27.8389 21.6431 27.8389 21.3476C27.8389 21.0521 27.7807 20.7595 27.6676 20.4865C27.5545 20.2136 27.3887 19.9656 27.1797 19.7567C27.1101 19.687 27.0274 19.6317 26.9364 19.594C26.8454 19.5563 26.7479 19.5369 26.6494 19.5369C26.5509 19.5369 26.4533 19.5563 26.3624 19.594C26.2714 19.6317 26.1887 19.687 26.1191 19.7567L25.1055 20.77L22.6057 18.1838L32.1273 9.16542L32.234 9.06543C32.3638 8.94364 32.4441 8.77816 32.4593 8.60079L32.9926 3.83112C32.9966 3.80307 32.9986 3.77478 32.9986 3.74646C32.9985 3.54799 32.921 3.35739 32.7826 3.21516C32.7023 3.13644 32.6054 3.07672 32.499 3.04038C32.3926 3.00404 32.2793 2.99201 32.1677 3.00518L27.398 3.53847C27.2201 3.55335 27.0539 3.63334 26.9314 3.76312L17.9986 13.1935L9.06592 3.76312C8.94377 3.63368 8.77827 3.55371 8.60095 3.53847L3.83094 3.00518C3.71926 2.99201 3.60605 3.00404 3.49963 3.04038C3.39321 3.07672 3.29629 3.13644 3.21598 3.21516C3.07757 3.35739 3.00009 3.54799 3 3.74646C3.00002 3.77478 3.00202 3.80307 3.006 3.83112L3.53929 8.60079C3.55452 8.77816 3.63477 8.94364 3.76461 9.06543L3.87128 9.16542L13.393 18.1838L10.8931 20.77L9.87953 19.7567C9.80992 19.687 9.72725 19.6317 9.63625 19.594C9.54526 19.5563 9.44773 19.5369 9.34923 19.5369C9.25073 19.5369 9.15321 19.5563 9.06221 19.594C8.97122 19.6317 8.88855 19.687 8.81894 19.7567C8.61002 19.9656 8.44429 20.2136 8.33123 20.4866C8.21816 20.7596 8.15996 21.0521 8.15996 21.3476C8.15996 21.643 8.21816 21.9356 8.33123 22.2086C8.44429 22.4815 8.61002 22.7296 8.81894 22.9385L9.35223 23.4718L4.9172 27.9068C4.7392 28.0795 4.53711 28.2254 4.31724 28.3401L4.04726 28.4678C3.77896 28.599 3.54621 28.7929 3.36868 29.0331C3.19116 29.2733 3.07407 29.5527 3.02733 29.8477C2.97954 30.1411 3.00219 30.4417 3.0934 30.7247C3.18462 31.0077 3.34179 31.2649 3.55196 31.4752L4.52723 32.4498C4.8798 32.8009 5.35723 32.9979 5.85481 32.9975C5.95521 32.9973 6.05547 32.9898 6.15479 32.9751C6.44819 32.9294 6.7262 32.8135 6.96513 32.6372C7.20407 32.4609 7.39684 32.2294 7.52702 31.9625L7.67701 31.6625C7.7898 31.4475 7.93392 31.2505 8.10465 31.0779L12.532 26.6505L13.062 27.1805C13.2709 27.3894 13.5189 27.5552 13.7919 27.6682C14.0649 27.7813 14.3574 27.8395 14.6529 27.8395C14.9483 27.8395 15.2409 27.7813 15.5139 27.6682C15.7868 27.5552 16.0348 27.3894 16.2438 27.1805C16.3844 27.0398 16.4634 26.849 16.4634 26.6501C16.4634 26.4511 16.3844 26.2603 16.2438 26.1196L15.2302 25.106L17.9933 22.4395L18.0016 22.4315L18.01 22.4395L20.7728 25.106L19.7592 26.1196C19.6186 26.2603 19.5396 26.4511 19.5396 26.6501C19.5396 26.849 19.6186 27.0398 19.7592 27.1805C19.9681 27.3894 20.2161 27.5552 20.4891 27.6682C20.7621 27.7813 21.0546 27.8395 21.3501 27.8395C21.6455 27.8395 21.9381 27.7813 22.2111 27.6682C22.484 27.5552 22.732 27.3894 22.941 27.1805L23.4709 26.6505L27.8983 31.0779C28.0692 31.2503 28.2134 31.4474 28.3259 31.6625L28.4759 31.9625C28.6061 32.2294 28.7989 32.4609 29.0378 32.6372C29.2767 32.8135 29.5548 32.9294 29.8482 32.9751C29.9475 32.9898 30.0477 32.9973 30.1481 32.9975C30.6457 32.9979 31.1231 32.8009 31.4757 32.4498L32.451 31.4752C32.6611 31.2649 32.8183 31.0077 32.9095 30.7247C33.0008 30.4417 33.0234 30.1411 32.9756 29.8477C32.9284 29.5522 32.8107 29.2726 32.6324 29.0323C32.4541 28.7921 32.2205 28.5985 31.9513 28.4678Z" fill="currentColor"/>
</svg>
