<?xml version="1.0"?>
<svg xmlns="http://www.w3.org/2000/svg" viewBox="0 0 36 32" fill="none">
  <path fill="currentColor" fill-rule="evenodd" clip-rule="evenodd" d="M28.5 32C32.6421 32 36 27.5228 36 22V2C36 0.895431 35.3284 0 34.5 0H1.5C0.671573 0 0 0.895431 0 2V30C0 31.1046 0.671573 32 1.5 32H28.5ZM28.9796 20.714H22.9136L25.5236 18.554C26.5676 17.69 27.3416 16.91 27.8456 16.214C28.3496 15.506 28.6016 14.72 28.6016 13.856C28.6016 12.68 28.1636 11.774 27.2876 11.138C26.4116 10.502 25.2476 10.184 23.7956 10.184C22.9796 10.184 22.2116 10.298 21.4916 10.526C20.7836 10.754 20.1536 11.06 19.6016 11.444L20.5016 13.388C20.8736 13.136 21.3056 12.926 21.7976 12.758C22.3016 12.59 22.8176 12.506 23.3456 12.506C24.0536 12.506 24.6296 12.668 25.0736 12.992C25.5296 13.304 25.7576 13.772 25.7576 14.396C25.7576 14.78 25.6676 15.134 25.4876 15.458C25.3076 15.782 25.0676 16.088 24.7676 16.376C24.4796 16.664 24.0596 17.042 23.5076 17.51L23.2016 17.78L19.5656 20.804V23H28.9796V20.714ZM14.7813 23H17.7153L14.7453 18.23C15.5133 17.894 16.1073 17.402 16.5273 16.754C16.9593 16.106 17.1753 15.296 17.1753 14.324C17.1753 13.088 16.7673 12.128 15.9513 11.444C15.1353 10.748 13.8633 10.4 12.1353 10.4H7.41931V23H10.0653V18.752H11.9373H12.2433L14.7813 23ZM10.0653 16.484V12.65H11.9733C12.8013 12.65 13.4013 12.806 13.7733 13.118C14.1573 13.418 14.3493 13.874 14.3493 14.486C14.3493 15.11 14.1513 15.602 13.7553 15.962C13.3713 16.31 12.8313 16.484 12.1353 16.484H10.0653Z"/>
</svg>
