<?xml version="1.0"?>
<svg width="36" height="36" viewBox="0 0 36 36" fill="none" xmlns="http://www.w3.org/2000/svg">
  <path fill-rule="evenodd" clip-rule="evenodd" d="M24.393 5H12.4286L5 12.4286V31H31V22.0002C27.6437 21.9912 24.8893 19.4222 24.5864 16.1429H23.5714V8.71429H24.9362L24.393 5ZM16.1429 16.1429H12.4286V8.71429H16.1429V16.1429ZM21.7143 16.1429H18V8.71429H21.7143V16.1429Z" fill="currentColor"/>
  <path d="M28.7979 10L27.6279 2H34.3679L33.2379 10H28.7979Z" fill="#FFC82C"/>
  <path d="M31.0204 18.74C32.6054 18.74 33.8904 17.4551 33.8904 15.87C33.8904 14.2849 32.6054 13 31.0204 13C29.4353 13 28.1504 14.2849 28.1504 15.87C28.1504 17.4551 29.4353 18.74 31.0204 18.74Z" fill="#FFC82C"/>
</svg>
