<?xml version="1.0"?>
<svg xmlns="http://www.w3.org/2000/svg" viewBox="0 0 36 36" fill="none">
  <path fill="currentColor" d="M18 1C27.3888 1 35 8.61116 35 18C35 27.3888 27.3888 35 18 35C8.61116 35 1 27.3888 1 18C1 8.61116 8.61116 1 18 1ZM22.333 11.3486C23.7684 12.2828 24.8635 13.6555 25.4551 15.2627C26.0466 16.8698 26.1033 18.6249 25.6162 20.2666C25.129 21.9084 24.1244 23.3497 22.752 24.374C21.3795 25.3983 19.7125 25.9512 18 25.9512C16.2875 25.9512 14.6205 25.3983 13.248 24.374C11.8756 23.3497 10.871 21.9084 10.3838 20.2666C9.89669 18.6249 9.95337 16.8698 10.5449 15.2627C11.1365 13.6555 12.2316 12.2828 13.667 11.3486V8.07715C11.8767 8.8585 10.3309 10.1093 9.19336 11.6973C8.05588 13.2852 7.36883 15.1512 7.20508 17.0977C7.04138 19.044 7.4066 20.9983 8.2627 22.7539C9.11891 24.5096 10.4338 26.0018 12.0684 27.0713C13.7028 28.1407 15.5963 28.7476 17.5479 28.8291C19.4995 28.9106 21.4373 28.4628 23.1553 27.5332C24.8732 26.6036 26.3081 25.2271 27.3076 23.5488C28.3071 21.8706 28.834 19.9533 28.833 18C28.8319 15.893 28.217 13.8319 27.0625 12.0693C25.908 10.3069 24.264 8.91992 22.333 8.07715V11.3486ZM16.5557 15.833H19.4443V5.72266H16.5557V15.833Z"/>
</svg>
