<?xml version="1.0"?>
<svg xmlns="http://www.w3.org/2000/svg" viewBox="0 0 36 36" fill="none">
  <g opacity="0.7">
    <path fill="currentColor" opacity="" d="M3 33H10.54C10.5374 31.0011 9.74211 29.0848 8.32866 27.6714C6.91521 26.2579 4.99892 25.4627 3 25.46V33Z"/>
    <path fill="currentColor" opacity="" d="M3 22.08V18.08C6.95622 18.0827 10.7496 19.6554 13.5471 22.4529C16.3446 25.2504 17.9174 29.0438 17.92 33H13.92C13.9174 30.1047 12.766 27.3287 10.7187 25.2813C8.67136 23.234 5.89535 22.0827 3 22.08Z"/>
    <g opacity="">
      <path fill="currentColor" d="M3 14.54V10.54C8.95514 10.5453 14.6648 12.9133 18.8758 17.1242C23.0867 21.3351 25.4547 27.0448 25.46 33H21.46C21.4547 28.1057 19.5081 23.4134 16.0473 19.9526C12.5866 16.4919 7.89427 14.5453 3 14.54Z"/>
    </g>
    <g opacity="">
      <path fill="currentColor" d="M23.983 11.5591C18.3799 6.07549 10.8485 3 3 3V7C6.41437 7 9.7953 7.67251 12.9498 8.97913C16.1042 10.2858 18.9705 12.2009 21.3848 14.6152C22.0221 15.2525 22.6246 15.9213 23.1903 16.6186C23.1637 16.3727 23.15 16.123 23.15 15.87C23.15 14.5949 23.4974 13.4009 24.1027 12.3775L23.983 11.5591ZM26.4297 21.7283C26.6387 22.1629 26.8359 22.6037 27.0209 23.0502C28.3275 26.2047 29 29.5856 29 33H33C33 29.4329 32.3647 25.9312 31.1568 22.6464C30.787 22.708 30.4072 22.74 30.02 22.74C28.704 22.74 27.4744 22.37 26.4297 21.7283Z"/>
    </g>
  </g>
  <path fill="#FFC82C" d="M27.7976 10L26.6276 2H33.3676L32.2376 10H27.7976Z"/>
  <path fill="#FFC82C" d="M30.02 18.74C31.6051 18.74 32.89 17.4551 32.89 15.87C32.89 14.2849 31.6051 13 30.02 13C28.435 13 27.15 14.2849 27.15 15.87C27.15 17.4551 28.435 18.74 30.02 18.74Z"/>
</svg>
