<?xml version="1.0"?>
<svg xmlns="http://www.w3.org/2000/svg" viewBox="0 0 22 18" fill="none">
  <path fill="currentColor" fill-rule="evenodd" clip-rule="evenodd" d="M21.5317 10.0852C21.9792 9.48383 21.9792 8.65975 21.5317 8.05839C16.4487 1.22761 6.112 1.22761 1.02897 8.05839C0.581487 8.65975 0.581488 9.48383 1.02898 10.0852C6.112 16.916 16.4487 16.916 21.5317 10.0852ZM13.5143 9.07149C13.5143 10.3052 12.5142 11.3053 11.2805 11.3053C10.0468 11.3053 9.04672 10.3052 9.04672 9.07149C9.04672 7.83779 10.0468 6.83768 11.2805 6.83768C12.5142 6.83768 13.5143 7.83779 13.5143 9.07149ZM15.7014 9.07149C15.7014 11.5131 13.7221 13.4923 11.2805 13.4923C8.83896 13.4923 6.85968 11.5131 6.85968 9.07149C6.85968 6.62992 8.83896 4.65064 11.2805 4.65064C13.7221 4.65064 15.7014 6.62992 15.7014 9.07149Z"/>
  <path fill="currentColor" d="M1.87436 3.07896C1.55407 2.75867 1.55408 2.23939 1.87436 1.9191C2.19464 1.59882 2.71393 1.59882 3.03421 1.9191L17.3391 16.224C17.6593 16.5442 17.6593 17.0635 17.3391 17.3838C17.0188 17.7041 16.4995 17.7041 16.1792 17.3838L1.87436 3.07896Z"/>
  <path fill="currentColor" d="M3.03421 1.9191C2.71393 1.59882 2.71386 1.07978 3.03415 0.7595C3.35443 0.439216 3.87372 0.439216 4.194 0.7595L18.4989 15.0644C18.8191 15.3846 18.8191 15.9039 18.4989 16.2242C18.1786 16.5445 17.6593 16.5442 17.3391 16.224L3.03421 1.9191Z"/>
</svg>
