<?xml version="1.0"?>
<svg xmlns="http://www.w3.org/2000/svg" viewBox="0 0 36 36" fill="none">
  <path d="M24 9C24 10.1867 23.6481 11.3467 22.9888 12.3334C22.3295 13.3201 21.3925 14.0892 20.2961 14.5433C19.1997 14.9974 17.9933 15.1162 16.8295 14.8847C15.6656 14.6532 14.5965 14.0818 13.7574 13.2426C12.9182 12.4035 12.3468 11.3344 12.1153 10.1705C11.8838 9.00666 12.0026 7.80026 12.4567 6.7039C12.9109 5.60754 13.6799 4.67047 14.6666 4.01118C15.6533 3.35189 16.8133 3 18 3C19.5913 3 21.1174 3.63214 22.2426 4.75736C23.3679 5.88258 24 7.4087 24 9ZM27 19C25.8133 19 24.6533 19.3519 23.6666 20.0112C22.6799 20.6705 21.9109 21.6075 21.4567 22.7039C21.0026 23.8003 20.8838 25.0067 21.1153 26.1705C21.3468 27.3344 21.9182 28.4035 22.7574 29.2426C23.5965 30.0818 24.6656 30.6532 25.8295 30.8847C26.9933 31.1162 28.1997 30.9974 29.2961 30.5433C30.3925 30.0892 31.3295 29.3201 31.9888 28.3334C32.6481 27.3467 33 26.1867 33 25C33 23.4087 32.3679 21.8826 31.2426 20.7574C30.1174 19.6321 28.5913 19 27 19ZM9 19C7.81331 19 6.65328 19.3519 5.66658 20.0112C4.67989 20.6705 3.91085 21.6075 3.45673 22.7039C3.0026 23.8003 2.88378 25.0067 3.11529 26.1705C3.3468 27.3344 3.91825 28.4035 4.75736 29.2426C5.59648 30.0818 6.66558 30.6532 7.82946 30.8847C8.99335 31.1162 10.1997 30.9974 11.2961 30.5433C12.3925 30.0892 13.3295 29.3201 13.9888 28.3334C14.6481 27.3467 15 26.1867 15 25C15 23.4087 14.3679 21.8826 13.2426 20.7574C12.1174 19.6321 10.5913 19 9 19Z" fill="currentColor"/>
</svg>
