<?xml version="1.0"?>
<svg viewBox="0 0 78 48" fill="none" xmlns="http://www.w3.org/2000/svg">
  <path fill-rule="evenodd" clip-rule="evenodd" d="M40.0304 40.3334C40.7475 36.5459 42.9269 33.1931 46.097 31.0001C44.6085 29.1217 43.7959 26.7967 43.7904 24.4001C43.7842 23.5284 43.8872 22.6594 44.097 21.8134C43.5556 21.7171 43.0069 21.668 42.457 21.6667C39.9817 21.6667 37.6077 22.6501 35.8574 24.4004C34.107 26.1507 33.1237 28.5247 33.1237 31.0001V40.3334H40.0304ZM45.7905 16.7222C44.8038 17.3815 43.6437 17.7334 42.457 17.7334C41.6686 17.7352 40.8876 17.5812 40.1589 17.2803C39.4301 16.9794 38.768 16.5375 38.2105 15.98C37.653 15.4225 37.2111 14.7603 36.9102 14.0316C36.6093 13.3028 36.4553 12.5218 36.457 11.7334C36.457 10.5467 36.8089 9.38667 37.4682 8.39998C38.1275 7.41329 39.0646 6.64425 40.1609 6.19012C41.2573 5.736 42.4637 5.61718 43.6276 5.84869C44.7915 6.0802 45.8606 6.65165 46.6997 7.49076C47.5388 8.32988 48.1102 9.39897 48.3417 10.5629C48.5733 11.7267 48.4544 12.9331 48.0003 14.0295C47.5462 15.1259 46.7771 16.0629 45.7905 16.7222ZM69.7905 16.7222C68.8038 17.3815 67.6437 17.7334 66.457 17.7334C65.6686 17.7352 64.8876 17.5812 64.1589 17.2803C63.4301 16.9794 62.768 16.5375 62.2105 15.98C61.653 15.4225 61.2111 14.7603 60.9102 14.0316C60.6093 13.3028 60.4553 12.5218 60.457 11.7334C60.457 10.5467 60.8089 9.38667 61.4682 8.39998C62.1275 7.41329 63.0646 6.64425 64.1609 6.19012C65.2573 5.736 66.4637 5.61718 67.6276 5.84869C68.7915 6.0802 69.8606 6.65165 70.6997 7.49076C71.5388 8.32988 72.1102 9.39897 72.3417 10.5629C72.5732 11.7267 72.4544 12.9331 72.0003 14.0295C71.5462 15.1259 70.7771 16.0629 69.7905 16.7222ZM70.0648 22.4308C71.2092 22.9 72.249 23.5921 73.1237 24.4667C74.8496 26.2281 75.8083 28.6008 75.7904 31.0667V40.4001H68.8837C68.1666 36.6126 65.9872 33.2597 62.817 31.0667C64.3198 29.1704 65.1332 26.8196 65.1237 24.4001C65.1244 23.5507 65.0214 22.7045 64.817 21.8801C65.3584 21.7838 65.9071 21.7347 66.457 21.7334C67.6939 21.7245 68.9203 21.9616 70.0648 22.4308ZM57.4201 28.8346C56.543 29.4206 55.5119 29.7334 54.457 29.7334C53.0425 29.7334 51.686 29.1715 50.6858 28.1713C49.6856 27.1711 49.1237 25.8146 49.1237 24.4001C49.1237 23.3452 49.4365 22.3141 50.0225 21.437C50.6086 20.56 51.4415 19.8764 52.4161 19.4727C53.3906 19.069 54.4629 18.9634 55.4975 19.1692C56.5321 19.375 57.4824 19.883 58.2283 20.6288C58.9741 21.3747 59.4821 22.325 59.6879 23.3596C59.8937 24.3942 59.7881 25.4665 59.3844 26.441C58.9807 27.4156 58.2971 28.2485 57.4201 28.8346ZM47.8574 36.4671C49.6077 34.7167 51.9817 33.7334 54.457 33.7334C56.9324 33.7334 59.3064 34.7167 61.0567 36.4671C62.807 38.2174 63.7904 40.5914 63.7904 43.0667H45.1237C45.1237 40.5914 46.107 38.2174 47.8574 36.4671ZM17.0587 13.6268C16.2777 12.8458 15.0114 12.8458 14.2303 13.6268C13.4493 14.4079 13.4493 15.6742 14.2303 16.4553L20.7181 22.9431H6.13672C5.03215 22.9431 4.13672 23.8385 4.13672 24.9431C4.13672 26.0477 5.03215 26.9431 6.13672 26.9431H20.7188L14.2309 33.4309C13.4499 34.212 13.4499 35.4783 14.2309 36.2594C15.012 37.0404 16.2783 37.0404 17.0593 36.2594L26.9588 26.3599C27.4091 25.9096 27.5998 25.298 27.5309 24.7111C27.4812 24.2782 27.2903 23.8584 26.9582 23.5263L17.0587 13.6268Z" fill="currentColor"/>
</svg>
