<?xml version="1.0"?>
<svg version="1.1" id="base" xmlns="http://www.w3.org/2000/svg" x="0px" y="0px" width="256px" height="256px" viewBox="0 0 256 256">
  <path d="M234.16,207.854c-3.953-2.455-13.301-5.047-14.086-22.99c-3.539,3.146-3.13,19.863,6.746,23.182 c11.031,3.705,17.923,9.91-2.586,16.922c-13.577,4.645-15.887,6.074-26.637,15.021c-10.875,9.055-27.017,5.457-24.197-13.602 c1.469-9.934,2.313-18.141-0.158-26.773c-1.206-4.217-1.807-9.625-0.982-13.418c1.604-7.377,5.596-9.6,9.512-2.516 c2.457,4.441,3.315,9.641,12.111,10.064c13.819,0.66,16.555-13.354,20.973-13.99c2.944-0.428,5.889-8.764,3.646-22.25 c-2.403-14.438-10.897-37.234-21.791-48.795c-9.055-9.609-14.762-18.033-18.351-30.057c-3.017-10.103-4.7-19.936-4.079-29.335 c0.806-12.18-5.95-29.129-16.703-37.103c-6.73-4.993-17.287-7.667-26.841-7.562c-5.358,0.058-10.401,0.841-14.276,2.944 c-15.949,8.658-18.177,21.024-17.938,35.14c0.223,13.26,0.675,28.39,2.181,42.783c-1.782,6.609-11.068,19.138-17.013,26.762 c-7.993,7.896-12.03,23.157-17.203,36.491c-2.759,7.107-7.407,10.318-7.798,19.457c-0.108,2.555-0.021,9.168,2.423,7.277 c9.348-7.232,21.049,11,38.722,38.82c3.389,5.334,15.329,27.793-5.602,30.705c-7,0.979-18.271-4.07-29.192-6.742 c-9.812-2.398-19.775-3.822-25.352-5.391c-3.358-0.943-4.762-2.146-5.053-3.553c-0.773-3.729,4.075-8.955,4.321-13.369 c0.246-4.416-1.609-6.709-3.129-10.311c-1.522-3.609-1.919-6.313-0.701-7.859c0.948-1.205,2.873-1.707,6.005-1.4 c3.97,0.391,8.766-0.422,11.342-1.996c4.339-2.645,6.381-8.068,4.428-14.604c0,6.395-2.097,8.816-7.354,11.74 c-4.954,2.758-12.604,0.527-16.117,3.576c-4.229,3.672,1.509,13.146,1.04,20.104c-0.361,5.346-5.938,11.365-3.451,16.727 c2.502,5.395,14.17,5.979,26.336,8.523c17.293,3.619,27.375,9.912,35.365,10.211c11.656,0.432,13.441-11.531,31.743-11.693 c5.338-0.281,10.559-0.447,15.773-0.514c5.91-0.072,11.813-0.025,17.873,0.119c12.182,0.295,7.99,6.648,15.894,10.713 c6.667,3.426,18.654,2.072,21.522-0.664c3.88-3.701,14.298-12.604,22.28-16.625C227.758,227.004,251.121,218.375,234.16,207.854 z M170.973,212.664c-0.609,7.697-2.744,15.326-3.947,23.057c-4.075-0.154-3.679-3.139-2.37-7.322 c1.153-3.689,3.014-8.316,3.135-12.75c0.11-4.016-0.328-6.525-1.34-7.148c-1.013-0.623-2.599,0.643-4.787,4.168 c-4.677,7.529-14.802,10.84-24.258,12.023c-9.456,1.186-18.246,0.246-22.9-4.967c-1.592-1.783-4.232,0.486-4.546,0.959 c-0.42,0.635,1.541,1.865,3.019,4.578c2.159,3.959,4.212,9.969-0.902,12.711c0.061-13.943-4.352-14.76-8.862-23.277 c8.825-0.912,9.99-10.254,5.833-14.33c-3.424-3.359-22.319-17.387-27.251-22.902c-2.287-2.559-5.39-3.814-6.704-6.689 c-3.021-6.617-5.139-16.063-1.305-22.846c0.693-1.225,1.14-0.676,0.608,1.877c-3.01,14.473,6.413,26.293,8.486,20.23 c1.435-4.188,0.105-11.68,0.87-17.629c1.355-10.533,10.94-30.749,15.15-31.902c-6.494-12.026,7.613-21.441,7.441-31.997 c-0.113-6.864,6.029,8.439,12.202,11.685c6.894,3.623,14.472-6.829,25.228-12.131c3.043-1.501,6.945-3.225,6.685-4.504 c-1.265-6.171-14.129,7.613-25.618,8.078c-5.243,0.211-7.188-1.03-9.215-2.986c-6.123-5.918,0.624-0.979,9.729-2.626 c4.045-0.732,5.405-1.406,9.698-3.141c4.295-1.736,9.201-4.305,14.06-5.624c3.383-0.92,3.103-3.462,1.785-4.225 c-0.758-0.439-1.88-0.396-2.771,1.141c-2.085,3.604-11.887,5.688-14.945,6.623c-3.928,1.202-8.273,2.325-14.046,2.09 c-8.771-0.356-6.726-4.376-12.999-7.973c-1.839-1.054-1.343-3.824,1.103-6.269c1.28-1.282,4.79-2.005,6.53-4.919 c0.245-0.408,2.488-2.754,4.246-3.968c0.607-0.421,1.988-3.235,9.988-1.235l9.5,1c2.088,0.267,8.388,6.752,12.059,7.467 c12.047,2.345,3.195,9.25,4.761,17.61c1.766,9.442,7.984,6.948,13.573,31.949c1.17,1.522,5.797,2.964,10.309,22.17 c4.057,17.281-1.688,29.85,8.07,28.816c2.195-0.23,5.407-0.848,6.805-5.742c3.65-12.801-1.828-28.049-7.362-38.34 c-3.224-6-6.258-10.086-7.86-11.49c6.343,3.749,14.449,15.72,16.317,24.605c2.458,11.676,4.212,16.619,0.494,28.965 c2.146,1.074,7.483,3.34,7.483,5.889c-5.56-4.57-22.586-5.383-23.022,5.549c-2.904,0.059-5.098,0.295-6.969,2.514 C165.313,187.604,171.669,203.916,170.973,212.664z"/>
</svg>
