<?xml version="1.0"?>
<svg xmlns="http://www.w3.org/2000/svg" viewBox="0 0 22 22" fill="none">
  <path fill="currentColor" d="M8.24899 0C12.8031 0 16.498 3.69531 16.498 8.25C16.498 9.88281 16.0361 11.3867 15.2198 12.6543L21.4603 18.8633C22.1799 19.583 22.1799 20.7539 21.4603 21.4629C21.1058 21.8174 20.644 22 20.1606 22C19.7095 22 19.2262 21.8174 18.861 21.4629L12.6528 15.2217C11.3853 16.0381 9.88161 16.5 8.24899 16.5C3.69486 16.5 0 12.8047 0 8.25C0 3.69531 3.69486 0 8.24899 0ZM8.24899 13.75C11.2779 13.75 13.7483 11.2793 13.7483 8.25C13.7483 5.2207 11.2779 2.75 8.24899 2.75C5.22007 2.75 2.74966 5.2207 2.74966 8.25C2.74966 11.2793 5.22007 13.75 8.24899 13.75Z"/>
</svg>
