<?xml version="1.0"?>
<svg xmlns="http://www.w3.org/2000/svg" viewBox="0 0 14 14" fill="none">
  <path fill="currentColor" d="M14 4L12.442 9.00854C12.3675 9.29313 12.2005 9.54492 11.9674 9.72437C11.7343 9.90382 11.4482 10.0008 11.154 10H5.64338C5.35664 10.0003 5.07751 9.90773 4.84773 9.7362C4.61796 9.56467 4.44988 9.32336 4.36864 9.04837L2.46095 3.77047H0V2H2.77964C3.0578 2.00052 3.32878 2.08838 3.55432 2.25119C3.77987 2.41399 3.94859 2.64352 4.03667 2.90737L4.3288 4.02213L14 4ZM5.64338 11.7672C5.42452 11.7672 5.21058 11.8321 5.02861 11.9537C4.84664 12.0753 4.70481 12.2481 4.62106 12.4503C4.53731 12.6525 4.5154 12.875 4.55809 13.0897C4.60079 13.3043 4.70618 13.5015 4.86093 13.6562C5.01568 13.811 5.21285 13.9164 5.4275 13.9591C5.64215 14.0018 5.86464 13.9799 6.06683 13.8961C6.26903 13.8123 6.44185 13.6705 6.56343 13.4885C6.68502 13.3066 6.74992 13.0926 6.74992 12.8738C6.74992 12.5803 6.63334 12.2989 6.42582 12.0913C6.2183 11.8838 5.93685 11.7672 5.64338 11.7672ZM10.9548 11.7672C10.7359 11.7672 10.522 11.8321 10.34 11.9537C10.1581 12.0753 10.0162 12.2481 9.93248 12.4503C9.84872 12.6525 9.82681 12.875 9.86951 13.0897C9.9122 13.3043 10.0176 13.5015 10.1723 13.6562C10.3271 13.811 10.5243 13.9164 10.7389 13.9591C10.9536 14.0018 11.1761 13.9799 11.3782 13.8961C11.5804 13.8123 11.7533 13.6705 11.8748 13.4885C11.9964 13.3066 12.0613 13.0926 12.0613 12.8738C12.0613 12.5803 11.9448 12.2989 11.7372 12.0913C11.5297 11.8838 11.2483 11.7672 10.9548 11.7672Z"/>
</svg>
