<?xml version="1.0"?>
<svg width="46px" height="62px" viewBox="0 0 46 62" fill="none" xmlns="http://www.w3.org/2000/svg">
  <path fill-rule="evenodd" clip-rule="evenodd" d="M24.425 1.87316L27.6636 5.16235C28.5084 6.02034 29.6947 6.45213 30.8934 6.33789L35.4885 5.89995C36.6002 5.794 37.5833 6.61889 37.672 7.73207L38.0386 12.3335C38.1343 13.5337 38.7655 14.6271 39.7571 15.31L43.5587 17.9282C44.4784 18.5616 44.7013 19.8255 44.0537 20.7352L41.3768 24.4958C40.6786 25.4767 40.4594 26.72 40.78 27.8806L42.0092 32.3299C42.3066 33.4063 41.6649 34.5176 40.5841 34.7983L36.1163 35.9584C34.9508 36.261 33.9837 37.0725 33.4833 38.1677L31.565 42.3662C31.101 43.3819 29.895 43.8208 28.8867 43.341L24.7184 41.3579C23.6311 40.8405 22.3687 40.8405 21.2814 41.3579L17.1131 43.341C16.1047 43.8208 14.8988 43.3819 14.4347 42.3662L12.5164 38.1677C12.0161 37.0725 11.0489 36.261 9.88351 35.9584L5.41569 34.7983C4.33483 34.5176 3.69318 33.4063 3.99056 32.3299L5.21979 27.8806C5.54043 26.72 5.32121 25.4767 4.62295 24.4958L1.9461 20.7352C1.29852 19.8255 1.52136 18.5617 2.44105 17.9282L6.24264 15.31C7.23429 14.6271 7.86553 13.5337 7.96117 12.3335L8.32782 7.73206C8.41652 6.61889 9.39959 5.794 10.5112 5.89995L15.1064 6.33789C16.305 6.45213 17.4914 6.02034 18.3362 5.16235L21.5748 1.87316C22.3582 1.07744 23.6415 1.07744 24.425 1.87316ZM20.8622 1.17156C22.0374 -0.0220298 23.9624 -0.0220289 25.1376 1.17156L28.3762 4.46075C29.0098 5.10424 29.8995 5.42808 30.7985 5.34241L35.3937 4.90446C37.0612 4.74554 38.5358 5.98288 38.6688 7.65264L39.0355 12.254C39.1072 13.1542 39.5806 13.9742 40.3243 14.4865L44.1259 17.1047C45.5055 18.0548 45.8397 19.9505 44.8684 21.3151L42.1915 25.0757C41.6678 25.8114 41.5034 26.7438 41.7439 27.6143L42.9731 32.0636C43.4192 33.6782 42.4567 35.3452 40.8354 35.7662L36.3676 36.9263C36.0989 36.9961 35.8442 37.1019 35.6095 37.2389L42.0805 56.2205C42.5334 57.5492 41.0763 58.7164 39.8785 57.9845L34.3458 54.6034C34.0661 54.4324 33.7003 54.5724 33.6061 54.8863L31.865 60.6901C31.4472 62.0828 29.4909 62.126 29.012 60.7531L22.9999 43.5185L16.9878 60.7531C16.5089 62.126 14.5526 62.0828 14.1348 60.6901L12.3936 54.8863C12.2994 54.5724 11.9337 54.4324 11.654 54.6034L6.12127 57.9845C4.9235 58.7164 3.46639 57.5492 3.91933 56.2205L10.3903 37.2389C10.1556 37.1019 9.90091 36.9961 9.63218 36.9263L5.16437 35.7662C3.54308 35.3452 2.5806 33.6782 3.02667 32.0636L4.2559 27.6143C4.49638 26.7439 4.33196 25.8114 3.80827 25.0757L1.13142 21.3151C0.160044 19.9505 0.494311 18.0548 1.87384 17.1047L5.67543 14.4865C6.41917 13.9742 6.8926 13.1542 6.96433 12.254L7.33098 7.65263C7.46402 5.98288 8.93863 4.74554 10.6061 4.90446L15.2013 5.34241C16.1003 5.42808 16.99 5.10424 17.6236 4.46075L20.8622 1.17156ZM34.3929 38.5833C34.4993 38.3504 34.6338 38.1347 34.7919 37.9398L41.1339 56.5432C41.2849 56.9861 40.7992 57.3752 40.4 57.1312L34.8672 53.7501C34.0281 53.2373 32.9309 53.6571 32.6483 54.599L30.9072 60.4027C30.7679 60.867 30.1158 60.8814 29.9562 60.4238L23.5356 42.0181C23.7936 42.0649 24.047 42.1458 24.2888 42.2609L28.457 44.244C29.9696 44.9637 31.7785 44.3053 32.4746 42.7818L34.3929 38.5833ZM22.9999 42.0004L22.9156 41.9711C22.9718 41.9695 23.028 41.9695 23.0841 41.9711L22.9999 42.0004ZM11.2079 37.9398L4.86584 56.5432C4.71486 56.9861 5.20057 57.3752 5.59982 57.1312L11.1326 53.7501C11.9716 53.2373 13.0689 53.6571 13.3515 54.599L15.0926 60.4027C15.2319 60.867 15.884 60.8814 16.0436 60.4238L22.4642 42.0181C22.2061 42.0649 21.9528 42.1458 21.711 42.2609L17.5428 44.244C16.0302 44.9637 14.2213 44.3053 13.5252 42.7818L11.6069 38.5833C11.5005 38.3504 11.366 38.1347 11.2079 37.9398ZM33.9999 23.0004C33.9999 29.0756 29.075 34.0005 22.9999 34.0005C16.9248 34.0005 11.9999 29.0756 11.9999 23.0004C11.9999 16.9253 16.9248 12.0004 22.9999 12.0004C29.075 12.0004 33.9999 16.9253 33.9999 23.0004ZM34.9999 23.0004C34.9999 29.6279 29.6273 35.0005 22.9999 35.0005C16.3725 35.0005 10.9999 29.6279 10.9999 23.0004C10.9999 16.373 16.3725 11.0004 22.9999 11.0004C29.6273 11.0004 34.9999 16.373 34.9999 23.0004Z"/>
</svg>
