<?xml version="1.0"?>
<svg xmlns="http://www.w3.org/2000/svg" viewBox="0 0 36 39" fill="none">
  <path fill="white" d="M22.5 27C22.5 33.2133 17.4633 38.25 11.25 38.25C5.03675 38.25 0 33.2133 0 27C0 20.7868 5.03675 15.75 11.25 15.75C17.4633 15.75 22.5 20.7868 22.5 27Z"/>
  <path fill="white" d="M36 9C36 13.9706 31.9706 18 27 18C22.0294 18 18 13.9706 18 9C18 4.02944 22.0294 0 27 0C31.9706 0 36 4.02944 36 9Z" fill-opacity="0.65"/>
  <path stroke="#8B929A" d="M27 14.7052C30.1509 14.7052 32.7052 12.1509 32.7052 9.00004C32.7052 5.84919 30.1509 3.29492 27 3.29492C23.8492 3.29492 21.2949 5.84919 21.2949 9.00004C21.2949 12.1509 23.8492 14.7052 27 14.7052Z" stroke-miterlimit="10"/>
  <path stroke="#8B929A" d="M5 21L17.5 33.5M17.5 21L5 33.5" stroke-width="1.25"/>
</svg>
