<?xml version="1.0"?>
<svg width="24" height="24" viewBox="0 0 24 24" fill="none" xmlns="http://www.w3.org/2000/svg">
  <g clip-path="">
    <path d="M2.6665 17.3333L6.94128 23.4402C7.18689 23.791 7.58824 24 8.01653 24L17.5022 24C18.1665 24 18.7261 23.5036 18.8053 22.844L19.5315 16.7974C19.6354 15.9328 19.1588 15.1026 18.3597 14.7563L11.9998 12L11.9998 6.00072C11.9998 4.89575 11.1041 4 9.99912 4C8.89406 4 7.99827 4.89589 7.9984 6.00095L7.99983 18.4508L7.03054 16.9432C6.45597 16.0495 5.27594 15.7729 4.36409 16.3182L2.6665 17.3333Z" fill="white"/>
    <path fill-rule="evenodd" clip-rule="evenodd" d="M14.0002 10.4721C15.2276 9.37344 16 7.77693 16 6C16 2.68629 13.3137 0 10 0C6.68629 0 4 2.68629 4 6C4 7.77707 4.77257 9.3737 6.00015 10.4724V6C6.00015 3.79086 7.79101 1.99999 10.0002 1.99999C12.2093 1.99999 14.0002 3.79085 14.0002 5.99999V10.4721Z" fill="#FFC82C"/>
  </g>
  <defs>
    <clipPath id="">
      <rect width="24" height="24" fill="white"/>
    </clipPath>
  </defs>
</svg>
