<?xml version="1.0"?>
<svg xmlns="http://www.w3.org/2000/svg" viewBox="0 0 1000 655" fill="none">
  <path onClick="" stroke="currentColor" d="M812.81 52.0684C789.261 41.8182 763.159 36.4766 737.491 36.4766H669.106L656.489 36.5728L654.274 36.6691H653.455L652.781 36.7172L652.203 36.7653L651.721 36.8615L650.951 37.1984L650.517 37.439L650.18 37.7278L649.795 38.0646L649.506 38.4015L649.217 38.7383L648.832 39.4121L648.639 39.9414L648.543 40.2301L648.495 40.4226L648.447 40.7595L648.399 41.1926L648.206 46.2936L649.314 46.4861L652.348 46.7267L657.789 46.9673L669.106 47.1117H737.491M812.762 52.0684L816.277 53.6564L821.189 56.0144L823.742 57.3619L826.15 58.6612L828.124 59.8161L828.798 60.2493L829.039 60.3936L829.376 60.6342L829.617 60.7786L829.713 60.8748L829.858 60.9711L829.954 61.0673L830.099 61.2117L830.291 61.4042L830.484 61.5967L830.628 61.7892L830.821 62.0779L830.917 62.2704L831.013 62.511L831.11 62.7516L831.254 63.1847L831.399 63.5697L831.447 63.9547V64.3397L832 73.228L813.58 64.2434C789.983 53.0308 763.592 47.1117 737.443 47.1117" stroke-width="4" stroke-linejoin="bevel"/>
  <path onClick="" stroke="currentColor" d="M187.19 52.5918C210.739 42.3416 236.841 37 262.509 37H330.894L343.511 37.0962L345.726 37.1925H346.545L347.219 37.2406L347.797 37.2887L348.279 37.385L349.049 37.7218L349.483 37.9625L349.82 38.2512L350.205 38.5881L350.494 38.9249L350.783 39.2618L351.168 39.9355L351.361 40.4648L351.457 40.7536L351.505 40.9461L351.553 41.2829L351.601 41.716L351.794 46.8171L350.686 47.0096L347.652 47.2502L342.211 47.4908L330.894 47.6352H262.509M187.238 52.5918L183.723 54.1799L178.811 56.5379L176.258 57.8853L173.85 59.1846L171.876 60.3396L171.202 60.7727L170.961 60.9171L170.624 61.1577L170.383 61.302L170.287 61.3983L170.142 61.4945L170.046 61.5908L169.901 61.7351L169.709 61.9276L169.516 62.1201L169.372 62.3126L169.179 62.6014L169.083 62.7938L168.987 63.0345L168.89 63.2751L168.746 63.7082L168.601 64.0932L168.553 64.4781V64.8631L168 73.7514L186.42 64.7669C210.017 53.5543 236.408 47.6352 262.557 47.6352" stroke-width="4" stroke-linejoin="bevel"/>
  <path stroke="currentColor" d="M658.175 396.388L659.812 395.714L661.353 395.04L662.846 394.366L664.291 393.693L666.988 392.345L667.036 392.297L667.421 392.105H667.517V392.057H667.614L667.662 392.008H667.855L667.903 391.96H668.144L668.24 391.912H669.348L669.492 391.96H669.54L669.636 392.008H669.781L669.925 392.057L670.118 392.105L670.262 392.201L670.407 392.249L670.6 392.297L670.744 392.393L671.081 392.538L671.418 392.73L672.141 393.115L672.959 393.596C701.324 410.055 725.018 434.453 740.91 463.134C741.777 464.722 743.511 468.043 744.378 469.679M938.695 360.825L938.454 357.986L938.213 355.772C938.213 355.772 938.165 355.291 938.117 355.146M938.165 355.146C935.276 324.059 929.738 281.663 924.633 250.912L917.843 212.366L915.146 198.266L913.942 192.154L913.508 190.037C902.865 135.514 865.639 85.2735 813.581 64.2438C789.983 53.0311 763.593 47.112 737.443 47.112M737.491 47.112H669.107L657.79 46.9677L652.348 46.7271L649.314 46.4864L646.761 46.2458L645.75 46.1015L644.883 45.9571L644.498 45.909L644.161 45.8127H644.016L643.727 45.7165L643.631 45.6683H643.535L643.487 45.6202H643.39L643.342 45.5721H643.294L643.246 45.524H643.198V45.4759H643.15V45.4277H356.85V45.4759H356.802V45.524H356.706L356.61 45.6202H356.513L356.465 45.6683H356.369L356.224 45.7165L356.128 45.7646L355.984 45.8127H355.839L355.502 45.909L355.117 45.9571L354.25 46.1015L353.19 46.2458L350.686 46.4864L345.919 46.7752L338.213 47.0639L330.845 47.112L262.509 47.112L257.645 47.2083L252.733 47.4008L247.821 47.7376L242.957 48.2189L238.045 48.8445L233.181 49.5663L228.317 50.4325L223.501 51.4431L218.685 52.598L213.918 53.8974L209.198 55.2929L204.527 56.8329L199.904 58.5172L195.329 60.2977L190.85 62.2226L186.371 64.2438C134.939 84.6479 96.7975 135.851 86.4436 190.037L86.0583 192.154L84.8543 198.314L82.1575 212.366L75.3672 250.912C70.2143 281.663 64.7243 324.059 61.8348 355.146L61.3051 360.777C59.1861 392.105 55.3817 447.638 55.1409 478.678M658.127 396.388C621.623 411.354 576.836 398.024 554.539 365.493L554.443 365.3L554.346 365.252L554.298 365.156L554.202 365.06L554.154 364.963L554.057 364.915L554.009 364.819L553.913 364.771L553.817 364.675L553.72 364.627L553.672 364.53L553.576 364.482L553.479 364.386L553.19 364.242L553.094 364.145L552.516 363.857H552.42L552.324 363.808L552.179 363.76L552.083 363.712H551.987L551.89 363.664H551.794L551.649 363.616H551.553L551.457 363.568H551.023L550.879 363.52H449.073L448.977 363.568H448.543L448.447 363.616H448.302L448.206 363.664H448.11L448.014 363.712H447.869L447.58 363.857H447.484L447.387 363.905L447.243 363.953L446.858 364.145L446.761 364.242L446.665 364.29L446.617 364.338L446.521 364.386L446.424 364.482L446.328 364.53L446.232 364.627L446.135 364.675L446.087 364.771L445.991 364.819L445.75 365.06L445.702 365.156L445.557 365.3L445.509 365.397L445.413 365.493C423.116 398.024 378.329 411.402 341.825 396.388L338.647 395.04L337.154 394.366L335.709 393.693L333.012 392.345V392.297H332.964L332.916 392.249L332.434 392.105L332.386 392.057H332.338L332.145 391.96H332.049L331.905 391.912H331.808L331.712 391.864H331.519L331.423 391.816H330.364L330.267 391.864H329.978L329.882 391.912H329.834L329.738 391.96H329.641L329.545 392.008H329.449L329.256 392.105H329.16L329.112 392.153L328.919 392.249H328.823L328.774 392.297L328.485 392.442L328.341 392.586H328.293L328.052 392.827L327.811 393.019L327.619 393.163L327.378 393.404H327.33L327.233 393.5L327.041 393.596C298.676 410.103 274.982 434.453 259.09 463.134L257.597 465.877M55.1409 478.63C55.1409 482.094 55.2372 489.024 55.3335 492.489M55.3817 492.441C55.478 495.424 55.8151 501.488 56.0559 504.472M56.0077 504.52C58.4638 537.821 68.4806 572.998 94.1488 595.905M94.1488 595.857C110.86 610.438 133.205 619.389 155.55 618.426M155.55 618.475C204.479 615.78 226.92 564.336 237.804 523.143M237.804 523.095C242.812 504.183 248.11 483.009 257.597 465.829M744.329 469.679C752.564 485.704 757.525 505.723 762.148 523.143M762.196 523.095C773.032 564.288 795.521 615.78 844.45 618.426M844.45 618.475C866.795 619.437 889.092 610.486 905.851 595.905M905.803 595.857C931.471 572.95 941.488 537.773 943.944 504.472C944.185 501.488 944.522 495.424 944.618 492.441C944.715 488.976 944.811 482.046 944.811 478.581M944.811 478.63C944.378 449.323 941.007 390.035 938.647 360.873" stroke-width="8" stroke-linejoin="bevel"/>
  <path stroke="currentColor" opacity="0.5" d="M549.627 314.723C548.712 325.888 550.301 337.245 554.202 347.736L554.539 348.794L554.876 349.805L555.165 350.767L555.646 352.692L555.935 354.521L556.032 355.387L556.128 356.205L556.224 357.745V358.419L556.176 359.044V359.622L556.128 360.103L556.08 360.536L555.984 360.825V360.969L555.935 361.114V361.21L555.887 361.258V361.354H555.839V361.402L554.539 365.493M549.579 314.723C552.227 275.888 585.793 243.261 624.994 243.165C664.917 242.202 699.687 275.166 702.336 314.723C704.31 338.111 694.871 362.124 677.293 377.716M445.413 365.493L444.161 361.403M444.113 361.354C443.149 356.831 444.305 352.019 445.798 347.736C449.699 337.245 451.24 325.888 450.373 314.723C447.387 274.781 413.34 242.491 372.983 243.165C333.446 243.55 300.554 275.551 297.616 314.723C295.642 338.111 305.081 362.124 322.658 377.716C324.344 379.208 326.222 381.085 327.667 382.721C328.919 384.068 336.142 393.115 337.443 394.367M831.447 64.244V64.3402M677.293 377.716L675.897 379.064L674.597 380.315L673.393 381.566L672.333 382.721L671.515 383.635L664.435 393.067L664.098 393.452L663.809 393.837L663.713 393.885L663.665 393.982L663.472 394.078M677.293 377.716C679.798 380.604 683.121 381.566 686.347 382.625C691.5 384.309 697.375 385.945 702.673 387.1C722.466 391.431 743.222 392.009 763.207 388.784C823.357 379.641 875.367 334.165 893.426 276.225C927.859 170.403 849.603 58.5655 737.395 58.6136M737.491 58.6136H262.509C190.705 58.4692 127.185 106.351 105.996 174.686C86.2508 237.197 105.562 307.264 155.117 350.382C179.677 371.941 210.932 385.945 243.39 389.747C268.962 392.682 295.642 389.891 319.576 380.315L320.78 379.545C321.31 379.015 322.032 378.246 322.61 377.764" stroke-width="4" stroke-linejoin="bevel"/>
  <path onClick="" stroke="currentColor" d="M282.447 163.185H318.758L318.806 163.233C321.936 163.233 324.488 165.784 324.488 168.912V201.876C324.488 205.004 321.936 207.554 318.806 207.554H282.495C281.145 207.554 279.916 208.109 279.025 209L267.152 197.243C270.232 194.206 272.141 189.987 272.141 185.322C272.141 180.721 270.284 176.554 267.279 173.527L279.025 161.787C279.902 162.653 281.109 163.185 282.447 163.185Z" stroke-width="4" stroke-linejoin="bevel"/>
  <path onClick="" stroke="currentColor" d="M192.006 163.233H228.317C229.556 163.233 230.693 162.766 231.56 162L243.345 173.669C240.422 176.684 238.623 180.793 238.623 185.321C238.623 189.971 240.519 194.178 243.581 197.212L231.787 209C230.895 208.108 229.667 207.554 228.317 207.554H192.006C188.876 207.554 186.323 205.004 186.323 201.876V168.911C186.323 165.783 188.876 163.233 192.006 163.233Z" stroke-width="4" stroke-linejoin="bevel"/>
  <path onClick="" stroke="currentColor" d="M233.229 248.747V212.462C233.229 211.116 232.676 209.89 231.787 209L243.581 197.212C246.61 200.214 250.779 202.068 255.382 202.068C259.969 202.068 264.126 200.226 267.152 197.243L279.025 209C278.136 209.89 277.583 211.116 277.583 212.462V248.747C277.583 251.875 275.03 254.425 271.9 254.425H238.912C235.782 254.425 233.229 251.875 233.229 248.747Z" stroke-width="4" stroke-linejoin="bevel"/>
  <path onClick="" stroke="currentColor" d="M277.583 122.04V158.324C277.583 159.683 278.133 160.907 279.025 161.787L267.279 173.527C264.243 170.468 260.034 168.575 255.382 168.575C250.658 168.575 246.391 170.527 243.345 173.669L231.56 162C232.581 161.098 233.229 159.782 233.229 158.324V122.04C233.229 118.912 235.781 116.361 238.912 116.361H271.9C275.03 116.361 277.583 118.912 277.583 122.04Z" stroke-width="4" stroke-linejoin="bevel"/>
  <path stroke="currentColor" d="M255.382 202.068C264.637 202.068 272.141 194.57 272.141 185.321C272.141 176.072 264.637 168.575 255.382 168.575C246.126 168.575 238.623 176.072 238.623 185.321C238.623 194.57 246.126 202.068 255.382 202.068Z" stroke-width="4" stroke-linejoin="bevel"/>
  <path stroke="currentColor" d="M318.758 163.185H282.446C279.75 163.185 277.582 161.019 277.582 158.324V122.04C277.582 118.912 275.03 116.361 271.9 116.361H238.912C235.781 116.361 233.229 118.912 233.229 122.04V158.324C233.229 161.019 231.014 163.233 228.317 163.233H192.006C188.875 163.233 186.323 165.783 186.323 168.911V201.876C186.323 205.004 188.875 207.554 192.006 207.554H228.317C231.014 207.554 233.229 209.768 233.229 212.463V248.747C233.229 251.875 235.781 254.426 238.912 254.426H271.9C275.03 254.426 277.582 251.875 277.582 248.747V212.463C277.582 209.768 279.798 207.554 282.495 207.554H318.806C321.936 207.554 324.488 205.004 324.488 201.876V168.911C324.488 165.783 321.936 163.233 318.806 163.233L318.758 163.185Z" stroke-width="4" stroke-linejoin="bevel"/>
  <path stroke="currentColor" opacity="0.5" d="M491.211 303.271H508.789C514.616 303.271 519.384 308.035 519.384 313.858C519.384 319.68 514.616 324.445 508.789 324.445H491.211C485.384 324.445 480.616 319.68 480.616 313.858C480.616 308.035 485.384 303.271 491.211 303.271Z" stroke-width="4" stroke-miterlimit="22.93"/>
  <g opacity="0.5">
    <path stroke="currentColor" d="M499.976 275.695C501.902 275.695 503.492 277.283 503.492 279.208C503.492 281.133 501.902 282.721 499.976 282.721C498.05 282.721 496.46 281.133 496.46 279.208C496.46 277.283 498.05 275.695 499.976 275.695Z" stroke-width="4" stroke-miterlimit="22.93"/>
    <path stroke="currentColor" d="M515.916 275.695C517.842 275.695 519.432 277.283 519.432 279.208C519.432 281.133 517.842 282.721 515.916 282.721C513.99 282.721 512.401 281.133 512.401 279.208C512.401 277.283 513.99 275.695 515.916 275.695Z" stroke-width="4" stroke-miterlimit="22.93"/>
    <path stroke="currentColor" d="M484.517 275.695C486.444 275.695 488.033 277.283 488.033 279.208C488.033 281.133 486.444 282.721 484.517 282.721C482.591 282.721 481.002 281.133 481.002 279.208C481.002 277.283 482.591 275.695 484.517 275.695Z" stroke-width="4" stroke-miterlimit="22.93"/>
  </g>
  <path stroke="currentColor" d="M255.285 310.056C265.832 310.056 274.404 318.622 274.404 329.16C274.404 339.699 265.832 348.265 255.285 348.265C244.739 348.265 236.167 339.699 236.167 329.16C236.167 318.622 244.739 310.056 255.285 310.056Z" stroke-width="4" stroke-miterlimit="22.93"/>
  <path fill="currentColor" d="M270.792 324.265V324.478C270.792 324.478 270.721 324.62 270.721 324.691C270.721 324.762 270.65 324.833 270.65 324.904L270.508 325.047C269.797 325.686 269.085 326.397 268.303 327.108C267.592 327.748 266.881 328.459 266.17 329.099C265.459 329.81 264.748 330.45 263.965 331.161C263.894 331.232 263.894 331.303 263.823 331.374C263.752 331.445 263.752 331.516 263.681 331.587C263.681 331.658 263.61 331.729 263.61 331.801V332.227C263.752 333.222 263.965 334.218 264.179 335.213C264.321 336.208 264.534 337.275 264.748 338.27C264.89 339.265 265.103 340.261 265.316 341.327C265.316 341.327 265.245 341.54 265.174 341.612C265.174 341.683 265.103 341.754 265.032 341.825C265.032 341.896 264.961 341.967 264.89 341.967L264.748 342.109C264.748 342.109 264.605 342.18 264.534 342.18H264.179C264.179 342.18 264.036 342.109 263.965 342.109C263.965 342.109 263.894 342.038 263.823 342.038C263.254 341.683 262.756 341.398 262.187 341.185C261.69 340.901 261.192 340.616 260.765 340.332C260.267 340.119 259.841 339.905 259.414 339.621C258.987 339.408 258.561 339.194 258.205 338.981C257.778 338.768 257.423 338.554 257.067 338.341C256.641 338.128 256.356 337.986 256.001 337.772C255.929 337.772 255.858 337.701 255.787 337.701C255.716 337.63 255.645 337.63 255.574 337.63H255.218C255.218 337.63 255.076 337.63 255.005 337.701C254.934 337.701 254.863 337.772 254.792 337.772C254.792 337.772 254.744 337.796 254.649 337.844C254.08 338.128 253.583 338.412 252.943 338.768C252.303 339.123 251.663 339.479 250.951 339.834C250.311 340.19 249.743 340.474 249.103 340.83C248.463 341.185 247.68 341.612 246.969 342.038C246.898 342.038 246.756 342.109 246.685 342.109C246.614 342.109 246.542 342.18 246.471 342.18H246.258C246.258 342.18 246.116 342.109 246.045 342.109C245.974 342.109 245.902 342.038 245.831 342.038C245.831 341.967 245.76 341.967 245.689 341.896C245.689 341.896 245.618 341.825 245.618 341.754C245.547 341.754 245.547 341.683 245.476 341.612V341.327C245.547 340.83 245.689 340.332 245.76 339.834C245.831 339.337 245.902 338.839 246.045 338.341C246.116 337.844 246.187 337.346 246.329 336.777C246.329 336.279 246.471 335.782 246.614 335.284C246.614 334.786 246.756 334.289 246.898 333.791C246.969 333.222 247.04 332.725 247.182 332.227V331.801C247.182 331.801 247.111 331.658 247.04 331.587C247.04 331.516 246.969 331.445 246.969 331.374C246.898 331.303 246.827 331.232 246.756 331.161C246.045 330.45 245.333 329.81 244.622 329.099C243.911 328.459 243.129 327.748 242.418 327.108C241.707 326.397 240.996 325.686 240.284 325.047C240.213 324.975 240.142 324.975 240.142 324.904C240.142 324.833 240.071 324.762 240.071 324.762C240 324.691 240 324.62 240 324.549V324.122C240 324.122 240.071 323.98 240.142 323.909C240.142 323.838 240.213 323.767 240.284 323.696C240.356 323.625 240.427 323.625 240.427 323.554C240.498 323.554 240.569 323.482 240.64 323.482C240.711 323.411 240.782 323.411 240.853 323.411C241.351 323.34 241.849 323.269 242.347 323.198C242.845 323.127 243.342 323.127 243.769 323.056C244.267 322.985 244.765 322.914 245.262 322.843C245.76 322.772 246.258 322.7 246.756 322.629C247.254 322.558 247.751 322.558 248.249 322.487C248.747 322.416 249.245 322.345 249.743 322.274C249.814 322.274 249.885 322.203 249.956 322.203C250.027 322.203 250.098 322.132 250.169 322.132C250.169 322.061 250.311 321.989 250.383 321.989C250.383 321.989 250.454 321.847 250.525 321.776C250.596 321.705 250.596 321.634 250.667 321.563C251.094 320.639 251.52 319.714 251.947 318.861C252.374 317.937 252.8 317.084 253.227 316.16C253.654 315.307 254.08 314.382 254.507 313.529H254.578C254.578 313.529 254.649 313.316 254.721 313.316C254.792 313.245 254.792 313.174 254.863 313.174C254.934 313.103 255.005 313.103 255.076 313.032H255.289C255.289 313.032 255.432 312.961 255.503 313.032H255.716C255.716 313.032 255.858 313.032 255.929 313.174C256.001 313.174 256.072 313.245 256.072 313.316C256.143 313.316 256.214 313.387 256.214 313.458C256.285 313.458 256.285 313.6 256.285 313.6H256.356C256.783 314.596 257.067 315.307 257.494 316.231C257.992 317.084 258.418 318.008 258.845 318.861C259.272 319.786 259.698 320.639 260.125 321.563C260.125 321.634 260.196 321.705 260.267 321.776C260.267 321.847 260.338 321.918 260.41 321.989C260.481 321.989 260.552 322.061 260.623 322.132C260.694 322.132 260.765 322.203 260.836 322.203C260.907 322.203 260.979 322.274 261.05 322.274C262.045 322.416 263.041 322.487 263.965 322.629C264.961 322.772 265.956 322.914 266.952 323.056C267.948 323.127 268.872 323.269 269.868 323.411C269.939 323.411 270.01 323.411 270.081 323.482C270.152 323.482 270.223 323.554 270.294 323.554C270.365 323.625 270.437 323.625 270.508 323.696C270.508 323.696 270.579 323.838 270.65 323.909C270.65 323.909 270.721 323.98 270.721 324.051C270.721 324.122 270.792 324.193 270.792 324.265Z"/>
  <path stroke="currentColor" opacity="0.5" d="M744.667 355.339C758.444 355.339 769.612 344.178 769.612 330.411C769.612 316.644 758.444 305.483 744.667 305.483C730.889 305.483 719.721 316.644 719.721 330.411C719.721 344.178 730.889 355.339 744.667 355.339Z" stroke-width="4" stroke-linejoin="bevel"/>
  <path stroke="currentColor" d="M744.667 348.987C754.933 348.987 763.256 340.67 763.256 330.411C763.256 320.152 754.933 311.836 744.667 311.836C734.4 311.836 726.078 320.152 726.078 330.411C726.078 340.67 734.4 348.987 744.667 348.987Z" stroke-width="4" stroke-linejoin="bevel"/>
  <path fill="currentColor" d="M747.556 326.128H741.777V331.903H747.556V326.128Z"/>
  <path fill="currentColor" d="M735.95 326.128H730.171V331.903H735.95V326.128Z"/>
  <path fill="currentColor" d="M759.114 326.128H753.335V331.903H759.114V326.128Z"/>
  <path fill="currentColor" d="M741.729 331.903L735.95 331.903L735.95 337.678H741.729V331.903Z"/>
  <path fill="currentColor" d="M747.556 337.726H741.777V343.501H747.556V337.726Z"/>
  <path fill="currentColor" d="M753.335 331.903H747.556L747.556 337.678H753.335L753.335 331.903Z"/>
  <path fill="currentColor" d="M741.729 320.354H735.95L735.95 326.128L741.729 326.128V320.354Z"/>
  <path fill="currentColor" d="M753.335 320.354H747.556L747.556 326.128H753.335L753.335 320.354Z"/>
  <path onClick="" stroke="currentColor" d="M561.281 170.259H518.902C512.705 170.259 507.681 175.268 507.681 181.447C507.681 187.627 512.705 192.636 518.902 192.636H561.281C567.478 192.636 572.502 187.627 572.502 181.447C572.502 175.268 567.478 170.259 561.281 170.259Z" stroke-width="4" stroke-linejoin="bevel"/>
  <path onClick="" stroke="currentColor" d="M480.424 170.259H438.045C431.848 170.259 426.824 175.268 426.824 181.447C426.824 187.627 431.848 192.636 438.045 192.636H480.424C486.621 192.636 491.645 187.627 491.645 181.447C491.645 175.268 486.621 170.259 480.424 170.259Z" stroke-width="4" stroke-linejoin="bevel"/>
  <path stroke="currentColor" opacity="0.5" d="M561.233 152.405H438.093C422.108 152.405 409.15 165.343 409.15 181.303C409.15 197.263 422.108 210.201 438.093 210.201H561.233C577.218 210.201 590.176 197.263 590.176 181.303C590.176 165.343 577.218 152.405 561.233 152.405Z" stroke-width="4" stroke-linejoin="bevel"/>
  <path onClick="" stroke="currentColor" d="M674.837 214.483C691.434 214.483 704.888 201.039 704.888 184.454C704.888 167.87 691.434 154.426 674.837 154.426C658.241 154.426 644.787 167.87 644.787 184.454C644.787 201.039 658.241 214.483 674.837 214.483Z" stroke-width="4" stroke-linejoin="bevel"/>
  <path fill="currentColor" d="M671.803 173.291C671.659 172.906 671.466 172.81 671.177 172.81H667.517C667.084 172.81 666.795 173.243 666.988 173.724L672.911 188.594V195.475C672.911 195.86 673.2 196.149 673.585 196.149H676.908C677.293 196.149 677.582 195.86 677.582 195.475V188.594L683.506 173.724C683.698 173.243 683.41 172.81 682.976 172.81H679.316C679.027 172.81 678.835 172.954 678.69 173.291L675.463 182.53C675.463 182.53 675.126 182.723 675.078 182.53L671.852 173.291H671.803Z"/>
  <path onClick="" stroke="currentColor" d="M744.618 153.705C761.215 153.705 774.669 140.26 774.669 123.676C774.669 107.092 761.215 93.6475 744.618 93.6475C728.022 93.6475 714.568 107.092 714.568 123.676C714.568 140.26 728.022 153.705 744.618 153.705Z" stroke-width="4" stroke-linejoin="bevel"/>
  <path fill="currentColor" d="M744.522 126.948C744.522 126.948 744.859 126.756 744.907 126.948L747.989 134.84C748.134 135.225 748.375 135.322 748.712 135.322H752.661C753.094 135.322 753.383 134.84 753.19 134.407L748.278 123.339C748.134 123.05 748.134 122.954 748.278 122.617L752.612 112.945C752.805 112.463 752.516 112.03 752.083 112.03H748.326C748.037 112.03 747.845 112.175 747.7 112.511L744.907 119.393C744.907 119.393 744.57 119.586 744.522 119.393L741.729 112.511C741.584 112.127 741.392 112.03 741.103 112.03H737.346C736.913 112.03 736.624 112.511 736.817 112.945L741.151 122.569C741.295 122.906 741.295 123.002 741.151 123.291L736.239 134.407C736.046 134.889 736.335 135.322 736.769 135.322H740.717C741.006 135.322 741.295 135.177 741.44 134.84L744.522 126.948Z"/>
  <path onClick="" stroke="currentColor" d="M744.618 274.878C761.215 274.878 774.669 261.433 774.669 244.849C774.669 228.265 761.215 214.82 744.618 214.82C728.022 214.82 714.568 228.265 714.568 244.849C714.568 261.433 728.022 274.878 744.618 274.878Z" stroke-width="4" stroke-linejoin="bevel"/>
  <path fill="currentColor" d="M741.922 242.539C741.922 242.539 741.584 242.394 741.584 242.202V238.545C741.584 238.545 741.729 238.208 741.922 238.208H745.389C746.545 238.208 747.604 239.17 747.604 240.325C747.604 241.48 746.545 242.491 745.389 242.491H741.922V242.539ZM745.582 233.588H737.684C737.298 233.588 737.009 233.877 737.009 234.262V256.254C737.009 256.639 737.298 256.927 737.684 256.927H745.582C749.675 256.927 752.42 254.088 752.42 249.709C752.42 248.025 751.553 246.1 750.446 245.185C750.253 245.041 750.253 244.801 750.446 244.608C751.409 243.646 752.131 241.865 752.131 240.421C752.131 236.668 749.29 233.636 745.533 233.636L745.582 233.588ZM745.389 247.207C746.785 247.207 747.749 248.41 747.749 249.709C747.749 251.008 746.834 252.26 745.389 252.26H741.922C741.922 252.26 741.584 252.115 741.584 251.923V247.544C741.584 247.544 741.729 247.207 741.922 247.207H745.389Z"/>
  <path onClick="" stroke="currentColor" d="M814.11 214.483C830.707 214.483 844.161 201.039 844.161 184.454C844.161 167.87 830.707 154.426 814.11 154.426C797.514 154.426 784.06 167.87 784.06 184.454C784.06 201.039 797.514 214.483 814.11 214.483Z" stroke-width="4" stroke-linejoin="bevel"/>
  <path fill="currentColor" d="M818.252 195.668C818.348 195.957 818.589 196.149 818.878 196.149H822.394C822.923 196.149 823.116 195.764 823.068 195.475L817.144 173.291C817.096 173.002 816.807 172.81 816.518 172.81H812.04C811.751 172.81 811.462 173.002 811.414 173.291L805.442 195.475C805.394 195.764 805.586 196.149 806.116 196.149H809.632C809.921 196.149 810.21 195.957 810.258 195.668L811.173 192.251C811.221 191.962 811.365 191.77 811.654 191.77H816.711C817 191.77 817.144 192.011 817.192 192.251L818.204 195.668H818.252ZM815.748 187.054H812.666C812.666 187.054 812.329 186.958 812.377 186.669L813.966 178.681C813.966 178.681 814.014 178.536 814.11 178.536H814.159C814.159 178.536 814.303 178.536 814.303 178.681L815.892 186.669C815.94 186.958 815.844 187.054 815.603 187.054H815.748Z"/>
  <path stroke="currentColor" fill="currentColor" opacity="0.5" d="M626.679 256.754C657.514 256.754 682.524 281.747 682.524 312.558C682.524 343.368 657.514 368.361 626.679 368.361C595.845 368.361 570.835 343.368 570.835 312.558C570.835 281.747 595.845 256.754 626.679 256.754ZM626.679 263.935C599.821 263.935 578.021 285.717 578.021 312.558C578.021 339.398 599.821 361.181 626.679 361.181C653.538 361.181 675.338 339.398 675.338 312.558C675.338 285.717 653.49 263.935 626.679 263.935Z"/>
  <path onClick="" style="" stroke="currentColor" d="M626.68 346.58C645.51 346.58 660.775 331.326 660.775 312.509C660.775 293.693 645.51 278.438 626.68 278.438C607.849 278.438 592.584 293.693 592.584 312.509C592.584 331.326 607.849 346.58 626.68 346.58Z" stroke-width="4" stroke-linejoin="bevel"/>
  <path stroke="currentColor" fill="currentColor" opacity="0.5" d="M373.32 256.754C404.155 256.754 429.165 281.747 429.165 312.558C429.165 343.368 404.155 368.361 373.32 368.361C342.486 368.361 317.476 343.368 317.476 312.558C317.476 281.747 342.486 256.754 373.32 256.754ZM373.32 263.935C346.461 263.935 324.662 285.717 324.662 312.558C324.662 339.398 346.461 361.181 373.32 361.181C400.179 361.181 421.979 339.398 421.979 312.558C421.979 285.717 400.131 263.935 373.32 263.935Z"/>
  <path onClick="" style="" stroke="currentColor" d="M373.32 346.58C392.151 346.58 407.416 331.326 407.416 312.509C407.416 293.693 392.151 278.438 373.32 278.438C354.49 278.438 339.225 293.693 339.225 312.509C339.225 331.326 354.49 346.58 373.32 346.58Z" stroke-width="4" stroke-linejoin="bevel"/>
</svg>
