<?xml version="1.0"?>
<svg version="1.1" xmlns="http://www.w3.org/2000/svg" viewBox="0 0 36 36" fill="none">
  <g clip-path="">
    <path d="M29.582 9.65V7.328a.528.528 0 0 0-.527-.527H16.059c-2.638 0-4.607.566-6.016 1.731-1.475 1.22-2.224 2.95-2.224 5.139 0 2.402.724 4.184 2.214 5.447 1.483 1.257 3.638 1.894 6.403 1.894h2.407v7.662c0 .29.236.527.527.527h1.645a.528.528 0 0 0 .528-.527V10.177h2.12v18.496c0 .291.236.528.527.528h1.593a.528.528 0 0 0 .528-.528V10.177h2.743a.528.528 0 0 0 .528-.527Z"/>
  </g>
  <defs>
    <clipPath id="">
      <path transform="translate(.701)" d="M0 0h36v36H0z"/>
    </clipPath>
  </defs>
</svg>
