<?xml version="1.0"?>
<svg xmlns="http://www.w3.org/2000/svg" viewBox="0 0 36 36" fill="none">
  <path fill="currentColor" fill-rule="evenodd" clip-rule="evenodd" d="M18 36C27.9411 36 36 27.9411 36 18C36 8.05887 27.9411 0 18 0C8.05887 0 0 8.05887 0 18C0 27.9411 8.05887 36 18 36ZM23.173 20.382C23.173 18.81 22.369 17.778 20.761 17.286C21.349 16.974 21.775 16.584 22.039 16.116C22.303 15.648 22.435 15.132 22.435 14.568C22.435 13.56 22.081 12.78 21.373 12.228C20.665 11.676 19.573 11.4 18.097 11.4H13.435V24H18.601C19.993 24 21.103 23.682 21.931 23.046C22.759 22.41 23.173 21.522 23.173 20.382ZM16.117 16.674V13.596H17.881C19.165 13.596 19.807 14.082 19.807 15.054C19.807 15.57 19.645 15.972 19.321 16.26C18.997 16.536 18.535 16.674 17.935 16.674H16.117ZM19.843 21.372C19.507 21.672 19.003 21.822 18.331 21.822H16.117V18.582H18.403C19.039 18.582 19.525 18.72 19.861 18.996C20.197 19.26 20.365 19.656 20.365 20.184C20.365 20.676 20.191 21.072 19.843 21.372Z"/>
</svg>
