<?xml version="1.0"?>
<svg version="1.1" id="base" xmlns="http://www.w3.org/2000/svg" x="0px" y="0px" width="256px" height="256px" viewBox="0 0 256 256">
  <path d="M138.365,26.557c16.139-21.272,38.578-21.376,38.578-21.376s3.336,19.999-12.696,39.266 c-17.12,20.572-36.58,17.206-36.58,17.206S124.012,45.473,138.365,26.557z"/>
  <path d="M129.719,75.662c8.305,0,23.713-11.413,43.771-11.413c34.527,0,48.109,24.566,48.109,24.566s-26.565,13.583-26.565,46.54 c0,37.179,33.093,49.991,33.093,49.991s-23.134,65.112-54.38,65.112c-14.353,0-25.509-9.672-40.631-9.672 c-15.41,0-30.702,10.032-40.662,10.032c-28.533,0-64.581-61.765-64.581-111.414c0-48.849,30.512-74.474,59.13-74.474 C105.61,64.933,120.047,75.662,129.719,75.662z"/>
</svg>
