<?xml version="1.0"?>
<svg xmlns="http://www.w3.org/2000/svg" viewBox="0 0 36 36" fill="none">
  <ellipse fill="currentColor" cx="18" cy="19.5" rx="18" ry="11.25"/>
  <path fill="currentColor" d="M11 32V33.601C11 34.926 12.0446 36 13.3333 36H22.6667C23.9554 36 25 34.926 25 33.601V32C22.7984 32.523 20.4394 32.8029 18 32.8029C15.5606 32.8029 13.2016 32.523 11 32Z"/>
  <path fill="currentColor" d="M23.1111 0H12L17.5556 5.625L23.1111 0Z"/>
  <path fill="currentColor" d="M17.009 24.956H9.48901V13.756H11.841V22.844H17.009V24.956Z"/>
  <path fill="currentColor" d="M22.4759 13.5C23.7879 13.5 24.7852 13.7613 25.4679 14.284C26.1506 14.8067 26.4919 15.484 26.4919 16.316C26.4919 16.8813 26.3212 17.388 25.9799 17.836C25.6492 18.2733 25.1799 18.6093 24.5719 18.844V18.892C25.2866 19.0413 25.8626 19.3507 26.2999 19.82C26.7479 20.2787 26.9719 20.892 26.9719 21.66C26.9719 22.364 26.7692 22.988 26.3639 23.532C25.9586 24.0653 25.4039 24.4813 24.6999 24.78C23.9959 25.068 23.2172 25.212 22.3639 25.212C21.5532 25.212 20.7799 25.1 20.0439 24.876C19.3186 24.652 18.7052 24.3373 18.2039 23.932L19.2119 22.204C20.0439 22.876 21.0306 23.212 22.1719 23.212C22.8972 23.212 23.4626 23.0627 23.8679 22.764C24.2839 22.4653 24.4919 22.0547 24.4919 21.532C24.4919 20.508 23.7079 19.996 22.1399 19.996H20.6999V18.22H21.9959C22.6146 18.22 23.1106 18.1027 23.4839 17.868C23.8679 17.6227 24.0599 17.2813 24.0599 16.844C24.0599 16.4387 23.8786 16.1133 23.5159 15.868C23.1639 15.6227 22.6732 15.5 22.0439 15.5C21.5639 15.5 21.0999 15.58 20.6519 15.74C20.2146 15.8893 19.8199 16.0973 19.4679 16.364L18.4759 14.86C19.0092 14.4227 19.6119 14.0867 20.2839 13.852C20.9666 13.6173 21.6972 13.5 22.4759 13.5Z"/>
</svg>
