<?xml version="1.0"?>
<svg xmlns="http://www.w3.org/2000/svg" viewBox="0 0 36 36" fill="none">
  <path fill="currentColor" d="M28.999 6H6.99996C6.44758 6 6 6.4484 6 7.00178V29.041C6 29.5944 6.44758 30.0428 6.99996 30.0428H28.999C29.5514 30.0428 29.9989 29.5944 29.9989 29.041V7.00178C29.9989 6.4484 29.5514 6 28.999 6ZM26.9991 28.0392C26.4467 28.0392 25.9991 27.5908 25.9991 27.0375C25.9991 26.4841 26.4467 26.0357 26.9991 26.0357C27.5514 26.0357 27.999 26.4841 27.999 27.0375C27.999 27.5908 27.5514 28.0392 26.9991 28.0392ZM26.9991 25.0339H8.99987C8.44749 25.0339 7.99991 24.5855 7.99991 24.0321C7.99991 23.4787 8.44749 23.0303 8.99987 23.0303H26.9991C27.5514 23.0303 27.999 23.4787 27.999 24.0321C27.999 24.5855 27.5514 25.0339 26.9991 25.0339Z"/>
</svg>
