<?xml version="1.0"?>
<svg xmlns="http://www.w3.org/2000/svg" viewBox="0 0 100.5 32">
  <path fill="currentColor" d="M99.288,15.852c-0.725,0.562-1.461,1.105-2.205,1.628
				c-0.081,0.06-0.17,0.121-0.272,0.181c-2.734,1.792-5.181,2.958-7.334,3.501c-2.638,0.685-5.292,1.068-7.969,1.148
				c-2.778,0.101-5.462-0.122-8.058-0.665c-1.025-0.221-2.103-0.475-3.231-0.755c-1.285-0.322-2.063-0.501-2.322-0.543
				c-1.49-0.343-3.25-0.563-5.284-0.664c-2.072-0.119-5.061-0.129-8.963-0.029l-5.223,0.149l-0.33,0.728l-3.141-0.063
				c-0.039-0.099-0.121-0.222-0.239-0.363c-0.242-0.262-0.553-0.493-0.937-0.694c-0.383-0.181-0.793-0.323-1.238-0.423l-0.543-0.089
				l-0.18,2.595l-0.727,0.694c-0.543,0.545-0.937,1.038-1.175,1.478c-0.243,0.424-0.483,1.049-0.727,1.872
				c-0.141,0.402-0.249,0.755-0.331,1.058h-1.69c0-0.245,0.022-0.523,0.062-0.846c0.079-0.667,0.211-1.229,0.39-1.692
				c0.204-0.461,0.424-0.915,0.664-1.357l0.335-0.543c-0.141-0.264-0.323-0.553-0.546-0.874c-0.422-0.625-0.804-1.077-1.147-1.359
				c-0.362-0.261-0.713-0.614-1.053-1.055l-0.396-0.575c-0.361-0.202-0.783-0.383-1.266-0.543c-1.007-0.283-1.892-0.272-2.657,0.031
				c-0.16,0.06-0.975,0.44-2.443,1.145c-0.967,0.464-1.923,0.798-2.869,0.998c-1.064,0.241-2.583,0.274-4.559,0.089
				c-1.648-0.161-3.329-0.421-5.039-0.784c-1.792-0.441-3.047-0.735-3.774-0.876c-1.185-0.26-2.153-0.41-2.895-0.453
				c-0.725-0.019-1.53,0.022-2.416,0.123c-0.442,0.037-0.816,0.091-1.115,0.151l-1.121,0.907l-0.239,1.085
				c-0.182,0.745-0.361,1.166-0.543,1.267C4.282,21.616,3.92,21.838,3.457,22.1l-0.783-0.062c-0.183-0.101-0.383-0.251-0.604-0.455
				c-0.421-0.38-0.727-0.804-0.905-1.266c-0.203-0.464-0.271-1.197-0.213-2.203l0.153-1.39l-0.878-0.572v-1.388l0.667-0.332
				c0-0.344,0.017-0.725,0.058-1.148c0.081-0.844,0.213-1.438,0.391-1.781c0.223-0.403,0.465-0.672,0.727-0.815
				c0.201-0.121,0.531-0.22,0.996-0.302c0.321-0.06,0.575,0.011,0.754,0.213c0.082,0.099,0.131,0.199,0.149,0.302
				c1.893-0.122,3.995-0.245,6.311-0.365c4.668-0.26,8.119-0.373,10.351-0.331c1.993,0.02,4.929,0.169,8.813,0.451
				c3.562,0.285,5.554,0.413,5.975,0.396c0.664-0.042,1.259-0.143,1.783-0.304c0.302-0.079,0.704-0.222,1.208-0.422
				c0.342-0.101,0.594-0.091,0.754,0.032c0.099,0.058,0.162,0.138,0.182,0.241c0.201-0.183,0.442-0.403,0.723-0.667
				c0.522-0.503,0.905-0.956,1.147-1.356c0.261-0.426,0.472-0.906,0.634-1.449l0.151-0.726h1.449v0.756
				c-0.061,0.583-0.172,1.096-0.334,1.537c-0.162,0.445-0.4,0.887-0.723,1.331c-0.162,0.239-0.311,0.434-0.454,0.575l8.511,0.119
				l-0.542-0.845l1.994,0.845l1.417,0.062l-0.666-0.966l2.235,0.966h1.389l-0.666-0.966l2.235,1.025h1.299L58.48,9.996l2.172,0.907
				l1.359,0.089l-0.574-0.996l2.084,0.996l1.447,0.061l-0.605-0.999l2.084,0.999l1.508,0.06l-0.723-0.968l1.9,0.968l1.571-0.121
				l-0.514-0.785l2.083,0.906l1.115,0.03c1.008,0,2.113-0.052,3.321-0.151c1.972-0.183,3.831-0.382,5.583-0.604l0.604,0.453
				c0.503,0.34,1.035,0.672,1.601,0.996c1.791,1.046,3.489,1.761,5.099,2.144c1.609,0.383,3.873,0.685,6.792,0.904
				c0.242,0.022,0.473,0.041,0.693,0.061c1.167,0.08,2.223,0.132,3.169,0.153L99.288,15.852z"/>
</svg>
