<?xml version="1.0"?>
<svg width="36" height="36" viewBox="0 0 36 36" fill="none" xmlns="http://www.w3.org/2000/svg">
  <path d="M17.9025 14.8777L17.1985 17.0887H18.6505L17.9025 14.8777Z"/>
  <path fill-rule="evenodd" clip-rule="evenodd" d="M5.35 4.10857C13.549 1.29714 22.451 1.29714 30.65 4.10857L32 4.56857V18.9986C32 20.551 31.6385 22.0822 30.9443 23.4707C30.25 24.8593 29.242 26.0671 28 26.9986L18 34.4986L8 26.9986C6.75804 26.0671 5.75001 24.8593 5.05573 23.4707C4.36145 22.0822 4 20.551 4 18.9986V4.56857L5.35 4.10857ZM27.7468 12.2597C27.2702 12.1203 26.7752 12.0507 26.2618 12.0507C25.4625 12.0507 24.7585 12.2193 24.1498 12.5567C23.5412 12.894 23.0682 13.3707 22.7308 13.9867C22.4008 14.6027 22.2358 15.3177 22.2358 16.1317C22.2358 16.931 22.3972 17.635 22.7198 18.2437C23.0425 18.845 23.4972 19.3143 24.0838 19.6517C24.6778 19.9817 25.3598 20.1467 26.1298 20.1467C26.7532 20.1467 27.3178 20.0477 27.8238 19.8497C28.3372 19.6443 28.7405 19.3913 29.0338 19.0907L27.9778 17.5067C27.4718 17.91 26.9365 18.1117 26.3718 18.1117C25.8072 18.1117 25.3672 17.9393 25.0518 17.5947C24.7438 17.2427 24.5898 16.7587 24.5898 16.1427C24.5898 15.4827 24.7585 14.9767 25.0958 14.6247C25.4332 14.2653 25.8658 14.0857 26.3938 14.0857C26.6505 14.0857 26.9145 14.126 27.1858 14.2067C27.4645 14.2873 27.7028 14.401 27.9008 14.5477L28.9018 12.7987C28.6158 12.5713 28.2308 12.3917 27.7468 12.2597ZM11.9165 19.9487H9.76046L6.84546 12.2487H9.26546L10.8715 17.2977L12.4445 12.2487H14.8645L11.9165 19.9487ZM21.9835 19.9487H19.6185L19.2225 18.7937H16.6485L16.2745 19.9487H13.9755L16.8795 12.2487H18.9475L21.9835 19.9487Z" fill="currentcolor"/>
</svg>
