<?xml version="1.0"?>
<svg xmlns="http://www.w3.org/2000/svg" viewBox="0 0 36 36" fill="none">
  <path fill-rule="evenodd" clip-rule="evenodd" d="M2 6H34V23H2V6ZM5 10H7V12H5V10ZM7 14H5V16H7V14ZM5 18H7V20H5V18ZM11 10H9V12H11V10ZM9 14H11V16H9V14ZM15 10H13V12H15V10ZM13 14H15V16H13V14ZM27 18H9V20H27V18ZM17 10H19V12H17V10ZM19 14H17V16H19V14ZM21 10H23V12H21V10ZM27 10H25V12H27V10ZM29 10H31V12H29V10ZM23 14H21V16H23V14ZM25 14H27V16H25V14ZM31 14H29V16H31V14ZM29 18H31V20H29V18ZM18 32L23 27H13L18 32Z" fill="currentColor"/>
</svg>
