<?xml version="1.0"?>
<svg width="55" height="63" viewBox="0 0 55 63" fill="none" xmlns="http://www.w3.org/2000/svg">
  <path d="M47.7642 5.46737H43.3958V3.44632C43.3958 0.953685 42.3747 0 39.9495 0C37.4568 0 36.5032 1.02105 36.5032 3.44632V5.46737H17.5937V3.44632C17.5937 0.953685 16.5726 0 14.1474 0C11.6547 0 10.7011 1.02105 10.7011 3.44632V5.46737H6.33263C2.82947 5.46737 0 8.29684 0 11.8V56.6674C0 60.1705 2.82947 63 6.33263 63H47.7642C51.2674 63 54.0968 60.1705 54.0968 56.6674V11.8C54.0968 8.29684 51.2674 5.46737 47.7642 5.46737ZM1.62737 50.0758C2.62737 51.5 3.91789 52.2884 5.33263 52.2884H48.7642C50.1116 52.2884 51.1274 51.5 52.4021 50.1432V51.3453C52.4021 53.3663 50.7853 55.9832 48.7642 55.9832H5.33263C3.31158 55.9832 1.62737 53.3663 1.62737 51.3453V50.0758ZM52.4021 45.8884C52.4021 47.9095 50.7853 50.5263 48.7642 50.5263H5.33263C3.31158 50.5263 1.62737 47.9095 1.62737 45.8884V17.7958H52.4021V45.8884ZM38.1305 3.44632C38.1305 2.43579 38.9389 1.69474 39.8821 1.69474C40.8253 1.69474 41.6337 2.50316 41.6337 3.44632V6.62316C41.6337 7.63368 40.8253 8.37474 39.8821 8.37474C38.9389 8.37474 38.1305 7.56632 38.1305 6.62316V3.44632ZM12.3958 3.44632C12.3958 2.43579 13.2042 1.69474 14.1474 1.69474C15.0905 1.69474 15.8989 2.50316 15.8989 3.44632V6.62316C15.8989 7.63368 15.0905 8.37474 14.1474 8.37474C13.2042 8.37474 12.3958 7.56632 12.3958 6.62316V3.44632ZM5.33263 7.16211H10.7684C11.0379 9.38526 11.9242 10.1368 14.2147 10.1368C16.5053 10.1368 17.3916 9.38526 17.6611 7.16211H36.5705C36.84 9.38526 37.7263 10.1368 40.0168 10.1368C42.3074 10.1368 43.1937 9.38526 43.4632 7.16211H48.8989C50.92 7.16211 52.5368 9.77895 52.5368 11.8V16.1011H1.62737V11.8C1.62737 9.77895 3.24421 7.16211 5.33263 7.16211ZM48.7642 61.3053H6.33263C4.31158 61.3053 1.62737 58.6884 1.62737 56.6674V55.4653C2.62737 57.6779 4.91789 57.6779 6.33263 57.6779H48.7642C50.1116 57.6779 51.1274 57.5 52.4021 55.5326V56.7347C52.4021 58.6884 50.7853 61.3053 48.7642 61.3053Z" fill=""/>
  <path d="M10.7159 34.7325H10.918C12.0632 34.7325 13.0064 33.7893 13.0064 32.644V32.4419C13.0064 31.2967 12.0632 30.3535 10.918 30.3535H10.7159C9.5706 30.3535 8.62744 31.2967 8.62744 32.4419V32.644C8.62744 33.8567 9.5706 34.7325 10.7159 34.7325Z" fill=""/>
  <path d="M19.0694 34.7325H19.2715C20.4167 34.7325 21.3599 33.7893 21.3599 32.644V32.4419C21.3599 31.2967 20.4167 30.3535 19.2715 30.3535H19.0694C17.9241 30.3535 16.981 31.2967 16.981 32.4419V32.644C16.981 33.8567 17.9241 34.7325 19.0694 34.7325Z" fill=""/>
  <path d="M27.4234 34.7325H27.6255C28.7708 34.7325 29.7139 33.7893 29.7139 32.644V32.4419C29.7139 31.2967 28.7708 30.3535 27.6255 30.3535H27.4234C26.2781 30.3535 25.335 31.2967 25.335 32.4419V32.644C25.335 33.8567 26.2781 34.7325 27.4234 34.7325Z" fill=""/>
  <path d="M10.7159 26.3789H10.918C12.0632 26.3789 13.0064 25.4358 13.0064 24.2905V24.0884C13.0064 22.9432 12.0632 22 10.918 22H10.7159C9.5706 22 8.62744 22.9432 8.62744 24.0884V24.2905C8.62744 25.4358 9.5706 26.3789 10.7159 26.3789Z" fill=""/>
  <path d="M19.0694 26.3789H19.2715C20.4167 26.3789 21.3599 25.4358 21.3599 24.2905V24.0884C21.3599 22.9432 20.4167 22 19.2715 22H19.0694C17.9241 22 16.981 22.9432 16.981 24.0884V24.2905C16.981 25.4358 17.9241 26.3789 19.0694 26.3789Z" fill=""/>
  <path d="M27.4234 26.3789H27.6255C28.7708 26.3789 29.7139 25.4358 29.7139 24.2905V24.0884C29.7139 22.9432 28.7708 22 27.6255 22H27.4234C26.2781 22 25.335 22.9432 25.335 24.0884V24.2905C25.335 25.4358 26.2781 26.3789 27.4234 26.3789Z" fill=""/>
  <path d="M35.7774 34.7325H35.9795C37.1248 34.7325 38.0679 33.7893 38.0679 32.644V32.4419C38.0679 31.2967 37.1248 30.3535 35.9795 30.3535H35.7774C34.6321 30.3535 33.689 31.2967 33.689 32.4419V32.644C33.689 33.8567 34.6321 34.7325 35.7774 34.7325Z" fill=""/>
  <path d="M44.1309 34.7325H44.333C45.4783 34.7325 46.4214 33.7893 46.4214 32.644V32.4419C46.4214 31.2967 45.4783 30.3535 44.333 30.3535H44.1309C42.9856 30.3535 42.0425 31.2967 42.0425 32.4419V32.644C42.0425 33.8567 42.9856 34.7325 44.1309 34.7325Z" fill=""/>
  <path d="M35.7774 26.3789H35.9795C37.1248 26.3789 38.0679 25.4358 38.0679 24.2905V24.0884C38.0679 22.9432 37.1248 22 35.9795 22H35.7774C34.6321 22 33.689 22.9432 33.689 24.0884V24.2905C33.689 25.4358 34.6321 26.3789 35.7774 26.3789Z" fill=""/>
  <path d="M44.1309 26.3789H44.333C45.4783 26.3789 46.4214 25.4358 46.4214 24.2905V24.0884C46.4214 22.9432 45.4783 22 44.333 22H44.1309C42.9856 22 42.0425 22.9432 42.0425 24.0884V24.2905C42.0425 25.4358 42.9856 26.3789 44.1309 26.3789Z" fill=""/>
  <path d="M10.7159 43.1534H10.918C12.0632 43.1534 13.0064 42.2102 13.0064 41.0649V40.8628C13.0064 39.7176 12.0632 38.7744 10.918 38.7744H10.7159C9.5706 38.7744 8.62744 39.7176 8.62744 40.8628V41.0649C8.62744 42.2102 9.5706 43.1534 10.7159 43.1534Z" fill=""/>
  <path d="M19.0694 43.1534H19.2715C20.4167 43.1534 21.3599 42.2102 21.3599 41.0649V40.8628C21.3599 39.7176 20.4167 38.7744 19.2715 38.7744H19.0694C17.9241 38.7744 16.981 39.7176 16.981 40.8628V41.0649C16.981 42.2102 17.9241 43.1534 19.0694 43.1534Z" fill=""/>
  <path d="M27.4234 43.1534H27.6255C28.7708 43.1534 29.7139 42.2102 29.7139 41.0649V40.8628C29.7139 39.7176 28.7708 38.7744 27.6255 38.7744H27.4234C26.2781 38.7744 25.335 39.7176 25.335 40.8628V41.0649C25.335 42.2102 26.2781 43.1534 27.4234 43.1534Z" fill=""/>
  <path d="M35.7774 43.1534H35.9795C37.1248 43.1534 38.0679 42.2102 38.0679 41.0649V40.8628C38.0679 39.7176 37.1248 38.7744 35.9795 38.7744H35.7774C34.6321 38.7744 33.689 39.7176 33.689 40.8628V41.0649C33.689 42.2102 34.6321 43.1534 35.7774 43.1534Z" fill=""/>
  <path d="M44.1309 43.1534H44.333C45.4783 43.1534 46.4214 42.2102 46.4214 41.0649V40.8628C46.4214 39.7176 45.4783 38.7744 44.333 38.7744H44.1309C42.9856 38.7744 42.0425 39.7176 42.0425 40.8628V41.0649C42.0425 42.2102 42.9856 43.1534 44.1309 43.1534Z" fill=""/>
</svg>
