<?xml version="1.0"?>
<svg xmlns="http://www.w3.org/2000/svg" viewBox="0 0 36 36" fill="none">
  <path d="M12.69 32.75C10.8228 32.7492 8.99769 32.1952 7.44505 31.158C5.89241 30.1208 4.68183 28.6469 3.9661 26.9223C3.25038 25.1977 3.0616 23.2998 3.42358 21.468C3.78556 19.6362 4.68209 17.9527 6 16.63L9.25 13.4L12.08 16.23L8.84 19.46C7.81892 20.4811 7.24528 21.866 7.24528 23.31C7.24528 24.025 7.38611 24.733 7.65974 25.3936C7.93336 26.0542 8.33441 26.6544 8.84 27.16C9.34559 27.6656 9.94581 28.0667 10.6064 28.3403C11.267 28.6139 11.975 28.7547 12.69 28.7547C14.134 28.7547 15.5189 28.1811 16.54 27.16L19.78 23.92L22.6 26.75L19.37 30C18.4926 30.8758 17.4508 31.5696 16.3044 32.0416C15.158 32.5135 13.9297 32.7542 12.69 32.75ZM30 19.37C31.773 17.597 32.769 15.1924 32.769 12.685C32.769 10.1776 31.773 7.77298 30 6.00001C28.227 4.22703 25.8224 3.23099 23.315 3.23099C20.8076 3.23099 18.403 4.22703 16.63 6.00001L13.4 9.25001L16.23 12.08L19.46 8.84001C20.4811 7.81892 21.866 7.24528 23.31 7.24528C24.025 7.24528 24.733 7.38612 25.3936 7.65974C26.0542 7.93336 26.6544 8.33442 27.16 8.84001C27.6656 9.34559 28.0666 9.94582 28.3403 10.6064C28.6139 11.267 28.7547 11.975 28.7547 12.69C28.7547 13.405 28.6139 14.113 28.3403 14.7736C28.0666 15.4342 27.6656 16.0344 27.16 16.54L23.92 19.77L26.75 22.6L30 19.37ZM23.76 15.08L20.93 12.25L11.93 21.25L14.76 24.08L23.76 15.08Z" fill="currentColor"/>
</svg>
