<?xml version="1.0"?>
<svg xmlns="http://www.w3.org/2000/svg" viewBox="0 0 1920 1080" fill="none">
  <path fill="#1A9FFF" d="M792.121 172.879C790.95 171.707 789.05 171.707 787.879 172.879L768.787 191.971C767.615 193.142 767.615 195.042 768.787 196.213C769.958 197.385 771.858 197.385 773.029 196.213L790 179.243L806.971 196.213C808.142 197.385 810.042 197.385 811.213 196.213C812.385 195.042 812.385 193.142 811.213 191.971L792.121 172.879ZM790 291L793 291L793 175L790 175L787 175L787 291L790 291Z"/>
  <path fill="#1A9FFF" d="M888.621 172.879C887.45 171.707 885.55 171.707 884.379 172.879L865.287 191.971C864.115 193.142 864.115 195.042 865.287 196.213C866.458 197.385 868.358 197.385 869.529 196.213L886.5 179.243L903.471 196.213C904.642 197.385 906.542 197.385 907.713 196.213C908.885 195.042 908.885 193.142 907.713 191.971L888.621 172.879ZM886.5 291L889.5 291L889.5 175L886.5 175L883.5 175L883.5 291L886.5 291Z"/>
  <path fill="currentColor" d="M1193 151H728V0H1193V151ZM1155 87C1143.95 87 1135 95.9543 1135 107C1135 118.046 1143.95 127 1155 127C1166.05 127 1175 118.046 1175 107C1175 95.9543 1166.05 87 1155 87ZM771 117H821V97H771V117ZM852 117H902V97H852V117Z"/>
  <rect fill="currentColor" x="1329" y="664" width="24.2764" height="35.947"/>
  <path fill="currentColor" d="M1152.79 664H480.654C469.259 664 460 673.279 460 684.699V887.002C460 898.422 469.259 907.701 480.654 907.701H1152.79C1164.18 907.701 1173.44 898.422 1173.44 887.002V684.699C1173.44 673.279 1164.21 664 1152.79 664ZM786.691 693.078C786.691 689.912 789.261 687.337 792.42 687.337H812.392C815.55 687.337 818.12 689.912 818.12 693.078V713.093C818.12 716.259 815.55 718.834 812.392 718.834L792.42 718.803C789.262 718.803 786.691 716.228 786.691 713.062V693.078ZM786.691 734.444C786.691 731.279 789.261 728.703 792.42 728.703H812.392C815.55 728.703 818.12 731.278 818.12 734.444V754.46C818.12 757.625 815.55 760.201 812.392 760.201L792.42 760.17C789.262 760.17 786.691 757.594 786.691 754.429V734.444ZM797.436 775.841V795.857C797.436 799.022 794.866 801.598 791.708 801.598H771.736C768.578 801.598 766.008 799.022 766.008 795.857L766.039 775.841C766.039 772.676 768.609 770.1 771.767 770.1H791.739C794.897 770.1 797.436 772.676 797.436 775.841ZM743.341 693.074C743.341 689.909 745.911 687.333 749.07 687.333H769.041C772.2 687.333 774.77 689.909 774.77 693.074V713.09C774.77 716.255 772.2 718.831 769.041 718.831H749.07C745.911 718.831 743.341 716.255 743.341 713.09V693.074ZM743.341 734.44C743.341 731.275 745.911 728.699 749.07 728.699H769.041C772.2 728.699 774.77 731.275 774.77 734.44V754.456C774.77 757.622 772.2 760.197 769.041 760.197H749.07C745.911 760.197 743.341 757.622 743.341 754.456V734.44ZM569.907 817.207C569.907 814.042 572.477 811.466 575.636 811.466H595.607C598.766 811.466 601.336 814.042 601.336 817.207V837.223C601.336 840.388 598.766 842.964 595.607 842.964L575.636 842.933C572.477 842.933 569.907 840.357 569.907 837.192V817.207ZM554.982 801.567C551.824 801.567 549.254 798.991 549.254 795.826L549.285 775.84C549.285 772.675 551.855 770.099 555.013 770.099H574.985C578.143 770.099 580.713 772.675 580.713 775.84V795.856C580.713 799.022 578.143 801.597 574.985 801.597L554.982 801.567ZM598.332 801.567C595.174 801.567 592.604 798.991 592.604 795.826L592.635 775.84C592.635 772.675 595.205 770.099 598.363 770.099H618.335C621.494 770.099 624.064 772.675 624.064 775.84V795.856C624.064 799.022 621.494 801.597 618.335 801.597L598.332 801.567ZM613.288 817.207C613.288 814.042 615.858 811.466 619.017 811.466H638.989C642.147 811.466 644.717 814.042 644.717 817.207V837.223C644.717 840.388 642.147 842.964 638.989 842.964H619.017C615.859 842.964 613.288 840.388 613.288 837.223V817.207ZM641.714 801.567C638.555 801.567 635.985 798.991 635.985 795.826V775.84C635.985 772.675 638.555 770.099 641.714 770.099H661.686C664.844 770.099 667.414 772.675 667.414 775.84V795.856C667.414 799.022 664.844 801.597 661.686 801.597L641.714 801.567ZM656.639 817.207C656.639 814.042 659.209 811.466 662.367 811.466H682.339C685.497 811.466 688.067 814.042 688.067 817.207V837.223C688.067 840.388 685.497 842.964 682.339 842.964H662.367C659.209 842.964 656.639 840.388 656.639 837.223V817.207ZM685.064 801.567C681.906 801.567 679.335 798.991 679.335 795.826V775.84C679.335 772.675 681.905 770.099 685.064 770.099H705.036C708.194 770.099 710.764 772.675 710.764 775.84V795.856C710.764 799.022 708.194 801.597 705.036 801.597L685.064 801.567ZM699.989 817.207C699.989 814.042 702.559 811.466 705.717 811.466H725.689C728.848 811.466 731.418 814.042 731.418 817.207V837.223C731.418 840.388 728.848 842.964 725.689 842.964H705.717C702.559 842.964 699.989 840.388 699.989 837.223V817.207ZM728.414 801.567C725.256 801.567 722.686 798.991 722.686 795.826V775.84C722.686 772.675 725.256 770.099 728.414 770.099H748.386C751.544 770.099 754.114 772.675 754.114 775.84V795.856C754.114 799.022 751.544 801.597 748.386 801.597L728.414 801.567ZM699.989 693.08C699.989 689.915 702.559 687.339 705.717 687.339H725.689C728.848 687.339 731.418 689.915 731.418 693.08V713.096C731.418 716.261 728.848 718.837 725.689 718.837H705.717C702.559 718.837 699.989 716.261 699.989 713.096V693.08ZM699.989 734.446C699.989 731.281 702.559 728.705 705.717 728.705H725.689C728.848 728.705 731.418 731.281 731.418 734.446V754.462C731.418 757.627 728.848 760.203 725.689 760.203H705.717C702.559 760.203 699.989 757.628 699.989 754.462V734.446ZM656.639 693.08C656.639 689.915 659.209 687.339 662.367 687.339H682.339C685.497 687.339 688.067 689.915 688.067 693.08V713.096C688.067 716.261 685.497 718.837 682.339 718.837H662.367C659.209 718.837 656.639 716.261 656.639 713.096V693.08ZM656.639 734.446C656.639 731.281 659.209 728.705 662.367 728.705H682.339C685.497 728.705 688.067 731.281 688.067 734.446V754.462C688.067 757.627 685.497 760.203 682.339 760.203H662.367C659.209 760.203 656.639 757.628 656.639 754.462V734.446ZM613.288 693.08C613.288 689.915 615.858 687.339 619.017 687.339H638.989C642.147 687.339 644.717 689.915 644.717 693.08V713.096C644.717 716.261 642.147 718.837 638.989 718.837H619.017C615.859 718.837 613.288 716.261 613.288 713.096V693.08ZM613.288 734.446C613.288 731.281 615.858 728.705 619.017 728.705H638.989C642.147 728.705 644.717 731.281 644.717 734.446V754.462C644.717 757.627 642.147 760.203 638.989 760.203H619.017C615.859 760.203 613.288 757.628 613.288 754.462V734.446ZM569.907 693.08C569.907 689.915 572.477 687.339 575.636 687.339H595.607C598.766 687.339 601.336 689.915 601.336 693.08V713.096C601.336 716.261 598.766 718.837 595.607 718.837L575.636 718.806C572.477 718.806 569.907 716.23 569.907 713.065V693.08ZM569.907 734.446C569.907 731.281 572.477 728.705 575.636 728.705H595.607C598.766 728.705 601.336 731.281 601.336 734.446V754.462C601.336 757.627 598.766 760.203 595.607 760.203L575.636 760.172C572.477 760.172 569.907 757.597 569.907 754.431V734.446ZM526.557 693.08C526.557 689.915 529.127 687.339 532.285 687.339H552.227C555.385 687.339 557.955 689.915 557.955 693.08V713.096C557.955 716.261 555.385 718.837 552.227 718.837H532.255C529.097 718.837 526.527 716.261 526.527 713.096L526.557 693.08ZM526.557 734.446C526.557 731.281 529.127 728.705 532.285 728.705L552.227 728.736C555.385 728.736 557.955 731.312 557.955 734.477V754.493C557.955 757.659 555.385 760.234 552.227 760.234H532.255C529.097 760.234 526.527 757.659 526.527 754.493L526.557 734.446ZM483.207 693.08C483.207 689.915 485.777 687.339 488.935 687.339H508.907C512.065 687.339 514.635 689.915 514.635 693.08V713.096C514.635 716.261 512.065 718.837 508.907 718.837L488.935 718.806C485.777 718.806 483.207 716.23 483.207 713.065V693.08ZM483.207 734.446C483.207 731.281 485.777 728.705 488.935 728.705H508.907C512.065 728.705 514.635 731.281 514.635 734.446V754.462C514.635 757.627 512.065 760.203 508.907 760.203L488.935 760.172C485.777 760.172 483.207 757.597 483.207 754.431V734.446ZM483.207 775.844C483.207 772.678 485.777 770.103 488.935 770.103H531.604C534.763 770.103 537.333 772.678 537.333 775.844V795.859C537.333 799.025 534.763 801.601 531.604 801.601L488.935 801.57C485.777 801.57 483.207 798.994 483.207 795.828V775.844ZM514.604 878.597C514.604 881.762 512.034 884.338 508.876 884.338H488.935C485.776 884.338 483.206 881.763 483.206 878.597V858.581C483.206 855.416 485.776 852.84 488.935 852.84H508.906C512.065 852.84 514.635 855.416 514.635 858.581L514.604 878.597ZM557.955 878.597C557.955 881.762 555.385 884.338 552.226 884.338H532.254C529.096 884.338 526.526 881.763 526.526 878.597V858.581C526.526 855.416 529.096 852.84 532.254 852.84L552.226 852.871C555.385 852.871 557.955 855.447 557.955 858.612V878.597ZM557.955 837.231C557.955 840.396 555.385 842.972 552.226 842.972L488.935 842.941C485.777 842.941 483.207 840.365 483.207 837.2V817.184C483.207 814.019 485.777 811.443 488.935 811.443L552.226 811.505C555.385 811.505 557.955 814.081 557.955 817.246V837.231ZM774.742 878.597C774.742 881.762 772.172 884.338 769.014 884.338H575.637C572.479 884.338 569.909 881.763 569.909 878.597V858.581C569.909 855.416 572.479 852.84 575.637 852.84H769.014C772.172 852.84 774.742 855.416 774.742 858.581V878.597ZM774.742 837.231C774.742 840.396 772.172 842.972 769.014 842.972H749.042C745.884 842.972 743.314 840.396 743.314 837.231V817.215C743.314 814.05 745.884 811.474 749.042 811.474H769.014C772.172 811.474 774.742 814.05 774.742 817.215V837.231ZM818.092 878.597C818.092 881.762 815.522 884.338 812.364 884.338H792.423C789.264 884.338 786.694 881.763 786.694 878.597V858.581C786.694 855.416 789.264 852.84 792.423 852.84H812.394C815.553 852.84 818.123 855.416 818.123 858.581L818.092 878.597ZM861.443 878.597C861.443 881.762 858.873 884.338 855.714 884.338H835.742C832.584 884.338 830.014 881.763 830.014 878.597V858.581C830.014 855.416 832.584 852.84 835.742 852.84H855.714C858.873 852.84 861.443 855.416 861.443 858.581V878.597ZM861.443 837.231C861.443 840.396 858.873 842.972 855.714 842.972L792.423 842.941C789.265 842.941 786.695 840.365 786.695 837.2V817.184C786.695 814.019 789.265 811.443 792.423 811.443H855.745C858.904 811.443 861.474 814.019 861.474 817.184L861.443 837.231ZM861.443 795.834C861.443 798.999 858.873 801.575 855.714 801.575H815.12C811.962 801.575 809.392 798.999 809.392 795.834L809.423 775.848C809.423 772.683 811.993 770.107 815.151 770.107H855.745C858.904 770.107 861.474 772.683 861.474 775.848L861.443 795.834ZM861.443 754.467C861.443 757.633 858.873 760.209 855.714 760.209H835.742C832.584 760.209 830.014 757.633 830.014 754.467V734.452C830.014 731.286 832.584 728.711 835.742 728.711H855.714C858.873 728.711 861.443 731.286 861.443 734.452V754.467ZM861.443 713.07C861.443 716.235 858.873 718.811 855.714 718.811H835.742C832.584 718.811 830.014 716.236 830.014 713.07V693.054C830.014 689.889 832.584 687.313 835.742 687.313H855.714C858.873 687.313 861.443 689.889 861.443 693.054V713.07ZM919.254 878.597C919.254 881.762 916.684 884.338 913.525 884.338H893.553C890.395 884.338 887.825 881.763 887.825 878.597V858.581C887.825 855.416 890.395 852.84 893.553 852.84H913.525C916.684 852.84 919.254 855.416 919.254 858.581V878.597ZM919.254 754.467C919.254 757.632 916.684 760.208 913.525 760.208H893.553C890.395 760.208 887.825 757.632 887.825 754.467V734.451C887.825 731.286 890.395 728.71 893.553 728.71H913.525C916.684 728.71 919.254 731.286 919.254 734.451V754.467ZM919.254 713.07C919.254 716.235 916.684 718.811 913.525 718.811H893.553C890.395 718.811 887.825 716.235 887.825 713.07V693.054C887.825 689.888 890.395 687.313 893.553 687.313H913.525C916.684 687.313 919.254 689.888 919.254 693.054V713.07ZM962.604 878.597C962.604 881.762 960.034 884.338 956.875 884.338H936.904C933.745 884.338 931.175 881.762 931.175 878.597V858.581C931.175 855.415 933.745 852.84 936.904 852.84H956.875C960.034 852.84 962.604 855.415 962.604 858.581V878.597ZM962.604 837.23C962.604 840.396 960.034 842.971 956.875 842.971H936.904C933.745 842.971 931.175 840.396 931.175 837.23V817.215C931.175 814.049 933.745 811.473 936.904 811.473H956.875C960.034 811.473 962.604 814.049 962.604 817.215V837.23ZM962.604 754.464C962.604 757.629 960.034 760.205 956.875 760.205H936.904C933.745 760.205 931.175 757.629 931.175 754.464V734.448C931.175 731.282 933.745 728.707 936.904 728.707H956.875C960.034 728.707 962.604 731.282 962.604 734.448V754.464ZM962.604 713.066C962.604 716.232 960.034 718.807 956.875 718.807H936.904C933.745 718.807 931.175 716.232 931.175 713.066V693.05C931.175 689.885 933.745 687.309 936.904 687.309H956.875C960.034 687.309 962.604 689.885 962.604 693.05V713.066ZM1005.95 878.593C1005.95 881.758 1003.38 884.334 1000.23 884.334H980.254C977.096 884.334 974.525 881.759 974.525 878.593V858.577C974.525 855.412 977.095 852.836 980.254 852.836H1000.23C1003.38 852.836 1005.95 855.412 1005.95 858.577V878.593ZM1005.95 754.463C1005.95 757.628 1003.38 760.204 1000.23 760.204H980.254C977.096 760.204 974.525 757.628 974.525 754.463V734.447C974.525 731.282 977.095 728.706 980.254 728.706H1000.23C1003.38 728.706 1005.95 731.282 1005.95 734.447V754.463ZM1005.95 713.066C1005.95 716.231 1003.38 718.807 1000.23 718.807H980.254C977.096 718.807 974.525 716.231 974.525 713.066V693.05C974.525 689.885 977.095 687.309 980.254 687.309H1000.23C1003.38 687.309 1005.95 689.884 1005.95 693.05V713.066ZM1063.77 878.593C1063.77 881.758 1061.19 884.334 1058.04 884.334H1038.06C1034.91 884.334 1032.34 881.758 1032.34 878.593V858.577C1032.34 855.411 1034.91 852.836 1038.06 852.836H1058.04C1061.19 852.836 1063.77 855.411 1063.77 858.577V878.593ZM1063.77 837.226C1063.77 840.392 1061.19 842.967 1058.04 842.967H1038.06C1034.91 842.967 1032.34 840.392 1032.34 837.226V817.211C1032.34 814.045 1034.91 811.47 1038.06 811.47H1058.04C1061.19 811.47 1063.77 814.045 1063.77 817.211V837.226ZM1063.77 795.829C1063.77 798.994 1061.19 801.57 1058.04 801.57H1038.06C1034.91 801.57 1032.34 798.994 1032.34 795.829L1032.4 775.844C1032.4 772.678 1034.97 770.103 1038.13 770.103H1058.1C1061.26 770.103 1063.83 772.678 1063.83 775.844L1063.77 795.829ZM1063.77 754.463C1063.77 757.628 1061.19 760.204 1058.04 760.204H1038.06C1034.91 760.204 1032.34 757.628 1032.34 754.463V734.447C1032.34 731.282 1034.91 728.706 1038.06 728.706H1058.04C1061.19 728.706 1063.77 731.282 1063.77 734.447V754.463ZM1063.77 713.066C1063.77 716.231 1061.19 718.807 1058.04 718.807H1038.06C1034.91 718.807 1032.34 716.231 1032.34 713.066V693.05C1032.34 689.885 1034.91 687.309 1038.06 687.309H1058.04C1061.19 687.309 1063.77 689.884 1063.77 693.05V713.066ZM1107.15 878.593C1107.15 881.758 1104.58 884.334 1101.42 884.334H1081.45C1078.29 884.334 1075.72 881.758 1075.72 878.593V858.577C1075.72 855.411 1078.29 852.836 1081.45 852.836H1101.42C1104.58 852.836 1107.15 855.411 1107.15 858.577V878.593ZM1107.15 837.226C1107.15 840.392 1104.58 842.967 1101.42 842.967H1081.45C1078.29 842.967 1075.72 840.392 1075.72 837.226V817.211C1075.72 814.045 1078.29 811.47 1081.45 811.47H1101.42C1104.58 811.47 1107.15 814.045 1107.15 817.211V837.226ZM1107.15 795.829C1107.15 798.994 1104.58 801.57 1101.42 801.57H1081.45C1078.29 801.57 1075.72 798.994 1075.72 795.829L1075.75 775.844C1075.75 772.678 1078.32 770.103 1081.48 770.103H1101.45C1104.61 770.103 1107.18 772.678 1107.18 775.844L1107.15 795.829ZM1107.15 754.463C1107.15 757.628 1104.58 760.204 1101.42 760.204H1081.45C1078.29 760.204 1075.72 757.628 1075.72 754.463V734.447C1075.72 731.282 1078.29 728.706 1081.45 728.706H1101.42C1104.58 728.706 1107.15 731.282 1107.15 734.447V754.463ZM1107.15 713.066C1107.15 716.231 1104.58 718.807 1101.42 718.807H1081.45C1078.29 718.807 1075.72 716.231 1075.72 713.066V693.05C1075.72 689.885 1078.29 687.309 1081.45 687.309H1101.42C1104.58 687.309 1107.15 689.884 1107.15 693.05V713.066ZM1150.5 878.593C1150.5 881.758 1147.93 884.334 1144.77 884.334H1124.8C1121.64 884.334 1119.07 881.758 1119.07 878.593V858.577C1119.07 855.411 1121.64 852.836 1124.8 852.836H1144.77C1147.93 852.836 1150.5 855.411 1150.5 858.577V878.593ZM1150.5 837.226C1150.5 840.392 1147.93 842.967 1144.77 842.967H1124.8C1121.64 842.967 1119.07 840.392 1119.07 837.226V817.211C1119.07 814.045 1121.64 811.47 1124.8 811.47H1144.77C1147.93 811.47 1150.5 814.045 1150.5 817.211V837.226ZM1150.5 795.829C1150.5 798.994 1147.93 801.57 1144.77 801.57H1124.8C1121.64 801.57 1119.07 798.994 1119.07 795.829L1119.1 775.844C1119.1 772.678 1121.67 770.103 1124.83 770.103H1144.8C1147.96 770.103 1150.53 772.678 1150.53 775.844L1150.5 795.829ZM1150.5 754.463C1150.5 757.628 1147.93 760.204 1144.77 760.204H1124.8C1121.64 760.204 1119.07 757.628 1119.07 754.463V734.447C1119.07 731.282 1121.64 728.706 1124.8 728.706H1144.77C1147.93 728.706 1150.5 731.282 1150.5 734.447V754.463ZM1150.5 713.066C1150.5 716.231 1147.93 718.807 1144.77 718.807H1124.8C1121.64 718.807 1119.07 716.231 1119.07 713.066V693.05C1119.07 689.885 1121.64 687.309 1124.8 687.309H1144.77C1147.93 687.309 1150.5 689.884 1150.5 693.05V713.066Z"/>
  <path fill="currentColor" d="M1314.46 708.462C1292.51 708.462 1274.72 726.252 1274.72 748.196V840.908C1274.72 877.482 1304.37 907.131 1340.95 907.131C1377.52 907.131 1407.17 877.482 1407.17 840.908V748.196C1407.17 726.252 1389.38 708.462 1367.43 708.462H1360.81V781.308C1360.81 792.28 1351.92 801.175 1340.95 801.175C1329.97 801.175 1321.08 792.28 1321.08 781.308V708.462H1314.46Z"/>
  <path fill="currentColor" d="M1334.32 721.707H1347.57V761.441H1334.32V721.707Z"/>
  <rect fill="currentColor" x="866.276" y="644.644" width="24.2764" height="19.3562"/>
  <rect fill="currentColor" x="771" y="344.468" width="44.2764" height="35.2027"/>
  <rect stroke="currentColor" x="779.776" y="322.5" width="28" height="49.3528" stroke-width="3"/>
  <path stroke="currentColor" d="M793.277 348.981C793.277 348.981 793.276 442.123 793.276 489.741C793.276 516.871 809.659 536.999 839.276 544.162C884.276 555.046 878.119 576.897 878.119 653.405" stroke-width="6.06911"/>
  <rect fill="currentColor" x="867" y="346.293" width="44.2764" height="37.9402"/>
  <rect stroke="currentColor" x="875.776" y="322.5" width="28" height="53.4239" stroke-width="3"/>
  <path stroke="currentColor" d="M889.001 351.158C889.001 351.158 889 427.803 889 479.084C889 537.692 978.814 552.046 1135.58 552.046C1299.83 552.046 1340.5 590.959 1340.5 679" stroke-width="6.06911"/>
</svg>
