<?xml version="1.0"?>
<svg width="36" height="36" viewBox="0 0 36 36" fill="none" xmlns="http://www.w3.org/2000/svg">
  <path fill-rule="evenodd" clip-rule="evenodd" d="M2 6V27H12L18 34L24 27H34V6H2ZM9.5 19C9.00555 19 8.5222 18.8534 8.11107 18.5787C7.69995 18.304 7.37952 17.9135 7.1903 17.4567C7.00108 16.9999 6.95157 16.4972 7.04804 16.0123C7.1445 15.5273 7.3826 15.0819 7.73223 14.7322C8.08186 14.3826 8.52732 14.1445 9.01227 14.048C9.49723 13.9516 9.99989 14.0011 10.4567 14.1903C10.9135 14.3795 11.304 14.7 11.5787 15.1111C11.8534 15.5222 12 16.0055 12 16.5C12 16.8283 11.9353 17.1534 11.8097 17.4567C11.6841 17.76 11.4999 18.0356 11.2678 18.2678C11.0356 18.4999 10.76 18.6841 10.4567 18.8097C10.1534 18.9353 9.8283 19 9.5 19ZM18 19C17.5055 19 17.0222 18.8534 16.6111 18.5787C16.2 18.304 15.8795 17.9135 15.6903 17.4567C15.5011 16.9999 15.4516 16.4972 15.548 16.0123C15.6445 15.5273 15.8826 15.0819 16.2322 14.7322C16.5819 14.3826 17.0273 14.1445 17.5123 14.048C17.9972 13.9516 18.4999 14.0011 18.9567 14.1903C19.4135 14.3795 19.804 14.7 20.0787 15.1111C20.3534 15.5222 20.5 16.0055 20.5 16.5C20.5 16.8283 20.4353 17.1534 20.3097 17.4567C20.1841 17.76 19.9999 18.0356 19.7678 18.2678C19.5356 18.4999 19.26 18.6841 18.9567 18.8097C18.6534 18.9353 18.3283 19 18 19ZM26.5 19C26.0055 19 25.5222 18.8534 25.1111 18.5787C24.7 18.304 24.3795 17.9135 24.1903 17.4567C24.0011 16.9999 23.9516 16.4972 24.048 16.0123C24.1445 15.5273 24.3826 15.0819 24.7322 14.7322C25.0819 14.3826 25.5273 14.1445 26.0123 14.048C26.4972 13.9516 26.9999 14.0011 27.4567 14.1903C27.9135 14.3795 28.304 14.7 28.5787 15.1111C28.8534 15.5222 29 16.0055 29 16.5C29 17.163 28.7366 17.7989 28.2678 18.2678C27.7989 18.7366 27.163 19 26.5 19Z" fill="currentColor"/>
</svg>
