<?xml version="1.0"?>
<svg width="24" height="25" viewBox="0 0 24 25" fill="none" xmlns="http://www.w3.org/2000/svg">
  <path d="M13.0005 6.82256C14.5858 7.12326 15.9228 8.12519 16.6768 9.49351L21.7988 7.82927C21.5767 7.31623 21.3155 6.82406 21.019 6.35652C19.5814 4.09004 17.313 2.4025 14.6421 1.72227C14.1098 1.58668 13.5614 1.49112 13.0005 1.43896V6.82256Z" fill="#AAAAAA"/>
  <path d="M17.2948 11.3968C17.3221 11.6157 17.3362 11.8388 17.3362 12.0651C17.3362 13.4782 16.787 14.763 15.8904 15.7176L19.055 20.0733C19.4721 19.7056 19.8602 19.3058 20.2155 18.8778C21.7499 17.0295 22.6724 14.655 22.6724 12.0651C22.6724 11.8359 22.6652 11.6083 22.651 11.3826C22.6154 10.8196 22.5362 10.2685 22.4168 9.73254L17.2948 11.3968Z" fill="#AAAAAA"/>
  <path d="M17.437 21.2508C16.9612 21.533 16.4616 21.7793 15.9419 21.986C14.7224 22.471 13.3923 22.7376 12 22.7376C10.6076 22.7376 9.27752 22.471 8.05798 21.986C7.53832 21.7793 7.03873 21.533 6.56295 21.2508L9.72774 16.8948C10.4171 17.2197 11.1873 17.4014 12 17.4014C12.8126 17.4014 13.5828 17.2197 14.2722 16.8948L17.437 21.2508Z" fill="#AAAAAA"/>
  <path d="M8.10957 15.7176C7.21296 14.7629 6.66375 13.4782 6.66375 12.0651C6.66375 11.8388 6.67784 11.6157 6.70519 11.3968L1.58319 9.73256C1.4637 10.2685 1.38452 10.8196 1.34899 11.3826C1.33474 11.6083 1.32751 11.8359 1.32751 12.0651C1.32751 14.655 2.25003 17.0295 3.78439 18.8777C4.13971 19.3058 4.52785 19.7056 4.94494 20.0733L8.10957 15.7176Z" fill="#AAAAAA"/>
  <path d="M10.9994 1.43896C7.04366 1.80676 3.71437 4.3334 2.20111 7.82928L7.32311 9.49352C8.0771 8.12521 9.41413 7.12328 10.9994 6.82256V1.43896Z" fill="#EEEEEE"/>
</svg>
