<?xml version="1.0"?>
<svg width="49" height="53" viewBox="0 0 49 53" fill="none" xmlns="http://www.w3.org/2000/svg">
  <path d="M48.3765 33.45C47.1427 38.7688 44.1478 43.5146 39.8778 46.9174C35.6078 50.3201 30.3132 52.1801 24.8531 52.1956C23.0011 52.1943 21.1552 51.9821 19.3511 51.5633C14.4369 50.4243 10.0013 47.7787 6.66379 43.9961C3.32632 40.2135 1.25375 35.4829 0.735641 30.4651C0.708708 30.2012 0.787709 29.9374 0.955263 29.7318C1.12282 29.5261 1.3652 29.3955 1.62909 29.3685C1.89298 29.3416 2.15676 29.4206 2.36241 29.5882C2.56805 29.7557 2.69871 29.9981 2.72564 30.262C3.1115 34.01 4.44505 37.5981 6.60068 40.6883C8.75631 43.7786 11.6631 46.2693 15.0472 47.9258C18.4313 49.5824 22.1814 50.3503 25.9443 50.1571C29.7071 49.964 33.3589 48.8163 36.5556 46.822C39.0282 45.2791 41.1726 43.2644 42.8665 40.8927C44.5604 38.5211 45.7706 35.8391 46.428 32.9997C47.0854 30.1604 47.1771 27.2194 46.6978 24.3447C46.2186 21.4699 45.1779 18.7177 43.635 16.2451C42.0921 13.7726 40.0774 11.6282 37.7057 9.93425C35.3341 8.24035 32.6521 7.03016 29.8127 6.37279C24.0785 5.04515 18.0517 6.04982 13.0581 9.16578L8.53564 11.9879L17.0203 12.8514C17.2749 12.8779 17.5096 13.0011 17.6761 13.1955C17.8426 13.3899 17.9282 13.6407 17.9153 13.8964C17.9024 14.152 17.792 14.3929 17.6068 14.5696C17.4216 14.7463 17.1757 14.8452 16.9197 14.846C16.8855 14.8461 16.8512 14.8443 16.8171 14.8406L5.42564 13.6814C5.40474 13.6793 5.38834 13.6669 5.36784 13.6635C5.32663 13.6572 5.28587 13.6482 5.24584 13.6366C5.22414 13.6302 5.20214 13.6328 5.18054 13.6248C5.15644 13.6159 5.14054 13.5965 5.11764 13.586C5.03876 13.5541 4.96583 13.5091 4.90194 13.4529C4.86699 13.4246 4.83401 13.394 4.80324 13.3612C4.77384 13.3299 4.74658 13.2967 4.72164 13.2618C4.70914 13.2442 4.69014 13.2346 4.67864 13.2161C4.66714 13.1976 4.66684 13.1761 4.65664 13.1575C4.63643 13.12 4.6187 13.0812 4.60354 13.0414C4.57364 12.9592 4.55279 12.8741 4.54134 12.7874C4.53787 12.7449 4.5372 12.7022 4.53934 12.6597C4.53994 12.6343 4.52934 12.6114 4.53214 12.5857C4.53434 12.5636 4.54714 12.5457 4.55074 12.5245C4.55755 12.4833 4.56704 12.4426 4.57914 12.4026C4.58524 12.382 4.58124 12.3611 4.58914 12.3406L8.55334 1.59938C8.64516 1.35049 8.83209 1.14827 9.07301 1.0372C9.1923 0.982204 9.32125 0.951243 9.45251 0.946084C9.58377 0.940926 9.71475 0.96167 9.83799 1.00713C9.96123 1.0526 10.0743 1.12189 10.1708 1.21105C10.2672 1.30022 10.3452 1.40751 10.4002 1.5268C10.4552 1.64609 10.4861 1.77505 10.4913 1.9063C10.4964 2.03756 10.4757 2.16854 10.4302 2.29178L7.47744 10.2918L11.9995 7.46998C16.0588 4.93676 20.7781 3.66416 25.5607 3.81312C30.3433 3.96208 34.9742 5.52591 38.868 8.30684C42.7618 11.0878 45.7434 14.9609 47.436 19.4364C49.1285 23.912 49.4558 28.7889 48.3765 33.4505V33.45ZM14.7565 39.346L25.4126 28.6897C25.6002 28.5022 25.7056 28.2479 25.7056 27.9827V17.0784C25.7056 16.8132 25.6003 16.5588 25.4127 16.3713C25.2252 16.1837 24.9709 16.0784 24.7056 16.0784C24.4404 16.0784 24.1861 16.1837 23.9985 16.3713C23.811 16.5588 23.7056 16.8132 23.7056 17.0784V27.5684L13.3423 37.9319C13.2475 38.0243 13.1721 38.1346 13.1202 38.2565C13.0684 38.3783 13.0413 38.5092 13.0404 38.6416C13.0396 38.7739 13.0651 38.9052 13.1153 39.0276C13.1656 39.1501 13.2397 39.2614 13.3333 39.355C13.4269 39.4486 13.5382 39.5227 13.6607 39.573C13.7831 39.6233 13.9144 39.6487 14.0468 39.6479C14.1792 39.647 14.3101 39.6199 14.4319 39.5681C14.5537 39.5163 14.664 39.4408 14.7564 39.346H14.7565Z" fill=""/>
</svg>
