<?xml version="1.0"?>
<svg width="29" height="26" viewBox="0 0 29 26" fill="none" xmlns="http://www.w3.org/2000/svg">
  <path d="M18.6753 0C13.7187 0 9.58825 3.59513 8.90967 8.25443C9.11619 8.22567 9.32272 8.19691 9.55875 8.19691C11.1224 8.19691 12.5681 9.00221 13.3647 10.2965L18.7934 19.1836C24.163 19.0974 28.5 14.8407 28.5 9.57744C28.5295 4.31416 24.104 0 18.6753 0ZM22.7468 10.6704H18.6753C18.0558 10.6704 17.5837 10.1814 17.5837 9.6062V4.63053C17.5837 4.02655 18.0853 3.56637 18.6753 3.56637C19.2949 3.56637 19.767 4.05531 19.767 4.63053V8.54204H22.7468C23.3664 8.54204 23.8385 9.03098 23.8385 9.6062C23.868 10.2102 23.3664 10.6704 22.7468 10.6704Z" fill="#E1E7EA"/>
  <path d="M11.3288 11.5332C10.5322 10.2389 8.58496 10.2389 7.78836 11.5332L0.796018 22.9801C-0.0300818 24.3031 0.973039 26 2.56623 26H16.5804C18.1736 26 19.1472 24.3031 18.3506 22.9801L11.3288 11.5332ZM9.47007 14.1217C10.1191 14.0642 10.6797 14.5243 10.7092 15.1571C10.7092 15.2146 10.7092 15.3009 10.7092 15.3584L10.3257 19.6438C10.2962 20.0465 9.91262 20.3628 9.49957 20.3341C9.11602 20.3053 8.82099 20.0177 8.79148 19.6438L8.40794 15.3584C8.34893 14.7257 8.82099 14.1792 9.47007 14.1217ZM9.55858 23.6704C8.87999 23.6704 8.31943 23.1239 8.31943 22.4624C8.31943 21.8009 8.87999 21.2544 9.55858 21.2544C10.2372 21.2544 10.7977 21.8009 10.7977 22.4624C10.7977 23.1239 10.2372 23.6704 9.55858 23.6704Z" fill="#E1E7EA"/>
</svg>
