<?xml version="1.0"?>
<svg xmlns="http://www.w3.org/2000/svg" viewBox="0 0 36 36" fill="none">
  <g clip-path="">
    <path fill="currentColor" fill-rule="evenodd" clip-rule="evenodd" d="M26.999 0C27.5514 3.09659e-06 27.999 0.44857 27.999 1.00195V35.041C27.999 35.5944 27.5514 36.043 26.999 36.043H9C8.44762 36.043 8 35.5944 8 35.041V1.00195C8 0.448568 8.44762 0 9 0H26.999ZM10 13H25.999V10.9961H10V13ZM10 7.03027V9.03418H25.999V7.03027H10ZM24.999 2.03613C24.4468 2.03618 23.9992 2.48392 23.999 3.03711C23.999 3.59047 24.4467 4.03902 24.999 4.03906C25.5514 4.03906 25.999 3.59049 25.999 3.03711C25.9988 2.48389 25.5513 2.03613 24.999 2.03613Z"/>
  </g>
  <defs>
    <clipPath id="">
      <rect fill="currentColor" width="36" height="36"/>
    </clipPath>
  </defs>
</svg>
