<?xml version="1.0"?>
<svg xmlns="http://www.w3.org/2000/svg" viewBox="0 0 32 36" fill="none">
  <g clip-path="">
    <path fill="currentColor" fill-rule="evenodd" clip-rule="evenodd" d="M18.0904 21.4571C17.2316 20.9724 16.1699 20.0924 15.1307 18.9194C14.0916 17.7463 13.312 16.5478 12.8827 15.5784C12.6663 15.0899 12.5568 14.6996 12.5278 14.424C12.5106 14.2602 12.5249 14.1806 12.5342 14.1495C12.5617 14.1391 12.6322 14.1229 12.7773 14.1423C13.0215 14.175 13.3672 14.2986 13.8 14.5429C13.8234 14.5561 13.8469 14.5695 13.8705 14.5833C14.2462 14.2031 14.6257 13.8484 15.0034 13.5238C14.8024 13.3876 14.6054 13.2649 14.4139 13.1568C13.9058 12.87 13.4004 12.6652 12.9389 12.6035C12.4871 12.543 11.9523 12.6078 11.5604 13.0502C11.1684 13.4927 11.1111 14.0964 11.1646 14.6064C11.2193 15.1273 11.4007 15.6978 11.6548 16.2714C12.1663 17.4263 13.0456 18.7571 14.16 20.0152C15.2745 21.2732 16.4534 22.2657 17.4765 22.8431C17.9846 23.1299 18.49 23.3348 18.9515 23.3965C19.4032 23.4569 19.9381 23.3921 20.33 22.9497C20.722 22.5073 20.7793 21.9035 20.7258 21.3936C20.6711 20.8726 20.4897 20.3021 20.2356 19.7285C20.1467 19.5279 20.0467 19.3219 19.9363 19.1119C19.6478 19.539 19.3327 19.968 18.9949 20.3927L19.0077 20.4216C19.2241 20.9101 19.3336 21.3004 19.3626 21.576C19.3798 21.7398 19.3655 21.8193 19.3562 21.8505C19.3287 21.8609 19.2582 21.877 19.1131 21.8576C18.8689 21.825 18.5232 21.7013 18.0904 21.4571ZM12.52 14.1565C12.5195 14.1568 12.52 14.1564 12.52 14.1565V14.1565Z"/>
    <path fill="currentColor" fill-rule="evenodd" clip-rule="evenodd" d="M13.8 21.4571C13.8877 21.4076 13.9776 21.3539 14.0694 21.2962C14.43 21.6745 14.7936 22.0336 15.1564 22.3705C14.9022 22.5496 14.6538 22.7078 14.4139 22.8431C13.9058 23.1299 13.4004 23.3348 12.9389 23.3965C12.4871 23.4569 11.9523 23.3922 11.5603 22.9497C11.1684 22.5073 11.111 21.9036 11.1646 21.3936C11.2193 20.8726 11.4007 20.3021 11.6548 19.7285C11.7697 19.4692 11.9031 19.201 12.0535 18.9268C12.358 19.3293 12.6807 19.7316 13.0192 20.1296C12.9703 20.229 12.9248 20.3264 12.8826 20.4216C12.6663 20.9101 12.5567 21.3004 12.5278 21.576C12.5106 21.7398 12.5249 21.8194 12.5342 21.8505C12.5617 21.8609 12.6322 21.8771 12.7773 21.8576C13.0214 21.825 13.3672 21.7013 13.8 21.4571ZM12.5393 21.8647C12.5402 21.8661 12.5405 21.8669 12.5405 21.867L12.5393 21.8647Z"/>
    <path fill="currentColor" fill-rule="evenodd" clip-rule="evenodd" d="M16.7597 18.9194C16.737 18.945 16.7143 18.9704 16.6916 18.9957C17.0571 19.3589 17.4154 19.6884 17.7598 19.9818C18.8603 18.7336 19.7286 17.4161 20.2356 16.2714C20.4896 15.6979 20.6711 15.1274 20.7258 14.6064C20.7793 14.0964 20.7219 13.4927 20.33 13.0502C19.9381 12.6078 19.4032 12.543 18.9515 12.6035C18.49 12.6652 17.9846 12.8701 17.4764 13.1569C16.4534 13.7343 15.2745 14.7268 14.16 15.9848L14.1526 15.9932C14.4224 16.3771 14.7215 16.7733 15.0476 17.1751C15.0751 17.1436 15.1028 17.1121 15.1307 17.0806C16.1699 15.9075 17.2316 15.0276 18.0904 14.5429C18.5231 14.2986 18.8689 14.175 19.113 14.1424C19.2582 14.1229 19.3286 14.1391 19.3562 14.1495C19.3654 14.1806 19.3797 14.2602 19.3625 14.424C19.3336 14.6996 19.2241 15.0899 19.0077 15.5784C18.5783 16.5478 17.7988 17.7464 16.7597 18.9194ZM19.3511 14.1353L19.3501 14.1336C19.3501 14.1336 19.3503 14.1337 19.3511 14.1353Z"/>
    <path fill="currentColor" fill-rule="evenodd" clip-rule="evenodd" d="M15.9456 26.5C20.1043 26.5 23.4755 22.6944 23.4755 18C23.4755 13.3056 20.1043 9.5 15.9456 9.5C11.787 9.5 8.41572 13.3056 8.41572 18C8.41572 22.6944 11.787 26.5 15.9456 26.5ZM15.9456 28C20.8381 28 24.8043 23.5228 24.8043 18C24.8043 12.4772 20.8381 8 15.9456 8C11.0531 8 7.08691 12.4772 7.08691 18C7.08691 23.5228 11.0531 28 15.9456 28Z"/>
    <path fill="currentColor" fill-rule="evenodd" clip-rule="evenodd" d="M25.9212 28.0114C26.2215 28.3503 26.217 28.9048 25.9112 29.25C25.6054 29.5952 25.1141 29.6003 24.8139 29.2614L21.2503 25.2386L22.3576 23.9886L25.9212 28.0114ZM10.64 10.7613L9.53263 12.0113L5.96903 7.98862C5.66881 7.64972 5.67331 7.09516 5.97909 6.74999C6.28488 6.40481 6.77614 6.39972 7.07637 6.73862L10.64 10.7613Z"/>
    <path fill="currentColor" fill-rule="evenodd" clip-rule="evenodd" d="M16.977 2.54312L17.9009 1.50008L17.2745 0.792969L15.3193 3.00008L17.2745 5.20718L17.9009 4.50008L17.063 3.55415C23.2658 4.15744 28.2085 9.7369 28.7429 16.7388L27.905 15.7929L27.2786 16.5L29.2338 18.7072L31.189 16.5L30.5626 15.7929L29.6386 16.836C29.1366 9.20359 23.7383 3.10981 16.977 2.54312Z"/>
  </g>
  <defs>
    <clipPath id="">
      <rect fill="currentColor" width="31.8913" height="36"/>
    </clipPath>
  </defs>
</svg>
