<?xml version="1.0"?>
<svg xmlns="http://www.w3.org/2000/svg" viewBox="0 0 36 36" fill="none">
  <path fill-rule="evenodd" clip-rule="evenodd" d="M14.007 4.16666C14.6626 4.05622 15.3292 4 16 4C16.6723 4 17.3387 4.05641 17.9931 4.16662C17.9977 4.11141 18 4.05582 18 4V0H14V4C14 4.05584 14.0023 4.11143 14.007 4.16666ZM9.04287 6.22256C9.00703 6.18022 8.96937 6.13933 8.93 6.1L6.1 3.27L3.27 6.1L6.1 8.93C6.13933 8.96937 6.18022 9.00703 6.22256 9.04287C6.9956 7.95646 7.94756 7.00191 9.04287 6.22256ZM4.16667 14.007C4.11144 14.0023 4.05584 14 4 14H0V18H4C4.05584 18 4.11144 17.9977 4.16667 17.993C3.94353 16.6683 3.94536 15.321 4.16667 14.007ZM6.22261 22.9572C6.18026 22.993 6.13935 23.0306 6.1 23.07L3.27 25.9L6.1 28.73L8.93 25.9C8.96935 25.8606 9.00698 25.8197 9.0428 25.7774C8.50073 25.3917 7.98933 24.9599 7.51472 24.4853C7.04011 24.0107 6.60832 23.4993 6.22261 22.9572ZM14.007 27.8333C14.0023 27.8886 14 27.9442 14 28V32H18V28C18 27.9442 17.9977 27.8886 17.993 27.8333C16.679 28.0546 15.3317 28.0565 14.007 27.8333ZM22.9571 25.7774C22.993 25.8198 23.0306 25.8607 23.07 25.9L25.9 28.73L28.73 25.9L25.9 23.07C25.8607 23.0306 25.8198 22.993 25.7774 22.9571C24.9981 24.0524 24.0435 25.0044 22.9571 25.7774ZM27.8333 17.993C27.8886 17.9977 27.9442 18 28 18H32V14H28C27.9442 14 27.8886 14.0023 27.8334 14.0069C27.9436 14.6613 28 15.3277 28 16C28 16.6708 27.9438 17.3374 27.8333 17.993ZM25.7774 9.04277C25.8198 9.00695 25.8607 8.96934 25.9 8.93L28.73 6.1L25.9 3.27L23.07 6.1C23.0307 6.13934 22.993 6.18023 22.9572 6.22257C23.4982 6.60748 24.0096 7.03907 24.4853 7.51472C24.9609 7.99036 25.3925 8.50183 25.7774 9.04277Z" fill="currentcolor"/>
  <path fill-rule="evenodd" clip-rule="evenodd" d="M22.267 20.9725C21.2835 22.2119 19.9545 23.1319 18.4482 23.6161C16.9419 24.1003 15.3258 24.1269 13.8043 23.6926C12.2828 23.2583 10.9243 22.3826 9.90049 21.1762C8.87671 19.9698 8.23366 18.4869 8.05265 16.9151C7.87164 15.3432 8.16081 13.753 8.88359 12.3454C9.60637 10.9379 10.7303 9.77635 12.1132 9.0076C13.4962 8.23884 15.076 7.89744 16.653 8.02657C18.23 8.15569 19.7332 8.74955 20.9727 9.73303C22.6348 11.0518 23.7049 12.9769 23.9476 15.0847C24.1903 17.1925 23.5858 19.3104 22.267 20.9725ZM14.9311 16.0445C15.0677 18.4338 16.9473 20.4099 19.4 20.742C19.6337 20.7739 19.8247 20.9473 19.8721 21.1716C19.9197 21.3958 19.813 21.6193 19.6081 21.7247C18.7126 22.1853 17.7362 22.4305 16.7059 22.4534C15.7473 22.4747 14.8084 22.3002 13.939 21.9483C13.1972 21.6481 12.5061 21.2188 11.8959 20.6717C10.5703 19.4833 9.7862 17.8815 9.6879 16.1615C9.48493 12.6105 12.3029 9.65493 15.9698 9.57328C17.0003 9.55055 18.003 9.75141 18.9478 10.1713C19.164 10.2672 19.2962 10.4854 19.2744 10.7113C19.2525 10.937 19.082 11.1186 18.8524 11.1606C16.4438 11.6016 14.7946 13.6555 14.9311 16.0445Z" fill="currentcolor"/>
</svg>
