<?xml version="1.0"?>
<svg xmlns="http://www.w3.org/2000/svg" viewBox="0 0 30 30" fill="none">
  <path fill="currentColor" fill-rule="evenodd" clip-rule="evenodd" d="M15 0C12.0333 0 9.13318 0.879735 6.66645 2.52796C4.19971 4.17618 2.27712 6.51886 1.14181 9.25975C0.00649166 12.0006 -0.290558 15.0166 0.28822 17.9264C0.866998 20.8361 2.29561 23.5088 4.3934 25.6066C6.49119 27.7044 9.16393 29.133 12.0736 29.7118C14.9834 30.2906 17.9994 29.9935 20.7402 28.8582C23.4811 27.7229 25.8238 25.8003 27.472 23.3336C29.1203 20.8668 30 17.9667 30 15C30 13.0302 29.612 11.0796 28.8582 9.25975C28.1044 7.43986 26.9995 5.78628 25.6066 4.3934C24.2137 3.00052 22.5601 1.89563 20.7402 1.14181C18.9204 0.387987 16.9698 0 15 0ZM17.5 23H12.5V13H17.5V23ZM15 11C14.4067 11 13.8266 10.8241 13.3333 10.4944C12.8399 10.1648 12.4554 9.69623 12.2284 9.14805C12.0013 8.59987 11.9419 7.99667 12.0576 7.41473C12.1734 6.83279 12.4591 6.29824 12.8787 5.87868C13.2982 5.45912 13.8328 5.1734 14.4147 5.05764C14.9967 4.94189 15.5999 5.0013 16.148 5.22836C16.6962 5.45542 17.1648 5.83994 17.4944 6.33329C17.8241 6.82664 18 7.40666 18 8C18 8.79565 17.6839 9.55871 17.1213 10.1213C16.5587 10.6839 15.7956 11 15 11Z"/>
</svg>
