<?xml version="1.0"?>
<svg width="24" height="24" viewBox="0 0 24 24" fill="none" xmlns="http://www.w3.org/2000/svg">
  <path d="M22.6666 6.28132C21.6224 4.93909 19.6646 4.66055 18.2811 5.64821L11.1024 10.8143L8.88352 9.21887C8.64856 9.04164 8.51804 8.73769 8.5964 8.45915C8.72692 7.92736 8.75301 7.37017 8.62249 6.78778C8.30928 5.39495 7.10839 4.28069 5.6466 4.05277C3.34942 3.67291 1.33939 5.39499 1.33939 7.57283C1.33939 9.54815 2.984 11.1435 5.0201 11.1435C5.72487 11.1435 6.35139 10.9663 6.92575 10.637C7.18679 10.4851 7.52619 10.5104 7.76104 10.6877L9.90155 12.2324L7.76104 13.7772C7.52608 13.9544 7.18679 13.9798 6.92575 13.8278C6.19479 13.3973 5.30733 13.22 4.36753 13.3719C2.80127 13.6504 1.57437 14.8913 1.36554 16.4361C1.05233 18.7659 3.06232 20.7159 5.46391 20.4627C7.08233 20.2854 8.4137 19.0445 8.67474 17.4744C8.75309 16.9679 8.72691 16.4614 8.59639 16.0056C8.51804 15.727 8.64856 15.4231 8.88352 15.2458L11.1024 13.6504L18.2811 18.8165C19.6646 19.8295 21.6224 19.5509 22.6666 18.1834L14.3915 12.2322L22.6666 6.28132ZM5.02009 9.06697C4.1848 9.06697 3.47992 8.40856 3.47992 7.57283C3.47992 6.7625 4.15861 6.07868 5.02009 6.07868C5.85538 6.07868 6.56027 6.73709 6.56027 7.57283C6.56027 8.38324 5.88158 9.06697 5.02009 9.06697ZM5.02009 18.3863C4.1848 18.3863 3.47992 17.7278 3.47992 16.8921C3.47992 16.0818 4.15861 15.398 5.02009 15.398C5.85538 15.398 6.56027 16.0564 6.56027 16.8921C6.56027 17.7024 5.88158 18.3863 5.02009 18.3863ZM12.4076 12.9416C12.016 12.9416 11.6766 12.6123 11.6766 12.2324C11.6766 11.8526 12.016 11.5233 12.4076 11.5233C12.7992 11.5233 13.1386 11.8526 13.1386 12.2324C13.1385 12.6123 12.8253 12.9416 12.4076 12.9416Z" fill="currentColor"/>
</svg>
