<?xml version="1.0"?>
<svg xmlns="http://www.w3.org/2000/svg" viewBox="0 0 109.5 32">
  <path fill="currentColor" d="M109.289,11.317c0.052,0.129,0.104,0.256,0.155,0.385
				c0.077,0.18,0.116,0.348,0.116,0.503c0,0.256-0.154,0.617-0.464,1.08l-0.115,0.193H67.997v0.695h3.01v2.624l0.424,0.425
				c0.231,0.18,0.347,0.488,0.347,0.925c0,0.155-0.025,0.257-0.077,0.309c-0.052,0-0.078,0.039-0.078,0.116v0.116
				c0,0.309-0.064,0.462-0.192,0.462c-0.077,0-0.193,0-0.347,0c-0.18,0-0.785,0-1.814,0c-0.977,0-2.521,0-4.631,0
				c-2.11,0-5.119,0-9.03,0c-0.129,0.078-0.193,0.206-0.193,0.387c0.051,0,0.116,0.038,0.193,0.115l0.27,0.271l-0.193,0.579h-1.543
				l-0.193-0.193c-0.077-0.128-0.244-0.515-0.501-1.158c-0.257-0.591-0.283-1.08-0.078-1.466c0-0.309,0.155-0.462,0.464-0.462h0.116
				c0.644,0,1.042,0.09,1.197,0.27c0.36,0,0.785-0.103,1.273-0.308l-7.487-0.079c-0.051,0-0.372,0.091-0.964,0.271
				c-0.514,0.128-1.105,0.297-1.774,0.501c-0.644,0.181-1.262,0.349-1.853,0.501c-0.541,0.129-0.836,0.232-0.888,0.31v2.701
				l-8.836,0.926v-2.778c-0.463,0-0.746,0.063-0.849,0.192c-0.078,0.128-0.284,0.296-0.617,0.502
				c-0.31,0.308-0.695,0.514-1.158,0.617c-0.515,0.18-1.107,0.232-1.775,0.154c-0.668-0.051-1.428-0.334-2.277-0.849
				c-0.052,0-0.104,0.025-0.154,0.078c-0.077,0-0.18,0-0.309,0c0,0.333-0.013,0.732-0.038,1.196
				c-0.051,0.514-0.142,1.029-0.27,1.543c-0.078,0.514-0.232,1.004-0.463,1.467c-0.154,0.411-0.334,0.668-0.54,0.771
				c-0.361,0.207-0.966,0.271-1.815,0.193c-0.849-0.052-1.749-0.168-2.701-0.347c-0.951-0.129-1.827-0.271-2.624-0.425
				c-0.796-0.232-1.286-0.398-1.466-0.501c-0.18-0.128-0.541-0.514-1.08-1.159c-0.386-0.308-0.773-0.656-1.159-1.042
				c-0.385-0.334-0.629-0.514-0.732-0.54H9.532c-0.206,1.39-0.334,2.212-0.385,2.469c-0.026,0.206-0.104,0.309-0.232,0.309
				c-0.076,0.18-0.231,0.271-0.463,0.271c-0.206,0-0.644-0.091-1.313-0.271c-0.514,0-1.029,0-1.542,0
				c-0.541-0.026-0.876-0.026-1.003,0c-0.232,0-0.491,0.038-0.772,0.117c-0.335,0.102-0.733,0.167-1.197,0.193
				c-0.361,0.127-0.771,0.218-1.236,0.269c-0.514,0.077-0.822,0.143-0.925,0.193H0.193c-0.077,0-0.115-0.039-0.115-0.116
				C0.025,24.721,0,24.502,0,24.167c0-0.283,0-0.771,0-1.466c0-0.72,0-1.711,0-2.972c0.128-1.184,0.193-2.328,0.193-3.435
				c0-1.183,0-2.032,0-2.547c0-0.205,0.258-0.424,0.772-0.654c0.463-0.207,1.607-0.285,3.435-0.233h1.003l0.077-0.077l0.117-0.077
				c0.051,0,0.114-0.039,0.193-0.117c0.076-0.051,0.179-0.128,0.308-0.231h9.185c0.206,0.026,0.411,0.142,0.617,0.348
				c0.464,0.308,0.811,0.655,1.042,1.041h10.419c0.078-0.205,0.18-0.527,0.309-0.964c0.129-0.386,0.193-0.708,0.193-0.964v-0.231
				h0.078c0.283-0.103,0.785-0.193,1.504-0.27c0.694-0.025,1.107-0.104,1.235-0.232c0.128,0,0.258-0.026,0.386-0.077
				c0.025-0.077,0.103-0.142,0.231-0.193h3.242V9.85h-1.196c-0.128,0-0.451,0.052-0.964,0.155c-0.515,0.077-1.133,0.153-1.853,0.231
				c-0.668,0.076-1.39,0.142-2.161,0.193c-0.722,0-1.351-0.038-1.892-0.117l-0.077-0.192v-0.115
				c-0.077-0.721-0.116-1.274-0.116-1.66c0-0.437,0-0.786,0-1.042c0-0.206,0.039-0.347,0.116-0.424l0.077-0.078h0.192l0.811-0.077
				c0.566-0.026,1.184-0.064,1.853-0.116c0.72-0.077,1.441-0.115,2.161-0.115c0.668,0,1.183,0.038,1.542,0.115
				c0.463,0,0.965,0,1.506,0c0.592,0,1.208,0,1.852,0c0.591,0,1.145-0.013,1.659-0.039c0.464-0.051,0.823-0.076,1.081-0.076V5.837
				c-0.052-0.026-0.077-0.09-0.077-0.193V5.027l3.203-0.193h0.039l0.385,1.08c0,0.052-0.039,0.09-0.115,0.116
				c-0.052,0.103-0.142,0.154-0.271,0.154v0.193h5.596c0.438-0.103,1.054-0.193,1.853-0.271c0.848-0.077,1.684-0.167,2.508-0.27
				c0.848-0.077,1.633-0.141,2.354-0.193c0.669-0.026,1.092,0.026,1.273,0.155l0.154,0.115l0.077,4.399h-0.231
				c-4.682,0-7.19-0.154-7.525-0.463v0.155c-0.18-0.104-0.541-0.167-1.081-0.193c-0.541-0.052-1.158-0.04-1.852,0.038v0.888h63.673
				v0.154C109.148,11.021,109.212,11.162,109.289,11.317z M31.876,17.684h-2.161c-0.592,0-0.887,0.27-0.887,0.811
				c0,0.644,0.295,0.965,0.887,0.965h2.161c0.591,0,0.888-0.321,0.888-0.965C32.765,17.954,32.468,17.684,31.876,17.684z
				 M19.257,21.428c0.36,0.747,0.926,1.158,1.698,1.235c0.643,0.18,1.403,0.078,2.277-0.309c0.438-0.232,0.913-0.644,1.428-1.234
				c0.179-0.334,0.308-0.721,0.386-1.158c0.077-0.515,0.026-0.914-0.155-1.197c-0.128-0.488-0.604-0.811-1.427-0.965
				c-1.055-0.206-1.904-0.167-2.546,0.116c-0.438,0.231-0.746,0.424-0.927,0.579c-0.206,0.154-0.399,0.411-0.579,0.772
				C19,19.936,18.948,20.655,19.257,21.428z"/>
</svg>
