<?xml version="1.0"?>
<svg xmlns="http://www.w3.org/2000/svg" viewBox="0 0 165 295" fill="none">
  <path stroke="currentColor" d="M104.701 241.97C104.701 225.507 91.3555 212.162 74.8931 212.162H14.9041C8.6096 212.162 3.50692 207.059 3.50692 200.765C3.50692 194.47 8.56367 189.368 14.8581 189.368C41.5864 189.368 109.351 189.368 150.808 189.368C156.618 189.368 161.313 184.657 161.313 178.847C161.313 173.037 156.603 168.327 150.793 168.327H15.7807C9.00208 168.327 3.5069 162.832 3.50688 156.053C3.50685 149.274 9.00205 143.779 15.7807 143.779H150.793C156.603 143.779 161.313 139.069 161.313 133.259C161.313 127.448 156.647 122.738 150.837 122.738C140.176 122.738 122.764 122.738 105.205 122.738C74.2165 122.738 49.0954 97.6172 49.0954 66.6291V8.7666" stroke-width="7.01363"/>
  <rect fill="currentColor" x="28.0557" width="42.0818" height="10.5204"/>
  <path fill="currentColor" d="M136.766 255.997C144.513 255.997 150.793 262.277 150.793 270.024V280.545C150.793 288.292 144.513 294.572 136.766 294.572H70.1367C62.3898 294.572 56.1095 288.292 56.1094 280.545V270.024C56.1094 262.277 62.3897 255.997 70.1367 255.997H136.766ZM88.2354 266.33C86.3678 266.33 84.8535 267.844 84.8535 269.712C84.8538 271.579 86.3679 273.093 88.2354 273.093C90.1027 273.093 91.616 271.579 91.6162 269.712C91.6162 267.844 90.1028 266.33 88.2354 266.33ZM103.451 266.33C101.584 266.33 100.069 267.844 100.069 269.712C100.07 271.579 101.584 273.093 103.451 273.093C105.319 273.093 106.833 271.579 106.833 269.712C106.833 267.844 105.319 266.33 103.451 266.33ZM116.977 266.33C115.109 266.33 113.595 267.844 113.595 269.712C113.595 271.579 115.109 273.093 116.977 273.093C118.844 273.093 120.358 271.579 120.358 269.712C120.358 267.844 118.844 266.33 116.977 266.33Z"/>
  <rect fill="currentColor" x="98.1914" y="241.97" width="14.0273" height="14.0273"/>
</svg>
