<?xml version="1.0"?>
<svg xmlns="http://www.w3.org/2000/svg" viewBox="0 0 36 36" fill="none">
  <path fill="currentColor" d="M6.05882 7.05042C8.17647 6.59664 10.1429 5.9916 12.1092 5.08403C14.0756 4.02521 16.042 2.81513 17.7059 1.30252C18.0084 1.15126 18.3109 1 18.6134 1C18.916 1 19.2185 1.15126 19.3697 1.30252C21.0336 2.81513 23 4.02521 24.9664 5.08403C26.7815 5.9916 28.8992 6.7479 31.0168 7.05042C31.6218 7.05042 32.0756 7.65546 32.0756 8.2605C32.0756 14.6134 31.1681 19.4538 29.2017 23.3866C27.2353 27.4706 23.9076 30.6471 19.2185 33.6723C19.0672 33.8235 18.7647 33.8235 18.4622 33.8235C18.1597 33.8235 18.0084 33.8235 17.7059 33.6723C13.0168 30.7983 9.68908 27.4706 7.72269 23.3866C5.90756 19.4538 5 14.6134 5 8.2605C5 7.65546 5.45378 7.20168 6.05882 7.05042Z"/>
</svg>
