<?xml version="1.0"?>
<svg viewBox="0 0 36 36" fill="none" xmlns="http://www.w3.org/2000/svg">
  <path d="M30.65 20.6201L26.82 19.48C26.25 21.376 25.0842 23.0378 23.4955 24.2191C21.9068 25.4004 19.9797 26.0383 18 26.0383C16.0202 26.0383 14.0931 25.4004 12.5044 24.2191C10.9157 23.0378 9.74999 21.376 9.17998 19.48L5.34998 20.6201C6.07599 23.0091 7.45988 25.1456 9.3433 26.785C11.2267 28.4243 13.5336 29.5004 16 29.89V34.05H20V29.89C22.4664 29.5004 24.7732 28.4243 26.6567 26.785C28.5401 25.1456 29.924 23.0091 30.65 20.6201Z" fill="currentColor"/>
  <path d="M18 22.05C19.5913 22.05 21.1174 21.4179 22.2426 20.2927C23.3678 19.1675 24 17.6413 24 16.05V8.05005C24 6.45875 23.3678 4.93263 22.2426 3.80741C21.1174 2.68219 19.5913 2.05005 18 2.05005C16.4087 2.05005 14.8826 2.68219 13.7573 3.80741C12.6321 4.93263 12 6.45875 12 8.05005V16.05C12 17.6413 12.6321 19.1675 13.7573 20.2927C14.8826 21.4179 16.4087 22.05 18 22.05Z" fill="currentColor"/>
</svg>
