<?xml version="1.0"?>
<svg width="24" height="24" viewBox="0 0 24 24" fill="none" xmlns="http://www.w3.org/2000/svg">
  <path d="M1.91995 1.20001C1.5223 1.20001 1.19995 1.52236 1.19995 1.92001V22.08C1.19995 22.4776 1.52232 22.8 1.91995 22.8H22.08C22.4776 22.8 22.7999 22.4776 22.7999 22.08C22.7999 21.6824 22.4776 21.36 22.08 21.36H2.63995V1.92001C2.63995 1.52236 2.31758 1.20001 1.91995 1.20001ZM16.32 6.72001C15.8854 6.71929 15.5464 7.12373 15.5625 7.47751C15.5821 7.85454 15.9429 8.17971 16.32 8.16001H18.3525L11.97 14.16L9.67495 12.2475C9.52982 12.0749 9.29995 11.9772 9.07495 11.9925C8.91446 12.004 8.75853 12.0713 8.63995 12.18L3.83995 16.5C3.54514 16.7473 3.50834 17.2483 3.76495 17.535C4.02158 17.8217 4.52167 17.8383 4.79995 17.5725L9.14246 13.665L11.4525 15.5925C11.7066 15.887 12.2125 15.9125 12.495 15.645L19.4399 9.12001V11.28C19.4347 11.6604 19.7795 12.0075 20.16 12.0075C20.5404 12.0075 20.8853 11.6604 20.8799 11.28V7.44001C20.8799 7.06303 20.5369 6.72005 20.16 6.72001H16.32Z" fill="#C3D3D8"/>
</svg>
