<?xml version="1.0"?>
<svg xmlns="http://www.w3.org/2000/svg" viewBox="0 0 32 36" fill="none">
  <g clip-path="">
    <path fill="currentColor" fill-rule="evenodd" clip-rule="evenodd" d="M3.43035 18.8892C3.00337 18.8892 2.65723 18.4912 2.65723 18.0003C2.65723 17.5094 3.00337 17.1114 3.43035 17.1114H4.9766C5.40358 17.1114 5.74972 17.5094 5.74972 18.0003C5.74972 18.4912 5.40358 18.8892 4.9766 18.8892H3.43035ZM28.6857 18.8892C28.2587 18.8892 27.9126 18.4912 27.9126 18.0003C27.9126 17.5094 28.2587 17.1114 28.6857 17.1114H30.2319C30.6589 17.1114 31.0051 17.5094 31.0051 18.0003C31.0051 18.4912 30.6589 18.8892 30.2319 18.8892H28.6857Z"/>
    <path fill="currentColor" fill-rule="evenodd" clip-rule="evenodd" d="M15.6794 18C15.6794 19.6589 15.879 21.1287 16.1826 22.1568C16.3356 22.675 16.5027 23.0384 16.6548 23.2564C16.7453 23.386 16.8052 23.4308 16.8313 23.4454C16.8573 23.4308 16.9172 23.386 17.0077 23.2564C17.1599 23.0384 17.3269 22.675 17.4799 22.1568C17.4829 22.1467 17.4859 22.1364 17.4889 22.1262C17.9938 22.0955 18.4854 22.0437 18.9569 21.972C18.9034 22.2086 18.8451 22.434 18.7823 22.6469C18.6026 23.2553 18.3736 23.8035 18.0859 24.2156C17.8043 24.6189 17.3855 25 16.8313 25C16.277 25 15.8582 24.6189 15.5766 24.2156C15.289 23.8035 15.0599 23.2553 14.8803 22.6469C14.5186 21.422 14.3066 19.7791 14.3066 18C14.3066 16.2209 14.5186 14.578 14.8803 13.3531C15.0599 12.7447 15.289 12.1965 15.5766 11.7844C15.8582 11.3811 16.277 11 16.8313 11C17.3855 11 17.8043 11.3811 18.0859 11.7844C18.3736 12.1965 18.6026 12.7447 18.7823 13.3531C18.85 13.5824 18.9124 13.8264 18.9692 14.0831C18.4988 14.0112 18.0083 13.959 17.5045 13.928C17.4964 13.8994 17.4882 13.8711 17.4799 13.8432C17.3269 13.325 17.1599 12.9616 17.0077 12.7436C16.9172 12.614 16.8573 12.5692 16.8313 12.5546C16.8052 12.5692 16.7453 12.614 16.6548 12.7436C16.5027 12.9616 16.3356 13.325 16.1826 13.8432C15.879 14.8713 15.6794 16.3411 15.6794 18ZM16.8165 12.548C16.8162 12.5479 16.8164 12.548 16.8165 12.548C16.8165 12.548 16.8167 12.548 16.8173 12.5482C16.8177 12.5483 16.8181 12.5484 16.8187 12.5486C16.8178 12.5485 16.8168 12.5481 16.8165 12.548Z"/>
    <path fill="currentColor" fill-rule="evenodd" clip-rule="evenodd" d="M13.4398 18.8333C13.3388 18.8008 13.2416 18.767 13.1485 18.732C12.6895 18.5593 12.3676 18.3707 12.1745 18.1989C12.0597 18.0968 12.02 18.0292 12.0071 17.9998C12.02 17.9704 12.0597 17.9027 12.1745 17.8006C12.3676 17.6289 12.6895 17.4403 13.1485 17.2676C13.238 17.2339 13.3312 17.2014 13.428 17.1701C13.438 16.6185 13.4617 16.0765 13.4986 15.5487C13.2204 15.6226 12.9581 15.7058 12.7144 15.7974C12.1755 16.0002 11.6898 16.2588 11.3248 16.5835C10.9675 16.9014 10.6299 17.3741 10.6299 17.9998C10.6299 18.6255 10.9675 19.0982 11.3248 19.416C11.6898 19.7408 12.1755 19.9993 12.7144 20.2021C12.9688 20.2979 13.2436 20.3843 13.5355 20.4605C13.49 19.9328 13.4579 19.3887 13.4398 18.8333ZM16.735 19.2997C16.7669 19.2999 16.7989 19.3 16.831 19.3C18.3006 19.3 19.6025 19.0747 20.5134 18.732C20.9724 18.5593 21.2943 18.3707 21.4874 18.1989C21.6022 18.0968 21.6419 18.0292 21.6549 17.9998C21.6419 17.9704 21.6022 17.9028 21.4874 17.8006C21.2943 17.6289 20.9724 17.4403 20.5134 17.2676C19.6025 16.9248 18.3006 16.6995 16.831 16.6995C16.7915 16.6995 16.7522 16.6997 16.713 16.7C16.7341 16.1556 16.7708 15.6367 16.8205 15.1499C16.824 15.1499 16.8275 15.1499 16.831 15.1499C18.4071 15.1499 19.8624 15.3891 20.9475 15.7974C21.4865 16.0002 21.9721 16.2588 22.3372 16.5835C22.6944 16.9014 23.0321 17.3741 23.0321 17.9998C23.0321 18.6255 22.6944 19.0982 22.3372 19.416C21.9721 19.7408 21.4865 19.9993 20.9475 20.2021C19.872 20.6068 18.4327 20.8454 16.8727 20.8496C16.8129 20.3672 16.766 19.8482 16.735 19.2997ZM12.0018 18.014C12.0015 18.0157 12.0013 18.0165 12.0012 18.0165C12.0012 18.0165 12.0012 18.0163 12.0013 18.016C12.0013 18.0156 12.0015 18.0149 12.0018 18.014ZM12.0018 17.9856C12.0015 17.9839 12.0013 17.9831 12.0012 17.9831C12.0012 17.9831 12.0013 17.9839 12.0018 17.9856ZM21.6605 17.9836C21.6606 17.9833 21.6607 17.9831 21.6607 17.9831C21.6608 17.9831 21.6606 17.9839 21.6602 17.9856C21.6603 17.9847 21.6604 17.9841 21.6605 17.9836ZM21.6602 18.014C21.6604 18.0157 21.6607 18.0165 21.6607 18.0165C21.6608 18.0165 21.6606 18.0157 21.6602 18.014Z"/>
    <path fill="currentColor" fill-rule="evenodd" clip-rule="evenodd" d="M14.3702 33.7569C13.9419 33.6716 13.6559 33.2106 13.7315 32.7272L15.5027 21.5L16.7045 23.9321L15.2824 33.0359C15.2069 33.5193 14.7985 33.8421 14.3702 33.7569ZM16.9585 12.0678L18.3805 2.96406C18.4561 2.4806 18.8645 2.15779 19.2928 2.24303C19.721 2.32828 20.007 2.78931 19.9315 3.27277L18.3569 13.2534L16.9585 12.0678Z"/>
    <path fill="currentColor" fill-rule="evenodd" clip-rule="evenodd" d="M17.5079 26.4662C21.3496 26.08 24.3612 22.437 24.3612 18C24.3612 13.3056 20.99 9.5 16.8314 9.5C12.6727 9.5 9.30146 13.3056 9.30146 18C9.30146 21.4023 11.0723 24.3378 13.6303 25.6959L13.3924 27.2186C10.208 25.703 7.97266 22.1462 7.97266 18C7.97266 12.4772 11.9388 8 16.8314 8C21.7239 8 25.6901 12.4772 25.6901 18C25.6901 23.3567 21.9589 27.7297 17.2702 27.9879L17.5079 26.4662Z"/>
    <path fill="currentColor" d="M3.72258 13.4442C3.51025 12.8849 3.28017 12.4962 3.0698 12.2618C2.86325 12.0317 2.72498 12 2.65761 12C2.59024 12 2.45197 12.0317 2.24541 12.2618C2.03505 12.4962 1.80497 12.8849 1.59264 13.4442C1.16933 14.5591 0.88587 16.1692 0.88587 18C0.88587 19.8308 1.16933 21.4409 1.59264 22.5558C1.80497 23.1151 2.03505 23.5038 2.24541 23.7382C2.45197 23.9683 2.59024 24 2.65761 24C2.72498 24 2.86325 23.9683 3.0698 23.7382C3.28017 23.5038 3.51025 23.1151 3.72258 22.5558C3.92312 22.0276 4.09228 21.3883 4.21477 20.667L5.07886 20.89C4.66114 23.3141 3.73412 25 2.65761 25C1.18985 25 0 21.866 0 18C0 14.134 1.18985 11 2.65761 11C3.64695 11 4.51003 12.4239 4.96756 14.5361L4.10815 14.7788C4.00067 14.2815 3.87012 13.8328 3.72258 13.4442Z"/>
    <path fill="currentColor" fill-rule="evenodd" clip-rule="evenodd" d="M2.86072 13.4381L4.48816 14.4988L5.42777 12.6617L6.19496 13.1617L4.81241 15.8648L2.41778 14.3041L2.86072 13.4381Z"/>
  </g>
  <defs>
    <clipPath id="">
      <rect fill="currentColor" width="31.8913" height="36"/>
    </clipPath>
  </defs>
</svg>
