<?xml version="1.0"?>
<svg height="100" width="100" fill="#fff" xmlns="http://www.w3.org/2000/svg" viewBox="0 0 69 69">
  <path d="M57.189 51.828H11.813a1 1 0 00-1 1v4.77a1 1 0 001 1h45.376a1 1 0 001-1v-4.77a1 1 0 00-1-1zm-1 4.77H12.813v-2.77h43.376v2.77z"/>
  <path d="M63.189 4.402H5.813a1 1 0 00-1 1L4.81 62.598H2.46a1 1 0 100 2h64.08a1 1 0 100-2h-2.35l-.001-57.196a1 1 0 00-1-1zm-56.376 2h55.376v39.426H43.584v-5.854h-7.556l2.448-2.48a.999.999 0 00.288-.702V18.915h2.062a1 1 0 100-2h-3.508v-3.775h1.32a1 1 0 100-2h-3.584v-.917a1 1 0 10-2 0v.917H29.47a1 1 0 100 2h1.32v3.775h-3.508a1 1 0 100 2h2.061v17.875c0 .242.087.474.245.656l2.195 2.527h-6.365v5.854H6.813V6.402zm25.977 6.74h2.528v3.774H32.79v-3.775zm-1.447 5.774h1.711v14.642a1 1 0 102 0V18.916h1.71v17.465l-2.9 2.94-2.52-2.904v-17.5zm10.241 23.058v3.834H27.418v-3.834h14.166zM6.81 62.598v-14.77h55.38v14.77H6.81z"/>
</svg>
