<?xml version="1.0"?>
<svg xmlns="http://www.w3.org/2000/svg" viewBox="0 0 36 36" fill="none">
  <path fill="currentColor" d="M3.375 30.375C0 30.375 0 25.875 0 25.875C0 25.875 0.679114 19.5689 1.65511 14.6014C2.11919 15.2235 2.72448 16.0277 3.42078 16.936C4.97674 18.9655 6.99227 21.5211 8.90421 23.7256C8.37233 24.3118 7.95006 25.2335 7.50451 26.2061C6.59778 28.1853 5.59464 30.375 3.375 30.375Z"/>
  <path fill="currentColor" fill-rule="evenodd" clip-rule="evenodd" d="M9.94135 23.2037C10.5784 23.0625 11.25 23.0625 11.25 23.0625H24.75C24.75 23.0625 25.4216 23.0625 26.0586 23.2037C28.0029 20.9779 30.0841 18.3414 31.6864 16.2515C32.493 15.1994 33.1768 14.2877 33.6589 13.639C33.8038 13.444 33.9305 13.2728 34.0368 13.1288C33.6024 11.1876 33.1223 9.62156 32.625 8.99998C30.9375 6.75 24.75 6.75 24.75 6.75H11.25C11.25 6.75 5.0625 6.75 3.375 8.99998C2.87774 9.62156 2.39764 11.1876 1.96319 13.1288C2.06947 13.2728 2.19616 13.444 2.34111 13.639C2.82318 14.2877 3.50702 15.1994 4.31359 16.2515C5.91589 18.3414 7.99714 20.9779 9.94135 23.2037ZM27.5062 9.11247C28.2829 9.11247 28.9125 9.74207 28.9125 10.5187C28.9125 11.2954 28.2829 11.925 27.5062 11.925C26.7296 11.925 26.1 11.2954 26.1 10.5187C26.1 9.74207 26.7296 9.11247 27.5062 9.11247ZM8.1 15.1875C9.34264 15.1875 10.35 14.1801 10.35 12.9375C10.35 11.6949 9.34264 10.6875 8.1 10.6875C6.85736 10.6875 5.85 11.6949 5.85 12.9375C5.85 14.1801 6.85736 15.1875 8.1 15.1875ZM22.725 20.25C23.9676 20.25 24.975 19.2426 24.975 18C24.975 16.7574 23.9676 15.75 22.725 15.75C21.4824 15.75 20.475 16.7574 20.475 18C20.475 19.2426 21.4824 20.25 22.725 20.25ZM31.725 13.1063C31.725 13.8829 31.0954 14.5125 30.3187 14.5125C29.5421 14.5125 28.9125 13.8829 28.9125 13.1063C28.9125 12.3296 29.5421 11.7 30.3187 11.7C31.0954 11.7 31.725 12.3296 31.725 13.1063ZM24.6937 14.5125C25.4704 14.5125 26.1 13.8829 26.1 13.1063C26.1 12.3296 25.4704 11.7 24.6937 11.7C23.9171 11.7 23.2875 12.3296 23.2875 13.1063C23.2875 13.8829 23.9171 14.5125 24.6937 14.5125ZM28.9125 15.4688C28.9125 14.6921 28.2829 14.0625 27.5062 14.0625C26.7296 14.0625 26.1 14.6921 26.1 15.4688C26.1 16.2454 26.7296 16.875 27.5062 16.875C28.2829 16.875 28.9125 16.2454 28.9125 15.4688ZM11.5312 17.1562V16.3125C11.5312 16.0018 11.7831 15.75 12.0938 15.75H13.2188C13.5294 15.75 13.7812 16.0018 13.7812 16.3125V17.1562H14.625C14.9357 17.1562 15.1875 17.4081 15.1875 17.7188V18.8438C15.1875 19.1544 14.9357 19.4062 14.625 19.4062H13.7812V20.25C13.7812 20.5607 13.5294 20.8125 13.2188 20.8125H12.0938C11.7831 20.8125 11.5312 20.5607 11.5312 20.25V19.4062H10.6875C10.3768 19.4062 10.125 19.1544 10.125 18.8438V17.7188C10.125 17.4081 10.3768 17.1562 10.6875 17.1562H11.5312Z"/>
  <path fill="currentColor" d="M34.3449 14.6014C33.8808 15.2235 33.2755 16.0277 32.5792 16.936C31.0233 18.9655 29.0077 21.5211 27.0958 23.7256C27.6277 24.3118 28.0499 25.2335 28.4955 26.2061C29.4022 28.1853 30.4054 30.375 32.625 30.375C36 30.375 36 25.875 36 25.875C36 25.875 35.3209 19.5689 34.3449 14.6014Z"/>
</svg>
