<?xml version="1.0"?>
<svg xmlns="http://www.w3.org/2000/svg" viewBox="0 0 36 36" fill="none">
  <g clip-path="">
    <path d="M15.17 6.91005L12.35 4.16005L16.25 3.59005L18 0.0500488L19.75 3.59005L23.65 4.16005L20.83 6.91005L21.49 10.81L18 9.00005L14.51 10.84L15.17 6.91005ZM28 20.05V36.05H8V20.05L18 13.05L28 20.05ZM20.5 20.55C20.5 20.0556 20.3534 19.5722 20.0787 19.1611C19.804 18.75 19.4135 18.4296 18.9567 18.2404C18.4999 18.0511 17.9972 18.0016 17.5123 18.0981C17.0273 18.1945 16.5819 18.4327 16.2322 18.7823C15.8826 19.1319 15.6445 19.5774 15.548 20.0623C15.4516 20.5473 15.5011 21.0499 15.6903 21.5068C15.8795 21.9636 16.2 22.354 16.6111 22.6287C17.0222 22.9034 17.5055 23.05 18 23.05C18.3283 23.05 18.6534 22.9854 18.9567 22.8597C19.26 22.7341 19.5356 22.55 19.7678 22.3178C19.9999 22.0857 20.1841 21.8101 20.3097 21.5068C20.4353 21.2034 20.5 20.8784 20.5 20.55Z" fill="currentColor"/>
  </g>
  <defs>
    <clipPath id="">
      <rect fill="currentColor"/>
    </clipPath>
  </defs>
</svg>
