<?xml version="1.0"?>
<svg xmlns="http://www.w3.org/2000/svg" width="50" height="50" viewBox="0 0 50 50" fill="none">
  <path fill="currentColor" fill-rule="evenodd" clip-rule="evenodd" d="M5.44782 23.5292C5.16434 23.7299 4.92754 23.9514 4.76108 24.1982C4.53251 24.5369 4.43903 24.9233 4.54111 25.3228C4.6379 25.7017 4.89299 26.0224 5.21481 26.2917C5.85268 26.8255 6.91767 27.2941 8.31489 27.7022C10.1074 28.2256 12.4621 28.6522 15.1719 28.9584L14.9853 31.3533L20.1944 28.8636L15.4337 25.5972L15.2496 27.9608C12.5871 27.6586 10.3061 27.2419 8.59521 26.7422C7.22931 26.3434 6.32998 25.9209 5.85658 25.5248C5.62277 25.3291 5.5355 25.1751 5.50998 25.0753C5.48975 24.9961 5.49402 24.8998 5.59003 24.7575C5.69583 24.6007 5.9014 24.4102 6.2464 24.2012C6.48095 24.0592 6.76685 23.9163 7.10447 23.7746L5.44782 23.5292ZM43.7093 23.6985L45.4154 23.436C45.7598 23.6609 46.0466 23.9127 46.2393 24.1982C46.4678 24.5369 46.5613 24.9233 46.4592 25.3228C46.3624 25.7017 46.1074 26.0224 45.7855 26.2917C45.1477 26.8255 44.0827 27.2941 42.6855 27.7022C40.893 28.2256 38.5382 28.6522 35.8285 28.9584L36.0151 31.3533L30.806 28.8636L35.5666 25.5972L35.7508 27.9608C38.4132 27.6586 40.6943 27.2419 42.4051 26.7422C43.771 26.3434 44.6704 25.9209 45.1438 25.5248C45.3776 25.3291 45.4649 25.1751 45.4904 25.0753C45.5106 24.9961 45.5063 24.8998 45.4103 24.7575C45.3045 24.6007 45.0989 24.4102 44.7539 24.2012C44.4773 24.0337 44.1293 23.8651 43.7093 23.6985Z"/>
</svg>
