<?xml version="1.0"?>
<svg xmlns="http://www.w3.org/2000/svg" viewBox="0 0 13 13" fill="none">
  <g clip-path="">
    <path fill="currentColor" d="M10.1111 0.722168V10.8333L6.50001 7.94439H5.41667V11.5555H4.33334L3.13084 7.94439H2.8889C2.31426 7.94439 1.76316 7.71612 1.35683 7.30979C0.950502 6.90346 0.722229 6.35236 0.722229 5.77772C0.722229 5.20309 0.950502 4.65199 1.35683 4.24566C1.76316 3.83933 2.31426 3.61106 2.8889 3.61106H6.50001L10.1111 0.722168ZM11.5556 3.99745V7.53633C11.9637 7.45345 12.3307 7.23202 12.5943 6.90954C12.8578 6.58706 13.0018 6.18338 13.0018 5.76689C13.0018 5.3504 12.8578 4.94672 12.5943 4.62424C12.3307 4.30176 11.9637 4.08033 11.5556 3.99745V3.99745Z"/>
  </g>
  <defs>
    <clipPath id="">
      <rect fill="currentColor" width="13" height="13"/>
    </clipPath>
  </defs>
</svg>
