<?xml version="1.0" encoding="utf-8"?>
<!-- Generator: Adobe Illustrator 16.0.0, SVG Export Plug-In . SVG Version: 6.00 Build 0)  -->
<!DOCTYPE svg PUBLIC "-//W3C//DTD SVG 1.1//EN" "http://www.w3.org/Graphics/SVG/1.1/DTD/svg11.dtd">
<svg version="1.1" id="Layer_1" xmlns="http://www.w3.org/2000/svg" xmlns:xlink="http://www.w3.org/1999/xlink" x="0px" y="0px"
	 width="1400px" height="1409px" viewBox="0 1801.5 1400 1409" enable-background="new 0 1801.5 1400 1409" xml:space="preserve">
<path id="iconmonstr-link-1_1_" fill="#FFFFFF" d="M362.353,2310.588c148.235-148.235,387.06-148.235,527.06,0
	c16.471,16.471,32.941,41.177,49.411,57.647L807.059,2500c-41.176-82.353-131.765-131.765-222.353-115.294
	c-41.177,8.235-74.118,24.706-98.823,49.411l-247.059,247.06c-74.118,74.117-74.118,197.646,0,280
	c74.118,74.117,197.647,74.117,280,0l0,0l74.118-74.118c74.117,24.706,148.235,41.177,222.353,32.941l-172.94,172.941
	c-148.235,148.235-387.06,148.235-527.06,0s-148.235-387.059,0-527.059C107.059,2557.647,362.353,2310.588,362.353,2310.588z
	 M757.646,1907.059L592.941,2080c74.117-8.235,148.235,8.235,214.117,32.941l74.118-74.118c74.117-74.117,197.646-74.117,280,0
	c82.353,74.118,74.117,197.647,0,280l-255.294,247.06c-74.118,74.117-197.647,74.117-280,0
	c-8.235-16.471-24.706-41.177-32.941-65.883l-131.765,131.765c16.471,24.706,32.94,41.177,49.411,57.647
	c148.235,148.235,387.059,148.235,527.06,0l0,0l247.059-247.06c148.235-148.235,148.235-387.059,0-527.059
	S905.883,1767.059,757.646,1907.059L757.646,1907.059L757.646,1907.059z"/>
</svg>
