<?xml version="1.0"?>
<svg xmlns="http://www.w3.org/2000/svg" viewBox="0 0 36 36" fill="none">
  <path d="M15.1 16.47C14.7407 16.4398 14.3806 16.5188 14.067 16.6967C13.7533 16.8746 13.5007 17.1431 13.3422 17.467C13.1837 17.7908 13.1267 18.155 13.1787 18.5118C13.2307 18.8687 13.3892 19.2015 13.6336 19.4666C13.8779 19.7318 14.1966 19.917 14.548 19.998C14.8994 20.079 15.267 20.052 15.6028 19.9205C15.9385 19.789 16.2267 19.5592 16.4297 19.2611C16.6326 18.963 16.7407 18.6106 16.74 18.25C16.7494 18.0254 16.7144 17.8012 16.637 17.5901C16.5596 17.3791 16.4414 17.1853 16.2891 17.02C16.1368 16.8547 15.9533 16.721 15.7493 16.6266C15.5453 16.5323 15.3246 16.4791 15.1 16.47ZM20.94 16.47C20.5807 16.4398 20.2206 16.5188 19.907 16.6967C19.5933 16.8746 19.3407 17.1431 19.1822 17.467C19.0237 17.7908 18.9667 18.155 19.0187 18.5118C19.0707 18.8687 19.2292 19.2015 19.4736 19.4666C19.7179 19.7318 20.0366 19.917 20.388 19.998C20.7394 20.079 21.107 20.052 21.4428 19.9205C21.7785 19.789 22.0667 19.5592 22.2696 19.2611C22.4726 18.963 22.5807 18.6106 22.58 18.25C22.5894 18.0254 22.5544 17.8012 22.477 17.5901C22.3996 17.3791 22.2814 17.1853 22.1291 17.02C21.9768 16.8547 21.7933 16.721 21.5893 16.6266C21.3853 16.5323 21.1646 16.4791 20.94 16.47ZM28 3.05005H8C6.93913 3.05005 5.92172 3.47148 5.17157 4.22162C4.42143 4.97177 4 5.98918 4 7.05005V27.05C4 28.1109 4.42143 29.1283 5.17157 29.8785C5.92172 30.6286 6.93913 31.05 8 31.05H25.42L24.58 28.1101L32 34.8V7.05005C32 5.98918 31.5786 4.97177 30.8284 4.22162C30.0783 3.47148 29.0609 3.05005 28 3.05005ZM22.54 24C22.54 24 21.97 23.3101 21.49 22.7001C22.6487 22.4307 23.6734 21.757 24.38 20.8C23.804 21.1817 23.1868 21.497 22.54 21.74C21.7964 22.0603 21.0177 22.2919 20.22 22.43C18.8524 22.6921 17.4476 22.6921 16.08 22.43C15.276 22.2775 14.4889 22.0464 13.73 21.74C13.3279 21.5876 12.9369 21.4071 12.56 21.2001L12.42 21.1201L12.35 21C12.06 20.84 11.9 20.73 11.9 20.73C12.5858 21.6658 13.5757 22.334 14.7 22.6201C14.22 23.2301 13.63 23.9501 13.63 23.9501C12.6793 23.9722 11.7375 23.7614 10.887 23.3361C10.0364 22.9108 9.30272 22.2839 8.75 21.51C8.802 18.2682 9.592 15.0809 11.06 12.19C12.3455 11.1767 13.915 10.5895 15.55 10.51L15.71 10.7C14.1706 11.0801 12.7334 11.7936 11.5 12.79C11.5 12.79 11.86 12.6 12.45 12.33C13.6006 11.81 14.8254 11.4726 16.08 11.33H16.35C17.4227 11.1991 18.5073 11.1991 19.58 11.33C21.2713 11.5196 22.909 12.0395 24.4 12.86C23.2242 11.9162 21.8605 11.2344 20.4 10.86L20.62 10.61C22.2579 10.6901 23.8304 11.2771 25.12 12.29C26.5822 15.1826 27.3687 18.3693 27.42 21.6101C26.8594 22.3722 26.1229 22.9876 25.2732 23.4037C24.4235 23.8199 23.4858 24.0244 22.54 24Z" fill="currentColor"/>
</svg>
