<?xml version="1.0"?>
<svg version="1.1" id="Layer_2" xmlns="http://www.w3.org/2000/svg" x="0px" y="0px" width="256px" height="256px" viewBox="0 0 256 256">
  <path d="M16.757,233.795c-1.324,3.973,2.455,7.752,6.427,6.428l50.912-16.971l-40.368-40.367L16.757,233.795z"/>
  <rect x="83.614" y="75.466" transform="matrix(-0.7071 -0.7071 0.7071 -0.7071 93.7468 324.5916)" width="60.971" height="134.827"/>
  <rect x="149.28" y="68.116" transform="matrix(-0.7071 -0.7071 0.7071 -0.7071 252.0431 259.4951)" width="60.971" height="18.862"/>
  <path d="M233.545,37.803l-14.368-14.369c-7.928-7.928-20.846-7.897-28.809,0.064l-14.305,14.307l43.112,43.111l14.306-14.305 C241.511,58.582,241.513,45.771,233.545,37.803z"/>
</svg>
