<?xml version="1.0"?>
<svg version="1.1" id="Layer_1" xmlns="http://www.w3.org/2000/svg" x="0px" y="0px" viewBox="0 0 32 32" enable-background="new 0 0 32 32">
  <g>
    <path fill="white" d="M28.4,1.49H3.79c-1.99,0-3.6,1.61-3.6,3.6v14.88c0,1.99,1.61,3.6,3.6,3.6h2.37c0,1.61-0.38,3.7-1.51,5.88
			c-0.28,0.57-0.19,1.33,0.19,1.8c0.28,0.38,0.76,0.47,1.14,0.47c0.19,0,0.38,0,0.57-0.09c4.07-1.61,7.57-5.59,9.47-8.05h12.4
			c1.99,0,3.6-1.61,3.6-3.6V5.1C31.91,3.11,30.3,1.49,28.4,1.49z M8.23,14.97c-1.33,0-2.37-1.04-2.37-2.37s1.04-2.37,2.37-2.37
			s2.37,1.04,2.37,2.37S9.56,14.97,8.23,14.97z M15.99,14.97c-1.33,0-2.37-1.04-2.37-2.37s1.04-2.37,2.37-2.37
			c1.33,0,2.37,1.04,2.37,2.37S17.32,14.97,15.99,14.97z M23.85,14.97c-1.33,0-2.37-1.04-2.37-2.37s1.04-2.37,2.37-2.37
			c1.33,0,2.37,1.04,2.37,2.37S25.18,14.97,23.85,14.97z"/>
  </g>
</svg>
