<?xml version="1.0"?>
<svg xmlns="http://www.w3.org/2000/svg" viewBox="0 0 279 193" fill="none">
  <g clip-path="">
    <path fill="currentColor" d="M163.418 50.575C163.418 50.086 163.021 49.688 162.531 49.688C162.041 49.688 161.643 50.085 161.643 50.575C161.643 51.065 162.04 51.464 162.531 51.464C163.021 51.464 163.418 51.065 163.418 50.575Z"/>
    <path fill="currentColor" d="M166.762 50.575C166.762 50.086 166.366 49.688 165.875 49.688C165.384 49.688 164.988 50.085 164.988 50.575C164.988 51.065 165.384 51.464 165.875 51.464C166.366 51.464 166.762 51.065 166.762 50.575Z"/>
    <path fill="currentColor" d="M170.108 50.575C170.108 50.086 169.711 49.688 169.221 49.688C168.731 49.688 168.333 50.085 168.333 50.575C168.333 51.065 168.73 51.464 169.221 51.464C169.711 51.464 170.108 51.065 170.108 50.575Z"/>
    <path fill="currentColor" d="M108.144 31.5112H104.477V33.5972H108.144V31.5112Z"/>
    <path fill="currentColor" d="M102.166 30.9191H105.088V30.1731H101.421V32.4561H103.729V31.7091H102.166V30.9191Z"/>
    <path fill="currentColor" d="M175.844 30.2612H171.14V31.0072H175.844V30.2612Z"/>
    <path fill="currentColor" d="M175.844 31.6011H171.14V32.3471H175.844V31.6011Z"/>
    <path fill="currentColor" d="M175.844 32.9402H171.14V33.6862H175.844V32.9402Z"/>
    <path fill="currentColor" d="M219.262 79.468L221.809 72.146H223.23L225.777 79.468H224.196L223.752 78.077H221.3L220.853 79.468H219.262ZM221.691 76.825H223.346L222.519 74.246L221.691 76.825Z"/>
    <path fill="currentColor" d="M242.664 52.2522C244.393 52.2522 245.338 52.8682 245.338 54.1732C245.338 54.9272 244.956 55.4462 244.373 55.7342C245.126 56.0082 245.572 56.5602 245.572 57.4742C245.572 58.6092 244.829 59.5752 242.898 59.5752H240.212V52.2532L242.664 52.2522ZM241.699 55.1492H242.685C243.502 55.1492 243.853 54.8312 243.853 54.3112C243.853 53.8002 243.597 53.5032 242.527 53.5032H241.699V55.1492ZM241.699 58.3222H242.771C243.662 58.3222 244.086 57.9812 244.086 57.3562C244.086 56.6672 243.629 56.4012 242.631 56.4012H241.698V58.3222H241.699Z"/>
    <path fill="currentColor" d="M198.893 59.5581L200.95 55.7801L199.114 52.2351H200.729L201.895 54.5691L203.072 52.2351H204.675L202.828 55.7801L204.897 59.5581H203.295L201.895 57.0631L200.504 59.5581H198.893Z"/>
    <path fill="currentColor" d="M221.195 31.8611L222.501 34.5891L223.816 31.8611H225.524L223.243 36.1901V39.1831H221.757V36.1901L219.477 31.8611H221.195Z"/>
    <path fill="currentColor" d="M112.385 49.1451C113.329 49.1451 114.188 49.3921 114.844 49.9211L115.262 49.4541C114.698 48.9891 113.418 48.5251 112.385 48.5251C111.35 48.5251 110.307 48.8541 109.521 49.4671L109.926 49.9201C110.582 49.3921 111.439 49.1451 112.385 49.1451Z"/>
    <path fill="currentColor" d="M112.384 50.6082C112.945 50.6082 113.456 50.7272 113.857 51.0282L114.248 50.5902C113.796 50.2272 113.204 50.0022 112.385 50.0022C111.576 50.0022 110.985 50.2042 110.526 50.5902L110.918 51.0282C111.315 50.7282 111.823 50.6082 112.384 50.6082Z"/>
    <path fill="currentColor" d="M112.39 52.6751L111.564 51.7511C111.564 51.7511 111.81 51.4951 112.384 51.4951C112.958 51.4951 113.212 51.7511 113.212 51.7511L112.39 52.6751Z"/>
    <path fill="currentColor" d="M276.7 121.109L276.52 119.729C276.52 119.718 274.871 109.348 273.95 104.718C269.221 80.8891 263.1 55.8581 255.74 30.3381C255.591 29.8181 255.35 29.3991 255.18 29.1281C255.1 29.0081 255.01 28.8991 254.909 28.7981C254.909 28.7981 249.26 23.1681 248.92 22.8091C248.18 22.0291 247.409 21.2191 246.58 20.6881C246.439 20.5981 245.699 20.2791 245.43 20.1491C244.64 19.7681 244.1 19.5181 243.7 19.3481C243.69 19.3091 243.68 19.2681 243.671 19.2291C243.641 19.1491 243.621 19.0791 243.591 18.9991C243.57 18.9591 243.551 18.9191 243.53 18.8901C242.73 17.1891 241.82 15.4991 240.94 13.8591L240.65 13.2991C240.53 13.0791 240.407 12.8901 240.217 12.7301C240.036 12.5411 239.82 12.4191 239.71 12.3491C239.689 12.3391 239.42 12.1691 239.31 12.1201C233.77 9.65014 223 5.84014 222.99 5.84014C219.86 4.55014 216.421 3.33014 212.18 1.99014C210.83 1.56014 209.02 1.06014 207.07 1.06014C206.27 1.06014 205.49 1.15014 204.76 1.32014C203.07 1.00914 201.43 0.730137 199.86 0.500137C199.831 0.490137 197.6 0.200137 197.34 0.170137C197.19 0.141137 197.06 0.141137 196.93 0.141137C196.2 0.141137 195.49 0.420137 194.95 0.920137C194.791 1.04014 194.66 1.19014 194.541 1.35914C194.28 1.70014 192.851 3.58014 191.831 4.90014C177.45 4.03014 161.65 3.57014 142.221 3.47014C142.211 3.47014 126.541 3.54914 126.241 3.54914C126.241 3.54914 107.042 3.97014 98.3507 4.32914C96.9197 4.39914 95.6407 4.44914 94.4107 4.49914C92.0917 4.57914 89.8817 4.65914 87.2407 4.87914C86.3507 3.70914 85.2707 2.27914 84.5417 1.29914C84.4407 1.15914 84.3207 1.03914 84.1907 0.939137C83.7307 0.549137 82.9907 0.140137 81.9197 0.140137C81.3297 0.140137 80.8147 0.267137 80.3507 0.349137C80.0917 0.396137 75.9707 1.01914 74.3297 1.32014C73.5907 1.15014 72.8097 1.06014 71.9897 1.06014C70.9197 1.06014 69.7607 1.20914 68.5697 1.50914C68.5407 1.51914 68.5097 1.51914 68.4797 1.53014C64.1897 2.79014 60.0197 4.24014 56.1107 5.83014C56.0897 5.84014 56.0697 5.85014 56.0497 5.85914C50.7797 7.54914 45.3097 9.65014 39.7797 12.1201C39.4687 12.2601 39.1687 12.4901 38.9687 12.7691L38.8597 12.9191C38.8597 12.9191 38.5667 13.3601 38.4087 13.5791C36.9787 15.6881 36.0397 17.5691 35.5587 19.2891C35.1387 19.4491 34.5687 19.7201 33.6677 20.1491C33.3977 20.2791 32.9387 20.4791 32.9177 20.4891C32.2287 20.7391 31.6577 21.2891 30.7987 22.1781C30.6487 22.3281 30.5487 22.4491 30.4787 22.5081C30.4587 22.5291 28.8987 24.0881 28.8987 24.0881C28.1997 24.7981 26.6097 26.3781 26.5787 26.4081C26.3597 26.6481 26.0297 26.9581 25.6887 27.2881C24.9787 27.9691 24.2587 28.6581 23.7487 29.3891C23.6887 29.4791 23.6397 29.5691 23.5897 29.6591C23.5497 29.7591 23.4987 29.8791 23.4697 29.9791C22.7297 32.4991 21.9597 35.1781 21.2487 37.7191C19.1887 44.9691 17.1087 52.8191 14.6797 62.3891C10.1597 80.9991 5.48972 100.209 2.57972 119.669C2.57972 119.69 2.47972 120.44 2.47972 120.44C0.679716 133.98 -1.19028 147.98 1.46972 161.759C2.95972 169.32 5.38972 175.299 8.91872 180.059C12.4597 185.049 17.5597 188.82 23.2387 190.65C26.3597 191.589 29.5187 192.07 32.6787 192.07C38.6487 192.07 44.1677 190.389 48.6287 187.219C59.5187 179.379 65.6387 164.249 71.0287 150.9C72.0677 148.33 74.0487 143.58 74.0577 143.549C74.3077 142.889 74.5977 142.139 74.9167 141.409C75.1377 140.989 76.1177 139.598 76.2877 139.339C76.4477 139.159 77.1277 138.4 77.2977 138.209C79.6777 135.949 82.7917 134.624 85.8617 134.594C85.8617 134.594 86.0297 134.592 86.3067 134.57H188.147C189.727 134.57 191.297 134.57 192.857 134.58C196.607 134.59 200.208 136.25 202.487 139C203.248 139.94 203.807 140.75 204.227 141.52C204.227 141.52 207.047 148.39 208.097 150.991C213.407 164.14 219.437 179.041 230.157 187.001C234.687 190.321 240.298 192.081 246.397 192.081C249.547 192.081 252.717 191.601 255.817 190.661C261.368 188.861 266.378 185.221 269.947 180.39C273.758 175.25 276.368 168.81 277.697 161.241C280.221 147.869 278.431 134.259 276.7 121.109ZM211.521 3.97914C213.201 4.50814 214.751 5.00814 216.201 5.51814C212.891 4.62814 209.531 3.85814 206.161 3.20814C208.051 2.98914 209.98 3.47914 211.521 3.97914ZM193.03 6.97914L193.461 6.37814C194.591 4.91814 196.45 2.47914 196.45 2.47914C196.591 2.29814 196.801 2.19914 197.03 2.22914C197.051 2.22914 198.49 2.43814 199.35 2.53914L199.85 2.60814C201.48 2.85814 203.11 3.12914 204.74 3.43814C204.77 3.44914 204.81 3.45914 204.85 3.45914C209.15 4.25914 213.43 5.24914 217.64 6.40914C224.22 8.24914 231.2 10.7991 238.38 13.9991C238.512 14.0691 238.547 14.0991 238.58 14.1191C238.652 14.1861 238.683 14.2291 238.699 14.2681L238.929 14.6991C239.749 16.2201 240.589 17.7891 241.339 19.3291L241.509 19.8491L241.569 20.4901C241.466 20.6161 236.29 18.6701 233.809 17.7801C228.729 15.9601 223.489 14.0701 218.149 12.6501C214.439 11.5701 210.489 10.5701 206.409 9.67914C203.46 8.99014 200.319 8.41914 197.08 7.99014C196.989 7.98014 196.899 7.97014 196.809 7.96014L196.319 7.90014C196.149 7.87914 195.979 7.85914 195.809 7.83914C194.889 7.73014 193.949 7.60914 193.029 7.45914L193.03 6.97914ZM69.0907 3.52914C70.4897 3.17814 71.7707 3.07914 72.9197 3.20914C69.4507 3.87914 66.1407 4.64014 62.9407 5.49914C64.9507 4.79914 67.0107 4.14014 69.0907 3.52914ZM37.6807 19.8491L37.8407 19.3101C38.4707 17.3301 39.7397 15.3901 40.7397 13.9801C47.8997 10.7991 54.8707 8.25014 61.4507 6.41014C65.5197 5.26914 69.7497 4.29014 74.2397 3.46014C74.2697 3.46014 74.3007 3.46014 74.3297 3.45014C75.7697 3.17014 77.2497 2.92014 78.7497 2.67914C78.7497 2.67914 80.3157 2.47214 80.8107 2.39014C81.5477 2.26714 82.2207 2.07914 82.6907 2.49014C83.4907 3.57014 84.6907 5.15014 85.6307 6.38014L86.0307 6.98114L86.0597 7.47114C84.9797 7.63014 82.2807 7.96014 82.2807 7.96014C81.7907 8.02014 81.2907 8.08014 80.8007 8.14114C74.4007 9.12014 68.2107 10.6701 63.0107 12.0501C54.7707 14.2701 39.2797 19.9591 39.1697 20.0001C38.9217 20.0851 37.5697 20.4901 37.5507 20.4901C37.5797 20.2791 37.6207 20.0601 37.6807 19.8491ZM27.2297 28.7591C27.5997 28.4001 27.9597 28.0601 28.2297 27.7591C28.9597 27.0601 29.7397 26.2691 30.4897 25.5091C30.9897 24.9991 31.4897 24.4891 31.9697 24.0191C32.0697 23.9291 32.2197 23.7691 32.4087 23.5801C32.5987 23.3801 32.8887 23.0801 33.1487 22.8401L34.6097 22.0201C35.2387 21.7211 36.3887 21.1701 36.6787 21.1101C36.7007 21.1171 36.7287 21.1211 36.7477 21.1211H36.9627C37.0037 21.1171 37.2377 21.0811 37.2377 21.0811C37.2887 21.0711 37.5987 20.9991 37.7087 20.9611C38.0187 20.9111 39.5587 20.3921 39.6287 20.3411C46.7987 17.7111 54.9387 14.7411 63.1287 12.5311C68.3277 11.1511 74.4977 9.61014 80.8687 8.63114C81.5287 8.55114 82.1877 8.47214 82.8477 8.39214C83.9877 8.25114 85.1667 8.11114 86.3077 7.92114H86.3177C86.4977 7.90114 86.6677 7.87114 86.8387 7.84114C86.8687 7.84114 86.9077 7.82114 86.9387 7.80114C86.9987 7.77114 87.0587 7.73214 87.0887 7.70114C87.1287 7.65114 87.1577 7.59114 87.1577 7.53114V7.34914C96.8877 6.78014 107.418 6.39014 120.238 6.12014C120.268 6.12014 120.289 6.12014 120.308 6.10914L153.978 6.04914C166.999 6.22014 179.768 6.65014 191.928 7.34914V7.53014C191.928 7.59014 191.988 7.68914 192.038 7.74014C192.058 7.76014 192.197 7.84014 192.248 7.84014C193.388 8.04014 194.588 8.19014 195.748 8.33014C196.168 8.38014 196.598 8.43014 197.018 8.48014C200.238 8.91014 203.358 9.47014 206.298 10.1691C210.368 11.0491 214.308 12.0491 218.018 13.1291C223.338 14.5391 228.579 16.4191 233.638 18.2391C236.128 19.1391 238.698 20.0591 241.188 20.8991C241.265 20.9281 242.397 21.2501 242.408 21.1081C242.698 21.1691 243.848 21.7191 244.478 22.0181C244.608 22.0791 244.708 22.1281 244.808 22.1881L245.928 22.8381C246.368 23.2081 246.838 23.7081 247.298 24.1881C247.678 24.5881 248.038 24.9591 248.348 25.2391C249.158 26.0791 250.028 26.9491 250.858 27.7591L252.669 29.5701C252.599 29.5401 252.528 29.5191 252.439 29.5091L252.409 29.4891C252.29 29.4381 252.149 29.3691 251.989 29.3581C240.199 23.7581 229.63 19.6191 219.689 16.6991C214.519 15.2091 210.299 14.1081 206.399 13.2491C203.439 12.5991 200.259 11.9491 197.08 11.5191C192.189 10.9291 187.12 10.7301 182.21 10.5401L181.39 10.5001C166.69 9.93014 152.62 9.66014 139.55 9.68014C126.239 9.67014 113.28 9.90114 101.07 10.3911C99.8897 10.4401 98.7007 10.4811 97.5197 10.5201C92.4097 10.7011 87.1207 10.8801 81.9697 11.5201C76.4087 12.3401 70.5497 13.6211 62.9897 15.6801C62.9507 15.6701 62.9097 15.6701 62.8707 15.6901C61.7207 16.0101 60.5697 16.3401 59.4197 16.6801C59.3997 16.6901 59.3807 16.7011 59.3607 16.7101C50.4097 19.4391 42.4997 22.3501 35.1897 25.6301C34.0797 26.1201 32.9697 26.6511 31.8897 27.1601C31.0097 27.5801 30.1197 28.0001 29.2197 28.4101C28.4797 28.7691 27.7997 29.0901 27.1107 29.3301C27.0197 29.3591 26.9297 29.4001 26.8397 29.4391C26.6797 29.5001 26.5197 29.5601 26.3797 29.5891C26.6407 29.3191 26.9397 29.0391 27.2297 28.7591ZM275.501 160.699C274.221 167.909 271.751 174.029 268.16 178.888C264.871 183.338 260.27 186.689 255.2 188.319C246.74 190.888 237.9 189.659 231.581 185.018C221.371 177.439 215.471 162.848 210.27 149.979C209.21 147.369 208.22 144.909 207.22 142.588C207.03 142.068 206.83 141.568 206.62 141.058L206.34 140.378C205.85 139.458 205.18 138.468 204.29 137.378C201.58 134.098 197.319 132.128 192.89 132.108H188.34C182.63 132.108 176.92 132.118 171.21 132.128C163.68 132.149 156.149 132.158 148.62 132.149H130.51C122.95 132.159 115.38 132.149 107.82 132.128C100.49 132.118 93.1597 132.108 85.8297 132.108C85.7807 132.108 85.7397 132.128 85.7107 132.148C82.0607 132.217 78.3907 133.778 75.5907 136.467C75.4097 136.677 75.2307 136.887 75.0407 137.097C74.8297 137.327 74.6307 137.557 74.4097 137.807C74.2297 138.087 74.0407 138.358 73.8497 138.627C73.4897 139.137 73.1207 139.667 72.8197 140.247C72.4607 141.047 72.1397 141.867 71.8807 142.567C70.8907 144.867 69.9097 147.296 68.8707 149.877C63.5797 162.947 57.5997 177.757 47.2607 185.207C40.9507 189.677 32.2207 190.847 23.8907 188.317C18.6807 186.647 13.9997 183.176 10.7107 178.546C7.39072 174.067 5.09072 168.386 3.66972 161.176C1.09072 147.756 2.91972 133.937 4.70072 120.576L4.80072 119.876C7.69072 100.506 12.3507 81.3161 16.8607 62.7661C19.2817 53.2171 21.3617 45.3971 23.4207 38.1471C24.1317 35.5961 24.8917 32.9471 25.6217 30.4571C25.6907 30.3561 25.7707 30.2571 25.8617 30.1471H26.1407C26.1807 30.1471 26.3417 30.1431 26.4137 30.1231C26.6887 30.0361 26.7907 29.9871 27.0197 29.8971C27.1107 29.8561 27.1897 29.8271 27.2807 29.7961C27.9897 29.5461 28.6797 29.2171 29.4297 28.8561C30.3287 28.4471 31.2197 28.0271 32.0997 27.6061C33.1797 27.0961 34.2897 26.5671 35.3897 26.0771C42.7007 22.8071 50.5897 19.8971 59.5397 17.1671C59.5597 17.1671 59.5787 17.1571 59.5997 17.1471C60.6797 16.8171 61.7697 16.5061 62.8607 16.1971C62.9097 16.2071 62.9507 16.2071 62.9897 16.1971C70.5907 14.1171 76.4697 12.8271 82.0307 12.0071C87.1597 11.3771 92.4297 11.1871 97.5307 11.0071C98.7197 10.9681 99.9097 10.9271 101.091 10.8771C113.291 10.3981 126.25 10.1481 139.551 10.1671C152.621 10.1471 166.681 10.4271 181.371 10.9971L182.19 11.0271C187.09 11.2171 192.15 11.4171 197.02 12.0061C200.18 12.4261 203.34 13.0861 206.3 13.7271C210.18 14.5861 214.39 15.6861 219.55 17.1661C229.48 20.0861 240.04 24.2271 251.83 29.8261C251.87 29.8461 251.909 29.8551 251.949 29.8461C252.019 29.8461 252.109 29.8971 252.189 29.9361L252.279 29.9771C252.319 29.9971 252.37 30.0061 252.399 29.9971C252.429 30.0071 252.489 30.0171 252.549 30.0371C252.629 30.0771 252.738 30.1171 252.859 30.1171C252.939 30.1471 253.029 30.1571 253.099 30.1571C253.139 30.1571 253.179 30.1571 253.219 30.1471H253.259L253.299 30.1861C253.399 30.3361 253.509 30.5371 253.569 30.7561C260.92 56.2361 267.029 81.2171 271.75 105.006C272.67 109.616 273.529 114.616 274.3 119.866L274.47 121.236C276.181 134.219 277.95 147.649 275.501 160.699Z"/>
    <path fill="currentColor" d="M100.529 126.146L101.145 124.94H101.571V127.153H101.142V125.78L100.66 126.756H100.388L99.9133 125.79V127.153H99.4873V124.94H99.9073L100.529 126.146Z"/>
    <path fill="currentColor" d="M102.958 127.153H102.509V125.409L102.192 125.617V125.185L102.554 124.94H102.958V127.153Z"/>
    <path fill="currentColor" d="M176.518 126.161L177.134 124.955H177.56V127.168H177.13V125.795L176.648 126.77H176.376L175.901 125.805V127.168H175.476V124.955H175.896L176.518 126.161Z"/>
    <path fill="currentColor" d="M179.308 127.168H177.942V126.879L178.683 126.007C178.821 125.847 178.888 125.712 178.888 125.568C178.888 125.388 178.756 125.299 178.612 125.299C178.462 125.299 178.349 125.391 178.336 125.568H177.94C177.94 125.186 178.253 124.926 178.636 124.926C179.032 124.926 179.334 125.202 179.334 125.568C179.334 125.86 179.142 126.088 179 126.255L178.545 126.791H179.309L179.308 127.168Z"/>
    <path fill="currentColor" d="M133.647 35.9392C133.888 37.1432 134.953 38.0522 136.227 38.0522C137.677 38.0522 138.858 36.8713 138.858 35.4213C138.858 35.3793 138.857 35.3383 138.855 35.2963L142.015 33.0413C142.041 33.0413 142.068 33.0432 142.095 33.0432C144.028 33.0432 145.601 31.4703 145.601 29.5373C145.601 27.6033 144.028 26.0312 142.095 26.0312C140.161 26.0312 138.589 27.6033 138.589 29.5373C138.589 29.5523 138.589 29.5663 138.589 29.5823L136.372 32.7932C136.324 32.7912 136.275 32.7893 136.226 32.7893C135.676 32.7893 135.166 32.9572 134.745 33.2462L129.778 31.1933C129.758 31.4373 129.747 31.6832 129.747 31.9322C129.747 32.8132 129.872 33.6652 130.101 34.4732L133.647 35.9392ZM142.096 27.2003C143.384 27.2003 144.432 28.2492 144.432 29.5382C144.432 30.8252 143.384 31.8722 142.096 31.8722C140.808 31.8722 139.76 30.8252 139.76 29.5382C139.76 28.2492 140.808 27.2003 142.096 27.2003ZM135.59 36.7432C136.33 37.0522 137.183 36.7002 137.49 35.9602C137.799 35.2192 137.449 34.3682 136.707 34.0592L135.528 33.5722C135.983 33.4002 136.5 33.3922 136.983 33.5932C137.47 33.7962 137.849 34.1772 138.05 34.6632C138.251 35.1512 138.249 35.6882 138.046 36.1752C137.628 37.1812 136.468 37.6572 135.464 37.2392C134.999 37.0442 134.65 36.6923 134.446 36.2703L135.59 36.7432Z"/>
    <path fill="currentColor" d="M142.1 31.2881C143.069 31.2881 143.855 30.5031 143.855 29.5321C143.855 28.5631 143.069 27.7781 142.1 27.7781C141.13 27.7781 140.344 28.5631 140.344 29.5321C140.344 30.5031 141.13 31.2881 142.1 31.2881Z"/>
    <g filter="">
      <path stroke="currentColor" stroke-width="0.4" d="M101.096 112.494C99.6367 112.494 98.1777 112.342 96.7287 112.041C96.7187 112.04 96.7087 112.039 96.6997 112.037C94.9967 111.681 93.7587 110.165 93.7467 108.426V108.42V98.9741C93.7467 98.9311 93.7497 98.9451 93.7467 98.9021C93.7307 98.6621 93.5317 98.4681 93.2957 98.4331C93.2597 98.4351 93.2407 98.4341 93.2067 98.4341H83.7937C83.7887 98.4341 83.7817 98.4341 83.7777 98.4341C82.0277 98.4341 80.5007 97.1911 80.1407 95.4801C80.1377 95.4661 80.1367 95.4551 80.1357 95.4431C79.5327 92.5481 79.5327 89.6131 80.1367 86.7181C80.1377 86.7061 80.1387 86.6951 80.1407 86.6851C80.4987 84.9721 82.0257 83.7671 83.7737 83.7671C83.8207 83.7671 83.8557 83.7691 83.9087 83.7671H93.2067C93.4927 83.7671 93.7197 83.5771 93.7717 83.3231C93.7797 83.2811 93.7757 83.2581 93.7757 83.2221L93.7467 73.7431C93.7467 71.9751 94.9887 70.4461 96.6997 70.0881C96.7507 70.0781 96.7777 70.0701 96.8307 70.0621C99.6617 69.4871 102.549 69.4851 105.38 70.0621C105.455 70.0821 105.455 70.0821 105.496 70.0891C107.207 70.4461 108.405 71.9761 108.405 73.7241C108.405 73.7711 108.414 73.8081 108.412 73.8551V83.2091C108.412 83.5171 108.663 83.7671 108.97 83.7671L118.342 83.7361C118.4 83.7361 118.417 83.7301 118.455 83.7301C120.203 83.7301 121.677 84.9721 122.036 86.6851C122.046 86.7321 122.059 86.7631 122.08 86.8391C122.655 89.6701 122.686 92.5251 122.108 95.3551C122.11 95.4111 122.1 95.4371 122.091 95.4801C121.731 97.1911 120.202 98.4341 118.454 98.4341H108.951C108.914 98.4341 108.9 98.4361 108.846 98.4341C108.597 98.4901 108.411 98.6891 108.411 98.9551L108.445 108.291C108.445 108.327 108.447 108.361 108.447 108.402C108.447 110.151 107.206 111.679 105.495 112.038C105.482 112.041 105.469 112.043 105.457 112.043C104.01 112.343 102.553 112.494 101.096 112.494Z"/>
    </g>
    <path onClick="" stroke="currentColor" stroke-width="0.4" fill="" d="M98.5348 128.466C98.1868 128.466 97.8468 128.464 97.5148 128.461C96.6378 128.461 95.9248 128.065 95.5108 127.342C95.0498 126.542 95.0518 125.471 95.5128 124.678C95.9248 123.969 96.6318 123.58 97.5008 123.58H97.5168H104.601C105.568 123.581 106.411 124.15 106.8 125.067C107.197 125.995 107.027 127.007 106.355 127.71C106.353 127.712 106.308 127.756 106.306 127.758C106.21 127.85 106.166 127.892 106.046 127.975C105.982 128.034 105.903 128.075 105.833 128.112C105.806 128.127 105.776 128.142 105.744 128.162L105.609 128.217C105.287 128.335 104.954 128.449 104.579 128.424C103.654 128.424 102.63 128.435 101.593 128.445C100.564 128.455 99.5228 128.466 98.5348 128.466Z"/>
    <path onClick="" stroke="currentColor" stroke-width="0.4" fill="" d="M174.717 128.466C174.369 128.466 174.029 128.464 173.698 128.461C172.819 128.461 172.107 128.065 171.692 127.342C171.232 126.542 171.233 125.471 171.695 124.678C172.107 123.969 172.813 123.58 173.683 123.58H173.7H180.784C181.75 123.581 182.593 124.15 182.982 125.067C183.379 125.995 183.209 127.007 182.537 127.71C182.535 127.712 182.49 127.756 182.488 127.758C182.392 127.85 182.348 127.892 182.228 127.975C182.164 128.034 182.085 128.075 182.015 128.112C181.988 128.127 181.958 128.142 181.926 128.162L181.791 128.217C181.469 128.335 181.136 128.449 180.761 128.424C179.836 128.424 178.811 128.435 177.775 128.445C176.746 128.455 175.705 128.466 174.717 128.466Z"/>
    <path onClick="" stroke="currentColor" stroke-width="0.4" fill="" d="M59.4857 69.384C51.9187 69.384 45.7607 63.228 45.7607 55.661C45.7607 48.093 51.9177 41.936 59.4857 41.936C67.0517 41.936 73.2087 48.092 73.2087 55.661C73.2087 63.228 67.0527 69.384 59.4857 69.384Z" style=""/>
    <path onClick="" stroke="currentColor" stroke-width="0.4" fill="" d="M59.4854 75.0782C48.7784 75.0782 40.0674 66.3672 40.0674 55.6602C40.0674 44.9532 48.7784 36.2422 59.4854 36.2422C70.1924 36.2422 78.9014 44.9532 78.9014 55.6602C78.9014 66.3672 70.1924 75.0782 59.4854 75.0782ZM59.4854 36.7102C49.0364 36.7102 40.5344 45.2112 40.5344 55.6602C40.5344 66.1092 49.0364 74.6102 59.4854 74.6102C69.9334 74.6102 78.4344 66.1092 78.4344 55.6602C78.4344 45.2112 69.9344 36.7102 59.4854 36.7102Z"/>
    <path onClick="" stroke="currentColor" stroke-width="0.4" fill="" d="M177.273 104.787C169.706 104.787 163.55 98.6311 163.55 91.0631C163.55 83.4951 169.705 77.3391 177.273 77.3391C184.841 77.3391 190.997 83.4941 190.997 91.0631C190.997 98.6311 184.841 104.787 177.273 104.787Z" style=""/>
    <path onClick="" stroke="currentColor" stroke-width="0.4" fill="" d="M177.272 110.481C166.565 110.481 157.855 101.771 157.855 91.063C157.855 80.356 166.565 71.645 177.272 71.645C187.979 71.645 196.69 80.356 196.69 91.063C196.69 101.771 187.979 110.481 177.272 110.481ZM177.272 72.113C166.823 72.113 158.322 80.614 158.322 91.063C158.322 101.512 166.823 110.014 177.272 110.014C187.721 110.014 196.223 101.512 196.223 91.063C196.223 80.614 187.722 72.113 177.272 72.113Z"/>
    <path onClick="" stroke="currentColor" stroke-width="0.4" fill="" d="M201.895 64.856C196.955 64.856 192.936 60.836 192.936 55.895C192.936 50.956 196.955 46.936 201.895 46.936C206.835 46.936 210.855 50.956 210.855 55.895C210.854 60.837 206.835 64.856 201.895 64.856Z"/>
    <path onClick="" stroke="currentColor" stroke-width="0.4" fill="" d="M242.802 64.856C237.862 64.856 233.842 60.836 233.842 55.895C233.842 50.956 237.862 46.936 242.802 46.936C247.742 46.936 251.761 50.956 251.761 55.895C251.761 60.837 247.742 64.856 242.802 64.856Z"/>
    <path onClick="" stroke="currentColor" stroke-width="0.4" fill="" d="M222.5 43.815C217.56 43.815 213.541 39.794 213.541 34.854C213.541 29.914 217.56 25.895 222.5 25.895C227.44 25.895 231.46 29.914 231.46 34.854C231.46 39.794 227.44 43.815 222.5 43.815Z"/>
    <path onClick="" stroke="currentColor" stroke-width="0.4" fill="" d="M222.5 84.9722C217.56 84.9722 213.541 80.9522 213.541 76.0112C213.541 71.0722 217.56 67.0522 222.5 67.0522C227.44 67.0522 231.46 71.0722 231.46 76.0112C231.46 80.9522 227.44 84.9722 222.5 84.9722Z"/>
    <path fill="currentColor" d="M176.88 117.263H101.319C86.8731 117.263 75.1191 105.509 75.1191 91.064C75.1191 76.617 86.8731 64.864 101.319 64.864H176.88C191.326 64.864 203.079 76.617 203.079 91.064C203.079 105.509 191.326 117.263 176.88 117.263ZM101.319 65.331C87.1311 65.331 75.5881 76.874 75.5881 91.063C75.5881 105.251 87.1311 116.794 101.319 116.794H176.88C191.068 116.794 202.612 105.25 202.612 91.063C202.612 76.874 191.068 65.331 176.88 65.331H101.319Z"/>
    <path stroke="currentColor" stroke-width="0.4" fill="" d="M139.156 42.1922C133.398 42.1922 128.712 37.5062 128.712 31.7472C128.712 25.9882 133.399 21.3022 139.156 21.3022C144.916 21.3022 149.601 25.9882 149.601 31.7472C149.601 37.5062 144.916 42.1922 139.156 42.1922Z"/>
    <path onClick="" stroke="currentColor" stroke-width="0.4" fill="" d="M109.936 35.1181H99.6285C97.8455 35.1181 96.3955 33.6681 96.3955 31.8851C96.3955 30.1031 97.8455 28.6521 99.6285 28.6521H109.936C111.719 28.6521 113.17 30.1031 113.17 31.8851C113.17 33.6681 111.719 35.1181 109.936 35.1181Z"/>
    <path fill="currentColor" stroke="" d="M117.539 53.7492H107.233C105.45 53.7492 104 52.2992 104 50.5162C104 48.7332 105.45 47.2832 107.233 47.2832H117.539C119.322 47.2832 120.773 48.7332 120.773 50.5162C120.773 52.2992 119.322 53.7492 117.539 53.7492ZM107.233 47.7492C105.709 47.7492 104.466 48.9912 104.466 50.5162C104.466 52.0422 105.708 53.2832 107.233 53.2832H117.539C119.064 53.2832 120.306 52.0432 120.306 50.5162C120.306 48.9922 119.065 47.7492 117.539 47.7492H107.233Z"/>
    <path stroke="currentColor" stroke-width="0.4" fill="" d="M171.028 53.7492H160.722C158.939 53.7492 157.489 52.2992 157.489 50.5162C157.489 48.7332 158.939 47.2832 160.722 47.2832H171.028C172.811 47.2832 174.261 48.7332 174.261 50.5162C174.261 52.2992 172.812 53.7492 171.028 53.7492Z"/>
    <path onClick="" stroke="currentColor" stroke-width="0.4" fill="" d="M178.644 35.1181H168.338C166.555 35.1181 165.105 33.6681 165.105 31.8851C165.105 30.1031 166.555 28.6521 168.338 28.6521H178.644C180.427 28.6521 181.877 30.1031 181.877 31.8851C181.877 33.6681 180.427 35.1181 178.644 35.1181Z"/>
    <path stroke="currentColor" fill="" d="M135.127 86.5137H144.52V95.9107H135.127V86.5137Z" stroke-width="0.4"/>
    <path stroke="currentColor" fill="white" d="M138.455 91.4126H141.17V94.1236H138.455V91.4126Z" stroke-width="0.4"/>
    <path stroke="currentColor" fill="grey" d="M138.455 88.2989H141.17V91.0119H138.455V88.2989Z" stroke-width="0.4"/>
    <path onClick="" stroke="" fill="" d="M76.0253 8.62313L85.9321 7.2551L82.3652 2.82083L81.9221 2.58496L80.6249 2.82083L76.1906 3.5756L71.5912 4.37754L64.468 6.00502L55.5759 8.48161L41.023 14.1188L38.2305 18.8546L38.0273 19.9441L38.7818 19.6852L52.1083 15.0387L60.7647 12.397L69.9397 9.92039L76.0253 8.62313Z"/>
    <path onClick="" stroke="" fill="" d="M192.881 7.32972C192.73 7.3793 193.288 6.52074 196.725 2.69032H197.555L201.626 3.11667L214.76 5.70108L224.255 8.57935L238.303 14.1977L241.383 20.0038L235.79 18.1983L223.824 14.1977L211.326 10.7283L192.881 7.32972Z"/>
    <path onClick="" stroke="" fill="" d="M94.5742 73.2884V83.3995H107.639V73.2884L107.492 72.8882L107.036 71.9401L106.176 71.1852L104.77 70.8028L103.188 70.5205L101.757 70.4263H100.157L97.9799 70.6727L96.3046 71.0846L94.8468 72.3657L94.5742 73.2884Z"/>
    <path onClick="" stroke="" fill="" d="M118.862 84.5295H108.751V97.5944H118.862L119.263 97.4478L120.211 96.9913L120.966 96.131L121.348 94.725L121.63 93.1434L121.725 91.7124V90.1119L121.478 87.9352L121.066 86.2599L119.785 84.8021L118.862 84.5295Z"/>
    <path onClick="" stroke="" fill="" d="M83.3504 97.5945H93.4615V84.5296H83.3504L82.9502 84.6763L82.0021 85.1327L81.2472 85.993L80.8648 87.399L80.5825 88.9806L80.4883 90.4116V92.0121L80.7347 94.1888L81.1466 95.8641L82.4278 97.3219L83.3504 97.5945Z"/>
    <path onClick="" stroke="" fill="" d="M107.638 108.85V98.7387H94.5728V108.85L94.7195 109.25L95.1759 110.198L96.0362 110.953L97.4422 111.335L99.0238 111.618L100.455 111.712H102.055L104.232 111.466L105.907 111.054L107.365 109.772L107.638 108.85Z"/>
  </g>
  <defs>
    <filter id="" x="75.6836" y="69.6301" width="50.8428" height="50.864" filter-units="userSpaceOnUse" color-interpolation-filters="sRGB">
      <feFlood flood-opacity="0" result="BackgroundImageFix"/>
      <feColorMatrix in="SourceAlpha" type="matrix" values="0 0 0 0 0 0 0 0 0 0 0 0 0 0 0 0 0 0 127 0" result="hardAlpha"/>
      <feOffset dy="4"/>
      <feGaussianBlur stdDeviation="2"/>
      <feComposite in2="hardAlpha" operator="out"/>
      <feColorMatrix type="matrix" values="0 0 0 0 0 0 0 0 0 0 0 0 0 0 0 0 0 0 0.25 0"/>
      <feBlend mode="normal" in2="BackgroundImageFix" result="effect1_dropShadow_109_171"/>
      <feBlend mode="normal" in="SourceGraphic" in2="effect1_dropShadow_109_171" result="shape"/>
    </filter>
    <clipPath id="">
      <rect fill="currentColor" width="278.95" height="192.124"/>
    </clipPath>
  </defs>
</svg>
