<?xml version="1.0"?>
<svg width="25" height="15" viewBox="0 0 25 15" fill="black" xmlns="http://www.w3.org/2000/svg">
  <path d="M20.4983 14.9998H5.50068C4.77794 15.0049 4.05853 14.901 3.36635 14.6914C2.73245 14.5017 2.13941 14.1939 1.6178 13.7838C1.09666 13.3667 0.67927 12.8325 0.398748 12.2237C0.118225 11.615 -0.0177451 10.9486 0.00185477 10.2775C-0.0054678 9.70509 0.0977818 9.13666 0.305747 8.60408C0.498657 8.12872 0.785143 7.69778 1.14794 7.33745C1.81398 6.67001 2.78944 6.15547 4.04731 5.80829C4.10841 4.25269 4.75842 2.77984 5.86348 1.69365C6.96903 0.60364 8.45437 -0.00449463 9.99987 2.50132e-05C11.0001 0.00807229 11.9825 0.267715 12.8582 0.7555C13.7339 1.24329 14.4753 1.9437 15.0152 2.79335C15.4947 2.6343 15.994 2.54414 16.4984 2.52541C17.9193 2.52443 19.2832 3.08972 20.2932 4.09833C21.3094 5.10022 21.9038 6.45906 21.9527 7.89189C22.9609 8.23234 23.6526 8.60787 24.1302 9.07289C24.7185 9.65279 25.0339 10.4583 24.9971 11.2875C25.0059 11.8527 24.8841 12.4122 24.6414 12.9216C24.4147 13.3796 24.0837 13.7769 23.6754 14.0808C22.8776 14.6823 21.7794 14.9998 20.4983 14.9998ZM10.6373 8.62986L9.91893 9.35485L12.1391 11.6L12.4984 11.9464L12.8573 11.6L15.0793 9.35506L14.361 8.63007L12.9987 10.005V5.55515H11.9997V10.005L10.6373 8.62986Z" fill="currentColor"/>
</svg>
