<?xml version="1.0"?>
<svg viewBox="0 0 24 24" fill="none" xmlns="http://www.w3.org/2000/svg">
  <path d="M19 20C19.5523 20 20 19.5523 20 19L20 8C20 7.44772 19.5523 7 19 7L9 7C8.44772 7 8 7.44772 8 8L8 19C8 19.5523 8.44772 20 9 20L19 20ZM10 11L10 10L18 10L18 11L10 11ZM10 14L10 13L18 13L18 14L10 14ZM10 17L10 16L18 16L18 17L10 17Z" fill="currentColor"/>
  <path d="M7 15L5 15L5 4L15 4L15 6L16 6L16 4L15.9951 3.89746C15.9472 3.42703 15.573 3.05278 15.1025 3.00488L15 3L5 3L4.89746 3.00488C4.42703 3.05278 4.05278 3.42703 4.00488 3.89746L4 4L4 15C4 15.5177 4.39333 15.9438 4.89746 15.9951L5 16L7 16L7 15Z" fill="currentColor"/>
</svg>
