<?xml version="1.0"?>
<svg xmlns="http://www.w3.org/2000/svg" viewBox="0 0 36 36" fill="none">
  <path d="M14 18C15.4706 17.9968 16.9289 18.2682 18.3 18.8C16.5605 20.2553 15.269 22.1737 14.5752 24.333C13.8814 26.4922 13.8137 28.8039 14.38 31H2V30C2 26.8174 3.26428 23.7652 5.51472 21.5147C7.76515 19.2643 10.8174 18 14 18Z" fill="currentColor"/>
  <path d="M10.6666 3.01118C11.6533 2.35189 12.8133 2 14 2C15.5913 2 17.1174 2.63214 18.2426 3.75736C19.3679 4.88258 20 6.4087 20 8C20 9.18669 19.6481 10.3467 18.9888 11.3334C18.3295 12.3201 17.3925 13.0892 16.2961 13.5433C15.1997 13.9974 13.9933 14.1162 12.8295 13.8847C11.6656 13.6532 10.5965 13.0818 9.75736 12.2426C8.91824 11.4035 8.3468 10.3344 8.11529 9.17054C7.88378 8.00666 8.0026 6.80026 8.45672 5.7039C8.91085 4.60754 9.67988 3.67047 10.6666 3.01118Z" fill="currentColor"/>
  <path fill-rule="evenodd" clip-rule="evenodd" d="M18 28C18 23.5817 21.5817 20 26 20C30.4183 20 34 23.5817 34 28C34 32.4183 30.4183 36 26 36C21.5817 36 18 32.4183 18 28ZM26 23C25.1655 23 24.3788 23.2044 23.6872 23.5659L30.4341 30.3128C30.7956 29.6212 31 28.8345 31 28C31 25.2386 28.7614 23 26 23ZM21 28C21 27.1655 21.2044 26.3788 21.5659 25.6872L28.3128 32.4341C27.6212 32.7956 26.8345 33 26 33C23.2386 33 21 30.7614 21 28Z" fill="currentColor"/>
</svg>
