<?xml version="1.0"?>
<svg version="1.1" id="Layer_1" xmlns="http://www.w3.org/2000/svg" x="0px" y="0px" width="1024px" height="256px" viewBox="0 0 1024 256">
  <defs>
    <linearGradient id="" x1="0%" y1="0%" x2="100%" y2="0%">
      <stop offset="0%" stop-color="rgb(55, 102, 251)"/>
      <stop offset="100%" stop-color="rgb(91, 106, 219)"/>
    </linearGradient>
    <linearGradient id="" x1="0%" y1="0%" x2="100%" y2="0%">
      <stop offset="0%" stop-color="rgb(91, 106, 219)"/>
      <stop offset="100%" stop-color="rgb(125, 110, 188)"/>
    </linearGradient>
  </defs>
  <circle opacity="0" fill="#000000" cx="156.586" cy="128" r="125.914"/>
  <g id="logo">
    <path fill="" d="M156.374,5.355c-64.404,0-117.167,49.661-122.18,112.77l65.712,27.171 c5.567-3.808,12.293-6.032,19.53-6.032c0.649,0,1.294,0.016,1.934,0.051l29.226-42.355c0-0.202-0.005-0.399-0.005-0.598 c0-25.496,20.74-46.241,46.237-46.241c25.498,0,46.239,20.745,46.239,46.241c0,25.494-20.741,46.241-46.239,46.241 c-0.352,0-0.698-0.01-1.047-0.021l-41.68,29.741c0.022,0.546,0.041,1.095,0.041,1.644c0,19.14-15.569,34.707-34.706,34.707 c-16.796,0-30.843-11.991-34.026-27.87l-46.993-19.429c14.55,51.464,61.831,89.19,117.957,89.19 c67.713,0,122.605-54.893,122.605-122.604C278.978,60.244,224.086,5.355,156.374,5.355"/>
    <path fill="rgb(67, 104, 241)" d="M111.026,191.387l-15.061-6.22c2.67,5.56,7.285,10.208,13.418,12.767 c13.25,5.521,28.531-0.771,34.054-14.028c2.674-6.416,2.694-13.5,0.04-19.929c-2.646-6.431-7.64-11.451-14.063-14.129 c-6.371-2.648-13.196-2.552-19.198-0.291l15.561,6.436c9.776,4.074,14.396,15.299,10.324,25.072 C132.031,190.841,120.801,195.464,111.026,191.387"/>
    <path fill="rgb(79, 105, 230)" d="M227.639,96.359c0-16.987-13.82-30.809-30.809-30.809c-16.987,0-30.812,13.821-30.812,30.809 c0,16.988,13.824,30.806,30.812,30.806C213.818,127.165,227.639,113.347,227.639,96.359 M173.736,96.306 c0-12.783,10.364-23.142,23.145-23.142c12.783,0,23.145,10.359,23.145,23.142c0,12.783-10.361,23.142-23.145,23.142 C184.1,119.447,173.736,109.089,173.736,96.306"/>
  </g>
  <g id="steam">
    <path fill="rgb(92, 106, 218)" d="M404.52,91.9l-7.968,14.006c-6.138-4.287-14.455-6.862-21.717-6.862c-8.299,0-13.437,3.43-13.437,9.586 c0,7.473,9.124,9.212,22.682,14.082c14.574,5.149,22.948,11.21,22.948,24.558c0,18.264-14.359,28.519-34.998,28.519 c-10.063,0-22.195-2.595-31.53-8.265l5.815-15.539c7.579,4.008,16.644,6.381,24.722,6.381c10.897,0,16.071-4.021,16.071-9.96 c0-6.802-7.893-8.843-20.641-13.06c-14.521-4.856-24.586-11.213-24.586-25.992c0-16.658,13.34-26.225,32.538-26.225 C387.797,83.128,398.551,87.367,404.52,91.9"/>
    <polygon fill="rgb(99, 107, 211)" points="468.163,100.753 468.163,174.252 449.402,174.252 449.402,100.753 422.166,100.753 422.166,84.663 495.315,84.663 495.315,100.753 	"/>
    <polygon fill="rgb(108, 108, 203)" points="533.512,100.706 533.512,120.896 569.417,120.896 569.417,136.982 533.512,136.982 533.512,158.014 575.173,158.014 575.173,174.253 514.757,174.253 514.757,84.665 575.173,84.665 575.173,100.706"/>
    <path fill="rgb(117, 109, 195)" d="M617.054,156.857l-5.932,17.396h-19.67l33.593-89.594h18.888l34.539,89.594h-20.336l-6.061-17.396H617.054z M634.378,106.035l-12.23,35.87h24.723L634.378,106.035z"/>
    <polygon fill="rgb(125, 110, 188)" points="773.403,119.291 748.888,171.645 738.302,171.645 714.182,119.758 714.182,174.253 696.212,174.253 696.212,84.665 714.138,84.665 744.251,149.33 773.285,84.665 791.374,84.665 791.374,174.253 773.406,174.253"/>
  </g>
  <g id="tv">
    <polygon fill="rgb(125, 110, 188)" points="853.961,92.664 823.506,92.664 823.506,84.147 893.835,84.147 893.835,92.664 863.51,92.664 863.51,174.479 853.961,174.479"/>
    <polygon fill="rgb(125, 110, 188)" points="909.835,84.147 920.286,84.147 950.612,165.831 980.033,84.147 990.487,84.147 956.421,174.479 944.159,174.479"/>
  </g>
</svg>
