<?xml version="1.0"?>
<svg viewBox="4 1 24 30" fill="none" xmlns="http://www.w3.org/2000/svg">
  <path fill-rule="evenodd" clip-rule="evenodd" d="M16.2114 23.9054C18.1701 23.9054 19.7587 25.494 19.7587 27.4527C19.7587 29.4114 18.1701 31 16.2114 31C14.2526 31 12.6641 29.4114 12.6641 27.4527C12.6641 25.494 14.2527 23.9054 16.2114 23.9054Z" fill="currentColor"/>
  <path fill-rule="evenodd" clip-rule="evenodd" d="M7.01091 9.7964C7.11325 7.49343 8.06952 5.32707 9.69945 3.69779C11.4318 1.96544 13.7608 1 16.2108 1C18.6611 1 20.9899 1.96534 22.7222 3.69779C24.4545 5.42937 25.42 7.75911 25.42 10.2092C25.42 11.8776 24.9663 13.5012 24.109 14.9322C23.2523 16.3624 22.0178 17.5368 20.5477 18.324C20.1242 18.5512 19.761 18.8723 19.5136 19.2866C19.2654 19.7001 19.1616 20.179 19.1616 20.6579V21.3933C19.1616 21.6584 18.9457 21.8743 18.6815 21.8743H13.7404C13.4761 21.8743 13.2602 21.6584 13.2602 21.3933V20.6579C13.2602 19.1043 13.6626 17.5963 14.4611 16.2636C15.2603 14.928 16.4065 13.8673 17.7764 13.1333C18.3057 12.85 18.7488 12.4238 19.0573 11.9085C19.365 11.394 19.5178 10.8078 19.5178 10.2092C19.5178 9.32859 19.1722 8.49295 18.5496 7.87046C17.9264 7.2479 17.0914 6.90227 16.2109 6.90227C15.3303 6.90227 14.4947 7.24788 13.8722 7.87046C13.312 8.43062 12.972 9.16814 12.9131 9.9582L12.8963 10.1818C12.8774 10.4363 12.6643 10.6313 12.4091 10.6271L7.47227 10.5422C7.3377 10.5394 7.22265 10.4889 7.13086 10.3907C7.03828 10.2926 6.99482 10.1748 7.00049 10.0402L7.01104 9.79628L7.01091 9.7964Z" fill="currentColor"/>
</svg>
