<?xml version="1.0"?>
<svg version="1.1" xmlns="http://www.w3.org/2000/svg" viewBox="0 0 36 36" fill="none">
  <g>
    <path d="M14.47 16.559V9.303h3.69V27h-3.69v-7.256H6.43V27H2.714V9.303H6.43v7.256h8.04ZM26.168 23.79h8.52V27H21.466v-3.084l5.107-4.247.43-.38c.775-.657 1.364-1.188 1.769-1.592a5.49 5.49 0 0 0 1.011-1.29 3.02 3.02 0 0 0 .38-1.491c0-.877-.32-1.534-.961-1.972-.624-.455-1.433-.683-2.427-.683a6.83 6.83 0 0 0-2.174.354 7.617 7.617 0 0 0-1.82.885l-1.265-2.73c.776-.54 1.66-.97 2.655-1.29A10.66 10.66 0 0 1 27.407 9c2.04 0 3.674.447 4.904 1.34s1.846 2.166 1.846 3.817a5.58 5.58 0 0 1-1.062 3.312c-.708.978-1.795 2.073-3.261 3.287l-3.666 3.033Z"/>
  </g>
</svg>
