<?xml version="1.0"?>
<svg xmlns="http://www.w3.org/2000/svg" viewBox="0 0 36 36" fill="none">
  <path d="M15.5283 25.8599C16.815 29.3044 20.1354 31.757 24.0286 31.757C29.0384 31.7571 33.0996 27.6958 33.0996 22.686C33.0996 20.18 32.0833 17.9112 30.4404 16.2695C29.1074 21.9053 24.0437 26.0987 18.0006 26.0987C17.1548 26.0987 16.3282 26.0166 15.5283 25.8599Z" fill="#40B440"/>
  <path d="M11.3767 24.2511C11.709 26.9749 12.8981 29.4341 14.6662 31.3511C13.8151 31.6154 12.9104 31.7578 11.9724 31.7578C6.9626 31.7578 2.90137 27.6966 2.90137 22.6868C2.90137 20.1803 3.91794 17.9113 5.56128 16.2695C6.35921 19.6438 8.49449 22.5012 11.3767 24.2511Z" fill="#4064FF"/>
  <circle cx="18.0022" cy="13.3177" r="9.07101" transform="rotate(-180 18.0022 13.3177)" fill="#BE4040"/>
</svg>
