<?xml version="1.0"?>
<svg width="49px" height="58px" viewBox="0 0 49 58" fill="none" xmlns="http://www.w3.org/2000/svg">
  <path fill-rule="evenodd" clip-rule="evenodd" d="M24.5 12C27.5376 12 30 9.53757 30 6.5C30 3.46243 27.5376 1 24.5 1C21.4624 1 19 3.46243 19 6.5C19 9.53757 21.4624 12 24.5 12ZM24.5 13C26.1149 13 27.5923 12.411 28.7291 11.4362L38.2929 21H11.2071L20.5469 11.6602C21.6422 12.5005 23.0128 13 24.5 13ZM9.79289 21L19.8014 10.9915C18.6855 9.8244 18 8.24225 18 6.5C18 2.91015 20.9101 0 24.5 0C28.0899 0 31 2.91015 31 6.5C31 8.11495 30.411 9.59234 29.4362 10.7291L39.7071 21H40H45C46.933 21 48.5 22.567 48.5 24.5V54C48.5 55.933 46.933 57.5 45 57.5H4C2.067 57.5 0.5 55.933 0.5 54V24.5C0.5 22.567 2.067 21 4 21H8H9.79289ZM8 22H4C2.61929 22 1.5 23.1193 1.5 24.5V54C1.5 55.3807 2.61929 56.5 4 56.5H45C46.3807 56.5 47.5 55.3807 47.5 54V24.5C47.5 23.1193 46.3807 22 45 22H40H39.5H39.2929H10.2071H10H8ZM10.5 29C9.11929 29 8 30.1193 8 31.5V48C8 49.3807 9.11929 50.5 10.5 50.5H37.5C38.8807 50.5 40 49.3807 40 48V31.5C40 30.1193 38.8807 29 37.5 29H10.5ZM9 31.5C9 30.6716 9.67157 30 10.5 30H37.5C38.3284 30 39 30.6716 39 31.5V48C39 48.8284 38.3284 49.5 37.5 49.5H10.5C9.67157 49.5 9 48.8284 9 48V31.5Z" fill=""/>
</svg>
