<?xml version="1.0"?>
<svg viewBox="0 0 36 36" fill="none" xmlns="http://www.w3.org/2000/svg">
  <g clip-path="">
    <path fill-rule="evenodd" clip-rule="evenodd" d="M21.8231 11.9293C21.8231 11.2176 22.4001 10.6406 23.1118 10.6406H28.7175C30.5561 10.6406 32.0466 12.1311 32.0466 13.9697V26.9697C32.0466 28.8083 30.5561 30.2988 28.7175 30.2988H11.6338C9.79517 30.2988 8.30469 28.8083 8.30469 26.9697V21.8365C8.30469 21.1248 8.88165 20.5478 9.59336 20.5478C10.3051 20.5478 10.882 21.1248 10.882 21.8365V26.9697C10.882 27.3849 11.2186 27.7214 11.6338 27.7214H28.7175C29.1327 27.7214 29.4693 27.3849 29.4693 26.9697V13.9697C29.4693 13.5545 29.1327 13.218 28.7175 13.218H23.1118C22.4001 13.218 21.8231 12.641 21.8231 11.9293Z" fill="currentColor"/>
    <path d="M15.7367 15.8813C15.8603 15.9985 16.0258 16.0611 16.196 16.0551C16.3662 16.0491 16.5269 15.9751 16.642 15.8495L19.9457 12.3552C20.0574 12.2373 20.1196 12.081 20.1196 11.9185C20.1196 11.7561 20.0573 11.5998 19.9456 11.4817L16.642 7.98754C16.4836 7.83383 16.2568 7.77333 16.0429 7.82773C15.829 7.88217 15.6587 8.04368 15.593 8.25437C15.5273 8.46511 15.5757 8.69481 15.7208 8.86109L18.5956 11.9265L15.7049 14.976C15.5878 15.0996 15.5251 15.2651 15.5311 15.4353C15.5371 15.6055 15.6112 15.7662 15.7367 15.8813Z" fill="currentColor"/>
    <path d="M8.54967 7.96706C8.42606 7.8499 8.26056 7.78729 8.09036 7.79323C7.92016 7.79923 7.75947 7.87327 7.64433 7.99885L4.3566 11.4931C4.24487 11.611 4.18262 11.7673 4.18262 11.9298C4.18262 12.0923 4.24487 12.2486 4.3566 12.3666L7.66021 15.8608C7.81858 16.0145 8.0454 16.075 8.25929 16.0206C8.47317 15.9662 8.64353 15.8047 8.70919 15.594C8.7749 15.3832 8.72651 15.1535 8.58139 14.9873L5.69072 11.9219L8.58139 8.8724C8.69854 8.74878 8.7612 8.58328 8.75521 8.41309C8.74926 8.24284 8.63698 8.04871 8.51145 7.93363L8.54967 7.96706Z" fill="currentColor"/>
    <path d="M10.5975 18.3253H10.7564C10.8952 18.3227 11.0294 18.2748 11.1384 18.1887C11.2474 18.1027 11.3252 17.9833 11.3599 17.8489L14.187 6.30208C14.2409 6.0808 14.1727 5.84752 14.008 5.6902C13.8433 5.53287 13.6072 5.47539 13.3886 5.53934C13.17 5.6033 13.0021 5.77903 12.9482 6.00031L10.121 17.5471C10.0782 17.7136 10.1047 17.8904 10.1945 18.0371C10.2843 18.1837 10.4298 18.2878 10.5975 18.3253Z" fill="currentColor"/>
    <path d="M15.7367 15.8813C15.8603 15.9985 16.0258 16.0611 16.196 16.0551C16.3662 16.0491 16.5269 15.9751 16.642 15.8495L19.9457 12.3552C20.0574 12.2373 20.1196 12.081 20.1196 11.9185C20.1196 11.7561 20.0573 11.5998 19.9456 11.4817L16.642 7.98754C16.4836 7.83383 16.2568 7.77333 16.0429 7.82773C15.829 7.88217 15.6587 8.04368 15.593 8.25437C15.5273 8.46511 15.5757 8.69481 15.7208 8.86109L18.5956 11.9265L15.7049 14.976C15.5878 15.0996 15.5251 15.2651 15.5311 15.4353C15.5371 15.6055 15.6112 15.7662 15.7367 15.8813Z" stroke="currentColor" stroke-linecap="round"/>
    <path d="M8.54967 7.96706C8.42606 7.8499 8.26056 7.78729 8.09036 7.79323C7.92016 7.79923 7.75947 7.87327 7.64433 7.99885L4.3566 11.4931C4.24487 11.611 4.18262 11.7673 4.18262 11.9298C4.18262 12.0923 4.24487 12.2486 4.3566 12.3666L7.66021 15.8608C7.81858 16.0145 8.0454 16.075 8.25929 16.0206C8.47317 15.9662 8.64353 15.8047 8.70919 15.594C8.7749 15.3832 8.72651 15.1535 8.58139 14.9873L5.69072 11.9219L8.58139 8.8724C8.69854 8.74878 8.7612 8.58328 8.75521 8.41309C8.74926 8.24284 8.63698 8.04871 8.51145 7.93363L8.54967 7.96706Z" stroke="currentColor" stroke-linecap="round"/>
    <path d="M10.5975 18.3253H10.7564C10.8952 18.3227 11.0294 18.2748 11.1384 18.1887C11.2474 18.1027 11.3252 17.9833 11.3599 17.8489L14.187 6.30208C14.2409 6.0808 14.1727 5.84752 14.008 5.6902C13.8433 5.53287 13.6072 5.47539 13.3886 5.53934C13.17 5.6033 13.0021 5.77903 12.9482 6.00031L10.121 17.5471C10.0782 17.7136 10.1047 17.8904 10.1945 18.0371C10.2843 18.1837 10.4298 18.2878 10.5975 18.3253Z" stroke="currentColor" stroke-linecap="round"/>
  </g>
  <defs>
    <clipPath id="">
      <rect width="36" height="36" fill="currentColor"/>
    </clipPath>
  </defs>
</svg>
