<?xml version="1.0"?>
<svg x="0px" y="0px" viewBox="0 0 720 720" style="">
  <g>
    <path d="M584.73,164.47H121.94c-55.71,0-100.87,45.16-100.87,100.87v146.51c0,55.71,45.16,100.87,100.87,100.87h462.79
				c55.71,0,100.87-45.16,100.87-100.87V265.34C685.6,209.63,640.44,164.47,584.73,164.47z M452.42,256.94
				c0-18.46,14.97-33.43,33.43-33.43h0c18.46,0,33.43,14.97,33.43,33.43v0c0,18.46-14.97,33.43-33.43,33.43h0
				C467.38,290.37,452.42,275.4,452.42,256.94L452.42,256.94z M442.1,305.16c18.46,0,33.43,14.97,33.43,33.43v0
				c0,18.46-14.97,33.43-33.43,33.43h0c-18.46,0-33.43-14.97-33.43-33.43v0C408.67,320.13,423.63,305.16,442.1,305.16L442.1,305.16z
				M364.92,256.94c0-18.46,14.97-33.43,33.43-33.43h0c18.46,0,33.43,14.97,33.43,33.43v0c0,18.46-14.97,33.43-33.43,33.43h0
				C379.88,290.37,364.92,275.4,364.92,256.94L364.92,256.94z M354.45,305.16c18.46,0,33.43,14.97,33.43,33.43v0
				c0,18.46-14.97,33.43-33.43,33.43h0c-18.46,0-33.43-14.97-33.43-33.43v0C321.02,320.13,335.99,305.16,354.45,305.16L354.45,305.16z
				M277.42,256.94c0-18.46,14.97-33.43,33.43-33.43h0c18.46,0,33.43,14.97,33.43,33.43v0c0,18.46-14.97,33.43-33.43,33.43h0
				C292.38,290.37,277.42,275.4,277.42,256.94L277.42,256.94z M266.81,305.16c18.46,0,33.43,14.97,33.43,33.43v0
				c0,18.46-14.97,33.43-33.43,33.43h0c-18.46,0-33.43-14.97-33.43-33.43v0C233.38,320.13,248.34,305.16,266.81,305.16L266.81,305.16z
				M189.92,256.94c0-18.46,14.97-33.43,33.43-33.43h0c18.46,0,33.43,14.97,33.43,33.43v0c0,18.46-14.97,33.43-33.43,33.43h0
				C204.88,290.37,189.92,275.4,189.92,256.94L189.92,256.94z M102.42,256.94c0-18.46,14.97-33.43,33.43-33.43h0
				c18.46,0,33.43,14.97,33.43,33.43v0c0,18.46-14.97,33.43-33.43,33.43h0C117.38,290.37,102.42,275.4,102.42,256.94L102.42,256.94z
				M166.76,420.25c0,18.46-14.97,33.43-33.43,33.43h0c-18.46,0-33.43-14.97-33.43-33.43v0c0-18.46,14.97-33.43,33.43-33.43h0
				C151.79,386.82,166.76,401.78,166.76,420.25L166.76,420.25z M212.59,338.59c0,18.46-14.97,33.43-33.43,33.43h0
				c-18.46,0-33.43-14.97-33.43-33.43v0c0-18.46,14.97-33.43,33.43-33.43h0C197.62,305.16,212.59,320.13,212.59,338.59L212.59,338.59z
				M498.64,420.25c0,18.46-14.97,33.43-33.43,33.43H250.09c-18.46,0-33.43-14.97-33.43-33.43v0c0-18.46,14.97-33.43,33.43-33.43
				h215.12C483.67,386.82,498.64,401.78,498.64,420.25L498.64,420.25z M529.74,372.02c-18.46,0-33.43-14.97-33.43-33.43v0
				c0-18.46,14.97-33.43,33.43-33.43h0c18.46,0,33.43,14.97,33.43,33.43v0C563.17,357.06,548.21,372.02,529.74,372.02L529.74,372.02z
				M606.78,420.25c0,18.46-14.97,33.43-33.43,33.43h0c-18.46,0-33.43-14.97-33.43-33.43v0c0-18.46,14.97-33.43,33.43-33.43h0
				C591.81,386.82,606.78,401.78,606.78,420.25L606.78,420.25z M606.78,256.94c0,18.46-14.97,33.43-33.43,33.43h0
				c-18.46,0-33.43-14.97-33.43-33.43v0c0-18.46,14.97-33.43,33.43-33.43h0C591.81,223.51,606.78,238.48,606.78,256.94L606.78,256.94z"/>
  </g>
</svg>
