<?xml version="1.0"?>
<svg xmlns="http://www.w3.org/2000/svg" viewBox="0 0 92 31.75">
  <path fill="currentColor" d="M22.304,9.901c4.72,0.455,9.859,0.124,15.423-0.999
		c1.121,0.093,2.207,0.042,3.251-0.144l0.457,0.888c0.027,0.004,0.058,0.007,0.088,0.007c0.207,0,0.376-0.047,0.514-0.14
		c0.142-0.087,0.214-0.198,0.214-0.322c0-0.03-0.004-0.058-0.01-0.085l0.555-0.081c0.014,0.099,0.06,0.184,0.136,0.259
		c0.096,0.089,0.207,0.137,0.341,0.137s0.248-0.048,0.341-0.137c0.089-0.089,0.138-0.198,0.138-0.325
		c0-0.036-0.002-0.071-0.013-0.107l0.5-0.079c0.019,0.093,0.061,0.168,0.135,0.233c0.092,0.092,0.202,0.138,0.339,0.138
		c0.131,0,0.243-0.046,0.337-0.138c0.093-0.089,0.14-0.193,0.14-0.322c0-0.037-0.008-0.076-0.017-0.114l0.548-0.11
		c0.024,0.075,0.063,0.142,0.123,0.201c0.096,0.088,0.209,0.137,0.34,0.137c0.135,0,0.248-0.049,0.341-0.137
		c0.093-0.09,0.136-0.196,0.136-0.32c0-0.054-0.003-0.102-0.022-0.146l0.63-0.169l2.188,0.745c1.712,0.526,3.2,0.87,4.462,1.031
		c1.202,0.155,2.979,0.272,5.339,0.357c3.757,0.137,5.828,0.213,6.215,0.233c4.278,0.242,9.238,0.966,14.88,2.178
		c2.82,0.605,5.214,1.189,7.181,1.747c-1.263,0.902-2.804,1.847-4.63,2.828c-3.651,1.962-6.879,3.13-9.691,3.502
		c-2.84,0.378-6.376,0.508-10.613,0.388c-1.357-0.04-3.012-0.111-4.969-0.219c-2.326-0.128-3.691-0.199-4.103-0.215
		c-1.951-0.083-3.646-0.074-5.094,0.017l-1.579,0.155c-0.427-0.256-0.778-0.333-1.052-0.231c-0.252,0.096-0.486,0.358-0.708,0.793
		c-0.138,0.274-0.355,0.816-0.645,1.63c-0.352,0.964-0.647,1.731-0.893,2.304c-0.167,0.381-0.366,0.625-0.601,0.734
		c-0.233,0.105-0.471,0.065-0.714-0.123c-0.559-0.428-0.973-1.419-1.236-2.969c-0.205,0.06-0.397,0.046-0.57-0.049
		c-0.181-0.093-0.338-0.266-0.464-0.516c-0.538-1.042-1.362-1.922-2.475-2.638c-1.069-0.687-2.243-1.124-3.528-1.319
		c-1.314-0.202-2.541-0.109-3.669,0.276c-1.228,0.42-2.198,1.143-2.913,2.163c-0.104,0.153-0.239,0.231-0.407,0.231
		c-0.174,0-0.366-0.076-0.575-0.231c-0.794-0.634-1.678-1.113-2.659-1.44c-0.929-0.309-1.884-0.461-2.867-0.455
		c-0.964,0.014-1.877,0.176-2.743,0.491c-0.882,0.317-1.64,0.772-2.278,1.363c-0.434,0.402-0.901,0.461-1.396,0.18
		c-1.872-0.786-3.822-1-5.84-0.628c-2.104,0.379-3.919,1.333-5.441,2.857c-0.739-0.107-1.293-1.365-1.662-3.765
		c-2.274-2.26-2.006-4.018,0.822-5.271C8.792,10.623,15.448,9.205,22.304,9.901z M1.574,17.81l0.432-2.184
		C0.738,16.216,0.593,16.944,1.574,17.81z"/>
</svg>
