<?xml version="1.0"?>
<svg xmlns="http://www.w3.org/2000/svg" viewBox="0 0 84.75 32">
  <path fill="currentColor" d="M20.6,7.498c4.583,0,9.146,0,13.686,0
				c0.086,0.021,0.151,0.043,0.195,0.066c0.064,0.043,0.107,0.086,0.129,0.128l0.033,0.033h0.032
				c0.022,0.021,0.065,0.054,0.131,0.097c0.021,0.044,0.042,0.088,0.063,0.13c0,0.021,0.011,0.044,0.032,0.064
				c0,0.022,0,0.055,0,0.099c0.022,0,0.055,0,0.099,0V8.051c0.087,0,0.182,0,0.292,0c0.042,0.042,0.107,0.074,0.193,0.097
				c0.043,0.021,0.087,0.044,0.13,0.064c16.173,0,32.356,0.012,48.551,0.033c0.085,0.043,0.161,0.075,0.226,0.096
				c0.023,0.021,0.055,0.044,0.099,0.066c0.022,0.043,0.043,0.086,0.064,0.13c0.021,0.042,0.033,0.075,0.033,0.097s0,0.064,0,0.128
				c0,0.023-0.011,0.035-0.033,0.035c0.021,0.021,0.033,0.042,0.033,0.063c0,0.065,0,0.109,0,0.132c0,0.041,0,0.074,0,0.097
				c0,0.043,0,0.086,0,0.13c0,0.022,0,0.043,0,0.065c0,0.063,0,0.107,0,0.128c0,0.044,0,0.076,0,0.098c0,0.043,0,0.088,0,0.131
				c0,0.021,0,0.042,0,0.064c0,0.063,0,0.107,0,0.13c0,0.043,0,0.074,0,0.096c0,0.044,0,0.088,0,0.131c0,0.022,0,0.065,0,0.13
				c0,0.021,0,0.043,0,0.064c0,0.043,0,0.076,0,0.097c0,0.045,0,0.088,0,0.131c0,0.021,0,0.064,0,0.129c0,0.022,0,0.043,0,0.065
				c0,0.043,0,0.076,0,0.099c0,0.042,0,0.085,0,0.129c0,0.021,0,0.065,0,0.129c-0.022,0-0.054,0.011-0.097,0.033
				c-0.044,0.043-0.088,0.076-0.13,0.097c-0.022,0.064-0.044,0.107-0.066,0.129c-0.064,0.022-0.108,0.055-0.129,0.099
				c-0.022,0.043-0.033,0.075-0.033,0.099c-0.087-0.023-0.152-0.056-0.195-0.099l-0.032-0.033c-0.562,0-1.125,0-1.686,0
				c0,0.021,0,0.054,0,0.097c0,0.022,0,0.044,0,0.066c0,0.021,0,0.042,0,0.063c0,0.022,0,0.054,0,0.099v0.032
				c0,0.021,0,0.042,0,0.064c0,0.021,0,0.056,0,0.098v0.032c0,0.022,0.01,0.044,0.032,0.066l0.033,0.031
				c0.173,0,0.336,0.011,0.487,0.031v-0.031c0-0.044,0-0.075,0-0.098c0.518,0,1.038,0,1.556,0c0,0.022,0,0.044,0,0.066
				c0,0.042,0,0.095,0,0.161c0,0.043,0,0.097,0,0.161c0,0.043,0,0.088,0,0.131c0,0.021,0,0.063,0,0.13c0,0.043,0,0.097,0,0.161
				c0,0.043,0,0.086,0,0.13c0,0.065,0,0.119,0,0.162c0,0.021,0,0.066,0,0.129c0,0.044,0,0.088,0,0.131c0,0.064,0,0.12,0,0.162
				c0,0.044,0,0.097,0,0.162v0.031c0,0.022,0,0.045,0,0.065v0.098c0,0.022,0,0.043,0,0.065v0.065c0,0.042,0,0.075,0,0.097v0.064
				c0,0.022,0,0.054,0,0.097v0.098c0,0.022,0,0.044,0,0.065v0.097c0,0.022,0,0.044,0,0.065v0.097c0,0.023,0,0.044,0,0.065v0.194
				c0,0.021,0,0.044,0,0.065v0.162c0,0.021,0,0.043,0,0.065c0,0.021,0,0.064,0,0.129c-0.497,0-0.983-0.011-1.458-0.032v0.032
				c-0.13,0-0.26,0-0.39,0c-0.022,0-0.034,0.012-0.034,0.032c-0.021,0.021-0.053,0.032-0.097,0.032
				c-0.021,0.021-0.043,0.055-0.064,0.098c0,0.022,0,0.043,0,0.064c-0.021,0.022-0.033,0.043-0.033,0.065
				c-0.022,0.021-0.032,0.054-0.032,0.098c0,0.021-0.011,0.044-0.033,0.063c0,0.022-0.022,0.045-0.064,0.065
				c-0.022,0.044-0.043,0.076-0.065,0.099c0,0.021-0.012,0.031-0.033,0.031c0,0.022,0,0.043,0,0.065
				c-0.064,0.021-0.108,0.055-0.129,0.098c-0.021,0.021-0.042,0.043-0.065,0.064c0,0.021-0.011,0.043-0.031,0.064
				c-0.022,0.043-0.056,0.075-0.098,0.097c-0.021,0.021-0.034,0.043-0.034,0.065c-0.021,0.021-0.032,0.054-0.032,0.097v0.033
				c-0.042,0-0.085,0.011-0.129,0.032v0.064c-0.043,0.022-0.098,0.033-0.162,0.033c-0.043,0.043-0.075,0.076-0.097,0.098v0.064
				c-0.151,0-0.313,0-0.487,0v0.033c0,0.043,0,0.075,0,0.098v0.063c-6.984,0.022-13.957,0.032-20.918,0.032c0,0.022,0,0.054,0,0.098
				c0,0.021,0,0.043,0,0.063v0.066c-0.541,0-1.083-0.011-1.623-0.032c0-0.021,0-0.044,0-0.066c0-0.021,0-0.054,0-0.097v-0.032
				c0-0.021,0-0.043,0-0.064s0-0.044,0-0.064c-0.064-0.044-0.141-0.064-0.228-0.064c-0.086-0.022-0.172-0.044-0.259-0.067V16.71
				c-0.086,0-0.151-0.022-0.194-0.065c-0.065-0.022-0.13-0.044-0.196-0.065v-0.064c-0.107,0-0.205-0.011-0.291-0.033
				c-0.109-0.043-0.206-0.075-0.293-0.097c0-0.022,0-0.044,0-0.065c-3.459,0-6.939,0-10.442,0c-0.087-0.021-0.174-0.054-0.26-0.097
				c-0.044-0.021-0.076-0.044-0.097-0.064c-0.043-0.021-0.098-0.044-0.162-0.064c-0.021-0.043-0.054-0.087-0.098-0.132
				c-0.043-0.021-0.075-0.042-0.097-0.063c0-0.064,0-0.11,0-0.131s0-0.053,0-0.097s0-0.087,0-0.13c-0.821,0-1.632,0-2.432,0
				c0,0.021,0,0.043,0,0.064c0,0.042,0,0.077,0,0.098v0.031c0,0.022,0,0.045,0,0.065c0,0.044,0,0.076,0,0.099
				c0,0.021,0,0.042,0,0.063v0.065c-0.237,0-0.465,0-0.682,0v0.066c0,0.021,0,0.043,0,0.064c0,0.021,0,0.043,0,0.064
				c0,0.043,0,0.075,0,0.097s0,0.043,0,0.065v0.031c-0.498,0-1.016-0.01-1.557-0.031c-0.021-0.022-0.043-0.044-0.064-0.065v-0.032
				c0-0.042,0-0.076,0-0.097c0-0.021,0-0.043,0-0.065c0-0.021,0-0.054,0-0.098c-2.617,0-5.233,0-7.849,0H32.99
				c-0.022,0-0.055,0.023-0.097,0.066c-0.043,0-0.076,0-0.098,0c-0.021,0.021-0.055,0.031-0.098,0.031
				c-0.065,0.022-0.108,0.044-0.129,0.065c-0.044,0.021-0.098,0.055-0.162,0.097c-0.022,0-0.054,0-0.097,0
				c-0.065,0.022-0.108,0.032-0.131,0.032c-0.042,0.021-0.086,0.043-0.129,0.065c0,0.021-0.022,0.054-0.065,0.097
				c-0.042,0.022-0.086,0.044-0.13,0.065c0,0.021-0.022,0.032-0.064,0.032c0,0.021-0.012,0.032-0.034,0.032
				c-0.042,0.022-0.075,0.033-0.096,0.033c-0.043,0.043-0.077,0.076-0.098,0.098v0.064c-0.042,0.021-0.077,0.033-0.097,0.033
				c0,0.043,0,0.075,0,0.098v0.063c-0.022,0-0.055,0-0.098,0h-0.063v0.161c-0.152,0-0.304,0.012-0.455,0.032h-0.032
				c-0.109,0-0.205,0.013-0.293,0.034h-0.032c-0.043,0-0.075,0.01-0.097,0.032H30.33c-0.087,0-0.185,0.021-0.292,0.064h-0.032
				c-0.086,0-0.173,0.012-0.259,0.032h-0.066c-0.021,0-0.053,0.011-0.097,0.033h-0.032c-0.043,0-0.076,0.012-0.097,0.031h-0.032
				c-0.023,0-0.043,0.012-0.064,0.034h-0.033c-0.066,0-0.109,0.009-0.131,0.031h-0.032c-0.022,0-0.033,0.022-0.033,0.065h-0.065
				c-0.043,0-0.076,0.011-0.098,0.032h-0.033c-0.064,0-0.107,0.011-0.129,0.032h-0.032c-0.043,0-0.097,0.012-0.163,0.032h-0.031
				c-0.022,0-0.043,0.011-0.064,0.033h-0.067c-0.021,0-0.032,0.022-0.032,0.064h-0.033c-0.021,0-0.043,0.011-0.064,0.033h-0.033
				c-0.043,0-0.076,0.01-0.098,0.031h-0.032c0,0.021-0.011,0.032-0.033,0.032s-0.054,0.013-0.097,0.032h-0.033
				c-0.021,0-0.042,0.012-0.064,0.032h-0.032c-0.022,0-0.055,0.022-0.098,0.065h-0.032c-0.022,0-0.043,0.013-0.066,0.033h-0.032
				l-0.064,0.032h-0.032c-0.022,0-0.043,0.011-0.065,0.032h-0.033c-0.022,0-0.032,0.01-0.032,0.034h-0.066
				c-0.021,0-0.042,0.021-0.064,0.063h-0.033c0,0.022-0.011,0.032-0.032,0.032c-0.044,0-0.076,0.011-0.097,0.033h-0.032
				c-0.022,0-0.032,0.011-0.032,0.033h-0.034c-0.021,0-0.032,0.011-0.032,0.032h-0.064c-0.021,0-0.033,0.01-0.033,0.031h-0.032
				c-0.023,0-0.044,0.021-0.066,0.066c-0.042,0-0.075,0.009-0.096,0.032h-0.034c-0.02,0-0.032,0.011-0.032,0.032h-0.032
				c0,0.021-0.011,0.032-0.031,0.032c-0.044,0-0.076,0.011-0.099,0.033c-0.021,0-0.032,0.021-0.032,0.063h-0.032
				c0,0.022-0.011,0.032-0.033,0.032c-0.065,0-0.107,0.011-0.13,0.034h-0.032l-0.065,0.063v0.033h-0.064
				c-0.021,0-0.033,0.021-0.033,0.063h-0.032c0,0.022-0.011,0.033-0.033,0.033c-0.021,0-0.053,0.011-0.097,0.033h-0.031
				c0,0.021-0.012,0.031-0.035,0.031c-0.021,0-0.042,0.012-0.064,0.034h-0.033c0,0.042-0.021,0.064-0.065,0.064
				c-0.022,0-0.043,0.01-0.064,0.032h-0.032c-0.022,0-0.033,0.009-0.033,0.031h-0.064c-0.022,0-0.034,0.011-0.034,0.033h-0.031
				c-0.022,0-0.032,0.011-0.032,0.033h-0.034c-0.021,0-0.032,0.011-0.032,0.032H25.27c0,0.042-0.011,0.064-0.032,0.064
				c-0.021,0-0.032,0.011-0.032,0.033h-0.033c-0.022,0-0.032,0.01-0.032,0.031h-0.066l-0.064,0.065
				c-0.021,0-0.033,0.021-0.033,0.063h-0.032c-0.043,0-0.065,0.011-0.065,0.032h-0.032c0,0.023-0.011,0.034-0.032,0.034
				c-0.022,0-0.033,0.011-0.033,0.032h-0.032c0,0.021-0.011,0.032-0.032,0.032c-0.043,0-0.064,0.021-0.064,0.065h-0.035
				c0,0.021-0.011,0.031-0.031,0.031c-0.022,0-0.033,0.01-0.033,0.032h-0.033c-0.042,0-0.063,0.011-0.063,0.033h-0.033
				c-0.021,0-0.033,0.011-0.033,0.031h-0.032v0.034c-0.021,0-0.032,0.02-0.032,0.064h-0.032c-0.044,0-0.067,0.011-0.067,0.033H24.2
				c-0.021,0-0.032,0.009-0.032,0.031h-0.033l-0.097,0.065c-0.022,0-0.043,0.021-0.064,0.063c0,0.021-0.01,0.035-0.032,0.035
				c-0.022,0-0.033,0.009-0.033,0.031h-0.032l-0.129,0.097c-0.022,0-0.032,0.022-0.032,0.065h-0.032l-0.131,0.098
				c-0.021,0-0.032,0.01-0.032,0.031h-0.032c-0.022,0-0.031,0.021-0.031,0.065h-0.066c-0.021,0-0.032,0.011-0.032,0.032h-0.032
				c-0.021,0-0.043,0.012-0.064,0.032c-0.044,0-0.076,0.011-0.097,0.032c-0.022,0-0.043,0.011-0.065,0.032h-0.033
				c-0.022,0-0.054,0.011-0.097,0.032c-0.021,0-0.044,0.022-0.065,0.066H22.87c-0.022,0-0.054,0.01-0.098,0.032
				c-0.021,0-0.043,0.011-0.065,0.031h-0.032c-0.021,0-0.032,0.012-0.032,0.033h-0.031c-0.066,0-0.109,0.012-0.13,0.032h-0.033
				c-0.022,0-0.032,0.021-0.032,0.064h-0.066c-0.021,0-0.042,0.012-0.065,0.034h-0.031c-0.021,0-0.044,0.009-0.065,0.031h-0.065
				c-0.043,0-0.075,0.011-0.097,0.031h-0.034c-0.042,0-0.085,0.013-0.129,0.034c-0.108,0-0.194,0.011-0.259,0.032h-0.033
				c-0.065,0-0.107,0.021-0.129,0.065h-0.033c-0.064,0-0.119,0.011-0.162,0.031h-0.034c-0.107,0-0.214,0.012-0.324,0.033H20.86
				c-0.369,0-0.746,0-1.136,0l-0.032-0.033c-0.065,0-0.12,0-0.163,0v-0.031c-0.044,0-0.086,0-0.13,0l-0.032-0.065
				c-0.043,0-0.097,0-0.164,0l-0.032-0.032c-0.064,0-0.14,0-0.227,0l-0.032-0.034c-0.022,0-0.044,0-0.066,0v-0.031
				c-0.063,0-0.107,0-0.129,0l-0.032-0.031c-0.021,0-0.054,0-0.097,0l-0.033-0.034c-0.022,0-0.054,0-0.098,0l-0.031-0.064
				c-0.045,0-0.077,0-0.098,0v-0.032c-0.042,0-0.076,0-0.097,0l-0.065-0.033h-0.032l-0.034-0.031c-0.02,0-0.042,0-0.063,0
				l-0.033-0.032H17.94l-0.032-0.066c-0.021,0-0.043,0-0.064,0v-0.032c-0.022,0-0.055,0-0.098,0l-0.033-0.032
				c-0.021,0-0.043,0-0.063,0l-0.033-0.032c-0.021,0-0.055,0-0.097,0v-0.032h-0.034l-0.064-0.098h-0.033v-0.031
				c-0.043,0-0.076,0-0.096,0v-0.033h-0.034v-0.033h-0.032v-0.031h-0.032v-0.065h-0.033v-0.033h-0.065v-0.032l-0.032-0.031h-0.032
				l-0.131-0.13v-0.032H16.87V19.92l-0.063-0.064v-0.064h-0.034v-0.034h-0.032v-0.031l-0.098-0.065v-0.031l-0.066-0.098v-0.032
				h-0.031v-0.034l-0.064-0.032v-0.063l-0.032-0.033h-0.034v-0.032l-0.032-0.031v-0.033l-0.032-0.064v-0.032
				c-0.022-0.022-0.054-0.033-0.098-0.033v-0.033l-0.064-0.063v-0.064l-0.034-0.034c0-0.021-0.009-0.031-0.031-0.031v-0.066
				l-0.098-0.097v-0.031l-0.032-0.032v-0.034l-0.065-0.096v-0.033l-0.032-0.032h-0.065v-0.064L15.8,18.33v-0.031l-0.033-0.032
				v-0.033l-0.065-0.065v-0.063l-0.162-0.132v-0.065l-0.032-0.032v-0.032c-0.044,0-0.065-0.011-0.065-0.032l-0.292-0.324v-0.031
				h-0.032v-0.065c-0.021,0-0.033-0.011-0.033-0.033h-0.065l-0.098-0.129c0-0.021-0.01-0.034-0.032-0.034v-0.032l-0.195-0.193
				c-0.174,0-0.368,0-0.583,0c-0.023,0.021-0.043,0.032-0.064,0.032c-0.218,0.022-0.412,0.064-0.584,0.13
				c-0.043,0.021-0.086,0.043-0.129,0.063c-0.022,0-0.055,0.013-0.099,0.034c0-0.021,0-0.044,0-0.066c0-0.063,0-0.106,0-0.129
				c0-0.021,0-0.054,0-0.096h-0.032v0.031l-0.032,0.032c-0.065,0.022-0.12,0.032-0.163,0.032c-0.064,0.022-0.119,0.054-0.162,0.098
				c-0.021,0.021-0.043,0.043-0.065,0.063c-0.022,0.023-0.054,0.034-0.098,0.034l-0.031,0.032c-0.043,0-0.075,0.021-0.098,0.064
				c-0.043,0.021-0.077,0.043-0.097,0.065l-0.066,0.065c-0.043,0-0.097,0.009-0.162,0.031c-0.021,0.043-0.042,0.076-0.063,0.098
				c0,0.021-0.011,0.032-0.033,0.032l-0.065,0.032c-0.042,0-0.076,0.011-0.097,0.033c-0.021,0.043-0.055,0.064-0.097,0.064v0.033
				c-0.044,0.021-0.097,0.031-0.163,0.031c-0.044,0.021-0.077,0.045-0.097,0.064v0.098c-0.042,0.022-0.098,0.033-0.164,0.033
				c-0.064,0.021-0.119,0.043-0.162,0.064c-0.043,0.022-0.076,0.055-0.097,0.097c0,0.022-0.011,0.032-0.033,0.032l-0.031,0.033
				c-0.065,0-0.109,0.011-0.13,0.033c-0.021,0.021-0.042,0.042-0.064,0.063l-0.065,0.099c-0.064,0-0.12,0.011-0.162,0.032v0.032
				l-0.032,0.033c-0.065,0.043-0.119,0.063-0.163,0.063c-0.021,0.022-0.043,0.043-0.065,0.066c-0.043,0.021-0.063,0.041-0.063,0.063
				c0,0.065,0,0.109,0,0.13c-0.023,0-0.044,0.011-0.066,0.033c-0.022,0.021-0.043,0.043-0.065,0.065
				c-0.063,0.064-0.118,0.118-0.161,0.161c-0.086,0.021-0.162,0.065-0.228,0.13l-0.032,0.033c0,0.021,0,0.043,0,0.063
				c-0.043,0-0.075,0-0.097,0c-0.022,0.022-0.044,0.033-0.065,0.033c-0.021,0.043-0.042,0.074-0.064,0.096
				c0,0.023-0.021,0.045-0.064,0.066c-0.021,0.021-0.043,0.054-0.064,0.098c-0.043,0.021-0.087,0.041-0.13,0.063
				c-0.021,0.021-0.044,0.044-0.065,0.064c0,0.022-0.011,0.054-0.032,0.099c-0.022,0.021-0.044,0.042-0.064,0.064
				c-0.043,0.022-0.078,0.033-0.098,0.033c-0.023,0.021-0.043,0.053-0.064,0.096C9,20.07,8.967,20.093,8.924,20.115
				c-0.022,0.021-0.032,0.043-0.032,0.063c-0.021,0.022-0.043,0.056-0.064,0.099v0.064c-0.065,0-0.108,0.011-0.129,0.033
				c-0.022,0.021-0.044,0.053-0.065,0.097v0.064c-0.044,0-0.087,0.011-0.131,0.032c-0.021,0.021-0.043,0.043-0.064,0.064
				c-0.022,0.045-0.043,0.076-0.064,0.099c-0.043,0.021-0.076,0.043-0.097,0.064c-0.023,0.021-0.034,0.054-0.034,0.097
				c0,0.022-0.011,0.034-0.033,0.034c0,0.02-0.011,0.042-0.032,0.063c-0.021,0.022-0.064,0.045-0.129,0.066
				c0,0.043-0.011,0.076-0.033,0.097c-0.021,0.021-0.043,0.043-0.064,0.065c-0.043,0.021-0.076,0.054-0.099,0.097
				c-0.02,0.021-0.031,0.043-0.031,0.064c-0.021,0.022-0.042,0.044-0.065,0.064c-0.021,0.022-0.053,0.032-0.097,0.032
				c0,0.045,0,0.076,0,0.099c-0.022,0.021-0.044,0.043-0.065,0.064c-0.021,0.021-0.032,0.054-0.032,0.097
				c-0.021,0.022-0.055,0.045-0.099,0.066c-0.021,0.021-0.042,0.041-0.063,0.064c-0.021,0.021-0.045,0.054-0.066,0.098
				c-0.021,0.021-0.032,0.043-0.032,0.064c0,0.022-0.022,0.032-0.065,0.032c0,0.021-0.011,0.054-0.032,0.098
				c-0.022,0.022-0.054,0.043-0.097,0.063c0,0.022,0,0.044,0,0.066s-0.023,0.054-0.065,0.097c0,0.021-0.011,0.043-0.033,0.064
				c0,0.023,0,0.045,0,0.065v0.064c-0.043,0.022-0.074,0.032-0.096,0.032c-0.021,0.022-0.033,0.045-0.033,0.065
				c-0.042,0.021-0.064,0.044-0.064,0.065c0,0.042-0.011,0.076-0.032,0.096c0,0.022-0.011,0.044-0.033,0.065
				c-0.021,0.023-0.033,0.055-0.033,0.098c0,0.022-0.01,0.033-0.032,0.033c0,0.021-0.021,0.042-0.064,0.064c0,0.021,0,0.054,0,0.097
				c0,0.022,0,0.043,0,0.065v0.064c-0.042,0.022-0.076,0.034-0.097,0.034c-0.023,0.042-0.032,0.073-0.032,0.095
				c-0.023,0.021-0.033,0.045-0.033,0.066v0.097c-0.065,0-0.108,0.011-0.13,0.032c0,0.021-0.011,0.045-0.032,0.066
				c0,0.021-0.011,0.042-0.033,0.064c0,0.042,0,0.074,0,0.097C6.222,23.898,6.2,23.919,6.2,23.941
				c-0.021,0.021-0.042,0.032-0.065,0.032c0,0.042,0,0.076,0,0.098c-0.021,0.021-0.043,0.043-0.064,0.065c0,0.021,0,0.042,0,0.065
				c0,0.042,0,0.075,0,0.097c0,0.02,0,0.042,0,0.064s0,0.054,0,0.097c0,0.022,0,0.043,0,0.066v0.032c-0.065,0-0.108,0-0.13,0
				c0,0.021,0,0.042,0,0.064c0,0.044,0,0.074,0,0.097v0.033c-0.542,0-1.082-0.012-1.622-0.033c-0.065-0.022-0.119-0.053-0.162-0.097
				v-0.064c-0.065,0-0.109-0.012-0.131-0.032c-0.086-0.023-0.15-0.044-0.194-0.066c0-0.043-0.011-0.074-0.032-0.097L3.768,24.33
				c-0.087-0.021-0.151-0.041-0.195-0.063v-0.099c-0.064,0-0.119-0.011-0.162-0.031c-0.021-0.022-0.043-0.044-0.065-0.065
				l-0.097-0.098c-0.023,0-0.044-0.011-0.066-0.032c-0.043-0.022-0.097-0.043-0.162-0.064c0-0.022-0.01-0.055-0.032-0.097
				c-0.021,0-0.054-0.011-0.098-0.033c0-0.021,0-0.043,0-0.063c-0.042-0.023-0.075-0.044-0.097-0.066
				c-0.042-0.043-0.075-0.074-0.097-0.097c-0.044-0.021-0.065-0.045-0.065-0.066c-0.022-0.021-0.043-0.053-0.064-0.095
				c-0.043-0.023-0.087-0.045-0.131-0.067c0-0.021-0.01-0.042-0.032-0.063c-0.02,0-0.053-0.011-0.097-0.033
				c0-0.043-0.011-0.075-0.032-0.097c-0.043-0.022-0.064-0.043-0.064-0.064v-0.033c-0.043-0.043-0.087-0.074-0.129-0.098
				c0-0.021-0.022-0.043-0.066-0.065c-0.021,0-0.053-0.01-0.097-0.031c0-0.043,0-0.075,0-0.098
				c-0.021-0.021-0.042-0.042-0.065-0.064c-0.064-0.021-0.108-0.043-0.129-0.065c-0.022-0.042-0.034-0.075-0.034-0.097
				c-0.021-0.021-0.053-0.044-0.097-0.065C1.573,22.396,1.55,22.363,1.53,22.32c0-0.022-0.01-0.043-0.032-0.065l-0.032-0.033
				c-0.066-0.021-0.109-0.041-0.13-0.063c0-0.044-0.011-0.076-0.034-0.098L1.27,22.028c-0.065-0.021-0.107-0.044-0.129-0.064
				c0-0.044,0-0.076,0-0.098c-0.021,0-0.033-0.011-0.033-0.032c-0.021-0.022-0.032-0.043-0.032-0.064s0-0.055,0-0.098
				c-0.042,0-0.087-0.013-0.131-0.033c0-0.021-0.01-0.043-0.031-0.064c0-0.022-0.011-0.054-0.032-0.099v-0.032
				c-0.043-0.021-0.087-0.042-0.13-0.064c0-0.021,0-0.043,0-0.064v-0.065c-0.021-0.021-0.032-0.043-0.032-0.063
				c-0.021-0.021-0.032-0.044-0.032-0.064c0-0.044,0-0.076,0-0.098s0-0.043,0-0.065s0-0.043,0-0.065c0-0.043,0-0.076,0-0.097
				c0-0.021,0-0.044,0-0.064v-0.032c0-0.044,0-0.076,0-0.099c0-0.021,0-0.044,0-0.064s0-0.043,0-0.064c0-0.065,0-0.119,0-0.163
				c0-0.021,0-0.053,0-0.097c0-0.022,0-0.043,0-0.065v-0.031c0-0.022,0-0.045,0-0.066c0-0.043,0-0.075,0-0.096
				c0-0.021,0-0.044,0-0.064c0-0.022,0-0.056,0-0.098c0-0.045,0-0.088,0-0.131c0-0.021,0-0.054,0-0.097
				c0.021,0,0.044-0.011,0.064-0.032v-0.032c0-0.13,0-0.271,0-0.423c0-0.128,0-0.27,0-0.42c0-0.152,0-0.293,0-0.423
				c0-0.152,0-0.291,0-0.422c0-0.151,0-0.302,0-0.454c0-0.129,0-0.271,0-0.42c0-0.153,0-0.293,0-0.423c0-0.152,0-0.292,0-0.421
				c0-0.152,0-0.313,0-0.487c0-0.108,0-0.248,0-0.422c0-0.15,0-0.292,0-0.423c0-0.021,0-0.041,0-0.063
				c-0.021-0.021-0.043-0.032-0.064-0.032c0-0.021,0-0.042,0-0.065v-0.064c0-0.021,0-0.043,0-0.064c0-0.022,0-0.044,0-0.064
				c0-0.044,0-0.076,0-0.097c0-0.022,0-0.044,0-0.066c0-0.021,0-0.043,0-0.065c0-0.043,0-0.074,0-0.097s0-0.043,0-0.064v-0.034
				c0-0.042,0-0.074,0-0.097c0-0.021,0-0.043,0-0.063c0-0.024,0-0.045,0-0.066c0-0.044,0-0.076,0-0.097c0-0.021,0-0.043,0-0.065
				c0-0.021,0-0.054,0-0.098c0-0.021,0-0.043,0-0.064v-0.032c0-0.023,0-0.043,0-0.065c0-0.043,0-0.076,0-0.097
				c0-0.022,0-0.044,0-0.066c0-0.063,0-0.106,0-0.129c0.54,0,1.08,0,1.621,0c0,0.022,0,0.055,0,0.097
				c0.021,0.022,0.055,0.044,0.097,0.065c0.022,0.022,0.055,0.033,0.098,0.033c0,0.021,0,0.054,0,0.097
				c0.044,0.022,0.087,0.042,0.13,0.065c0.065,0.022,0.119,0.032,0.162,0.032c0,0.021,0.011,0.044,0.033,0.064
				c0,0.044,0.021,0.076,0.063,0.098c0.044,0.022,0.098,0.031,0.164,0.031c0,0.022,0,0.045,0,0.065
				c0.064,0.043,0.128,0.077,0.195,0.098c0.065,0.022,0.129,0.034,0.194,0.034c0,0.02,0,0.041,0,0.063
				c0.086,0.022,0.152,0.055,0.194,0.097c0.13,0.024,0.26,0.034,0.389,0.034c0,0.021,0,0.042,0,0.064
				c0.11,0.022,0.206,0.054,0.293,0.097c0.368,0,0.746,0,1.135,0c0.087-0.043,0.195-0.074,0.324-0.097
				c0.044-0.022,0.066-0.043,0.066-0.064h0.032c0.13-0.021,0.26-0.034,0.389-0.034c0.088-0.042,0.185-0.074,0.293-0.097
				c0.022-0.021,0.031-0.043,0.031-0.063h0.033C6.751,13.8,6.88,13.79,7.01,13.79c0.131-0.021,0.26-0.055,0.391-0.098
				c0-0.021,0-0.043,0-0.065c0.13-0.021,0.259-0.031,0.389-0.031c0.063-0.021,0.14-0.054,0.227-0.098c0-0.021,0-0.043,0-0.064h0.033
				c0.064-0.021,0.118-0.032,0.161-0.032c0.109-0.023,0.195-0.043,0.26-0.065c0.021-0.043,0.032-0.076,0.032-0.097h0.065
				c0.043-0.022,0.087-0.033,0.131-0.033c0.106-0.021,0.226-0.043,0.355-0.065c0.022-0.042,0.034-0.074,0.034-0.097h0.032
				c0.065-0.021,0.129-0.032,0.195-0.032c0.086-0.021,0.183-0.043,0.291-0.064c0-0.044,0-0.075,0-0.098
				c0.064-0.021,0.152-0.033,0.259-0.033c0.066-0.021,0.142-0.042,0.228-0.063c0-0.021,0-0.054,0-0.098
				c0.043-0.022,0.107-0.032,0.194-0.032c0.043-0.021,0.107-0.044,0.194-0.064c0-0.022,0-0.056,0-0.097
				c0.065-0.022,0.151-0.033,0.258-0.033c0.046-0.022,0.098-0.043,0.164-0.063c0-0.024,0-0.044,0-0.067h0.033
				c0.022-0.042,0.054-0.064,0.097-0.064c0.064-0.021,0.107-0.043,0.129-0.066c0.022-0.021,0.044-0.042,0.065-0.063
				c0.043-0.043,0.075-0.065,0.097-0.065v-0.031c0.065-0.021,0.141-0.031,0.228-0.031c0.023-0.022,0.044-0.044,0.065-0.066
				l0.097-0.097c0.043-0.022,0.097-0.033,0.163-0.033c0-0.022,0-0.043,0-0.064c0.042-0.021,0.086-0.032,0.129-0.032
				c0.043-0.045,0.085-0.076,0.129-0.099c0.022-0.021,0.033-0.043,0.033-0.063h0.031c0.043-0.022,0.098-0.031,0.163-0.031
				c0.044-0.023,0.085-0.056,0.129-0.099c0.044-0.021,0.077-0.044,0.098-0.066c0.022-0.021,0.043-0.032,0.065-0.032v-0.031
				c0.065-0.043,0.118-0.065,0.162-0.065c0-0.021,0-0.044,0-0.064h0.032c0.022-0.021,0.064-0.033,0.129-0.033
				c0.065-0.021,0.141-0.043,0.228-0.064c0-0.043,0-0.076,0-0.097h0.032c0.043-0.022,0.099-0.032,0.162-0.032
				c0.023-0.021,0.044-0.044,0.066-0.065c0.021-0.043,0.043-0.075,0.064-0.097c0.043-0.022,0.076-0.034,0.098-0.034v-0.031
				c0.044-0.022,0.087-0.033,0.129-0.033c0-0.021,0-0.054,0-0.097h0.065c0.022-0.022,0.055-0.032,0.098-0.032
				c0.064-0.021,0.108-0.043,0.131-0.065c0.021-0.02,0.031-0.053,0.031-0.098h0.034c0.042-0.021,0.107-0.031,0.194-0.031
				c0.021-0.022,0.044-0.044,0.065-0.065c0-0.021,0-0.043,0-0.064c0.064-0.044,0.128-0.064,0.193-0.064
				c0.065-0.022,0.119-0.043,0.162-0.065c0-0.021,0-0.043,0-0.064h0.034c0.021-0.045,0.063-0.066,0.129-0.066
				C14.935,9.908,15,9.889,15.086,9.865c0-0.02,0-0.043,0-0.063c0.065-0.045,0.141-0.065,0.226-0.065
				c0.044-0.022,0.11-0.044,0.196-0.066c0-0.021,0-0.043,0-0.065h0.032c0.044-0.021,0.098-0.03,0.162-0.03
				c0.044-0.045,0.087-0.077,0.131-0.099c0-0.021,0-0.043,0-0.065c0.086-0.021,0.162-0.031,0.226-0.031
				c0.065-0.044,0.131-0.076,0.195-0.097c0-0.022,0-0.043,0-0.065h0.065c0.043-0.021,0.097-0.033,0.163-0.033
				c0.064-0.021,0.129-0.054,0.195-0.097c0-0.022,0-0.042,0-0.064c0.13-0.022,0.248-0.032,0.357-0.032
				c0.043-0.022,0.107-0.054,0.193-0.098c0-0.021,0-0.044,0-0.065h0.032c0.043-0.022,0.098-0.031,0.163-0.031
				c0.042-0.022,0.109-0.045,0.195-0.065c0-0.044,0-0.076,0-0.098h0.033c0.021-0.021,0.053-0.032,0.097-0.032
				c0.064-0.022,0.108-0.044,0.129-0.064c0.022-0.044,0.033-0.076,0.033-0.099h0.032c0.087-0.021,0.161-0.031,0.227-0.031h0.065
				c0-0.022,0-0.045,0-0.066c0-0.021,0-0.053,0-0.096c0.064-0.021,0.15-0.033,0.26-0.033c0.042-0.021,0.097-0.033,0.162-0.033
				c0.021-0.021,0.043-0.031,0.064-0.031c0.022-0.022,0.043-0.032,0.066-0.032V8.051h0.063c0.022-0.022,0.043-0.044,0.066-0.066
				c0.151-0.021,0.314-0.042,0.486-0.065c0.043-0.064,0.076-0.106,0.097-0.128c0.216-0.022,0.442-0.044,0.682-0.065
				c0.021-0.064,0.043-0.109,0.064-0.131c0.108-0.021,0.217-0.043,0.325-0.063C20.568,7.51,20.579,7.498,20.6,7.498z M19.757,17.065
				v0.065l-0.033,0.031v0.032c-0.021,0-0.032,0.013-0.032,0.034v0.032h-0.065v0.064c-0.022,0-0.033,0.012-0.033,0.032v0.033
				l-0.033,0.031v0.065l-0.032,0.065v0.064h-0.033v0.032c-0.021,0-0.032,0.011-0.032,0.033v0.064L19.4,17.78v0.063h-0.032v0.13
				h-0.032V18.2h-0.033v0.066c-0.022,0-0.032,0.011-0.032,0.032v0.162c-0.043,0-0.066,0.012-0.066,0.032v0.163h-0.032v0.356
				l0.032,0.032v0.647c-0.193,0-0.399,0-0.615,0V19.66h-0.033v-0.097l-0.032-0.032v-0.066h-0.032v-0.032l-0.034-0.063v-0.065h-0.031
				v-0.064l-0.066-0.064v-0.065l-0.032-0.033v-0.162l-0.033-0.031v-0.194l-0.032-0.032v-0.034c0-0.064,0-0.108,0-0.129
				c0-0.042,0-0.076,0-0.097c0-0.066,0-0.109,0-0.13c0-0.044,0-0.076,0-0.099c0-0.063,0-0.107,0-0.129s0-0.043,0-0.065
				c0-0.043,0-0.075,0-0.098c0-0.02,0-0.043,0-0.064s0-0.044,0-0.064c0-0.064,0-0.107,0-0.13c0-0.021,0-0.044,0-0.064
				c0-0.043,0-0.075,0-0.097c0-0.022,0-0.045,0-0.065v-0.033h-0.032l-0.065,0.033c0,0.021-0.012,0.031-0.032,0.031l-0.13,0.163
				v0.032l-0.162,0.163v0.031l-0.033,0.032v0.064l-0.064,0.065v0.033l-0.033,0.032v0.066l-0.031,0.063v0.162l-0.032,0.066v0.26
				l0.032,0.032v0.194l0.031,0.031v0.131l0.033,0.031v0.066l0.064,0.032v0.064l0.033,0.033v0.031l0.064,0.065v0.063h0.032
				l0.13,0.099v0.032h0.031l0.131,0.129h0.032v0.033h0.032l0.033,0.031h0.032l0.066,0.034h0.031v0.064h0.034l0.032,0.033h0.032
				l0.033,0.031c0.043,0,0.076,0,0.097,0v0.033c0.021,0,0.043,0,0.065,0v0.032h0.033l0.063,0.063h0.034c0.064,0,0.129,0,0.194,0
				v0.035h0.032v0.031h0.032v0.031h0.033v0.032h0.032v0.033c0.066,0,0.121,0,0.164,0l0.032,0.065c0.043,0,0.076,0,0.097,0
				l0.033,0.031c0.022,0,0.054,0,0.098,0v0.033c0.043,0,0.075,0,0.097,0l0.033,0.033h0.032l0.033,0.031c0.193,0,0.378,0,0.551,0
				v0.065c0.13,0,0.259,0,0.389,0v-0.065c0.021,0,0.054,0,0.099,0v-0.031c0.107,0,0.226,0,0.355,0v-0.033c0.022,0,0.055,0,0.098,0
				v-0.033c0.044,0,0.086,0,0.13,0v-0.031c0.022,0,0.064,0,0.129,0v-0.065c0.022,0,0.055,0,0.098,0v-0.033h0.032v-0.032
				c0.023,0,0.054,0,0.097,0l0.032-0.031c0.023,0,0.044,0,0.066,0v-0.031c0.022,0,0.064,0,0.13,0v-0.035c0.044,0,0.076,0,0.097,0
				l0.065-0.063c0.021,0,0.044,0,0.065,0v-0.032c0.02,0,0.042,0,0.065,0l0.031-0.033c0.044,0,0.076,0,0.098,0v-0.031l0.065-0.098
				c0.022,0,0.055,0,0.098,0l0.096-0.099h0.034c0-0.022,0.01-0.032,0.031-0.032l0.064-0.031c0.022,0,0.044,0,0.066,0v-0.065
				c0.021,0,0.032-0.011,0.032-0.032c0.021,0,0.065,0,0.129,0v-0.032l0.065-0.066c0.021,0,0.042,0,0.064,0
				c0-0.042,0.021-0.063,0.065-0.063c0-0.022,0.012-0.033,0.032-0.033l0.032-0.032h0.032l0.032-0.031h0.066l0.031-0.033v-0.064
				c0-0.021,0.012-0.032,0.032-0.032v-0.033h0.032v-0.033c0-0.022,0.012-0.031,0.034-0.031v-0.162h0.032V18.85l0.065-0.033v-0.063
				h0.032V18.72c0-0.022,0.01-0.031,0.032-0.031v-0.032c0-0.023,0.011-0.034,0.032-0.034V18.59l0.033-0.063
				c0-0.022,0.021-0.033,0.064-0.033v-0.064h0.032V18.2c0-0.021-0.01-0.032-0.032-0.032v-0.097l-0.064-0.032v-0.065
				c0-0.043-0.011-0.065-0.033-0.065v-0.064l-0.032-0.032V17.78l-0.032-0.033v-0.064l-0.032-0.033v-0.032l-0.065-0.032v-0.032
				l-0.161-0.195v-0.032l-0.066-0.064h-0.032l-0.032-0.032v-0.034h-0.032l-0.098-0.063c-0.022,0-0.043,0-0.064,0l-0.065-0.098
				c-0.022-0.021-0.054-0.032-0.097-0.032c-1.038,0-2.086,0-3.146,0c-0.021,0-0.033,0.011-0.033,0.032
				C19.789,17.056,19.778,17.065,19.757,17.065z M19.076,19.953c0-0.021,0.012-0.044,0.032-0.064c0.043,0,0.096,0,0.163,0
				C19.183,19.909,19.119,19.932,19.076,19.953z M2.308,19.369c0.001-0.022,0.012-0.044,0.032-0.065
				c0.023-0.021,0.033-0.044,0.033-0.064c-0.021,0-0.044,0-0.065,0v0.033C2.308,19.294,2.308,19.325,2.308,19.369z"/>
</svg>
