<?xml version="1.0"?>
<svg version="1.1" id="Layer_2" xmlns="http://www.w3.org/2000/svg" x="0px" y="0px" width="256px" height="256px" viewBox="0 0 256 256">
  <title/>
  <path d="M126.16,44c-0.18-1.38-0.8-3.93-2.71-4.15c0,0-16.02-1.85-18.59,12.29c0,0-5.13,18.82,9.41,46.21l-15.08,0.64
			H68.51c-10.2,0-18.45,10.81-18.51,24.16h44.89c1.87,0,3.38,1.51,3.38,3.38c0,1.86-1.51,3.38-3.38,3.38H51.86l5.43,19.22h43.68
			c1.86,0,3.38,1.51,3.38,3.38c0,1.86-1.52,3.37-3.38,3.37H59.2l5.43,19.23h33.45c1.86,0,3.38,1.51,3.38,3.37
			c0,1.86-1.51,3.38-3.38,3.38H67.09c5.27,11.59,13.82,20.4,23.03,20.4h68.13l21.34-62.23C174.13,134.96,132.53,92.42,126.16,44z
			 M208.44,154.04c-1.8-3.64-4.9-6.36-8.74-7.67l-7.55-2.57L170.86,206l7.56,2.59c3.84,1.32,7.99,1.05,11.64-0.74
			c3.65-1.79,6.36-4.89,7.67-8.73l11.45-33.45C210.49,161.82,210.23,157.69,208.44,154.04z"/>
</svg>
