<?xml version="1.0"?>
<svg x="0px" y="0px" width="100px" height="100px" viewBox="0 0 220 256" fill="none" xmlns="http://www.w3.org/2000/svg">
  <path d="M62.8236 111.578C62.8236 118.539 57.1801 124.183 50.2186 124.183C43.257 124.183 37.6135 118.539 37.6135 111.578C37.6135 104.616 43.257 98.9728 50.2186 98.9728C57.1801 98.9728 62.8236 104.616 62.8236 111.578Z" fill="#E5E5E5"/>
  <path d="M104.84 111.578C104.84 118.539 99.197 124.183 92.2354 124.183C85.2738 124.183 79.6304 118.539 79.6304 111.578C79.6304 104.616 85.2738 98.9728 92.2354 98.9728C99.197 98.9728 104.84 104.616 104.84 111.578Z" fill="#E5E5E5"/>
  <path d="M146.857 111.578C146.857 118.539 141.214 124.183 134.252 124.183C127.29 124.183 121.647 118.539 121.647 111.578C121.647 104.616 127.29 98.9728 134.252 98.9728C141.214 98.9728 146.857 104.616 146.857 111.578Z" fill="#E5E5E5"/>
  <path d="M188.874 111.578C188.874 118.539 183.23 124.183 176.269 124.183C169.307 124.183 163.664 118.539 163.664 111.578C163.664 104.616 169.307 98.9728 176.269 98.9728C183.23 98.9728 188.874 104.616 188.874 111.578Z" fill="#E5E5E5"/>
  <path d="M62.8236 153.595C62.8236 160.556 57.1801 166.2 50.2186 166.2C43.257 166.2 37.6135 160.556 37.6135 153.595C37.6135 146.633 43.257 140.99 50.2186 140.99C57.1801 140.99 62.8236 146.633 62.8236 153.595Z" fill="#E5E5E5"/>
  <path d="M104.84 153.595C104.84 160.556 99.197 166.2 92.2354 166.2C85.2738 166.2 79.6304 160.556 79.6304 153.595C79.6304 146.633 85.2738 140.99 92.2354 140.99C99.197 140.99 104.84 146.633 104.84 153.595Z" fill="#E5E5E5"/>
  <path d="M146.857 153.595C146.857 160.556 141.214 166.2 134.252 166.2C127.29 166.2 121.647 160.556 121.647 153.595C121.647 146.633 127.29 140.99 134.252 140.99C141.214 140.99 146.857 146.633 146.857 153.595Z" fill="#E5E5E5"/>
  <path d="M188.874 153.595C188.874 160.556 183.23 166.2 176.269 166.2C169.307 166.2 163.664 160.556 163.664 153.595C163.664 146.633 169.307 140.99 176.269 140.99C183.23 140.99 188.874 146.633 188.874 153.595Z" fill="#E5E5E5"/>
  <path d="M62.8236 195.611C62.8236 202.573 57.1801 208.216 50.2186 208.216C43.257 208.216 37.6135 202.573 37.6135 195.611C37.6135 188.65 43.257 183.006 50.2186 183.006C57.1801 183.006 62.8236 188.65 62.8236 195.611Z" fill="#E5E5E5"/>
  <path d="M104.84 195.611C104.84 202.573 99.197 208.216 92.2354 208.216C85.2738 208.216 79.6304 202.573 79.6304 195.611C79.6304 188.65 85.2738 183.006 92.2354 183.006C99.197 183.006 104.84 188.65 104.84 195.611Z" fill="#E5E5E5"/>
  <path d="M146.857 195.611C146.857 202.573 141.214 208.216 134.252 208.216C127.29 208.216 121.647 202.573 121.647 195.611C121.647 188.65 127.29 183.006 134.252 183.006C141.214 183.006 146.857 188.65 146.857 195.611Z" fill="#E5E5E5"/>
  <path fill-rule="evenodd" clip-rule="evenodd" d="M216.696 196.876C218.637 198.84 218.617 202.006 216.653 203.947L197.527 222.839C194.78 225.552 190.355 225.529 187.636 222.787L177.266 212.324C175.322 210.363 175.336 207.197 177.297 205.253C179.258 203.309 182.424 203.323 184.368 205.284L192.63 213.62L209.625 196.832C211.59 194.892 214.755 194.911 216.696 196.876Z" fill="#E5E5E5"/>
  <path fill-rule="evenodd" clip-rule="evenodd" d="M169.538 8H156.974V44.6175L169.538 44.6175V8ZM156.974 0C152.556 0 148.974 3.58172 148.974 7.99999V12.8068H78.3153V8C78.3153 3.58172 74.7335 0 70.3153 0H57.7515C53.3332 0 49.7515 3.58172 49.7515 7.99999V12.8068H12C5.37258 12.8068 0 18.1794 0 24.8068V108.777C0 110.986 1.79086 112.777 4 112.777C6.20914 112.777 8 110.986 8 108.777V77.7627H162.73C164.939 77.7627 166.73 75.9718 166.73 73.7627C166.73 71.5536 164.939 69.7627 162.73 69.7627H8V24.8068C8 22.5976 9.79086 20.8068 12 20.8068H49.7515V44.6175C49.7515 49.0358 53.3332 52.6175 57.7515 52.6175H70.3153C74.7335 52.6175 78.3153 49.0358 78.3153 44.6175V20.8068H148.974V44.6175C148.974 49.0358 152.556 52.6175 156.974 52.6175H169.538C173.956 52.6175 177.538 49.0358 177.538 44.6175V20.8068H214.487C216.696 20.8068 218.487 22.5976 218.487 24.8068V69.7627H181.404C179.195 69.7627 177.404 71.5536 177.404 73.7627C177.404 75.9718 179.195 77.7627 181.404 77.7627H218.487V174.637C212.078 170.481 204.434 168.067 196.227 168.067C173.602 168.067 155.26 186.408 155.26 209.034C155.26 216.458 157.235 223.421 160.689 229.426H12C9.79086 229.426 8 227.636 8 225.426V127.918C8 125.709 6.20914 123.918 4 123.918C1.79086 123.918 0 125.709 0 127.918V225.426C0 232.054 5.37256 237.426 12 237.426H166.695C174.149 245.177 184.625 250 196.227 250C218.852 250 237.193 231.659 237.193 209.034C237.193 198.394 233.137 188.702 226.487 181.419V24.8068C226.487 18.1794 221.115 12.8068 214.487 12.8068H177.538V8C177.538 3.58172 173.956 0 169.538 0H156.974ZM229.193 209.034C229.193 227.24 214.434 242 196.227 242C178.02 242 163.26 227.24 163.26 209.034C163.26 190.827 178.02 176.067 196.227 176.067C214.434 176.067 229.193 190.827 229.193 209.034ZM57.7515 8H70.3153V44.6175L57.7515 44.6175V8Z" fill="#E5E5E5"/>
</svg>
