<?xml version="1.0"?>
<svg xmlns="http://www.w3.org/2000/svg" viewBox="0 0 1000 730" fill="none">
  <defs>
    <linearGradient id="" x1="230.467" y1="96" x2="230.467" y2="182" gradient-units="userSpaceOnUse">
      <stop stop-color="#4897D2"/>
      <stop offset="1" stop-color="#4897D2" stop-opacity="0"/>
    </linearGradient>
    <linearGradient id="" x1="335.453" y1="200.986" x2="249.453" y2="200.986" gradient-units="userSpaceOnUse">
      <stop stop-color="#4897D2"/>
      <stop offset="1" stop-color="#4897D2" stop-opacity="0"/>
    </linearGradient>
    <linearGradient id="" x1="229.467" y1="305.972" x2="229.467" y2="219.972" gradient-units="userSpaceOnUse">
      <stop stop-color="#4897D2"/>
      <stop offset="1" stop-color="#4897D2" stop-opacity="0"/>
    </linearGradient>
    <linearGradient id="" x1="125.482" y1="199.986" x2="211.482" y2="199.986" gradient-units="userSpaceOnUse">
      <stop stop-color="#4897D2"/>
      <stop offset="1" stop-color="#4897D2" stop-opacity="0"/>
    </linearGradient>
  </defs>
  <path stroke="currentColor" d="M984.466 441.201C932.43 156.8 879.654 67.5964 854.643 45.1102C829.633 22.6239 723.709 14.4724 679.154 11.1608C601.135 5.37138 500.839 5.07033 500.839 5.07033C500.839 5.07033 400.519 4.79244 322.523 10.1419C277.945 13.1987 171.998 20.8408 146.848 43.0723C121.699 65.3038 68.5056 154.23 14.7332 438.422C-39.0392 722.615 130.893 722.962 130.893 722.962C130.893 722.962 208.888 731.554 248.21 628.548C291.955 513.963 312.658 503.333 373.98 503.496L482.66 503.82H499.38H516.1L624.802 504.144C686.101 504.306 706.758 515.051 749.854 629.891C788.574 733.128 866.639 724.977 866.639 724.977C866.639 724.977 1036.64 725.625 984.466 441.201Z" stroke-width="4" stroke-miterlimit="10"/>
  <path onClick="" stroke="currentColor" d="M772.92 323.119C840.641 323.119 895.54 268.22 895.54 200.499C895.54 132.778 840.641 77.8784 772.92 77.8784C705.198 77.8784 650.299 132.778 650.299 200.499C650.299 268.22 705.198 323.119 772.92 323.119Z" stroke-width="3" stroke-miterlimit="10"/>
  <path stroke="currentColor" d="M229.73 323.119C297.452 323.119 352.351 268.22 352.351 200.499C352.351 132.778 297.452 77.8784 229.73 77.8784C162.009 77.8784 107.11 132.778 107.11 200.499C107.11 268.22 162.009 323.119 229.73 323.119Z" stroke-width="3" stroke-miterlimit="10"/>
  <path stroke="currentColor" d="M314.789 180.583H249.669V115.464C249.669 110.176 247.568 105.104 243.829 101.365C240.09 97.6256 235.018 95.5249 229.73 95.5249C224.442 95.5249 219.371 97.6256 215.631 101.365C211.892 105.104 209.791 110.176 209.791 115.464V180.583H144.672C139.504 180.76 134.607 182.936 131.014 186.654C127.421 190.372 125.412 195.34 125.412 200.511C125.412 205.681 127.421 210.65 131.014 214.367C134.607 218.085 139.504 220.262 144.672 220.438H209.907V285.558C209.907 290.846 212.008 295.917 215.747 299.657C219.486 303.396 224.558 305.497 229.846 305.497C235.134 305.497 240.206 303.396 243.945 299.657C247.684 295.917 249.785 290.846 249.785 285.558V220.438H314.905C317.579 220.529 320.244 220.081 322.741 219.121C325.238 218.16 327.517 216.707 329.441 214.848C331.365 212.988 332.895 210.761 333.939 208.298C334.984 205.835 335.523 203.186 335.523 200.511C335.523 197.835 334.984 195.187 333.939 192.724C332.895 190.261 331.365 188.033 329.441 186.174C327.517 184.314 325.238 182.861 322.741 181.901C320.244 180.94 317.579 180.492 314.905 180.583H314.789Z" stroke-miterlimit="10"/>
  <path fill="" d="M496.091 145.198C486.035 145.207 476.35 148.999 468.961 155.821C461.573 162.643 457.022 171.996 456.214 182.019L477.658 190.866C479.548 189.595 481.771 188.91 484.049 188.897H484.674L494.215 175.003V174.817C494.211 171.829 495.093 168.907 496.75 166.42C498.408 163.934 500.766 161.995 503.526 160.849C506.285 159.703 509.323 159.402 512.254 159.984C515.185 160.566 517.878 162.005 519.991 164.118C522.104 166.231 523.542 168.923 524.124 171.854C524.706 174.785 524.405 177.823 523.259 180.583C522.114 183.343 520.175 185.701 517.688 187.358C515.202 189.015 512.279 189.898 509.291 189.893H508.967L495.35 199.596C495.361 199.773 495.361 199.951 495.35 200.129C495.39 202.958 494.369 205.7 492.488 207.814C490.608 209.928 488.004 211.262 485.19 211.552C482.375 211.842 479.554 211.069 477.281 209.383C475.008 207.698 473.449 205.222 472.91 202.445L457.696 196.122C459.729 203.283 463.719 209.735 469.218 214.753C474.717 219.77 481.507 223.154 488.823 224.525C496.14 225.895 503.694 225.198 510.636 222.51C517.578 219.823 523.633 215.253 528.12 209.313C532.607 203.374 535.349 196.3 536.036 188.888C536.724 181.476 535.33 174.019 532.012 167.355C528.694 160.692 523.583 155.086 517.254 151.167C510.925 147.249 503.628 145.174 496.184 145.175L496.091 145.198Z"/>
  <path fill="" d="M481.293 205.918L476.384 203.88C477.095 205.366 478.222 206.612 479.63 207.467C481.037 208.322 482.663 208.748 484.308 208.694C485.954 208.64 487.548 208.108 488.896 207.162C490.244 206.217 491.288 204.899 491.9 203.371C492.511 201.842 492.664 200.168 492.34 198.554C492.016 196.939 491.228 195.454 490.074 194.28C488.919 193.106 487.448 192.294 485.839 191.942C484.231 191.591 482.554 191.716 481.016 192.301L486.087 194.409C486.847 194.725 487.538 195.188 488.119 195.771C488.701 196.354 489.161 197.046 489.475 197.807C489.789 198.569 489.95 199.384 489.949 200.208C489.948 201.031 489.784 201.846 489.468 202.606C489.152 203.367 488.689 204.057 488.106 204.639C487.523 205.22 486.831 205.681 486.069 205.995C485.308 206.309 484.493 206.47 483.669 206.469C482.846 206.467 482.031 206.304 481.27 205.988L481.293 205.918Z"/>
  <path fill="" d="M519.365 174.91C519.369 172.916 518.783 170.967 517.678 169.307C516.574 167.647 515.003 166.352 513.162 165.586C511.322 164.82 509.296 164.618 507.34 165.004C505.384 165.39 503.587 166.347 502.176 167.755C500.765 169.163 499.803 170.958 499.413 172.913C499.022 174.868 499.22 176.894 499.982 178.736C500.744 180.578 502.035 182.153 503.692 183.261C505.349 184.369 507.298 184.96 509.291 184.96C510.613 184.963 511.922 184.706 513.144 184.202C514.366 183.698 515.477 182.958 516.413 182.025C517.349 181.091 518.091 179.982 518.598 178.761C519.104 177.54 519.365 176.232 519.365 174.91V174.91ZM501.765 174.91C501.765 173.417 502.208 171.957 503.037 170.716C503.867 169.474 505.046 168.506 506.425 167.935C507.805 167.364 509.323 167.214 510.787 167.505C512.252 167.797 513.597 168.516 514.653 169.572C515.708 170.627 516.427 171.973 516.719 173.437C517.01 174.901 516.861 176.419 516.289 177.799C515.718 179.178 514.75 180.357 513.509 181.187C512.267 182.016 510.807 182.459 509.314 182.459C508.315 182.468 507.324 182.279 506.399 181.902C505.473 181.526 504.632 180.969 503.923 180.265C503.214 179.56 502.652 178.722 502.27 177.799C501.888 176.876 501.692 175.886 501.695 174.887L501.765 174.91Z"/>
  <path onClick="" stroke="currentColor" d="M597.129 186.882H564.082C557.048 186.882 551.346 192.585 551.346 199.619V204.806C551.346 211.841 557.048 217.543 564.082 217.543H597.129C604.163 217.543 609.865 211.841 609.865 204.806V199.619C609.865 192.585 604.163 186.882 597.129 186.882Z" stroke-miterlimit="10"/>
  <path onClick="" stroke="currentColor" d="M428.517 186.882H395.471C388.436 186.882 382.734 192.585 382.734 199.619V204.806C382.734 211.841 388.436 217.543 395.471 217.543H428.517C435.551 217.543 441.254 211.841 441.254 204.806V199.619C441.254 192.585 435.551 186.882 428.517 186.882Z" stroke-miterlimit="10"/>
  <path fill="currentColor" d="M605.167 315.941V301.657L595 282H601.554L608.089 295.414L614.544 282H621L610.774 301.756V316L605.167 315.941Z"/>
  <path fill="currentColor" d="M539 370.919L549.03 352.748L539.927 336H546.764L552.51 346.447L558.297 336H565.073L555.97 352.707L566 371H558.936L552.49 359.069L546.023 370.919H539Z"/>
  <path fill="currentColor" d="M622 429H616.11L613.759 421.059H602.974L600.737 428.98H595L605.479 394H611.215L622 429ZM612.076 415.155L608.251 402.185L604.599 415.155H612.076Z"/>
  <path fill="currentColor" d="M656 336.032H667.382C669.602 335.898 671.827 336.188 673.94 336.885C675.333 337.529 676.485 338.603 677.23 339.952C678.12 341.425 678.575 343.123 678.542 344.847C678.568 346.441 678.185 348.015 677.432 349.417C676.769 350.678 675.76 351.721 674.526 352.423C676.181 352.959 677.605 354.048 678.562 355.51C679.551 357.11 680.049 358.968 679.995 360.852C680.066 363.136 679.432 365.386 678.178 367.291C677.183 368.87 675.646 370.026 673.86 370.541C671.187 370.928 668.486 371.071 665.788 370.967H656.121L656 336.032ZM661.711 341.841V349.965H665.505C666.912 349.997 668.32 349.956 669.723 349.843C670.61 349.73 671.423 349.289 672.003 348.604C672.514 347.829 672.799 346.927 672.828 345.997C672.856 345.068 672.627 344.149 672.165 343.344C671.79 342.746 671.207 342.311 670.53 342.125C668.708 341.917 666.874 341.843 665.041 341.902L661.711 341.841ZM661.711 355.713V365.016H667.14C668.649 365.097 670.163 364.974 671.64 364.65C672.338 364.372 672.921 363.864 673.295 363.208C673.757 362.355 674 361.398 674 360.426C674 359.453 673.757 358.496 673.295 357.643C672.818 356.915 672.104 356.376 671.277 356.12C669.673 355.771 668.031 355.634 666.393 355.713H661.711Z"/>
  <path onClick="" stroke="currentColor" d="M608.476 325.551C623.862 325.551 636.335 313.078 636.335 297.692C636.335 282.306 623.862 269.833 608.476 269.833C593.09 269.833 580.617 282.306 580.617 297.692C580.617 313.078 593.09 325.551 608.476 325.551Z" stroke-width="2" stroke-miterlimit="10"/>
  <path onClick="" stroke="currentColor" d="M552.735 381.292C568.121 381.292 580.594 368.819 580.594 353.433C580.594 338.047 568.121 325.574 552.735 325.574C537.349 325.574 524.876 338.047 524.876 353.433C524.876 368.819 537.349 381.292 552.735 381.292Z" stroke-width="2" stroke-miterlimit="10"/>
  <path onClick="" stroke="currentColor" d="M666.996 381.292C682.382 381.292 694.855 368.819 694.855 353.433C694.855 338.047 682.382 325.574 666.996 325.574C651.61 325.574 639.137 338.047 639.137 353.433C639.137 368.819 651.61 381.292 666.996 381.292Z" stroke-width="2" stroke-miterlimit="10"/>
  <path onClick="" stroke="currentColor" d="M608.476 439.812C623.862 439.812 636.335 427.339 636.335 411.953C636.335 396.567 623.862 384.094 608.476 384.094C593.09 384.094 580.617 396.567 580.617 411.953C580.617 427.339 593.09 439.812 608.476 439.812Z" stroke-width="2" stroke-miterlimit="10"/>
  <path stroke="currentColor" d="M62.9246 229.192C47.4552 283.427 31.1753 352.391 14.8722 439.812C-38.0665 724.074 131.935 724.074 131.935 724.074C131.935 724.074 169.636 728.103 205.739 695.914C101.506 537.7 71.5161 335.834 62.9246 229.192Z" stroke-width="2" stroke-miterlimit="10"/>
  <path stroke="currentColor" d="M938.938 229.192C954.407 283.427 970.687 352.391 986.967 439.812C1039.93 724.074 869.904 724.074 869.904 724.074C869.904 724.074 832.18 728.103 796.1 695.914C900.334 537.7 930.323 335.834 938.938 229.192Z" stroke-width="2" stroke-miterlimit="10"/>
  <path stroke="currentColor" d="M853.694 44.0912C828.614 21.7902 722.69 13.824 678.111 10.6514C600.093 5.07032 499.796 5.07031 499.796 5.07031C499.796 5.07031 399.454 5.07032 321.481 10.6514C276.903 13.824 170.956 21.7902 145.899 44.0912C135.362 53.4701 119.87 74.6826 101.529 117.27C118.133 97.0531 151.156 68.4069 210 58.009C279.265 45.8049 425.9 44.1144 499.843 43.9059C573.786 43.6975 720.397 45.8049 789.662 58.009C848.506 68.4069 881.529 97.0531 898.134 117.27C879.746 74.6826 864.254 53.4701 853.694 44.0912Z" stroke-width="2" stroke-miterlimit="10"/>
  <circle onClick="" style="" stroke="currentColor" cx="388.315" cy="372.932" r="58.52" fill="none" stroke-width="3" stroke-miterlimit="10"/>
  <circle stroke="currentColor" cx="388.315" cy="372.932" r="80.821" stroke-miterlimit="10"/>
  <path fill="currentColor" d="M575.8 202.213V195.266L582.47 198.739L589.116 202.213L582.47 205.687L575.8 209.16V202.213Z"/>
  <path fill="currentColor" d="M418.327 202.213V195.266L411.658 198.739L404.988 202.213L411.658 205.687L418.327 209.16V202.213Z"/>
</svg>
