<?xml version="1.0"?>
<svg xmlns="http://www.w3.org/2000/svg" viewBox="0 0 100.25 32">
  <path fill="currentColor" d="M97.74,7.175c0,0.047,0.012,0.096,0.035,0.143
				c0,0.048,0,0.096,0,0.145c0,0.022,0,0.06,0,0.106c0,0.049,0,0.096,0,0.145v0.323c0.551,0,1.1,0,1.651,0
				c0.072,0,0.131,0.011,0.178,0.035c0.026,0,0.048,0.012,0.073,0.036h0.036V8.072c0.024,0,0.047,0,0.072,0
				c0.047,0.023,0.108,0.049,0.18,0.07c0.023,0.024,0.047,0.062,0.07,0.109c0.025,0,0.038,0.023,0.038,0.07
				c0.024,0.024,0.035,0.049,0.035,0.073v0.071c-0.024,0.048-0.035,0.083-0.035,0.107c-0.018,0.017-0.029,0.042-0.038,0.073
				c0.026,0,0.049,0,0.073,0c0,0.047,0,0.094,0,0.143c0,0.048,0,0.096,0,0.144s0,0.096,0,0.144c0,0.023,0,0.06,0,0.107
				c0,0.03,0,0.06,0,0.09c0.012,0.013,0.024,0.029,0.036,0.054c0.024,0.024,0.037,0.06,0.037,0.107l0.035,0.037
				c0,0.047,0,0.084,0,0.107s0,0.06,0,0.107v0.071c0,0.024-0.011,0.047-0.035,0.072c-0.023,0.022-0.048,0.047-0.072,0.07
				c0,0.037,0,0.072,0,0.109c0,0.046,0,0.095,0,0.143c0,0.024,0,0.06,0,0.107s0,0.097,0,0.145c0,0.047,0,0.096,0,0.143
				c0,0.048,0,0.095,0,0.144c0,0.024,0,0.048,0,0.072c-0.175,0-0.348,0-0.52,0l0.016,0.035c0,0.024,0.013,0.049,0.038,0.072
				c0.022,0.024,0.047,0.048,0.071,0.072c0,0.048,0,0.084,0,0.106l-0.019,0.018c-3.121-0.011-6.238-0.017-9.347-0.018
				c-0.047,0.025-0.083,0.049-0.107,0.073c-0.144,0.006-0.288,0.012-0.431,0.017c0,0.03,0,0.061,0,0.09h-0.034v-0.035
				c0-0.02,0-0.036,0-0.055c-0.396,0.022-0.792,0.046-1.185,0.072v0.018c-0.048,0-0.096,0-0.144,0c0,0.024,0,0.05,0,0.072
				c-0.175-0.006-0.347-0.013-0.521-0.019c-0.018,0.02-0.035,0.037-0.053,0.055c-0.024,0.047-0.036,0.095-0.036,0.143
				c-0.035,0.007-0.072,0.015-0.107,0.02c0,0.044,0,0.085,0,0.124c0,0.049,0,0.097,0,0.145c0,0.023,0,0.06,0,0.107s0,0.097,0,0.144
				v0.019c0.061,0.004,0.121,0.009,0.178,0.018c0,0.048,0,0.096,0,0.144s0,0.096,0,0.144c0,0.047,0,0.096,0,0.144
				c0,0.023,0,0.059,0,0.106c0,0.049,0,0.097,0,0.144c0,0.049,0,0.098,0,0.145c0,0.048,0,0.096,0,0.144c0,0.023,0,0.061,0,0.106
				c0,0.05,0,0.096,0,0.145s0,0.096,0,0.145c0,0.047,0,0.094,0,0.142c0,0.024,0,0.061,0,0.108s0,0.097,0,0.145s0,0.094,0,0.143
				c0,0.048,0,0.096,0,0.144c0,0.023,0,0.048,0,0.072c-0.118-0.003-0.238-0.003-0.358,0c0,0.033,0,0.068,0,0.107
				c0,0.023,0,0.048,0,0.072c-0.119,0-0.24,0-0.358,0c-0.204,0-0.407,0-0.61,0v0.035c0,0.023,0,0.049,0,0.072
				s-0.013,0.048-0.037,0.071c-0.023,0.025-0.036,0.061-0.036,0.108c-0.023,0.024-0.047,0.035-0.07,0.035
				c-0.025,0-0.049,0.013-0.074,0.037c-0.023,0.022-0.047,0.035-0.07,0.035l-0.036,0.035c-0.048,0.024-0.096,0.035-0.145,0.035
				c-0.072,0-0.143,0-0.215,0c-0.048,0-0.095,0-0.143,0v0.036c-0.24,0.049-0.479,0.098-0.718,0.145c0,0.023,0,0.048,0,0.071
				c-0.215,0.024-0.418,0.061-0.61,0.108c-0.048,0.023-0.084,0.048-0.108,0.07c-0.622,0.024-1.244,0.062-1.865,0.108
				c-0.048,0.023-0.085,0.049-0.108,0.072c-0.492-0.013-0.981-0.026-1.472-0.035c-0.024,0.023-0.048,0.047-0.072,0.071h-0.037
				c-0.047,0.025-0.108,0.036-0.179,0.036c-3.366,0-6.732,0-10.101,0c-0.111,0.011-0.225,0.022-0.341,0.036c0,0.023,0,0.047,0,0.07
				c-0.526,0.024-1.065,0.061-1.616,0.108c0,0.023,0,0.048,0,0.071c-0.573,0.023-1.136,0.06-1.686,0.107
				c-0.047,0.024-0.083,0.048-0.107,0.073c-0.455,0.023-0.898,0.059-1.328,0.106c-0.048,0.024-0.084,0.048-0.108,0.072
				c-0.406,0.023-0.825,0.06-1.255,0.108c0,0.023,0,0.047,0,0.071c-0.479,0.023-0.958,0.06-1.437,0.107c0,0.023,0,0.048,0,0.071
				c-0.454,0.024-0.897,0.06-1.328,0.107c-0.047,0.023-0.083,0.049-0.107,0.072c-0.575,0.024-1.137,0.061-1.687,0.106
				c-0.047,0.024-0.084,0.049-0.108,0.072c-0.741-0.023-1.471-0.035-2.189-0.035c-0.023-0.024-0.059-0.06-0.107-0.107
				c-0.383-0.024-0.765-0.048-1.148-0.072c-0.024-0.024-0.06-0.061-0.107-0.108c-0.12-0.023-0.25-0.047-0.395-0.071
				c0-0.024,0-0.06,0-0.108c-0.12-0.021-0.239-0.046-0.359-0.069c0-0.024,0-0.062,0-0.109c-0.048-0.022-0.107-0.047-0.178-0.071
				c0-0.023,0-0.06,0-0.107c-0.12-0.023-0.24-0.048-0.359-0.072c0-0.023,0-0.06,0-0.107c-0.048-0.024-0.108-0.048-0.18-0.072
				c-0.024-0.048-0.037-0.096-0.037-0.144c-0.023-0.047-0.059-0.094-0.105-0.143c-0.048-0.048-0.085-0.085-0.109-0.108
				c-0.094-0.047-0.192-0.096-0.287-0.144c-0.023-0.048-0.036-0.095-0.036-0.144c-0.025-0.048-0.061-0.095-0.108-0.145
				c-2.52,0.021-5.042,0.045-7.572,0.073c0,0.023,0,0.048,0,0.071c-0.79-0.023-1.58-0.036-2.368-0.036
				c-0.024-0.023-0.061-0.059-0.108-0.108c-0.12-0.022-0.251-0.047-0.395-0.071c0-0.027,0-0.058,0-0.088
				c-0.021,0.011-0.044,0.017-0.072,0.017c0,0.024-0.011,0.035-0.035,0.035l-0.107,0.107c-0.024,0.026-0.048,0.037-0.073,0.037
				c0,0.024-0.012,0.036-0.036,0.036c0,0.023-0.012,0.035-0.036,0.035l-0.035,0.036c-0.025,0-0.05,0.013-0.073,0.036h-0.035
				c-0.048,0.024-0.083,0.037-0.108,0.037l-0.035,0.035h-0.036v0.035l-0.072,0.035l-0.036,0.036h-0.019
				c-0.016,0.005-0.034,0.017-0.052,0.037h-0.038c-0.048,0.023-0.083,0.035-0.107,0.035c0,0.023-0.011,0.037-0.036,0.037
				c-0.023,0-0.036,0.012-0.036,0.035c-0.023,0-0.036,0.012-0.036,0.036c-0.024,0-0.036,0.012-0.036,0.036
				c-0.023,0-0.037,0.013-0.037,0.036c-0.023,0-0.047,0.011-0.07,0.036c-0.024,0-0.036,0.011-0.036,0.034
				c-0.025,0-0.048,0.012-0.072,0.036H41.83c0,0.024-0.012,0.036-0.035,0.036c-0.023,0.023-0.047,0.036-0.071,0.036
				c0,0.023-0.012,0.035-0.037,0.035v0.036c-0.121,0.023-0.24,0.036-0.359,0.036l-0.036,0.035c-0.025,0.024-0.049,0.036-0.073,0.036
				l-0.071,0.073v0.035l-0.036,0.035v0.036c-0.048,0.024-0.084,0.036-0.107,0.036l-0.036,0.036v0.035h-0.035
				c-0.024,0.024-0.048,0.036-0.072,0.036l-0.108,0.108v0.07c-0.048,0.025-0.083,0.037-0.108,0.037l-0.072,0.071v0.072
				c-0.048,0.022-0.084,0.035-0.108,0.035c-0.023,0.023-0.047,0.036-0.072,0.036v0.072c-0.046,0-0.083,0-0.108,0v0.036
				c-0.023,0.023-0.047,0.034-0.071,0.034c0,0.024-0.011,0.037-0.035,0.037s-0.035,0.012-0.035,0.035L40.107,16.9v0.07
				c-0.067,0-0.139,0-0.213,0c0,0.024-0.013,0.037-0.037,0.037v0.07c-0.024,0-0.06,0-0.107,0c-0.024,0.025-0.048,0.038-0.072,0.038
				c-0.071,0.023-0.155,0.035-0.25,0.035c-0.073,0.023-0.155,0.035-0.252,0.035v0.072c-0.071,0-0.143,0-0.215,0
				c-0.047,0.023-0.095,0.036-0.143,0.036c-0.288,0.023-0.574,0.035-0.861,0.035c-0.286,0-0.562,0-0.826,0
				c-0.047,0-0.097-0.012-0.145-0.035c-0.047,0-0.083-0.013-0.106-0.036c-0.025,0-0.048-0.012-0.073-0.036v-0.036
				c-0.045-0.022-0.093-0.035-0.143-0.035c0.024,0,0.036,0.013,0.036,0.035v0.287c0.012,0.013,0.024,0.024,0.037,0.036l0.036,0.036
				v0.036c0,0.048,0,0.083,0,0.107c-0.013,0.012-0.024,0.024-0.036,0.036c-0.013-0.012-0.024-0.024-0.037-0.036
				c-0.191,0-0.394,0-0.611,0c-0.024,0-0.06-0.012-0.108-0.036l-0.07-0.071v-0.072c-0.048-0.023-0.085-0.036-0.108-0.036v-0.036
				l-0.035-0.035v-0.036c-0.025,0-0.037-0.012-0.037-0.036l-0.036-0.035c-0.024,0-0.049-0.013-0.072-0.036
				c0-0.025-0.011-0.036-0.036-0.036v-0.071l-0.036-0.035v-0.038l-0.216-0.215v-0.035c-0.024,0-0.035-0.013-0.035-0.037l-0.073-0.07
				v-0.036c0-0.023-0.012-0.036-0.036-0.036v-0.071c-0.023-0.023-0.047-0.037-0.07-0.037l-0.036-0.035
				c0-0.023-0.012-0.036-0.037-0.036v-0.035c-0.022,0-0.035-0.012-0.035-0.037V16.36l-0.036-0.034v-0.035
				c-0.024,0-0.035-0.013-0.035-0.036l-0.038-0.037v-0.036h-0.036v-0.035c0-0.024-0.012-0.036-0.036-0.036
				c0-0.023-0.012-0.036-0.036-0.036l-0.072-0.071v-0.035c0-0.025-0.013-0.037-0.036-0.037v-0.036l-0.036-0.036v-0.215h-0.036
				c0-0.024-0.011-0.036-0.036-0.036v-0.034l-0.036-0.036V15.5H34.51c-0.061-0.005-0.12-0.017-0.179-0.036c-0.432,0-0.85,0-1.257,0
				c-0.233,0.018-0.46,0.029-0.683,0.036v0.036c-0.047,0-0.094,0-0.143,0c-0.072,0.023-0.143,0.047-0.215,0.07
				c-0.263,0.024-0.539,0.048-0.826,0.072c-0.024,0-0.06,0.012-0.108,0.036c-0.048,0-0.083,0.012-0.107,0.035
				c-0.072,0-0.119,0.013-0.144,0.036c-0.024,0-0.048,0.012-0.071,0.036c-0.073,0-0.121,0.013-0.144,0.035
				c-0.048,0.024-0.084,0.036-0.108,0.036c-0.047,0.024-0.096,0.036-0.143,0.036c-0.071,0.024-0.12,0.049-0.143,0.072
				c-0.073,0.023-0.144,0.048-0.216,0.071c0,0.024-0.023,0.048-0.071,0.072c-0.048,0-0.084,0.013-0.108,0.035
				c-0.047,0.024-0.083,0.048-0.107,0.073c-0.048,0.023-0.096,0.036-0.143,0.036v0.035c-0.014,0.008-0.032,0.013-0.054,0.019
				c-0.002,0.018-0.01,0.035-0.018,0.052c-0.024,0.025-0.048,0.048-0.072,0.072l-0.036,0.036h-0.037v0.035
				c-0.047,0.048-0.095,0.096-0.142,0.145c-0.049,0.048-0.096,0.096-0.144,0.144c-0.072,0.048-0.144,0.097-0.216,0.143
				c0,0.024,0,0.062,0,0.107c0,0.049,0,0.085,0,0.108v0.036c-0.047,0.024-0.106,0.06-0.18,0.107c0,0.024,0,0.048,0,0.072
				c-0.047,0.023-0.107,0.06-0.18,0.107c0,0.024,0,0.06,0,0.108c0,0.047,0,0.083,0,0.107v0.035
				c-0.047,0.024-0.106,0.061-0.179,0.108c0,0.023,0,0.06,0,0.107c0,0.049,0,0.084,0,0.107v0.035
				c-0.046,0.024-0.107,0.061-0.18,0.108c0,0.024,0,0.06,0,0.107s0,0.096,0,0.145c0,0.047,0,0.096,0,0.144s0,0.095,0,0.143
				c0,0.024,0,0.061,0,0.107c0,0.048,0,0.096,0,0.144s0,0.096,0,0.145c0,0.047,0,0.096,0,0.143c0,0.024,0,0.061,0,0.108
				s0,0.096,0,0.142c0,0.05,0,0.098,0,0.145c0,0.048,0,0.097,0,0.144c-0.023,0.023-0.035,0.061-0.035,0.108
				c-0.023,0.048-0.06,0.084-0.108,0.107l-0.035,0.036c-0.06-0.002-0.12-0.002-0.18,0c-0.024,0.023-0.037,0.049-0.037,0.071
				c-0.024,0.049-0.047,0.085-0.072,0.108l-0.071,0.035c-0.049,0-0.108,0.013-0.179,0.036h-0.073
				c-0.071-0.023-0.144-0.036-0.215-0.036c-0.022-0.048-0.047-0.084-0.071-0.106c-0.024-0.024-0.036-0.06-0.036-0.108v-0.017
				c-0.167-0.008-0.334-0.013-0.502-0.02v0.036c-0.049,0.023-0.108,0.061-0.18,0.108c0,0.022,0,0.048,0,0.071
				c-0.06,0.012-0.119,0.028-0.179,0.053c0,0.026,0,0.058,0,0.091c0,0.049,0,0.096,0,0.144c0,0.023,0,0.047,0,0.071
				c-0.048,0.024-0.108,0.06-0.18,0.107c0,0.023,0,0.048,0,0.071c-0.28-0.008-0.563-0.014-0.843-0.017
				c-0.389-0.012-0.777-0.017-1.166-0.019c0,0.024,0,0.047,0,0.071c0.022,0.023,0.048,0.048,0.071,0.072
				c0.024,0.024,0.06,0.061,0.107,0.107c0.024,0.024,0.035,0.048,0.035,0.071v0.038l0.037,0.034c0,0.049,0,0.084,0,0.107
				c-0.024,0.025-0.037,0.049-0.037,0.073c-0.023,0.022-0.035,0.059-0.035,0.106c-0.023,0.024-0.047,0.035-0.072,0.035
				c-0.024,0-0.048,0-0.072,0c-0.024,0.024-0.06,0.037-0.108,0.037c-0.072,0-0.12,0-0.143,0c-0.073-0.024-0.144-0.037-0.215-0.037
				c-0.025-0.023-0.06-0.047-0.108-0.07c-0.024-0.049-0.048-0.084-0.072-0.107c-0.024,0-0.048-0.025-0.072-0.072
				c0-0.023,0-0.061,0-0.106v-0.038c0-0.047,0-0.083,0-0.106c0-0.048,0-0.084,0-0.107c-0.023,0-0.048-0.025-0.071-0.073
				c0-0.023-0.013-0.048-0.036-0.071c0-0.024,0-0.048,0-0.071c-0.047-0.048-0.084-0.084-0.108-0.107
				c-0.048-0.024-0.071-0.048-0.071-0.072c0-0.022-0.012-0.048-0.036-0.071c-0.025-0.048-0.049-0.084-0.072-0.108
				c-0.024-0.023-0.048-0.048-0.072-0.071c-0.023-0.023-0.035-0.06-0.035-0.108c-0.024-0.023-0.037-0.047-0.037-0.071v-0.036
				c-0.071-0.023-0.144-0.048-0.215-0.071c-0.025-0.048-0.048-0.072-0.072-0.072c-0.023-0.023-0.047-0.059-0.071-0.106
				c-0.072-0.025-0.132-0.049-0.179-0.073c-0.073,0-0.145,0-0.215,0c-0.049,0-0.108,0.012-0.18,0.036
				c-0.048-0.024-0.107-0.036-0.179-0.036c-0.024-0.023-0.047-0.047-0.072-0.07c-0.023-0.049-0.047-0.085-0.072-0.108
				c0-0.024,0-0.049,0-0.072c0-0.022,0-0.047,0-0.071v-0.072c0-0.047,0-0.083,0-0.107c0-0.018,0-0.042,0-0.071
				c-0.096,0.023-0.18,0.059-0.251,0.107c-0.096,0.048-0.191,0.096-0.287,0.144c0,0.049,0,0.095,0,0.144
				c-0.096,0.048-0.18,0.097-0.251,0.145c-0.096,0.022-0.192,0.046-0.289,0.07c-0.118,0.023-0.237,0.061-0.357,0.107
				c-0.048,0.023-0.107,0.048-0.18,0.072c-0.095,0.023-0.179,0.06-0.25,0.107c-0.047,0.024-0.084,0.048-0.107,0.072
				c-0.119,0.023-0.24,0.061-0.359,0.108c0,0.022,0,0.048,0,0.071c-0.119,0.023-0.24,0.06-0.359,0.107c0,0.022,0,0.048,0,0.071
				c-0.12,0.025-0.239,0.061-0.358,0.108c0,0.023,0,0.047,0,0.071c-0.144,0.024-0.287,0.06-0.432,0.107
				c-0.047,0.023-0.083,0.048-0.107,0.071c-0.048,0.024-0.106,0.06-0.18,0.108c0,0.024,0,0.049,0,0.072
				c-0.143,0.023-0.286,0.06-0.43,0.106c-0.047,0.024-0.083,0.049-0.108,0.072c-0.119,0.024-0.239,0.06-0.357,0.107
				c0,0.025,0,0.049,0,0.073c-0.121,0.022-0.239,0.059-0.359,0.106c0,0.024,0,0.048,0,0.072c-0.144,0.022-0.288,0.06-0.43,0.107
				c-0.048,0.023-0.084,0.048-0.109,0.071c-0.118,0.024-0.239,0.061-0.357,0.109c0,0.022,0,0.046,0,0.07
				c-0.048,0.024-0.109,0.06-0.181,0.108v0.071c-0.094,0.024-0.179,0.06-0.251,0.107c-0.046,0.024-0.084,0.048-0.108,0.072
				c-0.119,0.023-0.239,0.061-0.358,0.107c0,0.023,0,0.047,0,0.071c-0.121,0.023-0.239,0.061-0.359,0.107c0,0.023,0,0.049,0,0.072
				c-0.096,0.023-0.179,0.061-0.252,0.107c-0.048,0.024-0.083,0.049-0.106,0.072c-0.097,0.023-0.18,0.06-0.253,0.107
				c-0.047,0.024-0.083,0.049-0.107,0.072c-0.095,0.024-0.179,0.06-0.251,0.107c-0.047,0.023-0.084,0.048-0.108,0.072
				c-0.048,0.022-0.107,0.06-0.179,0.107c0,0.023,0,0.047,0,0.07c-0.12,0.024-0.238,0.061-0.358,0.109c0,0.024,0,0.048,0,0.07
				c-0.12,0.025-0.239,0.061-0.36,0.109c0,0.023,0,0.047,0,0.071c-0.119,0.022-0.24,0.06-0.357,0.107c0,0.023,0,0.048,0,0.071
				c-0.168,0.023-0.348,0.06-0.539,0.107c0,0.024,0,0.048,0,0.072c-0.096,0.023-0.18,0.061-0.252,0.107
				c-0.048,0.023-0.083,0.049-0.106,0.072c-0.12,0.024-0.24,0.06-0.359,0.107c0,0.023,0,0.048,0,0.072
				c-0.12,0.023-0.24,0.061-0.36,0.107c0,0.023,0,0.047,0,0.071c-0.119,0.024-0.239,0.061-0.358,0.107c0,0.023,0,0.049,0,0.071
				c-0.168,0.025-0.347,0.061-0.538,0.108c0,0.023,0,0.048,0,0.072c-0.12,0.023-0.241,0.06-0.359,0.106c0,0.025,0,0.049,0,0.073
				c-0.12,0.023-0.239,0.06-0.36,0.107c0,0.023,0,0.048,0,0.071c-0.119,0.023-0.238,0.06-0.358,0.108c0,0.023,0,0.047,0,0.071
				c-0.12,0.022-0.239,0.06-0.359,0.108c0,0.023,0,0.047,0,0.071c-0.095,0.023-0.18,0.059-0.251,0.107
				c-0.047,0.023-0.084,0.048-0.107,0.071c-0.12,0.024-0.241,0.061-0.36,0.109c0,0.022,0,0.047,0,0.07
				c-0.119,0.024-0.239,0.061-0.358,0.108c0,0.023,0,0.047,0,0.071c-0.167,0.023-0.347,0.061-0.539,0.107c0,0.023,0,0.048,0,0.072
				c-0.144,0.022-0.287,0.06-0.43,0.106c-0.048,0.024-0.085,0.049-0.108,0.072c-0.144,0.023-0.287,0.061-0.43,0.106
				c-0.048,0.024-0.085,0.05-0.108,0.073c-0.119,0.023-0.24,0.061-0.358,0.107c0,0.023,0,0.049,0,0.072
				c-0.097-0.003-0.192-0.003-0.288,0c0,0.024,0,0.06,0,0.107c0,0.023,0,0.06,0,0.107v0.035c-0.024,0.049-0.048,0.084-0.072,0.108
				l-0.036,0.036c-0.023,0-0.037,0.012-0.037,0.035c-0.023,0-0.059,0.012-0.106,0.036c-0.048,0-0.084,0-0.107,0
				c-0.048-0.024-0.096-0.048-0.144-0.071H4.188c-0.023,0-0.061,0-0.108,0c-0.047,0.023-0.095,0.047-0.143,0.071
				c-0.047,0-0.095,0-0.144,0c-0.046-0.024-0.107-0.048-0.179-0.071c-0.024,0-0.047-0.023-0.07-0.072v-0.035
				c-0.025-0.025-0.049-0.049-0.073-0.072c0,0.023,0,0.047,0,0.072v0.035c-0.024,0.024-0.047,0.049-0.072,0.072l-0.036,0.071
				c0,0.024-0.012,0.061-0.036,0.107c-0.049,0.023-0.096,0.037-0.144,0.037c-0.048,0.022-0.107,0.048-0.179,0.07
				c-0.095,0-0.204,0-0.323,0c-0.072-0.022-0.13-0.048-0.18-0.07c-0.024,0-0.048,0-0.072,0c-0.047-0.025-0.096-0.049-0.144-0.073
				c-0.024-0.023-0.048-0.047-0.07-0.071c-0.049-0.024-0.109-0.048-0.18-0.071c-0.048,0-0.072-0.013-0.072-0.036
				c-0.095-0.024-0.167-0.049-0.215-0.071C1.7,27.173,1.651,27.15,1.604,27.126c-0.024-0.023-0.049-0.048-0.072-0.071
				c-0.048-0.049-0.084-0.084-0.108-0.107C1.4,26.923,1.389,26.9,1.389,26.876c0-0.026-0.013-0.061-0.037-0.108
				c0-0.023-0.012-0.048-0.035-0.072c0-0.025-0.013-0.048-0.037-0.071c0-0.024-0.012-0.06-0.035-0.107v-0.072
				c0-0.023,0-0.049,0-0.071v-0.072c0-0.023,0-0.059,0-0.107c0-0.024,0-0.048,0-0.071c0-0.024,0-0.048,0-0.072
				c0-0.048,0-0.084,0-0.106c0-0.025,0-0.049,0-0.074c0-0.023,0-0.059,0-0.106c0-0.023-0.011-0.049-0.035-0.072
				c-0.025-0.024-0.037-0.048-0.037-0.071c-0.023-0.047-0.036-0.084-0.036-0.109v-0.07c0-0.023,0-0.048,0-0.071v-0.072
				c0-0.048,0-0.083,0-0.107c0-0.023,0-0.048,0-0.071c0-0.024,0-0.061,0-0.108c0-0.022,0-0.048,0-0.071
				c-0.024-0.024-0.036-0.049-0.036-0.072c-0.023-0.024-0.047-0.06-0.071-0.108c0-0.022-0.012-0.048-0.037-0.071
				c0-0.025,0-0.047,0-0.07c0-0.049,0-0.085,0-0.108v-0.072c0-0.023,0-0.06,0-0.107v-0.036c0-0.047,0-0.084,0-0.108v-0.07
				c0-0.024,0-0.06,0-0.107c0-0.025,0-0.049,0-0.072c0-0.024,0-0.049,0-0.072c0-0.048,0-0.083,0-0.107
				c0-0.023-0.012-0.049-0.036-0.071c0-0.024,0-0.048,0-0.071c0-0.049-0.011-0.084-0.036-0.109c0-0.022,0-0.046,0-0.07
				s0-0.061,0-0.109c0-0.023,0-0.047,0-0.07c0-0.025,0-0.048,0-0.072v-0.071c0-0.025,0-0.06,0-0.107c0-0.024,0-0.06,0-0.108v-0.035
				c0-0.049,0-0.084,0-0.108c0-0.023,0-0.048,0-0.071c0-0.024,0-0.06,0-0.107c0-0.025,0-0.048,0-0.072c0-0.023,0-0.049,0-0.072
				c0-0.048,0-0.084,0-0.107v-0.071c0-0.024-0.012-0.048-0.036-0.072c0-0.048-0.011-0.071-0.036-0.071
				c-0.024-0.049-0.049-0.085-0.073-0.107c0-0.024,0-0.06,0-0.108v-0.07c0-0.024,0-0.049,0-0.073c0-0.023,0-0.048,0-0.072
				c0-0.023,0-0.059,0-0.107c0-0.023,0-0.048,0-0.072c0-0.023,0-0.047,0-0.07c0-0.049,0-0.084,0-0.107v-0.072
				c0-0.023,0-0.061,0-0.106v-0.038c0-0.047,0-0.083,0-0.106c0-0.048,0-0.084,0-0.107V20.81c0-0.023,0-0.048,0-0.071
				c0-0.024,0-0.048,0-0.071c0-0.048,0-0.084,0-0.107c0-0.024,0-0.048,0-0.072c0-0.022,0-0.048,0-0.071c0-0.048,0-0.084,0-0.108
				c-0.023-0.023-0.047-0.048-0.071-0.071c0-0.023-0.012-0.06-0.035-0.108c0-0.023,0-0.047,0-0.071c0-0.023,0-0.047,0-0.071
				c0-0.049,0-0.084,0-0.108v-0.071c0-0.024,0-0.061,0-0.108v-0.034c0-0.048,0-0.085,0-0.11c0-0.023,0-0.046,0-0.07
				c0-0.023,0-0.059,0-0.107c0-0.023,0-0.048,0-0.072c0-0.023,0-0.047,0-0.071c0-0.049,0-0.084,0-0.107c0-0.025,0-0.047,0-0.072
				c0-0.023,0-0.048,0-0.071v-0.072c0-0.049,0-0.083,0-0.107c-0.024-0.024-0.048-0.06-0.072-0.107c-0.024,0-0.035-0.012-0.035-0.035
				c0-0.049,0-0.084,0-0.108v-0.071c0-0.023,0-0.061,0-0.108c0-0.023,0-0.048,0-0.072c0-0.023,0-0.047,0-0.071
				c0-0.048,0-0.084,0-0.108c0-0.022,0-0.047,0-0.07s0-0.06,0-0.108v-0.036c0-0.048,0-0.083,0-0.107c0-0.023,0-0.06,0-0.107v-0.071
				c-0.024-0.024-0.049-0.049-0.072-0.072l-0.036-0.072c0-0.048,0-0.084,0-0.107c0-0.024,0-0.048,0-0.071s0-0.048,0-0.072
				c0-0.048,0-0.083,0-0.106c0-0.024,0-0.049,0-0.073c0-0.023,0-0.06,0-0.106V16.9c0-0.049,0-0.085,0-0.109c0-0.046,0-0.082,0-0.106
				v-0.072c0-0.024,0-0.059,0-0.107v-0.036c-0.023-0.047-0.047-0.083-0.071-0.108c0-0.021-0.011-0.046-0.038-0.069
				c0-0.024,0-0.062,0-0.109c0-0.022,0-0.047,0-0.071c0-0.023,0-0.048,0-0.072c0-0.047,0-0.083,0-0.107c0-0.023,0-0.048,0-0.072
				c0-0.022,0-0.048,0-0.071c0-0.048,0-0.084,0-0.107c0-0.024,0-0.048,0-0.072c0-0.023-0.012-0.06-0.035-0.106
				c-0.024,0-0.047-0.011-0.072-0.036c0-0.048-0.011-0.085-0.036-0.108v-0.072c0-0.023,0-0.059,0-0.106c0-0.023,0-0.06,0-0.108
				v-0.036c0-0.047,0-0.082,0-0.108c0-0.022,0-0.047,0-0.071c0-0.023,0-0.059,0-0.106c0-0.024,0-0.049,0-0.072
				c0.025-0.023,0.036-0.046,0.036-0.07c0.024-0.024,0.048-0.062,0.072-0.109c0.023,0,0.048-0.012,0.073-0.035l0.036-0.035h0.035
				c0-0.025,0-0.049,0-0.072V14.28c0-0.048,0-0.083,0-0.107s0.012-0.061,0.036-0.108c0.023,0,0.048-0.012,0.072-0.036
				c0.023-0.047,0.059-0.083,0.107-0.107c0.023-0.024,0.047-0.047,0.072-0.071c0.023-0.023,0.048-0.059,0.072-0.107
				c0.024-0.024,0.048-0.048,0.071-0.072c0.047,0,0.072-0.012,0.072-0.035c0.072-0.024,0.131-0.049,0.18-0.073
				c0.024-0.024,0.048-0.048,0.073-0.071c0.048,0,0.094,0,0.142,0c0.072-0.023,0.144-0.048,0.215-0.07
				c0.097-0.024,0.168-0.061,0.215-0.108c0.024,0,0.061-0.012,0.108-0.036c0.048,0,0.084,0,0.109,0c0.094,0,0.179,0,0.25,0
				c0.048,0,0.097,0.012,0.144,0.036c0.047,0,0.083,0.013,0.107,0.036c0.024,0,0.049,0,0.073,0c0.047,0.023,0.106,0.048,0.179,0.072
				c0.023,0.047,0.047,0.07,0.072,0.07c0.024,0.023,0.047,0.06,0.07,0.109c0.039,0,0.075,0,0.109,0
				c0.144-0.025,0.287-0.05,0.43-0.073c0.023-0.022,0.036-0.048,0.036-0.071h0.036c0.024,0,0.048,0,0.072,0c0.358,0,0.717,0,1.075,0
				l0.018,0.018c0.49,0.012,0.976,0.018,1.454,0.018c0.034,0.035,0.058,0.06,0.071,0.071l0.018,0.019
				c0.143,0.007,0.279,0.012,0.413,0.02c0.192,0.022,0.371,0.035,0.539,0.035c0.024,0.023,0.047,0.048,0.071,0.071
				c0.239,0,0.478,0,0.718,0c0.023-0.023,0.047-0.048,0.072-0.071h0.035c0.622,0,1.245-0.013,1.867-0.035c0.047,0,0.083,0,0.107,0
				c0.048-0.025,0.083-0.038,0.107-0.038c0.059-0.005,0.119-0.012,0.18-0.018V13.13c0.143,0,0.274,0,0.394,0
				c0.023,0,0.048,0,0.071,0c0.073-0.023,0.145-0.035,0.217-0.035c0-0.023,0.011-0.035,0.036-0.035v-0.036c0.072,0,0.156,0,0.25,0
				h0.035c0.025,0,0.037-0.012,0.037-0.035c0.144,0,0.287,0,0.432,0h0.035c0.024,0,0.036-0.013,0.036-0.037c0.071,0,0.144,0,0.214,0
				c0.024,0,0.048,0,0.072,0c0.025,0,0.049,0,0.072,0c0.12-0.023,0.251-0.035,0.395-0.035c0.024-0.023,0.049-0.036,0.072-0.036
				c0.023,0,0.047-0.013,0.072-0.036c0.071,0,0.142,0,0.214,0c0.024,0,0.048,0,0.072,0s0.048-0.011,0.071-0.036h0.036
				c0.024,0,0.048,0,0.072,0c0.023,0,0.046-0.012,0.071-0.036c0.12,0,0.252,0,0.396,0c0.143-0.023,0.288-0.036,0.43-0.036
				c0.023-0.022,0.048-0.035,0.072-0.035c0.022,0,0.035-0.012,0.035-0.035c0.145,0,0.287,0,0.431,0c0.024,0,0.048,0,0.072,0v-0.036
				c0.272,0.02,0.535,0.031,0.79,0.036c0.048,0,0.096,0,0.144,0c0.012-0.004,0.024-0.01,0.036-0.019
				c0.182-0.001,0.362-0.007,0.539-0.018c0.024,0,0.048,0,0.071,0h0.037l0.035-0.037c0.024,0,0.05,0,0.073,0h0.071
				c0.144-0.023,0.275-0.035,0.396-0.035c0.047,0,0.095,0,0.142,0c0.048,0,0.096,0,0.144,0c0.025-0.023,0.062-0.035,0.108-0.035
				c0.048,0,0.096,0,0.144,0c0.047,0,0.095,0,0.143,0c0.024,0,0.06-0.013,0.108-0.036c0.048,0,0.096,0,0.142,0
				c0.048,0,0.084,0,0.108,0c0.216,0,0.42-0.012,0.612-0.035c0.023,0,0.047,0,0.072,0c0.023,0,0.047,0,0.071,0
				s0.036-0.013,0.036-0.037c0.023,0,0.048,0,0.071,0c0.024,0,0.048,0,0.071,0c0.024,0,0.048,0,0.073,0
				c0-0.024,0.012-0.036,0.036-0.036c0.047,0,0.107,0,0.179,0c0.047,0,0.095,0,0.143,0c0.048-0.023,0.097-0.035,0.143-0.035
				c0.073,0,0.133,0,0.18,0c0.047,0,0.108,0,0.18,0c0.047,0,0.095-0.013,0.143-0.036c0.047,0,0.096,0,0.143,0
				c0.048,0,0.096,0,0.144,0c0.048,0,0.095-0.012,0.143-0.036c0.024,0,0.047,0,0.072,0c0.025,0,0.048,0,0.071,0
				c0.024,0,0.049-0.012,0.073-0.034c0.023,0,0.048,0,0.072,0c0.024,0,0.047,0,0.072,0c0.024,0,0.047,0,0.071,0
				c0.024-0.025,0.049-0.037,0.072-0.037c0.048,0,0.096,0,0.145,0c0.047,0,0.095,0,0.143,0c0.048-0.024,0.095-0.035,0.143-0.035
				c0.049,0,0.109,0,0.18,0c0.049,0,0.097,0,0.144,0s0.096-0.013,0.143-0.036c0.049,0,0.096,0,0.144,0s0.096,0,0.143,0
				c0.192,0,0.384-0.013,0.575-0.036c0.024,0,0.048,0,0.072,0h0.035c0.024,0,0.048-0.012,0.072-0.036h0.036c0.023,0,0.048,0,0.072,0
				h0.037l0.036-0.036c0.047,0,0.095,0,0.144,0c0.024,0,0.059,0,0.107,0c0.047-0.024,0.083-0.036,0.107-0.036
				c0.048,0,0.084,0,0.107,0c0.024,0,0.062,0,0.107,0c0.107,0,0.216-0.011,0.323-0.036v0.036c0.048,0,0.095,0,0.144,0v0.181
				l0.036,0.035v0.037l0.037,0.034v0.036c0.047,0,0.083,0.012,0.107,0.036c0.071,0,0.131,0.012,0.179,0.035
				c0.024,0.024,0.048,0.036,0.072,0.036v0.037c0.072,0,0.143,0.012,0.216,0.035c0.096,0,0.179,0.012,0.25,0.036
				c0.144,0,0.275,0,0.395,0c0.072-0.024,0.132-0.036,0.18-0.036c0.024-0.023,0.048-0.035,0.072-0.035l0.036-0.037
				c0.049,0,0.096-0.012,0.145-0.036c0.023,0,0.047-0.013,0.072-0.035c0.047,0,0.095,0,0.143,0c0.022-0.024,0.059-0.036,0.108-0.036
				c0.048-0.024,0.095-0.036,0.144-0.036v-0.034c0.047,0,0.083-0.014,0.107-0.037c0.023,0,0.035-0.012,0.035-0.035
				c0.05,0,0.096,0,0.145,0c0.024-0.024,0.06-0.036,0.108-0.036c0.023,0,0.047,0,0.072,0h0.036c0-0.024,0.011-0.036,0.035-0.036
				v-0.036c0.048,0,0.084-0.012,0.107-0.036c0.024,0,0.037-0.012,0.037-0.036c0.047,0,0.095,0,0.143,0
				c0.024-0.023,0.06-0.036,0.107-0.036c0.049-0.023,0.095-0.036,0.143-0.036v-0.035c0.048,0,0.097-0.013,0.145-0.035v-0.037
				c0.024,0,0.048,0,0.071,0c0.072-0.023,0.132-0.035,0.179-0.035c0.023-0.023,0.061-0.036,0.108-0.036v-0.036
				c0.024,0,0.048-0.012,0.072-0.035v-0.037c0.072,0,0.131,0,0.18,0c0.047-0.024,0.083-0.036,0.107-0.036
				c0.048-0.023,0.083-0.034,0.108-0.034l0.035-0.037c0.024,0,0.061-0.012,0.108-0.036v-0.035c0.071,0,0.132,0,0.179,0
				c0.048-0.024,0.083-0.036,0.108-0.036c0.024-0.024,0.049-0.035,0.072-0.035v-0.036c0.047,0,0.083-0.012,0.106-0.036
				c0.025,0,0.037-0.011,0.037-0.036c0.048,0,0.084,0,0.108,0c0.024-0.024,0.048-0.036,0.073-0.036
				c0.024-0.023,0.046-0.035,0.071-0.035l0.036-0.036c0.047,0,0.095-0.013,0.142-0.035c0.025,0,0.048-0.013,0.073-0.036h0.035
				c0.024-0.025,0.06-0.037,0.108-0.037c0.024-0.022,0.047-0.035,0.071-0.035l0.036-0.036c0.025,0,0.06-0.012,0.108-0.035v-0.036
				c0.047,0,0.096,0,0.144,0c0.024-0.023,0.048-0.036,0.071-0.036c0.047-0.023,0.096-0.035,0.143-0.035l0.036-0.037
				c0.023,0,0.047-0.012,0.072-0.035c0.024,0,0.048-0.013,0.072-0.036h0.036c0.047-0.024,0.096-0.036,0.143-0.036
				c0.024-0.023,0.049-0.036,0.072-0.036v-0.036c0.024,0,0.06-0.011,0.107-0.034v-0.037c0.024,0,0.049,0,0.073,0
				c0.023,0,0.047,0,0.071,0l0.036-0.034h0.035c0.048-0.025,0.096-0.037,0.144-0.037v-0.035c0.024,0,0.047-0.013,0.071-0.036v-0.037
				c0.048,0,0.084,0,0.108,0c0.024-0.022,0.048-0.034,0.072-0.034c0.047-0.025,0.096-0.036,0.144-0.036V10.26
				c0.023,0,0.047-0.012,0.071-0.036c0.023,0,0.048-0.012,0.071-0.035c0.025,0,0.049,0,0.073,0c0.048-0.023,0.083-0.036,0.107-0.036
				c0.024-0.023,0.047-0.035,0.072-0.035V10.08c0.047,0,0.095-0.011,0.143-0.034V10.01c0.048,0,0.096,0,0.144,0
				c0.023-0.024,0.048-0.037,0.071-0.037c0.048-0.023,0.097-0.035,0.144-0.035V9.901c0.048,0,0.097-0.012,0.144-0.036V9.831
				c0.024,0,0.048,0,0.072,0c0.048-0.025,0.096-0.037,0.143-0.037c0.023-0.022,0.047-0.035,0.072-0.035l0.036-0.037
				c0.023,0,0.049-0.01,0.071-0.034V9.652c0.024,0,0.06,0,0.108,0c0.024-0.025,0.048-0.037,0.071-0.037
				C33.123,9.59,33.17,9.58,33.217,9.58V9.542c0.026,0,0.049-0.011,0.073-0.035V9.472c0.048,0,0.083,0,0.107,0
				c0.049-0.024,0.096-0.037,0.144-0.037C33.565,9.411,33.588,9.4,33.612,9.4V9.364c0.024,0,0.048-0.012,0.072-0.036
				c0.024,0,0.048-0.012,0.072-0.035c0.024,0,0.048,0,0.073,0c0.047-0.025,0.095-0.037,0.143-0.037
				c0.024-0.023,0.048-0.036,0.072-0.036l0.035-0.035c0.024,0,0.061-0.012,0.108-0.036V9.112c0.049,0,0.083,0,0.108,0
				c0.024-0.023,0.047-0.035,0.071-0.035c0.048-0.024,0.095-0.036,0.144-0.036V9.004c0.023,0,0.036-0.013,0.036-0.035V8.933
				c0.048,0,0.084,0,0.107,0c0.024-0.024,0.047-0.036,0.072-0.036c0.049-0.023,0.083-0.035,0.107-0.035V8.825
				c0.024,0,0.048-0.011,0.072-0.035V8.753c0.048,0,0.096,0,0.144,0l0.037-0.036c0.047-0.023,0.094-0.035,0.142-0.035V8.647
				c0.025,0,0.049-0.013,0.073-0.037c0.023,0,0.048-0.012,0.072-0.036V8.539c0.023,0,0.047,0,0.071,0
				c0.047-0.024,0.096-0.036,0.144-0.036V8.466c0.024,0,0.047-0.013,0.071-0.036c0.024,0,0.048-0.012,0.072-0.035h0.037
				c0.023-0.024,0.058-0.037,0.106-0.037c0.025-0.022,0.049-0.036,0.074-0.036V8.288c0.046,0,0.095-0.013,0.142-0.036V8.215
				c0.025,0,0.048,0,0.072,0c0.048-0.023,0.084-0.037,0.108-0.037l0.037-0.036V8.108c0.024,0,0.047-0.013,0.071-0.036
				c0.024,0,0.047-0.012,0.071-0.035h0.036L36.52,8c0.048-0.024,0.084-0.037,0.108-0.037V7.929c0.024,0,0.048-0.013,0.071-0.037
				V7.857c0.048,0,0.084,0,0.106,0l0.037-0.035c0.023-0.025,0.047-0.038,0.072-0.038l0.035-0.035c0.024,0,0.048-0.013,0.071-0.035
				V7.676c0.025,0,0.062,0,0.108,0c0-0.023,0.011-0.035,0.036-0.035c0-0.023,0.012-0.036,0.036-0.036V7.569
				c0.023,0,0.036-0.012,0.036-0.035V7.498c0.024,0,0.06,0,0.107,0V7.462c0.024,0,0.049,0,0.072,0V6.959
				c0.121,0.004,0.239,0.01,0.359,0.018V6.6c0.395,0.018,0.788,0.029,1.184,0.036V6.6c0.188,0.021,0.369,0.033,0.539,0.036
				c0.024,0,0.047,0,0.072,0v0.359c0.095,0,0.192,0,0.287,0v0.035c0.134,0,0.265,0,0.396,0v0.037c0.023,0,0.034,0.012,0.034,0.035
				v0.359c2.179,0.007,4.355,0.012,6.532,0.018c0,0.018,0,0.035,0,0.054c0.071,0,0.143,0,0.215,0
				c-0.023-0.023-0.048-0.036-0.071-0.036V7.48c0.144,0,0.287,0,0.43,0v0.018l-0.036,0.036c0.742,0,1.471,0,2.189,0V7.498
				c0.156-0.002,0.312-0.002,0.467,0v0.036c0.047,0,0.083,0,0.107,0V7.498c0.144,0,0.287,0,0.431,0v0.036c0.096,0,0.18,0,0.251,0
				V7.498c0.143,0,0.287,0,0.431,0v0.036c0.429,0,0.849,0,1.256,0V7.498c0.142,0,0.285,0,0.43,0v0.036c0.119,0,0.228,0,0.323,0
				V7.498c0.299-0.002,0.599-0.002,0.898,0v0.036c0.131,0,0.262,0,0.395,0c0.023,0.023,0.035,0.06,0.035,0.107
				c0.024,0.023,0.048,0.061,0.072,0.107c0.415,0,0.835,0,1.256,0c0.023,0.048,0.035,0.084,0.035,0.108v0.072
				c0.024,0,0.048,0,0.071,0c0.025,0.023,0.062,0.059,0.108,0.107v0.035l0.036-0.035c0.048,0,0.096,0,0.144,0
				c12.464,0,24.928,0,37.392,0c-0.024-0.023-0.047-0.049-0.072-0.073c0-0.047,0-0.083,0-0.106V7.822
				c0.298,0.015,0.597,0.026,0.898,0.035c0.024,0.023,0.047,0.047,0.072,0.072c0.167,0.002,0.334,0.01,0.501,0.017
				c0-0.021,0-0.039,0-0.054c0-0.096,0-0.179,0-0.251c0-0.048,0-0.096,0-0.144s0-0.096,0-0.144c0-0.049,0-0.095,0-0.144
				c0.072-0.048,0.131-0.083,0.18-0.107c0-0.023,0-0.047,0-0.072V6.996c0.79,0.022,1.579,0.035,2.368,0.035
				C97.68,7.08,97.715,7.127,97.74,7.175z M35.085,14.172c-0.039,0.006-0.075,0.011-0.107,0.019c0.027-0.001,0.056-0.001,0.089,0
				L35.085,14.172z M36.663,15.321c-0.023,0.023-0.047,0.035-0.071,0.035c0,0.023,0.012,0.037,0.036,0.037v0.681
				c0.024,0,0.048,0,0.071,0v0.144c0.024,0.025,0.048,0.037,0.072,0.037c0,0.023,0.012,0.036,0.034,0.036v0.035
				c0,0.023,0.014,0.034,0.037,0.034v0.036c0.023,0,0.036,0.013,0.036,0.037c0.023,0,0.059,0.011,0.106,0.035v0.071h0.036
				c0.019,0,0.037,0.007,0.054,0.02c0.031,0.005,0.06,0.012,0.09,0.018v0.018c0.015,0.003,0.026,0.008,0.036,0.018
				c0.048,0,0.096,0.012,0.143,0.036v0.036c0.024,0.024,0.049,0.036,0.072,0.036c0.025,0,0.061,0.012,0.108,0.036
				c0.049,0,0.107,0,0.178,0c0.241-0.024,0.48-0.036,0.72-0.036c0.07-0.024,0.142-0.036,0.214-0.036v-0.072c0.047,0,0.096,0,0.145,0
				c0.119-0.024,0.239-0.035,0.357-0.035c0.025-0.023,0.049-0.037,0.073-0.037c0.048-0.023,0.084-0.035,0.107-0.035v-0.036
				c0.023,0,0.035-0.012,0.035-0.035v-0.037c0.048,0,0.096,0,0.144,0v-1.363c-0.945-0.018-1.89-0.029-2.835-0.035V15.321z
				 M40.107,14.477c-0.284,0.003-0.573,0.01-0.859,0.018c0.287-0.001,0.574-0.001,0.859,0V14.477z M0.958,14.747
				c0,0.023-0.011,0.035-0.036,0.035l-0.036,0.035c0,0.024,0,0.048,0,0.072v0.035c0.024-0.047,0.061-0.083,0.107-0.107
				c0.025-0.047,0.049-0.095,0.073-0.143v-0.035c-0.001,0.024-0.013,0.048-0.037,0.072C1.006,14.734,0.981,14.747,0.958,14.747z
				 M1.173,14.495c0.024-0.012,0.049-0.023,0.072-0.035c0-0.027,0-0.053,0-0.072c-0.023,0.023-0.048,0.049-0.072,0.072V14.495z
				 M1.532,14.245c0-0.018,0.005-0.035,0.018-0.054l-0.018,0.018c-0.073,0.023-0.132,0.048-0.18,0.071
				c-0.017,0.019-0.04,0.041-0.072,0.072c0.048,0.001,0.096,0.001,0.144,0V14.28C1.448,14.256,1.484,14.245,1.532,14.245z
				 M1.21,17.437c0.008,0.01,0.02,0.021,0.035,0.036v-0.036H1.21z M3.362,26.948c0.024,0.023,0.047,0.059,0.071,0.107
				c0.023,0.023,0.035,0.047,0.036,0.071v-0.035c0-0.049,0-0.085,0-0.107c0.024-0.024,0.036-0.048,0.036-0.072
				c0.009-0.01,0.021-0.021,0.037-0.035c-0.075,0.001-0.148,0.001-0.216,0C3.35,26.9,3.362,26.923,3.362,26.948z"/>
</svg>
