<?xml version="1.0"?>
<svg height="100px" width="100px" version="1.1" x="0px" y="0px" viewBox="0 0 100 100" enable-background="new 0 0 100 100" fill="currentColor">
  <g display="none">
    <rect x="-660.877" y="-37.172" display="inline" width="1370.931" height="1263.231"/>
  </g>
  <g>
    <path d="M34.367,31.803c0.49,0.443,1.228,0.404,1.698-0.06c3.869-3.823,8.894-6.045,14.425-6.337   c11.044-0.495,20.558,7.281,22.518,17.866c0.133,0.717-0.429,1.379-1.157,1.413l-4.83,0.223c-1.092,0.05-1.578,1.397-0.769,2.133   l13.999,12.733c0.502,0.456,1.279,0.419,1.734-0.084L94.68,45.676c0.733-0.809,0.123-2.1-0.967-2.048l-6.486,0.309   c-1.82-18.94-18.238-33.327-37.455-32.439c-9.122,0.484-17.619,4.28-23.984,10.844c-0.48,0.495-0.439,1.299,0.072,1.762   L34.367,31.803z"/>
    <path d="M6.229,53.869h6.11c0.622,0,1.132,0.468,1.207,1.085c1.029,8.437,4.787,16.288,10.854,22.357   c7.249,7.217,16.85,11.23,27.047,11.23c9.778,0.07,19.009-3.568,26.131-10.258c0.502-0.471,0.502-1.276,0.015-1.763l-9.587-9.587   c-4.379,4.389-10.288,6.838-16.559,6.838c-6.224,0-12.068-2.506-16.541-6.934c-3.179-3.179-5.282-7.178-6.168-11.481   c-0.154-0.746,0.447-1.436,1.209-1.436h5.183c1.092,0,1.639-1.319,0.869-2.092L21.572,37.352c-0.478-0.48-1.255-0.481-1.734-0.003   L5.363,51.773C4.589,52.545,5.135,53.869,6.229,53.869z"/>
  </g>
</svg>
