<?xml version="1.0"?>
<svg xmlns="http://www.w3.org/2000/svg" viewBox="0 0 36 36" fill="none">
  <path fill-rule="evenodd" clip-rule="evenodd" d="M18 3C15.0333 3 12.1332 3.87973 9.66645 5.52796C7.19971 7.17618 5.27712 9.51886 4.14181 12.2597C3.00649 15.0006 2.70944 18.0166 3.28822 20.9264C3.867 23.8361 5.29561 26.5088 7.3934 28.6066C9.49119 30.7044 12.1639 32.133 15.0736 32.7118C17.9834 33.2906 20.9994 32.9935 23.7402 31.8582C26.4811 30.7229 28.8238 28.8003 30.472 26.3336C32.1203 23.8668 33 20.9667 33 18C33 16.0302 32.612 14.0796 31.8582 12.2597C31.1044 10.4399 29.9995 8.78628 28.6066 7.3934C27.2137 6.00052 25.5601 4.89563 23.7402 4.14181C21.9204 3.38799 19.9698 3 18 3ZM9 15C9 14.4067 9.17595 13.8266 9.50559 13.3333C9.83523 12.8399 10.3038 12.4554 10.8519 12.2284C11.4001 12.0013 12.0033 11.9419 12.5853 12.0576C13.1672 12.1734 13.7018 12.4591 14.1213 12.8787C14.5409 13.2982 14.8266 13.8328 14.9424 14.4147C15.0581 14.9967 14.9987 15.5999 14.7716 16.1481C14.5446 16.6962 14.1601 17.1648 13.6667 17.4944C13.1734 17.8241 12.5933 18 12 18C11.2043 18 10.4413 17.6839 9.87868 17.1213C9.31607 16.5587 9 15.7956 9 15ZM25 25.5H11V22.5H25V25.5ZM24 18C23.4067 18 22.8266 17.8241 22.3333 17.4944C21.8399 17.1648 21.4554 16.6962 21.2284 16.1481C21.0013 15.5999 20.9419 14.9967 21.0576 14.4147C21.1734 13.8328 21.4591 13.2982 21.8787 12.8787C22.2982 12.4591 22.8328 12.1734 23.4147 12.0576C23.9967 11.9419 24.5999 12.0013 25.148 12.2284C25.6962 12.4554 26.1648 12.8399 26.4944 13.3333C26.8241 13.8266 27 14.4067 27 15C27 15.7956 26.6839 16.5587 26.1213 17.1213C25.5587 17.6839 24.7956 18 24 18Z" fill="currentColor"/>
</svg>
