<?xml version="1.0"?>
<svg version="1.1" id="Layer_2" xmlns="http://www.w3.org/2000/svg" x="0px" y="0px" width="256px" height="256px" viewBox="0 0 256 256">
  <path d="M243.402,70.101c-2.775-10.309-10.906-18.439-21.217-21.217c-18.838-5.152-94.185-5.152-94.185-5.152 s-75.348,0-94.185,4.957c-10.112,2.775-18.44,11.104-21.216,21.413C7.644,88.94,7.644,128,7.644,128s0,39.257,4.957,57.896 c2.775,10.313,10.905,18.439,21.216,21.219c19.036,5.154,94.185,5.154,94.185,5.154s75.347,0,94.185-4.957 c10.311-2.771,18.441-10.906,21.217-21.217c4.953-18.838,4.953-57.898,4.953-57.898S248.557,88.94,243.402,70.101z M104.008,164.088 V91.912L166.668,128L104.008,164.088z"/>
</svg>
