<?xml version="1.0"?>
<svg xmlns="http://www.w3.org/2000/svg" viewBox="0 0 93.25 32">
  <path fill="currentColor" d="M92.744,12.856c0.05,0.352,0.1,0.764,0.15,1.24
				c0.025,0.501-0.125,0.789-0.452,0.865c-0.175,0.025-0.463,0.062-0.865,0.112c-0.401,0.026-0.864,0.038-1.391,0.038
				c-0.501,0-1.002-0.012-1.502-0.038c-0.527-0.05-0.941-0.087-1.242-0.112l-0.338-0.15h-5.263c0,0.024-0.075,0.087-0.226,0.188
				c-0.025,0.074-0.05,0.112-0.075,0.112L80.826,15.3l-0.375-0.188h-0.752L79.548,15.3c-0.101,0.075-0.149,0.163-0.149,0.262v0.151
				l-0.301,0.565h-0.676v1.278l-0.338,0.149c-0.1,0.05-0.228,0.075-0.376,0.075c-0.276,0-0.477-0.024-0.601-0.075l-0.979-0.149
				h-2.895v0.488h-0.301c-0.701,0-1.103-0.024-1.204-0.075c-0.125-0.05-0.224-0.088-0.3-0.113c0-0.1,0-0.163,0-0.188
				c-0.05,0-0.075-0.037-0.075-0.112h0.075v-0.152H58.909c-0.35,0.05-0.765,0.101-1.24,0.152c-0.476,0.024-0.915,0.062-1.314,0.112
				c-0.453,0.025-0.829,0.063-1.13,0.112c-0.25,0.051-0.413,0.076-0.488,0.076c-0.226,0.125-0.438,0.125-0.639,0
				c-0.075-0.05-0.138-0.1-0.188-0.15l-0.187-0.149v-0.301h-4.964c0.052,0.851,0.127,1.803,0.226,2.856
				c0.101,1.028,0.188,2.006,0.263,2.933c0.102,0.902,0.176,1.693,0.226,2.368c0.076,0.602,0.114,0.991,0.114,1.166
				c-0.025,0.05-0.088,0.163-0.188,0.338c-0.1,0.1-0.501,0.201-1.203,0.3c-0.752,0.126-1.492,0.275-2.22,0.452
				c-0.801,0.125-1.427,0.213-1.878,0.263c-0.452,0.075-0.79,0.138-1.015,0.188c-0.201,0.025-0.352,0.025-0.451,0
				c-0.051-0.05-0.101-0.1-0.151-0.149c0-0.025-0.013-0.101-0.036-0.227c0-0.075-0.039-0.4-0.114-0.978
				c-0.05-0.576-0.139-1.39-0.262-2.443c-0.076-1.152-0.201-2.719-0.377-4.699h-0.639l-0.375,0.64h-0.301l0.301-0.64h-0.791v0.188
				c-0.174,0.652-0.375,1.229-0.6,1.729c-0.226,0.477-0.488,0.814-0.79,1.015c-0.476,0.2-1.115,0.326-1.917,0.376
				c-0.853,0.025-1.454-0.05-1.804-0.226l-0.527-0.339c-0.2-0.074-0.389-0.162-0.564-0.262c-0.176-0.101-0.312-0.176-0.414-0.227
				l-0.188,0.188c-0.074,0.075-0.174,0.275-0.301,0.602c-0.124,0.326-0.275,0.639-0.45,0.939c-0.351,0.877-0.664,1.58-0.94,2.106
				c-0.275,0.5-0.488,0.889-0.639,1.165c-0.175,0.301-0.313,0.476-0.413,0.526c-0.126,0.074-0.226,0.114-0.301,0.114
				c-0.201,0-0.715-0.252-1.542-0.753c-0.801-0.501-1.566-1.051-2.293-1.654l-0.3-0.188l0.111-0.151
				c0.025-0.049,0.113-0.226,0.264-0.526c0.1-0.25,0.25-0.552,0.451-0.902c0.176-0.326,0.351-0.64,0.527-0.94
				c0.174-0.3,0.375-0.526,0.601-0.676l0.15-0.188c0.226-0.225,0.465-0.476,0.715-0.752c0.275-0.275,0.463-0.602,0.563-0.978
				c0.101-0.501,0.05-0.914-0.15-1.241c-0.226-0.275-0.451-0.451-0.677-0.526H22.63c-0.024,0-0.101,0.013-0.225,0.038
				c-0.1,0.05-0.238,0.075-0.415,0.075c-0.2,0.05-0.412,0.113-0.639,0.188c-0.15,0.05-0.663,0.226-1.54,0.527
				c-0.878,0.326-1.918,0.701-3.122,1.127c-1.127,0.452-2.369,0.928-3.721,1.43c-1.279,0.45-2.495,0.889-3.647,1.315
				c-1.077,0.376-1.992,0.701-2.744,0.977c-0.727,0.302-1.129,0.451-1.203,0.451c-0.251,0.051-0.564,0.1-0.941,0.151
				c-0.426,0.05-0.828,0.1-1.203,0.149c-0.401,0.051-0.776,0.076-1.127,0.076c-0.301,0.05-0.551,0.025-0.752-0.076
				c-0.301-0.149-0.488-0.375-0.563-0.676c-0.026-0.25-0.038-0.564-0.038-0.94c0-0.175,0-0.363,0-0.563
				c0.025-0.226,0.088-0.414,0.188-0.564c0.075-0.25,0.113-0.488,0.113-0.715c0-0.226,0-0.513,0-0.865
				c0.1-0.2,0.163-0.375,0.188-0.526c0.024-0.175,0.038-0.375,0.038-0.601c0-0.652-0.025-1.291-0.076-1.918
				c-0.1-0.626-0.15-1.027-0.15-1.203H0.938c-0.1-0.225-0.163-0.425-0.188-0.601c0-0.2,0-0.363,0-0.488v-0.49
				c0.101-0.1,0.163-0.175,0.188-0.225c0-0.05,0.113-0.075,0.339-0.075c0.05-0.05,0.25-0.101,0.601-0.15
				c0.352-0.025,0.739-0.063,1.166-0.113c0.476,0,0.927,0,1.353,0c0.401-0.025,0.727-0.038,0.979-0.038
				c0.1-0.251,0.212-0.526,0.338-0.827c0.075-0.251,0.289-0.426,0.638-0.526c0.227-0.077,0.902-0.113,2.03-0.113
				c1.104-0.025,2.318-0.05,3.647-0.075c1.303-0.051,2.556-0.076,3.76-0.076c1.177-0.024,1.916-0.038,2.218-0.038h0.188
				c0.099,0.201,0.225,0.364,0.375,0.49c0.075,0.201,0.163,0.375,0.263,0.526c0.1,0.177,0.201,0.275,0.301,0.3
				c0.151,0,0.351-0.012,0.602-0.037c0.225,0,0.375-0.051,0.451-0.15c0.275-0.125,0.726-0.351,1.353-0.677
				c0.627-0.376,1.053-0.639,1.279-0.79c0.326-0.225,0.602-0.376,0.827-0.451c0.225-0.151,0.538-0.225,0.939-0.225
				c0.377,0,0.916,0,1.618,0c0.727,0,1.277-0.026,1.653-0.075c0.026-0.05,0.063-0.101,0.113-0.15
				c0.025-0.076,0.087-0.151,0.188-0.227c0.074-0.1,0.137-0.213,0.188-0.338l0.79-0.452l0.601-0.15
				c0.126,0.1,0.239,0.175,0.338,0.225c0.276,0.051,0.452,0.076,0.527,0.076l0.602,0.15l0.526,0.639V10.9l-0.226,0.151h0.339V10.45
				l-0.301-0.226c-0.075-0.076-0.125-0.163-0.15-0.263L31.088,9.36l-0.187-0.715v-0.15c-0.452,0.1-0.94,0.175-1.467,0.227
				c-0.577,0.05-1.053,0.125-1.429,0.225c-0.2,0-0.638-0.012-1.315-0.037c-0.677,0-1.378,0-2.106,0
				c-0.751,0-1.416-0.013-1.992-0.038c-0.602-0.049-0.953-0.074-1.053-0.074c-0.075,0-0.15,0.025-0.226,0.074
				c-0.075,0.025-0.163,0.038-0.263,0.038c-0.151,0.025-0.276,0.037-0.375,0.037l-2.181-0.149V8.495
				c0-0.025-0.025-0.162-0.075-0.414c-0.05-0.3-0.088-0.626-0.113-0.977c0-0.325-0.025-0.652-0.075-0.977
				c-0.024-0.375,0-0.665,0.075-0.864c0.025-0.175,0.063-0.326,0.113-0.451c0.05-0.075,0.1-0.164,0.15-0.263
				c0.025-0.076,0.038-0.151,0.038-0.226l0.225-0.114h1.843c0.099,0,0.388,0,0.864,0c0.401,0,0.928,0.038,1.58,0.114
				c0.676,0,1.403,0.013,2.18,0.038c0.752,0,1.479,0.024,2.18,0.074c0.678,0,1.278,0.013,1.805,0.038
				C29.81,4.498,30.198,4.51,30.45,4.51l0.94,0.113c0.326,0.076,0.602,0.125,0.828,0.151c0.224,0.025,0.413,0.037,0.563,0.037
				c0.177-0.05,0.565-0.075,1.167-0.075c0.626-0.026,1.278-0.051,1.955-0.076c0.652-0.025,1.265-0.038,1.842-0.038
				c0.527,0,0.815,0,0.865,0c0.225,0,0.388-0.024,0.489-0.074c0.125,0,0.225-0.013,0.3-0.039l0.15-0.187
				c0-0.176,0.176-0.313,0.527-0.414c0.476-0.226,0.965-0.226,1.466,0h0.15c0.225,0,0.389,0.024,0.488,0.075
				c0.101,0.05,0.201,0.163,0.301,0.339c0.1,0.125,0.25,0.187,0.451,0.187l0.301,0.113c0.476,0,1.14,0.038,1.992,0.114
				c0.903,0.075,1.655,0.038,2.256-0.114c0.376-0.074,0.926-0.137,1.653-0.188c0.677-0.074,1.379-0.137,2.106-0.188
				c0.777-0.025,1.491-0.038,2.143-0.038c0.676,0,1.127,0.038,1.354,0.114h0.15c0.326,0.075,0.54,0.187,0.64,0.337
				c0.15,0.126,0.25,0.489,0.301,1.091c0.099,0.626,0.05,1.19-0.151,1.691c-0.201,0.551-0.414,0.902-0.639,1.052
				c-0.1,0.076-0.451,0.113-1.053,0.113c-0.602,0-1.266,0-1.992,0c-0.702,0-1.404-0.037-2.104-0.113
				c-0.703-0.025-1.204-0.087-1.504-0.188c-0.326-0.075-0.602-0.113-0.827-0.113c-0.201,0-0.4,0.038-0.602,0.113H45.6
				c0,0.226-0.174,0.515-0.525,0.865h-0.188c-0.828,0.426-1.379,0.726-1.655,0.902c-0.276,0.125-0.414,0.25-0.414,0.376
				c-0.075,0-0.138,0.05-0.188,0.15c0,0.151-0.051,0.3-0.151,0.452h20.94c0.05-0.026,0.201-0.038,0.451-0.038
				c0.275-0.024,0.564-0.063,0.865-0.114c0.301-0.05,0.601-0.074,0.901-0.074c0.302-0.05,0.514-0.076,0.64-0.076
				c0.3,0,0.589-0.013,0.865-0.038c0.25-0.075,0.451-0.113,0.601-0.113l0.302-0.301c0.099-0.05,0.174-0.1,0.226-0.15h1.429
				c0.099,0.076,0.174,0.175,0.225,0.301c0.176,0.25,0.3,0.425,0.375,0.526h7.631c-0.1-0.251-0.175-0.526-0.225-0.828
				c-0.051-0.25-0.075-0.477-0.075-0.677c0-0.2,0.013-0.313,0.037-0.339l0.113-0.111c0.174-0.25,0.363-0.427,0.563-0.527
				c0.176-0.125,0.326-0.188,0.451-0.188l0.751,0.188l0.301,0.865l0.3,1.692v1.014c0.101,0,0.201,0.063,0.301,0.188
				c0,0.1,0,0.2,0,0.301l-0.114,0.15h0.114c0.15,0,0.251-0.012,0.301-0.038l0.075-0.112h0.79l0.112,0.112
				c0.075,0.025,0.138,0.038,0.188,0.038h10.676L92.744,12.856z M33.833,19.698c-0.076,0.101-0.138,0.188-0.188,0.263l0.488,0.489
				c0.175,0.075,0.326,0.162,0.452,0.264c0.125,0.05,0.225,0.074,0.3,0.074c0.276,0.05,0.54,0.075,0.791,0.075
				c0.249,0,0.425,0,0.526,0c0.15,0,0.375,0,0.677,0c0.275,0,0.476-0.025,0.601-0.075c0.175,0,0.275-0.074,0.301-0.225
				c0-0.1,0.075-0.238,0.225-0.414c0.202-0.551,0.301-0.865,0.301-0.939v-0.112c0-0.05-0.05-0.075-0.151-0.075
				c-0.075,0-0.213,0.025-0.414,0.075c-0.201,0.075-0.388,0.15-0.563,0.226h-0.978c-0.176,0-0.514,0.025-1.016,0.074
				c-0.501,0.076-0.852,0.15-1.053,0.226C34.059,19.623,33.958,19.648,33.833,19.698z"/>
</svg>
