<?xml version="1.0"?>
<svg width="36" height="36" viewBox="0 0 36 36" fill="none" xmlns="http://www.w3.org/2000/svg">
  <path fill-rule="evenodd" clip-rule="evenodd" d="M31.7 15.75C31.703 13.1045 30.94 10.5148 29.5031 8.2936C28.0663 6.07238 26.0171 4.31465 23.603 3.23272C21.189 2.15079 18.5133 1.79092 15.8991 2.19659C13.285 2.60226 10.8442 3.75611 8.87157 5.51878C6.89893 7.28145 5.47882 9.57755 4.78275 12.1298C4.08667 14.682 4.14441 17.3811 4.94899 19.9013C5.75356 22.4214 7.27057 24.6546 9.31678 26.3313C11.363 28.008 13.8509 29.0565 16.48 29.35V35.05L27.31 25.79C28.6947 24.5098 29.7995 22.9569 30.555 21.2291C31.3105 19.5012 31.7003 17.6358 31.7 15.75ZM16.25 17.75V23H19.75V17.75H25V14.25H19.75V9H16.25V14.25H11V17.75H16.25Z" fill="currentColor"/>
</svg>
