<?xml version="1.0"?>
<svg xmlns="http://www.w3.org/2000/svg" viewBox="0 0 36 36" fill="none">
  <path fill="currentColor" d="M12.1092 5.08403C10.1429 5.9916 8.17647 6.59664 6.05882 7.05042C5.45378 7.20168 5 7.65546 5 8.2605C5 10.7601 5.1405 13.0255 5.42149 15.0936L11.9012 17.7474C12.5174 17.31 13.2569 17.0601 14.058 17.0601H14.2737L17.5089 12.28V12.2175C17.5089 9.34319 19.8198 7 22.6545 7C25.4891 7 27.8 9.34319 27.8 12.2175C27.8 15.0918 25.4891 17.435 22.6545 17.435H22.5312L17.9095 20.7779V20.9654C17.9095 23.1211 16.184 24.8707 14.058 24.8707C12.1785 24.8707 10.6071 23.496 10.2682 21.7152L6.54029 20.2858C6.87867 21.3813 7.2728 22.4118 7.72269 23.3866C9.68908 27.4706 13.0168 30.7983 17.7059 33.6723C18.0084 33.8235 18.1597 33.8235 18.4622 33.8235C18.7647 33.8235 19.0672 33.8235 19.2185 33.6723C23.9076 30.6471 27.2353 27.4706 29.2017 23.3866C31.1681 19.4538 32.0756 14.6134 32.0756 8.2605C32.0756 7.65546 31.6427 7.13983 31.0168 7.05042C28.8992 6.7479 26.7815 5.9916 24.9664 5.08403C23 4.02521 21.0336 2.81513 19.3697 1.30252C19.2185 1.15126 18.8025 1 18.5 1C18.1975 1 18 1 17.7059 1.30252C16.042 2.81513 14.0756 4.02521 12.1092 5.08403Z"/>
  <path fill="currentColor" d="M11.439 22.2463C11.7163 22.8712 12.2401 23.4023 12.918 23.6835C14.397 24.3083 16.0916 23.5898 16.7078 22.0901C17.0159 21.3716 17.0159 20.5592 16.7078 19.8719C16.3997 19.1533 15.8451 18.591 15.1364 18.2785C14.4278 17.9661 13.6883 17.9974 13.0104 18.2473L14.7359 18.9659C15.8143 19.4033 16.3381 20.6842 15.8759 21.7777C15.4445 22.8712 14.1813 23.4023 13.1029 22.9337L11.439 22.2463Z"/>
  <path fill="currentColor" fill-rule="evenodd" clip-rule="evenodd" d="M19.2344 12.2175C19.2344 14.1233 20.7749 15.6854 22.6545 15.6854C24.534 15.6854 26.0745 14.1233 26.0745 12.2175C26.0745 10.3117 24.534 8.74958 22.6545 8.74958C20.7749 8.74958 19.2344 10.3117 19.2344 12.2175ZM25.2428 12.2174C25.2428 13.6668 24.0841 14.8418 22.6547 14.8418C21.2253 14.8418 20.0665 13.6668 20.0665 12.2174C20.0665 10.768 21.2253 9.59307 22.6547 9.59307C24.0841 9.59307 25.2428 10.768 25.2428 12.2174Z"/>
</svg>
