<?xml version="1.0"?>
<svg viewBox="0 0 36 36" fill="none" xmlns="http://www.w3.org/2000/svg">
  <g clip-path="">
    <path fill="currentColor" d="M27.7734 6.01249C28.9788 6.03744 30.1205 6.33782 31.1855 6.91483C31.3082 6.98141 31.3941 7.0615 31.4326 7.16971H31.0996V7.17362H31.4335C31.4524 7.22852 31.4594 7.29064 31.4521 7.3621C31.4407 7.47552 31.4843 7.54171 31.5859 7.60721C33.2663 8.68591 34.2958 10.2253 34.7167 12.1609C35.0706 13.7884 35.3234 15.4352 35.5361 17.0877C35.7469 18.7244 35.8609 20.3682 35.9335 22.0154C35.9671 22.7781 36.004 23.542 35.9999 24.3055C35.9944 25.303 35.8569 26.2831 35.4531 27.2088C34.9562 28.347 34.1485 29.1542 32.9384 29.5017C31.6727 29.8653 30.6028 29.5341 29.7509 28.5262C29.2715 27.9585 28.9464 27.3013 28.7177 26.6014C28.5088 25.9616 28.344 25.3077 28.1474 24.6639C27.6047 22.8866 26.5032 21.5482 24.9238 20.5887C24.9213 20.5871 24.9184 20.5862 24.916 20.5848L25.1503 20.2723L25.1718 20.2469L25.1728 20.2478L25.1904 20.2273C25.2862 20.2759 25.3768 20.3034 25.4365 20.323L25.7773 20.4256C25.8937 20.4577 26.012 20.487 26.124 20.5115L26.4384 20.573C27.1766 20.6984 27.9391 20.7019 28.6767 20.5828L28.6757 20.5818C31.2157 20.1944 33.4046 18.277 34.166 15.8308L34.165 15.8299C35.6102 11.3723 32.3235 6.65548 27.5917 6.65506V6.65409H8.4062V6.65506C5.37767 6.6497 2.70335 8.67037 1.81049 11.5506C1.00503 14.1045 1.74193 16.9571 3.68745 18.7879L3.87983 18.9617C4.91492 19.8713 6.23159 20.462 7.60053 20.6228H7.60151C8.67153 20.7459 9.79336 20.6306 10.8066 20.2273C10.8114 20.2327 10.8176 20.2378 10.8222 20.243L10.8886 20.1834L10.8222 20.2439L10.8271 20.2488L10.833 20.2557C10.8366 20.2598 10.842 20.2657 10.8476 20.2723C10.8594 20.2862 10.8744 20.3052 10.8915 20.326C10.9263 20.3681 10.9694 20.4197 11.0126 20.4724C11.0418 20.508 11.072 20.5445 11.0996 20.5779C11.0938 20.581 11.0879 20.5842 11.082 20.5877C9.89406 21.2973 8.98056 22.2657 8.32905 23.4842C8.03441 24.0355 7.85478 24.6298 7.69721 25.2303C7.50206 25.9733 7.29989 26.7134 6.96284 27.408C6.64138 28.0702 6.24258 28.6754 5.63471 29.1131C4.81567 29.7026 3.91714 29.77 2.98042 29.4724C1.77578 29.0895 0.984754 28.2619 0.511667 27.1101C0.206212 26.3666 0.0705524 25.5865 0.0243618 24.7879C-0.046774 23.562 0.0538517 22.3407 0.122018 21.1189C0.161122 20.4188 0.195563 19.7179 0.265573 19.0203C0.368012 18.003 0.474778 16.9846 0.627877 15.9744C0.821202 14.6994 1.02971 13.4249 1.29194 12.1629C1.69465 10.2234 2.74378 8.70172 4.4062 7.61405C4.51078 7.54554 4.57148 7.47897 4.55659 7.3494C4.53428 7.15242 4.62772 7.02617 4.79975 6.93046C5.59838 6.48682 6.45226 6.20819 7.35444 6.09159C7.80468 6.03349 8.26203 6.01478 8.71674 6.00956C9.68191 5.99838 10.6481 6.00686 11.6132 6.0076C11.6623 6.00761 11.7116 6.00867 11.7607 6.01053C12.0309 6.02025 12.1172 6.09801 12.1552 6.37186V6.37088H23.8154C23.8752 6.26485 23.9075 6.14249 23.9863 6.08768C24.0726 6.02812 24.2031 6.01093 24.3144 6.01053C25.4672 6.00532 26.621 5.98866 27.7734 6.01249ZM27.5878 7.23026L27.9902 7.24296C31.9701 7.49058 34.7257 11.4172 33.7294 15.2713L33.6171 15.656L33.6152 15.659C32.9396 17.8298 31.0302 19.5502 28.8037 19.9764L28.5878 20.0135H28.5849C27.9099 20.1225 27.211 20.1195 26.5351 20.0047L26.247 19.949C26.0499 19.9059 25.8293 19.8435 25.6337 19.7801C26.2276 19.1014 26.5334 18.1831 26.4589 17.283H26.4599C26.3463 15.5899 24.908 14.1684 23.207 14.1199H23.041C21.3039 14.1281 19.8318 15.5696 19.7148 17.283H19.7158C19.6765 17.7706 19.7462 18.2662 19.914 18.7244V18.7254L19.9277 18.7674L19.9287 18.7713L19.9423 18.8123L19.9521 18.8435L19.9648 18.8963L19.9716 18.9441H19.9726L19.9765 18.9793V18.9812L19.9804 19.0144L19.9824 19.0428V19.0603L19.9814 19.073L19.9804 19.0955V19.1033L19.9277 19.2693L20.2021 19.3562L20.2548 19.3728V19.4764H20.2568L20.3339 19.3982L20.4765 19.4432L20.5292 19.2781L20.5302 19.2693L20.5322 19.2703L20.5341 19.2644L20.5371 19.2488L20.538 19.2469L20.5507 19.1873L20.5527 19.1697V19.1668L20.5546 19.1473L20.5566 19.1189V19.1033L20.5576 19.0916L20.5585 19.0701V19.0428L20.5576 19.0242L20.5537 18.9627L20.5527 18.9471L20.5449 18.8807L20.5429 18.867L20.5312 18.7937L20.5263 18.7683L20.5068 18.6902H20.5078L20.5039 18.6775L20.4921 18.6385L20.4892 18.6307L20.4755 18.5896L20.4628 18.5506H20.4638L20.4589 18.5379L20.4091 18.3914C20.3029 18.0482 20.2617 17.6837 20.291 17.326L20.0136 17.3025L20.289 17.3221C20.3864 15.8966 21.6228 14.7 23.0488 14.6961L23.0546 14.6951C24.5067 14.66 25.787 15.8694 25.8847 17.3211V17.3269C25.9568 18.1839 25.6106 19.0661 24.9697 19.6355L25.1601 19.8504L24.9687 19.6346L24.9609 19.6433L24.9042 19.698L24.8515 19.7478L24.8437 19.7557L24.7949 19.8064L24.791 19.8113L24.748 19.8582L24.7451 19.8611L24.7128 19.8982L24.6962 19.9168L24.4111 20.2976L24.3974 20.3142L24.3857 20.3299L24.3935 20.3357L24.3544 20.3758L24.3525 20.3797L24.5966 20.5017L24.6025 20.5125L24.6415 20.5906C23.0992 21.3439 21.1855 20.8778 20.166 19.4949C20.1056 19.4133 20.0441 19.3832 19.9443 19.3836C18.6485 19.3869 17.3524 19.387 16.0566 19.3855C15.9769 19.3855 15.9142 19.394 15.8613 19.4685C14.9119 20.8074 12.9767 21.3814 11.3662 20.5935L11.4335 20.5242L11.6328 20.3162C11.6285 20.3115 11.6106 20.2916 11.5771 20.2517C11.5429 20.211 11.5006 20.1592 11.458 20.1072C11.3816 20.0142 11.2904 19.9026 11.2539 19.8621H11.2548C11.1885 19.787 11.1037 19.7023 11.0273 19.6346H11.0263C10.3864 19.0651 10.0392 18.1831 10.1113 17.3269L10.1123 17.324C10.2204 15.8833 11.4308 14.7105 12.872 14.6961L12.874 14.6951C14.3453 14.6707 15.5979 15.855 15.708 17.324V17.325C15.7357 17.6841 15.6956 18.0487 15.5898 18.3914L15.54 18.5379L15.538 18.5428C15.4742 18.7262 15.4041 18.9852 15.4599 19.2488L15.7421 19.1883L15.7695 19.1824L15.7441 19.1902L15.4687 19.2752L15.5195 19.4402L16.0703 19.2723L16.0214 19.114C16.0052 19.0154 16.0275 18.8903 16.08 18.7381C16.2308 18.3318 16.3013 17.8967 16.291 17.4646L16.2822 17.2801C16.15 15.5194 14.6532 14.0912 12.8662 14.1199H12.8642C11.1679 14.1378 9.75791 15.4668 9.55366 17.1199L9.53706 17.281C9.46215 18.1795 9.76702 19.0975 10.3583 19.7762C9.50533 20.0699 8.57082 20.1545 7.66694 20.0506H7.66596C6.49271 19.9124 5.35766 19.4282 4.4394 18.6814L4.25874 18.5281H4.25776C2.34413 16.8601 1.59604 14.1449 2.35932 11.7244L2.3603 11.7224L2.44135 11.4773C3.33297 8.9628 5.72246 7.22514 8.4062 7.23026H27.5878ZM12.8828 15.7625C12.0828 15.7627 11.4339 16.4123 11.4335 17.2127C11.4335 18.0134 12.0825 18.6627 12.8828 18.6629C13.6832 18.6629 14.332 18.0136 14.332 17.2127C14.3316 16.4121 13.6829 15.7625 12.8828 15.7625ZM23.1162 15.7625C22.3163 15.7629 21.6673 16.4123 21.6669 17.2127C21.6669 18.0133 22.316 18.6625 23.1162 18.6629C23.9166 18.6629 24.5654 18.0136 24.5654 17.2127C24.565 16.4121 23.9163 15.7625 23.1162 15.7625ZM27.8808 13.1892C27.1708 13.1893 26.5948 13.7659 26.5947 14.4764C26.5947 15.1868 27.1708 15.7624 27.8808 15.7625C28.5908 15.7623 29.1669 15.1868 29.1669 14.4764C29.1668 13.766 28.5908 13.1894 27.8808 13.1892ZM7.45405 9.20682C7.28806 9.20699 7.1525 9.34261 7.15229 9.50858V10.9764C7.15205 11.0454 7.09514 11.1031 7.02631 11.1033H5.55952C5.39342 11.1034 5.25786 11.239 5.25776 11.4051V12.7381C5.258 12.904 5.39351 13.0397 5.55952 13.0398H7.02631C7.09523 13.04 7.15219 13.0977 7.15229 13.1668V14.6346C7.15264 14.8004 7.28815 14.9362 7.45405 14.9363H8.78706C8.9528 14.936 9.08749 14.8003 9.08784 14.6346V13.1668C9.08794 13.0976 9.14581 13.0399 9.21479 13.0398H10.6816C10.8474 13.0395 10.9821 12.9039 10.9824 12.7381V11.4051C10.9823 11.2401 10.8491 11.1052 10.6845 11.1033L10.6796 11.1014H9.21284C9.14395 11.1013 9.08808 11.0454 9.08784 10.9764V9.50858C9.08763 9.34273 8.95288 9.20717 8.78706 9.20682H7.45405ZM25.0615 10.7459C24.3517 10.7462 23.7756 11.3228 23.7753 12.033C23.7754 12.7433 24.3516 13.3188 25.0615 13.3191C25.7716 13.3191 26.3475 12.7435 26.3476 12.033C26.3474 11.3226 25.7715 10.7459 25.0615 10.7459ZM30.6874 10.7459C29.9775 10.746 29.4016 11.3227 29.4013 12.033C29.4014 12.7435 29.9774 13.319 30.6874 13.3191C31.3976 13.3191 31.9735 12.7435 31.9736 12.033C31.9733 11.3226 31.3974 10.7459 30.6874 10.7459ZM27.8808 8.28788C27.1708 8.28797 26.5948 8.86454 26.5947 9.57499C26.5949 10.2853 27.1709 10.861 27.8808 10.8611C28.5907 10.8609 29.1667 10.2852 29.1669 9.57499C29.1668 8.8646 28.5908 8.28807 27.8808 8.28788Z"/>
  </g>
  <defs>
    <clipPath id="">
      <rect fill="currentColor" width="36" height="36"/>
    </clipPath>
  </defs>
</svg>
