<?xml version="1.0"?>
<svg xmlns="http://www.w3.org/2000/svg" viewBox="0 0 36 36" fill="none">
  <path fill="currentColor" fill-rule="evenodd" clip-rule="evenodd" d="M11.25 5.625C11.909 5.625 12.182 5.81802 12.4081 5.97792C12.568 6.09099 12.7045 6.1875 12.9375 6.1875H23.0625C23.2955 6.1875 23.432 6.09099 23.5919 5.97792C23.818 5.81802 24.091 5.625 24.75 5.625C25.875 5.625 29.25 6.75 29.8125 7.3125C30.375 7.875 30.375 8.4375 30.375 8.4375V8.5803C30.8163 8.91923 31.1986 9.26106 31.5 9.5625C32.625 10.6875 36 20.25 36 25.3125C36 30.375 32.625 30.9375 32.625 30.9375C31.7178 30.9375 30.323 29.1494 28.9649 27.4083C27.7966 25.9106 26.6553 24.4476 25.875 24.1875C24.1875 23.625 11.8125 23.625 10.125 24.1875C9.34465 24.4476 8.20344 25.9106 7.03512 27.4083C5.67696 29.1494 4.28215 30.9375 3.375 30.9375C3.375 30.9375 0 30.375 0 25.3125C0 20.25 3.375 10.6875 4.5 9.5625C4.80144 9.26106 5.18366 8.91923 5.625 8.5803V8.4375C5.625 8.4375 5.625 7.875 6.1875 7.3125C6.75 6.75 10.125 5.625 11.25 5.625ZM27.5625 8.71875C28.3392 8.71875 28.9688 9.34835 28.9688 10.125C28.9688 10.9017 28.3392 11.5312 27.5625 11.5312C26.7858 11.5312 26.1562 10.9017 26.1562 10.125C26.1562 9.34835 26.7858 8.71875 27.5625 8.71875ZM8.4375 14.625C9.68014 14.625 10.6875 13.6176 10.6875 12.375C10.6875 11.1324 9.68014 10.125 8.4375 10.125C7.19486 10.125 6.1875 11.1324 6.1875 12.375C6.1875 13.6176 7.19486 14.625 8.4375 14.625ZM23.0625 20.25C24.3051 20.25 25.3125 19.2426 25.3125 18C25.3125 16.7574 24.3051 15.75 23.0625 15.75C21.8199 15.75 20.8125 16.7574 20.8125 18C20.8125 19.2426 21.8199 20.25 23.0625 20.25ZM12.0938 17.1562V16.3125C12.0938 16.0018 12.3456 15.75 12.6562 15.75H13.7812C14.0919 15.75 14.3438 16.0018 14.3438 16.3125V17.1562H15.1875C15.4982 17.1562 15.75 17.4081 15.75 17.7188V18.8438C15.75 19.1544 15.4982 19.4062 15.1875 19.4062H14.3438V20.25C14.3438 20.5607 14.0919 20.8125 13.7812 20.8125H12.6562C12.3456 20.8125 12.0938 20.5607 12.0938 20.25V19.4062H11.25C10.9393 19.4062 10.6875 19.1544 10.6875 18.8438V17.7188C10.6875 17.4081 10.9393 17.1562 11.25 17.1562H12.0938ZM25.0312 14.0625C25.8079 14.0625 26.4375 13.4329 26.4375 12.6562C26.4375 11.8796 25.8079 11.25 25.0312 11.25C24.2546 11.25 23.625 11.8796 23.625 12.6562C23.625 13.4329 24.2546 14.0625 25.0312 14.0625ZM31.5 12.6562C31.5 13.4329 30.8704 14.0625 30.0938 14.0625C29.3171 14.0625 28.6875 13.4329 28.6875 12.6562C28.6875 11.8796 29.3171 11.25 30.0938 11.25C30.8704 11.25 31.5 11.8796 31.5 12.6562ZM28.9688 15.1875C28.9688 14.4108 28.3392 13.7812 27.5625 13.7812C26.7858 13.7812 26.1562 14.4108 26.1562 15.1875C26.1562 15.9642 26.7858 16.5938 27.5625 16.5938C28.3392 16.5938 28.9688 15.9642 28.9688 15.1875Z"/>
</svg>
