<?xml version="1.0"?>
<svg xmlns="http://www.w3.org/2000/svg" viewBox="0 0 52 46.1">
  <path d="M51.5,40.2l-6.8-11.7c2.4-2,3.9-5,3.9-8.4c0-6.1-4.9-11-11-11c-1.3,0-2.5,0.2-3.7,0.6L29.4,2c-0.7-1.2-2-2-3.4-2s-2.7,0.7-3.4,2l-4.1,7.1H6.6v20.6l-6,10.5c-0.7,1.2-0.7,2.7,0,4c0.7,1.2,2,2,3.4,2H48c1.4,0,2.7-0.7,3.4-2C52.2,42.9,52.2,41.4,51.5,40.2z M46.6,20.1c0,5-4,9-9,9s-9-4-9-9s4-9,9-9S46.6,15.1,46.6,20.1z M8.6,11.1h8.7L8.6,26.2V11.1zM49.7,43.1c-0.4,0.6-1,1-1.7,1H4c-0.7,0-1.3-0.4-1.7-1c-0.4-0.6-0.4-1.3,0-2L24.3,3c0.4-0.6,1-1,1.7-1s1.3,0.4,1.7,1l4.4,7.6c-3.3,1.9-5.5,5.5-5.5,9.5c0,6.1,4.9,11,11,11c2,0,3.9-0.5,5.5-1.5l6.7,11.5C50.1,41.8,50.1,42.5,49.7,43.1z"/>
</svg>
