<?xml version="1.0"?>
<svg xmlns="http://www.w3.org/2000/svg" viewBox="0 0 92.059 32">
  <path fill="currentColor" d="M1.984,14.83c-0.151,0.151-0.226,0.331-0.226,0.538
				c0,0.189,0.075,0.36,0.226,0.51c0.132,0.134,0.303,0.199,0.511,0.199c0.207,0,0.376-0.065,0.51-0.199
				c0.151-0.149,0.227-0.32,0.227-0.51c0-0.207-0.076-0.387-0.227-0.538c-0.133-0.133-0.303-0.198-0.51-0.198
				C2.287,14.632,2.117,14.697,1.984,14.83z M72.412,13.3c1.719,0.284,3.118,0.548,4.194,0.793l-8.333,6.378l-13.49-0.114
				c-0.169-0.416-0.463-0.529-0.878-0.341c-0.113-0.075-0.189-0.132-0.227-0.17c-0.076-0.055-0.16-0.084-0.255-0.084
				c-0.094,0-0.179,0.029-0.255,0.084c-0.038,0.038-0.066,0.076-0.085,0.114c-0.037-0.038-0.113-0.076-0.226-0.114
				c-0.171-0.055-0.379-0.084-0.624-0.084c-0.227,0-0.426,0.029-0.595,0.084c-0.114,0.038-0.189,0.076-0.227,0.114
				c-0.019-0.038-0.047-0.076-0.085-0.114c-0.075-0.055-0.16-0.084-0.255-0.084c-0.095,0-0.179,0.029-0.255,0.084
				c-0.039,0.038-0.066,0.076-0.085,0.114c-0.019-0.038-0.047-0.076-0.085-0.114c-0.076-0.055-0.161-0.084-0.255-0.084
				s-0.179,0.029-0.255,0.084c-0.057,0.038-0.085,0.076-0.085,0.114c-0.056-0.038-0.132-0.076-0.227-0.114
				c-0.17-0.055-0.377-0.084-0.623-0.084c-0.246,0-0.454,0.029-0.623,0.084c-0.096,0.038-0.162,0.076-0.199,0.114
				c-0.02-0.038-0.057-0.076-0.114-0.114c-0.056-0.055-0.131-0.084-0.226-0.084c-0.113,0-0.198,0.029-0.255,0.084
				c-0.057,0.038-0.095,0.076-0.114,0.114c-0.019-0.038-0.047-0.076-0.085-0.114c-0.075-0.055-0.161-0.084-0.255-0.084
				s-0.18,0.029-0.255,0.084c-0.038,0.038-0.066,0.076-0.084,0.114c-0.038-0.038-0.114-0.076-0.227-0.114
				c-0.17-0.055-0.369-0.084-0.596-0.084c-0.245,0-0.454,0.029-0.623,0.084c-0.115,0.038-0.19,0.076-0.228,0.114
				c-0.019-0.038-0.047-0.076-0.085-0.114c-0.075-0.055-0.161-0.084-0.255-0.084c-0.095,0-0.18,0.029-0.256,0.084
				c-0.038,0.038-0.065,0.076-0.084,0.114c-0.02-0.038-0.048-0.076-0.085-0.114c-0.076-0.055-0.161-0.084-0.255-0.084
				c-0.094,0-0.18,0.029-0.255,0.084c-0.037,0.038-0.066,0.076-0.084,0.114c-0.038-0.038-0.114-0.076-0.228-0.114
				c-0.169-0.055-0.377-0.084-0.623-0.084c-0.226,0-0.435,0.029-0.624,0.084c-0.094,0.038-0.161,0.076-0.198,0.114
				c-0.02-0.038-0.057-0.076-0.114-0.114c-0.057-0.055-0.132-0.084-0.227-0.084c-0.113,0-0.198,0.029-0.255,0.084
				c-0.056,0.038-0.085,0.076-0.085,0.114c-0.378-0.228-0.69-0.057-0.935,0.511h-3.259l-0.057,0.34
				c-0.057,0.283-0.123,0.548-0.198,0.793c-0.264,0.736-0.633,1.124-1.105,1.162c-0.265,0.019-0.481-0.029-0.652-0.143
				c-0.132-0.094-0.273-0.244-0.425-0.451c-0.17-0.284-0.321-0.502-0.453-0.653c-0.208-0.283-0.444-0.529-0.709-0.737
				c-0.661-0.51-1.492-0.812-2.494-0.907c-0.832-0.094-2.381-0.056-4.647,0.114c-1.588,0.113-3.798,0.17-6.632,0.17
				c-3.042-0.057-5.102-0.084-6.179-0.084c0-0.077-0.028-0.142-0.084-0.2c-0.056-0.056-0.132-0.083-0.227-0.083
				c-0.076,0-0.142,0.027-0.199,0.083c-0.056,0.059-0.084,0.123-0.084,0.2c-0.132,0-0.245,0-0.34,0
				c-0.114,0.019-0.227,0.027-0.34,0.027c0-0.076-0.028-0.142-0.085-0.198c-0.057-0.058-0.123-0.085-0.199-0.085
				c-0.075,0-0.142,0.027-0.198,0.085c-0.076,0.057-0.113,0.122-0.113,0.198v0.028c-0.189,0-0.378,0.009-0.567,0.028
				c0-0.075-0.028-0.133-0.085-0.17c-0.057-0.056-0.123-0.085-0.198-0.085c-0.076,0-0.151,0.029-0.227,0.085
				c-0.057,0.057-0.085,0.123-0.085,0.198c0,0.019,0.01,0.037,0.028,0.056c-0.189,0.021-0.368,0.039-0.539,0.058
				c0-0.037-0.028-0.085-0.084-0.142c-0.058-0.057-0.124-0.084-0.199-0.084s-0.151,0.027-0.227,0.084
				c-0.057,0.057-0.085,0.133-0.085,0.227c0,0.02,0.01,0.038,0.029,0.057c-0.17,0.039-0.331,0.084-0.482,0.143
				c-0.019-0.039-0.038-0.067-0.056-0.086c-0.057-0.057-0.132-0.084-0.227-0.084c-0.075,0-0.142,0.027-0.198,0.084
				c-0.057,0.057-0.085,0.123-0.085,0.199c0,0.037,0.01,0.074,0.028,0.113c-0.075,0.037-0.159,0.084-0.255,0.142
				c-0.075,0.037-0.142,0.084-0.197,0.142c-0.058-0.038-0.114-0.058-0.171-0.058c-0.094,0-0.169,0.029-0.227,0.085
				c-0.057,0.058-0.085,0.133-0.085,0.228c0,0.075,0.028,0.142,0.085,0.198c0.02,0.019,0.048,0.038,0.085,0.057
				c-0.019,0-0.028,0.01-0.028,0.028c-0.19,0.34-0.435,0.548-0.738,0.624c-0.377,0.113-0.746,0.094-1.105-0.058
				c-0.282-0.132-0.595-0.368-0.935-0.708c-0.264-0.283-0.765-0.878-1.502-1.784c-0.718-0.89-1.171-1.485-1.36-1.787
				c-0.114-0.17-0.161-0.339-0.142-0.51l0.085-0.17l-0.538,0.027l-1.474-1.699l1.474-1.928l0.34-0.028
				c0-0.094,0.018-0.198,0.056-0.312c0.095-0.227,0.236-0.397,0.425-0.511c0.152-0.075,0.643-0.17,1.475-0.283
				c0.018,0.094,0.056,0.17,0.112,0.228c0.095,0.095,0.199,0.142,0.312,0.142c0.114,0,0.208-0.047,0.283-0.142
				c0.076-0.076,0.114-0.171,0.114-0.284c0-0.019,0-0.037,0-0.057c0.17-0.02,0.35-0.038,0.539-0.057
				c0,0.113,0.038,0.198,0.114,0.255c0.075,0.095,0.169,0.143,0.283,0.143s0.217-0.048,0.312-0.143
				c0.076-0.075,0.113-0.17,0.113-0.282v-0.03c0.151-0.019,0.321-0.037,0.51-0.056c0,0.095,0.038,0.18,0.113,0.255
				c0.076,0.076,0.17,0.113,0.284,0.113c0.113,0,0.217-0.037,0.312-0.113c0.076-0.075,0.114-0.169,0.114-0.283
				c0-0.02,0-0.038,0-0.057c0.208-0.019,0.416-0.038,0.624-0.057c0,0.113,0.038,0.197,0.113,0.255
				c0.076,0.095,0.17,0.142,0.283,0.142c0.114,0,0.208-0.047,0.284-0.142c0.095-0.076,0.142-0.169,0.142-0.283v-0.027
				c0.169-0.021,0.34-0.029,0.51-0.029c0,0.094,0.038,0.179,0.113,0.254c0.095,0.078,0.198,0.114,0.313,0.114
				c0.113,0,0.208-0.036,0.282-0.114c0.077-0.075,0.114-0.169,0.114-0.283V11.94c0.188-0.021,0.368-0.029,0.538-0.029
				c0,0.094,0.038,0.179,0.114,0.256c0.075,0.074,0.179,0.111,0.312,0.111c0.113,0,0.208-0.037,0.283-0.111
				c0.076-0.077,0.114-0.171,0.114-0.284v-0.029c1.738-0.095,3.485-0.16,5.242-0.197c2.74-0.038,5.753,0.047,9.042,0.255
				c0.737,0.037,1.644,0.094,2.72,0.17v0.027c0,0.114,0.038,0.22,0.114,0.313c0.075,0.075,0.169,0.113,0.283,0.113
				c0.114,0,0.218-0.038,0.312-0.113c0.076-0.075,0.114-0.171,0.114-0.283c0.246,0.019,0.462,0.029,0.651,0.029
				c0,0.093,0.038,0.188,0.114,0.282c0.095,0.076,0.198,0.113,0.313,0.113c0.113,0,0.208-0.037,0.283-0.113
				c0.076-0.095,0.114-0.199,0.114-0.312v-0.029c0.245-0.019,0.48-0.047,0.708-0.083c0,0.094,0.037,0.178,0.112,0.253
				c0.076,0.076,0.171,0.114,0.284,0.114c0.114,0,0.208-0.038,0.283-0.114c0.094-0.093,0.142-0.197,0.142-0.312
				c0-0.019,0-0.036,0-0.056c0.227-0.058,0.426-0.104,0.596-0.142c0.019,0.037,0.056,0.075,0.113,0.113
				c0.075,0.095,0.17,0.143,0.283,0.143s0.208-0.048,0.283-0.143c0.094-0.076,0.143-0.17,0.143-0.284
				c0-0.075-0.019-0.141-0.058-0.197c0.227-0.151,0.426-0.322,0.596-0.511c0.056,0.038,0.132,0.057,0.226,0.057
				c0.114,0,0.208-0.037,0.284-0.113c0.075-0.075,0.114-0.171,0.114-0.284s-0.039-0.217-0.114-0.311
				c-0.019-0.02-0.047-0.038-0.085-0.058c0.265-0.435,0.539-0.717,0.822-0.85c0.189-0.095,0.387-0.123,0.596-0.086
				c0.396,0.076,0.708,0.511,0.935,1.304c0.113,0.379,0.189,0.756,0.226,1.135l9.778,0.085c7.124,0.095,12.244,0.227,15.361,0.397
				C65.695,12.354,68.973,12.733,72.412,13.3z"/>
</svg>
