<?xml version="1.0"?>
<svg width="60px" height="52px" viewBox="0 0 60 52" fill="none" xmlns="http://www.w3.org/2000/svg">
  <path fill-rule="evenodd" clip-rule="evenodd" d="M6 0C2.96243 0 0.5 2.46243 0.5 5.5V35C0.5 38.0376 2.96243 40.5 6 40.5H37.7929L48.4393 51.1464C49.3843 52.0914 51 51.4221 51 50.0858V42C51 41.1716 51.6716 40.5 52.5 40.5H54C57.0376 40.5 59.5 38.0376 59.5 35V5.5C59.5 2.46243 57.0376 0 54 0H6ZM1.5 5.5C1.5 3.01472 3.51472 1 6 1H54C56.4853 1 58.5 3.01472 58.5 5.5V35C58.5 37.4853 56.4853 39.5 54 39.5H52.5C51.1193 39.5 50 40.6193 50 42V50.0858C50 50.5312 49.4614 50.7543 49.1464 50.4393L38.3536 39.6464L38.2071 39.5H38H6C3.51472 39.5 1.5 37.4853 1.5 35V5.5ZM16 8.88154L17.8736 13.9448C18.0761 14.4922 18.5078 14.9239 19.0552 15.1264L24.1185 17L19.0552 18.8736C18.5078 19.0761 18.0761 19.5078 17.8736 20.0552L16 25.1185L14.1264 20.0552C13.9239 19.5078 13.4922 19.0761 12.9448 18.8736L7.88154 17L12.9448 15.1264C13.4922 14.9239 13.9239 14.4922 14.1264 13.9448L16 8.88154ZM15.0621 8.53451C15.3843 7.66389 16.6157 7.66389 16.9379 8.5345L18.8114 13.5978C18.9127 13.8715 19.1285 14.0873 19.4022 14.1886L24.4655 16.0621C25.3361 16.3843 25.3361 17.6157 24.4655 17.9379L19.4022 19.8114C19.1285 19.9127 18.9127 20.1285 18.8114 20.4022L16.9379 25.4655C16.6157 26.3361 15.3843 26.3361 15.0621 25.4655L13.1886 20.4022C13.0873 20.1285 12.8715 19.9127 12.5978 19.8114L7.53451 17.9379C6.66389 17.6157 6.66389 16.3843 7.5345 16.0621L12.5978 14.1886C12.8715 14.0873 13.0873 13.8715 13.1886 13.5978L15.0621 8.53451ZM32.8736 23.9448L31 18.8815L29.1264 23.9448C28.9239 24.4922 28.4922 24.9239 27.9448 25.1264L22.8815 27L27.9448 28.8736C28.4922 29.0761 28.9239 29.5078 29.1264 30.0552L31 35.1185L32.8736 30.0552C33.0761 29.5078 33.5078 29.0761 34.0552 28.8736L39.1185 27L34.0552 25.1264C33.5078 24.9239 33.0761 24.4922 32.8736 23.9448ZM31.9379 18.5345C31.6157 17.6639 30.3843 17.6639 30.0621 18.5345L28.1886 23.5978C28.0873 23.8715 27.8715 24.0873 27.5978 24.1886L22.5345 26.0621C21.6639 26.3843 21.6639 27.6157 22.5345 27.9379L27.5978 29.8114C27.8715 29.9127 28.0873 30.1285 28.1886 30.4022L30.0621 35.4655C30.3843 36.3361 31.6157 36.3361 31.9379 35.4655L33.8114 30.4022C33.9127 30.1285 34.1285 29.9127 34.4022 29.8114L39.4655 27.9379C40.3361 27.6157 40.3361 26.3843 39.4655 26.0621L34.4022 24.1886C34.1285 24.0873 33.9127 23.8715 33.8114 23.5978L31.9379 18.5345ZM43 4.88154L44.8736 9.9448C45.0761 10.4922 45.5078 10.9239 46.0552 11.1264L51.1185 13L46.0552 14.8736C45.5078 15.0761 45.0761 15.5078 44.8736 16.0552L43 21.1185L41.1264 16.0552C40.9239 15.5078 40.4922 15.0761 39.9448 14.8736L34.8815 13L39.9448 11.1264C40.4922 10.9239 40.9239 10.4922 41.1264 9.9448L43 4.88154ZM42.0621 4.53451C42.3843 3.66389 43.6157 3.66389 43.9379 4.5345L45.8114 9.59776C45.9127 9.87148 46.1285 10.0873 46.4022 10.1886L51.4655 12.0621C52.3361 12.3843 52.3361 13.6157 51.4655 13.9379L46.4022 15.8114C46.1285 15.9127 45.9127 16.1285 45.8114 16.4022L43.9379 21.4655C43.6157 22.3361 42.3843 22.3361 42.0621 21.4655L40.1886 16.4022C40.0873 16.1285 39.8715 15.9127 39.5978 15.8114L34.5345 13.9379C33.6639 13.6157 33.6639 12.3843 34.5345 12.0621L39.5978 10.1886C39.8715 10.0873 40.0873 9.87148 40.1886 9.59776L42.0621 4.53451Z" fill=""/>
</svg>
