<?xml version="1.0"?>
<svg xmlns="http://www.w3.org/2000/svg" viewBox="0 0 36 36" fill="none">
  <path d="M10 6.05005V24.05C10 24.5805 9.78929 25.0892 9.41421 25.4643C9.03914 25.8393 8.53043 26.05 8 26.05C7.46957 26.05 6.96086 25.8393 6.58579 25.4643C6.21071 25.0892 6 24.5805 6 24.05V13.05H2V24.05C2 25.6413 2.63214 27.1675 3.75736 28.2927C4.88258 29.4179 6.4087 30.05 8 30.05H28C29.5913 30.05 31.1174 29.4179 32.2426 28.2927C33.3679 27.1675 34 25.6413 34 24.05V6.05005H10ZM20 24.05H14V20.05H20V24.05ZM30 24.05H24V20.05H30V24.05ZM30 16.05H14V10.05H30V16.05Z" fill="currentColor"/>
</svg>
