<?xml version="1.0"?>
<svg xmlns="http://www.w3.org/2000/svg" version="1.1" viewBox="0 0 1024 1024">
  <path d="M805.7,241.8h-51.3l44.3-45.3c10.1-10.1,15.1-22.8,15.1-38.2s-5-28.2-15.1-38.2c-10.1-10.1-22.8-15.1-38.2-15.1s-28.5,5-39.2,15.1l-128.8,121.7h-153.9l-129.8-121.7c-10.1-10.1-22.8-15.1-38.2-15.1s-28.2,5-38.2,15.1c-10.1,10.1-15.1,22.8-15.1,38.2s5,28.2,15.1,38.2l44.3,45.3h-51.3c-46.3,1.3-84.3,17.1-114.2,47.3-29.9,30.2-45.5,68.1-46.8,113.7v348.1c1.3,49.6,16.9,89.8,46.8,120.2,29.9,30.4,67.9,46.5,114.2,47.8h573.5c46.3-1.3,84.5-16.9,114.7-46.8,30.2-29.9,45.6-67.9,46.3-114.2v-355.2c2-45.6-11.6-83.5-40.8-113.7s-66.9-46-113.2-47.3h-.2ZM851,751c-.7,16.1-6.5,29.9-17.6,41.3-11.1,11.4-24.7,17.1-40.8,17.1H232.2c-16.1,0-29.9-5.7-41.3-17.1-11.4-11.4-17.1-25.2-17.1-41.3v-341.1c.7-16.8,6.3-30.5,17.1-41.3s24.5-16.4,41.3-17.1h560.4c16.8.7,30.5,6.3,41.3,17.1s16.4,24.5,17.1,41.3v341.1h0ZM347.9,467.2c-16.1.7-29.7,6.5-40.8,17.6-11.1,11.1-16.9,24.7-17.6,40.8v58.4c.7,16.1,6.3,29.7,17.1,40.8,10.8,11.1,24.5,16.6,41.3,16.6s30.5-5.5,41.3-16.6,16.4-24.7,17.1-40.8v-58.4c-.7-16.1-6.5-29.7-17.6-40.8-11.1-11.1-24.7-16.9-40.8-17.6h0ZM683,467.2c-16.1.7-29.7,6.5-40.8,17.6s-16.9,24.7-17.6,40.8v58.4c.7,16.1,6.3,29.7,17.1,40.8s24.5,16.6,41.3,16.6,30.5-5.5,41.3-16.6,16.4-24.7,17.1-40.8v-58.4c-.7-16.1-6.5-29.7-17.6-40.8-11.1-11.1-24.7-16.9-40.8-17.6h0Z"/>
</svg>
