<?xml version="1.0"?>
<svg xmlns="http://www.w3.org/2000/svg" viewBox="0 0 36 36" fill="none">
  <path fill-rule="evenodd" clip-rule="evenodd" d="M9.66645 5.52796C12.1332 3.87973 15.0333 3 18 3C19.9698 3 21.9204 3.38799 23.7403 4.14181C25.5601 4.89563 27.2137 6.00052 28.6066 7.3934C29.9995 8.78628 31.1044 10.4399 31.8582 12.2597C32.612 14.0796 33 16.0302 33 18C33 20.9667 32.1203 23.8668 30.472 26.3336C28.8238 28.8003 26.4811 30.7229 23.7403 31.8582C20.9994 32.9935 17.9834 33.2906 15.0737 32.7118C12.1639 32.133 9.49119 30.7044 7.3934 28.6066C5.29562 26.5088 3.86701 23.8361 3.28823 20.9264C2.70945 18.0166 3.0065 15.0006 4.14181 12.2597C5.27713 9.51886 7.19972 7.17618 9.66645 5.52796ZM9.5056 13.3333C9.17595 13.8266 9.00001 14.4067 9.00001 15C9.00001 15.7956 9.31608 16.5587 9.87869 17.1213C10.4413 17.6839 11.2044 18 12 18C12.5934 18 13.1734 17.8241 13.6667 17.4944C14.1601 17.1648 14.5446 16.6962 14.7716 16.1481C14.9987 15.5999 15.0581 14.9967 14.9424 14.4147C14.8266 13.8328 14.5409 13.2982 14.1213 12.8787C13.7018 12.4591 13.1672 12.1734 12.5853 12.0576C12.0033 11.9419 11.4001 12.0013 10.852 12.2284C10.3038 12.4554 9.83524 12.8399 9.5056 13.3333ZM22.3333 17.4944C22.8266 17.8241 23.4067 18 24 18C24.7957 18 25.5587 17.6839 26.1213 17.1213C26.6839 16.5587 27 15.7956 27 15C27 14.4067 26.8241 13.8266 26.4944 13.3333C26.1648 12.8399 25.6962 12.4554 25.1481 12.2284C24.5999 12.0013 23.9967 11.9419 23.4147 12.0576C22.8328 12.1734 22.2982 12.4591 21.8787 12.8787C21.4591 13.2982 21.1734 13.8328 21.0576 14.4147C20.9419 14.9967 21.0013 15.5999 21.2284 16.1481C21.4554 16.6962 21.8399 17.1648 22.3333 17.4944ZM23 22C23 23.3261 22.4732 24.5979 21.5355 25.5355C20.5979 26.4732 19.3261 27 18 27C16.6739 27 15.4021 26.4732 14.4645 25.5355C13.5268 24.5979 13 23.3261 13 22H23Z" fill="currentColor"/>
</svg>
