<?xml version="1.0"?>
<svg width="10" height="9" viewBox="0 0 10 9" fill="none" xmlns="http://www.w3.org/2000/svg">
  <path d="M4.82246 0.25769C2.59006 0.25769 0.761165 1.97608 0.587402 4.1598L2.86514 5.09998C3.05811 4.96822 3.29125 4.89126 3.5421 4.89126C3.56459 4.89126 3.58695 4.89181 3.60914 4.89302L4.62218 3.42744C4.62218 3.42045 4.62201 3.41363 4.62201 3.40675C4.62201 2.52453 5.34091 1.8067 6.2247 1.8067C7.10852 1.8067 7.82745 2.52453 7.82745 3.40675C7.82745 4.2889 7.10852 5.0068 6.2247 5.0068C6.21249 5.0068 6.2005 5.00645 6.1884 5.00607L4.74367 6.03518C4.74444 6.05407 4.74509 6.07307 4.74509 6.09207C4.74509 6.75436 4.20543 7.29301 3.5421 7.29301C2.95991 7.29301 2.47301 6.87809 2.36267 6.32864L0.733782 5.65635C1.23812 7.43713 2.877 8.74254 4.82246 8.74254C7.16956 8.74254 9.07225 6.84311 9.07225 4.50015C9.07222 2.15698 7.16952 0.25769 4.82246 0.25769Z" fill="white"/>
  <path d="M3.25059 6.69482L2.72854 6.47959C2.82109 6.67198 2.98105 6.83282 3.19364 6.92136C3.65292 7.1124 4.18259 6.89468 4.37403 6.43596C4.46672 6.21395 4.46741 5.96883 4.37542 5.74637C4.2837 5.52384 4.1106 5.35014 3.88796 5.25747C3.66713 5.16585 3.43056 5.16917 3.22251 5.2474L3.76189 5.4701C4.10075 5.61107 4.26089 5.99949 4.11975 6.33766C3.97867 6.67593 3.58941 6.83589 3.25059 6.69482Z" fill="white"/>
  <path d="M7.29268 3.40664C7.29268 2.81885 6.81365 2.34058 6.22477 2.34058C5.63595 2.34058 5.15675 2.81882 5.15675 3.40664C5.15675 3.99447 5.63592 4.47261 6.22477 4.47261C6.81361 4.47261 7.29268 3.99447 7.29268 3.40664ZM5.42427 3.40481C5.42427 2.96249 5.78351 2.60404 6.22653 2.60404C6.66962 2.60404 7.0288 2.96249 7.0288 3.40481C7.0288 3.84713 6.66966 4.20558 6.22653 4.20558C5.78351 4.20554 5.42427 3.84713 5.42427 3.40481Z" fill="white"/>
</svg>
