<?xml version="1.0"?>
<svg viewBox="0 0 36 36" fill="none" xmlns="http://www.w3.org/2000/svg">
  <path fill="currentColor" d="M23.9 29.1H12.1q-.7 0-1.3-.6t-.6-1.3V8.8q0-.7.6-1.3t1.3-.6h11.8q.7 0 1.3.6t.6 1.3v18.4q0 .7-.6 1.3t-1.3.6m0-1.9V8.8H12.1v18.4zM18 14.6q.9 0 1.6-.7t.7-1.6-.7-1.6-1.6-.7-1.6.7-.7 1.6.7 1.6 1.6.7m0 11.2q1.9 0 3.2-1.3t1.3-3.2-1.3-3.2-3.2-1.3-3.2 1.3-1.3 3.2 1.3 3.2 3.2 1.3m0-1.9q-1.1 0-1.9-.8-.8-.8-.8-1.9t.8-1.9q.8-.8 1.9-.8t1.9.8q.8.8.8 1.9t-.8 1.9q-.8.8-1.9.8"/>
  <path fill="currentColor" d="M23.9 5.3V3.4c1.4 0 2.8.7 3.8 1.6s1.6 2.4 1.6 3.8h-1.9c0-.9-.4-1.8-1.1-2.4s-1.6-1.1-2.4-1.1m-11.8 0V3.4c-1.4 0-2.8.7-3.8 1.6s-1.6 2.4-1.6 3.8h1.9c0-.9.4-1.8 1.1-2.4s1.6-1.1 2.4-1.1m11.8 25.4v1.9c1.4 0 2.8-.7 3.8-1.6s1.6-2.4 1.6-3.8h-1.9c0 .9-.4 1.8-1.1 2.4s-1.6 1.1-2.4 1.1m-11.8 0v1.9c-1.4 0-2.8-.7-3.8-1.6s-1.6-2.4-1.6-3.8h1.9c0 .9.4 1.8 1.1 2.4s1.6 1.1 2.4 1.1"/>
  <path fill="currentColor" d="M23.9 0v1.9c1.8 0 3.6.7 4.9 2s2 3.1 2 4.9h1.9c0-2.4-.9-4.6-2.6-6.2-1.7-1.6-3.9-2.6-6.2-2.6M12.1 0v1.9c-1.9 0-3.6.7-4.9 2s-2 3.1-2 4.9h-1.9c0-2.4.9-4.6 2.6-6.2 1.6-1.6 3.9-2.6 6.2-2.6m11.8 36v-1.9c1.8 0 3.6-.7 4.9-2s2-3.1 2-4.9h1.9c0 2.4-.9 4.6-2.6 6.2-1.7 1.6-3.9 2.6-6.2 2.6M12.1 36v-1.9c-1.9 0-3.6-.7-4.9-2s-2-3.1-2-4.9h-1.9c0 2.4.9 4.6 2.6 6.2 1.6 1.6 3.9 2.6 6.2 2.6"/>
</svg>
