<?xml version="1.0"?>
<svg width="16" height="16" viewBox="0 0 23 24" fill="none">
  <circle cx="11.3115" cy="12.247" r="11.3115" fill="#FFC82C"/>
  <path d="M9.61534 5.7H13.0733L12.5223 14.649H10.1473L9.61534 5.7ZM11.3253 15.96C11.8067 15.96 12.193 16.1057 12.4843 16.397C12.7883 16.6883 12.9403 17.081 12.9403 17.575C12.9403 18.069 12.7883 18.468 12.4843 18.772C12.193 19.076 11.8067 19.228 11.3253 19.228C10.8567 19.228 10.4767 19.076 10.1853 18.772C9.89401 18.468 9.74834 18.069 9.74834 17.575C9.74834 17.081 9.88768 16.6883 10.1663 16.397C10.4577 16.1057 10.844 15.96 11.3253 15.96Z" fill="#1E2834"/>
</svg>
