<?xml version="1.0"?>
<svg width="36" height="36" viewBox="0 0 36 36" fill="none" xmlns="http://www.w3.org/2000/svg">
  <path fill-rule="evenodd" clip-rule="evenodd" d="M32.1364 3.05916C32.3257 3.11958 32.4978 3.22426 32.6386 3.36452C32.7774 3.50482 32.8811 3.67603 32.941 3.86413C33.001 4.05222 33.0155 4.25184 32.9834 4.44663L31.7339 12.0377C31.6841 12.3356 31.5288 12.6056 31.2965 12.7987L19.2946 22.7251L17.1703 20.6009L27.2742 10.497L25.5074 8.7301L15.406 18.8365L13.2817 16.7123L23.2694 4.69904C23.4614 4.46893 23.7297 4.31549 24.0254 4.2667L31.5502 3.01714C31.7462 2.98434 31.9471 2.99875 32.1364 3.05916ZM9.26762 16.7603C9.59525 16.7574 9.91089 16.8834 10.1466 17.111L18.8934 25.8578C19.1211 26.0935 19.247 26.4092 19.2442 26.7368C19.2413 27.0644 19.1099 27.3778 18.8782 27.6095C18.6465 27.8412 18.3331 27.9726 18.0055 27.9754C17.6779 27.9783 17.3622 27.8523 17.1266 27.6247L14.6275 25.1256L10.1466 29.6065L11.3961 30.8561C11.5155 30.9713 11.6107 31.1092 11.6761 31.2617C11.7416 31.4141 11.7761 31.5781 11.7775 31.744C11.779 31.9099 11.7474 32.0745 11.6845 32.228C11.6217 32.3816 11.5289 32.5211 11.4116 32.6384C11.2943 32.7557 11.1548 32.8485 11.0012 32.9114C10.8476 32.9742 10.6831 33.0058 10.5172 33.0044C10.3513 33.0029 10.1873 32.9684 10.0348 32.903C9.88239 32.8375 9.74451 32.7423 9.62925 32.6229L3.38147 26.3752C3.26213 26.2599 3.16694 26.122 3.10145 25.9696C3.03596 25.8171 3.00149 25.6531 3.00005 25.4872C2.99861 25.3213 3.03022 25.1568 3.09305 25.0032C3.15588 24.8496 3.24866 24.7101 3.36599 24.5928C3.48331 24.4755 3.62283 24.3827 3.77639 24.3199C3.92996 24.257 4.0945 24.2254 4.26041 24.2269C4.42633 24.2283 4.59029 24.2628 4.74274 24.3283C4.89519 24.3938 5.03308 24.4889 5.14834 24.6083L6.3979 25.8578L10.8788 21.3769L8.37969 18.8778C8.15207 18.6422 8.02613 18.3265 8.02897 17.9989C8.03182 17.6713 8.16323 17.3579 8.39491 17.1262C8.62659 16.8945 8.93999 16.7631 9.26762 16.7603Z" fill="currentColor"/>
</svg>
