<?xml version="1.0"?>
<svg version="1.1" id="Layer_1" xmlns="http://www.w3.org/2000/svg" x="0px" y="0px" width="256px" height="256px" viewBox="0 0 256 256">
  <path d="M128.5,27.4C74.1,27.4,30,71.5,30,125.9c0,54.4,44.1,98.5,98.5,98.5s98.5-44.1,98.5-98.5C226.9,71.5,182.9,27.4,128.5,27.4 z M206.8,125.9c0,17.7-5.9,34-15.8,47.2L81.3,63.3c13.1-9.9,29.5-15.8,47.2-15.8C171.7,47.5,206.8,82.6,206.8,125.9z M50.2,125.9 c0-17.7,5.9-34,15.8-47.2l109.7,109.7c-13.1,9.9-29.5,15.8-47.2,15.8C85.2,204.2,50.2,169.1,50.2,125.9z"/>
</svg>
