<?xml version="1.0"?>
<svg xmlns="http://www.w3.org/2000/svg" viewBox="0 0 36 36" fill="none">
  <path fill="currentColor" d="M15.3839 19.1567L20.4456 23.9377L23.0027 21.5169L19.0056 17.7388V11.5572H15.3839V19.1567Z"/>
  <path fill="currentColor" d="M14.7322 7.23096C15.7748 6.90009 16.8612 6.72754 17.955 6.71906L17.9813 2.70813C16.4698 2.71739 14.9681 2.95212 13.5259 3.40457L14.7322 7.23096Z"/>
  <path fill="currentColor" d="M28.7443 7.21697L31.359 4.7864L21.628 3.02008L22.6802 12.854L25.8094 9.94521C25.832 9.96775 25.8546 9.99041 25.8771 10.0132C27.2046 11.357 28.1645 13.0193 28.6649 14.8407C29.1653 16.6621 29.1894 18.5815 28.7348 20.4149C28.2802 22.2483 27.3622 23.9341 26.0688 25.3108C24.7754 26.6874 23.15 27.7087 21.3485 28.2766C19.547 28.8445 17.6298 28.9401 15.7808 28.5541C13.9317 28.1682 12.2128 27.3136 10.7889 26.0725C9.36507 24.8313 8.28395 23.2451 7.64927 21.466C7.45647 20.9325 7.30707 20.3844 7.20252 19.8269L3.26833 20.5821C3.41109 21.3407 3.61342 22.087 3.87343 22.8138C4.70483 25.149 6.10069 27.2423 7.93676 28.9075C9.77282 30.5728 11.9921 31.7582 14.3971 32.3583C16.8021 32.9584 19.3181 32.9545 21.7213 32.3471C24.1244 31.7397 26.3401 30.5475 28.1711 28.8767C30.0021 27.2059 31.3916 25.1083 32.2158 22.7707C33.0401 20.433 33.2736 17.9278 32.8956 15.4781C32.5175 13.0283 31.5397 10.7101 30.049 8.72968C29.6469 8.19547 29.2109 7.69031 28.7443 7.21697Z"/>
  <path fill="currentColor" d="M9.66234 5.252L11.9137 8.57761L11.9171 8.58705C10.9959 9.18617 10.1712 9.92194 9.47134 10.7691L6.36494 8.23828C7.3099 7.08485 8.4212 6.0784 9.66234 5.252Z"/>
  <path fill="currentColor" d="M4.15493 11.9751C3.58564 13.3267 3.2205 14.7555 3.07147 16.2145L7.06211 16.6311C7.17433 15.5601 7.44158 14.5111 7.85548 13.517L4.15493 11.9751Z"/>
</svg>
