<?xml version="1.0"?>
<svg xmlns="http://www.w3.org/2000/svg" viewBox="150 0 1120 730" fill="none">
  <path stroke="currentColor" d="M573.85 550.12C641.43 549.37 709.03 547.12 709.03 547.12" stroke-width="4" stroke-miterlimit="10"/>
  <path stroke="currentColor" d="M231.64 200.37C231.64 200.37 175.54 323.31 166.59 404.64C166.59 404.64 159.12 441.94 169.59 483.73C180.06 525.52 191.97 594.9 261.37 619.53C330.77 644.16 378.51 570.28 378.51 570.28C378.51 570.28 397.91 541.93 451.63 547.9C459.34 548.75 470.15 549.35 482.99 549.74" stroke-width="4" stroke-miterlimit="10"/>
  <path stroke="currentColor" d="M910.24 144.03C831.76 139.56 712.33 132.77 709.02 132.62C705.41 132.45 585.95 139.4 507.57 144.01" stroke-width="4" stroke-miterlimit="10"/>
  <path stroke="currentColor" d="M936.04 549.62C948.47 549.22 958.92 548.62 966.44 547.8C1020.16 541.8 1039.56 570.19 1039.56 570.19C1039.56 570.19 1087.32 644.05 1156.71 619.43C1226.1 594.81 1238.04 525.43 1248.48 483.63C1258.92 441.83 1251.48 404.54 1251.48 404.54C1242.53 323.21 1188.06 206.07 1188.06 206.07C1187.86 204.68 1187.29 201.71 1186.57 198.07" stroke-width="4" stroke-miterlimit="10"/>
  <path stroke="currentColor" d="M709.02 547.05C709.02 547.05 775.74 549.25 842.88 550.05" stroke-width="4" stroke-miterlimit="10"/>
  <path stroke="currentColor" d="M477.45 550.17C474.6 550.17 475.519 544.91 475.519 542.17C475.519 525.66 499.139 512.28 528.279 512.28C557.419 512.28 581.029 525.66 581.029 542.17C581.029 545.17 581.89 550.69 578.81 550.78" stroke-width="2" stroke-miterlimit="10"/>
  <path stroke="currentColor" d="M903.92 202.58V295.37C903.92 312.69 898.87 329.85 889.06 345.85C879.25 361.85 864.88 376.39 846.76 388.64C828.64 400.89 807.13 410.64 783.45 417.23C759.125 423.933 734.001 427.297 708.77 427.23V427.23C683.538 427.296 658.415 423.932 634.09 417.23C610.42 410.61 588.91 400.89 570.78 388.64C552.65 376.39 538.29 361.85 528.48 345.85C518.67 329.85 513.64 312.66 513.64 295.37V201.27" stroke-width="2" stroke-miterlimit="10"/>
  <path stroke="currentColor" d="M1201.39 234.69C1192.34 230.01 1099.95 197.74 705.93 198.1C311.93 197.74 225.34 229.63 216.29 234.31" stroke-width="2" stroke-miterlimit="10"/>
  <path stroke="currentColor" d="M681.9 178.71H734.82C740.194 178.71 744.55 174.354 744.55 168.98V168.97C744.55 163.596 740.194 159.24 734.82 159.24H681.9C676.526 159.24 672.17 163.596 672.17 168.97V168.98C672.17 174.354 676.526 178.71 681.9 178.71Z" stroke-miterlimit="10"/>
  <path stroke="currentColor" d="M586.11 550.69C595.66 542.69 601.36 532.55 601.36 521.59C601.36 495.29 568.64 473.97 528.28 473.97C487.92 473.97 455.19 495.29 455.19 521.59C455.19 532.21 460.53 542.01 469.55 549.93" stroke-width="3" stroke-miterlimit="10"/>
  <path stroke="currentColor" d="M591.09 550.65C611.58 539.21 624.56 522.23 624.56 503.28C624.56 468.83 581.71 440.91 528.84 440.91C475.97 440.91 433.12 468.83 433.12 503.28C433.12 521.77 445.48 538.38 465.12 549.8" stroke-width="2" stroke-miterlimit="10"/>
  <path stroke="currentColor" d="M838.07 549.37C835.23 549.37 836.15 544.12 836.15 541.37C836.15 524.86 859.77 511.48 888.9 511.48C918.03 511.48 941.64 524.86 941.64 541.37C941.64 544.37 942.5 549.89 939.41 549.99" stroke-width="2" stroke-miterlimit="10"/>
  <path stroke="currentColor" d="M946.73 549.93C956.29 541.88 961.99 531.79 961.99 520.83C961.99 494.53 929.27 473.21 888.9 473.21C848.53 473.21 815.82 494.53 815.82 520.83C815.82 531.45 821.16 541.25 830.18 549.17" stroke-width="3" stroke-miterlimit="10"/>
  <path stroke="currentColor" d="M951.72 549.89C972.2 538.45 985.19 521.47 985.19 502.52C985.19 468.08 942.33 440.16 889.47 440.16C836.61 440.16 793.75 468.08 793.75 502.52C793.75 521.01 806.11 537.62 825.75 549.04" stroke-width="2" stroke-miterlimit="10"/>
  <path stroke="currentColor" d="M231.19 200.86C233.14 135.75 261.49 93.4298 319.54 86.9798C377.59 80.5298 374.36 107.98 384.04 112.78C393.72 117.58 432.72 120.26 432.72 120.26C432.72 120.26 380.16 115.11 313.64 141.37C275.64 156.37 231.19 200.86 231.19 200.86Z" stroke-width="4" stroke-miterlimit="10"/>
  <path stroke="currentColor" d="M414.64 346.37H363.76V311.24C363.76 309.118 362.917 307.084 361.417 305.583C359.916 304.083 357.882 303.24 355.76 303.24H314.23C312.108 303.24 310.073 304.083 308.573 305.583C307.073 307.084 306.23 309.118 306.23 311.24V346.37H255.35C253.334 346.375 251.403 347.179 249.978 348.605C248.554 350.032 247.753 351.964 247.75 353.98V383.91C247.755 385.925 248.557 387.856 249.981 389.282C251.405 390.707 253.335 391.512 255.35 391.52H306.23V426.65C306.23 428.772 307.073 430.807 308.573 432.307C310.073 433.807 312.108 434.65 314.23 434.65H355.76C357.882 434.65 359.916 433.807 361.417 432.307C362.917 430.807 363.76 428.772 363.76 426.65V391.52H414.64C416.655 391.512 418.585 390.707 420.009 389.282C421.433 387.856 422.235 385.925 422.24 383.91V353.98C422.237 351.964 421.436 350.032 420.011 348.605C418.587 347.179 416.656 346.375 414.64 346.37V346.37Z" stroke-width="4" stroke-miterlimit="10"/>
  <path stroke="currentColor" d="M1085.86 439.24C1103.33 439.24 1117.5 428.513 1117.5 415.28C1117.5 402.047 1103.33 391.32 1085.86 391.32C1068.39 391.32 1054.22 402.047 1054.22 415.28C1054.22 428.513 1068.39 439.24 1085.86 439.24Z" stroke-width="4" stroke-miterlimit="10"/>
  <path stroke="currentColor" d="M1086.58 339.34C1104.05 339.34 1118.22 328.613 1118.22 315.38C1118.22 302.147 1104.05 291.42 1086.58 291.42C1069.11 291.42 1054.94 302.147 1054.94 315.38C1054.94 328.613 1069.11 339.34 1086.58 339.34Z" stroke-width="4" stroke-miterlimit="10"/>
  <path stroke="currentColor" d="M1149.75 388.29C1167.22 388.29 1181.39 377.563 1181.39 364.33C1181.39 351.097 1167.22 340.37 1149.75 340.37C1132.28 340.37 1118.11 351.097 1118.11 364.33C1118.11 377.563 1132.28 388.29 1149.75 388.29Z" stroke-width="4" stroke-miterlimit="10"/>
  <path stroke="currentColor" d="M1023.42 388.29C1040.89 388.29 1055.06 377.563 1055.06 364.33C1055.06 351.097 1040.89 340.37 1023.42 340.37C1005.95 340.37 991.78 351.097 991.78 364.33C991.78 377.563 1005.95 388.29 1023.42 388.29Z" stroke-width="4" stroke-miterlimit="10"/>
  <path stroke="currentColor" d="M736.23 359.24H790.87C795.769 359.24 799.74 355.269 799.74 350.37V337.25C799.74 332.351 795.769 328.38 790.87 328.38H736.23C731.331 328.38 727.36 332.351 727.36 337.25V350.37C727.36 355.269 731.331 359.24 736.23 359.24Z" stroke-width="4" stroke-miterlimit="10"/>
  <path stroke="currentColor" d="M626.56 359.49H681.2C686.099 359.49 690.07 355.519 690.07 350.62V337.5C690.07 332.601 686.099 328.63 681.2 328.63H626.56C621.661 328.63 617.69 332.601 617.69 337.5V350.62C617.69 355.519 621.661 359.49 626.56 359.49Z" stroke-width="4" stroke-miterlimit="10"/>
  <path stroke="currentColor" d="M229.24 203.08C229.24 203.08 274.39 164.38 350.18 164.38H491.25C491.25 164.38 506.95 164.45 507.57 149.09V132.26C507.57 132.26 514.64 120.84 469.5 120.84C424.36 120.84 311.48 107.94 229.24 203.08Z" stroke-width="4" stroke-miterlimit="10"/>
  <path stroke="currentColor" d="M528.27 596.23C555.917 596.23 578.33 581.63 578.33 563.62C578.33 545.61 555.917 531.01 528.27 531.01C500.623 531.01 478.21 545.61 478.21 563.62C478.21 581.63 500.623 596.23 528.27 596.23Z" stroke-width="4" stroke-miterlimit="10"/>
  <path stroke="currentColor" d="M1187.02 199.85C1185.02 134.74 1156.72 92.4201 1098.67 85.9701C1040.62 79.5201 1043.85 106.97 1034.18 111.77C1024.51 116.57 985.49 119.25 985.49 119.25C985.49 119.25 1038.06 114.1 1104.57 140.36C1142.57 155.37 1187.02 199.85 1187.02 199.85Z" stroke-width="4" stroke-miterlimit="10"/>
  <path stroke="currentColor" d="M1188.97 202.07C1188.97 202.07 1143.82 163.37 1068.04 163.37H926.96C926.96 163.37 911.26 163.44 910.64 148.08V131.25C910.64 131.25 903.57 119.83 948.72 119.83C993.87 119.83 1106.74 106.93 1188.97 202.07Z" stroke-width="4" stroke-miterlimit="10"/>
  <path stroke="currentColor" d="M888.9 595.47C916.547 595.47 938.96 580.87 938.96 562.86C938.96 544.85 916.547 530.25 888.9 530.25C861.253 530.25 838.84 544.85 838.84 562.86C838.84 580.87 861.253 595.47 888.9 595.47Z" stroke-width="4" stroke-miterlimit="10"/>
</svg>
