<?xml version="1.0"?>
<svg xmlns="http://www.w3.org/2000/svg" viewBox="0 0 36 36" fill="none">
  <path d="M5.5 6C5.5 5.20888 5.7346 4.43552 6.17412 3.77772C6.61365 3.11992 7.23836 2.60723 7.96927 2.30448C8.70017 2.00173 9.50444 1.92252 10.2804 2.07686C11.0563 2.2312 11.769 2.61216 12.3284 3.17157C12.8878 3.73098 13.2688 4.44372 13.4231 5.21964C13.5775 5.99556 13.4983 6.79983 13.1955 7.53074C12.8928 8.26164 12.3801 8.88635 11.7223 9.32588C11.0645 9.76541 10.2911 10 9.5 10C8.43913 10 7.42172 9.57857 6.67157 8.82843C5.92143 8.07828 5.5 7.06087 5.5 6ZM9.5 13C7.51088 13 5.60322 13.7902 4.1967 15.1967C2.79018 16.6032 2 18.5109 2 20.5V25H5.2L6 34H13L13.8 25H17V20.5C17 18.5109 16.2098 16.6032 14.8033 15.1967C13.3968 13.7902 11.4891 13 9.5 13ZM20.5 13C19.8064 12.9989 19.1161 13.0966 18.45 13.29C20.0998 15.3309 20.9998 17.8757 21 20.5V29H17.46L17 34H24L24.8 25H28V20.5C28 18.5109 27.2098 16.6032 25.8033 15.1967C24.3968 13.7902 22.4891 13 20.5 13ZM20.5 10C21.2911 10 22.0645 9.76541 22.7223 9.32588C23.3801 8.88635 23.8928 8.26164 24.1955 7.53074C24.4983 6.79983 24.5775 5.99556 24.4231 5.21964C24.2688 4.44372 23.8878 3.73098 23.3284 3.17157C22.769 2.61216 22.0563 2.2312 21.2804 2.07686C20.5044 1.92252 19.7002 2.00173 18.9693 2.30448C18.2384 2.60723 17.6136 3.11992 17.1741 3.77772C16.7346 4.43552 16.5 5.20888 16.5 6C16.5 7.06087 16.9214 8.07828 17.6716 8.82843C18.4217 9.57857 19.4391 10 20.5 10ZM36 9H33V6H30V9H27V12H30V15H33V12H36V9Z" fill="currentColor"/>
</svg>
