<?xml version="1.0"?>
<svg viewBox="0 0 42 42" fill="none">
  <path fill="currentColor" d="M27.9837 23.9438L28.0665 21.0967L25.7284 20.5978C25.5896 20.064 25.3896 19.548 25.1326 19.0599L26.5474 17.1376L24.6023 15.0637L22.6007 16.3764C22.1284 16.0914 21.6249 15.8619 21.1001 15.6922L20.7378 13.3291L17.8908 13.2463L17.3918 15.5844C16.858 15.7233 16.342 15.9232 15.854 16.1802L13.932 14.7535L11.8578 16.7105L13.1704 18.7121C12.8855 19.1844 12.6559 19.6879 12.4863 20.2127L10.1232 20.575L10.0404 23.422L12.3784 23.921C12.5173 24.4548 12.7172 24.9708 12.9742 25.4588L11.5475 27.3808L13.5045 29.4551L15.5062 28.1424C15.9791 28.4232 16.4827 28.6488 17.0071 28.8146L17.3691 31.1897L20.2161 31.2724L20.7151 28.9344C21.2488 28.7955 21.7649 28.5956 22.2529 28.3386L24.1752 29.7533L26.2494 27.7963L24.9365 25.8066C25.2173 25.3337 25.4428 24.8301 25.6087 24.3057L27.9837 23.9438ZM18.9665 25.2499C18.375 25.2327 17.8019 25.0405 17.3197 24.6976C16.8374 24.3547 16.4677 23.8765 16.2572 23.3235C16.0468 22.7705 16.005 22.1674 16.1373 21.5907C16.2696 21.0139 16.5699 20.4893 17.0003 20.0833C17.4307 19.6772 17.9718 19.4079 18.5553 19.3093C19.1388 19.2108 19.7383 19.2875 20.2782 19.5297C20.8181 19.772 21.274 20.1689 21.5883 20.6702C21.9026 21.1716 22.0612 21.7549 22.044 22.3463C22.0326 22.7391 21.9439 23.1257 21.7831 23.4842C21.6222 23.8426 21.3924 24.1659 21.1066 24.4355C20.8208 24.7051 20.4847 24.9158 20.1175 25.0556C19.7503 25.1953 19.3592 25.2614 18.9665 25.2499Z" fill-opacity="0.5"/>
  <path fill="currentColor" d="M25.6918 3.82243L28.5688 3L30.89 11.1201L30.9238 11.2394L22.8041 13.5606L21.9818 10.684L25.3983 9.70731C23.4921 8.74186 21.3363 8.19784 19.0534 8.19784C11.2874 8.19784 4.99182 14.4934 4.99182 22.2594C4.99182 30.0254 11.2874 36.321 19.0534 36.321C23.9689 36.321 28.2953 33.7988 30.809 29.978L33.404 31.4762C30.3699 36.1905 25.0763 39.3128 19.0534 39.3128C9.63506 39.3128 2 31.6777 2 22.2594C2 12.8411 9.63506 5.20602 19.0534 5.20602C21.7581 5.20602 24.3157 5.83568 26.5877 6.95639L25.6918 3.82243Z"/>
  <path fill="currentColor" d="M35.5644 10.2922L34.6557 13.1094C34.5421 13.4956 34.224 13.791 33.8378 13.9273L31.0206 14.836L33.8378 15.7448C34.224 15.8584 34.5193 16.1765 34.6557 16.5627L35.5644 19.3799L36.4732 16.5627C36.5868 16.1765 36.9049 15.8811 37.2911 15.7448L40.1082 14.836L37.2911 13.9273C36.9049 13.8137 36.6095 13.4956 36.4732 13.1094L35.5644 10.2922Z"/>
  <path fill="currentColor" d="M38.7361 19.866L38.2701 21.3254C38.2079 21.5294 38.0526 21.6864 37.8506 21.7491L36.4059 22.2199L37.8506 22.6907C38.0526 22.7535 38.2079 22.9104 38.2701 23.1144L38.7361 24.5738L39.2021 23.1144C39.2643 22.9104 39.4196 22.7535 39.6216 22.6907L41.0663 22.2199L39.6216 21.7491C39.4196 21.6864 39.2643 21.5294 39.2021 21.3254L38.7361 19.866Z"/>
  <path fill="currentColor" d="M32.7841 22.8579L32.5511 23.5954C32.52 23.6896 32.4423 23.768 32.3491 23.7994L31.619 24.0348L32.3491 24.2702C32.4423 24.3016 32.52 24.38 32.5511 24.4742L32.7841 25.2117L33.0171 24.4742C33.0482 24.38 33.1258 24.3016 33.219 24.2702L33.9492 24.0348L33.219 23.7994C33.1258 23.768 33.0482 23.6896 33.0171 23.5954L32.7841 22.8579Z"/>
  <path fill="currentColor" d="M34.5792 27.6448L34.3462 28.3823C34.3151 28.4765 34.2374 28.5549 34.1442 28.5863L33.4141 28.8217L34.1442 29.0571C34.2374 29.0885 34.3151 29.1669 34.3462 29.2611L34.5792 29.9986L34.8122 29.2611C34.8433 29.1669 34.9209 29.0885 35.0141 29.0571L35.7443 28.8217L35.0141 28.5863C34.9209 28.5549 34.8433 28.4765 34.8122 28.3823L34.5792 27.6448Z"/>
  <path fill="currentColor" d="M31.5873 17.4726L31.3543 18.2101C31.3233 18.3043 31.2456 18.3827 31.1524 18.4141L30.4223 18.6495L31.1524 18.8849C31.2456 18.9163 31.3233 18.9948 31.3543 19.0889L31.5873 19.8265L31.8204 19.0889C31.8514 18.9948 31.9291 18.9163 32.0223 18.8849L32.7524 18.6495L32.0223 18.4141C31.9291 18.3827 31.8514 18.3043 31.8204 18.2101L31.5873 17.4726Z"/>
  <path fill="currentColor" d="M32.7841 7.89875L32.5511 8.6363C32.52 8.73045 32.4423 8.80892 32.3491 8.8403L31.619 9.07569L32.3491 9.31108C32.4423 9.34246 32.52 9.42092 32.5511 9.51508L32.7841 10.2526L33.0171 9.51508C33.0482 9.42092 33.1258 9.34246 33.219 9.31108L33.9492 9.07569L33.219 8.8403C33.1258 8.80892 33.0482 8.73045 33.0171 8.6363L32.7841 7.89875Z"/>
</svg>
