<?xml version="1.0"?>
<svg version="1.1" id="Layer_2" xmlns="http://www.w3.org/2000/svg" x="0px" y="0px" width="256px" height="256px" viewBox="0 0 256 256">
  <path d="M171.176,136.219c-5.516-5.516-14.166-5.948-20.223-1.406L92.125,75.984l-8.002-29.738c-0.324-1.406-1.73-3.027-3.028-3.785 L46.49,24.186c-1.298-0.648-3.136-0.433-4.218,0.648L25.295,41.813c-0.974,0.973-1.298,2.92-0.649,4.217l18.276,34.605 c0.648,1.297,2.379,2.596,3.785,3.027l29.739,8.003l58.828,58.828c-4.542,6.056-4.109,14.707,1.405,20.222l56.882,56.882 c6.056,6.056,15.896,6.056,21.845,0l12.544-12.544c6.056-6.056,6.056-15.788,0-21.845L171.176,136.219z"/>
  <path d="M153.116,122.16c2.271-0.648,4.65-0.973,7.138-0.973c0.865,0,1.622,0,2.486,0.107l26.928-26.927 c12.328,2.92,25.846-0.324,35.361-9.948c9.517-9.625,12.869-23.034,9.949-35.254l-20.33,20.33l-21.845-5.84l-5.84-21.952 l20.331-20.33c-12.221-2.92-25.738,0.324-35.254,9.948c-9.625,9.625-12.869,23.143-9.949,35.362L129.866,98.91L153.116,122.16z"/>
  <path d="M99.371,129.406l-32.226,32.226c-12.328-2.92-25.845,0.324-35.362,9.948c-9.517,9.625-12.869,23.034-9.949,35.254 l20.331-20.33l21.953,5.84l5.839,21.952l-20.331,20.33c12.22,2.92,25.737-0.324,35.254-9.949 c9.625-9.624,12.869-23.142,9.949-35.361l27.035-27.035c-0.325-3.136,0-6.38,0.865-9.517L99.371,129.406z"/>
</svg>
