<?xml version="1.0"?>
<svg xmlns="http://www.w3.org/2000/svg" viewBox="0 0 32 32" fill="none">
  <path d="M3.55554 28.422C3.56 28.422 3.56241 28.4225 3.56241 28.4225L3.5636 28.4229C3.5636 28.4229 3.56778 28.425 3.57142 28.4286C3.57506 28.4322 3.57714 28.4364 3.57714 28.4364L3.57751 28.4376C3.57751 28.4376 3.578 28.44 3.578 28.4445H8.00149C8.00149 25.9891 6.01097 23.9985 3.55554 23.9985L3.55554 28.422Z" fill="currentColor"/>
  <path d="M3.55554 3.55566L3.55554 7.97916C14.8583 7.97916 24.0209 17.1418 24.0209 28.4446H28.4444C28.4444 14.6988 17.3013 3.55566 3.55554 3.55566Z" fill="currentColor"/>
  <path d="M3.55554 15.0168L3.55554 10.5933C13.4145 10.5933 21.4067 18.5855 21.4067 28.4444L16.9832 28.4444C16.9832 21.0285 10.9714 15.0168 3.55554 15.0168Z" fill="currentColor"/>
  <path d="M3.55554 17.2959L3.55554 21.7194C7.26969 21.7194 10.2806 24.7303 10.2806 28.4445L14.7041 28.4445C14.7041 22.2873 9.71272 17.2959 3.55554 17.2959Z" fill="currentColor"/>
</svg>
