<?xml version="1.0"?>
<svg version="1.1" id="base" xmlns="http://www.w3.org/2000/svg" x="0px" y="0px" width="256px" height="256px" viewBox="0 0 256 256">
  <path d="M107.785,33.965c-34.875,8.972-60.644,40.618-60.644,78.308v53.903c0,4.965-4.035,8.99-8.975,8.99 c-9.929,0-17.978,8.066-17.978,17.971c0,9.924,8.059,17.969,18.013,17.969h179.598c9.948,0,18.014-8.066,18.014-17.969 c0-9.926-8.087-17.971-17.979-17.971c-4.956,0-8.975-3.993-8.975-8.99v-53.903c0-37.676-25.763-69.333-60.644-78.308v-9.281 c0-11.193-9.052-20.219-20.215-20.219c-11.143,0-20.215,9.052-20.215,20.219V33.965L107.785,33.965z M96.554,220.09h62.891 c0,17.366-14.079,31.445-31.445,31.445C110.633,251.535,96.554,237.458,96.554,220.09z"/>
</svg>
