<?xml version="1.0"?>
<svg xmlns="http://www.w3.org/2000/svg" viewBox="0 0 36 36" fill="none">
  <path fill-rule="evenodd" clip-rule="evenodd" d="M2 6V27H13L18 33L23 27H34V6H2ZM23.1 21.05C23.0974 19.5108 22.4841 18.0356 21.3948 16.9482C20.3055 15.8607 18.8292 15.25 17.29 15.25C16.1102 15.2358 14.9546 15.585 13.98 16.25L16.88 19.15L7.62 20.31L8.74 11.05L11.07 13.38L11.19 13.5C12.6156 12.3489 14.3379 11.6246 16.1578 11.411C17.9777 11.1973 19.8208 11.503 21.4743 12.2926C23.1278 13.0822 24.5242 14.3236 25.502 15.8732C26.4798 17.4229 26.9991 19.2176 27 21.05H23.1Z" fill="currentColor"/>
</svg>
