<?xml version="1.0"?>
<svg xmlns="http://www.w3.org/2000/svg" viewBox="0 0 96.5 32">
  <path fill="currentColor" d="M96.477,9.111v3.665l-0.116,0.193l-17.674-0.038l-0.039-0.695
				l0.348-0.038l0.039-0.271l-5.672-0.076v-0.155l-2.354,0.039l-0.463,0.153l-4.09-0.038l0.81,0.155V12.7l-0.193,0.232l-0.887-0.039
				v0.309h-0.657v-1.158h0.155v-0.156l-2.509-0.076l-0.077,0.232l-0.078,0.578c-0.025,0.051-0.051,0.09-0.077,0.116
				c-0.051,0.051-0.116,0.077-0.193,0.077c-0.051-0.025-0.116-0.064-0.193-0.115l-0.154-0.078l0.038-0.541l-0.077-0.231h-0.501
				l-0.04,0.849c-0.025,0.076-0.076,0.128-0.153,0.154l-0.155,0.116h-0.27l-0.231,0.502l-14.24,0.115l-0.27-0.153l-0.348-0.078
				l-0.733,0.27l-0.077-0.965L44.65,12.7l0.038,0.617l-0.038,0.078c-0.026,0.077-0.064,0.141-0.116,0.192
				c-0.052,0.026-0.129,0.052-0.232,0.078l-0.116,0.039c-0.025-0.026-0.065-0.039-0.116-0.039c-0.103,0-0.179,0.051-0.232,0.155
				c-0.052,0.077-0.103,0.154-0.154,0.231l-0.077,0.154v3.28l0.23,0.078l0.039,0.27l-0.502,0.193v1.196
				c0.052,0.927,0.168,1.788,0.348,2.585c0.181,0.798,0.463,1.802,0.849,3.011c0.181,0.618,0.348,1.145,0.502,1.581l0.153,0.194
				l-5.826,1.621h-0.154v-0.155c-0.18-0.617-0.386-1.299-0.618-2.045c-0.438-1.543-0.733-2.688-0.888-3.434
				c-0.153-0.746-0.258-1.518-0.309-2.315l-0.077-1.003l-0.425,0.077l-0.54-0.077h-3.627l-1.196,0.115c-0.052,0-0.116,0-0.192,0
				c-0.181,0-0.323,0.038-0.425,0.116c-0.077,0.077-0.155,0.155-0.232,0.232l-0.848,1.621l0.423,0.502l-0.115,0.076
				c-0.155,0.052-0.335,0.129-0.542,0.231c-0.102,0.052-0.192,0.128-0.269,0.232l-0.078,0.116l-1.66,3.242
				c-0.051,0.102-0.063,0.205-0.038,0.308c0.025,0.077,0.09,0.18,0.193,0.308c0.051,0.051,0.102,0.09,0.154,0.117l-0.154,0.346
				l-5.441-1.273l4.901-8.49c0.051-0.103,0.089-0.218,0.116-0.348c0.103-0.231,0.129-0.462,0.077-0.694
				c-0.077-0.282-0.166-0.514-0.27-0.693c-0.128-0.18-0.27-0.335-0.424-0.463c-0.155-0.103-0.309-0.18-0.463-0.232l-1.235-0.039
				v0.155l-0.348,0.038l-0.038-2.123l-0.965-0.038l-0.039-0.348h-3.897l-0.926,0.695l-3.667,0.078v0.348l-3.203,0.039l0.039,2.006
				H9.763v0.811h-1.08v-0.771l-3.628,2.277v-1.853l-4.592,2.084l-0.038,0.771l-0.039,0.116c-0.052,0.103-0.117,0.154-0.193,0.154
				s-0.128-0.051-0.154-0.154L0,18.758L0.078,8.494h4.09C4.245,8.519,4.296,8.57,4.322,8.648c0.051,0.103,0.09,0.283,0.117,0.54
				l10.535,0.117c0.052,0.026,0.09,0.051,0.115,0.076c0.051,0.052,0.077,0.116,0.077,0.192l8.529,0.04l-0.039-0.348h1.003v-0.27
				l0.347-0.038l0.039,0.269l1.002-0.038V8.725h1.004l0.078,0.078l2.585-4.13l0.115-0.153c0.104-0.129,0.206-0.206,0.31-0.231
				c0.102-0.078,0.232-0.129,0.385-0.155c0.078,0,0.155,0,0.232,0l12.851,1.389l0.385,0.077c0.309,0.103,0.527,0.232,0.656,0.386
				c0.128,0.181,0.257,0.399,0.385,0.656c0.052,0.128,0.104,0.244,0.154,0.348l-0.076,2.508l0.27-0.039l0.038-1.12l0.811,0.155
				V8.223l0.27-0.039c0-0.025,0-0.051,0-0.076c0.026-0.052,0.052-0.091,0.077-0.117c0.051-0.026,0.117-0.051,0.193-0.077
				l14.279,0.231l0.155,0.31V8.84l0.386,0.04l0.077,0.038c0.077,0.051,0.115,0.103,0.115,0.154c0.025,0.103,0.052,0.412,0.078,0.926
				h0.501l0.039-1.504l2.354-3.319l0.231-0.193c0.154-0.129,0.309-0.18,0.463-0.154c0.386,0.051,0.669,0.192,0.849,0.424
				c0.077,0.077,0.115,0.167,0.115,0.27c0,0.051-0.013,0.09-0.038,0.116l0.038,4.36h4.092l0.54,0.193l2.316-0.038V9.998h5.672V8.957
				h17.288L96.477,9.111z M65.566,7.721c-0.077-0.051-0.141-0.115-0.192-0.193c-0.026-0.077-0.078-0.244-0.155-0.501L65.18,6.641
				l-0.888-0.077l-1.389,2.16l0.194,0.155h2.624l0.192-0.232V7.721H65.566z M63.135,9.998h2.469l0.116-0.385h-2.585V9.998z
				 M43.685,6.139H32.879c-0.077,0-0.167,0-0.269,0c-0.181,0.052-0.322,0.116-0.425,0.193c-0.103,0.078-0.219,0.193-0.347,0.347
				l-0.155,0.193l-0.617,1.506l0.231,0.231l12.311-0.078l0.153-0.038c0.104-0.026,0.206-0.078,0.309-0.155
				c0.309-0.206,0.463-0.541,0.463-1.004c0-0.386-0.142-0.694-0.425-0.925c-0.103-0.078-0.206-0.142-0.308-0.193L43.685,6.139z
				 M3.705,13.395L3.55,13.356H0.695l-0.154,0.039c-0.078,0.077-0.116,0.154-0.116,0.231s0.051,0.141,0.154,0.193
				c0.025,0.026,0.064,0.051,0.116,0.077h2.895c0.052-0.026,0.09-0.064,0.116-0.116c0.077-0.077,0.116-0.141,0.116-0.193
				C3.821,13.51,3.782,13.447,3.705,13.395z M0.425,8.84v0.425h3.666c0-0.077-0.013-0.167-0.039-0.27
				c0-0.077-0.039-0.128-0.116-0.155L3.782,8.802L0.425,8.84z M35.89,16.211c-0.103-0.052-0.206-0.089-0.309-0.115h-1.466
				c-0.103,0.076-0.219,0.192-0.348,0.346c-0.206,0.335-0.321,0.643-0.348,0.926c-0.025,0.283,0.066,0.566,0.271,0.849
				c0.103,0.129,0.218,0.233,0.348,0.309l-0.155,0.116c-0.154-0.078-0.321-0.206-0.502-0.386c-0.333-0.309-0.514-0.643-0.54-1.003
				c-0.025-0.231,0.026-0.501,0.155-0.811l0.154-0.346c-0.232,0.025-0.451,0.102-0.657,0.23c-0.462,0.309-0.667,0.759-0.616,1.351
				c0.026,0.335,0.193,0.644,0.501,0.927c0.154,0.154,0.309,0.27,0.463,0.348h3.473v-0.463c0.129-0.103,0.231-0.257,0.309-0.463
				c0.128-0.361,0.103-0.759-0.078-1.196C36.417,16.572,36.199,16.366,35.89,16.211z"/>
</svg>
