<?xml version="1.0"?>
<svg version="1.1" xmlns="http://www.w3.org/2000/svg" viewBox="0 0 36 36" fill="none">
  <g>
    <path d="M5.275 26.414c0-.609.24-1.192.669-1.623a2.275 2.275 0 0 1 3.226 0 2.301 2.301 0 0 1 0 3.245 2.275 2.275 0 0 1-3.226 0 2.301 2.301 0 0 1-.669-1.622Zm2.282-14.532c.605 0 1.186-.242 1.613-.672a2.3 2.3 0 0 0 0-3.245 2.275 2.275 0 0 0-3.226 0 2.3 2.3 0 0 0 0 3.245c.428.43 1.008.672 1.613.672Zm0 8.413c.605 0 1.186-.242 1.613-.672a2.3 2.3 0 0 0 0-3.245 2.275 2.275 0 0 0-3.226 0 2.3 2.3 0 0 0 0 3.245c.428.43 1.008.672 1.613.672Zm7.606-9.178h15.443a1.52 1.52 0 0 0 1.317-.765 1.537 1.537 0 0 0 0-1.53 1.52 1.52 0 0 0-1.317-.764H15.163a1.52 1.52 0 0 0-1.318.765 1.537 1.537 0 0 0 0 1.53 1.52 1.52 0 0 0 1.318.764Zm0 8.413h15.443a1.52 1.52 0 0 0 1.317-.764 1.537 1.537 0 0 0 0-1.53 1.52 1.52 0 0 0-1.317-.765H15.163a1.52 1.52 0 0 0-1.318.765 1.537 1.537 0 0 0 0 1.53 1.52 1.52 0 0 0 1.318.764Zm0 8.414h15.443a1.52 1.52 0 0 0 1.317-.765 1.537 1.537 0 0 0 0-1.53 1.52 1.52 0 0 0-1.317-.765H15.163a1.52 1.52 0 0 0-1.318.765 1.537 1.537 0 0 0 0 1.53 1.52 1.52 0 0 0 1.318.765Z"/>
  </g>
</svg>
