<?xml version="1.0"?>
<svg xmlns="http://www.w3.org/2000/svg" viewBox="0 0 36 36" fill="none">
  <path d="M31.67 24.17C30.6721 26.383 29.1521 28.3207 27.2404 29.8168C25.3287 31.3129 23.0824 32.3227 20.6945 32.7594C18.3065 33.1961 15.8483 33.0468 13.5308 32.3242C11.2133 31.6016 9.10579 30.3273 7.38926 28.6107C5.67272 26.8942 4.39844 24.7867 3.67583 22.4692C2.95322 20.1517 2.80387 17.6935 3.24061 15.3055C3.67734 12.9176 4.68711 10.6713 6.18321 8.75962C7.6793 6.8479 9.61703 5.32786 11.83 4.33C10.9479 6.26701 10.4942 8.37159 10.5 10.5C10.5 14.4782 12.0804 18.2936 14.8934 21.1066C17.7064 23.9196 21.5218 25.5 25.5 25.5C27.6284 25.5058 29.733 25.0521 31.67 24.17ZM27.41 8.59L25 4L22.59 8.59L18 11L22.59 13.41L25 18L27.41 13.41L32 11L27.41 8.59Z" fill="currentColor"/>
</svg>
