<?xml version="1.0"?>
<svg xmlns="http://www.w3.org/2000/svg" viewBox="0 0 36 36" fill="none">
  <path d="M35.41 25.41L28 32.83L20.59 25.41L23.41 22.59L26 25.17V7H30V25.17L32.59 22.59L35.41 25.41ZM22 14C22 15.9778 21.4135 17.9112 20.3147 19.5557C19.2159 21.2002 17.6541 22.4819 15.8268 23.2388C13.9996 23.9957 11.9889 24.1937 10.0491 23.8079C8.10929 23.422 6.32746 22.4696 4.92894 21.0711C3.53041 19.6725 2.578 17.8907 2.19215 15.9509C1.8063 14.0111 2.00433 12.0004 2.76121 10.1732C3.51809 8.3459 4.79981 6.78412 6.4443 5.6853C8.08879 4.58649 10.0222 4 12 4C14.6522 4 17.1957 5.05357 19.0711 6.92893C20.9464 8.8043 22 11.3478 22 14ZM17.41 16.59L14 13.17V8H10V14.83L14.59 19.41L17.41 16.59Z" fill="currentColor"/>
</svg>
