<?xml version="1.0"?>
<svg xmlns="http://www.w3.org/2000/svg" viewBox="0 0 68.25 32">
  <path fill="currentColor" d="M67.858,6.396c0.128,0.28,0.191,0.572,0.191,0.877
				c0,0.202,0,0.368,0,0.496c-0.026,0.127-0.038,0.266-0.038,0.419c0,0.025-0.012,0.049-0.037,0.076
				c-0.053,0-0.076,0.025-0.076,0.075c0,0.026-0.012,0.206-0.04,0.535c0,0.304-0.012,0.621-0.039,0.953
				c-0.023,0.355-0.037,0.685-0.037,0.992c-0.026,0.329-0.039,0.532-0.039,0.607v0.268h-2.362c0,0.025-0.038,0.114-0.114,0.267
				c-0.025,0-0.064,0.011-0.113,0.036c-0.053,0-0.203,0.014-0.459,0.04c-0.228,0.024-0.583,0.038-1.066,0.038s-1.156,0-2.019,0
				c-0.458,0-0.89-0.014-1.296-0.038c-0.381-0.026-0.747-0.04-1.105-0.04H58.22c-0.205,0-0.394,0.026-0.573,0.078
				c-0.354,0.05-0.71,0.204-1.065,0.456c-0.407,0.305-0.749,0.61-1.027,0.915c-0.256,0.331-0.396,0.583-0.42,0.761
				c-0.052,0.281-0.078,0.547-0.078,0.802c0,0.227,0,0.379,0,0.456c0.179,0.28,0.203,0.47,0.078,0.571
				c-0.101,0.128-0.191,0.229-0.267,0.306v0.114c-0.076,0.078-0.268,0.153-0.572,0.229c-0.28,0.053-0.61,0.141-0.99,0.268
				c-0.383,0.127-0.839,0.254-1.373,0.38c-0.33,0.076-0.787,0.103-1.372,0.076c-0.583,0-1.397-0.101-2.438-0.305
				c-0.534-0.075-0.927-0.075-1.181,0c-0.304,0.077-0.546,0.179-0.725,0.305c-0.176,0.128-0.292,0.268-0.342,0.419l-1.523,5.26
				c0,0.025-0.013,0.049-0.038,0.076v0.15c0,0.153,0.014,0.37,0.038,0.648c0.051,0.304,0.115,0.738,0.19,1.296v0.608
				c0,0.635-0.127,1.131-0.381,1.486c-0.128,0.102-0.253,0.166-0.382,0.192c-0.126,0.025-0.202,0.037-0.228,0.037h-5.335
				l-0.038-0.076c-0.049,0-0.114-0.012-0.189-0.038c-0.051,0-0.103-0.013-0.152-0.039c-0.077,0-0.167-0.026-0.267-0.077
				c-0.305-0.176-0.458-0.557-0.458-1.142c0-0.101,0.026-0.19,0.076-0.265c0.027-0.079,0.041-0.154,0.041-0.23
				c-0.765-0.027-1.272-0.088-1.525-0.19c-0.255-0.076-0.42-0.166-0.495-0.267v-0.152c-0.052-0.025-0.076-0.077-0.076-0.153
				c0-0.076,0-0.128,0-0.151c-0.026-0.052-0.041-0.115-0.041-0.19c-0.051-0.128-0.075-0.292-0.075-0.497v-0.381
				c0-0.508,0.063-1.029,0.191-1.561c0.15-0.533,0.227-0.813,0.227-0.838h0.039v-0.039c0.051-0.076,0.216-0.469,0.495-1.18
				c0.278-0.687,0.61-1.449,0.989-2.287c0.358-0.837,0.699-1.611,1.03-2.322c0.305-0.711,0.495-1.132,0.57-1.259
				c0.052-0.203,0.078-0.38,0.078-0.533c0-0.304-0.115-0.647-0.343-1.027c-0.152-0.305-0.432-0.495-0.836-0.574
				c-0.358-0.074-0.688-0.15-0.993-0.228c-0.305,0-0.52-0.024-0.646-0.076c-0.18-0.127-0.269-0.317-0.269-0.572v-0.076
				c0-0.227,0.065-0.405,0.191-0.534c0.154-0.127,0.332-0.19,0.534-0.19c0.076-0.101,0.153-0.154,0.229-0.154
				c0.051,0,0.115-0.009,0.19-0.036c0.151-0.078,0.368-0.281,0.648-0.61l0.152-0.152c0.202-0.229,0.368-0.521,0.495-0.876
				c0.126-0.381,0.189-0.66,0.189-0.838c0-0.024-0.037-0.23-0.114-0.61c-0.076-0.355-0.115-0.61-0.115-0.763V6.284
				c0.078-0.255,0.192-0.394,0.344-0.421c0.126-0.126,0.304-0.153,0.533-0.075c0.129,0.05,0.292,0.102,0.494,0.152
				c0.205,0.05,0.345,0.077,0.422,0.077c0.1-0.051,0.189-0.077,0.265-0.077c0.101-0.026,0.203-0.077,0.306-0.152
				c0.153-0.026,0.292-0.064,0.418-0.115c0.102-0.024,0.203-0.062,0.306-0.114c0.101-0.052,0.203-0.075,0.304-0.075h0.114V4.758
				h0.231c0.609,0.026,0.976,0.063,1.104,0.115c0.102,0.049,0.164,0.125,0.19,0.227c0.051,0.076,0.076,0.154,0.076,0.229
				c0,0.101,0.012,0.229,0.038,0.38h1.829c0.432,0,0.938-0.011,1.524-0.038c0.915,0,1.626,0,2.132,0c0.535,0,0.915,0,1.144,0
				c0.229,0.026,0.381,0.038,0.459,0.038h0.075c0.178,0.101,0.266,0.203,0.266,0.307h14.745V5.978c0-0.079,0.025-0.128,0.076-0.152
				c0.051-0.051,0.103-0.089,0.154-0.116c0.074-0.023,0.113-0.049,0.113-0.076c0.026-0.023,0.077-0.1,0.151-0.229
				c0.206-0.177,0.484-0.239,0.839-0.19c0.304,0.026,0.495,0.051,0.573,0.077l0.151,0.078l0.114,0.114
				c0.177,0.075,0.279,0.215,0.305,0.416C67.77,6.105,67.807,6.271,67.858,6.396z M48.847,12.53
				c-0.279,0.026-0.432,0.039-0.458,0.039c-0.05,0-0.076,0.013-0.076,0.037h-0.114c-0.176,0.079-0.407,0.19-0.685,0.343
				c-0.253,0.153-0.42,0.356-0.495,0.611c-0.077,0.278-0.115,0.494-0.115,0.646c0,0.382,0.049,0.624,0.153,0.724v0.038h0.076
				c0.024,0.102,0.216,0.292,0.572,0.573l0.114,0.038c0.254,0.177,0.685,0.342,1.295,0.496c0.583,0.154,1.246,0.177,1.982,0.075
				c1.751-0.229,2.679-0.672,2.781-1.333c0.075-0.151,0.114-0.329,0.114-0.534c0-0.303-0.089-0.609-0.266-0.913
				c-0.179-0.33-0.508-0.61-0.992-0.839c-0.482,0-0.978,0-1.485,0c-0.482,0-0.927,0-1.334,0C49.506,12.53,49.152,12.53,48.847,12.53
				z M32.627,5.404c0.204,0.026,0.33,0.141,0.381,0.345c0.05,0.229,0.075,0.406,0.075,0.535c0.178,0.304,0.267,0.608,0.267,0.914
				c0,0.178-0.024,0.328-0.075,0.456c-0.026,0.128-0.051,0.268-0.076,0.418v0.154c0,0.025-0.014,0.19-0.039,0.496
				c-0.024,0.33-0.05,0.66-0.077,0.99c0,0.381-0.025,0.712-0.075,0.99c-0.025,0.306-0.039,0.497-0.039,0.574v0.266h-2.286
				c-0.052,0.049-0.076,0.103-0.076,0.152c0,0.025-0.038,0.076-0.114,0.151l-0.076,0.038c-0.078,0-0.23,0.013-0.458,0.039
				c-0.23,0.026-0.584,0.039-1.066,0.039c-0.458,0-1.131,0-2.018,0c-0.434,0-0.852-0.013-1.26-0.039
				c-0.406-0.026-0.776-0.039-1.104-0.039h-1.106c-0.151,0-0.316,0.026-0.495,0.078c-0.406,0.076-0.788,0.23-1.144,0.456
				c-0.406,0.305-0.735,0.61-0.989,0.915c-0.255,0.33-0.394,0.583-0.42,0.762c-0.05,0.278-0.076,0.545-0.076,0.799
				c0,0.229,0.025,0.381,0.076,0.458c0.103,0.278,0.116,0.482,0.04,0.609c-0.102,0.128-0.192,0.215-0.268,0.269v0.074
				c-0.075,0.076-0.266,0.152-0.571,0.23c-0.305,0.099-0.635,0.204-0.991,0.302c-0.356,0.102-0.687,0.193-0.991,0.268l-0.42,0.114
				c-0.329,0.077-0.787,0.102-1.37,0.077c-0.584-0.052-1.423-0.165-2.514-0.342c-0.508-0.078-0.901-0.078-1.182,0
				c-0.279,0.101-0.494,0.215-0.648,0.342c-0.126,0.126-0.228,0.268-0.303,0.419L9.578,22.97v0.229c0,0.152,0,0.367,0,0.647
				c0,0.305,0.036,0.736,0.113,1.294c0.077,0.153,0.115,0.371,0.115,0.649c0,0.659-0.139,1.13-0.419,1.409
				c-0.152,0.151-0.279,0.228-0.381,0.228c-0.077,0.025-0.139,0.039-0.19,0.039H3.444c0-0.025-0.205-0.115-0.611-0.267
				c-0.177-0.076-0.292-0.215-0.342-0.419c-0.051-0.228-0.077-0.456-0.077-0.685v-0.496c-0.66-0.026-1.118-0.076-1.372-0.152
				c-0.024-0.025-0.051-0.038-0.075-0.038c-0.254-0.101-0.418-0.189-0.497-0.269c-0.024-0.023-0.037-0.074-0.037-0.152
				c-0.051-0.026-0.076-0.075-0.076-0.151v-0.304c-0.024-0.152-0.038-0.331-0.038-0.534c0-0.077-0.013-0.14-0.039-0.19
				c-0.025-0.078-0.037-0.154-0.037-0.23c0-0.507,0.063-1.015,0.189-1.522c0.127-0.509,0.191-0.801,0.191-0.878v-0.077
				c0.052-0.023,0.191-0.304,0.418-0.836c0.026-0.076,0.064-0.166,0.116-0.268c0.305-0.709,0.646-1.484,1.028-2.322
				c0.355-0.84,0.699-1.626,1.027-2.362c0.305-0.711,0.495-1.107,0.573-1.182c0.05-0.279,0.076-0.458,0.076-0.535
				c0-0.329-0.102-0.672-0.305-1.027c-0.153-0.306-0.419-0.495-0.8-0.573c-0.38-0.075-0.737-0.138-1.066-0.189
				c-0.254,0-0.459-0.038-0.612-0.114l-0.038-0.038c-0.152-0.178-0.228-0.357-0.228-0.534v-0.038c0-0.253,0.052-0.431,0.152-0.533
				c0.024-0.026,0.051-0.052,0.075-0.078c0.153-0.125,0.333-0.19,0.536-0.19c0.076-0.049,0.138-0.075,0.189-0.075
				c0.076,0,0.138-0.014,0.19-0.039c0.152-0.076,0.368-0.278,0.647-0.609l0.114-0.189c0.203-0.204,0.371-0.496,0.495-0.877
				c0.128-0.354,0.204-0.624,0.231-0.799c0-0.103-0.041-0.307-0.117-0.61C3.278,6.729,3.252,6.474,3.252,6.322V6.168
				c0.052-0.229,0.14-0.368,0.266-0.419C3.694,5.648,3.875,5.634,4.052,5.71C4.18,5.736,4.356,5.788,4.586,5.863
				c0.228,0.05,0.38,0.077,0.455,0.077L5.576,5.71c0.128-0.023,0.255-0.076,0.381-0.151C6.059,5.506,6.173,5.47,6.301,5.444
				c0.075-0.025,0.189-0.04,0.343-0.04h0.037V4.646h0.266c0.586,0.025,0.94,0.062,1.068,0.113c0.127,0.026,0.19,0.076,0.19,0.152
				c0.077,0.23,0.116,0.458,0.116,0.687c0.101,0,0.342,0,0.723,0c0.356,0,0.737-0.013,1.142-0.039c0.433,0,0.94-0.025,1.524-0.075
				c0.915,0,1.625,0.012,2.134,0.036c0.507,0.026,0.876,0.04,1.104,0.04c0.23,0,0.37,0,0.421,0c0.051,0.026,0.1,0.039,0.152,0.039
				c0.076,0.075,0.15,0.19,0.229,0.342H30.57V5.863c0-0.075,0.051-0.164,0.15-0.265c0.026-0.079,0.064-0.114,0.114-0.114
				c0.079-0.025,0.141-0.09,0.191-0.192c0.18-0.202,0.445-0.279,0.802-0.229c0.355,0.05,0.57,0.102,0.646,0.151l0.076,0.04
				L32.627,5.404z M16.471,12.379c-0.482,0-0.927,0-1.331,0c-0.406,0-0.763,0.011-1.068,0.037c-0.279,0-0.433,0-0.458,0l-0.19,0.076
				c-0.177,0.078-0.404,0.179-0.686,0.305c-0.252,0.179-0.418,0.383-0.495,0.611c-0.075,0.153-0.113,0.369-0.113,0.647
				c0,0.381,0.051,0.623,0.151,0.724l0.077,0.077c0.052,0.075,0.114,0.14,0.189,0.189c0.077,0.052,0.205,0.179,0.382,0.38
				l0.153,0.04c0.228,0.153,0.649,0.305,1.255,0.456c0.61,0.154,1.259,0.18,1.944,0.078c1.754-0.281,2.705-0.71,2.859-1.295
				c0.051-0.127,0.074-0.318,0.074-0.572c0-0.279-0.088-0.571-0.266-0.875c-0.177-0.331-0.508-0.624-0.99-0.876
				C17.477,12.379,16.98,12.379,16.471,12.379z"/>
</svg>
