<?xml version="1.0"?>
<svg version="1.1" xmlns="http://www.w3.org/2000/svg" x="0px" y="0px" width="256px" height="256px" viewBox="0 0 256 256">
  <path fill="none" stroke="#000000" stroke-width="10" stroke-miterlimit="10" d="M238,210c0,6.627-5.373,12-12,12H30 c-6.627,0-12-5.373-12-12V46c0-6.627,5.373-12,12-12h196c6.627,0,12,5.373,12,12V210z"/>
  <path d="M90.505,173.207c11.431,0,22.338-4.276,30.72-12.036c2.6-2.407,2.753-6.47,0.347-9.068c-2.41-2.604-6.47-2.757-9.072-0.349 c-5.998,5.559-13.811,8.62-21.995,8.62c-17.852,0-32.373-14.524-32.373-32.372c0-17.849,14.521-32.373,32.373-32.373 c8.177,0,15.981,3.055,21.979,8.603c2.603,2.407,6.662,2.25,9.072-0.353c2.407-2.602,2.249-6.662-0.353-9.068 c-8.375-7.751-19.276-12.019-30.694-12.019c-24.931,0-45.209,20.281-45.209,45.209C45.3,152.93,65.574,173.207,90.505,173.207z"/>
  <path d="M177.926,173.207c11.431,0,22.338-4.276,30.721-12.036c2.6-2.407,2.754-6.47,0.347-9.068 c-2.41-2.604-6.47-2.757-9.072-0.349c-5.998,5.559-13.812,8.62-21.995,8.62c-17.852,0-32.372-14.524-32.372-32.372 c0-17.849,14.521-32.373,32.372-32.373c8.178,0,15.981,3.055,21.979,8.603c2.604,2.407,6.663,2.25,9.072-0.353 c2.407-2.602,2.25-6.662-0.353-9.068c-8.375-7.751-19.277-12.019-30.694-12.019c-24.932,0-45.209,20.281-45.209,45.209 C132.721,152.93,152.996,173.207,177.926,173.207z"/>
</svg>
