<?xml version="1.0"?>
<svg width="36" height="36" viewBox="0 0 36 36" fill="none" xmlns="http://www.w3.org/2000/svg">
  <path d="M33.63 8.04999L30.11 20.81C29.9416 21.453 29.5645 22.0218 29.0378 22.4273C28.5111 22.8327 27.8647 23.0517 27.2 23.05H14.75C14.1022 23.0506 13.4715 22.8415 12.9524 22.454C12.4333 22.0664 12.0536 21.5213 11.87 20.9L7.56 8.04999H2V4.04999H8.28C8.90845 4.05116 9.52067 4.24967 10.0302 4.61749C10.5398 4.98532 10.921 5.50388 11.12 6.09999L11.78 8.09999L33.63 8.04999ZM15 27.05C14.5055 27.05 14.0222 27.1966 13.6111 27.4713C13.2 27.746 12.8795 28.1365 12.6903 28.5933C12.5011 29.0501 12.4516 29.5528 12.548 30.0377C12.6445 30.5227 12.8826 30.9681 13.2322 31.3178C13.5819 31.6674 14.0273 31.9055 14.5123 32.002C14.9972 32.0984 15.4999 32.0489 15.9567 31.8597C16.4135 31.6705 16.804 31.35 17.0787 30.9389C17.3534 30.5278 17.5 30.0444 17.5 29.55C17.5 28.8869 17.2366 28.2511 16.7678 27.7822C16.2989 27.3134 15.663 27.05 15 27.05ZM27 27.05C26.5055 27.05 26.0222 27.1966 25.6111 27.4713C25.2 27.746 24.8795 28.1365 24.6903 28.5933C24.5011 29.0501 24.4516 29.5528 24.548 30.0377C24.6445 30.5227 24.8826 30.9681 25.2322 31.3178C25.5819 31.6674 26.0273 31.9055 26.5123 32.002C26.9972 32.0984 27.4999 32.0489 27.9567 31.8597C28.4135 31.6705 28.804 31.35 29.0787 30.9389C29.3534 30.5278 29.5 30.0444 29.5 29.55C29.5 28.8869 29.2366 28.2511 28.7678 27.7822C28.2989 27.3134 27.663 27.05 27 27.05Z" fill="currentColor"/>
</svg>
