<?xml version="1.0"?>
<svg xmlns="http://www.w3.org/2000/svg" version="1.1" viewBox="0 0 1200 1200">
  <g>
    <path d="m895.2 600-283.2 283.2c-44.398 44.398-44.398 116.4 0 160.8 44.398 44.398 116.4 44.398 160.8 0l363.6-363.6c21.602-21.602 33.602-50.398 33.602-80.398s-12-58.801-33.602-80.398l-363.6-363.6c-22.801-22.801-51.602-33.602-80.398-33.602-28.801 0-57.602 12-80.402 33.602-44.398 44.398-44.398 116.4 0 160.8z"/>
    <path d="m346.8 600-283.2 283.2c-44.398 44.398-44.398 116.4 0 160.8 44.398 44.398 116.4 44.398 160.8 0l363.6-363.6c21.602-21.602 33.602-50.398 33.602-80.398s-12-58.801-33.602-80.398l-363.6-363.6c-22.801-22.801-51.602-33.602-80.398-33.602-28.801 0-58.801 12-80.398 33.602-44.398 44.398-44.398 116.4 0 160.8z"/>
  </g>
</svg>
