<?xml version="1.0"?>
<svg xmlns="http://www.w3.org/2000/svg" viewBox="0 0 36 36" fill="none">
  <path fill="currentColor" d="M29.876 12.7793C30.3487 13.8507 30.6795 14.9866 30.8496 16.1602L34 18.0498L30.8496 19.9404C30.4415 22.7017 29.1554 25.2587 27.1816 27.2324C25.2079 29.2061 22.6509 30.4924 19.8896 30.9004L18 34.0498L16.1504 30.9404C14.9565 30.7673 13.8006 30.4284 12.7129 29.9424L19.0635 23.5918C20.1497 23.324 21.1456 22.7655 21.9404 21.9707C22.7352 21.1759 23.2937 20.1799 23.5615 19.0938L29.876 12.7793ZM33.8281 4.82812L4.95801 33.6982L1.25586 29.9961L6.72852 24.5225C5.92486 23.1163 5.38579 21.5635 5.15039 19.9404L2 18.0498L5.11035 16.2002C5.51264 13.4257 6.80084 10.8554 8.7832 8.87305C10.7656 6.89074 13.3359 5.60248 16.1104 5.2002L18 2.0498L19.8496 5.16016C21.4924 5.39835 23.0626 5.94883 24.4824 6.76855L30.126 1.12598L33.8281 4.82812ZM17.3496 12.3203C16.1033 12.5381 14.9543 13.1347 14.0596 14.0293C13.1648 14.9241 12.5674 16.0737 12.3496 17.3203L12.0117 19.2393L19.2617 11.9893L17.3496 12.3203Z"/>
</svg>
