<?xml version="1.0"?>
<svg version="1.1" id="Layer_1" xmlns="http://www.w3.org/2000/svg" x="0px" y="0px" viewBox="0 0 32 32" enable-background="new 0 0 32 32">
  <path fill="white" d="M24.68,19.53l6.9-5.69c0.98-0.81,0.47-2.39-0.81-2.46l-8.89-0.54c-0.54-0.03-1.01-0.37-1.21-0.88L17.4,1.61
			c-0.47-1.18-2.12-1.18-2.59,0l-3.27,8.32c-0.2,0.51-0.67,0.84-1.21,0.88l-8.92,0.54c-1.28,0.07-1.78,1.65-0.81,2.46l6.9,5.66
			c0.4,0.34,0.61,0.91,0.47,1.41l-2.26,8.65c-0.3,1.21,1.01,2.19,2.09,1.52l7.51-4.81c0.47-0.3,1.04-0.3,1.48,0l7.54,4.81
			c1.08,0.67,2.39-0.3,2.09-1.52l-2.26-8.62C24.07,20.4,24.24,19.86,24.68,19.53z"/>
</svg>
