<?xml version="1.0"?>
<svg xmlns="http://www.w3.org/2000/svg" viewBox="0 0 36 36" fill="none">
  <path fill-rule="evenodd" clip-rule="evenodd" d="M16.48 35.05V29.35L16.51 29.34C13.4035 28.995 10.5086 27.5974 8.30636 25.3795C6.10411 23.1615 4.72712 20.2568 4.40423 17.1479C4.08134 14.039 4.83199 10.9133 6.53143 8.29011C8.23087 5.66691 10.7768 3.70423 13.7461 2.72822C16.7153 1.7522 19.9292 1.82163 22.8536 2.92496C25.7779 4.02829 28.2367 6.09909 29.8213 8.79322C31.4058 11.4874 32.0208 14.6426 31.564 17.7346C31.1071 20.8266 29.606 23.6692 27.31 25.79L16.48 35.05ZM10.36 15.65L15.77 21.05L25.39 11.43L23 9.04999L15.77 16.28L12.75 13.26L10.36 15.65Z" fill="currentColor"/>
</svg>
