<?xml version="1.0"?>
<svg width="23" height="25" viewBox="0 0 23 25" fill="none" xmlns="http://www.w3.org/2000/svg">
  <path d="M4.69484 16.275V10.9611C4.69484 10.8919 4.72235 10.8255 4.77132 10.7765C4.82028 10.7275 4.8867 10.7 4.95595 10.7H6.70039C7.00391 10.6976 7.30673 10.7293 7.60317 10.7945C7.86613 10.8506 8.11537 10.9582 8.33651 11.1111C8.54843 11.2597 8.71945 11.4594 8.83373 11.6917C8.96393 11.9704 9.02673 12.2759 9.01706 12.5833C9.02406 12.8888 8.96136 13.1919 8.83373 13.4695C8.71807 13.7108 8.54784 13.9219 8.33651 14.0861C8.12019 14.2512 7.87401 14.3729 7.61151 14.4445C7.32667 14.5238 7.03217 14.563 6.73651 14.5611H6.26984C6.20107 14.5619 6.13537 14.5897 6.087 14.6386C6.03863 14.6875 6.0115 14.7535 6.01151 14.8222V16.2778C6.01151 16.347 5.984 16.4135 5.93503 16.4624C5.88606 16.5114 5.81965 16.5389 5.75039 16.5389H4.95595C4.92143 16.5389 4.88724 16.5321 4.85538 16.5188C4.82352 16.5055 4.79461 16.486 4.77033 16.4614C4.74604 16.4369 4.72687 16.4078 4.71391 16.3758C4.70095 16.3438 4.69447 16.3095 4.69484 16.275ZM6.01151 13.25C6.0115 13.3188 6.03863 13.3848 6.087 13.4337C6.13537 13.4826 6.20107 13.5104 6.26984 13.5111H6.65595C7.37076 13.5111 7.72817 13.2009 7.72817 12.5806C7.74184 12.4583 7.72341 12.3345 7.6747 12.2215C7.62599 12.1085 7.54868 12.0102 7.4504 11.9361C7.1968 11.7937 6.90728 11.7281 6.61706 11.7472H6.26984C6.20107 11.748 6.13537 11.7758 6.087 11.8247C6.03863 11.8736 6.0115 11.9396 6.01151 12.0084V13.25Z" fill="white"/>
  <path d="M11.3615 16.6417C10.9725 16.6403 10.5869 16.5697 10.2226 16.4334C9.93059 16.3269 9.65765 16.174 9.41429 15.9806C9.38607 15.9594 9.36245 15.9327 9.34485 15.9021C9.32725 15.8715 9.31603 15.8376 9.31187 15.8026C9.30772 15.7675 9.31072 15.732 9.32068 15.6981C9.33064 15.6643 9.34737 15.6328 9.36984 15.6056L9.78929 15.0917C9.83025 15.0411 9.889 15.008 9.95353 14.9992C10.0181 14.9904 10.0835 15.0066 10.1365 15.0445C10.2956 15.1588 10.4659 15.2565 10.6448 15.3361C10.879 15.4453 11.1338 15.503 11.3921 15.5056C11.6097 15.5234 11.8272 15.4698 12.0115 15.3528C12.076 15.3059 12.128 15.2439 12.1629 15.1722C12.1977 15.1005 12.2144 15.0214 12.2115 14.9417C12.2138 14.8609 12.1936 14.7811 12.1532 14.7111C12.111 14.6405 12.053 14.5806 11.9837 14.5361C11.8965 14.4784 11.8034 14.43 11.706 14.3917L11.3615 14.2445L10.6226 13.9222C10.4687 13.8616 10.3224 13.7833 10.1865 13.6889C10.0391 13.5959 9.90538 13.4828 9.78929 13.3528C9.67576 13.2204 9.58643 13.069 9.5254 12.9056C9.45716 12.7217 9.42418 12.5266 9.42818 12.3306C9.43275 12.1002 9.48774 11.8736 9.58929 11.6667C9.69168 11.453 9.83847 11.2636 10.0198 11.1111C10.2145 10.9475 10.4377 10.8213 10.6782 10.7389C10.9462 10.6466 11.228 10.6006 11.5115 10.6028C11.857 10.6045 12.1991 10.6715 12.5198 10.8C12.7638 10.8972 12.9914 11.0312 13.1948 11.1972C13.2462 11.2428 13.2789 11.3057 13.2866 11.374C13.2943 11.4422 13.2764 11.5108 13.2365 11.5667L12.8726 12.0139C12.833 12.0643 12.7759 12.0981 12.7126 12.1083C12.6493 12.1186 12.5845 12.1048 12.531 12.0695C12.4099 11.9884 12.2815 11.9186 12.1476 11.8611C11.9458 11.779 11.7294 11.7384 11.5115 11.7417C11.3163 11.7282 11.1219 11.7769 10.956 11.8806C10.8919 11.9227 10.8399 11.9806 10.8048 12.0487C10.7698 12.1169 10.7529 12.1929 10.756 12.2695C10.7537 12.3505 10.777 12.4302 10.8226 12.4972C10.8731 12.5653 10.9363 12.6228 11.0087 12.6667C11.0975 12.7218 11.1904 12.7701 11.2865 12.8111L11.6365 12.9584L12.3865 13.2611C12.7093 13.3858 12.9957 13.5892 13.2198 13.8528C13.437 14.1374 13.5462 14.4897 13.5282 14.8472C13.5291 15.0857 13.4789 15.3215 13.381 15.5389C13.2905 15.7549 13.1562 15.9497 12.9865 16.1111C12.7803 16.2816 12.5437 16.4117 12.2893 16.4945C11.991 16.5975 11.677 16.6474 11.3615 16.6417Z" fill="white"/>
  <path d="M14.2003 16.275V10.9611C14.2003 10.8924 14.2275 10.8264 14.2758 10.7775C14.3242 10.7286 14.3899 10.7008 14.4587 10.7H15.8476C16.2566 10.6955 16.6639 10.7526 17.0559 10.8695C17.3969 10.9728 17.7108 11.1502 17.9753 11.3889C18.24 11.6387 18.4426 11.9469 18.567 12.2889C18.7124 12.7056 18.7821 13.1449 18.7725 13.5861C18.7813 14.03 18.7117 14.472 18.567 14.8917C18.4447 15.2376 18.2452 15.551 17.9837 15.8084C17.7297 16.058 17.4231 16.2478 17.0864 16.3639C16.7092 16.488 16.3141 16.549 15.917 16.5445H14.4587C14.4239 16.5441 14.3895 16.5368 14.3576 16.523C14.3257 16.5092 14.2969 16.4892 14.2728 16.4641C14.2488 16.439 14.23 16.4093 14.2175 16.3769C14.2051 16.3444 14.1992 16.3098 14.2003 16.275ZM15.5142 15.4695H15.7642C15.9985 15.4747 16.2321 15.4418 16.4559 15.3722C16.652 15.3101 16.8303 15.2015 16.9753 15.0556C17.1218 14.8888 17.229 14.6914 17.2892 14.4778C17.3762 14.1907 17.4166 13.8916 17.4087 13.5917C17.4164 13.2964 17.3761 13.0018 17.2892 12.7195C17.2226 12.5103 17.1075 12.3199 16.9531 12.1639C16.8157 12.0212 16.6448 11.9152 16.4559 11.8556C16.2346 11.7928 16.0053 11.7629 15.7753 11.7667H15.5253L15.5142 15.4695Z" fill="white"/>
  <path d="M22.0115 5.65L17.5448 0.763889C17.325 0.523608 17.0577 0.331628 16.7598 0.200128C16.4619 0.0686279 16.1399 0.000477439 15.8143 0H3.18649C2.56493 0.000735139 1.96903 0.247974 1.52952 0.687484C1.09002 1.12699 0.842776 1.72288 0.842041 2.34444V22.6556C0.842776 23.2771 1.09002 23.873 1.52952 24.3125C1.96903 24.752 2.56493 24.9993 3.18649 25H20.2809C20.9025 24.9993 21.4984 24.752 21.9379 24.3125C22.3774 23.873 22.6246 23.2771 22.6254 22.6556V7.22222C22.6236 6.64001 22.4047 6.0794 22.0115 5.65ZM20.5309 6.34722H17.6532C17.5498 6.34686 17.4476 6.32606 17.3523 6.28601C17.257 6.24596 17.1706 6.18745 17.0981 6.11387C17.0255 6.04028 16.9683 5.95306 16.9296 5.85724C16.8909 5.76142 16.8715 5.65889 16.8726 5.55556V2.34444L20.5309 6.34722ZM20.2809 23.4389H3.18649C2.97873 23.4389 2.77949 23.3564 2.63259 23.2095C2.48568 23.0626 2.40315 22.8633 2.40315 22.6556V2.34444C2.40315 2.13669 2.48568 1.93745 2.63259 1.79054C2.77949 1.64364 2.97873 1.56111 3.18649 1.56111H15.3087V5.55556C15.3094 6.17712 15.5567 6.77301 15.9962 7.21252C16.4357 7.65203 17.0316 7.89926 17.6532 7.9H21.0643V22.6556C21.0635 22.8631 20.9808 23.0619 20.834 23.2086C20.6873 23.3554 20.4885 23.4382 20.2809 23.4389Z" fill="white"/>
</svg>
