<?xml version="1.0"?>
<svg version="1.1" xmlns="http://www.w3.org/2000/svg" viewBox="0 0 36 36" fill="none">
  <g>
    <path d="M13.948 16.215V9h3.67v17.598h-3.67v-7.215H5.953v7.215H2.258V9h3.695v7.215h7.995ZM33.198 9v3.143h-7.692v4.122a5.22 5.22 0 0 1 1.634-.653c.62-.151 1.24-.226 1.86-.226 1.575 0 2.832.452 3.77 1.357.956.888 1.434 2.187 1.434 3.897 0 1.273-.302 2.388-.905 3.343-.587.956-1.45 1.701-2.59 2.238-1.122.52-2.455.779-3.997.779-1.14 0-2.204-.15-3.192-.453-.99-.301-1.81-.729-2.464-1.282l1.307-2.815a7.513 7.513 0 0 0 4.299 1.307c1.19 0 2.112-.26 2.765-.78.654-.519.98-1.265.98-2.237 0-.854-.25-1.508-.753-1.96-.486-.453-1.157-.68-2.012-.68-.636 0-1.223.11-1.76.327a5.755 5.755 0 0 0-1.583.93l-2.338-1.282V9h11.237Z"/>
  </g>
</svg>
