<?xml version="1.0"?>
<svg viewBox="0 0 36 36" fill="none" xmlns="http://www.w3.org/2000/svg">
  <path fill-rule="evenodd" clip-rule="evenodd" d="M34 9.9H2C1.44772 9.9 1 10.3029 1 10.8V24.3C1 25.2941 1.89543 26.1 3 26.1H33C34.1046 26.1 35 25.2941 35 24.3V10.8C35 10.3029 34.5523 9.9 34 9.9ZM2 9C0.895431 9 0 9.80589 0 10.8V24.3C0 25.7912 1.34315 27 3 27H33C34.6569 27 36 25.7912 36 24.3V10.8C36 9.80589 35.1046 9 34 9H2ZM32 16C32 16.5523 31.5523 17 31 17C30.4477 17 30 16.5523 30 16C30 15.4477 30.4477 15 31 15C31.5523 15 32 15.4477 32 16ZM31 13C31.5523 13 32 12.5523 32 12C32 11.4477 31.5523 11 31 11C30.4477 11 30 11.4477 30 12C30 12.5523 30.4477 13 31 13ZM34 14C34 14.5523 33.5523 15 33 15C32.4477 15 32 14.5523 32 14C32 13.4477 32.4477 13 33 13C33.5523 13 34 13.4477 34 14ZM29 15C29.5523 15 30 14.5523 30 14C30 13.4477 29.5523 13 29 13C28.4477 13 28 13.4477 28 14C28 14.5523 28.4477 15 29 15ZM8 14C8 15.6569 6.65685 17 5 17C3.34315 17 2 15.6569 2 14C2 12.3431 3.34315 11 5 11C6.65685 11 8 12.3431 8 14ZM3.5 21C3.22386 21 3 21.2239 3 21.5V24.5C3 24.7761 3.22386 25 3.5 25H6.5C6.77614 25 7 24.7761 7 24.5V21.5C7 21.2239 6.77614 21 6.5 21H3.5ZM29 21.5C29 21.2239 29.2239 21 29.5 21H32.5C32.7761 21 33 21.2239 33 21.5V24.5C33 24.7761 32.7761 25 32.5 25H29.5C29.2239 25 29 24.7761 29 24.5V21.5ZM10 12H26V24H10V12ZM9 25V11H27V25H9Z" fill="currentColor"/>
</svg>
