<?xml version="1.0"?>
<svg viewBox="0 0 24 14" style="">
  <path d="M4.10365 8.93815C4.15279 8.97501 4.20193 9.00572 4.24494 9.04258C4.20193 9.00572 4.15279 8.96886 4.10365 8.93815Z"/>
  <path d="M5.52267 10.5845L5.52837 10.5902C5.52267 10.5902 5.52267 10.5845 5.52267 10.5845Z"/>
  <path d="M23.5218 9.9886L21.4209 2.00264C21.169 0.608173 19.492 -0.251853 17.6675 0.0737279C16.8443 0.221161 16.1379 0.589744 15.628 1.0689H9.95182C9.44194 0.583601 8.73549 0.221161 7.91233 0.0737279C6.09398 -0.251853 4.41079 0.608173 4.15893 2.00264L3.19447 5.6639C4.93295 6.19834 6.44414 7.26109 7.42703 8.74156L7.43317 8.74771C8.87678 9.27601 10.7381 9.59545 12.7653 9.59545C14.811 9.59545 16.6846 9.26987 18.1344 8.72928L19.2401 10.5783C19.9466 11.6902 20.6837 12.0711 21.7895 11.8684C22.8952 11.6779 23.6692 10.8302 23.5218 9.9886ZM9.56481 5.55947H8.63721V6.48707C8.63721 6.93551 8.27477 7.29795 7.82632 7.29795C7.37788 7.29795 7.01544 6.93551 7.01544 6.48707V5.55947H6.09398C5.64554 5.55947 5.2831 5.19703 5.2831 4.74859C5.2831 4.30014 5.64554 3.9377 6.09398 3.9377H7.02158V3.01625C7.02158 2.5678 7.38402 2.20536 7.83247 2.20536C8.28091 2.20536 8.64335 2.5678 8.64335 3.01625V3.94385H9.57095C10.0194 3.94385 10.3818 4.30629 10.3818 4.75473C10.3757 5.19703 10.0132 5.55947 9.56481 5.55947ZM15.8799 6.54235C15.327 6.54235 14.8724 6.09391 14.8785 5.54104C14.8785 4.98816 15.327 4.53358 15.8799 4.53358C16.4327 4.53358 16.8873 4.98202 16.8873 5.54104C16.8873 6.09391 16.4327 6.54235 15.8799 6.54235ZM17.7781 4.19571C17.2252 4.19571 16.7706 3.74727 16.7706 3.19439C16.7706 2.64152 17.219 2.18694 17.7781 2.18694C18.3309 2.18694 18.7855 2.63538 18.7855 3.19439C18.7855 3.74727 18.3309 4.19571 17.7781 4.19571ZM19.1725 6.88636C18.6197 6.85565 18.1958 6.37649 18.2265 5.82362C18.2572 5.27074 18.7364 4.84687 19.2892 4.87759C19.8421 4.9083 20.266 5.38746 20.2353 5.94034C20.2046 6.49321 19.7315 6.91708 19.1725 6.88636Z"/>
  <path d="M1.81836 12.7038C1.77536 12.5933 1.70164 12.4827 1.6095 12.3905C1.51735 12.2984 1.41292 12.2308 1.2962 12.1817C1.2532 12.1633 1.20406 12.1633 1.16105 12.1571C1.08734 12.1387 1.01976 12.1141 0.946047 12.1141C0.866188 12.1141 0.792471 12.1387 0.712611 12.1571C0.66961 12.1694 0.626609 12.1633 0.589751 12.1817C0.516034 12.2124 0.448461 12.2677 0.380887 12.3168C0.350172 12.3414 0.307171 12.3537 0.276455 12.3844C0.18431 12.4765 0.116736 12.581 0.0675918 12.6977C-0.0675552 13.0356 1.83284e-05 13.441 0.276455 13.7174C0.368601 13.8096 0.473033 13.8772 0.589751 13.9263C0.638895 13.9447 0.694182 13.9447 0.743327 13.957C0.8109 13.9693 0.872331 13.9939 0.939904 13.9939C1.17948 13.9939 1.41906 13.9017 1.60335 13.7174C1.6955 13.6253 1.76307 13.5209 1.81222 13.4041C1.91051 13.1891 1.91051 12.9311 1.81836 12.7038Z"/>
  <path d="M4.52137 12.4151C4.49065 12.2492 4.44151 12.0834 4.38622 11.9237C4.36165 11.8561 4.34322 11.7885 4.3125 11.7209C4.17121 11.3831 3.98692 11.0698 3.74734 10.7872C3.66749 10.6889 3.58763 10.6029 3.49548 10.5108C3.14533 10.1606 2.73374 9.88417 2.2853 9.69987C2.2423 9.68144 2.19315 9.66916 2.14401 9.65073C1.84914 9.54016 1.54199 9.46644 1.22255 9.43572C1.09969 9.42344 0.976832 9.41729 0.853971 9.41729C0.700395 9.41729 0.552962 9.47872 0.442387 9.5893C0.331812 9.69987 0.276524 9.84731 0.270381 10.0009C0.270381 10.1606 0.331812 10.3019 0.442387 10.4125C0.552962 10.523 0.700395 10.5845 0.853971 10.5845H0.860114C0.958402 10.5845 1.05055 10.6029 1.14884 10.6152C1.22255 10.6213 1.29013 10.6213 1.36384 10.6336C1.46828 10.652 1.56656 10.695 1.66485 10.7258C1.72014 10.7442 1.78157 10.7565 1.843 10.781C1.94129 10.8241 2.03344 10.8793 2.13172 10.9346C2.18087 10.9653 2.23616 10.9838 2.2853 11.0206C2.31602 11.0391 2.34059 11.0698 2.3713 11.0882C2.47573 11.1681 2.58631 11.2479 2.67846 11.3401C2.72146 11.3831 2.75831 11.4384 2.80132 11.4875C3.20676 11.9544 3.43405 12.538 3.43405 13.1584C3.43405 13.3181 3.50162 13.4656 3.60605 13.57C3.61834 13.5823 3.63677 13.5884 3.64906 13.6007C3.69206 13.6376 3.73506 13.6744 3.79035 13.6929C3.80263 13.699 3.81492 13.699 3.8272 13.699C3.88863 13.7236 3.95007 13.7359 4.01764 13.7359C4.07907 13.7359 4.13436 13.7174 4.1835 13.7051C4.20193 13.699 4.22036 13.699 4.23879 13.6929C4.30636 13.6621 4.37394 13.6191 4.42922 13.57C4.5398 13.4594 4.60123 13.3181 4.59509 13.1584C4.59509 12.8943 4.57051 12.6547 4.52137 12.4151Z"/>
  <path d="M7.40247 12.3107C7.36561 12.0281 7.31032 11.7455 7.24275 11.4752C7.11374 10.9592 6.92331 10.4739 6.67759 10.0132C6.08786 8.91358 5.19706 8.0044 4.10974 7.39623C4.07903 7.3778 4.05446 7.35938 4.02374 7.34095C3.69202 7.1628 3.34191 7.01538 2.97948 6.89252C2.94262 6.88023 2.9119 6.86795 2.87504 6.85566C2.86276 6.84952 2.85661 6.84952 2.84433 6.84338C2.50646 6.73894 2.16245 6.66523 1.80615 6.61608C1.72629 6.6038 1.65258 6.58537 1.57272 6.57922C1.49286 6.57308 1.40686 6.57308 1.32085 6.56694C1.17956 6.5608 1.04442 6.54851 0.903126 6.54851C0.817124 6.54851 0.731121 6.56694 0.651261 6.59765C0.595974 6.62223 0.540687 6.65294 0.491542 6.69594C0.393254 6.7758 0.32568 6.88023 0.282679 7.00309C0.26425 7.06453 0.251964 7.12596 0.251964 7.19353C0.251964 7.28567 0.270393 7.36553 0.301108 7.44539C0.313394 7.46997 0.331823 7.49454 0.350252 7.51911C0.380968 7.56825 0.40554 7.6174 0.442398 7.65426C0.460827 7.67269 0.491542 7.68497 0.516114 7.7034C0.559116 7.73412 0.602117 7.77098 0.651261 7.79555C0.675834 7.80783 0.706549 7.80783 0.737264 7.81398C0.792552 7.82626 0.841696 7.84469 0.903126 7.84469C1.26557 7.84469 1.61572 7.88155 1.95973 7.94912C2.02116 7.96141 2.08259 7.97984 2.14402 7.99827C2.2546 8.02284 2.35903 8.04741 2.46346 8.07813C2.49417 8.08427 2.51875 8.09656 2.54332 8.10884C2.57403 8.12113 2.60475 8.13342 2.63546 8.1457C2.7399 8.18256 2.83819 8.21327 2.94262 8.25628C3.02248 8.29313 3.09619 8.32999 3.17605 8.36685C3.24977 8.40371 3.32963 8.43442 3.40335 8.47743C3.47706 8.52043 3.54464 8.56343 3.61835 8.60643C3.69207 8.64943 3.76578 8.69243 3.83336 8.74158C3.9255 8.80301 4.01151 8.87058 4.09751 8.93815C4.14665 8.97501 4.1958 9.00573 4.2388 9.04259C4.75482 9.46646 5.19097 9.99476 5.51041 10.5845L5.51655 10.5906C5.63327 10.7995 5.72542 11.0268 5.81142 11.2541C5.88514 11.4445 5.94657 11.6411 5.99571 11.8438C6.04485 12.0465 6.08171 12.2493 6.10628 12.4643C6.13086 12.6731 6.14929 12.882 6.14929 13.097C6.14929 13.2751 6.223 13.4349 6.33972 13.5516C6.45644 13.6683 6.61616 13.742 6.80045 13.742C6.88645 13.742 6.97245 13.7236 7.05231 13.6929C7.20589 13.6253 7.32875 13.5024 7.39632 13.3489C7.42704 13.269 7.44547 13.1891 7.44547 13.097C7.45161 12.8267 7.43318 12.5687 7.40247 12.3107Z"/>
</svg>
