<?xml version="1.0"?>
<svg width="36" height="36" viewBox="0 0 36 36" fill="none" xmlns="http://www.w3.org/2000/svg">
  <path d="M31.4799 6.31003C30.7506 5.57832 29.884 4.99776 28.9299 4.60163C27.9758 4.2055 26.9529 4.00159 25.9199 4.00159C24.8868 4.00159 23.8639 4.2055 22.9098 4.60163C21.9557 4.99776 21.0891 5.57832 20.3599 6.31003L17.9999 8.51003L15.6399 6.31003C14.147 4.90006 12.1628 4.12852 10.1096 4.15966C8.05643 4.1908 6.0965 5.02218 4.64713 6.47677C3.19775 7.93136 2.37342 9.89425 2.34965 11.9475C2.32588 14.0008 3.10454 15.9823 4.51986 17.47L17.9999 31L31.4799 17.47C32.9552 15.9877 33.7835 13.9814 33.7835 11.89C33.7835 9.79863 32.9552 7.79235 31.4799 6.31003V6.31003Z" fill="currentColor"/>
</svg>
