<?xml version="1.0"?>
<svg xmlns="http://www.w3.org/2000/svg" viewBox="0 0 36 36" fill="none">
  <path d="M29.88 27.13C30.2407 26.6626 30.5745 26.1752 30.88 25.67C30.96 25.54 31.04 25.42 31.11 25.29C31.18 25.16 31.34 24.85 31.45 24.63C31.56 24.41 31.64 24.26 31.72 24.06C31.8 23.86 31.9 23.64 31.98 23.43C32.06 23.22 32.15 22.99 32.22 22.77C32.29 22.55 32.35 22.36 32.41 22.15C32.47 21.94 32.55 21.65 32.61 21.39C32.67 21.13 32.7 21.01 32.74 20.82C32.78 20.63 32.84 20.22 32.87 19.91C32.9 19.6 32.87 19.59 32.94 19.43C33 19 33 18.48 33 18C33 14.0218 31.4196 10.2064 28.6066 7.3934C25.7936 4.58035 21.9782 3 18 3C14.0218 3 10.2064 4.58035 7.3934 7.3934C4.58035 10.2064 3 14.0218 3 18C3 18.48 3 19 3.07 19.43C3.07 19.59 3.12 19.75 3.14 19.91C3.16 20.07 3.22 20.52 3.27 20.82C3.32 21.12 3.36 21.2 3.4 21.39C3.44 21.58 3.52 21.9 3.6 22.15C3.68 22.4 3.72 22.56 3.79 22.77C3.86 22.98 3.94 23.21 4.03 23.43C4.12 23.65 4.2 23.85 4.29 24.06C4.38 24.27 4.47 24.44 4.56 24.63C4.65 24.82 4.78 25.07 4.9 25.29C5.02 25.51 5.05 25.54 5.13 25.67C5.43546 26.1752 5.76933 26.6626 6.13 27.13C6.19 27.21 6.24 27.29 6.31 27.37C7.48235 28.8322 8.91682 30.0632 10.54 31L11.22 31.36L11.61 31.55C11.94 31.7 12.28 31.85 12.61 31.98C12.94 32.11 13.02 32.14 13.24 32.21L13.8 32.38C14.09 32.47 14.38 32.54 14.67 32.61L15.06 32.69C15.45 32.7702 15.8438 32.8303 16.24 32.87H16.61C17.06 32.87 17.5 32.94 17.96 32.94C18.42 32.94 18.86 32.94 19.31 32.87H19.68C20.0762 32.8303 20.47 32.7702 20.86 32.69L21.25 32.61C21.54 32.54 21.83 32.47 22.12 32.38L22.68 32.21C22.9 32.14 23.1 32.06 23.31 31.98C23.52 31.9 23.99 31.7 24.31 31.55L24.7 31.36L25.38 31C27.0068 30.0642 28.4447 28.8331 29.62 27.37C29.77 27.29 29.82 27.21 29.88 27.13ZM22.5 11.5C22.5 12.39 22.2361 13.26 21.7416 14.0001C21.2471 14.7401 20.5443 15.3169 19.7221 15.6575C18.8998 15.9981 17.995 16.0872 17.1221 15.9135C16.2492 15.7399 15.4474 15.3113 14.818 14.682C14.1887 14.0526 13.7601 13.2508 13.5865 12.3779C13.4128 11.505 13.5019 10.6002 13.8425 9.77792C14.1831 8.95566 14.7599 8.25285 15.4999 7.75839C16.24 7.26392 17.11 7 18 7C18.5913 6.99868 19.1771 7.11418 19.7236 7.33986C20.2702 7.56554 20.7668 7.89695 21.1849 8.31508C21.603 8.73321 21.9345 9.22981 22.1601 9.77637C22.3858 10.3229 22.5013 10.9087 22.5 11.5ZM18 29C15.9841 28.9977 14.0077 28.4416 12.2865 27.3923C10.5652 26.343 9.16546 24.8409 8.24 23.05C9.35047 21.4976 10.8152 20.2325 12.5127 19.3597C14.2101 18.4869 16.0913 18.0316 18 18.0316C19.9087 18.0316 21.7899 18.4869 23.4873 19.3597C25.1848 20.2325 26.6495 21.4976 27.76 23.05C26.8345 24.8409 25.4348 26.343 23.7135 27.3923C21.9923 28.4416 20.0159 28.9977 18 29Z" fill="currentColor"/>
</svg>
