<?xml version="1.0"?>
<svg xmlns="http://www.w3.org/2000/svg" viewBox="0 0 36 36" fill="none">
  <path d="M18 19C14.8174 19 11.7652 20.2643 9.51472 22.5147C7.26428 24.7652 6 27.8174 6 31V34H30V31C30 27.8174 28.7357 24.7652 26.4853 22.5147C24.2348 20.2643 21.1826 19 18 19ZM22 27.51L18 31.51L14 27.51C13.567 27.072 13.3242 26.4809 13.3242 25.865C13.3242 25.2491 13.567 24.658 14 24.22C14.2147 24.0035 14.4702 23.8317 14.7517 23.7144C15.0332 23.5972 15.3351 23.5368 15.64 23.5368C15.9449 23.5368 16.2468 23.5972 16.5283 23.7144C16.8098 23.8317 17.0653 24.0035 17.28 24.22L17.97 24.87L18.66 24.22C18.8747 24.0035 19.1302 23.8317 19.4117 23.7144C19.6932 23.5972 19.9951 23.5368 20.3 23.5368C20.6049 23.5368 20.9068 23.5972 21.1883 23.7144C21.4698 23.8317 21.7253 24.0035 21.94 24.22C22.3811 24.6501 22.6347 25.2367 22.646 25.8527C22.6572 26.4686 22.4251 27.0641 22 27.51Z" fill="currentColor"/>
  <path d="M18 15C21.3137 15 24 12.3137 24 9C24 5.68629 21.3137 3 18 3C14.6863 3 12 5.68629 12 9C12 12.3137 14.6863 15 18 15Z" fill="currentColor"/>
</svg>
