<?xml version="1.0"?>
<svg version="1.1" id="base" xmlns="http://www.w3.org/2000/svg" x="0px" y="0px" width="256px" height="256px" viewBox="0 0 256 256">
  <path d="M165.399,124.063L109.118,92.06c-1.399-0.797-3.118-0.787-4.508,0.026c-1.39,0.805-2.25,2.295-2.25,3.905v64.008 c0,1.609,0.86,3.1,2.25,3.913c0.705,0.412,1.491,0.613,2.277,0.613c0.768,0,1.546-0.191,2.241-0.596l56.283-32.003 c1.416-0.806,2.285-2.306,2.285-3.934C167.694,126.368,166.816,124.869,165.399,124.063z"/>
  <path d="M238.069,40.646H214.25h-28.82h-28.82h-28.458h-0.36H99.333H70.536H41.727h-23.82c-3.184,0-5.773,2.59-5.773,5.772v23.856 v120.441v18.867c0,3.184,2.589,5.771,5.773,5.771h2.415h21.394h28.82h28.82h28.459h0.361h28.457h28.82h28.82h23.82 c3.184,0,5.773-2.589,5.773-5.771v-18.867V70.274V46.418C243.844,43.223,241.254,40.646,238.069,40.646z M191.215,47.181h17.273  V64.5h-17.273V47.181L191.215,47.181z M162.396,47.181h17.272V64.5h-17.272V47.181z M133.938,47.181h16.912V64.5h-16.912V47.181z	M105.128,47.181h16.912V64.5h-16.912V47.181z M76.309,47.181h17.273V64.5H76.309V47.181z M47.488,47.181h17.273V64.5H47.488V47.181 z M18.681,47.181h17.273V64.5H18.681V47.181z M35.954,208.811H18.681v-17.319h17.273V208.811z M64.763,208.811H47.489v-17.319 h17.273V208.811L64.763,208.811z M93.583,208.811H76.31v-17.319h17.273V208.811z M122.041,208.811h-16.912v-17.319h16.912V208.811z M150.849,208.811h-16.912v-17.319h16.912V208.811z M179.668,208.811h-17.272v-17.319h17.272V208.811z M208.488,208.811h-17.273 v-17.319h17.273V208.811z M237.297,208.811h-17.273v-17.319h17.273V208.811L237.297,208.811z M237.297,184.943H214.25h-28.819 h-28.82h-28.458h-0.361H99.333H70.537H41.728H18.682V71.047h23.046h28.82h28.82h28.458h0.36h28.458h28.82h28.82h23.045v113.896 H237.297z M237.297,64.5h-17.273V47.181h17.273V64.5L237.297,64.5z"/>
</svg>
