<?xml version="1.0"?>
<svg xmlns="http://www.w3.org/2000/svg" version="1.1" viewBox="0 0 1024 1024">
  <path d="M823,229.3c-58.9-27-121-46.1-184.9-56.9-8.7,15.6-16.6,31.7-23.7,48.1-68-10.2-137.1-10.2-205.1,0-7-16.4-14.9-32.5-23.7-48.1-63.9,10.9-126.1,30.1-185,57-117,173.1-148.7,341.9-132.8,508.3h0c68.5,50.6,145.2,89.1,226.7,113.8,18.4-24.7,34.6-50.9,48.6-78.3-26.5-9.9-52.1-22.1-76.5-36.5,6.4-4.7,12.7-9.4,18.7-14.1,143.6,67.5,309.7,67.5,453.3,0,6.1,5,12.4,9.8,18.7,14.1-24.4,14.4-50,26.7-76.6,36.6,13.9,27.4,30.2,53.6,48.6,78.2,81.6-24.6,158.3-63.1,226.9-113.7h0c18.6-193-31.8-360.2-133.2-508.5h0ZM363.2,635.4c-44.2,0-80.7-40.1-80.7-89.4s35.2-89.8,80.6-89.8,81.5,40.5,80.8,89.8c-.8,49.3-35.6,89.4-80.6,89.4h-.1ZM660.8,635.4c-44.3,0-80.6-40.1-80.6-89.4s35.2-89.8,80.6-89.8,81.3,40.5,80.6,89.8c-.8,49.3-35.5,89.4-80.6,89.4Z"/>
</svg>
