<?xml version="1.0"?>
<svg width="90" height="153" viewBox="0 0 90 153" fill="none" xmlns="http://www.w3.org/2000/svg">
  <path d="M7.88988 25.5C7.88988 11.6984 19.0783 0.51 32.8799 0.51H64.4999C78.3015 0.51 89.4899 11.6984 89.4899 25.5V111.69C89.4899 134.223 71.2231 152.49 48.6899 152.49C26.1567 152.49 7.88988 134.223 7.88988 111.69V25.5Z" stroke="#3D4450" stroke-width="1.02"/>
  <path d="M7.88966 77.52L1.25966 77.52L1.25966 51C1.25966 48.465 3.31467 46.41 5.84966 46.41L7.88966 46.41L7.88966 77.52Z" stroke="#3D4450" stroke-width="1.02"/>
  <path d="M7.88966 81.09L1.25966 81.09L1.25966 107.61C1.25966 110.145 3.31467 112.2 5.84966 112.2L7.88966 112.2L7.88966 81.09Z" stroke="#3D4450" stroke-width="1.02"/>
  <rect x="43.0798" y="18.36" width="11.22" height="32.64" rx="5.61" fill="white" stroke="white" stroke-width="1.02"/>
  <path fill-rule="evenodd" clip-rule="evenodd" d="M7.38013 66.81H47.9525V51.4659C48.1944 51.495 48.4405 51.5099 48.6902 51.5099C48.7848 51.5099 48.8789 51.5078 48.9725 51.5035V66.81H90.0001V67.83H48.4625H7.38013V66.81ZM48.9725 17.8563V0.51001H47.9525V17.8939C48.1944 17.8649 48.4405 17.8499 48.6902 17.8499C48.7848 17.8499 48.8789 17.8521 48.9725 17.8563Z" fill="#3D4450"/>
</svg>
