<?xml version="1.0"?>
<svg xmlns="http://www.w3.org/2000/svg" viewBox="0 0 37.875 32">
  <path fill="currentColor" d="M37.225,10.695c-0.12,0.239-0.314,0.372-0.581,0.402
				c-0.446,0.029-3.495,0.073-9.136,0.135c-0.179,0-0.372,0.043-0.582,0.132c-0.36,0.121-0.598,0.329-0.717,0.629
				c-0.089,0.239-0.104,0.714-0.046,1.433c0.03,0.356,0.091,0.894,0.18,1.611c0.031,0.359,0.09,0.731,0.179,1.123
				c0,0.207-0.165,0.327-0.494,0.355c-0.685,0.149-1.312,0.255-1.88,0.315c-1.014,0.147-2.104,0.238-3.268,0.268
				c-1.822,0.029-3.851-0.03-6.092-0.179c-1.939,5.166-2.91,7.911-2.91,8.239c0,0.359,0.077,1.508,0.224,3.45
				c0.448,0.326,0.807,0.552,1.075,0.67c0.209,0.092,0.297,0.208,0.269,0.36c0,0.088-0.03,0.147-0.09,0.177l-0.312,0.179
				c-0.33,0.089-0.688,0.105-1.077,0.046c-0.568-0.09-4.374-0.85-11.419-2.284c-0.357-0.061-0.357-1.043,0-2.957
				c0.149-0.805,0.493-1.971,1.03-3.492c0.567-1.554,1.09-2.777,1.568-3.671c0.506-0.928,0.91-1.925,1.208-3
				c0.358-1.076,0.507-1.838,0.449-2.285c-0.061-0.327-0.479-0.716-1.254-1.165c-0.597-0.298-1.163-0.521-1.701-0.672
				c-0.3-0.03-0.539-0.178-0.718-0.447c-0.12-0.12-0.253-0.285-0.404-0.493C0.637,9.454,0.592,9.143,0.592,8.634
				c0-0.24,0-0.611,0-1.12c0-0.775,0.061-1.253,0.18-1.433C1.34,5.097,1.77,4.364,2.068,3.888C2.337,3.5,2.592,3.2,2.832,2.991
				C3.1,2.723,3.338,2.603,3.548,2.632c0.208,0.03,0.448,0.03,0.717,0l0.447-0.044c0.149-0.269,0.284-0.464,0.404-0.582
				c0.12-0.118,0.565-0.074,1.344,0.134l0.179,0.492h12.314v0.404h5.331V2.632l12.27-0.044l0.403,0.223
				c0.238,0.149,0.358,0.329,0.358,0.537c0.061,1.167,0.118,2.256,0.179,3.271c0.06,2.001,0.044,3.103-0.046,3.314
				C37.298,10.41,37.225,10.665,37.225,10.695z M24.371,11.814c-0.148-0.061-0.268-0.092-0.356-0.092v0.092l-3.985-0.044
				c-0.152,0.566-0.091,1.043,0.176,1.433c0.361,0.565,0.658,0.97,0.899,1.209c0.239,0.208,0.521,0.341,0.85,0.4
				c0.297,0.03,0.434,0.106,0.403,0.225c-0.029,0.149-0.148,0.226-0.359,0.226c-0.118,0-0.312,0-0.579,0
				c-0.329-0.061-0.69-0.269-1.077-0.627c-0.626-0.538-1.03-0.987-1.211-1.343c-0.117-0.39-0.178-0.898-0.178-1.522l-0.805-0.047
				c-0.479,0-0.896,0.194-1.254,0.584c-0.298,0.357-0.448,0.778-0.448,1.253c0,0.298,0,0.7,0,1.208
				c0.061,0.36,0.361,0.644,0.897,0.852c0.775,0.299,1.523,0.418,2.238,0.36c0.837-0.122,1.493-0.196,1.972-0.226
				c0.238-0.03,0.67-0.014,1.297,0.045c0.628,0.059,1.061,0.089,1.298,0.089c0.39,0,0.643-0.03,0.761-0.089
				c0.061-0.06,0.181-0.179,0.361-0.357c0.118-0.18,0.148-0.659,0.087-1.435c-0.03-0.748-0.148-1.3-0.357-1.657
				C24.88,12.083,24.669,11.902,24.371,11.814z"/>
</svg>
