<?xml version="1.0"?>
<svg xmlns="http://www.w3.org/2000/svg" viewBox="0 0 36 36" fill="none">
  <path d="M7 2V34H29V2H7ZM18 32C17.5055 32 17.0222 31.8534 16.6111 31.5787C16.2 31.304 15.8795 30.9135 15.6903 30.4567C15.5011 29.9999 15.4516 29.4972 15.548 29.0123C15.6445 28.5273 15.8826 28.0819 16.2322 27.7322C16.5819 27.3826 17.0273 27.1445 17.5123 27.048C17.9972 26.9516 18.4999 27.0011 18.9567 27.1903C19.4135 27.3795 19.804 27.7 20.0787 28.1111C20.3534 28.5222 20.5 29.0055 20.5 29.5C20.5 29.8283 20.4353 30.1534 20.3097 30.4567C20.1841 30.76 19.9999 31.0356 19.7678 31.2678C19.5356 31.4999 19.26 31.6841 18.9567 31.8097C18.6534 31.9353 18.3283 32 18 32ZM25 25H11V6H25V25Z" fill="currentColor"/>
</svg>
