<?xml version="1.0"?>
<svg xmlns="http://www.w3.org/2000/svg" viewBox="0 0 36 36" fill="none">
  <g clip-path="">
    <path d="M28 2V30L18 22H15V32H12L8.67 22H8C6.4087 22 4.88258 21.3679 3.75736 20.2426C2.63214 19.1174 2 17.5913 2 16C2 14.4087 2.63214 12.8826 3.75736 11.7574C4.88258 10.6321 6.4087 10 8 10H18L28 2ZM32 11.07V20.87C33.1303 20.6405 34.1465 20.0273 34.8764 19.1343C35.6063 18.2412 36.005 17.1234 36.005 15.97C36.005 14.8166 35.6063 13.6988 34.8764 12.8057C34.1465 11.9127 33.1303 11.2995 32 11.07Z" fill="currentColor"/>
  </g>
  <defs>
    <clipPath id="">
      <rect fill="currentColor"/>
    </clipPath>
  </defs>
</svg>
