<?xml version="1.0"?>
<svg xmlns="http://www.w3.org/2000/svg" viewBox="0 0 36 36" fill="none">
  <path d="M18 10C17.4696 10 16.9609 9.78929 16.5858 9.41421C16.2107 9.03914 16 8.53043 16 8V3H20V8C20 8.53043 19.7893 9.03914 19.4142 9.41421C19.0391 9.78929 18.5304 10 18 10Z" fill="currentColor"/>
  <path d="M23.66 12.34C23.2875 11.9653 23.0784 11.4584 23.0784 10.93C23.0784 10.4016 23.2875 9.89473 23.66 9.52L27.19 6L30 8.81L26.47 12.34C26.0957 12.7095 25.5909 12.9166 25.065 12.9166C24.5391 12.9166 24.0343 12.7095 23.66 12.34Z" fill="currentColor"/>
  <path d="M33 20H28C27.4696 20 26.9609 19.7893 26.5858 19.4142C26.2107 19.0391 26 18.5304 26 18C26 17.4696 26.2107 16.9609 26.5858 16.5858C26.9609 16.2107 27.4696 16 28 16H33V20Z" fill="currentColor"/>
  <path d="M27.19 30L23.66 26.46C23.2875 26.0853 23.0784 25.5783 23.0784 25.05C23.0784 24.5216 23.2875 24.0147 23.66 23.64C23.8458 23.454 24.0663 23.3065 24.3091 23.2059C24.5519 23.1052 24.8122 23.0534 25.075 23.0534C25.3378 23.0534 25.5981 23.1052 25.8409 23.2059C26.0837 23.3065 26.3043 23.454 26.49 23.64L30 27.19L27.19 30Z" fill="currentColor"/>
  <path d="M20 33H16V28C16 27.4696 16.2107 26.9609 16.5858 26.5858C16.9609 26.2107 17.4696 26 18 26C18.5304 26 19.0391 26.2107 19.4142 26.5858C19.7893 26.9609 20 27.4696 20 28V33Z" fill="currentColor"/>
  <path d="M8.81 30L6 27.19L9.53 23.66C9.71575 23.474 9.93632 23.3265 10.1791 23.2259C10.4219 23.1252 10.6822 23.0734 10.945 23.0734C11.2078 23.0734 11.4681 23.1252 11.7109 23.2259C11.9537 23.3265 12.1743 23.474 12.36 23.66C12.7325 24.0347 12.9416 24.5416 12.9416 25.07C12.9416 25.5984 12.7325 26.1053 12.36 26.48L8.81 30Z" fill="currentColor"/>
  <path d="M8 20H3V16H8C8.53043 16 9.03914 16.2107 9.41421 16.5858C9.78929 16.9609 10 17.4696 10 18C10 18.5304 9.78929 19.0391 9.41421 19.4142C9.03914 19.7893 8.53043 20 8 20Z" fill="currentColor"/>
  <path d="M9.51 12.34L6 8.81L8.81 6L12.34 9.54C12.7125 9.91472 12.9216 10.4216 12.9216 10.95C12.9216 11.4784 12.7125 11.9853 12.34 12.36C12.1529 12.5446 11.9313 12.6906 11.6878 12.7895C11.4443 12.8885 11.1837 12.9385 10.9209 12.9366C10.658 12.9347 10.3981 12.8811 10.156 12.7787C9.91396 12.6764 9.69443 12.5273 9.51 12.34Z" fill="currentColor"/>
</svg>
