<?xml version="1.0"?>
<svg xmlns="http://www.w3.org/2000/svg" viewBox="0 0 36 39" fill="none">
  <path fill="white" d="M22.5 27C22.5 33.2133 17.4633 38.25 11.25 38.25C5.03675 38.25 0 33.2133 0 27C0 20.7868 5.03675 15.75 11.25 15.75C17.4633 15.75 22.5 20.7868 22.5 27ZM14.5119 27.5327C14.2115 27.1319 13.7776 26.8469 13.2102 26.6777C13.6191 26.455 13.9236 26.1656 14.1239 25.8093C14.3325 25.4442 14.4369 25.0478 14.4369 24.6203C14.4369 23.8811 14.1906 23.3111 13.6984 22.9103C13.206 22.5006 12.4676 22.2958 11.4829 22.2958H8.41638V31.6474H11.8334C12.7846 31.6474 13.544 31.4203 14.1114 30.9661C14.6789 30.503 14.9625 29.8484 14.9625 29.0022C14.9625 28.4144 14.8124 27.9246 14.5119 27.5327ZM10.006 26.2903V23.6985H11.3203C12.3549 23.6985 12.8723 24.1082 12.8723 24.9276C12.8723 25.3551 12.7387 25.6891 12.4717 25.9296C12.2047 26.17 11.8334 26.2903 11.3578 26.2903H10.006ZM12.8848 29.884C12.6094 30.1334 12.2005 30.258 11.6581 30.258H10.006V27.5327H11.7083C12.768 27.5327 13.2979 27.9869 13.2979 28.8954C13.2979 29.305 13.1601 29.6346 12.8848 29.884Z"/>
  <path fill="white" d="M36 9C36 13.9706 31.9706 18 27 18C22.0294 18 18 13.9706 18 9C18 4.02944 22.0294 0 27 0C31.9706 0 36 4.02944 36 9ZM29.7251 13.7912H32.04L28.1091 3.6H25.9544L22.14 13.7912H24.3675L25.0372 11.8112H29.0263L29.7251 13.7912ZM25.6196 10.1078L27.0172 6.03136L28.444 10.1078H25.6196Z" fill-opacity="0.65"/>
</svg>
