<?xml version="1.0"?>
<svg xmlns="http://www.w3.org/2000/svg" viewBox="0 0 97.875 32">
  <path fill="currentColor" d="M97.598,8.701c0,0.274-0.012,0.548-0.035,0.824
				c-0.046,0.365-0.114,0.641-0.206,0.822c-0.16,0.161-0.526,0.263-1.097,0.309c-0.596,0.023-1.179,0.034-1.75,0.034v0.344h0.103
				c0.092,0,0.138,0.057,0.138,0.172c0.206,0,0.49-0.024,0.856-0.07c0.457-0.045,0.812,0.034,1.063,0.24
				c0.206,0.069,0.367,0.32,0.481,0.755c0.137,0.389,0.17,0.778,0.103,1.166c-0.183,0.549-0.571,0.915-1.166,1.097H71.673
				c-0.138,0-0.538,0.127-1.201,0.379c-0.708,0.227-1.727,0.343-3.053,0.343h-0.411c-0.686,0-1.657,0-2.914,0
				c-1.212,0-2.562,0-4.048,0c-1.463,0.045-2.972,0.067-4.527,0.067c-1.509,0-2.925,0-4.251,0c-1.281,0-2.355,0-3.224,0
				c-0.892,0-1.383-0.022-1.476-0.067c-0.273-0.116-0.536-0.195-0.788-0.241c-0.252,0-0.526,0-0.824,0h-1.234
				c-0.16-0.067-0.434-0.102-0.823-0.102c-0.411-0.023-0.835-0.047-1.269-0.068c-0.411,0-0.789,0-1.132,0
				c-0.32,0-0.536,0.01-0.651,0.033c-0.16,0-0.354,0.114-0.583,0.343c-0.571,0.389-0.982,0.582-1.235,0.582
				c-0.091,0-0.251-0.067-0.479-0.205c-0.229-0.068-0.538-0.148-0.926-0.239c-0.342-0.093-0.731-0.172-1.167-0.241
				c-0.433-0.067-0.696-0.103-0.789-0.103c-0.229,0-0.651,0-1.268,0c-0.617,0.046-1.018,0.16-1.2,0.344
				c-0.138,0-0.321,0.193-0.549,0.582c-0.251,0.253-0.549,0.561-0.891,0.928c-0.321,0.342-0.664,0.56-1.029,0.65h-0.583
				c-0.183,0.115-0.32,0.172-0.412,0.172c-0.068,0.021-0.149,0.033-0.24,0.033c-0.206,0-0.548,0.012-1.029,0.034
				c-0.456,0-0.937,0.023-1.439,0.069c-0.549,0.022-1.029,0.068-1.44,0.138c-0.434,0.067-0.697,0.158-0.789,0.275
				c-0.068,0.044-0.184,0.272-0.343,0.684c-0.184,0.413-0.401,0.915-0.653,1.51c-0.296,0.595-0.604,1.234-0.924,1.921
				c-0.322,0.639-0.63,1.233-0.926,1.782c0,0.481,0.034,0.802,0.103,0.961c0.045,0.183,0.092,0.332,0.137,0.445l0.172,0.172
				c0.046,0.114,0.148,0.217,0.309,0.308c0.137,0.092,0.206,0.229,0.206,0.411L21.741,26.5c-0.091,0.092-0.25,0.136-0.48,0.136
				c-0.251,0.047-0.491,0.069-0.72,0.069c-0.274,0-0.583-0.022-0.926-0.069c-0.389-0.09-0.857-0.204-1.405-0.343
				c-0.571-0.091-1.121-0.193-1.647-0.308c-0.48-0.16-0.902-0.309-1.269-0.446c-0.435-0.091-0.663-0.194-0.686-0.309l-0.103-0.136
				v-0.035h-0.034c-0.138-0.092-0.206-0.253-0.206-0.479v-0.241c0.023-0.092,0.218-0.435,0.584-1.028
				c0.342-0.595,0.708-1.269,1.097-2.022c0.389-0.732,0.766-1.418,1.13-2.058c0.32-0.617,0.504-0.994,0.549-1.131
				c0-0.184-0.011-0.425-0.034-0.722c-0.022-0.251-0.115-0.469-0.274-0.65c-0.297-0.115-0.652-0.195-1.063-0.241
				c-0.434-0.069-0.754-0.069-0.96,0c-0.457,0-0.686-0.034-0.686-0.103h-0.137c0-0.093,0.012-0.193,0.034-0.309
				c0-0.093,0.012-0.172,0.036-0.241c0.044-0.045,0.067-0.09,0.067-0.136c-0.091,0-0.514,0.079-1.269,0.238
				c-0.754,0.139-1.555,0.32-2.4,0.55c-0.845,0.183-1.612,0.377-2.298,0.583c-0.709,0.16-1.085,0.239-1.131,0.239
				c-0.092,0.046-0.205,0.149-0.343,0.309c-0.091,0.16-0.274,0.389-0.548,0.687c-0.161,0.205-0.309,0.446-0.446,0.721
				c-0.138,0.297-0.263,0.604-0.377,0.925c-0.137,0.299-0.252,0.55-0.343,0.755c-0.091,0.229-0.161,0.377-0.207,0.446
				c-0.068,0.022-0.24,0.149-0.514,0.377c-0.229,0.137-0.628,0.331-1.2,0.584c-0.594,0.297-1.406,0.64-2.435,1.027H0.926
				l-0.722-0.239L0,9.971l5.35-0.79C5.532,9.16,5.681,9.113,5.795,9.043c0.09-0.068,0.172-0.147,0.24-0.239
				c0.091-0.092,0.171-0.182,0.24-0.273l17.524-1.613v0.206c0.091,0.184,0.194,0.344,0.309,0.481
				c0.091,0.136,0.182,0.205,0.273,0.205c0.046,0.068,0.091,0.103,0.138,0.103c0.068,0,0.137-0.034,0.206-0.103l0.205-0.205V7.124
				h0.138c0.501-0.761,0.867-1.286,1.097-1.577V5.477h0.053c0.03-0.039,0.059-0.074,0.086-0.103
				c0.007-0.012,0.019-0.022,0.033-0.033c0.351,0,0.699,0,1.046,0c0.048,0.04,0.088,0.085,0.12,0.136h0.206v0.291
				c0.188,0.172,0.381,0.259,0.583,0.259l0.343,0.171h1.098c0.365,0,0.651,0.022,0.858,0.068c0.228,0.023,0.343,0.114,0.343,0.275
				c0.136,0,0.205,0.192,0.205,0.582v0.344c0.022,0,0.069,0.011,0.138,0.033c0.044,0.046,0.079,0.07,0.103,0.07l0.103,0.034V6.542
				h12.242V5.854h0.721v0.688h1.782v0.24c0,0.228,0.036,0.457,0.104,0.686c0.091,0.228,0.171,0.343,0.239,0.343h44.959
				c0.091-0.069,0.251-0.218,0.48-0.446c0.159-0.229,0.24-0.422,0.24-0.582l0.138-0.412c0-0.161,0.044-0.389,0.137-0.687
				c0.114-0.251,0.251-0.377,0.411-0.377c0.114,0,0.365,0.091,0.754,0.274c0.319,0.184,0.674,0.39,1.063,0.617
				c0.363,0.229,0.708,0.468,1.028,0.72c0.273,0.298,0.457,0.526,0.548,0.688c0.116,0.09,0.183,0.159,0.206,0.205
				c0.068,0,0.115,0.033,0.137,0.103c0.069,0.023,0.126,0.034,0.172,0.034h0.172l0.583,0.238V8.701z M92.042,10.69h-1.063
				l-0.171-0.24H71.673c-0.252,0.229-0.378,0.423-0.378,0.584v0.172c0.251,0.045,1.086,0.067,2.504,0.067c1.438,0,3.166,0,5.179,0
				c2.057-0.046,4.229-0.092,6.515-0.138c2.354-0.045,4.493-0.079,6.413-0.102h0.48C92.271,10.805,92.156,10.69,92.042,10.69z
				 M28.189,5.923c0.022,0,0.045,0.012,0.068,0.035c0.023,0,0.046,0,0.068,0c0,0.022,0.013,0.032,0.035,0.033h-0.171V5.923z
				 M29.492,15.457c0-0.388-0.08-0.697-0.24-0.925c-0.159-0.207-0.411-0.309-0.754-0.309h-2.503c-0.297,0-0.56,0.102-0.789,0.309
				c-0.183,0.228-0.275,0.537-0.275,0.925c0,0.253,0.092,0.479,0.275,0.687c0.229,0.229,0.492,0.343,0.789,0.343h2.503
				c0.344,0,0.595-0.114,0.754-0.343C29.412,15.936,29.492,15.709,29.492,15.457z M25.582,5.992
				c0.024-0.001,0.048-0.011,0.069-0.033h0.035v0.033H25.582z"/>
</svg>
