<?xml version="1.0" encoding="utf-8"?>
<!-- Generator: Adobe Illustrator 16.0.0, SVG Export Plug-In . SVG Version: 6.00 Build 0)  -->
<!DOCTYPE svg PUBLIC "-//W3C//DTD SVG 1.1//EN" "http://www.w3.org/Graphics/SVG/1.1/DTD/svg11.dtd">
<svg version="1.1" id="Layer_2" xmlns="http://www.w3.org/2000/svg" xmlns:xlink="http://www.w3.org/1999/xlink" x="0px" y="0px"
	 width="1400px" height="1409px" viewBox="0 0 1400 1409" enable-background="new 0 0 1400 1409" xml:space="preserve">
<path fill="#FFFFFF" d="M698.195,10.125c-364.347,0-662.838,280.938-691.206,637.969L378.74,801.797
	c31.502-21.539,69.555-34.133,110.495-34.133c3.669,0,7.315,0.09,10.939,0.313l165.33-239.637c0-1.137-0.029-2.25-0.029-3.395
	c0-144.227,117.335-261.574,261.582-261.574c144.233,0,261.583,117.348,261.583,261.574c0,144.246-117.35,261.598-261.583,261.598
	c-1.99,0-3.95-0.047-5.926-0.09L685.341,954.688c0.119,3.074,0.23,6.191,0.23,9.297c0,108.273-88.076,196.352-196.336,196.352
	c-95.041,0-174.494-67.848-192.496-157.676L30.872,892.754c82.32,291.137,349.807,504.582,667.323,504.582
	c383.062,0,693.598-310.551,693.598-693.613C1391.793,320.664,1081.257,10.125,698.195,10.125"/>
<path fill="#FFFFFF" d="M441.648,1062.563l-85.202-35.203c15.105,31.445,41.23,57.762,75.911,72.215
	c74.961,31.25,161.41-4.336,192.667-79.359c15.112-36.313,15.224-76.355,0.223-112.742c-14.979-36.391-43.25-64.773-79.572-79.922
	c-36.047-15.004-74.656-14.438-108.587-1.637l88.009,36.391c55.304,23.051,81.444,86.559,58.408,141.855
	C560.476,1059.457,496.944,1085.613,441.648,1062.563"/>
<path fill="#FFFFFF" d="M1101.353,524.961c0-96.113-78.184-174.313-174.295-174.313c-96.096,0-174.294,78.199-174.294,174.313
	c0,96.102,78.198,174.277,174.294,174.277C1023.169,699.238,1101.353,621.063,1101.353,524.961 M796.415,524.656
	c0-72.324,58.638-130.918,130.94-130.918c72.316,0,130.925,58.594,130.925,130.918c0,72.316-58.608,130.918-130.925,130.918
	C855.053,655.574,796.415,596.973,796.415,524.656"/>
</svg>
