<?xml version="1.0"?>
<svg xmlns="http://www.w3.org/2000/svg" viewBox="0 0 36 36" fill="none">
  <path fill="currentColor" d="M8 26V29H34V11H31V26H8Z"/>
  <path fill="currentColor" d="M2 4V22H27V4H2ZM19.9688 7C20.4323 7 20.8854 7.13196 21.2709 7.37919C21.6563 7.62643 21.9567 7.97783 22.1341 8.38896C22.3115 8.8001 22.3579 9.2525 22.2675 9.68895C22.177 10.1254 21.9538 10.5263 21.626 10.841C21.2983 11.1557 20.8806 11.37 20.426 11.4568C19.9713 11.5436 19.5001 11.499 19.0718 11.3287C18.6436 11.1584 18.2775 10.87 18.02 10.5C17.7625 10.13 17.625 9.69501 17.625 9.25C17.625 8.65326 17.8719 8.08097 18.3115 7.65901C18.751 7.23705 19.3471 7 19.9688 7ZM5.125 19L11.7656 10.75L15.5938 15.505L17.625 13L22.4844 19H5.125Z"/>
</svg>
