<?xml version="1.0"?>
<svg xmlns="http://www.w3.org/2000/svg" viewBox="0 0 1280 500" fill="none">
  <path stroke="#1A9FFF" d="M511.366 150.513C524.405 154.007 535.926 161.705 544.144 172.415C552.361 183.124 556.815 196.245 556.815 209.744C556.815 223.243 552.361 236.364 544.144 247.073C535.926 257.783 524.405 265.481 511.366 268.975M506.019 170.47C514.665 172.787 522.305 177.891 527.754 184.992C533.203 192.094 536.156 200.794 536.156 209.745C536.156 218.696 533.203 227.396 527.754 234.497C522.305 241.598 514.665 246.703 506.019 249.02M500.112 192.513C503.905 193.529 507.257 195.769 509.648 198.884C512.038 201.999 513.334 205.817 513.334 209.743C513.334 213.67 512.038 217.488 509.648 220.603C507.257 223.718 503.905 225.958 500.112 226.974" stroke-width="8.36184" stroke-linecap="round"/>
  <path stroke="#1A9FFF" d="M783.721 158.095C770.222 158.095 757.101 162.549 746.392 170.767C735.682 178.984 727.984 190.506 724.49 203.545C720.997 216.583 721.903 230.41 727.069 242.882C732.234 255.353 741.371 265.771 753.061 272.52M783.72 178.756C774.77 178.756 766.069 181.709 758.968 187.158C751.867 192.607 746.762 200.247 744.446 208.892C742.129 217.538 742.73 226.707 746.155 234.976C749.58 243.245 755.639 250.153 763.39 254.629M783.721 201.576C779.794 201.576 775.977 202.872 772.862 205.263C769.746 207.653 767.507 211.005 766.49 214.798C765.474 218.591 765.738 222.614 767.24 226.241C768.743 229.869 771.401 232.9 774.802 234.864" stroke-width="8.36184" stroke-linecap="round"/>
  <path fill="currentColor" d="M470.847 372.137H174V338.654H470.845V326.111H174V91.9805H470.847V372.137ZM452.367 344.121C446.112 344.121 441.042 349.192 441.042 355.446C441.042 361.701 446.112 366.772 452.367 366.772C458.622 366.772 463.692 361.701 463.692 355.446C463.692 349.192 458.622 344.121 452.367 344.121ZM194.861 361.408H221.685V350.082H194.861V361.408ZM253.277 361.408H280.102V350.082H253.277V361.408ZM310.503 361.406H333.75V358.426H310.503V361.406ZM430.313 353.657C429.326 353.657 428.525 354.458 428.525 355.445C428.525 356.433 429.326 357.233 430.313 357.233C431.301 357.233 432.102 356.433 432.102 355.445C432.102 354.458 431.301 353.657 430.313 353.657Z"/>
  <path fill="currentColor" d="M943.428 209.016L943.123 205.097L949.773 207.97L947.286 210.666L943.428 209.016Z"/>
  <path fill="currentColor" d="M957.276 198.916C959.504 198.916 961.312 200.796 961.312 203.111C961.312 205.426 959.504 207.305 957.276 207.306H957.186L953.544 210.006V210.15C953.544 211.885 952.188 213.303 950.511 213.303C949.048 213.303 947.815 212.218 947.544 210.774L943.441 209.015L948.817 207.554C949.302 207.203 949.895 207.007 950.52 207.007H950.691L953.24 203.162C953.24 203.162 953.24 203.129 953.24 203.111C953.24 200.796 955.049 198.916 957.276 198.916ZM951.396 207.963C950.838 207.724 950.245 207.732 949.719 207.938L951.075 208.519C951.93 208.886 952.333 209.902 951.979 210.791C951.626 211.679 950.64 212.098 949.793 211.73H949.785L948.47 211.167C948.7 211.671 949.103 212.09 949.646 212.329C950.804 212.833 952.136 212.26 952.621 211.056C952.851 210.475 952.859 209.834 952.621 209.244C952.391 208.663 951.955 208.202 951.396 207.963ZM957.284 200.317C955.805 200.318 954.597 201.573 954.597 203.11C954.597 204.648 955.805 205.904 957.284 205.904C958.764 205.904 959.973 204.648 959.973 203.11C959.972 201.573 958.764 200.317 957.284 200.317ZM957.284 201.001C958.402 201.001 959.307 201.941 959.307 203.103C959.306 204.264 958.402 205.204 957.284 205.204C956.167 205.204 955.263 204.264 955.263 203.103C955.263 201.941 956.166 201.001 957.284 201.001Z"/>
  <path fill="currentColor" d="M1020.26 158.731C1022.6 153.727 1033.11 154.227 1043.12 155.729C1053.13 157.23 1059.97 160.901 1063.8 164.237C1066.87 166.907 1068.42 172.69 1068.81 175.248C1072.64 178.251 1076.98 185.592 1078.98 189.596C1080.59 192.799 1093 239.201 1099 262.001C1101.84 273.68 1107.05 302.642 1105.18 325.063C1102.84 353.09 1088.83 360.265 1086.83 362.434C1084.82 364.602 1070.31 370.608 1060.8 368.105C1051.29 365.603 1047.62 357.762 1045.62 353.258C1043.62 348.753 1038.28 339.411 1032.77 335.073C1028.37 331.603 1022.71 330.847 1020.43 330.902H886.961C884.425 330.902 881.566 331.347 880.454 331.569C871.779 333.405 864.271 343.248 860.101 352.924C855.93 362.6 850.758 370.441 834.742 368.105C818.726 365.77 812.053 357.762 806.214 347.085C800.375 336.408 800.709 314.052 800.375 304.376C800.108 296.635 805.269 269.453 807.883 256.829L821.229 207.947C822.064 204.611 824.298 196.402 826.567 190.263C828.836 184.123 834.52 177.472 837.078 174.914C836.678 172.912 838.69 168.964 839.747 167.24C843.417 160.734 853.762 157.897 857.766 156.562C861.77 155.228 877.118 154.227 881.622 155.729C885.226 156.93 886.238 160.233 886.294 161.734L948.188 160.233L1010.08 161.234L1019.43 161.567L1020.26 158.731ZM879.38 249.534C872.664 248.355 866.264 252.843 865.085 259.559L858.22 298.661C857.041 305.377 861.53 311.776 868.245 312.955L908.968 320.105C915.683 321.284 922.083 316.795 923.262 310.08L930.127 270.978C931.306 264.262 926.818 257.863 920.103 256.684L879.38 249.534ZM1040.31 259.559C1039.13 252.843 1032.73 248.355 1026.01 249.534L985.292 256.684C978.577 257.863 974.088 264.262 975.267 270.978L982.132 310.08C983.311 316.796 989.711 321.285 996.427 320.105L1037.15 312.955C1043.86 311.776 1048.35 305.377 1047.17 298.661L1040.31 259.559ZM907.782 210.995C897.554 210.995 889.263 219.286 889.263 229.515C889.263 239.743 897.554 248.035 907.782 248.035C918.01 248.035 926.302 239.743 926.302 229.515C926.302 219.286 918.01 210.995 907.782 210.995ZM996.676 210.995C986.448 210.995 978.156 219.286 978.156 229.515C978.156 239.743 986.448 248.035 996.676 248.035C1006.9 248.035 1015.2 239.743 1015.2 229.515C1015.2 219.286 1006.9 210.995 996.676 210.995ZM1047.11 213.085C1041.68 213.085 1037.27 217.493 1037.27 222.929C1037.27 228.365 1041.68 232.771 1047.11 232.771C1052.55 232.771 1056.95 228.365 1056.96 222.929C1056.96 217.493 1052.55 213.085 1047.11 213.085ZM858.471 181.72C856.623 181.72 853.181 182.477 851.333 182.918C850.594 183.094 850.083 183.757 850.083 184.517V195.067C850.083 195.989 849.335 196.735 848.414 196.735H837.893C837.197 196.735 836.575 197.167 836.375 197.834C835.931 199.318 835.233 202.12 835.233 205.076C835.233 208.033 835.932 210.836 836.376 212.32C836.576 212.986 837.196 213.418 837.892 213.418H848.414C849.335 213.418 850.083 214.166 850.083 215.087V225.618C850.083 226.309 850.507 226.926 851.165 227.137C852.703 227.628 855.645 228.433 858.425 228.433C861.204 228.433 864.144 227.629 865.683 227.138C866.341 226.927 866.766 226.309 866.766 225.618V215.087C866.766 214.166 867.512 213.418 868.434 213.418H878.972C879.659 213.418 880.274 212.997 880.476 212.34C880.92 210.89 881.613 208.137 881.613 205.076C881.613 202.016 880.92 199.265 880.476 197.814C880.274 197.157 879.658 196.735 878.971 196.735H868.434C867.512 196.735 866.766 195.989 866.766 195.067V184.511C866.765 183.754 866.257 183.093 865.521 182.915C863.697 182.474 860.314 181.72 858.471 181.72ZM952.685 194.399C946.696 194.399 941.841 199.255 941.841 205.244C941.841 211.233 946.696 216.088 952.685 216.088C958.673 216.088 963.528 211.233 963.528 205.244C963.528 199.255 958.674 194.399 952.685 194.399ZM1029.09 195.067C1023.66 195.067 1019.25 199.474 1019.25 204.91C1019.25 210.346 1023.66 214.753 1029.09 214.753C1034.53 214.753 1038.94 210.346 1038.94 204.91C1038.94 199.474 1034.53 195.067 1029.09 195.067ZM1064.79 195.067C1059.36 195.067 1054.95 199.474 1054.95 204.91C1054.95 210.346 1059.36 214.753 1064.79 214.753C1070.23 214.753 1074.64 210.346 1074.64 204.91C1074.64 199.474 1070.23 195.067 1064.79 195.067ZM1046.78 177.717C1041.34 177.717 1036.93 182.124 1036.93 187.56C1036.93 192.996 1041.34 197.403 1046.78 197.403C1052.21 197.403 1056.62 192.996 1056.62 187.56C1056.62 182.124 1052.21 177.717 1046.78 177.717Z"/>
  <path fill="currentColor" d="M994.873 320.278C994.7 320.287 994.527 320.29 994.354 320.291C994.527 320.29 994.7 320.287 994.873 320.278ZM1026.79 253.911C1031.08 253.157 1035.18 256.03 1035.93 260.327L1042.8 299.429C1043.55 303.726 1040.68 307.822 1036.38 308.577L995.661 315.728C991.363 316.482 987.266 313.609 986.512 309.312L979.647 270.209C978.893 265.911 981.766 261.815 986.063 261.061L1026.79 253.911ZM982.808 312.475C982.946 312.826 983.1 313.169 983.268 313.503C983.1 313.169 982.946 312.826 982.808 312.475ZM1039.11 312.444C1038.97 312.493 1038.83 312.541 1038.68 312.585C1038.83 312.541 1038.97 312.493 1039.11 312.444ZM982.505 311.611C982.549 311.755 982.597 311.898 982.646 312.039C982.597 311.898 982.549 311.755 982.505 311.611ZM1047.28 302.26C1047.42 301.09 1047.39 299.88 1047.18 298.66L1040.31 259.559C1040.21 258.976 1040.07 258.411 1039.89 257.864C1040.07 258.411 1040.21 258.976 1040.31 259.558L1047.18 298.66C1047.39 299.88 1047.42 301.09 1047.28 302.26ZM975.176 267.313C975.152 267.507 975.132 267.702 975.117 267.897C975.132 267.702 975.152 267.507 975.176 267.313ZM1039.65 257.185C1039.5 256.817 1039.34 256.459 1039.17 256.111C1039.34 256.459 1039.5 256.817 1039.65 257.185ZM984.677 256.808C984.65 256.814 984.623 256.82 984.596 256.826C984.621 256.82 984.646 256.814 984.672 256.809L984.677 256.808ZM1026.02 249.533H1026.02L985.295 256.683H985.294L1026.02 249.533ZM982.111 257.697C982.265 257.624 982.421 257.554 982.579 257.486C982.421 257.554 982.265 257.624 982.111 257.697ZM1038.94 255.688C1039.01 255.82 1039.08 255.952 1039.15 256.086C1039.08 255.952 1039.01 255.82 1038.94 255.688ZM983.654 257.088C983.696 257.075 983.737 257.06 983.779 257.047C983.737 257.06 983.696 257.075 983.654 257.088Z"/>
  <path fill="currentColor" d="M910.531 320.278C910.704 320.286 910.876 320.289 911.048 320.291C910.876 320.289 910.704 320.286 910.531 320.278ZM909.29 320.156C909.458 320.181 909.626 320.201 909.794 320.219C909.731 320.212 909.668 320.207 909.604 320.199L909.29 320.156ZM869.472 260.327C870.226 256.029 874.322 253.156 878.619 253.911L919.342 261.06C923.639 261.815 926.512 265.911 925.758 270.208L918.893 309.311C918.138 313.609 914.042 316.482 909.744 315.727L869.021 308.578C864.724 307.823 861.852 303.727 862.606 299.429L869.472 260.327ZM922.598 312.473C922.405 312.962 922.181 313.433 921.932 313.886C922.181 313.433 922.405 312.962 922.598 312.473ZM866.888 312.634C867.134 312.707 867.383 312.773 867.637 312.831C867.383 312.773 867.134 312.707 866.888 312.634ZM923.211 310.393C923.139 310.751 923.05 311.102 922.948 311.447C923.05 311.101 923.139 310.748 923.212 310.388L923.211 310.393ZM858.158 299.112C858.038 299.979 858.012 300.839 858.072 301.681C858.012 300.839 858.038 299.979 858.158 299.112ZM930.291 267.958C930.361 268.945 930.315 269.958 930.136 270.977C930.315 269.958 930.361 268.945 930.291 267.958ZM866.251 256.085C865.753 257.064 865.379 258.124 865.152 259.25L865.094 259.558C865.312 258.317 865.708 257.152 866.251 256.085ZM921.625 257.046C921.331 256.956 921.032 256.876 920.729 256.807L920.733 256.808C921.036 256.877 921.333 256.956 921.625 257.046ZM878.76 249.439L879.073 249.482C878.94 249.462 878.806 249.446 878.673 249.43C878.702 249.434 878.731 249.435 878.76 249.439ZM866.439 312.494C866.36 312.467 866.281 312.44 866.203 312.412C866.281 312.44 866.36 312.467 866.439 312.494ZM858.197 302.742C858.175 302.603 858.152 302.464 858.135 302.324C858.152 302.464 858.175 302.603 858.197 302.742ZM858.178 298.975L858.179 298.97C858.172 299.017 858.165 299.065 858.158 299.112C858.165 299.066 858.171 299.021 858.178 298.975ZM930.185 267.012C930.2 267.112 930.216 267.212 930.229 267.313C930.216 267.212 930.2 267.112 930.185 267.012ZM921.935 257.147C921.956 257.154 921.978 257.162 921.999 257.169C921.978 257.162 921.956 257.154 921.935 257.147Z"/>
  <circle fill="currentColor" cx="907.785" cy="229.516" r="14.0751"/>
  <circle fill="currentColor" cx="996.683" cy="229.514" r="14.0751"/>
</svg>
