<?xml version="1.0"?>
<svg xmlns="http://www.w3.org/2000/svg" viewBox="0 0 500 200" fill="none">
  <mask fill="currentColor" id="">
    <path d="M298.422 39.0518C314.908 39.0518 328.889 51.165 331.237 67.4824L339.13 122.344C341.497 138.794 331.41 153.823 316.506 158.624L313.514 151.646C310.528 144.683 303.68 140.168 296.103 140.168H210.874C203.298 140.168 196.449 144.683 193.463 151.646L189.88 160.001C171.594 157.922 158.181 141.05 160.873 122.344L168.766 67.4824C171.114 51.165 185.095 39.0518 201.581 39.0518H298.422Z"/>
  </mask>
  <path fill="currentColor" d="M331.237 67.4824L335.898 66.8118L335.898 66.8117L331.237 67.4824ZM339.13 122.344L343.791 121.673V121.673L339.13 122.344ZM316.506 158.624L312.178 160.48L313.868 164.421L317.95 163.106L316.506 158.624ZM313.514 151.646L309.186 153.502L309.186 153.502L313.514 151.646ZM210.874 140.168V135.459H210.874L210.874 140.168ZM193.463 151.646L197.791 153.503L197.791 153.502L193.463 151.646ZM189.88 160.001L189.348 164.68L192.828 165.075L194.208 161.857L189.88 160.001ZM160.873 122.344L156.211 121.673L156.211 121.673L160.873 122.344ZM168.766 67.4824L164.105 66.8117L164.105 66.8118L168.766 67.4824ZM298.422 39.0518V43.7609C312.566 43.7609 324.561 54.1535 326.576 68.1531L331.237 67.4824L335.898 66.8117C333.216 48.1765 317.25 34.3427 298.422 34.3427V39.0518ZM331.237 67.4824L326.576 68.1531L334.469 123.014L339.13 122.344L343.791 121.673L335.898 66.8118L331.237 67.4824ZM339.13 122.344L334.469 123.014C336.498 137.116 327.855 150.021 315.062 154.142L316.506 158.624L317.95 163.106C334.964 157.626 346.496 140.472 343.791 121.673L339.13 122.344ZM316.506 158.624L320.834 156.768L317.842 149.791L313.514 151.646L309.186 153.502L312.178 160.48L316.506 158.624ZM313.514 151.646L317.842 149.791C314.114 141.096 305.563 135.459 296.103 135.459V140.168V144.877C301.796 144.877 306.942 148.27 309.186 153.502L313.514 151.646ZM296.103 140.168V135.459H210.874V140.168V144.877H296.103V140.168ZM210.874 140.168L210.874 135.459C201.414 135.459 192.864 141.096 189.135 149.791L193.463 151.646L197.791 153.502C200.035 148.27 205.181 144.877 210.875 144.877L210.874 140.168ZM193.463 151.646L189.135 149.79L185.552 158.145L189.88 160.001L194.208 161.857L197.791 153.503L193.463 151.646ZM189.88 160.001L190.412 155.322C174.73 153.539 163.225 139.059 165.534 123.014L160.873 122.344L156.211 121.673C153.137 143.042 168.457 162.305 189.348 164.68L189.88 160.001ZM160.873 122.344L165.534 123.014L173.427 68.1531L168.766 67.4824L164.105 66.8118L156.211 121.673L160.873 122.344ZM168.766 67.4824L173.427 68.1531C175.442 54.1535 187.437 43.7609 201.581 43.7609V39.0518V34.3427C182.753 34.3427 166.786 48.1765 164.105 66.8117L168.766 67.4824ZM201.581 39.0518V43.7609H298.422V39.0518V34.3427H201.581V39.0518Z" mask=""/>
  <circle stroke="currentColor" cx="249.565" cy="64.6265" r="6.17034" stroke-width="4.7091"/>
</svg>
