<?xml version="1.0"?>
<svg width="47" height="22" viewBox="0 0 47 22" fill="none" xmlns="http://www.w3.org/2000/svg">
  <path d="M36.4525 0.983032C34.3364 0.983032 32.2684 1.65634 30.5371 2.90676C30.4409 2.95486 29.9599 3.3396 29.9599 3.38769L23.7078 8.48558L17.5038 3.43579C17.3595 3.3396 16.3976 2.57011 16.1091 2.42583C14.5701 1.51206 12.7426 1.03113 10.915 1.03113C5.33619 1.03113 0.767334 5.59999 0.767334 11.1788C0.767334 16.7576 5.33619 21.3265 10.915 21.3265C13.0311 21.3265 15.0991 20.6532 16.8305 19.4028C16.9267 19.3547 17.4076 18.9699 17.4557 18.9218L23.7078 13.8239L29.9119 18.8737C30.0561 18.9699 31.0661 19.7394 31.3066 19.8837C32.8455 20.7975 34.6731 21.2784 36.5006 21.2784C42.0795 21.2784 46.6483 16.7095 46.6483 11.1307C46.6483 5.55189 42.0795 0.983032 36.4525 0.983032ZM14.4739 15.94C13.4159 16.7095 12.2135 17.1424 10.915 17.1424C7.64467 17.1424 4.95145 14.4491 4.95145 11.1788C4.95145 7.90846 7.64467 5.21524 10.915 5.21524C11.9731 5.21524 13.0311 5.5038 13.9449 6.03282C14.1373 6.12901 14.7144 6.56185 14.8106 6.65804L20.3894 11.1788C20.3894 11.1788 14.522 15.8919 14.4739 15.94ZM36.4525 17.1424C35.3945 17.1424 34.3364 16.8538 33.4227 16.3248C33.2303 16.2286 32.6532 15.7958 32.557 15.6996L26.9782 11.1788L32.8455 6.41757C33.9036 5.64808 35.1059 5.21524 36.4044 5.21524C39.6748 5.21524 42.368 7.90846 42.368 11.1788C42.368 14.4491 39.771 17.1424 36.4525 17.1424Z" fill=""/>
</svg>
