<?xml version="1.0"?>
<svg xmlns="http://www.w3.org/2000/svg" viewBox="0 0 69.25 32">
  <path fill="currentColor" d="M68.96,6.573c0,0.714-0.042,1.294-0.133,1.739
				c-0.031,0.298-0.12,0.61-0.269,0.937c-0.057,0.149-0.116,0.281-0.177,0.4h-13.87l-0.179-0.133l-0.269,0.089h-10.66l-0.267,0.18
				l-0.401-0.136h-4.504V8.847h-1.516V8.18h-0.937v1.56l0.225,0.179v0.758l-0.225,0.179l-0.089,1.516H25.565
				c-0.06,0-0.119,0.028-0.179,0.089c-0.149,0.119-0.266,0.281-0.358,0.492c-0.118,0.325-0.712,1.783-1.781,4.37
				c-0.151,0.267-0.298,0.43-0.448,0.489c-0.088,0.06-0.327,0.104-0.713,0.134l-4.638,0.178c-0.178-0.089-0.4-0.178-0.67-0.266
				c-0.475-0.209-0.862-0.329-1.16-0.356c-0.326-0.06-0.55-0.091-0.668-0.091c-0.12,0.031-0.341,0.074-0.667,0.135
				c-0.271,0.088-0.536,0.12-0.805,0.088l-0.313-0.088l-2.275,9.633l-0.089,1.069l0.491,0.714l-9.588-0.089
				c0-0.564,0.03-1.292,0.09-2.184c0.179-1.786,0.46-3.479,0.847-5.086c0.415-1.635,0.951-3.167,1.605-4.594
				c0.029-0.087,0.238-0.522,0.625-1.293c0.178-0.386,0.283-0.655,0.311-0.802c0.091-0.356,0.015-0.641-0.223-0.848
				c-0.179-0.179-0.563-0.372-1.159-0.579c-0.597-0.209-0.982-0.341-1.16-0.401c-0.238-0.09-0.358-0.208-0.358-0.357
				c-0.029-0.208-0.014-0.551,0.046-1.026l0.089-0.668l-1.651-0.178c-0.119,0-0.224-0.031-0.312-0.091
				c-0.208-0.148-0.298-0.34-0.269-0.578c0.06-0.299,0.255-0.447,0.581-0.447c0.179-0.031,0.342-0.015,0.49,0.046L1.48,8.624
				l1.339,0.848l0.58-2.899l0.937-1.784V4.03l0.714,0.402l2.854,0.045l0.269,0.221h9.722v0.18h5.44V4.743h9.368V3.538h2.229
				l0.267,0.315v0.803l0.312-0.044l0.313,0.399v0.716h0.893V5.102h1.338V3.806h4.639l0.311-0.177l0.401,0.177h10.66l0.311,0.046
				l0.314-0.132h13.693l0.223,0.266c0.119,0.268,0.209,0.581,0.268,0.936C68.901,5.368,68.932,5.918,68.96,6.573z M22.978,12.46
				l-5.083,0.045c-0.506,0.504-0.864,0.877-1.07,1.115c-0.327,0.416-0.506,0.653-0.536,0.714c-0.208,0.327-0.327,0.698-0.354,1.114
				c-0.033,0.208,0,0.505,0.087,0.892c0.059,0.178,0.118,0.33,0.178,0.446l-0.312,0.223c-0.148-0.207-0.268-0.46-0.356-0.759
				c-0.237-0.534-0.342-0.981-0.313-1.336c0.06-0.594,0.283-1.146,0.67-1.65c0.149-0.239,0.312-0.433,0.491-0.581
				c-0.208,0.029-0.444,0.089-0.715,0.178c-0.534,0.179-0.921,0.386-1.159,0.625c-0.327,0.355-0.534,0.743-0.624,1.159
				c-0.119,0.446-0.09,0.862,0.09,1.248c0.177,0.356,0.431,0.656,0.757,0.893c0.327,0.239,0.713,0.4,1.16,0.491
				c0.268,0.028,0.7,0.045,1.293,0.045c0.505-0.031,0.833,0,0.98,0.088c0.209,0.06,0.938,0.091,2.187,0.091
				c1.189-0.031,1.843-0.077,1.962-0.135c0.147-0.088,0.446-0.756,0.892-2.005l0.67-1.875c0-0.089,0-0.181,0-0.269
				c0-0.178-0.031-0.327-0.09-0.446c-0.12-0.119-0.284-0.207-0.491-0.267L22.978,12.46z"/>
</svg>
