<?xml version="1.0"?>
<svg width="36" height="36" viewBox="0 0 36 36" fill="none" xmlns="http://www.w3.org/2000/svg">
  <path d="M32.7523 20.7077L32.7541 20.708L32.7547 20.7049C32.8148 20.3751 32.8642 20.0412 32.9026 19.7038C32.864 20.0376 32.814 20.3724 32.7523 20.7077Z" fill="currentColor "/>
  <path d="M32.9694 18.9467L30.5041 18.7871L30.5039 18.7902C30.4907 18.9936 30.4725 19.1976 30.4492 19.4021C30.4776 19.1477 30.4986 18.8909 30.5117 18.6319C30.5399 18.0778 30.5316 17.5304 30.489 16.9918L30.4888 16.9887L32.953 16.7938L32.9533 16.7969C33.0041 17.4406 33.0139 18.0951 32.9802 18.7573C32.977 18.8206 32.9734 18.8837 32.9694 18.9467Z" fill="currentColor "/>
  <path d="M27.5399 26.121C27.859 25.7468 28.1571 25.3526 28.432 24.9398L28.4326 24.939L30.4892 26.3085C30.8858 25.7136 31.2413 25.0883 31.5513 24.4363L31.5518 24.4355L29.319 23.3738L29.3186 23.3746C28.8452 24.3702 28.245 25.2915 27.5399 26.1187L27.5388 26.1201L27.5399 26.121Z" fill="currentColor "/>
  <path d="M24.6599 31.4394L24.6582 31.4402C24.1299 31.7025 23.5854 31.9342 23.0274 32.1334L23.028 32.1349L23.0289 32.1346C24.2724 31.6914 25.4429 31.088 26.514 30.3482L26.5154 30.3472L25.1107 28.3133L25.1092 28.3144C24.6171 28.6541 24.1 28.9594 23.5614 29.227L24.6599 31.4394Z" fill="currentColor "/>
  <path d="M17.0447 32.9697L17.2044 30.5047L17.2012 30.5045C16.9368 30.4874 16.6715 30.4618 16.4055 30.4275C16.7198 30.4673 17.038 30.4957 17.3597 30.512C17.9138 30.5402 18.4612 30.5319 18.9998 30.4893L19.0029 30.489L19.1979 32.9533L19.1948 32.9536C18.551 33.0043 17.8966 33.0142 17.2343 32.9805C17.171 32.9773 17.1078 32.9737 17.0447 32.9697Z" fill="currentColor "/>
  <path d="M16.1032 32.8807C15.8285 32.8461 15.5563 32.8041 15.2867 32.755L15.2836 32.7544L15.2839 32.7529C15.5574 32.8032 15.8306 32.8458 16.1032 32.8807Z" fill="currentColor "/>
  <path d="M9.68314 30.4895L11.0524 28.4332L11.0516 28.4326C10.6388 28.1577 10.2445 27.8596 9.87032 27.5404L9.87152 27.539L9.87288 27.5402C10.7002 28.2453 11.6214 28.8455 12.617 29.3189L12.6179 29.3193L11.5562 31.552L11.5553 31.5516C10.9033 31.2416 10.278 30.8861 9.68314 30.4895Z" fill="currentColor "/>
  <path d="M4.552 24.6605L4.5512 24.6589C4.28885 24.1305 4.05715 23.5859 3.85793 23.0278L3.85669 23.0283L3.85702 23.0292C4.30026 24.2727 4.90361 25.4431 5.64341 26.5142L5.64442 26.5157L7.67827 25.111L7.67725 25.1095C7.33753 24.6175 7.03227 24.1004 6.76476 23.5619L4.552 24.6605Z" fill="currentColor "/>
  <path d="M3.02188 17.0454C3.0179 17.1083 3.0143 17.1714 3.01109 17.2346C2.97744 17.8968 2.98727 18.5512 3.03806 19.195L3.03831 19.1981L5.50256 19.0032L5.50232 19.0001C5.45971 18.4615 5.45144 17.9141 5.47959 17.36C5.4971 17.0154 5.52837 16.6747 5.57285 16.3385C5.53406 16.6272 5.50551 16.9151 5.48694 17.2019L5.48674 17.205L3.02188 17.0454Z" fill="currentColor "/>
  <path d="M3.23858 15.2841C3.19238 15.5352 3.15272 15.786 3.1195 16.0363C3.15241 15.7844 3.19151 15.5346 3.23663 15.2869L3.23719 15.2839L3.23858 15.2841Z" fill="currentColor "/>
  <path d="M5.5019 9.68375L7.55824 11.0531L7.55879 11.0523C7.83375 10.6393 8.13198 10.245 8.45123 9.87066L8.45257 9.8718L8.45141 9.87316C7.74631 10.7004 7.14614 11.6217 6.67275 12.6173L6.67233 12.6181L4.43957 11.5564L4.43999 11.5556C4.74999 10.9037 5.10539 10.2785 5.5019 9.68375Z" fill="currentColor "/>
  <path d="M11.3309 4.55263L11.3325 4.55184C11.8611 4.28944 12.4057 4.0577 12.9639 3.85847L12.9634 3.85696L12.9624 3.85729C11.7189 4.30054 10.5485 4.90388 9.47737 5.64368L9.4759 5.6447L10.8806 7.67854L10.8821 7.67753C11.374 7.33786 11.891 7.03266 12.4295 6.76518L11.3309 4.55263Z" fill="currentColor "/>
  <path d="M18.9461 3.02214C18.8832 3.01817 18.8202 3.01458 18.757 3.01137C18.0948 2.97772 17.4404 2.98754 16.7966 3.03833L16.7935 3.03858L16.9884 5.50284L16.9915 5.50259C17.5301 5.45999 18.0776 5.45171 18.6316 5.47986C18.9143 5.49423 19.1943 5.51785 19.4714 5.55042C19.2435 5.52316 19.0162 5.50225 18.7895 5.48758L18.7864 5.48737L18.9461 3.02214Z" fill="currentColor "/>
  <path d="M20.7074 3.23924C20.3955 3.18184 20.0841 3.13455 19.7735 3.09715C20.0871 3.13425 20.3976 3.18095 20.7047 3.23691L20.7077 3.23746L20.7074 3.23924Z" fill="currentColor "/>
  <path d="M26.1207 8.45181L26.1198 8.45285L26.1185 8.45169C25.2912 7.74659 24.3699 7.14642 23.3744 6.67302L23.3735 6.6726L24.4352 4.43985L24.4361 4.44027C25.0879 4.75027 25.7131 5.10568 26.3079 5.5022L24.9384 7.55888L24.9392 7.55942C25.3521 7.83437 25.7464 8.13258 26.1207 8.45181Z" fill="currentColor "/>
  <path d="M31.4388 11.3316L31.4396 11.3332C31.7019 11.8616 31.9337 12.4062 32.1329 12.9643L32.1347 12.9636L32.1343 12.9627C31.6911 11.7192 31.0877 10.5488 30.3479 9.47764L30.3469 9.47617L28.3131 10.8809L28.3141 10.8824C28.6538 11.3744 28.959 11.8914 29.2265 12.4299L31.4388 11.3316Z" fill="currentColor "/>
  <circle cx="17.9963" cy="17.9964" r="8.42106" transform="rotate(2.9087 17.9963 17.9964)" stroke="currentColor " stroke-width="2"/>
</svg>
