<?xml version="1.0"?>
<svg xmlns="http://www.w3.org/2000/svg" baseProfile="tiny" version="1.2" viewBox="0 0 36 36">
  <path fill="currentColor" d="M7.4,29.2c-.7,0-1.4-.3-2-.8-.5-.5-.8-1.2-.8-2s.3-1.4.8-2c.5-.5,1.2-.8,2-.8,0,0,0,0,0,0,.7,0,1.4.3,2,.8,1.1,1.1,1.1,2.9,0,4-.5.5-1.2.8-2,.8h0ZM7.4,24.6c-.5,0-.9.2-1.3.5-.3.3-.5.8-.5,1.3s.2.9.5,1.3c.3.3.8.5,1.3.5.5,0,.9-.2,1.3-.5.7-.7.7-1.8,0-2.5h0c-.3-.4-.8-.5-1.3-.5ZM7.4,20.8c-.7,0-1.4-.3-2-.8-1.1-1.1-1.1-2.9,0-3.9,1.1-1.1,2.9-1.1,3.9,0,1.1,1.1,1.1,2.9,0,3.9-.5.5-1.2.8-2,.8ZM7.4,16.2c-.5,0-.9.2-1.3.5-.7.7-.7,1.8,0,2.5.7.7,1.9.7,2.5,0,.7-.7.7-1.8,0-2.5-.3-.3-.8-.5-1.3-.5Z" stroke-width="0"/>
  <path fill="currentColor" d="M15,11.1h15.4c.5,0,1-.3,1.3-.8.3-.5.3-1.1,0-1.5-.3-.5-.8-.8-1.3-.8h-15.4c-.5,0-1,.3-1.3.8-.3.5-.3,1.1,0,1.5.3.5.8.8,1.3.8ZM15,19.5h15.4c.5,0,1-.3,1.3-.8.3-.5.3-1.1,0-1.5-.3-.5-.8-.8-1.3-.8h-15.4c-.5,0-1,.3-1.3.8-.3.5-.3,1.1,0,1.5.3.5.8.8,1.3.8ZM15,27.9h15.4c.5,0,1-.3,1.3-.8.3-.5.3-1.1,0-1.5-.3-.5-.8-.8-1.3-.8h-15.4c-.5,0-1,.3-1.3.8-.3.5-.3,1.1,0,1.5.3.5.8.8,1.3.8Z" stroke-width="0"/>
  <polygon fill="currentColor" points="7 12 4.4 9.3 5.9 7.9 7 9.4 9.9 5.6 11.5 6.9 7 12" stroke-width="0"/>
</svg>
