<?xml version="1.0"?>
<svg width="36" height="36" viewBox="0 0 36 36" fill="none" xmlns="http://www.w3.org/2000/svg">
  <path d="M11.45 26.5H7.625L1 9H5.025L9.625 22.325L14.1 9H18.125L11.45 26.5Z" fill="currentColor"/>
  <path d="M34.552 26.5H30.477L26.952 20.6H26.527H23.927V26.5H20.252V9H26.802C29.202 9 30.9686 9.48333 32.102 10.45C33.2353 11.4 33.802 12.7333 33.802 14.45C33.802 15.8 33.502 16.925 32.902 17.825C32.3186 18.725 31.4936 19.4083 30.427 19.875L34.552 26.5ZM23.927 12.125V17.45H26.802C27.7686 17.45 28.5186 17.2083 29.052 16.725C29.602 16.225 29.877 15.5417 29.877 14.675C29.877 13.825 29.6103 13.1917 29.077 12.775C28.5603 12.3417 27.727 12.125 26.577 12.125H23.927Z" fill="currentColor"/>
</svg>
