<?xml version="1.0"?>
<svg width="36" height="36" viewBox="0 0 36 36" fill="none">
  <g clip-path="">
    <path d="M10 36.0498H26C26 33.9281 25.1571 31.8932 23.6569 30.393C22.1566 28.8927 20.1217 28.0498 18 28.0498C15.8783 28.0498 13.8434 28.8927 12.3431 30.393C10.8429 31.8932 10 33.9281 10 36.0498Z" fill="currentColor"/>
    <path d="M20.5001 24.2914C19.76 24.7859 18.89 25.0498 18 25.0498C17.4087 25.0511 16.8229 24.9356 16.2764 24.71C15.7298 24.4843 15.2332 24.1529 14.8151 23.7347C14.397 23.3166 14.0655 22.82 13.8399 22.2734C13.6142 21.7269 13.4987 21.1411 13.5 20.5498C13.5 19.6598 13.7639 18.7898 14.2584 18.0497C14.7529 17.3097 15.4557 16.7329 16.2779 16.3923C17.1002 16.0518 18.005 15.9626 18.8779 16.1363C19.7508 16.3099 20.5526 16.7385 21.182 17.3678C21.8113 17.9972 22.2399 18.799 22.4135 19.6719C22.5872 20.5448 22.4981 21.4496 22.1575 22.2719C21.8169 23.0942 21.2401 23.797 20.5001 24.2914Z" fill="currentColor"/>
    <path d="M24.5 3L25.6 6.41C25.7467 6.88667 26.1133 7.25333 26.59 7.4L30 8.5L26.59 9.6C26.1133 9.74667 25.7467 10.1133 25.6 10.59L24.5 14L23.4 10.59C23.2533 10.1133 22.8867 9.74667 22.41 9.6L19 8.5L22.41 7.4C22.8867 7.25333 23.2533 6.88667 23.4 6.41L24.5 3Z" fill="currentColor"/>
    <path d="M29.5 19L30.2 20.88C30.2933 21.12 30.5267 21.32 30.8067 21.4L33 22L30.8067 22.6C30.5267 22.68 30.2933 22.88 30.2 23.12L29.5 25L28.8 23.12C28.7067 22.88 28.4733 22.68 28.1933 22.6L26 22L28.1933 21.4C28.4733 21.32 28.7067 21.12 28.8 20.88L29.5 19Z" fill="currentColor"/>
    <path d="M6.5 10L7.4 12.82C7.52 13.18 7.82 13.48 8.18 13.6L11 14.5L8.18 15.4C7.82 15.52 7.52 15.82 7.4 16.18L6.5 19L5.6 16.18C5.48 15.82 5.18 15.52 4.82 15.4L2 14.5L4.82 13.6C5.18 13.48 5.48 13.18 5.6 12.82L6.5 10Z" fill="currentColor"/>
  </g>
  <defs>
    <clipPath id="">
      <rect width="36" height="36" fill="currentColor"/>
    </clipPath>
  </defs>
</svg>
