<?xml version="1.0"?>
<svg xmlns="http://www.w3.org/2000/svg" viewBox="0 0 92.059 31.75">
  <path fill="currentColor" d="M35.679,8.482c0.671-0.123,1.207-0.293,1.608-0.513
	c0.455-0.247,0.874-0.417,1.261-0.513c0.43-0.107,0.862-0.132,1.296-0.075c0.38,0.05,0.625,0.114,0.735,0.192
	c0.056,0.039,0.074,0.072,0.053,0.102l0.664-0.445l3.021-0.071l0.12,0.437c0.14,0.291,0.349,0.434,0.628,0.427
	c0.279-0.006,0.494-0.152,0.646-0.44c0.078-0.143,0.125-0.285,0.143-0.428l0.721-0.018l0.081,0.512c0.11,0.345,0.3,0.527,0.57,0.548
	c0.271,0.02,0.493-0.137,0.668-0.472c0.089-0.167,0.149-0.335,0.183-0.508l0.744,0.031l0.08,0.494c0.106,0.333,0.297,0.51,0.57,0.53
	c0.276,0.024,0.504-0.125,0.681-0.445c0.09-0.16,0.152-0.323,0.188-0.486l0.712-0.017l0.111,0.556
	c0.132,0.375,0.333,0.572,0.605,0.592c0.273,0.021,0.495-0.135,0.664-0.467c0.083-0.167,0.14-0.334,0.17-0.503
	c16.556,1.43,29.404,5.79,38.545,13.079c-9.246,2.754-18.309,2.983-27.186,0.687c-4.219-4.158-9.479-6.108-15.783-5.85v2.899
	l-2.014-1.201c-0.085-0.455-0.29-0.899-0.61-1.336c-0.645-0.871-1.556-1.257-2.735-1.159c-0.992,0.086-1.74,0.531-2.245,1.336
	c-0.157,0.252-0.28,0.524-0.37,0.815c-0.044,0.149-0.074,0.271-0.089,0.365L39.6,19.939h-1.817l-0.37-0.343
	c0.044-0.434-0.036-0.898-0.241-1.396c-0.416-0.988-1.253-1.637-2.512-1.946c-1.229-0.299-2.288-0.034-3.176,0.798
	c-0.203,0.184-0.479,0.496-0.829,0.936c-0.252,0.315-0.434,0.482-0.543,0.504c-0.303,0.058-0.634,0.052-0.994-0.02
	c-0.351-0.071-0.658-0.187-0.922-0.351c-0.101-0.063-0.216-0.165-0.347-0.308c-0.187-0.203-0.304-0.325-0.352-0.369
	c-0.317-0.298-0.716-0.457-1.194-0.477c-0.787-0.033-1.996,0.074-3.625,0.324c-1.972,0.301-3.533,0.691-4.682,1.172
	c-1.42,0.594-2.564,1.134-3.435,1.617c-1.013,0.561-1.605,1.021-1.777,1.38c-0.152,0.313-0.247,0.619-0.285,0.918
	c-0.024,0.169-0.052,0.414-0.085,0.73c-0.057,0.304-0.104,0.493-0.143,0.57c-0.065,0.131-0.199,0.252-0.401,0.366
	c-0.419,0.23-0.655,0.358-0.708,0.383c-0.294,0.134-0.573,0.195-0.837,0.182c-0.324-0.014-1.113-0.337-2.37-0.966
	c-1.295-0.651-2.226-1.206-2.793-1.667c-0.897-0.727-1.79-1.556-2.677-2.484c-1.173-1.229-1.69-2.023-1.551-2.379
	c0.14-0.354,1.167-1.135,3.083-2.343c1.752-1.102,2.822-1.723,3.211-1.863c0.169-0.059,0.391-0.078,0.664-0.058
	c0.342,0.027,0.637,0.021,0.887-0.018C8.93,12.81,9.251,12.713,9.74,12.54c0.912-0.324,1.5-0.529,1.764-0.615
	c1.972-0.662,4.054-1.219,6.245-1.671c2.112-0.437,4.435-0.819,6.972-1.148c2.067-0.271,3.151-0.428,3.251-0.472
	c0.081-0.036,0.228-0.125,0.441-0.268c0.098-0.068,0.263-0.102,0.495-0.102c0.199,0,0.486-0.002,0.864-0.005
	c0.315,0.016,0.567,0.075,0.757,0.178c0.285,0.158,0.578,0.26,0.877,0.308c0.458,0.077,1.099,0.082,1.924,0.013
	C34.354,8.675,35.136,8.583,35.679,8.482z M5.594,17.641c0-0.288-0.101-0.533-0.303-0.734c-0.202-0.203-0.447-0.303-0.735-0.303
	c-0.288,0-0.533,0.1-0.735,0.303c-0.202,0.201-0.303,0.446-0.303,0.734s0.102,0.533,0.303,0.736c0.202,0.2,0.447,0.302,0.735,0.302
	c0.288,0,0.533-0.102,0.735-0.302C5.492,18.174,5.594,17.929,5.594,17.641z M43.68,9.115c0-0.3-0.105-0.555-0.316-0.766
	s-0.466-0.316-0.766-0.316s-0.555,0.105-0.766,0.316s-0.316,0.466-0.316,0.766c0,0.299,0.105,0.555,0.316,0.766
	c0.211,0.211,0.466,0.316,0.766,0.316s0.555-0.105,0.766-0.316C43.574,9.669,43.68,9.414,43.68,9.115z"/>
</svg>
