<?xml version="1.0"?>
<svg xmlns="http://www.w3.org/2000/svg" viewBox="0 0 36 36" fill="none">
  <path fill="currentColor" d="M2.63721 11.7308C2.77887 9.6309 4.5235 8 6.62814 8H29.3719C31.4765 8 33.2211 9.63091 33.3628 11.7308L34.712 31.7308C34.8678 34.0406 33.0362 36 30.7211 36H5.27893C2.96382 36 1.13218 34.0406 1.288 31.7308L2.63721 11.7308Z"/>
  <path fill="currentColor" d="M23.6518 28.0625H20.7178L18.1798 23.8145H17.8738H16.0018V28.0625H13.3558V15.4625H18.0718C19.7998 15.4625 21.0718 15.8105 21.8878 16.5065C22.7038 17.1905 23.1118 18.1505 23.1118 19.3865C23.1118 20.3585 22.8958 21.1685 22.4638 21.8165C22.0438 22.4645 21.4498 22.9565 20.6818 23.2925L23.6518 28.0625ZM16.0018 17.7125V21.5465H18.0718C18.7678 21.5465 19.3078 21.3725 19.6918 21.0245C20.0878 20.6645 20.2858 20.1725 20.2858 19.5485C20.2858 18.9365 20.0938 18.4805 19.7098 18.1805C19.3378 17.8685 18.7378 17.7125 17.9098 17.7125H16.0018Z"/>
  <path fill="currentColor" d="M24 0H12L18 6L24 0Z"/>
</svg>
