<?xml version="1.0"?>
<svg xmlns="http://www.w3.org/2000/svg" viewBox="0 0 36 36" fill="none">
  <path d="M33 13.3C33.0114 12.2663 32.7021 11.2545 32.1147 10.4038C31.5273 9.5532 30.6907 8.90553 29.72 8.54998C25.9132 7.45272 21.9604 6.94682 18 7.04998C14.0396 6.94682 10.0868 7.45272 6.28 8.54998C5.30932 8.90553 4.4727 9.5532 3.88531 10.4038C3.29791 11.2545 2.98862 12.2663 3 13.3L0 14.05V20.05L3 20.81C3.08508 22.0931 3.51701 23.3289 4.24968 24.3857C4.98235 25.4424 5.98826 26.2803 7.16 26.81L10.16 28.08C10.7695 28.3298 11.4453 28.3671 12.0785 28.1856C12.7117 28.0042 13.2654 27.6147 13.65 27.08C14.1242 26.3803 14.779 25.8222 15.5449 25.4648C16.3108 25.1074 17.1592 24.964 18 25.05C18.8449 24.9722 19.6951 25.1256 20.4595 25.4937C21.224 25.8619 21.874 26.4309 22.34 27.14C22.7246 27.6747 23.2782 28.0642 23.9115 28.2456C24.5447 28.4271 25.2205 28.3898 25.83 28.14L28.83 26.87C30.0017 26.3403 31.0076 25.5024 31.7403 24.4457C32.473 23.3889 32.9049 22.1531 32.99 20.87L35.99 20.11V14.11L33 13.3ZM22.16 13C20.9452 12.7243 19.7054 12.5735 18.46 12.55C16.9073 12.5083 15.3555 12.6595 13.84 13L13.16 10.08C14.925 9.68481 16.7318 9.50682 18.54 9.54998C19.988 9.57538 21.4292 9.75302 22.84 10.08L22.16 13Z" fill="currentColor"/>
</svg>
