<?xml version="1.0"?>
<svg xmlns="http://www.w3.org/2000/svg" viewBox="0 0 36 36" fill="none">
  <path fill="currentColor" d="M25.1181 30.1923C23.8364 31.4691 22.2052 32.3377 20.4303 32.6884C18.6554 33.0391 16.8165 32.8562 15.1454 32.1628C13.4744 31.4693 12.0462 30.2965 11.0411 28.7922C10.0359 27.2879 9.49891 25.5196 9.49776 23.7104L9.49776 7.91381C9.65271 6.56298 10.2991 5.31635 11.3139 4.41135C12.3286 3.50635 13.6408 3.00623 15.0005 3.00623C16.3601 3.00623 17.6723 3.50635 18.6871 4.41135C19.7018 5.31635 20.3482 6.56298 20.5032 7.9138L20.5032 23.9715H16.8086L16.7955 7.91381C16.7858 7.43731 16.5922 6.98305 16.2552 6.64605C15.9182 6.30905 15.4639 6.11542 14.9874 6.10568C14.5109 6.11542 14.0567 6.30905 13.7197 6.64605C13.3827 6.98305 13.189 7.43732 13.1793 7.91381L13.1858 23.717C13.2181 25.1446 13.8079 26.5028 14.829 27.5011C15.8501 28.4993 17.2214 29.0582 18.6494 29.0582C20.0773 29.0582 21.4486 28.4993 22.4697 27.5011C23.4908 26.5028 24.0806 25.1446 24.1129 23.717V6.45816L27.8271 6.42553L27.8075 23.717C27.8046 26.1465 26.8373 28.4755 25.1181 30.1923Z"/>
</svg>
