<?xml version="1.0"?>
<svg xmlns="http://www.w3.org/2000/svg" version="1.1" viewBox="0 0 1024 1024">
  <g>
    <g id="Layer_1">
      <g>
        <path d="M236.8,355.7h-58.6c-.7,85.4-.3,170.9-.7,256.4.2.8.3,1.7.3,2.5-.2,5-4.4,8.8-9.4,8.6-10.3.6-20.6.3-30.9.3,6.9,17,14.4,33.8,22.1,50.4,19.5-.7,41.6,3.6,58.2-9.3,15.1-11.1,19.7-30.8,19.4-48.6,0-86.8.2-173.7-.4-260.5Z"/>
        <path d="M455.9,539.6c14.1-35.5,30.9-69.9,45.9-104.9-18.3-2.1-39,3.8-55.9-3.3,8.2-27.5,23-52.8,33.5-79.5-19.9,0-40.1-.3-60.2,0-14.6,33.4-29.6,66.8-44.8,100-4.3,9.9-9.5,23.1-.5,32.1,11.6,10.5,28.5,6.4,42.7,7.4-9.8,24.9-22.8,48.5-31.1,73.9-4.6,12.6,6.9,25.5,19.4,25.5,22.7,1.5,45.6.2,68.4.6,7.4-16.6,14.9-33.2,22.2-50-13.3,0-26.9.9-39.8-1.7Z"/>
        <path d="M959.8,585.9c-1.2-25.2,4.9-53.6-10.7-75.6-13.3-18.7-37.3-23.7-58.8-24.1-1.3-30,5.9-65.3-16.3-89.8-20.6-23.1-53.9-23.2-82.4-22.1v-22.4h-59.5l-.4,22.7h-39.5v59.9c13.2-.1,26.4,0,39.5.3.4,17.4.4,34.7,0,51.9-19.8.3-39.6.3-59.4.3v59.8h59.5v127.2h59.5c0-42.4,0-84.7,0-127.1,29,0,57.9-.4,86.9,0,10.1-.9,21.8,6.3,21.5,17.5.8,15.9.8,31.8,0,47.6.3,5.4-3.8,10-9.1,10.3-16.6,1.2-33.1,0-49.7.6,7.3,17.2,14.4,34.6,22.7,51.4,27.3-1.6,60.7,5.3,81.5-17.2,19.8-18.3,13.8-47.2,14.7-71.2ZM831.8,486.9h-40.2c-.3-17.5-.4-35-.4-52.5,12.9,1.8,30.1-5.2,39.9,5.2,1.6,15.8.6,31.6.6,47.3Z"/>
        <path d="M618.5,434.3h37.5v-59.9h-136.4c0,19.9,0,40,.1,60h37.4v179.5c-17.8.2-35.7.2-53.6.2-9.2,19.9-18.3,39.8-27.3,59.8h199.7v-59.8c-19.1-.2-38.3,0-57.4-.2v-179.6Z"/>
        <path d="M900.4,433.7c11.1,0,22.3.6,33.4-.4,17.9-1.6,31.3-22.5,24.2-39.3-5.6-18.4-30.6-26.5-45.7-14.1-16.7,12.5-11.2,35.8-12,53.8Z"/>
        <path d="M78.6,434.2c-3.1,39.2-6.2,78.6-8.9,117.5-.7,8.9-2.6,17.7-5.7,26.1,10.1,23.1,20.1,46.1,30.9,68.8,24.1-32.2,33-72.8,35.5-112.2,2.1-33.5,5.8-67,7.1-100.6-19.6.8-39.2.5-58.9.5Z"/>
        <path d="M345.2,551.5c-2.8-39.1-5.9-78.2-8.9-117.2h-59.5c2.9,36.4,5.3,73,8.4,109.3s12.6,73.5,34.8,103.2c10.6-22.8,20.8-45.8,30.8-68.8-3.2-8.5-5.1-17.4-5.7-26.4Z"/>
        <path d="M378.1,609.4c-9.3,19.9-18.4,39.9-27.5,60,30.4,9,62.7,2.8,93.9,4.5,9.2-19.9,18.4-39.9,27.3-59.9-31.3-1.2-63.1,3.3-93.7-4.6Z"/>
      </g>
    </g>
  </g>
</svg>
