<?xml version="1.0"?>
<svg xmlns="http://www.w3.org/2000/svg" version="1.1" viewBox="0 0 1200 1200">
  <path d="m788.93 316.61h47.25c18.781 0 36.789 7.4609 50.086 20.758 13.293 13.273 20.762 31.293 20.762 50.09v472.32c0 18.801-7.4688 36.82-20.762 50.09-13.297 13.297-31.305 20.758-50.086 20.758h-472.34c-18.781 0-36.789-7.4609-50.082-20.758-13.293-13.27-20.766-31.289-20.766-50.09v-472.32c0-18.797 7.4727-36.816 20.766-50.09 13.293-13.297 31.301-20.758 50.082-20.758h47.25v-23.617c0-13.035 10.562-23.617 23.602-23.617 13.035 0 23.625 10.582 23.625 23.617v23.617h118.07v-23.617c0-13.035 10.59-23.617 23.625-23.617 13.035 0 23.625 10.582 23.625 23.617v23.617h118.07v-23.617c0-13.035 10.59-23.617 23.625-23.617s23.598 10.582 23.598 23.617zm-377.84 47.23h-47.25c-6.2578 0-12.262 2.4805-16.691 6.9219-4.4336 4.4141-6.9062 10.438-6.9062 16.695v70.848h519.54v-70.848c0-6.2578-2.4766-12.281-6.9062-16.695-4.4297-4.4414-10.434-6.9219-16.695-6.9219h-47.25v23.617c0 13.035-10.562 23.617-23.598 23.617s-23.625-10.582-23.625-23.617v-23.617h-118.07v23.617c0 13.035-10.59 23.617-23.625 23.617-13.035 0-23.625-10.582-23.625-23.617v-23.617h-118.07v23.617c0 13.035-10.59 23.617-23.625 23.617-13.039 0-23.602-10.582-23.602-23.617zm-70.848 141.7v354.24c0 6.2578 2.4727 12.281 6.9062 16.699 4.4297 4.4375 10.434 6.918 16.691 6.918h472.34c6.2617 0 12.266-2.4805 16.695-6.918 4.4297-4.418 6.9062-10.441 6.9062-16.699v-354.24z" fill-rule="evenodd"/>
</svg>
