<?xml version="1.0"?>
<svg xmlns="http://www.w3.org/2000/svg" viewBox="0 0 36 36" fill="none">
  <path d="M8.5 6C8.5 5.20888 8.7346 4.43552 9.17412 3.77772C9.61365 3.11992 10.2384 2.60723 10.9693 2.30448C11.7002 2.00173 12.5044 1.92252 13.2804 2.07686C14.0563 2.2312 14.769 2.61216 15.3284 3.17157C15.8878 3.73098 16.2688 4.44372 16.4231 5.21964C16.5775 5.99556 16.4983 6.79983 16.1955 7.53074C15.8928 8.26164 15.3801 8.88635 14.7223 9.32588C14.0645 9.76541 13.2911 10 12.5 10C11.4391 10 10.4217 9.57857 9.67157 8.82843C8.92143 8.07828 8.5 7.06087 8.5 6ZM12.5 13C10.5109 13 8.60322 13.7902 7.1967 15.1967C5.79018 16.6032 5 18.5109 5 20.5V25H8.2L9 34H16L16.8 25H20V20.5C20 18.5109 19.2098 16.6032 17.8033 15.1967C16.3968 13.7902 14.4891 13 12.5 13ZM23.5 13C22.8064 12.9989 22.1161 13.0966 21.45 13.29C23.0998 15.3309 23.9998 17.8757 24 20.5V29H20.46L20 34H27L27.8 25H31V20.5C31 18.5109 30.2098 16.6032 28.8033 15.1967C27.3968 13.7902 25.4891 13 23.5 13ZM23.5 10C24.2911 10 25.0645 9.76541 25.7223 9.32588C26.3801 8.88635 26.8928 8.26164 27.1955 7.53074C27.4983 6.79983 27.5775 5.99556 27.4231 5.21964C27.2688 4.44372 26.8878 3.73098 26.3284 3.17157C25.769 2.61216 25.0563 2.2312 24.2804 2.07686C23.5044 1.92252 22.7002 2.00173 21.9693 2.30448C21.2384 2.60723 20.6136 3.11992 20.1741 3.77772C19.7346 4.43552 19.5 5.20888 19.5 6C19.5 7.06087 19.9214 8.07828 20.6716 8.82843C21.4217 9.57857 22.4391 10 23.5 10Z" fill="currentColor"/>
</svg>
