<?xml version="1.0"?>
<svg xmlns="http://www.w3.org/2000/svg" viewBox="0 0 36 32" fill="none">
  <path fill="currentColor" fill-rule="evenodd" clip-rule="evenodd" d="M7.5 32C3.35786 32 0 27.5228 0 22V2C0 0.895431 0.671574 0 1.5 0H34.5C35.3284 0 36 0.895431 36 2V30C36 31.1046 35.3284 32 34.5 32H7.5ZM29.0743 20.714H23.0083L25.6183 18.554C26.6623 17.69 27.4363 16.91 27.9403 16.214C28.4443 15.506 28.6963 14.72 28.6963 13.856C28.6963 12.68 28.2583 11.774 27.3823 11.138C26.5063 10.502 25.3423 10.184 23.8903 10.184C23.0743 10.184 22.3063 10.298 21.5863 10.526C20.8783 10.754 20.2483 11.06 19.6963 11.444L20.5963 13.388C20.9683 13.136 21.4003 12.926 21.8923 12.758C22.3963 12.59 22.9123 12.506 23.4403 12.506C24.1483 12.506 24.7243 12.668 25.1683 12.992C25.6243 13.304 25.8523 13.772 25.8523 14.396C25.8523 14.78 25.7623 15.134 25.5823 15.458C25.4023 15.782 25.1623 16.088 24.8623 16.376C24.5743 16.664 24.1543 17.042 23.6023 17.51L23.2963 17.78L19.6603 20.804V23H29.0743V20.714ZM9.32458 23H17.7846V20.624H11.9706V10.4H9.32458V23Z"/>
</svg>
