<?xml version="1.0"?>
<svg xmlns="http://www.w3.org/2000/svg" viewBox="0 0 1500 584" fill="none">
  <path stroke="currentColor" d="M1096.49 407.741C1096.49 407.741 1096.49 413.694 1096.49 440.016C1096.49 466.338 1058.59 470.098 1039.45 470.098C1020.32 470.098 796.116 470.098 774.528 470.098C752.939 470.098 752.939 496.48 774.528 496.48C796.116 496.48 1058.25 496.48 1078.6 496.48C1098.95 496.48 1100.8 522.462 1078.6 522.462C1061.57 522.462 835.536 522.462 719.633 522.462C641.302 522.462 641.918 416.992 556.605 416.992C471.291 416.992 460.584 416.992 460.584 416.992" stroke-width="6.16783"/>
  <rect fill="currentColor" x="1079.22" y="399.106" width="35.7734" height="13.5692"/>
  <rect fill="currentColor" x="456.267" y="410.208" width="29.6056" height="13.5692"/>
  <rect fill="currentColor" x="446.398" y="413.909" width="29.6056" height="6.16783"/>
  <path fill="currentColor" d="M452.853 369.787C451.648 370.991 451.648 372.944 452.853 374.148L472.479 393.774C473.683 394.978 475.636 394.978 476.84 393.774C478.044 392.569 478.044 390.617 476.84 389.413L459.395 371.967L476.84 354.522C478.044 353.318 478.044 351.365 476.84 350.161C475.636 348.956 473.683 348.956 472.479 350.161L452.853 369.787ZM511.777 371.967L511.777 368.883L455.033 368.883L455.033 371.967L455.033 375.051L511.777 375.051L511.777 371.967Z"/>
  <path fill="currentColor" d="M149.22 486.58C106.09 506.33 68.23 523.66 10.32 523.66C6.95 523.66 3.51 523.6 0 523.48C2.49 556.91 25.96 583.08 79.44 583.08C158.09 583.08 231.52 520.88 290.09 520.88C307.56 520.88 317.18 523.38 320.92 523.38C324.66 523.38 330.85 520.77 334.29 516.96C339.28 511.44 346.16 467.92 349.44 455.65C351.58 447.65 353.26 441 354.79 435.4C254.55 438.36 198.65 463.95 149.23 486.58H149.22Z"/>
  <path fill="currentColor" d="M247.13 361.87H250.16V365.35C250.3 365.35 250.44 365.35 250.58 365.35C264.96 365.66 278.17 365.98 290.26 366.33V361.86H293.41C299.42 361.86 304.34 357.94 304.34 351.93C304.34 345.92 299.42 342 293.41 342H247.13C241.12 342 236.2 345.92 236.2 351.93C236.2 357.94 241.12 361.86 247.13 361.86V361.87Z"/>
  <path fill="currentColor" d="M73.3798 430.33C92.0598 421.42 110.11 415.46 122.4 411.41C124.97 410.56 127.19 409.83 129.15 409.16C170.92 394.86 204.69 387.14 215.54 384.81C208.36 381.59 200.07 380.77 191.95 383.07L80.3998 414.69C74.5698 416.34 71.1498 422.46 72.7998 428.29L73.3798 430.32V430.33Z"/>
  <path fill="currentColor" d="M374.39 448.67C371.27 448.18 368.1 449.39 366.15 451.88C365.39 452.84 364.84 453.73 364.51 454.44C358.69 467.03 357.04 480.17 359.48 494.61C362.63 513.28 373.67 526.33 381.16 533.28C389.9 527.5 381.66 511.85 383.83 493.26C387.31 463.36 393.97 462.3 386.32 453.58C384.09 451.03 379.77 449.51 374.39 448.67Z"/>
  <path fill="currentColor" d="M355.04 495.36C352.45 479.99 354.21 465.99 360.43 452.55C360.89 451.56 361.7 450.29 362.82 448.91C363.19 448.46 362.88 447.79 362.3 447.79C361.84 447.79 361.37 447.79 360.9 447.79C359.77 447.79 358.63 447.81 357.48 447.84C356.73 447.86 356.09 448.37 355.9 449.09C355.26 451.52 354.59 454.09 353.86 456.82C352.86 460.56 351.49 467.44 349.9 475.4C346.31 493.39 343.76 505.17 341.41 512.3C344.34 512.66 347.05 513.24 349.13 514.17C357.99 518.13 364.45 535.58 372.79 535.58C372.95 535.58 373.11 535.58 373.27 535.56C374.44 535.47 375.49 535.31 376.45 535.11C368.57 527.44 358.21 514.18 355.03 495.37L355.04 495.36Z"/>
  <path fill="currentColor" d="M369.62 438.9C372.47 429.47 376.4 417.55 381.56 408.91C382 408.19 382.44 407.53 382.88 406.92C383.26 406.39 382.72 405.69 382.11 405.93C377.47 407.76 372.82 410.33 369.29 413.91C364.04 419.24 361.64 427.21 357.69 442.26C357.55 442.8 357.96 443.33 358.52 443.32C359.33 443.31 360.13 443.3 360.91 443.3C363.53 443.3 365.96 443.37 368.22 443.51C368.7 443.54 369.11 443.16 369.1 442.68C369.08 441.44 369.24 440.17 369.62 438.91V438.9Z"/>
  <path fill="currentColor" d="M404.95 401.5C392.19 404.14 389.16 405.13 385.41 411.24C380.51 419.43 376.7 431.02 373.93 440.2C373.93 440.21 373.93 440.23 373.92 440.24C373.36 442.13 374.65 444.11 376.59 444.47C382.83 445.63 387.12 447.65 389.72 450.61C391.26 452.37 392.35 453.97 393.08 455.5C398.36 452.83 403.02 446.1 405.58 429.1C407.08 419.1 408 410.38 406.53 404.74C406.21 403.5 405.66 402.43 404.96 401.5H404.95Z"/>
  <path fill="currentColor" d="M301.06 374.59C301.06 374.99 301.42 375.29 301.81 375.2C303.91 374.71 309.42 373.61 314.32 373.65C318.11 373.68 322.11 374.07 325.56 375.02C325.95 375.13 326.33 374.85 326.34 374.45C326.41 372.53 327.77 370.68 330.48 369.28C327.61 366.97 321.4 365.37 314.19 365.37C306.98 365.37 300.2 367.13 297.54 369.61C300.59 371.36 301.07 373.45 301.07 374.6L301.06 374.59Z"/>
  <path fill="currentColor" d="M332.88 376.09C340.35 378.85 349.05 378.39 356.84 377.32C359.18 376.84 362.11 376.31 363.55 374.48C363.58 373.77 362.34 372.85 361.55 372.38C354.25 368.36 345 368.46 337.07 370.52C334.88 371.2 332.54 372.04 331.03 373.63C330.64 374.07 330.56 374.42 330.62 374.47C330.96 375.03 332.02 375.73 332.88 376.08V376.09Z"/>
  <path fill="currentColor" d="M324.25 377.92C317.71 375.54 310.21 375.76 303.66 377.96C295.59 381.08 295.34 384.82 303.99 387.12C309.23 388.85 328.24 389.04 330.42 383.06C330.51 380.94 327.27 379.01 324.26 377.91L324.25 377.92Z"/>
  <path fill="currentColor" d="M266.12 376.09C273.59 378.85 282.29 378.39 290.08 377.32C292.42 376.84 295.35 376.31 296.79 374.48C296.82 373.77 295.58 372.85 294.79 372.38C287.49 368.36 278.24 368.46 270.31 370.52C268.12 371.2 265.78 372.04 264.27 373.63C263.88 374.07 263.8 374.42 263.86 374.47C264.2 375.03 265.26 375.73 266.12 376.08V376.09Z"/>
  <path fill="currentColor" d="M388.64 377.59C385.02 376.19 378.24 375.13 367.82 374.25C367.82 374.33 367.85 374.4 367.86 374.48C367.63 379.39 361.97 381.37 358.13 382.66C350.88 384.74 343.3 384.5 336.06 382.62C335.54 382.48 335.05 382.33 334.57 382.17C334.64 382.46 334.69 382.76 334.72 383.08C334.65 388.09 329.51 390.81 325.54 392.34C318.02 395 309.88 394.76 302.39 392.3C295.6 389.99 292.49 385.79 293.37 381.98C292.68 382.24 292.01 382.47 291.39 382.68C284.14 384.76 276.56 384.52 269.32 382.64C259.66 380.04 257 374 262.27 370.19C257.82 370.06 253.78 369.95 250.43 369.87C249.43 369.85 248.49 369.84 247.59 369.84C236.75 369.84 232.97 371.6 225.89 380.09C225.26 380.85 224.24 382.27 223.22 383.74L243.17 379.47C245.06 379.12 245.67 381.94 243.76 382.37C243.76 382.37 174.37 398.47 130.53 413.44C101.48 423.33 8.6198 449.09 0.0498047 518.97C62.9198 521.13 102.22 503.16 147.34 482.49C197.38 459.58 254.03 433.65 356.06 430.87C358.84 421.43 361.43 415.38 366 410.75C377.94 398.63 400.4 397.03 400.4 397.03C400.4 397.03 399.69 381.88 388.64 377.6V377.59Z"/>
  <path fill="currentColor" d="M1112.57 400.993H1080.15V411.708H1112.57V400.993Z"/>
  <path fill="currentColor" d="M1284.75 407.767H1254.11V411.698H1284.75V407.767Z"/>
  <path fill="currentColor" d="M1044.19 364.368H1499.12V4.11406C1499.12 1.83761 1497.28 0 1495 0H1046.11C1043.84 0 1042 1.83761 1042 4.11406V364.368H1044.19Z"/>
  <path fill="currentColor" d="M1496.92 368.482H1044.19V378.539H1496.92V368.482Z"/>
  <path fill="currentColor" d="M1199.55 400.993H1167.13V411.708H1199.55V400.993Z"/>
  <path fill="currentColor" d="M1473.81 395.69C1467.91 395.69 1463.12 400.49 1463.12 406.386C1463.12 412.283 1467.91 417.083 1473.81 417.083C1479.71 417.083 1484.51 412.283 1484.51 406.386C1484.51 400.49 1479.71 395.69 1473.81 395.69Z"/>
  <path fill="currentColor" d="M1496.92 382.653H1042V430.147C1042 432.424 1043.84 434.261 1046.11 434.261H1082.35C1086.89 439.381 1093.49 442.627 1100.82 442.627H1112.54C1119.87 442.627 1126.48 439.381 1131.01 434.261H1410.08C1414.61 439.381 1421.22 442.627 1428.55 442.627H1440.27C1447.6 442.627 1454.21 439.381 1458.74 434.261H1494.98C1497.25 434.261 1499.09 432.424 1499.09 430.147V382.653H1496.9H1496.92ZM1116.67 413.216C1116.67 414.651 1115.5 415.821 1114.07 415.821H1078.63C1077.2 415.821 1076.03 414.651 1076.03 413.216V399.484C1076.03 398.049 1077.2 396.878 1078.63 396.878H1114.07C1115.5 396.878 1116.67 398.049 1116.67 399.484V413.216ZM1203.65 413.216C1203.65 414.651 1202.48 415.821 1201.05 415.821H1165.61C1164.18 415.821 1163.01 414.651 1163.01 413.216V399.484C1163.01 398.049 1164.18 396.878 1165.61 396.878H1201.05C1202.48 396.878 1203.65 398.049 1203.65 399.484V413.216ZM1288.86 413.216C1288.86 414.651 1287.69 415.821 1286.26 415.821H1252.59C1251.16 415.821 1249.99 414.651 1249.99 413.216V406.258C1249.99 404.823 1251.16 403.653 1252.59 403.653H1286.26C1287.69 403.653 1288.86 404.823 1288.86 406.258V413.216ZM1444.67 412.1C1441.52 412.1 1438.96 409.54 1438.96 406.386C1438.96 403.232 1441.52 400.672 1444.67 400.672C1447.83 400.672 1450.39 403.232 1450.39 406.386C1450.39 409.54 1447.83 412.1 1444.67 412.1ZM1473.81 422.568C1464.88 422.568 1457.63 415.328 1457.63 406.386C1457.63 397.445 1464.87 390.204 1473.81 390.204C1482.75 390.204 1489.99 397.445 1489.99 406.386C1489.99 415.328 1482.75 422.568 1473.81 422.568Z"/>
</svg>
