<?xml version="1.0"?>
<svg xmlns="http://www.w3.org/2000/svg" viewBox="0 0 36 36" fill="none">
  <path fill="currentColor" fill-rule="evenodd" clip-rule="evenodd" d="M20.4215 21.4571C19.4521 20.9724 18.2536 20.0924 17.0805 18.9194C15.9075 17.7463 15.0275 16.5478 14.5428 15.5784C14.2986 15.0899 14.175 14.6996 14.1423 14.424C14.1229 14.2602 14.139 14.1806 14.1495 14.1495C14.1806 14.1391 14.2601 14.1229 14.4239 14.1423C14.6995 14.175 15.0899 14.2986 15.5784 14.5429C15.6047 14.5561 15.6313 14.5695 15.6579 14.5833C16.0821 14.2031 16.5104 13.8484 16.9368 13.5238C16.7099 13.3876 16.4876 13.2649 16.2714 13.1568C15.6978 12.87 15.1273 12.6652 14.6063 12.6035C14.0964 12.543 13.4926 12.6078 13.0502 13.0502C12.6078 13.4927 12.543 14.0964 12.6034 14.6064C12.6652 15.1273 12.87 15.6978 13.1568 16.2714C13.7342 17.4263 14.7267 18.7571 15.9848 20.0152C17.2428 21.2732 18.5737 22.2657 19.7285 22.8431C20.3021 23.1299 20.8726 23.3348 21.3936 23.3965C21.9035 23.4569 22.5073 23.3921 22.9497 22.9497C23.3921 22.5073 23.4569 21.9035 23.3965 21.3936C23.3347 20.8726 23.1299 20.3021 22.8431 19.7285C22.7427 19.5279 22.6299 19.3219 22.5052 19.1119C22.1796 19.539 21.8239 19.968 21.4425 20.3927L21.457 20.4216C21.7013 20.9101 21.8249 21.3004 21.8576 21.576C21.877 21.7398 21.8609 21.8193 21.8504 21.8505C21.8193 21.8609 21.7398 21.877 21.5759 21.8576C21.3003 21.825 20.91 21.7013 20.4215 21.4571ZM14.1334 14.1565C14.1329 14.1568 14.1334 14.1564 14.1334 14.1565V14.1565Z"/>
  <path fill="currentColor" fill-rule="evenodd" clip-rule="evenodd" d="M15.5783 21.4571C15.6774 21.4076 15.7789 21.3539 15.8824 21.2962C16.2896 21.6745 16.7 22.0336 17.1095 22.3705C16.8226 22.5496 16.5421 22.7078 16.2714 22.8431C15.6978 23.1299 15.1273 23.3348 14.6063 23.3965C14.0963 23.4569 13.4926 23.3922 13.0502 22.9497C12.6078 22.5073 12.543 21.9036 12.6034 21.3936C12.6651 20.8726 12.87 20.3021 13.1568 19.7285C13.2864 19.4692 13.437 19.201 13.6069 18.9268C13.9506 19.3293 14.3149 19.7316 14.6969 20.1296C14.6418 20.229 14.5904 20.3264 14.5428 20.4216C14.2986 20.9101 14.1749 21.3004 14.1423 21.576C14.1229 21.7398 14.139 21.8194 14.1494 21.8505C14.1806 21.8609 14.2601 21.8771 14.4239 21.8576C14.6995 21.825 15.0898 21.7013 15.5783 21.4571ZM14.1552 21.8647C14.1562 21.8661 14.1566 21.8669 14.1566 21.867L14.1552 21.8647Z"/>
  <path fill="currentColor" fill-rule="evenodd" clip-rule="evenodd" d="M18.9193 18.9194C18.8937 18.945 18.8681 18.9704 18.8425 18.9957C19.2551 19.3589 19.6596 19.6884 20.0484 19.9818C21.2906 18.7336 22.2707 17.4161 22.8431 16.2714C23.1299 15.6979 23.3347 15.1274 23.3964 14.6064C23.4569 14.0964 23.3921 13.4927 22.9497 13.0502C22.5072 12.6078 21.9035 12.543 21.3935 12.6035C20.8725 12.6652 20.3021 12.8701 19.7285 13.1569C18.5736 13.7343 17.2428 14.7268 15.9847 15.9848L15.9764 15.9932C16.281 16.3771 16.6186 16.7733 16.9867 17.1751C17.0178 17.1436 17.049 17.1121 17.0805 17.0806C18.2535 15.9075 19.4521 15.0276 20.4215 14.5429C20.91 14.2986 21.3003 14.175 21.5759 14.1424C21.7397 14.1229 21.8193 14.1391 21.8504 14.1495C21.8608 14.1806 21.877 14.2602 21.8576 14.424C21.8249 14.6996 21.7013 15.0899 21.457 15.5784C20.9723 16.5478 20.0924 17.7464 18.9193 18.9194ZM21.8446 14.1353L21.8435 14.1336C21.8435 14.1336 21.8438 14.1337 21.8446 14.1353Z"/>
  <path fill="currentColor" fill-rule="evenodd" clip-rule="evenodd" d="M18 26.5C22.6944 26.5 26.5 22.6944 26.5 18C26.5 13.3056 22.6944 9.5 18 9.5C13.3056 9.5 9.5 13.3056 9.5 18C9.5 22.6944 13.3056 26.5 18 26.5ZM18 28C23.5228 28 28 23.5228 28 18C28 12.4772 23.5228 8 18 8C12.4772 8 8 12.4772 8 18C8 23.5228 12.4772 28 18 28Z"/>
  <path fill="currentColor" fill-rule="evenodd" clip-rule="evenodd" d="M29.2614 28.0114C29.6003 28.3503 29.5952 28.9048 29.25 29.25C28.9048 29.5952 28.3503 29.6003 28.0114 29.2614L23.9886 25.2386L25.2386 23.9886L29.2614 28.0114ZM12.0113 10.7613L10.7613 12.0113L6.73862 7.98862C6.39972 7.64972 6.40481 7.09516 6.74998 6.74998C7.09516 6.40481 7.64972 6.39972 7.98862 6.73862L12.0113 10.7613Z"/>
  <path fill="currentColor" fill-rule="evenodd" clip-rule="evenodd" d="M19.1641 2.54312L20.2072 1.50008L19.5001 0.792969L17.293 3.00008L19.5001 5.20718L20.2072 4.50008L19.2613 3.55415C26.2632 4.15744 31.8427 9.7369 32.446 16.7388L31.5001 15.7929L30.793 16.5L33.0001 18.7072L35.2072 16.5L34.5001 15.7929L33.457 16.836C32.8903 9.20359 26.7966 3.10981 19.1641 2.54312Z"/>
</svg>
