<?xml version="1.0"?>
<svg xmlns="http://www.w3.org/2000/svg" viewBox="0 0 39 32">
  <path fill="currentColor" d="M38.436,3.573c0.106,0.213,0.16,0.492,0.16,0.837
				c0.026,0.294,0.04,0.627,0.04,1c0,0.614-0.014,1.239-0.04,1.878c-0.054,0.613-0.08,1.025-0.08,1.238l-0.08,0.159l-0.24,0.202
				c-0.026,0.08-0.041,0.239-0.041,0.479v0.199l-0.118,0.321l-0.32-0.12c-0.053,0-0.186,0-0.399,0c-0.213-0.027-0.72-0.027-1.518,0
				c-0.026,0.345-0.122,0.664-0.283,0.958c-0.131,0.24-0.224,0.386-0.275,0.441l-0.041,0.158h-8.991l-0.438,0.163
				c-0.187,0.105-0.428,0.224-0.72,0.357c-0.292,0.134-0.574,0.28-0.84,0.44c-0.238,0.16-0.399,0.252-0.479,0.278
				c0.081,0.267,0.121,0.64,0.121,1.119c0,0.241,0,0.545,0,0.92c0,0.374-0.04,0.787-0.121,1.239
				c-0.106,0.639-0.373,1.105-0.798,1.398c-0.371,0.292-0.853,0.493-1.439,0.598c-0.53,0.081-1.131,0.107-1.796,0.081
				c-0.666-0.029-1.293-0.055-1.878-0.081c-0.479-0.026-0.907-0.053-1.278-0.079c-0.401-0.053-0.733-0.041-1,0.041h-0.079
				c-0.878-0.108-1.439-0.108-1.677,0c-0.267,0.106-0.44,0.238-0.521,0.399l-0.159,0.078c-0.213,0.213-0.32,0.722-0.32,1.52v0.322
				c0,0.425-0.041,0.784-0.122,1.077c-0.106,0.347-0.237,0.666-0.399,0.958l-0.038,0.241c-0.107,0.213-0.216,0.6-0.32,1.158
				c-0.135,0.533-0.283,1.105-0.441,1.718c-0.186,0.743-0.305,1.266-0.359,1.558c-0.106,0.373-0.188,0.626-0.239,0.759l0.159,0.159
				c0.106,0.081,0.188,0.173,0.239,0.28c0.082,0.106,0.121,0.227,0.121,0.359l-0.08,0.122c-0.026,0.237-0.16,0.425-0.399,0.558
				c-0.212,0.105-0.414,0.213-0.601,0.32h-0.119c-0.055,0-0.456,0.011-1.198,0.039c-0.775,0-1.574,0.039-2.397,0.12
				c-2.557,0.132-3.984,0.2-4.273,0.2c-0.508,0-1.042-0.536-1.599-1.598H0.679v-0.64c0-0.879,0.119-1.944,0.358-3.196
				c0.216-1.226,0.494-2.451,0.841-3.677c0.37-1.253,0.73-2.424,1.08-3.517c0.372-1.118,0.691-2.036,0.956-2.755v-0.2
				c0.055-0.24,0.081-0.427,0.081-0.561c0-0.105,0-0.171,0-0.198c-0.026,0-0.04-0.029-0.04-0.081
				c-0.027-0.027-0.041-0.065-0.041-0.12H3.836v-0.08c-0.028-0.161-0.135-0.282-0.321-0.361c-0.08-0.054-0.145-0.078-0.2-0.078
				c-0.16-0.026-0.332-0.081-0.519-0.162c-0.399-0.132-0.946-0.424-1.638-0.879c-0.454-0.266-0.746-0.559-0.88-0.878
				C0.092,10.39,0,10.044,0,9.724c0-0.371,0.013-0.599,0.04-0.679c0.052-0.106,0.185-0.574,0.398-1.397
				C0.625,6.769,0.824,5.903,1.037,5.05c0.187-0.719,0.455-1.212,0.8-1.478c0.346-0.295,0.626-0.506,0.838-0.642V2.294l0.161-0.081
				C3.608,2,4.381,2.067,5.154,2.412C5.9,2.758,6.337,2.999,6.471,3.133H25.69c0.053,0,0.106,0.024,0.16,0.08l0.159,0.16H36.12
				l0.118-0.122c0.161-0.13,0.348-0.426,0.559-0.877v-0.16h0.12c0.027,0,0.096-0.013,0.203-0.039c0.104,0,0.251,0.01,0.438,0.039
				C37.877,2.265,38.17,2.721,38.436,3.573z M21.736,12.24h-7.034c-0.373,0-0.557,0.202-0.557,0.599v2.52
				c0,0.372,0.185,0.558,0.557,0.558h7.034c0.345,0,0.519-0.186,0.519-0.558v-2.52C22.255,12.442,22.081,12.24,21.736,12.24z"/>
</svg>
