<?xml version="1.0"?>
<svg xmlns="http://www.w3.org/2000/svg" viewBox="-3 0 25 15" fill="none">
  <path fill="currentColor" fill-rule="evenodd" clip-rule="evenodd" d="M11.3699 2.1855H7.84997C7.1763 2.1855 6.52367 2.03814 5.8921 1.82761C2.57518 0.642996 1.92458 2.62958 1.05846 5.27426C0.924084 5.68458 0.78452 6.11073 0.629006 6.54335C-0.528876 9.78541 -0.0446708 12.9012 1.72373 13.5327C3.13424 14.038 4.94474 12.7538 6.20789 10.5222C6.46052 10.6486 6.75525 10.7328 7.07103 10.7328C7.28247 10.7328 7.48656 10.6985 7.67799 10.6352L11.3699 2.1855ZM4.41843 7.40649C4.41843 7.4907 4.48159 7.55386 4.5658 7.55386V7.53281H5.42895C5.51316 7.53281 5.57632 7.46965 5.57632 7.38544V6.22756H6.7342C6.83946 6.22756 6.90262 6.1644 6.90262 6.08019V5.2381C6.90262 5.15389 6.81841 5.09073 6.7342 5.09073H5.57632V3.93285C5.57632 3.84864 5.51316 3.78548 5.42895 3.78548H4.5658C4.48159 3.78548 4.41843 3.84864 4.41843 3.93285V5.09073H3.26055C3.15529 5.09073 3.09213 5.15389 3.09213 5.2381V6.10125C3.09213 6.18546 3.17634 6.24861 3.26055 6.24861H4.41843V7.40649ZM6.14473 8.7749C6.14473 9.28016 6.54473 9.7012 7.04998 9.7012C7.55524 9.7012 7.97629 9.28016 7.97629 8.7749C7.97629 8.29069 7.55524 7.86965 7.04998 7.86965C6.56578 7.86965 6.14473 8.26964 6.14473 8.7749Z"/>
  <path fill="currentColor" fill-rule="evenodd" clip-rule="evenodd" d="M13.828 2.92182C13.8318 2.92822 13.8354 2.93477 13.839 2.94132C13.8436 2.94968 13.8481 2.95804 13.8532 2.96608C13.86 2.97684 13.8674 2.98708 13.8748 2.99732L13.8748 2.99736L13.8748 2.9974C13.8798 3.00433 13.8848 3.01126 13.8897 3.01835C14.0485 3.25263 14.2573 3.45281 14.5086 3.59687L14.5127 3.59947C14.5584 3.62555 14.6063 3.64869 14.6546 3.67094C14.6589 3.67292 14.6631 3.67511 14.6673 3.67731L14.6673 3.67731C14.6721 3.67986 14.677 3.68241 14.682 3.6846C14.7397 3.71 14.7992 3.73269 14.8603 3.75245C14.865 3.75395 14.8698 3.7552 14.8746 3.75644L14.8746 3.75644C14.8788 3.75754 14.883 3.75864 14.8872 3.7599L14.8881 3.76002C15.2353 3.86547 15.6028 3.86558 15.9504 3.76002L15.9512 3.75985L15.9521 3.75968C15.9562 3.7584 15.9604 3.75733 15.9645 3.75625C15.9692 3.75504 15.9738 3.75383 15.9785 3.75234C16.0447 3.731 16.1087 3.70503 16.1714 3.67658C16.1885 3.66881 16.2052 3.66017 16.2218 3.65153L16.2437 3.64023C16.2799 3.62182 16.3158 3.60274 16.3507 3.58208C16.3798 3.56481 16.4081 3.54663 16.4361 3.52777C16.4636 3.50937 16.4905 3.49006 16.5169 3.47019C16.5466 3.44795 16.5762 3.42548 16.6045 3.40144C16.6231 3.38577 16.6409 3.36911 16.6586 3.35246L16.6703 3.3416L16.6888 3.3244L16.6888 3.32438C16.7113 3.30361 16.7338 3.28286 16.7549 3.26064C16.7681 3.24682 16.7804 3.23217 16.7927 3.21749L16.7927 3.21747L16.7927 3.21745C16.7991 3.20984 16.8054 3.20222 16.8119 3.19471C16.8559 3.14413 16.897 3.09129 16.9356 3.03608L16.9462 3.02092C16.9636 2.99614 16.9809 2.97142 16.9969 2.94553C17.0115 2.92184 17.0249 2.89721 17.0382 2.87262L17.0382 2.8726L17.0464 2.85747C17.1084 2.74389 17.1621 2.62455 17.2009 2.49798C17.5113 1.48671 16.9628 0.406 15.9783 0.0888548C15.7942 0.0294676 15.6053 0 15.4174 0C15.1269 0 14.8385 0.0703387 14.5726 0.209322C14.1217 0.444952 13.7898 0.847565 13.6377 1.34321C13.4833 1.84608 13.5417 2.36611 13.7602 2.8009C13.7811 2.84256 13.8045 2.88219 13.828 2.92182ZM15.4233 0.661048C15.464 0.534258 15.5996 0.464032 15.7264 0.505129C16.4892 0.751032 16.915 1.58494 16.6758 2.36408C16.6441 2.46795 16.5487 2.53456 16.4458 2.53456C16.4223 2.53456 16.3984 2.53106 16.3749 2.52373C16.2478 2.48455 16.1764 2.34952 16.2156 2.22216C16.3776 1.69411 16.0921 1.13005 15.579 0.964758C15.4524 0.923887 15.3827 0.787951 15.4233 0.661048ZM15.7794 7.10124V8.4729C15.7794 8.67172 15.6177 8.8334 15.4192 8.8334C15.2205 8.8334 15.0589 8.67172 15.0589 8.4729V7.10124V5.77417V4.29458C15.1785 4.31354 15.2988 4.32325 15.4192 4.32325C15.5395 4.32325 15.6599 4.31354 15.7794 4.29458V5.77406V7.10124ZM15.4192 11.1944C13.9757 11.1944 12.8014 10.0184 12.8014 8.573C12.8014 7.44668 13.5323 6.44692 14.5773 6.09093V6.94821C13.9729 7.26129 13.5902 7.88214 13.5902 8.57311C13.5902 9.58314 14.4108 10.4049 15.4192 10.4049C16.4277 10.4049 17.2482 9.58314 17.2482 8.57311C17.2482 7.88203 16.8655 7.2614 16.261 6.9481V6.09082C17.3059 6.44692 18.037 7.44679 18.037 8.573C18.037 10.0184 16.8627 11.1944 15.4192 11.1944ZM14.5773 7.51953V8.47289C14.5773 8.93782 14.9551 9.31616 15.4192 9.31616C15.8833 9.31616 16.261 8.93782 16.261 8.47289V7.51953C16.5762 7.77097 16.7665 8.15461 16.7665 8.57292C16.7665 9.31672 16.1621 9.92189 15.4192 9.92189C14.6763 9.92189 14.0719 9.31672 14.0719 8.57292C14.0719 8.15473 14.2622 7.77108 14.5773 7.51953ZM10 9.51902V14.0001H16.6L20.8387 4.29884V3.14599H17.4399C17.4033 3.20899 17.3638 3.26973 17.322 3.32878L17.3209 3.33036C17.1532 3.56655 16.9447 3.76989 16.7053 3.9301L16.7052 3.93021C16.5914 4.00642 16.4707 4.07281 16.3441 4.12824C16.3326 4.13333 16.321 4.13829 16.3094 4.14315L16.2899 4.1516C16.2803 4.15579 16.2708 4.15998 16.2612 4.16381V5.58797C17.58 5.96123 18.5189 7.18487 18.5189 8.57313C18.5189 10.2847 17.1284 11.6773 15.4194 11.6773C13.7103 11.6773 12.3198 10.2846 12.3198 8.57302C12.3198 7.18476 13.2586 5.96112 14.5774 5.58786V4.16133L14.5516 4.15149L14.5516 4.15149C14.5331 4.14452 14.5146 4.13756 14.4966 4.12971C14.4859 4.12505 14.4755 4.11987 14.4652 4.1147L14.4652 4.11469C14.4614 4.11278 14.4576 4.11087 14.4537 4.10898C14.4503 4.10732 14.447 4.10569 14.4435 4.10408C14.3911 4.0797 14.3392 4.05441 14.2891 4.02641C14.2787 4.02057 14.2687 4.01439 14.2587 4.00821L14.2404 3.99705C14.1902 3.96736 14.1407 3.93642 14.093 3.903C14.0844 3.89705 14.0762 3.89081 14.0679 3.88457L14.0679 3.88455L14.0536 3.87387C14.0047 3.8382 13.9569 3.80094 13.911 3.76154C13.9042 3.75576 13.8976 3.7498 13.891 3.74384L13.891 3.74381L13.8787 3.73275C13.8328 3.69187 13.7884 3.64942 13.7457 3.60494C13.7377 3.59661 13.7299 3.58813 13.722 3.57963L13.7159 3.57299C13.6752 3.52907 13.6363 3.48357 13.5989 3.43649C13.5882 3.42305 13.5777 3.40939 13.5673 3.39573C13.5335 3.35113 13.5012 3.30529 13.4704 3.2581C13.4587 3.24015 13.4469 3.22208 13.4356 3.20379C13.4306 3.19569 13.4254 3.18779 13.4201 3.17988C13.4127 3.16872 13.4054 3.15757 13.3986 3.14587H12.7846L10 9.51902ZM11.0839 12.5368C11.0839 12.8356 11.3275 13.0786 11.6272 13.0786C11.9268 13.0786 12.1707 12.8356 12.1706 12.5368C12.1706 12.238 11.9267 11.9949 11.6272 11.9949C11.3276 11.9949 11.0839 12.238 11.0839 12.5368Z"/>
</svg>
