<?xml version="1.0"?>
<svg xmlns="http://www.w3.org/2000/svg" viewBox="0 0 47 47" fill="none">
  <path fill="currentColor" d="M44.1111 8.16675V38.8334H22.3888V33.7223H38.9999V13.2779H8.33328V19.6667H3.22217V8.16675H44.1111ZM3.22217 23.5001V28.6112C5.93327 28.6112 8.53333 29.6882 10.4504 31.6052C12.3674 33.5223 13.4444 36.1223 13.4444 38.8334H18.5555C18.5555 34.7668 16.94 30.8667 14.0645 27.9911C11.1889 25.1156 7.28882 23.5001 3.22217 23.5001ZM3.22217 32.4445V38.8334H9.61106C9.61106 37.9944 9.4458 37.1636 9.12473 36.3885C8.80366 35.6134 8.33306 34.9091 7.73979 34.3158C7.14653 33.7225 6.44223 33.2519 5.66709 32.9309C4.89195 32.6098 4.06117 32.4445 3.22217 32.4445Z"/>
</svg>
