<?xml version="1.0"?>
<svg width="36" height="36" viewBox="0 0 36 36" fill="none" xmlns="http://www.w3.org/2000/svg">
  <path fill-rule="evenodd" clip-rule="evenodd" d="M5.63604 19.636C7.32387 17.9482 9.61305 17 12 17C12.4664 17 12.9292 17.0362 13.3844 17.1071C13.1338 18.0289 13 18.9988 13 20C13 25.0351 16.383 29.2801 21 30.5859V31H3V26C3 23.6131 3.94821 21.3239 5.63604 19.636ZM14.7779 13.1573C13.9556 13.7068 12.9889 14 12 14C10.6739 14 9.40215 13.4732 8.46447 12.5355C7.52678 11.5979 7 10.3261 7 9C7 8.0111 7.29324 7.0444 7.84265 6.22215C8.39206 5.39991 9.17295 4.75904 10.0866 4.3806C11.0002 4.00217 12.0055 3.90315 12.9755 4.09608C13.9454 4.289 14.8363 4.76521 15.5355 5.46447C16.2348 6.16373 16.711 7.05465 16.9039 8.02455C17.0969 8.99446 16.9978 9.99979 16.6194 10.9134C16.241 11.827 15.6001 12.6079 14.7779 13.1573Z" fill="currentColor"/>
  <path fill-rule="evenodd" clip-rule="evenodd" d="M24 28C28.4183 28 32 24.4183 32 20C32 15.5817 28.4183 12 24 12C19.5817 12 16 15.5817 16 20C16 24.4183 19.5817 28 24 28ZM22.5 21.5V26H25.5V21.5H30V18.5H25.5V14H22.5V18.5H18V21.5H22.5Z" fill="currentColor"/>
</svg>
