<?xml version="1.0"?>
<svg xmlns="http://www.w3.org/2000/svg" viewBox="0 0 834 204" fill="none">
  <path fill="currentColor" d="M101.348 0C120.276 -0.000646099 138.829 5.28053 154.92 15.249C171.011 25.2176 184.003 39.4785 192.433 56.4277C200.862 73.3769 204.396 92.3421 202.638 111.19C200.879 130.039 193.897 148.023 182.477 163.119C171.056 178.216 155.651 189.827 137.993 196.646C120.336 203.464 101.126 205.22 82.5244 201.717C63.9233 198.213 46.6682 189.589 32.7002 176.814C18.7321 164.039 8.60518 147.619 3.45801 129.402L42.4531 145.533C43.8534 152.545 47.8114 158.786 53.5576 163.041C59.3038 167.296 66.4272 169.261 73.542 168.555C80.6569 167.848 87.2548 164.519 92.0518 159.217C96.8487 153.914 99.5026 147.017 99.4961 139.866V138.506L134.074 113.83H134.944C142.534 113.834 149.955 111.587 156.268 107.373C162.58 103.159 167.503 97.1678 170.41 90.1562C173.318 83.1446 174.081 75.4278 172.603 67.9824C171.125 60.537 167.472 53.6971 162.106 48.3281C156.741 42.9592 149.905 39.3019 142.461 37.8193C135.017 36.3369 127.301 37.0953 120.288 39.999C113.275 42.9028 107.281 47.8217 103.063 54.1328C98.8463 60.4439 96.5957 67.8644 96.5957 75.4551V75.9463L72.3467 111.107H70.7402C64.9541 111.101 59.3005 112.843 54.5215 116.105L0 93.5713C2.05226 68.0883 13.6245 44.3128 32.4131 26.9775C51.2017 9.64228 75.8287 0.0185728 101.392 0.0224609L101.348 0ZM63.0879 119.698C67.0124 118.209 71.2857 117.895 75.3857 118.794C79.4859 119.693 83.2363 121.767 86.1777 124.762C89.1191 127.757 91.1245 131.543 91.9502 135.659C92.7758 139.775 92.3851 144.043 90.8262 147.94C89.2672 151.838 86.6071 155.198 83.1709 157.609C79.7348 160.02 75.6716 161.379 71.4766 161.519C67.2814 161.658 63.136 160.574 59.5469 158.397C55.9577 156.221 53.0798 153.045 51.2646 149.26L63.7568 154.414C65.6859 155.218 67.7547 155.635 69.8447 155.64C71.9348 155.644 74.0057 155.237 75.9385 154.441C77.8711 153.646 79.6282 152.478 81.1094 151.003C82.5906 149.528 83.7671 147.776 84.5713 145.847C85.3754 143.917 85.7912 141.848 85.7959 139.758C85.8006 137.668 85.3941 135.597 84.5986 133.664C83.8032 131.731 82.6345 129.974 81.1602 128.493C79.6857 127.012 77.9339 125.835 76.0049 125.03L63.0879 119.698ZM694.196 61.4834C712.228 61.4834 730.865 73.3665 730.865 101.396C730.865 129.355 712.228 141.866 694.196 141.866C676.164 141.866 657.41 129.448 657.41 101.396C657.41 73.3432 676.164 61.4834 694.196 61.4834ZM275.287 61.4824C284.556 61.2361 293.67 63.8917 301.356 69.0781L294.367 81.2168C288.802 77.4528 282.262 75.3884 275.544 75.2754C268.345 75.2754 263.895 78.2582 263.895 83.5938C263.895 90.0707 271.816 91.5622 283.558 95.7793C296.184 100.253 303.453 105.518 303.453 117.074C303.453 132.894 290.989 141.795 273.167 141.795C263.588 141.824 254.168 139.351 245.84 134.619L250.872 121.152C257.483 124.656 264.825 126.555 272.305 126.697C281.74 126.697 286.283 123.202 286.283 118.053C286.283 112.158 279.434 110.387 268.392 106.729C255.811 102.536 247.074 97.0139 247.074 84.2227C247.074 69.7771 258.723 61.4825 275.287 61.4824ZM772.497 61.4824C781.127 61.3262 789.601 63.7963 796.796 68.5654L793.092 74.9033C787.031 70.8694 779.939 68.661 772.66 68.542C762.456 68.542 755.886 73.2019 755.886 81.5195C755.886 90.4665 766.09 93.8684 778.787 99.0176C790.948 103.934 798.822 108.967 798.822 119.661C798.822 132.732 788.921 141.795 771.892 141.795C762.872 141.732 754.029 139.28 746.265 134.688L749.409 127.955C756.128 131.825 763.72 133.925 771.472 134.06C785.007 134.06 790.459 128.095 790.459 120.477C790.459 112.462 782.748 108.827 771.029 104.307C758.472 99.4604 747.593 94.6609 747.593 81.334C747.593 69.894 757.075 61.4824 772.497 61.4824ZM449.245 76.791L413.135 76.7217V94.2197H444.26V108.199H413.135V126.396H449.245V140.375H396.896V62.8115H449.245V76.791ZM595.76 118.87L620.92 62.8115H636.599V140.375H621.036V92.8213L599.79 138.208H590.634L569.667 93.2402V140.375H554.081V62.8115H569.667L595.76 118.87ZM380.054 76.7666H356.524V140.374H340.217V76.7666H316.663V62.7871H380.054V76.7666ZM538.753 140.374H521.141L515.898 125.3L485.543 125.393L480.395 140.374H463.364L492.462 62.7178H508.77L538.753 140.374ZM694.243 68.9863C679.193 68.9863 665.867 79.4008 665.867 101.325V101.396C665.867 122.994 678.727 134.504 693.823 134.504C708.92 134.504 722.455 123.506 722.455 101.396C722.455 79.2846 709.293 68.9865 694.243 68.9863ZM489.946 112.415H511.426L500.546 81.334L489.946 112.415ZM129.956 50.4678C134.915 49.4812 140.055 49.9878 144.727 51.9229C149.398 53.858 153.391 57.1352 156.2 61.3398C159.009 65.5445 160.509 70.488 160.509 75.5449C160.503 82.324 157.808 88.8236 153.015 93.6172C148.221 98.4109 141.722 101.106 134.943 101.112C129.887 101.112 124.944 99.6131 120.74 96.8037C116.536 93.9943 113.259 90.001 111.324 85.3291C109.389 80.6572 108.883 75.5163 109.869 70.5566C110.856 65.5969 113.291 61.0406 116.866 57.4648C120.442 53.8892 124.997 51.4543 129.956 50.4678ZM138.847 56.7041C135.121 55.963 131.259 56.343 127.749 57.7969C124.239 59.2508 121.239 61.7131 119.129 64.8721C117.018 68.0311 115.892 71.7456 115.892 75.5449L115.78 75.5C115.777 78.0348 116.276 80.5451 117.246 82.8867C118.217 85.2285 119.641 87.3561 121.437 89.1455C123.232 90.9347 125.363 92.3509 127.708 93.3135C130.053 94.2761 132.565 94.7657 135.1 94.7539C138.898 94.7539 142.612 93.6273 145.771 91.5166C148.929 89.4058 151.391 86.4056 152.845 82.8955C154.298 79.3854 154.68 75.5232 153.938 71.7969C153.197 68.0706 151.368 64.6474 148.682 61.9609C145.995 59.2745 142.573 57.4453 138.847 56.7041ZM816.603 65.1162H811.918V77.7441H810.021V65.1162H805.337V63.4434H816.603V65.1162ZM826.53 75.1338L831.706 63.4434H833.625L833.691 77.7441H831.84V67.1914L826.977 77.5654H825.928L821.087 67.1914V77.7441H819.235V63.4434H821.132L826.53 75.1338Z"/>
</svg>
