<?xml version="1.0"?>
<svg xmlns="http://www.w3.org/2000/svg" viewBox="0 0 36 36" fill="none">
  <path d="M13.5 6.5C13.5 5.60999 13.7639 4.73996 14.2584 3.99994C14.7529 3.25991 15.4557 2.68314 16.2779 2.34254C17.1002 2.00195 18.005 1.91283 18.8779 2.08647C19.7508 2.2601 20.5526 2.68868 21.182 3.31802C21.8113 3.94736 22.2399 4.74918 22.4135 5.6221C22.5872 6.49501 22.4981 7.39981 22.1575 8.22208C21.8169 9.04434 21.2401 9.74715 20.5001 10.2416C19.76 10.7361 18.89 11 18 11C17.4087 11.0013 16.8229 10.8858 16.2764 10.6601C15.7298 10.4345 15.2332 10.103 14.8151 9.68492C14.397 9.2668 14.0655 8.7702 13.8399 8.22364C13.6142 7.67708 13.4987 7.09132 13.5 6.5ZM18 14C15.8783 14 13.8434 14.8429 12.3431 16.3431C10.8429 17.8434 10 19.8783 10 22V26H13.2L14 34H22L22.8 26H26V22C26 19.8783 25.1571 17.8434 23.6569 16.3431C22.1566 14.8429 20.1217 14 18 14Z" fill="currentColor"/>
</svg>
