<?xml version="1.0"?>
<svg viewBox="0 0 24 24" fill="none" xmlns="http://www.w3.org/2000/svg">
  <path d="M19 3C19.5523 3 20 3.44772 20 4V15C20 15.5523 19.5523 16 19 16H9C8.44772 16 8 15.5523 8 15V4C8 3.44772 8.44772 3 9 3H19ZM10 12V13H18V12H10ZM10 9V10H18V9H10ZM10 6V7H18V6H10Z" fill="currentColor"/>
  <path d="M7 8H5V19H15V17H16V19L15.9951 19.1025C15.9472 19.573 15.573 19.9472 15.1025 19.9951L15 20H5L4.89746 19.9951C4.42703 19.9472 4.05278 19.573 4.00488 19.1025L4 19V8C4 7.48232 4.39333 7.05621 4.89746 7.00488L5 7H7V8Z" fill="currentColor"/>
</svg>
