<?xml version="1.0"?>
<svg xmlns="http://www.w3.org/2000/svg" viewBox="0 0 92.592 39.134">
  <path fill="currentColor" d="M90.855,10.174c0,0.566-0.084,1.216-0.25,1.95
	c-0.066,0.367-0.15,0.684-0.25,0.95H63.255v0.8l-0.3,0.4h-24.65v-1.1h-1c-0.167,0.1-0.184,0.367-0.05,0.8l0.7,2.15h0.35l0.1,0.35
	l-0.6,0.25l0.15,0.55c0.167,0.434,0.35,0.934,0.55,1.5c0.667,1.733,1.534,3.616,2.6,5.65c1.033,2.033,2.483,4.417,4.35,7.149
	c0.9,1.334,1.717,2.484,2.45,3.45l-3.7,2.851c-0.7-0.9-1.517-2.018-2.45-3.351c-1.833-2.733-3.316-5.216-4.45-7.45
	c-1.133-2.266-2.117-4.383-2.95-6.35l-0.95-2.3l-0.35,0.1h-1.35l-0.4,2.1h-0.3l0.3-2h-1.45l-0.35,0.35l-1.75,3.5
	c-0.1,0.267-0.316,0.416-0.65,0.45h-5.5c-0.467-0.034-0.867-0.15-1.2-0.351l-0.2,0.15c-0.133,0.166-0.233,0.334-0.3,0.5
	c-0.067,0.133-0.117,0.35-0.15,0.65c-0.033,0.3-0.1,0.533-0.2,0.699c-0.033,0.101-0.133,0.283-0.3,0.551
	c-0.2,0.232-0.35,0.482-0.45,0.75c-0.1,0.3-0.167,0.583-0.2,0.85c0,0.334-0.033,0.566-0.1,0.7c-0.033,0.167-0.167,0.417-0.4,0.75
	c-0.2,0.333-0.35,0.634-0.45,0.899c-0.067,0.2-0.117,0.5-0.15,0.9c-0.033,0.3-0.083,0.533-0.15,0.7c-0.1,0.233-0.267,0.466-0.5,0.7
	c-0.167,0.133-0.3,0.232-0.4,0.3l-5.95-3.25c0.034-0.3,0.133-0.7,0.3-1.2c0.333-1,0.733-2.017,1.2-3.05
	c0.434-0.866,0.967-1.733,1.6-2.601c0.3-0.399,0.5-0.667,0.6-0.8c0.133-0.267,0.25-0.5,0.35-0.7c0.2-0.6,0.316-1.117,0.35-1.55
	c0.066-0.566-0.017-1.033-0.25-1.4c-0.2-0.333-0.483-0.6-0.85-0.8c-0.2-0.067-0.35-0.133-0.45-0.2
	c-0.133-0.033-0.217-0.083-0.25-0.15c-0.1-0.1-0.167-0.2-0.2-0.3h-3.8c-0.333,0-0.6-0.25-0.8-0.75l-0.6-2.9l-0.25-0.05l-0.1,0.35
	l0.65,2.15l-0.3,0.55h-1.55l-0.35-0.65l1-2l-0.05-0.45l-0.4,0.2c-0.3,0.267-0.533,0.567-0.7,0.9c-0.2,0.367-0.35,0.733-0.45,1.1
	c-0.067,0.167-0.1,0.3-0.1,0.4l-0.55,3.4c-0.367,2.233-0.617,3.417-0.75,3.55c-0.133,0.1-0.267,0.217-0.4,0.35
	c-0.067,0.066-0.167,0.101-0.3,0.101c-0.233,0.033-0.5,0.033-0.8,0c-0.4-0.067-0.667-0.184-0.8-0.351
	c-0.167-0.167-0.267-0.316-0.3-0.45c-0.033-0.066-0.017-0.233,0.05-0.5c0-0.033,0.117-0.783,0.35-2.25
	c0.233-1.367,0.383-2.4,0.45-3.1c0.033-0.433,0.05-1.75,0.05-3.95v-2.7c-0.033-0.5,0-0.85,0.1-1.05c0.167-0.167,0.367-0.25,0.6-0.25
	c0.267-0.033,0.933,0.033,2,0.2c0.533,0.133,1.05,0.25,1.55,0.35h1.35l0.05-0.8c0.1-0.333,0.2-0.684,0.3-1.05
	c0.267-0.7,0.45-1.133,0.55-1.3c0.133-0.133,0.267-0.217,0.4-0.25c0.067,0,0.117,0,0.15,0h3.65l0.35,0.15h1.75l0.05-1.4
	c0.1-0.333,0.25-0.567,0.45-0.7c0.2-0.133,0.4-0.183,0.6-0.15c0.2,0,0.367,0,0.5,0l0.2,0.75l0.4-1l2.1,0.9l-0.45,0.8l0.45,0.75h18.9
	l0.4,0.05h22.75v-0.5h-0.3v-2.4l0.2-0.25h0.85l0.7,1.95v1.2h0.45l0.35,0.5v1.7h-0.3v0.55h27.25l0.2,0.9
	C90.789,8.974,90.855,9.607,90.855,10.174z M28.305,18.974l-0.35-0.35h-4.05l-0.2,0.4c-0.133,0.267-0.233,0.534-0.3,0.8
	c-0.034,0.233,0,0.533,0.1,0.9c0.067,0.333,0.133,0.583,0.2,0.75l0.05,0.5l-0.4-0.2c-0.3-0.433-0.5-0.867-0.6-1.3
	c-0.066-0.4-0.117-0.833-0.15-1.3v-0.55h-1l-0.45,1.05c-0.267,0.7-0.417,1.1-0.45,1.2c-0.033,0.233-0.033,0.533,0,0.9
	c0.267,0.267,0.617,0.45,1.05,0.55h5.05c0.2-0.033,0.35-0.166,0.45-0.399L28.305,18.974z"/>
</svg>
