<?xml version="1.0"?>
<svg xmlns="http://www.w3.org/2000/svg" version="1.1" viewBox="0 0 1024 1024">
  <path d="M258.2,170.6c102.7,77.1,213.2,233.5,253.8,317.4,40.6-83.9,151.1-240.3,253.8-317.4,74.1-55.6,194.2-98.7,194.2,38.3s-15.7,229.9-24.9,262.7c-32,114.3-148.5,143.4-252.2,125.8,181.2,30.8,227.3,133,127.8,235.2-189.1,194-271.7-48.7-292.9-110.9-3.9-11.4-5.7-16.7-5.7-12.2,0-4.5-1.8.8-5.7,12.2-21.2,62.2-103.9,304.9-292.9,110.9-99.6-102.2-53.5-204.3,127.8-235.2-103.7,17.6-220.2-11.5-252.2-125.8-9.2-32.9-24.9-235.4-24.9-262.7,0-137,120.1-93.9,194.2-38.3h0Z"/>
</svg>
