<?xml version="1.0"?>
<svg xmlns="http://www.w3.org/2000/svg" viewBox="0 0 50.75 32">
  <path fill="currentColor" d="M50.312,3.257c0.056,0.029,0.14,0.042,0.253,0.042l-0.041,1.014
				l0.169,1.397c-0.059,0.282-0.142,0.577-0.253,0.887c-0.057,0.283-0.142,0.549-0.256,0.803c-0.083,0.367-0.168,0.677-0.251,0.931
				c-0.17,0.704-0.339,1.24-0.508,1.608c-0.142,0.366-0.24,0.634-0.297,0.803c-0.083,0.14-0.155,0.225-0.211,0.253
				c-0.029,0.057-0.07,0.086-0.126,0.086H29.296c-0.028,0-0.225,0.042-0.592,0.126c-0.396,0.169-0.831,0.482-1.312,0.929
				c-0.422,0.424-0.817,1.045-1.184,1.861c-0.422,0.79-0.635,1.889-0.635,3.299v0.465H25.49c-0.028,0.026-0.308,0.098-0.845,0.209
				c-0.507,0.114-1.126,0.199-1.86,0.256c-0.707,0.085-1.48,0.125-2.327,0.125c-0.846-0.027-1.577-0.154-2.199-0.382
				c-0.198,0.059-0.451,0.243-0.761,0.553c-0.339,0.364-0.522,0.76-0.549,1.181c-0.03,0.255-0.112,0.777-0.256,1.566
				c-0.14,0.817-0.308,1.677-0.506,2.579c-0.169,0.902-0.311,1.733-0.421,2.496c-0.172,0.733-0.268,1.156-0.296,1.268l0.676,1.903
				h-0.128c-1.326,0.167-2.678,0.324-4.06,0.465c-1.181,0.083-2.464,0.155-3.847,0.212c-1.382,0.026-2.722-0.042-4.017-0.212
				c-0.084,0-0.183-0.013-0.297-0.044c-0.226-0.083-0.394-0.224-0.505-0.421c-0.171-0.282-0.255-0.789-0.255-1.522
				c0-0.451,0.042-1.029,0.126-1.736c0.113-0.675,0.323-1.465,0.634-2.366c0.254-0.931,0.62-2.015,1.101-3.257
				c0.478-1.24,1.084-2.665,1.818-4.271v-0.167c0-0.085,0.013-0.185,0.041-0.297c0.029-0.17,0.044-0.354,0.044-0.551
				c0-0.563-0.128-1.138-0.382-1.734c-0.225-0.563-0.803-0.93-1.733-1.098c-0.056,0-0.296-0.012-0.718-0.042
				c-0.452,0-0.946-0.029-1.478-0.083c-0.511,0-1.003-0.015-1.482-0.044c-0.45,0-0.692,0-0.72,0l-0.126-0.125v-0.129
				c0-0.138,0.042-0.237,0.126-0.294c0.084-0.31,0.381-0.62,0.89-0.931c0.478-0.31,1.353-0.62,2.62-0.929
				c0.029-0.029,0.128-0.198,0.297-0.508c0.168-0.31,0.255-0.677,0.255-1.1c0-0.168-0.015-0.309-0.044-0.423
				C4.279,7.767,4.207,7.585,4.095,7.359C4.011,7.3,3.913,7.19,3.798,7.021C3.657,6.795,3.447,6.386,3.165,5.792v-0.8l0.804-0.213
				C4.052,4.835,4.124,4.877,4.18,4.906c0.113,0.114,0.197,0.17,0.253,0.17h1.438c0-0.056,0.059-0.17,0.169-0.338
				c0.029-0.113,0.084-0.211,0.168-0.295L7.48,3.299c0.054-0.028,0.138-0.056,0.251-0.083c0.113-0.056,0.213-0.113,0.298-0.17V2.411
				c0-0.139,0.014-0.324,0.04-0.549h1.565l1.099,1.1l1.861-0.042l0.634-0.339l7.653-0.042c0.085,0.114,0.155,0.209,0.212,0.294
				c0.14,0.142,0.24,0.212,0.295,0.212l9.938,0.17l0.126,0.083c0.028,0.056,0.085,0.083,0.169,0.083h0.549
				c0.03-0.056,0.043-0.096,0.043-0.125c0-0.055,0.014-0.098,0.042-0.128c0.056-0.056,0.112-0.11,0.168-0.167l11.164,0.083
				c0,0.083,0.015,0.157,0.042,0.212c0,0.084,0.014,0.154,0.042,0.212c0,0.056,0,0.097,0,0.126h0.591
				c0-0.029,0.029-0.126,0.084-0.296c0.027-0.056,0.084-0.112,0.168-0.17h2.199c0.059-0.026,0.183-0.097,0.381-0.209
				c0.197-0.143,0.395-0.267,0.594-0.381c0.195-0.142,0.406-0.24,0.632-0.296c0.199-0.086,0.354-0.128,0.466-0.128
				c0.169,0,0.283,0.113,0.337,0.339c0.085,0.254,0.128,0.421,0.128,0.508c0.111,0.083,0.267,0.141,0.464,0.167
				c0.083,0.031,0.196,0.059,0.338,0.087c0,0.027,0.028,0.042,0.085,0.042H50.312z M20.037,11.713c-0.282,0-0.521,0.085-0.721,0.255
				c-0.167,0.196-0.251,0.438-0.251,0.718v3.088c0,0.253,0.085,0.491,0.251,0.719c0.199,0.169,0.438,0.252,0.721,0.252h3.298
				c0.282,0,0.521-0.083,0.718-0.252c0.225-0.228,0.339-0.466,0.339-0.719v-3.088c0-0.28-0.114-0.521-0.339-0.718
				c-0.197-0.169-0.436-0.255-0.718-0.255H20.037z"/>
</svg>
