<?xml version="1.0"?>
<svg width="36" height="36" viewBox="0 0 36 36" fill="none" xmlns="http://www.w3.org/2000/svg">
  <path fill-rule="evenodd" clip-rule="evenodd" d="M12.73 28.34C15.6223 29.3235 18.732 29.4785 21.7078 28.7876C24.6836 28.0967 27.4069 26.5873 29.57 24.43L36 18L29.57 11.57C28 10 26.5 9.00003 23.94 7.94003C20.9843 6.77799 17.7541 6.50247 14.6444 7.14715C11.5346 7.79183 8.68012 9.32878 6.43 11.57L0 18L6.43 24.43C8.10419 26.1042 10.2596 27.5 12.73 28.34ZM18 25C21.866 25 25 21.866 25 18C25 14.134 21.866 11 18 11C14.134 11 11 14.134 11 18C11 21.866 14.134 25 18 25Z" fill="currentColor"/>
</svg>
