<?xml version="1.0"?>
<svg xmlns="http://www.w3.org/2000/svg" viewBox="0 0 36 36" fill="none">
  <path fill="currentColor" d="M14.7261 2.74994C14.2934 3.39746 14.0625 4.15874 14.0625 4.9375C14.0613 5.45491 14.1624 5.96744 14.3599 6.44568C14.5573 6.92392 14.8473 7.35845 15.2132 7.72431C15.5791 8.09017 16.0136 8.38016 16.4918 8.57763C16.9701 8.7751 17.4826 8.87616 18 8.875C18.7788 8.875 19.54 8.64407 20.1876 8.21141C20.8351 7.77876 21.3398 7.1638 21.6378 6.44432C21.9358 5.72483 22.0138 4.93313 21.8618 4.16933C21.7099 3.40553 21.3349 2.70394 20.7842 2.15327C20.2336 1.6026 19.532 1.22759 18.7682 1.07566C18.0044 0.92373 17.2127 1.00171 16.4932 1.29973C15.7737 1.59775 15.1587 2.10243 14.7261 2.74994Z"/>
  <path fill="currentColor" d="M13.0503 13.5503C14.363 12.2375 16.1435 11.5 18 11.5C19.8565 11.5 21.637 12.2375 22.9497 13.5503C24.2625 14.863 25 16.6435 25 18.5V22H22.2L21.5 29H14.5L13.8 22H11V18.5C11 16.6435 11.7375 14.863 13.0503 13.5503Z"/>
  <path fill="currentColor" d="M3 29C3 26.5645 5.66517 24.4196 9.70869 23.1656L10.0112 26.224C9.52728 26.393 9.07639 26.5754 8.66205 26.7688C6.18364 27.9254 6 28.9249 6 29C6 29.0751 6.18364 30.0746 8.66205 31.2312C10.8969 32.2741 14.1952 33 18 33C21.8048 33 25.1031 32.2741 27.3379 31.2312C29.8164 30.0746 30 29.0751 30 29C30 28.9249 29.8164 27.9254 27.3379 26.7688C26.9236 26.5754 26.4727 26.393 25.9888 26.224L26.2913 23.1656C30.3348 24.4196 33 26.5645 33 29C33 32.866 26.2843 36 18 36C9.71573 36 3 32.866 3 29Z"/>
</svg>
