<?xml version="1.0"?>
<svg xmlns="http://www.w3.org/2000/svg" viewBox="0 0 36 36" fill="none">
  <path d="M2 6.04999V30.05H34V6.04999H2ZM12 9.04999C12.7911 9.04999 13.5645 9.28458 14.2223 9.72411C14.8801 10.1636 15.3928 10.7883 15.6955 11.5193C15.9983 12.2502 16.0775 13.0544 15.9231 13.8303C15.7688 14.6063 15.3878 15.319 14.8284 15.8784C14.269 16.4378 13.5563 16.8188 12.7804 16.9731C12.0044 17.1275 11.2002 17.0483 10.4693 16.7455C9.73836 16.4428 9.11365 15.9301 8.67412 15.2723C8.2346 14.6145 8 13.8411 8 13.05C8 11.9891 8.42143 10.9717 9.17157 10.2216C9.92172 9.47142 10.9391 9.04999 12 9.04999ZM5 27.05C5 26.1307 5.18106 25.2205 5.53284 24.3712C5.88463 23.5219 6.40024 22.7502 7.05025 22.1002C7.70026 21.4502 8.47194 20.9346 9.32122 20.5828C10.1705 20.231 11.0807 20.05 12 20.05C12.9193 20.05 13.8295 20.231 14.6788 20.5828C15.5281 20.9346 16.2997 21.4502 16.9497 22.1002C17.5998 22.7502 18.1154 23.5219 18.4672 24.3712C18.8189 25.2205 19 26.1307 19 27.05H5ZM30.05 21.05H22.05V17.05H30.05V21.05ZM29.99 14.05H20V10.05H30L29.99 14.05Z" fill="currentColor"/>
</svg>
