<?xml version="1.0"?>
<svg xmlns="http://www.w3.org/2000/svg" viewBox="0 0 49.125 32">
  <path fill="currentColor" d="M28.065,10.277c0-0.029,0-0.058,0-0.086
				c-1.154,0-2.293,0-3.418,0v0.086c0,0.03,0,0.058,0,0.087v0.086c0.03,0.029,0.044,0.057,0.044,0.085v0.045l0.044,0.042v0.042
				c0.056,0.03,0.114,0.058,0.171,0.086c0.028,0.029,0.057,0.059,0.088,0.088c0.027,0.028,0.043,0.055,0.043,0.083v0.043
				c0.028,0.029,0.057,0.045,0.085,0.045c0,0.028,0.015,0.056,0.044,0.085c0,0.03,0.013,0.059,0.042,0.086
				c0,0.03,0.014,0.044,0.044,0.044c0.027,0.028,0.043,0.055,0.043,0.086c0.028,0.028,0.042,0.058,0.042,0.087
				c0,0.027,0,0.057,0,0.085l0.043,0.043v0.044c0.029,0.028,0.057,0.057,0.086,0.085c0,0.03,0.016,0.058,0.044,0.087
				c0.029,0.029,0.058,0.058,0.087,0.086v0.044h0.042v0.045c0.029,0.027,0.059,0.056,0.086,0.085c0,0.028,0,0.056,0,0.085
				l0.043,0.045v0.042c0.028,0,0.057,0.015,0.085,0.044c0,0.029,0.015,0.058,0.043,0.087c0.376,0,0.765,0,1.17,0
				c0.028,0,0.044-0.016,0.044-0.044c0.027,0,0.056-0.014,0.083-0.043V12.18c0.032,0,0.059,0,0.087,0c0-0.028,0-0.057,0-0.087
				c0.029-0.029,0.058-0.057,0.087-0.085c0.057,0,0.101-0.017,0.129-0.044c0-0.029,0.013-0.058,0.043-0.086v-0.044
				c0-0.028,0-0.057,0-0.086s0.015-0.057,0.043-0.087c0-0.029,0-0.057,0-0.085v-0.044c0.028,0,0.044-0.015,0.044-0.043
				c0.028-0.029,0.042-0.058,0.042-0.085c0.028-0.029,0.056-0.059,0.087-0.087c0-0.031,0.014-0.058,0.042-0.086v-0.044
				c0.029-0.028,0.044-0.057,0.044-0.086c0-0.029,0.014-0.058,0.043-0.085c0.028,0,0.057-0.016,0.086-0.045
				c0.028-0.027,0.058-0.043,0.087-0.043v-0.083c0-0.029,0-0.06,0-0.088c0-0.028,0-0.057,0-0.086c0-0.028,0-0.057,0-0.085v-0.045
				c0-0.028,0.015-0.056,0.043-0.085c0-0.029-0.016-0.057-0.043-0.086C28.065,10.335,28.065,10.307,28.065,10.277z M44.15,6.385
				c0.028,0.03,0.044,0.059,0.044,0.086c0,0.032,0.013,0.044,0.042,0.044c0.202,0,0.405,0,0.607,0v0.044h3.936l0.214,0.217v2.333
				l-0.257,0.26h-3.633v0.088c-0.173,0-0.363,0.012-0.563,0.042l-0.044,0.044c-0.029,0.027-0.07,0.071-0.129,0.129
				c-0.028,0-0.059,0.015-0.088,0.042c0.029,0.032,0.045,0.06,0.045,0.088c0.028,0.028,0.043,0.059,0.043,0.087
				c0,0.028,0.013,0.058,0.042,0.085v0.043c0,0.03,0,0.059,0,0.086c0,0.031,0,0.06,0,0.088c0,0.028,0,0.057,0,0.086
				c0,0.03,0,0.058,0,0.087c-0.03,0.03-0.042,0.058-0.042,0.086c-0.028,0.029-0.059,0.057-0.088,0.085v0.045
				c0,0.028,0,0.057,0,0.085c0,0.03,0,0.058,0,0.086c0,0.029,0,0.059,0,0.088v0.042l-0.043,0.042
				c-0.029,0.032-0.042,0.058-0.042,0.089c-0.059,0.028-0.114,0.041-0.172,0.041c-0.058,0-0.116-0.013-0.173-0.041
				c-0.03-0.031-0.044-0.057-0.044-0.089c-0.03,0-0.059-0.013-0.086-0.042l-0.043-0.042c0-0.029-0.015-0.06-0.044-0.088
				c0-0.028-0.013-0.057-0.043-0.086c0-0.028-0.013-0.057-0.042-0.085l-0.043-0.045c-0.027-0.028-0.056-0.056-0.086-0.085
				c-0.029-0.029-0.057-0.057-0.086-0.086c-0.029-0.029-0.043-0.057-0.043-0.087c-0.029,0-0.057,0-0.087,0
				c-0.029-0.029-0.057-0.058-0.086-0.086c-0.027-0.028-0.057-0.057-0.085-0.088c0-0.027-0.016-0.057-0.043-0.086
				c0-0.028-0.028-0.043-0.086-0.043c-0.029-0.028-0.044-0.058-0.044-0.085c-0.028-0.028-0.058-0.059-0.086-0.087
				s-0.057-0.056-0.085-0.088l-0.088-0.085c0-0.028-0.014-0.059-0.042-0.086h-0.044c-0.057,0-0.115-0.015-0.173-0.044l-0.042-0.042
				c-0.058,0-0.102,0-0.13,0c-0.029,0.057-0.058,0.099-0.087,0.128c-0.028,0.057-0.043,0.101-0.043,0.128
				c-0.028,0.032-0.072,0.073-0.128,0.131c-0.059,0.057-0.117,0.101-0.173,0.129c-0.059,0.029-0.13,0.073-0.216,0.129
				c-0.059,0-0.102,0.016-0.13,0.045h-0.043v0.043c0,0.028-0.015,0.057-0.043,0.086c-0.059,0-0.102,0-0.13,0
				c-0.058,0.03-0.1,0.058-0.129,0.087c0,0.03-0.016,0.058-0.043,0.086c0,0.029,0,0.057,0,0.085c0,0.031-0.016,0.045-0.042,0.045
				c0,0.028,0,0.057,0,0.085c-0.031,0-0.06,0.016-0.087,0.044v0.042c0,0.029,0,0.059,0,0.088v0.083c0,0.032,0,0.058,0,0.089
				c0,0.028,0,0.056,0,0.085c0,0.03,0,0.059,0,0.086v0.044c0,0.028,0,0.055,0,0.086c0,0.028,0,0.058,0,0.087v0.042
				c0,0.031,0,0.058,0,0.087v0.044c0,0.028,0,0.057,0,0.085c0,0.03,0,0.058,0,0.087s0,0.058,0,0.086v0.044c0,0.028,0,0.058,0,0.086
				v0.044c0,0.028,0,0.056,0,0.085c0,0.03,0,0.059,0,0.087v0.044c0,0.029,0,0.058,0,0.087c0,0.027,0,0.055,0,0.084
				c0,0.029,0,0.06,0,0.087v0.087c0,0.027,0,0.056,0,0.087c0,0.029,0,0.057,0,0.085v0.043c0,0.027,0,0.057,0,0.086
				c0,0.027,0,0.057,0,0.086c0,0.03,0,0.059,0,0.087c0,0.028,0,0.058,0,0.086c0,0.028,0,0.06,0,0.087c0,0.027,0,0.058,0,0.086
				s0,0.058,0,0.086v0.042c0,0.03,0,0.06,0,0.087c0,0.029,0,0.057,0,0.086c0,0.03,0,0.06,0,0.086v0.087c0,0.03,0,0.059,0,0.088
				c0,0.027,0,0.057,0,0.086c0,0.029,0,0.058,0,0.086v0.045c0,0.027,0,0.056,0,0.086c0,0.028,0,0.056,0,0.083V14.3
				c0,0.029,0,0.057,0,0.086v0.042c0,0.03,0,0.059,0,0.087c0,0.03,0,0.057,0,0.087c0,0.029,0,0.058,0,0.086v0.045
				c0,0.027,0,0.056,0,0.086v0.042c0,0.03,0,0.059,0,0.087v0.042c0,0.03,0,0.058,0,0.088c0,0.028,0,0.057,0,0.086
				c0,0.028,0,0.058,0,0.087c0,0.027,0,0.056,0,0.087v0.084c0,0.029,0,0.059,0,0.085c0,0.029,0,0.06,0,0.086v0.044
				c0,0.027,0,0.056,0,0.088c0,0.028,0,0.056,0,0.085c0,0.028,0,0.057,0,0.087v0.086c0,0.029,0,0.057,0,0.087
				c0,0.027,0,0.055,0,0.086c0,0.027,0,0.057,0,0.084v0.045c0,0.028,0,0.058,0,0.086c0,0.03,0,0.06,0,0.087c0,0.029,0,0.059,0,0.087
				v0.086c0,0.028,0,0.057,0,0.086c0,0.028,0,0.06,0,0.086c0,0.028,0,0.058,0,0.088v0.041c0,0.031,0,0.06,0,0.087
				c0,0.029,0,0.06,0,0.089v0.085c0,0.028,0,0.057,0,0.086c0,0.029,0,0.058,0,0.087s0,0.057,0,0.086c0,0.029,0,0.06,0,0.086v0.044
				c0,0.029,0,0.057,0,0.085v0.044c0,0.027,0,0.057,0,0.087v0.043c0,0.028,0,0.058,0,0.085c0,0.03,0,0.058,0,0.086
				c0,0.031,0,0.06,0,0.087v0.044c0,0.028,0,0.057,0,0.086v0.043c0,0.029,0,0.059,0,0.087c0,0.028,0,0.058,0,0.086v0.043
				c0,0.029,0,0.059,0,0.087c0,0.028,0,0.057,0,0.085c0,0.029,0,0.059,0,0.087v0.085c0,0.03,0,0.059,0,0.089
				c0,0.028,0,0.057,0,0.085c0,0.031,0,0.058,0,0.086v0.044c0,0.027,0,0.056,0,0.087c0,0.029,0,0.056,0,0.086
				c0,0.027,0,0.057,0,0.087c0,0.029,0,0.057,0,0.084c0,0.029,0,0.059,0,0.09c0,0.027,0,0.056,0,0.083c0,0.032,0,0.059,0,0.087
				v0.045c0,0.029,0,0.056,0,0.085s0,0.06,0,0.087v0.086c0,0.029,0,0.056,0,0.086c0,0.028,0,0.058,0,0.087c0,0.029,0,0.057,0,0.087
				v0.043c0,0.028,0,0.058,0,0.087c0,0.027,0,0.057,0,0.084v0.043c0,0.031,0,0.059,0,0.087v0.042c0,0.029,0,0.06,0,0.087
				c0,0.029,0,0.059,0,0.086c0,0.029,0,0.059,0,0.086v0.042c0,0.031,0,0.058,0,0.088v0.043c0,0.029,0,0.057,0,0.087
				c0,0.028,0,0.056,0,0.086v0.043c0,0.028,0,0.058,0,0.086c0,0.028,0,0.058,0,0.085c0,0.03,0,0.058,0,0.088v0.084
				c0,0.03,0,0.06,0,0.087c0,0.029,0,0.059,0,0.086c0,0.029-0.016,0.059-0.043,0.087l-0.043,0.043v0.086
				c-0.03,0-0.059,0.013-0.088,0.042l-0.042,0.044c-0.059,0-0.101,0-0.13,0c-0.028,0-0.057,0-0.086,0c-0.058,0-0.101,0-0.129,0
				c-0.029-0.029-0.058-0.044-0.087-0.044c-0.145,0-0.289-0.014-0.432-0.042c-0.059,0-0.114-0.015-0.174-0.042
				c-0.056-0.03-0.085-0.059-0.085-0.087c-0.029,0-0.057,0-0.086,0c-0.03,0-0.045-0.015-0.045-0.043
				c-0.056,0-0.114-0.014-0.172-0.043c-0.029,0-0.044-0.013-0.044-0.042c-0.056,0-0.115-0.015-0.172-0.044c-0.057,0-0.1,0-0.13,0
				v-0.045c-0.057,0-0.114-0.013-0.172-0.042c-0.059,0-0.116-0.014-0.171-0.041l-0.044-0.043c-0.06,0-0.115,0-0.172,0
				c-0.03,0-0.058,0-0.088,0c-0.03-0.03-0.058-0.045-0.086-0.045c-0.031,0-0.058-0.013-0.087-0.043c-0.059,0-0.101-0.014-0.13-0.042
				c-0.057-0.03-0.102-0.057-0.13-0.086c-0.056-0.03-0.115-0.058-0.173-0.087h-0.043c-0.058-0.03-0.101-0.058-0.13-0.086
				c-0.056-0.031-0.099-0.058-0.128-0.087c0-0.03-0.015-0.058-0.044-0.086c-0.029-0.03-0.059-0.044-0.087-0.044
				c-0.029-0.027-0.043-0.057-0.043-0.085c-0.029-0.028-0.056-0.058-0.085-0.086c-0.031-0.03-0.044-0.057-0.044-0.089
				c-0.029,0-0.057-0.013-0.087-0.042c-0.028,0-0.057-0.014-0.085-0.042c0-0.028-0.014-0.056-0.043-0.087
				c0-0.027-0.015-0.056-0.042-0.088c0-0.027-0.015-0.055-0.044-0.083c0-0.029-0.014-0.043-0.043-0.043c0-0.028,0-0.059,0-0.088
				c0-0.027-0.015-0.055-0.045-0.086v-0.043c-0.028-0.03-0.056-0.057-0.085-0.086l-0.043-0.044c0-0.028,0-0.057,0-0.087
				c-0.029-0.027-0.042-0.056-0.042-0.085c0-0.028-0.015-0.058-0.043-0.088v-0.042c0-0.028,0-0.058,0-0.086v-0.042
				c0-0.031,0-0.061,0-0.09c0-0.027,0-0.055,0-0.084V19.23c0-0.031,0-0.06,0-0.087v-0.044c0-0.028,0-0.055,0-0.086
				c0-0.029,0-0.058,0-0.085c0-0.03,0-0.059,0-0.089v-0.085c0-0.028,0-0.058,0-0.087c0-0.028,0-0.057,0-0.085
				c0-0.029,0-0.059,0-0.087v-0.043c0-0.028,0-0.058,0-0.086c0-0.028,0-0.058,0-0.087v-0.043c0-0.029,0-0.058,0-0.086v-0.044
				c0-0.028,0-0.057,0-0.087c0-0.028,0-0.056,0-0.086c0-0.028,0-0.057,0-0.085v-0.043c0-0.031,0-0.06,0-0.087v-0.044
				c0-0.029,0-0.057,0-0.085v-0.044c0-0.026,0-0.057,0-0.086c0.029-0.029,0.043-0.057,0.043-0.086
				c0.028-0.029,0.042-0.058,0.042-0.087c0-0.029,0-0.058,0-0.086v-0.085c0-0.029,0-0.06,0-0.089c0-0.028,0-0.057,0-0.087v-0.041
				c0-0.03,0-0.06,0-0.088c0-0.026,0-0.059,0-0.086c0-0.029,0-0.059,0-0.086v-0.086c0.03-0.028,0.043-0.058,0.043-0.087
				c0.029-0.027,0.043-0.057,0.043-0.087c0.028-0.028,0.042-0.058,0.042-0.086v-0.045c0-0.027,0-0.057,0-0.084
				c0-0.031,0-0.059,0-0.086c0-0.03,0-0.058,0-0.087v-0.086c0-0.031,0-0.06,0-0.087c0-0.029,0-0.057,0-0.085
				c0-0.032,0-0.061,0-0.088v-0.044c0-0.027,0-0.057,0-0.086c0-0.027,0-0.057,0-0.085v-0.084c0-0.031,0-0.06,0-0.087
				c0-0.03,0-0.06,0-0.087c0-0.029,0-0.059,0-0.086c0-0.03,0-0.058,0-0.088v-0.042c0-0.028,0-0.057,0-0.087V14.82
				c0-0.031,0-0.059,0-0.086v-0.045c0-0.028,0-0.058,0-0.086c0-0.03,0-0.057,0-0.087c0-0.028,0-0.057,0-0.087v-0.042
				c0-0.029,0-0.057,0-0.086v-0.045c0-0.028,0-0.056,0-0.083c0-0.031,0-0.059,0-0.086V14.04c0-0.028,0-0.058,0-0.086
				c0-0.029,0-0.059,0-0.086c0-0.029,0-0.058,0-0.088v-0.087c0-0.026,0-0.056,0-0.086c0-0.029,0-0.057,0-0.086
				c0-0.027,0-0.057,0-0.087v-0.042c0-0.028,0-0.058,0-0.086s0-0.059,0-0.086c0-0.028,0-0.059,0-0.087c0-0.029,0-0.059,0-0.086
				c0-0.028,0-0.057,0-0.087c0-0.029,0-0.059,0-0.086c0-0.029,0-0.059,0-0.086v-0.043c0-0.029,0-0.057,0-0.085
				c0-0.031,0-0.06,0-0.087v-0.087c0-0.028,0-0.058,0-0.087c0-0.029,0-0.057,0-0.084c0-0.03,0-0.058,0-0.087V12.18
				c0-0.028,0-0.057,0-0.087c0-0.029,0-0.057,0-0.085v-0.044c0-0.029,0-0.058,0-0.086v-0.044c0-0.028,0-0.057,0-0.086
				s0-0.057,0-0.087c0-0.029,0-0.057,0-0.085v-0.044c0-0.03,0-0.057,0-0.087v-0.042c0-0.029,0-0.059,0-0.087
				c0-0.031,0-0.058,0-0.086v-0.044c0-0.028,0-0.057,0-0.086c0-0.029,0-0.058,0-0.085c0-0.031,0-0.057,0-0.089v-0.083
				c0-0.029,0-0.06,0-0.088c0-0.028,0-0.057,0-0.086c0-0.028,0-0.057,0-0.085v-0.045c0-0.028,0-0.056,0-0.085
				c0-0.029,0-0.057,0-0.086c0-0.029,0-0.057,0-0.087v-0.042c-0.056-0.028-0.099-0.044-0.128-0.044c-2.218,0-4.453,0-6.703,0
				c0,0.028-0.015,0.044-0.043,0.044l0.043,0.042c0.029,0.03,0.043,0.058,0.043,0.087c0,0.03,0,0.058,0,0.086v0.043
				c0,0.029,0,0.057,0,0.088v0.042c0,0.027,0,0.058,0,0.086c0,0.03,0,0.057,0,0.086c0,0.028,0,0.058,0,0.086v0.042
				c0,0.032,0,0.058,0,0.089v0.041c-0.029,0.03-0.058,0.059-0.086,0.089c0,0.029,0,0.058,0,0.087v0.042c0,0.03,0,0.058,0,0.087
				c0,0.029,0,0.059,0,0.085c-0.058,0.031-0.116,0.058-0.173,0.087c-0.028,0-0.058,0.013-0.087,0.044
				c-0.027,0.028-0.056,0.043-0.086,0.043c-0.029,0.029-0.044,0.057-0.044,0.086c-0.027,0.03-0.057,0.058-0.085,0.086
				c-0.057,0.027-0.102,0.057-0.13,0.086v0.045c-0.027,0.027-0.043,0.056-0.043,0.085c0,0.028,0,0.056,0,0.085
				c0,0.03,0,0.059,0,0.087c-0.029,0.029-0.059,0.059-0.086,0.087c0,0.028,0,0.059,0,0.086c0,0.029,0,0.059,0,0.086v0.043
				c0,0.028,0,0.06,0,0.087c0,0.027,0,0.056,0,0.087c0,0.029,0,0.057,0,0.085v0.043c-0.03,0-0.044,0.014-0.044,0.044
				c-0.028,0.028-0.057,0.055-0.086,0.087c0,0.027,0,0.057,0,0.084c0,0.028-0.014,0.057-0.043,0.088
				c0,0.027-0.014,0.042-0.043,0.042c0,0.028,0,0.06,0,0.087c0,0.027,0,0.058,0,0.086s-0.015,0.042-0.043,0.042
				c-0.028,0.031-0.072,0.06-0.129,0.087l-0.043,0.044c-0.029,0.028-0.059,0.059-0.087,0.086c-0.03,0.029-0.073,0.042-0.13,0.042
				c-0.116,0.03-0.245,0.06-0.389,0.086c-0.03,0-0.059,0.015-0.086,0.045c-0.029,0-0.058,0-0.087,0c-0.432,0-0.864,0-1.297,0
				l-0.043,0.042c-0.058,0-0.101,0-0.129,0c-1.038,0.03-2.076,0.059-3.114,0.088c-0.029,0-0.058,0.014-0.087,0.043
				c-0.028,0-0.057,0-0.085,0c-0.087,0-0.159,0-0.216,0c0,0.028-0.015,0.042-0.043,0.042c-0.028,0.029-0.057,0.058-0.084,0.086
				l-0.046,0.045h-0.042c0,0.027,0,0.056,0,0.086c0,0.028,0,0.056,0,0.083c0,0.03,0,0.06,0,0.087v0.044c0,0.03,0,0.058,0,0.086
				c0,0.03,0,0.056,0,0.087c0,0.028,0,0.058,0,0.086v0.088c0,0.027,0,0.056,0,0.086c0,0.027,0,0.056,0,0.085
				c0,0.029,0,0.057,0,0.085v0.044c0,0.027,0,0.058,0,0.087c0,0.029,0,0.056,0,0.085v0.045c0,0.027,0,0.056,0,0.087v0.041
				c0,0.028,0,0.058,0,0.087s0,0.058,0,0.087c0,0.027,0,0.056,0,0.085c-0.028,0-0.044,0.015-0.044,0.043s-0.012,0.058-0.042,0.087
				v0.043c0,0.028,0,0.057,0,0.087v0.042c0,0.029,0,0.058,0,0.085c0,0.028,0,0.058,0,0.088c0,0.027,0,0.059,0,0.085
				c0,0.03,0,0.06,0,0.088v0.086c0,0.03,0,0.06,0,0.087c0,0.029,0,0.059,0,0.087v0.042c0,0.03,0,0.058,0,0.086
				c0,0.029,0,0.059,0,0.087c0,0.032,0,0.059,0,0.086v0.085c0,0.031,0,0.06,0,0.087c0,0.029,0,0.06,0,0.089c0,0.027,0,0.056,0,0.085
				v0.043c0,0.028,0,0.058,0,0.087c0,0.028,0,0.056,0,0.087c0,0.027,0,0.056,0,0.084v0.087c0,0.029,0,0.057,0,0.085
				c0.029,0.03,0.042,0.059,0.042,0.086c0,0.031,0.016,0.06,0.044,0.088v0.043c0,0.028,0,0.057,0,0.087c0,0.029,0,0.056,0,0.086
				v0.087c0,0.028,0,0.057,0,0.086c0,0.028,0,0.058,0,0.087c0,0.03,0,0.058,0,0.088c0,0.027,0,0.055,0,0.083v0.044
				c0,0.028,0,0.057,0,0.087v0.042c0.029,0.029,0.042,0.059,0.042,0.087l0.046,0.044c0,0.029,0.014,0.057,0.042,0.086
				c0,0.029,0,0.057,0,0.087c0,0.027,0,0.057,0,0.085v0.042c0,0.028,0,0.058,0,0.087v0.044c0,0.029,0,0.056,0,0.086
				c0.028,0.027,0.042,0.057,0.042,0.087l0.043,0.042c0,0.029,0,0.058,0,0.086s0,0.057,0,0.086c0,0.028,0,0.058,0,0.086v0.088
				c0,0.029,0,0.056,0,0.085s0,0.06,0,0.087c0,0.029,0,0.057,0,0.086v0.043c0,0.027,0.014,0.058,0.042,0.085
				c0,0.031,0,0.059,0,0.086c0.03,0.029,0.045,0.06,0.045,0.088s0,0.058,0,0.087c0,0.027,0,0.057,0,0.084c0,0.028,0,0.059,0,0.088
				c0,0.028,0,0.057,0,0.084v0.042c0,0.032,0,0.059,0,0.089c0,0.028,0,0.058,0,0.086v0.043l-0.045,0.042
				c-0.028,0.031-0.042,0.058-0.042,0.088c-0.029,0.029-0.058,0.043-0.085,0.043c0,0.029,0,0.057,0,0.087c0,0.028,0,0.056,0,0.086
				l-0.042,0.043c0,0.028,0,0.058,0,0.086c-0.03,0.028-0.06,0.058-0.088,0.085c0,0.03,0,0.058,0,0.088v0.084c0,0.03,0,0.06,0,0.087
				c0,0.029,0,0.059,0,0.086c0,0.029,0,0.059,0,0.087v0.043c0,0.029,0,0.058,0,0.086c0,0.029,0,0.058,0,0.087
				c0,0.028,0,0.057,0,0.087c0.029,0,0.058,0,0.088,0c0,0.027,0.014,0.057,0.042,0.086c0,0.027,0,0.058,0,0.086
				c0,0.027,0,0.057,0,0.085v0.044c0,0.029,0,0.057,0,0.087c0,0.028,0,0.056,0,0.085c0,0.029,0,0.058,0,0.087v0.086
				c0,0.03,0,0.059,0,0.088c0,0.028,0,0.056,0,0.085c0,0.03,0,0.057,0,0.086l0.042,0.045c0.029,0.028,0.043,0.055,0.043,0.084
				c0,0.03,0,0.06,0,0.087v0.043c0,0.028,0,0.058,0,0.087v0.042c0,0.029,0,0.06,0,0.087c0,0.029,0,0.057,0,0.085
				c0,0.029,0,0.06,0,0.086v0.044c0,0.028,0.014,0.058,0.042,0.085c0,0.029,0.016,0.043,0.045,0.043c0,0.03,0,0.059,0,0.087
				c0,0.03,0,0.059,0,0.086v0.043c0,0.029,0,0.057,0,0.087c0,0.029,0,0.057,0,0.088c0,0.028,0,0.056,0,0.085v0.042
				c0.029,0.03,0.058,0.044,0.087,0.044c0,0.03,0,0.059,0,0.088c0,0.027,0,0.055,0,0.083v0.044c0,0.03,0,0.059,0,0.088
				c0,0.027,0,0.057,0,0.086s0,0.058,0,0.087c0.028,0.027,0.056,0.057,0.085,0.085h0.042c0,0.027,0,0.058,0,0.087
				c0,0.028,0,0.057,0,0.085c0,0.028,0,0.057,0,0.086v0.044c0,0.029,0,0.057,0,0.086c0,0.03,0,0.058,0,0.087
				c0,0.027,0,0.057,0,0.086c0,0.028,0.016,0.043,0.044,0.043v0.043c0,0.027,0,0.057,0,0.086c0,0.028,0,0.058,0,0.087
				c0,0.028,0,0.058,0,0.086v0.042c0,0.03,0,0.058,0,0.086c0,0.03,0,0.06,0,0.087c0.03,0.028,0.059,0.043,0.087,0.043
				c0,0.028,0.013,0.056,0.043,0.085v0.045c0,0.029,0,0.057,0,0.086c0,0.03,0,0.058,0,0.086c0,0.028,0,0.059,0,0.086v0.046
				c0,0.027,0,0.056,0,0.083v0.045c0.03,0.028,0.057,0.057,0.085,0.087v0.044c0,0.028,0,0.057,0,0.084c0,0.029,0,0.057,0,0.085
				c0,0.031,0,0.06,0,0.086c0,0.03,0,0.057,0,0.088v0.043l0.044,0.042c0,0.031,0.013,0.057,0.043,0.087c0,0.03,0,0.059,0,0.086
				v0.044c0,0.028,0,0.057,0,0.087c0,0.028,0,0.055,0,0.085c0.029,0.03,0.045,0.058,0.045,0.085l0.041,0.045v0.042
				c0,0.031,0,0.06,0,0.089c0.031,0.027,0.043,0.057,0.043,0.084c0.031,0.03,0.045,0.056,0.045,0.086l0.042,0.044
				c0,0.027,0,0.058,0,0.087c0,0.028,0,0.056,0,0.086c0,0.027,0,0.056,0,0.087c0.028,0.03,0.057,0.042,0.085,0.042v0.045
				c0.029,0.026,0.043,0.056,0.043,0.085c0,0.028,0.015,0.057,0.043,0.085c0,0.029,0,0.056,0,0.088v0.042
				c0.029,0.029,0.044,0.059,0.044,0.087c0.029,0.028,0.044,0.058,0.044,0.086c0.029,0.029,0.057,0.043,0.087,0.043
				c0,0.029,0.012,0.044,0.043,0.044c0,0.028,0,0.058,0,0.086c0,0.027,0,0.056,0,0.086c0,0.028,0.013,0.057,0.042,0.087
				c0,0.028,0,0.06,0,0.086h0.043c0.058,0,0.116,0.015,0.174,0.042c0.028,0.029,0.042,0.057,0.042,0.085s0.014,0.046,0.044,0.046
				c0,0.026,0,0.055,0,0.085v0.042c0,0.028,0,0.059,0,0.087c0,0.028,0,0.06,0,0.087c0,0.029,0,0.057,0,0.086v0.045
				c0,0.027,0,0.056,0,0.084v0.043c0,0.03,0,0.059,0,0.088c0,0.027,0,0.058,0,0.086v0.042c0,0.031,0,0.06,0,0.088
				c0,0.029,0,0.059,0,0.086c0.029,0.03,0.043,0.058,0.043,0.086l0.044,0.044v0.042c0,0.031,0,0.057,0,0.086
				c-0.03,0.03-0.059,0.059-0.088,0.087c-0.03,0.03-0.044,0.059-0.044,0.087c-0.029,0-0.071,0-0.129,0c-0.488,0-0.981,0-1.471,0
				c-0.028,0-0.071,0.015-0.13,0.044h-0.042c-0.085,0.028-0.159,0.043-0.217,0.043c-0.028,0.029-0.071,0.056-0.128,0.085h-0.043
				c-0.028,0.029-0.072,0.043-0.13,0.043c-0.578,0-1.153,0-1.731,0c-0.055-0.029-0.127-0.043-0.216-0.043
				c-0.056-0.029-0.114-0.056-0.171-0.085v-0.043c-0.059-0.03-0.117-0.044-0.175-0.044c-0.23,0-0.46,0-0.692,0
				c-0.028,0-0.057,0-0.085,0c-0.028,0-0.058,0-0.087,0c-0.057,0-0.131,0-0.217,0v-0.042H18.68c-0.06,0-0.116-0.015-0.173-0.044
				c-0.029-0.028-0.058-0.057-0.086-0.087c0-0.029-0.016-0.055-0.044-0.086v-0.042c-0.029,0-0.057-0.016-0.086-0.044
				c0-0.028-0.015-0.057-0.043-0.086c0-0.027,0-0.057,0-0.086c0-0.028,0-0.057,0-0.088V30.43c-0.029-0.028-0.058-0.059-0.087-0.086
				c0-0.029,0-0.058,0-0.088v-0.043c-0.029-0.028-0.057-0.057-0.086-0.084v-0.045c0-0.029,0-0.057,0-0.086c0-0.027,0-0.059,0-0.087
				c0-0.029,0-0.059,0-0.087v-0.042c-0.03-0.03-0.059-0.059-0.087-0.085V29.65c0-0.028,0-0.056,0-0.085
				c0-0.028-0.015-0.042-0.042-0.042c0-0.027-0.015-0.059-0.045-0.086c0-0.03-0.014-0.059-0.044-0.087c0-0.03,0-0.059,0-0.086
				c0-0.029,0-0.059,0-0.086v-0.044l-0.043-0.043c0-0.028-0.014-0.058-0.042-0.086c0-0.028,0-0.058,0-0.087v-0.042
				c0-0.032,0-0.059,0-0.088c0-0.029,0-0.058,0-0.085c-0.029-0.029-0.057-0.059-0.087-0.085v-0.087c0-0.031,0-0.06,0-0.087
				c0-0.03,0-0.058,0-0.086c-0.028-0.029-0.041-0.06-0.041-0.087c0-0.029-0.016-0.044-0.044-0.044c0-0.03,0-0.056,0-0.086
				c0-0.028,0-0.057,0-0.084c0-0.03,0-0.059,0-0.089c-0.029,0-0.059-0.014-0.087-0.042l-0.043-0.045c0-0.027,0-0.056,0-0.085
				c0-0.03,0-0.057,0-0.085c0-0.03,0-0.059,0-0.087v-0.044c0-0.027-0.014-0.057-0.042-0.086c0-0.03,0-0.056,0-0.087v-0.086
				c0-0.031-0.015-0.058-0.043-0.088c0-0.027-0.013-0.056-0.044-0.086c0-0.028-0.014-0.056-0.042-0.085c0-0.027,0-0.057,0-0.084
				v-0.044c0-0.03,0-0.059,0-0.087v-0.045c0-0.027,0-0.056,0-0.083v-0.046c-0.029-0.027-0.043-0.058-0.043-0.086
				c0-0.028-0.014-0.057-0.043-0.086c0-0.029,0-0.057,0-0.086v-0.045c0-0.029,0-0.057,0-0.085v-0.043c0-0.028,0-0.057,0-0.087
				c0-0.029,0-0.056,0-0.086V26.02c0-0.029,0-0.058,0-0.086c-0.03-0.03-0.043-0.06-0.043-0.087c0-0.029-0.015-0.059-0.043-0.086
				v-0.086c0-0.029,0-0.06,0-0.086c0-0.029,0-0.057,0-0.087c0-0.029,0-0.057,0-0.086c-0.029,0-0.044-0.016-0.044-0.044
				c0-0.029-0.013-0.058-0.042-0.086c0-0.029,0-0.058,0-0.085c0-0.029,0-0.06,0-0.087c0-0.029,0-0.059,0-0.085
				c0-0.03,0-0.059,0-0.087s-0.015-0.059-0.043-0.086c0-0.029-0.016-0.059-0.044-0.088l-0.043-0.044c0-0.028,0-0.056,0-0.083
				c0-0.029,0-0.059,0-0.088l-0.043-0.044c0-0.028-0.015-0.042-0.044-0.042c0-0.029,0-0.057,0-0.085c0-0.031,0-0.059,0-0.088
				c0-0.03,0-0.058,0-0.087v-0.043c0-0.027,0-0.056,0-0.086c0-0.028,0-0.057,0-0.087v-0.043c0-0.028,0-0.058,0-0.085v-0.044
				c0-0.026-0.014-0.057-0.043-0.086c0-0.028-0.014-0.056-0.042-0.085c0-0.027,0-0.058,0-0.087v-0.042c0-0.029,0-0.059,0-0.087
				v-0.043c0-0.027,0-0.057,0-0.087c0-0.029,0-0.057,0-0.084v-0.045c0-0.029,0-0.057,0-0.086c0-0.029,0-0.057,0-0.085
				c0-0.03,0-0.058,0-0.088v-0.086c0-0.029,0-0.058,0-0.087c0-0.029,0-0.057,0-0.085c0-0.031,0-0.059,0-0.087v-0.044
				c0-0.028,0-0.058,0-0.085c0-0.029,0-0.059,0-0.086c0-0.03,0-0.06,0-0.086c0-0.03,0-0.059,0-0.087c0-0.029,0-0.058,0-0.087
				c0-0.028,0-0.057,0-0.086v-0.043c0-0.028,0-0.058,0-0.087c0-0.027,0-0.057,0-0.086c0-0.028,0-0.058,0-0.087v-0.084
				c0-0.03,0-0.058,0-0.088c0-0.028,0-0.058,0-0.085c0-0.028,0-0.059,0-0.086v-0.043h-0.172c-0.029,0-0.071,0-0.129,0
				c-0.029,0-0.058-0.016-0.087-0.045c-0.028,0-0.058-0.013-0.086-0.041h-0.042c-0.06,0-0.115-0.015-0.174-0.045
				c-0.028-0.028-0.058-0.056-0.086-0.085c-0.027-0.03-0.056-0.057-0.085-0.088v-0.085c0-0.028,0-0.058,0-0.086
				c0-0.03,0-0.057,0-0.089v-0.042c0-0.027-0.016-0.056-0.045-0.084c0-0.029-0.013-0.06-0.042-0.088c0-0.027,0-0.058,0-0.084
				c0-0.029,0-0.059,0-0.087s0-0.059,0-0.088c0-0.027,0-0.055,0-0.086c0-0.028,0-0.059,0-0.085v-0.043c0-0.029,0-0.057,0-0.086
				c-0.028-0.028-0.058-0.058-0.087-0.087c0-0.029,0-0.057,0-0.085v-0.088c0-0.028,0-0.058,0-0.086c0-0.029,0-0.058,0-0.086
				s0-0.057,0-0.086v-0.042c0-0.03,0-0.06,0-0.087c0-0.03,0-0.057,0-0.086v-0.044c0-0.029,0-0.059,0-0.087v-0.042
				c0-0.029,0-0.058,0-0.085c0-0.031,0-0.059,0-0.087c0-0.03,0-0.058,0-0.086v-0.044c0-0.028,0-0.058,0-0.087v-0.042
				c0-0.03,0-0.059,0-0.087v-0.044c0-0.028,0-0.057,0-0.083c0-0.031,0-0.059,0-0.088c0-0.029,0-0.059,0-0.087
				c0-0.029,0-0.058,0-0.086v-0.087c0-0.03,0-0.057,0-0.086c0-0.03,0-0.059,0-0.087v-0.043c0-0.029,0-0.058,0-0.088
				c0-0.027,0-0.056,0-0.086c0-0.029,0-0.057,0-0.085v-0.087c0-0.028,0-0.058,0-0.084c0-0.031,0-0.059,0-0.087
				c0-0.029,0-0.059,0-0.087v-0.043c0-0.029,0-0.058,0-0.085c0-0.029,0-0.06,0-0.089c0-0.028,0-0.057,0-0.087v-0.085
				c0-0.027,0-0.055,0-0.086c0-0.028,0-0.058,0-0.087c0-0.028,0-0.057,0-0.086c0.029,0,0.044-0.013,0.044-0.042
				c0.029-0.028,0.043-0.058,0.043-0.087c0-0.027,0-0.057,0-0.087v-0.086c0-0.028,0-0.058,0-0.088c0-0.026,0-0.058,0-0.085
				c0-0.03,0-0.06,0-0.088c0-0.027,0-0.056,0-0.085v-0.042c0-0.031,0-0.06,0-0.087h0.042c0-0.029,0-0.057,0-0.085
				c0.029-0.032,0.045-0.061,0.045-0.088v-0.085c0-0.029,0-0.058,0-0.087s0-0.059,0-0.087v-0.041c0-0.031,0-0.06,0-0.087
				c0.029,0,0.058-0.016,0.085-0.045v-0.085c0-0.03,0-0.06,0-0.087v-0.044c0.029-0.029,0.044-0.057,0.044-0.085
				c0.029-0.029,0.057-0.059,0.086-0.085c0-0.031,0-0.059,0-0.086v-0.045c0.029,0,0.058-0.015,0.086-0.043c0-0.028,0-0.058,0-0.086
				c0-0.031,0-0.057,0-0.087c0-0.029,0-0.057,0-0.086v-0.044c0.03-0.028,0.044-0.058,0.044-0.087c0-0.028,0.013-0.056,0.042-0.083
				c0-0.031,0-0.059,0-0.086c0.028,0,0.059,0,0.086,0c0-0.031,0-0.06,0-0.089c0-0.027,0-0.057,0-0.085c0-0.029,0-0.059,0-0.087
				c0.029-0.029,0.043-0.057,0.043-0.086c0.03,0,0.056-0.014,0.086-0.045c0-0.026,0-0.056,0-0.086c0-0.029,0-0.057,0-0.086v-0.043
				l0.044-0.044c0-0.028,0-0.057,0-0.087c0-0.026,0-0.056,0-0.085s0-0.057,0-0.087v-0.042c0-0.029,0-0.059,0-0.086
				c0-0.028,0-0.057,0-0.087v-0.041c0-0.033,0-0.06,0-0.087v-0.044c0-0.027,0-0.057,0-0.086c0-0.03,0-0.058,0-0.087
				c0-0.029,0-0.056,0-0.085v-0.044c0.028-0.028,0.057-0.058,0.085-0.087l0.043-0.042c0-0.028,0-0.058,0-0.086
				c0-0.028,0-0.058,0-0.087v-0.042c0-0.03,0-0.061,0-0.088s0-0.059,0-0.086c-0.028-0.029-0.043-0.058-0.043-0.086
				c-0.028,0-0.057-0.016-0.085-0.044v-0.042c0-0.029,0-0.057,0-0.086c0-0.029,0-0.057,0-0.086c0-0.029,0-0.057,0-0.087v-0.043
				c-0.028-0.029-0.044-0.058-0.044-0.085c-0.03-0.029-0.057-0.059-0.086-0.087c-0.029-0.031-0.059-0.044-0.086-0.044l-0.043,0.044
				c0,0.028,0,0.058,0,0.087c0,0.027-0.016,0.057-0.042,0.085v0.043c-0.029,0.03-0.06,0.058-0.088,0.087
				c-0.027,0-0.057,0.014-0.086,0.042l-0.042,0.044c-0.059,0-0.1,0-0.129,0c-0.03,0-0.087-0.014-0.174-0.044
				c-0.027-0.029-0.073-0.042-0.13-0.042c-0.026,0-0.07,0-0.128,0c-0.952,0.029-1.931,0.057-2.941,0.086
				c-0.029,0.03-0.043,0.058-0.043,0.086c-0.028,0-0.043,0.015-0.043,0.042c-0.058,0-0.101,0-0.128,0
				c-0.059,0-0.118-0.015-0.173-0.042c0-0.029-0.016-0.057-0.043-0.086c-0.03-0.029-0.057-0.057-0.086-0.086l-0.042-0.043
				c0-0.031-0.016-0.044-0.043-0.044c0-0.03-0.014-0.057-0.046-0.087v-0.042l-0.043-0.044c-0.026,0-0.056-0.015-0.085-0.043
				c-0.058,0-0.1,0-0.131,0h-0.041c-0.03,0-0.059,0-0.087,0c-0.086,0-0.159,0-0.216,0c-0.03,0-0.059,0-0.085,0h-0.089
				c-0.058,0-0.101,0-0.128,0c-0.031,0-0.059,0-0.087,0c-1.586,0-3.156,0-4.714,0c-0.058,0-0.116-0.015-0.173-0.044
				c-0.029-0.029-0.058-0.042-0.086-0.042c-0.029-0.029-0.058-0.058-0.086-0.087c0-0.03,0-0.059,0-0.089v-0.041
				c0-0.031,0-0.057,0-0.089c-0.028,0-0.056-0.013-0.087-0.042c-0.029,0-0.059-0.014-0.087-0.042
				c-0.028-0.029-0.058-0.06-0.086-0.088c0-0.028-0.013-0.057-0.044-0.086c0-0.028,0-0.057,0-0.085v-0.045
				c0-0.028-0.014-0.056-0.041-0.085c0-0.029,0-0.057,0-0.086c0-0.029,0-0.057,0-0.087c-0.031,0-0.06,0-0.088,0
				c-0.027,0-0.043,0.016-0.043,0.043c0,0.029,0,0.06,0,0.088c0,0.027,0,0.055,0,0.085c-0.027,0.029-0.043,0.057-0.043,0.088v0.042
				c0,0.027-0.015,0.058-0.041,0.086v0.042c0,0.029,0,0.059,0,0.088c0,0.028-0.015,0.055-0.046,0.083v0.043c0,0.029,0,0.059,0,0.086
				c-0.027,0.03-0.043,0.059-0.043,0.089c0,0.029,0,0.058,0,0.087c-0.028,0-0.042,0.013-0.042,0.042v0.044c0,0.028,0,0.058,0,0.087
				c0,0.027,0,0.057,0,0.085v0.043c0,0.03,0,0.058,0,0.087c0,0.029,0,0.057,0,0.086c0,0.03-0.014,0.058-0.043,0.086
				c0,0.027,0,0.057,0,0.086H5.014c0,0.028-0.015,0.058-0.043,0.086c0,0.027,0,0.058,0,0.086s0,0.059,0,0.088v0.042
				c0,0.029-0.013,0.059-0.042,0.087c0,0.028,0,0.059,0,0.086c0,0.029,0,0.059,0,0.086v0.087c-0.029,0.029-0.059,0.057-0.086,0.085
				c-0.059,0.058-0.116,0.117-0.174,0.174c-0.029,0-0.043,0.027-0.043,0.086c-0.03,0.057-0.044,0.116-0.044,0.173
				c0,0.058-0.015,0.101-0.043,0.128c-0.029,0.058-0.043,0.117-0.043,0.173c-0.029,0.031-0.042,0.06-0.042,0.087
				c-0.06,0.06-0.102,0.116-0.131,0.173c0,0.06,0,0.101,0,0.131c-0.029,0.057-0.044,0.114-0.044,0.173c0,0.028,0,0.071,0,0.129
				c-0.058,0.027-0.101,0.072-0.128,0.131c-0.03,0.056-0.045,0.113-0.045,0.171c-0.028,0.03-0.072,0.074-0.129,0.13
				c0,0.03,0,0.072,0,0.129c-0.028,0.058-0.057,0.101-0.085,0.131c-0.03,0.056-0.057,0.113-0.087,0.172
				c0,0.057-0.015,0.102-0.043,0.129c0,0.027,0,0.058,0,0.087c0,0.029,0,0.056,0,0.085l-0.042,0.045
				c-0.03,0.027-0.043,0.056-0.043,0.087c-0.03,0.027-0.044,0.069-0.044,0.128c-0.029,0.058-0.057,0.114-0.086,0.173
				c-0.029,0-0.057,0.015-0.086,0.043l-0.043,0.044v0.042c-0.03,0.029-0.058,0.058-0.086,0.085c0,0.028,0,0.059,0,0.088
				l-0.044,0.043c0,0.029,0,0.057,0,0.087c0,0.027-0.013,0.055-0.042,0.086c0,0.027-0.015,0.042-0.043,0.042
				c-0.03,0.03-0.044,0.06-0.044,0.088c-0.03,0-0.058,0.014-0.086,0.044c0,0.027,0,0.056,0,0.084c0,0.031-0.013,0.06-0.043,0.086
				c0,0.03,0,0.06,0,0.087c-0.028,0-0.058,0.014-0.087,0.044c-0.029,0.028-0.043,0.057-0.043,0.086
				c-0.028,0-0.057,0.015-0.085,0.043c-0.057,0-0.086,0.017-0.086,0.043c-0.029,0.028-0.044,0.058-0.044,0.088
				c-0.028,0-0.057,0-0.086,0c0,0.027-0.015,0.041-0.043,0.041c-0.028,0-0.072,0-0.13,0c-0.057,0-0.114,0-0.173,0
				c-0.058,0-0.101,0-0.13,0c-0.027,0-0.07,0.016-0.13,0.046c-0.113,0-0.216,0.014-0.301,0.042c-0.058,0-0.13,0-0.217,0
				c-0.144-0.028-0.273-0.057-0.39-0.087c-0.086-0.026-0.156-0.041-0.215-0.041c-0.087-0.03-0.172-0.045-0.259-0.045
				c-0.059,0-0.115-0.015-0.174-0.043c0-0.026-0.013-0.059-0.042-0.086c-0.029-0.029-0.059-0.059-0.086-0.086v-0.086
				c0-0.028,0-0.058,0-0.087c0-0.027,0-0.057,0-0.087c0-0.028,0-0.058,0-0.086v-0.045c0-0.027,0-0.057,0-0.084
				c0-0.031,0-0.059,0-0.086c0-0.03,0-0.058,0-0.087v-0.086c0-0.031,0-0.06,0-0.087c0-0.029,0-0.057,0-0.085
				c0-0.032,0-0.061,0-0.088v-0.044c0-0.027,0-0.057,0-0.086c0-0.027,0-0.057,0-0.085v-0.084c0-0.031,0-0.06,0-0.087
				c0-0.03,0-0.06,0-0.087c0-0.029,0-0.059,0-0.086c0-0.03,0-0.058,0-0.088v-0.042c0-0.028,0-0.057,0-0.087V14.82
				c0-0.031,0-0.059,0-0.086v-0.045c0-0.028,0-0.058,0-0.086c0-0.03,0-0.057,0-0.087c0-0.028,0-0.057,0-0.087v-0.042
				c0-0.029,0-0.057,0-0.086v-0.045c0-0.028,0-0.056,0-0.083c0-0.031,0-0.059,0-0.086V14.04c0-0.028,0-0.058,0-0.086
				c0-0.029,0-0.059,0-0.086c0-0.029,0-0.058,0-0.088v-0.087c0-0.026,0-0.056,0-0.086c0-0.029,0-0.057,0-0.086
				c0-0.027,0-0.057,0-0.087v-0.042c0-0.028,0-0.058,0-0.086s0-0.059,0-0.086c0-0.028,0-0.059,0-0.087c0-0.029,0-0.059,0-0.086
				c0-0.028,0-0.057,0-0.087c0-0.029,0-0.059,0-0.086c0-0.029,0-0.059,0-0.086v-0.043c0-0.029,0-0.057,0-0.085
				c0-0.031,0-0.06,0-0.087v-0.087c0-0.028,0-0.058,0-0.087c0-0.029,0-0.057,0-0.084c0-0.03,0-0.058,0-0.087V12.18
				c0-0.028,0-0.057,0-0.087c0-0.029,0-0.057,0-0.085v-0.044c0-0.029,0-0.058,0-0.086v-0.044c0-0.028,0-0.057,0-0.086
				s0-0.057,0-0.087c0-0.029,0-0.057,0-0.085v-0.044c0-0.03,0-0.057,0-0.087v-0.042c0-0.029,0-0.059,0-0.087
				c0-0.031,0-0.058,0-0.086v-0.044c0-0.028,0-0.057,0-0.086c0-0.029,0-0.058,0-0.085c0-0.031,0-0.057,0-0.089v-0.083
				c0-0.029,0-0.06,0-0.088c0-0.028,0-0.057,0-0.086c0-0.028,0-0.057,0-0.085v-0.045c0-0.028,0-0.056,0-0.085
				c0-0.029,0-0.057,0-0.086c0-0.029,0-0.057,0-0.087c0-0.029,0-0.058,0-0.086c0-0.028,0-0.057,0-0.088c0-0.027,0-0.057,0-0.086
				V9.974c0-0.028,0-0.058,0-0.085c0-0.028,0-0.059,0-0.087s0-0.056,0-0.088V9.629c0-0.028,0-0.059,0-0.086c0-0.029,0-0.06,0-0.085
				c0-0.03,0-0.06,0-0.088V9.328c0-0.029,0-0.06,0-0.086c0-0.029,0-0.06,0-0.089V9.109c0-0.029,0-0.057,0-0.086V8.98
				c0-0.028,0-0.059,0-0.087s0-0.058,0-0.084c0-0.029,0-0.061,0-0.089V8.679c0-0.031,0-0.058,0-0.087V8.548c0-0.029,0-0.06,0-0.086
				c0-0.03,0-0.058,0-0.086V8.333c0-0.032,0-0.059,0-0.088c0-0.028,0-0.058,0-0.087c0-0.028,0-0.058,0-0.087V7.985
				c0-0.028,0-0.057,0-0.085c0-0.029,0-0.059,0-0.087V7.77c0-0.03,0-0.057,0-0.087s0-0.057,0-0.084c0-0.032,0-0.061,0-0.088V7.423
				c0-0.027,0-0.057,0-0.086s0-0.057,0-0.086c0-0.03,0-0.057,0-0.087V7.121c0-0.028,0-0.058,0-0.087c0-0.028,0-0.058,0-0.086
				c0-0.028,0-0.057,0-0.088V6.776c0-0.029,0-0.058,0-0.087s0-0.057,0-0.086c0-0.03,0-0.06,0-0.087V6.471c0-0.027,0-0.056,0-0.086
				c0-0.028,0-0.057,0-0.085V6.256c0-0.029,0-0.057,0-0.086V6.125c0-0.027,0-0.057,0-0.085c0-0.029,0-0.057,0-0.088
				c0-0.028,0-0.057,0-0.086v-0.04c0-0.031,0-0.059,0-0.087V5.692c0-0.028,0-0.055,0-0.084V5.565c0-0.029,0-0.06,0-0.088
				c0-0.03,0-0.056,0-0.086h0.042L0.301,5.348c0-0.029,0-0.058,0-0.086V5.218C0.328,5.19,0.344,5.16,0.344,5.132
				C0.372,5.104,0.4,5.074,0.43,5.043c0.029-0.027,0.059-0.056,0.087-0.085l0.086-0.085c0-0.03,0.015-0.058,0.043-0.087
				C0.675,4.756,0.691,4.727,0.691,4.7c0.028-0.03,0.041-0.059,0.041-0.086c0.029,0,0.06-0.016,0.086-0.043l0.044-0.047
				c0.059-0.028,0.1-0.041,0.129-0.041c0.086-0.029,0.146-0.059,0.174-0.087c0.057,0,0.128-0.013,0.216-0.042
				c0.028,0,0.043-0.017,0.043-0.045c0.057,0,0.102,0,0.129,0C1.642,4.28,1.713,4.267,1.77,4.267V4.222h0.086
				C1.916,4.253,1.973,4.28,2.029,4.31c0.031,0,0.044,0.014,0.044,0.045c0,0.029,0.016,0.042,0.042,0.042c0,0.029,0,0.058,0,0.087
				c0.775,0,1.555,0,2.338,0C4.437,4.469,4.423,4.454,4.409,4.439c0-0.029-0.015-0.056-0.043-0.085V4.31
				C4.338,4.28,4.309,4.253,4.278,4.222V4.18c0-0.029,0-0.057,0-0.085V3.876c0-0.028,0-0.057,0-0.085V3.704
				c0.03-0.028,0.06-0.043,0.087-0.043V3.616C4.394,3.589,4.409,3.56,4.409,3.533c0.028-0.03,0.045-0.06,0.045-0.087
				C4.48,3.416,4.495,3.387,4.495,3.359c0.029,0,0.043-0.016,0.043-0.045c0-0.026,0.015-0.057,0.043-0.086
				c0.028,0,0.058-0.015,0.087-0.042c0.028,0,0.072-0.015,0.129-0.045c0.029,0,0.059-0.014,0.087-0.043V3.057
				c0-0.029,0-0.059,0-0.088c0-0.028,0-0.058,0-0.088V2.84c0-0.029,0-0.06,0-0.086V2.709c0.028-0.029,0.043-0.057,0.043-0.087
				c0.057-0.028,0.1-0.057,0.128-0.084c0.029-0.029,0.073-0.06,0.129-0.089l0.046-0.042c0.026,0,0.071,0,0.127,0
				c0.116,0,0.245,0,0.39,0c0.029,0,0.072,0.014,0.13,0.042c0.028,0.029,0.057,0.045,0.086,0.045
				c0.058,0.029,0.115,0.059,0.173,0.087c0,0.028,0.014,0.058,0.042,0.085c0.031,0.029,0.074,0.043,0.13,0.043
				c0.057,0,0.103,0,0.129,0v0.044c0.087-0.028,0.16-0.044,0.217-0.044c0.03,0,0.059-0.014,0.088-0.043
				c0.026,0,0.056-0.014,0.085-0.043c0.028,0,0.072-0.013,0.128-0.042c0.029,0,0.074,0,0.13,0c0,0.028,0.031,0.058,0.086,0.085
				c0-0.027,0.015-0.057,0.045-0.085c0-0.028,0-0.058,0-0.087c0.029,0,0.057-0.016,0.085-0.045l0.043-0.042
				c0.03-0.028,0.059-0.058,0.088-0.086C7.466,2.293,7.48,2.262,7.48,2.234c0.028-0.028,0.057-0.057,0.085-0.086l0.043-0.042
				c0-0.03,0-0.06,0-0.087c0-0.029,0-0.057,0-0.086c0.029,0,0.057-0.016,0.088-0.044c0-0.028,0-0.057,0-0.086
				c0.028-0.028,0.056-0.043,0.084-0.043C7.81,1.73,7.84,1.714,7.869,1.714c0-0.027,0.014-0.042,0.044-0.042
				c0.057-0.03,0.101-0.045,0.127-0.045C8.099,1.6,8.156,1.585,8.215,1.585V1.544h0.043c0.029,0,0.043-0.018,0.043-0.045
				c0.028,0,0.042-0.015,0.042-0.042c0.031,0,0.073,0,0.132,0c0.057,0,0.113,0,0.172,0c10.118,0,20.238,0,30.357,0h0.043
				c0-0.031,0.014-0.045,0.044-0.045c0.029,0,0.057,0,0.085,0V1.371c0.031,0,0.061,0,0.089,0c0.058,0.028,0.115,0.056,0.173,0.086
				c0.057,0,0.116,0.013,0.171,0.042c0.029,0.027,0.06,0.045,0.088,0.045c0.057,0.028,0.099,0.056,0.127,0.083
				c0.03,0.03,0.074,0.06,0.131,0.086L40,1.758c0.029,0.03,0.058,0.056,0.086,0.086c0.03,0.029,0.056,0.06,0.087,0.087
				c0,0.029,0,0.057,0,0.086c0.029,0.028,0.043,0.058,0.043,0.087c0.058,0.027,0.101,0.056,0.13,0.086
				c0.028,0.029,0.043,0.057,0.043,0.086c0.029,0.028,0.058,0.057,0.086,0.086c0,0.028,0.029,0.043,0.087,0.043
				c0,0.028,0.012,0.042,0.042,0.042v0.045c0.059,0,0.101,0,0.131,0c0.029,0.029,0.056,0.044,0.087,0.044
				c0.028,0,0.043,0.015,0.043,0.043c0.202,0,0.417,0,0.649,0c0-0.028,0.014-0.043,0.043-0.043c0.028,0,0.072-0.015,0.128-0.044
				c0.029,0,0.089,0,0.174,0c0.028,0.029,0.071,0.044,0.129,0.044c0.029,0,0.043,0.015,0.043,0.043c0.03,0,0.059,0,0.087,0
				c0.058,0.028,0.116,0.058,0.174,0.085l0.042,0.043c0.058,0,0.101,0.016,0.13,0.044h0.042c0.058,0.026,0.116,0.057,0.174,0.086
				v0.041c0.057,0.03,0.114,0.06,0.172,0.088c0,0.029,0.015,0.059,0.044,0.088c0.029,0,0.058,0,0.086,0c0,0.028,0,0.057,0,0.085
				c0,0.03,0,0.059,0,0.086c0,0.029,0,0.06,0,0.086v0.045c0,0.057,0,0.101,0,0.128c0.028,0.058,0.071,0.116,0.128,0.173l0.045,0.087
				c0,0.058,0.012,0.116,0.041,0.173c0,0.029,0,0.073,0,0.129c0,0.059,0,0.117,0,0.172C43.17,4.253,43.158,4.28,43.158,4.31
				c0.055,0,0.099,0,0.128,0s0.073,0.014,0.13,0.045c0,0.029,0.016,0.042,0.044,0.042c0.028,0.029,0.057,0.058,0.086,0.087
				c0.03,0.028,0.042,0.058,0.042,0.087c0,0.028,0.015,0.043,0.043,0.043v0.041c0,0.03,0,0.059,0,0.087
				c0,0.029-0.013,0.059-0.043,0.086c0,0.03,0,0.059,0,0.088l-0.042,0.042c0,0.029,0,0.059,0,0.085c0,0.031,0,0.06,0,0.089v0.042
				c0,0.03,0,0.057,0,0.087c0,0.028,0.015,0.071,0.042,0.128c0,0.056,0.03,0.115,0.088,0.174l0.043,0.085
				c0,0.058,0.014,0.116,0.043,0.175c0,0.027,0,0.069,0,0.126c0,0.059,0,0.117,0,0.173l-0.043,0.044h0.043
				c0.058,0.029,0.115,0.057,0.173,0.086c0,0.029,0.015,0.043,0.044,0.043C44.035,6.328,44.093,6.357,44.15,6.385z M23.48,11.619
				c-0.03-0.029-0.043-0.057-0.043-0.087c-0.03,0-0.059-0.015-0.088-0.043c-0.027-0.029-0.042-0.058-0.042-0.085
				c0-0.029,0-0.059,0-0.087c-0.03-0.029-0.043-0.058-0.043-0.086c0,0.028-0.015,0.057-0.044,0.086c0,0.028,0,0.058,0,0.087
				c0,0.027,0,0.057,0,0.085v0.043c0,0.03,0,0.058,0,0.087c0,0.029,0.016,0.057,0.044,0.086c0,0.03,0,0.058,0,0.086
				c0,0.027,0.013,0.042,0.043,0.042v0.044c0,0.028,0,0.058,0,0.086c0,0.027,0,0.058,0,0.086s0,0.059,0,0.088v0.042
				c0.03,0.029,0.057,0.059,0.085,0.087v0.044c0.202,0,0.418,0,0.651,0c-0.032-0.001-0.06-0.016-0.087-0.044
				c-0.03-0.028-0.059-0.058-0.088-0.087c-0.028,0-0.043-0.015-0.043-0.042c-0.029-0.03-0.055-0.061-0.085-0.088
				s-0.043-0.059-0.043-0.086c0-0.029,0-0.058,0-0.086c-0.031,0-0.042-0.016-0.042-0.044c-0.031,0-0.058-0.015-0.089-0.042
				c-0.027-0.029-0.056-0.057-0.085-0.086C23.48,11.676,23.48,11.648,23.48,11.619z M0.863,7.121c0,0.029,0,0.059,0,0.085
				c0,0.03,0,0.06,0,0.086c0,0.031,0,0.061,0,0.088c0,0.031,0,0.057,0,0.085V7.51c0,0.027,0,0.056,0,0.088v0.041
				c0,0.029,0,0.059,0,0.086V7.77c0,0.029,0,0.056,0,0.085c0,0.031,0,0.058,0,0.085c0,0.03,0,0.06,0,0.089v0.042
				c0,0.029,0,0.059,0,0.087v0.043c0,0.03,0,0.056,0,0.086c0,0.03,0,0.058,0,0.088v0.086c0.028-0.03,0.043-0.058,0.043-0.086
				c0-0.03,0-0.074,0-0.13c0-0.058,0-0.115,0-0.174c0-0.031,0-0.071,0-0.131c0-0.055,0-0.099,0-0.127c0-0.029,0-0.074,0-0.13
				c0-0.057,0-0.117,0-0.173c0-0.03,0-0.073,0-0.13c0-0.058,0-0.101,0-0.129c0-0.057,0-0.102,0-0.13c0-0.058,0-0.115,0-0.173
				c0-0.057,0-0.101,0-0.128c0-0.06,0-0.102,0-0.131S0.891,6.631,0.863,6.603v0.042c0,0.029,0,0.059,0,0.086
				c0,0.029,0,0.059,0,0.088v0.04c0,0.032,0,0.06,0,0.088c0,0.028,0,0.058,0,0.086V7.121z"/>
</svg>
