<?xml version="1.0"?>
<svg xmlns="http://www.w3.org/2000/svg" viewBox="0 0 24 24" fill="none">
  <path fill="currentColor" fill-rule="evenodd" clip-rule="evenodd" d="M6.66665 21.2376C11.7684 24.1831 18.2921 22.4351 21.2376 17.3333C24.1831 12.2315 22.4351 5.70788 17.3333 2.76236C12.2315 -0.183163 5.70791 1.56484 2.76239 6.66662C-0.183132 11.7684 1.56487 18.292 6.66665 21.2376ZM4.98679 17.0954C3.03875 14.411 2.72898 10.7245 4.49444 7.66662C6.09824 4.88876 9.00764 3.33464 12 3.33185V7.99929C10.6189 8.00057 9.27611 8.71786 8.53589 9.99996C7.72106 11.4113 7.86403 13.1128 8.76314 14.3517L4.98679 17.0954ZM12 20.6681C14.9924 20.6653 17.9018 19.1111 19.5055 16.3333C21.271 13.2755 20.9612 9.58895 19.0132 6.90459L15.2369 9.64827C16.1359 10.8872 16.2789 12.5887 15.4641 14C14.7239 15.282 13.3811 15.9993 12 16.0006L12 20.6681ZM13 10.2679C13.9566 10.8202 14.2843 12.0434 13.732 13C13.1798 13.9565 11.9566 14.2843 11 13.732C10.0434 13.1797 9.71565 11.9565 10.2679 11C10.8202 10.0434 12.0434 9.71562 13 10.2679Z"/>
</svg>
