<?xml version="1.0"?>
<svg xmlns="http://www.w3.org/2000/svg" viewBox="0 0 1920 1080" fill="none">
  <path fill="#1A9FFF" d="M879.121 174.879C877.95 173.707 876.05 173.707 874.879 174.879L855.787 193.971C854.615 195.142 854.615 197.042 855.787 198.213C856.958 199.385 858.858 199.385 860.029 198.213L877 181.243L893.971 198.213C895.142 199.385 897.042 199.385 898.213 198.213C899.385 197.042 899.385 195.142 898.213 193.971L879.121 174.879ZM877 293L880 293L880 177L877 177L874 177L874 293L877 293Z"/>
  <rect fill="currentColor" x="855" y="348" width="44.2764" height="39"/>
  <rect stroke="currentColor" x="863.5" y="323.5" width="27" height="55" stroke-width="3"/>
  <rect fill="currentColor" x="947" y="680.556" width="24.2764" height="48.947"/>
  <path stroke="currentColor" d="M877 353C877 353 877 456.189 877 508.943C877 539 891.383 561.298 921 569.234C966 581.292 959.842 605.5 959.842 690.261" stroke-width="6.06911"/>
  <path fill="currentColor" d="M1073.27 745.834C1070.73 743.296 1067.35 740.759 1063.97 737.375V735.684C1063.97 735.684 1063.97 730.609 1058.9 726.379C1053.83 722.15 1025.93 712 1015.79 712C1009.87 712 1008.18 713.692 1005.65 715.383C1003.96 716.229 1003.11 717.075 1001.42 717.075H916.044C914.354 717.075 912.663 716.229 911.818 715.383C910.127 713.692 907.591 712 901.674 712C892.376 712 863.635 721.304 858.564 726.379C853.492 731.455 854.337 735.684 854.337 735.684V736.53C850.956 739.067 847.575 742.451 845.039 744.988C835.74 755.138 807 835.494 807 878.632C807 921.771 835.74 926 835.74 926C843.348 926 855.182 910.775 867.017 896.395C877.16 883.708 886.459 871.02 893.221 869.328C907.591 864.253 1012.41 864.253 1026.78 869.328C1033.54 871.866 1042.84 883.708 1052.98 896.395C1064.82 910.775 1076.65 926 1084.26 926C1084.26 926 1113 920.925 1113 878.632C1113 836.34 1082.57 755.138 1073.27 745.834ZM878.006 788.126C867.862 788.126 859.409 779.668 859.409 769.518C859.409 759.368 867.862 750.909 878.006 750.909C888.149 750.909 896.602 759.368 896.602 769.518C896.602 779.668 888.994 788.126 878.006 788.126ZM940.558 823.652C940.558 826.19 938.022 828.727 935.486 828.727H928.724V835.494C928.724 838.032 926.188 840.569 923.652 840.569H914.354C911.818 840.569 909.282 838.032 909.282 835.494V828.727H902.519C899.983 828.727 897.448 826.19 897.448 823.652V814.348C897.448 811.81 899.983 809.273 902.519 809.273H909.282V802.506C909.282 799.968 911.818 797.431 914.354 797.431H923.652C926.188 797.431 928.724 799.968 928.724 802.506V809.273H935.486C938.022 809.273 940.558 811.81 940.558 814.348V823.652ZM1040.3 738.221C1047.07 738.221 1052.14 743.296 1052.14 750.063C1052.14 756.83 1047.07 761.905 1040.3 761.905C1033.54 761.905 1028.47 756.83 1028.47 750.063C1028.47 743.296 1033.54 738.221 1040.3 738.221ZM1002.27 835.494C992.122 835.494 983.668 827.036 983.668 816.885C983.668 806.735 992.122 798.277 1002.27 798.277C1012.41 798.277 1020.86 806.735 1020.86 816.885C1020.86 827.036 1012.41 835.494 1002.27 835.494ZM1018.33 783.897C1011.56 783.897 1006.49 778.822 1006.49 772.055C1006.49 765.289 1011.56 760.213 1018.33 760.213C1025.09 760.213 1030.16 765.289 1030.16 772.055C1030.16 777.976 1025.09 783.897 1018.33 783.897ZM1040.3 805.043C1033.54 805.043 1028.47 799.968 1028.47 793.202C1028.47 786.435 1033.54 781.36 1040.3 781.36C1047.07 781.36 1052.14 786.435 1052.14 793.202C1052.14 799.968 1046.22 805.043 1040.3 805.043ZM1061.44 783.897C1054.67 783.897 1049.6 778.822 1049.6 772.055C1049.6 765.289 1054.67 760.213 1061.44 760.213C1068.2 760.213 1073.27 765.289 1073.27 772.055C1073.27 777.976 1068.2 783.897 1061.44 783.897Z"/>
  <path fill="currentColor" d="M1193 141H728V0H1193V141ZM1155 77C1143.95 77 1135 85.9543 1135 97C1135 108.046 1143.95 117 1155 117C1166.05 117 1175 108.046 1175 97C1175 85.9543 1166.05 77 1155 77ZM771 107H821V87H771V107ZM852 107H902V87H852V107Z"/>
</svg>
