<?xml version="1.0"?>
<svg xmlns="http://www.w3.org/2000/svg" version="1.1" viewBox="0 0 1024 1024">
  <path d="M534.1,714.7c0-74.7,0-149.3,0-224,0-16.4,0-16.4,16.4-16.4,24.6,0,49.2,0,73.9,0,12.4,0,13.3-.7,13.3-14,.1-41.7,0-83.5,0-125.2,0-84.8.1-169.7,0-254.5,0-6.6,1.8-9,8.6-8.9,27.6.3,55.1.1,82.7,0,6.2,0,9.1,1.8,9,8.8-.3,26.5,0,53,0,79.5,0,13.3.4,13.9,14,13.9,31.8.2,63.7.1,95.5.1,34.5,0,69,0,103.6-.3,6.5,0,8.4,2.1,8.3,8.3-.3,27.3-.6,54.6-.3,81.9,0,7.8-2.5,10-10.1,10-61.5-.2-123.1,0-184.6,0-5.9,0-11.8.4-17.7,0-6.8-.4-8.8,2.6-8.8,9.1,0,42.3,0,84.6-.1,126.8,0,17.7-.1,35.3.2,53,.2,10.1,2.2,11.7,12,11.7,64.2,0,128.4-.1,192.7-.3,15.4,0,15.5-.1,15.5,15.2,0,107.8.5,215.7-.3,323.5-.2,30-11.4,57.2-29.7,81.3-15.9,20.9-35.7,36.7-59.9,46.8-16.1,6.7-32.9,11-50.6,11-90.4,0-180.9,0-271.3.1-11.5,0-11.9,0-12-11.7-.3-36.4-.2-72.8-.2-109.2,0-38.8,0-77.6,0-116.4h0ZM634.5,712.9c0,42.8.1,85.6-.1,128.4,0,7.7,3,10.6,10.4,10.6,54.8-.1,109.7,0,164.5-.3,6.8,0,14.2-1,20.3-3.7,19-8.4,27.8-23.6,27.8-44.6-.2-72.8,0-145.5,0-218.3,0-9.7-.5-10.3-10.6-10.3-66.9-.1-133.8-.2-200.7-.3-9.9,0-11.6,1.7-11.6,11.7,0,42.3,0,84.5,0,126.8Z"/>
  <path d="M488.8,390.4c0,101.2,0,202.3,0,303.5,0,16.5-.1,16.4-16.4,16.4-24.4,0-48.7,0-73.1.1-11,0-11.2,0-11.2-11,0-168.9,0-337.7,0-506.6,0-25.3,1.5-20.7-21.1-20.8-50.3-.2-100.6-.4-150.9.3-9,.1-18.3,3.1-26.7,6.5-17.1,6.8-22.3,21.8-23.6,38.7-.3,4.5-.1,9.1-.1,13.6,0,151.2,0,302.4,0,453.6,0,5.9-1.1,11.8-.8,17.6.4,7.2-3.4,8.5-9.4,8.4-16.9-.2-33.7-.2-50.6-.1-10.4,0-20.9,0-31.3.4-6,.2-8.4-1.7-8.4-8.3.1-65.8-.1-131.7-.2-197.5,0-92.3.3-184.6-.3-277-.2-30.8,5.4-59.6,21.6-85.8,24-38.8,58.9-62,104.2-68.5,12.9-1.8,26.1-2,39.2-2,82.2-.2,164.3-.1,246.5-.1,11.3,0,12.6,1,12.6,10.3,0,102.8,0,205.5,0,308.3Z"/>
  <path d="M328.1,480.5c0,76-.5,152,.2,228,.4,37.7,15.9,69.6,42.1,96.8,12.2,12.7,26.1,22.9,41.7,30.6,18.8,9.3,38.7,14.9,60.1,14.8,19.8-.1,17.9-2,17.9,18.3,0,24.4-.4,48.7-.1,73.1,0,7.5-2.9,9.7-10,9.6-45.4-.8-88.1-10.6-127.7-34.1-26.1-15.5-48.8-34.3-68.3-57.4-5.7-6.8-6.8-6.7-12.7.4-30,36.3-67.3,62.6-111.5,78.1-27.5,9.6-56.2,14.7-85.8,13.7-8.8-.3-9.2-5.8-9.2-11.8,0-24.6,0-49.2.2-73.9.1-15.3.3-15.2,15.3-15.3,46.2-.4,83.7-19.2,112.9-54.6,22.6-27.3,33.8-58.9,33.7-94.5-.1-63.7.1-127.4.2-191.1.2-88.1.5-176.1.4-264.2,0-7.9,2.6-10.2,10.1-10.1,26.8.3,53.5.3,80.3,0,7.2,0,9.4,2.7,9.3,9.4-.2,22.5,0,45,0,67.4,0,55.7.6,111.3.6,167,.3,0-.1,0,.1,0Z"/>
</svg>
