<?xml version="1.0"?>
<svg xmlns="http://www.w3.org/2000/svg" viewBox="0 0 36 36" fill="none">
  <path d="M32 18.05C32 14.337 30.525 10.7761 27.8995 8.15055C25.274 5.52504 21.713 4.05005 18 4.05005C14.287 4.05005 10.726 5.52504 8.1005 8.15055C5.475 10.7761 4 14.337 4 18.05C4.00415 18.94 4.09457 19.8275 4.27 20.7001C4.27 20.7001 4.93 25.78 10 32.05L15 29.05L12 21.05H8.47C8.15762 20.0807 7.99903 19.0685 8 18.05C8 15.3979 9.05357 12.8543 10.9289 10.979C12.8043 9.10362 15.3478 8.05005 18 8.05005C20.6522 8.05005 23.1957 9.10362 25.0711 10.979C26.9464 12.8543 28 15.3979 28 18.05C28.001 19.0685 27.8424 20.0807 27.53 21.05H24L21 29.05L26 32.05C31.07 25.78 31.74 20.7001 31.74 20.7001C31.9121 19.8272 31.9991 18.9397 32 18.05Z" fill="currentColor"/>
</svg>
