<?xml version="1.0"?>
<svg xmlns="http://www.w3.org/2000/svg" viewBox="0 0 36 36" fill="none">
  <path fill="currentColor" d="M31.2427 7.2625C27.5902 3.60402 21.6624 3.59803 18.0039 7.25052L17.9919 7.2625C12.5372 12.861 7.48954 18.8367 2.89698 25.1657C1.53179 26.8003 1.74735 29.2433 3.38797 30.6085C4.75915 31.7581 6.74707 31.806 8.17812 30.7342L19.8182 21.9383C24.2551 24.6028 30.0092 23.1658 32.6738 18.7289C34.8772 15.0285 34.2904 10.3042 31.2427 7.2625ZM29.0572 18.3457C26.6561 20.8306 22.6983 20.9025 20.2134 18.5014C18.1596 16.5195 17.7105 13.4059 19.1176 10.921C19.405 10.3881 19.7703 9.89708 20.1954 9.47195C22.6444 7.02299 26.6142 7.02898 29.0632 9.48393C31.5121 11.9269 31.5062 15.9027 29.0572 18.3457Z"/>
  <path fill="currentColor" d="M24.6142 17.6272C26.6778 17.6272 28.3506 15.9544 28.3506 13.8909C28.3506 11.8273 26.6778 10.1545 24.6142 10.1545C22.5507 10.1545 20.8779 11.8273 20.8779 13.8909C20.8779 15.9544 22.5507 17.6272 24.6142 17.6272Z"/>
</svg>
