<?xml version="1.0"?>
<svg viewBox="0 0 36 36" fill="none" xmlns="http://www.w3.org/2000/svg">
  <path d="M18 17C15.6131 17 13.3239 17.9482 11.636 19.636C9.94821 21.3239 9 23.6131 9 26V31H27V26C27 23.6131 26.0518 21.3239 24.364 19.636C22.6761 17.9482 20.3869 17 18 17ZM18 14C18.9889 14 19.9556 13.7068 20.7779 13.1573C21.6001 12.6079 22.241 11.827 22.6194 10.9134C22.9978 9.99979 23.0969 8.99446 22.9039 8.02455C22.711 7.05465 22.2348 6.16373 21.5355 5.46447C20.8363 4.76521 19.9454 4.289 18.9755 4.09608C18.0055 3.90315 17.0002 4.00217 16.0866 4.3806C15.173 4.75904 14.3921 5.39991 13.8427 6.22215C13.2932 7.0444 13 8.0111 13 9C13 10.3261 13.5268 11.5979 14.4645 12.5355C15.4021 13.4732 16.6739 14 18 14Z" fill="currentColor"/>
  <path opacity="" d="M4.67541 11.8555C5.6007 10.8308 7.18156 10.7501 8.20635 11.6754L18.9515 21.3773L15.6007 25.0884L4.85556 15.3865C3.83077 14.4612 3.75011 12.8803 4.67541 11.8555V11.8555Z" fill="currentColor" stroke-width="0"/>
  <path opacity="" d="M32.3573 11.8876C33.2626 12.93 33.1515 14.509 32.109 15.4144L23.2784 23.083L20 19.3078L28.8305 11.6392C29.873 10.7339 31.452 10.8451 32.3573 11.8876Z" fill="currentColor" stroke-width="0"/>
</svg>
