<svg width="119" height="136" viewBox="0 0 119 136" fill="none" xmlns="http://www.w3.org/2000/svg">
<path d="M62.408 34.0817C62.408 29.7685 58.8936 26.2541 54.5804 26.2541H33.3341C31.7367 26.2541 30.4587 24.6566 30.7782 23.0592C30.7782 23.0592 37.3278 7.08452 37.3278 5.00781C37.3278 2.9311 36.5291 1.49339 34.9316 1.17389C33.3341 0.854399 29.8197 0.0556668 29.8197 0.0556668C28.2223 -0.10408 27.104 0.0556667 26.3053 0.8544L2.50305 24.6566C1.06534 26.0944 0.266602 28.0113 0.266602 30.088V73.8586C0.266602 75.4561 1.70432 76.8938 3.30179 76.8938H43.0787C46.2736 76.8938 48.5101 74.6573 50.2673 72.1014L60.9703 57.8839C61.6093 57.0852 62.5678 55.1682 62.5678 53.5708V34.4012L62.408 34.0817Z" fill="url(#paint0_linear)" fill-opacity="0.85"/>
<path d="M56.1777 101.918C56.1777 106.231 59.6922 109.746 64.0053 109.746H85.2516C86.8491 109.746 88.1271 111.343 87.8076 112.941C87.8076 112.941 81.2579 128.915 81.2579 130.992C81.2579 133.069 82.0567 134.507 83.6541 134.826C85.2516 135.146 88.766 135.944 88.766 135.944C90.3635 136.104 91.4817 135.944 92.2805 135.146L115.923 111.343C117.361 109.906 118.159 107.989 118.159 105.912V62.1414C118.159 60.5439 116.722 59.1062 115.124 59.1062H75.6668C72.4719 59.1062 70.2354 61.3427 68.4782 63.8986L57.7752 78.116C57.1362 78.9148 56.1777 80.8317 56.1777 82.4292V101.439V101.918Z" fill="url(#paint1_linear)" fill-opacity="0.85"/>
<defs>
<linearGradient id="paint0_linear" x1="31.4172" y1="0" x2="31.4172" y2="76.8938" gradientUnits="userSpaceOnUse">
<stop stop-color="white"/>
<stop offset="1" stop-color="white" stop-opacity="0.58"/>
</linearGradient>
<linearGradient id="paint1_linear" x1="87.1686" y1="59.1062" x2="87.1686" y2="136" gradientUnits="userSpaceOnUse">
<stop stop-color="white"/>
<stop offset="1" stop-color="white" stop-opacity="0.58"/>
</linearGradient>
</defs>
</svg>
