<?xml version="1.0"?>
<svg xmlns="http://www.w3.org/2000/svg" viewBox="0 0 22 14" fill="none">
  <path fill="currentColor" fill-rule="evenodd" clip-rule="evenodd" d="M21.5317 8.08518C21.9792 7.48382 21.9792 6.65974 21.5317 6.05839C16.4487 -0.772392 6.112 -0.772392 1.02897 6.05839C0.581487 6.65974 0.581488 7.48382 1.02898 8.08518C6.112 14.916 16.4487 14.916 21.5317 8.08518ZM13.514 7.07148C13.514 8.30518 12.5138 9.30529 11.2801 9.30529C10.0464 9.30529 9.04633 8.30518 9.04633 7.07148C9.04633 5.83778 10.0464 4.83767 11.2801 4.83767C12.5138 4.83767 13.514 5.83778 13.514 7.07148ZM15.701 7.07148C15.701 9.51305 13.7217 11.4923 11.2801 11.4923C8.83857 11.4923 6.85929 9.51305 6.85929 7.07148C6.85929 4.62991 8.83857 2.65063 11.2801 2.65063C13.7217 2.65063 15.701 4.62991 15.701 7.07148Z"/>
</svg>
