<?xml version="1.0"?>
<svg xmlns="http://www.w3.org/2000/svg" version="1.1" viewBox="0 0 1200 1200">
  <path fill="currentColor" d="m600 60c-298.03 0-540 241.97-540 540s241.97 540 540 540 540-241.97 540-540-241.97-540-540-540zm0 95.555c245.3 0 444.46 199.14 444.46 444.45s-199.15 444.45-444.46 444.45c-245.29 0-444.45-199.14-444.45-444.45s199.15-444.45 444.45-444.45z" fill-rule="evenodd"/>
  <path fill="currentColor" d="m521.1 573.13c-9.3242 107.1-33.887 210.97-72.18 311.96-9.3477 24.66 3.0859 52.262 27.73 61.609 24.66 9.3477 52.262-3.0703 61.609-27.73 27.109-71.496 47.832-144.32 61.738-218.58 13.906 74.258 34.633 147.09 61.738 218.58 9.3477 24.66 36.949 37.078 61.609 27.73 24.66-9.3477 37.078-36.949 27.73-61.609-38.27-100.93-62.82-204.76-72.156-311.76 57.227-2.8086 114.48-8.8086 171.73-18.109 26.027-4.2344 43.727-28.801 39.492-54.828-4.2227-26.016-28.789-43.715-54.816-39.492-156.98 25.512-313.96 24.504-470.94-0.046875-26.051-4.0664-50.508 13.777-54.59 39.828-4.0664 26.051 13.777 50.508 39.828 54.574 57.145 8.9414 114.3 14.941 171.47 17.867z" fill-rule="evenodd"/>
  <path fill="currentColor" d="m686.23 353.69c0 47.625-38.605 86.234-86.23 86.234s-86.23-38.609-86.23-86.234 38.605-86.23 86.23-86.23 86.23 38.605 86.23 86.23" fill-rule="evenodd"/>
</svg>
