<?xml version="1.0"?>
<svg width="64" height="62" viewBox="0 0 64 62" fill="none" xmlns="http://www.w3.org/2000/svg">
  <path fill-rule="evenodd" clip-rule="evenodd" d="M5.68889 0H58.3111C61.44 0 64 2.56 64 5.68889V18.8444H0V5.68889C0 2.56 2.56 0 5.68889 0ZM17.2302 12.7289C17.8183 12.7289 18.2969 12.2503 18.2969 11.6622V6.82667C18.2969 6.23858 17.8183 5.76 17.2302 5.76H7.98578C7.39769 5.76 6.91911 6.23858 6.91911 6.82667V11.6622C6.91911 12.2503 7.39769 12.7289 7.98578 12.7289H17.2302ZM36.6222 12.7289C37.2103 12.7289 37.6889 12.2503 37.6889 11.6622V6.82667C37.6889 6.23858 37.2103 5.76 36.6222 5.76H27.3778C26.7897 5.76 26.3111 6.23858 26.3111 6.82667V11.6622C26.3111 12.2503 26.7897 12.7289 27.3778 12.7289H36.6222ZM56.0142 12.7289C56.603 12.7289 57.0809 12.2503 57.0809 11.6622V6.82667C57.0809 6.23858 56.603 5.76 56.0142 5.76H46.7698C46.1824 5.76 45.7031 6.23858 45.7031 6.82667V11.6622C45.7031 12.2503 46.1824 12.7289 46.7698 12.7289H56.0142ZM5.68889 61.8667C2.56 61.8667 0 59.3067 0 56.1778V22.4H64V56.1778C64 59.3067 61.44 61.8667 58.3111 61.8667H5.68889ZM26.5202 29.9164C24.7673 28.9422 23.3323 29.7856 23.3323 31.7916V48.5639C23.3323 50.5714 24.7666 51.4133 26.5202 50.4391L41.1669 42.3033C43.2697 41.1342 43.2697 39.222 41.1669 38.053L26.5202 29.9164Z" fill=""/>
</svg>
