<?xml version="1.0"?>
<svg width="36" height="36" viewBox="0 0 36 36" fill="none" xmlns="http://www.w3.org/2000/svg">
  <path d="M3.1154 27.6838L8.39576 20.3968C8.50481 20.251 8.55119 20.0677 8.52472 19.8875C8.49836 19.7073 8.40123 19.5451 8.25498 19.4367L4.25152 16.3806C4.10812 16.27 4.01405 16.1073 3.98977 15.9278C3.96548 15.7484 4.01295 15.5665 4.1219 15.4218C4.23074 15.2772 4.39241 15.1813 4.57159 15.1549L9.09981 14.4028C9.32514 14.3675 9.51799 14.2222 9.61435 14.0155C9.7106 13.8088 9.6977 13.5677 9.57978 13.3724L4.58729 5.03256C4.48403 4.85393 4.46631 4.63857 4.53905 4.4456C4.61168 4.25254 4.76711 4.10236 4.96247 4.0363C5.15783 3.97023 5.37244 3.99517 5.54735 4.10444L14.508 9.91936C14.6733 10.0263 14.8763 10.0575 15.066 10.0049C15.2557 9.95229 15.4137 9.82092 15.5001 9.64415L18.0604 4.38927C18.1473 4.22213 18.299 4.098 18.4801 4.0458C18.6611 3.99362 18.8556 4.01791 19.0182 4.11307C19.1808 4.20823 19.2973 4.36585 19.3405 4.54929L20.595 10.5241H20.5949C20.6381 10.7286 20.772 10.9025 20.9588 10.9965C21.1455 11.0905 21.365 11.0945 21.5551 11.0073L28.3075 7.86803L28.3074 7.86792C28.4907 7.78118 28.7031 7.78009 28.8873 7.86497C29.0715 7.94996 29.2086 8.11217 29.2615 8.30796C29.3146 8.50376 29.278 8.71301 29.1619 8.87926L24.9856 14.9949C24.8537 15.1863 24.8279 15.4317 24.9172 15.6464C25.0064 15.8611 25.1985 16.0159 25.4273 16.0574L32.3943 17.3375C32.6059 17.363 32.7939 17.4852 32.903 17.6684C33.0122 17.8515 33.0302 18.075 32.9519 18.2733C32.8737 18.4716 32.7079 18.6224 32.503 18.6816L25.4176 21.0338C25.237 21.0946 25.0898 21.2276 25.011 21.4011C24.9321 21.5746 24.9287 21.773 25.0017 21.9491L28.4131 30.2248C28.491 30.4095 28.4841 30.6189 28.3942 30.7981C28.3043 30.9773 28.1405 31.108 27.9459 31.156C27.7513 31.2039 27.5454 31.1642 27.3827 31.0473L19.558 25.5493C19.3872 25.4307 19.1719 25.3953 18.972 25.4531C18.7721 25.5108 18.6089 25.6554 18.5275 25.847L15.8106 32.3594C15.734 32.5434 15.5814 32.6852 15.3924 32.7481C15.2032 32.8108 14.9962 32.7886 14.8247 32.6871C14.6533 32.5855 14.5343 32.4147 14.4985 32.2187L13.3368 25.9047C13.2995 25.7027 13.1738 25.528 12.9942 25.4284C12.8147 25.3286 12.5999 25.3144 12.4088 25.3894L3.92498 28.7113C3.7422 28.7784 3.5395 28.7648 3.36723 28.674C3.19495 28.5832 3.06926 28.4237 3.02126 28.2351C2.97325 28.0464 3.00737 27.8461 3.11533 27.6841L3.1154 27.6838Z" fill="currentColor"/>
</svg>
