<?xml version="1.0"?>
<svg xmlns="http://www.w3.org/2000/svg" viewBox="0 0 36 36" fill="none">
  <path fill="currentColor" opacity="0.25" fill-rule="evenodd" clip-rule="evenodd" d="M22.849 3.80539C21.29 3.27282 19.6518 3 18 3C15.0333 3 12.1332 3.87973 9.66645 5.52796C7.19972 7.17618 5.27713 9.51886 4.14181 12.2597C3.0065 15.0006 2.70945 18.0166 3.28823 20.9264C3.86701 23.8361 5.29562 26.5088 7.3934 28.6066C9.49119 30.7044 12.1639 32.133 15.0737 32.7118C17.9834 33.2906 20.9994 32.9935 23.7403 31.8582C26.4811 30.7229 28.8238 28.8003 30.472 26.3336C31.3008 25.0933 31.9352 23.7435 32.3612 22.3308C31.6305 22.5956 30.8421 22.74 30.02 22.74C29.3451 22.74 28.693 22.6427 28.0768 22.4613C27.7504 23.1946 27.3436 23.8925 26.8622 24.5415C25.8451 25.9126 24.5228 27.0282 23 27.8C23.8248 25.2432 24.2925 22.5848 24.39 19.9H24.4556C23.6343 18.768 23.15 17.3755 23.15 15.87C23.15 14.6565 23.4646 13.5166 24.0167 12.5272C23.7886 11.0627 23.449 9.6161 23 8.2C23.1811 8.29281 23.3594 8.3905 23.5346 8.49292L22.849 3.80539ZM15.45 19.9C15.73 25.29 17.16 28.35 17.91 29H18.09C18.84 28.35 20.27 25.29 20.55 19.9H15.45ZM17.91 7C17.16 7.65 15.73 10.71 15.45 16.1H20.55C20.27 10.71 18.84 7.65 18.09 7H17.91ZM11.61 16.1C11.7075 13.4152 12.1752 10.7568 13 8.2C11.4847 8.97652 10.1703 10.0942 9.16033 11.4651C8.15039 12.836 7.47249 14.4226 7.18001 16.1H11.61ZM11.65 19.9H7.18001C7.47249 21.5774 8.15039 23.164 9.16033 24.5349C10.1703 25.9058 11.4847 27.0235 13 27.8C12.1888 25.2413 11.7345 22.5829 11.65 19.9Z"/>
  <path fill="#FFC82C" d="M27.7974 10L26.6274 2H33.3674L32.2374 10H27.7974Z"/>
  <path fill="#FFC82C" d="M30.0199 18.74C31.605 18.74 32.8899 17.4551 32.8899 15.87C32.8899 14.2849 31.605 13 30.0199 13C28.4348 13 27.1499 14.2849 27.1499 15.87C27.1499 17.4551 28.4348 18.74 30.0199 18.74Z"/>
</svg>
