<svg width="449" height="181" viewBox="0 0 449 181" fill="none" xmlns="http://www.w3.org/2000/svg">
<g clip-path="url(#clip0_92_1802)">
<path d="M0.501953 36.7848C0.501953 19.2635 14.7101 5.05957 32.2369 5.05957H416.186C433.712 5.05957 447.921 19.2635 447.921 36.7848V132.476C447.921 158.839 426.543 180.21 400.173 180.21H46.4704C21.0826 180.21 0.501953 159.635 0.501953 134.255V36.7848Z" fill="#0D131B" stroke="#8B929A" stroke-width="0.581079"/>
<path d="M71.4661 126.91C71.6462 126.91 71.8124 126.936 71.9646 126.986C72.1168 127.037 72.2449 127.099 72.349 127.173L72.113 127.591C72.0192 127.525 71.9139 127.472 71.7972 127.431C71.683 127.391 71.5739 127.371 71.4699 127.371C71.3431 127.371 71.2441 127.397 71.1731 127.45C71.1021 127.501 71.0665 127.572 71.0665 127.664C71.0665 127.755 71.1084 127.827 71.1921 127.88C71.2758 127.931 71.404 127.987 71.5765 128.048C71.754 128.111 71.8961 128.17 72.0027 128.223C72.1092 128.276 72.2018 128.355 72.2805 128.459C72.3616 128.56 72.4022 128.691 72.4022 128.851C72.4022 129.021 72.3578 129.168 72.269 129.292C72.1828 129.417 72.061 129.513 71.9037 129.581C71.7464 129.647 71.5663 129.68 71.3634 129.68C71.1985 129.68 71.0298 129.659 70.8573 129.616C70.6873 129.57 70.5376 129.509 70.4082 129.433L70.5833 128.969C70.705 129.035 70.8332 129.088 70.9676 129.129C71.1046 129.167 71.2391 129.186 71.371 129.186C71.5156 129.186 71.6234 129.158 71.6944 129.102C71.768 129.046 71.8048 128.973 71.8048 128.881C71.8048 128.79 71.7655 128.719 71.6868 128.668C71.6082 128.617 71.4877 128.565 71.3253 128.512C71.1427 128.454 70.9955 128.398 70.8839 128.345C70.7723 128.289 70.6759 128.209 70.5947 128.105C70.516 127.998 70.4767 127.86 70.4767 127.69C70.4767 127.533 70.5173 127.396 70.5985 127.279C70.6822 127.16 70.7989 127.069 70.9486 127.005C71.0983 126.942 71.2708 126.91 71.4661 126.91ZM74.309 129.635H73.7496V127.45H72.9429V126.971H75.1158V127.45H74.309V129.635ZM75.8029 126.971H77.599V127.447H76.3623V128.048H77.4278V128.527H76.3623V129.151H77.599V129.635H75.8029V126.971ZM80.7802 129.635H80.1751L79.9924 129.117H78.9498L78.7747 129.635H78.1925L79.1895 126.971H79.7527L80.7802 129.635ZM79.4673 127.607L79.102 128.672H79.8402L79.4673 127.607ZM82.8923 128.862L83.7218 126.971H84.2888V129.635H83.7523V127.941L83.0369 129.559H82.6982L81.9676 127.96V129.635H81.4576V126.971H81.9942L82.8923 128.862Z" fill="#8B929A"/>
<path d="M439.241 31.8062C439.241 34.7524 436.838 37.1437 433.87 37.1437C430.903 37.1437 428.5 34.7524 428.5 31.8062C428.5 28.86 430.903 26.4688 433.87 26.4688C436.838 26.4688 439.241 28.86 439.241 31.8062Z" stroke="#8B929A" stroke-width="0.581079"/>
<path d="M426.123 44.8207C426.123 47.7521 423.732 50.1317 420.779 50.1317C417.825 50.1317 415.434 47.7521 415.434 44.8207C415.434 41.8893 417.825 39.5098 420.779 39.5098C423.732 39.5098 426.123 41.8893 426.123 44.8207Z" stroke="#8B929A" stroke-width="0.634225"/>
<path d="M412.883 31.8062C412.883 34.7524 410.48 37.1437 407.512 37.1437C404.544 37.1437 402.141 34.7524 402.141 31.8062C402.141 28.86 404.544 26.4688 407.512 26.4688C410.48 26.4688 412.883 28.86 412.883 31.8062Z" stroke="#8B929A" stroke-width="0.581079"/>
<path d="M422.979 46.7755H421.971L421.666 45.9129H419.928L419.637 46.7755H418.666L420.328 42.3359H421.267L422.979 46.7755ZM420.791 43.3951L420.182 45.1709H421.413L420.791 43.3951Z" fill="#8B929A"/>
<path d="M435.111 31.8893C435.677 32.0627 435.961 32.4263 435.961 32.9802C435.961 33.3819 435.815 33.6948 435.523 33.9188C435.231 34.1429 434.84 34.255 434.35 34.255H432.529V29.8154H434.172C434.692 29.8154 435.077 29.9127 435.326 30.1071C435.576 30.3016 435.7 30.5765 435.7 30.9316C435.7 31.1304 435.654 31.3122 435.561 31.4771C435.468 31.642 435.318 31.7794 435.111 31.8893ZM433.474 30.5892V31.6737H434.115C434.326 31.6737 434.489 31.6251 434.603 31.5278C434.717 31.4263 434.775 31.2847 434.775 31.1029C434.775 30.7604 434.548 30.5892 434.096 30.5892H433.474ZM434.254 33.4876C434.491 33.4876 434.669 33.4347 434.787 33.329C434.91 33.2233 434.971 33.0838 434.971 32.9104C434.971 32.7244 434.912 32.5849 434.794 32.4918C434.675 32.3946 434.504 32.346 434.28 32.346H433.474V33.4876H434.254Z" fill="#8B929A"/>
<path d="M408.372 29.8154H409.552L407.992 31.9274L409.692 34.255H408.55L407.51 32.6377L406.514 34.255H405.398L406.977 31.9591L405.461 29.8154H406.609L407.491 31.2424L408.372 29.8154Z" fill="#8B929A"/>
<path d="M425.653 18.9332C425.653 21.8794 423.25 24.2707 420.283 24.2707C417.315 24.2707 414.912 21.8794 414.912 18.9332C414.912 15.987 417.315 13.5957 420.283 13.5957C423.25 13.5957 425.653 15.987 425.653 18.9332Z" stroke="#8B929A" stroke-width="0.581079"/>
<path d="M420.759 21.0646H419.833V19.2951L418.285 16.625H419.364L420.328 18.4008L421.298 16.625H422.306L420.759 19.3014V21.0646Z" fill="#8B929A"/>
<path d="M68.7107 4.94664V2.27865C68.7107 1.29633 67.9141 0.5 66.9315 0.5H35.2977C26.8551 0.5 8.23033 5.85152 6.25391 18.2426C12.0702 10.1884 21.5414 4.94664 32.2373 4.94664H68.7107Z" fill="#0D131B" stroke="#8B929A" stroke-width="0.581079"/>
<path d="M379.178 4.94664V2.27865C379.178 1.29633 379.974 0.5 380.957 0.5H412.401C420.627 0.5 438.574 5.45503 441.141 16.8966C435.271 9.60939 426.273 4.94664 416.185 4.94664H379.178Z" fill="#0D131B" stroke="#8B929A" stroke-width="0.581079"/>
<path d="M54.3677 14.9492H51.1641V18.1349H54.3677V14.9492Z" fill="#8B929A"/>
<path d="M82.748 66.6006H47.9125C44.3289 66.6006 41.4238 69.5057 41.4238 73.0893V107.91C41.4238 111.494 44.3289 114.399 47.9125 114.399H82.748C86.3316 114.399 89.2367 111.494 89.2367 107.91V73.0893C89.2367 69.5057 86.3316 66.6006 82.748 66.6006Z" stroke="#8B929A" stroke-width="0.581079"/>
<path d="M84.5473 123.874H70.3108C67.7207 123.874 65.6211 125.974 65.6211 128.564V128.564C65.6211 131.154 67.7207 133.253 70.3108 133.253H84.5473C87.1373 133.253 89.237 131.154 89.237 128.564V128.564C89.237 125.974 87.1373 123.874 84.5473 123.874Z" stroke="#8B929A" stroke-width="0.581079"/>
<path d="M399.977 66.6006H365.141C361.557 66.6006 358.652 69.5057 358.652 73.0893V107.91C358.652 111.494 361.557 114.399 365.141 114.399H399.977C403.56 114.399 406.465 111.494 406.465 107.91V73.0893C406.465 69.5057 403.56 66.6006 399.977 66.6006Z" stroke="#8B929A" stroke-width="0.581079"/>
<path d="M377.579 123.874H363.342C360.752 123.874 358.652 125.974 358.652 128.564V128.564C358.652 131.154 360.752 133.253 363.342 133.253H377.579C380.169 133.253 382.268 131.154 382.268 128.564V128.564C382.268 125.974 380.169 123.874 377.579 123.874Z" stroke="#8B929A" stroke-width="0.581079"/>
<path d="M366.19 129.808C366.878 129.808 367.435 129.251 367.435 128.563C367.435 127.876 366.878 127.318 366.19 127.318C365.503 127.318 364.945 127.876 364.945 128.563C364.945 129.251 365.503 129.808 366.19 129.808Z" fill="#8B929A"/>
<path d="M370.46 129.808C371.148 129.808 371.705 129.251 371.705 128.563C371.705 127.876 371.148 127.318 370.46 127.318C369.772 127.318 369.215 127.876 369.215 128.563C369.215 129.251 369.772 129.808 370.46 129.808Z" fill="#8B929A"/>
<path d="M374.729 129.808C375.417 129.808 375.974 129.251 375.974 128.563C375.974 127.876 375.417 127.318 374.729 127.318C374.042 127.318 373.484 127.876 373.484 128.563C373.484 129.251 374.042 129.808 374.729 129.808Z" fill="#8B929A"/>
<path d="M390.098 40.5204C390.098 47.2361 384.652 52.6805 377.934 52.6805C371.216 52.6805 365.77 47.2361 365.77 40.5204C365.77 33.8047 371.216 28.3604 377.934 28.3604C384.652 28.3604 390.098 33.8047 390.098 40.5204Z" stroke="#8B929A" stroke-width="0.581079"/>
<path d="M81.5854 40.5204C81.5854 47.2361 76.1396 52.6805 69.4216 52.6805C62.7037 52.6805 57.2578 47.2361 57.2578 40.5204C57.2578 33.8047 62.7037 28.3604 69.4216 28.3604C76.1396 28.3604 81.5854 33.8047 81.5854 40.5204Z" stroke="#8B929A" stroke-width="0.581079"/>
<path d="M386.717 40.5199C386.717 45.3692 382.784 49.3005 377.933 49.3005C373.082 49.3005 369.15 45.3692 369.15 40.5199C369.15 35.6706 373.082 31.7393 377.933 31.7393C382.784 31.7393 386.717 35.6706 386.717 40.5199Z" stroke="#8B929A" stroke-width="0.581079"/>
<path d="M78.2054 40.5199C78.2054 45.3692 74.273 49.3005 69.422 49.3005C64.571 49.3005 60.6387 45.3692 60.6387 40.5199C60.6387 35.6706 64.571 31.7393 69.422 31.7393C74.273 31.7393 78.2054 35.6706 78.2054 40.5199Z" stroke="#8B929A" stroke-width="0.581079"/>
<path d="M109.734 2.9248H117.018C117.499 2.9248 117.889 3.31503 117.889 3.79642V4.83383H108.863V3.79642C108.863 3.31503 109.253 2.9248 109.734 2.9248Z" stroke="#8B929A" stroke-width="0.581079"/>
<path d="M126.102 2.9248H133.385C133.866 2.9248 134.257 3.31503 134.257 3.79642V4.83383H125.23V3.79642C125.23 3.31503 125.62 2.9248 126.102 2.9248Z" stroke="#8B929A" stroke-width="0.581079"/>
<path d="M329.097 3.81445H336.38C336.861 3.81445 337.252 4.20468 337.252 4.68606V4.83416H328.225V4.68606C328.225 4.20468 328.615 3.81445 329.097 3.81445Z" stroke="#8B929A" stroke-width="0.581079"/>
<path d="M30.7014 48.1676C30.7014 48.3999 30.5129 48.5885 30.2803 48.5885H22.8077C22.575 48.5885 22.3866 48.3999 22.3866 48.1676V40.5789C22.3866 38.8138 20.9557 37.383 19.1906 37.383H11.5988C11.3661 37.383 11.1777 37.1944 11.1777 36.962V29.4917C11.1777 29.2593 11.3661 29.0708 11.5988 29.0708H19.1906C20.9557 29.0708 22.3866 27.6399 22.3866 25.8748V18.2862C22.3866 18.0538 22.575 17.8652 22.8077 17.8652H30.2803C30.5129 17.8652 30.7014 18.0538 30.7014 18.2862V25.8748C30.7014 27.6399 32.1323 29.0708 33.8974 29.0708H41.4892C41.7219 29.0708 41.9103 29.2593 41.9103 29.4917V36.962C41.9103 37.1944 41.7219 37.383 41.4892 37.383H33.8974C32.1323 37.383 30.7014 38.8138 30.7014 40.5789V48.1676Z" stroke="#8B929A" stroke-width="0.581079"/>
<path d="M343 18H104V167H343V18Z" stroke="#8B929A" stroke-width="0.574463"/>
<path d="M56.9708 12.9912H48.5586C46.6321 12.9912 45.0703 14.5529 45.0703 16.4795V16.5574C45.0703 18.4839 46.6321 20.0457 48.5586 20.0457H56.9708C58.8973 20.0457 60.459 18.4839 60.459 16.5574V16.4795C60.459 14.5529 58.8973 12.9912 56.9708 12.9912Z" stroke="#8B929A" stroke-width="0.634225"/>
<path d="M400.182 12.9912H391.769C389.843 12.9912 388.281 14.5529 388.281 16.4795V16.5574C388.281 18.4839 389.843 20.0457 391.769 20.0457H400.182C402.108 20.0457 403.67 18.4839 403.67 16.5574V16.4795C403.67 14.5529 402.108 12.9912 400.182 12.9912Z" stroke="#8B929A" stroke-width="0.634225"/>
<path d="M394.064 14.8652H397.957V15.5687H394.064V14.8652Z" fill="#8B929A"/>
<path d="M394.064 16.2725H397.957V16.976H394.064V16.2725Z" fill="#8B929A"/>
<path d="M394.064 17.6797H397.957V18.3833H394.064V17.6797Z" fill="#8B929A"/>
</g>
<defs>
<clipPath id="clip0_92_1802">
<rect width="449" height="181" fill="white"/>
</clipPath>
</defs>
</svg>
