<svg width="33" height="33" viewBox="0 0 33 33" fill="none" xmlns="http://www.w3.org/2000/svg">
<path d="M16.4692 30.3239C24.1106 30.3239 30.3051 24.1251 30.3051 16.4786C30.3051 8.83209 24.1106 2.63336 16.4692 2.63336C8.82783 2.63336 2.6333 8.83209 2.6333 16.4786C2.6333 24.1251 8.82783 30.3239 16.4692 30.3239Z" stroke="#0E141B" stroke-width="2.84444" stroke-linejoin="bevel"/>
<path d="M18.3394 21.152V24.1423H15.3521V21.152H18.3394ZM22.0386 17.4509V20.4411H19.0161V17.4509H22.0386ZM14.6069 17.4509V20.4411H11.6538V17.4509H14.6069ZM25.7368 13.7497V16.7399H22.7153V13.7497H25.7368ZM18.3052 13.7497V16.7399H15.3179V13.7497H18.3052ZM10.9077 13.7497V16.7399H7.95459V13.7497H10.9077ZM22.0386 10.0485V13.0388H19.0503V10.0485H22.0386ZM14.6411 10.0485V13.0388H11.6538V10.0485H14.6411Z" fill="#0E141B" stroke="#0E141B" stroke-width="0.711111"/>
</svg>
