<svg width="32" height="32" viewBox="0 0 32 32" fill="none" xmlns="http://www.w3.org/2000/svg">
<path d="M18.6043 0H8.24264C7.44699 0 6.68393 0.31607 6.12132 0.878679L4.27177 2.72823C3.48888 3.51112 3.20083 4.66157 3.52245 5.721L10.8538 29.8714C11.2376 31.1357 12.4033 32 13.7245 32H19.6952C21.0543 32 22.2437 31.0862 22.5939 29.773L27.5973 11.01C27.8497 10.0637 27.6242 9.05376 26.9934 8.30461L20.899 1.06759C20.329 0.390699 19.4892 0 18.6043 0Z" fill="#0E141B"/>
<path d="M22.0249 8.59998V13.736H23.2369V15.092H22.0249V17H20.2369V15.092H16.2769V13.94L20.3929 8.59998H22.0249ZM20.3089 10.7L17.9929 13.736H20.3089V10.7Z" fill="white"/>
<path d="M15.5399 17H9.8999V8.59998H11.6639V15.416H15.5399V17Z" fill="white"/>
</svg>
