<svg width="32" height="32" viewBox="0 0 32 32" fill="none" xmlns="http://www.w3.org/2000/svg">
<g clip-path="url(#clip0_7596_819)">
<path d="M23.4844 7.96875C28.1874 7.96875 32 11.7813 32 16.4844C32 21.1874 28.1874 25 23.4844 25L8.51563 25C3.81258 25 2.24065e-06 21.1874 2.65181e-06 16.4844C3.06296e-06 11.7813 3.81258 7.96874 8.51563 7.96874L23.4844 7.96875Z" fill="#0E141B"/>
<path d="M13.1676 16.8158L15.6763 12H17.4162V20.7959H15.6763V15.3432L13.7341 19.2039H12.6416L10.7399 15.3432V20.7561H9V12H10.6994L13.2081 16.8158H13.1676Z" fill="white"/>
<path d="M22.9999 20.7959H21.1791V13.8706L19.8843 14.7064V12.995L21.3409 12.0398H22.9594V20.8357L22.9999 20.7959Z" fill="white"/>
</g>
<defs>
<clipPath id="clip0_7596_819">
<rect width="32" height="32" fill="white"/>
</clipPath>
</defs>
</svg>
