<svg width="32" height="32" viewBox="0 0 32 32" fill="none" xmlns="http://www.w3.org/2000/svg">
<g clip-path="url(#clip0_7596_763)">
<path d="M25.5156 10C29.0968 10 32 12.9032 32 16.4844C32 20.0656 29.0968 22.9687 25.5156 22.9687L6.48438 22.9687C2.90316 22.9687 2.16115e-06 20.0656 2.47423e-06 16.4844C2.78731e-06 12.9031 2.90316 9.99999 6.48438 9.99999L25.5156 10Z" fill="#0E141B"/>
<path d="M14.108 16.7793L15.7837 13.5625H16.9458V19.4378H15.7837V15.7956L14.4864 18.3744H13.7567L12.4864 15.7956V19.4112H11.3242V13.5625H12.4594L14.135 16.7793H14.108Z" fill="white"/>
<path d="M20.6758 19.4378H19.4596V14.812L18.5947 15.3703V14.2271L19.5677 13.5891H20.6488V19.4644L20.6758 19.4378Z" fill="white"/>
</g>
<defs>
<clipPath id="clip0_7596_763">
<rect width="32" height="32" fill="white"/>
</clipPath>
</defs>
</svg>
