<svg width="32" height="32" viewBox="0 0 32 32" fill="none" xmlns="http://www.w3.org/2000/svg">
<g clip-path="url(#clip0_7596_826)">
<path d="M23.4844 7.96874C28.1874 7.96874 32 11.7813 32 16.4844C32 21.1874 28.1874 25 23.4844 25L8.51563 25C3.81258 25 2.24065e-06 21.1874 2.65181e-06 16.4844C3.06296e-06 11.7813 3.81258 7.96874 8.51563 7.96874L23.4844 7.96874Z" fill="#0E141B"/>
<path d="M12.5033 16.8327L14.9392 12.118H16.6286V20.8009H14.9392V15.4183L13.0533 19.2293H11.9925L10.146 15.4183V20.7616H8.45654V12.118H10.1067L12.5426 16.872L12.5033 16.8327Z" fill="white"/>
<path d="M23.4648 20.8007H18.0823V19.6613L20.9896 16.2432C21.5397 15.6146 21.8147 15.0645 21.8147 14.5145C21.8147 13.8073 21.3039 13.4537 20.7146 13.4537C20.1253 13.4537 19.6931 13.8073 19.6145 14.5145H18.043C18.043 13.0215 19.2609 12 20.7932 12C22.3255 12 23.5434 13.1001 23.5434 14.5145C23.5434 15.6539 22.7969 16.5575 22.2469 17.2254L20.4396 19.347H23.4255V20.84L23.4648 20.8007Z" fill="white"/>
</g>
<defs>
<clipPath id="clip0_7596_826">
<rect width="32" height="32" fill="white"/>
</clipPath>
</defs>
</svg>
