<svg width="32" height="32" viewBox="0 0 32 32" fill="none" xmlns="http://www.w3.org/2000/svg">
<g clip-path="url(#clip0_7596_770)">
<path d="M25.5156 10C29.0968 10 32 12.9032 32 16.4844C32 20.0656 29.0968 22.9687 25.5156 22.9687L6.48438 22.9687C2.90316 22.9687 2.16115e-06 20.0656 2.47423e-06 16.4844C2.78731e-06 12.9031 2.90316 9.99999 6.48438 9.99999L25.5156 10Z" fill="#0E141B"/>
<path d="M13.5987 16.7678L15.2714 13.5303H16.4315V19.4927H15.2714V15.7965L13.9764 18.4135H13.2479L11.9799 15.7965V19.4657H10.8198V13.5303H11.9529L13.6257 16.7948L13.5987 16.7678Z" fill="white"/>
<path d="M21.126 19.4926H17.4298V18.7102L19.4263 16.363C19.804 15.9313 19.9928 15.5536 19.9928 15.1759C19.9928 14.6903 19.6421 14.4474 19.2374 14.4474C18.8327 14.4474 18.536 14.6903 18.482 15.1759H17.4028C17.4028 14.1507 18.2392 13.4492 19.2914 13.4492C20.3436 13.4492 21.1799 14.2046 21.1799 15.1759C21.1799 15.9583 20.6673 16.5788 20.2896 17.0374L19.0486 18.4943H21.099V19.5195L21.126 19.4926Z" fill="white"/>
</g>
<defs>
<clipPath id="clip0_7596_770">
<rect width="32" height="32" fill="white"/>
</clipPath>
</defs>
</svg>
