<svg width="32" height="32" viewBox="0 0 32 32" fill="none" xmlns="http://www.w3.org/2000/svg">
<path d="M13.3957 0H23.7574C24.553 0 25.3161 0.31607 25.8787 0.878679L27.7282 2.72823C28.5111 3.51112 28.7992 4.66157 28.4776 5.721L21.1462 29.8714C20.7624 31.1357 19.5967 32 18.2755 32H12.3048C10.9457 32 9.75633 31.0862 9.40613 29.773L4.40267 11.01C4.15032 10.0637 4.37578 9.05376 5.00664 8.30461L11.101 1.06759C11.671 0.390699 12.5108 0 13.3957 0Z" fill="#0E141B"/>
<path d="M22.2319 8.59998V13.736H23.4439V15.092H22.2319V17H20.4439V15.092H16.4839V13.94L20.5999 8.59998H22.2319ZM20.5159 10.7L18.1999 13.736H20.5159V10.7Z" fill="white"/>
<path d="M15.7639 17H13.8079L12.1159 14.168H11.9119H10.6639V17H8.8999V8.59998H12.0439C13.1959 8.59998 14.0439 8.83198 14.5879 9.29598C15.1319 9.75198 15.4039 10.392 15.4039 11.216C15.4039 11.864 15.2599 12.404 14.9719 12.836C14.6919 13.268 14.2959 13.596 13.7839 13.82L15.7639 17ZM10.6639 10.1V12.656H12.0439C12.5079 12.656 12.8679 12.54 13.1239 12.308C13.3879 12.068 13.5199 11.74 13.5199 11.324C13.5199 10.916 13.3919 10.612 13.1359 10.412C12.8879 10.204 12.4879 10.1 11.9359 10.1H10.6639Z" fill="white"/>
</svg>
