<svg width="32" height="32" viewBox="0 0 32 32" fill="none" xmlns="http://www.w3.org/2000/svg">
<g clip-path="url(#clip0_7443_727)">
<path d="M12.5 -2.18557e-07C9.73858 -9.78513e-08 7.5 2.23858 7.5 5L7.5 32L24.5 32L24.5 5C24.5 2.23858 22.2614 -6.45242e-07 19.5 -5.24537e-07L12.5 -2.18557e-07Z" fill="#0E141B"/>
<path d="M10.6035 21.4324C10.6035 20.7268 10.705 20.0694 10.908 19.4604C11.1013 18.8514 11.343 18.3488 11.633 17.9524L13.5035 19.0109C13.2522 19.3589 13.0492 19.7553 12.8945 20.1999C12.7398 20.6349 12.6625 21.0409 12.6625 21.4179C12.6625 21.8143 12.7447 22.1236 12.909 22.3459C13.0637 22.5683 13.2763 22.6794 13.547 22.6794C13.837 22.6794 14.069 22.5393 14.243 22.2589C14.4073 21.9689 14.591 21.5194 14.794 20.9104C15.026 20.2434 15.2435 19.7069 15.4465 19.3009C15.6495 18.8853 15.954 18.5228 16.36 18.2134C16.7563 17.9041 17.2735 17.7494 17.9115 17.7494C18.5882 17.7494 19.173 17.9283 19.666 18.2859C20.159 18.6339 20.536 19.1221 20.797 19.7504C21.0483 20.3691 21.174 21.0796 21.174 21.8819C21.174 22.5296 21.0918 23.1821 20.9275 23.8394C20.7632 24.4871 20.5312 25.0623 20.2315 25.5649L18.1435 24.8109C18.6945 23.7476 18.97 22.7568 18.97 21.8384C18.97 21.3841 18.883 21.0409 18.709 20.8089C18.535 20.5769 18.3078 20.4609 18.0275 20.4609C17.7472 20.4609 17.5297 20.5914 17.375 20.8524C17.2107 21.1134 17.0463 21.5194 16.882 22.0704C16.6597 22.7858 16.4518 23.3561 16.2585 23.7814C16.0555 24.2068 15.751 24.5741 15.345 24.8834C14.9293 25.1928 14.3832 25.3474 13.7065 25.3474C13.0685 25.3474 12.5175 25.1831 12.0535 24.8544C11.5798 24.5258 11.2222 24.0666 10.9805 23.4769C10.7292 22.8873 10.6035 22.2058 10.6035 21.4324Z" fill="white"/>
<path d="M21 7.63512L21 10.4191L17.781 12.3476L17.781 12.5651L17.781 13.7686L21 13.7686L21 16.2771L10.85 16.2771L10.85 12.3331C10.85 10.8831 11.1352 9.81012 11.7055 9.11412C12.2758 8.41812 13.0782 8.07012 14.1125 8.07012C14.8955 8.07012 15.5528 8.23929 16.0845 8.57762C16.6065 8.90629 17.0028 9.37029 17.2735 9.96962L21 7.63512ZM12.996 13.7686L15.635 13.7686L15.635 12.4056C15.635 11.8933 15.519 11.4921 15.287 11.2021C15.0453 10.9025 14.6973 10.7526 14.243 10.7526C13.8273 10.7526 13.518 10.888 13.315 11.1586C13.1023 11.4293 12.996 11.8595 12.996 12.4491L12.996 13.7686Z" fill="white"/>
</g>
<defs>
<clipPath id="clip0_7443_727">
<rect width="32" height="32" fill="white"/>
</clipPath>
</defs>
</svg>
