<svg width="32" height="32" viewBox="0 0 32 32" fill="none" xmlns="http://www.w3.org/2000/svg">
<g clip-path="url(#clip0_7443_706)">
<path d="M19.5 -2.18557e-07C22.2614 -9.78513e-08 24.5 2.23858 24.5 5L24.5 32L7.5 32L7.5 5C7.5 2.23858 9.73858 -6.45242e-07 12.5 -5.24537e-07L19.5 -2.18557e-07Z" fill="#0E141B"/>
<path d="M21.3965 12.5676C21.3965 13.2732 21.295 13.9306 21.092 14.5396C20.8987 15.1486 20.657 15.6512 20.367 16.0476L18.4965 14.9891C18.7478 14.6411 18.9508 14.2447 19.1055 13.8001C19.2602 13.3651 19.3375 12.9591 19.3375 12.5821C19.3375 12.1857 19.2553 11.8764 19.091 11.6541C18.9363 11.4317 18.7237 11.3206 18.453 11.3206C18.163 11.3206 17.931 11.4607 17.757 11.7411C17.5927 12.0311 17.409 12.4806 17.206 13.0896C16.974 13.7566 16.7565 14.2931 16.5535 14.6991C16.3505 15.1147 16.046 15.4772 15.64 15.7866C15.2437 16.0959 14.7265 16.2506 14.0885 16.2506C13.4118 16.2506 12.827 16.0717 12.334 15.7141C11.841 15.3661 11.464 14.8779 11.203 14.2496C10.9517 13.6309 10.826 12.9204 10.826 12.1181C10.826 11.4704 10.9082 10.8179 11.0725 10.1606C11.2368 9.51289 11.4688 8.93772 11.7685 8.43506L13.8565 9.18906C13.3055 10.2524 13.03 11.2432 13.03 12.1616C13.03 12.6159 13.117 12.9591 13.291 13.1911C13.465 13.4231 13.6922 13.5391 13.9725 13.5391C14.2528 13.5391 14.4703 13.4086 14.625 13.1476C14.7893 12.8866 14.9537 12.4806 15.118 11.9296C15.3403 11.2142 15.5482 10.6439 15.7415 10.2186C15.9445 9.79323 16.249 9.42589 16.655 9.11656C17.0707 8.80723 17.6168 8.65256 18.2935 8.65256C18.9315 8.65256 19.4825 8.81689 19.9465 9.14556C20.4202 9.47423 20.7778 9.93339 21.0195 10.5231C21.2708 11.1127 21.3965 11.7942 21.3965 12.5676Z" fill="white"/>
<path d="M11 24.8279L11 17.7229L21.15 17.7229L21.15 20.2314L13.262 20.2314L13.262 24.8279L11 24.8279Z" fill="white"/>
</g>
<defs>
<clipPath id="clip0_7443_706">
<rect width="32" height="32" fill="white"/>
</clipPath>
</defs>
</svg>
