<svg width="32" height="32" viewBox="0 0 32 32" fill="none" xmlns="http://www.w3.org/2000/svg">
<g clip-path="url(#clip0_7443_724)">
<path d="M12.5 32C9.73858 32 7.5 29.7614 7.5 27L7.5 0L24.5 -7.43094e-07L24.5 27C24.5 29.7614 22.2614 32 19.5 32L12.5 32Z" fill="#0E141B"/>
<path d="M10.6035 19.4324C10.6035 18.7268 10.705 18.0694 10.908 17.4604C11.1013 16.8514 11.343 16.3488 11.633 15.9524L13.5035 17.0109C13.2522 17.3589 13.0492 17.7553 12.8945 18.1999C12.7398 18.6349 12.6625 19.0409 12.6625 19.4179C12.6625 19.8143 12.7447 20.1236 12.909 20.3459C13.0637 20.5683 13.2763 20.6794 13.547 20.6794C13.837 20.6794 14.069 20.5393 14.243 20.2589C14.4073 19.9689 14.591 19.5194 14.794 18.9104C15.026 18.2434 15.2435 17.7069 15.4465 17.3009C15.6495 16.8853 15.954 16.5228 16.36 16.2134C16.7563 15.9041 17.2735 15.7494 17.9115 15.7494C18.5882 15.7494 19.173 15.9283 19.666 16.2859C20.159 16.6339 20.536 17.1221 20.797 17.7504C21.0483 18.3691 21.174 19.0796 21.174 19.8819C21.174 20.5296 21.0918 21.1821 20.9275 21.8394C20.7632 22.4871 20.5312 23.0623 20.2315 23.5649L18.1435 22.8109C18.6945 21.7476 18.97 20.7568 18.97 19.8384C18.97 19.3841 18.883 19.0409 18.709 18.8089C18.535 18.5769 18.3078 18.4609 18.0275 18.4609C17.7472 18.4609 17.5297 18.5914 17.375 18.8524C17.2107 19.1134 17.0463 19.5194 16.882 20.0704C16.6597 20.7858 16.4518 21.3561 16.2585 21.7814C16.0555 22.2068 15.751 22.5741 15.345 22.8834C14.9293 23.1928 14.3832 23.3474 13.7065 23.3474C13.0685 23.3474 12.5175 23.1831 12.0535 22.8544C11.5798 22.5258 11.2222 22.0666 10.9805 21.4769C10.7292 20.8873 10.6035 20.2058 10.6035 19.4324Z" fill="white"/>
<path d="M21 7.17212L21 14.2771L10.85 14.2771L10.85 11.7686L18.738 11.7686L18.738 7.17212L21 7.17212Z" fill="white"/>
</g>
<defs>
<clipPath id="clip0_7443_724">
<rect width="32" height="32" fill="white"/>
</clipPath>
</defs>
</svg>
