<svg width="32" height="32" viewBox="0 0 32 32" fill="none" xmlns="http://www.w3.org/2000/svg">
<g clip-path="url(#clip0_7443_709)">
<path d="M19 32C21.7614 32 24 29.7614 24 27L24 0L7 -7.43094e-07L7 27C7 29.7614 9.23858 32 12 32L19 32Z" fill="#0E141B"/>
<path d="M20.8965 10.5676C20.8965 11.2732 20.795 11.9306 20.592 12.5396C20.3987 13.1486 20.157 13.6512 19.867 14.0476L17.9965 12.9891C18.2478 12.6411 18.4508 12.2447 18.6055 11.8001C18.7602 11.3651 18.8375 10.9591 18.8375 10.5821C18.8375 10.1857 18.7553 9.87639 18.591 9.65406C18.4363 9.43173 18.2237 9.32056 17.953 9.32056C17.663 9.32056 17.431 9.46073 17.257 9.74106C17.0927 10.0311 16.909 10.4806 16.706 11.0896C16.474 11.7566 16.2565 12.2931 16.0535 12.6991C15.8505 13.1147 15.546 13.4772 15.14 13.7866C14.7437 14.0959 14.2265 14.2506 13.5885 14.2506C12.9118 14.2506 12.327 14.0717 11.834 13.7141C11.341 13.3661 10.964 12.8779 10.703 12.2496C10.4517 11.6309 10.326 10.9204 10.326 10.1181C10.326 9.47039 10.4082 8.81789 10.5725 8.16056C10.7368 7.51289 10.9688 6.93772 11.2685 6.43506L13.3565 7.18906C12.8055 8.25239 12.53 9.24322 12.53 10.1616C12.53 10.6159 12.617 10.9591 12.791 11.1911C12.965 11.4231 13.1922 11.5391 13.4725 11.5391C13.7528 11.5391 13.9703 11.4086 14.125 11.1476C14.2893 10.8866 14.4537 10.4806 14.618 9.92956C14.8403 9.21423 15.0482 8.64389 15.2415 8.21856C15.4445 7.79323 15.749 7.42589 16.155 7.11656C16.5707 6.80723 17.1168 6.65256 17.7935 6.65256C18.4315 6.65256 18.9825 6.81689 19.4465 7.14556C19.9202 7.47423 20.2778 7.93339 20.5195 8.52306C20.7708 9.11273 20.8965 9.79423 20.8965 10.5676Z" fill="white"/>
<path d="M10.5 24.3649L10.5 21.5809L13.719 19.6524L13.719 19.4349L13.719 18.2314L10.5 18.2314L10.5 15.7229L20.65 15.7229L20.65 19.6669C20.65 21.1169 20.3648 22.1899 19.7945 22.8859C19.2242 23.5819 18.4218 23.9299 17.3875 23.9299C16.6045 23.9299 15.9472 23.7607 15.4155 23.4224C14.8935 23.0937 14.4972 22.6297 14.2265 22.0304L10.5 24.3649ZM18.504 18.2314L15.865 18.2314L15.865 19.5944C15.865 20.1067 15.981 20.5079 16.213 20.7979C16.4547 21.0975 16.8027 21.2474 17.257 21.2474C17.6727 21.2474 17.982 21.112 18.185 20.8414C18.3977 20.5707 18.504 20.1405 18.504 19.5509L18.504 18.2314Z" fill="white"/>
</g>
<defs>
<clipPath id="clip0_7443_709">
<rect width="32" height="32" fill="white"/>
</clipPath>
</defs>
</svg>
