<svg width="32" height="32" viewBox="0 0 32 32" fill="none" xmlns="http://www.w3.org/2000/svg">
<path d="M31.8237 25.5366L26.6509 6.06529C26.0621 3.84907 24.087 2.29583 21.8125 2.26034L5.16937 2.00063C2.31739 1.95612 -0.0142909 4.28346 6.49259e-05 7.16031L0.0973258 26.6514C0.111314 29.455 2.35253 31.7289 5.1321 31.7597L26.8507 31.9997C30.2209 32.0369 32.696 28.8202 31.8237 25.5366Z" fill="black"/>
<path d="M18.1689 20.968H23.5609V23H15.1929V21.048L18.4249 18.36L18.6969 18.12C19.1875 17.704 19.5609 17.368 19.8169 17.112C20.0835 16.856 20.2969 16.584 20.4569 16.296C20.6169 16.008 20.6969 15.6934 20.6969 15.352C20.6969 14.7974 20.4942 14.3814 20.0889 14.104C19.6942 13.816 19.1822 13.672 18.5529 13.672C18.0835 13.672 17.6249 13.7467 17.1769 13.896C16.7395 14.0454 16.3555 14.232 16.0249 14.456L15.2249 12.728C15.7155 12.3867 16.2755 12.1147 16.9049 11.912C17.5449 11.7094 18.2275 11.608 18.9529 11.608C20.2435 11.608 21.2782 11.8907 22.0569 12.456C22.8355 13.0214 23.2249 13.8267 23.2249 14.872C23.2249 15.64 23.0009 16.3387 22.5529 16.968C22.1049 17.5867 21.4169 18.28 20.4889 19.048L18.1689 20.968Z" fill="white"/>
<path d="M10.3201 23H7.98408V18.536L4.08008 11.8H6.80008L9.23208 16.28L11.6801 11.8H14.2241L10.3201 18.552V23Z" fill="white"/>
</svg>
