<svg width="32" height="32" viewBox="0 0 32 32" fill="none" xmlns="http://www.w3.org/2000/svg">
<path fill-rule="evenodd" clip-rule="evenodd" d="M26.6067 26.6066L1.00009 1V16C1.00009 24.2843 7.71582 31 16.0001 31C20.1422 31 23.8922 29.3211 26.6067 26.6066Z" fill="#67707B"/>
<path fill-rule="evenodd" clip-rule="evenodd" d="M1 1H31V16C31 20.1421 29.3211 23.8921 26.6066 26.6066L1 1Z" fill="#0E141B"/>
<path d="M15.5554 19.5H13.2825L11.7081 16.8497H11.5305H10.548V19.5H8.5V11.1433H11.7199C12.9037 11.1433 13.7797 11.378 14.3479 11.8476C14.9161 12.3172 15.2003 12.9778 15.2003 13.8294C15.2003 14.474 15.0621 15.0152 14.7859 15.4529C14.5176 15.8827 14.1388 16.209 13.6495 16.4319L15.5554 19.5ZM10.548 12.9101V15.0829H11.6607C12.079 15.0829 12.4065 14.9874 12.6433 14.7963C12.8879 14.5974 13.0102 14.3109 13.0102 13.9368C13.0102 13.5946 12.8998 13.3399 12.6788 13.1728C12.4578 12.9977 12.1066 12.9101 11.6252 12.9101H10.548Z" fill="white"/>
<path d="M19.7829 17.7212H23.5V19.5H17.1904V17.8048L19.5817 15.8469C19.9526 15.5365 20.2327 15.2898 20.4221 15.1067C20.6116 14.9237 20.7576 14.7367 20.8601 14.5456C20.9706 14.3546 21.0259 14.1437 21.0259 13.9129C21.0259 13.5548 20.8878 13.2842 20.6116 13.1011C20.3432 12.9181 19.9999 12.8265 19.5817 12.8265C19.266 12.8265 18.9542 12.8743 18.6465 12.9698C18.3387 13.0573 18.0625 13.1767 17.8178 13.3279L17.1549 11.7999C17.5337 11.5531 17.9559 11.3581 18.4215 11.2149C18.8951 11.0716 19.4001 11 19.9368 11C20.9312 11 21.7322 11.2109 22.3399 11.6327C22.9476 12.0466 23.2514 12.6594 23.2514 13.4712C23.2514 14.0283 23.0936 14.5377 22.7779 14.9993C22.4701 15.4529 21.9926 15.9424 21.3455 16.4677L19.7829 17.7212Z" fill="white"/>
</svg>
