<svg width="32" height="32" viewBox="0 0 32 32" fill="none" xmlns="http://www.w3.org/2000/svg">
<g clip-path="url(#clip0_1967_19793)">
<path d="M12.7529 6.4082L16.5916 1.92964L20.4304 6.4082L12.7529 6.4082Z" fill="white"/>
<path fill-rule="evenodd" clip-rule="evenodd" d="M9.97088 7.68774L16.5918 -0.0366202L23.2126 7.68774L9.97088 7.68774ZM12.753 6.40815L20.4305 6.40815L16.5918 1.92959L12.753 6.40815Z" fill="#0E141B"/>
<path d="M27.2683 8.96741H6.61092C5.76289 8.96741 5.07541 9.65488 5.07541 10.5029V25.858C5.07541 29.2501 7.8253 32 11.2174 32H27.2683V8.96741Z" fill="#0E141B"/>
<path d="M14.4324 16.1651C14.4324 16.5626 14.7547 16.8849 15.1522 16.8849C15.5497 16.8849 15.8719 16.5626 15.8719 16.1651C15.8719 15.7676 15.5497 15.4453 15.1522 15.4453C14.7547 15.4453 14.4324 15.7676 14.4324 16.1651Z" fill="#67707B"/>
<path d="M17.3116 16.1651C17.3116 16.5626 17.6338 16.8849 18.0313 16.8849C18.4288 16.8849 18.7511 16.5626 18.7511 16.1651C18.7511 15.7676 18.4288 15.4453 18.0313 15.4453C17.6338 15.4453 17.3116 15.7676 17.3116 16.1651Z" fill="#67707B"/>
<path d="M20.1907 16.1651C20.1907 16.5626 20.513 16.8849 20.9105 16.8849C21.308 16.8849 21.6302 16.5626 21.6302 16.1651C21.6302 15.7676 21.308 15.4453 20.9105 15.4453C20.513 15.4453 20.1907 15.7676 20.1907 16.1651Z" fill="#67707B"/>
<path d="M23.0696 16.1651C23.0696 16.5626 23.3919 16.8849 23.7894 16.8849C24.1869 16.8849 24.5092 16.5626 24.5092 16.1651C24.5092 15.7676 24.1869 15.4453 23.7894 15.4453C23.3919 15.4453 23.0696 15.7676 23.0696 16.1651Z" fill="#67707B"/>
<path d="M11.5535 16.1651C11.5535 16.5626 11.8758 16.8849 12.2733 16.8849C12.6708 16.8849 12.993 16.5626 12.993 16.1651C12.993 15.7676 12.6708 15.4453 12.2733 15.4453C11.8758 15.4453 11.5535 15.7676 11.5535 16.1651Z" fill="#67707B"/>
<path d="M8.67423 16.1651C8.67423 16.5626 8.99648 16.8849 9.394 16.8849C9.79152 16.8849 10.1138 16.5626 10.1138 16.1651C10.1138 15.7676 9.79152 15.4453 9.394 15.4453C8.99648 15.4453 8.67423 15.7676 8.67423 16.1651Z" fill="#67707B"/>
<path d="M14.4324 19.0441C14.4324 19.4416 14.7547 19.7639 15.1522 19.7639C15.5497 19.7639 15.8719 19.4416 15.8719 19.0441C15.8719 18.6466 15.5497 18.3243 15.1522 18.3243C14.7547 18.3243 14.4324 18.6466 14.4324 19.0441Z" fill="#67707B"/>
<path d="M17.3116 19.0441C17.3116 19.4416 17.6338 19.7639 18.0313 19.7639C18.4288 19.7639 18.7511 19.4416 18.7511 19.0441C18.7511 18.6466 18.4288 18.3243 18.0313 18.3243C17.6338 18.3243 17.3116 18.6466 17.3116 19.0441Z" fill="#67707B"/>
<path d="M20.1907 19.0441C20.1907 19.4416 20.513 19.7639 20.9105 19.7639C21.308 19.7639 21.6302 19.4416 21.6302 19.0441C21.6302 18.6466 21.308 18.3243 20.9105 18.3243C20.513 18.3243 20.1907 18.6466 20.1907 19.0441Z" fill="#67707B"/>
<path d="M23.0696 19.0441C23.0696 19.4416 23.3919 19.7639 23.7894 19.7639C24.1869 19.7639 24.5092 19.4416 24.5092 19.0441C24.5092 18.6466 24.1869 18.3243 23.7894 18.3243C23.3919 18.3243 23.0696 18.6466 23.0696 19.0441Z" fill="#67707B"/>
<path d="M11.5535 19.0441C11.5535 19.4416 11.8758 19.7639 12.2733 19.7639C12.6708 19.7639 12.993 19.4416 12.993 19.0441C12.993 18.6466 12.6708 18.3243 12.2733 18.3243C11.8758 18.3243 11.5535 18.6466 11.5535 19.0441Z" fill="#67707B"/>
<path d="M8.67423 19.0441C8.67423 19.4416 8.99648 19.7639 9.394 19.7639C9.79152 19.7639 10.1138 19.4416 10.1138 19.0441C10.1138 18.6466 9.79152 18.3243 9.394 18.3243C8.99648 18.3243 8.67423 18.6466 8.67423 19.0441Z" fill="#67707B"/>
<path d="M14.4324 21.9233C14.4324 22.3208 14.7547 22.643 15.1522 22.643C15.5497 22.643 15.8719 22.3208 15.8719 21.9233C15.8719 21.5257 15.5497 21.2035 15.1522 21.2035C14.7547 21.2035 14.4324 21.5257 14.4324 21.9233Z" fill="#67707B"/>
<path d="M17.3116 21.9233C17.3116 22.3208 17.6338 22.643 18.0313 22.643C18.4288 22.643 18.7511 22.3208 18.7511 21.9233C18.7511 21.5257 18.4288 21.2035 18.0313 21.2035C17.6338 21.2035 17.3116 21.5257 17.3116 21.9233Z" fill="#67707B"/>
<path d="M20.1907 21.9233C20.1907 22.3208 20.513 22.643 20.9105 22.643C21.308 22.643 21.6302 22.3208 21.6302 21.9233C21.6302 21.5257 21.308 21.2035 20.9105 21.2035C20.513 21.2035 20.1907 21.5257 20.1907 21.9233Z" fill="#67707B"/>
<path d="M23.0696 21.9233C23.0696 22.3208 23.3919 22.643 23.7894 22.643C24.1869 22.643 24.5092 22.3208 24.5092 21.9233C24.5092 21.5257 24.1869 21.2035 23.7894 21.2035C23.3919 21.2035 23.0696 21.5257 23.0696 21.9233Z" fill="#67707B"/>
<path d="M14.4324 24.8024C14.4324 25.1999 14.7547 25.5222 15.1522 25.5222C15.5497 25.5222 15.8719 25.1999 15.8719 24.8024C15.8719 24.4049 15.5497 24.0826 15.1522 24.0826C14.7547 24.0826 14.4324 24.4049 14.4324 24.8024Z" fill="#67707B"/>
<path d="M17.3116 24.8024C17.3116 25.1999 17.6338 25.5222 18.0313 25.5222C18.4288 25.5222 18.7511 25.1999 18.7511 24.8024C18.7511 24.4049 18.4288 24.0826 18.0313 24.0826C17.6338 24.0826 17.3116 24.4049 17.3116 24.8024Z" fill="#67707B"/>
<path d="M20.1907 24.8024C20.1907 25.1999 20.513 25.5222 20.9105 25.5222C21.308 25.5222 21.6302 25.1999 21.6302 24.8024C21.6302 24.4049 21.308 24.0826 20.9105 24.0826C20.513 24.0826 20.1907 24.4049 20.1907 24.8024Z" fill="#67707B"/>
<path d="M23.0696 24.8024C23.0696 25.1999 23.3919 25.5222 23.7894 25.5222C24.1869 25.5222 24.5092 25.1999 24.5092 24.8024C24.5092 24.4049 24.1869 24.0826 23.7894 24.0826C23.3919 24.0826 23.0696 24.4049 23.0696 24.8024Z" fill="#67707B"/>
<path d="M14.4324 27.6814C14.4324 28.079 14.7547 28.4012 15.1522 28.4012C15.5497 28.4012 15.8719 28.079 15.8719 27.6814C15.8719 27.2839 15.5497 26.9617 15.1522 26.9617C14.7547 26.9617 14.4324 27.2839 14.4324 27.6814Z" fill="#67707B"/>
<path d="M17.3116 27.6814C17.3116 28.079 17.6338 28.4012 18.0313 28.4012C18.4288 28.4012 18.7511 28.079 18.7511 27.6814C18.7511 27.2839 18.4288 26.9617 18.0313 26.9617C17.6338 26.9617 17.3116 27.2839 17.3116 27.6814Z" fill="#67707B"/>
<path d="M20.1907 27.6814C20.1907 28.079 20.513 28.4012 20.9105 28.4012C21.308 28.4012 21.6302 28.079 21.6302 27.6814C21.6302 27.2839 21.308 26.9617 20.9105 26.9617C20.513 26.9617 20.1907 27.2839 20.1907 27.6814Z" fill="#67707B"/>
<path d="M23.0696 27.6814C23.0696 28.079 23.3919 28.4012 23.7894 28.4012C24.1869 28.4012 24.5092 28.079 24.5092 27.6814C24.5092 27.2839 24.1869 26.9617 23.7894 26.9617C23.3919 26.9617 23.0696 27.2839 23.0696 27.6814Z" fill="#67707B"/>
<path d="M11.5535 21.9233C11.5535 22.3208 11.8758 22.643 12.2733 22.643C12.6708 22.643 12.993 22.3208 12.993 21.9233C12.993 21.5257 12.6708 21.2035 12.2733 21.2035C11.8758 21.2035 11.5535 21.5257 11.5535 21.9233Z" fill="#67707B"/>
<path d="M11.5535 24.8024C11.5535 25.1999 11.8758 25.5222 12.2733 25.5222C12.6708 25.5222 12.993 25.1999 12.993 24.8024C12.993 24.4049 12.6708 24.0826 12.2733 24.0826C11.8758 24.0826 11.5535 24.4049 11.5535 24.8024Z" fill="#67707B"/>
<path d="M11.5535 27.6814C11.5535 28.079 11.8758 28.4012 12.2733 28.4012C12.6708 28.4012 12.993 28.079 12.993 27.6814C12.993 27.2839 12.6708 26.9617 12.2733 26.9617C11.8758 26.9617 11.5535 27.2839 11.5535 27.6814Z" fill="#67707B"/>
<path d="M8.67423 21.9233C8.67423 22.3208 8.99648 22.643 9.394 22.643C9.79152 22.643 10.1138 22.3208 10.1138 21.9233C10.1138 21.5257 9.79152 21.2035 9.394 21.2035C8.99648 21.2035 8.67423 21.5257 8.67423 21.9233Z" fill="#67707B"/>
<path d="M8.67423 24.8024C8.67423 25.1999 8.99648 25.5222 9.394 25.5222C9.79152 25.5222 10.1138 25.1999 10.1138 24.8024C10.1138 24.4049 9.79152 24.0826 9.394 24.0826C8.99648 24.0826 8.67423 24.4049 8.67423 24.8024Z" fill="#67707B"/>
<path d="M8.67423 27.6814C8.67423 28.079 8.99648 28.4012 9.394 28.4012C9.79152 28.4012 10.1138 28.079 10.1138 27.6814C10.1138 27.2839 9.79152 26.9617 9.394 26.9617C8.99648 26.9617 8.67423 27.2839 8.67423 27.6814Z" fill="#67707B"/>
</g>
<defs>
<clipPath id="clip0_1967_19793">
<rect width="32" height="32" fill="white"/>
</clipPath>
</defs>
</svg>
