<svg width="32" height="32" viewBox="0 0 32 32" fill="none" xmlns="http://www.w3.org/2000/svg">
<path d="M9.56543 4.35828H30.4478C31.305 4.35828 32 5.05323 32 5.91051V21.4328C32 24.8619 29.2202 27.6417 25.7911 27.6417H9.56543V4.35828Z" fill="#0E141B"/>
<path d="M22.5412 11.6343C22.5412 12.0362 22.2154 12.362 21.8135 12.362C21.4117 12.362 21.0859 12.0362 21.0859 11.6343C21.0859 11.2325 21.4117 10.9067 21.8135 10.9067C22.2154 10.9067 22.5412 11.2325 22.5412 11.6343Z" fill="#67707B"/>
<path d="M19.6308 11.6343C19.6308 12.0362 19.305 12.362 18.9031 12.362C18.5013 12.362 18.1755 12.0362 18.1755 11.6343C18.1755 11.2325 18.5013 10.9067 18.9031 10.9067C19.305 10.9067 19.6308 11.2325 19.6308 11.6343Z" fill="#67707B"/>
<path d="M16.7201 11.6343C16.7201 12.0362 16.3943 12.362 15.9925 12.362C15.5907 12.362 15.2649 12.0362 15.2649 11.6343C15.2649 11.2325 15.5907 10.9067 15.9925 10.9067C16.3943 10.9067 16.7201 11.2325 16.7201 11.6343Z" fill="#67707B"/>
<path d="M13.8098 11.6343C13.8098 12.0362 13.4841 12.362 13.0822 12.362C12.6804 12.362 12.3546 12.0362 12.3546 11.6343C12.3546 11.2325 12.6804 10.9067 13.0822 10.9067C13.4841 10.9067 13.8098 11.2325 13.8098 11.6343Z" fill="#67707B"/>
<path d="M25.4513 11.6343C25.4513 12.0362 25.1255 12.362 24.7237 12.362C24.3219 12.362 23.9961 12.0362 23.9961 11.6343C23.9961 11.2325 24.3219 10.9067 24.7237 10.9067C25.1255 10.9067 25.4513 11.2325 25.4513 11.6343Z" fill="#67707B"/>
<path d="M28.3621 11.6343C28.3621 12.0362 28.0363 12.362 27.6345 12.362C27.2326 12.362 26.9069 12.0362 26.9069 11.6343C26.9069 11.2325 27.2326 10.9067 27.6345 10.9067C28.0363 10.9067 28.3621 11.2325 28.3621 11.6343Z" fill="#67707B"/>
<path d="M22.5412 14.5447C22.5412 14.9466 22.2154 15.2724 21.8135 15.2724C21.4117 15.2724 21.0859 14.9466 21.0859 14.5447C21.0859 14.1429 21.4117 13.8171 21.8135 13.8171C22.2154 13.8171 22.5412 14.1429 22.5412 14.5447Z" fill="#67707B"/>
<path d="M19.6308 14.5447C19.6308 14.9466 19.305 15.2724 18.9031 15.2724C18.5013 15.2724 18.1755 14.9466 18.1755 14.5447C18.1755 14.1429 18.5013 13.8171 18.9031 13.8171C19.305 13.8171 19.6308 14.1429 19.6308 14.5447Z" fill="#67707B"/>
<path d="M16.7201 14.5447C16.7201 14.9466 16.3943 15.2724 15.9925 15.2724C15.5907 15.2724 15.2649 14.9466 15.2649 14.5447C15.2649 14.1429 15.5907 13.8171 15.9925 13.8171C16.3943 13.8171 16.7201 14.1429 16.7201 14.5447Z" fill="#67707B"/>
<path d="M13.8098 14.5447C13.8098 14.9466 13.4841 15.2724 13.0822 15.2724C12.6804 15.2724 12.3546 14.9466 12.3546 14.5447C12.3546 14.1429 12.6804 13.8171 13.0822 13.8171C13.4841 13.8171 13.8098 14.1429 13.8098 14.5447Z" fill="#67707B"/>
<path d="M25.4513 14.5447C25.4513 14.9466 25.1255 15.2724 24.7237 15.2724C24.3219 15.2724 23.9961 14.9466 23.9961 14.5447C23.9961 14.1429 24.3219 13.8171 24.7237 13.8171C25.1255 13.8171 25.4513 14.1429 25.4513 14.5447Z" fill="#67707B"/>
<path d="M28.3621 14.5447C28.3621 14.9466 28.0363 15.2724 27.6345 15.2724C27.2326 15.2724 26.9069 14.9466 26.9069 14.5447C26.9069 14.1429 27.2326 13.8171 27.6345 13.8171C28.0363 13.8171 28.3621 14.1429 28.3621 14.5447Z" fill="#67707B"/>
<path d="M22.5412 17.4551C22.5412 17.857 22.2154 18.1828 21.8135 18.1828C21.4117 18.1828 21.0859 17.857 21.0859 17.4551C21.0859 17.0533 21.4117 16.7275 21.8135 16.7275C22.2154 16.7275 22.5412 17.0533 22.5412 17.4551Z" fill="#67707B"/>
<path d="M19.6308 17.4551C19.6308 17.857 19.305 18.1828 18.9031 18.1828C18.5013 18.1828 18.1755 17.857 18.1755 17.4551C18.1755 17.0533 18.5013 16.7275 18.9031 16.7275C19.305 16.7275 19.6308 17.0533 19.6308 17.4551Z" fill="#67707B"/>
<path d="M16.7201 17.4551C16.7201 17.857 16.3943 18.1828 15.9925 18.1828C15.5907 18.1828 15.2649 17.857 15.2649 17.4551C15.2649 17.0533 15.5907 16.7275 15.9925 16.7275C16.3943 16.7275 16.7201 17.0533 16.7201 17.4551Z" fill="#67707B"/>
<path d="M13.8098 17.4551C13.8098 17.857 13.4841 18.1828 13.0822 18.1828C12.6804 18.1828 12.3546 17.857 12.3546 17.4551C12.3546 17.0533 12.6804 16.7275 13.0822 16.7275C13.4841 16.7275 13.8098 17.0533 13.8098 17.4551Z" fill="#67707B"/>
<path d="M22.5412 20.3657C22.5412 20.7675 22.2154 21.0933 21.8135 21.0933C21.4117 21.0933 21.0859 20.7675 21.0859 20.3657C21.0859 19.9638 21.4117 19.6381 21.8135 19.6381C22.2154 19.6381 22.5412 19.9638 22.5412 20.3657Z" fill="#67707B"/>
<path d="M19.6308 20.3657C19.6308 20.7675 19.305 21.0933 18.9031 21.0933C18.5013 21.0933 18.1755 20.7675 18.1755 20.3657C18.1755 19.9638 18.5013 19.6381 18.9031 19.6381C19.305 19.6381 19.6308 19.9638 19.6308 20.3657Z" fill="#67707B"/>
<path d="M16.7201 20.3657C16.7201 20.7675 16.3943 21.0933 15.9925 21.0933C15.5907 21.0933 15.2649 20.7675 15.2649 20.3657C15.2649 19.9638 15.5907 19.6381 15.9925 19.6381C16.3943 19.6381 16.7201 19.9638 16.7201 20.3657Z" fill="#67707B"/>
<path d="M13.8098 20.3657C13.8098 20.7675 13.4841 21.0933 13.0822 21.0933C12.6804 21.0933 12.3546 20.7675 12.3546 20.3657C12.3546 19.9638 12.6804 19.6381 13.0822 19.6381C13.4841 19.6381 13.8098 19.9638 13.8098 20.3657Z" fill="#67707B"/>
<path d="M22.5412 23.2761C22.5412 23.6779 22.2154 24.0037 21.8135 24.0037C21.4117 24.0037 21.0859 23.6779 21.0859 23.2761C21.0859 22.8742 21.4117 22.5485 21.8135 22.5485C22.2154 22.5485 22.5412 22.8742 22.5412 23.2761Z" fill="#67707B"/>
<path d="M19.6308 23.2761C19.6308 23.6779 19.305 24.0037 18.9031 24.0037C18.5013 24.0037 18.1755 23.6779 18.1755 23.2761C18.1755 22.8742 18.5013 22.5485 18.9031 22.5485C19.305 22.5485 19.6308 22.8742 19.6308 23.2761Z" fill="#67707B"/>
<path d="M16.7201 23.2761C16.7201 23.6779 16.3943 24.0037 15.9925 24.0037C15.5907 24.0037 15.2649 23.6779 15.2649 23.2761C15.2649 22.8742 15.5907 22.5485 15.9925 22.5485C16.3943 22.5485 16.7201 22.8742 16.7201 23.2761Z" fill="#67707B"/>
<path d="M13.8098 23.2761C13.8098 23.6779 13.4841 24.0037 13.0822 24.0037C12.6804 24.0037 12.3546 23.6779 12.3546 23.2761C12.3546 22.8742 12.6804 22.5485 13.0822 22.5485C13.4841 22.5485 13.8098 22.8742 13.8098 23.2761Z" fill="#67707B"/>
<path d="M25.4513 17.4551C25.4513 17.857 25.1255 18.1828 24.7237 18.1828C24.3219 18.1828 23.9961 17.857 23.9961 17.4551C23.9961 17.0533 24.3219 16.7275 24.7237 16.7275C25.1255 16.7275 25.4513 17.0533 25.4513 17.4551Z" fill="#67707B"/>
<path d="M25.4513 20.3657C25.4513 20.7675 25.1255 21.0933 24.7237 21.0933C24.3219 21.0933 23.9961 20.7675 23.9961 20.3657C23.9961 19.9638 24.3219 19.6381 24.7237 19.6381C25.1255 19.6381 25.4513 19.9638 25.4513 20.3657Z" fill="#67707B"/>
<path d="M25.4513 23.2761C25.4513 23.6779 25.1255 24.0037 24.7237 24.0037C24.3219 24.0037 23.9961 23.6779 23.9961 23.2761C23.9961 22.8742 24.3219 22.5485 24.7237 22.5485C25.1255 22.5485 25.4513 22.8742 25.4513 23.2761Z" fill="#67707B"/>
<path d="M28.3621 17.4551C28.3621 17.857 28.0363 18.1828 27.6345 18.1828C27.2326 18.1828 26.9069 17.857 26.9069 17.4551C26.9069 17.0533 27.2326 16.7275 27.6345 16.7275C28.0363 16.7275 28.3621 17.0533 28.3621 17.4551Z" fill="#67707B"/>
<path d="M28.3621 20.3657C28.3621 20.7675 28.0363 21.0933 27.6345 21.0933C27.2326 21.0933 26.9069 20.7675 26.9069 20.3657C26.9069 19.9638 27.2326 19.6381 27.6345 19.6381C28.0363 19.6381 28.3621 19.9638 28.3621 20.3657Z" fill="#67707B"/>
<path d="M28.3621 23.2761C28.3621 23.6779 28.0363 24.0037 27.6345 24.0037C27.2326 24.0037 26.9069 23.6779 26.9069 23.2761C26.9069 22.8742 27.2326 22.5485 27.6345 22.5485C28.0363 22.5485 28.3621 22.8742 28.3621 23.2761Z" fill="#67707B"/>
<path d="M6.97839 19.8805L2.45106 16L6.97839 12.1194L6.97839 19.8805Z" fill="white"/>
<path fill-rule="evenodd" clip-rule="evenodd" d="M8.27185 22.693L0.463369 16L8.27185 9.30701V22.693ZM6.97833 19.8806L6.97833 12.1194L2.45099 16L6.97833 19.8806Z" fill="#0E141B"/>
</svg>
