<svg width="64" height="64" viewBox="0 0 64 64" fill="none" xmlns="http://www.w3.org/2000/svg">
<path d="M8.08398 12.979H52.7273C54.4884 12.979 55.9161 14.4067 55.9161 16.1678V51.2447C55.9161 58.2892 50.2054 64 43.1609 64H8.08398V12.979Z" fill="black"/>
<path d="M16.0561 28.923C16.0561 29.8036 15.3423 30.5174 14.4617 30.5174C13.5811 30.5174 12.8673 29.8036 12.8673 28.923C12.8673 28.0425 13.5811 27.3286 14.4617 27.3286C15.3423 27.3286 16.0561 28.0425 16.0561 28.923Z" fill="#67707B"/>
<path d="M16.0561 35.3007C16.0561 36.1813 15.3423 36.8951 14.4617 36.8951C13.5811 36.8951 12.8673 36.1813 12.8673 35.3007C12.8673 34.4201 13.5811 33.7063 14.4617 33.7063C15.3423 33.7063 16.0561 34.4201 16.0561 35.3007Z" fill="#67707B"/>
<path d="M22.4334 35.3007C22.4334 36.1813 21.7196 36.8951 20.839 36.8951C19.9585 36.8951 19.2446 36.1813 19.2446 35.3007C19.2446 34.4201 19.9585 33.7063 20.839 33.7063C21.7196 33.7063 22.4334 34.4201 22.4334 35.3007Z" fill="#67707B"/>
<path d="M16.0561 41.6781C16.0561 42.5587 15.3423 43.2725 14.4617 43.2725C13.5811 43.2725 12.8673 42.5587 12.8673 41.6781C12.8673 40.7976 13.5811 40.0837 14.4617 40.0837C15.3423 40.0837 16.0561 40.7976 16.0561 41.6781Z" fill="#67707B"/>
<path d="M16.0561 48.0558C16.0561 48.9364 15.3423 49.6502 14.4617 49.6502C13.5811 49.6502 12.8673 48.9364 12.8673 48.0558C12.8673 47.1753 13.5811 46.4614 14.4617 46.4614C15.3423 46.4614 16.0561 47.1753 16.0561 48.0558Z" fill="#67707B"/>
<path d="M16.0561 54.4335C16.0561 55.3141 15.3423 56.0279 14.4617 56.0279C13.5811 56.0279 12.8673 55.3141 12.8673 54.4335C12.8673 53.553 13.5811 52.8391 14.4617 52.8391C15.3423 52.8391 16.0561 53.553 16.0561 54.4335Z" fill="#67707B"/>
<path d="M47.9442 28.923C47.9442 29.8036 47.2303 30.5174 46.3498 30.5174C45.4692 30.5174 44.7554 29.8036 44.7554 28.923C44.7554 28.0425 45.4692 27.3286 46.3498 27.3286C47.2303 27.3286 47.9442 28.0425 47.9442 28.923Z" fill="#67707B"/>
<path d="M47.9442 35.3007C47.9442 36.1813 47.2303 36.8951 46.3498 36.8951C45.4692 36.8951 44.7554 36.1813 44.7554 35.3007C44.7554 34.4201 45.4692 33.7063 46.3498 33.7063C47.2303 33.7063 47.9442 34.4201 47.9442 35.3007Z" fill="#67707B"/>
<path d="M22.4334 41.6781C22.4334 42.5587 21.7196 43.2725 20.839 43.2725C19.9585 43.2725 19.2446 42.5587 19.2446 41.6781C19.2446 40.7976 19.9585 40.0837 20.839 40.0837C21.7196 40.0837 22.4334 40.7976 22.4334 41.6781Z" fill="#67707B"/>
<path d="M22.4334 48.0558C22.4334 48.9364 21.7196 49.6502 20.839 49.6502C19.9585 49.6502 19.2446 48.9364 19.2446 48.0558C19.2446 47.1753 19.9585 46.4614 20.839 46.4614C21.7196 46.4614 22.4334 47.1753 22.4334 48.0558Z" fill="#67707B"/>
<path d="M22.4334 54.4335C22.4334 55.3141 21.7196 56.0279 20.839 56.0279C19.9585 56.0279 19.2446 55.3141 19.2446 54.4335C19.2446 53.553 19.9585 52.8391 20.839 52.8391C21.7196 52.8391 22.4334 53.553 22.4334 54.4335Z" fill="#67707B"/>
<path d="M28.8115 41.6781C28.8115 42.5587 28.0977 43.2725 27.2171 43.2725C26.3365 43.2725 25.6227 42.5587 25.6227 41.6781C25.6227 40.7976 26.3365 40.0837 27.2171 40.0837C28.0977 40.0837 28.8115 40.7976 28.8115 41.6781Z" fill="#67707B"/>
<path d="M28.8115 48.0558C28.8115 48.9364 28.0977 49.6502 27.2171 49.6502C26.3365 49.6502 25.6227 48.9364 25.6227 48.0558C25.6227 47.1753 26.3365 46.4614 27.2171 46.4614C28.0977 46.4614 28.8115 47.1753 28.8115 48.0558Z" fill="#67707B"/>
<path d="M28.8115 54.4335C28.8115 55.3141 28.0977 56.0279 27.2171 56.0279C26.3365 56.0279 25.6227 55.3141 25.6227 54.4335C25.6227 53.553 26.3365 52.8391 27.2171 52.8391C28.0977 52.8391 28.8115 53.553 28.8115 54.4335Z" fill="#67707B"/>
<path d="M35.1888 41.6781C35.1888 42.5587 34.475 43.2725 33.5944 43.2725C32.7138 43.2725 32 42.5587 32 41.6781C32 40.7976 32.7138 40.0837 33.5944 40.0837C34.475 40.0837 35.1888 40.7976 35.1888 41.6781Z" fill="#67707B"/>
<path d="M35.1888 48.0558C35.1888 48.9364 34.475 49.6502 33.5944 49.6502C32.7138 49.6502 32 48.9364 32 48.0558C32 47.1753 32.7138 46.4614 33.5944 46.4614C34.475 46.4614 35.1888 47.1753 35.1888 48.0558Z" fill="#67707B"/>
<path d="M35.1888 54.4335C35.1888 55.3141 34.475 56.0279 33.5944 56.0279C32.7138 56.0279 32 55.3141 32 54.4335C32 53.553 32.7138 52.8391 33.5944 52.8391C34.475 52.8391 35.1888 53.553 35.1888 54.4335Z" fill="#67707B"/>
<path d="M41.5661 41.6781C41.5661 42.5587 40.8523 43.2725 39.9717 43.2725C39.0912 43.2725 38.3773 42.5587 38.3773 41.6781C38.3773 40.7976 39.0912 40.0837 39.9717 40.0837C40.8523 40.0837 41.5661 40.7976 41.5661 41.6781Z" fill="#67707B"/>
<path d="M41.5661 48.0558C41.5661 48.9364 40.8523 49.6502 39.9717 49.6502C39.0912 49.6502 38.3773 48.9364 38.3773 48.0558C38.3773 47.1753 39.0912 46.4614 39.9717 46.4614C40.8523 46.4614 41.5661 47.1753 41.5661 48.0558Z" fill="#67707B"/>
<path d="M41.5661 54.4335C41.5661 55.3141 40.8523 56.0279 39.9717 56.0279C39.0912 56.0279 38.3773 55.3141 38.3773 54.4335C38.3773 53.553 39.0912 52.8391 39.9717 52.8391C40.8523 52.8391 41.5661 53.553 41.5661 54.4335Z" fill="#67707B"/>
<path d="M47.9442 41.6781C47.9442 42.5587 47.2303 43.2725 46.3498 43.2725C45.4692 43.2725 44.7554 42.5587 44.7554 41.6781C44.7554 40.7976 45.4692 40.0837 46.3498 40.0837C47.2303 40.0837 47.9442 40.7976 47.9442 41.6781Z" fill="#67707B"/>
<path d="M47.9442 48.0558C47.9442 48.9364 47.2303 49.6502 46.3498 49.6502C45.4692 49.6502 44.7554 48.9364 44.7554 48.0558C44.7554 47.1753 45.4692 46.4614 46.3498 46.4614C47.2303 46.4614 47.9442 47.1753 47.9442 48.0558Z" fill="#67707B"/>
<path d="M47.9442 54.4335C47.9442 55.3141 47.2303 56.0279 46.3498 56.0279C45.4692 56.0279 44.7554 55.3141 44.7554 54.4335C44.7554 53.553 45.4692 52.8391 46.3498 52.8391C47.2303 52.8391 47.9442 53.553 47.9442 54.4335Z" fill="#67707B"/>
<path d="M41.2905 21.7571L34.8221 15.0903V30.5175H29.1778V15.0903L22.7094 21.7571L18.7133 17.6384L32 3.94405L45.2867 17.6384L41.2905 21.7571Z" fill="white"/>
<path fill-rule="evenodd" clip-rule="evenodd" d="M41.2905 25.5733L48.9892 17.6384L32 0.12793L15.0107 17.6384L22.7095 25.5733L26.5205 21.6453V33.1748H37.4795V21.6453L41.2905 25.5733ZM34.8221 15.0903V30.5175H29.1778V15.0903L22.7095 21.7572L18.7133 17.6384L32 3.94406L45.2867 17.6384L41.2905 21.7572L34.8221 15.0903Z" fill="black"/>
</svg>
