<svg width="64" height="64" viewBox="0 0 64 64" fill="none" xmlns="http://www.w3.org/2000/svg">
<g clip-path="url(#clip0_1967:15738)">
<path d="M8.03589 0H52.7687C54.5334 0 55.9639 1.43054 55.9639 3.1952V38.3425C55.9639 45.4011 50.2418 51.1233 43.1831 51.1233H8.03589V0Z" fill="black"/>
<path d="M16.0241 28.7568C16.0241 29.6391 15.3088 30.3544 14.4265 30.3544C13.5441 30.3544 12.8289 29.6391 12.8289 28.7568C12.8289 27.8745 13.5441 27.1592 14.4265 27.1592C15.3088 27.1592 16.0241 27.8745 16.0241 28.7568Z" fill="#67707B"/>
<path d="M16.0241 22.3664C16.0241 23.2487 15.3088 23.964 14.4265 23.964C13.5441 23.964 12.8289 23.2487 12.8289 22.3664C12.8289 21.4841 13.5441 20.7688 14.4265 20.7688C15.3088 20.7688 16.0241 21.4841 16.0241 22.3664Z" fill="#67707B"/>
<path d="M16.0241 15.9759C16.0241 16.8582 15.3088 17.5735 14.4265 17.5735C13.5441 17.5735 12.8289 16.8582 12.8289 15.9759C12.8289 15.0936 13.5441 14.3783 14.4265 14.3783C15.3088 14.3783 16.0241 15.0936 16.0241 15.9759Z" fill="#67707B"/>
<path d="M16.0241 35.1472C16.0241 36.0295 15.3088 36.7448 14.4265 36.7448C13.5441 36.7448 12.8289 36.0295 12.8289 35.1472C12.8289 34.2648 13.5441 33.5496 14.4265 33.5496C15.3088 33.5496 16.0241 34.2648 16.0241 35.1472Z" fill="#67707B"/>
<path d="M22.4143 28.7568C22.4143 29.6391 21.699 30.3544 20.8167 30.3544C19.9344 30.3544 19.2191 29.6391 19.2191 28.7568C19.2191 27.8745 19.9344 27.1592 20.8167 27.1592C21.699 27.1592 22.4143 27.8745 22.4143 28.7568Z" fill="#67707B"/>
<path d="M22.4143 22.3664C22.4143 23.2487 21.699 23.964 20.8167 23.964C19.9344 23.964 19.2191 23.2487 19.2191 22.3664C19.2191 21.4841 19.9344 20.7688 20.8167 20.7688C21.699 20.7688 22.4143 21.4841 22.4143 22.3664Z" fill="#67707B"/>
<path d="M22.4143 15.9759C22.4143 16.8582 21.699 17.5735 20.8167 17.5735C19.9344 17.5735 19.2191 16.8582 19.2191 15.9759C19.2191 15.0936 19.9344 14.3783 20.8167 14.3783C21.699 14.3783 22.4143 15.0936 22.4143 15.9759Z" fill="#67707B"/>
<path d="M28.8051 22.3664C28.8051 23.2487 28.0898 23.964 27.2075 23.964C26.3251 23.964 25.6099 23.2487 25.6099 22.3664C25.6099 21.4841 26.3251 20.7688 27.2075 20.7688C28.0898 20.7688 28.8051 21.4841 28.8051 22.3664Z" fill="#67707B"/>
<path d="M28.8051 15.9759C28.8051 16.8582 28.0898 17.5735 27.2075 17.5735C26.3251 17.5735 25.6099 16.8582 25.6099 15.9759C25.6099 15.0936 26.3251 14.3783 27.2075 14.3783C28.0898 14.3783 28.8051 15.0936 28.8051 15.9759Z" fill="#67707B"/>
<path d="M35.1952 22.3664C35.1952 23.2487 34.4799 23.964 33.5976 23.964C32.7153 23.964 32 23.2487 32 22.3664C32 21.4841 32.7153 20.7688 33.5976 20.7688C34.4799 20.7688 35.1952 21.4841 35.1952 22.3664Z" fill="#67707B"/>
<path d="M35.1952 15.9759C35.1952 16.8582 34.4799 17.5735 33.5976 17.5735C32.7153 17.5735 32 16.8582 32 15.9759C32 15.0936 32.7153 14.3783 33.5976 14.3783C34.4799 14.3783 35.1952 15.0936 35.1952 15.9759Z" fill="#67707B"/>
<path d="M41.5853 22.3664C41.5853 23.2487 40.8701 23.964 39.9877 23.964C39.1054 23.964 38.3901 23.2487 38.3901 22.3664C38.3901 21.4841 39.1054 20.7688 39.9877 20.7688C40.8701 20.7688 41.5853 21.4841 41.5853 22.3664Z" fill="#67707B"/>
<path d="M41.5853 15.9759C41.5853 16.8582 40.8701 17.5735 39.9877 17.5735C39.1054 17.5735 38.3901 16.8582 38.3901 15.9759C38.3901 15.0936 39.1054 14.3783 39.9877 14.3783C40.8701 14.3783 41.5853 15.0936 41.5853 15.9759Z" fill="#67707B"/>
<path d="M47.9761 28.7568C47.9761 29.6391 47.2608 30.3544 46.3785 30.3544C45.4962 30.3544 44.7809 29.6391 44.7809 28.7568C44.7809 27.8745 45.4962 27.1592 46.3785 27.1592C47.2608 27.1592 47.9761 27.8745 47.9761 28.7568Z" fill="#67707B"/>
<path d="M47.9761 22.3664C47.9761 23.2487 47.2608 23.964 46.3785 23.964C45.4962 23.964 44.7809 23.2487 44.7809 22.3664C44.7809 21.4841 45.4962 20.7688 46.3785 20.7688C47.2608 20.7688 47.9761 21.4841 47.9761 22.3664Z" fill="#67707B"/>
<path d="M47.9761 15.9759C47.9761 16.8582 47.2608 17.5735 46.3785 17.5735C45.4962 17.5735 44.7809 16.8582 44.7809 15.9759C44.7809 15.0936 45.4962 14.3783 46.3785 14.3783C47.2608 14.3783 47.9761 15.0936 47.9761 15.9759Z" fill="#67707B"/>
<path d="M47.9761 35.1472C47.9761 36.0295 47.2608 36.7448 46.3785 36.7448C45.4962 36.7448 44.7809 36.0295 44.7809 35.1472C44.7809 34.2648 45.4962 33.5496 46.3785 33.5496C47.2608 33.5496 47.9761 34.2648 47.9761 35.1472Z" fill="#67707B"/>
<path d="M41.3092 42.3274L34.8278 49.0076V33.5496H29.1722V49.0076L22.6908 42.3274L18.6866 46.4545L32 60.1763L45.3133 46.4545L41.3092 42.3274Z" fill="white"/>
<path fill-rule="evenodd" clip-rule="evenodd" d="M41.3092 38.5036L49.0233 46.4544L32 64L14.9767 46.4544L22.6908 38.5036L26.5095 42.4394V30.8868L37.4905 30.8868V42.4394L41.3092 38.5036ZM34.8278 49.0076V33.5495H29.1722V49.0076L22.6908 42.3274L18.6866 46.4544L32 60.1762L45.3133 46.4544L41.3092 42.3274L34.8278 49.0076Z" fill="black"/>
</g>
<defs>
<clipPath id="clip0_1967:15738">
<rect width="64" height="64" fill="white"/>
</clipPath>
</defs>
</svg>
