<svg width="64" height="64" viewBox="0 0 64 64" fill="none" xmlns="http://www.w3.org/2000/svg">
<path d="M0 8.0365H42.9844C44.749 8.0365 46.1795 9.46701 46.1795 11.2316V43.1829C46.1795 50.2413 40.4575 55.9634 33.399 55.9634H0V8.0365Z" fill="black"/>
<path d="M26.7093 23.0137C26.7093 23.8409 26.0387 24.5114 25.2116 24.5114C24.3844 24.5114 23.7139 23.8409 23.7139 23.0137C23.7139 22.1865 24.3844 21.516 25.2116 21.516C26.0387 21.516 26.7093 22.1865 26.7093 23.0137Z" fill="#67707B"/>
<path d="M20.7183 23.0137C20.7183 23.8409 20.0478 24.5114 19.2206 24.5114C18.3935 24.5114 17.7229 23.8409 17.7229 23.0137C17.7229 22.1865 18.3935 21.516 19.2206 21.516C20.0478 21.516 20.7183 22.1865 20.7183 23.0137Z" fill="#67707B"/>
<path d="M14.7274 23.0137C14.7274 23.8409 14.0568 24.5114 13.2296 24.5114C12.4025 24.5114 11.7319 23.8409 11.7319 23.0137C11.7319 22.1865 12.4025 21.516 13.2296 21.516C14.0568 21.516 14.7274 22.1865 14.7274 23.0137Z" fill="#67707B"/>
<path d="M8.73676 23.0137C8.73676 23.8409 8.06621 24.5114 7.23905 24.5114C6.41188 24.5114 5.74133 23.8409 5.74133 23.0137C5.74133 22.1865 6.41188 21.516 7.23905 21.516C8.06621 21.516 8.73676 22.1865 8.73676 23.0137Z" fill="#67707B"/>
<path d="M32.6998 23.0137C32.6998 23.8409 32.0292 24.5114 31.2021 24.5114C30.3749 24.5114 29.7043 23.8409 29.7043 23.0137C29.7043 22.1865 30.3749 21.516 31.2021 21.516C32.0292 21.516 32.6998 22.1865 32.6998 23.0137Z" fill="#67707B"/>
<path d="M38.6911 23.0137C38.6911 23.8409 38.0206 24.5114 37.1934 24.5114C36.3662 24.5114 35.6957 23.8409 35.6957 23.0137C35.6957 22.1865 36.3662 21.516 37.1934 21.516C38.0206 21.516 38.6911 22.1865 38.6911 23.0137Z" fill="#67707B"/>
<path d="M26.7093 29.0044C26.7093 29.8316 26.0387 30.5021 25.2116 30.5021C24.3844 30.5021 23.7139 29.8316 23.7139 29.0044C23.7139 28.1773 24.3844 27.5067 25.2116 27.5067C26.0387 27.5067 26.7093 28.1773 26.7093 29.0044Z" fill="#67707B"/>
<path d="M20.7183 29.0044C20.7183 29.8316 20.0478 30.5021 19.2206 30.5021C18.3935 30.5021 17.7229 29.8316 17.7229 29.0044C17.7229 28.1773 18.3935 27.5067 19.2206 27.5067C20.0478 27.5067 20.7183 28.1773 20.7183 29.0044Z" fill="#67707B"/>
<path d="M14.7274 29.0044C14.7274 29.8316 14.0568 30.5021 13.2296 30.5021C12.4025 30.5021 11.7319 29.8316 11.7319 29.0044C11.7319 28.1773 12.4025 27.5067 13.2296 27.5067C14.0568 27.5067 14.7274 28.1773 14.7274 29.0044Z" fill="#67707B"/>
<path d="M8.73676 29.0044C8.73676 29.8316 8.06621 30.5021 7.23905 30.5021C6.41188 30.5021 5.74133 29.8316 5.74133 29.0044C5.74133 28.1773 6.41188 27.5067 7.23905 27.5067C8.06621 27.5067 8.73676 28.1773 8.73676 29.0044Z" fill="#67707B"/>
<path d="M32.6998 29.0044C32.6998 29.8316 32.0292 30.5021 31.2021 30.5021C30.3749 30.5021 29.7043 29.8316 29.7043 29.0044C29.7043 28.1773 30.3749 27.5067 31.2021 27.5067C32.0292 27.5067 32.6998 28.1773 32.6998 29.0044Z" fill="#67707B"/>
<path d="M38.6911 29.0044C38.6911 29.8316 38.0206 30.5021 37.1934 30.5021C36.3662 30.5021 35.6957 29.8316 35.6957 29.0044C35.6957 28.1773 36.3662 27.5067 37.1934 27.5067C38.0206 27.5067 38.6911 28.1773 38.6911 29.0044Z" fill="#67707B"/>
<path d="M26.7093 34.9953C26.7093 35.8224 26.0387 36.493 25.2116 36.493C24.3844 36.493 23.7139 35.8224 23.7139 34.9953C23.7139 34.1681 24.3844 33.4976 25.2116 33.4976C26.0387 33.4976 26.7093 34.1681 26.7093 34.9953Z" fill="#67707B"/>
<path d="M20.7183 34.9953C20.7183 35.8224 20.0478 36.493 19.2206 36.493C18.3935 36.493 17.7229 35.8224 17.7229 34.9953C17.7229 34.1681 18.3935 33.4976 19.2206 33.4976C20.0478 33.4976 20.7183 34.1681 20.7183 34.9953Z" fill="#67707B"/>
<path d="M14.7274 34.9953C14.7274 35.8224 14.0568 36.493 13.2296 36.493C12.4025 36.493 11.7319 35.8224 11.7319 34.9953C11.7319 34.1681 12.4025 33.4976 13.2296 33.4976C14.0568 33.4976 14.7274 34.1681 14.7274 34.9953Z" fill="#67707B"/>
<path d="M8.73676 34.9953C8.73676 35.8224 8.06621 36.493 7.23905 36.493C6.41188 36.493 5.74133 35.8224 5.74133 34.9953C5.74133 34.1681 6.41188 33.4976 7.23905 33.4976C8.06621 33.4976 8.73676 34.1681 8.73676 34.9953Z" fill="#67707B"/>
<path d="M26.7093 40.9862C26.7093 41.8134 26.0387 42.484 25.2116 42.484C24.3844 42.484 23.7139 41.8134 23.7139 40.9862C23.7139 40.1591 24.3844 39.4885 25.2116 39.4885C26.0387 39.4885 26.7093 40.1591 26.7093 40.9862Z" fill="#67707B"/>
<path d="M20.7183 40.9862C20.7183 41.8134 20.0478 42.484 19.2206 42.484C18.3935 42.484 17.7229 41.8134 17.7229 40.9862C17.7229 40.1591 18.3935 39.4885 19.2206 39.4885C20.0478 39.4885 20.7183 40.1591 20.7183 40.9862Z" fill="#67707B"/>
<path d="M14.7274 40.9862C14.7274 41.8134 14.0568 42.484 13.2296 42.484C12.4025 42.484 11.7319 41.8134 11.7319 40.9862C11.7319 40.1591 12.4025 39.4885 13.2296 39.4885C14.0568 39.4885 14.7274 40.1591 14.7274 40.9862Z" fill="#67707B"/>
<path d="M8.73676 40.9862C8.73676 41.8134 8.06621 42.484 7.23905 42.484C6.41188 42.484 5.74133 41.8134 5.74133 40.9862C5.74133 40.1591 6.41188 39.4885 7.23905 39.4885C8.06621 39.4885 8.73676 40.1591 8.73676 40.9862Z" fill="#67707B"/>
<path d="M26.7093 46.9771C26.7093 47.8042 26.0387 48.4748 25.2116 48.4748C24.3844 48.4748 23.7139 47.8042 23.7139 46.9771C23.7139 46.1499 24.3844 45.4794 25.2116 45.4794C26.0387 45.4794 26.7093 46.1499 26.7093 46.9771Z" fill="#67707B"/>
<path d="M20.7183 46.9771C20.7183 47.8042 20.0478 48.4748 19.2206 48.4748C18.3935 48.4748 17.7229 47.8042 17.7229 46.9771C17.7229 46.1499 18.3935 45.4794 19.2206 45.4794C20.0478 45.4794 20.7183 46.1499 20.7183 46.9771Z" fill="#67707B"/>
<path d="M14.7274 46.9771C14.7274 47.8042 14.0568 48.4748 13.2296 48.4748C12.4025 48.4748 11.7319 47.8042 11.7319 46.9771C11.7319 46.1499 12.4025 45.4794 13.2296 45.4794C14.0568 45.4794 14.7274 46.1499 14.7274 46.9771Z" fill="#67707B"/>
<path d="M8.73676 46.9771C8.73676 47.8042 8.06621 48.4748 7.23905 48.4748C6.41188 48.4748 5.74133 47.8042 5.74133 46.9771C5.74133 46.1499 6.41188 45.4794 7.23905 45.4794C8.06621 45.4794 8.73676 46.1499 8.73676 46.9771Z" fill="#67707B"/>
<path d="M32.6998 34.9953C32.6998 35.8224 32.0292 36.493 31.2021 36.493C30.3749 36.493 29.7043 35.8224 29.7043 34.9953C29.7043 34.1681 30.3749 33.4976 31.2021 33.4976C32.0292 33.4976 32.6998 34.1681 32.6998 34.9953Z" fill="#67707B"/>
<path d="M32.6998 40.9862C32.6998 41.8134 32.0292 42.484 31.2021 42.484C30.3749 42.484 29.7043 41.8134 29.7043 40.9862C29.7043 40.1591 30.3749 39.4885 31.2021 39.4885C32.0292 39.4885 32.6998 40.1591 32.6998 40.9862Z" fill="#67707B"/>
<path d="M32.6998 46.9771C32.6998 47.8042 32.0292 48.4748 31.2021 48.4748C30.3749 48.4748 29.7043 47.8042 29.7043 46.9771C29.7043 46.1499 30.3749 45.4794 31.2021 45.4794C32.0292 45.4794 32.6998 46.1499 32.6998 46.9771Z" fill="#67707B"/>
<path d="M38.6911 34.9953C38.6911 35.8224 38.0206 36.493 37.1934 36.493C36.3662 36.493 35.6957 35.8224 35.6957 34.9953C35.6957 34.1681 36.3662 33.4976 37.1934 33.4976C38.0206 33.4976 38.6911 34.1681 38.6911 34.9953Z" fill="#67707B"/>
<path d="M38.6911 40.9862C38.6911 41.8134 38.0206 42.484 37.1934 42.484C36.3662 42.484 35.6957 41.8134 35.6957 40.9862C35.6957 40.1591 36.3662 39.4885 37.1934 39.4885C38.0206 39.4885 38.6911 40.1591 38.6911 40.9862Z" fill="#67707B"/>
<path d="M38.6911 46.9771C38.6911 47.8042 38.0206 48.4748 37.1934 48.4748C36.3662 48.4748 35.6957 47.8042 35.6957 46.9771C35.6957 46.1499 36.3662 45.4794 37.1934 45.4794C38.0206 45.4794 38.6911 46.1499 38.6911 46.9771Z" fill="#67707B"/>
<path d="M50.5895 24.0123L59.9086 32.0001L50.5895 39.9879L50.5895 24.0123Z" fill="white"/>
<path fill-rule="evenodd" clip-rule="evenodd" d="M47.9269 18.2231L63.9999 32L47.9269 45.7769L47.9269 18.2231ZM50.5895 24.0121L50.5895 39.9878L59.9086 32L50.5895 24.0121Z" fill="black"/>
</svg>
