<svg width="32" height="32" viewBox="0 0 32 32" fill="none" xmlns="http://www.w3.org/2000/svg">
<path d="M6 22C2.68629 22 0 19.3137 0 16C0 12.6863 2.68629 10 6 10H26C29.3137 10 32 12.6863 32 16C32 19.3137 29.3137 22 26 22H6Z" fill="#0E141B"/>
<path d="M7.1713 13.698C7.4633 13.698 7.7353 13.74 7.9873 13.824C8.2393 13.904 8.4473 14.004 8.6113 14.124L8.1733 14.898C8.0293 14.794 7.8653 14.71 7.6813 14.646C7.5013 14.582 7.3333 14.55 7.1773 14.55C7.0133 14.55 6.8853 14.584 6.7933 14.652C6.7013 14.716 6.6553 14.804 6.6553 14.916C6.6553 15.036 6.7133 15.132 6.8293 15.204C6.9493 15.272 7.1353 15.348 7.3873 15.432C7.6633 15.528 7.8853 15.618 8.0533 15.702C8.2253 15.786 8.3753 15.912 8.5033 16.08C8.6313 16.244 8.6953 16.458 8.6953 16.722C8.6953 17.002 8.6213 17.244 8.4733 17.448C8.3293 17.652 8.1273 17.808 7.8673 17.916C7.6113 18.02 7.3173 18.072 6.9853 18.072C6.7173 18.072 6.4473 18.038 6.1753 17.97C5.9073 17.902 5.6693 17.806 5.4613 17.682L5.7733 16.818C6.2133 17.046 6.6233 17.16 7.0033 17.16C7.1913 17.16 7.3333 17.124 7.4293 17.052C7.5253 16.98 7.5733 16.886 7.5733 16.77C7.5733 16.654 7.5193 16.564 7.4113 16.5C7.3033 16.432 7.1353 16.364 6.9073 16.296C6.6113 16.204 6.3753 16.118 6.1993 16.038C6.0233 15.954 5.8713 15.828 5.7433 15.66C5.6153 15.488 5.5513 15.262 5.5513 14.982C5.5513 14.718 5.6193 14.49 5.7553 14.298C5.8913 14.102 6.0813 13.954 6.3253 13.854C6.5693 13.75 6.8513 13.698 7.1713 13.698Z" fill="white"/>
<path d="M12.3385 15.468V13.8H13.3705V18H12.3385V16.356H10.5925V18H9.55454V13.8H10.5925V15.468H12.3385Z" fill="white"/>
<path d="M18.3633 18H17.2413L16.9953 17.28H15.4653L15.2253 18H14.1393L15.7173 13.8H16.7253L18.3633 18ZM16.2153 15.018L15.7353 16.464H16.7133L16.2153 15.018Z" fill="white"/>
<path d="M22.7067 18H21.5547L20.7567 16.668H20.6667H20.1687V18H19.1307V13.8H20.7627C21.3627 13.8 21.8067 13.918 22.0947 14.154C22.3827 14.39 22.5267 14.722 22.5267 15.15C22.5267 15.474 22.4567 15.746 22.3167 15.966C22.1807 16.182 21.9887 16.346 21.7407 16.458L22.7067 18ZM20.1687 14.688V15.78H20.7327C20.9447 15.78 21.1107 15.732 21.2307 15.636C21.3547 15.536 21.4167 15.392 21.4167 15.204C21.4167 15.032 21.3607 14.904 21.2487 14.82C21.1367 14.732 20.9587 14.688 20.7147 14.688H20.1687Z" fill="white"/>
<path d="M23.4588 13.8H26.3688V14.688H24.4968V15.444H26.0868V16.326H24.4968V17.112H26.3688V18H23.4588V13.8Z" fill="white"/>
</svg>
