<svg width="64" height="64" viewBox="0 0 64 64" fill="none" xmlns="http://www.w3.org/2000/svg">
<path d="M4 18C4 16.8954 4.89543 16 6 16H58C59.1046 16 60 16.8954 60 18V40C60 44.4183 56.4183 48 52 48H12C7.58172 48 4 44.4183 4 40V18Z" fill="black"/>
<path d="M35 26C35 26.5523 34.5523 27 34 27C33.4477 27 33 26.5523 33 26C33 25.4477 33.4477 25 34 25C34.5523 25 35 25.4477 35 26Z" fill="#67707B"/>
<path d="M31 26C31 26.5523 30.5523 27 30 27C29.4477 27 29 26.5523 29 26C29 25.4477 29.4477 25 30 25C30.5523 25 31 25.4477 31 26Z" fill="#67707B"/>
<path d="M35 30C35 30.5523 34.5523 31 34 31C33.4477 31 33 30.5523 33 30C33 29.4477 33.4477 29 34 29C34.5523 29 35 29.4477 35 30Z" fill="#67707B"/>
<path d="M31 30C31 30.5523 30.5523 31 30 31C29.4477 31 29 30.5523 29 30C29 29.4477 29.4477 29 30 29C30.5523 29 31 29.4477 31 30Z" fill="#67707B"/>
<path d="M35 34C35 34.5523 34.5523 35 34 35C33.4477 35 33 34.5523 33 34C33 33.4477 33.4477 33 34 33C34.5523 33 35 33.4477 35 34Z" fill="#67707B"/>
<path d="M35 38C35 38.5523 34.5523 39 34 39C33.4477 39 33 38.5523 33 38C33 37.4477 33.4477 37 34 37C34.5523 37 35 37.4477 35 38Z" fill="#67707B"/>
<path d="M35 42C35 42.5523 34.5523 43 34 43C33.4477 43 33 42.5523 33 42C33 41.4477 33.4477 41 34 41C34.5523 41 35 41.4477 35 42Z" fill="#67707B"/>
<path d="M27 42C27 42.5523 26.5523 43 26 43C25.4477 43 25 42.5523 25 42C25 41.4477 25.4477 41 26 41C26.5523 41 27 41.4477 27 42Z" fill="#67707B"/>
<path d="M39 42C39 42.5523 38.5523 43 38 43C37.4477 43 37 42.5523 37 42C37 41.4477 37.4477 41 38 41C38.5523 41 39 41.4477 39 42Z" fill="#67707B"/>
<path d="M31 34C31 34.5523 30.5523 35 30 35C29.4477 35 29 34.5523 29 34C29 33.4477 29.4477 33 30 33C30.5523 33 31 33.4477 31 34Z" fill="#67707B"/>
<path d="M31 38C31 38.5523 30.5523 39 30 39C29.4477 39 29 38.5523 29 38C29 37.4477 29.4477 37 30 37C30.5523 37 31 37.4477 31 38Z" fill="#67707B"/>
<path d="M31 42C31 42.5523 30.5523 43 30 43C29.4477 43 29 42.5523 29 42C29 41.4477 29.4477 41 30 41C30.5523 41 31 41.4477 31 42Z" fill="#67707B"/>
<path d="M4 18C4 16.8954 4.89543 16 6 16H58C59.1046 16 60 16.8954 60 18V40C60 44.4183 56.4183 48 52 48H12C7.58172 48 4 44.4183 4 40V18Z" fill="black"/>
<path d="M35 26C35 26.5523 34.5523 27 34 27C33.4477 27 33 26.5523 33 26C33 25.4477 33.4477 25 34 25C34.5523 25 35 25.4477 35 26Z" fill="#67707B"/>
<path d="M31 26C31 26.5523 30.5523 27 30 27C29.4477 27 29 26.5523 29 26C29 25.4477 29.4477 25 30 25C30.5523 25 31 25.4477 31 26Z" fill="#67707B"/>
<path d="M35 30C35 30.5523 34.5523 31 34 31C33.4477 31 33 30.5523 33 30C33 29.4477 33.4477 29 34 29C34.5523 29 35 29.4477 35 30Z" fill="#67707B"/>
<path d="M31 30C31 30.5523 30.5523 31 30 31C29.4477 31 29 30.5523 29 30C29 29.4477 29.4477 29 30 29C30.5523 29 31 29.4477 31 30Z" fill="#67707B"/>
<path d="M35 34C35 34.5523 34.5523 35 34 35C33.4477 35 33 34.5523 33 34C33 33.4477 33.4477 33 34 33C34.5523 33 35 33.4477 35 34Z" fill="#67707B"/>
<path d="M35 38C35 38.5523 34.5523 39 34 39C33.4477 39 33 38.5523 33 38C33 37.4477 33.4477 37 34 37C34.5523 37 35 37.4477 35 38Z" fill="#67707B"/>
<path d="M35 42C35 42.5523 34.5523 43 34 43C33.4477 43 33 42.5523 33 42C33 41.4477 33.4477 41 34 41C34.5523 41 35 41.4477 35 42Z" fill="#67707B"/>
<path d="M27 42C27 42.5523 26.5523 43 26 43C25.4477 43 25 42.5523 25 42C25 41.4477 25.4477 41 26 41C26.5523 41 27 41.4477 27 42Z" fill="#67707B"/>
<path d="M39 42C39 42.5523 38.5523 43 38 43C37.4477 43 37 42.5523 37 42C37 41.4477 37.4477 41 38 41C38.5523 41 39 41.4477 39 42Z" fill="#67707B"/>
<path d="M31 34C31 34.5523 30.5523 35 30 35C29.4477 35 29 34.5523 29 34C29 33.4477 29.4477 33 30 33C30.5523 33 31 33.4477 31 34Z" fill="#67707B"/>
<path d="M31 38C31 38.5523 30.5523 39 30 39C29.4477 39 29 38.5523 29 38C29 37.4477 29.4477 37 30 37C30.5523 37 31 37.4477 31 38Z" fill="#67707B"/>
<path d="M31 42C31 42.5523 30.5523 43 30 43C29.4477 43 29 42.5523 29 42C29 41.4477 29.4477 41 30 41C30.5523 41 31 41.4477 31 42Z" fill="#67707B"/>
<path d="M47.5933 25.0076L52.611 29.876H41V34.124H52.611L47.5933 38.9924L50.6932 42L61 32L50.6932 22L47.5933 25.0076Z" fill="white"/>
<path fill-rule="evenodd" clip-rule="evenodd" d="M44.7211 25.0076L50.6932 19.2133L63.8721 32L50.6932 44.7866L44.7211 38.9923L47.6775 36.124H39V27.8759H47.6775L44.7211 25.0076ZM52.611 29.8759H41V34.124H52.611L47.5933 38.9923L50.6932 42L61 32L50.6932 22L47.5933 25.0076L52.611 29.8759Z" fill="black"/>
<path d="M16.4067 25.0076L11.389 29.876H23V34.124H11.389L16.4067 38.9924L13.3068 42L3 32L13.3068 22L16.4067 25.0076Z" fill="white"/>
<path fill-rule="evenodd" clip-rule="evenodd" d="M19.2789 25.0076L13.3068 19.2133L0.127859 32L13.3068 44.7866L19.2789 38.9923L16.3225 36.124H25V27.8759H16.3225L19.2789 25.0076ZM11.389 29.8759H23V34.124H11.389L16.4067 38.9923L13.3068 42L3 32L13.3068 22L16.4067 25.0076L11.389 29.8759Z" fill="black"/>
</svg>
