<svg width="32" height="32" viewBox="0 0 32 32" fill="none" xmlns="http://www.w3.org/2000/svg">
<g clip-path="url(#clip0_1967_20067)">
<path d="M5.07544 0H25.7328C26.5809 0 27.2683 0.687471 27.2683 1.53551V16.8906C27.2683 20.2827 24.5185 23.0326 21.1263 23.0326H5.07544V0Z" fill="#0E141B"/>
<path d="M17.9113 7.19767C17.9113 7.59519 17.5891 7.91744 17.1916 7.91744C16.7941 7.91744 16.4718 7.59519 16.4718 7.19767C16.4718 6.80016 16.7941 6.47791 17.1916 6.47791C17.5891 6.47791 17.9113 6.80016 17.9113 7.19767Z" fill="#67707B"/>
<path d="M15.0322 7.19767C15.0322 7.59519 14.7099 7.91744 14.3124 7.91744C13.9149 7.91744 13.5927 7.59519 13.5927 7.19767C13.5927 6.80016 13.9149 6.47791 14.3124 6.47791C14.7099 6.47791 15.0322 6.80016 15.0322 7.19767Z" fill="#67707B"/>
<path d="M12.153 7.19767C12.153 7.59519 11.8308 7.91744 11.4333 7.91744C11.0358 7.91744 10.7135 7.59519 10.7135 7.19767C10.7135 6.80016 11.0358 6.47791 11.4333 6.47791C11.8308 6.47791 12.153 6.80016 12.153 7.19767Z" fill="#67707B"/>
<path d="M9.27413 7.19767C9.27413 7.59519 8.95188 7.91744 8.55436 7.91744C8.15685 7.91744 7.83459 7.59519 7.83459 7.19767C7.83459 6.80016 8.15685 6.47791 8.55436 6.47791C8.95188 6.47791 9.27413 6.80016 9.27413 7.19767Z" fill="#67707B"/>
<path d="M20.7902 7.19767C20.7902 7.59519 20.468 7.91744 20.0705 7.91744C19.673 7.91744 19.3507 7.59519 19.3507 7.19767C19.3507 6.80016 19.673 6.47791 20.0705 6.47791C20.468 6.47791 20.7902 6.80016 20.7902 7.19767Z" fill="#67707B"/>
<path d="M23.6695 7.19767C23.6695 7.59519 23.3473 7.91744 22.9498 7.91744C22.5522 7.91744 22.23 7.59519 22.23 7.19767C22.23 6.80016 22.5522 6.47791 22.9498 6.47791C23.3473 6.47791 23.6695 6.80016 23.6695 7.19767Z" fill="#67707B"/>
<path d="M17.9113 10.0767C17.9113 10.4742 17.5891 10.7965 17.1916 10.7965C16.7941 10.7965 16.4718 10.4742 16.4718 10.0767C16.4718 9.67919 16.7941 9.35693 17.1916 9.35693C17.5891 9.35693 17.9113 9.67919 17.9113 10.0767Z" fill="#67707B"/>
<path d="M15.0322 10.0767C15.0322 10.4742 14.7099 10.7965 14.3124 10.7965C13.9149 10.7965 13.5927 10.4742 13.5927 10.0767C13.5927 9.67919 13.9149 9.35693 14.3124 9.35693C14.7099 9.35693 15.0322 9.67919 15.0322 10.0767Z" fill="#67707B"/>
<path d="M12.153 10.0767C12.153 10.4742 11.8308 10.7965 11.4333 10.7965C11.0358 10.7965 10.7135 10.4742 10.7135 10.0767C10.7135 9.67919 11.0358 9.35693 11.4333 9.35693C11.8308 9.35693 12.153 9.67919 12.153 10.0767Z" fill="#67707B"/>
<path d="M9.27413 10.0767C9.27413 10.4742 8.95188 10.7965 8.55436 10.7965C8.15685 10.7965 7.83459 10.4742 7.83459 10.0767C7.83459 9.67919 8.15685 9.35693 8.55436 9.35693C8.95188 9.35693 9.27413 9.67919 9.27413 10.0767Z" fill="#67707B"/>
<path d="M20.7902 10.0767C20.7902 10.4742 20.468 10.7965 20.0705 10.7965C19.673 10.7965 19.3507 10.4742 19.3507 10.0767C19.3507 9.67919 19.673 9.35693 20.0705 9.35693C20.468 9.35693 20.7902 9.67919 20.7902 10.0767Z" fill="#67707B"/>
<path d="M23.6695 10.0767C23.6695 10.4742 23.3473 10.7965 22.9498 10.7965C22.5522 10.7965 22.23 10.4742 22.23 10.0767C22.23 9.67919 22.5522 9.35693 22.9498 9.35693C23.3473 9.35693 23.6695 9.67919 23.6695 10.0767Z" fill="#67707B"/>
<path d="M17.9113 12.9557C17.9113 13.3532 17.5891 13.6755 17.1916 13.6755C16.7941 13.6755 16.4718 13.3532 16.4718 12.9557C16.4718 12.5582 16.7941 12.236 17.1916 12.236C17.5891 12.236 17.9113 12.5582 17.9113 12.9557Z" fill="#67707B"/>
<path d="M15.0322 12.9557C15.0322 13.3532 14.7099 13.6755 14.3124 13.6755C13.9149 13.6755 13.5927 13.3532 13.5927 12.9557C13.5927 12.5582 13.9149 12.236 14.3124 12.236C14.7099 12.236 15.0322 12.5582 15.0322 12.9557Z" fill="#67707B"/>
<path d="M12.153 12.9557C12.153 13.3532 11.8308 13.6755 11.4333 13.6755C11.0358 13.6755 10.7135 13.3532 10.7135 12.9557C10.7135 12.5582 11.0358 12.236 11.4333 12.236C11.8308 12.236 12.153 12.5582 12.153 12.9557Z" fill="#67707B"/>
<path d="M9.27413 12.9557C9.27413 13.3532 8.95188 13.6755 8.55436 13.6755C8.15685 13.6755 7.83459 13.3532 7.83459 12.9557C7.83459 12.5582 8.15685 12.236 8.55436 12.236C8.95188 12.236 9.27413 12.5582 9.27413 12.9557Z" fill="#67707B"/>
<path d="M17.9113 15.8349C17.9113 16.2324 17.5891 16.5547 17.1916 16.5547C16.7941 16.5547 16.4718 16.2324 16.4718 15.8349C16.4718 15.4374 16.7941 15.1151 17.1916 15.1151C17.5891 15.1151 17.9113 15.4374 17.9113 15.8349Z" fill="#67707B"/>
<path d="M15.0322 15.8349C15.0322 16.2324 14.7099 16.5547 14.3124 16.5547C13.9149 16.5547 13.5927 16.2324 13.5927 15.8349C13.5927 15.4374 13.9149 15.1151 14.3124 15.1151C14.7099 15.1151 15.0322 15.4374 15.0322 15.8349Z" fill="#67707B"/>
<path d="M12.153 15.8349C12.153 16.2324 11.8308 16.5547 11.4333 16.5547C11.0358 16.5547 10.7135 16.2324 10.7135 15.8349C10.7135 15.4374 11.0358 15.1151 11.4333 15.1151C11.8308 15.1151 12.153 15.4374 12.153 15.8349Z" fill="#67707B"/>
<path d="M9.27413 15.8349C9.27413 16.2324 8.95188 16.5547 8.55436 16.5547C8.15685 16.5547 7.83459 16.2324 7.83459 15.8349C7.83459 15.4374 8.15685 15.1151 8.55436 15.1151C8.95188 15.1151 9.27413 15.4374 9.27413 15.8349Z" fill="#67707B"/>
<path d="M17.9113 18.714C17.9113 19.1115 17.5891 19.4338 17.1916 19.4338C16.7941 19.4338 16.4718 19.1115 16.4718 18.714C16.4718 18.3165 16.7941 17.9943 17.1916 17.9943C17.5891 17.9943 17.9113 18.3165 17.9113 18.714Z" fill="#67707B"/>
<path d="M15.0322 18.714C15.0322 19.1115 14.7099 19.4338 14.3124 19.4338C13.9149 19.4338 13.5927 19.1115 13.5927 18.714C13.5927 18.3165 13.9149 17.9943 14.3124 17.9943C14.7099 17.9943 15.0322 18.3165 15.0322 18.714Z" fill="#67707B"/>
<path d="M12.153 18.714C12.153 19.1115 11.8308 19.4338 11.4333 19.4338C11.0358 19.4338 10.7135 19.1115 10.7135 18.714C10.7135 18.3165 11.0358 17.9943 11.4333 17.9943C11.8308 17.9943 12.153 18.3165 12.153 18.714Z" fill="#67707B"/>
<path d="M9.27413 18.714C9.27413 19.1115 8.95188 19.4338 8.55436 19.4338C8.15685 19.4338 7.83459 19.1115 7.83459 18.714C7.83459 18.3165 8.15685 17.9943 8.55436 17.9943C8.95188 17.9943 9.27413 18.3165 9.27413 18.714Z" fill="#67707B"/>
<path d="M20.7902 12.9557C20.7902 13.3532 20.468 13.6755 20.0705 13.6755C19.673 13.6755 19.3507 13.3532 19.3507 12.9557C19.3507 12.5582 19.673 12.236 20.0705 12.236C20.468 12.236 20.7902 12.5582 20.7902 12.9557Z" fill="#67707B"/>
<path d="M20.7902 15.8349C20.7902 16.2324 20.468 16.5547 20.0705 16.5547C19.673 16.5547 19.3507 16.2324 19.3507 15.8349C19.3507 15.4374 19.673 15.1151 20.0705 15.1151C20.468 15.1151 20.7902 15.4374 20.7902 15.8349Z" fill="#67707B"/>
<path d="M20.7902 18.714C20.7902 19.1115 20.468 19.4338 20.0705 19.4338C19.673 19.4338 19.3507 19.1115 19.3507 18.714C19.3507 18.3165 19.673 17.9943 20.0705 17.9943C20.468 17.9943 20.7902 18.3165 20.7902 18.714Z" fill="#67707B"/>
<path d="M23.6695 12.9557C23.6695 13.3532 23.3473 13.6755 22.9498 13.6755C22.5522 13.6755 22.23 13.3532 22.23 12.9557C22.23 12.5582 22.5522 12.236 22.9498 12.236C23.3473 12.236 23.6695 12.5582 23.6695 12.9557Z" fill="#67707B"/>
<path d="M23.6695 15.8349C23.6695 16.2324 23.3473 16.5547 22.9498 16.5547C22.5522 16.5547 22.23 16.2324 22.23 15.8349C22.23 15.4374 22.5522 15.1151 22.9498 15.1151C23.3473 15.1151 23.6695 15.4374 23.6695 15.8349Z" fill="#67707B"/>
<path d="M23.6695 18.714C23.6695 19.1115 23.3473 19.4338 22.9498 19.4338C22.5522 19.4338 22.23 19.1115 22.23 18.714C22.23 18.3165 22.5522 17.9943 22.9498 17.9943C23.3473 17.9943 23.6695 18.3165 23.6695 18.714Z" fill="#67707B"/>
<path d="M20.4305 25.5918L16.5917 30.0704L12.7529 25.5918H20.4305Z" fill="white"/>
<path fill-rule="evenodd" clip-rule="evenodd" d="M23.2127 24.3123L16.5918 32.0366L9.97095 24.3123H23.2127ZM20.4306 25.5918H12.7531L16.5918 30.0704L20.4306 25.5918Z" fill="#0E141B"/>
</g>
<defs>
<clipPath id="clip0_1967_20067">
<rect width="32" height="32" fill="white"/>
</clipPath>
</defs>
</svg>
