<svg width="64" height="64" viewBox="0 0 64 64" fill="none" xmlns="http://www.w3.org/2000/svg">
<path d="M0 27.5C0 18.6634 7.16344 11.5 16 11.5H48C56.8366 11.5 64 18.6634 64 27.5V51.5H0V27.5Z" fill="black"/>
<path d="M32.5442 40H28.181L25.1585 35.2429H24.8176H22.9314V40H19V25H25.1812C27.4537 25 29.1354 25.4214 30.2262 26.2643C31.317 27.1071 31.8624 28.2929 31.8624 29.8214C31.8624 30.9786 31.5973 31.95 31.067 32.7357C30.5519 33.5071 29.8247 34.0929 28.8854 34.4929L32.5442 40ZM22.9314 28.1714V32.0714H25.0676C25.8706 32.0714 26.4993 31.9 26.9538 31.5571C27.4234 31.2 27.6583 30.6857 27.6583 30.0143C27.6583 29.4 27.4462 28.9429 27.022 28.6429C26.5978 28.3286 25.9236 28.1714 24.9994 28.1714H22.9314Z" fill="white"/>
<path d="M44.023 25V36.8286H47V40H36.3419V36.8286H40.0234V29.0929L36.8646 30.2714L35.6147 27.5071L40.9778 25H44.023Z" fill="white"/>
</svg>
