<svg width="64" height="64" viewBox="0 0 64 64" fill="none" xmlns="http://www.w3.org/2000/svg">
<g clip-path="url(#clip0_1967:19999)">
<path d="M50.5895 24.0123L59.9086 32.0001L50.5895 39.9879L50.5895 24.0123Z" fill="white"/>
<path fill-rule="evenodd" clip-rule="evenodd" d="M47.9269 18.223L63.9999 31.9999L47.9269 45.7769L47.9269 18.223ZM50.5895 24.0121L50.5895 39.9878L59.9086 31.9999L50.5895 24.0121Z" fill="black"/>
<path d="M46.1796 8.0365H3.19513C1.43051 8.0365 0 9.46701 0 11.2316V43.1829C0 50.2414 5.72203 55.9634 12.7805 55.9634H46.1796V8.0365Z" fill="black"/>
<path d="M19.4703 23.0137C19.4703 23.8409 20.1408 24.5114 20.968 24.5114C21.7951 24.5114 22.4657 23.8409 22.4657 23.0137C22.4657 22.1865 21.7951 21.516 20.968 21.516C20.1408 21.516 19.4703 22.1865 19.4703 23.0137Z" fill="#67707B"/>
<path d="M25.4612 23.0137C25.4612 23.8409 26.1318 24.5114 26.9589 24.5114C27.7861 24.5114 28.4567 23.8409 28.4567 23.0137C28.4567 22.1865 27.7861 21.516 26.9589 21.516C26.1318 21.516 25.4612 22.1865 25.4612 23.0137Z" fill="#67707B"/>
<path d="M31.4521 23.0137C31.4521 23.8409 32.1226 24.5114 32.9498 24.5114C33.777 24.5114 34.4475 23.8409 34.4475 23.0137C34.4475 22.1865 33.777 21.516 32.9498 21.516C32.1226 21.516 31.4521 22.1865 31.4521 23.0137Z" fill="#67707B"/>
<path d="M37.4427 23.0137C37.4427 23.8409 38.1132 24.5114 38.9404 24.5114C39.7676 24.5114 40.4381 23.8409 40.4381 23.0137C40.4381 22.1865 39.7676 21.516 38.9404 21.516C38.1132 21.516 37.4427 22.1865 37.4427 23.0137Z" fill="#67707B"/>
<path d="M13.4797 23.0137C13.4797 23.8409 14.1502 24.5114 14.9774 24.5114C15.8045 24.5114 16.4751 23.8409 16.4751 23.0137C16.4751 22.1865 15.8045 21.516 14.9774 21.516C14.1502 21.516 13.4797 22.1865 13.4797 23.0137Z" fill="#67707B"/>
<path d="M7.48846 23.0137C7.48846 23.8409 8.15901 24.5114 8.98617 24.5114C9.81334 24.5114 10.4839 23.8409 10.4839 23.0137C10.4839 22.1865 9.81334 21.516 8.98617 21.516C8.15901 21.516 7.48846 22.1865 7.48846 23.0137Z" fill="#67707B"/>
<path d="M19.4703 29.0044C19.4703 29.8316 20.1408 30.5021 20.968 30.5021C21.7951 30.5021 22.4657 29.8316 22.4657 29.0044C22.4657 28.1773 21.7951 27.5067 20.968 27.5067C20.1408 27.5067 19.4703 28.1773 19.4703 29.0044Z" fill="#67707B"/>
<path d="M25.4612 29.0044C25.4612 29.8316 26.1318 30.5021 26.9589 30.5021C27.7861 30.5021 28.4567 29.8316 28.4567 29.0044C28.4567 28.1773 27.7861 27.5067 26.9589 27.5067C26.1318 27.5067 25.4612 28.1773 25.4612 29.0044Z" fill="#67707B"/>
<path d="M31.4521 29.0044C31.4521 29.8316 32.1226 30.5021 32.9498 30.5021C33.777 30.5021 34.4475 29.8316 34.4475 29.0044C34.4475 28.1773 33.777 27.5067 32.9498 27.5067C32.1226 27.5067 31.4521 28.1773 31.4521 29.0044Z" fill="#67707B"/>
<path d="M37.4427 29.0044C37.4427 29.8316 38.1132 30.5021 38.9404 30.5021C39.7676 30.5021 40.4381 29.8316 40.4381 29.0044C40.4381 28.1773 39.7676 27.5067 38.9404 27.5067C38.1132 27.5067 37.4427 28.1773 37.4427 29.0044Z" fill="#67707B"/>
<path d="M13.4797 29.0044C13.4797 29.8316 14.1502 30.5021 14.9774 30.5021C15.8045 30.5021 16.4751 29.8316 16.4751 29.0044C16.4751 28.1773 15.8045 27.5067 14.9774 27.5067C14.1502 27.5067 13.4797 28.1773 13.4797 29.0044Z" fill="#67707B"/>
<path d="M7.48846 29.0044C7.48846 29.8316 8.15901 30.5021 8.98617 30.5021C9.81334 30.5021 10.4839 29.8316 10.4839 29.0044C10.4839 28.1773 9.81334 27.5067 8.98617 27.5067C8.15901 27.5067 7.48846 28.1773 7.48846 29.0044Z" fill="#67707B"/>
<path d="M19.4703 34.9954C19.4703 35.8226 20.1408 36.4931 20.968 36.4931C21.7951 36.4931 22.4657 35.8226 22.4657 34.9954C22.4657 34.1682 21.7951 33.4977 20.968 33.4977C20.1408 33.4977 19.4703 34.1682 19.4703 34.9954Z" fill="#67707B"/>
<path d="M25.4612 34.9954C25.4612 35.8226 26.1318 36.4931 26.9589 36.4931C27.7861 36.4931 28.4567 35.8226 28.4567 34.9954C28.4567 34.1682 27.7861 33.4977 26.9589 33.4977C26.1318 33.4977 25.4612 34.1682 25.4612 34.9954Z" fill="#67707B"/>
<path d="M31.4521 34.9954C31.4521 35.8226 32.1226 36.4931 32.9498 36.4931C33.777 36.4931 34.4475 35.8226 34.4475 34.9954C34.4475 34.1682 33.777 33.4977 32.9498 33.4977C32.1226 33.4977 31.4521 34.1682 31.4521 34.9954Z" fill="#67707B"/>
<path d="M37.4427 34.9954C37.4427 35.8226 38.1132 36.4931 38.9404 36.4931C39.7676 36.4931 40.4381 35.8226 40.4381 34.9954C40.4381 34.1682 39.7676 33.4977 38.9404 33.4977C38.1132 33.4977 37.4427 34.1682 37.4427 34.9954Z" fill="#67707B"/>
<path d="M19.4703 40.9862C19.4703 41.8134 20.1408 42.484 20.968 42.484C21.7951 42.484 22.4657 41.8134 22.4657 40.9862C22.4657 40.1591 21.7951 39.4885 20.968 39.4885C20.1408 39.4885 19.4703 40.1591 19.4703 40.9862Z" fill="#67707B"/>
<path d="M25.4612 40.9862C25.4612 41.8134 26.1318 42.484 26.9589 42.484C27.7861 42.484 28.4567 41.8134 28.4567 40.9862C28.4567 40.1591 27.7861 39.4885 26.9589 39.4885C26.1318 39.4885 25.4612 40.1591 25.4612 40.9862Z" fill="#67707B"/>
<path d="M31.4521 40.9862C31.4521 41.8134 32.1226 42.484 32.9498 42.484C33.777 42.484 34.4475 41.8134 34.4475 40.9862C34.4475 40.1591 33.777 39.4885 32.9498 39.4885C32.1226 39.4885 31.4521 40.1591 31.4521 40.9862Z" fill="#67707B"/>
<path d="M37.4427 40.9862C37.4427 41.8134 38.1132 42.484 38.9404 42.484C39.7676 42.484 40.4381 41.8134 40.4381 40.9862C40.4381 40.1591 39.7676 39.4885 38.9404 39.4885C38.1132 39.4885 37.4427 40.1591 37.4427 40.9862Z" fill="#67707B"/>
<path d="M19.4703 46.9772C19.4703 47.8044 20.1408 48.4749 20.968 48.4749C21.7951 48.4749 22.4657 47.8044 22.4657 46.9772C22.4657 46.15 21.7951 45.4795 20.968 45.4795C20.1408 45.4795 19.4703 46.15 19.4703 46.9772Z" fill="#67707B"/>
<path d="M25.4612 46.9772C25.4612 47.8044 26.1318 48.4749 26.9589 48.4749C27.7861 48.4749 28.4567 47.8044 28.4567 46.9772C28.4567 46.15 27.7861 45.4795 26.9589 45.4795C26.1318 45.4795 25.4612 46.15 25.4612 46.9772Z" fill="#67707B"/>
<path d="M31.4521 46.9772C31.4521 47.8044 32.1226 48.4749 32.9498 48.4749C33.777 48.4749 34.4475 47.8044 34.4475 46.9772C34.4475 46.15 33.777 45.4795 32.9498 45.4795C32.1226 45.4795 31.4521 46.15 31.4521 46.9772Z" fill="#67707B"/>
<path d="M37.4427 46.9772C37.4427 47.8044 38.1132 48.4749 38.9404 48.4749C39.7676 48.4749 40.4381 47.8044 40.4381 46.9772C40.4381 46.15 39.7676 45.4795 38.9404 45.4795C38.1132 45.4795 37.4427 46.15 37.4427 46.9772Z" fill="#67707B"/>
<path d="M13.4797 34.9954C13.4797 35.8226 14.1502 36.4931 14.9774 36.4931C15.8045 36.4931 16.4751 35.8226 16.4751 34.9954C16.4751 34.1682 15.8045 33.4977 14.9774 33.4977C14.1502 33.4977 13.4797 34.1682 13.4797 34.9954Z" fill="#67707B"/>
<path d="M13.4797 40.9862C13.4797 41.8134 14.1502 42.484 14.9774 42.484C15.8045 42.484 16.4751 41.8134 16.4751 40.9862C16.4751 40.1591 15.8045 39.4885 14.9774 39.4885C14.1502 39.4885 13.4797 40.1591 13.4797 40.9862Z" fill="#67707B"/>
<path d="M13.4797 46.9772C13.4797 47.8044 14.1502 48.4749 14.9774 48.4749C15.8045 48.4749 16.4751 47.8044 16.4751 46.9772C16.4751 46.15 15.8045 45.4795 14.9774 45.4795C14.1502 45.4795 13.4797 46.15 13.4797 46.9772Z" fill="#67707B"/>
<path d="M7.48846 34.9954C7.48846 35.8226 8.15901 36.4931 8.98617 36.4931C9.81334 36.4931 10.4839 35.8226 10.4839 34.9954C10.4839 34.1682 9.81334 33.4977 8.98617 33.4977C8.15901 33.4977 7.48846 34.1682 7.48846 34.9954Z" fill="#67707B"/>
<path d="M7.48846 40.9862C7.48846 41.8134 8.15901 42.484 8.98617 42.484C9.81334 42.484 10.4839 41.8134 10.4839 40.9862C10.4839 40.1591 9.81334 39.4885 8.98617 39.4885C8.15901 39.4885 7.48846 40.1591 7.48846 40.9862Z" fill="#67707B"/>
<path d="M7.48846 46.9772C7.48846 47.8044 8.15901 48.4749 8.98617 48.4749C9.81334 48.4749 10.4839 47.8044 10.4839 46.9772C10.4839 46.15 9.81334 45.4795 8.98617 45.4795C8.15901 45.4795 7.48846 46.15 7.48846 46.9772Z" fill="#67707B"/>
</g>
<defs>
<clipPath id="clip0_1967:19999">
<rect width="64" height="64" fill="white"/>
</clipPath>
</defs>
</svg>
