<svg width="64" height="64" viewBox="0 0 64 64" fill="none" xmlns="http://www.w3.org/2000/svg">
<path d="M0 17.0646C0 15.8863 0.955253 14.931 2.13362 14.931H57.6077C58.786 14.931 59.7413 15.8863 59.7413 17.0646V40.5344C59.7413 45.2479 55.9203 49.0689 51.2068 49.0689H8.53447C3.82101 49.0689 0 45.2479 0 40.5344V17.0646Z" fill="black"/>
<circle cx="6.40079" cy="25.5992" r="1.06681" fill="#67707B"/>
<circle cx="6.40079" cy="29.8664" r="1.06681" fill="#67707B"/>
<circle cx="6.40079" cy="34.1336" r="1.06681" fill="#67707B"/>
<circle cx="6.40079" cy="38.4008" r="1.06681" fill="#67707B"/>
<circle cx="6.40079" cy="42.6681" r="1.06681" fill="#67707B"/>
<path d="M11.7349 25.5992C11.7349 26.1883 11.2573 26.666 10.6681 26.666C10.0789 26.666 9.60132 26.1883 9.60132 25.5992C9.60132 25.01 10.0789 24.5323 10.6681 24.5323C11.2573 24.5323 11.7349 25.01 11.7349 25.5992Z" fill="#67707B"/>
<path d="M16.0021 25.5992C16.0021 26.1883 15.5245 26.666 14.9353 26.666C14.3462 26.666 13.8685 26.1883 13.8685 25.5992C13.8685 25.01 14.3462 24.5323 14.9353 24.5323C15.5245 24.5323 16.0021 25.01 16.0021 25.5992Z" fill="#67707B"/>
<path d="M33.0711 25.5992C33.0711 26.1883 32.5935 26.666 32.0043 26.666C31.4151 26.666 30.9375 26.1883 30.9375 25.5992C30.9375 25.01 31.4151 24.5323 32.0043 24.5323C32.5935 24.5323 33.0711 25.01 33.0711 25.5992Z" fill="#67707B"/>
<path d="M20.2694 25.5992C20.2694 26.1883 19.7917 26.666 19.2026 26.666C18.6134 26.666 18.1357 26.1883 18.1357 25.5992C18.1357 25.01 18.6134 24.5323 19.2026 24.5323C19.7917 24.5323 20.2694 25.01 20.2694 25.5992Z" fill="#67707B"/>
<path d="M24.5366 25.5992C24.5366 26.1883 24.0589 26.666 23.4698 26.666C22.8806 26.666 22.403 26.1883 22.403 25.5992C22.403 25.01 22.8806 24.5323 23.4698 24.5323C24.0589 24.5323 24.5366 25.01 24.5366 25.5992Z" fill="#67707B"/>
<path d="M28.8038 25.5992C28.8038 26.1883 28.3262 26.666 27.737 26.666C27.1478 26.666 26.6702 26.1883 26.6702 25.5992C26.6702 25.01 27.1478 24.5323 27.737 24.5323C28.3262 24.5323 28.8038 25.01 28.8038 25.5992Z" fill="#67707B"/>
<path d="M11.7349 29.8664C11.7349 30.4556 11.2573 30.9332 10.6681 30.9332C10.0789 30.9332 9.60132 30.4556 9.60132 29.8664C9.60132 29.2772 10.0789 28.7996 10.6681 28.7996C11.2573 28.7996 11.7349 29.2772 11.7349 29.8664Z" fill="#67707B"/>
<path d="M16.0021 29.8664C16.0021 30.4556 15.5245 30.9332 14.9353 30.9332C14.3462 30.9332 13.8685 30.4556 13.8685 29.8664C13.8685 29.2772 14.3462 28.7996 14.9353 28.7996C15.5245 28.7996 16.0021 29.2772 16.0021 29.8664Z" fill="#67707B"/>
<path d="M33.0711 29.8664C33.0711 30.4556 32.5935 30.9332 32.0043 30.9332C31.4151 30.9332 30.9375 30.4556 30.9375 29.8664C30.9375 29.2772 31.4151 28.7996 32.0043 28.7996C32.5935 28.7996 33.0711 29.2772 33.0711 29.8664Z" fill="#67707B"/>
<path d="M20.2694 29.8664C20.2694 30.4556 19.7917 30.9332 19.2026 30.9332C18.6134 30.9332 18.1357 30.4556 18.1357 29.8664C18.1357 29.2772 18.6134 28.7996 19.2026 28.7996C19.7917 28.7996 20.2694 29.2772 20.2694 29.8664Z" fill="#67707B"/>
<path d="M24.5366 29.8664C24.5366 30.4556 24.0589 30.9332 23.4698 30.9332C22.8806 30.9332 22.403 30.4556 22.403 29.8664C22.403 29.2772 22.8806 28.7996 23.4698 28.7996C24.0589 28.7996 24.5366 29.2772 24.5366 29.8664Z" fill="#67707B"/>
<path d="M28.8038 29.8664C28.8038 30.4556 28.3262 30.9332 27.737 30.9332C27.1478 30.9332 26.6702 30.4556 26.6702 29.8664C26.6702 29.2772 27.1478 28.7996 27.737 28.7996C28.3262 28.7996 28.8038 29.2772 28.8038 29.8664Z" fill="#67707B"/>
<path d="M11.7349 34.1336C11.7349 34.7228 11.2573 35.2004 10.6681 35.2004C10.0789 35.2004 9.60132 34.7228 9.60132 34.1336C9.60132 33.5444 10.0789 33.0668 10.6681 33.0668C11.2573 33.0668 11.7349 33.5444 11.7349 34.1336Z" fill="#67707B"/>
<path d="M11.7349 38.4008C11.7349 38.99 11.2573 39.4676 10.6681 39.4676C10.0789 39.4676 9.60132 38.99 9.60132 38.4008C9.60132 37.8116 10.0789 37.334 10.6681 37.334C11.2573 37.334 11.7349 37.8116 11.7349 38.4008Z" fill="#67707B"/>
<path d="M11.7349 42.6681C11.7349 43.2573 11.2573 43.7349 10.6681 43.7349C10.0789 43.7349 9.60132 43.2573 9.60132 42.6681C9.60132 42.0789 10.0789 41.6013 10.6681 41.6013C11.2573 41.6013 11.7349 42.0789 11.7349 42.6681Z" fill="#67707B"/>
<path d="M16.0021 34.1336C16.0021 34.7228 15.5245 35.2004 14.9353 35.2004C14.3462 35.2004 13.8685 34.7228 13.8685 34.1336C13.8685 33.5444 14.3462 33.0668 14.9353 33.0668C15.5245 33.0668 16.0021 33.5444 16.0021 34.1336Z" fill="#67707B"/>
<path d="M33.0711 34.1336C33.0711 34.7228 32.5935 35.2004 32.0043 35.2004C31.4151 35.2004 30.9375 34.7228 30.9375 34.1336C30.9375 33.5444 31.4151 33.0668 32.0043 33.0668C32.5935 33.0668 33.0711 33.5444 33.0711 34.1336Z" fill="#67707B"/>
<path d="M16.0021 38.4008C16.0021 38.99 15.5245 39.4676 14.9353 39.4676C14.3462 39.4676 13.8685 38.99 13.8685 38.4008C13.8685 37.8116 14.3462 37.334 14.9353 37.334C15.5245 37.334 16.0021 37.8116 16.0021 38.4008Z" fill="#67707B"/>
<path d="M33.0711 38.4008C33.0711 38.99 32.5935 39.4676 32.0043 39.4676C31.4151 39.4676 30.9375 38.99 30.9375 38.4008C30.9375 37.8116 31.4151 37.334 32.0043 37.334C32.5935 37.334 33.0711 37.8116 33.0711 38.4008Z" fill="#67707B"/>
<path d="M16.0021 42.6681C16.0021 43.2573 15.5245 43.7349 14.9353 43.7349C14.3462 43.7349 13.8685 43.2573 13.8685 42.6681C13.8685 42.0789 14.3462 41.6013 14.9353 41.6013C15.5245 41.6013 16.0021 42.0789 16.0021 42.6681Z" fill="#67707B"/>
<path d="M33.0711 42.6681C33.0711 43.2573 32.5935 43.7349 32.0043 43.7349C31.4151 43.7349 30.9375 43.2573 30.9375 42.6681C30.9375 42.0789 31.4151 41.6013 32.0043 41.6013C32.5935 41.6013 33.0711 42.0789 33.0711 42.6681Z" fill="#67707B"/>
<path d="M20.2694 34.1336C20.2694 34.7228 19.7917 35.2004 19.2026 35.2004C18.6134 35.2004 18.1357 34.7228 18.1357 34.1336C18.1357 33.5444 18.6134 33.0668 19.2026 33.0668C19.7917 33.0668 20.2694 33.5444 20.2694 34.1336Z" fill="#67707B"/>
<path d="M20.2694 38.4008C20.2694 38.99 19.7917 39.4676 19.2026 39.4676C18.6134 39.4676 18.1357 38.99 18.1357 38.4008C18.1357 37.8116 18.6134 37.334 19.2026 37.334C19.7917 37.334 20.2694 37.8116 20.2694 38.4008Z" fill="#67707B"/>
<path d="M20.2694 42.6681C20.2694 43.2573 19.7917 43.7349 19.2026 43.7349C18.6134 43.7349 18.1357 43.2573 18.1357 42.6681C18.1357 42.0789 18.6134 41.6013 19.2026 41.6013C19.7917 41.6013 20.2694 42.0789 20.2694 42.6681Z" fill="#67707B"/>
<path d="M24.5366 34.1336C24.5366 34.7228 24.0589 35.2004 23.4698 35.2004C22.8806 35.2004 22.403 34.7228 22.403 34.1336C22.403 33.5444 22.8806 33.0668 23.4698 33.0668C24.0589 33.0668 24.5366 33.5444 24.5366 34.1336Z" fill="#67707B"/>
<path d="M24.5366 38.4008C24.5366 38.99 24.0589 39.4676 23.4698 39.4676C22.8806 39.4676 22.403 38.99 22.403 38.4008C22.403 37.8116 22.8806 37.334 23.4698 37.334C24.0589 37.334 24.5366 37.8116 24.5366 38.4008Z" fill="#67707B"/>
<path d="M37.3383 38.4008C37.3383 38.99 36.8607 39.4676 36.2715 39.4676C35.6823 39.4676 35.2047 38.99 35.2047 38.4008C35.2047 37.8116 35.6823 37.334 36.2715 37.334C36.8607 37.334 37.3383 37.8116 37.3383 38.4008Z" fill="#67707B"/>
<path d="M24.5366 42.6681C24.5366 43.2573 24.0589 43.7349 23.4698 43.7349C22.8806 43.7349 22.403 43.2573 22.403 42.6681C22.403 42.0789 22.8806 41.6013 23.4698 41.6013C24.0589 41.6013 24.5366 42.0789 24.5366 42.6681Z" fill="#67707B"/>
<path d="M37.3383 42.6681C37.3383 43.2573 36.8607 43.7349 36.2715 43.7349C35.6823 43.7349 35.2047 43.2573 35.2047 42.6681C35.2047 42.0789 35.6823 41.6013 36.2715 41.6013C36.8607 41.6013 37.3383 42.0789 37.3383 42.6681Z" fill="#67707B"/>
<path d="M28.8038 34.1336C28.8038 34.7228 28.3262 35.2004 27.737 35.2004C27.1478 35.2004 26.6702 34.7228 26.6702 34.1336C26.6702 33.5444 27.1478 33.0668 27.737 33.0668C28.3262 33.0668 28.8038 33.5444 28.8038 34.1336Z" fill="#67707B"/>
<path d="M28.8038 38.4008C28.8038 38.99 28.3262 39.4676 27.737 39.4676C27.1478 39.4676 26.6702 38.99 26.6702 38.4008C26.6702 37.8116 27.1478 37.334 27.737 37.334C28.3262 37.334 28.8038 37.8116 28.8038 38.4008Z" fill="#67707B"/>
<path d="M28.8038 42.6681C28.8038 43.2573 28.3262 43.7349 27.737 43.7349C27.1478 43.7349 26.6702 43.2573 26.6702 42.6681C26.6702 42.0789 27.1478 41.6013 27.737 41.6013C28.3262 41.6013 28.8038 42.0789 28.8038 42.6681Z" fill="#67707B"/>
<path d="M41.6055 42.6681C41.6055 43.2573 41.1279 43.7349 40.5387 43.7349C39.9496 43.7349 39.4719 43.2573 39.4719 42.6681C39.4719 42.0789 39.9496 41.6013 40.5387 41.6013C41.1279 41.6013 41.6055 42.0789 41.6055 42.6681Z" fill="#67707B"/>
<path d="M46.5057 24.5405L51.8586 29.7341H39.4719V34.266H51.8586L46.5057 39.4595L49.8127 42.6681L60.8081 32L49.8127 21.3319L46.5057 24.5405Z" fill="white"/>
<path fill-rule="evenodd" clip-rule="evenodd" d="M43.4416 24.5404L49.8127 18.359L63.8721 32L49.8127 45.6409L43.4416 39.4595L46.5954 36.3995H37.3383V27.6004H46.5954L43.4416 24.5404ZM51.8585 29.734H39.4719V34.2659H51.8585L46.5057 39.4595L49.8127 42.668L60.8081 32L49.8127 21.3319L46.5057 24.5404L51.8585 29.734Z" fill="black"/>
</svg>
