<svg width="32" height="32" viewBox="0 0 32 32" fill="none" xmlns="http://www.w3.org/2000/svg">
<path d="M32 8C32 7.44772 31.5523 7 31 7H0.999998C0.447714 7 0 7.44772 0 8V21.2857C0 23.4949 1.79086 25.2857 4 25.2857H28C30.2091 25.2857 32 23.4949 32 21.2857V8Z" fill="#0E141B"/>
<path d="M28 12.7143C28 13.0298 28.2558 13.2857 28.5714 13.2857C28.887 13.2857 29.1428 13.0298 29.1428 12.7143C29.1428 12.3987 28.887 12.1428 28.5714 12.1428C28.2558 12.1428 28 12.3987 28 12.7143Z" fill="#67707B"/>
<path d="M16.5715 12.7143C16.5715 13.0298 16.8273 13.2857 17.1429 13.2857C17.4585 13.2857 17.7144 13.0298 17.7144 12.7143C17.7144 12.3987 17.4585 12.1428 17.1429 12.1428C16.8273 12.1428 16.5715 12.3987 16.5715 12.7143Z" fill="#67707B"/>
<path d="M28 15C28 15.3156 28.2558 15.5714 28.5714 15.5714C28.887 15.5714 29.1428 15.3156 29.1428 15C29.1428 14.6844 28.887 14.4286 28.5714 14.4286C28.2558 14.4286 28 14.6844 28 15Z" fill="#67707B"/>
<path d="M16.5715 15C16.5715 15.3156 16.8273 15.5714 17.1429 15.5714C17.4585 15.5714 17.7144 15.3156 17.7144 15C17.7144 14.6844 17.4585 14.4286 17.1429 14.4286C16.8273 14.4286 16.5715 14.6844 16.5715 15Z" fill="#67707B"/>
<path d="M28 17.2858C28 17.6014 28.2558 17.8572 28.5714 17.8572C28.887 17.8572 29.1428 17.6014 29.1428 17.2858C29.1428 16.9702 28.887 16.7144 28.5714 16.7144C28.2558 16.7144 28 16.9702 28 17.2858Z" fill="#67707B"/>
<path d="M28 19.5714C28 19.887 28.2558 20.1429 28.5714 20.1429C28.887 20.1429 29.1428 19.887 29.1428 19.5714C29.1428 19.2558 28.887 19 28.5714 19C28.2558 19 28 19.2558 28 19.5714Z" fill="#67707B"/>
<path d="M28 21.8571C28 22.1727 28.2558 22.4285 28.5714 22.4285C28.887 22.4285 29.1428 22.1727 29.1428 21.8571C29.1428 21.5415 28.887 21.2856 28.5714 21.2856C28.2558 21.2856 28 21.5415 28 21.8571Z" fill="#67707B"/>
<path d="M16.5715 17.2858C16.5715 17.6014 16.8273 17.8572 17.1429 17.8572C17.4585 17.8572 17.7144 17.6014 17.7144 17.2858C17.7144 16.9702 17.4585 16.7144 17.1429 16.7144C16.8273 16.7144 16.5715 16.9702 16.5715 17.2858Z" fill="#67707B"/>
<path d="M16.5715 19.5714C16.5715 19.887 16.8273 20.1429 17.1429 20.1429C17.4585 20.1429 17.7144 19.887 17.7144 19.5714C17.7144 19.2558 17.4585 19 17.1429 19C16.8273 19 16.5715 19.2558 16.5715 19.5714Z" fill="#67707B"/>
<path d="M16.5715 21.8571C16.5715 22.1727 16.8273 22.4285 17.1429 22.4285C17.4585 22.4285 17.7144 22.1727 17.7144 21.8571C17.7144 21.5415 17.4585 21.2856 17.1429 21.2856C16.8273 21.2856 16.5715 21.5415 16.5715 21.8571Z" fill="#67707B"/>
<path d="M25.7143 12.7143C25.7143 13.0298 25.9702 13.2857 26.2857 13.2857C26.6013 13.2857 26.8572 13.0298 26.8572 12.7143C26.8572 12.3987 26.6013 12.1428 26.2857 12.1428C25.9702 12.1428 25.7143 12.3987 25.7143 12.7143Z" fill="#67707B"/>
<path d="M14.2857 12.7143C14.2857 13.0298 14.5416 13.2857 14.8572 13.2857C15.1728 13.2857 15.4286 13.0298 15.4286 12.7143C15.4286 12.3987 15.1728 12.1428 14.8572 12.1428C14.5416 12.1428 14.2857 12.3987 14.2857 12.7143Z" fill="#67707B"/>
<path d="M25.7143 15C25.7143 15.3156 25.9702 15.5714 26.2857 15.5714C26.6013 15.5714 26.8572 15.3156 26.8572 15C26.8572 14.6844 26.6013 14.4286 26.2857 14.4286C25.9702 14.4286 25.7143 14.6844 25.7143 15Z" fill="#67707B"/>
<path d="M14.2857 15C14.2857 15.3156 14.5416 15.5714 14.8572 15.5714C15.1728 15.5714 15.4286 15.3156 15.4286 15C15.4286 14.6844 15.1728 14.4286 14.8572 14.4286C14.5416 14.4286 14.2857 14.6844 14.2857 15Z" fill="#67707B"/>
<path d="M25.7143 17.2858C25.7143 17.6014 25.9702 17.8572 26.2857 17.8572C26.6013 17.8572 26.8572 17.6014 26.8572 17.2858C26.8572 16.9702 26.6013 16.7144 26.2857 16.7144C25.9702 16.7144 25.7143 16.9702 25.7143 17.2858Z" fill="#67707B"/>
<path d="M25.7143 19.5714C25.7143 19.887 25.9702 20.1429 26.2857 20.1429C26.6013 20.1429 26.8572 19.887 26.8572 19.5714C26.8572 19.2558 26.6013 19 26.2857 19C25.9702 19 25.7143 19.2558 25.7143 19.5714Z" fill="#67707B"/>
<path d="M25.7143 21.8571C25.7143 22.1727 25.9702 22.4285 26.2857 22.4285C26.6013 22.4285 26.8572 22.1727 26.8572 21.8571C26.8572 21.5415 26.6013 21.2856 26.2857 21.2856C25.9702 21.2856 25.7143 21.5415 25.7143 21.8571Z" fill="#67707B"/>
<path d="M14.2857 17.2858C14.2857 17.6014 14.5416 17.8572 14.8572 17.8572C15.1728 17.8572 15.4286 17.6014 15.4286 17.2858C15.4286 16.9702 15.1728 16.7144 14.8572 16.7144C14.5416 16.7144 14.2857 16.9702 14.2857 17.2858Z" fill="#67707B"/>
<path d="M14.2857 19.5714C14.2857 19.887 14.5416 20.1429 14.8572 20.1429C15.1728 20.1429 15.4286 19.887 15.4286 19.5714C15.4286 19.2558 15.1728 19 14.8572 19C14.5416 19 14.2857 19.2558 14.2857 19.5714Z" fill="#67707B"/>
<path d="M14.2857 21.8571C14.2857 22.1727 14.5416 22.4285 14.8572 22.4285C15.1728 22.4285 15.4286 22.1727 15.4286 21.8571C15.4286 21.5415 15.1728 21.2856 14.8572 21.2856C14.5416 21.2856 14.2857 21.5415 14.2857 21.8571Z" fill="#67707B"/>
<path d="M23.4286 12.7143C23.4286 13.0298 23.6844 13.2857 24 13.2857C24.3156 13.2857 24.5714 13.0298 24.5714 12.7143C24.5714 12.3987 24.3156 12.1428 24 12.1428C23.6844 12.1428 23.4286 12.3987 23.4286 12.7143Z" fill="#67707B"/>
<path d="M12 12.7143C12 13.0298 12.2558 13.2857 12.5714 13.2857C12.887 13.2857 13.1428 13.0298 13.1428 12.7143C13.1428 12.3987 12.887 12.1428 12.5714 12.1428C12.2558 12.1428 12 12.3987 12 12.7143Z" fill="#67707B"/>
<path d="M9.71432 12.7143C9.71432 13.0298 9.97016 13.2857 10.2857 13.2857C10.6013 13.2857 10.8572 13.0298 10.8572 12.7143C10.8572 12.3987 10.6013 12.1428 10.2857 12.1428C9.97016 12.1428 9.71432 12.3987 9.71432 12.7143Z" fill="#67707B"/>
<path d="M23.4286 15C23.4286 15.3156 23.6844 15.5714 24 15.5714C24.3156 15.5714 24.5714 15.3156 24.5714 15C24.5714 14.6844 24.3156 14.4286 24 14.4286C23.6844 14.4286 23.4286 14.6844 23.4286 15Z" fill="#67707B"/>
<path d="M12 15C12 15.3156 12.2558 15.5714 12.5714 15.5714C12.887 15.5714 13.1428 15.3156 13.1428 15C13.1428 14.6844 12.887 14.4286 12.5714 14.4286C12.2558 14.4286 12 14.6844 12 15Z" fill="#67707B"/>
<path d="M9.71432 15C9.71432 15.3156 9.97016 15.5714 10.2857 15.5714C10.6013 15.5714 10.8572 15.3156 10.8572 15C10.8572 14.6844 10.6013 14.4286 10.2857 14.4286C9.97016 14.4286 9.71432 14.6844 9.71432 15Z" fill="#67707B"/>
<path d="M23.4286 17.2858C23.4286 17.6014 23.6844 17.8572 24 17.8572C24.3156 17.8572 24.5714 17.6014 24.5714 17.2858C24.5714 16.9702 24.3156 16.7144 24 16.7144C23.6844 16.7144 23.4286 16.9702 23.4286 17.2858Z" fill="#67707B"/>
<path d="M23.4286 19.5714C23.4286 19.887 23.6844 20.1429 24 20.1429C24.3156 20.1429 24.5714 19.887 24.5714 19.5714C24.5714 19.2558 24.3156 19 24 19C23.6844 19 23.4286 19.2558 23.4286 19.5714Z" fill="#67707B"/>
<path d="M23.4286 21.8571C23.4286 22.1727 23.6844 22.4285 24 22.4285C24.3156 22.4285 24.5714 22.1727 24.5714 21.8571C24.5714 21.5415 24.3156 21.2856 24 21.2856C23.6844 21.2856 23.4286 21.5415 23.4286 21.8571Z" fill="#67707B"/>
<path d="M12 17.2858C12 17.6014 12.2558 17.8572 12.5714 17.8572C12.887 17.8572 13.1428 17.6014 13.1428 17.2858C13.1428 16.9702 12.887 16.7144 12.5714 16.7144C12.2558 16.7144 12 16.9702 12 17.2858Z" fill="#67707B"/>
<path d="M12 19.5714C12 19.887 12.2558 20.1429 12.5714 20.1429C12.887 20.1429 13.1428 19.887 13.1428 19.5714C13.1428 19.2558 12.887 19 12.5714 19C12.2558 19 12 19.2558 12 19.5714Z" fill="#67707B"/>
<path d="M12 21.8571C12 22.1727 12.2558 22.4285 12.5714 22.4285C12.887 22.4285 13.1428 22.1727 13.1428 21.8571C13.1428 21.5415 12.887 21.2856 12.5714 21.2856C12.2558 21.2856 12 21.5415 12 21.8571Z" fill="#67707B"/>
<path d="M9.71432 17.2858C9.71432 17.6014 9.97016 17.8572 10.2857 17.8572C10.6013 17.8572 10.8572 17.6014 10.8572 17.2858C10.8572 16.9702 10.6013 16.7144 10.2857 16.7144C9.97016 16.7144 9.71432 16.9702 9.71432 17.2858Z" fill="#67707B"/>
<path d="M9.71432 19.5714C9.71432 19.887 9.97016 20.1429 10.2857 20.1429C10.6013 20.1429 10.8572 19.887 10.8572 19.5714C10.8572 19.2558 10.6013 19 10.2857 19C9.97016 19 9.71432 19.2558 9.71432 19.5714Z" fill="#67707B"/>
<path d="M9.71432 21.8571C9.71432 22.1727 9.97016 22.4285 10.2857 22.4285C10.6013 22.4285 10.8572 22.1727 10.8572 21.8571C10.8572 21.5415 10.6013 21.2856 10.2857 21.2856C9.97016 21.2856 9.71432 21.5415 9.71432 21.8571Z" fill="#67707B"/>
<path d="M21.1428 12.7143C21.1428 13.0298 21.3986 13.2857 21.7142 13.2857C22.0298 13.2857 22.2856 13.0298 22.2856 12.7143C22.2856 12.3987 22.0298 12.1428 21.7142 12.1428C21.3986 12.1428 21.1428 12.3987 21.1428 12.7143Z" fill="#67707B"/>
<path d="M18.8571 12.7143C18.8571 13.0298 19.113 13.2857 19.4286 13.2857C19.7442 13.2857 20 13.0298 20 12.7143C20 12.3987 19.7442 12.1428 19.4286 12.1428C19.113 12.1428 18.8571 12.3987 18.8571 12.7143Z" fill="#67707B"/>
<path d="M21.1428 15C21.1428 15.3156 21.3986 15.5714 21.7142 15.5714C22.0298 15.5714 22.2856 15.3156 22.2856 15C22.2856 14.6844 22.0298 14.4286 21.7142 14.4286C21.3986 14.4286 21.1428 14.6844 21.1428 15Z" fill="#67707B"/>
<path d="M18.8571 15C18.8571 15.3156 19.113 15.5714 19.4286 15.5714C19.7442 15.5714 20 15.3156 20 15C20 14.6844 19.7442 14.4286 19.4286 14.4286C19.113 14.4286 18.8571 14.6844 18.8571 15Z" fill="#67707B"/>
<path d="M21.1428 17.2858C21.1428 17.6014 21.3986 17.8572 21.7142 17.8572C22.0298 17.8572 22.2856 17.6014 22.2856 17.2858C22.2856 16.9702 22.0298 16.7144 21.7142 16.7144C21.3986 16.7144 21.1428 16.9702 21.1428 17.2858Z" fill="#67707B"/>
<path d="M21.1428 19.5714C21.1428 19.887 21.3986 20.1429 21.7142 20.1429C22.0298 20.1429 22.2856 19.887 22.2856 19.5714C22.2856 19.2558 22.0298 19 21.7142 19C21.3986 19 21.1428 19.2558 21.1428 19.5714Z" fill="#67707B"/>
<path d="M21.1428 21.8571C21.1428 22.1727 21.3986 22.4285 21.7142 22.4285C22.0298 22.4285 22.2856 22.1727 22.2856 21.8571C22.2856 21.5415 22.0298 21.2856 21.7142 21.2856C21.3986 21.2856 21.1428 21.5415 21.1428 21.8571Z" fill="#67707B"/>
<path d="M18.8571 17.2858C18.8571 17.6014 19.113 17.8572 19.4286 17.8572C19.7442 17.8572 20 17.6014 20 17.2858C20 16.9702 19.7442 16.7144 19.4286 16.7144C19.113 16.7144 18.8571 16.9702 18.8571 17.2858Z" fill="#67707B"/>
<path d="M18.8571 19.5714C18.8571 19.887 19.113 20.1429 19.4286 20.1429C19.7442 20.1429 20 19.887 20 19.5714C20 19.2558 19.7442 19 19.4286 19C19.113 19 18.8571 19.2558 18.8571 19.5714Z" fill="#67707B"/>
<path d="M18.8571 21.8571C18.8571 22.1727 19.113 22.4285 19.4286 22.4285C19.7442 22.4285 20 22.1727 20 21.8571C20 21.5415 19.7442 21.2856 19.4286 21.2856C19.113 21.2856 18.8571 21.5415 18.8571 21.8571Z" fill="#67707B"/>
<path d="M6.5 20.5L1.5 16.25L6.5 12L6.5 20.5Z" fill="white"/>
</svg>
