<svg width="64" height="64" viewBox="0 0 64 64" fill="none" xmlns="http://www.w3.org/2000/svg">
<path d="M13.2213 39.8753L4.03359 32.0001L13.2213 24.1249L13.2213 39.8753Z" fill="white"/>
<path fill-rule="evenodd" clip-rule="evenodd" d="M15.8466 45.5828L0.00012207 32.0001L15.8466 18.4175L15.8466 45.5828ZM13.2215 39.8753L13.2215 24.1249L4.03377 32.0001L13.2215 39.8753Z" fill="black"/>
<path d="M64 8.37439H21.6216C19.8819 8.37439 18.4715 9.78473 18.4715 11.5245V43.0252C18.4715 49.9842 24.1129 55.6255 31.0719 55.6255H64V8.37439Z" fill="black"/>
<path d="M37.6674 23.1404C37.6674 23.9559 38.3285 24.617 39.144 24.617C39.9595 24.617 40.6206 23.9559 40.6206 23.1404C40.6206 22.3249 39.9595 21.6638 39.144 21.6638C38.3285 21.6638 37.6674 22.3249 37.6674 23.1404Z" fill="#67707B"/>
<path d="M43.5737 23.1404C43.5737 23.9559 44.2348 24.617 45.0503 24.617C45.8658 24.617 46.5269 23.9559 46.5269 23.1404C46.5269 22.3249 45.8658 21.6638 45.0503 21.6638C44.2348 21.6638 43.5737 22.3249 43.5737 23.1404Z" fill="#67707B"/>
<path d="M49.4803 23.1404C49.4803 23.9559 50.1414 24.617 50.9569 24.617C51.7724 24.617 52.4335 23.9559 52.4335 23.1404C52.4335 22.3249 51.7724 21.6638 50.9569 21.6638C50.1414 21.6638 49.4803 22.3249 49.4803 23.1404Z" fill="#67707B"/>
<path d="M55.3864 23.1404C55.3864 23.9559 56.0475 24.617 56.863 24.617C57.6785 24.617 58.3396 23.9559 58.3396 23.1404C58.3396 22.3249 57.6785 21.6638 56.863 21.6638C56.0475 21.6638 55.3864 22.3249 55.3864 23.1404Z" fill="#67707B"/>
<path d="M31.7613 23.1404C31.7613 23.9559 32.4224 24.617 33.2379 24.617C34.0534 24.617 34.7145 23.9559 34.7145 23.1404C34.7145 22.3249 34.0534 21.6638 33.2379 21.6638C32.4224 21.6638 31.7613 22.3249 31.7613 23.1404Z" fill="#67707B"/>
<path d="M25.8543 23.1404C25.8543 23.9559 26.5154 24.617 27.3309 24.617C28.1464 24.617 28.8075 23.9559 28.8075 23.1404C28.8075 22.3249 28.1464 21.6638 27.3309 21.6638C26.5154 21.6638 25.8543 22.3249 25.8543 23.1404Z" fill="#67707B"/>
<path d="M37.6674 29.0468C37.6674 29.8623 38.3285 30.5234 39.144 30.5234C39.9595 30.5234 40.6206 29.8623 40.6206 29.0468C40.6206 28.2313 39.9595 27.5702 39.144 27.5702C38.3285 27.5702 37.6674 28.2313 37.6674 29.0468Z" fill="#67707B"/>
<path d="M43.5737 29.0468C43.5737 29.8623 44.2348 30.5234 45.0503 30.5234C45.8658 30.5234 46.5269 29.8623 46.5269 29.0468C46.5269 28.2313 45.8658 27.5702 45.0503 27.5702C44.2348 27.5702 43.5737 28.2313 43.5737 29.0468Z" fill="#67707B"/>
<path d="M49.4803 29.0468C49.4803 29.8623 50.1414 30.5234 50.9569 30.5234C51.7724 30.5234 52.4335 29.8623 52.4335 29.0468C52.4335 28.2313 51.7724 27.5702 50.9569 27.5702C50.1414 27.5702 49.4803 28.2313 49.4803 29.0468Z" fill="#67707B"/>
<path d="M55.3864 29.0468C55.3864 29.8623 56.0475 30.5234 56.863 30.5234C57.6785 30.5234 58.3396 29.8623 58.3396 29.0468C58.3396 28.2313 57.6785 27.5702 56.863 27.5702C56.0475 27.5702 55.3864 28.2313 55.3864 29.0468Z" fill="#67707B"/>
<path d="M31.7613 29.0468C31.7613 29.8623 32.4224 30.5234 33.2379 30.5234C34.0534 30.5234 34.7145 29.8623 34.7145 29.0468C34.7145 28.2313 34.0534 27.5702 33.2379 27.5702C32.4224 27.5702 31.7613 28.2313 31.7613 29.0468Z" fill="#67707B"/>
<path d="M25.8543 29.0468C25.8543 29.8623 26.5154 30.5234 27.3309 30.5234C28.1464 30.5234 28.8075 29.8623 28.8075 29.0468C28.8075 28.2313 28.1464 27.5702 27.3309 27.5702C26.5154 27.5702 25.8543 28.2313 25.8543 29.0468Z" fill="#67707B"/>
<path d="M37.6674 34.953C37.6674 35.7685 38.3285 36.4296 39.144 36.4296C39.9595 36.4296 40.6206 35.7685 40.6206 34.953C40.6206 34.1375 39.9595 33.4764 39.144 33.4764C38.3285 33.4764 37.6674 34.1375 37.6674 34.953Z" fill="#67707B"/>
<path d="M43.5737 34.953C43.5737 35.7685 44.2348 36.4296 45.0503 36.4296C45.8658 36.4296 46.5269 35.7685 46.5269 34.953C46.5269 34.1375 45.8658 33.4764 45.0503 33.4764C44.2348 33.4764 43.5737 34.1375 43.5737 34.953Z" fill="#67707B"/>
<path d="M49.4803 34.953C49.4803 35.7685 50.1414 36.4296 50.9569 36.4296C51.7724 36.4296 52.4335 35.7685 52.4335 34.953C52.4335 34.1375 51.7724 33.4764 50.9569 33.4764C50.1414 33.4764 49.4803 34.1375 49.4803 34.953Z" fill="#67707B"/>
<path d="M55.3864 34.953C55.3864 35.7685 56.0475 36.4296 56.863 36.4296C57.6785 36.4296 58.3396 35.7685 58.3396 34.953C58.3396 34.1375 57.6785 33.4764 56.863 33.4764C56.0475 33.4764 55.3864 34.1375 55.3864 34.953Z" fill="#67707B"/>
<path d="M37.6674 40.8597C37.6674 41.6752 38.3285 42.3363 39.144 42.3363C39.9595 42.3363 40.6206 41.6752 40.6206 40.8597C40.6206 40.0442 39.9595 39.3831 39.144 39.3831C38.3285 39.3831 37.6674 40.0442 37.6674 40.8597Z" fill="#67707B"/>
<path d="M43.5737 40.8597C43.5737 41.6752 44.2348 42.3363 45.0503 42.3363C45.8658 42.3363 46.5269 41.6752 46.5269 40.8597C46.5269 40.0442 45.8658 39.3831 45.0503 39.3831C44.2348 39.3831 43.5737 40.0442 43.5737 40.8597Z" fill="#67707B"/>
<path d="M49.4803 40.8597C49.4803 41.6752 50.1414 42.3363 50.9569 42.3363C51.7724 42.3363 52.4335 41.6752 52.4335 40.8597C52.4335 40.0442 51.7724 39.3831 50.9569 39.3831C50.1414 39.3831 49.4803 40.0442 49.4803 40.8597Z" fill="#67707B"/>
<path d="M55.3864 40.8597C55.3864 41.6752 56.0475 42.3363 56.863 42.3363C57.6785 42.3363 58.3396 41.6752 58.3396 40.8597C58.3396 40.0442 57.6785 39.3831 56.863 39.3831C56.0475 39.3831 55.3864 40.0442 55.3864 40.8597Z" fill="#67707B"/>
<path d="M37.6674 46.7659C37.6674 47.5814 38.3285 48.2425 39.144 48.2425C39.9595 48.2425 40.6206 47.5814 40.6206 46.7659C40.6206 45.9504 39.9595 45.2893 39.144 45.2893C38.3285 45.2893 37.6674 45.9504 37.6674 46.7659Z" fill="#67707B"/>
<path d="M43.5737 46.7659C43.5737 47.5814 44.2348 48.2425 45.0503 48.2425C45.8658 48.2425 46.5269 47.5814 46.5269 46.7659C46.5269 45.9504 45.8658 45.2893 45.0503 45.2893C44.2348 45.2893 43.5737 45.9504 43.5737 46.7659Z" fill="#67707B"/>
<path d="M49.4803 46.7659C49.4803 47.5814 50.1414 48.2425 50.9569 48.2425C51.7724 48.2425 52.4335 47.5814 52.4335 46.7659C52.4335 45.9504 51.7724 45.2893 50.9569 45.2893C50.1414 45.2893 49.4803 45.9504 49.4803 46.7659Z" fill="#67707B"/>
<path d="M55.3864 46.7659C55.3864 47.5814 56.0475 48.2425 56.863 48.2425C57.6785 48.2425 58.3396 47.5814 58.3396 46.7659C58.3396 45.9504 57.6785 45.2893 56.863 45.2893C56.0475 45.2893 55.3864 45.9504 55.3864 46.7659Z" fill="#67707B"/>
<path d="M31.7613 34.953C31.7613 35.7685 32.4224 36.4296 33.2379 36.4296C34.0534 36.4296 34.7145 35.7685 34.7145 34.953C34.7145 34.1375 34.0534 33.4764 33.2379 33.4764C32.4224 33.4764 31.7613 34.1375 31.7613 34.953Z" fill="#67707B"/>
<path d="M31.7613 40.8597C31.7613 41.6752 32.4224 42.3363 33.2379 42.3363C34.0534 42.3363 34.7145 41.6752 34.7145 40.8597C34.7145 40.0442 34.0534 39.3831 33.2379 39.3831C32.4224 39.3831 31.7613 40.0442 31.7613 40.8597Z" fill="#67707B"/>
<path d="M31.7613 46.7659C31.7613 47.5814 32.4224 48.2425 33.2379 48.2425C34.0534 48.2425 34.7145 47.5814 34.7145 46.7659C34.7145 45.9504 34.0534 45.2893 33.2379 45.2893C32.4224 45.2893 31.7613 45.9504 31.7613 46.7659Z" fill="#67707B"/>
<path d="M25.8543 34.953C25.8543 35.7685 26.5154 36.4296 27.3309 36.4296C28.1464 36.4296 28.8075 35.7685 28.8075 34.953C28.8075 34.1375 28.1464 33.4764 27.3309 33.4764C26.5154 33.4764 25.8543 34.1375 25.8543 34.953Z" fill="#67707B"/>
<path d="M25.8543 40.8597C25.8543 41.6752 26.5154 42.3363 27.3309 42.3363C28.1464 42.3363 28.8075 41.6752 28.8075 40.8597C28.8075 40.0442 28.1464 39.3831 27.3309 39.3831C26.5154 39.3831 25.8543 40.0442 25.8543 40.8597Z" fill="#67707B"/>
<path d="M25.8543 46.7659C25.8543 47.5814 26.5154 48.2425 27.3309 48.2425C28.1464 48.2425 28.8075 47.5814 28.8075 46.7659C28.8075 45.9504 28.1464 45.2893 27.3309 45.2893C26.5154 45.2893 25.8543 45.9504 25.8543 46.7659Z" fill="#67707B"/>
</svg>
