<svg width="64" height="64" viewBox="0 0 64 64" fill="none" xmlns="http://www.w3.org/2000/svg">
<g clip-path="url(#clip0_1967:15692)">
<path d="M55.964 12.877H11.2312C9.46657 12.877 8.03603 14.3075 8.03603 16.0722V51.2193C8.03603 58.278 13.7582 64.0001 20.8168 64.0001H55.964V12.877Z" fill="black"/>
<path d="M47.9758 28.8528C47.9758 29.7352 48.6911 30.4504 49.5734 30.4504C50.4558 30.4504 51.171 29.7352 51.171 28.8528C51.171 27.9705 50.4558 27.2552 49.5734 27.2552C48.6911 27.2552 47.9758 27.9705 47.9758 28.8528Z" fill="#67707B"/>
<path d="M47.9758 35.2432C47.9758 36.1256 48.6911 36.8408 49.5734 36.8408C50.4558 36.8408 51.171 36.1256 51.171 35.2432C51.171 34.3609 50.4558 33.6456 49.5734 33.6456C48.6911 33.6456 47.9758 34.3609 47.9758 35.2432Z" fill="#67707B"/>
<path d="M41.5857 35.2432C41.5857 36.1256 42.301 36.8408 43.1833 36.8408C44.0656 36.8408 44.7809 36.1256 44.7809 35.2432C44.7809 34.3609 44.0656 33.6456 43.1833 33.6456C42.301 33.6456 41.5857 34.3609 41.5857 35.2432Z" fill="#67707B"/>
<path d="M47.9758 41.6336C47.9758 42.5159 48.6911 43.2312 49.5734 43.2312C50.4558 43.2312 51.171 42.5159 51.171 41.6336C51.171 40.7513 50.4558 40.036 49.5734 40.036C48.6911 40.036 47.9758 40.7513 47.9758 41.6336Z" fill="#67707B"/>
<path d="M47.9758 48.024C47.9758 48.9063 48.6911 49.6216 49.5734 49.6216C50.4558 49.6216 51.171 48.9063 51.171 48.024C51.171 47.1417 50.4558 46.4264 49.5734 46.4264C48.6911 46.4264 47.9758 47.1417 47.9758 48.024Z" fill="#67707B"/>
<path d="M47.9758 54.4146C47.9758 55.2969 48.6911 56.0122 49.5734 56.0122C50.4558 56.0122 51.171 55.2969 51.171 54.4146C51.171 53.5323 50.4558 52.817 49.5734 52.817C48.6911 52.817 47.9758 53.5323 47.9758 54.4146Z" fill="#67707B"/>
<path d="M16.0239 28.8528C16.0239 29.7352 16.7392 30.4504 17.6215 30.4504C18.5038 30.4504 19.2191 29.7352 19.2191 28.8528C19.2191 27.9705 18.5038 27.2552 17.6215 27.2552C16.7392 27.2552 16.0239 27.9705 16.0239 28.8528Z" fill="#67707B"/>
<path d="M16.0239 35.2432C16.0239 36.1256 16.7392 36.8408 17.6215 36.8408C18.5038 36.8408 19.2191 36.1256 19.2191 35.2432C19.2191 34.3609 18.5038 33.6456 17.6215 33.6456C16.7392 33.6456 16.0239 34.3609 16.0239 35.2432Z" fill="#67707B"/>
<path d="M41.5857 41.6336C41.5857 42.5159 42.301 43.2312 43.1833 43.2312C44.0656 43.2312 44.7809 42.5159 44.7809 41.6336C44.7809 40.7513 44.0656 40.036 43.1833 40.036C42.301 40.036 41.5857 40.7513 41.5857 41.6336Z" fill="#67707B"/>
<path d="M41.5857 48.024C41.5857 48.9063 42.301 49.6216 43.1833 49.6216C44.0656 49.6216 44.7809 48.9063 44.7809 48.024C44.7809 47.1417 44.0656 46.4264 43.1833 46.4264C42.301 46.4264 41.5857 47.1417 41.5857 48.024Z" fill="#67707B"/>
<path d="M41.5857 54.4146C41.5857 55.2969 42.301 56.0122 43.1833 56.0122C44.0656 56.0122 44.7809 55.2969 44.7809 54.4146C44.7809 53.5323 44.0656 52.817 43.1833 52.817C42.301 52.817 41.5857 53.5323 41.5857 54.4146Z" fill="#67707B"/>
<path d="M35.1949 41.6336C35.1949 42.5159 35.9102 43.2312 36.7925 43.2312C37.6749 43.2312 38.3901 42.5159 38.3901 41.6336C38.3901 40.7513 37.6749 40.036 36.7925 40.036C35.9102 40.036 35.1949 40.7513 35.1949 41.6336Z" fill="#67707B"/>
<path d="M35.1949 48.024C35.1949 48.9063 35.9102 49.6216 36.7925 49.6216C37.6749 49.6216 38.3901 48.9063 38.3901 48.024C38.3901 47.1417 37.6749 46.4264 36.7925 46.4264C35.9102 46.4264 35.1949 47.1417 35.1949 48.024Z" fill="#67707B"/>
<path d="M35.1949 54.4146C35.1949 55.2969 35.9102 56.0122 36.7925 56.0122C37.6749 56.0122 38.3901 55.2969 38.3901 54.4146C38.3901 53.5323 37.6749 52.817 36.7925 52.817C35.9102 52.817 35.1949 53.5323 35.1949 54.4146Z" fill="#67707B"/>
<path d="M28.8048 41.6336C28.8048 42.5159 29.5201 43.2312 30.4024 43.2312C31.2847 43.2312 32 42.5159 32 41.6336C32 40.7513 31.2847 40.036 30.4024 40.036C29.5201 40.036 28.8048 40.7513 28.8048 41.6336Z" fill="#67707B"/>
<path d="M28.8048 48.024C28.8048 48.9063 29.5201 49.6216 30.4024 49.6216C31.2847 49.6216 32 48.9063 32 48.024C32 47.1417 31.2847 46.4264 30.4024 46.4264C29.5201 46.4264 28.8048 47.1417 28.8048 48.024Z" fill="#67707B"/>
<path d="M28.8048 54.4146C28.8048 55.2969 29.5201 56.0122 30.4024 56.0122C31.2847 56.0122 32 55.2969 32 54.4146C32 53.5323 31.2847 52.817 30.4024 52.817C29.5201 52.817 28.8048 53.5323 28.8048 54.4146Z" fill="#67707B"/>
<path d="M22.4147 41.6336C22.4147 42.5159 23.1299 43.2312 24.0123 43.2312C24.8946 43.2312 25.6099 42.5159 25.6099 41.6336C25.6099 40.7513 24.8946 40.036 24.0123 40.036C23.1299 40.036 22.4147 40.7513 22.4147 41.6336Z" fill="#67707B"/>
<path d="M22.4147 48.024C22.4147 48.9063 23.1299 49.6216 24.0123 49.6216C24.8946 49.6216 25.6099 48.9063 25.6099 48.024C25.6099 47.1417 24.8946 46.4264 24.0123 46.4264C23.1299 46.4264 22.4147 47.1417 22.4147 48.024Z" fill="#67707B"/>
<path d="M22.4147 54.4146C22.4147 55.2969 23.1299 56.0122 24.0123 56.0122C24.8946 56.0122 25.6099 55.2969 25.6099 54.4146C25.6099 53.5323 24.8946 52.817 24.0123 52.817C23.1299 52.817 22.4147 53.5323 22.4147 54.4146Z" fill="#67707B"/>
<path d="M16.0239 41.6336C16.0239 42.5159 16.7392 43.2312 17.6215 43.2312C18.5038 43.2312 19.2191 42.5159 19.2191 41.6336C19.2191 40.7513 18.5038 40.036 17.6215 40.036C16.7392 40.036 16.0239 40.7513 16.0239 41.6336Z" fill="#67707B"/>
<path d="M16.0239 48.024C16.0239 48.9063 16.7392 49.6216 17.6215 49.6216C18.5038 49.6216 19.2191 48.9063 19.2191 48.024C19.2191 47.1417 18.5038 46.4264 17.6215 46.4264C16.7392 46.4264 16.0239 47.1417 16.0239 48.024Z" fill="#67707B"/>
<path d="M16.0239 54.4146C16.0239 55.2969 16.7392 56.0122 17.6215 56.0122C18.5038 56.0122 19.2191 55.2969 19.2191 54.4146C19.2191 53.5323 18.5038 52.817 17.6215 52.817C16.7392 52.817 16.0239 53.5323 16.0239 54.4146Z" fill="#67707B"/>
<path d="M41.3091 21.6726L34.8278 14.9924V30.4504H29.1722V14.9924L22.6908 21.6726L18.6866 17.5456L32 3.8238L45.3133 17.5456L41.3091 21.6726Z" fill="white"/>
<path fill-rule="evenodd" clip-rule="evenodd" d="M41.3092 25.4964L49.0234 17.5456L32.0001 8.01086e-05L14.9768 17.5456L22.6909 25.4964L26.5096 21.5606V33.1132H37.4906V21.5606L41.3092 25.4964ZM34.8279 14.9925V30.4505H29.1723V14.9925L22.6909 21.6726L18.6868 17.5456L32.0001 3.82385L45.3134 17.5456L41.3092 21.6726L34.8279 14.9925Z" fill="black"/>
</g>
<defs>
<clipPath id="clip0_1967:15692">
<rect width="64" height="64" fill="white"/>
</clipPath>
</defs>
</svg>
