<svg width="64" height="64" viewBox="0 0 64 64" fill="none" xmlns="http://www.w3.org/2000/svg">
<g clip-path="url(#clip0_1967:15819)">
<path d="M15.6438 6.9071H60.8633C62.5956 6.9071 64 8.31142 64 10.0437V44.5465C64 51.4757 58.3827 57.093 51.4535 57.093H15.6438V6.9071Z" fill="black"/>
<path d="M43.612 22.5902C43.612 23.4563 42.9098 24.1585 42.0436 24.1585C41.1775 24.1585 40.4753 23.4563 40.4753 22.5902C40.4753 21.724 41.1775 21.0219 42.0436 21.0219C42.9098 21.0219 43.612 21.724 43.612 22.5902Z" fill="#67707B"/>
<path d="M49.885 22.5902C49.885 23.4563 49.1829 24.1585 48.3167 24.1585C47.4506 24.1585 46.7484 23.4563 46.7484 22.5902C46.7484 21.724 47.4506 21.0219 48.3167 21.0219C49.1829 21.0219 49.885 21.724 49.885 22.5902Z" fill="#67707B"/>
<path d="M56.1586 22.5902C56.1586 23.4563 55.4564 24.1585 54.5903 24.1585C53.7241 24.1585 53.022 23.4563 53.022 22.5902C53.022 21.724 53.7241 21.0219 54.5903 21.0219C55.4564 21.0219 56.1586 21.724 56.1586 22.5902Z" fill="#67707B"/>
<path d="M43.612 28.8634C43.612 29.7295 42.9098 30.4317 42.0436 30.4317C41.1775 30.4317 40.4753 29.7295 40.4753 28.8634C40.4753 27.9972 41.1775 27.295 42.0436 27.295C42.9098 27.295 43.612 27.9972 43.612 28.8634Z" fill="#67707B"/>
<path d="M49.885 28.8634C49.885 29.7295 49.1829 30.4317 48.3167 30.4317C47.4506 30.4317 46.7484 29.7295 46.7484 28.8634C46.7484 27.9972 47.4506 27.295 48.3167 27.295C49.1829 27.295 49.885 27.9972 49.885 28.8634Z" fill="#67707B"/>
<path d="M56.1586 28.8634C56.1586 29.7295 55.4564 30.4317 54.5903 30.4317C53.7241 30.4317 53.022 29.7295 53.022 28.8634C53.022 27.9972 53.7241 27.295 54.5903 27.295C55.4564 27.295 56.1586 27.9972 56.1586 28.8634Z" fill="#67707B"/>
<path d="M31.0654 47.6832C31.0654 48.5493 30.3633 49.2515 29.4971 49.2515C28.631 49.2515 27.9288 48.5493 27.9288 47.6832C27.9288 46.817 28.631 46.1149 29.4971 46.1149C30.3633 46.1149 31.0654 46.817 31.0654 47.6832Z" fill="#67707B"/>
<path d="M37.339 41.4099C37.339 42.276 36.6369 42.9782 35.7707 42.9782C34.9045 42.9782 34.2024 42.276 34.2024 41.4099C34.2024 40.5437 34.9045 39.8416 35.7707 39.8416C36.6369 39.8416 37.339 40.5437 37.339 41.4099Z" fill="#67707B"/>
<path d="M37.339 47.6832C37.339 48.5493 36.6369 49.2515 35.7707 49.2515C34.9045 49.2515 34.2024 48.5493 34.2024 47.6832C34.2024 46.817 34.9045 46.1149 35.7707 46.1149C36.6369 46.1149 37.339 46.817 37.339 47.6832Z" fill="#67707B"/>
<path d="M43.612 35.1365C43.612 36.0027 42.9098 36.7049 42.0436 36.7049C41.1775 36.7049 40.4753 36.0027 40.4753 35.1365C40.4753 34.2704 41.1775 33.5682 42.0436 33.5682C42.9098 33.5682 43.612 34.2704 43.612 35.1365Z" fill="#67707B"/>
<path d="M43.612 41.4099C43.612 42.276 42.9098 42.9782 42.0436 42.9782C41.1775 42.9782 40.4753 42.276 40.4753 41.4099C40.4753 40.5437 41.1775 39.8416 42.0436 39.8416C42.9098 39.8416 43.612 40.5437 43.612 41.4099Z" fill="#67707B"/>
<path d="M43.612 47.6832C43.612 48.5493 42.9098 49.2515 42.0436 49.2515C41.1775 49.2515 40.4753 48.5493 40.4753 47.6832C40.4753 46.817 41.1775 46.1149 42.0436 46.1149C42.9098 46.1149 43.612 46.817 43.612 47.6832Z" fill="#67707B"/>
<path d="M49.885 35.1365C49.885 36.0027 49.1829 36.7049 48.3167 36.7049C47.4506 36.7049 46.7484 36.0027 46.7484 35.1365C46.7484 34.2704 47.4506 33.5682 48.3167 33.5682C49.1829 33.5682 49.885 34.2704 49.885 35.1365Z" fill="#67707B"/>
<path d="M49.885 41.4099C49.885 42.276 49.1829 42.9782 48.3167 42.9782C47.4506 42.9782 46.7484 42.276 46.7484 41.4099C46.7484 40.5437 47.4506 39.8416 48.3167 39.8416C49.1829 39.8416 49.885 40.5437 49.885 41.4099Z" fill="#67707B"/>
<path d="M49.885 47.6832C49.885 48.5493 49.1829 49.2515 48.3167 49.2515C47.4506 49.2515 46.7484 48.5493 46.7484 47.6832C46.7484 46.817 47.4506 46.1149 48.3167 46.1149C49.1829 46.1149 49.885 46.817 49.885 47.6832Z" fill="#67707B"/>
<path d="M56.1586 35.1365C56.1586 36.0027 55.4564 36.7049 54.5903 36.7049C53.7241 36.7049 53.022 36.0027 53.022 35.1365C53.022 34.2704 53.7241 33.5682 54.5903 33.5682C55.4564 33.5682 56.1586 34.2704 56.1586 35.1365Z" fill="#67707B"/>
<path d="M56.1586 41.4099C56.1586 42.276 55.4564 42.9782 54.5903 42.9782C53.7241 42.9782 53.022 42.276 53.022 41.4099C53.022 40.5437 53.7241 39.8416 54.5903 39.8416C55.4564 39.8416 56.1586 40.5437 56.1586 41.4099Z" fill="#67707B"/>
<path d="M56.1586 47.6832C56.1586 48.5493 55.4564 49.2515 54.5903 49.2515C53.7241 49.2515 53.022 48.5493 53.022 47.6832C53.022 46.817 53.7241 46.1149 54.5903 46.1149C55.4564 46.1149 56.1586 46.817 56.1586 47.6832Z" fill="#67707B"/>
<path d="M21.4031 22.8615L14.8454 29.224H30.02V34.7759H14.8454L21.4031 41.1385L17.3517 45.0692L3.88156 32L17.3517 18.9308L21.4031 22.8615Z" fill="white"/>
<path fill-rule="evenodd" clip-rule="evenodd" d="M25.1567 22.8614L17.3517 15.2887L0.127815 31.9999L17.3517 48.7111L25.1567 41.1384L21.293 37.3897H32.6338V26.6101H21.293L25.1567 22.8614ZM14.8453 29.2239H30.0199V34.7759H14.8453L21.403 41.1384L17.3517 45.0691L3.88148 31.9999L17.3517 18.9307L21.403 22.8614L14.8453 29.2239Z" fill="black"/>
</g>
<defs>
<clipPath id="clip0_1967:15819">
<rect width="64" height="64" fill="white"/>
</clipPath>
</defs>
</svg>
