<svg width="32" height="32" viewBox="0 0 32 32" fill="none" xmlns="http://www.w3.org/2000/svg">
<path d="M0 8.00003C0 7.36885 0.511675 6.85718 1.14286 6.85718H30.8571C31.4883 6.85718 32 7.36885 32 8.00003V20.5715C32 23.0962 29.9533 25.1429 27.4286 25.1429H4.57143C2.0467 25.1429 0 23.0962 0 20.5715V8.00003Z" fill="#0E141B"/>
<path d="M20 12.5714C20 12.887 19.7442 13.1429 19.4286 13.1429C19.113 13.1429 18.8572 12.887 18.8572 12.5714C18.8572 12.2558 19.113 12 19.4286 12C19.7442 12 20 12.2558 20 12.5714Z" fill="#67707B"/>
<path d="M22.2857 12.5714C22.2857 12.887 22.0298 13.1429 21.7143 13.1429C21.3987 13.1429 21.1428 12.887 21.1428 12.5714C21.1428 12.2558 21.3987 12 21.7143 12C22.0298 12 22.2857 12.2558 22.2857 12.5714Z" fill="#67707B"/>
<path d="M24.5714 12.5714C24.5714 12.887 24.3156 13.1429 24 13.1429C23.6844 13.1429 23.4286 12.887 23.4286 12.5714C23.4286 12.2558 23.6844 12 24 12C24.3156 12 24.5714 12.2558 24.5714 12.5714Z" fill="#67707B"/>
<path d="M26.8571 12.5714C26.8571 12.887 26.6013 13.1429 26.2857 13.1429C25.9701 13.1429 25.7142 12.887 25.7142 12.5714C25.7142 12.2558 25.9701 12 26.2857 12C26.6013 12 26.8571 12.2558 26.8571 12.5714Z" fill="#67707B"/>
<path d="M29.1429 12.5714C29.1429 12.887 28.887 13.1429 28.5714 13.1429C28.2558 13.1429 28 12.887 28 12.5714C28 12.2558 28.2558 12 28.5714 12C28.887 12 29.1429 12.2558 29.1429 12.5714Z" fill="#67707B"/>
<path d="M20 14.8572C20 15.1728 19.7442 15.4286 19.4286 15.4286C19.113 15.4286 18.8572 15.1728 18.8572 14.8572C18.8572 14.5416 19.113 14.2858 19.4286 14.2858C19.7442 14.2858 20 14.5416 20 14.8572Z" fill="#67707B"/>
<path d="M22.2857 14.8572C22.2857 15.1728 22.0298 15.4286 21.7143 15.4286C21.3987 15.4286 21.1428 15.1728 21.1428 14.8572C21.1428 14.5416 21.3987 14.2858 21.7143 14.2858C22.0298 14.2858 22.2857 14.5416 22.2857 14.8572Z" fill="#67707B"/>
<path d="M24.5714 14.8572C24.5714 15.1728 24.3156 15.4286 24 15.4286C23.6844 15.4286 23.4286 15.1728 23.4286 14.8572C23.4286 14.5416 23.6844 14.2858 24 14.2858C24.3156 14.2858 24.5714 14.5416 24.5714 14.8572Z" fill="#67707B"/>
<path d="M26.8571 14.8572C26.8571 15.1728 26.6013 15.4286 26.2857 15.4286C25.9701 15.4286 25.7142 15.1728 25.7142 14.8572C25.7142 14.5416 25.9701 14.2858 26.2857 14.2858C26.6013 14.2858 26.8571 14.5416 26.8571 14.8572Z" fill="#67707B"/>
<path d="M29.1429 14.8572C29.1429 15.1728 28.887 15.4286 28.5714 15.4286C28.2558 15.4286 28 15.1728 28 14.8572C28 14.5416 28.2558 14.2858 28.5714 14.2858C28.887 14.2858 29.1429 14.5416 29.1429 14.8572Z" fill="#67707B"/>
<path d="M20 17.1428C20 17.4584 19.7442 17.7143 19.4286 17.7143C19.113 17.7143 18.8572 17.4584 18.8572 17.1428C18.8572 16.8272 19.113 16.5714 19.4286 16.5714C19.7442 16.5714 20 16.8272 20 17.1428Z" fill="#67707B"/>
<path d="M20 19.4286C20 19.7442 19.7442 20 19.4286 20C19.113 20 18.8572 19.7442 18.8572 19.4286C18.8572 19.113 19.113 18.8572 19.4286 18.8572C19.7442 18.8572 20 19.113 20 19.4286Z" fill="#67707B"/>
<path d="M20 21.7143C20 22.0298 19.7442 22.2857 19.4286 22.2857C19.113 22.2857 18.8572 22.0298 18.8572 21.7143C18.8572 21.3987 19.113 21.1428 19.4286 21.1428C19.7442 21.1428 20 21.3987 20 21.7143Z" fill="#67707B"/>
<path d="M22.2857 17.1428C22.2857 17.4584 22.0298 17.7143 21.7143 17.7143C21.3987 17.7143 21.1428 17.4584 21.1428 17.1428C21.1428 16.8272 21.3987 16.5714 21.7143 16.5714C22.0298 16.5714 22.2857 16.8272 22.2857 17.1428Z" fill="#67707B"/>
<path d="M22.2857 19.4286C22.2857 19.7442 22.0298 20 21.7143 20C21.3987 20 21.1428 19.7442 21.1428 19.4286C21.1428 19.113 21.3987 18.8572 21.7143 18.8572C22.0298 18.8572 22.2857 19.113 22.2857 19.4286Z" fill="#67707B"/>
<path d="M22.2857 21.7143C22.2857 22.0298 22.0298 22.2857 21.7143 22.2857C21.3987 22.2857 21.1428 22.0298 21.1428 21.7143C21.1428 21.3987 21.3987 21.1428 21.7143 21.1428C22.0298 21.1428 22.2857 21.3987 22.2857 21.7143Z" fill="#67707B"/>
<path d="M24.5714 17.1428C24.5714 17.4584 24.3156 17.7143 24 17.7143C23.6844 17.7143 23.4286 17.4584 23.4286 17.1428C23.4286 16.8272 23.6844 16.5714 24 16.5714C24.3156 16.5714 24.5714 16.8272 24.5714 17.1428Z" fill="#67707B"/>
<path d="M24.5714 19.4286C24.5714 19.7442 24.3156 20 24 20C23.6844 20 23.4286 19.7442 23.4286 19.4286C23.4286 19.113 23.6844 18.8572 24 18.8572C24.3156 18.8572 24.5714 19.113 24.5714 19.4286Z" fill="#67707B"/>
<path d="M24.5714 21.7143C24.5714 22.0298 24.3156 22.2857 24 22.2857C23.6844 22.2857 23.4286 22.0298 23.4286 21.7143C23.4286 21.3987 23.6844 21.1428 24 21.1428C24.3156 21.1428 24.5714 21.3987 24.5714 21.7143Z" fill="#67707B"/>
<path d="M26.8571 17.1428C26.8571 17.4584 26.6013 17.7143 26.2857 17.7143C25.9701 17.7143 25.7142 17.4584 25.7142 17.1428C25.7142 16.8272 25.9701 16.5714 26.2857 16.5714C26.6013 16.5714 26.8571 16.8272 26.8571 17.1428Z" fill="#67707B"/>
<path d="M26.8571 19.4286C26.8571 19.7442 26.6013 20 26.2857 20C25.9701 20 25.7142 19.7442 25.7142 19.4286C25.7142 19.113 25.9701 18.8572 26.2857 18.8572C26.6013 18.8572 26.8571 19.113 26.8571 19.4286Z" fill="#67707B"/>
<path d="M26.8571 21.7143C26.8571 22.0298 26.6013 22.2857 26.2857 22.2857C25.9701 22.2857 25.7142 22.0298 25.7142 21.7143C25.7142 21.3987 25.9701 21.1428 26.2857 21.1428C26.6013 21.1428 26.8571 21.3987 26.8571 21.7143Z" fill="#67707B"/>
<path d="M29.1429 17.1428C29.1429 17.4584 28.887 17.7143 28.5714 17.7143C28.2558 17.7143 28 17.4584 28 17.1428C28 16.8272 28.2558 16.5714 28.5714 16.5714C28.887 16.5714 29.1429 16.8272 29.1429 17.1428Z" fill="#67707B"/>
<path d="M29.1429 19.4286C29.1429 19.7442 28.887 20 28.5714 20C28.2558 20 28 19.7442 28 19.4286C28 19.113 28.2558 18.8572 28.5714 18.8572C28.887 18.8572 29.1429 19.113 29.1429 19.4286Z" fill="#67707B"/>
<path d="M29.1429 21.7143C29.1429 22.0298 28.887 22.2857 28.5714 22.2857C28.2558 22.2857 28 22.0298 28 21.7143C28 21.3987 28.2558 21.1428 28.5714 21.1428C28.887 21.1428 29.1429 21.3987 29.1429 21.7143Z" fill="#67707B"/>
<path fill-rule="evenodd" clip-rule="evenodd" d="M12.5714 9.14286H4.57139C3.30903 9.14286 2.28568 10.1662 2.28568 11.4286V20.5714C2.28568 21.8338 3.30903 22.8571 4.57139 22.8571H12.5714C13.8338 22.8571 14.8571 21.8338 14.8571 20.5714V11.4286C14.8571 10.1662 13.8338 9.14286 12.5714 9.14286ZM4.57139 8C2.67785 8 1.14282 9.53502 1.14282 11.4286V20.5714C1.14282 22.465 2.67784 24 4.57139 24H12.5714C14.4649 24 16 22.465 16 20.5714V11.4286C16 9.53502 14.4649 8 12.5714 8H4.57139Z" fill="white"/>
</svg>
