<svg width="64" height="64" viewBox="0 0 64 64" fill="none" xmlns="http://www.w3.org/2000/svg">
<g clip-path="url(#clip0_1967:20135)">
<path d="M54.5366 0H13.2218C11.5258 0 10.1508 1.37494 10.1508 3.07102V33.7812C10.1508 40.5655 15.6506 46.0653 22.4349 46.0653H54.5366V0Z" fill="black"/>
<path d="M28.8648 14.3953C28.8648 15.1904 29.5093 15.8349 30.3044 15.8349C31.0994 15.8349 31.7439 15.1904 31.7439 14.3953C31.7439 13.6003 31.0994 12.9558 30.3044 12.9558C29.5093 12.9558 28.8648 13.6003 28.8648 14.3953Z" fill="#67707B"/>
<path d="M34.623 14.3953C34.623 15.1904 35.2675 15.8349 36.0625 15.8349C36.8576 15.8349 37.5021 15.1904 37.5021 14.3953C37.5021 13.6003 36.8576 12.9558 36.0625 12.9558C35.2675 12.9558 34.623 13.6003 34.623 14.3953Z" fill="#67707B"/>
<path d="M40.3813 14.3953C40.3813 15.1904 41.0258 15.8349 41.8208 15.8349C42.6159 15.8349 43.2604 15.1904 43.2604 14.3953C43.2604 13.6003 42.6159 12.9558 41.8208 12.9558C41.0258 12.9558 40.3813 13.6003 40.3813 14.3953Z" fill="#67707B"/>
<path d="M46.1391 14.3953C46.1391 15.1904 46.7836 15.8349 47.5786 15.8349C48.3737 15.8349 49.0182 15.1904 49.0182 14.3953C49.0182 13.6003 48.3737 12.9558 47.5786 12.9558C46.7836 12.9558 46.1391 13.6003 46.1391 14.3953Z" fill="#67707B"/>
<path d="M23.107 14.3953C23.107 15.1904 23.7515 15.8349 24.5465 15.8349C25.3416 15.8349 25.9861 15.1904 25.9861 14.3953C25.9861 13.6003 25.3416 12.9558 24.5465 12.9558C23.7515 12.9558 23.107 13.6003 23.107 14.3953Z" fill="#67707B"/>
<path d="M17.3483 14.3953C17.3483 15.1904 17.9928 15.8349 18.7879 15.8349C19.5829 15.8349 20.2274 15.1904 20.2274 14.3953C20.2274 13.6003 19.5829 12.9558 18.7879 12.9558C17.9928 12.9558 17.3483 13.6003 17.3483 14.3953Z" fill="#67707B"/>
<path d="M28.8648 20.1534C28.8648 20.9484 29.5093 21.5929 30.3044 21.5929C31.0994 21.5929 31.7439 20.9484 31.7439 20.1534C31.7439 19.3584 31.0994 18.7139 30.3044 18.7139C29.5093 18.7139 28.8648 19.3584 28.8648 20.1534Z" fill="#67707B"/>
<path d="M34.623 20.1534C34.623 20.9484 35.2675 21.5929 36.0625 21.5929C36.8576 21.5929 37.5021 20.9484 37.5021 20.1534C37.5021 19.3584 36.8576 18.7139 36.0625 18.7139C35.2675 18.7139 34.623 19.3584 34.623 20.1534Z" fill="#67707B"/>
<path d="M40.3813 20.1534C40.3813 20.9484 41.0258 21.5929 41.8208 21.5929C42.6159 21.5929 43.2604 20.9484 43.2604 20.1534C43.2604 19.3584 42.6159 18.7139 41.8208 18.7139C41.0258 18.7139 40.3813 19.3584 40.3813 20.1534Z" fill="#67707B"/>
<path d="M46.1391 20.1534C46.1391 20.9484 46.7836 21.5929 47.5786 21.5929C48.3737 21.5929 49.0182 20.9484 49.0182 20.1534C49.0182 19.3584 48.3737 18.7139 47.5786 18.7139C46.7836 18.7139 46.1391 19.3584 46.1391 20.1534Z" fill="#67707B"/>
<path d="M23.107 20.1534C23.107 20.9484 23.7515 21.5929 24.5465 21.5929C25.3416 21.5929 25.9861 20.9484 25.9861 20.1534C25.9861 19.3584 25.3416 18.7139 24.5465 18.7139C23.7515 18.7139 23.107 19.3584 23.107 20.1534Z" fill="#67707B"/>
<path d="M17.3483 20.1534C17.3483 20.9484 17.9928 21.5929 18.7879 21.5929C19.5829 21.5929 20.2274 20.9484 20.2274 20.1534C20.2274 19.3584 19.5829 18.7139 18.7879 18.7139C17.9928 18.7139 17.3483 19.3584 17.3483 20.1534Z" fill="#67707B"/>
<path d="M28.8648 25.9116C28.8648 26.7066 29.5093 27.3511 30.3044 27.3511C31.0994 27.3511 31.7439 26.7066 31.7439 25.9116C31.7439 25.1165 31.0994 24.472 30.3044 24.472C29.5093 24.472 28.8648 25.1165 28.8648 25.9116Z" fill="#67707B"/>
<path d="M34.623 25.9116C34.623 26.7066 35.2675 27.3511 36.0625 27.3511C36.8576 27.3511 37.5021 26.7066 37.5021 25.9116C37.5021 25.1165 36.8576 24.472 36.0625 24.472C35.2675 24.472 34.623 25.1165 34.623 25.9116Z" fill="#67707B"/>
<path d="M40.3813 25.9116C40.3813 26.7066 41.0258 27.3511 41.8208 27.3511C42.6159 27.3511 43.2604 26.7066 43.2604 25.9116C43.2604 25.1165 42.6159 24.472 41.8208 24.472C41.0258 24.472 40.3813 25.1165 40.3813 25.9116Z" fill="#67707B"/>
<path d="M46.1391 25.9116C46.1391 26.7066 46.7836 27.3511 47.5786 27.3511C48.3737 27.3511 49.0182 26.7066 49.0182 25.9116C49.0182 25.1165 48.3737 24.472 47.5786 24.472C46.7836 24.472 46.1391 25.1165 46.1391 25.9116Z" fill="#67707B"/>
<path d="M28.8648 31.6699C28.8648 32.4649 29.5093 33.1094 30.3044 33.1094C31.0994 33.1094 31.7439 32.4649 31.7439 31.6699C31.7439 30.8749 31.0994 30.2303 30.3044 30.2303C29.5093 30.2303 28.8648 30.8749 28.8648 31.6699Z" fill="#67707B"/>
<path d="M34.623 31.6699C34.623 32.4649 35.2675 33.1094 36.0625 33.1094C36.8576 33.1094 37.5021 32.4649 37.5021 31.6699C37.5021 30.8749 36.8576 30.2303 36.0625 30.2303C35.2675 30.2303 34.623 30.8749 34.623 31.6699Z" fill="#67707B"/>
<path d="M40.3813 31.6699C40.3813 32.4649 41.0258 33.1094 41.8208 33.1094C42.6159 33.1094 43.2604 32.4649 43.2604 31.6699C43.2604 30.8749 42.6159 30.2303 41.8208 30.2303C41.0258 30.2303 40.3813 30.8749 40.3813 31.6699Z" fill="#67707B"/>
<path d="M46.1391 31.6699C46.1391 32.4649 46.7836 33.1094 47.5786 33.1094C48.3737 33.1094 49.0182 32.4649 49.0182 31.6699C49.0182 30.8749 48.3737 30.2303 47.5786 30.2303C46.7836 30.2303 46.1391 30.8749 46.1391 31.6699Z" fill="#67707B"/>
<path d="M28.8648 37.4281C28.8648 38.2231 29.5093 38.8676 30.3044 38.8676C31.0994 38.8676 31.7439 38.2231 31.7439 37.4281C31.7439 36.633 31.0994 35.9885 30.3044 35.9885C29.5093 35.9885 28.8648 36.633 28.8648 37.4281Z" fill="#67707B"/>
<path d="M34.623 37.4281C34.623 38.2231 35.2675 38.8676 36.0625 38.8676C36.8576 38.8676 37.5021 38.2231 37.5021 37.4281C37.5021 36.633 36.8576 35.9885 36.0625 35.9885C35.2675 35.9885 34.623 36.633 34.623 37.4281Z" fill="#67707B"/>
<path d="M40.3813 37.4281C40.3813 38.2231 41.0258 38.8676 41.8208 38.8676C42.6159 38.8676 43.2604 38.2231 43.2604 37.4281C43.2604 36.633 42.6159 35.9885 41.8208 35.9885C41.0258 35.9885 40.3813 36.633 40.3813 37.4281Z" fill="#67707B"/>
<path d="M46.1391 37.4281C46.1391 38.2231 46.7836 38.8676 47.5786 38.8676C48.3737 38.8676 49.0182 38.2231 49.0182 37.4281C49.0182 36.633 48.3737 35.9885 47.5786 35.9885C46.7836 35.9885 46.1391 36.633 46.1391 37.4281Z" fill="#67707B"/>
<path d="M23.107 25.9116C23.107 26.7066 23.7515 27.3511 24.5465 27.3511C25.3416 27.3511 25.9861 26.7066 25.9861 25.9116C25.9861 25.1165 25.3416 24.472 24.5465 24.472C23.7515 24.472 23.107 25.1165 23.107 25.9116Z" fill="#67707B"/>
<path d="M23.107 31.6699C23.107 32.4649 23.7515 33.1094 24.5465 33.1094C25.3416 33.1094 25.9861 32.4649 25.9861 31.6699C25.9861 30.8749 25.3416 30.2303 24.5465 30.2303C23.7515 30.2303 23.107 30.8749 23.107 31.6699Z" fill="#67707B"/>
<path d="M23.107 37.4281C23.107 38.2231 23.7515 38.8676 24.5465 38.8676C25.3416 38.8676 25.9861 38.2231 25.9861 37.4281C25.9861 36.633 25.3416 35.9885 24.5465 35.9885C23.7515 35.9885 23.107 36.633 23.107 37.4281Z" fill="#67707B"/>
<path d="M17.3483 25.9116C17.3483 26.7066 17.9928 27.3511 18.7879 27.3511C19.5829 27.3511 20.2274 26.7066 20.2274 25.9116C20.2274 25.1165 19.5829 24.472 18.7879 24.472C17.9928 24.472 17.3483 25.1165 17.3483 25.9116Z" fill="#67707B"/>
<path d="M17.3483 31.6699C17.3483 32.4649 17.9928 33.1094 18.7879 33.1094C19.5829 33.1094 20.2274 32.4649 20.2274 31.6699C20.2274 30.8749 19.5829 30.2303 18.7879 30.2303C17.9928 30.2303 17.3483 30.8749 17.3483 31.6699Z" fill="#67707B"/>
<path d="M17.3483 37.4281C17.3483 38.2231 17.9928 38.8676 18.7879 38.8676C19.5829 38.8676 20.2274 38.2231 20.2274 37.4281C20.2274 36.633 19.5829 35.9885 18.7879 35.9885C17.9928 35.9885 17.3483 36.633 17.3483 37.4281Z" fill="#67707B"/>
<path d="M40.8611 51.1836L33.1835 60.1407L25.506 51.1836H40.8611Z" fill="white"/>
<path fill-rule="evenodd" clip-rule="evenodd" d="M46.4253 48.6244L33.1835 64.0731L19.9418 48.6244H46.4253ZM40.8611 51.1836H25.506L33.1835 60.1407L40.8611 51.1836Z" fill="black"/>
</g>
<defs>
<clipPath id="clip0_1967:20135">
<rect width="64" height="64" fill="white"/>
</clipPath>
</defs>
</svg>
