<svg width="32" height="32" viewBox="0 0 32 32" fill="none" xmlns="http://www.w3.org/2000/svg">
<path fill-rule="evenodd" clip-rule="evenodd" d="M29.3035 6.85718L23.5 14L17.6965 6.85718H0.999998C0.447714 6.85718 0 7.30489 0 7.85718V21.1429C0 23.352 1.79086 25.1429 4 25.1429H28C30.2091 25.1429 32 23.352 32 21.1429V7.85718C32 7.30489 31.5523 6.85718 31 6.85718H29.3035ZM13.2859 12.5714C13.2859 12.887 13.5417 13.1429 13.8573 13.1429C14.1729 13.1429 14.4287 12.887 14.4287 12.5714C14.4287 12.2558 14.1729 12 13.8573 12C13.5417 12 13.2859 12.2558 13.2859 12.5714ZM13.8573 15.4286C13.5417 15.4286 13.2859 15.1728 13.2859 14.8572C13.2859 14.5416 13.5417 14.2858 13.8573 14.2858C14.1729 14.2858 14.4287 14.5416 14.4287 14.8572C14.4287 15.1728 14.1729 15.4286 13.8573 15.4286ZM13.2859 17.1428C13.2859 17.4584 13.5417 17.7143 13.8573 17.7143C14.1729 17.7143 14.4287 17.4584 14.4287 17.1428C14.4287 16.8272 14.1729 16.5714 13.8573 16.5714C13.5417 16.5714 13.2859 16.8272 13.2859 17.1428ZM13.8573 20C13.5417 20 13.2859 19.7442 13.2859 19.4286C13.2859 19.113 13.5417 18.8572 13.8573 18.8572C14.1729 18.8572 14.4287 19.113 14.4287 19.4286C14.4287 19.7442 14.1729 20 13.8573 20ZM13.2859 21.7143C13.2859 22.0298 13.5417 22.2857 13.8573 22.2857C14.1729 22.2857 14.4287 22.0298 14.4287 21.7143C14.4287 21.3987 14.1729 21.1428 13.8573 21.1428C13.5417 21.1428 13.2859 21.3987 13.2859 21.7143ZM11.5714 13.1429C11.2558 13.1429 11 12.887 11 12.5714C11 12.2558 11.2558 12 11.5714 12C11.887 12 12.1428 12.2558 12.1428 12.5714C12.1428 12.887 11.887 13.1429 11.5714 13.1429ZM8.71432 12.5714C8.71432 12.887 8.97016 13.1429 9.28575 13.1429C9.60134 13.1429 9.85718 12.887 9.85718 12.5714C9.85718 12.2558 9.60134 12 9.28575 12C8.97016 12 8.71432 12.2558 8.71432 12.5714ZM6.99986 13.1429C6.68427 13.1429 6.42843 12.887 6.42843 12.5714C6.42843 12.2558 6.68427 12 6.99986 12C7.31545 12 7.57129 12.2558 7.57129 12.5714C7.57129 12.887 7.31545 13.1429 6.99986 13.1429ZM4.14279 12.5714C4.14279 12.887 4.39862 13.1429 4.71421 13.1429C5.02981 13.1429 5.28564 12.887 5.28564 12.5714C5.28564 12.2558 5.02981 12 4.71421 12C4.39862 12 4.14279 12.2558 4.14279 12.5714ZM2.42857 13.1429C2.11298 13.1429 1.85714 12.887 1.85714 12.5714C1.85714 12.2558 2.11298 12 2.42857 12C2.74416 12 3 12.2558 3 12.5714C3 12.887 2.74416 13.1429 2.42857 13.1429ZM11 14.8572C11 15.1728 11.2558 15.4286 11.5714 15.4286C11.887 15.4286 12.1428 15.1728 12.1428 14.8572C12.1428 14.5416 11.887 14.2858 11.5714 14.2858C11.2558 14.2858 11 14.5416 11 14.8572ZM9.28575 15.4286C8.97016 15.4286 8.71432 15.1728 8.71432 14.8572C8.71432 14.5416 8.97016 14.2858 9.28575 14.2858C9.60134 14.2858 9.85718 14.5416 9.85718 14.8572C9.85718 15.1728 9.60134 15.4286 9.28575 15.4286ZM6.42843 14.8572C6.42843 15.1728 6.68427 15.4286 6.99986 15.4286C7.31545 15.4286 7.57129 15.1728 7.57129 14.8572C7.57129 14.5416 7.31545 14.2858 6.99986 14.2858C6.68427 14.2858 6.42843 14.5416 6.42843 14.8572ZM4.71421 15.4286C4.39862 15.4286 4.14279 15.1728 4.14279 14.8572C4.14279 14.5416 4.39862 14.2858 4.71421 14.2858C5.02981 14.2858 5.28564 14.5416 5.28564 14.8572C5.28564 15.1728 5.02981 15.4286 4.71421 15.4286ZM1.85714 14.8572C1.85714 15.1728 2.11298 15.4286 2.42857 15.4286C2.74416 15.4286 3 15.1728 3 14.8572C3 14.5416 2.74416 14.2858 2.42857 14.2858C2.11298 14.2858 1.85714 14.5416 1.85714 14.8572ZM11.5714 17.7143C11.2558 17.7143 11 17.4584 11 17.1428C11 16.8272 11.2558 16.5714 11.5714 16.5714C11.887 16.5714 12.1428 16.8272 12.1428 17.1428C12.1428 17.4584 11.887 17.7143 11.5714 17.7143ZM11 19.4286C11 19.7442 11.2558 20 11.5714 20C11.887 20 12.1428 19.7442 12.1428 19.4286C12.1428 19.113 11.887 18.8572 11.5714 18.8572C11.2558 18.8572 11 19.113 11 19.4286ZM11.5714 22.2857C11.2558 22.2857 11 22.0298 11 21.7143C11 21.3987 11.2558 21.1428 11.5714 21.1428C11.887 21.1428 12.1428 21.3987 12.1428 21.7143C12.1428 22.0298 11.887 22.2857 11.5714 22.2857ZM8.71432 17.1428C8.71432 17.4584 8.97016 17.7143 9.28575 17.7143C9.60134 17.7143 9.85718 17.4584 9.85718 17.1428C9.85718 16.8272 9.60134 16.5714 9.28575 16.5714C8.97016 16.5714 8.71432 16.8272 8.71432 17.1428ZM9.28575 20C8.97016 20 8.71432 19.7442 8.71432 19.4286C8.71432 19.113 8.97016 18.8572 9.28575 18.8572C9.60134 18.8572 9.85718 19.113 9.85718 19.4286C9.85718 19.7442 9.60134 20 9.28575 20ZM8.71432 21.7143C8.71432 22.0298 8.97016 22.2857 9.28575 22.2857C9.60134 22.2857 9.85718 22.0298 9.85718 21.7143C9.85718 21.3987 9.60134 21.1428 9.28575 21.1428C8.97016 21.1428 8.71432 21.3987 8.71432 21.7143ZM6.99986 17.7143C6.68427 17.7143 6.42843 17.4584 6.42843 17.1428C6.42843 16.8272 6.68427 16.5714 6.99986 16.5714C7.31545 16.5714 7.57129 16.8272 7.57129 17.1428C7.57129 17.4584 7.31545 17.7143 6.99986 17.7143ZM6.42843 19.4286C6.42843 19.7442 6.68427 20 6.99986 20C7.31545 20 7.57129 19.7442 7.57129 19.4286C7.57129 19.113 7.31545 18.8572 6.99986 18.8572C6.68427 18.8572 6.42843 19.113 6.42843 19.4286ZM6.99986 22.2857C6.68427 22.2857 6.42843 22.0298 6.42843 21.7143C6.42843 21.3987 6.68427 21.1428 6.99986 21.1428C7.31545 21.1428 7.57129 21.3987 7.57129 21.7143C7.57129 22.0298 7.31545 22.2857 6.99986 22.2857ZM4.14279 17.1428C4.14279 17.4584 4.39862 17.7143 4.71421 17.7143C5.02981 17.7143 5.28564 17.4584 5.28564 17.1428C5.28564 16.8272 5.02981 16.5714 4.71421 16.5714C4.39862 16.5714 4.14279 16.8272 4.14279 17.1428ZM4.71421 20C4.39862 20 4.14279 19.7442 4.14279 19.4286C4.14279 19.113 4.39862 18.8572 4.71421 18.8572C5.02981 18.8572 5.28564 19.113 5.28564 19.4286C5.28564 19.7442 5.02981 20 4.71421 20ZM4.14279 21.7143C4.14279 22.0298 4.39862 22.2857 4.71421 22.2857C5.02981 22.2857 5.28564 22.0298 5.28564 21.7143C5.28564 21.3987 5.02981 21.1428 4.71421 21.1428C4.39862 21.1428 4.14279 21.3987 4.14279 21.7143ZM2.42857 17.7143C2.11298 17.7143 1.85714 17.4584 1.85714 17.1428C1.85714 16.8272 2.11298 16.5714 2.42857 16.5714C2.74416 16.5714 3 16.8272 3 17.1428C3 17.4584 2.74416 17.7143 2.42857 17.7143ZM1.85714 19.4286C1.85714 19.7442 2.11298 20 2.42857 20C2.74416 20 3 19.7442 3 19.4286C3 19.113 2.74416 18.8572 2.42857 18.8572C2.11298 18.8572 1.85714 19.113 1.85714 19.4286ZM2.42857 22.2857C2.11298 22.2857 1.85714 22.0298 1.85714 21.7143C1.85714 21.3987 2.11298 21.1428 2.42857 21.1428C2.74416 21.1428 3 21.3987 3 21.7143C3 22.0298 2.74416 22.2857 2.42857 22.2857Z" fill="#0E141B"/>
<path fill-rule="evenodd" clip-rule="evenodd" d="M28.3432 8.03916C29.7689 8.2714 30.8572 9.50861 30.8572 11V21C30.8572 22.6568 29.514 24 27.8572 24H19C17.3432 24 16 22.6568 16 21V11C16 9.46424 17.154 8.19802 18.6422 8.02112L19.4375 8.99999H19C17.8955 8.99999 17 9.89542 17 11V21C17 22.1046 17.8955 23 19 23H27.8572C28.9617 23 29.8572 22.1046 29.8572 21V11C29.8572 9.89542 28.9617 8.99999 27.8572 8.99999H27.5625L28.3432 8.03916Z" fill="white"/>
<rect width="1" height="2" transform="matrix(-1 0 0 1 24 15)" fill="white"/>
<rect width="1" height="2" transform="matrix(-0.707107 -0.707107 -0.707107 0.707107 22.1213 14.7072)" fill="white"/>
<rect width="1" height="2" transform="matrix(-0.707107 0.707107 0.707107 0.707107 25.5857 14)" fill="white"/>
<mask id="path-6-inside-1_7533_1536" fill="white">
<path fill-rule="evenodd" clip-rule="evenodd" d="M21 1H26V5H30L23.5 13L17 5H21V1Z"/>
</mask>
<path fill-rule="evenodd" clip-rule="evenodd" d="M21 1H26V5H30L23.5 13L17 5H21V1Z" fill="white"/>
<path d="M26 1V0H27V1H26ZM21 1H20V0H21V1ZM26 5V6H25V5H26ZM30 5V4H32.101L30.7761 5.63059L30 5ZM23.5 13L24.2761 13.6306L23.5 14.5858L22.7239 13.6306L23.5 13ZM17 5L16.2239 5.63059L14.899 4H17V5ZM21 5H22V6H21V5ZM26 2H21V0H26V2ZM25 5V1H27V5H25ZM26 4H30V6H26V4ZM30.7761 5.63059L24.2761 13.6306L22.7239 12.3694L29.2239 4.36941L30.7761 5.63059ZM22.7239 13.6306L16.2239 5.63059L17.7761 4.36941L24.2761 12.3694L22.7239 13.6306ZM17 4H21V6H17V4ZM22 1V5H20V1H22Z" fill="#0E141B" mask="url(#path-6-inside-1_7533_1536)"/>
</svg>
