<svg width="64" height="64" viewBox="0 0 64 64" fill="none" xmlns="http://www.w3.org/2000/svg">
<path fill-rule="evenodd" clip-rule="evenodd" d="M53.2134 53.2132L2.00018 2V32C2.00018 48.5685 15.4316 62 32.0002 62C40.2844 62 47.7844 58.6421 53.2134 53.2132Z" fill="#67707B"/>
<path fill-rule="evenodd" clip-rule="evenodd" d="M2 2H62V32C62 40.2843 58.6421 47.7843 53.2132 53.2132L2 2Z" fill="black"/>
<path d="M31.1108 39H26.565L23.4161 33.6994H23.061H21.0959V39H17V22.2865H23.4398C25.8074 22.2865 27.5594 22.7561 28.6958 23.6952C29.8323 24.6344 30.4005 25.9555 30.4005 27.6587C30.4005 28.948 30.1243 30.0304 29.5719 30.9059C29.0352 31.7654 28.2776 32.4181 27.299 32.8638L31.1108 39ZM21.0959 25.8202V30.1657H23.3214C24.158 30.1657 24.813 29.9747 25.2865 29.5927C25.7758 29.1948 26.0205 28.6217 26.0205 27.8736C26.0205 27.1891 25.7995 26.6798 25.3576 26.3455C24.9156 25.9953 24.2132 25.8202 23.2504 25.8202H21.0959Z" fill="white"/>
<path d="M39.5658 35.4424H47V39H34.3808V35.6096L39.1633 31.6938C39.9051 31.073 40.4655 30.5796 40.8443 30.2135C41.2231 29.8474 41.5151 29.4733 41.7203 29.0913C41.9413 28.7093 42.0518 28.2875 42.0518 27.8258C42.0518 27.1096 41.7755 26.5684 41.2231 26.2022C40.6865 25.8361 39.9999 25.6531 39.1633 25.6531C38.5319 25.6531 37.9085 25.7486 37.2929 25.9396C36.6773 26.1147 36.1249 26.3535 35.6356 26.6559L34.3098 23.5997C35.0674 23.1063 35.9118 22.7163 36.8431 22.4298C37.7901 22.1433 38.8003 22 39.8736 22C41.8623 22 43.4644 22.4218 44.6798 23.2654C45.8951 24.0932 46.5028 25.3188 46.5028 26.9424C46.5028 28.0566 46.1871 29.0754 45.5558 29.9986C44.9402 30.9059 43.9853 31.8848 42.691 32.9354L39.5658 35.4424Z" fill="white"/>
</svg>
