<svg width="64" height="64" viewBox="0 0 64 64" fill="none" xmlns="http://www.w3.org/2000/svg">
<g clip-path="url(#clip0_1967:15593)">
<path d="M64 7.36108H19.5984C17.8974 7.36108 16.5185 8.73999 16.5185 10.441V44.3196C16.5185 51.1235 22.0342 56.6391 28.8381 56.6391H64V7.36108Z" fill="black"/>
<path d="M55.0169 22.7604C55.0169 23.6109 55.7064 24.3003 56.5569 24.3003C57.4073 24.3003 58.0968 23.6109 58.0968 22.7604C58.0968 21.9099 57.4073 21.2205 56.5569 21.2205C55.7064 21.2205 55.0169 21.9099 55.0169 22.7604Z" fill="#67707B"/>
<path d="M55.0169 28.9202C55.0169 29.7707 55.7064 30.4601 56.5569 30.4601C57.4073 30.4601 58.0968 29.7707 58.0968 28.9202C58.0968 28.0697 57.4073 27.3802 56.5569 27.3802C55.7064 27.3802 55.0169 28.0697 55.0169 28.9202Z" fill="#67707B"/>
<path d="M55.0169 35.0797C55.0169 35.9302 55.7064 36.6197 56.5569 36.6197C57.4073 36.6197 58.0968 35.9302 58.0968 35.0797C58.0968 34.2292 57.4073 33.5398 56.5569 33.5398C55.7064 33.5398 55.0169 34.2292 55.0169 35.0797Z" fill="#67707B"/>
<path d="M55.0169 41.2396C55.0169 42.0901 55.7064 42.7796 56.5569 42.7796C57.4073 42.7796 58.0968 42.0901 58.0968 41.2396C58.0968 40.3892 57.4073 39.6997 56.5569 39.6997C55.7064 39.6997 55.0169 40.3892 55.0169 41.2396Z" fill="#67707B"/>
<path d="M55.0169 47.3994C55.0169 48.2499 55.7064 48.9394 56.5569 48.9394C57.4073 48.9394 58.0968 48.2499 58.0968 47.3994C58.0968 46.549 57.4073 45.8595 56.5569 45.8595C55.7064 45.8595 55.0169 46.549 55.0169 47.3994Z" fill="#67707B"/>
<path d="M48.8574 22.7604C48.8574 23.6109 49.5468 24.3003 50.3973 24.3003C51.2478 24.3003 51.9373 23.6109 51.9373 22.7604C51.9373 21.9099 51.2478 21.2205 50.3973 21.2205C49.5468 21.2205 48.8574 21.9099 48.8574 22.7604Z" fill="#67707B"/>
<path d="M42.6972 22.7604C42.6972 23.6109 43.3867 24.3003 44.2372 24.3003C45.0876 24.3003 45.7771 23.6109 45.7771 22.7604C45.7771 21.9099 45.0876 21.2205 44.2372 21.2205C43.3867 21.2205 42.6972 21.9099 42.6972 22.7604Z" fill="#67707B"/>
<path d="M48.8574 28.9202C48.8574 29.7707 49.5468 30.4601 50.3973 30.4601C51.2478 30.4601 51.9373 29.7707 51.9373 28.9202C51.9373 28.0697 51.2478 27.3802 50.3973 27.3802C49.5468 27.3802 48.8574 28.0697 48.8574 28.9202Z" fill="#67707B"/>
<path d="M42.6972 28.9202C42.6972 29.7707 43.3867 30.4601 44.2372 30.4601C45.0876 30.4601 45.7771 29.7707 45.7771 28.9202C45.7771 28.0697 45.0876 27.3802 44.2372 27.3802C43.3867 27.3802 42.6972 28.0697 42.6972 28.9202Z" fill="#67707B"/>
<path d="M48.8574 35.0797C48.8574 35.9302 49.5468 36.6197 50.3973 36.6197C51.2478 36.6197 51.9373 35.9302 51.9373 35.0797C51.9373 34.2292 51.2478 33.5398 50.3973 33.5398C49.5468 33.5398 48.8574 34.2292 48.8574 35.0797Z" fill="#67707B"/>
<path d="M48.8574 41.2396C48.8574 42.0901 49.5468 42.7796 50.3973 42.7796C51.2478 42.7796 51.9373 42.0901 51.9373 41.2396C51.9373 40.3892 51.2478 39.6997 50.3973 39.6997C49.5468 39.6997 48.8574 40.3892 48.8574 41.2396Z" fill="#67707B"/>
<path d="M48.8574 47.3994C48.8574 48.2499 49.5468 48.9394 50.3973 48.9394C51.2478 48.9394 51.9373 48.2499 51.9373 47.3994C51.9373 46.549 51.2478 45.8595 50.3973 45.8595C49.5468 45.8595 48.8574 46.549 48.8574 47.3994Z" fill="#67707B"/>
<path d="M42.6972 35.0797C42.6972 35.9302 43.3867 36.6197 44.2372 36.6197C45.0876 36.6197 45.7771 35.9302 45.7771 35.0797C45.7771 34.2292 45.0876 33.5398 44.2372 33.5398C43.3867 33.5398 42.6972 34.2292 42.6972 35.0797Z" fill="#67707B"/>
<path d="M42.6972 41.2396C42.6972 42.0901 43.3867 42.7796 44.2372 42.7796C45.0876 42.7796 45.7771 42.0901 45.7771 41.2396C45.7771 40.3892 45.0876 39.6997 44.2372 39.6997C43.3867 39.6997 42.6972 40.3892 42.6972 41.2396Z" fill="#67707B"/>
<path d="M42.6972 47.3994C42.6972 48.2499 43.3867 48.9394 44.2372 48.9394C45.0876 48.9394 45.7771 48.2499 45.7771 47.3994C45.7771 46.549 45.0876 45.8595 44.2372 45.8595C43.3867 45.8595 42.6972 46.549 42.6972 47.3994Z" fill="#67707B"/>
<path d="M36.5378 41.2396C36.5378 42.0901 37.2273 42.7796 38.0777 42.7796C38.9282 42.7796 39.6177 42.0901 39.6177 41.2396C39.6177 40.3892 38.9282 39.6997 38.0777 39.6997C37.2273 39.6997 36.5378 40.3892 36.5378 41.2396Z" fill="#67707B"/>
<path d="M36.5378 47.3994C36.5378 48.2499 37.2273 48.9394 38.0777 48.9394C38.9282 48.9394 39.6177 48.2499 39.6177 47.3994C39.6177 46.549 38.9282 45.8595 38.0777 45.8595C37.2273 45.8595 36.5378 46.549 36.5378 47.3994Z" fill="#67707B"/>
<path d="M30.3781 47.3994C30.3781 48.2499 31.0676 48.9394 31.9181 48.9394C32.7686 48.9394 33.458 48.2499 33.458 47.3994C33.458 46.549 32.7686 45.8595 31.9181 45.8595C31.0676 45.8595 30.3781 46.549 30.3781 47.3994Z" fill="#67707B"/>
<path d="M20.8904 23.0269L14.4513 29.2743H29.3514V34.7258H14.4513L20.8904 40.9732L16.9123 44.8329L3.68579 32.0001L16.9123 19.1672L20.8904 23.0269Z" fill="white"/>
<path fill-rule="evenodd" clip-rule="evenodd" d="M24.5761 23.0268L16.9123 15.591L-2.09808e-05 31.9999L16.9123 48.4088L24.5761 40.9731L20.7823 37.2922H31.918V26.7076H20.7823L24.5761 23.0268ZM14.4513 29.2742H29.3514V34.7257H14.4513L20.8903 40.9731L16.9123 44.8328L3.68575 31.9999L16.9123 19.1671L20.8903 23.0268L14.4513 29.2742Z" fill="black"/>
</g>
<defs>
<clipPath id="clip0_1967:15593">
<rect width="64" height="64" fill="white"/>
</clipPath>
</defs>
</svg>
