<svg width="32" height="32" viewBox="0 0 32 32" fill="none" xmlns="http://www.w3.org/2000/svg">
<g clip-path="url(#clip0_2642_21575)">
<path d="M0 7.85718C0 7.30489 0.447715 6.85718 1 6.85718H31C31.5523 6.85718 32 7.30489 32 7.85718V21.1429C32 23.352 30.2091 25.1429 28 25.1429H4C1.79086 25.1429 0 23.352 0 21.1429V7.85718Z" fill="#0E141B"/>
<path d="M15.4285 12.5714C15.4285 12.887 15.1727 13.1429 14.8571 13.1429C14.5415 13.1429 14.2856 12.887 14.2856 12.5714C14.2856 12.2558 14.5415 12 14.8571 12C15.1727 12 15.4285 12.2558 15.4285 12.5714Z" fill="#67707B"/>
<path d="M12.6429 12.5714C12.6429 12.887 12.387 13.1429 12.0714 13.1429C11.7558 13.1429 11.5 12.887 11.5 12.5714C11.5 12.2558 11.7558 12 12.0714 12C12.387 12 12.6429 12.2558 12.6429 12.5714Z" fill="#67707B"/>
<path d="M15.4285 14.8572C15.4285 15.1728 15.1727 15.4286 14.8571 15.4286C14.5415 15.4286 14.2856 15.1728 14.2856 14.8572C14.2856 14.5416 14.5415 14.2858 14.8571 14.2858C15.1727 14.2858 15.4285 14.5416 15.4285 14.8572Z" fill="#67707B"/>
<path d="M12.6429 14.8572C12.6429 15.1728 12.387 15.4286 12.0714 15.4286C11.7558 15.4286 11.5 15.1728 11.5 14.8572C11.5 14.5416 11.7558 14.2858 12.0714 14.2858C12.387 14.2858 12.6429 14.5416 12.6429 14.8572Z" fill="#67707B"/>
<path d="M15.4285 17.1428C15.4285 17.4584 15.1727 17.7143 14.8571 17.7143C14.5415 17.7143 14.2856 17.4584 14.2856 17.1428C14.2856 16.8272 14.5415 16.5714 14.8571 16.5714C15.1727 16.5714 15.4285 16.8272 15.4285 17.1428Z" fill="#67707B"/>
<path d="M12.6429 17.1428C12.6429 17.4584 12.387 17.7143 12.0714 17.7143C11.7558 17.7143 11.5 17.4584 11.5 17.1428C11.5 16.8272 11.7558 16.5714 12.0714 16.5714C12.387 16.5714 12.6429 16.8272 12.6429 17.1428Z" fill="#67707B"/>
<path d="M15.4285 19.4286C15.4285 19.7442 15.1727 20 14.8571 20C14.5415 20 14.2856 19.7442 14.2856 19.4286C14.2856 19.113 14.5415 18.8572 14.8571 18.8572C15.1727 18.8572 15.4285 19.113 15.4285 19.4286Z" fill="#67707B"/>
<path d="M12.6429 19.4286C12.6429 19.7442 12.387 20 12.0714 20C11.7558 20 11.5 19.7442 11.5 19.4286C11.5 19.113 11.7558 18.8572 12.0714 18.8572C12.387 18.8572 12.6429 19.113 12.6429 19.4286Z" fill="#67707B"/>
<path d="M15.4285 21.7143C15.4285 22.0298 15.1727 22.2857 14.8571 22.2857C14.5415 22.2857 14.2856 22.0298 14.2856 21.7143C14.2856 21.3987 14.5415 21.1428 14.8571 21.1428C15.1727 21.1428 15.4285 21.3987 15.4285 21.7143Z" fill="#67707B"/>
<path d="M12.6429 21.7143C12.6429 22.0298 12.387 22.2857 12.0714 22.2857C11.7558 22.2857 11.5 22.0298 11.5 21.7143C11.5 21.3987 11.7558 21.1428 12.0714 21.1428C12.387 21.1428 12.6429 21.3987 12.6429 21.7143Z" fill="#67707B"/>
<path d="M17.7143 12.5714C17.7143 12.887 17.4584 13.1429 17.1428 13.1429C16.8272 13.1429 16.5714 12.887 16.5714 12.5714C16.5714 12.2558 16.8272 12 17.1428 12C17.4584 12 17.7143 12.2558 17.7143 12.5714Z" fill="#67707B"/>
<path d="M20.1429 12.5714C20.1429 12.887 19.887 13.1429 19.5714 13.1429C19.2558 13.1429 19 12.887 19 12.5714C19 12.2558 19.2558 12 19.5714 12C19.887 12 20.1429 12.2558 20.1429 12.5714Z" fill="#67707B"/>
<path d="M17.7143 14.8572C17.7143 15.1728 17.4584 15.4286 17.1428 15.4286C16.8272 15.4286 16.5714 15.1728 16.5714 14.8572C16.5714 14.5416 16.8272 14.2858 17.1428 14.2858C17.4584 14.2858 17.7143 14.5416 17.7143 14.8572Z" fill="#67707B"/>
<path d="M20.1429 14.8572C20.1429 15.1728 19.887 15.4286 19.5714 15.4286C19.2558 15.4286 19 15.1728 19 14.8572C19 14.5416 19.2558 14.2858 19.5714 14.2858C19.887 14.2858 20.1429 14.5416 20.1429 14.8572Z" fill="#67707B"/>
<path d="M17.7143 17.1428C17.7143 17.4584 17.4584 17.7143 17.1428 17.7143C16.8272 17.7143 16.5714 17.4584 16.5714 17.1428C16.5714 16.8272 16.8272 16.5714 17.1428 16.5714C17.4584 16.5714 17.7143 16.8272 17.7143 17.1428Z" fill="#67707B"/>
<path d="M20.1429 17.1428C20.1429 17.4584 19.887 17.7143 19.5714 17.7143C19.2558 17.7143 19 17.4584 19 17.1428C19 16.8272 19.2558 16.5714 19.5714 16.5714C19.887 16.5714 20.1429 16.8272 20.1429 17.1428Z" fill="#67707B"/>
<path d="M17.7143 19.4286C17.7143 19.7442 17.4584 20 17.1428 20C16.8272 20 16.5714 19.7442 16.5714 19.4286C16.5714 19.113 16.8272 18.8572 17.1428 18.8572C17.4584 18.8572 17.7143 19.113 17.7143 19.4286Z" fill="#67707B"/>
<path d="M20.1429 19.4286C20.1429 19.7442 19.887 20 19.5714 20C19.2558 20 19 19.7442 19 19.4286C19 19.113 19.2558 18.8572 19.5714 18.8572C19.887 18.8572 20.1429 19.113 20.1429 19.4286Z" fill="#67707B"/>
<path d="M17.7143 21.7143C17.7143 22.0298 17.4584 22.2857 17.1428 22.2857C16.8272 22.2857 16.5714 22.0298 16.5714 21.7143C16.5714 21.3987 16.8272 21.1428 17.1428 21.1428C17.4584 21.1428 17.7143 21.3987 17.7143 21.7143Z" fill="#67707B"/>
<path d="M20.1429 21.7143C20.1429 22.0298 19.887 22.2857 19.5714 22.2857C19.2558 22.2857 19 22.0298 19 21.7143C19 21.3987 19.2558 21.1428 19.5714 21.1428C19.887 21.1428 20.1429 21.3987 20.1429 21.7143Z" fill="#67707B"/>
<path fill-rule="evenodd" clip-rule="evenodd" d="M4.05271 21.8657L6.10355 19.6876L8.14874 21.8686L11.0049 18.818L8.30624 15.9418L11.0016 13.063L8.14995 10L6.10218 12.1906L4.05394 10.0029L-1.49993 15.9442L4.05271 21.8657ZM6.48435 15.9428L9.18299 18.819L8.14798 19.9245L4.41432 15.9428L8.14798 11.9487L9.18299 13.0604L6.48435 15.9428ZM0.321043 15.9428L4.0547 19.9245L5.08971 18.8252L2.39107 15.9428L5.08971 13.0542L4.0547 11.9487L0.321043 15.9428Z" fill="#0E141B"/>
<path fill-rule="evenodd" clip-rule="evenodd" d="M27.9522 21.8657L25.9013 19.6876L23.8561 21.8686L21 18.818L23.6986 15.9418L21.0033 13.063L23.8549 10L25.9027 12.1906L27.9509 10.0029L33.5048 15.9442L27.9522 21.8657ZM25.5205 15.9428L22.8219 18.819L23.8569 19.9245L27.5906 15.9428L23.8569 11.9487L22.8219 13.0604L25.5205 15.9428ZM31.6838 15.9428L27.9502 19.9245L26.9152 18.8252L29.6138 15.9428L26.9152 13.0542L27.9502 11.9487L31.6838 15.9428Z" fill="#0E141B"/>
<path d="M0.320913 15.9429L4.05457 19.9245L5.08958 18.8252L2.39094 15.9429L5.08958 13.0542L4.05457 11.9487L0.320913 15.9429Z" fill="white"/>
<path d="M6.48422 15.9429L9.18286 18.819L8.14785 19.9245L4.41419 15.9429L8.14785 11.9487L9.18286 13.0605L6.48422 15.9429Z" fill="white"/>
<path d="M31.6838 15.9429L27.9502 19.9245L26.9152 18.8252L29.6138 15.9429L26.9152 13.0542L27.9502 11.9487L31.6838 15.9429Z" fill="white"/>
<path d="M25.5205 15.9429L22.8219 18.819L23.8569 19.9245L27.5906 15.9429L23.8569 11.9487L22.8219 13.0605L25.5205 15.9429Z" fill="white"/>
</g>
<defs>
<clipPath id="clip0_2642_21575">
<rect width="32" height="32" fill="white"/>
</clipPath>
</defs>
</svg>
