<svg width="64" height="64" viewBox="0 0 64 64" fill="none" xmlns="http://www.w3.org/2000/svg">
<g clip-path="url(#clip0_1967:20204)">
<path d="M8.53442 7H54.2252C55.3999 7 56.3521 7.95223 56.3521 9.12687V48.1195C56.3521 52.8181 52.5432 56.627 47.8446 56.627H8.53442V7Z" fill="black"/>
<circle cx="34.6402" cy="22.5085" r="1.55084" fill="#67707B"/>
<circle cx="28.4368" cy="22.5085" r="1.55084" fill="#67707B"/>
<circle cx="34.6402" cy="28.712" r="1.55084" fill="#67707B"/>
<circle cx="28.4368" cy="28.712" r="1.55084" fill="#67707B"/>
<circle cx="16.0303" cy="28.712" r="1.55084" fill="#67707B"/>
<circle cx="47.0469" cy="28.712" r="1.55084" fill="#67707B"/>
<circle cx="34.6402" cy="34.9152" r="1.55084" fill="#67707B"/>
<circle cx="28.4368" cy="34.9152" r="1.55084" fill="#67707B"/>
<circle cx="16.0303" cy="34.9152" r="1.55084" fill="#67707B"/>
<circle cx="34.6402" cy="41.1185" r="1.55084" fill="#67707B"/>
<circle cx="28.4368" cy="41.1185" r="1.55084" fill="#67707B"/>
<circle cx="34.6402" cy="47.322" r="1.55084" fill="#67707B"/>
<circle cx="28.4368" cy="47.322" r="1.55084" fill="#67707B"/>
<circle cx="22.2335" cy="47.322" r="1.55084" fill="#67707B"/>
<circle cx="16.0303" cy="47.322" r="1.55084" fill="#67707B"/>
<circle cx="40.8436" cy="47.322" r="1.55084" fill="#67707B"/>
<circle cx="47.0469" cy="34.9152" r="1.55084" fill="#67707B"/>
<circle cx="47.0469" cy="47.322" r="1.55084" fill="#67707B"/>
<path fill-rule="evenodd" clip-rule="evenodd" d="M11.1052 43.6716L15.2069 39.3155L19.2972 43.6775L25.0095 37.5763L19.6122 31.824L25.0029 26.0663L19.2997 19.9403L15.2041 24.3216L11.1076 19.9462L-9.72748e-05 31.8288L11.1052 43.6716ZM15.9685 31.8259L21.3657 37.5782L19.2957 39.7892L11.8284 31.8259L19.2957 23.8377L21.3657 26.0612L15.9685 31.8259ZM3.64184 31.8259L11.1092 39.7892L13.1792 37.5907L7.7819 31.8259L13.1792 26.0487L11.1092 23.8377L3.64184 31.8259Z" fill="black"/>
<path fill-rule="evenodd" clip-rule="evenodd" d="M52.8948 43.6716L48.7931 39.3155L44.7028 43.6775L38.9905 37.5763L44.3878 31.824L38.9971 26.0663L44.7003 19.9403L48.7959 24.3216L52.8924 19.9462L64.0001 31.8288L52.8948 43.6716ZM48.0315 31.8259L42.6343 37.5782L44.7043 39.7892L52.1716 31.8259L44.7043 23.8377L42.6343 26.0612L48.0315 31.8259ZM60.3582 31.8259L52.8908 39.7892L50.8208 37.5907L56.2181 31.8259L50.8208 26.0487L52.8908 23.8377L60.3582 31.8259Z" fill="black"/>
<path d="M3.64183 31.826L11.1091 39.7893L13.1792 37.5908L7.78189 31.826L13.1792 26.0487L11.1091 23.8378L3.64183 31.826Z" fill="white"/>
<path d="M15.9684 31.826L21.3657 37.5783L19.2957 39.7893L11.8284 31.826L19.2957 23.8378L21.3657 26.0612L15.9684 31.826Z" fill="white"/>
<path d="M60.3584 31.826L52.8911 39.7893L50.8211 37.5908L56.2184 31.826L50.8211 26.0487L52.8911 23.8378L60.3584 31.826Z" fill="white"/>
<path d="M48.0318 31.826L42.6345 37.5783L44.7046 39.7893L52.1719 31.826L44.7046 23.8378L42.6345 26.0612L48.0318 31.826Z" fill="white"/>
</g>
<defs>
<clipPath id="clip0_1967:20204">
<rect width="64" height="64" fill="white"/>
</clipPath>
</defs>
</svg>
