<svg width="32" height="32" viewBox="0 0 32 32" fill="none" xmlns="http://www.w3.org/2000/svg">
<g clip-path="url(#clip0_1967_20204)">
<path d="M4.26709 3.5H27.1125C27.6998 3.5 28.1759 3.97612 28.1759 4.56343V24.0598C28.1759 26.409 26.2715 28.3135 23.9222 28.3135H4.26709V3.5Z" fill="#0E141B"/>
<path d="M18.0956 11.2543C18.0956 11.6826 17.7485 12.0297 17.3202 12.0297C16.892 12.0297 16.5448 11.6826 16.5448 11.2543C16.5448 10.826 16.892 10.4789 17.3202 10.4789C17.7485 10.4789 18.0956 10.826 18.0956 11.2543Z" fill="#67707B"/>
<path d="M14.9937 11.2543C14.9937 11.6826 14.6465 12.0297 14.2183 12.0297C13.79 12.0297 13.4429 11.6826 13.4429 11.2543C13.4429 10.826 13.79 10.4789 14.2183 10.4789C14.6465 10.4789 14.9937 10.826 14.9937 11.2543Z" fill="#67707B"/>
<path d="M18.0956 14.356C18.0956 14.7842 17.7485 15.1314 17.3202 15.1314C16.892 15.1314 16.5448 14.7842 16.5448 14.356C16.5448 13.9277 16.892 13.5806 17.3202 13.5806C17.7485 13.5806 18.0956 13.9277 18.0956 14.356Z" fill="#67707B"/>
<path d="M14.9937 14.356C14.9937 14.7842 14.6465 15.1314 14.2183 15.1314C13.79 15.1314 13.4429 14.7842 13.4429 14.356C13.4429 13.9277 13.79 13.5806 14.2183 13.5806C14.6465 13.5806 14.9937 13.9277 14.9937 14.356Z" fill="#67707B"/>
<path d="M8.79047 14.356C8.79047 14.7842 8.4433 15.1314 8.01505 15.1314C7.58679 15.1314 7.23962 14.7842 7.23962 14.356C7.23962 13.9277 7.58679 13.5806 8.01505 13.5806C8.4433 13.5806 8.79047 13.9277 8.79047 14.356Z" fill="#67707B"/>
<path d="M24.2989 14.356C24.2989 14.7842 23.9517 15.1314 23.5235 15.1314C23.0952 15.1314 22.748 14.7842 22.748 14.356C22.748 13.9277 23.0952 13.5806 23.5235 13.5806C23.9517 13.5806 24.2989 13.9277 24.2989 14.356Z" fill="#67707B"/>
<path d="M18.0956 17.4576C18.0956 17.8858 17.7485 18.233 17.3202 18.233C16.892 18.233 16.5448 17.8858 16.5448 17.4576C16.5448 17.0293 16.892 16.6821 17.3202 16.6821C17.7485 16.6821 18.0956 17.0293 18.0956 17.4576Z" fill="#67707B"/>
<path d="M14.9937 17.4576C14.9937 17.8858 14.6465 18.233 14.2183 18.233C13.79 18.233 13.4429 17.8858 13.4429 17.4576C13.4429 17.0293 13.79 16.6821 14.2183 16.6821C14.6465 16.6821 14.9937 17.0293 14.9937 17.4576Z" fill="#67707B"/>
<path d="M8.79047 17.4576C8.79047 17.8858 8.4433 18.233 8.01505 18.233C7.58679 18.233 7.23962 17.8858 7.23962 17.4576C7.23962 17.0293 7.58679 16.6821 8.01505 16.6821C8.4433 16.6821 8.79047 17.0293 8.79047 17.4576Z" fill="#67707B"/>
<path d="M18.0956 20.5592C18.0956 20.9875 17.7485 21.3347 17.3202 21.3347C16.892 21.3347 16.5448 20.9875 16.5448 20.5592C16.5448 20.131 16.892 19.7838 17.3202 19.7838C17.7485 19.7838 18.0956 20.131 18.0956 20.5592Z" fill="#67707B"/>
<path d="M14.9937 20.5592C14.9937 20.9875 14.6465 21.3347 14.2183 21.3347C13.79 21.3347 13.4429 20.9875 13.4429 20.5592C13.4429 20.131 13.79 19.7838 14.2183 19.7838C14.6465 19.7838 14.9937 20.131 14.9937 20.5592Z" fill="#67707B"/>
<path d="M18.0956 23.6609C18.0956 24.0892 17.7485 24.4363 17.3202 24.4363C16.892 24.4363 16.5448 24.0892 16.5448 23.6609C16.5448 23.2327 16.892 22.8855 17.3202 22.8855C17.7485 22.8855 18.0956 23.2327 18.0956 23.6609Z" fill="#67707B"/>
<path d="M14.9937 23.6609C14.9937 24.0892 14.6465 24.4363 14.2183 24.4363C13.79 24.4363 13.4429 24.0892 13.4429 23.6609C13.4429 23.2327 13.79 22.8855 14.2183 22.8855C14.6465 22.8855 14.9937 23.2327 14.9937 23.6609Z" fill="#67707B"/>
<path d="M11.892 23.6609C11.892 24.0892 11.5449 24.4363 11.1166 24.4363C10.6884 24.4363 10.3412 24.0892 10.3412 23.6609C10.3412 23.2327 10.6884 22.8855 11.1166 22.8855C11.5449 22.8855 11.892 23.2327 11.892 23.6609Z" fill="#67707B"/>
<path d="M8.79047 23.6609C8.79047 24.0892 8.4433 24.4363 8.01505 24.4363C7.58679 24.4363 7.23962 24.0892 7.23962 23.6609C7.23962 23.2327 7.58679 22.8855 8.01505 22.8855C8.4433 22.8855 8.79047 23.2327 8.79047 23.6609Z" fill="#67707B"/>
<path d="M21.1971 23.6609C21.1971 24.0892 20.8499 24.4363 20.4217 24.4363C19.9934 24.4363 19.6462 24.0892 19.6462 23.6609C19.6462 23.2327 19.9934 22.8855 20.4217 22.8855C20.8499 22.8855 21.1971 23.2327 21.1971 23.6609Z" fill="#67707B"/>
<path d="M24.2989 17.4576C24.2989 17.8858 23.9517 18.233 23.5235 18.233C23.0952 18.233 22.748 17.8858 22.748 17.4576C22.748 17.0293 23.0952 16.6821 23.5235 16.6821C23.9517 16.6821 24.2989 17.0293 24.2989 17.4576Z" fill="#67707B"/>
<path d="M24.2989 23.6609C24.2989 24.0892 23.9517 24.4363 23.5235 24.4363C23.0952 24.4363 22.748 24.0892 22.748 23.6609C22.748 23.2327 23.0952 22.8855 23.5235 22.8855C23.9517 22.8855 24.2989 23.2327 24.2989 23.6609Z" fill="#67707B"/>
<path fill-rule="evenodd" clip-rule="evenodd" d="M5.55259 21.8359L7.60343 19.6578L9.64861 21.8388L12.5048 18.7882L9.80612 15.912L12.5014 13.0332L9.64983 9.97021L7.60206 12.1608L5.55382 9.97314L-4.86374e-05 15.9145L5.55259 21.8359ZM7.98423 15.913L10.6829 18.7892L9.64785 19.8947L5.9142 15.913L9.64785 11.9189L10.6829 13.0306L7.98423 15.913ZM1.82092 15.913L5.55458 19.8947L6.58959 18.7954L3.89095 15.913L6.58959 13.0244L5.55458 11.9189L1.82092 15.913Z" fill="#0E141B"/>
<path fill-rule="evenodd" clip-rule="evenodd" d="M26.4474 21.8359L24.3966 19.6578L22.3514 21.8388L19.4952 18.7882L22.1939 15.912L19.4986 13.0332L22.3502 9.97021L24.3979 12.1608L26.4462 9.97314L32 15.9145L26.4474 21.8359ZM24.0158 15.913L21.3171 18.7892L22.3521 19.8947L26.0858 15.913L22.3521 11.9189L21.3171 13.0306L24.0158 15.913ZM30.1791 15.913L26.4454 19.8947L25.4104 18.7954L28.109 15.913L25.4104 13.0244L26.4454 11.9189L30.1791 15.913Z" fill="#0E141B"/>
<path d="M1.82091 15.9129L5.55457 19.8946L6.58958 18.7953L3.89094 15.9129L6.58958 13.0243L5.55457 11.9188L1.82091 15.9129Z" fill="white"/>
<path d="M7.98422 15.9129L10.6829 18.7891L9.64785 19.8946L5.91419 15.9129L9.64785 11.9188L10.6829 13.0306L7.98422 15.9129Z" fill="white"/>
<path d="M30.1791 15.9129L26.4454 19.8946L25.4104 18.7953L28.1091 15.9129L25.4104 13.0243L26.4454 11.9188L30.1791 15.9129Z" fill="white"/>
<path d="M24.0158 15.9129L21.3171 18.7891L22.3522 19.8946L26.0858 15.9129L22.3522 11.9188L21.3171 13.0306L24.0158 15.9129Z" fill="white"/>
</g>
<defs>
<clipPath id="clip0_1967_20204">
<rect width="32" height="32" fill="white"/>
</clipPath>
</defs>
</svg>
