<svg width="64" height="64" viewBox="0 0 64 64" fill="none" xmlns="http://www.w3.org/2000/svg">
<g clip-path="url(#clip0_1967:19725)">
<path d="M10.1509 17.9347H51.4657C53.1617 17.9347 54.5367 19.3096 54.5367 21.0057V51.7159C54.5367 58.5002 49.0369 63.9999 42.2526 63.9999H10.1509V17.9347Z" fill="black"/>
<path d="M35.8227 32.3302C35.8227 33.1252 35.1782 33.7697 34.3831 33.7697C33.5881 33.7697 32.9436 33.1252 32.9436 32.3302C32.9436 31.5351 33.5881 30.8906 34.3831 30.8906C35.1782 30.8906 35.8227 31.5351 35.8227 32.3302Z" fill="#67707B"/>
<path d="M30.0645 32.3302C30.0645 33.1252 29.42 33.7697 28.625 33.7697C27.8299 33.7697 27.1854 33.1252 27.1854 32.3302C27.1854 31.5351 27.8299 30.8906 28.625 30.8906C29.42 30.8906 30.0645 31.5351 30.0645 32.3302Z" fill="#67707B"/>
<path d="M24.3062 32.3302C24.3062 33.1252 23.6617 33.7697 22.8667 33.7697C22.0716 33.7697 21.4271 33.1252 21.4271 32.3302C21.4271 31.5351 22.0716 30.8906 22.8667 30.8906C23.6617 30.8906 24.3062 31.5351 24.3062 32.3302Z" fill="#67707B"/>
<path d="M18.5483 32.3302C18.5483 33.1252 17.9038 33.7697 17.1087 33.7697C16.3137 33.7697 15.6692 33.1252 15.6692 32.3302C15.6692 31.5351 16.3137 30.8906 17.1087 30.8906C17.9038 30.8906 18.5483 31.5351 18.5483 32.3302Z" fill="#67707B"/>
<path d="M41.5805 32.3302C41.5805 33.1252 40.936 33.7697 40.141 33.7697C39.3459 33.7697 38.7014 33.1252 38.7014 32.3302C38.7014 31.5351 39.3459 30.8906 40.141 30.8906C40.936 30.8906 41.5805 31.5351 41.5805 32.3302Z" fill="#67707B"/>
<path d="M47.3392 32.3302C47.3392 33.1252 46.6947 33.7697 45.8996 33.7697C45.1046 33.7697 44.4601 33.1252 44.4601 32.3302C44.4601 31.5351 45.1046 30.8906 45.8996 30.8906C46.6947 30.8906 47.3392 31.5351 47.3392 32.3302Z" fill="#67707B"/>
<path d="M35.8227 38.0881C35.8227 38.8831 35.1782 39.5276 34.3831 39.5276C33.5881 39.5276 32.9436 38.8831 32.9436 38.0881C32.9436 37.2931 33.5881 36.6486 34.3831 36.6486C35.1782 36.6486 35.8227 37.2931 35.8227 38.0881Z" fill="#67707B"/>
<path d="M30.0645 38.0881C30.0645 38.8831 29.42 39.5276 28.625 39.5276C27.8299 39.5276 27.1854 38.8831 27.1854 38.0881C27.1854 37.2931 27.8299 36.6486 28.625 36.6486C29.42 36.6486 30.0645 37.2931 30.0645 38.0881Z" fill="#67707B"/>
<path d="M24.3062 38.0881C24.3062 38.8831 23.6617 39.5276 22.8667 39.5276C22.0716 39.5276 21.4271 38.8831 21.4271 38.0881C21.4271 37.2931 22.0716 36.6486 22.8667 36.6486C23.6617 36.6486 24.3062 37.2931 24.3062 38.0881Z" fill="#67707B"/>
<path d="M18.5483 38.0881C18.5483 38.8831 17.9038 39.5276 17.1087 39.5276C16.3137 39.5276 15.6692 38.8831 15.6692 38.0881C15.6692 37.2931 16.3137 36.6486 17.1087 36.6486C17.9038 36.6486 18.5483 37.2931 18.5483 38.0881Z" fill="#67707B"/>
<path d="M41.5805 38.0881C41.5805 38.8831 40.936 39.5276 40.141 39.5276C39.3459 39.5276 38.7014 38.8831 38.7014 38.0881C38.7014 37.2931 39.3459 36.6486 40.141 36.6486C40.936 36.6486 41.5805 37.2931 41.5805 38.0881Z" fill="#67707B"/>
<path d="M47.3392 38.0881C47.3392 38.8831 46.6947 39.5276 45.8996 39.5276C45.1046 39.5276 44.4601 38.8831 44.4601 38.0881C44.4601 37.2931 45.1046 36.6486 45.8996 36.6486C46.6947 36.6486 47.3392 37.2931 47.3392 38.0881Z" fill="#67707B"/>
<path d="M35.8227 43.8463C35.8227 44.6413 35.1782 45.2858 34.3831 45.2858C33.5881 45.2858 32.9436 44.6413 32.9436 43.8463C32.9436 43.0512 33.5881 42.4067 34.3831 42.4067C35.1782 42.4067 35.8227 43.0512 35.8227 43.8463Z" fill="#67707B"/>
<path d="M30.0645 43.8463C30.0645 44.6413 29.42 45.2858 28.625 45.2858C27.8299 45.2858 27.1854 44.6413 27.1854 43.8463C27.1854 43.0512 27.8299 42.4067 28.625 42.4067C29.42 42.4067 30.0645 43.0512 30.0645 43.8463Z" fill="#67707B"/>
<path d="M24.3062 43.8463C24.3062 44.6413 23.6617 45.2858 22.8667 45.2858C22.0716 45.2858 21.4271 44.6413 21.4271 43.8463C21.4271 43.0512 22.0716 42.4067 22.8667 42.4067C23.6617 42.4067 24.3062 43.0512 24.3062 43.8463Z" fill="#67707B"/>
<path d="M18.5483 43.8463C18.5483 44.6413 17.9038 45.2858 17.1087 45.2858C16.3137 45.2858 15.6692 44.6413 15.6692 43.8463C15.6692 43.0512 16.3137 42.4067 17.1087 42.4067C17.9038 42.4067 18.5483 43.0512 18.5483 43.8463Z" fill="#67707B"/>
<path d="M35.8227 49.6046C35.8227 50.3996 35.1782 51.0441 34.3831 51.0441C33.5881 51.0441 32.9436 50.3996 32.9436 49.6046C32.9436 48.8095 33.5881 48.165 34.3831 48.165C35.1782 48.165 35.8227 48.8095 35.8227 49.6046Z" fill="#67707B"/>
<path d="M30.0645 49.6046C30.0645 50.3996 29.42 51.0441 28.625 51.0441C27.8299 51.0441 27.1854 50.3996 27.1854 49.6046C27.1854 48.8095 27.8299 48.165 28.625 48.165C29.42 48.165 30.0645 48.8095 30.0645 49.6046Z" fill="#67707B"/>
<path d="M24.3062 49.6046C24.3062 50.3996 23.6617 51.0441 22.8667 51.0441C22.0716 51.0441 21.4271 50.3996 21.4271 49.6046C21.4271 48.8095 22.0716 48.165 22.8667 48.165C23.6617 48.165 24.3062 48.8095 24.3062 49.6046Z" fill="#67707B"/>
<path d="M18.5483 49.6046C18.5483 50.3996 17.9038 51.0441 17.1087 51.0441C16.3137 51.0441 15.6692 50.3996 15.6692 49.6046C15.6692 48.8095 16.3137 48.165 17.1087 48.165C17.9038 48.165 18.5483 48.8095 18.5483 49.6046Z" fill="#67707B"/>
<path d="M35.8227 55.3628C35.8227 56.1578 35.1782 56.8023 34.3831 56.8023C33.5881 56.8023 32.9436 56.1578 32.9436 55.3628C32.9436 54.5677 33.5881 53.9232 34.3831 53.9232C35.1782 53.9232 35.8227 54.5677 35.8227 55.3628Z" fill="#67707B"/>
<path d="M30.0645 55.3628C30.0645 56.1578 29.42 56.8023 28.625 56.8023C27.8299 56.8023 27.1854 56.1578 27.1854 55.3628C27.1854 54.5677 27.8299 53.9232 28.625 53.9232C29.42 53.9232 30.0645 54.5677 30.0645 55.3628Z" fill="#67707B"/>
<path d="M24.3062 55.3628C24.3062 56.1578 23.6617 56.8023 22.8667 56.8023C22.0716 56.8023 21.4271 56.1578 21.4271 55.3628C21.4271 54.5677 22.0716 53.9232 22.8667 53.9232C23.6617 53.9232 24.3062 54.5677 24.3062 55.3628Z" fill="#67707B"/>
<path d="M18.5483 55.3628C18.5483 56.1578 17.9038 56.8023 17.1087 56.8023C16.3137 56.8023 15.6692 56.1578 15.6692 55.3628C15.6692 54.5677 16.3137 53.9232 17.1087 53.9232C17.9038 53.9232 18.5483 54.5677 18.5483 55.3628Z" fill="#67707B"/>
<path d="M41.5805 43.8463C41.5805 44.6413 40.936 45.2858 40.141 45.2858C39.3459 45.2858 38.7014 44.6413 38.7014 43.8463C38.7014 43.0512 39.3459 42.4067 40.141 42.4067C40.936 42.4067 41.5805 43.0512 41.5805 43.8463Z" fill="#67707B"/>
<path d="M41.5805 49.6046C41.5805 50.3996 40.936 51.0441 40.141 51.0441C39.3459 51.0441 38.7014 50.3996 38.7014 49.6046C38.7014 48.8095 39.3459 48.165 40.141 48.165C40.936 48.165 41.5805 48.8095 41.5805 49.6046Z" fill="#67707B"/>
<path d="M41.5805 55.3628C41.5805 56.1578 40.936 56.8023 40.141 56.8023C39.3459 56.8023 38.7014 56.1578 38.7014 55.3628C38.7014 54.5677 39.3459 53.9232 40.141 53.9232C40.936 53.9232 41.5805 54.5677 41.5805 55.3628Z" fill="#67707B"/>
<path d="M47.3392 43.8463C47.3392 44.6413 46.6947 45.2858 45.8996 45.2858C45.1046 45.2858 44.4601 44.6413 44.4601 43.8463C44.4601 43.0512 45.1046 42.4067 45.8996 42.4067C46.6947 42.4067 47.3392 43.0512 47.3392 43.8463Z" fill="#67707B"/>
<path d="M47.3392 49.6046C47.3392 50.3996 46.6947 51.0441 45.8996 51.0441C45.1046 51.0441 44.4601 50.3996 44.4601 49.6046C44.4601 48.8095 45.1046 48.165 45.8996 48.165C46.6947 48.165 47.3392 48.8095 47.3392 49.6046Z" fill="#67707B"/>
<path d="M47.3392 55.3628C47.3392 56.1578 46.6947 56.8023 45.8996 56.8023C45.1046 56.8023 44.4601 56.1578 44.4601 55.3628C44.4601 54.5677 45.1046 53.9232 45.8996 53.9232C46.6947 53.9232 47.3392 54.5677 47.3392 55.3628Z" fill="#67707B"/>
<path d="M25.506 12.8164L33.1835 3.85927L40.8611 12.8164L25.506 12.8164Z" fill="white"/>
<path fill-rule="evenodd" clip-rule="evenodd" d="M19.9416 15.3756L33.1834 -0.0731184L46.4252 15.3756L19.9416 15.3756ZM25.5059 12.8164L40.8609 12.8164L33.1834 3.85929L25.5059 12.8164Z" fill="black"/>
</g>
<defs>
<clipPath id="clip0_1967:19725">
<rect width="64" height="64" fill="white"/>
</clipPath>
</defs>
</svg>
