<svg width="64" height="64" viewBox="0 0 64 64" fill="none" xmlns="http://www.w3.org/2000/svg">
<path fill-rule="evenodd" clip-rule="evenodd" d="M10.7866 53.2132L61.9998 2V32C61.9998 48.5685 48.5684 62 31.9998 62C23.7156 62 16.2156 58.6421 10.7866 53.2132Z" fill="#67707B"/>
<path fill-rule="evenodd" clip-rule="evenodd" d="M62 2H2V32C2 40.2843 5.35786 47.7843 10.7868 53.2132L62 2Z" fill="black"/>
<path d="M30.3508 39H19V22.2865H23.0075V35.2753H30.3508V39Z" fill="white"/>
<path d="M38.7262 35.4424H46V39H33.6531V35.6096L38.3324 31.6938C39.0582 31.073 39.6065 30.5796 39.9771 30.2135C40.3478 29.8474 40.6335 29.4733 40.8342 29.0913C41.0504 28.7093 41.1585 28.2875 41.1585 27.8258C41.1585 27.1096 40.8883 26.5684 40.3477 26.2022C39.8227 25.8361 39.1509 25.6531 38.3324 25.6531C37.7147 25.6531 37.1047 25.7486 36.5024 25.9396C35.9001 26.1147 35.3596 26.3535 34.8808 26.6559L33.5836 23.5997C34.3249 23.1063 35.1511 22.7163 36.0622 22.4298C36.9888 22.1433 37.9772 22 39.0273 22C40.9732 22 42.5407 22.4218 43.7298 23.2654C44.919 24.0932 45.5135 25.3188 45.5135 26.9424C45.5135 28.0566 45.2047 29.0754 44.5869 29.9986C43.9846 30.9059 43.0503 31.8848 41.784 32.9354L38.7262 35.4424Z" fill="white"/>
</svg>
