<svg width="64" height="64" viewBox="0 0 64 64" fill="none" xmlns="http://www.w3.org/2000/svg">
<path d="M64 16C64 14.8954 63.1046 14 62 14H2C0.895428 14 -2.86102e-06 14.8954 -2.86102e-06 16V42.5714C-2.86102e-06 46.9897 3.58172 50.5714 8 50.5714H56C60.4183 50.5714 64 46.9897 64 42.5714V16Z" fill="black"/>
<circle r="1.14286" transform="matrix(-1 0 0 1 57.1429 25.4286)" fill="#67707B"/>
<circle r="1.14286" transform="matrix(-1 0 0 1 34.2857 25.4286)" fill="#67707B"/>
<circle r="1.14286" transform="matrix(-1 0 0 1 57.1429 30)" fill="#67707B"/>
<circle r="1.14286" transform="matrix(-1 0 0 1 34.2857 30)" fill="#67707B"/>
<circle r="1.14286" transform="matrix(-1 0 0 1 57.1429 34.5714)" fill="#67707B"/>
<circle r="1.14286" transform="matrix(-1 0 0 1 57.1429 39.1429)" fill="#67707B"/>
<circle r="1.14286" transform="matrix(-1 0 0 1 57.1429 43.7143)" fill="#67707B"/>
<circle r="1.14286" transform="matrix(-1 0 0 1 34.2857 34.5714)" fill="#67707B"/>
<circle r="1.14286" transform="matrix(-1 0 0 1 34.2857 39.1429)" fill="#67707B"/>
<circle r="1.14286" transform="matrix(-1 0 0 1 34.2857 43.7143)" fill="#67707B"/>
<circle r="1.14286" transform="matrix(-1 0 0 1 52.5714 25.4286)" fill="#67707B"/>
<circle r="1.14286" transform="matrix(-1 0 0 1 29.7143 25.4286)" fill="#67707B"/>
<circle r="1.14286" transform="matrix(-1 0 0 1 52.5714 30)" fill="#67707B"/>
<circle r="1.14286" transform="matrix(-1 0 0 1 29.7143 30)" fill="#67707B"/>
<circle r="1.14286" transform="matrix(-1 0 0 1 52.5714 34.5714)" fill="#67707B"/>
<circle r="1.14286" transform="matrix(-1 0 0 1 52.5714 39.1429)" fill="#67707B"/>
<circle r="1.14286" transform="matrix(-1 0 0 1 52.5714 43.7143)" fill="#67707B"/>
<circle r="1.14286" transform="matrix(-1 0 0 1 29.7143 34.5714)" fill="#67707B"/>
<circle r="1.14286" transform="matrix(-1 0 0 1 29.7143 39.1429)" fill="#67707B"/>
<circle r="1.14286" transform="matrix(-1 0 0 1 29.7143 43.7143)" fill="#67707B"/>
<circle r="1.14286" transform="matrix(-1 0 0 1 48 25.4286)" fill="#67707B"/>
<circle r="1.14286" transform="matrix(-1 0 0 1 25.1429 25.4286)" fill="#67707B"/>
<circle r="1.14286" transform="matrix(-1 0 0 1 20.5714 25.4286)" fill="#67707B"/>
<circle r="1.14286" transform="matrix(-1 0 0 1 48 30)" fill="#67707B"/>
<circle r="1.14286" transform="matrix(-1 0 0 1 25.1429 30)" fill="#67707B"/>
<circle r="1.14286" transform="matrix(-1 0 0 1 20.5714 30)" fill="#67707B"/>
<circle r="1.14286" transform="matrix(-1 0 0 1 48 34.5714)" fill="#67707B"/>
<circle r="1.14286" transform="matrix(-1 0 0 1 48 39.1429)" fill="#67707B"/>
<circle r="1.14286" transform="matrix(-1 0 0 1 48 43.7143)" fill="#67707B"/>
<circle r="1.14286" transform="matrix(-1 0 0 1 25.1429 34.5714)" fill="#67707B"/>
<circle r="1.14286" transform="matrix(-1 0 0 1 25.1429 39.1429)" fill="#67707B"/>
<circle r="1.14286" transform="matrix(-1 0 0 1 25.1429 43.7143)" fill="#67707B"/>
<circle r="1.14286" transform="matrix(-1 0 0 1 20.5714 34.5714)" fill="#67707B"/>
<circle r="1.14286" transform="matrix(-1 0 0 1 20.5714 39.1429)" fill="#67707B"/>
<circle r="1.14286" transform="matrix(-1 0 0 1 20.5714 43.7143)" fill="#67707B"/>
<circle r="1.14286" transform="matrix(-1 0 0 1 43.4286 25.4286)" fill="#67707B"/>
<circle r="1.14286" transform="matrix(-1 0 0 1 38.8571 25.4286)" fill="#67707B"/>
<circle r="1.14286" transform="matrix(-1 0 0 1 43.4286 30)" fill="#67707B"/>
<circle r="1.14286" transform="matrix(-1 0 0 1 38.8571 30)" fill="#67707B"/>
<circle r="1.14286" transform="matrix(-1 0 0 1 43.4286 34.5714)" fill="#67707B"/>
<circle r="1.14286" transform="matrix(-1 0 0 1 43.4286 39.1429)" fill="#67707B"/>
<circle r="1.14286" transform="matrix(-1 0 0 1 43.4286 43.7143)" fill="#67707B"/>
<circle r="1.14286" transform="matrix(-1 0 0 1 38.8571 34.5714)" fill="#67707B"/>
<circle r="1.14286" transform="matrix(-1 0 0 1 38.8571 39.1429)" fill="#67707B"/>
<circle r="1.14286" transform="matrix(-1 0 0 1 38.8571 43.7143)" fill="#67707B"/>
<path d="M13 41L3 32.5L13 24L13 41Z" fill="white"/>
</svg>
