<svg width="64" height="64" viewBox="0 0 64 64" fill="none" xmlns="http://www.w3.org/2000/svg">
<g clip-path="url(#clip0_1967:15778)">
<path d="M55.9641 0H11.2313C9.4666 0 8.03605 1.43054 8.03605 3.1952V38.3425C8.03605 45.4011 13.7582 51.1233 20.8169 51.1233H55.9641V0Z" fill="black"/>
<path d="M47.9759 28.7568C47.9759 29.6391 48.6912 30.3544 49.5735 30.3544C50.4559 30.3544 51.1711 29.6391 51.1711 28.7568C51.1711 27.8745 50.4559 27.1592 49.5735 27.1592C48.6912 27.1592 47.9759 27.8745 47.9759 28.7568Z" fill="#67707B"/>
<path d="M47.9759 22.3664C47.9759 23.2487 48.6912 23.964 49.5735 23.964C50.4559 23.964 51.1711 23.2487 51.1711 22.3664C51.1711 21.4841 50.4559 20.7688 49.5735 20.7688C48.6912 20.7688 47.9759 21.4841 47.9759 22.3664Z" fill="#67707B"/>
<path d="M47.9759 15.9759C47.9759 16.8582 48.6912 17.5735 49.5735 17.5735C50.4559 17.5735 51.1711 16.8582 51.1711 15.9759C51.1711 15.0936 50.4559 14.3783 49.5735 14.3783C48.6912 14.3783 47.9759 15.0936 47.9759 15.9759Z" fill="#67707B"/>
<path d="M47.9759 35.1472C47.9759 36.0295 48.6912 36.7448 49.5735 36.7448C50.4559 36.7448 51.1711 36.0295 51.1711 35.1472C51.1711 34.2648 50.4559 33.5496 49.5735 33.5496C48.6912 33.5496 47.9759 34.2648 47.9759 35.1472Z" fill="#67707B"/>
<path d="M41.5857 28.7568C41.5857 29.6391 42.301 30.3544 43.1833 30.3544C44.0656 30.3544 44.7809 29.6391 44.7809 28.7568C44.7809 27.8745 44.0656 27.1592 43.1833 27.1592C42.301 27.1592 41.5857 27.8745 41.5857 28.7568Z" fill="#67707B"/>
<path d="M41.5857 22.3664C41.5857 23.2487 42.301 23.964 43.1833 23.964C44.0656 23.964 44.7809 23.2487 44.7809 22.3664C44.7809 21.4841 44.0656 20.7688 43.1833 20.7688C42.301 20.7688 41.5857 21.4841 41.5857 22.3664Z" fill="#67707B"/>
<path d="M41.5857 15.9759C41.5857 16.8582 42.301 17.5735 43.1833 17.5735C44.0656 17.5735 44.7809 16.8582 44.7809 15.9759C44.7809 15.0936 44.0656 14.3783 43.1833 14.3783C42.301 14.3783 41.5857 15.0936 41.5857 15.9759Z" fill="#67707B"/>
<path d="M35.1949 22.3664C35.1949 23.2487 35.9102 23.964 36.7925 23.964C37.6749 23.964 38.3901 23.2487 38.3901 22.3664C38.3901 21.4841 37.6749 20.7688 36.7925 20.7688C35.9102 20.7688 35.1949 21.4841 35.1949 22.3664Z" fill="#67707B"/>
<path d="M35.1949 15.9759C35.1949 16.8582 35.9102 17.5735 36.7925 17.5735C37.6749 17.5735 38.3901 16.8582 38.3901 15.9759C38.3901 15.0936 37.6749 14.3783 36.7925 14.3783C35.9102 14.3783 35.1949 15.0936 35.1949 15.9759Z" fill="#67707B"/>
<path d="M28.8048 22.3664C28.8048 23.2487 29.5201 23.964 30.4024 23.964C31.2847 23.964 32 23.2487 32 22.3664C32 21.4841 31.2847 20.7688 30.4024 20.7688C29.5201 20.7688 28.8048 21.4841 28.8048 22.3664Z" fill="#67707B"/>
<path d="M28.8048 15.9759C28.8048 16.8582 29.5201 17.5735 30.4024 17.5735C31.2847 17.5735 32 16.8582 32 15.9759C32 15.0936 31.2847 14.3783 30.4024 14.3783C29.5201 14.3783 28.8048 15.0936 28.8048 15.9759Z" fill="#67707B"/>
<path d="M22.4147 22.3664C22.4147 23.2487 23.1299 23.964 24.0123 23.964C24.8946 23.964 25.6099 23.2487 25.6099 22.3664C25.6099 21.4841 24.8946 20.7688 24.0123 20.7688C23.1299 20.7688 22.4147 21.4841 22.4147 22.3664Z" fill="#67707B"/>
<path d="M22.4147 15.9759C22.4147 16.8582 23.1299 17.5735 24.0123 17.5735C24.8946 17.5735 25.6099 16.8582 25.6099 15.9759C25.6099 15.0936 24.8946 14.3783 24.0123 14.3783C23.1299 14.3783 22.4147 15.0936 22.4147 15.9759Z" fill="#67707B"/>
<path d="M16.0239 28.7568C16.0239 29.6391 16.7392 30.3544 17.6215 30.3544C18.5038 30.3544 19.2191 29.6391 19.2191 28.7568C19.2191 27.8745 18.5038 27.1592 17.6215 27.1592C16.7392 27.1592 16.0239 27.8745 16.0239 28.7568Z" fill="#67707B"/>
<path d="M16.0239 22.3664C16.0239 23.2487 16.7392 23.964 17.6215 23.964C18.5038 23.964 19.2191 23.2487 19.2191 22.3664C19.2191 21.4841 18.5038 20.7688 17.6215 20.7688C16.7392 20.7688 16.0239 21.4841 16.0239 22.3664Z" fill="#67707B"/>
<path d="M16.0239 15.9759C16.0239 16.8582 16.7392 17.5735 17.6215 17.5735C18.5038 17.5735 19.2191 16.8582 19.2191 15.9759C19.2191 15.0936 18.5038 14.3783 17.6215 14.3783C16.7392 14.3783 16.0239 15.0936 16.0239 15.9759Z" fill="#67707B"/>
<path d="M16.0239 35.1472C16.0239 36.0295 16.7392 36.7448 17.6215 36.7448C18.5038 36.7448 19.2191 36.0295 19.2191 35.1472C19.2191 34.2648 18.5038 33.5496 17.6215 33.5496C16.7392 33.5496 16.0239 34.2648 16.0239 35.1472Z" fill="#67707B"/>
<path d="M41.3092 42.3274L34.8278 49.0076V33.5496H29.1722V49.0076L22.6908 42.3274L18.6866 46.4545L32 60.1763L45.3133 46.4545L41.3092 42.3274Z" fill="white"/>
<path fill-rule="evenodd" clip-rule="evenodd" d="M41.3092 38.5036L49.0233 46.4544L32 64L14.9767 46.4544L22.6908 38.5036L26.5095 42.4394V30.8868L37.4905 30.8868V42.4394L41.3092 38.5036ZM34.8278 49.0076V33.5495H29.1722V49.0076L22.6908 42.3274L18.6866 46.4544L32 60.1762L45.3133 46.4544L41.3092 42.3274L34.8278 49.0076Z" fill="black"/>
</g>
<defs>
<clipPath id="clip0_1967:15778">
<rect width="64" height="64" fill="white"/>
</clipPath>
</defs>
</svg>
