<svg width="32" height="32" viewBox="0 0 32 32" fill="none" xmlns="http://www.w3.org/2000/svg">
<path d="M32 8.00003C32 7.36885 31.4883 6.85718 30.8571 6.85718H1.14285C0.511673 6.85718 0 7.36885 0 8.00003V20.5715C0 23.0962 2.0467 25.1429 4.57143 25.1429H27.4286C29.9533 25.1429 32 23.0962 32 20.5715V8.00003Z" fill="#0E141B"/>
<path d="M14.2857 12.5714C14.2857 12.887 14.5416 13.1429 14.8572 13.1429C15.1728 13.1429 15.4286 12.887 15.4286 12.5714C15.4286 12.2558 15.1728 12 14.8572 12C14.5416 12 14.2857 12.2558 14.2857 12.5714Z" fill="#67707B"/>
<path d="M14.2857 14.8572C14.2857 15.1728 14.5416 15.4286 14.8572 15.4286C15.1728 15.4286 15.4286 15.1728 15.4286 14.8572C15.4286 14.5416 15.1728 14.2858 14.8572 14.2858C14.5416 14.2858 14.2857 14.5416 14.2857 14.8572Z" fill="#67707B"/>
<path d="M14.2857 17.1428C14.2857 17.4584 14.5416 17.7143 14.8572 17.7143C15.1728 17.7143 15.4286 17.4584 15.4286 17.1428C15.4286 16.8272 15.1728 16.5714 14.8572 16.5714C14.5416 16.5714 14.2857 16.8272 14.2857 17.1428Z" fill="#67707B"/>
<path d="M14.2857 19.4286C14.2857 19.7442 14.5416 20 14.8572 20C15.1728 20 15.4286 19.7442 15.4286 19.4286C15.4286 19.113 15.1728 18.8572 14.8572 18.8572C14.5416 18.8572 14.2857 19.113 14.2857 19.4286Z" fill="#67707B"/>
<path d="M14.2857 21.7143C14.2857 22.0298 14.5416 22.2857 14.8572 22.2857C15.1728 22.2857 15.4286 22.0298 15.4286 21.7143C15.4286 21.3987 15.1728 21.1428 14.8572 21.1428C14.5416 21.1428 14.2857 21.3987 14.2857 21.7143Z" fill="#67707B"/>
<path d="M12.0001 12.5714C12.0001 12.887 12.2559 13.1429 12.5715 13.1429C12.8871 13.1429 13.1429 12.887 13.1429 12.5714C13.1429 12.2558 12.8871 12 12.5715 12C12.2559 12 12.0001 12.2558 12.0001 12.5714Z" fill="#67707B"/>
<path d="M9.7142 12.5714C9.7142 12.887 9.97004 13.1429 10.2856 13.1429C10.6012 13.1429 10.8571 12.887 10.8571 12.5714C10.8571 12.2558 10.6012 12 10.2856 12C9.97004 12 9.7142 12.2558 9.7142 12.5714Z" fill="#67707B"/>
<path d="M7.42855 12.5714C7.42855 12.887 7.68439 13.1429 7.99998 13.1429C8.31557 13.1429 8.57141 12.887 8.57141 12.5714C8.57141 12.2558 8.31557 12 7.99998 12C7.68439 12 7.42855 12.2558 7.42855 12.5714Z" fill="#67707B"/>
<path d="M5.14279 12.5714C5.14279 12.887 5.39862 13.1429 5.71422 13.1429C6.02981 13.1429 6.28564 12.887 6.28564 12.5714C6.28564 12.2558 6.02981 12 5.71422 12C5.39862 12 5.14279 12.2558 5.14279 12.5714Z" fill="#67707B"/>
<path d="M2.85714 12.5714C2.85714 12.887 3.11298 13.1429 3.42857 13.1429C3.74416 13.1429 4 12.887 4 12.5714C4 12.2558 3.74416 12 3.42857 12C3.11298 12 2.85714 12.2558 2.85714 12.5714Z" fill="#67707B"/>
<path d="M12.0001 14.8572C12.0001 15.1728 12.2559 15.4286 12.5715 15.4286C12.8871 15.4286 13.1429 15.1728 13.1429 14.8572C13.1429 14.5416 12.8871 14.2858 12.5715 14.2858C12.2559 14.2858 12.0001 14.5416 12.0001 14.8572Z" fill="#67707B"/>
<path d="M9.7142 14.8572C9.7142 15.1728 9.97004 15.4286 10.2856 15.4286C10.6012 15.4286 10.8571 15.1728 10.8571 14.8572C10.8571 14.5416 10.6012 14.2858 10.2856 14.2858C9.97004 14.2858 9.7142 14.5416 9.7142 14.8572Z" fill="#67707B"/>
<path d="M7.42855 14.8572C7.42855 15.1728 7.68439 15.4286 7.99998 15.4286C8.31557 15.4286 8.57141 15.1728 8.57141 14.8572C8.57141 14.5416 8.31557 14.2858 7.99998 14.2858C7.68439 14.2858 7.42855 14.5416 7.42855 14.8572Z" fill="#67707B"/>
<path d="M5.14279 14.8572C5.14279 15.1728 5.39862 15.4286 5.71422 15.4286C6.02981 15.4286 6.28564 15.1728 6.28564 14.8572C6.28564 14.5416 6.02981 14.2858 5.71422 14.2858C5.39862 14.2858 5.14279 14.5416 5.14279 14.8572Z" fill="#67707B"/>
<path d="M2.85714 14.8572C2.85714 15.1728 3.11298 15.4286 3.42857 15.4286C3.74416 15.4286 4 15.1728 4 14.8572C4 14.5416 3.74416 14.2858 3.42857 14.2858C3.11298 14.2858 2.85714 14.5416 2.85714 14.8572Z" fill="#67707B"/>
<path d="M12.0001 17.1428C12.0001 17.4584 12.2559 17.7143 12.5715 17.7143C12.8871 17.7143 13.1429 17.4584 13.1429 17.1428C13.1429 16.8272 12.8871 16.5714 12.5715 16.5714C12.2559 16.5714 12.0001 16.8272 12.0001 17.1428Z" fill="#67707B"/>
<path d="M12.0001 19.4286C12.0001 19.7442 12.2559 20 12.5715 20C12.8871 20 13.1429 19.7442 13.1429 19.4286C13.1429 19.113 12.8871 18.8572 12.5715 18.8572C12.2559 18.8572 12.0001 19.113 12.0001 19.4286Z" fill="#67707B"/>
<path d="M12.0001 21.7143C12.0001 22.0298 12.2559 22.2857 12.5715 22.2857C12.8871 22.2857 13.1429 22.0298 13.1429 21.7143C13.1429 21.3987 12.8871 21.1428 12.5715 21.1428C12.2559 21.1428 12.0001 21.3987 12.0001 21.7143Z" fill="#67707B"/>
<path d="M9.7142 17.1428C9.7142 17.4584 9.97004 17.7143 10.2856 17.7143C10.6012 17.7143 10.8571 17.4584 10.8571 17.1428C10.8571 16.8272 10.6012 16.5714 10.2856 16.5714C9.97004 16.5714 9.7142 16.8272 9.7142 17.1428Z" fill="#67707B"/>
<path d="M9.7142 19.4286C9.7142 19.7442 9.97004 20 10.2856 20C10.6012 20 10.8571 19.7442 10.8571 19.4286C10.8571 19.113 10.6012 18.8572 10.2856 18.8572C9.97004 18.8572 9.7142 19.113 9.7142 19.4286Z" fill="#67707B"/>
<path d="M9.7142 21.7143C9.7142 22.0298 9.97004 22.2857 10.2856 22.2857C10.6012 22.2857 10.8571 22.0298 10.8571 21.7143C10.8571 21.3987 10.6012 21.1428 10.2856 21.1428C9.97004 21.1428 9.7142 21.3987 9.7142 21.7143Z" fill="#67707B"/>
<path d="M7.42855 17.1428C7.42855 17.4584 7.68439 17.7143 7.99998 17.7143C8.31557 17.7143 8.57141 17.4584 8.57141 17.1428C8.57141 16.8272 8.31557 16.5714 7.99998 16.5714C7.68439 16.5714 7.42855 16.8272 7.42855 17.1428Z" fill="#67707B"/>
<path d="M7.42855 19.4286C7.42855 19.7442 7.68439 20 7.99998 20C8.31557 20 8.57141 19.7442 8.57141 19.4286C8.57141 19.113 8.31557 18.8572 7.99998 18.8572C7.68439 18.8572 7.42855 19.113 7.42855 19.4286Z" fill="#67707B"/>
<path d="M7.42855 21.7143C7.42855 22.0298 7.68439 22.2857 7.99998 22.2857C8.31557 22.2857 8.57141 22.0298 8.57141 21.7143C8.57141 21.3987 8.31557 21.1428 7.99998 21.1428C7.68439 21.1428 7.42855 21.3987 7.42855 21.7143Z" fill="#67707B"/>
<path d="M5.14279 17.1428C5.14279 17.4584 5.39862 17.7143 5.71422 17.7143C6.02981 17.7143 6.28564 17.4584 6.28564 17.1428C6.28564 16.8272 6.02981 16.5714 5.71422 16.5714C5.39862 16.5714 5.14279 16.8272 5.14279 17.1428Z" fill="#67707B"/>
<path d="M5.14279 19.4286C5.14279 19.7442 5.39862 20 5.71422 20C6.02981 20 6.28564 19.7442 6.28564 19.4286C6.28564 19.113 6.02981 18.8572 5.71422 18.8572C5.39862 18.8572 5.14279 19.113 5.14279 19.4286Z" fill="#67707B"/>
<path d="M5.14279 21.7143C5.14279 22.0298 5.39862 22.2857 5.71422 22.2857C6.02981 22.2857 6.28564 22.0298 6.28564 21.7143C6.28564 21.3987 6.02981 21.1428 5.71422 21.1428C5.39862 21.1428 5.14279 21.3987 5.14279 21.7143Z" fill="#67707B"/>
<path d="M2.85714 17.1428C2.85714 17.4584 3.11298 17.7143 3.42857 17.7143C3.74416 17.7143 4 17.4584 4 17.1428C4 16.8272 3.74416 16.5714 3.42857 16.5714C3.11298 16.5714 2.85714 16.8272 2.85714 17.1428Z" fill="#67707B"/>
<path d="M2.85714 19.4286C2.85714 19.7442 3.11298 20 3.42857 20C3.74416 20 4 19.7442 4 19.4286C4 19.113 3.74416 18.8572 3.42857 18.8572C3.11298 18.8572 2.85714 19.113 2.85714 19.4286Z" fill="#67707B"/>
<path d="M2.85714 21.7143C2.85714 22.0298 3.11298 22.2857 3.42857 22.2857C3.74416 22.2857 4 22.0298 4 21.7143C4 21.3987 3.74416 21.1428 3.42857 21.1428C3.11298 21.1428 2.85714 21.3987 2.85714 21.7143Z" fill="#67707B"/>
<path d="M25.8524 17.7142H24.7552L23.9952 16.4457H23.9095H23.4352V17.7142H22.4467V13.7142H24.0009C24.5724 13.7142 24.9952 13.8266 25.2695 14.0514C25.5438 14.2761 25.6809 14.5923 25.6809 14.9999C25.6809 15.3085 25.6143 15.5676 25.4809 15.7771C25.3514 15.9828 25.1686 16.139 24.9324 16.2457L25.8524 17.7142ZM23.4352 14.5599V15.5999H23.9724C24.1743 15.5999 24.3324 15.5542 24.4467 15.4628C24.5648 15.3676 24.6238 15.2304 24.6238 15.0514C24.6238 14.8876 24.5705 14.7657 24.4638 14.6857C24.3571 14.6019 24.1876 14.5599 23.9552 14.5599H23.4352Z" fill="white"/>
<path fill-rule="evenodd" clip-rule="evenodd" d="M23.9999 12C21.7908 12 19.9999 13.7909 19.9999 16C19.9999 18.2092 21.7908 20 23.9999 20C26.2091 20 27.9999 18.2092 27.9999 16C27.9999 13.7909 26.2091 12 23.9999 12ZM18.8571 16C18.8571 13.1597 21.1596 10.8572 23.9999 10.8572C26.8402 10.8572 29.1428 13.1597 29.1428 16C29.1428 18.8404 26.8402 21.1429 23.9999 21.1429C21.1596 21.1429 18.8571 18.8404 18.8571 16Z" fill="white"/>
<path fill-rule="evenodd" clip-rule="evenodd" d="M24 10C20.6863 10 18 12.6863 18 16C18 19.3137 20.6863 22 24 22C27.3137 22 30 19.3137 30 16C30 12.6863 27.3137 10 24 10ZM17.4286 16C17.4286 12.3707 20.3707 9.42859 24 9.42859C27.6293 9.42859 30.5714 12.3707 30.5714 16C30.5714 19.6293 27.6293 22.5714 24 22.5714C20.3707 22.5714 17.4286 19.6293 17.4286 16Z" fill="white"/>
</svg>
