<svg width="32" height="32" viewBox="0 0 32 32" fill="none" xmlns="http://www.w3.org/2000/svg">
<path d="M32 8.00003C32 7.36885 31.4883 6.85718 30.8571 6.85718H1.14286C0.511674 6.85718 0 7.36885 0 8.00003V20.5715C0 23.0962 2.0467 25.1429 4.57143 25.1429H27.4286C29.9533 25.1429 32 23.0962 32 20.5715V8.00003Z" fill="#0E141B"/>
<path fill-rule="evenodd" clip-rule="evenodd" d="M4.57146 9.14286H27.4286C28.691 9.14286 29.7143 10.1662 29.7143 11.4286V20.5714C29.7143 21.8338 28.691 22.8571 27.4286 22.8571H4.57146C3.3091 22.8571 2.28575 21.8338 2.28575 20.5714V11.4286C2.28575 10.1662 3.3091 9.14286 4.57146 9.14286ZM27.4286 8C29.3222 8 30.8572 9.53502 30.8572 11.4286V20.5714C30.8572 22.465 29.3222 24 27.4286 24H4.57146C2.67792 24 1.14289 22.465 1.14289 20.5714V11.4286C1.14289 9.53502 2.67792 8 4.57146 8H27.4286Z" fill="white"/>
</svg>
