<svg width="64" height="64" viewBox="0 0 64 64" fill="none" xmlns="http://www.w3.org/2000/svg">
<g clip-path="url(#clip0_2642:21352)">
<path d="M0 15.7142C0 14.6097 0.895431 13.7142 2 13.7142H62C63.1046 13.7142 64 14.6097 64 15.7142V42.2857C64 46.7039 60.4183 50.2857 56 50.2857H8C3.58172 50.2857 0 46.7039 0 42.2857V15.7142Z" fill="black"/>
<circle cx="6.85709" cy="25.1429" r="1.14286" fill="#67707B"/>
<circle cx="29.7143" cy="25.1429" r="1.14286" fill="#67707B"/>
<circle cx="6.85709" cy="29.7143" r="1.14286" fill="#67707B"/>
<circle cx="29.7143" cy="29.7143" r="1.14286" fill="#67707B"/>
<circle cx="6.85709" cy="34.2857" r="1.14286" fill="#67707B"/>
<circle cx="6.85709" cy="38.8571" r="1.14286" fill="#67707B"/>
<circle cx="6.85709" cy="43.4285" r="1.14286" fill="#67707B"/>
<circle cx="29.7143" cy="34.2857" r="1.14286" fill="#67707B"/>
<circle cx="29.7143" cy="38.8571" r="1.14286" fill="#67707B"/>
<circle cx="29.7143" cy="43.4285" r="1.14286" fill="#67707B"/>
<circle cx="11.4286" cy="25.1429" r="1.14286" fill="#67707B"/>
<circle cx="34.2857" cy="25.1429" r="1.14286" fill="#67707B"/>
<circle cx="11.4286" cy="29.7143" r="1.14286" fill="#67707B"/>
<circle cx="34.2857" cy="29.7143" r="1.14286" fill="#67707B"/>
<circle cx="11.4286" cy="34.2857" r="1.14286" fill="#67707B"/>
<circle cx="11.4286" cy="38.8571" r="1.14286" fill="#67707B"/>
<circle cx="11.4286" cy="43.4285" r="1.14286" fill="#67707B"/>
<circle cx="34.2857" cy="34.2857" r="1.14286" fill="#67707B"/>
<circle cx="34.2857" cy="38.8571" r="1.14286" fill="#67707B"/>
<circle cx="34.2857" cy="43.4285" r="1.14286" fill="#67707B"/>
<circle cx="16" cy="25.1429" r="1.14286" fill="#67707B"/>
<circle cx="38.8571" cy="25.1429" r="1.14286" fill="#67707B"/>
<circle cx="43.4286" cy="25.1429" r="1.14286" fill="#67707B"/>
<circle cx="48" cy="25.1429" r="1.14286" fill="#67707B"/>
<circle cx="52.5714" cy="25.1429" r="1.14286" fill="#67707B"/>
<circle cx="57.1429" cy="25.1429" r="1.14286" fill="#67707B"/>
<circle cx="16" cy="29.7143" r="1.14286" fill="#67707B"/>
<circle cx="38.8571" cy="29.7143" r="1.14286" fill="#67707B"/>
<circle cx="43.4286" cy="29.7143" r="1.14286" fill="#67707B"/>
<circle cx="48" cy="29.7143" r="1.14286" fill="#67707B"/>
<circle cx="52.5714" cy="29.7143" r="1.14286" fill="#67707B"/>
<circle cx="57.1429" cy="29.7143" r="1.14286" fill="#67707B"/>
<circle cx="16" cy="34.2857" r="1.14286" fill="#67707B"/>
<circle cx="16" cy="38.8571" r="1.14286" fill="#67707B"/>
<circle cx="16" cy="43.4285" r="1.14286" fill="#67707B"/>
<circle cx="38.8571" cy="34.2857" r="1.14286" fill="#67707B"/>
<circle cx="38.8571" cy="38.8571" r="1.14286" fill="#67707B"/>
<circle cx="38.8571" cy="43.4285" r="1.14286" fill="#67707B"/>
<circle cx="43.4286" cy="34.2857" r="1.14286" fill="#67707B"/>
<circle cx="43.4286" cy="38.8571" r="1.14286" fill="#67707B"/>
<circle cx="43.4286" cy="43.4285" r="1.14286" fill="#67707B"/>
<circle cx="48" cy="34.2857" r="1.14286" fill="#67707B"/>
<circle cx="48" cy="38.8571" r="1.14286" fill="#67707B"/>
<circle cx="48" cy="43.4285" r="1.14286" fill="#67707B"/>
<circle cx="52.5714" cy="34.2857" r="1.14286" fill="#67707B"/>
<circle cx="52.5714" cy="38.8571" r="1.14286" fill="#67707B"/>
<circle cx="52.5714" cy="43.4285" r="1.14286" fill="#67707B"/>
<circle cx="57.1429" cy="34.2857" r="1.14286" fill="#67707B"/>
<circle cx="57.1429" cy="38.8571" r="1.14286" fill="#67707B"/>
<circle cx="57.1429" cy="43.4285" r="1.14286" fill="#67707B"/>
<circle cx="20.5714" cy="25.1429" r="1.14286" fill="#67707B"/>
<circle cx="25.1429" cy="25.1429" r="1.14286" fill="#67707B"/>
<circle cx="20.5714" cy="29.7143" r="1.14286" fill="#67707B"/>
<circle cx="25.1429" cy="29.7143" r="1.14286" fill="#67707B"/>
<circle cx="20.5714" cy="34.2857" r="1.14286" fill="#67707B"/>
<circle cx="20.5714" cy="38.8571" r="1.14286" fill="#67707B"/>
<circle cx="20.5714" cy="43.4285" r="1.14286" fill="#67707B"/>
<circle cx="25.1429" cy="34.2857" r="1.14286" fill="#67707B"/>
<circle cx="25.1429" cy="38.8571" r="1.14286" fill="#67707B"/>
<circle cx="25.1429" cy="43.4285" r="1.14286" fill="#67707B"/>
<path d="M40.8611 51.1836L33.1835 60.1407L25.506 51.1836H40.8611Z" fill="white"/>
<path fill-rule="evenodd" clip-rule="evenodd" d="M46.4253 48.6245L33.1835 64.0732L19.9418 48.6245H46.4253ZM40.8611 51.1837H25.506L33.1835 60.1408L40.8611 51.1837Z" fill="black"/>
</g>
<defs>
<clipPath id="clip0_2642:21352">
<rect width="64" height="64" fill="white"/>
</clipPath>
</defs>
</svg>
