<svg width="32" height="32" viewBox="0 0 32 32" fill="none" xmlns="http://www.w3.org/2000/svg">
<path fill-rule="evenodd" clip-rule="evenodd" d="M5.39331 26.6066L30.9999 1V16C30.9999 24.2843 24.2842 31 15.9999 31C11.8578 31 8.10778 29.3211 5.39331 26.6066Z" fill="#67707B"/>
<path fill-rule="evenodd" clip-rule="evenodd" d="M31 1H1V16C1 20.1421 2.67893 23.8921 5.3934 26.6066L31 1Z" fill="#0E141B"/>
<path d="M15.1754 19.5H9.5V11.1433H11.5038V17.6376H15.1754V19.5Z" fill="white"/>
<path d="M19.3631 17.7212H23V19.5H16.8265V17.8048L19.1662 15.8469C19.5291 15.5365 19.8032 15.2898 19.9886 15.1067C20.1739 14.9237 20.3167 14.7367 20.4171 14.5456C20.5252 14.3546 20.5793 14.1437 20.5793 13.9129C20.5793 13.5548 20.4441 13.2842 20.1739 13.1011C19.9113 12.9181 19.5754 12.8265 19.1662 12.8265C18.8573 12.8265 18.5523 12.8743 18.2512 12.9698C17.95 13.0573 17.6798 13.1767 17.4404 13.3279L16.7918 11.7999C17.1624 11.5531 17.5755 11.3581 18.0311 11.2149C18.4944 11.0716 18.9886 11 19.5137 11C20.4866 11 21.2704 11.2109 21.8649 11.6327C22.4595 12.0466 22.7568 12.6594 22.7568 13.4712C22.7568 14.0283 22.6023 14.5377 22.2935 14.9993C21.9923 15.4529 21.5252 15.9424 20.892 16.4677L19.3631 17.7212Z" fill="white"/>
</svg>
