<svg width="64" height="64" viewBox="0 0 64 64" fill="none" xmlns="http://www.w3.org/2000/svg">
<path d="M64 15.9999C64 14.7376 62.9767 13.7142 61.7143 13.7142H2.28571C1.02335 13.7142 0 14.7376 0 15.9999V41.1428C0 46.1923 4.0934 50.2857 9.14286 50.2857H54.8571C59.9066 50.2857 64 46.1923 64 41.1428V15.9999Z" fill="black"/>
<path d="M60.5714 22.8571C60.5714 19.7012 58.013 17.1429 54.8571 17.1429H9.14281C5.98689 17.1429 3.42852 19.7012 3.42852 22.8571V41.1429C3.42852 44.2988 5.9869 46.8571 9.14281 46.8571H54.8571C58.013 46.8571 60.5714 44.2988 60.5714 41.1429V22.8571Z" stroke="white" stroke-width="2.28571"/>
</svg>
