<svg width="64" height="64" viewBox="0 0 64 64" fill="none" xmlns="http://www.w3.org/2000/svg">
<mask id="path-1-outside-1_1967:13969" maskUnits="userSpaceOnUse" x="2" y="2" width="60" height="60" fill="black">
<rect fill="white" x="2" y="2" width="60" height="60"/>
<path d="M60 32C60 47.464 47.464 60 32 60C16.536 60 4 47.464 4 32C4 16.536 16.536 4 32 4C47.464 4 60 16.536 60 32Z"/>
</mask>
<path d="M60 32C60 47.464 47.464 60 32 60C16.536 60 4 47.464 4 32C4 16.536 16.536 4 32 4C47.464 4 60 16.536 60 32Z" fill="black"/>
<path d="M58 32C58 46.3594 46.3594 58 32 58V62C48.5685 62 62 48.5685 62 32H58ZM32 58C17.6406 58 6 46.3594 6 32H2C2 48.5685 15.4315 62 32 62V58ZM6 32C6 17.6406 17.6406 6 32 6V2C15.4315 2 2 15.4315 2 32H6ZM32 6C46.3594 6 58 17.6406 58 32H62C62 15.4315 48.5685 2 32 2V6Z" fill="white" mask="url(#path-1-outside-1_1967:13969)"/>
<path fill-rule="evenodd" clip-rule="evenodd" d="M51.8628 39.8906C51.0725 40.9338 49.1371 41.6776 49.1371 41.6776L34.7381 47.09V43.0987L45.3347 39.1476C46.5372 38.6966 46.7219 38.0593 45.7445 37.7246C44.7689 37.389 43.0022 37.4852 41.7989 37.9381L34.7381 40.5404V36.398L35.1452 36.2539C35.1452 36.2539 37.1854 35.4983 40.0545 35.1657C42.9234 34.835 46.4361 35.2108 49.1939 36.3048C52.3018 37.3326 52.6517 38.8475 51.8626 39.8906H51.8628ZM36.1089 33.0939V22.8863C36.1089 21.6875 35.8975 20.5841 34.8227 20.2716C33.9995 19.9956 33.4888 20.7953 33.4888 21.9932V47.5556L26.9013 45.3675V14.8889C29.7022 15.4329 33.7829 16.7193 35.9765 17.4931C41.5554 19.4976 43.4469 21.9923 43.4469 27.6134C43.4469 33.092 40.2152 35.1685 36.1089 33.0939ZM14.8137 42.6814C11.6231 41.7411 11.0922 39.782 12.5464 38.6534C13.8904 37.6113 16.1762 36.8268 16.1762 36.8268L25.6216 33.3122V37.3191L18.8245 39.8645C17.6238 40.3153 17.4391 40.9536 18.4149 41.2882C19.3913 41.6227 21.1588 41.5276 22.3613 41.0757L25.6216 39.8376V43.4223C25.4148 43.4608 25.1844 43.4993 24.9712 43.5367C21.7099 44.0944 18.2366 43.8616 14.8137 42.6812V42.6814Z" fill="white"/>
</svg>
