<svg width="64" height="64" viewBox="0 0 64 64" fill="none" xmlns="http://www.w3.org/2000/svg">
<path d="M12 44C5.37258 44 0 38.6274 0 32C0 25.3726 5.37258 20 12 20H52C58.6274 20 64 25.3726 64 32C64 38.6274 58.6274 44 52 44H12Z" fill="black"/>
<path d="M14.3425 27.396C14.9265 27.396 15.4705 27.48 15.9745 27.648C16.4785 27.808 16.8945 28.008 17.2225 28.248L16.3465 29.796C16.0585 29.588 15.7305 29.42 15.3625 29.292C15.0025 29.164 14.6665 29.1 14.3545 29.1C14.0265 29.1 13.7705 29.168 13.5865 29.304C13.4025 29.432 13.3105 29.608 13.3105 29.832C13.3105 30.072 13.4265 30.264 13.6585 30.408C13.8985 30.544 14.2705 30.696 14.7745 30.864C15.3265 31.056 15.7705 31.236 16.1065 31.404C16.4505 31.572 16.7505 31.824 17.0065 32.16C17.2625 32.488 17.3905 32.916 17.3905 33.444C17.3905 34.004 17.2425 34.488 16.9465 34.896C16.6585 35.304 16.2545 35.616 15.7345 35.832C15.2225 36.04 14.6345 36.144 13.9705 36.144C13.4345 36.144 12.8945 36.076 12.3505 35.94C11.8145 35.804 11.3385 35.612 10.9225 35.364L11.5465 33.636C12.4265 34.092 13.2465 34.32 14.0065 34.32C14.3825 34.32 14.6665 34.248 14.8585 34.104C15.0505 33.96 15.1465 33.772 15.1465 33.54C15.1465 33.308 15.0385 33.128 14.8225 33C14.6065 32.864 14.2705 32.728 13.8145 32.592C13.2225 32.408 12.7505 32.236 12.3985 32.076C12.0465 31.908 11.7425 31.656 11.4865 31.32C11.2305 30.976 11.1025 30.524 11.1025 29.964C11.1025 29.436 11.2385 28.98 11.5105 28.596C11.7825 28.204 12.1625 27.908 12.6505 27.708C13.1385 27.5 13.7025 27.396 14.3425 27.396Z" fill="white"/>
<path d="M24.677 30.936V27.6H26.741V36H24.677V32.712H21.185V36H19.109V27.6H21.185V30.936H24.677Z" fill="white"/>
<path d="M36.7265 36H34.4825L33.9905 34.56H30.9305L30.4505 36H28.2785L31.4345 27.6H33.4505L36.7265 36ZM32.4305 30.036L31.4705 32.928H33.4265L32.4305 30.036Z" fill="white"/>
<path d="M45.4133 36H43.1093L41.5133 33.336H41.3333H40.3373V36H38.2613V27.6H41.5253C42.7253 27.6 43.6133 27.836 44.1893 28.308C44.7653 28.78 45.0533 29.444 45.0533 30.3C45.0533 30.948 44.9133 31.492 44.6333 31.932C44.3613 32.364 43.9773 32.692 43.4813 32.916L45.4133 36ZM40.3373 29.376V31.56H41.4653C41.8893 31.56 42.2213 31.464 42.4613 31.272C42.7093 31.072 42.8333 30.784 42.8333 30.408C42.8333 30.064 42.7213 29.808 42.4973 29.64C42.2733 29.464 41.9173 29.376 41.4293 29.376H40.3373Z" fill="white"/>
<path d="M46.9175 27.6H52.7375V29.376H48.9935V30.888H52.1735V32.652H48.9935V34.224H52.7375V36H46.9175V27.6Z" fill="white"/>
</svg>
