<svg width="64" height="64" viewBox="0 0 64 64" fill="none" xmlns="http://www.w3.org/2000/svg">
<g clip-path="url(#clip0_1967:19589)">
<path d="M19.1309 8.71655H60.8955C62.6101 8.71655 64 10.1065 64 11.821V42.8656C64 49.7238 58.4404 55.2835 51.5822 55.2835H19.1309V8.71655Z" fill="black"/>
<path d="M45.0822 23.2687C45.0822 24.0724 44.4307 24.7239 43.627 24.7239C42.8233 24.7239 42.1718 24.0724 42.1718 23.2687C42.1718 22.465 42.8233 21.8135 43.627 21.8135C44.4307 21.8135 45.0822 22.465 45.0822 23.2687Z" fill="#67707B"/>
<path d="M39.2613 23.2687C39.2613 24.0724 38.6097 24.7239 37.806 24.7239C37.0024 24.7239 36.3508 24.0724 36.3508 23.2687C36.3508 22.465 37.0024 21.8135 37.806 21.8135C38.6097 21.8135 39.2613 22.465 39.2613 23.2687Z" fill="#67707B"/>
<path d="M33.4403 23.2687C33.4403 24.0724 32.7888 24.7239 31.9851 24.7239C31.1814 24.7239 30.5299 24.0724 30.5299 23.2687C30.5299 22.465 31.1814 21.8135 31.9851 21.8135C32.7888 21.8135 33.4403 22.465 33.4403 23.2687Z" fill="#67707B"/>
<path d="M27.6198 23.2687C27.6198 24.0724 26.9683 24.7239 26.1646 24.7239C25.3609 24.7239 24.7094 24.0724 24.7094 23.2687C24.7094 22.465 25.3609 21.8135 26.1646 21.8135C26.9683 21.8135 27.6198 22.465 27.6198 23.2687Z" fill="#67707B"/>
<path d="M50.9027 23.2687C50.9027 24.0724 50.2512 24.7239 49.4475 24.7239C48.6438 24.7239 47.9923 24.0724 47.9923 23.2687C47.9923 22.465 48.6438 21.8135 49.4475 21.8135C50.2512 21.8135 50.9027 22.465 50.9027 23.2687Z" fill="#67707B"/>
<path d="M56.724 23.2687C56.724 24.0724 56.0725 24.7239 55.2688 24.7239C54.4651 24.7239 53.8136 24.0724 53.8136 23.2687C53.8136 22.465 54.4651 21.8135 55.2688 21.8135C56.0725 21.8135 56.724 22.465 56.724 23.2687Z" fill="#67707B"/>
<path d="M45.0822 29.0894C45.0822 29.8931 44.4307 30.5446 43.627 30.5446C42.8233 30.5446 42.1718 29.8931 42.1718 29.0894C42.1718 28.2857 42.8233 27.6342 43.627 27.6342C44.4307 27.6342 45.0822 28.2857 45.0822 29.0894Z" fill="#67707B"/>
<path d="M39.2613 29.0894C39.2613 29.8931 38.6097 30.5446 37.806 30.5446C37.0024 30.5446 36.3508 29.8931 36.3508 29.0894C36.3508 28.2857 37.0024 27.6342 37.806 27.6342C38.6097 27.6342 39.2613 28.2857 39.2613 29.0894Z" fill="#67707B"/>
<path d="M33.4403 29.0894C33.4403 29.8931 32.7888 30.5446 31.9851 30.5446C31.1814 30.5446 30.5299 29.8931 30.5299 29.0894C30.5299 28.2857 31.1814 27.6342 31.9851 27.6342C32.7888 27.6342 33.4403 28.2857 33.4403 29.0894Z" fill="#67707B"/>
<path d="M27.6198 29.0894C27.6198 29.8931 26.9683 30.5446 26.1646 30.5446C25.3609 30.5446 24.7094 29.8931 24.7094 29.0894C24.7094 28.2857 25.3609 27.6342 26.1646 27.6342C26.9683 27.6342 27.6198 28.2857 27.6198 29.0894Z" fill="#67707B"/>
<path d="M50.9027 29.0894C50.9027 29.8931 50.2512 30.5446 49.4475 30.5446C48.6438 30.5446 47.9923 29.8931 47.9923 29.0894C47.9923 28.2857 48.6438 27.6342 49.4475 27.6342C50.2512 27.6342 50.9027 28.2857 50.9027 29.0894Z" fill="#67707B"/>
<path d="M56.724 29.0894C56.724 29.8931 56.0725 30.5446 55.2688 30.5446C54.4651 30.5446 53.8136 29.8931 53.8136 29.0894C53.8136 28.2857 54.4651 27.6342 55.2688 27.6342C56.0725 27.6342 56.724 28.2857 56.724 29.0894Z" fill="#67707B"/>
<path d="M45.0822 34.9103C45.0822 35.714 44.4307 36.3655 43.627 36.3655C42.8233 36.3655 42.1718 35.714 42.1718 34.9103C42.1718 34.1066 42.8233 33.4551 43.627 33.4551C44.4307 33.4551 45.0822 34.1066 45.0822 34.9103Z" fill="#67707B"/>
<path d="M39.2613 34.9103C39.2613 35.714 38.6097 36.3655 37.806 36.3655C37.0024 36.3655 36.3508 35.714 36.3508 34.9103C36.3508 34.1066 37.0024 33.4551 37.806 33.4551C38.6097 33.4551 39.2613 34.1066 39.2613 34.9103Z" fill="#67707B"/>
<path d="M33.4403 34.9103C33.4403 35.714 32.7888 36.3655 31.9851 36.3655C31.1814 36.3655 30.5299 35.714 30.5299 34.9103C30.5299 34.1066 31.1814 33.4551 31.9851 33.4551C32.7888 33.4551 33.4403 34.1066 33.4403 34.9103Z" fill="#67707B"/>
<path d="M27.6198 34.9103C27.6198 35.714 26.9683 36.3655 26.1646 36.3655C25.3609 36.3655 24.7094 35.714 24.7094 34.9103C24.7094 34.1066 25.3609 33.4551 26.1646 33.4551C26.9683 33.4551 27.6198 34.1066 27.6198 34.9103Z" fill="#67707B"/>
<path d="M45.0822 40.7313C45.0822 41.535 44.4307 42.1866 43.627 42.1866C42.8233 42.1866 42.1718 41.535 42.1718 40.7313C42.1718 39.9276 42.8233 39.2761 43.627 39.2761C44.4307 39.2761 45.0822 39.9276 45.0822 40.7313Z" fill="#67707B"/>
<path d="M39.2613 40.7313C39.2613 41.535 38.6097 42.1866 37.806 42.1866C37.0024 42.1866 36.3508 41.535 36.3508 40.7313C36.3508 39.9276 37.0024 39.2761 37.806 39.2761C38.6097 39.2761 39.2613 39.9276 39.2613 40.7313Z" fill="#67707B"/>
<path d="M33.4403 40.7313C33.4403 41.535 32.7888 42.1866 31.9851 42.1866C31.1814 42.1866 30.5299 41.535 30.5299 40.7313C30.5299 39.9276 31.1814 39.2761 31.9851 39.2761C32.7888 39.2761 33.4403 39.9276 33.4403 40.7313Z" fill="#67707B"/>
<path d="M27.6198 40.7313C27.6198 41.535 26.9683 42.1866 26.1646 42.1866C25.3609 42.1866 24.7094 41.535 24.7094 40.7313C24.7094 39.9276 25.3609 39.2761 26.1646 39.2761C26.9683 39.2761 27.6198 39.9276 27.6198 40.7313Z" fill="#67707B"/>
<path d="M45.0822 46.5521C45.0822 47.3558 44.4307 48.0074 43.627 48.0074C42.8233 48.0074 42.1718 47.3558 42.1718 46.5521C42.1718 45.7484 42.8233 45.0969 43.627 45.0969C44.4307 45.0969 45.0822 45.7484 45.0822 46.5521Z" fill="#67707B"/>
<path d="M39.2613 46.5521C39.2613 47.3558 38.6097 48.0074 37.806 48.0074C37.0024 48.0074 36.3508 47.3558 36.3508 46.5521C36.3508 45.7484 37.0024 45.0969 37.806 45.0969C38.6097 45.0969 39.2613 45.7484 39.2613 46.5521Z" fill="#67707B"/>
<path d="M33.4403 46.5521C33.4403 47.3558 32.7888 48.0074 31.9851 48.0074C31.1814 48.0074 30.5299 47.3558 30.5299 46.5521C30.5299 45.7484 31.1814 45.0969 31.9851 45.0969C32.7888 45.0969 33.4403 45.7484 33.4403 46.5521Z" fill="#67707B"/>
<path d="M27.6198 46.5521C27.6198 47.3558 26.9683 48.0074 26.1646 48.0074C25.3609 48.0074 24.7094 47.3558 24.7094 46.5521C24.7094 45.7484 25.3609 45.0969 26.1646 45.0969C26.9683 45.0969 27.6198 45.7484 27.6198 46.5521Z" fill="#67707B"/>
<path d="M50.9027 34.9103C50.9027 35.714 50.2512 36.3655 49.4475 36.3655C48.6438 36.3655 47.9923 35.714 47.9923 34.9103C47.9923 34.1066 48.6438 33.4551 49.4475 33.4551C50.2512 33.4551 50.9027 34.1066 50.9027 34.9103Z" fill="#67707B"/>
<path d="M50.9027 40.7313C50.9027 41.535 50.2512 42.1866 49.4475 42.1866C48.6438 42.1866 47.9923 41.535 47.9923 40.7313C47.9923 39.9276 48.6438 39.2761 49.4475 39.2761C50.2512 39.2761 50.9027 39.9276 50.9027 40.7313Z" fill="#67707B"/>
<path d="M50.9027 46.5521C50.9027 47.3558 50.2512 48.0074 49.4475 48.0074C48.6438 48.0074 47.9923 47.3558 47.9923 46.5521C47.9923 45.7484 48.6438 45.0969 49.4475 45.0969C50.2512 45.0969 50.9027 45.7484 50.9027 46.5521Z" fill="#67707B"/>
<path d="M56.724 34.9103C56.724 35.714 56.0725 36.3655 55.2688 36.3655C54.4651 36.3655 53.8136 35.714 53.8136 34.9103C53.8136 34.1066 54.4651 33.4551 55.2688 33.4551C56.0725 33.4551 56.724 34.1066 56.724 34.9103Z" fill="#67707B"/>
<path d="M56.724 40.7313C56.724 41.535 56.0725 42.1866 55.2688 42.1866C54.4651 42.1866 53.8136 41.535 53.8136 40.7313C53.8136 39.9276 54.4651 39.2761 55.2688 39.2761C56.0725 39.2761 56.724 39.9276 56.724 40.7313Z" fill="#67707B"/>
<path d="M56.724 46.5521C56.724 47.3558 56.0725 48.0074 55.2688 48.0074C54.4651 48.0074 53.8136 47.3558 53.8136 46.5521C53.8136 45.7484 54.4651 45.0969 55.2688 45.0969C56.0725 45.0969 56.724 45.7484 56.724 46.5521Z" fill="#67707B"/>
<path d="M13.9568 39.7612L4.90211 32L13.9568 24.2389L13.9568 39.7612Z" fill="white"/>
<path fill-rule="evenodd" clip-rule="evenodd" d="M16.5438 45.3861L0.926861 32.0001L16.5438 18.6141V45.3861ZM13.9568 39.7613L13.9568 24.239L4.9021 32.0001L13.9568 39.7613Z" fill="black"/>
</g>
<defs>
<clipPath id="clip0_1967:19589">
<rect width="64" height="64" fill="white"/>
</clipPath>
</defs>
</svg>
