<svg width="64" height="64" viewBox="0 0 64 64" fill="none" xmlns="http://www.w3.org/2000/svg">
<g clip-path="url(#clip0_1967:19793)">
<path d="M25.506 12.8164L33.1835 3.85927L40.8611 12.8164L25.506 12.8164Z" fill="white"/>
<path fill-rule="evenodd" clip-rule="evenodd" d="M19.9416 15.3756L33.1834 -0.0731184L46.4252 15.3756L19.9416 15.3756ZM25.5059 12.8164L40.8609 12.8164L33.1834 3.85929L25.5059 12.8164Z" fill="black"/>
<path d="M54.5366 17.9347H13.2218C11.5258 17.9347 10.1508 19.3096 10.1508 21.0057V51.7159C10.1508 58.5002 15.6506 63.9999 22.4349 63.9999H54.5366V17.9347Z" fill="black"/>
<path d="M28.8648 32.3302C28.8648 33.1252 29.5093 33.7697 30.3044 33.7697C31.0994 33.7697 31.7439 33.1252 31.7439 32.3302C31.7439 31.5351 31.0994 30.8906 30.3044 30.8906C29.5093 30.8906 28.8648 31.5351 28.8648 32.3302Z" fill="#67707B"/>
<path d="M34.623 32.3302C34.623 33.1252 35.2675 33.7697 36.0625 33.7697C36.8576 33.7697 37.5021 33.1252 37.5021 32.3302C37.5021 31.5351 36.8576 30.8906 36.0625 30.8906C35.2675 30.8906 34.623 31.5351 34.623 32.3302Z" fill="#67707B"/>
<path d="M40.3813 32.3302C40.3813 33.1252 41.0258 33.7697 41.8208 33.7697C42.6159 33.7697 43.2604 33.1252 43.2604 32.3302C43.2604 31.5351 42.6159 30.8906 41.8208 30.8906C41.0258 30.8906 40.3813 31.5351 40.3813 32.3302Z" fill="#67707B"/>
<path d="M46.1392 32.3302C46.1392 33.1252 46.7837 33.7697 47.5788 33.7697C48.3738 33.7697 49.0183 33.1252 49.0183 32.3302C49.0183 31.5351 48.3738 30.8906 47.5788 30.8906C46.7837 30.8906 46.1392 31.5351 46.1392 32.3302Z" fill="#67707B"/>
<path d="M23.107 32.3302C23.107 33.1252 23.7515 33.7697 24.5465 33.7697C25.3416 33.7697 25.9861 33.1252 25.9861 32.3302C25.9861 31.5351 25.3416 30.8906 24.5465 30.8906C23.7515 30.8906 23.107 31.5351 23.107 32.3302Z" fill="#67707B"/>
<path d="M17.3483 32.3302C17.3483 33.1252 17.9928 33.7697 18.7879 33.7697C19.5829 33.7697 20.2274 33.1252 20.2274 32.3302C20.2274 31.5351 19.5829 30.8906 18.7879 30.8906C17.9928 30.8906 17.3483 31.5351 17.3483 32.3302Z" fill="#67707B"/>
<path d="M28.8648 38.0881C28.8648 38.8831 29.5093 39.5276 30.3044 39.5276C31.0994 39.5276 31.7439 38.8831 31.7439 38.0881C31.7439 37.2931 31.0994 36.6486 30.3044 36.6486C29.5093 36.6486 28.8648 37.2931 28.8648 38.0881Z" fill="#67707B"/>
<path d="M34.623 38.0881C34.623 38.8831 35.2675 39.5276 36.0625 39.5276C36.8576 39.5276 37.5021 38.8831 37.5021 38.0881C37.5021 37.2931 36.8576 36.6486 36.0625 36.6486C35.2675 36.6486 34.623 37.2931 34.623 38.0881Z" fill="#67707B"/>
<path d="M40.3813 38.0881C40.3813 38.8831 41.0258 39.5276 41.8208 39.5276C42.6159 39.5276 43.2604 38.8831 43.2604 38.0881C43.2604 37.2931 42.6159 36.6486 41.8208 36.6486C41.0258 36.6486 40.3813 37.2931 40.3813 38.0881Z" fill="#67707B"/>
<path d="M46.1392 38.0881C46.1392 38.8831 46.7837 39.5276 47.5788 39.5276C48.3738 39.5276 49.0183 38.8831 49.0183 38.0881C49.0183 37.2931 48.3738 36.6486 47.5788 36.6486C46.7837 36.6486 46.1392 37.2931 46.1392 38.0881Z" fill="#67707B"/>
<path d="M23.107 38.0881C23.107 38.8831 23.7515 39.5276 24.5465 39.5276C25.3416 39.5276 25.9861 38.8831 25.9861 38.0881C25.9861 37.2931 25.3416 36.6486 24.5465 36.6486C23.7515 36.6486 23.107 37.2931 23.107 38.0881Z" fill="#67707B"/>
<path d="M17.3483 38.0881C17.3483 38.8831 17.9928 39.5276 18.7879 39.5276C19.5829 39.5276 20.2274 38.8831 20.2274 38.0881C20.2274 37.2931 19.5829 36.6486 18.7879 36.6486C17.9928 36.6486 17.3483 37.2931 17.3483 38.0881Z" fill="#67707B"/>
<path d="M28.8648 43.8463C28.8648 44.6413 29.5093 45.2858 30.3044 45.2858C31.0994 45.2858 31.7439 44.6413 31.7439 43.8463C31.7439 43.0512 31.0994 42.4067 30.3044 42.4067C29.5093 42.4067 28.8648 43.0512 28.8648 43.8463Z" fill="#67707B"/>
<path d="M34.623 43.8463C34.623 44.6413 35.2675 45.2858 36.0625 45.2858C36.8576 45.2858 37.5021 44.6413 37.5021 43.8463C37.5021 43.0512 36.8576 42.4067 36.0625 42.4067C35.2675 42.4067 34.623 43.0512 34.623 43.8463Z" fill="#67707B"/>
<path d="M40.3813 43.8463C40.3813 44.6413 41.0258 45.2858 41.8208 45.2858C42.6159 45.2858 43.2604 44.6413 43.2604 43.8463C43.2604 43.0512 42.6159 42.4067 41.8208 42.4067C41.0258 42.4067 40.3813 43.0512 40.3813 43.8463Z" fill="#67707B"/>
<path d="M46.1392 43.8463C46.1392 44.6413 46.7837 45.2858 47.5788 45.2858C48.3738 45.2858 49.0183 44.6413 49.0183 43.8463C49.0183 43.0512 48.3738 42.4067 47.5788 42.4067C46.7837 42.4067 46.1392 43.0512 46.1392 43.8463Z" fill="#67707B"/>
<path d="M28.8648 49.6046C28.8648 50.3996 29.5093 51.0441 30.3044 51.0441C31.0994 51.0441 31.7439 50.3996 31.7439 49.6046C31.7439 48.8095 31.0994 48.165 30.3044 48.165C29.5093 48.165 28.8648 48.8095 28.8648 49.6046Z" fill="#67707B"/>
<path d="M34.623 49.6046C34.623 50.3996 35.2675 51.0441 36.0625 51.0441C36.8576 51.0441 37.5021 50.3996 37.5021 49.6046C37.5021 48.8095 36.8576 48.165 36.0625 48.165C35.2675 48.165 34.623 48.8095 34.623 49.6046Z" fill="#67707B"/>
<path d="M40.3813 49.6046C40.3813 50.3996 41.0258 51.0441 41.8208 51.0441C42.6159 51.0441 43.2604 50.3996 43.2604 49.6046C43.2604 48.8095 42.6159 48.165 41.8208 48.165C41.0258 48.165 40.3813 48.8095 40.3813 49.6046Z" fill="#67707B"/>
<path d="M46.1392 49.6046C46.1392 50.3996 46.7837 51.0441 47.5788 51.0441C48.3738 51.0441 49.0183 50.3996 49.0183 49.6046C49.0183 48.8095 48.3738 48.165 47.5788 48.165C46.7837 48.165 46.1392 48.8095 46.1392 49.6046Z" fill="#67707B"/>
<path d="M28.8648 55.3628C28.8648 56.1578 29.5093 56.8023 30.3044 56.8023C31.0994 56.8023 31.7439 56.1578 31.7439 55.3628C31.7439 54.5677 31.0994 53.9232 30.3044 53.9232C29.5093 53.9232 28.8648 54.5677 28.8648 55.3628Z" fill="#67707B"/>
<path d="M34.623 55.3628C34.623 56.1578 35.2675 56.8023 36.0625 56.8023C36.8576 56.8023 37.5021 56.1578 37.5021 55.3628C37.5021 54.5677 36.8576 53.9232 36.0625 53.9232C35.2675 53.9232 34.623 54.5677 34.623 55.3628Z" fill="#67707B"/>
<path d="M40.3813 55.3628C40.3813 56.1578 41.0258 56.8023 41.8208 56.8023C42.6159 56.8023 43.2604 56.1578 43.2604 55.3628C43.2604 54.5677 42.6159 53.9232 41.8208 53.9232C41.0258 53.9232 40.3813 54.5677 40.3813 55.3628Z" fill="#67707B"/>
<path d="M46.1392 55.3628C46.1392 56.1578 46.7837 56.8023 47.5788 56.8023C48.3738 56.8023 49.0183 56.1578 49.0183 55.3628C49.0183 54.5677 48.3738 53.9232 47.5788 53.9232C46.7837 53.9232 46.1392 54.5677 46.1392 55.3628Z" fill="#67707B"/>
<path d="M23.107 43.8463C23.107 44.6413 23.7515 45.2858 24.5465 45.2858C25.3416 45.2858 25.9861 44.6413 25.9861 43.8463C25.9861 43.0512 25.3416 42.4067 24.5465 42.4067C23.7515 42.4067 23.107 43.0512 23.107 43.8463Z" fill="#67707B"/>
<path d="M23.107 49.6046C23.107 50.3996 23.7515 51.0441 24.5465 51.0441C25.3416 51.0441 25.9861 50.3996 25.9861 49.6046C25.9861 48.8095 25.3416 48.165 24.5465 48.165C23.7515 48.165 23.107 48.8095 23.107 49.6046Z" fill="#67707B"/>
<path d="M23.107 55.3628C23.107 56.1578 23.7515 56.8023 24.5465 56.8023C25.3416 56.8023 25.9861 56.1578 25.9861 55.3628C25.9861 54.5677 25.3416 53.9232 24.5465 53.9232C23.7515 53.9232 23.107 54.5677 23.107 55.3628Z" fill="#67707B"/>
<path d="M17.3483 43.8463C17.3483 44.6413 17.9928 45.2858 18.7879 45.2858C19.5829 45.2858 20.2274 44.6413 20.2274 43.8463C20.2274 43.0512 19.5829 42.4067 18.7879 42.4067C17.9928 42.4067 17.3483 43.0512 17.3483 43.8463Z" fill="#67707B"/>
<path d="M17.3483 49.6046C17.3483 50.3996 17.9928 51.0441 18.7879 51.0441C19.5829 51.0441 20.2274 50.3996 20.2274 49.6046C20.2274 48.8095 19.5829 48.165 18.7879 48.165C17.9928 48.165 17.3483 48.8095 17.3483 49.6046Z" fill="#67707B"/>
<path d="M17.3483 55.3628C17.3483 56.1578 17.9928 56.8023 18.7879 56.8023C19.5829 56.8023 20.2274 56.1578 20.2274 55.3628C20.2274 54.5677 19.5829 53.9232 18.7879 53.9232C17.9928 53.9232 17.3483 54.5677 17.3483 55.3628Z" fill="#67707B"/>
</g>
<defs>
<clipPath id="clip0_1967:19793">
<rect width="64" height="64" fill="white"/>
</clipPath>
</defs>
</svg>
