<svg width="32" height="32" viewBox="0 0 32 32" fill="none" xmlns="http://www.w3.org/2000/svg">
<g clip-path="url(#clip0_1967_19999)">
<path d="M25.2947 12.0061L29.9542 16L25.2947 19.9939L25.2947 12.0061Z" fill="white"/>
<path fill-rule="evenodd" clip-rule="evenodd" d="M23.9634 9.11152L31.9999 16L23.9634 22.8884L23.9634 9.11152ZM25.2947 12.0061L25.2947 19.9939L29.9542 16L25.2947 12.0061Z" fill="#0E141B"/>
<path d="M23.0897 4.01831H1.5975C0.715195 4.01831 -6.10352e-05 4.73356 -6.10352e-05 5.61587V21.5915C-6.10352e-05 25.1207 2.86095 27.9818 6.39019 27.9818H23.0897V4.01831Z" fill="#0E141B"/>
<path d="M9.73507 11.5069C9.73507 11.9205 10.0703 12.2558 10.4839 12.2558C10.8975 12.2558 11.2328 11.9205 11.2328 11.5069C11.2328 11.0933 10.8975 10.7581 10.4839 10.7581C10.0703 10.7581 9.73507 11.0933 9.73507 11.5069Z" fill="#67707B"/>
<path d="M12.7306 11.5069C12.7306 11.9205 13.0658 12.2558 13.4794 12.2558C13.893 12.2558 14.2283 11.9205 14.2283 11.5069C14.2283 11.0933 13.893 10.7581 13.4794 10.7581C13.0658 10.7581 12.7306 11.0933 12.7306 11.5069Z" fill="#67707B"/>
<path d="M15.726 11.5069C15.726 11.9205 16.0613 12.2558 16.4749 12.2558C16.8885 12.2558 17.2238 11.9205 17.2238 11.5069C17.2238 11.0933 16.8885 10.7581 16.4749 10.7581C16.0613 10.7581 15.726 11.0933 15.726 11.5069Z" fill="#67707B"/>
<path d="M18.7213 11.5069C18.7213 11.9205 19.0566 12.2558 19.4701 12.2558C19.8837 12.2558 20.219 11.9205 20.219 11.5069C20.219 11.0933 19.8837 10.7581 19.4701 10.7581C19.0566 10.7581 18.7213 11.0933 18.7213 11.5069Z" fill="#67707B"/>
<path d="M6.73983 11.5069C6.73983 11.9205 7.07511 12.2558 7.48869 12.2558C7.90227 12.2558 8.23755 11.9205 8.23755 11.5069C8.23755 11.0933 7.90227 10.7581 7.48869 10.7581C7.07511 10.7581 6.73983 11.0933 6.73983 11.5069Z" fill="#67707B"/>
<path d="M3.74423 11.5069C3.74423 11.9205 4.0795 12.2558 4.49309 12.2558C4.90667 12.2558 5.24194 11.9205 5.24194 11.5069C5.24194 11.0933 4.90667 10.7581 4.49309 10.7581C4.0795 10.7581 3.74423 11.0933 3.74423 11.5069Z" fill="#67707B"/>
<path d="M9.73507 14.5023C9.73507 14.9159 10.0703 15.2511 10.4839 15.2511C10.8975 15.2511 11.2328 14.9159 11.2328 14.5023C11.2328 14.0887 10.8975 13.7534 10.4839 13.7534C10.0703 13.7534 9.73507 14.0887 9.73507 14.5023Z" fill="#67707B"/>
<path d="M12.7306 14.5023C12.7306 14.9159 13.0658 15.2511 13.4794 15.2511C13.893 15.2511 14.2283 14.9159 14.2283 14.5023C14.2283 14.0887 13.893 13.7534 13.4794 13.7534C13.0658 13.7534 12.7306 14.0887 12.7306 14.5023Z" fill="#67707B"/>
<path d="M15.726 14.5023C15.726 14.9159 16.0613 15.2511 16.4749 15.2511C16.8885 15.2511 17.2238 14.9159 17.2238 14.5023C17.2238 14.0887 16.8885 13.7534 16.4749 13.7534C16.0613 13.7534 15.726 14.0887 15.726 14.5023Z" fill="#67707B"/>
<path d="M18.7213 14.5023C18.7213 14.9159 19.0566 15.2511 19.4701 15.2511C19.8837 15.2511 20.219 14.9159 20.219 14.5023C20.219 14.0887 19.8837 13.7534 19.4701 13.7534C19.0566 13.7534 18.7213 14.0887 18.7213 14.5023Z" fill="#67707B"/>
<path d="M6.73983 14.5023C6.73983 14.9159 7.07511 15.2511 7.48869 15.2511C7.90227 15.2511 8.23755 14.9159 8.23755 14.5023C8.23755 14.0887 7.90227 13.7534 7.48869 13.7534C7.07511 13.7534 6.73983 14.0887 6.73983 14.5023Z" fill="#67707B"/>
<path d="M3.74423 14.5023C3.74423 14.9159 4.0795 15.2511 4.49309 15.2511C4.90667 15.2511 5.24194 14.9159 5.24194 14.5023C5.24194 14.0887 4.90667 13.7534 4.49309 13.7534C4.0795 13.7534 3.74423 14.0887 3.74423 14.5023Z" fill="#67707B"/>
<path d="M9.73507 17.4978C9.73507 17.9113 10.0703 18.2466 10.4839 18.2466C10.8975 18.2466 11.2328 17.9113 11.2328 17.4978C11.2328 17.0842 10.8975 16.7489 10.4839 16.7489C10.0703 16.7489 9.73507 17.0842 9.73507 17.4978Z" fill="#67707B"/>
<path d="M12.7306 17.4978C12.7306 17.9113 13.0658 18.2466 13.4794 18.2466C13.893 18.2466 14.2283 17.9113 14.2283 17.4978C14.2283 17.0842 13.893 16.7489 13.4794 16.7489C13.0658 16.7489 12.7306 17.0842 12.7306 17.4978Z" fill="#67707B"/>
<path d="M15.726 17.4978C15.726 17.9113 16.0613 18.2466 16.4749 18.2466C16.8885 18.2466 17.2238 17.9113 17.2238 17.4978C17.2238 17.0842 16.8885 16.7489 16.4749 16.7489C16.0613 16.7489 15.726 17.0842 15.726 17.4978Z" fill="#67707B"/>
<path d="M18.7213 17.4978C18.7213 17.9113 19.0566 18.2466 19.4701 18.2466C19.8837 18.2466 20.219 17.9113 20.219 17.4978C20.219 17.0842 19.8837 16.7489 19.4701 16.7489C19.0566 16.7489 18.7213 17.0842 18.7213 17.4978Z" fill="#67707B"/>
<path d="M9.73507 20.4932C9.73507 20.9068 10.0703 21.2421 10.4839 21.2421C10.8975 21.2421 11.2328 20.9068 11.2328 20.4932C11.2328 20.0797 10.8975 19.7444 10.4839 19.7444C10.0703 19.7444 9.73507 20.0797 9.73507 20.4932Z" fill="#67707B"/>
<path d="M12.7306 20.4932C12.7306 20.9068 13.0658 21.2421 13.4794 21.2421C13.893 21.2421 14.2283 20.9068 14.2283 20.4932C14.2283 20.0797 13.893 19.7444 13.4794 19.7444C13.0658 19.7444 12.7306 20.0797 12.7306 20.4932Z" fill="#67707B"/>
<path d="M15.726 20.4932C15.726 20.9068 16.0613 21.2421 16.4749 21.2421C16.8885 21.2421 17.2238 20.9068 17.2238 20.4932C17.2238 20.0797 16.8885 19.7444 16.4749 19.7444C16.0613 19.7444 15.726 20.0797 15.726 20.4932Z" fill="#67707B"/>
<path d="M18.7213 20.4932C18.7213 20.9068 19.0566 21.2421 19.4701 21.2421C19.8837 21.2421 20.219 20.9068 20.219 20.4932C20.219 20.0797 19.8837 19.7444 19.4701 19.7444C19.0566 19.7444 18.7213 20.0797 18.7213 20.4932Z" fill="#67707B"/>
<path d="M9.73507 23.4886C9.73507 23.9022 10.0703 24.2375 10.4839 24.2375C10.8975 24.2375 11.2328 23.9022 11.2328 23.4886C11.2328 23.075 10.8975 22.7397 10.4839 22.7397C10.0703 22.7397 9.73507 23.075 9.73507 23.4886Z" fill="#67707B"/>
<path d="M12.7306 23.4886C12.7306 23.9022 13.0658 24.2375 13.4794 24.2375C13.893 24.2375 14.2283 23.9022 14.2283 23.4886C14.2283 23.075 13.893 22.7397 13.4794 22.7397C13.0658 22.7397 12.7306 23.075 12.7306 23.4886Z" fill="#67707B"/>
<path d="M15.726 23.4886C15.726 23.9022 16.0613 24.2375 16.4749 24.2375C16.8885 24.2375 17.2238 23.9022 17.2238 23.4886C17.2238 23.075 16.8885 22.7397 16.4749 22.7397C16.0613 22.7397 15.726 23.075 15.726 23.4886Z" fill="#67707B"/>
<path d="M18.7213 23.4886C18.7213 23.9022 19.0566 24.2375 19.4701 24.2375C19.8837 24.2375 20.219 23.9022 20.219 23.4886C20.219 23.075 19.8837 22.7397 19.4701 22.7397C19.0566 22.7397 18.7213 23.075 18.7213 23.4886Z" fill="#67707B"/>
<path d="M6.73983 17.4978C6.73983 17.9113 7.07511 18.2466 7.48869 18.2466C7.90227 18.2466 8.23755 17.9113 8.23755 17.4978C8.23755 17.0842 7.90227 16.7489 7.48869 16.7489C7.07511 16.7489 6.73983 17.0842 6.73983 17.4978Z" fill="#67707B"/>
<path d="M6.73983 20.4932C6.73983 20.9068 7.07511 21.2421 7.48869 21.2421C7.90227 21.2421 8.23755 20.9068 8.23755 20.4932C8.23755 20.0797 7.90227 19.7444 7.48869 19.7444C7.07511 19.7444 6.73983 20.0797 6.73983 20.4932Z" fill="#67707B"/>
<path d="M6.73983 23.4886C6.73983 23.9022 7.07511 24.2375 7.48869 24.2375C7.90227 24.2375 8.23755 23.9022 8.23755 23.4886C8.23755 23.075 7.90227 22.7397 7.48869 22.7397C7.07511 22.7397 6.73983 23.075 6.73983 23.4886Z" fill="#67707B"/>
<path d="M3.74423 17.4978C3.74423 17.9113 4.0795 18.2466 4.49309 18.2466C4.90667 18.2466 5.24194 17.9113 5.24194 17.4978C5.24194 17.0842 4.90667 16.7489 4.49309 16.7489C4.0795 16.7489 3.74423 17.0842 3.74423 17.4978Z" fill="#67707B"/>
<path d="M3.74423 20.4932C3.74423 20.9068 4.0795 21.2421 4.49309 21.2421C4.90667 21.2421 5.24194 20.9068 5.24194 20.4932C5.24194 20.0797 4.90667 19.7444 4.49309 19.7444C4.0795 19.7444 3.74423 20.0797 3.74423 20.4932Z" fill="#67707B"/>
<path d="M3.74423 23.4886C3.74423 23.9022 4.0795 24.2375 4.49309 24.2375C4.90667 24.2375 5.24194 23.9022 5.24194 23.4886C5.24194 23.075 4.90667 22.7397 4.49309 22.7397C4.0795 22.7397 3.74423 23.075 3.74423 23.4886Z" fill="#67707B"/>
</g>
<defs>
<clipPath id="clip0_1967_19999">
<rect width="32" height="32" fill="white"/>
</clipPath>
</defs>
</svg>
