<svg width="64" height="64" viewBox="0 0 64 64" fill="none" xmlns="http://www.w3.org/2000/svg">
<g clip-path="url(#clip0_1967:15551)">
<path d="M0 7.36108H44.4016C46.1026 7.36108 47.4815 8.73999 47.4815 10.441V44.3196C47.4815 51.1235 41.9658 56.6391 35.1619 56.6391H0V7.36108Z" fill="black"/>
<path d="M8.98308 22.7604C8.98308 23.6109 8.29362 24.3003 7.44314 24.3003C6.59265 24.3003 5.9032 23.6109 5.9032 22.7604C5.9032 21.9099 6.59265 21.2205 7.44314 21.2205C8.29362 21.2205 8.98308 21.9099 8.98308 22.7604Z" fill="#67707B"/>
<path d="M8.98308 28.9202C8.98308 29.7707 8.29362 30.4601 7.44314 30.4601C6.59265 30.4601 5.9032 29.7707 5.9032 28.9202C5.9032 28.0697 6.59265 27.3802 7.44314 27.3802C8.29362 27.3802 8.98308 28.0697 8.98308 28.9202Z" fill="#67707B"/>
<path d="M8.98308 35.0797C8.98308 35.9302 8.29362 36.6197 7.44314 36.6197C6.59265 36.6197 5.9032 35.9302 5.9032 35.0797C5.9032 34.2292 6.59265 33.5398 7.44314 33.5398C8.29362 33.5398 8.98308 34.2292 8.98308 35.0797Z" fill="#67707B"/>
<path d="M8.98308 41.2396C8.98308 42.0901 8.29362 42.7796 7.44314 42.7796C6.59265 42.7796 5.9032 42.0901 5.9032 41.2396C5.9032 40.3892 6.59265 39.6997 7.44314 39.6997C8.29362 39.6997 8.98308 40.3892 8.98308 41.2396Z" fill="#67707B"/>
<path d="M8.98308 47.3994C8.98308 48.2499 8.29362 48.9394 7.44314 48.9394C6.59265 48.9394 5.9032 48.2499 5.9032 47.3994C5.9032 46.549 6.59265 45.8595 7.44314 45.8595C8.29362 45.8595 8.98308 46.549 8.98308 47.3994Z" fill="#67707B"/>
<path d="M15.1426 22.7604C15.1426 23.6109 14.4532 24.3003 13.6027 24.3003C12.7522 24.3003 12.0627 23.6109 12.0627 22.7604C12.0627 21.9099 12.7522 21.2205 13.6027 21.2205C14.4532 21.2205 15.1426 21.9099 15.1426 22.7604Z" fill="#67707B"/>
<path d="M21.3028 22.7604C21.3028 23.6109 20.6133 24.3003 19.7628 24.3003C18.9124 24.3003 18.2229 23.6109 18.2229 22.7604C18.2229 21.9099 18.9124 21.2205 19.7628 21.2205C20.6133 21.2205 21.3028 21.9099 21.3028 22.7604Z" fill="#67707B"/>
<path d="M15.1426 28.9202C15.1426 29.7707 14.4532 30.4601 13.6027 30.4601C12.7522 30.4601 12.0627 29.7707 12.0627 28.9202C12.0627 28.0697 12.7522 27.3802 13.6027 27.3802C14.4532 27.3802 15.1426 28.0697 15.1426 28.9202Z" fill="#67707B"/>
<path d="M21.3028 28.9202C21.3028 29.7707 20.6133 30.4601 19.7628 30.4601C18.9124 30.4601 18.2229 29.7707 18.2229 28.9202C18.2229 28.0697 18.9124 27.3802 19.7628 27.3802C20.6133 27.3802 21.3028 28.0697 21.3028 28.9202Z" fill="#67707B"/>
<path d="M15.1426 35.0797C15.1426 35.9302 14.4532 36.6197 13.6027 36.6197C12.7522 36.6197 12.0627 35.9302 12.0627 35.0797C12.0627 34.2292 12.7522 33.5398 13.6027 33.5398C14.4532 33.5398 15.1426 34.2292 15.1426 35.0797Z" fill="#67707B"/>
<path d="M15.1426 41.2396C15.1426 42.0901 14.4532 42.7796 13.6027 42.7796C12.7522 42.7796 12.0627 42.0901 12.0627 41.2396C12.0627 40.3892 12.7522 39.6997 13.6027 39.6997C14.4532 39.6997 15.1426 40.3892 15.1426 41.2396Z" fill="#67707B"/>
<path d="M15.1426 47.3994C15.1426 48.2499 14.4532 48.9394 13.6027 48.9394C12.7522 48.9394 12.0627 48.2499 12.0627 47.3994C12.0627 46.549 12.7522 45.8595 13.6027 45.8595C14.4532 45.8595 15.1426 46.549 15.1426 47.3994Z" fill="#67707B"/>
<path d="M21.3028 35.0797C21.3028 35.9302 20.6133 36.6197 19.7628 36.6197C18.9124 36.6197 18.2229 35.9302 18.2229 35.0797C18.2229 34.2292 18.9124 33.5398 19.7628 33.5398C20.6133 33.5398 21.3028 34.2292 21.3028 35.0797Z" fill="#67707B"/>
<path d="M21.3028 41.2396C21.3028 42.0901 20.6133 42.7796 19.7628 42.7796C18.9124 42.7796 18.2229 42.0901 18.2229 41.2396C18.2229 40.3892 18.9124 39.6997 19.7628 39.6997C20.6133 39.6997 21.3028 40.3892 21.3028 41.2396Z" fill="#67707B"/>
<path d="M21.3028 47.3994C21.3028 48.2499 20.6133 48.9394 19.7628 48.9394C18.9124 48.9394 18.2229 48.2499 18.2229 47.3994C18.2229 46.549 18.9124 45.8595 19.7628 45.8595C20.6133 45.8595 21.3028 46.549 21.3028 47.3994Z" fill="#67707B"/>
<path d="M27.4622 41.2396C27.4622 42.0901 26.7727 42.7796 25.9223 42.7796C25.0718 42.7796 24.3823 42.0901 24.3823 41.2396C24.3823 40.3892 25.0718 39.6997 25.9223 39.6997C26.7727 39.6997 27.4622 40.3892 27.4622 41.2396Z" fill="#67707B"/>
<path d="M27.4622 47.3994C27.4622 48.2499 26.7727 48.9394 25.9223 48.9394C25.0718 48.9394 24.3823 48.2499 24.3823 47.3994C24.3823 46.549 25.0718 45.8595 25.9223 45.8595C26.7727 45.8595 27.4622 46.549 27.4622 47.3994Z" fill="#67707B"/>
<path d="M33.6217 47.3994C33.6217 48.2499 32.9323 48.9394 32.0818 48.9394C31.2313 48.9394 30.5419 48.2499 30.5419 47.3994C30.5419 46.549 31.2313 45.8595 32.0818 45.8595C32.9323 45.8595 33.6217 46.549 33.6217 47.3994Z" fill="#67707B"/>
<path d="M43.1096 23.0269L49.5487 29.2743H34.6486V34.7258H49.5487L43.1096 40.9732L47.0877 44.8329L60.3142 32.0001L47.0877 19.1672L43.1096 23.0269Z" fill="white"/>
<path fill-rule="evenodd" clip-rule="evenodd" d="M39.4239 23.0268L47.0877 15.591L64 31.9999L47.0877 48.4088L39.4239 40.9731L43.2177 37.2922H32.082V26.7076H43.2177L39.4239 23.0268ZM49.5487 29.2742H34.6486V34.7257H49.5487L43.1097 40.9731L47.0877 44.8328L60.3143 31.9999L47.0877 19.1671L43.1097 23.0268L49.5487 29.2742Z" fill="black"/>
</g>
<defs>
<clipPath id="clip0_1967:15551">
<rect width="64" height="64" fill="white"/>
</clipPath>
</defs>
</svg>
