<svg width="32" height="32" viewBox="0 0 32 32" fill="none" xmlns="http://www.w3.org/2000/svg">
<path fill-rule="evenodd" clip-rule="evenodd" d="M2.69646 6.85718L8.50003 14L14.3035 6.85718H31C31.5523 6.85718 32 7.30489 32 7.85718V21.1429C32 23.352 30.2091 25.1429 28 25.1429H4C1.79086 25.1429 0 23.352 0 21.1429V7.85718C0 7.30489 0.447715 6.85718 1 6.85718H2.69646ZM18.7141 12.5714C18.7141 12.887 18.4583 13.1429 18.1427 13.1429C17.8271 13.1429 17.5713 12.887 17.5713 12.5714C17.5713 12.2558 17.8271 12 18.1427 12C18.4583 12 18.7141 12.2558 18.7141 12.5714ZM18.1427 15.4286C18.4583 15.4286 18.7141 15.1728 18.7141 14.8572C18.7141 14.5416 18.4583 14.2858 18.1427 14.2858C17.8271 14.2858 17.5713 14.5416 17.5713 14.8572C17.5713 15.1728 17.8271 15.4286 18.1427 15.4286ZM18.7141 17.1428C18.7141 17.4584 18.4583 17.7143 18.1427 17.7143C17.8271 17.7143 17.5713 17.4584 17.5713 17.1428C17.5713 16.8272 17.8271 16.5714 18.1427 16.5714C18.4583 16.5714 18.7141 16.8272 18.7141 17.1428ZM18.1427 20C18.4583 20 18.7141 19.7442 18.7141 19.4286C18.7141 19.113 18.4583 18.8572 18.1427 18.8572C17.8271 18.8572 17.5713 19.113 17.5713 19.4286C17.5713 19.7442 17.8271 20 18.1427 20ZM18.7141 21.7143C18.7141 22.0298 18.4583 22.2857 18.1427 22.2857C17.8271 22.2857 17.5713 22.0298 17.5713 21.7143C17.5713 21.3987 17.8271 21.1428 18.1427 21.1428C18.4583 21.1428 18.7141 21.3987 18.7141 21.7143ZM20.4286 13.1429C20.7442 13.1429 21 12.887 21 12.5714C21 12.2558 20.7442 12 20.4286 12C20.113 12 19.8572 12.2558 19.8572 12.5714C19.8572 12.887 20.113 13.1429 20.4286 13.1429ZM23.2857 12.5714C23.2857 12.887 23.0298 13.1429 22.7143 13.1429C22.3987 13.1429 22.1428 12.887 22.1428 12.5714C22.1428 12.2558 22.3987 12 22.7143 12C23.0298 12 23.2857 12.2558 23.2857 12.5714ZM25.0001 13.1429C25.3157 13.1429 25.5716 12.887 25.5716 12.5714C25.5716 12.2558 25.3157 12 25.0001 12C24.6845 12 24.4287 12.2558 24.4287 12.5714C24.4287 12.887 24.6845 13.1429 25.0001 13.1429ZM27.8572 12.5714C27.8572 12.887 27.6014 13.1429 27.2858 13.1429C26.9702 13.1429 26.7144 12.887 26.7144 12.5714C26.7144 12.2558 26.9702 12 27.2858 12C27.6014 12 27.8572 12.2558 27.8572 12.5714ZM29.5714 13.1429C29.887 13.1429 30.1429 12.887 30.1429 12.5714C30.1429 12.2558 29.887 12 29.5714 12C29.2558 12 29 12.2558 29 12.5714C29 12.887 29.2558 13.1429 29.5714 13.1429ZM21 14.8572C21 15.1728 20.7442 15.4286 20.4286 15.4286C20.113 15.4286 19.8572 15.1728 19.8572 14.8572C19.8572 14.5416 20.113 14.2858 20.4286 14.2858C20.7442 14.2858 21 14.5416 21 14.8572ZM22.7143 15.4286C23.0298 15.4286 23.2857 15.1728 23.2857 14.8572C23.2857 14.5416 23.0298 14.2858 22.7143 14.2858C22.3987 14.2858 22.1428 14.5416 22.1428 14.8572C22.1428 15.1728 22.3987 15.4286 22.7143 15.4286ZM25.5716 14.8572C25.5716 15.1728 25.3157 15.4286 25.0001 15.4286C24.6845 15.4286 24.4287 15.1728 24.4287 14.8572C24.4287 14.5416 24.6845 14.2858 25.0001 14.2858C25.3157 14.2858 25.5716 14.5416 25.5716 14.8572ZM27.2858 15.4286C27.6014 15.4286 27.8572 15.1728 27.8572 14.8572C27.8572 14.5416 27.6014 14.2858 27.2858 14.2858C26.9702 14.2858 26.7144 14.5416 26.7144 14.8572C26.7144 15.1728 26.9702 15.4286 27.2858 15.4286ZM30.1429 14.8572C30.1429 15.1728 29.887 15.4286 29.5714 15.4286C29.2558 15.4286 29 15.1728 29 14.8572C29 14.5416 29.2558 14.2858 29.5714 14.2858C29.887 14.2858 30.1429 14.5416 30.1429 14.8572ZM20.4286 17.7143C20.7442 17.7143 21 17.4584 21 17.1428C21 16.8272 20.7442 16.5714 20.4286 16.5714C20.113 16.5714 19.8572 16.8272 19.8572 17.1428C19.8572 17.4584 20.113 17.7143 20.4286 17.7143ZM21 19.4286C21 19.7442 20.7442 20 20.4286 20C20.113 20 19.8572 19.7442 19.8572 19.4286C19.8572 19.113 20.113 18.8572 20.4286 18.8572C20.7442 18.8572 21 19.113 21 19.4286ZM20.4286 22.2857C20.7442 22.2857 21 22.0298 21 21.7143C21 21.3987 20.7442 21.1428 20.4286 21.1428C20.113 21.1428 19.8572 21.3987 19.8572 21.7143C19.8572 22.0298 20.113 22.2857 20.4286 22.2857ZM23.2857 17.1428C23.2857 17.4584 23.0298 17.7143 22.7143 17.7143C22.3987 17.7143 22.1428 17.4584 22.1428 17.1428C22.1428 16.8272 22.3987 16.5714 22.7143 16.5714C23.0298 16.5714 23.2857 16.8272 23.2857 17.1428ZM22.7143 20C23.0298 20 23.2857 19.7442 23.2857 19.4286C23.2857 19.113 23.0298 18.8572 22.7143 18.8572C22.3987 18.8572 22.1428 19.113 22.1428 19.4286C22.1428 19.7442 22.3987 20 22.7143 20ZM23.2857 21.7143C23.2857 22.0298 23.0298 22.2857 22.7143 22.2857C22.3987 22.2857 22.1428 22.0298 22.1428 21.7143C22.1428 21.3987 22.3987 21.1428 22.7143 21.1428C23.0298 21.1428 23.2857 21.3987 23.2857 21.7143ZM25.0001 17.7143C25.3157 17.7143 25.5716 17.4584 25.5716 17.1428C25.5716 16.8272 25.3157 16.5714 25.0001 16.5714C24.6845 16.5714 24.4287 16.8272 24.4287 17.1428C24.4287 17.4584 24.6845 17.7143 25.0001 17.7143ZM25.5716 19.4286C25.5716 19.7442 25.3157 20 25.0001 20C24.6845 20 24.4287 19.7442 24.4287 19.4286C24.4287 19.113 24.6845 18.8572 25.0001 18.8572C25.3157 18.8572 25.5716 19.113 25.5716 19.4286ZM25.0001 22.2857C25.3157 22.2857 25.5716 22.0298 25.5716 21.7143C25.5716 21.3987 25.3157 21.1428 25.0001 21.1428C24.6845 21.1428 24.4287 21.3987 24.4287 21.7143C24.4287 22.0298 24.6845 22.2857 25.0001 22.2857ZM27.8572 17.1428C27.8572 17.4584 27.6014 17.7143 27.2858 17.7143C26.9702 17.7143 26.7144 17.4584 26.7144 17.1428C26.7144 16.8272 26.9702 16.5714 27.2858 16.5714C27.6014 16.5714 27.8572 16.8272 27.8572 17.1428ZM27.2858 20C27.6014 20 27.8572 19.7442 27.8572 19.4286C27.8572 19.113 27.6014 18.8572 27.2858 18.8572C26.9702 18.8572 26.7144 19.113 26.7144 19.4286C26.7144 19.7442 26.9702 20 27.2858 20ZM27.8572 21.7143C27.8572 22.0298 27.6014 22.2857 27.2858 22.2857C26.9702 22.2857 26.7144 22.0298 26.7144 21.7143C26.7144 21.3987 26.9702 21.1428 27.2858 21.1428C27.6014 21.1428 27.8572 21.3987 27.8572 21.7143ZM29.5714 17.7143C29.887 17.7143 30.1429 17.4584 30.1429 17.1428C30.1429 16.8272 29.887 16.5714 29.5714 16.5714C29.2558 16.5714 29 16.8272 29 17.1428C29 17.4584 29.2558 17.7143 29.5714 17.7143ZM30.1429 19.4286C30.1429 19.7442 29.887 20 29.5714 20C29.2558 20 29 19.7442 29 19.4286C29 19.113 29.2558 18.8572 29.5714 18.8572C29.887 18.8572 30.1429 19.113 30.1429 19.4286ZM29.5714 22.2857C29.887 22.2857 30.1429 22.0298 30.1429 21.7143C30.1429 21.3987 29.887 21.1428 29.5714 21.1428C29.2558 21.1428 29 21.3987 29 21.7143C29 22.0298 29.2558 22.2857 29.5714 22.2857Z" fill="#0E141B"/>
<path fill-rule="evenodd" clip-rule="evenodd" d="M3.65683 8.03916C2.23109 8.2714 1.14282 9.50861 1.14282 11V21C1.14282 22.6568 2.48597 24 4.14282 24H13C14.6568 24 16 22.6568 16 21V11C16 9.46424 14.846 8.19802 13.3578 8.02112L12.5625 8.99999H13C14.1045 8.99999 15 9.89542 15 11V21C15 22.1046 14.1045 23 13 23H4.14282C3.03825 23 2.14282 22.1046 2.14282 21V11C2.14282 9.89542 3.03825 8.99999 4.14282 8.99999H4.43751L3.65683 8.03916Z" fill="white"/>
<mask id="path-3-inside-1_7533_1487" fill="white">
<path fill-rule="evenodd" clip-rule="evenodd" d="M11 1H6V5H2L8.50003 13L15 5H11V1Z"/>
</mask>
<path fill-rule="evenodd" clip-rule="evenodd" d="M11 1H6V5H2L8.50003 13L15 5H11V1Z" fill="white"/>
<path d="M6 1V0H5V1H6ZM11 1H12V0H11V1ZM6 5V6H7V5H6ZM2 5V4H-0.100977L1.22389 5.63059L2 5ZM8.50003 13L7.72392 13.6306L8.50003 14.5858L9.27615 13.6306L8.50003 13ZM15 5L15.7761 5.63059L17.101 4H15V5ZM11 5H10V6H11V5ZM6 2H11V0H6V2ZM7 5V1H5V5H7ZM6 4H2V6H6V4ZM1.22389 5.63059L7.72392 13.6306L9.27614 12.3694L2.77611 4.36941L1.22389 5.63059ZM9.27615 13.6306L15.7761 5.63059L14.2239 4.36941L7.72392 12.3694L9.27615 13.6306ZM15 4H11V6H15V4ZM10 1V5H12V1H10Z" fill="#0E141B" mask="url(#path-3-inside-1_7533_1487)"/>
<rect width="1" height="2" transform="matrix(-1 0 0 1 9 15)" fill="white"/>
<rect width="1" height="2" transform="matrix(-0.707107 -0.707107 -0.707107 0.707107 7.12134 14.7072)" fill="white"/>
<rect width="1" height="2" transform="matrix(-0.707107 0.707107 0.707107 0.707107 10.5857 14)" fill="white"/>
</svg>
