<svg width="32" height="32" viewBox="0 0 32 32" fill="none" xmlns="http://www.w3.org/2000/svg">
<path d="M6.61072 19.9376L2.01686 16L6.61072 12.0624L6.61072 19.9376Z" fill="white"/>
<path fill-rule="evenodd" clip-rule="evenodd" d="M7.92322 22.7914L0 16.0001L7.92322 9.20874L7.92322 22.7914ZM6.61069 19.9377L6.61069 12.0625L2.01682 16.0001L6.61069 19.9377Z" fill="#0E141B"/>
<path d="M32 4.18713H10.8108C9.94094 4.18713 9.23577 4.8923 9.23577 5.76217V21.5126C9.23577 24.992 12.0564 27.8127 15.5359 27.8127H32V4.18713Z" fill="#0E141B"/>
<path d="M18.8337 11.5702C18.8337 11.978 19.1643 12.3085 19.572 12.3085C19.9798 12.3085 20.3103 11.978 20.3103 11.5702C20.3103 11.1625 19.9798 10.8319 19.572 10.8319C19.1643 10.8319 18.8337 11.1625 18.8337 11.5702Z" fill="#67707B"/>
<path d="M21.7868 11.5702C21.7868 11.978 22.1174 12.3085 22.5251 12.3085C22.9329 12.3085 23.2634 11.978 23.2634 11.5702C23.2634 11.1625 22.9329 10.8319 22.5251 10.8319C22.1174 10.8319 21.7868 11.1625 21.7868 11.5702Z" fill="#67707B"/>
<path d="M24.7402 11.5702C24.7402 11.978 25.0707 12.3085 25.4785 12.3085C25.8862 12.3085 26.2168 11.978 26.2168 11.5702C26.2168 11.1625 25.8862 10.8319 25.4785 10.8319C25.0707 10.8319 24.7402 11.1625 24.7402 11.5702Z" fill="#67707B"/>
<path d="M27.6932 11.5702C27.6932 11.978 28.0238 12.3085 28.4315 12.3085C28.8393 12.3085 29.1698 11.978 29.1698 11.5702C29.1698 11.1625 28.8393 10.8319 28.4315 10.8319C28.0238 10.8319 27.6932 11.1625 27.6932 11.5702Z" fill="#67707B"/>
<path d="M15.8806 11.5702C15.8806 11.978 16.2111 12.3085 16.6189 12.3085C17.0266 12.3085 17.3572 11.978 17.3572 11.5702C17.3572 11.1625 17.0266 10.8319 16.6189 10.8319C16.2111 10.8319 15.8806 11.1625 15.8806 11.5702Z" fill="#67707B"/>
<path d="M12.9272 11.5702C12.9272 11.978 13.2578 12.3085 13.6655 12.3085C14.0733 12.3085 14.4038 11.978 14.4038 11.5702C14.4038 11.1625 14.0733 10.8319 13.6655 10.8319C13.2578 10.8319 12.9272 11.1625 12.9272 11.5702Z" fill="#67707B"/>
<path d="M18.8337 14.5233C18.8337 14.9311 19.1643 15.2616 19.572 15.2616C19.9798 15.2616 20.3103 14.9311 20.3103 14.5233C20.3103 14.1156 19.9798 13.785 19.572 13.785C19.1643 13.785 18.8337 14.1156 18.8337 14.5233Z" fill="#67707B"/>
<path d="M21.7868 14.5233C21.7868 14.9311 22.1174 15.2616 22.5251 15.2616C22.9329 15.2616 23.2634 14.9311 23.2634 14.5233C23.2634 14.1156 22.9329 13.785 22.5251 13.785C22.1174 13.785 21.7868 14.1156 21.7868 14.5233Z" fill="#67707B"/>
<path d="M24.7402 14.5233C24.7402 14.9311 25.0707 15.2616 25.4785 15.2616C25.8862 15.2616 26.2168 14.9311 26.2168 14.5233C26.2168 14.1156 25.8862 13.785 25.4785 13.785C25.0707 13.785 24.7402 14.1156 24.7402 14.5233Z" fill="#67707B"/>
<path d="M27.6932 14.5233C27.6932 14.9311 28.0238 15.2616 28.4315 15.2616C28.8393 15.2616 29.1698 14.9311 29.1698 14.5233C29.1698 14.1156 28.8393 13.785 28.4315 13.785C28.0238 13.785 27.6932 14.1156 27.6932 14.5233Z" fill="#67707B"/>
<path d="M15.8806 14.5233C15.8806 14.9311 16.2111 15.2616 16.6189 15.2616C17.0266 15.2616 17.3572 14.9311 17.3572 14.5233C17.3572 14.1156 17.0266 13.785 16.6189 13.785C16.2111 13.785 15.8806 14.1156 15.8806 14.5233Z" fill="#67707B"/>
<path d="M12.9272 14.5233C12.9272 14.9311 13.2578 15.2616 13.6655 15.2616C14.0733 15.2616 14.4038 14.9311 14.4038 14.5233C14.4038 14.1156 14.0733 13.785 13.6655 13.785C13.2578 13.785 12.9272 14.1156 12.9272 14.5233Z" fill="#67707B"/>
<path d="M18.8337 17.4765C18.8337 17.8842 19.1643 18.2148 19.572 18.2148C19.9798 18.2148 20.3103 17.8842 20.3103 17.4765C20.3103 17.0687 19.9798 16.7382 19.572 16.7382C19.1643 16.7382 18.8337 17.0687 18.8337 17.4765Z" fill="#67707B"/>
<path d="M21.7868 17.4765C21.7868 17.8842 22.1174 18.2148 22.5251 18.2148C22.9329 18.2148 23.2634 17.8842 23.2634 17.4765C23.2634 17.0687 22.9329 16.7382 22.5251 16.7382C22.1174 16.7382 21.7868 17.0687 21.7868 17.4765Z" fill="#67707B"/>
<path d="M24.7402 17.4765C24.7402 17.8842 25.0707 18.2148 25.4785 18.2148C25.8862 18.2148 26.2168 17.8842 26.2168 17.4765C26.2168 17.0687 25.8862 16.7382 25.4785 16.7382C25.0707 16.7382 24.7402 17.0687 24.7402 17.4765Z" fill="#67707B"/>
<path d="M27.6932 17.4765C27.6932 17.8842 28.0238 18.2148 28.4315 18.2148C28.8393 18.2148 29.1698 17.8842 29.1698 17.4765C29.1698 17.0687 28.8393 16.7382 28.4315 16.7382C28.0238 16.7382 27.6932 17.0687 27.6932 17.4765Z" fill="#67707B"/>
<path d="M18.8337 20.4297C18.8337 20.8375 19.1643 21.168 19.572 21.168C19.9798 21.168 20.3103 20.8375 20.3103 20.4297C20.3103 20.022 19.9798 19.6914 19.572 19.6914C19.1643 19.6914 18.8337 20.022 18.8337 20.4297Z" fill="#67707B"/>
<path d="M21.7868 20.4297C21.7868 20.8375 22.1174 21.168 22.5251 21.168C22.9329 21.168 23.2634 20.8375 23.2634 20.4297C23.2634 20.022 22.9329 19.6914 22.5251 19.6914C22.1174 19.6914 21.7868 20.022 21.7868 20.4297Z" fill="#67707B"/>
<path d="M24.7402 20.4297C24.7402 20.8375 25.0707 21.168 25.4785 21.168C25.8862 21.168 26.2168 20.8375 26.2168 20.4297C26.2168 20.022 25.8862 19.6914 25.4785 19.6914C25.0707 19.6914 24.7402 20.022 24.7402 20.4297Z" fill="#67707B"/>
<path d="M27.6932 20.4297C27.6932 20.8375 28.0238 21.168 28.4315 21.168C28.8393 21.168 29.1698 20.8375 29.1698 20.4297C29.1698 20.022 28.8393 19.6914 28.4315 19.6914C28.0238 19.6914 27.6932 20.022 27.6932 20.4297Z" fill="#67707B"/>
<path d="M18.8337 23.383C18.8337 23.7907 19.1643 24.1213 19.572 24.1213C19.9798 24.1213 20.3103 23.7907 20.3103 23.383C20.3103 22.9752 19.9798 22.6447 19.572 22.6447C19.1643 22.6447 18.8337 22.9752 18.8337 23.383Z" fill="#67707B"/>
<path d="M21.7868 23.383C21.7868 23.7907 22.1174 24.1213 22.5251 24.1213C22.9329 24.1213 23.2634 23.7907 23.2634 23.383C23.2634 22.9752 22.9329 22.6447 22.5251 22.6447C22.1174 22.6447 21.7868 22.9752 21.7868 23.383Z" fill="#67707B"/>
<path d="M24.7402 23.383C24.7402 23.7907 25.0707 24.1213 25.4785 24.1213C25.8862 24.1213 26.2168 23.7907 26.2168 23.383C26.2168 22.9752 25.8862 22.6447 25.4785 22.6447C25.0707 22.6447 24.7402 22.9752 24.7402 23.383Z" fill="#67707B"/>
<path d="M27.6932 23.383C27.6932 23.7907 28.0238 24.1213 28.4315 24.1213C28.8393 24.1213 29.1698 23.7907 29.1698 23.383C29.1698 22.9752 28.8393 22.6447 28.4315 22.6447C28.0238 22.6447 27.6932 22.9752 27.6932 23.383Z" fill="#67707B"/>
<path d="M15.8806 17.4765C15.8806 17.8842 16.2111 18.2148 16.6189 18.2148C17.0266 18.2148 17.3572 17.8842 17.3572 17.4765C17.3572 17.0687 17.0266 16.7382 16.6189 16.7382C16.2111 16.7382 15.8806 17.0687 15.8806 17.4765Z" fill="#67707B"/>
<path d="M15.8806 20.4297C15.8806 20.8375 16.2111 21.168 16.6189 21.168C17.0266 21.168 17.3572 20.8375 17.3572 20.4297C17.3572 20.022 17.0266 19.6914 16.6189 19.6914C16.2111 19.6914 15.8806 20.022 15.8806 20.4297Z" fill="#67707B"/>
<path d="M15.8806 23.383C15.8806 23.7907 16.2111 24.1213 16.6189 24.1213C17.0266 24.1213 17.3572 23.7907 17.3572 23.383C17.3572 22.9752 17.0266 22.6447 16.6189 22.6447C16.2111 22.6447 15.8806 22.9752 15.8806 23.383Z" fill="#67707B"/>
<path d="M12.9272 17.4765C12.9272 17.8842 13.2578 18.2148 13.6655 18.2148C14.0733 18.2148 14.4038 17.8842 14.4038 17.4765C14.4038 17.0687 14.0733 16.7382 13.6655 16.7382C13.2578 16.7382 12.9272 17.0687 12.9272 17.4765Z" fill="#67707B"/>
<path d="M12.9272 20.4297C12.9272 20.8375 13.2578 21.168 13.6655 21.168C14.0733 21.168 14.4038 20.8375 14.4038 20.4297C14.4038 20.022 14.0733 19.6914 13.6655 19.6914C13.2578 19.6914 12.9272 20.022 12.9272 20.4297Z" fill="#67707B"/>
<path d="M12.9272 23.383C12.9272 23.7907 13.2578 24.1213 13.6655 24.1213C14.0733 24.1213 14.4038 23.7907 14.4038 23.383C14.4038 22.9752 14.0733 22.6447 13.6655 22.6447C13.2578 22.6447 12.9272 22.9752 12.9272 23.383Z" fill="#67707B"/>
</svg>
