<svg width="32" height="32" viewBox="0 0 32 32" fill="none" xmlns="http://www.w3.org/2000/svg">
<g clip-path="url(#clip0_1967_20135)">
<path d="M27.2683 0H6.61092C5.76289 0 5.07541 0.687471 5.07541 1.53551V16.8906C5.07541 20.2827 7.8253 23.0326 11.2174 23.0326H27.2683V0Z" fill="#0E141B"/>
<path d="M14.4324 7.19767C14.4324 7.59519 14.7547 7.91744 15.1522 7.91744C15.5497 7.91744 15.8719 7.59519 15.8719 7.19767C15.8719 6.80016 15.5497 6.47791 15.1522 6.47791C14.7547 6.47791 14.4324 6.80016 14.4324 7.19767Z" fill="#67707B"/>
<path d="M17.3114 7.19767C17.3114 7.59519 17.6337 7.91744 18.0312 7.91744C18.4287 7.91744 18.751 7.59519 18.751 7.19767C18.751 6.80016 18.4287 6.47791 18.0312 6.47791C17.6337 6.47791 17.3114 6.80016 17.3114 7.19767Z" fill="#67707B"/>
<path d="M20.1907 7.19767C20.1907 7.59519 20.513 7.91744 20.9105 7.91744C21.308 7.91744 21.6302 7.59519 21.6302 7.19767C21.6302 6.80016 21.308 6.47791 20.9105 6.47791C20.513 6.47791 20.1907 6.80016 20.1907 7.19767Z" fill="#67707B"/>
<path d="M23.0696 7.19767C23.0696 7.59519 23.3919 7.91744 23.7894 7.91744C24.1869 7.91744 24.5092 7.59519 24.5092 7.19767C24.5092 6.80016 24.1869 6.47791 23.7894 6.47791C23.3919 6.47791 23.0696 6.80016 23.0696 7.19767Z" fill="#67707B"/>
<path d="M11.5535 7.19767C11.5535 7.59519 11.8758 7.91744 12.2733 7.91744C12.6708 7.91744 12.993 7.59519 12.993 7.19767C12.993 6.80016 12.6708 6.47791 12.2733 6.47791C11.8758 6.47791 11.5535 6.80016 11.5535 7.19767Z" fill="#67707B"/>
<path d="M8.67423 7.19767C8.67423 7.59519 8.99648 7.91744 9.394 7.91744C9.79152 7.91744 10.1138 7.59519 10.1138 7.19767C10.1138 6.80016 9.79152 6.47791 9.394 6.47791C8.99648 6.47791 8.67423 6.80016 8.67423 7.19767Z" fill="#67707B"/>
<path d="M14.4324 10.0767C14.4324 10.4742 14.7547 10.7965 15.1522 10.7965C15.5497 10.7965 15.8719 10.4742 15.8719 10.0767C15.8719 9.67919 15.5497 9.35693 15.1522 9.35693C14.7547 9.35693 14.4324 9.67919 14.4324 10.0767Z" fill="#67707B"/>
<path d="M17.3114 10.0767C17.3114 10.4742 17.6337 10.7965 18.0312 10.7965C18.4287 10.7965 18.751 10.4742 18.751 10.0767C18.751 9.67919 18.4287 9.35693 18.0312 9.35693C17.6337 9.35693 17.3114 9.67919 17.3114 10.0767Z" fill="#67707B"/>
<path d="M20.1907 10.0767C20.1907 10.4742 20.513 10.7965 20.9105 10.7965C21.308 10.7965 21.6302 10.4742 21.6302 10.0767C21.6302 9.67919 21.308 9.35693 20.9105 9.35693C20.513 9.35693 20.1907 9.67919 20.1907 10.0767Z" fill="#67707B"/>
<path d="M23.0696 10.0767C23.0696 10.4742 23.3919 10.7965 23.7894 10.7965C24.1869 10.7965 24.5092 10.4742 24.5092 10.0767C24.5092 9.67919 24.1869 9.35693 23.7894 9.35693C23.3919 9.35693 23.0696 9.67919 23.0696 10.0767Z" fill="#67707B"/>
<path d="M11.5535 10.0767C11.5535 10.4742 11.8758 10.7965 12.2733 10.7965C12.6708 10.7965 12.993 10.4742 12.993 10.0767C12.993 9.67919 12.6708 9.35693 12.2733 9.35693C11.8758 9.35693 11.5535 9.67919 11.5535 10.0767Z" fill="#67707B"/>
<path d="M8.67423 10.0767C8.67423 10.4742 8.99648 10.7965 9.394 10.7965C9.79152 10.7965 10.1138 10.4742 10.1138 10.0767C10.1138 9.67919 9.79152 9.35693 9.394 9.35693C8.99648 9.35693 8.67423 9.67919 8.67423 10.0767Z" fill="#67707B"/>
<path d="M14.4324 12.9557C14.4324 13.3532 14.7547 13.6755 15.1522 13.6755C15.5497 13.6755 15.8719 13.3532 15.8719 12.9557C15.8719 12.5582 15.5497 12.236 15.1522 12.236C14.7547 12.236 14.4324 12.5582 14.4324 12.9557Z" fill="#67707B"/>
<path d="M17.3114 12.9557C17.3114 13.3532 17.6337 13.6755 18.0312 13.6755C18.4287 13.6755 18.751 13.3532 18.751 12.9557C18.751 12.5582 18.4287 12.236 18.0312 12.236C17.6337 12.236 17.3114 12.5582 17.3114 12.9557Z" fill="#67707B"/>
<path d="M20.1907 12.9557C20.1907 13.3532 20.513 13.6755 20.9105 13.6755C21.308 13.6755 21.6302 13.3532 21.6302 12.9557C21.6302 12.5582 21.308 12.236 20.9105 12.236C20.513 12.236 20.1907 12.5582 20.1907 12.9557Z" fill="#67707B"/>
<path d="M23.0696 12.9557C23.0696 13.3532 23.3919 13.6755 23.7894 13.6755C24.1869 13.6755 24.5092 13.3532 24.5092 12.9557C24.5092 12.5582 24.1869 12.236 23.7894 12.236C23.3919 12.236 23.0696 12.5582 23.0696 12.9557Z" fill="#67707B"/>
<path d="M14.4324 15.8349C14.4324 16.2324 14.7547 16.5547 15.1522 16.5547C15.5497 16.5547 15.8719 16.2324 15.8719 15.8349C15.8719 15.4374 15.5497 15.1151 15.1522 15.1151C14.7547 15.1151 14.4324 15.4374 14.4324 15.8349Z" fill="#67707B"/>
<path d="M17.3114 15.8349C17.3114 16.2324 17.6337 16.5547 18.0312 16.5547C18.4287 16.5547 18.751 16.2324 18.751 15.8349C18.751 15.4374 18.4287 15.1151 18.0312 15.1151C17.6337 15.1151 17.3114 15.4374 17.3114 15.8349Z" fill="#67707B"/>
<path d="M20.1907 15.8349C20.1907 16.2324 20.513 16.5547 20.9105 16.5547C21.308 16.5547 21.6302 16.2324 21.6302 15.8349C21.6302 15.4374 21.308 15.1151 20.9105 15.1151C20.513 15.1151 20.1907 15.4374 20.1907 15.8349Z" fill="#67707B"/>
<path d="M23.0696 15.8349C23.0696 16.2324 23.3919 16.5547 23.7894 16.5547C24.1869 16.5547 24.5092 16.2324 24.5092 15.8349C24.5092 15.4374 24.1869 15.1151 23.7894 15.1151C23.3919 15.1151 23.0696 15.4374 23.0696 15.8349Z" fill="#67707B"/>
<path d="M14.4324 18.714C14.4324 19.1115 14.7547 19.4338 15.1522 19.4338C15.5497 19.4338 15.8719 19.1115 15.8719 18.714C15.8719 18.3165 15.5497 17.9943 15.1522 17.9943C14.7547 17.9943 14.4324 18.3165 14.4324 18.714Z" fill="#67707B"/>
<path d="M17.3114 18.714C17.3114 19.1115 17.6337 19.4338 18.0312 19.4338C18.4287 19.4338 18.751 19.1115 18.751 18.714C18.751 18.3165 18.4287 17.9943 18.0312 17.9943C17.6337 17.9943 17.3114 18.3165 17.3114 18.714Z" fill="#67707B"/>
<path d="M20.1907 18.714C20.1907 19.1115 20.513 19.4338 20.9105 19.4338C21.308 19.4338 21.6302 19.1115 21.6302 18.714C21.6302 18.3165 21.308 17.9943 20.9105 17.9943C20.513 17.9943 20.1907 18.3165 20.1907 18.714Z" fill="#67707B"/>
<path d="M23.0696 18.714C23.0696 19.1115 23.3919 19.4338 23.7894 19.4338C24.1869 19.4338 24.5092 19.1115 24.5092 18.714C24.5092 18.3165 24.1869 17.9943 23.7894 17.9943C23.3919 17.9943 23.0696 18.3165 23.0696 18.714Z" fill="#67707B"/>
<path d="M11.5535 12.9557C11.5535 13.3532 11.8758 13.6755 12.2733 13.6755C12.6708 13.6755 12.993 13.3532 12.993 12.9557C12.993 12.5582 12.6708 12.236 12.2733 12.236C11.8758 12.236 11.5535 12.5582 11.5535 12.9557Z" fill="#67707B"/>
<path d="M11.5535 15.8349C11.5535 16.2324 11.8758 16.5547 12.2733 16.5547C12.6708 16.5547 12.993 16.2324 12.993 15.8349C12.993 15.4374 12.6708 15.1151 12.2733 15.1151C11.8758 15.1151 11.5535 15.4374 11.5535 15.8349Z" fill="#67707B"/>
<path d="M11.5535 18.714C11.5535 19.1115 11.8758 19.4338 12.2733 19.4338C12.6708 19.4338 12.993 19.1115 12.993 18.714C12.993 18.3165 12.6708 17.9943 12.2733 17.9943C11.8758 17.9943 11.5535 18.3165 11.5535 18.714Z" fill="#67707B"/>
<path d="M8.67423 12.9557C8.67423 13.3532 8.99648 13.6755 9.394 13.6755C9.79152 13.6755 10.1138 13.3532 10.1138 12.9557C10.1138 12.5582 9.79152 12.236 9.394 12.236C8.99648 12.236 8.67423 12.5582 8.67423 12.9557Z" fill="#67707B"/>
<path d="M8.67423 15.8349C8.67423 16.2324 8.99648 16.5547 9.394 16.5547C9.79152 16.5547 10.1138 16.2324 10.1138 15.8349C10.1138 15.4374 9.79152 15.1151 9.394 15.1151C8.99648 15.1151 8.67423 15.4374 8.67423 15.8349Z" fill="#67707B"/>
<path d="M8.67423 18.714C8.67423 19.1115 8.99648 19.4338 9.394 19.4338C9.79152 19.4338 10.1138 19.1115 10.1138 18.714C10.1138 18.3165 9.79152 17.9943 9.394 17.9943C8.99648 17.9943 8.67423 18.3165 8.67423 18.714Z" fill="#67707B"/>
<path d="M20.4305 25.5918L16.5917 30.0704L12.7529 25.5918H20.4305Z" fill="white"/>
<path fill-rule="evenodd" clip-rule="evenodd" d="M23.2127 24.3123L16.5918 32.0366L9.97095 24.3123H23.2127ZM20.4306 25.5918H12.7531L16.5918 30.0704L20.4306 25.5918Z" fill="#0E141B"/>
</g>
<defs>
<clipPath id="clip0_1967_20135">
<rect width="32" height="32" fill="white"/>
</clipPath>
</defs>
</svg>
