<svg width="64" height="64" viewBox="0 0 64 64" fill="none" xmlns="http://www.w3.org/2000/svg">
<path d="M0 16C0 14.8954 0.895431 14 2 14H62C63.1046 14 64 14.8954 64 16V42.5714C64 46.9897 60.4183 50.5714 56 50.5714H8C3.58172 50.5714 0 46.9897 0 42.5714V16Z" fill="black"/>
<circle cx="6.85709" cy="25.4286" r="1.14286" fill="#67707B"/>
<circle cx="29.7143" cy="25.4286" r="1.14286" fill="#67707B"/>
<circle cx="6.85709" cy="30" r="1.14286" fill="#67707B"/>
<circle cx="29.7143" cy="30" r="1.14286" fill="#67707B"/>
<circle cx="6.85709" cy="34.5714" r="1.14286" fill="#67707B"/>
<circle cx="6.85709" cy="39.1429" r="1.14286" fill="#67707B"/>
<circle cx="6.85709" cy="43.7143" r="1.14286" fill="#67707B"/>
<circle cx="29.7143" cy="34.5714" r="1.14286" fill="#67707B"/>
<circle cx="29.7143" cy="39.1429" r="1.14286" fill="#67707B"/>
<circle cx="29.7143" cy="43.7143" r="1.14286" fill="#67707B"/>
<circle cx="11.4286" cy="25.4286" r="1.14286" fill="#67707B"/>
<circle cx="34.2857" cy="25.4286" r="1.14286" fill="#67707B"/>
<circle cx="11.4286" cy="30" r="1.14286" fill="#67707B"/>
<circle cx="34.2857" cy="30" r="1.14286" fill="#67707B"/>
<circle cx="11.4286" cy="34.5714" r="1.14286" fill="#67707B"/>
<circle cx="11.4286" cy="39.1429" r="1.14286" fill="#67707B"/>
<circle cx="11.4286" cy="43.7143" r="1.14286" fill="#67707B"/>
<circle cx="34.2857" cy="34.5714" r="1.14286" fill="#67707B"/>
<circle cx="34.2857" cy="39.1429" r="1.14286" fill="#67707B"/>
<circle cx="34.2857" cy="43.7143" r="1.14286" fill="#67707B"/>
<circle cx="16" cy="25.4286" r="1.14286" fill="#67707B"/>
<circle cx="38.8571" cy="25.4286" r="1.14286" fill="#67707B"/>
<circle cx="43.4286" cy="25.4286" r="1.14286" fill="#67707B"/>
<circle cx="16" cy="30" r="1.14286" fill="#67707B"/>
<circle cx="38.8571" cy="30" r="1.14286" fill="#67707B"/>
<circle cx="43.4286" cy="30" r="1.14286" fill="#67707B"/>
<circle cx="16" cy="34.5714" r="1.14286" fill="#67707B"/>
<circle cx="16" cy="39.1429" r="1.14286" fill="#67707B"/>
<circle cx="16" cy="43.7143" r="1.14286" fill="#67707B"/>
<circle cx="38.8571" cy="34.5714" r="1.14286" fill="#67707B"/>
<circle cx="38.8571" cy="39.1429" r="1.14286" fill="#67707B"/>
<circle cx="38.8571" cy="43.7143" r="1.14286" fill="#67707B"/>
<circle cx="43.4286" cy="34.5714" r="1.14286" fill="#67707B"/>
<circle cx="43.4286" cy="39.1429" r="1.14286" fill="#67707B"/>
<circle cx="43.4286" cy="43.7143" r="1.14286" fill="#67707B"/>
<circle cx="20.5714" cy="25.4286" r="1.14286" fill="#67707B"/>
<circle cx="25.1429" cy="25.4286" r="1.14286" fill="#67707B"/>
<circle cx="20.5714" cy="30" r="1.14286" fill="#67707B"/>
<circle cx="25.1429" cy="30" r="1.14286" fill="#67707B"/>
<circle cx="20.5714" cy="34.5714" r="1.14286" fill="#67707B"/>
<circle cx="20.5714" cy="39.1429" r="1.14286" fill="#67707B"/>
<circle cx="20.5714" cy="43.7143" r="1.14286" fill="#67707B"/>
<circle cx="25.1429" cy="34.5714" r="1.14286" fill="#67707B"/>
<circle cx="25.1429" cy="39.1429" r="1.14286" fill="#67707B"/>
<circle cx="25.1429" cy="43.7143" r="1.14286" fill="#67707B"/>
<path d="M51 41L61 32.5L51 24V41Z" fill="white"/>
</svg>
