<svg width="32" height="32" viewBox="0 0 32 32" fill="none" xmlns="http://www.w3.org/2000/svg">
<g clip-path="url(#clip0_1967_19725)">
<path d="M5.07544 8.96741H25.7328C26.5809 8.96741 27.2683 9.65488 27.2683 10.5029V25.858C27.2683 29.2501 24.5185 32 21.1263 32H5.07544V8.96741Z" fill="#0E141B"/>
<path d="M17.9113 16.1651C17.9113 16.5626 17.5891 16.8849 17.1916 16.8849C16.7941 16.8849 16.4718 16.5626 16.4718 16.1651C16.4718 15.7676 16.7941 15.4453 17.1916 15.4453C17.5891 15.4453 17.9113 15.7676 17.9113 16.1651Z" fill="#67707B"/>
<path d="M15.0322 16.1651C15.0322 16.5626 14.7099 16.8849 14.3124 16.8849C13.9149 16.8849 13.5927 16.5626 13.5927 16.1651C13.5927 15.7676 13.9149 15.4453 14.3124 15.4453C14.7099 15.4453 15.0322 15.7676 15.0322 16.1651Z" fill="#67707B"/>
<path d="M12.153 16.1651C12.153 16.5626 11.8308 16.8849 11.4333 16.8849C11.0358 16.8849 10.7135 16.5626 10.7135 16.1651C10.7135 15.7676 11.0358 15.4453 11.4333 15.4453C11.8308 15.4453 12.153 15.7676 12.153 16.1651Z" fill="#67707B"/>
<path d="M9.27413 16.1651C9.27413 16.5626 8.95188 16.8849 8.55436 16.8849C8.15685 16.8849 7.83459 16.5626 7.83459 16.1651C7.83459 15.7676 8.15685 15.4453 8.55436 15.4453C8.95188 15.4453 9.27413 15.7676 9.27413 16.1651Z" fill="#67707B"/>
<path d="M20.7902 16.1651C20.7902 16.5626 20.468 16.8849 20.0705 16.8849C19.673 16.8849 19.3507 16.5626 19.3507 16.1651C19.3507 15.7676 19.673 15.4453 20.0705 15.4453C20.468 15.4453 20.7902 15.7676 20.7902 16.1651Z" fill="#67707B"/>
<path d="M23.6695 16.1651C23.6695 16.5626 23.3473 16.8849 22.9498 16.8849C22.5522 16.8849 22.23 16.5626 22.23 16.1651C22.23 15.7676 22.5522 15.4453 22.9498 15.4453C23.3473 15.4453 23.6695 15.7676 23.6695 16.1651Z" fill="#67707B"/>
<path d="M17.9113 19.0441C17.9113 19.4416 17.5891 19.7639 17.1916 19.7639C16.7941 19.7639 16.4718 19.4416 16.4718 19.0441C16.4718 18.6466 16.7941 18.3243 17.1916 18.3243C17.5891 18.3243 17.9113 18.6466 17.9113 19.0441Z" fill="#67707B"/>
<path d="M15.0322 19.0441C15.0322 19.4416 14.7099 19.7639 14.3124 19.7639C13.9149 19.7639 13.5927 19.4416 13.5927 19.0441C13.5927 18.6466 13.9149 18.3243 14.3124 18.3243C14.7099 18.3243 15.0322 18.6466 15.0322 19.0441Z" fill="#67707B"/>
<path d="M12.153 19.0441C12.153 19.4416 11.8308 19.7639 11.4333 19.7639C11.0358 19.7639 10.7135 19.4416 10.7135 19.0441C10.7135 18.6466 11.0358 18.3243 11.4333 18.3243C11.8308 18.3243 12.153 18.6466 12.153 19.0441Z" fill="#67707B"/>
<path d="M9.27413 19.0441C9.27413 19.4416 8.95188 19.7639 8.55436 19.7639C8.15685 19.7639 7.83459 19.4416 7.83459 19.0441C7.83459 18.6466 8.15685 18.3243 8.55436 18.3243C8.95188 18.3243 9.27413 18.6466 9.27413 19.0441Z" fill="#67707B"/>
<path d="M20.7902 19.0441C20.7902 19.4416 20.468 19.7639 20.0705 19.7639C19.673 19.7639 19.3507 19.4416 19.3507 19.0441C19.3507 18.6466 19.673 18.3243 20.0705 18.3243C20.468 18.3243 20.7902 18.6466 20.7902 19.0441Z" fill="#67707B"/>
<path d="M23.6695 19.0441C23.6695 19.4416 23.3473 19.7639 22.9498 19.7639C22.5522 19.7639 22.23 19.4416 22.23 19.0441C22.23 18.6466 22.5522 18.3243 22.9498 18.3243C23.3473 18.3243 23.6695 18.6466 23.6695 19.0441Z" fill="#67707B"/>
<path d="M17.9113 21.9233C17.9113 22.3208 17.5891 22.643 17.1916 22.643C16.7941 22.643 16.4718 22.3208 16.4718 21.9233C16.4718 21.5257 16.7941 21.2035 17.1916 21.2035C17.5891 21.2035 17.9113 21.5257 17.9113 21.9233Z" fill="#67707B"/>
<path d="M15.0322 21.9233C15.0322 22.3208 14.7099 22.643 14.3124 22.643C13.9149 22.643 13.5927 22.3208 13.5927 21.9233C13.5927 21.5257 13.9149 21.2035 14.3124 21.2035C14.7099 21.2035 15.0322 21.5257 15.0322 21.9233Z" fill="#67707B"/>
<path d="M12.153 21.9233C12.153 22.3208 11.8308 22.643 11.4333 22.643C11.0358 22.643 10.7135 22.3208 10.7135 21.9233C10.7135 21.5257 11.0358 21.2035 11.4333 21.2035C11.8308 21.2035 12.153 21.5257 12.153 21.9233Z" fill="#67707B"/>
<path d="M9.27413 21.9233C9.27413 22.3208 8.95188 22.643 8.55436 22.643C8.15685 22.643 7.83459 22.3208 7.83459 21.9233C7.83459 21.5257 8.15685 21.2035 8.55436 21.2035C8.95188 21.2035 9.27413 21.5257 9.27413 21.9233Z" fill="#67707B"/>
<path d="M17.9113 24.8024C17.9113 25.1999 17.5891 25.5222 17.1916 25.5222C16.7941 25.5222 16.4718 25.1999 16.4718 24.8024C16.4718 24.4049 16.7941 24.0826 17.1916 24.0826C17.5891 24.0826 17.9113 24.4049 17.9113 24.8024Z" fill="#67707B"/>
<path d="M15.0322 24.8024C15.0322 25.1999 14.7099 25.5222 14.3124 25.5222C13.9149 25.5222 13.5927 25.1999 13.5927 24.8024C13.5927 24.4049 13.9149 24.0826 14.3124 24.0826C14.7099 24.0826 15.0322 24.4049 15.0322 24.8024Z" fill="#67707B"/>
<path d="M12.153 24.8024C12.153 25.1999 11.8308 25.5222 11.4333 25.5222C11.0358 25.5222 10.7135 25.1999 10.7135 24.8024C10.7135 24.4049 11.0358 24.0826 11.4333 24.0826C11.8308 24.0826 12.153 24.4049 12.153 24.8024Z" fill="#67707B"/>
<path d="M9.27413 24.8024C9.27413 25.1999 8.95188 25.5222 8.55436 25.5222C8.15685 25.5222 7.83459 25.1999 7.83459 24.8024C7.83459 24.4049 8.15685 24.0826 8.55436 24.0826C8.95188 24.0826 9.27413 24.4049 9.27413 24.8024Z" fill="#67707B"/>
<path d="M17.9113 27.6814C17.9113 28.079 17.5891 28.4012 17.1916 28.4012C16.7941 28.4012 16.4718 28.079 16.4718 27.6814C16.4718 27.2839 16.7941 26.9617 17.1916 26.9617C17.5891 26.9617 17.9113 27.2839 17.9113 27.6814Z" fill="#67707B"/>
<path d="M15.0322 27.6814C15.0322 28.079 14.7099 28.4012 14.3124 28.4012C13.9149 28.4012 13.5927 28.079 13.5927 27.6814C13.5927 27.2839 13.9149 26.9617 14.3124 26.9617C14.7099 26.9617 15.0322 27.2839 15.0322 27.6814Z" fill="#67707B"/>
<path d="M12.153 27.6814C12.153 28.079 11.8308 28.4012 11.4333 28.4012C11.0358 28.4012 10.7135 28.079 10.7135 27.6814C10.7135 27.2839 11.0358 26.9617 11.4333 26.9617C11.8308 26.9617 12.153 27.2839 12.153 27.6814Z" fill="#67707B"/>
<path d="M9.27413 27.6814C9.27413 28.079 8.95188 28.4012 8.55436 28.4012C8.15685 28.4012 7.83459 28.079 7.83459 27.6814C7.83459 27.2839 8.15685 26.9617 8.55436 26.9617C8.95188 26.9617 9.27413 27.2839 9.27413 27.6814Z" fill="#67707B"/>
<path d="M20.7902 21.9233C20.7902 22.3208 20.468 22.643 20.0705 22.643C19.673 22.643 19.3507 22.3208 19.3507 21.9233C19.3507 21.5257 19.673 21.2035 20.0705 21.2035C20.468 21.2035 20.7902 21.5257 20.7902 21.9233Z" fill="#67707B"/>
<path d="M20.7902 24.8024C20.7902 25.1999 20.468 25.5222 20.0705 25.5222C19.673 25.5222 19.3507 25.1999 19.3507 24.8024C19.3507 24.4049 19.673 24.0826 20.0705 24.0826C20.468 24.0826 20.7902 24.4049 20.7902 24.8024Z" fill="#67707B"/>
<path d="M20.7902 27.6814C20.7902 28.079 20.468 28.4012 20.0705 28.4012C19.673 28.4012 19.3507 28.079 19.3507 27.6814C19.3507 27.2839 19.673 26.9617 20.0705 26.9617C20.468 26.9617 20.7902 27.2839 20.7902 27.6814Z" fill="#67707B"/>
<path d="M23.6695 21.9233C23.6695 22.3208 23.3473 22.643 22.9498 22.643C22.5522 22.643 22.23 22.3208 22.23 21.9233C22.23 21.5257 22.5522 21.2035 22.9498 21.2035C23.3473 21.2035 23.6695 21.5257 23.6695 21.9233Z" fill="#67707B"/>
<path d="M23.6695 24.8024C23.6695 25.1999 23.3473 25.5222 22.9498 25.5222C22.5522 25.5222 22.23 25.1999 22.23 24.8024C22.23 24.4049 22.5522 24.0826 22.9498 24.0826C23.3473 24.0826 23.6695 24.4049 23.6695 24.8024Z" fill="#67707B"/>
<path d="M23.6695 27.6814C23.6695 28.079 23.3473 28.4012 22.9498 28.4012C22.5522 28.4012 22.23 28.079 22.23 27.6814C22.23 27.2839 22.5522 26.9617 22.9498 26.9617C23.3473 26.9617 23.6695 27.2839 23.6695 27.6814Z" fill="#67707B"/>
<path d="M12.7529 6.4082L16.5916 1.92964L20.4304 6.4082L12.7529 6.4082Z" fill="white"/>
<path fill-rule="evenodd" clip-rule="evenodd" d="M9.97088 7.68774L16.5918 -0.0366202L23.2126 7.68774L9.97088 7.68774ZM12.753 6.40815L20.4305 6.40815L16.5918 1.92959L12.753 6.40815Z" fill="#0E141B"/>
</g>
<defs>
<clipPath id="clip0_1967_19725">
<rect width="32" height="32" fill="white"/>
</clipPath>
</defs>
</svg>
