<svg width="64" height="64" viewBox="0 0 64 64" fill="none" xmlns="http://www.w3.org/2000/svg">
<path d="M0 15.9999C0 14.7376 1.02335 13.7142 2.28571 13.7142H61.7143C62.9767 13.7142 64 14.7376 64 15.9999V41.1428C64 46.1923 59.9066 50.2857 54.8571 50.2857H9.14286C4.0934 50.2857 0 46.1923 0 41.1428V15.9999Z" fill="black"/>
<circle cx="38.8571" cy="25.1429" r="1.14286" fill="#67707B"/>
<circle cx="43.4286" cy="25.1429" r="1.14286" fill="#67707B"/>
<circle cx="48" cy="25.1429" r="1.14286" fill="#67707B"/>
<circle cx="52.5714" cy="25.1429" r="1.14286" fill="#67707B"/>
<circle cx="57.1429" cy="25.1429" r="1.14286" fill="#67707B"/>
<circle cx="38.8571" cy="29.7143" r="1.14286" fill="#67707B"/>
<circle cx="43.4286" cy="29.7143" r="1.14286" fill="#67707B"/>
<circle cx="48" cy="29.7143" r="1.14286" fill="#67707B"/>
<circle cx="52.5714" cy="29.7143" r="1.14286" fill="#67707B"/>
<circle cx="57.1429" cy="29.7143" r="1.14286" fill="#67707B"/>
<circle cx="38.8571" cy="34.2857" r="1.14286" fill="#67707B"/>
<circle cx="38.8571" cy="38.8571" r="1.14286" fill="#67707B"/>
<circle cx="38.8571" cy="43.4286" r="1.14286" fill="#67707B"/>
<circle cx="43.4286" cy="34.2857" r="1.14286" fill="#67707B"/>
<circle cx="43.4286" cy="38.8571" r="1.14286" fill="#67707B"/>
<circle cx="43.4286" cy="43.4286" r="1.14286" fill="#67707B"/>
<circle cx="48" cy="34.2857" r="1.14286" fill="#67707B"/>
<circle cx="48" cy="38.8571" r="1.14286" fill="#67707B"/>
<circle cx="48" cy="43.4286" r="1.14286" fill="#67707B"/>
<circle cx="52.5714" cy="34.2857" r="1.14286" fill="#67707B"/>
<circle cx="52.5714" cy="38.8571" r="1.14286" fill="#67707B"/>
<circle cx="52.5714" cy="43.4286" r="1.14286" fill="#67707B"/>
<circle cx="57.1429" cy="34.2857" r="1.14286" fill="#67707B"/>
<circle cx="57.1429" cy="38.8571" r="1.14286" fill="#67707B"/>
<circle cx="57.1429" cy="43.4286" r="1.14286" fill="#67707B"/>
<path d="M3.42862 22.8571C3.42862 19.7012 5.987 17.1429 9.14291 17.1429H25.1429C28.2988 17.1429 30.8572 19.7012 30.8572 22.8571V41.1429C30.8572 44.2988 28.2988 46.8571 25.1429 46.8571H9.14291C5.98699 46.8571 3.42862 44.2988 3.42862 41.1429V22.8571Z" stroke="white" stroke-width="2.28571"/>
</svg>
