<svg width="32" height="32" viewBox="0 0 32 32" fill="none" xmlns="http://www.w3.org/2000/svg">
<path d="M3.51255 19.0904C4.46076 25.9175 10.298 31 17.1906 31C24.8173 31 31 24.8173 31 17.1906V1H1L3.51255 19.0904Z" fill="#0E141B"/>
<path d="M16.1754 19.5H10.5V11.1433H12.5038V17.6376H16.1754V19.5Z" fill="white"/>
<path d="M20.3631 17.7212H24V19.5H17.8265V17.8048L20.1662 15.8469C20.5291 15.5365 20.8032 15.2898 20.9886 15.1067C21.1739 14.9237 21.3167 14.7367 21.4171 14.5456C21.5252 14.3546 21.5793 14.1437 21.5793 13.9129C21.5793 13.5548 21.4441 13.2842 21.1739 13.1011C20.9113 12.9181 20.5754 12.8265 20.1662 12.8265C19.8573 12.8265 19.5523 12.8743 19.2512 12.9698C18.95 13.0573 18.6798 13.1767 18.4404 13.3279L17.7918 11.7999C18.1624 11.5531 18.5755 11.3581 19.0311 11.2149C19.4944 11.0716 19.9886 11 20.5137 11C21.4866 11 22.2704 11.2109 22.8649 11.6327C23.4595 12.0466 23.7568 12.6594 23.7568 13.4712C23.7568 14.0283 23.6023 14.5377 23.2935 14.9993C22.9923 15.4529 22.5252 15.9424 21.892 16.4677L20.3631 17.7212Z" fill="white"/>
</svg>
