<svg width="32" height="32" viewBox="0 0 32 32" fill="none" xmlns="http://www.w3.org/2000/svg">
<g clip-path="url(#clip0_1967_16061)">
<path d="M0.0277703 10.5562C-0.235507 8.44996 1.40679 6.5896 3.5294 6.5896H28.4707C30.5933 6.5896 32.2356 8.44996 31.9723 10.5562L30.6308 21.2887C30.3364 23.6433 28.3348 25.4103 25.9619 25.4103H6.03818C3.66525 25.4103 1.66366 23.6433 1.36934 21.2887L0.0277703 10.5562Z" fill="#0E141B"/>
<path fill-rule="evenodd" clip-rule="evenodd" d="M27.9011 8.94228H4.09888C3.02513 8.94228 2.20032 9.89329 2.35217 10.9562L3.79241 21.0379C3.95798 22.1969 4.95059 23.0578 6.12135 23.0578H25.8786C27.0494 23.0578 28.042 22.1969 28.2076 21.0379L29.6478 10.9563C29.7997 9.8933 28.9749 8.94228 27.9011 8.94228ZM4.09888 7.76599C2.3093 7.76599 0.934616 9.35101 1.1877 11.1226L2.62794 21.2043C2.8763 22.9428 4.3652 24.2341 6.12135 24.2341H25.8786C27.6348 24.2341 29.1237 22.9428 29.372 21.2043L30.8123 11.1226C31.0654 9.35101 29.6907 7.76599 27.9011 7.76599H4.09888Z" fill="white"/>
</g>
<defs>
<clipPath id="clip0_1967_16061">
<rect width="32" height="32" fill="white"/>
</clipPath>
</defs>
</svg>
