<svg width="64" height="64" viewBox="0 0 64 64" fill="none" xmlns="http://www.w3.org/2000/svg">
<g clip-path="url(#clip0_1967:16258)">
<path d="M8.55518 11.6185H46.7664C51.5036 11.6185 55.1636 15.7792 54.5595 20.4777L50.139 54.8597C49.467 60.0861 45.0176 64.0001 39.7482 64.0001H8.55518V11.6185Z" fill="black"/>
<path d="M41.2836 21.3179L34.9084 14.747V29.952H29.3454V14.747L22.9701 21.3179L19.0315 17.2584L32.1269 3.76126L45.2223 17.2584L41.2836 21.3179Z" fill="white"/>
<path fill-rule="evenodd" clip-rule="evenodd" d="M41.2837 25.079L48.8715 17.2583L32.1269 2.67029e-05L15.3823 17.2583L22.9702 25.079L26.7263 21.2076V32.571H37.5275V21.2076L41.2837 25.079ZM34.9084 14.747V29.952H29.3454V14.747L22.9702 21.3178L19.0315 17.2583L32.1269 3.76121L45.2223 17.2583L41.2837 21.3178L34.9084 14.747Z" fill="black"/>
</g>
<defs>
<clipPath id="clip0_1967:16258">
<rect width="64" height="64" fill="white"/>
</clipPath>
</defs>
</svg>
