<svg width="32" height="32" viewBox="0 0 32 32" fill="none" xmlns="http://www.w3.org/2000/svg">
<g clip-path="url(#clip0_1967_16455)">
<path d="M4.92261 3.52844H24.6312C26.2341 3.52844 27.4725 4.93626 27.2681 6.52605L24.8039 25.6923C24.5765 27.4607 23.071 28.785 21.288 28.785H4.92261V3.52844Z" fill="#0E141B"/>
<path fill-rule="evenodd" clip-rule="evenodd" d="M5.55259 21.8643L7.60343 19.6862L9.64861 21.8673L12.5048 18.8166L9.80612 15.9405L12.5014 13.0616L9.64983 9.99866L7.60206 12.1893L5.55382 10.0016L-4.86374e-05 15.9429L5.55259 21.8643ZM7.98423 15.9415L10.6829 18.8176L9.64785 19.9231L5.9142 15.9415L9.64785 11.9474L10.6829 13.0591L7.98423 15.9415ZM1.82092 15.9415L5.55458 19.9231L6.58959 18.8239L3.89095 15.9415L6.58959 13.0528L5.55458 11.9474L1.82092 15.9415Z" fill="#0E141B"/>
<path fill-rule="evenodd" clip-rule="evenodd" d="M26.4474 21.8643L24.3966 19.6862L22.3514 21.8673L19.4952 18.8166L22.1939 15.9405L19.4986 13.0616L22.3502 9.99866L24.3979 12.1893L26.4462 10.0016L32 15.9429L26.4474 21.8643ZM24.0158 15.9415L21.3171 18.8176L22.3521 19.9231L26.0858 15.9415L22.3521 11.9474L21.3171 13.0591L24.0158 15.9415ZM30.1791 15.9415L26.4454 19.9231L25.4104 18.8239L28.109 15.9415L25.4104 13.0528L26.4454 11.9474L30.1791 15.9415Z" fill="#0E141B"/>
<path d="M1.82091 15.9414L5.55457 19.923L6.58958 18.8238L3.89094 15.9414L6.58958 13.0528L5.55457 11.9473L1.82091 15.9414Z" fill="white"/>
<path d="M7.98422 15.9414L10.6829 18.8175L9.64785 19.923L5.91419 15.9414L9.64785 11.9473L10.6829 13.059L7.98422 15.9414Z" fill="white"/>
<path d="M30.1791 15.9414L26.4454 19.923L25.4104 18.8238L28.1091 15.9414L25.4104 13.0528L26.4454 11.9473L30.1791 15.9414Z" fill="white"/>
<path d="M24.0158 15.9414L21.3171 18.8175L22.3522 19.923L26.0858 15.9414L22.3522 11.9473L21.3171 13.059L24.0158 15.9414Z" fill="white"/>
</g>
<defs>
<clipPath id="clip0_1967_16455">
<rect width="32" height="32" fill="white"/>
</clipPath>
</defs>
</svg>
