<svg width="64" height="64" viewBox="0 0 64 64" fill="none" xmlns="http://www.w3.org/2000/svg">
<path fill-rule="evenodd" clip-rule="evenodd" d="M64 8.88889L0 0L5.36011 38.5928C6.40399 46.1087 10.2253 52.6335 15.7003 57.1886L64 8.88889Z" fill="black"/>
<path fill-rule="evenodd" clip-rule="evenodd" d="M15.7004 57.1886L64.0001 8.88892V34.54C64.0001 50.8103 50.8105 64 34.5402 64C27.4239 64 20.835 61.4605 15.7004 57.1886Z" fill="#67707B"/>
<path d="M32.1916 41H20V23.3034H24.3044V37.0562H32.1916V41Z" fill="white"/>
<path d="M41.1874 37.2331H49V41H35.7385V37.4101L40.7644 33.264C41.544 32.6067 42.1329 32.0843 42.531 31.6966C42.9291 31.309 43.2359 30.9129 43.4516 30.5084C43.6838 30.1039 43.7999 29.6573 43.7999 29.1685C43.7999 28.4101 43.5096 27.8371 42.9291 27.4494C42.3651 27.0618 41.6436 26.868 40.7644 26.868C40.1009 26.868 39.4457 26.9691 38.7988 27.1713C38.1519 27.3567 37.5714 27.6096 37.0572 27.9298L35.6638 24.6938C36.46 24.1713 37.3475 23.7584 38.3261 23.4551C39.3213 23.1517 40.3829 23 41.5109 23C43.6008 23 45.2845 23.4466 46.5617 24.3399C47.8389 25.2163 48.4775 26.514 48.4775 28.2331C48.4775 29.4129 48.1458 30.4916 47.4823 31.4691C46.8354 32.4298 45.8318 33.4663 44.4717 34.5787L41.1874 37.2331Z" fill="white"/>
</svg>
