<svg width="64" height="64" viewBox="0 0 64 64" fill="none" xmlns="http://www.w3.org/2000/svg">
<path d="M63.9999 5.8092H25.7886C21.0514 5.8092 17.3914 9.96989 17.9955 14.6684L22.4161 49.0504C23.088 54.2768 27.5374 58.1907 32.8069 58.1907H63.9999V5.8092Z" fill="black"/>
<path d="M21.3179 22.8432L14.747 29.2184H29.952V34.7815H14.747L21.3179 41.1567L17.2584 45.0953L3.76126 32L17.2584 18.9046L21.3179 22.8432Z" fill="white"/>
<path fill-rule="evenodd" clip-rule="evenodd" d="M25.079 22.8431L17.2583 15.2553L2.67029e-05 31.9999L17.2583 48.7445L25.079 41.1567L21.2076 37.4005H32.571V26.5993H21.2076L25.079 22.8431ZM14.747 29.2184H29.952V34.7814H14.747L21.3178 41.1567L17.2583 45.0953L3.76121 31.9999L17.2583 18.9045L21.3178 22.8431L14.747 29.2184Z" fill="black"/>
</svg>
