<svg width="32" height="32" viewBox="0 0 32 32" fill="none" xmlns="http://www.w3.org/2000/svg">
<path d="M0.0277701 10.5563C-0.235506 8.45007 1.40677 6.58972 3.52937 6.58972H28.4705C30.5931 6.58972 32.2353 8.45007 31.9721 10.5563L30.6305 21.2887C30.3362 23.6433 28.3346 25.4103 25.9617 25.4103H6.03813C3.66522 25.4103 1.66365 23.6433 1.36933 21.2887L0.0277701 10.5563Z" fill="#0E141B"/>
<path d="M24.3759 17.7645H23.2467L22.4645 16.4588H22.3762H21.8881V17.7645H20.8706V13.6475H22.4704C23.0585 13.6475 23.4937 13.7631 23.776 13.9945C24.0583 14.2258 24.1995 14.5512 24.1995 14.9708C24.1995 15.2884 24.1309 15.555 23.9936 15.7707C23.8603 15.9824 23.6721 16.1431 23.429 16.2529L24.3759 17.7645ZM21.8881 14.5179V15.5883H22.4409C22.6488 15.5883 22.8115 15.5413 22.9291 15.4472C23.0507 15.3492 23.1114 15.208 23.1114 15.0237C23.1114 14.8551 23.0565 14.7296 22.9467 14.6473C22.837 14.561 22.6625 14.5179 22.4233 14.5179H21.8881Z" fill="white"/>
<path fill-rule="evenodd" clip-rule="evenodd" d="M22.4695 11.8829C20.1958 11.8829 18.3526 13.7262 18.3526 15.9999C18.3526 18.2737 20.1958 20.1169 22.4695 20.1169C24.7433 20.1169 26.5865 18.2737 26.5865 15.9999C26.5865 13.7262 24.7433 11.8829 22.4695 11.8829ZM17.1763 15.9999C17.1763 13.0765 19.5461 10.7067 22.4695 10.7067C25.3929 10.7067 27.7628 13.0765 27.7628 15.9999C27.7628 18.9233 25.3929 21.2932 22.4695 21.2932C19.5461 21.2932 17.1763 18.9233 17.1763 15.9999Z" fill="white"/>
<path fill-rule="evenodd" clip-rule="evenodd" d="M22.4696 9.82447C19.0589 9.82447 16.2941 12.5893 16.2941 16C16.2941 19.4106 19.0589 22.1754 22.4696 22.1754C25.8802 22.1754 28.6451 19.4106 28.6451 16C28.6451 12.5893 25.8802 9.82447 22.4696 9.82447ZM15.7059 16C15.7059 12.2645 18.7341 9.23633 22.4696 9.23633C26.205 9.23633 29.2332 12.2645 29.2332 16C29.2332 19.7354 26.205 22.7636 22.4696 22.7636C18.7341 22.7636 15.7059 19.7354 15.7059 16Z" fill="white"/>
</svg>
