<svg width="64" height="64" viewBox="0 0 64 64" fill="none" xmlns="http://www.w3.org/2000/svg">
<path d="M7.0251 38.1807C8.92152 51.835 20.5959 62 34.3813 62C49.6347 62 62 49.6347 62 34.3813V2H2L7.0251 38.1807Z" fill="black"/>
<path d="M32.3508 39H21V22.2865H25.0075V35.2753H32.3508V39Z" fill="white"/>
<path d="M40.7262 35.4424H48V39H35.6531V35.6096L40.3324 31.6938C41.0582 31.073 41.6065 30.5796 41.9771 30.2135C42.3477 29.8474 42.6335 29.4733 42.8342 29.0913C43.0504 28.7093 43.1585 28.2875 43.1585 27.8258C43.1585 27.1096 42.8883 26.5684 42.3477 26.2022C41.8227 25.8361 41.1509 25.6531 40.3324 25.6531C39.7147 25.6531 39.1047 25.7486 38.5024 25.9396C37.9001 26.1147 37.3596 26.3535 36.8808 26.6559L35.5836 23.5997C36.3249 23.1063 37.1511 22.7163 38.0622 22.4298C38.9888 22.1433 39.9772 22 41.0273 22C42.9732 22 44.5407 22.4218 45.7298 23.2654C46.919 24.0932 47.5135 25.3188 47.5135 26.9424C47.5135 28.0566 47.2047 29.0754 46.5869 29.9986C45.9846 30.9059 45.0503 31.8848 43.784 32.9354L40.7262 35.4424Z" fill="white"/>
</svg>
