<svg width="64" height="64" viewBox="0 0 64 64" fill="none" xmlns="http://www.w3.org/2000/svg">
<path d="M56.9749 38.1807C55.0785 51.835 43.404 62 29.6187 62C14.3653 62 2 49.6347 2 34.3813V2H62L56.9749 38.1807Z" fill="black"/>
<path d="M28.6404 39H24.2462L21.2023 33.6994H20.859H18.9594V39H15V22.2865H21.2252C23.5138 22.2865 25.2074 22.7561 26.306 23.6952C27.4045 24.6344 27.9538 25.9555 27.9538 27.6587C27.9538 28.948 27.6868 30.0304 27.1528 30.9059C26.634 31.7654 25.9017 32.4181 24.9557 32.8638L28.6404 39ZM18.9594 25.8202V30.1657H21.1107C21.9194 30.1657 22.5526 29.9747 23.0103 29.5927C23.4833 29.1948 23.7198 28.6217 23.7198 27.8736C23.7198 27.1891 23.5062 26.6798 23.079 26.3455C22.6518 25.9953 21.9728 25.8202 21.0421 25.8202H18.9594Z" fill="white"/>
<path d="M36.8136 35.4424H44V39H31.8014V35.6096L36.4245 31.6938C37.1416 31.073 37.6833 30.5796 38.0495 30.2135C38.4157 29.8474 38.6979 29.4733 38.8963 29.0913C39.1099 28.7093 39.2167 28.2875 39.2167 27.8258C39.2167 27.1096 38.9497 26.5684 38.4157 26.2022C37.8969 25.8361 37.2332 25.6531 36.4245 25.6531C35.8142 25.6531 35.2115 25.7486 34.6165 25.9396C34.0214 26.1147 33.4874 26.3535 33.0144 26.6559L31.7328 23.5997C32.4651 23.1063 33.2814 22.7163 34.1816 22.4298C35.0971 22.1433 36.0736 22 37.1111 22C39.0336 22 40.5823 22.4218 41.7571 23.2654C42.932 24.0932 43.5194 25.3188 43.5194 26.9424C43.5194 28.0566 43.2142 29.0754 42.6039 29.9986C42.0089 30.9059 41.0858 31.8848 39.8346 32.9354L36.8136 35.4424Z" fill="white"/>
</svg>
