<svg width="32" height="32" viewBox="0 0 32 32" fill="none" xmlns="http://www.w3.org/2000/svg">
<g clip-path="url(#clip0_1967_16077)">
<path d="M0.0277703 10.5562C-0.235507 8.44996 1.40679 6.5896 3.5294 6.5896H28.4707C30.5933 6.5896 32.2356 8.44996 31.9723 10.5562L30.6308 21.2887C30.3364 23.6433 28.3348 25.4103 25.9619 25.4103H6.03818C3.66525 25.4103 1.66366 23.6433 1.36934 21.2887L0.0277703 10.5562Z" fill="#0E141B"/>
<path fill-rule="evenodd" clip-rule="evenodd" d="M9.53038 11.883C7.25661 11.883 5.41335 13.7262 5.41335 16C5.41335 18.2738 7.25661 20.117 9.53038 20.117C11.8041 20.117 13.6474 18.2738 13.6474 16C13.6474 13.7262 11.8041 11.883 9.53038 11.883ZM4.23706 16C4.23706 13.0766 6.60696 10.7067 9.53038 10.7067C12.4538 10.7067 14.8237 13.0766 14.8237 16C14.8237 18.9234 12.4538 21.2933 9.53038 21.2933C6.60696 21.2933 4.23706 18.9234 4.23706 16Z" fill="white"/>
<path fill-rule="evenodd" clip-rule="evenodd" d="M9.53041 9.82447C6.11975 9.82447 3.35487 12.5894 3.35487 16C3.35487 19.4107 6.11975 22.1755 9.53041 22.1755C12.9411 22.1755 15.7059 19.4107 15.7059 16C15.7059 12.5894 12.9411 9.82447 9.53041 9.82447ZM2.76672 16C2.76672 12.2645 5.79493 9.23633 9.53041 9.23633C13.2659 9.23633 16.2941 12.2645 16.2941 16C16.2941 19.7355 13.2659 22.7637 9.53041 22.7637C5.79493 22.7637 2.76672 19.7355 2.76672 16Z" fill="white"/>
<path d="M11.1121 17.7645H8.23022V13.6475H9.24772V16.847H11.1121V17.7645Z" fill="white"/>
</g>
<defs>
<clipPath id="clip0_1967_16077">
<rect width="32" height="32" fill="white"/>
</clipPath>
</defs>
</svg>
