<svg width="64" height="64" viewBox="0 0 64 64" fill="none" xmlns="http://www.w3.org/2000/svg">
<path d="M4.84312 22.7442C4.39548 19.1631 7.18779 16 10.7968 16H53.2034C56.8124 16 59.6047 19.1631 59.1571 22.7442L56.8761 40.9923C56.3756 44.9957 52.9724 48 48.9378 48H15.0623C11.0278 48 7.62455 44.9957 7.12412 40.9923L4.84312 22.7442Z" fill="black"/>
<path d="M47.5933 25.0076L52.611 29.876H41V34.124H52.611L47.5933 38.9924L50.6932 42L61 32L50.6932 22L47.5933 25.0076Z" fill="white"/>
<path fill-rule="evenodd" clip-rule="evenodd" d="M44.7211 25.0076L50.6932 19.2133L63.8721 32L50.6932 44.7866L44.7211 38.9923L47.6775 36.124H39V27.8759H47.6775L44.7211 25.0076ZM52.611 29.8759H41V34.124H52.611L47.5933 38.9923L50.6932 42L61 32L50.6932 22L47.5933 25.0076L52.611 29.8759Z" fill="black"/>
<path d="M16.4067 25.0076L11.389 29.876H23V34.124H11.389L16.4067 38.9924L13.3068 42L3 32L13.3068 22L16.4067 25.0076Z" fill="white"/>
<path fill-rule="evenodd" clip-rule="evenodd" d="M19.2789 25.0076L13.3068 19.2133L0.127859 32L13.3068 44.7866L19.2789 38.9923L16.3225 36.124H25V27.8759H16.3225L19.2789 25.0076ZM11.389 29.8759H23V34.124H11.389L16.4067 38.9923L13.3068 42L3 32L13.3068 22L16.4067 25.0076L11.389 29.8759Z" fill="black"/>
</svg>
