<svg width="32" height="32" viewBox="0 0 32 32" fill="none" xmlns="http://www.w3.org/2000/svg">
<g clip-path="url(#clip0_1967_20385)">
<path fill-rule="evenodd" clip-rule="evenodd" d="M0 4.44444L32 0L29.3199 19.2964C28.798 23.0544 26.8873 26.3167 24.1499 28.5943L0 4.44444Z" fill="#0E141B"/>
<path fill-rule="evenodd" clip-rule="evenodd" d="M24.1499 28.5943L4.76837e-05 4.44446V17.27C4.76837e-05 25.4052 6.59489 32 14.73 32C18.2882 32 21.5826 30.7303 24.1499 28.5943Z" fill="#67707B"/>
<path d="M14.2906 20.5H11.9419L10.315 17.6938H10.1315H9.11622V20.5H7V11.6517H10.3272C11.5505 11.6517 12.4557 11.9003 13.0429 12.3975C13.63 12.8947 13.9236 13.5941 13.9236 14.4958C13.9236 15.1784 13.7809 15.7514 13.4955 16.2149C13.2182 16.6699 12.8267 17.0154 12.3211 17.2514L14.2906 20.5ZM9.11622 13.5225V15.823H10.2661C10.6983 15.823 11.0367 15.7219 11.2814 15.5197C11.5342 15.309 11.6606 15.0056 11.6606 14.6096C11.6606 14.2472 11.5464 13.9775 11.3181 13.8006C11.0897 13.6152 10.7268 13.5225 10.2294 13.5225H9.11622Z" fill="white"/>
<path d="M18.659 18.6166H22.5V20.5H15.9801V18.7051L18.451 16.632C18.8343 16.3034 19.1238 16.0421 19.3195 15.8483C19.5153 15.6545 19.6661 15.4565 19.7722 15.2542C19.8863 15.052 19.9434 14.8287 19.9434 14.5843C19.9434 14.2051 19.8007 13.9185 19.5153 13.7247C19.238 13.5309 18.8833 13.434 18.451 13.434C18.1248 13.434 17.8027 13.4846 17.4847 13.5857C17.1666 13.6784 16.8812 13.8048 16.6284 13.9649L15.9434 12.3469C16.3348 12.0857 16.7711 11.8792 17.2523 11.7275C17.7416 11.5758 18.2635 11.5 18.818 11.5C19.8455 11.5 20.6733 11.7233 21.3012 12.1699C21.9291 12.6081 22.2431 13.257 22.2431 14.1166C22.2431 14.7065 22.08 15.2458 21.7538 15.7346C21.4358 16.2149 20.9424 16.7331 20.2737 17.2893L18.659 18.6166Z" fill="white"/>
</g>
<defs>
<clipPath id="clip0_1967_20385">
<rect width="32" height="32" fill="white"/>
</clipPath>
</defs>
</svg>
