<svg width="64" height="64" viewBox="0 0 64 64" fill="none" xmlns="http://www.w3.org/2000/svg">
<path d="M0.0557844 21.1125C-0.470767 16.9001 2.81379 13.1794 7.05898 13.1794H56.9412C61.1864 13.1794 64.4709 16.9001 63.9444 21.1125L61.2613 42.5774C60.6726 47.2866 56.6695 50.8205 51.9237 50.8205H12.0765C7.33069 50.8205 3.32754 47.2866 2.7389 42.5774L0.0557844 21.1125Z" fill="black"/>
<path d="M48.7521 35.5289H46.4936L44.9292 32.9176H44.7527H43.7764V35.5289H41.7415V27.2949H44.9409C46.1172 27.2949 46.9877 27.5263 47.5523 27.9889C48.1169 28.4516 48.3992 29.1025 48.3992 29.9416C48.3992 30.5768 48.262 31.11 47.9875 31.5413C47.7209 31.9648 47.3445 32.2863 46.8583 32.5059L48.7521 35.5289ZM43.7764 29.0358V31.1767H44.8821C45.2978 31.1767 45.6232 31.0826 45.8584 30.8943C46.1015 30.6983 46.2231 30.416 46.2231 30.0474C46.2231 29.7102 46.1133 29.4593 45.8937 29.2946C45.6742 29.1221 45.3252 29.0358 44.8468 29.0358H43.7764Z" fill="white"/>
<path fill-rule="evenodd" clip-rule="evenodd" d="M44.9391 23.766C40.3916 23.766 36.7051 27.4525 36.7051 32C36.7051 36.5475 40.3916 40.234 44.9391 40.234C49.4866 40.234 53.1731 36.5475 53.1731 32C53.1731 27.4525 49.4866 23.766 44.9391 23.766ZM34.3525 32C34.3525 26.1532 39.0923 21.4135 44.9391 21.4135C50.7859 21.4135 55.5256 26.1532 55.5256 32C55.5256 37.8468 50.7859 42.5866 44.9391 42.5866C39.0923 42.5866 34.3525 37.8468 34.3525 32Z" fill="white"/>
<path fill-rule="evenodd" clip-rule="evenodd" d="M44.9391 19.6491C38.1179 19.6491 32.5881 25.1788 32.5881 32C32.5881 38.8213 38.1179 44.351 44.9391 44.351C51.7604 44.351 57.2901 38.8213 57.2901 32C57.2901 25.1788 51.7604 19.6491 44.9391 19.6491ZM31.4119 32C31.4119 24.5291 37.4682 18.4728 44.9391 18.4728C52.41 18.4728 58.4664 24.5291 58.4664 32C58.4664 39.4709 52.41 45.5273 44.9391 45.5273C37.4682 45.5273 31.4119 39.4709 31.4119 32Z" fill="white"/>
</svg>
