<svg width="32" height="32" viewBox="0 0 32 32" fill="none" xmlns="http://www.w3.org/2000/svg">
<g clip-path="url(#clip0_7533_1452)">
<path d="M31.9722 10.5562C32.2355 8.44996 30.5932 6.5896 28.4706 6.5896H3.5293C1.40669 6.5896 -0.2356 8.44996 0.0276775 10.5562L1.36924 21.2887C1.66357 23.6433 3.66515 25.4103 6.03808 25.4103H25.9618C28.3348 25.4103 30.3363 23.6433 30.6307 21.2887L31.9722 10.5562Z" fill="#0E141B"/>
<path fill-rule="evenodd" clip-rule="evenodd" d="M12.4712 8.94228H4.099C3.02525 8.94228 2.20044 9.89329 2.35229 10.9562L3.79253 21.0379C3.9581 22.1969 4.95071 23.0578 6.12147 23.0578H12.4712C13.7705 23.0578 14.8238 22.0045 14.8238 20.7052V11.2949C14.8238 9.99557 13.7705 8.94228 12.4712 8.94228ZM4.099 7.76599C2.30942 7.76599 0.934738 9.35101 1.18782 11.1226L2.62806 21.2043C2.87642 22.9428 4.36533 24.2341 6.12147 24.2341H12.4712C14.4202 24.2341 16.0001 22.6542 16.0001 20.7052V11.2949C16.0001 9.34592 14.4202 7.76599 12.4712 7.76599H4.099Z" fill="white"/>
</g>
<defs>
<clipPath id="clip0_7533_1452">
<rect width="32" height="32" fill="white"/>
</clipPath>
</defs>
</svg>
