<svg width="64" height="64" viewBox="0 0 64 64" fill="none" xmlns="http://www.w3.org/2000/svg">
<g clip-path="url(#clip0_1967:16061)">
<path d="M0.0554186 21.1125C-0.471137 16.9 2.81345 13.1793 7.05868 13.1793H56.9413C61.1865 13.1793 64.4711 16.9 63.9445 21.1125L61.2614 42.5776C60.6727 47.2868 56.6696 50.8207 51.9237 50.8207H12.0762C7.33037 50.8207 3.3272 47.2868 2.73855 42.5776L0.0554186 21.1125Z" fill="black"/>
<path fill-rule="evenodd" clip-rule="evenodd" d="M55.8023 17.8844H8.19788C6.05038 17.8844 4.40076 19.7865 4.70446 21.9124L7.58494 42.0757C7.91608 44.3937 9.9013 46.1155 12.2428 46.1155H51.7574C54.0989 46.1155 56.0841 44.3937 56.4153 42.0757L59.2957 21.9124C59.5994 19.7865 57.9498 17.8844 55.8023 17.8844ZM8.19788 15.5319C4.61872 15.5319 1.86935 18.7019 2.37552 22.2451L5.256 42.4084C5.75271 45.8854 8.73053 48.4681 12.2428 48.4681H51.7574C55.2697 48.4681 58.2475 45.8854 58.7442 42.4084L61.6247 22.2451C62.1309 18.7019 59.3815 15.5319 55.8023 15.5319H8.19788Z" fill="white"/>
</g>
<defs>
<clipPath id="clip0_1967:16061">
<rect width="64" height="64" fill="white"/>
</clipPath>
</defs>
</svg>
