<svg width="32" height="32" viewBox="0 0 32 32" fill="none" xmlns="http://www.w3.org/2000/svg">
<g clip-path="url(#clip0_7533_1455)">
<path fill-rule="evenodd" clip-rule="evenodd" d="M29.4967 6.6197L23.5002 14L17.4794 6.58972H2.93043C1.12593 6.58972 -0.270226 8.17127 -0.0464058 9.96183L1.44668 21.9065C1.6969 23.9082 3.3985 25.4104 5.41579 25.4104H26.5845C28.6018 25.4104 30.3034 23.9082 30.5536 21.9065L32.0467 9.96183C32.2525 8.31529 31.0885 6.84549 29.4967 6.6197Z" fill="#0E141B"/>
<path fill-rule="evenodd" clip-rule="evenodd" d="M28.5617 7.77051C30.0079 7.85679 31.0922 9.1641 30.8843 10.6195L29.3073 21.6583C29.0962 23.1363 27.8305 24.234 26.3375 24.234H19.0002C17.3433 24.234 16.0002 22.8909 16.0002 21.234V10.766C16.0002 9.28911 17.0674 8.06149 18.4727 7.81221L19.2476 8.76598H19.0002C17.8956 8.76598 17.0002 9.66141 17.0002 10.766V21.234C17.0002 22.3386 17.8956 23.234 19.0002 23.234H26.3375C27.3328 23.234 28.1766 22.5022 28.3174 21.5169L29.8944 10.4781C30.0235 9.57446 29.3223 8.76598 28.4094 8.76598H27.7529L28.5617 7.77051Z" fill="white"/>
<rect width="1" height="2" transform="matrix(-1 0 0 1 24.0002 15)" fill="white"/>
<rect width="1" height="2" transform="matrix(-0.707107 -0.707107 -0.707107 0.707107 22.1213 14.7072)" fill="white"/>
<rect width="1" height="2" transform="matrix(-0.707107 0.707107 0.707107 0.707107 25.5859 14)" fill="white"/>
<mask id="path-6-inside-1_7533_1455" fill="white">
<path fill-rule="evenodd" clip-rule="evenodd" d="M21.0002 1H26.0002V5H30.0002L23.5002 13L17.0002 5H21.0002V1Z"/>
</mask>
<path fill-rule="evenodd" clip-rule="evenodd" d="M21.0002 1H26.0002V5H30.0002L23.5002 13L17.0002 5H21.0002V1Z" fill="white"/>
<path d="M26.0002 1V0H27.0002V1H26.0002ZM21.0002 1H20.0002V0H21.0002V1ZM26.0002 5V6H25.0002V5H26.0002ZM30.0002 5V4H32.1012L30.7764 5.63059L30.0002 5ZM23.5002 13L24.2763 13.6306L23.5002 14.5858L22.7241 13.6306L23.5002 13ZM17.0002 5L16.2241 5.63059L14.8993 4H17.0002V5ZM21.0002 5H22.0002V6H21.0002V5ZM26.0002 2H21.0002V0H26.0002V2ZM25.0002 5V1H27.0002V5H25.0002ZM26.0002 4H30.0002V6H26.0002V4ZM30.7764 5.63059L24.2763 13.6306L22.7241 12.3694L29.2241 4.36941L30.7764 5.63059ZM22.7241 13.6306L16.2241 5.63059L17.7764 4.36941L24.2763 12.3694L22.7241 13.6306ZM17.0002 4H21.0002V6H17.0002V4ZM22.0002 1V5H20.0002V1H22.0002Z" fill="#0E141B" mask="url(#path-6-inside-1_7533_1455)"/>
</g>
<defs>
<clipPath id="clip0_7533_1455">
<rect width="32" height="32" fill="white"/>
</clipPath>
</defs>
</svg>
