<svg width="64" height="64" viewBox="0 0 64 64" fill="none" xmlns="http://www.w3.org/2000/svg">
<path d="M0 6.38562H37.3703C42.0032 6.38562 45.5827 10.4547 44.9919 15.0498L40.6686 48.6751C40.0114 53.7865 35.66 57.6143 30.5065 57.6143H0V6.38562Z" fill="black"/>
<path d="M43.0235 23.0447L49.4497 29.2797H34.5793V34.7203H49.4497L43.0235 40.9552L46.9936 44.8071L60.1937 32L46.9936 19.1928L43.0235 23.0447Z" fill="white"/>
<path fill-rule="evenodd" clip-rule="evenodd" d="M39.3451 23.0448L46.9936 15.6239L63.8721 32L46.9936 48.3761L39.3451 40.9552L43.1313 37.2817H32.0179V26.7183H43.1313L39.3451 23.0448ZM49.4497 29.2797H34.5794V34.7203H49.4497L43.0235 40.9552L46.9936 44.8072L60.1937 32L46.9936 19.1928L43.0235 23.0448L49.4497 29.2797Z" fill="black"/>
</svg>
