<svg width="64" height="64" viewBox="0 0 64 64" fill="none" xmlns="http://www.w3.org/2000/svg">
<path d="M0 5.86157H38.1349C42.8627 5.86157 46.5154 10.0139 45.9125 14.7031L41.5008 49.0164C40.8301 54.2324 36.3896 58.1385 31.1307 58.1385H0V5.86157Z" fill="black"/>
<path d="M42.5969 22.8615L49.1546 29.224H33.98V34.7759H49.1546L42.5969 41.1385L46.6483 45.0692L60.1184 32L46.6483 18.9308L42.5969 22.8615Z" fill="white"/>
<path fill-rule="evenodd" clip-rule="evenodd" d="M38.8433 22.8615L46.6483 15.2888L63.8722 32L46.6483 48.7112L38.8433 41.1385L42.707 37.3898H31.3662V26.6102H42.707L38.8433 22.8615ZM49.1547 29.2241H33.9801V34.776H49.1547L42.597 41.1385L46.6483 45.0692L60.1185 32L46.6483 18.9308L42.597 22.8615L49.1547 29.2241Z" fill="black"/>
</svg>
