<svg width="64" height="64" viewBox="0 0 64 64" fill="none" xmlns="http://www.w3.org/2000/svg">
<path d="M0.0510498 21.9928C-0.43293 18.1209 2.58607 14.701 6.48804 14.701H52.3373C56.2393 14.701 59.2583 18.1209 58.7743 21.9928L56.3081 41.7222C55.767 46.0507 52.0876 49.2989 47.7254 49.2989H11.0999C6.73777 49.2989 3.05829 46.0507 2.51723 41.7222L0.0510498 21.9928Z" fill="black"/>
<path d="M46.2717 24.44L51.6967 29.7035H39.1432V34.2964H51.6967L46.2717 39.56L49.6233 42.8118L60.7668 32L49.6233 21.1881L46.2717 24.44Z" fill="white"/>
<path fill-rule="evenodd" clip-rule="evenodd" d="M43.1664 24.44L49.6233 18.1753L63.8721 32L49.6233 45.8247L43.1664 39.56L46.3627 36.4589H36.9808V27.5412H46.3627L43.1664 24.44ZM51.6967 29.7035H39.1432V34.2965H51.6967L46.2717 39.56L49.6233 42.8118L60.7668 32L49.6233 21.1882L46.2717 24.44L51.6967 29.7035Z" fill="black"/>
</svg>
