<svg width="64" height="64" viewBox="0 0 64 64" fill="none" xmlns="http://www.w3.org/2000/svg">
<g clip-path="url(#clip0_1967:16077)">
<path d="M0.0554186 21.1125C-0.471137 16.9 2.81345 13.1793 7.05868 13.1793H56.9413C61.1865 13.1793 64.4711 16.9 63.9445 21.1125L61.2614 42.5776C60.6727 47.2868 56.6696 50.8207 51.9237 50.8207H12.0762C7.33037 50.8207 3.3272 47.2868 2.73855 42.5776L0.0554186 21.1125Z" fill="black"/>
<path fill-rule="evenodd" clip-rule="evenodd" d="M19.0608 23.7659C14.5132 23.7659 10.8267 27.4524 10.8267 32C10.8267 36.5475 14.5132 40.234 19.0608 40.234C23.6083 40.234 27.2948 36.5475 27.2948 32C27.2948 27.4524 23.6083 23.7659 19.0608 23.7659ZM8.47412 32C8.47412 26.1531 13.2139 21.4133 19.0608 21.4133C24.9076 21.4133 29.6474 26.1531 29.6474 32C29.6474 37.8468 24.9076 42.5866 19.0608 42.5866C13.2139 42.5866 8.47412 37.8468 8.47412 32Z" fill="white"/>
<path fill-rule="evenodd" clip-rule="evenodd" d="M19.0608 19.6489C12.2395 19.6489 6.70974 25.1787 6.70974 32C6.70974 38.8213 12.2395 44.3511 19.0608 44.3511C25.8821 44.3511 31.4119 38.8213 31.4119 32C31.4119 25.1787 25.8821 19.6489 19.0608 19.6489ZM5.53345 32C5.53345 24.5291 11.5899 18.4727 19.0608 18.4727C26.5318 18.4727 32.5882 24.5291 32.5882 32C32.5882 39.471 26.5318 45.5274 19.0608 45.5274C11.5899 45.5274 5.53345 39.471 5.53345 32Z" fill="white"/>
<path d="M22.2243 35.5289H16.4604V27.2948H18.4954V33.6938H22.2243V35.5289Z" fill="white"/>
</g>
<defs>
<clipPath id="clip0_1967:16077">
<rect width="64" height="64" fill="white"/>
</clipPath>
</defs>
</svg>
