<svg width="32" height="32" viewBox="0 0 32 32" fill="none" xmlns="http://www.w3.org/2000/svg">
<path d="M31.9722 10.5044C32.2355 8.37808 30.5932 6.5 28.4706 6.5H3.52939C1.40678 6.5 -0.235504 8.37808 0.027771 10.5044L1.36934 21.3392C1.66366 23.7162 3.66524 25.5 6.03816 25.5H25.9618C28.3348 25.5 30.3363 23.7162 30.6307 21.3392L31.9722 10.5044Z" fill="#0E141B"/>
<path d="M1.82091 15.9941L5.55457 19.9758L6.58958 18.8765L3.89094 15.9941L6.58958 13.1055L5.55457 12L1.82091 15.9941Z" fill="white"/>
<path d="M7.98422 15.9941L10.6829 18.8703L9.64785 19.9758L5.91419 15.9941L9.64785 12L10.6829 13.1117L7.98422 15.9941Z" fill="white"/>
<path d="M30.1792 15.9941L26.4456 19.9758L25.4105 18.8765L28.1092 15.9941L25.4105 13.1055L26.4456 12L30.1792 15.9941Z" fill="white"/>
<path d="M24.0159 15.9941L21.3173 18.8703L22.3523 19.9758L26.0859 15.9941L22.3523 12L21.3173 13.1117L24.0159 15.9941Z" fill="white"/>
</svg>
