<svg width="64" height="64" viewBox="0 0 64 64" fill="none" xmlns="http://www.w3.org/2000/svg">
<g clip-path="url(#clip0_1967:16012)">
<path d="M0.0554186 21.1125C-0.471137 16.9 2.81345 13.1793 7.05868 13.1793H56.9413C61.1865 13.1793 64.4711 16.9 63.9445 21.1125L61.2614 42.5776C60.6727 47.2868 56.6696 50.8207 51.9237 50.8207H12.0762C7.33037 50.8207 3.3272 47.2868 2.73855 42.5776L0.0554186 21.1125Z" fill="black"/>
<path fill-rule="evenodd" clip-rule="evenodd" d="M32 23.7659C27.4524 23.7659 23.7659 27.4524 23.7659 32C23.7659 36.5475 27.4524 40.234 32 40.234C36.5475 40.234 40.234 36.5475 40.234 32C40.234 27.4524 36.5475 23.7659 32 23.7659ZM21.4133 32C21.4133 26.1531 26.1531 21.4133 32 21.4133C37.8468 21.4133 42.5866 26.1531 42.5866 32C42.5866 37.8468 37.8468 42.5866 32 42.5866C26.1531 42.5866 21.4133 37.8468 21.4133 32Z" fill="white"/>
<path fill-rule="evenodd" clip-rule="evenodd" d="M32 19.6489C25.1787 19.6489 19.6489 25.1787 19.6489 32C19.6489 38.8213 25.1787 44.3511 32 44.3511C38.8213 44.3511 44.3511 38.8213 44.3511 32C44.3511 25.1787 38.8213 19.6489 32 19.6489ZM18.4727 32C18.4727 24.5291 24.5291 18.4727 32 18.4727C39.471 18.4727 45.5274 24.5291 45.5274 32C45.5274 39.471 39.471 45.5274 32 45.5274C24.5291 45.5274 18.4727 39.471 18.4727 32Z" fill="white"/>
</g>
<defs>
<clipPath id="clip0_1967:16012">
<rect width="64" height="64" fill="white"/>
</clipPath>
</defs>
</svg>
