<svg width="32" height="32" viewBox="0 0 32 32" fill="none" xmlns="http://www.w3.org/2000/svg">
<path d="M32 12.15C32 7.73174 28.4183 4.15002 24 4.15002H5C2.23857 4.15002 0 6.3886 0 9.15002V27.35H32V12.15Z" fill="#0E141B"/>
<path d="M16.2721 20H14.0905L12.5793 17.6214H12.4088H11.4657V20H9.5V12.5H12.5906C13.7269 12.5 14.5677 12.7107 15.1131 13.1321C15.6585 13.5536 15.9312 14.1464 15.9312 14.9107C15.9312 15.4893 15.7986 15.975 15.5335 16.3679C15.276 16.7536 14.9124 17.0464 14.4427 17.2464L16.2721 20ZM11.4657 14.0857V16.0357H12.5338C12.9353 16.0357 13.2496 15.95 13.4769 15.7786C13.7117 15.6 13.8291 15.3429 13.8291 15.0071C13.8291 14.7 13.7231 14.4714 13.511 14.3214C13.2989 14.1643 12.9618 14.0857 12.4997 14.0857H11.4657Z" fill="white"/>
<path d="M22.0115 12.5V18.4143H23.5V20H18.171V18.4143H20.0117V14.5464L18.4323 15.1357L17.8074 13.7536L20.4889 12.5H22.0115Z" fill="white"/>
</svg>
