<svg width="32" height="32" viewBox="0 0 32 32" fill="none" xmlns="http://www.w3.org/2000/svg">
<g clip-path="url(#clip0_1967_16199)">
<path d="M0.0277703 10.5562C-0.235507 8.44996 1.40679 6.5896 3.5294 6.5896H28.4707C30.5933 6.5896 32.2356 8.44996 31.9723 10.5562L30.6308 21.2887C30.3364 23.6433 28.3348 25.4103 25.9619 25.4103H6.03818C3.66525 25.4103 1.66366 23.6433 1.36934 21.2887L0.0277703 10.5562Z" fill="#0E141B"/>
<path fill-rule="evenodd" clip-rule="evenodd" d="M19.5289 8.94228H27.9011C28.9749 8.94228 29.7997 9.89329 29.6478 10.9562L28.2076 21.0379C28.042 22.1969 27.0494 23.0578 25.8786 23.0578H19.5289C18.2296 23.0578 17.1763 22.0045 17.1763 20.7052V11.2949C17.1763 9.99557 18.2296 8.94228 19.5289 8.94228ZM27.9011 7.76599C29.6907 7.76599 31.0654 9.35101 30.8123 11.1226L29.3721 21.2043C29.1237 22.9428 27.6348 24.2341 25.8786 24.2341H19.5289C17.5799 24.2341 16 22.6542 16 20.7052V11.2949C16 9.34592 17.5799 7.76599 19.5289 7.76599H27.9011Z" fill="white"/>
</g>
<defs>
<clipPath id="clip0_1967_16199">
<rect width="32" height="32" fill="white"/>
</clipPath>
</defs>
</svg>
