<svg width="32" height="32" viewBox="0 0 32 32" fill="none" xmlns="http://www.w3.org/2000/svg">
<path d="M28.4874 19.0904C27.5392 25.9175 21.702 31 14.8094 31C7.18267 31 1 24.8173 1 17.1906V1H31L28.4874 19.0904Z" fill="#0E141B"/>
<path d="M14.3202 19.5H12.1231L10.6011 16.8497H10.4295H9.47969V19.5H7.5V11.1433H10.6126C11.7569 11.1433 12.6037 11.378 13.153 11.8476C13.7023 12.3172 13.9769 12.9778 13.9769 13.8294C13.9769 14.474 13.8434 15.0152 13.5764 15.4529C13.317 15.8827 12.9508 16.209 12.4778 16.4319L14.3202 19.5ZM9.47969 12.9101V15.0829H10.5554C10.9597 15.0829 11.2763 14.9874 11.5052 14.7963C11.7417 14.5974 11.8599 14.3109 11.8599 13.9368C11.8599 13.5946 11.7531 13.3399 11.5395 13.1728C11.3259 12.9977 10.9864 12.9101 10.521 12.9101H9.47969Z" fill="white"/>
<path d="M18.4068 17.7212H22V19.5H15.9007V17.8048L18.2123 15.8469C18.5708 15.5365 18.8416 15.2898 19.0247 15.1067C19.2078 14.9237 19.349 14.7367 19.4481 14.5456C19.5549 14.3546 19.6083 14.1437 19.6083 13.9129C19.6083 13.5548 19.4748 13.2842 19.2078 13.1011C18.9485 12.9181 18.6166 12.8265 18.2123 12.8265C17.9071 12.8265 17.6058 12.8743 17.3082 12.9698C17.0107 13.0573 16.7437 13.1767 16.5072 13.3279L15.8664 11.7999C16.2326 11.5531 16.6407 11.3581 17.0908 11.2149C17.5486 11.0716 18.0368 11 18.5556 11C19.5168 11 20.2911 11.2109 20.8786 11.6327C21.466 12.0466 21.7597 12.6594 21.7597 13.4712C21.7597 14.0283 21.6071 14.5377 21.302 14.9993C21.0044 15.4529 20.5429 15.9424 19.9173 16.4677L18.4068 17.7212Z" fill="white"/>
</svg>
