<svg width="32" height="32" viewBox="0 0 32 32" fill="none" xmlns="http://www.w3.org/2000/svg">
<g clip-path="url(#clip0_7533_1449)">
<path d="M0.0277703 10.5562C-0.235507 8.44996 1.40679 6.5896 3.5294 6.5896H28.4707C30.5933 6.5896 32.2356 8.44996 31.9723 10.5562L30.6308 21.2887C30.3364 23.6433 28.3348 25.4103 25.9619 25.4103H6.03818C3.66525 25.4103 1.66366 23.6433 1.36934 21.2887L0.0277703 10.5562Z" fill="#0E141B"/>
<path fill-rule="evenodd" clip-rule="evenodd" d="M19.5288 8.94228H27.901C28.9748 8.94228 29.7996 9.89329 29.6477 10.9562L28.2075 21.0379C28.0419 22.1969 27.0493 23.0578 25.8785 23.0578H19.5288C18.2295 23.0578 17.1762 22.0045 17.1762 20.7052V11.2949C17.1762 9.99557 18.2295 8.94228 19.5288 8.94228ZM27.901 7.76599C29.6906 7.76599 31.0653 9.35101 30.8122 11.1226L29.3719 21.2043C29.1236 22.9428 27.6347 24.2341 25.8785 24.2341H19.5288C17.5798 24.2341 15.9999 22.6542 15.9999 20.7052V11.2949C15.9999 9.34592 17.5798 7.76599 19.5288 7.76599H27.901Z" fill="white"/>
</g>
<defs>
<clipPath id="clip0_7533_1449">
<rect width="32" height="32" fill="white"/>
</clipPath>
</defs>
</svg>
