<svg width="32" height="32" viewBox="0 0 32 32" fill="none" xmlns="http://www.w3.org/2000/svg">
<g clip-path="url(#clip0_1967_16211)">
<path d="M0.0277703 10.5562C-0.235507 8.44996 1.40679 6.5896 3.5294 6.5896H28.4707C30.5933 6.5896 32.2356 8.44996 31.9723 10.5562L30.6308 21.2887C30.3364 23.6433 28.3348 25.4103 25.9619 25.4103H6.03818C3.66525 25.4103 1.66366 23.6433 1.36934 21.2887L0.0277703 10.5562Z" fill="#0E141B"/>
<path fill-rule="evenodd" clip-rule="evenodd" d="M12.4711 8.94228H4.09888C3.02513 8.94228 2.20032 9.89329 2.35217 10.9562L3.79241 21.0379C3.95798 22.1969 4.95059 23.0578 6.12135 23.0578H12.4711C13.7704 23.0578 14.8237 22.0045 14.8237 20.7052V11.2949C14.8237 9.99557 13.7704 8.94228 12.4711 8.94228ZM4.09888 7.76599C2.3093 7.76599 0.934616 9.35101 1.1877 11.1226L2.62794 21.2043C2.8763 22.9428 4.3652 24.2341 6.12135 24.2341H12.4711C14.4201 24.2341 16 22.6542 16 20.7052V11.2949C16 9.34592 14.4201 7.76599 12.4711 7.76599H4.09888Z" fill="white"/>
</g>
<defs>
<clipPath id="clip0_1967_16211">
<rect width="32" height="32" fill="white"/>
</clipPath>
</defs>
</svg>
