<svg width="32" height="32" viewBox="0 0 32 32" fill="none" xmlns="http://www.w3.org/2000/svg">
<g clip-path="url(#clip0_7533_1471)">
<path fill-rule="evenodd" clip-rule="evenodd" d="M2.50351 6.6197L8.50003 14L14.5209 6.58972H29.0698C30.8743 6.58972 32.2705 8.17127 32.0466 9.96183L30.5536 21.9065C30.3033 23.9082 28.6017 25.4104 26.5845 25.4104H5.41574C3.39845 25.4104 1.69684 23.9082 1.44663 21.9065L-0.04646 9.96183C-0.252278 8.31529 0.911767 6.84549 2.50351 6.6197Z" fill="#0E141B"/>
<path fill-rule="evenodd" clip-rule="evenodd" d="M3.43855 7.77051C1.99239 7.85679 0.908009 9.1641 1.11593 10.6195L2.6929 21.6583C2.90403 23.1363 4.16979 24.234 5.66274 24.234H13.0001C14.6569 24.234 16.0001 22.8909 16.0001 21.234V10.766C16.0001 9.28911 14.9329 8.06149 13.5276 7.81221L12.7526 8.76598H13.0001C14.1046 8.76598 15.0001 9.66141 15.0001 10.766V21.234C15.0001 22.3386 14.1046 23.234 13.0001 23.234H5.66274C4.66744 23.234 3.8236 22.5022 3.68285 21.5169L2.10588 10.4781C1.97678 9.57446 2.67798 8.76598 3.5908 8.76598H4.24738L3.43855 7.77051Z" fill="white"/>
<rect x="8" y="15" width="1" height="2" fill="white"/>
<rect x="10" y="14.7072" width="1" height="2" transform="rotate(-45 10 14.7072)" fill="white"/>
<rect x="6.41431" y="14" width="1" height="2" transform="rotate(45 6.41431 14)" fill="white"/>
<mask id="path-6-inside-1_7533_1471" fill="white">
<path fill-rule="evenodd" clip-rule="evenodd" d="M11 1H6V5H2L8.50003 13L15 5H11V1Z"/>
</mask>
<path fill-rule="evenodd" clip-rule="evenodd" d="M11 1H6V5H2L8.50003 13L15 5H11V1Z" fill="white"/>
<path d="M6 1V0H5V1H6ZM11 1H12V0H11V1ZM6 5V6H7V5H6ZM2 5V4H-0.100977L1.22389 5.63059L2 5ZM8.50003 13L7.72392 13.6306L8.50003 14.5858L9.27615 13.6306L8.50003 13ZM15 5L15.7761 5.63059L17.101 4H15V5ZM11 5H10V6H11V5ZM6 2H11V0H6V2ZM7 5V1H5V5H7ZM6 4H2V6H6V4ZM1.22389 5.63059L7.72392 13.6306L9.27614 12.3694L2.77611 4.36941L1.22389 5.63059ZM9.27615 13.6306L15.7761 5.63059L14.2239 4.36941L7.72392 12.3694L9.27615 13.6306ZM15 4H11V6H15V4ZM10 1V5H12V1H10Z" fill="#0E141B" mask="url(#path-6-inside-1_7533_1471)"/>
</g>
<defs>
<clipPath id="clip0_7533_1471">
<rect width="32" height="32" fill="white"/>
</clipPath>
</defs>
</svg>
