<svg width="64" height="64" viewBox="0 0 64 64" fill="none" xmlns="http://www.w3.org/2000/svg">
<path d="M8.55518 0H46.7664C51.5036 0 55.1636 4.16068 54.5595 8.8592L50.139 43.2412C49.467 48.4676 45.0176 52.3815 39.7482 52.3815H8.55518V0Z" fill="black"/>
<path d="M41.2836 42.6821L34.9084 49.253V34.048H29.3454V49.253L22.9701 42.6821L19.0315 46.7416L32.1269 60.2387L45.2223 46.7416L41.2836 42.6821Z" fill="white"/>
<path fill-rule="evenodd" clip-rule="evenodd" d="M41.2837 38.921L48.8715 46.7417L32.1269 64L15.3823 46.7417L22.9702 38.921L26.7263 42.7924V31.429L37.5275 31.429V42.7924L41.2837 38.921ZM34.9084 49.253V34.048H29.3454V49.253L22.9702 42.6822L19.0315 46.7417L32.1269 60.2388L45.2223 46.7417L41.2837 42.6822L34.9084 49.253Z" fill="black"/>
</svg>
