<svg width="64" height="64" viewBox="0 0 64 64" fill="none" xmlns="http://www.w3.org/2000/svg">
<g clip-path="url(#clip0_1967:16455)">
<path d="M9.84521 7.05688H49.2624C52.4682 7.05688 54.945 9.87251 54.5362 13.0521L49.6077 51.3845C49.153 54.9213 46.142 57.57 42.5761 57.57H9.84521V7.05688Z" fill="black"/>
<path fill-rule="evenodd" clip-rule="evenodd" d="M11.1052 43.7285L15.2069 39.3723L19.2972 43.7344L25.0095 37.6331L19.6122 31.8809L25.0029 26.1232L19.2997 19.9972L15.2041 24.3785L11.1076 20.003L-9.72748e-05 31.8857L11.1052 43.7285ZM15.9685 31.8828L21.3657 37.6351L19.2957 39.8461L11.8284 31.8828L19.2957 23.8946L21.3657 26.1181L15.9685 31.8828ZM3.64184 31.8828L11.1092 39.8461L13.1792 37.6476L7.7819 31.8828L13.1792 26.1056L11.1092 23.8946L3.64184 31.8828Z" fill="black"/>
<path fill-rule="evenodd" clip-rule="evenodd" d="M52.8948 43.7285L48.7931 39.3723L44.7028 43.7344L38.9905 37.6331L44.3878 31.8809L38.9971 26.1232L44.7003 19.9972L48.7959 24.3785L52.8924 20.003L64.0001 31.8857L52.8948 43.7285ZM48.0315 31.8828L42.6343 37.6351L44.7043 39.8461L52.1716 31.8828L44.7043 23.8946L42.6343 26.1181L48.0315 31.8828ZM60.3582 31.8828L52.8908 39.8461L50.8208 37.6476L56.2181 31.8828L50.8208 26.1056L52.8908 23.8946L60.3582 31.8828Z" fill="black"/>
<path d="M3.64183 31.8828L11.1091 39.846L13.1792 37.6476L7.78189 31.8828L13.1792 26.1055L11.1091 23.8945L3.64183 31.8828Z" fill="white"/>
<path d="M15.9684 31.8828L21.3657 37.6351L19.2957 39.846L11.8284 31.8828L19.2957 23.8945L21.3657 26.118L15.9684 31.8828Z" fill="white"/>
<path d="M60.3584 31.8828L52.8911 39.846L50.8211 37.6476L56.2184 31.8828L50.8211 26.1055L52.8911 23.8945L60.3584 31.8828Z" fill="white"/>
<path d="M48.0318 31.8828L42.6345 37.6351L44.7046 39.846L52.1719 31.8828L44.7046 23.8945L42.6345 26.118L48.0318 31.8828Z" fill="white"/>
</g>
<defs>
<clipPath id="clip0_1967:16455">
<rect width="64" height="64" fill="white"/>
</clipPath>
</defs>
</svg>
