<svg width="32" height="32" viewBox="0 0 32 32" fill="none" xmlns="http://www.w3.org/2000/svg">
<g clip-path="url(#clip0_1967_16048)">
<path d="M0.0277703 10.5562C-0.235507 8.44996 1.40679 6.5896 3.5294 6.5896H28.4707C30.5933 6.5896 32.2356 8.44996 31.9723 10.5562L30.6308 21.2887C30.3364 23.6433 28.3348 25.4103 25.9619 25.4103H6.03818C3.66525 25.4103 1.66366 23.6433 1.36934 21.2887L0.0277703 10.5562Z" fill="#0E141B"/>
<path fill-rule="evenodd" clip-rule="evenodd" d="M28.9392 16C28.9392 19.2482 26.306 21.8815 23.0577 21.8815C19.8095 21.8815 17.1763 19.2482 17.1763 16C17.1763 12.7518 19.8095 10.1185 23.0577 10.1185C26.306 10.1185 28.9392 12.7518 28.9392 16ZM23.0577 20.7052C25.6563 20.7052 27.7629 18.5986 27.7629 16C27.7629 13.4014 25.6563 11.2948 23.0577 11.2948C20.4591 11.2948 18.3526 13.4014 18.3526 16C18.3526 18.5986 20.4591 20.7052 23.0577 20.7052Z" fill="white"/>
<path d="M24.9642 17.7645H23.835L23.0527 16.4588H22.9645H22.4764V17.7645H21.4589V13.6475H23.0586C23.6468 13.6475 24.082 13.7631 24.3643 13.9945C24.6466 14.2258 24.7878 14.5512 24.7878 14.9708C24.7878 15.2884 24.7192 15.555 24.5819 15.7707C24.4486 15.9824 24.2604 16.1432 24.0173 16.253L24.9642 17.7645ZM22.4764 14.5179V15.5883H23.0292C23.237 15.5883 23.3997 15.5413 23.5174 15.4472C23.6389 15.3492 23.6997 15.208 23.6997 15.0237C23.6997 14.8551 23.6448 14.7297 23.535 14.6473C23.4252 14.561 23.2507 14.5179 23.0116 14.5179H22.4764Z" fill="white"/>
</g>
<defs>
<clipPath id="clip0_1967_16048">
<rect width="32" height="32" fill="white"/>
</clipPath>
</defs>
</svg>
