<svg width="64" height="64" viewBox="0 0 64 64" fill="none" xmlns="http://www.w3.org/2000/svg">
<path fill-rule="evenodd" clip-rule="evenodd" d="M0 8.88889L64 0L58.6399 38.5928C57.596 46.1087 53.7747 52.6335 48.2997 57.1886L0 8.88889Z" fill="black"/>
<path fill-rule="evenodd" clip-rule="evenodd" d="M48.2996 57.1886L-0.000148773 8.88892V34.54C-0.000148773 50.8103 13.1895 64 29.4598 64C36.5761 64 43.165 61.4605 48.2996 57.1886Z" fill="#67707B"/>
<path d="M28.5811 41H23.8839L20.63 35.3876H20.263H18.2324V41H14V23.3034H20.6545C23.101 23.3034 24.9114 23.8006 26.0857 24.7949C27.26 25.7893 27.8472 27.1882 27.8472 28.9916C27.8472 30.3567 27.5618 31.5028 26.9909 32.4298C26.4364 33.3399 25.6535 34.0309 24.6423 34.5028L28.5811 41ZM18.2324 27.0449V31.6461H20.5322C21.3966 31.6461 22.0735 31.4438 22.5628 31.0393C23.0684 30.618 23.3212 30.0112 23.3212 29.2191C23.3212 28.4944 23.0928 27.9551 22.6361 27.6011C22.1795 27.2303 21.4537 27.0449 20.4588 27.0449H18.2324Z" fill="white"/>
<path d="M37.318 37.2331H45V41H31.9602V37.4101L36.9021 33.264C37.6687 32.6067 38.2477 32.0843 38.6391 31.6966C39.0305 31.309 39.3323 30.9129 39.5443 30.5084C39.7726 30.1039 39.8868 29.6573 39.8868 29.1685C39.8868 28.4101 39.6014 27.8371 39.0305 27.4494C38.476 27.0618 37.7665 26.868 36.9021 26.868C36.2497 26.868 35.6054 26.9691 34.9693 27.1713C34.3333 27.3567 33.7624 27.6096 33.2568 27.9298L31.8868 24.6938C32.6696 24.1713 33.5422 23.7584 34.5045 23.4551C35.4831 23.1517 36.527 23 37.636 23C39.6911 23 41.3466 23.4466 42.6024 24.3399C43.8583 25.2163 44.4862 26.514 44.4862 28.2331C44.4862 29.4129 44.16 30.4916 43.5076 31.4691C42.8715 32.4298 41.8848 33.4663 40.5474 34.5787L37.318 37.2331Z" fill="white"/>
</svg>
