<svg width="64" height="64" viewBox="0 0 64 64" fill="none" xmlns="http://www.w3.org/2000/svg">
<g clip-path="url(#clip0_1967:16322)">
<path d="M17.2378 5.41553H56.0235C60.8319 5.41553 64.5469 9.63875 63.9337 14.4079L59.4467 49.3067C58.7646 54.6117 54.2484 58.5845 48.8997 58.5845H17.2378V5.41553Z" fill="black"/>
<path d="M21.7661 22.7056L15.0965 29.1767H30.53V34.8233H15.0965L21.7661 41.2944L17.6456 45.2922L3.94555 32L17.6456 18.7078L21.7661 22.7056Z" fill="white"/>
<path fill-rule="evenodd" clip-rule="evenodd" d="M25.5838 22.7056L17.6456 15.0037L0.127834 32L17.6456 48.9963L25.5838 41.2944L21.6542 37.4818H33.1885V26.5182H21.6542L25.5838 22.7056ZM15.0965 29.1767H30.53V34.8233H15.0965L21.7661 41.2944L17.6456 45.2923L3.94555 32L17.6456 18.7078L21.7661 22.7056L15.0965 29.1767Z" fill="black"/>
</g>
<defs>
<clipPath id="clip0_1967:16322">
<rect width="64" height="64" fill="white"/>
</clipPath>
</defs>
</svg>
