<svg width="32" height="32" viewBox="0 0 32 32" fill="none" xmlns="http://www.w3.org/2000/svg">
<g clip-path="url(#clip0_2642_21338)">
<path d="M31.9722 10.5044C32.2355 8.37808 30.5932 6.5 28.4706 6.5H3.52939C1.40678 6.5 -0.235504 8.37808 0.027771 10.5044L1.36934 21.3392C1.66366 23.7162 3.66524 25.5 6.03816 25.5H25.9618C28.3348 25.5 30.3363 23.7162 30.6307 21.3392L31.9722 10.5044Z" fill="#0E141B"/>
<path d="M12.6848 6.4082L16.5235 1.92964L20.3623 6.4082L12.6848 6.4082Z" fill="white"/>
<path fill-rule="evenodd" clip-rule="evenodd" d="M9.90276 7.68774L16.5236 -0.0366226L23.1445 7.68774L9.90276 7.68774ZM12.6849 6.40815L20.3624 6.40815L16.5236 1.92958L12.6849 6.40815Z" fill="#0E141B"/>
</g>
<defs>
<clipPath id="clip0_2642_21338">
<rect width="32" height="32" fill="white"/>
</clipPath>
</defs>
</svg>
