<svg width="32" height="32" viewBox="0 0 32 32" fill="none" xmlns="http://www.w3.org/2000/svg">
<g clip-path="url(#clip0_1967_20373)">
<path fill-rule="evenodd" clip-rule="evenodd" d="M32 4.44444L0 0L2.68006 19.2964C3.20199 23.0544 5.11267 26.3167 7.85014 28.5943L32 4.44444Z" fill="#0E141B"/>
<path fill-rule="evenodd" clip-rule="evenodd" d="M7.8501 28.5943L32 4.44446V17.27C32 25.4052 25.4051 32 17.27 32C13.7118 32 10.4174 30.7303 7.8501 28.5943Z" fill="#67707B"/>
<path d="M16.0958 20.5H10V11.6517H12.1522V18.5281H16.0958V20.5Z" fill="white"/>
<path d="M20.5937 18.6166H24.5V20.5H17.8692V18.7051L20.3822 16.632C20.772 16.3034 21.0664 16.0421 21.2655 15.8483C21.4645 15.6545 21.618 15.4565 21.7258 15.2542C21.8419 15.052 21.8999 14.8287 21.8999 14.5843C21.8999 14.2051 21.7548 13.9185 21.4645 13.7247C21.1825 13.5309 20.8218 13.434 20.3822 13.434C20.0505 13.434 19.7229 13.4846 19.3994 13.5857C19.076 13.6784 18.7857 13.8048 18.5286 13.9649L17.8319 12.3469C18.23 12.0857 18.6737 11.8792 19.1631 11.7275C19.6607 11.5758 20.1915 11.5 20.7554 11.5C21.8004 11.5 22.6422 11.7233 23.2808 12.1699C23.9194 12.6081 24.2388 13.257 24.2388 14.1166C24.2388 14.7065 24.0729 15.2458 23.7411 15.7346C23.4177 16.2149 22.9159 16.7331 22.2358 17.2893L20.5937 18.6166Z" fill="white"/>
</g>
<defs>
<clipPath id="clip0_1967_20373">
<rect width="32" height="32" fill="white"/>
</clipPath>
</defs>
</svg>
