<svg width="32" height="32" viewBox="0 0 32 32" fill="none" xmlns="http://www.w3.org/2000/svg">
<g clip-path="url(#clip0_1967_16033)">
<path d="M0.0277703 10.5562C-0.235507 8.44996 1.40679 6.5896 3.5294 6.5896H28.4707C30.5933 6.5896 32.2356 8.44996 31.9723 10.5562L30.6308 21.2887C30.3364 23.6433 28.3348 25.4103 25.9619 25.4103H6.03818C3.66525 25.4103 1.66366 23.6433 1.36934 21.2887L0.0277703 10.5562Z" fill="#0E141B"/>
<path fill-rule="evenodd" clip-rule="evenodd" d="M14.8237 16C14.8237 19.2482 12.1905 21.8815 8.94226 21.8815C5.69401 21.8815 3.06079 19.2482 3.06079 16C3.06079 12.7518 5.69401 10.1185 8.94226 10.1185C12.1905 10.1185 14.8237 12.7518 14.8237 16ZM8.94226 20.7052C11.5408 20.7052 13.6474 18.5986 13.6474 16C13.6474 13.4014 11.5408 11.2948 8.94226 11.2948C6.34366 11.2948 4.23708 13.4014 4.23708 16C4.23708 18.5986 6.34366 20.7052 8.94226 20.7052Z" fill="white"/>
<path d="M10.524 17.7645H7.64209V13.6475H8.65958V16.847H10.524V17.7645Z" fill="white"/>
</g>
<defs>
<clipPath id="clip0_1967_16033">
<rect width="32" height="32" fill="white"/>
</clipPath>
</defs>
</svg>
