<svg width="64" height="64" viewBox="0 0 64 64" fill="none" xmlns="http://www.w3.org/2000/svg">
<g clip-path="url(#clip0_1967:16033)">
<path d="M0.0554186 21.1125C-0.471137 16.9 2.81345 13.1793 7.05868 13.1793H56.9413C61.1865 13.1793 64.4711 16.9 63.9445 21.1125L61.2614 42.5776C60.6727 47.2868 56.6696 50.8207 51.9237 50.8207H12.0762C7.33037 50.8207 3.3272 47.2868 2.73855 42.5776L0.0554186 21.1125Z" fill="black"/>
<path fill-rule="evenodd" clip-rule="evenodd" d="M29.6474 32C29.6474 38.4965 24.381 43.7629 17.8845 43.7629C11.388 43.7629 6.12158 38.4965 6.12158 32C6.12158 25.5035 11.388 20.2371 17.8845 20.2371C24.381 20.2371 29.6474 25.5035 29.6474 32ZM17.8845 41.4103C23.0817 41.4103 27.2949 37.1972 27.2949 32C27.2949 26.8028 23.0817 22.5896 17.8845 22.5896C12.6873 22.5896 8.47417 26.8028 8.47417 32C8.47417 37.1972 12.6873 41.4103 17.8845 41.4103Z" fill="white"/>
<path d="M21.048 35.5289H15.2842V27.2948H17.3192V33.6938H21.048V35.5289Z" fill="white"/>
</g>
<defs>
<clipPath id="clip0_1967:16033">
<rect width="64" height="64" fill="white"/>
</clipPath>
</defs>
</svg>
