<svg width="64" height="64" viewBox="0 0 64 64" fill="none" xmlns="http://www.w3.org/2000/svg">
<mask id="path-1-outside-1_1967:14052" maskUnits="userSpaceOnUse" x="2" y="2" width="60" height="60" fill="black">
<rect fill="white" x="2" y="2" width="60" height="60"/>
<path d="M60 32C60 47.464 47.464 60 32 60C16.536 60 4 47.464 4 32C4 16.536 16.536 4 32 4C47.464 4 60 16.536 60 32Z"/>
</mask>
<path d="M60 32C60 47.464 47.464 60 32 60C16.536 60 4 47.464 4 32C4 16.536 16.536 4 32 4C47.464 4 60 16.536 60 32Z" fill="black"/>
<path d="M58 32C58 46.3594 46.3594 58 32 58V62C48.5685 62 62 48.5685 62 32H58ZM32 58C17.6406 58 6 46.3594 6 32H2C2 48.5685 15.4315 62 32 62V58ZM6 32C6 17.6406 17.6406 6 32 6V2C15.4315 2 2 15.4315 2 32H6ZM32 6C46.3594 6 58 17.6406 58 32H62C62 15.4315 48.5685 2 32 2V6Z" fill="white" mask="url(#path-1-outside-1_1967:14052)"/>
<path d="M50.6667 42.8889H13.3334L32 11.7778L50.6667 42.8889Z" stroke="white" stroke-width="3"/>
</svg>
