<svg width="32" height="32" viewBox="0 0 32 32" fill="none" xmlns="http://www.w3.org/2000/svg">
<path fill-rule="evenodd" clip-rule="evenodd" d="M8.90558 20.1704V15.6096L16.4403 22.1704H10.9056C9.80101 22.1704 8.90558 21.275 8.90558 20.1704ZM8.85828 24.9677H19.6529L21.3755 26.4677H16.7501V30.2886H21.321V31.7886H10.6792V30.2886H15.2501V26.4677H8.85828C6.51107 26.4677 4.60828 24.5649 4.60828 22.2177V15.0759H6.10828V22.2177C6.10828 23.7365 7.33949 24.9677 8.85828 24.9677ZM25.8919 21.0895L27.3883 22.3925C27.3907 22.3345 27.3919 22.2762 27.3919 22.2177V15.0759H25.8919V21.0895ZM8.90558 6.29897L23.0946 18.6539V2C23.0946 0.895431 22.1992 0 21.0946 0H10.9056C9.80101 0 8.90558 0.895429 8.90558 2V6.29897ZM0.0373535 5.00148L30.2175 31.2804L31.9627 29.2619L1.78253 2.98293L0.0373535 5.00148Z" fill="#0E141B"/>
</svg>
