<svg width="64" height="64" viewBox="0 0 64 64" fill="none" xmlns="http://www.w3.org/2000/svg">
<path fill-rule="evenodd" clip-rule="evenodd" d="M17.8112 40.3408V31.2193L32.8806 44.3408H21.8112C19.602 44.3408 17.8112 42.5499 17.8112 40.3408ZM17.7166 49.9353H39.3057L42.7511 52.9353H33.5002V60.5771H42.642V63.5771H21.3584V60.5771H30.5002V52.9353H17.7166C13.0221 52.9353 9.21655 49.1298 9.21655 44.4353V30.1518H12.2166V44.4353C12.2166 47.4729 14.679 49.9353 17.7166 49.9353ZM51.7837 42.179L54.7766 44.7851C54.7813 44.6691 54.7837 44.5525 54.7837 44.4353V30.1518H51.7837V42.179ZM17.8112 12.5979L46.1893 37.3077V4C46.1893 1.79086 44.3984 0 42.1893 0H21.8112C19.602 0 17.8112 1.79086 17.8112 4V12.5979ZM0.074707 10.003L60.4351 62.5608L63.9254 58.5237L3.56506 5.96586L0.074707 10.003Z" fill="black"/>
</svg>
