<svg width="64" height="64" viewBox="0 0 64 64" fill="none" xmlns="http://www.w3.org/2000/svg">
<path fill-rule="evenodd" clip-rule="evenodd" d="M32 6.05257C17.6697 6.05257 6.05263 17.6696 6.05263 31.9999C6.05263 46.3303 17.6697 57.9473 32 57.9473C46.3303 57.9473 57.9474 46.3303 57.9474 31.9999C57.9474 17.6696 46.3303 6.05257 32 6.05257ZM3 31.9999C3 15.9837 15.9837 2.99994 32 2.99994C48.0163 2.99994 61 15.9837 61 31.9999C61 48.0162 48.0163 60.9999 32 60.9999C15.9837 60.9999 3 48.0162 3 31.9999Z" fill="#97AFDD"/>
<path fill-rule="evenodd" clip-rule="evenodd" d="M30.4091 31.9999L17 45.938L19.198 47.9999L32.5 34.1733L45.802 47.9999L48 45.938L34.5909 31.9999L48 18.0619L45.802 15.9999L32.5 29.8266L19.198 15.9999L17 18.0619L30.4091 31.9999Z" fill="#97AFDD"/>
</svg>
