<svg width="64" height="64" viewBox="0 0 64 64" fill="none" xmlns="http://www.w3.org/2000/svg">
<circle cx="32" cy="32" r="29" fill="black" stroke="#97AFDD" stroke-width="2"/>
<mask id="path-2-outside-1_1967:13929" maskUnits="userSpaceOnUse" x="15.275" y="13.7558" width="35" height="36" fill="black">
<rect fill="white" x="15.275" y="13.7558" width="35" height="36"/>
<path fill-rule="evenodd" clip-rule="evenodd" d="M31.3985 32L17.275 46.8669L18.725 48.2444L32.7779 33.452L46.8307 48.2444L48.2807 46.8669L34.1572 32L48.2806 17.1333L46.8306 15.7558L32.7779 30.5481L18.7251 15.7558L17.2751 17.1333L31.3985 32Z"/>
</mask>
<path fill-rule="evenodd" clip-rule="evenodd" d="M31.3985 32L17.275 46.8669L18.725 48.2444L32.7779 33.452L46.8307 48.2444L48.2807 46.8669L34.1572 32L48.2806 17.1333L46.8306 15.7558L32.7779 30.5481L18.7251 15.7558L17.2751 17.1333L31.3985 32Z" fill="#97AFDD"/>
<path d="M17.275 46.8669L16.55 46.1782L15.8613 46.9032L16.5863 47.5919L17.275 46.8669ZM31.3985 32L32.1235 32.6888L32.7779 32L32.1235 31.3113L31.3985 32ZM18.725 48.2444L18.0363 48.9694L18.7613 49.6582L19.45 48.9332L18.725 48.2444ZM32.7779 33.452L33.5029 32.7632L32.7779 32L32.0529 32.7632L32.7779 33.452ZM46.8307 48.2444L46.1057 48.9332L46.7944 49.6582L47.5194 48.9694L46.8307 48.2444ZM48.2807 46.8669L48.9694 47.5919L49.6944 46.9032L49.0057 46.1782L48.2807 46.8669ZM34.1572 32L33.4322 31.3113L32.7779 32L33.4322 32.6888L34.1572 32ZM48.2806 17.1333L49.0056 17.822L49.6943 17.097L48.9693 16.4083L48.2806 17.1333ZM46.8306 15.7558L47.5193 15.0308L46.7943 14.342L46.1056 15.067L46.8306 15.7558ZM32.7779 30.5481L32.0529 31.2369L32.7779 32L33.5029 31.2369L32.7779 30.5481ZM18.7251 15.7558L19.4501 15.067L18.7614 14.342L18.0364 15.0308L18.7251 15.7558ZM17.2751 17.1333L16.5864 16.4083L15.8614 17.097L16.5501 17.822L17.2751 17.1333ZM18 47.5557L32.1235 32.6888L30.6735 31.3113L16.55 46.1782L18 47.5557ZM19.4138 47.5194L17.9638 46.1419L16.5863 47.5919L18.0363 48.9694L19.4138 47.5194ZM32.0529 32.7632L18 47.5557L19.45 48.9332L33.5029 34.1407L32.0529 32.7632ZM32.0529 34.1407L46.1057 48.9332L47.5557 47.5557L33.5029 32.7632L32.0529 34.1407ZM47.5194 48.9694L48.9694 47.5919L47.5919 46.1419L46.1419 47.5194L47.5194 48.9694ZM49.0057 46.1782L34.8822 31.3113L33.4322 32.6888L47.5557 47.5557L49.0057 46.1782ZM47.5556 16.4445L33.4322 31.3113L34.8822 32.6888L49.0056 17.822L47.5556 16.4445ZM46.1418 16.4808L47.5918 17.8583L48.9693 16.4083L47.5193 15.0308L46.1418 16.4808ZM33.5029 31.2369L47.5556 16.4445L46.1056 15.067L32.0529 29.8594L33.5029 31.2369ZM33.5029 29.8594L19.4501 15.067L18.0001 16.4445L32.0529 31.2369L33.5029 29.8594ZM18.0364 15.0308L16.5864 16.4083L17.9639 17.8583L19.4139 16.4808L18.0364 15.0308ZM16.5501 17.822L30.6735 32.6888L32.1235 31.3113L18.0001 16.4445L16.5501 17.822Z" fill="black" mask="url(#path-2-outside-1_1967:13929)"/>
</svg>
