<svg width="32" height="32" viewBox="0 0 32 32" fill="none" xmlns="http://www.w3.org/2000/svg">
<path d="M4.56223 20.8219C2.91184 20.9534 1.5 19.6495 1.5 17.9939L1.5 14.02C1.5 12.3675 2.90685 11.0647 4.55454 11.1914L8.76555 11.5154C9.36575 11.5615 9.92963 11.8209 10.3553 12.2465L13.2171 15.1084C13.7095 15.6008 13.7095 16.3991 13.2171 16.8915L10.3525 19.7561C9.92854 20.1801 9.36735 20.4391 8.76963 20.4868L4.56223 20.8219Z" fill="white"/>
<path fill-rule="evenodd" clip-rule="evenodd" d="M3.5 17.9939C3.5 18.4824 3.91652 18.867 4.40341 18.8282L8.61082 18.4931C8.73449 18.4832 8.85059 18.4296 8.93831 18.3419L10.1748 19.5784L8.93831 18.3419L11.2803 16L8.94107 13.6608L10.3553 12.2465L13.2171 15.1084C13.7095 15.6008 13.7095 16.3991 13.2171 16.8915L10.3525 19.7561C9.92854 20.1801 9.36735 20.4391 8.76963 20.4868L4.56223 20.8219C2.91184 20.9534 1.5 19.6495 1.5 17.9939L1.5 14.02C1.5 12.3675 2.90685 11.0647 4.55454 11.1914L8.76555 11.5154C9.36575 11.5615 9.92963 11.8209 10.3553 12.2465L8.94107 13.6607C8.853 13.5727 8.73634 13.519 8.61216 13.5095L4.40115 13.1855C3.91505 13.1482 3.5 13.5325 3.5 14.02L3.5 17.9939Z" fill="black"/>
<path d="M27.4378 20.8219C29.0882 20.9534 30.5 19.6495 30.5 17.9939L30.5 14.02C30.5 12.3675 29.0931 11.0647 27.4455 11.1914L23.2344 11.5154C22.6343 11.5615 22.0704 11.8209 21.6447 12.2465L18.7829 15.1084C18.2905 15.6008 18.2905 16.3991 18.7829 16.8915L21.6475 19.7561C22.0715 20.1801 22.6327 20.4391 23.2304 20.4868L27.4378 20.8219Z" fill="white"/>
<path fill-rule="evenodd" clip-rule="evenodd" d="M28.5 17.9939C28.5 18.4824 28.0835 18.867 27.5966 18.8282L23.3892 18.4931C23.2655 18.4832 23.1494 18.4296 23.0617 18.3419L21.898 19.5056L23.0617 18.3419L20.7197 16L23.0589 13.6608L21.6447 12.2465L18.7829 15.1084C18.2905 15.6008 18.2905 16.3991 18.7829 16.8915L21.6475 19.7561C22.0715 20.1801 22.6327 20.4391 23.2304 20.4868L27.4378 20.8219C29.0882 20.9534 30.5 19.6495 30.5 17.9939L30.5 14.02C30.5 12.3675 29.0931 11.0647 27.4455 11.1914L23.2344 11.5154C22.6343 11.5615 22.0704 11.8209 21.6447 12.2465L23.0589 13.6607C23.147 13.5727 23.2637 13.519 23.3878 13.5095L27.5989 13.1855C28.0849 13.1482 28.5 13.5325 28.5 14.02L28.5 17.9939Z" fill="black"/>
<path d="M11.2004 27.4378C11.069 29.0882 12.3728 30.5 14.0284 30.5L18.0023 30.5C19.6549 30.5 20.9576 29.0931 20.8309 27.4455L20.507 23.2344C20.4608 22.6343 20.2015 22.0704 19.7758 21.6447L16.914 18.7829C16.4216 18.2905 15.6232 18.2905 15.1308 18.7829L12.2662 21.6475C11.8422 22.0715 11.5832 22.6327 11.5356 23.2304L11.2004 27.4378Z" fill="white"/>
<path fill-rule="evenodd" clip-rule="evenodd" d="M14.0284 28.5C13.54 28.5 13.1553 28.0835 13.1941 27.5966L13.5293 23.3892C13.5391 23.2655 13.5927 23.1494 13.6804 23.0617L12.2662 21.6475C11.8422 22.0715 11.5832 22.6327 11.5356 23.2304L11.2004 27.4378C11.069 29.0882 12.3728 30.5 14.0284 30.5H18.0023C19.6549 30.5 20.9576 29.0931 20.8309 27.4455L20.507 23.2344C20.4608 22.6343 20.2015 22.0704 19.7758 21.6447L18.3616 23.0589C18.4497 23.147 18.5033 23.2637 18.5129 23.3878L18.8368 27.5989C18.8742 28.085 18.4898 28.5 18.0023 28.5H14.0284ZM16.0224 20.7197L13.6804 23.0617L12.2662 21.6475L15.1308 18.7829C15.6232 18.2905 16.4216 18.2905 16.914 18.7829L19.7758 21.6447L18.3616 23.0589L16.0224 20.7197Z" fill="black"/>
<path d="M20.822 4.56223C20.9535 2.91184 19.6497 1.5 17.994 1.5L14.0202 1.5C12.3676 1.5 11.0648 2.90685 11.1916 4.55454L11.5155 8.76555C11.5617 9.36575 11.821 9.92963 12.2467 10.3553L15.1085 13.2171C15.6009 13.7095 16.3992 13.7095 16.8916 13.2171L19.7562 10.3525C20.1802 9.92854 20.4393 9.36735 20.4869 8.76963L20.822 4.56223Z" fill="#0E141B"/>
</svg>
