<svg width="32" height="32" viewBox="0 0 32 32" fill="none" xmlns="http://www.w3.org/2000/svg">
<path d="M11.1781 27.4378C11.0466 29.0882 12.3505 30.5 14.0061 30.5L17.98 30.5C19.6325 30.5 20.9353 29.0931 20.8086 27.4455L20.4846 23.2344C20.4385 22.6343 20.1791 22.0704 19.7535 21.6447L16.8916 18.7829C16.3992 18.2905 15.6009 18.2905 15.1085 18.7829L12.2439 21.6475C11.8199 22.0715 11.5609 22.6327 11.5132 23.2304L11.1781 27.4378Z" fill="white"/>
<path fill-rule="evenodd" clip-rule="evenodd" d="M14.0061 28.5C13.5176 28.5 13.133 28.0835 13.1718 27.5966L13.5069 23.3892C13.5168 23.2655 13.5704 23.1494 13.6581 23.0617L12.4216 21.8252L13.6581 23.0617L16 20.7197L18.3392 23.0589L19.7535 21.6447L16.8916 18.7829C16.3992 18.2905 15.6009 18.2905 15.1085 18.7829L12.2439 21.6475C11.8199 22.0715 11.5609 22.6327 11.5132 23.2304L11.1781 27.4378C11.0466 29.0882 12.3505 30.5 14.0061 30.5L17.98 30.5C19.6325 30.5 20.9353 29.0931 20.8086 27.4455L20.4846 23.2344C20.4385 22.6343 20.1791 22.0704 19.7535 21.6447L18.3393 23.0589C18.4273 23.147 18.481 23.2637 18.4905 23.3878L18.8145 27.5989C18.8518 28.0849 18.4675 28.5 17.98 28.5L14.0061 28.5Z" fill="black"/>
<path d="M11.1781 4.56223C11.0466 2.91184 12.3505 1.5 14.0061 1.5L17.98 1.5C19.6325 1.5 20.9353 2.90685 20.8086 4.55454L20.4846 8.76555C20.4385 9.36575 20.1791 9.92963 19.7535 10.3553L16.8916 13.2171C16.3992 13.7095 15.6009 13.7095 15.1085 13.2171L12.2439 10.3525C11.8199 9.92854 11.5609 9.36735 11.5132 8.76963L11.1781 4.56223Z" fill="white"/>
<path fill-rule="evenodd" clip-rule="evenodd" d="M14.0061 3.5C13.5176 3.5 13.133 3.91652 13.1718 4.40341L13.5069 8.61082C13.5168 8.73448 13.5704 8.85059 13.6581 8.93831L12.4944 10.102L13.6581 8.93831L16 11.2803L18.3392 8.94107L19.7535 10.3553L16.8916 13.2171C16.3992 13.7095 15.6009 13.7095 15.1085 13.2171L12.2439 10.3525C11.8199 9.92854 11.5609 9.36735 11.5132 8.76963L11.1781 4.56223C11.0466 2.91184 12.3505 1.5 14.0061 1.5L17.98 1.5C19.6325 1.5 20.9353 2.90685 20.8086 4.55454L20.4846 8.76555C20.4385 9.36575 20.1791 9.92963 19.7535 10.3553L18.3393 8.94107C18.4273 8.853 18.481 8.73634 18.4905 8.61216L18.8145 4.40115C18.8518 3.91505 18.4675 3.5 17.98 3.5L14.0061 3.5Z" fill="black"/>
<path d="M4.56223 20.7996C2.91184 20.931 1.5 19.6272 1.5 17.9716L1.5 13.9977C1.5 12.3451 2.90685 11.0424 4.55454 11.1691L8.76555 11.493C9.36575 11.5392 9.92963 11.7985 10.3553 12.2242L13.2171 15.086C13.7095 15.5784 13.7095 16.3768 13.2171 16.8692L10.3525 19.7338C9.92854 20.1578 9.36735 20.4168 8.76963 20.4644L4.56223 20.7996Z" fill="white"/>
<path fill-rule="evenodd" clip-rule="evenodd" d="M3.5 17.9716C3.5 18.46 3.91652 18.8447 4.40341 18.8059L8.61082 18.4707C8.73449 18.4609 8.85059 18.4073 8.93831 18.3196L10.3525 19.7338C9.92854 20.1578 9.36735 20.4168 8.76963 20.4644L4.56223 20.7996C2.91184 20.931 1.5 19.6272 1.5 17.9716L1.5 13.9977C1.5 12.3451 2.90685 11.0424 4.55454 11.1691L8.76555 11.493C9.36575 11.5392 9.92963 11.7985 10.3553 12.2242L8.94107 13.6384C8.853 13.5503 8.73633 13.4967 8.61216 13.4871L4.40115 13.1632C3.91505 13.1258 3.5 13.5102 3.5 13.9977L3.5 17.9716ZM11.2803 15.9776L8.93831 18.3196L10.3525 19.7338L13.2171 16.8692C13.7095 16.3768 13.7095 15.5784 13.2171 15.086L10.3553 12.2242L8.94107 13.6384L11.2803 15.9776Z" fill="black"/>
<path d="M27.4378 11.178C29.0882 11.0465 30.5 12.3503 30.5 14.006L30.5 17.9798C30.5 19.6324 29.0931 20.9352 27.4455 20.8084L23.2344 20.4845C22.6343 20.4383 22.0704 20.179 21.6447 19.7533L18.7829 16.8915C18.2905 16.3991 18.2905 15.6008 18.7829 15.1084L21.6475 12.2438C22.0715 11.8198 22.6327 11.5607 23.2304 11.5131L27.4378 11.178Z" fill="#0E141B"/>
</svg>
