<svg width="32" height="32" viewBox="0 0 32 32" fill="none" xmlns="http://www.w3.org/2000/svg">
<path d="M4.56223 20.8219C2.91184 20.9534 1.5 19.6495 1.5 17.9939L1.5 14.02C1.5 12.3675 2.90685 11.0647 4.55454 11.1914L8.76555 11.5154C9.36575 11.5615 9.92963 11.8209 10.3553 12.2465L13.2171 15.1084C13.7095 15.6008 13.7095 16.3991 13.2171 16.8915L10.3525 19.7561C9.92854 20.1801 9.36735 20.4391 8.76963 20.4868L4.56223 20.8219Z" fill="#0E141B"/>
<path d="M27.4378 20.8219C29.0882 20.9534 30.5 19.6495 30.5 17.9939L30.5 14.02C30.5 12.3675 29.0931 11.0647 27.4455 11.1914L23.2344 11.5154C22.6343 11.5615 22.0704 11.8209 21.6447 12.2465L18.7829 15.1084C18.2905 15.6008 18.2905 16.3991 18.7829 16.8915L21.6475 19.7561C22.0715 20.1801 22.6327 20.4391 23.2304 20.4868L27.4378 20.8219Z" fill="#0E141B"/>
<path d="M11.2004 27.4378C11.069 29.0882 12.3728 30.5 14.0284 30.5L18.0023 30.5C19.6549 30.5 20.9576 29.0931 20.8309 27.4455L20.507 23.2344C20.4608 22.6343 20.2015 22.0704 19.7758 21.6447L16.914 18.7829C16.4216 18.2905 15.6232 18.2905 15.1308 18.7829L12.2662 21.6475C11.8422 22.0715 11.5832 22.6327 11.5356 23.2304L11.2004 27.4378Z" fill="#0E141B"/>
<path d="M20.822 4.56223C20.9535 2.91184 19.6497 1.5 17.994 1.5L14.0202 1.5C12.3676 1.5 11.0648 2.90685 11.1916 4.55454L11.5155 8.76555C11.5617 9.36575 11.821 9.92963 12.2467 10.3553L15.1085 13.2171C15.6009 13.7095 16.3992 13.7095 16.8916 13.2171L19.7562 10.3525C20.1802 9.92854 20.4393 9.36735 20.4869 8.76963L20.822 4.56223Z" fill="white"/>
<path fill-rule="evenodd" clip-rule="evenodd" d="M14.0201 2L17.994 2C19.3578 2 20.4319 3.16301 20.3236 4.52252L19.9884 8.72993C19.9503 9.20913 19.7426 9.65905 19.4027 9.99897L16.5381 12.8636C16.2409 13.1607 15.7592 13.1607 15.462 12.8636L12.6002 10.0017C12.2589 9.66047 12.051 9.20839 12.014 8.7272L11.6901 4.51619C11.5857 3.1589 12.6588 2 14.0201 2ZM17.994 1L14.0201 1C12.0763 1 10.5439 2.6548 10.693 4.59289L11.0169 8.8039C11.0722 9.5231 11.383 10.1988 11.8931 10.7088L14.7549 13.5707C15.4426 14.2583 16.5575 14.2583 17.2452 13.5707L20.1098 10.7061C20.6178 10.198 20.9282 9.52556 20.9853 8.80934L21.3204 4.60193C21.4751 2.66067 19.9414 1 17.994 1Z" fill="#0E141B"/>
</svg>
