<svg width="32" height="32" viewBox="0 0 32 32" fill="none" xmlns="http://www.w3.org/2000/svg">
<path d="M4.56223 20.8219C2.91184 20.9534 1.5 19.6495 1.5 17.9939L1.5 14.02C1.5 12.3675 2.90685 11.0647 4.55454 11.1914L8.76555 11.5154C9.36575 11.5615 9.92963 11.8209 10.3553 12.2465L13.2171 15.1084C13.7095 15.6008 13.7095 16.3991 13.2171 16.8915L10.3525 19.7561C9.92854 20.1801 9.36735 20.4391 8.76963 20.4868L4.56223 20.8219Z" fill="white"/>
<path fill-rule="evenodd" clip-rule="evenodd" d="M2 14.02L2 17.9939C2 19.3577 3.16301 20.4318 4.52252 20.3235L8.72993 19.9883C9.20913 19.9501 9.65905 19.7425 9.99898 19.4025L12.8636 16.5379C13.1607 16.2408 13.1607 15.759 12.8636 15.4619L10.0017 12.6001C9.66047 12.2588 9.2084 12.0509 8.72721 12.0139L4.51619 11.6899C3.1589 11.5855 2 12.6587 2 14.02ZM1 17.9939L1 14.02C1 12.0762 2.65481 10.5438 4.59289 10.6929L8.8039 11.0168C9.5231 11.0721 10.1988 11.3829 10.7088 11.893L13.5707 14.7548C14.2583 15.4425 14.2583 16.5574 13.5707 17.245L10.7061 20.1096C10.198 20.6177 9.52557 20.9281 8.80934 20.9852L4.60193 21.3203C2.66067 21.4749 1 19.9413 1 17.9939Z" fill="#0E141B"/>
<path d="M27.4378 20.8219C29.0882 20.9534 30.5 19.6495 30.5 17.9939L30.5 14.02C30.5 12.3675 29.0931 11.0647 27.4455 11.1914L23.2344 11.5154C22.6343 11.5615 22.0704 11.8209 21.6447 12.2465L18.7829 15.1084C18.2905 15.6008 18.2905 16.3991 18.7829 16.8915L21.6475 19.7561C22.0715 20.1801 22.6327 20.4391 23.2304 20.4868L27.4378 20.8219Z" fill="#0E141B"/>
<path d="M11.2005 27.4378C11.0691 29.0882 12.3729 30.5 14.0285 30.5L18.0024 30.5C19.655 30.5 20.9578 29.0931 20.831 27.4455L20.5071 23.2344C20.4609 22.6343 20.2016 22.0704 19.7759 21.6447L16.9141 18.7829C16.4217 18.2905 15.6233 18.2905 15.1309 18.7829L12.2663 21.6475C11.8423 22.0715 11.5833 22.6327 11.5357 23.2304L11.2005 27.4378Z" fill="#0E141B"/>
<path d="M20.8219 4.56223C20.9534 2.91184 19.6495 1.5 17.9939 1.5L14.02 1.5C12.3675 1.5 11.0647 2.90685 11.1914 4.55454L11.5154 8.76555C11.5615 9.36575 11.8209 9.92963 12.2465 10.3553L15.1084 13.2171C15.6008 13.7095 16.3991 13.7095 16.8915 13.2171L19.7561 10.3525C20.1801 9.92854 20.4391 9.36735 20.4868 8.76963L20.8219 4.56223Z" fill="#0E141B"/>
</svg>
