<svg width="32" height="32" viewBox="0 0 32 32" fill="none" xmlns="http://www.w3.org/2000/svg">
<path d="M20.8219 27.4378C20.9534 29.0882 19.6495 30.5 17.9939 30.5L14.02 30.5C12.3675 30.5 11.0647 29.0931 11.1914 27.4455L11.5154 23.2344C11.5615 22.6343 11.8209 22.0704 12.2465 21.6447L15.1084 18.7829C15.6008 18.2905 16.3991 18.2905 16.8915 18.7829L19.7561 21.6475C20.1801 22.0715 20.4391 22.6327 20.4868 23.2304L20.8219 27.4378Z" fill="white"/>
<path fill-rule="evenodd" clip-rule="evenodd" d="M17.9939 28.5C18.4824 28.5 18.867 28.0835 18.8282 27.5966L18.4931 23.3892C18.4832 23.2655 18.4296 23.1494 18.3419 23.0617L19.5784 21.8252L18.3419 23.0617L16 20.7197L13.6608 23.0589L12.2465 21.6447L15.1084 18.7829C15.6008 18.2905 16.3991 18.2905 16.8915 18.7829L19.7561 21.6475C20.1801 22.0715 20.4391 22.6327 20.4868 23.2304L20.8219 27.4378C20.9534 29.0882 19.6495 30.5 17.9939 30.5L14.02 30.5C12.3675 30.5 11.0647 29.0931 11.1914 27.4455L11.5154 23.2344C11.5615 22.6343 11.8209 22.0704 12.2465 21.6447L13.6607 23.0589C13.5727 23.147 13.519 23.2637 13.5095 23.3878L13.1855 27.5989C13.1482 28.0849 13.5325 28.5 14.02 28.5L17.9939 28.5Z" fill="black"/>
<path d="M20.8219 4.56223C20.9534 2.91184 19.6495 1.5 17.9939 1.5L14.02 1.5C12.3675 1.5 11.0647 2.90685 11.1914 4.55454L11.5154 8.76555C11.5615 9.36575 11.8209 9.92963 12.2465 10.3553L15.1084 13.2171C15.6008 13.7095 16.3991 13.7095 16.8915 13.2171L19.7561 10.3525C20.1801 9.92854 20.4391 9.36735 20.4868 8.76963L20.8219 4.56223Z" fill="white"/>
<path fill-rule="evenodd" clip-rule="evenodd" d="M17.9939 3.5C18.4824 3.5 18.867 3.91652 18.8282 4.40341L18.4931 8.61082C18.4832 8.73448 18.4296 8.85059 18.3419 8.93831L19.5056 10.102L18.3419 8.93831L16 11.2803L13.6608 8.94107L12.2465 10.3553L15.1084 13.2171C15.6008 13.7095 16.3991 13.7095 16.8915 13.2171L19.7561 10.3525C20.1801 9.92854 20.4391 9.36735 20.4868 8.76963L20.8219 4.56223C20.9534 2.91184 19.6495 1.5 17.9939 1.5L14.02 1.5C12.3675 1.5 11.0647 2.90685 11.1914 4.55454L11.5154 8.76555C11.5615 9.36575 11.8209 9.92963 12.2465 10.3553L13.6607 8.94107C13.5727 8.853 13.519 8.73634 13.5095 8.61216L13.1855 4.40115C13.1482 3.91505 13.5325 3.5 14.02 3.5L17.9939 3.5Z" fill="black"/>
<path d="M27.4378 20.7996C29.0882 20.931 30.5 19.6272 30.5 17.9716L30.5 13.9977C30.5 12.3451 29.0931 11.0424 27.4455 11.1691L23.2344 11.493C22.6343 11.5392 22.0704 11.7985 21.6447 12.2242L18.7829 15.086C18.2905 15.5784 18.2905 16.3768 18.7829 16.8692L21.6475 19.7338C22.0715 20.1578 22.6327 20.4168 23.2304 20.4644L27.4378 20.7996Z" fill="white"/>
<path fill-rule="evenodd" clip-rule="evenodd" d="M28.5 17.9716C28.5 18.46 28.0835 18.8447 27.5966 18.8059L23.3892 18.4707C23.2655 18.4609 23.1494 18.4073 23.0617 18.3196L21.6475 19.7338C22.0715 20.1578 22.6327 20.4168 23.2304 20.4644L27.4378 20.7996C29.0882 20.931 30.5 19.6272 30.5 17.9716V13.9977C30.5 12.3451 29.0931 11.0424 27.4455 11.1691L23.2344 11.493C22.6343 11.5392 22.0704 11.7985 21.6447 12.2242L23.0589 13.6384C23.147 13.5503 23.2637 13.4967 23.3878 13.4871L27.5989 13.1632C28.085 13.1258 28.5 13.5102 28.5 13.9977V17.9716ZM20.7197 15.9776L23.0617 18.3196L21.6475 19.7338L18.7829 16.8692C18.2905 16.3768 18.2905 15.5784 18.7829 15.086L21.6447 12.2242L23.0589 13.6384L20.7197 15.9776Z" fill="black"/>
<path d="M4.56223 11.178C2.91184 11.0465 1.5 12.3503 1.5 14.006L1.5 17.9798C1.5 19.6324 2.90685 20.9352 4.55454 20.8084L8.76555 20.4845C9.36575 20.4383 9.92963 20.179 10.3553 19.7533L13.2171 16.8915C13.7095 16.3991 13.7095 15.6008 13.2171 15.1084L10.3525 12.2438C9.92854 11.8198 9.36735 11.5607 8.76963 11.5131L4.56223 11.178Z" fill="#0E141B"/>
</svg>
