<svg width="64" height="64" viewBox="0 0 64 64" fill="none" xmlns="http://www.w3.org/2000/svg">
<path d="M9.12445 41.6438C5.82367 41.9068 3 39.2991 3 35.9878L3 28.0401C3 24.735 5.81371 22.1294 9.10908 22.3829L17.5311 23.0307C18.7315 23.1231 19.8593 23.6418 20.7106 24.4931L26.4343 30.2168C27.4191 31.2016 27.4191 32.7982 26.4343 33.783L20.7051 39.5123C19.8571 40.3602 18.7347 40.8783 17.5393 40.9735L9.12445 41.6438Z" fill="black"/>
<path d="M54.8755 41.6438C58.1763 41.9068 61 39.2991 61 35.9878L61 28.0401C61 24.735 58.1863 22.1294 54.8909 22.3829L46.4689 23.0307C45.2685 23.1231 44.1407 23.6418 43.2894 24.4931L37.5657 30.2168C36.5809 31.2016 36.5809 32.7982 37.5657 33.783L43.2949 39.5123C44.1429 40.3602 45.2653 40.8783 46.4607 40.9735L54.8755 41.6438Z" fill="black"/>
<path d="M22.401 54.8755C22.138 58.1763 24.7457 61 28.057 61L36.0047 61C39.3098 61 41.9154 58.1863 41.6619 54.8909L41.0141 46.4689C40.9217 45.2685 40.403 44.1407 39.5517 43.2894L33.828 37.5657C32.8432 36.5809 31.2466 36.5809 30.2618 37.5657L24.5326 43.2949C23.6846 44.1429 23.1665 45.2653 23.0713 46.4607L22.401 54.8755Z" fill="black"/>
<path d="M41.6441 9.12445C41.907 5.82367 39.2993 3 35.9881 3L28.0403 3C24.7352 3 22.1296 5.81371 22.3831 9.10908L23.031 17.5311C23.1233 18.7315 23.642 19.8593 24.4933 20.7106L30.217 26.4343C31.2018 27.4191 32.7985 27.4191 33.7833 26.4343L39.5125 20.7051C40.3605 19.8571 40.8785 18.7347 40.9738 17.5393L41.6441 9.12445Z" fill="black"/>
</svg>
