<svg width="32" height="32" viewBox="0 0 32 32" fill="none" xmlns="http://www.w3.org/2000/svg">
<path d="M4.56223 20.8219C2.91184 20.9534 1.5 19.6495 1.5 17.9939L1.5 14.02C1.5 12.3675 2.90685 11.0647 4.55454 11.1914L8.76555 11.5154C9.36575 11.5615 9.92963 11.8209 10.3553 12.2465L13.2171 15.1084C13.7095 15.6008 13.7095 16.3991 13.2171 16.8915L10.3525 19.7561C9.92854 20.1801 9.36735 20.4391 8.76963 20.4868L4.56223 20.8219Z" fill="#0E141B"/>
<path d="M27.4378 20.8219C29.0882 20.9534 30.5 19.6495 30.5 17.9939L30.5 14.02C30.5 12.3675 29.0931 11.0647 27.4455 11.1914L23.2344 11.5154C22.6343 11.5615 22.0704 11.8209 21.6447 12.2465L18.7829 15.1084C18.2905 15.6008 18.2905 16.3991 18.7829 16.8915L21.6475 19.7561C22.0715 20.1801 22.6327 20.4391 23.2304 20.4868L27.4378 20.8219Z" fill="#0E141B"/>
<path d="M11.2004 27.4378C11.069 29.0882 12.3728 30.5 14.0284 30.5L18.0023 30.5C19.6549 30.5 20.9576 29.0931 20.8309 27.4455L20.507 23.2344C20.4608 22.6343 20.2015 22.0704 19.7758 21.6447L16.914 18.7829C16.4216 18.2905 15.6232 18.2905 15.1308 18.7829L12.2662 21.6475C11.8422 22.0715 11.5832 22.6327 11.5356 23.2304L11.2004 27.4378Z" fill="white"/>
<path fill-rule="evenodd" clip-rule="evenodd" d="M18.0023 30L14.0285 30C12.6646 30 11.5906 28.837 11.6989 27.4775L12.034 23.2701C12.0722 22.7909 12.2799 22.3409 12.6198 22.001L15.4844 19.1364C15.7815 18.8393 16.2633 18.8393 16.5604 19.1364L19.4223 21.9983C19.7635 22.3395 19.9715 22.7916 20.0085 23.2728L20.3324 27.4838C20.4368 28.8411 19.3636 30 18.0023 30ZM14.0285 31L18.0023 31C19.9461 31 21.4785 29.3452 21.3295 27.4071L21.0055 23.1961C20.9502 22.4769 20.6394 21.8012 20.1294 21.2912L17.2675 18.4293C16.5799 17.7417 15.465 17.7417 14.7773 18.4293L11.9127 21.2939C11.4046 21.802 11.0942 22.4744 11.0372 23.1907L10.702 27.3981C10.5474 29.3393 12.081 31 14.0285 31Z" fill="#0E141B"/>
<path d="M20.822 4.56223C20.9535 2.91184 19.6497 1.5 17.994 1.5L14.0202 1.5C12.3676 1.5 11.0648 2.90685 11.1916 4.55454L11.5155 8.76555C11.5617 9.36575 11.821 9.92963 12.2467 10.3553L15.1085 13.2171C15.6009 13.7095 16.3992 13.7095 16.8916 13.2171L19.7562 10.3525C20.1802 9.92854 20.4393 9.36735 20.4869 8.76963L20.822 4.56223Z" fill="#0E141B"/>
</svg>
