<svg width="32" height="32" viewBox="0 0 32 32" fill="none" xmlns="http://www.w3.org/2000/svg">
<path d="M4.56223 11.1781C2.91184 11.0466 1.5 12.3505 1.5 14.0061L1.5 17.98C1.5 19.6325 2.90685 20.9353 4.55454 20.8086L8.76555 20.4846C9.36575 20.4385 9.92963 20.1791 10.3553 19.7535L13.2171 16.8916C13.7095 16.3992 13.7095 15.6009 13.2171 15.1085L10.3525 12.2439C9.92854 11.8199 9.36735 11.5609 8.76963 11.5132L4.56223 11.1781Z" fill="white"/>
<path fill-rule="evenodd" clip-rule="evenodd" d="M3.5 14.0061C3.5 13.5176 3.91652 13.133 4.40341 13.1718L8.61082 13.5069C8.73449 13.5168 8.85059 13.5704 8.93831 13.6581L10.1748 12.4216L8.93831 13.6581L11.2803 16L8.94107 18.3392L10.3553 19.7535L13.2171 16.8916C13.7095 16.3992 13.7095 15.6009 13.2171 15.1085L10.3525 12.2439C9.92854 11.8199 9.36735 11.5609 8.76963 11.5132L4.56223 11.1781C2.91184 11.0466 1.5 12.3505 1.5 14.0061L1.5 17.98C1.5 19.6325 2.90685 20.9353 4.55454 20.8086L8.76555 20.4846C9.36575 20.4385 9.92963 20.1791 10.3553 19.7535L8.94107 18.3393C8.853 18.4273 8.73634 18.481 8.61216 18.4905L4.40115 18.8145C3.91505 18.8518 3.5 18.4675 3.5 17.98L3.5 14.0061Z" fill="black"/>
<path d="M27.4378 11.1781C29.0882 11.0466 30.5 12.3505 30.5 14.0061L30.5 17.98C30.5 19.6325 29.0931 20.9353 27.4455 20.8086L23.2344 20.4846C22.6343 20.4385 22.0704 20.1791 21.6447 19.7535L18.7829 16.8916C18.2905 16.3992 18.2905 15.6009 18.7829 15.1085L21.6475 12.2439C22.0715 11.8199 22.6327 11.5609 23.2304 11.5132L27.4378 11.1781Z" fill="white"/>
<path fill-rule="evenodd" clip-rule="evenodd" d="M28.5 14.0061C28.5 13.5176 28.0835 13.133 27.5966 13.1718L23.3892 13.5069C23.2655 13.5168 23.1494 13.5704 23.0617 13.6581L21.898 12.4944L23.0617 13.6581L20.7197 16L23.0589 18.3392L21.6447 19.7535L18.7829 16.8916C18.2905 16.3992 18.2905 15.6009 18.7829 15.1085L21.6475 12.2439C22.0715 11.8199 22.6327 11.5609 23.2304 11.5132L27.4378 11.1781C29.0882 11.0466 30.5 12.3505 30.5 14.0061L30.5 17.98C30.5 19.6325 29.0931 20.9353 27.4455 20.8086L23.2344 20.4846C22.6343 20.4385 22.0704 20.1791 21.6447 19.7535L23.0589 18.3393C23.147 18.4273 23.2637 18.481 23.3878 18.4905L27.5989 18.8145C28.0849 18.8518 28.5 18.4675 28.5 17.98L28.5 14.0061Z" fill="black"/>
<path d="M11.2004 4.56223C11.069 2.91184 12.3728 1.5 14.0284 1.5L18.0023 1.5C19.6549 1.5 20.9576 2.90685 20.8309 4.55454L20.507 8.76555C20.4608 9.36575 20.2015 9.92963 19.7758 10.3553L16.914 13.2171C16.4216 13.7095 15.6232 13.7095 15.1308 13.2171L12.2662 10.3525C11.8422 9.92854 11.5832 9.36735 11.5356 8.76963L11.2004 4.56223Z" fill="white"/>
<path fill-rule="evenodd" clip-rule="evenodd" d="M14.0284 3.5C13.54 3.5 13.1553 3.91652 13.1941 4.40341L13.5293 8.61082C13.5391 8.73449 13.5927 8.85059 13.6804 8.93831L12.2662 10.3525C11.8422 9.92854 11.5832 9.36735 11.5356 8.76963L11.2004 4.56223C11.069 2.91184 12.3728 1.5 14.0284 1.5L18.0023 1.5C19.6549 1.5 20.9576 2.90685 20.8309 4.55454L20.507 8.76555C20.4608 9.36575 20.2015 9.92963 19.7758 10.3553L18.3616 8.94107C18.4497 8.853 18.5033 8.73633 18.5129 8.61216L18.8368 4.40115C18.8742 3.91505 18.4898 3.5 18.0023 3.5L14.0284 3.5ZM16.0224 11.2803L13.6804 8.93831L12.2662 10.3525L15.1308 13.2171C15.6232 13.7095 16.4216 13.7095 16.914 13.2171L19.7758 10.3553L18.3616 8.94107L16.0224 11.2803Z" fill="black"/>
<path d="M20.822 27.4378C20.9535 29.0882 19.6497 30.5 17.994 30.5L14.0202 30.5C12.3676 30.5 11.0648 29.0931 11.1916 27.4455L11.5155 23.2344C11.5617 22.6343 11.821 22.0704 12.2467 21.6447L15.1085 18.7829C15.6009 18.2905 16.3992 18.2905 16.8916 18.7829L19.7562 21.6475C20.1802 22.0715 20.4393 22.6327 20.4869 23.2304L20.822 27.4378Z" fill="#0E141B"/>
</svg>
