<svg width="32" height="32" viewBox="0 0 32 32" fill="none" xmlns="http://www.w3.org/2000/svg">
<path d="M11.5913 11.4718C20.6402 12.5364 28.5079 12.0632 29.1569 12.0041C33.7567 11.5851 31.0753 17.1342 30.2388 18.3915C29.0037 20.2481 29.0917 21.5478 28.4737 23.7162C28.3133 24.2791 27.9456 24.7236 27.8594 24.9826C26.835 26.7831 23.5821 28.2175 15.3173 27.9727C7.39694 28.2175 5.07158 26.5795 4.13949 24.7789C2.76128 22.1165 3.079 18.6213 1.25823 15.7654C0.456645 14.5082 -1.18348 10.0531 2.54251 10.4073C3.68916 10.5163 2.54251 10.4073 11.5913 11.4718Z" fill="#0E141B"/>
<path d="M12.1136 24.2265H9.97815V15.71H15.6562V17.5106H12.1136V19.5302H15.1994V21.3309H12.1136V24.2265Z" fill="white"/>
<path d="M16.5689 24.2265V17.8513H17.939L18.26 18.7759H18.3217C18.6179 18.3866 18.9388 18.1027 19.2845 17.9243C19.6301 17.7377 20.0333 17.6444 20.4941 17.6444C21.1936 17.6444 21.7449 17.8391 22.1481 18.2284C22.5514 18.6178 22.753 19.1612 22.753 19.8587V24.2265H20.7163V20.5279C20.7163 19.8871 20.4694 19.5667 19.9757 19.5667C19.4902 19.5667 19.0294 19.8547 18.5932 20.4306V24.2265H16.5689Z" fill="white"/>
<path opacity="0.5" d="M18.1478 9.32285H13.8895V4H15.393V8.13661H18.1478V9.32285Z" fill="black"/>
</svg>
