<svg width="32" height="32" viewBox="0 0 32 32" fill="none" xmlns="http://www.w3.org/2000/svg">
<path d="M31.9189 19.2614L24.1155 26.9866C18.796 32.3061 10.2075 32.3423 4.93263 27.0674C-0.342267 21.7925 -0.306096 13.204 5.01343 7.88446L12.7386 0.0811257L32 0L31.9189 19.2614Z" fill="#0E141B"/>
<path d="M12.6314 20.2934H10.3018L8.68804 17.5998H8.50604H7.49897V20.2934H5.3999V11.8H8.70017C9.9135 11.8 10.8114 12.0387 11.3938 12.5159C11.9762 12.9932 12.2674 13.6645 12.2674 14.53C12.2674 15.1852 12.1258 15.7353 11.8427 16.1802C11.5677 16.617 11.1794 16.9486 10.6779 17.1751L12.6314 20.2934ZM7.49897 13.5958V15.804H8.6395C9.06821 15.804 9.4039 15.707 9.64657 15.5128C9.89733 15.3106 10.0227 15.0194 10.0227 14.6392C10.0227 14.2914 9.90946 14.0326 9.68297 13.8627C9.45648 13.6848 9.09652 13.5958 8.6031 13.5958H7.49897Z" fill="white"/>
<path d="M21.7655 15.7555C22.3317 15.9416 22.7321 16.2085 22.9667 16.5563C23.2094 16.9041 23.3307 17.3248 23.3307 17.8182C23.3307 18.3197 23.2013 18.7565 22.9424 19.1286C22.6917 19.5007 22.3277 19.7878 21.8504 19.99C21.3813 20.1923 20.8312 20.2934 20.2003 20.2934H16.4996V11.8H19.8606C20.8879 11.8 21.6401 11.9901 22.1174 12.3703C22.6027 12.7424 22.8454 13.2722 22.8454 13.9598C22.8454 14.7768 22.4854 15.3753 21.7655 15.7555ZM18.6351 13.5351V15.258H19.7514C20.083 15.258 20.3338 15.1812 20.5036 15.0275C20.6816 14.8738 20.7706 14.6514 20.7706 14.3602C20.7706 13.8101 20.4187 13.5351 19.715 13.5351H18.6351ZM19.9819 18.5704C20.3459 18.5704 20.6169 18.4855 20.7948 18.3156C20.9809 18.1377 21.0739 17.9072 21.0739 17.624C21.0739 17.0416 20.7261 16.7504 20.0304 16.7504H18.6351V18.5704H19.9819Z" fill="white"/>
<path fill-rule="evenodd" clip-rule="evenodd" d="M24.024 9.95455H15.7089C15.1817 9.95455 14.7544 10.3819 14.7544 10.9091V21.0909C14.7544 21.6181 15.1817 22.0455 15.7089 22.0455H24.024C24.5512 22.0455 24.9786 21.6181 24.9786 21.0909V10.9091C24.9786 10.3819 24.5512 9.95455 24.024 9.95455ZM15.7089 9C14.6545 9 13.7998 9.85473 13.7998 10.9091V21.0909C13.7998 22.1453 14.6545 23 15.7089 23H24.024C25.0784 23 25.9331 22.1453 25.9331 21.0909V10.9091C25.9331 9.85473 25.0784 9 24.024 9H15.7089Z" fill="white"/>
</svg>
