<svg width="64" height="64" viewBox="0 0 64 64" fill="none" xmlns="http://www.w3.org/2000/svg">
<circle cx="32" cy="31.9442" r="29" fill="white"/>
<path d="M31.9522 2.94421C16.6894 2.94421 4.19121 14.762 3 29.7855L18.5686 36.2542C19.8872 35.3457 21.4797 34.821 23.1997 34.821C23.3526 34.821 23.5054 34.8274 23.6583 34.8338L30.5826 24.7435C30.5826 24.6987 30.5826 24.6475 30.5826 24.6028C30.5826 18.5371 35.5004 13.5975 41.5393 13.5975C47.5781 13.5975 52.4959 18.5371 52.4959 24.6028C52.4959 30.6684 47.5781 35.608 41.5393 35.608C41.4565 35.608 41.3736 35.608 41.2908 35.6016L31.4108 42.6846C31.4171 42.8126 31.4171 42.9469 31.4171 43.0749C31.4171 47.6306 27.7288 51.3352 23.1933 51.3352C19.212 51.3352 15.8868 48.4815 15.1287 44.7001L4.00011 40.0741C7.44635 52.3206 18.6514 61.3039 31.9522 61.3039C47.9986 61.3039 61 48.2384 61 32.1273C61 16.0097 47.9922 2.94421 31.9522 2.94421Z" fill="black"/>
<path d="M21.2059 47.2213L17.6387 45.7433C18.2693 47.0678 19.365 48.1747 20.8174 48.7826C23.9578 50.0942 27.5761 48.597 28.8883 45.4426C29.519 43.9134 29.5253 42.2306 28.8947 40.7014C28.2704 39.1722 27.0856 37.9757 25.5631 37.3422C24.0534 36.7088 22.4354 36.7344 21.0148 37.2719L24.7031 38.8011C27.0219 39.7736 28.1175 42.4418 27.1493 44.7708C26.181 47.087 23.5247 48.1875 21.2059 47.2213Z" fill="black"/>
<path d="M48.8391 24.6031C48.8391 20.5593 45.5649 17.2705 41.5389 17.2705C37.513 17.2705 34.2388 20.5593 34.2388 24.6031C34.2388 28.6468 37.513 31.9356 41.5389 31.9356C45.5649 31.9356 48.8391 28.6468 48.8391 24.6031ZM36.067 24.5903C36.067 21.551 38.5259 19.0813 41.5517 19.0813C44.5839 19.0813 47.0364 21.5446 47.0364 24.5903C47.0364 27.6359 44.5839 30.0993 41.5517 30.0993C38.5195 30.0993 36.067 27.6359 36.067 24.5903Z" fill="black"/>
</svg>
