<svg width="32" height="32" viewBox="0 0 32 32" fill="none" xmlns="http://www.w3.org/2000/svg">
<path d="M30.5 15.972C30.5 23.9802 24.0081 30.472 16 30.472C7.99187 30.472 1.5 23.9802 1.5 15.972C1.5 7.96392 7.99187 1.47205 16 1.47205C24.0081 1.47205 30.5 7.96392 30.5 15.972Z" fill="white"/>
<path d="M15.9761 1.47205C8.3447 1.47205 2.09561 7.38096 1.5 14.8927L9.28429 18.1271C9.9436 17.6728 10.7399 17.4104 11.5998 17.4104C11.6763 17.4104 11.7527 17.4136 11.8292 17.4168L15.2913 12.3717C15.2913 12.3493 15.2913 12.3237 15.2913 12.3013C15.2913 9.26848 17.7502 6.7987 20.7696 6.7987C23.7891 6.7987 26.2479 9.26848 26.2479 12.3013C26.2479 15.3342 23.7891 17.8039 20.7696 17.8039C20.7282 17.8039 20.6868 17.8039 20.6454 17.8007L15.7054 21.3422C15.7086 21.4062 15.7086 21.4734 15.7086 21.5374C15.7086 23.8152 13.8644 25.6676 11.5967 25.6676C9.60599 25.6676 7.94338 24.2407 7.56436 22.35L2.00005 20.037C3.72317 26.1602 9.3257 30.6519 15.9761 30.6519C23.9993 30.6519 30.5 24.1191 30.5 16.0636C30.5 8.0048 23.9961 1.47205 15.9761 1.47205Z" fill="#0E141B"/>
<path d="M10.603 23.6106L8.81934 22.8716C9.13466 23.5338 9.68249 24.0873 10.4087 24.3912C11.9789 25.0471 13.788 24.2984 14.4442 22.7212C14.7595 21.9566 14.7627 21.1152 14.4473 20.3506C14.1352 19.586 13.5428 18.9878 12.7816 18.6711C12.0267 18.3543 11.2177 18.3671 10.5074 18.6359L12.3516 19.4005C13.5109 19.8868 14.0588 21.2208 13.5746 22.3853C13.0905 23.5434 11.7623 24.0937 10.603 23.6106Z" fill="#0E141B"/>
<path d="M24.4196 12.3015C24.4196 10.2796 22.7824 8.63525 20.7695 8.63525C18.7565 8.63525 17.1194 10.2796 17.1194 12.3015C17.1194 14.3234 18.7565 15.9678 20.7695 15.9678C22.7824 15.9678 24.4196 14.3234 24.4196 12.3015ZM18.0335 12.2951C18.0335 10.7755 19.2629 9.54063 20.7758 9.54063C22.2919 9.54063 23.5182 10.7723 23.5182 12.2951C23.5182 13.8179 22.2919 15.0496 20.7758 15.0496C19.2597 15.0496 18.0335 13.8179 18.0335 12.2951Z" fill="#0E141B"/>
</svg>
