<svg width="64" height="64" viewBox="0 0 64 64" fill="none" xmlns="http://www.w3.org/2000/svg">
<path fill-rule="evenodd" clip-rule="evenodd" d="M24.1739 48.9565C24.1739 53.2788 27.6778 56.7826 32 56.7826C36.3222 56.7826 39.8261 53.2788 39.8261 48.9565V39.8261L48.9565 39.8261C53.2788 39.8261 56.7826 36.3222 56.7826 32C56.7826 27.6778 53.2787 24.1739 48.9565 24.1739L39.8261 24.1739V15.0435C39.8261 10.7213 36.3222 7.21741 32 7.21741C27.6778 7.21741 24.1739 10.7213 24.1739 15.0435L24.1739 24.1739L15.0435 24.1739C10.7213 24.1739 7.21739 27.6778 7.21739 32C7.21739 36.3222 10.7213 39.8261 15.0435 39.8261L24.1739 39.8261L24.1739 48.9565Z" fill="black"/>
<path fill-rule="evenodd" clip-rule="evenodd" d="M62 32C62 15.4315 48.5685 1.99999 32 1.99999C15.4315 2 2 15.4315 2 32C2 48.5685 15.4315 62 32 62C48.5685 62 62 48.5685 62 32ZM7.21739 32C7.21739 27.6778 10.7212 24.1739 15.0435 24.1739L24.1739 24.1739L24.1739 15.0435C24.1739 10.7212 27.6778 7.21739 32 7.21739C36.3222 7.21739 39.8261 10.7212 39.8261 15.0435L39.8261 24.1739L48.9565 24.1739C53.2787 24.1739 56.7826 27.6778 56.7826 32C56.7826 36.3222 53.2788 39.8261 48.9565 39.8261L39.8261 39.8261L39.8261 48.9565C39.8261 53.2787 36.3222 56.7826 32 56.7826C27.6778 56.7826 24.1739 53.2787 24.1739 48.9565L24.1739 39.8261L15.0435 39.8261C10.7213 39.8261 7.21739 36.3222 7.21739 32Z" fill="black"/>
<path d="M56.7826 32L55.4783 32L56.7826 32ZM39.8261 24.1739L38.5217 24.1739L38.5217 25.4783L39.8261 25.4783L39.8261 24.1739ZM39.8261 15.0435L41.1304 15.0435L39.8261 15.0435ZM32 7.21741L32 8.52175L32 7.21741ZM24.1739 15.0435L25.4783 15.0435L24.1739 15.0435ZM24.1739 24.1739L24.1739 25.4783L25.4783 25.4783L25.4783 24.1739L24.1739 24.1739ZM15.0435 24.1739L15.0435 25.4783L15.0435 24.1739ZM15.0435 39.8261L15.0435 41.1304L15.0435 39.8261ZM24.1739 39.8261L25.4783 39.8261L25.4783 38.5218L24.1739 38.5217L24.1739 39.8261ZM24.1739 48.9565L22.8696 48.9565L24.1739 48.9565ZM39.8261 48.9565L38.5217 48.9565L39.8261 48.9565ZM39.8261 39.8261L39.8261 38.5218L38.5217 38.5218L38.5217 39.8261L39.8261 39.8261ZM55.4783 32C55.4783 35.6019 52.5584 38.5218 48.9565 38.5218L48.9565 41.1304C53.9991 41.1304 58.087 37.0426 58.087 32L55.4783 32ZM48.9565 25.4783C52.5584 25.4783 55.4783 28.3982 55.4783 32L58.087 32C58.087 26.9574 53.9991 22.8696 48.9565 22.8696L48.9565 25.4783ZM39.8261 25.4783L48.9565 25.4783L48.9565 22.8696L39.8261 22.8696L39.8261 25.4783ZM38.5217 15.0435L38.5217 24.1739L41.1304 24.1739L41.1304 15.0435L38.5217 15.0435ZM32 8.52175C35.6019 8.52175 38.5217 11.4416 38.5217 15.0435L41.1304 15.0435C41.1304 10.0009 37.0426 5.91306 32 5.91306L32 8.52175ZM25.4783 15.0435C25.4783 11.4416 28.3981 8.52175 32 8.52175L32 5.91306C26.9574 5.91306 22.8696 10.0009 22.8696 15.0435L25.4783 15.0435ZM25.4783 24.1739L25.4783 15.0435L22.8696 15.0435L22.8696 24.1739L25.4783 24.1739ZM15.0435 25.4783L24.1739 25.4783L24.1739 22.8696L15.0435 22.8696L15.0435 25.4783ZM8.52174 32C8.52174 28.3982 11.4416 25.4783 15.0435 25.4783L15.0435 22.8696C10.0009 22.8696 5.91304 26.9574 5.91304 32L8.52174 32ZM15.0435 38.5217C11.4416 38.5217 8.52174 35.6019 8.52174 32L5.91304 32C5.91304 37.0426 10.0009 41.1304 15.0435 41.1304L15.0435 38.5217ZM24.1739 38.5217L15.0435 38.5217L15.0435 41.1304L24.1739 41.1304L24.1739 38.5217ZM25.4783 48.9565L25.4783 39.8261L22.8696 39.8261L22.8696 48.9565L25.4783 48.9565ZM32 55.4783C28.3981 55.4783 25.4783 52.5584 25.4783 48.9565L22.8696 48.9565C22.8696 53.9991 26.9574 58.087 32 58.087L32 55.4783ZM38.5217 48.9565C38.5217 52.5584 35.6019 55.4783 32 55.4783L32 58.087C37.0426 58.087 41.1304 53.9991 41.1304 48.9565L38.5217 48.9565ZM38.5217 39.8261L38.5217 48.9565L41.1304 48.9565L41.1304 39.8261L38.5217 39.8261ZM48.9565 38.5218L39.8261 38.5218L39.8261 41.1304L48.9565 41.1304L48.9565 38.5218Z" fill="#67707B"/>
<path d="M52.8696 32L47.6522 37.2174L47.6522 26.7826L52.8696 32Z" fill="white"/>
</svg>
