<svg width="32" height="32" viewBox="0 0 32 32" fill="none" xmlns="http://www.w3.org/2000/svg">
<path fill-rule="evenodd" clip-rule="evenodd" d="M12.087 24.4782C12.087 26.6393 13.8389 28.3913 16 28.3913C18.1611 28.3913 19.913 26.6393 19.913 24.4782V19.913L24.4783 19.913C26.6394 19.913 28.3913 18.1611 28.3913 15.9999C28.3913 13.8388 26.6394 12.0869 24.4783 12.0869L19.913 12.0869V7.52168C19.913 5.36057 18.1611 3.60864 16 3.60864C13.8389 3.60864 12.087 5.36057 12.087 7.52169L12.087 12.0869L7.52173 12.0869C5.36062 12.0869 3.60869 13.8388 3.60869 15.9999C3.60869 18.1611 5.36062 19.913 7.52173 19.913L12.087 19.913L12.087 24.4782Z" fill="#0E141B"/>
<path fill-rule="evenodd" clip-rule="evenodd" d="M16 0.999999C24.2843 0.999999 31 7.71573 31 16C31 24.2843 24.2843 31 16 31C7.71573 31 1 24.2843 0.999999 16C0.999999 7.71573 7.71573 1 16 0.999999ZM7.52174 12.087C5.36062 12.087 3.60869 13.8389 3.6087 16C3.6087 18.1611 5.36063 19.913 7.52174 19.913L12.087 19.913L12.087 24.4783C12.087 26.6394 13.8389 28.3913 16 28.3913C18.1611 28.3913 19.913 26.6394 19.913 24.4783L19.913 19.913L24.4783 19.913C26.6394 19.913 28.3913 18.1611 28.3913 16C28.3913 13.8389 26.6394 12.087 24.4783 12.087L19.913 12.087L19.913 7.52174C19.913 5.36062 18.1611 3.6087 16 3.6087C13.8389 3.6087 12.087 5.36063 12.087 7.52174L12.087 12.087L7.52174 12.087ZM8.17391 13.3913L5.56522 16L8.17391 18.6087L8.17391 13.3913Z" fill="#0E141B"/>
<path fill-rule="evenodd" clip-rule="evenodd" d="M4.26088 16C4.26088 17.8009 5.72082 19.2608 7.52175 19.2608L12.7391 19.2608L12.7391 24.4782C12.7391 26.2792 14.1991 27.7391 16 27.7391C17.8009 27.7391 19.2609 26.2792 19.2609 24.4782L19.2609 19.2608L24.4783 19.2608C26.2792 19.2608 27.7391 17.8009 27.7391 16C27.7391 14.1991 26.2792 12.7391 24.4783 12.7391L19.2609 12.7391L19.2609 7.52172C19.2609 5.72079 17.8009 4.26085 16 4.26085C14.1991 4.26085 12.7391 5.72079 12.7391 7.52172L12.7391 12.7391L7.52174 12.7391C5.72082 12.7391 4.26087 14.199 4.26088 16ZM7.52175 20.5652C5.00045 20.5652 2.95653 18.5213 2.95653 16C2.95653 13.4787 5.00044 11.4348 7.52174 11.4348L11.4348 11.4348L11.4348 7.52172C11.4348 5.00042 13.4787 2.9565 16 2.9565C18.5213 2.9565 20.5652 5.00042 20.5652 7.52172L20.5652 11.4348L24.4783 11.4348C26.9996 11.4348 29.0435 13.4787 29.0435 16C29.0435 18.5213 26.9996 20.5652 24.4783 20.5652L20.5652 20.5652L20.5652 24.4782C20.5652 26.9995 18.5213 29.0435 16 29.0435C13.4787 29.0435 11.4348 26.9995 11.4348 24.4782L11.4348 20.5652L7.52175 20.5652Z" fill="#67707B"/>
<path d="M5.56522 16.0001L8.17392 13.3914L8.17392 18.6087L5.56522 16.0001Z" fill="white"/>
</svg>
