<svg width="32" height="32" viewBox="0 0 32 32" fill="none" xmlns="http://www.w3.org/2000/svg">
<path fill-rule="evenodd" clip-rule="evenodd" d="M12.087 24.4782C12.087 26.6393 13.8389 28.3913 16 28.3913C18.1611 28.3913 19.913 26.6393 19.913 24.4782V19.913L24.4783 19.913C26.6394 19.913 28.3913 18.1611 28.3913 15.9999C28.3913 13.8388 26.6394 12.0869 24.4783 12.0869L19.913 12.0869V7.52168C19.913 5.36057 18.1611 3.60864 16 3.60864C13.8389 3.60864 12.087 5.36057 12.087 7.52169L12.087 12.0869L7.52174 12.0869C5.36063 12.0869 3.6087 13.8388 3.6087 15.9999C3.6087 18.1611 5.36063 19.913 7.52174 19.913L12.087 19.913L12.087 24.4782Z" fill="#0E141B"/>
<path fill-rule="evenodd" clip-rule="evenodd" d="M31 16C31 7.71573 24.2843 0.999999 16 0.999999C7.71573 1 0.999999 7.71573 0.999999 16C1 24.2843 7.71573 31 16 31C24.2843 31 31 24.2843 31 16ZM3.60869 16C3.60869 13.8389 5.36062 12.087 7.52174 12.087L12.087 12.087L12.087 7.52174C12.087 5.36063 13.8389 3.6087 16 3.6087C18.1611 3.6087 19.913 5.36062 19.913 7.52174L19.913 12.087L24.4783 12.087C26.6394 12.087 28.3913 13.8389 28.3913 16C28.3913 18.1611 26.6394 19.913 24.4783 19.913L19.913 19.913L19.913 24.4783C19.913 26.6394 18.1611 28.3913 16 28.3913C13.8389 28.3913 12.087 26.6394 12.087 24.4783L12.087 19.913L7.52174 19.913C5.36063 19.913 3.60869 18.1611 3.60869 16Z" fill="#0E141B"/>
<path fill-rule="evenodd" clip-rule="evenodd" d="M27.7391 16C27.7391 14.1991 26.2792 12.7392 24.4783 12.7392L19.2609 12.7392L19.2609 7.52176C19.2609 5.72083 17.8009 4.26089 16 4.26089C14.1991 4.26089 12.7391 5.72083 12.7391 7.52176L12.7391 12.7392L7.52174 12.7392C5.72081 12.7391 4.26087 14.1991 4.26087 16C4.26087 17.8009 5.72081 19.2609 7.52174 19.2609L12.7391 19.2609L12.7391 24.4783C12.7391 26.2792 14.1991 27.7392 16 27.7392C17.8009 27.7392 19.2609 26.2792 19.2609 24.4783L19.2609 19.2609L24.4783 19.2609C26.2792 19.2609 27.7391 17.8009 27.7391 16ZM24.4783 11.4348C26.9996 11.4348 29.0435 13.4787 29.0435 16C29.0435 18.5213 26.9996 20.5652 24.4783 20.5652L20.5652 20.5652L20.5652 24.4783C20.5652 26.9996 18.5213 29.0435 16 29.0435C13.4787 29.0435 11.4348 26.9996 11.4348 24.4783L11.4348 20.5652L7.52174 20.5652C5.00044 20.5652 2.95652 18.5213 2.95652 16C2.95652 13.4787 5.00044 11.4348 7.52174 11.4348L11.4348 11.4348L11.4348 7.52176C11.4348 5.00046 13.4787 2.95654 16 2.95654C18.5213 2.95654 20.5652 5.00046 20.5652 7.52176L20.5652 11.4348L24.4783 11.4348Z" fill="#67707B"/>
<path d="M26.4348 15.9999L23.8261 18.6086L23.8261 13.3913L26.4348 15.9999Z" fill="white"/>
</svg>
