<svg width="64" height="64" viewBox="0 0 64 64" fill="none" xmlns="http://www.w3.org/2000/svg">
<g clip-path="url(#clip0_1967:17940)">
<path d="M4.57789e-06 32C6.12292e-06 14.3269 14.3269 6.84756e-06 32 8.39259e-06C49.6731 9.93762e-06 64 14.3269 64 32C64 49.6731 49.6731 64 32 64C14.3269 64 3.03286e-06 49.6731 4.57789e-06 32Z" fill="black"/>
<path d="M23.6522 50.0869H25.0435H23.6522ZM40.3478 50.0869H38.9565H40.3478ZM40.3478 40.3478V38.9565L38.9565 38.9565V40.3478H40.3478ZM50.087 40.3478V41.7391V40.3478ZM58.4348 32L59.8261 32V32H58.4348ZM50.087 23.6521V22.2608V23.6521ZM40.3478 23.6521H38.9565V25.0435H40.3478V23.6521ZM40.3478 13.913H41.7391H40.3478ZM23.6522 13.913H25.0435H23.6522ZM23.6522 23.6521V25.0435H25.0435V23.6521L23.6522 23.6521ZM13.913 23.6521L13.913 25.0434H13.913V23.6521ZM5.56522 32L6.95652 32V32H5.56522ZM13.913 40.3478L13.913 38.9565H13.913V40.3478ZM23.6522 40.3478H25.0435V38.9565H23.6522V40.3478ZM32 57.0434C28.158 57.0434 25.0435 53.9289 25.0435 50.0869H22.2609C22.2609 55.4657 26.6212 59.8261 32 59.8261V57.0434ZM38.9565 50.0869C38.9565 53.9289 35.842 57.0434 32 57.0434V59.8261C37.3788 59.8261 41.7391 55.4657 41.7391 50.0869H38.9565ZM38.9565 40.3478L38.9565 50.0869H41.7391L41.7391 40.3478H38.9565ZM50.087 38.9565L40.3478 38.9565V41.7391L50.087 41.7391V38.9565ZM57.0435 32C57.0435 35.842 53.9289 38.9565 50.087 38.9565V41.7391C55.4657 41.7391 59.8261 37.3787 59.8261 32L57.0435 32ZM50.087 25.0435C53.9289 25.0435 57.0435 28.158 57.0435 32H59.8261C59.8261 26.6212 55.4657 22.2608 50.087 22.2608V25.0435ZM40.3478 25.0435L50.087 25.0435V22.2608L40.3478 22.2608V25.0435ZM38.9565 13.913L38.9565 23.6521L41.7391 23.6521L41.7391 13.913L38.9565 13.913ZM32 6.95649C35.842 6.95649 38.9565 10.071 38.9565 13.913H41.7391C41.7391 8.53424 37.3788 4.17388 32 4.17388V6.95649ZM25.0435 13.913C25.0435 10.071 28.158 6.95649 32 6.95649V4.17388C26.6212 4.17388 22.2609 8.53422 22.2609 13.913H25.0435ZM25.0435 23.6521L25.0435 13.913H22.2609L22.2609 23.6521L25.0435 23.6521ZM13.913 25.0434L23.6522 25.0435V22.2608L13.913 22.2608V25.0434ZM6.95652 32C6.95652 28.158 10.0711 25.0434 13.913 25.0434L13.913 22.2608C8.53427 22.2608 4.17391 26.6212 4.17391 32H6.95652ZM13.913 38.9565C10.071 38.9565 6.95652 35.8419 6.95652 32L4.17391 32C4.17391 37.3787 8.53425 41.7391 13.913 41.7391V38.9565ZM23.6522 38.9565L13.913 38.9565L13.913 41.7391L23.6522 41.7391V38.9565ZM25.0435 50.0869L25.0435 40.3478H22.2609L22.2609 50.0869H25.0435Z" fill="#67707B"/>
<path d="M13.913 36.1739L9.73913 32.0065L13.913 27.826L15.0701 28.9831L12.0533 32.0065L15.0701 35.0234L13.913 36.1739Z" fill="white"/>
<path d="M19.646 35.0168L16.6292 32.0065L19.646 28.9896L18.489 27.826L14.3151 32.0065L18.489 36.1739L19.646 35.0168Z" fill="white"/>
<path d="M50.2548 27.8261L54.4287 31.9935L50.2548 36.1739L49.0977 35.0169L52.1145 31.9935L49.0977 28.9766L50.2548 27.8261Z" fill="white"/>
<path d="M44.5218 28.9832L47.5386 31.9935L44.5218 35.0104L45.6788 36.1739L49.8527 31.9935L45.6788 27.8261L44.5218 28.9832Z" fill="white"/>
</g>
<defs>
<clipPath id="clip0_1967:17940">
<rect width="64" height="64" fill="white"/>
</clipPath>
</defs>
</svg>
