<svg width="64" height="64" viewBox="0 0 64 64" fill="none" xmlns="http://www.w3.org/2000/svg">
<path fill-rule="evenodd" clip-rule="evenodd" d="M32 62C48.5685 62 62 48.5685 62 32C62 15.4315 48.5685 2 32 2C15.4315 2 2 15.4315 2 32C2 48.5685 15.4315 62 32 62Z" fill="black"/>
<path d="M32 7.21741V8.52176V7.21741ZM24.1739 24.1739L24.1739 25.4783L25.4782 25.4783V24.1739H24.1739ZM15.0435 24.1739V22.8696V24.1739ZM7.21738 32L5.91303 32L7.21738 32ZM24.1739 39.8261H25.4782V38.5218H24.1739V39.8261ZM24.1739 48.9565H25.4782H24.1739ZM39.8261 48.9565L41.1304 48.9565V48.9565H39.8261ZM39.8261 39.8261V38.5218H38.5217V39.8261H39.8261ZM48.9565 24.1739V25.4783V24.1739ZM39.8261 24.1739H38.5217V25.4783H39.8261V24.1739ZM32 8.52176C35.6018 8.52176 38.5217 11.4416 38.5217 15.0435H41.1304C41.1304 10.0009 37.0426 5.91306 32 5.91306V8.52176ZM25.4782 15.0435C25.4782 11.4416 28.3981 8.52175 32 8.52176V5.91306C26.9574 5.91306 22.8696 10.0009 22.8696 15.0435H25.4782ZM25.4782 24.1739V15.0435H22.8696V24.1739H25.4782ZM15.0435 25.4783L24.1739 25.4783L24.1739 22.8696L15.0435 22.8696L15.0435 25.4783ZM8.52172 32C8.52172 28.3982 11.4416 25.4783 15.0435 25.4783V22.8696C10.0009 22.8696 5.91303 26.9574 5.91303 32L8.52172 32ZM15.0435 38.5218C11.4416 38.5218 8.52172 35.6019 8.52172 32L5.91303 32C5.91303 37.0426 10.0009 41.1304 15.0435 41.1304V38.5218ZM24.1739 38.5218H15.0435V41.1304H24.1739V38.5218ZM25.4782 48.9565V39.8261H22.8696V48.9565H25.4782ZM32 55.4783C28.3981 55.4783 25.4782 52.5584 25.4782 48.9565H22.8696C22.8695 53.9991 26.9574 58.087 32 58.087V55.4783ZM38.5217 48.9565C38.5217 52.5584 35.6018 55.4783 32 55.4783V58.087C37.0426 58.087 41.1304 53.9991 41.1304 48.9565L38.5217 48.9565ZM38.5217 39.8261V48.9565H41.1304V39.8261H38.5217ZM48.9565 38.5218H39.8261V41.1305H48.9565V38.5218ZM55.4782 32C55.4782 35.6019 52.5584 38.5218 48.9565 38.5218V41.1305C53.9991 41.1305 58.0869 37.0426 58.0869 32H55.4782ZM48.9565 25.4783C52.5584 25.4783 55.4782 28.3982 55.4782 32H58.0869C58.0869 26.9574 53.9991 22.8696 48.9565 22.8696V25.4783ZM39.8261 25.4783L48.9565 25.4783V22.8696L39.8261 22.8696V25.4783ZM38.5217 15.0435V24.1739H41.1304V15.0435H38.5217Z" fill="#67707B"/>
<path d="M32 11.1304L37.2174 16.3478L26.7826 16.3478L32 11.1304Z" fill="white"/>
</svg>
