<svg width="32" height="32" viewBox="0 0 32 32" fill="none" xmlns="http://www.w3.org/2000/svg">
<path d="M0.999997 16C0.999998 7.71573 7.71573 0.999998 16 0.999999C24.2843 0.999999 31 7.71573 31 16C31 24.2843 24.2843 31 16 31C7.71573 31 0.999997 24.2843 0.999997 16Z" fill="#0E141B"/>
<path fill-rule="evenodd" clip-rule="evenodd" d="M16 4.26089C14.199 4.26089 12.7391 5.72083 12.7391 7.52176L12.7391 12.7392L7.5217 12.7392C5.72077 12.7392 4.26083 14.1991 4.26083 16C4.26083 17.801 5.72077 19.2609 7.5217 19.2609H12.7391L12.7391 24.4783C12.7391 26.2792 14.199 27.7392 16 27.7392C17.8009 27.7392 19.2608 26.2792 19.2608 24.4783V19.2609H24.4782C26.2791 19.2609 27.7391 17.801 27.7391 16C27.7391 14.1991 26.2791 12.7392 24.4782 12.7392L19.2608 12.7392V7.52176C19.2608 5.72083 17.8009 4.26089 16 4.26089ZM11.4347 7.52176C11.4347 5.00046 13.4787 2.95654 16 2.95654C18.5213 2.95654 20.5652 5.00046 20.5652 7.52176V11.4348L24.4782 11.4348C26.9995 11.4348 29.0434 13.4787 29.0434 16C29.0434 18.5213 26.9995 20.5652 24.4782 20.5652H20.5652V24.4783C20.5652 26.9996 18.5213 29.0435 16 29.0435C13.4787 29.0435 11.4347 26.9996 11.4347 24.4783L11.4347 20.5652H7.5217C5.0004 20.5652 2.95648 18.5213 2.95648 16C2.95648 13.4787 5.0004 11.4348 7.5217 11.4348L11.4347 11.4348L11.4347 7.52176Z" fill="#67707B"/>
</svg>
