<svg width="32" height="32" viewBox="0 0 32 32" fill="none" xmlns="http://www.w3.org/2000/svg">
<path fill-rule="evenodd" clip-rule="evenodd" d="M19.2609 19.2608L24.4783 19.2608C26.2792 19.2608 27.7391 17.8009 27.7391 15.9999C27.7391 14.199 26.2792 12.7391 24.4783 12.7391L19.2609 12.7391V7.52168C19.2609 5.72076 17.8009 4.26082 16 4.26082C14.1991 4.26082 12.7391 5.72076 12.7391 7.52169L12.7391 12.7391L7.52175 12.7391C5.72082 12.7391 4.26088 14.199 4.26088 15.9999C4.26088 17.8009 5.72082 19.2608 7.52175 19.2608L12.7391 19.2608L12.7391 24.4782C12.7391 26.2791 14.1991 27.7391 16 27.7391C17.8009 27.7391 19.2609 26.2791 19.2609 24.4782V19.2608ZM19.9131 7.52168C19.9131 5.36057 18.1611 3.60864 16 3.60864C13.8389 3.60864 12.087 5.36057 12.087 7.52169L12.087 12.0869L7.52175 12.0869C5.36063 12.0869 3.6087 13.8388 3.6087 15.9999C3.6087 18.1611 5.36063 19.913 7.52175 19.913L12.087 19.913L12.087 24.4782C12.087 26.6393 13.8389 28.3913 16 28.3913C18.1611 28.3913 19.9131 26.6393 19.9131 24.4782V19.913L24.4783 19.913C26.6394 19.913 28.3913 18.1611 28.3913 15.9999C28.3913 13.8388 26.6394 12.0869 24.4783 12.0869L19.9131 12.0869V7.52168Z" fill="#0E141B"/>
<path fill-rule="evenodd" clip-rule="evenodd" d="M16 0.999999C7.71573 0.999998 0.999998 7.71573 0.999997 16C0.999997 24.2843 7.71573 31 16 31C24.2843 31 31 24.2843 31 16C31 7.71573 24.2843 0.999999 16 0.999999Z" fill="#0E141B"/>
<path fill-rule="evenodd" clip-rule="evenodd" d="M16 27.7391C17.8009 27.7391 19.2609 26.2792 19.2609 24.4782L19.2609 19.2608L24.4783 19.2608C26.2792 19.2608 27.7391 17.8009 27.7391 16C27.7391 14.1991 26.2792 12.7391 24.4783 12.7391L19.2609 12.7391L19.2609 7.52172C19.2609 5.72079 17.8009 4.26085 16 4.26085C14.1991 4.26085 12.7391 5.72079 12.7391 7.52172L12.7391 12.7391L7.52173 12.7391C5.72081 12.7391 4.26087 14.199 4.26087 16C4.26087 17.8009 5.72081 19.2608 7.52174 19.2608L12.7391 19.2608L12.7391 24.4782C12.7391 26.2792 14.1991 27.7391 16 27.7391ZM20.5652 24.4782C20.5652 26.9995 18.5213 29.0435 16 29.0435C13.4787 29.0435 11.4348 26.9995 11.4348 24.4782L11.4348 20.5652L7.52173 20.5652C5.00044 20.5652 2.95652 18.5213 2.95652 16C2.95652 13.4787 5.00043 11.4348 7.52173 11.4348L11.4348 11.4348L11.4348 7.52172C11.4348 5.00042 13.4787 2.9565 16 2.9565C18.5213 2.9565 20.5652 5.00042 20.5652 7.52172L20.5652 11.4348L24.4783 11.4348C26.9996 11.4348 29.0435 13.4787 29.0435 16C29.0435 18.5213 26.9996 20.5652 24.4783 20.5652L20.5652 20.5652L20.5652 24.4782Z" fill="#67707B"/>
<path d="M16 26.4347L13.3913 23.826L18.6087 23.8261L16 26.4347Z" fill="white"/>
</svg>
