<svg width="32" height="32" viewBox="0 0 32 32" fill="none" xmlns="http://www.w3.org/2000/svg">
<path fill-rule="evenodd" clip-rule="evenodd" d="M16 31C24.2843 31 31 24.2843 31 16C31 7.71573 24.2843 1 16 1C7.71573 1 1 7.71573 1 16C1 24.2843 7.71573 31 16 31Z" fill="#0E141B"/>
<path fill-rule="evenodd" clip-rule="evenodd" d="M16 4.26089C14.1991 4.26089 12.7391 5.72083 12.7391 7.52176V12.7392L7.52173 12.7392C5.7208 12.7392 4.26086 14.1991 4.26086 16C4.26086 17.8009 5.7208 19.2609 7.52173 19.2609H12.7391V24.4783C12.7391 26.2792 14.1991 27.7392 16 27.7392C17.8009 27.7392 19.2609 26.2792 19.2609 24.4783V19.2609H24.4783C26.2792 19.2609 27.7391 17.801 27.7391 16C27.7391 14.1991 26.2792 12.7392 24.4783 12.7392L19.2609 12.7392V7.52176C19.2609 5.72083 17.8009 4.26089 16 4.26089ZM11.4348 7.52176C11.4348 5.00046 13.4787 2.95654 16 2.95654C18.5213 2.95654 20.5652 5.00046 20.5652 7.52176V11.4348L24.4783 11.4348C26.9995 11.4348 29.0435 13.4787 29.0435 16C29.0435 18.5213 26.9996 20.5652 24.4783 20.5652H20.5652V24.4783C20.5652 26.9996 18.5213 29.0435 16 29.0435C13.4787 29.0435 11.4348 26.9996 11.4348 24.4783V20.5652H7.52173C5.00043 20.5652 2.95651 18.5213 2.95651 16C2.95651 13.4787 5.00043 11.4348 7.52173 11.4348L11.4348 11.4348V7.52176Z" fill="#67707B"/>
<path d="M16 5.56525L18.6087 8.17395L13.3913 8.17395L16 5.56525Z" fill="white"/>
</svg>
