<svg width="64" height="64" viewBox="0 0 64 64" fill="none" xmlns="http://www.w3.org/2000/svg">
<path d="M2.00001 32C2.00001 15.4315 15.4315 2.00001 32 2.00001C48.5686 2.00001 62 15.4315 62 32C62 48.5686 48.5685 62 32 62C15.4315 62 2.00001 48.5685 2.00001 32Z" fill="black"/>
<path d="M24.1739 48.9565H25.4783H24.1739ZM39.8261 48.9565H41.1305H39.8261ZM39.8261 39.8261V38.5218L38.5218 38.5218V39.8261H39.8261ZM48.9565 39.8261L48.9565 41.1305H48.9565V39.8261ZM56.7826 32H55.4783H56.7826ZM48.9565 24.1739L48.9565 25.4783H48.9565V24.1739ZM39.8261 24.1739H38.5218V25.4783H39.8261L39.8261 24.1739ZM32 7.21741V8.52176V7.21741ZM24.1739 15.0435H25.4783H24.1739ZM24.1739 24.1739V25.4783L25.4783 25.4783V24.1739L24.1739 24.1739ZM15.0435 24.1739L15.0435 25.4783H15.0435V24.1739ZM7.21741 32H5.91306H7.21741ZM15.0435 39.8261L15.0435 38.5218H15.0435V39.8261ZM24.1739 39.8261H25.4783V38.5218H24.1739V39.8261ZM32 55.4783C28.3982 55.4783 25.4783 52.5584 25.4783 48.9565H22.8696C22.8696 53.9991 26.9574 58.087 32 58.087V55.4783ZM38.5218 48.9565C38.5218 52.5584 35.6019 55.4783 32 55.4783V58.087C37.0426 58.087 41.1304 53.9991 41.1305 48.9565L38.5218 48.9565ZM38.5218 39.8261V48.9565H41.1305V39.8261H38.5218ZM48.9565 38.5218L39.8261 38.5218L39.8261 41.1305L48.9565 41.1305L48.9565 38.5218ZM55.4783 32C55.4783 35.6019 52.5584 38.5218 48.9565 38.5218V41.1305C53.9991 41.1305 58.087 37.0426 58.087 32H55.4783ZM48.9565 25.4783C52.5584 25.4783 55.4783 28.3982 55.4783 32L58.087 32C58.087 26.9574 53.9991 22.8696 48.9565 22.8696V25.4783ZM39.8261 25.4783L48.9565 25.4783L48.9565 22.8696L39.8261 22.8696L39.8261 25.4783ZM38.5218 15.0435V24.1739H41.1305V15.0435H38.5218ZM32 8.52176C35.6019 8.52176 38.5218 11.4416 38.5218 15.0435H41.1305C41.1305 10.0009 37.0426 5.91306 32 5.91306V8.52176ZM25.4783 15.0435C25.4783 11.4416 28.3982 8.52175 32 8.52176V5.91306C26.9574 5.91306 22.8696 10.0009 22.8696 15.0435H25.4783ZM25.4783 24.1739L25.4783 15.0435L22.8696 15.0435L22.8696 24.1739L25.4783 24.1739ZM15.0435 25.4783L24.1739 25.4783V22.8696L15.0435 22.8696L15.0435 25.4783ZM8.52176 32C8.52176 28.3982 11.4416 25.4783 15.0435 25.4783L15.0435 22.8696C10.0009 22.8696 5.91306 26.9574 5.91306 32L8.52176 32ZM15.0435 38.5218C11.4416 38.5218 8.52175 35.6019 8.52176 32L5.91306 32C5.91306 37.0426 10.0009 41.1304 15.0435 41.1304V38.5218ZM24.1739 38.5218L15.0435 38.5218L15.0435 41.1304L24.1739 41.1305V38.5218ZM25.4783 48.9565L25.4783 39.8261H22.8696L22.8696 48.9565H25.4783Z" fill="#67707B"/>
<circle cx="32" cy="32" r="6.52174" fill="white"/>
</svg>
