<svg width="32" height="32" viewBox="0 0 32 32" fill="none" xmlns="http://www.w3.org/2000/svg">
<path d="M1 16C1 7.71573 7.71573 0.999999 16 1C24.2843 1 31 7.71573 31 16C31 24.2843 24.2843 31 16 31C7.71573 31 0.999999 24.2843 1 16Z" fill="#0E141B"/>
<path fill-rule="evenodd" clip-rule="evenodd" d="M16 4.26089C14.1991 4.26089 12.7392 5.72083 12.7392 7.52176L12.7392 12.7392L7.52176 12.7392C5.72083 12.7392 4.26089 14.1991 4.26089 16C4.26089 17.8009 5.72083 19.2609 7.52176 19.2609L12.7392 19.2609L12.7392 24.4783C12.7392 26.2792 14.1991 27.7392 16 27.7392C17.8009 27.7392 19.2609 26.2792 19.2609 24.4783V19.2609L24.4783 19.2609C26.2792 19.2609 27.7392 17.801 27.7392 16C27.7392 14.1991 26.2792 12.7392 24.4783 12.7392L19.2609 12.7392V7.52176C19.2609 5.72083 17.801 4.26089 16 4.26089ZM11.4348 7.52176C11.4348 5.00046 13.4787 2.95654 16 2.95654C18.5213 2.95654 20.5652 5.00046 20.5652 7.52176V11.4348L24.4783 11.4348C26.9996 11.4348 29.0435 13.4787 29.0435 16C29.0435 18.5213 26.9996 20.5652 24.4783 20.5652L20.5652 20.5652V24.4783C20.5652 26.9996 18.5213 29.0435 16 29.0435C13.4787 29.0435 11.4348 26.9996 11.4348 24.4783L11.4348 20.5652L7.52176 20.5652C5.00046 20.5652 2.95654 18.5213 2.95654 16C2.95654 13.4787 5.00046 11.4348 7.52176 11.4348L11.4348 11.4348L11.4348 7.52176Z" fill="#67707B"/>
<path d="M19.2609 16C19.2609 17.8009 17.8009 19.2609 16 19.2609C14.1991 19.2609 12.7391 17.8009 12.7391 16C12.7391 14.1991 14.1991 12.7391 16 12.7391C17.8009 12.7391 19.2609 14.1991 19.2609 16Z" fill="white"/>
</svg>
