<svg width="64" height="64" viewBox="0 0 64 64" fill="none" xmlns="http://www.w3.org/2000/svg">
<mask id="path-1-inside-1_1967:17546" fill="white">
<path fill-rule="evenodd" clip-rule="evenodd" d="M24.1739 48.9565C24.1739 53.2788 27.6778 56.7826 32 56.7826C36.3222 56.7826 39.8261 53.2788 39.8261 48.9565V39.8261L48.9565 39.8261C53.2787 39.8261 56.7826 36.3222 56.7826 32C56.7826 27.6778 53.2787 24.1739 48.9565 24.1739L39.8261 24.1739V15.0435C39.8261 10.7213 36.3222 7.21741 32 7.21741C27.6778 7.21741 24.1739 10.7213 24.1739 15.0435L24.1739 24.1739L15.0435 24.1739C10.7212 24.1739 7.21738 27.6778 7.21738 32C7.21738 36.3222 10.7212 39.8261 15.0435 39.8261L24.1739 39.8261L24.1739 48.9565Z"/>
</mask>
<path d="M24.1739 48.9565H25.4783H24.1739ZM39.8261 48.9565H41.1304H39.8261ZM39.8261 39.8261V38.5218L38.5217 38.5218V39.8261H39.8261ZM48.9565 39.8261L48.9565 41.1305H48.9565V39.8261ZM56.7826 32H55.4782H56.7826ZM48.9565 24.1739L48.9565 25.4783H48.9565V24.1739ZM39.8261 24.1739H38.5217V25.4783H39.8261L39.8261 24.1739ZM32 7.21741V8.52176V7.21741ZM24.1739 15.0435H25.4783H24.1739ZM24.1739 24.1739V25.4783L25.4783 25.4783V24.1739L24.1739 24.1739ZM15.0435 24.1739L15.0435 25.4783H15.0435V24.1739ZM7.21738 32H5.91303H7.21738ZM15.0435 39.8261L15.0435 38.5218H15.0435V39.8261ZM24.1739 39.8261H25.4783V38.5218H24.1739V39.8261ZM32 55.4783C28.3981 55.4783 25.4782 52.5584 25.4783 48.9565H22.8696C22.8696 53.9991 26.9574 58.087 32 58.087V55.4783ZM38.5217 48.9565C38.5217 52.5584 35.6018 55.4783 32 55.4783V58.087C37.0426 58.087 41.1304 53.9991 41.1304 48.9565L38.5217 48.9565ZM38.5217 39.8261V48.9565H41.1304V39.8261H38.5217ZM48.9565 38.5218L39.8261 38.5218L39.8261 41.1305L48.9565 41.1305L48.9565 38.5218ZM55.4782 32C55.4782 35.6019 52.5584 38.5218 48.9565 38.5218V41.1305C53.9991 41.1305 58.0869 37.0426 58.0869 32H55.4782ZM48.9565 25.4783C52.5584 25.4783 55.4782 28.3982 55.4782 32L58.0869 32C58.0869 26.9574 53.9991 22.8696 48.9565 22.8696V25.4783ZM39.8261 25.4783L48.9565 25.4783L48.9565 22.8696L39.8261 22.8696L39.8261 25.4783ZM38.5217 15.0435V24.1739H41.1304V15.0435H38.5217ZM32 8.52176C35.6018 8.52176 38.5217 11.4416 38.5217 15.0435H41.1304C41.1304 10.0009 37.0426 5.91306 32 5.91306V8.52176ZM25.4783 15.0435C25.4783 11.4416 28.3981 8.52175 32 8.52176V5.91306C26.9574 5.91306 22.8696 10.0009 22.8696 15.0435H25.4783ZM25.4783 24.1739L25.4783 15.0435L22.8696 15.0435L22.8696 24.1739L25.4783 24.1739ZM15.0435 25.4783L24.1739 25.4783V22.8696L15.0435 22.8696L15.0435 25.4783ZM8.52172 32C8.52173 28.3982 11.4416 25.4783 15.0435 25.4783L15.0435 22.8696C10.0009 22.8696 5.91303 26.9574 5.91303 32L8.52172 32ZM15.0435 38.5218C11.4416 38.5218 8.52172 35.6019 8.52172 32L5.91303 32C5.91303 37.0426 10.0009 41.1304 15.0435 41.1304V38.5218ZM24.1739 38.5218L15.0435 38.5218L15.0435 41.1304L24.1739 41.1305V38.5218ZM25.4783 48.9565L25.4783 39.8261H22.8696L22.8696 48.9565H25.4783Z" fill="black" mask="url(#path-1-inside-1_1967:17546)"/>
<path fill-rule="evenodd" clip-rule="evenodd" d="M32 2C15.4315 2 2 15.4315 2 32C2 48.5685 15.4315 62 32 62C48.5685 62 62 48.5685 62 32C62 15.4315 48.5685 2 32 2Z" fill="black"/>
<path d="M32 56.7826L32 55.4782L32 56.7826ZM39.8261 39.8261L39.8261 38.5217L38.5217 38.5217L38.5217 39.8261L39.8261 39.8261ZM48.9565 39.8261L48.9565 41.1304L48.9565 39.8261ZM56.7826 32L55.4783 32L56.7826 32ZM39.8261 24.1739L38.5217 24.1739L38.5217 25.4782L39.8261 25.4782L39.8261 24.1739ZM39.8261 15.0435L38.5217 15.0435L39.8261 15.0435ZM24.1739 15.0435L22.8696 15.0435L24.1739 15.0435ZM24.1739 24.1739L24.1739 25.4782L25.4783 25.4782L25.4783 24.1739L24.1739 24.1739ZM15.0435 24.1739L15.0435 22.8695L15.0435 24.1739ZM15.0435 39.8261L15.0435 38.5217L15.0435 39.8261ZM24.1739 39.8261L25.4783 39.8261L25.4783 38.5217L24.1739 38.5217L24.1739 39.8261ZM32 55.4782C28.3981 55.4782 25.4783 52.5584 25.4783 48.9565L22.8696 48.9565C22.8696 53.9991 26.9574 58.0869 32 58.0869L32 55.4782ZM38.5217 48.9565C38.5217 52.5584 35.6019 55.4782 32 55.4782L32 58.0869C37.0426 58.0869 41.1304 53.9991 41.1304 48.9565L38.5217 48.9565ZM38.5217 39.8261L38.5217 48.9565L41.1304 48.9565L41.1304 39.8261L38.5217 39.8261ZM48.9565 38.5217L39.8261 38.5217L39.8261 41.1304L48.9565 41.1304L48.9565 38.5217ZM55.4783 32C55.4783 35.6018 52.5584 38.5217 48.9565 38.5217L48.9565 41.1304C53.9991 41.1304 58.087 37.0426 58.087 32L55.4783 32ZM48.9565 25.4782C52.5584 25.4782 55.4783 28.3981 55.4783 32L58.087 32C58.087 26.9574 53.9991 22.8696 48.9565 22.8696L48.9565 25.4782ZM39.8261 25.4782L48.9565 25.4782L48.9565 22.8696L39.8261 22.8696L39.8261 25.4782ZM38.5217 15.0435L38.5217 24.1739L41.1304 24.1739L41.1304 15.0435L38.5217 15.0435ZM32 8.52172C35.6019 8.52172 38.5217 11.4416 38.5217 15.0435L41.1304 15.0435C41.1304 10.0009 37.0426 5.91303 32 5.91303L32 8.52172ZM25.4783 15.0435C25.4783 11.4416 28.3982 8.52172 32 8.52172L32 5.91303C26.9574 5.91303 22.8696 10.0009 22.8696 15.0435L25.4783 15.0435ZM25.4783 24.1739L25.4783 15.0435L22.8696 15.0435L22.8696 24.1739L25.4783 24.1739ZM15.0435 25.4782L24.1739 25.4782L24.1739 22.8695L15.0435 22.8695L15.0435 25.4782ZM8.52174 32C8.52174 28.3981 11.4416 25.4782 15.0435 25.4782L15.0435 22.8695C10.0009 22.8695 5.91305 26.9574 5.91305 32L8.52174 32ZM15.0435 38.5217C11.4416 38.5217 8.52174 35.6018 8.52174 32L5.91305 32C5.91305 37.0426 10.0009 41.1304 15.0435 41.1304L15.0435 38.5217ZM24.1739 38.5217L15.0435 38.5217L15.0435 41.1304L24.1739 41.1304L24.1739 38.5217ZM25.4783 48.9565L25.4783 39.8261L22.8696 39.8261L22.8696 48.9565L25.4783 48.9565Z" fill="#67707B"/>
<path d="M32 52.8696L26.7826 47.6522L37.2174 47.6522L32 52.8696Z" fill="white"/>
</svg>
