<svg width="32" height="32" viewBox="0 0 32 32" fill="none" xmlns="http://www.w3.org/2000/svg">
<g clip-path="url(#clip0_1967_17940)">
<path d="M4.76837e-06 16C5.54089e-06 7.16344 7.16345 -7.72516e-07 16 0C24.8366 7.72516e-07 32 7.16345 32 16C32 24.8366 24.8366 32 16 32C7.16345 32 3.99586e-06 24.8366 4.76837e-06 16Z" fill="#0E141B"/>
<path fill-rule="evenodd" clip-rule="evenodd" d="M16 3.47822C14.079 3.47822 12.5217 5.03548 12.5217 6.95647L12.5217 12.5217L6.95652 12.5217C5.03553 12.5217 3.47826 14.079 3.47826 16C3.47826 17.9209 5.03553 19.4782 6.95651 19.4782L12.5217 19.4782L12.5217 25.0434C12.5217 26.9644 14.079 28.5217 16 28.5217C17.921 28.5217 19.4783 26.9644 19.4783 25.0434L19.4783 19.4782L25.0435 19.4782C26.9645 19.4782 28.5217 17.921 28.5217 16C28.5217 14.079 26.9645 12.5217 25.0435 12.5217L19.4783 12.5217L19.4783 6.95648C19.4783 5.03549 17.921 3.47822 16 3.47822ZM11.1304 6.95647C11.1304 4.26709 13.3106 2.08691 16 2.08691C18.6894 2.08691 20.8696 4.26709 20.8696 6.95648L20.8696 11.1304L25.0435 11.1304C27.7329 11.1304 29.913 13.3106 29.913 16C29.913 18.6893 27.7329 20.8695 25.0435 20.8695L20.8696 20.8695L20.8696 25.0434C20.8696 27.7328 18.6894 29.913 16 29.913C13.3106 29.913 11.1304 27.7328 11.1304 25.0434L11.1304 20.8695L6.95651 20.8695C4.26713 20.8695 2.08695 18.6893 2.08696 16C2.08696 13.3106 4.26713 11.1304 6.95652 11.1304L11.1304 11.1304L11.1304 6.95647Z" fill="#67707B"/>
<path d="M6.95652 18.087L4.86957 16.0033L6.95652 13.9131L7.53505 14.4916L6.02663 16.0033L7.53505 17.5117L6.95652 18.087Z" fill="white"/>
<path d="M9.82302 17.5085L8.3146 16.0033L9.82302 14.4949L9.24449 13.9131L7.15754 16.0033L9.24449 18.087L9.82302 17.5085Z" fill="white"/>
<path d="M25.1274 13.913L27.2143 15.9967L25.1274 18.0869L24.5488 17.5084L26.0573 15.9967L24.5488 14.4883L25.1274 13.913Z" fill="white"/>
<path d="M22.2609 14.4915L23.7693 15.9967L22.2609 17.5051L22.8394 18.0869L24.9264 15.9967L22.8394 13.913L22.2609 14.4915Z" fill="white"/>
</g>
<defs>
<clipPath id="clip0_1967_17940">
<rect width="32" height="32" fill="white"/>
</clipPath>
</defs>
</svg>
