<svg width="32" height="32" viewBox="0 0 32 32" fill="none" xmlns="http://www.w3.org/2000/svg">
<g clip-path="url(#clip0_1967_17504)">
<path d="M1.56863 17.5687C1.56863 9.59847 8.02978 3.13733 16 3.13733C23.9702 3.13733 30.4314 9.59848 30.4314 17.5687C30.4314 25.5389 23.9702 32.0001 16 32.0001C8.02978 32.0001 1.56863 25.5389 1.56863 17.5687Z" fill="#0E141B"/>
<path fill-rule="evenodd" clip-rule="evenodd" d="M16 6.27456C14.2674 6.27456 12.8628 7.67915 12.8628 9.41181L12.8628 14.4314L7.84315 14.4314C6.11049 14.4314 4.70589 15.836 4.70589 17.5687C4.70589 19.3013 6.11049 20.7059 7.84315 20.7059L12.8628 20.7059L12.8628 25.7255C12.8628 27.4582 14.2674 28.8628 16 28.8628C17.7327 28.8628 19.1373 27.4582 19.1373 25.7255L19.1373 20.7059L24.1569 20.7059C25.8895 20.7059 27.2941 19.3013 27.2941 17.5687C27.2941 15.836 25.8895 14.4314 24.1569 14.4314L19.1373 14.4314L19.1373 9.41181C19.1373 7.67915 17.7327 6.27456 16 6.27456ZM11.6079 9.41181C11.6079 6.98609 13.5743 5.01965 16 5.01965C18.4257 5.01965 20.3922 6.98609 20.3922 9.41181L20.3922 13.1765L24.1569 13.1765C26.5826 13.1765 28.549 15.143 28.549 17.5687C28.549 19.9944 26.5826 21.9608 24.1569 21.9608H20.3922V25.7255C20.3922 28.1513 18.4257 30.1177 16 30.1177C13.5743 30.1177 11.6079 28.1513 11.6079 25.7255L11.6079 21.9608L7.84314 21.9608C5.41742 21.9608 3.45099 19.9944 3.45099 17.5687C3.45099 15.143 5.41743 13.1765 7.84315 13.1765H11.6079L11.6079 9.41181Z" fill="#67707B"/>
<path d="M10.9804 1.25488L16 6.90194L21.0196 1.25488H10.9804Z" fill="white"/>
<path fill-rule="evenodd" clip-rule="evenodd" d="M16 8.79084L8.18591 0H23.8141L16 8.79084ZM16 6.90196L21.0196 1.2549H10.9804L16 6.90196Z" fill="#0E141B"/>
</g>
<defs>
<clipPath id="clip0_1967_17504">
<rect width="32" height="32" fill="white"/>
</clipPath>
</defs>
</svg>
