<svg width="64" height="64" viewBox="0 0 64 64" fill="none" xmlns="http://www.w3.org/2000/svg">
<path d="M2 32C2 15.4314 15.4315 1.99999 32 1.99999C48.5685 2 62 15.4315 62 32C62 48.5685 48.5685 62 32 62C15.4315 62 2 48.5685 2 32Z" fill="black"/>
<path d="M24.1739 48.9565H25.4782H24.1739ZM39.826 48.9565H41.1304H39.826ZM39.826 39.8261V38.5218H38.5217V39.8261H39.826ZM48.9565 39.8261L48.9565 38.5218H48.9565V39.8261ZM48.9565 24.1739V25.4783V24.1739ZM39.826 24.1739H38.5217V25.4783H39.826V24.1739ZM32 7.21741L32 8.52175L32 7.21741ZM24.1739 15.0435H25.4782H24.1739ZM24.1739 24.1739L24.1739 25.4783H25.4782V24.1739L24.1739 24.1739ZM15.0434 24.1739L15.0434 25.4783H15.0434V24.1739ZM7.21735 32H5.913H7.21735ZM24.1739 39.8261H25.4782L25.4782 38.5218H24.1739V39.8261ZM31.9999 55.4783C28.3981 55.4783 25.4782 52.5584 25.4782 48.9565H22.8695C22.8695 53.9991 26.9573 58.087 31.9999 58.087V55.4783ZM38.5217 48.9565C38.5217 52.5584 35.6018 55.4783 31.9999 55.4783V58.087C37.0425 58.087 41.1304 53.9991 41.1304 48.9565L38.5217 48.9565ZM38.5217 39.8261V48.9565H41.1304V39.8261H38.5217ZM48.9565 38.5218H39.826V41.1305H48.9565V38.5218ZM55.4782 32C55.4782 35.6019 52.5583 38.5218 48.9565 38.5218L48.9565 41.1305C53.9991 41.1305 58.0869 37.0426 58.0869 32H55.4782ZM48.9565 25.4783C52.5583 25.4783 55.4782 28.3982 55.4782 32H58.0869C58.0869 26.9574 53.9991 22.8696 48.9565 22.8696V25.4783ZM39.826 25.4783L48.9565 25.4783V22.8696L39.826 22.8696V25.4783ZM38.5217 15.0435V24.1739H41.1304V15.0435H38.5217ZM32 8.52175C35.6018 8.52176 38.5217 11.4416 38.5217 15.0435H41.1304C41.1304 10.0009 37.0426 5.91306 32 5.91306L32 8.52175ZM25.4782 15.0435C25.4782 11.4416 28.3981 8.52175 32 8.52175L32 5.91306C26.9574 5.91306 22.8695 10.0009 22.8695 15.0435H25.4782ZM25.4782 24.1739L25.4782 15.0435L22.8695 15.0435L22.8695 24.1739L25.4782 24.1739ZM15.0434 25.4783L24.1739 25.4783L24.1739 22.8696L15.0434 22.8696L15.0434 25.4783ZM8.52169 32C8.52169 28.3982 11.4416 25.4783 15.0434 25.4783L15.0434 22.8696C10.0008 22.8696 5.913 26.9574 5.913 32L8.52169 32ZM15.0434 38.5218C11.4416 38.5218 8.52169 35.6019 8.52169 32L5.913 32C5.913 37.0426 10.0008 41.1305 15.0434 41.1305V38.5218ZM24.1739 38.5218H15.0434V41.1305H24.1739V38.5218ZM25.4782 48.9565L25.4782 39.8261H22.8695L22.8695 48.9565H25.4782Z" fill="#67707B"/>
</svg>
