<svg width="64" height="64" viewBox="0 0 64 64" fill="none" xmlns="http://www.w3.org/2000/svg">
<g clip-path="url(#clip0_1967:17504)">
<path d="M3.13724 35.1373C3.13724 19.1968 16.0595 6.27453 32 6.27454C47.9404 6.27454 60.8627 19.1968 60.8627 35.1373C60.8627 51.0777 47.9404 64 32 64C16.0595 64 3.13724 51.0777 3.13724 35.1373Z" fill="black"/>
<path fill-rule="evenodd" clip-rule="evenodd" d="M32 12.549C28.5347 12.549 25.7255 15.3582 25.7255 18.8235L25.7255 28.8627L15.6863 28.8627C12.2209 28.8627 9.41175 31.6719 9.41175 35.1372C9.41175 38.6025 12.2209 41.4117 15.6863 41.4117L25.7255 41.4117L25.7255 51.451C25.7255 54.9163 28.5347 57.7255 32 57.7255C35.4653 57.7255 38.2745 54.9163 38.2745 51.451L38.2745 41.4117L48.3137 41.4117C51.779 41.4117 54.5882 38.6025 54.5882 35.1372C54.5882 31.6719 51.779 28.8627 48.3137 28.8627L38.2745 28.8627L38.2745 18.8235C38.2745 15.3582 35.4653 12.549 32 12.549ZM23.2157 18.8235C23.2157 13.9721 27.1486 10.0392 32 10.0392C36.8514 10.0392 40.7843 13.9721 40.7843 18.8235L40.7843 26.3529L48.3137 26.3529C53.1652 26.3529 57.098 30.2858 57.098 35.1372C57.098 39.9887 53.1651 43.9215 48.3137 43.9215H40.7843V51.451C40.7843 56.3024 36.8514 60.2353 32 60.2353C27.1485 60.2353 23.2157 56.3024 23.2157 51.451L23.2157 43.9215L15.6863 43.9215C10.8348 43.9215 6.90195 39.9887 6.90195 35.1372C6.90195 30.2858 10.8348 26.3529 15.6863 26.3529H23.2157L23.2157 18.8235Z" fill="#67707B"/>
<path d="M21.9608 2.50977L32 13.8039L42.0392 2.50977H21.9608Z" fill="white"/>
<path fill-rule="evenodd" clip-rule="evenodd" d="M32 17.5817L16.3718 0H47.6281L32 17.5817ZM32 13.8039L42.0392 2.5098H21.9608L32 13.8039Z" fill="black"/>
</g>
<defs>
<clipPath id="clip0_1967:17504">
<rect width="64" height="64" fill="white"/>
</clipPath>
</defs>
</svg>
