<svg width="64" height="64" viewBox="0 0 64 64" fill="none" xmlns="http://www.w3.org/2000/svg">
<g clip-path="url(#clip0_1967:17722)">
<path d="M60.8965 7.93904L14.3535 0.45718C13.7262 0.356339 13.0822 0.435799 12.5378 0.763516C9.61642 2.52239 0.2117 9.78506 0.2117 30.3937C0.2117 50.4802 9.14591 60.0933 12.3036 62.8637C12.9794 63.4566 13.8897 63.6365 14.7707 63.4572L61.2475 53.9936C63.3373 53.5681 64.5201 51.3117 63.7771 49.3126C62.0687 44.7166 59.5491 36.8445 59.5491 30.3937C59.5491 24.2039 61.869 17.1186 63.566 12.7639C64.3768 10.6831 63.1013 8.29347 60.8965 7.93904Z" fill="black"/>
<path d="M28.9695 40.3668H17.5178V24.0073H21.5609V36.721H28.9695V40.3668Z" fill="white"/>
<path d="M40.2765 23.61C41.5074 23.61 42.6214 23.7814 43.6185 24.1241C44.6312 24.4513 45.5115 24.8798 46.2594 25.4095L44.343 28.4244C43.1901 27.7077 41.9124 27.3493 40.5102 27.3493C39.1859 27.3493 38.1186 27.7622 37.3084 28.588C36.5138 29.3981 36.1165 30.59 36.1165 32.1637C36.1165 33.6906 36.4904 34.8825 37.2383 35.7394C38.0017 36.5808 38.9833 37.0014 40.183 37.0014C41.2269 37.0014 42.0838 36.7677 42.7538 36.3003V33.7763H39.1313V30.5511H46.61V38.4037C45.8465 39.1204 44.8961 39.6891 43.7587 40.1097C42.6369 40.5304 41.3983 40.7407 40.0428 40.7407C38.625 40.7407 37.285 40.4369 36.023 39.8293C34.7766 39.2216 33.7561 38.2946 32.9615 37.0482C32.1824 35.7861 31.7929 34.2203 31.7929 32.3506C31.7929 30.4966 32.1746 28.9151 32.9381 27.6064C33.7015 26.282 34.722 25.2849 35.9996 24.6149C37.2928 23.945 38.7184 23.61 40.2765 23.61Z" fill="white"/>
</g>
<defs>
<clipPath id="clip0_1967:17722">
<rect width="64" height="64" fill="white"/>
</clipPath>
</defs>
</svg>
