<svg width="32" height="32" viewBox="0 0 32 32" fill="none" xmlns="http://www.w3.org/2000/svg">
<g clip-path="url(#clip0_1967_20332)">
<path d="M17.0339 20.4444H14.6446L12.9895 17.6818H12.8028H11.7699V20.4444H9.61705V11.7333H13.0019C14.2464 11.7333 15.1673 11.9781 15.7646 12.4676C16.3619 12.957 16.6606 13.6456 16.6606 14.5333C16.6606 15.2053 16.5154 15.7695 16.225 16.2258C15.943 16.6738 15.5448 17.0139 15.0304 17.2462L17.0339 20.4444ZM11.7699 13.5751V15.84H12.9397C13.3794 15.84 13.7237 15.7404 13.9726 15.5413C14.2298 15.3339 14.3584 15.0353 14.3584 14.6453C14.3584 14.2886 14.2422 14.0231 14.0099 13.8489C13.7776 13.6664 13.4085 13.5751 12.9024 13.5751H11.7699Z" fill="white"/>
<path d="M23.0834 20.4444H20.9305V13.5751H18.3918V11.7333H25.622V13.5751H23.0834V20.4444Z" fill="white"/>
<path fill-rule="evenodd" clip-rule="evenodd" d="M8.11424 12.1143L0.390228 4.39024L32 0L29.3199 19.2964C28.8134 22.9434 26.9989 26.1237 24.39 28.3901L13.4178 17.4178C13.7493 17.2054 14.0184 16.935 14.2251 16.6067C14.5154 16.1504 14.6606 15.5863 14.6606 14.9143C14.6606 14.0265 14.3619 13.338 13.7646 12.8485C13.1673 12.359 12.2464 12.1143 11.0019 12.1143H8.11424ZM11.9442 15.9442L9.95602 13.956H10.9024C11.4085 13.956 11.7777 14.0473 12.0099 14.2298C12.2422 14.404 12.3584 14.6695 12.3584 15.0263C12.3584 15.4162 12.2298 15.7148 11.9726 15.9223C11.9633 15.9297 11.9538 15.937 11.9442 15.9442ZM18.9305 20.8254H21.0834V13.956H23.6221V12.1143H16.3918V13.956H18.9305V20.8254Z" fill="#0E141B"/>
<path fill-rule="evenodd" clip-rule="evenodd" d="M13.4178 17.4178L24.3901 28.3901C21.7897 30.6491 18.4001 32 14.73 32C6.59485 32 1.15493e-05 25.4052 1.15493e-05 17.27V4.44446L0.390288 4.39026L8.11429 12.1143H7.61705V20.8254H9.76993V18.0627H10.8028H10.9895L12.6446 20.8254H15.0339L13.0304 17.6271C13.1678 17.5651 13.297 17.4953 13.4178 17.4178ZM9.95607 13.956L11.9442 15.9442C11.6978 16.1287 11.3629 16.2209 10.9397 16.2209H9.76993V13.956H9.95607Z" fill="#67707B"/>
<path d="M15.0339 20.8254H12.6446L10.9895 18.0628H10.8028H9.76992V20.8254H7.61703V12.1143H11.0019C12.2464 12.1143 13.1673 12.3591 13.7646 12.8485C14.3619 13.338 14.6606 14.0266 14.6606 14.9143C14.6606 15.5863 14.5154 16.1505 14.225 16.6068C13.943 17.0548 13.5447 17.3949 13.0304 17.6272L15.0339 20.8254ZM9.76992 13.9561V16.221H10.9397C11.3794 16.221 11.7237 16.1214 11.9726 15.9223C12.2298 15.7149 12.3584 15.4162 12.3584 15.0263C12.3584 14.6696 12.2422 14.4041 12.0099 14.2299C11.7776 14.0474 11.4084 13.9561 10.9024 13.9561H9.76992Z" fill="white"/>
<path d="M21.0834 20.8254H18.9305V13.9561H16.3918V12.1143H23.622V13.9561H21.0834V20.8254Z" fill="white"/>
</g>
<defs>
<clipPath id="clip0_1967_20332">
<rect width="32" height="32" fill="white"/>
</clipPath>
</defs>
</svg>
