<svg width="64" height="64" viewBox="0 0 64 64" fill="none" xmlns="http://www.w3.org/2000/svg">
<path d="M64 11.7967C64 8.87565 61.4129 6.63184 58.5212 7.04493L4.12117 14.8164C1.75646 15.1542 0 17.1794 0 19.5681V57.4622L64 48.3194V11.7967Z" fill="black"/>
<path d="M30.9689 39.8627H26.6681L23.6889 34.8899H23.3529H21.4937V39.8627H17.6185V24.1827H23.7113C25.9513 24.1827 27.6089 24.6233 28.6841 25.5043C29.7593 26.3854 30.2969 27.6249 30.2969 29.2227C30.2969 30.4323 30.0356 31.4478 29.5129 32.2691C29.0052 33.0755 28.2884 33.6878 27.3625 34.1059L30.9689 39.8627ZM21.4937 27.4979V31.5747H23.5993C24.3908 31.5747 25.0105 31.3955 25.4585 31.0371C25.9214 30.6638 26.1529 30.1262 26.1529 29.4243C26.1529 28.7822 25.9438 28.3043 25.5257 27.9907C25.1076 27.6622 24.443 27.4979 23.5321 27.4979H21.4937Z" fill="white"/>
<path d="M44.1651 31.4851C45.2104 31.8286 45.9496 32.3214 46.3827 32.9635C46.8307 33.6057 47.0547 34.3822 47.0547 35.2931C47.0547 36.219 46.8158 37.0254 46.3379 37.7123C45.875 38.3993 45.203 38.9294 44.3219 39.3027C43.4558 39.6761 42.4403 39.8627 41.2755 39.8627H34.4435V24.1827H40.6483C42.5448 24.1827 43.9336 24.5337 44.8147 25.2355C45.7107 25.9225 46.1587 26.9006 46.1587 28.1699C46.1587 29.6782 45.4942 30.7833 44.1651 31.4851ZM38.3859 27.3859V30.5667H40.4467C41.059 30.5667 41.5219 30.4249 41.8355 30.1411C42.164 29.8574 42.3283 29.4467 42.3283 28.9091C42.3283 27.8937 41.6787 27.3859 40.3795 27.3859H38.3859ZM40.8723 36.6819C41.5443 36.6819 42.0446 36.5251 42.3731 36.2115C42.7166 35.883 42.8883 35.4574 42.8883 34.9347C42.8883 33.8595 42.2462 33.3219 40.9619 33.3219H38.3859V36.6819H40.8723Z" fill="white"/>
</svg>
