<svg width="64" height="64" viewBox="0 0 64 64" fill="none" xmlns="http://www.w3.org/2000/svg">
<path fill-rule="evenodd" clip-rule="evenodd" d="M0 0L64 8.88889L49.4222 23.4667H36.7837V27.1502H41.861V31.0279L33.2714 39.6175L30.0608 34.4924C31.0895 34.0278 31.886 33.3475 32.4501 32.4515C33.0308 31.5389 33.3212 30.4107 33.3212 29.0667C33.3212 27.2912 32.7239 25.9141 31.5292 24.9351C30.3345 23.9561 28.4928 23.4667 26.0039 23.4667H19.2341V40.8889H23.5399V35.3635H25.6057H25.979L29.2892 40.8889H32L15.7003 57.1886C10.2253 52.6335 6.40398 46.1087 5.36011 38.5928L0 0ZM23.5399 31.68V27.1502H25.8048C26.8169 27.1502 27.5553 27.3327 28.0199 27.6978C28.4845 28.0462 28.7168 28.5772 28.7168 29.2907C28.7168 30.0705 28.4596 30.6678 27.9452 31.0827C27.4474 31.4809 26.7588 31.68 25.8794 31.68H23.5399Z" fill="black"/>
<path fill-rule="evenodd" clip-rule="evenodd" d="M15.7003 57.1886L64 8.88892V34.54C64 50.8103 50.8103 64 34.54 64C27.4237 64 20.8348 61.4605 15.7003 57.1886Z" fill="#67707B"/>
<path d="M34.0679 40.8889H29.2892L25.979 35.3636H25.6057H23.5399V40.8889H19.2341V23.4667H26.0039C28.4928 23.4667 30.3345 23.9562 31.5292 24.9351C32.7239 25.9141 33.3212 27.2913 33.3212 29.0667C33.3212 30.4107 33.0308 31.539 32.4501 32.4516C31.8859 33.3476 31.0895 34.0279 30.0608 34.4925L34.0679 40.8889ZM23.5399 27.1502V31.68H25.8794C26.7588 31.68 27.4474 31.4809 27.9452 31.0827C28.4596 30.6679 28.7168 30.0705 28.7168 29.2907C28.7168 28.5772 28.4845 28.0462 28.0199 27.6978C27.5553 27.3327 26.8169 27.1502 25.8048 27.1502H23.5399Z" fill="white"/>
<path d="M46.1668 40.8889H41.861V27.1502H36.7837V23.4667H51.2441V27.1502H46.1668V40.8889Z" fill="white"/>
</svg>
