<svg width="32" height="32" viewBox="0 0 32 32" fill="none" xmlns="http://www.w3.org/2000/svg">
<path d="M29.3199 19.2964C28.3085 26.5787 22.0822 32 14.73 32C6.59485 32 0 25.4052 0 17.27V4.44444L32 0L29.3199 19.2964Z" fill="#0E141B"/>
<path d="M15.2562 20.4444H12.8669L11.2117 17.6818H11.0251H9.99218V20.4444H7.83929V11.7333H11.2242C12.4686 11.7333 13.3895 11.9781 13.9868 12.4676C14.5842 12.957 14.8828 13.6456 14.8828 14.5333C14.8828 15.2053 14.7377 15.7695 14.4473 16.2258C14.1652 16.6738 13.767 17.0139 13.2526 17.2462L15.2562 20.4444ZM9.99218 13.5751V15.84H11.162C11.6017 15.84 11.946 15.7404 12.1948 15.5413C12.452 15.3339 12.5806 15.0353 12.5806 14.6453C12.5806 14.2886 12.4645 14.0231 12.2322 13.8489C11.9999 13.6664 11.6307 13.5751 11.1246 13.5751H9.99218Z" fill="white"/>
<path d="M21.3056 20.4444H19.1527V13.5751H16.6141V11.7333H23.8443V13.5751H21.3056V20.4444Z" fill="white"/>
</svg>
