<svg width="64" height="64" viewBox="0 0 64 64" fill="none" xmlns="http://www.w3.org/2000/svg">
<g clip-path="url(#clip0_1967:17726)">
<path d="M3.31521 7.93904L49.8582 0.45718C50.4855 0.356339 51.1296 0.435799 51.6739 0.763516C54.5953 2.52239 64 9.78506 64 30.3937C64 50.4802 55.0658 60.0933 51.9082 62.8637C51.2323 63.4566 50.322 63.6365 49.441 63.4572L2.96424 53.9936C0.874459 53.5681 -0.308389 51.3117 0.434645 49.3126C2.14296 44.7166 4.66258 36.8445 4.66258 30.3937C4.66258 24.2039 2.34272 17.1186 0.645752 12.7639C-0.16507 10.6831 1.11037 8.29347 3.31521 7.93904Z" fill="black"/>
<path d="M31.8038 40.3668H27.3166L24.2083 35.1785H23.8577H21.918V40.3668H17.8748V24.0073H24.2317C26.5687 24.0073 28.2982 24.4669 29.42 25.3862C30.5418 26.3054 31.1027 27.5986 31.1027 29.2657C31.1027 30.5277 30.83 31.5872 30.2847 32.4441C29.7549 33.2855 29.0071 33.9243 28.0411 34.3605L31.8038 40.3668ZM21.918 27.4662V31.7196H24.1148C24.9406 31.7196 25.5872 31.5327 26.0546 31.1587C26.5376 30.7692 26.7791 30.2083 26.7791 29.476C26.7791 28.8061 26.5609 28.3075 26.1247 27.9803C25.6884 27.6375 24.9951 27.4662 24.0447 27.4662H21.918Z" fill="white"/>
<path d="M43.2582 23.61C44.489 23.61 45.603 23.7814 46.6002 24.1241C47.6129 24.4513 48.4932 24.8798 49.2411 25.4095L47.3247 28.4244C46.1717 27.7077 44.8941 27.3493 43.4919 27.3493C42.1675 27.3493 41.1003 27.7622 40.2901 28.588C39.4955 29.3981 39.0982 30.59 39.0982 32.1637C39.0982 33.6906 39.4721 34.8825 40.22 35.7394C40.9834 36.5808 41.965 37.0014 43.1647 37.0014C44.2086 37.0014 45.0655 36.7677 45.7355 36.3003V33.7763H42.113V30.5511H49.5916V38.4037C48.8282 39.1204 47.8778 39.6891 46.7404 40.1097C45.6186 40.5304 44.38 40.7407 43.0245 40.7407C41.6066 40.7407 40.2667 40.4369 39.0047 39.8293C37.7582 39.2216 36.7377 38.2946 35.9431 37.0482C35.1641 35.7861 34.7746 34.2203 34.7746 32.3506C34.7746 30.4966 35.1563 28.9151 35.9198 27.6064C36.6832 26.282 37.7037 25.2849 38.9813 24.6149C40.2745 23.945 41.7001 23.61 43.2582 23.61Z" fill="white"/>
</g>
<defs>
<clipPath id="clip0_1967:17726">
<rect width="64" height="64" fill="white"/>
</clipPath>
</defs>
</svg>
