<svg width="64" height="64" viewBox="0 0 64 64" fill="none" xmlns="http://www.w3.org/2000/svg">
<g clip-path="url(#clip0_1967:20890)">
<path d="M54.8342 42.2224C53.1003 54.7063 42.4266 64 29.8229 64C15.8769 64 4.57144 52.6946 4.57144 38.7486V16.7619L59.4286 9.14288L54.8342 42.2224Z" fill="black"/>
<path d="M19.8095 3.04767L32 16.762L44.1904 3.04767H19.8095Z" fill="white"/>
<path fill-rule="evenodd" clip-rule="evenodd" d="M32 21.3492L13.0229 0H50.9769L32 21.3492ZM32 16.7619L44.1904 3.04762H19.8095L32 16.7619Z" fill="black"/>
<path d="M32.2487 44.1905H28.1527L25.3154 39.4545H24.9954H23.2247V44.1905H19.534V29.2572H25.3367C27.47 29.2572 29.0487 29.6768 30.0727 30.5159C31.0967 31.355 31.6087 32.5354 31.6087 34.0572C31.6087 35.2092 31.3598 36.1763 30.862 36.9585C30.3785 37.7265 29.6958 38.3096 28.814 38.7079L32.2487 44.1905ZM23.2247 32.4145V36.2972H25.23C25.9838 36.2972 26.574 36.1265 27.0007 35.7852C27.4416 35.4296 27.662 34.9176 27.662 34.2492C27.662 33.6376 27.4629 33.1825 27.0647 32.8839C26.6665 32.571 26.0336 32.4145 25.166 32.4145H23.2247Z" fill="white"/>
<path d="M42.6192 44.1905H38.9285V32.4145H34.5765V29.2572H46.9712V32.4145H42.6192V44.1905Z" fill="white"/>
</g>
<defs>
<clipPath id="clip0_1967:20890">
<rect width="64" height="64" fill="white"/>
</clipPath>
</defs>
</svg>
