<svg width="32" height="32" viewBox="0 0 32 32" fill="none" xmlns="http://www.w3.org/2000/svg">
<g clip-path="url(#clip0_1967_20890)">
<path d="M27.4171 21.1112C26.5502 27.3532 21.2133 32 14.9114 32C7.93843 32 2.28571 26.3473 2.28571 19.3743V8.381L29.7143 4.57147L27.4171 21.1112Z" fill="#0E141B"/>
<path d="M9.90475 1.5238L16 8.38095L22.0952 1.5238H9.90475Z" fill="white"/>
<path fill-rule="evenodd" clip-rule="evenodd" d="M16 10.6746L6.51147 0H25.4884L16 10.6746ZM16 8.38095L22.0952 1.52381H9.90476L16 8.38095Z" fill="#0E141B"/>
<path d="M16.1243 22.0953H14.0763L12.6577 19.7273H12.4977H11.6123V22.0953H9.767V14.6286H12.6683C13.735 14.6286 14.5243 14.8384 15.0363 15.2579C15.5483 15.6775 15.8043 16.2677 15.8043 17.0286C15.8043 17.6046 15.6799 18.0882 15.431 18.4793C15.1892 18.8633 14.8479 19.1548 14.407 19.3539L16.1243 22.0953ZM11.6123 16.2073V18.1486H12.615C12.9919 18.1486 13.287 18.0633 13.5003 17.8926C13.7208 17.7148 13.831 17.4588 13.831 17.1246C13.831 16.8188 13.7314 16.5913 13.5323 16.4419C13.3332 16.2855 13.0168 16.2073 12.583 16.2073H11.6123Z" fill="white"/>
<path d="M21.3096 22.0953H19.4642V16.2073H17.2882V14.6286H23.4856V16.2073H21.3096V22.0953Z" fill="white"/>
</g>
<defs>
<clipPath id="clip0_1967_20890">
<rect width="32" height="32" fill="white"/>
</clipPath>
</defs>
</svg>
