<svg width="32" height="32" viewBox="0 0 32 32" fill="none" xmlns="http://www.w3.org/2000/svg">
<g clip-path="url(#clip0_1967_17726)">
<path d="M1.65762 3.96952L24.9291 0.22859C25.2428 0.178169 25.5648 0.217899 25.837 0.381758C27.2977 1.2612 32 4.89253 32 15.1968C32 25.2401 27.5329 30.0467 25.9541 31.4318C25.6162 31.7283 25.161 31.8183 24.7205 31.7286L1.48214 26.9968C0.437245 26.784 -0.154179 25.6558 0.217338 24.6563C1.0715 22.3583 2.33131 18.4223 2.33131 15.1968C2.33131 12.1019 1.17137 8.55932 0.322891 6.38194C-0.0825196 5.34157 0.5552 4.14674 1.65762 3.96952Z" fill="#0E141B"/>
<path d="M15.9019 20.1834H13.6583L12.1041 17.5893H11.9289H10.959V20.1834H8.93741V12.0036H12.1158C13.2844 12.0036 14.1491 12.2335 14.71 12.6931C15.2709 13.1527 15.5513 13.7993 15.5513 14.6329C15.5513 15.2639 15.415 15.7936 15.1423 16.2221C14.8775 16.6427 14.5035 16.9621 14.0205 17.1803L15.9019 20.1834ZM10.959 13.7331V15.8598H12.0574C12.4703 15.8598 12.7936 15.7663 13.0273 15.5794C13.2688 15.3846 13.3895 15.1042 13.3895 14.738C13.3895 14.403 13.2805 14.1538 13.0623 13.9902C12.8442 13.8188 12.4976 13.7331 12.0223 13.7331H10.959Z" fill="white"/>
<path d="M21.6291 11.805C22.2445 11.805 22.8015 11.8907 23.3001 12.0621C23.8065 12.2257 24.2466 12.4399 24.6205 12.7048L23.6623 14.2122C23.0859 13.8538 22.4471 13.6747 21.7459 13.6747C21.0838 13.6747 20.5501 13.8811 20.145 14.294C19.7477 14.6991 19.5491 15.295 19.5491 16.0818C19.5491 16.8453 19.7361 17.4412 20.11 17.8697C20.4917 18.2904 20.9825 18.5007 21.5823 18.5007C22.1043 18.5007 22.5328 18.3839 22.8677 18.1502V16.8881H21.0565V15.2756H24.7958V19.2018C24.4141 19.5602 23.9389 19.8445 23.3702 20.0549C22.8093 20.2652 22.19 20.3704 21.5122 20.3704C20.8033 20.3704 20.1334 20.2185 19.5023 19.9146C18.8791 19.6108 18.3689 19.1473 17.9716 18.5241C17.582 17.8931 17.3873 17.1102 17.3873 16.1753C17.3873 15.2483 17.5782 14.4576 17.9599 13.8032C18.3416 13.141 18.8519 12.6424 19.4907 12.3075C20.1372 11.9725 20.8501 11.805 21.6291 11.805Z" fill="white"/>
</g>
<defs>
<clipPath id="clip0_1967_17726">
<rect width="32" height="32" fill="white"/>
</clipPath>
</defs>
</svg>
