<svg width="64" height="64" viewBox="0 0 64 64" fill="none" xmlns="http://www.w3.org/2000/svg">
<path d="M58.6399 38.5928C56.617 53.1573 44.1643 64 29.46 64C13.1897 64 0 50.8103 0 34.54V8.88889L64 0L58.6399 38.5928Z" fill="black"/>
<path d="M30.5123 40.8889H25.7337L22.4234 35.3636H22.0501H19.9843V40.8889H15.6786V23.4667H22.4483C24.9372 23.4667 26.779 23.9562 27.9737 24.9351C29.1683 25.9141 29.7657 27.2913 29.7657 29.0667C29.7657 30.4107 29.4753 31.539 28.8946 32.4516C28.3304 33.3476 27.534 34.0279 26.5052 34.4925L30.5123 40.8889ZM19.9843 27.1502V31.68H22.3239C23.2033 31.68 23.8919 31.4809 24.3897 31.0827C24.904 30.6679 25.1612 30.0705 25.1612 29.2907C25.1612 28.5772 24.9289 28.0462 24.4643 27.6978C23.9997 27.3327 23.2614 27.1502 22.2492 27.1502H19.9843Z" fill="white"/>
<path d="M42.6112 40.8889H38.3054V27.1502H33.2281V23.4667H47.6886V27.1502H42.6112V40.8889Z" fill="white"/>
</svg>
