<svg width="64" height="64" viewBox="0 0 64 64" fill="none" xmlns="http://www.w3.org/2000/svg">
<path d="M62 32C62 48.5685 48.5685 62 32 62C15.4315 62 2 48.5685 2 32C2 15.4315 15.4315 2 32 2C48.5685 2 62 15.4315 62 32Z" fill="black"/>
<path fill-rule="evenodd" clip-rule="evenodd" d="M5.24367 31.9998L10.7958 37.5433L12.335 36.0129L8.32194 31.9998L12.335 27.9781L10.7958 26.439L5.24367 31.9998ZM14.4089 31.9998L18.4219 36.0042L16.8828 37.5433L11.3306 31.9998L16.8828 26.439L18.4219 27.9868L14.4089 31.9998ZM58.7563 31.9998L53.2042 37.5433L51.665 36.0129L55.6781 31.9998L51.665 27.9781L53.2042 26.439L58.7563 31.9998ZM45.5781 36.0042L49.5911 31.9998L45.5781 27.9868L47.1172 26.439L52.6694 31.9998L47.1172 37.5433L45.5781 36.0042Z" fill="white"/>
</svg>
