<svg width="32" height="32" viewBox="0 0 32 32" fill="none" xmlns="http://www.w3.org/2000/svg">
<path d="M31 16C31 24.2843 24.2843 31 16 31C7.71573 31 1 24.2843 1 16C1 7.71573 7.71573 1 16 1C24.2843 1 31 7.71573 31 16Z" fill="#0E141B"/>
<path fill-rule="evenodd" clip-rule="evenodd" d="M16 27.7392C22.4833 27.7392 27.7391 22.4834 27.7391 16C27.7391 9.51668 22.4833 4.26089 16 4.26089C9.51666 4.26089 4.26087 9.51668 4.26087 16C4.26087 22.4834 9.51666 27.7392 16 27.7392ZM16 29.0435C23.2037 29.0435 29.0435 23.2037 29.0435 16C29.0435 8.79631 23.2037 2.95654 16 2.95654C8.79628 2.95654 2.95652 8.79631 2.95652 16C2.95652 23.2037 8.79628 29.0435 16 29.0435Z" fill="white"/>
</svg>
