<svg width="32" height="32" viewBox="0 0 32 32" fill="none" xmlns="http://www.w3.org/2000/svg">
<path d="M31 16C31 24.2843 24.2843 31 16 31C7.71573 31 1 24.2843 1 16C1 7.71573 7.71573 1 16 1C24.2843 1 31 7.71573 31 16Z" fill="#0E141B"/>
<path fill-rule="evenodd" clip-rule="evenodd" d="M2.62184 15.9999L5.39792 18.7717L6.16749 18.0064L4.16097 15.9999L6.16749 13.989L5.39792 13.2195L2.62184 15.9999ZM7.20445 15.9999L9.21097 18.0021L8.4414 18.7717L5.66532 15.9999L8.4414 13.2195L9.21097 13.9934L7.20445 15.9999ZM29.3782 15.9999L26.6021 18.7717L25.8325 18.0064L27.839 15.9999L25.8325 13.989L26.6021 13.2195L29.3782 15.9999ZM22.789 18.0021L24.7956 15.9999L22.789 13.9934L23.5586 13.2195L26.3347 15.9999L23.5586 18.7717L22.789 18.0021Z" fill="white"/>
</svg>
