<svg width="64" height="64" viewBox="0 0 64 64" fill="none" xmlns="http://www.w3.org/2000/svg">
<path fill-rule="evenodd" clip-rule="evenodd" d="M16 16C7.16344 16 0 23.1634 0 32C0 40.8366 7.16344 48 16 48H48C56.8366 48 64 40.8366 64 32C64 23.1634 56.8366 16 48 16H16ZM15.2 22.6667H35.7334V26.4H18.9334V33.8667H26.4V37.6H15.2V22.6667ZM30.1333 30.1333H48.7999V41.3333H30.1333V30.1333Z" fill="black"/>
<path fill-rule="evenodd" clip-rule="evenodd" d="M35.7334 22.6666H15.2001V37.6H26.4001V33.8666H18.9334V26.4H35.7334V22.6666ZM48.8 30.1333H30.1333V41.3333H48.8V30.1333Z" fill="white"/>
</svg>
