<svg width="64" height="64" viewBox="0 0 64 64" fill="none" xmlns="http://www.w3.org/2000/svg">
<path d="M4.57141 12.1904C4.57141 10.5073 5.93588 9.14282 7.61903 9.14282H56.3809C58.0641 9.14282 59.4286 10.5073 59.4286 12.1904V60.9523C59.4286 62.6355 58.0641 64 56.3809 64H7.61903C5.93588 64 4.57141 62.6355 4.57141 60.9523V12.1904Z" fill="black"/>
<path fill-rule="evenodd" clip-rule="evenodd" d="M12.1904 16.7619V56.3809H51.8095V16.7619H12.1904ZM10.6666 13.7142C9.82506 13.7142 9.14282 14.3965 9.14282 15.238V57.9047C9.14282 58.7463 9.82506 59.4285 10.6666 59.4285H53.3333C54.1749 59.4285 54.8571 58.7463 54.8571 57.9047V15.238C54.8571 14.3965 54.1749 13.7142 53.3333 13.7142H10.6666Z" fill="#67707B"/>
<path d="M19.8096 3.04761L32 16.7619L44.1904 3.04761H19.8096Z" fill="white"/>
<path fill-rule="evenodd" clip-rule="evenodd" d="M32.0001 21.3492L13.0231 0H50.977L32.0001 21.3492ZM32.0001 16.7619L44.1905 3.04762H19.8096L32.0001 16.7619Z" fill="black"/>
<path d="M37.7375 44.1904H27.2842V29.2571H30.9748V40.8624H37.7375V44.1904Z" fill="white"/>
</svg>
