<svg width="32" height="32" viewBox="0 0 32 32" fill="none" xmlns="http://www.w3.org/2000/svg">
<path d="M1.52293 6.39376C1.66641 4.29542 3.41038 2.66663 5.51361 2.66663H26.4864C28.5896 2.66663 30.3336 4.29542 30.4771 6.39376L31.7078 24.3938C31.8659 26.7049 30.0337 28.6666 27.7172 28.6666H4.28284C1.96629 28.6666 0.134134 26.7049 0.292162 24.3938L1.52293 6.39376Z" fill="#0E141B"/>
<path d="M20.6966 21.3888H13.1766V10.1888H15.5286V19.2768H20.6966V21.3888Z" fill="white"/>
<path d="M3.86732 6.8575C3.94208 5.81089 4.81296 5 5.86224 5H26.1378C27.187 5 28.0579 5.8109 28.1327 6.85751L29.347 23.8575C29.4297 25.0152 28.5127 26 27.352 26H4.64795C3.48727 26 2.57034 25.0152 2.65304 23.8575L3.86732 6.8575Z" stroke="white" stroke-width="1.5"/>
</svg>
