<svg width="64" height="64" viewBox="0 0 64 64" fill="none" xmlns="http://www.w3.org/2000/svg">
<g clip-path="url(#clip0_1967:16722)">
<path d="M8.99365 2.55626C8.99365 1.14448 10.1381 0 11.5499 0H52.4501C53.8619 0 55.0064 1.14448 55.0064 2.55626V43.4564C55.0064 44.8682 53.8619 46.0127 52.4501 46.0127H11.5499C10.1381 46.0127 8.99365 44.8682 8.99365 43.4564V2.55626Z" fill="black"/>
<path fill-rule="evenodd" clip-rule="evenodd" d="M15.3843 6.39073V39.6221H48.6157V6.39073H15.3843ZM14.1061 3.83447C13.4002 3.83447 12.828 4.40671 12.828 5.1126V40.9003C12.828 41.6062 13.4002 42.1784 14.1061 42.1784H49.8938C50.5997 42.1784 51.1719 41.6062 51.1719 40.9003V5.1126C51.1719 4.40671 50.5997 3.83447 49.8938 3.83447H14.1061Z" fill="#67707B"/>
<path d="M39.6687 51.1252L32 60.0722L24.3312 51.1252H39.6687Z" fill="white"/>
<path fill-rule="evenodd" clip-rule="evenodd" d="M45.2268 48.5688L32.0001 64L18.7734 48.5688H45.2268ZM39.6689 51.1251H24.3313L32.0001 60.072L39.6689 51.1251Z" fill="black"/>
<path d="M36.8124 29.3969H28.0444V16.8712H31.1401V26.6055H36.8124V29.3969Z" fill="white"/>
</g>
<defs>
<clipPath id="clip0_1967:16722">
<rect width="64" height="64" fill="white"/>
</clipPath>
</defs>
</svg>
