<svg width="64" height="64" viewBox="0 0 64 64" fill="none" xmlns="http://www.w3.org/2000/svg">
<g clip-path="url(#clip0_1967:16544)">
<path d="M0 42.3333C0 52.1517 5.96954 60.1111 13.3333 60.1111H61.3333C62.8061 60.1111 64 58.5192 64 56.5556V6.77778C64 4.81411 62.8061 3.22223 61.3333 3.22223H2.66667C1.19391 3.22223 0 4.81411 0 6.77778V42.3333Z" fill="black"/>
<path d="M29.942 40.5557H17.7465V23.1334H22.0522V36.673H29.942V40.5557Z" fill="white"/>
<path d="M38.9407 36.8472H46.7558V40.5557H33.49V37.0214L38.5176 32.9397C39.2974 32.2926 39.8865 31.7782 40.2847 31.3966C40.6829 31.0149 40.9899 30.625 41.2056 30.2268C41.4379 29.8286 41.554 29.3889 41.554 28.9077C41.554 28.161 41.2636 27.5969 40.6829 27.2152C40.1188 26.8336 39.397 26.6428 38.5176 26.6428C37.8539 26.6428 37.1985 26.7423 36.5514 26.9414C35.9042 27.124 35.3235 27.3729 34.8091 27.6881L33.4154 24.5023C34.2118 23.988 35.0995 23.5814 36.0785 23.2828C37.074 22.9841 38.1359 22.8348 39.2642 22.8348C41.3549 22.8348 43.0391 23.2745 44.3167 24.1539C45.5943 25.0167 46.2331 26.2943 46.2331 27.9868C46.2331 29.1483 45.9013 30.2102 45.2376 31.1726C44.5905 32.1183 43.5866 33.1388 42.226 34.2339L38.9407 36.8472Z" fill="white"/>
</g>
<defs>
<clipPath id="clip0_1967:16544">
<rect width="64" height="64" fill="white"/>
</clipPath>
</defs>
</svg>
