<svg width="64" height="64" viewBox="0 0 64 64" fill="none" xmlns="http://www.w3.org/2000/svg">
<g clip-path="url(#clip0_1967:16818)">
<path d="M0 11.5266C0 10.1132 1.14578 8.96741 2.55918 8.96741H43.5061C44.9195 8.96741 46.0653 10.1132 46.0653 11.5266V52.4735C46.0653 53.8869 44.9195 55.0327 43.5061 55.0327H2.55918C1.14579 55.0327 0 53.8869 0 52.4735V11.5266Z" fill="black"/>
<path fill-rule="evenodd" clip-rule="evenodd" d="M6.39793 15.3653V48.6347H39.6673V15.3653H6.39793ZM5.11834 12.8062C4.41164 12.8062 3.83875 13.379 3.83875 14.0857V49.9143C3.83875 50.621 4.41164 51.1939 5.11834 51.1939H40.9469C41.6536 51.1939 42.2265 50.621 42.2265 49.9143V14.0857C42.2265 13.379 41.6536 12.8062 40.9469 12.8062H5.11834Z" fill="#67707B"/>
<path d="M51.1836 24.3224L60.1407 31.9999L51.1836 39.6775L51.1836 24.3224Z" fill="white"/>
<path fill-rule="evenodd" clip-rule="evenodd" d="M48.6244 18.7582L64.0731 31.9999L48.6244 45.2417L48.6244 18.7582ZM51.1836 24.3224L51.1836 39.6775L60.1407 31.9999L51.1836 24.3224Z" fill="black"/>
<path d="M27.8506 38.3979H19.0726V25.8579H22.1718V35.6033H27.8506V38.3979Z" fill="white"/>
</g>
<defs>
<clipPath id="clip0_1967:16818">
<rect width="64" height="64" fill="white"/>
</clipPath>
</defs>
</svg>
