<svg width="32" height="32" viewBox="0 0 32 32" fill="none" xmlns="http://www.w3.org/2000/svg">
<path d="M0 2C0 0.895431 0.895431 0 2 0H30C31.1046 0 32 0.895431 32 2V30C32 31.1046 31.1046 32 30 32H2C0.895431 32 0 31.1046 0 30V2Z" fill="#0E141B"/>
<path d="M14.8415 22H7.32153V10.8H9.67353V19.888H14.8415V22Z" fill="white"/>
<path d="M24.3329 10.8V12.8H19.4369V15.424C19.7462 15.232 20.0929 15.0933 20.4769 15.008C20.8715 14.912 21.2662 14.864 21.6609 14.864C22.6635 14.864 23.4635 15.152 24.0609 15.728C24.6689 16.2933 24.9729 17.12 24.9729 18.208C24.9729 19.0187 24.7809 19.728 24.3969 20.336C24.0235 20.944 23.4742 21.4187 22.7489 21.76C22.0342 22.0907 21.1862 22.256 20.2049 22.256C19.4795 22.256 18.8022 22.16 18.1729 21.968C17.5435 21.776 17.0209 21.504 16.6049 21.152L17.4369 19.36C18.2582 19.9147 19.1702 20.192 20.1729 20.192C20.9302 20.192 21.5169 20.0267 21.9329 19.696C22.3489 19.3653 22.5569 18.8907 22.5569 18.272C22.5569 17.728 22.3969 17.312 22.0769 17.024C21.7675 16.736 21.3409 16.592 20.7969 16.592C20.3915 16.592 20.0182 16.6613 19.6769 16.8C19.3355 16.928 18.9995 17.1253 18.6689 17.392L17.1809 16.576V10.8H24.3329Z" fill="white"/>
</svg>
