<svg width="64" height="64" viewBox="0 0 64 64" fill="none" xmlns="http://www.w3.org/2000/svg">
<g clip-path="url(#clip0_1967:16786)">
<path d="M17.9347 11.5266C17.9347 10.1132 19.0805 8.96741 20.4939 8.96741H61.4408C62.8542 8.96741 63.9999 10.1132 63.9999 11.5266V52.4735C63.9999 53.8869 62.8542 55.0327 61.4408 55.0327H20.4939C19.0805 55.0327 17.9347 53.8869 17.9347 52.4735V11.5266Z" fill="black"/>
<path fill-rule="evenodd" clip-rule="evenodd" d="M24.3327 15.3653V48.6347H57.6021V15.3653H24.3327ZM23.0532 12.8062C22.3465 12.8062 21.7736 13.379 21.7736 14.0857V49.9143C21.7736 50.621 22.3465 51.1939 23.0532 51.1939H58.8817C59.5884 51.1939 60.1613 50.621 60.1613 49.9143V14.0857C60.1613 13.379 59.5884 12.8062 58.8817 12.8062H23.0532Z" fill="#67707B"/>
<path d="M12.8164 39.6776L3.85927 32.0001L12.8164 24.3225L12.8164 39.6776Z" fill="white"/>
<path fill-rule="evenodd" clip-rule="evenodd" d="M15.3756 45.2418L-0.0731178 32.0001L15.3756 18.7583L15.3756 45.2418ZM12.8164 39.6776L12.8164 24.3225L3.8593 32.0001L12.8164 39.6776Z" fill="black"/>
<path d="M45.7854 38.3979H37.0074V25.8579H40.1066V35.6033H45.7854V38.3979Z" fill="white"/>
</g>
<defs>
<clipPath id="clip0_1967:16786">
<rect width="64" height="64" fill="white"/>
</clipPath>
</defs>
</svg>
