<svg width="64" height="64" viewBox="0 0 64 64" fill="none" xmlns="http://www.w3.org/2000/svg">
<path d="M3 6.22222C3 4.44264 4.44264 3 6.22222 3H57.7778C59.5574 3 61 4.44264 61 6.22222V57.7778C61 59.5574 59.5574 61 57.7778 61H6.22222C4.44264 61 3 59.5574 3 57.7778V6.22222Z" fill="black"/>
<path fill-rule="evenodd" clip-rule="evenodd" d="M11.0556 11.0556V52.9445H52.9445V11.0556H11.0556ZM9.44449 7.83337C8.55469 7.83337 7.83337 8.55469 7.83337 9.44449V54.5556C7.83337 55.4454 8.55469 56.1667 9.44449 56.1667H54.5556C55.4454 56.1667 56.1667 55.4454 56.1667 54.5556V9.44449C56.1667 8.55469 55.4454 7.83337 54.5556 7.83337H9.44449Z" fill="#67707B"/>
<path d="M38.0663 40.0555H27.014V24.2666H30.9161V36.5368H38.0663V40.0555Z" fill="white"/>
</svg>
