<svg width="64" height="64" viewBox="0 0 64 64" fill="none" xmlns="http://www.w3.org/2000/svg">
<path d="M3 5.7619C3 4.23655 4.23655 3 5.7619 3H58.2381C59.7635 3 61 4.23655 61 5.7619V58.2381C61 59.7635 59.7635 61 58.2381 61H5.7619C4.23655 61 3 59.7635 3 58.2381V5.7619Z" fill="black"/>
<path d="M29.5189 42.6335H15.8889V22.3335H20.1519V38.8055H29.5189V42.6335Z" fill="white"/>
<path d="M45.9969 22.3335V34.7455H48.9259V38.0225H45.9969V42.6335H41.6759V38.0225H32.1059V35.2385L42.0529 22.3335H45.9969ZM41.8499 27.4085L36.2529 34.7455H41.8499V27.4085Z" fill="white"/>
</svg>
