<svg width="64" height="64" viewBox="0 0 64 64" fill="none" xmlns="http://www.w3.org/2000/svg">
<g clip-path="url(#clip0_1967:16754)">
<path d="M8.96741 20.4939C8.96741 19.0805 10.1132 17.9347 11.5266 17.9347H52.4735C53.8869 17.9347 55.0327 19.0805 55.0327 20.4939V61.4408C55.0327 62.8542 53.8869 63.9999 52.4735 63.9999H11.5266C10.1132 63.9999 8.96741 62.8542 8.96741 61.4408V20.4939Z" fill="black"/>
<path fill-rule="evenodd" clip-rule="evenodd" d="M15.3653 24.3327V57.6021H48.6347V24.3327H15.3653ZM14.0857 21.7736C13.379 21.7736 12.8062 22.3465 12.8062 23.0532V58.8817C12.8062 59.5884 13.379 60.1613 14.0857 60.1613H49.9143C50.621 60.1613 51.1939 59.5884 51.1939 58.8817V23.0532C51.1939 22.3465 50.621 21.7736 49.9143 21.7736H14.0857Z" fill="#67707B"/>
<path d="M24.3224 12.8164L31.9999 3.85927L39.6775 12.8164L24.3224 12.8164Z" fill="white"/>
<path fill-rule="evenodd" clip-rule="evenodd" d="M18.7582 15.3756L31.9999 -0.0731184L45.2417 15.3756L18.7582 15.3756ZM24.3224 12.8164L39.6775 12.8164L31.9999 3.85929L24.3224 12.8164Z" fill="black"/>
<path d="M36.818 47.3653H28.04V34.8253H31.1392V44.5707H36.818V47.3653Z" fill="white"/>
</g>
<defs>
<clipPath id="clip0_1967:16754">
<rect width="64" height="64" fill="white"/>
</clipPath>
</defs>
</svg>
