<svg width="32" height="32" viewBox="0 0 32 32" fill="none" xmlns="http://www.w3.org/2000/svg">
<path d="M6.667 30.444C2.985 30.444 0 27.503 0 22.594C0 22.594 0.556 18.371 0.75 16.625C0.916 15.132 1.25 13.156 0.844 8.687C0.732 7.458 0 3.778 0 3.778C0 2.796 0.597 2 1.333 2H30.666C31.402 2 32 2.796 32 3.778V28.666C32 29.648 31.402 30.444 30.666 30.444H6.667Z" fill="#0E141B"/>
<path d="M15.8086 22.4444H8.28857V11.2444H10.6406V20.3324H15.8086V22.4444Z" fill="white"/>
<path d="M20.4519 20.4124H25.8439V22.4444H17.4759V20.4924L20.7079 17.8044L20.9799 17.5644C21.4706 17.1484 21.8439 16.8124 22.0999 16.5564C22.3666 16.3004 22.5799 16.0284 22.7399 15.7404C22.8999 15.4524 22.9799 15.1378 22.9799 14.7964C22.9799 14.2418 22.7772 13.8258 22.3719 13.5484C21.9772 13.2604 21.4652 13.1164 20.8359 13.1164C20.3666 13.1164 19.9079 13.1911 19.4599 13.3404C19.0226 13.4898 18.6386 13.6764 18.3079 13.9004L17.5079 12.1724C17.9986 11.8311 18.5586 11.5591 19.1879 11.3564C19.8279 11.1538 20.5106 11.0524 21.2359 11.0524C22.5266 11.0524 23.5612 11.3351 24.3399 11.9004C25.1186 12.4658 25.5079 13.2711 25.5079 14.3164C25.5079 15.0844 25.2839 15.7831 24.8359 16.4124C24.3879 17.0311 23.6999 17.7244 22.7719 18.4924L20.4519 20.4124Z" fill="white"/>
</svg>
