<svg width="64" height="64" viewBox="0 0 64 64" fill="none" xmlns="http://www.w3.org/2000/svg">
<path opacity="0.5" fill-rule="evenodd" clip-rule="evenodd" d="M13.3333 60.1112C5.96954 60.1112 0 52.1518 0 42.3334V6.77785C0 4.81417 1.19391 3.22229 2.66667 3.22229H61.3333C62.8061 3.22229 64 4.81417 64 6.77785V56.5556C64 58.5193 62.8061 60.1112 61.3333 60.1112H13.3333ZM46.7558 36.8473H38.9407L42.226 34.234C43.5866 33.1389 44.5905 32.1184 45.2376 31.1726C45.9013 30.2103 46.2331 29.1483 46.2331 27.9869C46.2331 26.2944 45.5943 25.0168 44.3167 24.154C43.0391 23.2746 41.3549 22.8349 39.2642 22.8349C38.1359 22.8349 37.074 22.9842 36.0785 23.2829C35.0995 23.5815 34.2118 23.988 33.4154 24.5024L34.8091 27.6882C35.3235 27.3729 35.9042 27.124 36.5514 26.9415C37.1985 26.7424 37.8539 26.6429 38.5176 26.6429C39.397 26.6429 40.1188 26.8337 40.6829 27.2153C41.2637 27.5969 41.554 28.1611 41.554 28.9077C41.554 29.3889 41.4379 29.8286 41.2056 30.2269C40.9899 30.6251 40.6829 31.015 40.2847 31.3966C39.8865 31.7783 39.2974 32.2926 38.5176 32.9397L33.49 37.0215V40.5557H46.7558V36.8473ZM17.7465 40.5557H29.942V36.6731H22.0522V23.1335H17.7465V40.5557Z" fill="black"/>
<path d="M63.9996 6.7779V56.5557C63.9996 57.4145 63.7712 58.2022 63.3911 58.8167L0.618042 4.50097C1.10721 3.71955 1.84319 3.22235 2.66627 3.22235H61.3329C62.8057 3.22235 63.9996 4.81422 63.9996 6.7779Z" fill="black"/>
<path d="M29.942 40.556H17.7465V23.1337H22.0522V36.6733H29.942V40.556Z" fill="white"/>
<path d="M38.9407 36.8475H46.7558V40.556H33.49V37.0218L38.5176 32.94C39.2974 32.2929 39.8865 31.7785 40.2847 31.3969C40.6829 31.0152 40.9899 30.6253 41.2056 30.2271C41.4379 29.8289 41.554 29.3892 41.554 28.908C41.554 28.1613 41.2636 27.5972 40.6829 27.2155C40.1188 26.8339 39.397 26.6431 38.5176 26.6431C37.8539 26.6431 37.1985 26.7426 36.5514 26.9417C35.9042 27.1243 35.3235 27.3732 34.8091 27.6884L33.4154 24.5026C34.2118 23.9883 35.0995 23.5817 36.0785 23.2831C37.074 22.9844 38.1359 22.8351 39.2642 22.8351C41.3549 22.8351 43.0391 23.2748 44.3167 24.1542C45.5943 25.017 46.2331 26.2946 46.2331 27.9871C46.2331 29.1486 45.9013 30.2105 45.2376 31.1729C44.5905 32.1186 43.5866 33.1391 42.226 34.2342L38.9407 36.8475Z" fill="white"/>
</svg>
