<svg width="64" height="64" viewBox="0 0 64 64" fill="none" xmlns="http://www.w3.org/2000/svg">
<path d="M3 5.7619C3 4.23655 4.23655 3 5.7619 3H58.2381C59.7635 3 61 4.23655 61 5.7619V58.2381C61 59.7635 59.7635 61 58.2381 61H5.7619C4.23655 61 3 59.7635 3 58.2381V5.7619Z" fill="black"/>
<path d="M29.5189 42.6335H15.8889V22.3335H20.1519V38.8055H29.5189V42.6335Z" fill="white"/>
<path d="M46.7219 22.3335V25.9585H37.8479V30.7145C38.4086 30.3665 39.0369 30.1152 39.7329 29.9605C40.4483 29.7865 41.1636 29.6995 41.8789 29.6995C43.6963 29.6995 45.1463 30.2215 46.2289 31.2655C47.3309 32.2902 47.8819 33.7885 47.8819 35.7605C47.8819 37.2298 47.5339 38.5155 46.8379 39.6175C46.1613 40.7195 45.1656 41.5798 43.8509 42.1985C42.5556 42.7978 41.0186 43.0975 39.2399 43.0975C37.9253 43.0975 36.6976 42.9235 35.5569 42.5755C34.4163 42.2275 33.4689 41.7345 32.7149 41.0965L34.2229 37.8485C35.7116 38.8538 37.3646 39.3565 39.1819 39.3565C40.5546 39.3565 41.6179 39.0568 42.3719 38.4575C43.1259 37.8582 43.5029 36.9978 43.5029 35.8765C43.5029 34.8905 43.2129 34.1365 42.6329 33.6145C42.0723 33.0925 41.2989 32.8315 40.3129 32.8315C39.5783 32.8315 38.9016 32.9572 38.2829 33.2085C37.6643 33.4405 37.0553 33.7982 36.4559 34.2815L33.7589 32.8025V22.3335H46.7219Z" fill="white"/>
</svg>
