<svg width="32" height="32" viewBox="0 0 32 32" fill="none" xmlns="http://www.w3.org/2000/svg">
<path d="M32 21.5556C32 26.4648 29.0152 30.4445 25.3333 30.4445H1.33333C0.596953 30.4445 -9.53674e-07 29.6485 -9.53674e-07 28.6667V3.77779C-9.53674e-07 2.79595 0.596953 2.00001 1.33333 2.00001H30.6667C31.403 2.00001 32 2.79595 32 3.77779V21.5556Z" fill="#0E141B"/>
<path d="M15.747 22.4445H13.139L10.883 18.6685H10.611H8.94697V22.4445H6.59497V11.2445H10.787C12.323 11.2445 13.4536 11.5538 14.179 12.1725C14.9043 12.7805 15.267 13.6338 15.267 14.7325C15.267 15.5965 15.075 16.3165 14.691 16.8925C14.3176 17.4685 13.7896 17.9058 13.107 18.2045L15.747 22.4445ZM8.94697 13.2445V16.6525H10.787C11.4056 16.6525 11.8856 16.4978 12.227 16.1885C12.579 15.8685 12.755 15.4312 12.755 14.8765C12.755 14.3325 12.5843 13.9272 12.243 13.6605C11.9123 13.3832 11.379 13.2445 10.643 13.2445H8.94697Z" fill="white"/>
<path d="M20.3677 20.4125H25.7597V22.4445H17.3917V20.4925L20.6237 17.8045L20.8957 17.5645C21.3863 17.1485 21.7597 16.8125 22.0157 16.5565C22.2823 16.3005 22.4957 16.0285 22.6557 15.7405C22.8157 15.4525 22.8957 15.1378 22.8957 14.7965C22.8957 14.2418 22.693 13.8258 22.2877 13.5485C21.893 13.2605 21.381 13.1165 20.7517 13.1165C20.2823 13.1165 19.8237 13.1912 19.3757 13.3405C18.9383 13.4898 18.5543 13.6765 18.2237 13.9005L17.4237 12.1725C17.9143 11.8312 18.4743 11.5592 19.1037 11.3565C19.7437 11.1538 20.4263 11.0525 21.1517 11.0525C22.4423 11.0525 23.477 11.3352 24.2557 11.9005C25.0343 12.4658 25.4237 13.2712 25.4237 14.3165C25.4237 15.0845 25.1997 15.7832 24.7517 16.4125C24.3037 17.0312 23.6157 17.7245 22.6877 18.4925L20.3677 20.4125Z" fill="white"/>
</svg>
