<svg width="64" height="64" viewBox="0 0 64 64" fill="none" xmlns="http://www.w3.org/2000/svg">
<g clip-path="url(#clip0_1967:16710)">
<path d="M8.96741 2.55918C8.96741 1.14579 10.1132 0 11.5266 0H52.4735C53.8869 0 55.0327 1.14578 55.0327 2.55918V43.5061C55.0327 44.9195 53.8869 46.0653 52.4735 46.0653H11.5266C10.1132 46.0653 8.96741 44.9195 8.96741 43.5061V2.55918Z" fill="black"/>
<path fill-rule="evenodd" clip-rule="evenodd" d="M15.3653 6.39793V39.6673H48.6347V6.39793H15.3653ZM14.0857 3.83875C13.379 3.83875 12.8062 4.41164 12.8062 5.11834V40.9469C12.8062 41.6536 13.379 42.2265 14.0857 42.2265H49.9143C50.621 42.2265 51.1939 41.6536 51.1939 40.9469V5.11834C51.1939 4.41164 50.621 3.83875 49.9143 3.83875H14.0857Z" fill="#67707B"/>
<path d="M39.6776 51.1836L32.0001 60.1407L24.3225 51.1836H39.6776Z" fill="white"/>
<path fill-rule="evenodd" clip-rule="evenodd" d="M45.2418 48.6244L32.0001 64.0731L18.7583 48.6244H45.2418ZM39.6776 51.1836H24.3225L32.0001 60.1407L39.6776 51.1836Z" fill="black"/>
<path d="M37.8072 29.4305H34.3676L31.985 25.4535H31.7163H30.2294V29.4305H27.1302V16.8905H32.0029C33.7944 16.8905 35.12 17.2428 35.9799 17.9474C36.8398 18.6521 37.2697 19.6433 37.2697 20.9212C37.2697 21.8886 37.0607 22.7007 36.6427 23.3576C36.2367 24.0025 35.6634 24.4921 34.923 24.8265L37.8072 29.4305ZM30.2294 19.5418V22.8022H31.9134C32.5463 22.8022 33.042 22.6589 33.4002 22.3723C33.7705 22.0737 33.9556 21.6438 33.9556 21.0824C33.9556 20.5689 33.7884 20.1867 33.454 19.9359C33.1196 19.6732 32.5881 19.5418 31.8596 19.5418H30.2294Z" fill="white"/>
</g>
<defs>
<clipPath id="clip0_1967:16710">
<rect width="64" height="64" fill="white"/>
</clipPath>
</defs>
</svg>
