<svg width="32" height="32" viewBox="0 0 32 32" fill="none" xmlns="http://www.w3.org/2000/svg">
<g clip-path="url(#clip0_2700_29008)">
<path d="M0.831052 9.39862C0.97271 7.29875 2.71734 5.66785 4.82198 5.66785H19.1281C21.2327 5.66785 22.9774 7.29875 23.119 9.39862L23.9409 21.5814C24.0967 23.8913 22.2651 25.8507 19.95 25.8507H4.00013C1.68502 25.8507 -0.146629 23.8913 0.00919494 21.5814L0.831052 9.39862Z" fill="#0E141B"/>
<path d="M16.0311 20.3979H13.9256L12.1042 17.3493H11.8846H10.5411V20.3979H8.64221V11.3555H12.0266C13.2667 11.3555 14.1796 11.6052 14.7652 12.1047C15.3508 12.5956 15.6436 13.2845 15.6436 14.1715C15.6436 14.8691 15.4886 15.4504 15.1786 15.9154C14.8772 16.3805 14.4509 16.7335 13.8997 16.9747L16.0311 20.3979ZM10.5411 12.9702V15.7217H12.0266C12.5261 15.7217 12.9137 15.5968 13.1892 15.347C13.4734 15.0887 13.6155 14.7356 13.6155 14.2878C13.6155 13.8486 13.4777 13.5213 13.2022 13.306C12.9352 13.0821 12.5046 12.9702 11.9104 12.9702H10.5411Z" fill="white"/>
<path d="M26.9502 10.3333V21L32.2835 15.6667L26.9502 10.3333Z" fill="#0E141B"/>
</g>
<defs>
<clipPath id="clip0_2700_29008">
<rect width="32" height="32" fill="white"/>
</clipPath>
</defs>
</svg>
