<svg width="64" height="64" viewBox="0 0 64 64" fill="none" xmlns="http://www.w3.org/2000/svg">
<g clip-path="url(#clip0_1967:16572)">
<path d="M64 42.3333C64 52.1517 58.0305 60.1111 50.6667 60.1111H2.66667C1.19391 60.1111 0 58.5192 0 56.5556V6.77778C0 4.81411 1.19391 3.22223 2.66667 3.22223H61.3333C62.8061 3.22223 64 4.81411 64 6.77778V42.3333Z" fill="black"/>
<path d="M31.3164 40.5557H26.5378L23.2276 35.0303H22.8542H20.7884V40.5557H16.4827V23.1334H23.2524C25.7413 23.1334 27.5831 23.6229 28.7778 24.6019C29.9724 25.5809 30.5698 26.958 30.5698 28.7334C30.5698 30.0774 30.2794 31.2057 29.6987 32.1183C29.1345 33.0143 28.3381 33.6946 27.3093 34.1592L31.3164 40.5557ZM20.7884 26.817V31.3468H23.128C24.0074 31.3468 24.696 31.1477 25.1938 30.7494C25.7081 30.3346 25.9653 29.7373 25.9653 28.9574C25.9653 28.244 25.733 27.713 25.2684 27.3646C24.8039 26.9995 24.0655 26.817 23.0533 26.817H20.7884Z" fill="white"/>
<path d="M40.2047 36.8472H48.0198V40.5557H34.754V37.0214L39.7816 32.9397C40.5614 32.2926 41.1504 31.7782 41.5487 31.3966C41.9469 31.0149 42.2539 30.625 42.4696 30.2268C42.7019 29.8286 42.818 29.3889 42.818 28.9077C42.818 28.161 42.5276 27.5969 41.9469 27.2152C41.3827 26.8336 40.661 26.6428 39.7816 26.6428C39.1179 26.6428 38.4624 26.7423 37.8153 26.9414C37.1682 27.124 36.5875 27.3729 36.0731 27.6881L34.6793 24.5023C35.4758 23.988 36.3635 23.5814 37.3424 23.2828C38.338 22.9841 39.3999 22.8348 40.5282 22.8348C42.6189 22.8348 44.303 23.2745 45.5807 24.1539C46.8583 25.0167 47.4971 26.2943 47.4971 27.9868C47.4971 29.1483 47.1653 30.2102 46.5016 31.1726C45.8544 32.1183 44.8506 33.1388 43.49 34.2339L40.2047 36.8472Z" fill="white"/>
</g>
<defs>
<clipPath id="clip0_1967:16572">
<rect width="64" height="64" fill="white"/>
</clipPath>
</defs>
</svg>
