<svg width="64" height="64" viewBox="0 0 64 64" fill="none" xmlns="http://www.w3.org/2000/svg">
<g clip-path="url(#clip0_1967:16774)">
<path d="M17.9347 11.5266C17.9347 10.1132 19.0805 8.96741 20.4939 8.96741H61.4408C62.8542 8.96741 63.9999 10.1132 63.9999 11.5266V52.4735C63.9999 53.8869 62.8542 55.0327 61.4408 55.0327H20.4939C19.0805 55.0327 17.9347 53.8869 17.9347 52.4735V11.5266Z" fill="black"/>
<path fill-rule="evenodd" clip-rule="evenodd" d="M24.3327 15.3653V48.6347H57.6021V15.3653H24.3327ZM23.0532 12.8062C22.3465 12.8062 21.7736 13.379 21.7736 14.0857V49.9143C21.7736 50.621 22.3465 51.1939 23.0532 51.1939H58.8817C59.5884 51.1939 60.1613 50.621 60.1613 49.9143V14.0857C60.1613 13.379 59.5884 12.8062 58.8817 12.8062H23.0532Z" fill="#67707B"/>
<path d="M46.7746 38.3979H43.335L40.9524 34.4209H40.6837H39.1968V38.3979H36.0977V25.8579H40.9703C42.7618 25.8579 44.0874 26.2102 44.9473 26.9149C45.8072 27.6195 46.2371 28.6107 46.2371 29.8886C46.2371 30.856 46.0281 31.6681 45.6101 32.325C45.2041 32.9699 44.6308 33.4595 43.8904 33.7939L46.7746 38.3979ZM39.1968 28.5092V31.7696H40.8808C41.5137 31.7696 42.0094 31.6263 42.3676 31.3397C42.7379 31.0411 42.923 30.6112 42.923 30.0498C42.923 29.5363 42.7558 29.1541 42.4214 28.9033C42.087 28.6406 41.5555 28.5092 40.827 28.5092H39.1968Z" fill="white"/>
<path d="M12.8164 39.6776L3.85927 32.0001L12.8164 24.3225L12.8164 39.6776Z" fill="white"/>
<path fill-rule="evenodd" clip-rule="evenodd" d="M15.3756 45.2418L-0.0731178 32.0001L15.3756 18.7583L15.3756 45.2418ZM12.8164 39.6776L12.8164 24.3225L3.8593 32.0001L12.8164 39.6776Z" fill="black"/>
</g>
<defs>
<clipPath id="clip0_1967:16774">
<rect width="64" height="64" fill="white"/>
</clipPath>
</defs>
</svg>
