<svg width="64" height="64" viewBox="0 0 64 64" fill="none" xmlns="http://www.w3.org/2000/svg">
<g clip-path="url(#clip0_1967:16806)">
<path d="M0 11.5266C0 10.1132 1.14578 8.96741 2.55918 8.96741H43.5061C44.9195 8.96741 46.0653 10.1132 46.0653 11.5266V52.4735C46.0653 53.8869 44.9195 55.0327 43.5061 55.0327H2.55918C1.14579 55.0327 0 53.8869 0 52.4735V11.5266Z" fill="black"/>
<path fill-rule="evenodd" clip-rule="evenodd" d="M6.39793 15.3653V48.6347H39.6673V15.3653H6.39793ZM5.11834 12.8062C4.41164 12.8062 3.83875 13.379 3.83875 14.0857V49.9143C3.83875 50.621 4.41164 51.1939 5.11834 51.1939H40.9469C41.6536 51.1939 42.2265 50.621 42.2265 49.9143V14.0857C42.2265 13.379 41.6536 12.8062 40.9469 12.8062H5.11834Z" fill="#67707B"/>
<path d="M28.8399 38.3979H25.4003L23.0177 34.4209H22.749H21.2621V38.3979H18.163V25.8579H23.0356C24.8271 25.8579 26.1527 26.2102 27.0126 26.9149C27.8725 27.6195 28.3024 28.6107 28.3024 29.8886C28.3024 30.856 28.0934 31.6681 27.6754 32.325C27.2694 32.9699 26.6961 33.4595 25.9557 33.7939L28.8399 38.3979ZM21.2621 28.5092V31.7696H22.9461C23.579 31.7696 24.0747 31.6263 24.433 31.3397C24.8032 31.0411 24.9883 30.6112 24.9883 30.0498C24.9883 29.5363 24.8211 29.1541 24.4867 28.9033C24.1523 28.6406 23.6208 28.5092 22.8923 28.5092H21.2621Z" fill="white"/>
<path d="M51.1836 24.3224L60.1407 31.9999L51.1836 39.6775L51.1836 24.3224Z" fill="white"/>
<path fill-rule="evenodd" clip-rule="evenodd" d="M48.6244 18.7582L64.0731 31.9999L48.6244 45.2417L48.6244 18.7582ZM51.1836 24.3224L51.1836 39.6775L60.1407 31.9999L51.1836 24.3224Z" fill="black"/>
</g>
<defs>
<clipPath id="clip0_1967:16806">
<rect width="64" height="64" fill="white"/>
</clipPath>
</defs>
</svg>
