<svg width="32" height="32" viewBox="0 0 32 32" fill="none" xmlns="http://www.w3.org/2000/svg">
<g clip-path="url(#clip0_3338_26418)">
<path opacity="0.5" d="M25.333 30.444C29.015 30.444 32 27.503 32 22.594C32 22.594 31.444 18.371 31.25 16.625C31.084 15.132 30.75 13.156 31.156 8.687C31.268 7.458 32 3.778 32 3.778C32 2.796 31.403 2 30.667 2H1.334C0.598 2 0 2.796 0 3.778V28.666C0 29.648 0.598 30.444 1.334 30.444H25.333Z" fill="#0E141B"/>
<path d="M15.352 21.4444H12.744L10.488 17.6684H10.216H8.55195V21.4444H6.19995V10.2444H10.392C11.928 10.2444 13.0586 10.5537 13.784 11.1724C14.5093 11.7804 14.872 12.6337 14.872 13.7324C14.872 14.5964 14.68 15.3164 14.296 15.8924C13.9226 16.4684 13.3946 16.9057 12.712 17.2044L15.352 21.4444ZM8.55195 12.2444V15.6524H10.392C11.0106 15.6524 11.4906 15.4977 11.832 15.1884C12.184 14.8684 12.36 14.431 12.36 13.8764C12.36 13.3324 12.1893 12.927 11.848 12.6604C11.5173 12.383 10.984 12.2444 10.248 12.2444H8.55195Z" fill="white"/>
<path d="M19.9726 19.4124H25.3646V21.4444H16.9966V19.4924L20.2286 16.8044L20.5006 16.5644C20.9913 16.1484 21.3646 15.8124 21.6206 15.5564C21.8873 15.3004 22.1006 15.0284 22.2606 14.7404C22.4206 14.4524 22.5006 14.1377 22.5006 13.7964C22.5006 13.2417 22.298 12.8257 21.8926 12.5484C21.498 12.2604 20.986 12.1164 20.3566 12.1164C19.8873 12.1164 19.4286 12.191 18.9806 12.3404C18.5433 12.4897 18.1593 12.6764 17.8286 12.9004L17.0286 11.1724C17.5193 10.831 18.0793 10.559 18.7086 10.3564C19.3486 10.1537 20.0313 10.0524 20.7566 10.0524C22.0473 10.0524 23.082 10.335 23.8606 10.9004C24.6393 11.4657 25.0286 12.271 25.0286 13.3164C25.0286 14.0844 24.8046 14.783 24.3566 15.4124C23.9086 16.031 23.2206 16.7244 22.2926 17.4924L19.9726 19.4124Z" fill="white"/>
<path fill-rule="evenodd" clip-rule="evenodd" d="M0 28.6667V3.77777C0 2.79594 0.596952 2 1.33333 2H30.6667C31.0782 2 31.4462 2.2486 31.6908 2.63931L22.7799 10.3496C22.1953 10.1515 21.5208 10.0524 20.7567 10.0524C20.0314 10.0524 19.3487 10.1537 18.7087 10.3564C18.0794 10.559 17.5194 10.831 17.0287 11.1724L17.8287 12.9004C18.1594 12.6764 18.5434 12.4897 18.9807 12.3404C19.4287 12.191 19.8874 12.1164 20.3567 12.1164C20.4819 12.1164 20.6024 12.1221 20.7183 12.1335L13.4633 18.411L12.712 17.2044C13.3947 16.9057 13.9227 16.4684 14.296 15.8924C14.68 15.3164 14.872 14.5964 14.872 13.7324C14.872 12.6337 14.5093 11.7804 13.784 11.1724C13.0587 10.5537 11.928 10.2444 10.392 10.2444H6.2V21.4444H8.552V17.6684H10.216H10.488L11.7944 19.855L0.30427 29.7972C0.114182 29.4899 0 29.0961 0 28.6667ZM8.552 15.6524V12.2444H10.248C10.984 12.2444 11.5173 12.383 11.848 12.6604C12.1893 12.927 12.36 13.3324 12.36 13.8764C12.36 14.431 12.184 14.8684 11.832 15.1884C11.4907 15.4977 11.0107 15.6524 10.392 15.6524H8.552Z" fill="#0E141B"/>
</g>
<defs>
<clipPath id="clip0_3338_26418">
<rect width="32" height="32" fill="white"/>
</clipPath>
</defs>
</svg>
