<svg width="32" height="32" viewBox="0 0 32 32" fill="none" xmlns="http://www.w3.org/2000/svg">
<path d="M21.3333 7.33337H10.6666L16 2.00004L21.3333 7.33337Z" fill="#0E141B"/>
<path d="M4.83105 13.7308C4.97271 11.6309 6.71734 10 8.82198 10H23.1281C25.2327 10 26.9774 11.6309 27.119 13.7308L27.9409 25.9136C28.0967 28.2235 26.2651 30.1828 23.95 30.1828H8.00013C5.68502 30.1828 3.85337 28.2235 4.00919 25.9136L4.83105 13.7308Z" fill="#0E141B"/>
<path d="M20.0311 24.3979H17.9256L16.1042 21.3493H15.8846H14.5411V24.3979H12.6422V15.3555H16.0266C17.2667 15.3555 18.1796 15.6052 18.7652 16.1047C19.3508 16.5956 19.6436 17.2845 19.6436 18.1715C19.6436 18.8691 19.4886 19.4504 19.1786 19.9154C18.8772 20.3805 18.4509 20.7335 17.8997 20.9747L20.0311 24.3979ZM14.5411 16.9702V19.7217H16.0266C16.5261 19.7217 16.9137 19.5968 17.1892 19.347C17.4734 19.0887 17.6155 18.7356 17.6155 18.2878C17.6155 17.8486 17.4777 17.5213 17.2022 17.306C16.9352 17.0821 16.5046 16.9702 15.9104 16.9702H14.5411Z" fill="white"/>
</svg>
