<svg width="64" height="64" viewBox="0 0 64 64" fill="none" xmlns="http://www.w3.org/2000/svg">
<g clip-path="url(#clip0_1967:16742)">
<path d="M8.96741 20.4939C8.96741 19.0805 10.1132 17.9347 11.5266 17.9347H52.4735C53.8869 17.9347 55.0327 19.0805 55.0327 20.4939V61.4408C55.0327 62.8542 53.8869 63.9999 52.4735 63.9999H11.5266C10.1132 63.9999 8.96741 62.8542 8.96741 61.4408V20.4939Z" fill="black"/>
<path fill-rule="evenodd" clip-rule="evenodd" d="M15.3653 24.3327V57.6021H48.6347V24.3327H15.3653ZM14.0857 21.7736C13.379 21.7736 12.8062 22.3465 12.8062 23.0532V58.8817C12.8062 59.5884 13.379 60.1613 14.0857 60.1613H49.9143C50.621 60.1613 51.1939 59.5884 51.1939 58.8817V23.0532C51.1939 22.3465 50.621 21.7736 49.9143 21.7736H14.0857Z" fill="#67707B"/>
<path d="M37.8072 47.3653H34.3676L31.985 43.3883H31.7163H30.2294V47.3653H27.1302V34.8253H32.0029C33.7944 34.8253 35.12 35.1776 35.9799 35.8823C36.8398 36.5869 37.2697 37.5781 37.2697 38.856C37.2697 39.8234 37.0607 40.6355 36.6427 41.2924C36.2367 41.9373 35.6634 42.4269 34.923 42.7613L37.8072 47.3653ZM30.2294 37.4766V40.737H31.9134C32.5463 40.737 33.042 40.5937 33.4002 40.3071C33.7705 40.0085 33.9556 39.5786 33.9556 39.0173C33.9556 38.5037 33.7884 38.1215 33.454 37.8707C33.1196 37.608 32.5881 37.4766 31.8596 37.4766H30.2294Z" fill="white"/>
<path d="M24.3224 12.8164L31.9999 3.85927L39.6775 12.8164L24.3224 12.8164Z" fill="white"/>
<path fill-rule="evenodd" clip-rule="evenodd" d="M18.7582 15.3756L31.9999 -0.0731184L45.2417 15.3756L18.7582 15.3756ZM24.3224 12.8164L39.6775 12.8164L31.9999 3.85929L24.3224 12.8164Z" fill="black"/>
</g>
<defs>
<clipPath id="clip0_1967:16742">
<rect width="64" height="64" fill="white"/>
</clipPath>
</defs>
</svg>
