<svg width="32" height="32" viewBox="0 0 32 32" fill="none" xmlns="http://www.w3.org/2000/svg">
<path d="M21.3333 24.8889H10.6666L16 30.2222L21.3333 24.8889Z" fill="#0E141B"/>
<path d="M4.83105 5.73077C4.97271 3.63091 6.71734 2 8.82198 2H23.1281C25.2327 2 26.9774 3.63091 27.119 5.73077L27.9409 17.9136C28.0967 20.2235 26.2651 22.1828 23.95 22.1828H8.00013C5.68502 22.1828 3.85337 20.2235 4.00919 17.9136L4.83105 5.73077Z" fill="#0E141B"/>
<path d="M20.0311 16.3979H17.9256L16.1042 13.3493H15.8846H14.5411V16.3979H12.6422V7.35547H16.0266C17.2667 7.35547 18.1796 7.60521 18.7652 8.1047C19.3508 8.59557 19.6436 9.28451 19.6436 10.1715C19.6436 10.8691 19.4886 11.4504 19.1786 11.9154C18.8772 12.3805 18.4509 12.7335 17.8997 12.9747L20.0311 16.3979ZM14.5411 8.97018V11.7217H16.0266C16.5261 11.7217 16.9137 11.5968 17.1892 11.347C17.4734 11.0887 17.6155 10.7356 17.6155 10.2878C17.6155 9.84859 17.4777 9.52134 17.2022 9.30604C16.9352 9.08214 16.5046 8.97018 15.9104 8.97018H14.5411Z" fill="white"/>
</svg>
