<svg width="64" height="64" viewBox="0 0 64 64" fill="none" xmlns="http://www.w3.org/2000/svg">
<rect x="3" y="3" width="58" height="58" rx="3.22222" fill="black"/>
<path fill-rule="evenodd" clip-rule="evenodd" d="M11.0556 11.0556V52.9445H52.9445V11.0556H11.0556ZM9.44449 7.83337C8.55469 7.83337 7.83337 8.55469 7.83337 9.44449V54.5556C7.83337 55.4454 8.55469 56.1667 9.44449 56.1667H54.5556C55.4454 56.1667 56.1667 55.4454 56.1667 54.5556V9.44449C56.1667 8.55469 55.4454 7.83337 54.5556 7.83337H9.44449Z" fill="#67707B"/>
<path d="M39.3118 40.0555H34.9811L31.9812 35.0482H31.6429H29.7708V40.0555H25.8687V24.2666H32.0038C34.2593 24.2666 35.9284 24.7102 37.0111 25.5974C38.0938 26.4846 38.6351 27.7326 38.6351 29.3416C38.6351 30.5596 38.3719 31.5821 37.8457 32.4092C37.3344 33.2212 36.6126 33.8377 35.6803 34.2587L39.3118 40.0555ZM29.7708 27.6048V31.7099H31.891C32.6879 31.7099 33.312 31.5295 33.7631 31.1686C34.2292 30.7927 34.4623 30.2513 34.4623 29.5446C34.4623 28.898 34.2518 28.4168 33.8308 28.101C33.4097 27.7702 32.7406 27.6048 31.8233 27.6048H29.7708Z" fill="white"/>
</svg>
