<svg width="64" height="64" viewBox="0 0 64 64" fill="none" xmlns="http://www.w3.org/2000/svg">
<g clip-path="url(#clip0_1967:16558)">
<path d="M64 21C64 11.1816 58.0305 3.22223 50.6667 3.22223H2.66667C1.19391 3.22223 0 4.81411 0 6.77778V56.5556C0 58.5192 1.19391 60.1111 2.66667 60.1111H61.3333C62.8061 60.1111 64 58.5192 64 56.5556V21Z" fill="black"/>
<path d="M31.8146 40.5553H27.0359L23.7257 35.03H23.3524H21.2866V40.5553H16.9808V23.1331H23.7506C26.2395 23.1331 28.0813 23.6226 29.2759 24.6016C30.4706 25.5805 31.0679 26.9577 31.0679 28.7331C31.0679 30.0771 30.7776 31.2054 30.1968 32.118C29.6327 33.014 28.8362 33.6943 27.8075 34.1589L31.8146 40.5553ZM21.2866 26.8167V31.3465H23.6262C24.5056 31.3465 25.1942 31.1473 25.6919 30.7491C26.2063 30.3343 26.4635 29.737 26.4635 28.9571C26.4635 28.2436 26.2312 27.7127 25.7666 27.3642C25.302 26.9992 24.5637 26.8167 23.5515 26.8167H21.2866Z" fill="white"/>
<path d="M44.3864 23.1331V36.8718H47.6468V40.5553H35.9739V36.8718H40.0059V27.8869L36.5464 29.2558L35.1775 26.0451L41.0513 23.1331H44.3864Z" fill="white"/>
</g>
<defs>
<clipPath id="clip0_1967:16558">
<rect width="64" height="64" fill="white"/>
</clipPath>
</defs>
</svg>
