<svg width="64" height="64" viewBox="0 0 64 64" fill="none" xmlns="http://www.w3.org/2000/svg">
<path d="M3 5.7619C3 4.23655 4.23655 3 5.7619 3H58.2381C59.7635 3 61 4.23655 61 5.7619V58.2381C61 59.7635 59.7635 61 58.2381 61H5.7619C4.23655 61 3 59.7635 3 58.2381V5.7619Z" fill="black"/>
<path d="M30.8657 42.6335H26.1387L22.0497 35.7895H21.5567H18.5407V42.6335H14.2777V22.3335H21.8757C24.6597 22.3335 26.709 22.8942 28.0237 24.0155C29.3384 25.1175 29.9957 26.6642 29.9957 28.6555C29.9957 30.2215 29.6477 31.5265 28.9517 32.5705C28.275 33.6145 27.318 34.4072 26.0807 34.9485L30.8657 42.6335ZM18.5407 25.9585V32.1355H21.8757C22.997 32.1355 23.867 31.8552 24.4857 31.2945C25.1237 30.7145 25.4427 29.9218 25.4427 28.9165C25.4427 27.9305 25.1334 27.1958 24.5147 26.7125C23.9154 26.2098 22.9487 25.9585 21.6147 25.9585H18.5407Z" fill="white"/>
<path d="M48.0277 22.3335V25.9585H39.1537V30.7145C39.7144 30.3665 40.3427 30.1152 41.0387 29.9605C41.7541 29.7865 42.4694 29.6995 43.1847 29.6995C45.0021 29.6995 46.4521 30.2215 47.5347 31.2655C48.6367 32.2902 49.1877 33.7885 49.1877 35.7605C49.1877 37.2298 48.8397 38.5155 48.1437 39.6175C47.4671 40.7195 46.4714 41.5798 45.1567 42.1985C43.8614 42.7978 42.3244 43.0975 40.5457 43.0975C39.2311 43.0975 38.0034 42.9235 36.8627 42.5755C35.7221 42.2275 34.7747 41.7345 34.0207 41.0965L35.5287 37.8485C37.0174 38.8538 38.6704 39.3565 40.4877 39.3565C41.8604 39.3565 42.9237 39.0568 43.6777 38.4575C44.4317 37.8582 44.8087 36.9978 44.8087 35.8765C44.8087 34.8905 44.5187 34.1365 43.9387 33.6145C43.3781 33.0925 42.6047 32.8315 41.6187 32.8315C40.8841 32.8315 40.2074 32.9572 39.5887 33.2085C38.9701 33.4405 38.3611 33.7982 37.7617 34.2815L35.0647 32.8025V22.3335H48.0277Z" fill="white"/>
</svg>
