<svg width="64" height="64" viewBox="0 0 64 64" fill="none" xmlns="http://www.w3.org/2000/svg">
<path opacity="0.5" fill-rule="evenodd" clip-rule="evenodd" d="M50.6666 60.1111C58.0304 60.1111 63.9999 52.1517 63.9999 42.3333V6.77778C63.9999 4.8141 62.806 3.22223 61.3333 3.22223H2.66666C1.19391 3.22223 0 4.8141 0 6.77778V56.5555C0 58.5192 1.19391 60.1111 2.66666 60.1111H50.6666ZM48.0195 36.8473H40.2044L43.4898 34.234C44.8504 33.1388 45.8542 32.1184 46.5013 31.1726C47.165 30.2102 47.4969 29.1483 47.4969 27.9868C47.4969 26.2944 46.8581 25.0168 45.5804 24.154C44.3028 23.2746 42.6187 22.8348 40.528 22.8348C39.3997 22.8348 38.3378 22.9842 37.3422 23.2828C36.3633 23.5815 35.4756 23.988 34.6791 24.5024L36.0729 27.6882C36.5873 27.3729 37.168 27.124 37.8151 26.9415C38.4622 26.7424 39.1176 26.6428 39.7813 26.6428C40.6607 26.6428 41.3825 26.8337 41.9467 27.2153C42.5274 27.5969 42.8178 28.1611 42.8178 28.9077C42.8178 29.3889 42.7016 29.8286 42.4693 30.2268C42.2536 30.6251 41.9467 31.015 41.5484 31.3966C41.1502 31.7782 40.5612 32.2926 39.7813 32.9397L34.7538 37.0215V40.5557H48.0195V36.8473ZM26.5376 40.5557H31.3162L27.3091 34.1593C28.3379 33.6947 29.1343 33.0144 29.6984 32.1184C30.2792 31.2058 30.5696 30.0775 30.5696 28.7335C30.5696 26.9581 29.9722 25.5809 28.7776 24.602C27.5829 23.623 25.7411 23.1335 23.2522 23.1335H16.4825V40.5557H20.7882V35.0304H22.854H23.2273L26.5376 40.5557ZM20.7882 31.3468V26.8171H23.0531C24.0653 26.8171 24.8036 26.9996 25.2682 27.3646C25.7328 27.7131 25.9651 28.244 25.9651 28.9575C25.9651 29.7374 25.7079 30.3347 25.1936 30.7495C24.6958 31.1477 24.0072 31.3468 23.1278 31.3468H20.7882Z" fill="black"/>
<path d="M0 6.77778V56.5555C0 57.4143 0.228363 58.202 0.60854 58.8165L63.3815 4.50085C62.8923 3.71943 62.1564 3.22223 61.3333 3.22223H2.66666C1.1939 3.22223 0 4.8141 0 6.77778Z" fill="black"/>
<path d="M31.3159 40.556H26.5373L23.2271 35.0306H22.8537H20.788V40.556H16.4822V23.1337H23.252C25.7408 23.1337 27.5826 23.6232 28.7773 24.6022C29.9719 25.5812 30.5693 26.9583 30.5693 28.7337C30.5693 30.0777 30.2789 31.206 29.6982 32.1186C29.134 33.0146 28.3376 33.6949 27.3088 34.1595L31.3159 40.556ZM20.788 26.8173V31.3471H23.1275C24.0069 31.3471 24.6955 31.148 25.1933 30.7497C25.7077 30.3349 25.9648 29.7376 25.9648 28.9577C25.9648 28.2443 25.7325 27.7133 25.2679 27.3649C24.8034 26.9998 24.065 26.8173 23.0528 26.8173H20.788Z" fill="white"/>
<path d="M40.2042 36.8475H48.0193V40.556H34.7535V37.0217L39.781 32.94C40.5609 32.2929 41.1499 31.7785 41.5482 31.3969C41.9464 31.0152 42.2533 30.6253 42.469 30.2271C42.7013 29.8289 42.8175 29.3892 42.8175 28.908C42.8175 28.1613 42.5271 27.5972 41.9464 27.2155C41.3822 26.8339 40.6605 26.6431 39.781 26.6431C39.1173 26.6431 38.4619 26.7426 37.8148 26.9417C37.1677 27.1243 36.587 27.3732 36.0726 27.6884L34.6788 24.5026C35.4753 23.9883 36.363 23.5817 37.3419 23.2831C38.3375 22.9844 39.3994 22.8351 40.5277 22.8351C42.6184 22.8351 44.3025 23.2748 45.5802 24.1542C46.8578 25.017 47.4966 26.2946 47.4966 27.9871C47.4966 29.1486 47.1647 30.2105 46.501 31.1729C45.8539 32.1186 44.8501 33.1391 43.4895 34.2342L40.2042 36.8475Z" fill="white"/>
</svg>
