<svg width="32" height="32" viewBox="0 0 32 32" fill="none" xmlns="http://www.w3.org/2000/svg">
<path d="M1.52293 6.39376C1.66641 4.29542 3.41038 2.66663 5.51361 2.66663H26.4864C28.5896 2.66663 30.3336 4.29542 30.4771 6.39376L31.7078 24.3938C31.8659 26.7049 30.0337 28.6666 27.7172 28.6666H4.28284C1.96629 28.6666 0.134134 26.7049 0.292162 24.3938L1.52293 6.39376Z" fill="#0E141B"/>
<path d="M21.0238 21.389H18.4158L16.1598 17.613H15.8878H14.2238V21.389H11.8718V10.189H16.0638C17.5998 10.189 18.7305 10.4983 19.4558 11.117C20.1812 11.725 20.5438 12.5783 20.5438 13.677C20.5438 14.541 20.3518 15.261 19.9678 15.837C19.5945 16.413 19.0665 16.8503 18.3838 17.149L21.0238 21.389ZM14.2238 12.189V15.597H16.0638C16.6825 15.597 17.1625 15.4423 17.5038 15.133C17.8558 14.813 18.0318 14.3756 18.0318 13.821C18.0318 13.277 17.8612 12.8716 17.5198 12.605C17.1892 12.3276 16.6558 12.189 15.9198 12.189H14.2238Z" fill="white"/>
</svg>
