<svg width="32" height="32" viewBox="0 0 32 32" fill="none" xmlns="http://www.w3.org/2000/svg">
<g clip-path="url(#clip0_2700_28971)">
<path d="M1.52293 6.39376C1.66641 4.29542 3.41038 2.66663 5.51361 2.66663H26.4864C28.5896 2.66663 30.3336 4.29542 30.4771 6.39376L31.7078 24.3938C31.8659 26.7049 30.0337 28.6666 27.7172 28.6666H4.28284C1.96629 28.6666 0.134134 26.7049 0.292162 24.3938L1.52293 6.39376Z" fill="#0E141B"/>
<path d="M21.0239 21.3888H18.4159L16.1599 17.6128H15.8879H14.2239V21.3888H11.8719V10.1888H16.0639C17.5999 10.1888 18.7306 10.4982 19.4559 11.1168C20.1813 11.7248 20.5439 12.5782 20.5439 13.6768C20.5439 14.5408 20.3519 15.2608 19.9679 15.8368C19.5946 16.4128 19.0666 16.8502 18.3839 17.1488L21.0239 21.3888ZM14.2239 12.1888V15.5968H16.0639C16.6826 15.5968 17.1626 15.4422 17.5039 15.1328C17.8559 14.8128 18.0319 14.3755 18.0319 13.8208C18.0319 13.2768 17.8613 12.8715 17.5199 12.6048C17.1893 12.3275 16.6559 12.1888 15.9199 12.1888H14.2239Z" fill="white"/>
<path d="M3.86732 6.8575C3.94208 5.81089 4.81296 5 5.86224 5H26.1378C27.187 5 28.0579 5.8109 28.1327 6.85751L29.347 23.8575C29.4297 25.0152 28.5127 26 27.352 26H4.64795C3.48727 26 2.57034 25.0152 2.65304 23.8575L3.86732 6.8575Z" stroke="white" stroke-width="1.5"/>
</g>
<defs>
<clipPath id="clip0_2700_28971">
<rect width="32" height="32" fill="white"/>
</clipPath>
</defs>
</svg>
