<svg width="32" height="32" viewBox="0 0 32 32" fill="none" xmlns="http://www.w3.org/2000/svg">
<path d="M0 2C0 0.895431 0.895431 0 2 0H30C31.1046 0 32 0.895431 32 2V30C32 31.1046 31.1046 32 30 32H2C0.895431 32 0 31.1046 0 30V2Z" fill="#0E141B"/>
<path d="M15.6688 22H13.0608L10.8048 18.224H10.5328H8.86885V22H6.51685V10.8H10.7088C12.2448 10.8 13.3755 11.1094 14.1008 11.728C14.8262 12.336 15.1888 13.1894 15.1888 14.288C15.1888 15.152 14.9968 15.872 14.6128 16.448C14.2395 17.024 13.7115 17.4614 13.0288 17.76L15.6688 22ZM8.86885 12.8V16.208H10.7088C11.3275 16.208 11.8075 16.0534 12.1488 15.744C12.5008 15.424 12.6768 14.9867 12.6768 14.432C12.6768 13.888 12.5062 13.4827 12.1648 13.216C11.8342 12.9387 11.3008 12.8 10.5648 12.8H8.86885Z" fill="white"/>
<path d="M25.1375 10.8V12.8H20.2415V15.424C20.5509 15.232 20.8975 15.0934 21.2815 15.008C21.6762 14.912 22.0709 14.864 22.4655 14.864C23.4682 14.864 24.2682 15.152 24.8655 15.728C25.4735 16.2934 25.7775 17.12 25.7775 18.208C25.7775 19.0187 25.5855 19.728 25.2015 20.336C24.8282 20.944 24.2789 21.4187 23.5535 21.76C22.8389 22.0907 21.9909 22.256 21.0095 22.256C20.2842 22.256 19.6069 22.16 18.9775 21.968C18.3482 21.776 17.8255 21.504 17.4095 21.152L18.2415 19.36C19.0629 19.9147 19.9749 20.192 20.9775 20.192C21.7349 20.192 22.3215 20.0267 22.7375 19.696C23.1535 19.3654 23.3615 18.8907 23.3615 18.272C23.3615 17.728 23.2015 17.312 22.8815 17.024C22.5722 16.736 22.1455 16.592 21.6015 16.592C21.1962 16.592 20.8229 16.6614 20.4815 16.8C20.1402 16.928 19.8042 17.1254 19.4735 17.392L17.9855 16.576V10.8H25.1375Z" fill="white"/>
</svg>
