<svg width="64" height="64" viewBox="0 0 64 64" fill="none" xmlns="http://www.w3.org/2000/svg">
<path d="M3 5.7619C3 4.23655 4.23655 3 5.7619 3H58.2381C59.7635 3 61 4.23655 61 5.7619V58.2381C61 59.7635 59.7635 61 58.2381 61H5.7619C4.23655 61 3 59.7635 3 58.2381V5.7619Z" fill="black"/>
<path d="M30.8657 42.6335H26.1387L22.0497 35.7895H21.5567H18.5407V42.6335H14.2777V22.3335H21.8757C24.6597 22.3335 26.709 22.8942 28.0237 24.0155C29.3384 25.1175 29.9957 26.6642 29.9957 28.6555C29.9957 30.2215 29.6477 31.5265 28.9517 32.5705C28.275 33.6145 27.318 34.4072 26.0807 34.9485L30.8657 42.6335ZM18.5407 25.9585V32.1355H21.8757C22.997 32.1355 23.867 31.8552 24.4857 31.2945C25.1237 30.7145 25.4427 29.9218 25.4427 28.9165C25.4427 27.9305 25.1334 27.1958 24.5147 26.7125C23.9154 26.2098 22.9487 25.9585 21.6147 25.9585H18.5407Z" fill="white"/>
<path d="M47.3027 22.3335V34.7455H50.2317V38.0225H47.3027V42.6335H42.9817V38.0225H33.4117V35.2385L43.3587 22.3335H47.3027ZM43.1557 27.4085L37.5587 34.7455H43.1557V27.4085Z" fill="white"/>
</svg>
