<svg width="32" height="32" viewBox="0 0 32 32" fill="none" xmlns="http://www.w3.org/2000/svg">
<path d="M0 2C0 0.895431 0.895431 0 2 0H30C31.1046 0 32 0.895431 32 2V30C32 31.1046 31.1046 32 30 32H2C0.895431 32 0 31.1046 0 30V2Z" fill="#0E141B"/>
<path d="M15.5126 22H12.9046L10.6486 18.224H10.3766H8.7126V22H6.3606V10.8H10.5526C12.0886 10.8 13.2193 11.1094 13.9446 11.728C14.6699 12.336 15.0326 13.1894 15.0326 14.288C15.0326 15.152 14.8406 15.872 14.4566 16.448C14.0833 17.024 13.5553 17.4614 12.8726 17.76L15.5126 22ZM8.7126 12.8V16.208H10.5526C11.1713 16.208 11.6513 16.0534 11.9926 15.744C12.3446 15.424 12.5206 14.9867 12.5206 14.432C12.5206 13.888 12.3499 13.4827 12.0086 13.216C11.6779 12.9387 11.1446 12.8 10.4086 12.8H8.7126Z" fill="white"/>
<path d="M24.5813 10.8V17.648H26.1973V19.456H24.5813V22H22.1973V19.456H16.9173V17.92L22.4053 10.8H24.5813ZM22.2933 13.6L19.2053 17.648H22.2933V13.6Z" fill="white"/>
</svg>
