<svg width="64" height="64" viewBox="0 0 64 64" fill="none" xmlns="http://www.w3.org/2000/svg">
<g clip-path="url(#clip0_1967:18432)">
<path d="M16 30.7692C16 21.9327 23.1634 14.7692 32 14.7692C40.8366 14.7692 48 21.9327 48 30.7692V48C48 56.8366 40.8366 64 32 64C23.1634 64 16 56.8366 16 48V30.7692Z" fill="black"/>
<path fill-rule="evenodd" clip-rule="evenodd" d="M48 40.6154H16V38.1539H48V40.6154Z" fill="#67707B"/>
<path fill-rule="evenodd" clip-rule="evenodd" d="M33.2306 14.7692V25.8461H30.769V14.7692H33.2306Z" fill="#67707B"/>
<path fill-rule="evenodd" clip-rule="evenodd" d="M31.9998 27.0769C29.9606 27.0769 28.3075 28.73 28.3075 30.7692V39.3846H25.8459V30.7692C25.8459 27.3705 28.6011 24.6154 31.9998 24.6154C35.3985 24.6154 38.1536 27.3705 38.1536 30.7692V39.3846H35.6921V30.7692C35.6921 28.73 34.039 27.0769 31.9998 27.0769Z" fill="#67707B"/>
<path d="M33.9891 12.8944L38.548 7.93229L41.3646 10.9979L32 21.1906L22.6355 10.9979L25.452 7.93229L30.011 12.8944V2.46149H33.9891V12.8944Z" fill="white"/>
<path fill-rule="evenodd" clip-rule="evenodd" d="M38.5477 4.29402L44.707 10.9979L31.9997 24.8289L19.2925 10.9979L25.4517 4.29403L27.5491 6.57691V0H36.4503V6.57691L38.5477 4.29402ZM33.9888 12.8945V2.46154H30.0107V12.8945L25.4517 7.93235L22.6352 10.9979L31.9997 21.1906L41.3643 10.9979L38.5477 7.93235L33.9888 12.8945Z" fill="black"/>
<path d="M35.6922 30.7692V38.1538H28.3076V30.7692C28.3076 28.73 29.9607 27.0769 31.9999 27.0769C34.0391 27.0769 35.6922 28.73 35.6922 30.7692Z" fill="white"/>
</g>
<defs>
<clipPath id="clip0_1967:18432">
<rect width="64" height="64" fill="white"/>
</clipPath>
</defs>
</svg>
