<svg width="32" height="32" viewBox="0 0 32 32" fill="none" xmlns="http://www.w3.org/2000/svg">
<path fill-rule="evenodd" clip-rule="evenodd" d="M16 6.22225L10.6667 0.888916H21.3333L16 6.22225ZM4.91852 8.00003C2.18423 8.00003 0 10.2593 0 13.0059C0 15.7525 2.18423 18.0117 4.91852 18.0117H6.04444V28.4445H24.1778H25.9556V18.0117H27.0815C29.8158 18.0117 32 15.7525 32 13.0059C32 10.2593 29.8158 8.00003 27.0815 8.00003H4.91852Z" fill="#0E141B"/>
<path d="M15.948 23.7254H13.89L12.4644 21.3458H11.4139V23.7254H9.55957V16.2221H12.4751C13.547 16.2221 14.3402 16.4329 14.8547 16.8546C15.3692 17.2762 15.6265 17.8693 15.6265 18.6339C15.6265 19.2127 15.5014 19.6986 15.2513 20.0917C15.0084 20.4775 14.6653 20.7705 14.2223 20.9706L15.948 23.7254ZM11.4139 17.8085V19.7594H12.4215C12.8003 19.7594 13.0968 19.6736 13.3112 19.5021C13.5327 19.3235 13.6435 19.0662 13.6435 18.7304C13.6435 18.4231 13.5434 18.1944 13.3433 18.0444C13.1433 17.8871 12.8253 17.8085 12.3894 17.8085H11.4139Z" fill="white"/>
<path d="M19.364 16.0399C20.2787 16.0399 20.9683 16.2186 21.4328 16.5759C21.8973 16.9332 22.1295 17.3941 22.1295 17.9586C22.1295 18.323 22.0223 18.6482 21.8079 18.934C21.5936 19.2199 21.2827 19.4485 20.8754 19.62V19.6629C21.3542 19.763 21.7329 19.9666 22.0116 20.2739C22.2974 20.5812 22.4404 20.9956 22.4404 21.5173C22.4404 21.9961 22.301 22.4177 22.0223 22.7821C21.7436 23.1394 21.3649 23.4181 20.8861 23.6182C20.4145 23.8111 19.8928 23.9076 19.3212 23.9076C18.7638 23.9076 18.235 23.8326 17.7348 23.6825C17.2345 23.5324 16.8165 23.3181 16.4806 23.0394L17.2417 21.6673C17.7562 22.1175 18.3922 22.3426 19.1497 22.3426C19.5641 22.3426 19.8857 22.2605 20.1144 22.0961C20.3502 21.9246 20.4681 21.6888 20.4681 21.3887C20.4681 20.8027 20.0322 20.5097 19.1604 20.5097H18.1099V19.1377H19.0317C19.3962 19.1377 19.6785 19.0734 19.8785 18.9447C20.0858 18.809 20.1894 18.6196 20.1894 18.3766C20.1894 18.148 20.0858 17.9622 19.8785 17.8193C19.6785 17.6763 19.3962 17.6049 19.0317 17.6049C18.7388 17.6049 18.4493 17.6549 18.1635 17.7549C17.8777 17.8478 17.624 17.9765 17.4025 18.1408L16.6307 16.951C17.0023 16.6509 17.4203 16.4258 17.8848 16.2757C18.3565 16.1185 18.8495 16.0399 19.364 16.0399Z" fill="white"/>
</svg>
