<svg width="32" height="32" viewBox="0 0 32 32" fill="none" xmlns="http://www.w3.org/2000/svg">
<circle cx="19.5555" cy="16" r="12.4444" fill="#0E141B"/>
<path d="M23.5895 20.4445H21.2002L19.5451 17.6818H19.3584H18.3255V20.4445H16.1726V11.7334H19.5575C20.8019 11.7334 21.7228 11.9781 22.3202 12.4676C22.9175 12.9571 23.2162 13.6457 23.2162 14.5334C23.2162 15.2054 23.071 15.7695 22.7806 16.2258C22.4985 16.6738 22.1003 17.014 21.5859 17.2463L23.5895 20.4445ZM18.3255 13.5752V15.8401H19.4953C19.935 15.8401 20.2793 15.7405 20.5282 15.5414C20.7853 15.334 20.9139 15.0353 20.9139 14.6454C20.9139 14.2887 20.7978 14.0232 20.5655 13.849C20.3332 13.6664 19.964 13.5752 19.4579 13.5752H18.3255Z" fill="white"/>
<path d="M5.33325 10.6667L5.33325 21.3334L-8.15392e-05 16L5.33325 10.6667Z" fill="#0E141B"/>
</svg>
