<svg width="32" height="32" viewBox="0 0 32 32" fill="none" xmlns="http://www.w3.org/2000/svg">
<g clip-path="url(#clip0_8146_5890)">
<path d="M-2.67029e-05 1.96484C-2.67029e-05 1.96484 10.2135 1.96484 17.9649 1.96484C25.7163 1.96484 32 8.24857 32 15.9999C32 23.7513 25.7163 30.035 17.9649 30.035C14.1099 30.035 10.6179 28.4808 8.08136 25.9649C6.66411 24.5591 -2.67029e-05 18.2456 -2.67029e-05 18.2456V1.96484Z" fill="#0E141B"/>
<path d="M22.9642 20.4H17.3242V12H19.0882V18.816H22.9642V20.4Z" fill="white"/>
<path d="M10 20.4V12H12.94C13.988 12 14.788 12.24 15.34 12.72C15.9 13.192 16.18 13.836 16.18 14.652C16.18 15.196 16.056 15.692 15.808 16.14C15.56 16.58 15.192 16.932 14.704 17.196C14.216 17.46 13.628 17.592 12.94 17.592H11.764V20.4H10ZM12.892 16.092C13.34 16.092 13.684 15.972 13.924 15.732C14.172 15.492 14.296 15.16 14.296 14.736C14.296 14.32 14.172 14.012 13.924 13.812C13.684 13.604 13.336 13.5 12.88 13.5H11.764V16.092H12.892Z" fill="white"/>
</g>
<defs>
<clipPath id="clip0_8146_5890">
<rect width="32" height="32" fill="white"/>
</clipPath>
</defs>
</svg>
