<svg width="32" height="33" viewBox="0 0 32 33" fill="none" xmlns="http://www.w3.org/2000/svg">
<path fill-rule="evenodd" clip-rule="evenodd" d="M26.6809 16.6806C26.6809 22.5794 21.899 27.3612 16.0003 27.3612C10.1015 27.3612 5.31966 22.5794 5.31966 16.6806C5.31966 10.7819 10.1015 6 16.0003 6C21.899 6 26.6809 10.7819 26.6809 16.6806ZM16.0004 24.7864C20.477 24.7864 24.1061 21.1574 24.1061 16.6807C24.1061 12.2041 20.477 8.57501 16.0004 8.57501C11.5237 8.57501 7.89467 12.2041 7.89467 16.6807C7.89467 21.1574 11.5237 24.7864 16.0004 24.7864ZM16.0004 25.6178C20.9362 25.6178 24.9375 21.6165 24.9375 16.6807C24.9375 11.7449 20.9362 7.74365 16.0004 7.74365C11.0646 7.74365 7.06331 11.7449 7.06331 16.6807C7.06331 21.6165 11.0646 25.6178 16.0004 25.6178ZM0 16.6808L3.75008 20.4309V12.9307L0 16.6808Z" fill="#0E141B"/>
<path d="M19.6728 20.3994H17.6328L16.2197 18.0406H16.0603H15.1785V20.3994H13.3403V12.9619H16.2303C17.2928 12.9619 18.0791 13.1708 18.5891 13.5887C19.0991 14.0066 19.3541 14.5946 19.3541 15.3525C19.3541 15.9262 19.2301 16.4079 18.9822 16.7975C18.7414 17.18 18.4014 17.4704 17.9622 17.6687L19.6728 20.3994ZM15.1785 14.5344V16.4681H16.1772C16.5526 16.4681 16.8466 16.3831 17.0591 16.2131C17.2787 16.036 17.3885 15.781 17.3885 15.4481C17.3885 15.1435 17.2893 14.9169 17.091 14.7681C16.8926 14.6123 16.5774 14.5344 16.1453 14.5344H15.1785Z" fill="white"/>
</svg>
