<svg width="32" height="32" viewBox="0 0 32 32" fill="none" xmlns="http://www.w3.org/2000/svg">
<path d="M16 1.5C24.0081 1.5 30.5 7.99187 30.5 16C30.5 24.0081 24.0081 30.5 16 30.5C7.99187 30.5 1.5 24.0081 1.5 16C1.5 7.99187 7.99187 1.5 16 1.5Z" fill="#0E141B"/>
<path d="M15.612 9C16.486 9 17.3157 9.114 18.101 9.342C18.8863 9.57 19.526 9.874 20.02 10.254L18.728 12.439C18.31 12.1603 17.8413 11.945 17.322 11.793C16.8027 11.641 16.2707 11.565 15.726 11.565C15.0167 11.565 14.377 11.7297 13.807 12.059C13.237 12.3883 12.781 12.8887 12.439 13.56C12.1097 14.2313 11.945 15.0547 11.945 16.03C11.945 17.436 12.2807 18.5063 12.952 19.241C13.636 19.963 14.548 20.324 15.688 20.324C16.3087 20.324 16.8787 20.229 17.398 20.039C17.9173 19.849 18.424 19.564 18.918 19.184L20.286 21.179C19.754 21.6983 19.0637 22.1163 18.215 22.433C17.379 22.7497 16.4607 22.908 15.46 22.908C14.206 22.908 13.0913 22.642 12.116 22.11C11.1407 21.5653 10.3743 20.7737 9.817 19.735C9.27233 18.6963 9 17.455 9 16.011C9 14.5417 9.27867 13.2813 9.836 12.23C10.3933 11.1787 11.1723 10.3807 12.173 9.836C13.1737 9.27867 14.32 9 15.612 9Z" fill="white"/>
</svg>
