<svg width="32" height="32" viewBox="0 0 32 32" fill="none" xmlns="http://www.w3.org/2000/svg">
<g clip-path="url(#clip0_3727_33708)">
<path fill-rule="evenodd" clip-rule="evenodd" d="M26.6809 15.6806C26.6809 21.5794 21.899 26.3612 16.0003 26.3612C10.1015 26.3612 5.31966 21.5794 5.31966 15.6806C5.31966 9.78187 10.1015 5 16.0003 5C21.899 5 26.6809 9.78187 26.6809 15.6806ZM16.0004 23.7864C20.477 23.7864 24.1061 20.1574 24.1061 15.6807C24.1061 11.2041 20.477 7.57501 16.0004 7.57501C11.5237 7.57501 7.89467 11.2041 7.89467 15.6807C7.89467 20.1574 11.5237 23.7864 16.0004 23.7864ZM16.0004 24.6178C20.9362 24.6178 24.9375 20.6165 24.9375 15.6807C24.9375 10.7449 20.9362 6.74365 16.0004 6.74365C11.0646 6.74365 7.06331 10.7449 7.06331 15.6807C7.06331 20.6165 11.0646 24.6178 16.0004 24.6178ZM0 15.6808L3.75008 19.4309V11.9307L0 15.6808Z" fill="#0E141B"/>
<path d="M19.0133 19.3426H13.7798V11.8662H15.6275V17.6765H19.0133V19.3426Z" fill="white"/>
</g>
<defs>
<clipPath id="clip0_3727_33708">
<rect width="32" height="32" fill="white"/>
</clipPath>
</defs>
</svg>
