<svg width="32" height="32" viewBox="0 0 32 32" fill="none" xmlns="http://www.w3.org/2000/svg">
<path d="M30 16C30 23.732 23.732 30 16 30C8.26801 30 2 23.732 2 16C2 8.26801 8.26801 2 16 2C23.732 2 30 8.26801 30 16Z" fill="#0E141B"/>
<path fill-rule="evenodd" clip-rule="evenodd" d="M16 28.5C22.9036 28.5 28.5 22.9036 28.5 16C28.5 9.09644 22.9036 3.5 16 3.5C9.09644 3.5 3.5 9.09644 3.5 16C3.5 22.9036 9.09644 28.5 16 28.5ZM16 30C23.732 30 30 23.732 30 16C30 8.26801 23.732 2 16 2C8.26801 2 2 8.26801 2 16C2 23.732 8.26801 30 16 30Z" fill="#59BF40"/>
<path d="M22.5 22.5H19.4603L18.5426 19.8771H13.3044L12.425 22.5H9.5L14.5088 9H17.3382L22.5 22.5ZM15.9044 12.2207L14.0691 17.6207H17.7779L15.9044 12.2207Z" fill="#59BF40"/>
</svg>
