<svg width="32" height="32" viewBox="0 0 32 32" fill="none" xmlns="http://www.w3.org/2000/svg">
<path fill-rule="evenodd" clip-rule="evenodd" d="M16.0001 5.33333L10.6668 0H21.3334L16.0001 5.33333ZM16.0001 32C22.873 32 28.4446 26.4284 28.4446 19.5556C28.4446 12.6827 22.873 7.11111 16.0001 7.11111C9.12723 7.11111 3.55566 12.6827 3.55566 19.5556C3.55566 26.4284 9.12723 32 16.0001 32Z" fill="#0E141B"/>
<path d="M15.3422 24.0338H9.24438V15.3226H11.3973V22.0924H15.3422V24.0338Z" fill="white"/>
<path d="M19.6211 15.1111C20.683 15.1111 21.4836 15.3185 22.0228 15.7333C22.5621 16.1481 22.8317 16.6832 22.8317 17.3386C22.8317 17.7618 22.7073 18.1392 22.4584 18.4711C22.2095 18.8029 21.8486 19.0684 21.3757 19.2675V19.3173C21.9316 19.4335 22.3713 19.6699 22.6948 20.0266C23.0267 20.3834 23.1926 20.8646 23.1926 21.4702C23.1926 22.026 23.0308 22.5155 22.7073 22.9386C22.3837 23.3535 21.944 23.677 21.3882 23.9093C20.8406 24.1333 20.235 24.2453 19.5713 24.2453C18.9242 24.2453 18.3102 24.1582 17.7295 23.984C17.1488 23.8098 16.6634 23.5609 16.2735 23.2373L17.1571 21.6444C17.7544 22.1671 18.4928 22.4284 19.3722 22.4284C19.8533 22.4284 20.2267 22.333 20.4922 22.1422C20.7659 21.9431 20.9028 21.6693 20.9028 21.3209C20.9028 20.6406 20.3968 20.3004 19.3846 20.3004H18.1651V18.7075H19.2353C19.6584 18.7075 19.9861 18.6329 20.2184 18.4835C20.459 18.3259 20.5793 18.106 20.5793 17.824C20.5793 17.5585 20.459 17.3428 20.2184 17.1769C19.9861 17.0109 19.6584 16.928 19.2353 16.928C18.8951 16.928 18.5591 16.986 18.2273 17.1022C17.8954 17.21 17.6009 17.3594 17.3437 17.5502L16.4477 16.1689C16.8791 15.8204 17.3645 15.5591 17.9037 15.3849C18.4513 15.2023 19.0237 15.1111 19.6211 15.1111Z" fill="white"/>
</svg>
