<svg width="64" height="64" viewBox="0 0 64 64" fill="none" xmlns="http://www.w3.org/2000/svg">
<path fill-rule="evenodd" clip-rule="evenodd" d="M40.0556 3C40.9454 3 41.6667 3.72132 41.6667 4.61111V20.7222C41.6667 21.612 42.388 22.3333 43.2778 22.3333H59.3889C60.2787 22.3333 61 23.0547 61 23.9444V40.0556C61 40.9454 60.2787 41.6667 59.3889 41.6667H43.2778C42.388 41.6667 41.6667 42.388 41.6667 43.2778V59.3889C41.6667 60.2787 40.9454 61 40.0556 61H23.9444C23.0547 61 22.3333 60.2787 22.3333 59.3889V43.2778C22.3333 42.388 21.612 41.6667 20.7222 41.6667H4.61111C3.72132 41.6667 3 40.9453 3 40.0555V23.9444C3 23.0547 3.72132 22.3333 4.61111 22.3333H20.7222C21.612 22.3333 22.3333 21.612 22.3333 20.7222V4.61111C22.3333 3.72132 23.0547 3 23.9444 3H40.0556Z" fill="black"/>
<path d="M25.5557 15.7862L32.0001 7.83331L38.4446 15.7862H25.5557Z" fill="white"/>
</svg>
