<svg width="32" height="32" viewBox="0 0 32 32" fill="none" xmlns="http://www.w3.org/2000/svg">
<g clip-path="url(#clip0_2700_27926)">
<path opacity="0.4" d="M26.6667 10.3455C26.6667 4.58729 21.8911 -0.0806885 16.0001 -0.0806885C10.109 -0.0806885 5.33342 4.58729 5.33342 10.3455V21.5738C5.33342 27.332 10.109 32 16.0001 32C21.8911 32 26.6667 27.332 26.6667 21.5738V10.3455Z" fill="#0E141B"/>
<path fill-rule="evenodd" clip-rule="evenodd" d="M17.3334 5.89598C19.3854 6.47782 20.889 8.36923 20.889 10.6127V15.0683H26.6667V17.7417H5.33342V15.0683H11.1112V10.6127C11.1112 8.36923 12.6147 6.47782 14.6667 5.89598V-0.972046H17.3334V5.89598ZM13.7779 15.0683V10.6127C13.7779 9.3823 14.7728 8.38487 16.0001 8.38487C17.2274 8.38487 18.2223 9.3823 18.2223 10.6127V15.0683H13.7779Z" fill="#DCDEDF"/>
<path d="M20.889 10.6429C20.889 8.39307 19.3854 6.49632 17.3334 5.91283V0C22.5952 0.643152 26.6667 5.04289 26.6667 10.3748V15.1111H20.889V10.6429Z" fill="#0E141B"/>
</g>
<defs>
<clipPath id="clip0_2700_27926">
<rect width="32" height="32" fill="white"/>
</clipPath>
</defs>
</svg>
