<svg width="32" height="32" viewBox="0 0 32 32" fill="none" xmlns="http://www.w3.org/2000/svg">
<path fill-rule="evenodd" clip-rule="evenodd" d="M16 6.22225L10.6667 0.888916H21.3333L16 6.22225ZM4.91852 8.00003C2.18423 8.00003 0 10.2593 0 13.0059C0 15.7525 2.18423 18.0117 4.91852 18.0117H6.04444V28.4445H24.1778H25.9556V18.0117H27.0815C29.8158 18.0117 32 15.7525 32 13.0059C32 10.2593 29.8158 8.00003 27.0815 8.00003H4.91852Z" fill="#0E141B"/>
<path d="M15.4366 23.7254H10.1843V16.2221H12.0387V22.0532H15.4366V23.7254Z" fill="white"/>
<path d="M18.7393 16.0399C19.654 16.0399 20.3436 16.2186 20.8081 16.5759C21.2726 16.9332 21.5048 17.3941 21.5048 17.9586C21.5048 18.323 21.3976 18.6482 21.1833 18.934C20.9689 19.2199 20.658 19.4485 20.2507 19.62V19.6629C20.7295 19.7629 21.1082 19.9666 21.3869 20.2739C21.6728 20.5812 21.8157 20.9956 21.8157 21.5173C21.8157 21.9961 21.6763 22.4177 21.3976 22.7821C21.1189 23.1394 20.7402 23.4181 20.2614 23.6182C19.7898 23.8111 19.2681 23.9076 18.6965 23.9076C18.1391 23.9076 17.6103 23.8326 17.1101 23.6825C16.6099 23.5324 16.1918 23.3181 15.856 23.0394L16.617 21.6673C17.1315 22.1175 17.7675 22.3426 18.525 22.3426C18.9394 22.3426 19.261 22.2605 19.4897 22.0961C19.7255 21.9246 19.8434 21.6888 19.8434 21.3886C19.8434 20.8027 19.4075 20.5097 18.5357 20.5097H17.4852V19.1377H18.4071C18.7715 19.1377 19.0538 19.0734 19.2539 18.9447C19.4611 18.809 19.5647 18.6196 19.5647 18.3766C19.5647 18.148 19.4611 17.9622 19.2539 17.8193C19.0538 17.6763 18.7715 17.6049 18.4071 17.6049C18.1141 17.6049 17.8247 17.6549 17.5388 17.7549C17.253 17.8478 16.9993 17.9765 16.7778 18.1408L16.006 16.951C16.3776 16.6509 16.7957 16.4258 17.2601 16.2757C17.7318 16.1185 18.2248 16.0399 18.7393 16.0399Z" fill="white"/>
</svg>
