<svg width="32" height="32" viewBox="0 0 32 32" fill="none" xmlns="http://www.w3.org/2000/svg">
<path fill-rule="evenodd" clip-rule="evenodd" d="M16 28.5C22.9036 28.5 28.5 22.9036 28.5 16C28.5 9.09644 22.9036 3.5 16 3.5C9.09644 3.5 3.5 9.09644 3.5 16C3.5 22.9036 9.09644 28.5 16 28.5ZM16 30C23.732 30 30 23.732 30 16C30 8.26801 23.732 2 16 2C8.26801 2 2 8.26801 2 16C2 23.732 8.26801 30 16 30Z" fill="#0E141B"/>
<path d="M19.3993 15.3064C21.1331 15.8336 22 16.9393 22 18.6236C22 19.845 21.5536 20.7964 20.6608 21.4779C19.768 22.1593 18.5712 22.5 17.0702 22.5H11.5V9H16.5268C18.1183 9 19.2957 9.29571 20.0591 9.88714C20.8225 10.4786 21.2043 11.3143 21.2043 12.3943C21.2043 12.9986 21.0619 13.5514 20.7773 14.0529C20.4926 14.5543 20.0333 14.9721 19.3993 15.3064ZM14.3919 11.3529V14.6507H16.3521C16.9991 14.6507 17.4972 14.5029 17.8466 14.2071C18.1959 13.8986 18.3706 13.4679 18.3706 12.915C18.3706 11.8736 17.6784 11.3529 16.2939 11.3529H14.3919ZM16.7791 20.1664C17.5037 20.1664 18.0471 20.0057 18.4094 19.6843C18.7847 19.3629 18.9723 18.9386 18.9723 18.4114C18.9723 17.8457 18.7911 17.4214 18.4288 17.1386C18.0665 16.8429 17.5425 16.695 16.8567 16.695H14.3919V20.1664H16.7791Z" fill="#0E141B"/>
</svg>
