<svg width="64" height="64" viewBox="0 0 64 64" fill="none" xmlns="http://www.w3.org/2000/svg">
<circle cx="32" cy="32" r="18" stroke="#67707B" stroke-width="3"/>
<path fill-rule="evenodd" clip-rule="evenodd" d="M29.5344 32.0515C29.5344 28.8399 29.9705 25.9947 30.634 24.0041C30.9684 23.001 31.3335 22.2975 31.666 21.8755C31.8637 21.6247 31.9947 21.5379 32.0516 21.5096C32.1085 21.5379 32.2394 21.6247 32.4371 21.8755C32.7697 22.2975 33.1348 23.001 33.4691 24.0041C33.5769 24.3276 33.6787 24.6736 33.7737 25.04C34.8583 25.0894 35.9127 25.1838 36.9192 25.3201C36.7479 24.5056 36.5454 23.7462 36.3152 23.0555C35.9226 21.8777 35.422 20.8163 34.7934 20.0186C34.178 19.2378 33.2628 18.5 32.0516 18.5C30.8403 18.5 29.9251 19.2378 29.3098 20.0186C28.6811 20.8163 28.1806 21.8777 27.788 23.0555C26.9976 25.4267 26.5344 28.6072 26.5344 32.0515C26.5344 35.4958 26.9976 38.6763 27.788 41.0475C28.1806 42.2253 28.6811 43.2867 29.3098 44.0844C29.9251 44.8652 30.8403 45.603 32.0516 45.603C33.2628 45.603 34.178 44.8652 34.7934 44.0844C35.422 43.2867 35.9226 42.2253 36.3152 41.0475C36.5554 40.3269 36.7654 39.5316 36.9413 38.6769C35.9364 38.8137 34.8835 38.9087 33.8003 38.9587C33.6979 39.364 33.5871 39.7449 33.4691 40.0989C33.1348 41.102 32.7697 41.8055 32.4371 42.2275C32.2394 42.4783 32.1085 42.5651 32.0516 42.5934C31.9947 42.5651 31.8637 42.4783 31.666 42.2275C31.3335 41.8055 30.9684 41.102 30.634 40.0989C29.9705 38.1084 29.5344 35.2631 29.5344 32.0515ZM32.084 21.4968C32.084 21.497 32.0823 21.4975 32.0791 21.498C32.0823 21.497 32.084 21.4967 32.084 21.4968ZM32.0241 21.498C32.0208 21.4975 32.0192 21.497 32.0192 21.4968C32.0192 21.4967 32.0209 21.497 32.0241 21.498ZM32.0192 42.6062C32.0192 42.6061 32.0208 42.6055 32.0241 42.605C32.0209 42.606 32.0192 42.6063 32.0192 42.6062ZM32.0833 42.6059C32.0826 42.6057 32.0812 42.6053 32.0791 42.605C32.0823 42.606 32.084 42.6063 32.084 42.6062C32.084 42.6061 32.0838 42.606 32.0833 42.6059Z" fill="black"/>
<path fill-rule="evenodd" clip-rule="evenodd" d="M25.0471 30.3276C24.678 30.423 24.3296 30.5254 24.0041 30.6339C23.001 30.9683 22.2975 31.3334 21.8755 31.6659C21.6247 31.8636 21.5379 31.9946 21.5096 32.0515C21.5379 32.1084 21.6247 32.2393 21.8755 32.437C22.2975 32.7696 23.001 33.1346 24.0041 33.469C24.3205 33.5745 24.6584 33.6742 25.0159 33.7673C25.0428 34.8351 25.1037 35.881 25.1965 36.8928C24.4287 36.7271 23.7111 36.5336 23.0555 36.3151C21.8777 35.9225 20.8163 35.4219 20.0186 34.7932C19.2378 34.1779 18.5 33.2627 18.5 32.0515C18.5 30.8402 19.2378 29.925 20.0186 29.3097C20.8163 28.681 21.8777 28.1805 23.0555 27.7879C23.7378 27.5604 24.4871 27.3601 25.2905 27.1901C25.1759 28.2008 25.0941 29.251 25.0471 30.3276ZM31.3572 29.5411C31.5865 29.5366 31.8181 29.5343 32.0515 29.5343C35.2631 29.5343 38.1084 29.9704 40.0989 30.6339C41.102 30.9683 41.8055 31.3334 42.2275 31.6659C42.4783 31.8636 42.5651 31.9946 42.5934 32.0515C42.5651 32.1084 42.4783 32.2393 42.2275 32.437C41.8055 32.7696 41.102 33.1346 40.0989 33.469C38.1084 34.1325 35.2631 34.5686 32.0515 34.5686C31.7996 34.5686 31.55 34.566 31.3028 34.5607C31.3553 35.6277 31.4472 36.6351 31.5704 37.5656C31.7302 37.5676 31.8905 37.5686 32.0515 37.5686C35.4958 37.5686 38.6763 37.1055 41.0475 36.3151C42.2253 35.9225 43.2867 35.4219 44.0844 34.7932C44.8652 34.1779 45.603 33.2627 45.603 32.0515C45.603 30.8402 44.8652 29.925 44.0844 29.3097C43.2867 28.681 42.2253 28.1805 41.0475 27.7879C38.6763 26.9975 35.4958 26.5343 32.0515 26.5343C31.9349 26.5343 31.8187 26.5348 31.7027 26.5359C31.5532 27.454 31.4349 28.4623 31.3572 29.5411ZM21.4968 32.0191C21.497 32.0191 21.4975 32.0207 21.498 32.024C21.497 32.0208 21.4967 32.0191 21.4968 32.0191ZM21.498 32.0789C21.4975 32.0822 21.497 32.0838 21.4968 32.0838C21.4967 32.0838 21.497 32.0822 21.498 32.0789ZM42.6062 32.0838C42.6061 32.0838 42.6055 32.0822 42.605 32.0789C42.606 32.0822 42.6063 32.0838 42.6062 32.0838ZM42.6055 32.0215C42.6053 32.0222 42.6051 32.023 42.605 32.024C42.606 32.0207 42.6063 32.0191 42.6062 32.0191C42.6061 32.0191 42.6058 32.0199 42.6055 32.0215Z" fill="#67707B"/>
<path fill-rule="evenodd" clip-rule="evenodd" d="M6 30.5C5.17157 30.5 4.5 31.1716 4.5 32C4.5 32.8284 5.17157 33.5 6 33.5H9C9.82843 33.5 10.5 32.8284 10.5 32C10.5 31.1716 9.82843 30.5 9 30.5H6ZM55 30.5C54.1716 30.5 53.5 31.1716 53.5 32C53.5 32.8284 54.1716 33.5 55 33.5H58C58.8284 33.5 59.5 32.8284 59.5 32C59.5 31.1716 58.8284 30.5 58 30.5H55Z" fill="#67707B"/>
<path fill-rule="evenodd" clip-rule="evenodd" d="M36.4879 6.52203C37.3041 6.66347 37.8512 7.43984 37.7097 8.2561L37.1251 11.6299C36.1647 11.3891 35.1781 11.2143 34.1704 11.1108L34.7538 7.7439C34.8952 6.92764 35.6716 6.38058 36.4879 6.52203ZM33.1425 17.0429L32.5528 20.4462C32.4113 21.2624 32.9584 22.0388 33.7746 22.1802C34.5909 22.3217 35.3673 21.7746 35.5087 20.9584L36.0965 17.5663C35.1468 17.2973 34.1588 17.1195 33.1425 17.0429ZM30.2474 41.6917C31.0636 41.8332 31.6107 42.6096 31.4692 43.4258L29.246 56.2561C29.1046 57.0724 28.3282 57.6194 27.512 57.478C26.6957 57.3366 26.1487 56.5602 26.2901 55.7439L28.5133 42.9136C28.6547 42.0974 29.4311 41.5503 30.2474 41.6917Z" fill="black"/>
<path d="M11.6771 23.7423L9.80368 28.3421L6.23653 24.5773L11.6771 23.7423Z" fill="black"/>
<path d="M9.77637 36.6463C9.12078 40.4029 7.71416 43 6.08469 43C3.82874 43 1.99993 38.0219 1.99993 31.8811C1.99993 25.7403 3.82874 20.7621 6.08469 20.7621C7.35007 20.7621 8.48107 22.3283 9.23032 24.7874" stroke="black" stroke-width="3"/>
</svg>
