<svg width="64" height="64" viewBox="0 0 64 64" fill="none" xmlns="http://www.w3.org/2000/svg">
<g clip-path="url(#clip0_1967:18230)">
<path fill-rule="evenodd" clip-rule="evenodd" d="M21.7477 10.549C22.1081 15.6589 26.3676 19.6923 31.5692 19.6923C36.7876 19.6923 41.0579 15.6326 41.394 10.4992C38.3599 9.35396 35.0713 8.72729 31.6364 8.72729C28.1519 8.72729 24.8181 9.37215 21.7477 10.549ZM18.9204 11.82C10.0558 16.4221 4 25.6857 4 36.3637C4 51.6268 16.3732 64 31.6364 64C46.8995 64 59.2727 51.6268 59.2727 36.3637C59.2727 25.6357 53.1601 16.3354 44.2277 11.7557C43.3057 17.9192 37.9895 22.6462 31.5692 22.6462C25.1712 22.6462 19.8696 17.9521 18.9204 11.82Z" fill="#000F18"/>
<path d="M38.5681 48H34.3802L31.4792 42.9257H31.152H29.3416V48H25.5681V32H31.501C33.6822 32 35.2963 32.4495 36.3433 33.3486C37.3903 34.2476 37.9138 35.5124 37.9138 37.1429C37.9138 38.3771 37.6593 39.4133 37.1503 40.2514C36.6559 41.0743 35.9579 41.699 35.0564 42.1257L38.5681 48ZM29.3416 35.3829V39.5429H31.3919C32.1626 39.5429 32.7661 39.36 33.2023 38.9943C33.6531 38.6133 33.8785 38.0648 33.8785 37.3486C33.8785 36.6933 33.6749 36.2057 33.2678 35.8857C32.8606 35.5505 32.2135 35.3829 31.3265 35.3829H29.3416Z" fill="white"/>
<path d="M41.4155 12.8462C41.4155 18.284 37.0072 22.6923 31.5693 22.6923C26.1314 22.6923 21.7231 18.284 21.7231 12.8462C21.7231 7.40827 26.1314 3 31.5693 3C37.0072 3 41.4155 7.40827 41.4155 12.8462Z" fill="white"/>
<path fill-rule="evenodd" clip-rule="evenodd" d="M44.4155 12.8462C44.4155 19.9409 38.664 25.6923 31.5693 25.6923C24.4746 25.6923 18.7231 19.9409 18.7231 12.8462C18.7231 5.75142 24.4746 0 31.5693 0C38.664 0 44.4155 5.75142 44.4155 12.8462ZM31.5693 22.6923C37.0072 22.6923 41.4155 18.284 41.4155 12.8462C41.4155 7.40827 37.0072 3 31.5693 3C26.1314 3 21.7231 7.40827 21.7231 12.8462C21.7231 18.284 26.1314 22.6923 31.5693 22.6923Z" fill="#000F18"/>
</g>
<defs>
<clipPath id="clip0_1967:18230">
<rect width="64" height="64" fill="white"/>
</clipPath>
</defs>
</svg>
