<svg width="32" height="32" viewBox="0 0 32 32" fill="none" xmlns="http://www.w3.org/2000/svg">
<path fill-rule="evenodd" clip-rule="evenodd" d="M0 10.5264C0 7.71443 2.14783 5.33337 4.91852 5.33337H27.0815C29.8522 5.33337 32 7.71443 32 10.5264C32 13.3383 29.8522 15.7193 27.0815 15.7193H23.9407V26.6667H22.163V13.9416H27.0815C28.7618 13.9416 30.2222 12.4686 30.2222 10.5264C30.2222 8.58411 28.7618 7.11115 27.0815 7.11115H4.91852C3.2382 7.11115 1.77778 8.58411 1.77778 10.5264C1.77778 12.4686 3.2382 13.9416 4.91852 13.9416H9.83704V26.6667H8.05926V15.7193H4.91852C2.14783 15.7193 0 13.3383 0 10.5264Z" fill="#0E141B"/>
<path d="M19.7458 24.0001H17.5272L15.9903 21.4347H14.8578V24.0001H12.8587V15.9112H16.0018C17.1574 15.9112 18.0125 16.1384 18.5672 16.593C19.1218 17.0475 19.3992 17.6869 19.3992 18.5112C19.3992 19.1352 19.2644 19.659 18.9947 20.0827C18.7328 20.4987 18.363 20.8146 17.8854 21.0303L19.7458 24.0001ZM14.8578 17.6214V19.7245H15.9441C16.3524 19.7245 16.6721 19.6321 16.9032 19.4472C17.142 19.2546 17.2614 18.9772 17.2614 18.6152C17.2614 18.2839 17.1535 18.0374 16.9378 17.8756C16.7221 17.7061 16.3793 17.6214 15.9094 17.6214H14.8578Z" fill="#0E141B"/>
<path fill-rule="evenodd" clip-rule="evenodd" d="M0 10.5264C0 7.71443 2.14783 5.33337 4.91852 5.33337H27.0815C29.8522 5.33337 32 7.71443 32 10.5264C32 13.3383 29.8522 15.7193 27.0815 15.7193H23.9407V26.6667H22.163V13.9416H27.0815C28.7618 13.9416 30.2222 12.4686 30.2222 10.5264C30.2222 8.58411 28.7618 7.11115 27.0815 7.11115H4.91852C3.2382 7.11115 1.77778 8.58411 1.77778 10.5264C1.77778 12.4686 3.2382 13.9416 4.91852 13.9416H9.83704V26.6667H8.05926V15.7193H4.91852C2.14783 15.7193 0 13.3383 0 10.5264Z" fill="#0E141B"/>
<path d="M19.7458 24.0001H17.5272L15.9903 21.4347H14.8578V24.0001H12.8587V15.9112H16.0018C17.1574 15.9112 18.0125 16.1384 18.5672 16.593C19.1218 17.0475 19.3992 17.6869 19.3992 18.5112C19.3992 19.1352 19.2644 19.659 18.9947 20.0827C18.7328 20.4987 18.363 20.8146 17.8854 21.0303L19.7458 24.0001ZM14.8578 17.6214V19.7245H15.9441C16.3524 19.7245 16.6721 19.6321 16.9032 19.4472C17.142 19.2546 17.2614 18.9772 17.2614 18.6152C17.2614 18.2839 17.1535 18.0374 16.9378 17.8756C16.7221 17.7061 16.3793 17.6214 15.9094 17.6214H14.8578Z" fill="#0E141B"/>
</svg>
