<svg width="64" height="64" viewBox="0 0 64 64" fill="none" xmlns="http://www.w3.org/2000/svg">
<circle r="18" transform="matrix(0 -1 -1 0 32 32)" stroke="#67707B" stroke-width="3"/>
<path fill-rule="evenodd" clip-rule="evenodd" d="M29.4314 31.9485C29.4314 35.1601 29.8675 38.0053 30.531 39.9959C30.8654 40.999 31.2305 41.7025 31.563 42.1245C31.7607 42.3753 31.8917 42.4621 31.9486 42.4904C32.0055 42.4621 32.1364 42.3753 32.3341 42.1245C32.6667 41.7025 33.0317 40.999 33.3661 39.9959C33.4739 39.6724 33.5757 39.3264 33.6706 38.96C34.7553 38.9106 35.8097 38.8162 36.8162 38.6799C36.6449 39.4944 36.4424 40.2538 36.2122 40.9445C35.8196 42.1223 35.319 43.1837 34.6903 43.9814C34.075 44.7622 33.1598 45.5 31.9486 45.5C30.7373 45.5 29.8221 44.7622 29.2068 43.9814C28.5781 43.1837 28.0776 42.1223 27.685 40.9445C26.8945 38.5733 26.4314 35.3928 26.4314 31.9485C26.4314 28.5042 26.8945 25.3237 27.685 22.9525C28.0776 21.7747 28.5781 20.7133 29.2068 19.9156C29.8221 19.1348 30.7373 18.397 31.9486 18.397C33.1598 18.397 34.075 19.1348 34.6903 19.9156C35.319 20.7133 35.8196 21.7747 36.2122 22.9525C36.4524 23.6731 36.6623 24.4684 36.8383 25.3231C35.8333 25.1863 34.7805 25.0913 33.6973 25.0413C33.5949 24.636 33.4841 24.2551 33.3661 23.9011C33.0317 22.898 32.6667 22.1945 32.3341 21.7725C32.1364 21.5217 32.0055 21.4349 31.9486 21.4066C31.8917 21.4349 31.7607 21.5217 31.563 21.7725C31.2305 22.1945 30.8654 22.898 30.531 23.9011C29.8675 25.8916 29.4314 28.7369 29.4314 31.9485ZM31.9809 42.5032C31.9809 42.503 31.9793 42.5025 31.976 42.502C31.9793 42.503 31.9809 42.5033 31.9809 42.5032ZM31.9211 42.502C31.9178 42.5025 31.9162 42.503 31.9162 42.5032C31.9162 42.5033 31.9178 42.503 31.9211 42.502ZM31.9162 21.3938C31.9162 21.3939 31.9178 21.3945 31.9211 21.395C31.9178 21.394 31.9162 21.3937 31.9162 21.3938ZM31.9803 21.3941C31.9795 21.3943 31.9781 21.3947 31.976 21.395C31.9793 21.394 31.9809 21.3937 31.9809 21.3938C31.9809 21.3939 31.9807 21.394 31.9803 21.3941Z" fill="#67707B"/>
<path fill-rule="evenodd" clip-rule="evenodd" d="M24.944 33.6724C24.575 33.577 24.2266 33.4746 23.9011 33.3661C22.898 33.0317 22.1945 32.6666 21.7725 32.3341C21.5217 32.1364 21.4349 32.0054 21.4066 31.9485C21.4349 31.8916 21.5217 31.7607 21.7725 31.563C22.1945 31.2304 22.898 30.8654 23.9011 30.531C24.2174 30.4255 24.5554 30.3258 24.9129 30.2327C24.9398 29.1649 25.0007 28.119 25.0935 27.1072C24.3256 27.2729 23.6081 27.4664 22.9524 27.6849C21.7746 28.0775 20.7133 28.5781 19.9156 29.2068C19.1348 29.8221 18.397 30.7373 18.397 31.9485C18.397 33.1598 19.1348 34.075 19.9156 34.6903C20.7133 35.319 21.7746 35.8195 22.9524 36.2121C23.6348 36.4396 24.3841 36.6399 25.1875 36.8099C25.0729 35.7992 24.9911 34.749 24.944 33.6724ZM31.2541 34.4589C31.4835 34.4634 31.715 34.4657 31.9485 34.4657C35.16 34.4657 38.0053 34.0296 39.9958 33.3661C40.9989 33.0317 41.7025 32.6666 42.1244 32.3341C42.3753 32.1364 42.4621 32.0054 42.4904 31.9485C42.4621 31.8916 42.3753 31.7607 42.1244 31.563C41.7025 31.2304 40.9989 30.8654 39.9958 30.531C38.0053 29.8675 35.16 29.4314 31.9485 29.4314C31.6966 29.4314 31.4469 29.434 31.1998 29.4393C31.2522 28.3723 31.3442 27.3649 31.4674 26.4344C31.6271 26.4324 31.7875 26.4314 31.9485 26.4314C35.3928 26.4314 38.5732 26.8945 40.9445 27.6849C42.1223 28.0775 43.1837 28.5781 43.9814 29.2068C44.7622 29.8221 45.5 30.7373 45.5 31.9485C45.5 33.1598 44.7622 34.075 43.9814 34.6903C43.1837 35.319 42.1223 35.8195 40.9445 36.2121C38.5732 37.0025 35.3928 37.4657 31.9485 37.4657C31.8319 37.4657 31.7156 37.4652 31.5997 37.4641C31.4502 36.546 31.3319 35.5377 31.2541 34.4589ZM21.3938 31.9809C21.3939 31.9809 21.3944 31.9793 21.395 31.976C21.394 31.9792 21.3937 31.9809 21.3938 31.9809ZM21.395 31.9211C21.3944 31.9178 21.3939 31.9162 21.3938 31.9162C21.3937 31.9162 21.394 31.9178 21.395 31.9211ZM42.5031 31.9162C42.503 31.9162 42.5025 31.9178 42.5019 31.9211C42.503 31.9178 42.5032 31.9162 42.5031 31.9162ZM42.5024 31.9785C42.5023 31.9778 42.5021 31.977 42.5019 31.976C42.503 31.9793 42.5032 31.9809 42.5031 31.9809C42.5031 31.9809 42.5028 31.9801 42.5024 31.9785Z" fill="black"/>
<path fill-rule="evenodd" clip-rule="evenodd" d="M33.5 58C33.5 58.8284 32.8284 59.5 32 59.5C31.1716 59.5 30.5 58.8284 30.5 58V55C30.5 54.1716 31.1716 53.5 32 53.5C32.8284 53.5 33.5 54.1716 33.5 55V58ZM33.5 9C33.5 9.82843 32.8284 10.5 32 10.5C31.1716 10.5 30.5 9.82843 30.5 9V6C30.5 5.17157 31.1716 4.5 32 4.5C32.8284 4.5 33.5 5.17157 33.5 6V9Z" fill="#67707B"/>
<path fill-rule="evenodd" clip-rule="evenodd" d="M57.478 27.512C57.3365 26.6957 56.5602 26.1487 55.7439 26.2901L52.3701 26.8747C52.611 27.8351 52.7857 28.8218 52.8892 29.8295L56.2561 29.2461C57.0724 29.1046 57.6194 28.3283 57.478 27.512ZM46.9571 30.8574L43.5539 31.4471C42.7376 31.5886 41.9612 31.0415 41.8198 30.2253C41.6783 29.409 42.2254 28.6326 43.0417 28.4912L46.4338 27.9034C46.7028 28.8531 46.8806 29.8411 46.9571 30.8574ZM22.3083 33.7525C22.1669 32.9362 21.3905 32.3892 20.5742 32.5306L7.74393 34.7538C6.92766 34.8953 6.38061 35.6716 6.52205 36.4879C6.66349 37.3042 7.43986 37.8512 8.25612 37.7098L21.0864 35.4866C21.9027 35.3451 22.4497 34.5688 22.3083 33.7525Z" fill="black"/>
<path d="M40.2576 52L35.1414 54.0838L39.3289 58.0515L40.2576 52Z" fill="black"/>
<path d="M27.3537 54.2235C23.5971 54.8791 21 56.2857 21 57.9152C21 60.1711 25.9781 62 32.1189 62C38.2597 62 43.2379 60.1711 43.2379 57.9152C43.2379 56.6498 41.6717 55.5188 39.2126 54.7696" stroke="black" stroke-width="3"/>
</svg>
