<svg width="32" height="32" viewBox="0 0 32 32" fill="none" xmlns="http://www.w3.org/2000/svg">
<path fill-rule="evenodd" clip-rule="evenodd" d="M16 7.75C11.4437 7.75 7.75 11.4437 7.75 16C7.75 20.5563 11.4437 24.25 16 24.25C20.5563 24.25 24.25 20.5563 24.25 16C24.25 11.4437 20.5563 7.75 16 7.75ZM6.25 16C6.25 10.6152 10.6152 6.25 16 6.25C21.3848 6.25 25.75 10.6152 25.75 16C25.75 21.3848 21.3848 25.75 16 25.75C10.6152 25.75 6.25 21.3848 6.25 16Z" fill="#67707B"/>
<path fill-rule="evenodd" clip-rule="evenodd" d="M14.7671 16.0258C14.7671 14.42 14.9852 12.9973 15.3169 12.0021C15.4841 11.5005 15.6666 11.1487 15.8329 10.9378C15.9317 10.8123 15.9972 10.769 16.0257 10.7548C16.0541 10.769 16.1196 10.8123 16.2184 10.9378C16.3847 11.1487 16.5673 11.5005 16.7344 12.0021C16.7883 12.1638 16.8393 12.3368 16.8867 12.52C17.429 12.5447 17.9562 12.5919 18.4595 12.6601C18.3738 12.2528 18.2726 11.8731 18.1575 11.5277C17.9612 10.9388 17.7109 10.4082 17.3966 10.0093C17.0889 9.6189 16.6313 9.25 16.0257 9.25C15.42 9.25 14.9625 9.6189 14.6548 10.0093C14.3405 10.4082 14.0902 10.9388 13.8939 11.5277C13.4987 12.7134 13.2671 14.3036 13.2671 16.0258C13.2671 17.7479 13.4987 19.3381 13.8939 20.5238C14.0902 21.1127 14.3405 21.6433 14.6548 22.0422C14.9625 22.4326 15.42 22.8015 16.0257 22.8015C16.6313 22.8015 17.0889 22.4326 17.3966 22.0422C17.7109 21.6433 17.9612 21.1127 18.1575 20.5238C18.2776 20.1635 18.3826 19.7658 18.4705 19.3384C17.9681 19.4069 17.4416 19.4544 16.9 19.4794C16.8488 19.682 16.7934 19.8725 16.7344 20.0494C16.5673 20.551 16.3847 20.9028 16.2184 21.1137C16.1196 21.2392 16.0541 21.2826 16.0257 21.2967C15.9972 21.2826 15.9317 21.2392 15.8329 21.1137C15.6666 20.9028 15.4841 20.551 15.3169 20.0494C14.9852 19.0542 14.7671 17.6315 14.7671 16.0258ZM16.0419 10.7484C16.0419 10.7485 16.041 10.7487 16.0394 10.749C16.041 10.7485 16.0419 10.7484 16.0419 10.7484ZM16.0119 10.749C16.0103 10.7487 16.0095 10.7485 16.0095 10.7484C16.0095 10.7484 16.0103 10.7485 16.0119 10.749ZM16.0095 21.3031C16.0095 21.303 16.0103 21.3028 16.0119 21.3025C16.0103 21.303 16.0095 21.3031 16.0095 21.3031ZM16.0415 21.303C16.0412 21.3028 16.0405 21.3027 16.0394 21.3025C16.041 21.303 16.0419 21.3031 16.0419 21.3031C16.0419 21.3031 16.0418 21.303 16.0415 21.303Z" fill="#0E141B"/>
<path fill-rule="evenodd" clip-rule="evenodd" d="M12.5235 15.1639C12.339 15.2116 12.1648 15.2628 12.0021 15.317C11.5005 15.4842 11.1487 15.6667 10.9378 15.833C10.8123 15.9319 10.769 15.9973 10.7548 16.0258C10.769 16.0542 10.8123 16.1197 10.9378 16.2186C11.1487 16.3848 11.5005 16.5674 12.0021 16.7346C12.1602 16.7873 12.3292 16.8371 12.508 16.8837C12.5214 17.4176 12.5518 17.9405 12.5983 18.4465C12.2143 18.3636 11.8556 18.2669 11.5277 18.1576C10.9388 17.9613 10.4082 17.711 10.0093 17.3967C9.6189 17.089 9.25 16.6314 9.25 16.0258C9.25 15.4202 9.6189 14.9626 10.0093 14.6549C10.4082 14.3406 10.9388 14.0903 11.5277 13.894C11.8689 13.7803 12.2436 13.6801 12.6452 13.5951C12.588 14.1005 12.547 14.6255 12.5235 15.1639ZM15.6786 14.7706C15.7933 14.7684 15.909 14.7672 16.0258 14.7672C17.6315 14.7672 19.0542 14.9853 20.0494 15.317C20.551 15.4842 20.9028 15.6667 21.1137 15.833C21.2392 15.9319 21.2826 15.9973 21.2967 16.0258C21.2826 16.0542 21.2392 16.1197 21.1137 16.2186C20.9028 16.3848 20.551 16.5674 20.0494 16.7346C19.0542 17.0663 17.6315 17.2844 16.0258 17.2844C15.8998 17.2844 15.775 17.283 15.6514 17.2804C15.6776 17.8139 15.7236 18.3176 15.7852 18.7829C15.8651 18.7839 15.9453 18.7844 16.0258 18.7844C17.7479 18.7844 19.3381 18.5528 20.5238 18.1576C21.1127 17.9613 21.6433 17.711 22.0422 17.3967C22.4326 17.089 22.8015 16.6314 22.8015 16.0258C22.8015 15.4202 22.4326 14.9626 22.0422 14.6549C21.6433 14.3406 21.1127 14.0903 20.5238 13.894C19.3381 13.4988 17.7479 13.2672 16.0258 13.2672C15.9675 13.2672 15.9093 13.2675 15.8514 13.268C15.7766 13.727 15.7174 14.2312 15.6786 14.7706ZM10.7484 16.0096C10.7485 16.0096 10.7487 16.0104 10.749 16.0121C10.7485 16.0104 10.7484 16.0096 10.7484 16.0096ZM10.749 16.0395C10.7487 16.0412 10.7485 16.042 10.7484 16.042C10.7484 16.042 10.7485 16.0412 10.749 16.0395ZM21.3031 16.042C21.303 16.042 21.3028 16.0412 21.3025 16.0395C21.303 16.0412 21.3031 16.042 21.3031 16.042ZM21.3027 16.0108C21.3027 16.0112 21.3026 16.0116 21.3025 16.0121C21.303 16.0104 21.3031 16.0096 21.3031 16.0096C21.303 16.0096 21.3029 16.01 21.3027 16.0108Z" fill="#67707B"/>
<path fill-rule="evenodd" clip-rule="evenodd" d="M3 15.25C2.58579 15.25 2.25 15.5858 2.25 16C2.25 16.4142 2.58579 16.75 3 16.75H4.5C4.91421 16.75 5.25 16.4142 5.25 16C5.25 15.5858 4.91421 15.25 4.5 15.25H3ZM27.5 15.25C27.0858 15.25 26.75 15.5858 26.75 16C26.75 16.4142 27.0858 16.75 27.5 16.75H29C29.4142 16.75 29.75 16.4142 29.75 16C29.75 15.5858 29.4142 15.25 29 15.25H27.5Z" fill="#67707B"/>
<path fill-rule="evenodd" clip-rule="evenodd" d="M18.2441 3.26101C18.6522 3.33173 18.9257 3.71992 18.855 4.12805L18.5627 5.81497C18.0825 5.69453 17.5892 5.60716 17.0853 5.55542L17.377 3.87195C17.4477 3.46382 17.8359 3.19029 18.2441 3.26101ZM16.5714 8.52145L16.2765 10.2231C16.2058 10.6312 16.4793 11.0194 16.8874 11.0901C17.2956 11.1608 17.6838 10.8873 17.7545 10.4792L18.0484 8.78314C17.5735 8.64863 17.0795 8.55973 16.5714 8.52145ZM15.1238 20.8459C15.5319 20.9166 15.8055 21.3048 15.7347 21.7129L14.6231 28.1281C14.5524 28.5362 14.1642 28.8097 13.7561 28.739C13.348 28.6683 13.0744 28.2801 13.1452 27.872L14.2568 21.4568C14.3275 21.0487 14.7157 20.7752 15.1238 20.8459Z" fill="#0E141B"/>
<path d="M5.83882 11.8713L4.90209 14.1712L3.11851 12.2888L5.83882 11.8713Z" fill="#0E141B"/>
<path fill-rule="evenodd" clip-rule="evenodd" d="M3.04722 20.7494C3.04467 20.75 3.04331 20.75 3.04253 20.75H3.04251C3.04179 20.75 3.03929 20.75 3.03354 20.7484C3.02736 20.7467 3.01487 20.7424 2.99588 20.7318C2.95621 20.7097 2.89339 20.663 2.81377 20.5713C2.65053 20.3833 2.46942 20.0679 2.30234 19.613C1.97036 18.7094 1.75014 17.4111 1.75014 15.9405C1.75014 14.47 1.97036 13.1717 2.30234 12.268C2.46942 11.8132 2.65053 11.4977 2.81377 11.3098C2.89339 11.2181 2.95621 11.1713 2.99588 11.1492C3.01487 11.1386 3.02736 11.1344 3.03354 11.1327C3.03933 11.1311 3.04182 11.1311 3.04253 11.1311H3.04258C3.04327 11.1311 3.04649 11.1311 3.05412 11.1334C3.06258 11.1361 3.07932 11.1425 3.10431 11.1582C3.15673 11.191 3.23503 11.2578 3.32998 11.382C3.52307 11.6344 3.7251 12.0452 3.8979 12.6123L5.33278 12.1751C5.13095 11.5127 4.86293 10.9172 4.52144 10.4707C4.18737 10.0339 3.69321 9.63107 3.04253 9.63107C2.46282 9.63107 2.00511 9.95334 1.6813 10.3261C1.35586 10.7008 1.09686 11.1995 0.894347 11.7508C0.487127 12.8592 0.250144 14.3407 0.250144 15.9405C0.250144 17.5404 0.487127 19.0218 0.894347 20.1303C1.09686 20.6816 1.35586 21.1802 1.6813 21.5549C2.00511 21.9277 2.46282 22.25 3.04253 22.25C3.8755 22.25 4.44909 21.6028 4.79975 20.9871C5.17601 20.3266 5.45465 19.4408 5.6272 18.4521L4.14953 18.1942C3.99429 19.0838 3.75738 19.7865 3.49635 20.2447C3.36607 20.4735 3.24645 20.6117 3.15511 20.6861C3.11145 20.7216 3.08046 20.7375 3.06353 20.7443C3.05521 20.7476 3.04987 20.7489 3.04722 20.7494Z" fill="#0E141B"/>
</svg>
