<svg width="64" height="64" viewBox="0 0 64 64" fill="none" xmlns="http://www.w3.org/2000/svg">
<circle cx="32" cy="25" r="25" fill="#000F18"/>
<path d="M39 33H34.8121L31.9111 27.9257H31.5839H29.7735V33H26V17H31.9329C34.1141 17 35.7282 17.4495 36.7752 18.3486C37.8221 19.2476 38.3456 20.5124 38.3456 22.1429C38.3456 23.3771 38.0912 24.4133 37.5822 25.2514C37.0878 26.0743 36.3898 26.699 35.4883 27.1257L39 33ZM29.7735 20.3829V24.5429H31.8238C32.5945 24.5429 33.198 24.36 33.6342 23.9943C34.085 23.6133 34.3104 23.0648 34.3104 22.3486C34.3104 21.6933 34.1068 21.2057 33.6997 20.8857C33.2925 20.5505 32.6454 20.3829 31.7584 20.3829H29.7735Z" fill="white"/>
<path d="M40 54L32 64L24 54H40Z" fill="#000F18"/>
</svg>
