<svg width="32" height="32" viewBox="0 0 32 32" fill="none" xmlns="http://www.w3.org/2000/svg">
<path fill-rule="evenodd" clip-rule="evenodd" d="M16.0001 5.33333L10.6668 0H21.3334L16.0001 5.33333ZM16.0001 32C22.873 32 28.4446 26.4284 28.4446 19.5556C28.4446 12.6827 22.873 7.11111 16.0001 7.11111C9.12723 7.11111 3.55566 12.6827 3.55566 19.5556C3.55566 26.4284 9.12723 32 16.0001 32Z" fill="#0E141B"/>
<path d="M16.1281 23.9999H13.7387L12.0836 21.2373H11.897H10.8641V23.9999H8.71118V15.2888H12.0961C13.3405 15.2888 14.2614 15.5336 14.8587 16.023C15.4561 16.5125 15.7547 17.2011 15.7547 18.0888C15.7547 18.7608 15.6096 19.325 15.3192 19.7813C15.0371 20.2293 14.6389 20.5694 14.1245 20.8017L16.1281 23.9999ZM10.8641 17.1306V19.3955H12.0338C12.4736 19.3955 12.8178 19.2959 13.0667 19.0968C13.3239 18.8894 13.4525 18.5908 13.4525 18.2008C13.4525 17.8441 13.3364 17.5786 13.1041 17.4044C12.8718 17.2219 12.5026 17.1306 11.9965 17.1306H10.8641Z" fill="white"/>
<path d="M20.3517 15.0773C21.4137 15.0773 22.2143 15.2847 22.7535 15.6995C23.2928 16.1143 23.5624 16.6494 23.5624 17.3048C23.5624 17.7279 23.438 18.1054 23.1891 18.4373C22.9402 18.7691 22.5793 19.0346 22.1064 19.2337V19.2835C22.6623 19.3996 23.102 19.6361 23.4255 19.9928C23.7574 20.3496 23.9233 20.8308 23.9233 21.4364C23.9233 21.9922 23.7615 22.4817 23.438 22.9048C23.1144 23.3196 22.6747 23.6432 22.1188 23.8755C21.5713 24.0995 20.9657 24.2115 20.302 24.2115C19.6549 24.2115 19.0409 24.1244 18.4602 23.9502C17.8794 23.7759 17.3941 23.527 17.0042 23.2035L17.8877 21.6106C18.4851 22.1333 19.2234 22.3946 20.1028 22.3946C20.584 22.3946 20.9574 22.2992 21.2228 22.1084C21.4966 21.9093 21.6335 21.6355 21.6335 21.287C21.6335 20.6068 21.1274 20.2666 20.1153 20.2666H18.8957V18.6737H19.966C20.3891 18.6737 20.7168 18.599 20.9491 18.4497C21.1897 18.2921 21.31 18.0722 21.31 17.7902C21.31 17.5247 21.1897 17.309 20.9491 17.143C20.7168 16.9771 20.3891 16.8942 19.966 16.8942C19.6258 16.8942 19.2898 16.9522 18.958 17.0684C18.6261 17.1762 18.3316 17.3256 18.0744 17.5164L17.1784 16.135C17.6098 15.7866 18.0951 15.5253 18.6344 15.351C19.182 15.1685 19.7544 15.0773 20.3517 15.0773Z" fill="white"/>
</svg>
