<svg width="32" height="32" viewBox="0 0 32 32" fill="none" xmlns="http://www.w3.org/2000/svg">
<path fill-rule="evenodd" clip-rule="evenodd" d="M16 7.75C11.4437 7.75 7.75 11.4437 7.75 16C7.75 20.5563 11.4437 24.25 16 24.25C20.5563 24.25 24.25 20.5563 24.25 16C24.25 11.4437 20.5563 7.75 16 7.75ZM6.25 16C6.25 10.6152 10.6152 6.25 16 6.25C21.3848 6.25 25.75 10.6152 25.75 16C25.75 21.3848 21.3848 25.75 16 25.75C10.6152 25.75 6.25 21.3848 6.25 16Z" fill="#0E141B"/>
<path fill-rule="evenodd" clip-rule="evenodd" d="M16.0258 17.2843C14.42 17.2843 12.9973 17.0662 12.0021 16.7345C11.5005 16.5673 11.1487 16.3848 10.9378 16.2185C10.8123 16.1196 10.769 16.0542 10.7548 16.0257C10.769 15.9973 10.8123 15.9318 10.9378 15.8329C11.1487 15.6667 11.5005 15.4841 12.0021 15.3169C12.1638 15.263 12.3368 15.2121 12.52 15.1647C12.5447 14.6224 12.5919 14.0952 12.6601 13.5919C12.2528 13.6776 11.8731 13.7788 11.5277 13.8939C10.9388 14.0902 10.4082 14.3405 10.0093 14.6548C9.6189 14.9625 9.25 15.4201 9.25 16.0257C9.25 16.6313 9.6189 17.0889 10.0093 17.3966C10.4082 17.7109 10.9388 17.9612 11.5277 18.1575C12.7134 18.5527 14.3036 18.7843 16.0258 18.7843C17.7479 18.7843 19.3381 18.5527 20.5238 18.1575C21.1127 17.9612 21.6433 17.7109 22.0422 17.3966C22.4326 17.0889 22.8015 16.6313 22.8015 16.0257C22.8015 15.4201 22.4326 14.9625 22.0422 14.6548C21.6433 14.3405 21.1127 14.0902 20.5238 13.8939C20.1635 13.7738 19.7658 13.6688 19.3384 13.5809C19.4069 14.0833 19.4544 14.6098 19.4794 15.1514C19.682 15.2026 19.8725 15.258 20.0494 15.3169C20.551 15.4841 20.9028 15.6667 21.1137 15.8329C21.2392 15.9318 21.2826 15.9973 21.2967 16.0257C21.2826 16.0542 21.2392 16.1196 21.1137 16.2185C20.9028 16.3848 20.551 16.5673 20.0494 16.7345C19.0542 17.0662 17.6315 17.2843 16.0258 17.2843ZM10.7484 16.0095C10.7485 16.0095 10.7487 16.0103 10.749 16.012C10.7485 16.0104 10.7484 16.0095 10.7484 16.0095ZM10.749 16.0394C10.7487 16.0411 10.7485 16.0419 10.7484 16.0419C10.7484 16.0419 10.7485 16.0411 10.749 16.0394ZM21.3031 16.0419C21.303 16.0419 21.3028 16.0411 21.3025 16.0394C21.303 16.0411 21.3031 16.0419 21.3031 16.0419ZM21.303 16.0098C21.3028 16.0102 21.3027 16.0109 21.3025 16.012C21.303 16.0104 21.3031 16.0095 21.3031 16.0095C21.3031 16.0095 21.303 16.0096 21.303 16.0098Z" fill="#0E141B"/>
<path fill-rule="evenodd" clip-rule="evenodd" d="M15.1637 19.528C15.2114 19.7125 15.2627 19.8867 15.3169 20.0494C15.4841 20.551 15.6666 20.9028 15.8329 21.1137C15.9317 21.2392 15.9972 21.2826 16.0257 21.2967C16.0541 21.2826 16.1196 21.2392 16.2184 21.1137C16.3847 20.9028 16.5673 20.551 16.7344 20.0494C16.7872 19.8913 16.837 19.7223 16.8836 19.5436C17.4175 19.5301 17.9404 19.4997 18.4463 19.4533C18.3635 19.8372 18.2667 20.196 18.1575 20.5238C17.9612 21.1127 17.7109 21.6434 17.3966 22.0422C17.0889 22.4326 16.6313 22.8015 16.0257 22.8015C15.42 22.8015 14.9625 22.4326 14.6548 22.0422C14.3405 21.6434 14.0902 21.1127 13.8939 20.5238C13.7802 20.1826 13.68 19.8079 13.595 19.4063C14.1003 19.4636 14.6254 19.5045 15.1637 19.528ZM14.7705 16.3729C14.7682 16.2582 14.7671 16.1425 14.7671 16.0258C14.7671 14.42 14.9852 12.9973 15.3169 12.0021C15.4841 11.5005 15.6666 11.1488 15.8329 10.9378C15.9317 10.8124 15.9972 10.769 16.0257 10.7548C16.0541 10.769 16.1196 10.8124 16.2184 10.9378C16.3847 11.1488 16.5673 11.5005 16.7344 12.0021C17.0662 12.9973 17.2843 14.42 17.2843 16.0258C17.2843 16.1517 17.2829 16.2765 17.2803 16.4001C17.8138 16.3739 18.3175 16.3279 18.7827 16.2663C18.7838 16.1864 18.7843 16.1062 18.7843 16.0258C18.7843 14.3036 18.5527 12.7134 18.1575 11.5277C17.9612 10.9388 17.7109 10.4082 17.3966 10.0093C17.0889 9.61892 16.6313 9.25001 16.0257 9.25001C15.42 9.25001 14.9625 9.61892 14.6548 10.0093C14.3405 10.4082 14.0902 10.9388 13.8939 11.5277C13.4987 12.7134 13.2671 14.3036 13.2671 16.0258C13.2671 16.084 13.2674 16.1422 13.2679 16.2001C13.7269 16.2749 14.2311 16.3341 14.7705 16.3729ZM16.0095 21.3031C16.0095 21.303 16.0103 21.3028 16.0119 21.3025C16.0103 21.303 16.0095 21.3031 16.0095 21.3031ZM16.0394 21.3025C16.041 21.3028 16.0419 21.303 16.0419 21.3031C16.0419 21.3031 16.041 21.303 16.0394 21.3025ZM16.0419 10.7484C16.0419 10.7485 16.041 10.7487 16.0394 10.749C16.041 10.7485 16.0419 10.7484 16.0419 10.7484ZM16.0107 10.7488C16.011 10.7489 16.0115 10.7489 16.0119 10.749C16.0103 10.7485 16.0095 10.7484 16.0095 10.7484C16.0095 10.7485 16.0099 10.7486 16.0107 10.7488Z" fill="#0E141B"/>
<path fill-rule="evenodd" clip-rule="evenodd" d="M3 16.75C2.58579 16.75 2.25 16.4142 2.25 16C2.25 15.5858 2.58579 15.25 3 15.25H4.5C4.91421 15.25 5.25 15.5858 5.25 16C5.25 16.4142 4.91421 16.75 4.5 16.75H3ZM27.5 16.75C27.0858 16.75 26.75 16.4142 26.75 16C26.75 15.5858 27.0858 15.25 27.5 15.25L29 15.25C29.4142 15.25 29.75 15.5858 29.75 16C29.75 16.4142 29.4142 16.75 29 16.75H27.5Z" fill="#0E141B"/>
<path fill-rule="evenodd" clip-rule="evenodd" d="M16.75 29C16.75 29.4142 16.4142 29.75 16 29.75C15.5858 29.75 15.25 29.4142 15.25 29V27.5C15.25 27.0858 15.5858 26.75 16 26.75C16.4142 26.75 16.75 27.0858 16.75 27.5V29ZM16.75 4.5C16.75 4.91421 16.4142 5.25 16 5.25C15.5858 5.25 15.25 4.91421 15.25 4.5V3C15.25 2.58579 15.5858 2.25 16 2.25C16.4142 2.25 16.75 2.58579 16.75 3V4.5Z" fill="#0E141B"/>
</svg>
