<svg width="32" height="32" viewBox="0 0 32 32" fill="none" xmlns="http://www.w3.org/2000/svg">
<g clip-path="url(#clip0_2700_27924)">
<path opacity="0.4" d="M5.33325 10.3455C5.33325 4.58729 10.1089 -0.0806885 15.9999 -0.0806885C21.891 -0.0806885 26.6666 4.58729 26.6666 10.3455V21.5738C26.6666 27.332 21.891 32 15.9999 32C10.1089 32 5.33325 27.332 5.33325 21.5738V10.3455Z" fill="#0E141B"/>
<path fill-rule="evenodd" clip-rule="evenodd" d="M14.6666 5.89598C12.6146 6.47782 11.111 8.36923 11.111 10.6127V15.0683H5.33325V17.7417H26.6666V15.0683H20.8888V10.6127C20.8888 8.36923 19.3853 6.47782 17.3333 5.89598V-0.972046H14.6666V5.89598ZM18.2221 15.0683V10.6127C18.2221 9.3823 17.2272 8.38487 15.9999 8.38487C14.7726 8.38487 13.7777 9.3823 13.7777 10.6127V15.0683H18.2221Z" fill="#DCDEDF"/>
<path d="M11.111 10.6429C11.111 8.39307 12.6146 6.49632 14.6666 5.91283V0C9.40484 0.643152 5.33325 5.04289 5.33325 10.3748V15.1111H11.111V10.6429Z" fill="#0E141B"/>
</g>
<defs>
<clipPath id="clip0_2700_27924">
<rect width="32" height="32" fill="white"/>
</clipPath>
</defs>
</svg>
