<svg width="64" height="64" viewBox="0 0 64 64" fill="none" xmlns="http://www.w3.org/2000/svg">
<path d="M43.5556 13.037C43.5556 17.3973 41.415 21.2576 38.1275 23.6244V18.695C39.3038 17.1157 40 15.1577 40 13.037C40 7.80056 35.755 3.55556 30.5185 3.55556C25.282 3.55556 21.037 7.80056 21.037 13.037C21.037 15.0709 21.6774 16.9551 22.7675 18.4992V23.5207C19.5605 21.1457 17.4815 17.3342 17.4815 13.037C17.4815 5.83688 23.3184 0 30.5185 0C37.7187 0 43.5556 5.83688 43.5556 13.037Z" fill="black"/>
<path d="M35.7571 20.9411V24.9789C35.7571 24.9789 35.7572 24.9788 35.7571 24.9789L35.757 26.7512L56.5926 30.8148V64H24.5926L8 45.8801L11.1882 43.0001C12.3893 41.8944 13.9694 41.2926 15.6018 41.319C17.2341 41.3455 18.7939 41.9982 19.9585 43.1423L24.6993 47.6697L25.1378 47.9304V11.9719C25.2857 10.6393 25.9184 9.40754 26.9156 8.51118C27.8809 7.61142 29.1515 7.11111 30.4711 7.11111C31.7908 7.11111 33.0613 7.61142 34.0267 8.51118C35.0108 9.41168 35.6271 10.6443 35.757 11.9719L35.7571 20.9411C35.7571 20.9412 35.7572 20.9411 35.7571 20.9411Z" fill="black"/>
</svg>
