<svg width="32" height="32" viewBox="0 0 32 32" fill="none" xmlns="http://www.w3.org/2000/svg">
<path fill-rule="evenodd" clip-rule="evenodd" d="M24.25 16C24.25 20.5563 20.5563 24.25 16 24.25C11.4437 24.25 7.75 20.5563 7.75 16C7.75 11.4437 11.4437 7.75 16 7.75C20.5563 7.75 24.25 11.4437 24.25 16ZM16 25.75C21.3848 25.75 25.75 21.3848 25.75 16C25.75 10.6152 21.3848 6.25 16 6.25C10.6152 6.25 6.25 10.6152 6.25 16C6.25 21.3848 10.6152 25.75 16 25.75Z" fill="#67707B"/>
<path fill-rule="evenodd" clip-rule="evenodd" d="M14.7156 15.9742C14.7156 17.58 14.9336 19.0027 15.2654 19.9979C15.4326 20.4995 15.6151 20.8513 15.7814 21.0622C15.8802 21.1877 15.9457 21.231 15.9742 21.2452C16.0026 21.231 16.0681 21.1877 16.1669 21.0622C16.3332 20.8513 16.5157 20.4995 16.6829 19.9979C16.7368 19.8362 16.7877 19.6632 16.8352 19.48C17.3775 19.4553 17.9047 19.4081 18.408 19.3399C18.3223 19.7472 18.2211 20.1269 18.106 20.4723C17.9097 21.0612 17.6594 21.5918 17.345 21.9907C17.0374 22.3811 16.5798 22.75 15.9742 22.75C15.3685 22.75 14.9109 22.3811 14.6033 21.9907C14.2889 21.5918 14.0387 21.0612 13.8424 20.4723C13.4472 19.2866 13.2156 17.6964 13.2156 15.9742C13.2156 14.2521 13.4472 12.6619 13.8424 11.4762C14.0387 10.8873 14.2889 10.3567 14.6033 9.9578C14.9109 9.5674 15.3685 9.1985 15.9742 9.1985C16.5798 9.1985 17.0374 9.5674 17.345 9.9578C17.6594 10.3567 17.9097 10.8873 18.106 11.4762C18.2261 11.8365 18.331 12.2342 18.419 12.6616C17.9165 12.5931 17.3901 12.5456 16.8485 12.5206C16.7973 12.318 16.7419 12.1275 16.6829 11.9506C16.5157 11.449 16.3332 11.0972 16.1669 10.8863C16.0681 10.7608 16.0026 10.7174 15.9742 10.7033C15.9457 10.7174 15.8802 10.7608 15.7814 10.8863C15.6151 11.0972 15.4326 11.449 15.2654 11.9506C14.9336 12.9458 14.7156 14.3685 14.7156 15.9742ZM15.9903 21.2516C15.9903 21.2515 15.9895 21.2513 15.9879 21.251C15.9895 21.2515 15.9903 21.2516 15.9903 21.2516ZM15.9604 21.251C15.9588 21.2513 15.958 21.2515 15.958 21.2516C15.958 21.2516 15.9588 21.2515 15.9604 21.251ZM15.958 10.6969C15.958 10.697 15.9588 10.6972 15.9604 10.6975C15.9588 10.697 15.958 10.6969 15.958 10.6969ZM15.99 10.697C15.9897 10.6972 15.9889 10.6973 15.9879 10.6975C15.9895 10.697 15.9903 10.6969 15.9903 10.6969C15.9903 10.6969 15.9902 10.697 15.99 10.697Z" fill="#67707B"/>
<path fill-rule="evenodd" clip-rule="evenodd" d="M12.472 16.8361C12.2875 16.7884 12.1133 16.7372 11.9506 16.683C11.449 16.5158 11.0972 16.3333 10.8863 16.167C10.7608 16.0681 10.7174 16.0027 10.7033 15.9742C10.7174 15.9458 10.7608 15.8803 10.8863 15.7814C11.0972 15.6152 11.449 15.4326 11.9506 15.2654C12.1087 15.2127 12.2777 15.1629 12.4564 15.1163C12.4699 14.5824 12.5003 14.0595 12.5467 13.5535C12.1628 13.6364 11.804 13.7331 11.4762 13.8424C10.8873 14.0387 10.3566 14.289 9.95779 14.6033C9.56739 14.911 9.19849 15.3686 9.19849 15.9742C9.19849 16.5798 9.56739 17.0374 9.95779 17.3451C10.3566 17.6594 10.8873 17.9097 11.4762 18.106C11.8174 18.2197 12.1921 18.3199 12.5937 18.4049C12.5364 17.8995 12.4955 17.3745 12.472 16.8361ZM15.6271 17.2294C15.7418 17.2316 15.8575 17.2328 15.9742 17.2328C17.58 17.2328 19.0027 17.0147 19.9979 16.683C20.4995 16.5158 20.8512 16.3333 21.0622 16.167C21.1876 16.0681 21.231 16.0027 21.2452 15.9742C21.231 15.9458 21.1876 15.8803 21.0622 15.7814C20.8512 15.6152 20.4995 15.4326 19.9979 15.2654C19.0027 14.9337 17.58 14.7156 15.9742 14.7156C15.8483 14.7156 15.7235 14.717 15.5999 14.7196C15.6261 14.1861 15.6721 13.6824 15.7337 13.2171C15.8136 13.2161 15.8938 13.2156 15.9742 13.2156C17.6964 13.2156 19.2866 13.4472 20.4723 13.8424C21.0612 14.0387 21.5918 14.289 21.9907 14.6033C22.3811 14.911 22.75 15.3686 22.75 15.9742C22.75 16.5798 22.3811 17.0374 21.9907 17.3451C21.5918 17.6594 21.0612 17.9097 20.4723 18.106C19.2866 18.5012 17.6964 18.7328 15.9742 18.7328C15.916 18.7328 15.8578 18.7325 15.7999 18.732C15.7251 18.273 15.6659 17.7688 15.6271 17.2294ZM10.6969 15.9904C10.697 15.9904 10.6972 15.9896 10.6975 15.9879C10.697 15.9896 10.6969 15.9904 10.6969 15.9904ZM10.6975 15.9605C10.6972 15.9588 10.697 15.958 10.6969 15.958C10.6969 15.958 10.697 15.9588 10.6975 15.9605ZM21.2516 15.958C21.2515 15.958 21.2513 15.9588 21.251 15.9605C21.2515 15.9588 21.2516 15.958 21.2516 15.958ZM21.2512 15.9892C21.2511 15.9888 21.2511 15.9884 21.251 15.9879C21.2515 15.9896 21.2516 15.9904 21.2516 15.9904C21.2515 15.9904 21.2514 15.99 21.2512 15.9892Z" fill="#0E141B"/>
<path fill-rule="evenodd" clip-rule="evenodd" d="M16.75 29C16.75 29.4142 16.4142 29.75 16 29.75C15.5858 29.75 15.25 29.4142 15.25 29V27.5C15.25 27.0858 15.5858 26.75 16 26.75C16.4142 26.75 16.75 27.0858 16.75 27.5V29ZM16.75 4.5C16.75 4.91421 16.4142 5.25 16 5.25C15.5858 5.25 15.25 4.91421 15.25 4.5V3C15.25 2.58579 15.5858 2.25 16 2.25C16.4142 2.25 16.75 2.58579 16.75 3V4.5Z" fill="#67707B"/>
<path fill-rule="evenodd" clip-rule="evenodd" d="M28.7389 13.7559C28.6681 13.3478 28.28 13.0743 27.8718 13.145L26.1849 13.4373C26.3054 13.9175 26.3927 14.4108 26.4445 14.9147L28.1279 14.623C28.5361 14.5523 28.8096 14.1641 28.7389 13.7559ZM23.4784 15.4286L21.7768 15.7235C21.3687 15.7942 20.9805 15.5207 20.9098 15.1126C20.839 14.7044 21.1126 14.3162 21.5207 14.2455L23.2168 13.9516C23.3513 14.4265 23.4402 14.9205 23.4784 15.4286ZM11.154 16.8762C11.0833 16.4681 10.6951 16.1945 10.287 16.2653L3.87184 17.3769C3.46371 17.4476 3.19018 17.8358 3.2609 18.2439C3.33162 18.652 3.71981 18.9256 4.12794 18.8548L10.5431 17.7432C10.9512 17.6725 11.2247 17.2843 11.154 16.8762Z" fill="#0E141B"/>
<path d="M20.1289 26L17.5708 27.0419L19.6646 29.0257L20.1289 26Z" fill="#0E141B"/>
<path fill-rule="evenodd" clip-rule="evenodd" d="M11.2506 28.9529C11.25 28.9555 11.25 28.9568 11.25 28.9576V28.9576C11.25 28.9583 11.25 28.9608 11.2516 28.9666C11.2533 28.9728 11.2576 28.9852 11.2682 29.0042C11.2903 29.0439 11.337 29.1067 11.4287 29.1863C11.6167 29.3496 11.9321 29.5307 12.387 29.6978C13.2906 30.0298 14.5889 30.25 16.0595 30.25C17.53 30.25 18.8283 30.0298 19.732 29.6978C20.1868 29.5307 20.5023 29.3496 20.6902 29.1863C20.7819 29.1067 20.8287 29.0439 20.8508 29.0042C20.8614 28.9852 20.8656 28.9728 20.8673 28.9666C20.8689 28.9608 20.8689 28.9583 20.8689 28.9576V28.9575C20.8689 28.9569 20.8689 28.9536 20.8666 28.946C20.864 28.9375 20.8575 28.9208 20.8418 28.8958C20.809 28.8434 20.7422 28.7651 20.618 28.6701C20.3656 28.4771 19.9548 28.275 19.3877 28.1022L19.8249 26.6673C20.4873 26.8692 21.0828 27.1372 21.5293 27.4787C21.9661 27.8128 22.3689 28.3069 22.3689 28.9576C22.3689 29.5373 22.0467 29.995 21.6739 30.3188C21.2992 30.6443 20.8005 30.9033 20.2492 31.1058C19.1408 31.513 17.6593 31.75 16.0595 31.75C14.4596 31.75 12.9782 31.513 11.8697 31.1058C11.3184 30.9033 10.8198 30.6443 10.4451 30.3188C10.0723 29.995 9.75 29.5373 9.75 28.9576C9.75 28.1246 10.3972 27.551 11.0129 27.2004C11.6734 26.8241 12.5592 26.5455 13.5479 26.3729L13.8058 27.8506C12.9162 28.0058 12.2135 28.2427 11.7553 28.5038C11.5265 28.6341 11.3883 28.7537 11.3139 28.845C11.2784 28.8887 11.2625 28.9197 11.2557 28.9366C11.2524 28.9449 11.2511 28.9503 11.2506 28.9529Z" fill="#0E141B"/>
</svg>
