<svg width="64" height="64" viewBox="0 0 64 64" fill="none" xmlns="http://www.w3.org/2000/svg">
<g clip-path="url(#clip0_1967:18456)">
<path d="M16.2888 31.3692C16.2888 22.6922 23.3229 15.6581 31.9999 15.6581C40.677 15.6581 47.7111 22.6922 47.7111 31.3692V48.2889C47.7111 56.9659 40.677 64 31.9999 64C23.3229 64 16.2888 56.9659 16.2888 48.2889V31.3692Z" fill="black"/>
<path fill-rule="evenodd" clip-rule="evenodd" d="M47.7111 41.0375H16.2888V38.6204H47.7111V41.0375Z" fill="#67707B"/>
<path fill-rule="evenodd" clip-rule="evenodd" d="M33.2086 15.6581V26.535H30.7915V15.6581H33.2086Z" fill="#67707B"/>
<path fill-rule="evenodd" clip-rule="evenodd" d="M32 27.7436C29.9976 27.7436 28.3744 29.3668 28.3744 31.3692V39.8291H25.9573V31.3692C25.9573 28.0319 28.6627 25.3265 32 25.3265C35.3373 25.3265 38.0428 28.0319 38.0428 31.3692V39.8291H35.6257V31.3692C35.6257 29.3668 34.0024 27.7436 32 27.7436Z" fill="#67707B"/>
<path d="M33.9531 11.719L38.4297 16.5915L41.1954 13.5813L31.9999 3.57265L22.8044 13.5813L25.5701 16.5915L30.0467 11.719V21.9636H33.9531V11.719Z" fill="white"/>
<path fill-rule="evenodd" clip-rule="evenodd" d="M38.4296 20.1641L44.4776 13.5812L31.9998 -2.86102e-05L19.522 13.5812L25.57 20.1641L27.6295 17.9225V24.3806H36.37V17.9225L38.4296 20.1641ZM33.953 11.719V21.9635H30.0466V11.719L25.57 16.5915L22.8043 13.5812L31.9998 3.5726L41.1953 13.5812L38.4296 16.5915L33.953 11.719Z" fill="black"/>
</g>
<defs>
<clipPath id="clip0_1967:18456">
<rect width="64" height="64" fill="white"/>
</clipPath>
</defs>
</svg>
