<svg width="64" height="64" viewBox="0 0 64 64" fill="none" xmlns="http://www.w3.org/2000/svg">
<path d="M42.1818 14.1818C42.1818 19.8051 37.6232 24.3636 31.9999 24.3636C26.3767 24.3636 21.8181 19.8051 21.8181 14.1818C21.8181 8.55856 26.3767 4 31.9999 4C37.6232 4 42.1818 8.55856 42.1818 14.1818Z" fill="black"/>
<mask id="path-2-inside-1_1967:21065" fill="white">
<path d="M42.1818 49.8182C42.1818 44.1949 37.6232 39.6364 31.9999 39.6364C26.3767 39.6364 21.8181 44.1949 21.8181 49.8182C21.8181 55.4414 26.3767 60 31.9999 60C37.6232 60 42.1818 55.4414 42.1818 49.8182Z"/>
</mask>
<path d="M39.6363 49.8182C39.6363 45.6007 36.2174 42.1818 31.9999 42.1818V37.0909C39.029 37.0909 44.7272 42.7891 44.7272 49.8182H39.6363ZM31.9999 42.1818C27.7825 42.1818 24.3636 45.6007 24.3636 49.8182H19.2727C19.2727 42.7891 24.9709 37.0909 31.9999 37.0909V42.1818ZM24.3636 49.8182C24.3636 54.0356 27.7825 57.4545 31.9999 57.4545V62.5455C24.9709 62.5455 19.2727 56.8473 19.2727 49.8182H24.3636ZM31.9999 57.4545C36.2174 57.4545 39.6363 54.0356 39.6363 49.8182H44.7272C44.7272 56.8473 39.029 62.5455 31.9999 62.5455V57.4545Z" fill="black" mask="url(#path-2-inside-1_1967:21065)"/>
<mask id="path-4-inside-2_1967:21065" fill="white">
<path d="M14.1818 21.8181C19.8051 21.8181 24.3636 26.3767 24.3636 31.9999C24.3636 37.6232 19.8051 42.1818 14.1818 42.1818C8.55856 42.1818 4 37.6232 4 31.9999C4 26.3767 8.55856 21.8181 14.1818 21.8181Z"/>
</mask>
<path d="M14.1818 24.3636C18.3993 24.3636 21.8182 27.7825 21.8182 31.9999H26.9091C26.9091 24.9709 21.2109 19.2727 14.1818 19.2727V24.3636ZM21.8182 31.9999C21.8182 36.2174 18.3993 39.6363 14.1818 39.6363V44.7272C21.2109 44.7272 26.9091 39.029 26.9091 31.9999H21.8182ZM14.1818 39.6363C9.96437 39.6363 6.54545 36.2174 6.54545 31.9999H1.45455C1.45455 39.029 7.15274 44.7272 14.1818 44.7272V39.6363ZM6.54545 31.9999C6.54545 27.7825 9.96437 24.3636 14.1818 24.3636V19.2727C7.15274 19.2727 1.45455 24.9709 1.45455 31.9999H6.54545Z" fill="black" mask="url(#path-4-inside-2_1967:21065)"/>
<mask id="path-6-inside-3_1967:21065" fill="white">
<path d="M49.8182 21.8181C44.1949 21.8181 39.6364 26.3767 39.6364 31.9999C39.6364 37.6232 44.1949 42.1818 49.8182 42.1818C55.4414 42.1818 60 37.6232 60 31.9999C60 26.3767 55.4414 21.8181 49.8182 21.8181Z"/>
</mask>
<path d="M49.8182 24.3636C45.6007 24.3636 42.1818 27.7825 42.1818 31.9999H37.0909C37.0909 24.9709 42.7891 19.2727 49.8182 19.2727V24.3636ZM42.1818 31.9999C42.1818 36.2174 45.6007 39.6363 49.8182 39.6363V44.7272C42.7891 44.7272 37.0909 39.029 37.0909 31.9999H42.1818ZM49.8182 39.6363C54.0356 39.6363 57.4545 36.2174 57.4545 31.9999H62.5455C62.5455 39.029 56.8473 44.7272 49.8182 44.7272V39.6363ZM57.4545 31.9999C57.4545 27.7825 54.0356 24.3636 49.8182 24.3636V19.2727C56.8473 19.2727 62.5455 24.9709 62.5455 31.9999H57.4545Z" fill="black" mask="url(#path-6-inside-3_1967:21065)"/>
</svg>
