<svg width="64" height="64" viewBox="0 0 64 64" fill="none" xmlns="http://www.w3.org/2000/svg">
<path d="M31.6181 6.07912C31.1969 6.50025 30.6257 6.73684 30.0302 6.73684C29.4346 6.73684 28.8634 6.50025 28.4423 6.07912C28.0212 5.65798 27.7846 5.0868 27.7846 4.49123V0H32.2758V4.49123C32.2758 5.0868 32.0392 5.65798 31.6181 6.07912Z" fill="black"/>
<path d="M44.3235 6.84912L41.146 10.0267C40.9373 10.2353 40.6896 10.4008 40.417 10.5137C40.1444 10.6266 39.8523 10.6848 39.5572 10.6848C39.2621 10.6848 38.97 10.6266 38.6974 10.5137C38.4248 10.4008 38.1771 10.2353 37.9684 10.0267C37.7598 9.81803 37.5943 9.57033 37.4814 9.29773C37.3684 9.02513 37.3103 8.73296 37.3103 8.43789C37.3103 8.14283 37.3684 7.85066 37.4814 7.57806C37.5943 7.30546 37.7598 7.05776 37.9684 6.84912L41.146 3.67158L44.3235 6.84912Z" fill="black"/>
<path d="M22.0919 10.0267C22.3007 9.81811 22.4664 9.57044 22.5794 9.29783C22.6924 9.02522 22.7505 8.733 22.7505 8.43789C22.7505 8.14279 22.6924 7.85057 22.5794 7.57796C22.4664 7.30535 22.3007 7.05768 22.0919 6.84912L18.9144 3.67158L15.7368 6.84912L18.9144 10.0267C19.1229 10.2355 19.3706 10.4011 19.6432 10.5141C19.9158 10.6271 20.208 10.6853 20.5032 10.6853C20.7983 10.6853 21.0905 10.6271 21.3631 10.5141C21.6357 10.4011 21.8834 10.2355 22.0919 10.0267Z" fill="black"/>
<path d="M35.2961 14.7102V28.7116L55.0351 32.5614V64H24.7193L9 46.8337L12.0204 44.1053C13.1583 43.0578 14.6552 42.4877 16.2017 42.5128C17.7481 42.5378 19.2258 43.1562 20.3291 44.2401L24.8204 48.5292L25.2358 48.7762V14.7102C25.3759 13.4477 25.9753 12.2808 26.92 11.4316C27.8345 10.5792 29.0382 10.1053 30.2884 10.1053C31.5386 10.1053 32.7423 10.5792 33.6568 11.4316C34.5892 12.2847 35.1731 13.4525 35.2961 14.7102Z" fill="black"/>
<path d="M34.3266 54.9209H39.2625V57.2631H30.8841V55.0309L34.0594 52.453C34.5519 52.0443 34.9239 51.7194 35.1754 51.4784C35.4269 51.2373 35.6208 50.9911 35.7571 50.7396C35.9038 50.488 35.9771 50.2103 35.9771 49.9064C35.9771 49.4349 35.7937 49.0785 35.4269 48.8375C35.0706 48.5965 34.6148 48.476 34.0594 48.476C33.6402 48.476 33.2262 48.5389 32.8175 48.6646C32.4088 48.7799 32.0421 48.9371 31.7172 49.1362L30.8369 47.1241C31.3399 46.7992 31.9006 46.5425 32.5189 46.3539C33.1477 46.1652 33.8183 46.0709 34.5309 46.0709C35.8514 46.0709 36.915 46.3486 37.722 46.904C38.5289 47.449 38.9324 48.2559 38.9324 49.3248C38.9324 50.0584 38.7228 50.7291 38.3036 51.3369C37.8949 51.9342 37.2609 52.5787 36.4015 53.2704L34.3266 54.9209Z" fill="white"/>
<path d="M46.6704 49.0262H49.5313V49.1362L46.8748 53.0817L49.6571 57.153V57.2631H46.7647L45.4129 54.8894L44.1868 57.2631H41.2158V57.153L44.171 53.0817L41.2001 49.1519V49.0262H44.2496L45.4286 51.3054L46.6704 49.0262Z" fill="white"/>
</svg>
