<svg width="64" height="64" viewBox="0 0 64 64" fill="none" xmlns="http://www.w3.org/2000/svg">
<circle cx="39" cy="32" r="25" fill="#000F18"/>
<path d="M46 40H41.8121L38.9111 34.9257H38.5839H36.7735V40H33V24H38.9329C41.1141 24 42.7282 24.4495 43.7752 25.3486C44.8221 26.2476 45.3456 27.5124 45.3456 29.1429C45.3456 30.3771 45.0912 31.4133 44.5822 32.2514C44.0878 33.0743 43.3898 33.699 42.4883 34.1257L46 40ZM36.7735 27.3829V31.5429H38.8238C39.5945 31.5429 40.198 31.36 40.6342 30.9943C41.085 30.6133 41.3104 30.0648 41.3104 29.3486C41.3104 28.6933 41.1068 28.2057 40.6997 27.8857C40.2925 27.5505 39.6454 27.3829 38.7584 27.3829H36.7735Z" fill="white"/>
<path d="M10 24L0 32L10 40L10 24Z" fill="#000F18"/>
</svg>
