<svg width="32" height="32" viewBox="0 0 32 32" fill="none" xmlns="http://www.w3.org/2000/svg">
<circle cx="16.0001" cy="12.4444" r="12.4444" fill="#0E141B"/>
<path d="M20.0338 16.8888H17.6445L15.9894 14.1262H15.8027H14.7698V16.8888H12.6169V8.17773H16.0018C17.2463 8.17773 18.1672 8.42248 18.7645 8.91196C19.3618 9.40144 19.6605 10.09 19.6605 10.9777C19.6605 11.6497 19.5153 12.2139 19.2249 12.6702C18.9429 13.1182 18.5446 13.4583 18.0303 13.6906L20.0338 16.8888ZM14.7698 10.0195V12.2844H15.9396C16.3793 12.2844 16.7236 12.1848 16.9725 11.9857C17.2297 11.7783 17.3583 11.4797 17.3583 11.0897C17.3583 10.733 17.2421 10.4675 17.0098 10.2933C16.7775 10.1108 16.4084 10.0195 15.9023 10.0195H14.7698Z" fill="white"/>
<path d="M21.3334 26.6666H10.6667L16.0001 32L21.3334 26.6666Z" fill="#0E141B"/>
</svg>
