<svg width="32" height="32" viewBox="0 0 32 32" fill="none" xmlns="http://www.w3.org/2000/svg">
<path fill-rule="evenodd" clip-rule="evenodd" d="M0 10.5264C0 7.71443 2.14783 5.33337 4.91852 5.33337H27.0815C29.8522 5.33337 32 7.71443 32 10.5264C32 13.3383 29.8522 15.7193 27.0815 15.7193H23.9407V26.6667H22.163V13.9416H27.0815C28.7618 13.9416 30.2222 12.4686 30.2222 10.5264C30.2222 8.58411 28.7618 7.11115 27.0815 7.11115H4.91852C3.2382 7.11115 1.77778 8.58411 1.77778 10.5264C1.77778 12.4686 3.2382 13.9416 4.91852 13.9416H9.83704V26.6667H8.05926V15.7193H4.91852C2.14783 15.7193 0 13.3383 0 10.5264Z" fill="#0E141B"/>
<path d="M19.1078 24.0001H13.4455V15.9112H15.4446V22.1974H19.1078V24.0001Z" fill="#0E141B"/>
<path fill-rule="evenodd" clip-rule="evenodd" d="M0 10.5264C0 7.71443 2.14783 5.33337 4.91852 5.33337H27.0815C29.8522 5.33337 32 7.71443 32 10.5264C32 13.3383 29.8522 15.7193 27.0815 15.7193H23.9407V26.6667H22.163V13.9416H27.0815C28.7618 13.9416 30.2222 12.4686 30.2222 10.5264C30.2222 8.58411 28.7618 7.11115 27.0815 7.11115H4.91852C3.2382 7.11115 1.77778 8.58411 1.77778 10.5264C1.77778 12.4686 3.2382 13.9416 4.91852 13.9416H9.83704V26.6667H8.05926V15.7193H4.91852C2.14783 15.7193 0 13.3383 0 10.5264Z" fill="#0E141B"/>
<path d="M19.1078 24.0001H13.4455V15.9112H15.4446V22.1974H19.1078V24.0001Z" fill="#0E141B"/>
</svg>
