<svg width="32" height="32" viewBox="0 0 32 32" fill="none" xmlns="http://www.w3.org/2000/svg">
<g clip-path="url(#clip0_2700_27934)">
<path fill-rule="evenodd" clip-rule="evenodd" d="M8.88897 7.11111C8.88897 4.16559 11.2768 1.77778 14.2223 1.77778C17.1678 1.77778 19.5556 4.16559 19.5556 7.11111C19.5556 8.20155 19.2284 9.21555 18.6667 10.0603V12.6626C20.2925 11.3593 21.3334 9.35679 21.3334 7.11111C21.3334 3.18375 18.1497 0 14.2223 0C10.2949 0 7.11119 3.18375 7.11119 7.11111C7.11119 9.35679 8.15215 11.3593 9.77786 12.6626V10.0603C9.21622 9.21554 8.88897 8.20154 8.88897 7.11111ZM11.5556 13.7053V11.7309L11.5556 7.11339L11.5556 7.11111C11.5556 5.63835 12.7495 4.44444 14.2223 4.44444C15.6951 4.44444 16.889 5.63835 16.889 7.11111V11.7309V13.7053V14.2222L27.5556 16.635V32H11.5556L2.66675 22.6667L3.8478 21.6168C5.43075 20.2098 7.8361 20.2805 9.33368 21.778L11.5556 24L11.5556 13.7053Z" fill="#0E141B"/>
</g>
<defs>
<clipPath id="clip0_2700_27934">
<rect width="32" height="32" fill="white"/>
</clipPath>
</defs>
</svg>
