<svg width="64" height="64" viewBox="0 0 64 64" fill="none" xmlns="http://www.w3.org/2000/svg">
<circle cx="32" cy="32" r="18" stroke="black" stroke-width="3"/>
<path fill-rule="evenodd" clip-rule="evenodd" d="M32.0515 34.5687C28.8399 34.5687 25.9947 34.1326 24.0041 33.4691C23.001 33.1347 22.2975 32.7697 21.8755 32.4371C21.6247 32.2394 21.5379 32.1085 21.5096 32.0516C21.5379 31.9947 21.6247 31.8637 21.8755 31.666C22.2975 31.3335 23.001 30.9684 24.0041 30.634C24.3276 30.5262 24.6736 30.4244 25.04 30.3295C25.0894 29.2448 25.1838 28.1904 25.3201 27.1839C24.5056 27.3553 23.7462 27.5577 23.0555 27.788C21.8777 28.1806 20.8163 28.6811 20.0186 29.3098C19.2378 29.9251 18.5 30.8403 18.5 32.0516C18.5 33.2628 19.2378 34.178 20.0186 34.7933C20.8163 35.422 21.8777 35.9226 23.0555 36.3151C25.4267 37.1056 28.6072 37.5687 32.0515 37.5687C35.4958 37.5687 38.6763 37.1056 41.0475 36.3151C42.2253 35.9226 43.2867 35.422 44.0844 34.7933C44.8652 34.178 45.603 33.2628 45.603 32.0516C45.603 30.8403 44.8652 29.9251 44.0844 29.3098C43.2867 28.6811 42.2253 28.1806 41.0475 27.788C40.3269 27.5478 39.5316 27.3378 38.6769 27.1618C38.8137 28.1668 38.9087 29.2196 38.9587 30.3028C39.364 30.4053 39.7449 30.516 40.0989 30.634C41.102 30.9684 41.8055 31.3335 42.2275 31.666C42.4783 31.8637 42.5651 31.9947 42.5934 32.0516C42.5651 32.1085 42.4783 32.2394 42.2275 32.4371C41.8055 32.7697 41.102 33.1347 40.0989 33.4691C38.1084 34.1326 35.2631 34.5687 32.0515 34.5687ZM21.4968 32.0192C21.497 32.0192 21.4975 32.0208 21.498 32.0241C21.497 32.0208 21.4967 32.0192 21.4968 32.0192ZM21.498 32.079C21.4975 32.0823 21.497 32.0839 21.4968 32.0839C21.4967 32.0839 21.497 32.0823 21.498 32.079ZM42.6062 32.0839C42.6061 32.0839 42.6055 32.0823 42.605 32.079C42.606 32.0823 42.6063 32.0839 42.6062 32.0839ZM42.6059 32.0198C42.6057 32.0206 42.6053 32.022 42.605 32.0241C42.606 32.0208 42.6063 32.0192 42.6062 32.0192C42.6061 32.0192 42.606 32.0194 42.6059 32.0198Z" fill="black"/>
<path fill-rule="evenodd" clip-rule="evenodd" d="M30.3277 39.056C30.4231 39.425 30.5256 39.7734 30.634 40.0989C30.9684 41.102 31.3335 41.8055 31.666 42.2275C31.8637 42.4783 31.9947 42.5651 32.0516 42.5934C32.1085 42.5651 32.2394 42.4783 32.4371 42.2275C32.7697 41.8055 33.1348 41.102 33.4691 40.0989C33.5746 39.7826 33.6743 39.4446 33.7674 39.0871C34.8352 39.0602 35.8811 38.9993 36.8929 38.9065C36.7273 39.6744 36.5337 40.3919 36.3152 41.0476C35.9226 42.2254 35.422 43.2867 34.7934 44.0844C34.178 44.8652 33.2628 45.603 32.0516 45.603C30.8403 45.603 29.9251 44.8652 29.3098 44.0844C28.6811 43.2867 28.1806 42.2254 27.788 41.0476C27.5606 40.3652 27.3602 39.6159 27.1902 38.8125C28.2009 38.9271 29.2511 39.0089 30.3277 39.056ZM29.5413 32.7459C29.5367 32.5165 29.5344 32.285 29.5344 32.0515C29.5344 28.84 29.9705 25.9947 30.634 24.0042C30.9684 23.0011 31.3335 22.2975 31.666 21.8756C31.8637 21.6247 31.9947 21.5379 32.0516 21.5096C32.1085 21.5379 32.2394 21.6247 32.4371 21.8756C32.7697 22.2975 33.1348 23.0011 33.4691 24.0042C34.1326 25.9947 34.5688 28.84 34.5688 32.0515C34.5688 32.3034 34.5661 32.5531 34.5608 32.8002C35.6278 32.7478 36.6352 32.6558 37.5657 32.5326C37.5677 32.3729 37.5688 32.2125 37.5688 32.0515C37.5688 28.6072 37.1056 25.4268 36.3152 23.0555C35.9226 21.8777 35.422 20.8163 34.7934 20.0186C34.178 19.2378 33.2628 18.5 32.0516 18.5C30.8403 18.5 29.9251 19.2378 29.3098 20.0186C28.6811 20.8163 28.1806 21.8777 27.788 23.0555C26.9976 25.4268 26.5344 28.6072 26.5344 32.0515C26.5344 32.1681 26.535 32.2844 26.536 32.4003C27.4541 32.5498 28.4624 32.6681 29.5413 32.7459ZM32.0192 42.6062C32.0192 42.6061 32.0208 42.6056 32.0241 42.605C32.0209 42.606 32.0192 42.6063 32.0192 42.6062ZM32.079 42.605C32.0823 42.6056 32.084 42.6061 32.084 42.6062C32.084 42.6063 32.0823 42.606 32.079 42.605ZM32.084 21.4969C32.084 21.497 32.0823 21.4975 32.079 21.4981C32.0823 21.497 32.084 21.4968 32.084 21.4969ZM32.0216 21.4976C32.0223 21.4977 32.0232 21.4979 32.0241 21.4981C32.0209 21.497 32.0192 21.4968 32.0192 21.4969C32.0192 21.4969 32.02 21.4972 32.0216 21.4976Z" fill="black"/>
<path fill-rule="evenodd" clip-rule="evenodd" d="M6 33.5C5.17157 33.5 4.5 32.8284 4.5 32C4.5 31.1716 5.17157 30.5 6 30.5H9C9.82843 30.5 10.5 31.1716 10.5 32C10.5 32.8284 9.82843 33.5 9 33.5H6ZM55 33.5C54.1716 33.5 53.5 32.8284 53.5 32C53.5 31.1716 54.1716 30.5 55 30.5L58 30.5C58.8284 30.5 59.5 31.1716 59.5 32C59.5 32.8284 58.8284 33.5 58 33.5H55Z" fill="black"/>
<path fill-rule="evenodd" clip-rule="evenodd" d="M33.5 58C33.5 58.8284 32.8284 59.5 32 59.5C31.1716 59.5 30.5 58.8284 30.5 58V55C30.5 54.1716 31.1716 53.5 32 53.5C32.8284 53.5 33.5 54.1716 33.5 55V58ZM33.5 9C33.5 9.82843 32.8284 10.5 32 10.5C31.1716 10.5 30.5 9.82843 30.5 9V6C30.5 5.17157 31.1716 4.5 32 4.5C32.8284 4.5 33.5 5.17157 33.5 6V9Z" fill="black"/>
</svg>
