<svg width="32" height="32" viewBox="0 0 32 32" fill="none" xmlns="http://www.w3.org/2000/svg">
<path fill-rule="evenodd" clip-rule="evenodd" d="M16.0001 10.9091C18.1088 10.9091 19.8183 9.19963 19.8183 7.09091C19.8183 4.98219 18.1088 3.27273 16.0001 3.27273C13.8914 3.27273 12.1819 4.98219 12.1819 7.09091C12.1819 9.19963 13.8914 10.9091 16.0001 10.9091ZM16.0001 12.1818C18.8117 12.1818 21.091 9.90254 21.091 7.09091C21.091 4.27928 18.8117 2 16.0001 2C13.1885 2 10.9092 4.27928 10.9092 7.09091C10.9092 9.90254 13.1885 12.1818 16.0001 12.1818Z" fill="#0E141B"/>
<path d="M21.091 24.9091C21.091 22.0975 18.8117 19.8182 16.0001 19.8182C13.1885 19.8182 10.9092 22.0975 10.9092 24.9091C10.9092 27.7207 13.1885 30 16.0001 30C18.8117 30 21.091 27.7207 21.091 24.9091Z" fill="#0E141B"/>
<path fill-rule="evenodd" clip-rule="evenodd" d="M10.8342 16C10.8342 13.9327 9.15829 12.2567 7.09091 12.2567C5.02353 12.2567 3.34759 13.9327 3.34759 16C3.34759 18.0674 5.02353 19.7433 7.09091 19.7433C9.15829 19.7433 10.8342 18.0674 10.8342 16ZM12.1818 16C12.1818 13.1884 9.90254 10.9091 7.09091 10.9091C4.27928 10.9091 2 13.1884 2 16C2 18.8117 4.27928 21.0909 7.09091 21.0909C9.90254 21.0909 12.1818 18.8117 12.1818 16Z" fill="#0E141B"/>
<path fill-rule="evenodd" clip-rule="evenodd" d="M21.0909 16C21.0909 13.8913 22.8004 12.1819 24.9091 12.1819C27.0178 12.1819 28.7273 13.8913 28.7273 16C28.7273 18.1088 27.0178 19.8182 24.9091 19.8182C22.8004 19.8182 21.0909 18.1088 21.0909 16ZM19.8182 16C19.8182 13.1884 22.0975 10.9091 24.9091 10.9091C27.7207 10.9091 30 13.1884 30 16C30 18.8117 27.7207 21.0909 24.9091 21.0909C22.0975 21.0909 19.8182 18.8117 19.8182 16Z" fill="#0E141B"/>
</svg>
