<svg width="64" height="64" viewBox="0 0 64 64" fill="none" xmlns="http://www.w3.org/2000/svg">
<g clip-path="url(#clip0_1967:18245)">
<path d="M59.2727 36.3637C59.2727 51.6268 46.8995 64 31.6364 64C16.3732 64 4 51.6268 4 36.3637C4 21.1005 16.3732 8.72729 31.6364 8.72729C46.8995 8.72729 59.2727 21.1005 59.2727 36.3637Z" fill="#000F18"/>
<path d="M30.092 43.6361H20.1138V29.3816H23.6367V40.4594H30.092V43.6361Z" fill="white"/>
<path d="M37.821 29.0354C39.5587 29.0354 40.8688 29.3748 41.7512 30.0536C42.6336 30.7324 43.0749 31.608 43.0749 32.6805C43.0749 33.3729 42.8712 33.9906 42.464 34.5336C42.0567 35.0766 41.4661 35.511 40.6923 35.8369V35.9183C41.6019 36.1084 42.3214 36.4953 42.8509 37.079C43.3939 37.6628 43.6654 38.4502 43.6654 39.4412C43.6654 40.3508 43.4007 41.1518 42.8712 41.8441C42.3418 42.5229 41.6223 43.0524 40.7127 43.4325C39.8167 43.799 38.8256 43.9823 37.7396 43.9823C36.6807 43.9823 35.6761 43.8398 34.7258 43.5547C33.7755 43.2696 32.9813 42.8623 32.3432 42.3329L33.789 39.7263C34.7665 40.5816 35.9747 41.0092 37.4138 41.0092C38.2012 41.0092 38.8121 40.8531 39.2465 40.5409C39.6945 40.215 39.9185 39.767 39.9185 39.1969C39.9185 38.0836 39.0904 37.527 37.4341 37.527H35.4385V34.9205H37.1898C37.8821 34.9205 38.4184 34.7983 38.7985 34.5539C39.1922 34.296 39.389 33.9362 39.389 33.4747C39.389 33.0402 39.1922 32.6873 38.7985 32.4158C38.4184 32.1442 37.8821 32.0085 37.1898 32.0085C36.6332 32.0085 36.0833 32.1035 35.5403 32.2936C34.9973 32.4701 34.5153 32.7144 34.0945 33.0267L32.6283 30.7663C33.3343 30.1961 34.1284 29.7685 35.0109 29.4834C35.9069 29.1847 36.8436 29.0354 37.821 29.0354Z" fill="white"/>
<path d="M20 3L31.6364 16.0909L43.2726 3H20Z" fill="white"/>
<path fill-rule="evenodd" clip-rule="evenodd" d="M31.6365 20.6065L13.3196 0H49.9532L31.6365 20.6065ZM31.6365 16.0909L43.2727 3H20.0001L31.6365 16.0909Z" fill="#000F18"/>
</g>
<defs>
<clipPath id="clip0_1967:18245">
<rect width="64" height="64" fill="white"/>
</clipPath>
</defs>
</svg>
