<svg width="32" height="32" viewBox="0 0 32 32" fill="none" xmlns="http://www.w3.org/2000/svg">
<g clip-path="url(#clip0_8152_800)">
<rect width="32" height="32" rx="2" fill="#0E141B"/>
<path d="M23.233 10C24.0117 10 24.7103 10.128 25.329 10.384C25.9477 10.6293 26.433 10.9867 26.785 11.456C27.137 11.9253 27.313 12.464 27.313 13.072C27.313 13.68 27.153 14.1973 26.833 14.624C26.513 15.0507 26.1077 15.3547 25.617 15.536C26.225 15.696 26.721 16.0267 27.105 16.528C27.4997 17.0293 27.697 17.6213 27.697 18.304C27.697 18.9653 27.505 19.5573 27.121 20.08C26.7477 20.592 26.2143 20.992 25.521 21.28C24.8383 21.568 24.0597 21.712 23.185 21.712C22.3317 21.712 21.5743 21.5733 20.913 21.296C20.2517 21.008 19.7397 20.6133 19.377 20.112C19.0143 19.6 18.833 19.0187 18.833 18.368C18.833 17.7067 19.0197 17.1253 19.393 16.624C19.777 16.112 20.2623 15.7493 20.849 15.536C20.369 15.344 19.9637 15.04 19.633 14.624C19.313 14.208 19.153 13.7013 19.153 13.104C19.153 12.496 19.329 11.9573 19.681 11.488C20.033 11.008 20.5183 10.64 21.137 10.384C21.7557 10.128 22.4543 10 23.233 10ZM23.233 11.984C22.7103 11.984 22.289 12.112 21.969 12.368C21.6597 12.624 21.505 12.9653 21.505 13.392C21.505 13.8187 21.665 14.1547 21.985 14.4C22.3157 14.6453 22.7317 14.768 23.233 14.768C23.745 14.768 24.161 14.6453 24.481 14.4C24.801 14.1547 24.961 13.8187 24.961 13.392C24.961 12.9653 24.801 12.624 24.481 12.368C24.1717 12.112 23.7557 11.984 23.233 11.984ZM23.281 16.368C22.673 16.368 22.1717 16.528 21.777 16.848C21.3823 17.168 21.185 17.5733 21.185 18.064C21.185 18.5867 21.3717 18.9973 21.745 19.296C22.1183 19.584 22.6303 19.728 23.281 19.728C23.9103 19.728 24.4117 19.5787 24.785 19.28C25.1583 18.9813 25.345 18.5867 25.345 18.096C25.345 17.5947 25.153 17.184 24.769 16.864C24.385 16.5333 23.889 16.368 23.281 16.368Z" fill="white"/>
<path d="M11.032 18.208L14.52 10.256H16.904V21.456H14.648V14.336L11.64 21.136H10.216L7.144 14.416V21.456H5V10.256H7.256L11.032 18.208Z" fill="white"/>
</g>
<defs>
<clipPath id="clip0_8152_800">
<rect width="32" height="32" fill="white"/>
</clipPath>
</defs>
</svg>
