<svg width="64" height="64" viewBox="0 0 64 64" fill="none" xmlns="http://www.w3.org/2000/svg">
<path fill-rule="evenodd" clip-rule="evenodd" d="M41.6684 4C41.6684 3.44772 41.2207 3 40.6684 3H23.3351C22.7828 3 22.3351 3.44771 22.3351 4V21.3324C22.3351 21.8847 21.8874 22.3324 21.3351 22.3324H4C3.44772 22.3324 3 22.7801 3 23.3324V40.6657C3 41.218 3.44771 41.6657 4 41.6657H21.3351C21.8874 41.6657 22.3351 42.1134 22.3351 42.6657V60C22.3351 60.5523 22.7828 61 23.3351 61H40.6684C41.2207 61 41.6684 60.5523 41.6684 60V42.6657C41.6684 42.1134 42.1161 41.6657 42.6684 41.6657H60C60.5523 41.6657 61 41.218 61 40.6657V23.3324C61 22.7801 60.5523 22.3324 60 22.3324H42.6684C42.1161 22.3324 41.6684 21.8847 41.6684 21.3324V4Z" fill="black"/>
</svg>
