<svg width="32" height="32" viewBox="0 0 32 32" fill="none" xmlns="http://www.w3.org/2000/svg">
<path d="M28.5 18L30 15.5H27L28.5 18Z" fill="#0E141B"/>
<path d="M14 3.5L16.5 2V5L14 3.5Z" fill="#0E141B"/>
<path fill-rule="evenodd" clip-rule="evenodd" d="M10.1664 10.1664C6.94455 13.3882 6.94455 18.6118 10.1664 21.8336C13.3882 25.0555 18.6118 25.0555 21.8336 21.8336C25.0555 18.6118 25.0555 13.3882 21.8336 10.1664C18.6118 6.94454 13.3882 6.94454 10.1664 10.1664ZM9.10572 22.8943C5.29811 19.0867 5.29811 12.9133 9.10572 9.10571C12.9133 5.2981 19.0867 5.2981 22.8943 9.10571C26.7019 12.9133 26.7019 19.0867 22.8943 22.8943C19.0867 26.7019 12.9133 26.7019 9.10572 22.8943Z" fill="#0E141B"/>
<path fill-rule="evenodd" clip-rule="evenodd" d="M27.75 16C27.75 9.51065 22.4893 4.25 16 4.25V2.75C23.3178 2.75 29.25 8.68223 29.25 16H27.75Z" fill="#0E141B"/>
<path fill-rule="evenodd" clip-rule="evenodd" d="M15.3389 16.8899C14.2034 15.7545 13.3517 14.5943 12.8825 13.656C12.6461 13.1831 12.5264 12.8053 12.4948 12.5386C12.476 12.38 12.4916 12.303 12.5017 12.2729C12.5318 12.2628 12.6088 12.2471 12.7674 12.2659C13.0342 12.2975 13.412 12.4172 13.8849 12.6536C14.0373 12.7299 14.1956 12.8162 14.3588 12.9122C14.7597 12.5462 15.1659 12.2068 15.5699 11.8991C15.2214 11.6717 14.8813 11.4748 14.5557 11.312C14.0005 11.0344 13.4482 10.8361 12.9439 10.7764C12.4503 10.7179 11.8659 10.7806 11.4377 11.2088C11.0094 11.6371 10.9467 12.2215 11.0052 12.7151C11.065 13.2194 11.2633 13.7716 11.5409 14.3268C12.0998 15.4446 13.0605 16.7329 14.2782 17.9506C15.496 19.1683 16.7842 20.1291 17.902 20.688C18.4572 20.9656 19.0095 21.1639 19.5138 21.2236C20.0074 21.2821 20.5918 21.2194 21.02 20.7912C21.4483 20.3629 21.511 19.7785 21.4525 19.2849C21.3927 18.7806 21.1945 18.2284 20.9168 17.6732C20.747 17.3335 20.54 16.978 20.3 16.6136C19.9931 17.0173 19.6545 17.4231 19.2892 17.8238C19.3963 18.0033 19.4918 18.1771 19.5752 18.344C19.8116 18.8168 19.9313 19.1947 19.9629 19.4614C19.9817 19.62 19.9661 19.697 19.956 19.7271C19.9259 19.7372 19.8489 19.7528 19.6903 19.7341C19.4235 19.7024 19.0457 19.5828 18.5728 19.3463C17.6345 18.8772 16.4744 18.0254 15.3389 16.8899ZM12.5087 12.2569C12.5087 12.2569 12.5083 12.2577 12.5073 12.2591C12.5081 12.2576 12.5086 12.2569 12.5087 12.2569ZM12.4879 12.2785C12.4866 12.2794 12.4858 12.2798 12.4858 12.2798C12.4857 12.2798 12.4864 12.2793 12.4879 12.2785ZM19.949 19.7431C19.949 19.743 19.9494 19.7423 19.9504 19.7409C19.9496 19.7424 19.9491 19.7431 19.949 19.7431ZM19.9716 19.7203C19.9713 19.7205 19.9706 19.7209 19.9698 19.7215C19.9713 19.7207 19.972 19.7202 19.9719 19.7202C19.9719 19.7202 19.9718 19.7202 19.9716 19.7203Z" fill="#67707B"/>
<path fill-rule="evenodd" clip-rule="evenodd" d="M13.1429 17.867C13.0462 18.0312 12.9592 18.1906 12.8825 18.344C12.6461 18.8169 12.5264 19.1947 12.4948 19.4614C12.476 19.62 12.4916 19.697 12.5017 19.7271C12.5318 19.7372 12.6088 19.7529 12.7674 19.7341C13.0342 19.7025 13.412 19.5828 13.8849 19.3464C14.034 19.2718 14.1887 19.1876 14.348 19.0941C14.7351 19.4621 15.1264 19.8104 15.5169 20.1353C15.1869 20.3482 14.8648 20.5335 14.5557 20.688C14.0005 20.9656 13.4482 21.1639 12.9439 21.2236C12.4503 21.2821 11.8659 21.2194 11.4377 20.7912C11.0094 20.3629 10.9467 19.7785 11.0052 19.2849C11.065 18.7806 11.2633 18.2284 11.5409 17.6732C11.7017 17.3515 11.8958 17.0158 12.1197 16.6716C12.4365 17.0695 12.7789 17.4697 13.1429 17.867ZM15.0958 15.358C15.1753 15.2753 15.2564 15.1926 15.3389 15.1101C16.4744 13.9746 17.6345 13.1228 18.5728 12.6537C19.0457 12.4172 19.4235 12.2976 19.6903 12.2659C19.8489 12.2472 19.9259 12.2628 19.956 12.2729C19.9661 12.303 19.9817 12.38 19.9629 12.5386C19.9313 12.8053 19.8116 13.1832 19.5752 13.656C19.106 14.5944 18.2543 15.7545 17.1188 16.89C17.0297 16.979 16.9405 17.0663 16.8513 17.1519C17.2471 17.5105 17.6358 17.8342 18.0083 18.1196C18.0655 18.0639 18.1226 18.0075 18.1795 17.9506C19.3972 16.7329 20.3579 15.4447 20.9168 14.3268C21.1945 13.7716 21.3927 13.2194 21.4525 12.7151C21.511 12.2215 21.4483 11.6371 21.02 11.2088C20.5918 10.7806 20.0074 10.7179 19.5138 10.7764C19.0095 10.8361 18.4572 11.0344 17.902 11.312C16.7842 11.8709 15.496 12.8317 14.2782 14.0494C14.237 14.0906 14.1961 14.1319 14.1555 14.1733C14.4272 14.5507 14.7419 14.949 15.0958 15.358ZM12.4858 19.7202C12.4858 19.7202 12.4866 19.7206 12.4879 19.7215C12.4864 19.7207 12.4857 19.7202 12.4858 19.7202ZM12.5073 19.7409C12.5083 19.7423 12.5087 19.7431 12.5087 19.7431C12.5086 19.7431 12.5081 19.7424 12.5073 19.7409ZM19.9719 12.2798C19.9719 12.2799 19.9711 12.2795 19.9698 12.2785C19.9713 12.2793 19.972 12.2798 19.9719 12.2798ZM19.9496 12.258C19.9498 12.2583 19.9501 12.2587 19.9504 12.2591C19.9496 12.2576 19.9491 12.2569 19.949 12.2569C19.949 12.257 19.9492 12.2573 19.9496 12.258Z" fill="#67707B"/>
<path fill-rule="evenodd" clip-rule="evenodd" d="M7.5302 6.46967C7.2373 6.17678 6.76243 6.17678 6.46954 6.46967C6.17664 6.76257 6.17665 7.23744 6.46954 7.53033L8.96957 10.0303C9.26247 10.3232 9.73734 10.3232 10.0302 10.0303C10.3231 9.73743 10.3231 9.26256 10.0302 8.96967L7.5302 6.46967ZM23.0302 21.9697C22.7373 21.6768 22.2624 21.6768 21.9696 21.9697C21.6767 22.2626 21.6767 22.7374 21.9696 23.0303L24.4695 25.5303C24.7624 25.8232 25.2373 25.8232 25.5302 25.5303C25.8231 25.2374 25.8231 24.7626 25.5302 24.4697L23.0302 21.9697Z" fill="#0E141B"/>
</svg>
