<svg width="64" height="64" viewBox="0 0 64 64" fill="none" xmlns="http://www.w3.org/2000/svg">
<g clip-path="url(#clip0_1967:18212)">
<path d="M59.2727 36.3637C59.2727 51.6268 46.8995 64 31.6364 64C16.3732 64 4 51.6268 4 36.3637C4 21.1005 16.3732 8.72729 31.6364 8.72729C46.8995 8.72729 59.2727 21.1005 59.2727 36.3637Z" fill="#000F18"/>
<path d="M37.457 45.5556H26.5681V30H30.4126V42.0889H37.457V45.5556Z" fill="white"/>
<path d="M41.4155 12.8462C41.4155 18.284 37.0072 22.6923 31.5693 22.6923C26.1314 22.6923 21.7231 18.284 21.7231 12.8462C21.7231 7.40827 26.1314 3 31.5693 3C37.0072 3 41.4155 7.40827 41.4155 12.8462Z" fill="white"/>
<path fill-rule="evenodd" clip-rule="evenodd" d="M44.4155 12.8462C44.4155 19.9409 38.664 25.6923 31.5693 25.6923C24.4746 25.6923 18.7231 19.9409 18.7231 12.8462C18.7231 5.75142 24.4746 0 31.5693 0C38.664 0 44.4155 5.75142 44.4155 12.8462ZM31.5693 22.6923C37.0072 22.6923 41.4155 18.284 41.4155 12.8462C41.4155 7.40827 37.0072 3 31.5693 3C26.1314 3 21.7231 7.40827 21.7231 12.8462C21.7231 18.284 26.1314 22.6923 31.5693 22.6923Z" fill="#000F18"/>
</g>
<defs>
<clipPath id="clip0_1967:18212">
<rect width="64" height="64" fill="white"/>
</clipPath>
</defs>
</svg>
