<svg width="64" height="64" viewBox="0 0 64 64" fill="none" xmlns="http://www.w3.org/2000/svg">
<path d="M61 32C61 48.0163 48.0163 61 32 61C15.9837 61 3 48.0163 3 32C3 15.9837 15.9837 3 32 3C48.0163 3 61 15.9837 61 32Z" fill="#000F18"/>
<path d="M40 41H35.1678L31.8205 35.2914H31.443H29.354V41H25V23H31.8456C34.3624 23 36.2248 23.5057 37.4329 24.5171C38.6409 25.5286 39.245 26.9514 39.245 28.7857C39.245 30.1743 38.9513 31.34 38.3641 32.2829C37.7936 33.2086 36.9883 33.9114 35.948 34.3914L40 41ZM29.354 26.8057V31.4857H31.7198C32.6091 31.4857 33.3054 31.28 33.8087 30.8686C34.3289 30.44 34.5889 29.8229 34.5889 29.0171C34.5889 28.28 34.354 27.7314 33.8842 27.3714C33.4144 26.9943 32.6678 26.8057 31.6443 26.8057H29.354Z" fill="white"/>
</svg>
