<svg width="32" height="32" viewBox="0 0 32 32" fill="none" xmlns="http://www.w3.org/2000/svg">
<path fill-rule="evenodd" clip-rule="evenodd" d="M0 14.0819C0 11.27 2.14783 8.88894 4.91852 8.88894H27.0815C29.8522 8.88894 32 11.27 32 14.0819C32 16.8939 29.8522 19.2749 27.0815 19.2749H23.9407V30.2223H22.163V17.4971H27.0815C28.7618 17.4971 30.2222 16.0242 30.2222 14.0819C30.2222 12.1397 28.7618 10.6667 27.0815 10.6667H4.91852C3.2382 10.6667 1.77778 12.1397 1.77778 14.0819C1.77778 16.0242 3.2382 17.4971 4.91852 17.4971H9.83704V30.2223H8.05926V19.2749H4.91852C2.14783 19.2749 0 16.8939 0 14.0819Z" fill="#0E141B"/>
<path d="M19.1078 27.5556H13.4455V19.4667H15.4446V25.753H19.1078V27.5556Z" fill="#0E141B"/>
<path d="M21.3333 1.77783H10.6667L16 7.11117L21.3333 1.77783Z" fill="#0E141B"/>
</svg>
