<svg width="32" height="32" viewBox="0 0 32 32" fill="none" xmlns="http://www.w3.org/2000/svg">
<g clip-path="url(#clip0_8152_810)">
<rect width="32" height="32" rx="2" fill="#0E141B"/>
<path d="M24.145 14.24C24.817 14.24 25.4303 14.3733 25.985 14.64C26.5503 14.896 26.9983 15.2853 27.329 15.808C27.6597 16.3307 27.825 16.9707 27.825 17.728C27.825 18.4853 27.6437 19.168 27.281 19.776C26.929 20.3733 26.4277 20.848 25.777 21.2C25.1263 21.5413 24.3743 21.712 23.521 21.712C22.593 21.712 21.777 21.504 21.073 21.088C20.3797 20.672 19.8303 20.0427 19.425 19.2C19.0303 18.3467 18.833 17.2907 18.833 16.032C18.833 14.656 19.0623 13.52 19.521 12.624C19.9797 11.7173 20.6037 11.056 21.393 10.64C22.1823 10.2133 23.089 10 24.113 10C24.817 10 25.4517 10.0907 26.017 10.272C26.5823 10.4427 27.0517 10.6507 27.425 10.896L26.481 12.656C26.1717 12.464 25.809 12.3093 25.393 12.192C24.9877 12.064 24.5557 12 24.097 12C22.3157 12 21.3503 13.1093 21.201 15.328C21.617 14.9867 22.0757 14.72 22.577 14.528C23.089 14.336 23.6117 14.24 24.145 14.24ZM23.473 19.728C24.049 19.728 24.5237 19.5573 24.897 19.216C25.281 18.864 25.473 18.4053 25.473 17.84C25.473 17.2853 25.297 16.8587 24.945 16.56C24.6037 16.2507 24.1503 16.096 23.585 16.096C23.1477 16.096 22.721 16.1973 22.305 16.4C21.8997 16.592 21.553 16.848 21.265 17.168C21.3823 17.9893 21.6277 18.624 22.001 19.072C22.3743 19.5093 22.865 19.728 23.473 19.728Z" fill="white"/>
<path d="M11.032 18.208L14.52 10.256H16.904V21.456H14.648V14.336L11.64 21.136H10.216L7.144 14.416V21.456H5V10.256H7.256L11.032 18.208Z" fill="white"/>
</g>
<defs>
<clipPath id="clip0_8152_810">
<rect width="32" height="32" fill="white"/>
</clipPath>
</defs>
</svg>
