<svg width="64" height="64" viewBox="0 0 64 64" fill="none" xmlns="http://www.w3.org/2000/svg">
<mask id="path-1-inside-1_1967:21083" fill="white">
<path d="M42.1818 14.1818C42.1818 19.8051 37.6232 24.3636 31.9999 24.3636C26.3767 24.3636 21.8181 19.8051 21.8181 14.1818C21.8181 8.55856 26.3767 4 31.9999 4C37.6232 4 42.1818 8.55856 42.1818 14.1818Z"/>
</mask>
<path d="M39.6363 14.1818C39.6363 18.3993 36.2174 21.8182 31.9999 21.8182V26.9091C39.029 26.9091 44.7272 21.2109 44.7272 14.1818H39.6363ZM31.9999 21.8182C27.7825 21.8182 24.3636 18.3993 24.3636 14.1818H19.2727C19.2727 21.2109 24.9709 26.9091 31.9999 26.9091V21.8182ZM24.3636 14.1818C24.3636 9.96437 27.7825 6.54545 31.9999 6.54545V1.45455C24.9709 1.45455 19.2727 7.15274 19.2727 14.1818H24.3636ZM31.9999 6.54545C36.2174 6.54545 39.6363 9.96437 39.6363 14.1818H44.7272C44.7272 7.15274 39.029 1.45455 31.9999 1.45455V6.54545Z" fill="black" mask="url(#path-1-inside-1_1967:21083)"/>
<path d="M42.1818 49.8182C42.1818 44.1949 37.6232 39.6364 31.9999 39.6364C26.3767 39.6364 21.8181 44.1949 21.8181 49.8182C21.8181 55.4414 26.3767 60 31.9999 60C37.6232 60 42.1818 55.4414 42.1818 49.8182Z" fill="black"/>
<mask id="path-4-inside-2_1967:21083" fill="white">
<path d="M14.1818 21.8181C19.8051 21.8181 24.3636 26.3767 24.3636 31.9999C24.3636 37.6232 19.8051 42.1818 14.1818 42.1818C8.55856 42.1818 4 37.6232 4 31.9999C4 26.3767 8.55856 21.8181 14.1818 21.8181Z"/>
</mask>
<path d="M14.1818 24.5133C18.3166 24.5133 21.6684 27.8652 21.6684 31.9999H27.0588C27.0588 24.8882 21.2936 19.1229 14.1818 19.1229V24.5133ZM21.6684 31.9999C21.6684 36.1347 18.3166 39.4866 14.1818 39.4866V44.8769C21.2936 44.8769 27.0588 39.1117 27.0588 31.9999H21.6684ZM14.1818 39.4866C10.0471 39.4866 6.69519 36.1347 6.69519 31.9999H1.30481C1.30481 39.1117 7.07004 44.8769 14.1818 44.8769V39.4866ZM6.69519 31.9999C6.69519 27.8652 10.0471 24.5133 14.1818 24.5133V19.1229C7.07004 19.1229 1.30481 24.8882 1.30481 31.9999H6.69519Z" fill="black" mask="url(#path-4-inside-2_1967:21083)"/>
<mask id="path-6-inside-3_1967:21083" fill="white">
<path d="M49.8182 21.8181C44.1949 21.8181 39.6364 26.3767 39.6364 31.9999C39.6364 37.6232 44.1949 42.1818 49.8182 42.1818C55.4414 42.1818 60 37.6232 60 31.9999C60 26.3767 55.4414 21.8181 49.8182 21.8181Z"/>
</mask>
<path d="M49.8182 24.3636C45.6007 24.3636 42.1818 27.7825 42.1818 31.9999H37.0909C37.0909 24.9709 42.7891 19.2727 49.8182 19.2727V24.3636ZM42.1818 31.9999C42.1818 36.2174 45.6007 39.6363 49.8182 39.6363V44.7272C42.7891 44.7272 37.0909 39.029 37.0909 31.9999H42.1818ZM49.8182 39.6363C54.0356 39.6363 57.4545 36.2174 57.4545 31.9999H62.5455C62.5455 39.029 56.8473 44.7272 49.8182 44.7272V39.6363ZM57.4545 31.9999C57.4545 27.7825 54.0356 24.3636 49.8182 24.3636V19.2727C56.8473 19.2727 62.5455 24.9709 62.5455 31.9999H57.4545Z" fill="black" mask="url(#path-6-inside-3_1967:21083)"/>
</svg>
