<svg width="64" height="64" viewBox="0 0 64 64" fill="none" xmlns="http://www.w3.org/2000/svg">
<circle cx="32" cy="32" r="26.5" stroke="black" stroke-width="3"/>
<path d="M22.912 45V45.088H23H34.1405C37.1552 45.088 39.5696 44.4036 41.375 43.0256C43.1845 41.6445 44.088 39.7147 44.088 37.2471C44.088 35.5472 43.6502 34.132 42.7689 33.0079C41.9218 31.9275 40.6708 31.1234 39.0235 30.5912C40.2086 29.9335 41.0797 29.1202 41.631 28.1491C42.2082 27.1324 42.4965 26.0116 42.4965 24.7886C42.4965 22.605 41.7232 20.9064 40.1722 19.7047C38.6228 18.5044 36.2445 17.912 33.0536 17.912H23H22.912V18V45ZM36.7616 39.3018L36.7605 39.3028C36.0583 39.9257 34.9963 40.2449 33.5582 40.2449H28.8717V33.478H33.7135C35.0739 33.478 36.099 33.7715 36.802 34.3453L36.8035 34.3465C37.5018 34.8917 37.8566 35.7116 37.8566 36.8229C37.8566 37.8534 37.4911 38.6768 36.7616 39.3018ZM32.7043 29.2135H28.8717V22.7937H32.5878C33.9638 22.7937 34.9797 23.0529 35.65 23.5571C36.3155 24.0577 36.6533 24.8099 36.6533 25.83C36.6533 26.9153 36.3114 27.7505 35.6356 28.3477C34.9583 28.9207 33.9854 29.2135 32.7043 29.2135Z" fill="black" stroke="black" stroke-width="0.175936"/>
</svg>
