<svg width="64" height="64" viewBox="0 0 64 64" fill="none" xmlns="http://www.w3.org/2000/svg">
<path fill-rule="evenodd" clip-rule="evenodd" d="M3 23.9444C3 23.0546 3.72132 22.3333 4.61111 22.3333L20.7222 22.3333C21.612 22.3333 22.3333 21.612 22.3333 20.7222L22.3333 4.61111C22.3333 3.72132 23.0547 3 23.9444 3L40.0556 2.99999C40.9453 2.99999 41.6667 3.72132 41.6667 4.61111L41.6667 20.7222C41.6667 21.612 42.388 22.3333 43.2778 22.3333L59.3889 22.3333C60.2787 22.3333 61 23.0546 61 23.9444L61 40.0556C61 40.9453 60.2787 41.6667 59.3889 41.6667L43.2778 41.6667C42.388 41.6667 41.6667 42.388 41.6667 43.2778L41.6667 59.3889C41.6667 60.2787 40.9453 61 40.0555 61L23.9444 61C23.0547 61 22.3333 60.2787 22.3333 59.3889L22.3333 43.2778C22.3333 42.388 21.612 41.6667 20.7222 41.6667L4.61111 41.6667C3.72132 41.6667 3 40.9453 3 40.0556L3 23.9444Z" fill="black"/>
<path d="M15.7861 38.4444L7.83325 32L15.7861 25.5555L15.7861 38.4444Z" fill="white"/>
</svg>
