<svg width="64" height="64" viewBox="0 0 64 64" fill="none" xmlns="http://www.w3.org/2000/svg">
<g clip-path="url(#clip0_1967:20809)">
<path fill-rule="evenodd" clip-rule="evenodd" d="M38.8331 18.6137L32.6809 24.2927L26.238 18.3454C28.0859 17.9249 30.0154 17.7021 32 17.7021C34.3715 17.7021 36.6642 18.0202 38.8331 18.6137ZM41.7661 19.6126C50.4432 23.1765 56.5107 31.3446 56.5107 40.8511C56.5107 53.6359 45.5369 64 32 64C18.4632 64 7.48938 53.6359 7.48938 40.8511C7.48938 30.998 14.0074 22.5826 23.1934 19.2413L32.6809 27.999L41.7661 19.6126Z" fill="black"/>
<path fill-rule="evenodd" clip-rule="evenodd" d="M38.6724 9.91312V9.91318H48.2584L32.6807 24.2926L17.103 9.91318H26.6894V2.72339H38.6721V9.91312H38.6724Z" fill="white"/>
<path fill-rule="evenodd" clip-rule="evenodd" d="M26.6895 9.91319V2.7234H38.6722V9.91313L48.2585 9.91319L32.6808 24.2926L17.1031 9.91319H26.6895ZM41.3959 7.18979H55.224L32.6808 27.9989L10.1376 7.18979H23.9661V0H41.3956L41.3959 7.18979Z" fill="black"/>
<path d="M39.1085 46.7279H34.8978L31.981 41.8593H31.6521H29.8318V46.7279H26.0378V31.3765H32.003C34.196 31.3765 35.8189 31.8078 36.8715 32.6704C37.9242 33.533 38.4505 34.7465 38.4505 36.3108C38.4505 37.4951 38.1947 38.4893 37.683 39.2934C37.1859 40.0829 36.4841 40.6823 35.5776 41.0917L39.1085 46.7279ZM29.8318 34.6222V38.6136H31.8933C32.6682 38.6136 33.2749 38.4381 33.7135 38.0872C34.1668 37.7217 34.3934 37.1954 34.3934 36.5082C34.3934 35.8795 34.1887 35.4117 33.7793 35.1047C33.37 34.783 32.7194 34.6222 31.8275 34.6222H29.8318Z" fill="white"/>
<path d="M32.0001 54.5396C42.3889 54.5396 50.2756 47.1707 50.2756 38.7009C50.2756 31.7975 45.0364 25.6255 37.4735 23.5787L39.5438 21.6754C47.2525 24.3366 52.7123 30.9561 52.7123 38.7009C52.7123 48.7941 43.4391 56.9764 32.0001 56.9764C20.5611 56.9764 11.2879 48.7941 11.2879 38.7009C11.2879 30.6066 17.2517 23.7413 25.5138 21.3395L27.6241 23.3196C27.1392 23.423 26.6622 23.5432 26.194 23.6793C18.7678 25.8382 13.7246 31.8897 13.7246 38.7009C13.7246 47.1707 21.6113 54.5396 32.0001 54.5396Z" fill="white"/>
</g>
<defs>
<clipPath id="clip0_1967:20809">
<rect width="64" height="64" fill="white"/>
</clipPath>
</defs>
</svg>
