<svg width="64" height="64" viewBox="0 0 64 64" fill="none" xmlns="http://www.w3.org/2000/svg">
<g clip-path="url(#clip0_1967:20823)">
<path d="M64 33.0001C64 49.6913 49.6731 63.2223 32 63.2223C14.3269 63.2223 0 49.6913 0 33.0001C0 16.3088 14.3269 2.77783 32 2.77783C49.6731 2.77783 64 16.3088 64 33.0001Z" fill="black"/>
<path fill-rule="evenodd" clip-rule="evenodd" d="M55.8598 30.193C55.8598 41.2509 45.5634 50.8714 32.0002 50.8714C18.437 50.8714 8.14052 41.2509 8.14052 30.193C8.14052 19.1352 18.437 9.51466 32.0002 9.51466C45.5634 9.51466 55.8598 19.1352 55.8598 30.193ZM59.0411 30.193C59.0411 43.3703 46.9345 54.0527 32.0002 54.0527C17.0659 54.0527 4.95923 43.3703 4.95923 30.193C4.95923 17.0157 17.0659 6.33337 32.0002 6.33337C46.9345 6.33337 59.0411 17.0157 59.0411 30.193ZM35.7832 41.0056H41.2805L36.6708 33.6473C37.8542 33.1129 38.7704 32.3303 39.4194 31.2995C40.0875 30.2497 40.4215 28.9517 40.4215 27.4056C40.4215 25.3633 39.7344 23.779 38.36 22.6528C36.9857 21.5266 34.867 20.9635 32.0038 20.9635H24.216V41.0056H29.1693V34.6494H31.5457H31.9752L35.7832 41.0056ZM29.1693 30.412V25.201H31.7748C32.9391 25.201 33.7885 25.411 34.323 25.8309C34.8574 26.2317 35.1247 26.8426 35.1247 27.6633C35.1247 28.5604 34.8288 29.2476 34.2371 29.7248C33.6645 30.1829 32.8723 30.412 31.8607 30.412H29.1693Z" fill="white"/>
</g>
<defs>
<clipPath id="clip0_1967:20823">
<rect width="64" height="64" fill="white"/>
</clipPath>
</defs>
</svg>
