<svg width="32" height="32" viewBox="0 0 32 32" fill="none" xmlns="http://www.w3.org/2000/svg">
<g clip-path="url(#clip0_1967_20829)">
<path d="M20.6834 6.57581L17.8013 6.57581L14.1987 6.57581L11.3166 6.57581L16 1.8924L20.6834 6.57581Z" fill="white"/>
<path fill-rule="evenodd" clip-rule="evenodd" d="M23.9139 7.91388L8.08607 7.91388L16 -2.69647e-05L23.9139 7.91388ZM20.6834 6.57576L16 1.89236L11.3166 6.57576L20.6834 6.57576Z" fill="#0E141B"/>
<path d="M28.0431 20.626C28.0431 26.9077 22.6512 32 16 32C9.34883 32 3.95697 26.9077 3.95697 20.626C3.95697 14.3443 9.34883 9.25201 16 9.25201C22.6512 9.25201 28.0431 14.3443 28.0431 20.626Z" fill="#0E141B"/>
<path fill-rule="evenodd" clip-rule="evenodd" d="M24.9795 19.5696C24.9795 23.7312 21.1045 27.3518 16 27.3518C10.8956 27.3518 7.02057 23.7312 7.02057 19.5696C7.02057 15.408 10.8956 11.7874 16 11.7874C21.1045 11.7874 24.9795 15.408 24.9795 19.5696ZM26.1768 19.5696C26.1768 24.5288 21.6205 28.5491 16 28.5491C10.3796 28.5491 5.8233 24.5288 5.8233 19.5696C5.8233 14.6104 10.3796 10.5901 16 10.5901C21.6205 10.5901 26.1768 14.6104 26.1768 19.5696ZM13.7396 23.5135H19.0195V21.8325H15.6037V15.9707H13.7396V23.5135Z" fill="white"/>
</g>
<defs>
<clipPath id="clip0_1967_20829">
<rect width="32" height="32" fill="white"/>
</clipPath>
</defs>
</svg>
