<svg width="32" height="32" viewBox="0 0 32 32" fill="none" xmlns="http://www.w3.org/2000/svg">
<path d="M6.37024 21.626L6.37024 18.6687L6.37024 14.9721L6.37024 12.0148L1.88503 16.8204L6.37024 21.626Z" fill="white"/>
<path fill-rule="evenodd" clip-rule="evenodd" d="M7.65173 24.8771L7.65173 8.7636L0.13211 16.8203L7.65173 24.8771ZM6.37025 21.6259L1.88504 16.8203L6.37025 12.0148L6.37025 21.6259Z" fill="#0E141B"/>
<path d="M32 16.5C32 22.5158 26.8363 27.3926 20.4666 27.3926C14.0969 27.3926 8.93323 22.5158 8.93323 16.5C8.93323 10.4842 14.0969 5.60736 20.4666 5.60736C26.8363 5.60736 32 10.4842 32 16.5Z" fill="#0E141B"/>
<path fill-rule="evenodd" clip-rule="evenodd" d="M29.0661 15.4883C29.0661 19.4738 25.3551 22.9412 20.4667 22.9412C15.5783 22.9412 11.8672 19.4738 11.8672 15.4883C11.8672 11.5029 15.5783 8.03545 20.4667 8.03545C25.3551 8.03545 29.0661 11.5029 29.0661 15.4883ZM30.2127 15.4883C30.2127 20.2377 25.8493 24.0878 20.4667 24.0878C15.0841 24.0878 10.7206 20.2377 10.7206 15.4883C10.7206 10.739 15.0841 6.88885 20.4667 6.88885C25.8493 6.88885 30.2127 10.739 30.2127 15.4883ZM18.3019 19.2653H23.3584V17.6554H20.0872V12.0417H18.3019V19.2653Z" fill="white"/>
</svg>
