<svg width="64" height="64" viewBox="0 0 64 64" fill="none" xmlns="http://www.w3.org/2000/svg">
<path d="M42.5454 13.5455C42.5454 19.3695 37.8241 24.0909 32 24.0909C26.1759 24.0909 21.4545 19.3695 21.4545 13.5455C21.4545 7.72136 26.1759 3 32 3C37.8241 3 42.5454 7.72136 42.5454 13.5455Z" fill="black"/>
<path d="M42.5454 50.4545C42.5454 44.6305 37.8241 39.9091 32 39.9091C26.1759 39.9091 21.4545 44.6305 21.4545 50.4545C21.4545 56.2786 26.1759 61 32 61C37.8241 61 42.5454 56.2786 42.5454 50.4545Z" fill="black"/>
<path d="M13.5455 21.4545C19.3695 21.4545 24.0909 26.1759 24.0909 32C24.0909 37.824 19.3695 42.5454 13.5455 42.5454C7.72136 42.5454 3 37.824 3 32C3 26.1759 7.72136 21.4545 13.5455 21.4545Z" fill="black"/>
<path d="M50.4545 21.4545C44.6305 21.4545 39.9091 26.1759 39.9091 32C39.9091 37.824 44.6305 42.5454 50.4545 42.5454C56.2786 42.5454 61 37.824 61 32C61 26.1759 56.2786 21.4545 50.4545 21.4545Z" fill="black"/>
<path d="M31.9999 7.96265L36.8349 16.337H27.165L31.9999 7.96265Z" fill="white"/>
<path d="M31.9999 56.0374L36.8349 47.663H27.165L31.9999 56.0374Z" fill="white"/>
<path d="M7.96246 31.9999L16.3368 27.165V36.8348L7.96246 31.9999Z" fill="white"/>
<path d="M56.0375 31.9999L47.6632 27.165V36.8348L56.0375 31.9999Z" fill="white"/>
</svg>
