<svg width="64" height="64" viewBox="0 0 64 64" fill="none" xmlns="http://www.w3.org/2000/svg">
<g clip-path="url(#clip0_1967:20817)">
<path d="M64 33C64 49.6913 49.6731 63.2222 32 63.2222C14.3269 63.2222 0 49.6913 0 33C0 16.3087 14.3269 2.77777 32 2.77777C49.6731 2.77777 64 16.3087 64 33Z" fill="black"/>
<path fill-rule="evenodd" clip-rule="evenodd" d="M55.8598 30.193C55.8598 41.2508 45.5634 50.8713 32.0002 50.8713C18.437 50.8713 8.14052 41.2508 8.14052 30.193C8.14052 19.1351 18.437 9.5146 32.0002 9.5146C45.5634 9.5146 55.8598 19.1351 55.8598 30.193ZM59.0411 30.193C59.0411 43.3703 46.9345 54.0526 32.0002 54.0526C17.0659 54.0526 4.95923 43.3703 4.95923 30.193C4.95923 17.0156 17.0659 6.33331 32.0002 6.33331C46.9345 6.33331 59.0411 17.0156 59.0411 30.193ZM25.9938 41.0056H40.0233V36.5391H30.9471V20.9635H25.9938V41.0056Z" fill="white"/>
</g>
<defs>
<clipPath id="clip0_1967:20817">
<rect width="64" height="64" fill="white"/>
</clipPath>
</defs>
</svg>
