<svg width="32" height="32" viewBox="0 0 32 32" fill="none" xmlns="http://www.w3.org/2000/svg">
<g clip-path="url(#clip0_1967_20864)">
<path d="M11.3292 25.3561L14.2035 25.3561L17.7965 25.3561L20.6709 25.3561L16 30.0269L11.3292 25.3561Z" fill="white"/>
<path fill-rule="evenodd" clip-rule="evenodd" d="M8.1073 24.0215L23.8927 24.0215L16 31.9142L8.1073 24.0215ZM11.3291 25.356L16 30.0269L20.6708 25.356L11.3291 25.356Z" fill="#0E141B"/>
<path d="M28.0108 11.3435C28.0108 17.6083 22.6334 22.687 16 22.687C9.36666 22.687 3.98926 17.6083 3.98926 11.3435C3.98926 5.07866 9.36666 0 16 0C22.6334 0 28.0108 5.07866 28.0108 11.3435Z" fill="#0E141B"/>
<path fill-rule="evenodd" clip-rule="evenodd" d="M16 18.0512C21.0908 18.0512 24.9554 14.4403 24.9554 10.2899C24.9554 6.13946 21.0908 2.52852 16 2.52852C10.9093 2.52852 7.04464 6.13946 7.04464 10.2899C7.04464 14.4403 10.9093 18.0512 16 18.0512ZM16 19.2453C21.6054 19.2453 26.1495 15.2358 26.1495 10.2899C26.1495 5.34394 21.6054 1.33447 16 1.33447C10.3946 1.33447 5.85059 5.34394 5.85059 10.2899C5.85059 15.2358 10.3946 19.2453 16 19.2453Z" fill="white"/>
<path d="M19.4833 14.2232H17.4199L15.9907 11.8375H15.8295H14.9375V14.2232H13.0784V6.70068H16.0014C17.0761 6.70068 17.8713 6.91203 18.3871 7.33473C18.903 7.75742 19.1609 8.35206 19.1609 9.11864C19.1609 9.69895 19.0355 10.1861 18.7847 10.5802C18.5412 10.967 18.1973 11.2608 17.7531 11.4614L19.4833 14.2232ZM14.9375 8.29116V10.247H15.9477C16.3274 10.247 16.6247 10.161 16.8396 9.9891C17.0617 9.80999 17.1728 9.55208 17.1728 9.21536C17.1728 8.90729 17.0725 8.67803 16.8719 8.52758C16.6713 8.36997 16.3525 8.29116 15.9154 8.29116H14.9375Z" fill="white"/>
</g>
<defs>
<clipPath id="clip0_1967_20864">
<rect width="32" height="32" fill="white"/>
</clipPath>
</defs>
</svg>
