<svg width="32" height="32" viewBox="0 0 32 32" fill="none" xmlns="http://www.w3.org/2000/svg">
<g clip-path="url(#clip0_1967_20809)">
<path fill-rule="evenodd" clip-rule="evenodd" d="M19.4166 9.30683L16.3404 12.1463L13.119 9.1727C14.043 8.96246 15.0077 8.85107 16 8.85107C17.1857 8.85107 18.3321 9.01011 19.4166 9.30683ZM20.883 9.80631C25.2216 11.5883 28.2553 15.6723 28.2553 20.4255C28.2553 26.8179 22.7684 32 16 32C9.23158 32 3.74469 26.8179 3.74469 20.4255C3.74469 15.499 7.00371 11.2913 11.5967 9.62065L16.3404 13.9995L20.883 9.80631Z" fill="#0E141B"/>
<path fill-rule="evenodd" clip-rule="evenodd" d="M19.3362 4.95656V4.95659H24.1292L16.3404 12.1463L8.55151 4.95659H13.3447V1.36169H19.3361V4.95656H19.3362Z" fill="white"/>
<path fill-rule="evenodd" clip-rule="evenodd" d="M13.3447 4.9566V1.3617H19.3361V4.95657L24.1292 4.9566L16.3404 12.1463L8.55154 4.9566H13.3447ZM20.6979 3.59489H27.612L16.3404 13.9995L5.06879 3.59489H11.983V0H20.6978L20.6979 3.59489Z" fill="#0E141B"/>
<path d="M19.5542 23.3639H17.4489L15.9905 20.9296H15.826H14.9159V23.3639H13.0189V15.6882H16.0015C17.098 15.6882 17.9094 15.9039 18.4358 16.3352C18.9621 16.7665 19.2253 17.3732 19.2253 18.1554C19.2253 18.7475 19.0973 19.2446 18.8415 19.6467C18.5929 20.0415 18.2421 20.3412 17.7888 20.5459L19.5542 23.3639ZM14.9159 17.3111V19.3068H15.9467C16.3341 19.3068 16.6375 19.2191 16.8568 19.0436C17.0834 18.8609 17.1967 18.5977 17.1967 18.2541C17.1967 17.9398 17.0944 17.7058 16.8897 17.5523C16.685 17.3915 16.3597 17.3111 15.9138 17.3111H14.9159Z" fill="white"/>
<path d="M16 27.2699C21.1944 27.2699 25.1378 23.5854 25.1378 19.3505C25.1378 15.8988 22.5182 12.8128 18.7367 11.7894L19.7719 10.8378C23.6262 12.1684 26.3561 15.4781 26.3561 19.3505C26.3561 24.3971 21.7195 28.4882 16 28.4882C10.2805 28.4882 5.64392 24.3971 5.64392 19.3505C5.64392 15.3033 8.62584 11.8707 12.7568 10.6698L13.812 11.6599C13.5696 11.7116 13.3311 11.7717 13.097 11.8397C9.38387 12.9191 6.86229 15.9449 6.86229 19.3505C6.86229 23.5854 10.8056 27.2699 16 27.2699Z" fill="white"/>
</g>
<defs>
<clipPath id="clip0_1967_20809">
<rect width="32" height="32" fill="white"/>
</clipPath>
</defs>
</svg>
