<svg width="32" height="32" viewBox="0 0 32 32" fill="none" xmlns="http://www.w3.org/2000/svg">
<path d="M25.6298 21.626L25.6298 18.6687L25.6298 14.9721L25.6298 12.0148L30.115 16.8204L25.6298 21.626Z" fill="white"/>
<path fill-rule="evenodd" clip-rule="evenodd" d="M24.3483 24.8771L24.3483 8.7636L31.8679 16.8203L24.3483 24.8771ZM25.6298 21.6259L30.115 16.8203L25.6298 12.0148L25.6298 21.6259Z" fill="#0E141B"/>
<path d="M23.0668 16.5C23.0668 22.5158 17.9031 27.3926 11.5334 27.3926C5.16367 27.3926 0 22.5158 0 16.5C0 10.4842 5.16367 5.60736 11.5334 5.60736C17.9031 5.60736 23.0668 10.4842 23.0668 16.5Z" fill="#0E141B"/>
<path fill-rule="evenodd" clip-rule="evenodd" d="M20.1329 15.4883C20.1329 19.4738 16.4219 22.9412 11.5335 22.9412C6.64504 22.9412 2.93401 19.4738 2.93401 15.4883C2.93401 11.5029 6.64504 8.03545 11.5335 8.03545C16.4219 8.03545 20.1329 11.5029 20.1329 15.4883ZM21.2795 15.4883C21.2795 20.2377 16.9161 24.0878 11.5335 24.0878C6.15087 24.0878 1.78741 20.2377 1.78741 15.4883C1.78741 10.739 6.15087 6.88885 11.5335 6.88885C16.9161 6.88885 21.2795 10.739 21.2795 15.4883ZM9.36868 19.2653H14.4252V17.6554H11.1539V12.0417H9.36868V19.2653Z" fill="white"/>
</svg>
