<svg width="64" height="64" viewBox="0 0 64 64" fill="none" xmlns="http://www.w3.org/2000/svg">
<path fill-rule="evenodd" clip-rule="evenodd" d="M28.4446 0.000183105C48.0813 0.000183105 64 15.9189 64 35.5556V63.9998L4.16589 4.16573C6.73959 1.59203 10.2951 0.000183105 14.2225 0.000183105H28.4446Z" fill="black"/>
<path opacity="0.5" fill-rule="evenodd" clip-rule="evenodd" d="M63.9998 63.9998L4.16569 4.16571C1.59199 6.73941 0.00012207 10.2949 0.00012207 14.2223V63.9998H63.9998Z" fill="#67707B"/>
<path d="M29.1695 30.0712L20.2896 41.8312H29.5162V45.7778H14.5829V42.7112L23.4095 31.0579H15.0096V27.1113H29.1695V30.0712ZM49.9053 45.7778H44.7853L41.2387 39.8579H40.8387H38.6254V45.7778H34.0121V27.1113H41.2654C43.932 27.1113 45.9053 27.6357 47.1853 28.6846C48.4653 29.7335 49.1053 31.209 49.1053 33.1112C49.1053 34.5512 48.7942 35.7601 48.172 36.7379C47.5675 37.6979 46.7142 38.4268 45.612 38.9245L49.9053 45.7778ZM38.6254 31.0579V35.9112H41.132C42.0742 35.9112 42.812 35.6979 43.3453 35.2712C43.8965 34.8268 44.172 34.1868 44.172 33.3512C44.172 32.5868 43.9231 32.0179 43.4253 31.6446C42.9276 31.2535 42.1365 31.0579 41.052 31.0579H38.6254Z" fill="white"/>
</svg>
