<svg width="32" height="32" viewBox="0 0 32 32" fill="none" xmlns="http://www.w3.org/2000/svg">
<path d="M21.2727 6.77273C21.2727 9.68477 18.9121 12.0455 16 12.0455C13.088 12.0455 10.7273 9.68477 10.7273 6.77273C10.7273 3.86068 13.088 1.5 16 1.5C18.9121 1.5 21.2727 3.86068 21.2727 6.77273Z" fill="#0E141B"/>
<path d="M21.2727 25.2273C21.2727 22.3152 18.9121 19.9545 16 19.9545C13.088 19.9545 10.7273 22.3152 10.7273 25.2273C10.7273 28.1393 13.088 30.5 16 30.5C18.9121 30.5 21.2727 28.1393 21.2727 25.2273Z" fill="#0E141B"/>
<path d="M6.77273 10.7273C9.68477 10.7273 12.0455 13.0879 12.0455 16C12.0455 18.912 9.68477 21.2727 6.77273 21.2727C3.86068 21.2727 1.5 18.912 1.5 16C1.5 13.0879 3.86068 10.7273 6.77273 10.7273Z" fill="#0E141B"/>
<path d="M25.2273 10.7273C22.3152 10.7273 19.9545 13.0879 19.9545 16C19.9545 18.912 22.3152 21.2727 25.2273 21.2727C28.1393 21.2727 30.5 18.912 30.5 16C30.5 13.0879 28.1393 10.7273 25.2273 10.7273Z" fill="#0E141B"/>
<path d="M16 3.98132L18.4174 8.16849H13.5825L16 3.98132Z" fill="white"/>
<path d="M16 28.0187L18.4174 23.8315H13.5825L16 28.0187Z" fill="white"/>
<path d="M3.98126 16L8.16843 13.5826V18.4175L3.98126 16Z" fill="white"/>
<path d="M28.0187 16L23.8316 13.5826V18.4175L28.0187 16Z" fill="white"/>
</svg>
