<svg width="64" height="64" viewBox="0 0 64 64" fill="none" xmlns="http://www.w3.org/2000/svg">
<path d="M51.2595 43.252L51.2595 37.3374L51.2595 29.9442L51.2595 24.0296L60.2299 33.6408L51.2595 43.252Z" fill="white"/>
<path fill-rule="evenodd" clip-rule="evenodd" d="M48.6965 49.7543L48.6965 17.5273L63.7358 33.6408L48.6965 49.7543ZM51.2595 43.252L60.2299 33.6408L51.2595 24.0296L51.2595 43.252Z" fill="black"/>
<path d="M46.1335 33C46.1335 45.0317 35.8062 54.7853 23.0668 54.7853C10.3273 54.7853 0 45.0317 0 33C0 20.9683 10.3273 11.2147 23.0668 11.2147C35.8062 11.2147 46.1335 20.9683 46.1335 33Z" fill="black"/>
<path fill-rule="evenodd" clip-rule="evenodd" d="M40.2658 30.9766C40.2658 38.9475 32.8437 45.8823 23.0669 45.8823C13.29 45.8823 5.86796 38.9475 5.86796 30.9766C5.86796 23.0057 13.29 16.0709 23.0669 16.0709C32.8437 16.0709 40.2658 23.0057 40.2658 30.9766ZM42.559 30.9766C42.559 40.4753 33.8321 48.1755 23.0669 48.1755C12.3017 48.1755 3.57477 40.4753 3.57477 30.9766C3.57477 21.4779 12.3017 13.7777 23.0669 13.7777C33.8321 13.7777 42.559 21.4779 42.559 30.9766ZM25.7938 38.5305H29.7565L26.4336 33.2264C27.2867 32.8411 27.9471 32.277 28.415 31.534C28.8965 30.7772 29.1373 29.8416 29.1373 28.7271C29.1373 27.2549 28.642 26.1129 27.6513 25.3011C26.6607 24.4893 25.1334 24.0834 23.0695 24.0834H17.4558V38.5305H21.0263V33.9487H22.7393H23.0489L25.7938 38.5305ZM21.0263 30.8942V27.1379H22.9044C23.7437 27.1379 24.356 27.2893 24.7413 27.592C25.1265 27.8809 25.3192 28.3212 25.3192 28.9129C25.3192 29.5596 25.1059 30.0549 24.6793 30.3989C24.2666 30.7291 23.6956 30.8942 22.9663 30.8942H21.0263Z" fill="white"/>
</svg>
