<svg width="32" height="32" viewBox="0 0 32 32" fill="none" xmlns="http://www.w3.org/2000/svg">
<path d="M0 12C0 9.23858 2.23858 7 5 7H32V24H5C2.23858 24 0 21.7614 0 19V12Z" fill="#0E141B"/>
<path d="M12.5675 10.1035C13.2732 10.1035 13.9305 10.205 14.5395 10.408C15.1485 10.6013 15.6512 10.843 16.0475 11.133L14.989 13.0035C14.641 12.7522 14.2447 12.5492 13.8 12.3945C13.365 12.2398 12.959 12.1625 12.582 12.1625C12.1857 12.1625 11.8763 12.2447 11.654 12.409C11.4317 12.5637 11.3205 12.7763 11.3205 13.047C11.3205 13.337 11.4607 13.569 11.741 13.743C12.031 13.9073 12.4805 14.091 13.0895 14.294C13.7565 14.526 14.293 14.7435 14.699 14.9465C15.1147 15.1495 15.4772 15.454 15.7865 15.86C16.0958 16.2563 16.2505 16.7735 16.2505 17.4115C16.2505 18.0882 16.0717 18.673 15.714 19.166C15.366 19.659 14.8778 20.036 14.2495 20.297C13.6308 20.5483 12.9203 20.674 12.118 20.674C11.4703 20.674 10.8178 20.5918 10.1605 20.4275C9.51283 20.2632 8.93766 20.0312 8.435 19.7315L9.189 17.6435C10.2523 18.1945 11.2432 18.47 12.1615 18.47C12.6158 18.47 12.959 18.383 13.191 18.209C13.423 18.035 13.539 17.8078 13.539 17.5275C13.539 17.2472 13.4085 17.0297 13.1475 16.875C12.8865 16.7107 12.4805 16.5463 11.9295 16.382C11.2142 16.1597 10.6438 15.9518 10.2185 15.7585C9.79316 15.5555 9.42583 15.251 9.1165 14.845C8.80716 14.4293 8.6525 13.8832 8.6525 13.2065C8.6525 12.5685 8.81683 12.0175 9.1455 11.5535C9.47416 11.0798 9.93333 10.7222 10.523 10.4805C11.1127 10.2292 11.7942 10.1035 12.5675 10.1035Z" fill="white"/>
<path d="M24.8278 20.5H17.7228V10.35H20.2313V18.238H24.8278V20.5Z" fill="white"/>
</svg>
