<svg width="32" height="32" viewBox="0 0 32 32" fill="none" xmlns="http://www.w3.org/2000/svg">
<g clip-path="url(#clip0_1967_20817)">
<path d="M32 16.5C32 24.8457 24.8366 31.6111 16 31.6111C7.16344 31.6111 0 24.8457 0 16.5C0 8.15439 7.16344 1.38892 16 1.38892C24.8366 1.38892 32 8.15439 32 16.5Z" fill="#0E141B"/>
<path fill-rule="evenodd" clip-rule="evenodd" d="M27.9299 15.0965C27.9299 20.6254 22.7817 25.4357 16.0001 25.4357C9.21849 25.4357 4.07026 20.6254 4.07026 15.0965C4.07026 9.56759 9.21849 4.75733 16.0001 4.75733C22.7817 4.75733 27.9299 9.56759 27.9299 15.0965ZM29.5205 15.0965C29.5205 21.6852 23.4672 27.0263 16.0001 27.0263C8.53293 27.0263 2.47961 21.6852 2.47961 15.0965C2.47961 8.50785 8.53293 3.16669 16.0001 3.16669C23.4672 3.16669 29.5205 8.50785 29.5205 15.0965ZM12.9969 20.5029H20.0116V18.2696H15.4735V10.4818H12.9969V20.5029Z" fill="white"/>
</g>
<defs>
<clipPath id="clip0_1967_20817">
<rect width="32" height="32" fill="white"/>
</clipPath>
</defs>
</svg>
