<svg width="32" height="32" viewBox="0 0 32 32" fill="none" xmlns="http://www.w3.org/2000/svg">
<path d="M1.5 1.5H30.5V30.5H1.5V1.5Z" fill="#0E141B"/>
<path fill-rule="evenodd" clip-rule="evenodd" d="M16 23.25C20.004 23.25 23.25 20.0041 23.25 16C23.25 11.996 20.004 8.75004 16 8.75004C11.9959 8.75004 8.74998 11.996 8.74998 16C8.74998 20.0041 11.9959 23.25 16 23.25ZM16 25.6667C21.3387 25.6667 25.6666 21.3388 25.6666 16C25.6666 10.6613 21.3387 6.33337 16 6.33337C10.6612 6.33337 6.33331 10.6613 6.33331 16C6.33331 21.3388 10.6612 25.6667 16 25.6667Z" fill="white"/>
</svg>
