<svg width="32" height="32" viewBox="0 0 32 32" fill="none" xmlns="http://www.w3.org/2000/svg">
<path d="M25.6298 21.626L25.6298 18.6687L25.6298 14.9721L25.6298 12.0148L30.115 16.8204L25.6298 21.626Z" fill="white"/>
<path fill-rule="evenodd" clip-rule="evenodd" d="M24.3483 24.8772L24.3483 8.76372L31.8679 16.8205L24.3483 24.8772ZM25.6298 21.626L30.115 16.8205L25.6298 12.0149L25.6298 21.626Z" fill="#0E141B"/>
<path d="M23.0668 16.4999C23.0668 22.5158 17.9031 27.3926 11.5334 27.3926C5.16367 27.3926 0 22.5158 0 16.4999C0 10.4841 5.16367 5.6073 11.5334 5.6073C17.9031 5.6073 23.0668 10.4841 23.0668 16.4999Z" fill="#0E141B"/>
<path fill-rule="evenodd" clip-rule="evenodd" d="M20.1329 15.4882C20.1329 19.4737 16.4219 22.9411 11.5335 22.9411C6.64504 22.9411 2.93401 19.4737 2.93401 15.4882C2.93401 11.5028 6.64504 8.03539 11.5335 8.03539C16.4219 8.03539 20.1329 11.5028 20.1329 15.4882ZM21.2795 15.4882C21.2795 20.2376 16.9161 24.0877 11.5335 24.0877C6.15087 24.0877 1.78741 20.2376 1.78741 15.4882C1.78741 10.7389 6.15087 6.88879 11.5335 6.88879C16.9161 6.88879 21.2795 10.7389 21.2795 15.4882ZM12.897 19.2652H14.8783L13.2169 16.6131C13.6434 16.4205 13.9736 16.1384 14.2075 15.7669C14.4483 15.3886 14.5687 14.9207 14.5687 14.3635C14.5687 13.6274 14.321 13.0564 13.8257 12.6505C13.3304 12.2446 12.5667 12.0416 11.5348 12.0416H8.72793V19.2652H10.5132V16.9743H11.3697H11.5245L12.897 19.2652ZM10.5132 15.447V13.5689H11.4522C11.8719 13.5689 12.178 13.6446 12.3707 13.7959C12.5633 13.9404 12.6596 14.1606 12.6596 14.4564C12.6596 14.7797 12.553 15.0274 12.3397 15.1994C12.1333 15.3645 11.8478 15.447 11.4832 15.447H10.5132Z" fill="white"/>
</svg>
