<svg width="64" height="64" viewBox="0 0 64 64" fill="none" xmlns="http://www.w3.org/2000/svg">
<path d="M64 35.5556C64 15.9188 48.0812 0 28.4444 0H14.2222C6.36751 0 0 6.36751 0 14.2222V64H64V35.5556Z" fill="black"/>
<path d="M29.1696 30.5155L20.2896 42.2755H29.5162V46.2222H14.5829V43.1555L23.4096 31.5022H15.0096V27.5555H29.1696V30.5155Z" fill="white"/>
<path d="M49.9055 46.2222H44.7855L41.2388 40.3022H40.8388H38.6255V46.2222H34.0121V27.5555H41.2655C43.9321 27.5555 45.9055 28.08 47.1855 29.1289C48.4655 30.1778 49.1055 31.6533 49.1055 33.5555C49.1055 34.9955 48.7943 36.2044 48.1721 37.1822C47.5677 38.1422 46.7143 38.8711 45.6121 39.3689L49.9055 46.2222ZM38.6255 31.5022V36.3555H41.1321C42.0743 36.3555 42.8121 36.1422 43.3455 35.7155C43.8966 35.2711 44.1721 34.6311 44.1721 33.7955C44.1721 33.0311 43.9232 32.4622 43.4255 32.0889C42.9277 31.6978 42.1366 31.5022 41.0521 31.5022H38.6255Z" fill="white"/>
</svg>
