<svg width="32" height="32" viewBox="0 0 32 32" fill="none" xmlns="http://www.w3.org/2000/svg">
<g clip-path="url(#clip0_1967_20857)">
<path d="M11.3292 25.356L14.2035 25.356L17.7965 25.356L20.6709 25.356L16 30.0269L11.3292 25.356Z" fill="white"/>
<path fill-rule="evenodd" clip-rule="evenodd" d="M8.1073 24.0215L23.8927 24.0215L16 31.9142L8.1073 24.0215ZM11.3291 25.356L16 30.0269L20.6708 25.356L11.3291 25.356Z" fill="#0E141B"/>
<path d="M28.0108 11.3435C28.0108 17.6083 22.6334 22.687 16 22.687C9.36666 22.687 3.98926 17.6083 3.98926 11.3435C3.98926 5.07866 9.36666 0 16 0C22.6334 0 28.0108 5.07866 28.0108 11.3435Z" fill="#0E141B"/>
<path fill-rule="evenodd" clip-rule="evenodd" d="M24.9554 10.2899C24.9554 14.4403 21.0908 18.0513 16 18.0513C10.9093 18.0513 7.04464 14.4403 7.04464 10.2899C7.04464 6.13952 10.9093 2.52859 16 2.52859C21.0908 2.52859 24.9554 6.13952 24.9554 10.2899ZM26.1495 10.2899C26.1495 15.2358 21.6054 19.2453 16 19.2453C10.3946 19.2453 5.85059 15.2358 5.85059 10.2899C5.85059 5.344 10.3946 1.33453 16 1.33453C21.6054 1.33453 26.1495 5.344 26.1495 10.2899ZM13.7456 14.2232H19.0114V12.5467H15.6048V6.70067H13.7456V14.2232Z" fill="white"/>
</g>
<defs>
<clipPath id="clip0_1967_20857">
<rect width="32" height="32" fill="white"/>
</clipPath>
</defs>
</svg>
