<svg width="64" height="64" viewBox="0 0 64 64" fill="none" xmlns="http://www.w3.org/2000/svg">
<g clip-path="url(#clip0_1967:20836)">
<path d="M41.3668 13.1516L35.6026 13.1516L28.3973 13.1516L22.6331 13.1516L31.9999 3.78479L41.3668 13.1516Z" fill="white"/>
<path fill-rule="evenodd" clip-rule="evenodd" d="M47.8278 15.8278L16.1722 15.8278L32 -7.30029e-05L47.8278 15.8278ZM41.3668 13.1515L32 3.7847L22.6332 13.1515L41.3668 13.1515Z" fill="black"/>
<path d="M56.0861 41.252C56.0861 53.8154 45.3024 64 32 64C18.6976 64 7.91388 53.8154 7.91388 41.252C7.91388 28.6887 18.6976 18.504 32 18.504C45.3024 18.504 56.0861 28.6887 56.0861 41.252Z" fill="black"/>
<path fill-rule="evenodd" clip-rule="evenodd" d="M49.959 39.1391C49.959 47.4623 42.209 54.7036 32.0001 54.7036C21.7912 54.7036 14.0411 47.4623 14.0411 39.1391C14.0411 30.816 21.7912 23.5747 32.0001 23.5747C42.209 23.5747 49.959 30.816 49.959 39.1391ZM52.3536 39.1391C52.3536 49.0576 43.241 57.0981 32.0001 57.0981C20.7592 57.0981 11.6466 49.0576 11.6466 39.1391C11.6466 29.2207 20.7592 21.1802 32.0001 21.1802C43.241 21.1802 52.3536 29.2207 52.3536 39.1391ZM34.8476 47.0268H38.9853L35.5156 41.4883C36.4064 41.086 37.096 40.497 37.5845 39.7211C38.0874 38.9309 38.3388 37.954 38.3388 36.7902C38.3388 35.2529 37.8216 34.0605 36.7871 33.2128C35.7527 32.3651 34.1579 31.9413 32.0029 31.9413H26.1411V47.0268H29.8693V42.2426H31.6581H31.9813L34.8476 47.0268ZM29.8693 39.0531V35.1308H31.8305C32.7069 35.1308 33.3462 35.2889 33.7485 35.6049C34.1508 35.9066 34.3519 36.3664 34.3519 36.9842C34.3519 37.6594 34.1292 38.1767 33.6838 38.5358C33.2528 38.8806 32.6566 39.0531 31.8951 39.0531H29.8693Z" fill="white"/>
</g>
<defs>
<clipPath id="clip0_1967:20836">
<rect width="64" height="64" fill="white"/>
</clipPath>
</defs>
</svg>
