<svg width="32" height="32" viewBox="0 0 32 32" fill="none" xmlns="http://www.w3.org/2000/svg">
<path fill-rule="evenodd" clip-rule="evenodd" d="M14.2223 6.10352e-05C24.0406 6.10352e-05 32 7.95941 32 17.7778V31.9999L2.08295 2.08283C3.3698 0.795987 5.14757 6.10352e-05 7.11123 6.10352e-05H14.2223Z" fill="#0E141B"/>
<path opacity="0.5" fill-rule="evenodd" clip-rule="evenodd" d="M31.9999 31.9999L2.08285 2.08289C0.795994 3.36974 6.10352e-05 5.14751 6.10352e-05 7.11117V31.9999H31.9999Z" fill="#67707B"/>
<path d="M14.5847 15.0357L10.1448 20.9156H14.7581V22.8889H7.29144V21.3556L11.7048 15.529H7.50478V13.5557H14.5847V15.0357Z" fill="white"/>
<path d="M24.9526 22.8889H22.3926L20.6193 19.929H20.4193H19.3127V22.8889H17.006V13.5557H20.6327C21.966 13.5557 22.9526 13.8179 23.5926 14.3423C24.2326 14.8668 24.5526 15.6045 24.5526 16.5556C24.5526 17.2756 24.3971 17.8801 24.086 18.369C23.7838 18.849 23.3571 19.2134 22.806 19.4623L24.9526 22.8889ZM19.3127 15.529V17.9556H20.566C21.0371 17.9556 21.406 17.849 21.6727 17.6356C21.9482 17.4134 22.086 17.0934 22.086 16.6756C22.086 16.2934 21.9615 16.009 21.7127 15.8223C21.4638 15.6268 21.0682 15.529 20.526 15.529H19.3127Z" fill="white"/>
</svg>
