<svg width="32" height="32" viewBox="0 0 32 32" fill="none" xmlns="http://www.w3.org/2000/svg">
<g clip-path="url(#clip0_1967_20823)">
<path d="M32 16.5C32 24.8457 24.8366 31.6111 16 31.6111C7.16344 31.6111 0 24.8457 0 16.5C0 8.15439 7.16344 1.38892 16 1.38892C24.8366 1.38892 32 8.15439 32 16.5Z" fill="#0E141B"/>
<path fill-rule="evenodd" clip-rule="evenodd" d="M27.9299 15.0965C27.9299 20.6254 22.7817 25.4356 16.0001 25.4356C9.21849 25.4356 4.07026 20.6254 4.07026 15.0965C4.07026 9.56753 9.21849 4.75727 16.0001 4.75727C22.7817 4.75727 27.9299 9.56753 27.9299 15.0965ZM29.5205 15.0965C29.5205 21.6851 23.4672 27.0263 16.0001 27.0263C8.53293 27.0263 2.47961 21.6851 2.47961 15.0965C2.47961 8.50779 8.53293 3.16663 16.0001 3.16663C23.4672 3.16663 29.5205 8.50779 29.5205 15.0965ZM17.8916 20.5028H20.6402L18.3354 16.8236C18.9271 16.5564 19.3852 16.1651 19.7097 15.6497C20.0437 15.1248 20.2108 14.4758 20.2108 13.7028C20.2108 12.6816 19.8672 11.8894 19.18 11.3263C18.4929 10.7633 17.4335 10.4817 16.0019 10.4817H12.108V20.5028H14.5847V17.3247H15.7729H15.9876L17.8916 20.5028ZM14.5847 15.2059V12.6004H15.8874C16.4696 12.6004 16.8943 12.7054 17.1615 12.9154C17.4287 13.1158 17.5623 13.4212 17.5623 13.8316C17.5623 14.2802 17.4144 14.6237 17.1185 14.8623C16.8322 15.0914 16.4362 15.2059 15.9303 15.2059H14.5847Z" fill="white"/>
</g>
<defs>
<clipPath id="clip0_1967_20823">
<rect width="32" height="32" fill="white"/>
</clipPath>
</defs>
</svg>
