<svg width="32" height="32" viewBox="0 0 32 32" fill="none" xmlns="http://www.w3.org/2000/svg">
<path d="M6.37024 21.626L6.37024 18.6687L6.37024 14.9721L6.37024 12.0148L1.88503 16.8204L6.37024 21.626Z" fill="white"/>
<path fill-rule="evenodd" clip-rule="evenodd" d="M7.65173 24.8772L7.65173 8.76372L0.13211 16.8205L7.65173 24.8772ZM6.37025 21.626L1.88504 16.8205L6.37025 12.0149L6.37025 21.626Z" fill="#0E141B"/>
<path d="M32 16.4999C32 22.5158 26.8363 27.3926 20.4666 27.3926C14.0969 27.3926 8.93323 22.5158 8.93323 16.4999C8.93323 10.4841 14.0969 5.6073 20.4666 5.6073C26.8363 5.6073 32 10.4841 32 16.4999Z" fill="#0E141B"/>
<path fill-rule="evenodd" clip-rule="evenodd" d="M20.4667 22.9411C25.3551 22.9411 29.0661 19.4737 29.0661 15.4882C29.0661 11.5028 25.3551 8.03539 20.4667 8.03539C15.5783 8.03539 11.8672 11.5028 11.8672 15.4882C11.8672 19.4737 15.5783 22.9411 20.4667 22.9411ZM20.4667 24.0877C25.8493 24.0877 30.2127 20.2376 30.2127 15.4882C30.2127 10.7389 25.8493 6.88879 20.4667 6.88879C15.0841 6.88879 10.7206 10.7389 10.7206 15.4882C10.7206 20.2376 15.0841 24.0877 20.4667 24.0877Z" fill="white"/>
<path d="M23.8115 19.2653H21.8301L20.4577 16.9744H20.3029H19.4464V19.2653H17.6611V12.0417H20.468C21.4999 12.0417 22.2636 12.2447 22.7589 12.6506C23.2542 13.0565 23.5019 13.6275 23.5019 14.3636C23.5019 14.9208 23.3815 15.3887 23.1407 15.767C22.9068 16.1385 22.5766 16.4206 22.15 16.6132L23.8115 19.2653ZM19.4464 13.569V15.4471H20.4164C20.781 15.4471 21.0665 15.3646 21.2729 15.1995C21.4862 15.0275 21.5928 14.7798 21.5928 14.4565C21.5928 14.1607 21.4965 13.9405 21.3039 13.796C21.1112 13.6447 20.8051 13.569 20.3854 13.569H19.4464Z" fill="white"/>
</svg>
