<svg width="32" height="32" viewBox="0 0 32 32" fill="none" xmlns="http://www.w3.org/2000/svg">
<g clip-path="url(#clip0_1967_20836)">
<path d="M20.6834 6.57581L17.8013 6.57581L14.1987 6.57581L11.3166 6.57581L16 1.89239L20.6834 6.57581Z" fill="white"/>
<path fill-rule="evenodd" clip-rule="evenodd" d="M23.9139 7.91394L8.08605 7.91394L16 2.45337e-05L23.9139 7.91394ZM20.6834 6.57582L16 1.89241L11.3166 6.57582L20.6834 6.57582Z" fill="#0E141B"/>
<path d="M28.0431 20.6261C28.0431 26.9078 22.6512 32.0001 16 32.0001C9.34883 32.0001 3.95697 26.9078 3.95697 20.6261C3.95697 14.3444 9.34883 9.25208 16 9.25208C22.6512 9.25208 28.0431 14.3444 28.0431 20.6261Z" fill="#0E141B"/>
<path fill-rule="evenodd" clip-rule="evenodd" d="M24.9795 19.5696C24.9795 23.7311 21.1045 27.3518 16 27.3518C10.8956 27.3518 7.02057 23.7311 7.02057 19.5696C7.02057 15.408 10.8956 11.7874 16 11.7874C21.1045 11.7874 24.9795 15.408 24.9795 19.5696ZM26.1768 19.5696C26.1768 24.5288 21.6205 28.549 16 28.549C10.3796 28.549 5.8233 24.5288 5.8233 19.5696C5.8233 14.6103 10.3796 10.5901 16 10.5901C21.6205 10.5901 26.1768 14.6103 26.1768 19.5696ZM17.4238 23.5134H19.4927L17.7578 20.7441C18.2032 20.543 18.548 20.2485 18.7923 19.8606C19.0437 19.4655 19.1694 18.977 19.1694 18.3951C19.1694 17.6265 18.9108 17.0302 18.3936 16.6064C17.8763 16.1826 17.079 15.9707 16.0014 15.9707H13.0705V23.5134H14.9347V21.1213H15.829H15.9907L17.4238 23.5134ZM14.9347 19.5265V17.5654H15.9152C16.3534 17.5654 16.6731 17.6444 16.8742 17.8025C17.0754 17.9533 17.1759 18.1832 17.1759 18.4921C17.1759 18.8297 17.0646 19.0883 16.8419 19.2679C16.6264 19.4403 16.3283 19.5265 15.9476 19.5265H14.9347Z" fill="white"/>
</g>
<defs>
<clipPath id="clip0_1967_20836">
<rect width="32" height="32" fill="white"/>
</clipPath>
</defs>
</svg>
