<svg width="32" height="32" viewBox="0 0 32 32" fill="none" xmlns="http://www.w3.org/2000/svg">
<path d="M32 12C32 9.23858 29.7614 7 27 7H0V24H27C29.7614 24 32 21.7614 32 19V12Z" fill="#0E141B"/>
<path d="M10.5676 10.1035C11.2732 10.1035 11.9306 10.205 12.5396 10.408C13.1486 10.6013 13.6512 10.843 14.0476 11.133L12.9891 13.0035C12.6411 12.7522 12.2447 12.5492 11.8001 12.3945C11.3651 12.2398 10.9591 12.1625 10.5821 12.1625C10.1857 12.1625 9.87639 12.2447 9.65406 12.409C9.43173 12.5637 9.32056 12.7763 9.32056 13.047C9.32056 13.337 9.46073 13.569 9.74106 13.743C10.0311 13.9073 10.4806 14.091 11.0896 14.294C11.7566 14.526 12.2931 14.7435 12.6991 14.9465C13.1147 15.1495 13.4772 15.454 13.7866 15.86C14.0959 16.2563 14.2506 16.7735 14.2506 17.4115C14.2506 18.0882 14.0717 18.673 13.7141 19.166C13.3661 19.659 12.8779 20.036 12.2496 20.297C11.6309 20.5483 10.9204 20.674 10.1181 20.674C9.47039 20.674 8.81789 20.5918 8.16056 20.4275C7.51289 20.2632 6.93773 20.0312 6.43506 19.7315L7.18906 17.6435C8.25239 18.1945 9.24323 18.47 10.1616 18.47C10.6159 18.47 10.9591 18.383 11.1911 18.209C11.4231 18.035 11.5391 17.8078 11.5391 17.5275C11.5391 17.2472 11.4086 17.0297 11.1476 16.875C10.8866 16.7107 10.4806 16.5463 9.92956 16.382C9.21423 16.1597 8.64389 15.9518 8.21856 15.7585C7.79323 15.5555 7.42589 15.251 7.11656 14.845C6.80723 14.4293 6.65256 13.8832 6.65256 13.2065C6.65256 12.5685 6.81689 12.0175 7.14556 11.5535C7.47423 11.0798 7.93339 10.7222 8.52306 10.4805C9.11273 10.2292 9.79423 10.1035 10.5676 10.1035Z" fill="white"/>
<path d="M24.3649 20.5H21.5809L19.6524 17.281H19.4349H18.2314V20.5H15.7229V10.35H19.6669C21.1169 10.35 22.1899 10.6352 22.8859 11.2055C23.5819 11.7758 23.9299 12.5782 23.9299 13.6125C23.9299 14.3955 23.7607 15.0528 23.4224 15.5845C23.0937 16.1065 22.6297 16.5028 22.0304 16.7735L24.3649 20.5ZM18.2314 12.496V15.135H19.5944C20.1067 15.135 20.5079 15.019 20.7979 14.787C21.0975 14.5453 21.2474 14.1973 21.2474 13.743C21.2474 13.3273 21.112 13.018 20.8414 12.815C20.5707 12.6023 20.1405 12.496 19.5509 12.496H18.2314Z" fill="white"/>
</svg>
