<svg width="64" height="64" viewBox="0 0 64 64" fill="none" xmlns="http://www.w3.org/2000/svg">
<g clip-path="url(#clip0_1967:20925)">
<path d="M64.0001 64.0702C64.0001 64.0702 43.5729 64.0702 28.0702 64.0702C12.5675 64.0702 0 51.5027 0 36C0 20.4973 12.5675 7.92981 28.0702 7.92981C35.7802 7.92981 42.7642 11.0382 47.8373 16.0702C50.6718 18.8817 64.0001 31.5088 64.0001 31.5088V64.0702Z" fill="black"/>
<path d="M20.9187 46.9162V31.6335H26.5733C28.5528 31.6335 30.0665 32.0847 31.1144 32.9872C32.1769 33.875 32.7082 35.0831 32.7082 36.6113C32.7082 37.6302 32.4753 38.5617 32.0095 39.4059C31.5438 40.2355 30.8452 40.8978 29.9136 41.3926C28.9821 41.8875 27.8614 42.1349 26.5515 42.1349H24.6957V46.9162H20.9187ZM26.5078 38.9037C27.1919 38.9037 27.7231 38.7145 28.1016 38.3361C28.48 37.9577 28.6692 37.441 28.6692 36.786C28.6692 36.1456 28.48 35.6653 28.1016 35.345C27.7231 35.0248 27.1773 34.8647 26.4641 34.8647H24.6957V38.9037H26.5078Z" fill="white"/>
<path d="M43.8287 31.6335V43.685H46.6887V46.9162H36.4493V43.685H39.9862V35.8035L36.9515 37.0043L35.7507 34.1879L40.9031 31.6335H43.8287Z" fill="white"/>
</g>
<defs>
<clipPath id="clip0_1967:20925">
<rect width="64" height="64" fill="white"/>
</clipPath>
</defs>
</svg>
