<svg width="32" height="32" viewBox="0 0 32 32" fill="none" xmlns="http://www.w3.org/2000/svg">
<g clip-path="url(#clip0_1967_20925)">
<path d="M32 32.035C32 32.035 21.7865 32.035 14.0351 32.035C6.28373 32.035 0 25.7513 0 17.9999C0 10.2486 6.28373 3.96484 14.0351 3.96484C17.8901 3.96484 21.3821 5.51904 23.9186 8.03502C25.3359 9.44077 32 15.7543 32 15.7543V32.035Z" fill="black"/>
<path d="M10.4595 23.4581V15.8168H13.2868C14.2765 15.8168 15.0334 16.0424 15.5573 16.4936C16.0886 16.9375 16.3542 17.5415 16.3542 18.3057C16.3542 18.8151 16.2378 19.2808 16.0049 19.7029C15.772 20.1178 15.4227 20.4489 14.9569 20.6963C14.4912 20.9437 13.9308 21.0675 13.2758 21.0675H12.348V23.4581H10.4595ZM13.254 19.4519C13.5961 19.4519 13.8617 19.3573 14.0509 19.168C14.2401 18.9788 14.3347 18.7205 14.3347 18.393C14.3347 18.0728 14.2401 17.8326 14.0509 17.6725C13.8617 17.5124 13.5888 17.4324 13.2322 17.4324H12.348V19.4519H13.254Z" fill="white"/>
<path d="M21.9145 15.8168V21.8425H23.3445V23.4581H18.2248V21.8425H19.9932V17.9018L18.4759 18.5022L17.8755 17.094L20.4517 15.8168H21.9145Z" fill="white"/>
</g>
<defs>
<clipPath id="clip0_1967_20925">
<rect width="32" height="32" fill="white"/>
</clipPath>
</defs>
</svg>
