<svg width="32" height="32" viewBox="0 0 32 32" fill="none" xmlns="http://www.w3.org/2000/svg">
<g clip-path="url(#clip0_1967_20988)">
<path fill-rule="evenodd" clip-rule="evenodd" d="M1 12.8C1 19.003 2.8036 23.7029 5.53676 26.8999L12.9151 19.5215L11.3517 16.9118H11.1661H10.1396V19.6574H8V11H11.364C12.6008 11 13.516 11.2432 14.1097 11.7297C14.7033 12.2162 15.0002 12.9005 15.0002 13.7827C15.0002 14.4506 14.8559 15.0113 14.5673 15.4648C14.2869 15.91 13.8912 16.2481 13.38 16.4789L14.3728 18.0638L19.2437 13.1929V12.8304H16.7207V11H21.4367L29.5747 2.86198C29.0923 1.26725 27.6947 0 25.9154 0H4.58742C2.60614 0 1 1.60614 1 3.58742V12.8ZM10.1396 15.0814V12.8304H11.2651C11.768 12.8304 12.135 12.9211 12.3658 13.1025C12.5967 13.2757 12.7121 13.5395 12.7121 13.8941C12.7121 14.2816 12.5843 14.5784 12.3287 14.7845C12.0814 14.9824 11.7392 15.0814 11.3022 15.0814H10.1396Z" fill="black"/>
<path fill-rule="evenodd" clip-rule="evenodd" d="M12.9151 19.5216L5.53662 26.9C8.44341 30.3 12.4016 32 16.3598 32H27.4796C30.0757 32 31.8468 29.3133 30.953 26.876C29.5271 22.9879 27.8798 17.7103 27.8798 14.08C27.8798 11.1618 28.6781 7.97753 29.5468 5.37649C29.828 4.53465 29.8151 3.65764 29.5745 2.86212L21.4366 11H23.9063V12.8304H21.3832V19.6574H19.2436V13.193L14.3728 18.0639L15.3711 19.6574H12.9965L12.9151 19.5216Z" fill="#67707B"/>
<path d="M15.3712 19.6574H12.9966L11.3517 16.9118H11.1661H10.1396V19.6574H8V11H11.364C12.6008 11 13.516 11.2432 14.1097 11.7297C14.7033 12.2162 15.0001 12.9005 15.0001 13.7827C15.0001 14.4506 14.8558 15.0113 14.5673 15.4648C14.2869 15.91 13.8912 16.248 13.38 16.4789L15.3712 19.6574ZM10.1396 12.8304V15.0814H11.3022C11.7392 15.0814 12.0814 14.9824 12.3287 14.7845C12.5843 14.5784 12.7121 14.2816 12.7121 13.894C12.7121 13.5395 12.5967 13.2757 12.3658 13.1025C12.1349 12.9211 11.768 12.8304 11.2651 12.8304H10.1396Z" fill="white"/>
<path d="M21.3833 19.6574H19.2437V12.8304H16.7207V11H23.9063V12.8304H21.3833V19.6574Z" fill="white"/>
</g>
<defs>
<clipPath id="clip0_1967_20988">
<rect width="32" height="32" fill="white"/>
</clipPath>
</defs>
</svg>
