<svg width="32" height="32" viewBox="0 0 32 32" fill="none" xmlns="http://www.w3.org/2000/svg">
<g clip-path="url(#clip0_1967_20965)">
<path d="M3.85777 0H27.7825C29.712 0 31.0178 2.05458 30.3442 3.86268C29.3001 6.66539 28.1422 10.5657 28.1422 14.08C28.1422 18.1794 30.2428 24.3793 31.753 28.307C32.4271 30.0602 31.1466 32 29.2683 32H16.6222C8.94221 32 1.26221 25.6 1.26221 12.8V2.59556C1.26221 1.16207 2.42428 0 3.85777 0Z" fill="black"/>
<path d="M15.4135 19.8523H13.0241L11.369 17.0896H11.1824H10.1495V19.8523H7.99658V11.1412H11.3815C12.6259 11.1412 13.5468 11.3859 14.1441 11.8754C14.7415 12.3649 15.0401 13.0535 15.0401 13.9412C15.0401 14.6132 14.895 15.1773 14.6046 15.6336C14.3225 16.0816 13.9243 16.4218 13.4099 16.6541L15.4135 19.8523ZM10.1495 12.983V15.2478H11.3192C11.759 15.2478 12.1033 15.1483 12.3521 14.9492C12.6093 14.7418 12.7379 14.4431 12.7379 14.0532C12.7379 13.6964 12.6218 13.431 12.3895 13.2567C12.1572 13.0742 11.788 12.983 11.2819 12.983H10.1495Z" fill="white"/>
<path d="M21.4629 19.8523H19.31V12.983H16.7714V11.1412H24.0016V12.983H21.4629V19.8523Z" fill="white"/>
</g>
<defs>
<clipPath id="clip0_1967_20965">
<rect width="32" height="32" fill="white"/>
</clipPath>
</defs>
</svg>
