<svg width="64" height="64" viewBox="0 0 64 64" fill="none" xmlns="http://www.w3.org/2000/svg">
<g clip-path="url(#clip0_1967:20965)">
<path d="M58.679 0H10.8295C6.97053 0 4.35896 4.10917 5.70614 7.72536C7.7944 13.3308 10.1101 21.1313 10.1101 28.16C10.1101 36.3587 5.90894 48.7586 2.8885 56.6141C1.5403 60.1204 4.10141 64 7.858 64H33.1501C48.5101 64 63.8701 51.2 63.8701 25.6V5.19111C63.8701 2.32414 61.546 0 58.679 0Z" fill="black"/>
<path d="M34.8272 39.7046H30.0485L26.7383 34.1793H26.365H24.2992V39.7046H19.9934V22.2824H26.7632C29.2521 22.2824 31.0939 22.7719 32.2885 23.7509C33.4832 24.7298 34.0805 26.107 34.0805 27.8824C34.0805 29.2264 33.7902 30.3547 33.2094 31.2673C32.6453 32.1633 31.8488 32.8436 30.8201 33.3082L34.8272 39.7046ZM24.2992 25.966V30.4957H26.6387C27.5182 30.4957 28.2067 30.2966 28.7045 29.8984C29.2189 29.4836 29.4761 28.8863 29.4761 28.1064C29.4761 27.3929 29.2438 26.862 28.7792 26.5135C28.3146 26.1485 27.5762 25.966 26.5641 25.966H24.2992Z" fill="white"/>
<path d="M46.9261 39.7046H42.6203V25.966H37.543V22.2824H52.0034V25.966H46.9261V39.7046Z" fill="white"/>
</g>
<defs>
<clipPath id="clip0_1967:20965">
<rect width="64" height="64" fill="white"/>
</clipPath>
</defs>
</svg>
