<svg width="64" height="64" viewBox="0 0 64 64" fill="none" xmlns="http://www.w3.org/2000/svg">
<circle cx="32" cy="32" r="29.9995" fill="white"/>
<path d="M29.0132 61.8754C24.3943 61.4357 19.7154 59.7767 15.6906 57.1517C12.3199 54.953 11.559 54.0536 11.559 52.248C11.559 48.6303 15.5438 42.2875 22.3519 35.0653C26.2232 30.9612 31.6096 26.1508 32.1903 26.2774C33.325 26.5306 42.3824 35.3651 45.7731 39.5159C51.1395 46.0985 53.6091 51.4818 52.3543 53.8804C51.3998 55.7059 45.4928 59.2704 41.1543 60.6362C37.5767 61.7688 32.8778 62.2485 29.0132 61.8754ZM2.00049 32.5209C2.00049 17.7814 9.92373 11.7331 9.92373 11.7331C11.4322 10.1674 11.5657 10.1274 13.4012 10.747C15.6305 11.4999 18.0067 13.1389 21.6978 16.4768L23.8537 18.4223L22.6789 19.868C17.2124 26.5706 11.4522 36.0714 9.28297 41.9477C8.10156 45.1391 7.62766 48.3504 8.13493 49.683C8.25768 50.0073 8.26002 50.2604 8.20421 50.2551C8.20421 50.2551 2.00049 42.8938 2.00049 32.5209ZM56.1388 49.2166C56.4125 47.8707 56.0654 45.3923 55.2444 42.8938C53.4757 37.4838 47.5419 27.41 42.0954 20.5676L40.38 18.4156L42.2356 16.71C44.6585 14.4847 46.3405 13.1522 48.156 12.0262C49.591 11.1334 51.6335 10.3473 52.5145 10.3473C53.0552 10.3473 54.9641 12.326 56.5059 14.4914C58.8954 17.836 60.6509 21.9001 61.5386 26.1242C62.1126 28.8558 62.1593 34.6989 61.632 37.4172C61.1982 39.6492 60.2771 42.5474 59.3827 44.5195C58.7086 45.9919 57.0399 48.8501 56.3057 49.7829C55.9319 50.2493 55.9319 50.2493 56.1388 49.2166ZM29.5071 9.32122C26.9907 8.04201 23.1128 6.67619 20.9702 6.30308C20.216 6.17649 18.9411 6.10321 18.1202 6.14318C16.3514 6.2298 16.4315 6.14318 19.2682 4.80401C21.6243 3.69136 23.5934 3.03843 26.2632 2.47878C29.2668 1.84584 34.9068 1.83917 37.8637 2.46545C41.0542 3.13837 44.812 4.53751 46.9278 5.8367L47.5553 6.22313L46.1135 6.14984C43.2435 6.00327 39.0651 7.16255 34.5731 9.34787C33.2182 10.0075 32.0434 10.5338 31.9567 10.5138C31.8766 10.5005 30.7686 9.96082 29.5071 9.32122Z" fill="black"/>
</svg>
