<svg width="32" height="32" viewBox="0 0 32 32" fill="none" xmlns="http://www.w3.org/2000/svg">
<path d="M30.9998 16C30.9998 24.2841 24.2841 30.9998 16 30.9998C7.71586 30.9998 1.00024 24.2841 1.00024 16C1.00024 7.71586 7.71586 1.00024 16 1.00024C24.2841 1.00024 30.9998 7.71586 30.9998 16Z" fill="white"/>
<path d="M14.5066 30.9377C12.1972 30.7178 9.8577 29.8884 7.8453 28.5758C6.15996 27.4765 5.77951 27.0268 5.77951 26.124C5.77951 24.3151 7.77188 21.1438 11.1759 17.5327C13.1116 15.4806 15.8048 13.0754 16.0951 13.1387C16.6625 13.2653 21.1912 17.6826 22.8866 19.758C25.5698 23.0493 26.8046 25.7409 26.1772 26.9402C25.6999 27.853 22.7464 29.6352 20.5772 30.3181C18.7883 30.8844 16.4389 31.1243 14.5066 30.9377ZM1.00024 16.2604C1.00024 8.8907 4.96187 5.86653 4.96187 5.86653C5.7161 5.08368 5.78284 5.06369 6.7006 5.3735C7.81527 5.74994 9.00335 6.56943 10.8489 8.2384L11.9268 9.21113L11.3395 9.93402C8.60621 13.2853 5.72611 18.0357 4.64148 20.9739C4.05078 22.5695 3.81383 24.1752 4.06747 24.8415C4.12884 25.0036 4.13001 25.1302 4.10211 25.1276C4.10211 25.1276 1.00024 21.4469 1.00024 16.2604ZM28.0694 24.6083C28.2062 23.9354 28.0327 22.6961 27.6222 21.4469C26.7378 18.7419 23.771 13.705 21.0477 10.2838L20.19 9.2078L21.1178 8.35499C22.3292 7.24235 23.1702 6.57609 24.078 6.01311C24.7955 5.56672 25.8167 5.17363 26.2573 5.17363C26.5276 5.17363 27.482 6.16302 28.253 7.24568C29.4477 8.91798 30.3254 10.9501 30.7693 13.0621C31.0563 14.4279 31.0797 17.3494 30.816 18.7086C30.5991 19.8246 30.1385 21.2737 29.6913 22.2597C29.3543 22.996 28.52 24.4251 28.1528 24.8914C27.966 25.1246 27.966 25.1246 28.0694 24.6083ZM14.7535 4.66061C13.4954 4.021 11.5564 3.33809 10.4851 3.15154C10.108 3.08825 9.47057 3.0516 9.06008 3.07159C8.1757 3.1149 8.21574 3.07159 9.6341 2.402C10.8122 1.84568 11.7967 1.51922 13.1316 1.23939C14.6334 0.922918 17.4534 0.919587 18.9319 1.23273C20.5271 1.56919 22.406 2.26875 23.4639 2.91835L23.7776 3.11157L23.0568 3.07492C21.6217 3.00163 19.5326 3.58128 17.2866 4.67393C16.6091 5.00373 16.0217 5.2669 15.9783 5.25691C15.9383 5.25025 15.3843 4.98041 14.7535 4.66061Z" fill="black"/>
</svg>
