<svg width="64" height="64" viewBox="0 0 64 64" fill="none" xmlns="http://www.w3.org/2000/svg">
<g clip-path="url(#clip0_1967:20988)">
<path fill-rule="evenodd" clip-rule="evenodd" d="M40.8209 22.0529L61.148 1.72589C60.2031 0.666834 58.8279 0 57.297 0H8.86998C5.03479 0 2.43999 4.08398 3.78322 7.67625C5.89895 13.3344 8.26408 21.2546 8.26408 28.3863C8.26408 36.6877 3.99129 49.262 0.943773 57.1746C0.349009 58.7189 0.5179 60.3362 1.21545 61.6584L26.8204 36.0534L25.5162 33.8765H25.1452H23.0922V39.3677H18.8129V22.0529H25.541C28.0145 22.0529 29.8449 22.5394 31.0322 23.5123C32.2195 24.4852 32.8132 25.8539 32.8132 27.6184C32.8132 28.8841 32.5541 29.9573 32.0359 30.838L37.1601 25.7138H36.2543V22.0529H40.8209ZM30.1764 32.6974C29.9851 32.811 29.7839 32.9154 29.5729 33.0107L29.6847 33.1892L30.1764 32.6974ZM23.0922 30.2156V25.7138H25.3431C26.349 25.7138 27.0828 25.8951 27.5445 26.2579C28.0063 26.6042 28.2371 27.1319 28.2371 27.841C28.2371 28.616 27.9815 29.2097 27.4703 29.622C26.9756 30.0177 26.2913 30.2156 25.4173 30.2156H23.0922Z" fill="black"/>
<path fill-rule="evenodd" clip-rule="evenodd" d="M26.8203 36.0534L1.19141 61.6823C2.07133 63.3306 3.7751 64.5143 5.84372 64.5143H31.4525C46.9359 64.5143 62.4194 51.6115 62.4194 25.8058V5.15915C62.4194 3.8501 61.9318 2.65493 61.1284 1.7453L40.8207 22.053H50.6255V25.7138H45.5794V39.3678H41.3002V25.7138H37.1599L32.0358 30.8379C32.0071 30.8867 31.9776 30.9349 31.9473 30.9825C31.5023 31.6892 30.9119 32.2609 30.1761 32.6976L29.6845 33.1892L33.5551 39.3678H28.8059L26.8203 36.0534Z" fill="#67707B"/>
<path d="M33.5556 39.6919H28.8064L25.5165 34.2006H25.1455H23.0925V39.6919H18.8132V22.3771H25.5413C28.0148 22.3771 29.8452 22.8635 31.0325 23.8365C32.2198 24.8094 32.8135 26.1781 32.8135 27.9426C32.8135 29.2783 32.5249 30.3996 31.9478 31.3066C31.3871 32.1971 30.5956 32.8732 29.5732 33.3349L33.5556 39.6919ZM23.0925 26.0379V30.5398H25.4176C26.2916 30.5398 26.9759 30.3419 27.4706 29.9461C27.9818 29.5339 28.2374 28.9402 28.2374 28.1652C28.2374 27.4561 28.0066 26.9284 27.5448 26.5821C27.0831 26.2193 26.3493 26.0379 25.3434 26.0379H23.0925Z" fill="white"/>
<path d="M45.5799 39.6919H41.3006V26.0379H36.2546V22.3771H50.6259V26.0379H45.5799V39.6919Z" fill="white"/>
</g>
<defs>
<clipPath id="clip0_1967:20988">
<rect width="64" height="64" fill="white"/>
</clipPath>
</defs>
</svg>
