<svg width="32" height="32" viewBox="0 0 32 32" fill="none" xmlns="http://www.w3.org/2000/svg">
<g clip-path="url(#clip0_1967:20988)">
<path fill-rule="evenodd" clip-rule="evenodd" d="M20.4105 11.0265L30.574 0.862947C30.1016 0.333417 29.414 0 28.6485 0H4.43499C2.5174 0 1.21999 2.04199 1.89161 3.83812C2.94947 6.66722 4.13204 10.6273 4.13204 14.1931C4.13204 18.3439 1.99565 24.631 0.471886 28.5873C0.174505 29.3595 0.25895 30.1681 0.607723 30.8292L13.4102 18.0267L12.7581 16.9382H12.5726H11.5461V19.6839H9.40646V11.0265H12.7705C14.0073 11.0265 14.9225 11.2697 15.5161 11.7561C16.1098 12.2426 16.4066 12.927 16.4066 13.8092C16.4066 14.442 16.277 14.9786 16.0179 15.419L18.58 12.8569H18.1271V11.0265H20.4105ZM15.0882 16.3487C14.9925 16.4055 14.8919 16.4577 14.7864 16.5054L14.8423 16.5946L15.0882 16.3487ZM11.5461 15.1078V12.8569H12.6715C13.1745 12.8569 13.5414 12.9476 13.7723 13.129C14.0031 13.3021 14.1186 13.566 14.1186 13.9205C14.1186 14.308 13.9908 14.6048 13.7352 14.811C13.4878 15.0089 13.1456 15.1078 12.7086 15.1078H11.5461Z" fill="black"/>
<path fill-rule="evenodd" clip-rule="evenodd" d="M13.4101 18.0268L0.595703 30.8412C1.03566 31.6654 1.88755 32.2572 2.92186 32.2572H15.7263C23.468 32.2572 31.2097 25.8058 31.2097 12.9029V2.57961C31.2097 1.92508 30.9659 1.3275 30.5642 0.872681L20.4104 11.0265H25.3127V12.857H22.7897V19.6839H20.6501V12.857H18.5799L16.0179 15.419C16.0036 15.4434 15.9888 15.4675 15.9737 15.4913C15.7512 15.8446 15.456 16.1305 15.0881 16.3488L14.8422 16.5946L16.7776 19.6839H14.403L13.4101 18.0268Z" fill="#67707B"/>
<path d="M16.7779 19.8459H14.4033L12.7584 17.1003H12.5729H11.5464V19.8459H9.40674V11.1885H12.7708C14.0075 11.1885 14.9227 11.4318 15.5164 11.9182C16.11 12.4047 16.4069 13.089 16.4069 13.9713C16.4069 14.6391 16.2626 15.1998 15.974 15.6533C15.6937 16.0985 15.2979 16.4366 14.7867 16.6674L16.7779 19.8459ZM11.5464 13.019V15.2699H12.7089C13.1459 15.2699 13.4881 15.1709 13.7354 14.9731C13.991 14.7669 14.1188 14.4701 14.1188 14.0826C14.1188 13.728 14.0034 13.4642 13.7725 13.2911C13.5417 13.1097 13.1748 13.019 12.6718 13.019H11.5464Z" fill="white"/>
<path d="M22.7901 19.8459H20.6504V13.019H18.1274V11.1885H25.3131V13.019H22.7901V19.8459Z" fill="white"/>
</g>
<defs>
<clipPath id="clip0_1967:20988">
<rect width="32" height="32" fill="white"/>
</clipPath>
</defs>
</svg>
