<svg width="64" height="64" viewBox="0 0 64 64" fill="none" xmlns="http://www.w3.org/2000/svg">
<g clip-path="url(#clip0_1967:20971)">
<path d="M-5.34058e-05 64.0702C-5.34058e-05 64.0702 20.4271 64.0702 35.9298 64.0702C51.4325 64.0702 64 51.5027 64 36C64 20.4973 51.4325 7.92981 35.9298 7.92981C28.2198 7.92981 21.2358 11.0382 16.1627 16.0702C13.3282 18.8817 -5.34058e-05 31.5088 -5.34058e-05 31.5088V64.0702Z" fill="black"/>
<path d="M20.4817 46.9162V31.6336H26.1363C28.1157 31.6336 29.6295 32.0848 30.6774 32.9872C31.7399 33.875 32.2712 35.0831 32.2712 36.6114C32.2712 37.6302 32.0383 38.5617 31.5725 39.4059C31.1068 40.2355 30.4081 40.8978 29.4766 41.3926C28.5451 41.8875 27.4244 42.1349 26.1144 42.1349H24.2587V46.9162H20.4817ZM26.0708 38.9038C26.7549 38.9038 27.2861 38.7145 27.6645 38.3361C28.043 37.9577 28.2322 37.441 28.2322 36.786C28.2322 36.1456 28.043 35.6653 27.6645 35.3451C27.2861 35.0249 26.7403 34.8648 26.0271 34.8648H24.2587V38.9038H26.0708Z" fill="white"/>
<path d="M40.1605 43.6632H47.0158V46.9162H35.3792V43.816L39.7893 40.2355C40.4734 39.6679 40.9901 39.2167 41.3394 38.8819C41.6887 38.5472 41.958 38.2051 42.1472 37.8558C42.351 37.5065 42.4529 37.1208 42.4529 36.6987C42.4529 36.0437 42.1982 35.5488 41.6887 35.2141C41.1939 34.8793 40.5607 34.7119 39.7893 34.7119C39.2071 34.7119 38.6322 34.7993 38.0646 34.9739C37.4969 35.134 36.9875 35.3524 36.5363 35.6289L35.3137 32.8344C36.0123 32.3831 36.791 32.0266 37.6498 31.7646C38.5231 31.5026 39.4546 31.3716 40.4443 31.3716C42.2782 31.3716 43.7555 31.7573 44.8763 32.5287C45.997 33.2856 46.5574 34.4063 46.5574 35.8909C46.5574 36.9097 46.2663 37.8412 45.6841 38.6854C45.1164 39.5151 44.2359 40.4102 43.0424 41.3708L40.1605 43.6632Z" fill="white"/>
</g>
<defs>
<clipPath id="clip0_1967:20971">
<rect width="64" height="64" fill="white"/>
</clipPath>
</defs>
</svg>
