<svg width="32" height="32" viewBox="0 0 32 32" fill="none" xmlns="http://www.w3.org/2000/svg">
<g clip-path="url(#clip0_1967_20971)">
<path d="M-2.67029e-05 32.035C-2.67029e-05 32.035 10.2135 32.035 17.9649 32.035C25.7163 32.035 32 25.7513 32 17.9999C32 10.2486 25.7163 3.96484 17.9649 3.96484C14.1099 3.96484 10.6179 5.51904 8.08136 8.03502C6.66411 9.44077 -2.67029e-05 15.7543 -2.67029e-05 15.7543V32.035Z" fill="black"/>
<path d="M10.2407 23.4581V15.8168H13.068C14.0577 15.8168 14.8146 16.0424 15.3386 16.4936C15.8698 16.9375 16.1355 17.5415 16.1355 18.3057C16.1355 18.8151 16.019 19.2809 15.7861 19.7029C15.5533 20.1178 15.2039 20.4489 14.7382 20.6963C14.2724 20.9438 13.7121 21.0675 13.0571 21.0675H12.1292V23.4581H10.2407ZM13.0353 19.4519C13.3773 19.4519 13.6429 19.3573 13.8321 19.1681C14.0214 18.9788 14.116 18.7205 14.116 18.393C14.116 18.0728 14.0214 17.8326 13.8321 17.6725C13.6429 17.5124 13.37 17.4324 13.0134 17.4324H12.1292V19.4519H13.0353Z" fill="white"/>
<path d="M20.0801 21.8316H23.5078V23.4581H17.6895V21.908L19.8945 20.1178C20.2366 19.8339 20.4949 19.6083 20.6696 19.441C20.8443 19.2736 20.9789 19.1026 21.0735 18.9279C21.1754 18.7532 21.2263 18.5604 21.2263 18.3493C21.2263 18.0219 21.099 17.7744 20.8443 17.607C20.5968 17.4397 20.2802 17.356 19.8945 17.356C19.6034 17.356 19.316 17.3996 19.0322 17.487C18.7483 17.567 18.4936 17.6762 18.268 17.8144L17.6567 16.4172C18.006 16.1916 18.3954 16.0133 18.8248 15.8823C19.2614 15.7513 19.7272 15.6858 20.222 15.6858C21.139 15.6858 21.8777 15.8786 22.438 16.2643C22.9984 16.6428 23.2786 17.2031 23.2786 17.9454C23.2786 18.4549 23.133 18.9206 22.8419 19.3427C22.5581 19.7575 22.1178 20.2051 21.5211 20.6854L20.0801 21.8316Z" fill="white"/>
</g>
<defs>
<clipPath id="clip0_1967_20971">
<rect width="32" height="32" fill="white"/>
</clipPath>
</defs>
</svg>
