<svg width="32" height="32" viewBox="0 0 32 32" fill="none" xmlns="http://www.w3.org/2000/svg">
<path d="M32 19.1149L23.9766 26.9866C18.6891 32.3061 10.1522 32.3423 4.909 27.0674C-0.334204 21.7925 -0.298247 13.204 4.98931 7.88446L13 0H32V19.1149Z" fill="black"/>
<path d="M8.5 20.8031V12.6969H11.6131C12.7029 12.6969 13.5362 12.9362 14.1132 13.4149C14.6981 13.8858 14.9906 14.5266 14.9906 15.3372C14.9906 15.8776 14.8624 16.3717 14.606 16.8195C14.3496 17.2595 13.9649 17.6108 13.4521 17.8733C12.9393 18.1358 12.3222 18.267 11.6011 18.267H10.5794V20.8031H8.5ZM11.577 16.5531C11.9536 16.5531 12.2461 16.4528 12.4545 16.252C12.6628 16.0513 12.767 15.7772 12.767 15.4298C12.767 15.0901 12.6628 14.8354 12.4545 14.6655C12.2461 14.4957 11.9456 14.4108 11.553 14.4108H10.5794V16.5531H11.577Z" fill="white"/>
<path d="M19.5504 12.5C20.576 12.5 21.3493 12.693 21.8702 13.079C22.391 13.465 22.6514 13.963 22.6514 14.5729C22.6514 14.9666 22.5312 15.3179 22.2908 15.6267C22.0504 15.9355 21.7019 16.1826 21.2451 16.3678V16.4142C21.782 16.5223 22.2067 16.7423 22.5192 17.0743C22.8397 17.4062 23 17.854 23 18.4176C23 18.9348 22.8437 19.3903 22.5312 19.7841C22.2187 20.1701 21.794 20.4712 21.2572 20.6873C20.7283 20.8958 20.1433 21 19.5023 21C18.8773 21 18.2843 20.9189 17.7234 20.7568C17.1625 20.5947 16.6937 20.3631 16.3171 20.062L17.1705 18.5797C17.7474 19.0661 18.4606 19.3093 19.31 19.3093C19.7747 19.3093 20.1353 19.2205 20.3917 19.0429C20.6562 18.8576 20.7884 18.6029 20.7884 18.2786C20.7884 17.6455 20.2996 17.329 19.322 17.329H18.1441V15.8467H19.1778C19.5864 15.8467 19.9029 15.7772 20.1273 15.6383C20.3597 15.4916 20.4759 15.287 20.4759 15.0245C20.4759 14.7775 20.3597 14.5767 20.1273 14.4223C19.9029 14.2679 19.5864 14.1907 19.1778 14.1907C18.8492 14.1907 18.5247 14.2448 18.2042 14.3529C17.8836 14.4532 17.5992 14.5922 17.3508 14.7698L16.4854 13.4843C16.902 13.1601 17.3708 12.9169 17.8917 12.7548C18.4205 12.5849 18.9734 12.5 19.5504 12.5Z" fill="white"/>
</svg>
