<svg width="64" height="64" viewBox="0 0 64 64" fill="none" xmlns="http://www.w3.org/2000/svg">
<g clip-path="url(#clip0_1967:20919)">
<path d="M58.788 -0.129944H10.7441C6.86949 -0.129944 4.24731 3.99591 5.59997 7.62679C7.6967 13.255 10.0218 21.0872 10.0218 28.1444C10.0218 36.3764 5.80358 48.8267 2.77087 56.7141C1.4172 60.2346 3.98872 64.13 7.76056 64.13H33.1554C48.5778 64.13 64.0002 51.278 64.0002 25.574V5.08225C64.0002 2.20364 61.6666 -0.129944 58.788 -0.129944Z" fill="black"/>
<path d="M35.6452 39.7359H23.4001V22.2429H27.7234V35.8375H35.6452V39.7359Z" fill="white"/>
<path d="M45.3173 39.7359H40.994V25.9414H35.8961V22.2429H50.4153V25.9414H45.3173V39.7359Z" fill="white"/>
</g>
<defs>
<clipPath id="clip0_1967:20919">
<rect width="64" height="64" fill="white"/>
</clipPath>
</defs>
</svg>
