<svg width="64" height="64" viewBox="0 0 64 64" fill="none" xmlns="http://www.w3.org/2000/svg">
<g clip-path="url(#clip0_1967:20942)">
<path fill-rule="evenodd" clip-rule="evenodd" d="M40.8209 22.0529L61.148 1.72589C60.2031 0.666834 58.8279 0 57.297 0H8.86998C5.03479 0 2.43999 4.08398 3.78322 7.67625C5.89895 13.3344 8.26408 21.2546 8.26408 28.3863C8.26408 36.6877 3.99129 49.262 0.943773 57.1746C0.349009 58.7189 0.5179 60.3362 1.21545 61.6584L23.5061 39.3677H21.3493V22.0529H25.6285V35.509H27.3648L37.1601 25.7138H33.7179V22.0529H40.8209Z" fill="black"/>
<path fill-rule="evenodd" clip-rule="evenodd" d="M23.5059 39.3678L1.19141 61.6823C2.07133 63.3306 3.7751 64.5143 5.84372 64.5143H31.4525C46.9359 64.5143 62.4194 51.6115 62.4194 25.8058V5.15915C62.4194 3.8501 61.9318 2.65493 61.1284 1.7453L40.8207 22.053H48.0891V25.7138H43.0431V39.3678H38.7638V25.7138H37.1599L27.3646 35.5091H33.4695V39.3678H23.5059Z" fill="#67707B"/>
<path d="M33.47 39.6919H21.3496V22.3771H25.6288V35.8332H33.47V39.6919Z" fill="white"/>
<path d="M43.0435 39.6919H38.7643V26.0379H33.7183V22.3771H48.0896V26.0379H43.0435V39.6919Z" fill="white"/>
</g>
<defs>
<clipPath id="clip0_1967:20942">
<rect width="64" height="64" fill="white"/>
</clipPath>
</defs>
</svg>
