<svg width="32" height="32" viewBox="0 0 32 32" fill="none" xmlns="http://www.w3.org/2000/svg">
<path d="M0 19.2091L7.88446 26.9866C13.204 32.3061 21.7925 32.3423 27.0674 27.0674C32.3423 21.7925 32.3061 13.204 26.9866 7.88446L19.2091 0H0V19.2091Z" fill="black"/>
<path d="M9.5 21V12.5H12.5776C13.6549 12.5 14.4788 12.751 15.0491 13.2529C15.6274 13.7467 15.9166 14.4186 15.9166 15.2686C15.9166 15.8352 15.7898 16.3533 15.5363 16.8229C15.2828 17.2843 14.9026 17.6526 14.3956 17.9279C13.8886 18.2031 13.2786 18.3407 12.5657 18.3407H11.5557V21H9.5ZM12.5419 16.5436C12.9142 16.5436 13.2034 16.4383 13.4093 16.2279C13.6153 16.0174 13.7183 15.73 13.7183 15.3657C13.7183 15.0095 13.6153 14.7424 13.4093 14.5643C13.2034 14.3862 12.9063 14.2971 12.5182 14.2971H11.5557V16.5436H12.5419Z" fill="white"/>
<path d="M23.3474 12.5V17.6121H24.5V19.2029H23.3474V21H21.2561V19.2029H17.4537V17.8793L21.4105 12.5H23.3474ZM21.3274 14.9529L19.4024 17.6121H21.3274V14.9529Z" fill="white"/>
</svg>
