<svg width="32" height="32" viewBox="0 0 32 32" fill="none" xmlns="http://www.w3.org/2000/svg">
<g clip-path="url(#clip0_1967_20919)">
<path d="M29.394 -0.0650024H5.37204C3.43471 -0.0650024 2.12362 1.99793 2.79995 3.81336C3.84831 6.62746 5.01088 10.5436 5.01088 14.0722C5.01088 18.1882 2.90176 24.4133 1.3854 28.357C0.708566 30.1173 1.99432 32.065 3.88025 32.065H16.5777C24.2889 32.065 32.0001 25.639 32.0001 12.787V2.5411C32.0001 1.10179 30.8333 -0.0650024 29.394 -0.0650024Z" fill="black"/>
<path d="M17.8227 19.868H11.7002V11.1215H13.8618V17.9187H17.8227V19.868Z" fill="white"/>
<path d="M22.6588 19.868H20.4971V12.9707H17.9482V11.1215H25.2078V12.9707H22.6588V19.868Z" fill="white"/>
</g>
<defs>
<clipPath id="clip0_1967_20919">
<rect width="32" height="32" fill="white"/>
</clipPath>
</defs>
</svg>
