<svg width="64" height="64" viewBox="0 0 64 64" fill="none" xmlns="http://www.w3.org/2000/svg">
<g clip-path="url(#clip0_1967:21011)">
<path d="M55.3384 52.2105H20.5714H20.2105C9.04856 52.2105 0 43.162 0 32C0 20.8381 9.04856 11.7895 20.2105 11.7895H20.5714H38.015C52.3661 11.7895 64 23.4234 64 37.7744V43.5489C64 48.3326 60.1221 52.2105 55.3384 52.2105Z" fill="black"/>
<path d="M30.9146 42.1754H26.3875L23.2515 36.9409H22.8978H20.9407V42.1754H16.8616V25.6702H23.275C25.6329 25.6702 27.3778 26.1339 28.5096 27.0613C29.6414 27.9888 30.2073 29.2935 30.2073 30.9754C30.2073 32.2487 29.9322 33.3176 29.382 34.1822C28.8475 35.031 28.093 35.6755 27.1184 36.1156L30.9146 42.1754ZM20.9407 29.1599V33.4512H23.1572C23.9903 33.4512 24.6426 33.2626 25.1142 32.8853C25.6015 32.4923 25.8452 31.9264 25.8452 31.1876C25.8452 30.5117 25.6251 30.0087 25.1849 29.6786C24.7448 29.3328 24.0453 29.1599 23.0864 29.1599H20.9407Z" fill="white"/>
<path d="M44.8054 33.3569C45.9057 33.7184 46.6838 34.2372 47.1397 34.9131C47.6113 35.589 47.847 36.4064 47.847 37.3653C47.847 38.3399 47.5955 39.1888 47.0925 39.9119C46.6052 40.6349 45.8979 41.193 44.9704 41.586C44.0587 41.9789 42.9898 42.1754 41.7637 42.1754H34.5721V25.6702H41.1035C43.0998 25.6702 44.5617 26.0396 45.4892 26.7784C46.4323 27.5015 46.9039 28.5311 46.9039 29.8672C46.9039 31.4549 46.2044 32.6181 44.8054 33.3569ZM38.722 29.042V32.3902H40.8913C41.5357 32.3902 42.023 32.2408 42.3532 31.9422C42.699 31.6435 42.8719 31.2112 42.8719 30.6453C42.8719 29.5764 42.1881 29.042 40.8205 29.042H38.722ZM41.3393 38.8272C42.0466 38.8272 42.5732 38.6622 42.919 38.3321C43.2806 37.9862 43.4614 37.5382 43.4614 36.9881C43.4614 35.8563 42.7854 35.2904 41.4336 35.2904H38.722V38.8272H41.3393Z" fill="white"/>
</g>
<defs>
<clipPath id="clip0_1967:21011">
<rect width="64" height="64" fill="white"/>
</clipPath>
</defs>
</svg>
