<svg width="64" height="64" viewBox="0 0 64 64" fill="none" xmlns="http://www.w3.org/2000/svg">
<path d="M64 38.2297L47.9533 53.9731C37.3782 64.6122 20.3044 64.6845 9.81801 54.1347C-0.668408 43.5849 -0.596495 26.408 9.97863 15.7689L26 0H64V38.2297Z" fill="black"/>
<path d="M17 41.6063V25.3937H23.2262C25.4057 25.3937 27.0725 25.8724 28.2263 26.8297C29.3963 27.7716 29.9812 29.0531 29.9812 30.6744C29.9812 31.7552 29.7248 32.7434 29.212 33.639C28.6991 34.5191 27.9299 35.2216 26.9042 35.7466C25.8785 36.2716 24.6445 36.5341 23.2021 36.5341H21.1588V41.6063H17ZM23.1541 33.1063C23.9073 33.1063 24.4922 32.9055 24.9089 32.5041C25.3256 32.1026 25.5339 31.5545 25.5339 30.8597C25.5339 30.1803 25.3256 29.6708 24.9089 29.3311C24.4922 28.9914 23.8913 28.8215 23.106 28.8215H21.1588V33.1063H23.1541Z" fill="white"/>
<path d="M39.1007 25C41.1521 25 42.6986 25.386 43.7403 26.158C44.782 26.9301 45.3029 27.926 45.3029 29.1458C45.3029 29.9332 45.0625 30.6358 44.5817 31.2534C44.1009 31.871 43.4038 32.3651 42.4903 32.7357V32.8283C43.564 33.0445 44.4134 33.4846 45.0384 34.1485C45.6795 34.8124 46 35.708 46 36.8351C46 37.8697 45.6875 38.7807 45.0625 39.5681C44.4374 40.3401 43.5881 40.9423 42.5143 41.3747C41.4566 41.7916 40.2867 42 39.0046 42C37.7545 42 36.5686 41.8379 35.4468 41.5136C34.3249 41.1894 33.3874 40.7262 32.6342 40.124L34.3409 37.1594C35.4948 38.1322 36.9212 38.6185 38.6199 38.6185C39.5495 38.6185 40.2706 38.441 40.7835 38.0858C41.3123 37.7153 41.5768 37.2057 41.5768 36.5572C41.5768 35.2911 40.5992 34.658 38.644 34.658H36.2881V31.6935H38.3555C39.1728 31.6935 39.8059 31.5545 40.2546 31.2766C40.7194 30.9832 40.9517 30.574 40.9517 30.049C40.9517 29.5549 40.7194 29.1535 40.2546 28.8447C39.8059 28.5359 39.1728 28.3815 38.3555 28.3815C37.6984 28.3815 37.0494 28.4896 36.4083 28.7057C35.7673 28.9064 35.1983 29.1844 34.7015 29.5395L32.9707 26.9687C33.8041 26.3202 34.7416 25.8338 35.7833 25.5095C36.841 25.1698 37.9468 25 39.1007 25Z" fill="white"/>
</svg>
