<svg width="32" height="32" viewBox="0 0 32 32" fill="none" xmlns="http://www.w3.org/2000/svg">
<g clip-path="url(#clip0_1967:20942)">
<path fill-rule="evenodd" clip-rule="evenodd" d="M20.4105 11.0265L30.574 0.862947C30.1016 0.333417 29.414 0 28.6485 0H4.43499C2.5174 0 1.21999 2.04199 1.89161 3.83812C2.94947 6.66722 4.13204 10.6273 4.13204 14.1931C4.13204 18.3439 1.99565 24.631 0.471886 28.5873C0.174505 29.3595 0.25895 30.1681 0.607723 30.8292L11.7531 19.6839H10.6746V11.0265H12.8143V17.7545H13.6824L18.58 12.8569H16.859V11.0265H20.4105Z" fill="black"/>
<path fill-rule="evenodd" clip-rule="evenodd" d="M11.753 19.6839L0.595703 30.8412C1.03566 31.6654 1.88755 32.2572 2.92186 32.2572H15.7263C23.468 32.2572 31.2097 25.8058 31.2097 12.9029V2.57961C31.2097 1.92508 30.9659 1.3275 30.5642 0.872681L20.4104 11.0265H24.0446V12.857H21.5215V19.6839H19.3819V12.857H18.5799L13.6823 17.7546H16.7348V19.6839H11.753Z" fill="#67707B"/>
<path d="M16.735 19.8459H10.6748V11.1885H12.8144V17.9166H16.735V19.8459Z" fill="white"/>
<path d="M21.5218 19.8459H19.3822V13.019H16.8591V11.1885H24.0448V13.019H21.5218V19.8459Z" fill="white"/>
</g>
<defs>
<clipPath id="clip0_1967:20942">
<rect width="32" height="32" fill="white"/>
</clipPath>
</defs>
</svg>
